<svg xmlns="http://www.w3.org/2000/svg" width="400" height="400" version="1.0" viewBox="0 0 300 300"><path d="M25 150v125h250V25H25v125zM89.2 37.9c3 1.7 6.6 3.1 8.1 3.1s4.1 1.3 6.1 3c1.9 1.7 5.5 3.8 8 4.6 2.6.9 5.1 2.5 5.6 3.5 1.9 3.5 6.7 5.1 12.9 4.5 10.3-1.1 31.5-1.3 38.6-.3 8.5 1.2 12 .5 15.4-3.2 3.1-3.3 6.2-5.1 8.9-5.1 1.1 0 3.9-1.6 6.2-3.5 2.3-1.9 5.1-3.5 6.3-3.5 1.1 0 4.5-1.4 7.5-3.1 3.4-1.9 7.5-3.3 10.8-3.6 5.2-.6 5.3-.5 7.3 2.8 1.1 1.9 3 4.4 4.2 5.6 6 5.8 6.6 45.3.9 51.8-3.8 4.4-7 11.3-7 15.1 0 4.6 3.6 18.2 5.4 20.4 4.1 5 4.6 18.9.8 25.2-1.1 1.8-2.8 5.5-3.8 8.3-1 2.7-2.8 6.3-4.1 7.8-1.3 1.6-2.3 3.5-2.3 4.3 0 1.6-4.4 8.9-6 9.9-.5.3-1 1.7-1 3.1 0 4.1-1.8 6.3-6.2 7.5-3.7.9-4.4.9-5.5-.7-.7-1-1.3-3.5-1.3-5.5 0-2.1-.4-4-.9-4.3-1.3-.8-5.1-9.3-5.1-11.4 0-1.1-.9-2.7-2-3.7s-2.9-4.3-4-7.4c-1.2-3.1-3.2-7.2-4.5-9.1-2.7-3.9-4.8-14.6-3.4-17.1.5-1.1 2.8-1.8 6.9-2.2 5.2-.4 6.6-1 10.3-4.3 4.2-3.8 9.2-9.8 11.4-13.8 3-5.4-2.5-10-12.2-10-8.5.1-12.3 1.7-18.3 7.7-4.4 4.5-5.4 6.2-6.8 12-2.3 9.4-.9 23.8 2.8 29.4 1.4 2.1 2.9 5.5 3.3 7.7.4 2.4 1.9 5.1 4 7.3 2.8 2.9 3.3 4.2 3.3 7.9 0 5 1.3 7.1 4.5 7.6 2.7.4 4.7 4.2 4.7 9.1 0 2.1.9 5.5 1.9 7.5 4.9 9.3 7.3 15.4 6.7 17.5-1.4 5.6-15.8 22.7-19.1 22.7-1.1 0-1.5-1.1-1.5-4.1v-4.2l-5.9.6c-5.2.4-6.4.2-9.2-1.9-1.8-1.3-3.8-2.4-4.5-2.4-1.4 0-2.4-2.3-2.4-5.6 0-1.7 1-3.1 3.4-4.4 2.1-1.3 4-3.6 5.1-6.3 2.8-6.8 3-7.2 6.2-8.2 4.1-1.4 5.8-3 8.8-8.2 3.7-6.7 3.3-9.4-1.7-13.5-6.3-5-6.2-5-10.7-1.7-2.3 1.6-5.6 3.2-7.4 3.6-4.2.8-6.6 2-9.8 5-1.5 1.4-4.4 2.7-6.5 3-3.4.4-4.8-.1-9.9-3.6-3.3-2.3-7-4.1-8.1-4.1-2.1 0-6.9-3.1-9.1-6-1-1.3-1.6-1.3-4.5-.1-1.8.7-4.4 1.5-5.8 1.9-3.4.7-4 1.8-4 7.9 0 4.7.4 5.8 3.7 9.4 2.1 2.3 6.1 5.2 9 6.5 4.7 2 5.3 2.6 5.3 5.3 0 4.4 1.9 7.8 5.1 9.1 1.8.8 3 2.2 3.4 4.1.7 3-.7 5.9-2.8 5.9-.6 0-2.3 1.2-3.8 2.6-2.6 2.5-3 2.6-8.6 1.6-6.9-1.2-8.3-.4-8.3 4.4 0 5.5-1.8 4.5-10.2-5.6-7-8.5-9.2-14-7.4-18.5.8-1.7 1.9-5.5 2.5-8.4.6-2.8 2.1-6.5 3.2-8.1 1.5-1.9 2.4-5.1 2.8-9.2.5-5.5.9-6.3 3-6.8 1.9-.4 3.1-2.1 5-6.6 1.4-3.3 3.8-7.7 5.2-9.9 1.4-2.2 3-5.1 3.4-6.5.4-1.4 1.5-3.4 2.5-4.5 1.6-1.7 1.9-4.4 2.4-17.2.5-15 .5-15.2-2.1-19-1.4-2.1-3.3-4.2-4.1-4.7-.9-.5-2.6-2-3.7-3.2-2.9-3.1-13.3-5.8-18.8-4.9-5.3.9-8.7 3.9-8.7 7.8 0 3 6.3 13.7 8 13.7.5 0 2.6 1.4 4.6 3.2 3.1 2.7 4.6 3.3 10 3.6 3.5.2 6.8 1 7.4 1.7 1.4 1.7-1.4 12.5-3.9 14.5s-4.1 5.3-4.1 8.6c0 1.8-1.2 4-3.2 6.1-2.7 2.8-3.3 4.4-3.9 9.6-.5 5.1-1.2 6.8-3.8 9.6-1.7 1.8-3.2 4.2-3.2 5.2-.1 1-.3 2.3-.4 2.9l-.4 2c0 .6-1.3 1.5-2.7 2-3.6 1.4-6.1-.3-7.6-5.2-.7-2.3-2.4-5.4-3.8-7-1.4-1.5-3.4-5.1-4.4-7.8-1-2.8-2.2-5.3-2.7-5.6-1.6-1-4.9-8.2-4.9-10.8 0-1.4-.9-4-2-5.8-2.8-4.6-2.8-17.8-.1-22.9 2.2-4 5.5-23 4.6-26.2-1.1-3.9-3.4-8.4-4.9-9.6-3.3-2.7-8.1-22.3-7.2-29.5 1.1-9.6 4.7-20.9 7.7-24.2 1.1-1.1 1.9-2.5 1.9-3s.7-2 1.6-3.3c1.5-2.1 2.2-2.3 6.9-1.8 3.2.3 7.4 1.7 10.7 3.6zm67.1 204.2c2.1.6 5.2 2.4 6.9 4 2.8 2.7 3.7 2.9 10.4 2.9 4.5 0 7.6.5 8 1.2.4.7-1.2 2.7-4.1 5.2-2.7 2.3-6.5 5.6-8.4 7.5-3.5 3.2-3.8 3.3-9.1 2.5-7-1-11.3-1-17.5 0l-5 .8-7.5-6.2c-12.3-10.2-12.4-11-1.6-11 6.1 0 7.6-.3 9.2-2.1 4.4-4.9 11.7-6.8 18.7-4.8z"/><path d="M145.077 318.954c-9.478-9.792-16.634-21.012-16.847-26.417-.063-1.588.645-5.127 1.731-8.656a665.66 665.66 0 0 0 2.866-9.553c.565-1.97 1.711-4.925 2.547-6.567a994.86 994.86 0 0 0 2.644-5.234c.618-1.237 1.543-5.267 2.056-8.955.512-3.688 1.141-7.082 1.398-7.542.256-.46 1.642-1.4 3.08-2.09 2.486-1.193 2.844-1.716 7.389-10.806 2.627-5.253 5.39-10.414 6.142-11.468.752-1.054 2.587-4.412 4.08-7.463 1.49-3.05 3.356-6.755 4.143-8.233 1.233-2.314 1.516-4.009 2.038-12.239.334-5.253.608-14 .61-19.435.001-9.493-.061-10.01-1.589-13.134-2.152-4.4-11.173-13.128-16.022-15.502-10.92-5.346-23.778-5.433-29.57-.199-4.3 3.885-4.352 6.983-.255 15.136 2.758 5.486 5.243 8.687 8.18 10.534 1.398.879 4.013 2.794 5.812 4.255 4.136 3.36 4.815 3.605 12.818 4.6 7.4.92 9.733 1.621 10.298 3.094.578 1.506-.814 8.69-2.476 12.78-.804 1.98-2.681 4.954-4.172 6.612-2.716 3.02-3.351 4.524-4.519 10.687-.478 2.525-1.267 4.078-3.334 6.567-3.85 4.632-4.826 6.813-5.615 12.539-.995 7.225-2.028 9.993-5.114 13.709-3.555 4.282-4.155 5.506-4.952 10.115-.75 4.346-1.342 5.155-4.585 6.27-4.236 1.456-6.785-.457-9.197-6.903-1.152-3.08-2.916-6.155-6.867-11.973-.966-1.423-2.896-5.2-4.289-8.394-1.392-3.194-3.343-6.821-4.335-8.06-2.403-3.004-4.614-8.15-5.427-12.632-.365-2.011-1.449-5.317-2.408-7.346-2.561-5.416-3.163-9.236-2.847-18.094.245-6.886.48-8.269 2.08-12.24 2.802-6.95 5.392-19.31 6.454-30.787.351-3.804.21-4.684-1.446-8.955-1.009-2.605-2.956-6.21-4.326-8.012-3.473-4.566-5.068-8.35-7.367-17.48-2.83-11.24-3.64-18.665-2.72-24.95 1.579-10.805 5.738-23.863 9.02-28.324.966-1.313 2.45-3.866 3.297-5.672.847-1.806 2.24-4.022 3.097-4.925 1.366-1.442 2-1.642 5.2-1.642 5.021 0 9.705 1.334 16.796 4.784 3.32 1.616 7.35 3.245 8.955 3.62 4.137.969 7.464 2.54 10.787 5.097 1.583 1.217 5.634 3.509 9.001 5.093 4.69 2.206 6.856 3.636 9.256 6.113 2.528 2.61 3.822 3.435 6.712 4.277 3.305.962 4.64.984 17.312.278 12.945-.72 32.314-.582 50.065.358 8.133.43 10.235-.282 15.768-5.345 4.115-3.767 7.11-5.413 10.999-6.047 1.305-.212 4.073-1.699 6.783-3.644 5.085-3.648 8.663-5.629 10.169-5.629.547 0 4.386-1.603 8.53-3.562 9.277-4.386 15.239-5.932 21.097-5.473.562.044 2.155 1.76 3.54 3.811 1.384 2.053 3.673 5.16 5.086 6.908 4.982 6.16 6.44 14.48 6.458 36.824.017 22.112-.919 27.247-6.253 34.328-3.192 4.237-6.429 10.966-7.32 15.216-.581 2.768-.53 4.358.291 9.142 1.475 8.586 3.733 15.91 6.665 21.612 3.127 6.082 4.13 10.414 4.09 17.666-.036 6.63-1.141 11.16-4.23 17.328-1.296 2.59-3.198 6.746-4.227 9.237-1.028 2.491-2.791 5.984-3.918 7.761-1.126 1.778-2.623 4.441-3.326 5.919-4.477 9.415-5.658 11.535-7.76 13.922-1.993 2.265-2.43 3.265-2.913 6.683-.601 4.245-1.826 6.19-4.906 7.794-2.193 1.14-6.997 2.154-8.282 1.746-1.634-.518-2.891-3.804-3.484-9.107-.415-3.71-.89-5.269-2.074-6.822-1.867-2.448-4.905-9.447-5.764-13.28-.364-1.623-1.648-4.158-3.04-6.003-1.327-1.756-3.33-5.369-4.45-8.028-1.123-2.66-3.66-7.988-5.64-11.84-3.77-7.337-5.192-11.718-5.788-17.838-.686-7.052-.15-7.55 9.654-8.95 3.283-.468 7.106-1.402 8.495-2.074 4.647-2.25 16.85-15.57 20.158-22.003 1.4-2.721 1.36-6.27-.09-8.277-.634-.877-2.753-2.4-4.708-3.386-3.229-1.626-4.195-1.81-10.516-2.001-12.152-.368-16.974 1.491-25.322 9.762-8.701 8.623-10.727 14.519-10.664 31.045.047 12.347 1.24 18.113 5.291 25.588 1.449 2.673 3.093 6.472 3.654 8.442 1.352 4.756 2.73 7.38 5.636 10.738 3.374 3.898 3.968 5.331 4.394 10.606.554 6.85 1.398 8.432 5.258 9.857 4.968 1.834 5.89 3.691 7.577 15.25.445 3.045 1.714 6.414 5.061 13.434 6.655 13.955 6.971 15.806 3.65 21.344-5.066 8.445-17.24 22.499-21.417 24.725-1.512.805-1.721.783-2.486-.264-.533-.728-.836-2.7-.836-5.441v-4.3l-8.507.085-8.508.085-2.855-1.982c-1.571-1.09-4.03-2.502-5.465-3.137-2.844-1.258-3.918-3.179-3.918-7.005 0-1.71.452-2.491 2.457-4.24 6.033-5.263 7.436-7.003 9.445-11.71 2.933-6.872 4.092-8.219 8.436-9.803 4.7-1.714 7.924-4.95 11.198-11.244 4.285-8.237 3.99-11.83-1.376-16.735-3.878-3.544-8.513-6.681-9.872-6.681-.55 0-2.655 1.07-4.68 2.38-5.22 3.374-7.532 4.468-12.623 5.977-5.537 1.641-6.753 2.26-10.46 5.324-4.01 3.314-7.628 4.911-11.278 4.98-3.399.064-5.463-.835-12.594-5.49-2.463-1.609-5.687-3.35-7.163-3.869-1.477-.519-3.868-1.36-5.315-1.867-1.514-.532-4.28-2.434-6.51-4.478-2.462-2.256-4.39-3.55-5.28-3.542-1.639.014-14.706 4.398-15.512 5.204-1.85 1.85-1.915 13.542-.096 17.091 2.3 4.49 8.798 9.917 16.576 13.846 5.313 2.685 6.259 3.89 6.293 8.026.04 4.903 2.576 8.682 7.706 11.48 1.068.581 2.27 1.938 2.762 3.114 1.784 4.27.708 7.396-3.094 8.985-1.151.48-3.327 1.96-4.835 3.288-3.434 3.023-4.496 3.283-10.05 2.456-10.033-1.492-12.114-.743-12.6 4.533-.396 4.317-.739 5.547-1.545 5.547-.402 0-2.748-2.083-5.212-4.628z" style="fill:#fff;stroke-width:.597015" transform="scale(.75)"/><path d="M175.2 347.709c-13.074-10.916-15.315-13.378-13.324-14.64.446-.282 2.96-.532 5.587-.555 2.627-.022 6.86-.26 9.406-.527 4.428-.465 4.76-.608 7.63-3.293 5.48-5.125 12.907-7.436 20.173-6.275 4.52.722 8.073 2.426 12.923 6.196 1.961 1.525 4.11 2.893 4.776 3.041.666.148 5.043.491 9.727.762 4.683.272 8.802.78 9.153 1.132.453.452.407 1.014-.157 1.932-1.115 1.816-18.149 16.87-20.273 17.917-1.476.728-2.654.75-7.553.144-9.515-1.178-19.839-.88-28.218.817-1.263.256-2.912-.858-9.85-6.651z" style="fill:#fff;stroke-width:.597015" transform="scale(.75)"/></svg>