<svg xmlns="http://www.w3.org/2000/svg" width="400" height="400" version="1.0" viewBox="0 0 300 300"><path d="M25 150v125h250V25H25v125zM89 38l8 3 6 3 8 5 6 3c2 4 7 5 13 5 10-1 31-2 38-1 9 2 12 1 16-3 3-3 6-5 9-5l6-3 6-4 8-3 11-4c5 0 5 0 7 3l4 6c6 6 7 45 1 52-4 4-7 11-7 15l5 20c5 5 5 19 1 25l-4 8c-1 3-2 7-4 8l-2 5c0 1-4 9-6 10l-1 3c0 4-2 6-6 7s-5 1-6-1l-1-5-1-4-5-12-2-3-4-8-4-9c-3-4-5-15-4-17 1-1 3-2 7-2 5-1 7-1 10-5 5-3 10-9 12-13 3-6-3-10-12-10s-13 1-19 7l-7 12c-2 10 0 24 3 30l4 7c0 3 1 6 4 8 2 3 3 4 3 8 0 5 1 7 4 7 3 1 5 4 5 9l2 8c5 9 7 15 7 17-2 6-16 23-19 23-2 0-2-1-2-4v-4h-6c-5 1-6 1-9-2l-5-2c-1 0-2-2-2-6l3-4c3-1 4-4 6-6 2-7 3-7 6-8 4-2 6-3 9-9s3-9-2-13c-6-5-6-5-11-2l-7 4c-4 1-7 2-10 5l-7 3c-3 0-4 0-9-4l-9-4c-2 0-6-3-9-6h-4l-6 2c-3 1-4 2-4 8 0 4 0 6 4 9l9 7c4 2 5 2 5 5 0 4 2 8 5 9l4 4c0 3-1 6-3 6l-4 3c-3 2-3 2-9 1-7-1-8 0-8 5s-2 4-10-6c-7-8-9-14-8-18l3-9 3-8c2-2 3-5 3-9 0-6 1-6 3-7 2 0 3-2 5-7l5-9 4-7 2-4c2-2 2-5 2-18 1-15 1-15-2-19l-4-4-3-4c-3-3-14-5-19-4-6 0-9 3-9 7 0 3 6 14 8 14l5 3c3 3 4 4 10 4l7 2c1 1-1 12-4 14s-4 5-4 9l-3 6c-3 3-3 4-4 9s-1 7-4 10l-3 5v3l-1 2c0 1-1 2-3 2-3 1-6 0-7-5l-4-7-4-8-3-6c-2-1-5-8-5-10l-2-6c-3-5-3-18 0-23 2-4 5-23 5-26l-5-10c-4-3-8-22-8-29a57 57 0 0 1 10-28l2-3c1-2 2-2 7-2l10 4zm67 204c2 1 6 2 7 4 3 3 4 3 11 3l8 1-4 5-9 8c-3 3-4 3-9 2h-17l-5 1-8-6c-12-10-12-11-2-11 7 0 8 0 10-2 4-5 11-7 18-5z"/><path d="M145 319c-9-10-17-21-17-26l2-9a666 666 0 0 0 3-10l2-6a995 995 0 0 0 3-5l2-9 1-8 4-2c2-1 2-2 7-11a159 159 0 0 1 10-19l4-8c2-2 2-4 2-12a373 373 0 0 0-1-33c-2-4-11-13-16-15-11-6-23-6-29-1-5 4-5 7 0 16 2 5 5 8 8 10l6 4c4 4 4 4 12 5s10 2 11 3c0 2-1 9-3 13l-4 6c-3 3-3 5-5 11 0 3-1 4-3 7-4 4-5 7-5 12-1 7-3 10-6 14s-4 5-5 10c0 4-1 5-4 6-4 2-7 0-9-7l-7-12-4-8-5-8-5-13-3-7c-2-5-3-9-3-18l3-12c2-7 5-20 6-31l-1-9-5-8c-3-5-5-8-7-18-3-11-4-18-3-24a82 82 0 0 1 16-39c1-2 2-2 5-2 5 0 9 1 17 5l9 3 10 5 9 6c5 2 7 3 10 6l6 4h18l50 1c8 0 10-1 15-6 5-4 8-5 11-6l7-3 10-6 9-4c9-4 15-6 21-5l4 4 5 7c5 6 6 14 6 36 0 23-1 28-6 35-3 4-7 11-7 15v9c1 9 4 16 6 22 4 6 5 10 5 17s-2 12-5 18a171 171 0 0 0-8 17l-3 6-8 14-3 6c0 4-2 6-5 8l-8 2c-2-1-3-4-3-9-1-4-1-6-3-7l-5-13-3-6-5-8-5-12c-4-8-6-12-6-18-1-7 0-8 9-9l9-2c5-2 17-16 20-22v-8l-5-4c-3-1-4-2-10-2-12 0-17 2-26 10-8 9-10 14-10 31 0 12 1 18 5 26l4 8c1 5 2 7 5 11 4 4 4 5 5 10 0 7 1 9 5 10 5 2 6 4 8 15 0 4 1 7 5 14 6 14 7 16 3 21-5 9-17 23-21 25h-3v-10h-17l-3-2-6-3c-3-1-4-3-4-7 0-2 1-2 3-4 6-5 7-7 9-12 3-7 4-8 9-10 4-1 8-5 11-11 4-8 4-12-2-17l-9-6-5 2-13 6-10 5c-4 4-8 5-11 5-4 0-6-1-13-5l-7-4-6-2-6-4c-2-3-4-4-5-4l-16 5c-2 2-2 14 0 17 2 5 9 10 17 14 5 3 6 4 6 8 0 5 3 9 8 12l2 3c2 4 1 7-3 9l-5 3c-3 3-4 3-10 3-10-2-12-1-12 4l-2 6-5-5z" style="fill:#fff;stroke-width:.597015" transform="scale(.75)"/><path d="M175 348c-13-11-15-14-13-15h5l10-1c4 0 5-1 7-3 6-5 13-8 21-7 4 1 8 3 13 7l4 3h10l9 2v1l-20 18-8 1c-9-2-20-1-28 0-1 1-3 0-10-6z" style="fill:#fff;stroke-width:.597015" transform="scale(.75)"/></svg>