<svg xmlns="http://www.w3.org/2000/svg" width="317.333" height="317.333" version="1.0" viewBox="0 0 238 238"><path d="M61.7 60.8 4 118.5l57.8 57.8 57.7 57.7 58-58 58-58L178 60.5C146.4 28.9 120.3 3 120 3c-.3 0-26.5 26-58.3 57.8zm16.1.7c3 1.4 5.9 2.5 6.4 2.5.6 0 2.3 1.1 4 2.5 1.6 1.4 3.8 2.5 4.7 2.5 1 0 3.1 1.2 4.7 2.7l2.9 2.8 19.9-.1 19.8-.2 2.5-2.6c1.3-1.4 3.1-2.6 3.9-2.6.9 0 2.9-1.1 4.6-2.5 1.6-1.4 3.5-2.5 4.3-2.5.7 0 3.8-1.2 6.9-2.6 6.4-2.9 9.6-2.8 11.2.3.6 1.3 1.9 3.2 3 4.4 1.7 1.9 1.9 3.7 1.9 16.8v14.6l-3.2 4.4c-4.2 5.6-4.3 9.8-.3 19.8 1.7 4.1 3 9 3 10.9 0 3.1-3.3 12.1-6.1 16.4-.5.8-1.8 3.3-2.9 5.5-1.1 2.2-2.4 4.7-2.9 5.5-.6.8-1.6 2.8-2.3 4.5-1 2.4-2 3-4.3 3-2.6 0-3-.4-3.5-3.5-.4-1.9-1.1-4.4-1.7-5.5-5.1-9.4-11.2-23.7-11.5-27-.3-3.9-.3-3.9 4-4.7 5-.8 9-3.8 12.6-9.1 4.9-7.2 2.5-10.2-7.6-9.5-5.2.4-6.3.9-9.8 4.3-5 4.9-6.3 8.8-5.8 17.8.2 5.5.9 8 2.6 10.4 1.2 1.7 2.2 4.2 2.2 5.5 0 1.4 1.1 3.5 2.5 4.8 1.7 1.6 2.5 3.4 2.5 5.7 0 2.6.5 3.6 2.4 4.2 2.5 1 3.6 3 3.6 6.6 0 1.3.6 3.6 1.4 5.2 5.3 10.6 5.2 9.8 3 13.8-2 3.7-10.1 12.5-11.6 12.5-.4 0-.8-1.1-.8-2.5 0-2.2-.4-2.5-3.9-2.5-4.8 0-11.1-3.4-11.1-6.1 0-1 1.1-2.6 2.4-3.4 1.3-.9 3.1-3.3 4-5.4 1-2.7 2.4-4.2 4.5-4.9 3.4-1.2 6.1-5.7 6.1-10.1 0-2.2-.8-3.4-3.1-4.9l-3.2-2-4.5 2.4c-2.5 1.3-5 2.4-5.7 2.4-.6 0-2.6 1.1-4.5 2.5-4.2 3.1-5.8 3.1-10.4 0-2-1.4-4.7-2.7-6-3.1-1.3-.3-3.4-1.5-4.6-2.6-2.1-2-2.5-2-6.4-.6-3.8 1.4-4.1 1.8-4.4 5.4-.4 5 2.4 8.9 7.9 11.1 3.1 1.2 3.9 2 3.9 4 0 1.5 1.2 3.6 3 5.3 3.8 3.5 3.8 5.1-.1 7.9-2.3 1.7-4.1 2.2-7.7 1.9-4.5-.3-4.7-.2-5.2 2.7l-.5 3-4.8-5c-7.6-8.1-8.1-12.2-2.6-24.1 1-2.3 1.9-5.8 1.9-7.8 0-2.7.4-3.6 1.8-3.6 1.1-.1 3-2.7 5.6-8.3 2.2-4.5 4.5-8.9 5.2-9.7 1.6-2.1 2.6-17.7 1.4-22.1-.6-2.3-2.5-4.8-5.2-6.9-3.4-2.8-5.2-3.5-10-3.8-4.6-.4-6.3-.1-7.8 1.3-2.5 2.3-2.5 3.9 0 8 3 4.9 8.5 8.6 13.8 9.4 2.8.4 4.7 1.1 4.6 1.9-.1.6-.2 2.3-.2 3.6-.1 1.4-1.3 3.8-2.7 5.4-1.4 1.7-2.5 4-2.5 5.2 0 1.3-1.1 3.3-2.5 4.6-1.8 1.7-2.5 3.3-2.5 6.2 0 2.6-.7 4.5-1.9 5.6-1 1-2.2 3.2-2.5 5.1-1 5.3-6 5.8-7.2.6-.4-1.4-1.2-3.3-2-4.1-2.1-2.5-7.4-13.1-9.5-19-2.1-6.1-2.4-12.5-.8-16.7.6-1.5 1.8-6 2.5-9.8 1.4-7 1.4-7-1.5-13-4.6-9.2-6.4-15.8-5.8-21.2.6-6.4 3.3-14.8 5.2-16.3.8-.7 1.5-1.8 1.5-2.4 0-1.8 2.2-3.6 4.5-3.6 1.1 0 4.4 1.1 7.3 2.5zm47 137.6c1.7.6 3.3 1.7 3.6 2.5.4 1 2.2 1.4 6.1 1.4 3.3 0 5.5.4 5.5 1.1 0 .6-2.1 3-4.7 5.4l-4.8 4.3h-21l-4.7-4.3c-2.7-2.4-4.8-4.8-4.8-5.4 0-.6 2-1.1 4.9-1.1 3.1 0 5.3-.5 6.1-1.5 2.4-2.9 9-4.1 13.8-2.4z"/><path d="M121.253 260.636c-5.705-6.045-8.297-9.935-9.284-13.94-.709-2.872-.712-3.457-.041-6.748.404-1.981 1.824-6.3 3.156-9.596 2.677-6.628 3.78-10.676 3.79-13.915.009-2.475.905-4.016 2.582-4.437.646-.162 1.795-1.199 2.553-2.304 1.135-1.653 6.39-11.556 11.747-22.138 1.345-2.656 2.037-7.597 2.387-17.05.396-10.667-.396-13.983-4.401-18.438-5.4-6.005-11.235-8.295-20.392-8.003-5.2.166-6.326.623-8.403 3.403-2.243 3.005.001 8.674 5.674 14.332 3.98 3.971 8.53 6.426 13.944 7.523 6.11 1.239 6.157 1.275 6.157 4.807 0 3.666-.504 4.95-3.903 9.935-1.707 2.504-2.745 4.575-2.969 5.92-.445 2.68-1.149 4.007-3.717 7.016-2.25 2.636-3.146 5.136-3.146 8.778 0 2.616-.94 5.024-2.782 7.12-.75.855-1.71 2.536-2.133 3.736l-1.526 4.332c-.82 2.33-2.353 3.65-4.239 3.65-1.768 0-2.87-1.272-4.265-4.921-.688-1.8-2.212-4.677-3.388-6.394-1.176-1.717-3.795-6.454-5.822-10.527-8.632-17.35-10.147-25.857-6.632-37.243 2-6.48 3.87-15.966 3.846-19.507-.018-2.619-.4-3.761-3.594-10.758-7.496-16.422-8.507-22.23-5.913-33.974 1.402-6.348 3.543-11.762 5.671-14.336 1.037-1.255 1.886-2.59 1.886-2.964 0-1.322 1.452-3.47 2.826-4.18 2.617-1.354 5.7-.752 12.896 2.515 1.745.792 4.703 1.993 6.573 2.667 1.946.702 4.925 2.34 6.962 3.827 2.046 1.495 4.621 2.909 6.055 3.326 2.723.791 5.515 2.593 8.569 5.527l1.965 1.889 26.557-.17 26.558-.17 2.976-2.95c2.19-2.17 3.766-3.26 5.962-4.12 1.642-.643 4.434-2.244 6.205-3.557 2.065-1.53 4.374-2.743 6.437-3.38 1.77-.547 5.157-1.84 7.528-2.873 4.968-2.167 9.491-3.349 11.186-2.924 1.913.48 2.783 1.292 4.876 4.551 1.091 1.7 2.589 3.947 3.328 4.995 1.908 2.703 2.175 5.702 2.193 24.608l.015 16.245-3.145 4.358c-4.021 5.572-5.01 7.813-5.267 11.936-.257 4.127.536 7.623 3.615 15.939 4.631 12.51 4.835 14.632 2.17 22.624-1.846 5.536-3.116 8.2-10.406 21.825-2.3 4.299-4.975 9.422-5.944 11.387-.97 1.964-2.097 3.848-2.505 4.187-.911.756-4.102 1.223-5.67.83-1.35-.34-1.46-.572-2.912-6.22-.737-2.865-2.417-6.905-5.12-12.315-8.422-16.853-12.9-29.03-12-32.622.331-1.316.794-1.534 5.217-2.465 6.471-1.362 10.861-4.21 15.163-9.836 8.139-10.645 6.424-15.47-5.494-15.462-4.819.003-8.784.619-11.15 1.731-2.627 1.236-8.651 7.507-10.39 10.817-2.208 4.202-2.688 7.513-2.391 16.459.292 8.813.6 10.157 3.434 15.038 1.135 1.954 2.29 4.618 2.567 5.92.277 1.303.61 2.84.741 3.414.13.576 1.305 2.329 2.609 3.896 2.783 3.344 3.14 4.158 3.572 8.158.354 3.266 1.061 4.413 3.297 5.347 1.928.805 3.921 3.24 4.201 5.13l.712 4.818c.364 2.47 1.315 5.016 3.801 10.183 1.823 3.79 3.452 7.472 3.618 8.181.622 2.65-4.192 9.859-11.68 17.49-4.931 5.027-5.746 5.218-6.127 1.436-.289-2.87-.83-3.384-3.568-3.395-5.287-.02-11.092-2.035-14.355-4.983-2.891-2.612-2.712-3.705 1.257-7.677 2.157-2.16 3.802-4.38 5.011-6.766 2.251-4.441 2.756-4.997 6.05-6.662 4.964-2.508 7.989-7.573 7.989-13.38 0-4.019-.896-5.27-5.996-8.373l-2.444-1.487-4.897 2.602c-2.694 1.432-6.241 3.05-7.883 3.598-1.642.547-4.817 2.214-7.057 3.704-3.627 2.414-4.337 2.71-6.495 2.71-2.067 0-2.951-.329-6.03-2.248-1.984-1.236-5.07-2.902-6.86-3.7-5.37-2.398-6.123-2.822-8.519-4.802-2.106-1.74-2.469-1.876-4.334-1.62-1.12.154-3.468.871-5.217 1.595-3.93 1.625-4.838 3.076-4.839 7.73-.002 6.61 2.91 10.694 10.04 14.081 4.198 1.995 5.59 3.286 5.59 5.189 0 1.982 1.263 4.172 4.442 7.702 3.993 4.434 4.126 5.589.976 8.493-3.484 3.211-5.257 3.79-11.636 3.803-4.061.008-5.648.18-6.043.656-.295.355-.767 1.9-1.049 3.434-.282 1.533-.574 2.85-.647 2.926-.074.076-2.104-1.949-4.512-4.5z" style="fill:#fff;stroke-width:.473632" transform="scale(.75)"/><path d="M141.366 280.402c-2.574-2.338-5.39-5.15-6.259-6.247-2.016-2.548-1.7-2.754 5.033-3.26 5.809-.436 6.355-.595 8.556-2.494 3.08-2.657 5.41-3.381 10.918-3.393 4.243-.01 5.34.155 7.477 1.12 1.377.623 2.992 1.756 3.589 2.518 1.304 1.667 3.367 2.223 8.59 2.316 4.606.082 6.481.451 6.775 1.335.134.403-2.161 2.987-5.785 6.512l-6.007 5.844h-28.208z" style="fill:#fff;stroke-width:.473632" transform="scale(.75)"/></svg>