<svg xmlns="http://www.w3.org/2000/svg" width="317" height="317" version="1.0" viewBox="0 0 238 238"><path d="M62 61 4 119l58 57 58 58 58-58 58-58-58-57-58-58-58 58zm16 0 6 3 4 3 5 2 5 3 3 3 19-1h20l3-2 4-3 4-2 5-3 6-3c7-2 10-2 12 1l3 4c1 2 2 4 2 17v15l-4 4c-4 6-4 10 0 20l3 11c0 3-3 12-6 16a102 102 0 0 0-6 11l-2 5c-1 2-2 3-4 3-3 0-3-1-4-4l-2-5c-5-10-11-24-11-27 0-4 0-4 4-5 5-1 9-4 12-9 5-7 3-10-7-10-5 1-6 1-10 5-5 4-6 8-6 17 0 6 1 8 3 11l2 5c0 2 1 4 3 5l2 6 2 4c3 1 4 3 4 7l1 5c6 10 6 9 3 13-2 4-10 13-11 13l-1-2c0-3 0-3-4-3-5 0-11-3-11-6l2-3c2-1 4-4 4-6 1-3 3-4 5-5 3-1 6-6 6-10 0-2-1-3-3-5l-3-2-5 3-5 2-5 3c-4 3-6 3-10 0l-6-4-5-2c-2-2-2-2-6-1-4 2-4 2-5 6 0 5 3 9 8 11 3 1 4 2 4 4l3 5c4 4 4 5 0 8-2 2-4 2-8 2s-4 0-5 3v3l-5-5c-8-9-8-13-3-25l2-7c0-3 0-4 2-4l5-8 6-10c1-2 2-18 1-22-1-2-2-5-5-7-4-3-5-3-10-4-5 0-6 0-8 2s-2 3 0 8c3 4 9 8 14 9 3 0 5 1 4 2v3l-2 6-3 5-2 5c-2 1-3 3-3 6l-2 5-2 6c-1 5-6 5-8 0l-2-4-9-19c-2-6-2-12-1-17l3-10c1-6 1-6-2-12-4-10-6-16-6-22 1-6 4-15 6-16l1-2c0-2 2-4 5-4l7 3zm47 138 3 3 7 1 5 1-5 5-4 5h-21l-5-4-5-6 5-1 6-1c2-3 9-5 14-3z"/><path d="M121 261c-5-6-8-10-9-14v-7l3-10c3-6 4-10 4-14l2-4 3-2 12-22c1-3 2-8 2-17 1-11 0-14-4-19-6-6-11-8-21-8-5 0-6 1-8 3-2 3 0 9 6 15 4 4 8 6 14 7 6 2 6 2 6 5 0 4-1 5-4 10l-3 6c-1 3-1 4-4 7-2 3-3 5-3 9 0 2-1 5-3 7l-2 4-1 4c-1 2-3 4-5 4-1 0-3-2-4-5l-3-7c-2-1-4-6-6-10-9-18-10-26-7-37l4-20c0-3 0-4-4-11-7-16-8-22-5-34 1-6 3-11 5-14l2-3 3-4c3-2 6-1 13 2l6 3 7 4 6 3 9 6 2 2 26-1h27l3-3 6-4 6-3 7-4 7-3 11-3 5 5 4 5c1 3 2 6 2 25v16l-3 4-6 12 4 16c5 13 5 15 2 23l-10 22a537 537 0 0 0-9 15l-5 1c-2 0-2-1-3-6l-5-13c-9-16-13-29-12-32 0-2 0-2 5-3 6-1 11-4 15-10 8-10 6-15-6-15l-11 2c-2 1-8 7-10 11s-3 7-2 16c0 9 0 10 3 15a26 26 0 0 1 3 9l3 4c3 4 3 4 3 8 1 4 2 5 4 6s4 3 4 5l1 5 3 10 4 8c1 3-4 10-12 18-5 5-5 5-6 1 0-3-1-3-3-3-6 0-11-2-15-5-3-3-2-4 2-8l5-7c2-4 2-5 6-6 5-3 8-8 8-14 0-4-1-5-6-8l-3-2-5 3-8 3-7 4c-3 3-4 3-6 3l-6-2-7-4-9-5c-2-2-2-2-4-1l-5 1c-4 2-5 3-5 8 0 6 3 11 10 14 4 2 6 3 6 5l4 8c4 4 4 5 1 8-3 4-5 4-11 4l-7 1-1 3v3l-5-4z" style="fill:#fff;stroke-width:.473632" transform="scale(.75)"/><path d="m141 280-6-6c-2-2-2-3 5-3l9-3c3-2 5-3 11-3l7 1 4 3c1 1 3 2 8 2l7 1-6 7-6 6h-28z" style="fill:#fff;stroke-width:.473632" transform="scale(.75)"/></svg>