<svg xmlns="http://www.w3.org/2000/svg" width="381.333" height="385.333" version="1.0" viewBox="0 0 286 289"><path d="M24 144v120h237V24H24v120zM168.2 33.4c20.6 5.2 36.8 14 51.4 27.8 25.6 24.2 39.1 59.7 35.5 93.7-2.9 27.3-14.1 51.1-33.1 70.2-44 44.3-114.4 44.4-158.6.3-17.1-17.2-29.1-40.9-32.5-64.3-1.8-12.8-.7-33.3 2.5-45.6 8.2-31.1 30.3-58.7 58.9-73.1 23.4-11.9 51.5-15.2 75.9-9z"/><path d="M85 98.5 40.5 143l44.8 44.8 44.7 44.7v-34l-27.7-27.7L74.5 143l27.8-27.8 27.8-27.8-.3-16.7-.3-16.7L85 98.5zM147 71v16.5l27.7 27.7 27.8 27.8-27.8 27.8-27.7 27.7v33l44.2-44.3 44.3-44.2-44.3-44.2L147 54.5V71z"/><path d="M124.2 129.3 111 142.5l13.8 13.8 13.7 13.7 13.5-13.5 13.5-13.5-13.5-13.5c-7.4-7.4-13.7-13.5-14-13.5-.3 0-6.5 6-13.8 13.3z"/><path d="M183.478 344.133c-34.95-2.007-65.825-14.7-92.4-37.985-20.546-18.002-37.942-45.986-45.56-73.29-3.947-14.146-4.96-21.768-4.957-37.3.005-29.539 4.571-49.647 16.457-72.481 4.037-7.756 11.406-19.127 16.584-25.593 19.415-24.244 46.246-42.312 75.217-50.65 33.02-9.505 64.945-7.793 97.394 5.222 18.135 7.273 32.812 16.895 47.326 31.025 27.817 27.08 43.648 60.814 46.704 99.521 2.398 30.366-7.38 67.006-24.828 93.032-25.49 38.024-63.608 61.977-107.207 67.37-7.41.916-19.126 1.45-24.73 1.129zm-10.065-57.004v-22.863l-36.808-36.804-36.808-36.805 36.904-36.907 36.904-36.908-.168-16.58c-.092-9.12-.33-19.237-.527-22.482l-.36-5.9-59.524 59.53-59.524 59.531 59.523 59.526c32.738 32.739 59.718 59.525 59.956 59.525.237 0 .432-10.288.432-22.863zm81.811-155.57L196.13 72.463l-.15 22.279-.151 22.279 36.815 36.818 36.815 36.818-36.808 36.805-36.808 36.804V309.127l59.238-59.235 59.237-59.236zm-49.46 43.676c-8.462-8.485-16.88-16.735-18.709-18.335l-3.323-2.91-18.113 18.029-18.112 18.028 18.557 18.563 18.557 18.564 18.263-18.256 18.264-18.257z" style="fill:#fff;stroke-width:.575124" transform="scale(.75)"/></svg>