<svg xmlns="http://www.w3.org/2000/svg" width="381.333" height="385.333" version="1.0" viewBox="0 0 286 289"><path d="M24 144v120h240V24H24v120zM162 31.5c23.7 3.9 45 14.7 61.9 31.4 17.7 17.6 29.8 41.2 33.2 65 2.8 19.4-.4 43.1-8.4 61.7-10.5 24.8-34.8 49.3-58.9 59.2-10.4 4.3-11.8 4.6-11.8 2.9 0-.8 1.3-14.6 2.9-30.8 7.1-70.2 7.1-73.1 1.9-83.6-12.4-24.7-59.1-25.3-75.5-.9-6.2 9.1-6.2 10.5-2.4 49.1 1.1 11 2.4 28.5 3.1 39 .6 10.4 1.2 21.1 1.4 23.8.4 5.5.9 5.5-11.2.5-24.1-9.9-48.4-34.4-58.9-59.2-8-18.7-11.2-42.3-8.3-61.7 9.1-62.7 68.6-106.5 131-96.4z"/><path d="M133.7 38c-10.5 2.7-19.8 10.5-24.4 20.7-2.1 4.6-2.6 7.2-2.6 13.8 0 7.1.4 9.2 3 14.6 3.7 7.8 9.6 13.9 17.1 17.6 5 2.4 6.9 2.8 14.7 2.8 7.6 0 9.9-.4 14.6-2.6 7.6-3.6 12.9-8.6 17-16.1 3.2-6 3.4-6.8 3.4-16.3s-.2-10.3-3.4-16.3c-6.2-11.4-16.3-18-28.8-18.7-3.7-.2-8.5 0-10.6.5z"/><path d="M137.755 334.125c-19.378-7.34-36.219-18.462-52.29-34.532-25.855-25.856-39.463-53.803-44.083-90.535-1.116-8.872-1.27-26.987-.295-34.508 4.75-36.617 21.83-69.678 48.534-93.95 38.187-34.707 89.467-47.94 138.429-35.72 41.652 10.394 75.848 36.826 97.071 75.033 17.038 30.671 22.4 64.203 15.913 99.497-5.952 32.382-18.938 56.606-43.322 80.81-12.09 12.001-22.846 20.102-35.73 26.91-6.368 3.365-21.056 9.318-22.99 9.318-1.323 0-1.328-.029-.932-5.32.218-2.926 1.554-17.096 2.968-31.488 6.951-70.754 7.141-72.961 7.545-87.713.391-14.261-.042-18.179-2.758-24.969-3.396-8.49-8.609-14.745-16.596-19.911-21.872-14.15-57.09-11.998-77.366 4.727-6.325 5.217-12.54 13.897-14.547 20.318-1.28 4.093-1.244 18.629.08 32.494 2.815 29.502 3.902 41.765 4.943 55.787 1.82 24.514 3.562 54.899 3.182 55.514-.534.862-1.265.696-7.756-1.762zm64.99-191.826c12.333-3.696 23.85-13.99 29.853-26.68 2.647-5.598 3.057-8.638 2.822-20.922-.197-10.289-.31-11.252-1.697-14.578-3.92-9.39-12.507-19.61-20.339-24.204-11.085-6.503-27.557-8.253-39.326-4.178-13.163 4.558-25.442 16.835-29.998 29.993-1.997 5.769-2.686 14.25-1.78 21.933 2.217 18.792 19.477 37.04 37.455 39.6 5.072.722 19.384.123 23.01-.964z" style="fill:#fff;stroke-width:.575124" transform="scale(.75)"/></svg>