<?xml version="1.0" encoding="UTF-8" standalone="no"?>
<svg
   xmlns:dc="http://purl.org/dc/elements/1.1/"
   xmlns:cc="http://creativecommons.org/ns#"
   xmlns:rdf="http://www.w3.org/1999/02/22-rdf-syntax-ns#"
   xmlns:svg="http://www.w3.org/2000/svg"
   xmlns="http://www.w3.org/2000/svg"
   xmlns:sodipodi="http://sodipodi.sourceforge.net/DTD/sodipodi-0.dtd"
   xmlns:inkscape="http://www.inkscape.org/namespaces/inkscape"
   version="1.0"
   width="286.000000pt"
   height="289.000000pt"
   viewBox="0 0 286.000000 289.000000"
   preserveAspectRatio="xMidYMid meet"
   id="svg1852"
   sodipodi:docname="animalism.svg"
   inkscape:version="1.0.1 (3bc2e813f5, 2020-09-07)">
  <defs
     id="defs1856" />
  <sodipodi:namedview
     pagecolor="#ffffff"
     bordercolor="#666666"
     borderopacity="1"
     objecttolerance="10"
     gridtolerance="10"
     guidetolerance="10"
     inkscape:pageopacity="0"
     inkscape:pageshadow="2"
     inkscape:window-width="1600"
     inkscape:window-height="837"
     id="namedview1854"
     showgrid="false"
     inkscape:zoom="1.7387543"
     inkscape:cx="190.66667"
     inkscape:cy="192.66667"
     inkscape:window-x="-8"
     inkscape:window-y="-8"
     inkscape:window-maximized="1"
     inkscape:current-layer="svg1852" />
  <metadata
     id="metadata1836">
Created by potrace 1.16, written by Peter Selinger 2001-2019
<rdf:RDF>
  <cc:Work
     rdf:about="">
    <dc:format>image/svg+xml</dc:format>
    <dc:type
       rdf:resource="http://purl.org/dc/dcmitype/StillImage" />
  </cc:Work>
</rdf:RDF>
</metadata>
  <g
     transform="translate(0.000000,289.000000) scale(0.100000,-0.100000)"
     fill="#000000"
     stroke="none"
     id="g1850">
    <path
       d="M240 1450 l0 -1200 1200 0 1200 0 0 1200 0 1200 -1200 0 -1200 0 0 -1200z m1480 1107 c209 -55 377 -151 526 -301 130 -131 211 -255 268 -416 221 -615 -110 -1289 -729 -1483 -128 -40 -200 -51 -345 -51 -145 0 -217 11 -345 51 -564 177 -904 771 -771 1347 50 214 149 391 310 552 178 179 373 276 656 328 14 2 95 3 180 1 126 -2 172 -7 250 -28z"
       id="path1838" />
    <path
       d="M1620 2301 c-5 -11 -10 -34 -10 -51 0 -17 -11 -48 -25 -69 -53 -79 -68 -137 -73 -276 -2 -73 1 -163 7 -204 11 -70 14 -76 79 -147 84 -93 136 -122 193 -105 44 13 71 39 102 96 20 36 22 55 22 180 l0 140 -46 95 c-25 52 -71 132 -102 178 -32 45 -57 91 -57 101 0 10 -5 32 -11 50 -9 25 -16 31 -40 31 -18 0 -32 -7 -39 -19z"
       id="path1840" />
    <path
       d="M1046 2125 c-101 -154 -114 -207 -118 -480 -1 -124 11 -175 49 -205 43 -34 97 -27 186 25 86 51 108 81 126 178 19 104 -21 353 -69 432 -10 17 -28 56 -40 88 -37 97 -47 94 -134 -38z"
       id="path1842" />
    <path
       d="M2222 1818 c-5 -7 -19 -31 -30 -54 -17 -34 -27 -42 -57 -47 -53 -9 -90 -40 -104 -89 -7 -24 -33 -75 -57 -115 -65 -104 -77 -139 -70 -196 4 -36 12 -54 32 -69 14 -12 46 -52 70 -90 49 -76 91 -108 145 -108 61 0 100 35 127 115 30 87 32 193 7 385 -11 84 -15 156 -10 193 4 39 2 63 -6 73 -14 17 -33 18 -47 2z"
       id="path1844" />
    <path
       d="M616 1798 c-3 -7 -7 -28 -10 -47 -3 -18 -18 -61 -33 -95 -27 -59 -28 -66 -28 -246 0 -161 3 -191 19 -228 15 -34 27 -44 58 -54 45 -13 124 1 174 31 69 42 92 250 45 401 -35 113 -54 144 -110 178 -27 17 -55 40 -61 52 -12 22 -48 27 -54 8z"
       id="path1846" />
    <path
       d="M1345 1442 c-22 -14 -105 -64 -185 -110 -188 -109 -251 -154 -333 -242 -79 -83 -87 -100 -87 -180 0 -51 7 -73 48 -152 46 -91 48 -94 113 -126 94 -47 168 -53 235 -19 71 36 159 105 237 185 58 60 67 75 67 106 0 43 -20 95 -43 115 -24 20 -21 31 10 31 61 0 167 -95 183 -165 4 -18 3 -54 -2 -81 -5 -27 -11 -83 -14 -125 l-6 -75 35 -37 c32 -35 38 -37 96 -37 202 0 327 198 292 463 -18 140 -47 173 -212 242 -71 29 -93 47 -139 111 -78 112 -207 154 -295 96z"
       id="path1848" />
  </g>
  <path
     style="fill:#ffffff;stroke-width:0.575124"
     d="m 180.02687,343.91638 c -12.01399,-0.68566 -19.62218,-2.11485 -32.49453,-6.10405 C 110.33753,326.28549 79.672688,301.59624 59.893977,267.25188 37.752201,228.80423 33.681717,181.53228 48.932392,139.95114 53.919357,126.35412 63.152907,110.09139 72.554535,98.346269 77.657327,91.971531 91.861467,77.758264 98.071642,72.812765 116.596,58.060818 136.59159,48.943006 163.92338,42.78496 c 8.50315,-1.915818 8.82483,-1.943619 22.42985,-1.938514 26.42354,0.0099 35.65814,1.254414 53.77413,7.246854 16.42964,5.434626 33.04863,14.466079 46.58508,25.316285 11.20551,8.981834 25.245,24.481709 33.52682,37.014295 8.47551,12.82568 16.47112,32.20023 20.17442,48.88557 7.56234,34.07242 3.14468,69.47509 -12.6222,101.15297 -7.3692,14.80578 -15.43501,26.1224 -27.25036,38.23329 -8.40873,8.61905 -15.98016,14.89064 -25.61873,21.2206 -18.27621,12.00257 -43.66221,21.33676 -63.61575,23.39091 -8.22437,0.84667 -22.31126,1.12101 -31.27977,0.60916 z m 56.36218,-30.26691 c 5.96947,-1.52196 11.04626,-4.57309 16.20319,-9.73806 3.98466,-3.99088 5.14124,-5.61654 7.59291,-10.6724 5.23001,-10.78542 7.18053,-22.60866 5.95704,-36.10922 -1.9523,-21.54271 -5.85286,-26.83401 -26.30239,-35.68042 -11.85278,-5.12749 -13.95367,-6.71093 -20.86226,-15.72387 -6.04823,-7.89052 -11.6656,-12.32228 -18.676,-14.73421 -7.76384,-2.67115 -14.37211,-2.0697 -21.25785,1.9348 -30.74938,17.88271 -48.11887,28.5952 -55.20084,34.04465 -8.26377,6.35882 -20.63856,19.40688 -23.36951,24.64095 -1.352574,2.59232 -1.524892,3.64118 -1.720578,10.47259 -0.264563,9.23567 -0.0078,10.15557 6.367748,22.81777 2.9352,5.82945 5.39552,9.92841 6.80587,11.33875 2.6765,2.67651 12.34269,7.48562 18.34067,9.12482 5.58566,1.52652 12.48195,1.55853 17.23256,0.08 7.45512,-2.32029 20.62013,-11.6309 32.102,-22.7033 8.64727,-8.33888 12.00514,-12.65262 12.51964,-16.0835 0.79734,-5.31708 -2.02584,-13.77903 -5.93775,-17.79723 -1.77307,-1.82123 -1.98119,-2.27516 -1.26398,-2.75678 1.33234,-0.89469 5.42094,-0.24635 8.75817,1.3888 6.25925,3.06685 13.77593,10.49157 16.67799,16.47394 1.55535,3.20623 1.95904,8.46948 1.07488,14.01426 -0.83978,5.26653 -2.35599,21.11924 -2.35821,24.65638 -0.002,2.52882 0.23627,2.96519 3.54319,6.5003 3.98898,4.26424 4.97437,4.92496 8.24516,5.52852 3.16024,0.58317 11.35667,0.0461 15.52835,-1.01751 z m 55.26391,-68.71957 c 3.76713,-0.94857 7.8125,-4.83723 10.29157,-9.89289 5.78212,-11.79172 6.68942,-28.12637 3.07218,-55.31064 -0.91937,-6.90932 -1.24232,-12.53327 -1.29618,-22.57256 -0.0692,-12.90163 -0.11548,-13.41432 -1.31891,-14.61775 -1.51162,-1.51162 -4.31825,-1.63516 -5.84099,-0.2571 -0.60171,0.54454 -2.33792,3.33234 -3.85824,6.19512 -1.52032,2.86277 -3.32521,5.57262 -4.01087,6.02188 -0.68565,0.44926 -2.93137,1.28399 -4.99047,1.85497 -7.15885,1.98509 -11.23445,5.55871 -13.14932,11.52974 -0.98832,3.08184 -5.60351,12.05087 -10.44577,20.30002 -5.52637,9.41458 -7.01819,13.90926 -6.60713,19.90652 0.39581,5.7748 1.42574,8.09406 5.55424,12.50744 1.86833,1.99725 5.29742,6.42777 7.62021,9.84559 8.89913,13.09446 15.44388,16.89081 24.97968,14.48966 z M 95.96369,234.94815 c 4.78241,-1.01328 9.87963,-3.27546 12.08248,-5.36226 6.88125,-6.51874 9.73604,-29.46234 5.81025,-46.69634 -1.29758,-5.69628 -4.16594,-14.20533 -6.30524,-18.70462 -2.28379,-4.80318 -4.37787,-7.07364 -10.445592,-11.32541 -2.494014,-1.7476 -5.40726,-4.18166 -6.473884,-5.40903 -2.345547,-2.69903 -3.842595,-3.62204 -5.918446,-3.64901 -2.084761,-0.0271 -2.992956,1.52458 -4.071943,6.957 -0.479494,2.41413 -2.33683,8.06308 -4.127413,12.55321 -3.018711,7.56983 -3.293444,8.65239 -3.775611,14.87734 -0.667902,8.62285 -0.66889,26.87872 -0.002,37.20447 0.38119,5.90227 0.861913,8.9828 1.794981,11.50249 1.510521,4.07906 4.637575,7.35865 7.820543,8.20202 3.251164,0.86145 9.145089,0.79657 13.611888,-0.14986 z m 50.74593,-40.47503 c 10.19433,-4.02348 19.12088,-10.87776 22.08232,-16.95599 2.96365,-6.08275 3.72974,-10.44705 3.70089,-21.0833 -0.0485,-17.86696 -3.82129,-36.55171 -9.77706,-48.42042 -1.37956,-2.7492 -3.44954,-7.2783 -4.59996,-10.064679 -4.17901,-10.121767 -5.16984,-11.277002 -8.28881,-9.664122 -2.99141,1.546918 -13.43143,16.758601 -18.60542,27.109121 -5.15448,10.31148 -6.4122,16.90079 -7.37352,38.63045 -0.70485,15.93231 -0.28882,26.57377 1.24493,31.84297 1.01236,3.47798 4.0797,7.46932 6.85766,8.92345 3.70566,1.93973 9.34733,1.81838 14.75897,-0.31748 z m 95.60685,-3.61128 c 6.12723,-2.95622 11.79041,-11.48557 12.79325,-19.26801 0.2796,-2.16979 0.51684,-11.00026 0.52718,-19.62326 l 0.0188,-15.6782 -5.13807,-10.26412 c -5.70562,-11.39789 -8.95889,-17.11109 -15.68225,-27.540213 -4.85199,-7.526295 -6.75271,-11.208573 -6.77302,-13.121462 -0.023,-2.170424 -1.78433,-7.195992 -2.91994,-8.331601 -1.64697,-1.646971 -6.30881,-1.548429 -8.30131,0.175474 -1.25169,1.082951 -1.63755,2.18525 -2.36558,6.757711 -0.69206,4.346608 -1.3385,6.286789 -3.16179,9.489552 -4.59051,8.063679 -6.95662,13.626449 -8.03933,18.900619 -2.18715,10.65426 -2.65045,31.4971 -1.01166,45.51331 1.05159,8.99408 2.25327,11.37054 10.0542,19.88338 13.63886,14.88352 20.29215,17.79035 29.9995,13.10682 z"
     id="path1858"
     transform="scale(0.74999998)" />
</svg>
