<svg xmlns="http://www.w3.org/2000/svg" width="317.333" height="317.333" version="1.0" viewBox="0 0 238 238"><path d="M61.1 60.4 3.6 117.9l12.2 12.8c6.6 7 32.5 33.2 57.4 58l45.3 45.3 58-58 58-58L177 60.5C145.4 28.9 119.3 3 119 3c-.3 0-26.3 25.8-57.9 57.4zm75.7-5.2c.7.7 1.2 2.1 1.2 3.2 0 1.2 1.4 4.1 3.1 6.6 1.6 2.5 4.6 7.6 6.6 11.5 3.1 6 3.7 8.2 4.1 15.3.7 13.2-2.9 20.2-10.6 20.2-2.8 0-4.5-1.1-9.5-5.9l-6.1-5.9-.4-12.3c-.3-10.8-.1-13.1 1.7-18.1 1.2-3.1 2.8-6.1 3.6-6.8.7-.6 1.1-1.8.8-2.6-.5-1.5 2.1-6.4 3.5-6.4.5 0 1.3.5 2 1.2zm-34.7 6.9c8.4 16 11.4 33.5 7.1 41.9-2.2 4.5-10.3 10-14.7 10-6.8 0-8.4-5-7.3-22.9.7-12.6 1.2-14.3 7.8-24.4 4.3-6.6 5.6-7.5 7.1-4.6zM71.9 89c6.4 5.4 6.9 6 9.1 13.1 1.8 5.5 2.2 8.4 1.8 14.2-.8 11.3-2.8 13.9-11.6 15.3-4.8.8-8-1.6-9.2-7.1-1.5-6.4-.3-23.7 2-28.7 1.1-2.4 2-5.2 2-6.4 0-1.9.8-3.4 1.8-3.4.2 0 2.1 1.4 4.1 3zm103.7 5.5c0 3.9.4 12.4.9 19.1.6 8.9.5 13-.5 16-1.9 5.8-4.6 8.4-9.1 8.4-3.2 0-4.3-.6-7.1-4.1-1.8-2.3-4.6-5.6-6.2-7.5-4.2-5-3.8-9.8 1.3-18.3 2.3-3.7 4.1-7.4 4.1-8.3 0-2 3.2-4.7 6.6-5.7 1.6-.4 3.4-1.6 3.9-2.7 2-3.8 2.7-4.5 4.3-4.2 1.4.3 1.7 1.7 1.8 7.3zM127 110.9c1.9 1 4.9 3.6 6.5 5.9 2.2 3.1 5.1 5.1 11.3 8.2 7.6 3.7 8.5 4.4 10.4 8.7 2.7 6.1 2.2 19.7-.9 25.8-5.3 10.1-17.2 14.7-22.9 9-2.5-2.6-2.6-2.8-1.9-12.8.7-10.2.7-10.3-2-13.5-3-3.6-8-6.6-9.5-5.7-.5.3 0 2.1 1.1 4 3.1 5.3 1.9 8.5-5.7 15.3-9.7 8.5-15 11.4-19.9 10.7-7.1-1.1-12-3.9-14.7-8.6-3.7-6.4-5.1-11.5-4.3-15.7.9-4.9 11.6-15.3 21.9-21.2 4.3-2.5 10.8-6.4 14.5-8.7 7.2-4.5 9.4-4.7 16.1-1.4z"/><path d="M89.043 174.746c-5.693-2.41-7.777-10.848-6.7-27.126.666-10.064 1.768-16.152 3.863-21.357.83-2.061 1.683-4.97 1.894-6.463.419-2.967 1.152-4.707 1.983-4.707.895 0 7.522 5.214 10.807 8.502 3.415 3.42 4.444 5.286 6.562 11.904 2.62 8.188 2.655 8.403 2.601 16.063-.101 14.37-2.306 19.545-9.486 22.262-3.139 1.188-9.663 1.71-11.524.922zM121.116 150.502c-3.981-2.307-5.407-8.91-4.897-22.692.632-17.09 1.417-21.794 4.767-28.584 3.767-7.636 11.205-18.235 12.797-18.235 1.063 0 2.164 1.722 4.731 7.4 5.894 13.038 8.806 24.113 9.138 34.753.345 11.061-1.198 15.623-7.15 21.133-2.15 1.99-4.734 3.763-7.522 5.159-3.67 1.837-4.645 2.125-7.16 2.115-2.122-.008-3.399-.292-4.704-1.049zM184.465 148.103c-2.168-1.035-10.377-8.126-15.104-13.048l-1.857-1.933-.037-16.948c-.037-16.404-.003-17.05 1.035-20.148 1.542-4.6 3.129-8.032 5.057-10.936 1.197-1.805 1.688-3.073 1.695-4.385.019-3.289 2.883-8.24 4.767-8.24 1.054 0 3.198 2.538 3.533 4.181.754 3.699 1.626 5.578 5.937 12.799 6.265 10.492 10.19 18.424 11.402 23.043 1.4 5.33 1.546 20.24.244 24.837-1.14 4.027-2.322 6.264-4.415 8.357-2.074 2.074-3.992 2.933-7.353 3.29-2.051.219-2.965.057-4.904-.869zM218.581 183.106c-2.506-1.105-13.71-14.206-15.985-18.69-2.73-5.383-1.56-10.157 5.529-22.563 2.554-4.47 3.817-7.226 4.255-9.28.498-2.34 4.298-5.352 8.9-7.057 2.836-1.051 4.09-2.247 6.708-6.398 1.814-2.876 3.551-3.396 4.83-1.445.657 1.004.866 3.184 1.194 12.462.218 6.184.643 14.882.945 19.329.301 4.446.454 11.16.339 14.919-.187 6.119-.347 7.17-1.525 10.029-1.912 4.64-3.692 6.861-6.574 8.203-2.772 1.29-6.34 1.494-8.616.49zM179.506 226.891c-3.187-1.094-6.428-4.38-6.923-7.021-.18-.954-.077-5.79.226-10.747.985-16.09.9-16.482-4.766-21.827-5.07-4.782-11.283-7.297-11.266-4.56.003.438.853 2.608 1.89 4.822 2.285 4.882 2.42 7.045.66 10.52-3.082 6.08-20.528 20.41-27.792 22.828-6.756 2.248-17.02-.694-22.897-6.564-2.238-2.235-3.453-4.031-5.312-7.855-4.34-8.922-5.008-14.573-2.358-19.919 1.902-3.837 11.794-13.932 18.387-18.765 4.84-3.547 31.796-19.936 35.444-21.548 3.407-1.507 7.097-1.334 11.503.538 4.364 1.855 7.228 4.112 11.331 8.934 4.102 4.82 6.365 6.46 15.328 11.11 8.795 4.562 11.442 6.708 13.255 10.747 2.223 4.953 2.773 8.788 2.516 17.552-.37 12.584-2.377 18.179-8.843 24.645-3.883 3.882-7.627 6.142-12.114 7.31-3.58.933-5.074.897-8.269-.2z" style="fill:#fff;stroke-width:.473632" transform="scale(.75)"/></svg>