<svg xmlns="http://www.w3.org/2000/svg" width="381" height="385" version="1.0" viewBox="0 0 286 289"><path d="M24 144v120h240V24H24v120zM172 33c21 6 38 15 53 30 13 13 21 26 26 42a114 114 0 1 1-122-74 224 224 0 0 1 43 2z"/><path d="m162 59-1 5-2 7c-6 8-7 14-8 28l1 20c1 7 1 8 8 15 8 9 13 12 19 10 4-1 7-4 10-10 2-3 2-5 2-17v-14l-4-10-10-18c-4-4-6-9-6-10l-1-5c-1-2-2-3-4-3l-4 2zm-57 18c-11 15-12 20-12 48 0 12 1 17 5 20s9 3 18-2c9-6 11-9 13-18a92 92 0 0 0-11-52c-4-10-5-10-13 4zm117 30-3 6c-2 3-3 4-6 4-5 1-8 4-10 9l-6 12c-6 10-7 14-7 19 1 4 2 6 4 7l7 9c4 8 9 11 14 11 6 0 10-3 13-11 3-9 3-20 0-39l-1-19v-8h-5zm-160 2-1 5-4 9c-2 6-3 7-3 25l2 23c2 3 3 4 6 5 5 2 13 0 18-3 6-4 9-25 4-40-3-11-5-14-11-18-3-1-5-4-6-5-1-2-5-3-5-1zm73 36-19 11c-19 11-25 15-33 24-8 8-9 10-9 18 0 5 1 7 5 15 4 9 5 10 11 13 9 4 17 5 24 2 7-4 15-11 23-19 6-6 7-7 7-10 0-5-2-10-4-12-3-2-2-3 1-3 6 0 16 10 18 17v8l-2 12v8l3 3c3 4 4 4 10 4 20 0 33-20 29-46-2-14-5-18-21-25-7-2-9-4-14-11-8-11-21-15-30-9z"/><path d="M180 344a152 152 0 0 1-16-301c8-2 9-2 22-2 27 0 36 1 54 7a154 154 0 0 1 100 111 152 152 0 0 1-160 185zm56-30c6-2 11-5 17-10 4-4 5-6 7-11 5-11 7-22 6-36-2-21-6-27-26-36-12-5-14-6-21-15-6-8-12-13-19-15-7-3-14-2-21 2l-55 34c-8 6-21 19-24 25l-1 10c-1 9 0 10 6 23l7 11c3 3 12 8 18 9 6 2 13 2 18 0 7-2 20-11 32-22 8-9 12-13 12-16 1-6-2-14-6-18-2-2-2-2-1-3s5 0 9 1c6 4 13 11 16 17 2 3 2 8 1 14l-2 25c0 2 0 3 4 6l8 6 15-1zm56-69c3-1 7-5 10-10 6-12 7-28 3-55l-1-23c0-13 0-13-2-14-1-2-4-2-5-1l-4 6-4 6-5 2c-7 2-12 6-13 12l-11 20c-5 10-7 14-7 20 1 6 2 8 6 13l8 9c9 14 15 17 25 15zM96 235c5-1 10-3 12-5 7-7 10-30 6-47l-6-19c-3-5-5-7-11-11l-6-6-6-3c-2 0-3 1-4 7l-4 12c-4 8-4 9-4 15a345 345 0 0 0 2 49c1 4 4 7 7 8h14zm51-41c10-4 19-10 22-16 3-7 4-11 3-22a117 117 0 0 0-14-58c-4-10-5-11-8-10-3 2-14 17-19 27-5 11-6 17-7 39-1 16 0 27 1 32 1 3 4 7 7 9 4 2 9 2 15-1zm95-3c6-3 12-12 13-19l1-20v-16l-5-10-16-28c-5-7-7-11-7-13l-3-8c-2-2-6-2-8 0-1 1-2 2-3 7 0 4-1 6-3 9-4 9-7 14-8 19-2 11-2 32-1 46 1 9 3 11 10 20 14 15 21 18 30 13z" style="fill:#fff;stroke-width:.575124" transform="scale(.75)"/></svg>