<svg xmlns="http://www.w3.org/2000/svg" width="317" height="317" version="1.0" viewBox="0 0 238 238"><path d="M61 60 4 118l12 13 57 58 46 45 58-58 58-58-58-57-58-58-58 57zm76-5 1 3 3 7 7 12c3 6 3 8 4 15 0 13-3 20-11 20-3 0-4-1-9-6l-6-6-1-12c0-11 0-13 2-18l3-7c1-1 2-2 1-3 0-1 2-6 4-6l2 1zm-35 7c9 16 12 34 7 42-2 5-10 10-14 10-7 0-9-5-8-23 1-13 1-14 8-24 4-7 6-8 7-5zM72 89c6 5 7 6 9 13 2 6 2 8 2 14-1 12-3 14-12 16-5 0-8-2-9-8a72 72 0 0 1 4-35c0-2 1-3 2-3l4 3zm104 6 1 19-1 16c-2 5-5 8-9 8-3 0-4-1-7-4l-6-8c-5-5-4-9 1-18l4-8c0-2 3-5 7-6l4-3c2-3 2-4 4-4 1 1 2 2 2 8zm-49 16 7 6c2 3 5 5 11 8 7 4 8 4 10 9 3 6 2 19-1 26-5 10-17 14-23 9-2-3-2-3-1-13 0-10 0-11-2-14-3-3-8-6-10-5l1 4c3 5 2 8-6 15-9 8-15 11-20 11-7-2-11-4-14-9-4-6-5-12-5-16 1-5 12-15 22-21l15-9c7-4 9-4 16-1z"/><path d="M89 175c-6-3-8-11-7-27 1-10 2-17 4-22l2-6 2-5c1 0 8 5 11 9 3 3 4 5 6 11 3 9 3 9 3 17 0 14-2 19-9 22-4 1-10 2-12 1zm32-24c-4-3-5-9-5-23 1-17 2-22 5-29 4-7 11-18 13-18l5 7c5 13 8 25 9 35 0 11-2 16-7 21l-8 5-7 3-5-1zm63-3-15-13-1-2-1-17c0-16 0-17 2-20 1-5 3-8 5-11l1-4c0-4 3-9 5-9l4 5c0 3 1 5 5 12 7 11 11 19 12 23v25c-1 4-2 7-4 9s-4 3-8 3l-5-1zm35 35c-3-1-14-14-16-19-3-5-2-10 5-22l4-9c1-3 5-6 9-7l7-7c2-3 4-3 5-1l1 12a737 737 0 0 0 1 34l-1 10c-2 5-4 7-7 9h-8zm-39 44c-4-1-7-4-7-7v-11c1-16 1-16-5-22-5-4-11-7-11-4l2 5c2 4 2 7 0 10-3 6-20 20-27 23-7 2-17-1-23-7-3-2-4-4-6-8-4-8-5-14-2-19 2-4 12-14 18-19l36-22c3-1 7-1 11 1 5 2 8 4 12 9s6 6 15 11c9 4 11 7 13 11 2 5 3 8 3 17-1 13-3 18-9 25-4 4-8 6-12 7h-8z" style="fill:#fff;stroke-width:.473632" transform="scale(.75)"/></svg>