<svg xmlns="http://www.w3.org/2000/svg" width="381.333" height="385.333" version="1.0" viewBox="0 0 286 289"><path d="M24 144v120h240V24H24v120zM172 33.3c20.9 5.5 37.7 15.1 52.6 30.1 13 13.1 21.1 25.5 26.8 41.6 22.1 61.5-11 128.9-72.9 148.3-12.8 4-20 5.1-34.5 5.1s-21.7-1.1-34.5-5.1c-56.4-17.7-90.4-77.1-77.1-134.7 5-21.4 14.9-39.1 31-55.2 17.8-17.9 37.3-27.6 65.6-32.8 1.4-.2 9.5-.3 18-.1 12.6.2 17.2.7 25 2.8z"/><path d="M162 58.9c-.5 1.1-1 3.4-1 5.1 0 1.7-1.1 4.8-2.5 6.9-5.3 7.9-6.8 13.7-7.3 27.6-.2 7.3.1 16.3.7 20.4 1.1 7 1.4 7.6 7.9 14.7 8.4 9.3 13.6 12.2 19.3 10.5 4.4-1.3 7.1-3.9 10.2-9.6 2-3.6 2.2-5.5 2.2-18v-14l-4.6-9.5c-2.5-5.2-7.1-13.2-10.2-17.8-3.2-4.5-5.7-9.1-5.7-10.1s-.5-3.2-1.1-5c-.9-2.5-1.6-3.1-4-3.1-1.8 0-3.2.7-3.9 1.9zM104.6 76.5c-10.1 15.4-11.4 20.7-11.8 48-.1 12.4 1.1 17.5 4.9 20.5 4.3 3.4 9.7 2.7 18.6-2.5 8.6-5.1 10.8-8.1 12.6-17.8 1.9-10.4-2.1-35.3-6.9-43.2-1-1.7-2.8-5.6-4-8.8-3.7-9.7-4.7-9.4-13.4 3.8zM222.2 107.2c-.5.7-1.9 3.1-3 5.4-1.7 3.4-2.7 4.2-5.7 4.7-5.3.9-9 4-10.4 8.9-.7 2.4-3.3 7.5-5.7 11.5-6.5 10.4-7.7 13.9-7 19.6.4 3.6 1.2 5.4 3.2 6.9 1.4 1.2 4.6 5.2 7 9 4.9 7.6 9.1 10.8 14.5 10.8 6.1 0 10-3.5 12.7-11.5 3-8.7 3.2-19.3.7-38.5-1.1-8.4-1.5-15.6-1-19.3.4-3.9.2-6.3-.6-7.3-1.4-1.7-3.3-1.8-4.7-.2zM61.6 109.2c-.3.7-.7 2.8-1 4.7-.3 1.8-1.8 6.1-3.3 9.5-2.7 5.9-2.8 6.6-2.8 24.6 0 16.1.3 19.1 1.9 22.8 1.5 3.4 2.7 4.4 5.8 5.4 4.5 1.3 12.4-.1 17.4-3.1 6.9-4.2 9.2-25 4.5-40.1-3.5-11.3-5.4-14.4-11-17.8-2.7-1.7-5.5-4-6.1-5.2-1.2-2.2-4.8-2.7-5.4-.8zM134.5 144.8c-2.2 1.4-10.5 6.4-18.5 11-18.8 10.9-25.1 15.4-33.3 24.2-7.9 8.3-8.7 10-8.7 18 0 5.1.7 7.3 4.8 15.2 4.6 9.1 4.8 9.4 11.3 12.6 9.4 4.7 16.8 5.3 23.5 1.9 7.1-3.6 15.9-10.5 23.7-18.5 5.8-6 6.7-7.5 6.7-10.6 0-4.3-2-9.5-4.3-11.5-2.4-2-2.1-3.1 1-3.1 6.1 0 16.7 9.5 18.3 16.5.4 1.8.3 5.4-.2 8.1-.5 2.7-1.1 8.3-1.4 12.5l-.6 7.5 3.5 3.7c3.2 3.5 3.8 3.7 9.6 3.7 20.2 0 32.7-19.8 29.2-46.3-1.8-14-4.7-17.3-21.2-24.2-7.1-2.9-9.3-4.7-13.9-11.1-7.8-11.2-20.7-15.4-29.5-9.6z"/><path d="M180.027 343.916c-12.014-.685-19.622-2.114-32.495-6.104-37.194-11.527-67.86-36.216-87.638-70.56-22.142-38.448-26.212-85.72-10.962-127.3 4.987-13.598 14.22-29.86 23.623-41.606 5.102-6.374 19.306-20.588 25.517-25.533 18.524-14.752 38.52-23.87 65.851-30.028 8.504-1.916 8.825-1.944 22.43-1.939 26.424.01 35.658 1.255 53.774 7.247 16.43 5.435 33.049 14.466 46.585 25.317 11.206 8.981 25.245 24.481 33.527 37.014 8.476 12.826 16.471 32.2 20.175 48.885 7.562 34.073 3.144 69.476-12.623 101.153-7.369 14.806-15.435 26.123-27.25 38.234-8.409 8.619-15.98 14.89-25.619 21.22-18.276 12.003-43.662 21.337-63.615 23.391-8.225.847-22.312 1.121-31.28.61zm56.362-30.267c5.97-1.521 11.046-4.573 16.203-9.738 3.985-3.99 5.141-5.616 7.593-10.672 5.23-10.785 7.18-22.609 5.957-36.11-1.952-21.542-5.853-26.833-26.302-35.68-11.853-5.127-13.954-6.71-20.862-15.723-6.049-7.891-11.666-12.323-18.676-14.735-7.764-2.67-14.373-2.07-21.258 1.935-30.75 17.883-48.12 28.595-55.201 34.045-8.264 6.359-20.639 19.407-23.37 24.64-1.352 2.593-1.525 3.642-1.72 10.473-.265 9.236-.008 10.156 6.368 22.818 2.935 5.83 5.395 9.928 6.805 11.339 2.677 2.676 12.343 7.485 18.341 9.125 5.586 1.526 12.482 1.558 17.233.08 7.455-2.32 20.62-11.631 32.102-22.704 8.647-8.339 12.005-12.652 12.52-16.083.797-5.317-2.027-13.78-5.938-17.797-1.774-1.822-1.982-2.276-1.264-2.757 1.332-.895 5.42-.247 8.758 1.389 6.259 3.066 13.776 10.491 16.678 16.474 1.555 3.206 1.959 8.469 1.075 14.014-.84 5.266-2.356 21.119-2.359 24.656-.002 2.529.237 2.965 3.544 6.5 3.989 4.265 4.974 4.925 8.245 5.529 3.16.583 11.356.046 15.528-1.018zm55.264-68.72c3.767-.948 7.812-4.836 10.292-9.892 5.782-11.792 6.689-28.126 3.072-55.31-.92-6.91-1.243-12.534-1.296-22.573-.07-12.902-.116-13.415-1.32-14.618-1.511-1.512-4.318-1.635-5.84-.257-.602.544-2.338 3.332-3.859 6.195-1.52 2.863-3.325 5.573-4.01 6.022-.686.45-2.932 1.284-4.991 1.855-7.159 1.985-11.234 5.559-13.15 11.53-.988 3.082-5.603 12.05-10.445 20.3-5.526 9.414-7.018 13.909-6.607 19.906.396 5.775 1.426 8.094 5.554 12.508 1.868 1.997 5.297 6.427 7.62 9.845 8.9 13.095 15.444 16.891 24.98 14.49zm-195.69-9.98c4.783-1.014 9.88-3.276 12.083-5.363 6.881-6.519 9.736-29.462 5.81-46.696-1.297-5.697-4.166-14.206-6.305-18.705-2.284-4.803-4.378-7.074-10.445-11.325-2.494-1.748-5.408-4.182-6.474-5.41-2.346-2.699-3.843-3.622-5.919-3.649-2.085-.027-2.993 1.525-4.072 6.957-.48 2.415-2.337 8.064-4.127 12.554-3.019 7.57-3.294 8.652-3.776 14.877-.668 8.623-.669 26.879-.002 37.205.381 5.902.862 8.982 1.795 11.502 1.51 4.08 4.638 7.359 7.82 8.202 3.252.861 9.146.797 13.613-.15zm50.747-40.476c10.194-4.023 19.12-10.878 22.082-16.956 2.964-6.083 3.73-10.447 3.7-21.083-.048-17.867-3.82-36.552-9.776-48.42-1.38-2.75-3.45-7.279-4.6-10.065-4.18-10.122-5.17-11.277-8.289-9.664-2.991 1.547-13.431 16.758-18.605 27.109-5.155 10.311-6.413 16.9-7.374 38.63-.705 15.932-.289 26.574 1.245 31.843 1.012 3.478 4.08 7.47 6.858 8.924 3.705 1.94 9.347 1.818 14.759-.318zm95.606-3.611c6.128-2.956 11.79-11.486 12.794-19.268.28-2.17.517-11 .527-19.623l.019-15.679-5.138-10.264c-5.706-11.398-8.96-17.11-15.683-27.54-4.852-7.526-6.752-11.209-6.773-13.121-.023-2.17-1.784-7.196-2.92-8.332-1.647-1.647-6.308-1.548-8.3.175-1.253 1.083-1.638 2.186-2.366 6.758-.693 4.347-1.339 6.287-3.162 9.49-4.59 8.063-6.957 13.626-8.04 18.9-2.187 10.655-2.65 31.497-1.011 45.514 1.051 8.994 2.253 11.37 10.054 19.883 13.639 14.884 20.292 17.79 30 13.107z" style="fill:#fff;stroke-width:.575124" transform="scale(.75)"/></svg>