<svg xmlns="http://www.w3.org/2000/svg" width="384" height="385" version="1.0" viewBox="0 0 288 289"><path d="M24 144v120h240V24H24v120zm151-70c10 4 20 10 24 15a53 53 0 0 1-5 74 54 54 0 0 1-60 8c-7-3-19-14-23-22-11-21-7-46 10-63 10-11 23-16 38-16 7 1 10 1 16 4zm-68 9c-6 9-11 19-13 29-1 10-1 14 1 23 3 20 16 38 34 47 17 8 43 8 60-1 23-12 37-37 35-62l-1-8 5 6c6 7 20 27 20 29l-6 9c-33 49-71 72-108 64-29-6-60-30-85-66l-6-8 6-9a184 184 0 0 1 63-59l-5 6z"/><path d="M164 91c6 8 7 19 4 28-2 4-10 12-14 14-6 3-18 4-25 1-6-2-6-2-2 7 4 7 10 13 17 17 5 2 6 2 17 2 10 1 11 0 17-3 7-4 13-10 17-18 2-5 3-7 3-15l-3-16c-6-11-17-19-29-21h-5l3 4z"/><path d="M203 235c-9-1-21-5-27-8-8-5-20-17-25-25-6-8-10-19-11-31-2-20 6-41 20-56a66 66 0 0 1 62-20c12 3 35 15 43 23 15 15 22 45 15 67-4 11-10 20-19 29a69 69 0 0 1-58 21zm20-21c5 0 7-1 11-3 13-6 22-16 27-28 2-5 3-13 2-24 0-6 0-7-2-11a53 53 0 0 0-35-31l-12-1 4 5c4 6 6 10 7 16 2 8 0 17-3 23-3 5-13 15-17 17s-11 4-18 4-10-1-15-3c-5-1-6-1-6 1l8 16c5 7 12 13 21 17 3 1 4 2 10 2h18z" style="fill:#fff;stroke-width:.575124" transform="scale(.75)"/><path d="m191 293-17-3c-21-5-42-18-63-36a353 353 0 0 1-49-56l-4-5 6-8a275 275 0 0 1 83-81l-3 5a87 87 0 0 0 10 121 90 90 0 0 0 102 9c21-12 36-34 41-57a117 117 0 0 0 0-33 314 314 0 0 1 33 45l-6 10c-34 52-71 81-110 88l-23 1z" style="fill:#fff;stroke-width:.575124" transform="scale(.75)"/></svg>