<svg xmlns="http://www.w3.org/2000/svg" width="317.333" height="317.333" version="1.0" viewBox="0 0 238 238"><path d="M61.2 60.3C29.8 91.7 4 118 4 118.5 4 119.8 118.2 234 119.5 234c.6 0 26.9-25.9 58.5-57.5l57.5-57.5-58-58C145.6 29.1 119.3 3 119 3c-.3 0-26.3 25.8-57.8 57.3zm34 19.3c-4.5 4.1-7.1 7.5-9.9 13.2-3.7 7.5-3.8 7.8-3.8 19.1 0 11 .2 12 3.2 18.4 4.2 8.8 11.7 16.3 20.8 20.8 6.7 3.3 7.4 3.4 18.5 3.4s11.8-.1 18.5-3.4c9-4.4 16.2-11.6 20.6-20.6 3.3-6.7 3.4-7.4 3.4-18.6v-11.7l-4.1-8.1c-4.1-7.9-4.1-8-1.5-6.6 8.7 4.5 33.8 29 35.7 34.8.8 2.4-5.4 10.3-16.4 20.9-24 23.1-48.5 32.6-73.1 28.4-21.5-3.7-42-16.8-61.8-39.4-4-4.7-7.3-9-7.3-9.7 0-.7 4.6-6.1 10.1-11.9 15.4-16.1 30.7-26.9 45.7-32.2 3.7-1.3 6.9-2.4 7.1-2.4.3 0-2.3 2.5-5.7 5.6zm43.1-.8c7 3.2 14.9 11.1 18.3 18.5 2.5 5.3 2.9 7.5 2.9 14.7 0 7.6-.4 9.3-3.2 15.1-3.9 7.9-10.2 14-18.1 17.7-4.8 2.2-7.1 2.7-14.2 2.7s-9.4-.5-14.2-2.7c-7.9-3.7-14.2-9.8-18.1-17.7-3-6.2-3.2-7.2-3.3-18.1-.2-13.2.8-18.2 4.3-22.8 2.9-3.9 9.1-7.2 13.5-7.2 1.8 0 5.1-.7 7.3-1.5 5.6-2.1 18.5-1.4 24.8 1.3z"/><path d="M127.8 97.3c.3 5.5 0 6.7-2.6 10.8-3.5 5.4-9.7 8.9-16 8.9-4.9 0-5.1.7-1.7 6.6 7 11.9 24.1 13.4 33.3 2.8 10.9-12.3 5-31.1-10.8-34.7-2.6-.6-2.6-.6-2.2 5.6z"/><path d="M152.746 227.03c-23.126-1.873-44.352-10.955-65.984-28.233-10.392-8.3-27.545-26.121-34.178-35.509-1.987-2.812-2.017-2.74 4.076-9.815 17.68-20.535 38.995-37.75 58.05-46.886 5.479-2.626 17.815-7.374 18.19-7 .093.094-2.59 2.88-5.963 6.194-7.187 7.059-9.557 10.224-13.491 18.015-4.798 9.5-4.747 9.232-4.747 25.398 0 16.091.18 17.093 4.619 25.754 6.783 13.234 18.483 23.574 33.502 29.606l3.084 1.239h15.157c17.315 0 16.632.117 25.501-4.386 12.51-6.352 21.82-16.026 28.023-29.123 3.265-6.892 3.53-8.78 3.54-25.14l.008-14.126-4.855-9.392c-2.67-5.165-4.706-9.542-4.524-9.727 1.392-1.415 17.279 11.467 30.96 25.104 11.215 11.177 18.204 19.715 18.204 22.237 0 3.003-7.43 12.324-18.78 23.56-15.797 15.638-26.83 23.872-42.335 31.597-15.9 7.922-33.49 11.814-48.057 10.634z" style="fill:#fff;stroke-width:.473632" transform="scale(.75)"/><path d="M157.483 196.12c-8.422-1.115-17.092-5.643-24.591-12.842-4.699-4.512-8.085-9.238-10.95-15.287-3.426-7.233-3.692-8.994-3.694-24.48 0-14.928.445-18.525 2.966-23.919 3.599-7.699 11.483-13.074 20.553-14.013 2.383-.246 6.516-1.074 9.185-1.839 8.216-2.355 19.161-2.354 28.386.003 13.933 3.561 29.535 20.532 32.422 35.268.755 3.855.574 18.476-.27 21.787-.922 3.62-5.282 12.478-7.808 15.866-6.552 8.788-16.977 16.189-26.307 18.677-3.29.877-15.53 1.357-19.892.779zm16.291-18.763c12.271-2.892 21.422-14.729 21.424-27.712 0-5.416-.576-8.048-2.793-12.765-3.22-6.849-10.918-13.004-18.433-14.738-4.045-.934-3.979-1.065-3.86 7.603l.103 7.568-1.787 3.522c-4.54 8.944-12.505 14.247-22.313 14.854-2.344.145-4.66.47-5.147.72-1.414.73-.712 3.683 1.911 8.035 3.956 6.563 9.795 11.061 16.735 12.892 3.428.904 10.37.915 14.16.021z" style="fill:#fff;stroke-width:.473632" transform="scale(.75)"/></svg>