<svg xmlns="http://www.w3.org/2000/svg" width="384" height="385.333" version="1.0" viewBox="0 0 288 289"><path d="M24 144v120h240V24H24v120zm150.8-70.2c9.9 4.2 20.4 10.5 24.6 14.8 7.8 8.1 12.9 22.1 12.8 35.4-.1 15.3-5.9 28-17.8 39-16.3 15-39.8 18.2-60.3 8.3-7.3-3.5-19.1-14.8-22.9-22-11.4-21.6-7.7-46.8 9.3-63.8 10.8-10.8 23-15.7 38-15.2 7.4.3 10.3.9 16.3 3.5zm-67.5 9.4c-6.3 8.3-11.2 19-12.9 28.6-1.7 9.7-1.7 13.7.1 23.5 3.4 19.3 16.9 37.3 34.8 46.4 17.1 8.6 42.7 8.3 59.6-.7 22.7-12.1 36.6-37.3 34.6-62.5l-.7-8 5.4 6.6c5.3 6.5 19.8 27.2 19.8 28.4 0 .3-2.7 4.6-6 9.5-33.1 49.3-70.8 71.5-108 63.6-28.9-6.1-59.6-29.8-85.3-65.9l-5.6-7.8 6.1-8.7c17.6-25.3 36-43.7 54.8-54.8 4.1-2.4 7.6-4.4 7.8-4.4.1 0-1.9 2.8-4.5 6.2z"/><path d="M163.9 91c6 8.3 7.4 18.6 3.6 27.7-1.9 4.5-9.2 12.1-14 14.5-6 3.1-17.5 3.6-24.2 1-6.3-2.4-6.5-1.9-2.3 6.5 3.5 7 9.5 13 17.2 17 4.9 2.6 6.2 2.8 16.3 2.8 10.6 0 11.2-.1 17.3-3.4 7.6-4.1 13.5-10.3 17-17.9 2.3-4.9 2.7-7 2.7-15.2-.1-8.4-.4-10.2-3-15.5-5.5-11.4-16.8-19.8-28.5-21.2l-5.2-.6 3.1 4.3z"/><path d="M202.64 235.189c-8.766-1.192-20.413-4.992-26.475-8.638-7.967-4.792-20.227-16.53-25.524-24.437-5.29-7.896-9.19-19.515-10.436-31.083-2.158-20.038 5.402-41.09 20.107-55.997 10.861-11.01 22.142-17.336 35.5-19.907 6.73-1.295 20.067-1.284 26.242.023 11.734 2.483 35.042 14.93 43.162 23.05 15.193 15.194 21.469 44.566 14.375 67.278-3.306 10.584-9.131 19.88-18.116 28.907-13.478 13.543-29.27 20.465-48.195 21.122-3.638.126-8.426-.017-10.64-.318zm20.755-21.167c4.99-.374 6.43-.733 10.292-2.567 12.892-6.122 22.79-16.329 27.399-28.253 2.101-5.436 2.774-12.885 2.183-24.18-.314-6-.603-7.481-2.217-11.342-5.02-12.01-14.03-21.6-25.542-27.186-2.895-1.405-6.957-2.945-9.027-3.422-4.415-1.017-12.053-1.808-12.053-1.249 0 .214 1.43 2.43 3.177 4.924 4.092 5.838 6.287 10.734 7.501 16.728 1.585 7.82.279 16.728-3.37 22.985-2.44 4.184-12.545 14.254-16.324 16.267-4.89 2.606-11.065 3.907-18.602 3.917-6.947.009-9.573-.394-15.175-2.331-4.843-1.675-6.093-1.58-6.093.458 0 2.23 4.998 12.241 8.279 16.585 4.99 6.608 12.471 12.49 20.922 16.45 3.34 1.566 4.733 1.863 10.195 2.171 9.232.522 12.002.529 18.455.045z" style="fill:#fff;stroke-width:.575124" transform="scale(.75)"/><path d="M190.562 292.982c-8.56-1.196-11.191-1.687-16.916-3.16-20.157-5.187-42.144-17.611-62.79-35.48-7.822-6.769-22.966-22.272-29.911-30.619-5.455-6.556-12.47-15.747-19.426-25.455l-3.61-5.038 5.92-8.477c21.68-31.043 42.08-52.99 63.47-68.28 5.179-3.703 19.187-12.375 19.989-12.375.234 0-1.345 2.393-3.508 5.32-18.81 25.443-24.08 51.954-15.91 80.04 4.163 14.307 14.45 30.228 26.252 40.627 17.032 15.01 36 21.39 60.883 20.48 16.407-.601 29.494-4.198 41.121-11.302 20.463-12.502 35.565-33.872 40.571-57.41 1.423-6.687 2.045-20.518 1.26-28.007-.297-2.847-.504-5.23-.458-5.295.241-.347 10.974 13.569 17.613 22.836 9.518 13.286 14.918 21.464 14.918 22.592 0 .478-2.811 5.102-6.248 10.274-34.042 51.25-70.945 80.737-109.674 87.631-4.978.886-20.035 1.588-23.546 1.098z" style="fill:#fff;stroke-width:.575124" transform="scale(.75)"/></svg>