<svg xmlns="http://www.w3.org/2000/svg" width="317" height="317" version="1.0" viewBox="0 0 238 238"><path d="M61 60 4 119c0 1 114 115 116 115l58-57 58-58-58-58-59-58-58 57zm34 20c-4 4-7 7-10 13-3 7-4 8-4 19 1 11 1 12 4 18 4 9 11 17 21 21 6 3 7 4 18 4s12-1 19-4c9-4 16-11 20-20 3-7 3-8 3-19v-12l-4-8c-4-8-4-8-1-6 9 4 34 29 36 34 0 3-6 11-17 21-24 23-48 33-73 29-21-4-42-17-62-40l-7-9 10-12a122 122 0 0 1 53-35l-6 6zm43-1c7 3 15 11 19 18 2 6 3 8 3 15 0 8-1 9-4 15-4 8-10 14-18 18-5 2-7 2-14 2s-9 0-14-2c-8-4-14-10-18-18-3-6-3-7-4-18 0-13 1-18 5-23 3-4 9-7 13-7l8-2c5-2 18-1 24 2z"/><path d="M128 97c0 6 0 7-3 11-3 5-9 9-16 9-5 0-5 1-1 7 7 11 24 13 33 2 11-12 5-31-11-34-3-1-3-1-2 5z"/><path d="M153 227c-23-2-45-11-66-28-11-9-28-26-34-36-2-3-2-2 4-10 17-20 39-37 58-46l18-7-6 6c-7 7-10 10-14 18-4 9-4 9-4 25s0 17 4 26c7 13 19 24 34 30l3 1h15c17 0 17 0 26-5 12-6 21-16 28-29 3-7 3-8 3-25v-14l-5-9-4-10c1-2 17 11 31 25 11 11 18 20 18 22a156 156 0 0 1-61 55c-16 8-34 12-48 11z" style="fill:#fff;stroke-width:.473632" transform="scale(.75)"/><path d="M157 196c-8-1-17-6-24-13-5-4-8-9-11-15-3-7-4-9-4-24s1-19 3-24c4-8 12-13 21-14l9-2c8-3 19-3 28 0 14 3 30 20 33 35 1 4 0 18-1 22 0 3-5 12-7 16-7 8-17 16-27 18-3 1-15 2-20 1zm17-19c12-3 21-14 21-27 0-6 0-8-3-13-3-7-11-13-18-15-4-1-4-1-4 8v7l-2 4c-4 9-12 14-22 15h-5c-1 1-1 4 2 8 4 7 10 12 17 13h14z" style="fill:#fff;stroke-width:.473632" transform="scale(.75)"/></svg>