<svg xmlns="http://www.w3.org/2000/svg" width="317" height="317" version="1.0" viewBox="0 0 238 238"><path d="M62 61 4 119l57 58 58 58 58-59 59-58-58-57-58-58-58 58zm165 57-54 55-54 55-54-55-54-54 54-55 55-54 53 54 54 54z"/><path d="m71 71-48 48 47 47 49 48 49-48 48-48-48-47-48-48-49 48zm38 3L94 97l-4 6-11-12-11-11 6-6c11-11 27-18 41-18h6l-12 18zm24-16c10 3 19 7 26 14l5 5-15 12-15 12-11-43c0-2 1-2 10 0zm-12 39 4 14-8 6-7 6-6-6-6-6 9-15 11-14 3 14zm53-6c6 13 8 29 5 42-2 11-9 22-16 29-12 13-11 15-19-19-6-23-7-29-6-30l33-27 3 5zM73 102l11 11-11 17-11 17-2-3c-4-11-6-25-4-36 1-7 5-17 6-17l11 11zm24 23 4 5c0 1-28 23-31 24l10-16 12-17 5 4zm34 10 2 12-8-8-7-8 4-4 5-4 4 12zm-3 22 17 19-19 5c-15 2-31-2-45-11l-4-4 32-27 19 18z"/><path d="m87 230-72-72 72-72 72-72 72 71 71 72-16 17-127 129-72-73zm89 38 65-64 47-47-36-36-92-90-1-1-8 8L31 158l127 128 18-18z" style="fill:#fff;stroke-width:.473632" transform="scale(.75)"/><path d="M80 190a84 84 0 0 1 3-68l28 28-29 45-2-5zm29-64-15-16-3-3 5-6 8-7c10-8 25-15 38-18l19-1a901 901 0 0 1-40 60l-1 2zm69 7-14-56c0-2 2-2 12 0 16 4 26 10 38 20l4 5-12 10-27 23-1-2zm-39 23-8-7 1-2 20-31 5-6v2a904 904 0 0 1 8 36l-8 7-10 8c0 1-2 0-8-7zm-44 48a323 323 0 0 1 28-42l11 11-12 11a1158 1158 0 0 1-27 20zm72-19-9-10 10-10 2-1 1 5c3 8 7 25 6 26l-10-10zm36 42c-2-2-3-6-11-37-8-34-9-37-7-39l38-32 5-4 1 1a86 86 0 0 1 10 58c-2 13-9 27-18 38-5 5-14 15-16 15h-2zm-54 15-17-4c-9-3-22-10-27-15l-2-1 3-3 32-28 7-5 1 1 45 45 2 2-3 1c-5 3-18 6-27 7h-14z" style="fill:#fff;stroke-width:.473632" transform="scale(.75)"/></svg>