<svg xmlns="http://www.w3.org/2000/svg" width="384" height="385" version="1.0" viewBox="0 0 288 289"><path d="M24 144v120h240V24H24v120zm221 0v101H43V145l1-101 100-1h101v101z"/><path d="M54 144v90h180V54H54v90zm93-86-42 64-15-15-15-16 2-3c10-13 31-26 48-29 10-2 23-2 22-1zm20 2c7 1 20 8 26 12l15 13-41 36-9-32-8-32h5l11 3zm-18 53c5 18 5 20 3 21l-10 9-9 7-8-8-9-8 14-21 14-21 5 21zm74-6a86 86 0 0 1-15 97l-17 14-20-80 47-40 5 9zM95 138l-16 24-14 20a89 89 0 0 1-1-73l2-4 16 15 15 15-2 3zm20 16 6 7-21 16c-25 19-25 19-23 15a2832 2832 0 0 1 31-45l7 7zm43-2 8 32-11-10-11-12 13-12 1 2zm-1 45c28 29 27 26 14 30a87 87 0 0 1-84-17c1-1 43-38 45-38l25 25z"/><path d="M58 197a13841 13841 0 0 1 2-139 13283 13283 0 0 1 266 1v268H57Zm254-5V72H72v240h240Z" style="fill:#fff;stroke-width:.575124" transform="scale(.75)"/><path d="m85 239-8-31v-31l5-21c1-6 6-16 6-16l21 20 20 20-8 12a1140 1140 0 0 1-34 50l-2-3zm47-84-31-34c-1-1 11-14 19-20 12-9 31-19 45-22 10-2 28-3 30-2 1 1 1 1-31 50l-24 35-8-7zm34 34-11-11 14-21 22-32 11 41c3 12 4 10-11 23l-14 11-11-11zm-63 69a2230 2230 0 0 1 41-61l16 17a703 703 0 0 1-57 44zm118-100a15974 15974 0 0 1-19-82l8 1a126 126 0 0 1 47 18l20 18-4 4c-14 14-50 43-51 43l-1-2zm31 125-23-98 19-18 37-32c7-5 6-5 11 6 9 19 12 31 12 51a116 116 0 0 1-49 95c-5 4-5 4-7-4zm-42-49c-14-14-18-18-17-19l14-13 3-1c1 2 11 42 10 43l-10-10zm-26 74a110 110 0 0 1-67-28l58-50a963 963 0 0 1 65 67c0 2-3 3-10 5-17 6-29 7-46 6z" style="fill:#fff;stroke-width:.575124" transform="scale(.75)"/></svg>