<svg xmlns="http://www.w3.org/2000/svg" width="384" height="385.333" version="1.0" viewBox="0 0 288 289"><path d="M24 144v120h240V24H24v120zm220.8.2L245 245H43V144.7c0-55.2.3-100.7.7-101 .3-.4 45.7-.6 100.7-.5l100.1.3.3 100.7z"/><path d="M54 144v90h180V54H54v90zm93.4-85.8c-5.3 8.6-41.7 63.4-42.2 63.6-.4.1-7.5-6.8-15.6-15.3L74.8 91l2.6-3.5c9.6-12.6 30.4-25.1 48.1-28.8 9-2 22.9-2.2 21.9-.5zm19.1 1.4c7.1 1.8 20.6 8 26.7 12.2 5.5 3.8 14.8 12.1 14.8 13.3 0 1-40.9 36.3-41.5 35.8-.2-.3-4-14.8-8.3-32.3l-8-31.8 5.1.6c2.9.4 7.9 1.4 11.2 2.2zm-17.6 53c4.6 18.9 4.8 20 3.1 21.4-1 .8-5.7 4.8-10.5 8.9l-8.6 7.4-8.4-8.4-8.4-8.4 13.6-20.8c7.5-11.4 13.8-20.6 13.9-20.4.2.2 2.6 9.3 5.3 20.3zm73.9-5.9c5.2 11.2 7.1 17.8 8.1 28.9 2.3 25.7-6 49.9-23.1 68-6.6 6.9-16.5 15.1-17.2 14.3-.7-.9-19.8-78.9-19.5-79.7.5-1.2 46-40.2 46.9-40.2.4 0 2.5 3.9 4.8 8.7zM95.1 137.9c-.9 1.4-8 12.2-15.6 23.9-9.3 14.3-14.1 20.8-14.7 20-2.3-3.6-7-21.1-7.7-29-1.4-15.2 1.5-33.2 7.1-44.2l2-3.9L81.5 120l15.4 15.4-1.8 2.5zm19.6 16 6.2 6.8-21.1 16.4c-24.8 19.2-25 19.3-22.3 15.3 1-1.6 8.1-12.5 15.8-24.2 7.7-11.6 14.2-21.2 14.6-21.2.3 0 3.4 3.1 6.8 6.9zm43.7-2.2c.8 2.8 7.6 31.5 7.6 32.1 0 .4-4.9-4.3-11-10.3-6-6-11-11.4-10.9-12 0-1 11.9-11.4 13.1-11.5.4 0 .9.8 1.2 1.7zm-.9 45.5c28 28.4 26.8 25.8 13.7 30.1-20.7 6.9-43.7 5.5-63.7-3.7-8.1-3.7-20.8-12.2-20.3-13.6.5-1.3 43.3-37.9 44.4-37.9.6-.1 12.3 11.2 25.9 25.1z"/><path d="M57.623 196.549c.212-71.567.545-131.843.74-133.947.343-3.683.42-3.838 2.08-4.17.947-.19 60.965-.344 133.372-.344 104.812 0 131.698.146 131.883.718.129.396.327 60.827.441 134.292l.208 133.573H57.237Zm254.578-4.457V71.89H71.799v240.402h240.402Z" style="fill:#fff;stroke-width:.575124" transform="scale(.75)"/><path d="M85.152 238.82c-2.402-5.625-6.468-20.995-8.252-31.2-.96-5.482-.964-23.312-.009-30.194 1.117-8.044 2.8-15.801 4.679-21.548 1.775-5.432 6.232-15.548 6.85-15.548.193 0 9.346 8.997 20.339 19.994l19.987 19.994-7.724 11.782c-21.6 32.948-25.792 39.23-29.444 44.126-2.18 2.923-4.255 5.317-4.611 5.32-.357.003-1.173-1.223-1.815-2.726zM132.34 154.565c-8.415-8.305-31.41-32.428-31.694-33.25-.565-1.635 11.294-14.086 19.165-20.12 12.616-9.674 31.501-18.863 45.446-22.113 9.482-2.21 27.915-3.469 30.142-2.06.973.616.536 1.304-31.75 49.937-12.651 19.058-23.265 34.65-23.586 34.65-.322 0-3.797-3.17-7.723-7.044zM165.976 188.785 155.205 178l13.953-21.28c17.128-26.122 21.706-32.717 22.287-32.105.48.503 8.072 30.433 10.57 41.664 2.539 11.409 3.565 9.417-11.459 22.24-7.12 6.076-13.14 11.048-13.377 11.048-.237 0-5.278-4.852-11.203-10.783zM103.213 257.512c1.586-2.683 14.89-23.03 24.398-37.317 12.154-18.262 15.849-23.502 16.57-23.502.458 0 15.749 16.433 16.075 17.277.163.422-11.987 10.022-38.996 30.81-17.052 13.124-19.157 14.609-18.047 12.732zM221.397 158.015c-.357-1.344-5.06-19.913-10.45-41.265-5.39-21.351-9.934-39.27-10.097-39.82-.243-.82-.005-.953 1.322-.742.89.142 4.336.683 7.657 1.201 12.657 1.976 21.708 5.022 35.746 12.03 4.002 1.998 8.92 4.74 10.927 6.094 7.574 5.105 20.041 16.073 20.041 17.629 0 .487-1.617 2.366-3.594 4.177-14.446 13.23-49.532 43.14-50.605 43.14-.164 0-.59-1.1-.947-2.444zM252.454 283.377c-8.517-33.368-23.646-96.091-23.646-98.032 0-1.322 4.512-5.624 19.554-18.644 11.746-10.166 30.623-26.198 37.06-31.475 6.078-4.982 5.105-5.487 10.379 5.392 9.178 18.93 12.038 31.2 11.998 51.474-.023 12.07-.8 18.642-3.424 29.002-4.22 16.657-12.704 32.834-24.341 46.41-4.963 5.79-14.962 15.19-20.915 19.664-5.127 3.853-4.643 4.128-6.665-3.791zM209.77 233.73c-13.884-13.704-17.396-17.759-16.626-19.197.622-1.162 10.37-9.845 14.281-12.722 2.316-1.702 2.342-1.707 2.98-.515.813 1.518 10.43 42.094 10.065 42.46-.149.148-4.964-4.363-10.7-10.025zM184.103 308.14c-12.745-.752-28.607-4.78-40.329-10.243-10.06-4.688-26.828-15.71-26.828-17.635 0-1.486 56.78-50.212 58.511-50.212 1.235 0 30.376 28.716 53.231 52.453 7.303 7.586 11.047 12.393 11.047 14.185 0 1.837-2.257 3.087-10.024 5.553-16.626 5.278-28.995 6.878-45.608 5.899z" style="fill:#fff;stroke-width:.575124" transform="scale(.75)"/></svg>