<svg xmlns="http://www.w3.org/2000/svg" width="317.333" height="317.333" version="1.0" viewBox="0 0 238 238"><path d="M61.5 61 3.6 118.9l57.5 57.9 57.4 57.9 58.5-58.3 58.5-58.4L178 60.5C146.4 28.9 120.3 3 120 3c-.3 0-26.6 26.1-58.5 58zM227 118c0 .3-24.3 25-54 55l-54 54.5-54.1-54.4-54.1-54.3 54.3-54.4L119.5 10l53.7 53.7c29.6 29.6 53.8 54 53.8 54.3z"/><path d="m70.8 70.7-47.7 47.8 47.4 47.7c26 26.3 47.7 47.8 48.2 47.8.4 0 22.4-21.6 48.8-48l48-48L168 70.5C141.9 44.4 120.1 23 119.5 23c-.6 0-22.5 21.5-48.7 47.7zm38.5 3c-6.4 9.8-13.2 20.4-15.2 23.5-2 3.1-3.8 5.6-4.1 5.5-.3-.1-5.4-5.3-11.4-11.4L67.7 80l6.6-6.3c10.8-10.5 27.2-17.5 40.9-17.6l5.8-.1-11.7 17.7zM133.4 58c9.8 2.5 18.6 7.1 25.4 13.5l5.4 5-14.8 12.7c-8.2 7-15.1 12.4-15.5 12-.7-.8-10.9-41.5-10.9-43.7 0-1.9 1.1-1.9 10.4.5zm-12 38.5c1.9 7.7 3.4 14 3.3 14-.1 0-3.5 2.9-7.5 6.5l-7.3 6.3-6.1-6-6-6 9.6-14.8c5.3-8.1 9.9-14.6 10.1-14.4.2.2 1.9 6.7 3.9 14.4zm52.9-5.3c6 12.7 7.9 29.1 4.8 41.8-2.6 10.7-8.7 21.6-16.4 29.4-12.1 12.3-10.3 14.1-18.6-19.1-5.9-23.3-7-28.9-5.9-29.9 5-4.8 32.1-27.4 32.8-27.4.5 0 2 2.4 3.3 5.2zM73.2 101.7l10.7 10.8-11.1 17.3-11.1 17.4-1.4-3.4c-4.8-11-6.3-24.8-4.2-36.3 1.2-6.6 4.7-16.5 5.7-16.5.4 0 5.6 4.8 11.4 10.7zm23.6 23.6c2.3 2.3 4.2 4.5 4.2 4.8 0 .6-28 22.6-30.7 24.3-.7.4 3.7-7 9.9-16.4 6.1-9.3 11.4-17 11.7-17 .4 0 2.6 1.9 4.9 4.3zm34 9.7c1.6 6.7 2.6 12 2.2 11.8-.4-.2-4-3.8-8-8.1l-7.2-7.7 4.3-4c2.4-2.1 4.7-3.9 5-4 .4 0 2 5.4 3.7 12zm-3.3 22c9.8 9.8 17.7 18.2 17.3 18.5-1.3 1.4-12.4 4.6-19 5.5-15 2.2-30.9-1.8-44.6-11.2-2.4-1.6-4.2-3.4-4-3.8.4-1.1 30.9-27 31.7-27 .4 0 8.7 8.1 18.6 18z"/><path d="m86.595 230.497-71.834-72.146 72.336-72.335 72.336-72.335 71.372 71.553c39.255 39.354 71.372 71.745 71.372 71.98 0 .236-7.078 7.639-15.728 16.452-30.484 31.056-127.473 128.985-127.745 128.981-.15-.002-32.6-32.47-72.109-72.15zm89.72 37.854c9.7-9.487 38.737-38.366 64.526-64.177l46.888-46.928-35.758-35.806c-38.276-38.327-89.39-88.734-91.525-90.26l-1.3-.927-7.69 7.252c-11.448 10.797-120.67 119.798-120.67 120.426 0 .755 126.559 127.701 127.294 127.683.328-.008 8.534-7.776 18.235-17.263z" style="fill:#fff;stroke-width:.473632" transform="scale(.75)"/><path d="M80.15 190.282c-4.77-12.07-6.603-22.821-6.117-35.876.291-7.829 1.155-12.866 3.643-21.24 1.63-5.487 4.157-11.443 4.856-11.443.678 0 28.814 28.055 28.644 28.563-.295.885-28.54 44.84-28.817 44.845-.16.003-1.154-2.18-2.209-4.85zM108.95 125.512c-6.005-6.121-12.54-12.888-14.523-15.037l-3.605-3.907 5.495-5.247c3.022-2.886 6.618-6.168 7.991-7.292 10.127-8.295 24.934-15.228 37.845-17.719 4.674-.902 18.408-1.913 18.408-1.354 0 .144-5.497 8.648-12.216 18.897-6.72 10.249-15.237 23.324-18.928 29.054-3.692 5.731-7.35 11.166-8.13 12.078l-1.419 1.658zM178.146 132.972c-2.847-9.013-13.796-53.776-13.796-56.405 0-1.966 1.798-1.864 11.774.671 15.749 4.002 26.265 9.68 37.415 20.202l4.905 4.628-12.01 10.273c-16.062 13.741-26.544 22.17-27.568 22.17-.128 0-.452-.692-.72-1.539zM138.614 156.217l-7.91-7.592 1.057-1.729c2.452-4.01 16.886-25.873 20.66-31.29l4.095-5.882.63 2.092c1.379 4.589 8.625 33.848 8.625 34.83 0 .576-.19 1.12-.422 1.206-.233.087-4.203 3.46-8.823 7.497s-8.761 7.592-9.202 7.9c-.689.483-1.903-.498-8.71-7.032zM94.726 204.301c0-.507 6.766-11.441 12.632-20.414 8.237-12.602 14.812-21.905 15.48-21.905.714 0 11.2 10.532 11.2 11.248 0 .607-3.202 3.358-12.53 10.77-10.02 7.96-26.33 20.609-26.575 20.609-.114 0-.207-.138-.207-.308zM167.36 185.188c-5.172-5.503-9.404-10.248-9.404-10.545 0-.515 7.618-7.485 10.275-9.4l1.276-.92 1.426 4.451c2.664 8.316 6.657 25.595 6.055 26.197-.123.123-4.456-4.279-9.628-9.783zM203.278 226.595c-2.276-1.594-3.443-5.442-11.201-36.92-8.383-34.018-8.865-36.65-7.082-38.645 1.877-2.102 27.131-23.48 38.262-32.39l4.676-3.744.943 1.164c3.982 4.917 9.262 20.36 10.843 31.713 1.009 7.247.79 19.575-.46 25.92-2.649 13.453-9.371 27.25-18.64 38.257-4.58 5.439-14.036 14.67-15.387 15.02-.57.148-1.449-.021-1.954-.375zM149.43 241.502c-5.893-.618-11.333-1.8-17.524-3.803-9.325-3.02-21.678-9.583-26.997-14.345l-1.894-1.697 3.079-2.906c4.13-3.9 23.693-20.687 32.123-27.566L145 185.65l1.165.917c4.197 3.301 41.613 41.009 45.256 45.608l1.436 1.813-2.533 1.12c-5.82 2.573-18.293 5.557-26.854 6.423-5.507.557-8.526.55-14.04-.028z" style="fill:#fff;stroke-width:.473632" transform="scale(.75)"/></svg>