<svg xmlns="http://www.w3.org/2000/svg" width="317.333" height="317.333" version="1.0" viewBox="0 0 238 238"><path d="M61.2 60.3C29.8 91.7 4 117.7 4 118c0 .3 26 26.5 57.8 58.3l57.7 57.7 58-58.1 58-58.1-58-57.4C145.6 28.8 119.3 3 119 3c-.3 0-26.3 25.8-57.8 57.3zm95.8-5.6c-.1.5-5 6-11 12.3l-10.8 11.5 17.4.3c9.6.1 17.4.6 17.4 1s-8.2 8.6-18.2 18.2l-18.2 17.5 14.1.5 14.1.5-29.9 34.3L102 185h-9c-5 0-9-.2-9-.5 0-.2 8.1-11.8 17.9-25.7l18-25.3-14-.5-13.9-.5 14-17 14.1-17-17.1-.3c-9.5-.1-17-.6-16.8-1.1.2-.5 5.5-10.4 11.8-22L109.4 54h23.8c13.1 0 23.8.3 23.8.7z"/><path d="M112.957 245.808c-.312-.504 7.64-12.01 32.338-46.79 8.195-11.54 14.823-21.052 14.728-21.137-.095-.085-8.41-.446-18.478-.804l-18.306-.65 11.923-14.445a15408.84 15408.84 0 0 1 18.6-22.497l6.68-8.052-5.032-.295c-2.768-.162-9.401-.323-14.741-.357-9.94-.063-24.598-.817-25.07-1.288-.144-.145.393-1.473 1.194-2.95.802-1.479 7.727-14.377 15.39-28.663l13.932-25.974 28.655.322c15.76.178 29.91.464 31.446.635l2.79.313-4.17 4.681c-2.293 2.575-8.805 9.609-14.47 15.63-8.068 8.575-10.131 11.019-9.515 11.27.433.178 5.795.34 11.917.362 14.22.05 32.274.851 32.88 1.458.517.517-7.774 8.825-32.562 32.632-8.25 7.923-15 14.556-15 14.738 0 .183 4.955.491 11.012.686 6.056.194 14.392.488 18.524.654l7.512.301-11.768 13.499c-6.472 7.424-24.29 27.831-39.597 45.35l-27.83 31.852h-11.342c-7.157 0-11.453-.178-11.64-.48z" style="fill:#fff;stroke-width:.473632" transform="scale(.75)"/></svg>