<svg xmlns="http://www.w3.org/2000/svg" width="384" height="385" version="1.0" viewBox="0 0 288 289"><path d="M24 144v120h240V24H24v120zM206 43l-18 21-17 18h58l-30 29-29 29h45l-48 56-48 55H88l29-41 29-41-22-1h-22l23-29 23-28h-28l-27-1 19-35 18-34h78l-2 2z"/><path d="M121 331a9886 9886 0 0 0 74-107 559 559 0 0 0-58-1l2-4a10225 10225 0 0 1 58-70 1981 1981 0 0 0-71-2c-1-1-4 4 29-57l19-35h51c48 0 52 0 51 1a4698 4698 0 0 1-48 53l38 1h38l-19 18-59 58a544 544 0 0 0 59 2 7696 7696 0 0 1-107 124l-20 22h-40z" style="fill:#fff;stroke-width:.575124" transform="scale(.75)"/></svg>