<svg xmlns="http://www.w3.org/2000/svg" width="384" height="385.333" version="1.0" viewBox="0 0 288 289"><path d="M24 144v120h240V24H24v120zM206.4 43.2c-1.1 1.3-9.6 10.5-18.8 20.5L170.8 82l28.9.1h28.8L199 111l-29.5 29 22.6.2 22.6.3-48 55.3-48 55.2H88.1l29-40.9c15.9-22.6 28.9-41.2 28.9-41.5 0-.3-9.9-.6-22-.6s-22-.2-22-.5 10.3-13 22.9-28.3l22.8-27.7-27.4-.3c-15.1-.1-27.3-.6-27.1-1.1.2-.4 8.6-16.2 18.7-35L130.3 41h78l-1.9 2.2z"/><path d="M120.837 330.553c29.621-41.694 68.173-96.525 72.592-103.247.888-1.35 1.44-2.63 1.228-2.842-.212-.213-13.17-.531-28.792-.708-15.623-.176-28.566-.48-28.76-.675-.196-.195.872-1.877 2.372-3.738 5.768-7.155 26.427-32.39 41.77-51.024 8.814-10.702 15.938-19.53 15.833-19.619-.105-.088-15.85-.435-34.986-.77-19.138-.336-35.346-.824-36.018-1.085-1.4-.545-3.744 4.044 29.253-57.27l18.494-34.363h51.43c48.217 0 51.382.06 50.642.972-.434.535-11.465 12.616-24.513 26.848-13.049 14.231-23.724 26.087-23.724 26.346 0 .259 17.127.47 38.06.47h38.06l-18.65 18.254c-31.35 30.683-58.9 57.859-59.076 58.275-.092.218 13.172.588 29.475.823 16.304.235 29.643.529 29.643.652 0 .124-19.734 22.945-43.853 50.714-24.12 27.768-52.653 60.625-63.408 73.015l-19.554 22.528-20.036.019-20.036.02z" style="fill:#fff;stroke-width:.575124" transform="scale(.75)"/></svg>