<svg xmlns="http://www.w3.org/2000/svg" width="317" height="317" version="1.0" viewBox="0 0 238 238"><path d="M61 60 4 118l58 58 58 58 58-58 58-58-58-58-59-57-58 57zm96-5-11 12-11 12h18l17 1-18 18-18 18h14l14 1-30 34-30 34H84l18-26 18-25-14-1H92l14-17 14-17-17-1-17-1 12-22 11-21h24l24 1z"/><path d="M113 246a682 682 0 0 1 47-68l-18-1-19-1 12-14a15409 15409 0 0 1 19-23l6-8h-19l-25-2 1-2 15-29 14-26h29l31 1h3l-4 5a1101 1101 0 0 1-24 27h12l33 2-33 32-15 15 11 1h19l7 1-12 13-39 45-28 32h-23z" style="fill:#fff;stroke-width:.473632" transform="scale(.75)"/></svg>