<svg xmlns="http://www.w3.org/2000/svg" width="381.333" height="385.333" version="1.0" viewBox="0 0 286 289"><path d="M24 144v120h240V24H24v120zM160.5 39.9c18.6 4.5 33.9 13.3 48.1 27.5 15 15 25.1 32.7 31.1 54.4 2.4 8.8 2.7 11.4 2.7 28.2.1 15.5-.2 19.5-1.8 25-5.4 18.1-12.6 30.3-25.5 43.1-14.2 14.1-30.2 23.1-50.8 28.6-8.5 2.2-11.9 2.6-25.8 2.7-13.9.1-17-.2-23.9-2.2-37.2-10.7-63.2-43.9-67.5-86.2-1.8-16.8 2-35.2 10-48.7 4.7-7.8 17.8-21.4 26.1-27 13.5-8.9 31.7-14.9 48.8-15.9 35.1-2.1 64.6 20.2 75.6 57.3 3.5 11.7 4.4 29.8 2 39.3-5 20.1-20.5 37.1-41.4 45.6-11.2 4.5-18.1 5.8-30.2 5.9-9.5 0-12.7-.4-18.3-2.3-17.2-6-30.9-20.9-37.4-40.7-3.1-9.8-4.3-26.8-2.3-34.3 5.4-20.2 23.9-34.6 49-38.3 23.8-3.4 42.8 10.9 48.6 36.8 3.4 15.2.4 27.6-8.6 35.7-9.3 8.4-26.3 13.2-37.6 10.7-4.8-1.1-6.6-2.2-10.9-6.5-5.8-5.7-8.2-11.4-9.2-21.2-.8-8.1.2-12.6 3.5-16.5 6.7-8.1 24.6-10.2 30-3.6.8.9 1.6 3.4 1.9 5.5.4 3.3.1 4.4-2.4 7.2-2.4 2.7-3.8 3.3-8.1 3.8-5.6.5-5.7.7-4.2 6.4 1.5 5.1 3.7 6.1 10.5 4.9 12.5-2.3 17.2-7.3 16.2-17-1.2-11.4-5.9-20.2-12.8-24-3.6-2.1-5.1-2.3-12.8-1.9-14.3.7-26.3 7.5-31.5 18-8.2 16.3 3.1 45.7 20.8 54.3 18.5 8.9 49.7-1.6 62.6-21 8.2-12.3 7.8-33.7-1-52-12.9-26.8-37.3-37.5-67.3-29.4-24.2 6.5-44.3 25.8-48.6 46.7-5.3 25.9 6.5 58.8 27.2 76 7 5.8 19.6 11.9 28.2 13.7 28.8 6 66.2-8.1 84.1-31.8 6.2-8.2 12-20.5 13.9-29.2 6.5-30.9-7.2-70.2-31.7-90.6-13.7-11.4-27.4-17.1-46.4-19.3-10.7-1.2-12-1.6-14.1-4-3.9-4.6-2.5-12.2 2.8-15.3 3.2-1.8 17.5-1 28.4 1.6z"/><path d="M165.885 331.821c-14.967-1.334-35.709-10.089-51.178-21.601-27.388-20.383-45.01-51.495-50.948-89.947-1.356-8.784-1.345-25.562.024-33.62 2.914-17.17 8.608-31.728 16.54-42.292 4.585-6.107 19.413-21.374 25.513-26.268 17.508-14.048 45.94-24.05 71.89-25.291 33.535-1.604 64.414 14.527 83.73 43.737 9.392 14.203 16.194 32.346 18.454 49.226.965 7.203.982 26.742.028 31.775-1.92 10.127-7.174 22.113-13.804 31.489-4.886 6.908-14.374 16.397-21.424 21.425-10.305 7.35-27.18 14.735-39.665 17.36-2.373.5-8.497 1.215-13.61 1.59-22.487 1.652-36.802-2.244-52.242-14.217-11.676-9.055-21.741-22.976-27.306-37.765-3.67-9.754-5.405-18.964-6.102-32.39-.453-8.73.284-15.49 2.354-21.577 7.732-22.73 27.763-39.094 56.072-45.804 8.346-1.979 20.804-2.47 27.639-1.09 22.815 4.604 39.09 22.703 44.923 49.958 1.647 7.695 1.762 19.492.248 25.414-3.875 15.16-14.939 25.857-33.007 31.91-13.246 4.438-26.795 4.576-35.07.356-5.64-2.877-13.427-11.404-16.257-17.803-2.994-6.768-4.945-19.644-4.052-26.751.278-2.218 1.14-5.407 1.913-7.087 3.667-7.965 13.414-13.427 25.165-14.102 12.461-.716 18.69 3.22 19.442 12.284.36 4.335-.151 5.692-3.459 9.19-3.177 3.359-5.555 4.361-12.1 5.1-4.343.489-5.254 1.414-4.743 4.817.7 4.665 2.533 8.685 4.512 9.892 2.267 1.382 6.81 1.453 12.871.2 7.091-1.464 11.546-3.522 14.927-6.894 3.968-3.957 5.075-7.536 4.607-14.896-1.16-18.277-11.547-33.67-23.869-35.375-4.182-.578-16.576.22-21.637 1.394-16.68 3.868-29.86 15.255-33.319 28.786-4.241 16.59 2.182 39.506 15.367 54.826 6.614 7.686 13.66 12.242 22.332 14.44 27.462 6.962 66.222-10.217 78.424-34.758 3.871-7.787 4.957-12.652 5.29-23.716.317-10.504-.236-15.644-2.71-25.17-6.126-23.578-20.806-43.09-39.533-52.54-15.45-7.796-35.386-9.051-56.243-3.54-21.983 5.808-40.977 18.818-53.937 36.945-5.67 7.93-9.576 16.891-11.726 26.9-1.59 7.402-1.45 25.492.266 34.608 4.42 23.47 15.627 45.48 30.857 60.602 11.67 11.587 31.282 21.55 47.48 24.119 7.177 1.138 21.74 1.122 30.024-.033 27.59-3.848 54.675-17.455 72.383-36.364 11.386-12.157 22.033-33.012 25.096-49.154 1.594-8.403 1.425-29.366-.317-39.146-7.055-39.625-28.076-71.95-58.39-89.79-13.754-8.095-26.482-12.034-48.239-14.93-12.562-1.672-15.136-2.573-17.482-6.117-1.968-2.975-2.556-8.852-1.207-12.072 1.12-2.675 3.628-5.566 5.802-6.69 2.481-1.283 10.192-1.613 18.786-.803 21.013 1.98 41.941 9.138 58.732 20.087 18.44 12.024 36.745 31.373 48.148 50.894 10.638 18.212 18.771 41.486 20.283 58.044.895 9.797.335 44.326-.795 49.016-3.519 14.608-11.338 32.294-19.004 42.987-11.244 15.684-27.304 30.58-43.526 40.369-13.295 8.024-31.347 15.004-47.735 18.457-8.036 1.694-33.41 2.473-45.486 1.396z" style="fill:#fff;stroke-width:.575124" transform="scale(.75)"/></svg>