<svg xmlns="http://www.w3.org/2000/svg" width="381" height="385" version="1.0" viewBox="0 0 286 289"><path d="M24 144v120h240V24H24v120zM161 40c18 4 33 13 48 27 15 15 25 33 31 55 2 9 2 11 2 28l-1 25a108 108 0 0 1-126 72 96 96 0 0 1-68-86c-2-17 2-35 10-49 5-8 18-21 26-27 14-9 32-15 49-16 35-2 65 21 76 58 3 11 4 29 2 39a71 71 0 0 1-72 51c-10 1-13 0-18-2-18-6-31-21-38-41-3-9-4-26-2-34 5-20 24-34 49-38 24-4 43 11 49 37 3 15 0 27-9 35-9 9-26 14-38 11-4-1-6-2-11-6-5-6-8-12-9-22-1-8 0-12 4-16 6-8 24-10 30-4l2 6c0 3 0 4-3 7-2 3-4 3-8 4-5 0-6 0-4 6 1 5 4 6 10 5 13-2 18-7 17-17-2-11-6-20-13-24-4-2-5-2-13-2-14 1-26 8-31 18-9 16 3 46 20 54 19 9 50-1 63-20 8-13 8-34-1-52-13-27-37-38-67-30-25 7-45 26-49 47-5 26 7 59 27 76 7 6 20 12 28 14 29 6 67-9 85-32 6-9 12-21 13-30 7-30-7-70-31-90a82 82 0 0 0-47-19c-10-2-12-2-14-4-4-5-2-13 3-16 3-1 18-1 28 2z"/><path d="M166 332c-15-2-36-10-51-22a134 134 0 0 1-51-123c3-18 8-32 16-43l26-26c17-14 46-24 72-25 33-2 64 14 83 44a122 122 0 0 1 19 81 86 86 0 0 1-35 52c-11 8-27 15-40 18l-14 1c-22 2-36-2-52-14a89 89 0 0 1-33-70c-1-9 0-15 2-22 8-22 28-39 56-45 9-2 21-3 28-1 23 4 39 22 45 50 1 7 2 19 0 25-4 15-15 26-33 32-13 4-27 4-35 0-6-3-13-11-16-18-3-6-5-19-4-26l2-7c3-8 13-14 25-15 12 0 18 4 19 13 1 4 0 5-3 9-3 3-6 4-12 5-5 1-6 1-5 5 1 5 2 9 4 10h13c7-2 12-4 15-7 4-4 5-7 5-15-1-18-12-34-24-35-4-1-17 0-22 1-16 4-30 15-33 29-4 17 2 39 15 55 7 7 14 12 23 14 27 7 66-10 78-35 4-7 5-12 5-23a81 81 0 0 0-42-78c-15-8-35-9-56-4-22 6-41 19-54 37-6 8-10 17-12 27v35c5 23 16 45 31 61 12 11 32 21 48 24h30c27-4 55-18 72-37 12-12 22-33 25-49a128 128 0 0 0-59-129c-13-8-26-12-48-15-12-1-15-2-17-6-2-3-3-9-1-12 1-3 3-6 5-7h19c21 2 42 9 59 20a161 161 0 0 1 68 109v49c-4 14-12 32-19 43a145 145 0 0 1-92 58c-8 2-33 3-45 2z" style="fill:#fff;stroke-width:.575124" transform="scale(.75)"/></svg>