<svg xmlns="http://www.w3.org/2000/svg" width="317" height="317" version="1.0" viewBox="0 0 238 238"><path d="M61 61 4 118l11 11 57 58 46 47 58-57 58-58L119 3 61 61zm72-15c11 4 18 7 27 17a79 79 0 0 1 21 75c-9 29-37 49-70 49-16 0-29-5-41-18-7-7-10-10-13-17-5-11-7-19-7-31 0-16 5-28 16-39 19-19 50-24 70-11 15 9 26 30 26 49 0 26-25 47-53 45-17-1-30-13-36-31-5-20 1-35 19-44 6-3 8-3 16-4 11 0 17 2 23 9 7 8 11 24 8 33-4 9-16 16-29 15-5 0-7-1-9-3-6-6-9-18-7-24s7-8 15-8c5 0 6 0 7 2 4 5 2 10-5 12-4 1-4 1-3 4s1 3 5 3c5 0 11-3 12-5 2-6 0-15-5-20l-4-4h-7c-16 1-26 12-23 26 3 16 12 25 26 25 16 0 31-10 35-23 4-14-3-34-16-44-19-13-52-4-63 19-3 6-4 8-4 16s0 11 2 18c5 17 18 30 33 34 25 7 54-7 65-29 5-10 7-19 5-31-4-30-26-52-53-55-6 0-8-1-10-3-3-2-3-5 0-8 2-3 2-3 11-3l16 4z"/><path d="M139 249c-18-2-31-9-47-25-8-8-11-13-15-21-7-15-10-25-10-41 0-11 1-17 3-24 9-28 39-50 72-52 28-2 49 9 63 35 7 12 11 26 11 38 0 16-6 30-18 41a62 62 0 0 1-35 18c-16 3-29 1-41-6-4-2-12-10-15-15-5-7-8-16-10-25-2-6-1-17 0-22 4-13 12-23 26-30 6-2 10-4 16-4h19c16 4 27 21 28 41 0 10-2 16-8 22-4 5-8 7-14 9s-12 3-19 2c-6-1-8-2-11-5-7-7-10-19-9-27 1-6 5-10 10-12l10-1 9 1 3 7c0 2-1 5-3 6l-6 3-4 2c-1 2 1 7 2 7 4 2 13 1 19-3 2-2 3-4 3-9 0-9-3-16-10-23l-3-3h-7c-10 1-17 3-22 6-11 7-14 18-11 32 4 16 13 26 25 30 5 1 14 1 20-1 17-3 31-14 35-28 4-11 2-28-5-41-5-11-15-20-25-24a62 62 0 0 0-47 3c-8 4-17 12-23 19l-8 15a71 71 0 0 0 36 81c9 5 16 6 28 6l14-2c25-6 44-20 54-40 5-10 7-18 7-29a91 91 0 0 0-25-63 72 72 0 0 0-46-22c-9-1-12-2-14-6-3-3-2-7 2-11l2-2h4c16 0 36 6 49 15 7 5 17 14 24 23a105 105 0 0 1 19 92 95 95 0 0 1-78 62l-24 1z" style="fill:#fff;stroke-width:.473632" transform="scale(.75)"/></svg>