<svg xmlns="http://www.w3.org/2000/svg" width="317.333" height="317.333" version="1.0" viewBox="0 0 238 238"><path d="M61 60.5 3.5 118l11 11.2c6 6.2 31.9 32.3 57.4 58l46.4 46.7 57.9-57.1c31.8-31.4 57.8-57.6 57.8-58.2C234 117.5 120 3 119 3c-.3 0-26.4 25.9-58 57.5zm71.7-15c11.8 4 17.9 7.9 27.8 17.9 10.4 10.5 15.7 19.6 20.1 34.1 3.7 12.6 4 29.5.6 40.5-9 28.9-37.6 49-69.9 49-16.5 0-28.8-5.3-41.4-17.9-7.1-7-9.4-10.1-12.7-17.1-5.3-11.1-7.2-19.5-7.2-31.1 0-16.3 4.7-27.8 16-38.9 19-18.7 50.4-23.7 70.3-11.1 14.7 9.4 25.6 30 25.7 48.6.1 26.2-24.6 47.1-53.3 45.3-17.1-1.1-29.7-12.4-35.2-31.3-5.6-19.1 1-34.7 18.2-43.2 6.5-3.2 8.6-3.7 16.2-4.1 10.9-.5 17.2 1.8 23.1 8.5 7.5 8.5 11 23.8 7.6 32.8-3.8 9.8-15.5 16.1-28.2 15.3-5.4-.3-6.9-.9-9.5-3.3-6.2-5.8-9.3-17.2-6.5-23.8 2.1-5.3 6.7-7.7 14.3-7.7 5.3 0 6.4.3 7.7 2.2 3.6 5.1 1.2 10.1-5.5 11.5-3.4.8-3.5.9-2.7 4 .8 3 1.2 3.3 4.9 3.3 4.5 0 11.3-3.1 12.3-5.5 2-5.4-.5-14.5-5.6-19.8l-3.7-4-7.3.5c-16.2 1.1-25.5 11.4-22.9 25.4 3 16.1 12.4 25.4 25.7 25.4 16.3 0 31.2-9.8 35-22.9 4.2-14.2-3-34.5-15.4-43.6-18.9-13.9-52.3-4.3-63.4 18.3-2.9 5.9-3.3 7.8-3.6 16.4-.3 7.9 0 11.2 1.9 17.4 5.1 17.3 18.1 30.9 33.4 34.9 24.1 6.2 54-7.4 64.9-29.6 5-10.1 6.4-19.1 4.8-30.5-4.5-30.7-25.8-52.8-53-55.1-6.1-.5-8.1-1.1-9.9-2.9-2.9-2.9-2.9-5.4-.1-8.9 2.1-2.7 2.3-2.8 10.4-2.2 4.8.3 11.5 1.7 16.1 3.2z"/><path d="M139.414 248.68c-18.296-2.113-31.482-9.043-47.315-24.87-7.9-7.896-11.534-12.828-15.338-20.816-7.255-15.232-9.626-25.283-9.678-41.012-.035-10.513.768-16.762 3.102-24.155 8.81-27.903 39.314-50.086 71.522-52.012 28.655-1.714 48.998 9.67 63.502 35.537 6.667 11.89 10.375 25.413 10.375 37.834 0 15.972-5.98 29.658-18.043 41.286-9.637 9.292-21.189 15.225-34.673 17.81-15.577 2.987-28.438 1.129-40.41-5.837-4.371-2.543-12.237-10.292-15.408-15.177-4.595-7.081-8.374-16.397-10.281-25.34-1.272-5.964-1.147-16.909.252-22.024 3.494-12.778 12.159-22.628 25.993-29.547 5.702-2.851 10.13-4.185 15.997-4.82 6.204-.67 15.436-.332 19.419.713 15.246 3.999 26.776 21.145 27.568 40.996.407 10.197-1.558 15.552-8.094 22.065-4.391 4.376-8.053 6.598-14.264 8.656-6.054 2.005-12.124 2.67-18.279 2-6.092-.662-8.076-1.586-11.671-5.429-6.514-6.962-10.175-18.54-8.461-26.752 1.254-6.007 4.395-9.886 9.718-12.003 2.325-.925 3.535-1.054 10.063-1.07 7.268-.018 7.446.006 8.707 1.166 1.529 1.407 3.522 5.437 3.514 7.104-.01 1.957-1.668 5-3.476 6.38-.935.712-3.569 1.87-5.854 2.572-3.788 1.165-4.167 1.39-4.304 2.562-.217 1.852 1.211 6.385 2.173 6.9 3.788 2.026 13.18.147 18.887-3.78 2.778-1.91 3.484-3.654 3.475-8.58-.016-8.947-3.004-15.603-10.563-23.528l-2.731-2.864-6.493.47c-10.818.783-16.958 2.462-22.722 6.216-10.253 6.677-14.014 18.08-10.518 31.887 4.03 15.916 12.794 26.085 25.327 29.39 4.074 1.074 13.903.977 19.419-.19 17.183-3.64 30.873-14.597 35.418-28.35 3.77-11.403 1.834-27.62-4.883-40.92-5.679-11.245-15.38-20.455-25.34-24.059-6.68-2.417-10.587-3.053-18.694-3.044-10.411.01-18.84 1.912-28.236 6.367-8.576 4.068-17.614 11.31-22.96 18.4-2.913 3.864-6.649 11.066-7.963 15.35-1.937 6.318-2.553 22.112-1.177 30.17 3.744 21.913 18.717 42.431 37.328 51.153 8.664 4.06 16.047 5.39 28.125 5.064 6.882-.185 9.392-.457 14.028-1.52 24.452-5.61 43.983-20.034 53.913-39.813 4.993-9.946 7.09-18.64 7.087-29.365-.005-14.35-3.394-28.067-10.338-41.85-4.503-8.938-8.58-14.622-15.34-21.38-12.997-12.998-27.325-19.794-45.941-21.79-8.974-.961-11.982-2.126-14.361-5.558-2.237-3.228-1.412-6.94 2.445-10.995l1.823-1.916 4.217.004c16.455.015 36.121 5.9 48.848 14.617 7.329 5.02 17.241 14.415 24.223 22.96 10.634 13.012 18.348 30.752 21.231 48.818.637 3.99.836 8.03.833 16.853-.006 13.335-.513 17.064-3.574 26.262-10.756 32.328-40.576 56.315-77.16 62.068-5.727.9-19.025 1.308-23.989.735z" style="fill:#fff;stroke-width:.473632" transform="scale(.75)"/></svg>