<svg xmlns="http://www.w3.org/2000/svg" width="400" height="388" version="1.0" viewBox="0 0 300 291"><path d="M61.6 2.9c-1.6 1.7-5.1 3.8-7.8 4.7-2.6.8-4.8 2.1-4.8 2.7 0 1 4.8 17.5 16.4 56.8l1.4 4.6-4.7 5.3-4.7 5.3-14-5.2C35.6 74.3 28 72 26.3 72c-6.3 0-10.8 6.9-8.4 12.9.7 1.5 6.6 7.2 13.2 12.7 9.8 8.1 11.8 10.3 11.3 11.9-.3 1.1-1.7 6.4-3.2 11.7l-2.5 9.7-8.6 1.5c-4.7.8-11.7 2.1-15.6 2.7C3.9 136.6 0 139.8 0 145.5s3.9 8.9 12.5 10.4c24.4 4.1 24.5 4.1 25 7 .3 1.4 1.5 6 2.6 10.1 1.2 4.1 2.3 8.2 2.5 9 .3 1-3.9 5.1-11.5 11.4-6.6 5.5-12.5 11.2-13.2 12.7-2.4 6 2.1 12.9 8.4 12.9 1.7 0 9.2-2.3 16.7-5 7.5-2.8 14.1-5 14.6-4.9.5.1 2.8 2.2 5.1 4.8l4.3 4.8-9 30.4c-5 16.7-9 30.9-9 31.6 0 .6 2.1 1.8 4.7 2.7 2.6.9 6.1 3 7.8 4.6l3.2 3.1 22.2-23.6c12.3-12.9 22.6-23.5 22.9-23.5 1.7.1 12.5 2.9 12.9 3.4.5.4 1.6 6.2 4.8 24.5l.6 3.3 5.7-.6c3.1-.3 7.4-.2 9.5.3 3.3.8 3.8.7 4.2-1.3.7-3.1 4.5-24.9 4.5-25.7 0-.3 1.7-.9 3.8-1.3 2.1-.3 7.6-1.6 12.1-3l8.2-2.3 9.2 10.8 9.1 10.8 3.7-3c2-1.5 5.7-3.7 8.2-4.8l4.6-2-2.1-5.3c-1.1-2.9-3.2-8.7-4.8-12.9l-2.7-7.5 9.1-9.1 9.1-9.1 11.5 4.4c6.3 2.3 12.3 4.3 13.2 4.3 1.2.1 2.1-1.2 2.9-3.9.7-2.2 1-4.2.8-4.3-.2-.2-7.6-2.9-16.4-6.1l-16-5.7-2.9 3.8c-3.8 4.8-12.8 13.8-18.4 18.3l-4.3 3.5 5.9 16.2c3.3 9 5.6 16 5.1 15.7-.7-.4-19.4-22.4-21.5-25.3-.2-.2-5.2 1.2-11.1 3.2-5.9 2-13.8 3.9-17.5 4.3-3.8.4-6.8 1-6.8 1.3 0 2-6 33.4-6.4 33.9-.3.3-.6.1-.6-.4 0-1.1-4.7-28.8-5.5-31.9-.4-1.7-1.8-2.3-8.1-3.4-4.2-.7-9.4-1.9-11.6-2.7-2.2-.8-4.3-1.4-4.7-1.4-.4 0-11.4 11.4-24.6 25.4-13.2 14-24.1 25.1-24.3 24.7-.1-.4 4-15.2 9.3-32.9 5.2-17.7 9.5-33 9.5-33.9 0-1-.8-2.3-1.9-3-1-.6-4.5-4.5-7.8-8.6l-6-7.4-10.4 3.7c-5.7 2.1-13.4 4.9-17.1 6.4-3.8 1.4-6.8 2.3-6.8 2.1 0-.2 6.3-5.6 13.9-12l13.9-11.7-2.3-5.6c-2.7-6.7-5.1-15.6-6-22.9l-.7-5.1-8.6-1.6c-4.8-.8-12.9-2.3-18-3.2-5.1-.9-9.1-1.8-9-1.9.3-.3 34-6.5 35.1-6.5.3 0 .8-2.6 1.2-5.7.8-6.6 4.8-21.1 7-25.3l1.4-2.7L41 93.5c-7.7-6.4-14-11.8-14-12 0-.2 3.7 1 8.3 2.7 4.5 1.7 12.2 4.4 17 6.2l8.8 3.1 3.2-4c1.8-2.2 5.3-6.3 7.9-9.1 2.7-2.8 4.8-5.6 4.8-6.3 0-.6-4.3-15.6-9.5-33.3-5.3-17.7-9.4-32.5-9.3-32.9.3-.7 13.5 13 40.8 42.1l7.5 8 6.1-1.9c3.4-1.1 8.9-2.3 12.3-2.7 5.1-.5 6.2-1 6.6-2.8.7-3.1 5.5-30.9 5.5-32 0-.5.3-.7.6-.4.3.3 1.8 7.8 3.4 16.7 1.6 8.9 3.1 16.5 3.4 17 .3.4 3.5 1.1 7.1 1.4 3.6.4 11.3 2.2 17.1 4.2l10.5 3.5 2.7-3.2c1.5-1.8 6.6-7.9 11.4-13.5l8.7-10.2-3.7-3-3.8-3-8.8 10.6c-7.2 8.5-9.2 10.4-11 10-1.1-.3-5.7-1.4-10-2.6-4.4-1.2-9-2.1-10.3-2.1-1.2 0-2.3-.4-2.3-.8 0-.8-3.8-22.4-4.5-25.8-.4-2-.9-2.1-4.2-1.3-2.1.5-6.4.6-9.5.3l-5.7-.6-.6 3.3c-3.1 17.6-4.3 24-4.6 24.3-.2.2-3.3 1-6.9 1.9l-6.5 1.7-7.5-7.8C97.8 35 87.7 24.4 79.5 15.7L64.5-.1l-2.9 3z"/><path d="M201.6 35.8c-.3.5-3 7.8-6.1 16.3l-5.6 15.4 3.3 2.5c4.3 3.2 17.9 16.7 20.4 20.3l2 2.8 15.4-5.6c8.5-3.1 15.9-6 16.4-6.5 1.2-1.2-1.3-8-3-8-.7 0-6.1 1.8-11.9 4-5.8 2.1-11.1 4-11.8 4.2-.7.1-5.3-3.8-10.3-8.8l-9-9.1 4.7-12.7 4.7-12.8-3.4-1.4c-3.8-1.6-5.1-1.7-5.8-.6zM146.6 66.8c.3 2.6.7 4.7.8 4.7 0 0 4.3 1.1 9.3 2.3 5.1 1.3 9.7 2.1 10.2 1.7.6-.3 1.9-1.9 3.1-3.5l2.1-2.9-3.8-1.6c-3.5-1.5-11.2-3.5-19.1-4.9l-3.3-.6.7 4.8zM119.3 64.2c-2.4.5-4.3 1.3-4.3 1.8 0 2.2 5.3 7 7.8 7 4 0 5-1.1 5.8-5.8.6-4.1.6-4.2-2.2-4.1-1.6.1-4.8.5-7.1 1.1zM184.8 81.5l-1.7 4.4 7.1 6.9 7.2 7 4.3-1.5c3.6-1.3 4.1-1.7 3.3-3.3-1.3-2.4-11.8-13-15.6-15.7l-3-2.2-1.6 4.4zM235.3 92.7c-7 5.8-12.9 10.7-13 10.8-.2.1.8 2.9 2.2 6.2 1.3 3.3 3.2 9 4.1 12.6 1 4.3 2.2 6.8 3.3 7.1 3.1.9 64.7 15.6 65.4 15.6.8 0 3-8 2.4-8.6-.2-.3-14.1-3.8-30.8-7.8l-30.3-7.3-2.3-6.8c-1.3-3.8-2.3-7.2-2.3-7.6 0-.4 4.7-4.7 10.5-9.4l10.4-8.7-2.7-3.4c-1.5-1.9-3-3.4-3.4-3.4-.3 0-6.4 4.8-13.5 10.7zM75.7 91.1c-2.5 2.9-4.4 5.6-4.1 6 .3.5 2.3 1.4 4.4 2 3.6 1.1 4.1 1 5.8-1.1 1.7-2.1 1.8-2.7.5-6.8-.7-2.5-1.5-4.7-1.7-4.9-.2-.2-2.4 2-4.9 4.8zM210.3 113.8c-3.2 2.6-3.3 2.8-2.1 6.4 1.1 3.8 1.6 4.1 7.6 5.3 2.4.5 3.2.3 3.2-.7 0-2.2-4.1-13.8-4.8-13.8-.4 0-2.2 1.3-3.9 2.8zM59.6 119.7c-1.3 4.3-2.7 10-3.1 12.7l-.8 4.8 4.4-.7c5.6-.9 5.9-1.1 5.9-4 0-1.3.9-5.1 1.9-8.5l1.9-6.2-3.1-2.9c-1.8-1.5-3.5-2.9-3.9-2.9-.4 0-1.8 3.5-3.2 7.7zM265 153.5c-16.8 4.1-31.5 7.7-32.6 8-1.7.4-2.5 1.9-3.8 7-.9 3.6-2.7 9-4.1 12.1-1.4 3.1-2.2 6-1.9 6.5.8 1.4 25.4 21.9 26.2 21.9.4 0 1.9-1.5 3.4-3.4l2.7-3.4-10.4-8.7c-5.8-4.7-10.5-9-10.5-9.4 0-.4 1-3.8 2.3-7.5l2.3-6.9 30.3-7.3c16.7-4 30.5-7.5 30.8-7.8.9-.8-1.8-8.6-3-8.5-.7 0-14.9 3.4-31.7 7.4zM56.5 158.7c.9 6 5.3 20.3 6.3 20.3.4 0 2.1-1.4 3.9-3l3.2-2.8-2-6.4c-1-3.5-1.9-7.3-1.9-8.6 0-2.4-.5-2.7-6.4-3.7l-3.8-.6.7 4.8zM212.8 166.2c-3 .8-3.9 1.6-4.9 4.6-1.1 3.4-1 3.6 2.2 6.3 1.9 1.6 3.7 2.9 4 2.9.6 0 4.9-11.9 4.9-13.8 0-1.4-1-1.4-6.2 0zM74.2 192.5l-3.4 1.5 4.2 5c2.3 2.7 4.6 5.2 5 5.5.5.3 1.5-1.6 2.3-4.2 2.3-7.8-1-10.9-8.1-7.8zM189.8 198.2l-6.8 6.9 1.6 3.9c.9 2.2 2 4 2.6 4 .5 0 5-4.1 10.1-9.1l9.2-9.2-3-1.2c-6.3-2.6-6.7-2.5-13.7 4.7zM161.9 215.5c-2 .7-6.2 1.8-9.3 2.5-4.7 1-5.6 1.5-5.6 3.3 0 1.2-.3 3.2-.6 4.4-.6 2-.3 2.3 2.3 2.3 3.7 0 17.4-3.4 20.8-5.2l2.6-1.4-3.3-3.6c-3.2-3.6-3.4-3.6-6.9-2.3zM117.9 220.8c-1.6 1.8-2.7 3.7-2.4 4.1.5 1 12.5 3.5 13.2 2.8.2-.3.1-2.5-.2-5-.7-4.2-.9-4.5-4.2-4.9-2.9-.4-3.9.1-6.4 3z"/><path d="m247.304 80.805 1.627 1.718M296.848 144.587l-.15 1.68M248.558 208.487l-1.136 1.409" style="fill:none;stroke:#000;stroke-width:.75px;stroke-linecap:butt;stroke-linejoin:miter;stroke-opacity:1"/><path d="m201.258 34.205 1.541 1.4" style="fill:red;stroke:#000;stroke-width:.75px;stroke-linecap:butt;stroke-linejoin:miter;stroke-opacity:1"/><path d="M78.083 375.978c.13-.412 1.264-4.502 2.52-9.089 1.258-4.587 4.401-15.522 6.987-24.3 6.163-20.931 12.823-44.228 14.26-49.89 1.356-5.34 1.176-6.242-1.724-8.618-2.055-1.684-6.558-6.809-13.397-15.246-3.241-4-5.019-5.877-5.474-5.784-.624.128-23.236 8.336-36.003 13.07-3.033 1.123-6.065 2.16-6.74 2.304-1.152.246-1.092.138 1.022-1.836 1.235-1.154 9.138-7.903 17.562-14.998 8.424-7.094 15.534-13.1 15.801-13.344.37-.34.004-1.605-1.537-5.312-4.45-10.71-7.43-21.602-9.15-33.445-.515-3.55-1.02-6.538-1.122-6.64-.216-.215-4.428-1.004-21.758-4.072-16.074-2.847-23.606-4.309-23.998-4.66-.17-.151 3.322-.973 7.76-1.826 7.703-1.48 32.298-5.972 35.938-6.563 2.022-.33 2.072-.454 3.169-7.768 1.744-11.634 6.3-27.68 9.83-34.614.772-1.516 1.404-2.836 1.404-2.932 0-.095-4.733-4.178-10.517-9.072-22.708-19.213-25.852-21.909-25.712-22.05.21-.209 6.444 1.95 21.117 7.313 16.836 6.154 22.258 8.056 22.96 8.056.316 0 1.01-.587 1.54-1.306 1.663-2.249 7.315-8.892 12.266-14.418 5.107-5.699 7.752-9.137 7.752-10.077 0-1.022-4.958-18.4-15.127-53.024-5.443-18.53-9.855-34.375-9.635-34.595.493-.493 16.067 15.556 47.049 48.481 9.195 9.772 16.901 17.743 17.126 17.715.224-.029 2.858-.81 5.853-1.737 6.95-2.15 12.88-3.504 19.06-4.352 5.36-.735 7.272-1.346 7.905-2.528.482-.902 2.781-13.372 5.842-31.686 1.188-7.11 2.285-12.7 2.438-12.425.377.679 1.947 8.435 4.44 21.944 2.064 11.174 3.952 20.824 4.329 22.123.289.994 1.954 1.444 8.874 2.4 7.827 1.082 16.141 3.2 28.15 7.172 6.06 2.004 9.632 2.996 9.967 2.766.288-.197 5.813-6.617 12.278-14.268 16.003-18.934 17.045-20.143 17.211-19.978.08.079-1.418 4.336-3.329 9.46-5.178 13.886-12.132 33.095-12.132 33.516 0 .203 1.88 1.825 4.178 3.605 5.505 4.263 23.968 22.635 27.262 27.128 1.4 1.91 2.688 3.526 2.863 3.592.386.146 23.27-8.163 34.232-12.43 6.156-2.396 8.01-2.965 8.452-2.598.457.379-.632 1.425-5.639 5.417-4.814 3.84-26.511 21.677-28.174 23.163-.178.159.347 2.11 1.167 4.336 3.523 9.56 5.63 15.803 6.921 20.502 1.625 5.912 3.055 9.23 4.256 9.873 1.08.578 30.976 7.835 70.888 17.209 16.609 3.9 15.316 3.529 15.316 4.398 0 .54-.605.831-2.552 1.231-4.178.858-43.583 10.274-64.225 15.347-17.995 4.424-19.265 4.794-20.303 5.93-1.067 1.168-1.387 2.063-4.672 13.078-.569 1.91-2.107 6.229-3.417 9.598-1.31 3.37-2.604 7.01-2.875 8.09-.48 1.906-.46 1.999.684 3.21 2.354 2.495 25.5 21.998 30.817 25.968 2.994 2.235 2.239 2.768-1.8 1.27-13.462-4.992-38.25-13.896-38.912-13.977-.25-.03-1.792 1.69-3.427 3.825-3.77 4.918-20.882 21.974-26.636 26.547-2.402 1.91-4.376 3.674-4.386 3.922-.01.248 2.347 6.957 5.238 14.908 5.945 16.35 9.234 26.037 8.941 26.33-.21.21-12.762-14.298-21.934-25.352-2.983-3.594-5.638-6.763-5.901-7.043-.57-.606-2.681-.071-14.135 3.578-9.543 3.041-15.931 4.658-22.667 5.738-11.097 1.778-10.578 1.624-10.928 3.241-.17.786-1.144 6.107-2.164 11.823-2.442 13.69-5.877 31.094-6.277 31.81-.188.335-.693-1.843-1.23-5.297-1.527-9.843-6.202-35.975-6.703-37.47-.7-2.094-2.405-2.747-12.394-4.751-4.898-.983-11.29-2.533-14.204-3.444-2.914-.91-5.576-1.656-5.915-1.656-.693 0-3.78 3.144-25.863 26.343-21.37 22.452-37.412 38.95-38.37 39.462-.682.365-.767.317-.567-.32zm126.657-72.692c11.102-2.102 24.71-6.553 24.71-8.081 0-.932-7.745-8.74-8.926-9-.76-.166-2.484.169-5 .971-2.112.674-6.873 1.971-10.58 2.883-3.706.913-7.198 1.996-7.76 2.409-.85.624-1.109 1.326-1.545 4.18-.288 1.887-.563 4.246-.612 5.242-.08 1.614.022 1.843.932 2.111 1.247.368 4.432.108 8.781-.715zm-33.011-3.309c-.497-7.692-1.406-9.259-5.651-9.744-4.548-.52-6.527.56-10.352 5.649-2.153 2.864-2.351 4.22-.711 4.857 3.21 1.245 12.152 3.121 15.173 3.183l1.798.037-.257-3.982zm81.092-18.16c4.603-3.93 22.83-22.086 22.48-22.391-.853-.744-8.33-3.359-10.137-3.545-1.613-.167-2.447-.018-3.816.68-1.83.934-9.97 8.616-14.78 13.948l-2.8 3.104 1.39 3.296c.765 1.813 1.688 3.872 2.052 4.576.633 1.223 2.036 2.87 2.446 2.87.107 0 1.531-1.142 3.165-2.537zm-144.852-9.899c2.396-3.658 3.574-11.707 2.107-14.41-1.682-3.1-5.63-3.331-12.036-.702-2.078.853-3.778 1.668-3.778 1.811 0 .79 12 14.302 12.701 14.302.193 0 .645-.45 1.006-1zm178.933-34.021c1.153-2.592 4.83-13.484 5.205-15.418.514-2.648-1.087-2.966-7.154-1.42-5.595 1.424-6.775 2.543-8.33 7.894-.886 3.044-.482 4.088 2.603 6.74 2.773 2.384 5.755 4.552 6.261 4.552.203 0 .84-1.056 1.415-2.348zm-198.153-2.75c2.021-1.725 3.911-3.363 4.199-3.64.424-.41.249-1.383-.926-5.129-1.956-6.237-3.395-12.012-3.725-14.95-.369-3.278-.674-3.734-2.957-4.412-2.602-.773-10.632-2.08-10.932-1.78-.36.36.98 8.33 2.33 13.856 1.503 6.16 4.994 16.835 6.087 18.614 1.006 1.64.995 1.644 5.924-2.56zm-8.864-52.9c7.915-1.292 7.946-1.314 8.426-6.17.247-2.493 1.982-9.403 3.851-15.336l1.179-3.743-1.888-1.823c-2.568-2.48-7.049-6.007-7.631-6.007-1.592 0-6.658 16.081-8.74 27.741-.903 5.061-.996 6.158-.526 6.157.168 0 2.567-.368 5.33-.82zm212.048-14.9c.403-.484.36-1.202-.219-3.573-1.697-6.969-5.203-15.832-6.262-15.832-.791 0-6.94 4.8-8.198 6.4-1.079 1.371-1.053 2.264.178 6.163 1.434 4.539 2.552 5.43 8.339 6.651 4.379.924 5.525.96 6.162.192zm-183.6-35.544c2.194-2.195 2.812-3.674 2.545-6.093-.289-2.61-2.792-10.53-3.392-10.73-.91-.304-10.298 10.11-11.957 13.264-.268.51-.376 1.11-.239 1.33.698 1.13 7.58 3.617 10.088 3.647 1.205.014 1.814-.278 2.954-1.418zm159.707-.208c5.06-1.844 6.168-2.654 5.773-4.224-.398-1.587-3.823-5.532-10.867-12.518-5.644-5.598-14.022-12.662-14.475-12.206-.428.43-4.36 11.47-4.245 11.92.149.584 18.604 18.675 19.042 18.667.157-.003 2.304-.74 4.772-1.64zm-44.039-31.949c1.803-1.918 5.45-6.885 5.444-7.412-.01-.906-9.086-4.153-17.149-6.135-6.548-1.61-17.485-3.717-17.776-3.426-.204.204 1.258 10.928 1.67 12.244.16.515 2.346 1.196 8.874 2.767 15.95 3.837 17.068 3.953 18.937 1.962zm-55.851-2.909c.541-.253 1.318-.92 1.726-1.481 1.663-2.287 2.797-10.237 1.578-11.063-1.88-1.273-18.38 2.015-18.38 3.662 0 2.494 5.892 8.435 9.376 9.454 1.261.37 4.351.06 5.7-.572z" style="fill:#fff;stroke-width:.408421" transform="scale(.75)"/></svg>