<svg xmlns="http://www.w3.org/2000/svg" width="524" height="389.333" version="1.0" viewBox="0 0 393 292"><path d="M154.6 2.9c-1.6 1.7-5.1 3.8-7.8 4.7l-4.9 1.6.6 3.8c.8 4.7-.5 5.3-8.7 4.4-3.2-.4-5.8-.5-5.8-.2 0 .7-3.9 23-4.5 25.4-.3 1.6-1.8 2.4-6.2 3.4-3.2.7-6.3 1.4-6.9 1.7-.6.2-11.2-10.2-23.4-23.2L64.7.9 61.5 4c-1.7 1.6-5.2 3.7-7.8 4.6-2.6.9-4.7 2.1-4.7 2.7 0 1 4.8 17.5 16.4 56.8l1.4 4.6-4.7 5.3-4.7 5.3-14-5.2C35.6 75.3 28 73 26.3 73c-6.3 0-10.8 6.9-8.4 12.9.7 1.5 6.6 7.2 13.2 12.7 9.8 8.1 11.8 10.3 11.3 11.9-.3 1.1-1.7 6.4-3.2 11.7l-2.5 9.7-8.6 1.5c-4.7.8-11.7 2.1-15.6 2.7C3.9 137.6 0 140.8 0 146.5s3.9 8.9 12.5 10.4c24.4 4.1 24.5 4.1 25 7 .3 1.4 1.5 6 2.6 10.1 1.2 4.1 2.3 8.2 2.5 9 .3 1-3.9 5.1-11.5 11.4-6.6 5.5-12.5 11.2-13.2 12.7-2.4 6 2.1 12.9 8.4 12.9 1.7 0 9.2-2.3 16.7-5 7.5-2.8 14.1-5 14.6-4.9.5.1 2.8 2.2 5.1 4.8l4.3 4.8-9 30.4c-5 16.7-9 30.9-9 31.6 0 .6 2.1 1.8 4.7 2.7 2.6.9 6.1 3 7.8 4.6l3.2 3.1 22.2-23.6c12.3-12.9 22.6-23.5 22.9-23.5 1.7.1 12.5 2.9 12.9 3.4.5.4 1.6 6.2 4.8 24.5l.6 3.3 5.8-.6c7.5-.9 9.2-.2 8.5 3.4-.6 2.5-.3 2.9 4.2 4.4 2.7.9 6.2 3 7.9 4.6l3.1 3 6.9-7.2c3.8-4 11-11.5 15.9-16.7l9.1-9.3 2.4 3.1 2.3 3.1 3.8-3c2-1.6 5.8-3.8 8.3-4.9l4.6-2-1.4-3.5c-.8-2-1.5-4-1.5-4.5 0-.9 6.6.2 7.7 1.3.5.4 1.6 6.2 4.8 24.5l.6 3.3 5.7-.6c3.1-.3 7.4-.2 9.5.3 3.3.8 3.8.7 4.2-1.3.7-3.1 4.5-24.9 4.5-25.7 0-.3 1.7-.9 3.8-1.3 2.1-.3 7.6-1.6 12.1-3l8.2-2.3 9.2 10.8 9.1 10.8 3.7-3c2-1.5 5.7-3.7 8.2-4.8l4.6-2-2.1-5.3c-1.1-2.9-3.2-8.7-4.8-12.9l-2.7-7.5 9.1-9.1 9.1-9.1 11.5 4.4c6.3 2.3 12.3 4.3 13.2 4.3 1.2.1 2.1-1.2 2.9-3.9.7-2.2 1-4.2.8-4.3-.2-.2-7.6-2.9-16.4-6.1l-16-5.7-2.9 3.8c-3.8 4.8-12.8 13.8-18.4 18.3l-4.3 3.5 5.9 16.2c3.3 9 5.6 16 5.1 15.7-.7-.4-19.4-22.4-21.5-25.3-.2-.2-5.2 1.2-11.1 3.2-5.9 2-13.8 3.9-17.5 4.3-3.8.4-6.8 1-6.8 1.3 0 2-6 33.4-6.4 33.9-.3.3-.6.1-.6-.4 0-1.1-4.7-28.8-5.5-31.9-.4-1.7-1.8-2.3-8.1-3.4-4.2-.7-9.4-1.9-11.6-2.7-2.2-.8-4.3-1.4-4.7-1.4-.4 0-11.4 11.4-24.6 25.4-13.2 14-24.1 25.1-24.3 24.7-.1-.4 4-15.2 9.3-32.9 5.2-17.7 9.5-33 9.5-33.9 0-1-.8-2.3-1.9-3-1-.6-4.5-4.5-7.8-8.6l-6-7.4-10.4 3.7c-5.7 2.1-13.4 4.9-17.1 6.4-3.8 1.4-6.8 2.3-6.8 2.1 0-.2 6.3-5.6 13.9-12l13.9-11.7-2.3-5.6c-2.7-6.7-5.1-15.6-6-22.9l-.7-5.1-8.6-1.6c-4.8-.8-12.9-2.3-18-3.2-5.1-.9-9.1-1.8-9-1.9.3-.3 34-6.5 35.1-6.5.3 0 .8-2.6 1.2-5.7.8-6.6 4.8-21.1 7-25.3l1.4-2.7L134 93.5c-7.7-6.4-14-11.8-14-12 0-.2 3.7 1 8.3 2.7 4.5 1.7 12.2 4.4 17 6.2l8.8 3.1 3.2-4c1.8-2.2 5.3-6.3 7.9-9.1 2.7-2.8 4.8-5.6 4.8-6.3 0-.6-4.3-15.6-9.5-33.3-5.3-17.7-9.4-32.5-9.3-32.9.3-.7 13.5 13 40.8 42.1l7.5 8 6.1-1.9c3.4-1.1 8.9-2.3 12.3-2.7 5.1-.5 6.2-1 6.6-2.8.7-3.1 5.5-30.9 5.5-32 0-.5.3-.7.6-.4.3.3 1.8 7.8 3.4 16.7 1.6 8.9 3.1 16.5 3.4 17 .3.4 3.5 1.1 7.1 1.4 3.6.4 11.3 2.2 17.1 4.2l10.5 3.5 2.7-3.2c1.5-1.8 6.6-7.9 11.4-13.5l8.7-10.2-3.7-3-3.8-3-8.8 10.6c-7.2 8.5-9.2 10.4-11 10-1.1-.3-5.7-1.4-10-2.6-4.4-1.2-9-2.1-10.3-2.1-1.2 0-2.3-.4-2.3-.8 0-.8-3.8-22.4-4.5-25.8-.4-2-.9-2.1-4.2-1.3-2.1.5-6.4.6-9.5.3l-5.7-.6-.6 3.3c-3.1 17.5-4.3 24-4.6 24.3-.2.2-1.9.7-3.6 1.1-3.6.7-4.1-.1-2.2-3.6.9-1.7.5-2.2-2.5-3.4-5-2.1-5.5-1.9-7.2 2.1-1.1 2.7-1.8 3.4-2.7 2.5-.8-.8-.4-1.8 1.7-4l2.7-2.8-3.9-3.2-4-3.1-1.9 2.6-2 2.6-9.9-10.3C175 18.2 167.6 10.5 164 6.7l-6.5-6.8-2.9 3zM81 32c11.1 11.8 21.4 22.7 22.9 24.2l2.6 2.8 6.1-2c3.4-1 8.9-2.2 12.3-2.6 5.1-.5 6.2-1 6.6-2.8.7-3.1 5.5-30.9 5.5-32 0-.5.3-.7.6-.4.3.3 1.8 7.9 3.4 16.9 1.7 8.9 3.3 16.6 3.7 17 .5.4 2.8.9 5.3 1.1 4.4.3 4.5.4 6.1 5.3.9 2.7 1.5 5.1 1.4 5.3-.2.2-2.7-.1-5.6-.6-3-.6-5.5-.9-5.7-.8-.1.2.1 2.3.4 4.8.6 4.5.7 4.6 5 5.3 5.2.7 5.5 2.1 1.5 5.9l-2.9 2.8-12.3-4.5c-6.7-2.4-11.7-4.6-11.1-4.8.6-.2 1.4-2.3 1.8-4.7.8-4.8.3-5-8.6-3.1-5.4 1.2-5.7 1.5-3.6 4.4 1.2 1.7 1 2.1-1.7 4-3.9 2.5-5.4 7.3-3.8 11.3.7 1.5 6.5 7.2 13.2 12.8 9.8 8.1 11.8 10.3 11.3 11.9-.3 1.1-1.7 6.4-3.2 11.7l-2.5 9.7-8.6 1.5c-4.7.8-11.7 2.1-15.6 2.7-8.6 1.5-12.5 4.7-12.5 10.4s3.9 8.9 12.5 10.4c24.4 4.1 24.5 4.1 25 7 .3 1.4 1.5 6 2.6 10.1 1.2 4.1 2.3 8.2 2.5 9 .3 1-3.9 5.1-11.5 11.4-12.5 10.4-14.7 13.4-13.6 18.5.7 3.4 4.7 7.1 7.7 7.1 1.8 0 1.8.2-.6 3.1-1.4 1.7-2.4 3.4-2.1 3.8.5 1 12.5 3.4 13.2 2.8.2-.3.1-2.6-.2-5.1-.6-3.6-1.1-4.6-2.9-4.8-1.9-.3 23-9.9 25-9.7.5 0 2.6 2 4.7 4.4l3.7 4.2-6 1.2c-5.1 1-6 1.5-6 3.4 0 1.2-.3 3.3-.7 4.6-.6 2.4-.6 2.4 5.1 1.7 5.2-.6 5.7-.5 5.2 1.1-.3 1-.8 3-1.2 4.6-.8 3.3-3.1 4.7-7.8 4.7-2 0-3.6.3-3.6.7 0 2.1-6 33.6-6.4 34.1-.3.3-.6.1-.6-.4 0-1.1-4.7-28.8-5.5-31.9-.4-1.7-1.8-2.3-8.1-3.4-4.2-.7-9.4-1.9-11.6-2.7-2.2-.8-4.3-1.4-4.7-1.4-.4 0-11.4 11.4-24.6 25.4-13.2 14-24.1 25.1-24.3 24.7-.1-.4 4-15.2 9.3-32.9 5.2-17.7 9.5-33 9.5-33.9 0-1-.8-2.3-1.9-3-1-.6-4.5-4.5-7.8-8.6l-6-7.4-10.4 3.7c-5.7 2.1-13.4 4.9-17.1 6.4-3.8 1.4-6.8 2.3-6.8 2.1 0-.2 6.3-5.6 13.9-12l13.9-11.7-2.3-5.6c-2.7-6.7-5.1-15.6-6-23-.4-2.8-.9-5.2-1.2-5.2-1.1 0-34.8-6.2-35.1-6.5-.1-.1 3.9-1 9-1.9 5.1-.9 13.2-2.4 17.9-3.2l8.7-1.6.7-5.6c.8-6.5 4.8-21 7-25.2l1.4-2.7L41 94.5c-7.7-6.4-14-11.8-14-12 0-.2 3.7 1 8.3 2.7 4.5 1.7 12.2 4.4 17 6.2l8.8 3.1 3.2-4c1.8-2.2 5.3-6.3 7.9-9.1 2.7-2.8 4.8-5.6 4.8-6.3 0-.6-4.3-15.6-9.5-33.3C62.3 24.2 58 9.2 58 8.6c0-.5.6-.4 1.4.4.7.8 10.5 11.2 21.6 23zm119.7 222 1.4 3.5-3.2-3.2c-2.8-2.8-3.1-3.4-1.9-4.9 1.1-1.3 1.5-1.3 1.8-.3.3.8 1.1 3 1.9 4.9z"/><path d="M75.7 92.1c-2.5 2.9-4.4 5.6-4.1 6 .3.5 2.3 1.4 4.4 2 3.6 1.1 4.1 1 5.8-1.1 1.7-2.1 1.8-2.7.5-6.8-.7-2.5-1.5-4.7-1.7-4.9-.2-.2-2.4 2-4.9 4.8zM59.6 120.7c-1.3 4.3-2.7 10-3.1 12.7l-.8 4.8 4.4-.7c5.6-.9 5.9-1.1 5.9-4 0-1.3.9-5.1 1.9-8.5l1.9-6.2-3.1-2.9c-1.8-1.5-3.5-2.9-3.9-2.9-.4 0-1.8 3.5-3.2 7.7zM56.5 159.7c.9 6 5.3 20.3 6.3 20.3.4 0 2.1-1.4 3.9-3l3.2-2.8-2-6.4c-1-3.5-1.9-7.3-1.9-8.6 0-2.4-.5-2.7-6.4-3.7l-3.8-.6.7 4.8zM74.2 193.5l-3.4 1.5 4.2 5c2.3 2.7 4.6 5.2 5 5.5.5.3 1.5-1.6 2.3-4.2 2.3-7.8-1-10.9-8.1-7.8zM294.6 35.8c-.3.5-3 7.8-6.1 16.3l-5.6 15.4 3.3 2.5c4.3 3.2 17.9 16.7 20.4 20.3l2 2.8 15.4-5.6c8.5-3.1 15.9-6 16.4-6.5 1.2-1.2-1.3-8-3-8-.7 0-6.1 1.8-11.9 4-5.8 2.1-11.1 4-11.8 4.2-.7.1-5.3-3.8-10.3-8.8l-9-9.1 4.7-12.7 4.7-12.8-3.4-1.4c-3.8-1.6-5.1-1.7-5.8-.6zM239.6 66.8c.3 2.6.7 4.7.8 4.7 0 0 4.3 1.1 9.3 2.3 5.1 1.3 9.7 2.1 10.2 1.7.6-.3 1.9-1.9 3.1-3.5l2.1-2.9-3.8-1.6c-3.5-1.5-11.2-3.5-19.1-4.9l-3.3-.6.7 4.8zM212.3 64.2c-2.4.5-4.3 1.3-4.3 1.8 0 2.2 5.3 7 7.8 7 4 0 5-1.1 5.8-5.8.6-4.1.6-4.2-2.2-4.1-1.6.1-4.8.5-7.1 1.1zM277.8 81.5l-1.7 4.4 7.1 6.9 7.2 7 4.3-1.5c3.6-1.3 4.1-1.7 3.3-3.3-1.3-2.4-11.8-13-15.6-15.7l-3-2.2-1.6 4.4zM328.3 92.7c-7 5.8-12.9 10.7-13 10.8-.2.1.8 2.9 2.2 6.2 1.3 3.3 3.2 9 4.1 12.6 1 4.3 2.2 6.8 3.3 7.1 3.1.9 64.7 15.6 65.4 15.6.8 0 3-8 2.4-8.6-.2-.3-14.1-3.8-30.8-7.8l-30.3-7.3-2.3-6.8c-1.3-3.8-2.3-7.2-2.3-7.6 0-.4 4.7-4.7 10.5-9.4l10.4-8.7-2.7-3.4c-1.5-1.9-3-3.4-3.4-3.4-.3 0-6.4 4.8-13.5 10.7zM168.7 91.1c-2.5 2.9-4.4 5.6-4.1 6 .3.5 2.3 1.4 4.4 2 3.6 1.1 4.1 1 5.8-1.1 1.7-2.1 1.8-2.7.5-6.8-.7-2.5-1.5-4.7-1.7-4.9-.2-.2-2.4 2-4.9 4.8zM303.3 113.8c-3.2 2.6-3.3 2.8-2.1 6.4 1.1 3.8 1.6 4.1 7.6 5.3 2.4.5 3.2.3 3.2-.7 0-2.2-4.1-13.8-4.8-13.8-.4 0-2.2 1.3-3.9 2.8zM152.6 119.7c-1.3 4.3-2.7 10-3.1 12.7l-.8 4.8 4.4-.7c5.6-.9 5.9-1.1 5.9-4 0-1.3.9-5.1 1.9-8.5l1.9-6.2-3.1-2.9c-1.8-1.5-3.5-2.9-3.9-2.9-.4 0-1.8 3.5-3.2 7.7zM358 153.5c-16.8 4.1-31.5 7.7-32.6 8-1.7.4-2.5 1.9-3.8 7-.9 3.6-2.7 9-4.1 12.1-1.4 3.1-2.2 6-1.9 6.5.8 1.4 25.4 21.9 26.2 21.9.4 0 1.9-1.5 3.4-3.4l2.7-3.4-10.4-8.7c-5.8-4.7-10.5-9-10.5-9.4 0-.4 1-3.8 2.3-7.5l2.3-6.9 30.3-7.3c16.7-4 30.5-7.5 30.8-7.8.9-.8-1.8-8.6-3-8.5-.7 0-14.9 3.4-31.7 7.4zM149.5 158.7c.9 6 5.3 20.3 6.3 20.3.4 0 2.1-1.4 3.9-3l3.2-2.8-2-6.4c-1-3.5-1.9-7.3-1.9-8.6 0-2.4-.5-2.7-6.4-3.7l-3.8-.6.7 4.8zM305.8 166.2c-3 .8-3.9 1.6-4.9 4.6-1.1 3.4-1 3.6 2.2 6.3 1.9 1.6 3.7 2.9 4 2.9.6 0 4.9-11.9 4.9-13.8 0-1.4-1-1.4-6.2 0zM167.2 192.5l-3.4 1.5 4.2 5c2.3 2.7 4.6 5.2 5 5.5.5.3 1.5-1.6 2.3-4.2 2.3-7.8-1-10.9-8.1-7.8zM282.8 198.2l-6.8 6.9 1.6 3.9c.9 2.2 2 4 2.6 4 .5 0 5-4.1 10.1-9.1l9.2-9.2-3-1.2c-6.3-2.6-6.7-2.5-13.7 4.7zM254.9 215.5c-2 .7-6.2 1.8-9.3 2.5-4.7 1-5.6 1.5-5.6 3.3 0 1.2-.3 3.2-.6 4.4-.6 2-.3 2.3 2.3 2.3 3.7 0 17.4-3.4 20.8-5.2l2.6-1.4-3.3-3.6c-3.2-3.6-3.4-3.6-6.9-2.3zM210.9 220.8c-1.6 1.8-2.7 3.7-2.4 4.1.5 1 12.5 3.5 13.2 2.8.2-.3.1-2.5-.2-5-.7-4.2-.9-4.5-4.2-4.9-2.9-.4-3.9.1-6.4 3z"/><path d="m294.268 34.385 1.161 1.08M340.238 80.884l1.363 1.551M389.988 144.71l-.367 1.666" style="fill:none;stroke:#000;stroke-width:.75px;stroke-linecap:butt;stroke-linejoin:miter;stroke-opacity:1"/><path d="m341.5 208.4-.978 1.445" style="fill:red;stroke:#000;stroke-width:.75px;stroke-linecap:butt;stroke-linejoin:miter;stroke-opacity:1"/><path d="M205.276 364.96c1.732-6.195 5.878-20.593 9.215-31.993 9.296-31.756 12.71-44.375 12.313-45.52-.198-.574-2.185-2.937-4.414-5.25-2.23-2.313-6.685-7.45-9.902-11.415-3.216-3.966-6.038-7.418-6.27-7.673-.379-.415-10.105 2.96-35.094 12.176-4.576 1.687-8.522 2.987-8.768 2.887-.468-.188 4.624-4.632 23.546-20.552 6.196-5.212 11.266-9.7 11.266-9.973 0-.272-1.199-3.56-2.663-7.306-4.373-11.184-7.543-23.518-8.511-33.113-.226-2.24-.638-4.213-.916-4.384-.562-.348-5.64-1.31-28.466-5.398-8.592-1.538-15.973-2.989-16.402-3.224-.704-.385 18.031-4.1 36.83-7.303 3.966-.676 7.419-1.434 7.674-1.686.256-.251 1.007-3.682 1.67-7.623 2.074-12.34 6.225-27.156 9.365-33.432.78-1.559 1.417-3.18 1.415-3.605-.002-.424-7.98-7.506-17.727-15.739-9.748-8.232-17.628-15.063-17.51-15.18.116-.117 7.755 2.525 16.975 5.87 9.22 3.347 18.987 6.846 21.705 7.778l4.94 1.693 4.071-4.913c2.239-2.703 6.252-7.347 8.92-10.321 2.667-2.974 5.686-6.566 6.71-7.983l1.862-2.576-1.477-5.535c-.812-3.045-5.37-18.919-10.13-35.276-11.564-39.747-13.036-45.064-12.704-45.874.353-.862 10.367 9.335 39.89 40.616 12.71 13.466 23.3 24.484 23.536 24.484.235 0 2.307-.64 4.603-1.42 5.51-1.874 13.568-3.738 20.918-4.839 3.409-.51 6.342-1.276 6.856-1.79.83-.831 6.6-31.06 7.668-40.18.223-1.908.61-3.595.861-3.75.25-.155 1.451 4.92 2.669 11.279 4.443 23.213 6.3 32.458 6.574 32.732.154.154 2.934.683 6.177 1.175 8.548 1.297 21.417 4.532 31.546 7.929l8.827 2.96L377.2 64.86c7.853-9.27 14.363-16.596 14.468-16.281.105.314-.923 3.53-2.283 7.144-1.361 3.615-4.588 12.386-7.171 19.49-2.583 7.105-4.873 13.362-5.088 13.904-.287.725.616 1.756 3.404 3.884 5.096 3.892 23.287 21.8 27.094 26.674a492.856 492.856 0 0 0 3.44 4.371c.372.447 22.843-7.499 36-12.729 3.444-1.369 6.487-2.264 6.762-1.99.275.275-1.867 2.357-4.76 4.628-9.43 7.4-28.993 23.815-28.993 24.328 0 .276 1.216 3.704 2.703 7.619 1.487 3.915 3.808 10.88 5.157 15.477 1.35 4.597 2.866 8.988 3.37 9.758.521.794 1.993 1.69 3.405 2.071 4.333 1.171 45.621 11.096 64.674 15.546 20.977 4.9 20.21 4.688 19.477 5.386-.303.289-10.42 2.852-22.481 5.696-12.062 2.844-31.374 7.534-42.916 10.42-18.575 4.647-21.112 5.422-22.083 6.752-.603.826-2.169 5.058-3.48 9.405-1.31 4.346-3.472 10.638-4.804 13.981-3.171 7.962-3.14 8.828.433 12.14 3.699 3.43 16.13 13.923 24.28 20.497 3.523 2.842 6.27 5.302 6.105 5.467-.165.166-1.966-.325-4.002-1.089-12.106-4.545-37.58-13.533-38.3-13.513-.468.013-2.338 1.953-4.155 4.312-4.396 5.704-16.94 18.31-24.033 24.151-3.14 2.586-5.918 4.893-6.175 5.127-.258.234 1.453 5.677 3.801 12.096 5.636 15.407 10.25 28.927 9.968 29.21-.194.193-19.154-21.857-25.694-29.883l-2.179-2.673-6.533 1.948a51141.36 51141.36 0 0 0-14.493 4.326c-4.377 1.308-12.053 3.058-17.056 3.89-5.003.83-9.147 1.586-9.208 1.679-.061.092-.7 3.682-1.42 7.978-2.476 14.763-6.852 36.336-7.314 36.05-.254-.156-.652-1.843-.884-3.748-.495-4.068-6.194-36.616-6.684-38.176-.591-1.88-2.753-2.707-11.963-4.572-4.959-1.004-11.694-2.65-14.966-3.657-5.708-1.757-6-1.789-7.136-.774-.652.582-9.05 9.305-18.665 19.383-29.845 31.29-43.77 45.663-44.24 45.663-.25 0 .963-5.07 2.694-11.265zm90.614-61.657c.425-1.106-.693-9.892-1.435-11.278-1.194-2.23-7.932-2.717-10.574-.762-2.217 1.64-6.196 6.878-6.2 8.161-.004 1.18 2.092 1.956 9.495 3.517 6.402 1.35 8.305 1.43 8.714.362zm41.57-1.868c4.626-1.174 10.288-3.021 12.582-4.105l4.17-1.97-4.397-4.628c-4.842-5.098-5.601-5.37-10.327-3.7-1.446.51-5.873 1.745-9.839 2.743-8.658 2.178-9.908 2.871-9.928 5.504-.008 1.066-.29 3.133-.627 4.593-.98 4.253-.69 4.488 5.013 4.065 2.718-.202 8.727-1.328 13.353-2.502zm41.233-21.145c6.008-5.44 20.952-20.21 20.952-20.709 0-.221-2.362-1.257-5.25-2.301-7.703-2.788-7.715-2.783-17.998 7.349-4.727 4.658-8.596 8.719-8.596 9.025 0 1.466 4.826 10.646 5.596 10.646.477 0 2.86-1.805 5.296-4.01zm-146.438-8.757c.477-.744 1.325-2.946 1.885-4.895 2.04-7.113-.001-11.778-5.156-11.778-2.354 0-9.89 2.637-10.539 3.688-.47.76 11.348 14.336 12.48 14.336.254 0 .853-.608 1.33-1.351zm179.561-35.639c2.246-5.444 4.766-14.119 4.387-15.105-.164-.427-1.011-.777-1.882-.777-2.29 0-8.73 1.737-10.376 2.799-1.911 1.232-3.814 5.722-3.584 8.46.16 1.91.754 2.69 4.35 5.705 2.29 1.92 4.439 3.4 4.775 3.288.336-.112 1.385-2.079 2.33-4.37zm-200.59.692a324.771 324.771 0 0 0 4.422-3.755l1.958-1.704-1.826-6.008c-2.196-7.221-3.592-13.07-3.592-15.044 0-.863-.576-1.828-1.42-2.382-1.502-.984-11.697-3.003-12.27-2.43-.834.835 1.981 14.464 4.785 23.16 2.547 7.901 3.573 10.215 4.53 10.215.521 0 2.056-.924 3.412-2.052zm-5.947-54.474c5.94-.96 6.652-1.537 7.098-5.765.203-1.925 1.421-7.09 2.707-11.48l2.337-7.98-3.335-3.048c-1.834-1.677-3.99-3.478-4.792-4.003-1.354-.887-1.516-.875-2.285.178-1.884 2.576-5.547 14.324-7.384 23.679-2.095 10.672-2.077 9.809-.198 9.43.905-.183 3.539-.638 5.852-1.011zm210.89-14.974c.976-1.58-5.198-19.225-6.727-19.225-1.408 0-8.586 6.061-8.964 7.57-.467 1.858 1.528 7.802 3.12 9.297 2.323 2.183 11.603 3.924 12.57 2.358zM231.4 132.9c1.661-.889 3.62-4.41 3.62-6.506 0-2.602-2.911-11.526-3.76-11.526-1.612 0-11.862 12.226-11.862 14.149 0 1.117 1.186 1.855 5.107 3.176 4.167 1.404 5.364 1.527 6.895.707zm165.166-2.971c2.271-1.216 1.548-3.19-3.124-8.53-5.12-5.851-11.715-12.085-17.174-16.232l-3.85-2.925-2.339 6.163-2.338 6.163 9.604 9.44 9.603 9.44 4.17-1.418c2.294-.78 4.746-1.725 5.448-2.101zm-48.233-30.502c2.518-2.717 5.64-7.325 5.163-7.62-1.673-1.034-10.41-4.066-15.435-5.356-7.967-2.045-18.95-4.204-19.35-3.804-.176.176.028 3.051.454 6.39.554 4.352 1.042 6.21 1.723 6.564.88.456 17.069 4.427 20.477 5.022 3.94.688 5.465.426 6.968-1.196zm-55.062-3.664c1.31-1.31 1.845-2.652 2.422-6.072 1.03-6.106.668-6.426-6.224-5.509-7.565 1.007-12.048 2.49-12.276 4.062-.214 1.476 2.644 4.97 6.133 7.5 3.311 2.402 7.554 2.41 9.945.019z" style="fill:#fff;stroke-width:.600823" transform="scale(.75)"/><path d="M78.594 375.76c.223-.9 2.67-9.478 5.439-19.06 14.946-51.728 18.805-65.48 18.805-67.013 0-1.28-.983-2.687-4.055-5.799-2.23-2.26-6.971-7.678-10.534-12.04-6.288-7.697-6.527-7.913-8.111-7.303-.898.345-6.364 2.335-12.147 4.422a1629.634 1629.634 0 0 0-19.227 7.089c-4.791 1.812-9.387 3.476-10.214 3.697l-1.502.4 1.575-1.38c.866-.76 8.29-7.06 16.497-14s15.694-13.293 16.637-14.119l1.715-1.502-2.693-6.7c-3.698-9.202-6.167-18.093-7.982-28.749-.844-4.956-1.72-9.211-1.947-9.454-.227-.243-5-1.265-10.605-2.27-14.634-2.625-32.223-5.99-33.625-6.435-1.503-.476.277-.85 25.356-5.337l19.347-3.462.382-3.344c1.211-10.607 5.69-27.835 9.608-36.95 1.255-2.92 1.842-5.016 1.517-5.408-.293-.353-8.374-7.264-17.958-15.36-9.584-8.094-17.354-14.79-17.266-14.878.088-.088 9.462 3.193 20.83 7.29 11.369 4.098 21.249 7.625 21.956 7.84 1.023.308 1.697-.137 3.304-2.183 1.11-1.414 4.858-5.788 8.328-9.72 9.042-10.246 10.8-12.52 10.808-13.973.004-.71-4.07-15.31-9.05-32.444C79.692 19.15 78.16 13.706 78.34 12.768c.134-.695 45.947 47.105 60.329 62.945l3.085 3.398 5.026-1.614c7.09-2.278 11.344-3.298 18.244-4.375 8.848-1.382 9.263-1.5 9.977-2.833.634-1.185 6.599-33.883 7.464-40.916.236-1.915.564-3.346.73-3.18.167.167 2.259 10.199 4.65 22.294 2.39 12.095 4.594 22.238 4.895 22.54.302.301 2.706.844 5.342 1.205 7.8 1.068 8.107 1.347 10.385 9.44l1.225 4.356-1.606-.02c-.883-.012-3.769-.412-6.412-.89-7.653-1.383-7.149-1.688-6.672 4.033.573 6.868 1.138 7.823 5.176 8.75 6.209 1.427 6.895 1.69 7.093 2.717.215 1.115-6.181 8.242-7.396 8.242-.878 0-23.548-8.395-27.492-10.18l-2.855-1.293.927-1.79c.509-.986 1.086-3.513 1.283-5.616.324-3.47.24-3.886-.912-4.503-2.2-1.177-16.704 1.698-17.374 3.444-.194.505.235 1.94.953 3.187.718 1.248 1.306 2.528 1.306 2.844 0 .317-1.37 1.56-3.045 2.763-5.055 3.632-7.212 10.007-5.098 15.067 1.093 2.615 6.86 8.268 19.67 19.282 5.515 4.74 10.748 9.565 11.63 10.72l1.601 2.1-3.361 12.48c-1.849 6.863-3.534 13.363-3.745 14.443-.21 1.081-.583 2.09-.828 2.24-.244.151-8.694 1.734-18.779 3.517-22.517 3.982-25.963 5.268-28.751 10.73-1.353 2.651-1.514 8.023-.326 10.867 1.136 2.718 4.5 5.482 8.486 6.974 1.863.697 10.2 2.477 18.525 3.955 8.325 1.477 16.168 2.98 17.428 3.339 2.466.701 4.618 2.47 4.618 3.797 0 .45 1.487 6.252 3.304 12.891 1.818 6.64 3.305 12.36 3.305 12.713 0 1.188-5.058 6.147-14.72 14.433-15.398 13.203-18.926 17.403-18.926 22.53 0 5.593 5.723 12.317 10.484 12.317.843 0 1.532.21 1.532.467 0 .256-1.094 1.923-2.432 3.703-3.559 4.736-3.235 5.452 3.2 7.067 2.9.728 6.888 1.507 8.862 1.73l3.588.406v-3.052c0-4.36-1.121-8.998-2.482-10.266-1.142-1.063-1.031-1.146 4.74-3.541 7.53-3.125 19.307-7.509 23.575-8.775l3.303-.98 4.958 5.268c2.728 2.898 4.96 5.428 4.96 5.623 0 .194-2.907.957-6.46 1.695-3.552.738-6.892 1.661-7.422 2.051-1.126.83-3.037 11.091-2.165 11.63.301.186 3.494.148 7.096-.086 4.608-.298 6.547-.229 6.547.235 0 1.412-2.401 9.23-3.09 10.06-1.408 1.696-4.304 2.707-8.715 3.04-2.45.186-4.555.5-4.677.7-.122.2-1.197 5.801-2.389 12.449-1.191 6.648-3.11 16.765-4.265 22.482-1.154 5.718-2.118 10.553-2.143 10.745-.024.192-1.473-8.033-3.22-18.277-4.232-24.808-4.341-25.286-6.063-26.64-.91-.716-4.587-1.738-10.023-2.786-4.723-.91-11.049-2.434-14.057-3.388-3.008-.953-5.986-1.733-6.618-1.733-1.254 0-9.055 7.73-28.495 28.239-22.368 23.596-34.963 36.576-35.805 36.899-.639.245-.739-.062-.429-1.317zm30.301-104.348c1.88-4.25 2.515-8.76 1.618-11.49-.965-2.934-2.89-4.007-6.512-3.63-2.947.309-9.574 2.965-9.574 3.839 0 1.002 11.504 13.955 12.395 13.955.49 0 1.423-1.203 2.073-2.674zm-20.188-34.727c5.28-4.335 5.113-3.048 1.891-14.522-1.198-4.27-2.18-8.612-2.18-9.649 0-3.181-1.008-3.864-7.701-5.213-3.4-.685-6.296-1.13-6.438-.987-.48.48 1.384 10.426 3.304 17.618 2.134 8 5.244 16.508 6.033 16.508.285 0 2.576-1.69 5.091-3.755zm-6.787-53.356c5.403-.912 6.01-1.456 6.528-5.845.237-2.005 1.45-7.199 2.696-11.542l2.266-7.898-3.193-2.812c-3.34-2.943-6.021-4.905-6.711-4.911-.594-.006-3.76 8.456-5.506 14.716-1.46 5.231-2.848 11.605-3.715 17.052l-.418 2.633 2.018-.357c1.11-.197 3.826-.663 6.035-1.036zm27.157-51.039c1.324-1.465 2.173-3.016 2.173-3.969 0-2.173-2.916-11.525-3.756-12.044-1.131-.7-12.466 12.303-12.466 14.3 0 .623 3.242 2.308 6.308 3.278 4.15 1.312 5.364 1.067 7.741-1.565z" style="fill:#fff;stroke-width:.600823" transform="scale(.75)"/><path d="M265.746 339.414c-3.379-3.445-4.073-4.488-3.699-5.56.312-.896 1.935-2.618 2.326-2.468.176.068.638.969 1.025 2.002a305.666 305.666 0 0 0 2.158 5.475c.8 1.978 1.422 3.627 1.384 3.666-.039.038-1.476-1.363-3.194-3.115z" style="fill:#fff;stroke-width:.212423" transform="scale(.75)"/></svg>