<svg xmlns="http://www.w3.org/2000/svg" width="381.333" height="385.333" version="1.0" viewBox="0 0 286 289"><path d="M24 144v120h240V24H24v120zm70.6-82.3c-.2.2-2.6-.5-5.5-1.6L84 58v49.6l25.3 12.2c13.8 6.7 25.5 12.2 26 12.2.4 0 .7-15.3.7-34V64l-5.2 2c-2.8 1.1-5.4 1.8-5.6 1.6-.2-.3 3.8-5.4 8.9-11.5 5.1-6.1 9.6-10.8 9.9-10.4 7.3 8.3 18 21.6 17.7 22-.3.2-2.2-.3-4.2-1.1-6.9-2.9-6.5-5-6.5 31.9 0 18.4.3 33.5.6 33.5s12-5.5 26-12.2l25.4-12.2V83.3c0-26.8.3-25.6-6.5-22.7-2 .8-3.9 1.3-4.2 1.1-.6-.6 17.8-22.3 18.6-21.9 1.3.8 18.3 21.3 17.9 21.7-.2.3-2.8-.4-5.6-1.5l-5.2-2v59.7l-33.2 16.1-33.3 16-.3 53.1-.2 53.1h-15l-.2-53-.3-53.1-32-15.4C85.9 126 70.7 118.6 69.8 118c-1.7-.9-1.8-3.5-1.8-30 0-19.3-.3-29-1-29-.6 0-2.7.7-4.7 1.5-1.9.8-4 1.5-4.5 1.5s3.5-5.2 8.7-11.5L76.2 39l9.4 11.2c5.2 6.1 9.2 11.3 9 11.5z"/><path d="M181.386 293.457c-.044-26.175-.238-58.04-.431-70.812l-.353-23.22-17.254-8.284c-54.735-26.278-70.064-33.894-70.96-35.257-.819-1.243-.977-5.517-1.32-35.657-.384-33.773-.67-41.133-1.623-41.722-.267-.165-2.964.597-5.994 1.694s-5.509 1.789-5.509 1.538c0-.91 22.448-28.256 23.556-28.696.22-.087 4.665 4.96 9.88 11.215 12.866 15.433 13.944 16.809 13.514 17.24-.302.301-5.54-1.505-12.016-4.144-.958-.39-1.003 1.319-.862 33.091l.148 33.504 20.705 9.97c31.935 15.38 46.202 22.071 47.062 22.071.587 0 .882-1.428 1.158-5.607.384-5.796.54-85.263.168-85.263-.115 0-2.994 1.046-6.398 2.325-3.404 1.278-6.445 2.239-6.759 2.134-.945-.315 15.254-20.08 21.088-25.73l2.664-2.58 2.428 2.826c4.857 5.656 16.854 20.385 18.71 22.972 2.229 3.105 1.806 3.264-3.232 1.217-4.008-1.63-5.99-1.806-6.972-.624-1.318 1.589-1.745 11.33-1.755 40.072-.012 34.816.406 48.258 1.5 48.258.76 0 21.644-9.79 52.12-24.434l16.535-7.944-.034-23.638c-.038-26.686-.544-38.935-1.665-40.285-1.042-1.256-2.567-1.127-7.373.622-2.3.838-4.338 1.368-4.527 1.179-.576-.576 12.914-17.039 19.82-24.189l3.816-3.952 1.946 2.227c3.839 4.391 15.476 18.407 18.521 22.306 3.063 3.921 3.083 3.97 1.398 3.548-.94-.235-4.073-1.312-6.964-2.394-2.89-1.082-5.414-1.967-5.607-1.967-.194 0-.352 17.944-.352 39.875v39.876l-26.887 13.012a18387.063 18387.063 0 0 1-44.14 21.29l-17.254 8.278-.35 41.638c-.192 22.9-.386 54.772-.431 70.825l-.082 29.188h-19.554z" style="fill:#fff;stroke-width:.575124" transform="scale(.75)"/></svg>