<svg xmlns="http://www.w3.org/2000/svg" width="317" height="317" version="1.0" viewBox="0 0 238 238"><path d="M61 61 4 118l18 19c53 54 96 96 97 96l58-57 58-58-58-57-58-58-58 58zm19 6c6 8 6 8-1 5-2 0-2 1-2 17v17l18 8 18 9V99c0-23 0-23-2-23l-4 2c-2 0 0-2 4-8l8-7 7 7 5 8-3-1-4-1v24l1 23 17-8 18-9V72h-2l-5 2 12-15 8 7 5 8-5-2h-2v41l-24 11-23 12v74h-11v-75l-23-11-23-11-1-20V72h-2l-5 2 3-6c9-10 9-10 11-9 0 1 3 5 7 8z"/><path d="M151 248v-50l-1-18-30-14-31-15v-5a498 498 0 0 1-2-50l-4 1-4 1c0-2 15-19 16-20l17 20-4-1-3-1c-2 0-2 1-3 24v21l3 2a2758 2758 0 0 1 45 21 427 427 0 0 0 0-62h-4l-4 1 13-16 3-3 2 2 14 17-4-1-4-1-1 22 1 31v10l19-9 23-11 5-3V96l-4 1h-4l11-15 4-4 1 1c3 2 16 18 15 18h-4l-4-1-1 27v28l-12 6-31 14-18 9-1 50v50h-14z" style="fill:#fff;stroke-width:.473632" transform="scale(.75)"/></svg>