<svg xmlns="http://www.w3.org/2000/svg" width="317.333" height="317.333" version="1.0" viewBox="0 0 238 238"><path d="M61 60.5 3.5 118 22 136.7c53.4 54.2 95.6 96.3 96.5 96.3.6 0 26.9-25.9 58.5-57.5l57.5-57.5L177 60.5C145.4 28.9 119.3 3 119 3c-.3 0-26.4 25.9-58 57.5zm18.6 6.9c6.1 7.2 6.1 7.1-.8 4.9-1.7-.5-1.8.7-1.8 16.5v17.1l17.6 8.5c9.7 4.7 17.8 8.6 18 8.6.2 0 .4-10.6.4-23.6 0-23.2 0-23.6-2-23-1.1.3-3 .9-4.2 1.3-1.5.4-.2-1.7 4.7-7.6 3.8-4.5 7.1-7.8 7.5-7.4.3.5 3.3 3.8 6.5 7.6 3.2 3.7 5.6 7 5.3 7.3-.3.2-1.8 0-3.3-.6-1.5-.6-2.9-.9-3.2-.7-.2.2-.2 10.8-.1 23.6l.3 23.1 17.5-8.5 17.5-8.6.3-17 .2-17.1-2.4.6c-1.3.3-3.2.9-4.2 1.3-1.6.6 9.6-14 11.6-15.2.4-.3 3.8 3.2 7.5 7.7 3.8 4.5 6.1 7.8 5.1 7.5-1-.4-2.9-1-4.2-1.3l-2.4-.6-.2 20.7-.3 20.7-23.2 11.2-23.3 11.1V210h-11v-37.3l-.1-37.2-23.2-11.1-23.2-11.1-.3-20.7-.2-20.8-2.4.6c-1.3.3-3.2.9-4.3 1.3-1.1.4.2-1.7 3.1-5.3 8.8-10.5 8.9-10.6 10.1-9.2.6.7 3.8 4.4 7.1 8.2z"/><path d="M151.021 248.301c-.037-17.388-.197-39.809-.355-49.823l-.288-18.21-30.598-14.634L89.18 151l-.306-5.003c-.168-2.751-.306-11.649-.306-19.772 0-19.507-.435-30.551-1.205-30.551-.32 0-2.311.5-4.425 1.113-2.113.612-3.842.943-3.842.735 0-1.09 14.516-18.552 15.848-19.063.982-.377 17.42 18.68 16.717 19.382-.12.12-1.582-.21-3.249-.732-1.666-.522-3.395-.952-3.842-.956-1.875-.014-1.995 1.286-2.184 23.707l-.182 21.582 2.773 1.253c1.525.689 12.258 5.831 23.85 11.428 11.592 5.596 21.223 10.027 21.403 9.846.18-.181.461-10.56.626-23.064.307-23.332-.114-38.188-1.11-39.184-.419-.419-1.355-.292-3.906.53-1.846.594-3.476.96-3.623.813-.63-.629 7.171-10.463 12.78-16.112l3.252-3.274 2.221 2.533c8.76 9.988 13.722 16.355 13.175 16.902-.175.175-1.767-.148-3.538-.719-1.771-.57-3.578-1.037-4.015-1.037-.734 0-.79 1.643-.735 21.195.033 11.657.192 25.83.355 31.493l.295 10.299 18.945-9.279 23.445-11.482 4.5-2.204.369-22.68c.203-12.475.257-22.794.12-22.93-.137-.137-1.986.216-4.11.784-2.123.569-3.959.935-4.079.815-.387-.387 5.691-8.613 11.143-15.08l3.498-4.15 1.27.904c2.6 1.851 15.724 17.72 15.139 18.305-.132.132-1.977-.225-4.1-.794-2.124-.568-3.963-.932-4.087-.808-.124.124-.39 12.553-.59 27.62l-.365 27.393-12.314 5.93c-6.773 3.263-20.627 9.902-30.786 14.754l-18.472 8.823-.12 49.826-.12 49.825h-14.205z" style="fill:#fff;stroke-width:.473632" transform="scale(.75)"/></svg>