<svg xmlns="http://www.w3.org/2000/svg" width="381" height="385" version="1.0" viewBox="0 0 286 289"><path d="M24 144v120h240V24H24v120zm71-82-6-2-5-2v50l25 12 26 12 1-34V64l-5 2-6 2 9-12 10-10 18 22-4-1c-7-3-7-5-7 31l1 34 26-12 25-12V83c0-27 0-25-6-22l-5 1c0-1 18-23 19-22l18 21-6-1-5-2v60l-33 16-33 16-1 53v53h-15V150l-32-15-34-17c-2-1-2-3-2-30l-1-29-5 2-4 1 8-11 10-12 10 11 9 12z"/><path d="M181 293v-94l-18-8-71-35-1-36c0-34-1-41-2-41l-6 1-5 2 23-29 10 11 14 17-12-4-1 33v34l21 10 47 22 1-6V85a167 167 0 0 0-13 5c-1-1 15-21 21-26l3-3 2 3 19 23c2 3 2 3-3 1-4-1-6-2-7 0-2 1-2 11-2 40 0 35 0 48 2 48l52-24 16-8v-24c0-27 0-39-2-40-1-2-2-1-7 0l-4 1c-1 0 12-17 19-24l4-4 2 3a944 944 0 0 1 20 25 103 103 0 0 1-12-4l-1 40v40l-27 13a18387 18387 0 0 1-44 21l-17 8v42l-1 71v29h-20z" style="fill:#fff;stroke-width:.575124" transform="scale(.75)"/></svg>