<svg xmlns="http://www.w3.org/2000/svg" width="400" height="400" version="1.0" viewBox="0 0 300 300"><path d="M139 .6c-28.9 3.5-48.9 10.6-70.7 25.1L60 31.1V63H30l-3.4 5.2C17.3 82.8 9.9 101.4 5.9 120c-3.3 15.1-3.3 41.9 0 57 4.4 20.6 11.6 37.8 22.8 54.7l5.4 8.3H60v25.9l8.3 5.4c16.5 11 34.9 18.8 54 22.9 14.7 3.2 43.7 3.2 58.4 0 17.5-3.8 36.6-11.6 51.1-20.8l5.2-3.4v-30h31.9l5.4-8.3c11.7-17.5 20.1-38.1 23.3-57.2 2.3-13.5 2.3-38.5 0-52-3-17.4-12.6-41.9-21.8-55.3l-2.9-4.2H237V27l-5.2-3.4C216.3 13.7 194.7 5.3 178 2.5 168.4.9 145.5-.2 139 .6zm52.3 17.2c11.9 4 21.2 8.1 28.9 12.8l5.8 3.5V74h39.9l3.5 5.8c4.7 7.7 8.8 17 12.8 28.9l3.2 9.8.4 26.9c.3 22.5.1 28.1-1.3 34.5-3.1 13.9-10.7 31.6-18.7 43.6l-3.3 5-18.3.3-18.2.2v34.6l-7.2 4.1c-21.3 12-42.7 17.6-67.3 17.6-27.2 0-51.2-7-74.2-21.5l-6.3-4V229H40.5l-3.5-5.3c-9.5-14.3-17.4-34.5-20.6-52.2-2-11.7-2-34.2 0-45.8 2.4-13.2 7.1-26.9 13.8-40L36.3 74H71V38.1l5.8-3.9C87.7 26.8 104.4 19.4 118 16c6.6-1.7 10.8-1.9 35.5-1.7l28 .3 9.8 3.2z"/><path d="M145.7 37.5c-2 .7-4.3 1.8-5.1 2.4-2 1.7-4.6 7.5-4.6 10.2 0 3.7 3.7 10.3 7 12.2l3 1.8V86l-2.7.5c-20.4 3.9-33.8 11.3-43.7 24.5-7.2 9.6-10.3 17.2-13.1 32.2L86 146H64.1l-1.8-3c-2.5-4.3-9.2-7.4-14.3-6.5-12.9 2.2-15.5 20.3-3.7 25.9 4.6 2.1 7.2 2 12.3-.5 3.2-1.5 4.8-3.1 6.1-6l1.7-3.9h21.5l.6 4.7c2.6 19.8 14 37.8 30.1 47.5 6.3 3.9 19.6 8.8 23.7 8.8 5.5 0 5.7.4 5.7 12.1v10.8l-3 1.8c-4 2.3-7.4 9.4-6.7 13.8 1.1 7 6.7 11.8 13.8 11.8 14.6 0 18.9-20 5.7-26l-3.8-1.7v-21.5l4.8-.6c7.6-1 20.1-5.3 26.6-9.2 16.1-9.8 27.5-27.8 30.1-47.6l.6-4.7h21.5l1.7 3.9c2.2 4.9 9 8.6 14.2 7.8 15.7-2.5 15.7-24.9 0-27.4-4.4-.7-11.5 2.7-13.8 6.7l-1.8 3h-10.8c-11.7 0-12.1-.2-12.1-5.5 0-4.4-4.2-16-8.2-22.9-4.9-8.3-13.4-17-21.4-21.9-6.5-3.9-19-8.2-26.6-9.2l-4.8-.6V64.4l3.8-1.7c4.7-2.2 7.4-5.8 7.9-11.1 1-9.7-8.7-17.4-18-14.1zm.3 67.2v11.8l-5.8 1.7c-10.8 3.2-18.8 11.2-22 22l-1.7 5.8h-11.7c-9.2 0-11.8-.3-11.8-1.3 0-3.9 4.3-17.2 7.1-22.3 4.2-7.6 14.8-18.1 22.3-22.3 5.3-3 17.5-6.9 21.9-7 1.5-.1 1.7 1.1 1.7 11.6zm18.2-9.8c4.2 1.1 10.2 3.4 13.4 5.2 7.5 4.2 18.1 14.8 22.3 22.3 2.8 5.1 7.1 18.4 7.1 22.3 0 1-2.6 1.3-11.7 1.3h-11.8l-1.7-5.8c-.9-3.2-3.1-7.7-4.8-10-5.1-7.1-10.3-10.1-23.7-13.8-1-.2-1.3-3.5-1.3-11.9 0-13.4-.7-12.9 12.2-9.6zm-1.6 31.4c6.4 3.3 13.4 12.6 13.4 17.7 0 1.8-.6 2-6.2 2-6-.1-6.4-.2-8.3-3.3-1.1-1.8-3.7-4-5.7-5-3.7-1.8-3.8-2-3.8-7.6 0-3.2.2-6 .6-6.3.7-.8 6.4.6 10 2.5zm-16.6 3.9c0 6-.2 6.4-3 8-1.7 1-3.8 3.1-4.8 4.8-1.6 2.8-2 3-7.9 3-5.7 0-6.3-.2-6.3-2 0-7.4 12.3-19.8 19.8-20 2 0 2.2.4 2.2 6.2zm-29.6 23c3.7 13.5 6.7 18.7 13.8 23.8 2.3 1.7 6.8 3.9 10 4.8l5.8 1.7v11.7c0 9.2-.3 11.8-1.3 11.8-3.9 0-17.2-4.3-22.3-7.1-7.5-4.2-18.1-14.8-22.3-22.3-3.2-5.7-7.1-18.6-7.1-23.3 0-2.3.1-2.3 11.5-2.3 8.4 0 11.7.3 11.9 1.2zm21.3 2.5c1 2.1 3.2 4.7 5 5.8 3.1 1.9 3.2 2.3 3.3 8.2 0 5.7-.2 6.3-2 6.3-3 0-9.3-3.4-12.9-7.1-4.8-4.7-7.9-11.7-7.2-16.2.1-.4 2.8-.7 6-.7 5.9 0 6 0 7.8 3.7zm38.4-.2c-1 9.2-11.4 19.6-20.6 20.6l-3 .4-.3-6.3c-.3-6-.2-6.2 2.5-7.3 3.9-1.5 6.3-3.8 8-7.7 1.4-3.3 1.4-3.3 7.6-3l6.2.3-.4 3zm30.9-1.2c0 4.7-3.9 17.6-7.1 23.3-4.2 7.5-14.8 18.1-22.3 22.3-5.7 3.2-18.6 7.1-23.3 7.1-2.3 0-2.3-.1-2.3-11.5 0-8.4.3-11.7 1.3-11.9 9-2.5 13.1-4.1 16.6-6.6 7-5.1 10-10.3 13.7-23.8.2-.9 3.5-1.2 11.9-1.2 11.4 0 11.5 0 11.5 2.3z"/><path d="M191.94 379.883c-7.059-.375-20.24-2.055-27.123-3.457-22.056-4.492-40.796-12.15-62.065-25.363l-7.827-4.862v-41.126H54.302l-4.466-6.793c-13.703-20.838-25.263-51.296-28.465-74.998-.497-3.676-.764-12.71-.761-25.672.006-22.319.505-27.293 4.163-41.471 4.015-15.564 8.558-27.142 17.753-45.245l5.99-11.792h46.409l.013-24.03.013-24.03 6.435-4.272c17.579-11.673 40.944-21.825 59.808-25.986 6.223-1.373 6.536-1.382 43.284-1.245l37.015.137 9.945 3.266c18.219 5.982 30.255 11.262 43.338 19.012l6.12 3.625V99.104h53.463l3.655 6.12c7.653 12.811 13.003 24.972 19.093 43.403l3.265 9.88.112 37.015c.112 36.621.098 37.082-1.26 43.284-3.954 18.047-14.37 42.464-25.2 59.073l-4.214 6.463-24.457.442-24.457.442v46.149l-8.806 4.887c-13.76 7.636-24.345 12.232-37.524 16.293-18.582 5.724-41.754 8.436-62.626 7.328zm16.12-30.265c5.885-2.79 9.74-8.628 10.3-15.595.65-8.087-3.175-14.33-11.13-18.173l-4.266-2.061.16-14.027.16-14.026 5.278-.762c13.594-1.962 28.966-7.577 39.487-14.425 5.809-3.782 17.81-15.922 21.936-22.19 8.068-12.259 12.912-25.092 14.988-39.702l.763-5.373 14.064-.16 14.065-.16 1.545 3.562c2.932 6.762 9.322 11.321 16.6 11.846 5.439.392 9.2-.94 13.339-4.722 4.056-3.707 5.696-7.637 5.696-13.65 0-7.617-3.619-13.668-10.078-16.85-3.84-1.892-11.064-1.898-15.194-.014-4.154 1.897-7.43 4.692-9.752 8.32l-2.028 3.17-9.086-.031c-11.341-.04-18.15-.717-19.357-1.924-.567-.567-1.105-2.827-1.426-5.995-.849-8.379-6.55-23.567-12.063-32.137-7.653-11.897-20.467-23.89-31.464-29.444-8.725-4.408-22.239-8.655-32.035-10.07l-5.278-.76-.16-14.027-.16-14.027 4.266-2.06c5.45-2.633 9.108-6.547 10.458-11.19 1.293-4.449.864-10.35-1.027-14.139-1.878-3.759-6.38-7.737-10.185-9.002-6.12-2.032-16.316.003-20.02 3.996-.719.774-2.19 3.288-3.268 5.587-1.5 3.194-1.955 4.953-1.931 7.463.056 5.97 4.496 13.465 10.103 17.051l3.267 2.09v28.484l-2.836.422c-10.745 1.597-27.48 7.276-35.813 12.154-16.648 9.745-29.853 25.873-36.014 43.986-1.572 4.623-4.253 15.7-5.091 21.037l-.399 2.537H86.007l-2.018-3.155c-2.47-3.86-5.055-6.107-9.362-8.134-4.721-2.223-11.556-2.2-15.821.053-6.515 3.442-9.836 9.163-9.845 16.961-.005 4.219.23 5.302 1.854 8.552 4.465 8.936 14.949 12.064 24.565 7.33 4.621-2.275 7.143-4.94 9.232-9.757l1.523-3.513 14.065.16 14.064.16.763 5.373c2.802 19.723 10.88 36.872 23.67 50.252 6.94 7.258 13.948 12.497 22.199 16.592 8.588 4.263 19.964 8.038 26.083 8.655 2.931.295 5.133.834 5.691 1.393 1.208 1.207 1.884 8.013 1.925 19.358l.032 9.086-3.17 2.028c-10.344 6.617-13.085 20.32-5.736 28.67 4.33 4.918 7.362 6.228 14.578 6.297 3.85.036 5.354-.229 7.76-1.37z" style="fill:#fff;stroke-width:.597015" transform="scale(.75)"/><path d="M130.037 194.072c-2.853-.202-5.368-.548-5.59-.769-.581-.582 1.318-8.72 3.732-15.99 4.287-12.906 7.78-18.727 17.08-28.455 10.06-10.522 17.938-15.868 29.223-19.829 10.029-3.52 17.949-5.162 18.969-3.933.358.432.767 6.781.983 15.284l.37 14.545-7.103 2.215c-8.902 2.775-13.64 5.524-19.338 11.223-5.68 5.679-8.443 10.426-11.205 19.249l-2.196 7.015-9.869-.095c-5.428-.052-12.203-.26-15.056-.46zM243.356 189.104c-2.738-9.259-5.903-14.96-11.409-20.551-5.496-5.582-10.653-8.455-20.902-11.648-3.284-1.023-6.373-2.233-6.866-2.687-1.174-1.085-1.704-23.594-.639-27.15.922-3.076 2.347-3.33 9.463-1.69 18.474 4.261 29.054 10.213 41.738 23.48 9.317 9.746 12.735 15.456 17.067 28.51 2.392 7.209 4.326 15.354 3.775 15.905-.596.596-11.844 1.284-21.596 1.32l-8.998.034zM203.543 274.247c-.43-1.118-.588-6.197-.458-14.674.162-10.575.364-13.117 1.094-13.79.493-.456 3.717-1.697 7.164-2.759 9.857-3.037 14.362-5.458 19.774-10.628 3.84-3.67 5.23-5.52 7.406-9.868 1.473-2.943 3.513-8.074 4.533-11.402 1.02-3.328 2.237-6.454 2.704-6.947.707-.746 3.177-.895 14.827-.895 10.049 0 14.18.2 14.693.714 1.536 1.533-1.949 16.097-6.39 26.704-2.974 7.103-6.85 12.754-13.663 19.918-6.367 6.697-12.157 11.62-17.316 14.727-6.805 4.099-21.755 9.125-30.288 10.184-3.37.418-3.432.4-4.08-1.284zM185.97 274.361c-11.983-3.125-21.399-7.027-27.552-11.417-9.26-6.609-20.93-19.418-25.231-27.695-4.825-9.287-10.3-29.422-8.49-31.229.543-.542 4.427-.736 14.716-.736 11.65 0 14.12.149 14.827.895.467.493 1.675 3.582 2.685 6.866 3.13 10.175 6.03 15.39 11.628 20.902 5.606 5.52 11.292 8.67 20.643 11.436l5.615 1.661-.396 14.045c-.217 7.725-.558 14.65-.758 15.389-.446 1.647-.951 1.64-7.687-.117z" style="fill:#fff;stroke-width:.597015" transform="scale(.75)"/><path d="M189.52 233.79c-8.573-2.686-16.973-9.974-21.105-18.313-1.643-3.316-2.62-6.195-2.846-8.383-.324-3.137-.26-3.356 1.073-3.713 2.18-.584 11.605-.466 13.265.166.924.351 2.201 1.918 3.407 4.18 1.816 3.408 4.687 6.514 8.615 9.32 1.503 1.074 1.773 1.742 2.17 5.373.69 6.31-.193 12.337-1.784 12.167-.206-.022-1.464-.381-2.794-.798zM168.851 194.226c-3.157-.378-3.614-1.203-2.672-4.832 2.32-8.944 14.172-20.888 22.98-23.16 1.597-.411 3.189-.504 3.738-.218 1.587.827 2.007 8.654.79 14.705-.145.725-1.538 2.194-3.095 3.264-3.252 2.235-5.822 4.854-7.059 7.191-.472.894-1.331 1.877-1.908 2.186-1.248.668-9.663 1.237-12.774.864zM221.844 194.103c-2.986-.34-3.72-.67-4.776-2.146-2.759-3.859-5.791-6.696-9.217-8.623-2.312-1.3-3.85-2.622-4.292-3.688-.826-1.994-.562-13.333.331-14.224.888-.886 7.493.797 12.194 3.106 4.665 2.29 11.842 9.217 14.91 14.389 2.579 4.347 3.958 9.265 2.886 10.296-.958.923-7.494 1.406-12.036.89zM203.282 228.035c-.286-4.755-.207-7.385.245-8.23.366-.684 2.397-2.07 4.514-3.08 4.28-2.043 7.272-5.194 9.199-9.688 1.693-3.95 2.557-4.25 10.797-3.755l6.99.42-.474 2.994c-1.398 8.849-6.338 16.36-14.717 22.38-4.241 3.047-8.147 4.696-12.884 5.439l-3.25.51z" style="fill:#fff;stroke-width:.597015" transform="scale(.75)"/></svg>