<svg xmlns="http://www.w3.org/2000/svg" width="400" height="400" version="1.0" viewBox="0 0 300 300"><path d="M139 1c-29 3-49 10-71 25l-8 5v32H30l-3 5a150 150 0 0 0 2 164l5 8h26v26l8 5c17 11 35 19 54 23 15 3 44 3 59 0 17-4 36-11 51-21l5-3v-30h32l5-8c12-18 20-38 24-58 2-13 2-38 0-52-3-17-13-41-22-55l-3-4h-36V27l-5-3a159 159 0 0 0-93-23zm52 17c12 4 22 8 29 13l6 3v40h40l3 6c5 7 9 17 13 29l3 9 1 27-1 35c-4 14-11 31-19 43l-3 5-19 1h-18v35l-7 4c-21 12-43 17-67 17-28 0-52-7-75-21l-6-4v-31H41l-4-5c-9-15-17-35-21-53-2-11-2-34 0-45 3-13 7-27 14-40l6-12h35V38l6-4c11-7 27-15 41-18 7-2 11-2 36-2l28 1 9 3z"/><path d="m146 38-5 2c-2 2-5 7-5 10 0 4 4 10 7 12l3 2v22l-3 1c-20 3-33 11-43 24-8 10-11 17-13 32l-1 3H64l-2-3c-2-4-9-7-14-6-13 2-15 20-4 25 5 3 7 2 13 0l6-6 1-4h22v5a67 67 0 0 0 54 56c6 0 6 0 6 12v11l-3 2c-4 2-7 9-7 14 1 7 7 11 14 11 15 0 19-20 6-26l-4-1v-22h5a66 66 0 0 0 57-57v-5h22l1 4c2 5 9 9 14 8 16-3 16-25 0-28-4 0-11 3-13 7l-2 3h-11c-12 0-12 0-12-5s-4-16-8-23a66 66 0 0 0-48-31l-5-1V64l4-1c4-2 7-6 8-11 1-10-9-18-18-14zm0 67v12l-6 1c-11 3-19 11-22 22l-2 6h-11l-12-1c0-4 4-18 7-23 4-7 15-18 22-22 6-3 18-7 22-7 2 0 2 1 2 12zm18-10 14 5c7 4 18 15 22 22 3 6 7 19 7 23l-12 1h-11l-2-6-5-10c-5-7-10-10-24-14l-1-11c0-14-1-13 12-10zm-1 31c6 4 13 13 13 18 0 2-1 2-6 2-6 0-7 0-8-3l-6-5c-4-2-4-2-4-8l1-6c0-1 6 0 10 2zm-17 4c0 6 0 7-3 8l-5 5c-1 3-2 3-8 3-5 0-6 0-6-2 0-7 12-20 20-20 2 0 2 0 2 6zm-30 23c4 14 7 19 14 24l10 5 6 2v11l-1 12c-4 0-17-4-23-7-7-4-18-15-22-22-3-6-7-19-7-24 0-2 0-2 12-2l11 1zm22 3 5 6c3 1 3 2 3 8 0 5 0 6-2 6-3 0-9-3-13-7-5-5-8-12-7-16l6-1c6 0 6 0 8 4zm38 0c-1 9-11 19-20 20l-3 1-1-7c0-6 0-6 3-7 4-2 6-4 8-8 1-3 1-3 7-3l7 1-1 3zm31-2c0 5-4 18-7 24-4 7-15 18-22 22-6 3-19 7-24 7-2 0-2 0-2-11l1-12c9-3 13-4 17-7 7-5 10-10 14-24l11-1c12 0 12 0 12 2z"/><path d="M192 380a180 180 0 0 1-89-29l-8-5v-41H54l-4-7c-14-21-25-51-29-75a263 263 0 0 1 4-67c4-15 8-27 18-45l6-12h46V51l6-4c18-12 41-22 60-26 6-2 7-2 43-1h37l10 3c19 6 31 11 44 19l6 4v53h53l4 6c8 13 13 25 19 44l3 10v37c1 36 1 37-1 43-4 18-14 42-25 59l-4 6-25 1h-24v46l-9 5a183 183 0 0 1-100 24zm16-30c6-3 10-9 10-16 1-8-3-14-11-18l-4-2v-28l6-1c13-2 29-8 39-14a94 94 0 0 0 37-62l1-6h28l1 4c3 6 10 11 17 11 5 1 9-1 13-4 4-4 6-8 6-14 0-8-4-14-10-17-4-2-11-2-15 0s-8 5-10 8l-2 4h-9c-11 0-18-1-19-2l-2-6c-1-9-6-24-12-32-8-12-20-24-31-30-9-4-23-9-32-10l-6-1V86l4-2c6-2 9-6 11-11 1-4 1-10-1-14s-7-8-11-9c-6-2-16 0-20 4l-3 5-2 8c0 6 5 13 10 17l4 2v28l-3 1c-11 2-28 7-36 12a83 83 0 0 0-36 44l-5 21-1 3H86l-2-4c-2-3-5-6-9-8-5-2-12-2-16 0-7 4-10 10-10 17 0 5 0 6 2 9 4 9 15 12 24 7 5-2 8-5 10-10l1-3h28l1 6a90 90 0 0 0 46 67c8 4 20 8 26 8l6 2c1 1 2 8 2 19v9l-4 2c-10 7-13 20-5 29 4 5 7 6 14 6l8-1z" style="fill:#fff;stroke-width:.597015" transform="scale(.75)"/><path d="m130 194-6-1 4-16c4-13 8-18 17-28 10-11 18-16 29-20 11-3 18-5 19-4l1 15 1 15-7 2c-9 3-14 6-20 11-5 6-8 11-11 20l-2 7h-10l-15-1zm113-5a43 43 0 0 0-32-32l-7-3c-1-1-2-23 0-27 0-3 2-3 9-2 18 5 29 11 42 24 9 10 12 15 17 28l4 16-22 2h-9zm-39 85-1-14 1-14 7-3c10-3 15-5 20-11l8-9 4-12 3-7 15-1 14 1c2 2-2 16-6 27-3 7-7 12-14 20l-17 14c-7 4-22 9-30 11-4 0-4 0-4-2zm-18 0c-12-3-21-7-28-11-9-7-21-19-25-28-5-9-10-29-8-31l14-1 15 1 3 7a45 45 0 0 0 32 32l6 2-1 14v15c-1 2-1 2-8 0z" style="fill:#fff;stroke-width:.597015" transform="scale(.75)"/><path d="M190 234c-9-3-17-10-22-19l-2-8c-1-3-1-3 1-4l13 1 3 4 9 9c1 1 2 2 2 5 1 7 0 13-2 13l-2-1zm-21-40c-3 0-4-1-3-5 2-9 14-20 23-23h4c1 1 2 9 1 15l-3 3c-4 2-6 5-7 7l-2 2c-2 1-10 2-13 1zm53 0c-3 0-4-1-5-2l-9-9-4-3v-15a40 40 0 0 1 27 18c3 4 4 9 3 10s-8 2-12 1zm-19 34 1-8 4-3c4-2 7-5 9-10 2-4 3-4 11-4l7 1v3c-2 9-7 16-15 22-4 3-8 5-13 6h-3z" style="fill:#fff;stroke-width:.597015" transform="scale(.75)"/></svg>