<svg xmlns="http://www.w3.org/2000/svg" width="384" height="385" version="1.0" viewBox="0 0 288 289"><path d="M24 144v120h240V24H24v120zm116 0v105l-5-2-11-6c-7-4-25-22-25-24l6-4c3-1 5-3 5-4l-3-4-2-5 5 3c5 2 5 3 5 8 0 10 7 22 12 19 2-1 3-5 0-7-3-4-4-7-4-10 0-5 1-7 3-7l3-2c2-2 3-3 3-5-1-3-3-4-7-2-3 2-4 2-7 1l-4-2 3-3 4-3 2-1-12-11c-11-10-11-11-23-15l-11-4-4 7-3 6-2-7c-4-13-5-20-5-36 0-35 6-57 20-71 11-11 31-19 51-19h6v105zm34-103c2 0 3 0 2 2l-5 4c-3 2-3 2-3 5 1 2 0 4-3 8l-3 5 3 10c5 14 4 13 2 13-3 0-5 1-5 4s1 4 7 4c4 0 4 0 8 7 4 8 4 8 13 5l6-1-1 2-2 7c0 5-1 7-6 7s-6-1-9-7c-4-8-6-11-11-12-6-1-14 5-12 9 2 3 4 3 7 1 4-3 5-2 9 6l6 8c2 2 3 2 9 2 12 0 17-4 15-13v-4h4l6 3c2 2 2 3 2 10 0 6 0 7 2 8 2 0 3 0 4-2 2-2 2-4 2-10-1-9-4-13-13-17-2 0-2 0 1-1l4-1a252 252 0 0 0-8-31l5-1 6-3c1 0 2 1 5 7 6 15 8 29 8 52 0 13 0 17-2 24-12 40-45 86-71 97l-4 1V39h10l12 2z"/><path d="M101 47c-10 6-12 16-4 24 1 2 2 3 1 6 0 3-1 3-6 3-7 1-13 5-14 8l1 4c2 1 3 1 8-1 6-3 13-4 15-2l3 1c5 0 5 2 2 6-5 6-6 11-2 13 2 0 3 0 4-3 7-8 8-9 15-10h6v-7l-6-1c-5 0-6 0-9-2l-6-4c-2-1-3-2-3-4s4-7 8-8c7-1 8-2 8-5 0-2-1-2-5-3l-9 2c-5 2-8 1-8-2 0-4 1-6 4-7 4-2 8-3 13-1 6 1 8 0 8-3-1-6-16-8-24-4z"/><path d="M124 105c-3 1-5 3-9 11l-3 7-5-1c-7 0-8-1-8-7 0-7-2-9-8-10s-14 4-17 9c-5 9-1 24 5 18 2-1 2-2 1-7 0-5 0-6 2-8l6-4h4v6c0 6 1 7 4 9l9 2c9 1 12 0 16-9 5-9 6-10 10-7 5 4 8 1 7-5-2-4-9-6-15-4z"/><path d="M125 129c-4 2-7 7-8 12 0 4-1 5-4 5l-8 3-7 3c-2 0-5-5-5-10s-1-7-4-7c-7 0-5 18 3 23 5 3 9 2 17-2 6-3 6-3 10-1l5 5c4 8 7 10 10 6 2-2 1-5-4-12l-5-9c-1-3 1-7 5-10 4-2 5-4 2-6-1-2-3-2-7 0zm36 0c-3 2-2 4 2 7 8 4 8 8 0 18-4 7-5 12-2 14 2 1 4-1 7-7l6-6c4-2 4-2 11 2s11 4 16 1 7-8 7-15c0-6-1-8-3-8-4 0-5 2-5 8 0 4-1 5-2 7-3 3-4 2-10-1l-8-3c-3-1-4-1-4-5-1-7-5-12-11-13-2-1-3-1-4 1zm41 36c-1 1 0 4 1 6l3 7c0 3-3 6-8 7h-4v-4c0-5-2-8-4-8s-4 4-5 10c-1 9-4 13-9 15h-8c-4-3-6-2-7 1 0 2 1 3 3 5 6 3 6 4 6 9 0 3-2 6-4 9l-3 5 2 2c2 2 2 2 5 1 4-2 7-10 8-18 0-7 0-7 4-9l7-6c2-4 3-4 9-4 4-1 7-1 9-3 8-6 9-12 4-21-2-5-3-6-6-6-2 0-3 0-3 2z"/><path d="M181 329c-8-3-14-6-21-12-6-5-25-23-26-26l-1-2 5-3c9-6 9-5 9-8l-3-5-3-5 10 5 2 8 4 17c4 9 10 13 14 8v-8l-3-4c-3-3-4-6-4-11 0-6 1-7 5-9 5-2 7-5 7-8 0-2 0-3-2-4s-4-1-8 1l-4 2-9-4 8-6c4-3 4-3-1-8a449 449 0 0 0-32-26l-25-9c-1 0-4 5-8 15-1 2-1 2-4-7-5-18-7-27-7-49 0-58 13-89 44-105 4-3 6-3 3-1s-6 6-7 9c-3 7-1 13 4 20 3 4 4 7 2 10-1 2-1 2-8 3-6 1-12 3-15 6s-3 3-3 5c0 3 2 6 4 6l8-3c10-4 18-5 20-2l4 1 4 1c1 1 1 3-2 7-7 9-7 14-2 17 2 1 4 0 7-5 8-9 10-11 19-12h7l1-5v-5h-7c-8-1-10-1-14-4l-6-4c-5-3-6-4-5-8 2-4 6-7 13-9 6-1 7-2 7-6l-1-4-14 1c-8 3-9 3-11 2s-2-2-2-5c0-4 2-6 5-8 5-2 8-3 16-1 9 2 12 1 12-4 0-3-2-5-7-6-3-2-4-2-10-2l-10 1h-2l2-1c8-4 24-7 37-7l9-1v279l-5-2zm-3-107c2-1 2-2 2-4-1-3-2-7-6-12l-8-14c0-4 3-8 8-12 5-3 6-5 3-9-3-2-4-2-9 0-6 3-10 9-12 16l-1 5c0 1-2 2-7 3l-10 4-7 3-5-5-2-9c0-7-1-8-5-8-3 0-4 1-5 3-2 5-1 15 2 20 4 8 11 12 20 10l10-4 8-4 7 4 5 7c5 7 6 8 9 8 1 0 2 0 3-2zm-73-44c2-1 3-3 2-11l1-9c3-4 7-6 12-7h2l1 7 1 9c2 4 9 7 19 7 10 1 13-1 20-13l5-9c2-2 3-2 8 1 3 2 5 2 7 1l1-5-1-5c-2-3-8-6-14-5-7 0-9 3-16 16l-4 8h-6c-9 0-10-1-11-11 0-8-2-10-9-12-10-1-21 5-25 14-4 7-2 20 2 24h5zm98 14V52h3a438 438 0 0 0 28 3c2 1 0 4-5 7-4 3-5 3-5 7 0 3-1 5-5 12l-3 7 2 9 5 14c2 6 2 6-1 6l-4 1c-3 1-3 6-1 8 1 2 2 2 7 2 7 1 6 0 11 9l5 8c2 2 5 2 13 0l7-2-1 2-2 11c0 6-3 8-10 8-4-1-6-3-10-10-6-12-9-15-17-15-10 0-18 9-12 14 2 2 4 1 8-1 5-3 6-2 12 8 3 7 6 11 9 13l10 1c8 0 12-1 16-3 5-3 6-8 6-15l-1-5h3c3 0 10 4 11 6l2 10c0 9 1 11 3 12 3 0 7-3 8-8l-1-9c0-9-2-13-7-16l-5-4a452 452 0 0 1-4-1l-2-1 3-1 5-2-5-19-5-20 8-4 8-2 7 17a238 238 0 0 1 7 86 202 202 0 0 1-19 48v-5l-1-8c-2-6-5-11-7-12h-8c-1 2-1 5 2 11 3 7 4 9 2 11-1 4-5 5-12 6l-2 1v-5c0-9-3-13-8-11l-5 14c-2 11-5 16-12 18-4 2-5 2-9 0-6-3-9-2-10 2-1 3 0 5 5 8 6 4 7 5 6 10 0 5-2 9-6 14l-3 6 6 5c2 0 4-1 7-4 4-4 6-12 7-22 1-7 2-8 5-10l10-9 4-4 8-2c8-1 11-2 15-6l3-3a251 251 0 0 1-62 75l-16 8h-1zm16 31 5-6c4-7 9-12 13-12l8 4 10 4c4 1 8 0 11-1 3-2 8-6 9-10 2-3 3-9 3-15-1-6-2-7-5-7-5 0-6 1-7 11 0 6-1 8-4 10l-2 1-9-3-10-4-5-2-1-6c-2-9-5-13-11-16-5-2-8-2-10 0l-2 4c0 2 0 2 3 4 8 6 10 9 9 13 0 3-2 7-6 12-3 6-6 11-6 15-1 2 0 3 1 4 2 2 4 2 6 0z" style="fill:#fff;stroke-width:.575124" transform="scale(.75)"/></svg>