<svg xmlns="http://www.w3.org/2000/svg" width="384" height="385.333" version="1.0" viewBox="0 0 288 289"><path d="M24 144v120h240V24H24v120zm116 0v105l-5.2-2c-2.8-1-7.6-3.6-10.7-5.6-6.9-4.5-25.5-22.9-24.7-24.3.4-.6 2.9-2.3 5.6-3.8 2.8-1.5 5-3.3 5-3.8 0-.6-1.2-2.8-2.6-4.8-1.4-2.1-2.4-4.1-2.1-4.3.2-.3 2.5.8 5 2.3 4.6 2.8 4.6 2.9 4.7 8.3.1 10.5 7.3 22.2 11.8 19.4 2.5-1.6 2.7-5.3.4-7.7-3-3.3-4.2-6.2-4.2-10.1 0-4.3.8-6.6 2.5-6.6.7 0 2.4-1 3.9-2.1 1.9-1.5 2.6-2.9 2.4-4.8-.4-3.3-3-3.9-7.2-1.6-3 1.6-3.4 1.6-7.1 0l-4-1.6 3-2.5c1.7-1.3 3.8-2.7 4.8-3 .9-.3 1.7-.9 1.7-1.3s-5.2-5.4-11.6-11.1c-11.3-10.2-11.8-10.6-23.1-14.8-6.4-2.3-11.7-4.1-11.8-4-.2.2-1.6 3.2-3.2 6.8l-2.9 6.4-2.2-7C64.1 152.3 63 145.1 63 129c0-35 6.2-57 19.9-70.8 11.3-11.3 31.4-18.8 50.9-19.1l6.2-.1v105zm34.2-103.4c2.3.5 2.6.9 1.8 2.4-.5 1-2.6 2.7-4.6 3.9-3 1.8-3.5 2.6-3.1 4.8.3 1.9-.5 4.2-3.1 8.1l-3.5 5.6 3.4 10c4.4 13.2 4.3 12.6 2.1 12.6-3.7 0-5.2 1.2-5.2 4 0 3.2 1.4 4 7 4 3.7 0 4 .2 7.6 7 4.3 7.8 4.5 7.9 13.4 5.5 3-.8 5.6-1.5 5.8-1.5.2 0-.4 1-1.2 2.2-.9 1.2-1.6 4.3-1.6 6.8 0 5.4-1.3 7-5.6 7-5.2 0-6.3-.9-9.6-7.4-3.9-7.8-6.3-10.4-10.5-11.2-6.4-1.2-14.5 4.6-12.2 8.8 1.6 3 3.5 3.2 6.9.8 3.8-2.7 5-1.9 9 5.9 1.5 3.1 4 6.7 5.5 8.1 2.4 2.2 3.5 2.5 9.7 2.3 11.4-.3 16.4-4.6 15.2-13.2l-.6-4.4 3.8.6c2 .3 4.7 1.6 6 2.8 2.1 2 2.4 3.2 2.4 9.5 0 6.6.2 7.3 2.2 8 1.6.5 2.7 0 4.1-1.7 1.6-1.9 1.8-3.6 1.5-9.4-.5-9.7-3.5-13.7-13.3-17.1-1.7-.6-1.5-.8 1.5-1.6 1.9-.5 3.6-1.1 3.7-1.2.1-.1-1.6-6.9-3.8-15-2.1-8.2-3.8-15-3.7-15.1.2-.1 2.3-.9 4.8-1.7 2.5-.9 5.2-1.9 6.1-2.3 1.3-.5 2.3.9 4.7 6.7 5.9 14.4 8.2 28.7 8.3 51.8 0 13.5-.3 16.6-2.4 24-11.4 40.4-44.6 85.5-70.9 96.5L152 249V38.7l9.8.7c5.3.3 10.9.9 12.4 1.2z"/><path d="M100.9 47.3C90.9 52.6 89 62.7 96.5 71c1.7 1.8 2.2 3.3 1.8 5.6-.5 3-.8 3.2-5.9 3.7-7.2.7-13.8 4.4-14.2 7.8-.2 1.4.4 3.1 1.3 3.9 1.3 1 2.5.8 7.4-1.4 6.3-2.8 13.5-3.6 15.3-1.8.7.7 2.1 1.2 3.3 1.2 4.3 0 4.6 2 1.1 6.2-5 5.9-5.6 11-1.3 12.4 1.6.5 2.6 0 4.2-2.2 6.1-8.5 8-9.9 14.7-10.4l6.3-.5v-7l-6.2-.1c-5-.1-6.7-.6-9.1-2.6-1.6-1.3-4.3-3-6.1-3.7-2.2-1-3.1-2-3.1-3.7 0-2.9 4.2-7.2 7.8-8 7-1.5 7.7-2 7.7-5 0-2.8-.2-2.9-4.8-3.2-3.4-.2-6 .3-8.8 1.8-4.7 2.4-7.9 1.4-7.9-2.5 0-3.7 1-5.5 4-7 3.8-2 7.7-2.1 13.3-.6 5.4 1.5 8 .4 7.5-3.3-.8-5.5-15.7-7.6-23.9-3.3z"/><path d="M123.5 105c-2.8 1.1-4.4 3.1-8.5 10.9l-3.5 6.6-4.7-.1c-6.4 0-7.8-1.5-7.8-7.9 0-6.2-1.9-8.4-7.9-9.2-5.9-.8-14 3.3-16.9 8.6-5.1 9-.8 24.5 5.2 18.6 1.2-1.3 1.4-2.8 1-7.4-.6-5.1-.4-6 1.7-8.4 1.5-1.7 3.8-3 6.1-3.4l3.7-.5.3 6.3c.3 5.9.5 6.5 3.5 8.5 1.9 1.2 5.7 2.4 9.2 2.8 8.9 1 12-.8 16.5-9.3 4.8-9.2 5.9-10 9.7-7.2 5 3.7 8 1.6 6.5-4.5-1.1-4.2-8.7-6.6-14.1-4.4z"/><path d="M125.3 128.6c-4 2-7.5 7.5-8.3 12.8-.5 3.7-.8 4.1-4 4.7-1.9.3-5.7 1.8-8.4 3.2-2.7 1.5-5.5 2.7-6.2 2.7-2.5 0-5.4-5.1-5.4-9.6 0-5.8-.8-7.4-3.6-7.4-7.3 0-5.1 18.2 2.8 23 4.7 2.8 9.3 2.5 16.7-1.5 6.2-3.3 6.4-3.3 9.7-1.7 1.8 1 4.3 3.5 5.5 5.7 4.1 7.5 7.1 9.3 9.9 6 1.8-2.1.7-5.3-4.3-12.6-2.4-3.5-4.7-7.4-5.1-8.5-1-3.4 1-7.1 5.4-9.9 4.3-2.7 4.9-4.4 2.4-6.9-1.9-2-3.1-2-7.1 0zM160.6 128.5c-2.5 2.5-1.9 4.3 2.4 7 7.5 4.7 7.6 8.5.4 18.6-4.8 6.8-5.9 12.4-2.8 13.6 2.4.9 4.6-.8 7.7-6.3 1.7-2.9 4.2-5.6 6.2-6.6 3.2-1.6 3.4-1.6 10.1 1.8 7.9 4 11.9 4.3 16.4 1.1 4.6-3.1 7-8.1 7-14.4 0-6.6-.7-8.3-3.4-8.3-3.4 0-4.6 2-4.6 7.7 0 4-.5 5.8-2 7.3-2.6 2.6-3.5 2.5-9.5-.7-2.8-1.5-6.6-2.9-8.5-3.2-3.2-.6-3.6-1-4.1-4.6-1-7.6-4.9-12.5-11-14-1.8-.4-3.1-.1-4.3 1zM201.5 164.9c-.4 1.3.3 3.6 1.9 6.4 1.4 2.4 2.6 5.3 2.6 6.4 0 3.5-3.2 6.4-7.8 7l-4.2.6v-4.6c0-4.3-1.8-7.7-4-7.7-2.1 0-3.9 3.5-5 10-1.5 8.7-4.3 13.1-9.5 14.8-3.5 1.2-4.4 1.1-7.1-.3-4.3-2.3-6.8-1.7-7.2 1.7-.3 2.2.3 3.1 3 4.7 5.7 3.4 6.1 4 5.6 9.1-.3 3.3-1.5 6.2-3.8 9.4l-3.4 4.7 2.2 2.2c2.1 2 2.4 2.1 5 .7 4-2.2 7.4-9.9 8-17.9.4-6.6.5-6.7 4.4-9 2.1-1.2 5.1-3.9 6.6-6 2.5-3.7 3-3.9 8.8-4.3 4.8-.3 7-1 9.8-3.1 7.1-5.5 8.3-11.9 3.9-20.8-2.4-4.6-3.2-5.4-6-5.7-2.4-.2-3.3.1-3.8 1.7z"/><path d="M180.676 329.293c-7.89-3.232-13.827-6.702-20.233-11.824-6.796-5.434-25.104-23.467-26.674-26.273l-1.007-1.798 4.745-2.999c9.512-6.012 9.373-5.89 9.074-8.039-.066-.474-1.39-2.94-2.943-5.48-1.553-2.54-2.824-4.82-2.824-5.064 0-.655 7.538 3.418 9.76 5.272 1.866 1.559 1.916 1.719 2.387 7.76.565 7.232 1.692 11.998 3.976 16.805 4.435 9.333 10.283 12.92 13.793 8.459 1.435-1.825 1.5-5.63.131-7.706-.552-.837-1.855-2.71-2.896-4.164-2.627-3.667-3.572-6.718-3.562-11.497.01-5.285.736-6.613 4.631-8.48 4.484-2.15 6.863-5.01 6.863-8.248 0-2.071-.286-2.75-1.582-3.77-1.912-1.504-3.936-1.304-8.466.84-1.71.808-3.598 1.47-4.196 1.47-1.153 0-8.159-2.676-8.931-3.412-.523-.498 4.7-4.597 8.142-6.39 4.324-2.255 4.299-2.428-1.104-7.571-7.619-7.254-20.652-18.806-24.05-21.317-1.699-1.257-5.193-3.265-7.764-4.464-5.008-2.335-23.97-9.182-25.43-9.182-.765 0-3.077 4.444-7.887 15.165-.711 1.586-.844 1.305-3.49-7.37-5.453-17.885-6.687-26.854-6.687-48.614 0-57.967 12.888-89.468 43.308-105.853 4.337-2.337 6.619-2.902 3.522-.873-3.01 1.973-6.572 6.287-7.717 9.347-2.469 6.598-1.028 13.445 4.24 20.15 3.095 3.94 3.747 6.429 2.479 9.463-.945 2.26-1.159 2.347-8.243 3.324-6.392.882-12.043 3.228-15.275 6.343-2.404 2.318-2.76 2.96-2.76 4.99 0 3.012 1.76 5.359 4.019 5.359.899 0 4.568-1.147 8.153-2.548 9.887-3.863 17.403-4.723 20.084-2.296.518.469 2.405 1.09 4.193 1.381 1.788.291 3.506.687 3.818.88 1.214.75.445 2.943-2.397 6.838-6.592 9.036-7.351 14.396-2.372 16.759 2.796 1.327 4.424.47 7.924-4.166 7.302-9.674 9.781-11.288 18.8-12.238 2.946-.31 5.937-.569 6.65-.574 1.237-.01 1.293-.219 1.293-4.82v-4.811l-6.758-.4c-8.576-.507-10.134-.933-13.974-3.823-1.725-1.297-4.83-3.22-6.902-4.271-4.625-2.349-5.57-3.918-4.253-7.07 1.873-4.484 6.21-7.563 12.738-9.04 5.84-1.322 7.072-2.427 7.072-6.343 0-2.478-.224-3.221-1.113-3.697-1.629-.871-11.452-.693-13.84.251-8.188 3.238-8.949 3.424-10.812 2.653-2.063-.855-2.628-2.156-2.495-5.745.136-3.647 1.857-6.05 5.6-7.822 4.683-2.214 7.804-2.384 15.67-.853 9.182 1.788 11.59 1.052 11.59-3.543 0-2.98-1.963-5.006-6.62-6.827-2.9-1.133-4.535-1.353-10.346-1.386-3.795-.022-8.066.161-9.49.408l-2.587.448 2.013-.917c8.288-3.776 24.715-7.067 37.814-7.576l8.77-.341v139.554c0 76.755-.193 139.543-.43 139.53-.238-.014-2.551-.893-5.142-1.954zm-2.181-106.837c1.298-1.543 1.506-2.24 1.275-4.288-.314-2.784-2.249-6.731-6.158-12.561-5.077-7.571-7.493-12.086-7.493-14.003 0-3.601 2.724-7.285 8.34-11.282 4.99-3.552 5.467-5.616 2.08-9.003-2.689-2.689-3.824-2.769-8.407-.593-6.006 2.851-10.335 8.79-12.111 16.616-.486 2.138-1.009 4.312-1.162 4.831-.306 1.032-1.706 1.673-6.634 3.037-1.776.492-6.176 2.318-9.777 4.059-3.602 1.74-6.852 3.167-7.223 3.17-1.387.01-4.103-2.942-5.33-5.795-.842-1.957-1.418-4.867-1.71-8.637-.522-6.729-1.277-7.993-4.778-7.993-3.076 0-4.176.72-5.267 3.446-1.833 4.58-.844 14.07 2.064 19.812 3.988 7.874 11.07 11.356 19.474 9.578 1.718-.363 6.275-2.206 10.127-4.096 3.851-1.889 7.418-3.435 7.926-3.435 1.7 0 5.18 1.766 7.142 3.624 1.068 1.012 3.559 4.319 5.534 7.348 4.095 6.28 5.962 8.008 8.653 8.008 1.414 0 2.271-.46 3.435-1.843zm-73.902-44.461c2.653-1.372 2.944-2.51 2.776-10.861-.134-6.645-.014-7.87.909-9.28 2.518-3.842 6.395-6.17 11.317-6.792l2.65-.335.403 7.31c.296 5.341.675 7.776 1.408 9.035 2.34 4.017 9.162 6.596 18.637 7.045 10.41.494 13.188-1.362 19.845-13.263 2.128-3.803 4.696-7.8 5.708-8.88 2.12-2.264 2.512-2.224 7.462.757 3.713 2.236 5.245 2.437 7.103.932 1.066-.863 1.285-1.602 1.262-4.25-.016-1.765-.445-4.008-.956-4.995-1.934-3.741-8.058-6.21-14.054-5.666-6.91.627-9.305 3.019-16.459 16.442l-4.026 7.554-5.234.006c-9.174.01-10.383-1.106-11.102-10.255-.677-8.614-2.47-10.895-9.534-12.125-9.711-1.691-21.065 4.378-25.052 13.39-3.263 7.378-2.058 20.626 2.18 23.96 1.74 1.367 2.547 1.413 4.757.27zM202.927 191.535V51.722l2.732.305c1.503.168 6.614.579 11.359.913 8.982.633 16.16 1.487 17.033 2.026 1.737 1.074-.3 3.705-5.53 7.143-3.865 2.54-4.314 3.212-4.314 6.46 0 3.463-.858 5.537-5.194 12.552-1.888 3.055-3.433 5.957-3.433 6.449 0 .491 1.31 4.605 2.91 9.142 1.601 4.536 3.676 10.819 4.61 13.96 1.864 6.264 1.776 6.628-1.598 6.645-1.013.005-2.473.296-3.243.647-2.816 1.283-3.552 5.759-1.365 8.301 1.196 1.39 1.823 1.566 6.998 1.958 6.65.502 6.166.115 11.068 8.878 1.79 3.2 4.089 6.659 5.108 7.687 2.4 2.42 4.642 2.444 13.404.14 3.6-.947 6.663-1.722 6.804-1.722.142 0-.253.841-.877 1.87-1.349 2.222-2.41 6.915-2.41 10.667-.003 5.947-3.287 8.68-9.498 7.904-4.4-.55-6.172-2.265-10.208-9.88-6.372-12.022-9.637-14.903-16.814-14.838-10.655.096-18.273 8.996-12.315 14.388 1.584 1.433 4.168 1.142 7.736-.871 5.522-3.117 6.292-2.631 11.725 7.4 3.734 6.893 6.868 11.043 9.645 12.769 2.018 1.255 2.745 1.354 9.377 1.283 8.001-.085 12.353-.977 16.427-3.364 4.797-2.811 6.423-7.088 5.64-14.833l-.51-5.047 2.593.345c3.45.459 9.74 3.604 11.17 5.585.956 1.324 1.232 3.04 1.662 10.352.551 9.388 1.032 10.953 3.559 11.587 3.282.824 6.801-2.724 7.547-7.61.226-1.479.117-5.657-.241-9.284-.84-8.498-2.735-12.726-7.226-16.116-1.651-1.247-3.961-2.664-5.133-3.15a451.614 451.614 0 0 1-4.288-1.807l-2.156-.925 3.691-1.07c2.03-.59 3.896-1.275 4.146-1.524.25-.25-1.733-8.993-4.406-19.429-2.673-10.436-4.862-19.383-4.864-19.882-.003-.64 2.147-1.698 7.282-3.583 5.931-2.178 7.448-2.544 8.151-1.968 1.347 1.104 5.04 9.394 7.525 16.896 4.501 13.585 6.496 25.618 7.576 45.701.86 15.97.366 31.891-1.231 39.751-1.467 7.222-6.355 22.006-10.224 30.926-3.084 7.11-8.077 17.829-8.305 17.829-.077 0-.05-2.155.06-4.788.164-3.974-.049-5.498-1.254-8.963-1.857-5.34-4.839-10.287-6.825-11.321-1.898-.989-6.876-1.064-7.821-.119-1.474 1.474-.756 5.215 2.185 11.388 3.048 6.396 3.394 8.258 2.025 10.905-1.647 3.183-5.318 5.006-12.233 6.072l-2.445.377v-4.957c0-8.619-3.067-13.032-7.433-10.695-1.57.84-3.318 5.488-5.194 13.81-2.566 11.378-5.545 15.81-12.337 18.35-4.136 1.548-5.124 1.526-8.826-.197-6.146-2.862-8.817-2.488-9.98 1.397-1.064 3.549-.061 5.17 5.313 8.59 5.417 3.449 6.49 5.258 5.93 10-.599 5.077-1.992 8.445-5.798 14.02-2.012 2.947-3.659 5.598-3.659 5.89 0 .79 5.211 5.23 6.139 5.23 1.797 0 4.63-1.693 6.732-4.022 4.184-4.637 6.756-12.013 7.81-22.399.684-6.742 1.271-7.993 4.783-10.177 4.118-2.562 7.184-5.299 9.926-8.863 1.447-1.88 3.181-3.712 3.855-4.073.674-.36 4.172-.999 7.773-1.417 7.937-.924 11.612-2.448 15.663-6.499 1.586-1.586 2.884-2.753 2.884-2.593 0 .614-7.278 12.9-11.378 19.209-15.279 23.504-34.332 44.25-50.801 55.314-4.047 2.718-13.134 7.42-15.895 8.225l-1.294.377zm16.34 31.006c1.101-.967 3.081-3.49 4.4-5.607 4.171-6.697 9.778-11.615 13.243-11.615.686 0 4.513 1.54 8.506 3.422 3.993 1.882 8.495 3.726 10.006 4.098 3.422.842 7.478.482 10.481-.932 3.104-1.46 7.817-6.275 9.34-9.54 1.747-3.746 2.655-9.685 2.292-14.992-.411-5.995-1.299-7.361-4.781-7.361-4.916 0-5.773 1.421-6.498 10.785-.466 6.017-1.307 8.197-3.912 10.135-.796.593-2.049 1.078-2.782 1.078-.734 0-4.395-1.437-8.136-3.193-3.741-1.757-8.542-3.63-10.669-4.164-2.126-.534-4.155-1.319-4.509-1.745-.353-.426-1.135-3.029-1.737-5.784-1.89-8.643-4.664-12.83-10.404-15.698-4.76-2.38-7.976-2.406-10.297-.085-1.228 1.229-1.68 2.232-1.68 3.73 0 1.794.361 2.316 2.92 4.213 7.998 5.931 10.263 9.046 9.419 12.951-.566 2.62-2.782 6.897-6.147 11.867-3.804 5.62-6.316 11.097-6.641 14.482-.23 2.381-.066 2.95 1.216 4.232 1.955 1.955 3.925 1.87 6.37-.277z" style="fill:#fff;stroke-width:.575124" transform="scale(.75)"/></svg>