<svg xmlns="http://www.w3.org/2000/svg" width="317" height="317" version="1.0" viewBox="0 0 238 238"><path d="M61 60 4 119l58 58 58 58 58-58 58-58-58-58-59-58-58 57zm54 67v79l-4-1-8-5c-5-3-18-16-18-18l4-3 4-2-2-4-2-4 4 2 4 4c-1 3 1 11 3 14s5 4 7 2c1-2 1-3-1-5-5-7-5-11 0-13 3-2 4-5 2-6H98l-2-1 3-3 3-3-6-5-8-8-19-8-4 4c0 2-2 4-2 3l-3-8c-2-5-2-9-2-23 0-34 7-52 26-60 7-4 19-7 27-7h4v79zm21-78 6 1-3 4-3 4c1 1 0 3-1 6l-3 4 2 7 3 9-2 1-3 2c-2 2 1 4 5 4 3 0 3 1 6 5l3 5h6l4-1-1 6c0 5 0 5-5 5h-4l-3-6c-4-8-10-10-15-5-2 2-2 3 0 5h4c3-3 3-2 7 4 3 7 6 8 12 8 7-1 10-3 10-9 0-4 0-4 3-4 4 0 6 4 6 8 0 6 0 7 2 7 3 0 4-3 4-8s-3-9-8-12l-4-2h3l3-1-3-11-3-11 5-2 4-2 3 5c4 10 5 18 5 38 1 17 1 18-3 26l-5 12-2 5-1-4c0-5-3-10-6-11-3 0-3 2-1 8l3 4-3 3-5 2c-2 0-3 0-2-3 0-3-2-7-4-6l-2 5c-2 11-8 17-14 13l-3-1c-3 1-2 5 2 7s4 6 0 11l-2 6c1 2 4 2 6 0 3-2 5-10 5-14l1-4 5-4c3-3 5-4 8-4l8-3 3-3-2 4c-12 21-28 38-39 42l-4 2V48h4l8 1z"/><path d="M85 55c-6 4-8 10-3 16l2 5c0 3 0 3-3 3-4 0-11 3-12 5v3c1 2 2 2 6 0 5-2 12-3 13-1l2 1h2c1 1 0 2-2 5-3 3-4 7-1 8 1 1 3-1 6-4 4-5 5-5 9-5 3 0 4-1 5-2 1-2-2-4-7-4l-5-1-4-3c-2-1-3-2-3-4s2-4 7-6c3 0 5-1 5-2 0-4-3-5-9-3s-8 2-8-2 5-6 14-5c3 1 4 1 5-1 2-5-12-7-19-3z"/><path d="m102 98-5 7c-3 6-3 6-7 6-4-1-4-1-5-5-1-6-2-8-7-8s-10 2-12 6c-3 6-2 15 2 15 2 0 2-1 2-6s3-9 7-9c2 0 2 0 2 4 0 5 2 7 6 8 8 2 15 0 17-8 2-5 3-6 7-4 3 2 4 2 5 0 0-3-1-5-4-6h-8z"/><path d="M104 116c-3 1-6 6-6 10 0 1 0 2-2 2l-6 3c-8 3-9 2-10-7-1-4-4-5-5-3-2 3-1 10 1 13 4 5 8 6 15 3 5-3 6-3 8-2l4 4c2 4 5 6 6 6 3-1 2-4-1-10-5-7-5-11 0-14l3-3-3-4-4 2zm27-1c-2 0-1 5 1 6 3 0 5 5 5 7l-5 7c-3 6-4 9 0 10l4-4 5-6c2-1 3-1 8 1 7 4 9 4 13 0 3-2 3-4 4-9l-1-7c-3-1-5 2-5 6s-2 7-4 7l-5-2-7-3c-1 0-2-1-2-3 0-5-6-12-11-10z"/><path d="M150 273c-7-3-13-6-19-12l-17-17 1-2 5-3c5-3 5-3 3-5l-4-8 8 4 1 1 1 5c0 13 6 23 12 20 3-2 3-4 0-8-3-5-4-8-4-11s1-4 4-7c3-2 4-3 4-5 0-4-2-4-7-2-4 1-5 1-8-1l-2-1 4-3 4-4c0-1-17-17-21-19-4-3-20-10-23-10-2 0-2 1-5 6l-3 3c-1 0-6-14-6-21v-45c4-27 13-43 30-53 5-3 6-3 2 1-3 3-4 5-5 9l3 9c3 5 5 9 3 10l-3 1c-5 0-14 4-16 6-1 2-1 5 1 6l1 1 6-1c8-4 14-4 17-2l2 1h3c1 2 1 3-2 6s-4 6-4 8c0 3 1 4 3 4s3-1 9-7c5-5 5-5 11-6h5c2-1 2-5-1-7l-6-1c-5 0-7-1-8-2l-4-3c-4-2-5-3-5-5 0-3 3-5 10-7 4-2 5-3 5-5 0-3-1-4-5-4l-8 2-5 1c-2 0-3-2-3-4l1-4c3-3 5-3 12-3l7 1 4-1c2-2 0-6-5-7a34 34 0 0 0-16-1 88 88 0 0 1 30-6l6-1v210l-3-1zm-3-81c2-1 1-5-4-12-3-7-5-11-4-14l6-6 3-2-3-5-1-1-4 1c-6 3-9 7-10 14 0 3 0 3-3 4l-7 3-7 2c-4 1-6-2-6-9-1-5-3-8-5-7-3 0-3 2-3 8l1 8c1 4 5 8 8 9 4 1 7 0 15-3 6-3 7-3 10-1l5 6c3 6 7 8 9 5zm-54-34 1-6c0-5 0-7 2-10 2-1 3-3 5-3 3 0 4 1 4 5 0 8 4 11 14 12l8-1c4-1 7-5 8-8 4-9 5-10 10-7 4 2 4 2 5 1 2-1 2-4 2-6-1-4-7-6-12-6-4 1-7 4-11 11-4 8-4 8-10 7-4 0-5 0-6-6 0-5-1-7-3-9s-10-2-15 0c-3 2-7 5-8 9-2 5-2 13 0 16l4 2 2-1zm73 11V64l6 1 16 2c1 1 1 1-3 5-3 3-4 4-3 5l-4 9-2 5 3 11 3 11h-2c-2 0-4 2-5 3-1 3 2 5 7 6 4 0 5 1 8 7s4 6 6 6l6-1 6-1-1 4-1 6-1 3-8 2h-2l-2-5c-6-12-12-16-19-13-6 3-8 7-4 10h5c5-3 5-2 9 6 5 8 8 10 15 10 8 0 13-2 15-6l1-6c0-5 1-5 3-5l6 3c2 1 2 5 2 10 0 6 0 7 3 7 2 0 3-1 3-2 2-2 3-4 3-9 0-4 0-5-2-8-2-4-4-6-9-8s-5-2 0-3l3-2-8-28 4-2 5-2 3-1 1 3c8 17 9 23 9 51 1 22 0 26-2 32l-10 24-2 3v-3c0-8-4-16-9-16-4 0-4 4 0 11l2 5-2 2c-3 3-6 4-8 4h-2v-3c0-5-2-8-4-8l-2 1c-2 0-2 2-3 7-2 7-4 11-6 13-3 4-6 4-11 2-4-1-6-1-7 1-2 2 0 5 5 9 5 3 5 6 1 13-3 4-4 8-3 9 0 1 1 2 3 2a6 6 0 0 0 4-1c3-3 7-12 7-19v-5l2-1 6-5 6-5 5-1c5-1 8-3 11-5l3-1-13 19c-10 15-21 26-31 34-5 3-7 5-13 7l-2 1zm13 22 4-5c2-4 6-6 8-6l7 2c10 4 13 4 19-1 3-3 4-5 4-11 1-7 0-10-3-10s-4 2-5 8l-1 6-4 3-7-3-8-3c-3-1-3-2-4-5l-1-5c-2-5-7-8-11-8-3 0-4 0-4 3s1 4 3 5c3 2 6 5 6 8l-5 10c-4 6-5 8-5 11l1 3c2 1 4 0 6-2z" style="fill:#fff;stroke-width:.473632" transform="scale(.75)"/></svg>