<svg xmlns="http://www.w3.org/2000/svg" width="317.333" height="317.333" version="1.0" viewBox="0 0 238 238"><path d="M61.2 60.4C29.7 92 4 118.2 4 118.7c0 .4 26 26.8 57.8 58.6l57.7 57.7 58-58 58-58-58-58c-31.9-31.9-58.3-58-58.6-58-.3 0-26.3 25.8-57.7 57.4zM115 127v79l-3.7-1.5c-2.1-.9-5.6-2.8-7.8-4.2C98.2 196.8 85 184 85 182.4c0-.8 1.8-2.3 4.1-3.4l4-2.1-2.1-3.6c-1.1-1.9-1.9-3.7-1.7-4 .3-.2 2.1.6 4.2 1.8 2.8 1.7 3.5 2.7 3.1 4.2-.8 3 1.1 10.5 3.5 13.8 2.2 3.2 5 3.7 6.9 1.4.9-1.1.7-2.1-1.3-4.7-4.8-6.4-4.6-10.7.4-13.3 2.9-1.6 3.9-4.8 1.8-6-.5-.4-2.4-.1-4 .5-2.4 1-3.6 1-5.7.1l-2.7-1.3 3.4-2.7 3.3-2.7-5.8-5.6c-3.3-3.1-7.2-6.7-8.9-8-2.8-2.3-16.1-7.8-18.9-7.8-.7 0-2.1 1.8-3.1 4-1 2.3-2.2 3.7-2.7 3.2s-1.8-4-3-7.8c-1.9-5.9-2.2-9.3-2.2-23.4 0-33.9 7.8-51.6 26.7-60.5 6.9-3.3 19.2-6.2 27-6.4l3.7-.1v79zm21.3-78.1c2.6.4 5 1.1 5.5 1.5.4.4-.8 2-2.7 3.5-2.1 1.7-3.1 3.3-2.7 4 .4.6-.4 3.2-1.9 5.7l-2.7 4.5 2.3 7.2c1.3 4 2.5 7.8 2.7 8.4.2.7-.5 1.3-1.6 1.3s-2.5.7-3.2 1.5c-1.9 2.2.5 4.5 4.6 4.5 3 0 3.6.5 5.9 4.9 1.3 2.7 2.8 5.2 3.3 5.5.5.3 3.2-.1 6-.9 3.7-.9 5-1 4.5-.2-.4.7-1 3.2-1.3 5.7-.5 4.5-.5 4.5-4.7 4.8l-4.2.3-3-5.9c-4.2-8.3-9.8-10.3-15.3-5.4-2.2 1.9-2.3 3.6-.3 5.2 1.2 1 2 .9 4-.4 3.2-2.1 3.9-1.6 7 4.5 3.4 6.5 6.2 8.3 12.5 7.7 7.4-.7 10-2.9 10-8.3 0-4.1.2-4.5 2.5-4.5 4 0 6.7 3.5 6.4 8.3-.3 6.1-.1 6.7 2.1 6.7 2.6 0 4-2.9 4-8.3s-2.7-9.2-8.2-11.7l-3.9-1.7 3-.6 3-.6-3-11.2c-1.7-6.1-2.9-11.2-2.7-11.3.2-.1 2.2-1 4.6-1.9l4.4-1.6 2.3 5.2c4.7 10.1 5.9 17.8 5.9 37.2.1 17.8.1 18.1-3 26-1.7 4.4-4.2 10.1-5.5 12.7l-2.4 4.8-.1-3.9c-.2-5-3.3-10.5-6.2-10.9-3.3-.5-3.7 2.3-1.1 7.4l2.4 4.5-2.8 2.5c-1.5 1.3-3.8 2.4-5.1 2.4-1.9 0-2.2-.4-1.9-2.8.5-3.3-1.8-6.8-4-5.9-.9.3-1.9 2.3-2.2 4.4-2 11.7-7.3 16.9-13.4 13.1-1-.6-2.6-.8-3.5-.5-2.8 1.1-1.8 4.4 1.9 6.6 4.4 2.5 4.6 6.1.9 11.6-1.4 2-2.4 4.5-2.2 5.4.5 2.3 3.6 2.6 5.8.6 2.5-2.3 5.3-10.9 4.8-14.6-.3-2.1 0-3 1.3-3.4 1-.3 3.3-2.3 5.2-4.4 2.8-3.1 4.3-3.9 8-4.3 2.5-.3 6-1.6 7.8-2.9l3.3-2.4-2.4 4c-12.2 20.4-28.1 37.3-39.4 42L124 206V48l3.8.1c2 0 5.8.4 8.5.8z"/><path d="M85.4 54.9c-6.8 4.1-8.3 10.6-3.9 15.9 1.4 1.7 2.5 4.2 2.5 5.6 0 2.2-.4 2.6-3 2.6-4 0-10.8 2.8-12 5-.6 1.1-.5 2.3.3 3.4 1.2 1.6 1.5 1.6 5.7-.3 4.9-2.2 11.5-2.8 12.5-1 .4.6 1.3.8 2 .5.7-.2 1.7 0 2.3.6.8.8.3 2.1-1.8 4.5-3.3 3.7-3.9 7.7-1.4 8.7 1.1.4 3.1-1 6.3-4.4 4.2-4.5 5.1-5 8.9-5 2.9 0 4.5-.5 4.8-1.5 1-2.6-1.6-4.5-6.1-4.5-2.4 0-4.8-.6-5.4-1.4-.6-.8-2.5-1.9-4.1-2.6-2.1-.9-3-1.9-3-3.5 0-2.9 2.2-4.7 7.4-6 2.9-.8 4.1-1.6 4.1-2.9 0-3.5-2.9-4.2-8.9-2.2-6 2.1-7.6 1.6-7.6-1.9 0-4.6 5.3-6.5 13.7-5 3.6.6 4.4.5 5-1 1.9-5-11.7-7.6-18.3-3.6z"/><path d="M102.3 98.2c-1.2.6-3.6 3.7-5.3 7-3.2 5.9-3.2 5.9-7.3 5.6-4.2-.3-4.2-.3-4.7-4.9-.7-6.2-2.3-7.9-7.2-7.9-5.1 0-9.4 2.3-11.8 6.3-3.4 5.4-2.1 14.7 2 14.7 2.2 0 2.4-.6 2-6.3-.2-4.5 3-8.7 6.7-8.7 2 0 2.3.5 2.3 3.6 0 5 1.5 7.2 5.8 8.4 8.6 2.4 14.8-.3 17.2-7.5 1.6-5 3.4-6.1 6.5-4.1 3.2 2.1 4.2 2 5-.3.8-2.6-.2-4.7-3.1-6-3-1.3-5.2-1.3-8.1.1z"/><path d="M104.3 115.5c-3.5 1.5-6.3 6-6.3 10 0 1.7-.5 2.5-1.8 2.5-.9 0-3.9 1.1-6.5 2.6-7.3 3.8-9.2 2.6-9.9-6.6-.3-3.7-3.3-5.5-4.9-2.8-1.7 2.6-1 9.4 1.4 12.9 3.5 5.2 8.1 6 14.7 2.5 4.6-2.4 5.5-2.6 8.1-1.4 1.5.7 3.4 2.5 4 4 1.5 3.6 4.5 6.2 6.4 5.5 2.4-1 1.8-3.8-2-9.7-4.7-7.4-4.7-11.4 0-14.1 1.9-1.2 3.5-2.5 3.5-2.9 0-.7-2.8-4.1-3.3-4-.1.1-1.6.7-3.4 1.5zM131.3 114.7c-2.1.7-1.5 5.1.7 5.8 2.9.9 5.3 5 4.5 7.5-.3 1.1-2.2 4.3-4.1 7.2-3.8 5.6-4.1 9.1-.9 9.6 1.5.2 2.7-.8 4.3-3.6 1.2-2.2 3.4-4.8 4.9-5.7 2.5-1.7 2.8-1.7 8 .9 6.8 3.3 9.5 3.3 13.5-.3 2.7-2.4 3.2-3.6 3.6-8.9.4-5.1.1-6.3-1.2-6.8-2.5-1-4.6 1.5-4.6 5.3 0 4.3-1.6 7.3-3.8 7.3-.9 0-3.5-1.2-5.7-2.5-2.2-1.4-5-2.5-6.2-2.5-1.8 0-2.3-.6-2.3-2.8 0-5.6-6.5-11.9-10.7-10.5z"/><path d="M150.141 273.103c-7.176-3-12.668-6.458-19.18-12.074-5.718-4.93-15.867-15.099-16.787-16.819-.607-1.132-.57-1.341.428-2.403.601-.64 2.823-2.055 4.936-3.143 5.349-2.756 5.19-2.557 3.81-4.741-1.702-2.697-4.12-7.557-3.88-7.797.34-.34 5.692 2.503 7.393 3.928l1.585 1.327.132 4.967c.323 12.203 6.796 22.16 12.493 19.213 3.083-1.594 3.145-3.414.263-7.696-3.444-5.117-4.568-7.642-4.633-10.405-.071-3.021.81-4.358 4.66-7.073 2.984-2.104 4.001-3.508 4.027-5.561.042-3.366-1.953-3.947-7.538-2.196-3.369 1.055-4.748.938-7.948-.677l-2.004-1.012 4.234-3.311c2.33-1.821 4.243-3.44 4.254-3.597.064-.928-17.227-16.933-20.922-19.367-4.79-3.154-20.503-9.476-23.552-9.476-1.632 0-2.291.733-4.898 5.448-1.152 2.083-2.392 3.788-2.756 3.788-1.451 0-5.875-14.152-6.65-21.271-.758-6.976-.261-37.243.735-44.734 3.614-27.176 12.54-43.176 29.612-53.083 5.091-2.954 5.824-2.887 2.464.224-3.523 3.261-4.817 5.588-5.15 9.253-.302 3.328.605 6.235 2.933 9.407 3.29 4.483 4.43 8.58 2.83 10.18-.465.466-1.578.744-2.978.744-4.734 0-13.634 3.407-15.673 6-1.37 1.74-1.284 4.417.191 6.009.64.689 1.487 1.253 1.885 1.253.398 0 2.806-.838 5.351-1.863 7.714-3.105 14.68-3.736 16.746-1.518.763.82 1.291.962 2.71.736 1.397-.224 1.941-.084 2.627.674 1.11 1.227.82 2.07-1.83 5.286-2.83 3.436-4.021 5.983-4.021 8.602 0 2.442 1.004 3.713 2.933 3.713 1.536 0 2.808-.983 8.958-6.922 5.393-5.208 5.127-5.077 11.444-5.62 1.763-.15 3.718-.508 4.344-.793 2.341-1.067 1.923-4.707-.72-6.268-.874-.516-3.135-1-5.883-1.26-4.717-.447-7.137-1.193-8.26-2.549-.377-.453-2.12-1.546-3.873-2.43-3.581-1.803-4.68-3.036-4.68-5.25 0-3.019 2.975-5.332 9.35-7.268 4.542-1.38 5.806-2.4 5.806-4.693 0-2.842-1.687-4.096-5.37-3.99-1.708.05-4.859.688-7.595 1.54-2.572.8-5.183 1.455-5.802 1.455-1.846 0-3.02-1.586-3.02-4.082 0-1.899.235-2.422 1.793-3.98 2.467-2.467 4.77-3.012 11.232-2.655 2.865.158 6.304.42 7.641.584 2.08.254 2.577.152 3.434-.706 2.526-2.526.25-6.002-4.993-7.621-3.492-1.079-10.935-1.316-14.06-.448-1.002.278-1.929.398-2.06.266-.454-.454 10.523-3.659 17.379-5.075 4.323-.892 9.105-1.526 12.906-1.71l6.04-.292v104.98c0 57.74-.054 104.973-.12 104.962-.064-.011-1.29-.51-2.723-1.11zm-2.79-80.86c1.74-1.74.689-5.113-3.936-12.645-3.86-6.288-5.172-10.545-4.178-13.557.564-1.708 2.033-3.142 6.105-5.953 1.32-.912 2.516-1.949 2.658-2.304.314-.784-1.103-3.16-2.917-4.892l-1.336-1.275-3.789 1.784c-5.786 2.726-8.785 6.909-9.503 13.256-.367 3.24-.656 3.606-3.143 3.988-.964.148-4.303 1.467-7.42 2.93-3.117 1.465-6.378 2.778-7.246 2.919-3.29.534-5.167-2.591-5.875-9.784-.472-4.788-2.499-7.574-5.046-6.935-2.333.586-2.976 2.36-2.946 8.127.022 4.312.22 5.7 1.143 8.049 1.41 3.588 5.495 7.823 8.358 8.666 4.168 1.226 6.916.69 14.533-2.838 5.796-2.684 6.741-2.722 10.369-.422 1.613 1.023 2.733 2.347 4.465 5.277 3.5 5.923 7.233 8.08 9.705 5.608zM93.29 157.75c.27-.504.49-3.142.49-5.863 0-5.167.465-7.035 2.346-9.426 1.459-1.854 3.356-3.086 5.322-3.455 2.643-.496 3.699.822 3.702 4.622.007 8.334 3.867 11.614 14.206 12.07 4.34.193 5.333.085 7.797-.846 3.433-1.296 6.842-4.588 8.13-7.85 3.473-8.802 4.692-9.774 9.331-7.441 3.91 1.966 4.497 2.132 5.547 1.57 1.34-.717 2.094-4.026 1.424-6.26-1.02-3.404-6.52-6.042-11.248-5.394-4.372.6-6.96 3.062-11.268 10.717-4.233 7.524-4.546 7.757-9.78 7.27-4.628-.43-4.97-.821-5.828-6.677-.757-5.171-1.378-6.818-3.221-8.539-2.391-2.233-9.982-2.287-14.913-.105-3.141 1.389-6.908 5.253-8.438 8.656-2.372 5.273-2.115 12.82.557 16.327 1.01 1.327 1.46 1.54 3.263 1.54 1.582 0 2.21-.223 2.58-.916zM165.771 169.245V64.268l6.513.3c6.191.286 14.234 1.585 16.03 2.59.726.406.33.99-3.088 4.56-3.296 3.441-3.874 4.276-3.632 5.243.398 1.583-.61 4.262-3.458 9.198-1.33 2.304-2.419 4.484-2.419 4.842 0 .36 1.48 5.234 3.287 10.833 2.977 9.22 3.214 10.236 2.515 10.772-.425.326-1.211.593-1.748.594-1.43.002-3.99 1.71-4.613 3.076-1.27 2.788 1.41 4.862 6.87 5.32 4.141.345 4.78.914 8.143 7.246 3.115 5.865 3.75 6.617 5.6 6.617.833 0 3.843-.527 6.69-1.17 2.847-.643 5.262-1.085 5.366-.98.103.103-.136 1.642-.532 3.419-.397 1.777-.867 4.447-1.045 5.934-.179 1.488-.571 3.042-.873 3.455-.564.77-5.043 1.629-8.594 1.647l-1.907.01-2.288-4.618c-5.898-11.903-11.555-15.924-18.176-12.918-6.323 2.87-8.245 7.017-4.586 9.895 1.71 1.346 2.83 1.264 5.655-.411 4.1-2.432 4.69-2.045 8.987 5.894 4.333 8.006 7.561 10.356 14.213 10.345 8.042-.013 13.193-2.038 15.25-5.995.39-.748.855-3.37 1.035-5.828.343-4.7.68-5.342 2.801-5.356 1.596-.01 4.42 1.288 5.917 2.722 1.894 1.814 2.729 5.164 2.68 10.753-.054 6.197.042 6.41 2.89 6.41 1.886 0 2.45-.21 3.238-1.214 1.6-2.033 2.165-4.487 2.18-9.45.012-4.412-.096-4.966-1.53-7.88-1.852-3.765-4.171-5.805-9.56-8.412-4.136-2-4.146-1.95.584-2.888 2.212-.438 2.697-.697 2.505-1.335-1.715-5.693-7.38-27.67-7.38-28.633 0-.385 1.44-1.22 3.434-1.993l5.71-2.21 2.275-.879 1.687 3.674c7.657 16.677 8.673 22.405 9.02 50.855.267 21.956.045 25.367-2.046 31.505-1.63 4.785-7.677 18.99-10.105 23.74l-1.875 3.667-.024-3.384c-.057-8.155-4.574-15.79-9.344-15.796-3.85-.005-3.929 3.542-.25 11.108l2.41 4.957-2.35 2.112c-2.958 2.66-6.068 4.192-8.11 3.995l-1.562-.15-.265-3.552c-.352-4.706-1.556-7.005-4.07-7.774-.706-.217-1.414.028-2.307.796-1.062.914-1.57 2.226-2.887 7.47-1.782 7.089-3.31 10.615-5.784 13.355-3.193 3.534-6.127 4.06-11.064 1.981-3.421-1.44-5.652-1.271-6.822.515-1.533 2.339.16 5.156 5.268 8.766 4.44 3.137 4.575 6.885.483 13.492-2.703 4.365-3.772 7.503-3.033 8.906.77 1.464 1.32 1.735 3.533 1.743a6.317 6.317 0 0 0 3.513-1.058c3.467-2.352 7.089-12.041 7.102-18.998.004-2.12.164-4.091.355-4.38.192-.29 1.058-.89 1.926-1.335.868-.445 3.68-2.82 6.248-5.277 2.568-2.458 5.263-4.695 5.99-4.97.726-.277 2.924-.787 4.883-1.134 4.435-.786 8.097-2.222 11.019-4.321 1.239-.89 2.252-1.501 2.252-1.358 0 .6-8.527 13.855-12.211 18.983-10.731 14.935-21.343 26.35-31.769 34.172-4.18 3.137-6.67 4.574-12.026 6.94l-2.724 1.203zm13.2 22.175c.945-1.002 2.736-3.347 3.979-5.212 2.512-3.77 6.012-6.672 8.07-6.69.73-.006 4.034 1.19 7.34 2.658 9.6 4.262 12.893 4.109 18.319-.85 3.139-2.869 3.939-4.843 4.55-11.226.714-7.462-.048-10.012-2.99-10.012-3.195 0-4.58 2.124-5.168 7.926-.218 2.152-.696 4.628-1.062 5.504-.8 1.913-2.531 3.62-3.673 3.62-.457 0-3.594-1.409-6.972-3.132-3.964-2.021-6.922-3.22-8.347-3.38-2.683-.303-3.353-1.191-3.705-4.913-.139-1.464-.712-3.564-1.273-4.665-2.379-4.662-7.52-8.539-11.325-8.539-2.48 0-3.365.951-3.365 3.618 0 2.736.57 3.747 2.74 4.863 3.207 1.65 5.786 5.256 5.786 8.092 0 1.752-1.09 3.973-4.857 9.898-3.696 5.814-4.593 7.872-4.606 10.564-.008 1.767.206 2.374 1.043 2.96 1.83 1.282 3.612.932 5.515-1.084z" style="fill:#fff;stroke-width:.473632" transform="scale(.75)"/></svg>