<svg xmlns="http://www.w3.org/2000/svg" width="317" height="317" version="1.0" viewBox="0 0 238 238"><path d="M62 61 4 119l58 57 58 58 58-58 58-58-58-57-58-58-58 58zm98 8c4 3 6 7 6 17v7H76v-7c0-8 2-13 6-16l3-3h36c34 0 36 0 39 2zm55 49v13h-36c-36 0-37 0-40-2-8-6-9-14-2-21l4-4h74v13zm-113-11c8 5 8 18 0 23-3 2-6 2-40 2H25v-27h37c34 0 37 0 40 2zm64 43c0 9-1 13-6 16-3 2-6 2-39 2H85l-4-4-4-4v-18h89v8z"/><path d="M34 158v-18h47l50 1c13 3 17 21 7 30-3 3-5 4-12 4l-49 1H34zm67-38 1-10c1-9 3-13 9-18l3-2h88c8 0 11 1 14 4 4 4 5 9 5 21v9H101zm91 54-9-4c-5-5-7-10-6-15s2-7 7-12l4-4h99v35h-95zm-84 44-5-5v-24h118v7c0 13-1 19-5 23-3 2-6 4-11 4l-48 1h-44z" style="fill:#fff;stroke-width:.473632" transform="scale(.75)"/></svg>