<svg xmlns="http://www.w3.org/2000/svg" width="317.333" height="317.333" version="1.0" viewBox="0 0 238 238"><path d="M61.7 60.8 4 118.5l57.8 57.8 57.7 57.7 58-58 58-58L178 60.5C146.4 28.9 120.3 3 120 3c-.3 0-26.5 26-58.3 57.8zm98.1 8.2c4.5 2.7 6.2 7.4 6.2 16.5V93H76v-7c0-8.3 1.6-12.6 5.9-16.3l3.3-2.7h35.6c34 0 35.9.1 39 2zm55.2 48.5V131h-36.4c-36 0-36.3 0-39.7-2.3-7.9-5.2-8.7-14.1-1.9-20.9l3.8-3.8H215v13.5zM101.7 107c8.4 5.1 8.4 17.9 0 23-3 1.9-5.3 2-39.9 2H25v-27h36.8c34.6 0 36.9.1 39.9 2zm64.3 43c0 9.3-1.5 13.1-6.3 16-3 1.9-5.3 2-39.1 2H84.8l-3.9-3.9-3.9-3.9V142h89v8z"/><path d="M33.628 157.917v-17.8l47.245.22c34.035.159 47.973.378 49.85.784 12.92 2.8 17.363 20.424 7.479 29.67-3.368 3.15-5.504 3.923-12.306 4.452-3.207.249-25.279.458-49.05.464l-43.218.01zM101.365 119.71c.004-2.149.21-6.35.457-9.334.745-9.008 2.802-13.244 8.856-18.238l3.178-2.622 40.285.013c22.157.007 43.556.213 47.553.46 8.23.506 10.857 1.343 13.965 4.451 3.869 3.87 5.012 8.175 5.386 20.297l.274 8.88H101.358zM192.42 173.775c-3.963-.461-6.098-1.434-9.255-4.217-4.839-4.266-7.13-9.83-6.12-14.861.864-4.297 2.425-6.91 6.896-11.542l4.23-4.38h98.376V174.296l-45.35-.062c-24.943-.034-46.892-.24-48.777-.46zM107.862 218.455l-5.084-5.1v-23.902h118.408l-.004 6.749c-.008 13.27-1.361 18.803-5.542 22.657-2.8 2.58-5.484 3.696-10.198 4.238-2.197.253-23.33.452-48.204.454l-44.293.004z" style="fill:#fff;stroke-width:.473632" transform="scale(.75)"/></svg>