<svg xmlns="http://www.w3.org/2000/svg" width="384" height="385.333" version="1.0" viewBox="0 0 288 289"><path d="M24 144v120h240V24H24v120zm74.2-73.3c36.5 36.7 37.6 37.9 38.6 42.8 1.9 9.1-1.7 17.6-9.3 22.1-5.6 3.2-13.5 3.5-19.1.5-2.2-1.1-20.1-18.2-40.4-38.5L31.5 61l14-14c7.7-7.7 14.2-14 14.5-14 .3 0 17.5 17 38.2 37.7zm62.3-14.8c4.9 2.3 73.9 71.3 75.5 75.4 1.4 4 1.3 11.2-.4 15-.8 1.8-5 6.8-9.5 11.2l-8.1 8-46.5-46.5L125 72.5l6.8-6.8c11.1-11.3 19.4-14.1 28.7-9.8zm1.2 167.9c-7.7 7.9-13 11.1-19.6 11.9-9.4 1.1-11.8-.8-49.2-38.4-18.5-18.6-34.5-35.4-35.4-37.3-2.3-4.4-2.3-12.6-.1-16.9 1-1.8 5.2-6.9 9.4-11.2l7.6-8 46.8 46.8 46.8 46.8-6.3 6.3zm18.6-71.4c1.8.8 19.7 17.9 40.5 38.8l37.2 37.3-14 14-14 14-37.1-37c-20.4-20.4-37.7-38.2-38.4-39.6-5.1-9.6-.8-22.6 8.9-27 4.9-2.2 12.4-2.4 16.9-.5z"/><path d="M150.03 183.118c-1.732-.466-4.19-1.464-5.464-2.22-3.962-2.35-21.545-19.231-62.601-60.103L42.383 81.391l18.432-18.31c11.224-11.152 18.78-18.237 19.324-18.122 1.11.234 78.398 77.341 90.12 89.908 10.036 10.76 11.855 13.774 12.36 20.477 1.002 13.269-7.38 24.935-19.974 27.8-4.817 1.095-8.471 1.087-12.615-.026zM228.803 158.406l-61.82-61.86 7.314-7.09c12.594-12.205 19.31-16.359 27.276-16.87 6.344-.407 10.9.983 15.347 4.684 13.311 11.078 78.542 76.01 93.06 92.634 3.857 4.417 4.574 5.577 5.15 8.34.923 4.432.338 12.51-1.152 15.877-1.547 3.498-6.898 9.8-15.974 18.815l-7.38 7.33zM179.777 313.144c-2.96-1.087-7.42-4.122-12.839-8.738-12.76-10.87-82.222-81.104-88.996-89.985-2.315-3.035-3.475-8.434-3.092-14.394.529-8.233 1.78-10.22 16.115-25.59l8.152-8.742 61.97 61.94c34.083 34.066 61.97 62.211 61.97 62.545 0 .77-14.122 14.188-18.039 17.14-6.104 4.601-12.18 6.726-19.034 6.657-2.227-.022-5.02-.397-6.207-.833zM262.138 296.934c-24.5-24.609-47.183-47.63-50.407-51.16-5.367-5.875-5.97-6.767-7.123-10.564-3.903-12.852 3.044-27.176 15.415-31.778 4.3-1.6 15.908-1.803 19.137-.335 3.566 1.62 15.502 13.048 60.388 57.815l43.997 43.879-18.431 18.443-18.431 18.442z" style="fill:#fff;stroke-width:.575124" transform="scale(.75)"/></svg>