<svg xmlns="http://www.w3.org/2000/svg" width="384" height="385" version="1.0" viewBox="0 0 288 289"><path d="M24 144v120h240V24H24v120zm74-73c37 36 38 38 39 43 2 9-2 17-9 22-6 3-14 3-20 0L68 98 32 61l14-14 14-14 38 38zm63-15c4 2 73 71 75 75v15l-10 12-8 8-46-47-47-46 7-7c11-12 19-14 29-10zm1 168c-8 8-13 11-20 12-9 1-12-1-49-39-19-18-35-35-36-37-2-4-2-13 0-17l10-11 7-8 47 47 47 46-6 7zm18-72 41 39 37 37-14 15-14 14-37-37-38-40c-6-10-1-23 8-27 5-2 13-2 17-1z"/><path d="m150 183-5-2c-4-2-22-19-63-60L42 81l19-18 19-18c1 0 79 77 90 90 10 11 12 14 13 20 1 14-8 25-20 28h-13zm79-25-62-61 7-8c13-12 20-16 28-16 6-1 10 1 15 4a1866 1866 0 0 1 98 101c1 5 0 13-1 16-2 4-7 10-16 19l-7 7zm-49 155a1867 1867 0 0 1-102-99c-2-3-4-8-3-14 0-8 2-10 16-26l8-8 62 62 62 62-18 17a30 30 0 0 1-25 6zm82-16a4293 4293 0 0 1-57-62c-4-13 3-27 15-32h19c4 2 16 13 61 58l44 44-19 18-18 19z" style="fill:#fff;stroke-width:.575124" transform="scale(.75)"/></svg>