<svg xmlns="http://www.w3.org/2000/svg" width="240" height="400" version="1.0" viewBox="0 0 180 300"><path d="M11.5 1.1C3.3 2.3 3 2.5 3 6.3v3.3l9.8 2.7c49.4 13.9 87.3 53 99.6 102.8 17.2 69.6-19.9 141-86.9 167.2-5 1.9-12.7 4.4-17.3 5.4L0 289.5v3.7c0 3.2.4 3.7 2.8 4.2 19 4 43.3 3.3 63.7-1.9 26.7-6.7 49.8-19.9 69.5-39.5 21-21.1 34.4-46 41.2-76.7 3.2-14.2 3.2-44.4 0-58.6C170.4 90 157 65.1 136 44 107 15 69.3-.3 28.5.1c-6 .1-13.7.5-17 1zm42.9 8.5c28.5 4.8 54.9 18.6 76.1 39.9 27.7 27.6 41.7 61.4 41.7 100.5s-14 72.9-41.7 100.5C105 276.1 74.6 289.7 37 292.4c-4.7.4-10 .4-11.7 0-3.1-.6-2.7-.9 7-4.8 45.1-18.5 79.7-60.9 89.2-109.7 2.6-13.1 3.1-36.2 1.1-49.7-7.4-50.4-39.5-93.8-84.7-114.5-5.2-2.4-10.5-4.9-11.9-5.5-3.4-1.6 16-.7 28.4 1.4z"/><path d="M32.886 389.372c-1.291-.4-1.009-.643 2.686-2.312 2.271-1.026 6.816-2.989 10.1-4.362 31.651-13.231 61.356-37.454 82.985-67.668 19.303-26.966 32.36-60.36 35.523-90.85 1.043-10.057 1.405-33.277.664-42.527-4.791-59.77-38.612-116.777-88.748-149.586-8.53-5.582-17.285-10.33-29.392-15.938-5.822-2.697-10.853-5.18-11.182-5.518-.784-.807 15.937-.163 25.672.989 33.802 4 63.123 15.472 89.85 35.156 18.235 13.43 35.83 31.92 48.11 50.557 15.746 23.9 24.535 47.773 28.683 77.91 1.514 11.004 1.513 38.566-.002 49.553-4.16 30.156-12.979 54.106-28.69 77.91-8.837 13.39-18.288 24.371-31.98 37.159-29.018 27.1-63.411 42.894-105.672 48.526-7.73 1.03-26.405 1.684-28.607 1.001z" style="fill:#fff;stroke-width:.597015" transform="scale(.75)"/></svg>