<svg xmlns="http://www.w3.org/2000/svg" width="400" height="260" version="1.0" viewBox="0 0 300 195"><path d="M0 98v97h300V0H0v98zm291 0v88H10V10h281v88z"/><path d="m15 16 3 3c5 3 15 13 19 19 8 11 7 19-3 29-5 5-6 6-4 7 13 4 22 9 24 14 3 6 2 11-5 21l-5 9 7-2 15-3c7 0 7 0 10 3 5 5 4 13-2 27l-4 8 2-1c11-7 23-12 27-10 6 1 11 10 17 25 5 14 5 14 5 0-1-16 1-47 3-59l5-14c3-6 12-15 15-15 2 0 2-1 2-16V45h-10c-18 0-36-4-57-12a306 306 0 0 0-64-17zm256 1c-13 3-28 7-47 15-26 9-40 12-59 12h-11v17c0 13 0 16 1 15 2 0 8 4 13 10 8 10 11 27 11 66l1 24 4-10c4-11 9-22 12-25 5-4 15-2 26 5 8 5 8 5 5-1-6-12-8-23-4-28 3-6 14-6 27-1l7 2-4-6c-6-7-8-12-9-18 0-4 0-5 4-9s14-10 21-11l3-2-4-4c-10-7-13-17-8-27 3-5 13-17 20-21 7-6 5-6-9-3z"/><path d="M13 131V14h375v234H13Zm148 103a3349 3349 0 0 0 1-55c2-31 3-39 8-52 2-5 5-9 11-16 6-5 9-8 11-8l2-1 1-26V60h-10l-28-2c-17-2-31-6-55-15-29-11-52-18-72-21l-10-1 7 7 18 17 9 14c5 11 3 19-9 30l-6 8 4 3c12 3 21 8 26 13s6 10 5 16l-10 19-6 9 11-2c10-4 11-4 20-4l9 1 6 6c3 7 1 17-6 32a354 354 0 0 1-5 11l5-2c12-7 25-13 32-13 3 0 5 1 8 4 6 6 10 14 17 31l5 13h1zm82-7c7-20 12-30 17-36 4-6 12-7 22-3l16 8c6 3 8 4 8 2l-3-6c-6-13-9-23-8-31 1-6 4-9 11-11 7-1 15 0 27 4l9 3-2-4-10-16c-4-7-5-15-3-19l3-4c6-7 18-13 29-16l3-1v-2l-4-4c-8-6-12-11-13-18-2-7 0-15 5-22s16-19 24-25c4-3 5-5 4-6l-11 1c-17 3-40 10-66 20-28 10-42 14-59 16-8 2-16 2-27 2h-10v16l1 26 2 1c2 0 5 3 11 8 5 5 7 8 10 14 4 8 6 18 8 34a474 474 0 0 1 3 76h1l2-7z" style="fill:#fff;stroke-width:.38806" transform="scale(.75)"/></svg>