<svg xmlns="http://www.w3.org/2000/svg" width="400" height="260" version="1.0" viewBox="0 0 300 195"><path d="M0 97.5V195h300V0H0v97.5zm291 .5v88H10V10h281v88z"/><path d="M15 15.7c0 .4 1.5 1.8 3.4 3.1 5.1 3.5 14.9 13.3 18.6 18.7 8 11.6 7.3 19.3-2.6 29.3-5 5-6 6.4-4.6 6.8 13 4 22 9.2 24.7 14.3 2.9 5.7 1.6 10.9-5.4 21.6-2.5 3.8-4.9 7.5-5.3 8.1-.4.6 2.9-.1 7.5-1.7 5.9-2.1 10.1-2.9 15-2.9 6.2 0 7.1.3 9.8 2.9 4.7 4.8 4 13.5-2.4 27.1-1.6 3.6-3.2 6.9-3.6 7.5-.3.5.6.3 1.9-.6 10.8-7 22.7-11.5 27.4-10.3 5.4 1.3 11 10.1 16.5 25.8 4.9 13.8 5.3 13.8 4.6-.4-.7-16.5 1-47.2 3.4-58.7 1.1-5.1 3.2-11.5 4.7-14.3 3.2-5.9 12.6-15 15.5-15 1.8 0 1.9-.9 1.9-16V45h-10.1c-17.5 0-35.6-3.8-56.9-11.9-21.5-8.3-43.2-14.7-56-16.6-2.5-.3-5.3-.9-6.2-1.1-1-.3-1.8-.2-1.8.3zM270.6 17c-13 2.8-27.9 7.3-47.1 14.5-25.7 9.6-39.9 12.7-58.7 12.9l-10.8.1v16.2c0 13 .3 16.1 1.3 15.7 1.7-.6 7.2 3.8 12.5 9.8 8.3 9.7 11.3 27 11.5 65.6 0 13.9.4 24.6.9 23.8.4-.7 2.1-5.1 3.6-9.7 3.9-11.4 9.1-21.7 12.5-24.5 4.9-4.1 14.9-2.4 25.7 4.4 7.9 4.9 8.4 4.8 5.4-1.1-6.2-12.2-8.1-23.2-4.8-28.2 3.5-5.3 14.4-5.7 27-1 3.7 1.4 6.9 2.4 7 2.2.2-.2-1.5-2.8-3.7-5.7-5.6-7.5-7.9-12.3-8.6-17.9-.5-4.5-.3-5.1 3.3-9.1 3.9-4.4 14.4-10 21.2-11.5 1.7-.3 3.2-1 3.2-1.3-.1-.4-2.1-2.2-4.5-3.9-9.5-7.1-12.2-17.1-7.1-27.1 2.9-5.6 13-16.9 19.5-21.7 6.9-5.1 5.2-5.5-9.3-2.5z"/><path d="M13.343 130.776V13.582h374.478V247.97H13.343Zm147.511 103.127c.027-.267.08-11.4.118-24.739.04-14.208.26-26.906.532-30.657 2.196-30.353 3.536-38.676 8.235-51.143 2.155-5.72 4.965-9.733 11.231-16.039 5.638-5.673 8.666-7.978 10.97-8.351.797-.13 1.65-.477 1.895-.774.752-.906 1.074-8.495 1.098-25.85l.022-16.589H184.75c-11.62 0-17.749-.398-27.436-1.78-16.848-2.404-31.061-6.338-54.91-15.197C72.649 31.732 49.79 25.046 30.418 21.73c-10.838-1.855-10.572-1.836-10.415-.752.132.909.937 1.632 7.326 6.575 3.945 3.052 14.345 13.303 18.112 17.851 3.547 4.283 6.917 9.492 8.52 13.17 4.793 11.002 2.564 18.974-8.557 30.605-5.563 5.817-6.449 6.92-6.449 8.029 0 .812.46 1.06 4.366 2.358 11.784 3.916 20.991 8.801 26.01 13.803 4.297 4.28 5.876 9.982 4.395 15.866-.98 3.888-4.36 10.288-10.112 19.138-2.89 4.448-5.256 8.27-5.256 8.494 0 .746 3.546.002 10.284-2.16 10.37-3.326 11.68-3.557 20.179-3.557 6.829 0 7.488.062 8.925.842 1.977 1.072 4.934 4.137 5.927 6.143 3.29 6.645 1.594 16.452-5.584 32.298-1.615 3.564-3.357 7.31-3.87 8.325-.515 1.014-.935 1.937-.935 2.051 0 .65 1.702-.05 4.79-1.968 11.792-7.33 24.871-12.553 31.566-12.607 3.685-.03 5.707.89 8.806 4.003 5.527 5.552 9.959 14.101 16.15 31.152 3.435 9.46 4.982 13 5.68 13 .291 0 .552-.218.578-.485zm82.436-7.008c6.92-19.488 11.638-29.709 16.633-36.032 4.286-5.425 11.938-6.452 22.152-2.972 4.305 1.467 8.417 3.52 15.713 7.848 5.91 3.505 7.764 4.097 7.764 2.478 0-.472-1.203-3.397-2.673-6.5-6.115-12.905-8.695-22.988-7.768-30.366.808-6.435 3.973-9.533 11.247-11.007 6.633-1.344 14.485-.148 27.097 4.129 4.365 1.48 8.167 2.691 8.45 2.691.883 0 .587-.648-1.99-4.354-6.516-9.374-8.9-13.037-10.266-15.772-3.603-7.216-4.885-14.885-3.102-18.567.448-.926 2.132-3.084 3.741-4.795 5.893-6.263 17.752-12.764 28.306-15.516 1.747-.456 3.49-1.058 3.875-1.34.67-.49.668-.547-.071-1.369-.424-.472-2.605-2.299-4.846-4.06-7.934-6.237-11.356-11.128-13.008-18.595-1.469-6.637.427-14.474 5.202-21.506 5.136-7.563 16.507-19.613 24.006-25.44 4.082-3.171 5.397-4.77 4.588-5.58-.504-.504-5.614-.089-10.885.885-17.952 3.316-40.636 9.966-66.171 19.4-28.705 10.605-42.734 14.596-59.26 16.86-8.292 1.135-15.642 1.562-26.987 1.566l-9.992.004.019 15.62c.018 14.9.384 25.363.936 26.728.149.368.875.714 1.743.83 2.136.287 5.657 2.832 10.778 7.793 5.559 5.385 7.74 8.248 10.394 13.641 4.176 8.49 6.501 18.374 8.122 34.537 1.07 10.664 1.397 18.817 1.768 44.045.346 23.486.528 29.066 1.025 31.432.19.907.237.925.716.269.282-.386 1.517-3.529 2.744-6.985z" style="fill:#fff;stroke-width:.38806" transform="scale(.75)"/></svg>