<svg xmlns="http://www.w3.org/2000/svg" width="317" height="317" version="1.0" viewBox="0 0 238 238"><path d="M61 60 4 119c0 1 114 115 116 115l58-57 58-58-58-58-59-58-58 57zm72-15 33 60-33 33-20-34-20-33 13-25 13-24 14 23zm-30 64 27 45 4-3a1134 1134 0 0 0 50-46l10 12 12 13c2 2 2 3-43 47l-45 46-51-51-50-50 29-29 30-29 27 45z"/><path d="M166 164a304558 304558 0 0 0-41-69 1831 1831 0 0 1 34-65c1-1 48 81 60 104l2 5-3 4-41 40-11-19z" style="fill:#fff;stroke-width:.473632" transform="scale(.75)"/><path d="m90 229-67-67a2346 2346 0 0 1 70-69l8-7 3 6a41820 41820 0 0 1 70 113l2-1 30-28 36-33 4-3 1 1a6289 6289 0 0 1 28 35l-4 6-114 114-67-67z" style="fill:#fff;stroke-width:.473632" transform="scale(.75)"/></svg>