<svg xmlns="http://www.w3.org/2000/svg" width="384" height="385.333" version="1.0" viewBox="0 0 288 289"><path d="M24 144v120h240V24H24v120zm126.7-86c19.7 33.7 28 48.3 41.5 73l12.8 23.5-23.7 23.7c-13.1 13.1-24.1 23.8-24.4 23.8-.7 0-56.2-93.6-56.7-95.6-.2-.8 1.7-5.1 4.1-9.6 2.4-4.6 10.6-20.4 18.2-35.2 11.2-22 14-26.6 15-25.5.7.8 6.6 10.6 13.2 21.9zm-32.5 106.3 38.1 62.8 2.1-1.8c9.5-8.3 27.9-25.6 48.5-45.6 14.5-14.1 25.1-23.7 26-23.5.9.2 3.3 2.9 5.5 6.1 2.1 3.2 4.9 6.3 6.2 6.9l2.4 1.1V250H41V147.1l14.2-19.3c7.8-10.6 15.9-21.7 18.1-24.7 3.8-5.1 4.1-5.3 5.4-3.5.8 1 18.5 30.2 39.5 64.7z"/><path d="M55.12 264.571v-68.426l22.485-30.64c21.01-28.63 24.957-33.802 25.799-33.802.183 0 1.384 1.618 2.67 3.595 2.47 3.798 40.46 66.188 78.706 129.26 12.565 20.718 23.053 37.887 23.309 38.153.884.921 21.007-17.604 63-57.996 25.414-24.444 37.98-35.945 39.275-35.945.731 0 4.949 4.635 7.588 8.34 3.404 4.777 6.845 8.277 9.058 9.214l1.87.791v105.882H55.12Z" style="fill:#fff;stroke-width:.575124" transform="scale(.75)"/><path d="M206.735 264.982c-11.843-19.05-63.49-106.278-70.494-119.063-2.298-4.192-2.407-4.593-1.728-6.326 1.184-3.02 6.368-13.24 24.277-47.86 16.618-32.126 20.54-39.38 22.85-42.272.98-1.226 1.238-1.311 1.75-.575 2.925 4.2 27.22 45.54 44.11 75.053 15.16 26.495 45.017 80.742 45.017 81.794 0 .67-62.392 62.852-63.057 62.844-.272-.003-1.498-1.621-2.725-3.595z" style="fill:#fff;stroke-width:.575124" transform="scale(.75)"/></svg>