<svg xmlns="http://www.w3.org/2000/svg" width="384" height="385" version="1.0" viewBox="0 0 288 289"><path d="M24 144v120h240V24H24v120zm127-86 41 73 13 24-24 23-24 24-57-96 4-9a7603 7603 0 0 0 34-61l13 22zm-33 106 38 63 2-2a1552 1552 0 0 0 75-69l5 6c2 4 5 7 7 7l2 1v80H41V147l14-19 18-25c4-5 4-5 6-3l39 64z"/><path d="M55 265v-69l23-30 25-34 3 3a24975 24975 0 0 1 102 168c1 1 21-18 63-58l39-36 8 8c3 5 7 8 9 9l2 1v106H55Z" style="fill:#fff;stroke-width:.575124" transform="scale(.75)"/><path d="M207 265a6554 6554 0 0 1-72-125 1161 1161 0 0 1 48-91 3014 3014 0 0 1 90 157l-64 63-2-4z" style="fill:#fff;stroke-width:.575124" transform="scale(.75)"/></svg>