<svg xmlns="http://www.w3.org/2000/svg" width="317.333" height="317.333" version="1.0" viewBox="0 0 238 238"><path d="M61.2 60.3C29.8 91.7 4 118 4 118.5 4 119.8 118.2 234 119.5 234c.6 0 26.9-25.9 58.5-57.5l57.5-57.5-58-58C145.6 29.1 119.3 3 119 3c-.3 0-26.3 25.8-57.8 57.3zm71.9-15.5c15.1 25.8 32.9 58.1 32.9 59.7 0 1.2-32.7 34.1-33.3 33.5-.2-.3-9.2-15.4-20-33.7L93 71.1l12.8-25c7-13.7 13-24.7 13.4-24.5.3.2 6.6 10.6 13.9 23.2zM103 109l27.3 44.9 3.6-2.8c2-1.6 13.9-12.8 26.6-24.9 12.6-12.1 23.3-21.9 23.7-21.6.4.2 5 5.8 10.2 12.4 5.3 6.5 10.6 12.6 11.8 13.4 2.3 1.6 1.8 2.1-43 46.9L118 222.5 67.4 172l-50.6-50.5 29.4-28.8C62.3 76.9 75.5 64 75.6 64c.1 0 12.4 20.2 27.4 45z"/><path d="M165.524 164.232c-6.218-10.485-17.978-30.309-26.132-44.052-8.155-13.744-14.827-25.196-14.827-25.449 0-.497 14.72-29.329 23.52-46.068 5.375-10.222 9.825-18.216 10.572-18.99 1.05-1.087 48.397 81.387 59.98 104.478l2.552 5.087-3.245 3.676c-8.295 9.396-39.529 40.382-40.705 40.382-.225 0-5.497-8.58-11.715-19.064z" style="fill:#fff;stroke-width:.473632" transform="scale(.75)"/><path d="M90.108 229.119c-36.795-36.796-66.9-67.032-66.9-67.191 0-.16 14.014-14.012 31.141-30.783 17.128-16.77 34.576-33.856 38.773-37.967l7.63-7.476 3.695 6.051c2.031 3.329 12.364 20.332 22.961 37.785 27.978 46.077 46.028 75.765 46.147 75.897.057.064 1.245-.736 2.64-1.776 3.25-2.426 9.059-7.774 30.049-27.669 21.589-20.463 31.118-29.337 35.693-33.24l3.629-3.097.953 1.16c.525.64 4.56 5.61 8.966 11.047 9.67 11.932 12.687 15.463 17.029 19.933 3.255 3.35 3.305 3.44 2.637 4.694-.375.702-2.263 3.108-4.196 5.345-3.395 3.93-113.175 114.188-113.692 114.188-.14 0-30.36-30.106-67.155-66.901z" style="fill:#fff;stroke-width:.473632" transform="scale(.75)"/></svg>