<svg xmlns="http://www.w3.org/2000/svg" width="400" height="400" version="1.0" viewBox="0 0 300 300"><path d="M139 .6c-28.9 3.5-48.9 10.6-70.7 25.1L60 31.1V63H30l-3.4 5.2C17.3 82.8 9.9 101.4 5.9 120c-3.3 15.1-3.3 41.9 0 57 4.4 20.6 11.6 37.8 22.8 54.7l5.4 8.3H60v25.9l8.3 5.4c16.5 11 34.9 18.8 54 22.9 14.7 3.2 43.7 3.2 58.4 0 17.5-3.8 36.6-11.6 51.1-20.8l5.2-3.4v-30h31.9l5.4-8.3c11.7-17.5 20.1-38.1 23.3-57.2 2.3-13.5 2.3-38.5 0-52-3-17.4-12.6-41.9-21.8-55.3l-2.9-4.2H237V27l-5.2-3.4C216.3 13.7 194.7 5.3 178 2.5 168.4.9 145.5-.2 139 .6zm52.3 17.2c11.9 4 21.2 8.1 28.9 12.8l5.8 3.5V74h39.9l3.5 5.8c4.7 7.7 8.8 17 12.8 28.9l3.2 9.8.4 26.9c.3 22.5.1 28.1-1.3 34.5-3.1 13.9-10.7 31.6-18.7 43.6l-3.3 5-18.3.3-18.2.2v34.6l-7.2 4.1c-21.3 12-42.7 17.6-67.3 17.6-27.2 0-51.2-7-74.2-21.5l-6.3-4V229H40.5l-3.5-5.3c-9.5-14.3-17.4-34.5-20.6-52.2-2-11.7-2-34.2 0-45.8 2.4-13.2 7.1-26.9 13.8-40L36.3 74H71V38.1l5.8-3.9C87.7 26.8 104.4 19.4 118 16c6.6-1.7 10.8-1.9 35.5-1.7l28 .3 9.8 3.2z"/><path d="M138.7 47.1c-4.3 7.2-7.7 13.8-7.5 14.7.2 1 1.4 1.8 2.9 2 2.3.3 3.1-.5 6.5-6.2 2.1-3.7 4.2-6.6 4.6-6.6.4 0 .8 12.1.8 27 0 14.8-.2 27-.5 27-.2 0-4-1.2-8.2-2.6-31.3-10.6-64.2 4.9-76.8 36.1-2.5 6.1-2.9 8.7-3.3 19.6-.4 11.8-.3 13 2.5 21 3.6 10.5 8.5 18 16.9 25.8 7.8 7.3 19.9 13.5 29.8 15.2 9.1 1.5 22.6.6 30.2-2.1 3.2-1.1 6.7-2.3 7.7-2.7 1.6-.5 1.7 1.1 1.7 25.1v25.7l2.8-.3 2.7-.3.3-25.9c.2-24 .4-25.8 2-25.1 11.2 4.6 15.3 5.6 23.6 6.2 12.2.8 21.1-.9 31.3-5.8 14.9-7.2 26.1-19.8 31.6-35.8 2.8-8 2.9-9.2 2.5-21-.4-10.9-.8-13.5-3.3-19.6-10.2-25.4-34-40.8-60.4-39.3-7.5.5-15.5 2.5-25.3 6.3-1.7.7-1.8-1-1.8-26.9 0-15.2.3-27.6.8-27.6.4 0 2.4 3 4.6 6.5 2.9 5 4.4 6.5 6.1 6.5 5.1 0 3.3-5-9.2-24.8-5.2-8.1-6.3-7.6-15.6 7.9zm-2.5 61.8c3.2 1.2 6 2.6 6.2 3 .3.4-2 3.4-5 6.7-21.8 23.4-21.5 59.5.7 83.8l5 5.5-2.8 1.5c-10.8 5.5-25.9 6.4-38.8 2.2-18.4-5.9-31.6-20.1-36.5-39.1-2.4-9.2-2.5-13.6-.5-22.8 4.4-20.8 19.1-36.4 39.9-42.3 7.6-2.1 24.4-1.3 31.8 1.5zm65.6.7c17.4 6.9 29.8 21.6 33.7 40.1 2 9.2 1.9 13.6-.5 22.8-4.9 19-18.1 33.2-36.5 39.1-12.9 4.2-28 3.3-38.8-2.2l-2.8-1.5 5-5.5c10.2-11.1 15.8-24.2 16.8-39 1.1-15.7-5.2-33.2-16.1-44.9-3.1-3.3-5.6-6.1-5.6-6.2 0-.7 6.6-3.5 11.2-4.8 3.6-1 8.6-1.4 15.8-1.1 8.7.2 11.8.8 17.8 3.2zm-43.4 14.6c18.2 20.8 18.1 51.6-.2 71.9-2.4 2.7-4.8 4.9-5.3 4.9s-.9-17.1-.9-41c0-24.4.4-41 .9-41s3 2.3 5.5 5.2zM146 160c0 23.1-.4 39-.9 39-1.8 0-8.3-8.6-11.7-15.5-9.2-18.8-6.7-40.5 6.5-57.3 2.3-2.9 4.6-5.2 5.1-5.2.6 0 1 14.3 1 39z"/><path d="M191.94 379.883c-7.059-.375-20.24-2.055-27.123-3.457-22.056-4.492-40.796-12.15-62.065-25.363l-7.827-4.862v-41.126H54.302l-4.466-6.793c-13.703-20.838-25.263-51.296-28.465-74.998-.497-3.676-.764-12.71-.761-25.672.006-22.319.505-27.293 4.163-41.471 4.015-15.564 8.558-27.142 17.753-45.245l5.99-11.792h46.409l.013-24.03.013-24.03 6.435-4.272c17.579-11.673 40.944-21.825 59.808-25.986 6.223-1.373 6.536-1.382 43.284-1.245l37.015.137 9.945 3.266c18.219 5.982 30.255 11.262 43.338 19.012l6.12 3.625V99.104h53.463l3.655 6.12c7.653 12.811 13.003 24.972 19.093 43.403l3.265 9.88.112 37.015c.112 36.621.098 37.082-1.26 43.284-3.954 18.047-14.37 42.464-25.2 59.073l-4.214 6.463-24.457.442-24.457.442v46.149l-8.806 4.887c-13.76 7.636-24.345 12.232-37.524 16.293-18.582 5.724-41.754 8.436-62.626 7.328zm9.702-25.586c.568-.175.757-3.621.79-14.428.074-23.254.872-51.739 1.479-52.794.508-.883 1.186-.737 6.537 1.407 18.954 7.593 41.005 8.407 58.695 2.165 25.21-8.895 43.282-27.516 52.175-53.759 2.33-6.873 2.502-7.844 2.735-15.395.303-9.76-.727-25.287-1.99-30.033-1.216-4.565-5.074-13.4-8.132-18.62-8.115-13.855-19.639-24.88-33.381-31.94-21.07-10.822-43.388-11.764-69.054-2.914-5.026 1.733-7.073 2.199-7.553 1.718-.808-.806-1.23-54.81-.508-64.779l.476-6.567 5.169 7.868c2.842 4.327 5.706 8.156 6.363 8.508.657.351 2.16.64 3.338.64 5.853 0 3.242-7.584-9.892-28.727-5.831-9.387-7.524-11.274-10.116-11.274-2.634 0-5.273 2.86-10.558 11.443-8.568 13.91-13.29 22.873-13.29 25.225 0 3.178 5.424 4.533 7.961 1.989.737-.739 2.913-3.896 4.835-7.015 1.923-3.12 3.974-6.286 4.558-7.037l1.062-1.366.32 3.157c.57 5.61.86 39.773.46 54.011l-.39 13.84-6.268-2.075c-11.54-3.821-17.93-5.052-28.06-5.404-6.87-.238-10.717-.08-14.932.613-23.379 3.845-43.055 16.64-56.02 36.427-4.24 6.47-8.974 16.478-10.484 22.162-1.29 4.854-2.325 20.305-2.02 30.15.233 7.543.407 8.526 2.721 15.354 5.08 14.991 9.996 23.133 20.137 33.356 7.09 7.148 13.891 12.096 22.711 16.524 13.247 6.65 25.528 8.904 41.466 7.607 9.595-.781 16.121-2.137 24.146-5.015 3.263-1.17 6.084-1.978 6.268-1.794.58.579 1.105 20.564 1.17 44.536l.06 23.107 3.135-.321c1.724-.177 3.47-.424 3.88-.55z" style="fill:#fff;stroke-width:.597015" transform="scale(.75)"/><path d="M150.15 284.97c-28.753-3.609-51.667-21.832-61.05-48.552-4.672-13.307-5.563-23.07-3.161-34.627 3.496-16.82 10.62-30.02 21.877-40.532 8.102-7.567 17.08-12.854 28.201-16.609 6.03-2.036 6.888-2.166 16.048-2.432 9.98-.291 18.398.402 24.95 2.054 4.76 1.2 12.239 4.335 12.239 5.13 0 .82-2.237 3.757-7.388 9.702-9.928 11.46-15.858 23.374-18.961 38.097-1.702 8.072-1.814 21.994-.243 30.262 3.1 16.323 10.198 30.342 22.068 43.582 2.796 3.12 5.093 5.836 5.103 6.036.026.54-8.727 4.432-12.52 5.568-7.213 2.16-19.845 3.239-27.164 2.32z" style="fill:#fff;stroke-width:.597015" transform="scale(.75)"/><path d="M190.114 262.01c-5.953-6.316-12.97-18.284-15.706-26.786-7.14-22.193-3.058-45.853 11.196-64.89 1.92-2.564 4.434-5.556 5.586-6.648l2.094-1.985.446 5.866c.565 7.437.429 88.755-.158 93.847l-.438 3.802zM203.766 265.915c-.622-2.239-.635-104.05-.012-105.574.42-1.032.817-.815 3.804 2.09 19.791 19.238 26.568 49.537 16.96 75.83-3.343 9.147-9.82 19.125-16.983 26.162l-3.286 3.228z" style="fill:#fff;stroke-width:.597015" transform="scale(.75)"/><path d="M231.343 284.548c-2.627-.432-6.388-1.256-8.358-1.83-3.945-1.15-12.84-5.06-12.827-5.637.005-.2 2.068-2.643 4.584-5.427 12.388-13.706 19.346-27.2 22.646-43.914 1.592-8.062 1.43-22.57-.34-30.393-1.759-7.778-4.284-14.836-7.808-21.825-3.544-7.027-7.327-12.373-13.943-19.701-2.816-3.12-5.126-5.866-5.134-6.104-.039-1.209 11.656-5.633 17.897-6.77 5.319-.97 19.055-1.093 26.513-.238 13.404 1.535 28.034 9.105 39.158 20.26 10.796 10.826 16.99 22.661 20.319 38.822 2.396 11.632 1.512 21.349-3.15 34.627-8.616 24.535-28.765 42.093-54.482 47.477-6.338 1.326-18.985 1.656-25.075.653z" style="fill:#fff;stroke-width:.597015" transform="scale(.75)"/></svg>