<svg xmlns="http://www.w3.org/2000/svg" width="400" height="400" version="1.0" viewBox="0 0 300 300"><path d="M139 1c-29 3-49 10-71 25l-8 5v32H30l-3 5a150 150 0 0 0 2 164l5 8h26v26l8 5c17 11 35 19 54 23 15 3 44 3 59 0 17-4 36-11 51-21l5-3v-30h32l5-8c12-18 20-38 24-58 2-13 2-38 0-52-3-17-13-41-22-55l-3-4h-36V27l-5-3a159 159 0 0 0-93-23zm52 17c12 4 22 8 29 13l6 3v40h40l3 6c5 7 9 17 13 29l3 9 1 27-1 35c-4 14-11 31-19 43l-3 5-19 1h-18v35l-7 4c-21 12-43 17-67 17-28 0-52-7-75-21l-6-4v-31H41l-4-5c-9-15-17-35-21-53-2-11-2-34 0-45 3-13 7-27 14-40l6-12h35V38l6-4c11-7 27-15 41-18 7-2 11-2 36-2l28 1 9 3z"/><path d="M139 47c-5 7-8 14-8 15l3 2c2 0 3-1 7-6l4-7 1 27v27l-9-3c-31-10-64 5-76 37-3 6-3 8-4 19 0 12 0 13 3 21 3 11 8 18 17 26 7 7 20 13 29 15 10 2 23 1 31-2l7-3c2 0 2 1 2 25v26h6v-26c0-24 0-26 2-26a58 58 0 0 0 55 0c15-6 26-19 31-35 3-8 3-9 3-21l-3-20a61 61 0 0 0-61-39l-25 6c-2 1-2-1-2-26l1-28 4 6 6 7c6 0 4-5-9-25-5-8-6-7-15 8zm-3 62 6 3-5 7a61 61 0 0 0 1 83l5 6-3 1c-11 6-26 7-39 3-18-6-31-21-36-40-2-9-3-13-1-22 5-21 20-37 40-43 8-2 25-1 32 2zm66 1c17 7 30 21 33 40 3 9 2 13 0 23-5 19-18 33-36 39-13 4-28 3-39-3l-3-1 5-6c10-11 16-24 17-39s-6-33-16-44l-6-7 11-4 16-2c9 1 12 1 18 4zm-44 14a54 54 0 0 1-5 77 443 443 0 0 1 0-82l5 5zm-12 36-1 39c-2 0-8-9-12-15a54 54 0 0 1 12-63l1 39z"/><path d="M192 380a180 180 0 0 1-89-29l-8-5v-41H54l-4-7c-14-21-25-51-29-75a263 263 0 0 1 4-67c4-15 8-27 18-45l6-12h46V51l6-4c18-12 41-22 60-26 6-2 7-2 43-1h37l10 3c19 6 31 11 44 19l6 4v53h53l4 6c8 13 13 25 19 44l3 10v37c1 36 1 37-1 43-4 18-14 42-25 59l-4 6-25 1h-24v46l-9 5a183 183 0 0 1-100 24zm10-26v-14l2-53c0-1 1-1 6 1 19 8 41 9 59 3 25-9 43-28 52-54 3-7 3-8 3-16l-2-30-8-18c-8-14-20-25-33-32a84 84 0 0 0-70-3l-7 2-1-65 1-7 5 8 6 9h4c6 0 3-7-10-28-6-10-8-12-10-12-3 0-5 3-11 12l-13 25c0 3 5 5 8 2l5-7 4-7 1-1 1 3v68l-7-2a87 87 0 0 0-43-5 82 82 0 0 0-66 58l-2 30c0 8 0 9 3 16 5 15 10 23 20 33 7 7 14 12 23 17 13 6 25 9 41 7 10 0 16-2 24-5l6-1c1 0 2 20 2 44v23h3l4-1z" style="fill:#fff;stroke-width:.597015" transform="scale(.75)"/><path d="M150 285c-29-4-52-22-61-49-5-13-5-23-3-34a74 74 0 0 1 50-57c6-2 7-3 16-3l25 2 12 5-7 10a81 81 0 0 0-19 68c3 17 10 31 22 44l5 6-13 6c-7 2-20 3-27 2z" style="fill:#fff;stroke-width:.597015" transform="scale(.75)"/><path d="M190 262a71 71 0 0 1 1-98l2-2 1 6v93l-1 4zm14 4V160l4 2a72 72 0 0 1 0 102l-4 4z" style="fill:#fff;stroke-width:.597015" transform="scale(.75)"/><path d="m231 285-8-2-13-6 5-5c12-14 19-28 22-44 2-8 2-23 0-31a93 93 0 0 0-27-47c0-1 12-6 18-7h27c13 1 28 9 39 20s17 23 20 39c2 11 2 21-3 34a73 73 0 0 1-80 49z" style="fill:#fff;stroke-width:.597015" transform="scale(.75)"/></svg>