<svg xmlns="http://www.w3.org/2000/svg" width="400" height="400" version="1.0" viewBox="0 0 300 300"><path d="M139 1c-29 3-49 10-71 25l-8 5v32H30l-3 5a150 150 0 0 0 2 164l5 8h26v26l8 5c17 11 35 19 54 23 15 3 44 3 59 0 17-4 36-11 51-21l5-3v-30h32l5-8c12-18 20-38 24-58 2-13 2-38 0-52-3-17-13-41-22-55l-3-4h-36V27l-5-3a159 159 0 0 0-93-23zm52 17c12 4 22 8 29 13l6 3v40h40l3 6c5 7 9 17 13 29l3 9 1 27-1 35c-4 14-11 31-19 43l-3 5-19 1h-18v35l-7 4c-21 12-43 17-67 17-28 0-52-7-75-21l-6-4v-31H41l-4-5c-9-15-17-35-21-53-2-11-2-34 0-45 3-13 7-27 14-40l6-12h35V38l6-4c11-7 27-15 41-18 7-2 11-2 36-2l28 1 9 3z"/><path d="m142 77-2 3-33 1-34 1-2 3-6 18-15 39-11 26c-3 2-3 4 0 8 7 12 14 16 28 18 18 3 35-4 40-16 3-5 2-8-1-17a2698 2698 0 0 1-25-70l30-1c26 0 30 0 32 2l3 1v72l1 74h7l1-75V90h32l33 1c0 1-19 55-26 71l-3 10 2 5c6 13 22 20 41 17 13-2 22-7 27-16 2-5 3-8 1-10l-4-9-15-39a219 219 0 0 1-12-36c-2-3-5-3-39-3h-34l-3-3c-2-2-3-3-7-3l-6 2zm-65 24 12 34 11 30c1 2-1 2-26 2H48v-2a749 749 0 0 1 27-68l2 4zm157 13 13 36 7 17h-54a524 524 0 0 1 23-63l3-8 7 18zm-133 61c0 3-5 8-10 10-8 3-22 4-29 2-7-3-13-6-15-10l-1-3h28l27 1zm153 2c-2 4-8 7-15 10-8 2-22 1-29-2-5-3-11-8-11-10l28-1h28l-2 3z"/><path d="M192 380a180 180 0 0 1-89-29l-8-5v-41H54l-4-7c-14-21-25-51-29-75a263 263 0 0 1 4-67c4-15 8-27 18-45l6-12h46V51l6-4c18-12 41-22 60-26 6-2 7-2 43-1h37l10 3c19 6 31 11 44 19l6 4v53h53l4 6c8 13 13 25 19 44l3 10v37c1 36 1 37-1 43-4 18-14 42-25 59l-4 6-25 1h-24v46l-9 5a183 183 0 0 1-100 24zm13-61 1-6 1-99v-94h40l42 1h4l-4 11a5993 5993 0 0 1-35 98l3 5c6 13 14 19 30 23 5 2 23 2 30 0 14-3 23-8 29-17l5-13-2-6a2827 2827 0 0 1-40-106c0-5-1-6-9-7l-47-1-43-1-2-3-5-3c-2-1-7-2-10-1l-7 6-35 2-54 1-3 6-19 51-23 57c-4 5-4 7 1 15 9 12 19 18 34 21 25 4 47-4 55-20 2-4 3-5 3-9 0-6 2-1-21-65l-15-43 4-1a1287 1287 0 0 1 79 2l3 2v89a5596 5596 0 0 0 2 105h8z" style="fill:#fff;stroke-width:.597015" transform="scale(.75)"/><path d="m64 221 12-31 20-51c4-11 4-11 5-8l14 37a79427 79427 0 0 0 16 44l2 9a742 742 0 0 1-69 0zm23 29c-7-2-16-6-20-11l-5-6a747 747 0 0 1 72 1l-5 7c-3 3-9 6-15 7-5 2-21 3-27 2zm183-36a6984 6984 0 0 1 32-85 1088 1088 0 0 1 33 84l3 8-4 1h-66zm28 36a40 40 0 0 1-32-17l45-1h29l-2 3c-2 4-6 7-12 10-9 5-17 6-28 5z" style="fill:#fff;stroke-width:.597015" transform="scale(.75)"/></svg>