<svg xmlns="http://www.w3.org/2000/svg" width="400" height="400" version="1.0" viewBox="0 0 300 300"><path d="M139 .6c-28.9 3.5-48.9 10.6-70.7 25.1L60 31.1V63H30l-3.4 5.2C17.3 82.8 9.9 101.4 5.9 120c-3.3 15.1-3.3 41.9 0 57 4.4 20.6 11.6 37.8 22.8 54.7l5.4 8.3H60v25.9l8.3 5.4c16.5 11 34.9 18.8 54 22.9 14.7 3.2 43.7 3.2 58.4 0 17.5-3.8 36.6-11.6 51.1-20.8l5.2-3.4v-30h31.9l5.4-8.3c11.7-17.5 20.1-38.1 23.3-57.2 2.3-13.5 2.3-38.5 0-52-3-17.4-12.6-41.9-21.8-55.3l-2.9-4.2H237V27l-5.2-3.4C216.3 13.7 194.7 5.3 178 2.5 168.4.9 145.5-.2 139 .6zm52.3 17.2c11.9 4 21.2 8.1 28.9 12.8l5.8 3.5V74h39.9l3.5 5.8c4.7 7.7 8.8 17 12.8 28.9l3.2 9.8.4 26.9c.3 22.5.1 28.1-1.3 34.5-3.1 13.9-10.7 31.6-18.7 43.6l-3.3 5-18.3.3-18.2.2v34.6l-7.2 4.1c-21.3 12-42.7 17.6-67.3 17.6-27.2 0-51.2-7-74.2-21.5l-6.3-4V229H40.5l-3.5-5.3c-9.5-14.3-17.4-34.5-20.6-52.2-2-11.7-2-34.2 0-45.8 2.4-13.2 7.1-26.9 13.8-40L36.3 74H71V38.1l5.8-3.9C87.7 26.8 104.4 19.4 118 16c6.6-1.7 10.8-1.9 35.5-1.7l28 .3 9.8 3.2z"/><path d="M142 77c-1.1 1.1-2 2.4-2 3 0 .6-11.5 1-32.6 1-20.5 0-33.2.4-34.5 1-1 .6-1.9 2.1-1.9 3.4 0 1.3-2.6 9-5.9 17.2-3.2 8.2-10 25.7-15.1 38.9s-10.1 24.9-11.1 26.1c-2.5 2.7-2.4 4.5.4 8.9 6.8 11.1 14.1 15.8 27.4 17.6 18.5 2.5 35.1-3.9 40.4-15.6 2.5-5.5 2.4-8.1-1.2-17.7-1.7-4.6-6.4-17.5-10.4-28.8-4.1-11.3-9-24.9-10.9-30.3-2-5.4-3.6-10.2-3.6-10.7 0-.6 11.5-1 30-1 26 0 30.4.2 32.5 1.6l2.5 1.6v72.2c0 54.8.3 72.5 1.2 73.4 1.5 1.5 5.1 1.5 6.6 0 .9-.9 1.2-18.9 1.2-75V90h32.5c17.9 0 32.5.4 32.5.8 0 .9-19.4 55.4-25.5 71.5l-3.7 9.8 2.5 5.3c6.1 12.8 21.8 19.3 40.6 16.7 13.5-1.8 22-6.9 26.7-16.2 2.5-5.1 3-7.9 1.5-9.5-.5-.5-2.5-5-4.4-9.9-1.9-5-8.7-22.4-15.1-38.8-7.2-18.5-11.4-30.7-11.1-32 .3-1.2.2-2.7-.2-3.3-2.2-3.1-5.5-3.4-39.3-3.4h-34.1l-2.6-3c-2.1-2.5-3.2-3-6.9-3-3.1 0-5 .6-6.4 2zm-64.7 24.2c.9 2.4 6.3 17.3 12.1 33.3 5.7 15.9 10.7 29.8 11.1 30.7.7 1.7-1 1.8-26 1.8H47.8l.6-2.3c.3-1.3 5.5-15.1 11.7-30.7 6.1-15.7 11.8-30.6 12.7-33.2.8-2.6 1.9-4.5 2.2-4.3.4.2 1.4 2.4 2.3 4.7zm156.2 13.1c3.8 10 9.9 25.8 13.6 35.2l6.7 17-26.6.3c-14.6.1-26.6.1-26.8-.1-.2-.1 4.1-12.4 9.5-27.2 5.3-14.9 11-30.7 12.7-35.3 1.6-4.5 3.1-8.2 3.4-8.2.3 0 3.6 8.2 7.5 18.3zM101 175.4c0 2.7-4.9 7.3-10.2 9.6-7.3 3.2-21.4 3.9-28.9 1.5-7.2-2.3-12.5-5.8-14.4-9.5l-1.6-3h27.6c23.1 0 27.5.2 27.5 1.4zm152.5 1.6c-1.9 3.7-7.3 7.3-14.3 9.5-8.1 2.7-22.1 1.8-29.5-1.9-4.9-2.4-10.7-7.8-10.7-9.9 0-.4 12.6-.7 28-.7h28.1l-1.6 3z"/><path d="M191.94 379.883c-7.059-.375-20.24-2.055-27.123-3.457-22.056-4.492-40.796-12.15-62.065-25.363l-7.827-4.862v-41.126H54.302l-4.466-6.793c-13.703-20.838-25.263-51.296-28.465-74.998-.497-3.676-.764-12.71-.761-25.672.006-22.319.505-27.293 4.163-41.471 4.015-15.564 8.558-27.142 17.753-45.245l5.99-11.792h46.409l.013-24.03.013-24.03 6.435-4.272c17.579-11.673 40.944-21.825 59.808-25.986 6.223-1.373 6.536-1.382 43.284-1.245l37.015.137 9.945 3.266c18.219 5.982 30.255 11.262 43.338 19.012l6.12 3.625V99.104h53.463l3.655 6.12c7.653 12.811 13.003 24.972 19.093 43.403l3.265 9.88.112 37.015c.112 36.621.098 37.082-1.26 43.284-3.954 18.047-14.37 42.464-25.2 59.073l-4.214 6.463-24.457.442-24.457.442v46.149l-8.806 4.887c-13.76 7.636-24.345 12.232-37.524 16.293-18.582 5.724-41.754 8.436-62.626 7.328zm12.573-60.73c.915-.669 1.246-1.892 1.572-5.82.227-2.737.603-47.397.835-99.246l.42-94.272 39.166.41c21.541.225 40.819.57 42.84.766l3.673.356-3.562 10.222c-6.805 19.529-22.16 62.263-28.626 79.67-3.576 9.629-6.503 17.896-6.503 18.371 0 .475 1.044 2.94 2.32 5.478 6.407 12.74 14.437 18.973 29.92 23.22 5.609 1.54 23.323 1.524 30.447-.027 14.1-3.069 22.736-8.298 28.623-17.334 2.414-3.704 5.368-10.852 5.394-13.05.007-.582-1.029-3.134-2.302-5.671-2.401-4.788-26.438-66.147-33.497-85.51-5.017-13.76-5.98-17.072-5.98-20.579 0-5.11-1.719-6.448-9.614-7.479-2.95-.385-22.332-.804-47.095-1.019l-42.083-.365-2.677-2.976c-1.471-1.638-3.548-3.341-4.614-3.787-2.286-.955-7.352-1.05-10.425-.197-2.036.565-5.97 4.135-6.582 5.973-.21.63-7.164.875-35.153 1.237-37.871.491-52.374.892-53.933 1.49-1.265.485-2.464 2.833-3.02 5.911-.623 3.45-4.02 12.602-18.852 50.784-14.547 37.452-21.373 53.992-23.694 57.412-3.322 4.896-3.064 6.843 1.92 14.49 8.098 12.427 18.412 18.85 34.032 21.19 24.782 3.712 46.849-4.137 54.97-19.552 2.022-3.837 2.303-4.895 2.497-9.398.256-5.954 2.022-.543-21.276-65.204-8.249-22.891-14.997-41.998-14.997-42.46 0-.603 1.203-.957 4.288-1.261 6.926-.683 70.186-.465 73.907.254 1.798.347 4.283 1.302 5.522 2.122l2.253 1.491.028 89.096c.015 49.003.247 92.565.515 96.805.406 6.424.67 7.843 1.579 8.508 1.44 1.052 6.299 1.022 7.764-.05z" style="fill:#fff;stroke-width:.597015" transform="scale(.75)"/><path d="M64.478 221.26c0-.891 5.616-16.05 11.638-31.41 6.834-17.432 16.633-42.894 19.524-50.728 4.066-11.023 3.972-10.874 5.268-8.336.575 1.127 6.736 17.766 13.69 36.975a79426.912 79426.912 0 0 0 15.96 44.057c1.825 5.023 3.129 9.322 2.898 9.553-.231.23-15.846.496-34.7.588-29.658.145-34.278.051-34.278-.7zM87.303 249.526c-7.04-1.262-16.008-5.621-20.637-10.031-1.942-1.85-4.576-5.842-4.576-6.934 0-.177 13.903-.305 30.895-.285 28.928.036 40.205.416 41.18 1.391.747.748-1.846 4.64-4.831 7.252-3.796 3.32-9.016 5.926-15.006 7.49-5.462 1.426-21.581 2.093-27.025 1.117zM270.429 213.582c3.626-10.594 26.058-72.995 28.67-79.756 1.06-2.74 2.15-4.754 2.424-4.478.59.597 6.354 15.113 19.874 50.055 5.463 14.12 11.374 29.298 13.134 33.731l3.201 8.06-3.343.383c-1.84.21-17.638.412-35.108.448l-31.764.065zM297.612 250.086c-12.703-.944-21.668-4.913-28.851-12.772-1.7-1.86-3.09-3.586-3.09-3.836 0-.796 16.13-1.235 45.481-1.237l28.465-.002-1.534 2.745c-2.322 4.156-5.876 7.205-11.814 10.14-8.869 4.381-17.157 5.817-28.657 4.962z" style="fill:#fff;stroke-width:.597015" transform="scale(.75)"/></svg>