<?xml version="1.0" encoding="UTF-8" standalone="no"?>
<svg
   xmlns:dc="http://purl.org/dc/elements/1.1/"
   xmlns:cc="http://creativecommons.org/ns#"
   xmlns:rdf="http://www.w3.org/1999/02/22-rdf-syntax-ns#"
   xmlns:svg="http://www.w3.org/2000/svg"
   xmlns="http://www.w3.org/2000/svg"
   xmlns:sodipodi="http://sodipodi.sourceforge.net/DTD/sodipodi-0.dtd"
   xmlns:inkscape="http://www.inkscape.org/namespaces/inkscape"
   version="1.0"
   width="238pt"
   height="238pt"
   viewBox="0 0 238 238"
   preserveAspectRatio="xMidYMid meet"
   id="svg50"
   sodipodi:docname="maleficiasup.svg"
   inkscape:version="1.0.2 (e86c870879, 2021-01-15)">
  <defs
     id="defs54" />
  <sodipodi:namedview
     pagecolor="#ffffff"
     bordercolor="#666666"
     borderopacity="1"
     objecttolerance="10"
     gridtolerance="10"
     guidetolerance="10"
     inkscape:pageopacity="0"
     inkscape:pageshadow="2"
     inkscape:window-width="1920"
     inkscape:window-height="1182"
     id="namedview52"
     showgrid="false"
     units="mm"
     inkscape:zoom="2.4739583"
     inkscape:cx="153.33333"
     inkscape:cy="154.66667"
     inkscape:window-x="0"
     inkscape:window-y="18"
     inkscape:window-maximized="1"
     inkscape:current-layer="svg50" />
  <metadata
     id="metadata42">
Created by potrace 1.16, written by Peter Selinger 2001-2019
<rdf:RDF>
  <cc:Work
     rdf:about="">
    <dc:format>image/svg+xml</dc:format>
    <dc:type
       rdf:resource="http://purl.org/dc/dcmitype/StillImage" />
    <dc:title></dc:title>
  </cc:Work>
</rdf:RDF>
</metadata>
  <g
     transform="matrix(0.1,0,0,-0.1,0,288)"
     fill="#000000"
     stroke="none"
     id="g48">
    <path
       d="m 613.32675,2261.1984 -576.999996,-577 577.999996,-578 576.99995,-577 580,580 580,580 -575,575 c -316,316 -577,575 -580,575 -3,0 -264.99997,-260 -582.99995,-578 z m 205.99998,-36 c 23,-18 87,-64 142,-101 54.99997,-38 102.99997,-74 107.99997,-81 12,-21 69,-51 109,-58 43,-8 110,21 128,53 5,11 26,25 45,31 20,7 43,23 52,36 9,14 33,34 53,44 20,10 43,26 51,36 13,16 90,54 110,54 19,0 -14,-171 -40,-208 -11,-15 -24,-58 -31,-97 -6,-38 -22,-93 -36,-122 -31,-67 -30,-78 8,-94 18,-7 49,-28 68,-45 19,-17 49,-40 65,-50 17,-11 41,-30 55,-43 27,-26 158,-111 171,-111 13,0 22,-41 10,-53 -7,-7 -92,-11 -240,-12 -127,0 -233,-3 -236,-7 -3,-3 -23,-29 -44,-57 -32,-42 -41,-64 -46,-114 -8,-67 -17,-90 -47,-124 -13,-14 -23,-46 -29,-99 -10,-76 -22,-114 -37,-114 -5,0 -20,12 -34,27 -29,31 -52,93 -63,168 -7,45 -20,81 -52,140 -6,11 -18,46 -27,78 -25,86 -37.99996,91 -214.99997,90 -79.99998,0 -187.99998,-4 -237.99998,-8 -76,-6 -93,-5 -93,6 1,39 49,86 162,159 25,17 49,37 52,45 3,8 20,22 38,31 17.99998,9 48.99998,30 67.99998,46 19,16 46,38 59,49 21,18 23,25 18,76 -4,36 -15,68 -32,93 -17,25 -29,60 -36,105 -5,37 -23,95 -39,128 -36.99998,76 -39.99998,137 -8,137 6,0 28,-15 51,-34 z"
       id="path44"
       inkscape:transform-center-x="-30.281688"
       inkscape:transform-center-y="40.680777" />
    <path
       d="m 894.35833,2066.1984 c -27,-21 -15,-86 34,-179 31,-59 41,-89 41,-124 0,-28 8,-59 19,-78 23.99997,-41 36.99997,-108 18.99997,-101 -7,3 -21.99997,19 -32.99997,35 -24,36 -54,38 -106,7 -19,-12 -51,-31 -69,-42 -42,-25 -80,-61 -80,-75 0,-5 9,-19 21,-31 20,-20 29,-21 123,-16 55,3 113,8 127,12 22.99997,6 26.99997,3 31.99997,-24 5,-25 13,-32 46,-41 l 39,-10 3,-78 c 4,-77 5,-79 53,-135 46,-54 68,-68 80,-49 3,5 10,48 16,95 15,126 28,159 70,179 19,9 47,29 62,44 l 27,28 65,-13 c 101,-20 196,4 196,49 0,13 -12,25 -37,35 -21,9 -49,27 -63,39 -14,13 -44,33 -66,44 -42,21 -54,38 -54,73 0,22 -15,25 -27,7 -4,-7 -10,-41 -14,-76 -8,-73 -40,-122 -103,-158 -21,-12 -43,-32 -50,-45 -13,-26 -48,-35 -103,-24 -65,12 -30,65 43,65 16,0 42,16 71,43 40,38 46,50 50,93 6,65 -8,97 -58,134 -33,23 -52,30 -89,30 -43,0 -50,-4 -75,-36 -31,-40 -68,-44 -73,-7 -4,28 114,147 137,138 8,-3 36,-9 61,-12 38,-5 52,-13 88,-54 24,-27 48,-49 53,-49 5,0 14,11 19,24 5,14 18,30 30,36 33,17 49,51 65,135 8,44 15,83 15,88 0,20 -70,5 -105,-23 -21,-16 -42,-30 -46,-30 -5,0 -20,-17 -33,-38 l -24,-38 -83,1 c -89,1 -116,10 -146,48 -10,13 -30,30 -43,37 -14,6 -38.99997,27 -56.99997,46 -36,38 -41,40 -68,21 z m 268.99997,-462 c 8,-22 -3,-43 -25,-50 -11,-4 -26,-20 -34,-36 -13,-24 -22,-29 -51,-29 -35,0 -35,1 -32,38 3,32 7,37 30,40 15,2 34,14 42,28 18,27 61,33 70,9 z"
       id="path46" />
  </g>
  <path
     style="fill:#ffffff;stroke-width:0.404211"
     d="m 157.53887,262.25988 c -4.29935,-4.39411 -6.99143,-10.84669 -8.86396,-21.2458 -1.28946,-7.16108 -2.32538,-10.38391 -5.28689,-16.44801 -1.73492,-3.55249 -3.63463,-8.35212 -5.02487,-12.69539 -4.28721,-13.39367 -4.53934,-13.51189 -28.86791,-13.53517 -8.10421,-0.008 -18.654107,0.20138 -23.44421,0.46475 -4.790101,0.26338 -11.437697,0.49075 -14.772434,0.50527 l -6.063157,0.0264 0.05291,-1.2522 c 0.178227,-4.21778 6.9556,-10.92948 19.349192,-19.16169 4.846517,-3.21921 8.119627,-5.91472 9.00568,-7.41647 0.435858,-0.73873 1.589149,-1.84313 2.562868,-2.45422 7.528601,-4.72489 10.017121,-6.47514 14.737641,-10.36537 2.95403,-2.43444 5.73753,-4.89228 6.18557,-5.46186 1.15508,-1.46845 1.40197,-3.8807 0.86094,-8.41198 -0.67152,-5.62423 -1.77136,-8.79661 -4.72356,-13.62469 -1.76975,-2.89428 -3.11567,-6.89208 -4.168,-12.38023 -1.5436,-8.05031 -3.12239,-12.99617 -6.68059,-20.928132 -3.11593,-6.946061 -3.451709,-13.923092 -0.70326,-14.612907 1.26438,-0.31734 1.88785,0.04119 7.61981,4.381897 2.64565,2.003496 9.26669,6.750079 14.71343,10.547962 12.58092,8.77238 15.74554,11.14495 19.00579,14.249 4.38354,4.17352 11.04984,7.05931 16.3073,7.05931 5.72024,0 10.80677,-2.31609 14.65612,-6.67347 2.01703,-2.28324 2.92682,-2.93541 6.44472,-4.61978 3.56548,-1.70716 4.56221,-2.42859 7.69374,-5.5687 2.47804,-2.48483 4.54672,-4.127819 6.64752,-5.279615 1.67745,-0.919692 4.07295,-2.567405 5.32333,-3.661587 2.85606,-2.499262 6.12595,-4.494148 10.24383,-6.249511 4.80838,-2.049712 5.35989,-2.132678 5.68068,-0.85456 0.37795,1.505858 -0.11077,6.049589 -1.26378,11.749724 -1.26973,6.277189 -2.72497,10.869719 -4.65486,14.690129 -1.87516,3.71208 -2.89059,6.97456 -4.25174,13.66045 -1.09956,5.40099 -3.49971,12.90824 -5.97106,18.67639 -2.49964,5.83418 -2.03479,7.82575 2.25488,9.66066 2.56176,1.0958 6.20074,3.57951 10.50186,7.16783 1.94261,1.62067 4.86994,3.8495 6.50519,4.95296 1.63524,1.10345 4.86605,3.58118 7.17957,5.50606 4.99157,4.15308 17.33542,12.48621 21.66668,14.62684 2.42305,1.19754 3.1844,1.79285 3.61701,2.82825 0.87499,2.09415 0.70979,4.0422 -0.40472,4.77246 -1.49521,0.9797 -9.70911,1.38231 -36.84101,1.80581 -13.56126,0.21167 -25.0868,0.50991 -25.61231,0.66275 -0.59721,0.17369 -2.53274,2.38975 -5.16208,5.91023 -5.95068,7.9675 -6.54411,9.30054 -7.6126,17.10019 -1.15791,8.45236 -2.16187,11.26061 -5.61265,15.69955 -2.57915,3.3177 -3.32116,5.70522 -4.69632,15.11113 -1.38247,9.45592 -2.82463,13.8416 -4.5516,13.8416 -0.5614,0 -1.8736,-1.00951 -3.58269,-2.75626 z m 8.10094,-29.35203 c 0.5569,-0.67104 1.5501,-6.20093 3.01756,-16.80118 1.21259,-8.75916 2.26819,-12.91821 4.02063,-15.84122 1.09223,-1.8218 1.89124,-2.49476 5.70626,-4.80596 2.55614,-1.54856 5.8468,-4.00304 7.76469,-5.79163 l 3.32851,-3.1041 5.37215,1.10465 c 6.86584,1.41178 17.01379,1.61862 21.33846,0.43491 4.81146,-1.31695 7.84168,-3.84733 7.84168,-6.54817 0,-1.9538 -1.25262,-3.13581 -5.82063,-5.49253 -2.112,-1.08962 -5.84604,-3.48462 -8.29787,-5.32223 -2.45184,-1.8376 -5.96841,-4.15009 -7.81461,-5.13885 -5.35414,-2.86751 -7.33173,-5.37343 -7.33173,-9.29045 0,-2.67044 -1.85157,-3.79918 -3.40904,-2.07819 -0.87203,0.96358 -1.20691,2.37677 -2.24699,9.48236 -0.99703,6.81137 -2.21419,10.466 -4.69479,14.0965 -2.13845,3.12972 -4.5091,5.25419 -9.49735,8.51107 -3.21716,2.10052 -4.24857,3.07057 -7.37027,6.93177 -1.30708,1.61671 -4.10704,2.65086 -7.11176,2.62668 -2.88165,-0.0232 -7.24905,-0.9996 -8.44293,-1.88758 -3.37634,-2.51123 0.57933,-6.17292 7.49214,-6.93533 3.87253,-0.4271 5.58316,-1.29038 9.8728,-4.98237 3.47184,-2.98811 6.14203,-6.3263 6.78981,-8.48838 1.46343,-4.8845 1.25488,-12.47232 -0.43444,-15.80666 -1.94853,-3.84595 -5.85647,-7.35174 -10.85876,-9.74131 -2.50803,-1.19809 -2.85815,-1.25509 -7.70878,-1.25509 -5.92802,0 -6.45795,0.23351 -9.83438,4.33332 -3.59093,4.36028 -6.70385,5.58707 -8.59578,3.38757 -0.51874,-0.60307 -0.94146,-1.49561 -0.93937,-1.98343 0.0137,-3.1933 10.2625,-14.55736 15.80778,-17.52788 1.26226,-0.67617 1.88327,-0.79277 2.71465,-0.50972 0.5929,0.20186 3.25179,0.72934 5.90865,1.17219 6.75626,1.12611 8.11127,1.88151 13.2069,7.36263 2.30671,2.48121 4.90706,5.0282 5.77856,5.65997 l 1.58454,1.14867 0.97707,-0.91534 c 0.53739,-0.50344 1.23966,-1.54219 1.5606,-2.30833 0.93491,-2.2318 2.46298,-3.96444 4.83401,-5.48117 2.76928,-1.77149 4.27064,-4.08687 5.85286,-9.02625 1.14452,-3.57294 4.01901,-17.9504 4.01901,-20.10203 0,-1.58703 -1.47499,-2.0316 -4.7427,-1.42951 -3.74044,0.68921 -6.06072,1.75037 -11.22362,5.13306 -5.59346,3.66479 -7.21815,5.24678 -9.9302,9.66922 l -2.17264,3.54285 -8.70226,-0.27824 c -14.31605,-0.45773 -16.3616,-1.0511 -21.14735,-6.13429 -1.6032,-1.70285 -4.41463,-4.09045 -6.24761,-5.30576 -1.83299,-1.21531 -5.10709,-3.89323 -7.27579,-5.95093 -2.1687,-2.0577 -4.35923,-3.96156 -4.86783,-4.2308 -1.11362,-0.58951 -2.25659,-0.28895 -4.06973,1.07019 -2.58485,1.93761 -3.05144,4.79972 -1.69696,10.40927 0.93413,3.86876 2.15175,6.84291 6.20563,15.1579 3.55936,7.3007 4.57932,10.53246 4.93273,15.62953 0.32252,4.65153 0.87601,6.73076 2.94107,11.04836 2.32015,4.85096 3.76241,10.45863 2.99239,11.63475 -0.58518,0.8938 -1.67266,0.088 -4.18727,-3.10267 -1.33299,-1.69138 -2.99226,-3.43599 -3.68727,-3.87692 -1.96474,-1.24646 -5.13763,-1.07751 -8.36691,0.44551 -3.38008,1.59415 -13.68296,7.85642 -16.60976,10.09571 -3.076622,2.35392 -6.430695,6.09443 -6.4282,7.16883 0.0032,1.38817 2.838671,4.81624 4.85162,5.86563 1.78988,0.93309 1.94285,0.94322 10.70845,0.70846 9.22349,-0.24702 14.71693,-0.66056 20.15704,-1.5174 3.73235,-0.58787 3.96951,-0.43194 4.7008,3.09066 0.70545,3.39817 1.96884,4.35489 7.74197,5.86275 l 3.49666,0.91328 0.26991,6.31571 c 0.36439,8.52659 0.89589,12.72337 1.87517,14.8067 1.05778,2.25034 6.28339,8.5327 10.00036,12.02269 2.39646,2.25011 3.14388,2.72842 4.26354,2.72842 0.74672,0 1.57423,-0.26094 1.83892,-0.57987 z"
     id="path141"
     transform="scale(0.74999998)" />
  <path
     style="fill:#ffffff;stroke-width:0.404211"
     d="m 137.36702,184.88058 c -0.95478,-0.51809 -1.00486,-0.71436 -0.90784,-3.55797 0.16475,-4.82863 0.4675,-5.22618 4.89719,-6.43074 1.30881,-0.35591 2.42449,-1.15167 4.30825,-3.07288 1.39813,-1.42594 3.02528,-2.77633 3.61591,-3.00089 3.20095,-1.217 5.87175,0.2334 5.87175,3.18871 0,1.95264 -1.01102,3.24588 -3.76319,4.8137 -1.36613,0.77823 -2.50795,1.9335 -3.84,3.88522 -1.04267,1.52771 -2.35208,3.11769 -2.9098,3.53329 -1.3476,1.00419 -5.8689,1.40306 -7.27227,0.64156 z"
     id="path143"
     transform="scale(0.74999998)" />
</svg>
