<svg xmlns="http://www.w3.org/2000/svg" width="384" height="385.333" version="1.0" viewBox="0 0 288 289"><path d="M24 144.2v120.3l118.8-.1c65.3-.1 119.3-.2 120-.3.9-.1 1.2-24.8 1.2-120.1V24H24v120.2zm60.1-104c4 3.7 9.8 8.1 19.9 14.9 15.9 10.9 20.2 14 22.9 16.9 3.9 4.1 7.6 6.1 13.7 7.6 7.2 1.6 12.7-.1 18.6-6.1 2.4-2.3 6.3-5.1 8.8-6.2 2.5-1.1 6.1-3.9 8-6.1 1.9-2.3 4.8-4.7 6.5-5.4 1.6-.6 5.3-3.1 8-5.4 6.2-5.2 21.5-12.8 22.9-11.4.7.7.4 2-.7 3.9-.9 1.6-2.8 8.4-4.1 15.2-1.5 7.4-3.3 13.3-4.4 14.9-2.3 3.1-3.5 7-6.2 19.8-1 5.2-2.8 11.1-3.9 13.2-1.1 2.1-2.3 5.5-2.7 7.5-.8 4.2 1.1 6.8 6.3 9 1.8.8 5.4 3.4 8 5.8 2.7 2.4 6.8 5.7 9.3 7.2 2.5 1.5 5.5 4 6.8 5.6 1.3 1.6 4.6 4 7.5 5.4 2.9 1.5 6.6 3.9 8.2 5.3 1.7 1.5 4.6 3.6 6.5 4.6 7.7 4.2 10 8.5 6.2 11.9-1.5 1.4-6.1 1.6-36.2 1.8l-34.5.3-2.5 2.6c-9.8 10.5-10.6 11.9-12.6 23.5-1.7 10.1-3.9 15.8-7.9 20.6-1.6 2-2.5 5.4-3.8 14.4-.9 6.5-2.4 12.9-3.2 14.2-2.9 4.4-7.1 2.3-12-6.2-2.6-4.4-4.6-11.2-7-22.7-.9-4.3-3.3-11.2-5.5-15.5-2.1-4.3-4.3-10.3-4.9-13.3-.6-3-2.2-7.3-3.4-9.5-1.8-3.3-3.2-4.3-7.7-5.9-4.9-1.6-6.5-1.7-15.5-.7-5.5.6-16.7 1.1-25 1-8.2 0-18.7.4-23.3 1.1-12.2 1.6-13.5-.2-7-9.7 1.6-2.4 4.1-4.9 5.7-5.7 1.5-.8 5-3.5 7.7-5.9 2.8-2.5 6.8-5.5 9.1-6.6 2.2-1.2 5.6-3.9 7.5-6 1.9-2.1 5.5-4.9 7.9-6.1 2.4-1.3 6.6-4.2 9.3-6.6 2.6-2.4 5.4-4.4 6.1-4.4.6 0 2-.9 3.1-2.1 3.9-4.3 1.7-19.2-3.7-25.4C88.8 93 86 83.8 86 79.1c0-4.9-2.2-11.7-5.8-18.2-3.6-6.6-5.9-17.7-4.3-20.8 1.5-2.8 5.2-2.7 8.2.1z"/><path d="M98.7 69.8c-3.5 3.9-.9 14 7.1 27.6 4.1 7.1 4.7 8.8 4.8 14.1.2 8.4.1 8.1 3.3 11.8 2.2 2.5 3.3 5 4 9.6 1.6 10.1 4.3 11.6 10.1 5.6 5.4-5.6 12-4.2 12 2.6 0 2.3-.9 3.4-4 5.5-2.4 1.6-4.3 3.8-4.7 5.3-.9 3.8-2.1 5-6.2 5.7-2 .4-4.2 1.1-4.8 1.7-2 1.5-1.5 4.4.9 6.1 2.7 1.9 8.7 2.1 9.2.3 1.9-7.3 1.7-7.1 9.1-8.3 9.5-1.6 11.4-2.5 16.4-7.5 6.7-6.8 7.1-7.6 7.1-16v-7.7l-4.5-5c-5.7-6.3-9.7-8.2-17.3-8.2-6 0-6 0-10.1 4.9-4 4.8-9.9 8-12.1 6.6-1.3-.8-1.3-7.6-.1-10.9.6-1.3 2.5-3.5 4.4-4.8 3-2 12.7-13 12.7-14.3 0-.2-2.2-1.6-5-3-3.1-1.6-6-4-7.6-6.5-1.7-2.6-4.4-4.8-7.7-6.4-3.2-1.5-6-3.8-7.7-6.2-3-4.5-6.7-5.5-9.3-2.6zM177.5 74.1c-1.1 1.2-4.3 3.6-7.2 5.5-3.3 2.1-6 4.8-7.2 7.3-1.1 2.1-3.2 4.8-4.6 5.9-2.6 2-2.7 2-6.7.2-3.5-1.6-4.6-1.7-7.2-.6-1.6.6-3.1 1.7-3.3 2.3-.6 1.7 6.4 3.6 10.8 2.9 3.5-.6 4-.3 6.6 3.1 4.2 5.4 8.5 9.3 10.5 9.3 2.7 0 13.5-8.8 15.1-12.4 1.9-3.9 4-16.9 3.5-21.6-.3-3.3-.5-3.5-4.3-3.7-2.9-.2-4.5.3-6 1.8zM179.6 128.2c-.3 1.3-.7 4.6-.9 7.4-.3 3.6-1.6 7.3-4.6 12.8-3.9 7.1-4.8 7.9-9.7 10.1-4.4 1.9-5.4 2.9-5.4 4.8 0 3.4.7 3.7 5.5 2 3-1 5.1-2.5 6.5-4.8 2.7-4.3 5.4-4.9 14.7-2.9 10.2 2.1 23.4 1.5 27.2-1.3 1.4-1.1 2.7-3.2 2.9-4.7.3-2.3-.3-2.9-5.1-5.1-3-1.4-7.5-4.3-10-6.5s-6.8-5.1-9.6-6.4c-2.8-1.3-6-3.5-7.2-5-2.5-3.2-3.7-3.3-4.3-.4z"/><path d="M99.5 134c-2.2 1.1-4.5 1.9-5.1 2-.6 0-4.1 2.1-7.7 4.7-3.5 2.7-7.9 5.6-9.6 6.5-2.6 1.4-3.1 2.3-3.1 5.2 0 6 3 7.1 18 6.8 13.3-.2 22.4-2.1 23.4-4.8 1.4-3.8.4-7.5-3.6-13.5-5.9-8.5-7.3-9.3-12.3-6.9zM133.3 170.1c-1.6 1.6-1.8 17.6-.3 21.5.6 1.5 2.5 4.5 4.3 6.6 1.8 2 4.5 5.3 6 7.3 3.4 4.2 6.4 4.5 7.7.9 1.1-2.9 5.5-35.3 4.8-35.9-.2-.2-5.1-.7-10.8-1.1-8-.5-10.8-.3-11.7.7z"/><path d="M191.578 328.983c-2.2-1.341-6.5-7.007-8.858-11.674-2.418-4.783-4.7-12.032-7.101-22.558-2.331-10.219-5.075-18.808-8.14-25.485-3.447-7.503-5.359-12.642-7.134-19.172-1.966-7.23-4.274-12.614-6.57-15.325-1.852-2.188-4.288-3.535-9.465-5.235-4.102-1.346-11.583-1.577-19.887-.614-2.53.294-14.953.789-27.606 1.1-12.653.312-26.758.9-31.344 1.305-4.587.406-10.496.738-13.132.738-4.128 0-4.908-.16-5.633-1.15-1.101-1.507-.663-3.148 2.088-7.81 2.91-4.93 6.845-9.261 10.947-12.047 1.814-1.232 5.98-4.467 9.258-7.19 3.279-2.721 8.137-6.29 10.797-7.93 2.66-1.64 7.414-5.311 10.565-8.158 3.15-2.847 6.538-5.72 7.529-6.386.99-.665 4.389-2.91 7.552-4.987 3.163-2.077 7.433-5.233 9.49-7.013 2.055-1.78 5.161-3.973 6.9-4.872 5.601-2.893 7.01-5.613 7-13.513-.01-8.414-2.795-17.958-6.758-23.153-3.503-4.593-6.276-13.42-7.16-22.786-.696-7.384-2.879-14.657-6.519-21.723-7.138-13.856-9.63-28.31-5.391-31.28 2.733-1.913 5.927-.873 10.913 3.555 3.981 3.536 13.451 10.52 25.17 18.563 17.958 12.324 24.66 17.285 29.984 22.192 8.352 7.697 16.331 10.93 25.876 10.483 6.361-.298 10.492-2.241 16.849-7.927 4.523-4.046 8.113-6.565 14.654-10.286 1.873-1.065 5.83-4.3 8.792-7.189 3.284-3.203 6.78-5.994 8.96-7.153 1.967-1.046 6.32-3.96 9.673-6.477 3.354-2.516 7.926-5.644 10.162-6.95 6.423-3.751 15.804-8.054 18.286-8.387 1.999-.268 2.27-.164 2.27.865 0 .643-.642 2.553-1.427 4.245-.784 1.692-2.364 7.088-3.51 11.991-4.784 20.472-5.428 22.692-8.261 28.469-3.443 7.019-3.988 8.752-6.894 21.906-2.42 10.953-4.662 18.73-6.37 22.095-1.611 3.172-3.444 9.2-3.444 11.324 0 4.462 2.061 6.858 9.056 10.526 1.977 1.037 6.506 4.32 10.065 7.295 3.56 2.975 8.787 7 11.617 8.944 2.83 1.943 6.97 5.252 9.202 7.352 4.4 4.14 7.138 6.105 13.082 9.386 2.117 1.17 6.624 4.208 10.015 6.753 3.392 2.546 7.113 5.11 8.269 5.7 5.905 3.013 10.308 8.199 9.545 11.242-.737 2.935-2.67 4.308-6.948 4.935-2.248.33-22.908.764-46.791.985l-42.766.395-3.345 3.559c-6.788 7.221-11.01 12.582-12.703 16.13-1.195 2.504-2.444 7.127-3.998 14.8-3.079 15.2-5.1 20.645-10.124 27.27-2.473 3.262-3.288 6.113-5.398 18.885-.953 5.769-2.244 12.487-2.869 14.93-1.8 7.037-4.712 9.139-9.02 6.512zm7.886-50.616c1.532-.82 2.687-4.474 4.003-12.66 1.445-8.994 3.847-27.515 4.379-33.76.472-5.546 1.234-5.024-8.657-5.922-9.028-.82-19.967-.747-21.167.143-1.604 1.188-2.258 6.868-2.036 17.688.198 9.676.269 10.191 1.81 13.228 2.174 4.287 14.71 19.51 17.136 20.812 2.213 1.187 3.035 1.272 4.532.47zm-25.993-56.513c.325-.395 1.017-2.188 1.537-3.985.52-1.796 1.456-3.914 2.079-4.706 1.183-1.504 1.553-1.612 13.188-3.845 8.871-1.703 11.9-3.392 18.804-10.488 3.18-3.27 6.227-6.802 6.769-7.85 1.112-2.15 1.994-9.849 2.017-17.605l.016-5.202-5.755-6.11c-8.985-9.54-12.867-11.38-23.997-11.38-4.55 0-7.01.249-8.091.82-.855.45-3.353 2.82-5.552 5.263-6.372 7.083-13.432 10.953-15.75 8.635-1.34-1.342-1.273-10.687.097-13.568.526-1.107 4.18-5.06 8.118-8.785 6.991-6.61 14.697-15.474 14.697-16.905 0-.393-2.263-1.956-5.028-3.472-4.807-2.636-7.32-4.8-14.62-12.588-1.476-1.574-4.56-3.888-6.853-5.143-5.352-2.926-7.84-4.944-11.15-9.04-3.03-3.75-5.083-5.03-8.063-5.03-2.761 0-4.61 1.317-5.711 4.071-2.594 6.483.712 17.702 10.103 34.288 5.93 10.475 6.323 11.694 6.83 21.215.47 8.815.791 9.855 4.35 14.089 2.917 3.472 3.977 6.082 5.624 13.857.775 3.662 1.824 7.458 2.33 8.437 2.084 4.031 5.163 3.724 10.42-1.039 4.279-3.879 6.783-5.199 9.858-5.199 3.933 0 6.51 2.976 6.51 7.516 0 2.595-.889 3.69-7.334 9.027-2.325 1.924-3.228 3.183-4.201 5.852-.682 1.87-1.795 3.92-2.473 4.555-.677.634-3.302 1.698-5.833 2.365-5.88 1.548-7.422 2.643-7.658 5.437-.236 2.79 1.073 4.74 4.108 6.117 2.826 1.284 9.675 1.539 10.614.396zm48.048-2.07c2.454-1.112 4.223-2.394 5.336-3.864 5.574-7.365 6.937-7.777 19.162-5.795 11.913 1.932 19.14 2.352 26.435 1.538 8.42-.94 11.801-2.314 13.92-5.654 1.976-3.117 2.177-5.938.538-7.577-.625-.624-3.018-2.08-5.32-3.236-4.97-2.494-9.897-5.723-16.518-10.824-2.672-2.058-7.196-4.98-10.055-6.494-3.187-1.687-6.676-4.144-9.016-6.347-5.854-5.513-6.406-5.099-7.676 5.755-1.004 8.582-1.713 10.818-6.194 19.53-4.648 9.037-6.128 10.645-13.075 14.214-7.325 3.762-8.5 5.39-6.912 9.569.55 1.449.759 1.528 3.147 1.2 1.406-.192 4.208-1.099 6.228-2.014zm-92.081-7.563c10.738-.623 17.121-1.726 21.525-3.719 2.732-1.236 3.003-1.54 3.516-3.943 1.167-5.474-.987-11.36-7.203-19.68-6.972-9.33-7.614-9.5-18.618-4.952-6.073 2.51-8.08 3.677-15.42 8.965-2.706 1.948-6.91 4.777-9.344 6.286-4.968 3.08-5.998 4.833-5.49 9.339.573 5.087 3.28 7.077 10.49 7.71 6.91.606 10.018.606 20.544-.005zm102.341-68.406c5.691-3.835 11.668-9.357 13.487-12.462 1.824-3.113 3.298-8.743 4.558-17.408 1.012-6.969.968-15.7-.086-16.754-.834-.834-6.457-1.399-9.062-.91-1.219.228-3.28 1.446-5.09 3.007-1.671 1.442-4.916 3.899-7.21 5.459-6.183 4.206-8.046 6.034-11.345 11.127-3.264 5.04-7.692 9.503-9.43 9.503-.606 0-2.927-.776-5.157-1.725-2.23-.95-4.67-1.726-5.421-1.726-2.305 0-6.53 1.707-7.94 3.207-1.324 1.41-1.326 1.433-.216 2.537 1.88 1.87 7.905 3.077 13.43 2.69l4.835-.339 2.067 2.185c1.137 1.2 3.865 4.202 6.062 6.67 2.197 2.467 5.018 5.227 6.269 6.133 3.333 2.415 5.219 2.195 10.25-1.194z" style="fill:#fff;stroke-width:.575124" transform="scale(.75)"/></svg>