<svg xmlns="http://www.w3.org/2000/svg" width="384" height="385" version="1.0" viewBox="0 0 288 289"><path d="M24 144v120h239l1-120V24H24v120zM84 40l20 15 23 17c4 4 8 6 14 8 7 1 12-1 18-7l9-6 8-6c2-2 5-5 7-5l8-6c6-5 21-12 22-11v4l-4 15-5 15c-2 3-3 7-6 20l-4 13-3 7c0 5 2 7 7 9l8 6c2 3 7 6 9 7l7 6c1 2 4 4 7 5l9 6 6 4c8 5 10 9 6 12-1 2-6 2-36 2h-34l-3 3c-10 11-11 12-13 24-1 10-3 15-7 20-2 2-3 5-4 14l-3 15c-3 4-8 2-12-7-3-4-5-11-7-22l-6-16-5-13-3-9c-2-4-3-5-8-6-5-2-6-2-15-1l-25 1-24 1c-12 2-13 0-7-10 2-2 4-5 6-5l8-6c2-3 6-6 9-7l7-6 8-6c3-1 7-4 9-7l7-4 3-2c4-4 1-19-4-25-2-3-5-12-5-17s-2-12-6-18c-3-7-6-18-4-21 1-3 5-3 8 0z"/><path d="M99 70c-4 4-1 14 7 27 4 8 4 9 5 15 0 8 0 8 3 11l4 10c1 10 4 12 10 6 5-6 12-5 12 2 0 2-1 3-4 6l-5 5c-1 4-2 5-6 6l-5 1c-2 2-1 5 1 6 3 2 9 2 9 1 2-8 2-7 10-9 9-1 11-2 16-7 7-7 7-8 7-16v-8l-4-5c-6-6-10-8-18-8-6 0-6 0-10 5s-10 8-12 6v-10l4-5c3-2 13-13 13-15l-5-3-8-6c-1-3-4-5-7-6l-8-7c-3-4-7-5-9-2zm79 4-8 6c-3 2-6 4-7 7l-4 6c-3 2-3 2-7 0s-5-2-7-1l-4 3c0 1 7 3 11 3 4-1 4-1 7 3 4 5 8 9 10 9 3 0 14-9 15-12 2-4 4-17 4-22 0-3-1-3-4-4l-6 2zm2 54-1 8-5 12c-4 8-5 8-10 11-4 1-5 2-5 4 0 4 1 4 6 2 3-1 5-2 6-4 3-5 5-5 15-3s23 1 27-2l3-4c0-3-1-3-5-6l-10-6-10-6-7-5c-3-4-4-4-4-1z"/><path d="m100 134-6 2-7 5-10 6c-2 2-3 2-3 5 0 6 3 7 18 7 13 0 22-2 23-5 2-3 1-7-3-13-6-9-7-9-12-7zm33 36v22l4 6 6 7c4 5 7 5 8 1l5-35-11-2-12 1z"/><path d="M192 329c-3-1-7-7-9-12-3-4-5-12-7-22-3-10-5-19-9-26l-7-19c-2-7-4-13-6-15s-5-4-10-5c-4-2-11-2-20-1a609 609 0 0 1-59 2l-13 1-5-1c-1-2-1-3 2-8s7-9 11-12l9-7 11-8 10-8a115 115 0 0 1 15-12l10-7 7-4c5-3 7-6 7-14s-3-18-7-23c-3-5-6-14-7-23-1-7-3-15-7-22-7-14-9-28-5-31 3-2 6-1 11 4l25 18c18 13 25 17 30 22 8 8 16 11 26 11 6 0 10-2 17-8 4-4 8-7 14-10l9-8 9-7 10-6 10-7 18-9 3 1-2 5-3 12c-5 20-6 22-9 28-3 7-4 9-6 22l-7 22-3 11c0 5 2 7 9 11l10 7 11 9 10 8c4 4 7 6 13 9l10 7 8 5c6 3 10 9 10 12-1 3-3 4-7 5l-47 1h-43l-3 3-13 17-4 14c-3 16-5 21-10 28-3 3-3 6-6 19l-2 14c-2 8-5 10-9 7zm7-51a697 697 0 0 0 8-46c1-6 2-5-8-6h-21c-2 1-2 7-2 18 0 10 0 10 2 13l17 21h4zm-26-56 2-4 2-5 13-4c9-1 12-3 19-10l7-8 2-18v-5l-6-6c-9-9-13-11-24-11l-8 1-6 5c-6 7-13 11-15 8-2-1-2-10 0-13l8-9c7-7 15-15 15-17l-5-3c-5-3-8-5-15-13l-7-5c-5-3-8-5-11-9s-5-5-8-5-5 1-6 4c-2 6 1 18 10 34 6 11 7 12 7 21 1 9 1 10 5 15l5 13 2 9c3 4 6 4 11-1 4-4 7-5 10-5 4 0 6 3 6 7 0 3-1 4-7 9l-4 6-3 5-6 2c-5 1-7 3-7 5 0 3 1 5 4 6 3 2 10 2 10 1zm49-2 5-4c5-7 7-8 19-6s19 2 26 2c9-1 12-3 14-6s3-6 1-8l-5-3c-5-2-10-6-17-11l-10-6-9-6c-6-6-6-6-8 5-1 9-1 11-6 20s-6 10-13 14-8 5-7 10l3 1 7-2zm-93-8c11 0 18-2 22-3 3-2 3-2 3-4 2-6-1-12-7-20-7-9-7-10-18-5-6 2-8 4-16 9l-9 6c-5 3-6 5-6 10 1 5 4 7 11 7h20zm103-68 13-13c2-3 4-8 5-17V97l-9-1-5 3-8 6c-6 4-8 6-11 11s-8 9-9 9l-6-1-5-2-8 3v3c2 2 8 3 13 2h5l2 2a388 388 0 0 1 13 13c3 2 5 2 10-1z" style="fill:#fff;stroke-width:.575124" transform="scale(.75)"/></svg>