<svg xmlns="http://www.w3.org/2000/svg" width="238pt" height="238pt" version="1.0" viewBox="0 0 238 238"><path d="m61.333 61.88-57.7 57.7 57.8 57.8 57.7 57.7 58-58 58-58-57.5-57.5c-31.6-31.6-57.7-57.5-58-57.5-.3 0-26.5 26-58.3 57.8zm20.6 3.6c2.3 1.8 8.7 6.4 14.2 10.1 5.5 3.8 10.3 7.4 10.8 8.1 1.2 2.1 6.9 5.1 10.9 5.8 4.3.8 11-2.1 12.8-5.3.5-1.1 2.6-2.5 4.5-3.1 2-.7 4.3-2.3 5.2-3.6.9-1.4 3.3-3.4 5.3-4.4 2-1 4.3-2.6 5.1-3.6 1.3-1.6 9-5.4 11-5.4 1.9 0-1.4 17.1-4 20.8-1.1 1.5-2.4 5.8-3.1 9.7-.6 3.8-2.2 9.3-3.6 12.2-3.1 6.7-3 7.8.8 9.4 1.8.7 4.9 2.8 6.8 4.5 1.9 1.7 4.9 4 6.5 5 1.7 1.1 4.1 3 5.5 4.3 2.7 2.6 15.8 11.1 17.1 11.1 1.3 0 2.2 4.1 1 5.3-.7.7-9.2 1.1-24 1.2-12.7 0-23.3.3-23.6.7-.3.3-2.3 2.9-4.4 5.7-3.2 4.2-4.1 6.4-4.6 11.4-.8 6.7-1.7 9-4.7 12.4-1.3 1.4-2.3 4.6-2.9 9.9-1 7.6-2.2 11.4-3.7 11.4-.5 0-2-1.2-3.4-2.7-2.9-3.1-5.2-9.3-6.3-16.8-.7-4.5-2-8.1-5.2-14-.6-1.1-1.8-4.6-2.7-7.8-2.5-8.6-3.8-9.1-21.5-9-8 0-18.8.4-23.8.8-7.6.6-9.3.5-9.3-.6.1-3.9 4.9-8.6 16.2-15.9 2.5-1.7 4.9-3.7 5.2-4.5.3-.8 2-2.2 3.8-3.1 1.8-.9 4.9-3 6.8-4.6 1.9-1.6 4.6-3.8 5.9-4.9 2.1-1.8 2.3-2.5 1.8-7.6-.4-3.6-1.5-6.8-3.2-9.3-1.7-2.5-2.9-6-3.6-10.5-.5-3.7-2.3-9.5-3.9-12.8-3.7-7.6-4-13.7-.8-13.7.6 0 2.8 1.5 5.1 3.4z"/><path d="M89.436 81.38c-2.7 2.1-1.5 8.6 3.4 17.9 3.1 5.9 4.1 8.9 4.1 12.4 0 2.8.8 5.9 1.9 7.8 2.4 4.1 3.7 10.8 1.9 10.1-.7-.3-2.2-1.9-3.3-3.5-2.4-3.6-5.4-3.8-10.6-.7-1.9 1.2-5.1 3.1-6.9 4.2-4.2 2.5-8 6.1-8 7.5 0 .5.9 1.9 2.1 3.1 2 2 2.9 2.1 12.3 1.6 5.5-.3 11.3-.8 12.7-1.2 2.3-.6 2.7-.3 3.2 2.4.5 2.5 1.3 3.2 4.6 4.1l3.9 1 .3 7.8c.4 7.7.5 7.9 5.3 13.5 4.6 5.4 6.8 6.8 8 4.9.3-.5 1-4.8 1.6-9.5 1.5-12.6 2.8-15.9 7-17.9 1.9-.9 4.7-2.9 6.2-4.4l2.7-2.8 6.5 1.3c10.1 2 19.6-.4 19.6-4.9 0-1.3-1.2-2.5-3.7-3.5-2.1-.9-4.9-2.7-6.3-3.9-1.4-1.3-4.4-3.3-6.6-4.4-4.2-2.1-5.4-3.8-5.4-7.3 0-2.2-1.5-2.5-2.7-.7-.4.7-1 4.1-1.4 7.6-.8 7.3-4 12.2-10.3 15.8-2.1 1.2-4.3 3.2-5 4.5-1.3 2.6-4.8 3.5-10.3 2.4-6.5-1.2-3-6.5 4.3-6.5 1.6 0 4.2-1.6 7.1-4.3 4-3.8 4.6-5 5-9.3.6-6.5-.8-9.7-5.8-13.4-3.3-2.3-5.2-3-8.9-3-4.3 0-5 .4-7.5 3.6-3.1 4-6.8 4.4-7.3.7-.4-2.8 11.4-14.7 13.7-13.8.8.3 3.6.9 6.1 1.2 3.8.5 5.2 1.3 8.8 5.4 2.4 2.7 4.8 4.9 5.3 4.9s1.4-1.1 1.9-2.4c.5-1.4 1.8-3 3-3.6 3.3-1.7 4.9-5.1 6.5-13.5.8-4.4 1.5-8.3 1.5-8.8 0-2-7-.5-10.5 2.3-2.1 1.6-4.2 3-4.6 3-.5 0-2 1.7-3.3 3.8l-2.4 3.8-8.3-.1c-8.9-.1-11.6-1-14.6-4.8-1-1.3-3-3-4.3-3.7-1.4-.6-3.9-2.7-5.7-4.6-3.6-3.8-4.1-4-6.8-2.1zm26.9 46.2c.8 2.2-.3 4.3-2.5 5-1.1.4-2.6 2-3.4 3.6-1.3 2.4-2.2 2.9-5.1 2.9-3.5 0-3.5-.1-3.2-3.8.3-3.2.7-3.7 3-4 1.5-.2 3.4-1.4 4.2-2.8 1.8-2.7 6.1-3.3 7-.9z"/><path d="M157.539 262.26c-4.3-4.394-6.992-10.847-8.864-21.246-1.29-7.161-2.325-10.384-5.287-16.448-1.735-3.552-3.635-8.352-5.025-12.695-4.287-13.394-4.54-13.512-28.868-13.535-8.104-.008-18.654.2-23.444.464-4.79.264-11.438.491-14.772.506l-6.064.026.053-1.252c.179-4.218 6.956-10.93 19.35-19.162 4.846-3.22 8.12-5.915 9.005-7.416.436-.74 1.59-1.844 2.563-2.455 7.529-4.725 10.017-6.475 14.738-10.365 2.954-2.434 5.737-4.892 6.185-5.462 1.155-1.468 1.402-3.88.861-8.412-.671-5.624-1.771-8.796-4.723-13.625-1.77-2.894-3.116-6.892-4.168-12.38-1.544-8.05-3.123-12.996-6.68-20.928-3.117-6.946-3.453-13.923-.704-14.613 1.264-.317 1.888.041 7.62 4.382 2.645 2.004 9.266 6.75 14.713 10.548 12.581 8.772 15.746 11.145 19.006 14.249 4.383 4.174 11.05 7.06 16.307 7.06 5.72 0 10.807-2.317 14.656-6.674 2.017-2.283 2.927-2.936 6.445-4.62 3.565-1.707 4.562-2.428 7.694-5.569 2.478-2.484 4.546-4.127 6.647-5.28 1.678-.919 4.073-2.567 5.324-3.66 2.856-2.5 6.126-4.495 10.243-6.25 4.809-2.05 5.36-2.133 5.681-.855.378 1.506-.11 6.05-1.264 11.75-1.27 6.277-2.725 10.87-4.655 14.69-1.875 3.712-2.89 6.975-4.251 13.66-1.1 5.401-3.5 12.909-5.971 18.677-2.5 5.834-2.035 7.826 2.255 9.66 2.561 1.096 6.2 3.58 10.501 7.168 1.943 1.621 4.87 3.85 6.506 4.953 1.635 1.104 4.866 3.581 7.18 5.506 4.99 4.153 17.335 12.487 21.666 14.627 2.423 1.198 3.184 1.793 3.617 2.828.875 2.095.71 4.043-.405 4.773-1.495.98-9.709 1.382-36.84 1.806-13.562.211-25.088.51-25.613.662-.597.174-2.533 2.39-5.162 5.91-5.951 7.968-6.544 9.301-7.613 17.1-1.158 8.453-2.162 11.261-5.613 15.7-2.579 3.318-3.32 5.706-4.696 15.112-1.382 9.455-2.824 13.841-4.551 13.841-.562 0-1.874-1.01-3.583-2.756zm8.1-29.352c.558-.671 1.55-6.201 3.018-16.801 1.213-8.76 2.269-12.919 4.021-15.842 1.092-1.821 1.891-2.494 5.706-4.806 2.556-1.548 5.847-4.003 7.765-5.791l3.328-3.104 5.373 1.104c6.865 1.412 17.013 1.619 21.338.435 4.812-1.317 7.842-3.847 7.842-6.548 0-1.954-1.253-3.136-5.82-5.492-2.113-1.09-5.847-3.485-8.299-5.323-2.452-1.837-5.968-4.15-7.814-5.138-5.354-2.868-7.332-5.374-7.332-9.29 0-2.671-1.852-3.8-3.41-2.08-.871.964-1.206 2.378-2.246 9.483-.997 6.812-2.214 10.466-4.695 14.097-2.138 3.13-4.509 5.254-9.497 8.51-3.217 2.101-4.249 3.071-7.37 6.933-1.308 1.616-4.108 2.65-7.112 2.626-2.882-.023-7.25-1-8.443-1.887-3.377-2.512.58-6.173 7.492-6.936 3.872-.427 5.583-1.29 9.873-4.982 3.472-2.988 6.142-6.326 6.79-8.488 1.463-4.885 1.254-12.473-.435-15.807-1.948-3.846-5.856-7.352-10.859-9.741-2.508-1.198-2.858-1.255-7.708-1.255-5.928 0-6.458.233-9.835 4.333-3.59 4.36-6.704 5.587-8.596 3.387-.518-.603-.941-1.495-.939-1.983.014-3.193 10.263-14.557 15.808-17.528 1.262-.676 1.883-.793 2.714-.51.593.202 3.252.73 5.91 1.173 6.755 1.126 8.11 1.881 13.206 7.362 2.307 2.481 4.907 5.028 5.779 5.66l1.584 1.149.977-.915c.538-.504 1.24-1.543 1.56-2.309.936-2.232 2.464-3.964 4.835-5.481 2.77-1.771 4.27-4.087 5.853-9.026 1.144-3.573 4.019-17.95 4.019-20.102 0-1.587-1.475-2.032-4.743-1.43-3.74.69-6.06 1.75-11.224 5.133-5.593 3.665-7.218 5.247-9.93 9.67l-2.173 3.542-8.702-.278c-14.316-.458-16.361-1.051-21.147-6.134-1.603-1.703-4.415-4.09-6.248-5.306-1.833-1.215-5.107-3.893-7.276-5.95-2.168-2.059-4.359-3.962-4.867-4.232-1.114-.59-2.257-.289-4.07 1.07-2.585 1.938-3.052 4.8-1.697 10.41.934 3.869 2.152 6.843 6.206 15.158 3.559 7.3 4.579 10.532 4.932 15.63.323 4.65.876 6.73 2.941 11.048 2.32 4.85 3.763 10.458 2.993 11.634-.585.894-1.673.088-4.187-3.102-1.333-1.692-2.993-3.436-3.688-3.877-1.964-1.247-5.137-1.078-8.367.445-3.38 1.594-13.683 7.857-16.61 10.096-3.076 2.354-6.43 6.094-6.428 7.169.004 1.388 2.839 4.816 4.852 5.865 1.79.934 1.943.944 10.708.709 9.224-.247 14.717-.66 20.157-1.517 3.733-.588 3.97-.432 4.701 3.09.706 3.398 1.97 4.355 7.742 5.863l3.497.913.27 6.316c.364 8.527.896 12.723 1.875 14.807 1.058 2.25 6.283 8.532 10 12.022 2.397 2.25 3.144 2.729 4.264 2.729.747 0 1.574-.261 1.839-.58z" style="fill:#fff;stroke-width:.404211" transform="scale(.75)"/><path d="M137.367 184.88c-.955-.518-1.005-.714-.908-3.557.165-4.829.468-5.227 4.897-6.431 1.31-.356 2.425-1.152 4.309-3.073 1.398-1.426 3.025-2.776 3.616-3 3.2-1.218 5.871.232 5.871 3.188 0 1.952-1.01 3.246-3.763 4.814-1.366.778-2.508 1.933-3.84 3.885-1.043 1.527-2.352 3.117-2.91 3.533-1.347 1.004-5.869 1.403-7.272.642z" style="fill:#fff;stroke-width:.404211" transform="scale(.75)"/></svg>