<svg xmlns="http://www.w3.org/2000/svg" width="317" height="317" version="1.0" viewBox="0 0 238 238"><path d="M61 62 4 120l57 57 58 58 58-58 58-58-57-57-58-58-59 58zm21 3a322 322 0 0 0 25 19c1 2 7 5 11 5 4 1 11-2 13-5l4-3 5-4 6-4 5-4 11-5c2 0-2 17-4 21-1 1-3 6-3 10l-4 12c-3 6-3 8 1 9l7 5 6 5 6 4c2 3 15 11 17 11 1 0 2 4 1 5l-24 2h-24l-4 6c-3 4-4 6-5 11-1 7-2 9-5 13-1 1-2 4-2 10-1 7-3 11-4 11l-4-3c-2-3-5-9-6-16-1-5-2-9-5-14l-3-8c-2-9-4-9-21-9a374 374 0 0 0-33 0c0-4 5-9 16-16l5-4 4-4 7-4 6-5c2-2 2-3 1-8l-3-9c-2-2-3-6-3-10l-4-13c-4-8-4-14-1-14l5 3z"/><path d="M89 81c-2 2-1 9 4 18 3 6 4 9 4 13l2 7c2 5 4 11 2 11l-4-4c-2-4-5-4-10-1l-7 5c-4 2-8 6-8 7l2 3c2 2 3 2 12 2l13-1c2-1 3-1 3 2 1 2 2 3 5 4l4 1v8c0 8 1 8 5 13 5 6 7 7 8 5l2-9c1-13 3-16 7-18l6-5 3-2 6 1c10 2 20 0 20-5l-4-3-6-4c-1-2-4-4-7-5-4-2-5-4-5-7 0-2-2-3-3-1l-1 8c-1 7-4 12-10 16-3 1-5 3-5 4-2 3-5 4-11 3-6-2-3-7 5-7l7-4c4-4 4-5 5-10 0-6-1-9-6-13-3-2-5-3-9-3s-5 0-8 4-6 4-7 0c0-2 12-14 14-13l6 1c4 0 5 1 9 5l5 5 2-2c0-2 2-3 3-4 3-2 5-5 6-13l2-9c0-2-7-1-11 2l-4 3-3 4-3 4h-8c-9-1-12-1-15-5l-4-4-6-5c-3-3-4-4-7-2zm27 47c1 2 0 4-2 5l-4 3c-1 3-2 3-5 3s-3 0-3-4c0-3 1-3 3-4 2 0 4-1 4-3 2-2 6-3 7 0z"/><path d="M158 262c-5-4-7-11-9-21l-6-16-5-13c-4-14-4-14-29-14a537 537 0 0 0-38 1h-6v-1c0-4 7-11 20-19l9-7 2-3a115 115 0 0 0 21-16c1-1 2-4 1-8-1-6-2-9-5-14l-4-12c-1-8-3-13-7-21-3-7-3-14 0-15a614 614 0 0 0 58 36c5 1 10-2 14-6l6-5 8-5 7-6 5-3 10-7c5-2 6-2 6 0l-1 11-5 15-4 14-6 18c-3 6-2 8 2 10l11 7 6 5 7 6a175 175 0 0 0 26 17l-1 5-37 2h-25l-5 6c-6 8-7 10-8 17-1 9-2 12-6 16-2 3-3 6-4 15-2 10-3 14-5 14l-3-3zm8-29 3-17c1-9 2-13 4-16l5-5 8-5 3-3 6 1h21c5-1 8-4 8-6s-1-4-6-6l-8-5-8-5c-5-3-7-6-7-10 0-2-2-3-4-2l-2 10c-1 7-2 10-5 14-2 3-4 5-9 8l-7 7c-2 2-5 3-8 3l-8-2c-3-3 1-6 7-7 4 0 6-1 10-5 4-3 6-6 7-8 2-5 1-13 0-16-2-4-6-8-11-10l-8-1c-6 0-6 0-10 4-3 4-6 6-8 4l-1-2c0-4 10-15 16-18l2-1 6 2c7 1 8 2 13 7l6 6 2 1 1-1 1-2c1-3 3-4 5-6 3-2 4-4 6-9l4-20c0-2-1-2-5-1-3 0-6 1-11 5-6 3-7 5-10 9l-2 4h-9c-14-1-16-1-21-7l-6-5-7-6-5-4c-1-1-3 0-4 1-3 2-3 5-2 10l6 16c4 7 5 10 5 15s1 7 3 11c2 5 4 11 3 12s-2 0-4-3l-4-4h-8l-17 11-6 7 5 6h10l20-1c4-1 4-1 5 3 1 3 2 4 8 6l3 1 1 6c0 8 1 13 2 15l10 12 4 2h2z" style="fill:#fff;stroke-width:.404211" transform="scale(.75)"/><path d="m137 185-1-4c1-5 1-5 5-6 2 0 3-1 5-3l3-3c3-1 6 0 6 3 0 2-1 3-4 5l-3 4-3 3c-2 1-6 2-8 1z" style="fill:#fff;stroke-width:.404211" transform="scale(.75)"/></svg>