<svg xmlns="http://www.w3.org/2000/svg" width="400" height="400" version="1.0" viewBox="0 0 300 300"><path d="M139 1c-29 3-49 10-71 25l-8 5v32H30l-3 5a150 150 0 0 0 2 164l5 8h26v26l8 5c17 11 35 19 54 23 15 3 44 3 59 0 17-4 36-11 51-21l5-3v-30h32l5-8c12-18 20-38 24-58 2-13 2-38 0-52-3-17-13-41-22-55l-3-4h-36V27l-5-3a159 159 0 0 0-93-23zm52 17c12 4 22 8 29 13l6 3v40h40l3 6c5 7 9 17 13 29l3 9 1 27-1 35c-4 14-11 31-19 43l-3 5-19 1h-18v35l-7 4c-21 12-43 17-67 17-28 0-52-7-75-21l-6-4v-31H41l-4-5c-9-15-17-35-21-53-2-11-2-34 0-45 3-13 7-27 14-40l6-12h35V38l6-4c11-7 27-15 41-18 7-2 11-2 36-2l28 1 9 3z"/><path d="M219 79c-2 1-16 13-35 32-28 28-31 31-33 30l-4-1c-2 0-9-6-26-24-21-21-24-24-24-27 0-7-9-11-14-5-6 6-2 14 6 14 5 0 5 0 28 23 20 21 23 24 23 26v5c1 3-1 4-29 32-19 20-30 30-32 31-10 2-24-9-25-21v-5l19-19c18-19 20-22 16-23-2 0-8 5-21 18-15 16-18 19-19 23-4 10 4 24 16 31 5 2 14 3 18 0 2 0 17-15 33-31 23-22 31-30 34-30 2-1 4 0 29 25l26 26v5c0 4 0 5 2 7 4 3 8 3 12-1 3-3 4-6 1-10-1-3-3-4-7-4-2 0-8-5-29-27-23-23-27-27-27-29 1-4 60-64 64-65 6-2 17 4 21 11 3 4 5 10 3 14l-18 21-18 19 2 2a278 278 0 0 0 40-39c5-10-4-27-19-33-6-2-9-2-14-1z"/><path d="M192 380a180 180 0 0 1-89-29l-8-5v-41H54l-4-7c-14-21-25-51-29-75a263 263 0 0 1 4-67c4-15 8-27 18-45l6-12h46V51l6-4c18-12 41-22 60-26 6-2 7-2 43-1h37l10 3c19 6 31 11 44 19l6 4v53h53l4 6c8 13 13 25 19 44l3 10v37c1 36 1 37-1 43-4 18-14 42-25 59l-4 6-25 1h-24v46l-9 5a183 183 0 0 1-100 24zm98-85c6-4 7-8 5-14-2-4-4-6-8-6-3-1-5-1-7-3a1283 1283 0 0 1-70-72l3-5c13-15 72-74 80-80 3-3 7-3 12-1 11 4 20 14 22 25 2 7 0 9-25 35l-24 26 3 4c2 0 6-4 15-13l36-36c8-9 6-22-4-35-10-12-27-19-37-15l-42 40-43 41-3 2-4-1-7-3a763 763 0 0 1-63-66c0-7-5-10-11-10-11 1-16 16-6 21l6 2 7 2 12 11 11 11 36 37c1 2 2 3 2 8v5l-3 4c-5 7-67 68-75 75l-8 2c-8-1-17-6-22-14-3-5-5-10-6-16v-4l19-19c26-27 30-31 30-35 0-1-2-3-4-2-4 2-30 27-43 41-9 10-10 12-10 19l1 9c4 14 16 26 28 29 5 1 14 1 17-1 3-1 12-9 48-44l41-39 4 1 48 46 22 23v5c0 6 0 6 2 8 3 3 5 4 10 4 2 0 4 0 5-2z" style="fill:#fff;stroke-width:.597015" transform="scale(.75)"/></svg>