<svg xmlns="http://www.w3.org/2000/svg" width="400" height="400" version="1.0" viewBox="0 0 300 300"><path d="M139 .6c-28.9 3.5-48.9 10.6-70.7 25.1L60 31.1V63H30l-3.4 5.2C17.3 82.8 9.9 101.4 5.9 120c-3.3 15.1-3.3 41.9 0 57 4.4 20.6 11.6 37.8 22.8 54.7l5.4 8.3H60v25.9l8.3 5.4c16.5 11 34.9 18.8 54 22.9 14.7 3.2 43.7 3.2 58.4 0 17.5-3.8 36.6-11.6 51.1-20.8l5.2-3.4v-30h31.9l5.4-8.3c11.7-17.5 20.1-38.1 23.3-57.2 2.3-13.5 2.3-38.5 0-52-3-17.4-12.6-41.9-21.8-55.3l-2.9-4.2H237V27l-5.2-3.4C216.3 13.7 194.7 5.3 178 2.5 168.4.9 145.5-.2 139 .6zm52.3 17.2c11.9 4 21.2 8.1 28.9 12.8l5.8 3.5V74h39.9l3.5 5.8c4.7 7.7 8.8 17 12.8 28.9l3.2 9.8.4 26.9c.3 22.5.1 28.1-1.3 34.5-3.1 13.9-10.7 31.6-18.7 43.6l-3.3 5-18.3.3-18.2.2v34.6l-7.2 4.1c-21.3 12-42.7 17.6-67.3 17.6-27.2 0-51.2-7-74.2-21.5l-6.3-4V229H40.5l-3.5-5.3c-9.5-14.3-17.4-34.5-20.6-52.2-2-11.7-2-34.2 0-45.8 2.4-13.2 7.1-26.9 13.8-40L36.3 74H71V38.1l5.8-3.9C87.7 26.8 104.4 19.4 118 16c6.6-1.7 10.8-1.9 35.5-1.7l28 .3 9.8 3.2z"/><path d="M218.5 79.2c-1.8.6-15.1 13.1-34.1 32-28.2 28.1-31.3 30.9-33.2 29.9-1.1-.6-3.1-1.1-4.4-1.1-1.7 0-8.6-6.3-26.1-23.8C99.5 94.9 97 92.1 97 89.2c0-7.6-8.6-10.8-14.1-5.3-5.9 6-2.3 14.1 6.3 14.1 4.3 0 4.4.1 27.6 23.3 20.6 20.6 23.3 23.6 22.7 25.8-.3 1.4-.2 3.6.4 5 .9 2.5-.6 4.2-28.7 32.2-19.4 19.3-30.7 29.8-32.5 30.2-9.8 2.5-23.4-8.9-24.5-20.5l-.5-5.1 18.8-18.8c18.7-18.9 20.9-22 16.1-22.9-1.3-.3-7.2 4.9-20.3 17.9-15.7 15.8-18.6 19.1-19.7 23-3.1 10.3 4.5 24.2 16.5 30.5 5 2.5 13.8 3 18 .9 1.9-.9 16.9-15.1 33.4-31.5 22.2-22 30.8-30 33-30.4 2.8-.6 4.4.7 29.2 25.6l26.1 26.3-.1 4.3c-.1 3.7.3 4.8 2.6 6.8 3.9 3.3 8.1 3.1 11.8-.5 3.2-3.3 3.6-5.8 1.4-10-1.6-3.1-3.3-4.1-7.3-4.1-2.2 0-7.8-5.1-29.5-26.8-23-23-26.8-27.3-26.5-29.5.4-3.4 60.3-64.1 64.2-65.1 6.1-1.5 16.3 3.9 21.1 11.3 2.9 4.3 4.1 9.7 3 13.8-.4 1.7-7.4 9.6-18.6 20.8-9.8 10-17.9 18.8-17.9 19.7 0 .9.8 1.9 1.7 2.2 1.3.5 6.3-3.9 20.1-17.6 10.1-10.1 19-19.6 19.8-21.1 5.8-10.9-3.8-28.2-18.7-33.8-5.4-2.1-8.9-2.3-13.4-.7z"/><path d="M191.94 379.883c-7.059-.375-20.24-2.055-27.123-3.457-22.056-4.492-40.796-12.15-62.065-25.363l-7.827-4.862v-41.126H54.302l-4.466-6.793c-13.703-20.838-25.263-51.296-28.465-74.998-.497-3.676-.764-12.71-.761-25.672.006-22.319.505-27.293 4.163-41.471 4.015-15.564 8.558-27.142 17.753-45.245l5.99-11.792h46.409l.013-24.03.013-24.03 6.435-4.272c17.579-11.673 40.944-21.825 59.808-25.986 6.223-1.373 6.536-1.382 43.284-1.245l37.015.137 9.945 3.266c18.219 5.982 30.255 11.262 43.338 19.012l6.12 3.625V99.104h53.463l3.655 6.12c7.653 12.811 13.003 24.972 19.093 43.403l3.265 9.88.112 37.015c.112 36.621.098 37.082-1.26 43.284-3.954 18.047-14.37 42.464-25.2 59.073l-4.214 6.463-24.457.442-24.457.442v46.149l-8.806 4.887c-13.76 7.636-24.345 12.232-37.524 16.293-18.582 5.724-41.754 8.436-62.626 7.328zm98.419-84.55c5.4-4.12 6.881-8.626 4.588-13.956-1.946-4.524-3.92-6.12-8.342-6.745-2.97-.42-4.36-1.017-7-3.01-6.731-5.083-61.88-60.203-66.944-66.911-1.381-1.83-2.512-3.855-2.512-4.5s1.506-2.998 3.345-5.228c12.199-14.789 71.01-74.027 79.88-80.459 2.94-2.133 6.273-2.21 11.768-.27 10.964 3.871 20.105 13.928 22.043 24.253 1.454 7.746.307 9.36-25.493 35.893-14.461 14.871-23.483 24.863-23.483 26.006 0 1.028 2.16 3.176 3.194 3.176 1.406 0 5.474-3.325 14.907-12.184 9.044-8.495 29.695-29.635 35.486-36.328 7.732-8.935 6.201-22.44-4-35.277-9.594-12.072-27.09-18.964-36.64-14.433-2.964 1.407-16.808 14.339-42.2 39.422-29.52 29.158-40.387 39.596-43.354 41.638l-2.388 1.644-4.284-1.088c-2.547-.647-5.387-1.88-7.006-3.043-4.513-3.24-49.052-47.33-57.214-56.636-4.023-4.587-4.728-5.863-5.214-9.44-.899-6.627-5.009-10.136-11.335-9.678-11.411.825-16.051 15.467-6.643 20.962 1.094.639 3.948 1.368 6.455 1.65 2.928.328 5.259.976 6.693 1.862 1.21.747 6.768 5.795 12.35 11.218 5.584 5.423 10.62 10.263 11.192 10.756 3.356 2.886 34.703 35.601 35.896 37.46 1.159 1.809 1.499 3.307 1.761 7.757l.325 5.515-2.796 3.734c-5.48 7.316-67.327 68.232-75.79 74.65-3.137 2.379-3.151 2.383-7.594 2.097-7.935-.509-16.526-5.971-21.984-13.977-3.453-5.064-5.203-9.925-5.636-15.648l-.332-4.386 19.086-19.198c26.299-26.454 30.05-30.73 30.05-34.255 0-1.755-2.604-2.92-4.546-2.036-3.535 1.611-29.405 26.4-42.326 40.557-8.894 9.744-10.03 11.863-10.336 19.29-.175 4.212.032 6.674.778 9.254 3.789 13.119 15.855 25.426 27.773 28.33 5.057 1.232 14.073.993 17.329-.46 3.531-1.574 12.077-9.513 47.97-44.563 28.699-28.025 38.93-37.463 41.489-38.275.708-.225 2.154.102 3.51.793 3.273 1.67 21.902 19.598 47.762 45.963l22.239 22.674v5.4c0 5.208.067 5.479 1.88 7.544 2.965 3.376 5.561 4.51 9.84 4.3 2.897-.142 4.105-.52 5.803-1.815z" style="fill:#fff;stroke-width:.597015" transform="scale(.75)"/></svg>