<svg xmlns="http://www.w3.org/2000/svg" width="317" height="317" version="1.0" viewBox="0 0 238 238"><path d="M62 61 4 119l58 57 58 58 58-58 58-58-58-57-58-58-58 58zm70-11c23 12 45 33 58 56 2 4 3 6 3 11l-1 7-1-1c0-1-2-7-5-11l-5-7a136 136 0 0 0-58-52l-4-2c-2 0-5-3-5-4l6-1c4 0 7 1 12 4zm-22 36c18 10 34 25 45 40l6 10 2 3-6 4-3-6-6-8-4-5c-3-5-19-21-24-24a99 99 0 0 0-21-12c-2-2-2-2-1-4 0-2 2-3 2-3l10 5zm-12 40c7 4 15 12 18 17l5 7c4 4 5 7 3 7l-3 1-5-5c-8-12-20-22-31-27l-5-3 2-3 1-3 4 2 11 7zm-17 38c6 6 7 8 4 10-2 0-3-1-7-5l-9-7c-4-2-5-4-3-7 2-1 8 2 15 9z"/><path d="m109 230-7-6-9-8c-6-4-7-6-5-8l2-1c6 0 26 17 26 22l-4 2-3-1zm49-22-4-6a114 114 0 0 0-41-35l-6-3 2-4 2-3a109 109 0 0 1 55 51l-3 2c-3 0-3 0-5-2zm49-21c-10-17-18-27-33-42-11-10-11-10-25-18l-14-8-4-2-1-3c0-3 2-6 4-6l17 9a198 198 0 0 1 48 43l18 26-7 4-3-3zm48-23-1-2c-1-5-11-22-17-30-9-12-22-25-31-34a188 188 0 0 0-52-33l-1-2 7-1c4 0 8 1 14 4 27 13 55 38 74 67 6 9 8 13 9 18l-1 13h-1z" style="fill:#fff;stroke-width:.473632" transform="scale(.75)"/></svg>