<svg xmlns="http://www.w3.org/2000/svg" width="317.333" height="317.333" version="1.0" viewBox="0 0 238 238"><path d="M61.7 60.8 4 118.5l57.8 57.8 57.7 57.7 58-58 58-58L178 60.5C146.4 28.9 120.3 3 120 3c-.3 0-26.5 26-58.3 57.8zm70.7-10.9c22.4 11.8 44.5 33.2 57.8 56 2.2 3.7 2.7 5.8 2.8 11.3 0 3.9-.4 6.8-1 6.8-.5 0-1-.5-1-1 0-1.4-2.4-6.6-5.4-11.5-1.4-2.2-3.2-5.4-4.2-7-2.9-5-13.4-17.6-21.3-25.4-8.8-8.6-22.9-18.9-30.9-22.5-1.8-.9-4.6-2.5-6.2-3.6-1.5-1.1-3.4-2-4.2-2-2.2 0-5.2-2.6-4.4-3.8.4-.7 2.9-1.2 5.6-1.2 3.8 0 6.6.9 12.4 3.9zm-22 36.2c17.8 10.1 33.6 24.6 44.2 40.4 2.6 3.8 5.5 8.2 6.5 9.7 1.1 1.5 1.9 3 1.9 3.2 0 .7-6.1 3.9-6.4 3.4-.2-.2-1.6-2.6-3.1-5.3-1.6-2.8-3.9-6.4-5.2-8-1.2-1.7-3.1-4.1-4-5.5-3.3-4.6-19.7-20.6-24.2-23.6-10.6-6.9-16.4-10.4-17.6-10.4-.7 0-2.3-.8-3.6-1.9-2.1-1.6-2.2-2.2-1.1-4.5.6-1.4 1.7-2.6 2.4-2.6.6 0 5.3 2.3 10.2 5.1zM98 125.8c6.5 4.5 15 12.5 18.3 17.2.9 1.4 3.3 4.5 5.1 7 3.4 4.3 4.4 7 2.9 7-.5 0-1.7.3-2.9.6-1.6.4-2.7-.5-5.6-4.8-7.6-11.3-19.4-21.9-30.3-26.9-2.7-1.3-5.2-2.5-5.3-2.6-.2-.1.4-1.5 1.4-3.2l1.7-3 4.1 2.1c2.3 1.2 7 4.1 10.6 6.6zm-16.8 38.1c6.1 5.6 7.2 8.5 3.7 9.6-1.5.5-3.1-.5-7-4.4-2.8-2.8-6.8-6-9-7.1-3.9-2.1-5-4.5-2.8-6.7 1.6-1.6 8 2.1 15.1 8.6z"/><path d="M108.996 229.593c-1.05-.847-4.104-3.529-6.787-5.96-2.682-2.432-6.971-5.802-9.53-7.489-5.813-3.831-6.892-5.756-4.675-8.338.392-.456 1.284-.829 1.984-.829 5.567 0 25.578 16.902 25.578 21.605 0 1.308-1.647 2.55-3.384 2.55-.735 0-2.089-.654-3.186-1.539zM158.374 208.32c-.812-.869-2.917-3.604-4.678-6.08-4.44-6.241-8.926-11.443-14.38-16.678-8.586-8.24-15.989-13.434-26.487-18.58l-5.741-2.814 1.924-3.698c1.058-2.034 2.149-3.698 2.424-3.698 1.866 0 17.929 10.085 24.496 15.38 10.122 8.161 14.838 13.159 23.253 24.642 5.33 7.274 7.045 10.003 7.054 11.22.008 1.08-.288 1.211-3.563 1.574-2.758.305-2.86.275-4.302-1.268zM207.193 187.154c-9.874-17.096-18.002-27.244-33.386-41.686-11.14-10.458-11.06-10.396-24.61-18.906-5.962-3.744-9.287-5.509-14.001-7.431-1.056-.431-2.733-1.527-3.725-2.436-1.58-1.448-1.767-1.84-1.503-3.16.447-2.233 2.485-5.073 3.64-5.073 1.294 0 9.56 4.256 17.33 8.924 6.823 4.099 13.88 9.03 20.94 14.634 6.685 5.307 22.288 21.148 27.412 27.83 5.668 7.392 17.727 25.295 17.5 25.979-.206.615-4.73 3.41-6.544 4.043-1.165.406-1.338.25-3.053-2.718zM255.072 164.232c-.102-.326-.445-1.445-.761-2.487-1.566-5.154-11.164-21.62-17.486-29.998-8.665-11.481-21.359-25.247-30.777-33.375-10.087-8.705-22.668-17.48-32.251-22.495-3.01-1.575-7.268-3.954-9.462-5.287-2.194-1.333-4.527-2.54-5.184-2.684-3.024-.662-4.331-1.293-5.462-2.636-.67-.797-1.14-1.689-1.046-1.981.254-.78 3.938-1.635 7.227-1.679 4.092-.054 7.707 1.005 14.19 4.156 26.63 12.947 54.769 38.466 73.716 66.85 6.514 9.76 8.28 13.353 8.978 18.271.512 3.603.323 11.477-.315 13.14-.36.937-1.102 1.048-1.367.205z" style="fill:#fff;stroke-width:.473632" transform="scale(.75)"/></svg>