<svg xmlns="http://www.w3.org/2000/svg" width="400" height="400" version="1.0" viewBox="0 0 300 300"><path d="M28 151v122h244V152l1-123H28v123zM166 41a427 427 0 0 0 23 14l2 1 11 9 3 1a374 374 0 0 1 47 52l6 8 1 1c1 0 2 1 4 8l3 3c2 2 1 26 0 27h-3l-3-7-1-2-3-6-8-13-1-3v-1l-6-7-2-3-3-4-7-8-7-9-14-14-9-7-8-7-4-2-2-3-4-2a216 216 0 0 0-45-24c-2-1-2-2-1-5 1-2 2-2 12-2h11l8 5zm-41 55 12 7 1 1 17 11 3 2a444 444 0 0 1 50 54l5 8 2 4 3 5c2 2 1 4-3 5l-6 2c-2 1-4 0-7-4l-3-8-4-5-1-2-2-2-5-7-5-7a321 321 0 0 0-43-39l-4-2-14-8-10-5-2-1c-2 0-2-3 1-8 3-7 2-7 15-1zm-30 59a476 476 0 0 0 14 7 238 238 0 0 1 38 37l6 9 3 5c1 4 1 5-3 6l-3 1-3 1-3-1-5-8-1-1-9-12-1-1c0-2-10-12-11-12l-4-3-4-3-2-2-4-2-2-1-3-3-3-1-12-6c-2 0-2-1-2-4l2-4 2-3 1-3 9 4zm-30 58 3 2 2 1 6 4 5 3 5 5 4 4 3 5c5 5 4 6-1 7l-4 2-2 1-2-1-18-18-9-4c-2 0-2 0-2-4l2-4 1-2c0-2 1-3 3-2l4 1z"/><path d="M112 328c-1-3-8-11-16-17a48 48 0 0 0-22-13c-1-1 0-7 2-10l2-3c0-3 1-3 6-2l6 3 4 3 7 4 7 6c4 2 8 7 12 11a262 262 0 0 0 5 8c4 5 4 6-4 8l-4 2h-5zm81-34-1-1-6-10-2-3-11-14-2-3a88 88 0 0 0-20-20l-5-4-4-2-4-3-3-2-4-2-4-3c-2-2-12-7-16-7h-2v-4l2-7 2-5 1-2c2-1 3 0 18 8 12 6 15 8 29 20l7 5a279 279 0 0 1 38 47c3 7 3 7-2 9l-4 2c-2 1-5 2-7 1zm80-35-4-7a99 99 0 0 0-13-20l-5-8-8-10a432 432 0 0 0-56-51c-2-2-9-7-25-15a180 180 0 0 1-16-8c-2-1-2-1-2-4l3-8c3-6 3-6 8-4a256 256 0 0 1 74 50 447 447 0 0 1 49 56c1 2 2 5 4 6l5 9 4 7c1 2 1 2-1 3l-4 2-6 2c-4 2-5 2-7 0zm77-41-2-6-3-5-6-10a147 147 0 0 0-9-18l-4-5-4-6-4-5-3-4-12-14-7-9a159 159 0 0 0-29-27c-8-8-12-10-12-10l-5-4-6-5c-2 0-6-3-10-6-9-6-17-10-38-20l-17-9 1-3c1-3 3-4 17-4h13l9 5 13 7a137 137 0 0 1 23 15l12 9 5 4 8 7a744 744 0 0 1 57 63l7 10 1 2 4 5 4 8 2 4 1 9-2 23c-1 2-2 2-4-1z" style="fill:#fff;stroke-width:.597015" transform="scale(.75)"/></svg>