<svg xmlns="http://www.w3.org/2000/svg" width="400" height="400" version="1.0" viewBox="0 0 300 300"><path d="m27.7 150.7.3 122.8h244l.3-122.8.2-122.7h-245l.2 122.7zM166.1 40.5c4.6 2.5 9.5 5 10.9 5.7 1.4.7 4.1 2.5 6.1 4s4.1 2.8 4.7 2.8c.5 0 1.2.7 1.6 1.5.3.8 1 1.5 1.7 1.5 1.2 0 10 6.8 11.2 8.7.4.7 1.5 1.3 2.3 1.3 1.8 0 37.4 35.4 37.4 37.1 0 .7 1.1 2.2 2.5 3.5 1.4 1.3 2.5 2.7 2.5 3.2s.9 1.7 2 2.7c1.1 1 2 2.4 2 3.1 0 .7.6 1.7 1.3 2.1 1.6 1.1 5.7 6.9 5.7 8.3 0 .5.3 1 .8 1 .7 0 1.7 1.5 4.6 7.7.9 1.7 2 3.4 2.6 3.8 1.6 1 1.3 25-.4 26.4-1 .8-1.6.8-2.4-.2-1.2-1.3-2.9-5.6-3-7.1 0-.5-.4-1.2-.9-1.5-.4-.3-2.1-3.1-3.6-6.1-3.1-6.2-4.2-8.1-7.5-12.8-1.3-1.7-1.9-3.2-1.5-3.2.4 0 .4-.4-.2-.8-1.2-.9-5.5-6.9-5.5-7.7 0-.3-1.1-1.6-2.5-2.9-1.4-1.3-2.5-2.7-2.5-3.2s-3.2-4.3-7-8.6c-3.9-4.2-7-8-7-8.4 0-1.1-13.2-14.4-14.3-14.4-.5 0-4.3-3.2-8.5-7-4.2-3.9-8-7-8.5-7s-2-1.1-3.3-2.5c-1.3-1.4-2.6-2.5-2.9-2.5-.3 0-1.8-.8-3.3-1.8-5.4-3.7-11.5-7.7-13.6-8.8-4.1-2.4-30.1-15.2-31.8-15.8-2.1-.6-2.2-1.9-.8-4.7 1-1.7 2.2-1.9 11.9-1.9h10.9l8.3 4.5zm-41.3 55.9c12.3 6.1 12.2 6 12.2 6.8 0 .5.4.8.9.8 1.3 0 15.3 9.4 17 11.4.7.9 2 1.6 2.9 1.6 1.8 0 41.2 39.3 41.2 41.1 0 .6 1.6 3.1 3.5 5.5 1.9 2.3 3.5 4.7 3.5 5.3 0 .6.5 1.1 1 1.1.6 0 1 .5 1 1 0 1 3.7 6.8 5.1 8 .3.3 1.1 2.1 1.9 4 .7 1.9 2 4.3 2.8 5.2 1.8 2.2.9 3.5-3 4.4-1.8.3-4.3 1.3-5.5 2.1-2.8 1.8-4.6.7-6.9-4.1-.8-1.7-2.5-4.9-3.9-7.1-1.3-2.2-2.7-4.8-3.1-5.8-.3-.9-1-1.7-1.5-1.7-.6 0-1.2-.8-1.6-1.8-.4-.9-2.8-4.2-5.5-7.3-2.6-3.1-4.8-6.1-4.8-6.5 0-1.1-26.2-27.4-27.3-27.4-.5 0-3.3-2-6.1-4.5-2.9-2.5-5.8-4.5-6.5-4.5-.6 0-1.4-.7-1.7-1.5-.4-.8-1-1.5-1.5-1.5-.4 0-2.3-1-4.2-2.3-1.9-1.3-7.9-4.6-13.3-7.3-5.5-2.7-10-5.2-10.2-5.7-.2-.4-1-.7-1.8-.7-2.6 0-2.6-2.7.1-8.4 3.1-6.6 2.6-6.6 15.3-.2zM95 155c4.1 2.2 8.6 4.5 10 5.2 1.4.7 3 1.6 3.5 2 4.7 3.6 10.6 8.3 13.3 10.8 1.8 1.6 3.6 3 4.1 3 1.1 0 12.5 12.7 20.6 23 4.9 6.3 4.9 6.2 6.3 9 .7 1.4 2 3.7 2.8 5.3 1.8 3.3 1.3 4.3-2.6 5.2-1.7.4-3 1.1-3 1.6s-1.3.9-3 .9c-1.6 0-3-.5-3-1 0-1.2-4.1-7.3-5.2-7.8-.5-.2-.8-.9-.8-1.5 0-1.1-7.8-10.9-9.2-11.5-.5-.2-.8-.9-.8-1.5 0-1.5-10.1-11.7-11.5-11.7-.6 0-2.2-1.3-3.5-3-1.4-1.6-3-2.9-3.6-3-.6 0-1.9-.9-2.9-2s-2.4-2-3.2-2c-.7 0-1.6-.6-1.9-1.4-.3-.8-1.9-1.8-3.5-2.1-1.6-.4-2.9-1.1-2.9-1.6 0-1.1-10.1-5.9-12.5-5.9-1.5 0-1.7-.6-1.2-3.7.4-2 1.1-3.9 1.6-4.2.5-.4 1.3-1.9 1.6-3.4.4-1.5 1.2-2.7 1.9-2.7.6 0 4.5 1.8 8.6 4zm-30.3 57.7c1.2.3 2.8 1.1 3.4 1.9.6.8 1.6 1.4 2.2 1.4.5 0 2.9 1.6 5.3 3.5 2.3 1.9 4.5 3.5 4.9 3.5.4 0 2.7 2 5.2 4.5 2.4 2.5 4.2 4.5 3.8 4.5-.4 0 1.2 2.1 3.4 4.6 4.6 5.3 4.3 6.8-1.4 7.8-1.9.4-3.5 1.1-3.5 1.6 0 .6-.9 1-2 1s-2-.5-2-1.1c0-1.3-14.8-15.9-18-17.8-5.4-3.1-7.6-4.1-9.4-4.1-1.6 0-1.8-.5-1.3-3.7.4-2.1 1.1-3.9 1.7-4.1.5-.2 1-1.2 1-2.1 0-2.4 1.1-3.3 2.9-2.5.9.4 2.6.9 3.8 1.1z"/><path d="M112.176 327.612c-1.29-2.467-8.518-10.149-15.72-16.705-7.51-6.838-14.946-11.553-19.264-12.217-1.246-.191-2.591-.603-2.988-.914-1.209-.95.266-7.172 2.24-9.448.642-.74 1.168-2.092 1.168-3.004 0-3.203 1.193-3.588 6.265-2.023 2.479.765 5.34 2.091 6.357 2.948 1.018.856 2.691 1.91 3.719 2.34 1.027.432 4.151 2.508 6.943 4.615 2.79 2.106 6.149 4.554 7.462 5.44 3.314 2.236 8.13 7.233 11.172 11.59a261.567 261.567 0 0 0 5.423 7.416c4.184 5.48 3.856 6.12-4.242 8.295-1.415.38-3.02 1.213-3.566 1.85-1.381 1.614-4.082 1.514-4.97-.183zM192.985 293.933c-.41-.166-.746-.66-.746-1.097 0-1.032-5.893-9.85-6.583-9.85-.289 0-1.033-1.143-1.653-2.538-1.194-2.687-6.603-9.762-10.764-14.079-1.371-1.422-2.493-2.966-2.493-3.43 0-1.13-12.004-13.511-14.139-14.585-.925-.465-3.6-2.669-5.946-4.898-2.346-2.23-4.588-4.053-4.983-4.053-.395 0-1.92-1.057-3.388-2.35-1.468-1.292-3.415-2.513-4.328-2.713-.912-.2-2.238-1.148-2.946-2.106-.817-1.105-2.213-1.985-3.823-2.411-1.395-.369-3.342-1.44-4.327-2.38-2.27-2.167-12.32-6.952-15.753-7.501l-2.606-.417.304-3.355c.206-2.274 1-4.665 2.463-7.424 1.187-2.238 2.159-4.417 2.159-4.842 0-.425.4-1.105.889-1.51 1.196-.993 2.871-.287 17.61 7.423 12.038 6.297 15.358 8.582 28.665 19.722 2.791 2.337 6.08 4.908 7.31 5.713 3.77 2.47 20.379 21.356 30.112 34.24 2.456 3.25 5.85 8.695 7.543 12.099 3.58 7.197 3.504 7.7-1.393 9.296-1.749.57-3.755 1.578-4.459 2.24-1.226 1.151-4.805 1.58-6.725.806zM273.335 258.657c-.833-.903-2.734-3.926-4.225-6.717-5.957-11.153-9.367-16.873-10.555-17.705-.687-.481-1.655-1.66-2.151-2.62-.497-.96-3.123-4.504-5.837-7.875-2.714-3.37-6.178-7.89-7.698-10.042-3.553-5.032-32.46-34.058-36.505-36.656-1.694-1.088-5.448-3.892-8.342-6.23-2.894-2.34-6.118-4.687-7.164-5.217-1.047-.53-2.709-1.771-3.694-2.759-2.2-2.206-9.47-6.431-25.037-14.554-6.547-3.415-12.379-6.64-12.96-7.167-.582-.527-1.943-1.142-3.023-1.367-1.906-.397-1.964-.499-1.944-3.362.016-2.225.645-4.239 2.55-8.169 2.936-6.053 3.732-6.504 8.306-4.701 5.56 2.192 25.744 12.55 26.926 13.82.64.686 2.201 1.792 3.47 2.457 3.81 1.996 17.007 10.98 20.418 13.9 1.75 1.499 3.547 2.725 3.993 2.725 1.172 0 4.96 3.373 19.347 17.23 15.611 15.037 34.34 34.707 35.834 37.635.605 1.186 2.884 4.573 5.064 7.526 2.18 2.954 4.118 5.975 4.306 6.713.188.74.685 1.344 1.103 1.344.418 0 1.458 1.41 2.31 3.134.852 1.724 2.631 4.552 3.954 6.285 1.322 1.732 3.593 5.628 5.047 8.656 1.453 3.029 3.131 6.263 3.728 7.188 1.058 1.638 1.056 1.703-.108 2.564-.657.485-2.672 1.308-4.478 1.828-1.806.52-4.55 1.583-6.1 2.361-3.618 1.82-4.681 1.783-6.535-.225zM350.225 217.761c-.806-1.395-1.877-3.946-2.38-5.668-.502-1.721-1.567-4.005-2.368-5.074-.8-1.07-3.492-5.779-5.982-10.465-2.49-4.687-5.747-10.228-7.236-12.315-1.489-2.086-2.707-4.236-2.707-4.777 0-.54-1.442-2.876-3.205-5.19-1.763-2.314-3.567-4.927-4.01-5.807-.442-.88-2.223-3.124-3.958-4.988-1.735-1.864-3.155-3.673-3.155-4.022 0-.677-3.58-5.046-12.11-14.773-2.924-3.335-5.996-7.096-6.827-8.358-2.21-3.357-16.094-17.272-19.57-19.615-1.642-1.107-5.947-4.647-9.566-7.868-8.362-7.441-11.898-10.334-12.633-10.334-.32 0-2.174-1.424-4.118-3.164-1.944-1.74-4.878-3.938-6.52-4.882-1.641-.945-6.093-3.798-9.892-6.341-9.116-6.102-17.068-10.407-37.57-20.337-10.38-5.028-17.094-8.613-17.217-9.194-.111-.524.136-1.77.55-2.77 1.282-3.093 3.155-3.46 17.625-3.46h12.936l8.725 4.706c4.798 2.588 10.605 5.648 12.903 6.799 5.433 2.72 17.284 10.49 20.166 13.222 1.241 1.176 2.55 2.138 2.91 2.138 1.056 0 7.8 5.03 12.385 9.238 2.335 2.143 4.612 3.896 5.06 3.896.448 0 4.006 2.917 7.908 6.483 10.59 9.677 40.538 40.184 41.744 42.524.578 1.12 2.354 3.502 3.947 5.291 1.592 1.79 2.895 3.509 2.895 3.82 0 .312 1.21 2.036 2.687 3.83 1.477 1.796 2.686 3.633 2.686 4.085 0 .451 1.338 2.298 2.974 4.104 3.268 3.609 5.555 6.978 6.273 9.244.257.808 1.051 1.93 1.766 2.492.715.562 2.214 2.856 3.33 5.097 1.117 2.241 3.082 5.769 4.366 7.84l2.336 3.764.294 9.071c.302 9.305-.536 21.044-1.65 23.126-.98 1.83-2.198 1.39-3.792-1.368z" style="fill:#fff;stroke-width:.597015" transform="scale(.75)"/></svg>