<svg xmlns="http://www.w3.org/2000/svg" width="317.333" height="317.333" version="1.0" viewBox="0 0 238 238"><path d="M61.4 60.7 4.1 118.5l57.7 57.8 57.7 57.7 58-58 58-58L178 60.5C146.4 28.9 120.1 3 119.6 3S92.9 29 61.4 60.7zm115.2 8.8c.4.9.3 4-.1 7.1-.6 5.3-1.2 6.2-9.5 15.4-4.8 5.5-10 11.5-11.5 13.4-1.5 2-3.1 3.6-3.4 3.6-.4 0-1.5-2.5-2.5-5.5-2.1-6.8-9.8-15.5-17-19.3-4.4-2.3-6.2-2.7-13.6-2.6-16.4.1-26.6 7.8-33 24.7l-1 2.8-4.8-5.4C60.6 80.9 61.3 82 60.7 75.4c-.4-3.4-.4-6.4 0-6.8.3-.3 26.4-.6 58-.6 50.3 0 57.4.2 57.9 1.5zM118 86.9c0 4.6-7.3 5.8-9.2 1.6-1.3-3-.9-3.5 3.4-4.5 3.6-.7 5.8.3 5.8 2.9zm6.9-2.9c.9 0 2.6.6 3.6 1.4 1.9 1.4 1.9 1.5.1 3.5-2.2 2.4-6.8 2.8-8.6.6-1.7-2.1-.4-6.9 1.6-6.1.9.3 2.3.6 3.3.6zm-17.7 5.5c.9 2.1.8 2.7-1.3 4.4-2.9 2.5-3.8 2.5-6.7.5-2.9-2-2.8-2.8 1.1-5.3 4.2-2.7 5.5-2.6 6.9.4zm28.9-.8c3.5 2.1 3.7 3.7.5 5.8-2.3 1.5-2.7 1.5-5.1-.1-1.4-.9-2.3-2.2-2-2.8.3-.6.8-1.9 1.1-2.9.8-2.1 1.8-2.1 5.5 0zm-13.8 3.9c.3.4 0 1.6-.8 2.8-.8 1.1-1.5 3.3-1.5 4.8 0 1.8-.5 2.8-1.5 2.8-.9 0-1.5-.9-1.5-2.3 0-1.2-.7-3.3-1.6-4.5-.8-1.2-1.2-2.7-.9-3.2.7-1.1 6.8-1.4 7.8-.4zm4 4.6c-.7 3.8-2.1 6-3.4 5.2-1.6-1-.9-4.3 1.3-6.4 2.8-2.6 2.9-2.6 2.1 1.2zm-17.6 5.2c2.3 1.5 4.5 3.7 4.8 4.7.8 2.4-1.1 5.9-3.3 5.9-.9 0-3 .7-4.6 1.5-3.7 1.9-5.7 1.3-8-2.5-1.9-3.3-3.3-12.8-2.3-15.5.6-1.4 1.2-1.3 4.9.7 2.4 1.3 6.2 3.6 8.5 5.2zm4.4-5.7c1.4 1.7 2 6.3.8 6.3-1.3 0-3.4-3.4-3.4-5.7-.1-2.7.7-2.9 2.6-.6zm28.7 2.1c.5 4.9-2.5 13.9-5.1 15.7-2.1 1.3-2.8 1.3-7.2-.4-3.7-1.4-5.3-2.6-6-4.6-.9-2.5-.6-3.1 3.4-6.5 2.7-2.3 3.9-4 3.2-4.4-1.4-.9-1.4-2.6-.1-2.6.6 0 1 .7 1 1.5 0 2 1.3 1.9 5.2-.5 4.1-2.5 5.2-2.2 5.6 1.8zm-33-1.6c-.6 1.8-2.8 2.1-2.8.4 0-.9.7-1.6 1.6-1.6.9 0 1.4.5 1.2 1.2zM93.3 100c-.3 1.1-.9 2-1.4 2-1 0-1.2-2.4-.2-3.3 1.3-1.3 2.1-.7 1.6 1.3zm52.7.1c0 2.4-2.3 2.1-2.8-.4-.2-1 .3-1.7 1.2-1.7 1 0 1.6.9 1.6 2.1zM94 109c0 3.9-.1 4-3.6 4s-3.5-.1-2.9-3.3c1.2-5.5 2.3-6.9 4.5-5.7 1.5.8 2 2.1 2 5zm54.9-1.3c1.5 5.3 1.5 5.3-2.9 5.3-3.5 0-4-.3-4-2.3 0-2.8 2.6-6.7 4.5-6.7.8 0 1.9 1.7 2.4 3.7zm-28.9-1.8c0 .6-.4 1.3-1 1.6-.5.3-1-.1-1-.9 0-.9.5-1.6 1-1.6.6 0 1 .4 1 .9zm1.5 5c0 .8-.8 1.9-1.7 2.5-1.4.8-2.2.7-3.5-.7-1.6-1.6-1.6-1.9-.3-2.7 2.1-1.4 5.5-.8 5.5.9zM99.3 119c-.3 1.1.4 3.6 1.6 5.5 2.5 4.4 2.7 6.3.4 4.4-2.3-1.9-5.3-8.8-5.3-12.3 0-2.8.1-2.8 1.9-1.2 1.1 1 1.7 2.5 1.4 3.6zm14.1 2.7c-.2 7.4-1.8 11.8-6.2 16.5-1.4 1.6-3.4 2.8-4.4 2.8-2.3 0-2.2-.9.2-4 2.6-3.3 2.5-8-.1-12.5l-2.2-3.7 2.2-2.1c2.2-2.3 7.8-4.7 9.6-4.3.6.2.9 3.4.9 7.3zm19-4.2c3.2 2.1 3.3 4.4.4 9.5l-2.3 4 2.3 4.2c3.5 6.8 2.8 8.6-2.1 4.8-4.3-3.4-7.7-11.5-7.7-18.5 0-3.4.3-6.4.6-6.7.8-.9 5.7.7 8.8 2.7zm7.5 2.4c-1 4.6-5 11.2-5.7 9.3-.2-.6.4-2.2 1.4-3.6 1-1.6 1.4-3.7 1.1-5.4-.3-1.7.1-3.3 1.1-4.5 2.3-2.6 3.2-.8 2.1 4.2zm-45.6-1.7c.4 2.5 0 3.7-1.5 5-2.9 2.6-3.6 2.3-4.8-2.2-1.3-4.9-.8-6 2.9-6 2.5 0 3 .5 3.4 3.2zm26.2.5c-.4 2.1-.9 4-1.1 4.2-.7.8-2.1-1.3-2.8-4-.7-3 0-3.9 2.7-3.9 1.7 0 1.8.5 1.2 3.7zm29 .5c-.4 2.4-.9 4.6-1.2 5-.7 1.3-3 .9-5.1-1-1.6-1.4-1.8-2.2-1.1-5 .9-2.8 1.4-3.2 4.5-3.2h3.6l-.7 4.2zm-51.2 8.9c1.7 3 1.7 3.3.1 5-2.4 2.7-3.6 2.4-6.3-1.8-2.2-3.5-2.3-3.7-.5-5 2.8-2.1 4.8-1.5 6.7 1.8zm23.9 1.9c1 2.5 1.8 5.1 1.8 5.7 0 1.6-10.6 1.8-11.5.3-.3-.5.1-2.3 1-3.9.8-1.7 1.5-3.9 1.5-5.1 0-1.7.5-2 2.8-1.8 2.2.2 3 1.1 4.4 4.8zm22.7-3.3 2.2 1.8-2.8 3.3-2.8 3.4-2.3-2.5c-2.3-2.4-2.3-2.6-.7-5.1 2-3.1 3.5-3.2 6.4-.9zm-6.9 7.8c1.9 2 2.1 2.8 1.1 3.8-1 .9-1.6.7-3.1-1.3-3.7-4.8-2-6.8 2-2.5zm-36 .6c-1.2 2.2-3.7 3.5-4.7 2.5-.9-.8 2.7-4.6 4.4-4.6 1.1 0 1.1.4.3 2.1zm13.4 3.9c1.9.7 2.6 1.7 2.6 3.5 0 2.7-1.7 3.1-7.9 1.9-3.5-.7-3.9-1.9-1.4-4.6 1.8-2.1 3.1-2.2 6.7-.8zm13 1.5c1.6 2.5 1.6 2.6-1.1 3.6-4.2 1.6-7.7.8-8.1-1.9-.2-1.6.3-2.5 2-3.1 3.8-1.6 5.5-1.2 7.2 1.4zm-17.1 6.2c6.9 1.6 8.9 1.5 19.9-1.2l2.7-.7.3 14.8.3 14.9 4 1.9c2.2 1.1 6.5 3 9.5 4.2 3 1.3 5.6 2.8 5.8 3.3.3.8-10.6 1.1-35.3 1.1-23.8 0-35.6-.3-35.3-1 .2-.6 4.6-3 9.8-5.3l9.5-4.2.3-14.8c.1-8.1.6-14.7 1-14.7s3.8.7 7.5 1.7z"/><path d="M104.7 104.8c-1.1 1.6.2 5.4 1.6 4.9.7-.2 1.4-1.2 1.5-2.2.2-1 0-1.5-.6-1.1-.6.3-1.2-.2-1.4-1.1-.3-1.3-.6-1.5-1.1-.5zM128.4 105.5c-.9 2.3 1.5 4.8 3.2 3.4 1-.8 1.1-1.5.1-3-1.4-2.3-2.6-2.4-3.3-.4zM106.4 119.5c-.7 1.8.3 3.5 2.2 3.5 1.5 0 1.7-.9.8-3.4-.8-2-2.3-2.1-3-.1zM126.7 119.4c-.8 2 2 4.3 3.5 2.8.8-.8.6-1.5-.5-2.6-1.9-2-2.3-2-3-.2z"/><path d="M110.168 141.758c-3.71-4.17-17.26-19.97-20.357-23.736-5.538-6.733-7.367-9.524-8.102-12.362-.665-2.565-1.291-12.182-.887-13.622.086-.306.27-.477.586-.543 2.855-.591 88.603-1.003 125.549-.602 14.993.162 21.603.364 24.867.758 3.688.446 3.74.496 3.827 3.668.09 3.273-.46 8.528-1.166 11.149-.84 3.118-2.874 6.047-8.779 12.642-5.596 6.25-15.817 18.096-18.496 21.434-2.076 2.587-4.005 4.605-4.402 4.605-.406 0-1.695-2.776-2.956-6.363-2.376-6.763-5.74-11.918-11.646-17.848-4.256-4.272-8.118-7.153-12.48-9.308-4.195-2.073-6.102-2.557-11.21-2.846-5.816-.33-12.994.155-17.843 1.204-4.237.917-9.558 3.113-12.977 5.356-8.787 5.764-15.124 14.915-20.033 28.926-.17.484-.347.879-.394.878-.048 0-1.443-1.526-3.1-3.39zM132.858 246.46c-14.893-.206-21.769-.576-21.769-1.17 0-.222 2.06-1.521 4.521-2.85 2.868-1.548 5.965-2.994 14.234-6.647 3.638-1.607 6.679-2.985 6.757-3.06.078-.077.244-5.29.368-11.584.258-13.04.492-19.636.834-23.53.215-2.446.444-3.993.615-4.165.102-.101 3.798.692 7.485 1.606 6.932 1.72 9.509 2.1 13.246 1.95 3.608-.145 8.55-1.083 16.908-3.209 1.24-.316 2.288-.542 2.326-.503.04.039.252 8.907.472 19.707.22 10.8.455 19.686.52 19.748.308.29 10.34 4.923 14.52 6.707 6.726 2.868 10.969 5.088 10.969 5.739 0 .495-4.054.848-12.56 1.094-7.795.225-47.281.337-59.446.168zM151.565 193.198c-2.059-.224-5.122-.795-6.373-1.188-1.451-.456-2.287-1.189-2.285-2.003.002-.82.833-2.15 2.307-3.693 1.698-1.777 2.252-2.063 3.971-2.051 1.107.007 1.673.123 3.258.667 3.355 1.151 4.378 2.038 4.707 4.078.19 1.18.007 2.47-.45 3.168-.581.886-2.633 1.295-5.135 1.022zM163.419 193.1c-2.817-.416-4.432-1.941-4.436-4.192-.004-2.005.697-2.674 4.1-3.912 1.285-.468 1.743-.55 3.099-.564 1.856-.017 2.506.225 3.637 1.354.7.699 2.009 2.607 2.511 3.66.53 1.112.033 1.61-2.556 2.561-2.234.82-4.987 1.294-6.355 1.092zM154.216 182.47c-2.923-.28-4.277-.855-4.277-1.814 0-.813.513-2.424 1.337-4.2 1.34-2.889 2.18-5.763 2.18-7.464 0-1.86 1.076-2.372 3.996-1.898 2.557.415 3.47 1.476 5.357 6.217 1.073 2.698 2.199 6.185 2.316 7.173l.093.786-.732.346c-1.784.843-6.392 1.226-10.27.854zM158.065 163.551c-1.302-1.143-2.584-4.332-2.723-6.773-.133-2.32.33-2.925 2.502-3.274 1.26-.203 2.417-.041 2.857.399.3.3.326.483.24 1.694-.09 1.257-.893 5.443-1.304 6.8-.528 1.74-.733 1.89-1.572 1.154zM156.83 151.512c-.751-.343-2.715-2.25-3.135-3.045-.333-.63-.163-.922.966-1.652 2.22-1.435 5.228-1.45 6.706-.035 1.126 1.078.001 3.466-2.135 4.536-1.048.525-1.586.569-2.402.196z" style="fill:#fff;stroke-width:.167454" transform="scale(.75)"/><path d="M157.629 142.948c-.513-.957.222-2.822 1.112-2.822.597 0 1.132.542 1.115 1.13-.041 1.464-1.683 2.71-2.227 1.692zM163.628 136.149c-.878-.92-1.03-2.263-.463-4.097.442-1.432 1.371-2.806 2.871-4.247 2.324-2.232 2.826-2.506 2.824-1.536-.002.887-.958 5.337-1.434 6.674-1.135 3.194-2.616 4.444-3.798 3.206zM157.206 136.969c-.588-.368-1.071-1.402-1.071-2.296 0-.888-.483-3.045-.925-4.133-.216-.531-.736-1.517-1.156-2.19-.82-1.315-1.436-2.885-1.436-3.656 0-1.031 1.188-1.532 4.396-1.854 2.94-.294 5.54.091 6.04.896.253.407-.141 1.61-1.05 3.209-1.377 2.419-1.91 4.149-2.1 6.818-.112 1.587-.46 2.731-.953 3.138-.464.383-1.194.411-1.745.068zM151.195 136.97c-1.338-.822-2.946-3.35-3.505-5.508-.471-1.816-.226-4.565.406-4.565.714 0 2.551 1.77 3.23 3.112 1.075 2.125 1.6 5.381 1.07 6.642-.297.709-.485.759-1.201.318zM142.137 131.426c-.558-.23-.825-1.068-.59-1.85.355-1.187 1.697-1.807 2.786-1.287.747.356.855.797.415 1.704-.52 1.073-1.793 1.773-2.611 1.433zM135.33 127.476c-1.041-.332-4.06-2.36-4.95-3.326-.828-.897-.894-1.416-.293-2.3.699-1.028 4.426-3.613 6.912-4.794 1.414-.672 2.755-.875 3.562-.541.98.406 2.116 2.131 2.766 4.204.538 1.716.141 2.446-2.539 4.665-2.58 2.137-3.821 2.613-5.457 2.092zM149.185 121.146c-2.519-.657-3.947-2.225-4.724-5.188-.268-1.022-.267-1.084.047-1.634.934-1.636 7.128-3.05 9.87-2.253 2.094.608 3.216 2.504 2.766 4.673-.402 1.933-1.782 3.44-3.806 4.15-1.213.427-3.054.538-4.153.252zM163.084 120.979c-1.676-.438-2.95-1.366-3.519-2.567-.448-.945-.627-2.516-.42-3.7.225-1.299.407-1.794.946-2.578.686-.997 1.085-1.072 3.101-.585.954.23 2.314.465 3.024.522 2.077.165 3.471.73 5.458 2.213 1.44 1.074 1.683 1.471 1.323 2.166-.403.778-2.217 2.66-3.126 3.243-1.866 1.197-4.913 1.774-6.787 1.286zM177.45 126.99c-1.347-.627-2.751-1.646-3.704-2.689-.98-1.073-1.176-1.59-.878-2.332.114-.283.53-1.388.926-2.455.395-1.068.841-2.13.991-2.359.672-1.024 1.814-1.105 3.753-.267 3.01 1.302 5.696 3.278 6.311 4.642.387.858.194 1.638-.65 2.624-1.133 1.324-4.313 3.242-5.374 3.242-.277 0-.895-.183-1.375-.406zM177.607 153.689c-1.09-.23-4.02-1.262-6.232-2.196-4.243-1.792-5.82-3.204-6.784-6.077-.915-2.726-.488-3.474 4.466-7.825 2.602-2.285 4.02-3.827 4.503-4.9.34-.756.274-1.029-.384-1.582-1.026-.864-1.308-2.305-.548-2.803.876-.575 1.925.325 1.926 1.652 0 .942.4 1.763.918 1.893 1.075.27 2.537-.28 5.658-2.127 2.951-1.746 4.305-2.353 5.322-2.383.768-.023.905.03 1.339.515.58.65.934 1.803 1.153 3.765.64 5.746-2.496 16.4-5.957 20.231-1.279 1.416-3.606 2.21-5.38 1.837zm-2.567-8.112c.258-.134.707-.513.997-.843.904-1.03.692-2.093-.86-4.317-1.115-1.597-2.463-2.105-3.28-1.236-.527.561-1.027 1.983-1.025 2.914.005 2.423 2.38 4.407 4.168 3.482zM192.807 135.486c-.825-.301-1.638-1.618-1.79-2.898-.09-.754-.056-.857.436-1.349.47-.47.613-.522 1.208-.442.37.05.827.229 1.013.397 1.075.973 1.196 3.192.22 4.034-.44.38-.63.425-1.087.258zM179.07 172.265c-.28-.522.322-2.306 1.348-3.995 1.745-2.873 2.029-4.059 1.967-8.227-.04-2.694-.015-2.992.33-3.842.696-1.71 2.385-3.405 3.304-3.315.758.075 1.01.724.99 2.562-.031 3.208-1.095 7.033-3.074 11.052-1.322 2.685-2.267 4.18-3.362 5.317-.836.868-1.218.982-1.504.448zM190.896 150.26c-1.09-.388-1.334-.756-1.411-2.123-.092-1.625.181-2.757 1.15-4.766 1.203-2.495 3.274-4.585 4.543-4.585 1.255 0 2.59 2.293 3.66 6.28 1.067 3.984 1.04 4.806-.175 5.223-.864.297-6.915.275-7.767-.029zM194.649 166.32c-.507-.138-1.325-.493-1.818-.79-1.229-.737-2.985-2.372-3.38-3.148-.434-.848-.432-2.539.003-4.241.686-2.684 1.59-4.04 2.971-4.457.348-.105 2.242-.232 4.21-.283l3.576-.091-.097.483c-.053.265-.365 2.065-.693 4-.66 3.894-1.288 6.697-1.69 7.545-.503 1.06-1.564 1.397-3.082.982zM186.321 177.57c-2.858-3.121-3.112-3.494-3.01-4.419.142-1.292 2.447-4.707 3.82-5.659.593-.41.873-.49 1.726-.49 1.378 0 2.41.543 5.04 2.65l2.08 1.666-.37.456c-1.938 2.383-6.882 8.206-6.968 8.206-.06 0-1.104-1.085-2.318-2.41zM183.29 184.627c-1.123-.773-3.388-3.937-4.159-5.81-.939-2.283-.187-3.12 1.787-1.99 1.088.623 3.929 3.405 4.67 4.575.876 1.381.566 2.634-.83 3.356-.635.328-.823.312-1.467-.131zM130.054 183.583c-.208-.15-.377-.438-.376-.64.005-1.092 2.747-4.141 4.516-5.023.997-.497 2.027-.588 2.343-.207.161.194.146.419-.073 1.078-.584 1.757-2.27 3.768-3.826 4.564-.91.466-2.11.572-2.585.228z" style="fill:#fff;stroke-width:.167454" transform="scale(.75)"/><path d="M135.309 187.503c-.35-.275-.42-.44-.338-.795.154-.667.813-1.767 2.123-3.546.644-.875 1.384-2.043 1.645-2.596 1.788-3.785 1.496-8.797-.777-13.313-.301-.598-1.229-2.236-2.06-3.639l-1.514-2.55 2.012-1.887c2.413-2.263 3.452-3.008 6.033-4.323 3.284-1.675 6.832-2.674 7.562-2.13.72.535 1.225 5.385 1.061 10.176-.211 6.172-1.168 10.446-3.222 14.39-2.238 4.297-6.189 8.689-9.055 10.066-1.305.627-2.78.69-3.47.147zm10.94-23.844c.89-.807-.094-4.88-1.435-5.934-1.473-1.158-3.248.536-3.248 3.1 0 1.496.508 2.345 1.758 2.94.857.407 2.42.35 2.924-.106zM135.027 153.796c-1.09-.294-1.855-.816-2.959-2.022-2.274-2.484-3.621-5.968-4.644-12.004-.88-5.196-.924-9.735-.108-11.334.613-1.2 1.348-1.18 3.97.11 3.582 1.764 9.896 5.523 13.73 8.173 3.068 2.121 5.901 4.944 6.26 6.236.452 1.625-.02 3.935-1.129 5.519-.954 1.363-1.724 1.84-3.42 2.114-1.808.292-3.47.85-6.037 2.024-1.965.9-3.624 1.417-4.483 1.399-.23-.005-.761-.102-1.18-.215zm7.518-7.897c.778-.654 1.226-1.745 1.256-3.055l.026-1.127-.503.036-.894.063c-.558.037-.818-.294-1.339-1.704-.572-1.552-.896-1.634-1.582-.405-.436.781-.463.944-.41 2.428.063 1.75.444 2.883 1.251 3.726.59.615 1.49.63 2.195.038z" style="fill:#fff;stroke-width:.167454" transform="scale(.75)"/><path d="M135.867 172.306c-1.593-1.016-3.069-3.064-4.774-6.62-2.22-4.633-3.044-7.895-2.946-11.661.036-1.41.18-1.659.779-1.339.788.422 2.507 2.24 2.929 3.098.368.75.413 1.06.428 3.013.016 1.984.066 2.318.556 3.768.297.875.941 2.306 1.433 3.181 1.889 3.364 2.843 5.608 2.744 6.452-.075.645-.278.664-1.15.108zM126.579 179.334c-1.694-1.046-5.952-7.303-5.994-8.81-.02-.668.257-1.025 1.521-1.964 2.702-2.006 4.869-2.157 6.785-.475 1.25 1.097 3.57 5.109 3.738 6.463.102.828-.188 1.365-1.562 2.895-1.863 2.072-3.249 2.656-4.488 1.89zM119.62 166.174c-.51-.283-1.16-1.448-1.637-2.94-1.253-3.913-1.682-7.263-1.071-8.364.176-.317.597-.721.936-.897 1.402-.728 5.281-.724 6.289.006.641.465 1.143 1.618 1.432 3.29.328 1.904.325 3.161-.012 4.302-.228.771-.49 1.129-1.72 2.345-2.075 2.054-3.35 2.737-4.216 2.258zM117.121 150.293c-.59-.299-.861-.918-.749-1.71.481-3.377 1.738-7.683 2.622-8.983.919-1.35 1.982-1.655 3.363-.963 2.244 1.123 2.856 2.694 2.844 7.297-.012 4.402-.19 4.575-4.734 4.571-2.015-.002-3.06-.068-3.346-.212zM121.982 135.575c-.647-.694-.652-2.388-.01-3.444.438-.72 1.551-1.445 2-1.303.964.306.45 3.365-.783 4.651-.532.556-.761.574-1.207.096zM142.068 131.374c-.965-.496-.743-2.289.367-2.966.659-.401 1.314-.431 1.974-.09.675.35.765.796.34 1.675-.55 1.135-1.853 1.806-2.68 1.38zM135.33 127.467c-1.03-.317-4.051-2.34-4.95-3.317-.828-.897-.894-1.416-.293-2.3.714-1.052 4.38-3.59 6.94-4.807 1.386-.659 2.733-.86 3.534-.528.743.308 1.484 1.243 2.208 2.787.804 1.717.95 2.637.55 3.478-.576 1.217-4.492 4.388-5.899 4.778-.8.222-1.115.209-2.09-.09z" style="fill:#fff;stroke-width:.167454" transform="scale(.75)"/></svg>