<svg xmlns="http://www.w3.org/2000/svg" width="317" height="317" version="1.0" viewBox="0 0 238 238"><path d="M61 61 4 119l58 57 58 58 58-58 58-58-58-57-58-58-59 58zm116 9-1 7c0 5-1 6-9 15a623 623 0 0 0-15 17l-2-5c-3-7-10-16-17-20-5-2-7-2-14-2-16 0-27 7-33 24l-1 3-5-5C61 81 61 82 61 75v-6a1504 1504 0 0 1 116 1zm-59 17c0 5-7 6-9 2-2-3-1-4 3-5s6 0 6 3zm7-3 4 1v4c-3 2-7 3-9 1-2-3 0-7 2-7l3 1zm-18 6c1 2 1 2-1 4-3 2-4 2-7 0s-3-2 1-5 6-2 7 1zm29-1c4 2 4 3 1 6-3 1-3 1-6-1l-1-2 1-3c0-2 1-2 5 0zm-14 4-1 2-1 5-1 3-2-2-2-5v-3h7zm4 4c0 4-2 6-3 5-2-1-1-4 1-6 3-3 3-3 2 1zm-17 5 4 5c1 3-1 6-3 6l-4 2c-4 1-6 1-8-3-2-3-4-13-3-15s1-2 5 0l9 5zm4-5 1 6c-1 0-4-3-4-6 0-2 1-3 3 0zm29 2c0 5-3 14-5 15-2 2-3 2-8 0-3-1-5-3-5-5-1-2-1-3 3-6 3-2 4-4 3-4v-3l1 2c0 2 1 1 5-1s5-2 6 2zm-33-2c-1 2-3 2-3 1l2-2 1 1zm-16 3-1 2v-3c1-2 2-1 1 1zm53 0c0 2-2 2-3 0l1-2 2 2zm-52 9c0 4 0 4-4 4s-3 0-2-3c1-6 2-7 4-6s2 2 2 5zm55-1c1 5 1 5-3 5-3 0-4 0-4-2 0-3 3-7 5-7l2 4zm-29-2-1 2-1-1 1-2 1 1zm2 5-2 2h-4v-3c2-1 6-1 6 1zm-23 8 2 6c2 4 3 6 0 4-2-2-5-9-5-12s0-3 2-2c1 1 2 3 1 4zm14 3c0 7-1 12-6 16l-4 3c-3 0-2-1 0-4 3-3 2-8 0-12l-2-4 2-2c2-3 8-5 9-5l1 8zm19-4c4 2 4 4 1 9l-3 4 3 4c3 7 3 9-2 5-5-3-8-11-8-18l1-7c0-1 5 0 8 2zm8 2c-1 5-5 11-6 9l2-3 1-6c-1-1 0-3 1-4 2-3 3-1 2 4zm-46-2c1 3 0 4-1 5-3 3-4 3-5-2s-1-6 3-6c2 0 3 1 3 3zm26 1-1 4c0 1-2-1-2-4-1-3 0-4 2-4s2 1 1 4zm29 0-1 5c0 2-3 1-5-1-1-1-2-2-1-5s2-3 5-3h3v4zm-51 9c2 3 2 3 0 5-2 3-3 2-6-2-2-3-2-3 0-5s4-1 6 2zm24 2 2 6h-12l1-4 2-5c0-2 0-2 3-2 2 0 3 1 4 5zm23-3 2 2-3 3-3 3-2-2c-2-3-2-3-1-5 2-3 4-4 7-1zm-7 8c2 2 2 2 1 3s-2 1-3-1c-4-5-2-7 2-2zm-36 0c-1 2-4 4-5 3s3-5 5-5v2zm13 4c2 1 3 2 3 4s-2 3-8 1c-3 0-4-1-1-4 1-2 3-2 6-1zm13 2c2 2 2 2-1 3-4 2-7 1-8-2 0-1 0-2 2-3 4-2 6-1 7 1zm-17 6c7 1 9 1 20-2h3v30l5 1 9 5 6 3-35 1-36-1 10-5 10-4v-15l1-15 7 2z"/><path d="M105 105c-1 1 0 5 1 5l2-2-1-2-1-1h-1zm23 1c0 2 2 4 4 3v-3c-2-2-3-2-4 0zm-22 14c0 1 1 3 3 3v-3c0-2-2-3-3-1zm21-1c-1 2 2 5 3 3v-2c-2-2-3-2-3-1z"/><path d="M110 142a1611 1611 0 0 1-28-36c-1-3-2-13-1-14v-1a4359 4359 0 0 1 151 1c4 0 4 0 4 3l-2 11c0 4-2 7-8 13a863 863 0 0 0-23 26l-3-6c-3-7-6-12-12-18l-12-9c-4-2-6-3-11-3-6-1-13 0-18 1l-13 5a53 53 0 0 0-21 30l-3-3zm23 104-22-1 5-3a201 201 0 0 1 21-9v-12a415 415 0 0 1 1-28l8 2 13 2a89 89 0 0 0 19-4 1387 1387 0 0 1 1 40 307 307 0 0 0 26 12l-13 1h-59zm19-53-7-1-2-2 2-4 4-2 3 1c4 1 5 2 5 4v3l-5 1zm11 0c-2 0-4-2-4-4s1-3 4-4l3-1 4 2 2 3c1 2 0 2-2 3l-7 1zm-9-11-4-1 1-5c2-2 2-5 2-7s2-2 4-2c3 1 4 2 6 6l2 7v1l-1 1h-10zm4-18-3-7c0-3 1-3 3-3h3v2l-1 6-2 2zm-1-12-3-4 1-1c2-2 5-2 6 0 1 1 0 3-2 4l-2 1z" style="fill:#fff;stroke-width:.167454" transform="scale(.75)"/><path d="M158 143c-1-1 0-3 1-3l1 1c0 2-2 3-2 2zm6-7-1-4 3-4 3-2-2 7c-1 3-2 4-3 3zm-7 1-1-2-1-4-1-3-1-3c0-1 1-2 4-2l6 1-1 3-2 7-1 3h-2zm-6 0c-1-1-3-3-3-6v-4l3 3c1 2 2 5 1 7h-1zm-9-6v-1c0-2 1-2 2-2l1 2c-1 1-2 2-3 1zm-7-4-5-3v-2l7-5h4l2 4c1 1 0 2-2 4-3 3-4 3-6 2zm14-6c-2-1-4-2-5-5l1-2c0-1 7-3 9-2s4 3 3 5c0 2-2 3-4 4h-4zm14 0c-2 0-3-1-3-3l-1-3 1-3h6l6 2 1 2-3 4-7 1zm14 6-3-3-1-2a169 169 0 0 0 2-5h4c3 1 5 3 6 5l-1 2-5 3h-2zm1 27-7-3c-4-1-5-3-6-6-1-2-1-3 4-7l5-5-1-2v-3l2 2v2l6-2 5-3 2 1 1 4c1 5-3 16-6 20l-5 2zm-3-8 1-1c1-1 1-2-1-5-1-1-2-2-3-1l-1 3c0 3 2 5 4 4zm18-11-2-2v-2h3v4h-1zm-14 37 1-4c2-3 2-4 2-8l1-4c0-2 2-3 3-3l1 2c0 4-1 7-3 11l-3 6h-2zm12-22-2-2 2-5 4-4c1 0 3 2 4 6v5h-8zm4 16h-2l-4-4v-4l3-4 5-1h3v1a351 351 0 0 0-2 11c-1 1-2 2-3 1zm-9 12-3-5 4-6h2l5 3 2 1v1l-7 8-3-2zm-3 7-4-6c-1-2 0-3 2-2l5 4-1 4h-2zm-53-1v-1l4-5h3l-1 1c0 2-2 4-3 4l-3 1z" style="fill:#fff;stroke-width:.167454" transform="scale(.75)"/><path d="M135 188v-1l2-4 2-2c2-4 1-9-1-14l-2-3-2-3 2-2 6-4c4-2 7-3 8-2l1 10c0 6-1 10-3 14-2 5-6 9-9 10l-4 1zm11-24c1-1 0-5-1-6-2-1-3 0-3 3l1 3h3zm-11-10-3-2c-2-3-4-6-5-12v-12c1-1 2-1 4 1 4 1 10 5 14 8l6 6c1 2 0 4-1 5l-3 3c-2 0-4 0-6 2l-5 1h-1zm8-8 1-3v-1h-2l-1-2c0-1-1-2-1 0l-1 2 1 4h3z" style="fill:#fff;stroke-width:.167454" transform="scale(.75)"/><path d="m136 172-5-6-3-12c0-1 0-2 1-1l3 3v3l1 4 1 3 3 6h-1zm-9 7-6-8 1-2c3-2 5-3 7-1l4 7-2 2c-2 3-3 3-4 2zm-7-13c-1 0-2-1-2-3-1-4-2-7-1-8l1-1h6l2 3v5l-2 2-4 2zm-3-16-1-1 3-9c1-2 2-2 3-1 3 1 3 2 3 7 0 4 0 5-5 5l-3-1zm5-14v-4l2-1-1 4-1 1zm20-5v-3h2l1 2c-1 1-2 2-3 1zm-7-4-5-3v-2l7-5h4l2 2v4l-6 5-2-1z" style="fill:#fff;stroke-width:.167454" transform="scale(.75)"/></svg>