<svg xmlns="http://www.w3.org/2000/svg" width="400" height="400" version="1.0" viewBox="0 0 300 300"><path d="M28 27v245h244V29l-122-1H28zm221 43-2 12a1153 1153 0 0 1-35 40l-5 6-3-8-6-13c-7-12-22-23-36-26-17-4-38 3-51 15-6 7-13 20-15 27l-1 4-5-5a779 779 0 0 0-28-32c-9-10-8-10-9-24l-1-7h197l-1 11zM149 90v6h-4l-7 1c-1 1-2 0-4-4l-2-6 14-3c3-1 3 0 3 6zm14-5 7 3c0 1-4 9-6 9h-6l-5-2-1-4c0-7 0-8 3-8l8 2zm-32 8 2 5c0 1-2 3-5 4-5 3-7 3-11-1l-3-3 2-2c4-3 10-7 12-7l3 4zm49 0c4 2 6 4 6 5l-7 6c-2 1-3 1-6-1l-4-4 5-10 6 4zm-22 7-1 2c-2 2-4 7-4 12 0 3 0 4-2 4s-2-1-2-4l-3-9-3-5h15zm8 3-2 1c-2-1-2-1-2 1l-1 2-1 2 1 1 1-2c0-1 2-3 3-2 1 0 0 5-2 6l-1 2c0 2-3 3-4 3l2-2 1-3c-2-2-3-1-3 2-1 4-2 2-1-3 1-6 7-13 9-8zm-26 0-1 2v4l2 2 1-1-1-2-1-1c0-3 3-2 4 0l3 10c-1 1-3-1-3-3s-1-3-2 0v1l1 2c2 3-1 1-5-3l-1-11h3zm50 11c-1 8-1 11-4 16-1 3-4 6-6 7-3 2-3 2-8 0l-9-4-3-1-2-5c-1-3 0-3 1-6 5-5 28-19 30-17l1 10zm-70-7c8 4 17 10 21 14 3 3 3 4 2 6v3l-1 1-5 2-8 4c-7 3-7 3-10-1-5-5-7-12-8-22 0-12 0-11 9-7zm13-2 1 4c0 3-1 3-4 0-2-2-2-2 0-3 2-2 3-2 3-1zm39 1c1 1 1 1-1 3-2 1-3 1-3-1l1-3c0-1 1-1 3 1zm-64 7c0 2-1 3-3 2l-2-1 2-4c2-4 3-4 3-2v5zm89-3v6c-3 2-4 1-4-4l1-6 3 4zm-91 8c3 2 5 8 4 13 0 3 0 3-6 3-7 0-7 0-4-10 1-7 2-8 6-6zm96 5 1 7v4h-6c-5 0-6 0-6-3-1-4 1-11 4-12 4-1 5-1 7 4zm-48 0-3 1c-3 0-4-1-2-2 1-1 4-1 5 1zm2 5c1 2 0 5-1 6l-5 1c-4 0-6-4-4-6s8-2 10-1zm-37 14c-2 2-1 6 3 14 5 8 4 10 0 5-5-5-8-13-9-20v-6l3 3c3 2 4 4 3 4zm24 5c0 11-1 12-4 19-2 5-5 9-8 12-5 4-7 5-9 3-1-2 0-3 2-7 6-8 6-10 1-19-4-8-4-11 3-15l14-5 1 12zm45-6c-1 7-4 14-8 19-5 6-6 4-2-3s5-10 3-13c-1-2-1-3 2-5l4-4 1 6zm-20-3c6 2 11 6 11 10 0 1-1 5-3 7-5 7-4 12 0 18 4 5 4 8 0 9-3 0-10-7-14-15-3-7-3-8-4-19 0-14-1-14 10-10zm-58 5 1 7-10 4-3-15c0-2 0-2 6-2l5 1 1 5zm45-5c1 0-2 11-4 13l-2-4c-3-7-3-9 1-9l4-1 1 1zm48 3-3 13-6-1c-5-3-5-3-5-5l2-7v-4h12v4zm-54 13c2 2 2 2 3 1 2-3 2-3 4 3l3 9 2 6h-19l-3-1 3-6 4-10c0-5 1-5 3-2zm-32 5 3 5-4 4-3 4-3-3c-3-4-7-10-7-12l9-4 5 6zm81 0-8 12-8-8 3-5 3-5 5 2c3 1 5 3 5 4zm-74 11-4 5c-2 2-2 2-4 1-1-2-1-2 2-6 4-4 7-4 6 0zm60-1c4 4 4 5 1 7-2 2-3 2-6-3-2-3-3-5-2-6 2-2 3-1 7 2zm-39 8h4v12l-4-1c-9-1-13-3-14-4 0-2 6-9 8-8l6 1zm21 2 3 5c0 2-6 4-12 4l-5 1v-12l5-1 5-1 4 4zm-27 12c9 2 20 1 30-2l7-2 1 25 1 25a325 325 0 0 0 35 17 2338 2338 0 0 1-124-1l35-16 1-25 1-25h3l10 4z"/><path d="M167 121c-1 3 0 6 3 7 3 0 5-2 5-4 0-5-6-7-8-3zm7 3c-1 1-4-2-3-3 0-1 1-1 2 1v2zm-3 1-1 1-2-2 1-1 2 2zm-45-3c-2 3 0 5 4 5 2 1 3 0 3-2 2-6-5-9-7-3zm6 2c0 1-3-2-2-3 0-1 1-1 2 1v2zm-2 1-1 1-2-2c0-2 0-2 2-1l1 2zm-1 20c-1 2-1 2 1 4 2 3 5 3 7 0 1-3 1-3-1-5-2-3-5-2-7 1zm7 2c-1 1-3-1-3-3h2l1 3zm-3 2c-1 1-3-1-3-3h2l1 3zm32-5c-3 2-2 3 0 5 2 3 5 2 7 0 1-2 1-3-1-5-1-3-4-3-6 0zm6 3c-1 1-3-1-3-3h2l1 3zm-3 1-1 1-2-2 1-1 2 2z"/><path d="M273 162c-3-9-8-19-12-25a83 83 0 0 0-45-29c-7-2-20-2-28 0-25 5-44 19-55 43l-6 18-7-7-19-22c-24-27-27-31-28-36l-2-10-1-12v-3h262v5l-3 22c0 3-2 5-28 35a2523 2523 0 0 0-25 28l-3-7z" style="fill:#fff;stroke-width:.597015" transform="scale(.75)"/><path d="m160 138-5-4-2-3 2-2 14-9h3l5 11-8 6c-4 2-6 2-9 1zm22-9-5-11c0-1 0-2 2-3l10-2c7-2 8-2 8 0 1 1 2 14 0 14a141 141 0 0 1-15 2zm28-1-6-1-1-6c0-7 0-9 3-9l17 3 3 3-5 10c-2 2-3 2-11 0zm22 9-4-3c-3-2-3-3 1-10l3-4c1-1 13 7 15 9v3c-3 3-9 7-11 7l-4-2zm-32 19-1-5c-1-4-2-7-6-13s-4-6 8-5h10l-3 4c-2 3-4 8-4 14l-1 5h-3zm-13-2c-3-4-4-6-4-12 0-5 0-5 2-5s2 0 0 2v4l1 3 1 2 2-1c1-1 1-2-1-3l-1-3c1-1 2-1 3 1 2 2 6 13 5 14l-3-4c0-3-2-4-3-1-1 1-1 2 1 3l1 3-4-3zm-13-8-2-3c-1-1 4-4 5-4l1 7c0 2-1 2-4 0zm39 7c2-2 2-5-1-5l-2 2c-1 4-2 4-1 0 0-4 3-10 6-12 3-3 4-3 5-1 1 1 1 1-1 1-3-1-3 0-3 2l-2 3v4c1 0 3-1 3-3s3-4 3-2c1 1-1 5-3 8l-1 3-4 2 1-2zm12-8v-3c1-3 2-3 3-2 2 2 2 3 0 5-3 1-4 2-3 0zm5 37a132 132 0 0 0-16-6l-3-9c0-2 1-5 3-7 8-7 30-20 36-21l2-1 1 4-2 23c-2 7-7 15-10 17-4 3-5 3-11 0zm2-13c3-3 2-8-2-10s-9 1-9 5c0 6 7 9 11 5zm-73 13c-7-7-9-15-10-30-1-9-1-12 1-13a96 96 0 0 1 36 22c5 5 5 5 5 7a312 312 0 0 0-1 4c0 3-2 4-7 6-3 0-8 2-11 4l-9 2-4-2zm17-12 3-6-2-4c-2-2-2-2-5-2-3 1-5 3-5 6-1 3 0 5 2 6h7zm-43 8c-1-1-2-1-2-3 0-4 4-16 5-17 1-2 1-2 3-1 3 1 5 3 6 8 2 4 2 11 1 12s-11 2-13 1zm7-25c-2-1-2-1 1-7l2-4v3c1 3 0 8-1 8h-2zm-6 47-3-16 7-1 7 1 3 14c0 1-4 4-10 6l-3 1zm14 26c-4-4-10-14-10-16 0-1 8-5 11-5 1 0 2 0 4 3l4 7 3 4-5 5-5 5zm15-12c-6-7-11-18-12-28v-5l2 1 4 4c2 3 2 3 1 5-2 2-1 5 4 16l4 10-3-3z" style="fill:#fff;stroke-width:.597015" transform="scale(.75)"/><path d="M148 226c-4-4-10-14-10-16 0-1 8-5 11-5 1 0 2 0 4 3l4 7 3 4-5 5-5 5zm7 8-1-2c0-1 7-8 9-8 2-2 2-2 2 0s-6 11-7 11l-3-1z" style="fill:#fff;stroke-width:.597015" transform="scale(.75)"/><path d="M164 241c-2-1-2-2-1-3l3-6 6-12-5-14c-5-12-5-15 6-20l14-5c2 0 3 2 3 16 0 12-1 13-2 17l-8 15c-3 5-12 13-14 13l-2-1zm16-41 4-5c0-3-4-6-7-6-2 0-6 4-6 7l2 3c1 2 2 2 4 2l3-1zm8 50c-8-2-12-4-12-5 0-2 1-4 4-7 4-4 4-4 8-3l7 1 3 1v14h-1l-9-1zm4-19-6-2 2-5c3-7 6-13 6-16 1-5 1-5 4-2l3 2 3-2 2-1 2 6 4 11c2 7 2 8 0 9h-20zm11 15v-9l6-2 8-1c2 1 6 5 7 9l2 2-2 1c-2 3-11 5-17 5h-3zm30-5c-7-2-18-19-20-29l-2-27c1-4 2-4 9-2 9 3 15 7 17 11 2 3 1 4-3 13-3 6-4 8-4 11 0 4 1 8 4 13 4 5 4 8 4 9-1 2-3 2-5 1zm-6-41 2-3 1-4c-3-4-7-5-10-1-3 3-3 4-1 7 3 2 6 3 8 1z" style="fill:#fff;stroke-width:.597015" transform="scale(.75)"/><path d="M240 232c-4-6-5-7-3-9 1-2 3-1 7 2 4 4 5 6 4 8l-4 3-4-4zm9-8-5-5-1-2 3-4 4-7 1-1 5 2 7 3 1 2-3 5-8 10-4-3zm-14-9 4-8c4-7 5-10 3-14l-1-3c0-2 7-9 8-9v11c-1 8-6 18-11 23-3 3-4 3-3 0zm28-10-10-6 1-8 2-8h14v3l-2 17c-1 3-2 3-5 2zm-6-27c-2-1-3-3-2-8 0-4 2-9 4-10l4-2 3 1c2 2 4 9 4 15l1 5-7-1h-7zm1-23v-13c1 0 5 6 5 8l-1 4c-2 1-3 2-4 1zm-29 27a147 147 0 0 0-15-6l-3-9c0-3 2-5 6-9 9-8 30-19 34-19 1 0 2 0 2 3l-2 23c-2 7-7 15-11 18-3 2-4 2-11-1zm3-13c2-3 2-6 0-8-4-5-11-2-11 4 0 2 2 4 4 5s6 0 7-1z" style="fill:#fff;stroke-width:.597015" transform="scale(.75)"/><path d="M233 241c-7-2-18-19-20-29l-2-27c1-4 2-4 9-2 9 3 15 7 17 11 2 3 1 4-3 12-6 12-6 16 0 25 4 5 4 8 4 9-1 2-3 2-5 1zm-6-41 2-3 1-4c-2-2-4-4-6-4s-7 4-7 6c0 5 7 8 10 5zm-27 0c-2-3-4-11-3-13 0-2 1-3 6-3l4-1v2c0 4-4 16-6 16l-1-1zm-8 31-6-2 2-5c3-7 6-13 6-16 1-5 1-5 4-2l3 2 3-2 2-1 2 6 4 12c2 6 2 7 0 8h-20zm5-52c-3-2-4-6-2-8 2-1 7-2 10-1s4 3 3 6c-2 3-7 5-11 3zm1-15c-1-1 1-2 3-2 1 0 4 1 3 2h-6zm-39 18c-7-7-9-15-10-30-1-9-1-12 1-13a96 96 0 0 1 36 22c5 5 5 5 5 7a322 322 0 0 0-1 4c0 3-2 4-8 6l-11 4-8 2-4-2zm17-12c3-1 3-7 1-10l-4-1-4 1c-3 3-3 8 0 10h7zm-12 71-2-2 2-3 4-8c5-8 5-9-1-22-6-12-5-15 8-21 7-3 13-5 14-4l1 22c-1 10-4 17-10 26-3 6-12 13-14 13l-2-1zm18-42c3-4 2-6-2-9-3-2-6 0-8 3s-1 4 1 6c1 2 2 2 4 2s3 0 5-2z" style="fill:#fff;stroke-width:.597015" transform="scale(.75)"/><path d="m175 198-1-1v-3l3 2v2h-2zm4-3-1-2v-2l1 1 2 4-2-1zm-8-27-2-3 1-2 3 3-1 2h-2zm4-3-2-3v-1c1-1 3 1 3 3l1 1h-2zm48 33-3-2 1-1 2 2v1zm3-2-2-3v-2l3 3v2h-1zm0-28-2-2 1-2 3 3-1 1a2 2 0 0 1-1 0zm4-3-2-3v-1l2 1 1 3h-1zm-19-10 2-2 1-3c0-1-2-3-3-2l-1 3-1 3v-5c0-4 2-8 5-11s5-3 6-2l1 2h-5v2l-1 2c-1 1-2 1-2 3 0 1 1 2 2 1l1-1 3-4h1v2l-2 7-2 2-1 2c-1 1-3 2-4 1zm13-9 1-2v-3l1-2h1l3 3v1l-4 3h-2zm-23 11-2-1v-3l-2-8-3-5-3-7h19l1 1-2 2-4 9-1 8-1 4h-2zm-11 0-5-5-2-4v-11h3v2c-2 2-2 3-1 4l1 3 2 2 1-2-1-2-1-1v-2c1-1 3-1 4 1 2 3 4 10 4 13v1l-2-1-1-3-1-2h-1l-1 2v1c1 1 3 3 2 4h-1zm-14-10-5-3 1-2 4-3h1v1l1 5c1 3 0 3-2 2zm23 18-2-1 2-2c1-1 4 0 5 1v2h-5z" style="fill:#fff;stroke-width:.149254" transform="scale(.75)"/><path d="M142 338a523 523 0 0 1-20-1l6-4 32-15 5-2 1-2 1-33 1-31h4c6 2 14 5 20 5l11 1c9 0 13-1 25-5l6-2h1v1a982 982 0 0 1 2 65 1677 1677 0 0 0 22 11l22 11v1H142z" style="fill:#fff;stroke-width:.298507" transform="scale(.75)"/><path d="M131 338a96 96 0 0 1-12-1 1253 1253 0 0 0 11-5 134 134 0 0 1 2-1l-1 1a1616 1616 0 0 1-4 1l-4 2-1 1v1l1 1h9-1z" style="fill:#fff;stroke-width:.00932836" transform="scale(.75)"/><path d="M266 338h15a8 8 0 0 1 0-1l-3-1v-1a186 186 0 0 1 6 3 287 287 0 0 1-17 0h-1z" style="fill:#fff;stroke-width:.0131923" transform="scale(.75)"/></svg>