<svg xmlns="http://www.w3.org/2000/svg" width="400" height="400" version="1.0" viewBox="0 0 300 300"><path d="M27.9 27.4c-.2.2-.4 55.5-.3 122.8l.1 122.3H272v-245l-121.8-.3c-67-.1-122 0-122.3.2zm220.6 42.3c-.4 6-1.2 11.5-1.9 12.3-2.9 3.6-14.7 17.2-22.1 25.5-4.5 4.9-10.3 11.6-13 14.8l-4.9 5.8-2.5-7.8c-1.4-4.4-4.2-10.5-6.1-13.7-7-11.7-22.4-22.7-35.8-25.5-17.3-3.6-38.1 2.7-50.8 15.3-6.6 6.6-13.7 19.2-14.9 26.5-.4 2.3-1 4.1-1.5 4.1-.4 0-2.5-2.1-4.6-4.8-2.2-2.6-7.6-8.8-12-13.7-4.5-5-11.8-13.3-16.3-18.5-8.7-10.2-8.5-9.9-9.4-24.3l-.5-6.7h197l-.7 10.7zM149 89.9v5.8l-4.2.6c-2.4.3-5.2.9-6.4 1.2-1.8.6-2.4-.1-4.3-4.5-1.2-2.8-1.9-5.5-1.6-6 .5-.7 5.8-2.1 13-3.3 3.2-.5 3.5.1 3.5 6.2zm14.3-4.9c3.2.7 6.1 1.8 6.3 2.5.8 1.9-3.3 9.3-5.3 9.7-1 .2-4-.1-6.8-.7l-5-1.1-.3-4.8c-.4-6.3.2-7.8 3-7.2 1.3.3 4.9 1 8.1 1.6zm-32 8.3c.9 2.3 1.7 4.7 1.7 5.2 0 .6-2.1 2.2-4.6 3.8-5.3 3.1-7.9 2.9-11.8-1.2l-2.6-2.7 2.2-2.1C119.9 93 126.3 89 128 89c.8 0 2.3 1.9 3.3 4.3zm49.1-.6c3.1 2.1 5.6 4.2 5.6 4.8 0 1.4-3.6 4.8-6.8 6.5-2 1-2.9.8-6.3-1.4-2.1-1.5-3.9-3.2-3.9-3.9.1-2 3.8-9.7 4.8-9.7.5 0 3.5 1.7 6.6 3.7zm-22 7.2c.3.5-.2 1.5-1.1 2.2-2.4 2-4.3 7.3-4.3 11.9 0 3.3-.3 4-2 4s-2-.7-2-3.9c0-2.8-1-5.4-3.4-8.9-1.9-2.8-3.1-5.3-2.8-5.6.9-1 15-.7 15.6.3zm7.4 3c.3.9-.2 1.1-1.7.6-1.7-.5-2.1-.2-2.1 1.4 0 1.2-.4 2.1-1 2.1-.5 0-1 .7-1 1.6 0 .9.5 1.4 1.1 1.2.6-.2 1.1-.8 1.1-1.3 0-1.5 1.9-3.5 2.8-3 1.1.7 0 5.3-1.6 6.6-.8.6-1.4 1.7-1.4 2.4 0 1.3-2.9 2.9-3.7 2.1-.2-.2.3-1.1 1.2-2 .9-.9 1.3-2 1-2.6-1.1-1.7-2.3-1.1-2.9 1.6-1 4-1.9 2.1-1.1-2.4 1.1-6.6 7.8-12.7 9.3-8.3zm-25.8-.1c0 .4-.5 1.3-1.1 1.9-.7.7-.8 1.7-.3 2.5.5.7.9 1.7.9 2.2 0 .5.6 1.1 1.3 1.3.6.3 1.2-.2 1.2-1.1 0-.9-.4-1.6-1-1.6-.5 0-1-.7-1-1.5 0-2.3 2.5-1.8 3.7.7 1.7 3.5 3.4 9.1 2.9 9.6-.9.9-2.6-1-2.6-2.9 0-2.3-1.5-2.5-2.4-.4-.3.8-.1 1.5.3 1.5.5 0 1.1.7 1.5 1.5 1.2 3.1-1.3 1.7-5.1-2.8-1.7-2.1-2.4-10.5-1-11.1 1.9-.7 2.7-.7 2.7.2zm49.8 11.2c-.4 8-1 10.6-3.4 15.5-1.8 3.7-4.1 6.6-6 7.7-3.1 1.8-3.2 1.8-8.5-.6-3-1.3-6.9-2.7-8.7-3.1-1.8-.4-3.5-1.2-3.6-1.8-.2-.7-.8-2.7-1.4-4.4-.8-2.8-.7-3.7 1-5.8 4.5-5.7 27.5-19.4 30.1-17.8.6.3.8 4.5.5 10.3zm-70.1-7.1c7.8 3.7 16.8 9.8 21.1 14.3 2.9 3.1 3.2 3.8 2.3 6.1-.6 1.5-.8 2.7-.5 2.7.4 0 .1.6-.5 1.4-.6.7-2.8 1.6-4.9 2-2 .3-5.9 1.7-8.7 3.1-6.3 3.1-6.6 3.1-9.8-.3-4.7-4.9-7-11.7-7.5-22.5-.5-11.3-.7-11.1 8.5-6.8zm13.3-1.7c0 .7.3 2.3.6 3.5.8 2.8-.3 2.9-3.6.3-2.5-1.9-2.5-1.9-.5-3.4 2.5-1.9 3.5-2 3.5-.4zm39 .3c1.1 1.3 1 1.8-.6 3-2.5 1.9-3.8 1.9-3-.1.3-.9.6-2.2.6-3 0-1.8 1.4-1.8 3 .1zm-64.2 7.9c-.3 2-.6 2.2-2.6 1.5l-2.3-.9 2.3-4.2c2.2-4.2 2.3-4.2 2.6-1.6.2 1.6.2 3.9 0 5.2zm88.8-3.3c1.8 4 1.8 4.2-.1 5.5-3 2.2-3.5 1.7-3.5-4.1 0-3 .4-5.5.8-5.5.5 0 1.7 1.9 2.8 4.1zm-90.7 8.2c2.6 1.3 4.8 8.1 4.3 12.9-.3 2.7-.5 2.8-6.3 2.8-6.8 0-6.7.3-4.3-10.1 1.6-7.1 2.3-7.7 6.3-5.6zm95.7 4.2c.7 2.2 1.3 5.7 1.3 7.7l.1 3.8h-5.9c-5.6 0-5.9-.1-6.4-2.8-.9-4.6 1.3-11 4.3-12.1 4-1.5 5.4-.8 6.6 3.4zm-47.8.2c.2.9-.7 1.3-2.7 1.3-3 0-3.9-.9-2.4-2.4 1.1-1 4.6-.3 5.1 1.1zm2.1 5.7c1.2 1.4.5 4.6-1.3 5.8-.6.4-2.6.8-4.4.8-3.9 0-6.4-3.8-4.2-6.5 1.6-1.9 8.3-2 9.9-.1zm-36.9 14c-1.9 1.9-1 5.4 3.1 13.1 4.5 8.5 4.3 10.9-.3 5.5-4.6-5.3-7.9-13.3-8.5-20.3l-.6-6.2 3.7 3.4c2.4 2.4 3.3 3.8 2.6 4.5zm23.5 4.7c0 10.9-.2 11.7-3.4 18.7-2.2 4.7-5.1 8.8-8.2 11.7-5.1 4.8-6.9 5.4-8.8 3.1-1-1.2-.5-2.5 2.3-6.8 5.4-8.2 5.5-9.8 1-18.4-4.5-8.8-4.2-11.5 2.1-15.1 4.4-2.5 12.4-5.3 14-4.9.6.2 1 4.9 1 11.7zm45.2-6.2c-.6 6.8-3.4 13.6-7.8 19.2-4.6 5.8-5.4 3.7-1.4-3.5 3.7-6.6 4.2-9.4 2.4-12.7-.8-1.6-.5-2.5 2.3-5.3 1.8-1.8 3.7-3.4 4.2-3.5.5 0 .6 2.5.3 5.8zm-20-2.9c6.7 2.3 11.3 6.4 11.3 9.8 0 1.4-1.5 4.8-3.2 7.6-4.4 6.8-4.3 11.6.1 17.9 3.6 4.9 3.8 8 .5 8.5-3.2.5-10.4-7.2-14.4-15.3-3.2-6.5-3.4-7.8-3.8-18.8-.5-13.5-.7-13.3 9.5-9.7zm-57.2 5.3c.6 3.1.9 6 .6 6.3-1.1 1-9.4 4.4-9.9 4-.7-.8-3.2-11.8-3.2-14.4 0-2.2.3-2.3 5.7-2l5.7.3 1.1 5.8zm44.7-5.7c.8.8-2.2 11.6-3.7 13.2-1 1.1-1.6.5-2.9-3.4-2.5-7.4-2.2-9.2 1.7-9.7 1.7-.2 3.5-.5 3.8-.5.3-.1.8.1 1.1.4zm47.8 3c0 3.7-1.8 12.4-2.9 13.6-.4.4-3-.4-6-1.7-4.6-2.2-5.2-2.8-4.7-4.8.3-1.2.9-4.1 1.2-6.5l.7-4.2H203v3.6zm-54.1 13.5c1.6 2 1.8 2.1 3.5.4 2-2.1 1.9-2.2 3.5 3.5.6 2.5 2.1 6.6 3.3 9.2 1.2 2.7 1.8 5.1 1.4 5.5-1.2 1.3-15.9 1.6-18.8.4l-2.7-1 2.9-6.2c1.6-3.3 3.2-7.9 3.5-10 .8-4.5 1.1-4.7 3.4-1.8zm-32.1 4.6 3.2 5.7-3.7 3.8-3.8 3.9-2.8-3.3c-2.9-3.4-6.7-10-6.7-11.6 0-1 6.6-4 9-4.1.8 0 3 2.5 4.8 5.6zm81.2-.2c0 1.4-7.1 12.5-8 12.5-1.1-.1-8-6.8-8-7.9 0-.5 1.4-3 3-5.5l3.1-4.5 4.9 2.1c2.8 1.1 5 2.6 5 3.3zm-74.4 11.1c-.4 1.1-1.8 3.2-3.1 4.9-2.3 2.8-2.5 2.9-4.2 1.2-1.6-1.6-1.5-1.9 2.2-5.7 3.9-4 6.4-4.1 5.1-.4zm60.1-.4c3.9 3.7 4.1 5.1 1.1 7.2-2.1 1.5-2.3 1.4-5.5-3.1-2.5-3.5-3-4.9-2.2-6 1.7-2 3-1.6 6.6 1.9zm-39 7.5 4.3.6V189l-4.2-.7c-8.5-1.3-13.3-2.9-13.6-4.5-.5-2.3 5.7-9 7.7-8.3.8.3 3.4.9 5.8 1.2zm21.7 1.9c1.6 2 2.9 4.3 3 5.2.1 1.8-5.9 3.9-12.6 4.4l-4.3.3-.3-5.6-.3-5.5 4.8-1.1c2.6-.6 5.3-1.1 5.8-1.2.6 0 2.3 1.5 3.9 3.5zm-27.7 11.9c9.4 2.3 20.3 1.7 30.1-1.7 3.9-1.3 7.4-2.3 7.6-2.1.2.3.5 11.5.5 25.1.1 13.6.5 25 .9 25.4.4.4 8.4 4.1 17.7 8.3 9.4 4.3 17.2 7.9 17.4 8.1.2.2-28.1.4-63 .3-46.5 0-62.7-.3-60.9-1.1 12.4-5.4 33.7-15.2 34.7-16 .8-.7 1.2-7.8 1.3-25 0-13.3.3-24.5.6-24.9.3-.5 1.7-.3 3.2.5 1.5.7 6 2.2 9.9 3.1z"/><path d="M167 121c-1.5 2.9-.3 5.9 2.6 6.6 3 .8 5.4-1.1 5.4-4 0-4.6-5.9-6.4-8-2.6zm6.5 2.8c-.8.9-3.5-2-2.8-3.1.4-.6 1.1-.3 1.9.8.8 1 1.2 2.1.9 2.3zm-2.7 1.1c.3.8-.1 1.2-.9.9-.7-.2-1.5-1-1.7-1.7-.3-.8.1-1.2.9-.9.7.2 1.5 1 1.7 1.7zM125.8 121.6c-1.6 3.4 0 5.9 3.8 5.9 2.2 0 3.1-.6 3.8-2.7 1.9-5.4-5.2-8.4-7.6-3.2zm6.7 2.2c-.8.9-3.5-2-2.8-3.1.4-.6 1.1-.3 1.9.8.8 1 1.2 2.1.9 2.3zm-2.5 1.3c0 .5-.7.9-1.5.9-.9 0-1.5-.9-1.5-2.1 0-1.8.2-1.9 1.5-.9.8.7 1.5 1.6 1.5 2.1zM129.4 144.5c-1.6 2.4-1.6 2.7.1 4.5 2.5 2.7 5.1 2.5 7.1-.5 1.6-2.4 1.6-2.7-.1-4.5-2.5-2.7-5.1-2.5-7.1.5zm6.4 2.1c-1 1-2.8-.6-2.8-2.4 0-1.5.1-1.5 1.7.1.9.9 1.4 1.9 1.1 2.3zm-3 2c-1 1-2.8-.6-2.8-2.4 0-1.5.1-1.5 1.7.1.9.9 1.4 1.9 1.1 2.3zM164.7 143.8c-2.2 2.4-2.1 3.5.2 5.6 2.4 2.2 4.9 1.8 6.7-.9 1.2-1.8 1.1-2.4-.2-4.3-1.8-2.7-4.5-2.8-6.7-.4zm6.1 2.8c-1 1-2.8-.6-2.8-2.4 0-1.5.1-1.5 1.7.1.9.9 1.4 1.9 1.1 2.3zm-3 1.3c.3.8-.1 1.2-.9.9-.7-.2-1.5-1-1.7-1.7-.3-.8.1-1.2.9-.9.7.2 1.5 1 1.7 1.7z"/><path d="M272.96 162.158c-3.066-9.433-7.858-19.549-11.734-24.769-10.43-14.049-29.087-26.227-45.405-29.637-6.85-1.431-19.722-1.338-27.486.2-25.822 5.115-44.243 19.47-55.51 43.256-2.054 4.334-5.66 15.458-5.66 17.456 0 1.107-1.793-.621-7.285-7.022-3.45-4.023-11.873-13.627-18.716-21.343-24.053-27.12-27.105-30.966-28.647-36.089-.464-1.54-1.117-6.34-1.453-10.669-.336-4.328-.76-9.414-.942-11.302l-.33-3.433h262.255l-.38 5.224c-.784 10.801-1.559 18.46-2.179 21.546-.718 3.576-2.61 5.92-28.281 35.021-7.242 8.209-15.693 17.88-18.78 21.493-3.089 3.611-5.905 6.879-6.26 7.26-.47.506-1.337-1.436-3.207-7.192z" style="fill:#fff;stroke-width:.597015" transform="scale(.75)"/><path d="M160.272 137.933c-1.328-.671-3.612-2.45-5.075-3.952l-2.66-2.732 2.863-2.612c3.387-3.09 10.158-7.68 13.21-8.954 2.104-.88 2.208-.86 3.612.654 1.461 1.576 4.494 8.692 4.494 10.544 0 1.16-4.313 4.62-7.968 6.388-3.911 1.894-5.755 2.038-8.476.664zM181.935 129.114c-1.059-1.17-4.225-8.387-4.86-11.078-.355-1.502-.172-1.757 1.863-2.608 1.24-.519 5.71-1.64 9.932-2.493 7.515-1.517 7.693-1.525 8.507-.412 1.122 1.535 1.197 14.572.086 14.896-.41.12-3.433.63-6.717 1.136-3.283.505-6.39 1.08-6.903 1.277-.525.202-1.36-.113-1.908-.718zM209.753 128.253l-6.067-1.192-.425-5.662c-.54-7.21.014-9.395 2.445-9.636 2.16-.214 14.61 2.356 17.731 3.66 1.854.775 2.235 1.23 2.235 2.667 0 2.166-2.49 6.963-4.942 9.522-2.17 2.263-2.592 2.288-10.977.641zM232.239 137.39c-1.478-.932-3.589-2.54-4.691-3.573-2.393-2.242-2.316-2.966 1.017-9.638 1.522-3.046 2.617-4.533 3.423-4.651 1.234-.181 12.804 7.112 14.792 9.324 1.082 1.204 1.078 1.275-.16 3.015-2.272 3.19-8.24 7.251-10.62 7.226-.591-.006-2.284-.773-3.761-1.704zM199.664 156.357c-.223-.361-.627-2.626-.897-5.032-.517-4.613-1.468-6.908-5.343-12.904-3.926-6.073-4.018-5.999 7.125-5.776 5.227.105 9.718.405 9.979.667.5.502.325.814-2.342 4.17-2.3 2.893-3.954 7.945-4.396 13.422-.204 2.54-.636 4.954-.96 5.365-.727.922-2.618.975-3.166.088zM187.31 154.03c-3.743-3.718-4.65-6.075-4.697-12.209-.035-4.492.229-5.105 2.198-5.105 1.773 0 1.79.217.218 2.761-1.164 1.884-1.183 2.122-.299 3.894.518 1.038.942 2.255.942 2.704 0 .449.69 1.131 1.535 1.516 1.243.566 1.639.535 2.08-.162.882-1.393.66-2.217-1.013-3.769-.983-.91-1.44-1.82-1.213-2.412.54-1.405 1.945-1.154 3.32.593 1.983 2.521 5.485 12.94 4.635 13.79-.74.739-2.147-1.191-2.62-3.594-.61-3.104-2.513-3.744-3.658-1.23-.658 1.444-.571 1.777.853 3.263.872.91 1.46 2.012 1.306 2.45-.182.516-1.434-.353-3.586-2.49zM174.272 145.522c-1.395-1.067-2.642-2.26-2.771-2.652-.261-.794 4.433-4.15 5.005-3.578.433.433 1.342 4.934 1.378 6.827.035 1.804-.613 1.697-3.612-.597zM212.851 153.167c1.99-2.608 1.817-4.735-.405-4.992-1.37-.159-1.683.125-2.311 2.09-1.202 3.76-1.945 3.85-1.5.183.529-4.376 3.361-10.119 6.298-12.772 2.71-2.449 4.42-2.727 5.407-.881.653 1.22.59 1.255-1.558.852-2.493-.468-3.235.139-3.25 2.657-.005.844-.53 1.824-1.204 2.244-1.41.88-1.602 3.601-.29 4.105 1.252.48 2.47-.681 2.884-2.753.427-2.138 2.6-3.57 3.168-2.09.566 1.476-.779 5.229-2.776 7.741-.985 1.24-1.792 2.58-1.792 2.976 0 1.023-1.992 2.697-3.211 2.697-.869 0-.785-.32.54-2.057zM224.714 145.32c.2-.52.532-2.004.739-3.296.48-2.997 1.146-3.378 2.95-1.684 1.968 1.85 1.828 2.642-.78 4.415-2.567 1.744-3.426 1.91-2.91.566zM229.85 182.06c-3.119-1.325-7.82-3.072-10.447-3.881-2.627-.81-5.07-1.67-5.429-1.915-.823-.56-3.228-7.668-3.228-9.544 0-1.95 1.33-4.295 3.68-6.488 7.76-7.24 30.055-20.573 36.02-21.541l1.958-.318.405 3.5c.536 4.643-.613 19.437-1.828 23.53-2.03 6.84-6.642 14.403-10.32 16.925-3.501 2.401-4.592 2.374-10.81-.268zm1.838-13.059c2.84-2.84 2.22-7.757-1.234-9.798-4.088-2.415-8.961.422-8.961 5.217 0 5.453 6.433 8.343 10.195 4.581zM159.005 181.783c-6.662-6.952-9.304-14.6-10.348-29.952-.624-9.18-.336-11.942 1.3-12.462 1.678-.532 16.128 6.656 24.371 12.124 3.804 2.523 9.097 6.741 11.868 9.458 4.726 4.634 4.98 5.014 4.629 6.902a312.306 312.306 0 0 0-.755 4.257c-.503 2.977-2.225 4.24-7.53 5.526-2.382.577-7.338 2.353-11.014 3.945-3.675 1.593-7.415 2.897-8.311 2.897-1.152 0-2.385-.79-4.21-2.695zm16.79-12.005c1.395-.535 2.712-3.406 2.712-5.914 0-1.617-.46-2.625-1.82-3.985-1.613-1.613-2.104-1.781-4.327-1.483-2.97.398-4.95 2.376-5.543 5.533-.485 2.584.444 4.864 2.283 5.603 1.586.637 5.317.775 6.694.246zM132.687 177.92c-1.058-.447-1.344-1.05-1.344-2.839 0-3.698 3.303-16.26 4.622-17.58 1.08-1.08 1.332-1.105 3.2-.31 2.877 1.225 4.547 3.27 5.99 7.336 1.478 4.166 1.85 11.68.637 12.901-.944.95-11.117 1.332-13.105.492zM139.823 152.677c-2.262-.72-2.263-.714.935-6.408l2.18-3.88.495 2.893c.528 3.09-.084 7.673-1.055 7.89-.323.073-1.473-.15-2.555-.495zM133.803 200.1c-1.654-6.177-3.106-14.8-2.68-15.912.283-.734 1.62-.904 7.115-.904 4.035 0 6.92.25 7.15.62.427.692 2.672 12.734 2.672 14.336 0 1.082-4.317 3.41-9.948 5.366l-3.083 1.07zM147.951 226.4c-4.155-4.598-10.04-14.311-10.04-16.568 0-1.202 8.146-5.056 10.687-5.056 1.491 0 2.222.554 4.138 3.134 1.28 1.724 3.342 4.975 4.582 7.224l2.255 4.09-4.756 4.756-4.756 4.756zM162.983 214.499c-6.334-7-10.935-18.262-11.74-28.74l-.395-5.135 2.039 1.689c1.12.929 2.904 2.764 3.962 4.079 1.872 2.327 1.898 2.438.983 4.208-1.45 2.803-.67 5.707 4.32 16.101 2.48 5.164 4.42 9.847 4.312 10.408-.144.751-1.061.064-3.48-2.61z" style="fill:#fff;stroke-width:.597015" transform="scale(.75)"/><path d="M147.951 226.4c-4.155-4.598-10.04-14.311-10.04-16.568 0-1.202 8.146-5.056 10.687-5.056 1.491 0 2.222.554 4.138 3.134 1.28 1.724 3.342 4.975 4.582 7.224l2.255 4.09-4.756 4.756-4.756 4.756zM155.347 233.862c-.725-.77-1.317-1.606-1.317-1.855 0-.805 6.813-7.626 8.478-8.487 2.176-1.125 2.268-1.09 2.268.892 0 1.953-5.684 10.384-7.198 10.676-.503.097-1.507-.455-2.231-1.226z" style="fill:#fff;stroke-width:.597015" transform="scale(.75)"/><path d="M163.805 240.982c-1.545-1.329-1.59-1.51-.833-3.338.44-1.062 1.832-3.529 3.094-5.48 3.302-5.11 5.194-9.044 5.615-11.677.427-2.672-.575-5.802-4.797-14.977-5.305-11.528-4.502-14.14 5.955-19.38 4.712-2.362 12.706-5.234 14.563-5.234 1.869 0 2.124 1.945 2.113 16.119-.009 11.81-.117 13.14-1.363 16.65-1.749 4.923-5.035 11.436-7.866 15.589-3.562 5.224-12.326 13.134-14.551 13.134-.163 0-1.03-.633-1.93-1.406zm16.515-40.553c1.443-1.144 3.56-4.396 3.56-5.468 0-2.553-3.733-5.707-6.755-5.707-2.61 0-6.379 4.074-6.379 6.895 0 .542.914 1.899 2.03 3.015 1.618 1.618 2.497 2.026 4.328 2.011 1.265-.01 2.712-.346 3.216-.746zM187.893 249.807c-8.22-1.705-12.37-3.425-12.37-5.126 0-1.817 1.471-4.17 4.28-6.843 3.71-3.532 4.29-3.741 7.977-2.884 1.75.407 4.813.93 6.806 1.16l3.623.421v14.808l-1.642-.039c-.903-.021-4.806-.695-8.674-1.497zM191.898 231.091c-2.77-.445-5.63-1.524-5.63-2.124 0-.134.97-2.341 2.156-4.904 3.046-6.584 5.421-13.172 5.9-16.36.67-4.474 1.117-4.734 3.736-2.176 1.26 1.229 2.666 2.234 3.127 2.234.46 0 1.588-.719 2.505-1.598.918-.88 1.77-1.484 1.896-1.343.125.14 1.095 3.071 2.157 6.514 1.06 3.443 2.842 8.465 3.958 11.16 2.534 6.124 2.609 7.688.387 8.173-2.892.63-17.059.929-20.192.424zM203.371 246.179c-.212-2.513-.386-5.677-.386-7.031v-2.463l6.493-1.392c3.571-.765 7.05-1.214 7.731-.998 1.475.468 5.406 5.045 7.208 8.392l1.286 2.388-1.53 1.332c-2.427 2.116-11.44 4.328-17.667 4.336l-2.749.003zM232.895 241.433c-6.58-2.767-18.13-19.346-20.38-29.257-.808-3.556-1.853-24.104-1.358-26.717.87-4.602 1.528-4.758 9.195-2.19 9.145 3.065 14.867 6.712 17 10.836 1.42 2.745 1.03 4.294-3.137 12.464-3.256 6.383-4.041 8.477-4.247 11.319-.315 4.352.895 8.188 4.186 13.268 3.412 5.269 4.296 7.543 3.559 9.16-.782 1.715-2.467 2.105-4.818 1.117zm-5.643-41.114c.687-.481 1.697-1.819 2.244-2.972.906-1.908.912-2.259.072-3.884-2.533-4.898-6.227-5.601-9.937-1.891-3.018 3.018-3.064 4.897-.186 7.611 2.384 2.248 5.56 2.71 7.807 1.136z" style="fill:#fff;stroke-width:.597015" transform="scale(.75)"/><path d="M240.086 231.757c-3.946-5.322-4.625-7.086-3.294-8.557 1.657-1.831 3.47-1.329 7.07 1.962 3.992 3.648 5.395 5.995 4.539 7.595-.706 1.317-3.238 3.064-4.443 3.064-.473 0-2.215-1.829-3.872-4.064zM248.974 224.1c-1.997-1.848-4.19-4.146-4.873-5.105l-1.242-1.744 2.843-4.703c1.564-2.587 3.42-5.426 4.123-6.308l1.28-1.606 5.13 2.205c2.823 1.212 5.692 2.8 6.376 3.529l1.245 1.325-3.122 5.185c-3.968 6.59-6.818 10.585-7.553 10.585-.317 0-2.21-1.513-4.207-3.362zM235.48 215.075c.44-1.232 2.15-4.852 3.797-8.046 3.493-6.77 4.263-10.515 2.857-13.881-.517-1.237-.94-2.778-.94-3.425 0-1.223 7.153-8.827 8.303-8.827.926 0 .821 5.579-.206 10.945-1.563 8.172-6.279 17.814-11.282 23.068-2.853 2.997-3.558 3.043-2.528.166zM262.68 204.516c-3.869-1.426-9.392-4.45-9.728-5.324-.183-.477.313-4.318 1.101-8.537.79-4.218 1.442-7.737 1.452-7.82.01-.081 3.376-.148 7.48-.148h7.463v3.205c0 3.85-1.465 12.716-2.75 16.645-1.01 3.088-1.494 3.279-5.018 1.98zM256.857 177.889c-1.933-.777-2.697-3.274-2.313-7.561.384-4.294 2.399-8.875 4.612-10.486.85-.618 2.597-1.265 3.884-1.437 1.86-.25 2.568-.061 3.456.92 1.541 1.703 3.291 8.361 3.747 14.257l.38 4.925-6.207-.037c-3.414-.021-6.815-.283-7.559-.581zM258.308 154.826c-.625-.626-.464-12.028.176-12.423.746-.461 4.079 5.359 4.582 8.002.339 1.777.162 2.23-1.338 3.43-1.77 1.417-2.719 1.692-3.42.99zM229.074 181.792c-3.546-1.46-8.247-3.199-10.447-3.864-2.2-.665-4.294-1.411-4.653-1.658-.853-.587-3.228-7.708-3.225-9.67.003-2.298 1.896-4.955 5.91-8.296 9.5-7.906 30.3-19.797 34.63-19.797.956 0 1.232.561 1.556 3.154.538 4.306-.67 19.72-1.86 23.73-2.038 6.865-7.068 15.062-10.565 17.217-3.386 2.088-4.483 2.009-11.346-.816zm3.016-13.148c1.88-2.166 1.81-5.61-.166-7.957-3.79-4.504-10.431-1.97-10.431 3.979 0 1.952 1.904 4.71 3.813 5.523 2.076.884 5.313.147 6.784-1.545z" style="fill:#fff;stroke-width:.597015" transform="scale(.75)"/><path d="M232.895 241.433c-6.58-2.767-18.13-19.346-20.38-29.257-.808-3.556-1.853-24.104-1.358-26.717.87-4.602 1.528-4.758 9.195-2.19 9.145 3.065 14.867 6.712 17 10.836 1.417 2.74 1.03 4.293-3.072 12.336-5.83 11.431-5.853 15.873-.126 24.715 3.412 5.269 4.296 7.543 3.559 9.16-.782 1.715-2.467 2.105-4.818 1.117zm-5.643-41.114c.687-.481 1.697-1.819 2.244-2.972.9-1.894.908-2.267.09-3.849-1.263-2.442-3.75-4.244-5.856-4.244-2.16 0-6.417 3.94-6.417 5.939 0 4.313 6.392 7.61 9.94 5.126zM199.779 199.552c-1.528-2.955-3.449-10.148-3.254-12.18.23-2.39 1.637-3.2 6.61-3.807l3.432-.419v1.971c0 3.893-4.044 16.077-5.336 16.077-.332 0-.985-.739-1.452-1.642zM191.898 231.091c-2.77-.445-5.63-1.524-5.63-2.124 0-.134.965-2.341 2.143-4.904 3.057-6.65 5.452-13.286 5.919-16.403.664-4.428 1.116-4.687 3.73-2.133 1.26 1.229 2.593 2.234 2.964 2.234.372 0 1.513-.705 2.537-1.567 1.025-.861 1.957-1.466 2.072-1.343.115.123 1.075 3.045 2.133 6.492 1.057 3.448 2.832 8.47 3.944 11.16 2.527 6.117 2.6 7.68.38 8.164-2.892.63-17.059.929-20.192.424zM196.88 178.77c-3.028-1.643-3.81-5.291-1.58-7.37 1.703-1.586 6.675-2.168 9.76-1.144 2.947.979 3.88 3.016 2.694 5.88-1.345 3.247-7.153 4.654-10.873 2.635zM197.894 164.153c-.614-.995.916-2.362 2.643-2.362 1.83 0 4.422 1.608 3.915 2.429-.471.763-6.08.705-6.558-.067zM159.005 181.783c-6.662-6.952-9.304-14.6-10.348-29.952-.624-9.18-.336-11.942 1.3-12.462 1.678-.532 16.128 6.656 24.371 12.124 3.804 2.523 9.097 6.741 11.868 9.458 4.726 4.634 4.98 5.014 4.629 6.902a321.98 321.98 0 0 0-.749 4.212c-.52 3.066-1.754 3.96-7.806 5.656-2.89.81-7.994 2.662-11.341 4.115-3.347 1.453-6.819 2.642-7.714 2.642-1.152 0-2.385-.79-4.21-2.695zm16.79-12.005c2.785-1.069 3.563-6.932 1.272-9.595-1.197-1.391-1.915-1.676-4.231-1.676-2.304 0-3.036.287-4.204 1.645-2.752 3.199-2.503 8.186.468 9.38 1.586.637 5.317.775 6.694.246zM163.569 240.881l-1.416-1.506 1.613-3.12c.886-1.717 2.943-5.374 4.57-8.129 4.72-7.99 4.63-9.396-1.452-22.616-5.488-11.926-4.553-14.388 7.667-20.177 7.128-3.376 13.334-5.09 14.077-3.886.83 1.342 1.421 14.036 1.011 21.692-.51 9.521-3.243 17.153-9.353 26.115-3.759 5.513-12.334 13.134-14.78 13.134-.287 0-1.159-.678-1.937-1.507zm18.176-42.182c3.023-3.533 2.685-5.73-1.288-8.349-3.155-2.08-6.81-.794-8.827 3.106-1.298 2.509-1.108 3.454 1.146 5.708 1.636 1.636 2.496 2.03 4.431 2.03 2.08 0 2.687-.334 4.538-2.495z" style="fill:#fff;stroke-width:.597015" transform="scale(.75)"/><path d="M175.434 198.296c-.506-.22-1.28-1.044-1.665-1.772-.318-.601-.382-2.805-.084-2.907.253-.086 2.316 1.928 2.855 2.787.646 1.03.693 1.418.22 1.79-.453.357-.698.376-1.326.102zM179.154 195.449c-.685-.411-1.293-1.238-1.55-2.11-.221-.743-.146-2.326.114-2.412.105-.035.751.497 1.435 1.182 1.768 1.773 2.295 2.954 1.55 3.476-.461.323-.838.29-1.549-.136zM170.5 167.626c-.628-.383-.996-1.234-1.072-2.48-.07-1.142.121-1.866.493-1.866.643 0 2.61 1.84 3.124 2.923.326.689.163 1.112-.565 1.457-.685.325-1.412.312-1.98-.034zM175.437 164.974c-1.02-.536-2.326-2.156-2.532-3.14-.117-.557.094-1.032.519-1.166.677-.215 2.123 1.25 2.917 2.955.407.874.444 1.16.185 1.418-.237.237-.545.218-1.09-.067zM222.526 198.309c-.746-.235-2.043-1.571-2.167-2.232-.17-.91-.068-1.082.634-1.068.814.016 1.714.613 2.288 1.517.52.82.583 1.592.15 1.824-.158.085-.31.147-.335.139l-.57-.18zM226.034 195.582c-.936-.488-1.585-1.417-1.868-2.675-.19-.847-.072-2.015.204-2.015.274 0 2.209 1.908 2.766 2.728.658.968.76 1.631.299 1.954-.436.305-.828.307-1.4.009zM226.32 167.55c-.766-.34-1.5-1.092-1.842-1.889-.502-1.167-.18-1.657.87-1.322 1.244.398 2.453 1.837 2.371 2.822-.038.462-.095.526-.491.557a2.242 2.242 0 0 1-.907-.168zM229.82 164.793c-.992-.63-2.104-2.089-2.234-2.93-.077-.503.15-1.095.456-1.192.458-.146 1.146.307 1.877 1.233 1.218 1.546 1.751 3.006 1.177 3.226-.399.153-.576.106-1.275-.337zM211.286 155.482c-.237-.175-.234-.226.043-.784.163-.328.729-1.088 1.257-1.689 1.086-1.233 1.582-2.16 1.582-2.956 0-1.483-1.826-2.573-2.755-1.644-.537.538-.945 1.444-1.37 3.045-.391 1.47-.994 2.871-1.236 2.871-.483 0-.595-2.378-.231-4.906.653-4.544 2.622-8.578 5.656-11.587 2.432-2.412 4.617-3.15 5.87-1.98.51.476.958 1.407.903 1.88-.038.332-.13.407-.544.447-.275.026-1.058-.1-1.74-.28-1.436-.38-2.21-.317-2.487.201-.097.181-.229.956-.294 1.722-.119 1.412-.449 2.378-.876 2.566-1.31.574-1.665 1.002-1.754 2.117-.11 1.373.495 2.195 1.458 1.984.792-.174 1.43-.961 1.61-1.988.28-1.58 1.273-3.02 2.495-3.61.632-.306.699-.312 1.042-.087.489.32.576.75.483 2.378-.138 2.424-1.236 4.917-2.86 6.498-.892.867-1.579 2.06-1.579 2.741 0 .627-.341 1.183-1.195 1.951-1.15 1.034-2.847 1.575-3.478 1.11zM224.417 146.315c-.178-.178-.102-.852.21-1.84.407-1.295.735-2.879.736-3.555.001-.872.28-1.65.685-1.917.317-.207.463-.217.973-.064.788.236 2.559 1.963 2.973 2.9.279.63.286.725.08 1.122-.405.784-2.622 2.532-4.01 3.162-.625.284-1.458.381-1.647.192zM200.66 157.217c-.831-.203-1.123-.419-1.433-1.06-.279-.574-.344-1.061-.448-3.305-.174-3.795-.553-5.368-2-8.303-.445-.903-1.618-2.884-2.608-4.403-2.011-3.088-3.596-6.076-3.634-6.856-.024-.481.013-.524.614-.7 2.743-.81 15.464-.621 19.047.282.87.22 1.063.47.924 1.208-.08.424-.451.92-1.625 2.164-2.198 2.33-3.496 4.771-4.518 8.501-.662 2.414-.935 4.392-1.089 7.88-.136 3.087-.291 3.71-1.065 4.26-.382.27-1.629.462-2.164.332zM189.86 156.853c-1.049-.701-3.345-2.92-4.83-4.668-1.001-1.178-1.43-2.045-1.97-3.98-.946-3.395-1.172-9.263-.413-10.725.24-.462.426-.588 1.31-.883 1.164-.388 2.257-.397 2.493-.02.262.417-.033 1.285-.757 2.23-1.474 1.925-1.696 2.818-1.002 4.04.707 1.243 1.13 2.257 1.221 2.93.113.82.806 1.585 1.674 1.845 1.255.376 1.888-.276 1.775-1.83-.076-1.053-.451-1.628-1.201-1.84-.716-.202-1.075-.56-1.293-1.286-.235-.784-.087-1.65.365-2.138.89-.96 2.79-.036 3.978 1.931 1.407 2.332 3.992 9.786 4.243 12.233.089.87.07.96-.23 1.12-.516.276-1.133.041-1.804-.687-.85-.922-1.194-1.78-1.341-3.345-.132-1.401-.167-1.514-.645-2.045-.377-.419-1.118-.442-1.617-.05-.484.38-1.137 1.607-1.243 2.335-.112.767.164 1.282.771 1.44.949.245 2.218 2.333 2.108 3.465-.066.676-.5.656-1.591-.072zM176.48 147.333c-.937-.443-4.21-2.826-5.088-3.704-.73-.731-.673-1.084.321-1.942 1.171-1.011 3.176-2.345 3.994-2.658.641-.245.722-.246 1.06-.025.266.174.388.417.443.878.301 2.525.436 3.355.765 4.714.747 3.086.438 3.652-1.495 2.737zM199.467 165.117c-1.531-.352-2.015-.682-2.015-1.372 0-.62.757-1.57 1.48-1.86 1.384-.554 3.976-.138 5.266.846 1.224.934 1.082 1.833-.355 2.26-.735.218-3.615.301-4.376.126z" style="fill:#fff;stroke-width:.149254" transform="scale(.75)"/><path d="M141.745 338.17c-9.07-.117-17.237-.307-18.151-.421-1.645-.205-1.661-.217-1.57-1.14.089-.908.256-1.006 6.36-3.734 9.79-4.375 26.525-12.071 31.909-14.674l4.887-2.363.337-1.438c.68-2.903.936-10.024 1.215-33.677.267-22.57.44-29.466.779-31.12.2-.974 1.189-.868 4.56.489 5.848 2.354 13.673 4.426 19.872 5.26 3.085.416 5.202.489 10.596.366 9.406-.214 13.25-.939 25.518-4.81 2.447-.771 5.012-1.48 5.701-1.575l1.253-.172.196 1.154c.108.635.33 12.17.493 25.632.28 23.085.668 37.262 1.081 39.493.172.928.42 1.101 4.146 2.892 2.18 1.048 10.122 4.723 17.65 8.167 23.862 10.917 22.035 10.021 22.135 10.85l.09.74-11.88.197c-15.022.25-105.276.167-127.177-.116z" style="fill:#fff;stroke-width:.298507" transform="scale(.75)"/><path d="M131.213 338.116c-.052-.001-.358-.01-.681-.017-6.412-.157-10.296-.377-11.549-.655-.254-.056-.426-.121-.471-.178-.042-.053-.005-.116.1-.169.03-.015.402-.179.828-.365a1252.87 1252.87 0 0 0 11.017-4.883c.58-.26 1.062-.476 1.071-.478.015-.004.017 0 .014.04l-.003.044-.536.242a1616.485 1616.485 0 0 1-3.793 1.7c-2.396 1.074-3.449 1.57-4.071 1.917-.735.41-.995.657-1.078 1.024-.056.25-.085.781-.048.903.071.232.27.326.888.418.154.023.575.079.746.098.512.059 3.659.158 7.591.24l.306.006v.119l-.12-.002-.211-.004z" style="fill:#fff;stroke-width:.00932836" transform="scale(.75)"/><path d="M266.029 338.38v-.05l.557-.009 1.574-.021c.558-.007 1.538-.022 2.176-.033l2.368-.04 1.98-.032 2.803-.047c2.94-.048 3.304-.055 3.312-.062a3.967 3.967 0 0 0-.035-.342 8.263 8.263 0 0 1-.05-.534l-.008-.2-.052-.074c-.158-.23-.747-.572-2.224-1.293-.593-.29-.6-.294-.604-.335-.004-.038-.001-.042.033-.042.07 0 4.103 1.898 5.307 2.498.594.297.633.319.633.36 0 .017-.007.031-.016.031l-.162.013c-.822.07-4.412.141-10.323.205-2.497.027-6.213.059-6.797.059h-.472z" style="fill:#fff;stroke-width:.0131923" transform="scale(.75)"/></svg>