<svg xmlns="http://www.w3.org/2000/svg" width="317" height="313" version="1.0" viewBox="0 0 238 235"><path d="M62 60 5 119l57 58 58 57 58-58 58-58-58-57-58-58-58 57zm67-13c10 1 22 4 28 7s13 9 16 15c5 8 5 17 3 38 0 4-3 12-7 17l-3 4 19-3 3 1-4 13-4 12h-4c-5-1-15 1-20 3-5 3-7 8-7 20v11c1 1 0 2-5 2h-6l-1-8c0-8 0-8-3-8-2 0-2 0-2 8v8h-9v-5l-1-8c0-4 0-4-3-4h-2v17h-9v-9c0-8 0-8-2-8-3 0-4 1-4 11v6H92v-13c1-11 0-13-2-16-3-4-11-8-19-9l-8-1-5-11-5-11h24l-5-6c-9-9-11-14-12-22-1-13 4-28 11-36 9-11 25-16 43-15h15z"/><path d="M93 103c-11 6-11 21 0 27 10 6 22-2 22-14 0-8-7-15-15-15l-7 2zm14 6c2 2 3 4 3 8 0 3-1 5-3 7-6 4-13 2-16-4-4-9 8-17 16-11zm30-5c-4 2-7 7-7 11 0 5 3 10 6 12s10 1 13-1c5-3 7-11 5-16-3-5-11-8-17-6zm-22 36-6 10 6-3 6-4 5 2 6 4c2 1 2 1 1-1l-11-18-7 10z"/><path d="M123 233c0-19 0-20-4-24-2-2-4-4-8-5-6-3-11-5-20-6l-7-2-13-27 16-1h16l-6-7c-15-16-17-22-16-38 0-18 6-33 16-43 12-12 31-18 53-18 23 1 33 2 43 5a52 52 0 0 1 41 34c2 8 3 20 2 35-1 12-4 18-11 28-3 5-4 7-2 7a269 269 0 0 0 27-4l-5 17-5 17h-9l-13 1c-17 4-21 10-20 36v10l-9 1h-5v-2l-1-10c-1-8-1-9-4-9s-3 0-3 11v10h-6l-5-1-2-14c0-7-1-8-5-8h-3v2l1 12v9h-10l-2-1v-10c0-12 0-12-3-12s-4 2-5 5v10l-1 7-2 1h-10v-16zm29-37c10-6 9-5 12-4l8 5c7 4 8 4 4-3l-14-20c-1 0-17 24-17 26l7-4zm-15-20c14-3 21-18 14-31-2-5-7-8-12-10-3-1-8 0-12 1-17 5-19 30-3 38 5 2 9 3 13 2zm57-5c4-1 6-2 8-5l4-7c3-11-4-21-16-21-5-1-8 0-12 4-5 6-6 14-2 21 1 3 3 6 5 7 3 1 8 2 13 1z" style="fill:#fff;stroke-width:.467662" transform="scale(.75)"/><path d="M130 167c-6-2-9-6-9-12 0-3 1-5 3-8a13 13 0 0 1 10-4c4 0 9 3 11 6v12c-2 5-10 8-15 6z" style="fill:#fff;stroke-width:.467662" transform="scale(.75)"/></svg>