<svg xmlns="http://www.w3.org/2000/svg" width="317.333" height="313.333" version="1.0" viewBox="0 0 238 235"><path d="M62.2 60.3C30.8 91.7 5 118 5 118.5c0 .6 25.8 26.8 57.3 58.3l57.2 57.2 58-58 58-58L178 60.5C146.4 28.9 120.3 3 120 3c-.3 0-26.3 25.8-57.8 57.3zm66.3-12.9c10.1.6 22.2 3.4 28.5 6.6 5.6 2.8 12.6 9.4 15.6 14.6 5 8.5 5.9 17.7 3.9 38.4-.5 4.2-3.8 11.5-7.9 16.9-1.4 1.9-2.4 3.6-2.2 3.9.4.3 9.9-.9 18.4-2.4 2.4-.5 3.1-.3 2.8.7-.3.8-2.1 6.7-4.1 13.3l-3.6 11.8-3.7-.5c-5.4-.6-15.7 1-20.1 3.3-5.5 2.8-7.5 8-7.3 19.5.1 4.9.3 9.9.4 11 .3 1.8-.4 2-5.4 2.3l-5.7.3-.7-8.1c-.6-7.6-.8-8-3-8-2.3 0-2.4.2-2.4 8v8h-8.7l-.7-4.6c-.3-2.6-.6-6.4-.6-8.5 0-3.6-.2-3.9-2.7-3.9h-2.8l.3 8.6.4 8.5-4.8-.3-4.7-.3.2-8.3c.2-8.2.2-8.2-2.3-8.2-3 0-3.5 1.4-3.8 10.5l-.3 6-4.6.3-4.6.3.1-13c.1-11.6-.1-13.2-2-15.8-3.2-4.3-11.1-8.1-19.9-9.5l-7.7-1.2-4.9-10.4c-2.7-5.8-4.9-10.6-4.9-10.8 0-.2 5.4-.4 12.1-.4h12.1l-5.7-6.3c-8.3-9.1-10.5-13.3-11.2-21.4C59.2 85 63.6 70.1 71 61.6c9.3-10.5 25-16 43-15 3 .2 9.6.6 14.5.8z"/><path d="M93 102.9c-10.8 5.7-10.8 21.5 0 27.2 10.3 5.5 22-1.8 22-13.6 0-8.7-6.6-15.5-15-15.5-1.9 0-5.1.8-7 1.9zm13.7 6.5c2.3 2 2.8 3.2 2.8 7.1 0 3.9-.5 5.1-2.8 7.1-5.3 4.5-13.1 2.7-15.7-3.5-3.9-9.4 7.9-17.4 15.7-10.7zM137.4 104c-4 1.6-7.4 6.8-7.4 11.3 0 4.7 2.7 10 6.2 11.8 3.2 1.7 10.1 1.4 13.2-.7 5.1-3.3 7.1-10.9 4.3-16.4-2.7-5.4-10.6-8.3-16.3-6zM114.7 140.1c-3.8 5.4-6.5 9.9-6.2 9.9.3 0 3.1-1.6 6.1-3.5 3-1.9 5.9-3.5 6.4-3.5.6 0 2.7 1.1 4.8 2.3 2 1.3 4.7 2.9 6 3.6 2.2 1.2 2.3 1.1 1.2-1-1-1.8-10.8-17-11.3-17.6-.1-.1-3.3 4.3-7 9.8z"/><path d="M123.339 233.029c.023-19.501-.014-19.694-4.654-24.258-2.16-2.124-4.129-3.454-7.762-5.246-5.945-2.93-10.952-4.402-19.437-5.71-3.562-.55-6.77-1.152-7.13-1.337-.85-.437-13.266-27.073-12.898-27.668.17-.276 6.362-.452 15.918-.452 8.601 0 15.634-.158 15.627-.35-.006-.193-2.655-3.298-5.886-6.899-14.655-16.333-16.947-21.66-16.4-38.114.59-17.73 6.334-32.708 16.425-42.83 12.216-12.255 31.335-18.663 53.107-17.802 22.526.892 32.37 1.921 42.79 4.476 9.686 2.374 15.363 4.615 20.484 8.086 9.785 6.63 17.512 16.416 20.416 25.856 2.415 7.85 2.99 20.095 1.667 35.542-.968 11.317-3.205 17.306-10.324 27.647-3.738 5.428-4.192 6.727-2.355 6.727 1.708 0 11.84-1.351 19.449-2.593 3.728-.609 6.95-.935 7.159-.726.21.209-1.892 7.828-4.67 16.931l-5.05 16.552-8.423.019c-6.918.016-9.28.206-13.229 1.064-17.52 3.807-20.855 9.898-19.766 36.096.326 7.843.281 9.197-.32 9.677-.726.579-2.698.855-9.558 1.339l-4.054.285-.265-2.494c-.145-1.371-.578-5.732-.962-9.69-.816-8.423-1.231-9.406-3.972-9.406-3.239 0-3.296.198-3.296 11.491v10.022h-5.58c-4.911 0-5.61-.099-5.822-.819-.536-1.816-1.274-8.643-1.55-14.34-.363-7.446-.566-7.757-5.081-7.757h-3.069l.246 1.988c.135 1.093.377 6.252.537 11.463l.292 9.476-4.133-.26c-2.273-.145-4.983-.364-6.022-.488l-1.888-.226.018-10.524c.02-11.68.093-11.408-3.113-11.422-2.463-.01-4.014 1.504-4.545 4.436-.233 1.286-.574 5.75-.759 9.918l-.335 7.58-1.929.234c-1.06.129-3.726.355-5.923.504l-3.995.27.02-16.268zm28.962-37.031c9.593-5.747 8.685-5.454 11.856-3.833 1.481.758 5.005 2.761 7.83 4.452 7.427 4.446 7.765 4.208 3.673-2.584-3.475-5.767-13.149-20.53-13.453-20.53-.92 0-17.57 24.79-17.57 26.16 0 .841.702.505 7.664-3.665zm-15.128-20.16c13.615-2.583 20.386-17.822 13.742-30.932-2.283-4.507-7.118-8.341-12.265-9.727-3.096-.833-7.908-.662-11.317.404-17.456 5.459-19.467 30.099-3.113 38.157 4.865 2.398 8.373 2.966 12.953 2.097zm56.818-5.184c3.646-.674 5.697-1.774 8.033-4.307 2.269-2.462 3.325-4.378 4.178-7.576 2.932-11.004-4.43-20.628-16.202-21.181-5.414-.255-8.33.835-11.661 4.357-5.665 5.99-6.671 13.75-2.773 21.39 1.167 2.288 3.934 5.356 5.615 6.225 3.005 1.554 8.005 1.98 12.81 1.092z" style="fill:#fff;stroke-width:.467662" transform="scale(.75)"/><path d="M129.617 167.274c-5.705-2.136-8.924-6.468-8.924-12.01 0-3.276.897-5.45 3.342-8.103a12.919 12.919 0 0 1 9.612-4.206c4.536.006 9.156 2.635 11.008 6.264 1.12 2.198 1.295 9.38.285 11.796-1.983 4.747-10.294 8.141-15.323 6.259z" style="fill:#fff;stroke-width:.467662" transform="scale(.75)"/></svg>