<svg xmlns="http://www.w3.org/2000/svg" width="384" height="385" version="1.0" viewBox="0 0 288 289"><path d="M24 144v120h240V24H24v120zM176 41c19 4 32 10 41 20 12 12 17 27 16 47-2 25-4 30-13 44l-5 7a275 275 0 0 0 32-5l-5 19-6 18-11 1c-19 0-28 4-32 13-2 5-3 7-3 18l1 17 1 4h-18v-22h-9l1 11v11h-14l1-11v-12h-8v5l-1 12v6h-14v-12l1-12h-4l-5 1v23h-8c-7 0-8 0-8-2 2-4 3-15 3-21 0-8-2-15-4-19-5-7-23-14-36-14h-4l-5-9-8-17-3-7h19l18 1-8-9c-14-16-16-19-18-33-1-15 4-35 11-46 10-15 24-24 46-28 6-1 50 0 59 1z"/><path d="M108 122a22 22 0 0 0 11 42c13 0 22-9 22-22 0-18-17-28-33-20zm18 7c10 6 9 20-1 25-5 3-9 2-13 0-5-4-7-7-7-13 0-10 12-17 21-12zm46-5c-6 3-9 9-9 16 0 15 14 24 27 17 6-4 10-11 10-18-2-14-16-21-28-15zm-32 52-10 16 9-6 10-6 10 5 10 6-18-28-11 13z"/><path d="M143 324v-4c2-11 3-32 1-40-3-12-8-17-23-23-10-4-23-7-32-7h-2l-5-10-16-33a1767 1767 0 0 1 50 1l-7-7c-24-25-26-30-28-49-1-9 0-18 2-29 8-37 29-59 66-68 9-3 18-3 42-2 31 1 40 2 51 4 21 5 35 12 46 24 13 12 19 25 21 42v37c-3 20-5 25-16 42l-6 10 30-4 12-2c1 1-13 48-14 49h-15c-16 1-23 2-30 5-7 4-13 11-15 20v40l1 5h-24v-29h-12v3l1 25v1h-18v-2a640 640 0 0 1 2-27c0-1-1-2-6-2h-6v7l-1 15v9h-19v-3l2-29-12 1v16l-1 15-19-1zm43-76 13-7 16 8 10 5-3-5c-5-10-19-31-20-32s-4 2-11 12l-18 26 13-7zm-17-31c12-4 20-15 20-28 0-11-5-20-14-26-5-3-9-4-16-4-9 0-16 2-22 8s-9 14-9 22c0 13 7 23 19 28 6 2 15 3 22 0zm80-6c11-3 19-16 17-28-2-15-18-25-34-19-9 3-14 11-15 21-1 19 15 31 32 26z" style="fill:#fff;stroke-width:.575124" transform="scale(.75)"/><path d="M154 207c-5-2-11-7-13-11l-1-7c0-4 0-5 2-8 6-12 20-15 29-6 8 8 8 19 1 27-5 4-13 7-18 5z" style="fill:#fff;stroke-width:.575124" transform="scale(.75)"/></svg>