<svg xmlns="http://www.w3.org/2000/svg" width="384" height="385.333" version="1.0" viewBox="0 0 288 289"><path d="M24 144v120h240V24H24v120zM175.5 41.4c19.7 3.6 32 9.3 41.9 19.6 11.6 12 16.5 26.9 15.2 46.5-1.6 25.3-3.2 30.7-12.9 44.5-2.5 3.5-4.5 6.5-4.4 6.7.1.1 7.4-.9 16.1-2.3 8.7-1.4 16-2.3 16.1-2.2.1.2-2.3 8.6-5.4 18.8l-5.7 18.4-10.9.2c-19 .3-28 4-32.4 13.3-2.4 5.1-2.6 6.7-2.6 18.1 0 6.9.3 14.4.8 16.7l.7 4.3h-18v-22h-8.9l.6 11 .6 11h-14.4l.7-11.5.7-11.5h-8l-.7 5.3c-.3 2.8-.6 8-.6 11.4v6.3h-14.3l.7-12.1.7-12-4.3.3-4.3.3-.3 11.8-.3 11.7h-8c-7.2 0-8-.2-7.5-1.8 1.2-4.1 2.6-15.2 2.6-21.2-.1-8.3-1.5-14.6-4.4-19-4.3-6.6-22.9-13.9-35.3-14H65l-4.6-9.3c-2.6-5-6.2-12.5-8-16.6l-3.4-7.4 18.6.7 18.7.8-8.2-8.9c-14.5-15.9-16.3-19.2-17.6-33.4-1.4-14.7 3.3-34.6 10.8-46.2 9.7-15 24.2-23.9 45.7-28.1 5.9-1.1 49.7.2 58.5 1.8z"/><path d="M108.2 121.6c-8.6 4.3-13.6 14.4-11.7 24.1 2 10.7 11.1 18.2 22.3 18.3 13 0 22.5-9.5 22.5-22.5 0-17.3-17.3-27.8-33.1-19.9zm17.6 7.4c9.8 6 9.4 20.1-.8 25.2-4.7 2.4-9 2.2-13-.5-5.2-3.5-7.3-7-7.3-12.2 0-10.7 12.2-17.9 21.1-12.5zM172.2 124.1c-5.8 2.9-9.5 9.2-9.5 16.3 0 14.4 14.5 23.1 27.4 16.3 6.1-3.3 10.3-11.1 9.5-18-1.5-13.4-15.1-20.6-27.4-14.6zM140.1 176.4c-5.5 8-10.1 14.8-10.1 15.1 0 .2 3.9-2 8.6-5.1 4.7-3 9.2-5.8 10-6.1.7-.3 5.7 2 10.9 5.1 5.2 3 9.5 5.3 9.5 5.1 0-.6-16.9-26.8-17.9-27.8-.5-.5-5.4 5.7-11 13.7z"/><path d="M142.668 324.462c-.592-.376-.574-1.18.093-4.161 2.635-11.774 3.298-31.933 1.326-40.335-2.698-11.498-8.258-17.007-23.402-23.185-9.574-3.906-22.227-6.582-31.198-6.597l-2.728-.005-4.955-9.896c-5.865-11.715-15.9-33.286-15.617-33.57.185-.184 36.782 1.164 45.44 1.675 2.135.126 3.881.105 3.881-.046 0-.15-2.926-3.416-6.503-7.256-23.534-25.262-26.155-29.897-28.007-49.54-.783-8.294-.106-17.755 2.019-28.252 7.588-37.475 28.833-59.425 66.424-68.63 8.943-2.19 17.626-2.565 41.409-1.793 30.756.999 39.958 1.783 51.624 4.4 20.349 4.564 34.083 11.583 45.905 23.46 12.368 12.425 18.647 25.208 21 42.755.835 6.222.363 25.985-.876 36.686-2.255 19.47-4.29 24.962-15.371 41.467-3.504 5.219-6.201 9.659-5.993 9.867.371.371 6.127-.379 29.873-3.894 6.6-.977 12.127-1.65 12.281-1.495.415.414-13.594 47.658-14.359 48.422-.12.12-6.671.476-14.56.79-16.466.659-23.378 1.791-30.04 4.923-7.71 3.626-13.494 10.827-15.753 19.615-1.023 3.976-.831 33.9.258 40.334l.803 4.744H232.259v-29.331h-12.46l.193 3.02c.448 7.03 1.34 23.586 1.34 24.893v1.418h-18.405l.013-1.581c.007-.87.39-7.146.85-13.947.461-6.8.844-12.948.85-13.66.012-1.254-.157-1.293-5.645-1.293h-5.657l-.67 6.182c-.368 3.4-.67 10.26-.669 15.241l.001 9.058h-18.765l.216-3.307c.393-6.003 1.676-28.61 1.629-28.703-.14-.276-11.327.828-11.649 1.15-.212.212-.58 7.178-.82 15.48-.238 8.3-.452 15.157-.475 15.236-.115.39-18.834.063-19.468-.34zm43.345-76.288c6.298-3.95 11.968-7.183 12.6-7.184 1.618-.003 6.004 2.124 16.828 8.156 5.154 2.872 9.534 5.058 9.735 4.857.2-.2-1.018-2.631-2.707-5.401-5.555-9.11-19.554-30.5-20.445-31.239-1.255-1.04-4.079 1.895-11.04 11.477-4.688 6.451-16.03 23.06-17.614 25.796-1.023 1.765 1.933.254 12.643-6.462zm-17.327-30.877c12.273-4.097 19.827-14.933 19.855-28.484.022-10.91-4.744-20.015-13.507-25.805-4.8-3.17-9.492-4.476-16.104-4.481-8.99-.007-15.927 2.7-21.906 8.547-6.012 5.878-9.05 13.45-8.971 22.358.108 12.198 7.195 22.549 18.614 27.189 6.62 2.69 15.197 2.953 22.019.676zm80.423-6.233c11.35-3.505 18.895-15.706 17.058-27.583-2.447-15.818-18.598-25.067-33.908-19.418-9.116 3.364-14.654 10.977-15.368 21.127-1.296 18.417 14.72 31.28 32.218 25.874z" style="fill:#fff;stroke-width:.575124" transform="scale(.75)"/><path d="M153.87 206.825c-5.065-1.887-10.724-6.888-12.605-11.143-.803-1.815-1.167-3.907-1.186-6.814-.023-3.58.24-4.736 1.797-7.9 5.849-11.88 20.315-14.683 29.322-5.682 7.316 7.313 7.477 18.993.361 26.23-4.473 4.55-12.92 7.085-17.688 5.309z" style="fill:#fff;stroke-width:.575124" transform="scale(.75)"/></svg>