<?xml version="1.0" encoding="UTF-8" standalone="no"?>
<svg
   xmlns:dc="http://purl.org/dc/elements/1.1/"
   xmlns:cc="http://creativecommons.org/ns#"
   xmlns:rdf="http://www.w3.org/1999/02/22-rdf-syntax-ns#"
   xmlns:svg="http://www.w3.org/2000/svg"
   xmlns="http://www.w3.org/2000/svg"
   xmlns:sodipodi="http://sodipodi.sourceforge.net/DTD/sodipodi-0.dtd"
   xmlns:inkscape="http://www.inkscape.org/namespaces/inkscape"
   version="1.0"
   width="238.000000pt"
   height="238.000000pt"
   viewBox="0 0 238.000000 238.000000"
   preserveAspectRatio="xMidYMid meet"
   id="svg3276"
   sodipodi:docname="obeahsup.svg"
   inkscape:version="1.0.1 (3bc2e813f5, 2020-09-07)">
  <defs
     id="defs3280" />
  <sodipodi:namedview
     pagecolor="#ffffff"
     bordercolor="#666666"
     borderopacity="1"
     objecttolerance="10"
     gridtolerance="10"
     guidetolerance="10"
     inkscape:pageopacity="0"
     inkscape:pageshadow="2"
     inkscape:window-width="1600"
     inkscape:window-height="837"
     id="namedview3278"
     showgrid="false"
     inkscape:zoom="2.1113445"
     inkscape:cx="158.66667"
     inkscape:cy="158.66667"
     inkscape:window-x="-8"
     inkscape:window-y="-8"
     inkscape:window-maximized="1"
     inkscape:current-layer="svg3276" />
  <metadata
     id="metadata3270">
Created by potrace 1.16, written by Peter Selinger 2001-2019
<rdf:RDF>
  <cc:Work
     rdf:about="">
    <dc:format>image/svg+xml</dc:format>
    <dc:type
       rdf:resource="http://purl.org/dc/dcmitype/StillImage" />
  </cc:Work>
</rdf:RDF>
</metadata>
  <g
     transform="translate(0.000000,238.000000) scale(0.100000,-0.100000)"
     fill="#000000"
     stroke="none"
     id="g3274">
    <path
       d="M617 1772 l-577 -577 578 -578 577 -577 580 580 580 580 -575 575 c-316 316 -577 575 -580 575 -3 0 -265 -260 -583 -578z m582 64 c16 -20 3 -46 -24 -46 -13 0 -26 7 -29 16 -7 19 10 44 29 44 7 0 18 -6 24 -14z m-166 -44 c9 -10 20 -34 23 -53 3 -19 16 -43 29 -54 21 -19 23 -31 30 -174 5 -123 4 -156 -7 -162 -30 -19 -159 -9 -307 26 -183 42 -266 80 -287 130 -8 19 -14 39 -14 44 0 6 93 56 208 111 114 55 227 111 252 124 56 30 54 29 73 8z m472 -66 c88 -43 202 -98 253 -123 90 -43 93 -46 87 -71 -18 -75 -78 -107 -298 -158 -120 -27 -168 -34 -231 -32 l-80 3 3 160 c2 153 3 161 26 180 12 11 26 35 29 54 6 33 33 75 45 68 3 -1 78 -38 166 -81z m-301 27 c-1 -7 -2 -101 -2 -208 l-2 -195 -24 0 c-13 0 -26 4 -28 10 -1 5 -2 100 0 211 l3 200 27 -3 c15 -2 27 -9 26 -15z m44 -457 c15 -8 38 -26 51 -40 24 -25 24 -26 6 -46 -24 -26 -28 -25 -63 10 -22 22 -40 30 -65 30 -42 0 -92 -37 -101 -76 -14 -53 10 -88 105 -161 95 -71 119 -102 119 -153 0 -56 -43 -117 -70 -100 -13 8 -13 14 -1 42 35 87 28 100 -84 163 -94 53 -120 78 -135 136 -20 74 12 146 85 190 36 23 114 25 153 5z m-59 -85 c16 -10 23 -169 8 -178 -5 -3 -18 4 -29 15 -17 16 -21 34 -21 84 -1 82 9 100 42 79z m161 -97 c0 -51 -1 -53 -50 -88 -44 -32 -51 -34 -65 -20 -18 19 -19 29 -3 57 7 12 11 31 9 43 -1 14 12 34 40 59 40 36 43 37 56 20 7 -11 13 -42 13 -71z m-220 -164 c12 -8 11 -13 -8 -33 -14 -14 -22 -36 -22 -57 0 -35 20 -57 110 -123 39 -28 45 -38 48 -73 2 -32 -2 -44 -23 -64 -56 -52 -145 -15 -145 61 0 20 6 42 14 48 19 16 28 -1 20 -34 -13 -53 54 -86 91 -45 31 34 11 70 -50 92 -28 10 -64 33 -82 53 -28 29 -33 42 -33 84 0 34 6 56 21 75 22 28 35 31 59 16z m67 -52 c10 -14 5 -118 -6 -118 -4 0 -17 9 -29 20 -19 18 -22 37 -13 103 2 12 38 8 48 -5z m3 -232 c0 -18 -21 -35 -36 -29 -17 6 -18 50 -1 56 15 5 37 -11 37 -27z m1 -131 c0 -5 -7 -12 -16 -13 -23 -5 -47 6 -40 19 8 13 56 8 56 -6z"
       id="path3272" />
  </g>
  <path
     style="fill:#ffffff;stroke-width:0.473632"
     d="m 130.9592,137.99009 c -16.58373,-1.96639 -39.179209,-7.38076 -49.976784,-11.97554 -8.208084,-3.49285 -11.90526,-7.14919 -13.661817,-13.51092 -0.467448,-1.69296 -0.447193,-1.72947 1.744026,-3.14362 3.292045,-2.12458 64.912415,-32.631652 65.911765,-32.631652 1.77327,0 5.69227,6.374452 5.69227,9.25875 0,1.283227 1.96459,4.896441 3.78968,6.969848 2.21668,2.518285 2.73028,4.341745 3.32361,11.800034 0.71781,9.02306 1.11435,28.82489 0.6148,30.70172 -0.34442,1.29403 -0.79893,1.78173 -2.07172,2.22302 -1.50491,0.52176 -11.82025,0.72877 -15.36583,0.30836 z"
     id="path3282"
     transform="scale(0.74999998)" />
  <path
     style="fill:#ffffff;stroke-width:0.473632"
     d="m 154.122,136.51713 c -1.02716,-0.68894 -1.13382,-4.52279 -0.82453,-29.63691 l 0.31405,-25.499885 2.12907,0.319274 c 1.17099,0.175601 2.6281,0.509004 3.23802,0.740896 l 1.10895,0.421622 v 21.250793 c 0,11.68794 -0.13932,23.84187 -0.3096,27.00874 l -0.3096,5.75794 -2.41378,-0.007 c -1.32758,-0.004 -2.64724,-0.16384 -2.93258,-0.35523 z"
     id="path3284"
     transform="scale(0.74999998)" />
  <path
     style="fill:#ffffff;stroke-width:0.473632"
     d="m 155.58806,78.276799 c -2.3461,-0.558098 -3.2508,-2.766299 -2.05398,-5.013409 1.35903,-2.551678 3.59464,-2.882167 5.64265,-0.834152 1.65693,1.656929 1.77041,3.307118 0.31879,4.635755 -1.22676,1.122828 -2.55278,1.534061 -3.90746,1.211806 z"
     id="path3286"
     transform="scale(0.74999998)" />
  <path
     style="fill:#ffffff;stroke-width:0.473632"
     d="m 168.84975,137.9505 -3.78905,-0.15718 0.12957,-10.52153 c 0.0713,-5.78685 0.3097,-15.0071 0.52984,-20.48945 0.42087,-10.481013 0.6849,-11.727199 2.90577,-13.714802 1.74152,-1.5586 3.07434,-4.03816 4.41063,-8.205478 1.3395,-4.177322 3.69025,-8.133702 4.83278,-8.133702 0.63818,0 14.42087,6.628036 50.87807,24.467052 8.19642,4.01062 15.38971,7.74966 15.98508,8.30898 1.45994,1.37155 1.38405,3.29364 -0.26738,6.77223 -2.49486,5.25516 -7.40064,8.5497 -18.0116,12.09592 -10.41042,3.47921 -31.95572,8.38692 -41.36315,9.42194 -4.3725,0.48107 -7.64673,0.51253 -16.24056,0.15602 z"
     id="path3288"
     transform="scale(0.74999998)" />
  <path
     style="fill:#ffffff;stroke-width:0.473632"
     d="m 163.61192,215.29855 c -0.89934,-0.6628 -0.88126,-0.78926 0.82977,-5.80199 2.23054,-6.5347 2.44591,-7.71029 1.83094,-9.99411 -0.76577,-2.84384 -3.95801,-5.45695 -13.75455,-11.25921 -10.47528,-6.20427 -14.8446,-10.04715 -16.49987,-14.51186 -3.53286,-9.52909 -1.99981,-16.999 4.91427,-23.94505 4.82266,-4.84497 8.1676,-6.36395 14.64873,-6.6522 5.99379,-0.26657 9.2588,0.58262 13.29269,3.45727 3.392,2.41722 6.36988,5.58125 6.36988,6.76807 0,0.9354 -3.73025,4.83356 -4.62537,4.83356 -0.31,0 -2.27407,-1.47562 -4.36459,-3.27916 -4.36892,-3.76915 -6.06716,-4.47661 -10.12057,-4.21606 -7.37414,0.47401 -13.26503,6.43479 -13.25832,13.41562 0.005,5.58414 3.28608,9.70214 14.92392,18.73273 8.27541,6.42145 12.38965,10.53172 13.94711,13.93366 1.06674,2.33007 1.2032,3.17635 1.05871,6.56571 -0.13804,3.23822 -0.42663,4.42035 -1.72045,7.04741 -2.38181,4.83618 -5.12388,6.63636 -7.4723,4.90561 z"
     id="path3290"
     transform="scale(0.74999998)" />
  <path
     style="fill:#ffffff;stroke-width:0.473632"
     d="m 156.91394,178.13385 c -1.11618,-0.80856 -2.19808,-2.1305 -2.63277,-3.21688 -1.75606,-4.38884 -1.4276,-17.27855 0.48915,-19.1953 0.87088,-0.87088 1.02545,-0.88343 2.36274,-0.19189 1.87582,0.97002 2.37597,2.54491 3.01545,9.49516 0.67868,7.37639 0.19403,14.48153 -0.98782,14.48153 -0.19354,0 -1.20458,-0.61768 -2.24675,-1.37262 z"
     id="path3292"
     transform="scale(0.74999998)" />
  <path
     style="fill:#ffffff;stroke-width:0.473632"
     d="m 164.37433,182.50812 c -1.58848,-2.01943 -1.63486,-3.13206 -0.24492,-5.87498 0.78778,-1.5546 1.36665,-3.61009 1.5167,-5.38559 0.3052,-3.61139 1.21225,-5.11269 5.47962,-9.06959 4.00636,-3.71487 5.19585,-4.38565 6.24015,-3.51897 1.25554,1.04201 2.24516,5.55262 2.27656,10.37647 0.0423,6.4994 -0.35856,7.10225 -8.33606,12.53579 -3.78963,2.58115 -5.46097,2.80703 -6.93205,0.93687 z"
     id="path3294"
     transform="scale(0.74999998)" />
  <path
     style="fill:#ffffff;stroke-width:0.473632"
     d="m 156.37644,211.43345 c -2.78818,-2.38659 -3.39428,-3.79384 -3.38814,-7.86665 0.008,-5.23424 0.40155,-6.97476 1.6483,-7.28767 1.58952,-0.39895 4.43463,0.98201 4.98034,2.41735 0.91674,2.4112 0.3271,12.8763 -0.78834,13.99174 -0.29071,0.29071 -1.17561,-0.16209 -2.45216,-1.25477 z"
     id="path3296"
     transform="scale(0.74999998)" />
  <path
     style="fill:#ffffff;stroke-width:0.473632"
     d="m 151.61181,238.88328 c -3.00306,-1.49648 -4.99636,-4.04784 -5.69025,-7.28333 -0.67752,-3.1592 0.0561,-6.94427 1.6511,-8.51865 1.1551,-1.14018 1.22504,-1.15155 1.85761,-0.30212 0.48754,0.65467 0.59431,1.87804 0.41337,4.73631 -0.20754,3.27851 -0.10584,4.07139 0.68139,5.31247 1.74497,2.75099 6.50507,3.91132 9.56157,2.33075 1.65792,-0.85735 3.54827,-3.29428 3.98501,-5.13725 0.7718,-3.25682 -2.70671,-6.91032 -8.87017,-9.31639 -3.80869,-1.48682 -7.94092,-4.25093 -10.73618,-7.1816 -3.58202,-3.75553 -4.03681,-4.98031 -4.01368,-10.80904 0.0229,-5.7734 0.55934,-7.37636 3.5567,-10.62812 2.34434,-2.5433 4.30212,-2.87457 6.38751,-1.08079 l 1.25459,1.07915 -1.95165,2.35468 c -1.07341,1.29507 -2.26549,3.40575 -2.64907,4.6904 -1.91452,6.41188 0.23983,9.79777 11.61701,18.25785 4.88037,3.62905 6.9842,5.54635 7.80652,7.11439 0.95133,1.81402 1.34792,6.18869 0.75924,8.37489 -0.58845,2.18534 -3.81828,5.48145 -6.44781,6.58013 -2.60779,1.08961 -6.29812,0.85879 -9.17281,-0.57373 z"
     id="path3298"
     transform="scale(0.74999998)" />
  <path
     style="fill:#ffffff;stroke-width:0.473632"
     d="m 154.46909,231.25075 c -0.92345,-1.73226 -0.8204,-4.50541 0.20554,-5.53135 1.03914,-1.03914 1.79946,-0.93391 3.48207,0.48191 1.71081,1.43955 1.85803,2.87286 0.47559,4.63034 -1.16319,1.47876 -3.47429,1.71141 -4.1632,0.4191 z"
     id="path3300"
     transform="scale(0.74999998)" />
  <path
     style="fill:#ffffff;stroke-width:0.473632"
     d="m 154.04876,247.13139 c -1.45859,-0.70345 -1.3758,-2.16784 0.14412,-2.54932 1.53378,-0.38496 4.34072,0.0592 5.27512,0.83466 0.62964,0.52255 0.58932,0.69814 -0.33154,1.44381 -1.16047,0.93969 -3.44833,1.06149 -5.0877,0.27085 z"
     id="path3302"
     transform="scale(0.74999998)" />
</svg>
