<svg xmlns="http://www.w3.org/2000/svg" width="317" height="317" version="1.0" viewBox="0 0 238 238"><path d="M62 61 4 119l58 57 58 58 58-58 58-58-58-57-58-58-58 58zm58-7c2 2 0 5-2 5s-3-1-3-2c-1-2 1-4 2-4l3 1zm-17 5 3 5c0 2 1 4 3 5 2 2 2 4 3 18l-1 16c-3 2-16 1-31-2-18-5-26-8-29-13l-1-5 21-11 25-12c6-3 5-3 7-1zm48 6 25 13c9 4 9 4 9 7-2 7-8 10-30 16l-23 3-8-1V87c0-15 0-16 2-18 2-1 3-3 3-5l5-7 16 8zm-31-2v40h-2l-3-1V61h3l2 2zm5 45 5 4c2 3 2 3 1 5-3 3-3 2-7-1l-6-3c-4 0-9 4-10 8-2 5 1 8 10 16 10 7 12 10 12 15 0 6-4 12-7 10v-4c3-9 3-10-8-16-10-6-12-8-14-14-2-7 1-15 9-19 3-2 11-3 15-1zm-6 9c2 1 2 17 1 18l-3-2c-2-1-2-3-2-8 0-8 1-10 4-8zm16 10c0 5 0 5-5 8-4 4-5 4-6 2-2-1-2-2-1-5l1-5c0-1 1-3 4-5 4-4 4-4 6-2l1 7zm-22 16c1 1 1 1-1 3l-2 6c0 4 2 6 11 12 4 3 5 4 5 8 0 3 0 4-3 6-5 5-14 2-14-6l1-5c2-1 3 0 2 4-1 5 6 8 10 4 3-3 1-7-5-9l-9-5c-3-3-3-5-3-9l2-7c2-3 4-3 6-2zm7 5c1 2 0 12-1 12l-3-2c-2-2-2-4-1-10 0-2 4-1 5 0zm0 23c0 2-2 4-4 3v-5c2-1 4 1 4 2zm0 13-2 2c-2 0-4-1-3-2h5z"/><path d="M131 138c-17-2-39-7-50-12-8-3-12-7-14-13l2-4 66-32c2 0 6 6 6 9l3 7c3 2 3 4 4 12v30c0 2 0 2-2 3h-15zm23-1-1-30 1-26 2 1h3l1 1v48l-1 6h-5zm2-59c-3 0-4-2-2-5 1-2 3-3 5-1s2 4 0 5c-1 1-2 2-3 1zm13 60h-4v-11a899 899 0 0 1 4-34l4-8c1-4 4-8 5-8a1378 1378 0 0 1 67 33c1 1 1 3-1 6-2 6-7 9-18 12-10 4-32 9-41 10h-16zm-5 77v-6c3-6 3-7 2-9 0-3-4-6-13-12-11-6-15-10-17-14-4-10-2-17 5-24 5-5 8-7 15-7 6 0 9 1 13 4l6 6-4 5-5-3c-4-4-6-5-10-4-7 0-13 6-13 13 0 6 3 10 15 19 8 6 12 10 14 14l1 6c0 4-1 5-2 7-2 5-5 7-7 5z" style="fill:#fff;stroke-width:.473632" transform="scale(.75)"/><path d="m157 178-3-3c-1-4-1-17 1-19h2c2 0 3 2 3 9 1 7 0 15-1 15l-2-2zm7 5v-6l2-6c0-3 1-5 5-9s5-4 6-3c2 1 3 5 3 10 0 7-1 7-9 13-3 2-5 2-7 1zm-8 28c-2-2-3-3-3-7 0-6 0-7 2-8 1 0 4 1 5 3s0 13-1 14l-3-2z" style="fill:#fff;stroke-width:.473632" transform="scale(.75)"/><path d="M152 239c-3-2-5-4-6-7-1-4 0-7 2-9h1l1 5 1 5c1 3 6 4 9 2 2-1 4-3 4-5 1-3-3-7-9-9l-11-7c-3-4-4-5-4-11s1-8 4-11c2-2 4-3 6-1l2 1-2 2-3 5c-2 7 0 10 12 18 5 4 7 6 7 8 1 1 2 6 1 8 0 2-4 5-6 6-3 2-7 1-9 0z" style="fill:#fff;stroke-width:.473632" transform="scale(.75)"/><path d="m154 231 1-5h3c2 2 2 3 1 5-2 1-4 2-5 0zm0 16v-2h5v2h-5z" style="fill:#fff;stroke-width:.473632" transform="scale(.75)"/></svg>