<svg xmlns="http://www.w3.org/2000/svg" width="400" height="400" version="1.0" viewBox="0 0 300 300"><path d="M28 28v245h245V28H28zm125 33c3 2 2 4 0 6-4 4-10-1-7-6 2-2 5-3 7 0zm-24 7c2 1 3 5 4 9 1 6 2 7 5 7l3 1v49h-13c-13 0-14 0-34-5-16-4-24-6-30-9-9-4-9-4-12-10l-2-6 29-16 38-18 10-5 2 3zm91 20 30 15-1 6c-2 6-3 6-11 11-8 3-13 5-30 9-20 5-22 5-35 5h-14V86l4-1c3-1 3-2 4-7 1-3 2-7 4-9l2-4 9 4 38 19zm-65 14v31h-9V71h7c2-3 2 3 2 31zm7 40 8 6 2 3-3 4c-3 2-4 3-5 2-1-3-5-6-8-8-7-3-15 0-19 7-4 9-2 15 11 25l13 10c10 8 11 20 2 28-2 3-3 3-4 2-3-2-2-6 0-9 3-3 3-10 0-13l-12-8c-16-9-22-16-22-28 0-9 7-19 15-22 6-3 16-2 22 0zm-9 12c2 1 2 2 2 14 0 15 0 15-6 10l-3-3v-10l1-11h6zm22 6c2 5 2 16-1 18l-3 2-5 3c-3 3-5 4-7 2s-2-7 1-10v-5c0-3 0-4 5-9l7-5 3 4zm-32 32c4 2 4 3 1 4s-5 6-5 10 4 9 13 15 11 9 11 14c0 8-5 13-13 13-10 0-16-12-11-20h4v4c-1 4 0 7 3 9 3 3 7 2 9-1 5-4 3-11-4-13-7-1-15-7-18-13-2-5-2-8-1-13 1-4 7-11 8-11l3 2zm10 7c2 1 2 2 2 10l-1 9-8-5v-7c0-8 2-10 7-7zm0 33c4 4-1 9-5 7-2-1-3-8-1-8 3-1 5-1 6 1zm2 22c0 2-1 2-4 2s-4 0-5-2c0-3 0-3 4-3 4 1 5 1 5 3z"/><path d="m148 177-53-13-20-10-7-12v-4c3-3 22-12 59-31l42-20 2 1c2 2 4 8 6 15l3 8 4 2 3 1 1 3v61h-17l-23-1zm49-87c-2-1-3-4-1-8 1-3 6-4 9 0s-2 11-8 8zm-2 46V95h9l1-1 1 44-1 38-5 1h-5zm18 18v-40h2c3-1 6-2 6-4l2-6 6-15 2-2 10 5 79 39 14 6-1 3c-1 5-4 11-6 13-3 3-16 9-24 12l-43 10c-11 3-19 4-34 4h-13v-25zm-2 140c-2-3-2-5 1-10s3-5 3-10c0-7-1-9-7-13l-13-8c-14-8-21-13-25-21-2-5-3-9-3-16 1-8 4-15 11-22 6-6 12-8 21-8 12 0 21 4 28 12l2 4-4 4-5 4-2-3c-5-8-14-11-22-9-9 2-16 11-16 20 0 8 4 13 22 26 13 10 16 14 19 19 2 3 4 9 4 13 0 5-3 12-8 17-3 2-4 2-6 1z" style="fill:#fff;stroke-width:.597015" transform="scale(.75)"/><path d="m199 237-4-4v-13l1-14c0-2 2-2 6-1s4 1 4 18c0 15 0 18-2 18l-5-4zm13 9c-2-2-2-6 0-11l2-8 1-5c1-2 12-13 14-13 3-1 5 4 5 13 1 7 0 13-2 15l-4 3-6 3c-6 5-7 5-10 3zm-17 84c-4-1-8-5-10-9-3-6-2-14 2-17 1-1 1-1 3 1v4c-1 6 0 9 5 13 6 5 16 0 16-9 0-5-3-8-11-11-6-2-11-4-16-9-7-6-10-14-9-21 1-5 4-11 8-15l3-3 4 2 4 3-2 2c-4 3-7 8-7 13 0 4 1 5 3 8 2 4 6 7 15 14 12 8 14 11 14 18s-3 12-9 15c-4 2-9 2-13 1z" style="fill:#fff;stroke-width:.597015" transform="scale(.75)"/><path d="M200 288c-6-4-6-4-5-12 0-10 2-13 7-11 4 2 4 2 4 11s-1 14-2 14l-4-2zm-3 30-2-8c1-2 4-3 6-3l5 5c0 2-1 5-3 6h-6zm-1 22-1-3 4-1c5-1 6 0 7 2 0 3-1 3-5 3l-5-1z" style="fill:#fff;stroke-width:.597015" transform="scale(.75)"/></svg>