<svg xmlns="http://www.w3.org/2000/svg" width="400" height="400" version="1.0" viewBox="0 0 300 300"><path d="M28.4 27.9c-.2.2-.4 55.5-.4 122.8V273l122.3-.2 122.2-.3V27.7l-121.8-.1c-67-.1-122.1.1-122.3.3zm125 32.7c2.1 2.1 2 4.7-.3 6.8-4.1 3.7-9.7-1.4-6.6-6 1.8-2.8 4.6-3.1 6.9-.8zm-24 7.1c1.1 1.5 2.8 5.6 3.6 9.2 1.4 6 1.8 6.6 4.8 7.5l3.2.9.2 21.3c.1 11.8.2 22.6.2 24.1l.1 2.8-13.2.3c-12.9.2-14 .1-34.5-4.7-16-3.7-23.5-6-30.1-9.1-8.6-4.1-9-4.4-11.3-9.6-1.3-3-2.4-6-2.4-6.8 0-.7 13.2-7.6 29.3-15.4 16-7.8 33.3-16.2 38.2-18.6 5-2.5 9.2-4.5 9.4-4.5.2-.1 1.3 1.1 2.5 2.6zm91 20.2c15.9 7.7 29.3 14.4 29.8 14.9.4.4-.2 3.4-1.5 6.6-2.2 5.7-2.3 5.8-11.1 10.3-7.4 3.7-12.8 5.4-30 9.4-19.8 4.6-21.9 4.9-34.9 4.9H159l.2-24.2.3-24.2 3.2-.9c2.9-.9 3.3-1.5 4.4-6.6.6-3.1 2.2-7.3 3.5-9.3l2.4-3.7 9.2 4.4c5.1 2.3 22.3 10.6 38.2 18.4zm-65.6 14.2-.3 30.4-4.2.3-4.3.3V70.8l2.9.7c1.8.4 3.2.2 3.6-.5 2-3.3 2.5 3.1 2.3 31.1zm6.9 39.4c2.8 1.5 6.4 4.2 7.8 6.2l2.8 3.5-3.8 3.7c-2.3 2.2-3.9 3.1-4.2 2.4-1.1-2.8-4.9-6.6-7.9-7.9-7.6-3.2-15.9-.1-19.4 7.1-4.2 8.8-1.6 14.4 11.2 24.1 5.1 3.8 11 8.4 13.1 10.3 9.5 8.5 10.3 20.6 1.9 28.5-2.6 2.4-3.4 2.7-4.7 1.6-2.1-1.7-1.9-5.7.5-8.7 2.6-3.4 2.7-10.2.1-13.4-1-1.3-6.5-4.9-12.1-7.9-16.2-8.7-22-16.1-22-27.9 0-8.7 6.9-19 15-22.5 5.7-2.5 15.7-2 21.7.9zm-8.6 12.5c1.7 1 1.9 2.2 1.9 14 0 14.5-.3 15-5.7 9.8l-3.3-3.2v-10.1c0-5.6.3-10.5.7-10.8 1-1 4.2-.8 6.4.3zm22 5.7c1.8 5.4 1.4 16.1-.7 18.4-1 1.1-2.4 1.9-3.2 1.9-.8 0-3 1.3-4.9 3-3.8 3.4-5.5 3.7-7.7 1.5-1.8-1.8-1.2-7 1-9.6.9-1 1.2-2.7.8-4.8-.6-2.9-.2-3.8 4.7-8.7 2.9-3 6.1-5.4 7-5.4 1.1 0 2.2 1.4 3 3.7zm-31.8 32.2c3.2 1.7 3.4 2.7.7 4.1-2.6 1.4-5 6.1-5 9.8 0 4.7 3.9 9.3 12.9 15.2 9.1 6.1 11 8.6 11.1 14.3 0 7.8-5.3 13-13.4 12.9-9.6-.2-15.8-12.2-10.1-19.8 1.3-1.7 1.5-1.8 3-.3 1.2 1.2 1.4 2.1.6 4.2-1.3 3.3-.1 6.9 3.1 9.1 3.2 2.3 6.5 2 9.3-.9 4.7-4.6 2.3-11.7-4.2-13-7.3-1.5-15.7-7.9-18.4-13.9-2.1-4.7-2.3-7.6-.8-12.9 1-3.6 6.5-11.1 7.8-10.5.3.2 1.8 1 3.4 1.7zm9.8 7.2c1.8.9 2 1.9 1.7 10-.2 4.9-.7 8.9-1.1 8.9-.7 0-5-2.6-7.6-4.7-.2-.1-.3-3.3-.2-7 .3-8.1 2.1-10 7.2-7.2zm.3 32.8c3.4 3.7-1 9.4-5.4 7.1-2.3-1.2-2.8-7.5-.7-8.3 2.5-1.1 4.4-.7 6.1 1.2zm1.1 22.1c0 2.2-.4 2.5-4 2.5s-4-.3-4.3-2.7c-.3-2.5-.1-2.6 4-2.5 3.9.2 4.3.4 4.3 2.7z"/><path d="M147.761 176.737c-13.703-2.468-43.322-9.782-52.381-12.935-7.751-2.698-17.86-7.574-20.493-9.886-2.284-2.005-4.327-5.621-6.624-11.724-1.37-3.639-1.388-3.859-.373-4.608 3.056-2.258 22.037-11.865 59.545-30.138l41.704-20.317 1.426 1.34c2.162 2.03 4.73 7.82 6.664 15.024.957 3.563 2.149 6.887 2.648 7.386.5.5 2.344 1.394 4.098 1.986l3.19 1.076.382 3.477c.21 1.913.412 16.306.448 31.985l.065 28.507-17.164-.048c-13.763-.04-18.348-.262-23.135-1.124zM197.478 90.437c-2.928-1.632-3.663-4.748-1.917-8.124 1.896-3.666 6.597-4.013 9.219-.68 3.657 4.65-2.164 11.668-7.302 8.804zM195.224 136.018V94.903l1.642.429c2.781.727 6.14.526 6.714-.403.294-.475.725-.673.959-.44 1.116 1.116 1.363 8.886 1.396 43.888.028 29.725-.124 37.83-.711 38.016-.41.13-2.828.35-5.373.488l-4.627.253zM212.54 153.88c0-13.544.176-28.026.387-32.181l.386-7.556 1.75-.35c2.961-.592 5.635-2.139 6.329-3.661.364-.8 1.214-3.675 1.889-6.39 1.284-5.166 3.695-10.867 6.079-14.375l1.406-2.07 10.14 4.764c15.792 7.421 64.193 30.926 79.18 38.453l13.52 6.79-.555 2.542c-1.194 5.455-3.663 10.882-5.96 13.098-2.764 2.666-15.977 9.274-23.637 11.82-6.284 2.09-30.278 8.03-43.246 10.708-11.525 2.38-19.008 3.034-34.686 3.035h-12.985l.002-24.626zM211.112 293.805c-2.095-2.314-1.867-4.777.919-9.924 2.469-4.564 2.584-5.002 2.587-9.851.004-7.048-.913-8.704-7.08-12.786-2.668-1.766-8.478-5.283-12.911-7.816-13.992-7.995-20.717-13.895-24.35-21.363-2.502-5.143-3.318-9.438-2.987-15.715.438-8.304 3.934-15.457 10.965-22.432 5.806-5.76 12.03-8.246 20.637-8.246 11.72 0 21.155 4.3 27.693 12.622l2.664 3.39-4.25 3.934c-2.337 2.164-4.552 3.924-4.922 3.912-.37-.012-1.433-1.219-2.36-2.683-4.687-7.396-13.88-11.095-22.195-8.93-9.003 2.344-15.383 10.616-15.42 19.993-.032 7.855 4.015 12.804 21.667 26.496 12.823 9.946 16.69 13.577 19.549 18.36 2.169 3.629 3.757 9.081 3.757 12.9 0 5.57-3.463 12.676-8.31 17.055-2.727 2.463-4.157 2.738-5.653 1.084z" style="fill:#fff;stroke-width:.597015" transform="scale(.75)"/><path d="m199.345 236.618-4.121-3.978.008-12.589c.004-6.923.164-13.17.355-13.881.456-1.7 2.57-2.171 5.939-1.323 4.645 1.17 4.743 1.54 4.743 18.112 0 14.943-.285 17.638-1.861 17.638-.518 0-2.797-1.79-5.063-3.979zM212.463 246.077c-2.752-2.458-2.742-6.26.03-11.547 1.778-3.392 1.943-4.126 1.653-7.328-.217-2.39-.059-4.07.482-5.115 1.067-2.063 12.403-12.914 14.031-13.431 3.09-.98 5.273 4.1 5.772 13.434.376 7.027-.416 12.64-2.108 14.925-.607.82-2.42 1.982-4.027 2.581-1.608.599-4.35 2.21-6.094 3.582-6.401 5.033-7.114 5.246-9.74 2.9zM195.17 329.855c-3.76-1.207-7.89-5.012-9.913-9.13-2.826-5.756-1.936-13.655 1.898-16.837.84-.697 1.187-.593 2.535.754 1.531 1.532 1.546 1.624.776 4.835-1.347 5.613-.243 8.817 4.304 12.497 6.334 5.127 15.976-.026 15.976-8.537 0-5.654-2.736-8.463-10.707-10.991-6.253-1.984-11.009-4.835-16.142-9.677-6.624-6.25-9.556-13.44-8.412-20.628.742-4.668 3.968-11.195 7.564-15.305l2.696-3.083 4.142 2.086c2.279 1.148 4.143 2.468 4.143 2.935 0 .467-1.137 1.612-2.526 2.545-3.818 2.564-6.13 7.476-6.13 13.019 0 3.92.18 4.544 2.181 7.56 2.56 3.856 5.948 6.824 15.729 13.781 11.504 8.184 13.526 10.943 13.502 18.43-.021 6.789-2.967 11.758-8.604 14.512-3.936 1.923-9.285 2.43-13.012 1.234z" style="fill:#fff;stroke-width:.597015" transform="scale(.75)"/><path d="M200 287.536c-5.735-3.78-5.612-3.509-5.189-11.4.554-10.336 2.289-13.234 6.795-11.35 4.318 1.803 4.37 1.937 4.312 10.978-.059 9.082-.55 13.908-1.44 14.16-.329.094-2.344-.98-4.478-2.388zM196.738 317.636c-1.165-1.287-1.873-5.679-1.29-8.002.461-1.836 3.667-3.08 5.81-2.253 1.744.674 3.84 2.91 4.371 4.665.507 1.674-1 5.283-2.554 6.115-1.951 1.044-5.157.778-6.337-.525zM195.805 340.269c-.36-.673-.571-1.95-.469-2.836.176-1.526.376-1.622 3.744-1.795 4.743-.244 6.084.162 6.54 1.981.745 2.968-.43 3.874-5.023 3.874-3.56 0-4.229-.171-4.792-1.224z" style="fill:#fff;stroke-width:.597015" transform="scale(.75)"/></svg>