<svg xmlns="http://www.w3.org/2000/svg" width="317.333" height="317.333" version="1.0" viewBox="0 0 238 238"><path d="M61.7 60.8 4 118.5l57.8 57.8 57.7 57.7 58-58 58-58L178 60.5C146.4 28.9 120.3 3 120 3c-.3 0-26.5 26-58.3 57.8zm58.2-6.4c1.6 2 .3 4.6-2.4 4.6-1.3 0-2.6-.7-2.9-1.6-.7-1.9 1-4.4 2.9-4.4.7 0 1.8.6 2.4 1.4zm-16.6 4.4c.9 1 2 3.4 2.3 5.3.3 1.9 1.6 4.3 2.9 5.4 2.1 1.9 2.3 3.1 3 17.4.5 12.3.4 15.6-.7 16.2-3 1.9-15.9.9-30.7-2.6-18.3-4.2-26.6-8-28.7-13-.8-1.9-1.4-3.9-1.4-4.4 0-.6 9.3-5.6 20.8-11.1C82.2 66.5 93.5 60.9 96 59.6c5.6-3 5.4-2.9 7.3-.8zm47.2 6.6c8.8 4.3 20.2 9.8 25.3 12.3 9 4.3 9.3 4.6 8.7 7.1-1.8 7.5-7.8 10.7-29.8 15.8-12 2.7-16.8 3.4-23.1 3.2l-8-.3.3-16c.2-15.3.3-16.1 2.6-18 1.2-1.1 2.6-3.5 2.9-5.4.6-3.3 3.3-7.5 4.5-6.8.3.1 7.8 3.8 16.6 8.1zm-30.1-2.7c-.1.7-.2 10.1-.2 20.8L120 103h-2.4c-1.3 0-2.6-.4-2.8-1-.1-.5-.2-10 0-21.1l.3-20 2.7.3c1.5.2 2.7.9 2.6 1.5zm4.4 45.7c1.5.8 3.8 2.6 5.1 4 2.4 2.5 2.4 2.6.6 4.6-2.4 2.6-2.8 2.5-6.3-1-2.2-2.2-4-3-6.5-3-4.2 0-9.2 3.7-10.1 7.6-1.4 5.3 1 8.8 10.5 16.1 9.5 7.1 11.9 10.2 11.9 15.3 0 5.6-4.3 11.7-7 10-1.3-.8-1.3-1.4-.1-4.2 3.5-8.7 2.8-10-8.4-16.3-9.4-5.3-12-7.8-13.5-13.6-2-7.4 1.2-14.6 8.5-19 3.6-2.3 11.4-2.5 15.3-.5zm-5.9 8.5c1.6 1 2.3 16.9.8 17.8-.5.3-1.8-.4-2.9-1.5-1.7-1.6-2.1-3.4-2.1-8.4-.1-8.2.9-10 4.2-7.9zm16.1 9.7c0 5.1-.1 5.3-5 8.8-4.4 3.2-5.1 3.4-6.5 2-1.8-1.9-1.9-2.9-.3-5.7.7-1.2 1.1-3.1.9-4.3-.1-1.4 1.2-3.4 4-5.9 4-3.6 4.3-3.7 5.6-2 .7 1.1 1.3 4.2 1.3 7.1zM113 143c1.2.8 1.1 1.3-.8 3.3-1.4 1.4-2.2 3.6-2.2 5.7 0 3.5 2 5.7 11 12.3 3.9 2.8 4.5 3.8 4.8 7.3.2 3.2-.2 4.4-2.3 6.4-5.6 5.2-14.5 1.5-14.5-6.1 0-2 .6-4.2 1.4-4.8 1.9-1.6 2.8.1 2 3.4-1.3 5.3 5.4 8.6 9.1 4.5 3.1-3.4 1.1-7-5-9.2-2.8-1-6.4-3.3-8.2-5.3-2.8-2.9-3.3-4.2-3.3-8.4 0-3.4.6-5.6 2.1-7.5 2.2-2.8 3.5-3.1 5.9-1.6zm6.7 5.2c1 1.4.5 11.8-.6 11.8-.4 0-1.7-.9-2.9-2-1.9-1.8-2.2-3.7-1.3-10.3.2-1.2 3.8-.8 4.8.5zm.3 23.2c0 1.8-2.1 3.5-3.6 2.9-1.7-.6-1.8-5-.1-5.6 1.5-.5 3.7 1.1 3.7 2.7zm.1 13.1c0 .5-.7 1.2-1.6 1.3-2.3.5-4.7-.6-4-1.9.8-1.3 5.6-.8 5.6.6z"/><path d="M130.96 137.99c-16.585-1.966-39.18-7.38-49.978-11.975-8.208-3.493-11.905-7.15-13.661-13.511-.468-1.693-.448-1.73 1.744-3.144 3.292-2.125 64.912-32.632 65.911-32.632 1.774 0 5.693 6.375 5.693 9.26 0 1.282 1.964 4.896 3.79 6.969 2.216 2.518 2.73 4.342 3.323 11.8.718 9.023 1.114 28.825.615 30.702-.345 1.294-.8 1.781-2.072 2.223-1.505.521-11.82.728-15.366.308zM154.122 136.517c-1.027-.689-1.134-4.523-.825-29.637l.315-25.5 2.129.32c1.17.175 2.628.509 3.238.74l1.109.422v21.25c0 11.689-.14 23.843-.31 27.01l-.31 5.758-2.413-.007c-1.328-.004-2.648-.164-2.933-.356zM155.588 78.277c-2.346-.558-3.25-2.767-2.054-5.014 1.36-2.551 3.595-2.882 5.643-.834 1.657 1.657 1.77 3.307.319 4.636-1.227 1.123-2.553 1.534-3.908 1.212zM168.85 137.95l-3.79-.157.13-10.521c.072-5.787.31-15.007.53-20.49.421-10.48.685-11.727 2.906-13.714 1.741-1.56 3.074-4.039 4.41-8.206 1.34-4.177 3.69-8.134 4.833-8.134.638 0 14.421 6.628 50.878 24.467 8.197 4.011 15.39 7.75 15.985 8.31 1.46 1.37 1.384 3.293-.267 6.772-2.495 5.255-7.4 8.55-18.012 12.096-10.41 3.479-31.955 8.386-41.363 9.421-4.372.482-7.646.513-16.24.156zM163.612 215.299c-.9-.663-.881-.79.83-5.802 2.23-6.535 2.446-7.71 1.83-9.995-.765-2.843-3.957-5.456-13.754-11.259-10.475-6.204-14.845-10.047-16.5-14.512-3.533-9.529-2-16.999 4.914-23.945 4.823-4.845 8.168-6.364 14.65-6.652 5.993-.266 9.258.583 13.292 3.457 3.392 2.418 6.37 5.582 6.37 6.768 0 .936-3.73 4.834-4.626 4.834-.31 0-2.274-1.476-4.364-3.28-4.37-3.768-6.067-4.476-10.12-4.215-7.375.474-13.266 6.435-13.26 13.415.006 5.585 3.287 9.703 14.925 18.733 8.275 6.422 12.39 10.532 13.947 13.934 1.067 2.33 1.203 3.176 1.059 6.566-.138 3.238-.427 4.42-1.72 7.047-2.383 4.836-5.125 6.636-7.473 4.906z" style="fill:#fff;stroke-width:.473632" transform="scale(.75)"/><path d="M156.914 178.134c-1.116-.809-2.198-2.13-2.633-3.217-1.756-4.389-1.427-17.279.49-19.195.87-.871 1.025-.884 2.362-.192 1.876.97 2.376 2.545 3.016 9.495.678 7.376.194 14.481-.988 14.481-.194 0-1.205-.617-2.247-1.372zM164.374 182.508c-1.588-2.02-1.635-3.132-.245-5.875.788-1.554 1.367-3.61 1.517-5.385.305-3.612 1.212-5.113 5.48-9.07 4.006-3.715 5.196-4.386 6.24-3.519 1.255 1.042 2.245 5.553 2.276 10.376.043 6.5-.358 7.103-8.336 12.536-3.79 2.581-5.46 2.807-6.932.937zM156.376 211.433c-2.788-2.386-3.394-3.793-3.388-7.866.008-5.234.402-6.975 1.649-7.288 1.59-.399 4.434.982 4.98 2.417.917 2.412.327 12.877-.788 13.992-.291.29-1.176-.162-2.453-1.255z" style="fill:#fff;stroke-width:.473632" transform="scale(.75)"/><path d="M151.612 238.883c-3.003-1.496-4.997-4.048-5.69-7.283-.678-3.16.056-6.944 1.65-8.519 1.156-1.14 1.226-1.151 1.858-.302.488.655.595 1.878.414 4.736-.208 3.279-.106 4.072.681 5.313 1.745 2.75 6.505 3.911 9.562 2.33 1.658-.857 3.548-3.294 3.985-5.137.771-3.256-2.707-6.91-8.87-9.316-3.81-1.487-7.941-4.25-10.737-7.182-3.582-3.755-4.037-4.98-4.013-10.809.022-5.773.559-7.376 3.556-10.628 2.345-2.543 4.302-2.874 6.388-1.08l1.254 1.079-1.951 2.354c-1.074 1.295-2.266 3.406-2.65 4.69-1.914 6.413.24 9.799 11.618 18.259 4.88 3.629 6.984 5.546 7.806 7.114.952 1.814 1.348 6.189.76 8.375-.589 2.185-3.819 5.481-6.448 6.58-2.608 1.09-6.299.859-9.173-.574z" style="fill:#fff;stroke-width:.473632" transform="scale(.75)"/><path d="M154.47 231.25c-.924-1.732-.821-4.505.205-5.53 1.039-1.04 1.8-.935 3.482.481 1.71 1.44 1.858 2.873.475 4.63-1.163 1.48-3.474 1.712-4.163.42zM154.049 247.131c-1.459-.703-1.376-2.167.144-2.549 1.534-.385 4.34.06 5.275.835.63.522.59.698-.332 1.444-1.16.94-3.448 1.061-5.087.27z" style="fill:#fff;stroke-width:.473632" transform="scale(.75)"/></svg>