<?xml version="1.0" encoding="UTF-8" standalone="no"?>
<svg
   width="384"
   height="385"
   version="1.0"
   viewBox="0 0 288 289"
   id="svg305"
   sodipodi:docname="oblivion.svg"
   inkscape:version="1.2.2 (b0a8486541, 2022-12-01)"
   xmlns:inkscape="http://www.inkscape.org/namespaces/inkscape"
   xmlns:sodipodi="http://sodipodi.sourceforge.net/DTD/sodipodi-0.dtd"
   xmlns="http://www.w3.org/2000/svg"
   xmlns:svg="http://www.w3.org/2000/svg">
  <defs
     id="defs309" />
  <sodipodi:namedview
     id="namedview307"
     pagecolor="#ffffff"
     bordercolor="#666666"
     borderopacity="1.0"
     inkscape:showpageshadow="2"
     inkscape:pageopacity="0.0"
     inkscape:pagecheckerboard="0"
     inkscape:deskcolor="#d1d1d1"
     showgrid="false"
     inkscape:zoom="0.61298701"
     inkscape:cx="191.68432"
     inkscape:cy="193.31568"
     inkscape:window-width="1278"
     inkscape:window-height="1415"
     inkscape:window-x="1280"
     inkscape:window-y="23"
     inkscape:window-maximized="1"
     inkscape:current-layer="svg305" />
  <path
     d="M24 144v120h240V24H24v120z"
     id="path303"
     style="fill:#ffffff" />
  <path
     style="fill:#000000;stroke-width:0.136638"
     d="m 25.445286,235.59481 v -59.21069 c 0,-54.16671 0.01855,-59.21069 0.218462,-59.21069 0.326316,0 0.853513,-0.62561 2.396835,-2.84429 5.816073,-8.36118 12.898189,-16.188672 20.681505,-22.858242 8.978531,-7.69373 19.649423,-14.11984 30.33366,-18.26722 16.903521,-6.32817 29.272212,-7.09604 46.115362,-7.38517 15.63648,-0.3395 28.4446,6.62683 40.4674,9.0731 1.13303,0.21576 1.46995,0.096 1.62825,-0.22228 -0.90569,-8.40263 -8.60421,-14.28067 -15.38734,-17.55711 -23.19338,-11.20308 -50.36732,-14.19437 -73.370208,-7.28849 -28.09542,8.65195 -33.790892,13.55482 -52.994329,27.72464 -0.04923,0 -0.08957,-10.66155 -0.08957,-23.69232 v -23.69233 c 4.03669,-3.06997 6.337731,-4.25304 10.031349,-5.75944 l 34.786097,0.0258 c 19.188729,0.0145 34.854381,-2.1e-4 34.812571,0.0417 -3.24969,0.94118 -12.839225,4.41254 -12.295739,6.88442 1.519974,5.34478 17.969589,7.88407 22.300259,8.83251 15.357,3.36322 27.51969,8.33329 40.51321,15.49663 5.28642,2.91439 11.58864,7.46545 15.91742,11.47059 8.4856,7.85121 14.74121,16.59257 18.78016,26.24263 0.88306,2.10983 2.48266,6.823072 3.15339,9.291402 0.62857,2.31328 1.02328,2.7914 2.15293,2.60785 1.14231,-0.35769 1.528,-1.01275 2.349,-1.94115 4.43422,-5.791772 2.2079,-14.287122 2.44762,-18.510572 4.50676,5.84315 7.69793,12.32062 9.10252,20.644872 2.54014,15.05415 2.87319,32.11686 -1.45521,44.61235 -0.50491,1.45112 -0.21997,2.37805 0.49587,1.61312 0.81463,-0.87049 2.53224,-3.85864 4.09819,-7.12966 4.74701,-9.91587 7.11353,-20.57548 7.10749,-32.01489 -0.004,-5.73464 -0.22271,-8.47571 -1.16989,-14.596032 -0.69177,-4.47006 -2.37451,-10.64661 -3.94593,-14.48365 -4.70176,-10.2019 -9.34774,-18.97462 -15.71377,-26.17397 -8.4669,-9.5752 -16.05551,-15.5285 -25.76202,-21.37041 -9.86451,-5.16097 -19.73503,-9.13082 -29.91169,-11.49403 -0.0316,-0.0317 7.11593,-0.0576 15.88355,-0.0576 9.65316,0 14.7661,0.008 15.9589,0.0193 5.1068,3.937 8.38176,6.98172 12.40779,10.6944 3.22489,3.07166 6.3141,6.2683 9.28258,9.58363 10.24977,12.38997 19.72961,29.18261 25.0769,43.9068 4.08391,11.709542 5.81201,24.310042 7.11752,34.380262 0.31412,2.423 0.34134,10.80769 3.02992,10.63846 1.16264,-0.0901 1.62385,-0.29109 2.25037,-0.98104 5.83119,-7.50953 7.28513,-17.66486 7.29148,-25.71241 0,-6.35784 -0.16858,-8.631362 -1.23106,-16.601532 -2.09174,-14.7669 -6.65305,-26.46714 -13.51512,-39.27592 -3.2209,-6.0121 -7.60611,-11.49628 -11.53538,-15.81026 -3.53061,-3.87627 -7.40332,-7.71014 -11.15729,-10.83436 4.3041,-0.004 8.6082,-0.005 12.9123,-0.008 3.82796,5.87778 7.41072,11.66105 10.46167,16.53321 1.14628,1.83053 2.22919,5.03465 3.52774,4.919 4.73663,-0.4218 2.65311,-13.70612 1.65173,-18.10167 -0.17925,-0.78683 -0.57686,-2.64284 -0.92563,-3.34225 0,0 0.38928,-0.008 8.8206,-0.008 l 8.91563,5.6e-4 c 6.88532,8.66587 11.51049,19.46261 14.96213,28.13903 l -8.8e-4,59.065222 -8.8e-4,59.06521 -0.38788,0.22062 c -0.21746,0.12362 -1.12726,1.26433 -2.07073,2.59612 -14.25408,20.12115 -32.51182,34.44161 -53.75203,42.16046 -10.24326,3.27344 -21.22703,5.89431 -31.57763,6.42643 -14.42269,0.60875 -30.40796,-1.96743 -42.76551,-6.65737 -6.34738,-2.47277 -11.09591,-2.76655 -11.47528,-0.68041 0.74451,4.43381 4.26016,8.61198 8.09863,10.86274 19.18254,11.24848 51.51097,21.36933 81.25782,12.31642 19.55102,-5.95 40.5699,-14.1836 52.66536,-27.8928 l 0.005,23.75175 0.005,23.75171 c -1.84561,1.32283 -3.80815,2.35981 -4.6042,2.90405 -2.11726,1.4475 -2.89215,1.74475 -5.36278,2.93687 -1.87113,0 -14.22593,-0.0203 -34.26531,-0.008 -19.56665,0.0129 -30.87188,0.008 -34.14494,0.008 1.54261,-0.50166 3.02766,-0.91762 4.36195,-1.61039 6.39856,-3.32249 8.16982,-7.08836 3.03136,-9.11647 -9.48324,-3.74295 -20.10787,-5.25001 -28.55737,-7.55893 -8.32819,-2.30527 -17.15838,-5.70034 -24.25326,-9.43649 -5.76858,-2.962 -11.63694,-6.36628 -16.32825,-9.90253 -9.95635,-7.57339 -17.53974,-16.50469 -22.74367,-26.78726 -2.122826,-4.19457 -3.183539,-6.97048 -5.268247,-13.78724 -0.203983,-1.09278 -1.356279,-3.31867 -2.402171,-2.3302 -4.797837,4.73774 -5.041563,12.0697 -4.221403,18.03037 0.493808,3.18061 0.289483,3.62102 -0.865504,1.86554 -8.315172,-13.79933 -11.618845,-31.75712 -10.883148,-45.45311 0.01134,-6.31768 1.456074,-12.77213 3.136006,-17.44719 0.95626,-2.66112 1.373307,-3.514 0.949676,-4.08233 -0.213882,-0.28694 -0.350105,-0.16618 -0.857443,0.45308 -1.279596,1.56187 -3.904739,6.54929 -5.609259,10.65681 -1.816551,4.37751 -3.349359,9.65001 -4.30031,14.79203 -1.072519,5.79944 -1.976949,13.09622 -1.06197,19.12936 3.500245,23.07988 6.559814,27.65956 12.112197,37.97783 5.208563,8.46197 12.214364,17.04033 19.161006,22.47819 8.47844,6.63698 14.9441,11.23307 23.40176,14.96869 6.43383,2.91437 12.50837,5.05914 18.71942,6.68134 0.70251,0.18348 1.4754,0.12378 2.06096,0.47457 0.0564,0.0564 -6.85169,0.0172 -15.3512,0.0172 -15.25466,0 -11.7344,-0.0129 -15.47513,-0.0129 -36.266696,-34.73968 -42.909311,-47.57248 -49.475868,-72.20041 -2.859824,-11.29025 -4.03233,-23.6881 -5.983812,-33.32975 -0.314563,-1.55418 -1.76828,-2.97659 -3.160321,-1.9913 -2.425678,2.0436 -3.902005,4.827 -4.724996,7.47051 -6.955078,22.34069 -0.976382,50.22849 9.820422,69.73377 5.790298,11.39539 15.266927,22.21592 23.514321,29.72065 0.08668,0.0782 0.309649,0.2473 0.495462,0.37575 0.32084,0.22177 0.02013,0.23352 -5.977922,0.23352 -6.275676,2e-5 -6.315745,-0.002 -6.315745,-0.28007 -3.467394,-4.82467 -3.170694,-4.89391 -5.463744,-8.12317 -2.028613,-2.85687 -6.542154,-11.7169 -8.167284,-12.19761 -3.353975,4.81088 -3.617402,15.92471 -1.248759,20.60111 h -8.930022 l -8.932554,-0.0129 C 34.18096,258.02271 27.88692,241.79269 25.445286,235.59332 Z M 179.84638,217.00257 c 9.01887,-0.42666 20.50438,-4.28526 29.32359,-7.73493 8.88196,-4.16147 19.98699,-12.34042 26.9713,-20.75599 5.83478,-6.99378 10.4127,-15.82397 13.65649,-22.62662 0.4687,-1.07843 1.02207,-3.50547 0.16353,-2.75314 -12.9187,10.95892 -20.61908,23.98262 -33.44428,32.87616 -9.3635,6.49305 -20.82222,12.17732 -30.35323,15.52971 -7.71808,2.23941 -13.88294,3.43329 -21.5525,3.68082 -1.8385,0.0594 -2.30106,0.0623 -2.35835,0.29699 -0.22442,0.91942 3.16001,1.08071 3.5881,1.14478 2.67283,0.40001 10.49642,0.59061 14.00541,0.34236 z m 51.61373,-39.02851 c 10.77832,-9.87172 17.51621,-25.92477 21.15113,-39.32111 0.2228,-1.10138 -0.20371,-1.92928 -1.19651,-2.33309 -1.51419,-0.0831 -1.54682,-0.0734 -2.26721,0.66613 -8.17529,10.99435 -15.06339,22.33111 -22.6923,31.22468 -5.78809,6.74759 -12.54865,12.20529 -20.13067,16.84988 -1.56553,0.95193 -1.95346,1.41408 -1.80596,2.1515 5.10463,4.48143 22.50811,-5.44003 26.94152,-9.23799 z M 41.205003,150.75289 C 54.380736,132.85 68.79131,115.36152 84.848702,101.67402 c 0.743153,-0.63346 0.534475,-1.26084 -0.01134,-1.62538 -0.180678,-0.120562 -0.458839,-0.258032 -0.705466,-0.209812 -22.210014,4.343162 -36.603016,23.416192 -46.277949,47.175532 -1.500643,5.44998 1.738568,5.79138 3.351601,3.73853 z m -1.412716,-24.98371 c 3.438454,-3.90274 6.735341,-8.03051 9.598777,-11.11054 11.172904,-11.94937 20.967726,-21.960922 35.082093,-29.868422 10.018813,-6.30248 21.825343,-9.2107 30.948333,-11.13318 3.56435,-0.75111 7.0356,-0.86539 10.57701,-1.10265 0.85589,-0.0573 1.35308,-0.153 1.48741,-0.2873 0.26259,-0.2626 0.17728,-0.51911 -0.88047,-0.70898 -6.67177,-1.19762 -14.04067,-1.13607 -20.47534,-0.36151 -8.048877,0.96889 -16.535286,3.11535 -23.244984,6.25692 -14.484243,6.78171 -24.292058,14.98126 -33.430344,27.434292 -4.755633,6.48065 -9.422187,13.67314 -10.739804,20.86967 -0.03745,0.44319 -0.02743,0.45238 0.417038,0.38336 0.257967,-0.0401 0.544277,-0.20119 0.660377,-0.37168 z"
     id="path847-4"
     sodipodi:nodetypes="cssssccccsccsccsccssssscccscsccscsccsccccsccccssccssscsccccccccccsscccscscsscccscccccsssssscscscsccscsccsscscccccccccsccssscccccscccccsssccccssssscssccccc" />
</svg>
