<?xml version="1.0" encoding="UTF-8" standalone="no"?>
<svg
   width="317"
   height="317"
   version="1.0"
   viewBox="0 0 238 238"
   id="svg1361"
   sodipodi:docname="oblivionsup.svg"
   inkscape:version="1.2.2 (b0a8486541, 2022-12-01)"
   xmlns:inkscape="http://www.inkscape.org/namespaces/inkscape"
   xmlns:sodipodi="http://sodipodi.sourceforge.net/DTD/sodipodi-0.dtd"
   xmlns="http://www.w3.org/2000/svg"
   xmlns:svg="http://www.w3.org/2000/svg">
  <defs
     id="defs1365" />
  <sodipodi:namedview
     id="namedview1363"
     pagecolor="#ffffff"
     bordercolor="#666666"
     borderopacity="1.0"
     inkscape:showpageshadow="2"
     inkscape:pageopacity="0.0"
     inkscape:pagecheckerboard="0"
     inkscape:deskcolor="#d1d1d1"
     showgrid="false"
     inkscape:zoom="1.052853"
     inkscape:cx="228.42695"
     inkscape:cy="175.71304"
     inkscape:window-width="1278"
     inkscape:window-height="706"
     inkscape:window-x="1280"
     inkscape:window-y="23"
     inkscape:window-maximized="1"
     inkscape:current-layer="svg1361" />
  <path
     d="M62 61 4 119l58 57 58 58 58-58 58-58-58-57-58-58-58 58z"
     id="path1359"
     style="fill:#ffffff" />
  <path
     style="fill:#000000;stroke-width:0.093009"
     d="M 106.94252,220.67637 78.44289,192.17675 C 52.371068,166.10492 49.952195,163.66819 50.048413,163.57196 c 0.157071,-0.15705 0.109702,-0.71193 -0.215369,-2.52268 -1.225025,-6.82386 -1.583789,-14.00026 -1.047711,-20.9568 0.618403,-8.02478 2.661527,-16.254 5.807886,-23.39285 C 59.683402,105.51761 65.26718,99.194653 73.23506,90.948443 80.59788,83.258792 90.11584,80.446996 97.080169,75.837559 97.729382,75.396057 97.833914,75.176251 97.756903,74.946856 93.276568,71.338391 86.741814,72.214626 81.899891,73.902491 65.34399,79.673726 50.82469,91.313463 43.076778,105.70933 c -9.358641,17.68745 -9.740137,22.78869 -12.162944,38.85211 -0.02373,0.0237 -5.174797,-5.08857 -11.446837,-11.36062 L 8.0632691,121.79711 c 0.4653075,-3.42063 1.0034163,-5.09762 2.0561819,-7.60053 L 26.875314,97.465572 C 36.118338,88.236524 43.65153,80.689156 43.651546,80.729418 42.5404,82.74659 39.595557,89.033138 41.046938,89.961322 44.35112,91.8023 53.49097,85.106911 56.031942,83.478949 65.042463,77.706032 73.288905,74.244047 82.990921,71.43782 c 3.947264,-1.141707 9.171218,-1.98459 13.182551,-2.140362 7.863328,-0.305349 15.081758,0.891098 21.670628,3.591877 1.44055,0.590472 4.47908,2.089148 5.98999,2.954375 1.41598,0.810894 1.83611,0.851045 2.29148,0.218959 0.37767,-0.721978 0.24801,-1.22292 0.1963,-2.064946 -0.65341,-4.922037 -5.81401,-7.939479 -7.7315,-10.087717 4.98168,0.643235 9.63545,2.225014 14.31819,5.555626 8.46858,6.023318 16.8416,14.075736 20.77264,22.173502 0.45544,0.941488 1.03874,1.250494 1.01512,0.537755 -0.0269,-0.811091 -0.63844,-3.076093 -1.45913,-5.404249 -2.48791,-7.05763 -6.4796,-13.327425 -11.98857,-18.830608 -2.76179,-2.758671 -4.18678,-3.972375 -7.58855,-6.462346 -2.48451,-1.818579 -6.26739,-3.98157 -8.87062,-5.072074 -7.17351,-2.647357 -13.63228,-4.63366 -20.16165,-5.034757 -8.684124,-0.533459 -15.202195,0.253652 -22.686045,2.113798 -7.232156,2.263926 -13.89388,5.104075 -19.929633,8.864885 -0.03049,0 3.397342,-3.452802 7.61742,-7.672887 4.646321,-4.646315 7.111193,-7.103418 7.690756,-7.672103 4.353014,-0.563055 7.394834,-0.673884 11.119669,-0.824707 3.030701,-0.07368 6.056238,-0.02206 9.080806,0.144908 10.897077,1.030133 23.542697,4.549975 33.203627,9.063312 7.6018,3.670411 14.49851,8.903574 19.97394,13.122264 1.31744,1.015056 5.36632,5.037712 6.57894,3.662183 0.51627,-0.602953 0.6415,-0.921714 0.61097,-1.55536 -0.80784,-6.421227 -4.99603,-12.009075 -8.86647,-15.885626 -3.06019,-3.060185 -4.23565,-4.073351 -8.5833,-7.398194 -8.11449,-6.100875 -15.94158,-9.537033 -25.40967,-12.399333 -4.44407,-1.343483 -9.19447,-1.872452 -13.16215,-2.057619 -3.565128,-0.166371 -7.274504,-0.147673 -10.585153,0.155434 2.070117,-2.073225 4.14102,-4.145683 6.211134,-6.218899 4.671629,0.986633 9.179739,2.045789 12.993329,2.922385 1.43283,0.329348 3.49626,1.350335 4.06564,0.669641 2.07683,-2.482868 -5.32011,-7.874119 -7.91778,-9.507809 -0.46501,-0.292455 -1.54972,-0.994418 -2.05425,-1.163186 0,0 0.1835,-0.19125 4.2417,-4.249452 l 4.29174,-4.290931 c 7.48518,0.857021 14.90814,3.827553 20.74569,6.342376 l 28.429,28.430217 28.42898,28.430227 -0.0806,0.292902 c -0.0451,0.164166 0.066,1.151132 0.25288,2.246272 2.82399,16.54568 0.92887,32.226417 -5.57931,46.165157 -3.35476,6.50594 -7.38004,13.0542 -12.10591,18.29233 -6.64902,7.23502 -15.58311,13.68916 -23.7885,17.37977 -4.24538,1.86495 -6.67237,4.00915 -5.85086,5.19586 2.49247,1.77575 6.1957,2.09464 9.12659,1.33043 14.64723,-3.81916 35.07916,-14.50823 45.03969,-33.18355 6.54651,-12.27431 12.7004,-26.35428 11.92366,-38.774721 l 11.43467,11.430001 11.43463,11.42998 c -0.25163,1.52505 -0.69712,2.9688 -0.81833,3.61391 -0.32237,1.71582 -0.55226,2.23186 -1.16765,3.99485 -0.90062,0.90061 -6.85709,6.83751 -16.49665,16.48887 -9.41173,9.42415 -14.85556,14.86332 -16.43095,16.43873 0.50103,-0.98395 1.0156,-1.89897 1.32438,-2.87464 1.48086,-4.67926 0.52082,-7.34443 -2.92866,-5.84733 -6.3661,2.76294 -12.20539,7.15147 -17.3837,10.10708 -5.11815,2.89899 -11.00249,5.51506 -16.21573,7.13169 -4.20226,1.35089 -8.66541,2.53691 -12.62556,3.09289 -8.43752,1.14696 -16.38646,0.49819 -23.84051,-1.9463 -3.04072,-0.99719 -4.88739,-1.82275 -9.17189,-4.10041 -0.62417,-0.42781 -2.25018,-0.94456 -2.27782,0.0346 -0.0289,4.5897 3.38283,8.23609 6.64661,10.71034 1.76859,1.29323 1.88223,1.60356 0.48135,1.31453 -10.64428,-2.63967 -20.87798,-9.69307 -27.116084,-16.63942 -3.035429,-3.0463 -5.446724,-6.8484 -6.888346,-9.90721 -0.820597,-1.74116 -1.030376,-2.3524 -1.507832,-2.42204 -0.241058,-0.0352 -0.248502,0.0886 -0.194632,0.63079 0.135867,1.36767 1.272896,5.03179 2.429516,7.82927 1.232661,2.98136 3.032672,6.25694 5.049939,9.18963 2.275185,3.30766 5.351989,7.2551 8.696299,9.71862 12.7937,9.42417 16.47066,10.15584 24.10962,12.44979 6.57997,1.56595 14.08104,2.32286 20.042,1.59665 7.27546,-0.88635 12.59977,-1.78621 18.4687,-4.05906 4.49954,-1.694 8.45569,-3.58551 12.22605,-5.79424 0.42644,-0.24983 0.76972,-0.65056 1.22041,-0.76357 0.0543,0 -3.28959,3.3062 -7.38062,7.39723 -7.34245,7.34247 -5.6543,5.64186 -7.45479,7.44238 -34.1772,0.735 -43.55123,-2.24451 -58.56592,-10.93791 -6.8108,-4.05777 -13.342557,-9.46083 -18.922627,-13.16231 -0.899487,-0.59665 -2.283831,-0.58158 -2.479617,0.5627 -0.183898,2.15118 0.445232,4.20147 1.321494,5.87 7.405485,14.10082 23.7063,24.64622 38.29147,28.83784 8.27192,2.69787 18.04145,3.34472 25.62336,2.98726 0.0795,-0.004 0.26808,-0.03 0.41934,-0.0576 0.26118,-0.0477 0.12209,0.10271 -2.76493,2.98973 -3.02063,3.02065 -3.04071,3.03914 -3.17473,2.90512 -3.9912,-0.65329 -3.88171,-0.82943 -6.53972,-1.28005 -2.35152,-0.39866 -8.78857,-2.49074 -9.80216,-1.93989 0.70125,3.92994 5.92383,9.4061 9.31477,10.51688 l -4.29784,4.29785 -4.30567,4.29326 c -5.49354,0.3536 -16.33495,-4.42885 -20.4941,-6.23754 z m 65.36829,-83.26613 c 4.13565,-4.54638 7.80669,-11.93189 10.39118,-17.83722 2.2721,-6.27815 3.6805,-15.56002 2.9916,-22.972378 -0.55787,-6.174717 -2.60458,-12.628374 -4.31756,-17.463999 -0.29347,-0.744674 -1.19533,-2.179228 -1.24644,-1.403861 -0.9433,11.492907 1.61895,21.467946 -0.27346,31.921738 -1.38161,7.63216 -4.161,15.88352 -7.13494,22.08464 -2.63702,4.79279 -5.02968,8.33475 -8.6021,12.14544 -0.85633,0.91351 -1.07757,1.13755 -0.99218,1.27808 0.33452,0.55057 2.04116,-1.00081 2.27805,-1.17603 1.47903,-1.09397 5.33647,-4.76792 6.90595,-6.57638 z m 6.0576,-43.628448 c 0.43636,-9.939392 -4.04725,-20.909264 -8.74568,-29.106844 -0.42288,-0.637359 -1.02666,-0.830558 -1.69889,-0.54707 -0.76883,0.688824 -0.77987,0.70918 -0.77064,1.411902 1.35688,9.22684 3.49813,17.99893 4.10685,25.951624 0.46183,6.033741 -0.16526,11.914716 -1.57912,17.799686 -0.29535,1.21173 -0.25963,1.62088 0.16632,1.90483 4.61401,-0.29995 8.21529,-13.452156 8.52116,-17.414128 z M 73.691487,172.25423 c -2.27531,-14.95895 -3.756783,-30.31278 -2.616095,-44.62976 0.0528,-0.6626 -0.349616,-0.86413 -0.787772,-0.77691 -0.144991,0.029 -0.345046,0.0967 -0.440545,0.23858 -8.599776,12.78073 -6.347165,28.88878 0.432032,44.98156 1.900915,3.34552 3.624357,1.95072 3.412664,0.18624 z M 60.986207,160.9089 c -0.223473,-3.53351 -0.623399,-7.10719 -0.727654,-9.96792 -0.373735,-11.12936 -0.478048,-20.66267 2.509477,-31.26236 1.788765,-7.85586 6.07176,-14.93846 9.537542,-20.254922 1.354085,-2.077141 2.96988,-3.802949 4.560253,-5.621725 0.384387,-0.439536 0.577634,-0.724902 0.577642,-0.85421 -8e-6,-0.252783 -0.164524,-0.335185 -0.765039,0.0825 -3.787746,2.634844 -7.304958,6.211308 -10.029309,9.681297 -3.407787,4.34049 -6.459365,9.45835 -8.176791,14.20003 -3.707434,10.23585 -4.48153,18.90325 -2.886061,29.29571 0.830288,5.40831 2.04609,11.11637 4.875766,15.21446 0.195293,0.23134 0.204534,0.23093 0.385256,-0.0163 0.104898,-0.14343 0.165134,-0.35881 0.138952,-0.49675 z"
     id="path847-4"
     sodipodi:nodetypes="cssssccccsccsccsccssssscccscsccscsccsccccsccccssccssscsccccccccccsscccscscsscccscccccsssssscscscsccscsccsscscccccccccsccssscccccscccccsssccccssssscssccccc" />
</svg>
