<svg xmlns="http://www.w3.org/2000/svg" width="317.333" height="317.333" version="1.0" viewBox="0 0 238 238"><path d="M61.2 60.3C29.8 91.7 4 118 4 118.5c0 1.2 59.2 60.5 60.4 60.5.4 0 .6-4.6.4-10.3-.4-10.5-1.8-15.2-5.8-19.5-2.4-2.6-1.7-3.2 3.7-3.2 6 0 10.1 1.9 14.5 6.8 5.4 6 8.1 11.8 8.8 19.2l.6 6.5 1.9-6c1.4-4.3 2-8.9 2-16.6 0-10.2-.1-10.7-3.8-18.3-2.5-5-5.8-9.6-9.4-13.2-6.4-6.3-6-6.9 4.7-6.9 5.3 0 7.4.5 11.2 2.8 8.8 5.1 14.9 15 18.8 30.2 1.1 4.3 2.2 8 2.4 8.2.7.8 3.4-9.1 4-14.6.7-6.8-1-18.9-3.5-25.3-4.2-10.7-12.1-19.9-23.5-27.5-5.3-3.5-5.4-3.7-3.2-4.6 2.6-1 15-.1 21.8 1.5 9.3 2.3 16.1 7.3 24.4 18.1 8.9 11.7 13.8 22.7 17.4 39.2l.9 4 1.6-5.4c3.9-12.8.5-28.4-9.6-43-2.9-4.3-2.9-4.3-.6-3.6 16.2 4.5 25.1 12.2 29.1 25 .5 1.6 1.3 6.8 1.7 11.5.7 8 .8 8.3 2 5.6 1.9-4.7 3.4-18.1 2.9-27.5-.5-10-2.8-16-10.1-25.8-4.1-5.5-12-12.9-18.7-17.5-2.4-1.7-2.3-1.7 5.5-1.7 13.3-.1 26.1 3.9 36.9 11.5 2.8 2-12.5-14-34.4-36C137.3 20.8 119.3 3 119 3c-.3 0-26.3 25.8-57.8 57.3z"/><path d="M122.402 272.538c-19.894-18.602-36.121-33.998-36.062-34.213.364-1.31.419-10.685.092-15.684-.811-12.423-2.446-17.82-7.02-23.179-2.422-2.837-2.595-3.182-1.928-3.849.819-.82 8.127-.986 11.594-.264 5.223 1.087 10.157 4.33 14.607 9.602 7.56 8.958 10.06 15.319 11.213 28.544.222 2.542.52 4.5.661 4.353.508-.527 3.63-11.104 4.142-14.03 1.421-8.118 1.549-25.256.227-30.34-.368-1.416-1.563-4.529-2.656-6.919-3.769-8.243-8.094-14.615-14.425-21.247-1.971-2.066-3.917-4.19-4.323-4.722-.927-1.213-.95-2.413-.054-2.893 2.002-1.071 14.996-1.165 18.944-.136 6.778 1.765 15.305 8.572 20.534 16.392 4.489 6.713 7.534 13.852 10.642 24.945 1.007 3.592 2.285 8.036 2.842 9.875 1.01 3.336 1.014 3.342 1.622 2.59 1.148-1.418 3.335-9.159 4.503-15.941 1.39-8.064.064-22.925-2.98-33.42-2.754-9.492-8.958-19.44-17.425-27.94-4.927-4.946-9.076-8.343-15.679-12.835-2.492-1.695-4.788-3.367-5.103-3.715-.546-.603-.522-.662.524-1.298 1.472-.895 4.577-1.182 9.847-.91 21.42 1.107 31.94 4.986 42.892 15.817 9.704 9.597 19.209 23.832 24.762 37.086 2.88 6.875 6.707 19.9 8.598 29.268.233 1.151.53 1.98.66 1.842.371-.395 2.66-8.309 3.365-11.638.848-4.005 1.156-11.757.645-16.243-.539-4.733-1.804-10.296-3.417-15.02-1.928-5.648-6.384-14.45-10.48-20.702-1.95-2.977-3.545-5.563-3.545-5.746 0-.808 11.973 3.394 17.268 6.06 6.427 3.238 13.89 9.636 17.328 14.856 5.156 7.828 6.763 13.383 8.271 28.59.833 8.4.904 8.776 1.622 8.638 1.286-.248 2.953-6.452 4.07-15.144 2.041-15.904 1.486-29.923-1.546-39.042-1.748-5.256-5.71-12.183-11.013-19.255-4.44-5.923-14.85-15.803-23.061-21.89-2.291-1.698-3.198-2.556-2.956-2.798.234-.233 3.323-.29 9.333-.174 9.255.18 13.024.606 19.706 2.225 6.481 1.571 13.854 4.381 19.571 7.46 7.552 4.065 6.626 3.215 33.841 31.055 13.907 14.226 25.327 25.979 25.378 26.117.114.31-148.586 149.547-149.095 149.632-.201.034-16.643-15.158-36.536-33.76z" style="fill:#fff;stroke-width:.334908" transform="scale(.75)"/></svg>