<?xml version="1.0" encoding="UTF-8" standalone="no"?>
<svg
   xmlns:dc="http://purl.org/dc/elements/1.1/"
   xmlns:cc="http://creativecommons.org/ns#"
   xmlns:rdf="http://www.w3.org/1999/02/22-rdf-syntax-ns#"
   xmlns:svg="http://www.w3.org/2000/svg"
   xmlns="http://www.w3.org/2000/svg"
   xmlns:sodipodi="http://sodipodi.sourceforge.net/DTD/sodipodi-0.dtd"
   xmlns:inkscape="http://www.inkscape.org/namespaces/inkscape"
   version="1.0"
   width="288.000000pt"
   height="289.000000pt"
   viewBox="0 0 288.000000 289.000000"
   preserveAspectRatio="xMidYMid meet"
   id="svg3358"
   sodipodi:docname="obtenebration.svg"
   inkscape:version="1.0.1 (3bc2e813f5, 2020-09-07)">
  <defs
     id="defs3362" />
  <sodipodi:namedview
     pagecolor="#ffffff"
     bordercolor="#666666"
     borderopacity="1"
     objecttolerance="10"
     gridtolerance="10"
     guidetolerance="10"
     inkscape:pageopacity="0"
     inkscape:pageshadow="2"
     inkscape:window-width="1600"
     inkscape:window-height="837"
     id="namedview3360"
     showgrid="false"
     inkscape:zoom="1.7387543"
     inkscape:cx="192"
     inkscape:cy="192.66667"
     inkscape:window-x="-8"
     inkscape:window-y="-8"
     inkscape:window-maximized="1"
     inkscape:current-layer="svg3358"
     inkscape:document-rotation="0" />
  <metadata
     id="metadata3352">
Created by potrace 1.16, written by Peter Selinger 2001-2019
<rdf:RDF>
  <cc:Work
     rdf:about="">
    <dc:format>image/svg+xml</dc:format>
    <dc:type
       rdf:resource="http://purl.org/dc/dcmitype/StillImage" />
  </cc:Work>
</rdf:RDF>
</metadata>
  <g
     transform="translate(0.000000,289.000000) scale(0.100000,-0.100000)"
     fill="#000000"
     stroke="none"
     id="g3356">
    <path
       d="M 240,1450 V 250 h 61 c 80,0 120,20 195,96 135,139 180,310 140,535 -16,86 -33,124 -75,167 -17,16 -27,32 -24,36 14,13 165,6 199,-10 50,-24 128,-115 169,-197 30,-60 37,-87 42,-161 6,-80 7,-86 19,-64 26,49 48,192 48,308 0,98 -4,125 -26,187 -34,96 -105,200 -185,272 l -65,59 38,13 c 22,7 68,13 104,13 119,0 254,-86 344,-217 41,-60 89,-199 107,-310 7,-42 16,-77 19,-77 4,0 17,30 31,68 22,61 24,82 24,237 0,227 -15,271 -152,457 -68,92 -127,148 -242,226 l -71,50 44,6 c 97,15 355,-28 444,-73 199,-101 394,-423 451,-741 l 17,-95 24,60 c 32,79 32,222 1,340 -23,87 -92,239 -141,310 -17,25 -27,45 -22,45 4,0 33,-7 63,-16 224,-66 341,-229 391,-547 7,-42 16,-77 20,-77 4,0 14,15 22,34 41,98 49,373 15,496 -22,83 -67,171 -131,258 -49,67 -178,196 -242,242 -25,18 -43,37 -40,41 9,15 230,10 312,-6 163,-33 304,-134 416,-297 l 56,-82 v 407 407 H 1440 240 Z"
       id="path3354"
       sodipodi:nodetypes="ccscccccsccsccccsccscsccccccccccsccsccccccccccccc" />
  </g>
  <rect
     style="fill:#ffffff;stroke-width:0.75"
     id="rect3364"
     width="0"
     height="217.98358"
     x="24"
     y="24" />
  <path
     style="fill:#ffffff;stroke-width:0.575124"
     d="m 50.23935,350.9416 c 5.099081,-1.76321 8.481329,-4.17513 15.001299,-10.69755 9.118155,-9.12159 14.525851,-17.65694 18.017189,-28.43782 2.739298,-8.45865 3.207067,-12.08213 3.203999,-24.81917 -0.003,-12.31338 -0.452218,-16.30106 -2.897668,-25.72037 -1.783944,-6.87135 -3.355886,-9.88315 -8.027133,-15.37976 -2.864743,-3.37092 -3.633513,-4.62202 -3.062547,-4.98401 1.217045,-0.77161 15.288547,-0.53693 20.189044,0.3367 5.828315,1.03905 8.291627,2.55855 14.370687,8.86461 7.86974,8.1636 15.1886,20.18967 17.35956,28.52455 0.46479,1.78446 1.12021,6.53023 1.45648,10.54616 1.01486,12.11993 1.32592,12.92495 3.41327,8.83341 4.26979,-8.36949 7.42,-36.33672 5.83918,-51.83971 -1.78442,-17.49961 -12.36436,-36.19334 -29.03265,-51.29783 -3.60672,-3.26835 -6.581847,-6.10113 -6.611383,-6.29507 -0.07841,-0.51487 5.442033,-2.16164 9.435853,-2.81474 15.0044,-2.45363 29.64152,2.85925 43.17767,15.67235 9.80403,9.28032 14.97851,17.99989 20.05362,33.79252 1.47395,4.58662 3.4596,12.22139 4.41256,16.96617 2.36679,11.78427 2.85482,13.5942 3.60191,13.35807 1.07183,-0.33877 5.53747,-12.18188 6.48232,-17.19145 1.21084,-6.41985 0.80272,-43.46756 -0.54698,-49.65319 -1.89841,-8.70034 -5.09145,-15.57059 -11.76107,-25.30547 -13.49143,-19.69191 -20.91858,-27.28509 -39.09715,-39.97114 -7.68445,-5.36266 -8.51564,-6.09865 -7.42344,-6.5732 2.13112,-0.92597 19.61074,-0.63215 27.02498,0.45427 15.85343,2.32302 28.88806,5.68508 36.07727,9.30551 11.52957,5.8062 25.20092,19.99717 35.78494,37.14508 12.15973,19.70081 20.01112,40.94915 24.57131,66.49769 0.69164,3.8749 1.43793,7.04527 1.65844,7.04527 0.77984,0 4.79467,-11.85807 5.64693,-16.6786 1.2102,-6.84511 0.69158,-23.99626 -0.95925,-31.72304 -2.82708,-13.23226 -10.84524,-31.92218 -19.82071,-46.20104 -1.78767,-2.84397 -2.9797,-5.26106 -2.64895,-5.37131 1.16415,-0.38805 13.00641,3.45772 18.19233,5.90794 12.98479,6.135 22.40618,15.28415 29.10444,28.26342 5.42765,10.51719 8.22724,19.46517 11.65196,37.24161 2.91546,15.13306 3.22721,15.72677 5.69775,10.85138 2.99191,-5.90425 4.62143,-14.71877 5.53565,-29.94375 1.02931,-17.14166 -0.6253,-33.91005 -4.39107,-44.5009 -3.83923,-10.79744 -12.36752,-25.08493 -20.68914,-34.66063 -6.41741,-7.38453 -16.70462,-17.42367 -24.39204,-23.803871 -8.00166,-6.640992 -8.39572,-7.091357 -6.74391,-7.707497 1.79757,-0.670511 22.59322,-0.524273 30.89913,0.217287 19.10879,1.706051 34.69046,8.980883 49.1001,22.924061 6.85433,6.63243 10.57987,11.13156 17.52084,21.15898 l 5.26961,7.61285 V 246.43324 351.97612 L 199.6204,351.95734 C 54.421074,351.93944 47.489992,351.89231 50.23935,350.9416 Z"
     id="path3383"
     transform="scale(0.74999999)" />
</svg>
