<svg xmlns="http://www.w3.org/2000/svg" width="384" height="385" version="1.0" viewBox="0 0 288 289"><path d="M24 144v120h6c8 0 12-2 20-10 13-13 18-31 14-53-2-9-4-12-8-17-2-1-3-3-2-3 1-2 16-1 20 1 5 2 12 11 16 19 4 6 4 9 5 16 0 8 0 9 2 7a89 89 0 0 0 2-50c-4-9-11-20-19-27l-6-6 4-1 10-1c12 0 25 8 34 21 5 6 9 20 11 31l2 8 3-7c2-6 2-8 2-24 1-22-1-27-15-45-7-9-12-15-24-23l-7-5h4c10-2 36 2 45 7 20 10 39 42 45 74l2 9 2-6c3-7 3-22 0-34a128 128 0 0 0-16-35l6 2c23 6 34 22 39 54l2 8 2-3c5-10 5-38 2-50-2-8-7-17-13-26-5-7-18-19-24-24l-4-4c1-2 23-1 31 0 16 4 30 14 41 30l6 8V24H24Z"/><path d="M50 351c5-2 9-4 15-11a68 68 0 0 0 21-53c0-12 0-16-2-26-2-7-4-10-8-15l-4-5h21c5 1 8 3 14 9 8 8 15 20 17 29l2 10c1 12 1 13 3 9 5-8 8-36 6-52-2-17-12-36-29-51l-7-6c0-1 6-3 10-3 15-3 30 3 43 15 10 10 15 18 20 34l5 17 3 14 7-18c1-6 0-43-1-49a128 128 0 0 0-51-65l-7-7h27c16 3 29 6 36 10 11 5 25 20 36 37a185 185 0 0 1 26 73l6-16c1-7 0-24-1-32a161 161 0 0 0-23-52l18 6c13 6 23 16 29 29 6 10 9 19 12 37 3 15 3 15 6 11 3-6 4-15 5-30 1-17 0-34-4-45s-12-25-21-35c-6-7-16-17-24-23-8-7-9-7-7-8h31c19 2 35 9 49 23 7 7 11 11 18 21l5 8v211H200c-146 0-153 0-150-1Z" style="fill:#fff;stroke-width:.575124" transform="scale(.75)"/></svg>