<svg xmlns="http://www.w3.org/2000/svg" width="317" height="317" version="1.0" viewBox="0 0 238 238"><path d="M61 60 4 119l60 60 1-10c-1-11-2-16-6-20-2-2-2-3 4-3s10 2 14 7c6 6 8 12 9 19l1 7 2-6 2-17c0-10-1-11-4-18l-10-14c-6-6-6-7 5-7 5 0 7 1 11 3 9 5 15 15 19 30l2 9c1 0 4-9 4-15 1-7-1-19-3-25-4-11-12-20-24-28-5-3-5-3-3-4 3-1 15 0 22 1 9 2 16 7 24 18 9 12 14 23 18 39l1 5 1-6c4-13 1-28-9-43-3-4-3-4-1-4 16 5 25 13 29 26l2 11c1 8 1 8 2 6 2-5 3-19 3-28-1-10-3-16-10-26-4-5-12-13-19-17-2-2-2-2 6-2 13 0 26 4 36 12l-34-36-40-40-58 57z"/><path d="m122 273-36-35v-15c0-13-2-18-7-24l-2-3 12-1c5 1 10 5 15 10 7 9 10 15 11 28l1 5 4-14v-31l-3-6c-3-9-8-15-14-22l-4-4-1-3h19c7 1 16 8 21 16l11 25a660 660 0 0 0 4 12l5-16c1-8 0-23-3-33-3-9-9-19-18-28l-16-13-5-3 1-2 10-1c21 1 32 5 43 16a122 122 0 0 1 34 68l3-11a64 64 0 0 0-3-32 108 108 0 0 0-14-26c0-1 12 3 17 6 7 3 14 10 18 15 5 8 7 13 8 28l2 9a94 94 0 0 0 2-54c-2-5-5-12-11-19a136 136 0 0 0-26-25h10a76 76 0 0 1 39 9c7 5 6 4 34 32l25 26-149 149-37-33z" style="fill:#fff;stroke-width:.334908" transform="scale(.75)"/></svg>