<svg xmlns="http://www.w3.org/2000/svg" width="384" height="385.333" version="1.0" viewBox="0 0 288 289"><path d="M24 144v120h6.1c8 0 12-2 19.5-9.6 13.5-13.9 18-31 14-53.5-1.6-8.6-3.3-12.4-7.5-16.7-1.7-1.6-2.7-3.2-2.4-3.6 1.4-1.3 16.5-.6 19.9 1 5 2.4 12.8 11.5 16.9 19.7 3 6 3.7 8.7 4.2 16.1.6 8 .7 8.6 1.9 6.4 2.6-4.9 4.8-19.2 4.8-30.8 0-9.8-.4-12.5-2.6-18.7-3.4-9.6-10.5-20-18.5-27.2l-6.5-5.9 3.8-1.3c2.2-.7 6.8-1.3 10.4-1.3 11.9 0 25.4 8.6 34.4 21.7 4.1 6 8.9 19.9 10.7 31 .7 4.2 1.6 7.7 1.9 7.7.4 0 1.7-3 3.1-6.8 2.2-6.1 2.4-8.2 2.4-23.7 0-22.7-1.5-27.1-15.2-45.7-6.8-9.2-12.7-14.8-24.2-22.6l-7.1-5 4.4-.6c9.7-1.5 35.5 2.8 44.4 7.3 19.9 10.1 39.4 42.3 45.1 74.1l1.7 9.5 2.4-6c3.2-7.9 3.2-22.2.1-34-2.3-8.7-9.2-23.9-14.1-31-1.7-2.5-2.7-4.5-2.2-4.5.4 0 3.3.7 6.3 1.6 22.4 6.6 34.1 22.9 39.1 54.7.7 4.2 1.6 7.7 2 7.7.4 0 1.4-1.5 2.2-3.4 4.1-9.8 4.9-37.3 1.5-49.6-2.2-8.3-6.7-17.1-13.1-25.8-4.9-6.7-17.8-19.6-24.2-24.2-2.5-1.8-4.3-3.7-4-4.1.9-1.5 23-1 31.2.6 16.3 3.3 30.4 13.4 41.6 29.7l5.6 8.2V24H24Z"/><path d="M50.24 350.942c5.098-1.764 8.48-4.176 15-10.698 9.119-9.122 14.527-17.657 18.018-28.438 2.74-8.458 3.207-12.082 3.204-24.819-.003-12.313-.452-16.301-2.898-25.72-1.784-6.872-3.356-9.883-8.027-15.38-2.865-3.371-3.633-4.622-3.063-4.984 1.218-.772 15.289-.537 20.19.337 5.828 1.039 8.291 2.558 14.37 8.864 7.87 8.164 15.189 20.19 17.36 28.525.465 1.784 1.12 6.53 1.456 10.546 1.015 12.12 1.326 12.925 3.414 8.833 4.27-8.37 7.42-36.336 5.839-51.84-1.785-17.499-12.365-36.193-29.033-51.297-3.607-3.269-6.582-6.101-6.611-6.295-.079-.515 5.442-2.162 9.436-2.815 15.004-2.454 29.641 2.86 43.177 15.672 9.804 9.28 14.979 18 20.054 33.793 1.474 4.586 3.46 12.221 4.412 16.966 2.367 11.784 2.855 13.594 3.602 13.358 1.072-.339 5.538-12.182 6.483-17.191 1.21-6.42.802-43.468-.547-49.654-1.899-8.7-5.092-15.57-11.761-25.305-13.492-19.692-20.919-27.285-39.098-39.971-7.684-5.363-8.515-6.099-7.423-6.573 2.131-.926 19.61-.632 27.025.454 15.853 2.323 28.888 5.685 36.077 9.305 11.53 5.807 25.201 19.998 35.785 37.146 12.16 19.7 20.011 40.949 24.571 66.497.692 3.875 1.438 7.045 1.659 7.045.78 0 4.795-11.858 5.647-16.678 1.21-6.845.691-23.996-.96-31.723-2.826-13.232-10.845-31.922-19.82-46.201-1.788-2.844-2.98-5.261-2.65-5.372 1.165-.388 13.007 3.458 18.193 5.908 12.985 6.135 22.406 15.285 29.105 28.264 5.427 10.517 8.227 19.465 11.652 37.241 2.915 15.134 3.227 15.727 5.697 10.852 2.992-5.904 4.622-14.719 5.536-29.944 1.03-17.142-.625-33.91-4.391-44.5-3.84-10.798-12.368-25.086-20.69-34.661-6.417-7.385-16.704-17.424-24.391-23.804-8.002-6.641-8.396-7.092-6.744-7.708 1.797-.67 22.593-.524 30.899.217 19.109 1.707 34.69 8.981 49.1 22.925 6.854 6.632 10.58 11.131 17.521 21.159l5.27 7.612v211.086l-152.265-.019c-145.199-.018-152.13-.065-149.38-1.015Z" style="fill:#fff;stroke-width:.575124" transform="scale(.75)"/></svg>