<svg xmlns="http://www.w3.org/2000/svg" width="317.333" height="317.333" version="1.0" viewBox="0 0 238 238"><path d="M61.2 60.3C29.8 91.7 4 118 4 118.5 4 119.8 118.2 234 119.5 234c.6 0 26.9-25.9 58.5-57.5l57.5-57.5-58-58C145.6 29.1 119.3 3 119 3c-.3 0-26.3 25.8-57.8 57.3zm78.5.2c1.2.9 3.2 3.3 4.3 5.5 1.1 2.2 2.5 4 3.1 4 .6 0 2.7-1.4 4.6-3 4.8-4.2 10.8-4.2 15.7 0 5.9 5.2 6 6.6 4.2 40.9-.9 16.8-1.9 33-2.2 35.8l-.5 5.3h-22.2l.7-17.3c.4-9.4.9-19.5 1.2-22.3.6-5.1.6-5.1-2.5-5.6-2.6-.4-3.1-.1-3.2 1.6-.2 8.4-2.7 42.8-3.2 43.2-.3.4-4.8.7-9.9.8l-9.3.1-.7-14.5c-1.2-22.1-1.9-31-2.6-31-2.7.1-3.2 2.4-3.7 19.5-.3 9.9-.8 19.9-1.1 22.2l-.5 4.3h-8.5c-6.5 0-8.4-.3-8.4-1.4 0-1.5-4.7-37.1-5.5-42.4-.5-2.5-1.1-3.2-2.8-3.2h-2.2l.8 22.6c.5 12.4.6 22.8.3 23.1-.2.3-4.1.7-8.5 1-6.5.5-8.1.3-8.1-.8-.1-4.3-7.1-60-7.9-62.8-.8-2.4-.7-4.7 0-7.5 3-11 12.2-14.8 20.7-8.6 2.3 1.6 4.5 3 4.9 3 .3 0 2.9-2.4 5.7-5.4 7.7-8.2 13-8.6 19.8-1.5 3.7 3.9 7.8 5.2 7.8 2.5 0-2.2 5-7.7 8.5-9.2 3.4-1.6 7.8-1.1 11.2 1.1zM165 168.6v12.5l-20.7-.3c-23.2-.3-26.7-1.2-30.4-7.2-3.8-6.2-1.3-12.2 6.5-15.7 3.6-1.6 6.8-1.9 24.4-1.9H165v12.6z"/><path d="M93.457 199.418c-1.148-.486-1.119-.342-2.307-11.386-2.08-19.331-8.346-67.739-9.472-73.176-.862-4.163-.859-6.417.012-9.688 1.705-6.41 5.486-11.586 10.263-14.053 2.106-1.088 3.139-1.31 6.089-1.313 4.214-.002 6.16.76 12.62 4.945 2.396 1.552 4.605 2.821 4.91 2.821.304 0 3.571-2.93 7.26-6.512 7.693-7.47 10.355-9.118 14.733-9.118 3.46 0 6.26 1.34 9.93 4.752 4.174 3.88 7.165 6.037 9.12 6.577 2.172.6 3.258.044 3.64-1.862.41-2.051 2.602-5.07 5.896-8.12 5.213-4.826 9.739-6.039 15.737-4.217 4.162 1.264 6.62 3.56 10.08 9.419 1.252 2.121 2.723 4.17 3.27 4.552 1.217.853 1.745.614 6.338-2.862 4.609-3.488 7.286-4.611 11.094-4.653 2.57-.028 3.614.226 6.232 1.514 4.257 2.095 8.036 5.875 9.425 9.427.961 2.46 1.101 3.791 1.285 12.234.113 5.21-.04 14.587-.34 20.84-.875 18.213-3.324 59.123-3.823 63.859-.252 2.389-.461 4.503-.466 4.699-.005.195-6.508.355-14.454.355h-14.445v-3.702c0-8.547 1.95-46.829 2.661-52.251.374-2.849-.618-3.931-4.012-4.381-3.992-.53-4.188-.262-4.554 6.213-.943 16.671-3.286 48.3-3.84 51.834-.153.98-.619 1.885-1.066 2.075-.436.184-6.051.441-12.478.571l-11.684.236-.248-2.074c-.137-1.14-.588-9-1.004-17.467-1.233-25.09-2.452-40.255-3.305-41.108-.526-.526-2.609.868-3.302 2.209-1.056 2.042-1.584 7.97-2.156 24.217-.507 14.418-1.158 26.49-1.73 32.088l-.303 2.96-8.341-.028c-8.361-.028-12.529-.405-13.301-1.202-.228-.235-1.293-7.354-2.367-15.82-3.669-28.917-5.646-42.572-6.364-43.96-.724-1.4-2.201-1.982-5.025-1.982h-1.31l.197 3.907c.483 9.6 1.593 44.983 1.593 50.755 0 3.51-.16 6.478-.355 6.596-1.209.736-18.978 1.855-20.333 1.28zM182.348 240.596c-21.43-.685-25.989-2.142-30.35-9.7-3.385-5.87-2.8-10.736 1.848-15.385 2.752-2.751 6.943-5.12 10.991-6.21 1.487-.402 9.99-.632 28.523-.772l26.405-.2v32.75l-13.617-.08c-7.489-.042-18.199-.224-23.8-.403z" style="fill:#fff;stroke-width:.473632" transform="scale(.75)"/></svg>