<svg xmlns="http://www.w3.org/2000/svg" width="381.333" height="385.333" version="1.0" viewBox="0 0 286 289"><path d="M24 144v120h240V24H24v120zm148.5-88.1c4.7 2.1 8.8 6.6 10.6 11.6 1.7 4.5 4.5 4.6 8.5.4 5.6-6 14.1-7.6 21.2-4 4.7 2.4 6.6 4.5 9.1 10.1 2.7 5.9 2.7 10.6-.4 64-1.4 23.9-2.5 44.5-2.5 45.7 0 2.3-.1 2.3-16.5 2.3s-16.5 0-16.5-2.3c0-1.2.7-15.6 1.6-32 .9-16.4 1.4-30 1.2-30.2-.2-.2-2.2-.7-4.4-1.1l-4-.6-2 33.1c-1.1 18.1-2.2 33.2-2.5 33.5-.2.3-6.7.6-14.4.8l-14 .3-1.6-32.8c-.9-18-1.9-33.1-2.2-33.4-.3-.3-1.8-.3-3.2.1-2.1.5-2.5 1.2-2.6 4.4 0 2-.6 17-1.2 33.2l-1.2 29.5-12.2.3-12.1.3-.6-2.8c-.3-1.5-2.4-16.8-4.6-33.8-2.2-17.1-4.2-31.6-4.5-32.3-.2-.6-1.9-1.2-3.6-1.2h-3.2l.7 19.2c.3 10.6.9 25.9 1.3 33.9l.6 14.7-11.7.7c-6.5.4-12.1.4-12.5-.1-.5-.5-2.9-19.4-5.5-41.9-2.5-22.6-5.3-43.3-6.1-46.1C56.6 82.6 65.1 67 79.3 67c5.4 0 11.9 2.9 15 6.7 3 3.8 5.2 2.8 10.2-4.2C111.3 60 117.8 56.8 126 59c4.4 1.2 11.5 6.9 12.5 10 1.4 4.3 7.7 3.2 8.9-1.5.9-3.7 6.5-9.6 11.1-11.6 5.1-2.3 8.9-2.3 14 0zM212 215.1v19l-28.2-.3c-31.9-.4-35.8-1.1-42.8-7.4-4.9-4.5-6.7-9.3-5.1-14.4 1.5-5.1 4.5-8.7 9.4-11.2 8.1-4.1 12.1-4.5 40-4.7l26.7-.1v19.1z"/><path d="M148.392 251.162c-.545-1.603-1.673-9.58-6.605-46.705-2.858-21.51-5.465-40.445-5.794-42.078-.68-3.374-.974-3.567-6.139-4.05l-3.601-.336v4.623c0 4.765 1.256 40.057 2.473 69.447l.69 16.678-5.176.373c-10.683.768-25.329 1.122-26.036.63-.98-.683-2.675-12.837-7.601-54.49-4.691-39.663-7.056-57.073-8.747-64.413-2.985-12.95-.628-25.216 6.369-33.148 9.378-10.63 25.118-10.568 36.57.145 5.626 5.263 7.77 4.58 14.555-4.637 4.447-6.04 9.602-10.935 13.659-12.97 3.1-1.556 3.976-1.725 8.931-1.726 5.137 0 5.754.13 9.481 2.012 4.257 2.15 11.641 8.926 13.791 12.655 1.58 2.741 4.467 3.499 7.445 1.953 2.177-1.13 2.772-1.95 4.967-6.843 1.778-3.967 9.056-11.12 13.406-13.178 7.114-3.365 12.67-3.282 19.834.297 4.51 2.254 9.707 7.814 12.13 12.977 3.83 8.162 5.824 8.501 12.829 2.181 6.6-5.956 14.207-8.594 20.904-7.249 8.514 1.71 14.341 6.244 18.06 14.052 3.18 6.676 3.656 10.592 3.23 26.577-.358 13.354-.763 21.307-3.82 75.054-.926 16.29-1.863 33.577-2.083 38.416-.367 8.111-.492 8.85-1.606 9.49-1.91 1.095-40.084.977-41.417-.13-.857-.711-.944-1.557-.65-6.326.39-6.32 2.94-57.7 3.488-70.297.342-7.848.294-8.451-.685-8.742-1.656-.49-10.708-2.122-10.858-1.956-.075.082-.957 13.736-1.96 30.343-1.91 31.63-3.832 58.061-4.25 58.48-.363.362-21.36 1.287-29.798 1.312l-7.282.02-.343-4.744c-.189-2.61-.737-13.156-1.219-23.436-.481-10.28-1.256-25.162-1.72-33.07-1.628-27.71-1.577-27.322-3.599-27.315-2.125.007-5.315 1.252-5.871 2.291-.324.605-.976 11.587-1.458 24.561-1.293 34.812-2.492 62.98-2.687 63.14-.095.078-7.237.295-15.871.484-12.02.263-15.755.18-15.936-.352zM228.912 311.126c-20.895-.576-27.446-1.479-33.762-4.652-4.81-2.416-10.42-7.915-12.606-12.355-1.63-3.31-1.782-4.061-1.53-7.56.896-12.488 12.473-21.543 30.357-23.746 2.689-.33 19.705-.757 37.815-.946l32.925-.345v50.195l-19.41-.097c-10.676-.054-25.88-.276-33.789-.494z" style="fill:#fff;stroke-width:.575124" transform="scale(.75)"/></svg>