<svg xmlns="http://www.w3.org/2000/svg" width="381" height="385" version="1.0" viewBox="0 0 286 289"><path d="M24 144v120h240V24H24v120zm149-88c4 2 8 7 10 12 2 4 5 4 9 0 5-6 14-8 21-4 4 2 6 4 9 10s3 11-1 64l-2 46c0 2 0 2-17 2s-16 0-16-2a2136 2136 0 0 1 3-63l-5-1h-4l-2 33-2 33-15 1-14 1-1-33-2-34h-4c-2 1-2 2-2 5l-1 33-2 30h-24v-3a1649 1649 0 0 1-9-66l-4-1h-3v19l2 34v15l-11 1-13-1-5-41-6-47c-5-16 3-32 17-32 6 0 12 3 15 7s5 3 10-4c7-10 14-13 22-11 4 1 12 7 13 10 1 4 7 3 8-1s7-10 12-12 8-2 14 0zm39 159v19h-28c-32-1-36-1-43-8-5-4-7-9-5-14 1-5 4-9 9-11 8-4 12-5 40-5h27v19z"/><path d="M148 251a796 796 0 0 1-12-89c-1-3-1-3-6-4h-4v5l3 69v17h-5l-26 1-7-55c-5-39-7-57-9-64-3-13-1-25 6-33 10-11 25-11 37 0 5 5 8 4 14-5 5-6 10-11 14-13l9-1c5 0 6 0 9 2 5 2 12 8 14 12 2 3 5 4 8 2 2-1 2-2 5-7 1-4 9-11 13-13 7-3 13-3 20 0 4 3 10 8 12 13 4 9 6 9 13 3 6-6 14-9 21-8 8 2 14 7 18 14 3 7 3 11 3 27a2453 2453 0 0 1-7 123h-42l-1-7a10726 10726 0 0 0 3-79l-11-2a1846 1846 0 0 0-6 89l-30 2h-7v-5a1631 1631 0 0 1-3-57c-2-27-2-27-4-27l-6 2-1 25-3 63a471 471 0 0 1-32 0zm81 60c-21 0-28-1-34-5-5-2-10-7-12-12-2-3-2-4-2-7 1-13 12-22 30-24l38-1h33v50h-19l-34-1z" style="fill:#fff;stroke-width:.575124" transform="scale(.75)"/></svg>