<svg xmlns="http://www.w3.org/2000/svg" width="317" height="317" version="1.0" viewBox="0 0 238 238"><path d="M61 60 4 119c0 1 114 115 116 115l58-57 58-58-58-58-59-58-58 57zm79 0 4 6 3 4 5-3c4-4 10-4 15 0 6 5 6 7 5 41l-3 36v5h-22v-17l2-23c0-5 0-5-3-5-3-1-3 0-3 1l-3 44h-10l-10 1v-15c-1-22-2-31-3-31-3 0-3 2-4 20l-1 22v4h-9l-8-1a1992 1992 0 0 0-8-46h-3l1 23 1 23-9 1-8-1a1514 1514 0 0 0-8-70c3-11 12-15 21-9l5 3 5-5c8-9 13-9 20-2 4 4 8 5 8 3 0-3 5-8 8-10 4-1 8-1 12 1zm25 109v12h-21c-23-1-26-1-30-7-4-7-1-13 6-16 4-2 7-2 25-2h20v13z"/><path d="m93 199-2-11a2124 2124 0 0 0-9-83c1-6 5-11 10-14l6-1c4 0 6 1 13 5l5 3 7-7c8-7 10-9 15-9 3 0 6 1 9 5 5 4 8 6 10 6 2 1 3 0 3-2l6-8c5-5 10-6 16-4 4 1 7 4 10 9l3 5c1 1 2 1 7-3 4-3 7-4 11-4 2-1 3 0 6 1 4 2 8 6 9 9l2 13-1 21a3093 3093 0 0 1-4 68h-29v-3l3-53c0-2-1-3-4-4-4 0-4 0-5 6a1490 1490 0 0 1-5 54l-12 1h-12v-2l-1-17-3-42-4 3-2 24-2 32v3h-8l-14-1-2-16-6-44c-1-2-3-2-5-2h-2l1 4a2362 2362 0 0 1 1 57c-1 1-19 2-21 1zm89 42c-21-1-26-3-30-10-3-6-3-11 2-15 3-3 7-6 11-7h28l27-1v33h-38z" style="fill:#fff;stroke-width:.473632" transform="scale(.75)"/></svg>