<svg xmlns="http://www.w3.org/2000/svg" width="317" height="317" version="1.0" viewBox="0 0 238 238"><path d="M61 61 4 118l58 58 58 58 58-58 58-58-58-58-59-57-58 58zm63 10 4 26 22-15 22-16-24 33c-7 9-8 11-6 11a503 503 0 0 0 52 9l-54 8 17 23 16 22a415 415 0 0 1-43-31l-3-2-3 27-5 27-4-27-4-27-23 17-22 16a417 417 0 0 1 32-45l-54-8 25-4 27-5c2 0 1-2-6-11L66 66l22 16 22 15 4-26 5-27 5 27z"/><path d="M158 252a3895 3895 0 0 1-11-67 1694 1694 0 0 0-58 43l19-27 22-31-11-2a2992 2992 0 0 0-61-10 606 606 0 0 1 71-11c1-1 0-3-1-5a1119 1119 0 0 0-38-53l16 12 40 29c1 0 3-8 8-40a181 181 0 0 1 5-29 292 292 0 0 0 5 32c4 27 6 37 7 37l31-22 26-19-24 34a1129 1129 0 0 0-16 24 525 525 0 0 0 70 11l-11 2a4208 4208 0 0 0-60 10l22 31 19 27-28-21-30-22a1041 1041 0 0 0-11 70l-1-3z" style="fill:#fff;stroke-width:.473632" transform="scale(.75)"/></svg>