<svg xmlns="http://www.w3.org/2000/svg" width="317.333" height="317.333" version="1.0" viewBox="0 0 238 238"><path d="M61 60.5 3.5 118l58 58 58 58 58-58.1 58-58.1-58-57.4C145.6 28.8 119.3 3 119 3c-.3 0-26.4 25.9-58 57.5zm62.5 10.4c2.6 17.7 4.3 26.8 4.9 26.3.6-.3 10.3-7.4 21.6-15.7 11.3-8.3 21.1-15.5 21.9-15.9 1.2-.8-6.6 10.1-24.1 33.4-6.8 9-7.7 10.6-6.1 11.2 1 .4 13.3 2.3 27.3 4.3 21.8 3.2 29.4 4.5 25.4 4.5-2 0-53.6 7.9-54 8.3-.2.2 7 10.3 16.1 22.5 9.1 12.2 16.2 22.2 16 22.2-.3 0-9.2-6.4-19.7-14.3-10.6-7.8-20.7-15.2-22.4-16.4l-3-2.2-3.9 27c-2.2 14.8-4.2 26.9-4.5 26.9-.3 0-2.3-12.1-4.5-27l-4-27-22.3 16.5C76 164.6 65.7 172 65.5 172c-.3 0 6.9-10 16-22.2s16.3-22.3 16.1-22.5c-.4-.4-52-8.3-54-8.3-4 0 3.6-1.3 25.4-4.5 14-2 26.3-3.9 27.3-4.3 1.6-.6.7-2.2-6.1-11.2-17.5-23.3-25.3-34.2-24.1-33.4.8.4 10.6 7.6 21.9 15.9 11.3 8.3 21 15.4 21.6 15.7.6.5 2.3-8.6 4.9-26.3 2.2-14.8 4.2-26.9 4.5-26.9.3 0 2.3 12.1 4.5 26.9z"/><path d="M157.777 252.09c-1.012-5.825-5.604-35.636-7.918-51.402-1.497-10.204-2.455-15.458-2.794-15.327-.284.108-11.59 8.38-25.125 18.381-28.455 21.026-32.89 24.241-33.116 24.008-.21-.215 2.403-3.839 19.416-26.93 16.53-22.438 22.087-30.315 21.862-30.99-.093-.279-5.053-1.302-11.023-2.273-15.737-2.562-53.884-8.319-57.638-8.699-1.765-.178-3.123-.41-3.019-.515.327-.326 12.989-2.358 34.883-5.598 23.46-3.471 34.922-5.311 35.567-5.71.923-.57.35-2.945-1.308-5.425-.955-1.43-7.203-9.952-13.883-18.94C93.296 95.248 89.256 89.62 89.666 89.21c.139-.14 7.462 5.024 16.273 11.474 33.831 24.765 39.823 29.091 40.29 29.091 1.031 0 2.423-7.497 7.449-40.137 3.7-24.027 4.571-29.013 5.074-29.013.214 0 .388.207.388.46 0 .252.634 4.249 1.41 8.88.774 4.632 2.376 14.815 3.56 22.63 4.077 26.937 6.001 37.18 6.984 37.18.559 0-1.502 1.481 30.592-21.994 14.153-10.352 25.845-18.708 25.983-18.57.408.407-3.65 6.06-24.016 33.46-6.68 8.987-12.928 17.51-13.884 18.939-1.63 2.439-2.232 4.854-1.346 5.402.624.385 13.107 2.404 32.526 5.26 17.926 2.636 34.24 5.176 36.944 5.753.963.206-2.621.888-11.13 2.118-13.147 1.9-45.968 6.948-54.432 8.37-2.715.456-5.012 1.056-5.105 1.332-.214.645 5.984 9.432 21.683 30.738 15.08 20.465 19.564 26.736 19.304 26.996-.2.199-7.534-5.104-28.577-20.663-18.57-13.73-29.694-21.792-29.848-21.634-.077.08-1.556 9.842-3.286 21.695-2.806 19.23-5.362 35.807-6.955 45.114-.3 1.758-.697 3.197-.88 3.197-.184 0-.584-1.44-.89-3.197z" style="fill:#fff;stroke-width:.473632" transform="scale(.75)"/></svg>