<svg xmlns="http://www.w3.org/2000/svg" width="384" height="385" version="1.0" viewBox="0 0 288 289"><path d="M24 144v120h240V24H24v120zm127-68 5 39a1502 1502 0 0 0 66-48l-48 66a1444 1444 0 0 0 79 12 765 765 0 0 1-79 12 1333 1333 0 0 0 47 65c3 3 5 5-36-26l-29-21a1997 1997 0 0 0-12 79l-6-39-7-39a8040 8040 0 0 0-66 48l25-33 24-33-4-1-40-6-36-6a809 809 0 0 1 79-13 1267 1267 0 0 0-47-65l65 47a513 513 0 0 1 14-78l5 39z"/><path d="m192 336-8-46a703 703 0 0 0-10-56 4997 4997 0 0 0-85 63 1244 1244 0 0 1 63-87l-45-7c-52-8-60-9-59-10l59-9c34-5 44-7 44-9a1253 1253 0 0 0-61-84l33 24 51 37c1 0 4-14 9-48l9-54 10 60 7 43 19-14 67-49-7 10a3338 3338 0 0 0-55 77l15 2a16520 16520 0 0 0 40 6l48 8a1576 1576 0 0 1-104 17l42 58 21 28-28-20-58-43c-1 0-1-1-6 32a4393 4393 0 0 1-11 71z" style="fill:#fff;stroke-width:.575124" transform="scale(.75)"/></svg>