<svg xmlns="http://www.w3.org/2000/svg" width="384" height="385.333" version="1.0" viewBox="0 0 288 289"><path d="M24 144v120h240V24H24v120zm126.5-68.5c3.1 21.4 5.8 39.1 5.9 39.2.1.1 15-10.8 33.1-24.3C207.6 77 222.6 66 222.8 66c.3 0 0 .6-.6 1.2-3.8 4.8-48.1 65.2-47.9 65.3.1.2 18.1 2.9 39.9 6.1 21.9 3.2 39.4 6.1 39 6.5-.4.4-18.2 3.2-39.7 6.4-21.4 3.1-39.1 5.8-39.2 5.9-.1.1 9.9 13.9 22.3 30.7 12.4 16.7 23.5 31.7 24.7 33.4 2.6 3.6 4.9 5.2-36.7-25.7-15.4-11.4-28.1-20.7-28.2-20.5-.1.1-2.8 17.7-5.9 39.2-3.2 21.4-6.1 39.3-6.4 39.8-.4.4-3.3-17.3-6.6-39.2-3.9-26.9-6.2-39.8-6.9-39.4-1 .7-55.5 40.8-62.3 46.1-1.8 1.3-3.3 2.3-3.3 2 0-.2 11-15.2 24.5-33.3l24.4-33-3.7-.7c-2-.3-20-3-39.9-6-20-2.9-36.3-5.5-36.3-5.8 0-.3 18-3.2 39.9-6.5 26.8-3.9 39.8-6.2 39.3-6.9-.3-.6-9.6-13.3-20.7-28.1C67.2 69.4 64.2 65.2 66 66.6c14.5 10.8 63.8 47.2 64.6 47.6.7.5 3-12.3 6.9-39.3 3.3-21.9 6.2-39.6 6.6-39.2.3.5 3.2 18.3 6.4 39.8z"/><path d="M191.808 336.448c-.511-1.217-3.825-21.366-7.567-46.01-5.843-38.476-7.988-51.294-9.271-55.397-.18-.577-.674-.916-1.098-.753-.793.304-41.295 30.049-69.21 50.828-8.655 6.442-15.841 11.608-15.97 11.48-.244-.245 3.61-5.511 40.565-55.42 12.45-16.812 22.624-30.788 22.61-31.056-.032-.638 1.22-.433-45.273-7.408-51.18-7.679-59.12-8.964-58.551-9.482.518-.47 21.371-3.84 58.839-9.507 34.41-5.204 44.284-7.05 44.284-8.281 0-.46-3.98-5.893-35.413-48.34-23.005-31.064-26.317-35.657-25.968-36.007.164-.163 15.16 10.685 33.326 24.106 40.892 30.21 50.502 37.207 51.107 37.207 1.13 0 3.708-14.156 8.849-48.598 4.233-28.358 8.466-53.774 8.957-53.774.517 0 3.445 18.12 9.759 60.388 6.106 40.878 6.378 42.56 6.885 42.56.552 0 4.717-2.963 18.99-13.508 61.905-45.737 66.783-49.304 67.055-49.033.122.123-2.924 4.474-6.769 9.67-28.889 39.042-55.685 75.86-55.685 76.509 0 .284.116.516.258.516.143 0 6.936 1.02 15.097 2.265a16520.07 16520.07 0 0 0 40.432 6.088c24.588 3.673 47.63 7.454 48.064 7.888.395.395-26.135 4.58-73.94 11.664-16.287 2.413-29.718 4.492-29.846 4.62-.464.465 9.77 14.648 41.891 58.057 21.296 28.78 20.769 28.05 20.461 28.357-.281.281-.324.25-27.622-19.97-41.021-30.387-57.762-42.607-58.368-42.607-.537 0-.338-1.203-5.214 31.632-3.9 26.261-9.794 64.198-10.813 69.59-.297 1.57-.632 2.25-.851 1.726z" style="fill:#fff;stroke-width:.575124" transform="scale(.75)"/></svg>