<svg xmlns="http://www.w3.org/2000/svg" width="317" height="317" version="1.0" viewBox="0 0 238 238"><path d="M61 61 4 118l58 58 58 58 58-58 58-58-58-58-59-57-58 58zm47 92c2 0 17-16 22-23 10-16 14-30 16-56 2-29 2-27 4-26 11 3 30 21 37 34 6 12 8 20 9 33 0 10 0 13-2 21a78 78 0 0 1-153-28c5-32 27-57 58-65l8-2v56l1 56z"/><path d="M147 260a105 105 0 0 1-93-92 105 105 0 0 1 87-113 3964 3964 0 0 1 3 149 132 132 0 0 0 45-67c3-12 5-22 7-48l2-25c1-1 3 0 7 2a120 120 0 0 1 51 59c3 11 5 20 5 35 0 10 0 11-2 17-2 12-7 25-13 34s-15 20-23 26c-21 18-49 26-76 23z" style="fill:#fff;stroke-width:.473632" transform="scale(.75)"/></svg>