<svg xmlns="http://www.w3.org/2000/svg" width="317.333" height="317.333" version="1.0" viewBox="0 0 238 238"><path d="M61 60.5 3.5 118l58 58 58 58 58-58.1 58-58.1-58-57.4C145.6 28.8 119.3 3 119 3c-.3 0-26.4 25.9-58 57.5zm47 92.5c2.1 0 17-16 21.8-23.4C140 113.9 144.1 99.9 146 74c2.2-29.1 1.9-27.2 4.3-26.4 10.6 3.2 29.8 21.1 36.4 33.9 6.3 12.2 8.4 20.2 9 33.5.4 9.5.2 13-1.6 20.5-13.3 56-79.9 79-124.6 43.2-21.3-17.1-32.4-44.6-28.6-70.8C45.6 76.2 68.2 51 99 43.1l7.5-1.9.3 55.9c.1 34.2.6 55.9 1.2 55.9z"/><path d="M147.063 260.414c-20.036-2.017-39.755-10.458-56.1-24.013-19.819-16.436-33.45-41.795-36.537-67.973-1.114-9.44-.12-24.71 2.222-34.153 8.606-34.696 34.096-62.78 67.207-74.044 5.475-1.863 17.295-4.967 17.631-4.63.142.142.437 28.665.655 63.384.352 55.954.87 84.335 1.552 85.017 1.453 1.454 17.297-14.59 26.511-26.845 8.502-11.308 15.509-25.973 19.001-39.767 3.03-11.965 4.394-22.191 6.418-48.105 1.418-18.143 2.084-24.522 2.655-25.448.454-.734 2.698-.08 6.87 2.002 12.308 6.142 29.65 22.075 39.276 36.086 3.643 5.302 9.307 16.877 11.466 23.433 3.563 10.814 4.772 19.626 4.797 34.966.016 9.594-.085 10.9-1.276 16.474-2.545 11.91-7.69 25.063-13.474 34.442-5.67 9.194-14.852 19.71-22.856 26.18-21.18 17.118-49.45 25.67-76.018 22.994z" style="fill:#fff;stroke-width:.473632" transform="scale(.75)"/></svg>