<?xml version="1.0" encoding="UTF-8" standalone="no"?>
<svg
   xmlns:dc="http://purl.org/dc/elements/1.1/"
   xmlns:cc="http://creativecommons.org/ns#"
   xmlns:rdf="http://www.w3.org/1999/02/22-rdf-syntax-ns#"
   xmlns:svg="http://www.w3.org/2000/svg"
   xmlns="http://www.w3.org/2000/svg"
   xmlns:sodipodi="http://sodipodi.sourceforge.net/DTD/sodipodi-0.dtd"
   xmlns:inkscape="http://www.inkscape.org/namespaces/inkscape"
   version="1.0"
   width="238.000000pt"
   height="238.000000pt"
   viewBox="0 0 238.000000 238.000000"
   preserveAspectRatio="xMidYMid meet"
   id="svg66"
   sodipodi:docname="proteansup.svg"
   inkscape:version="1.0.1 (3bc2e813f5, 2020-09-07)">
  <defs
     id="defs70" />
  <sodipodi:namedview
     pagecolor="#ffffff"
     bordercolor="#666666"
     borderopacity="1"
     objecttolerance="10"
     gridtolerance="10"
     guidetolerance="10"
     inkscape:pageopacity="0"
     inkscape:pageshadow="2"
     inkscape:window-width="1600"
     inkscape:window-height="837"
     id="namedview68"
     showgrid="false"
     inkscape:zoom="2.1113445"
     inkscape:cx="158.66667"
     inkscape:cy="158.66667"
     inkscape:window-x="-8"
     inkscape:window-y="-8"
     inkscape:window-maximized="1"
     inkscape:current-layer="svg66" />
  <metadata
     id="metadata60">
Created by potrace 1.16, written by Peter Selinger 2001-2019
<rdf:RDF>
  <cc:Work
     rdf:about="">
    <dc:format>image/svg+xml</dc:format>
    <dc:type
       rdf:resource="http://purl.org/dc/dcmitype/StillImage" />
  </cc:Work>
</rdf:RDF>
</metadata>
  <g
     transform="translate(0.000000,238.000000) scale(0.100000,-0.100000)"
     fill="#000000"
     stroke="none"
     id="g64">
    <path
       d="M610 1775 l-575 -575 580 -580 580 -580 580 581 580 581 -580 574 c-319 316 -582 574 -585 574 -3 0 -264 -259 -580 -575z m470 -925 c21 0 170 160 218 234 102 157 143 297 162 556 22 291 19 272 43 264 106 -32 298 -211 364 -339 63 -122 84 -202 90 -335 4 -95 2 -130 -16 -205 -133 -560 -799 -790 -1246 -432 -213 171 -324 446 -286 708 47 317 273 569 581 648 l75 19 3 -559 c1 -342 6 -559 12 -559z"
       id="path62" />
  </g>
  <path
     style="fill:#ffffff;stroke-width:0.473632"
     d="M 147.06269,260.41437 C 127.02675,258.3971 107.30772,249.95649 90.962808,236.40114 71.144047,219.96483 57.512942,194.60562 54.425595,168.42758 c -1.113303,-9.43985 -0.119604,-24.70989 2.222506,-34.15295 8.605416,-34.69585 34.096238,-62.780041 67.206629,-74.044056 5.47499,-1.86257 17.29478,-4.966306 17.63131,-4.629774 0.1421,0.142102 0.43689,28.66513 0.65508,63.3845 0.35163,55.95337 0.86968,84.33462 1.55182,85.01676 1.45349,1.45349 17.29683,-14.58957 26.51111,-26.84532 8.50167,-11.30792 15.50893,-25.97309 19.00107,-39.76648 3.02926,-11.96509 4.39369,-22.19134 6.41838,-48.10517 1.41754,-18.142879 2.08311,-24.52232 2.65497,-25.447614 0.45363,-0.733979 2.69777,-0.08011 6.86936,2.001504 12.30802,6.141683 29.65001,22.075007 39.27583,36.08552 3.64313,5.30263 9.30714,16.87759 11.46683,23.43362 3.56239,10.81411 4.77119,19.62564 4.79678,34.96626 0.016,9.59354 -0.0852,10.89998 -1.27598,16.47338 -2.54482,11.91085 -7.69048,25.06367 -13.47444,34.44204 -5.6704,9.19422 -14.85153,19.71051 -22.85625,26.18011 -21.18045,17.11852 -49.44921,25.66946 -76.01791,22.99446 z"
     id="path72"
     transform="scale(0.74999998)" />
</svg>
