<svg xmlns="http://www.w3.org/2000/svg" width="384" height="385.333" version="1.0" viewBox="0 0 288 289"><path d="M24 144v120h240V24H24v120zm108.2-32.4.3 80.6 7.5-5c8.9-5.8 20.1-17.1 25.9-26.2 15.2-23.4 22.4-54 23.8-100.8.3-11.1.9-20.2 1.2-20.2.4 0 4.2 2 8.5 4.5 30.7 17.5 51.3 46.6 57.2 81 2.3 13.1 1.5 33.8-1.9 46.7-13.5 51.2-58.2 86-110.7 86s-97.2-34.8-110.7-86c-3.4-12.9-4.2-33.6-1.9-46.7 7.8-45.1 40.6-80.6 85-92.1 5-1.2 10.6-2.3 12.3-2.4h3.3l.2 80.6z"/><path d="M179.922 343.523c-29.752-2.306-59.132-13.925-82.818-32.753-6.246-4.965-18.187-16.898-23.224-23.208-13.85-17.353-24.766-39.587-29.675-60.446-4.36-18.526-4.954-44.548-1.429-62.628 7.95-40.77 30.88-75.369 65.218-98.403 9.922-6.657 24.837-14.007 36.043-17.763 9.152-3.067 21.523-6.026 27.888-6.67l3.793-.384.32 107.371c.177 59.054.46 107.51.63 107.68.478.477 14.485-9.255 19.645-13.65 9.835-8.373 19.449-19.06 25.3-28.122 16.955-26.262 26.373-59.576 30.167-106.711.332-4.112.989-16.923 1.461-28.469.837-20.45 1.198-25.305 1.882-25.305.183 0 2.761 1.297 5.73 2.883 42.794 22.866 71.3 61.02 80.38 107.588 3.348 17.174 2.955 42.155-.95 60.34-4.587 21.36-15.78 44.632-30.152 62.69-5.5 6.91-18.45 19.612-25.386 24.9-23.295 17.756-50.008 28.166-79.23 30.874-5.891.546-19.654.646-25.593.186z" style="fill:#fff;stroke-width:.575124" transform="scale(.75)"/></svg>