<svg xmlns="http://www.w3.org/2000/svg" width="384" height="385" version="1.0" viewBox="0 0 288 289"><path d="M24 144v120h240V24H24v120zm108-32v80l8-5c9-6 20-17 26-26 15-23 22-54 24-101l1-20 8 5a115 115 0 0 1 56 127c-14 51-58 86-111 86A113 113 0 0 1 31 126a115 115 0 0 1 98-95h3v81z"/><path d="M180 344A154 154 0 0 1 44 227 152 152 0 0 1 172 42l4-1v108l1 107a138 138 0 0 0 45-41c17-27 26-60 30-107a1080 1080 0 0 0 3-54l6 3a154 154 0 0 1 79 168 159 159 0 0 1-55 87 152 152 0 0 1-105 32z" style="fill:#fff;stroke-width:.575124" transform="scale(.75)"/></svg>