<svg xmlns="http://www.w3.org/2000/svg" width="384" height="385.333" version="1.0" viewBox="0 0 288 289"><path d="M24 144v120h240V24H24v120zM144 40.7c0 3 5.2 90.8 5.4 91 .2.2 1.6.5 3.2.9l3 .6 1.3-11.9c1.6-15.1 6.6-51.2 8.7-62.6 2.7-14.4 7.2-18.7 13.3-12.6 6.4 6.3 6.2 2.7 2.6 65.4-1.9 31.4-3.6 61-4 66l-.6 9 9.9-15.1c7.9-12 10.8-15.6 14.8-18.2 6.2-4.1 11.6-4.2 14.7-.1l1.9 2.7-7.4 17.3c-4.3 9.9-8.7 22.1-10.3 28.4-5.7 22.8-12.7 38.8-19.3 44.6-14.6 12.6-17.9 13.6-33.9 10.3-4.6-1-11.4-1.6-16.5-1.5-7.6.2-9.5-.1-14.3-2.3-21.8-10-35.6-48.6-37.2-104.8-.4-11.9-.1-22.7.7-30C83.7 84 96.8 57 115.5 44.5c5.7-3.7 11.5-5.1 23.3-5.4 4.3-.1 5.2.2 5.2 1.6z"/><path d="M141.6 156.6c-.3.9-.6 3.4-.6 5.6 0 9.3-4.1 19.8-12.3 31.3-5.2 7.3-8.7 17.5-8.7 25.4 0 4.8.5 6.5 2.8 9.7 3.1 4.3 13.4 10.4 17.4 10.4 3.8 0 14.3-5.7 17.7-9.5 3.5-4.1 5.5-10.4 4.6-14.8-1.4-7-4.9-16.6-8.7-23.4-3.8-7.1-7.9-20.6-9.3-31.1-.7-5.2-1.8-6.6-2.9-3.6z"/><path d="M208.103 343.524c-1.107-.12-5.506-.844-9.777-1.612-9.232-1.659-12.747-1.973-25.367-2.268-11.125-.26-14.776-1.213-22.066-5.757-22.688-14.14-38.567-54.744-43.42-111.026-4.756-55.157.39-94.467 16.604-126.815 6.367-12.705 14.542-23.663 23.07-30.925 8.046-6.852 13.973-9.807 22.737-11.335 6.452-1.126 19.8-1.737 20.927-.958.655.452 1.096 5.456 2.145 24.338 1.824 32.834 5.273 90.24 5.705 94.933l.356 3.876 2.21.595c1.216.327 3.186.654 4.38.726l2.168.13 1.008-9.202c2.623-23.953 9.53-74.586 12.002-87.994 2.222-12.048 5.044-18.815 8.9-21.342 1.228-.805 1.835-.86 3.616-.326 2.935.88 8.347 5.848 9.978 9.16 1.313 2.667 1.344 3.094 1.297 18.26-.027 8.54-.486 22.774-1.022 31.63-.535 8.858-2.131 35.644-3.546 59.526-1.416 23.882-2.982 49.434-3.48 56.782-.5 7.348-.823 13.759-.72 14.246.104.488 5.365-6.927 11.691-16.477 15.33-23.142 20.276-28.321 29.266-30.647 4.37-1.131 7.548-.414 10.283 2.32 3.953 3.954 4.058 3.138-2.352 18.122-10.253 23.963-14.522 35.56-18.293 49.687-5.25 19.67-11.55 36.63-17.3 46.564-3.13 5.41-10.063 12.595-17.408 18.04-5.838 4.329-10.597 6.683-15.214 7.526-3.374.616-4.451.645-8.378.223zm-16.678-25.612c3.295-.987 10.357-4.739 14.723-7.821 6.274-4.43 10.134-11.114 10.943-18.95.638-6.178-3.602-19.715-10.758-34.348-6.482-13.254-10.005-24.324-12.905-40.546-1.539-8.612-2.375-10.565-3.959-9.25-.928.77-1.103 1.822-2.067 12.413-1.063 11.68-5.119 21.79-14.37 35.823-5.468 8.293-8.194 13.614-10.334 20.163-3.317 10.153-3.853 21.412-1.258 26.426 2.556 4.94 8.896 10.262 17.19 14.432 5.729 2.88 7.815 3.15 12.795 1.658z" style="fill:#fff;stroke-width:.575124" transform="scale(.75)"/></svg>