<?xml version="1.0" encoding="UTF-8" standalone="no"?>
<svg
   xmlns:dc="http://purl.org/dc/elements/1.1/"
   xmlns:cc="http://creativecommons.org/ns#"
   xmlns:rdf="http://www.w3.org/1999/02/22-rdf-syntax-ns#"
   xmlns:svg="http://www.w3.org/2000/svg"
   xmlns="http://www.w3.org/2000/svg"
   xmlns:sodipodi="http://sodipodi.sourceforge.net/DTD/sodipodi-0.dtd"
   xmlns:inkscape="http://www.inkscape.org/namespaces/inkscape"
   version="1.0"
   width="238.000000pt"
   height="238.000000pt"
   viewBox="0 0 238.000000 238.000000"
   preserveAspectRatio="xMidYMid meet"
   id="svg111"
   sodipodi:docname="quietussup.svg"
   inkscape:version="1.0.1 (3bc2e813f5, 2020-09-07)">
  <defs
     id="defs115" />
  <sodipodi:namedview
     pagecolor="#ffffff"
     bordercolor="#666666"
     borderopacity="1"
     objecttolerance="10"
     gridtolerance="10"
     guidetolerance="10"
     inkscape:pageopacity="0"
     inkscape:pageshadow="2"
     inkscape:window-width="1600"
     inkscape:window-height="837"
     id="namedview113"
     showgrid="false"
     inkscape:zoom="2.1113445"
     inkscape:cx="158.66667"
     inkscape:cy="158.66667"
     inkscape:window-x="-8"
     inkscape:window-y="-8"
     inkscape:window-maximized="1"
     inkscape:current-layer="svg111" />
  <metadata
     id="metadata103">
Created by potrace 1.16, written by Peter Selinger 2001-2019
<rdf:RDF>
  <cc:Work
     rdf:about="">
    <dc:format>image/svg+xml</dc:format>
    <dc:type
       rdf:resource="http://purl.org/dc/dcmitype/StillImage" />
  </cc:Work>
</rdf:RDF>
</metadata>
  <g
     transform="translate(0.000000,238.000000) scale(0.100000,-0.100000)"
     fill="#000000"
     stroke="none"
     id="g109">
    <path
       d="M610 1775 l-575 -575 580 -580 580 -580 580 581 580 581 -580 574 c-319 316 -582 574 -585 574 -3 0 -264 -259 -580 -575z m600 256 c0 -5 9 -159 21 -342 20 -327 23 -348 54 -349 6 0 23 97 39 226 43 348 67 444 112 444 6 0 26 -16 43 -35 39 -44 38 -23 6 -573 -14 -233 -24 -429 -23 -434 2 -6 28 27 58 73 91 142 158 197 209 170 36 -20 33 -45 -20 -166 -28 -65 -66 -175 -85 -244 -40 -146 -100 -280 -138 -307 -15 -11 -43 -31 -62 -46 -50 -38 -95 -44 -189 -26 -44 9 -97 14 -118 11 -106 -14 -202 57 -272 201 -65 135 -99 288 -114 522 -23 346 48 629 195 777 32 32 72 66 89 75 44 24 195 41 195 23z"
       id="path105" />
    <path
       d="M1196 1165 c-3 -9 -6 -29 -6 -45 0 -50 -39 -156 -75 -203 -48 -62 -76 -131 -82 -197 -6 -71 16 -106 89 -145 l55 -29 47 18 c57 22 112 72 122 111 11 45 -11 131 -61 230 -31 63 -49 117 -61 180 -9 50 -17 91 -19 93 -1 2 -5 -4 -9 -13z"
       id="path107" />
  </g>
  <path
     style="fill:#ffffff;stroke-width:0.473632"
     d="m 163.87662,260.6693 c -4.86969,-0.86497 -8.14421,-1.14001 -13.73533,-1.1537 -4.67609,-0.0115 -8.43758,-0.26888 -10.361,-0.7091 -19.37698,-4.43481 -34.81895,-33.07593 -40.073638,-74.3269 -5.586727,-43.85758 -1.817338,-80.47079 10.899978,-105.874717 4.96623,-9.920468 10.98473,-17.534038 19.39683,-24.537507 5.06337,-4.215498 7.49635,-5.40727 13.76702,-6.743645 5.3753,-1.145556 16.47751,-1.797771 16.97237,-0.997065 0.17179,0.277963 1.26134,15.704145 2.42122,34.280405 2.24308,35.924379 2.82707,43.980339 3.59855,49.641689 0.84928,6.23233 1.92975,8.52537 4.0171,8.52537 0.93726,0 1.16496,-0.40559 1.8033,-3.21213 1.11871,-4.91862 2.40843,-13.44349 4.7807,-31.59981 4.51788,-34.577847 6.92719,-46.482657 10.49974,-51.881153 2.28817,-3.457656 4.18146,-3.072094 8.71559,1.7749 5.40862,5.781832 5.37839,4.206203 1.39738,72.840583 -2.73457,47.14517 -3.44284,61.36504 -3.07443,61.72476 0.53984,0.52712 3.78294,-3.45764 8.37964,-10.29597 12.6838,-18.8692 21.07593,-25.6018 27.23293,-21.84764 4.38053,2.67098 4.12656,4.73778 -2.56345,20.86064 -4.26523,10.27915 -7.6971,20.10505 -11.81364,33.82406 -5.32263,17.73846 -11.02621,31.43063 -15.57339,37.38588 -1.48859,1.94956 -9.82583,8.55503 -13.95314,11.05489 -4.60575,2.78964 -11.87734,3.19462 -22.73433,1.26616 z m -1.89453,-17.82676 c 8.16461,-3.30454 14.20305,-8.06975 16.78072,-13.24246 2.9545,-5.92892 0.94274,-15.389 -6.91403,-32.5124 -4.91969,-10.72219 -6.57377,-15.79564 -8.89751,-27.29067 -1.0532,-5.20995 -1.91526,-9.52592 -1.91568,-9.59104 -4.2e-4,-0.0651 -0.2064,-0.11841 -0.45773,-0.11841 -0.92055,0 -1.47796,2.00884 -2.14887,7.7443 -1.18169,10.10202 -4.57195,18.90947 -10.87492,28.25172 -2.02114,2.99572 -4.29665,6.67815 -5.05668,8.18317 -3.36653,6.6664 -5.52913,16.15812 -4.99201,21.91003 0.57218,6.12733 3.85368,10.22358 11.54417,14.41039 2.55419,1.39054 5.28339,2.90485 6.06488,3.36513 0.78149,0.46029 1.52746,0.85177 1.65771,0.86997 0.13025,0.0182 2.47473,-0.87268 5.20995,-1.97973 z"
     id="path117"
     transform="scale(0.74999998)" />
</svg>
