<svg xmlns="http://www.w3.org/2000/svg" width="317" height="317" version="1.0" viewBox="0 0 238 238"><path d="M61 61 4 118l58 58 58 58 58-58 58-58-58-58-59-57-58 58zm60-26 2 34c2 33 2 35 5 35 1 0 3-10 4-23 5-34 7-44 12-44l4 4c4 4 4 2 1 57l-3 43 6-7c9-14 16-20 21-17 4 2 3 4-2 17l-9 24c-4 15-10 28-13 31l-7 4c-5 4-9 5-18 3-5-1-10-2-12-1-11 1-20-6-27-20s-10-29-12-53c-2-34 5-63 20-77l8-8c5-2 20-4 20-2z"/><path d="m120 122-1 4c0 5-4 16-7 20-5 7-8 13-9 20 0 7 2 11 9 15l6 2 4-1c6-3 12-8 13-12s-2-13-7-22l-6-18-1-10-1 2z"/><path d="m164 261-14-1-10-1c-20-5-35-33-40-75-6-43-2-80 11-105 5-10 11-18 19-25 5-4 8-5 14-7l17-1a1090 1090 0 0 1 6 84c1 6 2 9 4 9l2-3 4-32c5-35 7-47 11-52 2-3 4-3 9 2 5 6 5 4 1 73l-3 61c0 1 4-3 8-10 13-19 21-25 28-22 4 3 4 5-3 21l-12 34c-5 18-11 31-15 37l-14 11c-5 3-12 4-23 2zm-2-18c8-3 14-8 17-13 3-6 1-16-7-33-5-11-7-16-9-27a1059 1059 0 0 1-2-10c-1 0-2 2-3 8-1 10-4 19-10 28l-6 8c-3 7-5 16-4 22 0 6 3 10 11 15a324 324 0 0 1 8 4l5-2z" style="fill:#fff;stroke-width:.473632" transform="scale(.75)"/></svg>