<svg xmlns="http://www.w3.org/2000/svg" width="317.333" height="317.333" version="1.0" viewBox="0 0 238 238"><path d="M61 60.5 3.5 118l58 58 58 58 58-58.1 58-58.1-58-57.4C145.6 28.8 119.3 3 119 3c-.3 0-26.4 25.9-58 57.5zm60-25.6c0 .5.9 15.9 2.1 34.2 2 32.7 2.3 34.8 5.4 34.9.6 0 2.3-9.7 3.9-22.6 4.3-34.8 6.7-44.4 11.2-44.4.6 0 2.6 1.6 4.3 3.5 3.9 4.4 3.8 2.3.6 57.3-1.4 23.3-2.4 42.9-2.3 43.4.2.6 2.8-2.7 5.8-7.3 9.1-14.2 15.8-19.7 20.9-17 3.6 2 3.3 4.5-2 16.6-2.8 6.5-6.6 17.5-8.5 24.4-4 14.6-10 28-13.8 30.7-1.5 1.1-4.3 3.1-6.2 4.6-5 3.8-9.5 4.4-18.9 2.6-4.4-.9-9.7-1.4-11.8-1.1-10.6 1.4-20.2-5.7-27.2-20.1-6.5-13.5-9.9-28.8-11.4-52.2-2.3-34.6 4.8-62.9 19.5-77.7 3.2-3.2 7.2-6.6 8.9-7.5 4.4-2.4 19.5-4.1 19.5-2.3z"/><path d="M119.6 121.5c-.3.9-.6 2.9-.6 4.5 0 5-3.9 15.6-7.5 20.3-4.8 6.2-7.6 13.1-8.2 19.7-.6 7.1 1.6 10.6 8.9 14.5l5.5 2.9 4.7-1.8c5.7-2.2 11.2-7.2 12.2-11.1 1.1-4.5-1.1-13.1-6.1-23-3.1-6.3-4.9-11.7-6.1-18-.9-5-1.7-9.1-1.9-9.3-.1-.2-.5.4-.9 1.3z"/><path d="M163.877 260.67c-4.87-.866-8.145-1.14-13.736-1.154-4.676-.012-8.437-.27-10.36-.71-19.378-4.434-34.82-33.075-40.074-74.326-5.587-43.858-1.818-80.471 10.9-105.875 4.966-9.92 10.984-17.534 19.396-24.538 5.064-4.215 7.497-5.407 13.767-6.743 5.376-1.146 16.478-1.798 16.973-.997.172.278 1.261 15.704 2.421 34.28 2.243 35.924 2.827 43.98 3.599 49.642.849 6.232 1.93 8.525 4.017 8.525.937 0 1.165-.405 1.803-3.212 1.119-4.919 2.408-13.443 4.78-31.6 4.519-34.578 6.928-46.482 10.5-51.881 2.289-3.458 4.182-3.072 8.716 1.775 5.409 5.782 5.378 4.206 1.397 72.84-2.734 47.146-3.442 61.366-3.074 61.725.54.527 3.783-3.457 8.38-10.296 12.683-18.869 21.076-25.601 27.233-21.847 4.38 2.67 4.126 4.737-2.564 20.86-4.265 10.28-7.697 20.105-11.814 33.824-5.322 17.739-11.026 31.431-15.573 37.386-1.488 1.95-9.826 8.555-13.953 11.055-4.606 2.79-11.877 3.195-22.734 1.266zm-1.895-17.827c8.165-3.305 14.203-8.07 16.78-13.243 2.955-5.929.944-15.389-6.913-32.512-4.92-10.723-6.574-15.796-8.898-27.291-1.053-5.21-1.915-9.526-1.915-9.591 0-.065-.207-.118-.458-.118-.92 0-1.478 2.008-2.149 7.744-1.182 10.102-4.572 18.91-10.875 28.252-2.021 2.995-4.297 6.678-5.057 8.183-3.366 6.666-5.529 16.158-4.992 21.91.573 6.127 3.854 10.223 11.545 14.41 2.554 1.39 5.283 2.905 6.064 3.365.782.46 1.528.852 1.658.87.13.018 2.475-.872 5.21-1.98z" style="fill:#fff;stroke-width:.473632" transform="scale(.75)"/></svg>