<svg xmlns="http://www.w3.org/2000/svg" width="384" height="385" version="1.0" viewBox="0 0 288 289"><path d="M24 144v120h240V24H24v120zM144 41l5 91 4 1h3l1-12 9-62c2-15 7-19 13-13s6 3 3 65l-4 66-1 10 10-16c8-12 11-15 15-18 6-4 11-4 14 0l2 3-7 17c-4 10-9 22-10 29-6 22-13 38-20 44-14 13-18 14-34 10l-16-1c-8 0-10 0-15-2-21-10-35-49-37-105l1-30c4-34 17-61 36-73 5-4 11-6 23-6 4 0 5 0 5 2z"/><path d="m142 157-1 5c0 9-4 20-12 31-6 8-9 18-9 26 0 5 0 6 3 10s13 10 17 10 14-6 18-9c3-5 5-11 4-15-1-7-4-17-8-24s-8-20-10-31c0-5-1-6-2-3z"/><path d="m208 344-10-2c-9-2-12-2-25-2-11-1-15-2-22-6-23-14-39-55-44-111-4-55 1-95 17-127 6-13 15-24 23-31s14-10 23-11c6-1 20-2 21-1l2 24 6 95v4l2 1h7l1-9c2-24 9-74 12-88 2-12 5-19 9-21h3c3 0 9 5 10 9a670 670 0 0 1-3 109 10798 10798 0 0 1-4 71l11-16c16-23 21-29 30-31 4-1 7 0 10 2 4 4 4 4-2 18-11 24-15 36-19 50-5 20-11 37-17 47-3 5-10 12-17 18-6 4-11 6-16 7l-8 1zm-17-26 15-8c6-4 10-11 11-19 1-6-4-20-11-34-6-13-10-25-13-41-1-8-2-10-4-9l-2 12c-1 12-5 22-14 36l-10 20c-4 11-4 22-2 27 3 5 9 10 18 14 5 3 7 3 12 2z" style="fill:#fff;stroke-width:.575124" transform="scale(.75)"/></svg>