<?xml version="1.0" encoding="UTF-8" standalone="no"?>
<svg
   xmlns:dc="http://purl.org/dc/elements/1.1/"
   xmlns:cc="http://creativecommons.org/ns#"
   xmlns:rdf="http://www.w3.org/1999/02/22-rdf-syntax-ns#"
   xmlns:svg="http://www.w3.org/2000/svg"
   xmlns="http://www.w3.org/2000/svg"
   xmlns:sodipodi="http://sodipodi.sourceforge.net/DTD/sodipodi-0.dtd"
   xmlns:inkscape="http://www.inkscape.org/namespaces/inkscape"
   version="1.0"
   width="288.000000pt"
   height="289.000000pt"
   viewBox="0 0 288.000000 289.000000"
   preserveAspectRatio="xMidYMid meet"
   id="svg460"
   sodipodi:docname="reaction.svg"
   inkscape:version="1.0.1 (3bc2e813f5, 2020-09-07)">
  <defs
     id="defs464" />
  <sodipodi:namedview
     pagecolor="#ffffff"
     bordercolor="#666666"
     borderopacity="1"
     objecttolerance="10"
     gridtolerance="10"
     guidetolerance="10"
     inkscape:pageopacity="0"
     inkscape:pageshadow="2"
     inkscape:window-width="1600"
     inkscape:window-height="837"
     id="namedview462"
     showgrid="false"
     inkscape:zoom="1.7387543"
     inkscape:cx="192"
     inkscape:cy="192.66667"
     inkscape:window-x="-8"
     inkscape:window-y="-8"
     inkscape:window-maximized="1"
     inkscape:current-layer="svg460" />
  <metadata
     id="metadata452">
Created by potrace 1.16, written by Peter Selinger 2001-2019
<rdf:RDF>
  <cc:Work
     rdf:about="">
    <dc:format>image/svg+xml</dc:format>
    <dc:type
       rdf:resource="http://purl.org/dc/dcmitype/StillImage" />
  </cc:Work>
</rdf:RDF>
</metadata>
  <g
     transform="translate(0.000000,289.000000) scale(0.100000,-0.100000)"
     fill="#000000"
     stroke="none"
     id="g458">
    <path
       d="M240 1450 l0 -1200 1200 0 1200 0 0 1200 0 1200 -1200 0 -1200 0 0 -1200z m1380 1125 c237 -39 450 -147 619 -314 137 -137 223 -276 286 -464 45 -137 59 -241 52 -401 -12 -293 -123 -545 -331 -752 -224 -223 -495 -336 -806 -337 -309 0 -582 114 -806 337 -208 207 -319 459 -331 752 -7 156 6 260 49 394 173 541 712 875 1268 785z"
       id="path454" />
    <path
       d="M817 2103 l-297 -298 300 -300 300 -300 0 163 0 163 314 -3 c300 -3 316 -4 342 -24 60 -44 84 -105 70 -179 -9 -48 -68 -112 -114 -125 -21 -5 -139 -10 -264 -10 l-228 0 0 -281 0 -281 308 4 c345 5 366 8 523 89 196 102 339 282 384 484 26 116 17 304 -19 410 -74 219 -247 397 -462 477 -57 21 -76 22 -456 26 l-397 3 -3 140 -3 139 -298 -297z"
       id="path456" />
  </g>
  <path
     style="fill:#ffffff;stroke-width:0.575124"
     d="M 178.19701,343.5434 C 142.02963,340.00573 111.71384,325.63979 85.549286,299.6398 60.603553,274.85097 47.255963,248.70473 42.022784,214.37689 c -1.447561,-9.4955 -1.411814,-39.24842 0.05649,-47.0157 4.93537,-26.10798 15.825951,-50.11227 31.833453,-70.16517 5.251688,-6.578889 16.491976,-17.792095 23.210346,-23.154423 17.073617,-13.627462 37.870247,-23.977532 58.548557,-29.138455 19.26403,-4.807943 38.05435,-5.74403 57.81247,-2.880073 30.9083,4.480183 59.96429,18.601072 82.84453,40.261535 25.12634,23.786806 42.47302,58.160536 46.37586,91.897206 0.91043,7.86977 0.40941,32.75036 -0.82162,40.80172 -5.53119,36.17607 -21.75435,65.7942 -49.72798,90.78684 -23.88287,21.3378 -51.04752,33.58776 -82.68982,37.28916 -6.62943,0.77549 -25.32839,1.06485 -31.26806,0.48387 z m 24.44279,-42.17697 c 40.47632,-0.689 47.99243,-1.29312 57.87966,-4.65219 5.8514,-1.98794 22.15327,-10.55278 28.10144,-14.7642 6.66109,-4.71619 18.15749,-15.9804 22.91308,-22.45028 9.39351,-12.7797 15.49895,-27.75228 17.2857,-42.39031 1.29087,-10.57553 0.6451,-27.70492 -1.44185,-38.24577 -3.56891,-18.02599 -15.84099,-38.98785 -30.53964,-52.16454 -13.35342,-11.97076 -29.83735,-20.85539 -41.92354,-22.59626 -5.03337,-0.72499 -51.05499,-1.66172 -83.70138,-1.70366 -18.67039,-0.024 -21.11411,-0.13085 -21.42338,-0.93681 -0.192,-0.50034 -0.3795,-6.38818 -0.41665,-13.084075 -0.0371,-6.695895 -0.23126,-14.700443 -0.43134,-17.787883 l -0.36379,-5.613529 -39.82736,39.834967 -39.827367,39.83497 40.258707,40.25563 40.25871,40.25562 v -21.7094 -21.70941 l 24.299,0.0303 c 28.91745,0.036 56.86045,0.80902 59.69054,1.65129 3.00793,0.89518 8.10817,5.73781 10.22406,9.70764 3.03714,5.69826 3.36543,13.83658 0.77407,19.18961 -1.65497,3.41871 -6.33074,8.55949 -9.82422,10.80125 -3.94457,2.53123 -7.56457,2.81686 -41.59778,3.28219 l -28.03732,0.38334 v 37.57771 37.57771 l 2.73185,-0.0128 c 1.50251,-0.007 17.22497,-0.25952 34.9388,-0.56105 z"
     id="path466"
     transform="scale(0.74999999)" />
</svg>
