<svg xmlns="http://www.w3.org/2000/svg" width="384" height="385.333" version="1.0" viewBox="0 0 288 289"><path d="M24 144v120h240V24H24v120zM162 31.5c23.7 3.9 45 14.7 61.9 31.4 13.7 13.7 22.3 27.6 28.6 46.4 4.5 13.7 5.9 24.1 5.2 40.1-1.2 29.3-12.3 54.5-33.1 75.2-22.4 22.3-49.5 33.6-80.6 33.7-30.9 0-58.2-11.4-80.6-33.7-20.8-20.7-31.9-45.9-33.1-75.2-.7-15.6.6-26 4.9-39.4C52.5 55.9 106.4 22.5 162 31.5z"/><path d="M81.7 78.7 52 108.5l30 30 30 30v-32.6l31.4.3c30 .3 31.6.4 34.2 2.4 6 4.4 8.4 10.5 7 17.9-.9 4.8-6.8 11.2-11.4 12.5-2.1.5-13.9 1-26.4 1H124v56.2l30.8-.4c34.5-.5 36.6-.8 52.3-8.9 19.6-10.2 33.9-28.2 38.4-48.4 2.6-11.6 1.7-30.4-1.9-41-7.4-21.9-24.7-39.7-46.2-47.7-5.7-2.1-7.6-2.2-45.6-2.6l-39.7-.3-.3-14-.3-13.9-29.8 29.7z"/><path d="M178.197 343.543c-36.167-3.537-66.483-17.903-92.648-43.903-24.945-24.789-38.293-50.935-43.526-85.263-1.448-9.496-1.412-39.249.056-47.016 4.936-26.108 15.826-50.112 31.834-70.165 5.251-6.579 16.492-17.792 23.21-23.154 17.074-13.628 37.87-23.978 58.549-29.139 19.264-4.808 38.054-5.744 57.812-2.88 30.908 4.48 59.964 18.601 82.845 40.262 25.126 23.786 42.473 58.16 46.375 91.897.91 7.87.41 32.75-.821 40.802-5.531 36.176-21.754 65.794-49.728 90.786-23.883 21.338-51.048 33.588-82.69 37.29-6.63.775-25.328 1.064-31.268.483zm24.443-42.177c40.476-.689 47.992-1.293 57.88-4.652 5.85-1.988 22.153-10.553 28.1-14.764 6.662-4.716 18.158-15.98 22.914-22.45 9.393-12.78 15.499-27.753 17.286-42.39 1.29-10.576.645-27.705-1.442-38.246-3.57-18.026-15.841-38.988-30.54-52.165-13.353-11.97-29.837-20.855-41.923-22.596-5.034-.725-51.055-1.662-83.702-1.704-18.67-.024-21.114-.13-21.423-.937-.192-.5-.38-6.388-.417-13.084-.037-6.696-.231-14.7-.431-17.788l-.364-5.613-39.827 39.835-39.828 39.835 40.26 40.255 40.258 40.256V181.74l24.299.03c28.917.037 56.86.81 59.69 1.652 3.008.895 8.109 5.738 10.224 9.708 3.038 5.698 3.366 13.836.774 19.19-1.655 3.418-6.33 8.559-9.824 10.8-3.944 2.532-7.564 2.817-41.598 3.283l-28.037.383v75.155l2.732-.012c1.503-.007 17.225-.26 34.939-.562z" style="fill:#fff;stroke-width:.575124" transform="scale(.75)"/></svg>