<svg xmlns="http://www.w3.org/2000/svg" width="400" height="400" version="1.0" viewBox="0 0 300 300"><path d="M139 1c-29 3-49 10-71 25l-8 5v32H30l-3 5a150 150 0 0 0 2 164l5 8h26v26l8 5c17 11 35 19 54 23 15 3 44 3 59 0 17-4 36-11 51-21l5-3v-30h32l5-8c12-18 20-38 24-58 2-13 2-38 0-52-3-17-13-41-22-55l-3-4h-36V27l-5-3a159 159 0 0 0-93-23zm52 17c12 4 22 8 29 13l6 3v40h40l3 6c5 7 9 17 13 29l3 9 1 27-1 35c-4 14-11 31-19 43l-3 5-19 1h-18v35l-7 4c-21 12-43 17-67 17-28 0-52-7-75-21l-6-4v-31H41l-4-5c-9-15-17-35-21-53-2-11-2-34 0-45 3-13 7-27 14-40l6-12h35V38l6-4c11-7 27-15 41-18 7-2 11-2 36-2l28 1 9 3z"/><path d="M132 67c-4 1-8 2-10 4-11 6-14 8-19 14l-4 5h-9c-8 1-11 1-17 4a59 59 0 0 0-15 8 80 80 0 0 0-19 22l-3 8c-2 6-2 7-2 21s1 16 3 20l2 5c0 2 8 13 14 18 6 7 13 11 22 14 7 3 17 4 22 4 4 0 5 0 8 3a47 47 0 0 0 16 12c10 6 29 8 43 4 11-2 22-9 29-17 3-3 4-3 8-2l11-1a63 63 0 0 0 50-37c3-7 3-8 4-23 0-15 0-15-3-23a69 69 0 0 0-8-15 74 74 0 0 0-28-21c-6-3-9-3-18-4h-10l-3-4-5-5-5-4a66 66 0 0 0-54-10zm29 6a53 53 0 0 1 23 12l4 3 2 3-6 2-7 3-5 3-5 3-5 5-5 5h-14l-5-5-5-5-4-2c-4-3-17-9-20-9-2 0-1-1 3-5 6-6 17-12 24-13h25zM94 96l-2 5c-5 10-7 25-4 36 2 10 2 17 0 26-2 5-2 10-2 14 1 10 5 23 9 27l1 3c-1 1-19-3-23-5l-7-4c-3-1-15-12-15-13l-2-4a53 53 0 0 1-9-30c0-21 15-43 35-50 8-4 19-6 19-5zm120 1 9 3 6 2 15 10c5 6 10 15 13 23 3 9 4 21 2 29a53 53 0 0 1-10 21 65 65 0 0 1-45 22c-3 0-3 0-2-3l6-13c2-6 2-30 0-36-2-5-2-5-1-9 4-9 3-33-1-42-3-8-3-8 0-8l8 1zm-99 4a57 57 0 0 1 16 9l2 3-22 11-15 16-2-6c-1-7-1-10 2-23 1-7 6-14 8-14l11 4zm82-1 2 6 3 7c2 4 2 19 1 24l-2 5-2-4c-4-6-18-19-21-19l-6-2-6-3c-1 0 5-7 7-7l2-1 19-9 3 3zm-56 21 3 5c2 4 2 5 0 14-2 6-1 22 1 28 2 3 1 4-1 8-2 5-3 5-6 5a67 67 0 0 1-23-11l-5-5-6-6-2-3-2-3-1-3 1-3 2-3 2-3 6-6 5-5 3-2c2-2 17-9 20-9l3 2zm10 0-1 1-1-1c-1-1 0-2 1-2s2 1 1 2zm18 2 4 1 2 1 2 2c3 1 17 15 19 19s2 4 0 8l-3 4-1 1c0 3-13 13-21 17-12 6-12 6-15 0-3-4-3-5-1-9 2-6 2-21 0-29l-1-8 2-4c4-7 4-7 8-5l5 2zm-70 41 13 13a84 84 0 0 0 24 11c0 1-9 9-12 10l-5 3c-4 3-15 5-16 4-4-6-8-16-10-27 0-5 2-20 3-18l3 4zm105 12-2 12-2 5c-2 6-5 11-6 11-3 1-10-1-14-3l-5-3-6-5c-5-4-6-7-3-7l6-2 6-3c3 0 17-13 21-18l2-4 2 4 1 13zm-44 18 8 8 14 7 3 1c3 1 3 1 2 3l-3 2-2 2c-2 3-13 8-20 10l-16 1a49 49 0 0 1-36-16l5-2c9-2 16-7 25-16 5-5 6-6 10-6s5 1 10 6z"/><path d="M192 380a180 180 0 0 1-89-29l-8-5v-41H54l-4-7c-14-21-25-51-29-75a263 263 0 0 1 4-67c4-15 8-27 18-45l6-12h46V51l6-4c18-12 41-22 60-26 6-2 7-2 43-1h37l10 3c19 6 31 11 44 19l6 4v53h53l4 6c8 13 13 25 19 44l3 10v37c1 36 1 37-1 43-4 18-14 42-25 59l-4 6-25 1h-24v46l-9 5a183 183 0 0 1-100 24zm24-68c15-3 28-10 40-22l6-5h6c10 1 26-2 37-7 15-6 29-17 37-30 4-6 10-18 11-23l2-38a79 79 0 0 0-42-57c-12-7-19-9-35-10l-12-1-8-7a69 69 0 0 0-31-20c-11-4-22-6-34-5-15 0-24 3-36 10s-15 9-23 19l-3 3-10 1a68 68 0 0 0-40 13l-4 3-17 17-4 6-5 8-3 9-2 6-1 15c0 16 1 26 2 30 5 13 8 18 17 29 11 13 25 22 42 26l22 3 7 1 8 7a77 77 0 0 0 17 12c7 4 17 7 27 8 5 1 24 0 29-1z" style="fill:#fff;stroke-width:.597015" transform="scale(.75)"/><path d="M115 274c-11-2-16-4-21-7-7-3-8-4-17-12-10-9-15-18-20-32-5-17-4-34 4-51a76 76 0 0 1 63-44c1 1 0 3-2 6-7 17-9 33-5 50 2 11 2 21 0 32l-2 12a92 92 0 0 0 12 47l-12-1z" style="fill:#fff;stroke-width:.597015" transform="scale(.75)"/><path d="m127 185-2-18c0-8 3-22 6-27l7-10c1-1 1-1 7 1 13 5 26 12 30 16l2 3-3 1-27 14-17 18c-2 3-2 3-3 2zm58-42a56 56 0 0 0-14-11c-6-4-22-11-25-11-2 0-2-1 3-6 6-5 13-10 20-13 9-4 11-5 25-5 19-1 23 0 37 7l10 6 5 4 6 6-9 5a82 82 0 0 0-19 10l-10 9-5 5h-18zm80 40c-4-7-23-23-27-24l-7-4-8-3v-2c2-3 6-6 11-9 4-3 16-8 22-10l3-1 2 2a75 75 0 0 1 9 50c-1 6-1 6-5 1z" style="fill:#fff;stroke-width:.597015" transform="scale(.75)"/><path d="m269 275 2-5c4-6 7-16 8-20v-35l-2-10-2-5 1-4c3-6 3-11 4-21 0-16-1-29-6-39l-2-7h5c8 0 21 4 31 9l17 13c6 6 14 20 18 29 3 9 4 24 3 32-1 5-5 19-8 23l-8 13c-3 5-20 17-25 20-8 3-22 7-31 8l-5-1z" style="fill:#fff;stroke-width:.597015" transform="scale(.75)"/><path d="m248 271-9-4-6-4c-3-1-13-12-13-13s1-2 3-2a112 112 0 0 0 16-7c3 0 22-18 26-24 4-5 4-5 5 1 1 5 2 17 0 25-1 7-8 24-11 28-2 2-5 2-11 0zm-62 32c-7-1-13-3-19-6-9-4-20-12-19-14l6-3a71 71 0 0 0 32-21l10-7h9l10 9 11 9 17 9 7 3c0 1-3 5-5 5l-4 2c-5 6-18 11-28 13l-27 1zm-50-32c-6-10-11-28-11-39l3-18 2 3 20 20c6 3 19 10 24 11 8 3 8 2 3 6-11 11-26 19-36 19-3 0-3 0-5-2zm41-32a94 94 0 0 1-24-13 91 91 0 0 1-19-22c-2-3-2-5 0-8l2-4 9-10 11-10c4-3 16-9 23-11 5-2 6-2 7-1l1 1 4 6c3 5 3 5 3 9l-2 8c-2 11-2 29 2 42 1 2 1 3-1 7l-4 6c-1 1-1 2-4 2l-8-2zm35 1-4-6-3-5 2-6c3-12 3-28 0-43l-2-6 4-6 4-7c1-1 4-1 9 2l8 3 3 1 4 2 19 19c5 5 7 10 7 12s-2 7-5 9l-3 4c-2 5-16 16-28 22-9 5-13 6-15 5zm-13-79v-2h2c1 1 0 3-1 3l-1-1zm-72 24-2-18c1-9 3-22 6-27 2-5 6-10 8-10 2-1 20 6 29 12l9 8-4 2-24 12c-4 3-15 14-18 19-3 3-3 3-4 2zm139-1-22-22-8-5-14-5 11-11 23-10 3-1 2 2a75 75 0 0 1 9 50c-1 6-1 6-4 2z" style="fill:#fff;stroke-width:.597015" transform="scale(.75)"/></svg>