<svg xmlns="http://www.w3.org/2000/svg" width="400" height="400" version="1.0" viewBox="0 0 300 300"><path d="M139 .6c-28.9 3.5-48.9 10.6-70.7 25.1L60 31.1V63H30l-3.4 5.2C17.3 82.8 9.9 101.4 5.9 120c-3.3 15.1-3.3 41.9 0 57 4.4 20.6 11.6 37.8 22.8 54.7l5.4 8.3H60v25.9l8.3 5.4c16.5 11 34.9 18.8 54 22.9 14.7 3.2 43.7 3.2 58.4 0 17.5-3.8 36.6-11.6 51.1-20.8l5.2-3.4v-30h31.9l5.4-8.3c11.7-17.5 20.1-38.1 23.3-57.2 2.3-13.5 2.3-38.5 0-52-3-17.4-12.6-41.9-21.8-55.3l-2.9-4.2H237V27l-5.2-3.4C216.3 13.7 194.7 5.3 178 2.5 168.4.9 145.5-.2 139 .6zm52.3 17.2c11.9 4 21.2 8.1 28.9 12.8l5.8 3.5V74h39.9l3.5 5.8c4.7 7.7 8.8 17 12.8 28.9l3.2 9.8.4 26.9c.3 22.5.1 28.1-1.3 34.5-3.1 13.9-10.7 31.6-18.7 43.6l-3.3 5-18.3.3-18.2.2v34.6l-7.2 4.1c-21.3 12-42.7 17.6-67.3 17.6-27.2 0-51.2-7-74.2-21.5l-6.3-4V229H40.5l-3.5-5.3c-9.5-14.3-17.4-34.5-20.6-52.2-2-11.7-2-34.2 0-45.8 2.4-13.2 7.1-26.9 13.8-40L36.3 74H71V38.1l5.8-3.9C87.7 26.8 104.4 19.4 118 16c6.6-1.7 10.8-1.9 35.5-1.7l28 .3 9.8 3.2z"/><path d="M132 66.9c-3.6.9-8.1 2.5-10 3.6-11 6.1-14.1 8.3-19 14l-4.5 5.3-9 .4c-7.2.4-10.6 1.1-16.9 3.6-4.3 1.8-9.2 4.4-10.8 5.7-1.6 1.4-3.3 2.5-3.8 2.5-1 0-13 12-13 13 0 .3-1.3 2.4-3 4.6-1.6 2.1-3 4.3-3 4.8s-1.2 3.9-2.6 7.4c-2.4 6.2-2.6 7.2-2.2 21.6.3 13.2.6 15.7 2.6 19.5 1.2 2.5 2.2 4.8 2.2 5.3 0 2 8.3 13.1 13.5 18.2C59 202.6 66.4 207.1 75 210c7.3 2.5 17.3 4.2 22.2 3.9 3.4-.3 4.4.2 7.6 3.4 4.3 4.3 9.7 8.7 10.7 8.7.3 0 2.7 1.2 5.3 2.8 10.3 6 28.8 7.9 43.5 4.3 10.6-2.6 21.8-9.1 29-16.9 2.8-3 3.4-3.2 7.3-2.6 2.3.3 7.4.1 11.4-.5 14.7-2.3 26.1-7.7 35.5-16.7 6.6-6.4 9.5-10.5 14.5-20.9 3.4-6.9 3.4-7.3 3.8-22.1.4-15 .4-15.2-2.8-23-1.7-4.4-4.2-9.5-5.6-11.5-1.3-1.9-2.4-3.8-2.4-4.1 0-1.1-9.2-9.8-14.7-13.9-2.8-2.1-8.7-5.3-13-7.1-6.6-2.6-9.5-3.2-18.2-3.6l-10.4-.4-3.1-3.6c-1.7-2-3.9-4.3-4.9-5.1-1-.9-3-2.5-4.4-3.7C173.9 66.9 150 62.3 132 66.9zm29 6.1c6.3 1.2 18.8 7.2 20.7 10 .8 1.1 2 2 2.7 2 .7 0 2.2 1.3 3.4 2.9l2.1 2.9-6.2 2.6c-3.4 1.4-6.6 2.6-7.1 2.6-.4 0-2.5 1.3-4.6 3-2.1 1.6-4.1 3-4.6 3-.4 0-2.9 2.2-5.6 5l-4.9 5h-14.1l-4.7-5c-2.6-2.8-5-5-5.5-5-.4 0-2.2-1.1-3.9-2.4-3.9-2.9-17.1-8.6-20.1-8.6-1.7-.1-1.1-1 3.6-5.4 6-5.7 16.7-11.5 23.3-12.6 6.2-1.1 19.7-1.1 25.5 0zM94 96.4c0 .2-.9 2.1-1.9 4.3-5.2 10.5-7.1 25.4-4.5 36.3 2.2 9.5 2.2 16.5 0 26-1.2 5.1-1.6 9.5-1.2 13.8.9 10.5 4.9 23.4 8.4 27.5.8.9 1.2 2 .9 2.4-1.1 1-18.9-2.7-23.2-4.9-2.2-1.2-5.1-2.7-6.5-3.4-2.7-1.5-15-12.8-15-13.9 0-.3-1.1-2.1-2.4-3.8-2.4-3.1-4-7-7.1-16.7-.8-2.5-1.5-8.2-1.5-12.8 0-21.2 15.1-43.4 34.5-50.5C83.3 97.4 94 95 94 96.4zm120.2.7c2.9.6 7.1 2 9.2 3 2.2 1.1 4.6 1.9 5.3 1.9 1.5 0 11.5 7 14.9 10.4 5.2 5.3 10.8 14.3 13.5 22.2 3.3 9.7 3.9 21.6 1.4 29.4-3.1 9.7-4.7 13.6-7.1 16.7-1.3 1.7-2.4 3.5-2.4 3.8 0 1.6-13.5 13.1-18.7 15.8-5.8 3.1-19.8 6.7-26.1 6.7-3.3 0-3.3 0-1.8-2.8 1.4-2.6 2.8-5.9 5.7-13.2 2.2-5.6 1.9-30.2-.4-36.3-1.8-4.4-1.8-5-.3-8.7 3.6-9.1 3-32.8-1.2-42-3.5-7.8-3.5-8-.2-8 1.6 0 5.3.5 8.2 1.1zm-99.3 3.4c4.6 1.9 9.1 4.1 10.1 5 .9.8 2 1.5 2.4 1.5.5 0 2.1 1.3 3.6 3 1.5 1.6 2.4 3 1.8 3-1.9 0-17.7 7.9-21.5 10.7-5 3.8-12.5 11.8-15.3 16.4-.4.6-1.3-2.1-2-6.1-1.2-7.3-1-9.8 1.8-23.5 1.3-6.1 6-13.5 8.5-13.5 1.2 0 6 1.6 10.6 3.5zm81.8-.4c.7 1.3 1.9 4 2.6 5.9.8 1.9 2 4.8 2.7 6.5 1.9 4.6 2.4 19.2.8 24.5l-1.4 4.5-2.6-4c-3.3-5.3-18-18.5-20.5-18.5-.4 0-3-1.1-5.8-2.5-2.7-1.3-5.5-2.5-6.1-2.5-1.2 0 5-7 6.2-7 .4 0 1.5-.7 2.4-1.5 2.1-1.9 18.1-8.6 19.5-8.2.6.2 1.5 1.4 2.2 2.8zm-56 20.6c.4 1 1.8 3.4 3.1 5.3 2.5 3.7 2.5 5.2.2 14-1.5 5.7-.8 22.2 1.2 27.5 1.4 3.8 1.3 4.2-1.1 8.8-2.5 4.6-2.8 4.8-6.2 4.4-4.4-.6-17.5-6.3-20.2-8.8-1.2-1-2.4-1.9-2.8-1.9-.5 0-2.7-2.1-5.1-4.6-2.4-2.6-5.1-5.5-6-6.5-1-1.1-1.8-2.5-1.8-3.3 0-.7-.7-1.9-1.5-2.6-.8-.7-1.5-2-1.5-3s.7-2.3 1.5-3c.8-.7 1.5-2 1.5-2.9 0-.9.8-2.4 1.8-3.3.9-.8 3.6-3.6 6-6.2 2.4-2.5 4.6-4.6 5.1-4.6.4 0 1.7-1 3-2.1 2.5-2.3 17.5-8.9 20.4-8.9 1 0 2.1.8 2.4 1.7zm10.7-.2c-.4.8-1 1.5-1.4 1.5-.4 0-1-.7-1.4-1.5-.4-1 .1-1.5 1.4-1.5 1.3 0 1.8.5 1.4 1.5zm18.1 2.7c.5.4 1.9.8 3.2.8 1.3 0 2.3.4 2.3.9s1 1.3 2.2 1.6c2.9 1 16.9 15.3 19.2 19.8 1.9 3.6 1.9 3.8 0 7.3-1 2-2.5 3.8-3.1 4.1-.7.3-1.3 1.1-1.3 1.7 0 2.8-12.6 13-20.6 16.7-12.4 5.8-12.5 5.8-15.5.2-2.4-4.6-2.4-5-1.1-8.8 2.4-6.5 2.7-21.3.7-29.9l-1.7-7.4 2.3-4.3c3.8-7.1 3.6-7 8.2-5.2 2.3.9 4.6 2 5.2 2.5zm-70.4 40.9c2.9 3.6 8.2 8.9 12.6 12.4 4 3.2 19.4 10.5 22.2 10.5 1.2 0 2.1.4 2.1.8 0 1.1-9.2 9.1-12.2 10.6-1.3.7-3.4 2-4.8 2.8-3.7 2.5-14.8 4.8-15.8 3.4-4.6-6.1-8.1-15.7-9.7-26.8-.8-5.1 1.3-19.8 2.5-17.9.4.7 1.8 2.6 3.1 4.2zM203.7 176c-.3 4.7-1 9.8-1.7 11.5-.7 1.6-1.6 3.9-2 5-2.5 6.3-5.3 11.4-6.4 11.8-2.3.9-9.9-1.3-13.8-3.8-2.1-1.4-4.1-2.5-4.5-2.5-.5 0-3.2-2.2-6.2-4.9-5-4.5-6-7-2.8-7.1.7 0 3.5-1.2 6.2-2.5 2.8-1.4 5.4-2.5 5.8-2.5 2.6 0 16.9-13 20.5-18.5l2.6-4 1.4 4.5c.9 3 1.2 7.4.9 13zm-43.9 17.8c3.1 3.1 6.9 6.6 8.3 7.7 3.2 2.5 12.4 7.5 13.7 7.5.6 0 2.2.4 3.7 1 2.2.8 2.4 1.3 1.5 3-.6 1.1-1.7 2-2.5 2s-2 .9-2.7 1.9c-2.1 2.9-12.5 8-20.1 9.7-4.7 1.1-9.6 1.4-15.5 1.1-10.7-.6-15.1-1.6-22.2-5-5.5-2.6-14-9.1-14-10.6 0-.5 2.1-1.4 4.8-2.1 9.3-2.5 16.5-7.1 25.2-16.2 5-5.2 5.9-5.7 9.8-5.8 4 0 4.8.5 10 5.8z"/><path d="M191.94 379.883c-7.059-.375-20.24-2.055-27.123-3.457-22.056-4.492-40.796-12.15-62.065-25.363l-7.827-4.862v-41.126H54.302l-4.466-6.793c-13.703-20.838-25.263-51.296-28.465-74.998-.497-3.676-.764-12.71-.761-25.672.006-22.319.505-27.293 4.163-41.471 4.015-15.564 8.558-27.142 17.753-45.245l5.99-11.792h46.409l.013-24.03.013-24.03 6.435-4.272c17.579-11.673 40.944-21.825 59.808-25.986 6.223-1.373 6.536-1.382 43.284-1.245l37.015.137 9.945 3.266c18.219 5.982 30.255 11.262 43.338 19.012l6.12 3.625V99.104h53.463l3.655 6.12c7.653 12.811 13.003 24.972 19.093 43.403l3.265 9.88.112 37.015c.112 36.621.098 37.082-1.26 43.284-3.954 18.047-14.37 42.464-25.2 59.073l-4.214 6.463-24.457.442-24.457.442v46.149l-8.806 4.887c-13.76 7.636-24.345 12.232-37.524 16.293-18.582 5.724-41.754 8.436-62.626 7.328zm23.582-67.954c15.446-3.346 28.644-10.36 40.617-21.587l6.048-5.67 5.473.404c10.41.767 26.028-2.064 37.718-6.84 14.71-6.008 28.127-17.085 36.818-30.397 3.992-6.116 9.815-18.196 11-22.822 1.133-4.423 1.993-28.963 1.326-37.853-.57-7.617-5.075-19.017-12.12-30.678-3.316-5.49-5.045-7.607-9.782-11.978-8.258-7.62-12.68-11.003-19.154-14.657-12.464-7.034-19.598-8.992-35.952-9.87l-11.943-.642-7.562-7.642c-11.007-11.125-18.41-15.951-30.75-20.05-11.698-3.884-22.513-5.398-34.722-4.858-14.634.647-23.922 3.294-35.718 10.178-11.411 6.659-14.328 9.093-23.097 19.277l-2.677 3.11-10.15.621c-11.08.68-17.16 1.884-24.171 4.79-5.626 2.33-12.696 6.129-15.481 8.317-1.176.924-3.068 2.156-4.205 2.738-2.196 1.124-17.337 16.042-17.337 17.082 0 .338-1.71 3.08-3.8 6.095-2.09 3.014-4.14 6.555-4.555 7.869-.415 1.313-1.855 5.209-3.199 8.656l-2.444 6.269-.21 15.37c-.217 15.968.427 26.166 1.903 30.098 4.923 13.116 7.824 18.074 16.8 28.708 10.926 12.946 25.033 21.758 41.81 26.117 8.318 2.16 15.78 3.28 22.054 3.308 3.085.013 5.906.332 6.626.749.689.398 4.379 3.546 8.2 6.993 3.82 3.448 8.361 7.026 10.09 7.952 1.729.926 5.028 2.723 7.331 3.994 6.728 3.712 16.787 6.668 27.156 7.978 4.645.587 23.668-.179 28.06-1.13z" style="fill:#fff;stroke-width:.597015" transform="scale(.75)"/><path d="M114.925 273.775c-10.477-2.186-15.497-3.75-21.063-6.557-6.49-3.274-8.334-4.624-16.691-12.225-10.086-9.173-15.452-17.746-20.037-32.008-5.614-17.464-4.373-34.149 3.826-51.445 7.39-15.59 21.266-29.52 35.566-35.704 8.563-3.702 26.816-8.514 27.96-7.37.184.184-.722 2.736-2.014 5.67-7.247 16.47-9.08 32.577-5.666 49.814 2.206 11.14 2.214 21.1.026 31.807-.866 4.234-1.75 9.632-1.963 11.996-1.041 11.485 4.462 34.757 10.253 43.362 1.123 1.67 2.042 3.276 2.042 3.572 0 .92-5.388.518-12.239-.912z" style="fill:#fff;stroke-width:.597015" transform="scale(.75)"/><path d="M127.195 184.856c-1.569-4.126-2.556-12.165-2.21-17.99.48-8.05 3.365-21.738 5.6-26.567 2.12-4.581 4.916-8.523 7.022-9.903 1.441-.944 1.777-.902 7.255.915 12.841 4.258 26.224 11.464 29.987 16.146 1.027 1.278 1.867 2.437 1.867 2.576 0 .139-1.276.727-2.835 1.307-5.526 2.056-22.594 11.09-26.489 14.021-4.531 3.411-13.263 12.389-17.043 17.524-2.55 3.465-2.58 3.483-3.154 1.97zM185.182 143.28c-3.06-3.28-6.822-6.701-8.358-7.601-1.537-.9-4.126-2.53-5.753-3.625-5.699-3.832-22.167-10.86-25.447-10.86-2.12 0-1.173-1.648 3.4-5.92 5.628-5.255 12.644-9.97 19.99-13.432 8.763-4.13 11.117-4.595 25.064-4.954 18.517-.476 23.259.426 36.73 6.985 4.72 2.298 8.343 4.537 10.448 6.455 1.772 1.616 3.805 3.121 4.518 3.345 1.341.422 4.994 4.136 6.1 6.203.584 1.09-.088 1.463-9.282 5.139-5.45 2.18-10.884 4.727-12.072 5.662-1.19.934-4.042 2.916-6.34 4.403-2.3 1.487-6.727 5.284-9.84 8.439l-5.66 5.735-8.967-.004-8.967-.004zM265.472 183.367c-4.942-7.232-23.03-23.819-27.086-24.837-.752-.188-4.256-1.647-7.787-3.241-3.53-1.595-6.91-3.066-7.507-3.27-1.039-.356-1.034-.446.1-2.017 1.966-2.72 6.124-6.355 10.326-9.029 4.23-2.69 16.431-8.174 22.225-9.99l3.503-1.096 1.404 1.76c2.18 2.735 8.976 19.747 9.775 24.472 1.096 6.48.94 21.305-.272 25.97-1.524 5.867-1.542 5.872-4.68 1.278z" style="fill:#fff;stroke-width:.597015" transform="scale(.75)"/><path d="M269.254 274.994c0-.549.817-2.617 1.815-4.595 3.45-6.834 7.086-16.473 7.768-20.593.88-5.316.886-28.2.009-35.18-.371-2.954-1.367-7.476-2.213-10.046l-1.539-4.674 1.282-3.795c2.192-6.49 3.029-11.609 3.413-20.887.66-15.915-1.249-28.917-5.81-39.593-1.324-3.098-2.25-6.041-2.06-6.54.29-.754 1.182-.843 5.292-.527 8.076.621 20.466 4.43 30.55 9.391 4.55 2.239 13.163 8.676 17.422 13.02 6.302 6.43 14.297 19.767 17.398 29.025 3.167 9.454 4.526 23.58 3.112 32.346-.802 4.966-5.154 18.288-7.44 22.772-1.496 2.936-5.982 9.99-8.15 12.815-3.585 4.674-19.959 17.415-25.594 19.916-7.72 3.426-21.837 7.024-30.338 7.733-4.362.364-4.918.298-4.918-.588z" style="fill:#fff;stroke-width:.597015" transform="scale(.75)"/><path d="M248.445 270.764c-2.415-.782-6.445-2.592-8.955-4.022-2.51-1.43-5.357-2.995-6.326-3.477-2.912-1.45-13.62-12.16-13.377-13.38.139-.694 1.362-1.44 3.497-2.13 1.806-.585 5.97-2.3 9.253-3.81 3.284-1.51 6.24-2.75 6.567-2.754 2.613-.038 21.867-17.97 26.368-24.558 3.136-4.59 3.136-4.59 4.721 1.277 1.289 4.769 1.436 16.897.3 24.777-1.05 7.291-8.061 24.404-11.557 28.209-1.625 1.768-4.741 1.73-10.49-.132zM186.269 302.612c-6.878-.793-13.262-2.612-19.435-5.536-9.03-4.278-19.938-12.35-19.22-14.222.22-.572 2.794-1.697 6.524-2.852 7.32-2.266 15.07-6.136 20.463-10.22 2.152-1.628 7.395-6.302 11.65-10.385 4.28-4.105 8.48-7.627 9.4-7.88 2.8-.768 7.526-.446 9.625.656 1.095.575 5.571 4.49 9.946 8.7 4.375 4.209 9.156 8.48 10.624 9.49 4.07 2.8 14.788 8.277 17.14 8.758 3.61.739 6.566 2.157 6.566 3.15 0 1.197-2.927 4.296-4.058 4.296-.467 0-2.278 1.307-4.026 2.903-5.645 5.16-18.591 10.921-28.959 12.888-5.331 1.011-18.566 1.14-26.24.254zM136.492 270.565c-6.308-9.992-11.745-27.749-11.697-38.198.03-6.691 1.884-18.68 2.876-18.607.214.016 1.463 1.538 2.777 3.383 3.464 4.867 15.235 16.406 19.884 19.494 5.49 3.645 18.938 10.194 24.163 11.767 7.455 2.243 7.214 1.738 2.818 5.906-11.747 11.139-25.97 18.393-36.26 18.495-2.985.03-3.193-.073-4.56-2.24zM177.006 238.582c-7.419-2.695-16.178-6.941-19.394-9.4-1.478-1.131-3.705-2.68-4.95-3.444-3.238-1.986-15.781-15.868-16.245-17.98-.208-.95-1.167-2.717-2.13-3.929-2.208-2.78-2.215-4.87-.025-7.626.948-1.193 1.892-3.043 2.098-4.111.278-1.445 2.4-4.007 8.284-10.002 4.35-4.433 9.383-9.087 11.185-10.342 4.387-3.057 16.31-8.822 23.12-11.178 5.249-1.817 5.589-1.862 7.015-.927.824.54 1.499 1.224 1.499 1.52 0 .295 1.41 2.9 3.134 5.787 2.907 4.868 3.129 5.511 3.06 8.851-.04 1.981-.624 5.751-1.296 8.378-2.837 11.085-2.137 28.541 1.682 41.918.668 2.342.588 2.791-1.172 6.552-1.039 2.22-2.56 4.917-3.38 5.992-1.321 1.732-1.813 1.953-4.298 1.926-1.607-.017-5.103-.864-8.187-1.985zM211.869 239.785c-.874-.431-2.43-2.684-4.042-5.852l-2.621-5.15 1.577-5.586c3.335-11.806 3.369-28.61.087-43.12l-1.467-6.491 3.325-6.047c1.829-3.325 3.68-6.417 4.112-6.869 1.113-1.162 3.935-.507 9.596 2.227 2.6 1.256 5.916 2.442 7.367 2.635 1.451.193 2.86.748 3.13 1.232.272.484 1.91 1.679 3.64 2.656 3.483 1.965 13.485 11.543 19.779 18.938 4.218 4.957 6.932 9.514 6.932 11.642 0 1.875-2.738 6.877-5.004 9.143-1.11 1.11-2.491 3.015-3.07 4.234-2.426 5.113-16.214 15.687-28.046 21.508-9.516 4.681-13.289 5.89-15.295 4.9zM198.8 161.182c-.356-.664-.484-1.47-.285-1.791.468-.757 2.502-.757 2.97 0 .435.703-.702 2.997-1.485 2.997-.305 0-.846-.543-1.2-1.206zM127.195 184.856c-1.569-4.126-2.556-12.165-2.21-17.99.528-8.855 3.378-21.93 5.94-27.243 2.295-4.758 5.727-9.183 7.579-9.771 2.636-.837 20.646 6.513 29.113 11.88 4.555 2.888 9.715 7.702 9.01 8.407-.115.115-1.687.786-3.493 1.493-4.405 1.722-20.814 10.239-24.34 12.633-3.734 2.535-14.8 13.67-18.267 18.378-2.716 3.69-2.76 3.719-3.332 2.213zM266.012 184.063c-2.675-4.099-17.068-18.489-22.153-22.147-1.958-1.41-5.71-3.465-8.337-4.568-8.094-3.399-12.825-5.497-13.168-5.84-.71-.71 6.412-7.49 10.76-10.243 4.785-3.03 16.56-8.38 22.629-10.281l3.503-1.097 1.404 1.76c2.18 2.735 8.976 19.747 9.775 24.472 1.096 6.48.94 21.305-.272 25.97-1.516 5.836-1.597 5.874-4.141 1.974z" style="fill:#fff;stroke-width:.597015" transform="scale(.75)"/></svg>