<svg xmlns="http://www.w3.org/2000/svg" width="400" height="400" version="1.0" viewBox="0 0 300 300"><path d="M25 150v125h250V25H25v125zM172 29.6c36.9 6.3 70.1 30.7 87.2 64 9.7 18.8 13.8 35.6 13.8 56.2 0 34.4-11.8 63.2-35.9 87.3-23.5 23.6-53.1 35.9-86.6 35.9-32.7 0-61.6-11.6-85.1-34.2-24.8-24-37.6-53.9-37.6-88.3 0-23.8 6-45.4 18-64.4C73.4 42.4 121.4 20.9 172 29.6z"/><path d="M74 59.2c0 .2-1.1 7.7-2.5 16.8-12.1 81-5.3 111.8 33.4 151.3 10.1 10.3 25.1 23.5 38.8 34.2l6.3 4.8 14.7-11.9c17.6-14.1 37.8-33.8 45.8-44.7 7.1-9.8 13.8-22.2 17-31.8 4.7-13.6 5.9-22.9 5.9-42.9-.1-19.6-.8-27.4-5.1-57.3L225.6 59h-75.8c-41.7 0-75.8.1-75.8.2z"/><path d="M181.791 362.666c-44.767-4.896-85.156-28.391-112.853-65.651-16.198-21.79-25.364-43.808-29.87-71.747-1.271-7.89-1.814-31.827-.927-40.914 3.702-37.905 18.757-69.979 46.009-98.015 21.214-21.825 46.466-36.518 75.551-43.959 35.336-9.04 72.602-6.021 106.568 8.633 21.827 9.418 44.838 26.915 60.495 46.002 16.692 20.346 29.208 46.698 34.051 71.689 3.671 18.945 3.698 43.723.067 62.938-8.205 43.42-34.25 81.608-72.822 106.772-20.59 13.432-45.37 21.992-71 24.524-8.573.847-26.285.71-35.269-.272zm32.356-18.56c19.26-15.657 30.018-25.27 44.68-39.918 19.317-19.297 27.6-30.31 37.271-49.561 7.714-15.352 12.278-30.061 13.994-45.095 2.111-18.5 1.747-48.912-.861-71.92-1.204-10.617-7.41-55.413-8.052-58.109l-.33-1.392-100.823.198c-55.452.11-101.018.394-101.257.633-.524.524-4.395 25.843-6.496 42.493-8.213 65.068-5.414 99.842 10.675 132.595 11.8 24.021 31.584 46.867 66.651 76.963 14.24 12.22 29.797 24.361 30.75 23.996.43-.165 6.639-5.062 13.798-10.883z" style="fill:#fff;stroke-width:.597015" transform="scale(.75)"/></svg>