<svg xmlns="http://www.w3.org/2000/svg" width="400" height="400" version="1.0" viewBox="0 0 300 300"><path d="M27 29v245h247V28H27zm99 29c6 2 14 8 18 15l3 14c0 6-1 8-3 13-4 7-9 12-16 15-6 3-19 3-25 0-7-3-14-10-16-17-3-8-3-12-1-20 2-6 3-8 8-13l10-7c6-2 16-2 22 0zm71 1c6 3 11 8 15 14 3 7 4 19 0 26a31 31 0 0 1-56 2c-3-5-3-7-3-14 0-13 6-23 18-28 5-3 7-3 14-3 5 1 9 1 12 3zm-60 72c5 2 8 4 11 8l4 5 4-4c15-16 44-17 59-3l6 10 2 5-3 19-11 52-7 33h-27l-2-7-7-26-9-36-5-16-4 16-14 68-14 1h-13l-3-11-19-70-4-20c0-7 7-18 15-22 9-5 15-6 25-6 8 1 11 1 16 4z"/><path d="M147 340h-5l-1-3-14-57c-20-75-19-72-18-77 1-7 5-12 11-18 4-5 6-6 11-9 11-5 14-6 28-6 11 0 12 1 17 2 8 3 13 5 20 13l7 7 6-6c6-6 8-7 13-10 15-7 32-8 47-3 13 5 21 13 26 25l2 5-10 49-13 69-4 19h-37l-4-15-26-97c-1 0-3 7-10 42-11 55-14 69-16 70h-30zm-1-184c-8-2-14-5-21-12-6-6-9-12-11-19s-1-11 0-19c3-8 5-12 10-18 7-6 13-10 17-11 9-3 24-2 30 2 8 3 16 12 21 20l3 10c0 7 0 15-2 19-4 14-16 25-29 28h-18zm94 0c-16-2-28-12-34-27l-1-12c0-9 0-13 4-20 4-10 15-18 26-21 4-1 16-1 22 1 12 3 24 15 28 28v22l-8 15c-9 10-24 16-38 14z" style="fill:#fff;stroke-width:.597015" transform="scale(.75)"/></svg>