<svg xmlns="http://www.w3.org/2000/svg" width="333.333" height="333.333" version="1.0" viewBox="0 0 250 250"><path d="M64.7 66.8 7 124.5l57.8 57.8 57.7 57.7 58-58 58-58L181 66.5C149.4 34.9 123.3 9 123 9c-.3 0-26.5 26-58.3 57.8zm42.1-6.9c14.1 7.3 16.2 24.1 4.3 34.3-11.4 9.8-29.3 3.9-33.1-11-2.4-9.6 3.4-20.2 13-24.1 4.2-1.6 11.8-1.3 15.8.8zm45.2.1c5 2.5 7.7 5.4 10.1 10.5 5.7 12.2-2.8 26.8-16.4 28.2-13.2 1.4-22.6-7.3-22.7-20.8 0-4.8.5-6.4 3.3-10.5 5.8-8.7 17-11.9 25.7-7.4zm-42.3 46.5c3.3 1 6.3 2.8 8.9 5.5l3.9 4 3.5-3.5c11-10.7 32.7-9.4 40.1 2.3 1.6 2.5 2.9 5.8 2.9 7.3 0 1.4-2.9 17.1-6.5 34.7-3.6 17.7-6.5 32.4-6.5 32.7 0 .3-4.2.5-9.4.5h-9.3l-3.6-13.8c-2-7.5-5.2-19.7-7.1-27.1-3.6-13.8-4.2-15.4-5-13-.5 1.5-8 38.4-9.8 48.1l-1 5.8H92.1l-1-3.8c-.6-2-2.3-8.9-4-15.2-1.6-6.3-5.1-19.6-7.6-29.4-5.4-20.7-5.3-22.4 1.4-29 7-6.8 18.3-9.2 28.8-6.1z"/><path d="M119.681 240.423c-6.655-25.324-16.198-62.561-17.233-67.242-.58-2.625-1.09-6.676-1.13-9.002-.1-5.725.942-7.91 6.28-13.157 7.205-7.081 15.595-10.357 26.482-10.338 10.85.02 16.744 2.32 24.174 9.44 2.642 2.531 4.97 4.602 5.175 4.602.204 0 2.318-1.847 4.696-4.104 6.34-6.016 12.154-8.63 21.921-9.855 11.033-1.383 24.109 3.278 29.766 10.611 2.596 3.365 4.67 7.889 4.95 10.795.266 2.776-1.727 13.685-10.502 57.479l-6.58 32.836-3.218.315c-1.77.173-7.25.34-12.176.373l-8.958.058-6.41-24.503C164.355 180.711 164.18 180.1 162.9 180.1c-.37 0-.895.84-1.167 1.865-1.305 4.926-13.196 64.237-13.764 68.657l-.336 2.612h-24.585zM126.12 131.365c-5.894-1.28-12.175-4.84-15.682-8.888-2.655-3.064-5.835-9.54-6.518-13.273-2.473-13.515 8.164-28.773 21.702-31.131 7.052-1.228 14.784.465 20.519 4.492 9.404 6.604 13.884 17.557 11.313 27.654-2.298 9.024-9.307 16.814-17.948 19.951-3.756 1.363-10.033 1.924-13.387 1.195zM183.216 130.576c-5.822-1.568-11.3-5.597-14.599-10.737-3.364-5.243-5.245-15.33-3.986-21.374.808-3.875 3.66-8.526 7.773-12.676 10.041-10.133 24.416-10.862 35.857-1.818 4.942 3.907 9.194 11.953 9.909 18.749.42 3.999-.753 9.473-3.016 14.07-3.227 6.557-9.813 11.862-17.148 13.814-3.438.915-11.344.9-14.79-.028z" style="fill:#fff;stroke-width:.497512" transform="scale(.75)"/></svg>