<svg xmlns="http://www.w3.org/2000/svg" width="400" height="400" version="1.0" viewBox="0 0 300 300"><path d="M27.4 28.5c-.2.5-.3 55.9-.2 123l.3 122 123.3.3 123.2.2-.2-123-.3-123-122.9-.3c-81.2-.1-123 .1-123.2.8zm98.9 29.1c6.1 2 13.5 8.8 17.2 15.6 2.6 4.6 2.9 6.4 3 13.3 0 6.7-.5 8.9-2.8 13.7-3.2 6.5-8.9 12.1-15.6 15.1-6.5 3.1-18.7 3-25.4 0-6.4-3-13.8-10.7-15.9-16.9-3.1-8.7-3.2-12.6-.8-20.5 1.8-6.2 3-8 7.8-12.8 3.4-3.3 7.5-6.3 10.2-7.3 5.8-2.1 16.3-2.2 22.3-.2zm70.8 1.2c6.1 3 11.3 8.1 14.6 14.5 3.6 7 3.9 18.8.6 25.9-11 24-44.6 25-56.2 1.6-2.7-5.2-3.1-7.2-3.1-13.7 0-12.8 6.3-23 17.5-28.3 5.3-2.5 7-2.8 14-2.5 5.9.2 9.2.8 12.6 2.5zm-60 71.9c4.5 2.1 7.9 4.5 10.8 8l4.3 5 3.9-4.2c14.4-15.6 43.8-16.8 58.6-2.3 2.4 2.3 5.2 6.5 6.4 9.6l2.2 5.4-3.8 18.7c-2 10.2-6.7 33.4-10.4 51.6l-6.7 33h-27.8l-1.8-7c-1-3.9-4-15.6-6.8-26-2.7-10.5-6.9-26.5-9.2-35.7-2.3-9.3-4.5-16.5-4.9-16-.4.4-2.1 7.4-3.7 15.7-8.5 43.5-13.5 67.1-14.5 68.3-.7.9-4.4 1.2-14.1 1l-13.1-.3-2.8-10.5c-4.4-17-13.6-52.2-18.3-70.5-2.4-9.4-4.4-18.1-4.4-19.4 0-7.5 7.2-18.1 15.4-22.3 8.7-4.5 14.6-5.8 24.6-5.5 8.1.3 10.5.8 16.1 3.4z"/><path d="m147.107 340.482-4.834-.229-.997-3.584c-.548-1.972-7.142-27.282-14.653-56.246-19.59-75.538-18.818-72.136-17.64-77.764 1.3-6.22 4.589-11.728 10.718-17.955 4.763-4.839 6.086-5.803 11.642-8.49 10.524-5.09 13.784-5.766 27.761-5.766 10.851 0 12.35.127 16.418 1.399 8.947 2.795 13.379 5.589 20.76 13.088l6.73 6.837 6.449-6.23c5.606-5.417 7.263-6.635 12.673-9.32 14.886-7.387 32.283-8.538 47.133-3.118 13.123 4.789 21.156 12.542 26.218 25.303l1.855 4.676-9.903 49.056c-5.447 26.98-11.672 57.854-13.833 68.607l-3.93 19.553h-36.64l-3.902-15.075c-24.851-96.028-25.272-97.576-26.47-97.359-1.01.183-2.554 6.953-9.512 41.687-11.147 55.652-14.118 68.97-15.67 70.259-.961.799-19.166 1.2-30.373.67zM145.53 155.801c-7.793-1.312-13.916-4.846-20.915-12.071-5.333-5.507-8.655-11.53-10.589-19.199-1.583-6.28-1.5-10.95.318-18.048 2.256-8.802 4.335-12.574 10.122-18.36 6.061-6.062 12.085-10.162 16.783-11.425 9.093-2.444 23.384-1.575 30.172 1.835 7.656 3.846 15.826 12.194 20.242 20.682 2.05 3.94 2.538 5.58 3.036 10.202.723 6.706.188 14.416-1.3 18.74-4.648 13.511-16.665 24.648-29.518 27.359-4.433.935-13.644 1.078-18.35.285zM239.5 156.373c-15.04-1.952-27.655-12.37-33.564-27.716-1.195-3.105-1.379-4.656-1.38-11.642-.002-9.117.833-13.186 4.105-20 4.663-9.711 15.16-18.162 26.047-20.97 4.578-1.18 16.603-.816 22.258.673 12.45 3.28 23.968 15.13 27.56 28.357 1.465 5.393 1.476 16.904.02 21.755-1.453 4.845-4.534 10.709-7.745 14.74-8.35 10.485-23.684 16.57-37.302 14.803z" style="fill:#fff;stroke-width:.597015" transform="scale(.75)"/></svg>