<svg xmlns="http://www.w3.org/2000/svg" width="333" height="333" version="1.0" viewBox="0 0 250 250"><path d="M65 67 7 125l58 57 58 58 58-58 58-58-58-57-58-58-58 58zm42-7c14 7 16 24 4 34-11 10-29 4-33-11-2-9 3-20 13-24 4-2 12-1 16 1zm45 0c5 3 8 5 10 11 6 12-3 26-16 28-14 1-23-8-23-21 0-5 0-6 3-11 6-8 17-11 26-7zm-42 47c3 1 6 2 9 5l4 4 3-3c11-11 33-10 40 2 2 2 3 6 3 7a655 655 0 0 1-13 68h-19l-3-14a3664 3664 0 0 1-12-40l-10 48-1 6H92l-1-4-4-15-8-29c-5-21-5-23 2-29 7-7 18-10 29-7z"/><path d="M120 240a4763 4763 0 0 1-19-76c0-6 1-8 7-13 7-7 15-10 26-10s17 2 24 9l5 5 5-4c6-6 12-9 22-10 11-2 24 3 30 10l5 11-11 58-6 32-4 1h-21l-6-24-14-49-1 2-14 69v2h-25zm6-109c-6-1-12-4-16-9l-6-13c-3-13 8-29 22-31 7-1 14 1 20 5 10 6 14 17 11 27-2 9-9 17-17 20-4 2-11 2-14 1zm57 0c-6-2-11-6-14-11-4-5-6-15-4-22 0-3 3-8 7-12 10-10 25-11 36-2 5 4 9 12 10 19 1 4-1 9-3 14-3 6-10 12-17 14h-15z" style="fill:#fff;stroke-width:.497512" transform="scale(.75)"/></svg>