<svg xmlns="http://www.w3.org/2000/svg" width="317" height="317" version="1.0" viewBox="0 0 238 238"><path d="M61 60 4 119c0 1 114 115 116 115l58-57 58-58-58-58-59-58-58 57zm32 17 3 4c0 4 2 4 12 1 14-5 27-8 36-9 21-3 39 5 47 21 4 8 5 19 3 27-4 8-12 15-23 18l-27 4-28 3c-5 1-11 5-11 7s5 6 15 14c13 10 17 19 11 25-3 3-10 6-18 7h-4l6-3c7-3 11-7 11-11 0-3-6-7-15-12-8-4-18-11-21-14-2-4-1-11 3-16 3-4 13-10 20-13l20-6c24-6 27-7 31-11 5-4 5-8 2-13-2-4-9-7-20-9-23-3-45 1-49 9-2 4-6 6-12 7-11 1-36-12-35-19 1-2 21-12 29-14 7-2 10-2 14 3z"/><path d="m153 262 12-9c4-3 4-6 2-9-3-4-7-7-19-13-15-8-26-16-28-21-2-4-1-9 1-15 4-8 18-18 32-22l25-7c32-9 36-10 41-15 5-6 6-10 4-15-5-9-18-14-43-16-24-1-46 4-51 13-2 3-4 5-7 6-9 4-17 4-31-2l-20-12c-3-4-4-6-3-7 0-2 7-6 15-10 15-8 23-11 30-11 5 0 6 1 10 5 3 3 5 6 5 8 1 4 3 3 20-2 29-9 47-12 61-11 17 2 32 9 41 22 10 14 13 34 6 46-4 7-10 12-18 16-7 4-12 5-45 9s-39 4-44 6c-6 3-10 7-9 9 0 2 7 8 16 15 14 11 18 15 21 22 2 5 2 10-3 14l-13 6-13 3 5-3z" style="fill:#fff;stroke-width:.473632" transform="scale(.75)"/></svg>