<svg xmlns="http://www.w3.org/2000/svg" width="384" height="385.333" version="1.0" viewBox="0 0 288 289"><path d="M24 144v120h240V24H24v120zm186.8-85.4C232 64 249.9 81.8 254 101.7c3.8 18-3.2 35.7-17.7 45-9.6 6.1-17.8 8.1-47.5 11.3-51 5.6-57.5 6.9-63.3 13-4.5 4.7-3.1 6.9 12 18.2 20.1 15.1 27.8 24.2 27.8 33.1 0 9.2-11.2 16-30.5 18.5-7.6 1-8.1.1-1.2-1.8 9.2-2.6 20.4-11.7 20.4-16.7 0-5.1-6-10.2-20.5-17.5-17.4-8.8-30-17.9-33.1-24.1-5.4-10.3 5.3-25.9 23.9-35.1 8.1-4 28.8-10.5 54.2-16.9 2.2-.5 7.5-1.9 11.7-2.9 9.2-2.4 19.2-8 22.4-12.8 3.1-4.4 3.2-11 .4-15.5-2.3-3.6-9.5-8.6-15.1-10.4-12.5-4-39.1-6.1-53.4-4.2-11.1 1.4-18 3.3-26.7 7.3-5.4 2.5-6.8 3.6-7.3 5.8-.8 3.5-2.8 5.4-8.5 7.9-8.3 3.6-13.5 3.7-24 .2C58.4 97.5 43 87 43 80.2c0-3.1.4-3.4 15-10.7 23.5-11.8 35.5-14.9 42.9-11 3.3 1.7 8.7 9.3 9.6 13.6.4 1.6.9 2.9 1.2 2.9.3 0 6.2-1.8 13.2-3.9 45.5-14.3 66.9-17.4 85.9-12.5z"/><path d="M172.762 320.987c.3-.279 2.726-1.203 5.39-2.053 8.434-2.693 14.886-6.557 21.417-12.829 9.425-9.051 7.867-15.26-6.208-24.745-1.94-1.307-9.057-5.327-15.816-8.933-18.777-10.018-28.752-16.445-36.228-23.342-7.578-6.992-9.955-12.238-8.671-19.142 2.323-12.494 15.308-26.476 32.61-35.115 11.739-5.86 39.61-14.556 75.342-23.505 17.913-4.487 25.65-7.271 33.03-11.886 6.187-3.868 9.44-7.015 11.425-11.055 1.36-2.766 1.555-3.85 1.552-8.627-.002-4.809-.186-5.808-1.533-8.34-2.392-4.493-8.713-9.863-15.82-13.437-8.656-4.354-30.04-7.757-53.384-8.497-22.88-.726-42.27 2.728-58.872 10.487-7.51 3.51-8.847 4.643-10.357 8.783-.778 2.134-1.945 4.032-3.053 4.964-2.398 2.018-7.485 4.54-12.956 6.425-10.552 3.636-23.29 1.04-44.3-9.03-17.208-8.247-27.345-16.644-28.646-23.73-.37-2.011-.226-2.345 1.844-4.313 3.757-3.57 33.423-18.127 45.916-22.53 12.453-4.39 21.5-5.356 27.18-2.904 5.358 2.313 11.751 10.538 14.292 18.386.679 2.096 1.591 3.839 2.059 3.932.461.091 10.266-2.667 21.788-6.13 22.984-6.908 34.304-10.042 45.68-12.647 35.64-8.161 58.121-7.38 79.261 2.753 11.762 5.639 25.284 17.277 32.195 27.711 21.123 31.888 12.762 71.066-18.51 86.742-11.838 5.933-22.114 8.012-61.314 12.402-52.464 5.875-66.86 8.218-74.609 12.144-3.74 1.896-8.785 6.897-9.212 9.134-.817 4.272 2.67 8.178 16.993 19.037 27.001 20.47 37.171 31.837 38.684 43.24 1.677 12.64-13.298 22.624-39.392 26.264-7.432 1.036-8.536 1.091-7.777.386z" style="fill:#fff;stroke-width:.575124" transform="scale(.75)"/></svg>