<?xml version="1.0" encoding="UTF-8" standalone="no"?>
<svg
   xmlns:dc="http://purl.org/dc/elements/1.1/"
   xmlns:cc="http://creativecommons.org/ns#"
   xmlns:rdf="http://www.w3.org/1999/02/22-rdf-syntax-ns#"
   xmlns:svg="http://www.w3.org/2000/svg"
   xmlns="http://www.w3.org/2000/svg"
   xmlns:sodipodi="http://sodipodi.sourceforge.net/DTD/sodipodi-0.dtd"
   xmlns:inkscape="http://www.inkscape.org/namespaces/inkscape"
   version="1.0"
   width="238.000000pt"
   height="238.000000pt"
   viewBox="0 0 238.000000 238.000000"
   preserveAspectRatio="xMidYMid meet"
   id="svg177"
   sodipodi:docname="serpentissup.svg"
   inkscape:version="1.0.1 (3bc2e813f5, 2020-09-07)">
  <defs
     id="defs181" />
  <sodipodi:namedview
     pagecolor="#ffffff"
     bordercolor="#666666"
     borderopacity="1"
     objecttolerance="10"
     gridtolerance="10"
     guidetolerance="10"
     inkscape:pageopacity="0"
     inkscape:pageshadow="2"
     inkscape:window-width="1600"
     inkscape:window-height="837"
     id="namedview179"
     showgrid="false"
     inkscape:zoom="2.1113445"
     inkscape:cx="158.66667"
     inkscape:cy="158.66667"
     inkscape:window-x="-8"
     inkscape:window-y="-8"
     inkscape:window-maximized="1"
     inkscape:current-layer="svg177" />
  <metadata
     id="metadata171">
Created by potrace 1.16, written by Peter Selinger 2001-2019
<rdf:RDF>
  <cc:Work
     rdf:about="">
    <dc:format>image/svg+xml</dc:format>
    <dc:type
       rdf:resource="http://purl.org/dc/dcmitype/StillImage" />
  </cc:Work>
</rdf:RDF>
</metadata>
  <g
     transform="translate(0.000000,238.000000) scale(0.100000,-0.100000)"
     fill="#000000"
     stroke="none"
     id="g175">
    <path
       d="M612 1777 c-314 -314 -572 -577 -572 -582 0 -13 1142 -1155 1155 -1155 6 0 269 259 585 575 l575 575 -580 580 c-319 319 -582 580 -585 580 -3 0 -263 -258 -578 -573z m316 -165 c17 -19 32 -40 32 -46 1 -37 17 -38 115 -7 146 47 274 79 369 91 207 28 381 -51 466 -212 43 -80 53 -191 25 -265 -33 -86 -115 -153 -221 -182 -22 -6 -143 -22 -270 -36 -126 -14 -253 -31 -283 -37 -55 -12 -111 -49 -111 -73 0 -15 47 -57 154 -139 130 -98 169 -187 107 -245 -31 -29 -105 -56 -181 -66 l-45 -5 60 28 c70 34 115 76 115 107 0 32 -58 79 -146 121 -85 41 -186 112 -210 149 -24 36 -14 105 21 151 36 48 131 108 208 133 34 11 123 36 197 56 240 65 270 76 311 115 45 42 50 77 20 126 -26 43 -95 74 -204 90 -224 34 -450 -6 -491 -85 -19 -36 -59 -59 -118 -67 -104 -14 -358 120 -346 183 4 22 206 126 288 147 71 18 98 12 138 -32z"
       id="path173" />
  </g>
  <path
     style="fill:#ffffff;stroke-width:0.473632"
     d="m 152.81708,261.74486 c 6.54534,-3.40248 9.58424,-5.5015 12.42198,-8.58009 3.32645,-3.60876 3.79206,-6.45163 1.56062,-9.52853 -2.85606,-3.9382 -7.13493,-6.93617 -18.35157,-12.85799 -15.4185,-8.14019 -26.37366,-16.2519 -28.30632,-20.95934 -1.74299,-4.24542 -1.32165,-9.31443 1.22041,-14.68259 3.75625,-7.93221 17.84657,-17.67386 31.8577,-22.02552 2.86547,-0.88997 14.09127,-4.06922 24.94622,-7.06499 31.92396,-8.81044 35.69049,-10.23477 41.01493,-15.50999 5.15674,-5.10907 6.13888,-9.27961 3.49481,-14.8403 -4.2942,-9.03107 -17.97719,-13.98832 -42.45894,-15.38258 -24.61334,-1.40176 -45.88982,3.73415 -51.46559,12.42324 -2.09559,3.26569 -3.89514,4.93361 -6.96934,6.45954 -8.38157,4.16035 -16.65494,3.50441 -30.422097,-2.41195 -8.479773,-3.64414 -15.530698,-7.9705 -19.913345,-12.2186 -3.694604,-3.58117 -4.782337,-5.56696 -3.866834,-7.05937 0.915344,-1.49216 7.064461,-5.30304 15.255483,-9.45451 15.431638,-7.82124 23.094263,-10.55363 29.889183,-10.658069 4.90403,-0.07537 6.14045,0.49283 10.20851,4.691419 2.85011,2.94156 4.66306,5.88469 5.17812,8.40609 0.65392,3.20125 3.21836,2.93094 19.42531,-2.04756 29.64615,-9.106798 47.90961,-12.492172 61.21691,-11.34737 17.55481,1.510208 31.85563,9.09455 41.42551,21.96975 10.15937,13.66828 12.64456,33.6482 5.68937,45.74025 -4.04174,7.02681 -10.00629,12.51357 -17.966,16.52683 -7.17317,3.61669 -12.10201,4.53837 -44.68071,8.35515 -33.45649,3.91962 -39.20251,4.80189 -43.76327,6.71965 -6.14913,2.58566 -10.19022,6.33024 -9.55647,8.85528 0.41541,1.65511 6.62371,7.33161 16.38759,14.98384 13.44668,10.53854 17.39556,14.63142 20.53289,21.28166 2.63406,5.58341 1.67849,10.84183 -2.63474,14.49888 -2.11373,1.79216 -9.30836,5.12174 -13.62621,6.30603 -3.53927,0.97074 -11.27383,2.43791 -12.73169,2.41506 -0.42175,-0.007 1.82266,-1.3581 4.98758,-3.00332 z"
     id="path183"
     transform="scale(0.74999998)" />
</svg>
