<svg xmlns="http://www.w3.org/2000/svg" width="384" height="385" version="1.0" viewBox="0 0 288 289"><path d="M24 144v120h240V24H24v120zm187-85c21 5 39 23 43 43 4 18-3 35-18 45-9 6-17 8-47 11-51 6-58 7-63 13-5 5-4 7 12 18 20 15 27 24 27 33s-11 16-30 19c-8 1-8 0-1-2 9-3 20-12 20-17s-6-10-20-17c-18-9-30-18-34-24-5-11 6-26 24-35 8-4 29-11 55-17l11-3c9-3 19-8 23-13 3-4 3-11 0-16-2-3-9-8-15-10-13-4-39-6-53-4-12 1-18 3-27 7-6 3-7 4-7 6-1 3-3 5-9 8-8 3-13 4-24 0-20-6-35-17-35-24 0-3 0-3 15-10 24-12 36-15 43-11 3 1 9 9 10 13l1 3 13-4c45-14 67-17 86-12z"/><path d="m173 321 5-2c9-3 15-7 22-13 9-9 7-15-7-25l-15-9c-19-10-29-16-37-23-7-7-10-12-8-19 2-13 15-27 32-35 12-6 40-15 76-24 18-4 25-7 33-12 6-3 9-7 11-11 1-2 2-3 2-8s-1-6-2-9c-2-4-9-9-16-13-8-4-30-8-53-9-23 0-42 3-59 11-8 3-9 5-10 9l-3 5-13 6c-11 4-24 1-45-9-17-8-27-17-28-24-1-2-1-2 2-4 3-4 33-18 45-22 13-5 22-6 28-3 5 2 11 10 14 18l2 4 22-6 45-13c36-8 59-7 80 3 11 6 25 17 32 28 21 32 13 71-19 86-11 6-22 8-61 13-52 6-67 8-75 12l-9 9c-1 4 3 8 17 19 27 21 37 32 39 43 2 13-13 23-39 27h-8z" style="fill:#fff;stroke-width:.575124" transform="scale(.75)"/></svg>