<svg xmlns="http://www.w3.org/2000/svg" width="317.333" height="317.333" version="1.0" viewBox="0 0 238 238"><path d="M61.2 60.3C29.8 91.7 4 118 4 118.5 4 119.8 118.2 234 119.5 234c.6 0 26.9-25.9 58.5-57.5l57.5-57.5-58-58C145.6 29.1 119.3 3 119 3c-.3 0-26.3 25.8-57.8 57.3zm31.6 16.5c1.7 1.9 3.2 4 3.2 4.6.1 3.7 1.7 3.8 11.5.7 14.6-4.7 27.4-7.9 36.9-9.1 20.7-2.8 38.1 5.1 46.6 21.2 4.3 8 5.3 19.1 2.5 26.5-3.3 8.6-11.5 15.3-22.1 18.2-2.2.6-14.3 2.2-27 3.6-12.6 1.4-25.3 3.1-28.3 3.7-5.5 1.2-11.1 4.9-11.1 7.3 0 1.5 4.7 5.7 15.4 13.9 13 9.8 16.9 18.7 10.7 24.5-3.1 2.9-10.5 5.6-18.1 6.6l-4.5.5 6-2.8c7-3.4 11.5-7.6 11.5-10.7 0-3.2-5.8-7.9-14.6-12.1-8.5-4.1-18.6-11.2-21-14.9-2.4-3.6-1.4-10.5 2.1-15.1 3.6-4.8 13.1-10.8 20.8-13.3 3.4-1.1 12.3-3.6 19.7-5.6 24-6.5 27-7.6 31.1-11.5 4.5-4.2 5-7.7 2-12.6-2.6-4.3-9.5-7.4-20.4-9-22.4-3.4-45 .6-49.1 8.5-1.9 3.6-5.9 5.9-11.8 6.7-10.4 1.4-35.8-12-34.6-18.3.4-2.2 20.6-12.6 28.8-14.7 7.1-1.8 9.8-1.2 13.8 3.2z"/><path d="M152.817 261.745c6.545-3.403 9.584-5.502 12.422-8.58 3.327-3.609 3.792-6.452 1.56-9.529-2.855-3.938-7.134-6.936-18.35-12.858-15.42-8.14-26.375-16.252-28.307-20.96-1.743-4.245-1.322-9.314 1.22-14.682 3.756-7.932 17.847-17.674 31.858-22.025 2.865-.89 14.091-4.07 24.946-7.065 31.924-8.81 35.69-10.235 41.015-15.51 5.157-5.11 6.139-9.28 3.495-14.84-4.294-9.032-17.977-13.989-42.46-15.383-24.612-1.402-45.889 3.734-51.465 12.423-2.095 3.266-3.895 4.934-6.969 6.46-8.382 4.16-16.655 3.504-30.422-2.412-8.48-3.644-15.53-7.97-19.913-12.219-3.695-3.581-4.783-5.567-3.867-7.06.915-1.491 7.064-5.302 15.255-9.454 15.432-7.82 23.094-10.553 29.89-10.658 4.903-.075 6.14.493 10.208 4.692 2.85 2.941 4.663 5.884 5.178 8.406.654 3.201 3.218 2.93 19.425-2.048 29.646-9.107 47.91-12.492 61.217-11.347 17.555 1.51 31.856 9.094 41.426 21.97 10.16 13.668 12.644 33.648 5.69 45.74-4.043 7.027-10.007 12.513-17.967 16.527-7.173 3.616-12.102 4.538-44.68 8.355-33.457 3.92-39.203 4.802-43.764 6.72-6.149 2.585-10.19 6.33-9.556 8.855.415 1.655 6.623 7.331 16.387 14.984 13.447 10.538 17.396 14.631 20.533 21.281 2.634 5.584 1.679 10.842-2.635 14.5-2.113 1.791-9.308 5.12-13.626 6.305-3.54.97-11.274 2.438-12.731 2.415-.422-.007 1.822-1.358 4.987-3.003z" style="fill:#fff;stroke-width:.473632" transform="scale(.75)"/></svg>