<svg xmlns="http://www.w3.org/2000/svg" width="320" height="318.667" version="1.0" viewBox="0 0 240 239"><path d="M62.7 60.7 5 118.5l57.8 57.7 57.7 57.8 58-58 58-58L179 60.5C147.4 28.9 121.3 3 121 3c-.3 0-26.5 26-58.3 57.7zm63.1 2.6c.9 1.1 5.6 15.7 8.6 26.6.7 2.5 1.6 4.6 2.1 4.7.6.2 2.6-2.5 4.6-5.9l3.7-6.2 23.1-.3 23.2-.2-.3 2.4c-.2 1.6-8.5 11-23.3 26.5-22.2 23.3-23.2 24.6-29.2 35.9-3.5 6.4-6.3 12-6.3 12.3 0 .6 6.4 10.1 12.4 18.4.5.7.6 2 .3 2.9-.6 1.4-3.3 1.6-24.7 1.6H96v-2.5c0-1.3.6-2.8 1.3-3.2 1.9-1.1 11.7-15.9 11.7-17.5-.1-.7-2.7-6.1-5.8-12-5.4-10.1-7.3-12.3-28.8-34.9-12.6-13.3-23.3-24.8-23.7-25.6-.5-.8-.6-2.1-.3-2.9.4-1.2 4.4-1.4 23-1.4h22.4l4.2 6.5c2.3 3.6 4.6 6.5 5.1 6.5.4 0 1.3-1.9 1.9-4.3.6-2.3 1.5-5.4 2-6.9 1.2-3.7-.6-4.9-9.3-6.2-4-.6-7.2-1.6-7.2-2.1 0-.6 5.2-3.8 11.5-7.2 9.1-4.8 12.5-6.1 16.1-6.2 2.6-.1 5.1.4 5.7 1.2z"/><path d="M128.133 240.696c0-2.688.656-4.067 3.372-7.098 2.768-3.088 10.54-14.589 12.826-18.98l1.551-2.977-4.311-8.675c-9.622-19.357-10.216-20.116-42.92-54.81-20.96-22.236-27.836-29.654-29.929-32.289-1.78-2.242-1.943-4.284-.404-5.107 1.607-.86 14.354-1.311 37.937-1.34l21.165-.027 3.918 6.064c4.3 6.657 7.97 11.534 8.68 11.534.79 0 1.911-2.72 3.884-9.433 2.422-8.237 2.474-9.306.537-11.037-1.52-1.358-2.372-1.597-13.214-3.71-2.616-.51-5.368-1.167-6.116-1.46-1.16-.456-1.27-.644-.746-1.274 1.894-2.282 24.349-14.23 29.93-15.925 4.514-1.37 11.34-1.205 12.856.312 1.184 1.184 4.86 11.855 9.425 27.357 3.217 10.924 4.286 13.827 5.328 14.471.802.496 3.149-2.49 7.35-9.35l3.894-6.36 6.376-.317c3.507-.174 17.324-.4 30.706-.503l24.331-.187-.255 1.693c-.519 3.44-7.86 11.863-37.951 43.547-18.865 19.863-23.734 25.686-28.634 34.245-2.922 5.103-11.39 21.274-11.743 22.421-.241.789.97 2.94 5.354 9.513 3.116 4.671 6.976 10.312 8.577 12.535 3.254 4.516 3.77 6.642 1.864 7.662-1.71.916-13.416 1.318-39.262 1.348l-24.376.028z" style="fill:#fff;stroke-width:.475622" transform="scale(.75)"/></svg>