<svg xmlns="http://www.w3.org/2000/svg" width="400" height="400" version="1.0" viewBox="0 0 300 300"><path d="M29.4 28.9c-.2.2-.4 55.3-.4 122.3V273l121.8-.2 121.7-.3v-244H151.2c-66.8 0-121.5.2-121.8.4zm131 27.3c.7 1.8 4.6 14.4 8.7 28s7.9 24.7 8.4 24.7c.6 0 4-5.1 7.6-11.2l6.7-11.2 38.6-.3L269 86v3.9c0 3.7-1.4 5.3-39.2 45.2-21.6 22.7-39.8 41.9-40.4 42.8-.6.9-5.4 10-10.7 20.2l-9.7 18.6 9.1 13.4c4.9 7.4 9.9 14.1 11 15.1 1.3 1.1 1.9 2.9 1.9 5.7v4.1l-40.7-.2-40.8-.3-.3-4.3c-.2-3.2 0-4.2 1.2-4.2.8 0 6-6.6 11.5-14.7l10-14.6-9.7-19-9.7-18.9-40.2-42.4C35 97.2 32 93.7 32 90.5V87h38.8l38.7.1 7 11.1c3.9 6.1 7.4 11.2 7.9 11.2.7.1 7.6-22.2 7.6-24.4 0-.3-1.6-1.5-3.4-2.7-2.6-1.6-6.1-2.5-13.7-3.3-9.7-1-11.9-1.8-11.9-4.5 0-.6 8.9-5.6 19.8-11.2l19.7-10.2h8.3l8.3-.1 1.3 3.2z"/><path d="m170.076 339.254-23.654-.163-.412-4.182c-.473-4.797-.157-6.303 1.406-6.712.61-.159 3.22-3.036 5.801-6.393 6.5-8.453 22.958-32.42 22.764-33.147-.52-1.94-25.39-49.879-26.668-51.402-.854-1.017-20.377-21.704-43.385-45.97-45.662-48.16-52.787-55.793-57.84-61.965-4.306-5.26-5.103-6.851-5.103-10.19v-2.719l51.446.153 51.446.152 7.51 11.713c8.456 13.192 11.725 17.84 12.547 17.84 1.02 0 10.182-29.273 10.183-32.538 0-1.098-3.387-3.836-6.863-5.546-1.79-.881-9.424-2.385-15.821-3.118-11.307-1.294-15.523-2.592-15.523-4.776 0-1.794 4.275-4.273 33.8-19.602l18.576-9.644H211.924l.943 2.239c.518 1.23 4.67 14.328 9.228 29.104 8.026 26.025 12.576 39.941 13.818 42.261.578 1.08.644 1.082 1.784.05 1.345-1.217 7.936-11.517 13.933-21.773l4.05-6.925 8.97-.389c4.935-.213 28.005-.388 51.266-.388h42.293v3.465c0 6.408 1.778 4.39-77.72 88.233-13.686 14.434-25.869 27.458-27.072 28.942-2.573 3.173-28.462 52.472-28.085 53.48.494 1.32 18.48 27.418 22.676 32.903 5.842 7.638 6.318 8.649 6.32 13.425v4.03l-30.298-.143c-16.664-.078-40.943-.215-53.954-.305z" style="fill:#fff;stroke-width:.597015" transform="scale(.75)"/></svg>