<svg xmlns="http://www.w3.org/2000/svg" width="320" height="319" version="1.0" viewBox="0 0 240 239"><path d="M63 61 5 119l58 57 58 58 58-58 58-58-58-57-58-58-58 58zm63 2a238 238 0 0 1 11 32l4-6 4-6 23-1h23v2c0 2-9 11-24 27a130 130 0 0 0-35 48l12 19 1 2c-1 2-4 2-25 2H96v-2l1-4c2-1 12-16 12-17l-6-12c-5-10-7-12-29-35a757 757 0 0 1-24-29l23-1h23l4 7 5 6 2-4 2-7c1-4-1-5-9-6l-7-2 11-8c9-4 13-6 16-6l6 1z"/><path d="M128 241c0-3 1-4 4-7l12-19 2-3-4-9c-10-19-11-20-43-55l-30-32c-2-2-2-4-1-5 2-1 15-2 38-2h21l4 6 9 12 4-9c2-9 2-10 0-11-1-2-2-2-13-4l-6-2-1-1 30-16h13l10 28 5 14c1 1 3-2 7-9l4-6 7-1h55l-1 1c0 4-8 12-38 44a176 176 0 0 0-40 56l5 10 9 13c3 4 4 6 2 7s-14 2-39 2h-25z" style="fill:#fff;stroke-width:.475622" transform="scale(.75)"/></svg>