<svg xmlns="http://www.w3.org/2000/svg" width="400" height="400" version="1.0" viewBox="0 0 300 300"><path d="M29 29v244h244V29H29zm131 27 9 28 8 25c1 0 5-5 8-11l7-11 38-1h39v4c0 4-1 5-39 45l-41 43-10 20-10 19 9 13 11 15 2 6v4h-81l-1-5 1-4 12-15 10-14-10-19-9-19-41-43C35 97 32 94 32 91v-4h78l7 11 7 11 8-24-3-3-14-3c-10-1-12-2-12-4l20-12 19-10h17l1 3z"/><path d="M170 339h-24v-4l1-7 6-6 23-33-27-52A7372 7372 0 0 0 48 129c-4-5-5-7-5-10v-3l51 1h52l7 11 13 18 10-32c0-1-3-4-7-6l-16-3c-11-1-15-3-15-5s4-4 34-19l18-10h22l1 2a1124 1124 0 0 1 23 72h2l14-22 4-7h9l51-1h42v4c0 6 2 4-78 88l-27 29-28 53 23 33c6 8 6 9 6 14v4h-30l-54-1z" style="fill:#fff;stroke-width:.597015" transform="scale(.75)"/></svg>