<svg xmlns="http://www.w3.org/2000/svg" width="317" height="317" version="1.0" viewBox="0 0 238 238"><path d="M62 61 4 119l58 57 58 58 58-58 58-58-58-57-58-58-58 58zm39 19 9 12 2 7c2 6-1 16-5 15-2 0-6-4-11-10-7-7-10-10-13-11-2 0-5-2-6-4-2-3-2-3-11-3h-9v-3c0-4 2-7 6-10 3-2 5-2 16-2h12l10 9zm78-4c4 4 5 6 5 8v2h-9c-9 0-9 0-12 3l-7 4c-4 1-6 3-14 11-10 10-12 12-15 8l-1-9c1-7 1-8 3-11 2-1 4-4 5-7l6-8c9-6 9-6 22-6h13l4 5zm3 17c3 2 4 12 3 19l-5 11-3 8-3 5-8 15c0 2 2 3 7 3 3 0 5-1 8-3l11-10c5 1-3 12-9 14-1 1-4 2-4 4l-5 4-9 6c-3 3-6 4-7 3-3-1-6-6-5-9v-8c0-9 4-25 8-31l6-8c4-6 4-9-2-15-5-7-4-8 6-8l9-1 2 1zM74 94c4 0 4 1 0 6-4 6-4 13 0 18l7 12 4 8 1 13c1 14 0 20-3 21-2 1-7-2-14-7-9-7-10-10-3-10 3 0 4 0 6-2 1-3 1-5-4-13-7-11-9-14-11-21-3-13-3-20 1-23 2-2 3-3 7-3l9 1zm127 42-1 1-1-1 1-2 1 2zm-153 6 6 5c4 2 6 6 5 7l-4 1c-2 0-3-1-5-3l-4-5c-3-3-4-8-2-8l4 3z"/><path d="m70 206-10-13c-2-2-2-3-2-5l1-2c1 0 2 0 6 5l6 5c6 4 9 8 8 10h-9zm36 22c-6-3-18-11-22-15-3-4-2-6 3-6s7-1 8-3c2-2 2-5 1-9l-7-11c-9-14-11-18-14-31-2-7-2-17-1-20 1-4 3-6 6-8l8-1c8 0 12 1 13 2l1 3-3 4c-3 4-4 7-5 12a20 20 0 0 0 3 12 2060 2060 0 0 0 11 18l6 10v40c-2 4-4 5-8 3z" style="fill:#fff;stroke-width:.473632" transform="scale(.75)"/><path d="m140 150-13-12-11-11-5-3-7-5-5-4-12-1H77v-4c0-5 2-8 6-12 5-3 6-3 23-3h15l10 10c13 12 15 16 15 19l2 7c3 8 2 17-3 20-2 1-3 1-5-1zm31 1c-2-1-3-7-2-16 0-7 1-8 4-12l5-8c2-6 5-8 11-13 9-7 9-7 29-7h15l4 5c8 8 8 9 8 13l-1 2h-22l-5 3c-3 3-6 5-10 6l-4 2-13 12-14 12c-2 2-4 2-5 1z" style="fill:#fff;stroke-width:.473632" transform="scale(.75)"/><path d="m210 229-5-6-1-8 1-10c0-8 2-21 6-30 2-6 2-7 9-16 6-9 7-11 6-14 0-3-1-5-5-11-4-5-5-6-4-7 0-2 5-3 19-4h5l2 2c3 3 4 12 3 20 0 5-2 10-6 20l-4 9-3 5-9 15c-3 6-3 8-2 10 2 2 11 2 15 0l7-6c9-8 13-10 13-8 1 2-3 9-7 13l-6 4-6 4-5 5-12 8c-7 5-9 6-11 5z" style="fill:#fff;stroke-width:.473632" transform="scale(.75)"/></svg>