<svg xmlns="http://www.w3.org/2000/svg" width="384" height="385" version="1.0" viewBox="0 0 288 289"><path d="M24 144v120h240V24H24v120zm85-56a243 243 0 0 0 15 15c5 5 6 7 8 12 0 4 2 7 3 9 2 2 1 8-1 13s-6 9-8 9-13-11-18-19c-6-8-11-11-17-11-3 0-4 0-5 3l-4 5c-8 8-8 20 0 28 4 5 14 24 15 31l1 21c0 22-2 25-13 20l-10-7-8-5-5-5c-2-4-2-4-6-4-5 0-9-2-11-7l-5-6c-3-3-4-5-4-7 0-7 4-7 8 0l9 8c3 1 6 4 7 6 3 4 5 5 10 5 9-1 10-7 4-16l-6-10-6-9c-3-5-10-27-10-32l1-10c1-5 2-6 4-8 3-3 4-3 15-3 13 0 15 0 11-5-2-2-2-2-13-3-11 0-11-1-13-3s-2-3-1-6c1-4 6-9 11-12 3-2 6-2 20-2h17l5 5zm113-3c4 2 12 11 13 14 2 6-3 11-8 8l-9-1c-5 0-7 0-10 2-4 3-4 5 1 5h19c4-1 6 0 7 7 3 10 2 24-3 33l-5 11c-2 5-4 10-7 13l-4 5-3 8c-3 6-3 6-1 8 1 2 3 2 7 2 5 0 6 0 8-3l6-5 8-7c4-4 7-5 8-2 0 3-1 6-4 11l-4 4-6 4-7 5-7 6-13 9-8 5c-6 0-11-8-10-15l1-14 1-13 4-15c1-4 3-8 8-15 9-12 9-13 9-18 0-3-1-5-4-10l-6-8c-2-3-3-3-8-3h-5l-8 8c-21 23-22 24-27 20-2-3-2-4-2-13 0-11 1-15 6-20l4-7c1-3 2-5 5-7l9-8 8-5h4a188 188 0 0 1 33 1zm38 87 2 3-6 3c-3-1-2-8 1-8l3 2z"/><path d="M120 301c-6-2-12-5-21-12l-8-6-8-9c-3-3-4-4-8-4-7 0-11-2-15-8l-7-9-4-7c-2-4 1-9 3-8 2 0 4 2 9 9l9 7c5 3 10 8 11 11l4 3 7 1c8 0 12-3 12-9 0-4-2-7-8-16l-14-24c-3-5-9-24-12-35v-11c1-12 3-16 8-20l3-1 15-1c15 0 17 0 17-3l-4-6-18-2-12-2c-2 0-5-4-5-6 0-6 8-16 15-19 5-3 10-3 31-3h18l13 12c13 13 20 19 21 23l4 9 3 10c1 2 2 3 2 7 0 7-3 13-7 18-3 3-6 5-7 4l-23-24c-10-12-15-15-22-15h-6l-3 4-4 6a27 27 0 0 0-1 37l13 21c5 11 8 18 8 24v46c-1 4-2 6-4 7l-5 1zm142 0c-3-1-6-5-7-9-2-3-2-3-1-12l1-16c0-9 1-16 3-21l3-13c2-8 4-12 13-25s10-15 10-21l-1-7-15-22-8-1h-7l-15 16c-18 20-23 24-26 24-2 0-5-3-6-6-2-2-2-14-1-22 0-7 2-12 6-16l6-10c2-6 4-8 12-15 17-14 16-14 43-14 21 0 21 0 26 4l14 15 1 6c0 3 0 4-2 5-1 2-2 2-4 2l-6-1c-5-2-17-2-20 0-4 1-8 5-7 7 0 3 20 4 29 2h6c5 4 8 19 6 32-1 8-2 12-6 21l-7 15c-3 8-6 13-10 18l-4 7a171 171 0 0 1-8 17c0 2 3 5 5 5h14l5-4 6-6 9-7c6-6 8-7 10-7 3 0 4 5 1 10l-9 12-8 5-9 7-12 9-12 8-14 10-4-2zm78-65c-2-2 0-9 3-9 2 0 6 4 6 6-1 2-5 4-7 4l-2-1z" style="fill:#fff;stroke-width:.575124" transform="scale(.75)"/></svg>