<svg xmlns="http://www.w3.org/2000/svg" width="317.333" height="317.333" version="1.0" viewBox="0 0 238 238"><path d="M61.7 60.8 4 118.5l57.8 57.8 57.7 57.7 58-58 58-58L178 60.5C146.4 28.9 120.3 3 120 3c-.3 0-26.5 26-58.3 57.8zm38.8 19.6c6.8 6.8 9.5 10.2 9.5 11.9 0 1.4.7 4.2 1.6 6.3 2.7 6.6-.3 15.9-5 15.2-1.3-.2-5.7-4.2-10.9-9.9-6.5-7.2-9.6-9.8-12.5-10.7-2.2-.7-4.7-2.4-6-4.1-2.1-2.9-2.5-3-11-3.3l-8.7-.3-.3-2.8c-.4-3.5 1.9-7.2 6.1-9.7 2.7-1.7 5.1-2 15.5-2H91l9.5 9.4zm78.9-4.4c3.7 3.9 4.7 5.7 4.4 7.8l-.3 2.7-8.7-.4c-8.6-.3-8.8-.3-11.9 2.8-1.8 1.8-4.8 3.5-7.2 4.1-3.5.7-5.8 2.6-13.7 11-9.6 10.2-12.3 11.7-15 8.5-.8-1-1.1-4.1-.9-9.4.4-7 .7-8.3 3.1-10.8 1.4-1.5 3.4-4.7 4.3-7 1.2-3 3.3-5.4 6.8-8 8.6-6.3 8.3-6.2 21.8-6.3h12.6l4.7 5zm2.3 16.8c3 1.9 4.4 11.8 2.8 19.4-.4 1.8-2.3 6.5-4.1 10.5-1.9 3.9-3.4 7.7-3.4 8.5 0 .7-1.3 2.9-2.8 4.8-3.3 4-8.2 13.3-8.2 15.4 0 1.8 2.2 2.6 7.1 2.6 3.2 0 4.8-.7 7.4-3.3 7.2-6.8 10.1-9.2 11.5-9.2 4.5 0-3 11.6-8.7 13.5-1.7.6-3.9 2.2-4.7 3.5-.9 1.4-3.1 3.2-4.9 4.1-1.7 1-5.6 3.6-8.4 6-3.8 3-5.9 4.1-7.4 3.7-2.8-.8-6.1-6.2-5.2-8.8.3-1.1.5-5 .5-8.6-.3-9 3.8-25 7.8-30.7 1.6-2.3 4.4-6.2 6.1-8.6 3.8-5.3 3.4-8.3-1.8-15-5-6.4-4.2-7.4 5.9-7.9 4.6-.1 8.5-.4 8.8-.5.3-.1 1 .2 1.7.6zm-107.8.8c3.8.8 3.8 1.8.1 6.8-4 5.3-4.2 12.6-.4 17.7 1.4 1.9 4.6 7.2 7.1 11.8l4.6 8.4.7 13.1c.6 13.6-.1 19.3-2.6 20.3-2.2.8-7.2-1.6-14.6-7-9.2-6.8-10.1-9.7-2.8-9.7 3.1 0 4.3-.5 5.5-2.4 1.8-2.8 1.3-4.7-3.6-12.3-7.4-11.3-8.8-14.1-10.7-21.3-3.4-12.6-3.3-20 .3-23.5 2-2 3.4-2.5 7.8-2.5 3 0 6.9.3 8.6.6zM201 135.5c0 .8-.4 1.5-1 1.5-.5 0-1-.7-1-1.5s.5-1.5 1-1.5c.6 0 1 .7 1 1.5zM48 142c1.1 1.6 3.8 3.9 5.9 5.1 3.7 2.1 6.6 6 5.4 7.3-.4.3-2.1.6-3.9.6-2.4 0-3.8-.7-5.1-2.6-1-1.4-3-4-4.5-5.7-3-3.2-3.8-7.7-1.4-7.7.8 0 2.4 1.3 3.6 3z"/><path d="M70.334 205.579c-1.794-.936-5.204-4.913-10.4-12.133-1.6-2.222-1.878-2.968-1.895-5.075-.017-2.165.105-2.488.986-2.614 1.023-.146 1.882.586 6.471 5.517 1.246 1.339 3.804 3.473 5.684 4.742 5.46 3.686 9.007 8.166 7.588 9.585-.247.247-1.82.565-3.494.707-2.501.212-3.384.082-4.94-.73zM105.52 227.629c-5.514-2.268-17.205-10.424-21.363-14.905-3.562-3.838-2.502-5.723 3.228-5.743 4.37-.014 6.21-.706 7.831-2.944 1.712-2.362 1.877-5.353.476-8.62-.51-1.192-3.487-6.196-6.615-11.12-9.081-14.299-11.041-18.704-14.034-31.55-1.616-6.937-2.087-16.43-1-20.146.914-3.12 3.029-5.8 5.691-7.212 1.772-.94 2.625-1.038 8.598-.997 7.272.05 11.775.7 13.087 1.887.768.695.786.924.182 2.369-.368.88-1.661 2.99-2.874 4.69-2.782 3.898-4.021 7.141-4.34 11.357a19.803 19.803 0 0 0 2.973 12.028c.918 1.46 2.548 4.04 3.622 5.733 1.074 1.693 4.337 7.351 7.25 12.574l5.299 9.496.612 12.055c.65 12.785.441 25.02-.48 28.157-1.21 4.123-3.324 4.873-8.144 2.89z" style="fill:#fff;stroke-width:.473632" transform="scale(.75)"/><path d="M139.958 150.126c-1.042-.775-6.796-6.394-12.788-12.485l-10.893-11.076-5.093-2.466c-4.195-2.03-5.536-2.956-7.614-5.252-1.387-1.533-3.311-3.117-4.276-3.52-1.258-.525-4.641-.854-11.97-1.163-5.62-.237-10.313-.526-10.43-.642-.117-.117-.236-1.676-.266-3.465-.082-4.88 1.944-8.339 6.868-11.73 4.165-2.87 5.887-3.131 22.598-3.437l14.919-.273 10.47 10.593c12.101 12.242 14.6 15.362 14.999 18.722.15 1.263.942 4.315 1.762 6.781 2.803 8.438 1.449 17.105-3.114 19.925-2.01 1.243-2.936 1.152-5.172-.512zM170.863 151.05c-2.264-1.318-3.114-7.247-2.303-16.065.66-7.177 1.001-8.176 4.11-12.03 1.45-1.797 3.702-5.39 5.004-7.987 2.819-5.616 5.175-8.283 11.49-13.001 8.95-6.687 9.183-6.745 28.47-7.03l15.156-.224 4.634 5.098c7.094 7.806 8.009 9.515 7.252 13.55l-.307 1.636-10.573-.259c-5.814-.142-11.132-.117-11.815.054-.684.172-2.794 1.612-4.69 3.2-3.753 3.144-6.79 4.864-10.516 5.958-1.322.388-3.149 1.148-4.06 1.69-.912.541-6.774 6.033-13.025 12.204-6.252 6.171-12.216 11.782-13.254 12.47-1.948 1.29-4.129 1.578-5.573.737z" style="fill:#fff;stroke-width:.473632" transform="scale(.75)"/><path d="M209.562 228.841c-1.924-1.189-3.955-3.65-5.054-6.125-.819-1.842-.854-2.496-.4-7.341.273-2.926.498-7.59.5-10.364.002-8.122 2.532-20.863 6.005-30.24 2.07-5.59 2.736-6.747 9.124-15.848 5.912-8.423 6.915-10.574 6.514-13.963-.352-2.972-1.547-5.319-5.57-10.943-3.339-4.668-4.248-6.412-3.884-7.449.604-1.717 5.021-2.443 19.253-3.162l5.155-.26 1.502 1.592c2.998 3.179 4.62 12.133 3.667 20.25-.616 5.251-2.118 9.686-6.678 19.713-1.568 3.449-3.195 7.455-3.616 8.903-.421 1.448-1.743 4.061-2.938 5.807-5.495 8.031-6.491 9.654-8.925 14.541-3.006 6.035-3.56 8.34-2.331 9.698 1.798 1.987 11.482 2.526 14.751.821.814-.424 4.069-3.165 7.234-6.09 9.41-8.697 12.793-10.832 13.523-8.534.706 2.225-3.333 9.01-7.693 12.923-1.271 1.142-3.914 2.877-5.873 3.856-2.63 1.314-4.193 2.506-5.98 4.56-1.33 1.529-3.65 3.579-5.159 4.555-5.485 3.554-8.495 5.67-11.977 8.419-6.486 5.122-8.839 6.11-11.15 4.681z" style="fill:#fff;stroke-width:.473632" transform="scale(.75)"/></svg>