<svg xmlns="http://www.w3.org/2000/svg" width="384" height="385.333" version="1.0" viewBox="0 0 288 289"><path d="M24 144v120h240V24H24v120zm84.6-56.3c2.8 2.7 6.1 5.8 7.5 7 1.3 1.2 5 4.8 8.1 8 4.9 5 6 6.9 7.4 12.4.9 3.5 2.3 7.3 3 8.4 2 2.7 1.7 8.5-.5 13.8-1.8 4.2-6.2 8.7-8.4 8.7-1.4 0-12.4-11.5-18-18.7-6-7.8-11.1-11.3-16.5-11.3-3.5 0-4.4.4-5.6 2.7-.8 1.6-2.6 4-3.9 5.4-7.6 7.9-7.5 19.5 0 27.8 4.7 5.1 14 23.8 15.2 30.6.6 3.3 1.1 12.7 1.2 21 .1 22.5-1.9 25.6-13.5 20.4-2.6-1.1-7-4.1-9.7-6.5-2.8-2.5-6.2-4.9-7.5-5.4-1.3-.5-3.5-2.7-4.9-5-2.3-3.7-2.9-4-6.9-4-4.8 0-8.7-2.4-11-6.8-.8-1.5-3.1-4.4-5-6.5-2.4-2.4-3.6-4.7-3.6-6.5.1-6.7 3.8-6.8 8.5-.2 1.7 2.5 5.4 5.8 8.3 7.5 2.9 1.7 6.1 4.5 7.2 6.2 2.6 4.3 5.4 5.6 10.4 5 8.2-1.1 9.5-7 3.4-15.7-1.7-2.5-4.5-7-6.1-10-1.7-3-4.3-7.3-5.8-9.5-3.1-4.3-9.9-26.2-9.9-31.6 0-1.8.5-6.1 1.1-9.6.9-5.1 1.7-6.8 4.1-8.8 2.9-2.5 3.6-2.6 14.5-2.4 13.1.2 14.9-.5 11.6-4.8-1.9-2.7-2.4-2.8-13.3-3.3-10.8-.5-11.4-.6-13.3-3.1-1.7-2.3-1.8-3.2-.8-6.1 1.4-4.1 6.1-9.2 11-11.8 3.1-1.6 5.9-1.9 20.2-2h16.6l4.9 4.7zM222.4 85c3.7 2.3 11.3 10.9 12.5 14.2 2 5.6-3 10.4-8.1 7.7-1.2-.7-5.3-1.3-9-1.3-5.3-.1-7.2.3-9.5 2-4.2 3.2-4.1 5 .4 5.8 5.8.9 15.9.7 18.8-.4 4-1.5 6 .2 7.9 6.8 2.9 10.5 1.5 24.6-3.5 32.7-1 1.7-3.2 6.8-4.9 11.4-1.9 5.4-4.4 9.9-7 12.9-2.2 2.4-4 4.9-4 5.5 0 .5-1.4 3.8-3.2 7.3-3.1 6.2-3.2 6.3-1.3 8.3 1.4 1.7 3 2.1 7.6 2.1 5.3 0 5.9-.3 7.9-3.1 1.2-1.6 3.9-4 5.9-5.3 2-1.3 5.5-4.2 7.8-6.5 4.4-4.4 7.5-5.1 8.1-1.8.6 3.1-.6 6-4.3 10.2-1.9 2.2-3.5 4.3-3.5 4.6 0 .3-2.6 2-5.9 3.8-3.2 1.7-6.6 4.2-7.4 5.5-.9 1.3-4 3.8-7 5.5-3 1.7-8.5 5.6-12.3 8.6-3.8 3-7.8 5.5-8.9 5.5-5.6 0-10.9-8.2-9.5-14.6.4-2.1.8-8.6.8-14.4 0-6.1.5-11.7 1.2-13.5 1.4-3.4 2.6-7.7 4-14.9.7-3.5 3-7.6 7.9-14.5 8.6-12 9.1-13.1 9.1-17.9 0-3.1-1-5.3-4.3-9.8-2.3-3.3-5-7.1-6-8.7-1.6-2.4-2.3-2.7-7.3-2.7h-5.6l-7.7 8.2c-20.9 22.6-22.3 23.7-26.6 19.4-2.3-2.3-2.5-3.2-2.5-12.6 0-11.2 1-14.6 5.9-19.8 1.7-1.8 3.5-5 4.1-7.2.7-2.6 2.4-5.1 5.3-7.4 2.3-2 6.4-5.4 9-7.6 2.6-2.2 6-4.3 7.5-4.6 1.5-.3 3.2-.7 3.7-.9.6-.2 7.7-.4 15.9-.4 13.1-.1 15.2.1 18 1.9zm37.8 86.7c1 .9 1.8 2.2 1.8 3 0 1.7-4.4 3.8-6.4 3-2.9-1.1-1.4-7.7 1.8-7.7.5 0 1.8.7 2.8 1.7z"/><path d="M120.059 300.76c-6.136-1.453-12.5-5.104-21.095-12.099-2.762-2.248-6.393-4.87-8.068-5.826-2.955-1.687-4.334-3.094-8.326-8.497-2.4-3.25-3.908-4.01-7.967-4.021-6.475-.017-10.476-2.397-14.81-8.812-1.538-2.275-4.52-6.207-6.629-8.738-2.107-2.53-4.116-5.546-4.463-6.702-1.238-4.122.832-8.84 3.565-8.125 1.367.358 3.505 2.403 9.012 8.623 2.008 2.268 5.783 5.548 8.627 7.497 4.919 3.37 10.226 8.371 11.593 10.926.37.693 1.837 1.942 3.259 2.775 2.335 1.369 3.041 1.495 7.322 1.311 8.014-.345 11.527-3.029 11.475-8.768-.035-3.957-1.571-7.459-7.072-16.123-3.614-5.692-10.973-17.843-14.702-24.274-2.983-5.146-9.244-24.338-11.418-35.005-.804-3.945-.84-5.46-.26-10.64 1.36-12.093 3.265-16.76 8.17-20.008l2.355-1.558 14.996-.306c15.703-.32 17.585-.63 17.585-2.89 0-1.64-2.812-5.656-4.612-6.587-1.909-.987-4.517-1.291-17.457-2.035-6.063-.349-11.053-.914-12.165-1.379-2.345-.98-4.874-4.6-4.874-6.974 0-5.165 8.113-15.185 15.066-18.608 4.99-2.456 9.82-2.908 31.123-2.914l17.722-.004 12.888 12.136c13.481 12.692 19.687 19.29 21.487 22.846.589 1.162 2.036 5.22 3.217 9.015 1.18 3.796 2.816 8.196 3.633 9.778 1.209 2.339 1.487 3.68 1.49 7.189.006 6.752-2.265 12.616-6.87 17.739-3.2 3.558-5.568 4.97-7.023 4.186-1.928-1.04-15.498-15.388-22.402-23.686-10.22-12.285-15.06-15.602-22.838-15.652-2.248-.015-4.639.268-5.312.628-.672.36-2.004 2.02-2.959 3.687-.954 1.668-3.073 4.586-4.708 6.484-9.742 11.307-9.994 25.01-.669 36.445 4.126 5.06 8.46 12.255 13.034 21.642 5.292 10.858 7.551 17.296 8.432 24.03.973 7.442.998 41.114.033 45.21-1.096 4.655-2.302 6.77-4.434 7.782-2.107 1-2.028.996-4.951.303zM262.297 301.299c-3.189-1.579-6.14-5.072-7.677-9.09-1.183-3.091-1.204-3.557-.573-12.699.36-5.219.654-12.336.653-15.815-.003-8.92.851-15.325 2.82-21.15.935-2.766 2.385-8.197 3.223-12.069 1.88-8.69 3.879-12.636 13.036-25.732 9.054-12.948 9.904-14.663 10.153-20.494.16-3.738-.031-5.202-.95-7.28-1.473-3.33-13.72-20.966-15.054-21.68-.555-.297-4.09-.715-7.854-.927l-6.845-.387-15.306 16.326c-18.017 19.217-22.777 23.507-26.094 23.513-1.62.003-5.114-3.015-6.24-5.39-1.316-2.772-1.811-13.976-.982-22.214.75-7.44 2.443-11.977 5.933-15.887 3.45-3.865 5.416-6.959 6.795-10.69 2.074-5.616 3.501-7.339 12.123-14.64 16.435-13.916 15.792-13.707 42.197-13.707 21.253 0 21.562.045 26.7 3.953 3.746 2.848 11.028 11.034 13.367 15.026 1.423 2.427 1.651 3.353 1.463 5.934-.182 2.508-.551 3.388-2.048 4.885-1.562 1.562-2.22 1.817-4.55 1.771-1.5-.03-4.149-.503-5.888-1.051-4.596-1.449-16.593-1.553-20.162-.176-3.872 1.495-7.208 5.181-6.937 7.667.317 2.922 20.066 3.961 29.895 1.572 3.47-.843 3.737-.832 5.176.207 4.831 3.492 8.032 18.99 6.49 31.43-1.004 8.103-2.25 12.202-6.407 21.089-2.146 4.587-5.127 11.445-6.624 15.24-3.27 8.288-6.014 13.116-10.302 18.117-1.763 2.056-3.7 5.033-4.306 6.614-.605 1.582-2.544 5.852-4.309 9.49-1.765 3.637-3.21 7.176-3.214 7.864-.008 1.863 2.657 4.675 5.064 5.344 3.235.898 12.525.75 14.37-.23.854-.453 2.688-2.16 4.076-3.792 1.387-1.632 4.49-4.422 6.894-6.2 2.405-1.78 6.408-5.055 8.895-7.28 6.047-5.41 7.826-6.634 9.64-6.634 3.164 0 3.595 5.287.82 10.065-1.317 2.269-6.486 8.946-9.161 11.836-.755.816-4.165 3.112-7.577 5.102-3.583 2.09-7.434 4.88-9.118 6.605-3.468 3.553-5.901 5.418-12.308 9.434-2.636 1.652-7.876 5.332-11.644 8.178-7.468 5.639-12.981 9.165-14.334 9.166-.475.001-1.968-.546-3.319-1.214zM340.184 235.9c-2.112-2.334-.17-8.726 2.65-8.726 2.63 0 6.564 4.193 5.9 6.288-.387 1.218-4.573 3.49-6.431 3.49-.642 0-1.596-.474-2.12-1.053z" style="fill:#fff;stroke-width:.575124" transform="scale(.75)"/></svg>