<svg xmlns="http://www.w3.org/2000/svg" width="317" height="317" version="1.0" viewBox="0 0 238 238"><path d="M62 61 4 119l58 57 58 58 58-58 58-58-58-57-58-58-58 58zm55-13c17 1 28 4 39 11a69 69 0 0 1-21 124c-7 2-25 3-32 1a71 71 0 0 1-51-46c-4-15-3-36 3-49l14-20 4-4 3 3 3 3-6 7a57 57 0 0 0 2 79c11 11 25 17 41 17s28-5 40-16c12-12 17-25 17-43 0-11-3-21-10-31a56 56 0 0 0-45-25c-7 0-7 0-10 3-4 4-9 6-19 6-8 0-9 0-11-2-2-4-1-6 6-12 6-6 10-8 15-7l18 1z"/><path d="M142 246c-10-1-24-7-34-14a90 90 0 0 1-41-65 94 94 0 0 1 17-66c3-5 12-14 13-14l4 4 4 4-3 4a76 76 0 0 0-24 59c0 20 8 37 22 51 7 7 12 11 19 15 11 5 20 8 33 8 23 1 40-6 57-23a68 68 0 0 0 22-54l-1-16c-7-30-29-52-59-59-5-1-20-2-22-1l-5 4c-6 5-11 7-23 7-11 1-13 0-15-2l-2-3c-1-3 0-5 5-9 5-6 9-10 13-12 3-2 4-2 8-2l41 4c19 2 35 10 48 23 15 14 24 30 28 50l1 16-1 17a93 93 0 0 1-69 73c-7 1-27 2-36 1z" style="fill:#fff;stroke-width:.473632" transform="scale(.75)"/></svg>