<svg xmlns="http://www.w3.org/2000/svg" width="400" height="400" version="1.0" viewBox="0 0 300 300"><path d="m28 28-1 124v122h246V28l-123-1-123 1zm105 25h14c20-1 45 5 62 17 19 13 33 32 40 56 2 8 2 10 2 26s0 18-2 27a99 99 0 0 1-116 70c-37-9-65-36-75-71A101 101 0 0 1 89 78l2 1c0 2 2 4 3 5l3 3-7 7a83 83 0 0 0 34 136 83 83 0 0 0 64-152c-12-6-19-8-33-9h-12l-4 4c-5 7-11 9-25 10-13 0-16-1-18-6l-1-4c0-2 11-15 16-18 5-4 13-5 22-3z"/><path d="M191 333a132 132 0 0 1-108-83c-7-15-8-24-9-44 0-16 0-22 3-32a132 132 0 0 1 42-71l2 3 4 6 4 4-7 7a110 110 0 0 0 2 159 112 112 0 0 0 135 14c28-17 47-46 51-79a110 110 0 0 0-80-122c-7-2-13-2-27-3l-12-1-2 3c-4 4-10 10-13 11-7 3-16 5-30 5-10 0-12-1-15-3-2-3-4-9-3-11 2-4 18-21 22-24 7-4 17-4 28-2 4 1 7 2 21 2a129 129 0 0 1 104 45c13 14 22 31 29 52 3 10 3 17 3 38-1 20-1 21-5 33a133 133 0 0 1-106 93h-33z" style="fill:#fff;stroke-width:.597015" transform="scale(.75)"/></svg>