<svg xmlns="http://www.w3.org/2000/svg" width="400" height="400" version="1.0" viewBox="0 0 300 300"><path d="M27.5 28.2c-.3.7-.4 56.2-.3 123.3l.3 122h245v-246l-122.3-.3c-97.3-.2-122.4 0-122.7 1zM133 52.5c4 1.1 7.9 1.4 14 .9 20.4-1.5 44.6 5.1 62 16.9 18.8 12.7 32.6 32 39.6 55.2 2.6 8.3 2.8 10.3 2.8 26.5s-.2 18.2-2.8 26.5c-11 36.3-38.1 61.9-74.1 70.1-11 2.5-31.1 2.5-42 0-36.8-8.5-64.8-35.3-74.5-71.1-3.1-11.5-3.8-32.3-1.5-43.6 4.1-20.4 12.4-36.3 26.8-51.7 2.8-2.8 5.3-5.2 5.8-5.2.4 0 1.1 1 1.5 2.2.4 1.3 2 3.5 3.6 5l3 2.8-7 7.4c-21.5 23.1-28.3 54.3-18.4 83.9 4.3 12.7 10.2 22 20.6 32.2 10.1 10 19.4 15.8 31.6 19.9 50.6 16.7 103.7-17.6 108.8-70.4 3.4-34.8-14.2-67-45.2-82.5-11.9-5.9-18.6-7.6-32.7-8.2l-11.6-.5-3.9 4.6c-5.2 6.3-11.5 8.6-25.4 9.2-12.6.6-15.5-.2-17.5-5.1-.8-1.9-1.5-3.9-1.5-4.4 0-1.6 11.5-14.6 15.6-17.8 5.5-4.1 13.7-5.2 22.4-2.8z"/><path d="M190.577 333.15c-17.863-1.602-36.32-7.791-53.17-17.83-25.08-14.941-44.546-37.92-55.207-65.17-5.79-14.8-7.523-24.387-7.992-44.234-.367-15.52.134-21.865 2.533-32.093 4.452-18.98 11.77-34.812 23.283-50.374 5.414-7.318 17.319-20.193 18.654-20.176.422.006 1.27 1.183 1.884 2.615.614 1.432 2.726 4.325 4.692 6.427l3.577 3.824-6.547 7.095c-10.223 11.08-15.49 18.409-20.838 28.992-12.128 24.002-15.045 50.835-8.384 77.115 5.41 21.338 14.513 36.747 31.177 52.772 13.17 12.665 24.952 19.951 40.836 25.253 31.133 10.393 65.424 6.42 93.731-10.861 28.005-17.096 47.077-46.444 51.346-79.013 5.04-38.438-9.026-75.742-37.615-99.76-12.456-10.465-28.86-19.138-42.985-22.726-6.376-1.62-12.58-2.327-26.826-3.057l-11.902-.61-1.782 2.24c-3.82 4.804-9.729 10.12-12.923 11.628-6.733 3.18-16.3 4.646-30.275 4.64-9.401-.004-11.957-.53-14.387-2.96-2.398-2.398-4.669-8.571-3.83-10.413 2.064-4.53 17.99-21.37 22.82-24.13 6.897-3.94 16.52-4.628 27.47-1.962 4.551 1.108 6.732 1.227 20.896 1.143 17.43-.103 22.686.443 36.355 3.775 10.233 2.495 18.015 5.312 27.817 10.07 16.166 7.846 28.604 17.375 40.14 30.75 12.968 15.032 22.218 32.242 28.458 52.942 2.983 9.895 3.54 16.618 3.174 38.228-.335 19.703-.482 20.82-4.323 32.71-12.217 37.823-38.033 67.364-72.076 82.475-10.934 4.853-24.246 8.807-33.88 10.061-6.707.874-26.925 1.24-33.9.614z" style="fill:#fff;stroke-width:.597015" transform="scale(.75)"/></svg>