<svg xmlns="http://www.w3.org/2000/svg" width="317.333" height="317.333" version="1.0" viewBox="0 0 238 238"><path d="M61.7 60.8 4 118.5l57.8 57.8 57.7 57.7 58-58 58-58L178 60.5C146.4 28.9 120.3 3 120 3c-.3 0-26.5 26-58.3 57.8zM117 47.9c17.4 1 27.6 4 38.8 11.4 21.7 14.5 34.2 41.7 30.3 66.5-4.4 28.6-24.1 50.6-51.6 57.7-6.7 1.7-24.5 2-31.5.5-12.3-2.7-25-9.9-34.3-19.4-7.6-7.7-12.9-16.5-16.4-27.1-4.6-14.2-3.6-35.4 2.4-48.4 2.9-6.2 9.9-16.4 14.1-20.5l4-3.8 3 3.3 3 3.3-5.8 6.3c-20.7 22.6-19.8 57.6 2 79.3 11.1 11.1 25.2 17 41 17 15.6 0 27.7-5 39.6-16.3 12-11.3 17.7-25 17.7-42.2-.1-11.2-3.4-21.8-9.9-31.7C153.3 68.7 135.5 59 117.7 59c-6.3 0-7 .2-9.5 2.9-4.2 4.6-8.9 6.1-19.1 6.1-8.5 0-9.2-.1-10.7-2.5-2.2-3.3-1.3-5.1 5.5-11.9 6.1-6 10.1-7.9 15.6-7 1.7.2 9.5.8 17.5 1.3z"/><path d="M141.915 245.786c-9.775-1.134-23.689-6.664-34.164-13.578-23.374-15.427-38.09-38.754-40.985-64.968-.82-7.437-.37-22.4.887-29.413 2.493-13.911 6.2-22.18 16.344-36.46 3.472-4.888 11.99-14.219 12.979-14.219.215 0 2.055 1.819 4.09 4.041l3.698 4.041-3.243 3.42c-5.386 5.68-9.184 10.284-11.788 14.294-8.871 13.66-13.045 28.795-12.398 44.962.803 20.04 8.384 37.316 22.573 51.44 6.744 6.715 11.991 10.612 19.342 14.366 10.775 5.504 20.132 7.87 32.627 8.248 23.581.715 39.633-5.783 57.036-23.086 11.844-11.777 17.386-21.861 20.883-38 .917-4.229 1.056-6.293 1.064-15.76.008-9.519-.123-11.5-1.042-15.7-6.587-30.093-28.65-52.552-58.363-59.406-5.558-1.282-20.081-1.865-22.941-.921-.984.324-3.127 1.9-4.884 3.588-5.97 5.74-10.276 7.193-22.627 7.636-10.831.388-13.25.064-15.24-2.046-.846-.897-1.78-2.438-2.076-3.426-.724-2.417.28-4.347 4.837-9.295 5.529-6.002 9.815-9.619 13.65-11.516 3.281-1.623 3.814-1.742 7.578-1.693 6.066.079 35.755 2.426 41.526 3.283 19.006 2.822 34.51 10.354 48.111 23.372 14.248 13.636 23.588 30.4 27.733 49.774 1.163 5.434 1.269 6.822 1.269 16.587 0 9.841-.1 11.128-1.31 16.814-5.53 25.988-19.623 46.843-40.95 60.599-7.465 4.815-19.61 9.938-28.045 11.83-6.904 1.55-27.303 2.222-36.171 1.192z" style="fill:#fff;stroke-width:.473632" transform="scale(.75)"/></svg>