<?xml version="1.0" encoding="UTF-8" standalone="no"?>
<svg
   xmlns:dc="http://purl.org/dc/elements/1.1/"
   xmlns:cc="http://creativecommons.org/ns#"
   xmlns:rdf="http://www.w3.org/1999/02/22-rdf-syntax-ns#"
   xmlns:svg="http://www.w3.org/2000/svg"
   xmlns="http://www.w3.org/2000/svg"
   xmlns:sodipodi="http://sodipodi.sourceforge.net/DTD/sodipodi-0.dtd"
   xmlns:inkscape="http://www.inkscape.org/namespaces/inkscape"
   version="1.0"
   width="300.000000pt"
   height="300.000000pt"
   viewBox="0 0 300.000000 300.000000"
   preserveAspectRatio="xMidYMid meet"
   id="svg703"
   sodipodi:docname="temporis.svg"
   inkscape:version="1.0.1 (3bc2e813f5, 2020-09-07)">
  <defs
     id="defs707" />
  <sodipodi:namedview
     pagecolor="#ffffff"
     bordercolor="#666666"
     borderopacity="1"
     objecttolerance="10"
     gridtolerance="10"
     guidetolerance="10"
     inkscape:pageopacity="0"
     inkscape:pageshadow="2"
     inkscape:window-width="1600"
     inkscape:window-height="837"
     id="namedview705"
     showgrid="false"
     inkscape:zoom="1.675"
     inkscape:cx="200"
     inkscape:cy="200"
     inkscape:window-x="-8"
     inkscape:window-y="-8"
     inkscape:window-maximized="1"
     inkscape:current-layer="svg703" />
  <metadata
     id="metadata697">
Created by potrace 1.16, written by Peter Selinger 2001-2019
<rdf:RDF>
  <cc:Work
     rdf:about="">
    <dc:format>image/svg+xml</dc:format>
    <dc:type
       rdf:resource="http://purl.org/dc/dcmitype/StillImage" />
  </cc:Work>
</rdf:RDF>
</metadata>
  <g
     transform="translate(0.000000,300.000000) scale(0.100000,-0.100000)"
     fill="#000000"
     stroke="none"
     id="g701">
    <path
       d="M275 2718 c-3 -7 -4 -562 -3 -1233 l3 -1220 1225 0 1225 0 0 1230 0 1230 -1223 3 c-973 2 -1224 0 -1227 -10z m1055 -243 c40 -11 79 -14 140 -9 204 15 446 -51 620 -169 188 -127 326 -320 396 -552 26 -83 28 -103 28 -265 0 -162 -2 -182 -28 -265 -110 -363 -381 -619 -741 -701 -110 -25 -311 -25 -420 0 -368 85 -648 353 -745 711 -31 115 -38 323 -15 436 41 204 124 363 268 517 28 28 53 52 58 52 4 0 11 -10 15 -22 4 -13 20 -35 36 -50 l30 -28 -70 -74 c-215 -231 -283 -543 -184 -839 43 -127 102 -220 206 -322 101 -100 194 -158 316 -199 506 -167 1037 176 1088 704 34 348 -142 670 -452 825 -119 59 -186 76 -327 82 l-116 5 -39 -46 c-52 -63 -115 -86 -254 -92 -126 -6 -155 2 -175 51 -8 19 -15 39 -15 44 0 16 115 146 156 178 55 41 137 52 224 28z"
       id="path699" />
  </g>
  <path
     style="fill:#ffffff;stroke-width:0.597015"
     d="m 190.57739,333.15007 c -17.86303,-1.602 -36.32079,-7.79152 -53.17121,-17.83014 -25.07924,-14.94092 -44.544689,-37.91969 -55.20647,-65.17068 -5.790225,-14.79953 -7.522247,-24.386 -7.991737,-44.23304 -0.367131,-15.51991 0.133645,-21.86558 2.532637,-32.09275 4.452268,-18.98053 11.770031,-34.81258 23.28372,-50.37454 5.4139,-7.31745 17.31853,-20.1934 18.6536,-20.17558 0.42212,0.006 1.26985,1.18222 1.88386,2.61463 0.614,1.43241 2.72571,4.32478 4.69269,6.42748 l 3.57632,3.8231 -6.54669,7.09542 c -10.22327,11.08017 -15.49099,18.40903 -20.83808,28.99155 -12.128122,24.00295 -15.04527,50.83512 -8.383807,77.11499 5.408896,21.33842 14.512377,36.7479 31.176527,52.77255 13.17035,12.66493 24.95251,19.95109 40.83588,25.25314 31.13323,10.39262 65.42399,6.41905 93.73134,-10.86149 28.00522,-17.09611 47.07713,-46.44415 51.34647,-79.01245 5.03883,-38.43836 -9.02686,-75.74231 -37.61513,-99.76 C 260.08097,107.2674 243.67675,98.594377 229.55224,95.005779 223.17621,93.38583 216.97172,92.678744 202.72567,91.948532 l -11.90121,-0.610022 -1.78277,2.241193 c -3.82051,4.802899 -9.72853,10.118717 -12.92229,11.626997 -6.73361,3.18001 -16.2998,4.64637 -30.27498,4.64072 -9.40151,-0.004 -11.95714,-0.52959 -14.38762,-2.96008 -2.39827,-2.39827 -4.66885,-8.571806 -3.82988,-10.413145 2.0641,-4.530214 17.99011,-21.370055 22.82084,-24.130308 6.89664,-3.940697 16.52006,-4.62812 27.46944,-1.962205 4.55108,1.10808 6.73177,1.227426 20.89552,1.143584 17.42994,-0.103176 22.68646,0.442612 36.35548,3.774815 10.23315,2.494616 18.01484,5.311493 27.81687,10.069376 16.16597,7.846914 28.60423,17.375293 40.14071,30.749943 12.96682,15.03289 22.21721,32.24272 28.45703,52.94268 2.98276,9.89499 3.54095,16.61776 3.17405,38.22808 -0.33452,19.70317 -0.48206,20.81959 -4.32266,32.70984 -12.21713,37.82344 -38.03303,67.36389 -72.07626,82.47496 -10.93427,4.85349 -24.24591,8.80655 -33.88033,10.06121 -6.70678,0.87339 -26.92433,1.23952 -33.90022,0.6139 z"
     id="path709"
     transform="scale(0.75)" />
</svg>
