<svg xmlns="http://www.w3.org/2000/svg" width="317.333" height="317.333" version="1.0" viewBox="0 0 238 238"><path d="M61.7 60.8 4 118.5l57.8 57.8 57.7 57.7 58-58 58-58L178 60.5C146.4 28.9 120.3 3 120 3c-.3 0-26.5 26-58.3 57.8zm47.5-8.7c2.6 3.2 3 4.7 3.8 13.5 1.3 15.8 8.1 44.4 10.4 44.4.6-.1 2.9-1.3 5.1-2.8 3.9-2.7 4-3.1 5.8-12.2 1-5.2 2.6-15.1 3.7-22 1.5-10.2 2.3-12.8 4.1-14.2 3-2.5 6.6-2.2 9.4.7 3 2.9 3 2.8.5 14.6-1.2 5.2-2.5 12.9-3.1 17.2-.5 4.2-2.1 12-3.4 17.2-2.4 9.3-2.9 15.9-1.6 22 .8 3.9 6.8 5.8 17.1 5.2 7-.3 8.4-.8 19.7-6.8l12.2-6.4 2.8 2.1c3.1 2.3 4.2 6.7 2.2 9.1-2.1 2.5-12.1 8.9-16.2 10.4-2 .7-4.5 2.5-5.4 3.9-.9 1.4-2.8 3.4-4.2 4.5-10.6 8.3-12.6 10.7-17.3 20.8l-4.6 10.2H92.5l-5.7-17c-3.1-9.4-5.7-18.1-5.7-19.4-.1-1.6-2.9-5.1-8.9-11-6.6-6.6-9.7-10.5-12.8-16.6-5.7-11-6-12.9-3-16 2.9-2.9 6.7-3.2 8.8-.8.8 1 3.1 5.2 5.1 9.3 2.3 4.9 5.4 9.3 8.7 12.5l5.1 5 2-2.4c1-1.3 2.2-3.4 2.5-4.7.8-3.1-8.9-42.2-12.1-49.2-1.4-2.9-2.5-6.1-2.5-7.2 0-2.7 3.5-6 6.4-6 6.3 0 10.9 8.8 15.6 29.5 2.7 12.1 6.1 21.5 7.7 21.5 2.1 0 1.6-6.6-1.7-24.4-1.6-8.9-3.4-18.8-3.9-22.1-.6-3.3-1.3-7.4-1.7-9.2-.5-2.4-.1-3.6 1.6-5.3 3.2-3.2 7.6-2.4 11.2 2.1z"/><path d="M102.2 60.7c.3 3.9 2 5.1 4.7 3.4 1.1-.7 1-1.4-.8-4-3-4.1-4.3-3.9-3.9.6zM144 65.9c-2 3-2 3-.1 4 3.2 1.8 4.1 1.3 4.1-2.3 0-4.7-1.4-5.2-4-1.7zM81 72.1c1.2 3.9 1.5 4.3 3.5 3.5 1.5-.5 1.4-.9-.5-3.6-2.8-3.9-4.1-3.8-3 .1zM103 69.8c0 .5.5 3.4 1.1 6.5 1.1 5.1 1.4 5.7 3.7 5.7 2.4 0 2.4-.1 1.7-5.8-.4-3.1-.9-6-1.2-6.5-.6-1-5.3-.9-5.3.1zM141.7 75.7c-.3.5-.8 2.9-1.2 5.5-.6 4.1-.5 4.8.9 4.8 1.7 0 2.8-2.2 4.1-7.8.6-2.8.4-3.2-1.4-3.2-1.1 0-2.2.3-2.4.7zM85.2 81.9c-1 .6-1.1 2-.7 4.7 1.2 6.8 1.5 7.6 3 6.4.7-.6 2-.8 2.9-.4 2 .8 2 .3-.1-6.3-1.8-5.3-2.6-6-5.1-4.4zM106 87.5c0 .6 1.2 6.8 2.6 14 1.4 7.1 2.4 14.3 2.2 16-.2 2.1.2 2.9 1.1 2.7.7-.1 2 .3 2.9 1 1.3 1.1 1.5.9 1-2.2-.3-1.9-1.4-9.5-2.4-16.8C112 91.5 111.3 89 110 89c-.9 0-2.1-.5-2.8-1.2-.7-.7-1.2-.8-1.2-.3zM138.5 94.2c-.3 1.3-1.8 7.6-3.4 14.1l-2.8 11.8 2.5-.3c2.4-.3 2.7-1.1 5.3-11.8 3.5-14.1 3.6-16 .9-16-1.2 0-2.2.9-2.5 2.2zM90.2 99.8c-1.6.2-2.1.9-1.8 2 .4 1.5 3.9 16.3 5.1 21.9.6 2.4 2 3 3 1.3.3-.6 1.5-1 2.5-1s2.1-.4 2.5-.9c.5-1-7-22.1-8.3-23.2-.4-.3-1.7-.3-3-.1zM60.3 111c1 3.8 2.9 5.1 4.1 3.1.8-1.2-2.6-7.1-4-7.1-.8 0-.8 1.1-.1 4zM65 118.5c-1.7 2.1 2.2 7.5 5 6.8 2.5-.7 2.5-.8-.1-4.9-2.3-3.8-3.1-4.1-4.9-1.9zM111 127.9c0 1.5 6.9 46.1 7.5 48.9.4 1.7 1.2 2.2 2.8 2 1.9-.3 2.2-.9 2-4.3-.3-5.7-6.5-44.9-7.2-45.6-1.2-1.3-5.1-2-5.1-1zM130.5 136.3c-.3 5-1 13.7-1.5 19.2-1.4 15.8-1.5 20.4-.2 21.7.9.9 1.5.9 2.3.1 1.1-1.1 6.7-47.9 5.8-48.7-.2-.2-1.6-.6-3-1l-2.7-.6-.7 9.3zM74.3 129.9c-1 1.6-.7 2.3 1.6 4.5 3.2 3.1 3.7 3.1 5.9 1 1.5-1.6 1.4-1.9-1.8-4.5-4.1-3.4-4.2-3.4-5.7-1zM188.8 130c-3.4 1-13.5 6.8-14.4 8.1-.3.6-.1 1.6.5 2.2 1.3 1.3 10-2.6 15.7-7 5.1-3.9 4.4-5.2-1.8-3.3zM100.7 130.7c-.4.3-1.7.7-3 .8-1.2.2-2.1.6-2.1 1.1.2 1.1 8.9 33.6 11 41.1 1.3 4.9 1.7 5.3 4.4 5.3 1.7 0 3-.3 3-.6 0-.7-9.9-43.9-10.6-46.7-.6-1.8-1.6-2.2-2.7-1zM84.7 139.7c-1.2.3-1.6 1-1.2 2.1 1 2.6 12.5 36.5 12.5 36.9 0 .2.8.3 1.8.3 4.2 0 4-1.9-1.8-17.3-3.1-8.4-6.3-16.9-6.9-19-.7-2-1.6-3.6-1.9-3.6-.4.1-1.5.3-2.5.6zM159.3 145.9c-8.2 5.6-9.6 7.1-6.8 7.1.8 0 1.5.4 1.5 1 0 2.1 2.6.8 9.7-4.6 6.3-4.8 7.1-5.8 6.2-7.5-.5-1-1.3-1.9-1.7-1.8-.4.1-4.4 2.7-8.9 5.8zM140.5 167c-4.2 8.5-4.7 10.2-3.5 11 .8.5 1.8 1 2.1 1 1.3 0 12.1-19.2 11.3-20-.5-.4-1.8-1.1-2.9-1.4-1.8-.5-2.7.7-7 9.4z"/><path d="M123.467 244.039c-.114-.196-2.777-8.135-5.917-17.643-4.865-14.731-7.066-21.93-9.563-31.27-.565-2.113-3.722-5.908-12.6-15.146-3.88-4.038-8.12-8.726-9.423-10.418-4.853-6.306-12.247-20.858-12.856-25.305-.44-3.212 2.201-6.915 6.092-8.537 5.193-2.166 7.141-.431 13.285 11.831 4.446 8.875 7.96 13.824 14.239 20.058l5.43 5.39 1.436-1.6c.79-.881 2.144-2.768 3.009-4.193 1.409-2.322 1.567-2.937 1.52-5.92-.063-3.864-1.493-11.03-5.438-27.248-4.868-20.009-8.01-30.664-11.451-38.838-3.266-7.755-2.411-11.461 3.237-14.047 2.826-1.294 4.008-1.191 7.191.624 5.812 3.315 10.022 13.116 15.985 37.212 4.892 19.772 8.167 28.835 10.54 29.172 1.642.234 2.157-1.727 1.851-7.035-.37-6.405-1.48-13.144-9.822-59.58-1.88-10.462-1.891-10.594-1.05-12.284 1.297-2.607 3.932-4.468 6.704-4.735 1.931-.185 2.765.008 4.79 1.11 2.629 1.43 5.456 4.477 6.995 7.54 1.287 2.559 1.827 5.342 2.714 13.986 1.329 12.948 3.882 27.243 7.356 41.191 3.09 12.403 5.18 18.08 6.774 18.387 1.097.211 7.027-3.31 9.658-5.736 3.184-2.934 3.84-5.617 8.906-36.382 1.699-10.317 3.411-19.845 3.806-21.173 1.18-3.977 3.613-6.25 7.463-6.971 2.345-.44 6.321 1.477 8.611 4.153 1.483 1.732 1.67 2.25 1.67 4.622 0 1.47-1.052 7.878-2.338 14.242-1.285 6.364-2.897 15.186-3.58 19.605-1.625 10.491-2.27 13.846-4.746 24.646-1.135 4.95-2.317 10.776-2.627 12.947-.66 4.615-.366 15.732.472 17.84 1.404 3.53 4.95 5.437 11.923 6.411 4.736.662 14.812.255 19.433-.784 3.315-.745 11.593-4.638 25.482-11.985 9.182-4.857 8.67-4.786 12.241-1.693 2.68 2.322 3.891 4.775 3.891 7.882 0 2.34-.125 2.594-2.306 4.697-3.282 3.163-11.693 8.611-18.06 11.698-6.521 3.16-7.865 4.127-10.38 7.457-1.058 1.401-4.11 4.315-6.783 6.476-7.005 5.661-12.41 10.99-14.773 14.564-2.3 3.48-5.915 10.628-9.776 19.334l-2.573 5.801-38.217.001c-21.02 0-38.311-.159-38.425-.354zm10.3-6.073c1.978-1.978 1.554-3.344-15.168-48.86-.406-1.104-1.098-2.451-1.538-2.995-.739-.913-.976-.946-3.028-.43-3.496.881-3.615 1.27-1.923 6.297.803 2.388 4.538 13.4 8.298 24.472 3.761 11.07 6.961 20.609 7.111 21.195.242.943.573 1.065 2.888 1.065 1.747 0 2.863-.247 3.36-.744zm18.12-.024c.162-.422-.812-5.697-2.165-11.722-7.511-33.452-11.61-50.858-12.2-51.805-.757-1.215-2.092-1.366-3.62-.408-.576.361-1.897.806-2.934.989-2.48.437-3.561 1.05-3.561 2.022 0 .875 2.657 10.99 10.467 39.843 5.353 19.773 5.314 19.649 6.492 21.02.998 1.162 7.08 1.211 7.52.061zm12.165-.17c1.303-1.315-.487-16.965-5.175-45.24-3.298-19.892-3.46-20.577-5.085-21.566-1.786-1.086-4.995-1.672-5.638-1.03-.535.537-.079 3.945 4.633 34.573 4.409 28.653 5.187 32.867 6.21 33.633.969.727 4.204.49 5.055-.37zm23.547-1.074c3.765-5.163 13.22-22.564 13.22-24.33 0-.799-3.366-2.55-4.904-2.55-1.928 0-3.88 2.864-8.932 13.092-5.554 11.249-6.2 13.76-3.862 15.027 2.114 1.145 2.897.928 4.478-1.24zm-12.97.215c.77-.49 2.161-8.619 4.148-24.252 1.993-15.675 3.427-29.153 3.86-36.282l.319-5.258-3.9-1.052c-2.145-.579-4.005-.947-4.134-.819-.128.129-.74 7.018-1.361 15.31a3186.34 3186.34 0 0 1-2.09 26.386c-1.08 12.68-1.256 23.009-.419 24.599.882 1.676 2.262 2.204 3.577 1.368zm35.596-31.676c6.129-3.568 17.121-12.861 17.117-14.471-.003-.94-1.816-3.681-2.645-4-.48-.184-3.938 1.86-9.69 5.73-9.204 6.193-13.885 9.941-13.575 10.872.097.292.796.639 1.554.771.91.16 1.595.695 2.019 1.58.54 1.127.84 1.29 1.899 1.029.691-.17 2.186-.85 3.321-1.511zm27.301-18.203c7.09-1.943 22.176-12.019 21.424-14.31-.84-2.56-13.022 1.986-23.304 8.698-3.678 2.4-4.153 3.208-3.076 5.22.56 1.048 2.114 1.17 4.956.392zm-130.017-4.92c.753-.39 1.701-1.182 2.108-1.763 1.367-1.952.933-2.979-2.458-5.815-3.681-3.08-5.465-4.128-6.407-3.766-.81.31-2.71 3.59-2.71 4.677 0 1.463 6.18 7.366 7.72 7.373.208.001.994-.317 1.747-.706zm21.319-15.159c.612-.651 1.555-1.185 2.095-1.186.541-.001 1.81-.232 2.819-.513 1.827-.507 1.834-.518 1.562-2.504-.553-4.03-8.133-25.143-10.288-28.652-.954-1.555-1.046-1.59-3.58-1.38-4.525.375-4.497.176-1.684 12.067 1.343 5.68 2.989 12.778 3.657 15.774 1.705 7.65 2.907 9.068 5.419 6.394zm-33.363-.45c.896-.671.878-.766-.739-3.853-.911-1.741-2.427-4.037-3.368-5.102-1.58-1.789-1.804-1.894-2.935-1.379-.674.307-1.586 1.11-2.029 1.785-.698 1.066-.726 1.488-.21 3.21 1.081 3.608 3.752 6.018 6.676 6.023.927.002 2.099-.306 2.605-.684zm59.413-5.185c0-1.753-5.175-37.219-5.743-39.36-.585-2.203-1.644-3.552-2.79-3.552-.444 0-1.593-.533-2.553-1.184-2.061-1.4-2.65-1.478-2.648-.355 0 .456.97 5.837 2.154 11.959 2.87 14.84 3.99 22.255 3.996 26.436.006 4.124.509 5.296 2.272 5.3.707 0 1.925.412 2.707.912 1.925 1.234 2.605 1.193 2.605-.156zm26.977-1.93c1.224-.757 2.545-4.7 5.185-15.479 4.653-18.996 4.766-21.24 1.075-21.24-1.175 0-2.113.311-2.618.87-.474.523-2.48 7.88-5.046 18.509-2.343 9.702-4.26 17.8-4.26 17.996 0 .399 4.87-.166 5.664-.657zm-96.222-6.502c.888-.888.675-2.564-.667-5.249-1.514-3.029-3.37-5.076-4.605-5.076-.849 0-.901.236-.63 2.84.32 3.049 1.303 5.846 2.536 7.208.88.972 2.535 1.108 3.366.277zm31.142-28.62c.89-.582 1.75-.694 3.536-.457 2.244.298 2.36.26 2.36-.79 0-1.373-2.065-8.564-3.261-11.353-1.616-3.77-3.471-4.617-5.911-2.698-1.09.857-1.247 1.323-1.238 3.67.017 4.449 2.032 12.399 3.143 12.399.108 0 .725-.347 1.371-.77zm74.216-10.765c1.19-1.46 3.23-8.146 3.34-10.945l.095-2.385h-2.599c-2.366 0-2.654.116-3.221 1.3-.343.714-.982 3.77-1.421 6.791-.78 5.367-.777 5.509.118 6.163 1.11.812 2.57.446 3.688-.924zm-44.35-5.316c.169-.672-.141-4.348-.689-8.168-.746-5.206-1.2-7.093-1.809-7.54-1.064-.778-6.054-.78-6.666-.002-.515.655.663 8.314 2.002 13.01.947 3.321 1.65 3.922 4.587 3.922 2.043 0 2.299-.121 2.575-1.222zm-33.412-7.32c.504-.27.916-.86.916-1.311 0-1.6-4.719-7.671-5.962-7.671-.764 0-1.132 1.085-.828 2.44.511 2.285 1.722 5.868 2.175 6.44.569.719 2.45.77 3.7.102zm83.785-7.057c.62-1.158.639-6.21.029-7.815-.916-2.407-3.222-1.303-6.126 2.93-1.52 2.216-1.162 3.464 1.36 4.736 2.592 1.307 4.092 1.354 4.737.15zm-54.9-7.858c2.07-1.07 1.866-2.798-.749-6.35-3.316-4.504-5.443-4.726-5.421-.566.033 6.4 2.284 8.925 6.17 6.916z" style="fill:#fff;stroke-width:.473632" transform="scale(.75)"/></svg>