<svg xmlns="http://www.w3.org/2000/svg" width="317" height="317" version="1.0" viewBox="0 0 238 238"><path d="M62 61 4 119l58 57 58 58 58-58 58-58-58-57-58-58-58 58zm47-9c3 3 3 5 4 14 1 15 8 44 10 44l6-3c3-2 4-3 5-12a902 902 0 0 0 8-36c3-3 7-2 9 0 4 3 4 3 1 15l-3 17-3 17c-3 10-3 16-2 23 1 3 7 5 17 5 7-1 8-1 20-7l12-7 3 3c3 2 4 6 2 9-2 2-12 9-16 10l-6 4-4 4c-11 9-13 11-17 21l-5 10H93l-6-17-6-19c0-2-3-5-9-11-6-7-10-10-13-17-5-11-6-12-3-16 3-2 7-3 9 0l5 9 9 12 5 5 2-2 3-5a289 289 0 0 0-15-56c0-3 3-6 6-6 7 0 11 9 16 29 3 13 6 22 8 22s1-7-2-24l-4-23-2-9c0-2 0-3 2-5 3-3 8-2 11 2z"/><path d="M102 61c1 4 2 5 5 3 1-1 1-1-1-4-3-4-4-4-4 1zm42 5c-2 3-2 3 0 4 3 2 4 1 4-2 0-5-1-6-4-2zm-63 6c1 4 2 4 4 4 1-1 1-1-1-4-3-4-4-4-3 0zm22-2 1 6c1 5 1 6 4 6 2 0 2 0 1-6l-1-6h-5zm39 6-2 5 1 5c2 0 3-2 5-8 0-3 0-3-2-3l-2 1zm-57 6v5c1 6 1 7 3 6h2c2 0 2 0 0-7-1-5-2-6-5-4zm21 6a345 345 0 0 0 5 30l1 2 3 1c1 1 1 1 1-2a1279 1279 0 0 1-6-30l-3-1-1-1zm33 6-4 14-3 12h3c2-1 2-1 5-12 4-14 4-16 1-16l-2 2zm-49 6-2 2 6 22c0 2 2 3 3 1l2-1 3-1c0-1-7-22-9-23h-3zm-30 11c1 4 3 5 4 3 1-1-2-7-4-7v4zm5 8c-2 2 2 7 5 6 3 0 3-1 0-5-2-3-3-4-5-2zm46 9a2059 2059 0 0 0 10 51c2 0 2-1 2-4l-7-46-5-1zm20 8a770 770 0 0 1-2 41h2l6-48-3-1-3-1v9zm-57-6c-1 2 0 2 2 4 3 4 4 4 6 1 1-1 1-1-2-4-4-3-4-3-6-1zm115 0-15 8 1 2c1 2 10-2 16-7 5-4 4-5-2-3zm-88 1h-3l-2 2 11 41c1 5 1 5 4 5l3-1a3506 3506 0 0 0-13-47zm-16 9a2093 2093 0 0 1 13 39c4 0 4-2-2-17l-7-19-2-4-2 1zm74 6c-8 6-9 7-6 7l1 1c0 2 3 1 10-5 6-4 7-5 6-7l-2-2-9 6zm-18 21c-5 9-5 10-4 11l2 1c1 0 12-19 11-20l-2-1c-2-1-3 0-7 9z"/><path d="M123 244a1060 1060 0 0 1-15-49l-13-15-9-10c-5-7-12-21-13-26 0-3 2-7 6-8 5-2 7-1 13 12 5 8 8 13 15 20l5 5 2-2 3-4 1-6a264 264 0 0 0-17-66c-3-8-2-11 3-14 3-1 4-1 8 1 5 3 10 13 16 37 5 20 8 29 10 29s2-2 2-7a667 667 0 0 0-11-72c1-2 4-4 7-4 2-1 3 0 5 1l7 7 2 14a302 302 0 0 0 14 60c2 0 8-4 10-6 3-3 4-6 9-36l4-22c1-4 3-6 7-7 3 0 7 2 9 5l2 4-3 14a542 542 0 0 0-8 45l-3 13 1 18c1 3 5 5 12 6 4 1 15 0 19-1 3-1 12-4 26-12 9-5 8-5 12-2 3 3 4 5 4 8s0 3-3 5c-3 3-11 9-18 12l-10 7-7 7c-7 5-12 11-15 14l-9 20-3 5h-77zm11-6c2-2 1-3-15-49l-2-3h-3c-3 1-4 1-2 6a17586 17586 0 0 0 18 47l4-1zm18 0-2-12-12-52h-4l-3 1c-3 0-4 1-4 2l11 40 6 21h8zm12 0c1-2 0-17-5-45-3-20-4-21-5-22-2-1-5-2-6-1l5 35c4 28 5 32 6 33h5zm24-1 13-25-5-2c-2 0-4 3-9 13-6 11-6 14-4 15s3 1 5-1zm-13 0 4-24 4-37v-5l-4-1-4-1-1 16a3186 3186 0 0 1-3 26v25c1 1 2 2 4 1zm35-32c6-3 17-13 17-14l-2-4-10 5-14 11 2 1 2 2 2 1 3-2zm28-18c7-2 22-12 21-14-1-3-13 2-23 8-4 3-5 4-3 6h5zm-130-5 2-2c1-2 1-3-3-5-4-4-5-5-6-4l-3 4c0 2 6 8 8 8l2-1zm21-15 2-1 3-1c2 0 2 0 1-2 0-4-8-25-10-29l-4-1c-4 0-4 0-1 12l3 16c2 7 3 9 6 6zm-34 0v-4l-4-5c-1-2-1-2-3-2l-2 2v3c1 4 4 6 7 6h2zm60-6a1042 1042 0 0 0-9-43l-2-1h-3l2 12 4 26c0 4 1 6 3 6h2c2 2 3 2 3 0zm27-2 5-15c5-19 5-21 1-21l-3 1-5 18-4 18 6-1zm-96-6c1-1 0-3-1-5-2-3-3-5-5-5v2l2 8h4zm31-29h3l3-1c0-1-2-9-4-11-1-4-3-5-6-3l-1 4 3 12 2-1zm74-10 3-11v-3h-2l-3 1-2 7v6h4zm-44-6-1-8-2-8h-7l2 13c1 4 2 4 5 4l3-1zm-34-7 1-1c0-2-5-8-6-8l-1 2 3 7h3zm84-7v-8c-1-2-3-1-6 3-2 2-1 3 1 5h5zm-55-8c2-1 2-3-1-6-3-5-5-5-5-1 0 6 2 9 6 7z" style="fill:#fff;stroke-width:.473632" transform="scale(.75)"/></svg>