<?xml version="1.0" encoding="UTF-8" standalone="no"?>
<svg
   xmlns:dc="http://purl.org/dc/elements/1.1/"
   xmlns:cc="http://creativecommons.org/ns#"
   xmlns:rdf="http://www.w3.org/1999/02/22-rdf-syntax-ns#"
   xmlns:svg="http://www.w3.org/2000/svg"
   xmlns="http://www.w3.org/2000/svg"
   xmlns:sodipodi="http://sodipodi.sourceforge.net/DTD/sodipodi-0.dtd"
   xmlns:inkscape="http://www.inkscape.org/namespaces/inkscape"
   version="1.0"
   width="300.000000pt"
   height="300.000000pt"
   viewBox="0 0 300.000000 300.000000"
   preserveAspectRatio="xMidYMid meet"
   id="svg831"
   sodipodi:docname="thanatosis.svg"
   inkscape:version="1.0.1 (3bc2e813f5, 2020-09-07)">
  <defs
     id="defs835" />
  <sodipodi:namedview
     pagecolor="#ffffff"
     bordercolor="#666666"
     borderopacity="1"
     objecttolerance="10"
     gridtolerance="10"
     guidetolerance="10"
     inkscape:pageopacity="0"
     inkscape:pageshadow="2"
     inkscape:window-width="1600"
     inkscape:window-height="837"
     id="namedview833"
     showgrid="false"
     inkscape:zoom="1.675"
     inkscape:cx="200"
     inkscape:cy="200"
     inkscape:window-x="-8"
     inkscape:window-y="-8"
     inkscape:window-maximized="1"
     inkscape:current-layer="svg831" />
  <metadata
     id="metadata787">
Created by potrace 1.16, written by Peter Selinger 2001-2019
<rdf:RDF>
  <cc:Work
     rdf:about="">
    <dc:format>image/svg+xml</dc:format>
    <dc:type
       rdf:resource="http://purl.org/dc/dcmitype/StillImage" />
  </cc:Work>
</rdf:RDF>
</metadata>
  <g
     transform="translate(0.000000,300.000000) scale(0.100000,-0.100000)"
     fill="#000000"
     stroke="none"
     id="g829">
    <path
       d="M280 2725 c0 -3 0 -555 0 -1227 l0 -1223 1220 -3 1220 -2 0 1230 0 1230 -1220 0 c-671 0 -1220 -2 -1220 -5z m928 -347 c50 -53 69 -110 76 -233 3 -60 13 -139 21 -175 8 -36 28 -130 45 -210 41 -191 68 -273 86 -266 8 3 40 23 72 45 l58 39 32 174 c18 96 39 228 48 294 20 157 20 158 49 192 49 58 128 46 163 -26 l19 -37 -38 -185 c-21 -102 -38 -201 -38 -221 -1 -45 -35 -212 -62 -308 -18 -61 -21 -92 -17 -183 2 -60 9 -113 15 -119 24 -24 157 -49 228 -44 109 9 149 23 301 107 78 43 151 78 163 78 63 0 112 -63 95 -122 -12 -40 -145 -138 -243 -179 -51 -21 -71 -35 -86 -63 -12 -19 -34 -45 -50 -57 -17 -13 -69 -58 -117 -102 -92 -83 -101 -98 -169 -268 -18 -46 -38 -87 -43 -91 -6 -4 -191 -8 -411 -8 -220 0 -405 4 -410 8 -6 4 -28 63 -49 132 -20 69 -51 161 -66 205 -16 44 -36 109 -45 145 -26 104 -32 115 -127 201 -93 86 -138 144 -205 270 -72 136 -77 211 -14 244 74 38 102 15 176 -139 46 -98 68 -131 124 -187 37 -38 75 -69 84 -69 11 0 24 14 32 34 8 19 19 37 25 41 14 9 12 60 -5 124 -8 31 -44 175 -80 321 -47 188 -74 280 -95 317 -39 68 -39 106 -1 144 39 39 84 39 138 0 34 -24 44 -41 71 -117 38 -110 62 -195 97 -349 15 -66 36 -142 47 -170 11 -27 24 -61 29 -74 7 -18 12 -21 23 -12 27 23 23 81 -30 381 -30 167 -54 316 -54 330 0 14 -7 46 -16 71 -20 55 -13 91 23 125 39 36 91 33 131 -8z"
       id="path789" />
    <path
       d="M1133 2225 c2 -76 4 -77 64 -54 l24 9 -20 28 c-11 15 -31 41 -45 57 l-26 30 3 -70z"
       id="path791" />
    <path
       d="M1738 2149 c-16 -21 -28 -43 -28 -48 0 -10 68 -36 75 -29 6 6 -7 118 -14 118 -3 -1 -18 -19 -33 -41z"
       id="path793" />
    <path
       d="M817 2080 c11 -63 21 -80 47 -80 40 0 38 13 -9 66 l-44 49 6 -35z"
       id="path795" />
    <path
       d="M1143 2078 c25 -149 31 -178 38 -178 4 0 10 4 13 9 3 4 17 6 32 3 22 -4 25 -2 21 14 -3 11 -11 53 -17 94 -15 89 -17 95 -36 79 -11 -9 -18 -9 -26 -1 -21 21 -30 13 -25 -20z"
       id="path797" />
    <path
       d="M1696 2009 c-6 -21 -26 -131 -26 -145 0 -8 11 -12 27 -11 24 2 29 9 45 62 23 77 23 99 2 91 -9 -4 -23 -1 -30 5 -10 9 -15 8 -18 -2z"
       id="path799" />
    <path
       d="M905 1920 c-4 -6 -16 -8 -27 -4 -18 5 -20 3 -15 -22 4 -16 12 -59 18 -96 12 -70 21 -81 38 -51 7 14 13 15 34 6 14 -7 27 -9 30 -7 7 8 -53 184 -63 184 -5 0 -12 -5 -15 -10z"
       id="path801" />
    <path
       d="M1180 1833 c0 -5 16 -87 35 -183 20 -101 35 -206 35 -248 0 -70 1 -72 21 -60 17 11 22 10 35 -6 7 -11 16 -17 19 -14 3 2 -8 101 -25 219 -16 118 -30 229 -30 247 0 34 -13 42 -28 16 -8 -14 -12 -13 -29 10 -21 26 -33 33 -33 19z"
       id="path803" />
    <path
       d="M1625 1613 c-20 -87 -43 -183 -50 -213 -8 -30 -13 -56 -11 -58 2 -2 19 1 37 6 l34 8 42 180 c49 210 51 228 23 219 -11 -4 -20 -2 -20 4 0 6 -4 11 -9 11 -5 0 -26 -71 -46 -157z"
       id="path805" />
    <path
       d="M980 1650 c0 -8 -10 -9 -32 -5 -27 6 -30 5 -24 -11 4 -11 25 -97 46 -193 22 -95 41 -175 43 -177 2 -2 21 5 42 16 22 11 47 20 57 20 10 0 18 3 18 8 -1 22 -129 347 -139 350 -6 2 -11 -2 -11 -8z"
       id="path807" />
    <path
       d="M520 1535 c0 -31 20 -114 29 -119 3 -2 15 2 26 10 20 15 19 16 -10 70 -36 66 -45 74 -45 39z"
       id="path809" />
    <path
       d="M602 1380 l-23 -19 26 -50 c25 -51 38 -61 50 -41 4 6 15 8 26 5 11 -4 19 -2 19 4 0 9 -70 122 -74 121 -1 -1 -11 -9 -24 -20z"
       id="path811" />
    <path
       d="M1250 1253 c1 -5 27 -177 58 -383 l58 -375 40 0 c33 0 39 3 37 20 -3 25 -44 299 -81 540 l-28 180 -27 -3 c-17 -2 -29 3 -33 13 -6 15 -24 21 -24 8z"
       id="path813" />
    <path
       d="M1546 1213 c-3 -26 -10 -111 -16 -188 -6 -77 -17 -223 -25 -324 -16 -197 -16 -201 32 -201 25 0 20 -28 63 385 17 160 33 305 36 324 5 32 4 33 -21 27 -19 -5 -33 -2 -45 9 -17 15 -18 14 -24 -32z"
       id="path815" />
    <path
       d="M740 1220 c0 -14 -8 -24 -21 -27 -19 -5 -16 -10 27 -54 51 -52 64 -59 64 -34 0 8 11 17 25 21 14 3 25 10 25 14 0 8 -81 79 -107 94 -9 5 -13 0 -13 -14z"
       id="path817" />
    <path
       d="M2389 1205 c-41 -11 -229 -111 -229 -121 0 -3 6 -14 13 -27 6 -12 13 -23 13 -25 6 -11 178 89 219 127 73 67 72 71 -16 46z"
       id="path819" />
    <path
       d="M1109 1194 c-9 -11 -23 -14 -47 -10 -31 5 -34 3 -28 -17 3 -12 44 -172 92 -354 l88 -333 43 0 c24 0 43 5 43 11 0 8 -108 494 -155 697 -6 26 -18 28 -36 6z"
       id="path821" />
    <path
       d="M895 1070 c-3 -5 -15 -10 -27 -10 -15 0 -18 -4 -13 -17 3 -10 46 -137 95 -282 49 -146 93 -268 97 -272 12 -10 73 2 73 15 1 19 -204 576 -212 576 -4 0 -10 -4 -13 -10z"
       id="path823" />
    <path
       d="M1977 985 c-60 -41 -117 -80 -128 -85 -22 -13 -25 -30 -4 -30 8 0 23 -9 34 -21 l19 -21 109 83 c59 45 110 84 112 86 3 2 -1 9 -7 15 -7 7 -12 20 -12 30 0 10 -3 18 -7 18 -5 0 -57 -34 -116 -75z"
       id="path825" />
    <path
       d="M1685 674 c-39 -81 -71 -152 -73 -158 -1 -6 11 -16 27 -23 l30 -11 85 146 c47 80 82 150 80 154 -3 4 -16 8 -30 8 -14 0 -27 7 -30 15 -4 8 -9 15 -13 15 -4 0 -38 -66 -76 -146z"
       id="path827" />
  </g>
  <path
     style="fill:#ffffff;stroke-width:0.597015"
     d="m 143.28358,344.50442 c -5.74627,-0.23379 -10.48184,-0.46979 -10.5235,-0.52445 -0.67934,-0.89139 -3.29252,-8.27986 -6.47535,-18.30833 -2.18849,-6.89552 -5.95617,-18.44776 -8.37263,-25.67164 -2.41646,-7.22388 -5.35893,-16.7229 -6.53882,-21.10892 -3.43119,-12.75478 -3.61391,-13.03642 -17.291626,-26.65227 -14.927348,-14.85984 -20.027283,-21.8286 -28.399293,-38.80597 -5.38305,-10.91615 -7.092982,-18.57072 -5.174275,-23.16283 1.128508,-2.70091 4.505685,-5.47793 8.122856,-6.67936 7.040785,-2.33857 10.062871,0.6794 19.426869,19.4004 2.872565,5.74298 6.410841,12.28209 7.862837,14.53136 2.957692,4.58171 12.683912,14.89395 17.116432,18.14772 3.76941,2.767 5.37926,2.33774 7.55379,-2.01418 0.8365,-1.67412 2.29194,-4.15643 3.23428,-5.51624 1.65101,-2.38241 1.70125,-2.66238 1.38069,-7.6941 -0.24053,-3.77547 -1.92424,-11.58792 -6.07902,-28.2068 -12.08646,-48.34507 -14.97338,-58.478 -19.180105,-67.32101 -3.105608,-6.52833 -3.876505,-9.51528 -3.213959,-12.45293 1.099153,-4.8735 6.914884,-9.43986 11.926364,-9.36426 4.99232,0.0753 11.71861,4.42439 14.69335,9.5004 3.46706,5.91609 10.50415,28.68346 15.84983,51.27959 4.14803,17.53364 6.11725,24.36672 9.34203,32.41633 2.27138,5.66974 3.04504,7.02168 4.10451,7.17248 0.89212,0.12699 1.64835,-0.33825 2.38806,-1.46914 0.88106,-1.34701 1.07422,-2.82583 1.03798,-7.94703 -0.0505,-7.13993 -1.01424,-13.81668 -6.85404,-47.48608 -2.27809,-13.13432 -4.81154,-28.44776 -5.6299,-34.02985 -0.81835,-5.58209 -2.03804,-11.89552 -2.71041,-14.029847 -1.83299,-5.818567 -1.71834,-9.554901 0.39825,-12.978402 3.26637,-5.283226 8.76506,-7.737127 13.69299,-6.110763 2.7511,0.907943 7.30922,5.051584 9.76262,8.874884 3.62887,5.655096 4.98468,11.52357 6.30374,27.284918 1.24265,14.84835 1.46909,16.22327 6.57886,39.94429 7.65088,35.51773 10.69768,45.67164 13.70427,45.67164 0.50505,0 15.99832,-9.79408 17.54848,-11.09328 0.57822,-0.48461 8.16454,-44.31237 10.5541,-60.9733 2.9831,-20.79917 3.06064,-21.22937 4.2532,-23.597 3.69768,-7.341125 11.63617,-10.377369 17.75574,-6.791063 2.80658,1.644763 4.28644,3.399853 6.90646,8.190943 l 1.59158,2.91041 -4.34258,21.55239 c -2.38842,11.85382 -4.90202,26.02771 -5.58577,31.49754 -1.53112,12.24849 -3.96106,24.52429 -7.64106,38.60187 l -2.80917,10.74627 0.0425,13.13432 c 0.045,13.89017 0.72798,19.63415 2.48918,20.9338 3.35254,2.47394 17.16975,5.15552 26.72202,5.18609 13.54532,0.0433 22.05577,-2.58587 40.68929,-12.57049 6.18806,-3.31582 14.14354,-7.40794 17.67885,-9.09361 7.4635,-3.55865 9.46242,-3.6086 13.74335,-0.34342 4.71742,3.59809 6.71736,8.60929 5.23206,13.10981 -1.70175,5.15635 -16.89024,16.52513 -31.09418,23.27438 -8.59875,4.08585 -10.27753,5.37161 -14.01057,10.73045 -1.31343,1.88546 -4.40298,5.12596 -6.86567,7.2011 -9.51814,8.02034 -20.13426,17.83297 -23.11189,21.36266 -3.81529,4.52269 -6.15053,8.91572 -10.90145,20.50774 -5.75237,14.03551 -7.75112,18.05624 -9.19106,18.48895 -1.84211,0.55356 -85.31507,0.84735 -97.6911,0.34383 z m 29.44967,-9.13172 c 0.94868,-0.69369 0.74381,-2.01804 -2.88622,-18.65671 -5.10729,-23.40996 -16.95811,-75.88294 -17.39498,-77.02139 -0.52212,-1.36064 -2.84066,-1.05851 -4.63444,0.60391 -1.41816,1.31431 -2.14148,1.49253 -6.05732,1.49253 -3.84014,0 -4.44576,0.14255 -4.43886,1.04478 0.007,0.91845 4.42929,18.02688 20.06057,77.60837 l 4.11054,15.66806 5.10977,0.004 c 3.15248,0.002 5.50093,-0.28244 6.13094,-0.74312 z m 57.85491,-12.73514 c 4.18169,-7.19693 9.15184,-16.11951 11.04477,-19.82797 3.33459,-6.53282 3.40563,-6.76971 2.28281,-7.61194 -0.63738,-0.47811 -2.07876,-0.86929 -3.20306,-0.86929 -1.58727,0 -2.48751,-0.48401 -4.02763,-2.16543 l -1.98345,-2.16542 -1.27055,2.01617 c -3.77755,5.99442 -18.62031,37.92739 -18.38744,39.55906 0.12221,0.85625 1.23788,1.78536 3.46385,2.8846 1.80597,0.89182 3.55224,1.54141 3.8806,1.44353 0.32836,-0.0979 4.0184,-6.06639 8.2001,-13.26331 z m -84.23487,12.27427 c 3.74596,-1.04049 3.75045,-1.24494 0.25616,-11.66074 -7.7609,-23.13372 -24.62559,-67.7287 -25.61327,-67.7287 -0.0919,0 -1.07755,0.67164 -2.19021,1.49254 -1.11266,0.82089 -2.7768,1.49253 -3.69808,1.49253 -1.05204,0 -1.67505,0.31655 -1.67505,0.85107 0,1.92071 23.83097,71.53051 25.65594,74.94049 0.74373,1.38968 3.60012,1.63063 7.26451,0.61281 z m 45.5333,-1.3659 c 1.19993,-0.8774 1.12985,-1.40481 -8.99915,-67.72503 l -4.67305,-30.59702 h -3.33687 c -2.95499,0 -3.5195,-0.20497 -4.9327,-1.79104 -1.91992,-2.15479 -3.37766,-2.33424 -3.37766,-0.4158 0,1.20229 3.1686,22.36567 12.53151,83.69938 1.3534,8.86567 2.57157,16.45522 2.70706,16.86567 0.34294,1.03888 8.65141,1.00908 10.08086,-0.0362 z m 15.8233,-1.71509 c 0.83207,-2.38687 1.7372,-9.80264 5.1239,-41.98009 1.48607,-14.11941 3.37059,-31.55209 4.18781,-38.73929 0.81722,-7.1872 1.48586,-13.86283 1.48586,-14.83474 v -1.76709 l -3.44699,0.40007 c -2.95389,0.34283 -3.67194,0.22311 -5.01954,-0.83691 -2.24291,-1.76428 -3.28211,-1.56606 -3.6874,0.70333 -0.61952,3.46897 -1.51556,13.8842 -4.22456,49.10448 -3.3968,44.1627 -3.47705,46.71161 -1.53196,48.65671 0.83239,0.83239 1.99005,1.19403 3.8222,1.19403 2.41706,0 2.68138,-0.15265 3.29068,-1.9005 z m 60.87478,-53.58937 c 7.92023,-6.05675 14.4004,-11.25318 14.4004,-11.54763 0,-0.29444 -0.51503,-1.19012 -1.14452,-1.99038 -0.62949,-0.80027 -1.32474,-2.52175 -1.54501,-3.82551 -0.26644,-1.57705 -0.71186,-2.37049 -1.33073,-2.37049 -0.51163,0 -5.79398,3.2884 -11.73857,7.30754 -5.94458,4.01914 -13.56206,9.13811 -16.92773,11.37548 -3.36567,2.23738 -6.1597,4.32212 -6.20896,4.63277 -0.0493,0.31064 -0.11642,0.85845 -0.14925,1.21733 -0.0328,0.35889 1.01492,1.01989 2.32836,1.4689 1.31343,0.449 3.32835,1.8543 4.47761,3.12287 1.14925,1.26857 2.39295,2.15234 2.76377,1.96394 0.37083,-0.18841 7.15441,-5.29808 15.07463,-11.35482 z m 28.59441,-17.58093 c 14.44893,-7.29124 30.58211,-19.21462 30.58211,-22.60201 0,-1.01729 -0.28999,-1.10189 -2.53731,-0.74023 -4.95908,0.79807 -11.62087,3.42126 -21.08157,8.30123 -11.05305,5.70133 -16.38349,8.97101 -16.37552,10.0447 0.0106,1.41995 3.59983,7.02234 4.499,7.02234 0.49409,0 2.70507,-0.91172 4.91329,-2.02603 z m -188.92235,-7.46658 c 0.27641,-1.38206 0.89207,-1.93985 3.05123,-2.76444 4.58791,-1.75213 4.60952,-2.24205 0.27787,-6.29969 -5.2863,-4.95191 -10.58894,-8.90595 -11.943492,-8.90595 -0.748905,0 -1.134875,0.41944 -1.134875,1.23328 0,1.86191 -1.097133,3.53555 -2.722867,4.15366 -0.814452,0.30965 -1.456238,1.03714 -1.456238,1.65071 0,1.30457 11.371582,12.66384 12.677562,12.66384 0.5205,0 1.05155,-0.7351 1.25081,-1.73141 z M 87.286313,231.23275 c 0.7574,-0.68544 1.961505,-0.96206 3.778353,-0.86801 1.941994,0.10053 2.666677,-0.087 2.666677,-0.68991 0,-0.83408 -6.855074,-12.60529 -8.914462,-15.30749 -1.056278,-1.38598 -1.173181,-1.40798 -2.514569,-0.47322 -0.773734,0.53918 -2.347088,1.78189 -3.496342,2.76158 l -2.089552,1.78124 2.923537,5.55765 c 2.951901,5.61157 4.848573,8.24422 5.939492,8.24422 0.327355,0 1.095445,-0.45273 1.706866,-1.00606 z m 55.101747,-2.20952 c 2.62687,-1.17864 5.52335,-2.14626 6.43664,-2.15027 0.9133,-0.004 1.79536,-0.35863 1.96014,-0.78805 0.39311,-1.02442 -2.84314,-10.28585 -9.01063,-25.7864 -6.19857,-15.57871 -9.01306,-21.79105 -9.8724,-21.79105 -0.3661,0 -1.11169,0.52555 -1.65686,1.16788 -0.87607,1.03221 -1.33412,1.10114 -3.94284,0.59341 -1.62339,-0.31595 -3.16557,-0.36051 -3.42706,-0.099 -0.26149,0.26149 -0.19908,1.4049 0.1387,2.54091 0.33778,1.13602 3.01344,12.35381 5.94592,24.92844 2.93247,12.57463 5.50589,23.14471 5.71872,23.48906 0.52329,0.8467 2.07634,0.42268 7.70967,-2.10491 z m 34.42021,-8.4305 c -0.0914,-1.63943 -0.8234,-8.08527 -1.62665,-14.32407 -4.78978,-37.20213 -5.62938,-44.04505 -5.62938,-45.88049 0,-1.11816 -0.4127,-2.37552 -0.91711,-2.79415 -0.76769,-0.63712 -1.21334,-0.4788 -2.7353,0.97168 l -1.81819,1.73281 -2.40145,-2.83582 c -1.37449,-1.6231 -2.90796,-2.83582 -3.58584,-2.83582 -1.41405,0 -1.57332,-1.25626 2.57158,20.28327 3.79184,19.70477 5.23552,29.57562 5.70778,39.0256 0.26422,5.28684 0.61501,7.75604 1.12995,7.95364 0.41073,0.15761 1.63817,-0.17439 2.72764,-0.73778 l 1.98086,-1.02434 1.50586,1.88551 c 2.20139,2.75638 3.29511,2.2538 3.09025,-1.42004 z m 37.10628,-0.0662 4.39625,-0.96601 4.88187,-21.2728 c 5.65317,-24.63376 6.19516,-27.40464 5.94643,-30.40093 -0.17609,-2.12132 -0.26961,-2.20826 -2.2077,-2.0523 -1.47713,0.11886 -2.2523,-0.16337 -2.86967,-1.04478 -0.46522,-0.6642 -1.06187,-1.20763 -1.32589,-1.20763 -0.45487,0 -1.83969,4.03787 -3.89026,11.34328 -1.82941,6.51753 -10.48737,43.80969 -10.48737,45.17196 0,1.6595 -0.0316,1.65706 5.55634,0.42921 z m -137.414924,-10.222 c 0.967165,-0.57132 1.905823,-1.62583 2.085907,-2.34334 0.532234,-2.12058 -7.027673,-15.72238 -8.738531,-15.72238 -0.992358,0 -0.656175,6.56838 0.605559,11.83144 1.840716,7.67817 2.482555,8.33988 6.047065,6.23428 z m 46.104544,-42.6647 1.49668,-1.9124 3.22593,1.01688 c 1.77426,0.55928 3.43815,1.01688 3.69752,1.01688 1.17634,0 -2.16166,-12.00668 -5.76771,-20.74626 -1.85595,-4.49808 -3.05789,-5.36276 -4.70152,-3.3823 -0.5994,0.72224 -1.39353,0.85482 -3.35668,0.56043 -2.48411,-0.37252 -2.57152,-0.33151 -2.57152,1.2061 0,1.55735 1.55339,10.21051 3.30775,18.42581 0.84757,3.96896 1.6741,5.72727 2.69223,5.72727 0.26435,0 1.15415,-0.86059 1.97732,-1.91241 z m 105.30951,-14.84256 c 1.35405,-0.47203 2.12942,-1.35538 3.01322,-3.43284 2.00369,-4.70986 3.77756,-11.93379 3.58457,-14.59782 -0.17858,-2.46525 -0.2322,-2.52391 -2.16675,-2.3704 -1.09101,0.0866 -2.76747,-0.30562 -3.72549,-0.87153 -1.09829,-0.64878 -1.93873,-0.81722 -2.27473,-0.45591 -0.96583,1.03858 -4.32876,20.10897 -3.71202,21.05001 0.83841,1.27928 2.82546,1.53456 5.2812,0.67849 z m -68.46584,-6.88117 c 0.62883,-0.75769 1.44469,-0.86754 4.03737,-0.5436 l 3.24928,0.40597 -0.32103,-2.59073 c -0.57711,-4.65724 -3.45953,-20.45469 -4.0947,-22.44147 -0.71188,-2.2267 -0.98949,-2.30502 -3.35606,-0.9468 -1.65964,0.95251 -1.80711,0.93729 -3.57371,-0.36882 -2.74952,-2.0328 -3.37233,-1.23854 -2.97049,3.78822 0.39778,4.97597 3.14986,20.35802 3.99044,22.30352 0.67933,1.57228 1.92666,1.73388 3.0389,0.39371 z m -40.90523,-13.05366 c 1.14599,-0.85925 1.1456,-0.89214 -0.0352,-2.95805 -2.05274,-3.59161 -10.12597,-12.50003 -10.3473,-11.41776 -0.28859,1.41124 1.62485,10.40077 2.62586,12.3365 0.47066,0.91016 1.3259,1.92868 1.90054,2.26337 1.5278,0.88987 4.52324,0.77525 5.85605,-0.22406 z m 119.66184,-12.71319 c -0.005,-4.51532 -1.00216,-11.53191 -1.74542,-12.28246 -0.59733,-0.60319 -4.01499,3.4921 -6.86744,8.22906 -1.97835,3.28538 -2.0551,3.59317 -1.1464,4.59728 1.11455,1.23156 6.42049,3.40855 8.42048,3.45487 1.26387,0.0293 1.34302,-0.20714 1.33878,-3.99875 z m -79.24923,-9.06579 c 2.21642,-0.73154 4.02985,-1.53585 4.02985,-1.78736 0,-0.63413 -7.07008,-9.910123 -10.04315,-13.176697 l -2.44519,-2.686567 0.023,3.880597 c 0.05,8.448057 0.78315,13.798047 2.01408,14.698127 0.63981,0.46783 1.43964,0.74966 1.77743,0.62628 0.33778,-0.12337 2.42758,-0.82285 4.64399,-1.55438 z"
     id="path837"
     transform="scale(0.75)" />
</svg>
