<svg xmlns="http://www.w3.org/2000/svg" width="400" height="400" version="1.0" viewBox="0 0 300 300"><path d="M28 28v245h244V27H150L28 28zm93 34c5 6 7 11 7 24l3 17 4 21c4 19 7 27 9 27l7-5 6-4 3-17 5-30c2-15 2-15 4-19 5-6 13-4 17 3l2 3-4 19-4 22c0 5-3 21-6 31-2 6-2 9-2 18l2 12c2 2 15 5 23 4 10 0 14-2 30-10l16-8c6 0 11 6 9 12-1 4-14 14-24 18-5 2-7 4-8 6l-5 6-12 10c-9 9-10 10-17 27l-4 9a585 585 0 0 1-82 0l-5-13a529 529 0 0 0-11-35c-3-10-4-11-13-20s-14-14-21-27c-7-14-7-21-1-24 7-4 10-2 18 13 4 10 6 14 12 19l8 7 4-3 2-5v-12a5283 5283 0 0 1-18-64c-4-7-4-10 0-14s8-4 14 0c3 2 4 4 7 12l10 34 4 18 3 7c1 2 1 2 2 1 3-2 3-8-3-38a668 668 0 0 1-7-40c-2-6-1-9 3-13 4-3 9-3 13 1z"/><path d="M113 78c0 7 1 7 7 5l2-1-2-3-4-5-3-3v7zm61 7-3 5 8 3-2-12-3 4zm-92 7c1 6 2 8 4 8 4 0 4-1 0-7l-5-4 1 3zm32 0 4 18 1-1h4c2 0 2 0 2-2l-2-9c-2-9-2-10-4-8h-2c-2-2-3-1-3 2zm56 7-3 15 3 1c2-1 3-1 4-7 2-7 2-9 0-9h-4zm-79 9h-3c-2 0-2 0-2 3l2 9c1 7 2 8 4 5h6l-6-18-1 1zm27 9a635 635 0 0 0 7 43c0 7 0 7 2 6h4l1 2-2-22-3-25c0-3-1-4-3-1-1 1-1 1-3-1-2-3-3-4-3-2zm45 22-5 21-2 6 4-1 3-1 5-18c5-21 5-22 2-21l-2-1-1-1-5 16zm-65-4-3 1c-3-1-3-1-3 1a370 370 0 0 1 9 37l4-2 6-2 2-1a307 307 0 0 0-15-34zm-46 12 3 11 2-1c3-1 2-1 0-7-4-6-5-7-5-3zm8 15-2 2 3 5c2 5 3 6 5 4h2l2-1-7-12-3 2zm65 13 6 38 6 38h4c3 0 4-1 3-2l-8-54-3-18h-2l-4-1c0-2-2-3-2-1zm30 4-2 18-2 33c-2 20-2 20 3 20 2 0 2 3 6-38a1911 1911 0 0 1 2-36h-5c-2-2-2-2-2 3zm-81-1-2 3c-2 0-2 1 3 5 5 5 6 6 6 3l3-2 2-1c0-1-8-8-11-9-1-1-1 0-1 1zm165 2-23 12 1 2 2 3 22-13c7-7 7-7-2-5zm-128 1-5 1c-3-1-3-1-3 1l10 36 8 33h5l4-1-15-70c-1-2-2-3-4 0zm-21 12-3 1c-2 0-2 0-2 2l10 28 10 27c1 1 7 0 7-1a837 837 0 0 0-22-57zm108 9-13 8c-2 1-3 3-1 3l4 2 2 2 11-8a934 934 0 0 0 10-10l-1-3-1-2-11 7zm-29 31-8 15 3 3 3 1 8-15 8-15-3-1-3-1-1-2-8 15z"/><path d="m143 345-10-1-7-18a2115 2115 0 0 0-8-26l-7-21c-3-13-3-13-17-27-15-15-20-22-28-39-6-10-7-18-5-23 1-2 4-5 8-6 7-3 10 0 19 19l8 15 17 18c4 2 5 2 8-2l3-6c1-2 2-3 1-8l-6-28a411 411 0 0 0-22-80c1-4 7-9 12-9s11 5 14 10c4 6 11 28 16 51a135 135 0 0 0 14 39c1 1 1 0 2-1l1-8a1856 1856 0 0 1-15-109c4-5 9-7 14-6 3 1 7 5 10 9 3 6 5 12 6 28 1 14 2 16 7 40 7 35 10 45 13 45l18-11a1261 1261 0 0 0 15-84c3-8 11-11 17-7 3 1 5 3 7 8l2 3-4 21-6 32c-2 12-4 24-8 38l-2 11v13c0 14 0 20 2 21 3 3 17 5 27 5 13 1 22-2 40-12l18-9c8-4 10-4 14-1 5 4 7 9 5 14s-17 16-31 23c-9 4-10 5-14 11l-7 7-23 21c-4 5-6 9-11 21l-9 18-98 1zm30-10-3-18-18-77c0-2-2-1-4 0-2 2-2 2-6 2l-5 1 20 77 4 16h6l6-1zm58-12a558 558 0 0 0 13-28l-3-1c-2 0-3 0-4-2l-2-2-2 2-18 40 4 2 3 2 9-13zm-85 12c4-1 4-1 1-12l-26-67-2 1-4 2h-2l26 75c1 2 4 2 7 1zm46-1c1-1 1-2-9-68l-5-31h-3c-3 0-4 0-5-2-2-2-3-2-3 0a4760 4760 0 0 0 15 101h10zm16-2 5-42a6142 6142 0 0 1 6-54v-1h-4l-5-1c-2-2-3-1-4 1a968 968 0 0 0-5 98l3 1c3 0 3 0 4-2zm61-54 14-11-1-2-2-4-1-2-12 7a3382 3382 0 0 1-17 11l-6 5v1l2 2c2 0 4 1 5 3l3 2 15-12zm28-17c15-8 31-20 31-23l-3-1c-5 1-11 4-21 9-11 5-16 9-16 10l4 7 5-2zm-189-8 3-3c5-1 5-2 1-6l-12-9-1 1c0 2-2 4-3 5l-2 1c0 2 12 13 13 13l1-2zm-21-22 4-1h3l-9-16h-3l-3 3-2 1 3 6c3 6 4 8 6 8l1-1zm55-2 7-2 2-1-9-26c-6-15-9-21-10-21l-2 1h-7v3l6 25 6 23c0 1 2 1 7-2zm35-8-2-15a1060 1060 0 0 1-6-48c-1-1-2-1-3 1l-2 1-2-3-4-2 3 20a277 277 0 0 1 7 47l2-1 2-1 2 2c2 3 3 2 3-1zm37 0 4-1 5-22c6-24 6-27 6-30 0-2 0-2-2-2l-3-1-1-1-4 11-11 45c0 2 0 2 6 1zM77 210l2-2c0-2-7-16-9-16v12c2 8 3 8 6 6zm46-42 1-2 3 1 4 1c1 0-2-12-6-21-2-4-3-5-4-3h-4l-2 1 3 19 3 6 2-2zm105-15 3-4 4-14c-1-3-1-3-3-3h-3l-3-1c-1 1-4 20-3 21 0 1 2 2 5 1zm-69-7 4-1 4 1-1-3-4-22c0-2-1-3-3-1-2 1-2 1-4-1s-3-1-3 4l4 23h3zm-40-13v-3l-11-12 3 13 2 2h6zm119-13-2-12c0-1-4 3-6 8l-2 5 9 3 1-4zm-79-9 4-2-10-13-3-3 1 4c0 9 0 14 2 15l1 1 5-2z" style="fill:#fff;stroke-width:.597015" transform="scale(.75)"/></svg>