<svg xmlns="http://www.w3.org/2000/svg" width="400" height="400" version="1.0" viewBox="0 0 300 300"><path d="M28 27.5v245l122 .3 122 .2V27H150c-67.1 0-122 .2-122 .5zm92.8 34.7c5 5.3 6.9 11 7.6 23.3.3 6 1.3 13.9 2.1 17.5.8 3.6 2.8 13 4.5 21 4.1 19.1 6.8 27.3 8.6 26.6.8-.3 4-2.3 7.2-4.5l5.8-3.9 3.2-17.4c1.8-9.6 3.9-22.8 4.8-29.4 2-15.7 2-15.8 4.9-19.2 4.9-5.8 12.8-4.6 16.3 2.6l1.9 3.7-3.8 18.5c-2.1 10.2-3.8 20.1-3.8 22.1-.1 4.5-3.5 21.2-6.2 30.8-1.8 6.1-2.1 9.2-1.7 18.3.2 6 .9 11.3 1.5 11.9 2.4 2.4 15.7 4.9 22.8 4.4 10.9-.9 14.9-2.3 30.1-10.7 7.8-4.3 15.1-7.8 16.3-7.8 6.3 0 11.2 6.3 9.5 12.2-1.2 4-14.5 13.8-24.3 17.9-5.1 2.1-7.1 3.5-8.6 6.3-1.2 1.9-3.4 4.5-5 5.7-1.7 1.3-6.9 5.8-11.7 10.2-9.2 8.3-10.1 9.8-16.9 26.8-1.8 4.6-3.8 8.7-4.3 9.1-.6.4-19.1.8-41.1.8s-40.5-.4-41-.8c-.6-.4-2.8-6.3-4.9-13.2-2-6.9-5.1-16.1-6.6-20.5-1.6-4.4-3.6-10.9-4.5-14.5-2.6-10.4-3.2-11.5-12.7-20.1-9.3-8.6-13.8-14.4-20.5-27-7.2-13.6-7.7-21.1-1.4-24.4 7.4-3.8 10.2-1.5 17.6 13.9 4.6 9.8 6.8 13.1 12.4 18.7 3.7 3.8 7.5 6.9 8.4 6.9 1.1 0 2.4-1.4 3.2-3.4.8-1.9 1.9-3.7 2.5-4.1 1.4-.9 1.2-6-.5-12.4-.8-3.1-4.4-17.5-8-32.1-4.7-18.8-7.4-28-9.5-31.7-3.9-6.8-3.9-10.6-.1-14.4 3.9-3.9 8.4-3.9 13.8 0 3.4 2.4 4.4 4.1 7.1 11.7 3.8 11 6.2 19.5 9.7 34.9 1.5 6.6 3.6 14.2 4.7 17 1.1 2.7 2.4 6.1 2.9 7.4.7 1.8 1.2 2.1 2.3 1.2 2.7-2.3 2.3-8.1-3-38.1-3-16.7-5.4-31.6-5.4-33 0-1.4-.7-4.6-1.6-7.1-2-5.5-1.3-9.1 2.3-12.5 3.9-3.6 9.1-3.3 13.1.8z"/><path d="M113.3 77.5c.2 7.6.4 7.7 6.4 5.4l2.4-.9-2-2.8c-1.1-1.5-3.1-4.1-4.5-5.7l-2.6-3 .3 7zM173.8 85.1c-1.6 2.1-2.8 4.3-2.8 4.8 0 1 6.8 3.6 7.5 2.9.6-.6-.7-11.8-1.4-11.8-.3.1-1.8 1.9-3.3 4.1zM81.7 92c1.1 6.3 2.1 8 4.7 8 4 0 3.8-1.3-.9-6.6l-4.4-4.9.6 3.5zM114.3 92.2c2.5 14.9 3.1 17.8 3.8 17.8.4 0 1-.4 1.3-.9.3-.4 1.7-.6 3.2-.3 2.2.4 2.5.2 2.1-1.4-.3-1.1-1.1-5.3-1.7-9.4-1.5-8.9-1.7-9.5-3.6-7.9-1.1.9-1.8.9-2.6.1-2.1-2.1-3-1.3-2.5 2zM169.6 99.1c-.6 2.1-2.6 13.1-2.6 14.5 0 .8 1.1 1.2 2.7 1.1 2.4-.2 2.9-.9 4.5-6.2 2.3-7.7 2.3-9.9.2-9.1-.9.4-2.3.1-3-.5-1-.9-1.5-.8-1.8.2zM90.5 108c-.4.6-1.6.8-2.7.4-1.8-.5-2-.3-1.5 2.2.4 1.6 1.2 5.9 1.8 9.6 1.2 7 2.1 8.1 3.8 5.1.7-1.4 1.3-1.5 3.4-.6 1.4.7 2.7.9 3 .7.7-.8-5.3-18.4-6.3-18.4-.5 0-1.2.5-1.5 1zM118 116.7c0 .5 1.6 8.7 3.5 18.3 2 10.1 3.5 20.6 3.5 24.8 0 7 .1 7.2 2.1 6 1.7-1.1 2.2-1 3.5.6.7 1.1 1.6 1.7 1.9 1.4.3-.2-.8-10.1-2.5-21.9-1.6-11.8-3-22.9-3-24.7 0-3.4-1.3-4.2-2.8-1.6-.8 1.4-1.2 1.3-2.9-1-2.1-2.6-3.3-3.3-3.3-1.9zM162.5 138.7c-2 8.7-4.3 18.3-5 21.3-.8 3-1.3 5.6-1.1 5.8.2.2 1.9-.1 3.7-.6l3.4-.8 4.2-18c4.9-21 5.1-22.8 2.3-21.9-1.1.4-2 .2-2-.4 0-.6-.4-1.1-.9-1.1s-2.6 7.1-4.6 15.7zM98 135c0 .8-1 .9-3.2.5-2.7-.6-3-.5-2.4 1.1.4 1.1 2.5 9.7 4.6 19.3 2.2 9.5 4.1 17.5 4.3 17.7.2.2 2.1-.5 4.2-1.6 2.2-1.1 4.7-2 5.7-2s1.8-.3 1.8-.8c-.1-2.2-12.9-34.7-13.9-35-.6-.2-1.1.2-1.1.8zM52 146.5c0 3.1 2 11.4 2.9 11.9.3.2 1.5-.2 2.6-1 2-1.5 1.9-1.6-1-7-3.6-6.6-4.5-7.4-4.5-3.9zM60.2 162l-2.3 1.9 2.6 5c2.5 5.1 3.8 6.1 5 4.1.4-.6 1.5-.8 2.6-.5 1.1.4 1.9.2 1.9-.4 0-.9-7-12.2-7.4-12.1-.1.1-1.1.9-2.4 2zM125 174.7c.1.5 2.7 17.7 5.8 38.3l5.8 37.5h4c3.3 0 3.9-.3 3.7-2-.3-2.5-4.4-29.9-8.1-54l-2.8-18-2.7.3c-1.7.2-2.9-.3-3.3-1.3-.6-1.5-2.4-2.1-2.4-.8zM154.6 178.7c-.3 2.6-1 11.1-1.6 18.8-.6 7.7-1.7 22.3-2.5 32.4-1.6 19.7-1.6 20.1 3.2 20.1 2.5 0 2 2.8 6.3-38.5 1.7-16 3.3-30.5 3.6-32.4.5-3.2.4-3.3-2.1-2.7-1.9.5-3.3.2-4.5-.9-1.7-1.5-1.8-1.4-2.4 3.2zM74 178c0 1.4-.8 2.4-2.1 2.7-1.9.5-1.6 1 2.7 5.4 5.1 5.2 6.4 5.9 6.4 3.4 0-.8 1.1-1.7 2.5-2.1 1.4-.3 2.5-1 2.5-1.4 0-.8-8.1-7.9-10.7-9.4-.9-.5-1.3 0-1.3 1.4zM238.9 179.5c-4.1 1.1-22.9 11.1-22.9 12.1 0 .3.6 1.4 1.3 2.7.6 1.2 1.3 2.3 1.3 2.5.6 1.1 17.8-8.9 21.9-12.7 7.3-6.7 7.2-7.1-1.6-4.6zM110.9 180.6c-.9 1.1-2.3 1.4-4.7 1-3.1-.5-3.4-.3-2.8 1.7.3 1.2 4.4 17.2 9.2 35.4l8.8 33.3h4.3c2.4 0 4.3-.5 4.3-1.1 0-.8-10.8-49.4-15.5-69.7-.6-2.6-1.8-2.8-3.6-.6zM89.5 193c-.3.5-1.5 1-2.7 1-1.5 0-1.8.4-1.3 1.7.3 1 4.6 13.7 9.5 28.2 4.9 14.6 9.3 26.8 9.7 27.2 1.2 1 7.3-.2 7.3-1.5.1-1.9-20.4-57.6-21.2-57.6-.4 0-1 .4-1.3 1zM197.7 201.5c-6 4.1-11.7 8-12.8 8.5-2.2 1.3-2.5 3-.4 3 .8 0 2.3.9 3.4 2.1l1.9 2.1 10.9-8.3c5.9-4.5 11-8.4 11.2-8.6.3-.2-.1-.9-.7-1.5-.7-.7-1.2-2-1.2-3s-.3-1.8-.7-1.8c-.5 0-5.7 3.4-11.6 7.5zM168.5 232.6c-3.9 8.1-7.1 15.2-7.3 15.8-.1.6 1.1 1.6 2.7 2.3l3 1.1 8.5-14.6c4.7-8 8.2-15 8-15.4-.3-.4-1.6-.8-3-.8s-2.7-.7-3-1.5c-.4-.8-.9-1.5-1.3-1.5s-3.8 6.6-7.6 14.6z"/><path d="M143.284 344.504c-5.747-.233-10.482-.47-10.524-.524-.68-.891-3.292-8.28-6.475-18.308A2114.684 2114.684 0 0 0 117.912 300c-2.416-7.224-5.359-16.723-6.539-21.109-3.43-12.755-3.614-13.036-17.291-26.652-14.928-14.86-20.028-21.829-28.4-38.806-5.383-10.916-7.093-18.57-5.174-23.163 1.129-2.7 4.506-5.478 8.123-6.68 7.04-2.338 10.063.68 19.427 19.401 2.872 5.743 6.41 12.282 7.863 14.531 2.957 4.582 12.684 14.894 17.116 18.148 3.77 2.767 5.38 2.338 7.554-2.014.836-1.674 2.292-4.156 3.234-5.516 1.651-2.383 1.701-2.663 1.38-7.694-.24-3.776-1.923-11.588-6.078-28.207-12.087-48.345-14.974-58.478-19.18-67.321-3.106-6.529-3.877-9.515-3.214-12.453 1.099-4.874 6.915-9.44 11.926-9.364 4.992.075 11.719 4.424 14.693 9.5 3.468 5.916 10.505 28.683 15.85 51.28 4.148 17.533 6.118 24.366 9.342 32.416 2.272 5.67 3.045 7.022 4.105 7.172.892.127 1.648-.338 2.388-1.469.881-1.347 1.074-2.826 1.038-7.947-.05-7.14-1.014-13.816-6.854-47.486-2.278-13.134-4.812-28.448-5.63-34.03-.818-5.582-2.038-11.895-2.71-14.03-1.833-5.818-1.719-9.554.398-12.978 3.266-5.283 8.765-7.737 13.693-6.11 2.75.907 7.309 5.05 9.762 8.874 3.63 5.655 4.985 11.524 6.304 27.285 1.243 14.848 1.47 16.223 6.579 39.944 7.65 35.518 10.698 45.672 13.704 45.672.505 0 15.999-9.794 17.549-11.093.578-.485 8.164-44.313 10.554-60.974 2.983-20.799 3.06-21.229 4.253-23.597 3.698-7.34 11.636-10.377 17.756-6.79 2.806 1.644 4.286 3.4 6.906 8.19l1.592 2.91-4.343 21.553c-2.388 11.854-4.902 26.028-5.586 31.498-1.53 12.248-3.96 24.524-7.64 38.602l-2.81 10.746.043 13.134c.045 13.89.728 19.634 2.489 20.934 3.352 2.474 17.17 5.155 26.722 5.186 13.545.043 22.056-2.586 40.69-12.57 6.187-3.316 14.143-7.408 17.678-9.094 7.464-3.559 9.463-3.609 13.743-.344 4.718 3.599 6.718 8.61 5.232 13.11-1.701 5.157-16.89 16.525-31.094 23.275-8.598 4.086-10.277 5.371-14.01 10.73-1.314 1.886-4.403 5.126-6.866 7.201-9.518 8.02-20.134 17.833-23.112 21.363-3.815 4.523-6.15 8.916-10.901 20.508-5.753 14.035-7.751 18.056-9.191 18.489-1.842.553-85.315.847-97.691.343zm29.45-9.131c.948-.694.743-2.018-2.887-18.657-5.107-23.41-16.958-75.883-17.395-77.021-.522-1.361-2.84-1.059-4.634.604-1.419 1.314-2.142 1.492-6.058 1.492-3.84 0-4.445.143-4.439 1.045.007.918 4.43 18.027 20.061 77.608l4.11 15.668 5.11.004c3.153.002 5.501-.282 6.131-.743zm57.854-12.735c4.182-7.197 9.152-16.12 11.045-19.828 3.335-6.533 3.406-6.77 2.283-7.612-.638-.478-2.079-.87-3.203-.87-1.588 0-2.488-.484-4.028-2.165l-1.983-2.165-1.27 2.016c-3.778 5.994-18.621 37.927-18.388 39.559.122.856 1.237 1.785 3.463 2.884 1.806.892 3.553 1.542 3.881 1.444.328-.098 4.018-6.067 8.2-13.263zm-84.235 12.274c3.746-1.04 3.75-1.245.256-11.66-7.76-23.135-24.625-67.73-25.613-67.73-.092 0-1.077.672-2.19 1.493-1.113.82-2.777 1.492-3.698 1.492-1.052 0-1.675.317-1.675.852 0 1.92 23.83 71.53 25.656 74.94.744 1.39 3.6 1.63 7.264.613zm45.534-1.366c1.2-.877 1.13-1.405-9-67.725l-4.673-30.597h-3.336c-2.955 0-3.52-.205-4.933-1.791-1.92-2.155-3.378-2.334-3.378-.416 0 1.202 3.169 22.366 12.532 83.7 1.353 8.865 2.571 16.455 2.707 16.865.343 1.039 8.651 1.01 10.08-.036zm15.823-1.715c.832-2.387 1.737-9.803 5.124-41.98 1.486-14.12 3.37-31.552 4.188-38.74.817-7.187 1.485-13.862 1.485-14.834v-1.767l-3.447.4c-2.953.343-3.671.223-5.02-.837-2.242-1.764-3.281-1.566-3.686.703-.62 3.47-1.516 13.884-4.225 49.105-3.397 44.162-3.477 46.711-1.532 48.656.832.833 1.99 1.194 3.822 1.194 2.417 0 2.682-.152 3.29-1.9zm60.875-53.59c7.92-6.056 14.4-11.253 14.4-11.547 0-.295-.515-1.19-1.144-1.99-.63-.8-1.325-2.522-1.545-3.826-.267-1.577-.712-2.37-1.331-2.37-.512 0-5.794 3.288-11.739 7.307A3382.11 3382.11 0 0 1 250.3 277.19c-3.366 2.238-6.16 4.323-6.21 4.633-.049.31-.116.859-.149 1.218-.033.358 1.015 1.02 2.329 1.468 1.313.45 3.328 1.855 4.477 3.123 1.15 1.269 2.393 2.153 2.764 1.964.37-.188 7.154-5.298 15.075-11.355zm28.594-17.58c14.449-7.292 30.582-19.215 30.582-22.602 0-1.018-.29-1.102-2.537-.74-4.96.797-11.621 3.42-21.082 8.3-11.053 5.702-16.383 8.972-16.375 10.045.01 1.42 3.6 7.023 4.499 7.023.494 0 2.705-.912 4.913-2.026zm-188.922-7.467c.276-1.382.892-1.94 3.051-2.764 4.588-1.753 4.61-2.243.278-6.3-5.286-4.952-10.59-8.906-11.944-8.906-.749 0-1.135.42-1.135 1.233 0 1.862-1.097 3.536-2.722 4.154-.815.31-1.457 1.037-1.457 1.65 0 1.305 11.372 12.664 12.678 12.664.52 0 1.051-.735 1.25-1.731zm-20.97-21.961c.757-.686 1.96-.962 3.778-.868 1.942.1 2.666-.087 2.666-.69 0-.834-6.855-12.605-8.914-15.308-1.056-1.386-1.173-1.408-2.515-.473-.773.54-2.347 1.782-3.496 2.762l-2.09 1.78 2.924 5.559c2.952 5.611 4.849 8.244 5.94 8.244.327 0 1.095-.453 1.706-1.006zm55.101-2.21c2.627-1.178 5.523-2.146 6.437-2.15.913-.004 1.795-.359 1.96-.788.393-1.025-2.843-10.286-9.01-25.786-6.2-15.58-9.014-21.792-9.873-21.792-.366 0-1.112.526-1.657 1.168-.876 1.033-1.334 1.101-3.943.594-1.623-.316-3.165-.36-3.427-.1-.261.262-.199 1.406.139 2.542s3.013 12.353 5.946 24.928c2.932 12.575 5.506 23.145 5.718 23.49.524.846 2.077.422 7.71-2.106zm34.42-8.43c-.091-1.64-.823-8.086-1.626-14.324-4.79-37.202-5.63-44.045-5.63-45.88 0-1.119-.412-2.376-.917-2.795-.768-.637-1.213-.479-2.735.972l-1.818 1.733-2.402-2.836c-1.374-1.623-2.908-2.836-3.586-2.836-1.414 0-1.573-1.256 2.572 20.283 3.792 19.705 5.235 29.576 5.708 39.026.264 5.287.615 7.756 1.13 7.953.41.158 1.638-.174 2.727-.737l1.981-1.025 1.506 1.886c2.201 2.756 3.295 2.254 3.09-1.42zm37.107-.066 4.396-.966 4.882-21.273c5.653-24.634 6.195-27.405 5.946-30.401-.176-2.122-.27-2.208-2.208-2.053-1.477.12-2.252-.163-2.87-1.044-.464-.664-1.061-1.208-1.325-1.208-.455 0-1.84 4.038-3.89 11.343-1.83 6.518-10.488 43.81-10.488 45.172 0 1.66-.031 1.657 5.557.43zM76.5 210.305c.967-.572 1.905-1.626 2.086-2.344.532-2.12-7.028-15.722-8.739-15.722-.992 0-.656 6.568.606 11.831 1.84 7.678 2.482 8.34 6.047 6.235zm46.104-42.665 1.497-1.913 3.226 1.017c1.774.56 3.438 1.017 3.697 1.017 1.177 0-2.161-12.006-5.767-20.746-1.856-4.498-3.058-5.363-4.702-3.382-.6.722-1.393.854-3.357.56-2.484-.372-2.571-.331-2.571 1.206 0 1.558 1.553 10.21 3.308 18.426.847 3.969 1.674 5.727 2.692 5.727.264 0 1.154-.86 1.977-1.912zm105.31-14.843c1.354-.472 2.13-1.355 3.013-3.433 2.004-4.71 3.777-11.933 3.584-14.597-.178-2.466-.232-2.524-2.166-2.37-1.091.086-2.768-.306-3.726-.872-1.098-.65-1.939-.818-2.275-.456-.965 1.038-4.328 20.109-3.712 21.05.839 1.28 2.826 1.534 5.282.678zm-68.466-6.88c.629-.759 1.445-.868 4.037-.545l3.25.406-.322-2.59c-.577-4.657-3.46-20.455-4.094-22.442-.712-2.226-.99-2.305-3.356-.947-1.66.953-1.807.938-3.574-.368-2.75-2.033-3.372-1.239-2.97 3.788.397 4.976 3.15 20.358 3.99 22.303.68 1.573 1.927 1.734 3.039.394zm-40.905-13.055c1.146-.859 1.145-.892-.036-2.958-2.052-3.591-10.126-12.5-10.347-11.417-.288 1.41 1.625 10.4 2.626 12.336.47.91 1.326 1.929 1.9 2.263 1.528.89 4.524.776 5.857-.224zm119.661-12.713c-.005-4.515-1.002-11.532-1.745-12.282-.597-.603-4.015 3.492-6.867 8.229-1.979 3.285-2.056 3.593-1.147 4.597 1.115 1.232 6.42 3.409 8.42 3.455 1.265.03 1.344-.207 1.34-3.999zm-79.249-9.066c2.217-.731 4.03-1.535 4.03-1.787 0-.634-7.07-9.91-10.043-13.177l-2.445-2.686.023 3.88c.05 8.448.783 13.798 2.014 14.699.64.467 1.44.75 1.777.626.338-.124 2.428-.823 4.644-1.555z" style="fill:#fff;stroke-width:.597015" transform="scale(.75)"/></svg>