<svg xmlns="http://www.w3.org/2000/svg" width="400" height="400" version="1.0" viewBox="0 0 300 300"><path d="M28 150v122h246V28H28v122zM258 46l-1 4-1 1-1 5-3 11c-2 6-4 8-10 15l-8 7-29 26a3460 3460 0 0 1-83 77l7 9 7 9 3 2 2 3a95 95 0 0 0 21 21l-2 1-2 1-12 1-14 2c-2 0-3 0-5-4l-5-9-6-11-5-9-2-3-21 20-22 20-7-6-6-7 3-3a512 512 0 0 0 33-34c5-5 5-5-4-10l-9-5-10-6-8-4v-4l1-9 1-6 1-7 1-7 4 5a130 130 0 0 0 22 20c18 15 21 17 22 14l22-24 83-92 10-11 9-2 10-2 13-3c2 0 2 0 1 4z"/><path d="m79 318-8-8 11-11c17-16 41-41 41-44 1-2 0-3-7-7a1560 1560 0 0 1-33-19l-6-3 1-3 1-11 1-10 2-10v-8c1-1 2 0 4 3a206 206 0 0 0 39 35c12 10 17 14 19 14s3 0 4-2c3-4 12-15 62-68a85257 85257 0 0 0 66-73l25-27 11-2 16-4c7-2 15-4 16-3l-1 3-1 5-1 4-2 7-8 23-18 19c-6 3-16 13-45 40a24618 24618 0 0 1-40 36c-26 23-65 60-65 62-1 1 1 3 13 18l5 6 3 3 4 4c2 5 22 25 26 27 2 0 2 1 0 2l-4 1-18 2a631 631 0 0 0-19 1l-5-7a1566 1566 0 0 0-22-40c-2 0-3 0-24 22-21 20-32 31-34 31l-9-8z" style="fill:#fff;stroke-width:.597015" transform="scale(.75)"/></svg>