<svg xmlns="http://www.w3.org/2000/svg" width="400" height="400" version="1.0" viewBox="0 0 300 300"><path d="M27.5 150v122H274V28H27.5v122zm230-104.4c-.8 2-1.3 4-1 4.4.3.5.1 1.1-.4 1.4-.4.3-1.1 2.3-1.5 4.4-.3 2.1-1.6 7.1-2.9 11.1-2.1 6.4-3.3 8.1-9.8 14.7-4 4.1-7.7 7.4-8.2 7.4-.4 0-13.5 11.7-29 26s-33.8 31.1-40.6 37.2c-13.1 11.9-41.4 38.9-41.9 39.9-.1.3 2.9 4.2 6.8 8.7 3.8 4.4 7 8.5 7 9s1.1 1.7 2.5 2.6c1.4.9 2.5 2.3 2.5 3 0 1.9 17.6 19.6 19.5 19.6.8 0 1.5.4 1.5 1 0 .5-.9 1-1.9 1-1.1 0-2.2.4-2.5.9-.3.4-5.6 1.1-11.8 1.5-6.2.4-12.4 1-13.8 1.2-2.2.5-2.8 0-4.8-3.8-1.3-2.4-3.5-6.4-5-8.9-1.5-2.6-4.2-7.3-6.1-10.5-1.9-3.3-4.1-7.4-4.9-9.2-.9-1.7-2.1-3.2-2.7-3.2-.5 0-10 9-20.9 20-11 11-20.5 20-21.1 20-.6 0-3.9-2.9-7.4-6.4l-6.4-6.4 3.4-3c5.7-5 28.9-28.2 28.9-29 0-.3 1.9-2.6 4.2-4.9 4.9-5 4.9-5.1-4.7-10.3-3.3-1.8-7.1-4-8.5-5-1.4-.9-6-3.6-10.3-6l-7.9-4.2.6-4.2c.3-2.2.6-6.2.5-8.8 0-2.5.5-4.9 1.1-5.3.5-.3 1-3.7 1-7.6 0-3.8.4-6.9.8-6.9s2.5 2.2 4.5 4.9c3.4 4.4 17.7 18.1 19 18.1.3 0 1.6.9 2.9 2 18.2 15.4 20.9 17.1 22 13.8.3-.7 9.9-11.5 21.4-24 27.1-29.5 71.2-77.8 83.7-91.6l9.9-10.9 8.6-1.8c4.8-1 9.2-2.1 9.7-2.4 1.3-.8 10.4-2.8 13.3-3 2.2-.1 2.2 0 .7 3.5z"/><path d="m79.332 317.761-8.29-8.209 11.416-10.746c16.375-15.416 40.189-40.832 40.895-43.648.514-2.046-.761-3.272-7.192-6.917-2.978-1.688-10.52-6.076-16.758-9.752-6.239-3.676-13.725-7.96-16.635-9.52l-5.292-2.837.413-3.066c.227-1.686.637-6.693.91-11.126.338-5.477.813-8.676 1.482-9.984.691-1.35 1.087-4.2 1.326-9.552.188-4.195.534-7.993.77-8.438.305-.577 1.271.197 3.354 2.686 7.328 8.759 25.057 25.92 28 27.102.657.264 5.58 4.135 10.94 8.602 12.033 10.03 17.703 14.062 19.773 14.062 1.175 0 2.107-.713 3.706-2.836 2.792-3.707 12.202-14.109 61.458-67.935a85257.21 85257.21 0 0 0 65.97-72.172l25.019-27.42 11.045-2.484c6.074-1.366 13.462-3.195 16.418-4.065 6.479-1.906 15.343-3.486 15.99-2.85.259.253-.1 1.781-.798 3.395-.697 1.614-1.342 3.892-1.434 5.064-.091 1.17-.474 2.703-.849 3.404-.375.701-1.357 4.133-2.183 7.626-2.397 10.146-5.424 18.778-7.84 22.362-2.776 4.118-13.658 15.359-18.409 19.017-5.068 3.902-16.01 13.7-44.68 40.013a24617.528 24617.528 0 0 1-39.701 36.36c-25.78 23.526-64.857 60.544-65.396 61.948-.267.696 1.45 2.949 13.509 17.726 2.544 3.118 4.627 5.96 4.627 6.312 0 .354 1.364 1.794 3.033 3.2 1.668 1.407 3.373 3.372 3.789 4.368 1.8 4.31 22.297 24.776 26.163 26.123 2.095.73 2.095 1.53 0 1.98-.903.195-2.582.728-3.732 1.185-2.034.81-8.5 1.645-18.209 2.353-2.627.192-7.8.64-11.498.995-5.226.503-6.918.484-7.607-.087-.486-.404-2.467-3.592-4.401-7.084-1.934-3.492-6.459-11.453-10.054-17.692-3.596-6.239-7.692-13.569-9.103-16.29-1.411-2.72-3.072-5.216-3.691-5.547-1.397-.748-2.348.103-23.795 21.275-21.105 20.836-32.244 31.308-33.3 31.308-.478 0-4.6-3.694-9.159-8.209z" style="fill:#fff;stroke-width:.597015" transform="scale(.75)"/></svg>