<svg xmlns="http://www.w3.org/2000/svg" width="317.333" height="317.333" version="1.0" viewBox="0 0 238 238"><path d="M61.7 60.8 4 118.5l57.8 57.8 57.7 57.7 58-58 58-58L178 60.5C146.4 28.9 120.3 3 120 3c-.3 0-26.5 26-58.3 57.8zm62.4-33.5c4 6.3 7 12.7 6.5 13.5-.2.4-.8 9.3-1.2 19.7-.4 10.5-.8 21.2-.9 24-.2 2.7-.6 13.3-.9 23.5-.3 10.2-.8 22.4-1.2 27.3-.4 6.7-.3 8.8.8 9.2 2.9 1 26.6 3.2 30.6 2.7 2.3-.2 4.2 0 4.2.4 0 .9-3.5 5.4-9.2 12.2-2.5 3.1-2.7 3.1-5.7 1.6-1.6-.8-5.8-1.9-9.2-2.5-3.4-.5-7-1.4-8-1.9-3.7-2-3.8-1.3-4.1 16.8l-.3 17.7-3.5.1c-8.3.3-7.8 1.2-7.8-17.3 0-9.1-.4-16.9-.9-17.4s-5.5.5-11.2 2.1c-5.7 1.7-10.9 3-11.6 3-1.1 0-12.5-13.2-12.5-14.5 0-.2 2.4-.3 5.4-.1 2.9.1 8.6-.1 12.7-.6 4.1-.4 9.6-1 12.3-1.3 2.7-.3 5.2-.7 5.4-1 .3-.3 0-12.7-.7-27.7-1.5-32.1-1.9-43.3-2.6-62.7l-.5-14.3 4.7-8.4c2.5-4.6 5.1-8.4 5.7-8.4.6 0 2.3 1.9 3.7 4.3z"/><path d="M155.021 254.72c-1.98-.956-2.163-2.555-2.53-22.167-.192-10.29-.508-19.827-.7-21.195-.35-2.478-.356-2.486-2.066-2.482-2.193.005-9.773 1.741-18.529 4.243-3.777 1.079-7.846 2.082-9.043 2.23l-2.175.268-4.65-5.149c-2.557-2.832-6.133-7.067-7.946-9.411l-3.297-4.263 11.543-.286c11.307-.28 32.657-2.29 35.397-3.332l1.162-.442-.316-13.126c-.173-7.22-.633-19.947-1.02-28.283-1.418-30.46-1.695-37.032-2.831-67.255l-1.157-30.786 4.536-8.052c5.223-9.271 8.152-13.665 9.252-13.877 1.364-.262 9.015 11.75 11.966 18.786l1.264 3.014-.5 6.932c-.274 3.813-.817 15.031-1.207 24.93-.389 9.899-.924 23.113-1.189 29.365-.264 6.252-.803 20.745-1.196 32.207-.393 11.462-.925 24.14-1.182 28.173-.53 8.325-.607 15.67-.175 16.797.16.419.678.968 1.149 1.22 2.248 1.203 29.381 3.778 39.814 3.778 4.589 0 6.107.148 6.107.596 0 1.196-13.385 17.876-15.068 18.776-.601.322-1.432.191-2.865-.45-3.372-1.51-7.818-2.734-14.641-4.03-3.575-.679-7.805-1.754-9.4-2.388-1.595-.634-3.242-1.022-3.661-.861-1.51.58-1.799 3.735-2.324 25.419l-.524 21.669-5.479-.033c-3.013-.017-5.947-.258-6.519-.534z" style="fill:#fff;stroke-width:.473632" transform="scale(.75)"/></svg>