<svg xmlns="http://www.w3.org/2000/svg" width="317" height="317" version="1.0" viewBox="0 0 238 238"><path d="M62 61 4 119l58 57 58 58 58-58 58-58-58-57-58-58-58 58zm62-34 7 14-2 19a16112 16112 0 0 0-2 85 198 198 0 0 0 35 3l-9 12c-3 3-3 3-6 1l-9-2-8-2c-4-2-4-1-4 17v17l-4 1c-8 0-8 1-8-18l-1-17-11 2-11 3c-2 0-13-13-13-15h18a1061 1061 0 0 0 18-3l-1-27-2-63-1-14 5-9 5-8 4 4z"/><path d="M155 255c-2-1-2-3-3-22a458 458 0 0 0-2-24l-19 4-9 2-2 1-5-6-8-9-3-4h12l35-4h1v-13a1536 1536 0 0 0-4-96l-1-31 4-8 10-14c1 0 9 12 12 19l1 3-1 7a1125 1125 0 0 0-3 87 1451 1451 0 0 1 0 46 265 265 0 0 0 46 4l-16 19-2-1-15-4-9-2-4-1c-2 1-2 4-2 26l-1 21h-12z" style="fill:#fff;stroke-width:.473632" transform="scale(.75)"/></svg>