<svg xmlns="http://www.w3.org/2000/svg" width="400" height="400" version="1.0" viewBox="0 0 300 300"><path d="M139 .6c-28.9 3.5-48.9 10.6-70.7 25.1L60 31.1V63H30l-3.4 5.2C17.3 82.8 9.9 101.4 5.9 120c-3.3 15.1-3.3 41.9 0 57 4.4 20.6 11.6 37.8 22.8 54.7l5.4 8.3H60v25.9l8.3 5.4c16.5 11 34.9 18.8 54 22.9 14.7 3.2 43.7 3.2 58.4 0 17.5-3.8 36.6-11.6 51.1-20.8l5.2-3.4v-30h31.9l5.4-8.3c11.7-17.5 20.1-38.1 23.3-57.2 2.3-13.5 2.3-38.5 0-52-3-17.4-12.6-41.9-21.8-55.3l-2.9-4.2H237V27l-5.2-3.4C216.3 13.7 194.7 5.3 178 2.5 168.4.9 145.5-.2 139 .6zm52.3 17.2c11.9 4 21.2 8.1 28.9 12.8l5.8 3.5V74h39.9l3.5 5.8c4.7 7.7 8.8 17 12.8 28.9l3.2 9.8.4 26.9c.3 22.5.1 28.1-1.3 34.5-3.1 13.9-10.7 31.6-18.7 43.6l-3.3 5-18.3.3-18.2.2v34.6l-7.2 4.1c-21.3 12-42.7 17.6-67.3 17.6-27.2 0-51.2-7-74.2-21.5l-6.3-4V229H40.5l-3.5-5.3c-9.5-14.3-17.4-34.5-20.6-52.2-2-11.7-2-34.2 0-45.8 2.4-13.2 7.1-26.9 13.8-40L36.3 74H71V38.1l5.8-3.9C87.7 26.8 104.4 19.4 118 16c6.6-1.7 10.8-1.9 35.5-1.7l28 .3 9.8 3.2z"/><path d="M145.8 37.6c-3.3 1.7-5.8 6.2-5.8 10.1 0 3.6 3.3 8.9 5.9 9.8 2 .6 2.1 1.4 2.1 13.5 0 11.9-.2 13-2 14-1.1.6-2.8 2.7-3.8 4.8-1.7 3.7-1.7 3.7-15.4 7l-13.6 3.4-2.9-2.2c-3.5-2.6-10.3-2.9-13.6-.7-1.3.9-3.2 3.2-4.1 5.2-1.7 3.4-1.7 4-.2 7.9 3 8 12.7 10.3 18.5 4.5 1.7-1.7 3.1-4.1 3.1-5.4 0-2.6 2.2-3.4 19.4-7.5l8.7-2.1 2.9 2.8 3 2.8v135.3l-3.5 3.5c-3 3-3.5 4.2-3.5 8.1 0 3.6.6 5.2 2.9 7.8 2.6 2.9 3.5 3.3 8.1 3.3s5.5-.4 8.1-3.3c3.9-4.4 4.1-10.7.3-15.1-1.4-1.7-3.2-3.1-4-3.1-1.2 0-1.4-10.1-1.4-68v-67.9l2.8-1.5c1.6-.8 3.4-2.1 4.1-2.9 1.2-1.6 3.1-1.3 17.9 2.9 4.7 1.3 5.2 1.7 5.2 4.4 0 1.9 1.1 3.9 3.1 5.9 6 6 16.1 3.1 18.9-5.4.9-2.8.8-4.1-.6-7-.9-2-2.8-4.3-4.1-5.2-3-2-9.5-1.9-13.2.3-2.7 1.6-3.3 1.6-13.8-1-10.8-2.7-11-2.8-12.2-6.3-.8-2.1-2.6-4.3-4.7-5.5l-3.4-2V70.6c0-11.8.1-12.3 2.3-13.5 1.3-.7 3.1-2.5 4-4.1 5.9-9.9-5.3-21-15.5-15.4z"/><path d="M191.94 379.883c-7.059-.375-20.24-2.055-27.123-3.457-22.056-4.492-40.796-12.15-62.065-25.363l-7.827-4.862v-41.126H54.302l-4.466-6.793c-13.703-20.838-25.263-51.296-28.465-74.998-.497-3.676-.764-12.71-.761-25.672.006-22.319.505-27.293 4.163-41.471 4.015-15.564 8.558-27.142 17.753-45.245l5.99-11.792h46.409l.013-24.03.013-24.03 6.435-4.272c17.579-11.673 40.944-21.825 59.808-25.986 6.223-1.373 6.536-1.382 43.284-1.245l37.015.137 9.945 3.266c18.219 5.982 30.255 11.262 43.338 19.012l6.12 3.625V99.104h53.463l3.655 6.12c7.653 12.811 13.003 24.972 19.093 43.403l3.265 9.88.112 37.015c.112 36.621.098 37.082-1.26 43.284-3.954 18.047-14.37 42.464-25.2 59.073l-4.214 6.463-24.457.442-24.457.442v46.149l-8.806 4.887c-13.76 7.636-24.345 12.232-37.524 16.293-18.582 5.724-41.754 8.436-62.626 7.328zm16.527-28.859c1.434-.398 3.15-1.667 4.929-3.646 4.602-5.119 5.695-12 2.807-17.663-1.156-2.264-5.675-6.902-7.232-7.421-.541-.18-.943-2.144-1.27-6.204-.264-3.268-.492-43.884-.508-90.259l-.029-84.318 2.963-1.502c1.63-.826 3.924-2.345 5.098-3.376 2.011-1.766 2.334-1.854 5.545-1.51 1.875.2 7.842 1.59 13.26 3.086 10.89 3.008 12.537 4.024 12.537 7.725 0 2.818 3.242 7.368 6.819 9.569 2.593 1.596 3.47 1.808 7.463 1.808 3.275 0 5.168-.319 6.855-1.156 4.876-2.42 8.491-7.533 9.128-12.912.297-2.508.071-3.506-1.531-6.76-2.465-5.008-5.667-7.907-9.34-8.458-4.84-.726-10.416-.008-13.976 1.798-3.936 1.998-5.093 1.905-18.689-1.506-12.09-3.034-13.323-3.634-15.214-7.414-2.331-4.657-4.067-6.625-7.656-8.679l-3.317-1.897.177-15.79.177-15.79 3.729-3.404c4.51-4.118 6.095-7.331 6.095-12.36 0-10.198-9.763-17.335-19.725-14.42-4.264 1.248-7.258 3.824-9.312 8.014-3.829 7.81-1.358 15.176 7.08 21.112 1.367.961 1.39 1.155 1.583 14.03.262 17.467.086 18.694-3.14 21.878-1.404 1.386-3.43 4.076-4.502 5.977-1.343 2.382-2.628 3.803-4.133 4.571-1.202.613-9.325 2.914-18.052 5.113l-15.867 3.998-2.923-2.066c-1.608-1.137-3.836-2.373-4.952-2.749-2.775-.933-10.42-.86-12.766.122-4.099 1.716-8.972 8.908-8.981 13.254-.006 2.853 2.557 8.788 4.855 11.242 3.962 4.232 11.907 5.812 17.178 3.418 4.168-1.893 7.982-6.605 8.897-10.994.528-2.533 4.318-3.973 21.61-8.21l15.201-3.724 3.839 3.804 3.838 3.805v179.776l-3.318 3.264c-5.185 5.099-5.878 6.54-5.862 12.183.01 3.704.301 5.36 1.263 7.2 1.457 2.785 5.18 6.545 7.32 7.392 1.983.785 9.293.815 12.05.05z" style="fill:#fff;stroke-width:.597015" transform="scale(.75)"/></svg>