<svg xmlns="http://www.w3.org/2000/svg" width="400" height="400" version="1.0" viewBox="0 0 300 300"><path d="M139 1c-29 3-49 10-71 25l-8 5v32H30l-3 5a150 150 0 0 0 2 164l5 8h26v26l8 5c17 11 35 19 54 23 15 3 44 3 59 0 17-4 36-11 51-21l5-3v-30h32l5-8c12-18 20-38 24-58 2-13 2-38 0-52-3-17-13-41-22-55l-3-4h-36V27l-5-3a159 159 0 0 0-93-23zm52 17c12 4 22 8 29 13l6 3v40h40l3 6c5 7 9 17 13 29l3 9 1 27-1 35c-4 14-11 31-19 43l-3 5-19 1h-18v35l-7 4c-21 12-43 17-67 17-28 0-52-7-75-21l-6-4v-31H41l-4-5c-9-15-17-35-21-53-2-11-2-34 0-45 3-13 7-27 14-40l6-12h35V38l6-4c11-7 27-15 41-18 7-2 11-2 36-2l28 1 9 3z"/><path d="M146 38c-3 1-6 6-6 10 0 3 3 9 6 10 2 0 2 1 2 13s0 13-2 14l-4 5c-2 3-2 3-15 7l-14 3-3-2c-3-3-10-3-13-1-2 1-4 3-4 5-2 4-2 5-1 8 3 8 13 11 19 5l3-5c0-3 2-4 19-8l9-2 3 3 3 3v135l-4 3c-3 3-3 5-3 8 0 4 1 6 3 8 2 3 3 3 8 3s5 0 8-3c4-4 4-11 0-15l-4-3-1-68v-68l3-1 4-3c1-2 3-2 18 3 4 1 5 1 5 4l3 6c6 6 16 3 19-5 1-3 1-5-1-7-1-2-2-5-4-6-3-2-9-2-13 1-3 1-3 1-14-1-11-3-11-3-12-7l-5-5-3-2V71c0-12 0-13 2-14l4-4c6-10-5-21-15-15z"/><path d="M192 380a180 180 0 0 1-89-29l-8-5v-41H54l-4-7c-14-21-25-51-29-75a263 263 0 0 1 4-67c4-15 8-27 18-45l6-12h46V51l6-4c18-12 41-22 60-26 6-2 7-2 43-1h37l10 3c19 6 31 11 44 19l6 4v53h53l4 6c8 13 13 25 19 44l3 10v37c1 36 1 37-1 43-4 18-14 42-25 59l-4 6-25 1h-24v46l-9 5a183 183 0 0 1-100 24zm16-29c2 0 4-2 5-4 5-5 6-12 3-17-1-3-5-7-7-8l-1-6-1-90v-84l3-2 5-3c2-2 3-2 6-2l13 3c11 3 13 4 13 8 0 3 3 7 6 10l8 1 7-1c5-2 8-7 9-13l-2-7c-2-5-5-7-9-8-5-1-10 0-14 2s-5 2-19-2c-12-3-13-3-15-7-2-5-4-7-8-9l-3-2V79l4-4c5-4 6-7 6-12 0-10-9-17-19-14-5 1-8 3-10 8-4 7-1 15 7 21 2 1 2 1 2 14 0 17 0 18-3 22l-5 6-4 4-18 5-16 4-3-2-5-3-12 1c-5 1-9 8-9 13 0 3 2 9 4 11 4 4 12 6 18 3 4-1 8-6 9-11 0-2 4-3 21-8l15-3 4 3 4 4v180l-3 3c-5 5-6 7-6 12l1 8 7 7h12z" style="fill:#fff;stroke-width:.597015" transform="scale(.75)"/></svg>