<svg xmlns="http://www.w3.org/2000/svg" width="384" height="385.333" version="1.0" viewBox="0 0 288 289"><path d="M24 66.9v42.9l3.8 1.2c12.3 4 23.7 12.6 30.4 23.1 4.1 6.4 7.9 9.4 12.9 10.4 1.9.4 5.3 1.6 7.5 2.8 3.5 2 4.2 3 6.5 10.1 2.9 9.1 5.4 12.1 10.6 13.1 5.5 1 9.6 5.7 12.1 14 2.8 9.4 8.4 17.7 16.8 25.1 9.6 8.4 9.4 8.3 9.4 2.9 0-4-.5-5.1-4-8.5-4.5-4.4-4.9-6.4-2-12 2.4-4.6 2.7-12.8.6-16.8-.8-1.5-2.8-4.4-4.5-6.6-3.8-4.7-3.9-7.4-.6-15.4 3-7.5 3.1-11.6.4-25.2-2.4-12.1-2.1-19.3 1.2-34.7 3.5-16.3 14.1-49.7 21.4-67.6.7-1.6-2.6-1.7-60.9-1.7H24v42.9zM204.3 32.2c-30.8 36.5-53.3 82.7-60.4 123.6-1.9 11.6-2.2 22.4-1 42.2l.6 10.5 1.3-8.5c4.8-31.1 19.2-57.2 45.8-83 21-20.3 43.4-35 64.1-42l8.8-2.9.3-24.1.2-24h-52.8l-6.9 8.2z"/><path d="M252.5 122.1c-28 6.8-54.1 20.1-71.7 36.7-17.1 16-29.2 38.2-33.8 62l-1.3 6.4-3.5-.7c-11.2-2.1-21.6-8.3-28-16.7-4.8-6.4-7.3-7.6-12.7-5.8-3.5 1.2-3.8 1.1-7.1-2.1s-3.6-3.2-6.9-2c-3.8 1.4-4.2 1.2-10-3.4-8-6.4-14.2-8.3-38.1-11.9L24 182.3l.2 40.6.3 40.6h239l.3-71.8c.2-67.8.1-71.7-1.5-71.6-1 0-5.4.9-9.8 2z"/><path d="M189.124 301.588c-5.679-1.232-10.732-3.001-15.815-5.535-9.056-4.515-14.17-8.777-23.238-19.365-1.71-1.996-3.91-4.118-4.889-4.715-2.193-1.337-5.97-1.406-10.088-.183-1.68.499-3.603.768-4.274.599-.672-.17-2.98-1.872-5.13-3.783-2.15-1.91-4.375-3.474-4.943-3.474-.568 0-2.528.515-4.356 1.144-1.927.663-3.922.993-4.747.786-.783-.196-4.18-2.434-7.55-4.973-12.462-9.388-21.039-11.85-62.201-17.852l-8.915-1.3-.147-47.853c-.08-26.319.068-47.852.33-47.852.263 0 2.27.612 4.461 1.36 15.72 5.37 29.627 15.806 38.682 29.027 5.12 7.476 8.767 11.242 12.871 13.293 1.932.965 3.858 1.755 4.28 1.755 1.105 0 7.56 2.26 10.263 3.593 2.801 1.381 5.279 3.62 6.415 5.795.466.893 1.88 4.618 3.142 8.279 1.263 3.66 2.787 7.618 3.387 8.795 2.372 4.649 5.725 7.349 10.349 8.333 3.254.693 7.112 2.907 9.316 5.347 2.969 3.286 4.708 6.546 6.967 13.057 1.097 3.163 2.68 7.295 3.519 9.182 2.506 5.64 8.593 14.208 13.969 19.66 6.597 6.691 15.555 14.114 16.755 13.885.772-.147.979-1.058 1.114-4.903.201-5.69-.372-7.048-5.04-11.946-5.862-6.152-6.171-7.763-2.917-15.178 2.338-5.327 3.096-9.613 2.74-15.485-.335-5.518-1.388-7.947-6.354-14.662-1.73-2.338-3.558-5.053-4.065-6.033-1.656-3.202-1.175-7.105 2.026-16.427l2.948-8.585-.302-7.536c-.178-4.442-.91-10.725-1.782-15.3-3.113-16.336-3.221-22.834-.638-38.27 3.406-20.346 17.684-67.99 28.394-94.743 2.243-5.604 2.273-6.593.208-6.906-.87-.132 18.297-.278 42.593-.326 35.21-.069 44.085.06 43.734.633-.243.395-3.756 4.667-7.806 9.493-35.469 42.26-62.406 92.78-75.512 141.62-6.56 24.446-8.456 42.254-7.227 67.865 1.034 21.538 1.357 26.49 1.705 26.142.183-.183.905-4.035 1.605-8.56 3.14-20.309 7.874-35.946 15.788-52.151 9.886-20.244 21.702-36.496 40.408-55.578 24.522-25.016 50.727-44.168 76.182-55.676 5.316-2.403 24.536-9.46 25.765-9.46.113 0 .201 14.558.197 32.35-.005 18.688-.221 32.016-.512 31.558-.654-1.034-3.32-.632-15.121 2.277-10.972 2.704-21.09 5.926-31.519 10.038-40.777 16.077-70.813 39.99-89.151 70.98-9.455 15.979-15.353 31.46-19.346 50.783-.899 4.35-1.894 7.882-2.212 7.85-.317-.031-2.26-.422-4.316-.869z" style="fill:#fff;stroke-width:.575124" transform="scale(.75)"/></svg>