<svg xmlns="http://www.w3.org/2000/svg" width="384" height="385" version="1.0" viewBox="0 0 288 289"><path d="M24 67v43l4 1c12 4 24 13 30 23 4 7 8 10 13 11l8 2c3 2 4 3 6 10 3 10 6 13 11 14s9 5 12 14 8 17 17 25 9 8 9 3c0-4 0-6-4-9-4-4-5-6-2-12 2-5 3-13 1-17l-5-6c-4-5-4-8-1-16 4-7 4-11 1-25-2-12-2-19 1-35 4-16 14-49 22-67 0-2-3-2-61-2H24v43zm180-35c-30 37-53 83-60 124-2 11-2 22-1 42l1 11 1-9c5-31 19-57 46-83 21-20 43-35 64-42l9-3V24h-53l-7 8z"/><path d="M253 122c-28 7-55 20-72 37-17 16-29 38-34 62l-1 6h-4c-11-3-21-9-28-17-5-7-7-8-13-6-3 1-3 1-7-2s-3-3-7-2c-3 1-4 1-10-3-8-7-14-9-38-12l-15-3v82h240v-72c0-68 0-72-2-72l-9 2z"/><path d="M189 302a66 66 0 0 1-39-25l-5-5h-14l-5-3-5-4-5 1-4 1-8-5c-12-9-21-12-62-18l-9-1v-96l5 2c15 5 29 15 38 29 5 7 9 11 13 13l4 2 11 3 6 6 3 8 4 9c2 5 5 7 10 8 3 1 7 3 9 6 3 3 5 6 7 13l4 9c2 6 8 14 14 20s15 14 17 14l1-5c0-6-1-7-5-12-6-6-7-8-3-15 2-6 3-10 2-16 0-5-1-8-6-15l-4-6c-2-3-1-7 2-16l3-9v-7l-2-15c-3-17-3-23-1-39a631 631 0 0 1 29-101 1757 1757 0 0 1 86 0l-8 9c-35 43-62 93-75 142-7 24-9 42-7 68l1 26 2-9c3-20 8-35 16-52A260 260 0 0 1 351 96a1285 1285 0 0 1 0 65c-1-2-4-1-15 2l-32 10c-41 16-71 40-89 71-9 16-15 31-19 51l-3 7h-4z" style="fill:#fff;stroke-width:.575124" transform="scale(.75)"/></svg>