<svg xmlns="http://www.w3.org/2000/svg" width="317" height="317" version="1.0" viewBox="0 0 238 238"><path d="m68 54-51 52 7 1c16 2 23 7 35 22 2 3 4 4 7 5 7 1 9 4 11 11 2 6 3 7 7 8 5 2 8 4 10 10l3 9 15 16c2 1 2 1 2-3l-3-6c-3-3-4-6-1-9 2-4 1-10-3-16l-3-6 2-7 2-7-1-11c-2-6-2-12-2-17 1-12 13-52 23-82l4-10-6-5-6-6-52 51zm93 4c-8 9-16 22-24 38a131 131 0 0 0-16 82 124 124 0 0 1 23-54c13-18 37-36 52-40l4-1-16-16-16-16-7 7z"/><path d="M205 117c-28 5-53 21-68 43-6 9-9 16-12 28l-2 9-7-2c-8-3-13-6-17-11-3-5-5-6-9-5s-4 1-6-2c-2-2-2-2-6-1-3 0-4 0-8-3-4-4-12-8-17-9-3-1-1 1 11 14l35 35 21 21 57-58c51-50 58-58 57-59-2-2-19-3-29-1z"/><path d="M155 259c-12-4-17-7-24-16l-4-4h-12l-2-2c-3-3-4-4-8-3h-5l-6-4c-7-5-16-10-22-12-3 0-3-1-28-26l-30-31-5-5 7-7 8-8 6 1 15 4c12 3 20 10 31 23 6 7 7 8 13 10 8 2 10 5 13 14 4 8 4 9 12 12 4 2 8 6 9 10a1603 1603 0 0 1 7 15c4 6 18 21 20 21 2 1 2 0 2-3 0-4-1-6-4-9-4-5-5-8-2-13 4-6 3-12-4-24l-4-5 4-9 3-9-2-12a92 92 0 0 1-1-35 822 822 0 0 1 34-110l23 23 24 23-3 3c-14 15-25 31-36 54-14 27-21 47-23 67a233 233 0 0 0 1 47l1-6a165 165 0 0 1 43-83c18-19 39-33 55-38l4-1 17 16 22 22 5 5h-30c-19 3-42 12-60 23a124 124 0 0 0-53 75l-3 10-8-3z" style="fill:#fff;stroke-width:.473632" transform="scale(.75)"/></svg>