<svg xmlns="http://www.w3.org/2000/svg" width="317.333" height="317.333" version="1.0" viewBox="0 0 238 238"><path d="m68.2 54.3-51.3 51.3 7.4 1.2c15.3 2.4 23 7.2 34.4 21.8 2.4 3.1 4.3 4.4 7.6 5.2 6.3 1.6 8.5 3.8 11 11.2 2 6 2.5 6.6 6.4 8 5.7 2.1 8 4.4 9.9 10.4.9 2.8 2.6 6.7 3.7 8.6 2.4 4 12.3 14.7 14.9 16.1 1.6.8 1.8.5 1.8-2.7 0-2.7-.7-4.2-3-6.2-3.3-2.9-3.9-6.5-1.5-9.6 2.7-3.5 1.9-9.5-2.2-16l-3.6-5.9 2.3-6.9 2.3-6.8-1.8-10.5c-1.2-6.9-1.6-12.9-1.2-17.3 1-11.8 12.5-52.5 23.1-81.7l3.6-10-5.7-5.7c-3.2-3.2-6-5.8-6.3-5.8-.3 0-23.6 23.1-51.8 51.3zM161.3 57.6c-8.7 9.8-16.7 22.2-24.3 37.9-12.8 26.1-17.1 42.6-16.9 65.2.1 7.6.4 15.1.8 16.8.6 2.6.8 2.3 1.4-2.8 1.8-14.7 11.3-36.8 21.8-50.7 13.2-17.5 36.7-35.7 51.7-40.1l4.3-1.3-15.8-15.8c-8.7-8.7-16.1-15.8-16.5-15.8-.4 0-3.3 3-6.5 6.6z"/><path d="M205 116.5c-28.1 5.6-53.4 21.7-67.6 43.1-6.2 9.3-9.5 16.9-12.7 28.9l-2.2 8.2-6.6-2.1c-8.1-2.6-13.1-5.9-16.6-10.9-3.5-5.1-5.5-6-9.8-4.8-3.1.8-3.7.7-5.4-1.5-1.7-2.1-2.5-2.4-5.8-1.8-3.4.5-4.4.2-8.1-2.9-4.4-3.7-12.6-7.9-17.6-9.1-2.5-.6-.6 1.8 11.2 14.1 7.7 8.1 23.4 24.1 34.9 35.5l20.8 20.8 57.9-57.9c50.3-50.3 57.8-58.2 56.7-59.5-1.7-2-19.3-2.1-29.1-.1z"/><path d="M155.345 259.39c-12.428-4.33-17.55-7.806-24.166-16.398-1.297-1.684-3.103-3.567-4.015-4.186-1.75-1.187-2.18-1.2-9.979-.297l-2.638.306-1.862-2.107c-2.704-3.061-3.371-3.306-7.99-2.931-2.184.177-4.51.187-5.168.022-.659-.166-3.058-1.72-5.331-3.455-7.335-5.597-15.752-10.069-22.519-11.965-2.66-.745-2.838-.917-27.879-26.797-13.861-14.325-27.36-28.232-29.998-30.904l-4.797-4.858 7.336-7.312 7.336-7.313 6.631 1.114c8.298 1.393 10.424 1.872 15.157 3.416 11.147 3.637 19.391 9.913 30.352 23.105 5.952 7.165 7.482 8.324 13.408 10.165 7.607 2.364 10.266 5.11 13.27 13.713 3.05 8.73 3.398 9.118 11.327 12.682 4.654 2.09 7.891 5.256 9.457 9.245.545 1.39 1.864 4.797 2.931 7.573 1.067 2.775 2.757 6.31 3.755 7.855 4.129 6.388 17.64 20.607 20.188 21.246 1.68.422 2.1-.319 2.108-3.732.01-3.623-.905-5.641-4.048-8.937-4.42-4.634-4.979-7.897-2.097-12.25 3.938-5.949 2.78-12.523-4.25-24.119l-3.367-5.554 3.085-8.895 3.085-8.894-1.942-11.432c-1.75-10.307-1.946-12.272-1.987-19.958-.04-7.9.069-9.064 1.5-15.867 4.458-21.209 13.758-53.578 24.427-85.017 5.917-17.436 8.606-24.662 9.109-24.48.226.08 10.875 10.457 23.664 23.059l23.254 22.91-3.052 3.228c-13.533 14.31-24.548 30.67-35.814 53.195-13.86 27.712-20.346 46.96-22.824 67.73-1.033 8.661-1.346 22.98-.75 34.4.5 9.61 1.057 13.145 1.923 12.211.22-.237.764-2.99 1.207-6.116 2.787-19.672 13.906-46.1 27.298-64.887 4.218-5.916 8.444-10.816 15.482-17.946 18.295-18.536 38.678-32.562 54.919-37.791l4.413-1.421 16.918 16.586c9.304 9.122 19.155 18.858 21.89 21.636l4.973 5.05-2.605-.353c-4.603-.624-20.74-.324-27.172.505-19.491 2.512-42.666 11.391-60.268 23.09-19.773 13.141-34.257 29.238-44 48.9-3.888 7.848-6.276 14.45-9.498 26.255-2.716 9.952-2.578 9.51-2.96 9.478-.177-.015-3.52-1.141-7.427-2.503z" style="fill:#fff;stroke-width:.473632" transform="scale(.75)"/></svg>