<?xml version="1.0" encoding="UTF-8" standalone="no"?>
<svg
   xmlns:dc="http://purl.org/dc/elements/1.1/"
   xmlns:cc="http://creativecommons.org/ns#"
   xmlns:rdf="http://www.w3.org/1999/02/22-rdf-syntax-ns#"
   xmlns:svg="http://www.w3.org/2000/svg"
   xmlns="http://www.w3.org/2000/svg"
   xmlns:sodipodi="http://sodipodi.sourceforge.net/DTD/sodipodi-0.dtd"
   xmlns:inkscape="http://www.inkscape.org/namespaces/inkscape"
   version="1.0"
   width="238.000000pt"
   height="238.000000pt"
   viewBox="0 0 238.000000 238.000000"
   preserveAspectRatio="xMidYMid meet"
   id="svg194"
   sodipodi:docname="vicissitudesup.svg"
   inkscape:version="1.0.1 (3bc2e813f5, 2020-09-07)">
  <defs
     id="defs198" />
  <sodipodi:namedview
     pagecolor="#ffffff"
     bordercolor="#666666"
     borderopacity="1"
     objecttolerance="10"
     gridtolerance="10"
     guidetolerance="10"
     inkscape:pageopacity="0"
     inkscape:pageshadow="2"
     inkscape:window-width="1600"
     inkscape:window-height="837"
     id="namedview196"
     showgrid="false"
     inkscape:zoom="2.1113445"
     inkscape:cx="56.897113"
     inkscape:cy="131.9496"
     inkscape:window-x="-8"
     inkscape:window-y="-8"
     inkscape:window-maximized="1"
     inkscape:current-layer="svg194" />
  <metadata
     id="metadata184">
Created by potrace 1.16, written by Peter Selinger 2001-2019
<rdf:RDF>
  <cc:Work
     rdf:about="">
    <dc:format>image/svg+xml</dc:format>
    <dc:type
       rdf:resource="http://purl.org/dc/dcmitype/StillImage" />
  </cc:Work>
</rdf:RDF>
</metadata>
  <g
     transform="translate(0.000000,238.000000) scale(0.100000,-0.100000)"
     fill="#000000"
     stroke="none"
     id="g192">
    <path
       d="M682 1837 l-513 -513 74 -12 c153 -24 230 -72 344 -218 24 -31 43 -44 76 -52 63 -16 85 -38 110 -112 20 -60 25 -66 64 -80 57 -21 80 -44 99 -104 9 -28 26 -67 37 -86 24 -40 123 -147 149 -161 16 -8 18 -5 18 27 0 27 -7 42 -30 62 -33 29 -39 65 -15 96 27 35 19 95 -22 160 l-36 59 23 69 23 68 -18 105 c-12 69 -16 129 -12 173 10 118 125 525 231 817 l36 100 -57 57 c-32 32 -60 58 -63 58 -3 0 -236 -231 -518 -513z"
       id="path186" />
    <path
       d="M1613 1804 c-87 -98 -167 -222 -243 -379 -128 -261 -171 -426 -169 -652 1 -76 4 -151 8 -168 6 -26 8 -23 14 28 18 147 113 368 218 507 132 175 367 357 517 401 l43 13 -158 158 c-87 87 -161 158 -165 158 -4 0 -33 -30 -65 -66z"
       id="path188" />
    <path
       d="M2050 1215 c-281 -56 -534 -217 -676 -431 -62 -93 -95 -169 -127 -289 l-22 -82 -66 21 c-81 26 -131 59 -166 109 -35 51 -55 60 -98 48 -31 -8 -37 -7 -54 15 -17 21 -25 24 -58 18 -34 -5 -44 -2 -81 29 -44 37 -126 79 -176 91 -25 6 -6 -18 112 -141 77 -81 234 -241 349 -355 l208 -208 579 579 c503 503 578 582 567 595 -17 20 -193 21 -291 1z"
       id="path190" />
  </g>
  <path
     style="fill:#ffffff;stroke-width:0.473632"
     d="m 155.3451,259.39036 c -12.42772,-4.33083 -17.54991,-7.80661 -24.1661,-16.39851 -1.29651,-1.68367 -3.10325,-3.56726 -4.01499,-4.18577 -1.74945,-1.1868 -2.1807,-1.19962 -9.97905,-0.29665 l -2.63776,0.30543 -1.86174,-2.10725 c -2.70412,-3.06069 -3.37188,-3.30563 -7.9905,-2.93087 -2.18422,0.17722 -4.51002,0.18702 -5.168441,0.0218 -0.658419,-0.16526 -3.057331,-1.71983 -5.330911,-3.45462 -7.334938,-5.5967 -15.751532,-10.06884 -22.518362,-11.9651 -2.659684,-0.74532 -2.838063,-0.91677 -27.879112,-26.79664 -13.861265,-14.3256 -27.360639,-28.23264 -29.998609,-30.90455 l -4.7963088,-4.85803 7.3361168,-7.31208 7.336117,-7.31208 6.630846,1.11331 c 8.298177,1.39326 10.423862,1.8724 15.156219,3.4163 11.14765,3.63686 19.391937,9.91265 30.352062,23.10484 5.952486,7.16474 7.48209,8.32443 13.40802,10.16547 7.607403,2.36344 10.265908,5.11037 13.271293,13.71274 3.04987,8.72965 3.39693,9.11824 11.32633,12.68155 4.65342,2.09114 7.89106,5.2565 9.45682,9.24569 0.54534,1.3894 1.86435,4.79703 2.93112,7.57251 1.06678,2.77549 2.75646,6.3102 3.75486,7.85491 4.12887,6.38816 17.63919,20.60684 20.18809,21.24658 1.68046,0.42177 2.09909,-0.31936 2.10813,-3.73219 0.01,-3.6228 -0.90479,-5.64129 -4.04867,-8.93732 -4.41972,-4.63361 -4.97833,-7.89669 -2.09693,-12.24907 3.93877,-5.94956 2.78046,-12.52418 -4.24935,-24.11944 l -3.36746,-5.55445 3.08511,-8.89437 3.08512,-8.89438 -1.94203,-11.43255 c -1.75081,-10.30687 -1.94642,-12.27199 -1.98659,-19.95793 -0.0413,-7.90038 0.0686,-9.06357 1.49871,-15.86667 4.45849,-21.20896 13.75895,-53.577578 24.42789,-85.016914 5.91705,-17.436435 8.60549,-24.66198 9.10868,-24.480837 0.22615,0.08141 10.87521,10.458123 23.66457,23.059362 l 23.2534,22.911343 -3.05202,3.227207 c -13.53281,14.309606 -24.54782,30.670579 -35.81372,53.195359 -13.85985,27.71108 -20.34625,46.95928 -22.8239,67.72936 -1.03322,8.66143 -1.34566,22.97991 -0.75064,34.40087 0.50057,9.60835 1.05773,13.14454 1.92388,12.21058 0.22053,-0.23779 0.7634,-2.98996 1.20638,-6.11593 2.78778,-19.67236 13.90589,-46.09953 27.29867,-64.88756 4.21723,-5.91613 8.44386,-10.81556 15.48125,-17.9456 18.29564,-18.53649 38.67829,-32.56241 54.9192,-37.79159 l 4.41342,-1.42101 16.91749,16.58605 c 9.30461,9.12232 19.15539,18.8586 21.89062,21.63616 l 4.97313,5.05013 -2.60498,-0.35317 c -4.60329,-0.62408 -20.73996,-0.32419 -27.17214,0.50497 -19.4917,2.51266 -42.66681,11.39135 -60.26827,23.08957 -19.77327,13.14164 -34.25699,29.2388 -43.9998,48.9012 -3.88849,7.84755 -6.27674,14.44869 -9.49875,26.25461 -2.716,9.95184 -2.57788,9.50936 -2.95862,9.47781 -0.17782,-0.0147 -3.52033,-1.14089 -7.42779,-2.50257 z"
     id="path224"
     transform="scale(0.74999998)" />
</svg>
