<svg xmlns="http://www.w3.org/2000/svg" width="400" height="400" version="1.0" viewBox="0 0 300 300"><path d="M27.5 150v122h245V28h-245v122zM128 89c2.1 1.6 4.1 3 4.5 3 .5 0 2.3 1.1 4.1 2.5 1.8 1.4 3.6 2.5 3.9 2.5.4 0 2 1.1 3.7 2.5 1.6 1.4 3.6 2.5 4.4 2.5.8 0 1.4.3 1.4.8 0 .4 2.1 1.9 4.8 3.2 2.6 1.4 6.3 3.7 8.3 5.2 2 1.6 4 2.8 4.4 2.8.4 0 2.4 1.3 4.4 2.8 2 1.5 4.7 3.3 6.1 4 1.4.7 4.3 2.3 6.5 3.7 2.2 1.3 4.8 2.7 5.8 3.1.9.3 1.7 1 1.7 1.5s.6.9 1.3.9c.8 0 2.4 1.1 3.7 2.5 1.3 1.4 3 2.5 3.8 2.5.8 0 2.9 1 4.6 2.3 1.7 1.2 4.2 2.8 5.6 3.5 3.4 1.6 6.4 3.5 7.1 4.5.7 1 4.1 3 8.6 5.2 1.7.8 3.4 1.9 3.7 2.4.3.5 2.5 1.8 4.8 3 6.7 3.4 9 4.8 9.7 5.9.3.6 2.7 2.1 5.3 3.5 2.6 1.4 5.9 3.4 7.5 4.4 1.5 1.1 3.6 2.3 4.6 2.6.9.4 1.7 1.3 1.7 2 0 1.1-1.5 1.3-7.2.9-4-.2-7.7-.8-8.3-1.2-.5-.4-5.5-1.1-11-1.5-5.5-.4-10.4-1.1-11-1.5-.5-.4-5.7-1.1-11.5-1.5-5.8-.4-11-1.1-11.5-1.6-.6-.4-10.2-1.3-21.4-1.8-11.2-.6-20.9-1.5-21.5-2-.6-.5-6.2-1.2-12.3-1.6-6.2-.4-11.3-1.1-11.3-1.5 0-.4-2.7-1-6-1.2-4.7-.3-6.4-.9-8.2-2.9-4.8-5.2-8-4-3.8 1.4 1.1 1.4 2 3 2 3.6 0 .6.4 1.1.8 1.1s1.3 1.2 2 2.7c.6 1.6 2.3 4.6 3.7 6.8 1.3 2.2 2.7 4.8 3.1 5.7.3 1 1 1.8 1.4 1.8.5 0 1.1 1.3 1.5 3 .4 1.6 1 3 1.5 3 .4 0 1.1 1.1 1.4 2.5.4 1.4 1.5 3.4 2.5 4.4.9.9 3.3 4.9 5.2 8.7 3 6.1 4 7.3 8.1 9.2 2.6 1.2 5.4 2.2 6.3 2.2.8 0 1.5.4 1.5.9s1.2 1.2 2.7 1.6c1.5.3 3 1 3.3 1.3.8 1.1 7 4.2 8.3 4.2.7 0 3.5 1.1 6.2 2.5 2.8 1.3 5.8 2.5 6.7 2.5.9 0 1.8.3 2 .7.2.5 2.4 1.8 5.1 3.1 2.6 1.3 4.7 2.8 4.7 3.3s-29.6.9-75.5.9c-69 0-75.6-.1-76.2-1.6-.3-.9-.1-2.4.5-3.4s1.4-3.4 1.7-5.4c.4-2 1.1-3.9 1.6-4.2.5-.3.9-1.2.9-2.1 0-.9.6-2.4 1.4-3.2 1-1.2 1.5-7.8 2.1-28.2l.7-26.6-3.5-1.6c-1.9-1-4.9-1.7-6.6-1.7-1.7 0-3.1-.4-3.1-.9s-.9-1.1-2-1.4c-1.7-.4-2-1.4-2-5.9 0-3-.5-5.9-1.1-6.5-.7-.7-.7-1.7-.2-2.9.6-1.1 1.7-3.3 2.5-5.1 1.2-2.3 1.3-3.4.5-4.2-.9-.9-.9-1.4-.1-1.9.6-.4 1.4-2 1.8-3.6.4-1.6 2.7-5.3 5.2-8.1 2.4-2.9 4.4-5.6 4.4-6.1 0-1.9 10.6-11.3 13.5-12 1.7-.4 3.3-1.1 3.6-1.6.9-1.4 8.1-1.4 8.6-.1.3.7-.1 1.3-.8 1.3-1.7 0-5.9 4-5.9 5.7 0 .7-.4 1.3-.9 1.3s-1.2 1.3-1.6 3c-.4 1.6-1.1 3-1.6 3-.6 0-.9 1.2-.7 2.7.4 3.9 3.9 5.3 13.3 5.3h8l16.5-16c9.1-8.7 17.3-15.9 18.4-16 1 0 3.5 1.3 5.6 3zm25.7.2c1.8 1.8 3.3 3.8 3.3 4.5 0 .7.5 1.3 1.2 1.3 1.7 0 7.8 6.1 7.8 7.7 0 .8.8 1.6 1.8 2 .9.3 2.5 1.3 3.5 2.1 3.6 3.2 1.4 2.8-5.5-.9-4-2.1-8.4-4.4-9.8-5.1-1.4-.7-2.7-1.5-3-1.8-1.4-1.4-7.1-5-8-5-.5 0-1-.5-1-1 0-.6-.7-1-1.5-1-2.7 0-1.6-1.9 2.3-3.9 5-2.6 5.1-2.5 8.9 1.1zM91 99.8c0 1.1-3 3.7-5.2 4.5-1 .4-1.8 1.2-1.8 2 0 .7-1.7 3-3.8 5-3.4 3.4-4.2 3.7-6.5 2.8-5.5-2.1-2.2-7.8 7.8-13.8 2.3-1.4 9.5-1.7 9.5-.5zm98.5 73.2c5 .5 12.5 1 16.7 1 4.2 0 7.9.4 8.2.9.3.5 5.3 1.2 11.1 1.6 5.8.4 10.8 1.1 11.1 1.6.3.5 1.6.9 2.9.9 1.3 0 3 .7 3.7 1.6.7 1 5.6 6.2 10.9 11.8 5.3 5.6 10 11 10.4 12.1 1.4 3.4 1.5 5.4.5 6-.6.3-1 .1-1-.4 0-.6-.8-1.1-1.7-1.1-1 0-3-.6-4.5-1.4-1.5-.8-4.2-1.7-6-2.1-1.8-.4-4.4-1.6-5.7-2.6-1.3-1.1-2.9-1.9-3.5-1.9-.6 0-3.6-1.2-6.6-2.6-9.8-4.6-11.5-5.3-14.2-6-1.6-.3-2.8-1-2.8-1.5s-.3-.8-.7-.7c-.5.1-3.2-1-6.1-2.5-3-1.5-6.5-2.7-7.8-2.7-1.3 0-2.4-.4-2.4-.9s-1.3-1.2-3-1.6c-1.6-.4-3-1-3-1.4 0-.4-1.9-1.4-4.2-2.1-2.4-.7-4.7-1.7-5.2-2.2-.6-.4-1.6-.8-2.4-.8-2.2 0-8.2-3.1-8.2-4.2 0-.6 1-.8 2.3-.4 1.2.3 6.3 1 11.2 1.6zm74.5 80v14H154.8c-100.2 0-109.3-.1-111-1.7-1-.9-1.8-2.2-1.8-3 0-.7-.4-1.3-1-1.3-.5 0-1-.8-1-1.8 0-.9-.7-3-1.5-4.6-.8-1.5-1.5-3.6-1.5-4.6 0-1-.7-2.3-1.5-3-.8-.7-1.2-1.6-.9-2.1.3-.5 0-.9-.5-.9-.6 0-1.1-.7-1.1-1.5 0-1.3 11.2-1.5 94.5-1.5 62.3 0 94.5-.3 94.5-1 0-.6 7.7-1 21-1h21v14z"/><path d="M71.642 311.11c-3.776-.218-7.202-.606-7.612-.863-1.002-.626-.944-3.059.122-5.12.477-.923 1.323-3.529 1.88-5.79.556-2.262 1.643-5.211 2.415-6.554.772-1.342 1.404-2.922 1.404-3.511 0-.59.529-1.928 1.176-2.974 1.99-3.22 2.346-8.801 3.935-61.563l.378-12.58-3.49-1.547c-4.407-1.954-7.664-2.84-10.46-2.843a6.023 6.023 0 0 1-3.882-1.415c-.928-.776-2.291-1.6-3.029-1.83-1.548-.485-1.748-1.208-2.233-8.102-.196-2.791-.781-6.294-1.3-7.784-.936-2.694-.931-2.73.99-6.536 3.24-6.418 3.756-8.317 2.7-9.93-.83-1.267-.785-1.545.59-3.57.82-1.209 1.49-2.656 1.49-3.216 0-1.315 3.724-7.06 8.342-12.872 2.003-2.52 4.143-5.561 4.755-6.756 1.891-3.694 15.311-15.605 17.581-15.605.383 0 2.301-.797 4.263-1.772 3.726-1.852 7.308-2.287 10.095-1.228 2.073.788 1.926 1.424-.533 2.313-2.346.848-6.89 5.675-6.89 7.317 0 .6-.519 1.367-1.152 1.705-.66.354-1.54 1.954-2.065 3.753-.503 1.725-1.462 3.604-2.132 4.175-1.429 1.218-1.553 3.273-.37 6.105 1.585 3.795 6.643 5.095 19.818 5.095h8.507l12.694-12.314c20.316-19.706 31.978-30.073 33.833-30.074 1.214 0 4.154 1.672 8.517 4.845 2.205 1.604 4.242 2.916 4.527 2.916.54 0 8.642 5.263 14.837 9.638 1.97 1.392 4.453 2.833 5.518 3.203 1.065.37 2.542 1.233 3.284 1.918.741.684 4.034 2.78 7.318 4.659 3.283 1.878 7.731 4.712 9.884 6.298 2.153 1.585 4.616 3.15 5.474 3.475.857.326 3.439 1.935 5.737 3.574 4.402 3.142 16.98 10.578 23.158 13.692 2.01 1.013 3.813 2.25 4.004 2.749.191.498 1.232 1.277 2.314 1.73 1.081.453 3.392 2.043 5.134 3.533 1.743 1.49 3.966 2.868 4.941 3.063.975.195 3.31 1.398 5.19 2.674 1.88 1.276 5.97 3.736 9.09 5.467 3.118 1.73 6.835 4.172 8.259 5.424 1.423 1.253 5.19 3.614 8.368 5.247 3.18 1.633 6.85 3.82 8.159 4.86 1.307 1.04 5.458 3.53 9.223 5.536 3.766 2.006 7.823 4.53 9.017 5.608 1.896 1.713 12.483 8.223 21.833 13.426 3.537 1.968 4.679 3.132 4.058 4.137-.652 1.055-13.854.288-20.008-1.163-2.766-.652-9.655-1.623-15.308-2.158-5.653-.535-11.785-1.366-13.627-1.845-1.842-.48-8.947-1.406-15.79-2.058-6.842-.652-13.118-1.442-13.946-1.757-2.15-.818-11.528-1.698-29.045-2.727-16.894-.992-26.253-1.858-28.955-2.68-2.162-.656-9.497-1.59-16.418-2.09-7.675-.554-14.54-1.522-15.307-2.158-.377-.313-3.809-.957-7.627-1.43-7.899-.98-8.596-1.253-12.29-4.805-3.982-3.83-7.179-4.66-7.151-1.856.007.712 1.216 3.151 2.686 5.421 1.47 2.27 2.674 4.377 2.674 4.68 0 .305.524 1 1.165 1.545.641.545 2.07 2.737 3.175 4.872 4.333 8.37 9.66 17.454 10.404 17.74.43.164 1.207 1.758 1.725 3.54.518 1.783 1.45 3.715 2.072 4.294.62.579 1.507 2.123 1.969 3.431.461 1.309 2.322 4.558 4.136 7.221 1.813 2.663 4.68 7.535 6.371 10.827 1.958 3.812 3.99 6.83 5.596 8.31 2.473 2.28 10.52 6.13 12.81 6.13.632 0 1.864.661 2.737 1.47.873.81 2.592 1.748 3.819 2.085 1.226.336 3.036 1.166 4.021 1.843 2.899 1.992 8.201 4.582 10.83 5.29 1.343.361 4.79 1.742 7.66 3.068 2.869 1.325 6.665 2.787 8.434 3.248 1.769.46 4.091 1.495 5.161 2.297 1.07.803 3.422 2.2 5.228 3.104 1.806.905 3.91 2.054 4.674 2.554 1.31.858 1.327.947.299 1.549-1.23.718-179.894 1.111-191.838.422zM221.167 140.836c-11.476-5.854-15.66-8.216-18.897-10.665-1.673-1.267-4.49-3.036-6.262-3.932-1.77-.896-3.487-2.129-3.814-2.74-.333-.622-1.242-1.11-2.066-1.11-3.653 0 .522-3.93 6.738-6.343 2.519-.977 2.554-.973 4.913.662 2.71 1.878 6.287 6.028 7.148 8.292.33.87 1.443 1.893 2.57 2.363 2.66 1.112 7.86 6.254 9.207 9.107.646 1.367 1.96 2.793 3.239 3.513 3.31 1.863 6.35 4.434 5.284 4.467-.508.015-4.135-1.61-8.06-3.614z" style="fill:#fff;stroke-width:.597015" transform="scale(.75)"/><path d="M96.636 150.55c-2.229-1.992-2.118-3.313.593-7.056 1.84-2.54 8.51-7.858 12.025-9.587 2.799-1.377 11.343-1.866 11.343-.65 0 1.162-2.787 3.677-5.68 5.125-1.676.84-2.707 1.905-3.432 3.55-.57 1.292-2.892 4.14-5.158 6.328-4.818 4.65-6.582 5.068-9.691 2.29zM351.78 279.403c-.414-.664-1.392-1.194-2.202-1.194-.801 0-3.821-.938-6.711-2.083-2.89-1.146-6.337-2.35-7.66-2.674-1.322-.325-4.224-1.688-6.447-3.029-2.223-1.34-5.171-2.784-6.55-3.207-1.38-.423-6.941-2.798-12.36-5.279-5.417-2.48-11.392-4.956-13.276-5.502-1.884-.546-3.656-1.405-3.938-1.91-.282-.503-1.83-1.392-3.44-1.976-1.61-.583-5.096-2.031-7.747-3.218-2.65-1.187-6.248-2.429-7.994-2.76-1.746-.33-3.473-1-3.837-1.486-.365-.486-2.215-1.415-4.112-2.063-1.896-.647-3.84-1.569-4.317-2.046-.478-.478-2.15-1.333-3.715-1.9-1.566-.568-4.325-1.693-6.13-2.501-1.807-.807-4.93-1.934-6.94-2.502-3.888-1.1-9.18-3.893-9.18-4.844 0-.733-.448-.763 8.955.592 9.435 1.36 22.429 2.401 30.448 2.441 5.392.027 7.337.286 12.836 1.71 1.313.34 6.955 1.048 12.537 1.574 10.056.948 12.654 1.366 16.12 2.596.984.35 2.766.783 3.958.962 1.894.285 3.56 1.812 13.208 12.104 15.214 16.229 18.635 20.363 19.832 23.966 1.365 4.111.432 7.063-1.338 4.229zM79.701 355.207c-10.422-.234-18.564-.67-19.473-1.043-1.821-.748-4.109-3.446-4.109-4.847 0-.534-.537-1.306-1.194-1.716-.656-.41-1.2-1.348-1.208-2.084-.008-.736-.705-2.95-1.549-4.92-.844-1.97-1.896-5.024-2.336-6.787-.441-1.763-1.356-3.796-2.033-4.517-.678-.72-1.232-1.888-1.232-2.594s-.566-1.587-1.258-1.957c-4.824-2.582 4.052-2.854 96.482-2.954 94.587-.103 152.518-.763 155.522-1.771 1.405-.472 10.651-.813 28.21-1.042l26.119-.341v37.187l-127.015-.107c-69.858-.058-135.075-.287-144.926-.507z" style="fill:#fff;stroke-width:.597015" transform="scale(.75)"/></svg>