<svg xmlns="http://www.w3.org/2000/svg" width="317" height="317" version="1.0" viewBox="0 0 238 238"><path d="M62 61 4 119l58 57 58 58 58-58 58-58-58-57-58-58-58 58zm62 12a1389 1389 0 0 0 51 30l11 7-11-1a961 961 0 0 0-64-7l-9-2-3-1 9 16 9 15 12 5 17 8a638 638 0 0 1-89 0l2-7c1-4 2-9 2-19 1-15 1-17-3-17s-6-2-7-7l1-5 1-4c0-4 9-15 15-18 5-2 6-2 6 0l-1 1c-1 0-5 6-5 8s5 4 10 3c3 0 5-2 12-8l9-8 2-2 23 13zm0-7c7 7 6 7-4 1-7-4-7-4-6-6l4-1 7 6zm-42 2c0 2-8 8-9 8-3-1-2-4 1-6 4-3 8-4 8-2zm68 42c22 2 22 2 30 10 6 6 9 10 6 10l-10-4-6-3a287 287 0 0 0-34-15h2l12 2zm36 45v7l-64 1H57c-2-1-6-7-6-9l-1-3-2-2 57-1 69-1h12v8z"/><path d="m87 191-9-1c-2 0-2-2 0-7 3-10 4-17 4-34 0-13 0-14-2-15l-3-1c-3 0-6-2-7-4-2-3-2-10 0-12l1-5 1-4c3-5 9-13 14-16l12-6c1 0 1 2-1 3-3 3-7 9-6 12 1 4 12 5 18 2l18-15 8-7a740 740 0 0 1 69 39c3 3 10 6 15 9a2096 2096 0 0 0 17 10l11 7 1 1h-3l-18-2a1277 1277 0 0 0-85-10l-6-2c-3-2-4-2-4-1l15 26 9 15 16 7 22 10-3 1H87z" style="fill:#fff;stroke-width:.473632" transform="scale(.75)"/><path d="M96 100c-1-1-1-3 1-4 2-3 10-7 11-6 2 0 1 1-2 4-2 3-8 7-9 7l-1-1zm69-8-13-8 3-3c2-1 2-1 5 2l11 11c0 1-1 1-6-2zm76 79-7-3-9-4a756 756 0 0 1-39-19l16 2c20 2 24 3 29 5l8 8 10 12c0 1-2 1-8-1zM77 217l-4-2-5-9-2-6-2-1c1-1 39-2 104-2l75-1h5l-1 10v10l-170 1z" style="fill:#fff;stroke-width:.473632" transform="scale(.75)"/></svg>