<svg xmlns="http://www.w3.org/2000/svg" width="317.333" height="317.333" version="1.0" viewBox="0 0 238 238"><path d="M61.7 60.8 4 118.5l57.8 57.8 57.7 57.7 58-58 58-58L178 60.5C146.4 28.9 120.3 3 120 3c-.3 0-26.5 26-58.3 57.8zm62.4 12.4c12.1 7.3 24.6 14.7 27.7 16.4 3.1 1.6 8 4.4 10.7 6.1 2.8 1.7 8.6 5.1 13 7.6 11 6.4 11.1 6.4 10.5 7-.3.3-5.3 0-11-.8-14.6-2-36.2-4.4-44.5-5-3.8-.2-8.3-.6-10-.9-1.6-.2-5.9-.7-9.5-1.1-3.8-.4-7.6-1.5-9.2-2.7-1.6-1.1-2.8-1.5-2.8-.9s4 7.7 9 15.9l9 14.8 12.2 5.3c16 6.9 16.8 7.3 16.8 8.3 0 .4-19.8.8-44 .8-38.4 0-44.1-.2-44.6-1.5-.4-.8.3-3.9 1.4-6.8 1.5-3.9 2.2-8.7 2.7-19 .7-14.8.3-16.7-3.9-16.7-3.9 0-6-2.4-6.3-7.3-.2-2.5.1-4.9.7-5.2.5-.3 1-1.9 1-3.5 0-4.1 9.1-14.8 15-17.7 5.4-2.7 6-2.7 6-.8 0 .8-.5 1.5-1 1.5-1.3 0-5 6-5 8.2 0 2.2 4.6 3.5 9.7 2.8 3.3-.5 5.7-2 12.1-7.8 4.3-3.9 8.5-7.8 9.2-8.7.7-.8 1.6-1.5 2.1-1.5s10.8 6 23 13.2zm.4-7.1c6.6 6.8 5.8 6.9-4.7.8-6.6-3.9-7-4.3-5.3-5.5 1-.8 2.4-1.4 3-1.4.6 0 3.7 2.8 7 6.1zM82 67.8c0 1.8-7.9 8.4-9.4 7.9-2.4-1-1.9-3.3 1.2-5.3 4.6-3.2 8.2-4.3 8.2-2.6zm68.3 42.2c21.4 1.9 21.4 1.9 29.5 10 6.4 6.3 8.8 10 6.5 10-1.3 0-9.7-3.1-10.8-3.9-.5-.4-3.2-1.6-6-2.6-2.7-1-7.4-2.9-10.4-4.2-6-2.7-12.9-5.3-22.9-8.8-.7-.3-1-1-.7-1.6.4-.6 1.4-.8 2.2-.5.8.4 6.5 1.1 12.6 1.6zm35.5 44.7-.3 7.8-63.5.3c-34.9.1-64.4 0-65.5-.2-2-.5-5.5-6.2-5.5-9 0-.8-.7-1.9-1.5-2.6-.8-.7-1.5-1.6-1.5-2.1s25.5-1 56.8-1.2c31.2-.1 62.2-.3 69-.5l12.3-.2-.3 7.7z"/><path d="M86.674 191.385c-4.492-.202-8.268-.594-8.88-.922-1.45-.775-1.379-2.387.337-7.754 3.145-9.837 3.979-16.895 4.017-34.03.03-13.033-.13-14.02-2.415-15.063-.635-.289-1.93-.525-2.877-.525-2.704 0-5.468-1.596-6.77-3.908-1.631-2.894-1.962-9.99-.573-12.287.52-.862 1.171-2.88 1.445-4.485.274-1.605.916-3.736 1.427-4.736 2.374-4.65 9.11-12.402 13.99-16.101 3.336-2.529 10.46-6.048 11.463-5.663 1.203.462.722 2.038-1.031 3.375-3.289 2.508-6.818 9.169-6.188 11.678.934 3.72 11.901 4.682 18.032 1.58 3.242-1.64 8.857-6.331 17.89-14.947 4.082-3.894 7.779-7.08 8.214-7.08.915 0 17.313 9.446 43.54 25.08 10.085 6.012 21.463 12.672 25.285 14.8 3.822 2.127 10.573 6.018 15.001 8.646a2095.975 2095.975 0 0 0 17.344 10.147c5.11 2.953 9.906 5.872 10.656 6.486l1.365 1.116-2.98.017c-1.638.009-9.63-.827-17.76-1.858-19.723-2.503-38.323-4.56-49.594-5.485-14.035-1.152-33.075-3.41-35.996-4.267-1.433-.421-3.944-1.494-5.582-2.384-3.096-1.684-4.364-1.998-4.364-1.08 0 .895 5.604 10.695 15.096 26.398l8.982 14.859 16.023 6.972c17.231 7.498 22.418 9.917 22.418 10.454 0 .188-1.332.469-2.96.624-4.605.44-95.782.739-104.555.343z" style="fill:#fff;stroke-width:.473632" transform="scale(.75)"/><path d="M95.984 100.017c-1.165-1.287-.956-2.678.642-4.276 2.82-2.82 10.171-6.601 11.696-6.016 1.2.46.574 1.725-2.258 4.557-2.526 2.527-8.063 6.602-8.97 6.602-.18 0-.679-.39-1.11-.867zM164.613 91.592c-7.378-4.102-12.075-7.132-12.41-8.006-.308-.803 1.325-2.325 3.236-3.013 1.152-.415 1.597-.18 4.736 2.5 3.622 3.091 10.806 10.577 10.806 11.258 0 .717-.68.425-6.368-2.739zM240.887 170.733c-3.1-1.159-6.151-2.443-6.779-2.854-.628-.412-4.91-2.244-9.518-4.073-4.607-1.829-11.148-4.507-14.534-5.953-5.089-2.172-14.082-5.611-27.116-10.37-1.356-.496-2.013-1.015-2.013-1.593 0-1.288 1.054-1.456 4.6-.735 1.769.36 9.183 1.21 16.477 1.89 19.571 1.827 23.884 2.63 28.655 5.34 1.172.667 5.148 4.23 8.834 7.92 6.224 6.23 9.637 10.463 9.637 11.953 0 1.093-2.443.641-8.243-1.525zM76.798 216.523c-2.105-.287-2.765-.624-3.89-1.985-1.946-2.353-4.096-6.54-4.49-8.745-.438-2.445-.95-3.446-2.726-5.321-.798-.843-1.339-1.644-1.203-1.78.615-.615 38.331-1.218 103.129-1.65 38.71-.257 72.597-.609 75.304-.782l4.922-.315-.348 10.134c-.192 5.574-.407 10.194-.478 10.268-.304.315-167.924.488-170.22.176z" style="fill:#fff;stroke-width:.473632" transform="scale(.75)"/></svg>