<svg xmlns="http://www.w3.org/2000/svg" width="400" height="400" version="1.0" viewBox="0 0 300 300"><path d="M28 150v122h245V28H28v122zm100-61 5 3 4 3 3 2 4 3 5 2 1 1 5 3 8 5 5 3 4 3 6 4 7 3 5 4 2 1 1 1 4 3 4 2 4 2 6 4 7 4 9 6 3 2 5 3c7 3 9 5 10 6l5 3a155 155 0 0 1 14 9c0 1-1 2-7 1l-8-1-11-1-11-2-12-1-11-2-22-2c-11 0-21-1-21-2l-13-1-11-2-6-1c-5 0-6-1-8-3-5-5-8-4-4 1l2 4 1 1 2 3 4 7 3 5 1 2 2 3 1 3 1 3 3 4 5 9c3 6 4 7 8 9l7 2 1 1 3 2 3 1 8 4 7 3 6 2 2 1 5 3 5 3-75 1c-69 0-76 0-77-2l1-3 1-5 2-5 1-2 1-3c1-1 2-8 2-28l1-27-3-1-7-2-3-1-2-1c-2-1-2-2-2-6l-1-7v-3l2-5 1-4v-2l1-3c1-2 3-6 6-8l4-7 13-12 4-1c1-2 8-2 9 0l-1 1c-2 0-6 4-6 6l-1 1-2 3-1 3-1 3c1 4 4 5 13 5h8l17-16 18-16 6 3zm26 0 3 5 1 1c2 0 8 6 8 8l2 2 3 2a938 938 0 0 0-29-15c-2 0-1-2 3-4 5-3 5-2 9 1zm-63 11-5 4-2 2-4 5c-3 4-4 4-6 3-6-2-2-8 8-14h9zm99 73a207 207 0 0 0 24 2l11 2 12 1 2 1 4 2a303 303 0 0 0 21 24c2 3 2 5 1 6l-1-1-2-1-4-1-6-3-6-2-3-2-7-3-14-6-3-1-1-1-6-2-8-3-2-1-3-1-3-2-4-2-5-2-3-1-8-4 2-1 12 2zm74 80v14H155c-100 0-109 0-111-2l-2-3-1-1-1-2-1-4-2-5-1-3-1-2-1-1-1-1c0-2 11-2 95-2a1656 1656 0 0 0 115-2h21v14z"/><path d="m72 311-8-1v-5l2-6 2-6 2-4 1-3c2-3 2-9 4-61v-13l-3-1-11-3a6 6 0 0 1-3-2l-4-1-2-9-1-7c-1-3-1-3 1-7 3-6 4-8 3-10v-3l2-4c0-1 3-7 8-12l5-7c2-4 15-16 17-16l5-2c3-1 7-2 10-1 2 1 2 2-1 2-2 1-7 6-7 8l-1 1-2 4-2 4c-1 2-2 4 0 7 1 3 6 5 19 5h9l13-13 33-30 9 5 5 3a161 161 0 0 1 20 13l3 2 7 4a126 126 0 0 1 16 10l6 4a260 260 0 0 0 29 18l5 3 5 4 5 2 9 6c4 1 7 4 9 5l8 5 8 5 9 6 9 5 22 14c4 2 5 3 4 4l-20-1-15-2-14-2-15-2-14-2-29-3-29-2-17-3-15-2-8-1c-8-1-8-1-12-5s-7-5-7-2l3 6 2 4 1 2 4 5 10 17 2 4 2 4 2 4 4 7c2 3 5 7 6 11l6 8c2 2 10 6 13 6l2 2 4 2 4 2 11 5 8 3 8 3 5 2 6 4 4 2c1 1 2 1 0 2H72zm149-170a131 131 0 0 1-25-15l-4-3-2-1c-4 0 1-4 7-6 2-1 2-1 5 1l7 8 2 2c3 1 8 7 10 9 0 2 2 3 3 4l5 4-8-3z" style="fill:#fff;stroke-width:.597015" transform="scale(.75)"/><path d="M97 151c-3-2-2-4 0-8l12-9 12-1c0 1-3 4-6 5l-4 4c0 1-2 4-5 6-4 5-6 5-9 3zm255 128-2-1-7-2-8-3-6-3-7-3-12-5a152 152 0 0 0-17-7l-4-2-8-4-8-2-3-2-4-2-5-2-4-2-6-2-7-3-9-5 9 1 31 2 12 2 13 2c10 0 13 1 16 2l4 1c2 0 4 2 13 12 16 16 19 21 20 24 1 4 1 7-1 4zM80 355l-20-1c-2-1-4-3-4-5l-1-1-1-2-2-5-2-7-2-5-1-2-2-2c-5-3 4-3 97-3a3333 3333 0 0 0 184-3h26v37H225l-145-1z" style="fill:#fff;stroke-width:.597015" transform="scale(.75)"/></svg>