<svg xmlns="http://www.w3.org/2000/svg" width="400" height="400" version="1.0" viewBox="0 0 300 300"><path d="M139 1c-29 3-49 10-71 25l-8 5v32H30l-3 5a150 150 0 0 0 2 164l5 8h26v26l8 5c17 11 35 19 54 23 15 3 44 3 59 0 17-4 36-11 51-21l5-3v-30h32l5-8c12-18 20-38 24-58 2-13 2-38 0-52-3-17-13-41-22-55l-3-4h-36V27l-5-3a159 159 0 0 0-93-23zm52 17c12 4 22 8 29 13l6 3v40h40l3 6c5 7 9 17 13 29l3 9 1 27-1 35c-4 14-11 31-19 43l-3 5-19 1h-18v35l-7 4c-21 12-43 17-67 17-28 0-52-7-75-21l-6-4v-31H41l-4-5c-9-15-17-35-21-53-2-11-2-34 0-45 3-13 7-27 14-40l6-12h35V38l6-4c11-7 27-15 41-18 7-2 11-2 36-2l28 1 9 3z"/><path d="M117 42c-19 5-32 21-34 43-1 5 0 6 3 6 2-1 2-1 4-8 3-18 14-32 29-35 6-1 12 0 17 4 5 3 9 13 9 20 0 11 1 10-31 42-23 24-30 30-32 30l-4 1-9 3c-15 3-24 10-28 22-3 13 7 31 22 40 11 7 29 9 29 4 0-2-3-4-7-4-9 0-20-5-27-13-10-10-13-24-7-32 4-5 10-9 17-10 6-1 6-1 8 1s3 2 6 2l4-1 29 29 30 33 3 11c3 19 17 31 33 28s30-17 35-35c2-8 2-14-1-15-3-2-5 1-5 8-1 12-8 23-18 30-18 12-33 5-38-17-1-7-1-7 1-9l2-4a656 656 0 0 1 63-60c1-1 4-3 10-4 16-2 25-9 29-22 3-14-9-34-25-42-14-6-28-7-25-1 0 2 2 3 9 3 13 2 26 12 31 23 4 8 4 17 0 22s-11 9-20 11h-10a609 609 0 0 1-61-64c0-3 0-4-2-6-2-1-3-3-4-9-2-8-5-14-10-19-6-6-16-9-25-6zm62 76c28 27 30 29 29 32 0 3-4 8-27 31-26 25-28 27-31 27s-5-2-32-29l-29-29 30-30 31-31 30 29z"/><path d="M144 139c-12 8-7 26 7 26 9 0 15-7 14-16-1-10-13-15-21-10z"/><path d="M196 275c-4-2-17-15-49-46l-28-29 40-40 41-41 74 74c3 5 4 6 2 9-1 4-7 10-30 33-23 24-39 39-42 41-4 1-5 1-8-1zm13-56c4-2 7-5 9-9l2-8c0-8-3-14-10-17-3-2-4-2-9-2l-8 1c-6 4-10 9-10 16-1 9 4 16 12 19 4 2 11 1 14 0z" style="fill:#fff;stroke-width:.597015" transform="scale(.75)"/><path d="M192 380a180 180 0 0 1-89-29l-8-5v-41H54l-4-7c-14-21-25-51-29-75a263 263 0 0 1 4-67c4-15 8-27 18-45l6-12h46V51l6-4c18-12 41-22 60-26 6-2 7-2 43-1h37l10 3c19 6 31 11 44 19l6 4v53h53l4 6c8 13 13 25 19 44l3 10v37c1 36 1 37-1 43-4 18-14 42-25 59l-4 6-25 1h-24v46l-9 5a183 183 0 0 1-100 24zm49-36c10-2 22-8 30-16 11-12 18-28 18-42l-1-8c-1-1-2-2-4-1-2 0-4 3-5 10-1 12-4 20-10 28-9 12-23 20-35 20s-21-8-26-23l-3-15 2-3 3-5c1-3 11-13 36-39a295 295 0 0 1 47-42c2-2 6-3 17-5 10-2 18-6 24-11 4-3 8-10 10-16 2-5 2-6 2-12l-2-11c-5-13-14-24-25-31-13-9-32-14-39-10-2 0-2 1-2 3 0 3 1 4 11 6 10 1 16 3 24 9 9 5 14 12 18 19s5 12 4 19c0 4 0 6-2 9-4 8-14 14-29 17-7 2-9 1-11 0l-14-12-66-66c-2-3-2-3-2-7 0-5 0-5-3-7-3-4-4-6-6-13-3-12-7-20-13-26-7-6-14-9-24-9-12 0-27 7-37 17l-11 16c-4 8-7 21-7 29 0 4 1 5 4 5s4-1 6-11c2-11 6-19 11-26 7-10 15-16 26-19 8-2 17-1 24 4 7 6 13 20 12 32 0 6-2 10-7 15a1604 1604 0 0 1-78 76l-6 2-11 3c-16 4-24 8-30 17-5 6-7 13-7 20s1 12 5 19c9 20 27 33 50 36 6 1 11 0 13-2l1-3c-1-2-5-4-11-4-21-2-42-18-47-38v-9c0-5 0-7 2-10 3-7 12-13 23-16h10l3 3h11l28 29c32 31 42 42 48 49 4 5 4 6 7 18 1 8 3 12 5 17 5 10 13 17 23 20 6 2 10 2 16 1z" style="fill:#fff;stroke-width:.597015" transform="scale(.75)"/></svg>