<svg xmlns="http://www.w3.org/2000/svg" width="400" height="400" version="1.0" viewBox="0 0 300 300"><path d="M139 .6c-28.9 3.5-48.9 10.6-70.7 25.1L60 31.1V63H30l-3.4 5.2C17.3 82.8 9.9 101.4 5.9 120c-3.3 15.1-3.3 41.9 0 57 4.4 20.6 11.6 37.8 22.8 54.7l5.4 8.3H60v25.9l8.3 5.4c16.5 11 34.9 18.8 54 22.9 14.7 3.2 43.7 3.2 58.4 0 17.5-3.8 36.6-11.6 51.1-20.8l5.2-3.4v-30h31.9l5.4-8.3c11.7-17.5 20.1-38.1 23.3-57.2 2.3-13.5 2.3-38.5 0-52-3-17.4-12.6-41.9-21.8-55.3l-2.9-4.2H237V27l-5.2-3.4C216.3 13.7 194.7 5.3 178 2.5 168.4.9 145.5-.2 139 .6zm52.3 17.2c11.9 4 21.2 8.1 28.9 12.8l5.8 3.5V74h39.9l3.5 5.8c4.7 7.7 8.8 17 12.8 28.9l3.2 9.8.4 26.9c.3 22.5.1 28.1-1.3 34.5-3.1 13.9-10.7 31.6-18.7 43.6l-3.3 5-18.3.3-18.2.2v34.6l-7.2 4.1c-21.3 12-42.7 17.6-67.3 17.6-27.2 0-51.2-7-74.2-21.5l-6.3-4V229H40.5l-3.5-5.3c-9.5-14.3-17.4-34.5-20.6-52.2-2-11.7-2-34.2 0-45.8 2.4-13.2 7.1-26.9 13.8-40L36.3 74H71V38.1l5.8-3.9C87.7 26.8 104.4 19.4 118 16c6.6-1.7 10.8-1.9 35.5-1.7l28 .3 9.8 3.2z"/><path d="M117.1 41.6c-19.3 5.2-31.9 21-34.4 43-.6 5.1.3 6.7 3.3 6.2 2.1-.3 2.5-1.2 3.7-8.1 3-17.7 14.6-31.3 29.8-34.7 5.7-1.3 11.5.1 16.4 3.7 4.7 3.6 9.3 13.7 9.3 20.5.1 11.1 1 9.9-31 42C90.9 137.6 84 144 82 144c-1.4 0-3.4.6-4.5 1.3-1.1.7-5.1 1.9-8.9 2.6-15 2.7-23.9 9.9-27.2 22.3C38.1 183 47.6 201 62.6 210c11.5 6.9 29.4 9.3 29.4 3.9 0-1.9-3.5-3.9-6.9-3.9-9.1 0-19.7-4.9-27.3-12.7-10-10.2-12.8-24.4-6.5-32.7 3.6-4.6 10-8.4 17.1-9.8 5.3-1.1 5.7-1.1 7.7 1.1 1.8 1.9 2.9 2.2 5.9 1.8l3.7-.5 28.9 29.2c16.3 16.4 29.7 30.6 30.6 32.6.8 1.9 2.1 6.9 2.7 11 3 19 17.2 31.2 32.6 28 16.6-3.5 30.4-17.1 35-34.7 2.1-8.2 2-14-.4-15.3-3.1-1.6-4.7 1-5.4 8.4-1.1 11.9-7.7 22.7-17.8 29.5-17.6 11.7-32.9 4.9-37.4-16.8-1.5-6.8-1.4-7.2.5-9.1 1.1-1.1 2-2.8 2-3.7 0-2.5 56-58.3 58.4-58.3 1.1 0 3-.9 4.2-2.1 1.5-1.4 4.9-2.6 10.4-3.5 16.4-2.9 25.2-9.8 28.6-22.6 3.6-13.9-8.1-33.8-24.6-41.5-13.8-6.5-27.7-7-25.4-.9.7 1.7 2 2.1 9.9 3 12.1 1.5 26 11.6 31 22.7 3.6 8.2 3.3 16.8-.8 22.3-3.9 5-10.3 8.4-19.3 10.3-7.2 1.4-7.9 1.4-10.8-.2-1.7-1-16.2-14.8-32.2-30.8-29.2-28.9-29.2-29-28.7-32.7.4-3.1.1-4-2-5.7-2-1.5-3-3.7-4.1-9-1.8-8.6-4.5-14.1-9.3-18.9-6.7-6.8-16.1-9.3-25.2-6.8zm62.4 76.4c27.2 27.3 29 29.2 28.7 32.2-.3 2.8-4.4 7.4-27.5 30.5-25.3 25.4-27.4 27.3-30.7 27.3-3.3 0-5.5-2-32.5-29l-29-29 30.5-30.5c16.8-16.8 30.7-30.5 31-30.5.3 0 13.6 13 29.5 29z"/><path d="M144.2 139c-12.4 7.6-7.5 26 6.9 26 8.8 0 14.6-6.7 13.6-15.8-1.1-9.7-12.2-15.2-20.5-10.2z"/><path d="M195.721 275.29c-4.147-2.631-17.094-15.057-48.557-46.604l-28.657-28.733 40.398-40.275c22.218-22.151 40.737-40.275 41.153-40.275 1.01 0 70.616 69.832 73.792 74.031 3.524 4.659 3.885 5.869 2.6 8.707-1.567 3.464-7.774 10.245-30.231 33.03-23.583 23.926-39.392 38.994-42.663 40.663-3.125 1.594-4.626 1.49-7.835-.545zm13.447-56.41c3.924-1.64 6.795-4.386 8.764-8.385 1.546-3.14 1.861-4.502 1.9-8.204.083-8.12-3.105-13.844-9.77-17.535-2.88-1.595-3.73-1.77-8.57-1.77-4.465 0-5.826.235-8.06 1.393-6.378 3.31-10.155 9.002-10.614 15.992-.59 8.989 3.858 15.935 12.095 18.891 3.595 1.291 10.708 1.1 14.255-.382z" style="fill:#fff;stroke-width:.597015" transform="scale(.75)"/><path d="M191.94 379.883c-7.059-.375-20.24-2.055-27.123-3.457-22.056-4.492-40.796-12.15-62.065-25.363l-7.827-4.862v-41.126H54.302l-4.466-6.793c-13.703-20.838-25.263-51.296-28.465-74.998-.497-3.676-.764-12.71-.761-25.672.006-22.319.505-27.293 4.163-41.471 4.015-15.564 8.558-27.142 17.753-45.245l5.99-11.792h46.409l.013-24.03.013-24.03 6.435-4.272c17.579-11.673 40.944-21.825 59.808-25.986 6.223-1.373 6.536-1.382 43.284-1.245l37.015.137 9.945 3.266c18.219 5.982 30.255 11.262 43.338 19.012l6.12 3.625V99.104h53.463l3.655 6.12c7.653 12.811 13.003 24.972 19.093 43.403l3.265 9.88.112 37.015c.112 36.621.098 37.082-1.26 43.284-3.954 18.047-14.37 42.464-25.2 59.073l-4.214 6.463-24.457.442-24.457.442v46.149l-8.806 4.887c-13.76 7.636-24.345 12.232-37.524 16.293-18.582 5.724-41.754 8.436-62.626 7.328zm49.13-35.747c10.405-2.121 21.473-8.28 29.522-16.426 11.362-11.498 18.551-27.76 18.629-42.137.03-5.652-.068-6.176-1.441-7.64-1.082-1.153-1.955-1.524-3.284-1.394-2.535.248-4.258 3.947-5.09 10.924-1.328 11.135-4.562 19.454-10.762 27.683-8.948 11.874-22.643 19.753-34.371 19.772-12.006.02-21.21-8.052-26.199-22.978-.974-2.913-3.298-13.42-3.298-14.909 0-.41.838-1.792 1.863-3.068 1.025-1.277 2.337-3.414 2.917-4.75 1.53-3.522 11.018-13.708 36.692-39.388 27.296-27.301 39.133-38.273 42.18-39.096 1.186-.32 3.178-1.393 4.425-2.385 2.49-1.978 6.552-3.3 17.039-5.546 10.471-2.243 18.393-5.78 24.259-10.831 3.89-3.35 8.291-10.412 10.096-16.2 1.424-4.566 1.545-5.687 1.27-11.75-.233-5.122-.672-7.744-1.859-11.114-4.447-12.625-13.27-23.948-24.376-31.286-12.934-8.545-32.32-13.402-39.586-9.92-1.529.733-1.786 1.19-1.786 3.172 0 3.47 1.542 4.281 10.813 5.685 10.34 1.565 16.663 3.94 24.411 9.168 8.415 5.677 14.209 11.912 18.203 19.59 3.246 6.238 4.377 11.375 4.031 18.297-.233 4.66-.57 6.119-2.169 9.364-4.117 8.363-14.536 14.516-29.337 17.323-6.384 1.211-8.515 1.17-11.2-.216-1.217-.629-7.184-5.84-13.259-11.58-17.443-16.484-63.442-62.455-66.177-66.136-2.37-3.19-2.48-3.529-2.48-7.638 0-4.25-.03-4.332-2.608-7.11-3.425-3.691-4.084-5.13-6-13.093-2.884-11.988-6.8-19.35-13.537-25.446-6.85-6.199-14.078-8.989-23.228-8.964-12.589.033-26.947 6.755-37.077 17.358-5.406 5.658-7.633 8.819-10.995 15.604-4.114 8.305-7.45 21.229-7.45 28.863 0 4.312.698 5.256 3.888 5.256 3.553 0 4.088-.93 6.216-10.809 2.54-11.798 5.692-19.44 10.93-26.504 7.086-9.557 15.457-15.606 26.053-18.824 8.071-2.452 17.12-.903 23.623 4.043 7.784 5.921 13.505 20.264 12.71 31.862-.404 5.903-2.062 9.597-6.943 15.464-5.236 6.296-41.3 43.04-56.826 57.897-14.274 13.66-18.309 16.964-21.423 17.55-1.139.213-3.747 1.059-5.795 1.878-2.049.82-7.17 2.272-11.38 3.228-15.935 3.618-24.172 8.31-30.278 17.246-4.158 6.085-6.28 12.753-6.29 19.767-.01 6.994 1.14 11.832 4.53 19.067 9.2 19.639 27.55 32.849 49.88 35.91 6.299.862 10.768.347 12.903-1.49 1.407-1.21 1.535-1.598 1.016-3.075-.934-2.655-4.428-4.246-10.388-4.731-21.641-1.761-41.921-18.113-46.95-37.855-.683-2.682-.908-5.514-.742-9.315.204-4.674.518-6.028 2.18-9.404 3.48-7.068 12.469-13.29 23.032-15.943 6.13-1.54 8.809-1.532 10.22.027.604.668 2.007 1.776 3.118 2.462 1.778 1.099 2.572 1.2 6.631.846l4.612-.402 28.072 28.538c31.17 31.684 41.603 42.532 47.178 49.048 4.191 4.899 4.734 6.29 7.107 18.215 1.614 8.11 2.91 12.258 5.347 17.108 5.19 10.33 13.04 17.411 22.694 20.469 5.738 1.817 9.838 1.986 16.294.67z" style="fill:#fff;stroke-width:.597015" transform="scale(.75)"/></svg>