<?xml version="1.0" standalone="no"?>
<!DOCTYPE svg PUBLIC "-//W3C//DTD SVG 20010904//EN"
 "http://www.w3.org/TR/2001/REC-SVG-20010904/DTD/svg10.dtd">
<svg version="1.0" xmlns="http://www.w3.org/2000/svg"
 width="286.000000pt" height="289.000000pt" viewBox="0 0 286.000000 289.000000"
 preserveAspectRatio="xMidYMid meet">
<metadata>
Created by potrace 1.16, written by Peter Selinger 2001-2019
</metadata>
<g transform="translate(0.000000,289.000000) scale(0.100000,-0.100000)"
fill="#000000" stroke="none">
<path d="M240 1450 l0 -1200 1200 0 1200 0 0 1200 0 1200 -1200 0 -1200 0 0
-1200z m1380 1125 c237 -39 450 -147 619 -314 137 -137 223 -276 286 -464 45
-137 59 -241 52 -401 -12 -293 -123 -545 -331 -752 -224 -223 -495 -336 -806
-336 -311 0 -582 113 -806 336 -208 207 -319 459 -331 752 -7 156 6 260 49
394 173 541 712 875 1268 785z"/>
<path d="M905 1880 l-430 -430 433 -433 432 -432 0 863 c0 474 -1 862 -3 862
-1 0 -196 -194 -432 -430z"/>
<path d="M1540 1450 l0 -865 432 433 433 432 -433 432 -432 433 0 -865z"/>
</g>
</svg>
