<?xml version="1.0" standalone="no"?>
<!DOCTYPE svg PUBLIC "-//W3C//DTD SVG 20010904//EN"
 "http://www.w3.org/TR/2001/REC-SVG-20010904/DTD/svg10.dtd">
<svg version="1.0" xmlns="http://www.w3.org/2000/svg"
 width="286.000000pt" height="289.000000pt" viewBox="0 0 286.000000 289.000000"
 preserveAspectRatio="xMidYMid meet">
<metadata>
Created by potrace 1.16, written by Peter Selinger 2001-2019
</metadata>
<g transform="translate(0.000000,289.000000) scale(0.100000,-0.100000)"
fill="#000000" stroke="none">
<path d="M240 1450 l0 -1200 1185 0 1185 0 0 1200 0 1200 -1185 0 -1185 0 0
-1200z m1442 1106 c206 -52 368 -140 514 -278 256 -242 391 -597 355 -937 -29
-273 -141 -511 -331 -702 -440 -443 -1144 -444 -1586 -3 -171 172 -291 409
-325 643 -18 128 -7 333 25 456 82 311 303 587 589 731 234 119 515 152 759
90z"/>
<path d="M850 1905 l-445 -445 448 -448 447 -447 0 170 0 170 -277 277 -278
278 278 278 278 278 -3 167 -3 167 -445 -445z"/>
<path d="M1470 2180 l0 -165 277 -277 278 -278 -278 -278 -277 -277 0 -165 0
-165 442 443 443 442 -443 442 -442 443 0 -165z"/>
<path d="M1242 1597 l-132 -132 138 -138 137 -137 135 135 135 135 -135 135
c-74 74 -137 135 -140 135 -3 0 -65 -60 -138 -133z"/>
</g>
</svg>
