<?xml version="1.0" standalone="no"?>
<!DOCTYPE svg PUBLIC "-//W3C//DTD SVG 20010904//EN"
 "http://www.w3.org/TR/2001/REC-SVG-20010904/DTD/svg10.dtd">
<svg version="1.0" xmlns="http://www.w3.org/2000/svg"
 width="286.000000pt" height="289.000000pt" viewBox="0 0 286.000000 289.000000"
 preserveAspectRatio="xMidYMid meet">
<metadata>
Created by potrace 1.16, written by Peter Selinger 2001-2019
</metadata>
<g transform="translate(0.000000,289.000000) scale(0.100000,-0.100000)"
fill="#000000" stroke="none">
<path d="M240 1450 l0 -1200 1200 0 1200 0 0 1200 0 1200 -1200 0 -1200 0 0
-1200z m1380 1125 c237 -39 450 -147 619 -314 177 -176 298 -412 332 -650 28
-194 -4 -431 -84 -617 -105 -248 -348 -493 -589 -592 -104 -43 -118 -46 -118
-29 0 8 13 146 29 308 71 702 71 731 19 836 -124 247 -591 253 -755 9 -62 -91
-62 -105 -24 -491 11 -110 24 -285 31 -390 6 -104 12 -211 14 -238 4 -55 9
-55 -112 -5 -241 99 -484 344 -589 592 -80 187 -112 423 -83 617 91 627 686
1065 1310 964z"/>
<path d="M1337 2510 c-105 -27 -198 -105 -244 -207 -21 -46 -26 -72 -26 -138
0 -71 4 -92 30 -146 37 -78 96 -139 171 -176 50 -24 69 -28 147 -28 76 0 99 4
146 26 76 36 129 86 170 161 32 60 34 68 34 163 0 95 -2 103 -34 163 -62 114
-163 180 -288 187 -37 2 -85 0 -106 -5z"/>
</g>
</svg>
