<?xml version="1.0" encoding="UTF-8" standalone="no"?>
<svg
   xmlns:dc="http://purl.org/dc/elements/1.1/"
   xmlns:cc="http://creativecommons.org/ns#"
   xmlns:rdf="http://www.w3.org/1999/02/22-rdf-syntax-ns#"
   xmlns:svg="http://www.w3.org/2000/svg"
   xmlns="http://www.w3.org/2000/svg"
   xmlns:sodipodi="http://sodipodi.sourceforge.net/DTD/sodipodi-0.dtd"
   xmlns:inkscape="http://www.inkscape.org/namespaces/inkscape"
   version="1.0"
   width="286.000000pt"
   height="289.000000pt"
   viewBox="0 0 286.000000 289.000000"
   preserveAspectRatio="xMidYMid meet"
   id="svg108"
   sodipodi:docname="ally.svg"
   inkscape:version="1.0.1 (3bc2e813f5, 2020-09-07)">
  <defs
     id="defs112" />
  <sodipodi:namedview
     pagecolor="#ffffff"
     bordercolor="#666666"
     borderopacity="1"
     objecttolerance="10"
     gridtolerance="10"
     guidetolerance="10"
     inkscape:pageopacity="0"
     inkscape:pageshadow="2"
     inkscape:window-width="1600"
     inkscape:window-height="837"
     id="namedview110"
     showgrid="false"
     inkscape:zoom="1.7387543"
     inkscape:cx="190.66667"
     inkscape:cy="192.66667"
     inkscape:window-x="-8"
     inkscape:window-y="-8"
     inkscape:window-maximized="1"
     inkscape:current-layer="svg108" />
  <metadata
     id="metadata100">
Created by potrace 1.16, written by Peter Selinger 2001-2019
<rdf:RDF>
  <cc:Work
     rdf:about="">
    <dc:format>image/svg+xml</dc:format>
    <dc:type
       rdf:resource="http://purl.org/dc/dcmitype/StillImage" />
  </cc:Work>
</rdf:RDF>
</metadata>
  <g
     transform="translate(0.000000,289.000000) scale(0.100000,-0.100000)"
     fill="#000000"
     stroke="none"
     id="g106">
    <path
       d="M240 1450 l0 -1200 1200 0 1200 0 0 1200 0 1200 -1200 0 -1200 0 0 -1200z m1380 1125 c237 -39 450 -147 619 -314 177 -176 298 -412 332 -650 28 -194 -4 -431 -84 -617 -105 -248 -348 -493 -589 -592 -104 -43 -118 -46 -118 -29 0 8 13 146 29 308 71 702 71 731 19 836 -124 247 -591 253 -755 9 -62 -91 -62 -105 -24 -491 11 -110 24 -285 31 -390 6 -104 12 -211 14 -238 4 -55 9 -55 -112 -5 -241 99 -484 344 -589 592 -80 187 -112 423 -83 617 91 627 686 1065 1310 964z"
       id="path102" />
    <path
       d="M1337 2510 c-105 -27 -198 -105 -244 -207 -21 -46 -26 -72 -26 -138 0 -71 4 -92 30 -146 37 -78 96 -139 171 -176 50 -24 69 -28 147 -28 76 0 99 4 146 26 76 36 129 86 170 161 32 60 34 68 34 163 0 95 -2 103 -34 163 -62 114 -163 180 -288 187 -37 2 -85 0 -106 -5z"
       id="path104" />
  </g>
  <path
     style="fill:#ffffff;stroke-width:0.575124"
     d="M 137.75522,334.12475 C 118.37745,326.78509 101.53597,315.66296 85.465855,299.59285 59.610026,273.73702 46.001699,245.78967 41.381834,209.05771 40.265973,200.18564 40.111111,182.07096 41.08683,174.55025 45.837482,137.93286 62.916532,104.87244 89.621352,80.600543 127.80802,45.892843 179.0876,32.660171 228.04975,44.879156 c 41.65242,10.394772 75.84818,36.827328 97.07173,75.034274 17.03719,30.67062 22.4,64.20236 15.9127,99.49652 -5.95201,32.38196 -18.93839,56.60574 -43.32264,80.81062 -12.08977,12.00085 -22.84578,20.1016 -35.72945,26.90918 -6.36849,3.36504 -21.05586,9.31801 -22.98969,9.31801 -1.32345,0 -1.32844,-0.0285 -0.93276,-5.3199 0.2188,-2.92594 1.55469,-17.09557 2.96865,-31.48806 6.95109,-70.75399 7.14093,-72.96101 7.54506,-87.7129 0.39068,-14.26103 -0.0421,-18.17856 -2.7581,-24.96894 -3.39585,-8.48995 -8.60906,-14.74461 -16.59585,-19.91124 -21.87272,-14.1494 -57.09047,-11.99764 -77.36651,4.72699 -6.32536,5.21745 -12.53981,13.89735 -14.54673,20.31783 -1.27964,4.09381 -1.24425,18.62909 0.0791,32.49453 2.81577,29.50172 3.9025,41.76497 4.94367,55.78706 1.82018,24.51339 3.56173,54.89875 3.18179,55.51352 -0.53326,0.86282 -1.26447,0.69671 -7.75553,-1.7619 z M 202.74428,142.2992 c 12.33328,-3.69598 23.85153,-13.99031 29.85333,-26.68112 2.64714,-5.59738 3.05718,-8.63701 2.82214,-20.920825 C 235.22288,84.408416 235.11076,83.44533 233.72263,80.119464 229.80321,70.728799 221.216,60.509237 213.38408,55.914739 202.29876,49.41168 185.82666,47.661865 174.05757,51.737124 c -13.16222,4.557659 -25.44138,16.834908 -29.99758,29.992918 -1.99745,5.768512 -2.68563,14.250197 -1.77957,21.932838 2.21625,18.79184 19.47611,37.04047 37.45452,39.60018 5.07204,0.72215 19.38381,0.12262 23.00934,-0.96386 z"
     id="path114"
     transform="scale(0.74999998)" />
</svg>
