<?xml version="1.0" standalone="no"?>
<!DOCTYPE svg PUBLIC "-//W3C//DTD SVG 20010904//EN"
 "http://www.w3.org/TR/2001/REC-SVG-20010904/DTD/svg10.dtd">
<svg version="1.0" xmlns="http://www.w3.org/2000/svg"
 width="288.000000pt" height="289.000000pt" viewBox="0 0 288.000000 289.000000"
 preserveAspectRatio="xMidYMid meet">
<metadata>
Created by potrace 1.16, written by Peter Selinger 2001-2019
</metadata>
<g transform="translate(0.000000,289.000000) scale(0.100000,-0.100000)"
fill="#000000" stroke="none">
<path d="M240 1450 l0 -1200 1200 0 1200 0 0 1200 0 1200 -1200 0 -1200 0 0
-1200z m1440 1114 c71 -15 93 -15 383 1 187 11 311 15 316 9 4 -5 36 -89 70
-186 l61 -176 0 -126 c0 -117 -1 -125 -21 -131 -14 -5 -18 -12 -13 -23 32 -75
77 -222 90 -296 23 -131 14 -338 -19 -466 -55 -209 -151 -377 -301 -526 -201
-201 -427 -307 -711 -334 -216 -20 -483 39 -660 146 l-60 35 -162 -69 c-117
-50 -165 -67 -172 -58 -5 6 -25 47 -44 91 -43 100 -60 223 -56 419 2 130 0
147 -24 217 -15 42 -34 118 -43 170 -22 127 -15 341 16 454 18 68 20 95 15
183 l-7 102 49 0 49 0 59 87 c176 258 449 433 762 489 99 17 321 11 423 -12z"/>
<path d="M1440 2119 c-459 -203 -837 -371 -840 -372 -3 -1 -21 10 -41 26 -40
30 -56 33 -80 14 -16 -12 -16 -23 0 -153 13 -114 21 -146 39 -169 28 -35 29
-114 6 -313 -9 -80 -13 -158 -9 -187 28 -207 31 -251 18 -310 -16 -78 -16 -86
6 -112 l19 -23 288 122 c159 67 291 123 293 124 2 2 -11 55 -29 117 -31 107
-32 118 -20 161 7 25 18 50 24 55 6 5 84 41 173 80 249 108 254 111 288 173
30 52 30 55 28 195 l-1 141 171 76 c95 42 253 111 352 155 l180 79 3 103 c2
102 3 105 32 130 l31 26 -42 109 c-23 60 -45 112 -48 116 -3 4 -382 -160 -841
-363z m39 -601 c2 -96 2 -96 -178 -171 -89 -37 -165 -67 -170 -67 -9 0 -37
177 -29 185 3 3 86 41 184 85 l179 79 6 -27 c4 -15 7 -53 8 -84z"/>
</g>
</svg>
