<?xml version="1.0" encoding="UTF-8" standalone="no"?>
<svg
   xmlns:dc="http://purl.org/dc/elements/1.1/"
   xmlns:cc="http://creativecommons.org/ns#"
   xmlns:rdf="http://www.w3.org/1999/02/22-rdf-syntax-ns#"
   xmlns:svg="http://www.w3.org/2000/svg"
   xmlns="http://www.w3.org/2000/svg"
   xmlns:sodipodi="http://sodipodi.sourceforge.net/DTD/sodipodi-0.dtd"
   xmlns:inkscape="http://www.inkscape.org/namespaces/inkscape"
   version="1.0"
   width="180.000000pt"
   height="300.000000pt"
   viewBox="0 0 180.000000 300.000000"
   preserveAspectRatio="xMidYMid meet"
   id="svg326"
   sodipodi:docname="event.svg"
   inkscape:version="1.0.1 (3bc2e813f5, 2020-09-07)">
  <defs
     id="defs330" />
  <sodipodi:namedview
     pagecolor="#ffffff"
     bordercolor="#666666"
     borderopacity="1"
     objecttolerance="10"
     gridtolerance="10"
     guidetolerance="10"
     inkscape:pageopacity="0"
     inkscape:pageshadow="2"
     inkscape:window-width="1600"
     inkscape:window-height="837"
     id="namedview328"
     showgrid="false"
     inkscape:zoom="1.675"
     inkscape:cx="120"
     inkscape:cy="200"
     inkscape:window-x="-8"
     inkscape:window-y="-8"
     inkscape:window-maximized="1"
     inkscape:current-layer="svg326" />
  <metadata
     id="metadata320">
Created by potrace 1.16, written by Peter Selinger 2001-2019
<rdf:RDF>
  <cc:Work
     rdf:about="">
    <dc:format>image/svg+xml</dc:format>
    <dc:type
       rdf:resource="http://purl.org/dc/dcmitype/StillImage" />
  </cc:Work>
</rdf:RDF>
</metadata>
  <g
     transform="translate(0.000000,300.000000) scale(0.100000,-0.100000)"
     fill="#000000"
     stroke="none"
     id="g324">
    <path
       d="M115 2989 c-82 -12 -85 -14 -85 -52 l0 -33 98 -27 c494 -139 873 -530 996 -1028 172 -696 -199 -1410 -869 -1672 -50 -19 -127 -44 -173 -54 l-82 -18 0 -37 c0 -32 4 -37 28 -42 190 -40 433 -33 637 19 267 67 498 199 695 395 210 211 344 460 412 767 32 142 32 444 0 586 -68 307 -202 556 -412 767 -290 290 -667 443 -1075 439 -60 -1 -137 -5 -170 -10z m429 -85 c285 -48 549 -186 761 -399 277 -276 417 -614 417 -1005 0 -391 -140 -729 -417 -1005 -255 -256 -559 -392 -935 -419 -47 -4 -100 -4 -117 0 -31 6 -27 9 70 48 451 185 797 609 892 1097 26 131 31 362 11 497 -74 504 -395 938 -847 1145 -52 24 -105 49 -119 55 -34 16 160 7 284 -14z"
       id="path322" />
  </g>
  <path
     style="fill:#ffffff;stroke-width:0.597015"
     d="m 32.885806,389.37222 c -1.290851,-0.4002 -1.008327,-0.64341 2.686567,-2.3127 2.271016,-1.026 6.815687,-2.98856 10.099269,-4.36124 31.651439,-13.23165 61.356588,-37.45404 82.985078,-67.66829 19.3035,-26.96634 32.36067,-60.36043 35.52289,-90.85089 1.04294,-10.0561 1.40557,-33.2758 0.66415,-42.52574 C 160.05288,121.88275 126.23158,64.876371 76.095726,32.066994 67.566441,26.48535 58.810577,21.737418 46.703628,16.12891 40.882304,13.4322 35.850746,10.949261 35.522388,10.611269 34.738364,9.8042429 51.45886,10.44823 61.19403,11.600009 c 33.801474,3.999088 63.1231,15.471931 89.85075,35.156425 18.23376,13.428882 35.82854,31.919112 48.10861,50.556999 15.74637,23.898797 24.53577,47.772507 28.68371,77.910447 1.51435,11.00287 1.51308,38.56551 -0.002,49.55224 -4.15932,30.15601 -12.97864,54.10585 -28.68988,77.91045 -8.83679,13.3889 -18.28828,24.37054 -31.98077,37.15828 -29.01775,27.10037 -63.41046,42.89415 -105.67164,48.52639 -7.730589,1.03026 -26.404607,1.68369 -28.606732,1.00098 z"
     id="path332"
     transform="scale(0.75)" />
</svg>
