<?xml version="1.0" standalone="no"?>
<!DOCTYPE svg PUBLIC "-//W3C//DTD SVG 20010904//EN"
 "http://www.w3.org/TR/2001/REC-SVG-20010904/DTD/svg10.dtd">
<svg version="1.0" xmlns="http://www.w3.org/2000/svg"
 width="180.000000pt" height="300.000000pt" viewBox="0 0 180.000000 300.000000"
 preserveAspectRatio="xMidYMid meet">
<metadata>
Created by potrace 1.16, written by Peter Selinger 2001-2019
</metadata>
<g transform="translate(0.000000,300.000000) scale(0.100000,-0.100000)"
fill="#000000" stroke="none">
<path d="M115 2989 c-82 -12 -85 -14 -85 -52 l0 -33 98 -27 c494 -139 873
-530 996 -1028 172 -696 -199 -1410 -869 -1672 -50 -19 -127 -44 -173 -54
l-82 -18 0 -37 c0 -32 4 -37 28 -42 190 -40 433 -33 637 19 267 67 498 199
695 395 210 211 344 460 412 767 32 142 32 444 0 586 -68 307 -202 556 -412
767 -290 290 -667 443 -1075 439 -60 -1 -137 -5 -170 -10z m429 -85 c285 -48
549 -186 761 -399 277 -276 417 -614 417 -1005 0 -391 -140 -729 -417 -1005
-255 -256 -559 -392 -935 -419 -47 -4 -100 -4 -117 0 -31 6 -27 9 70 48 451
185 797 609 892 1097 26 131 31 362 11 497 -74 504 -395 938 -847 1145 -52 24
-105 49 -119 55 -34 16 160 7 284 -14z"/>
</g>
</svg>
