<?xml version="1.0" standalone="no"?>
<!DOCTYPE svg PUBLIC "-//W3C//DTD SVG 20010904//EN"
 "http://www.w3.org/TR/2001/REC-SVG-20010904/DTD/svg10.dtd">
<svg version="1.0" xmlns="http://www.w3.org/2000/svg"
 width="286.000000pt" height="289.000000pt" viewBox="0 0 286.000000 289.000000"
 preserveAspectRatio="xMidYMid meet">
<metadata>
Created by potrace 1.16, written by Peter Selinger 2001-2019
</metadata>
<g transform="translate(0.000000,289.000000) scale(0.100000,-0.100000)"
fill="#000000" stroke="none">
<path d="M240 1450 l0 -1200 1200 0 1200 0 0 1200 0 1200 -1200 0 -1200 0 0
-1200z m1380 1125 c237 -39 450 -147 619 -314 177 -176 298 -412 332 -650 28
-194 -4 -431 -84 -617 -123 -291 -411 -551 -711 -643 -255 -79 -533 -63 -783
42 -248 105 -495 351 -600 601 -80 187 -112 423 -83 617 91 627 686 1065 1310
964z"/>
<path d="M720 1425 l0 -655 155 0 155 0 0 477 c0 301 4 473 9 468 6 -6 75
-163 155 -350 l145 -340 106 0 106 0 146 340 c80 187 149 344 154 349 5 6 9
-186 9 -467 l0 -477 155 0 155 0 0 655 0 655 -212 -2 -212 -3 -149 -348 c-83
-192 -153 -345 -157 -340 -4 4 -72 162 -151 350 l-144 342 -212 1 -213 0 0
-655z"/>
</g>
</svg>
