<?xml version="1.0" standalone="no"?>
<!DOCTYPE svg PUBLIC "-//W3C//DTD SVG 20010904//EN"
 "http://www.w3.org/TR/2001/REC-SVG-20010904/DTD/svg10.dtd">
<svg version="1.0" xmlns="http://www.w3.org/2000/svg"
 width="286.000000pt" height="291.000000pt" viewBox="0 0 286.000000 291.000000"
 preserveAspectRatio="xMidYMid meet">
<metadata>
Created by potrace 1.16, written by Peter Selinger 2001-2019
</metadata>
<g transform="translate(0.000000,291.000000) scale(0.100000,-0.100000)"
fill="#000000" stroke="none">
<path d="M240 1460 l0 -1200 1200 0 1200 0 0 1200 0 1200 -1200 0 -1200 0 0
-1200z m1356 1129 c491 -68 885 -451 970 -944 23 -131 15 -338 -19 -467 -107
-409 -423 -725 -827 -828 -608 -154 -1226 214 -1387 828 -34 129 -42 336 -19
467 75 435 392 790 813 910 153 44 315 56 469 34z"/>
<path d="M1427 2520 c-7 -18 -117 -569 -117 -587 0 -10 30 -13 115 -13 63 0
115 2 115 5 0 6 -99 575 -104 595 -3 13 -4 13 -9 0z"/>
<path d="M1304 1846 c-183 -42 -359 -193 -448 -386 -34 -74 -66 -200 -66 -260
l0 -30 105 0 105 0 0 60 0 60 80 0 80 0 0 -60 0 -60 90 0 89 0 3 68 3 67 75 0
75 0 3 -67 3 -68 89 0 90 0 0 65 0 65 80 0 80 0 0 -65 0 -66 112 3 112 3 -3
49 c-13 211 -163 440 -362 554 -121 69 -275 95 -395 68z"/>
<path d="M790 820 l0 -250 640 0 640 0 -2 248 -3 247 -112 3 -113 3 0 -116 0
-115 -80 0 -80 0 0 115 0 115 -90 0 -90 0 0 -110 0 -110 -80 0 -80 0 0 110 0
110 -90 0 -90 0 0 -120 0 -121 -77 3 -78 3 -3 118 -3 117 -104 0 -105 0 0
-250z"/>
</g>
</svg>
