<?xml version="1.0" standalone="no"?>
<!DOCTYPE svg PUBLIC "-//W3C//DTD SVG 20010904//EN"
 "http://www.w3.org/TR/2001/REC-SVG-20010904/DTD/svg10.dtd">
<svg version="1.0" xmlns="http://www.w3.org/2000/svg"
 width="300.000000pt" height="303.000000pt" viewBox="0 0 300.000000 303.000000"
 preserveAspectRatio="xMidYMid meet">
<metadata>
Created by potrace 1.16, written by Peter Selinger 2001-2019
</metadata>
<g transform="translate(0.000000,303.000000) scale(0.100000,-0.100000)"
fill="#000000" stroke="none">
<path d="M250 1520 l0 -1260 1265 0 1265 0 0 1260 0 1260 -1265 0 -1265 0 0
-1260z m1436 1179 c494 -69 902 -455 1005 -951 54 -262 13 -546 -113 -788
-167 -324 -465 -548 -830 -626 -114 -25 -353 -25 -464 -1 -493 105 -847 460
-951 951 -24 113 -24 351 1 466 91 426 399 769 811 904 161 52 366 70 541 45z"/>
<path d="M1430 2349 c-116 -23 -225 -110 -282 -226 -30 -63 -33 -75 -33 -168
0 -88 3 -107 28 -159 15 -33 43 -79 63 -103 l35 -43 -96 -162 c-53 -90 -98
-164 -99 -165 -1 -1 -26 5 -56 14 -45 12 -64 13 -98 4 -51 -14 -110 -64 -128
-108 -29 -68 -9 -168 43 -215 53 -49 148 -61 212 -28 41 20 86 67 96 100 6 20
15 20 394 20 l388 0 30 -48 c67 -108 213 -124 298 -33 104 110 50 277 -101
312 -39 9 -57 8 -91 -4 l-42 -14 -100 170 -101 169 30 35 c201 228 66 596
-239 653 -62 11 -88 11 -151 -1z m225 -73 c76 -34 139 -97 178 -175 28 -58 32
-75 32 -146 -1 -66 -6 -91 -29 -142 -15 -34 -38 -71 -51 -83 l-22 -21 -110
188 c-93 159 -114 188 -133 188 -25 0 -27 -3 -180 -263 -70 -120 -72 -123 -91
-106 -39 35 -81 140 -87 212 -19 266 253 458 493 348z m-28 -429 l101 -172
-21 -18 c-41 -32 -153 -60 -222 -55 -59 5 -175 47 -175 64 0 11 203 354 210
354 3 0 51 -78 107 -173z m309 -529 c13 -25 13 -31 -2 -53 -9 -13 -22 -44 -29
-67 l-12 -43 -381 -3 -380 -2 -7 32 c-4 18 -15 49 -25 68 l-18 35 94 159 c52
88 97 163 101 167 5 5 31 -3 58 -17 115 -56 246 -55 362 4 l58 29 83 -141 c46
-78 90 -153 98 -168z"/>
</g>
</svg>
