<?xml version="1.0" standalone="no"?>
<!DOCTYPE svg PUBLIC "-//W3C//DTD SVG 20010904//EN"
 "http://www.w3.org/TR/2001/REC-SVG-20010904/DTD/svg10.dtd">
<svg version="1.0" xmlns="http://www.w3.org/2000/svg"
 width="300.000000pt" height="300.000000pt" viewBox="0 0 300.000000 300.000000"
 preserveAspectRatio="xMidYMid meet">
<metadata>
Created by potrace 1.16, written by Peter Selinger 2001-2019
</metadata>
<g transform="translate(0.000000,300.000000) scale(0.100000,-0.100000)"
fill="#000000" stroke="none">
<path d="M250 1500 l0 -1250 1250 0 1250 0 0 1250 0 1250 -1250 0 -1250 0 0
-1250z m1470 1204 c369 -63 701 -307 872 -640 97 -188 138 -356 138 -562 0
-344 -118 -632 -359 -873 -235 -236 -531 -359 -866 -359 -327 0 -616 116 -851
342 -248 240 -376 539 -376 883 0 238 60 454 180 644 276 437 756 652 1262
565z"/>
<path d="M740 2408 c0 -2 -11 -77 -25 -168 -121 -810 -53 -1118 334 -1513 101
-103 251 -235 388 -342 l63 -48 147 119 c176 141 378 338 458 447 71 98 138
222 170 318 47 136 59 229 59 429 -1 196 -8 274 -51 573 l-27 187 -758 0
c-417 0 -758 -1 -758 -2z"/>
</g>
</svg>
