<?xml version="1.0" standalone="no"?>
<!DOCTYPE svg PUBLIC "-//W3C//DTD SVG 20010904//EN"
 "http://www.w3.org/TR/2001/REC-SVG-20010904/DTD/svg10.dtd">
<svg version="1.0" xmlns="http://www.w3.org/2000/svg"
 width="288.000000pt" height="289.000000pt" viewBox="0 0 288.000000 289.000000"
 preserveAspectRatio="xMidYMid meet">
<metadata>
Created by potrace 1.16, written by Peter Selinger 2001-2019
</metadata>
<g transform="translate(0.000000,289.000000) scale(0.100000,-0.100000)"
fill="#000000" stroke="none">
<path d="M240 1450 l0 -1200 1200 0 1200 0 0 1200 0 1200 -1200 0 -1200 0 0
-1200z m1396 1145 c695 -122 1128 -827 919 -1495 -90 -286 -276 -519 -535
-670 -294 -172 -689 -201 -1007 -73 -62 25 -65 27 -59 55 8 42 58 110 104 142
42 29 147 66 186 66 13 0 31 -9 41 -20 24 -26 69 -26 97 2 29 29 138 40 138
15 0 -19 30 -37 61 -37 26 0 59 27 59 48 0 13 24 14 180 8 l180 -6 40 36 c42
38 55 72 23 59 -10 -4 -114 -9 -232 -12 l-214 -6 38 67 c34 61 37 72 31 116
l-7 49 238 -5 c131 -2 289 -6 351 -8 61 -3 112 -3 112 -1 0 2 -67 44 -148 94
-176 109 -244 167 -393 338 -219 250 -326 345 -483 429 -90 48 -111 71 -127
142 -21 93 61 148 184 124 50 -10 58 -2 37 37 -15 29 -146 125 -260 190 -98
57 -109 61 -168 61 -74 0 -124 -19 -170 -63 -45 -42 -65 -84 -101 -207 -34
-112 -38 -161 -17 -179 12 -10 11 -22 -5 -84 -26 -101 -25 -110 15 -130 32
-15 34 -18 29 -54 -4 -34 -2 -40 21 -52 14 -8 26 -22 26 -31 0 -33 79 -177
135 -247 56 -70 197 -197 263 -236 17 -10 32 -23 32 -28 0 -5 32 -40 70 -77
l71 -68 -40 -86 -39 -85 -87 -8 c-47 -4 -88 -5 -90 -3 -3 2 4 28 15 56 30 79
28 85 -24 59 -38 -19 -43 -25 -39 -48 4 -20 -2 -31 -22 -48 -15 -11 -33 -21
-40 -21 -7 0 -61 -52 -120 -115 l-107 -115 -30 18 c-54 31 -210 185 -270 266
-97 130 -167 291 -205 470 -21 97 -23 328 -4 426 95 485 469 858 947 944 107
19 292 19 400 1z m-80 -1685 c29 -25 53 -49 53 -54 1 -6 -17 -40 -39 -78 l-41
-68 -69 0 c-39 0 -70 2 -70 4 0 3 18 43 41 91 40 83 42 99 23 148 -10 28 45 4
102 -43z"/>
</g>
</svg>
