<?xml version="1.0" standalone="no"?>
<!DOCTYPE svg PUBLIC "-//W3C//DTD SVG 20010904//EN"
 "http://www.w3.org/TR/2001/REC-SVG-20010904/DTD/svg10.dtd">
<svg version="1.0" xmlns="http://www.w3.org/2000/svg"
 width="300.000000pt" height="300.000000pt" viewBox="0 0 300.000000 300.000000"
 preserveAspectRatio="xMidYMid meet">
<metadata>
Created by potrace 1.16, written by Peter Selinger 2001-2019
</metadata>
<g transform="translate(0.000000,300.000000) scale(0.100000,-0.100000)"
fill="#000000" stroke="none">
<path d="M250 1500 l0 -1250 1250 0 1250 0 0 1250 0 1250 -1250 0 -1250 0 0
-1250z m642 1121 c30 -17 66 -31 81 -31 15 0 41 -13 61 -30 19 -17 55 -38 80
-46 26 -9 51 -25 56 -35 19 -35 67 -51 129 -45 103 11 315 13 386 3 85 -12
120 -5 154 32 31 33 62 51 89 51 11 0 39 16 62 35 23 19 51 35 63 35 11 0 45
14 75 31 34 19 75 33 108 36 52 6 53 5 73 -28 11 -19 30 -44 42 -56 60 -58 66
-453 9 -518 -38 -44 -70 -113 -70 -151 0 -46 36 -182 54 -204 41 -50 46 -189
8 -252 -11 -18 -28 -55 -38 -83 -10 -27 -28 -63 -41 -78 -13 -16 -23 -35 -23
-43 0 -16 -44 -89 -60 -99 -5 -3 -10 -17 -10 -31 0 -41 -18 -63 -62 -75 -37
-9 -44 -9 -55 7 -7 10 -13 35 -13 55 0 21 -4 40 -9 43 -13 8 -51 93 -51 114 0
11 -9 27 -20 37 -11 10 -29 43 -40 74 -12 31 -32 72 -45 91 -27 39 -48 146
-34 171 5 11 28 18 69 22 52 4 66 10 103 43 42 38 92 98 114 138 30 54 -25
100 -122 100 -85 -1 -123 -17 -183 -77 -44 -45 -54 -62 -68 -120 -23 -94 -9
-238 28 -294 14 -21 29 -55 33 -77 4 -24 19 -51 40 -73 28 -29 33 -42 33 -79
0 -50 13 -71 45 -76 27 -4 47 -42 47 -91 0 -21 9 -55 19 -75 49 -93 73 -154
67 -175 -14 -56 -158 -227 -191 -227 -11 0 -15 11 -15 41 l0 42 -59 -6 c-52
-4 -64 -2 -92 19 -18 13 -38 24 -45 24 -14 0 -24 23 -24 56 0 17 10 31 34 44
21 13 40 36 51 63 28 68 30 72 62 82 41 14 58 30 88 82 37 67 33 94 -17 135
-63 50 -62 50 -107 17 -23 -16 -56 -32 -74 -36 -42 -8 -66 -20 -98 -50 -15
-14 -44 -27 -65 -30 -34 -4 -48 1 -99 36 -33 23 -70 41 -81 41 -21 0 -69 31
-91 60 -10 13 -16 13 -45 1 -18 -7 -44 -15 -58 -19 -34 -7 -40 -18 -40 -79 0
-47 4 -58 37 -94 21 -23 61 -52 90 -65 47 -20 53 -26 53 -53 0 -44 19 -78 51
-91 18 -8 30 -22 34 -41 7 -30 -7 -59 -28 -59 -6 0 -23 -12 -38 -26 -26 -25
-30 -26 -86 -16 -69 12 -83 4 -83 -44 0 -55 -18 -45 -102 56 -70 85 -92 140
-74 185 8 17 19 55 25 84 6 28 21 65 32 81 15 19 24 51 28 92 5 55 9 63 30 68
19 4 31 21 50 66 14 33 38 77 52 99 14 22 30 51 34 65 4 14 15 34 25 45 16 17
19 44 24 172 5 150 5 152 -21 190 -14 21 -33 42 -41 47 -9 5 -26 20 -37 32
-29 31 -133 58 -188 49 -53 -9 -87 -39 -87 -78 0 -30 63 -137 80 -137 5 0 26
-14 46 -32 31 -27 46 -33 100 -36 35 -2 68 -10 74 -17 14 -17 -14 -125 -39
-145 -25 -20 -41 -53 -41 -86 0 -18 -12 -40 -32 -61 -27 -28 -33 -44 -39 -96
-5 -51 -12 -68 -38 -96 -17 -18 -32 -42 -32 -52 -1 -10 -3 -23 -4 -29 -1 -5
-3 -15 -4 -20 0 -6 -13 -15 -27 -20 -36 -14 -61 3 -76 52 -7 23 -24 54 -38 70
-14 15 -34 51 -44 78 -10 28 -22 53 -27 56 -16 10 -49 82 -49 108 0 14 -9 40
-20 58 -28 46 -28 178 -1 229 22 40 55 230 46 262 -11 39 -34 84 -49 96 -33
27 -81 223 -72 295 11 96 47 209 77 242 11 11 19 25 19 30 0 5 7 20 16 33 15
21 22 23 69 18 32 -3 74 -17 107 -36z m671 -2042 c21 -6 52 -24 69 -40 28 -27
37 -29 104 -29 45 0 76 -5 80 -12 4 -7 -12 -27 -41 -52 -27 -23 -65 -56 -84
-75 -35 -32 -38 -33 -91 -25 -70 10 -113 10 -175 0 l-50 -8 -75 62 c-123 102
-124 110 -16 110 61 0 76 3 92 21 44 49 117 68 187 48z"/>
</g>
</svg>
