<?xml version="1.0" standalone="no"?>
<!DOCTYPE svg PUBLIC "-//W3C//DTD SVG 20010904//EN"
 "http://www.w3.org/TR/2001/REC-SVG-20010904/DTD/svg10.dtd">
<svg version="1.0" xmlns="http://www.w3.org/2000/svg"
 width="238.000000pt" height="238.000000pt" viewBox="0 0 238.000000 238.000000"
 preserveAspectRatio="xMidYMid meet">
<metadata>
Created by potrace 1.16, written by Peter Selinger 2001-2019
</metadata>
<g transform="translate(0.000000,238.000000) scale(0.100000,-0.100000)"
fill="#000000" stroke="none">
<path d="M617 1772 l-577 -577 578 -578 577 -577 580 580 580 580 -575 575
c-316 316 -577 575 -580 575 -3 0 -265 -260 -583 -578z m161 -7 c30 -14 59
-25 64 -25 6 0 23 -11 40 -25 16 -14 38 -25 47 -25 10 0 31 -12 47 -27 l29
-28 199 1 198 2 25 26 c13 14 31 26 39 26 9 0 29 11 46 25 16 14 35 25 43 25
7 0 38 12 69 26 64 29 96 28 112 -3 6 -13 19 -32 30 -44 17 -19 19 -37 19
-168 l0 -146 -32 -44 c-42 -56 -43 -98 -3 -198 17 -41 30 -90 30 -109 0 -31
-33 -121 -61 -164 -5 -8 -18 -33 -29 -55 -11 -22 -24 -47 -29 -55 -6 -8 -16
-28 -23 -45 -10 -24 -20 -30 -43 -30 -26 0 -30 4 -35 35 -4 19 -11 44 -17 55
-51 94 -112 237 -115 270 -3 39 -3 39 40 47 50 8 90 38 126 91 49 72 25 102
-76 95 -52 -4 -63 -9 -98 -43 -50 -49 -63 -88 -58 -178 2 -55 9 -80 26 -104
12 -17 22 -42 22 -55 0 -14 11 -35 25 -48 17 -16 25 -34 25 -57 0 -26 5 -36
24 -42 25 -10 36 -30 36 -66 0 -13 6 -36 14 -52 53 -106 52 -98 30 -138 -20
-37 -101 -125 -116 -125 -4 0 -8 11 -8 25 0 22 -4 25 -39 25 -48 0 -111 34
-111 61 0 10 11 26 24 34 13 9 31 33 40 54 10 27 24 42 45 49 34 12 61 57 61
101 0 22 -8 34 -31 49 l-32 20 -45 -24 c-25 -13 -50 -24 -57 -24 -6 0 -26 -11
-45 -25 -42 -31 -58 -31 -104 0 -20 14 -47 27 -60 31 -13 3 -34 15 -46 26 -21
20 -25 20 -64 6 -38 -14 -41 -18 -44 -54 -4 -50 24 -89 79 -111 31 -12 39 -20
39 -40 0 -15 12 -36 30 -53 38 -35 38 -51 -1 -79 -23 -17 -41 -22 -77 -19 -45
3 -47 2 -52 -27 l-5 -30 -48 50 c-76 81 -81 122 -26 241 10 23 19 58 19 78 0
27 4 36 18 36 11 1 30 27 56 83 22 45 45 89 52 97 16 21 26 177 14 221 -6 23
-25 48 -52 69 -34 28 -52 35 -100 38 -46 4 -63 1 -78 -13 -25 -23 -25 -39 0
-80 30 -49 85 -86 138 -94 28 -4 47 -11 46 -19 -1 -6 -2 -23 -2 -36 -1 -14
-13 -38 -27 -54 -14 -17 -25 -40 -25 -52 0 -13 -11 -33 -25 -46 -18 -17 -25
-33 -25 -62 0 -26 -7 -45 -19 -56 -10 -10 -22 -32 -25 -51 -10 -53 -60 -58
-72 -6 -4 14 -12 33 -20 41 -21 25 -74 131 -95 190 -21 61 -24 125 -8 167 6
15 18 60 25 98 14 70 14 70 -15 130 -46 92 -64 158 -58 212 6 64 33 148 52
163 8 7 15 18 15 24 0 18 22 36 45 36 11 0 44 -11 73 -25z m470 -1376 c17 -6
33 -17 36 -25 4 -10 22 -14 61 -14 33 0 55 -4 55 -11 0 -6 -21 -30 -47 -54
l-48 -43 -105 0 -105 0 -47 43 c-27 24 -48 48 -48 54 0 6 20 11 49 11 31 0 53
5 61 15 24 29 90 41 138 24z"/>
</g>
</svg>
