<?xml version="1.0" encoding="UTF-8" standalone="no"?>
<svg
   xmlns:dc="http://purl.org/dc/elements/1.1/"
   xmlns:cc="http://creativecommons.org/ns#"
   xmlns:rdf="http://www.w3.org/1999/02/22-rdf-syntax-ns#"
   xmlns:svg="http://www.w3.org/2000/svg"
   xmlns="http://www.w3.org/2000/svg"
   xmlns:sodipodi="http://sodipodi.sourceforge.net/DTD/sodipodi-0.dtd"
   xmlns:inkscape="http://www.inkscape.org/namespaces/inkscape"
   version="1.0"
   width="286.000000pt"
   height="289.000000pt"
   viewBox="0 0 286.000000 289.000000"
   preserveAspectRatio="xMidYMid meet"
   id="svg36"
   sodipodi:docname="action.svg"
   inkscape:version="1.0.1 (3bc2e813f5, 2020-09-07)">
  <defs
     id="defs40" />
  <sodipodi:namedview
     pagecolor="#ffffff"
     bordercolor="#666666"
     borderopacity="1"
     objecttolerance="10"
     gridtolerance="10"
     guidetolerance="10"
     inkscape:pageopacity="0"
     inkscape:pageshadow="2"
     inkscape:window-width="1600"
     inkscape:window-height="837"
     id="namedview38"
     showgrid="false"
     inkscape:zoom="1.7387543"
     inkscape:cx="190.66667"
     inkscape:cy="192.66667"
     inkscape:window-x="-8"
     inkscape:window-y="-8"
     inkscape:window-maximized="1"
     inkscape:current-layer="svg36" />
  <metadata
     id="metadata26">
Created by potrace 1.16, written by Peter Selinger 2001-2019
<rdf:RDF>
  <cc:Work
     rdf:about="">
    <dc:format>image/svg+xml</dc:format>
    <dc:type
       rdf:resource="http://purl.org/dc/dcmitype/StillImage" />
  </cc:Work>
</rdf:RDF>
</metadata>
  <g
     transform="translate(0.000000,289.000000) scale(0.100000,-0.100000)"
     fill="#000000"
     stroke="none"
     id="g34">
    <path
       d="M240 1450 l0 -1200 1200 0 1200 0 0 1200 0 1200 -1200 0 -1200 0 0 -1200z m1380 1125 c237 -39 450 -147 619 -314 137 -137 223 -276 286 -464 45 -137 59 -241 52 -401 -12 -293 -123 -545 -331 -752 -224 -223 -495 -336 -806 -336 -311 0 -582 113 -806 336 -208 207 -319 459 -331 752 -7 156 6 260 49 394 173 541 712 875 1268 785z"
       id="path28" />
    <path
       d="M905 1880 l-430 -430 433 -433 432 -432 0 863 c0 474 -1 862 -3 862 -1 0 -196 -194 -432 -430z"
       id="path30" />
    <path
       d="M1540 1450 l0 -865 432 433 433 432 -433 432 -432 433 0 -865z"
       id="path32" />
  </g>
  <path
     style="fill:#ffffff;stroke-width:0.575124"
     d="M 176.57612,343.31657 C 135.5127,339.13018 99.456305,318.9902 72.112514,284.96646 56.051787,264.98219 45.678226,240.51909 41.996454,213.94627 c -1.225206,-8.8428 -1.749619,-30.20778 -0.936297,-38.14548 1.379418,-13.46257 6.376746,-31.87215 12.048391,-44.38487 22.094291,-48.744191 65.081412,-81.484285 117.511822,-89.500027 14.21556,-2.173324 33.28805,-1.798736 48.33943,0.949396 36.20883,6.61113 68.92203,26.391932 92.23188,55.770158 16.33273,20.584723 27.71401,47.376743 31.39359,73.901863 1.08893,7.84979 0.90292,29.94559 -0.33165,39.39602 -3.54261,27.11814 -12.96934,50.29043 -28.98938,71.2601 -5.8039,7.5971 -18.35956,20.49771 -26.26424,26.98581 -20.87212,17.13168 -45.21856,28.0196 -71.76792,32.0952 -8.72964,1.3401 -30.08595,1.91584 -38.65596,1.04213 z m 2.50669,-119.44941 c -0.0447,-46.1034 -0.23885,-98.0587 -0.43134,-115.45621 l -0.34998,-31.631846 -57.8,57.651666 -57.799997,57.65168 57.798927,57.80454 c 31.78941,31.7925 57.99351,57.80455 58.23134,57.80455 0.23783,0 0.39581,-37.72097 0.35105,-83.82438 z m 141.56197,-31.90972 c 0,-0.45971 -114.86192,-115.465898 -115.32105,-115.465898 -0.15342,0 -0.27895,52.084218 -0.27895,115.742708 v 115.74271 l 57.8,-57.79786 c 31.79,-31.78882 57.8,-57.98857 57.8,-58.22166 z"
     id="path42"
     transform="scale(0.74999998)" />
  <path
     style="fill:#ffffff;stroke-width:0.575124"
     d="m 176.57612,343.31657 c -32.23588,-3.28643 -60.15637,-15.7498 -85.381206,-38.11314 -27.425671,-24.31451 -44.246167,-55.51449 -49.19846,-91.25716 -1.225206,-8.8428 -1.749619,-30.20778 -0.936297,-38.14548 1.845366,-18.01004 8.759757,-39.82068 17.717362,-55.88736 C 74.51302,91.689685 97.26687,69.884803 125.39005,56.079033 c 39.99683,-19.634589 84.13582,-20.8673 125.8689,-3.515259 35.61209,14.807017 65.9338,45.553963 80.88106,82.015326 9.113,22.22967 12.466,42.09447 11.03048,65.34984 -0.81603,13.21968 -1.77624,19.81927 -4.46611,30.69594 -6.1832,25.00214 -18.42199,46.60103 -37.5938,66.34514 -24.65285,25.38877 -52.77054,40.22201 -85.8785,45.30442 -8.72964,1.3401 -30.08595,1.91584 -38.65596,1.04213 z M 179.083,226.16766 c -0.0446,-44.83813 -0.23875,-96.79343 -0.43134,-115.45622 l -0.35017,-33.932336 -57.8,57.650316 -57.799997,57.65032 57.798927,57.8059 c 31.78941,31.79325 57.99351,57.8059 58.23134,57.8059 0.23783,0 0.39589,-36.68574 0.35124,-81.52388 z M 262.9882,134.14812 205.04478,76.204694 V 192.09154 307.97839 l 57.94342,-57.94342 57.94343,-57.94343 z"
     id="path44"
     transform="scale(0.74999998)" />
  <path
     style="fill:#ffffff;stroke-width:0.575124"
     d="M 179.16418,343.52215 C 143.60077,340.75644 111.5159,325.64145 84.801675,299.06853 62.216273,276.6026 48.334657,250.38189 42.918345,219.95593 39.998169,203.55194 39.813683,179.70856 42.498048,165.63582 51.479552,118.55043 80.722297,79.127382 122.86508,57.290563 176.51763,29.489807 241.11782,36.441961 288.15025,75.078249 c 6.71887,5.519426 17.4914,16.420608 22.70926,22.980457 8.63652,10.857754 17.43881,26.311364 22.66396,39.789654 8.02389,20.69764 11.0186,40.0936 9.65561,62.53673 -1.62528,26.76187 -8.2429,48.82357 -20.96745,69.90083 -7.66979,12.70443 -22.3503,29.33684 -35.21163,39.89332 -22.63355,18.57744 -49.42582,29.82273 -78.3731,32.89487 -7.06532,0.74984 -22.55342,0.98536 -29.46272,0.44804 z M 262.9882,134.14812 205.04478,76.204694 V 192.09154 307.97839 l 57.94342,-57.94342 57.94343,-57.94343 z m -83.95528,90.29417 c -0.086,-45.47077 -0.28571,-97.29667 -0.44387,-115.16866 l -0.28756,-32.494526 -57.8,57.648806 -57.799997,57.64881 57.546057,57.51985 c 31.65033,31.63592 57.86007,57.51985 58.24387,57.51985 0.54447,0 0.66345,-18.16566 0.5415,-82.67413 z"
     id="path46"
     transform="scale(0.74999998)" />
</svg>
