<?xml version="1.0" encoding="UTF-8" standalone="no"?>
<svg
   xmlns:dc="http://purl.org/dc/elements/1.1/"
   xmlns:cc="http://creativecommons.org/ns#"
   xmlns:rdf="http://www.w3.org/1999/02/22-rdf-syntax-ns#"
   xmlns:svg="http://www.w3.org/2000/svg"
   xmlns="http://www.w3.org/2000/svg"
   xmlns:sodipodi="http://sodipodi.sourceforge.net/DTD/sodipodi-0.dtd"
   xmlns:inkscape="http://www.inkscape.org/namespaces/inkscape"
   version="1.0"
   width="238.000000pt"
   height="238.000000pt"
   viewBox="0 0 238.000000 238.000000"
   preserveAspectRatio="xMidYMid meet"
   id="svg1878"
   sodipodi:docname="animalismsup.svg"
   inkscape:version="1.0.1 (3bc2e813f5, 2020-09-07)">
  <defs
     id="defs1882" />
  <sodipodi:namedview
     pagecolor="#ffffff"
     bordercolor="#666666"
     borderopacity="1"
     objecttolerance="10"
     gridtolerance="10"
     guidetolerance="10"
     inkscape:pageopacity="0"
     inkscape:pageshadow="2"
     inkscape:window-width="1600"
     inkscape:window-height="837"
     id="namedview1880"
     showgrid="false"
     inkscape:zoom="2.1113445"
     inkscape:cx="158.66667"
     inkscape:cy="158.66667"
     inkscape:window-x="-8"
     inkscape:window-y="-8"
     inkscape:window-maximized="1"
     inkscape:current-layer="svg1878" />
  <metadata
     id="metadata1872">
Created by potrace 1.16, written by Peter Selinger 2001-2019
<rdf:RDF>
  <cc:Work
     rdf:about="">
    <dc:format>image/svg+xml</dc:format>
    <dc:type
       rdf:resource="http://purl.org/dc/dcmitype/StillImage" />
  </cc:Work>
</rdf:RDF>
</metadata>
  <g
     transform="translate(0.000000,238.000000) scale(0.100000,-0.100000)"
     fill="#000000"
     stroke="none"
     id="g1876">
    <path
       d="M611 1776 l-575 -575 122 -128 c66 -70 325 -332 574 -580 l453 -453 580 580 580 580 -575 575 c-316 316 -577 575 -580 575 -3 0 -263 -258 -579 -574z m757 52 c7 -7 12 -21 12 -32 0 -12 14 -41 31 -66 16 -25 46 -76 66 -115 31 -60 37 -82 41 -153 7 -132 -29 -202 -106 -202 -28 0 -45 11 -95 59 l-61 59 -4 123 c-3 108 -1 131 17 181 12 31 28 61 36 68 7 6 11 18 8 26 -5 15 21 64 35 64 5 0 13 -5 20 -12z m-347 -69 c84 -160 114 -335 71 -419 -22 -45 -103 -100 -147 -100 -68 0 -84 50 -73 229 7 126 12 143 78 244 43 66 56 75 71 46z m-302 -269 c64 -54 69 -60 91 -131 18 -55 22 -84 18 -142 -8 -113 -28 -139 -116 -153 -48 -8 -80 16 -92 71 -15 64 -3 237 20 287 11 24 20 52 20 64 0 19 8 34 18 34 2 0 21 -14 41 -30z m1037 -55 c0 -39 4 -124 9 -191 6 -89 5 -130 -5 -160 -19 -58 -46 -84 -91 -84 -32 0 -43 6 -71 41 -18 23 -46 56 -62 75 -42 50 -38 98 13 183 23 37 41 74 41 83 0 20 32 47 66 57 16 4 34 16 39 27 20 38 27 45 43 42 14 -3 17 -17 18 -73z m-486 -164 c19 -10 49 -36 65 -59 22 -31 51 -51 113 -82 76 -37 85 -44 104 -87 27 -61 22 -197 -9 -258 -53 -101 -172 -147 -229 -90 -25 26 -26 28 -19 128 7 102 7 103 -20 135 -30 36 -80 66 -95 57 -5 -3 0 -21 11 -40 31 -53 19 -85 -57 -153 -97 -85 -150 -114 -199 -107 -71 11 -120 39 -147 86 -37 64 -51 115 -43 157 9 49 116 153 219 212 43 25 108 64 145 87 72 45 94 47 161 14z"
       id="path1874" />
  </g>
  <path
     style="fill:#ffffff;stroke-width:0.473632"
     d="m 89.042786,174.74553 c -5.692617,-2.40934 -7.776596,-10.84741 -6.699336,-27.12574 0.666016,-10.06406 1.767098,-16.15133 3.862989,-21.35629 0.830165,-2.06164 1.682082,-4.97018 1.893149,-6.46341 0.419369,-2.9669 1.152734,-4.70755 1.98337,-4.70755 0.894884,0 7.522497,5.21437 10.806572,8.50222 3.41543,3.41936 4.44484,5.28671 6.5626,11.90456 2.62016,8.18783 2.65488,8.40226 2.60086,16.06287 -0.10134,14.37069 -2.306,19.54465 -9.48581,22.26157 -3.138928,1.1878 -9.66291,1.70962 -11.524394,0.92177 z"
     id="path1884"
     transform="scale(0.74999998)" />
  <path
     style="fill:#ffffff;stroke-width:0.473632"
     d="m 121.11647,150.50245 c -3.98193,-2.30775 -5.40704,-8.91139 -4.89725,-22.69266 0.63216,-17.08936 1.41666,-21.79408 4.76628,-28.583919 3.7671,-7.636083 11.2053,-18.234826 12.7972,-18.234826 1.0635,0 2.16429,1.72169 4.73158,7.400394 5.89418,13.037591 8.80618,24.112111 9.13812,34.752841 0.34506,11.06118 -1.19806,15.62223 -7.14965,21.13249 -2.15015,1.99071 -4.73435,3.76277 -7.52317,5.15886 -3.66977,1.83709 -4.6444,2.12508 -7.16006,2.11568 -2.12165,-0.008 -3.39818,-0.29261 -4.70305,-1.04886 z"
     id="path1886"
     transform="scale(0.74999998)" />
  <path
     style="fill:#ffffff;stroke-width:0.473632"
     d="m 184.46511,148.10318 c -2.16795,-1.03495 -10.37696,-8.12644 -15.10393,-13.04779 l -1.85674,-1.93308 -0.0378,-16.94822 c -0.0366,-16.403672 -0.003,-17.051017 1.03491,-20.147637 1.54265,-4.601034 3.12949,-8.032927 5.05696,-10.936786 1.19783,-1.804617 1.68827,-3.072731 1.69566,-4.384461 0.0185,-3.28896 2.88233,-8.239534 4.76638,-8.239534 1.05408,0 3.19816,2.536867 3.53345,4.180782 0.75431,3.698267 1.62635,5.578009 5.93731,12.79816 6.26469,10.492338 10.18953,18.424256 11.402,23.042946 1.39942,5.3308 1.546,20.24051 0.24419,24.83727 -1.14054,4.02731 -2.32239,6.2643 -4.41532,8.35722 -2.07429,2.07429 -3.99232,2.93256 -7.35292,3.29022 -2.05151,0.21833 -2.96562,0.0563 -4.90416,-0.86909 z"
     id="path1888"
     transform="scale(0.74999998)" />
  <path
     style="fill:#ffffff;stroke-width:0.473632"
     d="m 218.58109,183.10564 c -2.50564,-1.10467 -13.71093,-14.20543 -15.98507,-18.68908 -2.73048,-5.38336 -1.56078,-10.15726 5.52858,-22.56382 2.55454,-4.47052 3.81781,-7.22546 4.25534,-9.28005 0.4981,-2.33906 4.2978,-5.35214 8.8994,-7.05705 2.83672,-1.05102 4.09036,-2.24652 6.70836,-6.39723 1.81445,-2.87671 3.55144,-3.39649 4.82991,-1.4453 0.65783,1.00397 0.86672,3.18415 1.19396,12.46143 0.21815,6.18451 0.64337,14.88259 0.94493,19.32907 0.30156,4.44648 0.45427,11.16021 0.33935,14.9194 -0.18705,6.11862 -0.34684,7.16958 -1.52478,10.02849 -1.91211,4.64079 -3.69196,6.86176 -6.57442,8.20382 -2.77197,1.2906 -6.33977,1.49366 -8.61556,0.49032 z"
     id="path1890"
     transform="scale(0.74999998)" />
  <path
     style="fill:#ffffff;stroke-width:0.473632"
     d="m 179.50647,226.8914 c -3.18784,-1.09476 -6.42835,-4.3811 -6.92372,-7.02164 -0.17893,-0.95377 -0.0771,-5.79003 0.22635,-10.74723 0.98487,-16.09043 0.89943,-16.48167 -4.76641,-21.82653 -5.0689,-4.78174 -11.28297,-7.29739 -11.26544,-4.5606 0.003,0.43832 0.85304,2.60858 1.88942,4.82281 2.28492,4.88177 2.42055,7.04517 0.65951,10.5204 -3.08088,6.07983 -20.52691,20.40935 -27.79149,22.8269 -6.75586,2.24825 -17.01896,-0.6937 -22.89629,-6.56331 -2.23833,-2.2354 -3.45311,-4.03154 -5.31254,-7.85496 -4.339222,-8.92251 -5.008224,-14.57343 -2.35818,-19.91905 1.90241,-3.8375 11.79408,-13.93213 18.38754,-18.7648 4.84009,-3.54754 31.79627,-19.93612 35.4433,-21.54851 3.40777,-1.5066 7.09792,-1.33404 11.50317,0.53792 4.3646,1.8547 7.22802,4.11231 11.33172,8.93432 4.1019,4.81988 6.36467,6.45992 15.32726,11.10912 8.79571,4.56264 11.4428,6.7089 13.25513,10.7473 2.22302,4.95355 2.77272,8.78892 2.51576,17.55278 -0.36897,12.58368 -2.37638,18.17818 -8.84299,24.64479 -3.88214,3.88214 -7.6265,6.14194 -12.11322,7.31059 -3.58121,0.93278 -5.07481,0.8966 -8.26888,-0.2003 z"
     id="path1892"
     transform="scale(0.74999998)" />
</svg>
