<?xml version="1.0" standalone="no"?>
<!DOCTYPE svg PUBLIC "-//W3C//DTD SVG 20010904//EN"
 "http://www.w3.org/TR/2001/REC-SVG-20010904/DTD/svg10.dtd">
<svg version="1.0" xmlns="http://www.w3.org/2000/svg"
 width="238.000000pt" height="238.000000pt" viewBox="0 0 238.000000 238.000000"
 preserveAspectRatio="xMidYMid meet">
<metadata>
Created by potrace 1.16, written by Peter Selinger 2001-2019
</metadata>
<g transform="translate(0.000000,238.000000) scale(0.100000,-0.100000)"
fill="#000000" stroke="none">
<path d="M611 1776 l-575 -575 122 -128 c66 -70 325 -332 574 -580 l453 -453
580 580 580 580 -575 575 c-316 316 -577 575 -580 575 -3 0 -263 -258 -579
-574z m757 52 c7 -7 12 -21 12 -32 0 -12 14 -41 31 -66 16 -25 46 -76 66 -115
31 -60 37 -82 41 -153 7 -132 -29 -202 -106 -202 -28 0 -45 11 -95 59 l-61 59
-4 123 c-3 108 -1 131 17 181 12 31 28 61 36 68 7 6 11 18 8 26 -5 15 21 64
35 64 5 0 13 -5 20 -12z m-347 -69 c84 -160 114 -335 71 -419 -22 -45 -103
-100 -147 -100 -68 0 -84 50 -73 229 7 126 12 143 78 244 43 66 56 75 71 46z
m-302 -269 c64 -54 69 -60 91 -131 18 -55 22 -84 18 -142 -8 -113 -28 -139
-116 -153 -48 -8 -80 16 -92 71 -15 64 -3 237 20 287 11 24 20 52 20 64 0 19
8 34 18 34 2 0 21 -14 41 -30z m1037 -55 c0 -39 4 -124 9 -191 6 -89 5 -130
-5 -160 -19 -58 -46 -84 -91 -84 -32 0 -43 6 -71 41 -18 23 -46 56 -62 75 -42
50 -38 98 13 183 23 37 41 74 41 83 0 20 32 47 66 57 16 4 34 16 39 27 20 38
27 45 43 42 14 -3 17 -17 18 -73z m-486 -164 c19 -10 49 -36 65 -59 22 -31 51
-51 113 -82 76 -37 85 -44 104 -87 27 -61 22 -197 -9 -258 -53 -101 -172 -147
-229 -90 -25 26 -26 28 -19 128 7 102 7 103 -20 135 -30 36 -80 66 -95 57 -5
-3 0 -21 11 -40 31 -53 19 -85 -57 -153 -97 -85 -150 -114 -199 -107 -71 11
-120 39 -147 86 -37 64 -51 115 -43 157 9 49 116 153 219 212 43 25 108 64
145 87 72 45 94 47 161 14z"/>
</g>
</svg>
