<?xml version="1.0" standalone="no"?>
<!DOCTYPE svg PUBLIC "-//W3C//DTD SVG 20010904//EN"
 "http://www.w3.org/TR/2001/REC-SVG-20010904/DTD/svg10.dtd">
<svg version="1.0" xmlns="http://www.w3.org/2000/svg"
 width="286.000000pt" height="289.000000pt" viewBox="0 0 286.000000 289.000000"
 preserveAspectRatio="xMidYMid meet">
<metadata>
Created by potrace 1.16, written by Peter Selinger 2001-2019
</metadata>
<g transform="translate(0.000000,289.000000) scale(0.100000,-0.100000)"
fill="#000000" stroke="none">
<path d="M240 1450 l0 -1200 1200 0 1200 0 0 1200 0 1200 -1200 0 -1200 0 0
-1200z m1480 1107 c209 -55 377 -151 526 -301 130 -131 211 -255 268 -416 221
-615 -110 -1289 -729 -1483 -128 -40 -200 -51 -345 -51 -145 0 -217 11 -345
51 -564 177 -904 771 -771 1347 50 214 149 391 310 552 178 179 373 276 656
328 14 2 95 3 180 1 126 -2 172 -7 250 -28z"/>
<path d="M1620 2301 c-5 -11 -10 -34 -10 -51 0 -17 -11 -48 -25 -69 -53 -79
-68 -137 -73 -276 -2 -73 1 -163 7 -204 11 -70 14 -76 79 -147 84 -93 136
-122 193 -105 44 13 71 39 102 96 20 36 22 55 22 180 l0 140 -46 95 c-25 52
-71 132 -102 178 -32 45 -57 91 -57 101 0 10 -5 32 -11 50 -9 25 -16 31 -40
31 -18 0 -32 -7 -39 -19z"/>
<path d="M1046 2125 c-101 -154 -114 -207 -118 -480 -1 -124 11 -175 49 -205
43 -34 97 -27 186 25 86 51 108 81 126 178 19 104 -21 353 -69 432 -10 17 -28
56 -40 88 -37 97 -47 94 -134 -38z"/>
<path d="M2222 1818 c-5 -7 -19 -31 -30 -54 -17 -34 -27 -42 -57 -47 -53 -9
-90 -40 -104 -89 -7 -24 -33 -75 -57 -115 -65 -104 -77 -139 -70 -196 4 -36
12 -54 32 -69 14 -12 46 -52 70 -90 49 -76 91 -108 145 -108 61 0 100 35 127
115 30 87 32 193 7 385 -11 84 -15 156 -10 193 4 39 2 63 -6 73 -14 17 -33 18
-47 2z"/>
<path d="M616 1798 c-3 -7 -7 -28 -10 -47 -3 -18 -18 -61 -33 -95 -27 -59 -28
-66 -28 -246 0 -161 3 -191 19 -228 15 -34 27 -44 58 -54 45 -13 124 1 174 31
69 42 92 250 45 401 -35 113 -54 144 -110 178 -27 17 -55 40 -61 52 -12 22
-48 27 -54 8z"/>
<path d="M1345 1442 c-22 -14 -105 -64 -185 -110 -188 -109 -251 -154 -333
-242 -79 -83 -87 -100 -87 -180 0 -51 7 -73 48 -152 46 -91 48 -94 113 -126
94 -47 168 -53 235 -19 71 36 159 105 237 185 58 60 67 75 67 106 0 43 -20 95
-43 115 -24 20 -21 31 10 31 61 0 167 -95 183 -165 4 -18 3 -54 -2 -81 -5 -27
-11 -83 -14 -125 l-6 -75 35 -37 c32 -35 38 -37 96 -37 202 0 327 198 292 463
-18 140 -47 173 -212 242 -71 29 -93 47 -139 111 -78 112 -207 154 -295 96z"/>
</g>
</svg>
