<?xml version="1.0" standalone="no"?>
<!DOCTYPE svg PUBLIC "-//W3C//DTD SVG 20010904//EN"
 "http://www.w3.org/TR/2001/REC-SVG-20010904/DTD/svg10.dtd">
<svg version="1.0" xmlns="http://www.w3.org/2000/svg"
 width="288.000000pt" height="289.000000pt" viewBox="0 0 288.000000 289.000000"
 preserveAspectRatio="xMidYMid meet">
<metadata>
Created by potrace 1.16, written by Peter Selinger 2001-2019
</metadata>
<g transform="translate(0.000000,289.000000) scale(0.100000,-0.100000)"
fill="#000000" stroke="none">
<path d="M240 1450 l0 -1200 1200 0 1200 0 0 1200 0 1200 -1200 0 -1200 0 0
-1200z m1508 702 c99 -42 204 -105 246 -148 78 -81 129 -221 128 -354 -1 -153
-59 -280 -178 -390 -163 -150 -398 -182 -603 -83 -73 35 -191 148 -229 220
-114 216 -77 468 93 638 108 108 230 157 380 152 74 -3 103 -9 163 -35z m-675
-94 c-63 -83 -112 -190 -129 -286 -17 -97 -17 -137 1 -235 34 -193 169 -373
348 -464 171 -86 427 -83 596 7 227 121 366 373 346 625 l-7 80 54 -66 c53
-65 198 -272 198 -284 0 -3 -27 -46 -60 -95 -331 -493 -708 -715 -1080 -636
-289 61 -596 298 -853 659 l-56 78 61 87 c176 253 360 437 548 548 41 24 76
44 78 44 1 0 -19 -28 -45 -62z"/>
<path d="M1639 1980 c60 -83 74 -186 36 -277 -19 -45 -92 -121 -140 -145 -60
-31 -175 -36 -242 -10 -63 24 -65 19 -23 -65 35 -70 95 -130 172 -170 49 -26
62 -28 163 -28 106 0 112 1 173 34 76 41 135 103 170 179 23 49 27 70 27 152
-1 84 -4 102 -30 155 -55 114 -168 198 -285 212 l-52 6 31 -43z"/>
</g>
</svg>
