<?xml version="1.0" standalone="no"?>
<!DOCTYPE svg PUBLIC "-//W3C//DTD SVG 20010904//EN"
 "http://www.w3.org/TR/2001/REC-SVG-20010904/DTD/svg10.dtd">
<svg version="1.0" xmlns="http://www.w3.org/2000/svg"
 width="238.000000pt" height="238.000000pt" viewBox="0 0 238.000000 238.000000"
 preserveAspectRatio="xMidYMid meet">
<metadata>
Created by potrace 1.16, written by Peter Selinger 2001-2019
</metadata>
<g transform="translate(0.000000,238.000000) scale(0.100000,-0.100000)"
fill="#000000" stroke="none">
<path d="M612 1777 c-314 -314 -572 -577 -572 -582 0 -13 1142 -1155 1155
-1155 6 0 269 259 585 575 l575 575 -580 580 c-319 319 -582 580 -585 580 -3
0 -263 -258 -578 -573z m340 -193 c-45 -41 -71 -75 -99 -132 -37 -75 -38 -78
-38 -191 0 -110 2 -120 32 -184 42 -88 117 -163 208 -208 67 -33 74 -34 185
-34 111 0 118 1 185 34 90 44 162 116 206 206 33 67 34 74 34 186 l0 117 -41
81 c-41 79 -41 80 -15 66 87 -45 338 -290 357 -348 8 -24 -54 -103 -164 -209
-240 -231 -485 -326 -731 -284 -215 37 -420 168 -618 394 -40 47 -73 90 -73
97 0 7 46 61 101 119 154 161 307 269 457 322 37 13 69 24 71 24 3 0 -23 -25
-57 -56z m431 8 c70 -32 149 -111 183 -185 25 -53 29 -75 29 -147 0 -76 -4
-93 -32 -151 -39 -79 -102 -140 -181 -177 -48 -22 -71 -27 -142 -27 -71 0 -94
5 -142 27 -79 37 -142 98 -181 177 -30 62 -32 72 -33 181 -2 132 8 182 43 228
29 39 91 72 135 72 18 0 51 7 73 15 56 21 185 14 248 -13z"/>
<path d="M1278 1407 c3 -55 0 -67 -26 -108 -35 -54 -97 -89 -160 -89 -49 0
-51 -7 -17 -66 70 -119 241 -134 333 -28 109 123 50 311 -108 347 -26 6 -26 6
-22 -56z"/>
</g>
</svg>
