<?xml version="1.0" encoding="UTF-8" standalone="no"?>
<svg
   xmlns:dc="http://purl.org/dc/elements/1.1/"
   xmlns:cc="http://creativecommons.org/ns#"
   xmlns:rdf="http://www.w3.org/1999/02/22-rdf-syntax-ns#"
   xmlns:svg="http://www.w3.org/2000/svg"
   xmlns="http://www.w3.org/2000/svg"
   xmlns:sodipodi="http://sodipodi.sourceforge.net/DTD/sodipodi-0.dtd"
   xmlns:inkscape="http://www.inkscape.org/namespaces/inkscape"
   version="1.0"
   width="288.000000pt"
   height="289.000000pt"
   viewBox="0 0 288.000000 289.000000"
   preserveAspectRatio="xMidYMid meet"
   id="svg1916"
   sodipodi:docname="auspex.svg"
   inkscape:version="1.0.1 (3bc2e813f5, 2020-09-07)">
  <defs
     id="defs1920" />
  <sodipodi:namedview
     pagecolor="#ffffff"
     bordercolor="#666666"
     borderopacity="1"
     objecttolerance="10"
     gridtolerance="10"
     guidetolerance="10"
     inkscape:pageopacity="0"
     inkscape:pageshadow="2"
     inkscape:window-width="1600"
     inkscape:window-height="837"
     id="namedview1918"
     showgrid="false"
     inkscape:zoom="1.7387543"
     inkscape:cx="192"
     inkscape:cy="192.66667"
     inkscape:window-x="-8"
     inkscape:window-y="-8"
     inkscape:window-maximized="1"
     inkscape:current-layer="svg1916" />
  <metadata
     id="metadata1908">
Created by potrace 1.16, written by Peter Selinger 2001-2019
<rdf:RDF>
  <cc:Work
     rdf:about="">
    <dc:format>image/svg+xml</dc:format>
    <dc:type
       rdf:resource="http://purl.org/dc/dcmitype/StillImage" />
  </cc:Work>
</rdf:RDF>
</metadata>
  <g
     transform="translate(0.000000,289.000000) scale(0.100000,-0.100000)"
     fill="#000000"
     stroke="none"
     id="g1914">
    <path
       d="M240 1450 l0 -1200 1200 0 1200 0 0 1200 0 1200 -1200 0 -1200 0 0 -1200z m1508 702 c99 -42 204 -105 246 -148 78 -81 129 -221 128 -354 -1 -153 -59 -280 -178 -390 -163 -150 -398 -182 -603 -83 -73 35 -191 148 -229 220 -114 216 -77 468 93 638 108 108 230 157 380 152 74 -3 103 -9 163 -35z m-675 -94 c-63 -83 -112 -190 -129 -286 -17 -97 -17 -137 1 -235 34 -193 169 -373 348 -464 171 -86 427 -83 596 7 227 121 366 373 346 625 l-7 80 54 -66 c53 -65 198 -272 198 -284 0 -3 -27 -46 -60 -95 -331 -493 -708 -715 -1080 -636 -289 61 -596 298 -853 659 l-56 78 61 87 c176 253 360 437 548 548 41 24 76 44 78 44 1 0 -19 -28 -45 -62z"
       id="path1910" />
    <path
       d="M1639 1980 c60 -83 74 -186 36 -277 -19 -45 -92 -121 -140 -145 -60 -31 -175 -36 -242 -10 -63 24 -65 19 -23 -65 35 -70 95 -130 172 -170 49 -26 62 -28 163 -28 106 0 112 1 173 34 76 41 135 103 170 179 23 49 27 70 27 152 -1 84 -4 102 -30 155 -55 114 -168 198 -285 212 l-52 6 31 -43z"
       id="path1912" />
  </g>
  <path
     style="fill:#ffffff;stroke-width:0.575124"
     d="m 202.6398,235.18898 c -8.76533,-1.19158 -20.41278,-4.99174 -26.47474,-8.63779 -7.96707,-4.79192 -20.22704,-16.52989 -25.52444,-24.43766 -5.28945,-7.89591 -9.19021,-19.51422 -10.43573,-31.08253 -2.15743,-20.03804 5.40162,-41.0891 20.10752,-55.9971 10.86061,-11.00987 22.14132,-17.335718 35.49928,-19.906818 6.72956,-1.295285 20.06761,-1.283638 26.2425,0.02292 11.73343,2.482688 35.04165,14.930568 43.16196,23.050868 15.19288,15.19289 21.46883,44.56553 14.37478,67.27674 -3.30621,10.58465 -9.13105,19.87956 -18.11553,28.90755 -13.47796,13.54323 -29.27105,20.46445 -48.1958,21.12148 -3.63766,0.12629 -8.42557,-0.0167 -10.6398,-0.31766 z m 20.75541,-21.16708 c 4.99052,-0.37403 6.4302,-0.73311 10.29175,-2.56696 12.89176,-6.12226 22.78943,-16.32855 27.39895,-28.25325 2.10117,-5.43567 2.77371,-12.88451 2.18316,-24.1798 -0.31372,-6.00042 -0.60314,-7.48119 -2.21668,-11.34149 -5.01977,-12.00952 -14.03131,-21.60118 -25.54226,-27.18657 -2.8954,-1.40491 -6.95762,-2.94456 -9.02717,-3.42145 -4.4145,-1.01722 -12.05311,-1.80873 -12.05311,-1.24893 0,0.21374 1.42992,2.42927 3.17761,4.9234 4.09117,5.83854 6.2863,10.73397 7.5008,16.72774 1.58477,7.82114 0.27877,16.72889 -3.36992,22.98511 -2.44008,4.18386 -12.54493,14.25403 -16.32384,16.2678 -4.89025,2.606 -11.06563,3.9061 -18.6027,3.9164 -6.94648,0.009 -9.5725,-0.39389 -15.17497,-2.33103 -4.84288,-1.67449 -6.09255,-1.58055 -6.09255,0.45802 0,2.22945 4.99736,12.24145 8.27847,16.58559 4.99035,6.60711 12.47139,12.48906 20.92224,16.45007 3.34046,1.56572 4.73308,1.86224 10.19531,2.17082 9.23175,0.52152 12.00121,0.52821 18.45491,0.0445 z"
     id="path1922"
     transform="scale(0.74999999)" />
  <path
     style="fill:#ffffff;stroke-width:0.575124"
     d="m 190.56219,292.98206 c -8.55962,-1.19562 -11.19124,-1.68731 -16.91659,-3.16062 -20.15665,-5.18693 -42.14334,-17.61046 -62.79008,-35.47941 -7.82103,-6.7688 -22.965717,-22.27202 -29.910551,-30.61865 -5.455239,-6.55636 -12.469494,-15.74782 -19.425683,-25.45535 l -3.610426,-5.03844 5.92034,-8.47698 c 21.680332,-31.04279 42.08006,-52.98877 63.46931,-68.28012 5.17933,-3.70274 19.18745,-12.37498 19.98911,-12.37498 0.23401,0 -1.34439,2.39396 -3.50757,5.3199 -18.81056,25.44349 -24.08014,51.95448 -15.90949,80.03989 4.16249,14.30795 14.44917,30.22822 26.25137,40.62817 17.03245,15.00878 36.001,21.38907 60.88305,20.47872 16.40701,-0.60027 29.49436,-4.19691 41.12139,-11.30089 20.46252,-12.50235 35.56478,-33.87275 40.57078,-57.40955 1.42249,-6.68812 2.04499,-20.51842 1.26064,-28.00798 -0.29814,-2.84686 -0.50471,-5.2297 -0.45905,-5.29519 0.2415,-0.34638 10.97435,13.56939 17.61316,22.83648 9.51769,13.28575 14.91795,21.46412 14.91795,22.59238 0,0.47786 -2.81132,5.10118 -6.24738,10.27405 -34.04277,51.2502 -70.9458,80.73603 -109.67437,87.63074 -4.97816,0.88624 -20.03487,1.58826 -23.54591,1.09783 z"
     id="path1924"
     transform="scale(0.74999999)" />
</svg>
