<?xml version="1.0" standalone="no"?>
<!DOCTYPE svg PUBLIC "-//W3C//DTD SVG 20010904//EN"
 "http://www.w3.org/TR/2001/REC-SVG-20010904/DTD/svg10.dtd">
<svg version="1.0" xmlns="http://www.w3.org/2000/svg"
 width="238.000000pt" height="238.000000pt" viewBox="0 0 238.000000 238.000000"
 preserveAspectRatio="xMidYMid meet">
<metadata>
Created by potrace 1.16, written by Peter Selinger 2001-2019
</metadata>
<g transform="translate(0.000000,238.000000) scale(0.100000,-0.100000)"
fill="#000000" stroke="none">
<path d="M612 1777 c-314 -314 -572 -574 -572 -577 0 -3 260 -265 578 -583
l577 -577 580 581 580 581 -580 574 c-319 316 -582 574 -585 574 -3 0 -263
-258 -578 -573z m958 56 c-1 -5 -50 -60 -110 -123 l-108 -115 174 -3 c96 -1
174 -6 174 -10 0 -4 -82 -86 -182 -182 l-182 -175 141 -5 141 -5 -299 -343
-299 -342 -90 0 c-50 0 -90 2 -90 5 0 2 81 118 179 257 l180 253 -140 5 -139
5 140 170 141 170 -171 3 c-95 1 -170 6 -168 11 2 5 55 104 118 220 l114 211
238 0 c131 0 238 -3 238 -7z"/>
</g>
</svg>
