<?xml version="1.0" encoding="UTF-8" standalone="no"?>
<svg
   xmlns:dc="http://purl.org/dc/elements/1.1/"
   xmlns:cc="http://creativecommons.org/ns#"
   xmlns:rdf="http://www.w3.org/1999/02/22-rdf-syntax-ns#"
   xmlns:svg="http://www.w3.org/2000/svg"
   xmlns="http://www.w3.org/2000/svg"
   xmlns:sodipodi="http://sodipodi.sourceforge.net/DTD/sodipodi-0.dtd"
   xmlns:inkscape="http://www.inkscape.org/namespaces/inkscape"
   version="1.0"
   width="288.000000pt"
   height="289.000000pt"
   viewBox="0 0 288.000000 289.000000"
   preserveAspectRatio="xMidYMid meet"
   id="svg1976"
   sodipodi:docname="celerity.svg"
   inkscape:version="1.0.1 (3bc2e813f5, 2020-09-07)">
  <defs
     id="defs1980" />
  <sodipodi:namedview
     pagecolor="#ffffff"
     bordercolor="#666666"
     borderopacity="1"
     objecttolerance="10"
     gridtolerance="10"
     guidetolerance="10"
     inkscape:pageopacity="0"
     inkscape:pageshadow="2"
     inkscape:window-width="1600"
     inkscape:window-height="837"
     id="namedview1978"
     showgrid="false"
     inkscape:zoom="1.7387543"
     inkscape:cx="192"
     inkscape:cy="192.66667"
     inkscape:window-x="-8"
     inkscape:window-y="-8"
     inkscape:window-maximized="1"
     inkscape:current-layer="svg1976" />
  <metadata
     id="metadata1970">
Created by potrace 1.16, written by Peter Selinger 2001-2019
<rdf:RDF>
  <cc:Work
     rdf:about="">
    <dc:format>image/svg+xml</dc:format>
    <dc:type
       rdf:resource="http://purl.org/dc/dcmitype/StillImage" />
  </cc:Work>
</rdf:RDF>
</metadata>
  <g
     transform="translate(0.000000,289.000000) scale(0.100000,-0.100000)"
     fill="#000000"
     stroke="none"
     id="g1974">
    <path
       d="M240 1450 l0 -1200 1200 0 1200 0 0 1200 0 1200 -1200 0 -1200 0 0 -1200z m1824 1008 c-11 -13 -96 -105 -188 -205 l-168 -183 289 -1 288 0 -295 -289 -295 -290 226 -2 226 -3 -480 -553 -480 -552 -153 0 -153 0 290 409 c159 226 289 412 289 415 0 3 -99 6 -220 6 -121 0 -220 2 -220 5 0 3 103 130 229 283 l228 277 -274 3 c-151 1 -273 6 -271 11 2 4 86 162 187 350 l184 341 390 0 390 0 -19 -22z"
       id="path1972" />
  </g>
  <path
     style="fill:#ffffff;stroke-width:0.575124"
     d="m 120.83687,330.55274 c 29.62151,-41.69352 68.17337,-96.52497 72.59242,-103.24652 0.88806,-1.35078 1.44063,-2.63 1.22793,-2.8427 -0.2127,-0.2127 -13.16932,-0.53095 -28.79249,-0.70721 -15.62317,-0.17627 -28.56543,-0.48017 -28.76058,-0.67534 -0.19515,-0.19517 0.87263,-1.87741 2.37285,-3.73831 5.76766,-7.15432 26.4274,-32.39041 41.77071,-51.02337 8.81285,-10.70236 15.9373,-19.531 15.8321,-19.6192 -0.10519,-0.0882 -15.84901,-0.4348 -34.98628,-0.77019 -19.13726,-0.3354 -35.34514,-0.82378 -36.0175,-1.08528 -1.39982,-0.54444 -3.74393,4.04463 29.25313,-57.268998 L 173.82261,55.21194 h 51.43076 c 48.217,0 51.38143,0.06074 50.64143,0.972105 -0.43413,0.534657 -11.46507,12.616167 -24.51321,26.847799 -13.04813,14.231632 -23.72388,26.087466 -23.72388,26.346306 0,0.25883 17.12715,0.47061 38.06034,0.47061 h 38.06034 l -18.64989,18.2531 c -31.35008,30.6831 -58.89959,57.85901 -59.07646,58.27534 -0.0923,0.21732 13.17149,0.58752 29.47513,0.82266 16.30364,0.23514 29.64298,0.52882 29.64298,0.65261 0,0.1238 -19.73396,22.9447 -43.85323,50.71311 -24.11928,27.76842 -52.65264,60.62546 -63.40747,73.01563 l -19.55423,22.5276 -20.03605,0.0192 -20.03606,0.0192 z"
     id="path1982"
     transform="scale(0.74999999)" />
</svg>
