<?xml version="1.0" standalone="no"?>
<!DOCTYPE svg PUBLIC "-//W3C//DTD SVG 20010904//EN"
 "http://www.w3.org/TR/2001/REC-SVG-20010904/DTD/svg10.dtd">
<svg version="1.0" xmlns="http://www.w3.org/2000/svg"
 width="288.000000pt" height="289.000000pt" viewBox="0 0 288.000000 289.000000"
 preserveAspectRatio="xMidYMid meet">
<metadata>
Created by potrace 1.16, written by Peter Selinger 2001-2019
</metadata>
<g transform="translate(0.000000,289.000000) scale(0.100000,-0.100000)"
fill="#000000" stroke="none">
<path d="M240 1450 l0 -1200 1200 0 1200 0 0 1200 0 1200 -1200 0 -1200 0 0
-1200z m1824 1008 c-11 -13 -96 -105 -188 -205 l-168 -183 289 -1 288 0 -295
-289 -295 -290 226 -2 226 -3 -480 -553 -480 -552 -153 0 -153 0 290 409 c159
226 289 412 289 415 0 3 -99 6 -220 6 -121 0 -220 2 -220 5 0 3 103 130 229
283 l228 277 -274 3 c-151 1 -273 6 -271 11 2 4 86 162 187 350 l184 341 390
0 390 0 -19 -22z"/>
</g>
</svg>
