<?xml version="1.0" standalone="no"?>
<!DOCTYPE svg PUBLIC "-//W3C//DTD SVG 20010904//EN"
 "http://www.w3.org/TR/2001/REC-SVG-20010904/DTD/svg10.dtd">
<svg version="1.0" xmlns="http://www.w3.org/2000/svg"
 width="286.000000pt" height="289.000000pt" viewBox="0 0 286.000000 289.000000"
 preserveAspectRatio="xMidYMid meet">
<metadata>
Created by potrace 1.16, written by Peter Selinger 2001-2019
</metadata>
<g transform="translate(0.000000,289.000000) scale(0.100000,-0.100000)"
fill="#000000" stroke="none">
<path d="M240 1450 l0 -1200 1200 0 1200 0 0 1200 0 1200 -1200 0 -1200 0 0
-1200z m1365 1041 c186 -45 339 -133 481 -275 150 -150 251 -327 311 -544 24
-88 27 -114 27 -282 1 -155 -2 -195 -18 -250 -54 -181 -126 -303 -255 -431
-142 -141 -302 -231 -508 -286 -85 -22 -119 -26 -258 -27 -139 -1 -170 2 -239
22 -372 107 -632 439 -675 862 -18 168 20 352 100 487 47 78 178 214 261 270
135 89 317 149 488 159 351 21 646 -202 756 -573 35 -117 44 -298 20 -393 -50
-201 -205 -371 -414 -456 -112 -45 -181 -58 -302 -59 -95 0 -127 4 -183 23
-172 60 -309 209 -374 407 -31 98 -43 268 -23 343 54 202 239 346 490 383 238
34 428 -109 486 -368 34 -152 4 -276 -86 -357 -93 -84 -263 -132 -376 -107
-48 11 -66 22 -109 65 -58 57 -82 114 -92 212 -8 81 2 126 35 165 67 81 246
102 300 36 8 -9 16 -34 19 -55 4 -33 1 -44 -24 -72 -24 -27 -38 -33 -81 -38
-56 -5 -57 -7 -42 -64 15 -51 37 -61 105 -49 125 23 172 73 162 170 -12 114
-59 202 -128 240 -36 21 -51 23 -128 19 -143 -7 -263 -75 -315 -180 -82 -163
31 -457 208 -543 185 -89 497 16 626 210 82 123 78 337 -10 520 -129 268 -373
375 -673 294 -242 -65 -443 -258 -486 -467 -53 -259 65 -588 272 -760 70 -58
196 -119 282 -137 288 -60 662 81 841 318 62 82 120 205 139 292 65 309 -72
702 -317 906 -137 114 -274 171 -464 193 -107 12 -120 16 -141 40 -39 46 -25
122 28 153 32 18 175 10 284 -16z"/>
</g>
</svg>
