<?xml version="1.0" standalone="no"?>
<!DOCTYPE svg PUBLIC "-//W3C//DTD SVG 20010904//EN"
 "http://www.w3.org/TR/2001/REC-SVG-20010904/DTD/svg10.dtd">
<svg version="1.0" xmlns="http://www.w3.org/2000/svg"
 width="238.000000pt" height="238.000000pt" viewBox="0 0 238.000000 238.000000"
 preserveAspectRatio="xMidYMid meet">
<metadata>
Created by potrace 1.16, written by Peter Selinger 2001-2019
</metadata>
<g transform="translate(0.000000,238.000000) scale(0.100000,-0.100000)"
fill="#000000" stroke="none">
<path d="M610 1775 l-575 -575 110 -112 c60 -62 319 -323 574 -580 l464 -467
579 571 c318 314 578 576 578 582 0 11 -1140 1156 -1150 1156 -3 0 -264 -259
-580 -575z m717 150 c118 -40 179 -79 278 -179 104 -105 157 -196 201 -341 37
-126 40 -295 6 -405 -90 -289 -376 -490 -699 -490 -165 0 -288 53 -414 179
-71 70 -94 101 -127 171 -53 111 -72 195 -72 311 0 163 47 278 160 389 190
187 504 237 703 111 147 -94 256 -300 257 -486 1 -262 -246 -471 -533 -453
-171 11 -297 124 -352 313 -56 191 10 347 182 432 65 32 86 37 162 41 109 5
172 -18 231 -85 75 -85 110 -238 76 -328 -38 -98 -155 -161 -282 -153 -54 3
-69 9 -95 33 -62 58 -93 172 -65 238 21 53 67 77 143 77 53 0 64 -3 77 -22 36
-51 12 -101 -55 -115 -34 -8 -35 -9 -27 -40 8 -30 12 -33 49 -33 45 0 113 31
123 55 20 54 -5 145 -56 198 l-37 40 -73 -5 c-162 -11 -255 -114 -229 -254 30
-161 124 -254 257 -254 163 0 312 98 350 229 42 142 -30 345 -154 436 -189
139 -523 43 -634 -183 -29 -59 -33 -78 -36 -164 -3 -79 0 -112 19 -174 51
-173 181 -309 334 -349 241 -62 540 74 649 296 50 101 64 191 48 305 -45 307
-258 528 -530 551 -61 5 -81 11 -99 29 -29 29 -29 54 -1 89 21 27 23 28 104
22 48 -3 115 -17 161 -32z"/>
</g>
</svg>
