<?xml version="1.0" encoding="UTF-8" standalone="no"?>
<svg
   xmlns:dc="http://purl.org/dc/elements/1.1/"
   xmlns:cc="http://creativecommons.org/ns#"
   xmlns:rdf="http://www.w3.org/1999/02/22-rdf-syntax-ns#"
   xmlns:svg="http://www.w3.org/2000/svg"
   xmlns="http://www.w3.org/2000/svg"
   xmlns:sodipodi="http://sodipodi.sourceforge.net/DTD/sodipodi-0.dtd"
   xmlns:inkscape="http://www.inkscape.org/namespaces/inkscape"
   version="1.0"
   width="288.000000pt"
   height="289.000000pt"
   viewBox="0 0 288.000000 289.000000"
   preserveAspectRatio="xMidYMid meet"
   id="svg184"
   sodipodi:docname="combat.svg"
   inkscape:version="1.0.1 (3bc2e813f5, 2020-09-07)">
  <defs
     id="defs188" />
  <sodipodi:namedview
     pagecolor="#ffffff"
     bordercolor="#666666"
     borderopacity="1"
     objecttolerance="10"
     gridtolerance="10"
     guidetolerance="10"
     inkscape:pageopacity="0"
     inkscape:pageshadow="2"
     inkscape:window-width="1600"
     inkscape:window-height="837"
     id="namedview186"
     showgrid="false"
     inkscape:zoom="1.7387543"
     inkscape:cx="192"
     inkscape:cy="192.66667"
     inkscape:window-x="-8"
     inkscape:window-y="-8"
     inkscape:window-maximized="1"
     inkscape:current-layer="svg184" />
  <metadata
     id="metadata174">
Created by potrace 1.16, written by Peter Selinger 2001-2019
<rdf:RDF>
  <cc:Work
     rdf:about="">
    <dc:format>image/svg+xml</dc:format>
    <dc:type
       rdf:resource="http://purl.org/dc/dcmitype/StillImage" />
  </cc:Work>
</rdf:RDF>
</metadata>
  <g
     transform="translate(0.000000,289.000000) scale(0.100000,-0.100000)"
     fill="#000000"
     stroke="none"
     id="g182">
    <path
       d="M240 1450 l0 -1200 1200 0 1200 0 0 1200 0 1200 -1200 0 -1200 0 0 -1200z m1301 1129 c173 -17 318 -62 461 -142 187 -105 364 -290 462 -484 158 -315 158 -711 0 -1026 -98 -194 -275 -379 -462 -484 -351 -196 -773 -196 -1124 0 -187 105 -364 290 -461 483 -194 384 -151 857 107 1201 62 82 203 215 283 267 189 122 351 173 614 195 9 0 63 -4 120 -10z"
       id="path176" />
    <path
       d="M1285 2275 c-380 -71 -662 -379 -701 -767 l-7 -68 167 0 166 0 0 33 c0 99 58 232 138 319 98 106 222 170 347 179 l50 4 3 -157 3 -158 -73 0 -73 0 172 -172 173 -173 165 165 c91 91 165 168 165 172 0 5 -43 8 -95 8 l-95 0 0 279 0 279 -77 26 c-143 47 -287 57 -428 31z"
       id="path178" />
    <path
       d="M1028 1393 c-87 -87 -158 -162 -158 -166 0 -4 40 -7 89 -7 l88 0 -5 -275 -5 -275 64 -29 c111 -49 199 -66 344 -65 156 1 246 22 380 88 218 108 386 316 445 550 30 118 29 122 -26 130 -26 3 -95 6 -155 6 l-108 0 -16 -57 c-67 -232 -275 -393 -507 -393 l-68 0 0 155 0 154 87 3 87 3 -178 165 c-98 91 -183 166 -190 168 -6 1 -82 -69 -168 -155z"
       id="path180" />
  </g>
  <path
     style="fill:#ffffff;stroke-width:0.575124"
     d="M 181.3602,345.28827 C 133.00513,341.2643 91.41214,316.6007 64.296385,275.87237 42.368802,242.93676 34.81332,201.48358 43.359956,161.00456 47.99307,139.06097 58.48652,116.66456 72.188124,99.475945 76.64267,93.887732 89.455873,81.107308 96.816915,74.910158 113.59652,60.783669 135.33379,50.054674 156.98334,45.213464 c 11.92726,-2.66714 30.68494,-5.147844 35.22533,-4.658551 1.30866,0.141028 5.48506,0.535409 9.28088,0.876402 33.9315,3.048196 60.45143,13.221434 84.54239,32.43107 7.57419,6.039508 20.11421,18.715168 25.95184,26.232555 17.44344,22.46271 26.34893,43.56155 30.81954,73.0175 1.13801,7.49808 0.95956,34.90388 -0.27632,42.43642 -4.71227,28.72084 -14.14243,50.43792 -31.2702,72.01333 -5.00654,6.30662 -19.23501,20.53097 -25.51153,25.50415 -20.67301,16.38022 -45.04045,26.81633 -72.17811,30.91251 -7.27553,1.09818 -25.72955,1.84845 -32.20696,1.30942 z m 32.72366,-38.13826 c 11.60186,-2.02345 24.8139,-7.09097 36.36927,-13.94953 19.5866,-11.62542 34.34123,-27.69946 44.50523,-48.48506 4.35854,-8.9133 6.08613,-13.66207 8.62757,-23.71537 1.90431,-7.53299 2.19658,-12.23986 0.84401,-13.59242 -1.47685,-1.47685 -5.69986,-1.80066 -23.48356,-1.80066 H 263.7823 l -1.97784,6.61393 c -6.28681,21.02321 -20.36067,37.63276 -39.47248,46.58426 -8.7254,4.08675 -19.47709,6.31776 -30.47576,6.32379 l -6.18259,0.003 v -20.35779 -20.3578 l 11.50249,-0.42 c 6.32637,-0.231 11.50249,-0.62706 11.50249,-0.88012 0,-0.25308 -0.74438,-1.0612 -1.65418,-1.79584 -0.9098,-0.73464 -8.60927,-7.79168 -17.10995,-15.68229 -18.67439,-17.33421 -29.40598,-26.77482 -30.4362,-26.77482 -2.68405,0 -44.87511,41.88396 -43.53799,43.22109 0.30234,0.30234 5.66109,0.70646 11.90833,0.89805 l 11.35861,0.34833 -0.49068,29.38368 c -0.26987,16.16102 -0.49068,32.59677 -0.49068,36.52389 v 7.14021 l 6.32637,2.83385 c 11.4961,5.14958 21.30047,7.89608 32.20696,9.02214 8.68598,0.8968 29.41722,0.2942 37.32466,-1.08491 z m 50.38181,-141.98165 c 0,-0.96226 -3.39623,-1.25791 -14.45,-1.25791 H 239.1602 v -37.2805 -37.28049 l -9.34577,-2.965435 c -11.07168,-3.513069 -14.89404,-4.409513 -23.75424,-5.570983 -26.6952,-3.499434 -55.36271,3.286224 -77.98062,18.45817 -28.788907,19.311398 -46.961097,50.116958 -50.513879,85.631278 -0.348082,3.4795 -0.757691,6.90868 -0.910241,7.6204 l -0.277365,1.29403 h 22.655998 22.655997 l 0.29052,-6.47015 c 0.20851,-4.64368 0.72203,-7.93133 1.81909,-11.64627 2.03303,-6.88432 6.86084,-16.65282 11.32878,-22.92242 6.20888,-8.71256 17.58025,-18.34733 27.65918,-23.43516 7.30266,-3.68638 19.8637,-6.82766 27.3432,-6.83803 l 2.44427,-0.003 0.001,8.19552 c 5.8e-4,4.50754 0.1714,13.82456 0.37916,20.70448 l 0.37774,12.50896 H 183.3232 173.31337 l 23.28988,23.31747 23.28987,23.31747 22.28607,-22.41901 c 12.2576,-12.33046 22.28633,-22.66157 22.28633,-22.95802 z"
     id="path190"
     transform="scale(0.74999999)" />
</svg>
