<?xml version="1.0" standalone="no"?>
<!DOCTYPE svg PUBLIC "-//W3C//DTD SVG 20010904//EN"
 "http://www.w3.org/TR/2001/REC-SVG-20010904/DTD/svg10.dtd">
<svg version="1.0" xmlns="http://www.w3.org/2000/svg"
 width="288.000000pt" height="289.000000pt" viewBox="0 0 288.000000 289.000000"
 preserveAspectRatio="xMidYMid meet">
<metadata>
Created by potrace 1.16, written by Peter Selinger 2001-2019
</metadata>
<g transform="translate(0.000000,289.000000) scale(0.100000,-0.100000)"
fill="#000000" stroke="none">
<path d="M240 1450 l0 -1200 1200 0 1200 0 0 1200 0 1200 -1200 0 -1200 0 0
-1200z m1301 1129 c173 -17 318 -62 461 -142 187 -105 364 -290 462 -484 158
-315 158 -711 0 -1026 -98 -194 -275 -379 -462 -484 -351 -196 -773 -196
-1124 0 -187 105 -364 290 -461 483 -194 384 -151 857 107 1201 62 82 203 215
283 267 189 122 351 173 614 195 9 0 63 -4 120 -10z"/>
<path d="M1285 2275 c-380 -71 -662 -379 -701 -767 l-7 -68 167 0 166 0 0 33
c0 99 58 232 138 319 98 106 222 170 347 179 l50 4 3 -157 3 -158 -73 0 -73 0
172 -172 173 -173 165 165 c91 91 165 168 165 172 0 5 -43 8 -95 8 l-95 0 0
279 0 279 -77 26 c-143 47 -287 57 -428 31z"/>
<path d="M1028 1393 c-87 -87 -158 -162 -158 -166 0 -4 40 -7 89 -7 l88 0 -5
-275 -5 -275 64 -29 c111 -49 199 -66 344 -65 156 1 246 22 380 88 218 108
386 316 445 550 30 118 29 122 -26 130 -26 3 -95 6 -155 6 l-108 0 -16 -57
c-67 -232 -275 -393 -507 -393 l-68 0 0 155 0 154 87 3 87 3 -178 165 c-98 91
-183 166 -190 168 -6 1 -82 -69 -168 -155z"/>
</g>
</svg>
