<?xml version="1.0" encoding="UTF-8" standalone="no"?>
<svg
   xmlns:dc="http://purl.org/dc/elements/1.1/"
   xmlns:cc="http://creativecommons.org/ns#"
   xmlns:rdf="http://www.w3.org/1999/02/22-rdf-syntax-ns#"
   xmlns:svg="http://www.w3.org/2000/svg"
   xmlns="http://www.w3.org/2000/svg"
   xmlns:sodipodi="http://sodipodi.sourceforge.net/DTD/sodipodi-0.dtd"
   xmlns:inkscape="http://www.inkscape.org/namespaces/inkscape"
   version="1.0"
   width="286.000000pt"
   height="289.000000pt"
   viewBox="0 0 286.000000 289.000000"
   preserveAspectRatio="xMidYMid meet"
   id="svg2171"
   sodipodi:docname="daimoinon.svg"
   inkscape:version="1.0.1 (3bc2e813f5, 2020-09-07)">
  <defs
     id="defs2175" />
  <sodipodi:namedview
     pagecolor="#ffffff"
     bordercolor="#666666"
     borderopacity="1"
     objecttolerance="10"
     gridtolerance="10"
     guidetolerance="10"
     inkscape:pageopacity="0"
     inkscape:pageshadow="2"
     inkscape:window-width="1600"
     inkscape:window-height="837"
     id="namedview2173"
     showgrid="false"
     inkscape:zoom="1.7387543"
     inkscape:cx="190.66667"
     inkscape:cy="192.66667"
     inkscape:window-x="-8"
     inkscape:window-y="-8"
     inkscape:window-maximized="1"
     inkscape:current-layer="svg2171" />
  <metadata
     id="metadata2165">
Created by potrace 1.16, written by Peter Selinger 2001-2019
<rdf:RDF>
  <cc:Work
     rdf:about="">
    <dc:format>image/svg+xml</dc:format>
    <dc:type
       rdf:resource="http://purl.org/dc/dcmitype/StillImage" />
  </cc:Work>
</rdf:RDF>
</metadata>
  <g
     transform="translate(0.000000,289.000000) scale(0.100000,-0.100000)"
     fill="#000000"
     stroke="none"
     id="g2169">
    <path
       d="M240 1450 l0 -1200 1200 0 1200 0 0 1200 0 1200 -1200 0 -1200 0 0 -1200z m706 823 c-2 -2 -26 5 -55 16 l-51 21 0 -248 0 -248 253 -122 c138 -67 255 -122 260 -122 4 0 7 153 7 340 l0 340 -52 -20 c-28 -11 -54 -18 -56 -16 -2 3 38 54 89 115 51 61 96 108 99 104 73 -83 180 -216 177 -220 -3 -2 -22 3 -42 11 -69 29 -65 50 -65 -319 0 -184 3 -335 6 -335 3 0 120 55 260 122 l254 122 0 243 c0 268 3 256 -65 227 -20 -8 -39 -13 -42 -11 -6 6 178 223 186 219 13 -8 183 -213 179 -217 -2 -3 -28 4 -56 15 l-52 20 0 -299 0 -298 -332 -161 -333 -160 -3 -531 -2 -531 -75 0 -75 0 -2 530 -3 531 -320 154 c-176 85 -328 159 -337 165 -17 9 -18 35 -18 300 0 193 -3 290 -10 290 -6 0 -27 -7 -47 -15 -19 -8 -40 -15 -45 -15 -5 0 35 52 87 115 l97 115 94 -112 c52 -61 92 -113 90 -115z"
       id="path2167" />
  </g>
  <path
     style="fill:#ffffff;stroke-width:0.575124"
     d="m 181.38586,293.45721 c -0.0434,-26.17534 -0.23746,-58.04084 -0.43135,-70.81221 l -0.35252,-23.22068 -17.25373,-8.28333 c -54.73483,-26.27759 -70.063919,-33.8938 -70.961001,-35.25676 -0.818123,-1.243 -0.976226,-5.51727 -1.318957,-35.65771 -0.384032,-33.772464 -0.670445,-41.133006 -1.623481,-41.722014 -0.266652,-0.164801 -2.963807,0.597719 -5.993677,1.694487 -3.029871,1.096768 -5.508855,1.788901 -5.508855,1.538073 0,-0.909979 22.447501,-28.256162 23.555711,-28.696238 0.21908,-0.087 4.66491,4.959719 9.87962,11.214925 12.86615,15.43334 13.94446,16.808901 13.51403,17.239331 -0.30191,0.301905 -5.54037,-1.504385 -12.01522,-4.143005 -0.95889,-0.390767 -1.00346,1.318675 -0.86268,33.091201 l 0.14844,33.50325 20.70448,9.97115 c 31.93568,15.38003 46.20211,22.07038 47.06261,22.07038 0.58645,0 0.88134,-1.42786 1.15812,-5.60746 0.3838,-5.79583 0.54011,-85.262192 0.16771,-85.262192 -0.11527,0 -2.99441,1.046032 -6.3981,2.324516 -3.40368,1.278483 -6.44505,2.239007 -6.75858,2.134496 -0.94515,-0.31505 15.2536,-20.080704 21.08756,-25.730955 l 2.6643,-2.5804 2.42759,2.826981 c 4.85696,5.656033 16.85372,20.385362 18.71059,22.972406 2.22823,3.10444 1.806,3.263311 -3.23211,1.21614 -4.00854,-1.628814 -5.99053,-1.806016 -6.97206,-0.623342 -1.31844,1.588611 -1.74508,11.32917 -1.75517,40.07129 -0.0123,34.81622 0.40544,48.25852 1.49946,48.25852 0.76028,0 21.64401,-9.79008 52.12066,-24.43364 l 16.53483,-7.94473 -0.0338,-23.63818 c -0.0381,-26.685324 -0.5444,-38.934446 -1.66516,-40.284884 -1.04192,-1.255436 -2.5673,-1.126647 -7.3731,0.62252 -2.30089,0.837456 -4.33816,1.367925 -4.52727,1.178822 -0.57549,-0.575494 12.91412,-17.038802 19.81973,-24.188856 l 3.81654,-3.951634 1.94588,2.226261 c 3.83863,4.391717 15.47585,18.406768 18.52144,22.305914 3.06298,3.921405 3.08223,3.970283 1.39773,3.548737 -0.93941,-0.235089 -4.07309,-1.312649 -6.96372,-2.394578 -2.89061,-1.08193 -5.41397,-1.967145 -5.60744,-1.967145 -0.19347,0 -0.35177,17.944125 -0.35177,39.875833 v 39.87583 l -26.88706,13.01152 c -14.78789,7.15634 -34.65124,16.73667 -44.1408,21.28962 l -17.25373,8.2781 -0.34944,41.63803 c -0.19219,22.90092 -0.3863,54.77243 -0.43134,70.82559 l -0.0819,29.18757 h -9.77712 -9.77711 z"
     id="path2177"
     transform="scale(0.74999998)" />
</svg>
