<?xml version="1.0" standalone="no"?>
<!DOCTYPE svg PUBLIC "-//W3C//DTD SVG 20010904//EN"
 "http://www.w3.org/TR/2001/REC-SVG-20010904/DTD/svg10.dtd">
<svg version="1.0" xmlns="http://www.w3.org/2000/svg"
 width="286.000000pt" height="289.000000pt" viewBox="0 0 286.000000 289.000000"
 preserveAspectRatio="xMidYMid meet">
<metadata>
Created by potrace 1.16, written by Peter Selinger 2001-2019
</metadata>
<g transform="translate(0.000000,289.000000) scale(0.100000,-0.100000)"
fill="#000000" stroke="none">
<path d="M240 1450 l0 -1200 1200 0 1200 0 0 1200 0 1200 -1200 0 -1200 0 0
-1200z m706 823 c-2 -2 -26 5 -55 16 l-51 21 0 -248 0 -248 253 -122 c138 -67
255 -122 260 -122 4 0 7 153 7 340 l0 340 -52 -20 c-28 -11 -54 -18 -56 -16
-2 3 38 54 89 115 51 61 96 108 99 104 73 -83 180 -216 177 -220 -3 -2 -22 3
-42 11 -69 29 -65 50 -65 -319 0 -184 3 -335 6 -335 3 0 120 55 260 122 l254
122 0 243 c0 268 3 256 -65 227 -20 -8 -39 -13 -42 -11 -6 6 178 223 186 219
13 -8 183 -213 179 -217 -2 -3 -28 4 -56 15 l-52 20 0 -299 0 -298 -332 -161
-333 -160 -3 -531 -2 -531 -75 0 -75 0 -2 530 -3 531 -320 154 c-176 85 -328
159 -337 165 -17 9 -18 35 -18 300 0 193 -3 290 -10 290 -6 0 -27 -7 -47 -15
-19 -8 -40 -15 -45 -15 -5 0 35 52 87 115 l97 115 94 -112 c52 -61 92 -113 90
-115z"/>
</g>
</svg>
