<?xml version="1.0" standalone="no"?>
<!DOCTYPE svg PUBLIC "-//W3C//DTD SVG 20010904//EN"
 "http://www.w3.org/TR/2001/REC-SVG-20010904/DTD/svg10.dtd">
<svg version="1.0" xmlns="http://www.w3.org/2000/svg"
 width="238.000000pt" height="238.000000pt" viewBox="0 0 238.000000 238.000000"
 preserveAspectRatio="xMidYMid meet">
<metadata>
Created by potrace 1.16, written by Peter Selinger 2001-2019
</metadata>
<g transform="translate(0.000000,238.000000) scale(0.100000,-0.100000)"
fill="#000000" stroke="none">
<path d="M610 1775 l-575 -575 185 -187 c534 -542 956 -963 965 -963 6 0 269
259 585 575 l575 575 -575 575 c-316 316 -577 575 -580 575 -3 0 -264 -259
-580 -575z m186 -69 c61 -72 61 -71 -8 -49 -17 5 -18 -7 -18 -165 l0 -171 176
-85 c97 -47 178 -86 180 -86 2 0 4 106 4 236 0 232 0 236 -20 230 -11 -3 -30
-9 -42 -13 -15 -4 -2 17 47 76 38 45 71 78 75 74 3 -5 33 -38 65 -76 32 -37
56 -70 53 -73 -3 -2 -18 0 -33 6 -15 6 -29 9 -32 7 -2 -2 -2 -108 -1 -236 l3
-231 175 85 175 86 3 170 2 171 -24 -6 c-13 -3 -32 -9 -42 -13 -16 -6 96 140
116 152 4 3 38 -32 75 -77 38 -45 61 -78 51 -75 -10 4 -29 10 -42 13 l-24 6
-2 -207 -3 -207 -232 -112 -233 -111 0 -372 0 -373 -55 0 -55 0 0 373 -1 372
-232 111 -232 111 -3 207 -2 208 -24 -6 c-13 -3 -32 -9 -43 -13 -11 -4 2 17
31 53 88 105 89 106 101 92 6 -7 38 -44 71 -82z"/>
</g>
</svg>
