<?xml version="1.0" encoding="UTF-8" standalone="no"?>
<svg
   xmlns:dc="http://purl.org/dc/elements/1.1/"
   xmlns:cc="http://creativecommons.org/ns#"
   xmlns:rdf="http://www.w3.org/1999/02/22-rdf-syntax-ns#"
   xmlns:svg="http://www.w3.org/2000/svg"
   xmlns="http://www.w3.org/2000/svg"
   xmlns:sodipodi="http://sodipodi.sourceforge.net/DTD/sodipodi-0.dtd"
   xmlns:inkscape="http://www.inkscape.org/namespaces/inkscape"
   version="1.0"
   width="300.000000pt"
   height="300.000000pt"
   viewBox="0 0 300.000000 300.000000"
   preserveAspectRatio="xMidYMid meet"
   id="svg2227"
   sodipodi:docname="defense.svg"
   inkscape:version="1.0.1 (3bc2e813f5, 2020-09-07)">
  <defs
     id="defs2231" />
  <sodipodi:namedview
     pagecolor="#ffffff"
     bordercolor="#666666"
     borderopacity="1"
     objecttolerance="10"
     gridtolerance="10"
     guidetolerance="10"
     inkscape:pageopacity="0"
     inkscape:pageshadow="2"
     inkscape:window-width="1600"
     inkscape:window-height="837"
     id="namedview2229"
     showgrid="false"
     inkscape:zoom="1.675"
     inkscape:cx="200"
     inkscape:cy="200"
     inkscape:window-x="-8"
     inkscape:window-y="-8"
     inkscape:window-maximized="1"
     inkscape:current-layer="svg2227" />
  <metadata
     id="metadata2219">
Created by potrace 1.16, written by Peter Selinger 2001-2019
<rdf:RDF>
  <cc:Work
     rdf:about="">
    <dc:format>image/svg+xml</dc:format>
    <dc:type
       rdf:resource="http://purl.org/dc/dcmitype/StillImage" />
  </cc:Work>
</rdf:RDF>
</metadata>
  <g
     transform="translate(0.000000,300.000000) scale(0.100000,-0.100000)"
     fill="#000000"
     stroke="none"
     id="g2225">
    <path
       d="M1390 2994 c-289 -35 -489 -106 -707 -251 l-83 -54 0 -160 0 -159 -150 0 -150 0 -34 -52 c-93 -146 -167 -332 -207 -518 -33 -151 -33 -419 0 -570 44 -206 116 -378 228 -547 l54 -83 130 0 129 0 0 -129 0 -130 83 -54 c165 -110 349 -188 540 -229 147 -32 437 -32 584 0 175 38 366 116 511 208 l52 34 0 150 0 150 159 0 160 0 54 83 c117 175 201 381 233 572 23 135 23 385 0 520 -30 174 -126 419 -218 553 l-29 42 -179 0 -180 0 0 180 0 180 -52 34 c-155 99 -371 183 -538 211 -96 16 -325 27 -390 19z m523 -172 c119 -40 212 -81 289 -128 l58 -35 0 -200 0 -199 199 0 200 0 35 -58 c47 -77 88 -170 128 -289 l32 -98 4 -269 c3 -225 1 -281 -13 -345 -31 -139 -107 -316 -187 -436 l-33 -50 -183 -3 -182 -2 0 -173 0 -173 -72 -41 c-213 -120 -427 -176 -673 -176 -272 0 -512 70 -742 215 l-63 40 0 154 0 154 -153 0 -152 0 -35 53 c-95 143 -174 345 -206 522 -20 117 -20 342 0 458 24 132 71 269 138 400 l61 117 173 0 174 0 0 180 0 179 58 39 c109 74 276 148 412 182 66 17 108 19 355 17 l280 -3 98 -32z"
       id="path2221" />
    <path
       d="M1457 2625 c-20 -7 -43 -18 -51 -24 -20 -17 -46 -75 -46 -102 0 -37 37 -103 70 -122 l30 -18 0 -109 0 -110 -27 -5 c-204 -39 -338 -113 -437 -245 -72 -96 -103 -172 -131 -322 l-5 -28 -110 0 -109 0 -18 30 c-25 43 -92 74 -143 65 -129 -22 -155 -203 -37 -259 46 -21 72 -20 123 5 32 15 48 31 61 60 l17 39 107 0 108 0 6 -47 c26 -198 140 -378 301 -475 63 -39 196 -88 237 -88 55 0 57 -4 57 -121 l0 -108 -30 -18 c-40 -23 -74 -94 -67 -138 11 -70 67 -118 138 -118 146 0 189 200 57 260 l-38 17 0 107 0 108 48 6 c76 10 201 53 266 92 161 98 275 278 301 476 l6 47 108 0 107 0 17 -39 c22 -49 90 -86 142 -78 157 25 157 249 0 274 -44 7 -115 -27 -138 -67 l-18 -30 -108 0 c-117 0 -121 2 -121 55 0 44 -42 160 -82 229 -49 83 -134 170 -214 219 -65 39 -190 82 -266 92 l-48 6 0 108 0 107 38 17 c47 22 74 58 79 111 10 97 -87 174 -180 141z m3 -672 l0 -118 -58 -17 c-108 -32 -188 -112 -220 -220 l-17 -58 -117 0 c-92 0 -118 3 -118 13 0 39 43 172 71 223 42 76 148 181 223 223 53 30 175 69 219 70 15 1 17 -11 17 -116z m182 98 c42 -11 102 -34 134 -52 75 -42 181 -148 223 -223 28 -51 71 -184 71 -223 0 -10 -26 -13 -117 -13 l-118 0 -17 58 c-9 32 -31 77 -48 100 -51 71 -103 101 -237 138 -10 2 -13 35 -13 119 0 134 -7 129 122 96z m-16 -314 c64 -33 134 -126 134 -177 0 -18 -6 -20 -62 -20 -60 1 -64 2 -83 33 -11 18 -37 40 -57 50 -37 18 -38 20 -38 76 0 32 2 60 6 63 7 8 64 -6 100 -25z m-166 -39 c0 -60 -2 -64 -30 -80 -17 -10 -38 -31 -48 -48 -16 -28 -20 -30 -79 -30 -57 0 -63 2 -63 20 0 74 123 198 198 200 20 0 22 -4 22 -62z m-296 -230 c37 -135 67 -187 138 -238 23 -17 68 -39 100 -48 l58 -17 0 -117 c0 -92 -3 -118 -13 -118 -39 0 -172 43 -223 71 -75 42 -181 148 -223 223 -32 57 -71 186 -71 233 0 23 1 23 115 23 84 0 117 -3 119 -12z m213 -25 c10 -21 32 -47 50 -58 31 -19 32 -23 33 -82 0 -57 -2 -63 -20 -63 -30 0 -93 34 -129 71 -48 47 -79 117 -72 162 1 4 28 7 60 7 59 0 60 0 78 -37z m384 2 c-10 -92 -114 -196 -206 -206 l-30 -4 -3 63 c-3 60 -2 62 25 73 39 15 63 38 80 77 14 33 14 33 76 30 l62 -3 -4 -30z m309 12 c0 -47 -39 -176 -71 -233 -42 -75 -148 -181 -223 -223 -57 -32 -186 -71 -233 -71 -23 0 -23 1 -23 115 0 84 3 117 13 119 90 25 131 41 166 66 70 51 100 103 137 238 2 9 35 12 119 12 114 0 115 0 115 -23z"
       id="path2223" />
  </g>
  <path
     style="fill:#ffffff;stroke-width:0.597015"
     d="m 191.9403,379.88256 c -7.05897,-0.37476 -20.23991,-2.05442 -27.1235,-3.45636 -22.05563,-4.49197 -40.79607,-12.1504 -62.06479,-25.36328 l -7.826637,-4.86218 V 325.63768 305.07463 H 74.61371 54.302048 l -4.46648,-6.79229 C 36.132533,277.4438 24.572541,246.98564 21.37078,223.28358 c -0.496555,-3.6759 -0.764254,-12.70923 -0.76077,-25.67164 0.006,-22.31857 0.5054,-27.29341 4.163096,-41.47125 4.015235,-15.56373 8.558348,-27.14217 17.753156,-45.24517 L 48.515126,99.104478 H 71.72025 94.925373 l 0.01296,-24.029851 0.01296,-24.029851 6.434507,-4.27274 c 17.57924,-11.673255 40.94423,-21.825075 59.80824,-25.986006 6.22342,-1.372732 6.53576,-1.381718 43.28358,-1.245312 l 37.01493,0.137397 9.94574,3.265685 c 18.21866,5.982093 30.25505,11.262494 43.33784,19.012432 l 6.1194,3.624991 v 26.761628 26.761627 h 26.73152 26.73151 l 3.65557,6.119402 c 7.65327,12.81152 13.00284,24.97256 19.09279,43.40308 l 3.26479,9.8805 0.11266,37.01493 c 0.11145,36.62102 0.098,37.08163 -1.26072,43.28358 -3.9538,18.04671 -14.3699,42.46386 -25.19994,59.07303 l -4.21417,6.46294 -24.457,0.44179 -24.45701,0.44178 v 23.07473 23.07473 l -8.80597,4.88724 c -13.7591,7.6362 -24.34422,12.23216 -37.52392,16.29254 -18.58125,5.72449 -41.75358,8.43589 -62.62533,7.32781 z m 16.1194,-30.26479 c 5.88512,-2.79037 9.74109,-8.62825 10.30027,-15.5945 0.64915,-8.08703 -3.1748,-14.33111 -11.12968,-18.17355 l -4.26626,-2.06072 0.15978,-14.02659 0.15977,-14.02658 5.27856,-0.76172 c 13.59402,-1.96169 28.96607,-7.5775 39.4865,-14.42544 5.80915,-3.78128 17.81016,-15.92141 21.93618,-22.19046 8.06771,-12.25805 12.91246,-25.09143 14.98778,-39.70149 l 0.76323,-5.37314 14.06437,-0.15986 14.06437,-0.15986 1.54504,3.56256 c 2.93223,6.76114 9.32207,11.32076 16.60008,11.84534 5.43886,0.39203 9.20052,-0.93962 13.33921,-4.72215 4.05582,-3.70679 5.69588,-7.63702 5.69588,-13.64961 0,-7.61734 -3.61845,-13.66756 -10.07737,-16.84987 -3.83989,-1.8919 -11.06483,-1.89843 -15.19398,-0.0137 -4.15472,1.89639 -7.43121,4.69177 -9.75245,8.32046 l -2.02782,3.16999 -9.08613,-0.0322 c -11.34119,-0.0402 -18.15073,-0.71684 -19.35744,-1.92354 -0.56675,-0.56675 -1.1041,-2.82712 -1.42521,-5.99514 -0.84925,-8.37862 -6.55052,-23.56731 -12.06294,-32.1368 -7.65319,-11.89747 -20.46767,-23.88933 -31.46443,-29.4446 -8.72515,-4.40771 -22.23859,-8.65504 -32.03487,-10.0687 l -5.27856,-0.76172 -0.15977,-14.02658 -0.15978,-14.026587 4.26626,-2.060722 c 5.44969,-2.632365 9.108,-6.546381 10.45749,-11.188463 1.29346,-4.449366 0.86467,-10.351506 -1.02724,-14.139704 -1.8773,-3.758924 -6.37889,-7.737615 -10.1848,-9.001733 -6.11966,-2.032625 -16.31618,0.0025 -20.02027,3.995817 -0.71814,0.774225 -2.1886,3.28828 -3.26768,5.586787 -1.49968,3.194384 -1.9547,4.952813 -1.9311,7.462687 0.0561,5.970704 4.49664,13.464835 10.10358,17.051552 l 3.2666,2.089618 v 14.242218 14.24223 l -2.83583,0.42151 c -10.7452,1.59712 -27.48018,7.27653 -35.81291,12.15393 -16.64845,9.74486 -29.85347,25.87299 -36.0144,43.98669 -1.57221,4.62242 -4.25314,15.70001 -5.09105,21.03613 l -0.39842,2.53732 H 100.24055 86.006842 l -2.018317,-3.15513 c -2.46877,-3.85932 -5.054877,-6.10625 -9.361659,-8.13385 -4.721096,-2.22267 -11.556319,-2.19969 -15.820896,0.0532 -6.514922,3.44167 -9.835497,9.16253 -9.844914,16.96134 -0.0051,4.21837 0.229656,5.30126 1.853773,8.55141 4.465304,8.93587 14.949213,12.06415 24.565486,7.33007 4.620825,-2.27482 7.142461,-4.93995 9.231464,-9.7568 l 1.523648,-3.51323 14.064373,0.15986 14.06437,0.15986 0.76323,5.37314 c 2.8017,19.72374 10.87912,36.872 23.67037,50.25188 6.93937,7.25871 13.94714,12.49691 22.19775,16.59247 8.588,4.26303 19.96484,8.03805 26.08335,8.65486 2.93117,0.29549 5.13284,0.83425 5.69127,1.39267 1.20779,1.2078 1.88434,8.01306 1.92453,19.35843 l 0.0322,9.08613 -3.16999,2.02782 c -10.34362,6.61674 -13.08518,20.32026 -5.73573,28.66968 4.32916,4.91819 7.36194,6.22826 14.57737,6.29697 3.85096,0.0367 5.35434,-0.22867 7.76119,-1.36986 z"
     id="path2233"
     transform="scale(0.75)" />
  <path
     style="fill:#ffffff;stroke-width:0.597015"
     d="m 130.03683,194.0716 c -2.85287,-0.20135 -5.36815,-0.54721 -5.58951,-0.76856 -0.5817,-0.5817 1.31782,-8.71985 3.73211,-15.98961 4.28614,-12.90617 7.78033,-18.72745 17.07992,-28.45499 10.05985,-10.52279 17.93745,-15.86805 29.223,-19.82894 10.02838,-3.51966 17.94865,-5.16201 18.9684,-3.93329 0.35857,0.43205 0.76709,6.7809 0.98348,15.2841 l 0.37013,14.54506 -7.10367,2.21434 c -8.90198,2.77489 -13.6397,5.52442 -19.33813,11.22285 -5.67911,5.6791 -8.44268,10.42693 -11.20452,19.24938 l -2.196,7.01493 -9.86908,-0.0946 c -5.42799,-0.052 -12.20325,-0.25932 -15.05613,-0.46068 z"
     id="path2235"
     transform="scale(0.75)" />
  <path
     style="fill:#ffffff;stroke-width:0.597015"
     d="m 243.35598,189.10448 c -2.73794,-9.25908 -5.90293,-14.96048 -11.40879,-20.55177 -5.49616,-5.58143 -10.65298,-8.45514 -20.90241,-11.64817 -3.28359,-1.02294 -6.37314,-2.23206 -6.86568,-2.68692 -1.17442,-1.0846 -1.70407,-23.59382 -0.63883,-27.14928 0.9217,-3.07635 2.34713,-3.33087 9.46321,-1.6897 18.47394,4.26061 29.05317,10.2121 41.73717,23.4798 9.31692,9.74566 12.73527,15.45565 17.0671,28.50877 2.39254,7.20946 4.326,15.35476 3.77546,15.9053 -0.59655,0.59655 -11.8441,1.28444 -21.59619,1.3208 l -8.99805,0.0336 z"
     id="path2237"
     transform="scale(0.75)" />
  <path
     style="fill:#ffffff;stroke-width:0.597015"
     d="m 203.54334,274.24654 c -0.4299,-1.11758 -0.58865,-6.19675 -0.45862,-14.67346 0.16221,-10.57489 0.36391,-13.1166 1.09438,-13.79098 0.49254,-0.45471 3.71642,-1.69583 7.16418,-2.75804 9.85695,-3.0368 14.36186,-5.45825 19.77355,-10.62855 3.84047,-3.66916 5.22975,-5.5202 7.4061,-9.86768 1.47338,-2.94322 3.51345,-8.07423 4.53348,-11.40225 1.02003,-3.32803 2.23656,-6.45394 2.70341,-6.94648 0.70742,-0.74635 3.17721,-0.89552 14.82704,-0.89552 10.04888,0 14.17922,0.20071 14.69325,0.71399 1.5361,1.53387 -1.94899,16.09749 -6.39039,26.70438 -2.97417,7.10288 -6.85048,12.75407 -13.66267,19.9185 -6.36735,6.69659 -12.15655,11.62029 -17.31569,14.72696 -6.8057,4.09818 -21.75553,9.12463 -30.28856,10.18365 -3.37049,0.41831 -3.43187,0.39899 -4.07946,-1.28452 z"
     id="path2239"
     transform="scale(0.75)" />
  <path
     style="fill:#ffffff;stroke-width:0.597015"
     d="m 185.97015,274.36103 c -11.9829,-3.12482 -21.39914,-7.02686 -27.55191,-11.41738 -9.26115,-6.60862 -20.93113,-19.4179 -25.23139,-27.69463 -4.82529,-9.28726 -10.29902,-29.42194 -8.48971,-31.2287 0.54308,-0.54232 4.42645,-0.73674 14.716,-0.73674 11.64983,0 14.11962,0.14917 14.82704,0.89552 0.46685,0.49254 1.67499,3.58209 2.68477,6.86568 3.12922,10.17561 6.03004,15.39021 11.62776,20.90241 5.60616,5.5205 11.29215,8.67047 20.6436,11.43628 l 5.61422,1.66048 -0.39503,14.04519 c -0.21726,7.72485 -0.55857,14.64967 -0.75847,15.38847 -0.44579,1.64758 -0.95111,1.63991 -7.68688,-0.11658 z"
     id="path2241"
     transform="scale(0.75)" />
  <path
     style="fill:#ffffff;stroke-width:0.597015"
     d="m 189.52066,233.78914 c -8.57362,-2.68534 -16.97379,-9.97359 -21.10556,-18.31185 -1.64305,-3.31581 -2.62073,-6.19523 -2.8466,-8.38372 -0.32374,-3.13676 -0.26043,-3.35572 1.07359,-3.71277 2.17934,-0.5833 11.60462,-0.46531 13.26526,0.16606 0.92362,0.35116 2.20073,1.91849 3.40629,4.18036 1.81619,3.40751 4.68772,6.51397 8.61514,9.31996 1.50308,1.0739 1.77277,1.7416 2.17021,5.37313 0.69062,6.31048 -0.19295,12.33622 -1.78403,12.16662 -0.20606,-0.022 -1.4635,-0.38097 -2.7943,-0.79779 z"
     id="path2243"
     transform="scale(0.75)" />
  <path
     style="fill:#ffffff;stroke-width:0.597015"
     d="m 168.85141,194.22626 c -3.15785,-0.37875 -3.6141,-1.20363 -2.67281,-4.83238 2.31994,-8.94362 14.17216,-20.8878 22.98102,-23.15934 1.59605,-0.41157 3.18839,-0.50452 3.73769,-0.21818 1.58627,0.82689 2.00701,8.65398 0.79045,14.7047 -0.14576,0.72494 -1.53887,2.19364 -3.09579,3.26377 -3.25175,2.23505 -5.82214,4.8538 -7.05868,7.1915 -0.4725,0.89325 -1.3313,1.87682 -1.90845,2.1857 -1.24832,0.66808 -9.66238,1.23736 -12.77343,0.86423 z"
     id="path2245"
     transform="scale(0.75)" />
  <path
     style="fill:#ffffff;stroke-width:0.597015"
     d="m 221.84435,194.10264 c -2.98621,-0.33943 -3.72058,-0.66935 -4.77612,-2.14567 -2.75911,-3.859 -5.79171,-6.69611 -9.21674,-8.6226 -2.31288,-1.30093 -3.85094,-2.62262 -4.2925,-3.68864 -0.82582,-1.9937 -0.56186,-13.33244 0.33111,-14.22362 0.88743,-0.88564 7.49292,0.79679 12.19421,3.10588 4.66423,2.29089 11.8412,9.21714 14.90958,14.38873 2.57901,4.3468 3.95775,9.26541 2.88626,10.29665 -0.95856,0.92256 -7.49453,1.40547 -12.0358,0.88927 z"
     id="path2247"
     transform="scale(0.75)" />
  <path
     style="fill:#ffffff;stroke-width:0.597015"
     d="m 203.28213,228.03546 c -0.28576,-4.75588 -0.20753,-7.38571 0.24482,-8.23093 0.3656,-0.68314 2.3971,-2.06886 4.51444,-3.07937 4.28022,-2.04276 7.27209,-5.19379 9.19843,-9.68775 1.69304,-3.94971 2.55721,-4.25028 10.79677,-3.75522 l 6.98998,0.41999 -0.47328,2.99398 c -1.39875,8.84845 -6.33874,16.3605 -14.71739,22.38017 -4.24096,3.04693 -8.14643,4.69543 -12.88404,5.43836 l -3.24982,0.50962 z"
     id="path2249"
     transform="scale(0.75)" />
</svg>
