<?xml version="1.0" standalone="no"?>
<!DOCTYPE svg PUBLIC "-//W3C//DTD SVG 20010904//EN"
 "http://www.w3.org/TR/2001/REC-SVG-20010904/DTD/svg10.dtd">
<svg version="1.0" xmlns="http://www.w3.org/2000/svg"
 width="300.000000pt" height="300.000000pt" viewBox="0 0 300.000000 300.000000"
 preserveAspectRatio="xMidYMid meet">
<metadata>
Created by potrace 1.16, written by Peter Selinger 2001-2019
</metadata>
<g transform="translate(0.000000,300.000000) scale(0.100000,-0.100000)"
fill="#000000" stroke="none">
<path d="M1390 2994 c-289 -35 -489 -106 -707 -251 l-83 -54 0 -160 0 -159
-150 0 -150 0 -34 -52 c-93 -146 -167 -332 -207 -518 -33 -151 -33 -419 0
-570 44 -206 116 -378 228 -547 l54 -83 130 0 129 0 0 -129 0 -130 83 -54
c165 -110 349 -188 540 -229 147 -32 437 -32 584 0 175 38 366 116 511 208
l52 34 0 150 0 150 159 0 160 0 54 83 c117 175 201 381 233 572 23 135 23 385
0 520 -30 174 -126 419 -218 553 l-29 42 -179 0 -180 0 0 180 0 180 -52 34
c-155 99 -371 183 -538 211 -96 16 -325 27 -390 19z m523 -172 c119 -40 212
-81 289 -128 l58 -35 0 -200 0 -199 199 0 200 0 35 -58 c47 -77 88 -170 128
-289 l32 -98 4 -269 c3 -225 1 -281 -13 -345 -31 -139 -107 -316 -187 -436
l-33 -50 -183 -3 -182 -2 0 -173 0 -173 -72 -41 c-213 -120 -427 -176 -673
-176 -272 0 -512 70 -742 215 l-63 40 0 154 0 154 -153 0 -152 0 -35 53 c-95
143 -174 345 -206 522 -20 117 -20 342 0 458 24 132 71 269 138 400 l61 117
173 0 174 0 0 180 0 179 58 39 c109 74 276 148 412 182 66 17 108 19 355 17
l280 -3 98 -32z"/>
<path d="M1457 2625 c-20 -7 -43 -18 -51 -24 -20 -17 -46 -75 -46 -102 0 -37
37 -103 70 -122 l30 -18 0 -109 0 -110 -27 -5 c-204 -39 -338 -113 -437 -245
-72 -96 -103 -172 -131 -322 l-5 -28 -110 0 -109 0 -18 30 c-25 43 -92 74
-143 65 -129 -22 -155 -203 -37 -259 46 -21 72 -20 123 5 32 15 48 31 61 60
l17 39 107 0 108 0 6 -47 c26 -198 140 -378 301 -475 63 -39 196 -88 237 -88
55 0 57 -4 57 -121 l0 -108 -30 -18 c-40 -23 -74 -94 -67 -138 11 -70 67 -118
138 -118 146 0 189 200 57 260 l-38 17 0 107 0 108 48 6 c76 10 201 53 266 92
161 98 275 278 301 476 l6 47 108 0 107 0 17 -39 c22 -49 90 -86 142 -78 157
25 157 249 0 274 -44 7 -115 -27 -138 -67 l-18 -30 -108 0 c-117 0 -121 2
-121 55 0 44 -42 160 -82 229 -49 83 -134 170 -214 219 -65 39 -190 82 -266
92 l-48 6 0 108 0 107 38 17 c47 22 74 58 79 111 10 97 -87 174 -180 141z m3
-672 l0 -118 -58 -17 c-108 -32 -188 -112 -220 -220 l-17 -58 -117 0 c-92 0
-118 3 -118 13 0 39 43 172 71 223 42 76 148 181 223 223 53 30 175 69 219 70
15 1 17 -11 17 -116z m182 98 c42 -11 102 -34 134 -52 75 -42 181 -148 223
-223 28 -51 71 -184 71 -223 0 -10 -26 -13 -117 -13 l-118 0 -17 58 c-9 32
-31 77 -48 100 -51 71 -103 101 -237 138 -10 2 -13 35 -13 119 0 134 -7 129
122 96z m-16 -314 c64 -33 134 -126 134 -177 0 -18 -6 -20 -62 -20 -60 1 -64
2 -83 33 -11 18 -37 40 -57 50 -37 18 -38 20 -38 76 0 32 2 60 6 63 7 8 64 -6
100 -25z m-166 -39 c0 -60 -2 -64 -30 -80 -17 -10 -38 -31 -48 -48 -16 -28
-20 -30 -79 -30 -57 0 -63 2 -63 20 0 74 123 198 198 200 20 0 22 -4 22 -62z
m-296 -230 c37 -135 67 -187 138 -238 23 -17 68 -39 100 -48 l58 -17 0 -117
c0 -92 -3 -118 -13 -118 -39 0 -172 43 -223 71 -75 42 -181 148 -223 223 -32
57 -71 186 -71 233 0 23 1 23 115 23 84 0 117 -3 119 -12z m213 -25 c10 -21
32 -47 50 -58 31 -19 32 -23 33 -82 0 -57 -2 -63 -20 -63 -30 0 -93 34 -129
71 -48 47 -79 117 -72 162 1 4 28 7 60 7 59 0 60 0 78 -37z m384 2 c-10 -92
-114 -196 -206 -206 l-30 -4 -3 63 c-3 60 -2 62 25 73 39 15 63 38 80 77 14
33 14 33 76 30 l62 -3 -4 -30z m309 12 c0 -47 -39 -176 -71 -233 -42 -75 -148
-181 -223 -223 -57 -32 -186 -71 -233 -71 -23 0 -23 1 -23 115 0 84 3 117 13
119 90 25 131 41 166 66 70 51 100 103 137 238 2 9 35 12 119 12 114 0 115 0
115 -23z"/>
</g>
</svg>
