<?xml version="1.0" standalone="no"?>
<!DOCTYPE svg PUBLIC "-//W3C//DTD SVG 20010904//EN"
 "http://www.w3.org/TR/2001/REC-SVG-20010904/DTD/svg10.dtd">
<svg version="1.0" xmlns="http://www.w3.org/2000/svg"
 width="288.000000pt" height="289.000000pt" viewBox="0 0 288.000000 289.000000"
 preserveAspectRatio="xMidYMid meet">
<metadata>
Created by potrace 1.16, written by Peter Selinger 2001-2019
</metadata>
<g transform="translate(0.000000,289.000000) scale(0.100000,-0.100000)"
fill="#000000" stroke="none">
<path d="M240 1450 l0 -1200 1200 0 1200 0 0 1200 0 1200 -1200 0 -1200 0 0
-1200z m1160 0 l0 -1050 -52 20 c-28 10 -76 36 -107 56 -69 45 -255 229 -247
243 4 6 29 23 56 38 28 15 50 33 50 38 0 6 -12 28 -26 48 -14 21 -24 41 -21
43 2 3 25 -8 50 -23 46 -28 46 -29 47 -83 1 -105 73 -222 118 -194 25 16 27
53 4 77 -30 33 -42 62 -42 101 0 43 8 66 25 66 7 0 24 10 39 21 19 15 26 29
24 48 -4 33 -30 39 -72 16 -30 -16 -34 -16 -71 0 l-40 16 30 25 c17 13 38 27
48 30 9 3 17 9 17 13 0 4 -52 54 -116 111 -113 102 -118 106 -231 148 -64 23
-117 41 -118 40 -2 -2 -16 -32 -32 -68 l-29 -64 -22 70 c-41 131 -52 203 -52
364 0 350 62 570 199 708 113 113 314 188 509 191 l62 1 0 -1050z m342 1034
c23 -5 26 -9 18 -24 -5 -10 -26 -27 -46 -39 -30 -18 -35 -26 -31 -48 3 -19 -5
-42 -31 -81 l-35 -56 34 -100 c44 -132 43 -126 21 -126 -37 0 -52 -12 -52 -40
0 -32 14 -40 70 -40 37 0 40 -2 76 -70 43 -78 45 -79 134 -55 30 8 56 15 58
15 2 0 -4 -10 -12 -22 -9 -12 -16 -43 -16 -68 0 -54 -13 -70 -56 -70 -52 0
-63 9 -96 74 -39 78 -63 104 -105 112 -64 12 -145 -46 -122 -88 16 -30 35 -32
69 -8 38 27 50 19 90 -59 15 -31 40 -67 55 -81 24 -22 35 -25 97 -23 114 3
164 46 152 132 l-6 44 38 -6 c20 -3 47 -16 60 -28 21 -20 24 -32 24 -95 0 -66
2 -73 22 -80 16 -5 27 0 41 17 16 19 18 36 15 94 -5 97 -35 137 -133 171 -17
6 -15 8 15 16 19 5 36 11 37 12 1 1 -16 69 -38 150 -21 82 -38 150 -37 151 2
1 23 9 48 17 25 9 52 19 61 23 13 5 23 -9 47 -67 59 -144 82 -287 83 -518 0
-135 -3 -166 -24 -240 -114 -404 -446 -855 -709 -965 l-38 -15 0 1051 0 1052
98 -7 c53 -3 109 -9 124 -12z"/>
<path d="M1009 2417 c-100 -53 -119 -154 -44 -237 17 -18 22 -33 18 -56 -5
-30 -8 -32 -59 -37 -72 -7 -138 -44 -142 -78 -2 -14 4 -31 13 -39 13 -10 25
-8 74 14 63 28 135 36 153 18 7 -7 21 -12 33 -12 43 0 46 -20 11 -62 -50 -59
-56 -110 -13 -124 16 -5 26 0 42 22 61 85 80 99 147 104 l63 5 0 35 0 35 -62
1 c-50 1 -67 6 -91 26 -16 13 -43 30 -61 37 -22 10 -31 20 -31 37 0 29 42 72
78 80 70 15 77 20 77 50 0 28 -2 29 -48 32 -34 2 -60 -3 -88 -18 -47 -24 -79
-14 -79 25 0 37 10 55 40 70 38 20 77 21 133 6 54 -15 80 -4 75 33 -8 55 -157
76 -239 33z"/>
<path d="M1235 1840 c-28 -11 -44 -31 -85 -109 l-35 -66 -47 1 c-64 0 -78 15
-78 79 0 62 -19 84 -79 92 -59 8 -140 -33 -169 -86 -51 -90 -8 -245 52 -186
12 13 14 28 10 74 -6 51 -4 60 17 84 15 17 38 30 61 34 l37 5 3 -63 c3 -59 5
-65 35 -85 19 -12 57 -24 92 -28 89 -10 120 8 165 93 48 92 59 100 97 72 50
-37 80 -16 65 45 -11 42 -87 66 -141 44z"/>
<path d="M1253 1604 c-40 -20 -75 -75 -83 -128 -5 -37 -8 -41 -40 -47 -19 -3
-57 -18 -84 -32 -27 -15 -55 -27 -62 -27 -25 0 -54 51 -54 96 0 58 -8 74 -36
74 -73 0 -51 -182 28 -230 47 -28 93 -25 167 15 62 33 64 33 97 17 18 -10 43
-35 55 -57 41 -75 71 -93 99 -60 18 21 7 53 -43 126 -24 35 -47 74 -51 85 -10
34 10 71 54 99 43 27 49 44 24 69 -19 20 -31 20 -71 0z"/>
<path d="M1606 1605 c-25 -25 -19 -43 24 -70 75 -47 76 -85 4 -186 -48 -68
-59 -124 -28 -136 24 -9 46 8 77 63 17 29 42 56 62 66 32 16 34 16 101 -18 79
-40 119 -43 164 -11 46 31 70 81 70 144 0 66 -7 83 -34 83 -34 0 -46 -20 -46
-77 0 -40 -5 -58 -20 -73 -26 -26 -35 -25 -95 7 -28 15 -66 29 -85 32 -32 6
-36 10 -41 46 -10 76 -49 125 -110 140 -18 4 -31 1 -43 -10z"/>
<path d="M2015 1241 c-4 -13 3 -36 19 -64 14 -24 26 -53 26 -64 0 -35 -32 -64
-78 -70 l-42 -6 0 46 c0 43 -18 77 -40 77 -21 0 -39 -35 -50 -100 -15 -87 -43
-131 -95 -148 -35 -12 -44 -11 -71 3 -43 23 -68 17 -72 -17 -3 -22 3 -31 30
-47 57 -34 61 -40 56 -91 -3 -33 -15 -62 -38 -94 l-34 -47 22 -22 c21 -20 24
-21 50 -7 40 22 74 99 80 179 4 66 5 67 44 90 21 12 51 39 66 60 25 37 30 39
88 43 48 3 70 10 98 31 71 55 83 119 39 208 -24 46 -32 54 -60 57 -24 2 -33
-1 -38 -17z"/>
</g>
</svg>
