<?xml version="1.0" standalone="no"?>
<!DOCTYPE svg PUBLIC "-//W3C//DTD SVG 20010904//EN"
 "http://www.w3.org/TR/2001/REC-SVG-20010904/DTD/svg10.dtd">
<svg version="1.0" xmlns="http://www.w3.org/2000/svg"
 width="238.000000pt" height="238.000000pt" viewBox="0 0 238.000000 238.000000"
 preserveAspectRatio="xMidYMid meet">
<metadata>
Created by potrace 1.16, written by Peter Selinger 2001-2019
</metadata>
<g transform="translate(0.000000,238.000000) scale(0.100000,-0.100000)"
fill="#000000" stroke="none">
<path d="M612 1776 c-315 -316 -572 -578 -572 -583 0 -4 260 -268 578 -586
l577 -577 580 580 580 580 -580 580 c-319 319 -583 580 -586 580 -3 0 -263
-258 -577 -574z m538 -666 l0 -790 -37 15 c-21 9 -56 28 -78 42 -53 35 -185
163 -185 179 0 8 18 23 41 34 l40 21 -21 36 c-11 19 -19 37 -17 40 3 2 21 -6
42 -18 28 -17 35 -27 31 -42 -8 -30 11 -105 35 -138 22 -32 50 -37 69 -14 9
11 7 21 -13 47 -48 64 -46 107 4 133 29 16 39 48 18 60 -5 4 -24 1 -40 -5 -24
-10 -36 -10 -57 -1 l-27 13 34 27 33 27 -58 56 c-33 31 -72 67 -89 80 -28 23
-161 78 -189 78 -7 0 -21 -18 -31 -40 -10 -23 -22 -37 -27 -32 -5 5 -18 40
-30 78 -19 59 -22 93 -22 234 0 339 78 516 267 605 69 33 192 62 270 64 l37 1
0 -790z m213 781 c26 -4 50 -11 55 -15 4 -4 -8 -20 -27 -35 -21 -17 -31 -33
-27 -40 4 -6 -4 -32 -19 -57 l-27 -45 23 -72 c13 -40 25 -78 27 -84 2 -7 -5
-13 -16 -13 -11 0 -25 -7 -32 -15 -19 -22 5 -45 46 -45 30 0 36 -5 59 -49 13
-27 28 -52 33 -55 5 -3 32 1 60 9 37 9 50 10 45 2 -4 -7 -10 -32 -13 -57 -5
-45 -5 -45 -47 -48 l-42 -3 -30 59 c-42 83 -98 103 -153 54 -22 -19 -23 -36
-3 -52 12 -10 20 -9 40 4 32 21 39 16 70 -45 34 -65 62 -83 125 -77 74 7 100
29 100 83 0 41 2 45 25 45 40 0 67 -35 64 -83 -3 -61 -1 -67 21 -67 26 0 40
29 40 83 0 54 -27 92 -82 117 l-39 17 30 6 30 6 -30 112 c-17 61 -29 112 -27
113 2 1 22 10 46 19 l44 16 23 -52 c47 -101 59 -178 59 -372 1 -178 1 -181
-30 -260 -17 -44 -42 -101 -55 -127 l-24 -48 -1 39 c-2 50 -33 105 -62 109
-33 5 -37 -23 -11 -74 l24 -45 -28 -25 c-15 -13 -38 -24 -51 -24 -19 0 -22 4
-19 28 5 33 -18 68 -40 59 -9 -3 -19 -23 -22 -44 -20 -117 -73 -169 -134 -131
-10 6 -26 8 -35 5 -28 -11 -18 -44 19 -66 44 -25 46 -61 9 -116 -14 -20 -24
-45 -22 -54 5 -23 36 -26 58 -6 25 23 53 109 48 146 -3 21 0 30 13 34 10 3 33
23 52 44 28 31 43 39 80 43 25 3 60 16 78 29 l33 24 -24 -40 c-122 -204 -281
-373 -394 -420 l-36 -15 0 790 0 790 38 -1 c20 0 58 -4 85 -8z"/>
<path d="M854 1831 c-68 -41 -83 -106 -39 -159 14 -17 25 -42 25 -56 0 -22 -4
-26 -30 -26 -40 0 -108 -28 -120 -50 -6 -11 -5 -23 3 -34 12 -16 15 -16 57 3
49 22 115 28 125 10 4 -6 13 -8 20 -5 7 2 17 0 23 -6 8 -8 3 -21 -18 -45 -33
-37 -39 -77 -14 -87 11 -4 31 10 63 44 42 45 51 50 89 50 29 0 45 5 48 15 10
26 -16 45 -61 45 -24 0 -48 6 -54 14 -6 8 -25 19 -41 26 -21 9 -30 19 -30 35
0 29 22 47 74 60 29 8 41 16 41 29 0 35 -29 42 -89 22 -60 -21 -76 -16 -76 19
0 46 53 65 137 50 36 -6 44 -5 50 10 19 50 -117 76 -183 36z"/>
<path d="M1023 1398 c-12 -6 -36 -37 -53 -70 -32 -59 -32 -59 -73 -56 -42 3
-42 3 -47 49 -7 62 -23 79 -72 79 -51 0 -94 -23 -118 -63 -34 -54 -21 -147 20
-147 22 0 24 6 20 63 -2 45 30 87 67 87 20 0 23 -5 23 -36 0 -50 15 -72 58
-84 86 -24 148 3 172 75 16 50 34 61 65 41 32 -21 42 -20 50 3 8 26 -2 47 -31
60 -30 13 -52 13 -81 -1z"/>
<path d="M1043 1225 c-35 -15 -63 -60 -63 -100 0 -17 -5 -25 -18 -25 -9 0 -39
-11 -65 -26 -73 -38 -92 -26 -99 66 -3 37 -33 55 -49 28 -17 -26 -10 -94 14
-129 35 -52 81 -60 147 -25 46 24 55 26 81 14 15 -7 34 -25 40 -40 15 -36 45
-62 64 -55 24 10 18 38 -20 97 -47 74 -47 114 0 141 19 12 35 25 35 29 0 7
-28 41 -33 40 -1 -1 -16 -7 -34 -15z"/>
<path d="M1313 1233 c-21 -7 -15 -51 7 -58 29 -9 53 -50 45 -75 -3 -11 -22
-43 -41 -72 -38 -56 -41 -91 -9 -96 15 -2 27 8 43 36 12 22 34 48 49 57 25 17
28 17 80 -9 68 -33 95 -33 135 3 27 24 32 36 36 89 4 51 1 63 -12 68 -25 10
-46 -15 -46 -53 0 -43 -16 -73 -38 -73 -9 0 -35 12 -57 25 -22 14 -50 25 -62
25 -18 0 -23 6 -23 28 0 56 -65 119 -107 105z"/>
</g>
</svg>
