<?xml version="1.0" encoding="UTF-8" standalone="no"?>
<svg
   xmlns:dc="http://purl.org/dc/elements/1.1/"
   xmlns:cc="http://creativecommons.org/ns#"
   xmlns:rdf="http://www.w3.org/1999/02/22-rdf-syntax-ns#"
   xmlns:svg="http://www.w3.org/2000/svg"
   xmlns="http://www.w3.org/2000/svg"
   xmlns:sodipodi="http://sodipodi.sourceforge.net/DTD/sodipodi-0.dtd"
   xmlns:inkscape="http://www.inkscape.org/namespaces/inkscape"
   version="1.0"
   width="238.000000pt"
   height="238.000000pt"
   viewBox="0 0 238.000000 238.000000"
   preserveAspectRatio="xMidYMid meet"
   id="svg2333"
   sodipodi:docname="dementationsup.svg"
   inkscape:version="1.0.1 (3bc2e813f5, 2020-09-07)">
  <defs
     id="defs2337" />
  <sodipodi:namedview
     pagecolor="#ffffff"
     bordercolor="#666666"
     borderopacity="1"
     objecttolerance="10"
     gridtolerance="10"
     guidetolerance="10"
     inkscape:pageopacity="0"
     inkscape:pageshadow="2"
     inkscape:window-width="1600"
     inkscape:window-height="837"
     id="namedview2335"
     showgrid="false"
     inkscape:zoom="2.1113445"
     inkscape:cx="158.66667"
     inkscape:cy="158.66667"
     inkscape:window-x="-8"
     inkscape:window-y="-8"
     inkscape:window-maximized="1"
     inkscape:current-layer="svg2333" />
  <metadata
     id="metadata2319">
Created by potrace 1.16, written by Peter Selinger 2001-2019
<rdf:RDF>
  <cc:Work
     rdf:about="">
    <dc:format>image/svg+xml</dc:format>
    <dc:type
       rdf:resource="http://purl.org/dc/dcmitype/StillImage" />
  </cc:Work>
</rdf:RDF>
</metadata>
  <g
     transform="translate(0.000000,238.000000) scale(0.100000,-0.100000)"
     fill="#000000"
     stroke="none"
     id="g2331">
    <path
       d="M612 1776 c-315 -316 -572 -578 -572 -583 0 -4 260 -268 578 -586 l577 -577 580 580 580 580 -580 580 c-319 319 -583 580 -586 580 -3 0 -263 -258 -577 -574z m538 -666 l0 -790 -37 15 c-21 9 -56 28 -78 42 -53 35 -185 163 -185 179 0 8 18 23 41 34 l40 21 -21 36 c-11 19 -19 37 -17 40 3 2 21 -6 42 -18 28 -17 35 -27 31 -42 -8 -30 11 -105 35 -138 22 -32 50 -37 69 -14 9 11 7 21 -13 47 -48 64 -46 107 4 133 29 16 39 48 18 60 -5 4 -24 1 -40 -5 -24 -10 -36 -10 -57 -1 l-27 13 34 27 33 27 -58 56 c-33 31 -72 67 -89 80 -28 23 -161 78 -189 78 -7 0 -21 -18 -31 -40 -10 -23 -22 -37 -27 -32 -5 5 -18 40 -30 78 -19 59 -22 93 -22 234 0 339 78 516 267 605 69 33 192 62 270 64 l37 1 0 -790z m213 781 c26 -4 50 -11 55 -15 4 -4 -8 -20 -27 -35 -21 -17 -31 -33 -27 -40 4 -6 -4 -32 -19 -57 l-27 -45 23 -72 c13 -40 25 -78 27 -84 2 -7 -5 -13 -16 -13 -11 0 -25 -7 -32 -15 -19 -22 5 -45 46 -45 30 0 36 -5 59 -49 13 -27 28 -52 33 -55 5 -3 32 1 60 9 37 9 50 10 45 2 -4 -7 -10 -32 -13 -57 -5 -45 -5 -45 -47 -48 l-42 -3 -30 59 c-42 83 -98 103 -153 54 -22 -19 -23 -36 -3 -52 12 -10 20 -9 40 4 32 21 39 16 70 -45 34 -65 62 -83 125 -77 74 7 100 29 100 83 0 41 2 45 25 45 40 0 67 -35 64 -83 -3 -61 -1 -67 21 -67 26 0 40 29 40 83 0 54 -27 92 -82 117 l-39 17 30 6 30 6 -30 112 c-17 61 -29 112 -27 113 2 1 22 10 46 19 l44 16 23 -52 c47 -101 59 -178 59 -372 1 -178 1 -181 -30 -260 -17 -44 -42 -101 -55 -127 l-24 -48 -1 39 c-2 50 -33 105 -62 109 -33 5 -37 -23 -11 -74 l24 -45 -28 -25 c-15 -13 -38 -24 -51 -24 -19 0 -22 4 -19 28 5 33 -18 68 -40 59 -9 -3 -19 -23 -22 -44 -20 -117 -73 -169 -134 -131 -10 6 -26 8 -35 5 -28 -11 -18 -44 19 -66 44 -25 46 -61 9 -116 -14 -20 -24 -45 -22 -54 5 -23 36 -26 58 -6 25 23 53 109 48 146 -3 21 0 30 13 34 10 3 33 23 52 44 28 31 43 39 80 43 25 3 60 16 78 29 l33 24 -24 -40 c-122 -204 -281 -373 -394 -420 l-36 -15 0 790 0 790 38 -1 c20 0 58 -4 85 -8z"
       id="path2321" />
    <path
       d="M854 1831 c-68 -41 -83 -106 -39 -159 14 -17 25 -42 25 -56 0 -22 -4 -26 -30 -26 -40 0 -108 -28 -120 -50 -6 -11 -5 -23 3 -34 12 -16 15 -16 57 3 49 22 115 28 125 10 4 -6 13 -8 20 -5 7 2 17 0 23 -6 8 -8 3 -21 -18 -45 -33 -37 -39 -77 -14 -87 11 -4 31 10 63 44 42 45 51 50 89 50 29 0 45 5 48 15 10 26 -16 45 -61 45 -24 0 -48 6 -54 14 -6 8 -25 19 -41 26 -21 9 -30 19 -30 35 0 29 22 47 74 60 29 8 41 16 41 29 0 35 -29 42 -89 22 -60 -21 -76 -16 -76 19 0 46 53 65 137 50 36 -6 44 -5 50 10 19 50 -117 76 -183 36z"
       id="path2323" />
    <path
       d="M1023 1398 c-12 -6 -36 -37 -53 -70 -32 -59 -32 -59 -73 -56 -42 3 -42 3 -47 49 -7 62 -23 79 -72 79 -51 0 -94 -23 -118 -63 -34 -54 -21 -147 20 -147 22 0 24 6 20 63 -2 45 30 87 67 87 20 0 23 -5 23 -36 0 -50 15 -72 58 -84 86 -24 148 3 172 75 16 50 34 61 65 41 32 -21 42 -20 50 3 8 26 -2 47 -31 60 -30 13 -52 13 -81 -1z"
       id="path2325" />
    <path
       d="M1043 1225 c-35 -15 -63 -60 -63 -100 0 -17 -5 -25 -18 -25 -9 0 -39 -11 -65 -26 -73 -38 -92 -26 -99 66 -3 37 -33 55 -49 28 -17 -26 -10 -94 14 -129 35 -52 81 -60 147 -25 46 24 55 26 81 14 15 -7 34 -25 40 -40 15 -36 45 -62 64 -55 24 10 18 38 -20 97 -47 74 -47 114 0 141 19 12 35 25 35 29 0 7 -28 41 -33 40 -1 -1 -16 -7 -34 -15z"
       id="path2327" />
    <path
       d="M1313 1233 c-21 -7 -15 -51 7 -58 29 -9 53 -50 45 -75 -3 -11 -22 -43 -41 -72 -38 -56 -41 -91 -9 -96 15 -2 27 8 43 36 12 22 34 48 49 57 25 17 28 17 80 -9 68 -33 95 -33 135 3 27 24 32 36 36 89 4 51 1 63 -12 68 -25 10 -46 -15 -46 -53 0 -43 -16 -73 -38 -73 -9 0 -35 12 -57 25 -22 14 -50 25 -62 25 -18 0 -23 6 -23 28 0 56 -65 119 -107 105z"
       id="path2329" />
  </g>
  <path
     style="fill:#ffffff;stroke-width:0.473632"
     d="m 150.14129,273.10342 c -7.17597,-3.00091 -12.66835,-6.45847 -19.18084,-12.07472 -5.71749,-4.93065 -15.8664,-15.09867 -16.78674,-16.81835 -0.60623,-1.13275 -0.56894,-1.3418 0.42875,-2.40379 0.601,-0.63973 2.82205,-2.05409 4.93568,-3.14302 5.34883,-2.7557 5.18911,-2.55697 3.81044,-4.74091 -1.70237,-2.69674 -4.12146,-7.55638 -3.88114,-7.79671 0.34021,-0.3402 5.69252,2.50315 7.39358,3.92775 l 1.58541,1.32774 0.13144,4.96701 c 0.32293,12.20288 6.79648,22.15868 12.49284,19.21297 3.08285,-1.5942 3.14509,-3.41431 0.26319,-7.69646 -3.44367,-5.11687 -4.56787,-7.64158 -4.63301,-10.40483 -0.0712,-3.02149 0.80963,-4.35835 4.66041,-7.07302 2.98408,-2.10366 4.00105,-3.5082 4.02689,-5.5615 0.0423,-3.36541 -1.95286,-3.94658 -7.53854,-2.19588 -3.36849,1.05578 -4.74805,0.93832 -7.9473,-0.67666 l -2.00411,-1.01168 4.23416,-3.31148 c 2.3288,-1.82131 4.24304,-3.43994 4.25387,-3.59695 0.0641,-0.92823 -17.22699,-16.93338 -20.92262,-19.36664 -4.79049,-3.15415 -20.502919,-9.47624 -23.551504,-9.47624 -1.632465,0 -2.291427,0.7329 -4.898439,5.44804 -1.151848,2.08328 -2.392037,3.78778 -2.755977,3.78778 -1.450832,0 -5.874455,-14.15199 -6.648942,-21.27119 -0.758902,-6.97596 -0.262154,-37.2422 0.734197,-44.73368 3.614398,-27.17635 12.539778,-43.175845 29.612455,-53.082824 5.09054,-2.953951 5.82398,-2.887167 2.46324,0.22429 -3.5223,3.261027 -4.81713,5.587554 -5.14945,9.252475 -0.30178,3.328063 0.60465,6.235098 2.93323,9.40726 3.29049,4.48255 4.42984,8.580329 2.83038,10.179789 -0.4663,0.4663 -1.57896,0.74428 -2.9791,0.74428 -4.73376,0 -13.633408,3.40641 -15.672586,5.9988 -1.369368,1.74087 -1.284181,4.41763 0.191255,6.00965 0.638806,0.68928 1.486952,1.25324 1.88477,1.25324 0.397817,0 2.805755,-0.83823 5.350973,-1.86273 7.713418,-3.10482 14.679468,-3.73626 16.746118,-1.51797 0.7629,0.81888 1.29107,0.96223 2.70957,0.7354 1.39668,-0.22334 1.94129,-0.0836 2.62706,0.67421 1.11085,1.22746 0.81929,2.06947 -1.83056,5.28651 -2.82982,3.43554 -4.02054,5.98295 -4.02054,8.60151 0,2.44219 1.00402,3.71292 2.93362,3.71292 1.53572,0 2.80769,-0.98288 8.95709,-6.92139 5.39317,-5.20821 5.12748,-5.07774 11.44426,-5.61975 1.76309,-0.15128 3.71818,-0.50861 4.34466,-0.79405 2.34084,-1.06656 1.92226,-4.70645 -0.72077,-6.26773 -0.87335,-0.5159 -3.13507,-1.00054 -5.88229,-1.26045 -4.71691,-0.44626 -7.13731,-1.19278 -8.26125,-2.54798 -0.37575,-0.45307 -2.11833,-1.5465 -3.87241,-2.42983 -3.58077,-1.80325 -4.68022,-3.03673 -4.68022,-5.25075 0,-3.018594 2.97582,-5.331401 9.35145,-7.267938 4.54113,-1.379327 5.80477,-2.400821 5.80477,-4.692444 0,-2.842626 -1.68684,-4.096053 -5.36967,-3.990005 -1.70784,0.04918 -4.85903,0.687836 -7.59505,1.539304 -2.57189,0.800389 -5.18279,1.455253 -5.80199,1.455253 -1.84639,0 -3.02036,-1.586459 -3.02036,-4.081592 0,-1.899489 0.2358,-2.422864 1.79329,-3.980355 2.46749,-2.467492 4.7704,-3.011965 11.23159,-2.655465 2.86547,0.158105 6.30417,0.421031 7.64154,0.58428 2.07992,0.25389 2.57654,0.151868 3.43383,-0.705423 2.52659,-2.526591 0.24942,-6.002545 -4.99323,-7.621834 -3.49139,-1.078382 -10.93503,-1.315414 -14.05989,-0.447718 -1.00129,0.278034 -1.92835,0.3977 -2.06012,0.265923 -0.45358,-0.45358 10.52342,-3.658656 17.37916,-5.074387 4.32325,-0.892763 9.105,-1.526447 12.90647,-1.710385 l 6.0388,-0.292192 V 169.25187 c 0,57.73953 -0.0533,104.97196 -0.1184,104.96095 -0.0651,-0.011 -1.29065,-0.51024 -2.72339,-1.1094 z m -2.7896,-80.86108 c 1.73842,-1.73842 0.68815,-5.1122 -3.93632,-12.64474 -3.86047,-6.28808 -5.17255,-10.54464 -4.17866,-13.55614 0.56399,-1.70892 2.03351,-3.14205 6.10504,-5.9539 1.32019,-0.91174 2.51643,-1.94816 2.65831,-2.30315 0.31363,-0.78472 -1.10284,-3.1603 -2.91713,-4.89239 l -1.33567,-1.27514 -3.78905,1.78456 c -5.78641,2.72527 -8.78522,6.90813 -9.50336,13.25568 -0.36649,3.23933 -0.65562,3.60618 -3.1431,3.98789 -0.96411,0.14795 -4.30311,1.46683 -7.42,2.93085 -3.11689,1.46402 -6.37769,2.77717 -7.24623,2.91811 -3.2897,0.53385 -5.16612,-2.59114 -5.87489,-9.78401 -0.47181,-4.78816 -2.49843,-7.57372 -5.04518,-6.93452 -2.333024,0.58555 -2.976092,2.35939 -2.946298,8.12705 0.02227,4.31103 0.21943,5.69966 1.142698,8.04825 1.41062,3.5883 5.49557,7.82369 8.35798,8.66579 4.1681,1.22622 6.91584,0.68973 14.53337,-2.83759 5.79597,-2.68385 6.74123,-2.72229 10.36883,-0.42173 1.61318,1.02304 2.73304,2.34661 4.46472,5.27683 3.50034,5.92302 7.23312,8.08012 9.70494,5.6083 z m -54.062882,-34.4918 c 0.269663,-0.50387 0.490296,-3.14202 0.490296,-5.86255 0,-5.16699 0.464822,-7.03481 2.345611,-9.42554 1.458818,-1.85436 3.356753,-3.08643 5.322515,-3.45521 2.6431,-0.49585 3.69829,0.82158 3.70168,4.62162 0.007,8.33423 3.86736,11.61397 14.20631,12.07098 4.33956,0.19183 5.33291,0.084 7.79705,-0.84647 3.4325,-1.29611 6.84168,-4.58861 8.12918,-7.85097 3.47361,-8.80166 4.6927,-9.77369 9.33164,-7.44052 3.90996,1.96652 4.49642,2.1326 5.54643,1.57066 1.34119,-0.71779 2.09407,-4.02654 1.42462,-6.26096 -1.0198,-3.40381 -6.52053,-6.04156 -11.24775,-5.39363 -4.3722,0.59928 -6.96127,3.06171 -11.26824,10.71707 -4.23277,7.52349 -4.54657,7.75675 -9.7803,7.27033 -4.62805,-0.43013 -4.96988,-0.82183 -5.82743,-6.67744 -0.75731,-5.17116 -1.37851,-6.81764 -3.22169,-8.53895 -2.39092,-2.23284 -9.98213,-2.28649 -14.912864,-0.10539 -3.140871,1.38935 -6.907689,5.25361 -8.4383,8.65658 -2.371809,5.27318 -2.114238,12.82021 0.557228,16.32721 1.010888,1.32706 1.460826,1.53931 3.263143,1.53931 1.582149,0 2.209815,-0.2228 2.580871,-0.91613 z"
     id="path2339"
     transform="scale(0.74999998)" />
  <path
     style="fill:#ffffff;stroke-width:0.473632"
     d="M 165.77114,169.24463 V 64.268378 l 6.51244,0.299982 c 6.19157,0.285202 14.23455,1.584604 16.03094,2.589914 0.72532,0.405908 0.32923,0.990643 -3.08833,4.559214 -3.29632,3.441973 -3.87442,4.276647 -3.63172,5.243609 0.39726,1.582826 -0.61023,4.262001 -3.45864,9.197449 -1.33013,2.304713 -2.41842,4.484029 -2.41842,4.842924 0,0.358894 1.47908,5.233518 3.28684,10.8325 2.97665,9.21927 3.21394,10.23583 2.51445,10.772 -0.42481,0.32562 -1.2112,0.59284 -1.74753,0.59381 -1.42929,0.002 -3.9911,1.71068 -4.61307,3.07575 -1.27038,2.78816 1.40898,4.8627 6.87046,5.31957 4.14091,0.3464 4.77924,0.91455 8.14222,7.24707 3.11483,5.86525 3.75076,6.61654 5.60059,6.61654 0.83247,0 3.8429,-0.52634 6.68987,-1.16963 2.84696,-0.64329 5.26133,-1.08459 5.36527,-0.98065 0.10394,0.10394 -0.13533,1.64266 -0.53171,3.41938 -0.39638,1.77672 -0.86663,4.4473 -1.045,5.93461 -0.17837,1.48733 -0.57111,3.04175 -0.87277,3.45429 -0.56362,0.7708 -5.04303,1.62916 -8.59452,1.6469 l -1.90604,0.01 -2.28816,-4.61791 c -5.89786,-11.90293 -11.55495,-15.92339 -18.17639,-12.91787 -6.32266,2.8699 -8.24505,7.01759 -4.5864,9.89548 1.71039,1.34539 2.83078,1.26388 5.65508,-0.41144 4.10033,-2.43223 4.69112,-2.04481 8.98745,5.89374 4.33329,8.00686 7.56131,10.35658 14.2126,10.34553 8.04193,-0.0134 13.19292,-2.03822 15.25098,-5.99518 0.38901,-0.74795 0.8543,-3.37032 1.03398,-5.8275 0.34365,-4.69963 0.67984,-5.34236 2.80184,-5.3566 1.59586,-0.0107 4.41959,1.28851 5.91632,2.72213 1.89395,1.81409 2.72902,5.16422 2.68026,10.75264 -0.0541,6.19716 0.0421,6.41052 2.89008,6.41052 1.88603,0 2.44914,-0.21108 3.23778,-1.21368 1.59928,-2.03315 2.16523,-4.48762 2.17926,-9.45133 0.0125,-4.41086 -0.095,-4.96507 -1.52854,-7.87847 -1.85285,-3.76567 -4.17197,-5.80612 -9.56121,-8.41229 -4.13496,-1.99962 -4.14495,-1.95028 0.58481,-2.88814 2.21154,-0.43852 2.69713,-0.69733 2.50498,-1.33511 -1.71529,-5.6932 -7.37965,-27.670835 -7.37965,-28.632879 0,-0.385397 1.43875,-1.220528 3.43383,-1.99319 1.88861,-0.731425 4.4577,-1.725617 5.7091,-2.209315 l 2.27526,-0.879452 1.68691,3.673792 c 7.65754,16.676844 8.67355,22.405234 9.01982,50.855284 0.26723,21.95526 0.0457,25.36625 -2.04581,31.50484 -1.63037,4.7851 -7.67687,18.99022 -10.1046,23.73887 l -1.87541,3.66833 -0.0237,-3.38394 c -0.0571,-8.15558 -4.57353,-15.79077 -9.34408,-15.79638 -3.84906,-0.005 -3.9289,3.54176 -0.25008,11.10832 l 2.4097,4.95623 -2.34918,2.11211 c -2.95854,2.65999 -6.0682,4.19183 -8.11091,3.9955 l -1.56122,-0.15005 -0.26562,-3.55224 c -0.35187,-4.70577 -1.55516,-7.0047 -4.06907,-7.77415 -0.70677,-0.21632 -1.4143,0.0278 -2.30769,0.79628 -1.06206,0.91354 -1.5693,2.22594 -2.88722,7.4701 -1.78148,7.08876 -3.30874,10.61512 -5.78396,13.35489 -3.19258,3.5338 -6.12689,4.05925 -11.06403,1.98124 -3.42082,-1.43981 -5.65166,-1.27146 -6.82208,0.51483 -1.53235,2.33865 0.161,5.15575 5.26897,8.76559 4.43995,3.13775 4.57412,6.88576 0.48301,13.49222 -2.70337,4.36548 -3.77217,7.50319 -3.03368,8.90607 0.77052,1.46375 1.32045,1.73513 3.53272,1.74339 1.24318,0.005 2.50869,-0.37654 3.51391,-1.05842 3.46661,-2.35152 7.08861,-12.04098 7.1017,-18.99826 0.004,-2.11996 0.16384,-4.09115 0.35522,-4.38043 0.19139,-0.28927 1.05805,-0.88986 1.92593,-1.33464 0.86788,-0.44477 3.6792,-2.81944 6.24738,-5.27702 2.56819,-2.45758 5.26377,-4.6943 5.99019,-4.97049 0.72642,-0.27618 2.92375,-0.78609 4.88297,-1.13313 4.43485,-0.78555 8.09687,-2.22157 11.0192,-4.32105 1.23885,-0.89003 2.25245,-1.501 2.25245,-1.35772 0,0.59932 -8.52766,13.85499 -12.21196,18.98265 -10.73088,14.93484 -21.34242,26.34931 -31.76839,34.17218 -4.18028,3.13657 -6.67029,4.57344 -12.02661,6.94001 l -2.72339,1.20327 z m 13.19901,22.17543 c 0.94622,-1.00195 2.73711,-3.34749 3.97976,-5.21232 2.51184,-3.76949 6.01231,-6.67137 8.06943,-6.68953 0.73139,-0.006 4.03497,1.18938 7.34129,2.65742 9.59868,4.26191 12.89221,4.10908 18.31827,-0.85004 3.13876,-2.86864 3.9389,-4.84279 4.54969,-11.22525 0.71417,-7.46264 -0.0471,-10.01278 -2.98886,-10.01278 -3.19563,0 -4.58073,2.12398 -5.16884,7.92616 -0.21811,2.15185 -0.69585,4.62872 -1.06163,5.50418 -0.79951,1.91349 -2.53143,3.62041 -3.67345,3.62041 -0.45697,0 -3.59409,-1.40934 -6.97139,-3.13185 -3.96404,-2.02178 -6.92278,-3.22002 -8.34746,-3.38061 -2.68279,-0.30238 -3.35298,-1.19103 -3.70503,-4.91268 -0.13855,-1.46461 -0.71152,-3.56386 -1.27328,-4.66499 -2.37855,-4.66234 -7.51956,-8.53873 -11.3244,-8.53873 -2.48074,0 -3.365,0.95053 -3.365,3.61721 0,2.73618 0.56944,3.74718 2.73922,4.86324 3.20763,1.6499 5.78616,5.25601 5.78616,8.09202 0,1.75241 -1.08937,3.97276 -4.8562,9.89791 -3.69621,5.81407 -4.59344,7.87198 -4.60604,10.56446 -0.008,1.7672 0.20539,2.37404 1.04225,2.9602 1.82983,1.28166 3.61193,0.93128 5.51551,-1.08443 z"
     id="path2341"
     transform="scale(0.74999998)" />
</svg>
