<?xml version="1.0" encoding="UTF-8" standalone="no"?>
<svg
   xmlns:dc="http://purl.org/dc/elements/1.1/"
   xmlns:cc="http://creativecommons.org/ns#"
   xmlns:rdf="http://www.w3.org/1999/02/22-rdf-syntax-ns#"
   xmlns:svg="http://www.w3.org/2000/svg"
   xmlns="http://www.w3.org/2000/svg"
   xmlns:sodipodi="http://sodipodi.sourceforge.net/DTD/sodipodi-0.dtd"
   xmlns:inkscape="http://www.inkscape.org/namespaces/inkscape"
   version="1.0"
   width="288.000000pt"
   height="289.000000pt"
   viewBox="0 0 288.000000 289.000000"
   preserveAspectRatio="xMidYMid meet"
   id="svg2289"
   sodipodi:docname="dementation.svg"
   inkscape:version="1.0.1 (3bc2e813f5, 2020-09-07)">
  <defs
     id="defs2293" />
  <sodipodi:namedview
     pagecolor="#ffffff"
     bordercolor="#666666"
     borderopacity="1"
     objecttolerance="10"
     gridtolerance="10"
     guidetolerance="10"
     inkscape:pageopacity="0"
     inkscape:pageshadow="2"
     inkscape:window-width="1600"
     inkscape:window-height="837"
     id="namedview2291"
     showgrid="false"
     inkscape:zoom="1.7387543"
     inkscape:cx="192"
     inkscape:cy="192.66667"
     inkscape:window-x="-8"
     inkscape:window-y="-8"
     inkscape:window-maximized="1"
     inkscape:current-layer="svg2289" />
  <metadata
     id="metadata2273">
Created by potrace 1.16, written by Peter Selinger 2001-2019
<rdf:RDF>
  <cc:Work
     rdf:about="">
    <dc:format>image/svg+xml</dc:format>
    <dc:type
       rdf:resource="http://purl.org/dc/dcmitype/StillImage" />
  </cc:Work>
</rdf:RDF>
</metadata>
  <g
     transform="translate(0.000000,289.000000) scale(0.100000,-0.100000)"
     fill="#000000"
     stroke="none"
     id="g2287">
    <path
       d="M240 1450 l0 -1200 1200 0 1200 0 0 1200 0 1200 -1200 0 -1200 0 0 -1200z m1160 0 l0 -1050 -52 20 c-28 10 -76 36 -107 56 -69 45 -255 229 -247 243 4 6 29 23 56 38 28 15 50 33 50 38 0 6 -12 28 -26 48 -14 21 -24 41 -21 43 2 3 25 -8 50 -23 46 -28 46 -29 47 -83 1 -105 73 -222 118 -194 25 16 27 53 4 77 -30 33 -42 62 -42 101 0 43 8 66 25 66 7 0 24 10 39 21 19 15 26 29 24 48 -4 33 -30 39 -72 16 -30 -16 -34 -16 -71 0 l-40 16 30 25 c17 13 38 27 48 30 9 3 17 9 17 13 0 4 -52 54 -116 111 -113 102 -118 106 -231 148 -64 23 -117 41 -118 40 -2 -2 -16 -32 -32 -68 l-29 -64 -22 70 c-41 131 -52 203 -52 364 0 350 62 570 199 708 113 113 314 188 509 191 l62 1 0 -1050z m342 1034 c23 -5 26 -9 18 -24 -5 -10 -26 -27 -46 -39 -30 -18 -35 -26 -31 -48 3 -19 -5 -42 -31 -81 l-35 -56 34 -100 c44 -132 43 -126 21 -126 -37 0 -52 -12 -52 -40 0 -32 14 -40 70 -40 37 0 40 -2 76 -70 43 -78 45 -79 134 -55 30 8 56 15 58 15 2 0 -4 -10 -12 -22 -9 -12 -16 -43 -16 -68 0 -54 -13 -70 -56 -70 -52 0 -63 9 -96 74 -39 78 -63 104 -105 112 -64 12 -145 -46 -122 -88 16 -30 35 -32 69 -8 38 27 50 19 90 -59 15 -31 40 -67 55 -81 24 -22 35 -25 97 -23 114 3 164 46 152 132 l-6 44 38 -6 c20 -3 47 -16 60 -28 21 -20 24 -32 24 -95 0 -66 2 -73 22 -80 16 -5 27 0 41 17 16 19 18 36 15 94 -5 97 -35 137 -133 171 -17 6 -15 8 15 16 19 5 36 11 37 12 1 1 -16 69 -38 150 -21 82 -38 150 -37 151 2 1 23 9 48 17 25 9 52 19 61 23 13 5 23 -9 47 -67 59 -144 82 -287 83 -518 0 -135 -3 -166 -24 -240 -114 -404 -446 -855 -709 -965 l-38 -15 0 1051 0 1052 98 -7 c53 -3 109 -9 124 -12z"
       id="path2275" />
    <path
       d="M1009 2417 c-100 -53 -119 -154 -44 -237 17 -18 22 -33 18 -56 -5 -30 -8 -32 -59 -37 -72 -7 -138 -44 -142 -78 -2 -14 4 -31 13 -39 13 -10 25 -8 74 14 63 28 135 36 153 18 7 -7 21 -12 33 -12 43 0 46 -20 11 -62 -50 -59 -56 -110 -13 -124 16 -5 26 0 42 22 61 85 80 99 147 104 l63 5 0 35 0 35 -62 1 c-50 1 -67 6 -91 26 -16 13 -43 30 -61 37 -22 10 -31 20 -31 37 0 29 42 72 78 80 70 15 77 20 77 50 0 28 -2 29 -48 32 -34 2 -60 -3 -88 -18 -47 -24 -79 -14 -79 25 0 37 10 55 40 70 38 20 77 21 133 6 54 -15 80 -4 75 33 -8 55 -157 76 -239 33z"
       id="path2277" />
    <path
       d="M1235 1840 c-28 -11 -44 -31 -85 -109 l-35 -66 -47 1 c-64 0 -78 15 -78 79 0 62 -19 84 -79 92 -59 8 -140 -33 -169 -86 -51 -90 -8 -245 52 -186 12 13 14 28 10 74 -6 51 -4 60 17 84 15 17 38 30 61 34 l37 5 3 -63 c3 -59 5 -65 35 -85 19 -12 57 -24 92 -28 89 -10 120 8 165 93 48 92 59 100 97 72 50 -37 80 -16 65 45 -11 42 -87 66 -141 44z"
       id="path2279" />
    <path
       d="M1253 1604 c-40 -20 -75 -75 -83 -128 -5 -37 -8 -41 -40 -47 -19 -3 -57 -18 -84 -32 -27 -15 -55 -27 -62 -27 -25 0 -54 51 -54 96 0 58 -8 74 -36 74 -73 0 -51 -182 28 -230 47 -28 93 -25 167 15 62 33 64 33 97 17 18 -10 43 -35 55 -57 41 -75 71 -93 99 -60 18 21 7 53 -43 126 -24 35 -47 74 -51 85 -10 34 10 71 54 99 43 27 49 44 24 69 -19 20 -31 20 -71 0z"
       id="path2281" />
    <path
       d="M1606 1605 c-25 -25 -19 -43 24 -70 75 -47 76 -85 4 -186 -48 -68 -59 -124 -28 -136 24 -9 46 8 77 63 17 29 42 56 62 66 32 16 34 16 101 -18 79 -40 119 -43 164 -11 46 31 70 81 70 144 0 66 -7 83 -34 83 -34 0 -46 -20 -46 -77 0 -40 -5 -58 -20 -73 -26 -26 -35 -25 -95 7 -28 15 -66 29 -85 32 -32 6 -36 10 -41 46 -10 76 -49 125 -110 140 -18 4 -31 1 -43 -10z"
       id="path2283" />
    <path
       d="M2015 1241 c-4 -13 3 -36 19 -64 14 -24 26 -53 26 -64 0 -35 -32 -64 -78 -70 l-42 -6 0 46 c0 43 -18 77 -40 77 -21 0 -39 -35 -50 -100 -15 -87 -43 -131 -95 -148 -35 -12 -44 -11 -71 3 -43 23 -68 17 -72 -17 -3 -22 3 -31 30 -47 57 -34 61 -40 56 -91 -3 -33 -15 -62 -38 -94 l-34 -47 22 -22 c21 -20 24 -21 50 -7 40 22 74 99 80 179 4 66 5 67 44 90 21 12 51 39 66 60 25 37 30 39 88 43 48 3 70 10 98 31 71 55 83 119 39 208 -24 46 -32 54 -60 57 -24 2 -33 -1 -38 -17z"
       id="path2285" />
  </g>
  <path
     style="fill:#ffffff;stroke-width:0.575124"
     d="m 180.6764,329.29267 c -7.88959,-3.23143 -13.8276,-6.70144 -20.23364,-11.82401 -6.79526,-5.4338 -25.10414,-23.46692 -26.67396,-26.27221 l -1.00632,-1.79831 4.74463,-2.99903 c 9.51173,-6.01226 9.37336,-5.88968 9.07432,-8.03891 -0.066,-0.47448 -1.39072,-2.94082 -2.94377,-5.48076 -1.55305,-2.53993 -2.82373,-4.8186 -2.82373,-5.06369 0,-0.65451 7.53798,3.41784 9.75971,5.27262 1.86684,1.55852 1.9161,1.7186 2.38756,7.7593 0.56446,7.23249 1.69197,11.99813 3.9759,16.80502 4.4346,9.33328 10.28312,12.92017 13.7924,8.45885 1.43544,-1.82487 1.50046,-5.63015 0.13165,-7.70577 -0.55189,-0.83687 -1.85504,-2.71037 -2.89587,-4.16333 -2.62732,-3.66759 -3.57266,-6.7183 -3.56277,-11.49734 0.0109,-5.28467 0.73662,-6.61342 4.63171,-8.48078 4.48353,-2.14947 6.8623,-5.00843 6.8623,-8.24757 0,-2.07088 -0.28509,-2.75055 -1.58142,-3.77024 -1.91189,-1.50389 -3.93624,-1.30311 -8.46569,0.83966 -1.71024,0.80908 -3.59854,1.47104 -4.19623,1.47104 -1.15365,0 -8.15909,-2.67644 -8.93159,-3.41232 -0.52227,-0.49753 4.70041,-4.5967 8.14231,-6.39071 4.32412,-2.25386 4.29882,-2.42742 -1.10356,-7.57056 -7.61936,-7.25374 -20.65219,-18.80571 -24.0497,-21.31705 -1.69969,-1.25636 -5.19357,-3.26488 -7.76418,-4.46337 -5.00821,-2.33497 -23.97134,-9.1823 -25.42963,-9.1823 -0.76601,0 -3.077447,4.44407 -7.887468,15.16479 -0.711824,1.58653 -0.844789,1.30577 -3.490169,-7.36961 -5.453693,-17.8851 -6.687452,-26.85382 -6.687452,-48.61394 0,-57.96666 12.888277,-89.468304 43.307919,-105.853632 4.33697,-2.336076 6.61904,-2.901171 3.52254,-0.872263 -3.01056,1.972591 -6.57229,6.286371 -7.71736,9.346863 -2.4686,6.597904 -1.02773,13.445336 4.24016,20.150518 3.09481,3.939192 3.74676,6.427904 2.47882,9.462504 -0.94441,2.2603 -1.15843,2.3466 -8.24284,3.32376 -6.39226,0.88169 -12.04314,3.22838 -15.27482,6.3433 -2.40432,2.31746 -2.76019,2.9607 -2.76019,4.98914 0,3.01237 1.75986,5.35941 4.0186,5.35941 0.89904,0 4.56824,-1.14639 8.15378,-2.54753 9.88677,-3.86352 17.40265,-4.72289 20.08387,-2.29643 0.51811,0.46889 2.40496,1.09062 4.193,1.38164 1.78804,0.291 3.50604,0.68674 3.81778,0.87941 1.21397,0.75027 0.44546,2.94292 -2.39681,6.83846 -6.59257,9.03556 -7.35134,14.39587 -2.37224,16.7586 2.796,1.32679 4.42424,0.47075 7.92391,-4.16597 7.30174,-9.67411 9.78139,-11.28823 18.80076,-12.23834 2.94496,-0.31022 5.93678,-0.56852 6.64849,-0.574 1.23802,-0.01 1.29403,-0.21817 1.29403,-4.82034 v -4.81038 l -6.75771,-0.39978 c -8.57672,-0.50739 -10.13409,-0.93341 -13.97451,-3.82276 -1.72449,-1.29743 -4.83039,-3.21963 -6.902,-4.27156 -4.62522,-2.34862 -5.56933,-3.9181 -4.2528,-7.06979 1.87308,-4.484027 6.21063,-7.562486 12.73747,-9.040087 5.84072,-1.32227 7.07194,-2.426598 7.07194,-6.343047 0,-2.477458 -0.22374,-3.220952 -1.11244,-3.696566 -1.62884,-0.87173 -11.45189,-0.693537 -13.84079,0.251077 -8.18771,3.237561 -8.94819,3.42411 -10.81178,2.652187 -2.06268,-0.854391 -2.62769,-2.155583 -2.49426,-5.74419 0.13561,-3.647268 1.85652,-6.050746 5.60057,-7.821966 4.68169,-2.214794 7.80312,-2.384797 15.66873,-0.853363 9.18217,1.787766 11.59097,1.051568 11.59097,-3.542535 0,-2.981409 -1.96403,-5.006631 -6.621,-6.827304 -2.89928,-1.133493 -4.53471,-1.35268 -10.34517,-1.386503 -3.79582,-0.0221 -8.06612,0.161617 -9.48955,0.408251 l -2.58806,0.448426 2.01293,-0.917092 c 8.2885,-3.776237 24.7152,-7.067462 37.81443,-7.576435 l 8.77065,-0.340785 V 191.71734 c 0,76.75487 -0.19411,139.54306 -0.43135,139.52931 -0.23724,-0.0137 -2.55069,-0.89303 -5.14101,-1.95398 z m -2.18137,-106.83684 c 1.29817,-1.54279 1.50565,-2.24066 1.27487,-4.28815 -0.31379,-2.78389 -2.24888,-6.73088 -6.15815,-12.56071 -5.07692,-7.57113 -7.49235,-12.08555 -7.49235,-14.00314 0,-3.60087 2.72329,-7.28509 8.33931,-11.2819 4.99075,-3.55183 5.46768,-5.61544 2.0806,-9.00253 -2.68909,-2.68908 -3.82439,-2.76926 -8.40697,-0.59371 -6.00642,2.85152 -10.33497,8.78991 -12.11152,16.61594 -0.48533,2.13797 -1.00836,4.3123 -1.16228,4.83184 -0.30552,1.03117 -1.70585,1.67217 -6.63388,3.0367 -1.776,0.49174 -6.1757,2.3181 -9.77712,4.05857 -3.60142,1.74046 -6.85169,3.16686 -7.22282,3.16976 -1.38686,0.0109 -4.10293,-2.94194 -5.33017,-5.79473 -0.84169,-1.95658 -1.41788,-4.86696 -1.7099,-8.63698 -0.52122,-6.72882 -1.27672,-7.99286 -4.77727,-7.99286 -3.07668,0 -4.17686,0.71965 -5.26757,3.44561 -1.833,4.5811 -0.8443,14.06996 2.06437,19.81243 3.98819,7.87372 11.06914,11.35639 19.47415,9.5781 1.71746,-0.36337 6.27426,-2.20642 10.12621,-4.09567 3.85195,-1.88925 7.41884,-3.435 7.92643,-3.435 1.70002,0 5.18076,1.76604 7.14204,3.62368 1.06846,1.012 3.55878,4.3186 5.53405,7.34798 4.09458,6.27969 5.96167,8.00745 8.65321,8.00745 1.41422,0 2.27102,-0.45965 3.43476,-1.84268 z m -73.90242,-44.46079 c 2.65342,-1.37214 2.94448,-2.51091 2.77603,-10.86149 -0.13402,-6.64454 -0.0139,-7.87031 0.90908,-9.27901 2.518,-3.84295 6.39533,-6.16995 11.31759,-6.79231 l 2.64905,-0.33494 0.40412,7.31048 c 0.29524,5.34064 0.67461,7.77487 1.40793,9.03391 2.33961,4.0169 9.16207,6.59617 18.63675,7.04575 10.40957,0.49393 13.18762,-1.36274 19.84475,-13.26295 2.12798,-3.80394 4.69656,-7.79995 5.70795,-8.88 2.12019,-2.26413 2.51192,-2.22443 7.4618,0.75623 3.71327,2.23602 5.24529,2.43719 7.10323,0.93272 1.06608,-0.86326 1.28555,-1.6024 1.26176,-4.24956 -0.0159,-1.76627 -0.44464,-4.00869 -0.95532,-4.99623 -1.93434,-3.7406 -8.05827,-6.20939 -14.05404,-5.66571 -6.91122,0.62669 -9.30567,3.01858 -16.45931,16.44169 l -4.02587,7.55416 -5.23408,0.006 c -9.1744,0.0109 -10.38339,-1.10583 -11.10211,-10.2548 -0.67672,-8.61433 -2.46985,-10.89465 -9.53439,-12.12489 -9.71101,-1.6911 -21.06454,4.37763 -25.051395,13.39057 -3.263432,7.37753 -2.057641,20.62544 2.180718,23.95933 1.738417,1.36744 2.546207,1.41344 4.755757,0.27084 z"
     id="path2295"
     transform="scale(0.74999999)" />
  <path
     style="fill:#ffffff;stroke-width:0.575124"
     d="M 202.92736,191.53536 V 51.721576 l 2.73184,0.305494 c 1.50252,0.168022 6.61393,0.578946 11.35871,0.913165 8.98186,0.632677 16.16073,1.486357 17.03308,2.025499 1.7375,1.073834 -0.29956,3.704823 -5.53059,7.143076 -3.8645,2.540056 -4.31343,3.212345 -4.31343,6.459386 0,3.463496 -0.85834,5.538017 -5.19376,12.552877 -1.88821,3.055189 -3.43311,5.957093 -3.43311,6.448676 0,0.491582 1.30966,4.605535 2.91035,9.142118 1.60069,4.536583 3.6751,10.818673 4.60979,13.960193 1.86374,6.26407 1.77612,6.62838 -1.59805,6.64451 -1.01316,0.005 -2.47275,0.29615 -3.24355,0.64735 -2.81561,1.28287 -3.55149,5.75906 -1.36474,8.30132 1.19599,1.39041 1.82354,1.56594 6.9977,1.95727 6.64948,0.50292 6.16652,0.11554 11.06863,8.8782 1.79003,3.19973 4.08845,6.65882 5.10759,7.68685 2.39961,2.42057 4.64257,2.44401 13.40398,0.14011 3.60108,-0.94693 6.66316,-1.7217 6.80462,-1.7217 0.14146,0 -0.25329,0.84112 -0.87721,1.86915 -1.34908,2.22288 -2.40981,6.91625 -2.41105,10.66811 -0.002,5.94675 -3.28574,8.67954 -9.49699,7.9035 -4.40053,-0.54981 -6.17211,-2.26437 -10.2084,-9.87983 -6.37167,-12.02172 -9.63639,-14.90276 -16.81411,-14.83809 -10.65478,0.096 -18.27222,8.99604 -12.31436,14.38783 1.58393,1.43343 4.16744,1.1425 7.73531,-0.87108 5.52244,-3.11668 6.29224,-2.63085 11.72558,7.40016 3.734,6.8937 6.86784,11.04286 9.64439,12.76902 2.01851,1.2549 2.74563,1.35442 9.37724,1.28344 8.0014,-0.0856 12.35293,-0.97691 16.42724,-3.36461 4.79669,-2.81104 6.42305,-7.08788 5.6406,-14.83301 l -0.50984,-5.04671 2.59264,0.34503 c 3.44905,0.459 9.73959,3.6043 11.16956,5.58483 0.9563,1.3245 1.23174,3.04062 1.66156,10.35224 0.55191,9.38853 1.03257,10.9533 3.55945,11.58751 3.28223,0.82379 6.80093,-2.72421 7.54701,-7.60987 0.22591,-1.47934 0.11744,-5.65737 -0.24105,-9.28451 -0.83995,-8.49846 -2.7354,-12.72609 -7.22577,-16.11635 -1.65139,-1.24682 -3.96141,-2.6641 -5.13336,-3.14954 -1.17195,-0.48542 -3.10135,-1.29886 -4.28755,-1.80763 l -2.15671,-0.92503 3.69175,-1.0701 c 2.03046,-0.58856 3.89597,-1.27432 4.14556,-1.52391 0.24959,-0.24959 -1.73306,-8.99231 -4.40589,-19.42825 -2.67283,-10.43594 -4.86184,-19.382847 -4.86447,-19.882012 -0.003,-0.639491 2.14777,-1.697984 7.28249,-3.583451 5.93116,-2.177922 7.44799,-2.544158 8.15101,-1.968049 1.34691,1.103753 5.03941,9.394692 7.52501,16.896222 4.50118,13.58457 6.49598,25.61784 7.57611,45.70137 0.85892,15.97058 0.36584,31.89063 -1.23116,39.75086 -1.46732,7.22195 -6.3548,22.00595 -10.22375,30.92555 -3.08384,7.10958 -8.07719,17.8288 -8.30528,17.82893 -0.0767,5e-5 -0.05,-2.15451 0.0593,-4.7879 0.16488,-3.97376 -0.0482,-5.49802 -1.25331,-8.96317 -1.85719,-5.34034 -4.83894,-10.28637 -6.82475,-11.3207 -1.89847,-0.98883 -6.87586,-1.0644 -7.8215,-0.11876 -1.47359,1.4736 -0.75551,5.2152 2.18547,11.38747 3.04785,6.39654 3.39339,8.25787 2.02443,10.90514 -1.64627,3.18353 -5.31759,5.00606 -12.23288,6.07268 l -2.44428,0.37702 v -4.95759 c 0,-8.61845 -3.06747,-13.03159 -7.43373,-10.69483 -1.56945,0.83994 -3.31758,5.4878 -5.19391,13.80935 -2.56559,11.37844 -5.54466,15.8099 -12.3366,18.35109 -4.1362,1.54755 -5.12422,1.5254 -8.82576,-0.19792 -6.14638,-2.86154 -8.81735,-2.48764 -9.98129,1.39724 -1.06326,3.54886 -0.0603,5.17034 5.31369,8.5909 5.4174,3.44817 6.49035,5.2572 5.93062,9.99923 -0.5993,5.07728 -1.9921,8.445 -5.79808,14.01946 -2.01246,2.94757 -3.65902,5.59823 -3.65902,5.89036 0,0.79007 5.21096,5.22991 6.13825,5.22991 1.79736,0 4.63035,-1.69227 6.73218,-4.02143 4.18454,-4.63712 6.75641,-12.01325 7.80992,-22.3989 0.68398,-6.74266 1.27174,-7.9932 4.78345,-10.17749 4.11799,-2.5614 7.18362,-5.29862 9.92624,-8.86286 1.44624,-1.87949 3.18093,-3.71237 3.85487,-4.07305 0.67395,-0.36068 4.17153,-0.99846 7.7724,-1.41728 7.9375,-0.92321 11.61254,-2.44796 15.66307,-6.49848 1.58609,-1.58609 2.8838,-2.75308 2.8838,-2.59333 0,0.61442 -7.27736,12.90055 -11.37791,19.20899 -15.27826,23.5046 -34.33196,44.251 -50.80082,55.31387 -4.04681,2.71841 -13.13413,7.42114 -15.89441,8.2254 l -1.29403,0.37705 z m 16.33977,31.00565 c 1.10093,-0.96663 3.08085,-3.48999 4.39983,-5.60746 4.17151,-6.6969 9.77844,-11.61415 13.24311,-11.61415 0.68554,0 4.51324,1.53969 8.50599,3.42152 3.99276,1.88183 8.49522,3.7258 10.00548,4.09769 3.42202,0.84266 7.47837,0.4821 10.48194,-0.93172 3.10338,-1.46081 7.81603,-6.27465 9.3395,-9.54004 1.74745,-3.74548 2.65537,-9.68502 2.29165,-14.99171 -0.41091,-5.99492 -1.29824,-7.36121 -4.78072,-7.36121 -4.91634,0 -5.77263,1.42128 -6.49797,10.7853 -0.46608,6.01692 -1.30741,8.19687 -3.91146,10.13485 -0.79694,0.5931 -2.04909,1.07836 -2.78256,1.07836 -0.73347,0 -4.39458,-1.43717 -8.13581,-3.1937 -3.74123,-1.75654 -8.54212,-3.63022 -10.66866,-4.16375 -2.12654,-0.53353 -4.15572,-1.31862 -4.50929,-1.74465 -0.35358,-0.42603 -1.13549,-3.02887 -1.73758,-5.78411 -1.88878,-8.64319 -4.66346,-12.82996 -10.40376,-15.69842 -4.76075,-2.37897 -7.97581,-2.40551 -10.29633,-0.085 -1.22876,1.22876 -1.68114,2.23234 -1.68114,3.72956 0,1.79459 0.3619,2.31678 2.9204,4.21389 7.99858,5.9309 10.26361,9.04525 9.41918,12.95103 -0.56641,2.61982 -2.78184,6.89699 -6.14676,11.86711 -3.80464,5.61962 -6.3164,11.09616 -6.64166,14.48119 -0.22883,2.38146 -0.0653,2.95058 1.21634,4.23218 1.9554,1.9554 3.92546,1.8698 6.37028,-0.27678 z"
     id="path2297"
     transform="scale(0.74999999)" />
</svg>
