<?xml version="1.0" encoding="UTF-8" standalone="no"?>
<svg
   xmlns:dc="http://purl.org/dc/elements/1.1/"
   xmlns:cc="http://creativecommons.org/ns#"
   xmlns:rdf="http://www.w3.org/1999/02/22-rdf-syntax-ns#"
   xmlns:svg="http://www.w3.org/2000/svg"
   xmlns="http://www.w3.org/2000/svg"
   xmlns:sodipodi="http://sodipodi.sourceforge.net/DTD/sodipodi-0.dtd"
   xmlns:inkscape="http://www.inkscape.org/namespaces/inkscape"
   version="1.0"
   width="238.000000pt"
   height="238.000000pt"
   viewBox="0 0 238.000000 238.000000"
   preserveAspectRatio="xMidYMid meet"
   id="svg2419"
   sodipodi:docname="dominatesup.svg"
   inkscape:version="1.0.1 (3bc2e813f5, 2020-09-07)">
  <defs
     id="defs2423" />
  <sodipodi:namedview
     pagecolor="#ffffff"
     bordercolor="#666666"
     borderopacity="1"
     objecttolerance="10"
     gridtolerance="10"
     guidetolerance="10"
     inkscape:pageopacity="0"
     inkscape:pageshadow="2"
     inkscape:window-width="1600"
     inkscape:window-height="837"
     id="namedview2421"
     showgrid="false"
     inkscape:zoom="2.1113445"
     inkscape:cx="158.66667"
     inkscape:cy="158.66667"
     inkscape:window-x="-8"
     inkscape:window-y="-8"
     inkscape:window-maximized="1"
     inkscape:current-layer="svg2419" />
  <metadata
     id="metadata2413">
Created by potrace 1.16, written by Peter Selinger 2001-2019
<rdf:RDF>
  <cc:Work
     rdf:about="">
    <dc:format>image/svg+xml</dc:format>
    <dc:type
       rdf:resource="http://purl.org/dc/dcmitype/StillImage" />
  </cc:Work>
</rdf:RDF>
</metadata>
  <g
     transform="translate(0.000000,238.000000) scale(0.100000,-0.100000)"
     fill="#000000"
     stroke="none"
     id="g2417">
    <path
       d="M617 1772 l-577 -577 578 -578 577 -577 580 580 580 580 -575 575 c-316 316 -577 575 -580 575 -3 0 -265 -260 -583 -578z m981 -82 c45 -27 62 -74 62 -165 l0 -75 -450 0 -450 0 0 70 c0 83 16 126 59 163 l33 27 356 0 c340 0 359 -1 390 -20z m552 -485 l0 -135 -364 0 c-360 0 -363 0 -397 23 -79 52 -87 141 -19 209 l38 38 371 0 371 0 0 -135z m-1133 105 c84 -51 84 -179 0 -230 -30 -19 -53 -20 -399 -20 l-368 0 0 135 0 135 368 0 c346 0 369 -1 399 -20z m643 -430 c0 -93 -15 -131 -63 -160 -30 -19 -53 -20 -391 -20 l-358 0 -39 39 -39 39 0 91 0 91 445 0 445 0 0 -80z"
       id="path2415" />
  </g>
  <path
     style="fill:#ffffff;stroke-width:0.473632"
     d="M 33.627861,157.91696 V 140.1165 l 47.244776,0.22033 c 34.035803,0.15873 47.973093,0.37809 49.849753,0.7846 12.92033,2.79873 17.36347,20.42396 7.47934,29.6694 -3.3676,3.15 -5.50381,3.92281 -12.30543,4.4517 -3.20685,0.24936 -25.27914,0.45823 -49.049534,0.46414 l -43.218905,0.0107 z"
     id="path2425"
     transform="scale(0.74999998)" />
  <path
     style="fill:#ffffff;stroke-width:0.473632"
     d="m 101.36492,119.71045 c 0.004,-2.14911 0.2097,-6.34977 0.45659,-9.3348 0.74499,-9.00764 2.80222,-13.244062 8.85631,-18.237762 l 3.17813,-2.62147 40.28496,0.01236 c 22.15673,0.0068 43.55571,0.213668 47.55328,0.459712 8.22954,0.506514 10.85648,1.344004 13.96446,4.451982 3.86939,3.869395 5.01194,8.174958 5.3861,20.296838 l 0.27412,8.8806 h -59.98083 -59.98083 z"
     id="path2427"
     transform="scale(0.74999998)" />
  <path
     style="fill:#ffffff;stroke-width:0.473632"
     d="m 192.42047,173.77491 c -3.96375,-0.46126 -6.09869,-1.43404 -9.25588,-4.21739 -4.83819,-4.26531 -7.12919,-9.82954 -6.11875,-14.86084 0.86297,-4.29707 2.4244,-6.91057 6.89539,-11.54146 l 4.22983,-4.38109 h 49.1881 49.1881 v 17.76119 17.7612 l -45.35025,-0.0614 c -24.94263,-0.0338 -46.89208,-0.24087 -48.77654,-0.46016 z"
     id="path2429"
     transform="scale(0.74999998)" />
  <path
     style="fill:#ffffff;stroke-width:0.473632"
     d="m 107.86157,218.45495 -5.08346,-5.09927 v -11.95147 -11.95147 h 59.20398 59.20398 l -0.004,6.74925 c -0.008,13.2696 -1.36119,18.80298 -5.54223,22.65693 -2.79973,2.5807 -5.48402,3.69632 -10.19781,4.23833 -2.19687,0.2526 -23.32964,0.45137 -48.20445,0.45338 l -44.29275,0.004 z"
     id="path2431"
     transform="scale(0.74999998)" />
</svg>
