<?xml version="1.0" standalone="no"?>
<!DOCTYPE svg PUBLIC "-//W3C//DTD SVG 20010904//EN"
 "http://www.w3.org/TR/2001/REC-SVG-20010904/DTD/svg10.dtd">
<svg version="1.0" xmlns="http://www.w3.org/2000/svg"
 width="288.000000pt" height="289.000000pt" viewBox="0 0 288.000000 289.000000"
 preserveAspectRatio="xMidYMid meet">
<metadata>
Created by potrace 1.16, written by Peter Selinger 2001-2019
</metadata>
<g transform="translate(0.000000,289.000000) scale(0.100000,-0.100000)"
fill="#000000" stroke="none">
<path d="M240 1450 l0 -1200 1200 0 1200 0 0 1200 0 1200 -1200 0 -1200 0 0
-1200z m742 733 c365 -367 376 -379 386 -428 19 -91 -17 -176 -93 -221 -56
-32 -135 -35 -191 -5 -22 11 -201 182 -404 385 l-365 366 140 140 c77 77 142
140 145 140 3 0 175 -170 382 -377z m623 148 c49 -23 739 -713 755 -754 14
-40 13 -112 -4 -150 -8 -18 -50 -68 -95 -112 l-81 -80 -465 465 -465 465 68
68 c111 113 194 141 287 98z m12 -1679 c-77 -79 -130 -111 -196 -119 -94 -11
-118 8 -492 384 -185 186 -345 354 -354 373 -23 44 -23 126 -1 169 10 18 52
69 94 112 l76 80 468 -468 468 -468 -63 -63z m186 714 c18 -8 197 -179 405
-388 l372 -373 -140 -140 -140 -140 -371 370 c-204 204 -377 382 -384 396 -51
96 -8 226 89 270 49 22 124 24 169 5z"/>
</g>
</svg>
