<?xml version="1.0" standalone="no"?>
<!DOCTYPE svg PUBLIC "-//W3C//DTD SVG 20010904//EN"
 "http://www.w3.org/TR/2001/REC-SVG-20010904/DTD/svg10.dtd">
<svg version="1.0" xmlns="http://www.w3.org/2000/svg"
 width="238.000000pt" height="238.000000pt" viewBox="0 0 238.000000 238.000000"
 preserveAspectRatio="xMidYMid meet">
<metadata>
Created by potrace 1.16, written by Peter Selinger 2001-2019
</metadata>
<g transform="translate(0.000000,238.000000) scale(0.100000,-0.100000)"
fill="#000000" stroke="none">
<path d="M617 1772 l-577 -577 578 -578 577 -577 580 580 580 580 -575 575
c-316 316 -577 575 -580 575 -3 0 -265 -260 -583 -578z m981 -82 c45 -27 62
-74 62 -165 l0 -75 -450 0 -450 0 0 70 c0 83 16 126 59 163 l33 27 356 0 c340
0 359 -1 390 -20z m552 -485 l0 -135 -364 0 c-360 0 -363 0 -397 23 -79 52
-87 141 -19 209 l38 38 371 0 371 0 0 -135z m-1133 105 c84 -51 84 -179 0
-230 -30 -19 -53 -20 -399 -20 l-368 0 0 135 0 135 368 0 c346 0 369 -1 399
-20z m643 -430 c0 -93 -15 -131 -63 -160 -30 -19 -53 -20 -391 -20 l-358 0
-39 39 -39 39 0 91 0 91 445 0 445 0 0 -80z"/>
</g>
</svg>
