<?xml version="1.0" encoding="UTF-8" standalone="no"?>
<svg
   xmlns:dc="http://purl.org/dc/elements/1.1/"
   xmlns:cc="http://creativecommons.org/ns#"
   xmlns:rdf="http://www.w3.org/1999/02/22-rdf-syntax-ns#"
   xmlns:svg="http://www.w3.org/2000/svg"
   xmlns="http://www.w3.org/2000/svg"
   xmlns:sodipodi="http://sodipodi.sourceforge.net/DTD/sodipodi-0.dtd"
   xmlns:inkscape="http://www.inkscape.org/namespaces/inkscape"
   version="1.0"
   width="288.000000pt"
   height="289.000000pt"
   viewBox="0 0 288.000000 289.000000"
   preserveAspectRatio="xMidYMid meet"
   id="svg298"
   sodipodi:docname="equipment.svg"
   inkscape:version="1.0.1 (3bc2e813f5, 2020-09-07)">
  <defs
     id="defs302" />
  <sodipodi:namedview
     pagecolor="#ffffff"
     bordercolor="#666666"
     borderopacity="1"
     objecttolerance="10"
     gridtolerance="10"
     guidetolerance="10"
     inkscape:pageopacity="0"
     inkscape:pageshadow="2"
     inkscape:window-width="1600"
     inkscape:window-height="837"
     id="namedview300"
     showgrid="false"
     inkscape:zoom="1.7387543"
     inkscape:cx="192"
     inkscape:cy="192.66667"
     inkscape:window-x="-8"
     inkscape:window-y="-8"
     inkscape:window-maximized="1"
     inkscape:current-layer="svg298" />
  <metadata
     id="metadata290">
Created by potrace 1.16, written by Peter Selinger 2001-2019
<rdf:RDF>
  <cc:Work
     rdf:about="">
    <dc:format>image/svg+xml</dc:format>
    <dc:type
       rdf:resource="http://purl.org/dc/dcmitype/StillImage" />
  </cc:Work>
</rdf:RDF>
</metadata>
  <g
     transform="translate(0.000000,289.000000) scale(0.100000,-0.100000)"
     fill="#000000"
     stroke="none"
     id="g296">
    <path
       d="M240 1450 l0 -1200 1200 0 1200 0 0 1200 0 1200 -1200 0 -1200 0 0 -1200z m1440 1114 c71 -15 93 -15 383 1 187 11 311 15 316 9 4 -5 36 -89 70 -186 l61 -176 0 -126 c0 -117 -1 -125 -21 -131 -14 -5 -18 -12 -13 -23 32 -75 77 -222 90 -296 23 -131 14 -338 -19 -466 -55 -209 -151 -377 -301 -526 -201 -201 -427 -307 -711 -334 -216 -20 -483 39 -660 146 l-60 35 -162 -69 c-117 -50 -165 -67 -172 -58 -5 6 -25 47 -44 91 -43 100 -60 223 -56 419 2 130 0 147 -24 217 -15 42 -34 118 -43 170 -22 127 -15 341 16 454 18 68 20 95 15 183 l-7 102 49 0 49 0 59 87 c176 258 449 433 762 489 99 17 321 11 423 -12z"
       id="path292" />
    <path
       d="M1440 2119 c-459 -203 -837 -371 -840 -372 -3 -1 -21 10 -41 26 -40 30 -56 33 -80 14 -16 -12 -16 -23 0 -153 13 -114 21 -146 39 -169 28 -35 29 -114 6 -313 -9 -80 -13 -158 -9 -187 28 -207 31 -251 18 -310 -16 -78 -16 -86 6 -112 l19 -23 288 122 c159 67 291 123 293 124 2 2 -11 55 -29 117 -31 107 -32 118 -20 161 7 25 18 50 24 55 6 5 84 41 173 80 249 108 254 111 288 173 30 52 30 55 28 195 l-1 141 171 76 c95 42 253 111 352 155 l180 79 3 103 c2 102 3 105 32 130 l31 26 -42 109 c-23 60 -45 112 -48 116 -3 4 -382 -160 -841 -363z m39 -601 c2 -96 2 -96 -178 -171 -89 -37 -165 -67 -170 -67 -9 0 -37 177 -29 185 3 3 86 41 184 85 l179 79 6 -27 c4 -15 7 -53 8 -84z"
       id="path294" />
  </g>
  <path
     style="fill:#ffffff;stroke-width:0.575124"
     d="m 184.52338,343.85388 c -24.53993,-1.3281 -49.08392,-8.66907 -69.85412,-20.89298 -2.98278,-1.75546 -5.70537,-3.19175 -6.05019,-3.19175 -0.34483,0 -6.76466,2.61804 -14.266296,5.81786 -17.441381,7.43963 -25.84927,10.72948 -28.017451,10.96271 -1.669456,0.17959 -1.832952,-0.0288 -5.044832,-6.42833 -7.939595,-15.81942 -9.5538,-25.07976 -10.175599,-58.37512 -0.45729,-24.48647 -0.449468,-24.41651 -3.761537,-33.64478 -1.746164,-4.86526 -4.902852,-18.68409 -5.780624,-25.30547 -1.166497,-8.79935 -1.148354,-30.50316 0.03388,-40.52707 0.483745,-4.10159 1.533045,-10.31293 2.331776,-13.80299 2.643269,-11.54976 2.711887,-12.22986 2.352094,-23.31173 -0.189992,-5.85189 -0.516014,-11.86913 -0.724492,-13.37164 l -0.379051,-2.73184 h 6.579751 6.579751 l 5.549769,-8.19553 C 70.732722,100.75953 75.634515,94.603412 82.726368,87.206617 106.74935,62.150672 142.86313,44.261744 175.32139,41.339758 c 13.36751,-1.203381 38.76649,0.179382 50.03782,2.724143 5.79685,1.308771 19.91179,1.216875 47.44577,-0.308899 11.70378,-0.648555 26.37085,-1.352273 32.5935,-1.563817 l 11.3139,-0.384625 0.96405,2.245476 c 1.44176,3.358175 8.18406,21.919829 12.93224,35.60269 l 4.19114,12.077612 -0.34036,14.688672 c -0.18719,8.07877 -0.59455,15.35725 -0.90523,16.17439 -0.3223,0.84771 -1.18384,1.64107 -2.00628,1.84749 -1.68934,0.424 -2.40751,2.14794 -1.55691,3.73731 1.96455,3.6708 9.53146,28.0142 11.21063,36.06558 3.19578,15.32327 2.81423,42.18427 -0.8558,60.24826 -2.77446,13.6559 -11.2471,34.68586 -18.92133,46.96467 -8.1857,13.09715 -23.52906,30.26127 -35.67926,39.9132 -29.07854,23.09956 -64.50824,34.46891 -101.22189,32.48197 z M 113.23399,299.9206 c 21.2919,-9.01879 38.80741,-16.49269 38.92338,-16.60865 0.2875,-0.2875 -0.62618,-3.98627 -3.99353,-16.16668 -4.03768,-14.6051 -4.14538,-17.63353 -0.89577,-25.18745 1.44982,-3.37019 -0.0446,-2.56853 28.18893,-15.1216 11.78735,-5.24085 22.7086,-10.22037 24.26945,-11.06561 4.89702,-2.65185 8.41462,-6.36751 11.25265,-11.88622 l 2.58806,-5.03262 0.28757,-19.23369 0.28756,-19.23369 4.60099,-2.04476 c 2.53055,-1.12462 23.36443,-10.3105 46.29752,-20.41305 22.93308,-10.10256 41.87205,-18.54719 42.08659,-18.76585 0.21453,-0.21865 0.54719,-5.05605 0.73921,-10.74978 0.57513,-17.052848 0.34655,-16.076188 4.75917,-20.333835 l 3.78827,-3.655223 -0.73647,-2.096021 c -2.6189,-7.453467 -11.1688,-28.264179 -11.61209,-28.264179 -1.93046,0 -55.26697,23.219703 -168.28327,73.261028 -30.44531,13.48056 -55.604194,24.51012 -55.90863,24.51012 -0.304435,0 -2.643964,-1.42344 -5.198953,-3.16319 -3.859214,-2.62783 -5.065479,-3.16318 -7.127293,-3.16318 -1.8373,0 -2.877081,0.36628 -4.003651,1.41035 -1.913523,1.77339 -1.955767,3.77813 -0.364149,17.28119 2.036546,17.27778 2.648691,20.11669 5.636107,26.13824 l 2.695802,5.43375 -0.06245,9.80704 c -0.03768,5.91657 -0.565659,14.25602 -1.330938,21.02196 -2.055487,18.17289 -2.147994,27.54071 -0.4033,40.84071 2.274718,17.34045 2.446456,22.59194 1.000421,30.5915 -1.826335,10.10342 -1.70399,11.81616 1.0972,15.35993 1.272629,1.61 2.402793,2.92727 2.511475,2.92727 0.108682,0 17.618245,-7.37901 38.910139,-16.39781 z"
     id="path304"
     transform="scale(0.74999999)" />
  <path
     style="fill:#ffffff;stroke-width:0.575124"
     d="m 150.06794,211.78955 c -0.92143,-3.50219 -2.31916,-12.22834 -2.72195,-16.99341 l -0.37445,-4.42971 6.84209,-3.25248 c 3.76315,-1.78887 14.60627,-6.69483 24.09582,-10.90215 l 17.25373,-7.64966 0.41972,1.84381 c 0.23085,1.01409 0.7075,5.11761 1.05922,9.11894 1.06903,12.16151 -0.21882,15.22004 -8.06959,19.16448 -6.6897,3.3611 -35.6355,15.2569 -37.12428,15.2569 -0.45502,0 -1.06267,-0.94945 -1.38031,-2.15672 z"
     id="path306"
     transform="scale(0.74999999)" />
</svg>
