<?xml version="1.0" standalone="no"?>
<!DOCTYPE svg PUBLIC "-//W3C//DTD SVG 20010904//EN"
 "http://www.w3.org/TR/2001/REC-SVG-20010904/DTD/svg10.dtd">
<svg version="1.0" xmlns="http://www.w3.org/2000/svg"
 width="300.000000pt" height="195.000000pt" viewBox="0 0 300.000000 195.000000"
 preserveAspectRatio="xMidYMid meet">
<metadata>
Created by potrace 1.16, written by Peter Selinger 2001-2019
</metadata>
<g transform="translate(0.000000,195.000000) scale(0.100000,-0.100000)"
fill="#000000" stroke="none">
<path d="M0 975 l0 -975 1500 0 1500 0 0 975 0 975 -1500 0 -1500 0 0 -975z
m2910 -5 l0 -880 -1405 0 -1405 0 0 880 0 880 1405 0 1405 0 0 -880z"/>
<path d="M150 1793 c0 -4 15 -18 34 -31 51 -35 149 -133 186 -187 80 -116 73
-193 -26 -293 -50 -50 -60 -64 -46 -68 130 -40 220 -92 247 -143 29 -57 16
-109 -54 -216 -25 -38 -49 -75 -53 -81 -4 -6 29 1 75 17 59 21 101 29 150 29
62 0 71 -3 98 -29 47 -48 40 -135 -24 -271 -16 -36 -32 -69 -36 -75 -3 -5 6
-3 19 6 108 70 227 115 274 103 54 -13 110 -101 165 -258 49 -138 53 -138 46
4 -7 165 10 472 34 587 11 51 32 115 47 143 32 59 126 150 155 150 18 0 19 9
19 160 l0 160 -101 0 c-175 0 -356 38 -569 119 -215 83 -432 147 -560 166 -25
3 -53 9 -62 11 -10 3 -18 2 -18 -3z"/>
<path d="M2706 1780 c-130 -28 -279 -73 -471 -145 -257 -96 -399 -127 -587
-129 l-108 -1 0 -162 c0 -130 3 -161 13 -157 17 6 72 -38 125 -98 83 -97 113
-270 115 -656 0 -139 4 -246 9 -238 4 7 21 51 36 97 39 114 91 217 125 245 49
41 149 24 257 -44 79 -49 84 -48 54 11 -62 122 -81 232 -48 282 35 53 144 57
270 10 37 -14 69 -24 70 -22 2 2 -15 28 -37 57 -56 75 -79 123 -86 179 -5 45
-3 51 33 91 39 44 144 100 212 115 17 3 32 10 32 13 -1 4 -21 22 -45 39 -95
71 -122 171 -71 271 29 56 130 169 195 217 69 51 52 55 -93 25z"/>
</g>
</svg>
