<?xml version="1.0" encoding="UTF-8" standalone="no"?>
<svg
   xmlns:dc="http://purl.org/dc/elements/1.1/"
   xmlns:cc="http://creativecommons.org/ns#"
   xmlns:rdf="http://www.w3.org/1999/02/22-rdf-syntax-ns#"
   xmlns:svg="http://www.w3.org/2000/svg"
   xmlns="http://www.w3.org/2000/svg"
   xmlns:sodipodi="http://sodipodi.sourceforge.net/DTD/sodipodi-0.dtd"
   xmlns:inkscape="http://www.inkscape.org/namespaces/inkscape"
   version="1.0"
   width="300.000000pt"
   height="195.000000pt"
   viewBox="0 0 300.000000 195.000000"
   preserveAspectRatio="xMidYMid meet"
   id="svg2459"
   sodipodi:docname="flight.svg"
   inkscape:version="1.0.1 (3bc2e813f5, 2020-09-07)">
  <defs
     id="defs2463" />
  <sodipodi:namedview
     pagecolor="#ffffff"
     bordercolor="#666666"
     borderopacity="1"
     objecttolerance="10"
     gridtolerance="10"
     guidetolerance="10"
     inkscape:pageopacity="0"
     inkscape:pageshadow="2"
     inkscape:window-width="1600"
     inkscape:window-height="837"
     id="namedview2461"
     showgrid="false"
     inkscape:zoom="2.5769231"
     inkscape:cx="200"
     inkscape:cy="130"
     inkscape:window-x="-8"
     inkscape:window-y="-8"
     inkscape:window-maximized="1"
     inkscape:current-layer="svg2459" />
  <metadata
     id="metadata2449">
Created by potrace 1.16, written by Peter Selinger 2001-2019
<rdf:RDF>
  <cc:Work
     rdf:about="">
    <dc:format>image/svg+xml</dc:format>
    <dc:type
       rdf:resource="http://purl.org/dc/dcmitype/StillImage" />
  </cc:Work>
</rdf:RDF>
</metadata>
  <g
     transform="translate(0.000000,195.000000) scale(0.100000,-0.100000)"
     fill="#000000"
     stroke="none"
     id="g2457">
    <path
       d="M0 975 l0 -975 1500 0 1500 0 0 975 0 975 -1500 0 -1500 0 0 -975z m2910 -5 l0 -880 -1405 0 -1405 0 0 880 0 880 1405 0 1405 0 0 -880z"
       id="path2451" />
    <path
       d="M150 1793 c0 -4 15 -18 34 -31 51 -35 149 -133 186 -187 80 -116 73 -193 -26 -293 -50 -50 -60 -64 -46 -68 130 -40 220 -92 247 -143 29 -57 16 -109 -54 -216 -25 -38 -49 -75 -53 -81 -4 -6 29 1 75 17 59 21 101 29 150 29 62 0 71 -3 98 -29 47 -48 40 -135 -24 -271 -16 -36 -32 -69 -36 -75 -3 -5 6 -3 19 6 108 70 227 115 274 103 54 -13 110 -101 165 -258 49 -138 53 -138 46 4 -7 165 10 472 34 587 11 51 32 115 47 143 32 59 126 150 155 150 18 0 19 9 19 160 l0 160 -101 0 c-175 0 -356 38 -569 119 -215 83 -432 147 -560 166 -25 3 -53 9 -62 11 -10 3 -18 2 -18 -3z"
       id="path2453" />
    <path
       d="M2706 1780 c-130 -28 -279 -73 -471 -145 -257 -96 -399 -127 -587 -129 l-108 -1 0 -162 c0 -130 3 -161 13 -157 17 6 72 -38 125 -98 83 -97 113 -270 115 -656 0 -139 4 -246 9 -238 4 7 21 51 36 97 39 114 91 217 125 245 49 41 149 24 257 -44 79 -49 84 -48 54 11 -62 122 -81 232 -48 282 35 53 144 57 270 10 37 -14 69 -24 70 -22 2 2 -15 28 -37 57 -56 75 -79 123 -86 179 -5 45 -3 51 33 91 39 44 144 100 212 115 17 3 32 10 32 13 -1 4 -21 22 -45 39 -95 71 -122 171 -71 271 29 56 130 169 195 217 69 51 52 55 -93 25z"
       id="path2455" />
  </g>
  <path
     style="fill:#ffffff;stroke-width:0.38806"
     d="M 13.343284,130.77612 V 13.58209 H 200.58209 387.8209 V 130.77612 247.97015 H 200.58209 13.343284 Z M 160.8542,233.90299 c 0.0265,-0.2668 0.0794,-11.39926 0.11741,-24.73881 0.0405,-14.20774 0.26108,-26.90587 0.53248,-30.65672 2.19634,-30.35379 3.53628,-38.67602 8.23453,-51.14368 2.15568,-5.72049 4.9657,-9.73314 11.23164,-16.03857 5.63774,-5.67327 8.66532,-7.97817 10.97017,-8.35164 0.79635,-0.12903 1.6491,-0.47703 1.895,-0.77332 0.75177,-0.90583 1.07397,-8.495326 1.0974,-25.849504 l 0.0224,-16.589552 h -10.20601 c -11.61945,0 -17.74876,-0.397695 -27.43578,-1.780142 C 140.46515,55.576607 126.2517,51.642897 102.40299,42.784062 72.649241,31.731746 49.790325,25.045725 30.41791,21.729093 19.580089,19.873617 19.846395,19.892843 20.003206,20.977195 c 0.131399,0.908629 0.937017,1.631654 7.326126,6.575044 3.944321,3.051805 14.34497,13.302575 18.111745,17.850746 3.547277,4.283139 6.916584,9.491929 8.519445,13.170665 4.793481,11.001527 2.564582,18.973403 -8.556824,30.604336 -5.562548,5.817395 -6.448474,6.920416 -6.448474,8.02866 0,0.812566 0.460093,1.061157 4.365672,2.358802 11.783626,3.915152 20.991127,8.800932 26.011017,13.802232 4.296007,4.2801 5.875134,9.98251 4.393635,15.86591 -0.979253,3.88884 -4.360317,10.28834 -10.111307,19.13814 -2.890816,4.44848 -5.256032,8.27094 -5.256032,8.49435 0,0.74639 3.546159,0.002 10.283582,-2.15938 10.370783,-3.3266 11.68024,-3.55745 20.179105,-3.55745 6.829109,0 7.487666,0.0621 8.925373,0.84179 1.977175,1.07224 4.933551,4.1365 5.926991,6.14329 3.28931,6.64448 1.59354,16.45137 -5.584699,32.29729 -1.614798,3.56465 -3.356519,7.31105 -3.870488,8.32531 -0.51397,1.01428 -0.934491,1.93725 -0.934491,2.05107 0,0.65033 1.702042,-0.0491 4.79024,-1.96844 11.792628,-7.32927 24.871138,-12.55233 31.566038,-12.60627 3.68524,-0.0297 5.70677,0.88913 8.80577,4.00235 5.52703,5.5524 9.95922,14.10141 16.1508,31.15242 3.43496,9.45956 4.9817,13 5.67941,13 0.29157,0 0.55183,-0.21828 0.57836,-0.48507 z m 82.43581,-7.00772 c 6.91978,-19.48838 11.63777,-29.70906 16.63273,-36.03184 4.28584,-5.42515 11.93834,-6.45193 22.15189,-2.97226 4.30521,1.46675 8.41741,3.52055 15.71333,7.84789 5.90938,3.50496 7.76428,4.09683 7.76428,2.47747 0,-0.47196 -1.20306,-3.39696 -2.67348,-6.5 -6.1149,-12.90443 -8.69453,-22.98794 -7.76821,-30.36515 0.80809,-6.43565 3.97368,-9.53373 11.24743,-11.00758 6.63284,-1.34399 14.48514,-0.14742 27.09689,4.12914 4.3651,1.48018 8.16751,2.69124 8.4498,2.69124 0.883,0 0.58704,-0.64769 -1.98976,-4.35454 -6.51614,-9.37376 -8.90066,-13.0371 -10.26612,-15.7718 -3.6031,-7.21622 -4.88439,-14.8849 -3.10213,-18.56659 0.44843,-0.92632 2.13213,-3.084 3.74156,-4.79483 5.89238,-6.26363 17.75188,-12.76475 28.30578,-15.516606 1.74684,-0.455477 3.4908,-1.058266 3.87544,-1.339528 0.67027,-0.490111 0.66729,-0.547063 -0.0716,-1.369167 -0.42403,-0.47178 -2.60455,-2.298998 -4.84559,-4.060483 -7.93468,-6.236736 -11.3561,-11.127375 -13.00838,-18.594389 -1.46866,-6.637225 0.42705,-14.474405 5.20197,-21.505787 5.13598,-7.563068 16.50682,-19.612981 24.00658,-25.440282 4.08136,-3.171207 5.39668,-4.770741 4.58802,-5.579397 -0.50448,-0.504481 -5.61416,-0.08947 -10.88568,0.884147 -17.9518,3.315578 -40.63599,9.966055 -66.17117,19.399854 -28.70465,10.604738 -42.73395,14.596162 -59.25903,16.859567 -8.29257,1.135812 -15.64214,1.56253 -26.98724,1.566888 l -9.99253,0.0038 0.019,15.619403 c 0.0182,14.900487 0.38467,25.363655 0.93622,26.72812 0.14889,0.36833 0.87464,0.7142 1.74303,0.83068 2.13644,0.28656 5.65708,2.83208 10.77755,7.79249 5.55918,5.38539 7.74079,8.24857 10.394,13.64124 4.17689,8.48957 6.50151,18.37361 8.12279,34.53732 1.06959,10.66348 1.39685,18.81649 1.76796,44.04477 0.34548,23.48594 0.52733,29.06599 1.02436,31.43237 0.19048,0.90691 0.23686,0.92429 0.71645,0.2684 0.28204,-0.3857 1.51676,-3.52877 2.74383,-6.9846 z"
     id="path2465"
     transform="scale(0.75)" />
</svg>
