<?xml version="1.0" standalone="no"?>
<!DOCTYPE svg PUBLIC "-//W3C//DTD SVG 20010904//EN"
 "http://www.w3.org/TR/2001/REC-SVG-20010904/DTD/svg10.dtd">
<svg version="1.0" xmlns="http://www.w3.org/2000/svg"
 width="238.000000pt" height="238.000000pt" viewBox="0 0 238.000000 238.000000"
 preserveAspectRatio="xMidYMid meet">
<metadata>
Created by potrace 1.16, written by Peter Selinger 2001-2019
</metadata>
<g transform="translate(0.000000,238.000000) scale(0.100000,-0.100000)"
fill="#000000" stroke="none">
<path d="M612 1777 c-314 -314 -572 -577 -572 -582 0 -13 1142 -1155 1155
-1155 6 0 269 259 585 575 l575 575 -580 580 c-319 319 -582 580 -585 580 -3
0 -263 -258 -578 -573z m719 155 c151 -258 329 -581 329 -597 0 -12 -327 -341
-333 -335 -2 3 -92 154 -200 337 l-197 332 128 250 c70 137 130 247 134 245 3
-2 66 -106 139 -232z m-301 -642 l273 -449 36 28 c20 16 139 128 266 249 126
121 233 219 237 216 4 -2 50 -58 102 -124 53 -65 106 -126 118 -134 23 -16 18
-21 -430 -469 l-452 -452 -506 505 -506 505 294 288 c161 158 293 287 294 287
1 0 124 -202 274 -450z"/>
</g>
</svg>
