<?xml version="1.0" encoding="UTF-8" standalone="no"?>
<svg
   xmlns:dc="http://purl.org/dc/elements/1.1/"
   xmlns:cc="http://creativecommons.org/ns#"
   xmlns:rdf="http://www.w3.org/1999/02/22-rdf-syntax-ns#"
   xmlns:svg="http://www.w3.org/2000/svg"
   xmlns="http://www.w3.org/2000/svg"
   xmlns:sodipodi="http://sodipodi.sourceforge.net/DTD/sodipodi-0.dtd"
   xmlns:inkscape="http://www.inkscape.org/namespaces/inkscape"
   version="1.0"
   width="300.000000pt"
   height="300.000000pt"
   viewBox="0 0 300.000000 300.000000"
   preserveAspectRatio="xMidYMid meet"
   id="svg2595"
   sodipodi:docname="innocence.svg"
   inkscape:version="1.0.1 (3bc2e813f5, 2020-09-07)">
  <defs
     id="defs2599" />
  <sodipodi:namedview
     pagecolor="#ffffff"
     bordercolor="#666666"
     borderopacity="1"
     objecttolerance="10"
     gridtolerance="10"
     guidetolerance="10"
     inkscape:pageopacity="0"
     inkscape:pageshadow="2"
     inkscape:window-width="1600"
     inkscape:window-height="837"
     id="namedview2597"
     showgrid="false"
     inkscape:zoom="1.675"
     inkscape:cx="200"
     inkscape:cy="200"
     inkscape:window-x="-8"
     inkscape:window-y="-8"
     inkscape:window-maximized="1"
     inkscape:current-layer="svg2595" />
  <metadata
     id="metadata2587">
Created by potrace 1.16, written by Peter Selinger 2001-2019
<rdf:RDF>
  <cc:Work
     rdf:about="">
    <dc:format>image/svg+xml</dc:format>
    <dc:type
       rdf:resource="http://purl.org/dc/dcmitype/StillImage" />
  </cc:Work>
</rdf:RDF>
</metadata>
  <g
     transform="translate(0.000000,300.000000) scale(0.100000,-0.100000)"
     fill="#000000"
     stroke="none"
     id="g2593">
    <path
       d="M1390 2994 c-289 -35 -489 -106 -707 -251 l-83 -54 0 -160 0 -159 -150 0 -150 0 -34 -52 c-93 -146 -167 -332 -207 -518 -33 -151 -33 -419 0 -570 44 -206 116 -378 228 -547 l54 -83 130 0 129 0 0 -129 0 -130 83 -54 c165 -110 349 -188 540 -229 147 -32 437 -32 584 0 175 38 366 116 511 208 l52 34 0 150 0 150 159 0 160 0 54 83 c117 175 201 381 233 572 23 135 23 385 0 520 -30 174 -126 419 -218 553 l-29 42 -179 0 -180 0 0 180 0 180 -52 34 c-155 99 -371 183 -538 211 -96 16 -325 27 -390 19z m523 -172 c119 -40 212 -81 289 -128 l58 -35 0 -200 0 -199 199 0 200 0 35 -58 c47 -77 88 -170 128 -289 l32 -98 4 -269 c3 -225 1 -281 -13 -345 -31 -139 -107 -316 -187 -436 l-33 -50 -183 -3 -182 -2 0 -173 0 -173 -72 -41 c-213 -120 -427 -176 -673 -176 -272 0 -512 70 -742 215 l-63 40 0 154 0 154 -153 0 -152 0 -35 53 c-95 143 -174 345 -206 522 -20 117 -20 342 0 458 24 132 71 269 138 400 l61 117 173 0 174 0 0 180 0 179 58 39 c109 74 276 148 412 182 66 17 108 19 355 17 l280 -3 98 -32z"
       id="path2589" />
    <path
       d="M1387 2529 c-43 -72 -77 -138 -75 -147 2 -10 14 -18 29 -20 23 -3 31 5 65 62 21 37 42 66 46 66 4 0 8 -121 8 -270 0 -148 -2 -270 -5 -270 -2 0 -40 12 -82 26 -313 106 -642 -49 -768 -361 -25 -61 -29 -87 -33 -196 -4 -118 -3 -130 25 -210 36 -105 85 -180 169 -258 78 -73 199 -135 298 -152 91 -15 226 -6 302 21 32 11 67 23 77 27 16 5 17 -11 17 -251 l0 -257 28 3 27 3 3 259 c2 240 4 258 20 251 112 -46 153 -56 236 -62 122 -8 211 9 313 58 149 72 261 198 316 358 28 80 29 92 25 210 -4 109 -8 135 -33 196 -102 254 -340 408 -604 393 -75 -5 -155 -25 -253 -63 -17 -7 -18 10 -18 269 0 152 3 276 8 276 4 0 24 -30 46 -65 29 -50 44 -65 61 -65 51 0 33 50 -92 248 -52 81 -63 76 -156 -79z m-25 -618 c32 -12 60 -26 62 -30 3 -4 -20 -34 -50 -67 -218 -234 -215 -595 7 -838 l50 -55 -28 -15 c-108 -55 -259 -64 -388 -22 -184 59 -316 201 -365 391 -24 92 -25 136 -5 228 44 208 191 364 399 423 76 21 244 13 318 -15z m656 -7 c174 -69 298 -216 337 -401 20 -92 19 -136 -5 -228 -49 -190 -181 -332 -365 -391 -129 -42 -280 -33 -388 22 l-28 15 50 55 c102 111 158 242 168 390 11 157 -52 332 -161 449 -31 33 -56 61 -56 62 0 7 66 35 112 48 36 10 86 14 158 11 87 -2 118 -8 178 -32z m-434 -146 c182 -208 181 -516 -2 -719 -24 -27 -48 -49 -53 -49 -5 0 -9 171 -9 410 0 244 4 410 9 410 5 0 30 -23 55 -52z m-124 -358 c0 -231 -4 -390 -9 -390 -18 0 -83 86 -117 155 -92 188 -67 405 65 573 23 29 46 52 51 52 6 0 10 -143 10 -390z"
       id="path2591" />
  </g>
  <path
     style="fill:#ffffff;stroke-width:0.597015"
     d="m 191.9403,379.88256 c -7.05897,-0.37476 -20.23991,-2.05442 -27.1235,-3.45636 -22.05563,-4.49197 -40.79607,-12.1504 -62.06479,-25.36328 l -7.826637,-4.86218 V 325.63768 305.07463 H 74.61371 54.302048 l -4.46648,-6.79229 C 36.132533,277.4438 24.572541,246.98564 21.37078,223.28358 c -0.496555,-3.6759 -0.764254,-12.70923 -0.76077,-25.67164 0.006,-22.31857 0.5054,-27.29341 4.163096,-41.47125 4.015235,-15.56373 8.558348,-27.14217 17.753156,-45.24517 L 48.515126,99.104478 H 71.72025 94.925373 l 0.01296,-24.029851 0.01296,-24.029851 6.434507,-4.27274 c 17.57924,-11.673255 40.94423,-21.825075 59.80824,-25.986006 6.22342,-1.372732 6.53576,-1.381718 43.28358,-1.245312 l 37.01493,0.137397 9.94574,3.265685 c 18.21866,5.982093 30.25505,11.262494 43.33784,19.012432 l 6.1194,3.624991 v 26.761628 26.761627 h 26.73152 26.73151 l 3.65557,6.119402 c 7.65327,12.81152 13.00284,24.97256 19.09279,43.40308 l 3.26479,9.8805 0.11266,37.01493 c 0.11145,36.62102 0.098,37.08163 -1.26072,43.28358 -3.9538,18.04671 -14.3699,42.46386 -25.19994,59.07303 l -4.21417,6.46294 -24.457,0.44179 -24.45701,0.44178 v 23.07473 23.07473 l -8.80597,4.88724 c -13.7591,7.6362 -24.34422,12.23216 -37.52392,16.29254 -18.58125,5.72449 -41.75358,8.43589 -62.62533,7.32781 z m 9.70149,-25.58589 c 0.568,-0.17456 0.75696,-3.62097 0.79102,-14.42719 0.0733,-23.2547 0.87079,-51.7392 1.4781,-52.79449 0.50793,-0.88259 1.18589,-0.73667 6.53685,1.40694 18.95471,7.59332 41.00565,8.40673 58.69477,2.16512 25.21021,-8.89541 43.28228,-27.51592 52.17533,-53.75869 2.3293,-6.8736 2.50177,-7.84426 2.73559,-15.39582 0.30217,-9.75888 -0.72723,-25.28627 -1.99104,-30.03283 -1.21545,-4.56495 -5.07372,-13.39999 -8.13158,-18.62047 -8.11474,-13.85377 -19.63872,-24.87987 -33.38088,-31.93874 -21.06987,-10.82285 -43.38752,-11.76485 -69.05398,-2.91469 -5.02626,1.73314 -7.07272,2.19878 -7.55327,1.71866 -0.80726,-0.80658 -1.23028,-54.809963 -0.50743,-64.779097 l 0.47618,-6.567164 5.16814,7.867864 c 2.84247,4.327324 5.70593,8.155682 6.36323,8.507461 0.65731,0.351779 2.15971,0.6396 3.33868,0.6396 5.85263,0 3.24123,-7.583187 -9.89225,-28.726005 -5.83126,-9.387398 -7.5242,-11.273995 -10.11674,-11.273995 -2.6333,0 -5.27234,2.860138 -10.55801,11.442548 -8.56754,13.911211 -13.28913,22.873614 -13.28913,25.225112 0,3.177988 5.42397,4.53317 7.96096,1.989057 0.73674,-0.738806 2.9125,-3.895523 4.83503,-7.014926 1.92253,-3.119403 3.97351,-6.286176 4.55774,-7.037274 l 1.06223,-1.365633 0.32035,3.156678 c 0.56937,5.610433 0.85977,39.773774 0.45912,54.011594 l -0.38946,13.84 -6.26865,-2.0756 c -11.53951,-3.82082 -17.92931,-5.05128 -28.0597,-5.40333 -6.86936,-0.23873 -10.71695,-0.0809 -14.93248,0.61236 -23.37834,3.84488 -43.05493,16.63981 -56.020176,36.42777 -4.239247,6.47007 -8.973391,16.47771 -10.48371,22.16179 -1.28966,4.85365 -2.324901,20.30443 -2.020075,30.14926 0.233568,7.54342 0.407909,8.52696 2.72163,15.35407 5.080687,14.99159 9.995994,23.13368 20.136979,33.35638 7.090482,7.14761 13.891072,12.09552 22.710932,16.52377 13.24689,6.65098 25.52821,8.90396 41.46577,7.60683 9.59539,-0.78095 16.12151,-2.13622 24.14595,-5.01437 3.26358,-1.17055 6.08447,-1.97792 6.26866,-1.79415 0.5801,0.57882 1.10451,20.56434 1.16861,44.53636 l 0.0618,23.10619 3.13432,-0.3208 c 1.72388,-0.17645 3.47015,-0.42401 3.8806,-0.55015 z"
     id="path2601"
     transform="scale(0.75)" />
  <path
     style="fill:#ffffff;stroke-width:0.597015"
     d="m 150.14925,284.96946 c -28.7527,-3.60842 -51.665861,-21.83115 -61.048432,-48.55155 -4.672693,-13.30725 -5.564306,-23.07033 -3.162301,-34.62687 3.496143,-16.82065 10.620263,-30.01973 21.877073,-40.53235 8.10194,-7.56633 17.08065,-12.85405 28.20143,-16.60834 6.03054,-2.03587 6.88821,-2.16588 16.04761,-2.43266 9.98025,-0.29069 18.39821,0.40239 24.9503,2.05422 4.75976,1.19998 12.2388,4.33515 12.2388,5.13043 0,0.81944 -2.23682,3.75707 -7.38754,9.70214 -9.92824,11.45937 -15.85819,23.37346 -18.9616,38.09647 -1.70137,8.07156 -1.81316,21.99372 -0.24299,30.26174 3.09997,16.32342 10.19874,30.3428 22.06798,43.58209 2.7966,3.1194 5.09293,5.83575 5.10295,6.03632 0.0269,0.53906 -8.72604,4.43177 -12.5191,5.56762 -7.21293,2.15995 -19.8456,3.23921 -27.16418,2.32074 z"
     id="path2603"
     transform="scale(0.75)" />
  <path
     style="fill:#ffffff;stroke-width:0.597015"
     d="m 190.11389,262.01079 c -5.95301,-6.31641 -12.97066,-18.28506 -15.70612,-26.78691 -7.14056,-22.19296 -3.05803,-45.85292 11.19667,-64.88939 1.92038,-2.56457 4.43391,-5.55625 5.58562,-6.64818 l 2.09403,-1.98532 0.44592,5.86592 c 0.56534,7.43669 0.42854,88.75471 -0.15786,93.84686 l -0.43782,3.80183 z"
     id="path2605"
     transform="scale(0.75)" />
  <path
     style="fill:#ffffff;stroke-width:0.597015"
     d="m 203.76638,265.91516 c -0.62262,-2.23883 -0.63493,-104.04989 -0.0128,-105.57426 0.42113,-1.03183 0.81695,-0.81442 3.8044,2.08955 19.79123,19.23823 26.56788,49.53783 16.9597,75.82991 -3.34288,9.14754 -9.81951,19.1252 -16.98227,26.16226 l -3.28627,3.22859 z"
     id="path2607"
     transform="scale(0.75)" />
  <path
     style="fill:#ffffff;stroke-width:0.597015"
     d="m 231.34328,284.54823 c -2.62686,-0.43251 -6.38806,-1.25633 -8.35821,-1.8307 -3.9448,-1.15007 -12.84088,-5.05914 -12.82713,-5.63643 0.005,-0.20057 2.06779,-2.64299 4.58448,-5.42759 12.38719,-13.70588 19.34544,-27.19906 22.64583,-43.91398 1.59176,-8.06149 1.42956,-22.56926 -0.33978,-30.39227 -1.75917,-7.77801 -4.28437,-14.83586 -7.80865,-21.82487 -3.54374,-7.02764 -7.32674,-12.37323 -13.94247,-19.70149 -2.8161,-3.11941 -5.12646,-5.86624 -5.13414,-6.10408 -0.039,-1.20864 11.65566,-5.63234 17.89649,-6.76964 5.31897,-0.96929 19.05539,-1.09284 26.51334,-0.23845 13.40366,1.53553 28.03432,9.10543 39.1583,20.2605 10.79541,10.82556 16.98965,22.66074 20.31839,38.82181 2.39596,11.63244 1.51191,21.34875 -3.15055,34.62687 -8.6151,24.53475 -28.76399,42.09311 -54.48127,47.47666 -6.33758,1.32668 -18.98465,1.65637 -25.07463,0.65366 z"
     id="path2609"
     transform="scale(0.75)" />
</svg>
