<?xml version="1.0" standalone="no"?>
<!DOCTYPE svg PUBLIC "-//W3C//DTD SVG 20010904//EN"
 "http://www.w3.org/TR/2001/REC-SVG-20010904/DTD/svg10.dtd">
<svg version="1.0" xmlns="http://www.w3.org/2000/svg"
 width="300.000000pt" height="300.000000pt" viewBox="0 0 300.000000 300.000000"
 preserveAspectRatio="xMidYMid meet">
<metadata>
Created by potrace 1.16, written by Peter Selinger 2001-2019
</metadata>
<g transform="translate(0.000000,300.000000) scale(0.100000,-0.100000)"
fill="#000000" stroke="none">
<path d="M1390 2994 c-289 -35 -489 -106 -707 -251 l-83 -54 0 -160 0 -159
-150 0 -150 0 -34 -52 c-93 -146 -167 -332 -207 -518 -33 -151 -33 -419 0
-570 44 -206 116 -378 228 -547 l54 -83 130 0 129 0 0 -129 0 -130 83 -54
c165 -110 349 -188 540 -229 147 -32 437 -32 584 0 175 38 366 116 511 208
l52 34 0 150 0 150 159 0 160 0 54 83 c117 175 201 381 233 572 23 135 23 385
0 520 -30 174 -126 419 -218 553 l-29 42 -179 0 -180 0 0 180 0 180 -52 34
c-155 99 -371 183 -538 211 -96 16 -325 27 -390 19z m523 -172 c119 -40 212
-81 289 -128 l58 -35 0 -200 0 -199 199 0 200 0 35 -58 c47 -77 88 -170 128
-289 l32 -98 4 -269 c3 -225 1 -281 -13 -345 -31 -139 -107 -316 -187 -436
l-33 -50 -183 -3 -182 -2 0 -173 0 -173 -72 -41 c-213 -120 -427 -176 -673
-176 -272 0 -512 70 -742 215 l-63 40 0 154 0 154 -153 0 -152 0 -35 53 c-95
143 -174 345 -206 522 -20 117 -20 342 0 458 24 132 71 269 138 400 l61 117
173 0 174 0 0 180 0 179 58 39 c109 74 276 148 412 182 66 17 108 19 355 17
l280 -3 98 -32z"/>
<path d="M1387 2529 c-43 -72 -77 -138 -75 -147 2 -10 14 -18 29 -20 23 -3 31
5 65 62 21 37 42 66 46 66 4 0 8 -121 8 -270 0 -148 -2 -270 -5 -270 -2 0 -40
12 -82 26 -313 106 -642 -49 -768 -361 -25 -61 -29 -87 -33 -196 -4 -118 -3
-130 25 -210 36 -105 85 -180 169 -258 78 -73 199 -135 298 -152 91 -15 226
-6 302 21 32 11 67 23 77 27 16 5 17 -11 17 -251 l0 -257 28 3 27 3 3 259 c2
240 4 258 20 251 112 -46 153 -56 236 -62 122 -8 211 9 313 58 149 72 261 198
316 358 28 80 29 92 25 210 -4 109 -8 135 -33 196 -102 254 -340 408 -604 393
-75 -5 -155 -25 -253 -63 -17 -7 -18 10 -18 269 0 152 3 276 8 276 4 0 24 -30
46 -65 29 -50 44 -65 61 -65 51 0 33 50 -92 248 -52 81 -63 76 -156 -79z m-25
-618 c32 -12 60 -26 62 -30 3 -4 -20 -34 -50 -67 -218 -234 -215 -595 7 -838
l50 -55 -28 -15 c-108 -55 -259 -64 -388 -22 -184 59 -316 201 -365 391 -24
92 -25 136 -5 228 44 208 191 364 399 423 76 21 244 13 318 -15z m656 -7 c174
-69 298 -216 337 -401 20 -92 19 -136 -5 -228 -49 -190 -181 -332 -365 -391
-129 -42 -280 -33 -388 22 l-28 15 50 55 c102 111 158 242 168 390 11 157 -52
332 -161 449 -31 33 -56 61 -56 62 0 7 66 35 112 48 36 10 86 14 158 11 87 -2
118 -8 178 -32z m-434 -146 c182 -208 181 -516 -2 -719 -24 -27 -48 -49 -53
-49 -5 0 -9 171 -9 410 0 244 4 410 9 410 5 0 30 -23 55 -52z m-124 -358 c0
-231 -4 -390 -9 -390 -18 0 -83 86 -117 155 -92 188 -67 405 65 573 23 29 46
52 51 52 6 0 10 -143 10 -390z"/>
</g>
</svg>
