<?xml version="1.0" standalone="no"?>
<!DOCTYPE svg PUBLIC "-//W3C//DTD SVG 20010904//EN"
 "http://www.w3.org/TR/2001/REC-SVG-20010904/DTD/svg10.dtd">
<svg version="1.0" xmlns="http://www.w3.org/2000/svg"
 width="300.000000pt" height="300.000000pt" viewBox="0 0 300.000000 300.000000"
 preserveAspectRatio="xMidYMid meet">
<metadata>
Created by potrace 1.16, written by Peter Selinger 2001-2019
</metadata>
<g transform="translate(0.000000,300.000000) scale(0.100000,-0.100000)"
fill="#000000" stroke="none">
<path d="M1390 2994 c-289 -35 -489 -106 -707 -251 l-83 -54 0 -160 0 -159
-150 0 -150 0 -34 -52 c-93 -146 -167 -332 -207 -518 -33 -151 -33 -419 0
-570 44 -206 116 -378 228 -547 l54 -83 130 0 129 0 0 -129 0 -130 83 -54
c165 -110 349 -188 540 -229 147 -32 437 -32 584 0 175 38 366 116 511 208
l52 34 0 150 0 150 159 0 160 0 54 83 c117 175 201 381 233 572 23 135 23 385
0 520 -30 174 -126 419 -218 553 l-29 42 -179 0 -180 0 0 180 0 180 -52 34
c-155 99 -371 183 -538 211 -96 16 -325 27 -390 19z m523 -172 c119 -40 212
-81 289 -128 l58 -35 0 -200 0 -199 199 0 200 0 35 -58 c47 -77 88 -170 128
-289 l32 -98 4 -269 c3 -225 1 -281 -13 -345 -31 -139 -107 -316 -187 -436
l-33 -50 -183 -3 -182 -2 0 -173 0 -173 -72 -41 c-213 -120 -427 -176 -673
-176 -272 0 -512 70 -742 215 l-63 40 0 154 0 154 -153 0 -152 0 -35 53 c-95
143 -174 345 -206 522 -20 117 -20 342 0 458 24 132 71 269 138 400 l61 117
173 0 174 0 0 180 0 179 58 39 c109 74 276 148 412 182 66 17 108 19 355 17
l280 -3 98 -32z"/>
<path d="M1420 2230 c-11 -11 -20 -24 -20 -30 0 -6 -115 -10 -326 -10 -205 0
-332 -4 -345 -10 -10 -6 -19 -21 -19 -34 0 -13 -26 -90 -59 -172 -32 -82 -100
-257 -151 -389 -51 -132 -101 -249 -111 -261 -25 -27 -24 -45 4 -89 68 -111
141 -158 274 -176 185 -25 351 39 404 156 25 55 24 81 -12 177 -17 46 -64 175
-104 288 -41 113 -90 249 -109 303 -20 54 -36 102 -36 107 0 6 115 10 300 10
260 0 304 -2 325 -16 l25 -16 0 -722 c0 -548 3 -725 12 -734 15 -15 51 -15 66
0 9 9 12 189 12 750 l0 738 325 0 c179 0 325 -4 325 -8 0 -9 -194 -554 -255
-715 l-37 -98 25 -53 c61 -128 218 -193 406 -167 135 18 220 69 267 162 25 51
30 79 15 95 -5 5 -25 50 -44 99 -19 50 -87 224 -151 388 -72 185 -114 307
-111 320 3 12 2 27 -2 33 -22 31 -55 34 -393 34 l-341 0 -26 30 c-21 25 -32
30 -69 30 -31 0 -50 -6 -64 -20z m-647 -242 c9 -24 63 -173 121 -333 57 -159
107 -298 111 -307 7 -17 -10 -18 -260 -18 l-267 0 6 23 c3 13 55 151 117 307
61 157 118 306 127 332 8 26 19 45 22 43 4 -2 14 -24 23 -47z m1562 -131 c38
-100 99 -258 136 -352 l67 -170 -266 -3 c-146 -1 -266 -1 -268 1 -2 1 41 124
95 272 53 149 110 307 127 353 16 45 31 82 34 82 3 0 36 -82 75 -183z m-1325
-611 c0 -27 -49 -73 -102 -96 -73 -32 -214 -39 -289 -15 -72 23 -125 58 -144
95 l-16 30 276 0 c231 0 275 -2 275 -14z m1525 -16 c-19 -37 -73 -73 -143 -95
-81 -27 -221 -18 -295 19 -49 24 -107 78 -107 99 0 4 126 7 280 7 l281 0 -16
-30z"/>
</g>
</svg>
