<?xml version="1.0" standalone="no"?>
<!DOCTYPE svg PUBLIC "-//W3C//DTD SVG 20010904//EN"
 "http://www.w3.org/TR/2001/REC-SVG-20010904/DTD/svg10.dtd">
<svg version="1.0" xmlns="http://www.w3.org/2000/svg"
 width="288.000000pt" height="289.000000pt" viewBox="0 0 288.000000 289.000000"
 preserveAspectRatio="xMidYMid meet">
<metadata>
Created by potrace 1.16, written by Peter Selinger 2001-2019
</metadata>
<g transform="translate(0.000000,289.000000) scale(0.100000,-0.100000)"
fill="#000000" stroke="none">
<path d="M240 1448 l0 -1203 1188 1 c653 1 1193 2 1200 3 9 1 12 248 12 1201
l0 1200 -1200 0 -1200 0 0 -1202z m601 1040 c40 -37 98 -81 199 -149 159 -109
202 -140 229 -169 39 -41 76 -61 137 -76 72 -16 127 1 186 61 24 23 63 51 88
62 25 11 61 39 80 61 19 23 48 47 65 54 16 6 53 31 80 54 62 52 215 128 229
114 7 -7 4 -20 -7 -39 -9 -16 -28 -84 -41 -152 -15 -74 -33 -133 -44 -149 -23
-31 -35 -70 -62 -198 -10 -52 -28 -111 -39 -132 -11 -21 -23 -55 -27 -75 -8
-42 11 -68 63 -90 18 -8 54 -34 80 -58 27 -24 68 -57 93 -72 25 -15 55 -40 68
-56 13 -16 46 -40 75 -54 29 -15 66 -39 82 -53 17 -15 46 -36 65 -46 77 -42
100 -85 62 -119 -15 -14 -61 -16 -362 -18 l-345 -3 -25 -26 c-98 -105 -106
-119 -126 -235 -17 -101 -39 -158 -79 -206 -16 -20 -25 -54 -38 -144 -9 -65
-24 -129 -32 -142 -29 -44 -71 -23 -120 62 -26 44 -46 112 -70 227 -9 43 -33
112 -55 155 -21 43 -43 103 -49 133 -6 30 -22 73 -34 95 -18 33 -32 43 -77 59
-49 16 -65 17 -155 7 -55 -6 -167 -11 -250 -10 -82 0 -187 -4 -233 -11 -122
-16 -135 2 -70 97 16 24 41 49 57 57 15 8 50 35 77 59 28 25 68 55 91 66 22
12 56 39 75 60 19 21 55 49 79 61 24 13 66 42 93 66 26 24 54 44 61 44 6 0 20
9 31 21 39 43 17 192 -37 254 -21 25 -49 117 -49 164 0 49 -22 117 -58 182
-36 66 -59 177 -43 208 15 28 52 27 82 -1z"/>
<path d="M987 2192 c-35 -39 -9 -140 71 -276 41 -71 47 -88 48 -141 2 -84 1
-81 33 -118 22 -25 33 -50 40 -96 16 -101 43 -116 101 -56 54 56 120 42 120
-26 0 -23 -9 -34 -40 -55 -24 -16 -43 -38 -47 -53 -9 -38 -21 -50 -62 -57 -20
-4 -42 -11 -48 -17 -20 -15 -15 -44 9 -61 27 -19 87 -21 92 -3 19 73 17 71 91
83 95 16 114 25 164 75 67 68 71 76 71 160 l0 77 -45 50 c-57 63 -97 82 -173
82 -60 0 -60 0 -101 -49 -40 -48 -99 -80 -121 -66 -13 8 -13 76 -1 109 6 13
25 35 44 48 30 20 127 130 127 143 0 2 -22 16 -50 30 -31 16 -60 40 -76 65
-17 26 -44 48 -77 64 -32 15 -60 38 -77 62 -30 45 -67 55 -93 26z"/>
<path d="M1775 2149 c-11 -12 -43 -36 -72 -55 -33 -21 -60 -48 -72 -73 -11
-21 -32 -48 -46 -59 -26 -20 -27 -20 -67 -2 -35 16 -46 17 -72 6 -16 -6 -31
-17 -33 -23 -6 -17 64 -36 108 -29 35 6 40 3 66 -31 42 -54 85 -93 105 -93 27
0 135 88 151 124 19 39 40 169 35 216 -3 33 -5 35 -43 37 -29 2 -45 -3 -60
-18z"/>
<path d="M1796 1608 c-3 -13 -7 -46 -9 -74 -3 -36 -16 -73 -46 -128 -39 -71
-48 -79 -97 -101 -44 -19 -54 -29 -54 -48 0 -34 7 -37 55 -20 30 10 51 25 65
48 27 43 54 49 147 29 102 -21 234 -15 272 13 14 11 27 32 29 47 3 23 -3 29
-51 51 -30 14 -75 43 -100 65 -25 22 -68 51 -96 64 -28 13 -60 35 -72 50 -25
32 -37 33 -43 4z"/>
<path d="M995 1550 c-22 -11 -45 -19 -51 -20 -6 0 -41 -21 -77 -47 -35 -27
-79 -56 -96 -65 -26 -14 -31 -23 -31 -52 0 -60 30 -71 180 -68 133 2 224 21
234 48 14 38 4 75 -36 135 -59 85 -73 93 -123 69z"/>
<path d="M1333 1189 c-16 -16 -18 -176 -3 -215 6 -15 25 -45 43 -66 18 -20 45
-53 60 -73 34 -42 64 -45 77 -9 11 29 55 353 48 359 -2 2 -51 7 -108 11 -80 5
-108 3 -117 -7z"/>
</g>
</svg>
