<?xml version="1.0" encoding="UTF-8" standalone="no"?>
<svg
   xmlns:dc="http://purl.org/dc/elements/1.1/"
   xmlns:cc="http://creativecommons.org/ns#"
   xmlns:rdf="http://www.w3.org/1999/02/22-rdf-syntax-ns#"
   xmlns:svg="http://www.w3.org/2000/svg"
   xmlns="http://www.w3.org/2000/svg"
   xmlns:sodipodi="http://sodipodi.sourceforge.net/DTD/sodipodi-0.dtd"
   xmlns:inkscape="http://www.inkscape.org/namespaces/inkscape"
   version="1.0"
   width="288.000000pt"
   height="289.000000pt"
   viewBox="0 0 288.000000 289.000000"
   preserveAspectRatio="xMidYMid meet"
   id="svg2713"
   sodipodi:docname="maleficia.svg"
   inkscape:version="1.0.1 (3bc2e813f5, 2020-09-07)">
  <defs
     id="defs2717" />
  <sodipodi:namedview
     pagecolor="#ffffff"
     bordercolor="#666666"
     borderopacity="1"
     objecttolerance="10"
     gridtolerance="10"
     guidetolerance="10"
     inkscape:pageopacity="0"
     inkscape:pageshadow="2"
     inkscape:window-width="1600"
     inkscape:window-height="837"
     id="namedview2715"
     showgrid="false"
     inkscape:zoom="1.7387543"
     inkscape:cx="192"
     inkscape:cy="192.66667"
     inkscape:window-x="-8"
     inkscape:window-y="-8"
     inkscape:window-maximized="1"
     inkscape:current-layer="svg2713" />
  <metadata
     id="metadata2697">
Created by potrace 1.16, written by Peter Selinger 2001-2019
<rdf:RDF>
  <cc:Work
     rdf:about="">
    <dc:format>image/svg+xml</dc:format>
    <dc:type
       rdf:resource="http://purl.org/dc/dcmitype/StillImage" />
  </cc:Work>
</rdf:RDF>
</metadata>
  <g
     transform="translate(0.000000,289.000000) scale(0.100000,-0.100000)"
     fill="#000000"
     stroke="none"
     id="g2711">
    <path
       d="M240 1448 l0 -1203 1188 1 c653 1 1193 2 1200 3 9 1 12 248 12 1201 l0 1200 -1200 0 -1200 0 0 -1202z m601 1040 c40 -37 98 -81 199 -149 159 -109 202 -140 229 -169 39 -41 76 -61 137 -76 72 -16 127 1 186 61 24 23 63 51 88 62 25 11 61 39 80 61 19 23 48 47 65 54 16 6 53 31 80 54 62 52 215 128 229 114 7 -7 4 -20 -7 -39 -9 -16 -28 -84 -41 -152 -15 -74 -33 -133 -44 -149 -23 -31 -35 -70 -62 -198 -10 -52 -28 -111 -39 -132 -11 -21 -23 -55 -27 -75 -8 -42 11 -68 63 -90 18 -8 54 -34 80 -58 27 -24 68 -57 93 -72 25 -15 55 -40 68 -56 13 -16 46 -40 75 -54 29 -15 66 -39 82 -53 17 -15 46 -36 65 -46 77 -42 100 -85 62 -119 -15 -14 -61 -16 -362 -18 l-345 -3 -25 -26 c-98 -105 -106 -119 -126 -235 -17 -101 -39 -158 -79 -206 -16 -20 -25 -54 -38 -144 -9 -65 -24 -129 -32 -142 -29 -44 -71 -23 -120 62 -26 44 -46 112 -70 227 -9 43 -33 112 -55 155 -21 43 -43 103 -49 133 -6 30 -22 73 -34 95 -18 33 -32 43 -77 59 -49 16 -65 17 -155 7 -55 -6 -167 -11 -250 -10 -82 0 -187 -4 -233 -11 -122 -16 -135 2 -70 97 16 24 41 49 57 57 15 8 50 35 77 59 28 25 68 55 91 66 22 12 56 39 75 60 19 21 55 49 79 61 24 13 66 42 93 66 26 24 54 44 61 44 6 0 20 9 31 21 39 43 17 192 -37 254 -21 25 -49 117 -49 164 0 49 -22 117 -58 182 -36 66 -59 177 -43 208 15 28 52 27 82 -1z"
       id="path2699" />
    <path
       d="M987 2192 c-35 -39 -9 -140 71 -276 41 -71 47 -88 48 -141 2 -84 1 -81 33 -118 22 -25 33 -50 40 -96 16 -101 43 -116 101 -56 54 56 120 42 120 -26 0 -23 -9 -34 -40 -55 -24 -16 -43 -38 -47 -53 -9 -38 -21 -50 -62 -57 -20 -4 -42 -11 -48 -17 -20 -15 -15 -44 9 -61 27 -19 87 -21 92 -3 19 73 17 71 91 83 95 16 114 25 164 75 67 68 71 76 71 160 l0 77 -45 50 c-57 63 -97 82 -173 82 -60 0 -60 0 -101 -49 -40 -48 -99 -80 -121 -66 -13 8 -13 76 -1 109 6 13 25 35 44 48 30 20 127 130 127 143 0 2 -22 16 -50 30 -31 16 -60 40 -76 65 -17 26 -44 48 -77 64 -32 15 -60 38 -77 62 -30 45 -67 55 -93 26z"
       id="path2701" />
    <path
       d="M1775 2149 c-11 -12 -43 -36 -72 -55 -33 -21 -60 -48 -72 -73 -11 -21 -32 -48 -46 -59 -26 -20 -27 -20 -67 -2 -35 16 -46 17 -72 6 -16 -6 -31 -17 -33 -23 -6 -17 64 -36 108 -29 35 6 40 3 66 -31 42 -54 85 -93 105 -93 27 0 135 88 151 124 19 39 40 169 35 216 -3 33 -5 35 -43 37 -29 2 -45 -3 -60 -18z"
       id="path2703" />
    <path
       d="M1796 1608 c-3 -13 -7 -46 -9 -74 -3 -36 -16 -73 -46 -128 -39 -71 -48 -79 -97 -101 -44 -19 -54 -29 -54 -48 0 -34 7 -37 55 -20 30 10 51 25 65 48 27 43 54 49 147 29 102 -21 234 -15 272 13 14 11 27 32 29 47 3 23 -3 29 -51 51 -30 14 -75 43 -100 65 -25 22 -68 51 -96 64 -28 13 -60 35 -72 50 -25 32 -37 33 -43 4z"
       id="path2705" />
    <path
       d="M995 1550 c-22 -11 -45 -19 -51 -20 -6 0 -41 -21 -77 -47 -35 -27 -79 -56 -96 -65 -26 -14 -31 -23 -31 -52 0 -60 30 -71 180 -68 133 2 224 21 234 48 14 38 4 75 -36 135 -59 85 -73 93 -123 69z"
       id="path2707" />
    <path
       d="M1333 1189 c-16 -16 -18 -176 -3 -215 6 -15 25 -45 43 -66 18 -20 45 -53 60 -73 34 -42 64 -45 77 -9 11 29 55 353 48 359 -2 2 -51 7 -108 11 -80 5 -108 3 -117 -7z"
       id="path2709" />
  </g>
  <path
     style="fill:#ffffff;stroke-width:0.575124"
     d="m 191.57777,328.98299 c -2.20016,-1.34148 -6.4989,-7.00673 -8.85806,-11.67392 -2.41779,-4.78317 -4.69967,-12.03235 -7.1007,-22.55783 -2.3311,-10.21894 -5.07483,-18.80824 -8.14077,-25.4848 -3.44584,-7.50386 -5.35777,-12.64273 -7.13331,-19.17277 -1.9659,-7.23016 -4.27374,-12.61397 -6.56899,-15.32436 -1.85326,-2.18847 -4.28858,-3.53523 -9.46636,-5.235 -4.10127,-1.34638 -11.58261,-1.57745 -19.88669,-0.61422 -2.53055,0.29353 -14.95324,0.78867 -27.605975,1.10032 -12.652736,0.31165 -26.757661,0.89865 -31.344278,1.30446 -4.586617,0.4058 -10.495659,0.73782 -13.131205,0.73782 -4.128082,0 -4.908433,-0.15935 -5.633108,-1.15025 -1.101721,-1.50647 -0.663101,-3.14718 2.087574,-7.80881 2.909497,-4.93079 6.845043,-9.262 10.947044,-12.04761 1.813645,-1.23163 5.979922,-4.46672 9.258392,-7.1891 3.27847,-2.72238 8.137127,-6.29143 10.797016,-7.93123 2.659889,-1.63981 7.413809,-5.31071 10.564267,-8.15758 3.150459,-2.84687 6.538515,-5.7205 7.529013,-6.38587 0.990499,-0.66536 4.38897,-2.90947 7.55215,-4.98692 3.16319,-2.07745 7.43348,-5.23366 9.48955,-7.01379 2.05607,-1.78013 5.16174,-3.97211 6.9015,-4.87108 5.60034,-2.89381 7.00924,-5.61369 6.99986,-13.51318 -0.01,-8.41424 -2.79589,-17.95854 -6.75835,-23.1536 -3.50298,-4.59263 -6.27671,-13.41961 -7.15993,-22.78536 -0.69637,-7.384416 -2.87897,-14.657218 -6.51939,-21.723715 -7.1378,-13.855375 -9.629146,-28.310354 -5.39098,-31.278882 2.73291,-1.914204 5.92668,-0.874019 10.91253,3.554117 3.98142,3.536065 13.45179,10.520401 25.16999,18.562698 17.95834,12.324958 24.66002,17.284986 29.98457,22.19209 8.35203,7.697222 16.33084,10.929762 25.87543,10.483182 6.3619,-0.29766 10.49291,-2.24105 16.84912,-7.926479 4.52352,-4.046138 8.113,-6.56564 14.65461,-10.286257 1.87313,-1.065365 5.82921,-4.300439 8.79129,-7.189055 3.2846,-3.203133 6.78045,-5.993647 8.96106,-7.153052 1.9665,-1.045564 6.31913,-3.960107 9.67251,-6.476763 3.35338,-2.516655 7.92612,-5.643972 10.16165,-6.949591 6.42368,-3.751631 15.80465,-8.054417 18.28589,-8.387221 1.99886,-0.268104 2.27033,-0.164749 2.27033,0.864351 0,0.642877 -0.64203,2.553297 -1.42674,4.245378 -0.78471,1.692081 -2.36422,7.088003 -3.51001,11.990939 -4.78418,20.471827 -5.42834,22.691518 -8.26165,28.468656 -3.44249,7.019274 -3.98771,8.751854 -6.89353,21.905944 -2.41967,10.95337 -4.66215,18.73107 -6.37046,22.09496 -1.61088,3.17204 -3.44407,9.19978 -3.44407,11.32449 0,4.46201 2.06144,6.85793 9.05679,10.52626 1.97621,1.03632 6.50532,4.31872 10.06468,7.29423 3.55936,2.97551 8.78697,7.00033 11.61691,8.94405 2.82994,1.94372 6.97084,5.25207 9.20199,7.35189 4.39977,4.14078 7.138,6.10563 13.08172,9.3869 2.11693,1.16866 6.62402,4.20748 10.01575,6.75292 3.39173,2.54544 7.11255,5.11057 8.26849,5.70029 5.9056,3.01281 10.30838,8.19808 9.54465,11.24101 -0.73671,2.9353 -2.66918,4.30798 -6.9475,4.93495 -2.24829,0.32948 -22.90853,0.7644 -46.79134,0.985 l -42.76546,0.39503 -3.34555,3.55935 c -6.78766,7.22144 -11.00881,12.58168 -12.70228,16.13002 -1.19498,2.50386 -2.44399,7.12728 -3.99808,14.7996 -3.07886,15.19978 -5.10034,20.64503 -10.12389,27.27065 -2.47335,3.26212 -3.28824,6.11262 -5.39867,18.88466 -0.95326,5.76904 -2.24421,12.48716 -2.86877,14.92915 -1.79989,7.03752 -4.71168,9.13993 -9.02023,6.51293 z m 7.88659,-50.61623 c 1.5319,-0.81985 2.68703,-4.47362 4.00219,-12.6593 1.44514,-8.99467 3.84748,-27.51534 4.379,-33.75959 0.47211,-5.54645 1.23474,-5.02461 -8.6565,-5.92333 -9.02766,-0.82026 -19.96694,-0.7463 -21.16728,0.14312 -1.60394,1.18847 -2.25763,6.86826 -2.0358,17.68842 0.19839,9.67591 0.26886,10.19109 1.80946,13.22786 2.17473,4.28673 14.71025,19.51045 17.13696,20.81191 2.21274,1.1867 3.03488,1.27213 4.53197,0.47091 z m -25.99312,-56.51253 c 0.32515,-0.3954 1.01689,-2.18871 1.5372,-3.98514 0.52031,-1.79643 1.45567,-3.91415 2.07858,-4.70605 1.18343,-1.50449 1.55321,-1.61231 13.18761,-3.84527 8.87177,-1.70275 11.90002,-3.39175 18.80423,-10.4881 3.18099,-3.26951 6.22703,-6.80204 6.76899,-7.85007 1.11182,-2.15002 1.99393,-9.8486 2.01716,-17.6048 l 0.0156,-5.20131 -5.75457,-6.11011 c -8.98466,-9.53977 -12.8666,-11.38079 -23.99728,-11.38079 -4.54988,0 -7.01039,0.2493 -8.09114,0.8198 -0.85417,0.45089 -3.35239,2.81966 -5.5516,5.26394 -6.37251,7.08263 -13.43203,10.95284 -15.74932,8.63419 -1.34035,-1.34114 -1.27415,-10.68662 0.0961,-13.56768 0.52656,-1.10712 4.17994,-5.06025 8.11864,-8.78473 6.99106,-6.61085 14.69632,-15.47394 14.69632,-16.90466 0,-0.39336 -2.26259,-1.95603 -5.02798,-3.47261 -4.80685,-2.63614 -7.31932,-4.79933 -14.62054,-12.58809 -1.47529,-1.57381 -4.55902,-3.88782 -6.85272,-5.14226 -5.35102,-2.92648 -7.83963,-4.94435 -11.15043,-9.041214 -3.02965,-3.74896 -5.08253,-5.029624 -8.06239,-5.029624 -2.76084,0 -4.60882,1.317577 -5.71081,4.071701 -2.59381,6.482567 0.71198,17.701947 10.10296,34.288027 5.93049,10.47427 6.32314,11.6938 6.83063,21.21504 0.4698,8.81431 0.79082,9.85419 4.34931,14.08853 2.91765,3.47177 3.97686,6.08171 5.62375,13.85721 0.77556,3.66166 1.8242,7.45833 2.33031,8.43705 2.0844,4.03078 5.16357,3.72365 10.41923,-1.03923 4.27989,-3.87862 6.78354,-5.19893 9.85847,-5.19893 3.93334,0 6.51121,2.97558 6.51121,7.51572 0,2.59521 -0.88976,3.69022 -7.3348,9.02683 -2.32458,1.9248 -3.22788,3.18317 -4.20122,5.85265 -0.68197,1.87037 -1.79453,3.91979 -2.47236,4.55429 -0.67783,0.63449 -3.30287,1.6989 -5.83341,2.36535 -5.87998,1.54856 -7.42164,2.64324 -7.65774,5.4375 -0.23579,2.79056 1.07265,4.73889 4.10804,6.11706 2.82616,1.28317 9.67425,1.53852 10.61397,0.39578 z m 48.04747,-2.06949 c 2.45392,-1.11266 4.22367,-2.39433 5.33658,-3.86479 5.5741,-7.3649 6.93688,-7.77703 19.16175,-5.79492 11.9134,1.9316 19.14089,2.35197 26.43531,1.53754 8.4193,-0.94002 11.80088,-2.31351 13.91902,-5.65347 1.97655,-3.1167 2.17716,-5.93818 0.53872,-7.57662 -0.62463,-0.62463 -3.01859,-2.08084 -5.3199,-3.23603 -4.97005,-2.4948 -9.89741,-5.72364 -16.51816,-10.82414 -2.67153,-2.0581 -7.19648,-4.98061 -10.05543,-6.49447 -3.18649,-1.68728 -6.67545,-4.14352 -9.0156,-6.34699 -5.85438,-5.51246 -6.40642,-5.09857 -7.67603,5.75499 -1.00387,8.58183 -1.7131,10.81798 -6.19437,19.53042 -4.64783,9.03628 -6.12767,10.64499 -13.07495,14.21356 -7.32502,3.76261 -8.50046,5.39001 -6.91158,9.5691 0.55085,1.44885 0.75885,1.52823 3.14651,1.20097 1.40616,-0.19273 4.20883,-1.09956 6.22813,-2.01515 z m -92.08088,-7.56336 c 10.73864,-0.6236 17.12128,-1.72643 21.52542,-3.7193 2.73125,-1.23589 3.00322,-1.54093 3.51552,-3.94293 1.16757,-5.47438 -0.9867,-11.36007 -7.20302,-19.67939 -6.97161,-9.33014 -7.61337,-9.50085 -18.61821,-4.95254 -6.07235,2.50972 -8.0804,3.67707 -15.42043,8.96446 -2.70474,1.94836 -6.90932,4.77738 -9.3435,6.28673 -4.967182,3.07996 -5.997814,4.83301 -5.490013,9.33821 0.573449,5.08763 3.280533,7.07737 10.489783,7.71015 6.91132,0.60664 10.01904,0.60582 20.54445,-0.005 z m 102.34135,-68.40674 c 5.69094,-3.83468 11.6677,-9.35705 13.48724,-12.46187 1.82398,-3.11238 3.29786,-8.74235 4.55725,-17.40785 1.01278,-6.96867 0.96821,-15.700203 -0.0855,-16.753506 -0.83466,-0.834311 -6.45751,-1.399291 -9.0625,-0.910592 -1.21868,0.228626 -3.28006,1.446604 -5.08892,3.006814 -1.67225,1.442384 -4.91671,3.898914 -7.20989,5.458954 -6.18345,4.20654 -8.0472,6.03451 -11.34557,11.12773 -3.26412,5.04035 -7.69231,9.50279 -9.42984,9.50279 -0.60659,0 -2.92743,-0.77641 -5.15745,-1.72537 -2.23001,-0.94895 -4.66966,-1.72537 -5.42145,-1.72537 -2.30482,0 -6.52963,1.70645 -7.939,3.20666 -1.32441,1.40977 -1.32638,1.43291 -0.21653,2.53697 1.88029,1.87047 7.90504,3.0772 13.43081,2.69012 l 4.83413,-0.33863 2.06736,2.18405 c 1.13705,1.20122 3.86481,4.20269 6.06169,6.66993 2.19688,2.46724 5.01788,5.22734 6.26888,6.13357 3.33351,2.41478 5.21914,2.19505 10.24931,-1.1944 z"
     id="path2719"
     transform="scale(0.74999999)" />
</svg>
