<?xml version="1.0" standalone="no"?>
<!DOCTYPE svg PUBLIC "-//W3C//DTD SVG 20010904//EN"
 "http://www.w3.org/TR/2001/REC-SVG-20010904/DTD/svg10.dtd">
<svg version="1.0" xmlns="http://www.w3.org/2000/svg"
 width="300.000000pt" height="300.000000pt" viewBox="0 0 300.000000 300.000000"
 preserveAspectRatio="xMidYMid meet">
<metadata>
Created by potrace 1.16, written by Peter Selinger 2001-2019
</metadata>
<g transform="translate(0.000000,300.000000) scale(0.100000,-0.100000)"
fill="#000000" stroke="none">
<path d="M1390 2994 c-289 -35 -489 -106 -707 -251 l-83 -54 0 -160 0 -159
-150 0 -150 0 -34 -52 c-93 -146 -167 -332 -207 -518 -33 -151 -33 -419 0
-570 44 -206 116 -378 228 -547 l54 -83 130 0 129 0 0 -129 0 -130 83 -54
c165 -110 349 -188 540 -229 147 -32 437 -32 584 0 175 38 366 116 511 208
l52 34 0 150 0 150 159 0 160 0 54 83 c117 175 201 381 233 572 23 135 23 385
0 520 -30 174 -126 419 -218 553 l-29 42 -179 0 -180 0 0 180 0 180 -52 34
c-155 99 -371 183 -538 211 -96 16 -325 27 -390 19z m523 -172 c119 -40 212
-81 289 -128 l58 -35 0 -200 0 -199 199 0 200 0 35 -58 c47 -77 88 -170 128
-289 l32 -98 4 -269 c3 -225 1 -281 -13 -345 -31 -139 -107 -316 -187 -436
l-33 -50 -183 -3 -182 -2 0 -173 0 -173 -72 -41 c-213 -120 -427 -176 -673
-176 -272 0 -512 70 -742 215 l-63 40 0 154 0 154 -153 0 -152 0 -35 53 c-95
143 -174 345 -206 522 -20 117 -20 342 0 458 24 132 71 269 138 400 l61 117
173 0 174 0 0 180 0 179 58 39 c109 74 276 148 412 182 66 17 108 19 355 17
l280 -3 98 -32z"/>
<path d="M2185 2208 c-18 -6 -151 -131 -341 -320 -282 -281 -313 -309 -332
-299 -11 6 -31 11 -44 11 -17 0 -86 63 -261 238 -212 213 -237 241 -237 270 0
76 -86 108 -141 53 -59 -60 -23 -141 63 -141 43 0 44 -1 276 -233 206 -206
233 -236 227 -258 -3 -14 -2 -36 4 -50 9 -25 -6 -42 -287 -322 -194 -193 -307
-298 -325 -302 -98 -25 -234 89 -245 205 l-5 51 188 188 c187 189 209 220 161
229 -13 3 -72 -49 -203 -179 -157 -158 -186 -191 -197 -230 -31 -103 45 -242
165 -305 50 -25 138 -30 180 -9 19 9 169 151 334 315 222 220 308 300 330 304
28 6 44 -7 292 -256 l261 -263 -1 -43 c-1 -37 3 -48 26 -68 39 -33 81 -31 118
5 32 33 36 58 14 100 -16 31 -33 41 -73 41 -22 0 -78 51 -295 268 -230 230
-268 273 -265 295 4 34 603 641 642 651 61 15 163 -39 211 -113 29 -43 41 -97
30 -138 -4 -17 -74 -96 -186 -208 -98 -100 -179 -188 -179 -197 0 -9 8 -19 17
-22 13 -5 63 39 201 176 101 101 190 196 198 211 58 109 -38 282 -187 338 -54
21 -89 23 -134 7z"/>
</g>
</svg>
