<?xml version="1.0" encoding="UTF-8" standalone="no"?>
<svg
   xmlns:dc="http://purl.org/dc/elements/1.1/"
   xmlns:cc="http://creativecommons.org/ns#"
   xmlns:rdf="http://www.w3.org/1999/02/22-rdf-syntax-ns#"
   xmlns:svg="http://www.w3.org/2000/svg"
   xmlns="http://www.w3.org/2000/svg"
   xmlns:sodipodi="http://sodipodi.sourceforge.net/DTD/sodipodi-0.dtd"
   xmlns:inkscape="http://www.inkscape.org/namespaces/inkscape"
   version="1.0"
   width="300.000000pt"
   height="300.000000pt"
   viewBox="0 0 300.000000 300.000000"
   preserveAspectRatio="xMidYMid meet"
   id="svg2793"
   sodipodi:docname="martyrdom.svg"
   inkscape:version="1.0.1 (3bc2e813f5, 2020-09-07)">
  <defs
     id="defs2797" />
  <sodipodi:namedview
     pagecolor="#ffffff"
     bordercolor="#666666"
     borderopacity="1"
     objecttolerance="10"
     gridtolerance="10"
     guidetolerance="10"
     inkscape:pageopacity="0"
     inkscape:pageshadow="2"
     inkscape:window-width="1600"
     inkscape:window-height="837"
     id="namedview2795"
     showgrid="false"
     inkscape:zoom="1.675"
     inkscape:cx="200"
     inkscape:cy="200"
     inkscape:window-x="-8"
     inkscape:window-y="-8"
     inkscape:window-maximized="1"
     inkscape:current-layer="svg2793" />
  <metadata
     id="metadata2785">
Created by potrace 1.16, written by Peter Selinger 2001-2019
<rdf:RDF>
  <cc:Work
     rdf:about="">
    <dc:format>image/svg+xml</dc:format>
    <dc:type
       rdf:resource="http://purl.org/dc/dcmitype/StillImage" />
  </cc:Work>
</rdf:RDF>
</metadata>
  <g
     transform="translate(0.000000,300.000000) scale(0.100000,-0.100000)"
     fill="#000000"
     stroke="none"
     id="g2791">
    <path
       d="M1390 2994 c-289 -35 -489 -106 -707 -251 l-83 -54 0 -160 0 -159 -150 0 -150 0 -34 -52 c-93 -146 -167 -332 -207 -518 -33 -151 -33 -419 0 -570 44 -206 116 -378 228 -547 l54 -83 130 0 129 0 0 -129 0 -130 83 -54 c165 -110 349 -188 540 -229 147 -32 437 -32 584 0 175 38 366 116 511 208 l52 34 0 150 0 150 159 0 160 0 54 83 c117 175 201 381 233 572 23 135 23 385 0 520 -30 174 -126 419 -218 553 l-29 42 -179 0 -180 0 0 180 0 180 -52 34 c-155 99 -371 183 -538 211 -96 16 -325 27 -390 19z m523 -172 c119 -40 212 -81 289 -128 l58 -35 0 -200 0 -199 199 0 200 0 35 -58 c47 -77 88 -170 128 -289 l32 -98 4 -269 c3 -225 1 -281 -13 -345 -31 -139 -107 -316 -187 -436 l-33 -50 -183 -3 -182 -2 0 -173 0 -173 -72 -41 c-213 -120 -427 -176 -673 -176 -272 0 -512 70 -742 215 l-63 40 0 154 0 154 -153 0 -152 0 -35 53 c-95 143 -174 345 -206 522 -20 117 -20 342 0 458 24 132 71 269 138 400 l61 117 173 0 174 0 0 180 0 179 58 39 c109 74 276 148 412 182 66 17 108 19 355 17 l280 -3 98 -32z"
       id="path2787" />
    <path
       d="M2185 2208 c-18 -6 -151 -131 -341 -320 -282 -281 -313 -309 -332 -299 -11 6 -31 11 -44 11 -17 0 -86 63 -261 238 -212 213 -237 241 -237 270 0 76 -86 108 -141 53 -59 -60 -23 -141 63 -141 43 0 44 -1 276 -233 206 -206 233 -236 227 -258 -3 -14 -2 -36 4 -50 9 -25 -6 -42 -287 -322 -194 -193 -307 -298 -325 -302 -98 -25 -234 89 -245 205 l-5 51 188 188 c187 189 209 220 161 229 -13 3 -72 -49 -203 -179 -157 -158 -186 -191 -197 -230 -31 -103 45 -242 165 -305 50 -25 138 -30 180 -9 19 9 169 151 334 315 222 220 308 300 330 304 28 6 44 -7 292 -256 l261 -263 -1 -43 c-1 -37 3 -48 26 -68 39 -33 81 -31 118 5 32 33 36 58 14 100 -16 31 -33 41 -73 41 -22 0 -78 51 -295 268 -230 230 -268 273 -265 295 4 34 603 641 642 651 61 15 163 -39 211 -113 29 -43 41 -97 30 -138 -4 -17 -74 -96 -186 -208 -98 -100 -179 -188 -179 -197 0 -9 8 -19 17 -22 13 -5 63 39 201 176 101 101 190 196 198 211 58 109 -38 282 -187 338 -54 21 -89 23 -134 7z"
       id="path2789" />
  </g>
  <path
     style="fill:#ffffff;stroke-width:0.597015"
     d="m 191.9403,379.88256 c -7.05897,-0.37476 -20.23991,-2.05442 -27.1235,-3.45636 -22.05563,-4.49197 -40.79607,-12.1504 -62.06479,-25.36328 l -7.826637,-4.86218 V 325.63768 305.07463 H 74.61371 54.302048 l -4.46648,-6.79229 C 36.132533,277.4438 24.572541,246.98564 21.37078,223.28358 c -0.496555,-3.6759 -0.764254,-12.70923 -0.76077,-25.67164 0.006,-22.31857 0.5054,-27.29341 4.163096,-41.47125 4.015235,-15.56373 8.558348,-27.14217 17.753156,-45.24517 L 48.515126,99.104478 H 71.72025 94.925373 l 0.01296,-24.029851 0.01296,-24.029851 6.434507,-4.27274 c 17.57924,-11.673255 40.94423,-21.825075 59.80824,-25.986006 6.22342,-1.372732 6.53576,-1.381718 43.28358,-1.245312 l 37.01493,0.137397 9.94574,3.265685 c 18.21866,5.982093 30.25505,11.262494 43.33784,19.012432 l 6.1194,3.624991 v 26.761628 26.761627 h 26.73152 26.73151 l 3.65557,6.119402 c 7.65327,12.81152 13.00284,24.97256 19.09279,43.40308 l 3.26479,9.8805 0.11266,37.01493 c 0.11145,36.62102 0.098,37.08163 -1.26072,43.28358 -3.9538,18.04671 -14.3699,42.46386 -25.19994,59.07303 l -4.21417,6.46294 -24.457,0.44179 -24.45701,0.44178 v 23.07473 23.07473 l -8.80597,4.88724 c -13.7591,7.6362 -24.34422,12.23216 -37.52392,16.29254 -18.58125,5.72449 -41.75358,8.43589 -62.62533,7.32781 z m 98.41856,-84.55039 c 5.39978,-4.11862 6.88132,-8.62492 4.58815,-13.95551 -1.94597,-4.52354 -3.9197,-6.11936 -8.3416,-6.74439 -2.97035,-0.41985 -4.36025,-1.0176 -6.99946,-3.01022 -6.73226,-5.08291 -61.88036,-60.20323 -66.94496,-66.91124 -1.38146,-1.82972 -2.51174,-3.85457 -2.51174,-4.49965 0,-0.64508 1.50533,-2.99785 3.34518,-5.22838 12.19851,-14.78882 71.00929,-74.02642 79.87873,-80.45844 2.94133,-2.13303 6.27397,-2.2094 11.76876,-0.2697 10.96451,3.87054 20.10478,13.9271 22.04307,24.25282 1.45395,7.7456 0.30701,9.36041 -25.4931,35.89262 -14.4609,14.87124 -23.48293,24.86262 -23.48293,26.00599 0,1.0281 2.16008,3.17602 3.194,3.17602 1.40605,0 5.47355,-3.32473 14.90658,-12.18447 9.04447,-8.4948 29.69518,-29.63481 35.48657,-36.32739 7.73231,-8.93553 6.20086,-22.43994 -4.0006,-35.2774 -9.59341,-12.0723 -27.08949,-18.96424 -36.63913,-14.43264 -2.96457,1.40678 -16.80844,14.33881 -42.20116,39.42154 -29.51859,29.15823 -40.38647,39.59616 -43.35338,41.63822 l -2.38833,1.64384 -4.28349,-1.08781 c -2.54678,-0.64676 -5.38749,-1.88064 -7.00643,-3.04327 -4.51232,-3.24051 -49.05134,-47.32972 -57.21398,-56.63618 -4.02291,-4.58663 -4.7277,-5.86291 -5.21318,-9.44045 -0.89919,-6.62618 -5.00927,-10.13491 -11.33584,-9.67729 -11.41069,0.82538 -16.05078,15.46738 -6.64288,20.96188 1.094,0.63893 3.9486,1.36839 6.45483,1.64945 2.92871,0.32844 5.25944,0.97702 6.69327,1.86256 1.20992,0.74725 6.76775,5.79565 12.35073,11.21865 5.58299,5.42301 10.61934,10.263 11.19191,10.75554 3.35556,2.88654 34.70293,35.60109 35.8951,37.46062 1.15917,1.80806 1.49943,3.30613 1.76166,7.75628 l 0.325,5.51541 -2.79659,3.73355 c -5.48002,7.31602 -67.32622,68.23226 -75.78996,74.65033 -3.13658,2.37847 -3.15115,2.3825 -7.59394,2.09738 -7.934389,-0.5092 -16.525463,-5.9714 -21.983881,-13.97733 -3.452376,-5.06365 -5.203235,-9.92487 -5.636117,-15.64856 l -0.33165,-4.38518 19.085832,-19.19827 c 26.299086,-26.45401 30.050126,-30.72997 30.050126,-34.2553 0,-1.75458 -2.60358,-2.92039 -4.54577,-2.03547 -3.53568,1.61097 -29.405741,26.39899 -42.326512,40.55617 -8.893421,9.74445 -10.029001,11.86379 -10.336118,19.29033 -0.174176,4.2118 0.03284,6.67438 0.777886,9.25373 3.78948,13.11906 15.855117,25.42645 27.773797,28.33028 5.056544,1.23196 14.072187,0.99293 17.328727,-0.45944 3.53095,-1.57476 12.0769,-9.51386 47.97001,-44.56365 28.69857,-28.02429 38.92966,-37.46295 41.48849,-38.27509 0.70822,-0.22478 2.15439,0.10225 3.50966,0.79365 3.27341,1.66997 21.90316,19.59768 47.76281,45.96293 l 22.23881,22.6736 v 5.40094 c 0,5.207 0.0675,5.47786 1.88079,7.54305 2.96415,3.37598 5.5608,4.51102 9.83859,4.30063 2.8974,-0.1425 4.10624,-0.52061 5.80366,-1.81529 z"
     id="path2799"
     transform="scale(0.75)" />
</svg>
