<?xml version="1.0" encoding="UTF-8" standalone="no"?>
<svg
   xmlns:dc="http://purl.org/dc/elements/1.1/"
   xmlns:cc="http://creativecommons.org/ns#"
   xmlns:rdf="http://www.w3.org/1999/02/22-rdf-syntax-ns#"
   xmlns:svg="http://www.w3.org/2000/svg"
   xmlns="http://www.w3.org/2000/svg"
   xmlns:sodipodi="http://sodipodi.sourceforge.net/DTD/sodipodi-0.dtd"
   xmlns:inkscape="http://www.inkscape.org/namespaces/inkscape"
   version="1.0"
   width="238.000000pt"
   height="238.000000pt"
   viewBox="0 0 238.000000 238.000000"
   preserveAspectRatio="xMidYMid meet"
   id="svg2851"
   sodipodi:docname="melpomineesup.svg"
   inkscape:version="1.0.1 (3bc2e813f5, 2020-09-07)">
  <defs
     id="defs2855" />
  <sodipodi:namedview
     pagecolor="#ffffff"
     bordercolor="#666666"
     borderopacity="1"
     objecttolerance="10"
     gridtolerance="10"
     guidetolerance="10"
     inkscape:pageopacity="0"
     inkscape:pageshadow="2"
     inkscape:window-width="1600"
     inkscape:window-height="837"
     id="namedview2853"
     showgrid="false"
     inkscape:zoom="2.1113445"
     inkscape:cx="158.66667"
     inkscape:cy="158.66667"
     inkscape:window-x="-8"
     inkscape:window-y="-8"
     inkscape:window-maximized="1"
     inkscape:current-layer="svg2851" />
  <metadata
     id="metadata2845">
Created by potrace 1.16, written by Peter Selinger 2001-2019
<rdf:RDF>
  <cc:Work
     rdf:about="">
    <dc:format>image/svg+xml</dc:format>
    <dc:type
       rdf:resource="http://purl.org/dc/dcmitype/StillImage" />
  </cc:Work>
</rdf:RDF>
</metadata>
  <g
     transform="translate(0.000000,238.000000) scale(0.100000,-0.100000)"
     fill="#000000"
     stroke="none"
     id="g2849">
    <path
       d="M617 1772 l-577 -577 578 -578 577 -577 580 580 580 580 -575 575 c-316 316 -577 575 -580 575 -3 0 -265 -260 -583 -578z m707 109 c224 -118 445 -332 578 -560 22 -37 27 -58 28 -113 0 -39 -4 -68 -10 -68 -5 0 -10 5 -10 10 0 14 -24 66 -54 115 -14 22 -32 54 -42 70 -29 50 -134 176 -213 254 -88 86 -229 189 -309 225 -18 9 -46 25 -62 36 -15 11 -34 20 -42 20 -22 0 -52 26 -44 38 4 7 29 12 56 12 38 0 66 -9 124 -39z m-220 -362 c178 -101 336 -246 442 -404 26 -38 55 -82 65 -97 11 -15 19 -30 19 -32 0 -7 -61 -39 -64 -34 -2 2 -16 26 -31 53 -16 28 -39 64 -52 80 -12 17 -31 41 -40 55 -33 46 -197 206 -242 236 -106 69 -164 104 -176 104 -7 0 -23 8 -36 19 -21 16 -22 22 -11 45 6 14 17 26 24 26 6 0 53 -23 102 -51z m-124 -397 c65 -45 150 -125 183 -172 9 -14 33 -45 51 -70 34 -43 44 -70 29 -70 -5 0 -17 -3 -29 -6 -16 -4 -27 5 -56 48 -76 113 -194 219 -303 269 -27 13 -52 25 -53 26 -2 1 4 15 14 32 l17 30 41 -21 c23 -12 70 -41 106 -66z m-168 -381 c61 -56 72 -85 37 -96 -15 -5 -31 5 -70 44 -28 28 -68 60 -90 71 -39 21 -50 45 -28 67 16 16 80 -21 151 -86z"
       id="path2847" />
  </g>
  <path
     style="fill:#ffffff;stroke-width:0.473632"
     d="m 108.99556,229.59303 c -1.04936,-0.84661 -4.10309,-3.52892 -6.78607,-5.96068 -2.682981,-2.43176 -6.971912,-5.80151 -9.530957,-7.48833 -5.812745,-3.83152 -6.891787,-5.75627 -4.674428,-8.33805 0.391525,-0.45587 1.284191,-0.82886 1.983702,-0.82886 5.56755,0 25.578363,16.902 25.578363,21.6046 0,1.30874 -1.64764,2.55063 -3.38399,2.55063 -0.7355,0 -2.08918,-0.6539 -3.18662,-1.53931 z"
     id="path2857"
     transform="scale(0.74999998)" />
  <path
     style="fill:#ffffff;stroke-width:0.473632"
     d="m 158.3743,208.32032 c -0.81204,-0.86901 -2.91711,-3.6048 -4.67794,-6.07952 -4.44121,-6.24186 -8.92652,-11.44409 -14.37993,-16.67841 -8.58618,-8.24122 -15.98917,-13.4342 -26.48694,-18.57984 l -5.74188,-2.81446 1.9239,-3.69797 c 1.05814,-2.03389 2.14905,-3.69798 2.42423,-3.69798 1.86585,0 17.92891,10.08532 24.4966,15.38038 10.12175,8.16045 14.83795,13.15839 23.25245,24.64151 5.32984,7.27355 7.0456,10.00271 7.05428,11.2208 0.008,1.07986 -0.28857,1.21065 -3.563,1.57292 -2.75841,0.30518 -2.86029,0.27517 -4.30177,-1.26743 z"
     id="path2859"
     transform="scale(0.74999998)" />
  <path
     style="fill:#ffffff;stroke-width:0.473632"
     d="m 207.19295,187.15403 c -9.87439,-17.09639 -18.00189,-27.24446 -33.38631,-41.68649 -11.14002,-10.45762 -11.05929,-10.3956 -24.6098,-18.90582 -5.9615,-3.74404 -9.28637,-5.50876 -14.00099,-7.43119 -1.05631,-0.43072 -2.73246,-1.52692 -3.72476,-2.43599 -1.57958,-1.44709 -1.7667,-1.84038 -1.50298,-3.15899 0.44673,-2.23362 2.48479,-5.07386 3.64084,-5.07386 1.29349,0 9.55919,4.25671 17.3289,8.92411 6.82326,4.09886 13.88011,9.03083 20.93956,14.63448 6.68544,5.30677 22.28875,21.14788 27.41269,27.83047 5.66745,7.39143 17.7272,25.29436 17.4993,25.97805 -0.20509,0.61528 -4.72911,3.41036 -6.54379,4.04295 -1.16413,0.40583 -1.33797,0.25106 -3.05266,-2.71772 z"
     id="path2861"
     transform="scale(0.74999998)" />
  <path
     style="fill:#ffffff;stroke-width:0.473632"
     d="m 255.07186,164.23184 c -0.10229,-0.32562 -0.44486,-1.44458 -0.76127,-2.48657 -1.56513,-5.15422 -11.16315,-21.62065 -17.48553,-29.99829 -8.66474,-11.48145 -21.35878,-25.24688 -30.7774,-33.375021 -10.08692,-8.704883 -22.66785,-17.480125 -32.25062,-22.494918 -3.00993,-1.57514 -7.26791,-3.95431 -9.46217,-5.287043 -2.19426,-1.332733 -4.52711,-2.540729 -5.18411,-2.684436 -3.02348,-0.661331 -4.33105,-1.292362 -5.46132,-2.635609 -0.67055,-0.796898 -1.14123,-1.688492 -1.04597,-1.98132 0.25338,-0.77887 3.93751,-1.634558 7.22617,-1.678377 4.092,-0.05452 7.70754,1.004426 14.19006,4.156104 26.62978,12.946886 54.76927,38.46553 73.71633,66.85056 6.51434,9.75927 8.27981,13.35189 8.97844,18.27051 0.51166,3.60228 0.3228,11.47698 -0.31512,13.13937 -0.35957,0.93702 -1.10256,1.04843 -1.36749,0.20504 z"
     id="path2863"
     transform="scale(0.74999998)" />
</svg>
