<?xml version="1.0" standalone="no"?>
<!DOCTYPE svg PUBLIC "-//W3C//DTD SVG 20010904//EN"
 "http://www.w3.org/TR/2001/REC-SVG-20010904/DTD/svg10.dtd">
<svg version="1.0" xmlns="http://www.w3.org/2000/svg"
 width="238.000000pt" height="238.000000pt" viewBox="0 0 238.000000 238.000000"
 preserveAspectRatio="xMidYMid meet">
<metadata>
Created by potrace 1.16, written by Peter Selinger 2001-2019
</metadata>
<g transform="translate(0.000000,238.000000) scale(0.100000,-0.100000)"
fill="#000000" stroke="none">
<path d="M617 1772 l-577 -577 578 -578 577 -577 580 580 580 580 -575 575
c-316 316 -577 575 -580 575 -3 0 -265 -260 -583 -578z m707 109 c224 -118
445 -332 578 -560 22 -37 27 -58 28 -113 0 -39 -4 -68 -10 -68 -5 0 -10 5 -10
10 0 14 -24 66 -54 115 -14 22 -32 54 -42 70 -29 50 -134 176 -213 254 -88 86
-229 189 -309 225 -18 9 -46 25 -62 36 -15 11 -34 20 -42 20 -22 0 -52 26 -44
38 4 7 29 12 56 12 38 0 66 -9 124 -39z m-220 -362 c178 -101 336 -246 442
-404 26 -38 55 -82 65 -97 11 -15 19 -30 19 -32 0 -7 -61 -39 -64 -34 -2 2
-16 26 -31 53 -16 28 -39 64 -52 80 -12 17 -31 41 -40 55 -33 46 -197 206
-242 236 -106 69 -164 104 -176 104 -7 0 -23 8 -36 19 -21 16 -22 22 -11 45 6
14 17 26 24 26 6 0 53 -23 102 -51z m-124 -397 c65 -45 150 -125 183 -172 9
-14 33 -45 51 -70 34 -43 44 -70 29 -70 -5 0 -17 -3 -29 -6 -16 -4 -27 5 -56
48 -76 113 -194 219 -303 269 -27 13 -52 25 -53 26 -2 1 4 15 14 32 l17 30 41
-21 c23 -12 70 -41 106 -66z m-168 -381 c61 -56 72 -85 37 -96 -15 -5 -31 5
-70 44 -28 28 -68 60 -90 71 -39 21 -50 45 -28 67 16 16 80 -21 151 -86z"/>
</g>
</svg>
