<?xml version="1.0" standalone="no"?>
<!DOCTYPE svg PUBLIC "-//W3C//DTD SVG 20010904//EN"
 "http://www.w3.org/TR/2001/REC-SVG-20010904/DTD/svg10.dtd">
<svg version="1.0" xmlns="http://www.w3.org/2000/svg"
 width="300.000000pt" height="300.000000pt" viewBox="0 0 300.000000 300.000000"
 preserveAspectRatio="xMidYMid meet">
<metadata>
Created by potrace 1.16, written by Peter Selinger 2001-2019
</metadata>
<g transform="translate(0.000000,300.000000) scale(0.100000,-0.100000)"
fill="#000000" stroke="none">
<path d="M277 1493 l3 -1228 1220 0 1220 0 3 1228 2 1227 -1225 0 -1225 0 2
-1227z m1384 1102 c46 -25 95 -50 109 -57 14 -7 41 -25 61 -40 20 -15 41 -28
47 -28 5 0 12 -7 16 -15 3 -8 10 -15 17 -15 12 0 100 -68 112 -87 4 -7 15 -13
23 -13 18 0 374 -354 374 -371 0 -7 11 -22 25 -35 14 -13 25 -27 25 -32 0 -5
9 -17 20 -27 11 -10 20 -24 20 -31 0 -7 6 -17 13 -21 16 -11 57 -69 57 -83 0
-5 3 -10 8 -10 7 0 17 -15 46 -77 9 -17 20 -34 26 -38 16 -10 13 -250 -4 -264
-10 -8 -16 -8 -24 2 -12 13 -29 56 -30 71 0 5 -4 12 -9 15 -4 3 -21 31 -36 61
-31 62 -42 81 -75 128 -13 17 -19 32 -15 32 4 0 4 4 -2 8 -12 9 -55 69 -55 77
0 3 -11 16 -25 29 -14 13 -25 27 -25 32 0 5 -32 43 -70 86 -39 42 -70 80 -70
84 0 11 -132 144 -143 144 -5 0 -43 32 -85 70 -42 39 -80 70 -85 70 -5 0 -20
11 -33 25 -13 14 -26 25 -29 25 -3 0 -18 8 -33 18 -54 37 -115 77 -136 88 -41
24 -301 152 -318 158 -21 6 -22 19 -8 47 10 17 22 19 119 19 l109 0 83 -45z
m-413 -559 c123 -61 122 -60 122 -68 0 -5 4 -8 9 -8 13 0 153 -94 170 -114 7
-9 20 -16 29 -16 18 0 412 -393 412 -411 0 -6 16 -31 35 -55 19 -23 35 -47 35
-53 0 -6 5 -11 10 -11 6 0 10 -5 10 -10 0 -10 37 -68 51 -80 3 -3 11 -21 19
-40 7 -19 20 -43 28 -52 18 -22 9 -35 -30 -44 -18 -3 -43 -13 -55 -21 -28 -18
-46 -7 -69 41 -8 17 -25 49 -39 71 -13 22 -27 48 -31 58 -3 9 -10 17 -15 17
-6 0 -12 8 -16 18 -4 9 -28 42 -55 73 -26 31 -48 61 -48 65 0 11 -262 274
-273 274 -5 0 -33 20 -61 45 -29 25 -58 45 -65 45 -6 0 -14 7 -17 15 -4 8 -10
15 -15 15 -4 0 -23 10 -42 23 -19 13 -79 46 -133 73 -55 27 -100 52 -102 57
-2 4 -10 7 -18 7 -26 0 -26 27 1 84 31 66 26 66 153 2z m-298 -586 c41 -22 86
-45 100 -52 14 -7 30 -16 35 -20 47 -36 106 -83 133 -108 18 -16 36 -30 41
-30 11 0 125 -127 206 -230 49 -63 49 -62 63 -90 7 -14 20 -37 28 -53 18 -33
13 -43 -26 -52 -17 -4 -30 -11 -30 -16 0 -5 -13 -9 -30 -9 -16 0 -30 5 -30 10
0 12 -41 73 -52 78 -5 2 -8 9 -8 15 0 11 -78 109 -92 115 -5 2 -8 9 -8 15 0
15 -101 117 -115 117 -6 0 -22 13 -35 30 -14 16 -30 29 -36 30 -6 0 -19 9 -29
20 -10 11 -24 20 -32 20 -7 0 -16 6 -19 14 -3 8 -19 18 -35 21 -16 4 -29 11
-29 16 0 11 -101 59 -125 59 -15 0 -17 6 -12 37 4 20 11 39 16 42 5 4 13 19
16 34 4 15 12 27 19 27 6 0 45 -18 86 -40z m-303 -577 c12 -3 28 -11 34 -19 6
-8 16 -14 22 -14 5 0 29 -16 53 -35 23 -19 45 -35 49 -35 4 0 27 -20 52 -45
24 -25 42 -45 38 -45 -4 0 12 -21 34 -46 46 -53 43 -68 -14 -78 -19 -4 -35
-11 -35 -16 0 -6 -9 -10 -20 -10 -11 0 -20 5 -20 11 0 13 -148 159 -180 178
-54 31 -76 41 -94 41 -16 0 -18 5 -13 37 4 21 11 39 17 41 5 2 10 12 10 21 0
24 11 33 29 25 9 -4 26 -9 38 -11z"/>
</g>
</svg>
