<?xml version="1.0" encoding="UTF-8" standalone="no"?>
<svg
   xmlns:dc="http://purl.org/dc/elements/1.1/"
   xmlns:cc="http://creativecommons.org/ns#"
   xmlns:rdf="http://www.w3.org/1999/02/22-rdf-syntax-ns#"
   xmlns:svg="http://www.w3.org/2000/svg"
   xmlns="http://www.w3.org/2000/svg"
   xmlns:sodipodi="http://sodipodi.sourceforge.net/DTD/sodipodi-0.dtd"
   xmlns:inkscape="http://www.inkscape.org/namespaces/inkscape"
   version="1.0"
   width="300.000000pt"
   height="300.000000pt"
   viewBox="0 0 300.000000 300.000000"
   preserveAspectRatio="xMidYMid meet"
   id="svg2899"
   sodipodi:docname="mytherceria.svg"
   inkscape:version="1.0.1 (3bc2e813f5, 2020-09-07)">
  <defs
     id="defs2903" />
  <sodipodi:namedview
     pagecolor="#ffffff"
     bordercolor="#666666"
     borderopacity="1"
     objecttolerance="10"
     gridtolerance="10"
     guidetolerance="10"
     inkscape:pageopacity="0"
     inkscape:pageshadow="2"
     inkscape:window-width="1600"
     inkscape:window-height="837"
     id="namedview2901"
     showgrid="false"
     inkscape:zoom="6.7"
     inkscape:cx="186.25772"
     inkscape:cy="168.05635"
     inkscape:window-x="-8"
     inkscape:window-y="-8"
     inkscape:window-maximized="1"
     inkscape:current-layer="svg2899" />
  <metadata
     id="metadata2885">
Created by potrace 1.16, written by Peter Selinger 2001-2019
<rdf:RDF>
  <cc:Work
     rdf:about="">
    <dc:format>image/svg+xml</dc:format>
    <dc:type
       rdf:resource="http://purl.org/dc/dcmitype/StillImage" />
  </cc:Work>
</rdf:RDF>
</metadata>
  <g
     transform="translate(0.000000,300.000000) scale(0.100000,-0.100000)"
     fill="#000000"
     stroke="none"
     id="g2897">
    <path
       d="M279 2726 c-2 -2 -4 -555 -3 -1228 l1 -1223 1221 0 1222 0 0 1225 0 1225 -1218 3 c-670 1 -1220 0 -1223 -2z m2206 -423 c-4 -60 -12 -115 -19 -123 -29 -36 -147 -172 -221 -255 -45 -49 -103 -116 -130 -148 l-49 -58 -25 78 c-14 44 -42 105 -61 137 -70 117 -224 227 -358 255 -173 36 -381 -27 -508 -153 -66 -66 -137 -192 -149 -265 -4 -23 -10 -41 -15 -41 -4 0 -25 21 -46 48 -22 26 -76 88 -120 137 -45 50 -118 133 -163 185 -87 102 -85 99 -94 243 l-5 67 985 0 985 0 -7 -107z m-995 -202 l0 -58 -42 -6 c-24 -3 -52 -9 -64 -12 -18 -6 -24 1 -43 45 -12 28 -19 55 -16 60 5 7 58 21 130 33 32 5 35 -1 35 -62z m143 49 c32 -7 61 -18 63 -25 8 -19 -33 -93 -53 -97 -10 -2 -40 1 -68 7 l-50 11 -3 48 c-4 63 2 78 30 72 13 -3 49 -10 81 -16z m-320 -83 c9 -23 17 -47 17 -52 0 -6 -21 -22 -46 -38 -53 -31 -79 -29 -118 12 l-26 27 22 21 c37 33 101 73 118 73 8 0 23 -19 33 -43z m491 6 c31 -21 56 -42 56 -48 0 -14 -36 -48 -68 -65 -20 -10 -29 -8 -63 14 -21 15 -39 32 -39 39 1 20 38 97 48 97 5 0 35 -17 66 -37z m-220 -72 c3 -5 -2 -15 -11 -22 -24 -20 -43 -73 -43 -119 0 -33 -3 -40 -20 -40 -17 0 -20 7 -20 39 0 28 -10 54 -34 89 -19 28 -31 53 -28 56 9 10 150 7 156 -3z m74 -30 c3 -9 -2 -11 -17 -6 -17 5 -21 2 -21 -14 0 -12 -4 -21 -10 -21 -5 0 -10 -7 -10 -16 0 -9 5 -14 11 -12 6 2 11 8 11 13 0 15 19 35 28 30 11 -7 0 -53 -16 -66 -8 -6 -14 -17 -14 -24 0 -13 -29 -29 -37 -21 -2 2 3 11 12 20 9 9 13 20 10 26 -11 17 -23 11 -29 -16 -10 -40 -19 -21 -11 24 11 66 78 127 93 83z m-258 1 c0 -4 -5 -13 -11 -19 -7 -7 -8 -17 -3 -25 5 -7 9 -17 9 -22 0 -5 6 -11 13 -13 6 -3 12 2 12 11 0 9 -4 16 -10 16 -5 0 -10 7 -10 15 0 23 25 18 37 -7 17 -35 34 -91 29 -96 -9 -9 -26 10 -26 29 0 23 -15 25 -24 4 -3 -8 -1 -15 3 -15 5 0 11 -7 15 -15 12 -31 -13 -17 -51 28 -17 21 -24 105 -10 111 19 7 27 7 27 -2z m498 -112 c-4 -80 -10 -106 -34 -155 -18 -37 -41 -66 -60 -77 -31 -18 -32 -18 -85 6 -30 13 -69 27 -87 31 -18 4 -35 12 -36 18 -2 7 -8 27 -14 44 -8 28 -7 37 10 58 45 57 275 194 301 178 6 -3 8 -45 5 -103z m-701 71 c78 -37 168 -98 211 -143 29 -31 32 -38 23 -61 -6 -15 -8 -27 -5 -27 4 0 1 -6 -5 -14 -6 -7 -28 -16 -49 -20 -20 -3 -59 -17 -87 -31 -63 -31 -66 -31 -98 3 -47 49 -70 117 -75 225 -5 113 -7 111 85 68z m133 17 c0 -7 3 -23 6 -35 8 -28 -3 -29 -36 -3 -25 19 -25 19 -5 34 25 19 35 20 35 4z m390 -3 c11 -13 10 -18 -6 -30 -25 -19 -38 -19 -30 1 3 9 6 22 6 30 0 18 14 18 30 -1z m-642 -79 c-3 -20 -6 -22 -26 -15 l-23 9 23 42 c22 42 23 42 26 16 2 -16 2 -39 0 -52z m888 33 c18 -40 18 -42 -1 -55 -30 -22 -35 -17 -35 41 0 30 4 55 8 55 5 0 17 -19 28 -41z m-907 -82 c26 -13 48 -81 43 -129 -3 -27 -5 -28 -63 -28 -68 0 -67 -3 -43 101 16 71 23 77 63 56z m957 -42 c7 -22 13 -57 13 -77 l1 -38 -59 0 c-56 0 -59 1 -64 28 -9 46 13 110 43 121 40 15 54 8 66 -34z m-478 -2 c2 -9 -7 -13 -27 -13 -30 0 -39 9 -24 24 11 10 46 3 51 -11z m21 -57 c12 -14 5 -46 -13 -58 -6 -4 -26 -8 -44 -8 -39 0 -64 38 -42 65 16 19 83 20 99 1z m-369 -140 c-19 -19 -10 -54 31 -131 45 -85 43 -109 -3 -55 -46 53 -79 133 -85 203 l-6 62 37 -34 c24 -24 33 -38 26 -45z m235 -47 c0 -109 -2 -117 -34 -187 -22 -47 -51 -88 -82 -117 -51 -48 -69 -54 -88 -31 -10 12 -5 25 23 68 54 82 55 98 10 184 -45 88 -42 115 21 151 44 25 124 53 140 49 6 -2 10 -49 10 -117z m452 62 c-6 -68 -34 -136 -78 -192 -46 -58 -54 -37 -14 35 37 66 42 94 24 127 -8 16 -5 25 23 53 18 18 37 34 42 35 5 0 6 -25 3 -58z m-200 29 c67 -23 113 -64 113 -98 0 -14 -15 -48 -32 -76 -44 -68 -43 -116 1 -179 36 -49 38 -80 5 -85 -32 -5 -104 72 -144 153 -32 65 -34 78 -38 188 -5 135 -7 133 95 97z m-572 -53 c6 -31 9 -60 6 -63 -11 -10 -94 -44 -99 -40 -7 8 -32 118 -32 144 0 22 3 23 57 20 l57 -3 11 -58z m447 57 c8 -8 -22 -116 -37 -132 -10 -11 -16 -5 -29 34 -25 74 -22 92 17 97 17 2 35 5 38 5 3 1 8 -1 11 -4z m478 -30 c0 -37 -18 -124 -29 -136 -4 -4 -30 4 -60 17 -46 22 -52 28 -47 48 3 12 9 41 12 65 l7 42 58 0 59 0 0 -36z m-541 -135 c16 -20 18 -21 35 -4 20 21 19 22 35 -35 6 -25 21 -66 33 -92 12 -27 18 -51 14 -55 -12 -13 -159 -16 -188 -4 l-27 10 29 62 c16 33 32 79 35 100 8 45 11 47 34 18z m-321 -46 l32 -57 -37 -38 -38 -39 -28 33 c-29 34 -67 100 -67 116 0 10 66 40 90 41 8 0 30 -25 48 -56z m812 2 c0 -14 -71 -125 -80 -125 -11 1 -80 68 -80 79 0 5 14 30 30 55 l31 45 49 -21 c28 -11 50 -26 50 -33z m-744 -111 c-4 -11 -18 -32 -31 -49 -23 -28 -25 -29 -42 -12 -16 16 -15 19 22 57 39 40 64 41 51 4z m601 4 c39 -37 41 -51 11 -72 -21 -15 -23 -14 -55 31 -25 35 -30 49 -22 60 17 20 30 16 66 -19z m-390 -75 l43 -6 0 -58 0 -59 -42 7 c-85 13 -133 29 -136 45 -5 23 57 90 77 83 8 -3 34 -9 58 -12z m217 -19 c16 -20 29 -43 30 -52 1 -18 -59 -39 -126 -44 l-43 -3 -3 56 -3 55 48 11 c26 6 53 11 58 12 6 0 23 -15 39 -35z m-277 -119 c94 -23 203 -17 301 17 39 13 74 23 76 21 2 -3 5 -115 5 -251 1 -136 5 -250 9 -254 4 -4 84 -41 177 -83 94 -43 172 -79 174 -81 2 -2 -281 -4 -630 -3 -465 0 -627 3 -609 11 124 54 337 152 347 160 8 7 12 78 13 250 0 133 3 245 6 249 3 5 17 3 32 -5 15 -7 60 -22 99 -31z"
       id="path2887" />
    <path
       d="M1670 1790 c-15 -29 -3 -59 26 -66 30 -8 54 11 54 40 0 46 -59 64 -80 26z m65 -28 c-8 -9 -35 20 -28 31 4 6 11 3 19 -8 8 -10 12 -21 9 -23z m-27 -11 c3 -8 -1 -12 -9 -9 -7 2 -15 10 -17 17 -3 8 1 12 9 9 7 -2 15 -10 17 -17z"
       id="path2889" />
    <path
       d="M1258 1784 c-16 -34 0 -59 38 -59 22 0 31 6 38 27 19 54 -52 84 -76 32z m67 -22 c-8 -9 -35 20 -28 31 4 6 11 3 19 -8 8 -10 12 -21 9 -23z m-25 -13 c0 -5 -7 -9 -15 -9 -9 0 -15 9 -15 21 0 18 2 19 15 9 8 -7 15 -16 15 -21z"
       id="path2891" />
    <path
       d="M1294 1555 c-16 -24 -16 -27 1 -45 25 -27 51 -25 71 5 16 24 16 27 -1 45 -25 27 -51 25 -71 -5z m64 -21 c-10 -10 -28 6 -28 24 0 15 1 15 17 -1 9 -9 14 -19 11 -23z m-30 -20 c-10 -10 -28 6 -28 24 0 15 1 15 17 -1 9 -9 14 -19 11 -23z"
       id="path2893" />
    <path
       d="M1647 1562 c-22 -24 -21 -35 2 -56 24 -22 49 -18 67 9 12 18 11 24 -2 43 -18 27 -45 28 -67 4z m61 -28 c-10 -10 -28 6 -28 24 0 15 1 15 17 -1 9 -9 14 -19 11 -23z m-30 -13 c3 -8 -1 -12 -9 -9 -7 2 -15 10 -17 17 -3 8 1 12 9 9 7 -2 15 -10 17 -17z"
       id="path2895" />
  </g>
  <path
     style="fill:#ffffff;stroke-width:0.597015"
     d="m 272.95977,162.15842 c -3.06607,-9.4332 -7.85804,-19.54907 -11.73329,-24.76908 -10.42971,-14.04895 -29.08698,-26.22688 -45.40558,-29.63705 -6.85046,-1.43156 -19.72148,-1.33781 -27.48612,0.20022 -25.82136,5.11471 -44.24319,19.4695 -55.51069,43.25542 -2.05287,4.33366 -5.65991,15.45845 -5.65991,17.45625 0,1.10702 -1.79267,-0.62131 -7.2838,-7.02239 C 116.4298,157.6194 108.00725,148.01493 101.1636,140.29851 77.110976,113.17845 74.058576,109.33313 72.516779,104.21013 72.05342,102.67051 71.3995,97.8695 71.063624,93.541228 70.727748,89.212956 70.304106,84.126866 70.122198,82.238806 L 69.791455,78.80597 H 200.91947 332.04749 l -0.37973,5.223881 c -0.78513,10.801216 -1.5598,18.459789 -2.17934,21.545719 -0.71809,3.5768 -2.61043,5.92008 -28.28188,35.02144 -7.24144,8.20896 -15.69263,17.8806 -18.78042,21.49254 -3.08779,3.61194 -5.90432,6.879 -6.25895,7.26013 -0.47067,0.50583 -1.33679,-1.43609 -3.2074,-7.19126 z"
     id="path2905"
     transform="scale(0.75)" />
  <path
     style="fill:#ffffff;stroke-width:0.597015"
     d="m 160.27186,137.93263 c -1.32809,-0.67082 -3.61167,-2.44913 -5.07463,-3.95181 l -2.65992,-2.73214 2.86262,-2.61123 c 3.38725,-3.0898 10.15815,-7.67974 13.20969,-8.95476 2.10446,-0.8793 2.20878,-0.86041 3.61225,0.65397 1.46131,1.57677 4.49455,8.69274 4.49455,10.54418 0,1.16085 -4.31381,4.61923 -7.96877,6.38857 -3.911,1.89328 -5.75487,2.03756 -8.47579,0.66322 z"
     id="path2907"
     transform="scale(0.75)" />
  <path
     style="fill:#ffffff;stroke-width:0.597015"
     d="m 181.93454,129.11379 c -1.05831,-1.16942 -4.22454,-8.38684 -4.85956,-11.07736 -0.35452,-1.50208 -0.17216,-1.75741 1.86303,-2.60852 1.24081,-0.5189 5.71005,-1.64064 9.93165,-2.49275 7.51497,-1.51687 7.69305,-1.52549 8.50747,-0.4117 1.1222,1.5347 1.19709,14.57193 0.0856,14.89531 -0.41045,0.11941 -3.43284,0.63056 -6.71642,1.13588 -3.28358,0.50533 -6.39009,1.08031 -6.90334,1.27775 -0.52452,0.20176 -1.36027,-0.11295 -1.90839,-0.71861 z"
     id="path2909"
     transform="scale(0.75)" />
  <path
     style="fill:#ffffff;stroke-width:0.597015"
     d="m 209.75334,128.25297 -6.06755,-1.19189 -0.42454,-5.66257 c -0.54045,-7.20862 0.0142,-9.39453 2.44477,-9.63532 2.16002,-0.21398 14.60968,2.35594 17.73106,3.66014 1.8536,0.77448 2.23456,1.22903 2.23456,2.66624 0,2.16653 -2.4895,6.96351 -4.94185,9.52237 -2.16919,2.2634 -2.59183,2.28808 -10.97645,0.64103 z"
     id="path2911"
     transform="scale(0.75)" />
  <path
     style="fill:#ffffff;stroke-width:0.597015"
     d="m 232.23881,137.38906 c -1.47762,-0.93101 -3.58869,-2.53838 -4.69129,-3.57195 -2.3923,-2.24252 -2.31586,-2.96649 1.01765,-9.63801 1.52197,-3.04599 2.61646,-4.53319 3.4232,-4.65144 1.23383,-0.18086 12.80403,7.11273 14.79154,9.32425 1.08195,1.20388 1.07813,1.27552 -0.16056,3.0151 -2.27175,3.19038 -8.23963,7.25125 -10.61955,7.22612 -0.59094,-0.006 -2.28338,-0.77307 -3.76099,-1.70407 z"
     id="path2913"
     transform="scale(0.75)" />
  <path
     style="fill:#ffffff;stroke-width:0.597015"
     d="m 199.66405,156.35733 c -0.22352,-0.36167 -0.62718,-2.62619 -0.89701,-5.03227 -0.51728,-4.61258 -1.46757,-6.90758 -5.34302,-12.90365 -3.9256,-6.07367 -4.01763,-5.99907 7.12488,-5.77592 5.22727,0.10468 9.71777,0.40471 9.97889,0.66673 0.50024,0.50197 0.32499,0.81397 -2.34208,4.16955 -2.29987,2.89358 -3.95416,7.94566 -4.39522,13.42264 -0.20454,2.53989 -0.63666,4.9538 -0.96026,5.36425 -0.72721,0.92236 -2.6182,0.97532 -3.16618,0.0887 z"
     id="path2915"
     transform="scale(0.75)" />
  <path
     style="fill:#ffffff;stroke-width:0.597015"
     d="m 187.31053,154.02985 c -3.74377,-3.71739 -4.65071,-6.07438 -4.69779,-12.20879 -0.0345,-4.49253 0.22916,-5.10464 2.19861,-5.10464 1.77311,0 1.79012,0.21608 0.21733,2.7609 -1.16409,1.88354 -1.18235,2.12182 -0.29851,3.89354 0.51781,1.03797 0.94147,2.25468 0.94147,2.70381 0,0.44913 0.69088,1.13139 1.53529,1.51613 1.24295,0.56632 1.6391,0.53546 2.08041,-0.16206 0.88119,-1.39274 0.65952,-2.21667 -1.01381,-3.76827 -0.98251,-0.91103 -1.4398,-1.82059 -1.21277,-2.41222 0.53934,-1.4055 1.94514,-1.15463 3.31931,0.59234 1.98346,2.52156 5.48627,12.93983 4.63636,13.78974 -0.73971,0.73971 -2.14727,-1.19059 -2.62025,-3.59335 -0.61102,-3.10404 -2.51324,-3.74356 -3.65851,-1.22998 -0.65781,1.44374 -0.5707,1.77694 0.85298,3.26295 0.87209,0.91025 1.45987,2.01242 1.30618,2.44925 -0.1819,0.51704 -1.43353,-0.35175 -3.5863,-2.48935 z"
     id="path2917"
     transform="scale(0.75)" />
  <path
     style="fill:#ffffff;stroke-width:0.597015"
     d="m 174.27239,145.52239 c -1.39527,-1.06717 -2.64241,-2.26086 -2.77143,-2.65266 -0.26131,-0.79354 4.43324,-4.14946 5.00492,-3.57778 0.4331,0.4331 1.34192,4.9341 1.37857,6.82745 0.0349,1.80368 -0.61335,1.69653 -3.61206,-0.59701 z"
     id="path2919"
     transform="scale(0.75)" />
  <path
     style="fill:#ffffff;stroke-width:0.597015"
     d="m 212.85126,153.16715 c 1.98944,-2.60829 1.81663,-4.7351 -0.40565,-4.9923 -1.36924,-0.15847 -1.68285,0.1251 -2.31092,2.08956 -1.20216,3.76004 -1.94453,3.85075 -1.50053,0.18335 0.52975,-4.37566 3.36197,-10.1184 6.29871,-12.77157 2.71076,-2.44901 4.41954,-2.72757 5.40751,-0.88153 0.65298,1.2201 0.58907,1.25504 -1.55872,0.85211 -2.49275,-0.46764 -3.23476,0.13905 -3.25013,2.65738 -0.005,0.84417 -0.53038,1.8237 -1.20317,2.24387 -1.40953,0.88026 -1.60238,3.60141 -0.29091,4.10467 1.2529,0.48078 2.46963,-0.68065 2.88411,-2.75301 0.42746,-2.13733 2.60018,-3.57025 3.16837,-2.08956 0.56649,1.47625 -0.77885,5.2284 -2.77549,7.74085 -0.98563,1.24025 -1.79205,2.57941 -1.79205,2.97591 0,1.02351 -1.99287,2.697 -3.21172,2.697 -0.86825,0 -0.78417,-0.31988 0.54059,-2.05673 z"
     id="path2921"
     transform="scale(0.75)" />
  <path
     style="fill:#ffffff;stroke-width:0.597015"
     d="m 224.71354,145.32094 c 0.20002,-0.52124 0.5327,-2.00481 0.7393,-3.29681 0.47929,-2.9973 1.14633,-3.37815 2.94956,-1.6841 1.96896,1.84973 1.82904,2.64182 -0.77979,4.41457 -2.56684,1.7442 -3.42519,1.91131 -2.90907,0.56634 z"
     id="path2923"
     transform="scale(0.75)" />
  <path
     style="fill:#ffffff;stroke-width:0.597015"
     d="m 229.85075,182.06025 c -3.11941,-1.32542 -7.8209,-3.07196 -10.44776,-3.88121 -2.62687,-0.80925 -5.06971,-1.67089 -5.42853,-1.91475 -0.82375,-0.55985 -3.22819,-7.6686 -3.22819,-9.54419 0,-1.95047 1.33018,-4.29558 3.68041,-6.48854 7.75876,-7.23957 30.05418,-20.57295 36.0199,-21.54105 l 1.95787,-0.31772 0.40434,3.50017 c 0.53643,4.64349 -0.61266,19.43663 -1.82771,23.52952 -2.03086,6.84097 -6.64173,14.4031 -10.32021,16.92585 -3.50119,2.40115 -4.59168,2.37411 -10.81012,-0.26808 z m 1.83697,-13.0591 c 2.83982,-2.83983 2.22063,-7.75749 -1.23369,-9.798 -4.08816,-2.41494 -8.96149,0.42196 -8.96149,5.21672 0,5.45263 6.43308,8.34338 10.19518,4.58128 z"
     id="path2925"
     transform="scale(0.75)" />
  <path
     style="fill:#ffffff;stroke-width:0.597015"
     d="m 159.00469,181.78323 c -6.66148,-6.95231 -9.30402,-14.60108 -10.34788,-29.95175 -0.62429,-9.18067 -0.33614,-11.94287 1.30003,-12.46217 1.67784,-0.53252 16.12785,6.65577 24.37152,12.12384 3.80333,2.52278 9.09657,6.74131 11.86727,9.45784 4.72681,4.63437 4.98113,5.01356 4.62906,6.90177 -0.2049,1.09889 -0.54448,3.01476 -0.75462,4.25748 -0.50345,2.97718 -2.22472,4.24017 -7.53095,5.52587 -2.38159,0.57707 -7.33738,2.35247 -11.01287,3.94536 -3.67548,1.59288 -7.41556,2.89614 -8.31129,2.89614 -1.15151,0 -2.38487,-0.78929 -4.21027,-2.69438 z m 16.78946,-12.00483 c 1.39605,-0.53572 2.71331,-3.40688 2.71331,-5.91408 0,-1.61729 -0.46047,-2.6256 -1.81986,-3.98499 -1.61323,-1.61323 -2.10458,-1.78167 -4.32743,-1.48353 -2.96946,0.39829 -4.95065,2.37589 -5.5429,5.53284 -0.48489,2.58468 0.44369,4.86436 2.28236,5.6032 1.58643,0.63749 5.31766,0.77491 6.69452,0.24656 z"
     id="path2927"
     transform="scale(0.75)" />
  <path
     style="fill:#ffffff;stroke-width:0.597015"
     d="m 132.68657,177.91976 c -1.05802,-0.44726 -1.34329,-1.05002 -1.34329,-2.83834 0,-3.69846 3.30242,-16.26112 4.62138,-17.58008 1.08066,-1.08066 1.33247,-1.10501 3.20115,-0.3096 2.87579,1.22411 4.5459,3.26975 5.98842,7.33498 1.47835,4.16622 1.84985,11.68102 0.63781,12.90163 -0.94372,0.95039 -11.11734,1.33186 -13.10547,0.49141 z"
     id="path2929"
     transform="scale(0.75)" />
  <path
     style="fill:#ffffff;stroke-width:0.597015"
     d="m 139.82306,152.67723 c -2.26215,-0.72076 -2.26308,-0.71444 0.93492,-6.40857 l 2.17946,-3.8806 0.49518,2.89411 c 0.52882,3.09065 -0.0834,7.67326 -1.05424,7.8906 -0.32304,0.0723 -1.47293,-0.15068 -2.55532,-0.49554 z"
     id="path2931"
     transform="scale(0.75)" />
  <path
     style="fill:#ffffff;stroke-width:0.597015"
     d="m 133.80346,200.09924 c -1.65413,-6.17651 -3.10626,-14.79908 -2.67958,-15.911 0.28188,-0.73457 1.61936,-0.90466 7.11372,-0.90466 4.03505,0 6.92127,0.25033 7.14981,0.62011 0.42764,0.69194 2.67229,12.73421 2.67229,14.33652 0,1.08183 -4.31703,3.41025 -9.94809,5.36555 l -3.08242,1.07033 z"
     id="path2933"
     transform="scale(0.75)" />
  <path
     style="fill:#ffffff;stroke-width:0.597015"
     d="m 147.95126,226.40042 c -4.15481,-4.59888 -10.04081,-14.31156 -10.04081,-16.56867 0,-1.20216 8.1464,-5.05563 10.6878,-5.05563 1.49094,0 2.22196,0.55368 4.13821,3.13433 1.28005,1.72388 3.34187,4.9747 4.58181,7.22404 l 2.25444,4.08972 -4.75579,4.75579 -4.75579,4.7558 z"
     id="path2935"
     transform="scale(0.75)" />
  <path
     style="fill:#ffffff;stroke-width:0.597015"
     d="m 162.98318,214.49903 c -6.3344,-6.99974 -10.93532,-18.2621 -11.74067,-28.73939 l -0.39479,-5.13607 2.03883,1.68901 c 1.12135,0.92895 2.90431,2.76455 3.96212,4.0791 1.87269,2.32721 1.89855,2.43795 0.98287,4.20867 -1.44915,2.80234 -0.66978,5.70619 4.32136,16.10089 2.47921,5.1633 4.41928,9.84672 4.31127,10.4076 -0.14466,0.75117 -1.06157,0.0637 -3.48099,-2.60981 z"
     id="path2937"
     transform="scale(0.75)" />
  <path
     style="fill:#ffffff;stroke-width:0.597015"
     d="m 147.95126,226.40042 c -4.15481,-4.59888 -10.04081,-14.31156 -10.04081,-16.56867 0,-1.20216 8.1464,-5.05563 10.6878,-5.05563 1.49094,0 2.22196,0.55368 4.13821,3.13433 1.28005,1.72388 3.34187,4.9747 4.58181,7.22404 l 2.25444,4.08972 -4.75579,4.75579 -4.75579,4.7558 z"
     id="path2939"
     transform="scale(0.75)" />
  <path
     style="fill:#ffffff;stroke-width:0.597015"
     d="m 155.34683,233.86222 c -0.72434,-0.77103 -1.31698,-1.60598 -1.31698,-1.85547 0,-0.80508 6.81348,-7.62535 8.47782,-8.48627 2.17655,-1.12587 2.26845,-1.08975 2.26845,0.89151 0,1.95331 -5.68432,10.3845 -7.19774,10.67596 -0.50302,0.0969 -1.50721,-0.45471 -2.23155,-1.22573 z"
     id="path2941"
     transform="scale(0.75)" />
  <path
     style="fill:#ffffff;stroke-width:0.597015"
     d="m 163.80549,240.98236 c -1.54537,-1.32928 -1.59071,-1.51076 -0.83389,-3.3379 0.44019,-1.0627 1.83257,-3.52924 3.09417,-5.48119 3.30203,-5.10888 5.19411,-9.04336 5.61516,-11.67644 0.42722,-2.67173 -0.57531,-5.80154 -4.79724,-14.97654 -5.30472,-11.52809 -4.50182,-14.14109 5.95518,-19.38085 4.71209,-2.36112 12.70571,-5.23392 14.56347,-5.23392 1.86849,0 2.12353,1.94544 2.11315,16.11941 -0.009,11.81033 -0.11761,13.14056 -1.36394,16.65023 -1.74812,4.92276 -5.03458,11.436 -7.86569,15.58857 -3.56146,5.22382 -12.32537,13.13433 -14.55128,13.13433 -0.16217,0 -1.03026,-0.63257 -1.92909,-1.4057 z m 16.51494,-40.55359 c 1.44268,-1.14365 3.56017,-4.39546 3.56017,-5.46731 0,-2.55297 -3.73389,-5.70773 -6.75551,-5.70773 -2.61015,0 -6.37882,4.07407 -6.37882,6.89573 0,0.54168 0.91343,1.8983 2.02985,3.01472 1.61776,1.61776 2.49648,2.02599 4.32836,2.01086 1.26418,-0.0104 2.71135,-0.34626 3.21595,-0.74627 z"
     id="path2943"
     transform="scale(0.75)" />
  <path
     style="fill:#ffffff;stroke-width:0.597015"
     d="m 187.89349,249.80676 c -8.22116,-1.70503 -12.3711,-3.42458 -12.3711,-5.12604 0,-1.81672 1.47173,-4.16944 4.28047,-6.84281 3.71034,-3.53152 4.28946,-3.74087 7.97689,-2.8837 1.7507,0.40697 4.81347,0.92916 6.80615,1.16044 l 3.62306,0.4205 v 7.40407 7.40406 l -1.6418,-0.0391 c -0.90298,-0.0215 -4.80613,-0.69534 -8.67367,-1.49745 z"
     id="path2945"
     transform="scale(0.75)" />
  <path
     style="fill:#ffffff;stroke-width:0.597015"
     d="m 191.89798,231.09139 c -2.77079,-0.44587 -5.62932,-1.52447 -5.62932,-2.1241 0,-0.13443 0.97004,-2.3414 2.15565,-4.90436 3.04577,-6.58413 5.4211,-13.17163 5.8993,-16.3605 0.67089,-4.4738 1.1173,-4.73372 3.73686,-2.17578 1.25861,1.229 2.66534,2.23454 3.12606,2.23454 0.46073,0 1.58839,-0.71922 2.50592,-1.59826 0.91752,-0.87905 1.77048,-1.48353 1.89545,-1.34329 0.12498,0.14024 1.09551,3.07183 2.15674,6.51464 1.06123,3.44282 2.84237,8.46492 3.9581,11.16024 2.53472,6.12322 2.60876,7.68746 0.38681,8.17227 -2.89131,0.63086 -17.05842,0.92877 -20.19157,0.4246 z"
     id="path2947"
     transform="scale(0.75)" />
  <path
     style="fill:#ffffff;stroke-width:0.597015"
     d="m 203.37119,246.17858 c -0.21237,-2.51223 -0.38612,-5.67609 -0.38612,-7.0308 v -2.4631 l 6.49296,-1.3912 c 3.57113,-0.76516 7.05024,-1.21432 7.73136,-0.99814 1.47488,0.4681 5.40575,5.04432 7.20788,8.39123 l 1.28585,2.38806 -1.52928,1.33271 c -2.42827,2.11615 -11.44071,4.32763 -17.66833,4.33547 l -2.74821,0.003 z"
     id="path2949"
     transform="scale(0.75)" />
  <path
     style="fill:#ffffff;stroke-width:0.597015"
     d="m 232.89525,241.43272 c -6.58038,-2.76684 -18.12967,-19.34575 -20.38086,-29.25656 -0.80773,-3.55599 -1.85205,-24.10458 -1.35784,-26.71757 0.87026,-4.60125 1.52796,-4.75781 9.19544,-2.18897 9.14532,3.06396 14.86749,6.71098 17.00009,10.83497 1.41956,2.74513 1.0296,4.29439 -3.13751,12.46472 -3.25559,6.38316 -4.04103,8.47664 -4.24661,11.31868 -0.31478,4.3518 0.89552,8.18814 4.18593,13.26834 3.41218,5.26822 4.29565,7.54226 3.55862,9.15987 -0.78125,1.71466 -2.46601,2.10515 -4.81726,1.11652 z m -5.64323,-41.11355 c 0.68697,-0.48118 1.69692,-1.81871 2.24433,-2.97229 0.90538,-1.90795 0.91184,-2.25882 0.0714,-3.88394 -2.53288,-4.89806 -6.22676,-5.60117 -9.93654,-1.89139 -3.0183,3.0183 -3.06415,4.89702 -0.18577,7.61169 2.3832,2.24765 5.55947,2.70983 7.80653,1.13593 z"
     id="path2951"
     transform="scale(0.75)" />
  <path
     style="fill:#ffffff;stroke-width:0.597015"
     d="m 240.08567,231.75736 c -3.94541,-5.32208 -4.62459,-7.08664 -3.29369,-8.55727 1.65751,-1.83153 3.4702,-1.32861 7.07017,1.96156 3.99207,3.64852 5.39448,5.99545 4.53842,7.59502 -0.7052,1.31768 -3.23731,3.06423 -4.44246,3.06423 -0.473,0 -2.2156,-1.8286 -3.87244,-4.06354 z"
     id="path2953"
     transform="scale(0.75)" />
  <path
     style="fill:#ffffff;stroke-width:0.597015"
     d="m 248.97418,224.10084 c -1.99716,-1.84901 -4.19007,-4.14671 -4.87313,-5.10598 l -1.24194,-1.74414 2.84311,-4.70305 c 1.56372,-2.58667 3.41905,-5.42533 4.12296,-6.30812 l 1.27983,-1.60507 5.13087,2.2042 c 2.82198,1.21231 5.69099,2.80042 6.37558,3.52914 l 1.24472,1.32493 -3.12212,5.1853 c -3.96837,6.59077 -6.81846,10.58464 -7.5534,10.58464 -0.31641,0 -2.20932,-1.51283 -4.20648,-3.36185 z"
     id="path2955"
     transform="scale(0.75)" />
  <path
     style="fill:#ffffff;stroke-width:0.597015"
     d="m 235.48054,215.07463 c 0.44039,-1.23135 2.14864,-4.85176 3.79612,-8.04537 3.49288,-6.77089 4.26352,-10.51518 2.85702,-13.88139 -0.51681,-1.2369 -0.93965,-2.77829 -0.93965,-3.42531 0,-1.22211 7.15338,-8.82704 8.30293,-8.82704 0.92593,0 0.82119,5.57941 -0.20549,10.94536 -1.56352,8.17178 -6.27936,17.81418 -11.28212,23.06836 -2.85352,2.99693 -3.55799,3.043 -2.52881,0.16539 z"
     id="path2957"
     transform="scale(0.75)" />
  <path
     style="fill:#ffffff;stroke-width:0.597015"
     d="m 262.68019,204.51626 c -3.86904,-1.42646 -9.39248,-4.44947 -9.72819,-5.32429 -0.18292,-0.47669 0.3127,-4.31824 1.10138,-8.5368 0.78868,-4.21855 1.44185,-7.73726 1.45148,-7.81935 0.01,-0.0821 3.37574,-0.14925 7.48021,-0.14925 h 7.46269 v 3.20538 c 0,3.84929 -1.46515,12.71638 -2.7504,16.64536 -1.01004,3.0877 -1.49308,3.27823 -5.01717,1.97895 z"
     id="path2959"
     transform="scale(0.75)" />
  <path
     style="fill:#ffffff;stroke-width:0.597015"
     d="m 256.85699,177.88863 c -1.93344,-0.77675 -2.69734,-3.27327 -2.31347,-7.56077 0.38447,-4.29423 2.3995,-8.87481 4.61264,-10.48549 0.84933,-0.61811 2.59708,-1.26506 3.8839,-1.43766 1.86045,-0.24954 2.5683,-0.0612 3.45586,0.91955 1.54146,1.70329 3.29154,8.36211 3.74727,14.25783 l 0.38072,4.92537 -6.20748,-0.0378 c -3.41411,-0.0208 -6.81586,-0.28226 -7.55944,-0.58099 z"
     id="path2961"
     transform="scale(0.75)" />
  <path
     style="fill:#ffffff;stroke-width:0.597015"
     d="m 258.30846,154.82587 c -0.62556,-0.62556 -0.46476,-12.02758 0.1752,-12.4231 0.74592,-0.46101 4.07889,5.3591 4.58269,8.0024 0.3386,1.77654 0.16182,2.22967 -1.33811,3.42987 -1.77114,1.41724 -2.7188,1.69181 -3.41978,0.99083 z"
     id="path2963"
     transform="scale(0.75)" />
  <path
     style="fill:#ffffff;stroke-width:0.597015"
     d="m 229.07447,181.79166 c -3.54635,-1.45997 -8.24784,-3.19865 -10.44776,-3.86374 -2.19991,-0.66509 -4.29343,-1.41125 -4.65225,-1.65814 -0.85329,-0.5871 -3.22883,-7.7074 -3.22596,-9.66929 0.003,-2.29831 1.8968,-4.95596 5.91079,-8.29643 9.5003,-7.90623 30.29951,-19.7966 34.62917,-19.7966 0.95606,0 1.23302,0.56096 1.55693,3.15339 0.53803,4.30629 -0.67068,19.72089 -1.86071,23.72952 -2.03804,6.86514 -7.0676,15.06227 -10.56456,17.21805 -3.38628,2.08755 -4.48262,2.00863 -11.34565,-0.81676 z m 3.01508,-13.14808 c 1.88138,-2.16528 1.80979,-5.6095 -0.16539,-7.95687 -3.78956,-4.50363 -10.43162,-1.96995 -10.43162,3.97925 0,1.95184 1.90409,4.70928 3.8138,5.52299 2.07541,0.88432 5.31297,0.14673 6.78321,-1.54537 z"
     id="path2965"
     transform="scale(0.75)" />
  <path
     style="fill:#ffffff;stroke-width:0.597015"
     d="m 232.89525,241.43272 c -6.58038,-2.76684 -18.12967,-19.34575 -20.38086,-29.25656 -0.80773,-3.55599 -1.85205,-24.10458 -1.35784,-26.71757 0.87026,-4.60125 1.52796,-4.75781 9.19544,-2.18897 9.14532,3.06396 14.86749,6.71098 17.00009,10.83497 1.41696,2.74009 1.0302,4.2932 -3.07198,12.33624 -5.83035,11.43143 -5.85304,15.87361 -0.12621,24.7155 3.41218,5.26822 4.29565,7.54226 3.55862,9.15987 -0.78125,1.71466 -2.46601,2.10515 -4.81726,1.11652 z m -5.64323,-41.11355 c 0.68697,-0.48118 1.69692,-1.81871 2.24433,-2.97229 0.89872,-1.8939 0.90743,-2.26735 0.0898,-3.84854 -1.26284,-2.44207 -3.74979,-4.24461 -5.85626,-4.24461 -2.16014,0 -6.41642,3.93969 -6.41642,5.93916 0,4.31358 6.39189,7.61048 9.93859,5.12628 z"
     id="path2967"
     transform="scale(0.75)" />
  <path
     style="fill:#ffffff;stroke-width:0.597015"
     d="m 199.77903,199.55224 c -1.52765,-2.9554 -3.44891,-10.14807 -3.2537,-12.18093 0.22949,-2.38981 1.6365,-3.20021 6.609,-3.80665 l 3.43283,-0.41866 v 1.97101 c 0,3.89333 -4.04423,16.07702 -5.33658,16.07702 -0.3316,0 -0.98479,-0.73881 -1.45155,-1.64179 z"
     id="path2969"
     transform="scale(0.75)" />
  <path
     style="fill:#ffffff;stroke-width:0.597015"
     d="m 191.89798,231.09139 c -2.77079,-0.44587 -5.62932,-1.52447 -5.62932,-2.1241 0,-0.13443 0.96397,-2.3414 2.14215,-4.90436 3.05722,-6.65054 5.45179,-13.28626 5.91916,-16.40289 0.6641,-4.42851 1.11564,-4.68673 3.7305,-2.13339 1.25861,1.229 2.59226,2.23454 2.96367,2.23454 0.37141,0 1.51322,-0.70507 2.53736,-1.56682 1.02413,-0.86175 1.95628,-1.46623 2.07143,-1.34328 0.11515,0.12294 1.07483,3.04443 2.13264,6.49219 1.0578,3.44776 2.83284,8.46987 3.94453,11.16024 2.52729,6.11624 2.59992,7.67878 0.37945,8.16327 -2.89131,0.63086 -17.05842,0.92877 -20.19157,0.4246 z"
     id="path2971"
     transform="scale(0.75)" />
  <path
     style="fill:#ffffff;stroke-width:0.597015"
     d="m 196.88068,178.77086 c -3.02908,-1.64382 -3.81118,-5.29233 -1.58004,-7.37095 1.70206,-1.58572 6.67437,-2.16831 9.76024,-1.14358 2.94646,0.97844 3.87959,3.01604 2.69305,5.8806 -1.3445,3.24592 -7.15284,4.65293 -10.87325,2.63393 z"
     id="path2973"
     transform="scale(0.75)" />
  <path
     style="fill:#ffffff;stroke-width:0.597015"
     d="m 197.89428,164.15295 c -0.61471,-0.99462 0.9153,-2.36191 2.643,-2.36191 1.82968,0 4.4222,1.60839 3.91509,2.42891 -0.47144,0.7628 -6.08066,0.70549 -6.55809,-0.067 z"
     id="path2975"
     transform="scale(0.75)" />
  <path
     style="fill:#ffffff;stroke-width:0.597015"
     d="m 159.00469,181.78323 c -6.66148,-6.95231 -9.30402,-14.60108 -10.34788,-29.95175 -0.62429,-9.18067 -0.33614,-11.94287 1.30003,-12.46217 1.67784,-0.53252 16.12785,6.65577 24.37152,12.12384 3.80333,2.52278 9.09657,6.74131 11.86727,9.45784 4.72681,4.63437 4.98113,5.01356 4.62906,6.90177 -0.2049,1.09889 -0.54176,2.99449 -0.74858,4.21245 -0.52065,3.06599 -1.75452,3.95996 -7.80641,5.65593 -2.89013,0.80993 -7.99343,2.66147 -11.34068,4.11453 -3.34725,1.45307 -6.81867,2.64194 -7.71428,2.64194 -1.15125,0 -2.38481,-0.78946 -4.21005,-2.69438 z m 16.78946,-12.00483 c 2.78627,-1.0692 3.56373,-6.9321 1.27247,-9.59585 -1.19642,-1.39092 -1.91414,-1.67509 -4.2308,-1.67509 -2.30419,0 -3.03618,0.28627 -4.20418,1.64415 -2.7519,3.19926 -2.50308,8.18635 0.46799,9.38023 1.58643,0.63749 5.31766,0.77491 6.69452,0.24656 z"
     id="path2977"
     transform="scale(0.75)" />
  <path
     style="fill:#ffffff;stroke-width:0.597015"
     d="m 163.56875,240.88133 -1.4155,-1.50674 1.61234,-3.12013 c 0.8868,-1.71607 2.94366,-5.37369 4.57082,-8.12804 4.72054,-7.99064 4.63021,-9.39684 -1.45272,-22.61613 -5.48818,-11.92678 -4.5528,-14.38834 7.66716,-20.177 7.12826,-3.37668 13.33381,-5.08996 14.07751,-3.88663 0.82947,1.34211 1.4211,14.03646 1.01099,21.69228 -0.51005,9.52122 -3.24343,17.15277 -9.35349,26.11479 -3.7587,5.51312 -12.33424,13.13433 -14.77901,13.13433 -0.28743,0 -1.15957,-0.67803 -1.9381,-1.50673 z m 18.17577,-42.18282 c 3.02376,-3.53258 2.68508,-5.7287 -1.28743,-8.34817 -3.15468,-2.08018 -6.81072,-0.79393 -8.82723,3.10556 -1.29742,2.50895 -1.10756,3.45446 1.14626,5.70828 1.63555,1.63555 2.49629,2.02985 4.43109,2.02985 2.07999,0 2.68702,-0.33387 4.53731,-2.49552 z"
     id="path2979"
     transform="scale(0.75)" />
  <path
     style="fill:#ffffff;stroke-width:0.149254"
     d="m 175.43404,198.29612 c -0.50617,-0.22056 -1.28043,-1.0444 -1.66499,-1.77163 -0.3182,-0.60174 -0.38162,-2.80544 -0.0837,-2.90748 0.25226,-0.0864 2.3156,1.92833 2.85433,2.78707 0.64599,1.02973 0.6938,1.41821 0.22037,1.79061 -0.45281,0.35618 -0.69829,0.37496 -1.32604,0.10143 z"
     id="path2981"
     transform="scale(0.75)" />
  <path
     style="fill:#ffffff;stroke-width:0.149254"
     d="m 179.15436,195.44856 c -0.68501,-0.41064 -1.29303,-1.23721 -1.55108,-2.10862 -0.22026,-0.74378 -0.14497,-2.3271 0.11472,-2.41279 0.1054,-0.0348 0.75101,0.49723 1.43468,1.18224 1.7687,1.77215 2.29528,2.9534 1.54944,3.47581 -0.4605,0.32254 -0.83725,0.28928 -1.54776,-0.13664 z"
     id="path2983"
     transform="scale(0.75)" />
  <path
     style="fill:#ffffff;stroke-width:0.149254"
     d="m 170.4995,167.62565 c -0.62783,-0.38285 -0.99539,-1.23335 -1.07168,-2.47975 -0.0699,-1.14144 0.12165,-1.86567 0.49334,-1.86567 0.64318,0 2.60974,1.84023 3.12346,2.92281 0.32681,0.6887 0.16307,1.11146 -0.56415,1.45654 -0.68513,0.32512 -1.41261,0.31266 -1.98097,-0.0339 z"
     id="path2985"
     transform="scale(0.75)" />
  <path
     style="fill:#ffffff;stroke-width:0.149254"
     d="m 175.43682,164.97353 c -1.01928,-0.53506 -2.3263,-2.15571 -2.53217,-3.13977 -0.11657,-0.55724 0.0946,-1.03131 0.51935,-1.16614 0.67697,-0.21486 2.12313,1.25035 2.91698,2.9554 0.40702,0.87421 0.44431,1.15949 0.18539,1.41841 -0.23695,0.23695 -0.54545,0.21772 -1.08955,-0.0679 z"
     id="path2987"
     transform="scale(0.75)" />
  <path
     style="fill:#ffffff;stroke-width:0.149254"
     d="m 222.52637,198.30898 c -0.74619,-0.23519 -2.0434,-1.57125 -2.16742,-2.23234 -0.17052,-0.90898 -0.068,-1.08158 0.63436,-1.06769 0.81405,0.0161 1.71409,0.61298 2.28731,1.51686 0.51978,0.81961 0.58379,1.59222 0.15109,1.8238 -0.15879,0.085 -0.30991,0.14765 -0.33582,0.13927 -0.0259,-0.008 -0.2822,-0.0893 -0.56952,-0.1799 z"
     id="path2989"
     transform="scale(0.75)" />
  <path
     style="fill:#ffffff;stroke-width:0.149254"
     d="m 226.03417,195.58241 c -0.93632,-0.48821 -1.58473,-1.41695 -1.86778,-2.67531 -0.19063,-0.84749 -0.0724,-2.01493 0.20406,-2.01493 0.27372,0 2.20819,1.90813 2.76574,2.72809 0.65813,0.96786 0.75947,1.63075 0.29865,1.95352 -0.43543,0.30499 -0.82767,0.3074 -1.40067,0.009 z"
     id="path2991"
     transform="scale(0.75)" />
  <path
     style="fill:#ffffff;stroke-width:0.149254"
     d="m 226.32074,167.54972 c -0.76626,-0.33963 -1.50002,-1.09149 -1.84277,-1.88825 -0.50232,-1.16767 -0.17987,-1.65784 0.86969,-1.32205 1.24401,0.39801 2.4532,1.83668 2.37137,2.82141 -0.0384,0.46197 -0.0952,0.52644 -0.49117,0.55744 -0.24626,0.0193 -0.65447,-0.0566 -0.90712,-0.16855 z"
     id="path2993"
     transform="scale(0.75)" />
  <path
     style="fill:#ffffff;stroke-width:0.149254"
     d="m 229.82081,164.79281 c -0.99258,-0.62948 -2.10509,-2.08851 -2.2345,-2.93049 -0.0772,-0.50255 0.14893,-1.09452 0.45534,-1.19177 0.45806,-0.14538 1.14638,0.307 1.87702,1.23364 1.21858,1.54545 1.75158,3.00548 1.17758,3.22575 -0.39884,0.15305 -0.5766,0.10606 -1.27544,-0.33713 z"
     id="path2995"
     transform="scale(0.75)" />
  <path
     style="fill:#ffffff;stroke-width:0.149254"
     d="m 211.2856,155.48172 c -0.23651,-0.17437 -0.23367,-0.22559 0.0434,-0.78358 0.16305,-0.32836 0.72886,-1.08825 1.25736,-1.68866 1.08599,-1.23376 1.5818,-2.1604 1.5818,-2.95627 0,-1.48332 -1.82573,-2.57275 -2.75472,-1.64377 -0.53748,0.53748 -0.94559,1.44377 -1.37096,3.04451 -0.39084,1.47078 -0.99336,2.87106 -1.23536,2.87106 -0.48315,0 -0.5954,-2.37776 -0.23162,-4.90622 0.65374,-4.54377 2.62295,-8.57745 5.65634,-11.58632 2.43232,-2.41265 4.6174,-3.1501 5.87027,-1.98118 0.51051,0.4763 0.95788,1.40777 0.90323,1.88058 -0.0384,0.33203 -0.12993,0.40714 -0.54471,0.44689 -0.27421,0.0263 -1.05742,-0.0999 -1.74046,-0.2803 -1.43499,-0.37908 -2.20863,-0.31634 -2.48591,0.20163 -0.097,0.18117 -0.22925,0.9562 -0.29391,1.7223 -0.11916,1.41177 -0.44936,2.37797 -0.87666,2.56524 -1.31056,0.57435 -1.66475,1.00199 -1.75404,2.11776 -0.10982,1.37227 0.49498,2.19477 1.45828,1.98319 0.79228,-0.17401 1.4301,-0.96101 1.61095,-1.98775 0.2783,-1.57992 1.27253,-3.01892 2.49455,-3.61049 0.63138,-0.30564 0.69818,-0.31115 1.04201,-0.0859 0.48851,0.32008 0.57555,0.74889 0.48263,2.37752 -0.13829,2.42361 -1.23571,4.91671 -2.86017,6.49767 -0.89147,0.8676 -1.57869,2.06111 -1.57869,2.74176 0,0.62612 -0.34121,1.1831 -1.19505,1.95077 -1.14936,1.03338 -2.84728,1.57495 -3.47856,1.10952 z"
     id="path2997"
     transform="scale(0.75)" />
  <path
     style="fill:#ffffff;stroke-width:0.149254"
     d="m 224.41692,146.31506 c -0.17833,-0.17833 -0.10165,-0.85158 0.20965,-1.8408 0.40729,-1.29424 0.73543,-2.87804 0.73646,-3.55453 0.001,-0.87197 0.27967,-1.65067 0.68497,-1.91624 0.31667,-0.20748 0.4625,-0.2171 0.97293,-0.0642 0.78819,0.23615 2.55893,1.96319 2.97329,2.89991 0.2788,0.63027 0.28553,0.72467 0.08,1.12212 -0.40532,0.7838 -2.62251,2.53191 -4.01057,3.16208 -0.62479,0.28365 -1.45778,0.38058 -1.64673,0.19163 z"
     id="path2999"
     transform="scale(0.75)" />
  <path
     style="fill:#ffffff;stroke-width:0.149254"
     d="m 200.6607,157.21682 c -0.83173,-0.20267 -1.12372,-0.41843 -1.43418,-1.05976 -0.27811,-0.57449 -0.34398,-1.06144 -0.44712,-3.30514 -0.17444,-3.79485 -0.55343,-5.36818 -2.00007,-8.30303 -0.44509,-0.90299 -1.61876,-2.88433 -2.60815,-4.40299 -2.01148,-3.08751 -3.59596,-6.07631 -3.63444,-6.85565 -0.0238,-0.48141 0.0133,-0.52376 0.61377,-0.70085 2.74348,-0.80914 15.46496,-0.62041 19.04762,0.28259 0.86993,0.21926 1.06244,0.47084 0.92419,1.20777 -0.0795,0.42385 -0.45181,0.91941 -1.62566,2.1639 -2.19813,2.33042 -3.49536,4.77161 -4.51758,8.50141 -0.6616,2.41398 -0.93493,4.39239 -1.08872,7.88033 -0.13612,3.08706 -0.29171,3.709 -1.06548,4.25901 -0.38176,0.27136 -1.62872,0.46289 -2.16418,0.33241 z"
     id="path3001"
     transform="scale(0.75)" />
  <path
     style="fill:#ffffff;stroke-width:0.149254"
     d="m 189.86078,156.85262 c -1.04956,-0.70087 -3.34556,-2.91909 -4.83171,-4.66803 -1.00048,-1.1774 -1.42952,-2.04459 -1.96858,-3.97898 -0.94634,-3.39586 -1.17243,-9.26327 -0.4133,-10.72606 0.23952,-0.46154 0.42604,-0.58715 1.31056,-0.88257 1.163,-0.38843 2.25613,-0.39729 2.49243,-0.0202 0.26134,0.41705 -0.0334,1.2852 -0.75711,2.23014 -1.47406,1.92463 -1.69571,2.81823 -1.00195,4.03941 0.70647,1.24357 1.12897,2.25723 1.22116,2.92988 0.11256,0.8212 0.80569,1.58547 1.67375,1.84555 1.25537,0.37612 1.88767,-0.27573 1.77524,-1.83013 -0.0761,-1.05228 -0.45174,-1.62735 -1.20145,-1.8394 -0.71577,-0.20245 -1.07504,-0.56003 -1.29273,-1.28661 -0.23474,-0.78346 -0.0867,-1.64958 0.36519,-2.13722 0.88937,-0.95965 2.79064,-0.0367 3.97771,1.93096 1.40689,2.33202 3.99191,9.78528 4.24265,12.23262 0.0892,0.87047 0.071,0.95931 -0.22943,1.12009 -0.51601,0.27616 -1.13342,0.0411 -1.80449,-0.68687 -0.84996,-0.9221 -1.19407,-1.78066 -1.34085,-3.34543 -0.13145,-1.40125 -0.16694,-1.51382 -0.6445,-2.04429 -0.37761,-0.41946 -1.11876,-0.44283 -1.6169,-0.051 -0.48428,0.38094 -1.13757,1.60756 -1.24392,2.33561 -0.11195,0.76647 0.16443,1.28169 0.77193,1.43897 0.94808,0.24544 2.21789,2.33413 2.10734,3.46634 -0.0659,0.67536 -0.50048,0.65549 -1.59104,-0.0728 z"
     id="path3003"
     transform="scale(0.75)" />
  <path
     style="fill:#ffffff;stroke-width:0.149254"
     d="m 176.47977,147.33309 c -0.93643,-0.44301 -4.20892,-2.82579 -5.08735,-3.70423 -0.73132,-0.73132 -0.67303,-1.08433 0.32073,-1.94228 1.17096,-1.01094 3.17573,-2.34475 3.99385,-2.65719 0.64122,-0.24489 0.72183,-0.24678 1.06053,-0.0249 0.26519,0.17376 0.38757,0.4164 0.44249,0.87734 0.30094,2.52545 0.43549,3.35507 0.7645,4.71383 0.74726,3.08601 0.43827,3.65186 -1.49475,2.73738 z"
     id="path3005"
     transform="scale(0.75)" />
  <path
     style="fill:#ffffff;stroke-width:0.149254"
     d="m 199.46667,165.11726 c -1.53072,-0.35199 -2.01492,-0.68186 -2.01492,-1.37269 0,-0.61955 0.75683,-1.57046 1.48034,-1.85996 1.38427,-0.55387 3.97599,-0.13719 5.26584,0.84661 1.22379,0.93342 1.08254,1.83264 -0.35493,2.25952 -0.73493,0.21825 -3.61529,0.30152 -4.37633,0.12652 z"
     id="path3007"
     transform="scale(0.75)" />
</svg>
