<?xml version="1.0" standalone="no"?>
<!DOCTYPE svg PUBLIC "-//W3C//DTD SVG 20010904//EN"
 "http://www.w3.org/TR/2001/REC-SVG-20010904/DTD/svg10.dtd">
<svg version="1.0" xmlns="http://www.w3.org/2000/svg"
 width="238.000000pt" height="238.000000pt" viewBox="0 0 238.000000 238.000000"
 preserveAspectRatio="xMidYMid meet">
<metadata>
Created by potrace 1.16, written by Peter Selinger 2001-2019
</metadata>
<g transform="translate(0.000000,238.000000) scale(0.100000,-0.100000)"
fill="#000000" stroke="none">
<path d="M614 1773 l-573 -578 577 -578 577 -577 580 580 580 580 -575 575
c-316 316 -579 575 -584 575 -5 0 -267 -260 -582 -577z m1152 -88 c4 -9 3 -40
-1 -71 -6 -53 -12 -62 -95 -154 -48 -55 -100 -115 -115 -134 -15 -20 -31 -36
-34 -36 -4 0 -15 25 -25 55 -21 68 -98 155 -170 193 -44 23 -62 27 -136 26
-164 -1 -266 -78 -330 -247 l-10 -28 -48 54 c-196 228 -189 217 -195 283 -4
34 -4 64 0 68 3 3 264 6 580 6 503 0 574 -2 579 -15z m-586 -174 c0 -46 -73
-58 -92 -16 -13 30 -9 35 34 45 36 7 58 -3 58 -29z m69 29 c9 0 26 -6 36 -14
19 -14 19 -15 1 -35 -22 -24 -68 -28 -86 -6 -17 21 -4 69 16 61 9 -3 23 -6 33
-6z m-177 -55 c9 -21 8 -27 -13 -44 -29 -25 -38 -25 -67 -5 -29 20 -28 28 11
53 42 27 55 26 69 -4z m289 8 c35 -21 37 -37 5 -58 -23 -15 -27 -15 -51 1 -14
9 -23 22 -20 28 3 6 8 19 11 29 8 21 18 21 55 0z m-138 -39 c3 -4 0 -16 -8
-28 -8 -11 -15 -33 -15 -48 0 -18 -5 -28 -15 -28 -9 0 -15 9 -15 23 0 12 -7
33 -16 45 -8 12 -12 27 -9 32 7 11 68 14 78 4z m40 -46 c-7 -38 -21 -60 -34
-52 -16 10 -9 43 13 64 28 26 29 26 21 -12z m-176 -52 c23 -15 45 -37 48 -47
8 -24 -11 -59 -33 -59 -9 0 -30 -7 -46 -15 -37 -19 -57 -13 -80 25 -19 33 -33
128 -23 155 6 14 12 13 49 -7 24 -13 62 -36 85 -52z m44 57 c14 -17 20 -63 8
-63 -13 0 -34 34 -34 57 -1 27 7 29 26 6z m287 -21 c5 -49 -25 -139 -51 -157
-21 -13 -28 -13 -72 4 -37 14 -53 26 -60 46 -9 25 -6 31 34 65 27 23 39 40 32
44 -14 9 -14 26 -1 26 6 0 10 -7 10 -15 0 -20 13 -19 52 5 41 25 52 22 56 -18z
m-330 16 c-6 -18 -28 -21 -28 -4 0 9 7 16 16 16 9 0 14 -5 12 -12z m-155 -28
c-3 -11 -9 -20 -14 -20 -10 0 -12 24 -2 33 13 13 21 7 16 -13z m527 -1 c0 -24
-23 -21 -28 4 -2 10 3 17 12 17 10 0 16 -9 16 -21z m-520 -89 c0 -39 -1 -40
-36 -40 -35 0 -35 1 -29 33 12 55 23 69 45 57 15 -8 20 -21 20 -50z m549 13
c15 -53 15 -53 -29 -53 -35 0 -40 3 -40 23 0 28 26 67 45 67 8 0 19 -17 24
-37z m-289 18 c0 -6 -4 -13 -10 -16 -5 -3 -10 1 -10 9 0 9 5 16 10 16 6 0 10
-4 10 -9z m15 -50 c0 -8 -8 -19 -17 -25 -14 -8 -22 -7 -35 7 -16 16 -16 19 -3
27 21 14 55 8 55 -9z m-222 -81 c-3 -11 4 -36 16 -55 25 -44 27 -63 4 -44 -23
19 -53 88 -53 123 0 28 1 28 19 12 11 -10 17 -25 14 -36z m141 -27 c-2 -74
-18 -118 -62 -165 -14 -16 -34 -28 -44 -28 -23 0 -22 9 2 40 26 33 25 80 -1
125 l-22 37 22 21 c22 23 78 47 96 43 6 -2 9 -34 9 -73z m190 42 c32 -21 33
-44 4 -95 l-23 -40 23 -42 c35 -68 28 -86 -21 -48 -43 34 -77 115 -77 185 0
34 3 64 6 67 8 9 57 -7 88 -27z m75 -24 c-10 -46 -50 -112 -57 -93 -2 6 4 22
14 36 10 16 14 37 11 54 -3 17 1 33 11 45 23 26 32 8 21 -42z m-456 17 c4 -25
0 -37 -15 -50 -29 -26 -36 -23 -48 22 -13 49 -8 60 29 60 25 0 30 -5 34 -32z
m262 -5 c-4 -21 -9 -40 -11 -42 -7 -8 -21 13 -28 40 -7 30 0 39 27 39 17 0 18
-5 12 -37z m290 -5 c-4 -24 -9 -46 -12 -50 -7 -13 -30 -9 -51 10 -16 14 -18
22 -11 50 9 28 14 32 45 32 l36 0 -7 -42z m-512 -89 c17 -30 17 -33 1 -50 -24
-27 -36 -24 -63 18 -22 35 -23 37 -5 50 28 21 48 15 67 -18z m239 -19 c10 -25
18 -51 18 -57 0 -16 -106 -18 -115 -3 -3 5 1 23 10 39 8 17 15 39 15 51 0 17
5 20 28 18 22 -2 30 -11 44 -48z m227 33 l22 -18 -28 -33 -28 -34 -23 25 c-23
24 -23 26 -7 51 20 31 35 32 64 9z m-69 -78 c19 -20 21 -28 11 -38 -10 -9 -16
-7 -31 13 -37 48 -20 68 20 25z m-360 -6 c-12 -22 -37 -35 -47 -25 -9 8 27 46
44 46 11 0 11 -4 3 -21z m134 -39 c19 -7 26 -17 26 -35 0 -27 -17 -31 -79 -19
-35 7 -39 19 -14 46 18 21 31 22 67 8z m130 -15 c16 -25 16 -26 -11 -36 -42
-16 -77 -8 -81 19 -2 16 3 25 20 31 38 16 55 12 72 -14z m-171 -62 c69 -16 89
-15 199 12 l27 7 3 -148 3 -149 40 -19 c22 -11 65 -30 95 -42 30 -13 56 -28
58 -33 3 -8 -106 -11 -353 -11 -238 0 -356 3 -353 10 2 6 46 30 98 53 l95 42
3 148 c1 81 6 147 10 147 4 0 38 -7 75 -17z"/>
<path d="M1047 1332 c-11 -16 2 -54 16 -49 7 2 14 12 15 22 2 10 0 15 -6 11
-6 -3 -12 2 -14 11 -3 13 -6 15 -11 5z"/>
<path d="M1284 1325 c-9 -23 15 -48 32 -34 10 8 11 15 1 30 -14 23 -26 24 -33
4z"/>
<path d="M1064 1185 c-7 -18 3 -35 22 -35 15 0 17 9 8 34 -8 20 -23 21 -30 1z"/>
<path d="M1267 1186 c-8 -20 20 -43 35 -28 8 8 6 15 -5 26 -19 20 -23 20 -30
2z"/>
</g>
</svg>
