<?xml version="1.0" standalone="no"?>
<!DOCTYPE svg PUBLIC "-//W3C//DTD SVG 20010904//EN"
 "http://www.w3.org/TR/2001/REC-SVG-20010904/DTD/svg10.dtd">
<svg version="1.0" xmlns="http://www.w3.org/2000/svg"
 width="300.000000pt" height="300.000000pt" viewBox="0 0 300.000000 300.000000"
 preserveAspectRatio="xMidYMid meet">
<metadata>
Created by potrace 1.16, written by Peter Selinger 2001-2019
</metadata>
<g transform="translate(0.000000,300.000000) scale(0.100000,-0.100000)"
fill="#000000" stroke="none">
<path d="M279 2726 c-2 -2 -4 -555 -3 -1228 l1 -1223 1221 0 1222 0 0 1225 0
1225 -1218 3 c-670 1 -1220 0 -1223 -2z m2206 -423 c-4 -60 -12 -115 -19 -123
-29 -36 -147 -172 -221 -255 -45 -49 -103 -116 -130 -148 l-49 -58 -25 78
c-14 44 -42 105 -61 137 -70 117 -224 227 -358 255 -173 36 -381 -27 -508
-153 -66 -66 -137 -192 -149 -265 -4 -23 -10 -41 -15 -41 -4 0 -25 21 -46 48
-22 26 -76 88 -120 137 -45 50 -118 133 -163 185 -87 102 -85 99 -94 243 l-5
67 985 0 985 0 -7 -107z m-995 -202 l0 -58 -42 -6 c-24 -3 -52 -9 -64 -12 -18
-6 -24 1 -43 45 -12 28 -19 55 -16 60 5 7 58 21 130 33 32 5 35 -1 35 -62z
m143 49 c32 -7 61 -18 63 -25 8 -19 -33 -93 -53 -97 -10 -2 -40 1 -68 7 l-50
11 -3 48 c-4 63 2 78 30 72 13 -3 49 -10 81 -16z m-320 -83 c9 -23 17 -47 17
-52 0 -6 -21 -22 -46 -38 -53 -31 -79 -29 -118 12 l-26 27 22 21 c37 33 101
73 118 73 8 0 23 -19 33 -43z m491 6 c31 -21 56 -42 56 -48 0 -14 -36 -48 -68
-65 -20 -10 -29 -8 -63 14 -21 15 -39 32 -39 39 1 20 38 97 48 97 5 0 35 -17
66 -37z m-220 -72 c3 -5 -2 -15 -11 -22 -24 -20 -43 -73 -43 -119 0 -33 -3
-40 -20 -40 -17 0 -20 7 -20 39 0 28 -10 54 -34 89 -19 28 -31 53 -28 56 9 10
150 7 156 -3z m74 -30 c3 -9 -2 -11 -17 -6 -17 5 -21 2 -21 -14 0 -12 -4 -21
-10 -21 -5 0 -10 -7 -10 -16 0 -9 5 -14 11 -12 6 2 11 8 11 13 0 15 19 35 28
30 11 -7 0 -53 -16 -66 -8 -6 -14 -17 -14 -24 0 -13 -29 -29 -37 -21 -2 2 3
11 12 20 9 9 13 20 10 26 -11 17 -23 11 -29 -16 -10 -40 -19 -21 -11 24 11 66
78 127 93 83z m-258 1 c0 -4 -5 -13 -11 -19 -7 -7 -8 -17 -3 -25 5 -7 9 -17 9
-22 0 -5 6 -11 13 -13 6 -3 12 2 12 11 0 9 -4 16 -10 16 -5 0 -10 7 -10 15 0
23 25 18 37 -7 17 -35 34 -91 29 -96 -9 -9 -26 10 -26 29 0 23 -15 25 -24 4
-3 -8 -1 -15 3 -15 5 0 11 -7 15 -15 12 -31 -13 -17 -51 28 -17 21 -24 105
-10 111 19 7 27 7 27 -2z m498 -112 c-4 -80 -10 -106 -34 -155 -18 -37 -41
-66 -60 -77 -31 -18 -32 -18 -85 6 -30 13 -69 27 -87 31 -18 4 -35 12 -36 18
-2 7 -8 27 -14 44 -8 28 -7 37 10 58 45 57 275 194 301 178 6 -3 8 -45 5 -103z
m-701 71 c78 -37 168 -98 211 -143 29 -31 32 -38 23 -61 -6 -15 -8 -27 -5 -27
4 0 1 -6 -5 -14 -6 -7 -28 -16 -49 -20 -20 -3 -59 -17 -87 -31 -63 -31 -66
-31 -98 3 -47 49 -70 117 -75 225 -5 113 -7 111 85 68z m133 17 c0 -7 3 -23 6
-35 8 -28 -3 -29 -36 -3 -25 19 -25 19 -5 34 25 19 35 20 35 4z m390 -3 c11
-13 10 -18 -6 -30 -25 -19 -38 -19 -30 1 3 9 6 22 6 30 0 18 14 18 30 -1z
m-642 -79 c-3 -20 -6 -22 -26 -15 l-23 9 23 42 c22 42 23 42 26 16 2 -16 2
-39 0 -52z m888 33 c18 -40 18 -42 -1 -55 -30 -22 -35 -17 -35 41 0 30 4 55 8
55 5 0 17 -19 28 -41z m-907 -82 c26 -13 48 -81 43 -129 -3 -27 -5 -28 -63
-28 -68 0 -67 -3 -43 101 16 71 23 77 63 56z m957 -42 c7 -22 13 -57 13 -77
l1 -38 -59 0 c-56 0 -59 1 -64 28 -9 46 13 110 43 121 40 15 54 8 66 -34z
m-478 -2 c2 -9 -7 -13 -27 -13 -30 0 -39 9 -24 24 11 10 46 3 51 -11z m21 -57
c12 -14 5 -46 -13 -58 -6 -4 -26 -8 -44 -8 -39 0 -64 38 -42 65 16 19 83 20
99 1z m-369 -140 c-19 -19 -10 -54 31 -131 45 -85 43 -109 -3 -55 -46 53 -79
133 -85 203 l-6 62 37 -34 c24 -24 33 -38 26 -45z m235 -47 c0 -109 -2 -117
-34 -187 -22 -47 -51 -88 -82 -117 -51 -48 -69 -54 -88 -31 -10 12 -5 25 23
68 54 82 55 98 10 184 -45 88 -42 115 21 151 44 25 124 53 140 49 6 -2 10 -49
10 -117z m452 62 c-6 -68 -34 -136 -78 -192 -46 -58 -54 -37 -14 35 37 66 42
94 24 127 -8 16 -5 25 23 53 18 18 37 34 42 35 5 0 6 -25 3 -58z m-200 29 c67
-23 113 -64 113 -98 0 -14 -15 -48 -32 -76 -44 -68 -43 -116 1 -179 36 -49 38
-80 5 -85 -32 -5 -104 72 -144 153 -32 65 -34 78 -38 188 -5 135 -7 133 95 97z
m-572 -53 c6 -31 9 -60 6 -63 -11 -10 -94 -44 -99 -40 -7 8 -32 118 -32 144 0
22 3 23 57 20 l57 -3 11 -58z m447 57 c8 -8 -22 -116 -37 -132 -10 -11 -16 -5
-29 34 -25 74 -22 92 17 97 17 2 35 5 38 5 3 1 8 -1 11 -4z m478 -30 c0 -37
-18 -124 -29 -136 -4 -4 -30 4 -60 17 -46 22 -52 28 -47 48 3 12 9 41 12 65
l7 42 58 0 59 0 0 -36z m-541 -135 c16 -20 18 -21 35 -4 20 21 19 22 35 -35 6
-25 21 -66 33 -92 12 -27 18 -51 14 -55 -12 -13 -159 -16 -188 -4 l-27 10 29
62 c16 33 32 79 35 100 8 45 11 47 34 18z m-321 -46 l32 -57 -37 -38 -38 -39
-28 33 c-29 34 -67 100 -67 116 0 10 66 40 90 41 8 0 30 -25 48 -56z m812 2
c0 -14 -71 -125 -80 -125 -11 1 -80 68 -80 79 0 5 14 30 30 55 l31 45 49 -21
c28 -11 50 -26 50 -33z m-744 -111 c-4 -11 -18 -32 -31 -49 -23 -28 -25 -29
-42 -12 -16 16 -15 19 22 57 39 40 64 41 51 4z m601 4 c39 -37 41 -51 11 -72
-21 -15 -23 -14 -55 31 -25 35 -30 49 -22 60 17 20 30 16 66 -19z m-390 -75
l43 -6 0 -58 0 -59 -42 7 c-85 13 -133 29 -136 45 -5 23 57 90 77 83 8 -3 34
-9 58 -12z m217 -19 c16 -20 29 -43 30 -52 1 -18 -59 -39 -126 -44 l-43 -3 -3
56 -3 55 48 11 c26 6 53 11 58 12 6 0 23 -15 39 -35z m-277 -119 c94 -23 203
-17 301 17 39 13 74 23 76 21 2 -3 5 -115 5 -251 1 -136 5 -250 9 -254 4 -4
84 -41 177 -83 94 -43 172 -79 174 -81 2 -2 -281 -4 -630 -3 -465 0 -627 3
-609 11 124 54 337 152 347 160 8 7 12 78 13 250 0 133 3 245 6 249 3 5 17 3
32 -5 15 -7 60 -22 99 -31z"/>
<path d="M1670 1790 c-15 -29 -3 -59 26 -66 30 -8 54 11 54 40 0 46 -59 64
-80 26z m65 -28 c-8 -9 -35 20 -28 31 4 6 11 3 19 -8 8 -10 12 -21 9 -23z
m-27 -11 c3 -8 -1 -12 -9 -9 -7 2 -15 10 -17 17 -3 8 1 12 9 9 7 -2 15 -10 17
-17z"/>
<path d="M1258 1784 c-16 -34 0 -59 38 -59 22 0 31 6 38 27 19 54 -52 84 -76
32z m67 -22 c-8 -9 -35 20 -28 31 4 6 11 3 19 -8 8 -10 12 -21 9 -23z m-25
-13 c0 -5 -7 -9 -15 -9 -9 0 -15 9 -15 21 0 18 2 19 15 9 8 -7 15 -16 15 -21z"/>
<path d="M1294 1555 c-16 -24 -16 -27 1 -45 25 -27 51 -25 71 5 16 24 16 27
-1 45 -25 27 -51 25 -71 -5z m64 -21 c-10 -10 -28 6 -28 24 0 15 1 15 17 -1 9
-9 14 -19 11 -23z m-30 -20 c-10 -10 -28 6 -28 24 0 15 1 15 17 -1 9 -9 14
-19 11 -23z"/>
<path d="M1647 1562 c-22 -24 -21 -35 2 -56 24 -22 49 -18 67 9 12 18 11 24
-2 43 -18 27 -45 28 -67 4z m61 -28 c-10 -10 -28 6 -28 24 0 15 1 15 17 -1 9
-9 14 -19 11 -23z m-30 -13 c3 -8 -1 -12 -9 -9 -7 2 -15 10 -17 17 -3 8 1 12
9 9 7 -2 15 -10 17 -17z"/>
</g>
</svg>
