<?xml version="1.0" standalone="no"?>
<!DOCTYPE svg PUBLIC "-//W3C//DTD SVG 20010904//EN"
 "http://www.w3.org/TR/2001/REC-SVG-20010904/DTD/svg10.dtd">
<svg version="1.0" xmlns="http://www.w3.org/2000/svg"
 width="238.000000pt" height="235.000000pt" viewBox="0 0 238.000000 235.000000"
 preserveAspectRatio="xMidYMid meet">
<metadata>
Created by potrace 1.16, written by Peter Selinger 2001-2019
</metadata>
<g transform="translate(0.000000,235.000000) scale(0.100000,-0.100000)"
fill="#000000" stroke="none">
<path d="M622 1747 c-314 -314 -572 -577 -572 -582 0 -6 258 -268 573 -583
l572 -572 580 580 580 580 -575 575 c-316 316 -577 575 -580 575 -3 0 -263
-258 -578 -573z m663 129 c101 -6 222 -34 285 -66 56 -28 126 -94 156 -146 50
-85 59 -177 39 -384 -5 -42 -38 -115 -79 -169 -14 -19 -24 -36 -22 -39 4 -3
99 9 184 24 24 5 31 3 28 -7 -3 -8 -21 -67 -41 -133 l-36 -118 -37 5 c-54 6
-157 -10 -201 -33 -55 -28 -75 -80 -73 -195 1 -49 3 -99 4 -110 3 -18 -4 -20
-54 -23 l-57 -3 -7 81 c-6 76 -8 80 -30 80 -23 0 -24 -2 -24 -80 l0 -80 -44 0
-43 0 -7 46 c-3 26 -6 64 -6 85 0 36 -2 39 -27 39 l-28 0 3 -86 4 -85 -48 3
-47 3 2 83 c2 82 2 82 -23 82 -30 0 -35 -14 -38 -105 l-3 -60 -46 -3 -46 -3 1
130 c1 116 -1 132 -20 158 -32 43 -111 81 -199 95 l-77 12 -49 104 c-27 58
-49 106 -49 108 0 2 54 4 121 4 l121 0 -57 63 c-83 91 -105 133 -112 214 -11
133 33 282 107 367 93 105 250 160 430 150 30 -2 96 -6 145 -8z"/>
<path d="M930 1321 c-108 -57 -108 -215 0 -272 103 -55 220 18 220 136 0 87
-66 155 -150 155 -19 0 -51 -8 -70 -19z m137 -65 c23 -20 28 -32 28 -71 0 -39
-5 -51 -28 -71 -53 -45 -131 -27 -157 35 -39 94 79 174 157 107z"/>
<path d="M1374 1310 c-40 -16 -74 -68 -74 -113 0 -47 27 -100 62 -118 32 -17
101 -14 132 7 51 33 71 109 43 164 -27 54 -106 83 -163 60z"/>
<path d="M1147 949 c-38 -54 -65 -99 -62 -99 3 0 31 16 61 35 30 19 59 35 64
35 6 0 27 -11 48 -23 20 -13 47 -29 60 -36 22 -12 23 -11 12 10 -10 18 -108
170 -113 176 -1 1 -33 -43 -70 -98z"/>
</g>
</svg>
