<?xml version="1.0" encoding="UTF-8" standalone="no"?>
<svg
   xmlns:dc="http://purl.org/dc/elements/1.1/"
   xmlns:cc="http://creativecommons.org/ns#"
   xmlns:rdf="http://www.w3.org/1999/02/22-rdf-syntax-ns#"
   xmlns:svg="http://www.w3.org/2000/svg"
   xmlns="http://www.w3.org/2000/svg"
   xmlns:sodipodi="http://sodipodi.sourceforge.net/DTD/sodipodi-0.dtd"
   xmlns:inkscape="http://www.inkscape.org/namespaces/inkscape"
   version="1.0"
   width="288.000000pt"
   height="289.000000pt"
   viewBox="0 0 288.000000 289.000000"
   preserveAspectRatio="xMidYMid meet"
   id="svg3162"
   sodipodi:docname="necromancy.svg"
   inkscape:version="1.0.1 (3bc2e813f5, 2020-09-07)">
  <defs
     id="defs3166" />
  <sodipodi:namedview
     pagecolor="#ffffff"
     bordercolor="#666666"
     borderopacity="1"
     objecttolerance="10"
     gridtolerance="10"
     guidetolerance="10"
     inkscape:pageopacity="0"
     inkscape:pageshadow="2"
     inkscape:window-width="1600"
     inkscape:window-height="837"
     id="namedview3164"
     showgrid="false"
     inkscape:zoom="1.7387543"
     inkscape:cx="192"
     inkscape:cy="192.66667"
     inkscape:window-x="-8"
     inkscape:window-y="-8"
     inkscape:window-maximized="1"
     inkscape:current-layer="svg3162" />
  <metadata
     id="metadata3150">
Created by potrace 1.16, written by Peter Selinger 2001-2019
<rdf:RDF>
  <cc:Work
     rdf:about="">
    <dc:format>image/svg+xml</dc:format>
    <dc:type
       rdf:resource="http://purl.org/dc/dcmitype/StillImage" />
  </cc:Work>
</rdf:RDF>
</metadata>
  <g
     transform="translate(0.000000,289.000000) scale(0.100000,-0.100000)"
     fill="#000000"
     stroke="none"
     id="g3160">
    <path
       d="M240 1450 l0 -1200 1200 0 1200 0 0 1200 0 1200 -1200 0 -1200 0 0 -1200z m1515 1026 c197 -36 320 -93 419 -196 116 -120 165 -269 152 -465 -16 -253 -32 -307 -129 -445 -25 -35 -45 -65 -44 -67 1 -1 74 9 161 23 87 14 160 23 161 22 1 -2 -23 -86 -54 -188 l-57 -184 -109 -2 c-190 -3 -280 -40 -324 -133 -24 -51 -26 -67 -26 -181 0 -69 3 -144 8 -167 l7 -43 -90 0 -90 0 0 110 0 110 -44 0 -45 0 6 -110 6 -110 -72 0 -72 0 7 115 7 115 -40 0 -40 0 -7 -53 c-3 -28 -6 -80 -6 -114 l0 -63 -72 0 -71 0 7 121 7 120 -43 -3 -43 -3 -3 -118 -3 -117 -80 0 c-72 0 -80 2 -75 18 12 41 26 152 26 212 -1 83 -15 146 -44 190 -43 66 -229 139 -353 140 l-43 0 -46 93 c-26 50 -62 125 -80 166 l-34 74 186 -7 187 -8 -82 89 c-145 159 -163 192 -176 334 -14 147 33 346 108 462 97 150 242 239 457 281 59 11 497 -2 585 -18z"
       id="path3152" />
    <path
       d="M1082 1674 c-86 -43 -136 -144 -117 -241 20 -107 111 -182 223 -183 130 0 225 95 225 225 0 173 -173 278 -331 199z m176 -74 c98 -60 94 -201 -8 -252 -47 -24 -90 -22 -130 5 -52 35 -73 70 -73 122 0 107 122 179 211 125z"
       id="path3154" />
    <path
       d="M1722 1649 c-58 -29 -95 -92 -95 -163 0 -144 145 -231 274 -163 61 33 103 111 95 180 -15 134 -151 206 -274 146z"
       id="path3156" />
    <path
       d="M1401 1126 c-55 -80 -101 -148 -101 -151 0 -2 39 20 86 51 47 30 92 58 100 61 7 3 57 -20 109 -51 52 -30 95 -53 95 -51 0 6 -169 268 -179 278 -5 5 -54 -57 -110 -137z"
       id="path3158" />
  </g>
  <path
     style="fill:#ffffff;stroke-width:0.575124"
     d="m 142.66805,324.46189 c -0.5921,-0.37575 -0.57412,-1.17995 0.093,-4.16085 2.6351,-11.77445 3.29778,-31.93281 1.32597,-40.33517 -2.69834,-11.4983 -8.25812,-17.00641 -23.40244,-23.185 -9.57355,-3.90581 -22.226973,-6.58153 -31.197302,-6.59705 l -2.728642,-0.005 -4.954582,-9.89621 C 75.938822,228.56776 65.903733,206.9971 66.187053,206.71377 c 0.185004,-0.185 36.781907,1.16307 45.439317,1.67378 2.13515,0.12596 3.88209,0.10552 3.88209,-0.0454 0,-0.15094 -2.92675,-3.41616 -6.50388,-7.25605 -23.533818,-25.26242 -26.154101,-29.89738 -28.006926,-49.5408 -0.782267,-8.29348 -0.106042,-17.75441 2.019242,-28.25082 7.587905,-37.475373 28.832824,-59.425839 66.424304,-68.630266 8.94234,-2.189566 17.62585,-2.565592 41.40855,-1.793133 30.75589,0.998948 39.95786,1.783187 51.62379,4.399642 20.34921,4.563956 34.0837,11.582842 45.90499,23.459334 12.36863,12.426383 18.6473,25.209023 21.00094,42.755443 0.83473,6.22295 0.36249,25.98519 -0.87667,36.68667 -2.25444,19.4695 -4.29041,24.96192 -15.37109,41.46657 -3.50388,5.21903 -6.20075,9.65908 -5.99306,9.86677 0.37164,0.37164 6.12751,-0.37846 29.87379,-3.89313 6.60028,-0.97691 12.12672,-1.64997 12.28099,-1.4957 0.4146,0.4146 -13.59487,47.65809 -14.35901,48.42223 -0.11977,0.11976 -6.67162,0.47566 -14.55967,0.79087 -16.46712,0.65803 -23.37913,1.79061 -30.03989,4.92225 -7.71112,3.62548 -13.49508,10.82681 -15.75428,19.61492 -1.02214,3.97602 -0.83071,33.90042 0.25801,40.33358 l 0.80299,4.74477 h -11.69143 -11.69144 v -14.6657 -14.66567 h -6.22991 -6.2299 l 0.19271,3.0194 c 0.44871,7.03021 1.33973,23.58624 1.33973,24.89348 v 1.41846 h -9.20199 -9.20199 l 0.0123,-1.58159 c 0.007,-0.86987 0.38944,-7.14592 0.8504,-13.94676 0.46096,-6.80085 0.84365,-12.94749 0.8504,-13.65921 0.0119,-1.25509 -0.15795,-1.29403 -5.64519,-1.29403 h -5.65748 l -0.66972,6.18259 c -0.36834,3.40042 -0.66935,10.25878 -0.66889,15.24079 L 192,324.94527 h -9.38247 -9.38247 l 0.21629,-3.30696 c 0.39266,-6.00362 1.67521,-28.61065 1.62839,-28.70291 -0.14028,-0.27643 -11.3265,0.82712 -11.64854,1.14915 -0.21222,0.21223 -0.58098,7.17801 -0.81944,15.47952 -0.23846,8.3015 -0.45262,15.15834 -0.4759,15.23742 -0.11463,0.38938 -18.83366,0.0628 -19.46781,-0.3396 z m 43.34462,-76.28815 c 6.29806,-3.94981 11.96862,-7.18236 12.60126,-7.18343 1.61674,-0.003 6.0032,2.12328 16.82755,8.156 5.15308,2.87196 9.5334,5.05758 9.73405,4.85694 0.20064,-0.20065 -1.01729,-2.6313 -2.70652,-5.40144 -5.55522,-9.10997 -19.55398,-30.49907 -20.44509,-31.23862 -1.25444,-1.04109 -4.07851,1.89445 -11.0408,11.4766 -4.68736,6.45118 -16.02821,23.06085 -17.61351,25.79653 -1.02282,1.76504 1.93357,0.25386 12.64306,-6.46258 z m -17.32716,-30.87681 c 12.27373,-4.09675 19.82742,-14.93317 19.85524,-28.48405 0.0224,-10.91005 -4.74351,-20.01516 -13.50692,-25.80455 -4.79946,-3.17068 -9.49142,-4.47645 -16.10348,-4.4816 -8.98995,-0.007 -15.92719,2.69954 -21.90681,8.5469 -6.01176,5.87879 -9.04957,13.45046 -8.97049,22.35879 0.10826,12.19746 7.19474,22.54818 18.61406,27.18826 6.61964,2.6898 15.19665,2.95323 22.0184,0.67625 z m 80.42386,-6.23243 c 11.34943,-3.50548 18.89443,-15.70662 17.05738,-27.58375 -2.44655,-15.81775 -18.5977,-25.06684 -33.90804,-19.41773 -9.11597,3.36354 -14.65368,10.97654 -15.36786,21.12703 -1.29577,18.41672 14.72029,31.27911 32.21852,25.87445 z"
     id="path3168"
     transform="scale(0.74999999)" />
  <path
     style="fill:#ffffff;stroke-width:0.575124"
     d="m 153.87079,206.82471 c -5.06582,-1.88665 -10.72436,-6.88806 -12.60618,-11.14224 -0.80289,-1.81507 -1.16701,-3.90752 -1.18574,-6.81398 -0.0231,-3.58096 0.23984,-4.73662 1.7974,-7.90046 5.8486,-11.8802 20.31469,-14.6834 29.32138,-5.68183 7.31666,7.31252 7.47776,18.9929 0.36177,26.23025 -4.47352,4.54982 -12.9195,7.08441 -17.68863,5.30826 z"
     id="path3170"
     transform="scale(0.74999999)" />
</svg>
