<?xml version="1.0" standalone="no"?>
<!DOCTYPE svg PUBLIC "-//W3C//DTD SVG 20010904//EN"
 "http://www.w3.org/TR/2001/REC-SVG-20010904/DTD/svg10.dtd">
<svg version="1.0" xmlns="http://www.w3.org/2000/svg"
 width="288.000000pt" height="289.000000pt" viewBox="0 0 288.000000 289.000000"
 preserveAspectRatio="xMidYMid meet">
<metadata>
Created by potrace 1.16, written by Peter Selinger 2001-2019
</metadata>
<g transform="translate(0.000000,289.000000) scale(0.100000,-0.100000)"
fill="#000000" stroke="none">
<path d="M240 1450 l0 -1200 1200 0 1200 0 0 1200 0 1200 -1200 0 -1200 0 0
-1200z m1515 1026 c197 -36 320 -93 419 -196 116 -120 165 -269 152 -465 -16
-253 -32 -307 -129 -445 -25 -35 -45 -65 -44 -67 1 -1 74 9 161 23 87 14 160
23 161 22 1 -2 -23 -86 -54 -188 l-57 -184 -109 -2 c-190 -3 -280 -40 -324
-133 -24 -51 -26 -67 -26 -181 0 -69 3 -144 8 -167 l7 -43 -90 0 -90 0 0 110
0 110 -44 0 -45 0 6 -110 6 -110 -72 0 -72 0 7 115 7 115 -40 0 -40 0 -7 -53
c-3 -28 -6 -80 -6 -114 l0 -63 -72 0 -71 0 7 121 7 120 -43 -3 -43 -3 -3 -118
-3 -117 -80 0 c-72 0 -80 2 -75 18 12 41 26 152 26 212 -1 83 -15 146 -44 190
-43 66 -229 139 -353 140 l-43 0 -46 93 c-26 50 -62 125 -80 166 l-34 74 186
-7 187 -8 -82 89 c-145 159 -163 192 -176 334 -14 147 33 346 108 462 97 150
242 239 457 281 59 11 497 -2 585 -18z"/>
<path d="M1082 1674 c-86 -43 -136 -144 -117 -241 20 -107 111 -182 223 -183
130 0 225 95 225 225 0 173 -173 278 -331 199z m176 -74 c98 -60 94 -201 -8
-252 -47 -24 -90 -22 -130 5 -52 35 -73 70 -73 122 0 107 122 179 211 125z"/>
<path d="M1722 1649 c-58 -29 -95 -92 -95 -163 0 -144 145 -231 274 -163 61
33 103 111 95 180 -15 134 -151 206 -274 146z"/>
<path d="M1401 1126 c-55 -80 -101 -148 -101 -151 0 -2 39 20 86 51 47 30 92
58 100 61 7 3 57 -20 109 -51 52 -30 95 -53 95 -51 0 6 -169 268 -179 278 -5
5 -54 -57 -110 -137z"/>
</g>
</svg>
