<?xml version="1.0" standalone="no"?>
<!DOCTYPE svg PUBLIC "-//W3C//DTD SVG 20010904//EN"
 "http://www.w3.org/TR/2001/REC-SVG-20010904/DTD/svg10.dtd">
<svg version="1.0" xmlns="http://www.w3.org/2000/svg"
 width="300.000000pt" height="300.000000pt" viewBox="0 0 300.000000 300.000000"
 preserveAspectRatio="xMidYMid meet">
<metadata>
Created by potrace 1.16, written by Peter Selinger 2001-2019
</metadata>
<g transform="translate(0.000000,300.000000) scale(0.100000,-0.100000)"
fill="#000000" stroke="none">
<path d="M284 2721 c-2 -2 -4 -555 -4 -1228 l0 -1223 1223 2 1222 3 0 1224 0
1224 -1218 1 c-670 1 -1221 -1 -1223 -3z m1250 -327 c21 -21 20 -47 -3 -68
-41 -37 -97 14 -66 60 18 28 46 31 69 8z m-240 -71 c11 -15 28 -56 36 -92 14
-60 18 -66 48 -75 l32 -9 2 -213 c1 -118 2 -226 2 -241 l1 -28 -132 -3 c-129
-2 -140 -1 -345 47 -160 37 -235 60 -301 91 -86 41 -90 44 -113 96 -13 30 -24
60 -24 68 0 7 132 76 293 154 160 78 333 162 382 186 50 25 92 45 94 45 2 1
13 -11 25 -26z m910 -202 c159 -77 293 -144 298 -149 4 -4 -2 -34 -15 -66 -22
-57 -23 -58 -111 -103 -74 -37 -128 -54 -300 -94 -198 -46 -219 -49 -349 -49
l-137 0 2 242 3 242 32 9 c29 9 33 15 44 66 6 31 22 73 35 93 l24 37 92 -44
c51 -23 223 -106 382 -184z m-656 -142 l-3 -304 -42 -3 -43 -3 0 311 0 312 29
-7 c18 -4 32 -2 36 5 20 33 25 -31 23 -311z m69 -394 c28 -15 64 -42 78 -62
l28 -35 -38 -37 c-23 -22 -39 -31 -42 -24 -11 28 -49 66 -79 79 -76 32 -159 1
-194 -71 -42 -88 -16 -144 112 -241 51 -38 110 -84 131 -103 95 -85 103 -206
19 -285 -26 -24 -34 -27 -47 -16 -21 17 -19 57 5 87 26 34 27 102 1 134 -10
13 -65 49 -121 79 -162 87 -220 161 -220 279 0 87 69 190 150 225 57 25 157
20 217 -9z m-86 -125 c17 -10 19 -22 19 -140 0 -145 -3 -150 -57 -98 l-33 32
0 101 c0 56 3 105 7 108 10 10 42 8 64 -3z m220 -57 c18 -54 14 -161 -7 -184
-10 -11 -24 -19 -32 -19 -8 0 -30 -13 -49 -30 -38 -34 -55 -37 -77 -15 -18 18
-12 70 10 96 9 10 12 27 8 48 -6 29 -2 38 47 87 29 30 61 54 70 54 11 0 22
-14 30 -37z m-318 -322 c32 -17 34 -27 7 -41 -26 -14 -50 -61 -50 -98 0 -47
39 -93 129 -152 91 -61 110 -86 111 -143 0 -78 -53 -130 -134 -129 -96 2 -158
122 -101 198 13 17 15 18 30 3 12 -12 14 -21 6 -42 -13 -33 -1 -69 31 -91 32
-23 65 -20 93 9 47 46 23 117 -42 130 -73 15 -157 79 -184 139 -21 47 -23 76
-8 129 10 36 65 111 78 105 3 -2 18 -10 34 -17z m98 -72 c18 -9 20 -19 17
-100 -2 -49 -7 -89 -11 -89 -7 0 -50 26 -76 47 -2 1 -3 33 -2 70 3 81 21 100
72 72z m3 -328 c34 -37 -10 -94 -54 -71 -23 12 -28 75 -7 83 25 11 44 7 61
-12z m11 -221 c0 -22 -4 -25 -40 -25 -36 0 -40 3 -43 27 -3 25 -1 26 40 25 39
-2 43 -4 43 -27z"/>
</g>
</svg>
