<?xml version="1.0" standalone="no"?>
<!DOCTYPE svg PUBLIC "-//W3C//DTD SVG 20010904//EN"
 "http://www.w3.org/TR/2001/REC-SVG-20010904/DTD/svg10.dtd">
<svg version="1.0" xmlns="http://www.w3.org/2000/svg"
 width="238.000000pt" height="238.000000pt" viewBox="0 0 238.000000 238.000000"
 preserveAspectRatio="xMidYMid meet">
<metadata>
Created by potrace 1.16, written by Peter Selinger 2001-2019
</metadata>
<g transform="translate(0.000000,238.000000) scale(0.100000,-0.100000)"
fill="#000000" stroke="none">
<path d="M617 1772 l-577 -577 578 -578 577 -577 580 580 580 580 -575 575
c-316 316 -577 575 -580 575 -3 0 -265 -260 -583 -578z m582 64 c16 -20 3 -46
-24 -46 -13 0 -26 7 -29 16 -7 19 10 44 29 44 7 0 18 -6 24 -14z m-166 -44 c9
-10 20 -34 23 -53 3 -19 16 -43 29 -54 21 -19 23 -31 30 -174 5 -123 4 -156
-7 -162 -30 -19 -159 -9 -307 26 -183 42 -266 80 -287 130 -8 19 -14 39 -14
44 0 6 93 56 208 111 114 55 227 111 252 124 56 30 54 29 73 8z m472 -66 c88
-43 202 -98 253 -123 90 -43 93 -46 87 -71 -18 -75 -78 -107 -298 -158 -120
-27 -168 -34 -231 -32 l-80 3 3 160 c2 153 3 161 26 180 12 11 26 35 29 54 6
33 33 75 45 68 3 -1 78 -38 166 -81z m-301 27 c-1 -7 -2 -101 -2 -208 l-2
-195 -24 0 c-13 0 -26 4 -28 10 -1 5 -2 100 0 211 l3 200 27 -3 c15 -2 27 -9
26 -15z m44 -457 c15 -8 38 -26 51 -40 24 -25 24 -26 6 -46 -24 -26 -28 -25
-63 10 -22 22 -40 30 -65 30 -42 0 -92 -37 -101 -76 -14 -53 10 -88 105 -161
95 -71 119 -102 119 -153 0 -56 -43 -117 -70 -100 -13 8 -13 14 -1 42 35 87
28 100 -84 163 -94 53 -120 78 -135 136 -20 74 12 146 85 190 36 23 114 25
153 5z m-59 -85 c16 -10 23 -169 8 -178 -5 -3 -18 4 -29 15 -17 16 -21 34 -21
84 -1 82 9 100 42 79z m161 -97 c0 -51 -1 -53 -50 -88 -44 -32 -51 -34 -65
-20 -18 19 -19 29 -3 57 7 12 11 31 9 43 -1 14 12 34 40 59 40 36 43 37 56 20
7 -11 13 -42 13 -71z m-220 -164 c12 -8 11 -13 -8 -33 -14 -14 -22 -36 -22
-57 0 -35 20 -57 110 -123 39 -28 45 -38 48 -73 2 -32 -2 -44 -23 -64 -56 -52
-145 -15 -145 61 0 20 6 42 14 48 19 16 28 -1 20 -34 -13 -53 54 -86 91 -45
31 34 11 70 -50 92 -28 10 -64 33 -82 53 -28 29 -33 42 -33 84 0 34 6 56 21
75 22 28 35 31 59 16z m67 -52 c10 -14 5 -118 -6 -118 -4 0 -17 9 -29 20 -19
18 -22 37 -13 103 2 12 38 8 48 -5z m3 -232 c0 -18 -21 -35 -36 -29 -17 6 -18
50 -1 56 15 5 37 -11 37 -27z m1 -131 c0 -5 -7 -12 -16 -13 -23 -5 -47 6 -40
19 8 13 56 8 56 -6z"/>
</g>
</svg>
