<?xml version="1.0" encoding="UTF-8" standalone="no"?>
<svg
   xmlns:dc="http://purl.org/dc/elements/1.1/"
   xmlns:cc="http://creativecommons.org/ns#"
   xmlns:rdf="http://www.w3.org/1999/02/22-rdf-syntax-ns#"
   xmlns:svg="http://www.w3.org/2000/svg"
   xmlns="http://www.w3.org/2000/svg"
   xmlns:sodipodi="http://sodipodi.sourceforge.net/DTD/sodipodi-0.dtd"
   xmlns:inkscape="http://www.inkscape.org/namespaces/inkscape"
   version="1.0"
   width="300.000000pt"
   height="300.000000pt"
   viewBox="0 0 300.000000 300.000000"
   preserveAspectRatio="xMidYMid meet"
   id="svg3230"
   sodipodi:docname="obeah.svg"
   inkscape:version="1.0.1 (3bc2e813f5, 2020-09-07)">
  <defs
     id="defs3234" />
  <sodipodi:namedview
     pagecolor="#ffffff"
     bordercolor="#666666"
     borderopacity="1"
     objecttolerance="10"
     gridtolerance="10"
     guidetolerance="10"
     inkscape:pageopacity="0"
     inkscape:pageshadow="2"
     inkscape:window-width="1600"
     inkscape:window-height="837"
     id="namedview3232"
     showgrid="false"
     inkscape:zoom="1.675"
     inkscape:cx="200"
     inkscape:cy="200"
     inkscape:window-x="-8"
     inkscape:window-y="-8"
     inkscape:window-maximized="1"
     inkscape:current-layer="svg3230" />
  <metadata
     id="metadata3224">
Created by potrace 1.16, written by Peter Selinger 2001-2019
<rdf:RDF>
  <cc:Work
     rdf:about="">
    <dc:format>image/svg+xml</dc:format>
    <dc:type
       rdf:resource="http://purl.org/dc/dcmitype/StillImage" />
  </cc:Work>
</rdf:RDF>
</metadata>
  <g
     transform="translate(0.000000,300.000000) scale(0.100000,-0.100000)"
     fill="#000000"
     stroke="none"
     id="g3228">
    <path
       d="M284 2721 c-2 -2 -4 -555 -4 -1228 l0 -1223 1223 2 1222 3 0 1224 0 1224 -1218 1 c-670 1 -1221 -1 -1223 -3z m1250 -327 c21 -21 20 -47 -3 -68 -41 -37 -97 14 -66 60 18 28 46 31 69 8z m-240 -71 c11 -15 28 -56 36 -92 14 -60 18 -66 48 -75 l32 -9 2 -213 c1 -118 2 -226 2 -241 l1 -28 -132 -3 c-129 -2 -140 -1 -345 47 -160 37 -235 60 -301 91 -86 41 -90 44 -113 96 -13 30 -24 60 -24 68 0 7 132 76 293 154 160 78 333 162 382 186 50 25 92 45 94 45 2 1 13 -11 25 -26z m910 -202 c159 -77 293 -144 298 -149 4 -4 -2 -34 -15 -66 -22 -57 -23 -58 -111 -103 -74 -37 -128 -54 -300 -94 -198 -46 -219 -49 -349 -49 l-137 0 2 242 3 242 32 9 c29 9 33 15 44 66 6 31 22 73 35 93 l24 37 92 -44 c51 -23 223 -106 382 -184z m-656 -142 l-3 -304 -42 -3 -43 -3 0 311 0 312 29 -7 c18 -4 32 -2 36 5 20 33 25 -31 23 -311z m69 -394 c28 -15 64 -42 78 -62 l28 -35 -38 -37 c-23 -22 -39 -31 -42 -24 -11 28 -49 66 -79 79 -76 32 -159 1 -194 -71 -42 -88 -16 -144 112 -241 51 -38 110 -84 131 -103 95 -85 103 -206 19 -285 -26 -24 -34 -27 -47 -16 -21 17 -19 57 5 87 26 34 27 102 1 134 -10 13 -65 49 -121 79 -162 87 -220 161 -220 279 0 87 69 190 150 225 57 25 157 20 217 -9z m-86 -125 c17 -10 19 -22 19 -140 0 -145 -3 -150 -57 -98 l-33 32 0 101 c0 56 3 105 7 108 10 10 42 8 64 -3z m220 -57 c18 -54 14 -161 -7 -184 -10 -11 -24 -19 -32 -19 -8 0 -30 -13 -49 -30 -38 -34 -55 -37 -77 -15 -18 18 -12 70 10 96 9 10 12 27 8 48 -6 29 -2 38 47 87 29 30 61 54 70 54 11 0 22 -14 30 -37z m-318 -322 c32 -17 34 -27 7 -41 -26 -14 -50 -61 -50 -98 0 -47 39 -93 129 -152 91 -61 110 -86 111 -143 0 -78 -53 -130 -134 -129 -96 2 -158 122 -101 198 13 17 15 18 30 3 12 -12 14 -21 6 -42 -13 -33 -1 -69 31 -91 32 -23 65 -20 93 9 47 46 23 117 -42 130 -73 15 -157 79 -184 139 -21 47 -23 76 -8 129 10 36 65 111 78 105 3 -2 18 -10 34 -17z m98 -72 c18 -9 20 -19 17 -100 -2 -49 -7 -89 -11 -89 -7 0 -50 26 -76 47 -2 1 -3 33 -2 70 3 81 21 100 72 72z m3 -328 c34 -37 -10 -94 -54 -71 -23 12 -28 75 -7 83 25 11 44 7 61 -12z m11 -221 c0 -22 -4 -25 -40 -25 -36 0 -40 3 -43 27 -3 25 -1 26 40 25 39 -2 43 -4 43 -27z"
       id="path3226" />
  </g>
  <path
     style="fill:#ffffff;stroke-width:0.597015"
     d="m 147.76119,176.73747 c -13.70309,-2.46804 -43.32171,-9.78229 -52.381506,-12.93549 -7.751044,-2.69769 -17.859771,-7.57418 -20.49227,-9.88554 -2.284641,-2.00594 -4.327449,-5.6214 -6.624783,-11.72486 -1.369558,-3.63858 -1.387343,-3.8584 -0.372788,-4.60773 3.05633,-2.25737 22.037656,-11.86438 59.544757,-30.13736 l 41.70436,-20.317836 1.42638,1.340019 c 2.16188,2.030976 4.72939,7.819621 6.66387,15.024147 0.95665,3.56284 2.14831,6.88683 2.64813,7.38665 0.49981,0.49982 2.34382,1.39315 4.0978,1.98517 l 3.18904,1.07642 0.38297,3.47723 c 0.21062,1.91248 0.41212,16.30559 0.44776,31.9847 l 0.0648,28.50746 -17.16418,-0.0488 c -13.76224,-0.0392 -18.34746,-0.26196 -23.13433,-1.12412 z"
     id="path3236"
     transform="scale(0.75)" />
  <path
     style="fill:#ffffff;stroke-width:0.597015"
     d="m 197.4777,90.436786 c -2.9272,-1.631951 -3.66234,-4.747697 -1.91668,-8.123439 1.89569,-3.665859 6.59746,-4.013003 9.21869,-0.680641 3.65753,4.649791 -2.16386,11.668668 -7.30201,8.80408 z"
     id="path3238"
     transform="scale(0.75)" />
  <path
     style="fill:#ffffff;stroke-width:0.597015"
     d="M 195.22388,136.01837 V 94.902624 l 1.64179,0.429327 c 2.78182,0.727442 6.14009,0.52594 6.71412,-0.402857 0.29392,-0.475565 0.72553,-0.673527 0.95914,-0.439915 1.11557,1.115571 1.36266,8.885621 1.39563,43.887771 0.028,29.72526 -0.12352,37.83021 -0.71068,38.0158 -0.41045,0.12973 -2.82836,0.34961 -5.37313,0.48862 l -4.62687,0.25274 z"
     id="path3240"
     transform="scale(0.75)" />
  <path
     style="fill:#ffffff;stroke-width:0.597015"
     d="m 212.53973,153.8806 c 0.001,-13.54478 0.17583,-28.02669 0.38777,-32.18203 l 0.38534,-7.55517 1.74945,-0.34989 c 2.9621,-0.59242 5.63592,-2.13932 6.32967,-3.66194 0.36404,-0.79897 1.2141,-3.67408 1.88903,-6.38914 1.28436,-5.166628 3.69516,-10.867909 6.07886,-14.375833 l 1.40643,-2.069744 10.13925,4.764484 c 15.79242,7.420942 64.19387,30.926033 79.18137,38.452683 l 13.51974,6.78955 -0.55604,2.54225 c -1.19316,5.45514 -3.66257,10.88179 -5.96052,13.09853 -2.76356,2.66589 -15.97653,9.2738 -23.63569,11.8204 -6.28389,2.08933 -30.27794,8.0301 -43.2462,10.70746 -11.52527,2.37946 -19.0081,3.03415 -34.6858,3.03475 l -12.98508,5e-4 0.002,-24.62686 z"
     id="path3242"
     transform="scale(0.75)" />
  <path
     style="fill:#ffffff;stroke-width:0.597015"
     d="m 211.11179,293.80539 c -2.09451,-2.31441 -1.86648,-4.77786 0.91871,-9.92479 2.46949,-4.56354 2.58465,-5.00199 2.58735,-9.85075 0.004,-7.04811 -0.91298,-8.70414 -7.07903,-12.7854 -2.66874,-1.76642 -8.47912,-5.28395 -12.91195,-7.81675 -13.99225,-7.99477 -20.71734,-13.89483 -24.3499,-21.36265 -2.50155,-5.14269 -3.31787,-9.43774 -2.98692,-15.71548 0.43776,-8.3036 3.93415,-15.45619 10.96508,-22.43135 5.80544,-5.75939 12.02969,-8.24658 20.63724,-8.24658 11.72036,0 21.15485,4.30015 27.69304,12.62221 l 2.66334,3.39001 -4.24929,3.93419 c -2.33711,2.1638 -4.55241,3.92438 -4.92288,3.91239 -0.37048,-0.012 -1.43242,-1.21937 -2.35988,-2.68306 -4.68665,-7.39635 -13.87979,-11.09559 -22.19431,-8.93077 -9.00354,2.34422 -15.38372,10.61622 -15.42121,19.99384 -0.0314,7.85466 4.01552,12.80319 21.66798,26.49534 12.82296,9.94615 16.68926,13.57751 19.54884,18.36096 2.16877,3.62786 3.75663,9.08042 3.75663,12.8999 0,5.56906 -3.46229,12.67497 -8.30942,17.05407 -2.72687,2.46355 -4.1572,2.73798 -5.65342,1.08467 z"
     id="path3244"
     transform="scale(0.75)" />
  <path
     style="fill:#ffffff;stroke-width:0.597015"
     d="m 199.34494,236.61847 -4.12106,-3.97854 0.008,-12.58862 c 0.004,-6.92374 0.1642,-13.17035 0.35492,-13.88134 0.45605,-1.70013 2.57087,-2.17126 5.93919,-1.32311 4.64537,1.16972 4.74252,1.54073 4.74252,18.11183 0,14.9431 -0.28429,17.63832 -1.86047,17.63832 -0.51821,0 -2.79667,-1.79034 -5.06325,-3.97854 z"
     id="path3246"
     transform="scale(0.75)" />
  <path
     style="fill:#ffffff;stroke-width:0.597015"
     d="m 212.46268,246.07738 c -2.75161,-2.45856 -2.74178,-6.26031 0.0298,-11.54779 1.77807,-3.39205 1.94357,-4.12561 1.65323,-7.32757 -0.21668,-2.38956 -0.0583,-4.06938 0.48228,-5.11471 1.06703,-2.06342 12.40297,-12.91461 14.0315,-13.43149 3.08933,-0.98051 5.27214,4.10007 5.77164,13.43373 0.37607,7.02729 -0.41657,12.64042 -2.10765,14.92538 -0.60754,0.82089 -2.41992,1.98244 -4.0275,2.58121 -1.60759,0.59877 -4.34987,2.21071 -6.09397,3.58209 -6.40116,5.03321 -7.11359,5.24528 -9.73937,2.89915 z"
     id="path3248"
     transform="scale(0.75)" />
  <path
     style="fill:#ffffff;stroke-width:0.597015"
     d="m 195.16963,329.85451 c -3.7591,-1.20696 -7.89022,-5.01185 -9.91223,-9.12947 -2.82655,-5.75598 -1.93641,-13.65488 1.89734,-16.83661 0.83975,-0.69693 1.1877,-0.59348 2.53485,0.75368 1.53173,1.53172 1.54653,1.62388 0.77626,4.83474 -1.34652,5.6129 -0.24305,8.81672 4.3043,12.4972 6.33396,5.12649 15.97612,-0.0257 15.97612,-8.53661 0,-5.654 -2.7363,-8.46305 -10.707,-10.99167 -6.25321,-1.98377 -11.00887,-4.83475 -16.14182,-9.67693 -6.62423,-6.24895 -9.5566,-13.4389 -8.41293,-20.6278 0.74258,-4.6677 3.96841,-11.19493 7.56405,-15.30528 l 2.69647,-3.08247 4.1424,2.08609 c 2.27833,1.14734 4.14241,2.46793 4.14241,2.93463 0,0.46671 -1.13655,1.61188 -2.52567,2.54482 -3.81785,2.5641 -6.13105,7.4761 -6.13105,13.01908 0,3.92058 0.18001,4.5442 2.18208,7.55952 2.56036,3.85618 5.94813,6.82466 15.72837,13.7817 11.50455,8.18361 13.52638,10.94313 13.50271,18.42947 -0.0215,6.78938 -2.9675,11.75817 -8.60474,14.51273 -3.93506,1.92282 -9.28493,2.42985 -13.01192,1.23318 z"
     id="path3250"
     transform="scale(0.75)" />
  <path
     style="fill:#ffffff;stroke-width:0.597015"
     d="m 200,287.53627 c -5.73547,-3.78094 -5.61165,-3.50891 -5.18879,-11.39938 0.55395,-10.33648 2.28875,-13.23458 6.7951,-11.35171 4.31723,1.80385 4.3698,1.93772 4.31154,10.97899 -0.0585,9.08232 -0.54929,13.90762 -1.44024,14.16069 -0.32836,0.0933 -2.34328,-0.9816 -4.47761,-2.38859 z"
     id="path3252"
     transform="scale(0.75)" />
  <path
     style="fill:#ffffff;stroke-width:0.597015"
     d="m 196.73834,317.63617 c -1.16493,-1.28724 -1.87287,-5.67912 -1.28986,-8.00201 0.46078,-1.83588 3.66702,-3.0793 5.80881,-2.25273 1.74508,0.67346 3.84061,2.90907 4.37206,4.6643 0.50701,1.67456 -1.00056,5.28353 -2.55448,6.11517 -1.95089,1.04408 -5.15705,0.77857 -6.33653,-0.52473 z"
     id="path3254"
     transform="scale(0.75)" />
  <path
     style="fill:#ffffff;stroke-width:0.597015"
     d="m 195.80509,340.26898 c -0.36015,-0.67295 -0.57109,-1.94907 -0.46876,-2.83582 0.17614,-1.52632 0.37568,-1.62201 3.74327,-1.79502 4.74332,-0.2437 6.08405,0.16236 6.54047,1.98085 0.74483,2.96765 -0.4299,3.87355 -5.02306,3.87355 -3.55935,0 -4.22854,-0.17087 -4.79192,-1.22356 z"
     id="path3256"
     transform="scale(0.75)" />
</svg>
