<?xml version="1.0" standalone="no"?>
<!DOCTYPE svg PUBLIC "-//W3C//DTD SVG 20010904//EN"
 "http://www.w3.org/TR/2001/REC-SVG-20010904/DTD/svg10.dtd">
<svg version="1.0" xmlns="http://www.w3.org/2000/svg"
 width="288.000000pt" height="289.000000pt" viewBox="0 0 288.000000 289.000000"
 preserveAspectRatio="xMidYMid meet">
<metadata>
Created by potrace 1.16, written by Peter Selinger 2001-2019
</metadata>
<g transform="translate(0.000000,289.000000) scale(0.100000,-0.100000)"
fill="#000000" stroke="none">
<path d="M240 1450 l0 -1200 61 0 c80 0 120 20 195 96 135 139 180 310 140
535 -16 86 -33 124 -75 167 -17 16 -27 32 -24 36 14 13 165 6 199 -10 50 -24
128 -115 169 -197 30 -60 37 -87 42 -161 6 -80 7 -86 19 -64 26 49 48 192 48
308 0 98 -4 125 -26 187 -34 96 -105 200 -185 272 l-65 59 38 13 c22 7 68 13
104 13 119 0 254 -86 344 -217 41 -60 89 -199 107 -310 7 -42 16 -77 19 -77 4
0 17 30 31 68 22 61 24 82 24 237 0 227 -15 271 -152 457 -68 92 -127 148
-242 226 l-71 50 44 6 c97 15 355 -28 444 -73 199 -101 394 -423 451 -741 l17
-95 24 60 c32 79 32 222 1 340 -23 87 -92 239 -141 310 -17 25 -27 45 -22 45
4 0 33 -7 63 -16 224 -66 341 -229 391 -547 7 -42 16 -77 20 -77 4 0 14 15 22
34 41 98 49 373 15 496 -22 83 -67 171 -131 258 -49 67 -178 196 -242 242 -25
18 -43 37 -40 41 9 15 230 10 312 -6 163 -33 304 -134 416 -297 l56 -82 0 407
0 407 -1200 0 -1200 0 0 -1200z"/>
</g>
</svg>
