<?xml version="1.0" standalone="no"?>
<!DOCTYPE svg PUBLIC "-//W3C//DTD SVG 20010904//EN"
 "http://www.w3.org/TR/2001/REC-SVG-20010904/DTD/svg10.dtd">
<svg version="1.0" xmlns="http://www.w3.org/2000/svg"
 width="238.000000pt" height="238.000000pt" viewBox="0 0 238.000000 238.000000"
 preserveAspectRatio="xMidYMid meet">
<metadata>
Created by potrace 1.16, written by Peter Selinger 2001-2019
</metadata>
<g transform="translate(0.000000,238.000000) scale(0.100000,-0.100000)"
fill="#000000" stroke="none">
<path d="M612 1777 c-314 -314 -572 -577 -572 -582 0 -12 592 -605 604 -605 4
0 6 46 4 103 -4 105 -18 152 -58 195 -24 26 -17 32 37 32 60 0 101 -19 145
-68 54 -60 81 -118 88 -192 l6 -65 19 60 c14 43 20 89 20 166 0 102 -1 107
-38 183 -25 50 -58 96 -94 132 -64 63 -60 69 47 69 53 0 74 -5 112 -28 88 -51
149 -150 188 -302 11 -43 22 -80 24 -82 7 -8 34 91 40 146 7 68 -10 189 -35
253 -42 107 -121 199 -235 275 -53 35 -54 37 -32 46 26 10 150 1 218 -15 93
-23 161 -73 244 -181 89 -117 138 -227 174 -392 l9 -40 16 54 c39 128 5 284
-96 430 -29 43 -29 43 -6 36 162 -45 251 -122 291 -250 5 -16 13 -68 17 -115
7 -80 8 -83 20 -56 19 47 34 181 29 275 -5 100 -28 160 -101 258 -41 55 -120
129 -187 175 -24 17 -23 17 55 17 133 1 261 -39 369 -115 28 -20 -125 140
-344 360 -217 218 -397 396 -400 396 -3 0 -263 -258 -578 -573z"/>
</g>
</svg>
