<?xml version="1.0" standalone="no"?>
<!DOCTYPE svg PUBLIC "-//W3C//DTD SVG 20010904//EN"
 "http://www.w3.org/TR/2001/REC-SVG-20010904/DTD/svg10.dtd">
<svg version="1.0" xmlns="http://www.w3.org/2000/svg"
 width="238.000000pt" height="238.000000pt" viewBox="0 0 238.000000 238.000000"
 preserveAspectRatio="xMidYMid meet">
<metadata>
Created by potrace 1.16, written by Peter Selinger 2001-2019
</metadata>
<g transform="translate(0.000000,238.000000) scale(0.100000,-0.100000)"
fill="#000000" stroke="none">
<path d="M612 1777 c-314 -314 -572 -577 -572 -582 0 -13 1142 -1155 1155
-1155 6 0 269 259 585 575 l575 575 -580 580 c-319 319 -582 580 -585 580 -3
0 -263 -258 -578 -573z m785 -2 c12 -9 32 -33 43 -55 11 -22 25 -40 31 -40 6
0 27 14 46 30 48 42 108 42 157 0 59 -52 60 -66 42 -409 -9 -168 -19 -330 -22
-358 l-5 -53 -111 0 -111 0 7 173 c4 94 9 195 12 223 6 51 6 51 -25 56 -26 4
-31 1 -32 -16 -2 -84 -27 -428 -32 -432 -3 -4 -48 -7 -99 -8 l-93 -1 -7 145
c-12 221 -19 310 -26 310 -27 -1 -32 -24 -37 -195 -3 -99 -8 -199 -11 -222
l-5 -43 -85 0 c-65 0 -84 3 -84 14 0 15 -47 371 -55 424 -5 25 -11 32 -28 32
l-22 0 8 -226 c5 -124 6 -228 3 -231 -2 -3 -41 -7 -85 -10 -65 -5 -81 -3 -81
8 -1 43 -71 600 -79 628 -8 24 -7 47 0 75 30 110 122 148 207 86 23 -16 45
-30 49 -30 3 0 29 24 57 54 77 82 130 86 198 15 37 -39 78 -52 78 -25 0 22 50
77 85 92 34 16 78 11 112 -11z m253 -1081 l0 -125 -207 3 c-232 3 -267 12
-304 72 -38 62 -13 122 65 157 36 16 68 19 244 19 l202 0 0 -126z"/>
</g>
</svg>
