<?xml version="1.0" standalone="no"?>
<!DOCTYPE svg PUBLIC "-//W3C//DTD SVG 20010904//EN"
 "http://www.w3.org/TR/2001/REC-SVG-20010904/DTD/svg10.dtd">
<svg version="1.0" xmlns="http://www.w3.org/2000/svg"
 width="286.000000pt" height="289.000000pt" viewBox="0 0 286.000000 289.000000"
 preserveAspectRatio="xMidYMid meet">
<metadata>
Created by potrace 1.16, written by Peter Selinger 2001-2019
</metadata>
<g transform="translate(0.000000,289.000000) scale(0.100000,-0.100000)"
fill="#000000" stroke="none">
<path d="M240 1450 l0 -1200 1200 0 1200 0 0 1200 0 1200 -1200 0 -1200 0 0
-1200z m1485 881 c47 -21 88 -66 106 -116 17 -45 45 -46 85 -4 56 60 141 76
212 40 47 -24 66 -45 91 -101 27 -59 27 -106 -4 -640 -14 -239 -25 -445 -25
-457 0 -23 -1 -23 -165 -23 -164 0 -165 0 -165 23 0 12 7 156 16 320 9 164 14
300 12 302 -2 2 -22 7 -44 11 l-40 6 -20 -331 c-11 -181 -22 -332 -25 -335 -2
-3 -67 -6 -144 -8 l-140 -3 -16 328 c-9 180 -19 331 -22 334 -3 3 -18 3 -32
-1 -21 -5 -25 -12 -26 -44 0 -20 -6 -170 -12 -332 l-12 -295 -122 -3 -121 -3
-6 28 c-3 15 -24 168 -46 338 -22 171 -42 316 -45 323 -2 6 -19 12 -36 12
l-32 0 7 -192 c3 -106 9 -259 13 -339 l6 -147 -117 -7 c-65 -4 -121 -4 -125 1
-5 5 -29 194 -55 419 -25 226 -53 433 -61 461 -49 168 36 324 178 324 54 0
119 -29 150 -67 30 -38 52 -28 102 42 68 95 133 127 215 105 44 -12 115 -69
125 -100 14 -43 77 -32 89 15 9 37 65 96 111 116 51 23 89 23 140 0z m395
-1592 l0 -190 -282 3 c-319 4 -358 11 -428 74 -49 45 -67 93 -51 144 15 51 45
87 94 112 81 41 121 45 400 47 l267 1 0 -191z"/>
</g>
</svg>
