<?xml version="1.0" encoding="UTF-8" standalone="no"?>
<svg
   xmlns:dc="http://purl.org/dc/elements/1.1/"
   xmlns:cc="http://creativecommons.org/ns#"
   xmlns:rdf="http://www.w3.org/1999/02/22-rdf-syntax-ns#"
   xmlns:svg="http://www.w3.org/2000/svg"
   xmlns="http://www.w3.org/2000/svg"
   xmlns:sodipodi="http://sodipodi.sourceforge.net/DTD/sodipodi-0.dtd"
   xmlns:inkscape="http://www.inkscape.org/namespaces/inkscape"
   version="1.0"
   width="288.000000pt"
   height="289.000000pt"
   viewBox="0 0 288.000000 289.000000"
   preserveAspectRatio="xMidYMid meet"
   id="svg170"
   sodipodi:docname="presence.svg"
   inkscape:version="1.0.1 (3bc2e813f5, 2020-09-07)">
  <defs
     id="defs174" />
  <sodipodi:namedview
     pagecolor="#ffffff"
     bordercolor="#666666"
     borderopacity="1"
     objecttolerance="10"
     gridtolerance="10"
     guidetolerance="10"
     inkscape:pageopacity="0"
     inkscape:pageshadow="2"
     inkscape:window-width="1600"
     inkscape:window-height="837"
     id="namedview172"
     showgrid="false"
     inkscape:zoom="1.7387543"
     inkscape:cx="192"
     inkscape:cy="192.66667"
     inkscape:window-x="-8"
     inkscape:window-y="-8"
     inkscape:window-maximized="1"
     inkscape:current-layer="svg170" />
  <metadata
     id="metadata164">
Created by potrace 1.16, written by Peter Selinger 2001-2019
<rdf:RDF>
  <cc:Work
     rdf:about="">
    <dc:format>image/svg+xml</dc:format>
    <dc:type
       rdf:resource="http://purl.org/dc/dcmitype/StillImage" />
  </cc:Work>
</rdf:RDF>
</metadata>
  <g
     transform="translate(0.000000,289.000000) scale(0.100000,-0.100000)"
     fill="#000000"
     stroke="none"
     id="g168">
    <path
       d="M240 1450 l0 -1200 1200 0 1200 0 0 1200 0 1200 -1200 0 -1200 0 0 -1200z m1265 685 c31 -214 58 -391 59 -392 1 -1 150 108 331 243 181 134 331 244 333 244 3 0 0 -6 -6 -12 -38 -48 -481 -652 -479 -653 1 -2 181 -29 399 -61 219 -32 394 -61 390 -65 -4 -4 -182 -32 -397 -64 -214 -31 -391 -58 -392 -59 -1 -1 99 -139 223 -307 124 -167 235 -317 247 -334 26 -36 49 -52 -367 257 -154 114 -281 207 -282 205 -1 -1 -28 -177 -59 -392 -32 -214 -61 -393 -64 -398 -4 -4 -33 173 -66 392 -39 269 -62 398 -69 394 -10 -7 -555 -408 -623 -461 -18 -13 -33 -23 -33 -20 0 2 110 152 245 333 l244 330 -37 7 c-20 3 -200 30 -399 60 -200 29 -363 55 -363 58 0 3 180 32 399 65 268 39 398 62 393 69 -3 6 -96 133 -207 281 -253 341 -283 383 -265 369 145 -108 638 -472 646 -476 7 -5 30 123 69 393 33 219 62 396 66 392 3 -5 32 -183 64 -398z"
       id="path166" />
  </g>
  <path
     style="fill:#ffffff;stroke-width:0.575124"
     d="m 191.80759,336.44776 c -0.51109,-1.21688 -3.82489,-21.36571 -7.56708,-46.00995 -5.84247,-38.4757 -7.98749,-51.29362 -9.27049,-55.39731 -0.18021,-0.57644 -0.6744,-0.91501 -1.09819,-0.75239 -0.79271,0.30419 -41.29442,30.04865 -69.21036,50.82809 -8.654552,6.44208 -15.84068,11.60774 -15.969174,11.47925 -0.24467,-0.24468 3.60991,-5.51072 40.564694,-55.41861 12.44949,-16.81319 22.62417,-30.78871 22.61041,-31.05672 -0.0328,-0.63829 1.21918,-0.43343 -45.27337,-7.40838 -51.180875,-7.6783 -59.120777,-8.96407 -58.551098,-9.48157 0.51814,-0.47068 21.371481,-3.84006 58.838658,-9.50687 34.41125,-5.2046 44.28458,-7.05096 44.28458,-8.28142 0,-0.46081 -3.97938,-5.89271 -35.41322,-48.33939 C 92.74823,96.038043 89.435873,91.445056 89.785497,91.095432 c 0.163234,-0.163235 15.159773,10.684078 33.325643,24.105148 40.89202,30.21131 50.50152,37.20738 51.10647,37.20738 1.13053,0 3.7082,-14.15575 8.84941,-48.59801 4.23298,-28.357875 8.46642,-53.774129 8.95683,-53.774129 0.51724,0 3.44545,18.119668 9.75893,60.388059 6.10575,40.87765 6.37777,42.5592 6.88477,42.5592 0.55253,0 4.71733,-2.96234 18.99016,-13.50731 61.9052,-45.736463 66.78365,-49.303726 67.05491,-49.032464 0.1222,0.122197 -2.9237,4.473711 -6.76866,9.670034 -28.88885,39.04214 -55.68525,75.85885 -55.68525,76.50831 0,0.28416 0.11638,0.51666 0.25863,0.51666 0.14225,0 6.93591,1.01919 15.09701,2.26486 8.16112,1.24567 26.35525,3.98518 40.43142,6.08778 24.58851,3.67286 47.63042,7.45423 48.06386,7.88767 0.39573,0.39573 -26.13505,4.581 -73.93908,11.664 -16.28745,2.41327 -29.71853,4.49276 -29.84685,4.62108 -0.46398,0.46397 9.7701,14.64728 41.89129,58.0567 21.29618,28.78021 20.76854,28.04897 20.4611,28.35641 -0.28131,0.28131 -0.32373,0.25064 -27.62236,-19.97059 -41.02122,-30.38612 -57.76135,-42.60572 -58.36731,-42.60572 -0.53735,0 -0.33891,-1.20377 -5.21459,31.63184 -3.89942,26.26091 -9.79411,64.19808 -10.81291,69.59005 -0.29667,1.5701 -0.63152,2.24874 -0.85133,1.72537 z"
     id="path176"
     transform="scale(0.74999999)" />
</svg>
