<?xml version="1.0" standalone="no"?>
<!DOCTYPE svg PUBLIC "-//W3C//DTD SVG 20010904//EN"
 "http://www.w3.org/TR/2001/REC-SVG-20010904/DTD/svg10.dtd">
<svg version="1.0" xmlns="http://www.w3.org/2000/svg"
 width="238.000000pt" height="238.000000pt" viewBox="0 0 238.000000 238.000000"
 preserveAspectRatio="xMidYMid meet">
<metadata>
Created by potrace 1.16, written by Peter Selinger 2001-2019
</metadata>
<g transform="translate(0.000000,238.000000) scale(0.100000,-0.100000)"
fill="#000000" stroke="none">
<path d="M610 1775 l-575 -575 580 -580 580 -580 580 581 580 581 -580 574
c-319 316 -582 574 -585 574 -3 0 -264 -259 -580 -575z m625 -104 c26 -177 43
-268 49 -263 6 3 103 74 216 157 113 83 211 155 219 159 12 8 -66 -101 -241
-334 -68 -90 -77 -106 -61 -112 10 -4 133 -23 273 -43 218 -32 294 -45 254
-45 -20 0 -536 -79 -540 -83 -2 -2 70 -103 161 -225 91 -122 162 -222 160
-222 -3 0 -92 64 -197 143 -106 78 -207 152 -224 164 l-30 22 -39 -270 c-22
-148 -42 -269 -45 -269 -3 0 -23 121 -45 270 l-40 270 -223 -165 c-122 -91
-225 -165 -227 -165 -3 0 69 100 160 222 91 122 163 223 161 225 -4 4 -520 83
-540 83 -40 0 36 13 254 45 140 20 263 39 273 43 16 6 7 22 -61 112 -175 233
-253 342 -241 334 8 -4 106 -76 219 -159 113 -83 210 -154 216 -157 6 -5 23
86 49 263 22 148 42 269 45 269 3 0 23 -121 45 -269z"/>
</g>
</svg>
