<?xml version="1.0" standalone="no"?>
<!DOCTYPE svg PUBLIC "-//W3C//DTD SVG 20010904//EN"
 "http://www.w3.org/TR/2001/REC-SVG-20010904/DTD/svg10.dtd">
<svg version="1.0" xmlns="http://www.w3.org/2000/svg"
 width="288.000000pt" height="289.000000pt" viewBox="0 0 288.000000 289.000000"
 preserveAspectRatio="xMidYMid meet">
<metadata>
Created by potrace 1.16, written by Peter Selinger 2001-2019
</metadata>
<g transform="translate(0.000000,289.000000) scale(0.100000,-0.100000)"
fill="#000000" stroke="none">
<path d="M240 1450 l0 -1200 1200 0 1200 0 0 1200 0 1200 -1200 0 -1200 0 0
-1200z m1265 685 c31 -214 58 -391 59 -392 1 -1 150 108 331 243 181 134 331
244 333 244 3 0 0 -6 -6 -12 -38 -48 -481 -652 -479 -653 1 -2 181 -29 399
-61 219 -32 394 -61 390 -65 -4 -4 -182 -32 -397 -64 -214 -31 -391 -58 -392
-59 -1 -1 99 -139 223 -307 124 -167 235 -317 247 -334 26 -36 49 -52 -367
257 -154 114 -281 207 -282 205 -1 -1 -28 -177 -59 -392 -32 -214 -61 -393
-64 -398 -4 -4 -33 173 -66 392 -39 269 -62 398 -69 394 -10 -7 -555 -408
-623 -461 -18 -13 -33 -23 -33 -20 0 2 110 152 245 333 l244 330 -37 7 c-20 3
-200 30 -399 60 -200 29 -363 55 -363 58 0 3 180 32 399 65 268 39 398 62 393
69 -3 6 -96 133 -207 281 -253 341 -283 383 -265 369 145 -108 638 -472 646
-476 7 -5 30 123 69 393 33 219 62 396 66 392 3 -5 32 -183 64 -398z"/>
</g>
</svg>
