<?xml version="1.0" standalone="no"?>
<!DOCTYPE svg PUBLIC "-//W3C//DTD SVG 20010904//EN"
 "http://www.w3.org/TR/2001/REC-SVG-20010904/DTD/svg10.dtd">
<svg version="1.0" xmlns="http://www.w3.org/2000/svg"
 width="238.000000pt" height="238.000000pt" viewBox="0 0 238.000000 238.000000"
 preserveAspectRatio="xMidYMid meet">
<metadata>
Created by potrace 1.16, written by Peter Selinger 2001-2019
</metadata>
<g transform="translate(0.000000,238.000000) scale(0.100000,-0.100000)"
fill="#000000" stroke="none">
<path d="M610 1775 l-575 -575 580 -580 580 -580 580 581 580 581 -580 574
c-319 316 -582 574 -585 574 -3 0 -264 -259 -580 -575z m600 256 c0 -5 9 -159
21 -342 20 -327 23 -348 54 -349 6 0 23 97 39 226 43 348 67 444 112 444 6 0
26 -16 43 -35 39 -44 38 -23 6 -573 -14 -233 -24 -429 -23 -434 2 -6 28 27 58
73 91 142 158 197 209 170 36 -20 33 -45 -20 -166 -28 -65 -66 -175 -85 -244
-40 -146 -100 -280 -138 -307 -15 -11 -43 -31 -62 -46 -50 -38 -95 -44 -189
-26 -44 9 -97 14 -118 11 -106 -14 -202 57 -272 201 -65 135 -99 288 -114 522
-23 346 48 629 195 777 32 32 72 66 89 75 44 24 195 41 195 23z"/>
<path d="M1196 1165 c-3 -9 -6 -29 -6 -45 0 -50 -39 -156 -75 -203 -48 -62
-76 -131 -82 -197 -6 -71 16 -106 89 -145 l55 -29 47 18 c57 22 112 72 122
111 11 45 -11 131 -61 230 -31 63 -49 117 -61 180 -9 50 -17 91 -19 93 -1 2
-5 -4 -9 -13z"/>
</g>
</svg>
