<?xml version="1.0" standalone="no"?>
<!DOCTYPE svg PUBLIC "-//W3C//DTD SVG 20010904//EN"
 "http://www.w3.org/TR/2001/REC-SVG-20010904/DTD/svg10.dtd">
<svg version="1.0" xmlns="http://www.w3.org/2000/svg"
 width="288.000000pt" height="289.000000pt" viewBox="0 0 288.000000 289.000000"
 preserveAspectRatio="xMidYMid meet">
<metadata>
Created by potrace 1.16, written by Peter Selinger 2001-2019
</metadata>
<g transform="translate(0.000000,289.000000) scale(0.100000,-0.100000)"
fill="#000000" stroke="none">
<path d="M240 1450 l0 -1200 1200 0 1200 0 0 1200 0 1200 -1200 0 -1200 0 0
-1200z m1200 1033 c0 -30 52 -908 54 -910 2 -2 16 -5 32 -9 l30 -6 13 119 c16
151 66 512 87 626 27 144 72 187 133 126 64 -63 62 -27 26 -654 -19 -314 -36
-610 -40 -660 l-6 -90 99 151 c79 120 108 156 148 182 62 41 116 42 147 1 l19
-27 -74 -173 c-43 -99 -87 -221 -103 -284 -57 -228 -127 -388 -193 -446 -146
-126 -179 -136 -339 -103 -46 10 -114 16 -165 15 -76 -2 -95 1 -143 23 -218
100 -356 486 -372 1048 -4 119 -1 227 7 300 37 338 168 608 355 733 57 37 115
51 233 54 43 1 52 -2 52 -16z"/>
<path d="M1416 1324 c-3 -9 -6 -34 -6 -56 0 -93 -41 -198 -123 -313 -52 -73
-87 -175 -87 -254 0 -48 5 -65 28 -97 31 -43 134 -104 174 -104 38 0 143 57
177 95 35 41 55 104 46 148 -14 70 -49 166 -87 234 -38 71 -79 206 -93 311 -7
52 -18 66 -29 36z"/>
</g>
</svg>
