<?xml version="1.0" encoding="UTF-8" standalone="no"?>
<svg
   xmlns:dc="http://purl.org/dc/elements/1.1/"
   xmlns:cc="http://creativecommons.org/ns#"
   xmlns:rdf="http://www.w3.org/1999/02/22-rdf-syntax-ns#"
   xmlns:svg="http://www.w3.org/2000/svg"
   xmlns="http://www.w3.org/2000/svg"
   xmlns:sodipodi="http://sodipodi.sourceforge.net/DTD/sodipodi-0.dtd"
   xmlns:inkscape="http://www.inkscape.org/namespaces/inkscape"
   version="1.0"
   width="288.000000pt"
   height="289.000000pt"
   viewBox="0 0 288.000000 289.000000"
   preserveAspectRatio="xMidYMid meet"
   id="svg290"
   sodipodi:docname="quietus.svg"
   inkscape:version="1.0.1 (3bc2e813f5, 2020-09-07)">
  <defs
     id="defs294" />
  <sodipodi:namedview
     pagecolor="#ffffff"
     bordercolor="#666666"
     borderopacity="1"
     objecttolerance="10"
     gridtolerance="10"
     guidetolerance="10"
     inkscape:pageopacity="0"
     inkscape:pageshadow="2"
     inkscape:window-width="1600"
     inkscape:window-height="837"
     id="namedview292"
     showgrid="false"
     inkscape:zoom="1.7387543"
     inkscape:cx="192"
     inkscape:cy="192.66667"
     inkscape:window-x="-8"
     inkscape:window-y="-8"
     inkscape:window-maximized="1"
     inkscape:current-layer="svg290" />
  <metadata
     id="metadata282">
Created by potrace 1.16, written by Peter Selinger 2001-2019
<rdf:RDF>
  <cc:Work
     rdf:about="">
    <dc:format>image/svg+xml</dc:format>
    <dc:type
       rdf:resource="http://purl.org/dc/dcmitype/StillImage" />
  </cc:Work>
</rdf:RDF>
</metadata>
  <g
     transform="translate(0.000000,289.000000) scale(0.100000,-0.100000)"
     fill="#000000"
     stroke="none"
     id="g288">
    <path
       d="M240 1450 l0 -1200 1200 0 1200 0 0 1200 0 1200 -1200 0 -1200 0 0 -1200z m1200 1033 c0 -30 52 -908 54 -910 2 -2 16 -5 32 -9 l30 -6 13 119 c16 151 66 512 87 626 27 144 72 187 133 126 64 -63 62 -27 26 -654 -19 -314 -36 -610 -40 -660 l-6 -90 99 151 c79 120 108 156 148 182 62 41 116 42 147 1 l19 -27 -74 -173 c-43 -99 -87 -221 -103 -284 -57 -228 -127 -388 -193 -446 -146 -126 -179 -136 -339 -103 -46 10 -114 16 -165 15 -76 -2 -95 1 -143 23 -218 100 -356 486 -372 1048 -4 119 -1 227 7 300 37 338 168 608 355 733 57 37 115 51 233 54 43 1 52 -2 52 -16z"
       id="path284" />
    <path
       d="M1416 1324 c-3 -9 -6 -34 -6 -56 0 -93 -41 -198 -123 -313 -52 -73 -87 -175 -87 -254 0 -48 5 -65 28 -97 31 -43 134 -104 174 -104 38 0 143 57 177 95 35 41 55 104 46 148 -14 70 -49 166 -87 234 -38 71 -79 206 -93 311 -7 52 -18 66 -29 36z"
       id="path286" />
  </g>
  <path
     style="fill:#ffffff;stroke-width:0.575124"
     d="m 208.10348,343.52388 c -1.10711,-0.11902 -5.50681,-0.84423 -9.77711,-1.61156 -9.23236,-1.65898 -12.74723,-1.97332 -25.36704,-2.26855 -11.12515,-0.26026 -14.7763,-1.21275 -22.06654,-5.75656 -22.68763,-14.14058 -38.56669,-54.74404 -43.41987,-111.02651 -4.75608,-55.15655 0.39081,-94.46705 16.60378,-126.814929 6.36768,-12.70469 14.54273,-23.663187 23.06974,-30.924546 8.04673,-6.852355 13.97398,-9.807359 22.73726,-11.335546 6.45275,-1.125265 19.80061,-1.73618 20.92762,-0.957831 0.65477,0.452209 1.09571,5.456523 2.14447,24.33787 1.82377,32.834522 5.2735,90.240662 5.70488,94.933622 l 0.35623,3.87546 2.2104,0.5952 c 1.21572,0.32736 3.18618,0.65385 4.37881,0.72554 l 2.16841,0.13033 1.00803,-9.20199 c 2.62394,-23.95299 9.53044,-74.585891 12.0027,-87.994029 2.22139,-12.047594 5.04364,-18.815275 8.90005,-21.34209 1.22771,-0.804427 1.83451,-0.859025 3.6158,-0.325336 2.93468,0.879251 8.34678,5.847257 9.97768,9.158954 1.31361,2.667407 1.34397,3.09493 1.29696,18.259716 -0.0264,8.540597 -0.48616,22.774925 -1.02151,31.631845 -0.53535,8.85691 -2.13134,35.64333 -3.54663,59.52537 -1.4153,23.88204 -2.98137,49.43376 -3.48017,56.7816 -0.49881,7.34784 -0.8222,13.75872 -0.71866,14.2464 0.10353,0.48767 5.36436,-6.92719 11.69073,-16.47748 15.32979,-23.14185 20.27548,-28.32111 29.26517,-30.64725 4.37063,-1.13093 7.54811,-0.41371 10.28284,2.32102 3.95305,3.95305 4.05893,3.13724 -2.35192,18.12127 -10.25239,23.96279 -14.5218,35.55967 -18.29243,49.68727 -5.2496,19.66893 -11.55077,36.62956 -17.29937,46.56405 -3.13047,5.40993 -10.06392,12.5949 -17.40845,18.03993 -5.83849,4.32849 -10.59774,6.6827 -15.2144,7.52594 -3.37433,0.61633 -4.45094,0.64497 -8.37746,0.22282 z m -16.6786,-25.61151 c 3.29529,-0.98753 10.35716,-4.73918 14.72332,-7.82183 6.27405,-4.42969 10.13388,-11.11356 10.9428,-18.94908 0.63784,-6.17837 -3.60212,-19.71589 -10.75795,-34.34843 -6.48162,-13.25387 -10.00501,-24.32438 -12.9046,-40.54626 -1.53939,-8.61223 -2.37503,-10.5643 -3.95946,-9.24934 -0.92797,0.77015 -1.10314,1.82197 -2.0671,12.41252 -1.06311,11.67976 -5.11846,21.78921 -14.37019,35.82297 -5.46734,8.29329 -8.194,13.61361 -10.33347,20.16284 -3.31689,10.15352 -3.8528,21.41184 -1.25793,26.42667 2.5556,4.93894 8.89539,10.26139 17.19044,14.4319 5.72792,2.87982 7.81471,3.15026 12.79414,1.65804 z"
     id="path296"
     transform="scale(0.74999999)" />
</svg>
