<?xml version="1.0" standalone="no"?>
<!DOCTYPE svg PUBLIC "-//W3C//DTD SVG 20010904//EN"
 "http://www.w3.org/TR/2001/REC-SVG-20010904/DTD/svg10.dtd">
<svg version="1.0" xmlns="http://www.w3.org/2000/svg"
 width="288.000000pt" height="289.000000pt" viewBox="0 0 288.000000 289.000000"
 preserveAspectRatio="xMidYMid meet">
<metadata>
Created by potrace 1.16, written by Peter Selinger 2001-2019
</metadata>
<g transform="translate(0.000000,289.000000) scale(0.100000,-0.100000)"
fill="#000000" stroke="none">
<path d="M240 1450 l0 -1200 1200 0 1200 0 0 1200 0 1200 -1200 0 -1200 0 0
-1200z m1380 1125 c237 -39 450 -147 619 -314 137 -137 223 -276 286 -464 45
-137 59 -241 52 -401 -12 -293 -123 -545 -331 -752 -224 -223 -495 -336 -806
-337 -309 0 -582 114 -806 337 -208 207 -319 459 -331 752 -7 156 6 260 49
394 173 541 712 875 1268 785z"/>
<path d="M817 2103 l-297 -298 300 -300 300 -300 0 163 0 163 314 -3 c300 -3
316 -4 342 -24 60 -44 84 -105 70 -179 -9 -48 -68 -112 -114 -125 -21 -5 -139
-10 -264 -10 l-228 0 0 -281 0 -281 308 4 c345 5 366 8 523 89 196 102 339
282 384 484 26 116 17 304 -19 410 -74 219 -247 397 -462 477 -57 21 -76 22
-456 26 l-397 3 -3 140 -3 139 -298 -297z"/>
</g>
</svg>
