<?xml version="1.0" standalone="no"?>
<!DOCTYPE svg PUBLIC "-//W3C//DTD SVG 20010904//EN"
 "http://www.w3.org/TR/2001/REC-SVG-20010904/DTD/svg10.dtd">
<svg version="1.0" xmlns="http://www.w3.org/2000/svg"
 width="300.000000pt" height="300.000000pt" viewBox="0 0 300.000000 300.000000"
 preserveAspectRatio="xMidYMid meet">
<metadata>
Created by potrace 1.16, written by Peter Selinger 2001-2019
</metadata>
<g transform="translate(0.000000,300.000000) scale(0.100000,-0.100000)"
fill="#000000" stroke="none">
<path d="M1390 2994 c-289 -35 -489 -106 -707 -251 l-83 -54 0 -160 0 -159
-150 0 -150 0 -34 -52 c-93 -146 -167 -332 -207 -518 -33 -151 -33 -419 0
-570 44 -206 116 -378 228 -547 l54 -83 130 0 129 0 0 -129 0 -130 83 -54
c165 -110 349 -188 540 -229 147 -32 437 -32 584 0 175 38 366 116 511 208
l52 34 0 150 0 150 159 0 160 0 54 83 c117 175 201 381 233 572 23 135 23 385
0 520 -30 174 -126 419 -218 553 l-29 42 -179 0 -180 0 0 180 0 180 -52 34
c-155 99 -371 183 -538 211 -96 16 -325 27 -390 19z m523 -172 c119 -40 212
-81 289 -128 l58 -35 0 -200 0 -199 199 0 200 0 35 -58 c47 -77 88 -170 128
-289 l32 -98 4 -269 c3 -225 1 -281 -13 -345 -31 -139 -107 -316 -187 -436
l-33 -50 -183 -3 -182 -2 0 -173 0 -173 -72 -41 c-213 -120 -427 -176 -673
-176 -272 0 -512 70 -742 215 l-63 40 0 154 0 154 -153 0 -152 0 -35 53 c-95
143 -174 345 -206 522 -20 117 -20 342 0 458 24 132 71 269 138 400 l61 117
173 0 174 0 0 180 0 179 58 39 c109 74 276 148 412 182 66 17 108 19 355 17
l280 -3 98 -32z"/>
<path d="M1320 2331 c-36 -9 -81 -25 -100 -36 -110 -61 -141 -83 -190 -140
l-45 -53 -90 -4 c-72 -4 -106 -11 -169 -36 -43 -18 -92 -44 -108 -57 -16 -14
-33 -25 -38 -25 -10 0 -130 -120 -130 -130 0 -3 -13 -24 -30 -46 -16 -21 -30
-43 -30 -48 0 -5 -12 -39 -26 -74 -24 -62 -26 -72 -22 -216 3 -132 6 -157 26
-195 12 -25 22 -48 22 -53 0 -20 83 -131 135 -182 65 -62 139 -107 225 -136
73 -25 173 -42 222 -39 34 3 44 -2 76 -34 43 -43 97 -87 107 -87 3 0 27 -12
53 -28 103 -60 288 -79 435 -43 106 26 218 91 290 169 28 30 34 32 73 26 23
-3 74 -1 114 5 147 23 261 77 355 167 66 64 95 105 145 209 34 69 34 73 38
221 4 150 4 152 -28 230 -17 44 -42 95 -56 115 -13 19 -24 38 -24 41 0 11 -92
98 -147 139 -28 21 -87 53 -130 71 -66 26 -95 32 -182 36 l-104 4 -31 36 c-17
20 -39 43 -49 51 -10 9 -30 25 -44 37 -124 105 -363 151 -543 105z m290 -61
c63 -12 188 -72 207 -100 8 -11 20 -20 27 -20 7 0 22 -13 34 -29 l21 -29 -62
-26 c-34 -14 -66 -26 -71 -26 -4 0 -25 -13 -46 -30 -21 -16 -41 -30 -46 -30
-4 0 -29 -22 -56 -50 l-49 -50 -70 0 -71 0 -47 50 c-26 28 -50 50 -55 50 -4 0
-22 11 -39 24 -39 29 -171 86 -201 86 -17 1 -11 10 36 54 60 57 167 115 233
126 62 11 197 11 255 0z m-670 -234 c0 -2 -9 -21 -19 -43 -52 -105 -71 -254
-45 -363 22 -95 22 -165 0 -260 -12 -51 -16 -95 -12 -138 9 -105 49 -234 84
-275 8 -9 12 -20 9 -24 -11 -10 -189 27 -232 49 -22 12 -51 27 -65 34 -27 15
-150 128 -150 139 0 3 -11 21 -24 38 -24 31 -40 70 -71 167 -8 25 -15 82 -15
128 0 212 151 434 345 505 88 33 195 57 195 43z m1202 -7 c29 -6 71 -20 92
-30 22 -11 46 -19 53 -19 15 0 115 -70 149 -104 52 -53 108 -143 135 -222 33
-97 39 -216 14 -294 -31 -97 -47 -136 -71 -167 -13 -17 -24 -35 -24 -38 0 -16
-135 -131 -187 -158 -58 -31 -198 -67 -261 -67 -33 0 -33 0 -18 28 14 26 28
59 57 132 22 56 19 302 -4 363 -18 44 -18 50 -3 87 36 91 30 328 -12 420 -35
78 -35 80 -2 80 16 0 53 -5 82 -11z m-993 -34 c46 -19 91 -41 101 -50 9 -8 20
-15 24 -15 5 0 21 -13 36 -30 15 -16 24 -30 18 -30 -19 0 -177 -79 -215 -107
-50 -38 -125 -118 -153 -164 -4 -6 -13 21 -20 61 -12 73 -10 98 18 235 13 61
60 135 85 135 12 0 60 -16 106 -35z m818 4 c7 -13 19 -40 26 -59 8 -19 20 -48
27 -65 19 -46 24 -192 8 -245 l-14 -45 -26 40 c-33 53 -180 185 -205 185 -4 0
-30 11 -58 25 -27 13 -55 25 -61 25 -12 0 50 70 62 70 4 0 15 7 24 15 21 19
181 86 195 82 6 -2 15 -14 22 -28z m-560 -206 c4 -10 18 -34 31 -53 25 -37 25
-52 2 -140 -15 -57 -8 -222 12 -275 14 -38 13 -42 -11 -88 -25 -46 -28 -48
-62 -44 -44 6 -175 63 -202 88 -12 10 -24 19 -28 19 -5 0 -27 21 -51 46 -24
26 -51 55 -60 65 -10 11 -18 25 -18 33 0 7 -7 19 -15 26 -8 7 -15 20 -15 30 0
10 7 23 15 30 8 7 15 20 15 29 0 9 8 24 18 33 9 8 36 36 60 62 24 25 46 46 51
46 4 0 17 10 30 21 25 23 175 89 204 89 10 0 21 -8 24 -17z m107 2 c-4 -8 -10
-15 -14 -15 -4 0 -10 7 -14 15 -4 10 1 15 14 15 13 0 18 -5 14 -15z m181 -27
c5 -4 19 -8 32 -8 13 0 23 -4 23 -9 0 -5 10 -13 22 -16 29 -10 169 -153 192
-198 19 -36 19 -38 0 -73 -10 -20 -25 -38 -31 -41 -7 -3 -13 -11 -13 -17 0
-28 -126 -130 -206 -167 -124 -58 -125 -58 -155 -2 -24 46 -24 50 -11 88 24
65 27 213 7 299 l-17 74 23 43 c38 71 36 70 82 52 23 -9 46 -20 52 -25z m-704
-409 c29 -36 82 -89 126 -124 40 -32 194 -105 222 -105 12 0 21 -4 21 -8 0
-11 -92 -91 -122 -106 -13 -7 -34 -20 -48 -28 -37 -25 -148 -48 -158 -34 -46
61 -81 157 -97 268 -8 51 13 198 25 179 4 -7 18 -26 31 -42z m1046 -119 c-3
-47 -10 -98 -17 -115 -7 -16 -16 -39 -20 -50 -25 -63 -53 -114 -64 -118 -23
-9 -99 13 -138 38 -21 14 -41 25 -45 25 -5 0 -32 22 -62 49 -50 45 -60 70 -28
71 7 0 35 12 62 25 28 14 54 25 58 25 26 0 169 130 205 185 l26 40 14 -45 c9
-30 12 -74 9 -130z m-439 -178 c31 -31 69 -66 83 -77 32 -25 124 -75 137 -75
6 0 22 -4 37 -10 22 -8 24 -13 15 -30 -6 -11 -17 -20 -25 -20 -8 0 -20 -9 -27
-19 -21 -29 -125 -80 -201 -97 -47 -11 -96 -14 -155 -11 -107 6 -151 16 -222
50 -55 26 -140 91 -140 106 0 5 21 14 48 21 93 25 165 71 252 162 50 52 59 57
98 58 40 0 48 -5 100 -58z"/>
</g>
</svg>
