<?xml version="1.0" encoding="UTF-8" standalone="no"?>
<svg
   xmlns:dc="http://purl.org/dc/elements/1.1/"
   xmlns:cc="http://creativecommons.org/ns#"
   xmlns:rdf="http://www.w3.org/1999/02/22-rdf-syntax-ns#"
   xmlns:svg="http://www.w3.org/2000/svg"
   xmlns="http://www.w3.org/2000/svg"
   xmlns:sodipodi="http://sodipodi.sourceforge.net/DTD/sodipodi-0.dtd"
   xmlns:inkscape="http://www.inkscape.org/namespaces/inkscape"
   version="1.0"
   width="300.000000pt"
   height="300.000000pt"
   viewBox="0 0 300.000000 300.000000"
   preserveAspectRatio="xMidYMid meet"
   id="svg490"
   sodipodi:docname="reflex.svg"
   inkscape:version="1.0.1 (3bc2e813f5, 2020-09-07)">
  <defs
     id="defs494" />
  <sodipodi:namedview
     pagecolor="#ffffff"
     bordercolor="#666666"
     borderopacity="1"
     objecttolerance="10"
     gridtolerance="10"
     guidetolerance="10"
     inkscape:pageopacity="0"
     inkscape:pageshadow="2"
     inkscape:window-width="1600"
     inkscape:window-height="837"
     id="namedview492"
     showgrid="false"
     inkscape:zoom="1.675"
     inkscape:cx="200"
     inkscape:cy="200"
     inkscape:window-x="-8"
     inkscape:window-y="-8"
     inkscape:window-maximized="1"
     inkscape:current-layer="svg490" />
  <metadata
     id="metadata482">
Created by potrace 1.16, written by Peter Selinger 2001-2019
<rdf:RDF>
  <cc:Work
     rdf:about="">
    <dc:format>image/svg+xml</dc:format>
    <dc:type
       rdf:resource="http://purl.org/dc/dcmitype/StillImage" />
  </cc:Work>
</rdf:RDF>
</metadata>
  <g
     transform="translate(0.000000,300.000000) scale(0.100000,-0.100000)"
     fill="#000000"
     stroke="none"
     id="g488">
    <path
       d="M250 1500 l0 -1250 1250 0 1250 0 0 1250 0 1250 -1250 0 -1250 0 0 -1250z m1470 1204 c369 -63 701 -307 872 -640 97 -188 138 -356 138 -562 0 -344 -118 -632 -359 -873 -235 -236 -531 -359 -866 -359 -327 0 -616 116 -851 342 -248 240 -376 539 -376 883 0 238 60 454 180 644 276 437 756 652 1262 565z"
       id="path484" />
    <path
       d="M740 2408 c0 -2 -11 -77 -25 -168 -121 -810 -53 -1118 334 -1513 101 -103 251 -235 388 -342 l63 -48 147 119 c176 141 378 338 458 447 71 98 138 222 170 318 47 136 59 229 59 429 -1 196 -8 274 -51 573 l-27 187 -758 0 c-417 0 -758 -1 -758 -2z"
       id="path486" />
  </g>
  <path
     style="fill:#ffffff;stroke-width:0.597015"
     d="M 181.79104,362.66581 C 137.02364,357.77047 96.634704,334.27479 68.937541,297.01493 52.739961,275.22498 43.573679,253.20673 39.068807,225.26751 37.796631,217.37747 37.254106,193.44149 38.141472,184.3539 41.842695,146.44935 56.898278,114.37534 84.149691,86.339204 105.36381,64.514217 130.61624,49.821341 159.70149,42.38015 c 35.33563,-9.040293 72.60195,-6.021305 106.56717,8.63313 21.82744,9.417542 44.8379,26.914961 60.49572,46.001645 16.6913,20.346485 29.20781,46.698385 34.05061,71.689105 3.67131,18.94542 3.69762,43.72306 0.0668,62.93776 -8.20479,43.42104 -34.24939,81.60789 -72.82212,106.77254 -20.58898,13.43215 -45.3695,21.99146 -70.99921,24.52347 -8.57335,0.84699 -26.2857,0.71039 -35.26945,-0.27199 z m 32.35619,-18.55967 c 19.25898,-15.65738 30.01795,-25.26953 44.68054,-39.91795 19.31585,-19.29717 27.5984,-30.31106 37.27062,-49.56132 7.71345,-15.35183 12.27797,-30.06127 13.99351,-45.09503 2.11111,-18.50022 1.74692,-48.91189 -0.86127,-71.9199 -1.20353,-10.6169 -7.41037,-55.413153 -8.05136,-58.10868 l -0.33108,-1.392262 -100.82224,0.198232 c -55.45222,0.109028 -101.017801,0.39386 -101.256828,0.63296 -0.523916,0.524074 -4.394631,25.84293 -6.496205,42.49253 -8.213119,65.06795 -5.413515,99.84216 10.674983,132.59513 11.79939,24.02122 31.58444,46.86712 66.65159,76.96297 14.23976,12.22104 29.79699,24.36131 30.74956,23.99577 0.42968,-0.16488 6.63886,-5.06199 13.79818,-10.88245 z"
     id="path496"
     transform="scale(0.75)" />
</svg>
