<?xml version="1.0" encoding="UTF-8" standalone="no"?>
<svg
   xmlns:dc="http://purl.org/dc/elements/1.1/"
   xmlns:cc="http://creativecommons.org/ns#"
   xmlns:rdf="http://www.w3.org/1999/02/22-rdf-syntax-ns#"
   xmlns:svg="http://www.w3.org/2000/svg"
   xmlns="http://www.w3.org/2000/svg"
   xmlns:sodipodi="http://sodipodi.sourceforge.net/DTD/sodipodi-0.dtd"
   xmlns:inkscape="http://www.inkscape.org/namespaces/inkscape"
   version="1.0"
   width="288.000000pt"
   height="289.000000pt"
   viewBox="0 0 288.000000 289.000000"
   preserveAspectRatio="xMidYMid meet"
   id="svg516"
   sodipodi:docname="retainer.svg"
   inkscape:version="1.0.1 (3bc2e813f5, 2020-09-07)">
  <defs
     id="defs520" />
  <sodipodi:namedview
     pagecolor="#ffffff"
     bordercolor="#666666"
     borderopacity="1"
     objecttolerance="10"
     gridtolerance="10"
     guidetolerance="10"
     inkscape:pageopacity="0"
     inkscape:pageshadow="2"
     inkscape:window-width="1600"
     inkscape:window-height="837"
     id="namedview518"
     showgrid="false"
     inkscape:zoom="1.7387543"
     inkscape:cx="192"
     inkscape:cy="192.66667"
     inkscape:window-x="-8"
     inkscape:window-y="-8"
     inkscape:window-maximized="1"
     inkscape:current-layer="svg516" />
  <metadata
     id="metadata510">
Created by potrace 1.16, written by Peter Selinger 2001-2019
<rdf:RDF>
  <cc:Work
     rdf:about="">
    <dc:format>image/svg+xml</dc:format>
    <dc:type
       rdf:resource="http://purl.org/dc/dcmitype/StillImage" />
  </cc:Work>
</rdf:RDF>
</metadata>
  <g
     transform="translate(0.000000,289.000000) scale(0.100000,-0.100000)"
     fill="#000000"
     stroke="none"
     id="g514">
    <path
       d="M240 1450 l0 -1200 1200 0 1200 0 0 1200 0 1200 -1200 0 -1200 0 0 -1200z m1396 1145 c695 -122 1128 -827 919 -1495 -90 -286 -276 -519 -535 -670 -294 -172 -689 -201 -1007 -73 -62 25 -65 27 -59 55 8 42 58 110 104 142 42 29 147 66 186 66 13 0 31 -9 41 -20 24 -26 69 -26 97 2 29 29 138 40 138 15 0 -19 30 -37 61 -37 26 0 59 27 59 48 0 13 24 14 180 8 l180 -6 40 36 c42 38 55 72 23 59 -10 -4 -114 -9 -232 -12 l-214 -6 38 67 c34 61 37 72 31 116 l-7 49 238 -5 c131 -2 289 -6 351 -8 61 -3 112 -3 112 -1 0 2 -67 44 -148 94 -176 109 -244 167 -393 338 -219 250 -326 345 -483 429 -90 48 -111 71 -127 142 -21 93 61 148 184 124 50 -10 58 -2 37 37 -15 29 -146 125 -260 190 -98 57 -109 61 -168 61 -74 0 -124 -19 -170 -63 -45 -42 -65 -84 -101 -207 -34 -112 -38 -161 -17 -179 12 -10 11 -22 -5 -84 -26 -101 -25 -110 15 -130 32 -15 34 -18 29 -54 -4 -34 -2 -40 21 -52 14 -8 26 -22 26 -31 0 -33 79 -177 135 -247 56 -70 197 -197 263 -236 17 -10 32 -23 32 -28 0 -5 32 -40 70 -77 l71 -68 -40 -86 -39 -85 -87 -8 c-47 -4 -88 -5 -90 -3 -3 2 4 28 15 56 30 79 28 85 -24 59 -38 -19 -43 -25 -39 -48 4 -20 -2 -31 -22 -48 -15 -11 -33 -21 -40 -21 -7 0 -61 -52 -120 -115 l-107 -115 -30 18 c-54 31 -210 185 -270 266 -97 130 -167 291 -205 470 -21 97 -23 328 -4 426 95 485 469 858 947 944 107 19 292 19 400 1z m-80 -1685 c29 -25 53 -49 53 -54 1 -6 -17 -40 -39 -78 l-41 -68 -69 0 c-39 0 -70 2 -70 4 0 3 18 43 41 91 40 83 42 99 23 148 -10 28 45 4 102 -43z"
       id="path512" />
  </g>
  <path
     style="fill:#ffffff;stroke-width:0.575124"
     d="m 174.74627,347.13602 c -15.92879,-1.83858 -34.25362,-6.7211 -44.12374,-11.75645 -3.6213,-1.84745 -3.90633,-2.46134 -2.76416,-5.95331 2.34108,-7.15745 9.90917,-15.96554 16.85321,-19.61453 4.57256,-2.40281 14.85793,-5.97977 18.71451,-6.50837 3.47879,-0.47682 4.99674,-0.0248 7.81002,2.32561 3.97003,3.31686 8.56605,3.40403 12.54872,0.238 2.84818,-2.26417 5.25436,-3.2316 9.97763,-4.01163 5.54889,-0.91638 7.80986,-0.36823 8.86136,2.14835 1.11341,2.66478 5.0815,4.52227 8.77207,4.10629 3.10952,-0.35049 6.54324,-2.91843 7.31481,-5.47046 0.49156,-1.62587 0.81581,-1.82791 3.45075,-2.1502 1.59951,-0.19564 10.12813,-0.0786 18.9525,0.26007 8.82437,0.33868 18.34659,0.61578 21.1605,0.61578 h 5.11619 l 4.81933,-4.75468 c 4.22107,-4.16445 6.26808,-7.30524 5.3558,-8.21752 -0.14624,-0.14624 -2.70068,-0.016 -5.67653,0.28953 -2.97585,0.30548 -14.46884,0.82726 -25.53999,1.15951 -11.07114,0.33224 -22.3881,0.68164 -25.14879,0.77645 l -5.01944,0.17237 1.48728,-2.62079 c 6.91765,-12.18988 7.38697,-13.32355 7.39434,-17.86158 0.004,-2.37239 -0.18638,-5.57366 -0.42274,-7.11395 l -0.42975,-2.80051 19.12129,0.38871 c 10.51671,0.21379 28.56771,0.63099 40.11334,0.92712 25.56134,0.6556 33.93233,0.68292 33.93233,0.11075 0,-0.23988 -4.98201,-3.53419 -11.07114,-7.32071 -15.01151,-9.33489 -26.76359,-17.24004 -32.63831,-21.95449 -7.12988,-5.72172 -17.21513,-15.95413 -30.51896,-30.96429 -27.30387,-30.80581 -40.04979,-42.09493 -60.85136,-53.89632 -12.77985,-7.25042 -15.60077,-10.11551 -17.69237,-17.96942 -2.2812,-8.5659 0.88975,-14.58771 9.12125,-17.32178 3.41399,-1.13394 9.99924,-1.25368 15.28134,-0.27784 4.42006,0.81657 5.86806,0.45484 5.86806,-1.46596 0,-2.36734 -2.01926,-5.54053 -5.34384,-8.39762 -11.66195,-10.022141 -37.33682,-26.024666 -45.53107,-28.378421 -4.48406,-1.288023 -13.89441,-0.885231 -19.31466,0.826727 -6.78621,2.143389 -13.36269,7.603976 -17.3256,14.385803 -3.85372,6.594952 -10.654286,28.959171 -11.241229,36.967701 -0.297305,4.0565 -0.19885,4.628 1.212005,7.03545 l 1.535594,2.62029 -2.03142,8.6474 c -2.083773,8.87027 -2.482593,13.0347 -1.435643,14.99094 0.327672,0.61226 1.832065,1.73969 3.343089,2.50538 1.511024,0.7657 3.043264,1.74877 3.404974,2.18461 0.36172,0.43583 0.73367,2.95855 0.82656,5.60604 l 0.1689,4.81361 2.58806,1.81886 c 1.55268,1.0912 2.78658,2.49022 3.08427,3.49702 2.23169,7.54748 7.07062,17.0354 14.05524,27.55878 6.71007,10.10972 25.56723,28.07497 38.94229,37.10036 2.32198,1.56685 4.38028,3.34821 4.574,3.95857 0.19372,0.61035 4.45593,5.20909 9.47159,10.21943 l 9.11938,9.1097 -5.02777,10.88206 c -3.32578,7.19829 -5.40076,11.02003 -6.1296,11.28965 -1.58962,0.58804 -21.41097,1.98101 -21.85602,1.53596 -0.44911,-0.44911 0.21848,-2.95821 2.67056,-10.03706 2.6993,-7.79257 1.93498,-8.53203 -5.15347,-4.98583 -4.43026,2.21637 -5.44165,3.56428 -4.85929,6.47611 0.19529,0.97641 -0.0346,2.34951 -0.56515,3.37545 -0.86625,1.67515 -5.18984,4.84568 -7.5783,5.55723 -1.16837,0.34808 -16.52712,15.61561 -25.43965,25.28858 l -4.69683,5.09757 -2.63078,-1.54174 C 97.346628,316.92813 80.094213,300.64931 70.769553,289.57512 57.2212,273.48478 46.9034,252.28073 40.825277,228.03682 c -2.635964,-10.51412 -3.021373,-14.18169 -3.35427,-31.91941 -0.443633,-23.63799 0.765782,-32.73987 6.724943,-50.61094 13.573645,-40.70633 41.993201,-73.555314 79.59402,-91.999413 14.82213,-7.270602 28.96749,-11.83142 44.07531,-14.210972 9.56143,-1.50597 38.89073,-1.504336 48.00238,0.0027 40.37037,6.677007 75.55387,27.952227 100.1034,60.531842 15.84207,21.023973 25.5636,44.228313 29.90095,71.370653 1.41522,8.85622 1.73525,28.199 0.62427,37.7312 -2.19795,18.8583 -6.5681,33.91539 -14.78858,50.95315 -8.62123,17.86834 -17.32532,30.02279 -31.39832,43.84479 -20.37438,20.011 -43.50017,32.99495 -70.63873,39.66005 -11.90635,2.92414 -21.08662,4.0361 -35.37015,4.28421 -8.48226,0.14733 -15.21885,-0.0383 -19.55423,-0.53863 z"
     id="path522"
     transform="scale(0.74999999)" />
  <path
     style="fill:#ffffff;stroke-width:0.575124"
     d="m 186.71112,290.05493 c -0.85664,-0.2324 -0.7252,-0.80317 1.07899,-4.68565 6.42696,-13.83033 7.65005,-17.05291 7.65536,-20.17022 0.003,-1.70305 -0.295,-4.09867 -0.66199,-5.3236 -0.367,-1.22494 -0.52694,-2.36748 -0.35543,-2.539 1.22956,-1.22956 9.7768,4.0407 15.86017,9.77945 4.86152,4.58611 4.98298,3.56236 -1.7809,15.01101 l -4.74019,8.02333 -8.04028,0.0847 c -4.42216,0.0466 -8.47924,-0.0344 -9.01573,-0.17998 z"
     id="path524"
     transform="scale(0.74999999)" />
</svg>
