<?xml version="1.0" encoding="UTF-8" standalone="no"?>
<svg
   xmlns:dc="http://purl.org/dc/elements/1.1/"
   xmlns:cc="http://creativecommons.org/ns#"
   xmlns:rdf="http://www.w3.org/1999/02/22-rdf-syntax-ns#"
   xmlns:svg="http://www.w3.org/2000/svg"
   xmlns="http://www.w3.org/2000/svg"
   xmlns:sodipodi="http://sodipodi.sourceforge.net/DTD/sodipodi-0.dtd"
   xmlns:inkscape="http://www.inkscape.org/namespaces/inkscape"
   version="1.0"
   width="300.000000pt"
   height="300.000000pt"
   viewBox="0 0 300.000000 300.000000"
   preserveAspectRatio="xMidYMid meet"
   id="svg473"
   sodipodi:docname="sanguinus.svg"
   inkscape:version="1.0.1 (3bc2e813f5, 2020-09-07)">
  <defs
     id="defs477" />
  <sodipodi:namedview
     pagecolor="#ffffff"
     bordercolor="#666666"
     borderopacity="1"
     objecttolerance="10"
     gridtolerance="10"
     guidetolerance="10"
     inkscape:pageopacity="0"
     inkscape:pageshadow="2"
     inkscape:window-width="1600"
     inkscape:window-height="837"
     id="namedview475"
     showgrid="false"
     inkscape:zoom="1.675"
     inkscape:cx="200"
     inkscape:cy="200"
     inkscape:window-x="-8"
     inkscape:window-y="-8"
     inkscape:window-maximized="1"
     inkscape:current-layer="svg473" />
  <metadata
     id="metadata467">
Created by potrace 1.16, written by Peter Selinger 2001-2019
<rdf:RDF>
  <cc:Work
     rdf:about="">
    <dc:format>image/svg+xml</dc:format>
    <dc:type
       rdf:resource="http://purl.org/dc/dcmitype/StillImage" />
  </cc:Work>
</rdf:RDF>
</metadata>
  <g
     transform="translate(0.000000,300.000000) scale(0.100000,-0.100000)"
     fill="#000000"
     stroke="none"
     id="g471">
    <path
       d="M274 2715 c-2 -5 -3 -559 -2 -1230 l3 -1220 1233 -3 1232 -2 -2 1230 -3 1230 -1229 3 c-812 1 -1230 -1 -1232 -8z m989 -291 c61 -20 135 -88 172 -156 26 -46 29 -64 30 -133 0 -67 -5 -89 -28 -137 -32 -65 -89 -121 -156 -151 -65 -31 -187 -30 -254 0 -64 30 -138 107 -159 169 -31 87 -32 126 -8 205 18 62 30 80 78 128 34 33 75 63 102 73 58 21 163 22 223 2z m708 -12 c61 -30 113 -81 146 -145 36 -70 39 -188 6 -259 -110 -240 -446 -250 -562 -16 -27 52 -31 72 -31 137 0 128 63 230 175 283 53 25 70 28 140 25 59 -2 92 -8 126 -25z m-600 -719 c45 -21 79 -45 108 -80 l43 -50 39 42 c144 156 438 168 586 23 24 -23 52 -65 64 -96 l22 -54 -38 -187 c-20 -102 -67 -334 -104 -516 l-67 -330 -139 0 -139 0 -18 70 c-10 39 -40 156 -68 260 -27 105 -69 265 -92 357 -23 93 -45 165 -49 160 -4 -4 -21 -74 -37 -157 -85 -435 -135 -671 -145 -683 -7 -9 -44 -12 -141 -10 l-131 3 -28 105 c-44 170 -136 522 -183 705 -24 94 -44 181 -44 194 0 75 72 181 154 223 87 45 146 58 246 55 81 -3 105 -8 161 -34z"
       id="path469" />
  </g>
  <path
     style="fill:#ffffff;stroke-width:0.597015"
     d="m 147.10651,340.4818 -4.8338,-0.22862 -0.99657,-3.58448 c -0.54812,-1.97146 -7.14221,-27.28215 -14.65355,-56.24599 -19.58951,-75.53751 -18.81787,-72.13585 -17.64029,-77.76406 1.30138,-6.21995 4.58949,-11.72753 10.71919,-17.95466 4.76289,-4.83859 6.08509,-5.80283 11.64179,-8.49002 10.52343,-5.08905 13.78358,-5.76621 27.7612,-5.76621 10.85098,0 12.34879,0.12762 16.41791,1.39883 8.94673,2.795 13.37848,5.58911 20.75945,13.08837 l 6.72959,6.83744 6.44925,-6.23077 c 5.60604,-5.41615 7.26301,-6.6346 12.67339,-9.31942 14.88632,-7.38712 32.28257,-8.53818 47.13249,-3.11863 13.12314,4.78935 21.15634,12.54224 26.21866,25.30379 l 1.85492,4.67602 -9.90331,49.05532 c -5.44682,26.98042 -11.67181,57.85383 -13.8333,68.60756 l -3.92998,19.55224 h -18.32004 -18.32004 l -3.90127,-15.07463 c -24.8516,-96.02746 -25.2727,-97.57624 -26.47052,-97.35885 -1.00908,0.18314 -2.5536,6.95262 -9.51131,41.68721 -11.14772,55.65212 -14.11801,68.97016 -15.66961,70.25852 -0.96213,0.79891 -19.16692,1.2011 -30.37425,0.67104 z"
     id="path479"
     transform="scale(0.75)" />
  <path
     style="fill:#ffffff;stroke-width:0.597015"
     d="m 145.53038,155.80131 c -7.79368,-1.31233 -13.91679,-4.84643 -20.91518,-12.07172 -5.33334,-5.50626 -8.65552,-11.52956 -10.58884,-19.19822 -1.58314,-6.27966 -1.50086,-10.95089 0.31789,-18.0481 2.25565,-8.802047 4.33508,-12.574113 10.12179,-18.360825 6.06113,-6.061133 12.08512,-10.161885 16.78262,-11.424549 9.0931,-2.444184 23.38463,-1.575035 30.17228,1.834948 7.65562,3.846028 15.82613,12.194208 20.24209,20.682234 2.04979,3.939962 2.53771,5.579602 3.03599,10.202352 0.72277,6.70542 0.18805,14.41547 -1.29966,18.73959 -4.64846,13.51098 -16.6649,24.64816 -29.51876,27.35885 -4.43238,0.93472 -13.64336,1.078 -18.35022,0.28544 z"
     id="path481"
     transform="scale(0.75)" />
  <path
     style="fill:#ffffff;stroke-width:0.597015"
     d="m 239.49925,156.37285 c -15.03997,-1.95216 -27.65465,-12.36933 -33.56286,-27.71613 -1.19526,-3.10473 -1.37927,-4.65615 -1.38078,-11.64179 -0.002,-9.11649 0.83334,-13.18609 4.10514,-20.000005 4.6629,-9.711088 15.16071,-18.162329 26.0477,-20.969647 4.57763,-1.180387 16.60286,-0.816774 22.25785,0.673023 12.44992,3.279912 23.96768,15.130411 27.56012,28.356329 1.46507,5.39381 1.4758,16.90403 0.0203,21.75539 -1.45363,4.84505 -4.53486,10.70899 -7.74551,14.74063 -8.34955,10.48459 -23.68431,16.56976 -37.30194,14.8022 z"
     id="path483"
     transform="scale(0.75)" />
</svg>
