<?xml version="1.0" standalone="no"?>
<!DOCTYPE svg PUBLIC "-//W3C//DTD SVG 20010904//EN"
 "http://www.w3.org/TR/2001/REC-SVG-20010904/DTD/svg10.dtd">
<svg version="1.0" xmlns="http://www.w3.org/2000/svg"
 width="250.000000pt" height="250.000000pt" viewBox="0 0 250.000000 250.000000"
 preserveAspectRatio="xMidYMid meet">
<metadata>
Created by potrace 1.16, written by Peter Selinger 2001-2019
</metadata>
<g transform="translate(0.000000,250.000000) scale(0.100000,-0.100000)"
fill="#000000" stroke="none">
<path d="M647 1832 l-577 -577 578 -578 577 -577 580 580 580 580 -575 575
c-316 316 -577 575 -580 575 -3 0 -265 -260 -583 -578z m421 69 c141 -73 162
-241 43 -343 -114 -98 -293 -39 -331 110 -24 96 34 202 130 241 42 16 118 13
158 -8z m452 -1 c50 -25 77 -54 101 -105 57 -122 -28 -268 -164 -282 -132 -14
-226 73 -227 208 0 48 5 64 33 105 58 87 170 119 257 74z m-423 -465 c33 -10
63 -28 89 -55 l39 -40 35 35 c110 107 327 94 401 -23 16 -25 29 -58 29 -73 0
-14 -29 -171 -65 -347 -36 -177 -65 -324 -65 -327 0 -3 -42 -5 -94 -5 l-93 0
-36 138 c-20 75 -52 197 -71 271 -36 138 -42 154 -50 130 -5 -15 -80 -384 -98
-481 l-10 -58 -94 0 -93 0 -10 38 c-6 20 -23 89 -40 152 -16 63 -51 196 -76
294 -54 207 -53 224 14 290 70 68 183 92 288 61z"/>
</g>
</svg>
