<?xml version="1.0" standalone="no"?>
<!DOCTYPE svg PUBLIC "-//W3C//DTD SVG 20010904//EN"
 "http://www.w3.org/TR/2001/REC-SVG-20010904/DTD/svg10.dtd">
<svg version="1.0" xmlns="http://www.w3.org/2000/svg"
 width="300.000000pt" height="300.000000pt" viewBox="0 0 300.000000 300.000000"
 preserveAspectRatio="xMidYMid meet">
<metadata>
Created by potrace 1.16, written by Peter Selinger 2001-2019
</metadata>
<g transform="translate(0.000000,300.000000) scale(0.100000,-0.100000)"
fill="#000000" stroke="none">
<path d="M274 2715 c-2 -5 -3 -559 -2 -1230 l3 -1220 1233 -3 1232 -2 -2 1230
-3 1230 -1229 3 c-812 1 -1230 -1 -1232 -8z m989 -291 c61 -20 135 -88 172
-156 26 -46 29 -64 30 -133 0 -67 -5 -89 -28 -137 -32 -65 -89 -121 -156 -151
-65 -31 -187 -30 -254 0 -64 30 -138 107 -159 169 -31 87 -32 126 -8 205 18
62 30 80 78 128 34 33 75 63 102 73 58 21 163 22 223 2z m708 -12 c61 -30 113
-81 146 -145 36 -70 39 -188 6 -259 -110 -240 -446 -250 -562 -16 -27 52 -31
72 -31 137 0 128 63 230 175 283 53 25 70 28 140 25 59 -2 92 -8 126 -25z
m-600 -719 c45 -21 79 -45 108 -80 l43 -50 39 42 c144 156 438 168 586 23 24
-23 52 -65 64 -96 l22 -54 -38 -187 c-20 -102 -67 -334 -104 -516 l-67 -330
-139 0 -139 0 -18 70 c-10 39 -40 156 -68 260 -27 105 -69 265 -92 357 -23 93
-45 165 -49 160 -4 -4 -21 -74 -37 -157 -85 -435 -135 -671 -145 -683 -7 -9
-44 -12 -141 -10 l-131 3 -28 105 c-44 170 -136 522 -183 705 -24 94 -44 181
-44 194 0 75 72 181 154 223 87 45 146 58 246 55 81 -3 105 -8 161 -34z"/>
</g>
</svg>
