<?xml version="1.0" standalone="no"?>
<!DOCTYPE svg PUBLIC "-//W3C//DTD SVG 20010904//EN"
 "http://www.w3.org/TR/2001/REC-SVG-20010904/DTD/svg10.dtd">
<svg version="1.0" xmlns="http://www.w3.org/2000/svg"
 width="238.000000pt" height="238.000000pt" viewBox="0 0 238.000000 238.000000"
 preserveAspectRatio="xMidYMid meet">
<metadata>
Created by potrace 1.16, written by Peter Selinger 2001-2019
</metadata>
<g transform="translate(0.000000,238.000000) scale(0.100000,-0.100000)"
fill="#000000" stroke="none">
<path d="M612 1777 c-314 -314 -572 -577 -572 -582 0 -13 1142 -1155 1155
-1155 6 0 269 259 585 575 l575 575 -580 580 c-319 319 -582 580 -585 580 -3
0 -263 -258 -578 -573z m316 -165 c17 -19 32 -40 32 -46 1 -37 17 -38 115 -7
146 47 274 79 369 91 207 28 381 -51 466 -212 43 -80 53 -191 25 -265 -33 -86
-115 -153 -221 -182 -22 -6 -143 -22 -270 -36 -126 -14 -253 -31 -283 -37 -55
-12 -111 -49 -111 -73 0 -15 47 -57 154 -139 130 -98 169 -187 107 -245 -31
-29 -105 -56 -181 -66 l-45 -5 60 28 c70 34 115 76 115 107 0 32 -58 79 -146
121 -85 41 -186 112 -210 149 -24 36 -14 105 21 151 36 48 131 108 208 133 34
11 123 36 197 56 240 65 270 76 311 115 45 42 50 77 20 126 -26 43 -95 74
-204 90 -224 34 -450 -6 -491 -85 -19 -36 -59 -59 -118 -67 -104 -14 -358 120
-346 183 4 22 206 126 288 147 71 18 98 12 138 -32z"/>
</g>
</svg>
