<?xml version="1.0" encoding="UTF-8" standalone="no"?>
<svg
   xmlns:dc="http://purl.org/dc/elements/1.1/"
   xmlns:cc="http://creativecommons.org/ns#"
   xmlns:rdf="http://www.w3.org/1999/02/22-rdf-syntax-ns#"
   xmlns:svg="http://www.w3.org/2000/svg"
   xmlns="http://www.w3.org/2000/svg"
   xmlns:sodipodi="http://sodipodi.sourceforge.net/DTD/sodipodi-0.dtd"
   xmlns:inkscape="http://www.inkscape.org/namespaces/inkscape"
   version="1.0"
   width="288.000000pt"
   height="289.000000pt"
   viewBox="0 0 288.000000 289.000000"
   preserveAspectRatio="xMidYMid meet"
   id="svg144"
   sodipodi:docname="serpentis.svg"
   inkscape:version="1.0.1 (3bc2e813f5, 2020-09-07)">
  <defs
     id="defs148" />
  <sodipodi:namedview
     pagecolor="#ffffff"
     bordercolor="#666666"
     borderopacity="1"
     objecttolerance="10"
     gridtolerance="10"
     guidetolerance="10"
     inkscape:pageopacity="0"
     inkscape:pageshadow="2"
     inkscape:window-width="1600"
     inkscape:window-height="837"
     id="namedview146"
     showgrid="false"
     inkscape:zoom="1.7387543"
     inkscape:cx="192"
     inkscape:cy="192.66667"
     inkscape:window-x="-8"
     inkscape:window-y="-8"
     inkscape:window-maximized="1"
     inkscape:current-layer="svg144" />
  <metadata
     id="metadata138">
Created by potrace 1.16, written by Peter Selinger 2001-2019
<rdf:RDF>
  <cc:Work
     rdf:about="">
    <dc:format>image/svg+xml</dc:format>
    <dc:type
       rdf:resource="http://purl.org/dc/dcmitype/StillImage" />
  </cc:Work>
</rdf:RDF>
</metadata>
  <g
     transform="translate(0.000000,289.000000) scale(0.100000,-0.100000)"
     fill="#000000"
     stroke="none"
     id="g142">
    <path
       d="M240 1450 l0 -1200 1200 0 1200 0 0 1200 0 1200 -1200 0 -1200 0 0 -1200z m1868 854 c212 -54 391 -232 432 -431 38 -180 -32 -357 -177 -450 -96 -61 -178 -81 -475 -113 -510 -56 -575 -69 -633 -130 -45 -47 -31 -69 120 -182 201 -151 278 -242 278 -331 0 -92 -112 -160 -305 -185 -76 -10 -81 -1 -12 18 92 26 204 117 204 167 0 51 -60 102 -205 175 -174 88 -300 179 -331 241 -54 103 53 259 239 351 81 40 288 105 542 169 22 5 75 19 117 29 92 24 192 80 224 128 31 44 32 110 4 155 -23 36 -95 86 -151 104 -125 40 -391 61 -534 42 -111 -14 -180 -33 -267 -73 -54 -25 -68 -36 -73 -58 -8 -35 -28 -54 -85 -79 -83 -36 -135 -37 -240 -2 -196 66 -350 171 -350 239 0 31 4 34 150 107 235 118 355 149 429 110 33 -17 87 -93 96 -136 4 -16 9 -29 12 -29 3 0 62 18 132 39 455 143 669 174 859 125z"
       id="path140" />
  </g>
  <path
     style="fill:#ffffff;stroke-width:0.575124"
     d="m 172.76209,320.98739 c 0.3005,-0.27893 2.72626,-1.20306 5.39056,-2.05363 8.43355,-2.69237 14.88532,-6.55716 21.41604,-12.82879 9.42513,-9.0512 7.86746,-15.26032 -6.2076,-24.74451 -1.94011,-1.30731 -9.05731,-5.32724 -15.81599,-8.93319 -18.77735,-10.01825 -28.75258,-16.44544 -36.22852,-23.34258 -7.57803,-6.99131 -9.9548,-12.23818 -8.67095,-19.1417 2.32345,-12.49374 15.30863,-26.47588 32.61109,-35.11486 11.73833,-5.86086 39.60892,-14.55615 75.34129,-23.50557 17.91292,-4.48642 25.65086,-7.27075 33.03092,-11.88547 6.18597,-3.86806 9.43847,-7.01547 11.42414,-11.055 1.35961,-2.76591 1.55455,-3.84939 1.55212,-8.62687 -0.002,-4.80919 -0.18608,-5.80815 -1.53317,-8.3393 -2.39187,-4.4943 -8.71264,-9.86342 -15.81996,-13.43814 -8.65581,-4.35355 -30.03935,-7.75718 -53.3844,-8.49723 -22.88006,-0.7253 -42.26928,2.72855 -58.87197,10.48703 -7.5102,3.50954 -8.84665,4.64298 -10.35623,8.78315 -0.77823,2.13436 -1.94552,4.0323 -3.05329,4.96442 -2.39795,2.01775 -7.48494,4.54061 -12.95578,6.42535 -10.55241,3.63537 -23.28984,1.03893 -44.300392,-9.03034 -17.20815,-8.24698 -27.345017,-16.64416 -28.645763,-23.72958 -0.369325,-2.01179 -0.226573,-2.34574 1.843864,-4.31343 3.756696,-3.570279 33.423195,-18.12746 45.915681,-22.530565 12.45304,-4.389199 21.50076,-5.355796 27.18064,-2.903793 5.35732,2.312749 11.75094,10.538109 14.29183,18.38637 0.67863,2.09613 1.59096,3.838719 2.05829,3.931419 0.46166,0.09158 10.26655,-2.666816 21.78864,-6.129759 22.98356,-6.907665 34.30339,-10.041633 45.67961,-12.646687 35.64037,-8.161336 58.12156,-7.380398 79.2613,2.753328 11.7624,5.638525 25.28403,17.276597 32.19531,27.710527 21.12215,31.88801 12.76139,71.066 -18.51102,86.74154 -11.83788,5.93382 -22.11319,8.01224 -61.31375,12.40209 -52.46398,5.87516 -66.86036,8.21862 -74.60841,12.14485 -3.74044,1.89542 -8.78487,6.89683 -9.21252,9.13396 -0.81658,4.27166 2.67065,8.17807 16.99352,19.03625 27.00097,20.46944 37.17115,31.83743 38.68372,43.23978 1.67683,12.64055 -13.29785,22.62489 -39.39173,26.26436 -7.43266,1.03668 -8.53664,1.09155 -7.77712,0.38657 z"
     id="path150"
     transform="scale(0.74999999)" />
</svg>
