<?xml version="1.0" standalone="no"?>
<!DOCTYPE svg PUBLIC "-//W3C//DTD SVG 20010904//EN"
 "http://www.w3.org/TR/2001/REC-SVG-20010904/DTD/svg10.dtd">
<svg version="1.0" xmlns="http://www.w3.org/2000/svg"
 width="288.000000pt" height="289.000000pt" viewBox="0 0 288.000000 289.000000"
 preserveAspectRatio="xMidYMid meet">
<metadata>
Created by potrace 1.16, written by Peter Selinger 2001-2019
</metadata>
<g transform="translate(0.000000,289.000000) scale(0.100000,-0.100000)"
fill="#000000" stroke="none">
<path d="M240 1450 l0 -1200 1200 0 1200 0 0 1200 0 1200 -1200 0 -1200 0 0
-1200z m1868 854 c212 -54 391 -232 432 -431 38 -180 -32 -357 -177 -450 -96
-61 -178 -81 -475 -113 -510 -56 -575 -69 -633 -130 -45 -47 -31 -69 120 -182
201 -151 278 -242 278 -331 0 -92 -112 -160 -305 -185 -76 -10 -81 -1 -12 18
92 26 204 117 204 167 0 51 -60 102 -205 175 -174 88 -300 179 -331 241 -54
103 53 259 239 351 81 40 288 105 542 169 22 5 75 19 117 29 92 24 192 80 224
128 31 44 32 110 4 155 -23 36 -95 86 -151 104 -125 40 -391 61 -534 42 -111
-14 -180 -33 -267 -73 -54 -25 -68 -36 -73 -58 -8 -35 -28 -54 -85 -79 -83
-36 -135 -37 -240 -2 -196 66 -350 171 -350 239 0 31 4 34 150 107 235 118
355 149 429 110 33 -17 87 -93 96 -136 4 -16 9 -29 12 -29 3 0 62 18 132 39
455 143 669 174 859 125z"/>
</g>
</svg>
