<?xml version="1.0" encoding="UTF-8" standalone="no"?>
<svg
   xmlns:dc="http://purl.org/dc/elements/1.1/"
   xmlns:cc="http://creativecommons.org/ns#"
   xmlns:rdf="http://www.w3.org/1999/02/22-rdf-syntax-ns#"
   xmlns:svg="http://www.w3.org/2000/svg"
   xmlns="http://www.w3.org/2000/svg"
   xmlns:sodipodi="http://sodipodi.sourceforge.net/DTD/sodipodi-0.dtd"
   xmlns:inkscape="http://www.inkscape.org/namespaces/inkscape"
   version="1.0"
   width="240.000000pt"
   height="239.000000pt"
   viewBox="0 0 240.000000 239.000000"
   preserveAspectRatio="xMidYMid meet"
   id="svg210"
   sodipodi:docname="spiritussup.svg"
   inkscape:version="1.0.1 (3bc2e813f5, 2020-09-07)">
  <defs
     id="defs214" />
  <sodipodi:namedview
     pagecolor="#ffffff"
     bordercolor="#666666"
     borderopacity="1"
     objecttolerance="10"
     gridtolerance="10"
     guidetolerance="10"
     inkscape:pageopacity="0"
     inkscape:pageshadow="2"
     inkscape:window-width="1600"
     inkscape:window-height="837"
     id="namedview212"
     showgrid="false"
     inkscape:zoom="2.1025105"
     inkscape:cx="160"
     inkscape:cy="159.33333"
     inkscape:window-x="-8"
     inkscape:window-y="-8"
     inkscape:window-maximized="1"
     inkscape:current-layer="svg210" />
  <metadata
     id="metadata204">
Created by potrace 1.16, written by Peter Selinger 2001-2019
<rdf:RDF>
  <cc:Work
     rdf:about="">
    <dc:format>image/svg+xml</dc:format>
    <dc:type
       rdf:resource="http://purl.org/dc/dcmitype/StillImage" />
  </cc:Work>
</rdf:RDF>
</metadata>
  <g
     transform="translate(0.000000,239.000000) scale(0.100000,-0.100000)"
     fill="#000000"
     stroke="none"
     id="g208">
    <path
       d="M627 1783 l-577 -578 578 -577 577 -578 580 580 580 580 -575 575 c-316 316 -577 575 -580 575 -3 0 -265 -260 -583 -577z m631 -26 c9 -11 56 -157 86 -266 7 -25 16 -46 21 -47 6 -2 26 25 46 59 l37 62 231 3 232 2 -3 -24 c-2 -16 -85 -110 -233 -265 -222 -233 -232 -246 -292 -359 -35 -64 -63 -120 -63 -123 0 -6 64 -101 124 -184 5 -7 6 -20 3 -29 -6 -14 -33 -16 -247 -16 l-240 0 0 25 c0 13 6 28 13 32 19 11 117 159 117 175 -1 7 -27 61 -58 120 -54 101 -73 123 -288 349 -126 133 -233 248 -237 256 -5 8 -6 21 -3 29 4 12 44 14 230 14 l224 0 42 -65 c23 -36 46 -65 51 -65 4 0 13 19 19 43 6 23 15 54 20 69 12 37 -6 49 -93 62 -40 6 -72 16 -72 21 0 6 52 38 115 72 91 48 125 61 161 62 26 1 51 -4 57 -12z"
       id="path206" />
  </g>
  <path
     style="fill:#ffffff;stroke-width:0.475622"
     d="m 128.13333,240.69564 c 0,-2.68738 0.65525,-4.06675 3.37171,-7.09779 2.76778,-3.0883 10.53992,-14.58859 12.8264,-18.97896 l 1.55098,-2.97811 -4.31173,-8.67462 c -9.62151,-19.35719 -10.21608,-20.1165 -42.919184,-54.80994 -20.960872,-22.23657 -27.836783,-29.65459 -29.929127,-32.28878 -1.78112,-2.24238 -1.942979,-4.28459 -0.404827,-5.10779 1.607621,-0.86037 14.354138,-1.31064 37.937178,-1.34012 l 21.16517,-0.0265 3.91767,6.06416 c 4.3007,6.65705 7.97125,11.53381 8.68105,11.53381 0.7903,0 1.91051,-2.72074 3.8837,-9.43259 2.42163,-8.23726 2.47361,-9.30685 0.53646,-11.0377 -1.51909,-1.3573 -2.37226,-1.59682 -13.2139,-3.70969 -2.61592,-0.5098 -5.36807,-1.16723 -6.11588,-1.46095 -1.15953,-0.45543 -1.26937,-0.64283 -0.74624,-1.27315 1.89379,-2.281877 24.3491,-14.229444 29.93019,-15.924646 4.51358,-1.37096 11.34019,-1.205498 12.85651,0.311614 1.18321,1.18382 4.85936,11.854695 9.42456,27.356982 3.21704,10.92424 4.28579,13.82705 5.32795,14.47114 0.80187,0.49559 3.14902,-2.49034 7.34957,-9.34974 l 3.89485,-6.36022 6.37556,-0.31666 c 3.50656,-0.17416 17.32448,-0.40069 30.70649,-0.5034 l 24.33093,-0.18673 -0.25532,1.69245 c -0.51905,3.44071 -7.85916,11.8631 -37.95131,43.54718 -18.86499,19.86296 -23.73388,25.68591 -28.63398,34.24477 -2.92166,5.10316 -11.39026,21.27385 -11.74229,22.42175 -0.24179,0.78843 0.96859,2.93918 5.35335,9.51244 3.11617,4.67152 6.97579,10.3122 8.57693,12.53486 3.25377,4.51678 3.77099,6.64229 1.86462,7.66255 -1.71089,0.91564 -13.416,1.31735 -39.26241,1.34746 l -24.37563,0.0284 z"
     id="path216"
     transform="scale(0.75000001)" />
</svg>
