<?xml version="1.0" standalone="no"?>
<!DOCTYPE svg PUBLIC "-//W3C//DTD SVG 20010904//EN"
 "http://www.w3.org/TR/2001/REC-SVG-20010904/DTD/svg10.dtd">
<svg version="1.0" xmlns="http://www.w3.org/2000/svg"
 width="240.000000pt" height="239.000000pt" viewBox="0 0 240.000000 239.000000"
 preserveAspectRatio="xMidYMid meet">
<metadata>
Created by potrace 1.16, written by Peter Selinger 2001-2019
</metadata>
<g transform="translate(0.000000,239.000000) scale(0.100000,-0.100000)"
fill="#000000" stroke="none">
<path d="M627 1783 l-577 -578 578 -577 577 -578 580 580 580 580 -575 575
c-316 316 -577 575 -580 575 -3 0 -265 -260 -583 -577z m631 -26 c9 -11 56
-157 86 -266 7 -25 16 -46 21 -47 6 -2 26 25 46 59 l37 62 231 3 232 2 -3 -24
c-2 -16 -85 -110 -233 -265 -222 -233 -232 -246 -292 -359 -35 -64 -63 -120
-63 -123 0 -6 64 -101 124 -184 5 -7 6 -20 3 -29 -6 -14 -33 -16 -247 -16
l-240 0 0 25 c0 13 6 28 13 32 19 11 117 159 117 175 -1 7 -27 61 -58 120 -54
101 -73 123 -288 349 -126 133 -233 248 -237 256 -5 8 -6 21 -3 29 4 12 44 14
230 14 l224 0 42 -65 c23 -36 46 -65 51 -65 4 0 13 19 19 43 6 23 15 54 20 69
12 37 -6 49 -93 62 -40 6 -72 16 -72 21 0 6 52 38 115 72 91 48 125 61 161 62
26 1 51 -4 57 -12z"/>
</g>
</svg>
