<?xml version="1.0" standalone="no"?>
<!DOCTYPE svg PUBLIC "-//W3C//DTD SVG 20010904//EN"
 "http://www.w3.org/TR/2001/REC-SVG-20010904/DTD/svg10.dtd">
<svg version="1.0" xmlns="http://www.w3.org/2000/svg"
 width="300.000000pt" height="300.000000pt" viewBox="0 0 300.000000 300.000000"
 preserveAspectRatio="xMidYMid meet">
<metadata>
Created by potrace 1.16, written by Peter Selinger 2001-2019
</metadata>
<g transform="translate(0.000000,300.000000) scale(0.100000,-0.100000)"
fill="#000000" stroke="none">
<path d="M294 2711 c-2 -2 -4 -553 -4 -1223 l0 -1218 1218 2 1217 3 0 1220 0
1220 -1213 0 c-668 0 -1215 -2 -1218 -4z m1310 -273 c7 -18 46 -144 87 -280
41 -136 79 -247 84 -247 6 0 40 51 76 112 l67 112 386 3 386 2 0 -39 c0 -37
-14 -53 -392 -452 -216 -227 -398 -419 -404 -428 -6 -9 -54 -100 -107 -202
l-97 -186 91 -134 c49 -74 99 -141 110 -151 13 -11 19 -29 19 -57 l0 -41 -407
2 -408 3 -3 43 c-2 32 0 42 12 42 8 0 60 66 115 147 l100 146 -97 190 -97 189
-402 424 c-373 392 -403 427 -403 459 l0 35 388 0 387 -1 70 -111 c39 -61 74
-112 79 -112 7 -1 76 222 76 244 0 3 -16 15 -34 27 -26 16 -61 25 -137 33 -97
10 -119 18 -119 45 0 6 89 56 198 112 l197 102 83 0 83 1 13 -32z"/>
</g>
</svg>
