<?xml version="1.0" standalone="no"?>
<!DOCTYPE svg PUBLIC "-//W3C//DTD SVG 20010904//EN"
 "http://www.w3.org/TR/2001/REC-SVG-20010904/DTD/svg10.dtd">
<svg version="1.0" xmlns="http://www.w3.org/2000/svg"
 width="288.000000pt" height="289.000000pt" viewBox="0 0 288.000000 289.000000"
 preserveAspectRatio="xMidYMid meet">
<metadata>
Created by potrace 1.16, written by Peter Selinger 2001-2019
</metadata>
<g transform="translate(0.000000,289.000000) scale(0.100000,-0.100000)"
fill="#000000" stroke="none">
<path d="M240 1450 l0 -1200 1200 0 1200 0 0 1200 0 1200 -1200 0 -1200 0 0
-1200z m846 563 c28 -27 61 -58 75 -70 13 -12 50 -48 81 -80 49 -50 60 -69 74
-124 9 -35 23 -73 30 -84 20 -27 17 -85 -5 -138 -18 -42 -62 -87 -84 -87 -14
0 -124 115 -180 187 -60 78 -111 113 -165 113 -35 0 -44 -4 -56 -27 -8 -16
-26 -40 -39 -54 -76 -79 -75 -195 0 -278 47 -51 140 -238 152 -306 6 -33 11
-127 12 -210 1 -225 -19 -256 -135 -204 -26 11 -70 41 -97 65 -28 25 -62 49
-75 54 -13 5 -35 27 -49 50 -23 37 -29 40 -69 40 -48 0 -87 24 -110 68 -8 15
-31 44 -50 65 -24 24 -36 47 -36 65 1 67 38 68 85 2 17 -25 54 -58 83 -75 29
-17 61 -45 72 -62 26 -43 54 -56 104 -50 82 11 95 70 34 157 -17 25 -45 70
-61 100 -17 30 -43 73 -58 95 -31 43 -99 262 -99 316 0 18 5 61 11 96 9 51 17
68 41 88 29 25 36 26 145 24 131 -2 149 5 116 48 -19 27 -24 28 -133 33 -108
5 -114 6 -133 31 -17 23 -18 32 -8 61 14 41 61 92 110 118 31 16 59 19 202 20
l166 0 49 -47z m1138 27 c37 -23 113 -109 125 -142 20 -56 -30 -104 -81 -77
-12 7 -53 13 -90 13 -53 1 -72 -3 -95 -20 -42 -32 -41 -50 4 -58 58 -9 159 -7
188 4 40 15 60 -2 79 -68 29 -105 15 -246 -35 -327 -10 -17 -32 -68 -49 -114
-19 -54 -44 -99 -70 -129 -22 -24 -40 -49 -40 -55 0 -5 -14 -38 -32 -73 -31
-62 -32 -63 -13 -83 14 -17 30 -21 76 -21 53 0 59 3 79 31 12 16 39 40 59 53
20 13 55 42 78 65 44 44 75 51 81 18 6 -31 -6 -60 -43 -102 -19 -22 -35 -43
-35 -46 0 -3 -26 -20 -59 -38 -32 -17 -66 -42 -74 -55 -9 -13 -40 -38 -70 -55
-30 -17 -85 -56 -123 -86 -38 -30 -78 -55 -89 -55 -56 0 -109 82 -95 146 4 21
8 86 8 144 0 61 5 117 12 135 14 34 26 77 40 149 7 35 30 76 79 145 86 120 91
131 91 179 0 31 -10 53 -43 98 -23 33 -50 71 -60 87 -16 24 -23 27 -73 27
l-56 0 -77 -82 c-209 -226 -223 -237 -266 -194 -23 23 -25 32 -25 126 0 112
10 146 59 198 17 18 35 50 41 72 7 26 24 51 53 74 23 20 64 54 90 76 26 22 60
43 75 46 15 3 32 7 37 9 6 2 77 4 159 4 131 1 152 -1 180 -19z m378 -867 c10
-9 18 -22 18 -30 0 -17 -44 -38 -64 -30 -29 11 -14 77 18 77 5 0 18 -7 28 -17z"/>
</g>
</svg>
