<?xml version="1.0" standalone="no"?>
<!DOCTYPE svg PUBLIC "-//W3C//DTD SVG 20010904//EN"
 "http://www.w3.org/TR/2001/REC-SVG-20010904/DTD/svg10.dtd">
<svg version="1.0" xmlns="http://www.w3.org/2000/svg"
 width="238.000000pt" height="238.000000pt" viewBox="0 0 238.000000 238.000000"
 preserveAspectRatio="xMidYMid meet">
<metadata>
Created by potrace 1.16, written by Peter Selinger 2001-2019
</metadata>
<g transform="translate(0.000000,238.000000) scale(0.100000,-0.100000)"
fill="#000000" stroke="none">
<path d="M617 1772 l-577 -577 578 -578 577 -577 580 580 580 580 -575 575
c-316 316 -577 575 -580 575 -3 0 -265 -260 -583 -578z m388 -196 c68 -68 95
-102 95 -119 0 -14 7 -42 16 -63 27 -66 -3 -159 -50 -152 -13 2 -57 42 -109
99 -65 72 -96 98 -125 107 -22 7 -47 24 -60 41 -21 29 -25 30 -110 33 l-87 3
-3 28 c-4 35 19 72 61 97 27 17 51 20 155 20 l122 0 95 -94z m789 44 c37 -39
47 -57 44 -78 l-3 -27 -87 4 c-86 3 -88 3 -119 -28 -18 -18 -48 -35 -72 -41
-35 -7 -58 -26 -137 -110 -96 -102 -123 -117 -150 -85 -8 10 -11 41 -9 94 4
70 7 83 31 108 14 15 34 47 43 70 12 30 33 54 68 80 86 63 83 62 218 63 l126
0 47 -50z m23 -168 c30 -19 44 -118 28 -194 -4 -18 -23 -65 -41 -105 -19 -39
-34 -77 -34 -85 0 -7 -13 -29 -28 -48 -33 -40 -82 -133 -82 -154 0 -18 22 -26
71 -26 32 0 48 7 74 33 72 68 101 92 115 92 45 0 -30 -116 -87 -135 -17 -6
-39 -22 -47 -35 -9 -14 -31 -32 -49 -41 -17 -10 -56 -36 -84 -60 -38 -30 -59
-41 -74 -37 -28 8 -61 62 -52 88 3 11 5 50 5 86 -3 90 38 250 78 307 16 23 44
62 61 86 38 53 34 83 -18 150 -50 64 -42 74 59 79 46 1 85 4 88 5 3 1 10 -2
17 -6z m-1078 -8 c38 -8 38 -18 1 -68 -40 -53 -42 -126 -4 -177 14 -19 46 -72
71 -118 l46 -84 7 -131 c6 -136 -1 -193 -26 -203 -22 -8 -72 16 -146 70 -92
68 -101 97 -28 97 31 0 43 5 55 24 18 28 13 47 -36 123 -74 113 -88 141 -107
213 -34 126 -33 200 3 235 20 20 34 25 78 25 30 0 69 -3 86 -6z m1271 -419 c0
-8 -4 -15 -10 -15 -5 0 -10 7 -10 15 0 8 5 15 10 15 6 0 10 -7 10 -15z m-1530
-65 c11 -16 38 -39 59 -51 37 -21 66 -60 54 -73 -4 -3 -21 -6 -39 -6 -24 0
-38 7 -51 26 -10 14 -30 40 -45 57 -30 32 -38 77 -14 77 8 0 24 -13 36 -30z"/>
</g>
</svg>
