<?xml version="1.0" encoding="UTF-8" standalone="no"?>
<svg
   xmlns:dc="http://purl.org/dc/elements/1.1/"
   xmlns:cc="http://creativecommons.org/ns#"
   xmlns:rdf="http://www.w3.org/1999/02/22-rdf-syntax-ns#"
   xmlns:svg="http://www.w3.org/2000/svg"
   xmlns="http://www.w3.org/2000/svg"
   xmlns:sodipodi="http://sodipodi.sourceforge.net/DTD/sodipodi-0.dtd"
   xmlns:inkscape="http://www.inkscape.org/namespaces/inkscape"
   version="1.0"
   width="288.000000pt"
   height="289.000000pt"
   viewBox="0 0 288.000000 289.000000"
   preserveAspectRatio="xMidYMid meet"
   id="svg637"
   sodipodi:docname="striga.svg"
   inkscape:version="1.0.1 (3bc2e813f5, 2020-09-07)">
  <defs
     id="defs641" />
  <sodipodi:namedview
     pagecolor="#ffffff"
     bordercolor="#666666"
     borderopacity="1"
     objecttolerance="10"
     gridtolerance="10"
     guidetolerance="10"
     inkscape:pageopacity="0"
     inkscape:pageshadow="2"
     inkscape:window-width="1600"
     inkscape:window-height="837"
     id="namedview639"
     showgrid="false"
     inkscape:zoom="1.7387543"
     inkscape:cx="192"
     inkscape:cy="192.66667"
     inkscape:window-x="-8"
     inkscape:window-y="-8"
     inkscape:window-maximized="1"
     inkscape:current-layer="svg637" />
  <metadata
     id="metadata631">
Created by potrace 1.16, written by Peter Selinger 2001-2019
<rdf:RDF>
  <cc:Work
     rdf:about="">
    <dc:format>image/svg+xml</dc:format>
    <dc:type
       rdf:resource="http://purl.org/dc/dcmitype/StillImage" />
  </cc:Work>
</rdf:RDF>
</metadata>
  <g
     transform="translate(0.000000,289.000000) scale(0.100000,-0.100000)"
     fill="#000000"
     stroke="none"
     id="g635">
    <path
       d="M240 1450 l0 -1200 1200 0 1200 0 0 1200 0 1200 -1200 0 -1200 0 0 -1200z m846 563 c28 -27 61 -58 75 -70 13 -12 50 -48 81 -80 49 -50 60 -69 74 -124 9 -35 23 -73 30 -84 20 -27 17 -85 -5 -138 -18 -42 -62 -87 -84 -87 -14 0 -124 115 -180 187 -60 78 -111 113 -165 113 -35 0 -44 -4 -56 -27 -8 -16 -26 -40 -39 -54 -76 -79 -75 -195 0 -278 47 -51 140 -238 152 -306 6 -33 11 -127 12 -210 1 -225 -19 -256 -135 -204 -26 11 -70 41 -97 65 -28 25 -62 49 -75 54 -13 5 -35 27 -49 50 -23 37 -29 40 -69 40 -48 0 -87 24 -110 68 -8 15 -31 44 -50 65 -24 24 -36 47 -36 65 1 67 38 68 85 2 17 -25 54 -58 83 -75 29 -17 61 -45 72 -62 26 -43 54 -56 104 -50 82 11 95 70 34 157 -17 25 -45 70 -61 100 -17 30 -43 73 -58 95 -31 43 -99 262 -99 316 0 18 5 61 11 96 9 51 17 68 41 88 29 25 36 26 145 24 131 -2 149 5 116 48 -19 27 -24 28 -133 33 -108 5 -114 6 -133 31 -17 23 -18 32 -8 61 14 41 61 92 110 118 31 16 59 19 202 20 l166 0 49 -47z m1138 27 c37 -23 113 -109 125 -142 20 -56 -30 -104 -81 -77 -12 7 -53 13 -90 13 -53 1 -72 -3 -95 -20 -42 -32 -41 -50 4 -58 58 -9 159 -7 188 4 40 15 60 -2 79 -68 29 -105 15 -246 -35 -327 -10 -17 -32 -68 -49 -114 -19 -54 -44 -99 -70 -129 -22 -24 -40 -49 -40 -55 0 -5 -14 -38 -32 -73 -31 -62 -32 -63 -13 -83 14 -17 30 -21 76 -21 53 0 59 3 79 31 12 16 39 40 59 53 20 13 55 42 78 65 44 44 75 51 81 18 6 -31 -6 -60 -43 -102 -19 -22 -35 -43 -35 -46 0 -3 -26 -20 -59 -38 -32 -17 -66 -42 -74 -55 -9 -13 -40 -38 -70 -55 -30 -17 -85 -56 -123 -86 -38 -30 -78 -55 -89 -55 -56 0 -109 82 -95 146 4 21 8 86 8 144 0 61 5 117 12 135 14 34 26 77 40 149 7 35 30 76 79 145 86 120 91 131 91 179 0 31 -10 53 -43 98 -23 33 -50 71 -60 87 -16 24 -23 27 -73 27 l-56 0 -77 -82 c-209 -226 -223 -237 -266 -194 -23 23 -25 32 -25 126 0 112 10 146 59 198 17 18 35 50 41 72 7 26 24 51 53 74 23 20 64 54 90 76 26 22 60 43 75 46 15 3 32 7 37 9 6 2 77 4 159 4 131 1 152 -1 180 -19z m378 -867 c10 -9 18 -22 18 -30 0 -17 -44 -38 -64 -30 -29 11 -14 77 18 77 5 0 18 -7 28 -17z"
       id="path633" />
  </g>
  <path
     style="fill:#ffffff;stroke-width:0.575124"
     d="m 120.05891,300.76064 c -6.13584,-1.45404 -12.49976,-5.10419 -21.094707,-12.09927 -2.7626,-2.24837 -6.393287,-4.87019 -8.068192,-5.82625 -2.955446,-1.68703 -4.334496,-3.0944 -8.32596,-8.49692 -2.400981,-3.24978 -3.908366,-4.01063 -7.966897,-4.02126 -6.475144,-0.017 -10.476179,-2.39743 -14.810905,-8.81189 -1.53758,-2.27529 -4.520122,-6.20734 -6.62787,-8.73789 -2.107749,-2.53054 -4.116228,-5.54655 -4.463286,-6.70223 -1.237748,-4.12162 0.832188,-8.83915 3.56485,-8.12454 1.367106,0.3575 3.505165,2.4031 9.012512,8.62279 2.00776,2.26744 5.782893,5.54793 8.626866,7.49651 4.918605,3.37004 10.225307,8.37172 11.592323,10.92601 0.371115,0.69344 1.837757,1.94236 3.259202,2.77538 2.335257,1.36856 3.041261,1.49495 7.322258,1.31088 8.014086,-0.34458 11.526726,-3.02866 11.475146,-8.7684 -0.0356,-3.95651 -1.57172,-7.4586 -7.071882,-16.12207 -3.614262,-5.69293 -10.973181,-17.84303 -14.702092,-24.2742 -2.983736,-5.14598 -9.244067,-24.3386 -11.418018,-35.0048 -0.804225,-3.94582 -0.841159,-5.46091 -0.259375,-10.6398 1.358607,-12.09396 3.263713,-16.75986 8.169425,-20.00821 l 2.354367,-1.55896 14.996613,-0.30561 c 15.702932,-0.32 17.584672,-0.62927 17.584672,-2.89014 0,-1.64069 -2.8115,-5.65598 -4.61238,-6.58725 -1.9084,-0.98687 -4.51671,-1.2909 -17.45672,-2.0348 -6.062639,-0.34853 -11.05249,-0.91409 -12.164591,-1.37876 -2.344989,-0.97979 -4.874767,-4.59921 -4.874767,-6.97444 0,-5.16404 8.113497,-15.18405 15.066728,-18.60711 4.990227,-2.45668 9.818951,-2.90879 31.12316,-2.91404 l 17.72122,-0.004 12.88889,12.13535 c 13.4806,12.69247 19.68656,19.29107 21.48643,22.84585 0.58879,1.16288 2.03654,5.22 3.21722,9.01582 1.18068,3.79582 2.81551,8.19552 3.63296,9.77711 1.20892,2.339 1.48697,3.68056 1.49004,7.18906 0.006,6.7526 -2.26542,12.61649 -6.87102,17.73902 -3.19938,3.55848 -5.5674,4.97012 -7.02201,4.186 -1.92773,-1.03915 -15.49839,-15.38722 -22.40188,-23.68518 -10.22061,-12.28514 -15.06101,-15.60271 -22.83778,-15.65283 -2.24865,-0.0145 -4.63905,0.26833 -5.31199,0.62848 -0.67295,0.36015 -2.00449,2.01944 -2.95897,3.68732 -0.95449,1.66788 -3.07338,4.58535 -4.70864,6.48326 -9.742273,11.30696 -9.993608,25.00978 -0.66848,36.44555 4.1259,5.05977 8.45945,12.25526 13.03409,21.64201 5.29164,10.85799 7.55049,17.29615 8.43122,24.03054 0.97311,7.44079 0.99796,41.11305 0.0334,45.20858 -1.09652,4.65567 -2.30178,6.77149 -4.43361,7.78311 -2.10775,1.00019 -2.02825,0.99533 -4.95152,0.30259 z"
     id="path643"
     transform="scale(0.74999999)" />
  <path
     style="fill:#ffffff;stroke-width:0.575124"
     d="m 262.29745,301.29893 c -3.18921,-1.57863 -6.13993,-5.07239 -7.67723,-9.09011 -1.18276,-3.09116 -1.20377,-3.5568 -0.57294,-12.69837 0.36016,-5.21926 0.65391,-12.33642 0.65278,-15.81592 -0.003,-8.91937 0.85117,-15.32453 2.82014,-21.14951 0.93483,-2.76559 2.38502,-8.19654 3.22263,-12.06877 1.87996,-8.69084 3.87892,-12.63654 13.03629,-25.73197 9.05431,-12.94807 9.90391,-14.66298 10.15329,-20.49429 0.15984,-3.73765 -0.0314,-5.20161 -0.95101,-7.28057 -1.47245,-3.3287 -13.71847,-20.96521 -15.0534,-21.67964 -0.55532,-0.2972 -4.08984,-0.71444 -7.85449,-0.92719 l -6.84481,-0.38683 -15.30582,16.32604 c -18.01662,19.21755 -22.77671,23.50683 -26.09383,23.51296 -1.61918,0.003 -5.11412,-3.01499 -6.24066,-5.38899 -1.31578,-2.77281 -1.81072,-13.97688 -0.98133,-22.21482 0.74908,-7.44028 2.44335,-11.97715 5.93287,-15.88688 3.4496,-3.86502 5.41609,-6.95906 6.79487,-10.6909 2.07444,-5.61475 3.50149,-7.33792 12.12279,-14.63835 16.43523,-13.91719 15.79208,-13.70825 42.19714,-13.70825 21.25341,0 21.5627,0.0458 26.7006,3.9532 3.74519,2.84824 11.02723,11.03401 13.36699,15.0259 1.42255,2.427 1.65076,3.35284 1.46283,5.93456 -0.18257,2.50821 -0.55133,3.38761 -2.04819,4.88447 -1.56186,1.56186 -2.21906,1.81769 -4.55039,1.77129 -1.49868,-0.0298 -4.14831,-0.50292 -5.88806,-1.0513 -4.5954,-1.44851 -16.59262,-1.55297 -20.16107,-0.17554 -3.87228,1.4947 -7.20826,5.18129 -6.93792,7.66709 0.3178,2.92225 20.06672,3.96081 29.89529,1.57214 3.46982,-0.84328 3.73742,-0.83257 5.17612,0.20708 4.8314,3.49134 8.03162,18.98875 6.49017,31.42939 -1.00403,8.10322 -2.24932,12.20185 -6.40754,21.08918 -2.14599,4.58662 -5.12674,11.44497 -6.62388,15.2408 -3.26875,8.2875 -6.01367,13.1147 -10.30164,18.11641 -1.76267,2.05607 -3.70023,5.03234 -4.30568,6.61393 -0.60545,1.5816 -2.54464,5.85189 -4.3093,9.48956 -1.76466,3.63766 -3.21085,7.17638 -3.21375,7.86383 -0.008,1.86352 2.65667,4.67537 5.06403,5.344 3.23479,0.89843 12.5244,0.75028 14.3697,-0.22917 0.85417,-0.45338 2.68812,-2.15977 4.07546,-3.79199 1.38733,-1.63222 4.49,-4.42276 6.89482,-6.20121 2.40482,-1.77844 6.40745,-5.05407 8.89474,-7.27915 6.04724,-5.40977 7.8257,-6.63368 9.63932,-6.63368 3.1643,0 3.59564,5.28681 0.82115,10.06468 -1.31752,2.26886 -6.48613,8.94619 -9.16154,11.83581 -0.75547,0.81597 -4.16501,3.11193 -7.57675,5.10213 -3.58306,2.09015 -7.43461,4.88013 -9.11866,6.60537 -3.46762,3.55242 -5.90093,5.41746 -12.30807,9.43368 -2.63537,1.65194 -7.87511,5.33201 -11.64389,8.17794 -7.46753,5.63898 -12.98104,9.16492 -14.3337,9.16652 -0.47448,5.6e-4 -1.96779,-0.54599 -3.31847,-1.21456 z"
     id="path645"
     transform="scale(0.74999999)" />
  <path
     style="fill:#ffffff;stroke-width:0.575124"
     d="m 340.18366,235.89949 c -2.11162,-2.33332 -0.17023,-8.72536 2.65007,-8.72536 2.62975,0 6.56465,4.19336 5.89999,6.28752 -0.38659,1.21805 -4.57292,3.48959 -6.43114,3.48959 -0.6419,0 -1.59541,-0.47329 -2.11892,-1.05175 z"
     id="path647"
     transform="scale(0.74999999)" />
</svg>
