<?xml version="1.0" standalone="no"?>
<!DOCTYPE svg PUBLIC "-//W3C//DTD SVG 20010904//EN"
 "http://www.w3.org/TR/2001/REC-SVG-20010904/DTD/svg10.dtd">
<svg version="1.0" xmlns="http://www.w3.org/2000/svg"
 width="300.000000pt" height="300.000000pt" viewBox="0 0 300.000000 300.000000"
 preserveAspectRatio="xMidYMid meet">
<metadata>
Created by potrace 1.16, written by Peter Selinger 2001-2019
</metadata>
<g transform="translate(0.000000,300.000000) scale(0.100000,-0.100000)"
fill="#000000" stroke="none">
<path d="M275 2718 c-3 -7 -4 -562 -3 -1233 l3 -1220 1225 0 1225 0 0 1230 0
1230 -1223 3 c-973 2 -1224 0 -1227 -10z m1055 -243 c40 -11 79 -14 140 -9
204 15 446 -51 620 -169 188 -127 326 -320 396 -552 26 -83 28 -103 28 -265 0
-162 -2 -182 -28 -265 -110 -363 -381 -619 -741 -701 -110 -25 -311 -25 -420
0 -368 85 -648 353 -745 711 -31 115 -38 323 -15 436 41 204 124 363 268 517
28 28 53 52 58 52 4 0 11 -10 15 -22 4 -13 20 -35 36 -50 l30 -28 -70 -74
c-215 -231 -283 -543 -184 -839 43 -127 102 -220 206 -322 101 -100 194 -158
316 -199 506 -167 1037 176 1088 704 34 348 -142 670 -452 825 -119 59 -186
76 -327 82 l-116 5 -39 -46 c-52 -63 -115 -86 -254 -92 -126 -6 -155 2 -175
51 -8 19 -15 39 -15 44 0 16 115 146 156 178 55 41 137 52 224 28z"/>
</g>
</svg>
