<?xml version="1.0" standalone="no"?>
<!DOCTYPE svg PUBLIC "-//W3C//DTD SVG 20010904//EN"
 "http://www.w3.org/TR/2001/REC-SVG-20010904/DTD/svg10.dtd">
<svg version="1.0" xmlns="http://www.w3.org/2000/svg"
 width="238.000000pt" height="238.000000pt" viewBox="0 0 238.000000 238.000000"
 preserveAspectRatio="xMidYMid meet">
<metadata>
Created by potrace 1.16, written by Peter Selinger 2001-2019
</metadata>
<g transform="translate(0.000000,238.000000) scale(0.100000,-0.100000)"
fill="#000000" stroke="none">
<path d="M617 1772 l-577 -577 578 -578 577 -577 580 580 580 580 -575 575
c-316 316 -577 575 -580 575 -3 0 -265 -260 -583 -578z m553 129 c174 -10 276
-40 388 -114 217 -145 342 -417 303 -665 -44 -286 -241 -506 -516 -577 -67
-17 -245 -20 -315 -5 -123 27 -250 99 -343 194 -76 77 -129 165 -164 271 -46
142 -36 354 24 484 29 62 99 164 141 205 l40 38 30 -33 30 -33 -58 -63 c-207
-226 -198 -576 20 -793 111 -111 252 -170 410 -170 156 0 277 50 396 163 120
113 177 250 177 422 -1 112 -34 218 -99 317 -101 151 -279 248 -457 248 -63 0
-70 -2 -95 -29 -42 -46 -89 -61 -191 -61 -85 0 -92 1 -107 25 -22 33 -13 51
55 119 61 60 101 79 156 70 17 -2 95 -8 175 -13z"/>
</g>
</svg>
