<?xml version="1.0" encoding="UTF-8" standalone="no"?>
<svg
   xmlns:dc="http://purl.org/dc/elements/1.1/"
   xmlns:cc="http://creativecommons.org/ns#"
   xmlns:rdf="http://www.w3.org/1999/02/22-rdf-syntax-ns#"
   xmlns:svg="http://www.w3.org/2000/svg"
   xmlns="http://www.w3.org/2000/svg"
   xmlns:sodipodi="http://sodipodi.sourceforge.net/DTD/sodipodi-0.dtd"
   xmlns:inkscape="http://www.inkscape.org/namespaces/inkscape"
   version="1.0"
   width="238.000000pt"
   height="238.000000pt"
   viewBox="0 0 238.000000 238.000000"
   preserveAspectRatio="xMidYMid meet"
   id="svg729"
   sodipodi:docname="temporissup.svg"
   inkscape:version="1.0.1 (3bc2e813f5, 2020-09-07)">
  <defs
     id="defs733" />
  <sodipodi:namedview
     pagecolor="#ffffff"
     bordercolor="#666666"
     borderopacity="1"
     objecttolerance="10"
     gridtolerance="10"
     guidetolerance="10"
     inkscape:pageopacity="0"
     inkscape:pageshadow="2"
     inkscape:window-width="1600"
     inkscape:window-height="837"
     id="namedview731"
     showgrid="false"
     inkscape:zoom="2.1113445"
     inkscape:cx="158.66667"
     inkscape:cy="158.66667"
     inkscape:window-x="-8"
     inkscape:window-y="-8"
     inkscape:window-maximized="1"
     inkscape:current-layer="svg729" />
  <metadata
     id="metadata723">
Created by potrace 1.16, written by Peter Selinger 2001-2019
<rdf:RDF>
  <cc:Work
     rdf:about="">
    <dc:format>image/svg+xml</dc:format>
    <dc:type
       rdf:resource="http://purl.org/dc/dcmitype/StillImage" />
  </cc:Work>
</rdf:RDF>
</metadata>
  <g
     transform="translate(0.000000,238.000000) scale(0.100000,-0.100000)"
     fill="#000000"
     stroke="none"
     id="g727">
    <path
       d="M617 1772 l-577 -577 578 -578 577 -577 580 580 580 580 -575 575 c-316 316 -577 575 -580 575 -3 0 -265 -260 -583 -578z m553 129 c174 -10 276 -40 388 -114 217 -145 342 -417 303 -665 -44 -286 -241 -506 -516 -577 -67 -17 -245 -20 -315 -5 -123 27 -250 99 -343 194 -76 77 -129 165 -164 271 -46 142 -36 354 24 484 29 62 99 164 141 205 l40 38 30 -33 30 -33 -58 -63 c-207 -226 -198 -576 20 -793 111 -111 252 -170 410 -170 156 0 277 50 396 163 120 113 177 250 177 422 -1 112 -34 218 -99 317 -101 151 -279 248 -457 248 -63 0 -70 -2 -95 -29 -42 -46 -89 -61 -191 -61 -85 0 -92 1 -107 25 -22 33 -13 51 55 119 61 60 101 79 156 70 17 -2 95 -8 175 -13z"
       id="path725" />
  </g>
  <path
     style="fill:#ffffff;stroke-width:0.473632"
     d="m 141.91452,245.78633 c -9.77494,-1.13481 -23.68853,-6.66473 -34.16328,-13.5781 -23.374619,-15.42734 -38.090071,-38.75383 -40.984864,-64.96798 -0.821295,-7.43734 -0.370274,-22.40038 0.886588,-29.41338 2.49312,-13.91105 6.199961,-22.18021 16.343731,-36.45935 3.47267,-4.888392 11.989738,-14.219261 12.979115,-14.219261 0.215242,0 2.05566,1.818502 4.08982,4.041115 l 3.69847,4.041115 -3.24275,3.419165 c -5.386573,5.679626 -9.183854,10.284116 -11.788243,14.294116 -8.871504,13.65956 -13.044995,28.79539 -12.397616,44.96192 0.802531,20.04101 8.383023,37.31675 22.572106,51.44121 6.744723,6.714 11.991653,10.61091 19.342133,14.36545 10.77487,5.50365 20.13258,7.86919 32.62749,8.24792 23.58078,0.71473 39.63313,-5.78289 57.03557,-23.08665 11.84422,-11.77707 17.38581,-21.86065 20.88343,-37.99983 0.91639,-4.22852 1.05575,-6.29263 1.06405,-15.75936 0.008,-9.51924 -0.12316,-11.49988 -1.04237,-15.69984 -6.58645,-30.09405 -28.65077,-52.552797 -58.36317,-59.406482 -5.55805,-1.282061 -20.08099,-1.865426 -22.94109,-0.92151 -0.98318,0.324478 -3.12654,1.899586 -4.8836,3.588841 -5.9696,5.739247 -10.27584,7.192381 -22.62682,7.635395 -10.83165,0.388517 -13.25111,0.06374 -15.24071,-2.045858 -0.84557,-0.89656 -1.77958,-2.438451 -2.07558,-3.426425 -0.72408,-2.416744 0.28034,-4.346631 4.83721,-9.294272 5.52841,-6.002494 9.81521,-9.619137 13.64983,-11.515955 3.28134,-1.62313 3.81356,-1.742043 7.57811,-1.693144 6.06575,0.07879 35.7553,2.425777 41.52635,3.282696 19.0056,2.822059 34.5097,10.353794 48.11077,23.37172 14.24737,13.636514 23.58823,30.401304 27.73286,49.774414 1.16261,5.43436 1.26875,6.82208 1.26875,16.58723 0,9.8412 -0.10026,11.12791 -1.31023,16.81393 -5.5301,25.98777 -19.62281,46.84246 -40.95002,60.59874 -7.46452,4.8147 -19.60893,9.93783 -28.04499,11.83082 -6.90358,1.5491 -27.30298,2.22114 -36.17105,1.1916 z"
     id="path735"
     transform="scale(0.74999998)" />
</svg>
