<?xml version="1.0" encoding="UTF-8" standalone="no"?>
<svg
   xmlns:dc="http://purl.org/dc/elements/1.1/"
   xmlns:cc="http://creativecommons.org/ns#"
   xmlns:rdf="http://www.w3.org/1999/02/22-rdf-syntax-ns#"
   xmlns:svg="http://www.w3.org/2000/svg"
   xmlns="http://www.w3.org/2000/svg"
   xmlns:sodipodi="http://sodipodi.sourceforge.net/DTD/sodipodi-0.dtd"
   xmlns:inkscape="http://www.inkscape.org/namespaces/inkscape"
   version="1.0"
   width="238.000000pt"
   height="238.000000pt"
   viewBox="0 0 238.000000 238.000000"
   preserveAspectRatio="xMidYMid meet"
   id="svg933"
   sodipodi:docname="thanatosissup.svg"
   inkscape:version="1.0.1 (3bc2e813f5, 2020-09-07)">
  <defs
     id="defs937" />
  <sodipodi:namedview
     pagecolor="#ffffff"
     bordercolor="#666666"
     borderopacity="1"
     objecttolerance="10"
     gridtolerance="10"
     guidetolerance="10"
     inkscape:pageopacity="0"
     inkscape:pageshadow="2"
     inkscape:window-width="1600"
     inkscape:window-height="837"
     id="namedview935"
     showgrid="false"
     inkscape:zoom="2.1113445"
     inkscape:cx="158.66667"
     inkscape:cy="158.66667"
     inkscape:window-x="-8"
     inkscape:window-y="-8"
     inkscape:window-maximized="1"
     inkscape:current-layer="svg933" />
  <metadata
     id="metadata889">
Created by potrace 1.16, written by Peter Selinger 2001-2019
<rdf:RDF>
  <cc:Work
     rdf:about="">
    <dc:format>image/svg+xml</dc:format>
    <dc:type
       rdf:resource="http://purl.org/dc/dcmitype/StillImage" />
  </cc:Work>
</rdf:RDF>
</metadata>
  <g
     transform="translate(0.000000,238.000000) scale(0.100000,-0.100000)"
     fill="#000000"
     stroke="none"
     id="g931">
    <path
       d="M617 1772 l-577 -577 578 -578 577 -577 580 580 580 580 -575 575 c-316 316 -577 575 -580 575 -3 0 -265 -260 -583 -578z m475 87 c26 -32 30 -47 38 -135 13 -158 81 -444 104 -444 6 1 29 13 51 28 39 27 40 31 58 122 10 52 26 151 37 220 15 102 23 128 41 142 30 25 66 22 94 -7 30 -29 30 -28 5 -146 -12 -52 -25 -129 -31 -172 -5 -42 -21 -120 -34 -172 -24 -93 -29 -159 -16 -220 8 -39 68 -58 171 -52 70 3 84 8 197 68 l122 64 28 -21 c31 -23 42 -67 22 -91 -21 -25 -121 -89 -162 -104 -20 -7 -45 -25 -54 -39 -9 -14 -28 -34 -42 -45 -106 -83 -126 -107 -173 -208 l-46 -102 -288 0 -289 0 -57 170 c-31 94 -57 181 -57 194 -1 16 -29 51 -89 110 -66 66 -97 105 -128 166 -57 110 -60 129 -30 160 29 29 67 32 88 8 8 -10 31 -52 51 -93 23 -49 54 -93 87 -125 l51 -50 20 24 c10 13 22 34 25 47 8 31 -89 422 -121 492 -14 29 -25 61 -25 72 0 27 35 60 64 60 63 0 109 -88 156 -295 27 -121 61 -215 77 -215 21 0 16 66 -17 244 -16 89 -34 188 -39 221 -6 33 -13 74 -17 92 -5 24 -1 36 16 53 32 32 76 24 112 -21z"
       id="path891" />
    <path
       d="M1022 1773 c3 -39 20 -51 47 -34 11 7 10 14 -8 40 -30 41 -43 39 -39 -6z"
       id="path893" />
    <path
       d="M1440 1721 c-20 -30 -20 -30 -1 -40 32 -18 41 -13 41 23 0 47 -14 52 -40 17z"
       id="path895" />
    <path
       d="M810 1659 c12 -39 15 -43 35 -35 15 5 14 9 -5 36 -28 39 -41 38 -30 -1z"
       id="path897" />
    <path
       d="M1030 1682 c0 -5 5 -34 11 -65 11 -51 14 -57 37 -57 24 0 24 1 17 58 -4 31 -9 60 -12 65 -6 10 -53 9 -53 -1z"
       id="path899" />
    <path
       d="M1417 1623 c-3 -5 -8 -29 -12 -55 -6 -41 -5 -48 9 -48 17 0 28 22 41 78 6 28 4 32 -14 32 -11 0 -22 -3 -24 -7z"
       id="path901" />
    <path
       d="M852 1561 c-10 -6 -11 -20 -7 -47 12 -68 15 -76 30 -64 7 6 20 8 29 4 20 -8 20 -3 -1 63 -18 53 -26 60 -51 44z"
       id="path903" />
    <path
       d="M1060 1505 c0 -6 12 -68 26 -140 14 -71 24 -143 22 -160 -2 -21 2 -29 11 -27 7 1 20 -3 29 -10 13 -11 15 -9 10 22 -3 19 -14 95 -24 168 -14 107 -21 132 -34 132 -9 0 -21 5 -28 12 -7 7 -12 8 -12 3z"
       id="path905" />
    <path
       d="M1385 1438 c-3 -13 -18 -76 -34 -141 l-28 -118 25 3 c24 3 27 11 53 118 35 141 36 160 9 160 -12 0 -22 -9 -25 -22z"
       id="path907" />
    <path
       d="M902 1382 c-16 -2 -21 -9 -18 -20 4 -15 39 -163 51 -219 6 -24 20 -30 30 -13 3 6 15 10 25 10 10 0 21 4 25 9 5 10 -70 221 -83 232 -4 3 -17 3 -30 1z"
       id="path909" />
    <path
       d="M603 1270 c10 -38 29 -51 41 -31 8 12 -26 71 -40 71 -8 0 -8 -11 -1 -40z"
       id="path911" />
    <path
       d="M650 1195 c-17 -21 22 -75 50 -68 25 7 25 8 -1 49 -23 38 -31 41 -49 19z"
       id="path913" />
    <path
       d="M1110 1101 c0 -15 69 -461 75 -489 4 -17 12 -22 28 -20 19 3 22 9 20 43 -3 57 -65 449 -72 456 -12 13 -51 20 -51 10z"
       id="path915" />
    <path
       d="M1305 1017 c-3 -50 -10 -137 -15 -192 -14 -158 -15 -204 -2 -217 9 -9 15 -9 23 -1 11 11 67 479 58 487 -2 2 -16 6 -30 10 l-27 6 -7 -93z"
       id="path917" />
    <path
       d="M743 1081 c-10 -16 -7 -23 16 -45 32 -31 37 -31 59 -10 15 16 14 19 -18 45 -41 34 -42 34 -57 10z"
       id="path919" />
    <path
       d="M1888 1080 c-34 -10 -135 -68 -144 -81 -3 -6 -1 -16 5 -22 13 -13 100 26 157 70 51 39 44 52 -18 33z"
       id="path921" />
    <path
       d="M1007 1073 c-4 -3 -17 -7 -30 -8 -12 -2 -21 -6 -21 -11 2 -11 89 -336 110 -411 13 -49 17 -53 44 -53 17 0 30 3 30 6 0 7 -99 439 -106 467 -6 18 -16 22 -27 10z"
       id="path923" />
    <path
       d="M847 983 c-12 -3 -16 -10 -12 -21 10 -26 125 -365 125 -369 0 -2 8 -3 18 -3 42 0 40 19 -18 173 -31 84 -63 169 -69 190 -7 20 -16 36 -19 36 -4 -1 -15 -3 -25 -6z"
       id="path925" />
    <path
       d="M1593 921 c-82 -56 -96 -71 -68 -71 8 0 15 -4 15 -10 0 -21 26 -8 97 46 63 48 71 58 62 75 -5 10 -13 19 -17 18 -4 -1 -44 -27 -89 -58z"
       id="path927" />
    <path
       d="M1405 710 c-42 -85 -47 -102 -35 -110 8 -5 18 -10 21 -10 13 0 121 192 113 200 -5 4 -18 11 -29 14 -18 5 -27 -7 -70 -94z"
       id="path929" />
  </g>
  <path
     style="fill:#ffffff;stroke-width:0.473632"
     d="m 123.4667,244.03881 c -0.11391,-0.19538 -2.77626,-8.13463 -5.91633,-17.64279 -4.86494,-14.73112 -7.06669,-21.93037 -9.56317,-31.26959 -0.56491,-2.1133 -3.72212,-5.90874 -12.599649,-15.14667 -3.880367,-4.03789 -8.120884,-8.72607 -9.423372,-10.41817 -4.853664,-6.30553 -12.246986,-20.85734 -12.856577,-25.30479 -0.440277,-3.21217 2.201789,-6.91467 6.092111,-8.53727 5.193131,-2.16599 7.141584,-0.43067 13.284816,11.83166 4.446148,8.87483 7.959631,13.82419 14.238991,20.05812 l 5.42969,5.39042 1.4368,-1.60136 c 0.79024,-0.88074 2.14428,-2.76734 3.00897,-4.19244 1.40871,-2.3217 1.56665,-2.93722 1.51909,-5.9204 -0.0616,-3.86326 -1.49174,-11.03021 -5.43726,-27.24772 -4.86787,-20.00871 -8.00932,-30.66332 -11.45112,-38.83781 -3.265295,-7.755297 -2.411124,-11.461398 3.23762,-14.04748 2.82549,-1.293552 4.0075,-1.19087 7.19091,0.624683 5.81222,3.314801 10.02213,13.115346 15.98462,37.211727 4.89252,19.77223 8.16685,28.8346 10.54028,29.17227 1.6414,0.23352 2.15728,-1.7274 1.85093,-7.0356 -0.3696,-6.4042 -1.48069,-13.14366 -9.82251,-59.579702 -1.87938,-10.461835 -1.89066,-10.593857 -1.0497,-12.284002 1.29727,-2.607223 3.93238,-4.468228 6.70391,-4.734537 1.93167,-0.185609 2.76556,0.0075 4.78972,1.109189 2.62925,1.431019 5.45619,4.477752 6.99566,7.539571 1.28688,2.559453 1.82689,5.342453 2.71409,13.987223 1.32881,12.947958 3.88154,27.243038 7.3556,41.190888 3.0893,12.40306 5.18064,18.07966 6.77383,18.38648 1.09749,0.21136 7.0273,-3.30978 9.65881,-5.73541 3.18321,-2.93418 3.84004,-5.61758 8.90555,-36.38242 1.69872,-10.317015 3.41123,-19.844669 3.80557,-21.172563 1.18107,-3.977099 3.61373,-6.249458 7.46349,-6.971676 2.34519,-0.439961 6.32088,1.477427 8.61098,4.152893 1.48281,1.732331 1.66991,2.250215 1.66991,4.622282 0,1.469253 -1.0519,7.878203 -2.33755,14.24211 -1.28565,6.363904 -2.89723,15.186084 -3.58128,19.604844 -1.62413,10.49132 -2.27004,13.84606 -4.74538,24.64649 -1.13436,4.94946 -2.3166,10.7756 -2.62721,12.94699 -0.6601,4.61466 -0.36583,15.73172 0.4722,17.83908 1.40428,3.53126 4.95013,5.43811 11.92319,6.41191 4.7359,0.66137 14.81202,0.25495 19.43307,-0.78383 3.31487,-0.74517 11.59316,-4.63885 25.48231,-11.98558 9.18119,-4.85643 8.67052,-4.78581 12.24076,-1.69278 2.67973,2.32155 3.89113,4.7753 3.89113,7.88167 0,2.33995 -0.12504,2.59463 -2.30614,4.69693 -3.28234,3.16375 -11.69335,8.61184 -18.06003,11.69806 -6.52115,3.16111 -7.86545,4.12692 -10.38006,7.4575 -1.05759,1.40076 -4.1101,4.31474 -6.78335,6.47551 -7.00453,5.66169 -12.40972,10.99068 -14.77257,14.56432 -2.30065,3.47958 -5.91516,10.62804 -9.776,19.33415 l -2.5726,5.80113 -38.21781,9.5e-4 c -21.0198,4.7e-4 -38.31103,-0.159 -38.42494,-0.35437 z m 10.30046,-6.07264 c 1.97779,-1.97778 1.55367,-3.34396 -15.16858,-48.86091 -0.40518,-1.10285 -1.09723,-2.45045 -1.53791,-2.99467 -0.73863,-0.91217 -0.97524,-0.94567 -3.02808,-0.42876 -3.49586,0.88027 -3.61436,1.2683 -1.92286,6.29651 0.80337,2.38813 4.53782,13.40027 8.29876,24.47141 3.76095,11.07115 6.96079,20.60891 7.11075,21.19503 0.24143,0.94357 0.57235,1.06567 2.88816,1.06567 1.7462,0 2.86285,-0.24737 3.35976,-0.74428 z m 18.11948,-0.0237 c 0.16209,-0.42241 -0.8121,-5.69748 -2.16486,-11.72239 -7.51084,-33.45163 -11.6101,-50.85838 -12.20001,-51.80512 -0.75699,-1.2149 -2.09152,-1.36549 -3.61903,-0.40839 -0.57695,0.36151 -1.89762,0.8067 -2.93482,0.9893 -2.48065,0.43675 -3.56095,1.05024 -3.56095,2.02224 0,0.87538 2.65739,10.99044 10.46727,39.84245 5.35239,19.77332 5.31412,19.64938 6.4921,21.02106 0.99734,1.16132 7.07912,1.21052 7.5203,0.0608 z m 12.16573,-0.17062 c 1.30286,-1.31523 -0.48737,-16.96447 -5.1754,-45.24047 -3.29788,-19.89129 -3.45947,-20.57661 -5.08485,-21.56506 -1.78646,-1.08642 -4.99499,-1.67227 -5.63783,-1.02943 -0.53571,0.53571 -0.079,3.94378 4.63316,34.57209 4.40824,28.653 5.18608,32.86654 6.20894,33.63324 0.96918,0.72649 4.20419,0.48951 5.05598,-0.37037 z m 23.54698,-1.07431 c 3.76455,-5.16205 13.22055,-22.56318 13.22055,-24.32872 0,-0.79986 -3.36651,-2.54988 -4.9052,-2.54988 -1.92727,0 -3.88048,2.86292 -8.9313,13.09109 -5.55485,11.24888 -6.20028,13.75998 -3.86227,15.02658 2.11431,1.14541 2.89727,0.92878 4.47822,-1.23907 z m -12.9703,0.21563 c 0.77041,-0.4897 2.16097,-8.61921 4.14838,-24.25244 1.99268,-15.67459 3.42626,-29.15237 3.8591,-36.28129 l 0.31928,-5.25841 -3.89988,-1.0523 c -2.14492,-0.57876 -4.00504,-0.94712 -4.13358,-0.81857 -0.12855,0.12854 -0.74127,7.01791 -1.3616,15.3097 -0.62034,8.2918 -1.5611,20.16535 -2.09058,26.38568 -1.0794,12.68055 -1.25498,23.00925 -0.41817,24.59906 0.88234,1.6763 2.26231,2.20427 3.57705,1.36857 z m 35.5964,-31.67618 c 6.12834,-3.56765 17.12079,-12.86147 17.11606,-14.47116 -0.003,-0.94044 -1.81517,-3.68118 -2.64485,-3.99956 -0.48027,-0.1843 -3.93771,1.86039 -9.69013,5.73061 -9.20307,6.1918 -13.88404,9.94037 -13.57463,10.87069 0.0971,0.29203 0.79638,0.63927 1.55389,0.77165 0.91007,0.15904 1.59494,0.69479 2.01889,1.57935 0.5402,1.12707 0.84037,1.28978 1.89906,1.0294 0.6916,-0.17009 2.18637,-0.85003 3.32171,-1.51098 z m 27.30092,-18.20311 c 7.09018,-1.94263 22.17544,-12.01848 21.42381,-14.30954 -0.84022,-2.56111 -13.02215,1.98537 -23.30386,8.69734 -3.67788,2.40095 -4.15346,3.20797 -3.07642,5.22043 0.56072,1.04773 2.1142,1.17052 4.95647,0.39177 z m -130.01717,-4.9197 c 0.75274,-0.38926 1.70126,-1.18266 2.10782,-1.7631 1.36717,-1.9519 0.93319,-2.97872 -2.45782,-5.81537 -3.68134,-3.07952 -5.46491,-4.12784 -6.40755,-3.76611 -0.809779,0.31074 -2.709859,3.5904 -2.709859,4.6774 0,1.46282 6.180859,7.36595 7.720039,7.37315 0.20831,9.5e-4 0.99462,-0.31671 1.74737,-0.70597 z m 21.31866,-15.15893 c 0.61181,-0.65124 1.55479,-1.18526 2.09549,-1.18672 0.54072,-0.001 1.80896,-0.23195 2.81833,-0.51221 1.82685,-0.50725 1.83396,-0.51864 1.56184,-2.50403 -0.55232,-4.02953 -8.13268,-25.14305 -10.28706,-28.65243 -0.95437,-1.55463 -1.04651,-1.59013 -3.58127,-1.37993 -4.52422,0.37518 -4.49644,0.17606 -1.68361,12.06749 1.34354,5.67987 2.98921,12.77808 3.65706,15.7738 1.7055,7.65029 2.90712,9.06805 5.41922,6.39403 z m -33.363161,-0.45074 c 0.896741,-0.67063 0.87856,-0.7655 -0.738331,-3.85269 -0.911741,-1.74082 -2.427562,-4.03664 -3.368491,-5.10182 -1.580307,-1.78899 -1.804155,-1.89414 -2.935148,-1.37883 -0.673404,0.30683 -1.586186,1.11006 -2.028406,1.78498 -0.698316,1.06577 -0.725929,1.48781 -0.210008,3.2098 1.081024,3.60814 3.751462,6.01758 6.675409,6.023 0.927077,0.002 2.099315,-0.30628 2.604975,-0.68444 z m 59.412911,-5.18447 c 0,-1.75295 -5.17447,-37.21868 -5.74262,-39.35981 -0.58452,-2.20283 -1.6444,-3.55224 -2.79006,-3.55224 -0.44428,0 -1.59295,-0.53284 -2.5526,-1.18408 -2.0616,-1.39904 -2.65063,-1.47804 -2.64839,-0.35522 9.5e-4,0.45587 0.97018,5.83751 2.15393,11.9592 2.86946,14.83918 3.99056,22.25484 3.99662,26.43611 0.006,4.12364 0.50856,5.2963 2.27143,5.29972 0.7072,0.001 1.92522,0.41206 2.70672,0.91264 1.92534,1.23327 2.60497,1.19249 2.60497,-0.15632 z m 26.97704,-1.93055 c 1.22426,-0.75663 2.54505,-4.69925 5.18519,-15.47806 4.65285,-18.99604 4.76652,-21.24075 1.07556,-21.24075 -1.17519,0 -2.11319,0.31152 -2.61819,0.86952 -0.47411,0.52389 -2.48012,7.88153 -5.04653,18.50967 -2.3428,9.70208 -4.25964,17.80049 -4.25964,17.99647 0,0.39829 4.87031,-0.16656 5.66361,-0.65685 z m -96.222013,-6.5011 c 0.88841,-0.88841 0.675637,-2.56392 -0.666619,-5.24938 -1.513956,-3.02897 -3.370805,-5.0758 -4.604689,-5.0758 -0.849072,0 -0.901437,0.23619 -0.6294,2.83891 0.318763,3.04975 1.302192,5.84657 2.534666,7.20844 0.879647,0.972 2.535224,1.10864 3.366042,0.27783 z m 31.142583,-28.61992 c 0.88953,-0.58284 1.75015,-0.69416 3.53558,-0.45732 2.24448,0.29775 2.35985,0.25916 2.35985,-0.78941 0,-1.37406 -2.06499,-8.56425 -3.2608,-11.35397 -1.61625,-3.77056 -3.47127,-4.61725 -5.91115,-2.69804 -1.0893,0.85684 -1.24665,1.32349 -1.2377,3.67065 0.017,4.4486 2.03224,12.39846 3.14301,12.39846 0.10752,0 0.72456,-0.34667 1.37121,-0.77037 z m 74.21555,-10.76565 c 1.18938,-1.45906 3.2305,-8.14538 3.34096,-10.94436 l 0.0941,-2.3853 h -2.59859 c -2.36617,0 -2.65429,0.11621 -3.22131,1.29926 -0.3425,0.71459 -0.98191,3.77103 -1.42092,6.79208 -0.77991,5.36689 -0.7772,5.50819 0.11786,6.16267 1.11041,0.81195 2.57088,0.44589 3.68786,-0.92435 z m -44.34982,-5.31605 c 0.16871,-0.67222 -0.14125,-4.34749 -0.68881,-8.16728 -0.74639,-5.206829 -1.19919,-7.093954 -1.80915,-7.539971 -1.06437,-0.778287 -6.05423,-0.780438 -6.66575,-0.0029 -0.51535,0.655277 0.66298,8.314121 2.00162,13.010031 0.94678,3.32131 1.6496,3.92233 4.58672,3.92233 2.04372,0 2.29902,-0.12116 2.57537,-1.22222 z m -33.4118,-7.31982 c 0.50387,-0.26966 0.91612,-0.85959 0.91612,-1.310951 0,-1.59974 -4.71923,-7.671392 -5.96263,-7.671392 -0.76353,0 -1.13175,1.085379 -0.82808,2.440885 0.51175,2.284315 1.72213,5.867908 2.17506,6.439708 0.56935,0.71879 2.44994,0.77051 3.69953,0.10175 z m 83.78503,-7.056678 c 0.62012,-1.158714 0.63848,-6.210579 0.0284,-7.815229 -0.91512,-2.406967 -3.22186,-1.303533 -6.12557,2.930184 -1.51999,2.216211 -1.16174,3.464121 1.35948,4.7355 2.59254,1.307337 4.09273,1.354691 4.73771,0.149545 z m -54.90111,-7.858226 c 2.07052,-1.070704 1.86705,-2.797856 -0.74806,-6.35024 -3.31575,-4.50412 -5.44282,-4.726062 -5.42137,-0.565673 0.033,6.400594 2.28472,8.924774 6.16943,6.915913 z"
     id="path939"
     transform="scale(0.74999998)" />
</svg>
