<?xml version="1.0" standalone="no"?>
<!DOCTYPE svg PUBLIC "-//W3C//DTD SVG 20010904//EN"
 "http://www.w3.org/TR/2001/REC-SVG-20010904/DTD/svg10.dtd">
<svg version="1.0" xmlns="http://www.w3.org/2000/svg"
 width="300.000000pt" height="300.000000pt" viewBox="0 0 300.000000 300.000000"
 preserveAspectRatio="xMidYMid meet">
<metadata>
Created by potrace 1.16, written by Peter Selinger 2001-2019
</metadata>
<g transform="translate(0.000000,300.000000) scale(0.100000,-0.100000)"
fill="#000000" stroke="none">
<path d="M280 2725 c0 -3 0 -555 0 -1227 l0 -1223 1220 -3 1220 -2 0 1230 0
1230 -1220 0 c-671 0 -1220 -2 -1220 -5z m928 -347 c50 -53 69 -110 76 -233 3
-60 13 -139 21 -175 8 -36 28 -130 45 -210 41 -191 68 -273 86 -266 8 3 40 23
72 45 l58 39 32 174 c18 96 39 228 48 294 20 157 20 158 49 192 49 58 128 46
163 -26 l19 -37 -38 -185 c-21 -102 -38 -201 -38 -221 -1 -45 -35 -212 -62
-308 -18 -61 -21 -92 -17 -183 2 -60 9 -113 15 -119 24 -24 157 -49 228 -44
109 9 149 23 301 107 78 43 151 78 163 78 63 0 112 -63 95 -122 -12 -40 -145
-138 -243 -179 -51 -21 -71 -35 -86 -63 -12 -19 -34 -45 -50 -57 -17 -13 -69
-58 -117 -102 -92 -83 -101 -98 -169 -268 -18 -46 -38 -87 -43 -91 -6 -4 -191
-8 -411 -8 -220 0 -405 4 -410 8 -6 4 -28 63 -49 132 -20 69 -51 161 -66 205
-16 44 -36 109 -45 145 -26 104 -32 115 -127 201 -93 86 -138 144 -205 270
-72 136 -77 211 -14 244 74 38 102 15 176 -139 46 -98 68 -131 124 -187 37
-38 75 -69 84 -69 11 0 24 14 32 34 8 19 19 37 25 41 14 9 12 60 -5 124 -8 31
-44 175 -80 321 -47 188 -74 280 -95 317 -39 68 -39 106 -1 144 39 39 84 39
138 0 34 -24 44 -41 71 -117 38 -110 62 -195 97 -349 15 -66 36 -142 47 -170
11 -27 24 -61 29 -74 7 -18 12 -21 23 -12 27 23 23 81 -30 381 -30 167 -54
316 -54 330 0 14 -7 46 -16 71 -20 55 -13 91 23 125 39 36 91 33 131 -8z"/>
<path d="M1133 2225 c2 -76 4 -77 64 -54 l24 9 -20 28 c-11 15 -31 41 -45 57
l-26 30 3 -70z"/>
<path d="M1738 2149 c-16 -21 -28 -43 -28 -48 0 -10 68 -36 75 -29 6 6 -7 118
-14 118 -3 -1 -18 -19 -33 -41z"/>
<path d="M817 2080 c11 -63 21 -80 47 -80 40 0 38 13 -9 66 l-44 49 6 -35z"/>
<path d="M1143 2078 c25 -149 31 -178 38 -178 4 0 10 4 13 9 3 4 17 6 32 3 22
-4 25 -2 21 14 -3 11 -11 53 -17 94 -15 89 -17 95 -36 79 -11 -9 -18 -9 -26
-1 -21 21 -30 13 -25 -20z"/>
<path d="M1696 2009 c-6 -21 -26 -131 -26 -145 0 -8 11 -12 27 -11 24 2 29 9
45 62 23 77 23 99 2 91 -9 -4 -23 -1 -30 5 -10 9 -15 8 -18 -2z"/>
<path d="M905 1920 c-4 -6 -16 -8 -27 -4 -18 5 -20 3 -15 -22 4 -16 12 -59 18
-96 12 -70 21 -81 38 -51 7 14 13 15 34 6 14 -7 27 -9 30 -7 7 8 -53 184 -63
184 -5 0 -12 -5 -15 -10z"/>
<path d="M1180 1833 c0 -5 16 -87 35 -183 20 -101 35 -206 35 -248 0 -70 1
-72 21 -60 17 11 22 10 35 -6 7 -11 16 -17 19 -14 3 2 -8 101 -25 219 -16 118
-30 229 -30 247 0 34 -13 42 -28 16 -8 -14 -12 -13 -29 10 -21 26 -33 33 -33
19z"/>
<path d="M1625 1613 c-20 -87 -43 -183 -50 -213 -8 -30 -13 -56 -11 -58 2 -2
19 1 37 6 l34 8 42 180 c49 210 51 228 23 219 -11 -4 -20 -2 -20 4 0 6 -4 11
-9 11 -5 0 -26 -71 -46 -157z"/>
<path d="M980 1650 c0 -8 -10 -9 -32 -5 -27 6 -30 5 -24 -11 4 -11 25 -97 46
-193 22 -95 41 -175 43 -177 2 -2 21 5 42 16 22 11 47 20 57 20 10 0 18 3 18
8 -1 22 -129 347 -139 350 -6 2 -11 -2 -11 -8z"/>
<path d="M520 1535 c0 -31 20 -114 29 -119 3 -2 15 2 26 10 20 15 19 16 -10
70 -36 66 -45 74 -45 39z"/>
<path d="M602 1380 l-23 -19 26 -50 c25 -51 38 -61 50 -41 4 6 15 8 26 5 11
-4 19 -2 19 4 0 9 -70 122 -74 121 -1 -1 -11 -9 -24 -20z"/>
<path d="M1250 1253 c1 -5 27 -177 58 -383 l58 -375 40 0 c33 0 39 3 37 20 -3
25 -44 299 -81 540 l-28 180 -27 -3 c-17 -2 -29 3 -33 13 -6 15 -24 21 -24 8z"/>
<path d="M1546 1213 c-3 -26 -10 -111 -16 -188 -6 -77 -17 -223 -25 -324 -16
-197 -16 -201 32 -201 25 0 20 -28 63 385 17 160 33 305 36 324 5 32 4 33 -21
27 -19 -5 -33 -2 -45 9 -17 15 -18 14 -24 -32z"/>
<path d="M740 1220 c0 -14 -8 -24 -21 -27 -19 -5 -16 -10 27 -54 51 -52 64
-59 64 -34 0 8 11 17 25 21 14 3 25 10 25 14 0 8 -81 79 -107 94 -9 5 -13 0
-13 -14z"/>
<path d="M2389 1205 c-41 -11 -229 -111 -229 -121 0 -3 6 -14 13 -27 6 -12 13
-23 13 -25 6 -11 178 89 219 127 73 67 72 71 -16 46z"/>
<path d="M1109 1194 c-9 -11 -23 -14 -47 -10 -31 5 -34 3 -28 -17 3 -12 44
-172 92 -354 l88 -333 43 0 c24 0 43 5 43 11 0 8 -108 494 -155 697 -6 26 -18
28 -36 6z"/>
<path d="M895 1070 c-3 -5 -15 -10 -27 -10 -15 0 -18 -4 -13 -17 3 -10 46
-137 95 -282 49 -146 93 -268 97 -272 12 -10 73 2 73 15 1 19 -204 576 -212
576 -4 0 -10 -4 -13 -10z"/>
<path d="M1977 985 c-60 -41 -117 -80 -128 -85 -22 -13 -25 -30 -4 -30 8 0 23
-9 34 -21 l19 -21 109 83 c59 45 110 84 112 86 3 2 -1 9 -7 15 -7 7 -12 20
-12 30 0 10 -3 18 -7 18 -5 0 -57 -34 -116 -75z"/>
<path d="M1685 674 c-39 -81 -71 -152 -73 -158 -1 -6 11 -16 27 -23 l30 -11
85 146 c47 80 82 150 80 154 -3 4 -16 8 -30 8 -14 0 -27 7 -30 15 -4 8 -9 15
-13 15 -4 0 -38 -66 -76 -146z"/>
</g>
</svg>
