<?xml version="1.0" standalone="no"?>
<!DOCTYPE svg PUBLIC "-//W3C//DTD SVG 20010904//EN"
 "http://www.w3.org/TR/2001/REC-SVG-20010904/DTD/svg10.dtd">
<svg version="1.0" xmlns="http://www.w3.org/2000/svg"
 width="238.000000pt" height="238.000000pt" viewBox="0 0 238.000000 238.000000"
 preserveAspectRatio="xMidYMid meet">
<metadata>
Created by potrace 1.16, written by Peter Selinger 2001-2019
</metadata>
<g transform="translate(0.000000,238.000000) scale(0.100000,-0.100000)"
fill="#000000" stroke="none">
<path d="M617 1772 l-577 -577 578 -578 577 -577 580 580 580 580 -575 575
c-316 316 -577 575 -580 575 -3 0 -265 -260 -583 -578z m475 87 c26 -32 30
-47 38 -135 13 -158 81 -444 104 -444 6 1 29 13 51 28 39 27 40 31 58 122 10
52 26 151 37 220 15 102 23 128 41 142 30 25 66 22 94 -7 30 -29 30 -28 5
-146 -12 -52 -25 -129 -31 -172 -5 -42 -21 -120 -34 -172 -24 -93 -29 -159
-16 -220 8 -39 68 -58 171 -52 70 3 84 8 197 68 l122 64 28 -21 c31 -23 42
-67 22 -91 -21 -25 -121 -89 -162 -104 -20 -7 -45 -25 -54 -39 -9 -14 -28 -34
-42 -45 -106 -83 -126 -107 -173 -208 l-46 -102 -288 0 -289 0 -57 170 c-31
94 -57 181 -57 194 -1 16 -29 51 -89 110 -66 66 -97 105 -128 166 -57 110 -60
129 -30 160 29 29 67 32 88 8 8 -10 31 -52 51 -93 23 -49 54 -93 87 -125 l51
-50 20 24 c10 13 22 34 25 47 8 31 -89 422 -121 492 -14 29 -25 61 -25 72 0
27 35 60 64 60 63 0 109 -88 156 -295 27 -121 61 -215 77 -215 21 0 16 66 -17
244 -16 89 -34 188 -39 221 -6 33 -13 74 -17 92 -5 24 -1 36 16 53 32 32 76
24 112 -21z"/>
<path d="M1022 1773 c3 -39 20 -51 47 -34 11 7 10 14 -8 40 -30 41 -43 39 -39
-6z"/>
<path d="M1440 1721 c-20 -30 -20 -30 -1 -40 32 -18 41 -13 41 23 0 47 -14 52
-40 17z"/>
<path d="M810 1659 c12 -39 15 -43 35 -35 15 5 14 9 -5 36 -28 39 -41 38 -30
-1z"/>
<path d="M1030 1682 c0 -5 5 -34 11 -65 11 -51 14 -57 37 -57 24 0 24 1 17 58
-4 31 -9 60 -12 65 -6 10 -53 9 -53 -1z"/>
<path d="M1417 1623 c-3 -5 -8 -29 -12 -55 -6 -41 -5 -48 9 -48 17 0 28 22 41
78 6 28 4 32 -14 32 -11 0 -22 -3 -24 -7z"/>
<path d="M852 1561 c-10 -6 -11 -20 -7 -47 12 -68 15 -76 30 -64 7 6 20 8 29
4 20 -8 20 -3 -1 63 -18 53 -26 60 -51 44z"/>
<path d="M1060 1505 c0 -6 12 -68 26 -140 14 -71 24 -143 22 -160 -2 -21 2
-29 11 -27 7 1 20 -3 29 -10 13 -11 15 -9 10 22 -3 19 -14 95 -24 168 -14 107
-21 132 -34 132 -9 0 -21 5 -28 12 -7 7 -12 8 -12 3z"/>
<path d="M1385 1438 c-3 -13 -18 -76 -34 -141 l-28 -118 25 3 c24 3 27 11 53
118 35 141 36 160 9 160 -12 0 -22 -9 -25 -22z"/>
<path d="M902 1382 c-16 -2 -21 -9 -18 -20 4 -15 39 -163 51 -219 6 -24 20
-30 30 -13 3 6 15 10 25 10 10 0 21 4 25 9 5 10 -70 221 -83 232 -4 3 -17 3
-30 1z"/>
<path d="M603 1270 c10 -38 29 -51 41 -31 8 12 -26 71 -40 71 -8 0 -8 -11 -1
-40z"/>
<path d="M650 1195 c-17 -21 22 -75 50 -68 25 7 25 8 -1 49 -23 38 -31 41 -49
19z"/>
<path d="M1110 1101 c0 -15 69 -461 75 -489 4 -17 12 -22 28 -20 19 3 22 9 20
43 -3 57 -65 449 -72 456 -12 13 -51 20 -51 10z"/>
<path d="M1305 1017 c-3 -50 -10 -137 -15 -192 -14 -158 -15 -204 -2 -217 9
-9 15 -9 23 -1 11 11 67 479 58 487 -2 2 -16 6 -30 10 l-27 6 -7 -93z"/>
<path d="M743 1081 c-10 -16 -7 -23 16 -45 32 -31 37 -31 59 -10 15 16 14 19
-18 45 -41 34 -42 34 -57 10z"/>
<path d="M1888 1080 c-34 -10 -135 -68 -144 -81 -3 -6 -1 -16 5 -22 13 -13
100 26 157 70 51 39 44 52 -18 33z"/>
<path d="M1007 1073 c-4 -3 -17 -7 -30 -8 -12 -2 -21 -6 -21 -11 2 -11 89
-336 110 -411 13 -49 17 -53 44 -53 17 0 30 3 30 6 0 7 -99 439 -106 467 -6
18 -16 22 -27 10z"/>
<path d="M847 983 c-12 -3 -16 -10 -12 -21 10 -26 125 -365 125 -369 0 -2 8
-3 18 -3 42 0 40 19 -18 173 -31 84 -63 169 -69 190 -7 20 -16 36 -19 36 -4
-1 -15 -3 -25 -6z"/>
<path d="M1593 921 c-82 -56 -96 -71 -68 -71 8 0 15 -4 15 -10 0 -21 26 -8 97
46 63 48 71 58 62 75 -5 10 -13 19 -17 18 -4 -1 -44 -27 -89 -58z"/>
<path d="M1405 710 c-42 -85 -47 -102 -35 -110 8 -5 18 -10 21 -10 13 0 121
192 113 200 -5 4 -18 11 -29 14 -18 5 -27 -7 -70 -94z"/>
</g>
</svg>
