<?xml version="1.0" encoding="UTF-8" standalone="no"?>
<svg
   xmlns:dc="http://purl.org/dc/elements/1.1/"
   xmlns:cc="http://creativecommons.org/ns#"
   xmlns:rdf="http://www.w3.org/1999/02/22-rdf-syntax-ns#"
   xmlns:svg="http://www.w3.org/2000/svg"
   xmlns="http://www.w3.org/2000/svg"
   xmlns:sodipodi="http://sodipodi.sourceforge.net/DTD/sodipodi-0.dtd"
   xmlns:inkscape="http://www.inkscape.org/namespaces/inkscape"
   version="1.0"
   width="238.000000pt"
   height="238.000000pt"
   viewBox="0 0 238.000000 238.000000"
   preserveAspectRatio="xMidYMid meet"
   id="svg1025"
   sodipodi:docname="thaumaturgysup.svg"
   inkscape:version="1.0.1 (3bc2e813f5, 2020-09-07)">
  <defs
     id="defs1029" />
  <sodipodi:namedview
     pagecolor="#ffffff"
     bordercolor="#666666"
     borderopacity="1"
     objecttolerance="10"
     gridtolerance="10"
     guidetolerance="10"
     inkscape:pageopacity="0"
     inkscape:pageshadow="2"
     inkscape:window-width="1600"
     inkscape:window-height="837"
     id="namedview1027"
     showgrid="false"
     inkscape:zoom="2.1113445"
     inkscape:cx="158.66667"
     inkscape:cy="158.66667"
     inkscape:window-x="-8"
     inkscape:window-y="-8"
     inkscape:window-maximized="1"
     inkscape:current-layer="svg1025" />
  <metadata
     id="metadata1017">
Created by potrace 1.16, written by Peter Selinger 2001-2019
<rdf:RDF>
  <cc:Work
     rdf:about="">
    <dc:format>image/svg+xml</dc:format>
    <dc:type
       rdf:resource="http://purl.org/dc/dcmitype/StillImage" />
  </cc:Work>
</rdf:RDF>
</metadata>
  <g
     transform="translate(0.000000,238.000000) scale(0.100000,-0.100000)"
     fill="#000000"
     stroke="none"
     id="g1023">
    <path
       d="M615 1770 l-579 -579 575 -579 574 -579 585 583 585 584 -575 575 c-316 316 -577 575 -580 575 -3 0 -266 -261 -585 -580z m1655 -570 c0 -3 -243 -250 -540 -550 l-540 -545 -541 544 -541 543 543 544 544 544 537 -537 c296 -296 538 -540 538 -543z"
       id="path1019" />
    <path
       d="M708 1673 l-477 -478 474 -477 c260 -263 477 -478 482 -478 4 0 224 216 488 480 l480 480 -475 475 c-261 261 -479 475 -485 475 -6 0 -225 -215 -487 -477z m385 -30 c-64 -98 -132 -204 -152 -235 -20 -31 -38 -56 -41 -55 -3 1 -54 53 -114 114 l-109 113 66 63 c108 105 272 175 409 176 l58 1 -117 -177z m241 157 c98 -25 186 -71 254 -135 l54 -50 -148 -127 c-82 -70 -151 -124 -155 -120 -7 8 -109 415 -109 437 0 19 11 19 104 -5z m-120 -385 c19 -77 34 -140 33 -140 -1 0 -35 -29 -75 -65 l-73 -63 -61 60 -60 60 96 148 c53 81 99 146 101 144 2 -2 19 -67 39 -144z m529 53 c60 -127 79 -291 48 -418 -26 -107 -87 -216 -164 -294 -121 -123 -103 -141 -186 191 -59 233 -70 289 -59 299 50 48 321 274 328 274 5 0 20 -24 33 -52z m-1011 -105 l107 -108 -111 -173 -111 -174 -14 34 c-48 110 -63 248 -42 363 12 66 47 165 57 165 4 0 56 -48 114 -107z m236 -236 c23 -23 42 -45 42 -48 0 -6 -280 -226 -307 -243 -7 -4 37 70 99 164 61 93 114 170 117 170 4 0 26 -19 49 -43z m340 -97 c16 -67 26 -120 22 -118 -4 2 -40 38 -80 81 l-72 77 43 40 c24 21 47 39 50 40 4 0 20 -54 37 -120z m-33 -220 c98 -98 177 -182 173 -185 -13 -14 -124 -46 -190 -55 -150 -22 -309 18 -446 112 -24 16 -42 34 -40 38 4 11 309 270 317 270 4 0 87 -81 186 -180z"
       id="path1021" />
  </g>
  <path
     style="fill:#ffffff;stroke-width:0.473632"
     d="M 86.595265,230.49725 14.760682,158.3506 87.096794,86.015644 159.43291,13.680689 l 71.3721,71.552965 c 39.25466,39.354136 71.3721,71.745436 71.3721,71.980686 0,0.23524 -7.07777,7.6384 -15.72839,16.45146 -30.48344,31.05588 -127.47307,128.9849 -127.74426,128.98153 -0.15103,-0.002 -32.60017,-32.46942 -72.109195,-72.15008 z m 89.719425,37.85404 c 9.70065,-9.4868 38.73738,-38.36643 64.52606,-64.17698 L 287.72927,157.24605 251.9711,121.44022 C 213.69452,83.112608 162.58132,32.706184 160.44608,31.180769 l -1.2992,-0.928145 -7.69055,7.252792 C 140.00783,48.302248 30.78607,157.30285 30.78607,157.93134 c 0,0.75497 126.55888,127.70095 127.2938,127.68314 0.3285,-0.008 8.53417,-7.7764 18.23482,-17.26319 z"
     id="path1031"
     transform="scale(0.74999998)" />
  <path
     style="fill:#ffffff;stroke-width:0.473632"
     d="m 80.150168,190.28159 c -4.769779,-12.06921 -6.603101,-22.82093 -6.117235,-35.87522 0.291397,-7.82929 1.155391,-12.86667 3.643136,-21.24074 1.629996,-5.48677 4.157294,-11.44225 4.855694,-11.44225 0.678346,0 28.813897,28.05456 28.644677,28.56222 -0.29521,0.88565 -28.540526,44.84037 -28.817679,44.84543 -0.159497,0.003 -1.153364,-2.17934 -2.208593,-4.84944 z"
     id="path1033"
     transform="scale(0.74999998)" />
  <path
     style="fill:#ffffff;stroke-width:0.473632"
     d="m 108.9503,125.51244 c -6.00492,-6.12169 -12.540375,-12.88847 -14.523242,-15.03729 l -3.605215,-3.90694 5.495111,-5.24754 c 3.022311,-2.886143 6.618296,-6.167489 7.991066,-7.291879 10.12712,-8.294743 24.934,-15.227313 37.84454,-17.718791 4.67459,-0.902103 18.40863,-1.912596 18.40863,-1.35443 0,0.144561 -5.49745,8.648398 -12.21655,18.897415 -6.7191,10.249015 -15.23675,23.323535 -18.9281,29.054475 -3.69135,5.73095 -7.34979,11.16587 -8.12988,12.07761 l -1.41833,1.65772 z"
     id="path1035"
     transform="scale(0.74999998)" />
  <path
     style="fill:#ffffff;stroke-width:0.473632"
     d="m 178.14637,132.97214 c -2.84746,-9.01334 -13.79612,-53.776599 -13.79612,-56.405047 0,-1.966446 1.79825,-1.863983 11.77393,0.67087 15.74875,4.001806 26.2653,9.680042 37.41501,20.201625 l 4.90437,4.628072 -12.00884,10.27335 c -16.06242,13.74109 -26.54428,22.17043 -27.5689,22.17043 -0.12823,0 -0.45199,-0.69268 -0.71945,-1.5393 z"
     id="path1037"
     transform="scale(0.74999998)" />
  <path
     style="fill:#ffffff;stroke-width:0.473632"
     d="m 138.61404,156.21744 -7.90979,-7.59269 1.0565,-1.7283 c 2.45209,-4.01125 16.88625,-25.87349 20.65947,-31.29117 l 4.09609,-5.88129 0.62899,2.09223 c 1.3795,4.58869 8.62584,33.84763 8.62584,34.82902 0,0.57693 -0.19006,1.12 -0.42236,1.20683 -0.23231,0.0868 -4.20271,3.4606 -8.82312,7.49725 -4.6204,4.03666 -8.76098,7.5917 -9.20128,7.9001 -0.68891,0.48253 -1.90364,-0.49815 -8.71034,-7.03198 z"
     id="path1039"
     transform="scale(0.74999998)" />
  <path
     style="fill:#ffffff;stroke-width:0.473632"
     d="m 94.726368,204.30136 c 0,-0.50721 6.765562,-11.4418 12.631272,-20.41482 8.23742,-12.60111 14.81251,-21.90445 15.48088,-21.90445 0.71304,0 11.19929,10.53146 11.19929,11.24758 0,0.60695 -3.20141,3.3588 -12.52961,10.77016 -10.01926,7.96041 -26.329613,20.60913 -26.575186,20.60913 -0.113655,0 -0.206646,-0.13842 -0.206646,-0.3076 z"
     id="path1041"
     transform="scale(0.74999998)" />
  <path
     style="fill:#ffffff;stroke-width:0.473632"
     d="m 167.36009,185.18841 c -5.17213,-5.50358 -9.40387,-10.24883 -9.40387,-10.54501 0,-0.51563 7.61818,-7.48522 10.27497,-9.40019 l 1.27597,-0.9197 1.42571,4.45078 c 2.66376,8.31572 6.65736,25.59435 6.05486,26.19685 -0.12308,0.12308 -4.45551,-4.27915 -9.62764,-9.78273 z"
     id="path1043"
     transform="scale(0.74999998)" />
  <path
     style="fill:#ffffff;stroke-width:0.473632"
     d="m 203.27764,226.59491 c -2.27563,-1.59392 -3.44312,-5.44228 -11.20065,-36.92062 -8.38335,-34.01778 -8.86548,-36.64866 -7.082,-38.64475 1.87745,-2.10127 27.13114,-23.47957 38.26207,-32.39045 l 4.67596,-3.74334 0.94276,1.16406 c 3.98228,4.91706 9.26257,20.36061 10.8431,31.71332 1.00889,7.24679 0.79043,19.57483 -0.45935,25.92081 -2.64927,13.45218 -9.37198,27.24932 -18.64054,38.25631 -4.57963,5.43859 -14.03642,14.66955 -15.38735,15.0199 -0.56927,0.14763 -1.44857,-0.0212 -1.954,-0.37524 z"
     id="path1045"
     transform="scale(0.74999998)" />
  <path
     style="fill:#ffffff;stroke-width:0.473632"
     d="m 149.43085,241.50217 c -5.8939,-0.61863 -11.3342,-1.79935 -17.52438,-3.80335 -9.32534,-3.01897 -21.67844,-9.58293 -26.99702,-14.34516 l -1.89452,-1.69635 3.0786,-2.90627 c 4.13099,-3.89973 23.69375,-20.68713 32.12315,-27.56583 l 6.78384,-5.53587 1.16533,0.91665 c 4.19671,3.30114 41.61352,41.00878 45.25594,45.60771 l 1.4359,1.81296 -2.53304,1.12023 c -5.81875,2.57333 -18.29241,5.55678 -26.85344,6.4228 -5.50737,0.55712 -8.52662,0.55121 -14.04036,-0.0275 z"
     id="path1047"
     transform="scale(0.74999998)" />
</svg>
