<?xml version="1.0" standalone="no"?>
<!DOCTYPE svg PUBLIC "-//W3C//DTD SVG 20010904//EN"
 "http://www.w3.org/TR/2001/REC-SVG-20010904/DTD/svg10.dtd">
<svg version="1.0" xmlns="http://www.w3.org/2000/svg"
 width="238.000000pt" height="238.000000pt" viewBox="0 0 238.000000 238.000000"
 preserveAspectRatio="xMidYMid meet">
<metadata>
Created by potrace 1.16, written by Peter Selinger 2001-2019
</metadata>
<g transform="translate(0.000000,238.000000) scale(0.100000,-0.100000)"
fill="#000000" stroke="none">
<path d="M615 1770 l-579 -579 575 -579 574 -579 585 583 585 584 -575 575
c-316 316 -577 575 -580 575 -3 0 -266 -261 -585 -580z m1655 -570 c0 -3 -243
-250 -540 -550 l-540 -545 -541 544 -541 543 543 544 544 544 537 -537 c296
-296 538 -540 538 -543z"/>
<path d="M708 1673 l-477 -478 474 -477 c260 -263 477 -478 482 -478 4 0 224
216 488 480 l480 480 -475 475 c-261 261 -479 475 -485 475 -6 0 -225 -215
-487 -477z m385 -30 c-64 -98 -132 -204 -152 -235 -20 -31 -38 -56 -41 -55 -3
1 -54 53 -114 114 l-109 113 66 63 c108 105 272 175 409 176 l58 1 -117 -177z
m241 157 c98 -25 186 -71 254 -135 l54 -50 -148 -127 c-82 -70 -151 -124 -155
-120 -7 8 -109 415 -109 437 0 19 11 19 104 -5z m-120 -385 c19 -77 34 -140
33 -140 -1 0 -35 -29 -75 -65 l-73 -63 -61 60 -60 60 96 148 c53 81 99 146
101 144 2 -2 19 -67 39 -144z m529 53 c60 -127 79 -291 48 -418 -26 -107 -87
-216 -164 -294 -121 -123 -103 -141 -186 191 -59 233 -70 289 -59 299 50 48
321 274 328 274 5 0 20 -24 33 -52z m-1011 -105 l107 -108 -111 -173 -111
-174 -14 34 c-48 110 -63 248 -42 363 12 66 47 165 57 165 4 0 56 -48 114
-107z m236 -236 c23 -23 42 -45 42 -48 0 -6 -280 -226 -307 -243 -7 -4 37 70
99 164 61 93 114 170 117 170 4 0 26 -19 49 -43z m340 -97 c16 -67 26 -120 22
-118 -4 2 -40 38 -80 81 l-72 77 43 40 c24 21 47 39 50 40 4 0 20 -54 37 -120z
m-33 -220 c98 -98 177 -182 173 -185 -13 -14 -124 -46 -190 -55 -150 -22 -309
18 -446 112 -24 16 -42 34 -40 38 4 11 309 270 317 270 4 0 87 -81 186 -180z"/>
</g>
</svg>
