<?xml version="1.0" standalone="no"?>
<!DOCTYPE svg PUBLIC "-//W3C//DTD SVG 20010904//EN"
 "http://www.w3.org/TR/2001/REC-SVG-20010904/DTD/svg10.dtd">
<svg version="1.0" xmlns="http://www.w3.org/2000/svg"
 width="288.000000pt" height="289.000000pt" viewBox="0 0 288.000000 289.000000"
 preserveAspectRatio="xMidYMid meet">
<metadata>
Created by potrace 1.16, written by Peter Selinger 2001-2019
</metadata>
<g transform="translate(0.000000,289.000000) scale(0.100000,-0.100000)"
fill="#000000" stroke="none">
<path d="M240 1450 l0 -1200 1200 0 1200 0 0 1200 0 1200 -1200 0 -1200 0 0
-1200z m2208 -2 l2 -1008 -1010 0 -1010 0 0 1003 c0 552 3 1007 7 1010 3 4
457 6 1007 5 l1001 -3 3 -1007z"/>
<path d="M540 1450 l0 -900 900 0 900 0 0 900 0 900 -900 0 -900 0 0 -900z
m934 858 c-53 -86 -417 -634 -422 -636 -4 -1 -75 68 -156 153 l-148 155 26 35
c96 126 304 251 481 288 90 20 229 22 219 5z m191 -14 c71 -18 206 -80 267
-122 55 -38 148 -121 148 -133 0 -10 -409 -363 -415 -358 -2 3 -40 148 -83
323 l-80 318 51 -6 c29 -4 79 -14 112 -22z m-176 -530 c46 -189 48 -200 31
-214 -10 -8 -57 -48 -105 -89 l-86 -74 -84 84 -84 84 136 208 c75 114 138 206
139 204 2 -2 26 -93 53 -203z m739 59 c52 -112 71 -178 81 -289 23 -257 -60
-499 -231 -680 -66 -69 -165 -151 -172 -143 -7 9 -198 789 -195 797 5 12 460
402 469 402 4 0 25 -39 48 -87z m-1277 -312 c-9 -14 -80 -122 -156 -239 -93
-143 -141 -208 -147 -200 -23 36 -70 211 -77 290 -14 152 15 332 71 442 l20
39 153 -153 154 -154 -18 -25z m196 -160 l62 -68 -211 -164 c-248 -192 -250
-193 -223 -153 10 16 81 125 158 242 77 116 142 212 146 212 3 0 34 -31 68
-69z m437 22 c8 -28 76 -315 76 -321 0 -4 -49 43 -110 103 -60 60 -110 114
-109 120 0 10 119 114 131 115 4 0 9 -8 12 -17z m-9 -455 c280 -284 268 -258
137 -301 -207 -69 -437 -55 -637 37 -81 37 -208 122 -203 136 5 13 433 379
444 379 6 1 123 -112 259 -251z"/>
</g>
</svg>
