<?xml version="1.0" encoding="UTF-8" standalone="no"?>
<svg
   xmlns:dc="http://purl.org/dc/elements/1.1/"
   xmlns:cc="http://creativecommons.org/ns#"
   xmlns:rdf="http://www.w3.org/1999/02/22-rdf-syntax-ns#"
   xmlns:svg="http://www.w3.org/2000/svg"
   xmlns="http://www.w3.org/2000/svg"
   xmlns:sodipodi="http://sodipodi.sourceforge.net/DTD/sodipodi-0.dtd"
   xmlns:inkscape="http://www.inkscape.org/namespaces/inkscape"
   version="1.0"
   width="300.000000pt"
   height="300.000000pt"
   viewBox="0 0 300.000000 300.000000"
   preserveAspectRatio="xMidYMid meet"
   id="svg1067"
   sodipodi:docname="valeren.svg"
   inkscape:version="1.0.1 (3bc2e813f5, 2020-09-07)">
  <defs
     id="defs1071" />
  <sodipodi:namedview
     pagecolor="#ffffff"
     bordercolor="#666666"
     borderopacity="1"
     objecttolerance="10"
     gridtolerance="10"
     guidetolerance="10"
     inkscape:pageopacity="0"
     inkscape:pageshadow="2"
     inkscape:window-width="1600"
     inkscape:window-height="837"
     id="namedview1069"
     showgrid="false"
     inkscape:zoom="1.675"
     inkscape:cx="200"
     inkscape:cy="200"
     inkscape:window-x="-8"
     inkscape:window-y="-8"
     inkscape:window-maximized="1"
     inkscape:current-layer="svg1067" />
  <metadata
     id="metadata1061">
Created by potrace 1.16, written by Peter Selinger 2001-2019
<rdf:RDF>
  <cc:Work
     rdf:about="">
    <dc:format>image/svg+xml</dc:format>
    <dc:type
       rdf:resource="http://purl.org/dc/dcmitype/StillImage" />
  </cc:Work>
</rdf:RDF>
</metadata>
  <g
     transform="translate(0.000000,300.000000) scale(0.100000,-0.100000)"
     fill="#000000"
     stroke="none"
     id="g1065">
    <path
       d="M275 1500 l0 -1220 1233 0 1232 0 0 1220 0 1220 -1232 0 -1233 0 0 -1220z m2300 1044 c-8 -20 -13 -40 -10 -44 3 -5 1 -11 -4 -14 -4 -3 -11 -23 -15 -44 -3 -21 -16 -71 -29 -111 -21 -64 -33 -81 -98 -147 -40 -41 -77 -74 -82 -74 -4 0 -135 -117 -290 -260 -155 -143 -338 -311 -406 -372 -131 -119 -414 -389 -419 -399 -1 -3 29 -42 68 -87 38 -44 70 -85 70 -90 0 -5 11 -17 25 -26 14 -9 25 -23 25 -30 0 -19 176 -196 195 -196 8 0 15 -4 15 -10 0 -5 -9 -10 -19 -10 -11 0 -22 -4 -25 -9 -3 -4 -56 -11 -118 -15 -62 -4 -124 -10 -138 -12 -22 -5 -28 0 -48 38 -13 24 -35 64 -50 89 -15 26 -42 73 -61 105 -19 33 -41 74 -49 92 -9 17 -21 32 -27 32 -5 0 -100 -90 -209 -200 -110 -110 -205 -200 -211 -200 -6 0 -39 29 -74 64 l-64 64 34 30 c57 50 289 282 289 290 0 3 19 26 42 49 49 50 49 51 -47 103 -33 18 -71 40 -85 50 -14 9 -60 36 -103 60 l-79 42 6 42 c3 22 6 62 5 88 0 25 5 49 11 53 5 3 10 37 10 76 0 38 4 69 8 69 4 0 25 -22 45 -49 34 -44 177 -181 190 -181 3 0 16 -9 29 -20 182 -154 209 -171 220 -138 3 7 99 115 214 240 271 295 712 778 837 916 l99 109 86 18 c48 10 92 21 97 24 13 8 104 28 133 30 22 1 22 0 7 -35z"
       id="path1063" />
  </g>
  <path
     style="fill:#ffffff;stroke-width:0.597015"
     d="m 79.3321,317.76119 -8.289589,-8.20895 11.415112,-10.74627 c 16.375427,-15.41595 40.189147,-40.83227 40.895867,-43.64806 0.51347,-2.04586 -0.76195,-3.27241 -7.19254,-6.91688 -2.97807,-1.6878 -10.51916,-6.0762 -16.757965,-9.752 -6.238806,-3.67581 -13.724566,-7.95984 -16.635023,-9.52008 l -5.291741,-2.83681 0.412976,-3.06607 c 0.227136,-1.68634 0.636651,-6.69294 0.910033,-11.12577 0.337771,-5.47689 0.812634,-8.67646 1.481815,-9.98428 0.690965,-1.35041 1.086608,-4.20022 1.32615,-9.55224 0.187766,-4.19521 0.534244,-7.99229 0.769949,-8.43796 0.30511,-0.57689 1.271256,0.19698 3.354064,2.68657 7.327563,8.75865 25.057092,25.91922 28.000132,27.10157 0.65672,0.26383 5.57937,4.13468 10.93922,8.60188 12.03394,10.02977 17.70392,14.06207 19.77324,14.06207 1.17516,0 2.10716,-0.71316 3.70601,-2.83582 2.79239,-3.70722 12.20226,-14.10878 61.45835,-67.93528 22.5233,-24.61321 52.20986,-57.09052 65.97015,-72.171795 l 25.0187,-27.420507 11.04478,-2.483572 c 6.07463,-1.365965 13.46269,-3.194994 16.41791,-4.064511 6.47927,-1.906399 15.34351,-3.486356 15.99112,-2.850251 0.25781,0.253221 -0.10149,1.780815 -0.79846,3.394652 -0.69695,1.613837 -1.34226,3.892544 -1.43403,5.063793 -0.0918,1.171249 -0.47386,2.703231 -0.84912,3.404405 -0.37525,0.701174 -1.35762,4.133012 -2.18304,7.626307 -2.39717,10.145262 -5.42376,18.778027 -7.84,22.362132 -2.7759,4.117597 -13.65785,15.358557 -18.40886,19.016197 -5.06825,3.90188 -16.01028,13.70095 -44.68029,40.01317 -13.73833,12.60851 -31.60401,28.97073 -39.70149,36.36048 -25.77877,23.52566 -64.85671,60.54336 -65.39571,61.94796 -0.26688,0.69551 1.45005,2.94839 13.50884,17.72572 2.54477,3.11847 4.62686,5.95907 4.62686,6.31245 0,0.35337 1.36485,1.79335 3.03299,3.19996 1.66815,1.4066 3.3733,3.37191 3.78922,4.36735 1.80107,4.31056 22.2973,24.77603 26.16283,26.12356 2.09551,0.7305 2.09553,1.52922 4e-5,1.98 -0.90299,0.19425 -2.58209,0.72735 -3.73135,1.18467 -2.03392,0.80936 -8.49991,1.645 -18.20895,2.35324 -2.62687,0.19162 -7.80093,0.63948 -11.49792,0.99524 -5.22643,0.50293 -6.9187,0.48341 -7.6069,-0.0878 -0.48681,-0.40401 -2.46756,-3.59161 -4.40166,-7.08355 -1.9341,-3.49195 -6.45843,-11.45347 -10.05406,-17.69228 -3.59563,-6.23881 -7.69191,-13.56881 -9.10285,-16.28889 -1.41094,-2.72008 -3.07187,-5.21669 -3.69096,-5.54802 -1.39694,-0.74761 -2.34827,0.10299 -23.79491,21.27552 -21.10512,20.83537 -32.243796,31.30766 -33.299879,31.30766 -0.47821,0 -4.599787,-3.69403 -9.159061,-8.20896 z"
     id="path1073"
     transform="scale(0.75)" />
</svg>
