<?xml version="1.0" standalone="no"?>
<!DOCTYPE svg PUBLIC "-//W3C//DTD SVG 20010904//EN"
 "http://www.w3.org/TR/2001/REC-SVG-20010904/DTD/svg10.dtd">
<svg version="1.0" xmlns="http://www.w3.org/2000/svg"
 width="300.000000pt" height="300.000000pt" viewBox="0 0 300.000000 300.000000"
 preserveAspectRatio="xMidYMid meet">
<metadata>
Created by potrace 1.16, written by Peter Selinger 2001-2019
</metadata>
<g transform="translate(0.000000,300.000000) scale(0.100000,-0.100000)"
fill="#000000" stroke="none">
<path d="M275 1500 l0 -1220 1233 0 1232 0 0 1220 0 1220 -1232 0 -1233 0 0
-1220z m2300 1044 c-8 -20 -13 -40 -10 -44 3 -5 1 -11 -4 -14 -4 -3 -11 -23
-15 -44 -3 -21 -16 -71 -29 -111 -21 -64 -33 -81 -98 -147 -40 -41 -77 -74
-82 -74 -4 0 -135 -117 -290 -260 -155 -143 -338 -311 -406 -372 -131 -119
-414 -389 -419 -399 -1 -3 29 -42 68 -87 38 -44 70 -85 70 -90 0 -5 11 -17 25
-26 14 -9 25 -23 25 -30 0 -19 176 -196 195 -196 8 0 15 -4 15 -10 0 -5 -9
-10 -19 -10 -11 0 -22 -4 -25 -9 -3 -4 -56 -11 -118 -15 -62 -4 -124 -10 -138
-12 -22 -5 -28 0 -48 38 -13 24 -35 64 -50 89 -15 26 -42 73 -61 105 -19 33
-41 74 -49 92 -9 17 -21 32 -27 32 -5 0 -100 -90 -209 -200 -110 -110 -205
-200 -211 -200 -6 0 -39 29 -74 64 l-64 64 34 30 c57 50 289 282 289 290 0 3
19 26 42 49 49 50 49 51 -47 103 -33 18 -71 40 -85 50 -14 9 -60 36 -103 60
l-79 42 6 42 c3 22 6 62 5 88 0 25 5 49 11 53 5 3 10 37 10 76 0 38 4 69 8 69
4 0 25 -22 45 -49 34 -44 177 -181 190 -181 3 0 16 -9 29 -20 182 -154 209
-171 220 -138 3 7 99 115 214 240 271 295 712 778 837 916 l99 109 86 18 c48
10 92 21 97 24 13 8 104 28 133 30 22 1 22 0 7 -35z"/>
</g>
</svg>
