<?xml version="1.0" encoding="UTF-8" standalone="no"?>
<svg
   xmlns:dc="http://purl.org/dc/elements/1.1/"
   xmlns:cc="http://creativecommons.org/ns#"
   xmlns:rdf="http://www.w3.org/1999/02/22-rdf-syntax-ns#"
   xmlns:svg="http://www.w3.org/2000/svg"
   xmlns="http://www.w3.org/2000/svg"
   xmlns:sodipodi="http://sodipodi.sourceforge.net/DTD/sodipodi-0.dtd"
   xmlns:inkscape="http://www.inkscape.org/namespaces/inkscape"
   version="1.0"
   width="238.000000pt"
   height="238.000000pt"
   viewBox="0 0 238.000000 238.000000"
   preserveAspectRatio="xMidYMid meet"
   id="svg1093"
   sodipodi:docname="valerensup.svg"
   inkscape:version="1.0.1 (3bc2e813f5, 2020-09-07)">
  <defs
     id="defs1097" />
  <sodipodi:namedview
     pagecolor="#ffffff"
     bordercolor="#666666"
     borderopacity="1"
     objecttolerance="10"
     gridtolerance="10"
     guidetolerance="10"
     inkscape:pageopacity="0"
     inkscape:pageshadow="2"
     inkscape:window-width="1600"
     inkscape:window-height="837"
     id="namedview1095"
     showgrid="false"
     inkscape:zoom="2.1113445"
     inkscape:cx="158.66667"
     inkscape:cy="158.66667"
     inkscape:window-x="-8"
     inkscape:window-y="-8"
     inkscape:window-maximized="1"
     inkscape:current-layer="svg1093" />
  <metadata
     id="metadata1087">
Created by potrace 1.16, written by Peter Selinger 2001-2019
<rdf:RDF>
  <cc:Work
     rdf:about="">
    <dc:format>image/svg+xml</dc:format>
    <dc:type
       rdf:resource="http://purl.org/dc/dcmitype/StillImage" />
  </cc:Work>
</rdf:RDF>
</metadata>
  <g
     transform="translate(0.000000,238.000000) scale(0.100000,-0.100000)"
     fill="#000000"
     stroke="none"
     id="g1091">
    <path
       d="M617 1772 l-577 -577 578 -578 577 -577 580 580 580 580 -575 575 c-316 316 -577 575 -580 575 -3 0 -265 -260 -583 -578z m624 335 c40 -63 70 -127 65 -135 -2 -4 -8 -93 -12 -197 -4 -105 -8 -212 -9 -240 -2 -27 -6 -133 -9 -235 -3 -102 -8 -224 -12 -273 -4 -67 -3 -88 8 -92 29 -10 266 -32 306 -27 23 2 42 0 42 -4 0 -9 -35 -54 -92 -122 -25 -31 -27 -31 -57 -16 -16 8 -58 19 -92 25 -34 5 -70 14 -80 19 -37 20 -38 13 -41 -168 l-3 -177 -35 -1 c-83 -3 -78 -12 -78 173 0 91 -4 169 -9 174 -5 5 -55 -5 -112 -21 -57 -17 -109 -30 -116 -30 -11 0 -125 132 -125 145 0 2 24 3 54 1 29 -1 86 1 127 6 41 4 96 10 123 13 27 3 52 7 54 10 3 3 0 127 -7 277 -15 321 -19 433 -26 627 l-5 143 47 84 c25 46 51 84 57 84 6 0 23 -19 37 -43z"
       id="path1089" />
  </g>
  <path
     style="fill:#ffffff;stroke-width:0.473632"
     d="m 155.02101,254.72065 c -1.9805,-0.95688 -2.16292,-2.55537 -2.5298,-22.16742 -0.19248,-10.28965 -0.50771,-19.82741 -0.70051,-21.19502 -0.3494,-2.47844 -0.35616,-2.48655 -2.06565,-2.48228 -2.19304,0.005 -9.77349,1.74126 -18.52903,4.24278 -3.77721,1.07918 -7.84648,2.08272 -9.04281,2.23009 l -2.17514,0.26796 -4.64993,-5.14868 c -2.55746,-2.83177 -6.13337,-7.06689 -7.94647,-9.41136 l -3.29654,-4.26269 11.54251,-0.28624 c 11.30691,-0.28039 32.65689,-2.28994 35.39694,-3.33171 l 1.1627,-0.44206 -0.31583,-13.12621 c -0.17371,-7.21942 -0.63322,-19.94652 -1.02113,-28.28244 -1.4175,-30.46042 -1.69406,-37.03224 -2.83034,-67.255718 l -1.15742,-30.78607 4.53613,-8.051741 c 5.22293,-9.270815 8.1526,-13.664681 9.25233,-13.87647 1.36401,-0.262683 9.01514,11.749338 11.96556,18.785529 l 1.26406,3.014532 -0.49929,6.931737 c -0.27461,3.812455 -0.8178,15.030841 -1.20708,24.929746 -0.38928,9.898906 -0.92436,23.113235 -1.18905,29.365175 -0.2647,6.25194 -0.80295,20.74507 -1.19611,32.20696 -0.39317,11.4619 -0.92521,24.13975 -1.18233,28.17301 -0.53071,8.32509 -0.60721,15.66997 -0.17494,16.79644 0.1609,0.41929 0.67787,0.96857 1.14883,1.22062 2.24848,1.20335 29.38174,3.77809 39.81439,3.77809 4.58859,0 6.10743,0.14808 6.10743,0.59541 0,1.1964 -13.38565,17.87592 -15.0686,18.77661 -0.60101,0.32164 -1.43195,0.19094 -2.86496,-0.45063 -3.37233,-1.50984 -7.81809,-2.73339 -14.64096,-4.02945 -3.57506,-0.67912 -7.805,-1.75375 -9.39987,-2.38809 -1.59487,-0.63433 -3.2425,-1.02182 -3.6614,-0.86107 -1.51025,0.57954 -1.79865,3.73492 -2.32331,25.41892 l -0.52429,21.66865 -5.47871,-0.0321 c -3.01328,-0.0176 -5.94701,-0.25832 -6.51938,-0.53486 z"
     id="path1099"
     transform="scale(0.74999998)" />
</svg>
