<?xml version="1.0" standalone="no"?>
<!DOCTYPE svg PUBLIC "-//W3C//DTD SVG 20010904//EN"
 "http://www.w3.org/TR/2001/REC-SVG-20010904/DTD/svg10.dtd">
<svg version="1.0" xmlns="http://www.w3.org/2000/svg"
 width="238.000000pt" height="238.000000pt" viewBox="0 0 238.000000 238.000000"
 preserveAspectRatio="xMidYMid meet">
<metadata>
Created by potrace 1.16, written by Peter Selinger 2001-2019
</metadata>
<g transform="translate(0.000000,238.000000) scale(0.100000,-0.100000)"
fill="#000000" stroke="none">
<path d="M617 1772 l-577 -577 578 -578 577 -577 580 580 580 580 -575 575
c-316 316 -577 575 -580 575 -3 0 -265 -260 -583 -578z m624 335 c40 -63 70
-127 65 -135 -2 -4 -8 -93 -12 -197 -4 -105 -8 -212 -9 -240 -2 -27 -6 -133
-9 -235 -3 -102 -8 -224 -12 -273 -4 -67 -3 -88 8 -92 29 -10 266 -32 306 -27
23 2 42 0 42 -4 0 -9 -35 -54 -92 -122 -25 -31 -27 -31 -57 -16 -16 8 -58 19
-92 25 -34 5 -70 14 -80 19 -37 20 -38 13 -41 -168 l-3 -177 -35 -1 c-83 -3
-78 -12 -78 173 0 91 -4 169 -9 174 -5 5 -55 -5 -112 -21 -57 -17 -109 -30
-116 -30 -11 0 -125 132 -125 145 0 2 24 3 54 1 29 -1 86 1 127 6 41 4 96 10
123 13 27 3 52 7 54 10 3 3 0 127 -7 277 -15 321 -19 433 -26 627 l-5 143 47
84 c25 46 51 84 57 84 6 0 23 -19 37 -43z"/>
</g>
</svg>
