<?xml version="1.0" standalone="no"?>
<!DOCTYPE svg PUBLIC "-//W3C//DTD SVG 20010904//EN"
 "http://www.w3.org/TR/2001/REC-SVG-20010904/DTD/svg10.dtd">
<svg version="1.0" xmlns="http://www.w3.org/2000/svg"
 width="300.000000pt" height="300.000000pt" viewBox="0 0 300.000000 300.000000"
 preserveAspectRatio="xMidYMid meet">
<metadata>
Created by potrace 1.16, written by Peter Selinger 2001-2019
</metadata>
<g transform="translate(0.000000,300.000000) scale(0.100000,-0.100000)"
fill="#000000" stroke="none">
<path d="M1390 2994 c-289 -35 -489 -106 -707 -251 l-83 -54 0 -160 0 -159
-150 0 -150 0 -34 -52 c-93 -146 -167 -332 -207 -518 -33 -151 -33 -419 0
-570 44 -206 116 -378 228 -547 l54 -83 130 0 129 0 0 -129 0 -130 83 -54
c165 -110 349 -188 540 -229 147 -32 437 -32 584 0 175 38 366 116 511 208
l52 34 0 150 0 150 159 0 160 0 54 83 c117 175 201 381 233 572 23 135 23 385
0 520 -30 174 -126 419 -218 553 l-29 42 -179 0 -180 0 0 180 0 180 -52 34
c-155 99 -371 183 -538 211 -96 16 -325 27 -390 19z m523 -172 c119 -40 212
-81 289 -128 l58 -35 0 -200 0 -199 199 0 200 0 35 -58 c47 -77 88 -170 128
-289 l32 -98 4 -269 c3 -225 1 -281 -13 -345 -31 -139 -107 -316 -187 -436
l-33 -50 -183 -3 -182 -2 0 -173 0 -173 -72 -41 c-213 -120 -427 -176 -673
-176 -272 0 -512 70 -742 215 l-63 40 0 154 0 154 -153 0 -152 0 -35 53 c-95
143 -174 345 -206 522 -20 117 -20 342 0 458 24 132 71 269 138 400 l61 117
173 0 174 0 0 180 0 179 58 39 c109 74 276 148 412 182 66 17 108 19 355 17
l280 -3 98 -32z"/>
<path d="M1458 2624 c-33 -17 -58 -62 -58 -101 0 -36 33 -89 59 -98 20 -6 21
-14 21 -135 0 -119 -2 -130 -20 -140 -11 -6 -28 -27 -38 -48 -17 -37 -17 -37
-154 -70 l-136 -34 -29 22 c-35 26 -103 29 -136 7 -13 -9 -32 -32 -41 -52 -17
-34 -17 -40 -2 -79 30 -80 127 -103 185 -45 17 17 31 41 31 54 0 26 22 34 194
75 l87 21 29 -28 30 -28 0 -676 0 -677 -35 -35 c-30 -30 -35 -42 -35 -81 0
-36 6 -52 29 -78 26 -29 35 -33 81 -33 46 0 55 4 81 33 39 44 41 107 3 151
-14 17 -32 31 -40 31 -12 0 -14 101 -14 680 l0 679 28 15 c16 8 34 21 41 29
12 16 31 13 179 -29 47 -13 52 -17 52 -44 0 -19 11 -39 31 -59 60 -60 161 -31
189 54 9 28 8 41 -6 70 -9 20 -28 43 -41 52 -30 20 -95 19 -132 -3 -27 -16
-33 -16 -138 10 -108 27 -110 28 -122 63 -8 21 -26 43 -47 55 l-34 20 0 122
c0 118 1 123 23 135 13 7 31 25 40 41 59 99 -53 210 -155 154z"/>
</g>
</svg>
