<?xml version="1.0" standalone="no"?>
<!DOCTYPE svg PUBLIC "-//W3C//DTD SVG 20010904//EN"
 "http://www.w3.org/TR/2001/REC-SVG-20010904/DTD/svg10.dtd">
<svg version="1.0" xmlns="http://www.w3.org/2000/svg"
 width="238.000000pt" height="238.000000pt" viewBox="0 0 238.000000 238.000000"
 preserveAspectRatio="xMidYMid meet">
<metadata>
Created by potrace 1.16, written by Peter Selinger 2001-2019
</metadata>
<g transform="translate(0.000000,238.000000) scale(0.100000,-0.100000)"
fill="#000000" stroke="none">
<path d="M682 1837 l-513 -513 74 -12 c153 -24 230 -72 344 -218 24 -31 43
-44 76 -52 63 -16 85 -38 110 -112 20 -60 25 -66 64 -80 57 -21 80 -44 99
-104 9 -28 26 -67 37 -86 24 -40 123 -147 149 -161 16 -8 18 -5 18 27 0 27 -7
42 -30 62 -33 29 -39 65 -15 96 27 35 19 95 -22 160 l-36 59 23 69 23 68 -18
105 c-12 69 -16 129 -12 173 10 118 125 525 231 817 l36 100 -57 57 c-32 32
-60 58 -63 58 -3 0 -236 -231 -518 -513z"/>
<path d="M1613 1804 c-87 -98 -167 -222 -243 -379 -128 -261 -171 -426 -169
-652 1 -76 4 -151 8 -168 6 -26 8 -23 14 28 18 147 113 368 218 507 132 175
367 357 517 401 l43 13 -158 158 c-87 87 -161 158 -165 158 -4 0 -33 -30 -65
-66z"/>
<path d="M2050 1215 c-281 -56 -534 -217 -676 -431 -62 -93 -95 -169 -127
-289 l-22 -82 -66 21 c-81 26 -131 59 -166 109 -35 51 -55 60 -98 48 -31 -8
-37 -7 -54 15 -17 21 -25 24 -58 18 -34 -5 -44 -2 -81 29 -44 37 -126 79 -176
91 -25 6 -6 -18 112 -141 77 -81 234 -241 349 -355 l208 -208 579 579 c503
503 578 582 567 595 -17 20 -193 21 -291 1z"/>
</g>
</svg>
