<?xml version="1.0" encoding="UTF-8" standalone="no"?>
<svg
   xmlns:dc="http://purl.org/dc/elements/1.1/"
   xmlns:cc="http://creativecommons.org/ns#"
   xmlns:rdf="http://www.w3.org/1999/02/22-rdf-syntax-ns#"
   xmlns:svg="http://www.w3.org/2000/svg"
   xmlns="http://www.w3.org/2000/svg"
   xmlns:sodipodi="http://sodipodi.sourceforge.net/DTD/sodipodi-0.dtd"
   xmlns:inkscape="http://www.inkscape.org/namespaces/inkscape"
   version="1.0"
   width="288.000000pt"
   height="289.000000pt"
   viewBox="0 0 288.000000 289.000000"
   preserveAspectRatio="xMidYMid meet"
   id="svg1157"
   sodipodi:docname="vicissitude.svg"
   inkscape:version="1.0.1 (3bc2e813f5, 2020-09-07)">
  <defs
     id="defs1161" />
  <sodipodi:namedview
     pagecolor="#ffffff"
     bordercolor="#666666"
     borderopacity="1"
     objecttolerance="10"
     gridtolerance="10"
     guidetolerance="10"
     inkscape:pageopacity="0"
     inkscape:pageshadow="2"
     inkscape:window-width="1600"
     inkscape:window-height="837"
     id="namedview1159"
     showgrid="false"
     inkscape:zoom="1.7387543"
     inkscape:cx="192"
     inkscape:cy="169.66169"
     inkscape:window-x="-8"
     inkscape:window-y="-8"
     inkscape:window-maximized="1"
     inkscape:current-layer="svg1157"
     inkscape:document-rotation="0" />
  <metadata
     id="metadata1147">
Created by potrace 1.16, written by Peter Selinger 2001-2019
<rdf:RDF>
  <cc:Work
     rdf:about="">
    <dc:format>image/svg+xml</dc:format>
    <dc:type
       rdf:resource="http://purl.org/dc/dcmitype/StillImage" />
  </cc:Work>
</rdf:RDF>
</metadata>
  <g
     transform="translate(0.000000,289.000000) scale(0.100000,-0.100000)"
     fill="#000000"
     stroke="none"
     id="g1155">
    <path
       d="M240 2221 l0 -429 38 -12 c123 -40 237 -126 304 -231 41 -64 79 -94 129 -104 19 -4 53 -16 75 -28 35 -20 42 -30 65 -101 29 -91 54 -121 106 -131 55 -10 96 -57 121 -140 28 -94 84 -177 168 -251 96 -84 94 -83 94 -29 0 40 -5 51 -40 85 -45 44 -49 64 -20 120 24 46 27 128 6 168 -8 15 -28 44 -45 66 -38 47 -39 74 -6 154 30 75 31 116 4 252 -24 121 -21 193 12 347 35 163 141 497 214 676 7 16 -26 17 -609 17 l-616 0 0 -429z"
       id="path1149" />
    <path
       d="M2043 2568 c-308 -365 -533 -827 -604 -1236 -19 -116 -22 -224 -10 -422 l6 -105 13 85 c48 311 192 572 458 830 210 203 434 350 641 420 l88 29 3 241 2 240 -264 0 -264 0 -69 -82z"
       id="path1151" />
    <path
       d="M2525 1669 c-280 -68 -541 -201 -717 -367 -171 -160 -292 -382 -338 -620 l-13 -64 -35 7 c-112 21 -216 83 -280 167 -48 64 -73 76 -127 58 -35 -12 -38 -11 -71 21 -33 32 -36 32 -69 20 -38 -14 -42 -12 -100 34 -80 64 -142 83 -381 119 l-154 23 2 -406 3 -406 1195 0 1195 0 3 718 c2 678 1 717 -15 716 -10 0 -54 -9 -98 -20z"
       id="path1153" />
  </g>
  <path
     style="fill:#ffffff;stroke-width:0.575124"
     d="m 189.12438,301.58843 c -5.67928,-1.23282 -10.73256,-3.00157 -15.81574,-5.53582 -9.05581,-4.51482 -14.17021,-8.77667 -23.23792,-19.36427 -1.70962,-1.99616 -3.90947,-4.11788 -4.88856,-4.71493 -2.19353,-1.33759 -5.96991,-1.40615 -10.08821,-0.18314 -1.67922,0.49867 -3.60254,0.76787 -4.27404,0.59823 -0.67149,-0.16965 -2.98022,-1.87168 -5.13049,-3.78231 -2.15026,-1.91062 -4.3743,-3.47385 -4.9423,-3.47385 -0.568,0 -2.52838,0.51458 -4.35642,1.14352 -1.92629,0.66274 -3.92202,0.99334 -4.74681,0.78633 -0.78271,-0.19644 -4.18018,-2.43421 -7.54993,-4.97281 C 91.63233,252.7014 83.055231,250.23965 41.892537,244.23665 l -8.914428,-1.30004 -0.147085,-47.85239 c -0.0809,-26.31881 0.06788,-47.85238 0.330609,-47.85238 0.262732,0 2.269965,0.61224 4.460518,1.36053 15.719532,5.36979 29.626664,15.80562 38.681965,29.02671 5.120449,7.47605 8.766564,11.24156 12.871191,13.29267 1.931544,0.9652 3.857739,1.75492 4.280432,1.75492 1.104331,0 7.559461,2.26001 10.262671,3.59307 2.80098,1.38128 5.27822,3.61931 6.41431,5.79492 0.46637,0.89309 1.88062,4.61867 3.14278,8.27907 1.26215,3.66039 2.78615,7.61833 3.38665,8.79541 2.37161,4.64874 5.72446,7.34858 10.3488,8.33322 3.25427,0.69293 7.11178,2.90684 9.31602,5.34667 2.96869,3.28599 4.70797,6.54568 6.96665,13.05664 1.09732,3.16319 2.68093,7.29509 3.51913,9.182 2.50577,5.6409 8.59278,14.20805 13.96903,19.6607 6.59731,6.69107 15.55482,14.11401 16.7552,13.88476 0.77156,-0.14735 0.97858,-1.05829 1.11438,-4.90347 0.20091,-5.6889 -0.37229,-7.04756 -5.0399,-11.94597 -5.86221,-6.15208 -6.1719,-7.76313 -2.91763,-15.17769 2.33795,-5.3268 3.09628,-9.61263 2.73984,-15.48456 -0.33499,-5.51859 -1.3874,-7.94726 -6.35386,-14.66291 -1.72896,-2.33791 -3.55818,-5.05251 -4.06492,-6.03244 -1.65596,-3.20228 -1.17447,-7.10547 2.02644,-16.42713 l 2.9478,-8.58456 -0.30227,-7.53645 c -0.17814,-4.44163 -0.90983,-10.72479 -1.78179,-15.30064 -3.11292,-16.33571 -3.22121,-22.83366 -0.63776,-38.26843 3.40559,-20.34667 17.6837,-67.990657 28.3932,-94.74405 2.24331,-5.603999 2.27319,-6.593177 0.20864,-6.905929 -0.86987,-0.131776 18.29705,-0.278369 42.59315,-0.325764 35.20936,-0.06868 44.08516,0.05973 43.73336,0.632734 -0.24276,0.395398 -3.75536,4.6674 -7.80578,9.493337 -35.46845,42.259452 -62.4059,92.779832 -75.51205,141.620592 -6.55963,24.44482 -8.45586,42.25281 -7.22634,67.86468 1.03393,21.53748 1.35679,26.48889 1.70459,26.14109 0.18301,-0.183 0.90514,-4.0348 1.60473,-8.55956 3.14008,-20.30889 7.87411,-35.94645 15.78793,-52.15107 9.88654,-20.24405 21.70259,-36.49622 40.40792,-55.57836 24.52188,-25.01585 50.7273,-44.16712 76.18247,-55.67516 5.31622,-2.40341 24.53544,-9.460524 25.76464,-9.460524 0.11313,0 0.20172,14.557834 0.19688,32.350744 -0.005,18.68721 -0.22114,32.01551 -0.51154,31.55701 -0.65441,-1.03322 -3.31966,-0.63189 -15.12107,2.2769 -10.97182,2.70431 -21.08924,5.92667 -31.51879,10.03861 -40.77732,16.0768 -70.81282,39.99056 -89.15126,70.98071 -9.45501,15.97804 -15.3527,31.45925 -19.34603,50.78259 -0.89884,4.34938 -1.89413,7.88198 -2.21176,7.85021 -0.31763,-0.0317 -2.25975,-0.42291 -4.31582,-0.86924 z"
     id="path1181"
     transform="scale(0.74999999)" />
</svg>
