<?xml version="1.0" standalone="no"?>
<!DOCTYPE svg PUBLIC "-//W3C//DTD SVG 20010904//EN"
 "http://www.w3.org/TR/2001/REC-SVG-20010904/DTD/svg10.dtd">
<svg version="1.0" xmlns="http://www.w3.org/2000/svg"
 width="288.000000pt" height="289.000000pt" viewBox="0 0 288.000000 289.000000"
 preserveAspectRatio="xMidYMid meet">
<metadata>
Created by potrace 1.16, written by Peter Selinger 2001-2019
</metadata>
<g transform="translate(0.000000,289.000000) scale(0.100000,-0.100000)"
fill="#000000" stroke="none">
<path d="M240 2221 l0 -429 38 -12 c123 -40 237 -126 304 -231 41 -64 79 -94
129 -104 19 -4 53 -16 75 -28 35 -20 42 -30 65 -101 29 -91 54 -121 106 -131
55 -10 96 -57 121 -140 28 -94 84 -177 168 -251 96 -84 94 -83 94 -29 0 40 -5
51 -40 85 -45 44 -49 64 -20 120 24 46 27 128 6 168 -8 15 -28 44 -45 66 -38
47 -39 74 -6 154 30 75 31 116 4 252 -24 121 -21 193 12 347 35 163 141 497
214 676 7 16 -26 17 -609 17 l-616 0 0 -429z"/>
<path d="M2043 2568 c-308 -365 -533 -827 -604 -1236 -19 -116 -22 -224 -10
-422 l6 -105 13 85 c48 311 192 572 458 830 210 203 434 350 641 420 l88 29 3
241 2 240 -264 0 -264 0 -69 -82z"/>
<path d="M2525 1669 c-280 -68 -541 -201 -717 -367 -171 -160 -292 -382 -338
-620 l-13 -64 -35 7 c-112 21 -216 83 -280 167 -48 64 -73 76 -127 58 -35 -12
-38 -11 -71 21 -33 32 -36 32 -69 20 -38 -14 -42 -12 -100 34 -80 64 -142 83
-381 119 l-154 23 2 -406 3 -406 1195 0 1195 0 3 718 c2 678 1 717 -15 716
-10 0 -54 -9 -98 -20z"/>
</g>
</svg>
