<?xml version="1.0" encoding="UTF-8" standalone="no"?>
<svg
   xmlns:dc="http://purl.org/dc/elements/1.1/"
   xmlns:cc="http://creativecommons.org/ns#"
   xmlns:rdf="http://www.w3.org/1999/02/22-rdf-syntax-ns#"
   xmlns:svg="http://www.w3.org/2000/svg"
   xmlns="http://www.w3.org/2000/svg"
   xmlns:sodipodi="http://sodipodi.sourceforge.net/DTD/sodipodi-0.dtd"
   xmlns:inkscape="http://www.inkscape.org/namespaces/inkscape"
   version="1.0"
   width="300.000000pt"
   height="300.000000pt"
   viewBox="0 0 300.000000 300.000000"
   preserveAspectRatio="xMidYMid meet"
   id="svg1252"
   sodipodi:docname="visceratika.svg"
   inkscape:version="1.0.1 (3bc2e813f5, 2020-09-07)">
  <defs
     id="defs1256" />
  <sodipodi:namedview
     pagecolor="#ffffff"
     bordercolor="#666666"
     borderopacity="1"
     objecttolerance="10"
     gridtolerance="10"
     guidetolerance="10"
     inkscape:pageopacity="0"
     inkscape:pageshadow="2"
     inkscape:window-width="1600"
     inkscape:window-height="837"
     id="namedview1254"
     showgrid="false"
     inkscape:zoom="1.675"
     inkscape:cx="200"
     inkscape:cy="200"
     inkscape:window-x="-8"
     inkscape:window-y="-8"
     inkscape:window-maximized="1"
     inkscape:current-layer="svg1252" />
  <metadata
     id="metadata1246">
Created by potrace 1.16, written by Peter Selinger 2001-2019
<rdf:RDF>
  <cc:Work
     rdf:about="">
    <dc:format>image/svg+xml</dc:format>
    <dc:type
       rdf:resource="http://purl.org/dc/dcmitype/StillImage" />
  </cc:Work>
</rdf:RDF>
</metadata>
  <g
     transform="translate(0.000000,300.000000) scale(0.100000,-0.100000)"
     fill="#000000"
     stroke="none"
     id="g1250">
    <path
       d="M275 1500 l0 -1220 1225 0 1225 0 0 1220 0 1220 -1225 0 -1225 0 0 -1220z m1005 610 c21 -16 41 -30 45 -30 5 0 23 -11 41 -25 18 -14 36 -25 39 -25 4 0 20 -11 37 -25 16 -14 36 -25 44 -25 8 0 14 -3 14 -8 0 -4 21 -19 48 -32 26 -14 63 -37 83 -52 20 -16 40 -28 44 -28 4 0 24 -13 44 -28 20 -15 47 -33 61 -40 14 -7 43 -23 65 -37 22 -13 48 -27 58 -31 9 -3 17 -10 17 -15 0 -5 6 -9 13 -9 8 0 24 -11 37 -25 13 -14 30 -25 38 -25 8 0 29 -10 46 -23 17 -12 42 -28 56 -35 34 -16 64 -35 71 -45 7 -10 41 -30 86 -52 17 -8 34 -19 37 -24 3 -5 25 -18 48 -30 67 -34 90 -48 97 -59 3 -6 27 -21 53 -35 26 -14 59 -34 75 -44 15 -11 36 -23 46 -26 9 -4 17 -13 17 -20 0 -11 -15 -13 -72 -9 -40 2 -77 8 -83 12 -5 4 -55 11 -110 15 -55 4 -104 11 -110 15 -5 4 -57 11 -115 15 -58 4 -110 11 -115 16 -6 4 -102 13 -214 18 -112 6 -209 15 -215 20 -6 5 -62 12 -123 16 -62 4 -113 11 -113 15 0 4 -27 10 -60 12 -47 3 -64 9 -82 29 -48 52 -80 40 -38 -14 11 -14 20 -30 20 -36 0 -6 4 -11 8 -11 4 0 13 -12 20 -27 6 -16 23 -46 37 -68 13 -22 27 -48 31 -57 3 -10 10 -18 14 -18 5 0 11 -13 15 -30 4 -16 10 -30 15 -30 4 0 11 -11 14 -25 4 -14 15 -34 25 -44 9 -9 33 -49 52 -87 30 -61 40 -73 81 -92 26 -12 54 -22 63 -22 8 0 15 -4 15 -9 0 -5 12 -12 27 -16 15 -3 30 -10 33 -13 8 -11 70 -42 83 -42 7 0 35 -11 62 -25 28 -13 58 -25 67 -25 9 0 18 -3 20 -7 2 -5 24 -18 51 -31 26 -13 47 -28 47 -33 0 -5 -296 -9 -755 -9 -690 0 -756 1 -762 16 -3 9 -1 24 5 34 6 10 14 34 17 54 4 20 11 39 16 42 5 3 9 12 9 21 0 9 6 24 14 32 10 12 15 78 21 282 l7 266 -35 16 c-19 10 -49 17 -66 17 -17 0 -31 4 -31 9 0 5 -9 11 -20 14 -17 4 -20 14 -20 59 0 30 -5 59 -11 65 -7 7 -7 17 -2 29 6 11 17 33 25 51 12 23 13 34 5 42 -9 9 -9 14 -1 19 6 4 14 20 18 36 4 16 27 53 52 81 24 29 44 56 44 61 0 19 106 113 135 120 17 4 33 11 36 16 9 14 81 14 86 1 3 -7 -1 -13 -8 -13 -17 0 -59 -40 -59 -57 0 -7 -4 -13 -9 -13 -5 0 -12 -13 -16 -30 -4 -16 -11 -30 -16 -30 -6 0 -9 -12 -7 -27 4 -39 39 -53 133 -53 l80 0 165 160 c91 87 173 159 184 160 10 0 35 -13 56 -30z m257 -2 c18 -18 33 -38 33 -45 0 -7 5 -13 12 -13 17 0 78 -61 78 -77 0 -8 8 -16 18 -20 9 -3 25 -13 35 -21 36 -32 14 -28 -55 9 -40 21 -84 44 -98 51 -14 7 -27 15 -30 18 -14 14 -71 50 -80 50 -5 0 -10 5 -10 10 0 6 -7 10 -15 10 -27 0 -16 19 23 39 50 26 51 25 89 -11z m-627 -106 c0 -11 -30 -37 -52 -45 -10 -4 -18 -12 -18 -20 0 -7 -17 -30 -38 -50 -34 -34 -42 -37 -65 -28 -55 21 -22 78 78 138 23 14 95 17 95 5z m985 -732 c50 -5 125 -10 167 -10 42 0 79 -4 82 -9 3 -5 53 -12 111 -16 58 -4 108 -11 111 -16 3 -5 16 -9 29 -9 13 0 30 -7 37 -16 7 -10 56 -62 109 -118 53 -56 100 -110 104 -121 14 -34 15 -54 5 -60 -6 -3 -10 -1 -10 4 0 6 -8 11 -17 11 -10 0 -30 6 -45 14 -15 8 -42 17 -60 21 -18 4 -44 16 -57 26 -13 11 -29 19 -35 19 -6 0 -36 12 -66 26 -98 46 -115 53 -142 60 -16 3 -28 10 -28 15 0 5 -3 8 -7 7 -5 -1 -32 10 -61 25 -30 15 -65 27 -78 27 -13 0 -24 4 -24 9 0 5 -13 12 -30 16 -16 4 -30 10 -30 14 0 4 -19 14 -42 21 -24 7 -47 17 -52 22 -6 4 -16 8 -24 8 -22 0 -82 31 -82 42 0 6 10 8 23 4 12 -3 63 -10 112 -16z m745 -800 l0 -140 -1092 0 c-1002 0 -1093 1 -1110 17 -10 9 -18 22 -18 30 0 7 -4 13 -10 13 -5 0 -10 8 -10 18 0 9 -7 30 -15 46 -8 15 -15 36 -15 46 0 10 -7 23 -15 30 -8 7 -12 16 -9 21 3 5 0 9 -5 9 -6 0 -11 7 -11 15 0 13 112 15 945 15 623 0 945 3 945 10 0 6 77 10 210 10 l210 0 0 -140z"
       id="path1248" />
  </g>
  <path
     style="fill:#ffffff;stroke-width:0.597015"
     d="m 71.641791,311.10983 c -3.776119,-0.21798 -7.201492,-0.6063 -7.61194,-0.86294 -1.00152,-0.62621 -0.943641,-3.05884 0.121799,-5.11917 0.477438,-0.92327 1.323444,-3.52933 1.880014,-5.79125 0.556571,-2.26193 1.643553,-5.21082 2.415515,-6.5531 0.771962,-1.34228 1.403567,-2.92251 1.403567,-3.51162 0,-0.58911 0.529184,-1.92735 1.175963,-2.97386 1.989775,-3.21952 2.34654,-8.80115 3.934998,-61.56335 l 0.378701,-12.57889 -3.4911,-1.54784 c -4.406227,-1.95358 -7.663752,-2.83904 -10.460218,-2.84328 -1.427589,-0.002 -2.782014,-0.49575 -3.880597,-1.41418 -0.928179,-0.77597 -2.291451,-1.59984 -3.029494,-1.83084 -1.548494,-0.48465 -1.747645,-1.20726 -2.232798,-8.1016 -0.196405,-2.79104 -0.781168,-6.29382 -1.299473,-7.78395 -0.937188,-2.69442 -0.931745,-2.73038 0.989133,-6.53562 3.239879,-6.41816 3.756256,-8.31754 2.699659,-9.93011 -0.830304,-1.26721 -0.784294,-1.54559 0.590196,-3.57102 0.819886,-1.20817 1.490702,-2.65484 1.490702,-3.21483 0,-1.31499 3.723603,-7.06106 8.341608,-12.87233 2.003305,-2.52095 4.142903,-5.56104 4.754661,-6.75575 1.891494,-3.69394 15.311292,-15.60505 17.581623,-15.60505 0.382686,0 2.300893,-0.79754 4.262682,-1.7723 3.726369,-1.85156 7.308326,-2.28711 10.095188,-1.22755 2.07247,0.78795 1.92587,1.42332 -0.53362,2.31268 -2.34537,0.8481 -6.890202,5.6747 -6.890202,7.31739 0,0.59893 -0.517991,1.36619 -1.151092,1.70501 -0.660092,0.35327 -1.540988,1.95384 -2.065154,3.75235 -0.502734,1.72497 -1.462354,3.60382 -2.13249,4.17524 -1.428446,1.21801 -1.552993,3.27331 -0.369937,6.10477 1.585583,3.79483 6.643214,5.0951 19.818325,5.0951 h 8.50721 l 12.6942,-12.31368 c 20.31561,-19.70662 31.97784,-30.07311 33.83306,-30.074 1.21388,-5.9e-4 4.15378,1.67195 8.51653,4.84514 2.20478,1.60362 4.24215,2.91567 4.52749,2.91567 0.54014,0 8.64186,5.26308 14.83678,9.63834 1.97015,1.39145 4.45315,2.83282 5.51778,3.20305 1.06462,0.37023 2.54224,1.23301 3.28358,1.91729 0.74134,0.68428 4.03446,2.78082 7.31805,4.65898 3.28358,1.87816 7.73157,4.71216 9.88443,6.29779 2.15286,1.58562 4.6159,3.1497 5.47344,3.47574 0.85754,0.32603 3.43927,1.93434 5.73719,3.57402 4.40249,3.14139 16.98083,10.57791 23.15817,13.69149 2.01092,1.01357 3.81266,2.25055 4.00387,2.74884 0.19121,0.49829 1.23248,1.27697 2.31394,1.7304 1.08145,0.45342 3.39208,2.04334 5.13474,3.53315 1.74266,1.48982 3.96595,2.86825 4.94065,3.06319 0.9747,0.19494 3.31009,1.39809 5.18974,2.67368 1.87966,1.27559 5.9698,3.7355 9.0892,5.46648 3.1194,1.73097 6.83629,4.17202 8.25975,5.42454 1.42346,1.25252 5.18934,3.61347 8.36861,5.24655 3.17927,1.63308 6.85044,3.82 8.15816,4.85981 1.30771,1.03982 5.45839,3.53144 9.22374,5.53694 3.76533,2.0055 7.82278,4.52876 9.01653,5.60725 1.89626,1.71315 12.48318,8.22357 21.83339,13.42643 3.5364,1.96781 4.67868,3.13244 4.05772,4.13718 -0.6521,1.05513 -13.85438,0.28765 -20.0077,-1.16309 -2.76628,-0.65219 -9.65493,-1.62355 -15.30812,-2.15857 -5.65318,-0.53502 -11.78542,-1.36526 -13.62718,-1.84498 -1.84177,-0.47972 -8.94705,-1.40552 -15.78952,-2.05733 -6.84245,-0.65181 -13.11842,-1.44273 -13.94659,-1.7576 -2.14963,-0.81729 -11.52772,-1.69755 -29.04476,-2.72624 -16.89457,-0.99213 -26.2528,-1.8582 -28.95522,-2.6797 -2.16181,-0.65715 -9.49651,-1.59121 -16.41791,-2.09079 -7.67454,-0.55393 -14.54002,-1.52199 -15.30673,-2.1583 -0.37689,-0.3128 -3.80928,-0.95625 -7.62754,-1.42991 -7.89835,-0.9798 -8.59524,-1.25227 -12.28962,-4.80504 -3.98218,-3.82954 -7.17909,-4.65901 -7.1514,-1.85551 0.007,0.71145 1.21598,3.15095 2.68657,5.42112 1.47058,2.27017 2.67379,4.37636 2.67379,4.68042 0,0.30406 0.52445,0.99889 1.16546,1.54406 0.641,0.54517 2.06946,2.73749 3.17435,4.87182 4.33352,8.37106 9.661,17.45431 10.40463,17.73967 0.43021,0.16509 1.2062,1.75866 1.72443,3.54128 0.51822,1.78262 1.4505,3.71467 2.07174,4.29344 0.62125,0.57878 1.50725,2.12285 1.96888,3.43127 0.46164,1.30843 2.32297,4.5578 4.13629,7.22083 1.81332,2.66303 4.68048,7.53535 6.37148,10.82737 1.95775,3.81134 3.99028,6.8296 5.59559,8.30932 2.47317,2.27969 10.5192,6.12935 12.81071,6.12935 0.63159,0 1.86298,0.6623 2.73643,1.47178 0.87344,0.80948 2.59177,1.7472 3.81852,2.08383 1.22674,0.33663 3.03642,1.16593 4.02149,1.8429 2.89853,1.99192 8.20135,4.58211 10.82984,5.28989 1.34283,0.36159 4.78954,1.74222 7.65935,3.06808 2.86981,1.32585 6.66529,2.78766 8.43439,3.24845 1.76911,0.46079 4.09175,1.49463 5.16142,2.29742 1.06967,0.80279 3.42246,2.19952 5.22843,3.10385 1.80597,0.90432 3.90913,2.0537 4.67367,2.55417 1.31011,0.85758 1.32728,0.94665 0.29851,1.54805 -1.2291,0.7185 -179.893478,1.11181 -191.837849,0.42231 z"
     id="path1258"
     transform="scale(0.75)" />
  <path
     style="fill:#ffffff;stroke-width:0.597015"
     d="m 221.16703,140.83649 c -11.47651,-5.85488 -15.66006,-8.21621 -18.89658,-10.66584 -1.67334,-1.26651 -4.49122,-3.03576 -6.26197,-3.93167 -1.77074,-0.89591 -3.48709,-2.12888 -3.81411,-2.73993 -0.33289,-0.622 -1.24227,-1.11099 -2.06612,-1.11099 -3.65282,0 0.52194,-3.92953 6.7375,-6.34172 2.51927,-0.97771 2.55436,-0.97298 4.91291,0.6615 2.7102,1.87817 6.2873,6.02785 7.14834,8.29256 0.33044,0.86911 1.44308,1.89246 2.56914,2.36296 2.66135,1.11198 7.86019,6.25366 9.20774,9.1065 0.64588,1.36736 1.96048,2.79326 3.23869,3.51288 3.31002,1.86351 6.35133,4.43441 5.28416,4.46684 -0.50739,0.0154 -4.13425,-1.61047 -8.0597,-3.61309 z"
     id="path1260"
     transform="scale(0.75)" />
  <path
     style="fill:#ffffff;stroke-width:0.597015"
     d="m 96.635591,150.54946 c -2.228494,-1.99116 -2.117285,-3.31257 0.593746,-7.05504 1.83964,-2.53955 8.509953,-7.85806 12.024393,-9.58754 2.79879,-1.3773 11.34328,-1.86613 11.34328,-0.64896 0,1.16103 -2.78732,3.67566 -5.67953,5.12388 -1.67668,0.83956 -2.70722,1.90523 -3.4328,3.54979 -0.57026,1.29253 -2.89134,4.14042 -5.15794,6.32864 -4.81729,4.6507 -6.581732,5.06749 -9.691149,2.28923 z"
     id="path1262"
     transform="scale(0.75)" />
  <path
     style="fill:#ffffff;stroke-width:0.597015"
     d="m 351.78034,279.40299 c -0.41471,-0.66406 -1.39225,-1.19403 -2.20242,-1.19403 -0.8012,0 -3.82131,-0.93752 -6.71135,-2.08338 -2.89005,-1.14586 -6.33674,-2.3491 -7.65933,-2.67387 -1.32258,-0.32477 -4.2238,-1.68764 -6.44714,-3.0286 -2.22334,-1.34096 -5.17108,-2.78423 -6.55052,-3.20727 -1.37945,-0.42303 -6.94092,-2.79834 -12.35883,-5.27846 -5.41791,-2.48013 -11.39233,-4.95623 -13.27647,-5.50245 -1.88415,-0.54622 -3.6564,-1.40533 -3.93833,-1.90912 -0.28194,-0.50379 -1.82992,-1.39321 -3.43995,-1.97648 -1.61004,-0.58328 -5.09616,-2.03148 -7.74693,-3.21822 -2.65077,-1.18674 -6.24816,-2.42864 -7.9942,-2.75977 -1.74604,-0.33113 -3.47274,-1.00001 -3.83713,-1.4864 -0.36438,-0.48639 -2.21449,-1.4145 -4.11134,-2.06247 -1.89685,-0.64796 -3.83971,-1.569 -4.31746,-2.04675 -0.47776,-0.47776 -2.14967,-1.33301 -3.71536,-1.90058 -1.56569,-0.56756 -4.32433,-1.69262 -6.1303,-2.50012 -1.80597,-0.8075 -4.92852,-1.93361 -6.939,-2.50247 -3.88849,-1.10023 -9.1804,-3.89248 -9.1804,-4.84399 0,-0.73293 -0.44747,-0.76252 8.95522,0.59223 9.43534,1.35946 22.42875,2.40139 30.44777,2.44159 5.39188,0.027 7.33762,0.28611 12.83582,1.70914 1.31343,0.33994 6.95522,1.04853 12.53731,1.57466 10.05579,0.94777 12.6539,1.36619 16.1194,2.59599 0.98508,0.34957 2.76645,0.78242 3.95861,0.96189 1.89414,0.28514 3.56031,1.81197 13.2082,12.10366 15.21392,16.22913 18.6348,20.36319 19.83143,23.96593 1.3656,4.11141 0.43233,7.06296 -1.3373,4.22934 z"
     id="path1264"
     transform="scale(0.75)" />
  <path
     style="fill:#ffffff;stroke-width:0.597015"
     d="m 79.701493,355.20673 c -10.422118,-0.23346 -18.564099,-0.66951 -19.473837,-1.04296 -1.820708,-0.74739 -4.108253,-3.44625 -4.108253,-4.84694 0,-0.53345 -0.537313,-1.30547 -1.19403,-1.71559 -0.656716,-0.41013 -1.200406,-1.34789 -1.2082,-2.08391 -0.0078,-0.73602 -0.704872,-2.95017 -1.549063,-4.92032 -0.84419,-1.97014 -1.895637,-5.0245 -2.336549,-6.78744 -0.440911,-1.76295 -1.355774,-3.79519 -2.033027,-4.51609 -0.677254,-0.72091 -1.23137,-1.88845 -1.23137,-2.59453 0,-0.7061 -0.566156,-1.5868 -1.258125,-1.95713 -4.824179,-2.58183 4.051698,-2.85358 96.482001,-2.95398 94.58692,-0.10274 152.51779,-0.76248 155.52239,-1.77114 1.40465,-0.47154 10.65093,-0.81315 28.20896,-1.04219 l 26.1194,-0.34072 v 18.59355 18.59356 l -127.01492,-0.10649 c -69.85821,-0.0586 -135.074631,-0.28703 -144.925377,-0.50768 z"
     id="path1266"
     transform="scale(0.75)" />
</svg>
