<?xml version="1.0" standalone="no"?>
<!DOCTYPE svg PUBLIC "-//W3C//DTD SVG 20010904//EN"
 "http://www.w3.org/TR/2001/REC-SVG-20010904/DTD/svg10.dtd">
<svg version="1.0" xmlns="http://www.w3.org/2000/svg"
 width="238.000000pt" height="238.000000pt" viewBox="0 0 238.000000 238.000000"
 preserveAspectRatio="xMidYMid meet">
<metadata>
Created by potrace 1.16, written by Peter Selinger 2001-2019
</metadata>
<g transform="translate(0.000000,238.000000) scale(0.100000,-0.100000)"
fill="#000000" stroke="none">
<path d="M617 1772 l-577 -577 578 -578 577 -577 580 580 580 580 -575 575
c-316 316 -577 575 -580 575 -3 0 -265 -260 -583 -578z m624 -124 c121 -73
246 -147 277 -164 31 -16 80 -44 107 -61 28 -17 86 -51 130 -76 110 -64 111
-64 105 -70 -3 -3 -53 0 -110 8 -146 20 -362 44 -445 50 -38 2 -83 6 -100 9
-16 2 -59 7 -95 11 -38 4 -76 15 -92 27 -16 11 -28 15 -28 9 0 -6 40 -77 90
-159 l90 -148 122 -53 c160 -69 168 -73 168 -83 0 -4 -198 -8 -440 -8 -384 0
-441 2 -446 15 -4 8 3 39 14 68 15 39 22 87 27 190 7 148 3 167 -39 167 -39 0
-60 24 -63 73 -2 25 1 49 7 52 5 3 10 19 10 35 0 41 91 148 150 177 54 27 60
27 60 8 0 -8 -5 -15 -10 -15 -13 0 -50 -60 -50 -82 0 -22 46 -35 97 -28 33 5
57 20 121 78 43 39 85 78 92 87 7 8 16 15 21 15 5 0 108 -60 230 -132z m4 71
c66 -68 58 -69 -47 -8 -66 39 -70 43 -53 55 10 8 24 14 30 14 6 0 37 -28 70
-61z m-425 -17 c0 -18 -79 -84 -94 -79 -24 10 -19 33 12 53 46 32 82 43 82 26z
m683 -422 c214 -19 214 -19 295 -100 64 -63 88 -100 65 -100 -13 0 -97 31
-108 39 -5 4 -32 16 -60 26 -27 10 -74 29 -104 42 -60 27 -129 53 -229 88 -7
3 -10 10 -7 16 4 6 14 8 22 5 8 -4 65 -11 126 -16z m355 -447 l-3 -78 -635 -3
c-349 -1 -644 0 -655 2 -20 5 -55 62 -55 90 0 8 -7 19 -15 26 -8 7 -15 16 -15
21 0 5 255 10 568 12 312 1 622 3 690 5 l123 2 -3 -77z"/>
</g>
</svg>
