<?xml version="1.0" standalone="no"?>
<!DOCTYPE svg PUBLIC "-//W3C//DTD SVG 20010904//EN"
 "http://www.w3.org/TR/2001/REC-SVG-20010904/DTD/svg10.dtd">
<svg version="1.0" xmlns="http://www.w3.org/2000/svg"
 width="300.000000pt" height="300.000000pt" viewBox="0 0 300.000000 300.000000"
 preserveAspectRatio="xMidYMid meet">
<metadata>
Created by potrace 1.16, written by Peter Selinger 2001-2019
</metadata>
<g transform="translate(0.000000,300.000000) scale(0.100000,-0.100000)"
fill="#000000" stroke="none">
<path d="M275 1500 l0 -1220 1225 0 1225 0 0 1220 0 1220 -1225 0 -1225 0 0
-1220z m1005 610 c21 -16 41 -30 45 -30 5 0 23 -11 41 -25 18 -14 36 -25 39
-25 4 0 20 -11 37 -25 16 -14 36 -25 44 -25 8 0 14 -3 14 -8 0 -4 21 -19 48
-32 26 -14 63 -37 83 -52 20 -16 40 -28 44 -28 4 0 24 -13 44 -28 20 -15 47
-33 61 -40 14 -7 43 -23 65 -37 22 -13 48 -27 58 -31 9 -3 17 -10 17 -15 0 -5
6 -9 13 -9 8 0 24 -11 37 -25 13 -14 30 -25 38 -25 8 0 29 -10 46 -23 17 -12
42 -28 56 -35 34 -16 64 -35 71 -45 7 -10 41 -30 86 -52 17 -8 34 -19 37 -24
3 -5 25 -18 48 -30 67 -34 90 -48 97 -59 3 -6 27 -21 53 -35 26 -14 59 -34 75
-44 15 -11 36 -23 46 -26 9 -4 17 -13 17 -20 0 -11 -15 -13 -72 -9 -40 2 -77
8 -83 12 -5 4 -55 11 -110 15 -55 4 -104 11 -110 15 -5 4 -57 11 -115 15 -58
4 -110 11 -115 16 -6 4 -102 13 -214 18 -112 6 -209 15 -215 20 -6 5 -62 12
-123 16 -62 4 -113 11 -113 15 0 4 -27 10 -60 12 -47 3 -64 9 -82 29 -48 52
-80 40 -38 -14 11 -14 20 -30 20 -36 0 -6 4 -11 8 -11 4 0 13 -12 20 -27 6
-16 23 -46 37 -68 13 -22 27 -48 31 -57 3 -10 10 -18 14 -18 5 0 11 -13 15
-30 4 -16 10 -30 15 -30 4 0 11 -11 14 -25 4 -14 15 -34 25 -44 9 -9 33 -49
52 -87 30 -61 40 -73 81 -92 26 -12 54 -22 63 -22 8 0 15 -4 15 -9 0 -5 12
-12 27 -16 15 -3 30 -10 33 -13 8 -11 70 -42 83 -42 7 0 35 -11 62 -25 28 -13
58 -25 67 -25 9 0 18 -3 20 -7 2 -5 24 -18 51 -31 26 -13 47 -28 47 -33 0 -5
-296 -9 -755 -9 -690 0 -756 1 -762 16 -3 9 -1 24 5 34 6 10 14 34 17 54 4 20
11 39 16 42 5 3 9 12 9 21 0 9 6 24 14 32 10 12 15 78 21 282 l7 266 -35 16
c-19 10 -49 17 -66 17 -17 0 -31 4 -31 9 0 5 -9 11 -20 14 -17 4 -20 14 -20
59 0 30 -5 59 -11 65 -7 7 -7 17 -2 29 6 11 17 33 25 51 12 23 13 34 5 42 -9
9 -9 14 -1 19 6 4 14 20 18 36 4 16 27 53 52 81 24 29 44 56 44 61 0 19 106
113 135 120 17 4 33 11 36 16 9 14 81 14 86 1 3 -7 -1 -13 -8 -13 -17 0 -59
-40 -59 -57 0 -7 -4 -13 -9 -13 -5 0 -12 -13 -16 -30 -4 -16 -11 -30 -16 -30
-6 0 -9 -12 -7 -27 4 -39 39 -53 133 -53 l80 0 165 160 c91 87 173 159 184
160 10 0 35 -13 56 -30z m257 -2 c18 -18 33 -38 33 -45 0 -7 5 -13 12 -13 17
0 78 -61 78 -77 0 -8 8 -16 18 -20 9 -3 25 -13 35 -21 36 -32 14 -28 -55 9
-40 21 -84 44 -98 51 -14 7 -27 15 -30 18 -14 14 -71 50 -80 50 -5 0 -10 5
-10 10 0 6 -7 10 -15 10 -27 0 -16 19 23 39 50 26 51 25 89 -11z m-627 -106
c0 -11 -30 -37 -52 -45 -10 -4 -18 -12 -18 -20 0 -7 -17 -30 -38 -50 -34 -34
-42 -37 -65 -28 -55 21 -22 78 78 138 23 14 95 17 95 5z m985 -732 c50 -5 125
-10 167 -10 42 0 79 -4 82 -9 3 -5 53 -12 111 -16 58 -4 108 -11 111 -16 3 -5
16 -9 29 -9 13 0 30 -7 37 -16 7 -10 56 -62 109 -118 53 -56 100 -110 104
-121 14 -34 15 -54 5 -60 -6 -3 -10 -1 -10 4 0 6 -8 11 -17 11 -10 0 -30 6
-45 14 -15 8 -42 17 -60 21 -18 4 -44 16 -57 26 -13 11 -29 19 -35 19 -6 0
-36 12 -66 26 -98 46 -115 53 -142 60 -16 3 -28 10 -28 15 0 5 -3 8 -7 7 -5
-1 -32 10 -61 25 -30 15 -65 27 -78 27 -13 0 -24 4 -24 9 0 5 -13 12 -30 16
-16 4 -30 10 -30 14 0 4 -19 14 -42 21 -24 7 -47 17 -52 22 -6 4 -16 8 -24 8
-22 0 -82 31 -82 42 0 6 10 8 23 4 12 -3 63 -10 112 -16z m745 -800 l0 -140
-1092 0 c-1002 0 -1093 1 -1110 17 -10 9 -18 22 -18 30 0 7 -4 13 -10 13 -5 0
-10 8 -10 18 0 9 -7 30 -15 46 -8 15 -15 36 -15 46 0 10 -7 23 -15 30 -8 7
-12 16 -9 21 3 5 0 9 -5 9 -6 0 -11 7 -11 15 0 13 112 15 945 15 623 0 945 3
945 10 0 6 77 10 210 10 l210 0 0 -140z"/>
</g>
</svg>
