<?xml version="1.0" encoding="UTF-8" standalone="no"?>
<svg
   xmlns:dc="http://purl.org/dc/elements/1.1/"
   xmlns:cc="http://creativecommons.org/ns#"
   xmlns:rdf="http://www.w3.org/1999/02/22-rdf-syntax-ns#"
   xmlns:svg="http://www.w3.org/2000/svg"
   xmlns="http://www.w3.org/2000/svg"
   xmlns:sodipodi="http://sodipodi.sourceforge.net/DTD/sodipodi-0.dtd"
   xmlns:inkscape="http://www.inkscape.org/namespaces/inkscape"
   version="1.0"
   width="238.000000pt"
   height="238.000000pt"
   viewBox="0 0 238.000000 238.000000"
   preserveAspectRatio="xMidYMid meet"
   id="svg1286"
   sodipodi:docname="visceratikasup.svg"
   inkscape:version="1.0.1 (3bc2e813f5, 2020-09-07)">
  <defs
     id="defs1290" />
  <sodipodi:namedview
     pagecolor="#ffffff"
     bordercolor="#666666"
     borderopacity="1"
     objecttolerance="10"
     gridtolerance="10"
     guidetolerance="10"
     inkscape:pageopacity="0"
     inkscape:pageshadow="2"
     inkscape:window-width="1600"
     inkscape:window-height="837"
     id="namedview1288"
     showgrid="false"
     inkscape:zoom="2.1113445"
     inkscape:cx="158.66667"
     inkscape:cy="158.66667"
     inkscape:window-x="-8"
     inkscape:window-y="-8"
     inkscape:window-maximized="1"
     inkscape:current-layer="svg1286" />
  <metadata
     id="metadata1280">
Created by potrace 1.16, written by Peter Selinger 2001-2019
<rdf:RDF>
  <cc:Work
     rdf:about="">
    <dc:format>image/svg+xml</dc:format>
    <dc:type
       rdf:resource="http://purl.org/dc/dcmitype/StillImage" />
  </cc:Work>
</rdf:RDF>
</metadata>
  <g
     transform="translate(0.000000,238.000000) scale(0.100000,-0.100000)"
     fill="#000000"
     stroke="none"
     id="g1284">
    <path
       d="M617 1772 l-577 -577 578 -578 577 -577 580 580 580 580 -575 575 c-316 316 -577 575 -580 575 -3 0 -265 -260 -583 -578z m624 -124 c121 -73 246 -147 277 -164 31 -16 80 -44 107 -61 28 -17 86 -51 130 -76 110 -64 111 -64 105 -70 -3 -3 -53 0 -110 8 -146 20 -362 44 -445 50 -38 2 -83 6 -100 9 -16 2 -59 7 -95 11 -38 4 -76 15 -92 27 -16 11 -28 15 -28 9 0 -6 40 -77 90 -159 l90 -148 122 -53 c160 -69 168 -73 168 -83 0 -4 -198 -8 -440 -8 -384 0 -441 2 -446 15 -4 8 3 39 14 68 15 39 22 87 27 190 7 148 3 167 -39 167 -39 0 -60 24 -63 73 -2 25 1 49 7 52 5 3 10 19 10 35 0 41 91 148 150 177 54 27 60 27 60 8 0 -8 -5 -15 -10 -15 -13 0 -50 -60 -50 -82 0 -22 46 -35 97 -28 33 5 57 20 121 78 43 39 85 78 92 87 7 8 16 15 21 15 5 0 108 -60 230 -132z m4 71 c66 -68 58 -69 -47 -8 -66 39 -70 43 -53 55 10 8 24 14 30 14 6 0 37 -28 70 -61z m-425 -17 c0 -18 -79 -84 -94 -79 -24 10 -19 33 12 53 46 32 82 43 82 26z m683 -422 c214 -19 214 -19 295 -100 64 -63 88 -100 65 -100 -13 0 -97 31 -108 39 -5 4 -32 16 -60 26 -27 10 -74 29 -104 42 -60 27 -129 53 -229 88 -7 3 -10 10 -7 16 4 6 14 8 22 5 8 -4 65 -11 126 -16z m355 -447 l-3 -78 -635 -3 c-349 -1 -644 0 -655 2 -20 5 -55 62 -55 90 0 8 -7 19 -15 26 -8 7 -15 16 -15 21 0 5 255 10 568 12 312 1 622 3 690 5 l123 2 -3 -77z"
       id="path1282" />
  </g>
  <path
     style="fill:#ffffff;stroke-width:0.473632"
     d="m 86.674327,191.38542 c -4.492683,-0.20238 -8.268155,-0.59444 -8.880597,-0.92221 -1.448799,-0.77537 -1.378672,-2.38748 0.337299,-7.75406 3.145361,-9.83691 3.97851,-16.89492 4.016926,-34.02936 0.02922,-13.03407 -0.129128,-14.02164 -2.415311,-15.06329 -0.634881,-0.28927 -1.929547,-0.52595 -2.877035,-0.52595 -2.703727,0 -5.467783,-1.59524 -6.770509,-3.90751 -1.630501,-2.89405 -1.960968,-9.99018 -0.572225,-12.28739 0.520787,-0.86146 1.171098,-2.87947 1.445137,-4.48446 0.274038,-1.60499 0.91605,-3.73633 1.426692,-4.73632 2.374142,-4.64926 9.111037,-12.402257 13.99113,-16.101368 3.335414,-2.528245 10.458719,-6.047247 11.461863,-5.662304 1.203533,0.461839 0.722008,2.038119 -1.031084,3.375268 -3.288123,2.507973 -6.817434,9.168438 -6.187727,11.677384 0.933915,3.72102 11.901464,4.68233 18.032074,1.58052 3.24244,-1.64052 8.85684,-6.33139 17.89007,-14.947272 4.08244,-3.893827 7.7789,-7.079685 8.21437,-7.079685 0.91466,0 17.3122,9.445451 43.53933,25.079907 10.08503,6.01186 21.46351,12.67131 25.28552,14.79879 3.82201,2.12747 10.57239,6.0185 15.00084,8.64673 4.42846,2.62823 12.2331,7.19467 17.34364,10.14764 5.11054,2.95298 9.90606,5.87131 10.65671,6.48519 l 1.36483,1.11613 -2.97976,0.0171 c -1.63886,0.009 -9.63139,-0.82691 -17.76119,-1.85839 -19.72244,-2.50233 -38.32226,-4.55929 -49.59338,-5.48457 -14.03535,-1.1522 -33.07499,-3.40932 -35.99602,-4.26729 -1.43274,-0.42082 -3.9444,-1.49355 -5.58148,-2.38385 -3.09601,-1.68371 -4.36479,-1.99749 -4.36479,-1.07945 0,0.89429 5.60473,10.69467 15.09641,26.39746 l 8.98171,14.85911 16.02363,6.97227 c 17.23067,7.49748 22.41765,9.91638 22.41765,10.45425 0,0.18776 -1.33208,0.46841 -2.96019,0.62365 -4.60522,0.43911 -95.781605,0.73856 -104.554533,0.34338 z"
     id="path1292"
     transform="scale(0.74999998)" />
  <path
     style="fill:#ffffff;stroke-width:0.473632"
     d="m 95.983855,100.01743 c -1.164767,-1.28705 -0.955769,-2.678122 0.642494,-4.276385 2.819907,-2.819907 10.171051,-6.601122 11.695851,-6.016003 1.20046,0.46066 0.57397,1.725055 -2.25787,4.556899 -2.52669,2.526692 -8.063435,6.601639 -8.969826,6.601639 -0.179737,0 -0.679529,-0.38977 -1.110649,-0.86615 z"
     id="path1294"
     transform="scale(0.74999998)" />
  <path
     style="fill:#ffffff;stroke-width:0.473632"
     d="m 164.61278,91.592344 c -7.37736,-4.102562 -12.07433,-7.132824 -12.40938,-8.005953 -0.30847,-0.803864 1.32501,-2.325386 3.23544,-3.013686 1.15236,-0.415177 1.59675,-0.180638 4.73632,2.499697 3.62152,3.091795 10.80593,10.577494 10.80593,11.259094 0,0.716715 -0.67916,0.424591 -6.36831,-2.739152 z"
     id="path1296"
     transform="scale(0.74999998)" />
  <path
     style="fill:#ffffff;stroke-width:0.473632"
     d="m 240.8875,170.73283 c -3.10083,-1.15842 -6.15152,-2.44277 -6.7793,-2.85411 -0.62779,-0.41134 -4.91105,-2.24407 -9.51835,-4.07272 -4.6073,-1.82865 -11.14766,-4.50745 -14.53413,-5.9529 -5.08848,-2.1719 -14.08195,-5.61155 -27.11542,-10.37058 -1.3562,-0.4952 -2.01294,-1.01474 -2.01294,-1.59241 0,-1.28801 1.05321,-1.45637 4.59999,-0.73533 1.76822,0.35947 9.1827,1.21044 16.47663,1.89105 19.57108,1.82621 23.88401,2.62997 28.65473,5.34005 1.17224,0.66591 5.1479,4.22982 8.83479,7.91979 6.22344,6.22861 9.63685,10.46215 9.63685,11.95223 0,1.0935 -2.44382,0.64135 -8.24285,-1.52507 z"
     id="path1298"
     transform="scale(0.74999998)" />
  <path
     style="fill:#ffffff;stroke-width:0.473632"
     d="m 76.79834,216.52264 c -2.105107,-0.2866 -2.764955,-0.62324 -3.891052,-1.98513 -1.944988,-2.35224 -4.095328,-6.54024 -4.489876,-8.74448 -0.437561,-2.44454 -0.950255,-3.44554 -2.725453,-5.32126 -0.797553,-0.84271 -1.33896,-1.64334 -1.203127,-1.77918 0.615496,-0.61549 38.331398,-1.21883 103.129058,-1.64974 38.71016,-0.25743 72.59695,-0.60969 75.30398,-0.78279 l 4.92187,-0.31475 -0.34817,10.13382 c -0.19148,5.57359 -0.40623,10.19401 -0.47722,10.2676 -0.30406,0.31522 -167.924451,0.48845 -170.22001,0.17591 z"
     id="path1300"
     transform="scale(0.74999998)" />
</svg>
