<?xml version="1.0" encoding="UTF-8" standalone="no"?>
<svg
   xmlns:dc="http://purl.org/dc/elements/1.1/"
   xmlns:cc="http://creativecommons.org/ns#"
   xmlns:rdf="http://www.w3.org/1999/02/22-rdf-syntax-ns#"
   xmlns:svg="http://www.w3.org/2000/svg"
   xmlns="http://www.w3.org/2000/svg"
   xmlns:sodipodi="http://sodipodi.sourceforge.net/DTD/sodipodi-0.dtd"
   xmlns:inkscape="http://www.inkscape.org/namespaces/inkscape"
   version="1.0"
   width="300.000000pt"
   height="300.000000pt"
   viewBox="0 0 300.000000 300.000000"
   preserveAspectRatio="xMidYMid meet"
   id="svg1328"
   sodipodi:docname="vision.svg"
   inkscape:version="1.0.1 (3bc2e813f5, 2020-09-07)">
  <defs
     id="defs1332" />
  <sodipodi:namedview
     pagecolor="#ffffff"
     bordercolor="#666666"
     borderopacity="1"
     objecttolerance="10"
     gridtolerance="10"
     guidetolerance="10"
     inkscape:pageopacity="0"
     inkscape:pageshadow="2"
     inkscape:window-width="1600"
     inkscape:window-height="837"
     id="namedview1330"
     showgrid="false"
     inkscape:zoom="1.675"
     inkscape:cx="200"
     inkscape:cy="200"
     inkscape:window-x="-8"
     inkscape:window-y="-8"
     inkscape:window-maximized="1"
     inkscape:current-layer="svg1328" />
  <metadata
     id="metadata1318">
Created by potrace 1.16, written by Peter Selinger 2001-2019
<rdf:RDF>
  <cc:Work
     rdf:about="">
    <dc:format>image/svg+xml</dc:format>
    <dc:type
       rdf:resource="http://purl.org/dc/dcmitype/StillImage" />
  </cc:Work>
</rdf:RDF>
</metadata>
  <g
     transform="translate(0.000000,300.000000) scale(0.100000,-0.100000)"
     fill="#000000"
     stroke="none"
     id="g1326">
    <path
       d="M1390 2994 c-289 -35 -489 -106 -707 -251 l-83 -54 0 -160 0 -159 -150 0 -150 0 -34 -52 c-93 -146 -167 -332 -207 -518 -33 -151 -33 -419 0 -570 44 -206 116 -378 228 -547 l54 -83 130 0 129 0 0 -129 0 -130 83 -54 c165 -110 349 -188 540 -229 147 -32 437 -32 584 0 175 38 366 116 511 208 l52 34 0 150 0 150 159 0 160 0 54 83 c117 175 201 381 233 572 23 135 23 385 0 520 -30 174 -126 419 -218 553 l-29 42 -179 0 -180 0 0 180 0 180 -52 34 c-155 99 -371 183 -538 211 -96 16 -325 27 -390 19z m523 -172 c119 -40 212 -81 289 -128 l58 -35 0 -200 0 -199 199 0 200 0 35 -58 c47 -77 88 -170 128 -289 l32 -98 4 -269 c3 -225 1 -281 -13 -345 -31 -139 -107 -316 -187 -436 l-33 -50 -183 -3 -182 -2 0 -173 0 -173 -72 -41 c-213 -120 -427 -176 -673 -176 -272 0 -512 70 -742 215 l-63 40 0 154 0 154 -153 0 -152 0 -35 53 c-95 143 -174 345 -206 522 -20 117 -20 342 0 458 24 132 71 269 138 400 l61 117 173 0 174 0 0 180 0 179 58 39 c109 74 276 148 412 182 66 17 108 19 355 17 l280 -3 98 -32z"
       id="path1320" />
    <path
       d="M1171 2584 c-193 -52 -319 -210 -344 -430 -6 -51 3 -67 33 -62 21 3 25 12 37 81 30 177 146 313 298 347 57 13 115 -1 164 -37 47 -36 93 -137 93 -205 1 -111 10 -99 -310 -420 -233 -234 -302 -298 -322 -298 -14 0 -34 -6 -45 -13 -11 -7 -51 -19 -89 -26 -150 -27 -239 -99 -272 -223 -33 -128 62 -308 212 -398 115 -69 294 -93 294 -39 0 19 -35 39 -69 39 -91 0 -197 49 -273 127 -100 102 -128 244 -65 327 36 46 100 84 171 98 53 11 57 11 77 -11 18 -19 29 -22 59 -18 l37 5 289 -292 c163 -164 297 -306 306 -326 8 -19 21 -69 27 -110 30 -190 172 -312 326 -280 166 35 304 171 350 347 21 82 20 140 -4 153 -31 16 -47 -10 -54 -84 -11 -119 -77 -227 -178 -295 -176 -117 -329 -49 -374 168 -15 68 -14 72 5 91 11 11 20 28 20 37 0 25 560 583 584 583 11 0 30 9 42 21 15 14 49 26 104 35 164 29 252 98 286 226 36 139 -81 338 -246 415 -138 65 -277 70 -254 9 7 -17 20 -21 99 -30 121 -15 260 -116 310 -227 36 -82 33 -168 -8 -223 -39 -50 -103 -84 -193 -103 -72 -14 -79 -14 -108 2 -17 10 -162 148 -322 308 -292 289 -292 290 -287 327 4 31 1 40 -20 57 -20 15 -30 37 -41 90 -18 86 -45 141 -93 189 -67 68 -161 93 -252 68z m624 -764 c272 -273 290 -292 287 -322 -3 -28 -44 -74 -275 -305 -253 -254 -274 -273 -307 -273 -33 0 -55 20 -325 290 l-290 290 305 305 c168 168 307 305 310 305 3 0 136 -130 295 -290z"
       id="path1322" />
    <path
       d="M1442 1610 c-124 -76 -75 -260 69 -260 88 0 146 67 136 158 -11 97 -122 152 -205 102z"
       id="path1324" />
  </g>
  <path
     style="fill:#ffffff;stroke-width:0.597015"
     d="m 195.72146,275.28915 c -4.1473,-2.63014 -17.09465,-15.05645 -48.55728,-46.60317 l -28.65672,-28.73332 40.39714,-40.27484 c 22.21842,-22.15116 40.73767,-40.27483 41.15388,-40.27483 1.00951,0 70.61528,69.83165 73.79184,74.03132 3.52341,4.65821 3.88486,5.86856 2.60016,8.70678 -1.56779,3.46364 -7.77431,10.24456 -30.23182,33.02971 -23.5823,23.92635 -39.39117,38.99442 -42.66253,40.66334 -3.12517,1.59434 -4.6259,1.48996 -7.83467,-0.54499 z m 13.44624,-56.40876 c 3.92444,-1.63973 6.79547,-4.38666 8.76386,-8.38504 1.54627,-3.14091 1.86147,-4.50208 1.89983,-8.20424 0.0841,-8.12031 -3.10441,-13.84397 -9.76846,-17.53511 -2.88002,-1.59521 -3.73039,-1.77093 -8.57039,-1.77093 -4.46548,0 -5.82697,0.23554 -8.0597,1.3943 -6.37873,3.31047 -10.15606,9.0012 -10.61455,15.99135 -0.5896,8.98884 3.85746,15.93513 12.0946,18.89175 3.59558,1.29059 10.7078,1.09996 14.25481,-0.38208 z"
     id="path1334"
     transform="scale(0.75)" />
  <path
     style="fill:#ffffff;stroke-width:0.597015"
     d="m 191.9403,379.88256 c -7.05897,-0.37476 -20.23991,-2.05442 -27.1235,-3.45636 -22.05563,-4.49197 -40.79607,-12.1504 -62.06479,-25.36328 l -7.826637,-4.86218 V 325.63768 305.07463 H 74.61371 54.302048 l -4.46648,-6.79229 C 36.132533,277.4438 24.572541,246.98564 21.37078,223.28358 c -0.496555,-3.6759 -0.764254,-12.70923 -0.76077,-25.67164 0.006,-22.31857 0.5054,-27.29341 4.163096,-41.47125 4.015235,-15.56373 8.558348,-27.14217 17.753156,-45.24517 L 48.515126,99.104478 H 71.72025 94.925373 l 0.01296,-24.029851 0.01296,-24.029851 6.434507,-4.27274 c 17.57924,-11.673255 40.94423,-21.825075 59.80824,-25.986006 6.22342,-1.372732 6.53576,-1.381718 43.28358,-1.245312 l 37.01493,0.137397 9.94574,3.265685 c 18.21866,5.982093 30.25505,11.262494 43.33784,19.012432 l 6.1194,3.624991 v 26.761628 26.761627 h 26.73152 26.73151 l 3.65557,6.119402 c 7.65327,12.81152 13.00284,24.97256 19.09279,43.40308 l 3.26479,9.8805 0.11266,37.01493 c 0.11145,36.62102 0.098,37.08163 -1.26072,43.28358 -3.9538,18.04671 -14.3699,42.46386 -25.19994,59.07303 l -4.21417,6.46294 -24.457,0.44179 -24.45701,0.44178 v 23.07473 23.07473 l -8.80597,4.88724 c -13.7591,7.6362 -24.34422,12.23216 -37.52392,16.29254 -18.58125,5.72449 -41.75358,8.43589 -62.62533,7.32781 z m 49.12965,-35.74625 c 10.40456,-2.12155 21.47324,-8.27999 29.5224,-16.42581 11.36201,-11.49846 18.55109,-27.75978 18.62865,-42.13703 0.0305,-5.65264 -0.0682,-6.17599 -1.44101,-7.64004 -1.08155,-1.15344 -1.9554,-1.52451 -3.28358,-1.39436 -2.53512,0.24842 -4.25867,3.94685 -5.09064,10.92362 -1.32793,11.13564 -4.5621,19.45468 -10.76222,27.68285 -8.94804,11.87494 -22.64268,19.75312 -34.37098,19.77275 -12.00564,0.0201 -21.20936,-8.05226 -26.19844,-22.97799 -0.97389,-2.91354 -3.29801,-13.42001 -3.29801,-14.909 0,-0.41124 0.83829,-1.79212 1.86286,-3.06861 1.02457,-1.27649 2.33734,-3.41376 2.91725,-4.74949 1.52925,-3.52232 11.01819,-13.7085 36.69196,-39.38802 27.29542,-27.30156 39.13252,-38.27345 42.1789,-39.09593 1.18715,-0.3205 3.17895,-1.39373 4.42624,-2.38496 2.48888,-1.97791 6.55163,-3.30045 17.03846,-5.54648 10.47146,-2.24273 18.39299,-5.7795 24.25908,-10.83108 3.8906,-3.35039 8.29151,-10.41173 10.09592,-16.19911 1.4239,-4.56695 1.54501,-5.68798 1.26956,-11.75138 -0.23267,-5.12158 -0.67096,-7.74318 -1.8579,-11.11293 -4.447,-12.62519 -13.26955,-23.94865 -24.37639,-31.28631 -12.93387,-8.54467 -32.31938,-13.40222 -39.58614,-9.91935 -1.52864,0.73265 -1.78547,1.18884 -1.78547,3.17134 0,3.47069 1.54166,4.28122 10.81272,5.68487 10.33949,1.56541 16.66311,3.94028 24.41116,9.16773 8.41456,5.67713 14.20863,11.9128 18.20284,19.59017 3.24537,6.23802 4.37719,11.37558 4.03097,18.29737 -0.23309,4.65988 -0.57088,6.11838 -2.16873,9.36408 -4.1172,8.36323 -14.53607,14.5154 -29.3372,17.32312 -6.38394,1.21101 -8.51501,1.1699 -11.19943,-0.21607 -1.21826,-0.62899 -7.18517,-5.84039 -13.25979,-11.58087 -17.44315,-16.48368 -63.44243,-62.45408 -66.17728,-66.13573 -2.36942,-3.18973 -2.47944,-3.52862 -2.47944,-7.63752 0,-4.24985 -0.0302,-4.33225 -2.60801,-7.10993 -3.42564,-3.691267 -4.08472,-5.12944 -6.00058,-13.093673 -2.88369,-11.987484 -6.80007,-19.349438 -13.53635,-25.445431 -6.85027,-6.199129 -14.07877,-8.988833 -23.2282,-8.96448 -12.58917,0.03351 -26.94727,6.755399 -37.07683,17.357893 -5.40619,5.658597 -7.63327,8.819415 -10.99509,15.604956 -4.11436,8.304471 -7.45046,21.228445 -7.45046,28.862875 0,4.3117 0.69829,5.25568 3.88784,5.25568 3.55371,0 4.08859,-0.93005 6.21612,-10.80855 2.54097,-11.798214 5.69239,-19.43991 10.93054,-26.504883 7.08556,-9.556672 15.45717,-15.605262 26.05306,-18.823666 8.07111,-2.451524 17.12037,-0.902621 23.62242,4.043294 7.78388,5.920968 13.50575,20.263751 12.71081,31.861695 -0.40463,5.90339 -2.06283,9.59664 -6.94306,15.46397 -5.23693,6.29617 -41.30105,43.03956 -56.82687,57.89721 -14.27323,13.65895 -18.30816,16.96428 -21.42284,17.54914 -1.13877,0.21384 -3.74661,1.05935 -5.79521,1.87891 -2.0486,0.81957 -7.169596,2.2722 -11.37999,3.22806 -15.934446,3.61752 -24.171845,8.3094 -30.277748,17.2457 -4.157937,6.08536 -6.279533,12.75319 -6.289477,19.7668 -0.0099,6.99425 1.13918,11.83228 4.528783,19.06748 9.20056,19.63884 27.550311,32.84861 49.881252,35.90894 6.29866,0.86319 10.76801,0.34752 12.90274,-1.48869 1.40731,-1.21052 1.53527,-1.59795 1.01571,-3.07532 -0.93372,-2.65502 -4.42762,-4.24648 -10.38744,-4.73146 -21.64176,-1.76108 -41.921621,-18.11227 -46.949976,-37.8547 -0.683108,-2.68203 -0.90891,-5.51394 -0.742688,-9.31447 0.204446,-4.67448 0.518377,-6.02861 2.180183,-9.40422 3.4797,-7.06828 12.468978,-13.29085 23.032082,-15.94331 6.130322,-1.53936 8.808991,-1.53215 10.220449,0.0275 0.60392,0.66731 2.00696,1.77505 3.11787,2.46163 1.77804,1.09889 2.57188,1.20018 6.63105,0.84609 l 4.61121,-0.40224 28.07284,28.53762 c 31.16868,31.68471 41.60224,42.53206 47.17727,49.04826 4.19129,4.89886 4.73428,6.29042 7.10735,18.21483 1.61419,8.11108 2.91031,12.25833 5.34697,17.10885 5.18927,10.32998 13.03994,17.41071 22.69412,20.4684 5.73785,1.8173 9.8382,1.98576 16.29383,0.66941 z"
     id="path1336"
     transform="scale(0.75)" />
</svg>
