<?xml version="1.0" standalone="no"?>
<!DOCTYPE svg PUBLIC "-//W3C//DTD SVG 20010904//EN"
 "http://www.w3.org/TR/2001/REC-SVG-20010904/DTD/svg10.dtd">
<svg version="1.0" xmlns="http://www.w3.org/2000/svg"
 width="300.000000pt" height="300.000000pt" viewBox="0 0 300.000000 300.000000"
 preserveAspectRatio="xMidYMid meet">
<metadata>
Created by potrace 1.16, written by Peter Selinger 2001-2019
</metadata>
<g transform="translate(0.000000,300.000000) scale(0.100000,-0.100000)"
fill="#000000" stroke="none">
<path d="M1390 2994 c-289 -35 -489 -106 -707 -251 l-83 -54 0 -160 0 -159
-150 0 -150 0 -34 -52 c-93 -146 -167 -332 -207 -518 -33 -151 -33 -419 0
-570 44 -206 116 -378 228 -547 l54 -83 130 0 129 0 0 -129 0 -130 83 -54
c165 -110 349 -188 540 -229 147 -32 437 -32 584 0 175 38 366 116 511 208
l52 34 0 150 0 150 159 0 160 0 54 83 c117 175 201 381 233 572 23 135 23 385
0 520 -30 174 -126 419 -218 553 l-29 42 -179 0 -180 0 0 180 0 180 -52 34
c-155 99 -371 183 -538 211 -96 16 -325 27 -390 19z m523 -172 c119 -40 212
-81 289 -128 l58 -35 0 -200 0 -199 199 0 200 0 35 -58 c47 -77 88 -170 128
-289 l32 -98 4 -269 c3 -225 1 -281 -13 -345 -31 -139 -107 -316 -187 -436
l-33 -50 -183 -3 -182 -2 0 -173 0 -173 -72 -41 c-213 -120 -427 -176 -673
-176 -272 0 -512 70 -742 215 l-63 40 0 154 0 154 -153 0 -152 0 -35 53 c-95
143 -174 345 -206 522 -20 117 -20 342 0 458 24 132 71 269 138 400 l61 117
173 0 174 0 0 180 0 179 58 39 c109 74 276 148 412 182 66 17 108 19 355 17
l280 -3 98 -32z"/>
<path d="M1171 2584 c-193 -52 -319 -210 -344 -430 -6 -51 3 -67 33 -62 21 3
25 12 37 81 30 177 146 313 298 347 57 13 115 -1 164 -37 47 -36 93 -137 93
-205 1 -111 10 -99 -310 -420 -233 -234 -302 -298 -322 -298 -14 0 -34 -6 -45
-13 -11 -7 -51 -19 -89 -26 -150 -27 -239 -99 -272 -223 -33 -128 62 -308 212
-398 115 -69 294 -93 294 -39 0 19 -35 39 -69 39 -91 0 -197 49 -273 127 -100
102 -128 244 -65 327 36 46 100 84 171 98 53 11 57 11 77 -11 18 -19 29 -22
59 -18 l37 5 289 -292 c163 -164 297 -306 306 -326 8 -19 21 -69 27 -110 30
-190 172 -312 326 -280 166 35 304 171 350 347 21 82 20 140 -4 153 -31 16
-47 -10 -54 -84 -11 -119 -77 -227 -178 -295 -176 -117 -329 -49 -374 168 -15
68 -14 72 5 91 11 11 20 28 20 37 0 25 560 583 584 583 11 0 30 9 42 21 15 14
49 26 104 35 164 29 252 98 286 226 36 139 -81 338 -246 415 -138 65 -277 70
-254 9 7 -17 20 -21 99 -30 121 -15 260 -116 310 -227 36 -82 33 -168 -8 -223
-39 -50 -103 -84 -193 -103 -72 -14 -79 -14 -108 2 -17 10 -162 148 -322 308
-292 289 -292 290 -287 327 4 31 1 40 -20 57 -20 15 -30 37 -41 90 -18 86 -45
141 -93 189 -67 68 -161 93 -252 68z m624 -764 c272 -273 290 -292 287 -322
-3 -28 -44 -74 -275 -305 -253 -254 -274 -273 -307 -273 -33 0 -55 20 -325
290 l-290 290 305 305 c168 168 307 305 310 305 3 0 136 -130 295 -290z"/>
<path d="M1442 1610 c-124 -76 -75 -260 69 -260 88 0 146 67 136 158 -11 97
-122 152 -205 102z"/>
</g>
</svg>
