<?xml version="1.0" standalone="no"?>
<!DOCTYPE svg PUBLIC "-//W3C//DTD SVG 20010904//EN"
 "http://www.w3.org/TR/2001/REC-SVG-20010904/DTD/svg10.dtd">
<svg version="1.0" xmlns="http://www.w3.org/2000/svg"
 width="175.000000pt" height="300.000000pt" viewBox="0 0 175.000000 300.000000"
 preserveAspectRatio="xMidYMid meet">
<metadata>
Created by potrace 1.16, written by Peter Selinger 2001-2019
</metadata>
<g transform="translate(0.000000,300.000000) scale(0.100000,-0.100000)"
fill="#000000" stroke="none">
<path d="M762 2793 c-316 -484 -505 -986 -612 -1627 -47 -282 -80 -698 -80
-1018 l0 -98 360 0 360 0 0 513 c0 477 1 515 18 530 30 28 65 30 95 7 l27 -21
0 -515 0 -514 361 0 362 0 -6 288 c-10 472 -56 835 -159 1237 -121 478 -299
880 -556 1263 -34 50 -66 92 -71 92 -5 0 -49 -62 -99 -137z m147 -149 c381
-607 582 -1355 617 -2287 l7 -187 -237 0 -236 0 0 443 c0 366 -3 452 -15 494
-49 164 -280 179 -362 24 l-23 -44 0 -459 0 -458 -232 0 -231 0 6 223 c21 746
168 1393 442 1944 76 154 203 373 216 373 4 0 25 -30 48 -66z"/>
</g>
</svg>
