<?xml version="1.0" standalone="no"?>
<!DOCTYPE svg PUBLIC "-//W3C//DTD SVG 20010904//EN"
 "http://www.w3.org/TR/2001/REC-SVG-20010904/DTD/svg10.dtd">
<svg version="1.0" xmlns="http://www.w3.org/2000/svg"
 width="270.000000pt" height="270.000000pt" viewBox="0 0 270.000000 270.000000"
 preserveAspectRatio="xMidYMid meet">

<g transform="translate(0.000000,270.000000) scale(0.100000,-0.100000)"
fill="#000000" stroke="none">
<path d="M10 1350 l0 -1340 1340 0 1340 0 0 1340 0 1340 -1340 0 -1340 0 0
-1340z m1290 1056 c-58 -115 -74 -184 -68 -283 6 -87 39 -148 106 -200 62 -47
99 -45 147 8 20 22 45 62 57 87 27 65 64 209 82 321 9 52 17 96 19 98 6 5 33
-98 46 -171 24 -135 6 -271 -47 -350 -16 -24 -62 -64 -112 -99 -47 -31 -109
-83 -137 -115 -60 -65 -78 -113 -93 -242 -5 -45 -12 -85 -14 -88 -14 -13 -34
24 -40 71 -5 39 -28 93 -87 202 -127 239 -152 304 -157 407 -4 80 -2 93 23
145 33 68 168 208 260 270 33 23 61 40 62 39 1 -1 -20 -46 -47 -100z m-510
-306 c81 -203 160 -441 160 -482 0 -8 -19 -19 -43 -25 -37 -10 -69 -38 -212
-182 l-168 -170 -56 51 c-77 70 -119 131 -127 187 -12 81 23 270 99 526 l32
110 6 -175 c7 -199 27 -286 76 -331 39 -36 59 -41 98 -25 40 17 67 64 86 151
14 68 17 292 5 405 -4 41 -5 73 -3 70 3 -3 24 -52 47 -110z m1264 -320 c-32
-91 -36 -189 -10 -238 11 -21 33 -41 59 -53 109 -49 214 4 273 138 27 60 54
160 54 198 0 59 19 9 30 -82 18 -141 10 -296 -18 -350 -26 -50 -42 -59 -192
-108 -63 -20 -134 -48 -157 -61 -71 -41 -74 -56 -67 -269 5 -121 4 -185 -3
-185 -5 0 -18 9 -29 21 -10 12 -70 62 -132 112 l-114 90 38 13 c51 17 62 31
90 108 36 100 41 186 15 270 -11 37 -21 87 -21 111 0 62 34 162 75 223 40 58
122 148 130 141 2 -3 -7 -38 -21 -79z m-440 -54 c-39 -95 -49 -171 -24 -186
25 -16 81 -11 114 10 37 22 72 80 97 159 16 50 18 52 18 23 1 -55 -29 -184
-55 -239 -30 -62 -65 -89 -142 -112 -53 -16 -58 -20 -74 -62 -10 -24 -23 -63
-28 -87 l-11 -44 -32 25 c-22 17 -30 31 -27 44 7 25 5 100 -5 225 -8 104 -7
107 18 151 24 40 175 192 183 184 2 -2 -12 -43 -32 -91z m-644 -216 c29 -15
941 -748 968 -776 12 -14 22 -29 22 -35 0 -13 -80 -99 -306 -331 -169 -174
-196 -198 -224 -198 -25 0 -111 65 -518 391 -268 215 -491 398 -495 405 -5 8
-6 22 -2 32 10 30 499 522 518 522 10 0 27 -5 37 -10z"/>
</g>
</svg>
