<?xml version="1.0" encoding="UTF-8" standalone="no"?>
<svg
   xmlns:dc="http://purl.org/dc/elements/1.1/"
   xmlns:cc="http://creativecommons.org/ns#"
   xmlns:rdf="http://www.w3.org/1999/02/22-rdf-syntax-ns#"
   xmlns:svg="http://www.w3.org/2000/svg"
   xmlns="http://www.w3.org/2000/svg"
   xmlns:sodipodi="http://sodipodi.sourceforge.net/DTD/sodipodi-0.dtd"
   xmlns:inkscape="http://www.inkscape.org/namespaces/inkscape"
   version="1.0"
   width="212.000000pt"
   height="284.000000pt"
   viewBox="0 0 212.000000 284.000000"
   preserveAspectRatio="xMidYMid meet"
   id="svg88"
   sodipodi:docname="merged.svg"
   inkscape:version="1.0.1 (3bc2e813f5, 2020-09-07)">
  <defs
     id="defs92" />
  <sodipodi:namedview
     pagecolor="#ffffff"
     bordercolor="#666666"
     borderopacity="1"
     objecttolerance="10"
     gridtolerance="10"
     guidetolerance="10"
     inkscape:pageopacity="0"
     inkscape:pageshadow="2"
     inkscape:window-width="1600"
     inkscape:window-height="837"
     id="namedview90"
     showgrid="false"
     inkscape:zoom="1.7693662"
     inkscape:cx="141.33333"
     inkscape:cy="189.33333"
     inkscape:window-x="-8"
     inkscape:window-y="-8"
     inkscape:window-maximized="1"
     inkscape:current-layer="svg88" />
  <metadata
     id="metadata82">
Created by potrace 1.16, written by Peter Selinger 2001-2019
<rdf:RDF>
  <cc:Work
     rdf:about="">
    <dc:format>image/svg+xml</dc:format>
    <dc:type
       rdf:resource="http://purl.org/dc/dcmitype/StillImage" />
  </cc:Work>
</rdf:RDF>
</metadata>
  <g
     transform="translate(0.000000,284.000000) scale(0.100000,-0.100000)"
     fill="#000000"
     stroke="none"
     id="g86">
    <path
       d="M530 2550 l0 -290 -265 0 -265 0 0 -1130 0 -1130 795 0 795 0 0 290 0 290 265 0 265 0 0 1130 0 1130 -795 0 -795 0 0 -290z m1460 -840 l0 -1000 -665 0 -665 0 0 1000 0 1000 665 0 665 0 0 -1000z m-1460 -355 l0 -775 465 0 465 0 0 -225 0 -225 -665 0 -665 0 0 1000 0 1000 200 0 200 0 0 -775z"
       id="path84" />
  </g>
  <path
     style="fill:#ffffff;stroke-width:0.565174"
     d="M 17.560199,228.04776 V 94.949254 h 26.279082 26.279082 l 0.142808,103.285576 0.142809,103.28557 62.02786,0.14378 62.02786,0.14378 v 29.66915 29.66916 H 106.00995 17.560199 Z"
     id="path94"
     transform="scale(0.75000002)" />
  <path
     style="fill:#ffffff;stroke-width:0.565174"
     d="M 88.206965,150.61891 V 17.520398 h 88.449755 88.44975 V 150.61891 283.71741 H 176.65672 88.206965 Z"
     id="path96"
     transform="scale(0.75000002)" />
</svg>
