<?xml version="1.0" standalone="no"?>
<!DOCTYPE svg PUBLIC "-//W3C//DTD SVG 20010904//EN"
 "http://www.w3.org/TR/2001/REC-SVG-20010904/DTD/svg10.dtd">
<svg version="1.0" xmlns="http://www.w3.org/2000/svg"
 width="212.000000pt" height="284.000000pt" viewBox="0 0 212.000000 284.000000"
 preserveAspectRatio="xMidYMid meet">
<metadata>
Created by potrace 1.16, written by Peter Selinger 2001-2019
</metadata>
<g transform="translate(0.000000,284.000000) scale(0.100000,-0.100000)"
fill="#000000" stroke="none">
<path d="M530 2550 l0 -290 -265 0 -265 0 0 -1130 0 -1130 795 0 795 0 0 290
0 290 265 0 265 0 0 1130 0 1130 -795 0 -795 0 0 -290z m1460 -840 l0 -1000
-665 0 -665 0 0 1000 0 1000 665 0 665 0 0 -1000z m-1460 -355 l0 -775 465 0
465 0 0 -225 0 -225 -665 0 -665 0 0 1000 0 1000 200 0 200 0 0 -775z"/>
</g>
</svg>
