<?xml version="1.0" standalone="no"?>
<!DOCTYPE svg PUBLIC "-//W3C//DTD SVG 20010904//EN"
 "http://www.w3.org/TR/2001/REC-SVG-20010904/DTD/svg10.dtd">
<svg version="1.0" xmlns="http://www.w3.org/2000/svg"
 width="268.000000pt" height="268.000000pt" viewBox="0 0 268.000000 268.000000"
 preserveAspectRatio="xMidYMid meet">

<g transform="translate(0.000000,268.000000) scale(0.100000,-0.100000)"
fill="#000000" stroke="none">
<path d="M0 1340 l0 -1340 1340 0 1340 0 0 1340 0 1340 -1340 0 -1340 0 0
-1340z m1952 835 c188 -47 355 -90 371 -96 37 -16 75 -62 83 -104 5 -27 -32
-182 -166 -693 -95 -361 -179 -669 -186 -684 -7 -14 -25 -36 -40 -47 -48 -38
-86 -37 -256 5 -87 21 -158 41 -158 44 0 3 16 12 36 19 49 18 104 68 125 116
38 82 33 100 -166 663 -102 287 -185 532 -185 544 0 36 55 224 74 253 16 25
85 64 113 65 6 0 166 -38 355 -85z m-770 28 c15 -7 35 -25 44 -38 23 -36 474
-1311 474 -1341 0 -31 -21 -72 -52 -101 -31 -30 -689 -253 -744 -253 -44 0
-95 27 -118 62 -8 13 -117 311 -241 663 -205 579 -226 645 -222 689 8 88 25
97 408 224 184 61 343 113 354 115 26 5 63 -2 97 -20z"/>
</g>
</svg>
