<svg xmlns="http://www.w3.org/2000/svg" width="420" height="440" version="1.0" viewBox="0 0 315 330"><path d="M197-4c-16 0-35-2-46 11a30 30 0 0 0 10 45 155 155 0 0 1 45 41 202 202 0 0 0 15 20c3 14 10 27 10 42a26 26 0 0 0 28 24c6 1 9 7 13 10 8 8 17 15 29 15 8 4 17 9 26 9 5 0 10 4 12 9a55 55 0 0 0 39 21c12 5 29 8 40-2 10-10 7-25 6-38-1-7 1-14-2-21a313 313 0 0 0-18-58c-5-7-7-16-12-23a165 165 0 0 0-37-43c-10-13-24-22-38-31a207 207 0 0 0-74-28c-15-5-31-3-46-3Zm205 225c-4 0 3-1 0 0zm-152-66c-12 4-19 16-18 28 0 19-9 36-14 54a27 27 0 0 0 15 31 73 73 0 0 0 35 16c4 1 9 1 11 6a138 138 0 0 0 47 35c4 10 15 14 25 18 13 8 32 7 41-6a221 221 0 0 0 26-62c5-14 5-32-7-42a68 68 0 0 0-45-16c-5 2-5-3-6-6-4-14-19-22-33-22-5 0-8-3-12-6-6-3-13-3-19-4-10-11-21-26-38-25l-8 1zm-16 113c-2 0-7-3 0 1zm6 2c-4-1-4-1 0 0zm-13-29c-15 0-25 14-31 26-2 4-7 3-10 6-14 7-27 23-22 40 3 10 12 16 15 26 5 11 14 23 27 23 5 0 11-2 12 4 6 11 13 23 26 24 6 1 13 2 17 6 5 7 6 17 14 21 13 9 29 3 40-5a208 208 0 0 0 58-49 28 28 0 0 0-7-40c-9-7-21-8-32-12a71 71 0 0 0-31-28c-9-5-18-8-28-12l-29-24a34 34 0 0 0-19-6zm26 13c3 1-4-2 0 0zM27 285c-17 0-30 18-25 34 5 18 17 32 28 46 21 26 49 45 79 59 10 3 19 9 30 9 10 6 21 8 32 9 11 0 21 4 32 1 22-1 46-2 67-11 15-6 20-27 11-41-7-14-23-21-37-26-4-4-9-5-12-10a62 62 0 0 0-23-15c-4-5-8-10-9-16a63 63 0 0 0-27-29c-14-5-29 1-43 4-12 5-26 2-39 2-20 1-38-9-56-15a32 32 0 0 0-8-1zm176 55c1 0-1 0 0 0z" style="fill:#fff;stroke-width:.928737" transform="scale(.75)"/><path d="m300 186-2-3a17 17 0 0 1-4-7c0-5-3-7-14-12a57 57 0 0 1-17-12 53 53 0 0 0-12-10l-9-1c-9 0-10 0-17-3l-8-4-5-2c-2-2-6-3-9-4-10-2-11-3-11-12a63 63 0 0 0-5-25c-4-10-5-12-3-15 1-2 1-2-2-2-3-1-5-3-12-14-9-13-31-34-42-38-8-3-9-5-3-5l5-1 21-1c16 0 22 0 25 2l10 2a118 118 0 0 1 32 11c10 5 17 10 26 17 6 5 7 6 7 8-1 3 0 3 1 3 6-2 32 31 31 37-1 2 0 3 1 3l5 9c5 13 8 24 9 30l2 8c0 1 0 2-2 2-3 1-3 3 0 4 2 0 2 1 2 17zm-108-45a113 113 0 0 1-11 40l-2 4 5 3c3 2 8 4 15 5 18 5 19 5 21 9l20 19 10 5a26 26 0 0 1 8 4l4 9 6 11 3 3 2-3c10-11 15-23 21-43 5-17 5-18-4-22-7-4-8-4-17-4h-9l-6-5c-4-4-5-6-5-9 0-6-2-7-9-7l-7-1-4-1-4-2c-1-3-1-3-8-3h-7l-4-5c-7-9-15-16-16-16-2 0-2 2-2 9zm-26 63c-3 4-4 6-4 9 0 5-1 7-5 6-5 0-11 2-12 4l-6 4-7 4-2 2 4 3 8 10 5 7h13l13 1 2 3c0 2 2 6 5 9l4 7c1 2 2 2 5 2s7 1 10 3l8 3c1 1 3 2 4 6 1 3 3 5 4 5 1 1 2 2 1 4 0 2 0 2 2 2a99 99 0 0 0 25-15c9-7 23-21 23-23 0-3-4-5-13-7a41 41 0 0 1-9-3 9 9 0 0 0-3-1l-7-7c-4-7-5-8-13-13a67 67 0 0 0-16-7c-7-1-8-2-15-8l-8-7-4-3a19 19 0 0 0-5-4l-3-2-4 6zM15 229a185 185 0 0 0 29 42 144 144 0 0 0 50 32l8 3 5 1h4c0 2 4 4 9 4l4 1 7 1 11 1h17a28 28 0 0 1 10-1l8-1 4-1 9-2c7-1 7-3 4-8-2-4-14-10-19-10-2 0-3 0-3-2l-3-3c-3-1-5-3-7-6-3-4-5-5-11-6l-8-4c-3-7-6-12-8-12l-1-3c0-4-2-7-7-12-4-5-4-5-8-5l-24 6H58a14 14 0 0 0-6-1c-7-1-22-7-30-11a31 31 0 0 0-7-3z"/></svg>