<svg xmlns="http://www.w3.org/2000/svg" width="420" height="440" version="1.0" viewBox="0 0 315 330"><path d="M196.653-4.176c-15.558.434-34.55-2.035-45.686 11.466-11.682 13.722-6.753 37.18 9.68 44.806 17.786 9.776 32.302 24.751 44.861 40.495 4.67 7.028 9.697 14.13 15.065 20.44 3.008 14.24 10.804 27.326 10.607 42.247.753 14.004 13.912 24.995 27.785 23.774 5.7.532 9.11 6.844 13.36 10.177 7.378 8.055 16.931 15.058 28.29 15.13 8.299 3.976 16.876 8.321 26.226 8.621 5.404.313 9.84 3.701 11.785 8.676 8.804 12.791 23.829 19.653 38.858 21.64 12.65 4.454 29.265 8.082 39.989-2.73 10.578-9.629 7.286-24.795 6.461-37.466-.805-6.924.88-14.118-1.487-21.01-4.833-19.845-10.252-39.8-18.885-58.358-4.927-7.025-6.205-15.896-11.287-22.962-10.035-16.168-22.664-31.053-37.56-42.77-9.29-13.514-24.014-22.022-37.553-30.732-22.774-13.514-47.524-24.41-73.858-28.395-15.055-4.52-31.166-2.536-46.651-3.049Zm204.832 224.713c-3.733.477 3.604-.636 0 0zm-151.608-65.358c-11.919 3.63-18.766 15.914-18.125 27.975-.224 18.895-8.575 36.124-13.8 53.888-3.444 12.42 3.34 25.866 14.813 31.278 9.818 9.091 22.816 12.86 35.591 15.576 3.782.873 8.774 1.531 10.779 5.895 12.724 14.775 28.874 26.856 46.405 34.931 4.689 9.977 15.135 14.39 24.89 17.772 13.098 8.095 32.374 7.276 41.967-5.84 12.488-18.742 19.826-40.465 26.033-61.976 4.497-14.06 4.28-31.653-7.806-41.983-12.401-10.33-28.542-15.754-44.662-15.488-4.896 1.561-5.39-3.133-6.136-6.532-3.97-14.03-18.486-21.802-32.358-22.008-5.236.735-8.495-2.814-12.534-5.341-5.641-3.601-12.958-3.218-18.85-4.691-10.319-11.063-21.447-25.67-38.363-24.506-2.627.155-5.228.732-7.844 1.05zm-15.703 113.315c-1.878-.631-6.95-3.32 0 0zm5.752 1.404c-4.178-.614-4.265-1.024 0 0zm-12.76-28.517c-15.388-.096-25.541 13.514-31.602 26.05-1.407 3.802-7.04 3.022-9.92 5.625-14.175 7.311-26.478 23.287-21.54 39.926 2.663 9.801 11.89 15.971 14.68 25.804 5.192 11.205 13.785 23.076 27.375 23.195 4.755.122 10.398-1.53 11.782 4.532 6.327 10.133 13.134 22.428 26.355 23.792 5.751.982 13.07 1.65 16.97 6.182 4.443 6.92 5.953 16.155 13.906 20.41 12.508 8.899 28.62 2.974 40.29-4.423 22.063-12.443 41.397-29.521 57.488-48.988 10.197-12.276 6.755-32.33-6.919-40.543-9.437-6.686-21.297-7.69-31.706-12.076-7.332-12.19-18.101-21.979-31.013-27.989-8.877-5.017-18.764-7.991-28.186-11.478-9.324-8.542-19.251-16.296-29.11-24.15-5.526-3.748-12.128-6.04-18.85-5.87zm25.389 12.351c3.287 1.517-3.526-1.326 0 0zm-225.741 31.44c-17.02-.285-30.247 17.992-25.265 34.123 5.809 17.24 17.567 31.71 28.33 46.116 20.834 25.701 48.963 44.939 78.943 58.483 9.788 3.398 19.093 8.794 29.563 9.623 10.012 5.164 21.264 7.256 32.42 8.304 10.753-.274 21.269 3.69 32.01 1.426 22.474-.97 45.725-2.062 66.736-10.811 15.5-6.785 20.383-27.476 11.864-41.494-7.433-14.37-23.362-20.79-37.562-26.2-4.088-3.492-9.285-5.143-12.148-9.97-6.308-6.538-14.638-11.11-22.888-14.232-3.525-5.51-7.915-10.298-9.342-16.833-6.12-11.31-14.481-22.716-26.4-28.313-14.063-5.17-29.083.618-43.016 3.554-12.341 4.883-25.808 1.955-38.698 2.48-19.968.474-37.9-9.64-56.457-15.379a32.325 32.325 0 0 0-8.09-.878zm176.489 54.795c.534.064-.937-.08 0 0z" style="fill:#fff;stroke-width:.928737" transform="scale(.75)"/><path d="m299.9 185.5-2.3-2.7c-1.3-1.5-2.7-4.5-3.1-6.6-.8-5.2-3.1-7.1-14-12.3-6.9-3.3-10.7-6-17-12-4.4-4.2-9-8-10.2-8.3-1.3-.4-2.3-1.1-2.3-1.6s-4.2-.8-9.2-.8c-8.8.1-9.7 0-16.5-3.5-4-2-7.9-3.7-8.7-3.7-.8 0-3.1-1.1-5-2.4-2-1.3-5.9-3-8.8-3.6-10.2-2.4-10.5-2.8-11.1-12.2-.7-11.9-1.3-14.9-5.2-25-3.7-9.6-4.1-11.8-2.5-14.8.8-1.6.5-1.9-2-2.5-3.3-.7-4.7-2.3-12-13.6-8.6-13.3-31.4-33.7-42-37.6-8-3-9.4-5.3-3.1-5.3 2.2 0 4.3-.5 4.6-1 .4-.6 8.6-1 21.4-1 16.5 0 21.8.3 25.2 1.6 2.4.8 6.8 1.8 9.8 2 6.1.6 18.9 5.2 31.9 11.7 10.5 5.2 17.5 9.6 26.5 16.8 6 4.7 6.8 5.7 6.4 8.2-.3 2.4-.1 2.8 1.5 2.4 5.8-1.6 32.1 31 30.4 37.6-.4 1.6 0 2.5 1.5 3.2 1.3.6 3 3.6 4.6 8 5 13.9 8.1 24.1 9.3 30 .7 3.3 1.4 6.9 1.7 8.1.3 1.5-.1 2.3-1.6 2.7-2.7.7-2.7 2.7-.1 3.4 1.9.5 2 1.4 2 17.7zM192 140.7c0 7.4-.7 11-4.1 22.3-2.2 7.4-5.1 15.4-6.5 17.7l-2.4 4.1 4.9 3.2c3.4 2.1 8.3 3.9 15.3 5.5 18.2 4.1 18.6 4.2 21.2 8.3 2.5 4 14.1 15.4 19.2 19 1.8 1.2 6.5 3.4 10.4 5 4 1.5 7.6 3.4 8.1 4.2.4.8 2.3 4.9 4.2 9 1.8 4.1 4.6 9 6.1 10.7l2.8 3.3 2.2-2.8c9.3-11.2 14.9-22.9 21-43.3 5-17 5-17.5-4.4-22.1-7-3.4-8.2-3.7-16.8-3.7l-9.3-.1-5.5-5.1c-4.6-4.4-5.4-5.7-5.4-8.8-.1-5.8-1.7-7.1-9.3-7.1-3.6 0-6.9-.5-7.2-1-.3-.6-2-1-3.6-1-2.2 0-3.2-.6-3.9-2.5-.9-2.3-1.4-2.5-7.9-2.5h-7l-4.3-5.2c-7-8.4-14.6-15.8-16.3-15.8-1.2 0-1.5 1.5-1.5 8.7zM166.2 203.6c-3.1 4-4.2 6.3-4.2 9 0 5.6-1.4 7.4-5.4 6.7-4.3-.7-10.3 1.3-11.7 3.8-.6 1.1-3.1 2.9-5.6 4-2.5 1-5.6 2.8-6.9 3.8l-2.4 1.9 3.7 3.2c2.1 1.8 5.8 6.2 8.3 9.8l4.5 6.7 13.5.5 13.4.5 1.1 3.5c.5 1.9 2.8 6 5.1 9s4.4 6.3 4.7 7.2c.5 1.4 1.7 1.8 5.1 1.8 2.9 0 6.2 1 9.8 2.8 2.9 1.6 6.4 3.1 7.6 3.4 1.6.4 3 2.3 4.4 5.7 1.2 2.8 2.9 5.3 3.9 5.6 1.1.4 1.5 1.3 1.1 3-.3 2 0 2.5 1.7 2.5 2.7 0 17.7-8.8 25.1-14.8 9.3-7.4 23-21.3 23-23.3 0-2.4-3.9-4.4-12.6-6.4-3.8-.9-7.9-2.2-9.1-3-1.2-.8-2.9-1.5-3.8-1.5-.9 0-3.7-3.3-6.2-7.3-4.3-6.7-5.4-7.7-13.7-12.4-5.7-3.2-11.7-5.8-16.1-6.8-6.4-1.4-7.5-2.1-14.1-8.5-4-3.9-7.8-7-8.6-7-.8 0-2.4-1.2-3.5-2.8-1.1-1.5-3.4-3.5-5-4.4l-2.9-1.7-4.2 5.5zM15.2 228.7C20.7 241 35 262 43.6 270.6c14.6 14.3 34.4 27.1 50.3 32.3 3.5 1.1 7 2.6 7.7 3.2.8.7 3.1.9 5.4.6 2.9-.4 4-.1 4 .8 0 1.5 4.2 3.4 8.8 3.8 1.7.2 3.5.7 3.9 1 .3.4 3.9.7 7.8.7 4 0 8.7.5 10.4 1.1 2.5.9 4.3.9 7.2 0 3-.9 4.3-.9 5.9.1 1.6 1 2.4 1 4 0 1.1-.7 5.3-1.2 9.9-1.2 4.4 0 8.2-.4 8.5-.8.2-.4 1.9-.9 3.8-1 1.8-.1 5.9-1 9.1-1.9 6.4-1.8 7-3.2 4-8.5-2.1-3.7-14-9.8-19-9.8-2.5 0-3.3-.4-3.3-1.8 0-1.1-1.3-2.3-3.4-3-2.1-.8-4.8-3.1-6.9-6-3.1-4.1-4.4-4.9-10.3-6.7-4.4-1.3-7.2-2.8-7.9-4-3.4-6.6-6.9-11.5-8.1-11.5-.9 0-1.4-1.1-1.4-2.8-.1-3.9-1.9-7.3-6.7-12.7-4-4.4-4.5-4.7-8-4.2-7.3 1.1-23.8 5.1-24.1 5.9-.5 1.1-36.9 1-37.6-.1-.3-.4-2.6-1.1-5.1-1.5-7-.9-22.1-6.2-30.3-10.7-4.1-2.1-7.2-3.6-7-3.2z"/></svg>