<svg xmlns="http://www.w3.org/2000/svg" width="808" height="661.333" version="1.0" viewBox="0 0 606 496"><path d="M472.697-15.305c-11.312-.25-21.338 5.593-32.265 7.455-13.964 5.223-28.241 9.7-41.885 15.719-9.508 3.946-19.02 7.865-28.427 11.994-6.63 4.087-13.227 9.006-20.175 12.183-21.955.907-44.177-.553-65.93 2.94-18.498 5.806-39.42 8.443-54.085 22.327-7.356 7.073-16.524 12.21-23.509 19.832-11.193 8.577-20.99 18.787-32.949 26.354-8.351 7.202-19.058 10.763-27.93 17.181-16.48 3.988-32.232 15.268-36.298 32.483-3.515 12.761-1.869 27.01 3.092 38.773-14.9 10.625-28.634 22.722-42.554 34.595-12.02 9.037-21.301 21.475-33.922 29.659-11.908 5.116-22.325 12.839-33.43 19.37-17.311 11.137-24.82 34.505-16.901 53.566.924 8.69 5.9 16.305 9.518 23.805-.21 21.429 3.438 44.102 17.535 61.084 17.17 21.732 37.948 40.47 59.733 57.465 19.1 13.17 43.88 15.626 66.288 11.642 16.041 10.785 34.131 18.297 52.216 24.925 6.924.805 7.267 2.629 2.13 7.39-13.436 19.377-8.924 45.129-.698 65.653 6.25 14.319 9.68 30.208 20.38 42.218 10.485 13.205 23.259 25.538 39.492 31.045 19.746 14.361 44 21.306 68.218 22.422 11.112 3.274 23.037 2.97 33.874-1.293 18.46-3.7 34.038-19.955 34.281-39.205.795-4.753-2.894-11.234 3.123-13.505 11.48-8.248 22.821-16.752 35.635-22.887 6.302-3.583 12.264-10.05 20.204-7.598 21.105 3.086 42.742 1.5 63.549 6.47 7.448.927 15.226.503 21.626 5.014 24.576 10.47 56.617-5.171 62.52-31.472 22.612 2.914 45.823-13.062 50.03-35.696 1.324-3.634-.7-12.955 5.668-10.191 11.166 2.103 21.358 7.78 32.654 9.408 12.676 2.372 24.19 8.544 36.68 11.477 27.443 5.702 59.543-15.254 60.214-44.366.653-12.75-5.467-25.425-15.415-33.327 5.861-18.432-3.412-38.914-19.512-48.889-9.212-7.202-20.32-10.849-31.312-14.26 20.3-10.703 28.441-38.847 16.138-58.418-4.825-8.63-12.972-14.841-21.65-19.279 23.155-8.807 33.148-39.115 21.205-60.46-2.635-6.013-8.944-9.948-8.255-17.15-4.207-5.542 1.145-8.666 4.033-13.152 13.916-20.858 4.52-51.934-18.123-62.255-11.095-3.978-22.246-7.962-32.827-13.319-10.577-3.897-19.94-10.813-31.239-12.663-9.204-4.08-18.546-7.806-28.089-11.003 13.088-8.962 30.214-11.335 40.9-23.957 3.15-3.07 4.642-8.026 9.869-7.28 14.683-1.654 27.692-10.873 34.715-23.727 14.859-16.631 13.666-44.29-2.827-59.387-14.299-14.739-36.995-15.182-55.404-9.14-22.225-1.615-45.036-2.51-67.518-4.714-10.558-3.718-21.771-1.668-32.193 1.215-7.61.891-14.925 2.593-22.229 3.898-6.43-20.117-27.553-31.753-47.969-30.97zm-29.155 8.022c.175-.045.607-.033 0 0zm2.979.33c.043-.069.496-.318 0 0zM429.554 3.618c1.261-1.445 1.806-1.764 0 0zM404.463 6.29c2.161-.445 2.964-.468 0 0zM275.845 38.158c.928-.751 2.627-1.053 0 0zm-3.161 1.51c2.492-1.356 5.541-2.626 0 0zm-6.171 4.459c4.495-3.698 6.09-4.41 0 0zm437.884 25.286c-1.196 7.808.463-4.17 0 0zm-523.08 33.477c2.284-.586 2.755-.437 0 0zm-6.387 1.695c.222-.157 1.19-.317 0 0zm2.13 2.625c.064-.018.599-.063 0 0zm443.487 33.62c1.072.28-.358-.066 0 0zm20.66 8.915c.222.028-.331-.031 0 0zm50.148 21.607c1.705.196-2.214-.18 0 0zm-448.578 8.926c20.461 2.215 35.722 23.85 31.482 43.898-12.678 1.646-24.355-7.965-30.823-18.093-3.496-6.952-6.973-16.02-3.738-23.441 1.033-.669 1.533-2.953 3.079-2.364zm405.228 8.816c.162.076-.252-.102 0 0zm-547.74 13.522c1.235-1.543 1.115-1.281 0 0zm162.278 27.588c-3.486.477 3.393-.637 0 0zm-277.438 95.263c-.155-1.291-.07-1.783 0 0zm607.166 25.795c1.44.483-4.697-1 0 0zm-305.454 46.053c.506.52-1.079-1.026 0 0zm256.23 2.83c-1.884-1.398-1.938-1.655 0 0zm-217.03 5.361c-1.413-1.497-.944-1.093 0 0zm-.1 2.923c-1.803-1.024-1.461-.926 0 0zm9.69 5.98c-4.614 10.51-8.921 21.157-13.535 31.671-3.927-11.998-13.025-21.119-21.286-30.256 11.722-.914 23.47-1.42 35.201-2.203zm1.832-.457c-.87 4.287-.88 3.77 0 0zm-37.86 4.706c.2.901-.51-1.762 0 0zm1.051 5.554c.49 4.13-.708-4.275 0 0zm65.353 9.586c-.36-.115-1.527-.765 0 0zm-124.467 60.178c5.053.502 5.88 3.767 5.47 8.241-3.29-2.717-13.369-2.32-6.408-7.119.598.61.424-1.44.938-1.122zm431.899 31.551c-2.401-2.52-2.456-2.948 0 0zm3.97 4.03c-.305-.08-1.427-1.4 0 0zm-395.582 19.92c.415 2.822-.609-3.101 0 0zm-86.01 38.054c-.195-.838-.254-2.017 0 0zm300.926 7.725c-1.578-.584-1.266-.543 0 0zm-179.44 79.746c-1.174-.438-1.763-.835 0 0z" style="fill:#fff;stroke-width:.987065" transform="scale(.75)"/><path d="M472.801-.305c-9.57-.036-17.85 5.487-27.244 6.55-13.368 5.185-27.275 9.113-40.282 15.228-9.512 3.365-18.562 7.947-27.96 11.551-6.937 5.115-14.751 8.886-21.78 13.929-22.65.899-45.523-.426-68.018 2.618-14.634 4.68-30.58 6.882-43.647 15.527-4.884 4.755-9.852 9.15-15.642 12.847-9.288 7.976-18.562 15.964-27.949 23.842-7.306 7.18-16.451 12.218-24.349 18.633-7.648 4.824-16.198 8.217-23.375 13.852-12.236 2.9-25.787 9.256-28.808 22.716-3.986 13.8.915 28.07 7.837 39.999-10.57 7.026-20.75 14.73-30.717 22.648-15.702 13.655-31.866 26.782-46.838 41.594-9.003 9.356-22.34 12.043-32.208 20.24-12.495 5.682-25.153 16.39-24.45 31.41a94.709 94.709 0 0 0 6.359 24.283c2.575 5.599 7.958 9.872 6.357 16.645-.225 18.763 3.04 38.737 16.04 53.164 15.963 19.592 34.93 36.657 54.783 52.215 17.08 11.738 39.19 12.258 58.941 8.714 5.376-1.246 8.482 5.146 13.267 6.83 15.479 8.12 31.322 16.339 48.376 20.547 14.436 3.462 30.77-6.556 32.652-21.607 9.299 5.465 19.514 9.344 29.774 12.544-5.456 14.384.98 29.815 6.38 43.234 2.147 6.459 2.226 13.747 6.633 19.39-3.32.608-7.714 6.334-8.643.176-8.409-13.276-16.304-28.938-31.798-35.086-16.045-6.624-34.48 6.245-36.465 22.867-2.686 17.567 4.15 34.524 10.877 50.308 5.095 19.312 18.466 35.525 34.329 47.271 6.474 4.335 14.439 5.45 20.223 10.937 17.006 10.904 37.048 15.633 57.042 16.608 8.395 2.186 17.383 3.35 25.615-.3 12.594-2.102 24.925-11.54 25.366-25.137.495-4.781-.68-9.638-2.737-13.945 5.244-5.057 9.115-11.364 15.96-14.553 11.041-8.834 23.214-15.993 35.636-22.672 6.057-4.134 12.058-8.949 19.897-8.342 12.598.627 25.181 2.719 37.862 2.902 11.302.358 22.48 1.607 33.475 4.096 8.405.98 17.402.602 24.522 5.828 19.37 8.573 45.646-8.008 43.13-29.92-1.243-4.14-.968-6.059 3.74-4.774 13.401 4.437 30.24 3.169 39.434-8.777 5.771-6.546 7.15-16.007 6.802-24.021 3.97-3.794 6.796-8.743 8.068-14.081 12.41 2.579 24.792 5.483 36.57 10.381 14.907 3.087 29.532 7.408 43.69 13.17 19.31 5.947 43.751-7.322 45.973-28.128 1.063-13.031-8.538-24.02-20.193-28.465 10.794-11.931 7.113-31.999-6.176-40.5-11.272-9.551-25.92-12.595-39.63-16.825-6.982-3.597-14.58-5.648-21.966-8.2 4.63-2.824 8.157-7.188 10.604-11.98 17.875 2.134 36.366-14.448 32.556-32.895-1.887-14.789-16.384-21.69-28.245-27.575-10.482-6.378-21.26-12.297-30.9-19.905-.59-3.273-1.498-9.82 4.038-6.002 10.93.83 20.887 8.165 32.151 5.202 18.08-2.955 27.776-25.43 18.922-41.084-1.777-4.943-7.074-8.176-9.247-12.215 1.217-8.204-2.765-16.586-8.707-21.99 17.073-5.197 23.964-27.94 13.51-42.126-5.034-8.491-14.661-11.407-23.46-14.092-13.228-5.681-26.54-11.221-39.285-17.82-8.24-2.335-16.294-5.02-24.065-8.774-12.098-4.52-24.344-8.658-36.26-13.683 4.578-6.346 8.892-12.83 15.743-16.93 13.685-11.335 34.83-12.15 44.433-28.55.911-4.937 4.424-5.886 8.983-5.767 11.54-.697 24.105-5.492 28.911-16.86 11.777-10.848 12.24-31.162-.029-41.818-11.384-11.291-28.95-8.947-42.814-4.474-24.087-1.502-48.248-2.696-72.264-4.943-10.953-4.855-21.969 1.25-32.978 2.093-10.46 2.188-21.045 3.61-31.566 5.406C510.5 15.408 494.339.18 477.517-.135a45.433 45.433 0 0 0-4.716-.17zm-31.534 13.293c.29-.405 1.299-1.229 0 0zm-33.517 7.925c.402-.127 1.54-.207 0 0zm-126.025 30.96c.143-.185 2.191-.925 0 0zm-5.178 3.403c2.904-2.385 3.726-2.678 0 0zm412.925 12.643c-.416 2.6.155-1.456 0 0zm-505.316 49.663c1.408-.38 1.96-.287 0 0zm505.985 68.723c.35.04-.478-.04 0 0zm-578.102 25.578c.03-.101.746-.818 0 0zM.036 324.118c-.028-.18-.028-.638 0 0zm552.334 64.304c-.443-.253-1.586-1.382 0 0zm-215.859 6.383c-.216-.177-.595-.723 0 0zm-3.165.61c-.303-.118-.91-.61 0 0zm6.85 3.178c5.449 2.495 11.063 5.16 15.426 9.43-10.795 20.92-19.16 43.064-28.38 64.74-2.376 6.437-4.57 12.953-5.415 19.803-6.707-4.678-10.203-12.453-16.705-17.304 8.937-13.01 2.916-30.237-7.433-40.481-6.562-7.04-13.169-14.12-17.623-22.685-4.467-2.994-.269-5.239 2.953-6.59 13.571-7.142 29.509-4.524 44.206-6.371 4.296-.042 8.737-.962 12.97-.542zm11.667 19.38c.326-1.684.244-1.048 0 0zm-66.137 7.95c.31 2.611-.413-2.572 0 0zm42.64 46.877c.02-.09.396-.531 0 0zm356.244 42.81c-1.316-1.373-1.077-1.303 0 0zM266.93 551.434c.19 1.312-.29-1.44 0 0z" style="fill:#fff;stroke-width:.987065" transform="scale(.75)"/><path d="M351.5 19c-.3.5-1.7 1-3 1s-2.7.4-3 1c-.3.5-2.1 1-4 1s-3.7.4-4 1c-.3.5-1.5 1-2.5 1-1.1 0-3.5.9-5.5 2s-4.6 2-5.9 2c-1.3 0-5 1.3-8.1 3-3.1 1.6-6.3 3-7 3-.7 0-3.9 1.3-7 3-3.1 1.6-6.5 3-7.5 3s-2.3.7-3 1.5c-.7.9-3.2 2.5-5.5 3.5s-4.8 2.6-5.5 3.5c-.7.8-1.8 1.5-2.5 1.5-.6 0-2 .9-3 2-1.7 1.9-3.1 2-28.1 2-16.4 0-26.5.4-26.9 1-.3.5-1.7 1-3 1s-2.7.4-3 1c-.3.5-2.1 1-4 1s-3.7.4-4 1c-.3.5-1.6 1-2.9 1-1.2 0-2.6.4-3.1.9-.6.5-2.1 1.1-3.5 1.3-1.5.2-3 1.4-3.8 3-.7 1.6-1.9 2.8-2.6 2.8-.7 0-2.1.9-3.1 2s-2.3 2-2.9 2c-.7 0-3.8 2.7-7.1 6s-6.4 6-7 6c-.6 0-3.7 2.7-7 6s-6.4 6-7.1 6c-.6 0-1.9.9-2.9 2s-2.3 2-3 2c-.6 0-2.4 1.3-4 3-1.6 1.6-3.4 3-4 3-.7 0-2 .9-3 2s-2.8 2-4 2c-1.2 0-3 .9-4 2s-2.3 2-3 2c-.7 0-2 .9-3 2s-2.8 2-4 2c-1.1 0-2.5.4-3.1.9-.5.5-2.2 1.1-3.9 1.3-2.8.3-3 .6-3.3 4.7-.2 2.4.2 4.9.7 5.4.6.6 1.1 1.8 1.1 2.7 0 2.9 2.8 7.4 7.5 12 2.5 2.4 4.5 5.2 4.5 6.1 0 2.3-6.2 6.9-9.3 6.9-.7 0-2.3 1.3-3.5 3-1.3 1.6-2.9 3-3.6 3-.7 0-2.1.9-3.1 2s-2.3 2-3 2c-.6 0-2.4 1.3-4 3-1.6 1.6-3.4 3-4 3-.6 0-2.9 1.8-5 4s-4.4 4-5 4c-.6 0-3.7 2.7-7 6s-6.4 6-7 6c-.6 0-5.8 4.7-11.5 10.5-8.3 8.3-12 11.3-17.5 13.9-3.8 1.9-7.8 3.6-8.7 4-1 .3-1.8 1-1.8 1.5 0 .6-3 2.4-6.6 4.1-7 3.4-8.4 5.2-6.6 8.1.7 1 1.2 2.9 1.2 4.2 0 3.2 2.4 7.7 5.5 10.7 2.4 2.3 2.5 2.7 2.5 15.6 0 7.8.4 13.5 1 13.9.6.3 1 1.4 1 2.5 0 2.6 4.1 10 6.2 11.1 1 .5 1.8 1.5 1.8 2.2 0 1.3 18 19.7 19.3 19.7.4 0 3.9 3 7.7 6.6 7.1 6.8 10.9 9.4 14.1 9.4 1 0 2.1.4 2.4 1 .8 1.3 20.2 1.3 21 0 .3-.6 3.7-1 7.5-1 6.8 0 6.9.1 10.3 4 1.9 2.2 3.8 4 4.4 4 .5 0 5.4 2.2 10.8 5 5.4 2.7 10.4 5 11.1 5 .8 0 2.9.9 4.9 2 6.5 3.7 11.1 1.3 6.6-3.4-1.1-1.2-2.1-2.7-2.1-3.3 0-.5-.9-1.8-2-2.8-1.1-1-2-2.5-2-3.4 0-.9-1.5-2.8-3.4-4.3-3.6-2.9-6.6-7.8-6.6-10.9 0-1-.4-2-.9-2.3-1.4-.9-2.2-8.2-1.2-10.9.9-2.2 1.7-2.5 8.3-3 6.4-.4 7.6-.3 9.6 1.6 1.2 1.1 2.2 2.6 2.2 3.2 0 .6 1.8 2.9 4 5s4 4.4 4 5c0 1.4 12.2 13.5 13.7 13.5.6 0 1.6.7 2.3 1.5 1.4 1.6 10.8 6.5 12.7 6.5.7 0 2.9.9 4.9 2 2.6 1.5 5 2 8.8 1.8 4.6-.3 5.1-.5 5.4-2.8.2-2-1.3-4-6.8-9.5-3.8-3.8-7-7.5-7-8.1 0-.6-.9-1.9-2-2.9s-2-2.4-2-3c0-.7-.7-1.8-1.5-2.5-1.8-1.5-6.5-10.9-6.5-13 0-2.5 5-12 6.4-12 .7 0 2.5-1.4 4.1-3 1.6-1.7 3.6-3 4.6-3 .9 0 4.1-1.3 7-2.8 5.1-2.7 6.1-2.8 20.4-3.1 8.2-.1 15.4-.6 15.9-1.1 1.3-1.3 12.3-1.3 13.1 0 .3.5 1.6 1 2.9 1 1.3 0 3.1.9 4.1 2 1 1.1 2.8 2 3.9 2 1.3 0 4.5 2.4 8.1 6 3.3 3.3 6.4 6 7.1 6 1.8 0 4.4 3.5 4.4 5.9 0 1.2-1.8 4-4 6.3s-4 5.2-4 6.3c0 1.2-.9 3-2 4s-2 2.6-2 3.6c0 .9-1.3 4.3-3 7.4-1.6 3.1-3 6.3-3 7 0 .7-1.3 3.9-3 7-1.6 3.1-3 6.3-3 7.1 0 .7-.9 2.9-2 4.9-1.1 2-2 4.4-2 5.5 0 1-.4 2.2-1 2.5-.5.3-1 2.4-1 4.5 0 2.2-.9 5.5-2 7.5s-2 4.4-2 5.5c0 1-.4 2.2-1 2.5-.5.3-1 2.9-1 5.6 0 5.5-1.8 7.2-4.8 4.7-.9-.8-4.2-2.7-7.3-4.2-3.2-1.4-6.2-3.3-6.9-4.1-.7-.8-1.8-1.5-2.4-1.5-1.5 0-11.4-10.1-13-13.1-1.5-3.2-5-3.2-5.4 0-.2 1.3.1 2.8.7 3.4.6.6 1.1 2.3 1.1 3.8s1.4 5.3 3 8.4c1.8 3.4 3 7.2 3 9.4 0 3 .8 4.4 4 7.6 3.7 3.6 4 4.3 4 9.6 0 3.9-.5 6.1-1.5 6.9-2.2 1.8-10.6 6-12 6-2.3 0-7.1 2.9-10.5 6.5-1.8 1.9-4.1 3.5-5 3.5-2.3 0-15-13.2-15-15.6 0-1.2-.9-2.9-2-3.9s-2-2.3-2-3c0-.7-.9-2-2-3s-2-2.3-2-3c0-2-6.8-7.8-8.4-7.2-2.5 1-2.2 13.6.4 18.2 1.1 2 2 4.2 2 5 0 .8.9 3 2 5s2 4.4 2 5.5c0 1 .5 2.2 1 2.5.6.3 1 1.6 1 2.9 0 1.3.9 3.1 2 4.1 1.1 1 2 2.3 2 2.9 0 .7 2.8 4 6.3 7.4 4.9 4.9 6.9 6.2 9.3 6.2 1.8 0 3.8.8 4.9 2 1 1.1 2.4 2 3.1 2 .7 0 1.8.9 2.4 2 .6 1.1 1.7 2 2.4 2 .8 0 4 1.3 7.1 3 3.5 1.8 7.2 3 9.5 3 2.2 0 4.2.4 4.5 1 .3.5 4.2 1 8.6 1 4.6 0 8.8.5 9.9 1.2 1.6 1 2.4 1 4 0 1.1-.6 3.1-1.2 4.5-1.2s2.8-.6 3.1-1.4c.8-2-2.4-6.6-4.5-6.6s-4.1-1.9-4.1-3.8c0-1.6 6.3-8.2 7.7-8.2 1.3 0 8.3-7.4 9.7-10.2.6-1.2 3.1-3.3 5.5-4.5 2.4-1.1 6-3.7 8-5.6 2-1.8 5.3-4.1 7.3-5.1 2-.9 4-2.1 4.3-2.6.3-.5 3.4-2.3 6.9-4 3.5-1.6 6.9-3.7 7.6-4.5.7-.8 1.8-1.5 2.5-1.5.6 0 2-.9 3-2 1.1-1.2 3.1-2 5.1-2 1.8 0 3.6-.4 3.9-1 .3-.5 3.7-1 7.5-1s7.2.5 7.5 1c.4.6 6.8 1 16 1s15.6.4 16 1c.3.6 3 1 6 1s5.7.4 6 1c.3.5 3.9 1 8 1s7.7.4 8 1c.3.5 2 1 3.7 1 1.9 0 4.1.9 5.5 2.2 1.9 1.8 2.8 2 5.5 1.2 5.5-1.6 4.6-7.4-1.2-7.4-2.8 0-8.5-2.4-9.6-4.1-.3-.6-1.7-1.4-3-1.9-3.3-1.3-4-3.7-1.8-6.1 2.7-3 .8-5.3-4.7-5.7-2.4-.2-4.8-.7-5.3-1.3-.6-.5-2-.9-3.2-.9-1.3 0-2.6-.5-2.9-1-.3-.6-2.1-1-3.9-1-1.7 0-3.6-.4-4.2-1-.5-.5-4.3-1-8.4-1.2-7.3-.3-7.5-.4-7.5-2.8v-2.5l11.9-.3c7.3-.2 12.3.1 13 .8.5.5 3.4 1 6.2 1 2.9 0 5.6.4 5.9 1 .3.5 3 1 6 1s5.7.4 6 1c.3.5 3 1 6 1s5.7.4 6 1c.3.5 3.5 1 7 1s6.7.5 7 1c.3.6 3 1 5.9 1 2.8 0 5.7.5 6.3 1.1.6.6 2.8.9 4.9.7 3.6-.3 3.9-.6 4.2-3.4.3-2.7-.2-3.4-2.9-4.8-2-1-5.8-1.6-10-1.6-3.7 0-7.1-.4-7.4-1-.3-.5-2.1-1-4-1s-3.7-.5-4-1c-.3-.6-1.9-1-3.5-1s-4.5-.9-6.5-2-4.9-2-6.5-2c-1.6 0-3.2-.4-3.5-1-.3-.5-1.6-1-2.8-1.1-3.4-.1-8.2-3.3-8.2-5.5s4.1-3.2 5.8-1.5c.7.7 5.3 1.1 11.3 1.1 5.8 0 10.6.4 10.9 1 .3.5 2.6 1 5 1s4.7.4 5 1c.3.5 4.4 1 9 1s8.7.4 9 1c1 1.6 8.1 1.2 9.5-.5 1.6-2 .6-4.5-1.9-4.5-1.1 0-2.3-.5-2.6-1-.3-.6-2.1-1-4-1s-3.7-.4-4-1c-.3-.5-2.1-1-4-1s-3.7-.5-4-1c-.3-.6-2.6-1-5-1s-4.7-.5-5-1c-.3-.6-2.6-1-5-1s-4.7-.5-5-1c-.3-.5-2.1-1-4-1s-3.7-.5-4-1c-.3-.6-2.6-1-5-1s-4.7-.5-5-1c-.3-.6-2.1-1-4-1s-3.7-.5-4-1c-.3-.6-2.1-1-4-1s-3.7-.5-4-1c-.3-.5-1.7-1-3-1s-2.7-.5-3-1c-.3-.5-1.5-1-2.6-1-2.4 0-3.5-2.5-1.9-4.5.9-1.1 3.3-1.4 10.2-1.3 4.9.1 9.2.6 9.4 1 .3.4 4.7.8 9.9.8s9.7.4 10 1c.3.6 3.9 1 8 1s7.7.5 8 1c.3.5 3.5 1 7 1s6.7.5 7 1c.3.6 2.6 1 5 1s4.7.5 5 1c.3.5 2.6 1 5 1s4.7.4 5 1c.3.5 2.1 1 4 1s3.7.4 4 1c.3.5 2.6 1 5 1s4.7.5 5 1c.3.6 2.1 1 4 1s3.7.4 4 1c.3.5 2.1 1 4 1s3.7.4 4 1c.3.5 1.7 1 3 1s2.7.4 3 1c.3.5 1.7 1 3 1s2.7.5 3 1c.3.6 2.1 1 4 1s3.7.5 4 1c.3.5 2.1 1 4 1s3.7.4 4 1c.3.5 1.7 1 3 1s2.7.4 3 1c.3.5 1.5 1 2.5 1 1.1 0 3.5.9 5.5 2 4.3 2.4 7 2.4 11 .1 3.5-2.1 4.4-4.9 1.8-5.7-3.9-1.3-6.9-3-9.6-5.7-2-1.8-3.9-2.7-6.2-2.7-1.9 0-3.7-.5-4-1-.3-.6-2.1-1-4-1s-3.7-.5-4-1c-.3-.6-3-1-6-1s-5.7-.5-6-1c-.3-.6-2.4-1-4.5-1-2.2 0-5.5-.9-7.5-2s-4.7-2-6-2c-1.3 0-4-.9-6-2s-4.6-2-5.9-2c-3.3 0-8.4-2.8-10.3-5.6-1.3-2-2.3-2.4-6.9-2.4-3.5 0-6.6-.7-8.9-2-2-1.1-4.2-2-4.9-2-.8 0-4-1.4-7.1-3-3.4-1.8-7.2-3-9.4-3-2.5 0-4.4-.7-5.6-2-1-1.1-2.3-2-3-2-.7 0-2-.9-3-2s-3-2-4.4-2c-3.1 0-16.1-6.3-18.6-9-1-1.1-1.5-2.6-1.2-3.5.7-1.7 3.3-2 4.2-.5.3.5 3.9 1 8 1s7.7.4 8 1c.3.5 2.6 1 5 1s4.7.4 5 1c.3.5 2.1 1 4 1s3.7.4 4 1c.3.5 2.6 1 5 1s4.7.4 5 1c.3.5 2.1 1 4 1s3.7.4 4 1c.3.5 1.7 1 3 1s2.7.5 3 1c.3.6 2.1 1 4 1s3.7.4 4 1c.3.5 1.7 1 3 1s2.7.4 3 1c.3.5 2.1 1 4 1s3.7.4 4 1c.3.5 2.1 1 3.9 1 2 0 4 .8 5.1 2 1 1.1 2.6 2 3.6 2s3.4.9 5.4 2c2 1.1 4.2 2 5 2 .8 0 3 .9 5 2s4.2 2 4.9 2c.8 0 2.7.7 4.2 1.5 4 2.1 5.3 1.9 6.4-1 1-2.5 3.4-3.3 4.5-1.5.3.5 1.6 1 2.9 1 1.2 0 2.7.5 3.3 1.1.6.6 2.1.9 3.4.7 3.1-.4 3.2-3.8.2-5.4-1.3-.6-3.1-1.8-4.1-2.7-1-1-2.8-1.7-4-1.7-1.1 0-2.4-.5-2.7-1-.3-.6-1.7-1-3-1s-2.7-.5-3-1c-.3-.6-1.9-1-3.5-1-1.5 0-5.4-1.4-8.5-3-3.1-1.7-6.8-3-8.1-3-1.3 0-3.9-.9-5.9-2-2-1.1-4.1-2-4.9-2-.7 0-5.7-2.3-11.1-5-5.4-2.8-10.3-5-11-5-1.5 0-14.1-6.4-16.3-8.2-.9-.8-5.1-3.1-9.4-5.2-4.2-2-8.2-4.3-8.8-5.1-.7-.8-1.8-1.5-2.5-1.5-.6 0-2-.9-3-2s-2.3-2-2.9-2c-.5 0-2.2-1.2-3.7-2.6-1.5-1.5-3.8-3.2-5.1-3.8-3.1-1.5-3.1-5 .1-5.4 1.3-.2 2.8.1 3.4.7.6.6 2.1 1.1 3.3 1.1 1.3 0 2.6.4 2.9 1 .3.5 1.5 1 2.5 1 1.1 0 3.5.9 5.5 2s4.2 2 4.9 2c.8 0 4 1.3 7.1 3 3.1 1.6 6.5 3 7.4 3 .9 0 2.2.5 2.8 1.1.6.6 2.6.9 4.4.7 2.7-.2 3.5-.8 3.7-2.6.2-1.3-.4-3.2-1.3-4.2-1-1.1-1.5-2.6-1.2-3.5.7-1.7 3.3-2 4.2-.5.3.5 1.5 1 2.5 1 1.1 0 3.5.9 5.5 2s4.4 2 5.5 2c1 0 2.2.4 2.5 1 .3.5 1.6 1 2.9 1 1.3 0 3.1.9 4.1 2 2.4 2.7 4.3 2.5 5.7-.4 1.4-3.3.4-5.6-2.5-5.6-1.4 0-3-.7-3.7-1.5-1.8-2.2-6.9-4.5-10-4.5-3.2 0-5.5-2.3-4.6-4.5.4-1.2 2.3-1.5 8-1.5 4.1 0 7.8.4 8.1 1 .3.5 1.7 1 3 1s2.7.4 3 1c.3.5 1.9 1 3.5 1s4.6.9 6.6 2.1c4.9 2.7 10.8 2.3 11.2-.8.3-1.8-1-2.8-8.2-6.3-4.7-2.2-8.8-4.5-9.1-5.1-.4-.5-2.5-1.8-4.9-2.9-2.3-1-4.9-2.6-5.6-3.5-.7-.8-1.8-1.5-2.4-1.5-.7 0-2.5-1.3-4.1-3-1.6-1.7-3.6-3-4.5-3-2.2 0-7.5-2.6-9-4.5-.7-.8-2.3-1.5-3.6-1.5-1.6 0-2.8-.8-3.4-2.3-.6-1.2-1.5-3-2.2-3.9-1.9-2.7.4-4.6 3.5-2.9 3.1 1.6 6.7 1.1 8.1-1.2.9-1.5.6-2.1-1.4-3.7-1.4-1.1-3.3-2-4.2-2-1 0-3.3-.9-5.3-2s-4.4-2-5.5-2c-1 0-2.2-.5-2.5-1-.3-.6-1.7-1-3-1s-2.7-.5-3-1c-.3-.6-2.1-1-3.9-1-1.9 0-3.9-.7-4.6-1.5-1.5-1.8-.6-4.5 1.5-4.5.8 0 2.4-.5 3.5-1.2 1.5-1 2.4-.9 4.5.2s3 1.2 4.5.2c1.1-.7 4.7-1.2 7.9-1.2 3.3 0 6.3-.5 6.6-1 .3-.6 5-1 10.5-1s10.2.4 10.5 1c.3.5 2.1 1 4 1s3.7.4 4 1c.3.5 2.4 1 4.5 1 2.2 0 5.6.9 7.6 2.1 5.1 2.8 7.9 2.2 7.9-1.6 0-2.1-.7-3.3-2.5-4.2-1.4-.7-3.4-2.3-4.5-3.6-1.1-1.3-3.2-3.2-4.7-4.2-3.5-2.2-3.5-4-.3-6.1 1.4-.9 2.5-2.2 2.5-2.8 0-2.3-9.3-9.6-12.2-9.6-2.3 0-15.8-7.2-15.8-8.4 0-1.5-5.8-7.1-8.2-7.9-2.2-.8-2.3-2.5-.3-6.4 1.8-3.6 6.6-4.8 13-3.3 2.2.5 5.8.6 8.1.3 2.6-.3 4.4-.1 4.8.6.4.6 2.7 1.1 5.1 1.1 2.4 0 4.7.4 5 1 1 1.6 7.5 1.2 8.1-.5.8-2-1.3-4.5-3.7-4.5-1 0-3.4-.9-5.4-2-2-1.1-4.2-2-4.9-2-.7 0-4.8-1.8-9.1-4s-8.5-4-9.5-4c-.9 0-2.5-.9-3.5-2s-3.1-2-4.6-2c-1.6 0-4.4-.9-6.4-2s-4.2-2-5-2c-.8 0-3-.9-5-2s-4.4-2-5.5-2c-1 0-2.2-.5-2.5-1-.3-.6-1.5-1-2.5-1-1.1 0-3.5-.9-5.5-2s-4.2-2-5-2c-.8 0-3-.9-5-2s-4.9-2-6.5-2c-1.6 0-3.2-.5-3.5-1-.3-.6-1.7-1-3-1s-2.7-.5-3-1c-.3-.6-1.6-1-2.9-1-2.6 0-4.6-1.7-4.6-4 0-.9 2-3.6 4.5-6s4.5-4.9 4.5-5.5c0-.6 1.4-2.4 3-4 1.7-1.6 3-3.4 3-4 0-.6 1.4-2.4 3-4 1.7-1.6 3-3.5 3-4.2 0-.8.8-1.6 1.8-2 .9-.3 3.3-2.1 5.3-4 3.6-3.4 19.9-12.2 22.9-12.4 2.8-.1 7.5-3.5 7.5-5.5 0-1.4-.8-2-3.4-2.2-1.8-.2-3.8.1-4.4.7-.6.6-2.4 1.1-3.9 1.1-1.6 0-3.7.6-4.8 1.2-1.5 1-2.2 1-3.2 0-1.7-1.7.1-4.6 3.2-5 1.2-.2 3.8-1.2 5.7-2.3 1.8-1 5.1-1.9 7.3-1.9 2.1 0 4.2-.5 4.5-1 .3-.6 2.5-1 4.9-1 2.3 0 4.6-.4 5.2-1 .5-.5 4.3-1 8.4-1.2 6.8-.3 7.5-.5 7.8-2.5.2-1.2 1.4-2.9 2.8-3.8 1.9-1.2 2.4-2.3 2.2-4.3-.3-2.4-.8-2.7-4.7-3-2.4-.2-4.9.2-5.4.7-.6.6-2.4 1.1-3.9 1.1-1.6 0-3.7.6-4.8 1.2-1.6 1-2.4 1-4 0-1.3-.8-6.8-1.2-16.9-1.2-8.9 0-15.2-.4-15.6-1-.4-.6-5.5-1-12-1s-11.6-.4-12-1c-.3-.6-1.9-1-3.5-1s-3.2.4-3.5 1c-.3.5-3 1-6 1s-5.7.4-6 1c-.3.5-2.6 1-5 1s-4.7.4-5 1c-.3.5-3 1-6 1s-5.7.4-6 1c-.3.5-4.4 1-9 1s-8.7.4-9 1c-.3.5-2.1 1-4 1s-3.7.4-4 1c-.3.5-1.4 1-2.5 1-1 0-4.4 1.4-7.6 3-4.8 2.6-6.7 3-11.3 2.8-4.9-.3-5.6-.6-5.9-2.4-.4-2.8 4.5-5.4 10-5.4 4.2 0 5.9-2 3.8-4.5-.7-.8-1-2.1-.7-2.9.6-1.6 6.2-4.6 8.7-4.6.9 0 2-.4 2.5-.9.6-.5 2.1-1.1 3.5-1.3 1.8-.2 2.6-1 2.8-2.8.2-1.4.8-3.5 1.4-4.7 1.7-3.3-1.3-6.3-6.3-6.3-2.1 0-4.1.4-4.4 1zM208.8 140.6c.2 1.2-.6 3.8-1.7 5.8-1.2 2-2.1 4.5-2.1 5.4 0 2.9-7.9 9.2-11.5 9.2-.8 0-3 .9-5 2s-5.4 2-7.6 2c-6.2 0-6.1-2.2.5-8.9 3.1-3.1 5.6-6.1 5.6-6.6 0-1.6 5.3-6.5 7.2-6.5.9 0 2.2-.9 2.8-1.9.6-1.3 2.4-2.1 4.8-2.4 5.7-.6 6.7-.3 7 1.9z"/></svg>