<svg xmlns="http://www.w3.org/2000/svg" width="808" height="661" version="1.0" viewBox="0 0 606 496"><path d="M473-15c-12-1-22 5-33 7L398 8l-28 12c-6 4-13 9-20 12-22 1-44 0-66 3-18 6-39 8-54 22-7 7-17 12-24 20-11 9-21 19-33 26-8 8-19 11-27 18-17 4-33 15-37 32a61 61 0 0 0 3 39l-42 34c-12 9-22 22-34 30-12 5-22 13-33 20a45 45 0 0 0-17 53c1 9 6 16 9 24 0 21 4 44 18 61 17 22 38 40 59 57 19 14 44 16 67 12 16 11 34 18 52 25 7 1 7 3 2 7-13 20-9 46-1 66 7 14 10 30 21 42 10 13 23 26 39 31 20 15 44 22 68 23 12 3 23 3 34-2 19-3 34-20 35-39 0-5-3-11 3-13 11-9 22-17 35-23 7-4 13-10 21-8 21 3 42 2 63 7 8 1 15 0 22 5 24 10 56-5 62-32 23 3 46-13 50-35 2-4 0-13 6-11 11 2 21 8 33 10s24 8 36 11c28 6 60-15 60-44a41 41 0 0 0-15-33c6-19-3-39-19-49a95 95 0 0 0-32-15 43 43 0 0 0 16-58 50 50 0 0 0-21-19c23-9 33-39 21-61-3-6-9-10-8-17-5-5 1-9 4-13a44 44 0 0 0-18-62c-12-4-23-8-33-14-11-4-20-10-32-12a321 321 0 0 0-28-11c13-9 31-12 41-24 3-3 5-8 10-8a46 46 0 0 0 35-23 43 43 0 0 0-3-60c-14-14-37-15-55-9l-68-4a54 54 0 0 0-32 1l-22 4c-7-21-28-32-48-31zm-30 8h1zm4 0zM430 4c1-2 1-2 0 0zm-25 2c2 0 3 0 0 0zM276 38c1-1 3-1 0 0zm-3 2c2-2 5-3 0 0zm-7 4c5-4 7-4 1 0zm438 25c-1 8 1-4 0 0zm-523 34c3-1 3 0 0 0zm-6 2c0-1 1-1 0 0zm2 2s1 0 0 0zm443 34h1zm21 9zm50 21c2 1-2 0 0 0zm-448 9a38 38 0 0 1 31 44c-12 2-24-8-31-18-3-7-7-16-3-23 1-1 1-3 3-3zm405 9zm-548 14c1-2 1-2 0 0zm162 27c-3 1 4-1 0 0zm-277 95c0-1 0-1 0 0zm607 26c2 1-4-1 0 0zm-305 46c0 1-1-1 0 0zm256 3c-2-1-2-2 0 0zm-217 5c-1-1-1-1 0 0zm0 3c-2-1-1-1 0 0zm10 6-14 32c-4-12-13-21-21-30l35-3zm1 0c0 4 0 4 0 0zm-37 5s-1-2 0 0zm1 5c0 4-1-4 0 0zm65 10s-1-1 0 0zm-124 60c5 1 5 4 5 8-3-3-13-2-6-7l1-1zm432 32c-3-3-3-3 0 0zm3 4s-1-2 0 0zm-395 20c0 2-1-4 0 0zm-86 38c0-1-1-2 0 0zm301 7c-2 0-2 0 0 0zm-180 80c-1 0-2-1 0 0z" style="fill:#fff;stroke-width:.987065" transform="scale(.75)"/><path d="M473 0c-10 0-18 5-27 6-14 5-28 9-41 16l-28 11-21 14c-23 1-46 0-68 3-15 4-31 7-44 15a98 98 0 0 1-16 13l-28 24c-7 7-16 12-24 18-8 5-16 8-23 14-13 3-26 9-29 23-4 14 1 28 8 40l-31 22c-16 14-32 27-47 42-9 10-22 12-32 20-13 6-25 17-25 32a95 95 0 0 0 7 24c2 6 8 10 6 17 0 19 3 39 16 53a347 347 0 0 0 55 52c17 12 39 12 59 9 5-1 8 5 13 7a219 219 0 0 0 48 20c15 4 31-6 33-21 9 5 20 9 30 12-6 15 1 30 6 43 2 7 2 14 7 20-3 0-8 6-9 0-8-13-16-29-32-35-16-7-34 6-36 23-3 17 4 34 11 50a89 89 0 0 0 34 47c7 5 15 6 20 11 17 11 37 16 57 17a39 39 0 0 0 26 0c13-2 25-12 25-26 1-4 0-9-2-14 5-5 9-11 16-14 11-9 23-16 35-23 6-4 12-9 20-8 13 1 25 3 38 3 11 0 23 1 34 4 8 1 17 1 24 6 19 8 46-8 43-30-1-4-1-6 4-5 13 4 30 3 39-9 6-6 7-16 7-24a29 29 0 0 0 8-14c13 3 25 6 37 11 15 3 29 7 43 13 20 6 44-8 46-28 1-13-8-24-20-29 11-12 7-32-6-40-11-10-26-13-40-17-7-4-14-6-22-8 5-3 9-8 11-12 18 2 36-15 33-33-2-15-17-22-29-28-10-6-21-12-31-20 0-3-1-10 4-6 11 1 21 8 33 5 18-3 27-25 19-41-2-5-7-8-10-12a26 26 0 0 0-8-22c17-5 24-28 13-42-5-8-14-11-23-14-14-6-27-11-40-18l-24-9-36-13c5-7 9-13 16-17 14-12 35-12 44-29 1-5 5-6 9-6 12 0 24-5 29-16 12-11 12-32 0-42-11-12-29-9-43-5-24-1-48-2-72-5-11-5-22 2-33 2-10 3-21 4-31 6 2-18-14-33-30-33a45 45 0 0 0-5 0zm-32 13c1 0 2-1 0 0zm-33 8s1 0 0 0zM282 52s2-1 0 0zm-6 3c4-2 4-2 1 0zm414 13c-1 2 0-2 0 0zm-506 50c2-1 2-1 0 0zm506 68c1 0 0 0 0 0zm-578 26s1-1 0 0zM0 324s0-1 0 0zm552 64s-1-1 0 0zm-216 7h1zm-3 0s-1 0 0 0zm7 4c6 2 11 5 16 9-11 21-20 43-29 65l-5 19c-7-4-10-12-17-17 9-13 3-30-7-40-7-7-13-14-18-23-4-3 0-5 3-7 14-7 30-4 44-6h13zm12 19c0-2 0-1 0 0zm-66 8c0 2-1-3 0 0zm42 47s1-1 0 0zm357 42c-2-1-1-1 0 1zm-418 36c0 2 0-1 0 0z" style="fill:#fff;stroke-width:.987065" transform="scale(.75)"/><path d="m352 19-3 1-3 1-4 1-4 1-3 1-5 2-6 2-8 3a34 34 0 0 1-7 3 29 29 0 0 0-7 3l-8 3-3 2-5 3-6 4-2 1-3 2c-2 2-4 2-29 2a163 163 0 0 0-29 2l-3 1-4 1-4 1-3 1-4 1-3 1-4 3-2 3-4 2-2 2-8 6-6 6-7 6-8 6-2 2-3 2-4 3-4 3-3 2-4 2-4 2-3 2-3 2-4 2-4 1-3 1c-3 0-3 1-4 5l1 5 1 3c0 3 3 7 8 12l4 6c0 2-6 7-9 7l-4 3-3 3-3 2-3 2-4 3-4 3-5 4-5 4-7 6-7 6-12 10a59 59 0 0 1-17 14l-9 4-2 2-7 4c-7 3-8 5-6 8l1 4c0 3 2 8 6 11 2 2 2 3 2 16l1 13 1 3c0 3 4 10 6 11l2 2a138 138 0 0 0 27 27c7 6 11 9 14 9l3 1a57 57 0 0 0 21 0l7-1c7 0 7 0 10 4l5 4 11 5a83 83 0 0 0 16 7c6 4 11 1 6-3l-2-4-2-3-2-3-3-4c-4-3-7-8-7-11l-1-2c-1-1-2-9-1-11 1-3 2-3 8-3 7-1 8-1 10 1l2 4 4 5 4 5a61 61 0 0 0 16 15 41 41 0 0 0 13 6l5 2c2 2 5 2 8 2 5 0 6-1 6-3s-1-4-7-9a43 43 0 0 1-9-11l-2-3-1-3a38 38 0 0 1-7-13l6-12 5-3 4-3 7-3c5-3 6-3 21-3l15-1h14l2 1 5 2 3 2c2 0 5 2 9 6l7 6c1 0 4 3 4 6l-4 6-4 6-2 4-2 4-3 7a34 34 0 0 0-3 7 29 29 0 0 1-3 7 32 32 0 0 0-3 8l-2 4-2 6-1 2-1 5-2 7-2 6-1 2-1 6c0 6-2 7-5 5l-7-4a27 27 0 0 1-7-5l-2-1a56 56 0 0 1-13-13c-2-3-5-3-6 0l1 3 1 4 3 8a24 24 0 0 1 3 10c0 3 1 4 4 7 4 4 4 5 4 10l-1 7-12 6c-3 0-8 3-11 6l-5 4c-2 0-15-13-15-16l-2-4-2-3-2-3-2-3c0-2-7-7-8-7-3 1-3 14 0 18l2 5 2 5 2 6 1 2 1 3 2 4 2 3 6 8c5 5 7 6 10 6a7 7 0 0 1 5 2l3 2 2 2 2 2 8 3 9 3 5 1 8 1 10 1h4l5-1 3-1c0-2-3-7-5-7s-4-2-4-4c0-1 6-8 8-8 1 0 8-7 9-10l6-5a36 36 0 0 0 8-5l7-5 5-3 6-4 8-5 3-1 3-2 5-2 4-1 7-1 8 1 16 1 16 1 6 1 6 1 8 1 8 1 3 1 6 2c2 2 3 2 5 1 6-1 5-7-1-7-3 0-8-2-10-4 0-1-1-2-3-2-3-1-4-4-1-6 2-3 0-5-5-6l-5-1-4-1-2-1-4-1-5-1a27 27 0 0 0-8-1c-7-1-7-1-7-3v-3h11l13 1 7 1 6 1 6 1 6 1 6 1 6 1 7 1 7 1 5 1 7 1 5 1c3-1 4-1 4-4 0-2 0-3-3-4l-10-2-7-1-4-1-4-1-4-1-6-2-7-2-3-1-3-1c-4 0-8-3-8-6s4-3 5-1l12 1 11 1 5 1 5 1 9 1 9 1c1 2 8 1 9-1 2-2 1-4-2-4l-2-1-4-1-4-1-4-1-4-1-5-1-5-1-5-1-5-1-4-1-4-1-5-1-5-1-4-1-4-1-4-1-4-1-3-1-3-1-3-1c-2 0-4-3-2-5l10-1 10 1 10 1 10 1 8 1 8 1 7 1 7 1 5 1 5 1 5 1 5 1 4 1 4 1 5 1 5 1 4 1 4 1 4 1 4 1 3 1 3 1 3 1 3 1 4 1 4 1 4 1 4 1 3 1 3 1 2 1 6 2c4 2 7 2 11 0 3-2 4-5 1-6-4-1-7-3-9-5a9 9 0 0 0-7-3l-4-1-4-1-4-1-6-1-6-1-4-1-8-2-6-2-6-2-5-2c-4 0-9-3-11-6-1-2-2-2-7-2l-9-2-4-2-8-3a24 24 0 0 0-9-3l-6-2-3-2-3-2-4-2c-3 0-16-6-19-9l-1-4c1-1 4-2 4 0l8 1 8 1 5 1 5 1 4 1 4 1 5 1 5 1 4 1 4 1 3 1 3 1 4 1 4 1 3 1 3 1 4 1 4 1 4 1 5 2 4 2 5 2 5 2 5 2 5 2 5 1c4 3 5 2 6-1 1-2 3-3 5-1l2 1 4 1 3 1c3-1 3-4 0-6l-4-2-4-2-3-1-3-1-3-1-3-1-9-3-8-3-6-2-4-2-12-5-11-5-16-8a71 71 0 0 0-9-5l-9-6-3-1-3-2-2-2-4-3a22 22 0 0 0-5-3c-3-2-3-5 0-6l3 1 4 1 2 1 3 1 5 2 5 2 7 3 8 3 3 1 4 1c3 0 4-1 4-3l-2-4-1-4c1-1 4-2 4 0l3 1 5 2 6 2 2 1 3 1 4 2c3 3 5 2 6 0 2-4 1-6-2-6l-4-2a16 16 0 0 0-10-4c-3 0-6-2-5-5l8-1 8 1 3 1 3 1 4 1 7 2c4 3 10 2 11-1 0-2-1-3-8-6a43 43 0 0 1-10-5 20 20 0 0 0-4-3l-6-4-2-1-5-3-4-3c-2 0-8-3-9-5a5 5 0 0 0-4-1l-3-2-2-4c-2-3 0-5 3-3 3 1 7 1 8-1s1-2-1-4a9 9 0 0 0-4-2l-6-2-5-2-3-1-3-1-3-1-3-1-5-2c-2-1-1-4 1-4l4-1h9l8-1 6-1 11-1 10 1 4 1 4 1 5 1 8 2c5 3 7 2 7-2 0-2 0-3-2-4a17 17 0 0 1-5-3 27 27 0 0 0-4-5c-4-2-4-4-1-6l3-2c0-3-9-10-12-10s-16-7-16-8c0-2-6-8-8-8-2-1-3-3-1-7 2-3 7-5 13-3h9l4 1 5 1 5 1c1 2 8 1 9-1 0-2-2-4-4-4l-6-2-4-2-10-4-9-4-4-2-4-2-7-2-5-2-5-2-5-2-3-1-2-1-6-2-5-2-5-2-6-2-4-1-3-1-3-1-2-1c-3 0-5-2-5-4l4-6 5-6 3-4 3-4 3-4 3-4 2-2a90 90 0 0 1 28-16c3 0 8-4 8-6 0-1-1-2-4-2l-4 1-4 1-5 1h-3c-2-1 0-4 3-5l6-2a18 18 0 0 1 7-2l5-1 4-1 6-1 8-1c7-1 7-1 8-3a7 7 0 0 1 3-4l2-4c-1-2-1-2-5-3l-5 1-4 1-5 1h-4l-17-1-15-1-12-1-12-1-4-1-3 1-6 1-6 1-5 1-5 1-6 1-6 1-9 1-9 1-4 1-4 1-3 1a31 31 0 0 0-8 3c-4 3-6 3-11 3s-6-1-6-3 5-5 10-5c4 0 6-2 4-4l-1-3c1-2 7-5 9-5l3-1 3-1c2 0 3-1 3-3l1-5c2-3-1-6-6-6l-5 1zM209 141l-2 5-2 6c0 3-8 9-11 9l-5 2-8 2c-6 0-6-2 0-9 4-3 6-6 6-7s5-6 7-6l3-2c1-1 2-2 5-2 6-1 7-1 7 2z"/></svg>