<svg xmlns="http://www.w3.org/2000/svg" width="808" height="921" version="1.0" viewBox="0 0 606 691"><path d="M523-17c-31 0-52 38-38 65a87 87 0 0 0 14 20c-17-6-34-16-53-15-28 2-47 33-36 59 9 23 35 32 55 43 47 24 97 45 141 75 6 3 9 7 0 8-24 8-48 16-71 22-13-21-35-35-57-45a44 44 0 0 0-42 4 260 260 0 0 0-31 16c-20-8-38-21-59-24-21 2-38 15-54 27a62 62 0 0 0-19 23c-26-9-52-16-78-26 26-21 57-33 85-48 33-17 66-32 98-51 18-11 29-34 21-55-7-21-33-35-54-26l-38 14c14-15 25-35 18-55-6-24-37-39-60-26-29 17-53 41-80 62-60 52-124 105-161 178L7 266a49 49 0 0 0-9 77 78 78 0 0 0 28 16c-17 7-35 18-38 37a60 60 0 0 0 24 60 461 461 0 0 0 73 135c50 64 111 118 170 174 15 12 28 30 48 30 26 1 50-23 46-49-3-29-27-48-45-68-6-6 9 3 13 4 15 7 30 14 46 19 0 54-1 109 4 163a49 49 0 0 0 41 31c23-1 41-21 42-43 4-52 5-104 7-155l50-22c-16 17-34 34-45 55-9 23 1 52 24 62 17 7 37 1 50-12 52-46 102-94 150-145 46-50 86-108 107-173 3-10 14-14 19-23 12-17 13-43 0-60a80 80 0 0 0-30-20c21-6 42-22 42-45a69 69 0 0 0-27-59c-11-23-21-45-36-65C708 117 637 61 568 5c-13-10-27-23-45-22Zm213 264c6 11 10 22 14 34-3-1-3-9-6-12l-9-23zm-664 0-13 34c-2-3 3-10 4-14 2-7 6-14 10-21l-1 1zm37 4 33 18-35-19h1zm590 0-26 14 28-15-2 1zm-353 13c8 3-5 4-8 6-5 2-8 3-1-1l9-5zm122 3 11 7-21-8c4-3 6-1 10 1zm-80 17v100a249 249 0 0 1-64-77c17-17 41-23 64-23zm31 0c22 1 46 4 62 20 7 4-2 10-4 15a238 238 0 0 1-58 66 3051 3051 0 0 1 0-101zm209 2a161 161 0 0 1-16 5c3-1 19-7 16-5zm-444 1 7 2-7-2zm587 16c4 5-3 6-7 7a774 774 0 0 1-117 24l-43-3c31-2 62-4 92-8l75-21zm-733-1c27 7 52 16 79 22l87 7c-17 0-35 4-53 2-39-7-78-13-115-26 1-1 0-6 2-5zm597 68c30 0 58 11 87 20 16 6 33 11 47 20-2 4-2 14-8 8-25-10-49-21-74-30-35-6-70-12-105-16l53-2zm-459 0 50 2c-36 5-73 10-109 17l-74 31c-1-5-7-11 0-13a602 602 0 0 1 112-37h21zm308 2c2 38 0 76-10 112-11 38-27 76-55 103v-29a106 106 0 0 0 40-116c0-7 6-14 8-21a471 471 0 0 0 17-50v1zm-160 1c6 23 16 45 24 67-1 12-5 25-3 37a103 103 0 0 0 44 81v28c-35-34-51-82-60-128a367 367 0 0 1-5-87zm285 47a643 643 0 0 1 86 58c-3 8-9-3-13-4-23-18-47-38-75-49a2897 2897 0 0 0-29-13l31 8zm-385-6c-19 10-40 18-58 29a6076 6076 0 0 1-51 39c-5-5 4-8 7-11 26-19 52-37 80-52l28-7-6 2zm520 26c3 2-2 9-2 13a205 205 0 0 1-18 40l20-53zm-679 2 19 51c-9-17-16-35-22-53 2-1 2 1 3 2z" style="fill:red;stroke-width:1.37512" transform="scale(.75)"/><path d="M469 691c-4 0-7 3-9 6-3 3-4 7-3 11a10 10 0 0 0 10 8c3 0 6-2 9-5 2-3 4-6 4-10 0-5-4-9-8-10h-3zm-126 4c-11 0-14 15-6 21 4 6 7 18 17 15 10-4 8-17 6-25-2-7-10-11-17-11zM523-26c-24 0-45 20-50 42a66 66 0 0 0 2 33c-18-7-39-8-55 4-7 5-12 13-16 18-12-22-39-34-62-25-4 0-14 7-9 0a52 52 0 0 0-32-68 47 47 0 0 0-44 4c-36 24-68 54-102 82A532 532 0 0 0 8 240c-4 9-7 21-16 27-24 23-23 66 4 86 2 3 13 5 7 8a50 50 0 0 0-25 42c-2 22 9 43 25 58 7 11 10 25 16 37a493 493 0 0 0 84 128c48 55 102 105 156 154 14 13 31 27 51 24a57 57 0 0 0 43-32c2 33 1 66 6 98a59 59 0 0 0 47 34 54 54 0 0 0 53-51c3-22 3-45 4-68 17 22 50 24 71 7 57-47 108-99 159-152 43-47 81-101 104-162a54 54 0 0 1 16-27c20-21 25-57 4-79-3-5-10-9-13-13a57 57 0 0 0 29-53c-1-22-12-41-26-56-15-24-26-50-44-72C710 109 642 53 575-1c-16-11-32-26-52-25ZM404 121c15 25 45 35 69 48 40 21 82 39 120 63a747 747 0 0 1-54 17c-17-20-40-38-66-45-13-2-27-3-38 6l-31 14c-21-8-41-24-65-21-25 6-47 21-64 39-4 3-5 11-11 6l-49-16c42-25 87-45 130-68 21-12 47-20 59-43zm-64 144c8 14-4 2 0 0zm-154 31c-6-7 6-20 1-6l-1 6zm436-11c5 22-11-9 0 0zm-243 49v29a229 229 0 0 1-43-54 81 81 0 0 1 43-15v40zm51-39c15 1 30 4 42 14a246 246 0 0 1-44 55v-70h1zm-91 146c-1 11-2 13-3 1a178 178 0 0 1-2-14l5 13zm135-12-3 23c-1-7-3-15 2-21l1-2zm-4 273c-9 12 1-6 0 0zm-130 0c5 4 15 3 13 11-1 5 1 18-3 7a83 83 0 0 0-12-19l2 1z" style="fill:#fff;stroke-width:.171891" transform="scale(.75)"/><path d="m160 61-50 43-22 24c-21 22-22 24-34 43a128 128 0 0 0-16 33 109 109 0 0 0-4 12l8 1 7 1 9-23 9-22 18-23 18-24 52-47 55-50c3-3 5-11 3-11l-53 43zm233-39c0 3 1 6 3 7l55 50 53 48 18 23 18 23 8 22 9 23 7-1 8-1-4-12a204 204 0 0 0-50-76l-21-24-51-43a1173 1173 0 0 0-53-43l-1 4zM218 91c-43 19-50 23-70 35a181 181 0 0 0-36 25 125 125 0 0 0-19 20l-6 8 10 5 14-15 12-16 19-13c18-12 19-13 72-38 50-23 54-26 55-29 2-3 2-3 0-3l-51 21zm119-18c1 3 5 6 55 29 53 25 54 26 72 38l19 13 12 16 14 15 10-5-5-8c-4-5-10-12-20-20a182 182 0 0 0-37-26c-22-12-27-15-71-34a1072 1072 0 0 0-49-21c-2 0-2 0 0 3z"/><path d="M75 183a24 24 0 0 0-4 6c0 3 34 21 58 30l17 7 36 6c36 6 37 6 39 5l2-3-12-3-50-15-37-13-19-10a921 921 0 0 0-23-13l-4-2-3 5zm430 8-22 12-38 12a833 833 0 0 1-50 16 65 65 0 0 0-12 3l2 3c2 1 3 1 39-5l37-6 16-7c24-9 58-27 58-30a48 48 0 0 0-7-10 183 183 0 0 0-23 12zm-252 3a72 72 0 0 0-11 6 86 86 0 0 1-6 5c-4 3-4 7 1 9 3 2 4 2 6 1a63 63 0 0 1 22-9l16-4 4-1-8-3a46 46 0 0 1-17-8l-7 4zm88-1a45 45 0 0 1-12 5l-7 3 4 1 15 4c10 3 16 5 22 9 2 1 3 1 6-1 5-2 5-6 2-9a104 104 0 0 0-25-15l-5 3zm-65 14a63 63 0 0 0-37 17l-4 5 2 4c2 6 13 23 21 32a137 137 0 0 0 36 33l5 2v-93h-23zm33 0h-2v47l1 46 4-2c10-5 25-19 36-33a235 235 0 0 0 22-32l1-4-6-6a58 58 0 0 0-26-14c-7-2-25-3-30-2zM21 225l-3 9c-1 3 38 13 75 19l25 5 46-4 47-3 1-4 2-4a667 667 0 0 1-77-3l-50-4-31-9-32-9a23 23 0 0 0-3 7zm529 2-30 9-51 4a667 667 0 0 1-77 3l2 4 1 4 47 3 47 4 25-4c36-7 75-17 74-20l-3-9-4-7-31 9zm-313 37a320 320 0 0 0-1 55c4 48 20 90 43 118a93 93 0 0 0 19 17l1-20v-20l-4-1a65 65 0 0 1-18-19 73 73 0 0 1-9-59c2-5 2-6 0-9a269 269 0 0 1-18-50 34 34 0 0 0-7-16 40 40 0 0 0-4-5l-2 9zm126-4a35 35 0 0 0-6 16 269 269 0 0 1-19 50c-2 3-1 4 0 9 6 18 2 42-9 59-5 7-13 16-18 18l-4 3v19l1 20 7-5c33-27 56-90 56-151 0-12-1-31-3-39l-1-5-4 6zM92 276c-30 8-67 23-70 28a65 65 0 0 0 6 20l32-13 30-13 46-7c37-6 47-7 62-8h18l-2-4-2-4-91-5-29 6zm342-4-40 2a18 18 0 0 0-2 5l-2 4h18c15 1 25 2 63 8l45 7 30 13 32 13a65 65 0 0 0 7-20c-4-5-42-20-73-28-27-7-19-6-78-4zm-251 27-36 10-19 11a349 349 0 0 0-49 35l-3 3 4 6 5 7 23-18 23-17 31-15a880 880 0 0 1 62-27l-1-3-3-3-37 11zm200-8-2 3 3 1a749 749 0 0 1 61 27l31 14 22 17a746 746 0 0 0 23 18l5-7 4-6-3-3a349 349 0 0 0-49-35l-18-11-31-8-37-11-7-2-2 3z"/><path d="M45 323a63 63 0 0 0-7 2l5 17c4 14 7 18 18 40l14 24 24 30 25 30 52 50a1503 1503 0 0 0 55 48l-2-6c0-3-8-12-59-64l-59-60-18-26-19-27-11-29-11-30-7 1zm509-1-12 30-10 29-19 27-19 26-58 60c-51 52-59 61-60 64l-1 6c0 2 0 2 2 1l53-50 52-49 25-30 25-30 13-24a184 184 0 0 0 23-57c-1-1-14-4-15-3zM98 365a20 20 0 0 0-5 4l6 11a155 155 0 0 0 22 25c15 14 16 15 40 31 24 15 26 16 71 38a876 876 0 0 0 49 22c2 0 2 0 1-2l-1-4-54-29-54-28-21-16-22-17-12-17a717 717 0 0 0-13-19l-2-2-5 3zm391 16-13 19-22 17-21 16-54 28a1186 1186 0 0 0-54 29l-1 4c-1 2-1 2 1 2a876 876 0 0 0 120-60c24-16 25-17 40-31a155 155 0 0 0 22-25 96 96 0 0 0 6-11l-2-2-5-3-3-2-14 19zm-191 87-4 2 1 11 2 69a4036 4036 0 0 0 3 91l2 32V465l-4 3zm6 101v104l2-32c1-17 3-58 3-90l2-70 1-11-4-2-4-3v104z"/></svg>