<svg xmlns="http://www.w3.org/2000/svg" width="808" height="921.333" version="1.0" viewBox="0 0 606 691"><path d="M523.12-17.186c-31.035.451-52.413 38.253-38.213 65.466 3.6 7.394 8.844 13.824 14.332 19.888-17.367-6.145-34.565-16.495-53.504-15.61-27.442 1.9-47.094 33.659-36.022 58.977 9.409 23.314 35.228 32.309 55.534 43.674 47.208 24.19 96.858 44.45 140.623 74.783 5.717 3.225 8.853 6.941-.095 7.969-23.491 7.706-47.716 16.094-70.915 22.077-12.697-21.047-34.392-35.531-56.59-45.127-13.761-6.307-29.808-3.978-42.242 4.18-10.449 4.698-21.26 9.582-30.816 15.542-19.938-7.135-37.796-21.112-59.192-23.592-20.6 1.669-37.911 15.212-54.16 26.85-7.714 6.103-14.38 13.726-18.467 22.735-26.073-8.192-52.286-15.985-78.02-25.214 25.199-21.166 56.332-33.317 84.987-48.915 32.513-16.907 66.123-31.91 97.645-50.612 17.983-10.99 29.313-34.184 20.92-54.608-7.223-21.309-32.53-35.43-54.074-26.686-12.706 3.9-25.044 8.888-37.332 13.926 13.441-14.142 24.788-34.325 17.756-54.223-6.7-24.722-37.566-39.407-60.372-26.477C235.974 5.042 211.618 28.8 185.41 49.738 124.771 101.757 61.27 155.18 24.21 227.508c-6.524 12.498-11.774 25.994-17.167 38.753-26.527 14.81-31.609 55.723-9.365 76.467 7.862 7.55 17.962 12.207 28.104 15.854-16.369 7.58-34.943 18.173-37.845 37.83-4.607 22.636 5.714 46.907 24.575 60 17.087 47.984 40.521 94.349 72.535 134.293C134.962 655.04 196.064 709.35 255.11 765.007c14.583 11.61 27.924 29.462 48.094 30.28 25.618.614 49.453-23.298 45.962-49.33-3.127-28.797-27.464-48.116-45.455-68.359-6.147-6.057 9.289 3.431 13.273 4.587 14.975 6.776 29.918 13.776 45.581 18.844.358 54.318-.454 108.798 3.9 162.968 5.845 17.46 23.89 29.44 41.724 30.932 22.64-.688 41.088-21.034 42.209-43.176 4.151-51.542 4.197-103.58 6.497-155.067 16.898-6.984 33.79-14.003 50.294-21.892-15.773 17.7-34.425 33.795-45.457 55.083-8.563 22.823 1.048 52.293 24.522 61.746 17.022 7.486 36.899.928 49.462-11.882 52.312-45.605 102.214-94.024 149.936-144.405 46.07-50.616 86.408-108.042 107.743-173.665 2.681-9.989 13.84-13.756 18.205-22.928 12.153-16.994 13.654-42.544.76-59.518-7.714-9.672-18.905-15.622-29.915-20.763 20.409-5.335 41.063-21.656 41.308-44.35 2.316-22.789-8.92-45.454-26.595-59.402-10.749-22.273-21.357-44.856-36.145-64.873C708.362 117.024 636.825 61.17 567.8 4.818c-13.194-9.923-26.99-22.665-44.678-22.004Zm212.87 264.314c6.335 10.44 10.291 22.055 14.448 33.473-3.647-1.145-3.772-8.285-6.047-11.604-3.041-7.676-6.055-15.361-9.08-23.043zm-663.883.292c-4.443 11.158-8.66 22.407-13.343 33.468-1.845-2.9 2.729-9.661 3.813-14.095 2.716-7.197 6.122-14.109 10.067-20.71l-.513 1.276zm36.98 3.191c10.902 5.847 23.533 12.908 33.24 18.271-12.041-5.956-24.284-11.961-35.402-19.402l1.219.638zm590.143.502c-8.613 5.142-17.61 9.6-26.583 14.071 9.233-5.105 18.49-10.173 27.921-14.906l-1.166.728zm-352.864 13.032c7.795 3.182-5.7 3.588-8.038 5.698-5.637 2.256-8.51 3.295-1.693-.55 3.162-1.807 6.393-3.83 9.731-5.148zm121.21 2.841c3.603 1.92 8.677 5.046 11.116 6.825-6.51-3.187-13.421-5.455-20.307-7.673 3.4-3.285 5.846-1.003 9.19.848zm-79.298 17.219c.859 32.522.355 66.68.059 99.841-26.447-20.67-48.262-47.34-64.322-76.762 16.47-17.524 41.07-22.987 64.263-23.08zm30.3.234c22.107.665 46.036 3.738 62.583 20.01 6.313 3.543-2.423 9.593-3.847 14.142-15.442 25.244-34.82 48.247-58.483 66.156-.573-33.347-.798-67.406-.252-100.308zm209.323 1.294a160.931 160.931 0 0 1-15.765 5.033c3.077-.928 18.94-6.31 15.765-5.033zm-443.81 1.429c3.54 1.2 15.863 5.136 6.4 2.275-2.08-.644-5.288-1.818-6.4-2.275zm587.003 15.588c4.115 5.707-2.693 6.074-6.879 7.415-38.56 10.665-77.342 19.272-117.067 23.89-14.49-.955-28.936-2.157-43.473-3.281 30.92-2.19 62-3.819 92.751-7.307 24.766-7.255 49.433-14.859 74.332-21.649zm-732.729-.5c26.169 6.717 51.844 16.184 78.32 22.022 29.235 2.217 58.452 4.701 87.718 6.488-17.71.613-35.527 3.994-53.202 2.674-39.3-7.121-77.884-13.287-115.45-26.102 1.102-.901.622-5.846 2.614-5.081zm596.347 67.793c30.025-.514 58.495 10.854 86.762 19.523 16.038 5.903 33.364 11.537 47.498 20.417-1.999 3.675-1.641 13.585-7.76 8.263-24.795-10.063-49.13-21.62-74.263-30.624-35.115-5.373-70.165-11.23-105.407-15.726 17.763-.733 35.613-1.705 53.17-1.853zm-458.945.282c16.487.23 33.728.874 49.93 1.627-36.193 5.042-72.393 10.404-108.383 16.574-25 10.504-49.696 21.246-74.805 31.325-.768-4.459-6.654-11.2.1-12.78 35.615-16.411 73.685-27.84 111.873-36.98l21.285.234zm308.393 1.942c1.494 37.27-.065 75.89-10.654 112.008-10.65 37.662-26.402 75.255-54.984 103.04-.073-9.707-.738-20.042.213-29.331 36.449-24.715 53.303-73.853 40.516-115.922-.651-7.375 6-13.956 7.814-21.274 6.62-16.292 12.274-32.973 17.031-49.902l.064 1.374zm-159.774.222c5.941 23.097 15.395 45.073 24.102 67.15-1.684 12.388-4.999 24.876-3.575 37.608 1.392 31.454 17.455 62.652 43.768 80.369-.005 9.355.011 18.71-.014 28.066-34.594-33.827-51.151-81.487-60.212-127.985-5.713-28.802-5.54-57.486-4.43-86.435zm284.164 47.555c29.955 17.704 59.426 35.494 86.249 57.777-2.477 8.018-8.376-2.433-12.649-4.1-23.543-18.196-46.723-37.684-74.836-48.527-9.82-4.587-19.652-9.152-29.524-13.629l30.76 8.48zm-384.492-5.643c-19.393 9.649-40.064 17.206-58.44 28.589-16.764 12.89-33.447 25.854-50.222 38.54-5.419-4.696 3.96-7.572 6.674-10.95 25.4-19.064 52.24-36.773 80.373-51.289l27.54-7.597-5.925 2.707zm520.205 25.408c2.423 2.707-2.02 9.153-2.54 13.294-4.118 14.112-10.659 27.522-17.603 40.242 6.7-17.796 12.991-36.355 20.143-53.536zm-679.467 2.527c6.416 16.49 12.577 33.632 18.894 50.469-8.796-16.791-16.084-34.412-21.558-52.561 2.163-1.134 1.886.332 2.664 2.092z" style="fill:red;stroke-width:1.37512" transform="scale(.75)"/><path d="M469.4 690.858c-4.16.086-7.72 2.898-9.778 6.36-2.137 3.174-4.09 7.017-3.066 10.943.924 4.542 5.359 7.97 9.981 7.81 3.635-.01 6.782-2.254 8.978-4.995 2.442-2.64 4.525-5.95 4.369-9.682.114-4.765-3.429-9.396-8.18-10.203-.753-.214-1.528-.208-2.304-.233zm-126.571 4.138c-10.724.154-13.89 15.027-5.562 20.805 3.619 6.724 7.178 18.679 17.037 14.938 9.502-3.576 8.145-16.887 6.058-25.053-2.688-6.864-10.427-10.813-17.533-10.69zM522.755-26.028c-23.552.084-44.315 19.669-49.62 41.917-1.715 10.877-2.116 22.486 1.792 32.955-17.679-7.193-39.293-8.095-54.949 4.305-6.484 4.455-12.043 12.346-16.13 17.584-11.631-21.46-38.844-33.9-62.23-24.78-3.648.26-13.226 6.642-8.753-.418 11.267-26.338-4.456-59.22-31.483-67.994-14.373-5.53-31.086-4.717-43.875 4.38C220.87 5.6 188.84 35.588 155.523 63.574 98.086 114.183 39.455 168.19 8.246 239.683c-4.591 9.552-6.882 21.09-16.581 26.992-23.319 22.826-22.962 66.324 4.2 86.12 1.916 3.246 13.194 5.557 7.327 8.395-14.846 8.874-25.374 24.658-25.322 42.259-1.777 21.877 9.34 42.548 24.836 57.266 7.575 11.363 10.153 25.38 16.697 37.405 20.805 46.906 49.231 90.166 83.417 128.398 48.492 54.651 102.088 104.517 155.992 153.737 14.207 12.563 31.133 27.048 51.605 23.478 18.447-2.245 34.928-14.783 43.101-31.316 1.356 32.409.107 65.223 5.557 97.282 7.605 18.699 27.217 31.751 46.975 34.02 27.172.719 51.71-23.34 53.05-50.274 2.707-22.578 3.08-45.352 4.084-68.048 16.59 21.603 50.35 23.982 71.045 7.002 56.384-46.928 108.005-99.297 158.902-152.042 43.37-47.627 81.334-101.557 104.26-162.103 2.565-10.589 8.176-19.771 16.151-27.149 19.215-21.112 24.16-57.015 3.925-79.166-3.665-4.935-10.475-9.195-13.773-12.736 19.09-10.418 31.222-31.699 29.469-53.498-.639-21.315-12.063-40.32-26.195-55.537-15.053-23.713-25.739-50.152-43.461-72.216-52.923-69.271-121.236-124.584-188.68-179-15.4-11.29-31.675-25.92-52.072-24.98Zm-118.462 147.06c14.976 25.217 44.65 34.591 68.918 48.106 40.011 20.754 81.638 38.745 119.649 63.13-17.955 6.39-35.907 12.165-54.038 17.054-17.232-20.86-39.944-38.086-66.114-45.685-12.983-1.416-26.934-2.305-38.082 5.841-10.148 5.024-20.2 10.288-30.714 14.517-21.06-7.791-41.03-23.706-64.548-21.285-24.85 5.88-46.91 21.23-64.494 39.387-3.536 3.268-5.128 10.513-10.978 5.863-16.284-5.23-32.596-10.374-48.848-15.701 41.919-24.91 86.481-45.123 129.64-67.996 20.943-12.3 47.307-20.756 59.494-43.435zm-63.962 144.133c7.685 14.017-4.864 1.503 0 0zm-154.79 30.685c-5.422-6.965 6.262-20.257 1.077-5.626l-1.077 5.626zm436.755-10.737c4.481 22.294-11.063-9.267 0 0zM379.055 333.69c-.01 9.764-.037 19.528-.186 29.29-16.507-15.885-32.064-34.12-42.846-53.954 12.136-9.65 27.863-13.492 43.032-14.914v39.578zm51.215-39.183c14.763 1.673 30.239 4.845 41.941 14.616-12.207 20.21-26.46 39.027-44.05 55.104-.378-23.315-.179-46.634-.23-69.951l1.368.135zm-91.3 146.222c-1.065 10.87-2.367 13.192-3.427 1.55-.642-4.73-1.285-9.468-1.545-14.238l4.971 12.688zm134.754-11.288c-.658 6.69-1.69 17.14-2.958 22.356-1.065-6.89-2.772-14.334 1.913-20.377.163.089 1.345-3.93 1.045-1.98zm-3.782 272.728c-8.864 11.483.976-6.43 0 0zm-129.818.113c4.588 3.264 14.94 2.257 12.331 10.369-.174 5.3 1.555 17.968-2.294 7.275-3.355-6.77-7.571-13.117-12.626-18.74l2.59 1.096z" style="fill:#fff;stroke-width:.171891" transform="scale(.75)"/><path d="m160.3 61-50.8 42.9L88 127.6c-20.8 22.9-21.9 24.3-33.8 43.8-10.7 17.5-12.7 21.7-16.3 32.5-2.2 6.8-3.9 12.4-3.7 12.6.2.1 3.5.5 7.5.9l7.1.7 8.9-22.6 8.8-22.6 18-23.2 18-23.2L155.3 79c28.9-26.1 53.8-48.6 55.1-50 3-3.1 4.6-11 2.2-11-.8 0-24.4 19.3-52.3 43zM392.5 22.2c.4 2.5 1.7 5.4 3.1 6.8 1.3 1.4 26.2 23.9 55.1 50l52.8 47.5 18 23.2 18 23.2 8.8 22.6 8.9 22.6 7.1-.7c4-.4 7.3-.8 7.5-.9.2-.2-1.5-5.8-3.7-12.6-3.6-10.8-5.6-15-16.3-32.5-11.9-19.5-13-20.9-33.8-43.8l-21.5-23.7L445.7 61c-27.9-23.7-51.5-43-52.3-43-1.3 0-1.4.8-.9 4.2zM218.4 91.4c-43.2 19-50.3 22.4-70.5 34.3-19.6 11.6-24.1 14.7-36.1 25.3-9.4 8.2-15.5 14.5-19.3 19.8-3 4.2-5.5 7.9-5.5 8.3 0 .7 8.8 4.9 10.3 4.8.6 0 6.7-6.9 13.4-15.3l12.1-15.3 18.9-13c18.6-12.8 19.4-13.2 72.5-38.3 49.4-23.4 53.8-25.7 55.2-28.7 1.5-3.2 1.5-3.3-.7-3.2-1.2.1-23.8 9.6-50.3 21.3zM336.6 73.3c1.4 3 5.8 5.3 55.2 28.7 53.1 25.1 53.9 25.5 72.5 38.3l18.9 13 12.1 15.3c6.7 8.4 12.8 15.3 13.4 15.3 1.5.1 10.3-4.1 10.3-4.8 0-.4-2.5-4.1-5.5-8.3-3.8-5.3-9.9-11.6-19.2-19.8-12.2-10.7-16.4-13.6-37.3-25.8-21.6-12.7-27.4-15.5-71-34.5C359.8 79.3 337.7 70 336.7 70c-1.5 0-1.5.3-.1 3.3z"/><path d="M74.7 183c-2.1 2.7-3.7 5.4-3.7 5.9 0 3.1 34.2 21 58 30.4l16.5 6.5 36.7 6.3c35.7 6 36.8 6.2 38.8 4.4 1.1-1 2-2.1 2-2.5 0-.4-5.5-1.9-12.2-3.5-6.8-1.5-29.2-8.3-49.8-15l-37.5-12.3-19-10.7C94.1 186.6 83.9 181 81.9 180l-3.6-1.9-3.6 4.9zM505 190.6l-22.5 12.5-37.5 12.3c-20.6 6.8-43 13.6-49.7 15.1-6.8 1.6-12.3 3.1-12.3 3.5 0 .4.9 1.5 2 2.5 2 1.8 3.1 1.6 38.8-4.4l36.7-6.3 16.5-6.5c24.1-9.5 58-27.3 58-30.5 0-.8-3.4-5.7-7-10-.3-.4-10.7 4.9-23 11.8zM252.5 193.7c-3.8 1.9-8.6 5-10.7 6.7-2 1.7-4.8 3.9-6.3 4.9-3.8 2.7-3.1 6.3 1.7 9.1 3.1 1.7 4.1 1.9 5.5.9 6.4-4.4 12.2-6.8 22.3-9.4 6.3-1.7 13.3-3.5 15.5-4.1l4-1-7.8-2.3c-4.3-1.2-9.7-3.6-12.2-5.4-2.4-1.7-4.5-3.1-4.7-3.1-.1.1-3.4 1.7-7.3 3.7zM341.3 193.2c-2.3 1.7-7.7 4.1-12 5.3l-7.8 2.3 4 1c2.2.6 9.2 2.4 15.5 4.1 10.1 2.6 15.9 5 22.3 9.4 1.4 1 2.4.8 5.5-.9 4.8-2.8 5.5-6.4 1.7-9.1-1.5-1-4.3-3.2-6.3-4.9-2.9-2.5-17.2-10.5-18.4-10.4-.2.1-2.2 1.5-4.5 3.2zM276.1 207.1c-14.7 1.9-27.8 8-36.7 17l-4.7 4.8 1.9 4.3c2.6 5.8 13.7 22.6 21.1 31.9 11.5 14.4 26.2 27.7 36 32.8 2.3 1.1 4.5 2.1 4.8 2.1.3 0 .5-20.9.5-46.4v-46.4l-3.1-.6c-4-.8-11.5-.6-19.8.5zM309.3 206.6l-2.3.5v46.5c0 25.5.2 46.4.5 46.4s2.5-1 4.8-2.1c9.8-5.1 24.5-18.4 36-32.8 7.5-9.4 18.5-26.1 21.2-32l1.9-4.4-6-5.6c-7.3-6.9-15.9-11.5-25.9-14.1-7.5-1.9-25.8-3.3-30.2-2.4zM21.1 225.2c-1.3 4-2.5 7.8-2.8 8.4-1.2 3.2 37.5 13.6 74.2 19.9l25 4.3 46.6-3.6 46.7-3.6 1.6-3.3c.9-1.9 1.6-3.6 1.6-4 0-.3-5.8-.3-12.9 0-9.8.4-24.9-.4-63.7-3.3l-50.9-3.8-30.8-9.1c-16.9-5-31.1-9.1-31.6-9.1-.4 0-1.8 3.3-3 7.2zM549.5 227.2l-30 9-50.9 3.8c-38.8 2.9-53.9 3.7-63.7 3.3-7.1-.3-12.9-.3-12.9 0 0 .4.7 2.1 1.6 4l1.6 3.3 46.7 3.6 46.6 3.6 25-4.3c36.7-6.3 75.4-16.7 74.2-19.9-.3-.6-1.5-4.4-2.8-8.4-1.6-5-2.8-7.2-3.8-7.1-.9.1-15.1 4.2-31.6 9.1zM237.1 263.7c-1.9 13.9-2.5 41.5-1.2 55.3 4.4 48.2 19.6 89.6 43.2 117.9 5.1 6.1 17.4 17.1 19.1 17.1.4 0 .8-8.9.8-19.8v-19.7l-3.6-2c-5.2-2.8-13.7-11.3-18.2-18.3-11.3-17.5-15.1-40.8-9.4-58.8 1.7-5.6 1.8-6.4.4-9-6.3-11.9-15.1-35.7-18.7-50.8-1.9-7.9-3.2-10.9-6.5-15.2-2.2-3-4.2-5.4-4.4-5.4-.2 0-.9 3.9-1.5 8.7zM363.2 260.1c-3.5 4.6-4.7 7.5-6.7 15.5-3.6 15.1-12.4 38.9-18.7 50.8-1.4 2.6-1.3 3.4.4 9 5.7 18 1.9 41.3-9.4 58.8-4.5 7-13 15.5-18.2 18.3l-3.6 2v19.7c0 10.9.4 19.8.8 19.8s3.7-2.4 7.3-5.3C348 421.5 371 359.4 371 297.5c0-11.6-1.4-30.2-2.8-38.8l-.8-4.2-4.2 5.6zM92 276.4c-30.4 8.1-67.4 22.6-70.5 27.7-.8 1.2 5.6 19.9 6.8 19.9.4 0 14.6-5.9 31.5-13.1l30.7-13.1 45-6.9c37.8-5.9 47.8-7.1 62.7-7.6l17.7-.6-1.5-3.6c-.8-2-1.9-4-2.4-4.5-.9-.9-76.6-4.5-91-4.4-3.5 0-14.1 2.3-29 6.2zM434.3 271.9c-21.7.9-39.7 2.1-40.2 2.6-.6.6-1.7 2.6-2.5 4.6l-1.5 3.6 17.7.6c14.9.5 24.9 1.7 62.7 7.6l45 6.9 30.7 13.1c16.9 7.2 31.1 13.1 31.5 13.1 1.2 0 7.6-18.7 6.8-19.9-3.1-5.2-42-20.2-72.2-28.1-26.8-6.9-19.5-6.5-78-4.1zM183.4 298.6l-36.9 10.2-18.6 11c-17.5 10.3-43.1 28.5-49.2 34.9l-2.7 2.9 4.2 6.7c2.4 3.7 4.5 6.7 4.8 6.7.3 0 10.6-7.9 23-17.5l22.5-17.4 31.5-14.9c17.3-8.2 38.3-17.6 46.5-20.7 8.3-3.2 15.3-6.1 15.7-6.4.4-.3-.4-1.8-1.6-3.2l-2.3-2.6-36.9 10.3zM383.2 291.1l-2.3 2.9 2.8 1.1c19.6 7.4 35.8 14.4 61.3 26.5l30.5 14.5 22.5 17.4c12.4 9.6 22.7 17.5 23 17.5.3 0 2.4-3 4.8-6.7l4.2-6.7-2.7-2.9c-6.1-6.4-31.7-24.6-49.2-34.9l-18.5-11-30.1-8.3c-16.5-4.6-33.1-9.2-37-10.3l-7-1.9-2.3 2.8z"/><path d="M45 323.2c-3.6 1.1-6.6 2.1-6.8 2.3-.2.2 1.9 7.4 4.7 16.2 4.5 14 6.6 18.5 18.3 40l13.3 24.2 24.7 30.3 24.8 30.3 51.5 49c28.3 26.9 52.4 49.3 53.6 49.7 1.8.7 2 .5 1.6-1.4-.3-1.3-.9-4-1.2-6-.6-3.2-8.3-11.5-59.4-63.5l-58.6-59.9-18.7-26.9-18.6-27-10.7-29c-5.8-16-10.9-29.3-11.3-29.6-.4-.3-3.6.3-7.2 1.3zM553.5 322c-.2.4-5.2 13.7-11.1 29.6l-10.6 28.9-18.6 27-18.7 26.9-58.6 59.9c-51.1 52-58.8 60.3-59.4 63.5-.3 2-.9 4.7-1.2 6-.4 1.9-.2 2.1 1.6 1.4 1.2-.4 25.3-22.8 53.6-49.7l51.5-49 24.8-30.3 24.7-30.3 13.3-24.2c11.7-21.5 13.8-26 18.3-40 2.8-8.8 4.9-16 4.7-16.2-1.1-1-13.9-4.2-14.3-3.5zM98.2 365.4c-2.8 1.7-5.2 3.4-5.2 3.8 0 .4 2.9 5.1 6.4 10.5 4.8 7.3 10.3 13.6 21.7 25 14.8 14.5 16.4 15.8 39.9 31.1 23.8 15.5 25.8 16.6 71.1 38.1C257.8 486 279.8 496 281 496c1.8 0 2-.4 1.4-2.3-.3-1.2-1-2.8-1.4-3.6-.4-.7-24.8-13.8-54.2-29l-53.4-27.7-21.6-16.7-21.7-16.7-11.7-16.8c-6.4-9.2-12.5-17.7-13.4-18.8l-1.6-2.2-5.2 3.2zM489.2 381l-13.3 19-21.7 16.7-21.6 16.7-53.4 27.7c-29.4 15.2-53.8 28.3-54.2 29-.4.8-1.1 2.4-1.4 3.6-.6 1.9-.4 2.3 1.4 2.3 1.2 0 23.2-10 48.9-22.1 45.3-21.5 47.3-22.6 71.1-38.1 23.5-15.3 25.1-16.6 39.9-31.1 11.4-11.4 16.9-17.7 21.7-25 3.5-5.4 6.4-10.1 6.4-10.6 0-.4-1-1.3-2.2-1.9-1.3-.6-3.7-2-5.3-3.1l-3-2-13.3 18.9zM297.8 467.7l-3.7 2.5.5 10.7c.2 5.8 1.1 37.1 2 69.6.9 32.4 2.4 73.2 3.4 90.5l1.7 31.5.2-103.8c0-57 0-103.7-.1-103.6-.2 0-2 1.2-4 2.6zM304.1 568.7l.2 103.8L306 641c1-17.3 2.5-58.1 3.4-90.5.9-32.5 1.8-63.8 2-69.6l.5-10.7-3.9-2.6-4-2.6.1 103.7z"/></svg>