<svg xmlns="http://www.w3.org/2000/svg" width="400" height="200" version="1.0" viewBox="0 0 300 150"><path d="M243.838 11.475c-7.543-.173-11.515 7.733-16.55 12.084-7.22 7.526-14.92 14.567-22.661 21.548-5.582-.47-11.015-1.345-15.368-5.164-2.832-1.94-1.02-6.965-4.144-9.26-3.651-3.906-10.278-4.303-14.85-1.999-10.786 10.602-20.925 22.005-33.496 30.61-4.976 4.241-11.43 7.36-18.047 5.395-4.624-.446-9.41-.525-13.298 2.452-4.94 3.026-11.258 4.12-16.443 1.065-8.722-1.414-15.65 5.272-22.004 10.048-6.235 3.81-14.364-.48-20.616 3.852-13.716 6.433-25.85 17.6-31.45 31.822-1.307 6.134 3.133 11.537 8.646 13.538 8.644 5.014 12.03 18.58 3.869 25.534-3.366 4.507-7.15 9.558-5.729 15.552.954 6.936 8.919 10.118 14.996 7.61 6.19-2.37 9.573-8.882 14.231-12.91 5.325-1.617 12.195-3.742 16.526.954 6.305 3.53 13.763-.455 18.13-5.311 5.988-5.274 13.7-1.077 20.586-1.214 16.092.074 31.78 5.842 44.375 15.794 6.13 3.849 10.825 10.283 17.81 12.55 7.758 1.477 12.649-5.548 17.995-9.761 10.663-10.073 23.13-18.46 37.39-22.41 5.897-2.157 12.975-5.813 18.715-1.13 6.892 5.713 16.642 5.674 25.129 6.63 10.505.034 22 1.515 31.532-3.831 4.42-2.535 6.37-7.27 9.269-11.094 5.146-5.437 12.618-1.702 18.964-2.562 12.777-.393 25.806.792 38.196-3.123 5.814-1.79 14.202-3.21 15.997-10.047 1.342-14.882-6.375-28.821-14.553-40.662-2.406-3.642-6.882-5.26-7.152-10.092-1.3-3.7-1.236-8.946 1.397-11.913 8.675-9.837 18.721-18.197 25.234-29.72 3.16-6.043-.956-13.97-7.799-14.556-7.926-1.455-13.4 6.08-18.87 10.475-16.524 16.524-36.148 29.305-54.667 43.381-6.328 4.435-12.047 13.487-20.958 10.626-8.189-2.052-10.323-13.764-3.58-18.72 5.201-3.329 10.767-8.59 9.426-15.42-.497-5.224-4.991-8.415-9.726-9.552-5.63-2.096-7.951-8.195-7.711-13.785-1.067-5.764-6.704-8.789-12.083-9.26-6.495-1.441-9.366-9.313-16.658-8.024z" style="fill:#fff;stroke-width:.722022" transform="scale(.75)"/><path d="M199.2 9.6c-.6 9.8-3.6 13.7-28.8 37.4-10.5 9.9-11.3 11.6-12.1 26.8l-.6 10.2-2.2-2.5c-2.9-3-6.6-4-9.4-2.5-1.6.8-3.3.7-7.3-.5-6.8-2-7.5-1.9-8.4.7-.3 1.3-1.2 3-1.9 3.8-1.3 1.6-.6 13.2.9 14.7 1.2 1.3 3.6-2.8 3.6-6.2 0-4.1 2.2-7 4.5-6.2 1.4.6 1.5 1 .5 2.2-1.1 1.3-1 1.4.2 1 .8-.3 2.5.6 3.8 2 3 3.2 4.6 3.2 5.4 0 .5-1.9 1.5-2.5 4.4-3 2-.3 4.5-1 5.5-1.6 2.4-1.3 3.4-.5 4.1 3.5 1.1 5.9 13.8 15.9 26.1 20.6 4.5 1.7 8.8 2.4 17.1 2.8 15.5.6 18.4-1.1 27-16 5.1-8.7 7.4-11.2 7.4-8 0 1.2-.5 2.4-1 2.7-1.1.7-.3 5.4 1.1 7 .5.5 2.7 1.1 4.9 1.2 3.2.2 4.6-.3 7.5-2.8 2.3-2.1 3.5-2.6 3.5-1.7 0 .8.9 2.3 1.9 3.2 1.8 1.6 2.4 1.6 9.7.1 4.4-.8 9.1-2 10.7-2.7 2.5-1 2.7-1.4 2.1-4.7-1.9-10.2-11.2-25.4-19.8-32.2-2.1-1.6-1.3 0 3.3 7.1 8.7 13.1 11.2 22.4 6.9 25.4-2.4 1.7-10.3 2.2-11.2.7-.9-1.4-1-7.1-.3-12.6l.7-5-3.3 6.6c-1.7 3.7-4.1 7.6-5.1 8.8-1.7 1.9-5.5 2.8-6.8 1.6-.2-.3 1.9-5.3 4.8-11.2 2.9-5.9 5.1-10.9 4.9-11.1-.8-.9-19.4 18.6-23.1 24.2-2.9 4.4-4.9 6.3-8.1 7.7-7.2 3.1-15.9 4.1-28.3 3.4-9.9-.5-12.4-1.1-17.6-3.6-3.4-1.6-6.9-4-7.8-5.4-1.6-2.4-4.8-16.1-4.8-19.8.1-2.9 3.2-11.7 6.5-18.2 2-4 6.2-9.2 13.4-16.4 12.9-13.1 16.6-19.6 16-28.7-.2-3.2-.4-4.5-.5-2.8z"/><path d="M184.7 10.1C183.4 15 175.2 24.4 164 34c-19.3 16.3-26.6 26.3-25.2 34.4.9 5.2 3.2 6 3.2 1.1 0-7.5 5.8-15 21.3-27.5 6.2-5 13.1-11.6 15.4-14.6 4.2-5.5 7.8-14.7 7.1-18.2-.3-1.2-.6-1-1.1.9zM287.2 15.5c-5.8 8.8-24.8 26.3-39 36-6.5 4.4-13.5 9.3-15.7 11-5 3.9-12.1 13.6-13.6 18.6-1.2 3.7-1.4 3.9-5.5 3.9-4.2 0-4.4-.1-5.5-4-1.9-6.2.8-11.8 10-20.9 6.2-6 7-7 4.1-5.6-6.7 3.4-8.8 5.5-16 16L198.9 81h-4.3c-5.9 0-7-1.6-6.2-8.7 1.7-14.4 10.6-25.1 27.8-33.3 11.3-5.4 10.9-6.4-1-2.4-14.5 4.8-26.6 14.6-31.7 25.6-3.9 8.4-3 16.4 3.9 33 3.9 9.5 5.5 9 2.5-.7-2.5-8.1-2-10.9 1.4-7.6 2.7 2.5 5.5 2.7 8.3.6 2.7-2 3-1.9 4.8 2 1.6 3.2 2.1 3.5 6 3.5 3.2 0 5.4-.8 8.4-3 4.6-3.3 5.5-2.3 2.7 3-.9 1.7-1.1 3.1-.6 3.5 1.4.8 5.4-5.1 9-13.5 4.1-9.6 10.2-19.8 13.5-22.9 3.2-3 3.3-1.4.4 4.2-2.6 5.1-3.9 10.5-2.7 11.3.5.3.9-.1.9-.9s1.4-4.1 3.1-7.5c2.4-4.9 5.9-8.9 17.6-19.9 8-7.6 16.5-16.5 18.8-19.8C285.2 22.2 292.6 9 291.7 9c-.1 0-2.2 2.9-4.5 6.5zM133 23.7c-4.7 9.1-14.8 19-30 29.2-13.9 9.4-27.2 19.5-30.9 23.5-2.9 3.1-2.6 3.2 2 .9 2.1-1.1 6.6-1.9 11.9-2.1 7.4-.4 8.8-.2 11 1.6 2.3 1.8 2.5 2.7 2.4 9.1 0 3.9-.3 7.3-.6 7.7-.3.3-2.4-.4-4.7-1.5-3-1.6-5.9-2.1-11.8-2.1-27.6.1-55.6 19.5-65.2 45.3-2.8 7.6-2.6 8.3.6 2.2 11-21.3 37.1-38.8 59.9-40.3 9-.5 13.8.6 18.3 4.3l2.8 2.4 4.5-4.4c5.6-5.4 7.4-11.2 5.9-19.3-.6-2.9-1.6-6.2-2.2-7.3-1.2-2.3-6.6-4.9-10.3-4.9-4.7 0-3.5-1.7 5.2-7.6 17.9-12.1 28.9-23.9 33.2-35.3 3.1-8.2 2-9-2-1.4z"/><path d="M104.3 41.9c-3.6 3.5-10.4 8.2-16.5 11.6-20.9 11.6-27.4 17.1-34.5 29.2-2.4 4.1-5.3 5.7-5.3 3 0-2.5 6.8-15.3 10.3-19.3 2-2.2 6.2-6 9.4-8.4 8.6-6.5 8.6-6.6-.5-2.1-10.2 5.1-14 9-22 22.4-3.4 5.9-6.7 10.9-7.4 11.3-2.1 1.3-.4-11.8 2.4-17.9 1.5-3.1 2.5-5.7 2.2-5.7-1.6 0-11.5 5.4-14.7 8.1-4 3.3-12 14.5-15.6 21.9l-2.2 4.5 2.3-3c1.2-1.7 5.1-6.1 8.7-9.8 7.5-7.9 8.7-7.5 7.8 2.7-.5 5.1-.2 6.8 1.8 10.6l2.3 4.4 3.3-3.4c1.9-1.9 4.6-5.1 6-7 2.6-3.5 2.7-3.5 4.8-1.6 2.6 2.4 3.9 1.4 8.3-6.3 4.6-8 14.4-17.2 29.4-27.6 13.1-9.1 21-15.7 24.6-20.7 1-1.5 1.8-2.8 1.6-2.8-.2.1-3.1 2.7-6.5 5.9zM121.4 51.7c-6.4 5.9-7.6 9.1-8.5 23.3-.4 6.9-.9 14.1-1.1 16.2-.1 2 .4 4.4 1.2 5.3 1.6 1.9 12.5 10.5 13.4 10.5.3 0 2.7-1.3 5.3-2.9 6.3-3.8 16.5-5.1 21.2-2.7 1.7.9 3.1 2.3 3.1 3 0 .7-3.6 2.9-7.9 4.9-5.4 2.4-9.6 5.2-13 8.6-2.8 2.8-5.6 5.1-6.2 5.1-.6 0-3.3-2-6.1-4.4-21.7-19-56.8-15.9-82.8 7.4-2.2 1.9-1.1 1.4 2.9-1.5 21.7-15.5 44.5-17.7 65.1-6.3 5.9 3.3 15.4 10.3 18.3 13.5 1.7 2 1.9 1.9 9.6-5.8 8.2-8.3 18.6-14.3 29.1-17 2.8-.7 5-1.8 5-2.5 0-1.7-5.7-6.4-10.5-8.5-7.8-3.6-22.3-2.1-27.7 2.8-1.7 1.5-2.1 1.5-5.2.1-3-1.5-3.4-2.2-3.9-7-1.1-8.5-.7-27.9.6-32.2 2.4-7.8 8-7.5 8.5.5.4 6.5 1.1 8.9 2.6 8.9 1.1 0 1.5-1.9 1.8-7.6l.3-7.6-4.2-3.9c-2.4-2.1-4.8-3.9-5.5-3.9-.7 0-3.1 1.7-5.4 3.7z"/></svg>