<svg xmlns="http://www.w3.org/2000/svg" width="400" height="200" version="1.0" viewBox="0 0 300 150"><path d="M244 12c-8-1-12 7-17 12l-22 21c-6 0-11-1-16-5-3-2-1-7-4-9-3-4-10-5-15-2-10 10-21 22-33 30-5 4-12 8-18 6-5-1-10-1-14 2-5 3-11 4-16 1-9-1-16 6-22 10s-14 0-21 4a61 61 0 0 0-31 32c-1 6 3 12 9 14 8 5 12 18 3 25-3 5-7 10-5 16 1 6 9 10 15 7 6-2 9-9 14-13 5-1 12-4 16 1 7 4 14 0 19-5 6-5 13-1 20-1 16 0 32 5 45 15 6 4 10 11 17 13 8 2 13-5 18-10a91 91 0 0 1 38-22c6-2 13-6 18-1 7 5 17 5 26 6 10 0 22 2 31-3 5-3 7-8 9-11 6-6 13-2 19-3 13 0 26 1 39-3 5-2 14-3 16-10 1-15-7-29-15-41-2-4-7-5-7-10-1-4-1-9 1-12 9-10 19-18 26-30 3-6-1-14-8-14-8-2-14 6-19 10-17 17-36 30-55 44-6 4-12 13-21 10-8-2-10-13-3-18 5-4 10-9 9-16 0-5-5-8-10-9-5-2-8-9-7-14-1-6-7-9-12-9-7-2-10-10-17-8z" style="fill:#fff;stroke-width:.722022" transform="scale(.75)"/><path d="M199 10c0 9-3 13-29 37-10 10-11 12-12 27v10l-3-2c-2-3-6-4-9-3h-7c-7-2-8-2-9 0l-2 4c-1 2 0 13 1 15 2 1 4-3 4-6 0-5 2-7 4-7 2 1 2 1 1 2v2c1-1 3 0 4 2 3 3 5 3 5 0 1-2 2-3 5-3l5-2c3-1 4-1 4 3 1 6 14 16 26 21 5 2 9 2 18 3 15 0 18-1 27-16 5-9 7-11 7-8l-1 2c-1 1 0 6 1 8l5 1c3 0 5-1 7-3l4-2 2 3c2 2 2 2 10 1l10-3c3-1 3-2 2-5a65 65 0 0 0-19-32c-3-2-2 0 3 7 9 13 11 22 7 25-3 2-11 3-11 1l-1-13 1-5-3 7a52 52 0 0 1-5 9c-2 2-6 3-7 1l5-11a77 77 0 0 0 4-11l-23 24c-3 5-5 7-8 8a62 62 0 0 1-28 3c-10 0-12-1-18-3-3-2-7-4-7-6a75 75 0 0 1-5-19l6-19c2-4 6-9 14-16 13-13 16-20 16-29l-1-2z"/><path d="M185 10c-2 5-10 14-21 24-19 16-27 26-25 34 1 6 3 6 3 2 0-8 6-15 21-28 7-5 13-12 16-15 4-5 8-14 7-18 0-1-1-1-1 1zm102 6a186 186 0 0 1-39 36l-16 11a52 52 0 0 0-13 18c-1 4-1 4-6 4-4 0-4 0-5-4-2-6 1-12 10-21 6-6 7-7 4-5-7 3-9 5-16 16l-7 10h-4c-6 0-7-2-7-9 2-14 11-25 28-33 12-5 11-6-1-2a53 53 0 0 0-31 25c-4 9-3 17 3 33 4 10 6 9 3 0s-2-11 1-8c3 2 6 3 9 1 2-2 3-2 4 2 2 3 3 3 6 3 4 0 6-1 9-3 4-3 5-2 3 3-1 2-2 3-1 4l9-14a88 88 0 0 1 13-23c4-3 4-1 1 4s-4 11-3 12l1-1 3-8c3-5 6-9 18-20l19-20a96 96 0 0 0 10-18 73 73 0 0 0-5 7zm-154 8c-5 9-15 19-30 29a255 255 0 0 0-31 23c-3 4-3 4 2 1l12-2c7 0 9 0 11 2s3 3 2 9a31 31 0 0 1 0 8l-5-2-12-2a73 73 0 0 0-65 45c-3 8-2 9 1 3a80 80 0 0 1 60-41c9 0 13 1 18 5l3 2 4-4a19 19 0 0 0 6-20l-2-7c-1-2-7-5-10-5-5 0-4-2 5-8 18-12 29-23 33-35 3-8 2-9-2-1z"/><path d="M104 42a89 89 0 0 1-16 11C67 66 60 72 53 84c-2 4-5 5-5 3 0-3 7-16 10-20l10-8c8-6 8-7-1-2-10 5-14 9-22 22a72 72 0 0 1-7 12c-2 1-1-12 2-18a18 18 0 0 0 2-6c-1 0-11 5-14 8a89 89 0 0 0-16 22l-2 5 2-3 9-10c7-8 9-8 8 2-1 6-1 7 1 11l3 4 3-3 6-7c3-3 3-3 5-2 2 3 4 2 8-6 5-8 15-17 30-27a110 110 0 0 0 24-21l2-3-7 6zm17 10c-6 6-7 9-8 23l-1 16 1 6a91 91 0 0 0 13 10l6-3c6-4 16-5 21-3l3 3-8 5a42 42 0 0 0-13 9 25 25 0 0 1-6 5l-6-4c-22-19-57-16-83 7l3-2c22-15 44-17 65-6a101 101 0 0 1 18 14c2 2 2 2 10-6a64 64 0 0 1 29-17l5-3-10-8c-8-4-23-2-28 3h-5c-3-2-4-2-4-7V62c3-8 8-8 9 0 0 7 1 9 2 9 2 0 2-2 2-8l1-7-5-4a19 19 0 0 0-5-4l-6 4z"/></svg>