<svg xmlns="http://www.w3.org/2000/svg" width="225" height="400" version="1.0" viewBox="0 0 169 300"><path d="M116 2a37 37 0 0 0-35 51 37 37 0 0 0 10 14v19c-3 3-4 7-7 8-8 2-16 5-25 6-17-10-41-5-51 12a38 38 0 0 0 9 50 37 37 0 0 0 48-1l9-12 17-5v189c-15 13-15 37-4 51a37 37 0 0 0 54 5 37 37 0 0 0 10-44 42 42 0 0 0-10-13V146c3 1 8 1 10 3a38 38 0 0 0 47 20 38 38 0 0 0 25-41 36 36 0 0 0-28-31c-9-2-19-1-27 3l-18-4c-2-4-5-8-9-11V67c11-10 14-26 10-40a41 41 0 0 0-23-24 34 34 0 0 0-12-1Z" style="fill:#fff;stroke-width:.581395" transform="scale(.75)"/><path d="M79 18c-8 5-8 18 1 23l3 1v29l-4 4-4 6c0 2 1 2-20 7-9 2-14 3-15 2-4-6-17-5-21 1-7 11 3 25 15 21 4-1 9-7 9-10l1-2 16-5 15-4 4 3 4 3v161l-2 1c-9 4-9 19 0 24a14 14 0 0 0 20-13c0-4-3-9-7-11l-3-1V98l3-1 5-3c1-2 1-2 14 1l13 3v3c0 4 4 10 9 11 12 4 23-10 15-21-3-5-13-7-19-3l-3 2-13-3-13-3-2-4a16 16 0 0 0-5-7l-4-2V57c0-15 0-15 3-16 3-2 6-7 6-12s0-6-4-9c-3-4-4-4-9-4l-8 2z"/></svg>