<svg xmlns="http://www.w3.org/2000/svg" width="225.333" height="400" version="1.0" viewBox="0 0 169 300"><path d="M116.425 1.825c-14.442-.36-29.223 7.657-34.869 21.314-4.392 9.369-4.694 20.379-.529 29.888 2.186 5.486 5.724 10.414 10.186 14.277-.112 6.343.22 12.864-.161 19.098-2.759 2.216-4.205 6.186-7.15 7.824-8.138 2.03-16.405 4.503-24.575 5.792-16.936-9.678-41.364-4.733-51.645 12.353-9.957 15.712-5.692 38.501 9.228 49.628 13.498 11.178 34.725 10.414 47.599-1.378 3.742-3.299 6.9-7.277 9.184-11.717 5.638-1.527 11.288-3.013 16.937-4.5.083 62.845.174 125.69.267 188.535-14.471 12.815-15.348 36.708-3.46 51.514 12.224 16.33 38.592 18.464 53.452 4.595 12.857-10.351 17.173-29.675 9.529-44.373-2.308-4.6-5.503-8.748-9.32-12.196V144.71c3.137 1.107 7.483 1.075 10.108 2.955 7.22 17.47 28.867 26.847 46.57 20.238 16.667-5.48 27.358-23.575 24.982-40.818-1.574-14.817-13.115-27.871-27.772-30.906-9.058-2.426-18.906-1.198-27.25 3.01l-17.708-4.311c-2.346-4.054-5.312-7.767-8.902-10.788.098-5.858.034-11.785.231-17.6 10.435-9.862 14.02-25.93 10.1-39.546-3.809-10.831-12.971-19.698-23.64-23.74-3.667-1.214-7.556-1.44-11.392-1.38Z" style="fill:#fff;stroke-width:.581395" transform="scale(.75)"/><path d="M79.4 17.9c-8.4 5.1-8 18 .7 22.9l2.9 1.7v28.6l-4 3.8c-2.2 2.1-4 4.7-4 5.9 0 2.4.7 2.1-20.3 7.3-9.1 2.2-14 3-14.5 2.3-4.2-6.2-17.1-5.7-21.4.8-7.3 11.1 3.1 25 15.6 20.8 4-1.3 8.6-6.5 8.6-9.8 0-1.1.4-2.3.9-2.6.4-.3 7.7-2.3 16.1-4.5l15.3-4 3.8 3.2 3.7 3.2.1 80.1.1 80.1-2.5 1.1c-8.6 4-8.4 19.1.4 23.7 9.2 4.7 20.1-1.9 20.1-12.2 0-4.2-3.2-9.5-6.8-11.3l-3.2-1.5V98.2l3-1.2c1.7-.7 3.7-2.2 4.5-3.3 1.4-1.9 1.5-1.9 14.4 1.3l13.1 3.2v3.1c0 4.1 4.1 9.3 8.6 10.7 12.5 4.2 22.9-9.7 15.6-20.8-3.5-5.4-12.8-6.9-18.9-3.1l-3.4 2.1-12.7-3.2-12.8-3.1-2-4.2c-1.1-2.5-3.4-5.2-5.6-6.6L91 70.7V56.5c0-14.2 0-14.2 2.5-15.3 3.8-1.8 6.5-6.9 6.5-12.6 0-4.3-.4-5.3-3.9-8.7-3.4-3.5-4.4-3.9-8.7-3.9-3 0-6.1.7-8 1.9z"/></svg>