<svg xmlns="http://www.w3.org/2000/svg" width="729" height="715" version="1.0" viewBox="0 0 547 536"><path d="M365 356h-72c-19 3-29 28-20 45 5 13 18 18 31 17h130c24-3 34-36 18-53-8-12-25-9-38-10l-49 1zm117-58c-14 0-31 7-35 23l-14 36c-7 14 1 32 16 36 14 3 33 2 42-12 4-8 6-17 9-25 4-13 14-25 10-40a27 27 0 0 0-28-18zm-96-91c-18 1-34 18-30 37 1 10 9 18 19 23 26 19 56 35 83 54 14 9 33 0 37-16 4-12 7-27-4-36-17-13-36-24-54-36-14-8-27-19-42-25a30 30 0 0 0-9-1zm-55 2-76 49c-10 7-24 15-24 30 0 13 11 24 23 27 11 6 24 5 33-3l83-54c14-10 12-33-3-41-11-7-23-15-36-8zm-87 83c-13 7-26 20-24 36 2 13 10 24 12 36 5 10 7 21 18 26a59 59 0 0 0 32 3c15-4 22-22 15-36l-21-52c-5-12-20-18-32-13zM625-3c-15 1-25 13-37 20-11 8-23 14-34 21l-71 47a240 240 0 0 0-87-27 257 257 0 0 0-135 20c-5 2-10 7-15 6l-95-61c-13-9-25-19-40-24-17-6-36 11-32 29 5 20 16 39 22 59l16 41 20 50c2 5 7 11 3 17-10 17-15 36-22 54a275 275 0 0 0-6 76c-20 14-41 25-60 40l-21 12c-10 10-26 13-30 27-6 15 7 33 23 34 41 2 83 0 124 2a268 268 0 0 0 73 78 277 277 0 0 0 60 31 199 199 0 0 1 14 35c7 15 12 31 18 47 9 19 15 40 24 59 3 12 9 26 23 28 14 3 26-7 30-20l19-48a4321 4321 0 0 0 26-68l13-32a252 252 0 0 0 82-48c7-7 18-11 22-20 11-13 23-27 31-42 43-2 85 0 128-2 16-2 26-22 18-37-5-11-18-14-26-21-22-13-42-28-64-42l-20-13c-2-28 0-57-9-84-6-16-10-32-19-47-2-4-3-8 0-12l19-48 28-71c4-13 12-26 14-40a26 26 0 0 0-27-26zm-12 5s1 0 0 0zm-17 15zm-20 15c0-1 0-2 0 0zm58 39c-1 1 2-2 0 0zM133 86c0-2 0-4 0 0zm354-1zm-25 24c1-2 1-2 0 0zm-283 13zm-58 7c-2-2-4-4 0 0zm77 5c-2-1-2-1 0 0zm-2 1 74 49 69 44c11 8 26 16 39 9l56-37 101-65-16 40-17 42-19 50c-3 12-12 23-11 35 1 15 16 22 26 29l58 38h-99c-13 1-22 13-24 25l-39 101-17 44a2542 2542 0 0 1-12 30c-9-22-18-44-25-66l-14-34c-2-10-8-18-11-28l-23-59c-6-12-20-14-32-13h-86c25-16 50-31 74-49 11-9 12-26 5-38a1955 1955 0 0 0-31-79l-27-69zm17 45c0 1-1 0 0 0zm373 9c1 1-1-1 0 0zm-449 14zm246 28c-1 1 2 0 0 0zm249 105c1 0 0 0 0 0zm16 15c2 4-1-4 0 0zM45 372s1 0 0 0zm-23 13c3 0 5-1 0 0zm281 58c9 2-1 0 0 0zm24 30c1 2-2-3 0 0zm209 23c-10 3 5-2 0 0zm-105 93c-5 4 1-2 0 0zm-131 3c-2-3-2-3 0 0zm10 31c0-1 0-2 0 0zm84 64c0 1 0-2 0 0z" style="fill:#fff;stroke-width:1.06667" transform="scale(.75)"/><path d="m77 18 1 2 1 3 1 3 3 7a45 45 0 0 0 3 7l3 8 3 8 3 8 3 7 1 3 1 2 1 3 1 3 3 8 3 8 4 10a73 73 0 0 1 5 12l3 8 1 2 1 2 1 2 1 3c2 2 2 7 0 11l-2 4-1 2-1 2-4 10-2 4-2 4-2 7-1 4-1 2-2 7-2 11-1 12-1 7-1 8 1 8 1 6c0 6 0 7-6 11l-4 3a9 9 0 0 1-3 2l-2 1-7 5-2 1-1 1-3 1-4 3a53 53 0 0 0-12 8 10 10 0 0 1-3 2l-3 2a53 53 0 0 1-9 6 23 23 0 0 0-6 4l-2 1-2 1-4 3a34 34 0 0 0-6 4l-4 2-1 1-2 1-2 1 53 1 53 1a34 34 0 0 1 4 6 44 44 0 0 0 6 10l2 3 3 5 4 4a283 283 0 0 0 30 29 19 19 0 0 0 5 4l3 2a31 31 0 0 0 6 4l5 3 17 8 4 2 1 1 4 1a34 34 0 0 0 6 2c3 1 4 2 5 4l2 5 1 3 1 2 3 7 3 8 1 3 1 3 1 1 1 4 4 10 2 5 2 5 2 6 1 3 1 2 1 2 1 2 2 5 2 5 3 7a146 146 0 0 0 9 23c2 8 3 10 4 10l1-2 1-3 1-3 1-3 1-2 1-2 5-13 5-13 3-8a52 52 0 0 1 3-7l3-8 3-7 7-19 1-2 1-3 1-3 3-8c1-5 3-7 3-7l2-5c2-5 2-6 7-7l11-4 1-1 4-1 8-4 8-4 5-3a31 31 0 0 0 6-4l3-2 3-2a34 34 0 0 1 5-4l8-7a24 24 0 0 1 7-5l1-1a31 31 0 0 1 6-8l6-7 3-4 3-4 2-3 5-8 5-8 53-1 52-1-5-3a16 16 0 0 1-4-3l-5-3-4-3-2-1-1-1-5-3-5-3-2-1-1-1-4-3a40 40 0 0 1-7-4c-1-1-2-3-4-3a59 59 0 0 1-9-6 12 12 0 0 0-4-2l-1-1-2-1-7-5-2-1-3-2-4-3-4-3c-1-1-2-4-2-22a174 174 0 0 0-4-43l-1-3-1-2-1-4-2-7-2-5a43 43 0 0 1-4-9l-2-3-1-2-1-3-3-4c-2-4-2-4 0-10l3-6 1-3 1-2a30 30 0 0 0 3-8l3-8a32 32 0 0 0 3-7 49 49 0 0 1 3-8l4-11a82 82 0 0 1 4-10l2-5 2-5a35 35 0 0 0 2-5l2-5 2-5 2-6 1-3 1-2 4-10 2-4 1-3 1-3 1-2-1-1-6 4-1 1-2 1-3 2-3 2-3 2-3 2-1 1-3 2a34 34 0 0 1-7 4l-5 3-1 1-2 1-1 1-2 1-1 1-4 2a20 20 0 0 1-5 3l-2 2-2 1-3 2-6 4a33 33 0 0 0-6 4l-6 4a47 47 0 0 0-5 3l-3 2-6 4a25 25 0 0 1-6 4l-3 2-2 1-2 1-2 1-3-1-2-1-2-1a20 20 0 0 0-6-3l-6-3-7-3a68 68 0 0 1-8-3 61 61 0 0 0-15-4l-9-2-9-1-5-1-17-1-17 1-5 1-9 1-14 3a73 73 0 0 0-18 6 32 32 0 0 0-7 3l-6 3a20 20 0 0 0-6 3l-1 1-2 1c0 1-5 2-6 0a5 5 0 0 0-3-1l-2-1-4-3a34 34 0 0 1-6-4l-3-2-3-2-6-4a49 49 0 0 1-8-5 62 62 0 0 0-8-5 42 42 0 0 1-6-4l-3-2-5-3a30 30 0 0 0-6-4l-3-2-2-1-3-2-6-4a31 31 0 0 1-5-3l-4-3-4-3-5-3a47 47 0 0 1-5-3l-4-2c-3-2-3-2-2 1zm41 43 2 1 1 1 2 1 9 6 4 2 1 1 2 1 1 1 2 1 1 1 3 2 3 2 2 1 3 2 6 4a42 42 0 0 1 9 6 42 42 0 0 0 9 6l6 4 2 1 2 1 6 4 6 4 3 2 3 2 4 3 8 5 8 5a72 72 0 0 1 10 6l3 2 7 5 6 4 4 2 1 1 1 1 4 2 3 2 1 1 1 1 4 2 4 1 3-2 3-2 2-1 3-2 6-4 6-4 3-2 5-3 6-4 3-2 5-3a34 34 0 0 0 6-4 9 9 0 0 1 3-2l2-1 2-2 4-2 7-5 5-3 8-5a100 100 0 0 0 11-7l3-2 5-3 1-1 2-2 5-2c1-2 4-4 7-5l4-3 2-1 3-2 5-3 4-3 5-3 3-2 3-2 3-2 2-1a9 9 0 0 0 3-2c3-3 9-6 9-5l-3 9-3 8a27 27 0 0 1-3 8l-1 2-1 2-4 11a105 105 0 0 1-7 18l-1 3-1 2-1 2a30 30 0 0 0-3 8 30 30 0 0 1-3 8l-1 2-1 3-1 3-1 2a32 32 0 0 0-3 8l-3 8-5 13-1 2-3 7a68 68 0 0 1-3 8l-2 5-2 6a96 96 0 0 0-3 8 49 49 0 0 1-3 8c-2 1-2 5-1 5l5 3 6 4 4 3 2 1 3 2 7 5 5 3 2 1 1 1 1 1c1 0 17 9 18 11l6 4 2 1 3 2 5 3a43 43 0 0 0 8 5l7 6a81 81 0 0 0 6 3l5 3 5 4 5 3H344l-2 6-2 6a205 205 0 0 0-7 19 75 75 0 0 0-5 13 82 82 0 0 1-4 10 52 52 0 0 0-3 8 42 42 0 0 1-3 7l-3 8a32 32 0 0 1-3 7l-1 3-1 3-2 4a60 60 0 0 1-2 6l-2 5-2 5-2 5-2 6-1 3-1 2-4 10-2 4-3 8a70 70 0 0 1-3 9l-2 5-2 4a37 37 0 0 0-3 8 37 37 0 0 1-3 8l-4-9-2-5-1-2-1-2-4-11a90 90 0 0 0-4-11 58 58 0 0 1-3-7 61 61 0 0 0-3-8 77 77 0 0 1-5-12 75 75 0 0 1-5-14 37 37 0 0 0-4-10l-1-3-1-3-3-7a26 26 0 0 0-3-8l-1-1-2-6-2-6-1-2-1-2-1-3-3-8a49 49 0 0 0-3-8l-2-5-2-5-2-5-2-5-2-5-2-7-1-2H69l5-3 5-4 5-3 5-3 11-7 4-4 3-1 3-1c2-3 4-4 5-4l6-4a121 121 0 0 1 19-12l2-1 1-1 5-3a42 42 0 0 0 7-5l3-2 2-1 4-3a32 32 0 0 0 7-4l3-3 1-2-1-2-2-5-2-6-1-2-2-6-2-6-1-1a30 30 0 0 1-3-8 30 30 0 0 0-3-8l-1-1-2-6-2-6-1-1-3-8a50 50 0 0 0-3-9 5 5 0 0 1-1-2l-1-2-1-3-1-3-3-7a54 54 0 0 0-3-8l-3-8a28 28 0 0 0-3-7 60 60 0 0 1-4-10 52 52 0 0 0-4-11l-1-3-1-3-2-4-2-6a5 5 0 0 1-1-2l-1-2-2-5-2-6 4 1 4 3z"/><path d="m131 83 1 2 2 6 2 5 2 5 4 9 1 3 1 3 3 8 3 8 1 3 1 2 1 2 1 4 2 5 2 4a49 49 0 0 1 3 8l3 7 1 2 1 4 4 11 4 10a109 109 0 0 1 6 15l2 6c2 5 4 6 6 3l3-2 3-2 5-3 2-2 2-1 1-1 1-1 2-1 8-5 2-1 2-1 1-1 4-2 4-3 6-4 6-4 6-4a39 39 0 0 0 6-4l7-4c5-3 5-4 1-7l-3-2-5-3-5-3-1-1-2-1-5-3a55 55 0 0 1-10-7l-4-2-4-3-4-3c-2 0-4-2-5-3l-4-2-1-1-4-3-5-3-1-1-2-1-1-1-4-2-6-4a39 39 0 0 1-6-4l-4-2-1-1-2-1a28 28 0 0 1-9-6l-3-2-3-2-6-4-4-3-1-1-2-1-5-3-5-3-1-1-1 1zm284 0-5 3a38 38 0 0 0-8 5 31 31 0 0 1-5 4l-4 2-5 3a42 42 0 0 0-6 4l-6 4-5 3-2 1-4 2-3 3-4 2-4 3-1 1-1 1-2 1-7 4a62 62 0 0 0-8 5l-3 2-1 1-3 2-3 2-3 2-3 2-1 1-2 1a21 21 0 0 1-6 4 21 21 0 0 0-6 4l-2 1-2 1-4 3-5 3-3 2c-4 2-4 4 0 6l4 3 2 1 2 1 6 4 6 4 6 4a42 42 0 0 1 6 4l5 3 3 2 2 1 1 1 5 3 6 4 6 4 6 4 4 3 3 2c0 2 2 1 3-2l4-9 1-2 1-3 2-6 2-5 2-5 2-5a71 71 0 0 0 3-8 52 52 0 0 1 3-8 58 58 0 0 0 3-7l3-8 3-7a52 52 0 0 1 3-8l5-13 5-14a52 52 0 0 0 3-7 52 52 0 0 1 3-8l4-12-1 1zm-144 93a10 10 0 0 1-3 2l-4 3-6 3-1 1-4 3-5 3-1 1-2 1-3 2-3 2-2 1-3 2-6 4a51 51 0 0 0-6 4l-5 3a21 21 0 0 0-4 3l-4 3-4 2-5 3a34 34 0 0 0-6 4 9 9 0 0 1-3 1l-2 3 5 15 1 3 1 2 3 8 3 7 2 5 2 6 1 2 1 2 1 3v2h64c70 0 66 0 66-5l1-2 2-4 2-6a5 5 0 0 0 1-2l1-2 1-2 1-3 2-6 2-5 1-2 1-3 1-2 1-2 3-10-5-3-5-3-3-2-3-2-3-2-5-3-4-3-5-3a46 46 0 0 0-10-6 34 34 0 0 1-7-5 14 14 0 0 0-4-2l-2-2-2-1-3-2-4-3-3-2-1-1-6-3-5-3-2-2a10 10 0 0 0-3-2l-3 2zm-96 62a39 39 0 0 0-5 4l-7 4-4 3-2 1a9 9 0 0 0-3 2l-5 3-4 3-2 1-2 1-4 3-4 3a10 10 0 0 1-4 2l-3 2a71 71 0 0 1-6 4 136 136 0 0 0-11 7c-2 0-4 3-4 3l47 1h46l-1-3-1-4-1-3-1-2-1-2-1-2-1-3-1-3-2-6-2-5-1-1-2-6a20 20 0 0 1-2-6c0-3-2-3-6-1zm190 5a35 35 0 0 1-3 7 77 77 0 0 0-4 11 46 46 0 0 1-4 10l-1 3-1 3-1 2a19 19 0 0 1-1 4 975 975 0 0 0 94 1c-1 0-3-3-5-3l-4-3a73 73 0 0 0-6-4l-7-4a15 15 0 0 0-3-2l-3-2-5-3-4-3-2-1-2-1-4-3-4-3a9 9 0 0 0-4-2l-2-1-4-3-7-4a43 43 0 0 0-10-6l-3 7zm-150 55 1 3 4 11a75 75 0 0 0 4 10 43 43 0 0 1 3 8 58 58 0 0 0 3 7l3 8 3 7 1 3 1 3 4 10a55 55 0 0 0 5 13l2 5 2 6 1 1a30 30 0 0 1 3 8 30 30 0 0 0 3 8l1 2 2 5 4 12 3 7 1 2 1 3 1 2 3 7 3-8 3-8 1-2 1-2 7-20a41 41 0 0 0 4-10 54 54 0 0 1 3-8l5-13a55 55 0 0 0 5-12 40 40 0 0 1 4-10l1-2 1-3 1-2a7 7 0 0 1 1-4l2-5 2-5 2-4 4-10 1-2a7 7 0 0 1 1-4l3-8 3-8 1-2c0-2-1-2-59-2h-60l1 3z"/></svg>