<svg xmlns="http://www.w3.org/2000/svg" width="729.333" height="714.667" version="1.0" viewBox="0 0 547 536"><path d="M364.69 355.548c-23.727.43-47.566-.47-71.222.804-19.79 2.443-29.288 28.004-20.345 44.69 4.63 12.442 18.318 18.093 30.885 16.507 43.426.04 87.397.617 130.214.585 23.713-2.74 33.29-36.088 18.096-53.054-8.785-12.58-25.511-9.53-38.764-9.734l-48.864.202zm117.543-57.783c-14.522.513-30.966 7.462-35.068 22.691-5.314 11.99-8.852 24.775-14.398 36.731-6.508 13.588 1.123 31.489 15.844 35.412 14.61 2.98 33.563 2.191 42.279-11.97 3.638-7.884 5.71-16.388 9.28-24.381 3.67-13.185 14.18-25.657 9.96-39.98-3.616-11.928-15.674-19.298-27.897-18.503zm-96.414-90.62c-17.962.786-33.433 18.404-29.792 36.51 1.093 10.74 9.281 18.729 18.481 23.252 26.806 19.512 55.966 35.567 83.09 54.539 14.09 8.311 33.628-.468 37.55-16.177 4.26-11.718 6.593-26.78-3.81-35.991-17.55-12.849-36.63-23.911-54.654-36.009-13.812-8.086-26.373-19.25-41.603-25a29.74 29.74 0 0 0-9.262-1.123zm-55.086 2.042c-25.189 16.263-50.06 33.043-75.603 48.717-10.606 7.189-23.851 15.538-23.712 30.021-.786 13.452 10.393 23.627 22.396 27.322 10.714 5.935 24.138 4.667 33.521-3.231 27.75-18.033 55.452-36.265 83.092-54.37 13.945-9.786 11.932-33.133-2.934-41.066-11.312-6.367-23.662-14.076-36.76-7.393zm-86.873 82.765c-12.672 7.514-26.127 20.32-24.008 36.513 2.1 12.668 9.723 23.629 12.417 36.164 4.425 9.288 7.084 20.86 17.676 25.22 9.812 4.235 21.271 4.74 31.659 3.122 14.855-3.852 22.2-21.904 15.606-35.442-6.869-17.502-14.127-34.89-21-52.384-5.263-12.337-19.972-18.01-32.35-13.193zM625.081-3.29C610.21-2.16 599.918 10.008 587.47 16.727c-10.708 8.177-22.9 14.11-33.944 21.803-23.656 15.247-47.248 30.958-70.69 46.31-26.94-14.555-56.6-23.523-86.998-26.994-45.905-5.855-93.274 1.963-135.477 20.623-4.651 1.463-9.547 6.808-14.072 6.01-31.23-21.24-63.305-41.176-95.065-61.578-12.903-8.705-25.412-18.818-40.145-24.15-17.199-5.479-36.1 11.243-32.337 29.014C84.198 48.27 94.62 66.68 101.38 86.788c5.62 13.53 9.78 27.525 15.484 40.922 6.283 16.767 13.946 33.014 19.822 49.934 1.842 5.628 7.456 11.47 2.892 17.002-9.375 17.226-14.964 36.28-21.149 54.813-5.213 24.815-8.431 50.32-6.643 75.703C92.31 339 71.282 350.418 52.08 364.667c-6.62 5.231-14.231 8.613-21.45 12.732-9.357 9.33-25.36 12.269-29.256 26.431-6.417 15.467 6.6 33.539 22.972 34.071 41.084 1.946 82.66.601 123.223 2.108 18.566 30.885 44.23 57.366 73.38 78.374 18.21 13.332 39.108 22.415 59.866 30.897 5.704 10.685 10.14 22.698 13.78 34.463 7.065 15.276 12.789 31.219 18.028 47.268 9.811 18.912 15.113 39.91 24.15 59.23 3.591 12.075 9.844 25.97 23.771 28.029 13.74 2.748 25.965-7.685 30.02-20.246 5.741-16.197 12.437-32.094 18.414-48.239a4320.504 4320.504 0 0 0 26.616-67.771c3.75-10.918 7.248-22.02 12.668-32.303 29.85-10.744 58.372-26.371 82.198-47.568 7.025-6.966 17.373-10.658 21.375-20.304 11.588-13.222 22.879-27.055 31.7-42.173 42.155-1.173 84.772.103 127.142-2.042 16.17-2.066 26.627-21.793 18.442-36.083-5.005-11.013-17.745-14.541-26.484-21.873-21.628-13.014-41.961-28.1-63.518-41.165-6.91-4.216-13.332-9.046-20.31-13.09-1.774-27.918-.233-56.955-8.465-84.22-5.84-15.732-10.549-32.024-18.896-46.686-2.87-4.182-3.024-8.213-.256-12.509 6.166-15.527 12.468-31.756 18.782-47.562 8.974-24.02 18.506-47.867 27.974-71.62 4.69-13.245 12.24-25.857 14.002-39.992.422-14.58-12.364-26.902-26.867-26.113zm-12.616 5.771c.194-.106.91-.155 0 0zM596.22 17.148c-.012-.018.084-.249 0 0zM575.735 31.57c-.118-.155.55-1.387 0 0zm58.405 39.375c-.784 1.152 1.368-2.228 0 0zM133.39 86.377c-.616-2.256-.687-4.017 0 0zm353.44-1.423c-.102.02-.028-.003 0 0zm-24.395 23.813c.227-2.208.322-1.929 0 0zm-283.643 13.562c.06.072-.291-.131 0 0zm-57.954 6.567c-1.834-1.448-3.834-3.66 0 0zm77.387 4.773c-2.34-.246-2.525-.422 0 0zm-2.731.962c24.315 17.133 50.198 31.867 74.576 48.906 23.333 14.285 45.98 29.713 68.963 44.496 10.882 8.18 25.734 16.053 38.971 8.464 18.648-12.055 37.343-24.078 55.91-36.318 33.74-21.55 67.111-43.674 100.586-65.435-5.928 13.053-10.572 26.603-15.775 39.964-5.86 14.105-10.539 28.684-16.66 42.71-6.237 16.633-13.584 32.878-19.19 49.792-3.199 11.899-11.68 22.58-10.767 35.323 1.308 14.51 15.405 21.123 25.995 28.4 18.972 13.278 39.01 24.885 58.33 37.625-33.154.422-66.386-.06-99.491.927-13.354.639-21.665 12.96-24.059 25.042-12.99 33.597-25.343 67.045-38.987 100.206-5.209 15.042-11.488 29.714-17.188 44.586a2541.77 2541.77 0 0 1-11.89 29.837c-8.514-21.847-17.684-43.611-25.246-65.722-4.164-11.496-9.308-22.695-13.854-34.056-2.164-9.908-7.72-18.348-10.668-28-7.815-19.696-14.808-39.398-23.195-58.848-5.631-12.206-20.252-14.514-32.315-13.46l-85.47-.51c24.594-16.028 50.117-30.827 73.52-48.591 11.115-9.392 12.24-26.216 4.966-38.264-9.695-26.302-19.854-52.407-30.67-78.267-8.255-23.268-17.277-46.257-26.796-69.06zm17.056 45.754c.163.28-.588-.849 0 0zm373.575 8.455c1.053 1.03-.832-.717 0 0zm-448.969 14.543c-.007-.063.069-.33 0 0zm245.552 28.065c-.725.146 2.067-.555 0 0zm249.434 104.854c.346.105-.534-.112 0 0zm16.185 14.548c1.233 4.014-1.682-3.843 0 0zm-603.74 21.115c.148-.06 1.148-.12 0 0zm-22.152 13.268c2.28-.563 4.064-.683 0 0zM303.18 442.65c8.508 2.71-1.137-.103 0 0zm23.41 30.492c1.132 1.704-2.065-2.765 0 0zm209.67 22.94c-10.332 2.933 4.715-1.778 0 0zm-105.567 92.98c-4.153 4.185 1.764-2.059 0 0zm-130.442 2.663c-2.553-2.686-2.593-2.847 0 0zm9.881 30.938c-.088-.26-.189-1.49 0 0zm83.681 63.902c-.17 1.207.18-1.764 0 0z" style="fill:#fff;stroke-width:1.06667" transform="scale(.75)"/><path d="M76.8 17.6c.2 1.3.8 2.4 1.3 2.4s.9 1.3.9 2.9c0 1.6.4 3.1.8 3.3.4.1 1.8 3.2 3.1 6.8 1.3 3.6 2.7 6.7 3 7 .4.3 1.8 3.9 3.1 8s2.7 7.7 3 8c.4.3 1.7 3.6 3 7.5 1.3 3.8 2.7 7.4 3.2 7.9.4.6.8 1.8.8 2.8 0 1 .5 1.8 1 1.8.6 0 1 1.3 1 3 0 1.6.3 3 .8 3 .4 0 1.8 3.5 3.1 7.8 1.4 4.2 2.7 7.9 3 8.2.9.8 2.8 5.1 4.3 9.5.7 2.2 1.5 4.2 1.9 4.5.3.3 1.6 4 3 8.2 1.3 4.3 2.7 7.8 3.2 7.8.4 0 .7.9.7 2s.5 2 1 2c.6 0 1 1.1 1 2.4 0 1.4.4 2.7.9 3 1.8 1.2 2 6.7.3 10.6-.9 2.2-2 4-2.4 4-.5 0-.8.9-.8 2s-.3 2-.8 2c-.8 0-2.6 3.8-4.4 9.7-.7 2.4-1.6 4.3-1.9 4.3-.3 0-1.1 1.9-1.8 4.2-.7 2.4-1.7 5.3-2.2 6.6-.5 1.3-.9 3.2-.9 4.2 0 1.1-.4 2-.8 2-.5 0-1.4 3-2.1 6.7-.7 3.8-1.7 9-2.2 11.6-.5 2.6-.9 7.9-.9 11.7 0 4-.4 7-1 7s-1 3.3-1 8 .4 8 1 8 1 2.7 1 6.1c0 6.4-.3 7-6 10.9-1.2.8-3.1 2.3-4.2 3.2-1.2 1-2.5 1.8-2.9 1.8-.4 0-1.4.6-2.1 1.2-2 1.9-5 3.8-7 4.4-1 .4-1.8 1-1.8 1.5s-.6.9-1.4.9c-.7 0-1.9.6-2.5 1.4-.7.8-2.6 2.1-4.4 3-4.9 2.5-7.4 4.1-11.6 7.6-1.3 1.1-2.8 2-3.2 2-.4 0-1.9 1-3.1 2.3-1.3 1.3-5.2 3.8-8.6 5.7-3.4 1.8-6.2 3.7-6.2 4.1 0 .5-.9.9-2 .9s-2 .4-2 .8c0 .5-1.9 1.9-4.2 3.2-2.4 1.3-5.2 3.2-6.2 4.2-1.1 1-2.6 1.8-3.3 1.8-.7 0-1.3.4-1.3 1 0 .5-.9 1-2 1s-2 .4-2 1c0 .7 18.2 1 52.6 1 40.7 0 52.8.3 53.7 1.2.7.7 2.3 3.3 3.6 5.8 4.3 7.9 4.6 8.4 6.4 10.4.9 1.1 1.7 2.3 1.7 2.8 0 .4 1.6 2.5 3.5 4.5s3.5 4.1 3.5 4.6c0 1.1 24.6 25.7 25.7 25.7.5 0 2.6 1.6 4.6 3.5 2 1.9 4.1 3.5 4.5 3.5.5 0 1.7.9 2.9 1.9 1.1 1.1 4 2.9 6.4 4.1 2.4 1.3 4.6 2.6 4.9 3 .7 1.1 11.7 6.3 16.8 7.9 2.3.8 4.2 1.8 4.2 2.3 0 .4.7.8 1.5.8s2.3.4 3.3.9c.9.5 3.6 1.5 5.9 2.1 3.2 1 4.4 2 5.3 4.4.7 1.7 1.6 3.9 2.1 4.8.5 1 .9 2.5.9 3.3 0 .8.4 1.5.9 1.5.4 0 1.9 3.4 3.2 7.5 1.3 4.1 2.7 7.5 3.2 7.5.4 0 .7 1.3.7 3 0 1.6.5 3 1 3 .6 0 1 .7 1 1.5s.5 2.4 1 3.5c2.2 4.4 2.7 5.7 4.1 10.2.7 2.7 1.6 4.8 1.9 4.8.4 0 1.3 2.3 2 5.1.8 2.7 1.8 5.2 2.2 5.5.4.3.8 1.6.8 3 0 1.3.5 2.4 1 2.4.6 0 1 .8 1 1.8s.4 2.2.9 2.7c.5.6 1.4 2.8 2.1 5 .7 2.2 1.6 4.2 1.9 4.5.4.3 1.7 3.6 2.9 7.5 2.9 8.7 6.4 17.8 7.1 18.5.4.3 1.2 2.3 1.9 4.5 2.4 7.2 3.4 9.5 4.3 9.5.5 0 .9-.9.9-1.9 0-1.1.5-2.3 1-2.6.5-.3 1-1.7 1-3s.5-2.7 1-3c.5-.3 1-1.5 1-2.5s.4-2 .9-2.2c.5-.2 2.8-5.9 5.1-12.8s4.6-12.7 5-13c.4-.3 1.7-3.7 3-7.5 1.3-3.9 2.6-7.2 2.9-7.5.4-.3 1.7-3.7 3-7.5 1.3-3.9 2.6-7.2 3-7.5.7-.5 6-15.1 6.8-18.7.3-1.3.9-2.3 1.4-2.3.5 0 .9-1.4.9-3 0-1.7.3-3 .8-3 .4 0 1.8-3.4 3.1-7.5s2.7-7.5 3.1-7.5c.4 0 1.5-2.4 2.4-5.3 1.6-5 1.9-5.3 6.4-6.6 7.9-2.2 11.2-3.5 11.2-4.3 0-.4.7-.8 1.5-.8s2.3-.4 3.3-.9c.9-.5 4.9-2.4 8.7-4.1 3.9-1.8 7.2-3.5 7.5-4 .3-.4 2.5-1.7 4.9-3 2.4-1.2 5.3-3 6.4-4.1 1.2-1 2.5-1.9 3-1.9s1.7-.8 2.6-1.8c.9-1 3.1-2.9 5-4.2 1.9-1.3 5.7-4.6 8.5-7.2 2.8-2.6 5.6-4.8 6.3-4.8.7 0 1.3-.6 1.3-1.3 0-.7 2.7-4.1 6-7.5 3.3-3.5 6-6.6 6-7.1 0-.4 1.4-2.2 3-3.9 1.7-1.8 3-3.6 3-4 0-.5.8-1.7 1.8-2.8 1-1 3.4-4.8 5.2-8.4 1.9-3.6 4-7.1 4.7-7.8.9-.9 12.9-1.2 53.2-1.2 28.7 0 52.1-.4 52.1-.8 0-.5-2-1.9-4.5-3.2-2.5-1.3-4.5-2.6-4.5-2.9 0-.3-2-1.7-4.5-3s-4.5-2.8-4.5-3.2c0-.5-.7-.9-1.5-.9s-1.5-.3-1.5-.8c0-.4-2.3-1.8-5-3.1-2.8-1.4-5-2.9-5-3.3 0-.4-.7-.8-1.5-.8s-1.5-.4-1.5-.8c0-.5-1.9-1.9-4.2-3.2-2.4-1.3-5.2-3.3-6.3-4.3-1.1-1-2.9-2.3-4-2.8-2.4-1.1-4.9-2.6-9.2-5.6-1.7-1.3-3.6-2.3-4.2-2.3-.6 0-1.1-.4-1.1-.9s-.8-1.1-1.7-1.5c-2.1-.6-5.1-2.5-7.1-4.4-.7-.6-1.7-1.2-2.1-1.2-.4 0-1.7-.8-2.9-1.8-1.1-.9-3-2.4-4.2-3.2-1.2-.8-2.9-2-3.8-2.6-1.4-1-1.7-4.1-1.8-22-.1-15-.6-23.6-1.9-30.4-.9-5.2-1.9-11-2.2-12.8-.3-1.7-.9-3.2-1.4-3.2-.5 0-.9-.9-.9-2 0-1-.4-2.9-.9-4.2-.5-1.3-1.5-4.3-2.2-6.8-.7-2.5-1.6-4.7-1.9-5-.6-.6-2.4-4.4-4-8.8-.7-1.7-1.6-3.2-2.1-3.2s-.9-1.1-.9-2.4c0-1.3-.4-2.6-.9-2.8-.5-.2-1.8-1.9-2.8-3.8-2-3.5-2-3.5 0-9.5 1.1-3.3 2.4-6.2 2.9-6.3.4-.2.8-1.5.8-2.8 0-1.3.3-2.4.8-2.4.4 0 1.8-3.6 3.2-8 1.4-4.4 2.7-8 3.1-8 .3 0 1.6-3.3 2.9-7.3 1.4-3.9 2.7-7.4 3.1-7.7.4-.3 2.2-5 4-10.5 1.9-5.5 3.6-10.2 4-10.5.3-.3 1.2-2.3 1.9-4.5s1.6-4.5 2-5c.4-.6 1.3-3.1 2.1-5.8.7-2.6 1.6-4.7 1.9-4.7.4 0 1.3-2.3 2-5.1.8-2.7 1.8-5.2 2.2-5.5.4-.3.8-1.6.8-3 0-1.3.3-2.4.8-2.4.8 0 2.6-3.8 4.4-9.8.7-2.3 1.6-4.2 2-4.2.5 0 .8-1.4.8-3 0-1.7.5-3 1-3 .6 0 1-.7 1-1.5s-.3-1.5-.6-1.5c-1.2 0-6.4 3.4-6.4 4.2 0 .4-.7.8-1.5.8s-1.5.4-1.5.9-1.4 1.4-3 2.1c-1.6.7-3 1.6-3 2 0 .4-1.3 1.3-3 2-1.6.7-3 1.6-3 2.1s-.5.9-1 .9c-.6 0-1.9.8-3 1.8-1 1-4.2 2.9-6.9 4.2-2.8 1.4-5.1 2.8-5.1 3.2 0 .5-.7.8-1.5.8s-1.5.4-1.5 1c0 .5-.7 1-1.5 1s-1.5.4-1.5 1c0 .5-.6 1-1.2 1-.7 0-2.6 1.1-4.2 2.5-1.6 1.3-3.7 2.7-4.7 3-1.1.4-1.9 1.1-1.9 1.6s-.7.9-1.6.9c-.9 0-2.4.8-3.3 1.8-.9 1-3.6 2.9-6.1 4.3-2.5 1.3-5.2 3.1-6 3.9-.8.8-3.5 2.6-6 3.9-2.5 1.4-4.7 2.8-5 3.1-.3.4-1.8 1.4-3.5 2.3-1.6.8-4.3 2.7-6 4.1-1.6 1.4-4.2 3.1-5.7 3.7-1.5.6-2.8 1.5-2.8 2s-.9.9-2 .9-2 .4-2 1c0 .5-1.1 1-2.5 1s-2.5-.5-2.5-1c0-.6-.9-1-2-1s-2-.3-2-.8c0-.4-2.7-1.8-6-3.2-3.3-1.4-6-2.8-6-3.1 0-.3-3.3-1.6-7.2-2.9-4-1.4-7.5-2.7-7.8-3-.5-.7-6.4-2.3-15-4-3-.7-7.1-1.6-9.1-2.1s-5.9-.9-8.8-.9c-2.8 0-5.1-.5-5.1-1 0-.6-6.3-1-17-1s-17 .4-17 1c0 .5-2.3 1-5.1 1-2.9 0-6.8.4-8.8.9-2 .5-8.1 2-13.6 3.2-5.5 1.2-10.2 2.5-10.5 2.8-.3.4-3.8 1.7-7.7 3.1-4 1.3-7.3 2.6-7.3 2.9 0 .3-2.7 1.7-6 3.1-3.3 1.4-6 2.8-6 3.2 0 .5-.7.8-1.5.8s-1.5.4-1.5.9c0 1.5-5 1.9-6.5.5-.7-.8-2.1-1.4-2.9-1.4-.9 0-1.6-.4-1.6-.8 0-.5-1.9-1.9-4.2-3.2-2.4-1.3-5.2-3.2-6.2-4.2-1.1-1-2.4-1.8-2.9-1.8s-1.7-.8-2.6-1.9c-.9-1-3.8-3-6.6-4.4-2.7-1.4-6.2-3.6-7.7-4.9-1.5-1.2-4.9-3.4-7.5-4.8-2.7-1.4-5.7-3.3-6.7-4.2-1.1-1-2.5-1.8-3-1.8-.6 0-2.7-1.3-4.6-3-1.9-1.6-4.7-3.5-6.2-4.1-1.6-.6-2.8-1.5-2.8-2s-.7-.9-1.6-.9c-.9 0-2.4-.8-3.3-1.9-.9-1-3.6-2.8-6.1-4.1-2.5-1.2-4.7-2.6-5-2.9-.3-.4-2.1-1.8-4-3.1s-3.7-2.7-4-3c-.3-.3-2.5-1.6-5-2.9-2.5-1.4-4.7-2.8-5-3.1-.3-.4-1.9-1.4-3.6-2.3-3.1-1.6-3.1-1.6-2.6.9zM118 61.2c0 .4.7.8 1.5.8s1.5.4 1.5.9.8 1.1 1.8 1.4c2.2.7 7.1 3.7 9.6 5.9 1.1 1 2.6 1.8 3.3 1.8.7 0 1.3.4 1.3 1 0 .5.7 1 1.5 1s1.5.4 1.5 1c0 .5.7 1 1.5 1s1.5.4 1.5.9 1.4 1.4 3 2.1c1.7.7 3 1.6 3 2.1s.7.9 1.6.9c.9 0 2.4.8 3.3 1.8.9 1 3.6 2.9 6.1 4.3 2.5 1.3 4.7 2.6 5 2.9.3.3 2.1 1.7 4 3s3.7 2.7 4 3c.3.3 2.5 1.6 5 2.9 2.5 1.4 5.1 3.1 5.8 3.8.7.7 1.7 1.3 2.2 1.3.5 0 1.5.6 2.2 1.2.7.7 3.3 2.4 5.8 3.7 2.5 1.4 5.2 3.3 6.1 4.3.9 1 2.2 1.8 2.9 1.8.7 0 2 .8 2.9 1.7.9 1 2.5 2.3 3.6 2.9 5 2.7 7 4 8.7 5.4.9.9 4.5 3.1 8 4.9 3.4 1.9 6.8 4 7.6 4.7.7.8 1.7 1.4 2.2 1.4.5 0 1.9 1 3.2 2.2 1.3 1.3 4.3 3.4 6.8 4.8 2.5 1.3 5.4 3.2 6.4 4.2 1.1 1 2.6 1.8 3.3 1.8.7 0 1.3.4 1.3 1 0 .5.6 1 1.3 1 .7 0 2.3.9 3.5 2 1.2 1.1 2.6 2 3.2 2 .5 0 1 .4 1 1 0 .5.5 1 1.1 1 .6 0 2.4 1 4.1 2.1 1.7 1.2 3.3 1.8 3.7 1.3.3-.5 1.8-1.5 3.4-2.3 1.5-.8 2.7-1.8 2.7-2.3 0-.4.7-.8 1.6-.8.9 0 2.4-.8 3.3-1.9.9-1 3.6-2.8 6-4 2.4-1.3 5.3-3.1 6.4-4.2 1.2-1 2.6-1.9 3.1-1.9.6 0 2.5-1.2 4.1-2.6 1.7-1.4 4.4-3.3 6-4.1 1.7-.9 3.2-1.9 3.5-2.3.3-.3 2.5-1.7 5-3.1 2.5-1.3 5.1-2.9 5.8-3.6.6-.6 2.1-1.5 3.2-1.8 1.1-.3 2-1 2-1.5s.9-1.2 2-1.5c1.1-.4 3.1-1.6 4.3-2.8 1.2-1.2 4.2-3.3 6.7-4.6 2.5-1.4 4.7-2.7 5-3.1.3-.3 3.9-2.6 8-5 4.1-2.5 8.1-5 8.8-5.7.7-.7 1.7-1.3 2.2-1.3.5 0 2-1.1 3.4-2.5s3.2-2.5 4.1-2.5c.8 0 1.5-.4 1.5-.9s.8-1.2 1.9-1.6c1-.3 3.1-1.6 4.7-3 1.5-1.3 4.7-3.4 7.1-4.6 2.4-1.2 4.3-2.6 4.3-3.1 0-.4.7-.8 1.5-.8.9 0 2.5-.8 3.6-1.8 1-1.1 3.2-2.5 4.7-3.3 1.5-.8 3.5-2.2 4.6-3.1 1-.9 3.1-2.2 4.7-2.8 1.6-.7 2.9-1.6 2.9-2 0-.4 1.4-1.3 3-2 1.7-.7 3-1.6 3-2.1 0-.4.9-1.1 2-1.4 1.1-.3 2.6-1.2 3.2-1.8 2.5-2.5 8.8-5.6 8.8-4.5 0 1.5-2.3 8.1-3.1 8.8-.3.3-1.6 4-3 8.2-1.3 4.3-2.7 7.8-3.1 7.8-.5 0-.8.9-.8 1.9 0 1.1-.3 2.1-.8 2.3-.4.1-2.3 5-4.2 10.8-1.9 5.8-3.7 10.7-4 11-1.3 1.2-3 5.1-3 6.9 0 1.1-.4 2.3-1 2.6-.6.3-1 1.5-1 2.6 0 1-.3 1.9-.8 1.9-.4 0-1.8 3.6-3.2 8-1.4 4.4-2.8 8-3.2 8-.5 0-.8.9-.8 1.9 0 1.1-.4 2.3-1 2.6-.6.3-1 1.7-1 3s-.4 2.6-.8 2.9c-.5.3-1.9 3.8-3.2 7.8-1.3 4-2.7 7.5-3 7.8-.7.6-4.1 9.8-4.7 12.7-.3 1.3-.9 2.3-1.2 2.3-.4 0-1.8 3.3-3.1 7.2-1.4 4-2.7 7.5-3 7.8-.3.3-1.2 2.5-2 5-.7 2.5-1.6 4.9-2 5.5-.3.5-1.7 4.4-3 8.5-1.4 4.1-2.7 7.7-3.1 8-1.5 1.1-2 5-.7 5 .7 0 2.7 1.2 4.3 2.6 1.7 1.4 4.3 3.3 6 4.1 1.6.9 3.5 2.2 4.3 2.9.7.8 1.7 1.4 2.2 1.4.5 0 1.9 1 3.2 2.3 1.3 1.2 4.4 3.3 7.1 4.7 2.6 1.4 4.7 2.8 4.7 3.2 0 .5.7.8 1.5.8s1.5.4 1.5 1c0 .5.6 1 1.3 1 1 0 16.3 9.4 17.7 11 .9.9 4.5 3 6.3 3.6.9.4 1.7 1 1.7 1.4 0 .4 1.3 1.3 3 2 1.6.7 4 2.1 5.2 3.1 3.5 2.8 4.1 3.2 7.8 5.3 3.3 1.9 4.5 2.7 7.3 5.2.7.5 3.2 2.1 5.7 3.5 2.5 1.3 4.7 2.7 5 3 .3.4 2.7 2.1 5.4 3.8l5 3.1H344.2l-1.8 5.7c-1 3.2-2 6-2.4 6.3-.5.5-5.6 14.3-6.8 18.5-.3 1.1-.8 2.2-1.2 2.5-.4.3-2.2 5-4.1 10.5-1.8 5.5-3.7 10.2-4 10.5-.3.3-1.6 3.6-2.9 7.5-1.3 3.8-2.6 7.2-3 7.5-.4.3-1.8 3.6-3.1 7.5-1.3 3.8-2.7 7.1-3.1 7.3-.5.2-.8 1.7-.8 3.3 0 1.6-.4 2.9-.8 2.9-.5 0-1.5 1.9-2.2 4.2-.8 2.4-1.7 4.7-2 5.3-.4.5-1.3 3.1-2.1 5.7-.7 2.7-1.6 4.8-1.9 4.8-.4 0-1.3 2.3-2 5.1-.8 2.7-1.8 5.2-2.2 5.5-.4.3-.8 1.6-.8 3 0 1.3-.3 2.4-.8 2.4-.8 0-2.2 3.1-4.4 9.5-.7 2.2-1.5 4.2-1.8 4.5-.3.3-1.6 3.9-3 8-1.3 4.1-2.7 7.9-3.1 8.5-.4.5-1.3 2.9-2 5.2-.6 2.4-1.5 4.3-1.8 4.3-.3 0-1.7 3.6-3.1 8-1.4 4.4-2.8 8-3.1 8-.8 0-2.3-3.5-4-9.3-.7-2.6-1.7-4.7-2.1-4.7-.4 0-.8-.8-.8-1.8s-.4-2.2-.9-2.7c-.4-.6-2.3-5.5-4.2-11-1.8-5.5-3.6-10.2-3.9-10.5-.3-.3-1.6-3.7-2.9-7.5-1.4-3.9-2.7-7.2-3-7.5-.6-.5-3.9-8.9-4.9-12.5-.3-1.1-.8-2.2-1.1-2.5-.4-.3-2.2-5.1-4.1-10.8-1.8-5.6-3.7-10.2-4.2-10.2-.4 0-.8-1.4-.8-3 0-1.7-.4-3-.9-3-.4 0-1.9-3.4-3.2-7.5-1.3-4.1-2.7-7.5-3.1-7.5-.5 0-.8-.7-.8-1.5 0-.9-.9-3.5-2-5.7-1.1-2.3-2-5-2-6s-.4-1.8-1-1.8c-.5 0-1-.8-1-1.8s-.4-2.2-.8-2.8c-.5-.5-1.9-4.3-3.2-8.4-1.4-4.1-2.7-7.7-3.1-8-.3-.3-1.2-2.6-2-5.3-.7-2.6-1.6-4.7-1.9-4.7-.4 0-1.3-2.3-2-5s-1.6-5-2-5c-.3 0-1.2-2.1-1.9-4.7-.8-2.7-1.9-5.8-2.4-7.1l-1-2.2H68.6l5-3.1c2.7-1.7 5.1-3.4 5.4-3.8.3-.3 2.5-1.7 5-3 2.5-1.4 4.7-2.7 5-3 .8-.9 10-7.1 10.6-7.1.5 0 1.9-1.1 4.9-3.8.7-.6 1.9-1.2 2.5-1.2.6 0 1.8-.6 2.5-1.3 2.7-2.3 4-3.3 5.5-4 1.9-.9 5.3-3 6-3.7 1.4-1.6 16.7-11 17.8-11 .6 0 1.2-.5 1.2-1 0-.6.7-1 1.5-1s1.5-.3 1.5-.8c0-.4 2.1-1.8 4.8-3.2 2.6-1.4 5.7-3.5 7-4.7 1.3-1.3 2.7-2.3 3.2-2.3s1.5-.6 2.2-1.4c.8-.7 2.7-2 4.3-2.9 1.7-.8 4.4-2.7 6-4.1 1.7-1.4 3.3-2.6 3.8-2.6.4 0 .7-.9.7-2s-.4-2-.8-2c-.5 0-1.5-2.3-2.2-5.1-.8-2.7-1.8-5.2-2.2-5.5-.4-.3-.8-1.3-.8-2.3 0-.9-.9-3.6-2-5.9-1.1-2.2-2-4.8-2-5.7 0-.8-.3-1.5-.8-1.5-.4 0-1.8-3.6-3.2-8-1.4-4.4-2.8-8-3.2-8-.5 0-.8-.6-.8-1.3 0-.7-.9-3.2-2-5.5-1.1-2.2-2-4.8-2-5.7 0-.8-.3-1.5-.7-1.5-.5 0-1.9-3.5-3.2-7.8-1.3-4.2-2.8-8.1-3.3-8.7-.4-.5-.8-1.7-.8-2.7 0-1-.4-1.8-1-1.8-.5 0-1-1.4-1-3 0-1.7-.3-3-.8-3-.4 0-1.8-3.3-3.2-7.3-1.3-3.9-2.7-7.4-3-7.7-.3-.3-1.7-3.8-3-7.8-1.4-3.9-2.7-7.2-3.1-7.2-.3 0-2.1-4.6-4-10.3-1.8-5.6-3.7-10.4-4.1-10.5-.5-.2-.8-1.7-.8-3.3 0-1.6-.4-2.9-.8-2.9-.5 0-1.5-1.9-2.2-4.3-.7-2.3-1.7-4.6-2.2-5.2-.4-.5-.8-1.7-.8-2.7 0-1-.4-1.8-.8-1.8s-1.4-2.1-2.1-4.8c-.8-2.6-1.6-5.3-1.9-6-.2-.7 1.2-.3 3.7 1 2.3 1.2 4.1 2.5 4.1 3z"/><path d="M131 83.3c0 .7.4 1.7.8 2.2.5.6 1.5 3 2.2 5.5.8 2.5 1.7 4.7 2 5 .3.3 1.1 2.3 1.8 4.5 2.2 6.4 3.6 9.5 4.4 9.5.5 0 .8 1.3.8 3 0 1.6.3 3 .8 3 .4 0 1.8 3.5 3.1 7.8 1.3 4.2 2.8 8.1 3.3 8.6.4.6.8 1.8.8 2.8 0 1 .5 1.8 1 1.8.6 0 1 1 1 2.3 0 1.3.4 2.7.9 3.3.5.5 1.4 2.7 2.1 4.9.7 2.2 1.6 4.2 1.9 4.5.4.3 1.7 3.8 3.1 7.7 1.3 4 2.7 7.3 3.2 7.3.4 0 .8 1 .8 2.3 0 1.3.4 2.7.9 3.2.4.6 2.4 5.5 4.2 11 1.9 5.5 3.6 10.2 3.9 10.5.5.5 3.8 9.2 4.8 12.5.3 1.1.8 2.2 1.2 2.5.4.3 1.5 2.9 2.4 5.7 1.9 5.7 3.3 6.5 5.6 3.3.8-1.1 1.9-2 2.5-2 .5 0 2.3-1.1 3.9-2.5 1.6-1.3 3.7-2.7 4.7-3 1.1-.4 1.9-1.1 1.9-1.6s.7-.9 1.5-.9 1.5-.5 1.5-1c0-.6.6-1 1.4-1 .8 0 1.6-.3 1.8-.8.4-.9 5.7-4.1 8.1-4.9.9-.3 1.7-.9 1.7-1.4 0-.5.7-.9 1.5-.9s1.5-.4 1.5-.9 1.6-1.6 3.5-2.5c1.9-.9 4-2.3 4.8-3 .7-.8 3.3-2.4 5.8-3.6 2.4-1.3 5.1-3 5.9-4 .8-.9 3.5-2.7 6-4.1 2.5-1.3 5.3-3.1 6.3-4 1-.9 3.8-2.7 6.2-3.9 5.3-2.7 5.6-4.2 1.5-6.7-1.6-.9-3-2-3-2.3 0-.3-2.2-1.7-5-3.1-2.7-1.3-5-2.7-5-3.2 0-.4-.7-.7-1.5-.7s-1.5-.4-1.5-.8c0-.5-2.2-2.1-5-3.6-2.7-1.5-5.5-3.2-6.3-3.9-.7-.7-2.3-1.8-3.5-2.5-1.2-.6-3.2-1.8-4.4-2.5-1.2-.6-2.8-1.8-3.6-2.5-.8-.7-2.8-2-4.5-2.8-1.6-.9-3.9-2.5-5-3.5-1.2-1-2.7-1.9-3.4-1.9-.7 0-1.3-.3-1.3-.8 0-.4-2-1.8-4.5-3.1s-4.5-2.8-4.5-3.2c0-.5-.7-.9-1.5-.9s-1.5-.5-1.5-1c0-.6-.6-1-1.3-1-.7 0-2.2-.8-3.3-1.8-1-1-3.9-2.9-6.4-4.2-2.5-1.4-5.4-3.3-6.4-4.3-1.1-.9-2.6-1.7-3.3-1.7-.7 0-1.3-.4-1.3-.9s-.8-1.1-1.7-1.4c-2.7-.8-7.6-4-9.4-6-.9-.9-2.2-1.7-2.9-1.7-.7 0-2-.8-2.9-1.8-.9-1-3.5-2.9-5.8-4.2-2.4-1.3-4.3-2.7-4.3-3.2 0-.4-.7-.8-1.5-.8s-1.5-.3-1.5-.8c0-.4-2.3-1.8-5-3.1-2.8-1.4-5-2.9-5-3.3 0-.4-.4-.8-1-.8-.5 0-1 .6-1 1.3zM415 82.7c0 .5-2.2 2-4.9 3.2-2.7 1.3-6.2 3.4-7.7 4.8-1.6 1.4-4.2 3.2-5.9 4-1.6.9-3.2 1.9-3.5 2.3-.3.3-2.5 1.7-5 3.1-2.5 1.3-5.1 3-5.8 3.6-.7.7-3.4 2.5-6 4s-4.8 3.1-5 3.5c-.2.4-1 .8-1.8.8s-2.6 1.1-4 2.5-2.9 2.5-3.3 2.5c-.4 0-2.1 1.1-3.7 2.5s-3.5 2.5-4.1 2.5c-.7 0-1.3.4-1.3 1 0 .5-.7 1-1.5 1s-1.5.4-1.5.8c0 .5-3 2.4-6.6 4.3-3.6 1.9-7.4 4.2-8.4 5.1-1.1 1-2.4 1.8-3 1.8-.5 0-1 .4-1 .9s-1.3 1.4-3 2.1c-1.6.7-3 1.6-3 2 0 .4-1.3 1.3-3 2-1.6.7-3 1.6-3 2.1s-.7.9-1.5.9-1.5.4-1.5.8c0 .5-2.7 2.3-6 4.2-3.3 1.9-6 3.7-6 4.2 0 .4-.9.8-2 .8s-2 .4-2 .8c0 .5-2 1.9-4.5 3.2-2.5 1.3-4.5 2.6-4.5 3 0 .4-1.3 1.3-3 2-3.8 1.6-3.9 4.2-.2 6.1 1.5.8 3.3 2 4 2.6.7.7 1.7 1.3 2.2 1.3.5 0 1.5.6 2.2 1.3.7.7 3.4 2.5 6 4s5.3 3.3 6 4c.7.7 3.3 2.4 5.8 3.8 2.5 1.3 5.1 3 5.8 3.6.7.7 2.8 2 4.7 2.9 1.9.9 3.5 2 3.5 2.5s.7.9 1.5.9 1.5.3 1.5.8c0 .4 2.1 1.8 4.8 3.2 2.6 1.3 5.4 3.2 6.2 4.1.8.9 3.5 2.6 5.9 3.9 2.5 1.2 5.1 2.8 5.8 3.6.8.7 2.7 2.1 4.3 3.1 1.7.9 3 2.1 3 2.5 0 2 1.9.5 3-2.5 2.8-7.2 3.5-8.7 4.2-8.7.5 0 .8-1.1.8-2.4 0-1.4.4-2.7.8-3 .4-.3 1.4-2.8 2.2-5.5.7-2.8 1.6-5.1 2-5.1.3 0 1.2-2.1 1.9-4.8.8-2.6 1.7-5.2 2.1-5.7.4-.6 1.8-4.2 3.1-8 1.3-3.9 2.6-7.2 2.9-7.5.3-.3 1.6-3.7 2.9-7.5 1.3-3.9 2.7-7.2 3.1-7.5.4-.3 1.7-3.7 3-7.5 1.3-3.9 2.6-7.2 2.9-7.5.4-.3 2.6-6.4 5-13.5 2.5-7.2 4.8-13.2 5.2-13.5.3-.3 1.7-3.7 3-7.5 1.3-3.9 2.6-7.2 2.9-7.5 1.1-1 4.2-11.1 3.6-11.7-.3-.4-.6-.2-.6.4zM271.2 176c-1.2 1.1-2.4 2-2.7 2-.4 0-2.6 1.3-5 3-2.4 1.6-4.8 3-5.4 3-.6 0-1.1.4-1.1.8 0 .5-2 1.9-4.5 3.2-2.5 1.3-4.5 2.7-4.5 3.2 0 .4-.7.8-1.5.8s-1.5.4-1.5.9-1.3 1.4-3 2.1c-1.6.7-3 1.6-3 2.1s-.7.9-1.6.9c-.9 0-2.4.8-3.3 1.9-.9 1-3.6 2.8-6 4-2.4 1.3-5.2 3.1-6.3 4-1 1-3.1 2.4-4.6 3.2-1.5.8-3.3 2-4 2.7-.8.7-2.8 2-4.5 2.9-1.8.9-3.4 1.9-3.7 2.3-.3.3-2.5 1.7-5 3.1-2.5 1.3-5.1 2.9-5.8 3.6-.6.6-2.1 1.5-3.2 1.8-1.1.3-2 1.4-2 2.2 0 2.6 4.3 15.3 5.2 15.3.4 0 .8 1.1.8 2.5s.4 2.5.8 2.5c.5 0 1.9 3.4 3.2 7.5 1.3 4.1 2.6 7.5 3 7.5.3 0 1.3 2.3 2 5.1.8 2.7 1.8 5.2 2.2 5.5.4.3.8 1.4.8 2.5 0 1 .5 1.9 1 1.9.6 0 1 1.1 1 2.5v2.5h64.4c69.7 0 65.6.3 65.6-5.1 0-1 .4-1.9.8-1.9.5 0 1.5-1.9 2.2-4.3.7-2.3 1.7-4.6 2.2-5.2.4-.5.8-1.7.8-2.7 0-1 .5-1.8 1-1.8.6 0 1-1.1 1-2.4 0-1.4.4-2.7.8-3 .4-.3 1.4-2.8 2.2-5.5.7-2.8 1.7-5.1 2.2-5.1.4 0 .8-1.1.8-2.5s.5-2.5 1-2.5c.6 0 1-.8 1-1.8s.3-2.2.7-2.6c.8-.8 3.3-7.6 3.3-9.2 0-.6-2.2-2.1-5-3.4-2.7-1.3-5-2.7-5-3 0-.4-1.3-1.3-3-2-1.6-.7-3-1.6-3-2 0-.4-1.3-1.3-2.9-2-1.6-.6-3.7-1.9-4.7-2.8-1.1-.9-3.1-2.3-4.6-3.1-1.5-.8-3.6-2.1-4.6-3-1.8-1.6-2.3-1.9-10.2-6.2-2.5-1.3-5.5-3.4-6.7-4.6-1.2-1.2-3.2-2.4-4.3-2.8-1.1-.3-2-1.1-2-1.6s-.7-.9-1.6-.9c-.9 0-2.4-.8-3.3-1.8-.9-.9-2.8-2.3-4.3-3.1-1.6-.8-2.8-1.8-2.8-2.3 0-.4-.5-.8-1.1-.8-.6 0-3-1.4-5.4-3-2.4-1.7-4.6-3-5-3-.3 0-1.5-.9-2.7-2-1.2-1.1-2.5-2-2.8-2-.3 0-1.6.9-2.8 2zM175 238.4c-1.9 1.1-4.3 2.8-5.3 3.7-1 .9-3.8 2.7-6.2 3.9-2.5 1.3-4.5 2.7-4.5 3.2 0 .4-.7.8-1.6.8-.9 0-2.6.8-3.9 1.7-1.2 1-3.3 2.5-4.5 3.3-1.2.8-2.8 2.1-3.6 2.7-.7.7-1.8 1.3-2.4 1.3-.6 0-1.7.6-2.4 1.2-.8.7-2.4 2-3.6 2.8-1.2.8-3.3 2.3-4.5 3.2-1.3 1-2.7 1.8-3.1 1.8-.4 0-2.1 1.1-3.8 2.4-1.7 1.2-4.4 3.1-6.1 4-1.6.9-4.3 2.5-6 3.6-1.6 1.1-3.7 2.3-4.5 2.7-1.8.8-4 2.9-4 3.7 0 .3 20.9.6 46.5.6H198l-.7-3.3c-.3-1.7-1-3.4-1.5-3.5-.4-.2-.8-1.5-.8-2.8 0-1.3-.4-2.4-1-2.4-.5 0-1-.9-1-1.9 0-1.1-.4-2.3-1-2.6-.5-.3-1-1.7-1-3s-.4-2.6-.8-2.9c-.4-.3-1.4-2.8-2.2-5.5-.7-2.8-1.7-5.1-2.2-5.1-.4 0-.8-.7-.8-1.5 0-.9-.9-3.5-2-5.7-1.1-2.3-2-4.9-2-5.9 0-2.6-2.1-2.8-6-.5zM365.1 243c-1.3 3.8-2.7 7.1-3 7.2-.3.2-2.2 4.9-4.1 10.5-1.9 5.7-3.8 10.3-4.2 10.3-.5 0-.8 1.3-.8 3 0 1.6-.4 3-.9 3s-1.1 1-1.4 2.2c-.2 1.3-.8 3.1-1.2 4-.7 1.7 1.9 1.8 46.4 1.8 25.9 0 47.1-.3 47.1-.6 0-.8-2.2-2.9-4-3.7-.8-.4-2.8-1.6-4.5-2.7-1.6-1.1-4.3-2.7-6-3.6-1.6-.9-4.4-2.8-6.1-4-1.7-1.3-3.4-2.4-3.8-2.4-.4 0-1.8-.8-3.1-1.8-1.2-.9-3.3-2.4-4.5-3.2-1.2-.8-2.8-2.1-3.6-2.8-.7-.6-1.8-1.2-2.4-1.2-.6 0-1.7-.6-2.4-1.3-.8-.6-2.4-1.9-3.6-2.7-1.2-.8-3.3-2.3-4.5-3.3-1.3-.9-3-1.7-3.9-1.7-.9 0-1.6-.4-1.6-.8 0-.5-2-1.9-4.5-3.2-2.4-1.2-5.2-3-6.2-3.9-2.1-1.9-9.1-6.1-10.1-6.1-.4 0-1.8 3.1-3.1 7zM214.6 297.7c.4 1.6 1 3 1.3 3.3.3.3 2.2 5 4 10.5 1.9 5.5 3.7 10.2 4.1 10.5.4.3 1.7 3.6 3.1 7.5 1.3 3.8 2.6 7.2 2.9 7.5.3.3 1.7 3.8 3 7.7 1.4 4 2.8 7.3 3.2 7.3.5 0 .8 1.3.8 3 0 1.6.4 3 .8 3 .5 0 2.4 4.6 4.3 10.2 1.8 5.7 3.7 10.4 4.1 10.6.5.2.8 1 .8 1.8s.9 3.4 2 5.6c1.1 2.3 2 4.8 2 5.5 0 .7.3 1.3.8 1.3.4 0 1.8 3.6 3.2 8 1.4 4.4 2.8 8 3.2 8 .5 0 .8.7.8 1.5s.9 3.4 1.9 5.8c1.1 2.3 3 7.3 4.3 11.2 1.3 3.8 2.6 7.1 3 7.3.5.2.8 1.2.8 2.2 0 1 .5 2.2 1 2.5.6.3 1 1.4 1 2.4 0 1.9 2.2 7.1 3 7.1.3 0 1.6-3.6 3-8s2.8-8 3.2-8c.5 0 .8-.8.8-1.8s.3-2.2.7-2.5c.5-.6 5.6-14.3 7-19.2.4-1.1.9-2.2 1.2-2.5.4-.3 1.8-3.9 3.1-8s2.7-7.7 3-8c.9-.8 5-11.1 5-12.6 0-.7.3-1.4.8-1.6.4-.2 2.3-4.9 4.1-10.6 1.9-5.6 3.8-10.2 4.3-10.2.4 0 .8-1.1.8-2.5s.5-2.5 1-2.5c.6 0 1-1 1-2.3 0-1.3.4-2.7.8-3.3.5-.5 1.5-2.9 2.2-5.4.8-2.5 1.7-4.7 2-5 .3-.3 1.1-2.3 1.8-4.5 2.2-6.4 3.6-9.5 4.4-9.5.5 0 .8-1 .8-2.3 0-1.3.4-2.7.8-3.3.5-.5 2-4.4 3.3-8.6 1.3-4.3 2.7-7.8 3.2-7.8.4 0 .7-.9.7-2 0-2-.7-2-59.5-2H214l.6 2.7z"/></svg>