<svg xmlns="http://www.w3.org/2000/svg" width="590.667" height="590.667" version="1.0" viewBox="0 0 443 443"><path d="M403.087 24.103c-19.422.913-39.374-1.726-58.418 2.878-15.45 4.337-20.494 24.97-10.31 36.818 10.624 13.346 23.137 25.282 35.564 36.839 11.365 8.075 26.421 3.263 39.46 4.688l75.106.398c.523 34.972-.3 70.088 1.056 104.971 2.393 13.523 16.217 20.576 24.457 30.525 10.592 10.584 23.14 24.56 39.838 20.577 13.091-1.004 19.393-15.193 17.556-26.98-.167-63.433.333-126.934-.25-190.325-.532-13.455-14.618-20.682-26.846-18.918-45.732-.982-91.47-1.591-137.213-1.471zM164.11 24.173c-41.16.35-82.369-.233-123.492 1.542-12.25 1.67-19.325 14.186-18.09 25.85-1.137 64.227-2.323 128.525.22 192.732.68 13.791 15.189 21.877 27.876 18.857 16.435-4.19 26.396-19.646 38.744-30.09 8.953-7.437 17.511-17.208 15.48-29.74-.104-32.824.2-65.336 1.14-98.119 35.227-.336 70.59.67 105.731-.5 13.759-2.393 20.766-16.61 30.72-25.116 9.034-10.712 24.574-22.032 19.796-38.045-3.746-14.51-20.477-17.071-33.205-16.942-21.634-.547-43.28-.397-64.92-.429zM540.87 329.551c-17.307 1.487-27.406 17.965-39.515 28.359-8.504 7.744-18.23 16.838-16.347 29.516v97.939c-35.104.336-70.343-.67-105.362.5-13.481 2.262-20.5 16.047-30.39 24.215-10.62 11.065-25.915 23.317-22.117 40.652 1.274 13.128 14.898 20.62 27.155 18.98 64.763.718 129.6.74 194.324.284 13.616-.535 20.817-14.904 18.778-27.23-.42-62.877.988-125.808-1.307-188.65 1.038-14.74-10.175-26.607-25.218-24.565zM294.003 219.985c-9.56.442-17.317 6.882-23.57 13.549-12.948-.312-30.345-.449-35.962 14.01-4.088 8.336-1.717 18.735-4.908 26.731-11.37 9.133-17.064 26.492-7.782 39.068 3.24 5.859 11.08 9.059 9.353 16.77.252 11.677 2.537 26.118 15.61 29.793 7.072 2.285 15.469-.648 22.098 1.75 8.92 9.343 22.058 19.985 35.595 13.124 7.493-3.223 12.915-10.462 19.705-13.99 11.373.526 26.23.898 31.572-11.458 5.554-8.816-2.347-21.68 6.709-28.486 8.309-8.243 16.992-20.313 10.775-32.307-3.386-7.519-11.61-12.225-15.258-18.973 1.178-12.693-1.53-28.41-14.949-33.575-7.21-3.942-16.465-.83-23.367-3.516-6.64-7.086-15.425-13.304-25.621-12.49z" style="fill:#fff;fill-opacity:1;stroke:#b00;stroke-width:0;stroke-miterlimit:4;stroke-dasharray:none;stroke-opacity:1;paint-order:stroke fill markers" transform="scale(.75)"/><path d="M293.243 29.175c-15.633 2.886-25.015 17.613-36.448 27.307-14.164 14.02-28.203 28.162-42.305 42.244-33.201.586-66.477-.205-99.629 1.73-12.013 2.08-18.478 14.446-17.322 25.886-1.074 30.365-1.256 60.753-1.796 91.13-21.751 22.67-45.639 43.484-65.44 67.924-8.406 11.168-2.308 25.844 7.033 34.237 18.957 20.631 39.097 40.133 58.683 60.159.116 32.884.004 65.925 2.225 98.68 1.452 13.438 16.247 18.813 28.145 16.969h85.228c23.182 21.977 44.61 45.964 69.346 66.22 10.942 8.768 26.48 4.334 35.257-5.304 21.24-19.635 41.19-40.612 61.783-60.916 32.326-.337 64.79.67 97.031-.5 13.092-1.004 19.393-15.193 17.556-26.98v-87.005c22.946-23.844 47.878-45.98 68.84-71.628 7.301-10.788 1.483-24.17-7.395-31.955-19.431-21.125-40.059-41.102-60.195-61.545-.896-32.701-.454-65.56-2.178-98.164-1.274-13.483-15.861-18.642-27.691-18.052-29.038-1.064-58.105-.626-87.156-.74-22.687-21.722-43.556-45.524-67.924-65.394-4.54-3.186-10.1-4.843-15.648-4.303Zm-149.007 117.92c-.335 1.026-.792-1.074 0 0zm298.978 3.778c-5.753 2.935 6.192-7.979 0 0zm-134.691 92.121c9.806 8.697 23.647 5.284 35.6 6.555.44 13.084-3.043 29.256 9.145 38.251 2.52 4.437 15.1 8.688 7.937 13.287-8.557 8.151-19.05 17.26-17.081 30.398-1.416 4.935 3.9 16.484-4.863 14.225-11.64-.633-24.78-.42-32.434 9.919-4.862 2.499-9.797 14.882-14.614 7.747-8.487-8.58-17.55-19.703-31.08-17.648-4.778-.004-9.56.039-14.337-.132-.588-13.066 2.127-28.953-10.069-37.77-3.469-4.752-14.748-9.466-5.964-14.237 8.52-7.636 18.075-16.738 16.216-29.322.505-6.8-3.137-17.741 7.473-14.44 12.995.432 30.003.607 36.251-13.408 2.595-7.375 6.997-6.563 10.878-.347l6.942 6.922zm-164.55 206.044c-.014.02-.004-.011 0 0zm152.918 58.323c.738 11.986-7.085-2.031.002-1.52l-.002 1.247z" style="fill:#fff;fill-opacity:1;stroke:#b00;stroke-width:0;stroke-miterlimit:4;stroke-dasharray:none;stroke-opacity:1;paint-order:stroke fill markers" transform="scale(.75)"/><path d="M34.596 328.636c-12.112 5.309-13.05 19.37-12.136 30.857.167 64.002-.334 128.072.25 192.032.536 13.643 14.954 20.84 27.295 18.753 66.503-.524 133.042.29 199.518-1.614 15.467-1.346 23.588-20.746 14.686-33.098-12.19-16.328-27.478-30.2-41.58-44.8-11.446-9.233-27.274-4.028-40.786-5.401h-75.855c-1.187-35.263-.927-70.34-1.39-105.618-1.778-14.43-16.51-21.67-25.221-31.895-11.26-11.26-25.447-25.78-43.025-19.576l-1.221.25zM444.232 127.927c-4.075.132-8.073 1.544-11.387 3.906a32.52 32.52 0 0 0-7.094 6.975c-2.69 3.636-4.207 8.147-4.127 12.68.04 5.178 2.185 10.3 5.853 13.957 3.346 3.386 7.93 5.495 12.673 5.869 4.517.368 9.09-.839 12.987-3.108 2.884-1.682 5.298-4.086 7.182-6.829 1.921-2.639 3.476-5.59 4.188-8.795 1.14-4.894.367-10.205-2.148-14.56-2.534-4.459-6.845-7.856-11.77-9.288-2.06-.609-4.21-.862-6.357-.807zM295.733 485.918c-10.173.012-19.52 7.953-21.267 17.958-1.905 9.704 2.314 20.92 11.516 25.36 9.17 4.83 21.684 1.8 27.269-7.04 4.041-6.04 4.408-13.856 3.006-20.79-2.184-9.231-11.076-15.838-20.524-15.488z" style="fill:#fff;fill-opacity:1;stroke:#b00;stroke-width:0;stroke-miterlimit:4;stroke-dasharray:none;stroke-opacity:1;paint-order:stroke fill markers" transform="scale(.75)"/><path d="M31.7 33.7c-.4.3-.7 34.5-.7 76 0 68.1.2 75.4 1.6 76 1.1.4 5.9-3.7 16.5-14.3L64 156.5l.2-46 .3-46 46-.3 46-.2 13.9-13.9c9.8-9.8 13.7-14.4 13.3-15.5-.6-1.4-8-1.6-76-1.6-41.5 0-75.7.3-76 .7zM259.3 34.6c-.4 1.1 3.4 5.6 13.3 15.5L286.5 64l46 .2 46 .3.3 46 .2 46 14.4 14.4c10.2 10.2 14.9 14.2 16 13.8 1.5-.6 1.6-7.7 1.4-75.9l-.3-75.3-75.3-.3c-68.2-.2-75.3-.1-75.9 1.4z"/><path d="m193.5 62-27 27-39.5.2-39.5.3-.3 39.5-.2 39.5-27 27c-14.9 14.8-27 27.4-27 28 0 .6 12.1 13.2 27 28l27 27 .2 39 .3 39 39 .3 39 .2 27.5 27.5c15.1 15.1 27.9 27.5 28.5 27.5.6 0 13.4-12.4 28.5-27.5l27.5-27.5 38.5-.2 38.5-.3.3-38.5.2-38.5 27.5-27.5c15.1-15.1 27.5-27.9 27.5-28.5 0-.5-12.3-13.3-27.2-28.2L355.5 168l-.5-39.3-.5-39.2-39-.3-39-.2-27-27c-14.8-14.9-27.4-27-28-27-.6 0-13.2 12.1-28 27zm36.9-2.1c9.7 9.7 9.4 10.1-8.9 10.1-18.5 0-18.9-.5-8.4-10.1 4.1-3.8 8.1-6.8 8.9-6.9.9 0 4.6 3.1 8.4 6.9zm23 23c1.8 1.8 2.6 3.6 2.3 4.6-.6 1.3-4.4 1.5-33.9 1.3-31.4-.3-33.3-.4-33.6-2.1-.2-1.1.6-3 1.9-4.3l2.2-2.4h58.3l2.8 2.9zm-131.7 20.7c.8 2.2-17.9 20.9-20.1 20.1-1.3-.5-1.6-2.4-1.6-10.5 0-5.4.3-10.2.7-10.5.3-.4 5.1-.7 10.5-.7 8.1 0 10 .3 10.5 1.6zm28 0c.7 2-45.4 48.6-47.7 48.2-1.1-.2-1.6-1.9-1.8-5.7l-.3-5.5 19.3-19.3 19.3-19.3h5.3c3.9 0 5.4.4 5.9 1.6zm65 0c.4 1.1-1.8 4-7 9.2l-7.6 7.7-.3 15-.3 15-5.2.3c-4.2.2-6.2-.2-9.6-2.2-5.4-3.2-6.5-3.2-7.7-.1-.7 2-1.7 2.5-4.2 2.5-2.9 0-4.7 1.4-13.3 10-5.5 5.5-10.4 10-10.9 10-1.2 0-23-21.1-23.4-22.6-.4-1.4 11-11.4 13-11.4.8 0 2.9 1.6 4.8 3.5s4.3 3.5 5.5 3.5c1.2 0 4.5-2.5 8-6l5.9-5.9 9.5-.3 9.6-.3.3-9.5.3-9.5 5.2-5.3 5.1-5.2h10.8c9 0 11 .3 11.5 1.6zm41 3.6 5.2 5.3.3 9.5.3 9.5 9.6.3 9.5.3 5.9 5.9c3.3 3.3 6.6 6 7.5 6 .9 0 3.4-1.8 5.5-4s4.6-4 5.4-4c1.9 0 13.1 10.9 13.1 12.7 0 .7-1.2 1.9-2.7 2.7-1.6.8-6.8 5.5-11.8 10.5-4.9 5-9.4 9.1-10 9.1-.6 0-5.5-4.5-11-10l-9.9-9.9-14.6-.3-14.5-.3-.3-14.5-.3-14.5-8.1-8.2c-10.7-10.7-10.4-11.3 4.5-11.3h11.3l5.1 5.2zm67.6 14.6 19.8 19.8-.3 5c-.2 3.4-.8 5-1.8 5.2-2.3.4-48.4-46.2-47.7-48.2.5-1.2 2-1.6 5.4-1.6h4.8l19.8 19.8zm19.5-9c.4 14.1-.3 14.2-12.5 1.9-12.3-12.2-12.2-12.9 1.9-12.5l10.3.3.3 10.3zM232.5 162l9.9 10 15.1.2 15 .3.3 15 .2 15 9.8 9.7c5.3 5.4 10.4 9.8 11.2 9.8.8 0 5.9-4.4 11.2-9.8l9.8-9.7.2-15 .3-15h27v17l-4 .5-4 .5-.3 9.6-.3 9.5-6.4 6.4c-3.6 3.6-6.5 6.9-6.5 7.5 0 .6 2.9 3.9 6.5 7.5l6.4 6.4.3 9 .3 9.1 4 .5 4 .5v17h-27l-.3-14.5-.3-14.5-9.7-9.8c-5.3-5.3-10.4-9.7-11.2-9.7-.8 0-5.9 4.4-11.2 9.7l-9.7 9.8-.3 14.5-.3 14.5-14.5.3-14.6.3-10.4 10.4c-5.8 5.8-10.9 10.5-11.5 10.5-.6 0-5.7-4.7-11.5-10.5l-10.4-10.4-14.6-.3-14.5-.3-.3-14.5-.3-14.5-9.7-9.8c-5.3-5.3-10.4-9.7-11.2-9.7-.8 0-5.9 4.4-11.2 9.7l-9.7 9.8-.3 14.5-.3 14.5h-27v-17l4-.5 4-.5.3-9.1.3-9 6.4-6.4c3.6-3.6 6.5-6.9 6.5-7.5 0-.6-2.9-3.9-6.5-7.5l-6.4-6.4-.3-9.5-.3-9.6-4-.5-4-.5v-17h27l.3 15 .2 15 9.8 9.7c5.3 5.4 10.4 9.8 11.2 9.8.8 0 5.9-4.4 11.2-9.8l9.8-9.7.2-15 .3-15 17-.1 17-.1.3-2.4c.4-2.4 14.7-17.9 16.7-17.9.6 0 5.5 4.5 11 10zm128.7 28.7 2.8 2.7v59.2l-2.9 2.8c-1.8 1.7-3.6 2.6-4.5 2.3-1.4-.6-1.6-4.7-1.6-34.5 0-18.6.3-34.2.7-34.5 1.2-1.3 2.7-.7 5.5 2zM86.8 223.3c.2 29 0 32.8-1.3 33.4-1 .3-2.8-.5-4.6-2.3l-2.9-2.8v-57.5l2.7-2.1c5.8-4.5 5.8-4.7 6.1 31.3zm297.9-9.1c4 4 7.3 7.9 7.3 8.8 0 .9-3.3 4.9-7.4 8.9-10.3 10.3-10.6 10-10.6-8.7 0-8.2.3-15.2.7-15.5 1.4-1.5 3-.4 10 6.5zm-316.9 8.6c.3 18-.1 18.3-9.9 8.6-3.8-3.8-6.9-7.3-6.9-7.8 0-1.9 13.3-15.7 14.9-15.4 1.4.3 1.6 2.4 1.9 14.6zm92.7 63.2 9.9 9.9 14.6.3 14.5.3.3 14.5.3 14.5 8.1 8.2c10.6 10.7 10.4 11.3-3.9 11.3h-10.9l-5.6-5.8-5.7-5.7-.3-9.5-.3-9.5-9.6-.3-9.5-.3-5.9-5.9c-3.3-3.3-6.6-6-7.5-6-.9 0-3.4 1.8-5.5 4s-4.6 4-5.4 4c-1.7 0-12.1-9.8-12.1-11.4 0-1.7 21.3-22.6 23-22.6.8 0 6 4.5 11.5 10zm145.7.7c6 5.9 10.8 11.2 10.8 11.8 0 1.6-10.3 11.5-12 11.5-.9 0-3.4-1.8-5.5-4s-4.6-4-5.5-4c-.9 0-4.2 2.7-7.5 6l-5.9 5.9-9.5.3-9.6.3-.3 9.5-.3 9.5-5.7 5.7-5.6 5.8h-10.9c-14.3 0-14.5-.6-3.9-11.3l8.1-8.2.3-14.5.3-14.5 14.5-.3 14.6-.3 9.9-9.9c5.5-5.5 10.6-10 11.5-10 .8 0 6.3 4.8 12.2 10.7zm-179.3 31.7c16.8 16.8 23.2 23.9 22.8 25-.5 1.2-2 1.6-5.4 1.6h-4.8l-19.7-19.7-19.8-19.8v-4.6c0-4.7.5-5.9 2.4-5.9.6 0 11.6 10.5 24.5 23.4zm215.9-18.2.3 4.8-20.2 20c-20.1 19.9-20.1 20-24.5 20-8.4 0-7.4-1.5 17.7-26.6 13.2-13.2 24.1-23.3 24.9-23.2 1 .2 1.6 1.8 1.8 5zm-.3 33.3v11l-10.8.3c-14.7.4-14.8-.2-2.1-12.9 5.4-5.5 10.6-9.8 11.4-9.7 1.2.3 1.5 2.3 1.5 11.3zm-229.6-1.1c12 12.1 11.9 12.8-2.1 12.4l-10.3-.3-.3-9.4c-.3-10.2 0-12.1 2-12.1.8 0 5.6 4.2 10.7 9.4zm142.8 26.2c.3.9-.7 2.8-2.8 5l-3.3 3.4h-56.2l-3.3-3.4c-6.4-6.6-6.3-6.6 31.4-6.6 29.5 0 33.6.2 34.2 1.6zm-20 20c.4 1.1-1.6 3.8-6.3 8.5-3.8 3.8-7.3 6.9-7.9 6.9-.6 0-4.1-3.1-7.9-6.9-9.6-9.7-9.2-10.1 7.9-10.1 11.5 0 13.7.2 14.2 1.6z"/><path d="m214.5 184-5.9 5.9-10 .3-10.1.3-.3 10.1-.3 10-5.9 5.9c-3.3 3.3-6 6.4-6 7 0 .6 2.7 3.7 6 7l5.9 5.9.3 9.5.3 9.6 9.6.3 9.5.3 6.4 6.4c3.6 3.6 6.9 6.5 7.5 6.5.6 0 3.9-2.9 7.5-6.5l6.4-6.4 9-.3 9.1-.3.3-9.1.3-9 6.4-6.4c3.6-3.6 6.5-6.9 6.5-7.5 0-.6-2.9-3.9-6.5-7.5l-6.4-6.4-.3-9.5-.3-9.6-9.6-.3-9.5-.3-5.9-5.9c-3.3-3.3-6.4-6-7-6-.6 0-3.7 2.7-7 6zM31.5 258.2c-.3.7-.4 35.7-.3 77.8l.3 76.5 77.3.3c70.1.2 77.3.1 77.9-1.4.4-1.1-3.8-6-14.8-17L156.5 379l-46-.2-46-.3-.3-46-.2-46-14.7-14.7c-8.1-8.2-15.4-14.8-16.1-14.8-.7 0-1.5.6-1.7 1.2zM393.3 272.2 379 286.5l-.2 46-.3 46-46 .3-46 .2-15.4 15.4c-11 11-15.2 15.9-14.8 17 .6 1.5 7.8 1.6 77.4 1.4l76.8-.3v-77c0-67.6-.2-77-1.5-77.3-.8-.1-7.8 6.1-15.7 14z"/></svg>