<svg xmlns="http://www.w3.org/2000/svg" width="591" height="591" version="1.0" viewBox="0 0 443 443"><path d="M403 24c-19 1-39-2-58 3-16 4-21 25-11 37a345 345 0 0 0 36 37c11 8 26 3 39 4l75 1 1 105c3 13 17 20 25 30 11 11 23 25 40 21 13-1 19-15 17-27V45c0-14-14-21-27-19l-137-2zm-239 0c-41 1-82 0-123 2-13 1-20 14-18 26a3346 3346 0 0 0 0 192c0 14 15 22 28 19 16-4 26-19 38-30 9-7 18-17 16-30l1-98h106c13-3 20-17 30-26 9-10 25-21 20-37-4-15-20-18-33-17l-65-1zm377 306c-17 1-27 18-39 28-9 8-19 17-17 30v98H380c-14 2-21 16-31 24-10 11-26 23-22 41 2 13 15 20 27 19h195c13 0 21-15 19-27-1-63 1-126-2-189 1-15-10-26-25-24zM294 220c-10 0-17 7-24 14-13-1-30-1-36 14-4 8-1 18-4 26-12 9-18 27-8 39 3 6 11 9 9 17 0 12 3 26 16 30 7 2 15-1 22 2 9 9 22 20 35 13 8-3 13-11 20-14 11 0 26 1 32-12 5-8-3-21 6-28 9-8 17-20 11-32-3-8-11-13-15-19 1-13-2-29-15-34-7-4-17-1-23-3-7-8-16-14-26-13z" style="fill:#fff;fill-opacity:1;stroke:#b00;stroke-width:0;stroke-miterlimit:4;stroke-dasharray:none;stroke-opacity:1;paint-order:stroke fill markers" transform="scale(.75)"/><path d="M293 29c-15 3-25 18-36 28l-42 42c-34 0-67 0-100 2-12 2-19 14-17 25l-2 92c-22 22-46 43-66 67-8 12-2 26 7 35l59 60c0 33 0 66 2 98 2 14 17 19 28 17h86c23 22 44 46 69 67 11 8 26 4 35-6 21-19 41-40 62-61h97c13-1 19-15 18-27v-87c23-24 48-46 68-72 8-11 2-24-7-32-19-21-40-41-60-61l-2-98c-2-14-16-19-28-18-29-2-58-1-87-1-23-22-44-46-68-66a24 24 0 0 0-16-4ZM144 147c0 1-1-1 0 0zm299 4c-6 3 6-8 0 0zm-134 92c9 9 23 5 35 6 1 14-3 30 9 39 3 4 15 8 8 13-8 8-19 17-17 30-1 5 4 17-5 15-11-1-24-1-32 10-5 2-10 14-15 7-8-8-17-19-31-17l-14-1c-1-13 2-29-10-37-4-5-15-10-6-15 8-7 18-16 16-29 0-7-3-18 7-14 13 0 30 0 37-14 2-7 7-6 11 0l7 7zM144 449zm153 58c1 12-7-2 0-1v1z" style="fill:#fff;fill-opacity:1;stroke:#b00;stroke-width:0;stroke-miterlimit:4;stroke-dasharray:none;stroke-opacity:1;paint-order:stroke fill markers" transform="scale(.75)"/><path d="M35 329c-12 5-13 19-12 31v192c0 13 15 20 27 18 67 0 133 1 200-1 15-2 23-21 14-33-12-17-27-31-41-45-12-10-28-4-41-6h-76l-1-105c-2-15-17-22-26-32-11-11-25-26-43-20h-1zm409-201c-4 0-8 2-11 4a33 33 0 0 0-7 7 21 21 0 0 0-4 13 20 20 0 0 0 18 19 23 23 0 0 0 20-10 24 24 0 0 0 5-8 20 20 0 0 0-14-24l-7-1zM296 486c-10 0-20 8-22 18-1 10 3 21 12 25a21 21 0 0 0 27-7 28 28 0 0 0 3-21 21 21 0 0 0-20-15z" style="fill:#fff;fill-opacity:1;stroke:#b00;stroke-width:0;stroke-miterlimit:4;stroke-dasharray:none;stroke-opacity:1;paint-order:stroke fill markers" transform="scale(.75)"/><path d="M32 34a2062 2062 0 0 0 1 152c1 0 6-4 16-15l15-14v-46l1-46 46-1h46l13-14 14-15c-1-2-8-2-76-2l-76 1zm227 1 14 15 14 14h46l46 1v92l14 14 16 14c2-1 2-8 2-76l-1-75-75-1c-68 0-75 0-76 2z"/><path d="m194 62-27 27h-40l-39 1-1 39v40l-27 27a489 489 0 0 0-27 28l27 28 27 27v39l1 39h78l27 28a553 553 0 0 0 29 27l28-27 28-28h77v-77l28-28a553 553 0 0 0 27-28 593 593 0 0 0-27-29l-27-27-1-39V89h-78l-27-27a489 489 0 0 0-28-27c-1 0-14 12-28 27zm36-2c10 10 10 10-8 10-19 0-19 0-9-10l9-7c1 0 5 3 8 7zm23 23 3 5-34 1-34-2 2-5 2-2h59l2 3zm-131 21c1 2-18 21-20 20s-2-3-2-11l1-10 10-1c8 0 10 0 11 2zm28 0c0 2-46 48-48 48-1 0-2-2-2-6v-5l19-20 20-19h5c4 0 5 0 6 2zm65 0-7 9-8 8v30h-6c-4 0-6 0-9-2-6-4-7-4-8 0-1 2-2 2-4 2-3 0-5 1-13 10a93 93 0 0 1-11 10 216 216 0 0 1-24-23c0-1 11-11 13-11l5 4 6 3 8-6 5-6h20v-19l5-6 5-5h11c9 0 11 0 12 2zm41 3 5 6v9l1 10h19l6 6a26 26 0 0 0 7 6l6-4 5-4a43 43 0 0 1 13 13s-1 2-3 2l-11 11a66 66 0 0 1-10 9c-1 0-6-4-11-10l-10-10h-15l-14-1-1-14v-15l-8-8c-11-10-11-11 4-11h12l5 5zm67 15 20 20v5c0 3-1 5-2 5-2 0-48-46-48-48 1-2 2-2 6-2h4l20 20zm20-9c0 14 0 14-13 2-12-12-12-13 2-13l10 1 1 10zm-110 49 9 10h31v31l10 9a59 59 0 0 0 11 10c1 0 6-4 11-10l10-10v-29h28v17h-4l-4 1-1 9v10l-7 6a38 38 0 0 0-6 8l7 7 6 6v19h5l4 1v17h-27l-1-15v-14l-10-10a61 61 0 0 0-11-10 61 61 0 0 0-11 10l-10 9v30h-30l-10 11a90 90 0 0 1-11 10l-12-10-10-11h-29l-1-15v-14l-10-10a61 61 0 0 0-11-10 61 61 0 0 0-11 10l-10 9v30h-27v-17l4-1h4v-19l7-6 6-7-6-8-7-6v-20h-8v-17h27v30l10 9a59 59 0 0 0 11 10c1 0 6-4 11-10l10-10v-29l18-1h17v-2a72 72 0 0 1 17-18l11 10zm128 29 3 2v60l-3 2-4 3c-2-1-2-5-2-35l1-34c1-2 2-1 5 2zM87 223l-1 34-5-3-3-2v-58l3-2c6-5 6-5 6 31zm298-9 7 9-7 9c-11 10-11 10-11-9l1-15c1-2 3-1 10 6zm-317 9c0 18 0 18-10 8a48 48 0 0 1-7-7c0-2 13-16 15-16 1 0 2 3 2 15zm93 63 9 10h30v30l8 8c11 10 11 11-4 11h-11l-5-6-6-6v-18l-10-1h-10l-5-6a26 26 0 0 0-8-6l-5 4-6 4a40 40 0 0 1-12-11c0-2 21-23 23-23l12 10zm145 1 11 11a40 40 0 0 1-12 12l-5-4-6-4a26 26 0 0 0-7 6l-6 6h-19l-1 10v10l-6 5-5 6h-11c-15 0-15-1-4-11l8-9v-28l15-1h15l10-10 11-10 12 11zm-179 31c17 17 23 24 23 25-1 2-2 2-6 2h-5l-19-20-20-19v-5c0-5 0-6 2-6a388 388 0 0 1 25 23zm216-18v5l-20 20c-20 20-20 20-25 20-8 0-7-1 18-27a254 254 0 0 1 25-23c1 0 2 2 2 5zm-1 33v12h-10c-15 0-15 0-2-13a51 51 0 0 1 11-10l1 12zm-229-1c12 12 12 13-2 13l-11-1v-9c0-10 0-12 2-12l11 9zm143 27-3 5-3 3h-57l-3-3c-6-7-6-7 31-7 30 0 34 0 35 2zm-20 20-7 8a43 43 0 0 1-8 7l-7-7c-10-10-10-10 7-10 12 0 14 0 15 2z"/><path d="m215 184-6 6h-10l-11 1v20l-6 6-6 7 6 7 6 5v20h20l6 7 8 6 7-6 6-7h19v-19l7-6 6-7-6-8-7-6v-10l-1-10h-19l-6-6-7-6-7 6zM32 258l-1 78v77h78c70 0 77 0 78-2l-15-17-15-15H65l-1-46v-46l-15-15a133 133 0 0 0-16-15 2 2 0 0 0-1 1zm361 14-14 15v92h-92l-16 15-15 17c1 2 8 2 78 2l77-1v-77c0-67-1-77-2-77l-16 14z"/></svg>