<svg xmlns="http://www.w3.org/2000/svg" width="729" height="720" version="1.0" viewBox="0 0 547 540"><path d="M275-2c-15 1-22 16-26 29l-7 23c-10 2-20 6-30 5-19-9-45 1-51 22-2 5-8 8-12 9-17-7-33-18-51-23-16-1-29 18-20 32l20 43c-5 6-8 15-16 16-19 7-30 31-20 50 4 7-2 16-2 24-2 6-12 5-18 9-12 5-27 7-36 16-8 11-5 29 8 34 15 7 31 11 46 16 1 10 7 20 2 29-6 18 4 39 23 45 5 4 8 10 12 15-8 18-19 34-25 53a21 21 0 0 0 23 23c14-2 27-11 40-17 4-2 9-6 14-7 6 3 12 7 14 15 8 16 27 26 45 19 5-2 9-4 14-1 6 2 13 2 17 5 7 17 10 36 20 52 9 11 31 9 36-5l12-35c40-1 80 0 119-2 12-2 18-15 19-27 11 6 27 2 31-11 6-15-6-28-11-41l-12-23c4-6 7-14 15-16 16-7 25-27 18-43-4-9 2-18 3-27 18-7 37-11 53-20 12-10 9-31-5-37-15-7-31-11-47-17-1-8-5-16-5-24 8-14 6-34-8-44-5-6-12-8-18-12-3-4-9-9-4-15 6-14 15-27 18-42s-13-28-27-23c-15 5-29 13-43 20-7-6-17-9-19-18-4-11-14-16-22-22-11-12-29-8-43-8-5-1-13 4-14-3-5-13-6-31-20-39a19 19 0 0 0-10-2zm1 31c4 13 8 27 14 40 6 4 14-1 20-1l33-2c-1 7 6 11 12 10 7 3 7 11 9 18 6 6 17 9 23 15 6 4 14 11 21 6l38-19-22 45c2 7 8 11 11 17 5 8 9 20 20 18 4 2 8 6 10 10 1 8-11 12-7 20l9 42c5 5 14 5 21 8 10 4 22 6 32 11-17 6-35 11-51 18-4 6-4 15-6 22-1 9-7 17-5 26 6 4 8 12 3 17s-13 2-16 8l-19 27c-3 7 4 13 6 19l18 36-49-25c-7 0-13 6-16 12 0 9 9 15 14 21 7 6 14 10 21 14 0 3 1 9-4 7-39-2-78-1-117-2 0-6-8-4-8 1l-16 44-17-51c-6-4-15-3-21-6-10 0-19-7-29-6-5 4-11 10-17 5-6-3-6-9-8-15-7-9-18-13-27-20-7-7-16 2-23 5l-33 17 25-50c-2-9-11-15-15-23-3-6-6-15-15-15-9 1-14-11-8-18 7-7 0-16 0-24l-6-27-50-17c16-6 33-10 49-18 5-11 5-24 8-36 2-6 5-13-1-17a10 10 0 0 1 0-17c5-7 16 2 18-7 6-11 14-20 20-30 1-7-5-14-7-20l-15-30c16 7 31 16 47 22 9 0 14-9 22-12 6-3 14-7 12-15 1-9 14-14 21-7 6 6 15-1 22-1 11-3 22-3 33-7 7-14 9-30 15-44v1z" style="fill:red;stroke-width:1.13981"/><path d="M368-7c-22 2-35 23-40 42-4 9-5 20-10 28-14 4-30 8-44 3-25-5-52 8-62 32-4 7-13 16-20 9-21-9-41-23-64-27-22 0-40 27-29 46 8 20 17 38 26 57a47 47 0 0 1-24 21 54 54 0 0 0-22 69c3 10-2 22-5 32-22 8-45 13-64 26s-14 47 7 55c19 9 39 14 59 22 3 13 6 26 1 39a55 55 0 0 0 33 59c5 5 12 12 13 19-11 24-26 46-30 73-2 20 22 36 41 29 23-7 43-20 64-30 15 6 16 24 28 33 15 15 39 19 58 10 11-2 21 4 31 6 9 23 14 49 29 69 12 14 35 14 47 1 10-13 13-30 19-45 0-13 13-8 21-9 46-1 92 1 137-2 17-2 26-18 29-34 13 1 28 2 36-9 13-15 7-37-2-52l-22-45a52 52 0 0 1 24-22 52 52 0 0 0 19-61c-2-10 2-20 5-29 24-9 50-14 71-29 10-10 8-25 6-37-9-19-32-21-48-28l-29-10c-3-13-9-27-2-40 8-22-5-47-24-58-8-5-19-10-22-19 8-24 25-45 26-70-2-20-25-36-44-27-18 6-35 16-53 24a51 51 0 0 1-25-25c-9-14-24-24-38-33-20-10-43-2-63-4-9-19-11-45-32-56l-12-3zm-3 45c7 18 12 37 20 54 8 6 18-1 27-1 14-2 29-4 44-3-2 9 7 15 15 13 10 4 10 16 12 24 9 8 22 12 31 21 8 5 18 14 28 7l51-25c-9 21-21 40-29 61 1 8 10 14 13 22 7 10 12 26 27 24a28 28 0 0 1 14 13c1 11-15 16-9 27a493 493 0 0 1 12 56c7 7 19 6 27 10 14 6 29 8 43 15-22 8-46 15-68 24-5 8-5 20-8 30-2 11-10 22-6 34 7 5 10 16 3 23-6 7-17 2-22 10l-24 37c-4 9 6 17 8 25l24 47a1205 1205 0 0 1-65-33c-9 1-18 8-22 16 1 12 12 20 19 28 8 8 18 14 27 19 0 3 2 12-5 10-51-3-103-1-155-4-1-7-11-5-12 1-8 20-13 40-20 59-9-22-14-46-23-68-8-5-20-4-29-7-13-1-25-10-38-8-6 5-14 13-22 7-8-4-9-13-11-21-9-11-24-17-36-26-10-9-22 3-31 6l-43 23c10-23 23-45 32-67-3-12-14-20-19-31-5-7-9-19-20-19-12 1-19-15-11-24 9-9 0-22-1-32-3-12-3-25-8-36l-66-23c21-8 44-14 65-24 7-15 7-32 12-48 2-8 6-18-2-23-8-6-7-16 1-22 5-9 20 2 24-10 7-14 18-26 25-40 2-10-6-18-9-27l-20-40c21 10 41 22 63 30 12 0 19-12 29-16 8-4 19-9 17-20 0-13 18-19 27-10 8 9 20 0 29-1 15-4 30-4 44-10 10-18 13-39 21-58v1z" style="fill:#fff;stroke-width:1.51975" transform="scale(.75)"/><path d="m273 22-2 3-2 5-12 40-12 1-24 5-13 3-3-2c-6-6-14-6-20 0a13 13 0 0 0-5 12c0 3 0 4-6 7a75 75 0 0 0-17 11c-3 3-5 4-7 4-3 0-13-4-14-6l-19-9a261 261 0 0 1-23-11l9 18a354 354 0 0 0 18 37l-8 11a81 81 0 0 0-10 16c-3 6-4 6-7 6-8 0-9 0-13 4-4 5-5 7-5 13l5 8 3 4-3 12-4 21-2 11c0 1-4 3-25 9a325 325 0 0 0-29 11l-3 1 15 5 16 6 14 5 13 4v5l6 30c2 7 2 7 0 9-5 6-6 13-3 19 3 4 7 6 13 7h5l4 8c4 8 8 13 10 14l4 6 3 5-4 8a63 63 0 0 1-4 9l-9 18a309 309 0 0 1-12 23 246 246 0 0 0 38-19l15-8 4-2 7 4 7 5a110 110 0 0 1 17 11l1 3v6c0 3 7 10 11 11 5 1 10 0 14-4l3-3 8 2a27 27 0 0 1 8 2c0 1 8 3 20 4l10 3 9 25a349 349 0 0 0 10 29 8 8 0 0 0 1 3 236 236 0 0 0 12-35l4-9c2-10 5-13 5-7v2h58a629 629 0 0 1 68 0c1-2 2-11 0-11l-2-1-8-5c-8-4-14-10-17-14a20 20 0 0 0-3-5 14 14 0 0 1-4-5c-1-3-2-3 5-8l3-3c2-1 5-1 7 2l17 8a222 222 0 0 1 16 8l21 10a212 212 0 0 0-11-22 127 127 0 0 1-9-17l-8-16v-6l13-19c4-8 6-10 10-10 5 0 8-2 12-6 2-2 2-3 2-8l-1-7-2-2-2-3c-1-1-1-1 1-11l3-10a70 70 0 0 0 4-17v-6l14-4 14-5 16-5a77 77 0 0 0 16-6 8 8 0 0 0-4-2 71 71 0 0 0-14-5l-26-8-16-5v-3a108 108 0 0 0-7-33l-3-10 4-4c4-3 4-4 5-8 0-6 0-6-5-11s-6-5-12-5a6 6 0 0 1-4-1l-11-17-5-7c-4-4-4-5-4-7l2-4 8-16 9-17 7-14c-1-1-32 14-34 16s-16 8-18 8-14-8-14-9l-15-9-7-4v-6c-1-9-4-13-13-14h-6v-9h-5a215 215 0 0 0-48 5l-3-7a193 193 0 0 1-9-25 135 135 0 0 0-6-17l-1 3zm67 46-1 2-9 3a51 51 0 0 1-10 3 24 24 0 0 0-7 2l-12 4a39 39 0 0 0-9 3l-9 4a572 572 0 0 0-17 6l-14 5-8 4a25 25 0 0 1-7 4 89 89 0 0 0-19 13 164 164 0 0 0-21 18 205 205 0 0 1-13 12l-4 5-1 1-11 15a66 66 0 0 1-6 9 117 117 0 0 0-13 26l-2 4c-3 0-7 23-7 39s3 33 7 37l6 8 10 11 10 8a42 42 0 0 0 14 7c11 3 18 4 30 2a74 74 0 0 0 30-15 113 113 0 0 0 32-39 164 164 0 0 0 7-15l1-1c2 0 6-19 6-27v-6h46l-1-48c-1-10-4-17-9-23a83 83 0 0 0-25-23l-3-3 52-1 54 1c4 0 4 2 0 4-3 1-13 8-14 10a89 89 0 0 0-15 23l-2 6-1 48v7h11c10-1 12-1 17-3 6-3 12-8 12-10l3-5a35 35 0 0 0 8-15 5 5 0 0 1 2-3c3-3 3-1 4 48a1369 1369 0 0 0 0 56c-1 1-4 0-4-2l-2-5a13 13 0 0 1-3-4c0-2-8-8-14-11a47 47 0 0 1-7-4c-2-2-6-3-16-4h-11v78l1 79 2 4 3 9 3 7a22 22 0 0 0 3 4l3 4 8 8 6 5 10 5c9 4 6 4-55 5l-60-1c0-2 3-4 9-6l7-4 6-4a37 37 0 0 0 14-15c5-11 5-10 5-96v-81h-38c-3 0-4 0-5 4a160 160 0 0 1-16 32 304 304 0 0 1-10 17l-3 4a101 101 0 0 0-6 7 71 71 0 0 1-6 6l-2 3-4 5-10 7-7 4-1 1c-2 3-26 11-37 12a61 61 0 0 1-42-14l-15-14-10-18c-1 0-5-9-8-23a156 156 0 0 1 7-92l7-11 12-22a67 67 0 0 0 11-14l2-2 11-12a94 94 0 0 1 11-11c2 0 11-8 13-11l7-5a72 72 0 0 0 16-10l6-3 9-4 27-11a109 109 0 0 1 20-7 194 194 0 0 1 45-10c0-1 4-2 11-2 4 0 5 0 5 2z"/><path d="m415 621-16-1 8-4a147 147 0 0 0 33-23l8-13c4-8 4-11 5-38l2-112v-84h-28c-21 0-29 0-30 2l-6 14a157 157 0 0 1-9 19 756 756 0 0 0-13 22 203 203 0 0 1-46 53c-35 26-76 32-106 16-11-6-30-24-34-31l-8-13c-12-17-20-51-20-82 0-23 8-64 16-76l11-22c4-8 12-20 17-26a136 136 0 0 0 10-14 445 445 0 0 1 64-58l12-8a123 123 0 0 1 30-15l28-12a309 309 0 0 1 65-19l24-5c11-3 21-3 20 0l-14 6c-52 16-103 35-122 46a325 325 0 0 0-59 47 168 168 0 0 0-35 42c-15 22-30 52-32 66-6 24-5 57 1 76 3 9 13 22 28 35a76 76 0 0 0 60 23c24-1 45-13 69-38a166 166 0 0 0 31-47 103 103 0 0 0 12-45l1-7 30-1 30-1v-33c0-38-2-48-13-63-8-11-22-24-30-28-5-2-6-3-4-4 2-2 114-2 131 0l10 1-10 6a75 75 0 0 0-29 33c-7 15-8 24-8 65v26h10c15 0 26-3 34-8s22-24 25-33l3-8c3-1 3 14 4 79l-1 59-2-1c0-3-11-18-15-21l-15-10a44 44 0 0 0-24-7l-16-2h-4l1 105c1 120 0 114 16 138a114 114 0 0 0 40 32c0 3-103 4-140 2z" style="fill:#fff;stroke-width:1.51975" transform="scale(.75)"/></svg>