<svg xmlns="http://www.w3.org/2000/svg" width="729.333" height="720" version="1.0" viewBox="0 0 547 540"><path d="M275.304-1.93c-15.09.788-22.792 16.226-26.254 29.059-2.562 7.74-5.065 15.5-7.598 23.25-9.664 1.16-19.538 5.442-29.07 4.634-19.2-9.027-44.911 1.126-51.273 21.716-1.862 4.99-7.949 8.069-12.398 9.419-17.206-7.398-33.135-18.251-51.258-23.26-15.53-.973-28.563 17.878-19.99 31.655 6.112 14.684 13.437 28.815 20.317 43.143-4.684 5.779-7.5 14.675-15.781 15.806-19.015 7.288-29.818 31.566-19.99 50.004 4.137 7.477-1.707 16.062-2.058 24.038-1.657 6.792-12.377 5.597-17.92 8.965-12.266 4.996-26.836 7.103-36.522 16.772-7.492 10.777-4.462 28.628 8.862 33.348 14.605 6.843 30.198 11.246 45.35 16.679.83 9.59 6.84 19.506 1.901 28.729-6.004 17.93 4.768 39.162 22.963 44.597 5.424 3.94 8.14 10.488 12.204 15.655-7.918 17.54-18.89 33.944-24.316 52.5-2.153 12.676 9.776 25.045 22.596 23.32 14.454-1.84 26.55-11.372 39.684-17.03 4.772-1.86 9.446-5.91 14.214-6.746 6.225 3.07 12.503 7.257 14.06 14.444 7.885 16.084 27.566 26.645 44.997 19.746 4.722-2.33 9.344-4.063 14.28-1.088 5.391 2.194 12.553 2.103 16.884 5.018 6.463 17.181 9.902 35.93 19.733 51.625 9.305 11.225 30.899 9.133 36.063-5.296 5.15-11.265 8.281-23.308 12.237-35.014 39.742-.468 79.59.74 119.269-1.269 12.06-2.842 17.823-15.875 18.628-27.209 11.24 5.289 27.403 1.603 31.294-11.246 5.169-14.727-6.302-27.978-11.71-40.782l-11.707-22.994c4.113-6.091 7.442-13.989 15.336-15.851 15.861-7.233 24.847-26.874 17.99-43.302-4.73-8.965 1.855-18.278 3.128-27.429 17.387-6.73 36.253-10.421 52.449-19.869 11.831-9.313 9.585-31.216-5.16-36.532-15.021-6.985-31.126-11.236-46.706-16.756-1.447-8.208-5.18-16.682-5.3-24.735 8.057-13.976 6.171-34.088-7.358-44.093-4.918-5.448-12.27-7.24-17.972-11.3-3.021-4.72-9.617-9.79-4.434-15.25 5.939-14.147 15.54-27.187 18.31-42.46 2.306-14.325-12.858-27.927-26.78-22.956-15.176 4.914-28.929 13.306-43.339 20.007-6.78-5.51-17.58-8.43-19.319-18.146-3.864-10.282-13.92-15.28-21.957-21.692-10.876-12.275-28.933-8.04-43.275-7.631-4.779-.79-13.026 4.23-13.379-3.183-5.686-13.203-6.599-31.102-20.58-38.775-2.86-1.512-6.103-2.333-9.345-2.235zm.236 30.75c4.827 13.401 8.576 27.34 14.793 40.186 5.808 4.27 13.523-.86 20.055-.652 10.987-1.196 21.926-2.71 32.906-2.22-1.17 6.73 5.65 10.803 11.617 9.936 7.364 2.727 7.243 11.36 8.566 17.64 6.853 6.206 17.043 8.793 23.825 15.677 5.898 4.014 13.384 10.935 20.616 5.478 12.88-5.803 25.404-12.68 38.191-18.457-6.664 15.114-15.377 29.804-21.83 45.024 1.192 6.266 7.472 10.898 10.235 16.854 4.892 7.357 9.219 19.342 20.128 18.116 4.178 1.733 8.695 5.43 10.508 9.544 1.04 8.129-10.94 11.98-7.16 20.372 4.027 13.865 7.082 27.796 9.386 41.879 5.091 4.975 13.942 4.92 20.46 7.96 10.593 3.901 21.85 5.806 32.107 10.555-16.938 6.427-34.609 11.377-51.277 18.161-3.744 6.4-3.313 15.269-5.953 22.36-1.043 8.356-7.011 16.94-4.229 25.36 5.062 4.107 7.518 12.307 2.147 17.241-4.194 5.269-12.428 2.122-16.16 8.126-6.338 8.882-12.07 18.245-18.09 27.338-3.053 6.671 3.952 12.862 5.73 18.996 5.84 11.89 12.1 23.568 17.834 35.512-16.412-7.773-32.907-16.056-48.67-24.733-6.924.227-13.528 5.895-16.418 11.915.572 8.84 8.918 14.963 14.605 20.972 6.027 5.663 13.117 9.972 20.224 14.12 0 2.52.983 9.096-3.713 7.132-38.838-1.942-77.787-.68-116.624-2.476-.803-5.51-8.329-3.957-8.816.922-6.018 14.328-10.23 29.31-15.149 44.028-6.423-16.765-10.843-34.411-17.303-51.027-5.915-4.046-14.6-3.071-21.41-5.156-9.805-.855-18.848-7.937-28.794-6.244-4.725 3.408-10.622 9.842-16.786 5.029-6.022-3.062-6.364-9.83-7.62-15.464-7.088-8.68-18.264-12.992-27.073-19.728-7.583-6.9-16.434 2.13-23.607 4.94-10.746 5.611-21.553 11.258-32.277 16.643 7.685-16.772 17.047-33.143 24.334-50.042-2.273-8.62-10.82-14.667-14.766-22.889-3.423-5.595-6.359-14.777-14.773-14.298-9.198.158-14.24-11.84-7.872-18.507 6.69-6.846-.337-15.896-.817-23.859-2.457-8.827-2.134-18.623-5.953-26.87-16.453-6.075-34.073-11.465-50.09-17.357 16.116-6.155 33.377-10.326 49.024-17.61 5.534-11.184 5.144-24.607 8.768-36.265 1.475-5.878 5.046-13.167-1.629-17.22-5.364-4.422-4.729-12.376.751-16.413 4.232-6.9 15.495 1.297 18.08-7.734 5.5-10.518 13.518-19.525 19.035-29.948 1.387-7.161-4.737-13.428-6.845-19.966-4.862-10.131-10.071-20.09-14.976-30.202 15.836 7.254 31.027 16.347 47.38 22.247 8.81.121 14.331-8.636 21.915-11.973 5.665-3.126 13.891-6.601 12.35-14.624.262-9.672 13.819-14.513 20.38-7.389 6.2 6.113 15.04-.651 22.092-1.081 10.735-3.22 22.42-2.968 32.736-7.13 7.218-13.702 9.77-29.493 15.486-43.895l.383 1.074z" style="fill:red;stroke-width:1.13981"/><path d="M367.785-6.892c-21.717 1.838-34.985 22.837-39.96 42.17-3.645 9.038-5.158 19.821-10.043 27.825-14.284 3.886-29.557 7.802-44.05 2.855-24.897-4.919-51.994 8.44-61.826 32.123-3.51 7.32-12.76 16.009-20.392 8.849-20.988-9.348-40.79-23.304-63.82-26.976-21.95-.249-39.656 26.748-28.503 46.48 7.499 19.421 16.895 38.033 26.244 56.61-5.022 10.169-14.143 16.586-24.185 21.12-23.35 13.159-34.625 44.354-22.755 68.9 3.848 10.301-1.492 21.805-4.877 31.531-21.203 8.534-44.681 13.103-63.934 26.017-18.499 13.6-14.043 47.048 7.653 55.171 18.89 8.925 39.02 14.839 58.59 22.045 3.052 12.924 6.146 26.496.914 39.282-4.578 24.213 9.921 49.978 32.726 59.096 5.732 4.784 12.867 11.799 13.729 18.826-10.85 23.792-26.745 46.334-30.672 72.644-1.404 20.436 22.863 36.448 41.523 28.968 22.415-7.087 42.614-19.542 63.663-29.749 14.906 5.781 16.561 23.88 28.427 33.138 14.981 14.885 38.668 18.953 57.855 10.213 10.705-2.299 20.771 4.078 31.14 5.872 9.095 23.096 13.304 49.004 28.24 69.335 12.199 13.864 35.13 13.38 47.789.354 10.171-12.76 12.66-29.985 18.754-44.841-.098-12.932 12.623-8.025 21.222-8.855 45.575-.607 91.302 1.022 136.784-1.814 16.718-2.395 26.116-18.684 29.056-33.921 12.49.29 27.434 1.792 36.02-9.442 12.911-14.826 6.563-36.79-1.928-52.194-7.187-14.897-14.645-29.662-21.963-44.495 5.031-10.35 14.434-16.578 24.23-21.754 19.862-12.814 27.067-40.076 18.344-61.666-1.67-9.872 2.118-19.483 4.731-28.83 24.008-9.252 50.783-13.85 71.788-29.425 9.715-9.305 8.113-24.827 5.509-36.756-8.68-18.452-31.507-20.834-48.315-27.966-9.377-3.225-18.76-6.434-28.139-9.654-3.48-12.892-9.363-26.95-2.636-39.905 7.88-22.314-4.523-47.012-24.262-58.443-7.808-5.072-18.538-9.721-21.639-19.076 8.563-23.25 25.642-44.364 26.483-69.876-1.765-19.942-24.782-35.573-43.764-27.03-18.657 6.466-35.946 16.21-53.762 24.605-10.53-5.878-20.293-13.518-24.642-25.147-9.125-14.618-24.563-23.874-38.267-33.687-19.804-9.453-42.486-2.011-63.159-3.348-8.33-19.155-10.7-45.55-31.66-56.374-3.843-1.705-8.01-2.997-12.261-2.805zm-2.398 45.32c6.436 17.867 11.434 36.453 19.724 53.58 7.744 5.694 18.03-1.147 26.74-.869 14.649-1.595 29.234-3.615 43.875-2.96-1.56 8.973 7.534 14.403 15.488 13.247 9.82 3.637 9.658 15.148 11.423 23.52 9.137 8.276 22.723 11.724 31.765 20.903 7.864 5.352 17.847 14.58 27.49 7.304 17.172-7.736 33.87-16.906 50.92-24.609-8.885 20.153-20.502 39.739-29.107 60.031 1.59 8.355 9.963 14.532 13.647 22.472 6.523 9.81 12.292 25.79 26.837 24.156 5.57 2.31 11.594 7.24 14.01 12.725 1.387 10.838-14.586 15.972-9.545 27.162 5.37 18.487 9.442 37.063 12.514 55.84 6.789 6.632 18.589 6.559 27.28 10.613 14.123 5.201 29.133 7.741 42.81 14.074-22.584 8.568-46.146 15.169-68.37 24.214-4.993 8.534-4.417 20.358-7.937 29.813-1.392 11.14-9.349 22.588-5.638 33.812 6.749 5.477 10.023 16.41 2.861 22.99-5.59 7.024-16.57 2.828-21.547 10.834-8.45 11.843-16.092 24.327-24.12 36.45-4.07 8.895 5.27 17.15 7.64 25.328 7.787 15.854 16.136 31.425 23.78 47.35-21.883-10.364-43.876-21.408-64.893-32.977-9.233.303-18.039 7.86-21.89 15.886.762 11.787 11.889 19.951 19.472 27.963 8.036 7.55 17.489 13.296 26.966 18.826-.001 3.36 1.31 12.128-4.951 9.51-51.784-2.59-103.716-.907-155.499-3.3-1.07-7.348-11.105-5.277-11.754 1.228-8.025 19.103-13.64 39.08-20.2 58.703-8.564-22.352-14.456-45.88-23.07-68.035-7.886-5.394-19.466-4.095-28.547-6.875-13.073-1.14-25.13-10.582-38.392-8.326-6.3 4.544-14.162 13.124-22.38 6.706-8.03-4.082-8.486-13.106-10.161-20.618-9.45-11.574-24.353-17.323-36.097-26.305-10.11-9.2-21.913 2.84-31.477 6.587-14.328 7.482-28.737 15.012-43.035 22.19 10.246-22.361 22.729-44.19 32.445-66.721-3.031-11.494-14.428-19.556-19.688-30.519-4.564-7.46-8.479-19.703-19.697-19.065-12.265.212-18.986-15.785-10.496-24.675 8.92-9.129-.45-21.196-1.09-31.812-3.275-11.77-2.845-24.83-7.937-35.826-21.937-8.1-45.43-15.288-66.786-23.143 21.487-8.208 44.502-13.769 65.365-23.48 7.379-14.913 6.859-32.81 11.69-48.353 1.967-7.838 6.728-17.557-2.171-22.962-7.152-5.895-6.306-16.5 1-21.883 5.643-9.2 20.66 1.73 24.108-10.311 7.332-14.025 18.023-26.035 25.38-39.932 1.85-9.548-6.317-17.904-9.127-26.62-6.484-13.51-13.429-26.789-19.969-40.27 21.116 9.671 41.37 21.796 63.174 29.662 11.746.162 19.108-11.514 29.22-15.963 7.553-4.168 18.521-8.803 16.467-19.499.349-12.896 18.425-19.351 27.172-9.852 8.268 8.15 20.054-.869 29.457-1.442 14.313-4.294 29.893-3.956 43.648-9.507 9.624-18.269 13.026-39.323 20.647-58.526l.511 1.432z" style="fill:#fff;stroke-width:1.51975" transform="scale(.75)"/><path d="M272.5 22c-.4 1.6-1 3-1.4 3-.5 0-1.4 2.1-2.1 4.7-1.2 4.5-12 39.6-12.4 39.9 0 .1-5.3.9-11.6 1.8s-17.2 3.1-24.2 4.8l-12.6 3.1-3.2-2.6c-6.5-5.5-13.6-5.5-20.5 0-3.9 3.1-5.6 7.6-4.9 12.6.5 3 .2 3.4-5.3 6.4-11.1 6.2-13.8 8-17.7 11.7-2.5 2.2-5 3.6-6.5 3.6-2.7 0-13.1-4.5-14.1-6-.3-.4-8.8-4.7-19-9.5-10.1-4.7-18.7-9-19-9.4-1-1.5-5-3.2-5-2.1 0 .5.4 1 .8 1 .5 0 4.7 8 9.3 17.7 4.6 9.8 8.7 18 9 18.3 1.2 1 8.9 17 8.9 18.6 0 1.7-4.9 8.6-8.1 11.5-1.7 1.6-3.8 4.8-10.2 16.2-3.1 5.6-3.3 5.8-7.2 5.6-7.4-.3-8.6.1-12.5 4.1-4.5 4.6-5.5 7.4-4.7 13.2.4 2.9 1.6 5.1 4.2 7.8l3.7 3.8-3.1 12.3c-1.6 6.8-3.5 16.2-4.1 20.9-.7 4.7-1.3 9.4-1.6 10.6-.3 1.7-4.1 3.2-25.1 9.8-13.7 4.3-25 8.2-25.3 8.6-.3.4-2 1.1-3.7 1.5-1.8.3-3.5 1-3.7 1.4-.3.4 6.7 2.9 15.4 5.6 8.8 2.6 16.1 5.1 16.2 5.5.2.4 6.1 2.5 13.3 4.7l13 3.9.7 5.5c1.3 9.2 3.9 22.1 6 29.7 2.1 7.2 2.1 7.2.2 9.5-5 5.7-6.1 12.5-3 18.5 2.3 4.4 6.1 6.6 12.4 7.2l5.4.5 3.8 7.2c4.2 8 7.8 13.4 9.6 14.6.7.4 2.7 3 4.4 5.9l3.2 5.1-3.8 8.1c-2.1 4.5-4.1 8.3-4.5 8.6-.5.3-4.4 8.2-8.8 17.5-4.4 9.4-8.4 17.5-8.9 18.1-1.4 1.5-3.3 5.4-2.8 5.4 1 0 21.2-10 22.5-11.1.8-.7 7.7-4.4 15.5-8.2 7.8-3.8 14.3-7.3 14.6-7.8.4-.5 1.9-1.1 3.5-1.4 2.5-.5 3.7 0 7.3 3.3 2.4 2.2 5.5 4.5 7 5.3 4.2 2.1 13.5 8.1 15 9.6.7.7 1.8 1.3 2.3 1.3.6 0 1 1.5.8 3.2-.1 1.8-.1 4.3 0 5.5.2 3 7.4 10.2 11.3 11.4 4.5 1.2 10.1-.5 13.7-4.3l2.9-3.2 8.1 1.9c4.5 1 8.1 2.1 8.1 2.5 0 .9 8 2.6 19.8 4.4 5.2.7 9.7 1.7 10.1 2.2.5.5 4.4 12.1 8.6 25.9 4.3 13.7 8.2 25.2 8.6 25.5.4.3 1.1 1.8 1.4 3.3.4 1.5 1 2.9 1.4 3.2.7.4 9.2-25.4 10.6-32.2.4-1.8 1-3.3 1.4-3.3.5 0 2.1-4.3 3.7-9.5 2.7-9.1 5.4-12.6 5.4-7v2.5h58c38 0 58 .3 58 1 0 1.8 8.2 1.2 9.6-.8 1.5-1.9 1.9-11.2.5-11.2-.5 0-1.6-.6-2.3-1.4-.8-.7-4.3-2.9-8-4.8-7.4-4-14.2-9.8-16.5-14.3-.9-1.6-2.6-3.7-3.8-4.7-1.2-.9-2.8-3.2-3.5-4.9-1.5-3.4-1.8-2.8 5-8.2.9-.7 2.3-1.8 3.2-2.5 1.9-1.5 5-.9 7.2 1.3.8.8 8.3 4.7 16.8 8.6 8.4 4 15.5 7.5 15.8 7.9.5.8 21 10.8 21 10.3 0-1.1-10.3-21.9-11.1-22.4-.6-.3-4.4-7.7-8.5-16.5-4.2-8.7-8-16.1-8.5-16.2-1.1-.4-1.2-5.9-.1-6.4 1.2-.5 9.7-12.9 12.9-18.8 4.5-8.5 6.1-10 10.8-10 4.1 0 7.3-1.7 11.5-6 2-2 2.4-3.5 2.5-8.3 0-4.5-.4-6.1-1.7-6.8-1-.6-1.8-1.6-1.8-2.4 0-.8-.8-1.8-1.7-2.4-1.6-.9-1.6-1.6.7-10.8 1.4-5.4 2.8-10 3.1-10.3.8-.6 2.6-9.4 3.5-17.1l.6-5.6 13.6-4.2c7.6-2.4 13.9-4.6 14.2-5 .3-.4 7.6-2.9 16.2-5.6 8.6-2.6 15.5-5.2 15.3-5.6-.3-.4-1.7-1-3.2-1.4-1.5-.3-3-1-3.3-1.4-.3-.4-5.2-2.2-11-4-5.8-1.8-17.6-5.5-26.2-8.2l-15.8-5v-3.2c0-4.9-3-22.1-3.9-22.7-.4-.3-1.9-4.9-3.2-10.4l-2.4-9.9 3.9-3.3c3.5-3 4-4 4.4-8.9.4-5.4.4-5.4-4.7-10.5-4.9-4.9-6.3-5.4-12.3-5-1.6.1-3.4-.5-4.2-1.3-1.4-1.4-8-11.9-10.5-16.9-.8-1.5-3.1-4.6-5.3-7-3.3-3.6-3.8-4.8-3.3-7.3.3-1.6 1-3.2 1.5-3.5.5-.3 4.3-7.7 8.5-16.5s7.9-16.2 8.3-16.5c.9-.7 7.4-14.2 7-14.5-.6-.6-31.9 14.4-33.4 16-2 2-16.2 8.5-18.5 8.5-1.9 0-13.9-7.6-13.9-8.8 0-.9-6.7-5.1-15.1-9.6l-6.4-3.4-.5-5.8c-.8-9.3-4.5-13.2-13.5-14.1l-5.5-.6v-8.5l-5.2-.6c-5.9-.7-30.8 1.7-40.3 3.9-3.3.8-6.5 1.5-7.2 1.5-.6 0-2.1-3-3.4-6.8-1.2-3.7-2.5-6.9-2.8-7.2-.4-.3-3.1-8.3-6.1-17.8-3-9.4-5.7-17.2-6.1-17.2-.4 0-1 1.3-1.4 3zM340 68c0 1.1-.6 2-1.2 2-.7 0-4.7 1.3-8.8 3-4.1 1.6-8.7 2.9-10.2 3-1.4 0-4.6.8-7 1.8-2.4 1-7.9 2.9-12.3 4.2-4.4 1.2-8.2 2.6-8.5 3-.3.4-4.5 2.2-9.5 4-4.9 1.7-12.4 4.4-16.5 6-4.1 1.5-10.6 3.9-14.5 5.3-3.8 1.4-7.1 3-7.3 3.5-.2.6-3.3 2.5-7 4.3-5.9 2.8-15.9 9.5-18.7 12.5-.5.5-3.6 3-6.7 5.3-3.2 2.4-9.7 8.3-14.5 13.2-4.9 4.9-10.7 10.3-13 12.1-2.4 1.7-4.3 3.8-4.3 4.5 0 .7-.4 1.3-.9 1.3-1.2 0-5.9 6.5-10.7 15-2.1 3.6-4.9 7.6-6.2 9-2.8 2.9-11.4 19.6-13.2 25.8-.7 2.3-1.6 4.2-2 4.2-3 0-7.1 22.6-7.1 39 .1 16 3.2 32.5 7.1 37.3.5.7 3.1 4.1 5.8 7.7 2.7 3.6 7.4 8.5 10.4 11 3.1 2.5 7.4 6.1 9.6 8 2.9 2.4 7.1 4.4 14.4 6.7 11 3.5 17.9 4 29.3 2.4 5.9-.9 20.1-6.9 23.6-10 1-.9 3.9-3.2 6.5-5.1 13.3-10 24.7-23.6 32.6-39.3 3.7-7.3 6.7-13.8 6.8-14.5 0-.6.4-1.2.8-1.2 2.1 0 6.4-19.4 6.1-26.9l-.3-5.6 22.5-.2c12.3 0 22.9-.2 23.4-.2 1.2-.1.9-38.1-.4-48.5-1.2-9.3-4-16.7-8.7-23-7.2-9.5-19-20.1-25.1-22.5-1.8-.8-3.3-2-3.3-2.8 0-1.2 7.4-1.4 51.9-1.2 28.6.1 53.1.4 54.5.6 3.4.7 3.3 2-.5 4.1-3 1.7-12.7 8.4-14.2 9.9-4.2 4.2-12.9 18-14.3 22.9-.9 3.3-2 6.1-2.4 6.4-.7.5-1.4 29.4-1.1 47.8l.1 7.4 11.3-.4c9.7-.3 11.9-.7 16.7-3 5.8-2.8 12-7.7 12-9.5 0-.5 1.5-2.7 3.3-4.9 3.8-4.5 7.7-12.1 7.7-15.1 0-1.1.7-2.6 1.5-3.3 3.7-3.1 3.9-.5 4.2 48.3.1 25.9.5 49.1.8 51.4.3 2.3.1 4.4-.4 4.7-1.5.9-4.1-.5-4.1-2.2 0-.8-1.1-3-2.5-4.8-1.4-1.8-2.5-3.7-2.5-4.3 0-1.7-8.3-8.2-14.5-11.3-3.3-1.7-6.2-3.3-6.5-3.7-1.8-2.2-6.5-3.3-16.1-3.8l-10.9-.5v78.6c0 45 .4 78.6.9 78.6s1.2 1.9 1.6 4.3c.3 2.3 1.7 6.2 3 8.7 1.3 2.5 3 5.6 3.7 7 .7 1.4 1.7 3 2.3 3.7.5.6 2.1 2.7 3.4 4.5 1.4 1.9 5.1 5.3 8.3 7.7 3.2 2.3 5.8 4.6 5.8 5 0 .7 3.3 2.4 10.3 5.5 8.9 3.9 5.8 4.1-55.6 4.3-37.3.1-58.9-.2-59.3-.9-.8-1.3 2.1-3.3 8.2-5.6 2.8-1.1 6.3-3.1 7.8-4.5s4.1-3.2 5.9-4c4.5-2.2 11-9.3 13.6-15 5.1-10.8 5.1-9.6 5.1-96V260l-5.2-.1c-4.8 0-21.5 0-32.5.1-3.8 0-4.2.3-5.3 3.5-2 6-9 21.9-9.9 22.4-.5.4-3.2 4.8-6.1 10-2.8 5.2-6.3 11.1-7.6 13.2-1.3 2.1-2.4 4.1-2.4 4.3 0 .2-1.2 1.8-2.7 3.4-1.6 1.6-4.4 4.8-6.3 7.2-1.9 2.4-4.5 5.3-5.7 6.4-1.3 1.1-2.3 2.5-2.3 3.1 0 .6-1.9 2.5-4.2 4.2-2.4 1.8-6.8 5-9.8 7.2-3 2.3-6 4.1-6.7 4.1-.6 0-1.3.3-1.5.7-1.5 3.6-25.6 11.3-37.3 12-14.9.9-31.6-4.6-42-13.8-10.3-9.1-14.5-13.2-14.5-14.1 0-1.2-9-16-10.5-17.3-1-.9-4.1-9.9-7.9-23.5-3.8-13.5-4.7-37.8-2.1-55.2 1.8-12 8-34.9 9.9-36.3.7-.6 3.7-5.9 6.7-11.8 8.6-17.3 9.4-18.7 12.2-21.3 3.3-3.1 10.7-12.7 10.7-14 0-.5.8-1.7 1.8-2.5.9-.9 6.2-6.4 11.6-12.2 5.5-5.9 10.4-10.7 10.9-10.7 1.3 0 10.5-7.6 13-10.8 1.1-1.2 4-3.4 6.5-4.8 7.5-4 14.7-8.5 15-9.5.2-.5.8-.9 1.2-.9.5 0 3.1-1.3 5.8-2.9 2.6-1.5 6.6-3.4 8.8-4 5.2-1.7 26.8-10.4 27.4-11.1.7-.9 10.3-4.5 19.5-7.3 14.9-4.6 27.4-7.3 37.8-8.3 4.2-.4 7.7-1 7.7-1.5 0-.9 3.7-1.5 10.8-1.8 4.6-.1 5.2.1 5.2 1.9z"/><path d="m415.164 620.74-15.957-.86 7.443-3.571c11.012-5.284 28.874-17.664 33.673-23.338 2.312-2.733 5.934-8.73 8.05-13.328 3.515-7.634 3.944-10.859 4.96-37.234.613-15.88 1.166-66.66 1.23-112.841l.115-83.966h-27.93c-20.55 0-28.315.501-29.39 1.9-.804 1.044-3.686 7.506-6.405 14.36-2.719 6.853-6.802 15.402-9.075 18.997-2.272 3.594-8.018 13.41-12.768 21.813-10.689 18.905-31.825 43.745-45.761 53.778-35.552 25.596-76.738 31.696-106.1 15.715-10.986-5.98-30.794-23.843-34.633-31.232-1.835-3.534-5.33-9.387-7.765-13.006-11.503-17.095-19.577-51.069-19.555-82.286.016-22.81 8.104-63.202 15.224-76.027 1.625-2.925 6.651-12.5 11.17-21.276 4.52-8.777 12.085-20.67 16.813-26.428 4.728-5.758 9.532-12.255 10.676-14.438 2.168-4.136 30.058-31.642 45.923-45.291 5.045-4.34 12.86-10.05 17.368-12.688 4.508-2.64 10.248-6.276 12.756-8.082 7.234-5.21 15.738-9.437 29.635-14.728 7.105-2.705 19.695-7.946 27.978-11.646 17.618-7.869 45.336-16.144 65.157-19.452 7.704-1.286 18.502-3.399 23.995-4.696 10.5-2.48 20.587-2.409 20.147.141-.143.829-6.64 3.484-14.437 5.9-51.264 15.885-102.38 35.323-121.355 46.147-16.813 9.592-35.657 24.466-59.274 46.786-19.372 18.31-21.266 20.552-35.26 41.757-14.66 22.218-29.414 52.448-32.315 66.216-5.122 24.311-4.354 56.832 1.792 75.881 3.136 9.72 12.505 21.907 27.376 35.61 18.615 17.152 36.183 23.706 60.482 22.562 23.773-1.118 44.596-12.615 68.487-37.813 12.44-13.12 20.297-25.107 31.005-47.303 8.838-18.316 11.616-28.308 12.58-45.244l.39-6.84 30.394-.759 30.395-.76-.163-32.827c-.192-38.74-2.153-48.093-13.234-63.114-8.029-10.883-22.102-23.932-30.346-28.138-4.631-2.363-5.593-3.443-3.979-4.465 2.374-1.503 114.633-1.56 131.26-.066l10.588.951-10.274 6.68c-13.272 8.629-20.957 17.5-28.702 33.128-7.327 14.787-8.515 23.631-8.69 64.675l-.107 25.456h10.43c14.615 0 25.672-2.393 33.57-7.265 8.17-5.04 22.076-23.766 24.939-33.584 1.1-3.773 2.736-7.106 3.634-7.405 2.59-.864 3.318 13.975 3.835 78.269.387 48.087.098 59.65-1.49 59.65-1.084 0-1.97-.67-1.97-1.49 0-2.953-10.66-18.074-14.782-20.968-2.318-1.628-8.999-5.848-14.846-9.38-9.248-5.584-12.312-6.596-23.556-7.78-7.109-.749-14.573-1.373-16.586-1.388l-3.66-.027.954 104.483c1.103 120.871.414 114.84 15.785 138.2 6 9.12 26.838 26.773 34.64 29.348 2.934.968 5.334 2.28 5.334 2.917 0 2.421-103.23 3.684-139.818 1.71z" style="fill:#fff;stroke-width:1.51975" transform="scale(.75)"/></svg>