<?xml version="1.0" encoding="UTF-8" standalone="no"?>
<svg
   xmlns:dc="http://purl.org/dc/elements/1.1/"
   xmlns:cc="http://creativecommons.org/ns#"
   xmlns:rdf="http://www.w3.org/1999/02/22-rdf-syntax-ns#"
   xmlns:svg="http://www.w3.org/2000/svg"
   xmlns="http://www.w3.org/2000/svg"
   xmlns:sodipodi="http://sodipodi.sourceforge.net/DTD/sodipodi-0.dtd"
   xmlns:inkscape="http://www.inkscape.org/namespaces/inkscape"
   version="1.0"
   width="547.000000pt"
   height="540.000000pt"
   viewBox="0 0 547.000000 540.000000"
   preserveAspectRatio="xMidYMid meet"
   id="svg2182"
   sodipodi:docname="bloodbrother.svg"
   inkscape:version="1.0.1 (3bc2e813f5, 2020-09-07)">
  <defs
     id="defs2186" />
  <sodipodi:namedview
     pagecolor="#ffffff"
     bordercolor="#666666"
     borderopacity="1"
     objecttolerance="10"
     gridtolerance="10"
     guidetolerance="10"
     inkscape:pageopacity="0"
     inkscape:pageshadow="2"
     inkscape:window-width="1600"
     inkscape:window-height="837"
     id="namedview2184"
     showgrid="false"
     inkscape:zoom="0.65800214"
     inkscape:cx="247.99165"
     inkscape:cy="386.63493"
     inkscape:window-x="-8"
     inkscape:window-y="-8"
     inkscape:window-maximized="1"
     inkscape:current-layer="svg2182" />
  <metadata
     id="metadata2176">
Created by potrace 1.16, written by Peter Selinger 2001-2019
<rdf:RDF>
  <cc:Work
     rdf:about="">
    <dc:format>image/svg+xml</dc:format>
    <dc:type
       rdf:resource="http://purl.org/dc/dcmitype/StillImage" />
  </cc:Work>
</rdf:RDF>
</metadata>
  <path
     style="fill:#ff0000;stroke-width:1.13981"
     d="m 275.30393,-1.9297006 c -15.08964,0.7873554 -22.7921,16.2252366 -26.25356,29.0585766 -2.56187,7.740564 -5.06583,15.500105 -7.59802,23.250424 -9.6644,1.159651 -19.53803,5.441756 -29.07077,4.633598 -19.19896,-9.026509 -44.91061,1.12578 -51.27276,21.715696 -1.86175,4.990012 -7.94866,8.068942 -12.39769,9.419047 -17.20583,-7.398 -33.13524,-18.250957 -51.258244,-23.259329 -15.530715,-0.973449 -28.563304,17.877337 -19.989037,31.654327 6.11097,14.683891 13.436602,28.815031 20.316292,43.143731 -4.684155,5.77856 -7.500487,14.67493 -15.78153,15.80601 -19.01483,7.28795 -29.81787,31.56525 -19.990219,50.00409 4.137119,7.47646 -1.706209,16.06139 -2.056993,24.03724 -1.657103,6.79214 -12.377884,5.59762 -17.921269,8.96529 -12.264643,4.99638 -26.834752,7.10335 -36.5214895,16.77164 -7.4916757,10.77753 -4.461499,28.62834 8.8624985,33.34846 14.605021,6.84282 30.197705,11.24577 45.349902,16.67868 0.830652,9.59052 6.839673,19.50646 1.901173,28.7291 -6.003848,17.92944 4.768168,39.16246 22.963245,44.59744 5.42352,3.94034 8.13888,10.48817 12.204022,15.65464 -7.918912,17.54005 -18.891315,33.94369 -24.316772,52.50045 -2.153099,12.6753 9.776612,25.04474 22.59592,23.31944 14.454631,-1.8395 26.549951,-11.37147 39.684301,-17.02978 4.7725,-1.86002 9.4456,-5.91045 14.21421,-6.74604 6.22482,3.07033 12.50274,7.25717 14.06067,14.44359 7.88443,16.08434 27.56534,26.64548 44.99594,19.74638 4.72217,-2.33037 9.34377,-4.06325 14.2812,-1.08803 5.39048,2.19411 12.55218,2.10323 16.88316,5.01814 6.46333,17.18103 9.90199,35.92935 19.73323,51.62469 9.30441,11.22557 30.8982,9.13326 36.0622,-5.29613 5.15082,-11.26472 8.28141,-23.30799 12.23741,-35.01365 39.74233,-0.46834 79.58934,0.74067 119.26862,-1.26893 12.05959,-2.84251 17.82373,-15.87468 18.62884,-27.20861 11.23926,5.28802 27.4026,1.60231 31.29368,-11.24676 5.16846,-14.72631 -6.3017,-27.97736 -11.70981,-40.78174 -3.90254,-7.66481 -7.80506,-15.32961 -11.70759,-22.99441 4.11321,-6.091 7.44183,-13.98832 15.33628,-15.85054 15.86141,-7.23256 24.84669,-26.87435 17.98959,-43.30234 -4.73049,-8.96502 1.85551,-18.27789 3.12815,-27.42846 17.38693,-6.72951 36.25365,-10.42156 52.44924,-19.86882 11.83116,-9.31386 9.58492,-31.21603 -5.16032,-36.53193 -15.02086,-6.98532 -31.12537,-11.23633 -46.70567,-16.7566 -1.44725,-8.20782 -5.1799,-16.68191 -5.30042,-24.73502 8.05792,-13.97557 6.17152,-34.08792 -7.35733,-44.09291 -4.91826,-5.44798 -12.27091,-7.24016 -17.97251,-11.29966 -3.02078,-4.71979 -9.61694,-9.79024 -4.43329,-15.25012 5.93857,-14.14699 15.53933,-27.18736 18.30919,-42.459634 C 475.58432,78.356394 460.4197,64.754172 446.49865,69.72497 431.32234,74.639231 417.56908,83.031376 403.159,89.731824 396.37954,84.222136 385.57966,81.302506 383.84005,71.586072 379.97584,61.304102 369.91977,56.305319 361.88304,49.893988 351.00679,37.618703 332.94957,41.853418 318.60796,42.262577 313.82938,41.473058 305.58243,46.492943 305.2293,39.080085 299.54291,25.877312 298.63006,7.9779714 284.64951,0.30540329 c -2.8612,-1.51213479 -6.1034,-2.33325269 -9.34558,-2.23510389 z m 0.23598,30.7504876 c 4.82737,13.400476 8.57614,27.339591 14.7931,40.18512 5.80796,4.270219 13.52344,-0.860326 20.0553,-0.651662 10.98649,-1.196431 21.92578,-2.710903 32.90597,-2.220135 -1.16959,6.729588 5.65043,10.802646 11.61631,9.935526 7.36445,2.727255 7.24362,11.360543 8.56683,17.639753 6.85292,6.206932 17.04284,8.793321 23.82436,15.677541 5.89779,4.01386 13.38471,10.93474 20.61671,5.47772 12.87951,-5.80227 25.40338,-12.67933 38.19057,-18.456461 -6.66388,15.114211 -15.3769,29.803751 -21.83045,45.023411 1.19255,6.26621 7.47277,10.89882 10.23522,16.85402 4.89246,7.35767 9.21907,19.34194 20.12826,18.11658 4.17741,1.73281 8.69528,5.42994 10.50765,9.54372 1.03992,8.12876 -10.93985,11.97929 -7.15945,20.37195 4.02719,13.86478 7.08166,27.79655 9.38548,41.87897 5.09172,4.97503 13.94199,4.91973 20.46013,7.96036 10.59261,3.90088 21.84967,5.80617 32.10728,10.55522 -16.93776,6.42612 -34.60903,11.3769 -51.2773,18.16072 -3.74435,6.40076 -3.31277,15.26885 -5.95256,22.35973 -1.0438,8.35566 -7.01177,16.94096 -4.22882,25.35946 5.06179,4.10763 7.51753,12.30717 2.14605,17.2419 -4.19318,5.26865 -12.42793,2.12144 -16.15997,8.12564 -6.33749,8.88228 -12.06956,18.24517 -18.0901,27.33773 -3.05242,6.67137 3.9524,12.86288 5.73024,18.99615 5.84015,11.89021 12.10119,23.56873 17.83408,35.51232 -16.41209,-7.7733 -32.90682,-16.05592 -48.66917,-24.73307 -6.92451,0.22721 -13.52912,5.89469 -16.41821,11.91463 0.57207,8.84002 8.91734,14.96336 14.60474,20.97235 6.02712,5.66257 13.11651,9.97215 20.22414,14.11923 -6.3e-4,2.52037 0.98225,9.09645 -3.71331,7.13273 -38.83797,-1.94233 -77.78668,-0.67994 -116.62387,-2.47553 -0.8032,-5.51015 -8.32891,-3.95735 -8.81576,0.92165 -6.01837,14.32754 -10.22991,29.31049 -15.14928,44.02753 -6.42357,-16.76448 -10.84292,-34.41099 -17.30276,-51.0264 -5.91512,-4.04603 -14.59977,-3.07167 -21.41084,-5.15618 -9.80458,-0.85475 -18.84703,-7.93657 -28.79367,-6.24449 -4.72444,3.40805 -10.62177,9.84287 -16.78554,5.02898 -6.02204,-3.06139 -6.36424,-9.82915 -7.62028,-15.46318 -7.08767,-8.68071 -18.26448,-12.99231 -27.07266,-19.7285 -7.58307,-6.89986 -16.43453,2.12933 -23.60747,4.94017 -10.7461,5.6112 -21.5533,11.25845 -32.27695,16.64276 7.68474,-16.77129 17.04679,-33.14251 24.33447,-50.04148 -2.27368,-8.62044 -10.82112,-14.6668 -14.76627,-22.88881 -3.42324,-5.59542 -6.35909,-14.77734 -14.773054,-14.29887 -9.198367,0.15867 -14.23956,-11.83897 -7.871835,-18.5064 6.690705,-6.84658 -0.337567,-15.89665 -0.817717,-23.85921 -2.456205,-8.82657 -2.133803,-18.62254 -5.952158,-26.86918 -16.452978,-6.07554 -34.073319,-11.46603 -50.089478,-17.35767 16.114663,-6.15528 33.376225,-10.32611 49.023128,-17.60924 5.534228,-11.18519 5.14422,-24.60767 8.768415,-36.26549 1.474568,-5.87832 5.04516,-13.16727 -1.628992,-17.22116 -5.364015,-4.42156 -4.729335,-12.37499 0.750787,-16.41256 4.23138,-6.89908 15.494644,1.29751 18.079934,-7.73323 5.49933,-10.51882 13.51752,-19.52572 19.03469,-29.94863 1.38748,-7.16099 -4.73674,-13.42796 -6.84489,-19.96544 -4.86232,-10.13176 -10.0712,-20.09129 -14.9763,-30.201956 15.83672,7.253445 31.02727,16.346966 47.38019,22.246406 8.80931,0.12159 14.33131,-8.6358 21.9147,-11.9725 5.66506,-3.126181 13.89145,-6.601734 12.35095,-14.623899 0.26156,-9.67203 13.81821,-14.513605 20.37857,-7.38948 6.20158,6.11301 15.04039,-0.651187 22.09286,-1.081207 10.73499,-3.220568 22.4196,-2.96733 32.73626,-7.130518 7.21803,-13.701218 9.76912,-29.491795 15.48544,-43.893967 l 0.3831,1.073504 z"
     id="path2770" />
  <path
     style="fill:#ffffff;stroke-width:1.51975"
     d="m 367.7849,-6.8917602 c -21.71704,1.8373364 -34.98447,22.8372282 -39.95965,42.1689132 -3.64511,9.039091 -5.15833,19.822201 -10.04374,27.825753 -14.2831,3.885838 -29.55636,7.802263 -44.04907,2.855472 -24.89764,-4.919285 -51.99405,8.438708 -61.826,32.122567 -3.51052,7.320845 -12.76061,16.008865 -20.39259,8.848635 C 170.52552,97.581956 150.72403,83.626208 127.69379,79.953749 105.74372,79.70542 88.03776,106.70156 99.190827,126.43427 c 7.499123,19.42069 16.895533,38.03269 26.244113,56.61031 -5.02153,10.16837 -14.14259,16.58584 -24.18543,21.1192 -23.349744,13.15912 -34.624498,44.354 -22.754724,68.89938 3.84854,10.30209 -1.491414,21.80595 -4.876859,31.53189 -21.202834,8.53442 -44.68113,13.10295 -63.933469,26.01684 -18.4989863,13.60056 -14.0438573,47.04784 7.652189,55.17114 18.891116,8.92525 39.019584,14.83882 58.59059,22.04531 3.052253,12.92414 6.145609,26.49531 0.914225,39.28203 -4.578526,24.21269 9.920775,49.97761 32.725128,59.09519 5.73215,4.78489 12.86767,11.79914 13.72932,18.82655 -10.85031,23.7915 -26.745011,46.33416 -30.67218,72.64352 -1.403307,20.43687 22.86278,36.44874 41.52376,28.96818 22.41483,-7.08684 42.61302,-19.54157 63.66266,-29.74883 14.90579,5.78148 16.56109,23.88089 28.42708,33.13771 14.98105,14.88532 38.66772,18.95321 57.85447,10.2138 10.70523,-2.29935 20.77128,4.07734 31.14006,5.87123 9.09526,23.09623 13.30388,49.00473 28.24008,69.33571 12.19876,13.86397 35.12996,13.37967 47.78907,0.35322 10.17133,-12.75913 12.65991,-29.98485 18.75378,-44.84105 -0.0974,-12.93133 12.6238,-8.02453 21.22279,-8.8541 45.57464,-0.60794 91.3016,1.02122 136.78364,-1.81438 16.71773,-2.39479 26.1156,-18.68439 29.05635,-33.92133 12.48889,0.29002 27.4338,1.79256 36.0199,-9.44205 12.91085,-14.82608 6.56247,-36.78991 -1.92828,-52.19406 -7.18754,-14.89671 -14.64545,-29.66133 -21.96329,-44.49421 5.03158,-10.35135 14.43453,-16.57835 24.22995,-21.75443 19.86225,-12.81367 27.0677,-40.07572 18.34388,-61.66571 -1.66945,-9.87251 2.11884,-19.48295 4.73141,-28.83076 24.00797,-9.25193 50.78305,-13.8498 71.78751,-29.42442 9.71559,-9.305 8.11357,-24.82736 5.5091,-36.75603 -8.67888,-18.45243 -31.50659,-20.83432 -48.31489,-27.96573 -9.3767,-3.22496 -18.75974,-6.43427 -28.13872,-9.65406 -3.48037,-12.89271 -9.36344,-26.95024 -2.63583,-39.90537 7.8806,-22.31444 -4.52271,-47.01235 -24.26181,-58.44336 -7.8079,-5.07111 -18.53842,-9.72099 -21.63944,-19.07585 8.56301,-23.25034 25.64227,-44.36353 26.48286,-69.87594 C 633.53451,96.951516 610.51802,81.321345 591.53571,89.864787 572.8793,96.330452 555.58978,106.074 537.77449,114.46874 527.24426,108.59102 517.48133,100.95098 513.13195,89.321595 504.00739,74.703947 488.56913,65.447985 474.86507,55.634751 455.06114,46.18162 432.37915,53.623775 411.70633,52.286547 403.37658,33.131847 401.00559,6.7377977 380.04681,-4.0867494 c -3.84403,-1.7052045 -8.01157,-2.997267 -12.26191,-2.8050108 z m -2.39836,45.3194762 c 6.4365,17.8673 11.43485,36.452787 19.72413,53.580159 7.74395,5.693625 18.03126,-1.147101 26.7404,-0.868883 14.64866,-1.595241 29.23438,-3.614537 43.87463,-2.96018 -1.55945,8.972784 7.53391,14.403528 15.48841,13.247368 9.81927,3.63634 9.65816,15.14739 11.42244,23.51967 9.13723,8.27591 22.72379,11.72443 31.76582,20.90339 7.86372,5.35181 17.84627,14.57965 27.48894,7.30362 17.17268,-7.73636 33.87118,-16.90577 50.92076,-24.60861 -8.88517,20.15228 -20.50253,39.73834 -29.10726,60.03122 1.59006,8.35494 9.96369,14.53176 13.64696,22.47202 6.52328,9.81023 12.29209,25.78925 26.83767,24.15544 5.56989,2.31042 11.59371,7.23992 14.01021,12.72496 1.38656,10.83835 -14.58647,15.97239 -9.54594,27.1626 5.36959,18.48637 9.44222,37.06207 12.51398,55.83862 6.78896,6.63338 18.58932,6.55964 27.28017,10.61382 14.12348,5.20117 29.13289,7.74156 42.8097,14.07362 -22.58367,8.56817 -46.14537,15.16921 -68.36973,24.2143 -4.99247,8.53435 -4.41703,20.35846 -7.93674,29.81297 -1.39174,11.14088 -9.34903,22.58795 -5.63843,33.81261 6.74905,5.47685 10.02337,16.40957 2.8614,22.98921 -5.59091,7.02486 -16.57057,2.82858 -21.54663,10.83418 -8.44999,11.84304 -16.09274,24.32689 -24.12013,36.4503 -4.0699,8.89516 5.26987,17.15051 7.64032,25.3282 7.78687,15.85362 16.13492,31.42498 23.77877,47.34977 -21.88279,-10.36441 -43.87576,-21.4079 -64.89222,-32.97743 -9.23269,0.30295 -18.03883,7.85958 -21.89095,15.88617 0.76276,11.78669 11.88978,19.95115 19.47299,27.96313 8.03616,7.5501 17.48868,13.2962 26.96552,18.82564 -8.5e-4,3.3605 1.30966,12.1286 -4.95108,9.51031 -51.78396,-2.58977 -103.71557,-0.90659 -155.4985,-3.30071 -1.07093,-7.34686 -11.10521,-5.27646 -11.75434,1.22887 -8.02449,19.10339 -13.63988,39.08066 -20.19904,58.70338 -8.56476,-22.35265 -14.45723,-45.88133 -23.07035,-68.03521 -7.88683,-5.3947 -19.46636,-4.09556 -28.54779,-6.8749 -13.07277,-1.13967 -25.12937,-10.58209 -38.39155,-8.32599 -6.29926,4.54407 -14.16237,13.12383 -22.38072,6.70531 -8.02939,-4.08185 -8.48565,-13.10553 -10.16037,-20.61757 -9.45023,-11.57428 -24.35265,-17.32308 -36.09689,-26.30467 -10.11076,-9.19982 -21.9127,2.8391 -31.47662,6.58689 -14.32814,7.4816 -28.73774,15.01127 -43.03593,22.19035 10.24632,-22.36172 22.72905,-44.19002 32.44595,-66.72197 -3.03157,-11.49393 -14.42816,-19.55574 -19.68835,-30.51841 -4.56432,-7.46057 -8.47879,-19.70313 -19.69741,-19.06517 -12.26449,0.21157 -18.98608,-15.78529 -10.49578,-24.67519 8.92094,-9.12878 -0.45009,-21.19554 -1.09029,-31.81228 -3.27494,-11.76876 -2.84507,-24.83006 -7.93621,-35.82558 -21.937304,-8.10072 -45.431091,-15.28804 -66.78597,-23.14356 21.486217,-8.20704 44.501633,-13.76815 65.36417,-23.47898 7.37897,-14.91359 6.85896,-32.81023 11.69122,-48.35399 1.96609,-7.83776 6.72688,-17.55636 -2.17199,-22.96155 -7.15202,-5.89541 -6.30578,-16.49998 1.00105,-21.88341 5.64184,-9.19877 20.65953,1.73002 24.10658,-10.31097 7.33244,-14.02509 18.02336,-26.0343 25.37959,-39.93151 1.84997,-9.54798 -6.31566,-17.90394 -9.12652,-26.62059 -6.4831,-13.50901 -13.42827,-26.78838 -19.96841,-40.26927 21.11563,9.67126 41.3697,21.79595 63.17359,29.66188 11.74575,0.16211 19.10842,-11.51441 29.2196,-15.96334 7.55341,-4.16824 18.52193,-8.80231 16.46794,-19.49853 0.34874,-12.89604 18.42427,-19.351473 27.17142,-9.85264 8.26877,8.15068 20.05385,-0.86825 29.45715,-1.44161 14.31331,-4.29409 29.89279,-3.95644 43.64834,-9.507357 9.62404,-18.26829 13.02549,-39.322393 20.64726,-58.525288 l 0.5108,1.431338 z"
     id="path2776"
     transform="scale(0.75000001)" />
  <g
     transform="translate(0.000000,540.000000) scale(0.100000,-0.100000)"
     fill="#000000"
     stroke="none"
     id="g2180">
    <path
       d="M2725 5180 c-4 -16 -10 -30 -14 -30 -5 0 -14 -21 -21 -47 -12 -45 -120 -396 -124 -399 0 -1 -53 -9 -116 -18 -63 -9 -172 -31 -242 -48 l-126 -31 -32 26 c-65 55 -136 55 -205 0 -39 -31 -56 -76 -49 -126 5 -30 2 -34 -53 -64 -111 -62 -138 -80 -177 -117 -25 -22 -50 -36 -65 -36 -27 0 -131 45 -141 60 -3 4 -88 47 -190 95 -101 47 -187 90 -190 94 -10 15 -50 32 -50 21 0 -5 4 -10 8 -10 5 0 47 -80 93 -177 46 -98 87 -180 90 -183 12 -10 89 -170 89 -186 0 -17 -49 -86 -81 -115 -17 -16 -38 -48 -102 -162 -31 -56 -33 -58 -72 -56 -74 3 -86 -1 -125 -41 -45 -46 -55 -74 -47 -132 4 -29 16 -51 42 -78 l37 -38 -31 -123 c-16 -68 -35 -162 -41 -209 -7 -47 -13 -94 -16 -106 -3 -17 -41 -32 -251 -98 -137 -43 -250 -82 -253 -86 -3 -4 -20 -11 -37 -15 -18 -3 -35 -10 -37 -14 -3 -4 67 -29 154 -56 88 -26 161 -51 162 -55 2 -4 61 -25 133 -47 l130 -39 7 -55 c13 -92 39 -221 60 -297 21 -72 21 -72 2 -95 -50 -57 -61 -125 -30 -185 23 -44 61 -66 124 -72 l54 -5 38 -72 c42 -80 78 -134 96 -146 7 -4 27 -30 44 -59 l32 -51 -38 -81 c-21 -45 -41 -83 -45 -86 -5 -3 -44 -82 -88 -175 -44 -94 -84 -175 -89 -181 -14 -15 -33 -54 -28 -54 10 0 212 100 225 111 8 7 77 44 155 82 78 38 143 73 146 78 4 5 19 11 35 14 25 5 37 0 73 -33 24 -22 55 -45 70 -53 42 -21 135 -81 150 -96 7 -7 18 -13 23 -13 6 0 10 -15 8 -32 -1 -18 -1 -43 0 -55 2 -30 74 -102 113 -114 45 -12 101 5 137 43 l29 32 81 -19 c45 -10 81 -21 81 -25 0 -9 80 -26 198 -44 52 -7 97 -17 101 -22 5 -5 44 -121 86 -259 43 -137 82 -252 86 -255 4 -3 11 -18 14 -33 4 -15 10 -29 14 -32 7 -4 92 254 106 322 4 18 10 33 14 33 5 0 21 43 37 95 27 91 54 126 54 70 l0 -25 580 0 c380 0 580 -3 580 -10 0 -18 82 -12 96 8 15 19 19 112 5 112 -5 0 -16 6 -23 14 -8 7 -43 29 -80 48 -74 40 -142 98 -165 143 -9 16 -26 37 -38 47 -12 9 -28 32 -35 49 -15 34 -18 28 50 82 9 7 23 18 32 25 19 15 50 9 72 -13 8 -8 83 -47 168 -86 84 -40 155 -75 158 -79 5 -8 210 -108 210 -103 0 11 -103 219 -111 224 -6 3 -44 77 -85 165 -42 87 -80 161 -85 162 -11 4 -12 59 -1 64 12 5 97 129 129 188 45 85 61 100 108 100 41 0 73 17 115 60 20 20 24 35 25 83 0 45 -4 61 -17 68 -10 6 -18 16 -18 24 0 8 -8 18 -17 24 -16 9 -16 16 7 108 14 54 28 100 31 103 8 6 26 94 35 171 l6 56 136 42 c76 24 139 46 142 50 3 4 76 29 162 56 86 26 155 52 153 56 -3 4 -17 10 -32 14 -15 3 -30 10 -33 14 -3 4 -52 22 -110 40 -58 18 -176 55 -262 82 l-158 50 0 32 c0 49 -30 221 -39 227 -4 3 -19 49 -32 104 l-24 99 39 33 c35 30 40 40 44 89 4 54 4 54 -47 105 -49 49 -63 54 -123 50 -16 -1 -34 5 -42 13 -14 14 -80 119 -105 169 -8 15 -31 46 -53 70 -33 36 -38 48 -33 73 3 16 10 32 15 35 5 3 43 77 85 165 42 88 79 162 83 165 9 7 74 142 70 145 -6 6 -319 -144 -334 -160 -20 -20 -162 -85 -185 -85 -19 0 -139 76 -139 88 0 9 -67 51 -151 96 l-64 34 -5 58 c-8 93 -45 132 -135 141 l-55 6 0 42 0 43 -52 6 c-59 7 -308 -17 -403 -39 -33 -8 -65 -15 -72 -15 -6 0 -21 30 -34 68 -12 37 -25 69 -28 72 -4 3 -31 83 -61 178 -30 94 -57 172 -61 172 -4 0 -10 -13 -14 -30z m675 -460 c0 -11 -6 -20 -12 -20 -7 0 -47 -13 -88 -30 -41 -16 -87 -29 -102 -30 -14 0 -46 -8 -70 -18 -24 -10 -79 -29 -123 -42 -44 -12 -82 -26 -85 -30 -3 -4 -45 -22 -95 -40 -49 -17 -124 -44 -165 -60 -41 -15 -106 -39 -145 -53 -38 -14 -71 -30 -73 -35 -2 -6 -33 -25 -70 -43 -59 -28 -159 -95 -187 -125 -5 -5 -36 -30 -67 -53 -32 -24 -97 -83 -145 -132 -49 -49 -107 -103 -130 -121 -24 -17 -43 -38 -43 -45 0 -7 -4 -13 -9 -13 -12 0 -59 -65 -107 -150 -21 -36 -49 -76 -62 -90 -28 -29 -114 -196 -132 -258 -7 -23 -16 -42 -20 -42 -30 0 -71 -226 -71 -390 1 -160 32 -325 71 -373 5 -7 31 -41 58 -77 27 -36 74 -85 104 -110 31 -25 74 -61 96 -80 29 -24 71 -44 144 -67 110 -35 179 -40 293 -24 59 9 201 69 236 100 10 9 39 32 65 51 133 100 247 236 326 393 37 73 67 138 68 145 0 6 4 12 8 12 21 0 64 194 61 269 l-3 56 225 2 c123 0 229 2 234 2 12 1 9 381 -4 485 -12 93 -40 167 -87 230 -72 95 -190 201 -251 225 -18 8 -33 20 -33 28 0 12 74 14 519 12 286 -1 531 -4 545 -6 34 -7 33 -20 -5 -41 -30 -17 -127 -84 -142 -99 -42 -42 -129 -180 -143 -229 -9 -33 -20 -61 -24 -64 -7 -5 -14 -294 -11 -478 l1 -74 113 4 c97 3 119 7 167 30 58 28 120 77 120 95 0 5 15 27 33 49 38 45 77 121 77 151 0 11 7 26 15 33 37 31 39 5 42 -483 1 -259 5 -491 8 -514 3 -23 1 -44 -4 -47 -15 -9 -41 5 -41 22 0 8 -11 30 -25 48 -14 18 -25 37 -25 43 0 17 -83 82 -145 113 -33 17 -62 33 -65 37 -18 22 -65 33 -161 38 l-109 5 0 -786 c0 -450 4 -786 9 -786 5 0 12 -19 16 -43 3 -23 17 -62 30 -87 13 -25 30 -56 37 -70 7 -14 17 -30 23 -37 5 -6 21 -27 34 -45 14 -19 51 -53 83 -77 32 -23 58 -46 58 -50 0 -7 33 -24 103 -55 89 -39 58 -41 -556 -43 -373 -1 -589 2 -593 9 -8 13 21 33 82 56 28 11 63 31 78 45 15 14 41 32 59 40 45 22 110 93 136 150 51 108 51 96 51 960 l0 807 -52 1 c-48 0 -215 0 -325 -1 -38 0 -42 -3 -53 -35 -20 -60 -90 -219 -99 -224 -5 -4 -32 -48 -61 -100 -28 -52 -63 -111 -76 -132 -13 -21 -24 -41 -24 -43 0 -2 -12 -18 -27 -34 -16 -16 -44 -48 -63 -72 -19 -24 -45 -53 -57 -64 -13 -11 -23 -25 -23 -31 0 -6 -19 -25 -42 -42 -24 -18 -68 -50 -98 -72 -30 -23 -60 -41 -67 -41 -6 0 -13 -3 -15 -7 -15 -36 -256 -113 -373 -120 -149 -9 -316 46 -420 138 -103 91 -145 132 -145 141 0 12 -90 160 -105 173 -10 9 -41 99 -79 235 -38 135 -47 378 -21 552 18 120 80 349 99 363 7 6 37 59 67 118 86 173 94 187 122 213 33 31 107 127 107 140 0 5 8 17 18 25 9 9 62 64 116 122 55 59 104 107 109 107 13 0 105 76 130 108 11 12 40 34 65 48 75 40 147 85 150 95 2 5 8 9 12 9 5 0 31 13 58 29 26 15 66 34 88 40 52 17 268 104 274 111 7 9 103 45 195 73 149 46 274 73 378 83 42 4 77 10 77 15 0 9 37 15 108 18 46 1 52 -1 52 -19z"
       id="path2178" />
  </g>
  <path
     style="fill:#ffffff;stroke-width:1.51975"
     d="m 415.16435,620.74087 -15.95739,-0.86064 7.44292,-3.57138 c 11.01249,-5.28418 28.87448,-17.66391 33.67354,-23.3383 2.31113,-2.73268 5.93351,-8.72988 8.04973,-13.32713 3.51447,-7.63476 3.94405,-10.85928 4.96047,-37.23392 0.61204,-15.88141 1.16488,-66.66012 1.22854,-112.84158 l 0.11574,-83.96629 h -27.92933 c -20.55095,0 -28.31535,0.50187 -29.39057,1.89969 -0.80369,1.04483 -3.68583,7.50697 -6.40475,14.36032 -2.71892,6.85333 -6.80264,15.40194 -9.07494,18.9969 -2.27231,3.59494 -8.01808,13.41085 -12.76837,21.81312 -10.68858,18.90583 -31.82509,43.74555 -45.76108,53.77862 -35.5519,25.59524 -76.73816,31.6954 -106.10006,15.71465 -10.986,-5.97933 -30.7942,-23.84275 -34.63247,-31.23224 -1.83567,-3.53406 -5.32985,-9.3864 -7.76484,-13.0052 -11.50332,-17.09584 -19.57733,-51.06938 -19.55575,-82.286 0.0158,-22.80992 8.10454,-63.20268 15.22473,-76.02745 1.62422,-2.92553 6.65056,-12.49996 11.16964,-21.27653 4.51908,-8.77657 12.08486,-20.66892 16.81284,-26.42745 4.72797,-5.75853 9.5321,-12.25547 10.67583,-14.43764 2.16804,-4.13652 30.05806,-31.64284 45.92369,-45.2919 5.04407,-4.33937 12.85942,-10.04896 17.36744,-12.68796 4.50802,-2.639 10.24807,-6.27579 12.75566,-8.08176 7.23397,-5.20989 15.73884,-9.43658 29.63516,-14.72786 7.10484,-2.70529 19.69515,-7.94581 27.97845,-11.64558 17.61753,-7.86894 45.33607,-16.144168 65.15713,-19.45232 7.7038,-1.285773 18.50144,-3.399013 23.99474,-4.696089 10.50014,-2.479292 20.58724,-2.408662 20.14724,0.141073 -0.14301,0.828622 -6.63993,3.483527 -14.43764,5.899787 -51.26374,15.884989 -102.3799,35.322899 -121.35505,46.147619 -16.81284,9.59119 -35.65691,24.46514 -59.27355,46.78565 -19.37231,18.30911 -21.26597,20.55175 -35.25932,41.75716 -14.66117,22.21742 -29.41426,52.44732 -32.31539,66.21604 -5.1224,24.31078 -4.35465,56.83184 1.79139,75.88076 3.13588,9.7193 12.50558,21.90668 27.37671,35.6095 18.61442,17.15205 36.18291,23.7061 60.48112,22.56294 23.77379,-1.11848 44.5968,-12.61528 68.48701,-37.81305 12.43981,-13.12066 20.29703,-25.10781 31.00572,-47.30295 8.83749,-18.31686 11.61539,-28.30804 12.57958,-45.24466 l 0.38933,-6.83888 30.39504,-0.75987 30.39503,-0.75988 -0.16279,-32.82705 c -0.19213,-38.74069 -2.15329,-48.09355 -13.23417,-63.1138 -8.02909,-10.88353 -22.10205,-23.93257 -30.34657,-28.13861 -4.63082,-2.36247 -5.59311,-3.44227 -3.9786,-4.46447 2.37368,-1.50286 114.63322,-1.55954 131.25901,-0.0663 l 10.58879,0.95105 -10.27443,6.68018 c -13.27154,8.62883 -20.95696,17.49962 -28.70102,33.12781 -7.32732,14.78714 -8.51563,23.63127 -8.68977,64.67495 l -0.10801,25.45585 h 10.43083 c 14.61428,0 25.67183,-2.39294 33.5696,-7.26472 8.17077,-5.04018 22.07564,-23.76565 24.93869,-33.58451 1.10016,-3.77298 2.73574,-7.10513 3.63461,-7.40475 2.59048,-0.86349 3.31742,13.97508 3.83444,78.26908 0.38668,48.08724 0.0979,59.65026 -1.49021,59.65026 -1.08343,0 -1.96987,-0.67061 -1.96987,-1.49024 0,-2.95326 -10.6596,-18.07383 -14.78178,-20.96785 -2.31832,-1.62759 -8.99898,-5.84834 -14.84591,-9.37941 -9.24814,-5.58513 -12.31186,-6.59712 -23.55615,-7.78096 -7.10896,-0.74846 -14.57248,-1.37299 -16.5856,-1.38784 l -3.66023,-0.027 0.95343,104.48294 c 1.10296,120.87129 0.41409,114.84029 15.78551,138.20083 6.00021,9.11875 26.83765,26.77208 34.64062,29.34729 2.93306,0.968 5.33284,2.28087 5.33284,2.91749 0,2.42094 -103.22875,3.68376 -139.81718,1.71044 z"
     id="path2780"
     transform="scale(0.75000001)" />
</svg>
