<svg xmlns="http://www.w3.org/2000/svg" width="365.187" height="340.762" version="1.0" viewBox="0 0 273.89 255.571"><path d="M161.568 57.145c-6.453.456-12.523 4.47-15.385 10.283-3.375 6.526-2.528 14.949 2.057 20.687 4.21 5.486 11.459 8.465 18.308 7.388 6.238-.876 11.83-5.037 14.607-10.67 2.87-5.58 2.73-12.583-.418-18.02-3.068-5.494-9.037-9.191-15.311-9.572-1.281-.18-2.57-.14-3.858-.096zm72.729-53.942c-8.688-.095-15.947 5.969-20.183 13.118-2.24 3.386-4.271 6.799-7.668 9.368-6.556 6.705-10.071 17.403-5.42 26.13 2.34 4.219 5.572 7.907 8.931 11.336 8.49 7.67 23.1 6.203 29.828-3.084 4.026-5.975 8.282-12.584 8.325-20.025 3.223-6.41 8.17-12.797 6.767-20.43-1.176-9.982-10.738-17.047-20.58-16.413ZM213.89 20.86c2.088-.632 2.345-.612 0 0zM61.7 6.872c-10.777.114-19.91 10.414-18.73 21.126.37 10.03 8.754 19.136 18.932 19.508 9.317.97 18.774-5.554 20.647-14.836 2.568-11.595-6.03-24.896-18.269-25.71-.853-.125-1.72-.072-2.58-.088Zm123.92 72.286c-5.554.126-10.715 2.917-14.657 6.616-5.349 1.096-9.604 4.775-12.884 8.927-2.265 1.646-3.344 4.666-4.92 6.566-7.541 2.004-16.612 2.925-21.123 10.19-3.969 5.075-3.368 11.663-3.034 17.684-.234 6.793.292 14.546 5.401 19.796-3.681 6.705-7.395 13.52-9.426 20.924-3.567 6.11-2.899 13.535-.178 19.826 2.328 5.405 1.77 11.804 5.702 16.53 6.748 9.451 21.116 10.087 30.042 3.455 6.427-4.588 9.373-12.248 14.144-18.289 2.038-2.43 2.963-5.736 5.004-8.014 5.09-3.828 8.117-9.583 10.118-15.483 3.282-6.553 8.866-12.704 7.978-20.54.727-3.185 4.246-3.971 6.02-6.45 9.373-2.62 16.14-12.471 14.367-22.179-.935-6.026-4.954-10.846-7.627-16.155-2.078-2.813-4.269-5.63-4.727-9.224-2.523-8.682-11.18-14.742-20.2-14.18zm-23.532 77.783c.626.059-.47-.029 0 0zm-74.47-90.09c-9.904.47-16.767 8.755-21.365 16.688-4.04 6.546-4.667 14.697-2.152 21.912 1.46 5.122 2.193 10.514 3.533 15.599-6.777 3.279-12.187 9.678-12.77 17.373-1.548 6.519-1.681 13.832 2.568 19.415 3.926 6.13 8.497 12.748 15.925 14.783 3.165 5.184 8.993 8.48 15.01 8.915 2.693 6.976 4.408 14.442 8.081 20.977 3.516 5.92 10.31 8.772 16.941 9.286 6.68 2.377 14.336 4.232 21.007.73 8.896-4.151 13.213-15.53 9.357-24.555-2.05-6.691-5.549-13.343-4.493-20.547.07-4.724-.064-9.571-1.677-14.065 5.313-3.46 7.654-9.619 9.11-15.48 3.236-8.213.375-17.494-4.589-24.341-4.431-5.234-11.53-7.653-18.27-6.833-1.583-1.748-6.603-.732-5.687-3.56 1.258-7.721-2.419-15.953-9.034-20.141C106.4 74.47 98.88 66.967 89.54 66.842c-.639-.066-1.28.009-1.92.009zm8.285 40.762c.01-.015.07-.044 0 0zm-3.402 3.262c.155-.24.715-.682 0 0zm5.736 47.176c-.002-.043.026-.209 0 0zm136.119-48.329c-3.02 1.324-5.954 3.105-9.424 2.548-8.748-.563-17.472 5.141-19.765 13.724-1.038 3.55-.503 7.588-3.37 10.376-1.1 2.82-2.579 5.26-4.365 7.7-3.255 6.887-6.667 14.287-6.259 22.082-4.836 8.45-12.85 14.357-20.114 20.486-10.95 6.133-23.43 8.32-35.137 12.468-9.143 3.447-14.32 14.063-11.831 23.437 1.323 4.455.285 9.47 3.094 13.494 4.04 7.845 13.793 11.27 22.11 8.98 5.263-.924 10.486-2.781 15.758-3.218 10.026 3.172 21.627-.643 27.713-9.25 1.563-1.307 2.03-4.575 4.052-4.693 8.092 3.614 15.873 9.104 24.981 9.508 10.045.381 19.427-8.229 19.508-18.349.326-7.926-4.794-14.55-7.714-21.568-.329-1.767-3.63-4.482-.816-5.233 10.658-6.091 16.82-20.104 11.93-31.78-.317-3.028 2.804-2.933 4.885-3.782 8.006-2.73 17.609-4.9 21.8-13.134 5.587-9.427 1.39-22.764-8.485-27.45-6.612-2.954-13.512-5.418-20.547-7.128a23.687 23.687 0 0 0-8.004.782zm-19.467 17.19c1.93-.44 2.219-.303 0 0zm-2.597.735c.737-.34.664-.224 0 0zm2.137 56.097c-.345.054.852-.181 0 0zm-16.554 36.691c-.024.163.013-.122 0 0zm15.948-154.553c-7.31.068-14.004 4.438-17.902 10.44-7.002 5.342-10.253 14.91-7.534 23.353 1.015 4.937 3.465 9.538 7.006 13.064 2.364 6.846 7.71 12.921 15.04 14.394 4.435.348 7.993 3.558 12.542 3.562 7.42.825 15.656-.76 20.605-6.805 5.176-5.927 6.15-15.032 2.346-21.931 2.455-10.988-2.797-23.204-12.877-28.467-2.652-1.166-5.12-2.379-7.298-4.32-3.53-2.27-7.736-3.415-11.928-3.29zm-8.587 42.653c.41-2.379.634-2.831 0 0zm4.254 8.872c-.483-.005.766-.027 0 0zM136.023.038c-8.868.144-16.705 6.609-19.27 14.975-1.029 2.772-1.926 5.59-2.868 8.392-2.74.46-5.46 1.746-8.098.277-11.846-3.234-25.519 3.003-30.225 14.487-1.443 2.957-4.831 4.713-6.065 7.966-3.274 5.787-2.38 12.675-.163 18.657 1.724 7.818 6.78 15.521 14.915 17.607 7.766 2.652 15.552-1.332 21.885-5.59 2.717-2.666 6.666-1.693 9.908-3.254 3.653-.928 6.143-4.374 9.893-4.824 7.096 1.691 14.51 1.49 21.576 3.455 6.068 1.213 11.914 3.957 18.213 3.678 2.585 1.799 5.993 3.004 7.87 5.427 4.289 12.404 21.026 18.51 31.982 10.9 6.886-4.621 10.037-12.71 14.438-19.417 4.61-7.125 6.397-16.877 1.453-24.308-4.588-7.6-14.577-10.883-22.926-8.222-3.018-1.459-3.3-5.304-5.65-7.535-6.847-8.809-19.587-12.498-29.982-8.255-2.175-.232-4.26-.608-4.364-3.208-2.301-6.938-4.273-15.104-11.35-18.713-3.334-2.046-7.309-2.709-11.172-2.495zM88.93 51.461c.412-1.453.62-1.803 0 0zm101.548 2.595c.028-.014.5-.045 0 0zM88.454 55.232c-.053-.209.116-.853 0 0zm33.261 11.81c-.033-.013-.174-.093 0 0zm-68.45-37.256C42.484 29.755 33.228 39.95 34.238 50.67c.642 7.645 5.154 14.224 8.203 21.082-13.262 4.38-21.688 20.68-15.82 33.764 1.015 1.702.662 5.062-1.77 5.135-7.643 2.89-17.041 4.052-21.707 11.602-5.22 8.592-4.035 21.447 4.281 27.705 6.066 4.234 13.64 5.376 20.402 8.17 5.278 2.441 11.354 3.904 17.028 1.802 4.404-1.98 9.18-2.168 13.899-2.55 9.245-1.98 15.87-11.415 14.566-20.783-.11-5.61 1.633-11.257.905-16.868 1.47-7.808 5.655-14.794 6.961-22.62-.114-2.668.876-4.952 2.65-6.915 4.77-5.246 7.957-12.385 6.41-19.563-1.994-8.363-5.134-16.427-7.184-24.783-2.268-7.963-10.214-13.734-18.483-13.406-3.55-1.609-7.377-2.776-11.312-2.655ZM29.5 158.595c-1.04-.506-1.269-.759 0 0zm22.106-19.46c-7.982 1.087-17.111 3.449-21.062 11.222-2.179 3.621-1.986 8.046-4.19 11.679-4.507 12.32 3.385 26.529 15.129 31.35-.325 2.587-2.568 5.347-3.615 8.02-3.276 6.402-7.153 13.548-4.838 20.94 2.342 10.49 14.297 16.88 24.44 13.824 6.369-1.767 12.165-5.062 18.104-7.881 4.8 12.25 19.966 17.722 32.033 13.66 5.13.073 9.978 3.316 15.29 3.165 10.719.766 20.807-8.65 20.477-19.442.338-5.092-2.415-9.501-4.56-13.85-2.407-7.83-8.745-13.922-16.4-16.629-3.498-1.527-7.367-2.172-11.113-2.233-5.207-3.298-10.13-7.033-15.374-10.26-1.881-1.761-4.596-2.82-6.424-4.317-1.178-5.656-3.5-11.417-8.43-14.825-3.121-7.019-5.357-15.595-12.957-19.1-4.67-2.046-8.98-5.569-14.414-5.352l-2.096.03zm9.238 37.78c-.22.103.36-.183 0 0zm-.014 17.207c.066-.825.086-.643 0 0zm-11.251 1.183c-.051.006-.325-.034 0 0z" style="fill:#fff;stroke-width:.114374"/><path d="M232.8 18.163c-2.6 3.4-6.1 8.6-7.7 11.4-1.7 2.9-4.3 5.9-5.8 6.7-1.8.9-4.5 4.6-7.9 10.8-4.7 8.5-5.7 9.6-10.1 11.7l-4.8 2.3-8.2-5.4c-6.2-4-8.1-5.8-8.2-7.6-.1-5.5-8.1-9.2-12.2-5.5-1.7 1.5-2.3 1.5-9 0-4-.9-8.7-1.9-10.5-2.2-3.1-.6-3.3-1-7.5-13.6l-4.3-13-4.3 13-4.3 12.9-7.2 1.2c-4 .7-9.1 1.8-11.4 2.5-2.4.7-4.3 1-4.3.5 0-.4-1.3-1.3-2.9-2-5-2-10.1.9-10.1 5.8 0 2.1-1 3.3-4.5 5.5-2.5 1.5-4.8 2.7-5.1 2.7-.2 0-1.5-2.5-2.9-5.5-1.3-3-2.8-5.5-3.4-5.5-.5 0-1.7-2-2.7-4.5-.9-2.5-2.2-4.5-2.9-4.5-.7 0-1.6-1.2-1.9-2.8-.4-1.5-1.2-3.8-1.8-5.2-.5-1.4-2-5-3.2-8-1.6-4.1-2.6-5.5-4.1-5.5-1.7 0-2 .6-1.8 4.5.1 2.5 1.2 7.5 2.4 11.2 1.6 5 1.9 7.1 1.1 8.1-.8.9-.7 2.9.4 7.1.8 3.2 1.3 6 1.1 6.3-.3.2-3.3-1-6.6-2.7l-6.1-3 6.8 13.6 6.8 13.6-5 7.8c-4.6 7-5.4 7.9-8.3 7.9-2.2.1-3.8.9-5.2 2.7-2.7 3.4-2.7 6.4 0 9.8 1.7 2.2 1.9 3.1 1 5.9-.6 1.7-1.7 6.3-2.3 10.1l-1.3 7-13.8 4.5c-7.5 2.5-13.7 4.8-13.7 5.1 0 .3 6.2 2.6 13.7 5 7.5 2.5 13.9 5 14 5.6.2.6-1.9 2.1-4.6 3.3-3.6 1.5-5.2 2.8-5.7 4.6-.3 1.4-1 2.5-1.5 2.5s-.9 1.1-.9 2.4c0 2-1.1 2.7-7.5 5.2-4.1 1.6-7.5 3.1-7.5 3.4 0 .4.6 1.4 1.3 2.4 1.3 1.8 1.8 1.7 12.3-1.7 10.9-3.5 18.4-5.3 18.4-4.3 0 .3-1.9 1.5-4.2 2.7l-4.1 2.1 2.6 1.6c1.5.9 2.7 2.2 2.7 2.9 0 2.1 3.8 5.3 6.3 5.3 1.8 0 3.6 1.9 7.6 7.7l5.4 7.8-7.2 13.6c-3.9 7.5-7.1 13.9-7.1 14.3 0 .3 6.4-2.6 14.3-6.5l14.2-7.1 7.3 4.8c6 3.9 7.2 5.2 7.2 7.4 0 1.5.8 3.4 1.8 4.3 2.3 2.1 8 2.2 10.1.3 1.4-1.3 2.8-1.2 10.6.7 6.6 1.6 9.1 2.7 9.3 3.9.3 1.5-.2 1.7-2.6 1.2-3.8-.8-5.4 1.8-5 7.9.3 3.8.6 4.2 3.1 4.5 2.2.3 3-.1 3.4-1.7.3-1.2 1-2.1 1.5-2.1.6 0 .7 1.1.4 2.5-.5 1.9-.3 2.5 1.1 2.5.9 0 2.4-.7 3.4-1.6 1.6-1.4 1.9-1 4.4 6.6 1.5 4.5 2.9 7.9 3.1 7.7.3-.2 2.6-6.9 5.2-14.7l4.8-14.3 9.9-2.2c9-2 10.1-2.1 12.5-.7 3.8 2.2 8.4.2 10.2-4.4.9-2.3 3.6-4.9 8.3-8.2l7-4.9 14.8 7.4c8.1 4 14.7 7.1 14.7 6.8 0-.3-3.2-6.9-7.1-14.8l-7.1-14.3 4.6-7.2c3.7-5.6 5.2-7.2 7.1-7.2 2.8 0 6.5-4.3 6.5-7.4 0-1.2-.7-3.1-1.5-4.3-1.4-2-1.4-2.9-.1-8 .8-3.2 1.7-7.5 2-9.5l.7-3.7 14.4-4.8c8-2.6 14.5-5 14.5-5.3 0-.3-6.5-2.7-14.4-5.3-13.8-4.6-14.4-4.9-14.8-7.7-.4-2.5-.1-3 2.3-3.5 3-.7 4.8-4 3.1-5.7-.6-.6-2.5-1.3-4.3-1.7-4.2-.8-6.2-5.9-3.5-8.6 2.3-2.3 2.1-8-.4-10.5-1.1-1.1-3.2-2-4.8-2-1.5 0-3.2-.8-3.8-1.8-.5-.9-2-3.3-3.2-5.2l-2.1-3.6 6-9.4c3.3-5.2 6.2-11.2 6.5-13.2.4-2 2.2-6.1 4.1-9 2.5-3.7 3.3-6 3-8.1-.3-2.1 1.1-5.4 5.4-13 4.5-7.9 5.5-10.5 4.8-11.9-1.7-3.1-4.3-1.9-9.2 4.5zm7.5-3.7c.4.3-1.2 3.8-3.5 7.7-5.8 10.1-10.1 19.3-8.2 17.7 2.6-2.2 1.7.5-3 8.4-2.4 4.2-4.2 8.2-3.9 8.9.3.8-2.6 6.5-6.5 12.8l-6.9 11.4 1.9 3.3c2.6 4.5 1.4 6-2.1 2.7-3.6-3.5-4.1-1.9-2 7 1.1 4.4 1.9 6.3 2.2 5 .4-1.6.9-1.1 2.5 2.5 1.1 2.5 2.3 5.3 2.6 6.2.5 1.3 1.6 1.7 4.5 1.6 5.3-.2 7.7 1.4 3.7 2.4-1.9.5-.9.6 2.7.3 9.2-.8 12.2 1.5 4.6 3.5-2.4.7-6.1 1.8-8.3 2.5l-4 1.3.3 5.9c.1 3.2-.4 8.9-1.2 12.8-.8 3.8-1.3 7.1-1.1 7.3.2.3.7-.7 1.1-2.2.3-1.4 1-2.6 1.5-2.6s0 2.4-1.2 5.2c-1.1 2.9-2.9 7.6-3.9 10.4-1 2.8-3.6 8.8-5.8 13.5-2.2 4.6-3.9 8.5-3.8 8.6.2.2 4.7-6.7 7.6-11.7 1.9-3.1 1.8-.2-.1 3.5-5.1 10.4-13.7 20.4-23.1 26.9-1.8 1.3-3.2 2.8-3.1 3.3.1.6-1 1.4-2.5 1.8-1.5.4-3.4 1.2-4.2 1.9-2.4 2-17 7.2-26.8 9.7-7.9 1.9-9.3 2.5-10.2 4.8-2.3 5.5-4.3 8.6-4.8 7.2-.2-.7-1.3 1.3-2.4 4.5-1.1 3.3-2.9 6.8-4 7.8l-2.1 2 .6-4.5c.7-4.3.6-4.3-.9-1.9s-1.5 2.3-.9-2.7c.4-4 .2-5.5-1.1-6.8-.9-.9-2.2-3.5-2.9-5.7-1.3-4.5-1.3-4.5-9.2-7.6-3.8-1.4-5-1.6-4.6-.6.3.7 1.4 1.6 2.5 2 1.1.3 1.7.8 1.4 1.1-.8.8-13.3-6.3-18.1-10.3-2.3-1.9-4.7-3.4-5.4-3.4-.6 0-4-2.7-7.5-6-6.3-6.1-11.1-13.4-10-15.2.4-.6-.1-.8-1.3-.4-1.7.6-2.5-.6-5.8-8.5l-3.8-9.1-3.3.7c-4.5.8-5.2-1.1-.9-2.5 4.1-1.3 6.1-3.6 2.4-2.7-6.2 1.5-22.2 6-29.4 8.3-4.4 1.4-8.6 2.7-9.3 3-.7.2-1.1 0-.8-.5.3-.4 4.3-2.3 8.8-4.1 8.8-3.5 12-5.4 7.9-4.8-4.2.5-3.4-1.9.8-2.6 2.2-.3 5.3-1.8 6.8-3.2l2.8-2.6-2.5.7c-1.4.4-3.8.9-5.5 1.1l-3 .5 2.8-1.6c1.6-.9 6.3-2.6 10.5-3.8 6.5-1.9 7.8-2.6 8-4.5.2-1.3-.1-2.9-.7-3.6-.8-1-.8-3.4-.1-8.2 1.2-8.6 1.2-8.6 0-7.9-1.3.8-1.3.3.1-3.2.6-1.5 1.5-5 2-7.8.5-2.7 2.3-7.9 3.9-11.4 2.2-4.7 2.7-6.7 2-7.7-1.3-1.4 2.2-8.9 6.4-13.9l2.6-3-1 2.8c-1.4 4-1.3 5.2.5 3.7 2-1.7 1.9-4.7-.4-11.2-3.4-9.6-8.3-27.8-7.8-29.6.2-1.1.8-.1 1.7 2.6.7 2.3 1.5 4 1.7 3.8.4-.4-1.3-7.1-4.7-18.1-2.3-7.7-3.2-12.5-2.1-12.5.4 0 1.4 1.9 2 4.2.7 2.4 2.1 6.1 3.1 8.3 1 2.2 2.3 5.9 2.9 8.2.7 2.4 1.4 4.3 1.7 4.3.4 0 .4-.7 0-1.5-.3-.8-.2-1.5.3-1.5s1.9 2.8 3.2 6.2c1.6 4.2 2.4 5.6 2.9 4.4.4-1.2 1.1-.1 2.5 3.6 2.8 7.9 6.5 16.1 7.1 15.6.2-.3-.3-2.2-1.1-4.3-2.1-4.9-1.2-5.7 1.2-1.1l1.8 3.6 8.1-5.3c9.4-6.2 11.9-7.4 11.1-5.3-.5 1.3-.1 1.3 2 .5 1.5-.5 3.1-1.6 3.7-2.4 2.6-3.2 16.6-5.9 18.2-3.4.3.6 1.8.9 3.2.6 3.9-.7 22.7 3.1 29.5 5.9 3.3 1.4 6.2 2.3 6.5 2 .3-.3.1-.6-.4-.6-.6 0-1.9-.7-3-1.5-1.8-1.5-1.7-1.6 1.5-.9 1.9.3 8.7 4.1 15 8.3 8.9 5.8 11.1 7.7 9.4 7.9-1.2.2-3.2-.2-4.5-.9-2.3-1.2-2.3-1.2-.4 1 1.1 1.1 3.2 2.8 4.8 3.6l2.9 1.4 3.9-6.1c2.2-3.4 7.5-12.2 11.7-19.6 4.8-8.2 8.6-13.8 9.9-14.2 1.2-.5 4-3.9 6.4-7.6 2.3-3.7 5.1-7.7 6.2-8.8 1.1-1.2 2.7-3.3 3.6-4.9 1.6-2.7 2.4-3.2 3.4-2.1zm-17.5 117.6c-.3 3.5-1.3 7.9-2.2 9.8l-1.6 3.5.5-4c.3-2.2.6-6.6.6-9.8 0-4.6.3-5.7 1.6-5.7 1.5 0 1.6.9 1.1 6.2zm-5.6 19.5c-.9 1.6-1 1.6-1.1-.4 0-1.2.3-3 .7-4 .7-1.6.8-1.6 1.1.4.2 1.2-.1 3-.7 4zm-171.6 15.3c-.3.5-1.1 1-1.6 1-.6 0-.7-.5-.4-1 .3-.6 1.1-1 1.6-1 .6 0 .7.4.4 1zm31.5 25.7c3.9 5.3 2.3 5.6-3 .5-2.6-2.4-4.2-4.9-4.6-7.2l-.6-3.5 2.6 3c1.4 1.6 3.9 4.9 5.6 7.2zm44 42.8c0 3.3-.4 4.5-1.5 4.5s-1.5-1.1-1.5-3.8c0-2.1.3-4.2.7-4.5 1.6-1.6 2.3-.4 2.3 3.8z"/><path d="M126.1 65.963c-1.9.6-4.8.9-6.5.6-3.6-.5-7.6 1.3-19.7 9.3-4.8 3.3-9 5.4-9.3 4.9-.4-.5-1-.7-1.5-.4-.4.3.8 4.5 2.8 9.5 3.5 8.9 5.5 11.9 2.9 4.4-2.4-6.7-2.8-10.4-1.3-10.4 1.4 0 2.3 2 5.1 11.4 1.5 5.2 1.5 6.1.3 7-1.7 1.2-1.6 2.3.6 8.5 1.9 5 2 6.5.6 5.6-1.2-.8-1.3-.8.4 4l1.4 4 1-4c.6-2.2 1.4-5.2 1.8-6.8 1.1-4.5 2.4-3 1.8 2-.3 2.7-.7 5.4-1 6-.6 2.1 1.4 1.5 3-.9 1.2-1.7 1.9-1.9 2.7-1.1.9.9.9 1.6-.1 2.8-2.1 2.5.5 1.7 3-1 4.4-4.7 5.6-2.5 1.4 2.5-1.5 1.7-2.5 3.3-2.3 3.5.2.2 2.9-.3 5.9-1.1 7.1-1.8 11.1-1.8 10.4 0-.3.7-2 1.8-3.7 2.4l-3.2 1.1 4-.4c7.5-.8 13.4-2.7 12.8-4.1-.6-1.7-1.1-1.5 16-5.4 10.1-2.4 13.7-3.6 13.7-4.7 0-1 .6-1.3 1.6-.9 1.7.6 1.4-.8-1.2-7.3-1.8-4.4-1.1-5.1 1.2-1.2 1 1.7 2.1 3.1 2.5 3.1.4 0 1-4 1.4-9 .8-9.5 2.5-11.5 2.4-2.7 0 2.9.4 6.5.8 8.1l.9 2.8 2.7-5.1c1.6-2.8 3.4-5.4 4.1-5.8.7-.5 1.8-1.8 2.5-3.1 1.1-2 .6-2.9-6.1-10.1-5.4-5.9-9.3-8.9-15.1-12.1-4.3-2.3-8.3-3.9-9-3.7-.7.2.6 1.2 2.8 2.1 4.7 2 5.7 3.3 4.3 5.6-1 1.6-1.2 1.6-2.8 0-.9-.9-3.8-2-6.5-2.3-5.7-.8-7.5-2.1-7.5-5.3 0-2.2-.4-2.4-5.7-2.4-3.2 0-7.4-.2-9.3-.5-1.9-.2-5.1.1-7 .6z"/><path d="M149.7 67.763c.5.5 2 1.2 3.4 1.5 2.4.7 2.4.6.6-.8-2.1-1.7-5.7-2.3-4-.7zM76.5 96.563c-1 1.6-1.7 3.9-1.6 5.2.1 1.3-.9 4.3-2.3 6.7-2.8 4.7-3 5.4-1.5 5.4.6 0 1-.9 1-2s.5-2 1-2c1.5 0 1.2 4.4-.5 8.8-2.3 5.6-2.6 22.2-.5 22.2.6 0 .9-.5.8-1.1-.2-.6 1.1-1.6 2.7-2.2 1.7-.5 3.7-1.5 4.5-2.2.8-.7 2.5-1.6 3.7-1.9 1.9-.6 2.1-1.1 1.3-2.7-1.3-2.3-.5-4 1.5-3.3 2.6 1.1 2.7-2.2.1-8.3-1.4-3.3-2.5-6.9-2.5-7.9.1-3.5-3.2-15.2-4.5-16.4-1-.8-1.8-.4-3.2 1.7zM195.8 104.863c-1.5 3.3-1.5 3.5.5 3.8 3 .5 3.8-.9 2.3-4.3l-1.3-3zM194.6 124.263c-2.8.8-3.9 1.6-3.7 2.7.1.9-.9 2.1-2.5 2.8-1.5.7-3.5 1.7-4.3 2.1-.8.4-1.6 2.2-1.8 4.1-.2 2-1.3 4.2-2.7 5.4-2.2 1.9-10.1 13.5-9.1 13.5.2 0 2.5-2.9 5.1-6.5 4.6-6.2 6.5-7.8 6.5-5.5 0 1.6-2.7 6.7-6.8 12.9-2 2.9-3.6 6.4-3.7 7.7 0 1.3-1 3.4-2.2 4.5-1.7 1.7-2.4 1.9-4.1 1-2.3-1.2-2.9-.7-4.2 3.9-.7 2.3-.5 2.8.6 2.3 2.2-.8 1.7.4-2.4 6-9.3 12.8-13.6 21.8-9.7 20.3.9-.3 1.9-.6 2.1-.6.3 0 .3-.4-.1-1-.3-.5 2-2.1 5.2-3.5 13.9-6.3 22.6-11.1 24.4-13.3 2.3-3 2.4-4.3.4-3.6-2.8 1.1-1.5-.7 5.9-8.5 4.1-4.3 8.2-9.5 9-11.6 2-4.7 2-5.9 0-2.3-.8 1.6-1.9 2.8-2.5 2.8-1.2 0-.5-2.5 2.8-10 4.9-10.9 5.4-13.1 4.7-20.2-.4-4.1-1.1-6.7-1.8-6.7-.6.1-2.9.7-5.1 1.3zM141.9 125.563c.7.3 1.6.2 1.9-.1.4-.3-.2-.6-1.3-.5-1.1 0-1.4.3-.6.6zM129.6 131.863c-2.2 1.1-2.9 1.7-1.5 1.4 3.8-1 7-2.3 7-2.9 0-.9-1.4-.5-5.5 1.5zM122.6 134.863c-.3.6.1.7.9.4 1.8-.7 2.1-1.4.7-1.4-.6 0-1.3.4-1.6 1zM130.4 134.963c-2.1.6-3 1.4-2.7 2.3.4 1-1.9 2-8.6 3.6-7.5 1.9-9 2.5-8.5 3.9 3.1 8.4 5.9 15 6.2 14.7.3-.2-.1-3-.7-6.1-1.3-6.5-.8-8 1.3-3.8 2.4 4.6 4 14.2 3.3 20.2-.5 4.8-.1 7.3 2.9 16.6 3.8 11.5 6.1 16.3 7.5 14.9.4-.5 2.2-4.5 4-8.9 1.7-4.4 4.4-10.3 5.9-13 1.5-2.8 2.6-5.6 2.4-6.2-.6-1.6 9.4-20.3 15.9-30 2.6-4 4.8-7.5 4.8-7.8 0-1.1-5.7-.4-16.7 2.1-11.1 2.5-16.6 2.7-11 .5 3.5-1.4 3.5-2.3 0-1.5-2.2.6-2.5.4-2-1 .7-1.8.5-1.8-4-.5zM84.1 153.463c-4.1 1.4-8.2 2.3-9.2 2.1-2.3-.6-2.3.8 0 3.1.9 1 3.7 5.9 6.2 11 2.7 5.8 5 9.2 6 9.2.8 0 4.5 2.7 8.2 6 3.6 3.3 7.1 6 7.8 6 .6 0 2.9 1.4 5.1 3.2 2.1 1.7 4.2 2.9 4.5 2.5.3-.3-1-4.8-2.9-9.9-2-5.1-4.5-12.5-5.7-16.3-2.2-7.7-6-16.5-7-16.5-.3 0-2 2.9-3.8 6.5-1.7 3.6-3.5 6.5-4 6.5-1.6 0-.5-7.6 1.6-11.8 1.2-2.3 1.9-4.2 1.5-4.1-.5 0-4.2 1.1-8.3 2.5zM116.1 246.363c-1.7 2.1-.8 5 1.7 5.3 3 .4 4.9-3.1 2.7-5.2-1.9-2-2.8-2-4.4-.1zm3 2.5c0 .5-.4 1-1 1-.5 0-1-.5-1-1 0-.6.5-1 1-1 .6 0 1 .4 1 1z"/></svg>