<svg xmlns="http://www.w3.org/2000/svg" width="365" height="341" version="1.0" viewBox="0 0 274 256"><path d="M162 57a19 19 0 0 0-16 10 20 20 0 1 0 35 0 19 19 0 0 0-16-10h-3zm72-54c-8 0-16 6-20 13-2 4-4 7-8 10-6 6-10 17-5 26a54 54 0 0 0 9 11 21 21 0 0 0 30-3c4-6 8-12 8-20 3-6 8-13 7-20-1-10-11-17-21-17Zm-20 18c2-1 2-1 0 0zM62 7C51 7 42 17 43 28c0 10 9 19 19 20 9 1 19-6 21-15 2-12-6-25-19-26h-2Zm124 72a22 22 0 0 0-15 7 23 23 0 0 0-13 9l-5 6c-7 2-16 3-21 10-4 6-3 12-3 18 0 7 0 15 5 20a98 98 0 0 0-9 21c-4 6-3 13 0 20 2 5 2 12 6 16 6 10 21 10 30 4 6-5 9-13 14-19l5-8c5-3 8-9 10-15 3-7 9-13 8-21 1-3 4-4 6-6a20 20 0 0 0 14-22c-1-6-5-11-7-16-2-3-5-6-5-10a20 20 0 0 0-20-14zm-24 78c1 0 0 0 0 0zM88 67c-10 0-17 9-22 17-4 6-4 14-2 22l4 15a22 22 0 0 0-13 17c-2 7-2 14 3 20 4 6 8 13 16 15 3 5 9 8 15 9 2 7 4 14 8 21a22 22 0 0 0 17 9c6 2 14 4 21 1a19 19 0 0 0 9-25c-2-7-6-13-5-21l-1-14c5-3 7-9 9-15 3-8 0-18-5-24a21 21 0 0 0-18-7c-2-2-7-1-6-4a20 20 0 0 0-9-20c-3-9-10-16-19-16h-2zm8 41zm-4 3c1 0 1-1 0 0zm6 47zm136-48c-3 1-6 3-9 2a19 19 0 0 0-20 14c-1 4 0 8-3 10a33 33 0 0 1-5 8 47 47 0 0 0-6 22c-5 9-13 15-20 21-11 6-23 8-35 12a20 20 0 0 0-12 24c1 4 0 9 3 13 4 8 14 11 22 9l16-3a25 25 0 0 0 28-9c1-2 2-5 4-5 8 4 16 9 25 9 10 1 19-8 19-18 1-8-5-14-7-22-1-1-4-4-1-5 10-6 17-20 12-32-1-3 2-2 5-3 8-3 17-5 21-13a20 20 0 0 0-8-28 116 116 0 0 0-21-7 24 24 0 0 0-8 1zm-19 17c2 0 2 0 0 0zm-3 1c1-1 1 0 0 0zm2 56s1 0 0 0zm-16 36c0 1 0 0 0 0zm16-154c-7 0-14 4-18 10-7 6-10 15-7 24 1 5 3 9 7 13 2 7 7 13 15 14 4 1 8 4 12 4 7 1 16-1 21-7s6-15 2-22a26 26 0 0 0-13-28 27 27 0 0 1-7-5 21 21 0 0 0-12-3zm-9 43c1-3 1-3 0 0zm5 9c-1-1 0-1 0 0zM136 0a21 21 0 0 0-19 15l-3 8c-3 1-6 2-8 1a26 26 0 0 0-30 14l-7 8c-3 6-2 13 0 19 2 8 7 15 15 17 8 3 16-1 22-5 3-3 7-2 10-3 4-1 6-5 10-5l21 3c7 1 13 4 19 4l8 5c4 13 21 19 32 11 6-4 10-12 14-19 5-7 6-17 2-24a20 20 0 0 0-23-9c-3-1-4-5-6-7a26 26 0 0 0-30-8c-2-1-4-1-4-4-3-7-5-15-12-18-3-2-7-3-11-3zM89 52c0-2 1-2 0 0zm101 2s1 0 0 0zM88 55s0-1 0 0zm34 12zM53 30c-11 0-20 10-19 21 1 7 5 14 8 21-13 4-21 20-15 33 1 2 0 5-2 6-8 2-17 4-22 11-5 9-4 22 4 28 6 4 14 5 21 8 5 3 11 4 17 2 4-2 9-2 14-3a19 19 0 0 0 14-20c0-6 2-12 1-17 2-8 6-15 7-23 0-3 1-5 3-7 5-5 8-12 6-19l-7-25a19 19 0 0 0-18-14 26 26 0 0 0-12-2ZM30 159c-1-1-2-1 0 0zm22-20c-8 1-17 4-21 11-3 4-2 8-5 12-4 12 4 27 15 31 0 3-2 6-3 8-3 7-7 14-5 21 2 11 14 17 25 14l18-8c4 12 20 18 32 14l15 3c11 1 21-9 20-19 1-6-2-10-4-14a26 26 0 0 0-17-17 29 29 0 0 0-11-2l-15-10-7-5c-1-5-3-11-8-15-3-7-5-15-13-19-5-2-9-5-14-5h-2zm9 38zm0 17c0-1 0-1 0 0zm-11 1s-1 0 0 0z" style="fill:#fff;stroke-width:.114374"/><path d="m233 18-8 12a21 21 0 0 1-6 6l-8 11c-4 9-5 10-10 12l-4 2-9-5c-6-4-8-6-8-8 0-5-8-9-12-5h-9l-11-3c-3 0-3-1-7-13l-4-13-5 13-4 13-7 1-12 2-4 1-3-2c-5-2-10 1-10 6 0 2-1 3-4 5a33 33 0 0 1-6 3l-2-6-4-5-3-5-2-4c-1 0-2-1-2-3l-2-5-3-8-4-6c-2 0-2 1-2 5l2 11c2 5 2 7 1 8s0 3 1 7l1 7-7-3-6-3 7 14 7 13-5 8c-5 7-6 8-9 8l-5 2c-2 4-2 7 0 10 2 2 2 3 1 6l-2 10-1 7-14 5a108 108 0 0 0-14 5l14 5 14 5-5 4c-3 1-5 3-5 4l-2 3-1 2c0 2-1 3-7 5a38 38 0 0 0-8 4l1 2c2 2 2 2 13-1l18-5a15 15 0 0 1-4 3l-4 2 2 2c2 0 3 2 3 2 0 3 4 6 6 6s4 2 8 8l5 7-7 14-7 14 14-6 15-7 7 4c6 4 7 6 7 8l2 4c2 2 8 2 10 0 1-1 3-1 11 1l9 4c0 2 0 2-3 1-4-1-5 2-5 8 1 4 1 4 3 5 3 0 3 0 4-2l1-2 1 2c-1 2-1 3 1 3l3-2c2-1 2-1 5 7a34 34 0 0 0 3 8l5-15 5-14 10-3c9-2 10-2 12 0 4 2 8 0 10-5 1-2 4-5 9-8l7-5 14 8a143 143 0 0 0 15 6l-7-14-7-15 5-7c3-6 5-7 7-7s6-4 6-8l-1-4c-2-2-2-3-1-8l3-9v-4l15-5 14-5-14-5c-14-5-15-5-15-8s0-3 2-4c3 0 5-4 3-5l-4-2c-4-1-6-6-3-9 2-2 2-8-1-10a8 8 0 0 0-5-2l-4-2-3-5-2-4 6-9a54 54 0 0 0 7-13l4-9 3-8c-1-3 1-6 5-13 5-8 6-11 5-12-2-3-4-2-9 4zm7-4c1 1-1 4-3 8-6 10-10 20-8 18s1 0-3 8a27 27 0 0 0-4 9l-7 13-7 11 2 4c3 4 2 6-2 2-3-3-4-2-2 7l2 5c1-1 1-1 3 3l2 6c1 1 2 2 5 2 5 0 8 1 4 2h2c9 0 12 2 5 4l-8 2-4 2v6l-1 12c-1 4-2 7-1 8l1-2 1-3-1 5-4 11-6 13a87 87 0 0 0-4 9l8-12c2-3 2 0 0 3a73 73 0 0 1-23 27l-3 4-3 1a128 128 0 0 1-31 12c-8 2-9 3-10 5-2 5-4 8-5 7l-2 5a24 24 0 0 1-4 7l-2 2v-4c1-4 1-4-1-2s-1 2 0-3c0-4 0-5-2-7l-2-5c-2-5-2-5-10-8h-4l2 2 2 1c-1 0-14-7-18-11a17 17 0 0 0-6-3l-7-6c-7-6-11-13-10-15l-2-1c-1 1-2 0-5-8l-4-9h-4c-4 1-5-1 0-2 4-1 6-4 2-3a624 624 0 0 0-29 9l-10 3-1-1 9-4c9-4 12-5 8-5-4 1-3-2 1-2l7-4 3-2h-3l-5 1-3 1 2-2a67 67 0 0 1 11-3c6-2 8-3 8-5l-1-3v-20l2-8 4-11c2-5 3-7 2-8s2-9 6-14l3-3-1 3c-1 4-1 5 1 4 2-2 1-5-1-11l-8-30c1-1 1 0 2 3l2 4a92 92 0 0 0-5-19l-2-12 2 4 3 8 3 9 2 4v-3l3 6 3 5c0-2 1-1 3 3a57 57 0 0 0 7 16l-1-5c-3-5-2-5 1-1l2 4 8-5c9-7 12-8 11-6s0 2 2 1a9 9 0 0 0 3-3c3-3 17-6 19-3l3 1a105 105 0 0 1 29 6l7 2-1-1-3-2c-1-1-1-1 2-1l15 9c9 6 11 8 9 8l-4-1c-2-1-2-1-1 1l5 3 3 2 4-6 12-20a55 55 0 0 1 10-14l6-8a72 72 0 0 1 6-8 31 31 0 0 0 4-5c1-3 2-4 3-2zm-17 118-2 10-2 3 1-4v-9c0-5 0-6 2-6l1 6zm-6 20c-1 1-1 1-1-1l1-4c1-2 1-2 1 0l-1 5zM46 167l-2 1v-1a2 2 0 0 1 1-1l1 1zm31 26c4 5 2 5-3 0a14 14 0 0 1-5-7v-4l3 3 5 8zm44 42-1 5c-1 0-2-1-2-4l1-4c1-2 2-1 2 3z"/><path d="m126 66-6 1c-4-1-8 1-20 9l-9 5-2-1 3 10c3 9 5 12 3 4-3-6-3-10-2-10 2 0 3 2 6 11v7c-2 1-2 3 0 9l1 5v4l2 4 1-4 2-6c1-5 2-3 1 2l-1 6c0 2 2 1 3-1 2-2 2-2 3-1v2c-2 3 1 2 3-1 4-4 6-2 1 3l-2 3 6-1c7-2 11-2 11 0l-4 3-3 1 4-1c7 0 13-2 12-4 0-1-1-1 16-5l14-5 2-1c1 1 1-1-2-7-1-4-1-5 2-1l2 3 2-9c0-10 2-12 2-3l1 8 1 3 2-5 5-6 2-3c1-2 1-3-6-10a53 53 0 0 0-24-16l3 2c4 2 5 4 4 6s-1 2-3 0l-6-2c-6-1-8-2-8-6 0-2 0-2-6-2l-9-1-7 1z"/><path d="m150 68 3 1c2 1 2 1 1-1-2-1-6-2-4 0zM77 97l-2 5-2 6c-3 5-3 6-2 6l1-2 1-2c2 0 1 4 0 9-3 5-3 22-1 22l1-1c0-1 1-2 3-2l4-3a13 13 0 0 1 4-2c2 0 2-1 1-2-1-2 0-4 2-3s2-3 0-9a34 34 0 0 1-3-8l-4-16c-1-1-2 0-3 2zm119 8c-2 3-2 3 0 4 3 0 4-1 3-5l-2-3zm-1 19-4 3-3 3-4 2-2 4-2 5a55 55 0 0 0-9 14l5-7c4-6 6-7 6-5l-7 13-3 7c0 2-1 4-3 5-1 2-2 2-4 1s-3-1-4 4c-1 2 0 3 1 2 2-1 1 1-3 6-9 13-13 22-9 20h2v-1c-1-1 2-2 5-4a104 104 0 0 0 24-13c3-3 3-4 1-4-3 2-2 0 6-8l9-12c2-4 2-6 0-2l-3 3 3-10c5-11 5-13 5-20l-2-7-5 1zm-53 2 2-1h-1c-2 0-2 0-1 1zm-12 6-2 1 7-3-5 2zm-7 3h1c1 0 2-1 0-1l-1 1zm7 0c-2 1-3 1-2 2 0 1-2 2-9 4s-9 2-8 4l6 14-1-6c-1-6-1-8 1-3a43 43 0 0 1 4 20c-1 5 0 7 3 16 3 12 6 17 7 15a84 84 0 0 0 4-9l6-13c2-2 3-5 2-6l16-30 5-8-17 2c-11 3-16 3-11 1 4-1 4-2 0-2-2 1-2 1-2-1h-4zm-46 18a32 32 0 0 1-9 2c-2 0-2 1 0 4l6 11 6 9 8 6 8 6 5 3 5 3-3-10-6-17a51 51 0 0 0-7-16l-4 6c-1 4-3 7-4 7s0-8 2-12l1-4-8 2zm32 93c-2 2-1 5 2 6 3 0 5-3 3-6h-5zm3 3-1 1a1 1 0 0 1-1-1l1-1 1 1z"/></svg>