<svg xmlns="http://www.w3.org/2000/svg" viewBox="-10 0 1010 1000"><path d="M696 610a49 49 0 0 0-49 52c-1 27 24 52 52 48 27-3 47-31 47-57a46 46 0 0 0-50-43z" style="fill:#fff;stroke:#b00;stroke-width:0;paint-order:stroke fill markers" transform="translate(-10)"/><path d="M722 550c-29 0-52 27-50 55 1 30 32 53 61 45 35-8 53-57 28-84a49 49 0 0 0-39-16zm43-177c-24 0-42 18-51 38-13 21-18 51-1 71 13 16 35 17 54 14 21 0 44-7 54-28 12-23 0-48-11-69a50 50 0 0 0-45-25z" style="fill:#fff;stroke:#b00;stroke-width:0;paint-order:stroke fill markers" transform="translate(-10)"/><path d="M543 271a261 261 0 0 0-172 52c-19 14-23 43-11 63 15 34 25 69 41 101 12 21 40 28 62 19 44-10 88-14 131-27 26-7 54-10 80-20 26-12 34-43 47-66a47 47 0 0 0-17-59c-30-22-64-39-98-54a159 159 0 0 0-63-9zm4 287a211 211 0 0 0-59 16 49 49 0 0 0-22 62c7 21 16 47 40 55 25 9 53-4 65-27 9-18 22-35 25-55 4-28-21-53-49-51z" style="fill:#fff;stroke:#b00;stroke-width:0;paint-order:stroke fill markers" transform="translate(-10)"/><path d="M940-1c-23 0-41 17-49 38a1274 1274 0 0 1-86 137c-10 10-17 23-25 35a85 85 0 0 0-11 18l-36-27c-10-7-21-11-32-17-9-4-20-4-27-13-23-15-51-17-77-23-32-4-66-8-97 1-14-2-28 2-41 5a58 58 0 0 0-52 16 290 290 0 0 0-70 25c-16-42-34-83-51-124-10-22-23-49-49-55-26-8-58 9-62 37-5 17 6 33 6 50 7 37 19 72 30 108 4 11 3 23 6 35l11 49c-5 10-8 21-17 27-18 22-30 49-42 74-6 19-2 40-9 60 0 12-10 22-11 34-2 10-2 20-2 30-31 6-68 8-90 35a89 89 0 0 0-20 58c-10 21-15 48 1 67 9 9 14 23 28 27 18 7 39 5 58 1 9-2 16-9 26-7 9-1 18-5 27-3 8-3 12 0 14 7a423 423 0 0 0 229 187c13 29 20 61 37 89 18 27 64 29 82 1 9-12 11-28 20-41 8-13 15-27 26-37 31-4 62-10 91-24 46-22 96-44 131-82 23-28 45-57 64-88 13-17 16-38 25-57 18-47 13-100 17-149 25-13 51-36 48-66-2-27-27-45-53-47-7-2-16 0-22-3-11-18-23-33-35-50 43-85 84-171 131-254 13-23 14-57-9-74a49 49 0 0 0-33-10ZM707 189c5 1-4 0 0 0zm-15 10c0 2-2-5 0 0zm95 4c2-2 2-1 0 0zM533 316c23 0 47-1 68 11 27 13 56 26 79 46 0 6-7 13-10 20-6 10-8 28-23 28-31 8-63 12-93 23a1424 1424 0 0 0-108 20c-9 5-9-8-13-14-13-31-22-63-37-93 24-8 44-25 67-33 17-4 34-8 52-8h18zm-175 63c-3 1 3 0 0 0zm403 31a46 46 0 0 1 29 39 49 49 0 0 1-36 5c-6-2-20-5-17-14a45 45 0 0 1 22-30h1zm-26 162a350 350 0 0 1-28 75c-8 11-15 26-24 34 4-8 5-17 7-25 16-10 21-28 25-45 3-7 3-14 5-21a61 61 0 0 0 16-19zm-182 31-31 55-17-45a3750 3750 0 0 1 50-12l-1 1zm159 14c-1 11 0-10 0 0zm11 17s2-1 0 0zM72 650c-1 0-1 0 0 0zm9 2c-3 0-7-1 0 0z" style="fill:#fff;stroke:#b00;stroke-width:0;paint-order:stroke fill markers" transform="translate(-10)"/><path fill="currentColor" d="M788 265c5 0 12-27 16-27 2 0 6-6 9-13 4-8 8-15 11-17 4-2 13-14 21-27 21-32 52-79 70-115 13-25 15-28 20-23 6 5 4 10-16 43-11 20-44 82-72 139l-57 115c17 30 49 65 53 78 4 14 4 14 29 15 13 0 27 2 31 4 6 3 6 3 0 11-8 9-30 21-40 21-14 0 6 121-24 179-4 8-8 18-8 22 0 7-15 21-15 27a83 83 0 0 1-13 19l-28 38c-17 24-46 45-84 63-33 16-63 34-105 39-37 4-39 5-63 40-13 18-25 41-27 51-4 16-5 17-10 11-6-6-12-22-26-63s-15-42-38-48c-39-10-81-34-121-68-52-47-72-73-95-124-4-8-6-9-19-7-11 1-26 10-28 0-2-14-22 17-26 7-2-7-7-6-19 3-6 5-16 8-27 8-16 0-17-1-13-8 9-17-12 1-12-7 0-9 9-31 15-35 5-4 5-5 0-7s-6-5-3-14c7-19 16-23 55-29a328 328 0 0 0 44-8c8-3 13-25 9-37-4-13 2-37 10-39 6-1 6-3 3-9a16 16 0 0 1 0-15c2-4 4-16 4-25 0-28 6-29 16-52 10-21 23-38 28-35 1 1 4-4 5-10 3-14 21-30 16-46l-12-47a110 110 0 0 1-4-31c1-2 0-6-1-8l-11-33-16-53a147 147 0 0 1-6-32c1-5-1-13-4-18-4-5-5-11-3-14 6-9 23 17 39 60 20 51 22 47 38 92l16 41v14l26-15c23-17 78-38 92-34 7 2 9 1 9-5 0-9 10-14 19-9 4 3 10 2 18-2 7-4 16-5 23-4 6 1 15 1 18-1 18-9 59-1 84 2 21 2 57 13 48 13-2 0 2 4 9 7 8 4 13 9 13 14 9-16 24 7 33 7 4 0 6 2 6 4s3 4 6 4 7 2 8 5c2 3 11 10 21 16s23 16 29 23c12 14 10 13 18 0a49 49 0 0 0 4-15c0-3 2-6 4-6zM494 497c7 0 48-8 56-8 4 0 13-3 18-5 15-9 52-11 69-17a85 85 0 0 1 24-5c9 0 30-24 35-40 3-12 29-46 30-60 2-11 0-12-13-16a77 77 0 0 1-25-16c-6-7-26-19-45-27a375 375 0 0 1-39-20c-18-16-124-14-142-7a67 67 0 0 1-21 5c-4 0-16 5-26 11-20 13-44 24-50 24s-18 20-26 20c-9 0-8 9 7 41a303 303 0 0 1 17 40c5 20 7 17 16 43 22 56 24 58 76 46a400 400 0 0 1 39-9zm-189-87c1-3-2-8-5-11-5-4-7-1-16 15-20 41-33 83-33 111 0 26 0 26 29 18a853 853 0 0 1 42-11c16-4 22-6 19-9-2-2-4-8-4-13s-2-10-4-11c-6-4 1-11-3-15-3-4-25-67-25-74zm467 38c2-2-15-37-16-37a467 467 0 0 0-22 41c-1 3 34 0 37-4zm4 81c1-25 0-28-6-28a252 252 0 0 0-64 18c-13 5-15 9-17 21-2 11-5 16-11 18-4 1-8 5-8 7 0 6-13 15-8 19 3 3 3 7 0 12-2 4-3 7-1 7 1 0-6 11-3 13 1 2-1 4-6 5-9 2-17 17-17 30 0 9-8 23-20 35-4 4-7 11-7 16s-5 14-12 20c-6 7-10 14-9 17s-4 15-10 26c-7 12-11 23-9 24 7 5 83-27 101-42a288 288 0 0 0 65-73c2 0 3-2 3-5l12-29c15-31 26-75 27-111zm-137 6c0-4-23-3-25 1-1 2-8 4-15 5l-131 32c-6 1-23 12-30 8-3-2-3 0-1 9l4 18c0 4 1 7 3 7 5 0 17 33 18 37 10 21 35 100 43 100 4 0 20-22 20-27 0-3 6-13 13-24 14-21 21-32 43-74 9-16 18-32 21-35 8-9 37-54 37-57zM388 667c0-11-15-35-18-46-2-7-6-13-9-13-4 0-24 4-46 10l-40 11 13 23 14 24c0 7 32 40 58 61 28 23 62 41 66 37 1-1-1-7-5-14-4-8-6-17-4-24 1-7 0-13-4-16-8-6 0-17-8-23-8-7 0-13-9-19-4-2-8-7-8-11z"/></svg>