<svg xmlns="http://www.w3.org/2000/svg" viewBox="-10 0 1010 1000"><path d="M695.677 610.001c-27.44-1.252-51.129 24.355-48.776 51.502-1.123 27.263 24.409 52.095 51.823 48.093 27.091-2.874 46.84-30.55 47.176-56.506-.897-25.986-24.693-45.317-50.223-43.089z" style="fill:#fff;stroke:#b00;stroke-width:0;paint-order:stroke fill markers" transform="translate(-10)"/><path d="M721.904 550.317c-28.685-.386-52.317 27-49.568 55.19.585 29.478 32.137 52.116 60.286 43.935 35.225-7.283 53.128-56.231 28.17-83.205-9.654-10.919-24.42-16.557-38.888-15.92zM764.684 373.44c-23.4-.423-41.769 17.596-50.736 37.781-12.614 20.89-18.156 50.623-.674 70.414 12.7 16.21 34.87 17.256 53.707 14.578 20.822-.234 44.18-7.41 53.595-27.735 12.532-23.116.074-49.015-10.775-70.053-9.078-15.86-26.852-25.694-45.117-24.985z" style="fill:#fff;stroke:#b00;stroke-width:0;paint-order:stroke fill markers" transform="translate(-10)"/><path d="M543.415 271.335c-35.121-.003-71.302.439-104.143 14.54-23.423 10.838-47.048 22.014-68.37 36.64-19.24 14.73-22.482 43.206-10.78 63.658 14.524 33.312 24.453 68.654 41.059 101.006 12.357 20.839 39.879 27.467 61.788 19.173 43.723-10.176 88.105-14.185 131.396-27.248 25.598-7.107 53.572-10.406 79.22-19.987 25.953-12.664 33.878-43.035 47.185-66.294 10.23-20.398 2.453-46.338-16.43-58.746-30.084-22.22-64.057-38.741-98.227-53.647-19.883-8.005-41.49-9.455-62.698-9.095zM547.283 558.019c-20.235 2.465-40.602 7.26-59.296 15.488-22.536 10.922-31.648 39.62-22.172 62.264 7.384 21.624 15.923 47.7 40.167 55.311 24.697 8.982 53.465-4.027 65.024-27.218 9.072-17.72 22.372-34.47 25.045-54.629 4.054-27.793-21.12-53.141-48.768-51.216z" style="fill:#fff;stroke:#b00;stroke-width:0;paint-order:stroke fill markers" transform="translate(-10)"/><path d="M940.351-1.178c-23.037-.16-41.27 17.546-49.77 37.687-26.084 47.25-53.599 93.404-85.49 137.267-10.056 10.562-17.384 23.317-25.058 35.479-4.61 5.18-8.108 11.235-11.315 17.35-12.058-8.528-23.185-18.329-35.384-26.562-9.875-7.275-21.761-10.717-32.15-17.202-9.433-4.223-20.485-4.334-27.33-13.064-22.437-15.322-50.728-17.31-76.717-22.356-32.075-4.634-65.645-8.52-97.221.47-13.91-2.025-27.851 1.629-40.905 5.242-18.502-3.682-38.287 2.716-51.481 15.768-24.55 4.39-47.813 14.152-70.321 24.621-16.15-41.525-33.966-82.39-51.353-123.402-10.288-22.436-22.383-49.09-48.89-55.344-26.37-8.106-57.756 8.87-62.284 36.786-4.39 17.376 5.977 33.235 6.64 50.27 6.418 36.844 18.864 72.347 29.942 107.985 4.105 11.047 2.761 23.391 6.205 34.74 3.194 16.507 7.49 32.77 11.079 49.19-5.515 9.782-8.635 20.705-17.908 27.681-18.003 21.854-29.403 48.318-41.225 73.752-6.522 19.051-2.378 40.148-9.197 59.277-.338 12.484-10.487 21.995-11.594 34.655-2.073 9.879-2.087 20.029-1.591 30.066-31.382 6-68.265 8.181-90.142 34.769-13.139 16.32-20.323 37.697-19.41 58.389-10.231 20.58-15.838 47.674.338 66.918 9.238 8.936 14.582 22.307 27.737 26.874 18.385 7.26 39.51 4.89 58.42.375 8.96-1.968 16.427-8.621 25.92-6.76 9.422-.837 17.86-4.88 27.41-3.06 7.27-2.3 11.3.417 13.383 7.64 27.943 52.879 72.724 94.343 119.324 130.7 33.474 24.317 70.273 44.878 110.451 55.628 12.542 29.561 19.625 61.742 36.494 89.29 18.282 27.294 63.687 29.236 82.47 1.456 8.882-12.67 10.191-28.896 19.332-41.574 7.958-12.787 15.206-27.34 26.239-37.34 31.198-3.73 62.45-9.954 91.004-23.675 46.443-22.23 95.685-43.496 131.337-81.945 22.997-28.065 44.791-57.332 63.638-88.316 12.82-16.577 15.915-37.839 25.046-56.32 18.07-47.7 13.177-100.066 16.747-149.706 24.963-12.228 51.292-35.142 48.565-65.632-1.866-26.818-27.571-44.954-52.826-46.858-7.134-2.13-16.727.296-22.511-3.523-10.654-17.166-23.148-33.076-34.772-49.577 42.983-85.06 83.9-171.236 130.997-254.198 13.265-23.086 13.409-57-9.625-74.05-9.086-7.087-20.777-10.35-32.248-9.861Zm-233.308 190.49c4.648.663-3.955-.414 0 0zm-15.482 10.11c.32 2.024-1.462-5.57 0 0zm94.954 3.796c2.369-1.795 1.954-1.306 0 0zM533.299 315.692c22.813.704 47.148-.919 67.555 11.133 27.397 13.56 55.997 25.722 79.432 45.79-.234 5.864-7.313 13.316-9.778 19.96-6.383 10.265-8.442 27.965-23.5 28.454-31.016 7.683-62.924 11.968-92.962 23.216-36.346 5.465-72.604 11.58-108.435 19.857-9.096 4.546-8.597-8.412-12.195-13.702-12.968-31.042-22.823-63.327-37.305-93.742 23.81-7.656 43.535-24.507 67.147-32.27 16.952-4.206 33.911-8.675 51.567-8.346 6.155-.25 12.315-.35 18.474-.35zM358.372 379.43c-3.625.783 2.258-.585 0 0zm402.478 30.793c16.37 5.826 27.244 22.054 28.938 38.954-10.362 6.936-23.778 7.326-35.584 5.294-6.423-2.874-19.928-5.098-17.406-14.386 2.328-12.733 10.357-24.274 21.694-30.591l1.426.44zM735.191 571.79c-5.79 26.327-16.794 51.35-28.36 75.423-7.845 10.95-15.123 25.368-24.29 33.643 3.916-7.648 5.5-16.6 7.513-24.548 15.91-9.786 21.011-28.359 24.423-45.464 3.2-6.307 3.306-14.142 5.116-20.362a60.456 60.456 0 0 0 15.823-19.718zM553.38 603.017c-10.017 18.6-20.063 37.193-30.935 55.311-5.767-15.06-11.387-30.184-17.616-45.062 16.597-4.35 33.233-8.55 49.889-12.672l-.722 1.307zm158.352 13.488c-.56 11.86-.138-9.231 0 0zm11.144 17.552c.563-.402 2.405-1.083 0 0zM71.68 650.402c-.24-.02-.91-.33 0 0zm8.847 1.673c-2.762-.185-6.64-1.083 0 0z" style="fill:#fff;stroke:#b00;stroke-width:0;paint-order:stroke fill markers" transform="translate(-10)"/><path fill="currentColor" d="M787.917 265.389c4.92 0 11.563-27.48 16.487-27.48 1.963 0 5.889-5.888 9.03-13.347 3.14-7.458 7.85-14.917 10.99-16.487 3.142-1.963 12.563-14.132 20.807-27.087 20.51-32.226 52.274-79.033 70.269-115.021 12.562-25.124 14.917-27.871 20.02-22.768 5.104 4.71 3.14 10.205-16.095 42.397-11.777 20.02-44.752 82.829-72.624 139.752l-57.222 114.88c17.273 29.442 48.98 64.913 53.297 78.26 4.318 13.74 4.318 13.74 29.049 14.132 13.347 0 27.48 1.963 31.013 3.925 5.888 3.14 5.888 3.927 0 11.777-7.459 9.03-30.227 21.198-39.649 21.198-14.368 0 6.211 120.244-23.946 178.616-4.319 8.244-7.852 18.058-7.852 21.591 0 7.318-15.702 21.226-15.702 27.087 0 1.962-5.889 10.599-12.561 19.235-7.068 8.636-20.02 25.91-28.658 38.079-16.487 23.553-45.145 45.144-83.615 62.81-33.085 16.008-62.458 34.557-104.814 38.862-37.294 3.927-39.257 5.104-63.202 40.435-12.562 18.058-24.731 41.22-27.087 51.033-3.927 15.703-5.103 16.88-9.814 10.991-5.496-6.28-11.778-22.376-25.91-62.808-14.524-41.612-14.916-42.005-37.685-47.894-39.256-10.206-81.653-34.153-120.91-68.698-52.603-46.322-72.624-72.624-95.784-124.05-3.533-8.243-5.889-9.028-18.451-7.065-10.849 1.548-25.975 9.866-27.872.392-2.769-13.852-22.136 16.737-25.909 6.673-1.964-6.673-7.851-5.889-19.236 3.142-6.673 5.102-16.094 7.85-27.48 7.85-16.093 0-16.88-.392-12.56-8.244 8.936-16.977-12.17 1.907-12.17-6.674 0-8.636 9.421-30.619 14.917-34.937 5.104-4.319 5.104-5.104-.392-7.067-4.711-1.963-5.104-4.71-2.356-13.739 6.674-18.844 16.096-23.554 54.96-29.441 20.412-2.748 40.04-6.283 43.573-7.852 7.852-3.14 12.955-24.731 9.029-36.901-3.925-12.954 1.963-36.508 10.207-38.471 5.888-1.571 6.28-3.533 3.14-9.422-2.355-5.102-2.355-9.813.393-14.917 1.963-4.318 3.926-15.703 3.926-25.517 0-28.057 5.928-28.551 16.095-51.425 9.421-21.199 22.376-38.078 27.086-35.331 1.57 1.177 3.926-3.533 5.496-9.815 2.548-14.436 20.747-30.074 15.702-45.929-5.43-20.36-4.54-20.888-11.383-47.5-3.535-13.74-5.496-27.086-4.711-30.227 1.176-2.748.785-6.281-.785-8.244s-6.674-16.88-11.384-32.976c-4.711-16.094-11.385-40.04-15.31-52.995-3.534-12.954-6.282-27.478-5.89-32.19.786-5.104-1.569-12.954-4.71-17.665-3.141-5.104-4.71-11.384-2.748-14.132 5.89-9.422 22.769 16.487 39.256 60.061 19.536 50.961 21.787 47.174 37.686 91.467 5.496 15.31 12.561 33.76 15.703 41.612v14.132l26.302-15.31c22.768-17.273 77.727-37.686 92.252-33.76 7.066 1.57 9.028.393 9.028-5.496 0-9.028 9.815-13.74 18.844-8.637 4.318 2.357 10.206 1.571 18.056-2.355 6.675-3.533 16.096-5.104 22.77-3.533 6.281 1.177 14.917.786 18.45-1.57 18.068-9.032 58.885-1.228 83.615 1.963 20.807 2.748 57.315 12.954 48.286 13.74-1.962 0 1.962 3.14 9.029 6.28 8.047 4.215 12.36 9.18 12.561 14.525 9.024-15.79 24.51 6.674 33.761 6.674 3.14 0 5.496 1.57 5.496 3.926 0 1.962 2.748 3.925 5.888 3.925 2.748 0 7.067 2.356 8.637 5.496 1.57 2.749 10.992 10.207 20.806 16.094 9.814 5.89 22.768 16.096 28.656 22.376 12.332 13.979 9.964 13.594 17.665.394 2.356-5.104 4.711-11.777 4.711-14.918 0-3.14 1.572-5.888 3.534-5.888zM493.888 497.393c7.653 0 48.57-8.637 56.53-8.637 3.925 0 12.17-2.355 17.665-5.103 14.479-8.273 51.382-10.978 68.698-16.488 8.244-3.14 18.843-5.496 23.947-5.496 9.42 0 30.619-23.552 34.937-39.256 3.61-12.635 28.824-46.07 30.62-60.454 1.178-10.6-.392-12.17-12.954-15.703-7.459-2.355-18.843-9.813-25.516-16.487-6.282-6.673-26.303-18.844-44.752-27.087-18.451-8.243-36.116-17.272-39.257-19.628-17.822-15.595-123.552-14.377-142.107-7.066-6.674 2.748-15.702 5.103-20.414 5.103-4.71 0-16.487 5.104-26.3 10.992-20.021 12.562-43.968 24.338-49.856 24.338-5.962 0-18.432 19.628-25.91 19.628-9.421 0-7.851 9.423 7.066 41.22 7.459 15.31 14.918 33.368 16.488 39.648 5.06 20.244 7.313 17.56 16.487 42.79 21.2 56.529 23.948 58.099 76.158 45.93 18.058-4.318 35.33-8.244 38.47-8.244zm-188.429-87.149c0-3.533-2.748-8.637-5.496-11.385-4.711-3.532-7.46-1.178-15.703 15.31-20.805 40.827-33.76 83.223-33.76 111.096 0 25.516 0 25.516 29.049 17.272 10.992-3.14 30.227-7.851 42.79-10.598 15.702-3.534 21.198-6.282 18.45-9.03-1.963-1.962-3.926-7.851-3.926-12.561 0-5.104-1.963-10.207-4.318-11.385-5.346-3.565 1.468-11.09-2.355-14.918-3.141-3.532-24.731-67.128-24.731-73.8zm465.97 38.078c2.244-2.241-14.305-37.685-15.701-37.685-.785 0-16.096 28.263-21.985 40.826-1.176 3.14 34.154.392 37.686-3.14zm4.712 80.475c.784-24.73 0-27.872-6.281-27.479-12.563.393-48.285 10.207-63.596 17.273-12.953 5.496-15.701 9.03-17.664 21.59-1.571 10.6-4.712 16.096-10.207 17.667-4.318 1.177-7.852 4.71-7.852 7.458 0 5.432-13.114 14.363-8.244 19.235 2.748 2.748 2.748 6.281 0 11.384-1.962 3.927-2.748 7.067-1.177 7.067.763 0-5.798 11.081-3.533 13.347 1.57 1.57-.786 3.533-5.496 4.71-9.028 2.356-16.88 16.488-16.88 30.228 0 9.029-7.851 22.376-20.414 34.938-3.925 3.926-7.065 10.992-7.065 16.095 0 5.103-5.104 14.133-11.385 20.021-6.28 6.28-10.599 13.347-9.422 16.488 1.179 3.14-3.532 14.917-10.206 26.694-6.674 11.776-10.6 22.376-9.028 23.554 7.458 4.71 83.615-26.695 101.28-42.005 25.516-21.983 53.78-52.995 57.313-62.81 2.357-5.889 5.496-10.6 7.46-10.6 1.963 0 3.532-1.961 3.532-4.71 0-2.355 5.496-15.702 12.17-29.05 14.917-31.405 25.517-75.371 26.695-111.095zm-137.005 5.889c0-3.533-22.769-2.747-25.124 1.178-1.177 1.964-7.852 4.318-14.917 5.496-10.846 1.807-119.846 29.82-130.723 31.798-6.433.583-23.398 11.756-30.228 7.85-3.14-1.963-3.533.393-1.177 8.637 1.57 6.28 3.14 14.524 3.533 18.059 0 3.924 1.57 7.065 3.532 7.065 4.96 0 16.532 33.097 18.059 37.293 9.644 21.23 34.906 100.104 43.181 100.104 3.926 0 20.02-21.983 20.02-27.48 0-2.354 5.89-12.56 12.956-23.16 14.132-21.198 20.412-32.583 42.79-74.194 8.635-16.096 18.057-31.798 21.197-35.331 7.852-8.637 36.9-54.173 36.9-57.315zm-251.24 132.686c0-11.216-14.824-35.716-18.058-46.715-1.962-6.281-6.28-12.17-9.421-12.17-3.141-.391-23.947 3.926-45.93 9.814l-40.041 10.992 13.74 22.376c7.065 12.17 13.346 23.555 13.346 24.731 0 6.675 32.19 40.042 58.492 60.848 28.265 22.769 61.632 41.219 65.951 37.293.784-1.178-1.179-7.85-4.712-14.524-3.925-7.852-5.887-17.273-4.317-23.947 1.178-7.066 0-12.562-3.926-15.702-8.31-6.464-.405-17.174-7.852-23.553-7.956-6.961.133-12.483-9.813-18.452-3.927-2.747-7.459-7.459-7.459-10.99z"/></svg>