<?xml version="1.0" encoding="UTF-8" standalone="no"?>
<svg
   xmlns:dc="http://purl.org/dc/elements/1.1/"
   xmlns:cc="http://creativecommons.org/ns#"
   xmlns:rdf="http://www.w3.org/1999/02/22-rdf-syntax-ns#"
   xmlns:svg="http://www.w3.org/2000/svg"
   xmlns="http://www.w3.org/2000/svg"
   xmlns:sodipodi="http://sodipodi.sourceforge.net/DTD/sodipodi-0.dtd"
   xmlns:inkscape="http://www.inkscape.org/namespaces/inkscape"
   version="1.1"
   viewBox="-10 0 1010 1000"
   id="svg5519"
   sodipodi:docname="brujah.svg"
   inkscape:version="1.0.1 (3bc2e813f5, 2020-09-07)">
  <metadata
     id="metadata5525">
    <rdf:RDF>
      <cc:Work
         rdf:about="">
        <dc:format>image/svg+xml</dc:format>
        <dc:type
           rdf:resource="http://purl.org/dc/dcmitype/StillImage" />
      </cc:Work>
    </rdf:RDF>
  </metadata>
  <defs
     id="defs5523" />
  <sodipodi:namedview
     pagecolor="#ffffff"
     bordercolor="#666666"
     borderopacity="1"
     objecttolerance="10"
     gridtolerance="10"
     guidetolerance="10"
     inkscape:pageopacity="0"
     inkscape:pageshadow="2"
     inkscape:window-width="1600"
     inkscape:window-height="837"
     id="namedview5521"
     showgrid="false"
     inkscape:zoom="0.67"
     inkscape:cx="750.09632"
     inkscape:cy="598.27668"
     inkscape:window-x="-8"
     inkscape:window-y="-8"
     inkscape:window-maximized="1"
     inkscape:current-layer="svg5519" />
  <path
     style="fill:#ffffff;stroke:#bb0000;stroke-width:0;paint-order:stroke fill markers"
     d="m 695.67701,610.00126 c -27.44027,-1.25244 -51.12901,24.35473 -48.77565,51.50128 -1.12343,27.2634 24.40821,52.09547 51.82258,48.09298 27.09104,-2.87333 46.83978,-30.54952 47.17628,-56.50514 -0.8971,-25.98633 -24.69302,-45.3174 -50.22321,-43.08912 z"
     id="path6126"
     transform="translate(-10)" />
  <path
     style="fill:#ffffff;stroke:#bb0000;stroke-width:0;paint-order:stroke fill markers"
     d="m 721.90427,550.31726 c -28.68546,-0.3865 -52.31771,27.00044 -49.56856,55.18889 0.58558,29.47873 32.13753,52.11688 60.28651,43.93573 35.22519,-7.28287 53.1278,-56.23087 28.16896,-83.2053 -9.65315,-10.91816 -24.41835,-16.55678 -38.88691,-15.91932 z"
     id="path6124"
     transform="translate(-10)" />
  <path
     style="fill:#ffffff;stroke:#bb0000;stroke-width:0;paint-order:stroke fill markers"
     d="m 764.68354,373.43992 c -23.39949,-0.42258 -41.76847,17.59632 -50.73542,37.78156 -12.61396,20.89034 -18.15645,50.62295 -0.67423,70.41328 12.70082,16.21049 34.87079,17.25593 53.70676,14.57802 20.8223,-0.23407 44.17969,-7.40929 53.59519,-27.73496 12.53225,-23.11542 0.0737,-49.0152 -10.77476,-70.05235 -9.07821,-15.86106 -26.85246,-25.69448 -45.11754,-24.98555 z"
     id="path6122"
     transform="translate(-10)" />
  <path
     style="fill:#ffffff;stroke:#bb0000;stroke-width:0;paint-order:stroke fill markers"
     d="m 543.41488,271.33521 c -35.12138,-0.003 -71.3014,0.43851 -104.14242,14.53928 -23.42363,10.83852 -47.04822,22.01423 -68.37099,36.64134 -19.23981,14.72854 -22.48187,43.20524 -10.78008,63.6573 14.52441,33.31175 24.45366,68.65363 41.05935,101.00571 12.35764,20.83896 39.87926,27.46742 61.78871,19.1727 43.72259,-10.17548 88.10457,-14.18436 131.39576,-27.24755 25.5975,-7.10716 53.57144,-10.40634 79.21903,-19.98664 25.95424,-12.66445 33.87896,-43.03506 47.18605,-66.29485 10.23057,-20.39778 2.45231,-46.33744 -16.42957,-58.74533 -30.08431,-22.22035 -64.05786,-38.74159 -98.22761,-53.64681 -19.8834,-8.00585 -41.48984,-9.45498 -62.69823,-9.09515 z"
     id="path6118"
     transform="translate(-10)" />
  <path
     style="fill:#ffffff;stroke:#bb0000;stroke-width:0;paint-order:stroke fill markers"
     d="m 547.28324,558.01898 c -20.23497,2.46504 -40.60199,7.25989 -59.2963,15.48799 -22.53627,10.92169 -31.64817,39.61937 -22.17234,62.26388 7.38447,21.62438 15.92302,47.70031 40.16753,55.31122 24.69713,8.98144 53.46506,-4.02756 65.02429,-27.21829 9.07151,-17.72016 22.37186,-34.46954 25.04419,-54.6288 4.0544,-27.79331 -21.1198,-53.14142 -48.76737,-51.216 z"
     id="path6120"
     transform="translate(-10)" />
  <path
     style="fill:#ffffff;stroke:#bb0000;stroke-width:0;paint-order:stroke fill markers"
     d="m 940.3511,-1.178198 c -23.03754,-0.1589298 -41.27062,17.546012 -49.77075,37.687563 -26.08322,47.24915 -53.59785,93.403825 -85.48945,137.266755 -10.05588,10.56141 -17.3841,23.31711 -25.05834,35.47848 -4.60948,5.18133 -8.10741,11.23554 -11.31451,17.35114 -12.05815,-8.52835 -23.18531,-18.32938 -35.38363,-26.56251 -9.87559,-7.2752 -21.76141,-10.71772 -32.15076,-17.20207 -9.43255,-4.22344 -20.48503,-4.33447 -27.32994,-13.06451 -22.43673,-15.32129 -50.728,-17.31033 -76.71715,-22.35538 -32.07492,-4.6346 -65.6441,-8.52007 -97.22098,0.47061 -13.90881,-2.02541 -27.85106,1.62806 -40.90485,5.24137 -18.50184,-3.68184 -38.28624,2.71538 -51.48088,15.76784 -24.54993,4.38958 -47.81254,14.15226 -70.32126,24.62103 -16.14888,-41.52544 -33.9657,-82.38932 -51.35261,-123.402509 -10.28837,-22.435376 -22.38276,-49.090199 -48.88934,-55.3434 -26.37071,-8.1057224 -57.75682,8.868857 -62.28428,36.785797 -4.38945,17.376097 5.97659,33.234667 6.63997,50.269242 6.41781,36.84495 18.86378,72.34738 29.94168,107.98625 4.10503,11.04652 2.76116,23.39094 6.20482,34.74003 3.19403,16.50674 7.49042,32.76956 11.07897,49.18906 -5.51466,9.78255 -8.63506,20.70492 -17.90753,27.68191 -18.00278,21.85352 -29.40359,48.31776 -41.22538,73.75159 -6.52217,19.05108 -2.37784,40.14824 -9.19731,59.27662 -0.33746,12.48479 -10.48618,21.99497 -11.5934,34.65486 -2.07286,9.87896 -2.08698,20.02897 -1.59165,30.06646 -31.3815,6.00018 -68.264051,8.18117 -90.141095,34.76854 -13.139445,16.3202 -20.323704,37.69709 -19.409704,58.38942 -10.232137,20.57918 -15.838528,47.6737 0.337403,66.91794 9.237953,8.93576 14.581463,22.30749 27.736544,26.87358 18.38575,7.26036 39.510712,4.89008 58.421232,0.37561 8.95855,-1.96817 16.42603,-8.62122 25.91826,-6.76014 9.42288,-0.83711 17.86121,-4.87944 27.41079,-3.06087 7.2691,-2.29839 11.30043,0.41748 13.38328,7.64051 27.94228,52.87916 72.72414,94.34301 119.32358,130.70071 33.47443,24.31678 70.27309,44.87776 110.45137,55.62741 12.54219,29.56128 19.62519,61.74179 36.49401,89.29059 18.28171,27.29357 63.68689,29.23597 82.47072,1.45581 8.88137,-12.66922 10.19034,-28.89651 19.33111,-41.57428 7.95843,-12.78715 15.20614,-27.34075 26.23892,-37.33968 31.19761,-3.73006 62.45024,-9.9542 91.00417,-23.67506 46.44276,-22.231 95.68516,-43.49609 131.33725,-81.94528 22.99692,-28.06443 44.7906,-57.33221 63.63742,-88.31555 12.82104,-16.57769 15.91559,-37.83882 25.0461,-56.32064 18.06972,-47.70036 13.17723,-100.06533 16.74733,-149.70557 24.96306,-12.22763 51.29155,-35.14202 48.56516,-65.6317 -1.86641,-26.81881 -27.5714,-44.95473 -52.82609,-46.85867 -7.13459,-2.12956 -16.72697,0.29588 -22.51146,-3.52235 C 875.34481,369.34163 862.85072,353.4316 851.22738,336.93106 894.20965,251.87105 935.12659,165.69495 982.22377,82.733301 995.48863,59.647054 995.63256,25.732445 972.59927,8.6837319 963.51284,1.5958737 951.82236,-1.6671592 940.3511,-1.178198 Z M 707.04304,189.31271 c 4.64767,0.66182 -3.9546,-0.41459 0,0 z m -15.48217,10.10961 c 0.31924,2.02352 -1.46188,-5.57005 0,0 z m 94.95394,3.79548 c 2.36887,-1.79502 1.95458,-1.30568 0,0 z M 533.29944,315.69156 c 22.81279,0.70445 47.14801,-0.91836 67.55425,11.13367 27.39773,13.55919 55.99764,25.72209 79.43199,45.78979 -0.23338,5.86422 -7.31247,13.31567 -9.77775,19.9597 -6.38316,10.26496 -8.44216,27.96502 -23.50003,28.45426 -31.01628,7.6832 -62.92439,11.9685 -92.96161,23.2161 -36.34646,5.46488 -72.60445,11.58061 -108.43534,19.8567 -9.0963,4.54576 -8.59674,-8.41189 -12.19457,-13.7016 -12.96887,-31.04235 -22.82378,-63.3268 -37.30502,-93.74256 23.81005,-7.65593 43.53448,-24.50645 67.14669,-32.27029 16.95193,-4.20571 33.91137,-8.67394 51.56722,-8.34494 6.15463,-0.25049 12.31468,-0.35004 18.47417,-0.35083 z m -174.92712,63.73892 c -3.62537,0.78244 2.25782,-0.58591 0,0 z m 402.47785,30.79233 c 16.36906,5.826 27.24388,22.05415 28.93831,38.95464 -10.36198,6.93508 -23.77886,7.3259 -35.58428,5.29373 -6.42352,-2.87406 -19.92788,-5.09792 -17.40663,-14.38597 2.32881,-12.73341 10.3573,-24.27453 21.69427,-30.59119 l 1.426,0.44067 z m -25.65882,161.56717 c -5.79005,26.32655 -16.79479,51.34928 -28.36112,75.42268 -7.84393,10.95081 -15.12266,25.36878 -24.28872,33.6433 3.91506,-7.64816 5.50008,-16.60061 7.51224,-24.54815 15.90955,-9.78554 21.01154,-28.35876 24.42282,-45.46409 3.19979,-6.30664 3.30675,-14.14145 5.11602,-20.36206 6.58452,-5.36073 12.01837,-12.12721 15.82322,-19.7178 z m -181.81261,31.22667 c -10.01632,18.59953 -20.06288,37.19334 -30.93517,55.31134 -5.76704,-15.06067 -11.38622,-30.18393 -17.61603,-45.06181 16.59739,-4.35017 33.23387,-8.54977 49.88923,-12.672 l -0.72163,1.3065 z m 158.35179,13.48822 c -0.55863,11.85952 -0.13776,-9.23103 0,0 z m 11.14448,17.5519 c 0.56298,-0.40205 2.40535,-1.0823 0,0 z M 71.679808,650.4018 c -0.240047,-0.02 -0.909717,-0.32944 0,0 z m 8.847365,1.67326 c -2.762289,-0.18534 -6.639257,-1.08271 0,0 z"
     id="path6116"
     transform="translate(-10)" />
  <path
     fill="currentColor"
     d="M787.917 265.389c4.91992 0 11.5625 -27.4795 16.4873 -27.4795c1.96289 0 5.88867 -5.88867 9.03027 -13.3477c3.13965 -7.45801 7.84961 -14.917 10.9902 -16.4863c3.1416 -1.96387 12.5625 -14.1328 20.8066 -27.0879 c20.5088 -32.2256 52.2734 -79.0322 70.2686 -115.021c12.5625 -25.124 14.917 -27.8711 20.0205 -22.7676c5.10352 4.70996 3.13965 10.2051 -16.0957 42.3965c-11.7764 20.0205 -44.752 82.8291 -72.624 139.752l-57.2217 114.881 c17.2725 29.4414 48.9795 64.9121 53.2969 78.2588c4.31836 13.7402 4.31836 13.7402 29.0488 14.1328c13.3477 0 27.4795 1.96289 31.0137 3.9248c5.8877 3.14062 5.8877 3.92676 0 11.7773c-7.45898 9.0293 -30.2275 21.1982 -39.6494 21.1982 c-14.3682 0 6.21094 120.244 -23.9463 178.616c-4.31836 8.24316 -7.85156 18.0576 -7.85156 21.5908c0 7.31738 -15.7021 21.2256 -15.7021 27.0869c0 1.96191 -5.88867 10.5986 -12.5615 19.2344c-7.06738 8.63672 -20.0205 25.9102 -28.6572 38.0791 c-16.4873 23.5537 -45.1455 45.1445 -83.6152 62.8105c-33.085 16.0078 -62.458 34.5566 -104.814 38.8623c-37.2939 3.92676 -39.2568 5.10352 -63.2021 40.4346c-12.5625 18.0576 -24.7314 41.2197 -27.0869 51.0332c-3.92676 15.7031 -5.10352 16.8799 -9.81445 10.9912 c-5.49609 -6.28027 -11.7773 -22.376 -25.9092 -62.8086c-14.5244 -41.6123 -14.917 -42.0049 -37.6855 -47.8936c-39.2559 -10.2061 -81.6533 -34.1533 -120.91 -68.6982c-52.6035 -46.3223 -72.624 -72.624 -95.7842 -124.05 c-3.5332 -8.24316 -5.88867 -9.02832 -18.4512 -7.06543c-10.8486 1.54883 -25.9746 9.86621 -27.8721 0.392578c-2.76855 -13.8525 -22.1357 16.7373 -25.9082 6.67285c-1.96387 -6.67285 -7.85156 -5.88867 -19.2363 3.1416 c-6.67285 5.10254 -16.0938 7.84961 -27.4795 7.84961c-16.0938 0 -16.8799 -0.391602 -12.5615 -8.24316c8.93652 -16.9766 -12.1689 1.90723 -12.1689 -6.67383c0 -8.63574 9.4209 -30.6191 14.917 -34.9375c5.10352 -4.31836 5.10352 -5.10352 -0.392578 -7.06641 c-4.71094 -1.96289 -5.10352 -4.71094 -2.35547 -13.7393c6.67383 -18.8438 16.0957 -23.5537 54.959 -29.4414c20.4131 -2.74805 40.041 -6.28223 43.5742 -7.85156c7.85156 -3.14062 12.9551 -24.7314 9.02832 -36.9014 c-3.9248 -12.9541 1.96289 -36.5078 10.207 -38.4707c5.88867 -1.57129 6.28125 -3.5332 3.14062 -9.42188c-2.35547 -5.10254 -2.35547 -9.81348 0.392578 -14.917c1.96289 -4.31836 3.92578 -15.7031 3.92578 -25.5166c0 -28.0576 5.92871 -28.5518 16.0957 -51.4258 c9.4209 -21.1982 22.376 -38.0781 27.0859 -35.3311c1.57031 1.17773 3.92578 -3.53223 5.49609 -9.81445c2.54785 -14.4365 20.7471 -30.0742 15.7021 -45.9287c-5.42969 -20.3613 -4.54004 -20.8887 -11.3838 -47.5 c-3.53418 -13.7402 -5.49609 -27.0869 -4.71094 -30.2275c1.17676 -2.74805 0.785156 -6.28125 -0.785156 -8.24414s-6.67383 -16.8799 -11.3838 -32.9756c-4.71094 -16.0938 -11.3848 -40.041 -15.3105 -52.9951c-3.5332 -12.9541 -6.28125 -27.4785 -5.88867 -32.1904 c0.785156 -5.10352 -1.56934 -12.9541 -4.71094 -17.665c-3.14062 -5.10352 -4.70996 -11.3838 -2.74805 -14.1318c5.88965 -9.42188 22.7695 16.4873 39.2568 60.0615c19.5361 50.9609 21.7871 47.1738 37.6855 91.4668c5.49609 15.3096 12.5615 33.7607 15.7031 41.6123 v14.1318l26.3018 -15.3105c22.7686 -17.2725 77.7275 -37.6855 92.252 -33.7598c7.06641 1.57031 9.02832 0.392578 9.02832 -5.49609c0 -9.02832 9.81445 -13.7393 18.8438 -8.63672c4.31836 2.35645 10.2061 1.57129 18.0566 -2.35547 c6.6748 -3.53223 16.0957 -5.10352 22.7695 -3.53223c6.28125 1.17676 14.917 0.785156 18.4502 -1.57129c18.0674 -9.03125 58.8848 -1.22754 83.6152 1.96387c20.8066 2.74805 57.3145 12.9541 48.2852 13.7393c-1.96191 0 1.96289 3.14062 9.0293 6.28125 c8.04688 4.21484 12.3604 9.17871 12.5615 14.5244c9.02344 -15.7891 24.5088 6.67383 33.7607 6.67383c3.14062 0 5.49609 1.57031 5.49609 3.92578c0 1.96289 2.74805 3.92578 5.8877 3.92578c2.74805 0 7.06738 2.35547 8.63672 5.49609 c1.57031 2.74805 10.9922 10.2061 20.8066 16.0938c9.81348 5.88965 22.7676 16.0957 28.6562 22.376c12.332 13.9785 9.96387 13.5938 17.665 0.393555c2.35547 -5.10352 4.71094 -11.7773 4.71094 -14.918c0 -3.13965 1.57129 -5.8877 3.5332 -5.8877zM493.888 497.393 c7.65332 0 48.5693 -8.63672 56.5293 -8.63672c3.92578 0 12.1699 -2.35547 17.666 -5.10352c14.4785 -8.27246 51.3818 -10.9775 68.6973 -16.4873c8.24414 -3.14062 18.8438 -5.49609 23.9473 -5.49609c9.4209 0 30.6191 -23.5527 34.9375 -39.2559 c3.61035 -12.6357 28.8232 -46.0713 30.6191 -60.4541c1.17871 -10.5996 -0.391602 -12.1699 -12.9531 -15.7031c-7.45898 -2.35547 -18.8438 -9.81348 -25.5166 -16.4873c-6.28223 -6.67285 -26.3027 -18.8438 -44.752 -27.0869 c-18.4512 -8.24316 -36.1162 -17.2725 -39.2568 -19.6279c-17.8223 -15.5947 -123.552 -14.377 -142.107 -7.06641c-6.67383 2.74805 -15.7021 5.10352 -20.4141 5.10352c-4.70996 0 -16.4873 5.10352 -26.3008 10.9922c-20.0205 12.5615 -43.9668 24.3379 -49.8555 24.3379 c-5.96191 0 -18.4316 19.6279 -25.9092 19.6279c-9.42188 0 -7.85156 9.42285 7.06543 41.2197c7.45898 15.3105 14.918 33.3682 16.4883 39.6484c5.06055 20.2441 7.3125 17.5605 16.4873 42.79c21.1992 56.5283 23.9473 58.0986 76.1572 45.9297 c18.0586 -4.31836 35.3311 -8.24414 38.4707 -8.24414zM305.459 410.244c0 -3.5332 -2.74805 -8.63672 -5.49609 -11.3848c-4.71094 -3.53223 -7.45898 -1.17773 -15.7031 15.3096c-20.8047 40.8271 -33.7598 83.2236 -33.7598 111.096c0 25.5166 0 25.5166 29.0488 17.2725 c10.9922 -3.14062 30.2275 -7.85156 42.79 -10.5986c15.7021 -3.53418 21.1982 -6.28125 18.4502 -9.0293c-1.96289 -1.96289 -3.92578 -7.85156 -3.92578 -12.5615c0 -5.10352 -1.96289 -10.207 -4.31836 -11.3848c-5.3457 -3.56543 1.46777 -11.0898 -2.35449 -14.918 c-3.1416 -3.53223 -24.7314 -67.1279 -24.7314 -73.8008zM771.429 448.322c2.24414 -2.24121 -14.3047 -37.6855 -15.7012 -37.6855c-0.785156 0 -16.0957 28.2637 -21.9844 40.8262c-1.17676 3.14062 34.1533 0.392578 37.6855 -3.14062zM776.141 528.797 c0.78418 -24.7305 0 -27.8721 -6.28125 -27.4785c-12.5625 0.392578 -48.2852 10.2061 -63.5957 17.2725c-12.9531 5.49609 -15.7012 9.0293 -17.6641 21.5908c-1.57129 10.5996 -4.71191 16.0947 -10.207 17.666c-4.31836 1.17676 -7.85156 4.70996 -7.85156 7.45801 c0 5.43262 -13.1143 14.3633 -8.24414 19.2354c2.74805 2.74805 2.74805 6.28125 0 11.3838c-1.96191 3.92676 -2.74805 7.06738 -1.17773 7.06738c0.763672 0 -5.79785 11.0811 -3.53223 13.3467c1.56934 1.57031 -0.786133 3.5332 -5.49609 4.70996 c-9.02832 2.35547 -16.8799 16.4883 -16.8799 30.2275c0 9.0293 -7.85156 22.376 -20.4141 34.9385c-3.9248 3.92578 -7.06543 10.9922 -7.06543 16.0947c0 5.10352 -5.10352 14.1328 -11.3848 20.0215c-6.28027 6.28027 -10.5986 13.3467 -9.42188 16.4873 c1.17871 3.14062 -3.53223 14.917 -10.2061 26.6943c-6.67383 11.7764 -10.5996 22.376 -9.02832 23.5537c7.45801 4.70996 83.6152 -26.6943 101.28 -42.0049c25.5166 -21.9824 53.7812 -52.9951 57.3135 -62.8096c2.35645 -5.88867 5.49609 -10.5996 7.45898 -10.5996 c1.96387 0 3.5332 -1.96191 3.5332 -4.70996c0 -2.35547 5.49609 -15.7021 12.1699 -29.0498c14.917 -31.4053 25.5166 -75.3721 26.6943 -111.096zM639.136 534.686c0 -3.5332 -22.7686 -2.74707 -25.124 1.17773c-1.17676 1.96387 -7.85156 4.31836 -14.917 5.49609 c-10.8457 1.80762 -119.846 29.8203 -130.723 31.7979c-6.43262 0.583008 -23.3975 11.7559 -30.2275 7.85059c-3.14062 -1.96289 -3.5332 0.392578 -1.17773 8.63672c1.57031 6.28027 3.14062 14.5244 3.5332 18.0586c0 3.9248 1.57031 7.06543 3.53223 7.06543 c4.95996 0 16.5322 33.0967 18.0586 37.293c9.64453 21.2295 34.9062 100.104 43.1816 100.104c3.92578 0 20.0205 -21.9834 20.0205 -27.4795c0 -2.35449 5.88867 -12.5615 12.9551 -23.1611c14.1318 -21.1973 20.4121 -32.582 42.7891 -74.1934 c8.63574 -16.0957 18.0576 -31.7979 21.1982 -35.3311c7.85156 -8.63672 36.9004 -54.1729 36.9004 -57.3145zM387.896 667.372c0 -11.2158 -14.8242 -35.7158 -18.0576 -46.7148c-1.96289 -6.28125 -6.28027 -12.1699 -9.42188 -12.1699 c-3.14062 -0.391602 -23.9463 3.92578 -45.9297 9.81348l-40.041 10.9922l13.7402 22.376c7.06543 12.1699 13.3457 23.5547 13.3457 24.7314c0 6.6748 32.1904 40.042 58.4922 60.8477c28.2646 22.7686 61.6318 41.2188 65.9512 37.293 c0.78418 -1.17773 -1.17871 -7.85059 -4.71191 -14.5244c-3.9248 -7.85156 -5.8877 -17.2725 -4.31738 -23.9463c1.17773 -7.06641 0 -12.5625 -3.92578 -15.7021c-8.31055 -6.46387 -0.405273 -17.1738 -7.85156 -23.5537 c-7.95605 -6.96094 0.132812 -12.4824 -9.81348 -18.4512c-3.92676 -2.74707 -7.45898 -7.45898 -7.45898 -10.9912z"
     id="path5517" />
</svg>
