<svg xmlns="http://www.w3.org/2000/svg" width="400" height="404" version="1.0" viewBox="0 0 300 303"><path d="M293 41c-11-1-21 1-30 7a103 103 0 0 0-39 49 25 25 0 0 0 17 32c8 3 16 0 23-3a40 40 0 0 1 13-2 49 49 0 0 1-5 20 25 25 0 0 0 15 32c9 3 19 0 27-4a85 85 0 0 0 46-51V95c-4-10-8-18-14-26a80 80 0 0 0-38-27l-15-2zm-3-43a99 99 0 0 0-65 23 150 150 0 0 0-28 38c-4 8-9 15-12 23-5 14-8 27-11 41a26 26 0 0 0-18-3c-10-6-20-7-31-7a26 26 0 0 0-24 29 56 56 0 0 0 8 24 26 26 0 0 0 18 30 94 94 0 0 1 17 5c-2 4-7 5-9 9a478 478 0 0 1-54 40c-9 7-17 14-27 20-13 9-25 21-37 32a26 26 0 0 0-5 32 26 26 0 0 0 27 12c3 0 6 0 7 2l9 9c-1 10 0 21 8 28 9 9 26 9 35-1 14-16 29-31 40-49 7-10 15-18 22-29s14-22 23-31l13-17c3-3 4 1 5 3 4 9 5 20 14 25a26 26 0 0 0 20 5c11 5 23 9 34 6a26 26 0 0 0 18-30 60 60 0 0 0-5-20c2-7 1-15-3-21 17-3 34-7 50-15 10-7 22-12 31-19 9-6 18-12 23-21a91 91 0 0 0 19-56 105 105 0 0 0-34-84 110 110 0 0 0-78-33Zm4 67c5 0 9 1 13 3 9 5 17 10 22 19 2 4 5 8 6 13s2 12 0 17-4 10-8 14a57 57 0 0 1-23 18 225 225 0 0 1-10 5c7-9 7-20 8-30a25 25 0 0 0-23-25c-10 0-21 1-30 7-3 0 0-4 1-6 7-14 17-28 32-34l12-1zm-101 7c0-1 0-1 0 0z" style="fill:#fff;stroke-width:.602985" transform="scale(.75)"/><path d="M208 17a56 56 0 0 0-32 17 126 126 0 0 0-15 23c-3 4-10 26-13 44l-3 25a79 79 0 0 1-2 16c-1 2-4 0-8-5a112 112 0 0 1-13-26c-1-4-1-4-3-2-3 2-6 1-9-2-3-2-5-3-10-3-6-1-6-1-6 1l1 5a10 10 0 0 0 4 7c4 3 5 7 2 10l-2 2h3a80 80 0 0 1 13 5 43 43 0 0 1 14 9c5 5 6 6 5 8l-5 1c-3 0-3 0-3 3s-6 12-8 12l-3 2-9 9-10 7a283 283 0 0 1-22 16 28 28 0 0 0-6 4 93 93 0 0 1-15 11c-1 0-9 6-14 12l-10 9-4 5c4-2 11-1 15 0a53 53 0 0 1 19 20 22 22 0 0 1 1 9l-1 5 3-3 11-12 11-13a108 108 0 0 1 14-19l8-12 8-12a14 14 0 0 1 3-4c5-4 14-16 14-17l12-9h4l1-2c0-4 2-7 3-7l5 4 5 6a106 106 0 0 1 10 21c1 4 1 4 3 3 2-3 4-2 9 1l10 4h5l-1-6-4-9c-4-4-4-6-1-9 2-2 2-2 0-2a64 64 0 0 1-33-18c-3-4-1-5 14-5l23-3a143 143 0 0 0 62-23l9-6 3-3 4-6a42 42 0 0 0 9-20 67 67 0 0 0-9-47l-11-13a66 66 0 0 0-55-18zm22 14a14 14 0 0 1 5 2l8 4a48 48 0 0 1 21 22l4 7a32 32 0 0 1 2 9c1 8 0 20-2 21l-1 2c0 5-14 21-23 26a127 127 0 0 1-39 16l-5 1c-1 1-25 3-28 2l-4-3c-1-4 7-10 20-16l8-4 4-2c3 0 3 0 1-2-2-3-1-5 3-9l3-5 1-6v-3h-6c-5 1-6 1-9 4-4 4-6 5-8 2s-3-2-4 2c-2 7-11 24-14 28-7 7-9 5-9-9 0-12 2-26 3-27l1-2 3-10c7-21 19-38 31-45l6-3c2-3 21-4 28-2z"/></svg>