<svg xmlns="http://www.w3.org/2000/svg" width="400" height="404" version="1.0" viewBox="0 0 300 303"><path d="M292.535 40.514c-10.317-.212-20.959 1.417-29.618 7.41-18.11 11.36-30.803 29.724-38.77 49.25-4.531 12.837 3.221 28.43 16.49 31.974 7.898 2.891 16.217.105 23.42-3.351 4.3-1.264 8.832-2.033 13.318-1.84-.297 6.886-1.9 13.657-5.004 19.807-4.702 12.45 2.303 27.905 15.047 32.056 8.898 3.716 18.551.427 26.576-3.89 21.274-9.701 38.88-28.223 45.783-50.712.99-8.81.735-17.81-.178-26.621-3.172-9.128-7.962-17.713-13.276-25.77C336.874 56.207 322.9 47.4 308.125 42.34c-5.053-1.473-10.345-1.912-15.59-1.826zm-2.69-42.966c-23.55-.64-46.917 8.374-64.778 23.548-12.081 10.54-20.51 24.495-28.574 38.167-4.035 7.456-8.58 14.727-11.264 22.861-4.958 13.345-8.528 27.167-11.434 41.09-5.347-3.514-11.942-4.686-18.215-3.671-9.133-5.28-19.96-6.715-30.329-6.783-14.202.761-25.479 14.677-23.894 28.693 1.08 8.556 2.748 17.456 7.72 24.698-2.79 12.598 5.609 26.178 18.082 29.427 5.607 1.44 11.134 3.21 16.39 5.655-1.518 3.855-6.175 5.31-8.816 8.379-17.109 14.65-35.034 28.426-54.043 40.516-8.504 6.928-16.956 13.987-26.445 19.556-13.19 9.838-25.08 21.31-37.133 32.482-8.688 7.892-11.322 21.628-5.135 31.801 5.244 9.154 16.26 13.554 26.506 12.091 2.934-.342 6.148-.562 7.881 2.347 2.833 2.94 6.108 5.764 8.318 9.13-.39 9.493.586 20.172 8.166 26.89 9.283 9.494 25.987 9.192 35.187-.305 14.148-15.744 28.696-31.272 40.322-49.045 6.964-9.644 14.871-18.572 21.142-28.722 7.423-10.932 14.43-22.234 23.68-31.76 4.759-5.089 8.332-11.256 13.236-16.157 2.62-3.235 3.69.305 4.612 2.681 4.185 8.68 5.507 19.535 14.2 25.23 5.606 4.307 13.092 5.774 19.962 4.691 10.478 4.686 22.48 8.754 34.004 5.974 13.107-3.028 21.482-17.533 18.314-30.46-1.03-6.896-2.408-13.87-5.774-20.058 1.943-6.683 1.064-14.218-2.63-20.145 16.969-3.848 34.303-7.609 49.889-15.593 10.371-6.354 21.6-11.313 31.365-18.676 8.447-6.023 17.641-11.808 22.713-21.203 12.146-16.094 20.024-35.881 19.479-56.249.506-13.47-.892-27.022-5.296-39.817-5.571-16.891-15.494-32.232-28.617-44.245C355.669 17.034 338.984 7.523 321.12 2.1c-10.093-3.328-20.667-4.708-31.275-4.551Zm4.4 67.626c4.561-.491 8.791.767 12.613 3.22 8.9 4.14 17.382 9.993 22.084 18.87 1.912 4.082 4.727 7.976 6.166 12.351.572 5.715 1.605 11.903-.007 17.44-2.19 4.924-4.025 10.007-7.855 13.986a57.119 57.119 0 0 1-23.417 18.395 224.684 224.684 0 0 1-9.75 4.54c6.528-8.668 6.976-19.845 8.287-30.169-.06-12.512-10.43-23.783-22.956-24.63-10.49.026-21.622 1.014-30.781 6.642-3.005.002.818-3.95 1.107-5.733 6.962-14.19 17.217-27.971 32.073-34.374 4.122-.502 8.29-.545 12.437-.538zM192.55 71.877c.077-1.017.127-.927 0 0z" style="fill:#fff;stroke-width:.602985" transform="scale(.75)"/><path d="M208.2 17.1c-11.8 1.8-26 9.4-32 17.2-5.7 7.5-13.2 18.9-13.2 20.3 0 .7-.7 2-1.5 2.8-4 4-10.9 25.3-14 43.6-.9 5.2-2 16.4-2.4 24.7-.3 8.4-1.1 15.7-1.6 16.2-1.9 1.9-5 0-8.9-5.2-4.2-5.6-10.6-18.6-12.7-25.4-1.1-4-1.3-4.1-3.3-2.8-3 2.2-5.1 1.8-8.8-1.4-2.6-2.2-4.7-3-9.7-3.6-5.8-.7-6.3-.6-5.8 1.1.3 1.1.8 3.6 1.2 5.8.4 2.5 1.6 4.7 3.5 6.2 3.9 3.3 4.7 7.1 2 9.9l-2.1 2.2 3.4.6c1.9.3 7.4 2.3 12.3 4.4 6.6 2.8 10.3 5.2 14.8 9.5 5 4.9 5.7 6 4.6 7.3-.7.8-2.8 1.5-4.6 1.5-3 0-3.4.3-3.4 2.7 0 2.9-5.8 12.2-7.6 12.3-.6 0-1.9 1-3 2.1-1 1.2-5.5 5-9.9 8.5s-8.7 7-9.5 7.7c-2.9 2.6-19.5 14.2-22.2 15.6-1.5.8-4 2.6-5.5 4.1-3.3 3.2-13.9 11-14.9 11-.9 0-8.9 6.4-14.4 11.6-2.5 2.3-7.1 6.6-10.4 9.4-3.9 3.5-5.1 5-3.5 4.5 3.7-1.2 11.3-.8 15.3.9 5.1 2.1 16.1 13.7 18.2 19.1 1.1 3 1.5 6.1 1.2 9.7l-.5 5.2 3-3.5c1.6-1.8 6.4-7.1 10.5-11.7 4.1-4.5 9.1-10.6 11-13.5 5.7-8.6 12.5-17.7 13.4-17.7.4 0 .8-.5.8-1 0-.6 3.6-6 8-12.1 4.4-6 8-11.4 8-11.9 0-.4 1.3-2.1 2.8-3.7 4.8-4.8 14.2-16.2 14.2-17.2 0-1.4 8-7.6 11.7-9 1.7-.7 3.7-1 4.2-.6.7.4 1.1-.4 1.1-2 0-3.3 1.7-6.5 3.4-6.5.8 0 2.8 1.7 4.6 3.7 1.7 2.1 4 4.7 5 5.9 2.1 2.4 8.4 15.6 10.2 21.5 1 3.6 1.3 3.8 2.8 2.4 2.3-2.1 3.7-1.9 8.9 1.4 2.7 1.7 6.7 3.2 9.7 3.6l5.1.6-.9-5.7c-.6-4.1-1.7-6.7-3.8-9.1-3.6-4-3.7-5.9-.8-9 2.1-2.2 2.1-2.3.2-2.3-2.3 0-12.4-3.4-16.9-5.7-6.4-3.3-15.4-9.9-16.9-12.4-2.4-4.1-.5-4.9 14-5.4 7.1-.3 17.6-1.2 23.4-2.1 16.6-2.4 41.1-9.5 43-12.3.3-.5 3.4-2.2 7-3.9 3.6-1.6 9-4.8 12-7.1 3-2.2 7-5 8.8-6.2 1.7-1.2 3.2-2.5 3.2-3s1.6-3 3.6-5.5c5.2-6.9 7.3-11.5 9-20.2 3.2-15.3-.3-34.2-8.6-47.1-2-3.1-7-8.9-11.1-12.9-14.1-14-35.4-21-54.7-18.1zm22.3 14c2.2.6 4.2 1.4 4.5 1.8.3.3 3.7 2.1 7.5 4 9.2 4.6 17.1 12.5 21.5 21.6 1.8 3.8 3.7 7.3 4.2 7.6.4.3 1.3 4.1 1.9 8.6 1.2 8.4 0 20.4-2.1 21.1-.5.2-1 1.1-1 2 0 5.1-14.1 21.6-22.5 26.4-13.6 7.9-29.6 14.1-39.5 15.5-2.5.3-4.8 1-5.1 1.6-.8 1.1-24.6 2.3-28.2 1.3-1.4-.3-2.9-1.5-3.2-2.7-1.2-3.8 6.8-10.3 19.5-15.9 4.1-1.8 7.6-3.6 7.8-4.1.2-.5 1.9-1.1 3.8-1.5 3.2-.6 3.4-.8 1.9-2.3-2.3-2.7-1.8-4.8 2-8.7 2-2 3.5-4.5 3.5-5.8 0-1.3.3-3.8.7-5.6l.6-3.3-5.8.6c-5 .5-6.3 1.1-9.3 4.1-3.9 4-6.6 4.5-8.4 1.6-1.8-2.9-2.4-2.5-3.6 2.2-1.8 7-10.7 24-14.6 28-6.8 7-8.9 4.7-8.9-9.5 0-11.6 1.9-26 3.3-26.5.6-.2 1-1 1-1.8s1.3-5.4 2.9-10.3c6.8-20.6 19-38 31.6-44.7 2.7-1.5 5.2-3 5.5-3.4 1.9-2.5 21.5-3.8 28.5-1.9z"/></svg>