<svg xmlns="http://www.w3.org/2000/svg" width="800" height="466.667" version="1.0" viewBox="0 0 600 350"><path d="M295.318 241.699c-6.154-.359-11.856 5.5-10.709 11.688.648 6.437 7.705 11.403 13.95 9.153 4.792-1.552 9.632-5.365 9.424-10.862.175-5.883-5.558-10.586-11.29-9.976a78.858 78.858 0 0 0-1.375-.003zm240.023-76.48c-6.885.362-11.027 6.606-16.129 10.374-4.424 3.491-8.641 7.95-14.533 8.675-7.78 1.585-15.83.32-23.6 1.81-3.6 1.254-7.005 3.237-10.926 3.365-5.27.478-10.76-.19-15.73 2.069-5.24 2.14-10.94 2.204-16.494 2.26-5.016.594-8.843 4.388-13.214 6.622-3.919 2.327-8.755 4.623-9.64 9.6-1.294 5.694 3.282 11.703 9.131 11.951 6.74-.224 13.245-.648 20.09-.51 8.833-.048 17.668.482 26.39 1.855 3.824.509 6.893-2.016 9.77-4.1a15.802 15.802 0 0 1 10.013-2.43c5.884-.229 11.984.294 17.184 3.302 5.668 2.781 13.115.112 15.562-5.75 2.684-7.34 6.262-15.258 13.102-19.769 3.473-2.12 7.759-2.095 11.096-4.52 4.504-2.202 8.046-7.183 6.695-12.324-1.028-5.522-6.67-7.988-11.016-10.57-2.382-1.232-5.041-2.073-7.75-1.91zM284.26 246.323c-15.174 3.742-29.94 9.301-45.116 13.203-8.838 2.553-9.27 15.859-.7 19.038 8.122 2.319 13.331 11.712 22.63 9.865 7.894.106 15.275-4.68 17.508-12.402 3.04-7.197 11.702-8.749 15.557-14.935 3.784-6.763-2.147-15.64-9.88-14.769zm62.823-31.23c-7.584 1.391-15.661 2.34-21.52 8.04-6.459 4.802-9.204 12.715-14.241 18.712-5.13 7.736 3.427 17.085 11.797 15.092 10.92-1.563 20.44-8.878 31.782-8.366 7.402-1.887 13.608-6.843 21.044-8.616 8.797-3.122 7.495-16.805-1.462-18.794-9.709.074-17.923-5.831-27.4-6.069zm366.131-84.78c-12.564 2.267-24.548 7.202-36.893 10.508-7.841 2.957-15.616 6.016-24.169 5.864-16.612 2.392-34.849.43-49.904 9.02-7.727 5.21-14.381 11.808-20.978 18.344-13.715.23-28.86-.555-40.164 8.58-13.727 1.74-21.98 14.163-26.255 26.191-.902 6.385-6.336-.8-10.16-.467-10.99-2.888-24.37-2.974-33.025 5.208-19.22-3.177-39.1-2.673-58.346.092-8.129 2.467-16.052 5.563-24.171 8.168-5.713 1.771-10.167 6.002-14.917 9.198-7.099 1.392-14.12 4.391-19.539 8.912-10.012-1.731-19.661 2.73-28.22 7.038-12.274.78-25.228 1.563-35.536 9.053-11.277 2.037-20.818 11.253-23.234 22.14-4.447-1.095-9.66 4.068-12.658-.578-13.591-12.893-33.743-10-50.6-7.482-13.258 1.738-24.988 8.405-37.483 12.39-13.82 2.38-29.477.361-40.882 10.325-14.385 3.374-32.478.742-42.497 14.108-2.829 3.967-4.246 9.02-9.764 10.023-12.944 6.378-31.222 9.129-36.166 24.84-5.567 13.2 3.3 28.292 16.001 33.336 10.867 5.98 23.616 4.985 35.563 5.074 8.334 11.58 23.082 15.506 35.637 20.79 13.22 4.103 28.238 7.208 41.234.627 4.36 4.338 12.99.53 15.455 5.042 3.35 6.09 9.051 10.699 15.814 12.412 4.408 14.944 21.195 18.645 33.346 25.376 22.69 10.13 45.534 21.395 70.281 25.312 12.486 1.964 27.26-2.15 32.246-14.87 3.312-3.292-.124-12.522 4.031-13.048 5.68.628 12.601-.521 15.621 5.422 11.443 10.896 29.174 10.877 43.732 7.967a32.493 32.493 0 0 0 12.911-7.38c11.726 2.16 23.935.133 35.848.13 17.146-1.186 32.905-10.301 46.01-20.877 6.47-5.896 11.895-13.392 13.91-22.024 11.075 1.736 22.025-2.873 29.13-11.37 15.345 5.367 31.75-1.338 43.525-11.413 9.73-6.95 19.859-13.686 27.336-23.28 10.478-11.36 19.04-24.248 28.54-36.296 5.61-8.317 6.08-18.967 6.604-28.376 13.705-6.34 24.178-18.618 31.562-31.546 3.583-6.074 4.626-13.697 6.417-19.97 18.954-8.686 32.066-28.199 33.497-48.93 9.057-9.706 21.34-17.374 26.773-29.838 6.256-15.064-5.964-33.273-22.126-33.71-1.106-.206-2.224-.03-3.337-.034zM413.923-3.052c-9.918 3.11-15.783 12.23-24.479 17.405-10.24 7.36-10.911 20.507-15.747 31.113-14.263-9.526-32.811-15.28-49.669-10.388-14.113-7.712-31.069-6.134-45.235.492-16.344 7.416-36.035 12.711-45.757 29.187-18.462.704-30.32 16.584-42.81 27.97-5.083 3.25-9.017 7.554-15.016 9.113-13.094 9.188-22.344 22.938-35.595 31.923-10.285 10.69-14.16 26.024-25.492 35.978-6.528 6.907-14.15 13.579-18.559 21.749-9.656 6.191-12.866 18.218-20.738 26.23-11.733 15.807-24.47 32.771-26.99 52.855-.79 13.408 10.174 25.165 23.09 27.033 9.34 4.235 11.786 15.869 21.627 19.489 9.255 4.556 19.995 2.676 29.499.917 8.592 1.158 17.426-2.841 22.872-9.47 11.822 1.058 25.982 1.031 33.431-9.864 3.183-4.824 10.78-3.965 15.847-6.34 12.554-3.604 27.38-7.194 33.846-19.862 19.125-5.722 38.747-10.16 57.366-17.369 5.569-6.904 14.573-1.7 21.952-3.873 9.715-.97 16.721-9.235 20.385-17.398 4.112-2.41 5.698-8.16 11.258-7.27 5.154-.228 9.185-4.589 13.873-.588 17.363 7.646 36.784 3.09 53.103-4.902 11.277-5.005 22.468-11.09 32.6-17.713 7.736.983 15.534-.917 22.461-3.893 7.606.178 15.688.205 22.283-4.089 13.125-.397 27.992 1.033 38.144-9.036 4.732-3.509 9.083-7.562 13.365-11.541 6.096.267 10.192 7.177 16.876 7.34 14.359 2.268 29.8 1.425 42.455-6.405 13.25-5.287 28.298-4.827 40.902-12.051 13.151 8.93 31.162 9.38 44.818 1.394 15.642-5.792 33.537-6.74 46.6-18.203 17.38-7.302 35.622-14.423 49.902-27.104 12.324-11.6 8.568-34.3-6.953-41.157-18.115-7-37.56-9.7-56.557-13.284-9.801-7.845-17.962-20.076-31.849-20.08-7.105-.773-14.762-.407-20.284-5.717-8.918-6.213-18.881-10.597-27.981-16.326-7.034-3.407-15.383-1.948-22.53-2.303-12.217-8.41-27.176-11.88-41.477-14.933-8.735-1.384-17.959 1.068-25.045 5.979-13.706-8.035-31.115-8.114-45.357-1.41-22.9-15.106-51.62-13.042-77.782-14.357l-6.653.76zm234.574 45.656c1.681 8.869-.93-3.534 0 0zM106.609 309.974c-4.251-5.063-4.795-7.073 0 0zm-41.563-37.942c-13.012.877-25.697 7.502-34.546 16.956-9.861 12.782-22.06 28.16-17.682 45.379 3.609 16.33 23.13 24.504 38.006 18.122 13.848-5.695 28.298-10.31 41.527-17.218 13.45-9.216 15.386-29.431 8.357-43.176-7.639-11.694-21.391-20.442-35.662-20.063Z" style="fill:#fff;stroke-width:.361011" transform="scale(.75)"/><path d="M311.1 19.4c-1.9 1.9-4.6 4-6.2 4.6-2.2.9-3 2.1-3.5 4.9-.6 4.1-3.1 10.4-8.2 21.1-2.2 4.6-3.7 9.5-4 12.7-.3 2.9-.6 5.3-.8 5.3-1 0-5.8-4.8-6.9-7-2.7-5-11-12.7-16-14.8-7.5-3.1-14.6-3.8-18.6-1.8-4.2 2.1-3.9 2.1-11.6-1.5-7-3.2-9.8-3.3-16.7-.4-1.7.7-5.6 2.3-8.6 3.6-18.5 7.6-20.3 9.2-21 18.2-.6 7.1-2.2 8.3-6.6 4.8-3-2.3-8.3-2.7-11.7-.9-1.2.6-3.7 2.7-5.5 4.7-7.9 8.7-11.8 12.2-13.9 12.7-1.7.5-2.4 1.6-2.9 5-.7 4.7-2.9 5.9-5.4 2.9-1.4-1.7-4-2-4-.6 0 .9-14.7 15.9-18.3 18.8-.9.7-2.2 1.3-2.9 1.3-.7 0-2.1 2-3.1 4.5-1.1 2.5-2.3 4.5-2.8 4.5s-.9.6-.9 1.3c0 .7-1.1 2.9-2.5 4.8s-3.3 4.5-4.2 5.9c-1 1.3-4.8 5.5-8.5 9.2l-6.8 6.7v7c0 3.8-.4 7.2-.8 7.5-.4.2-2.1-1.1-3.7-3.1l-2.8-3.6-2 3.8c-1 2.1-2.3 4.3-2.8 4.9-8.9 11-16.9 22.1-16.9 23.5 0 .6-.4 1.1-1 1.1-.5 0-1 .6-1 1.2 0 .7-.7 2.6-1.5 4.2-.9 1.6-2.1 5.8-2.8 9.3-.6 3.4-1.5 6.3-1.9 6.3-.5 0-.8 1.5-.8 3.2 0 2.9.5 3.5 4.3 5 5.6 2.4 28.1 2.5 31.1.3 2.2-1.7 6.6-2 6.6-.5 0 .5.5 1 1 1 .6 0 1-2 1-4.5 0-3.6-.4-4.5-1.7-4.6-1.2-.1-.9-.4.7-.8 1.7-.5 2.8-.3 3.3.6.6.9 3.6 1.3 11.1 1.3h10.3l.6-2.9c.5-2.4 1.3-3 5.4-4 6.7-1.8 13.5-3.7 22.6-6.3 6.9-2 7.7-2.4 7.7-4.6 0-1.4-.7-3-1.6-3.7-1.3-.9-.1-1.5 6.7-3.2 9.4-2.4 19.7-5.3 27.9-7.8 3-.9 8.3-2.4 11.7-3.4 5.7-1.6 9-3.1 6.7-3.1-1.3 0-4.7-2.6-9.7-7.4-3.5-3.4-3.8-4-2.3-4.8 1.7-1 6.4 1.8 10.9 6.4 1.5 1.5 3.4 1.8 12.2 1.8H228v-3.1c0-2.5-.6-3.3-3-4.2-1.6-.6-3-1.5-3-1.9 0-.4-.6-.8-1.3-.8-.8 0-2.4-.9-3.7-2-1.3-1.1-2.6-2-3.1-2-.4 0-2.6-1.2-4.8-2.7-2.9-1.9-3.7-2.9-2.9-3.5 2.2-1.3 5.1-.8 9.3 1.7 2.2 1.4 5.4 3.2 7 4.1 1.7.9 3.2 2 3.5 2.3.9 1.1 6 3.1 8 3.1 2.7 0 2.5-1.2-.7-5.2-4.8-5.7-5.7-6.5-8.5-7.2-1.8-.4-3-1.5-3.4-3.1-.3-1.4-1-2.5-1.5-2.5s-.9-1.1-.9-2.5.3-2.5.7-2.5c.3 0 4.4 3.8 9 8.5 6.8 6.9 9 8.5 11.3 8.5 2.5 0 3-.4 3-2.4 0-1.4.5-2.8 1-3.1.6-.3 1 .1 1 .9 0 1.2 1 1.6 3.5 1.6h3.5v-6c0-5.4.2-6 2.1-6 1.2 0 4.2 2.3 7.3 5.7 4.1 4.3 6.5 6 10.2 7 10 2.9 10.5 2.8 23.6-2.8 6.8-2.9 12.5-5.6 12.8-6 .3-.4 2.6-1.7 5.2-2.9 3.4-1.6 5.7-3.6 8-7.1 3.5-5.5 4.8-6.1 4.8-2.4 0 2.4.3 2.5 5.9 2.5 5.6 0 5.8-.1 5.4-2.4-.3-1.5.5-3.9 2.4-6.7 3-4.6 3.9-3.9 3.1 2.7l-.4 3.4h10.4l2.8-5.8c2.5-5.1 2.9-7.1 3.4-19.7l.7-14 .1 18.2.2 18.3h8.3c6.5 0 8.9-.4 10.5-1.8 1.1-.9 3.3-2.6 4.9-3.7 4.4-3.1 17.3-16.7 19-20 .9-1.7 1.9-3.2 2.2-3.5 1.9-1.6 4.1-7.8 4.1-11.6 0-4 .2-4.4 2.5-4.4s2.5.4 2.5 4c0 3.1-.9 5.3-3.7 9.3-3.7 5.1-4.3 6.1-8.4 13.3L400 113h3.5c1.9 0 3.5-.4 3.5-.9s1.2-2.2 2.8-3.9c1.5-1.6 3.2-3.7 3.7-4.5 4.4-6.5 13.4-17.7 20.6-25.4l4.8-5.3-.5 8.3c-.9 14.2-.4 13.3-12.6 25.7l-11.2 11.5 8.6.3c7.8.2 8.9 0 12.4-2.3 2.1-1.4 4.9-2.8 6.3-3.1 1.4-.3 3.5-.9 4.7-1.4 1.2-.4 4.8-1.1 8-1.5 3.2-.4 6.4-1.1 6.9-1.5.6-.4 2.6-1 4.6-1.4 2.7-.5 5.5-2.6 12-9.1 9.5-9.6 9.9-10 12.3-13.8 3-4.5 3.9-3.3 3.2 3.8l-.7 6.5h3.2c2.6 0 4.3-1.1 8.6-5.5 3-3 5.8-5.5 6.4-5.5 1.2 0 1.1 6.7-.2 9.1-.6 1.1-1.9 2.9-3 4-2.4 2.4-14.7 8.5-19 9.4l-3.1.7 2.7 1.4c2.9 1.5 9.5 1.9 9.5.6 0-1.2 10.7-4.8 21.2-7.2 8.1-1.8 10.4-2.7 13.5-5.6 2.1-1.9 4.9-3.7 6.3-4 9-2 33.6-15.2 31.8-17-.3-.2-4.7-1.3-9.9-2.4-5.2-1.1-11.9-2.6-14.9-3.5-3-.8-7.6-1.5-10.3-1.5-6.3 0-11.7-2.8-18.8-10l-5.8-5.7-8-.6c-5.9-.4-9-1.1-11.8-2.8-2.1-1.3-4-2.6-4.3-3-1.5-1.9-12.6-8.1-15.5-8.6-2.3-.4-3.2-1-2.8-1.9.4-1.1-.7-1.4-4.6-1.4-3.7 0-5.3.4-5.6 1.5-.3.8-.7 2.2-1 3.1-.4 1.2-2 .1-6.3-4.4-4.8-4.9-6.6-6.1-11.2-7.2-3-.7-6.6-1.8-8-2.5-3.6-1.8-9.8-2.5-12.4-1.5-2.5.9-6.6 8.2-6.6 11.7 0 2.8-2.5 4.9-3.4 2.7-.3-.8-.6-2.5-.6-3.7 0-1.6-1.9-3.5-6.5-6.6-5.6-3.8-7.2-4.4-11.8-4.5-7.3-.1-13.3 2.7-15.3 7.1-.9 1.8-2.2 3.3-2.9 3.3-.6 0-2.2-1.9-3.4-4.3C364.8 20.3 351 16 328.4 16h-14l-3.3 3.4zM535.4 102.2c-5.3 3.5-9.5 5.9-13.4 8-1.4.7-2.7 1.6-3 2-1.9 2.6-8.6 3.8-20.9 3.8h-12.9l1.3 4.9c1.7 6.6 2.1 7.1 5.8 7.3 1.8 0-2.2.4-8.8.8-22.5 1.4-21.3 1-31.3 11.1l-8.8 8.9h-11.5c-11.3 0-11.6.1-15.5 3-2.4 1.8-5.1 3-7.1 3-2.1 0-3.3.5-3.3 1.3 0 1.4-2 6.1-4.4 10.6-1.2 2.1-1 2.6 1.6 5.5 1.7 1.7 4.8 5.6 7.1 8.6 4.9 6.5 8.4 10.6 11.4 13.3 1.2 1.1 2.4 3.7 2.8 6.3.3 2.4 1 4.6 1.6 4.9 1.2.8 1.2 18.2 0 18.9-1.1.7-2.1-1.8-2.1-5.5 0-6.2-4.2-19.1-7.8-24.3-8.2-11.5-16.3-17.6-23.4-17.6-4.6 0-4.8.1-4.8 2.8 0 1.6.8 3.2 2 4 2.1 1.3 2.7 4.2.9 4.2-.6 0-3.5-2.4-6.4-5.3-9.9-9.7-9.9-9.7-14.9-9.7-2.5 0-4.6.2-4.6.5 0 .2 1.1 2.1 2.5 4.1 2.5 3.7 3.3 7.4 1.6 7.4-.5 0-1.9-1.1-3.2-2.5-2.1-2.1-3.3-2.5-8.6-2.5-4.9 0-6.3-.3-6.3-1.5 0-2.2-37.8-2.3-38.6-.1-.3.8-3.9 2.2-8.2 3.2-6.2 1.4-8.3 2.4-10.8 5.2-2.5 2.6-4.4 3.6-9.3 4.5-4.9.9-6.1 1.5-6.1 3 0 1.1-1.6 3.5-3.5 5.4l-3.6 3.6-2.9-2.8c-2.5-2.4-3.5-2.7-7.1-2.2-2.3.3-4.5 1-4.8 1.5-1.7 2.6-7.4 4.2-14.6 4.2-6.7 0-10.9 1-12.5 2.9-1.2 1.4-5.2 3.1-7.4 3.1-2.8 0-3.1 1.1-4.6 16.5-1.9 19.9-3.4 27.9-8.7 45.7-1.5 4.9-3 8.8-3.4 8.8-.3 0-.9-2.2-1.3-5-.4-2.7-1.1-5.2-1.6-5.5-2.1-1.3-1-7 2-10.2 3-3.2 3-3.3 3-14.6 0-9-.3-11.7-1.5-12.7-.8-.7-1.5-2.3-1.5-3.6 0-2-.5-2.4-2.9-2.4-2.7 0-3.2.6-5 5.5-1.2 3.1-2.1 6.3-2.1 7.3s-1 .1-2.5-2.3c-1.3-2.2-2.8-4.5-3.2-5-.5-.6-2.2-2.9-3.8-5.1-1.6-2.3-4.4-5.2-6.3-6.4-3-2.1-4-2.2-12-1.7-11.1.8-18.9 2.9-27.4 7.2-7.5 3.9-11.2 4.3-18.2 1.9-5.7-2-8.5-1.4-21.6 4.8-4.7 2.2-9.4 4.4-10.5 4.9-1.1.5-6 1.5-11 2.4-22.8 3.8-38.6 7.5-41.3 9.7-2.4 1.9-6.2 5.8-6.2 6.3 0 .2 1.7.7 3.7 1.1 4.3.8 11.4 4.3 12.6 6.1.4.7 1.5 1.3 2.2 1.3.8 0 1.5.4 1.5 1s4.6 1 11.8 1c11.4 0 11.8-.1 14.7-2.8 6.9-6.4 15.5-11.9 15.5-9.9 0 .2-1.9 2.5-4.2 5.1-5.5 6-8.5 16.6-4.8 16.6.5 0 3.1 1.3 5.7 2.8 5.7 3.4 12.9 5.8 19.9 6.7 4.4.6 6.1.3 10.7-1.9 5.8-2.8 8.9-2.5 12.5 1 1.3 1.4 1.7 1.4 2 .3.3-.8 1-2.1 1.7-2.9.7-.8 1.7-3 2.3-4.7 1.5-4.4 8.8-14.4 16.3-22.3l6.2-6.5-.5 3.5c-.4 2-1.9 5.8-3.6 8.6-1.6 2.7-3.5 6.8-4.2 9-.7 2.1-1.7 4.5-2.2 5.1-1.5 1.8-1.3 11 .3 12.9.7.8 1.5 3.2 1.8 5.2l.6 3.7 6.2.3 6.2.3.3 6 .3 6.1 6.2 3.3c3.5 1.8 8 3.9 10 4.6 2.1.6 4 1.5 4.3 1.9.9 1.2 25.4 11.2 30 12.2 2.5.6 4.9 1.4 5.5 1.9.5.5 3.3.9 6.2.9h5.3v-9c0-5.3-.4-9-1-9s-1-4.1-1-10.4c0-8.3-.3-10.5-1.5-11-1-.3-1.5-1.9-1.5-4.8 0-3.9.1-4.1 1.4-2.3.7 1.1 4 7.2 7.3 13.5l6 11.5 11.9.5c14.7.6 20.2 2.9 22.6 9.2.5 1.2 2.3 1.7 7 2 10.5.6 10.6.5 16.8-11.8 3.1-6 7-13.6 8.8-16.9l3.2-6v8.7c0 4.8-.4 9-1 9.3-.5.3-1 2.8-1 5.6v4.9h12.5c13.1 0 13.9-.2 25.2-5.8 5.7-2.9 7.9-4.6 10.3-8.3 2.9-4.6 3-5 3-17.2 0-9.8.3-12.7 1.5-13.7s1.5-3.8 1.5-13.6c0-6.8.3-12.4.8-12.4.7 0 3.2 3.9 6.8 10.7 1.7 3.2 1.7 3.2-1.4 6.7-3.9 4.5-4.8 8.8-2.7 14.5 1.2 3.6 1.3 4.6.3 5.3-.7.4 1.5.8 5.2.8 3.6 0 7.5.3 8.7.6 1.5.4 2.8-.2 4.5-2.1 1.3-1.5 2.9-3.3 3.6-4.1.6-.7 1.2-1.7 1.2-2.2 0-.5.7-1.5 1.5-2.2.8-.7 1.5-2.1 1.5-3.2 0-1 .7-3.2 1.5-4.8 3.3-6.3 9.7-1.9 9.9 6.7l.1 4.3h4.3c4.1 0 5-.4 9.1-4.1 1-.8 2.5-1.8 3.4-2.2.9-.3 1.7-1.1 1.7-1.6s1-1.1 2.3-1.5c3.2-.8 12.2-9.6 19.6-19.1 3.4-4.4 6.6-8.5 7.1-9.2.6-.7 1-1.7 1-2.2 0-.6.6-1.4 1.3-1.8.7-.4 2.3-2.2 3.5-4 2-2.8 2.2-4.4 2.2-14.8 0-11.8-.8-15.3-4.7-19.7-1.6-1.8-2.4-12-1-13.4 1.5-1.5 5.3 4.1 8.1 11.8l2.9 7.8h4.1c3.8 0 4.6-.5 10.4-7 5.4-6 6.6-8 7.9-13.3 1.4-5.9 1.3-10.1-.2-14-.6-1.4-.2-1.7 2-1.7 12.7 0 24.5-12.2 24.5-25.4v-4.9l15.5-15.3c14.9-14.7 15.5-15.5 15.5-19.4 0-3.9-.1-4-3.3-4-2 0-5.2 1.2-8.3 3.2zM42.8 224.5c-2 1.4-4.1 2.5-4.7 2.5-.6 0-2.3 2.1-3.8 4.7-1.5 2.7-3.8 5.9-5 7.3-1.5 1.6-2.3 3.7-2.3 5.9 0 3.2.1 3.3 3.1 2.7 1.7-.3 4.5-1.2 6.2-2 7.5-3.4 15.8-6.6 17.2-6.6.8 0 1.5-.5 1.5-1 0-.6 1.1-1 2.5-1 2.3 0 2.5-.3 2.5-5 0-2.8-.3-5-.7-5-.5 0-2.1-1.1-3.7-2.5-3.7-3.2-8.1-3.2-12.8 0z"/></svg>