<svg xmlns="http://www.w3.org/2000/svg" width="800" height="467" version="1.0" viewBox="0 0 600 350"><path d="M295 242c-6-1-11 5-10 11 0 7 7 12 14 9 4-1 9-5 9-10 0-6-6-11-11-10a79 79 0 0 0-2 0zm240-77c-7 1-11 7-16 11-4 3-8 8-14 8-8 2-16 1-24 2-4 1-7 3-11 3-5 1-11 0-16 3-5 2-11 2-16 2s-9 4-13 6c-4 3-9 5-10 10a10 10 0 0 0 9 12l20-1 27 2c3 1 7-2 9-4a16 16 0 0 1 10-2 31 31 0 0 1 18 3c5 3 13 0 15-6a39 39 0 0 1 13-19c4-2 8-2 11-5 5-2 8-7 7-12-1-6-7-8-11-11a15 15 0 0 0-8-2zm-251 81c-15 4-30 10-45 13-9 3-9 16-1 20 9 2 14 11 23 10a18 18 0 0 0 18-13c3-7 11-9 15-15 4-7-2-15-10-15zm63-31c-8 1-16 2-21 8-7 5-10 13-15 19-5 8 4 17 12 15 11-2 21-9 32-8 7-2 13-7 21-9 9-3 7-17-2-19-9 0-17-6-27-6zm366-85-37 11c-7 3-15 6-24 6-16 2-35 0-50 9l-21 18c-13 0-29 0-40 9-14 1-22 14-26 26-1 6-6-1-10-1-11-3-25-3-33 6a192 192 0 0 0-59 0l-24 8c-6 2-10 6-15 9a44 44 0 0 0-19 9c-10-2-20 3-28 7-13 1-26 1-36 9a30 30 0 0 0-23 22c-5-1-10 4-13 0-13-13-34-10-51-8-13 2-25 8-37 12-14 3-29 1-41 11-14 3-32 1-42 14-3 4-5 9-10 10-13 6-31 9-36 25-6 13 3 28 16 33 11 6 23 5 35 5 9 12 23 16 36 21 13 4 28 7 41 1 4 4 13 0 16 5 3 6 9 10 15 12 5 15 22 19 34 25 22 11 45 22 70 26 13 2 27-2 32-15 4-3 0-13 4-13 6 0 13-1 16 5 11 11 29 11 44 8a33 33 0 0 0 13-7c11 2 24 0 35 0 18-1 33-10 46-21a44 44 0 0 0 14-22c11 2 22-3 29-11 16 5 32-2 44-12 10-7 20-13 27-23 11-11 19-24 29-36 5-9 6-19 6-29a74 74 0 0 0 32-31c4-6 5-14 6-20 19-9 32-28 34-49 9-10 21-18 27-30 6-15-6-33-22-34h-4zM414-3c-10 3-16 12-25 17-10 8-11 21-15 31-15-9-33-15-50-10a50 50 0 0 0-45 1c-17 7-36 12-46 29-18 0-30 16-43 28-5 3-9 7-15 9-13 9-22 23-35 32-11 11-15 26-26 36-6 7-14 13-18 22-10 6-13 18-21 26-12 15-25 32-27 53-1 13 10 25 23 27 9 4 12 16 22 19 9 5 20 3 29 1a26 26 0 0 0 23-9c12 1 26 1 34-10 3-5 10-4 15-7 13-3 28-7 34-19 19-6 39-11 58-18 5-7 14-2 22-4 9-1 16-9 20-17 4-3 5-8 11-7 5-1 9-5 14-1 17 8 37 3 53-5 11-5 23-11 33-18a43 43 0 0 0 22-4c8 1 16 1 22-4 14 0 28 1 39-9l13-11c6 0 10 7 17 7a62 62 0 0 0 42-6c13-5 29-5 41-12 13 9 31 9 45 1 16-6 33-7 47-18 17-7 35-14 49-27 13-12 9-34-7-41-18-7-37-10-56-14-10-7-18-20-32-20-7 0-15 0-20-5-9-7-19-11-28-17-7-3-16-2-23-2a114 114 0 0 0-41-15c-9-1-18 1-25 6a49 49 0 0 0-46-1C475-4 447-2 421-4l-7 1zm235 46c1 9-1-4 0 0zM107 310c-5-5-5-7 0 0zm-42-38c-13 1-26 8-34 17-10 13-22 28-18 45 3 17 23 25 38 18 14-5 28-10 41-17 14-9 16-29 9-43a43 43 0 0 0-36-20Z" style="fill:#fff;stroke-width:.361011" transform="scale(.75)"/><path d="m311 19-6 5c-2 1-3 2-4 5a89 89 0 0 1-8 21 42 42 0 0 0-4 13l-1 5-6-7c-3-5-11-13-16-15-8-3-15-4-19-2-4 3-4 3-12-1-7-3-9-3-16 0l-9 3c-18 8-20 9-21 18-1 7-2 9-7 5a12 12 0 0 0-11-1l-6 5c-8 9-12 12-14 13-1 0-2 1-3 5 0 4-2 6-5 3-1-2-4-2-4-1l-18 19a6 6 0 0 1-3 1l-3 5-3 4-1 1-2 5-5 6-8 9-7 7v7a22 22 0 0 1-1 7l-3-3-3-3-2 4-3 4a153 153 0 0 0-20 30c-1 2-3 6-3 10l-2 6-1 3c0 3 1 4 4 5 6 3 28 3 31 1s7-2 7-1l1 1 1-4c0-4 0-5-2-5l1-1 3 1 11 1h11v-3c1-2 2-3 6-4l22-6c7-2 8-3 8-5l-2-3a667 667 0 0 0 35-11l12-4c5-1 9-3 6-3l-9-7c-4-4-4-4-3-5 2-1 7 2 11 6 2 2 4 2 13 2h10v-3c0-3-1-3-3-4l-3-2-1-1-4-2-3-2-5-3-3-3c2-1 5-1 9 2l8 4 3 2 8 3c3 0 3-1-1-5-4-6-5-7-8-7l-4-3-1-3-1-2 1-3 9 9c6 6 9 8 11 8 3 0 3 0 3-2l1-3h1c0 2 1 2 4 2h3v-6c0-5 0-6 2-6 1 0 4 2 7 6 4 4 7 6 11 7 10 3 10 3 23-3a116 116 0 0 0 18-9c4-2 6-4 8-7 4-6 5-6 5-2 0 2 0 2 6 2 5 0 6 0 5-2l3-7c3-5 4-4 3 3l-1 3h11l3-6c2-5 2-7 3-19l1-14v36h8c7 0 9 0 11-2l5-3a121 121 0 0 0 21-24c2-2 4-8 4-12s0-4 2-4 3 0 3 4c0 3-1 5-4 9l-8 14-2 3h4l3-1 3-4 4-4c4-7 13-18 20-26l5-5-1 8c0 14 0 14-12 26l-11 11 8 1c8 0 9 0 13-3a24 24 0 0 1 6-3 58 58 0 0 1 13-3l7-1 4-1c3-1 6-3 12-10 10-9 10-10 12-13 3-5 4-4 4 3l-1 7h3c3 0 4-1 9-6l6-5v9l-3 4a69 69 0 0 1-19 9l-3 1 3 2h9c0-1 11-5 21-7 8-2 11-3 14-6l6-4c9-2 34-15 32-17l-10-2-15-4-10-1c-7 0-12-3-19-10l-6-6h-8a24 24 0 0 1-16-6 55 55 0 0 0-15-9c-3 0-4-1-3-2l-5-1-5 1-1 4c-1 1-2 0-7-5s-6-6-11-7l-8-3a20 20 0 0 0-12-1c-3 1-7 8-7 12 0 2-2 5-3 2a13 13 0 0 1-1-3c0-2-2-4-6-7-6-4-8-4-12-4-8-1-14 2-16 7l-3 3-3-4c-4-9-18-13-41-13h-14l-3 3zm224 83a166 166 0 0 1-16 10c-2 3-9 4-21 4h-13l2 5c1 6 2 7 5 7l-8 1c-23 1-22 1-32 11l-9 9h-11c-11 0-12 0-16 3-2 2-5 3-7 3l-3 1-4 11c-2 2-1 3 1 5l7 9a96 96 0 0 0 12 13 12 12 0 0 1 3 7l1 5a50 50 0 0 1 0 18c-1 1-2-1-2-5 0-6-4-19-8-24-8-12-16-18-23-18-5 0-5 0-5 3a5 5 0 0 0 2 4c2 1 3 4 1 4a27 27 0 0 1-6-5c-10-10-10-10-15-10l-5 1 3 4c2 3 3 7 1 7l-3-2c-2-3-3-3-9-3l-6-1c0-3-38-3-39-1 0 1-3 3-8 4-6 1-8 2-11 5-2 2-4 3-9 4s-6 2-6 3l-3 6-4 3-3-2c-2-3-3-3-7-3l-5 2c-2 2-7 4-14 4s-11 1-13 3a13 13 0 0 1-7 3c-3 0-3 1-5 17a194 194 0 0 1-9 45 34 34 0 0 1-3 9l-1-5-2-5c-2-2-1-7 2-11 3-3 3-3 3-14l-1-13a5 5 0 0 1-2-4c0-2 0-2-3-2s-3 1-5 6l-2 7-2-2a70 70 0 0 0-7-11 27 27 0 0 0-7-6c-3-2-4-2-12-2a67 67 0 0 0-27 8c-8 3-11 4-18 1-6-2-9-1-22 5l-10 5-11 3c-23 3-39 7-42 9a34 34 0 0 0-6 7l4 1a29 29 0 0 1 12 6 3 3 0 0 0 3 1l1 1 12 1c11 0 12 0 15-3 6-6 15-12 15-10a50 50 0 0 1-4 5c-6 6-9 17-5 17l6 3a53 53 0 0 0 20 7c4 0 6 0 10-2 6-3 9-3 13 1h2l2-3a89 89 0 0 1 18-27l6-6v3l-4 9a54 54 0 0 0-4 9l-2 5c-2 2-1 11 0 13a13 13 0 0 1 2 5l1 4h12v6l1 6 6 4a107 107 0 0 0 14 6 220 220 0 0 0 36 14l6 1h5v-9l-1-9-1-10-1-11c-1-1-2-2-2-5 0-4 0-4 1-2l8 13 6 12h12c14 1 20 3 22 9 1 1 3 2 7 2 11 1 11 1 17-12l9-16 3-6v8l-1 10-1 5v5h13c13 0 13 0 25-6 5-3 8-4 10-8 3-5 3-5 3-17 0-10 0-13 2-14s1-4 1-14l1-12 7 11c1 3 1 3-2 6-4 5-5 9-2 15v5c-1 1 1 1 5 1l9 1 4-2 4-5 1-2 2-2 1-3 2-5c3-6 9-2 9 7l1 4h4c4 0 5 0 9-4l3-2 2-2 2-1c4-1 13-10 20-19l7-10 1-2 1-2 4-4c2-2 2-4 2-14 0-12-1-16-5-20-1-2-2-12-1-14 2-1 6 5 8 12l3 8h4c4 0 5 0 11-7 5-6 6-8 8-13a23 23 0 0 0 0-14c-1-2-1-2 2-2 12 0 24-12 24-25v-5l16-16c14-14 15-15 15-19s0-4-3-4l-9 3zM43 225l-5 2-4 5a53 53 0 0 1-5 7 9 9 0 0 0-2 6c0 3 0 3 3 3l6-2 18-7 1-1 3-1c2 0 2 0 2-5l-1-5-3-2c-4-4-8-4-13 0z"/></svg>