<svg xmlns="http://www.w3.org/2000/svg" width="400" height="400" version="1.0" viewBox="0 0 300 300"><path d="M198.724 2.373c-19.214.458-38.318 15.76-39.174 35.66-.931 11.533 1.209 23.807 9.011 32.773 1.67 2.77 5.995 4.098 4.872 7.903.967 3.814-.565 5.602-4.38 5.688-22.701 5.66-43.104 18.864-58.421 36.446-13.91 14.47-22.815 33.16-27.32 52.59-3.152-.485-7.38 1.473-9.174-2.013-11.023-11.535-28.84-14.435-43.866-10.718-13.654 4.87-24.893 17.484-26.988 31.976-.88 10.028-.58 20.88 5.604 29.349 5.167 7.968 12.956 14.606 21.912 17.742 7.818 1.56 16.07.95 23.906-.383 9.45-1.885 18-7.685 23.2-15.804 3.747-.936 5.518.492 5.5 4.265 8.643 37.537 36.905 69.56 72.788 83.37a128.805 128.805 0 0 0 17.239 5.452c-.488 3.156 1.478 7.395-2.013 9.193-11.535 11.023-14.435 28.84-10.718 43.866 5.737 16.28 22.5 28.644 40.027 27.516 14.636.167 28.346-8.516 35.713-20.958 5.813-7.936 4.211-18.265 3.57-27.45-1.243-10.759-7.227-20.918-16.43-26.743-.864-3.678.541-5.456 4.232-5.489 44.413-10.375 80.998-48.25 89.723-93.022 3.409-.782 5.582.592 7.159 3.51 8.46 10.755 22.82 14.17 35.914 13.495 10.291 1.07 19.103-5.556 25.876-12.554 9.018-9.587 12.66-23.466 9.975-36.301-2.623-15.263-15.093-28.537-30.212-31.873-14.99-2.339-32.27 1.231-42.148 13.574-2.956-.551-8.2 1.81-7.915-2.843-5.437-22.393-18.329-42.551-35.057-58.236-15.808-15.136-36.085-25.588-57.547-29.841-.766-3.417.564-5.63 3.51-7.209 10.755-8.46 14.17-22.82 13.495-35.914 1.075-10.453-5.74-19.373-12.9-26.183-7.836-7.095-18.356-11.204-28.963-10.834Z" style="fill:#fff;stroke-width:.597015" transform="scale(.75)"/><path d="M144.7 17.4c-7.8 2.9-11.1 8.1-10.5 16.6.5 6.5 3.2 11.1 7.8 13.2l3 1.3v26.1l-8.2 1.5c-16.2 3.1-28.5 9.6-39.8 21-11.5 11.5-17.8 23.6-20.9 39.6l-1.5 8.3H48.5l-1.3-3c-2.1-4.7-6.7-7.4-13.7-7.8-5-.3-6.6 0-9.4 2-10 6.7-10 20.9 0 27.6 2.8 2 4.4 2.3 9.4 2 7.4-.4 11.6-3.1 14.1-8.8l1.8-4H74.7l.7 6.1c3.7 32.4 28.5 58.5 61.4 64.8l8.2 1.5v26.1l-3 1.3c-4.7 2.1-7.4 6.7-7.8 13.7-.3 5 0 6.6 2 9.4 6.7 10 20.9 10 27.6 0 2-2.8 2.3-4.4 2-9.4-.4-7.4-3.1-11.6-8.8-14.1l-4-1.8V225.3l6.1-.7c33.6-3.8 61.7-31.9 65.5-65.5l.7-6.1H250.6l1.8 4c2.5 5.7 6.7 8.4 14.1 8.8 5 .3 6.6 0 9.4-2 10-6.7 10-20.9 0-27.6-2.8-2-4.4-2.3-9.4-2-7 .4-11.6 3.1-13.7 7.8l-1.3 3H225.2l-.7-5.3c-4.5-33.2-32.3-60.5-65.4-64.3l-6.1-.7V49.4l4-1.8c5.7-2.5 8.4-6.7 8.8-14.1.3-5 0-6.6-2-9.4-4.3-6.4-12.2-9.2-19.1-6.7zm.3 79.5v13.9l-3.7.7c-13.9 2.6-27.2 15.9-29.8 29.7l-.7 3.8h-28l.7-4.3c2.6-15.3 8.8-27.2 19.9-38.2 9.2-9.1 18.3-14.3 30.6-17.5 12-3 11-4.1 11 11.9zm24.8-10.8c10.4 3.2 18.9 8.4 27.3 16.8 10.6 10.6 16.9 22.9 19.4 37.8l.7 4.3h-28l-.7-3.8c-2.7-14.3-16.7-27.9-31-29.9l-4.5-.6v-28l5 .7c2.8.4 8.1 1.6 11.8 2.7zM145 126.4c0 7.4 0 7.4-3.4 9.6-1.9 1.1-4.5 3.7-5.6 5.6-2.2 3.4-2.2 3.4-9.6 3.4-5.3 0-7.4-.4-7.4-1.3 0-2.4 4.8-11.4 7.9-15 3.1-3.4 13.9-9.7 16.8-9.7 1 0 1.3 1.9 1.3 7.4zm18.8-4.4c7 3.5 11.4 8.2 14.8 15.4 3.5 7.5 3.5 7.6-5 7.6h-7.3l-2.6-3.9c-1.5-2.2-4.3-4.7-6.6-5.7l-4-1.9-.1-7.3c0-6.9.1-7.2 2.3-7.2 1.3 0 5.1 1.4 8.5 3zm-52.5 35.5c2 14.3 15.6 28.3 30 31l3.7.7v28l-4.2-.7c-15-2.5-27.3-8.8-37.9-19.4C92 186.2 85.4 172.9 83.4 158l-.7-5h28l.6 4.5zm24.1-.4c1 2.3 3.5 5.1 5.7 6.6l3.9 2.6v7.3c0 5.3-.4 7.4-1.2 7.4-2.5 0-11.5-4.8-15.1-7.9-3.9-3.5-9.7-14-9.7-17.8 0-2.2.3-2.3 7.3-2.3l7.2.1 1.9 4zm45.6-1.9c0 3.3-4.2 11.9-7.9 16.1-3.5 3.9-14 9.7-17.8 9.7-2.2 0-2.3-.3-2.3-7.4 0-7 .1-7.4 2.5-8 3.2-.8 9.3-6.9 10.1-10.1.6-2.4 1-2.5 8-2.5s7.4.1 7.4 2.2zm35.6 2.8c-2 14.9-8.6 28.2-19.5 39.1-10.9 10.9-24.2 17.5-39.1 19.5l-5 .7v-28l4.8-.7c14.5-1.9 28.8-16.4 30.9-31.1l.6-4.5h28l-.7 5z"/></svg>