<svg xmlns="http://www.w3.org/2000/svg" width="400" height="400" version="1.0" viewBox="0 0 300 300"><path d="M199 2c-20 1-39 16-39 36a44 44 0 0 0 9 33c1 3 6 4 4 8 1 3 0 5-4 5a115 115 0 0 0-58 37 112 112 0 0 0-28 52c-3 0-7 2-9-2a47 47 0 0 0-44-10 42 42 0 0 0-27 32c-1 10 0 21 6 29a45 45 0 0 0 22 18c8 1 16 1 24-1a36 36 0 0 0 23-15c4-1 5 0 5 4 9 37 37 69 73 83a129 129 0 0 0 17 6c0 3 2 7-2 9a47 47 0 0 0-10 44 41 41 0 0 0 40 27 42 42 0 0 0 35-21c6-8 5-18 4-27a37 37 0 0 0-16-27c-1-4 0-5 4-5 44-11 81-49 89-93 4-1 6 0 8 3 8 11 22 14 36 14 10 1 19-6 25-13 9-10 13-23 10-36a41 41 0 0 0-30-32c-15-2-32 1-42 13-3 0-8 2-8-2a120 120 0 0 0-35-59 117 117 0 0 0-57-29c-1-4 0-6 3-8 11-8 14-22 14-36 1-10-6-19-13-26a42 42 0 0 0-29-11Z" style="fill:#fff;stroke-width:.597015" transform="scale(.75)"/><path d="M145 17c-8 3-11 8-11 17 1 7 3 11 8 13l3 2v26l-8 1a72 72 0 0 0-40 21 72 72 0 0 0-21 40l-1 8H49l-2-3c-2-5-6-7-13-8-5 0-7 0-10 2-10 7-10 21 0 28 3 2 5 2 10 2 7-1 11-3 14-9l1-4h26v6a75 75 0 0 0 62 65l8 1v26l-3 2c-5 2-7 6-8 13 0 6 0 7 2 10 7 10 21 10 28 0 2-3 2-5 2-10-1-7-3-11-9-14l-4-1v-26h6a76 76 0 0 0 66-66v-6h26l1 4c3 6 7 8 14 9 6 0 7 0 10-2 10-7 10-21 0-28-3-2-5-2-10-2-6 1-11 3-13 8l-1 3h-27l-1-5a76 76 0 0 0-65-65h-6V49l4-1c6-3 8-7 9-14 0-5 0-7-2-10a17 17 0 0 0-19-7zm0 80v14l-4 1a40 40 0 0 0-29 29l-1 4H83l1-4a67 67 0 0 1 19-38 63 63 0 0 1 31-18c12-3 11-4 11 12zm25-11a64 64 0 0 1 27 17 67 67 0 0 1 20 38v4h-28v-4a40 40 0 0 0-31-30h-5V83h5l12 3zm-25 40c0 8 0 8-3 10a19 19 0 0 0-6 6c-2 3-2 3-10 3l-7-1c0-3 5-12 8-15a44 44 0 0 1 17-10l1 7zm19-4c7 4 11 8 15 15 3 8 3 8-5 8h-8l-2-4a18 18 0 0 0-7-6l-4-1v-8c0-7 0-7 2-7l9 3zm-53 36a40 40 0 0 0 30 31h4v28l-4-1a67 67 0 0 1-38-19 67 67 0 0 1-20-39v-5h28v5zm24-1a18 18 0 0 0 6 7l4 2v8l-1 7c-3 0-12-5-15-8a39 39 0 0 1-10-18c0-2 0-2 7-2h8l1 4zm46-2c0 3-4 12-8 16a39 39 0 0 1-18 10c-2 0-2 0-2-7s0-8 2-8c4-1 10-7 11-11 0-2 1-2 8-2s7 0 7 2zm36 3a67 67 0 0 1-20 39 67 67 0 0 1-39 20h-5v-28h5a39 39 0 0 0 31-32v-4h28v5z"/></svg>