<svg xmlns="http://www.w3.org/2000/svg" width="384" height="387" version="1.0" viewBox="0 0 288 290"><path d="M262 152c-13 1-21 13-20 25-1 12 5 25 17 27 11 2 22-5 27-14 8-15-3-35-19-38h-5zM194 6c-11 1-23 1-33 6-16 8-19 30-13 45l14 37 14 34c-10 9-24 9-36 12-14 3-30 4-39 16-24 34-38 73-51 112l-27 78c-4 13 6 27 19 28 8 0 16 1 24-2 10 3 19-4 25-12l39-43c7 0 13-4 19-6 7 4 16 7 24 5a142 142 0 0 0 70 55c12 4 25 9 38 4 14-7 19-27 8-39-11-11-26-14-39-23a38 38 0 0 1-14-13c12 0 24-6 31-15 10-11 15-25 23-36 13 4 21 17 35 18 10 1 22 2 32-3s16-18 11-28a297 297 0 0 0-34-55 522 522 0 0 0-45-44 74 74 0 0 0-17-9 133 133 0 0 0 30-73c3-12-7-24-19-27-13-3-28-4-41 3-6 3-10 7-15 12-3-14-8-30-22-35l-12-2zm71 166c3 3 7 8 3 12-2 5-5 3-6-2-1-3-1-11 2-12l1 2z" style="fill:#fff;stroke-width:.816163" transform="scale(.75)"/><path d="M140 20a43 43 0 0 1-8 1c-5 0-5 0-7 3-3 5-2 11 3 23a72 72 0 0 1 6 13 116 116 0 0 0 6 17c8 16 11 28 8 25-1-1-2 0-5 3a39 39 0 0 1-16 11l-19 4a134 134 0 0 0-17 3c-3 1-5 4-10 12-11 20-19 38-33 81a1992 1992 0 0 1-17 49l6 1h6l3-8 8-25c7-22 13-39 14-35 0 5-3 16-8 34a145 145 0 0 0-8 31v2l4-4 32-34 2-31c1-29 3-44 6-53 1-4 1-4 1 9l-2 31c-1 17 0 39 1 41l7-3 7-4-1-4c-3-15-3-65-1-71l1 14a1129 1129 0 0 0 5 57c0 4 1 5 5 7 4 3 7 4 9 2l-1-14-2-20v-7l3 11c3 13 7 23 12 34 8 18 34 37 57 41 6 2 7 2 8 0a5 5 0 0 0 2-4c0-2-2-3-11-7a86 86 0 0 1-28-18 71 71 0 0 1-12-25c-2-8-4-28-2-29 1-1 2 2 3 12l1 11v4h10l13-1c6-2 11-7 17-20l10-15c3-4 3-4 9-4 6 1 14 5 21 11 5 4 5 4 13 4l10-1c2-2 2-2 0-7l-19-31a173 173 0 0 0-20-20 73 73 0 0 1-6-6 63 63 0 0 0-9-8 68 68 0 0 0-24-8c-5 0-5-1 2-8 17-19 24-34 26-54l1-6-4-2a34 34 0 0 0-16 0c-3 0-5 2-8 4-5 4-5 5-5 11 0 12-2 29-4 34-2 6-7 13-9 13-1 0-2-3-3-10-6-48-8-62-12-66-2-2-6-3-11-1zm67 110c5 2 5 4 0 4l-7 3c-3 2-5 3-8 3-4 0-4 0-2-1 4 0 6-2 6-4 0-4-2-5-6-5-3 1-2-1 2-3 4-1 8-1 15 3z"/></svg>