<svg xmlns="http://www.w3.org/2000/svg" width="384" height="386.667" version="1.0" viewBox="0 0 288 290"><path d="M261.505 151.562c-12.528.998-20.637 13.745-19.628 25.63-.668 11.398 5.017 25.022 17.536 26.737 10.469 1.622 21.382-5.002 26.818-13.846 8.28-14.65-2.866-34.997-18.711-38.261-1.978-.421-4.008-.416-6.015-.26zM193.521 6.292c-11.064 1.15-22.666 1.195-33.045 5.567-15.706 8.458-18.98 29.845-12.427 45.234 4.9 12.3 10.141 24.459 14.11 37.102 4.059 11.238 9.688 22.263 13.467 33.36-9.322 9.7-23.437 9.827-35.695 12.65-13.507 3.147-29.629 3.76-38.776 15.77-24.29 33.654-37.913 73.41-51.515 112.233-8.721 26.135-18.056 52.084-26.464 78.312-3.963 12.416 5.46 26.704 18.62 27.295 8.027.571 16.576 1.056 24.109-1.505 10.2 2.805 18.934-4.656 24.909-12.056 13.357-14.13 26.625-28.356 39.356-43.056 6.64-.343 12.57-3.849 18.429-6.639 7.205 4.43 15.91 7.865 24.451 5.745 15.966 25.594 41.935 43.853 69.722 54.715 11.994 3.799 25.553 9.42 37.907 3.984 14.069-6.468 19.827-27.22 8.509-38.806-11.041-10.72-26.611-14.608-39.313-22.918-5.534-3.28-10.763-7.429-14.002-13.092 12.181.17 23.728-5.694 31.257-15.184 9.623-10.69 15.029-24.578 23.186-36.069 12.635 3.863 20.441 17.249 34.28 18.223 10.895.42 22.828 2.273 32.855-3.082 9.576-5.448 15.847-17.61 10.834-28.185-9.573-19.3-20.205-38.363-33.775-55.176-14.102-15.37-29.294-29.797-45.13-43.363-5.046-4.049-11.09-6.832-16.865-9.421 16.801-20.606 27.103-46.173 29.324-72.665 2.815-12.282-6.4-24.402-18.361-26.873-13.472-2.945-28.645-4.151-41.355 2.203-5.804 3.076-10.425 7.832-15.18 12.264-2.404-13.585-7.501-29.533-21.796-34.672-3.677-1.488-7.678-2.004-11.626-1.894zm71.73 165.309c3.14 3.159 6.885 8.04 2.936 12.125-2.218 5.322-5.598 3.68-6.248-1.488-.833-3.492-1.098-10.826 1.619-11.931l1.693 1.294z" style="fill:#fff;stroke-width:.816163" transform="scale(.75)"/><path d="M140 20c-1.4.4-4.9.8-7.8.9-4.8.1-5.4.4-7.3 3.3-3 4.9-2.1 10.9 3.5 22.4 2.5 5.3 4.9 11.5 5.2 13.7.4 2.3 3.3 9.8 6.4 16.7 7.6 16.3 11.1 28 7.7 25.1-1.1-.8-2.1-.2-4.6 2.9-3.4 4.2-9.8 8.4-16.3 10.7-2.2.7-10.5 2.5-18.5 3.8-7.9 1.4-15.9 3.1-17.6 3.9-2.5 1-4.7 3.8-9.4 11.8-11.7 19.7-19.4 38.1-33.6 80.8-5.2 15.7-11.1 32.9-13.1 38.4-2 5.4-3.6 10.2-3.6 10.7s2.7.9 5.9.9h5.9l3-7.9c1.7-4.3 5.4-15.5 8.2-24.7 6.8-22.4 13.4-39 13.8-35 .5 4.1-2.3 15.9-7.9 33.1-5.3 16.6-7.9 26.5-7.9 31v2.9l4.1-3.9c4.6-4.5 29.7-31.8 31.6-34.3.8-1.1 1.5-11.6 2.2-31 1.1-28.8 2.7-44.3 5.7-53.2 1.4-4.3 1.4-4 .9 8.5-.2 7.1-.9 21.3-1.5 31.5-1 17.1-.3 39.1 1.3 40.6.3.3 3.4-1 7-3l6.4-3.6-.8-4.5c-2.7-14.3-3.3-64.3-.9-70.9.4-1.1 1 5.2 1.4 14 .7 16.1 3.1 49.1 4.2 57.4.5 4 1.1 4.8 5.1 7.2 4.5 2.9 7.7 3.5 8.8 1.9.3-.5-.1-6.7-1-13.8-.8-7-1.5-16-1.4-19.8l.1-7L128 192c3.4 12.7 7 22.9 12 33.5 8.3 18.2 34.3 37.2 57 41.9 5.7 1.2 6.7 1.2 8.3-.2 1-.9 1.7-2.6 1.5-4-.3-2-2.1-3.2-10.9-7.1-12.9-5.8-23.7-12.8-28.3-18.4-4.7-5.9-9.4-15.6-11.6-24.2-2.3-8.9-3.8-28.9-2.2-29.9 1.1-.6 1.7 2.4 2.7 12.9.3 3.3.8 7.9 1.1 10.2l.5 4.3h9.7c5.3 0 11.4-.5 13.5-1.1 5.7-1.5 10.5-7.1 17-19.5 3.2-6.2 7.5-13.1 9.4-15.4 3.6-4.2 3.7-4.2 8.9-3.7 6.6.7 14.7 4.7 21.2 10.3 5 4.4 5 4.4 13.6 4.7 6.8.1 8.9-.1 10.1-1.4 1.5-1.5 1.5-2-1-6.9-4.6-9-14.2-24.8-18.8-30.8-3.9-4.9-11.4-12.5-19.8-19.8-1.3-1.1-4.1-3.9-6.1-6.2-2.1-2.3-6.1-5.7-9-7.7-5.3-3.5-18.8-8.5-23.3-8.5-5.8 0-5.7-1 1.1-8.4 17-18.2 24.7-33.7 26.8-53.9l.6-5.8-3.5-1.4c-3.6-1.6-10.4-1.9-16.6-.9-2.4.4-5.3 2.1-8.2 4.8-4.5 4.1-4.5 4.2-4.6 10.6-.1 12-2.1 29-4.1 34.3-2.1 5.7-7.4 12.7-9.5 12.7-.9 0-1.6-3.1-2.5-10.3-5.6-48-8.1-61.5-11.8-65.2-2.6-2.6-6.3-3.1-11.2-1.5zm66.7 109.8c5.4 2.6 5.5 4.1.3 4.2-1.4 0-4.5 1.4-6.9 3-3.3 2.2-5.4 3-8.5 2.9-3.4-.2-3.6-.3-1.1-.6 3.9-.6 5.5-2 5.5-4.8 0-3.1-2.4-4.9-5.6-4.1-3.5.9-2.2-1.2 2-3 3.7-1.6 7.3-1 14.3 2.4z"/></svg>