<svg xmlns="http://www.w3.org/2000/svg" width="382" height="365" version="1.0" viewBox="0 0 287 274"><path d="M176 220a20 20 0 0 0-10 35 19 19 0 0 0 22 1c7-5 10-14 8-22a19 19 0 0 0-17-13h-3zm57-80c-8 0-15 4-21 10-5 2-11 4-14 9-5 7-3 16-3 23 0 11 10 18 20 18 7 0 16 1 22-4l12-4c8-6 11-19 7-28 3-10-3-21-13-23l-10-1zm-87 79a22 22 0 0 0-14 11c-7 5-10 14-8 22 2 9 6 18 15 21a21 21 0 0 0 27-13c1-4 2-8 5-11 6-10 1-23-9-27a25 25 0 0 0-16-3zm12 40c-1 0 2-1 0 0zM65 64c-6 0-12 4-15 9a26 26 0 0 0-15 35c-2 8-6 18-1 26 7 12 23 13 33 5 8-7 18-14 18-26 1-4 5-7 5-12 3-9-1-18-5-27a21 21 0 0 0-20-10ZM33 170l-9 3-10 5c-3 2-5 5-6 8a23 23 0 0 0-6 28 21 21 0 0 0 17 11c7 1 14-1 20-3s11-4 16-8a20 20 0 0 0 7-16c0-4-1-9-4-12a22 22 0 0 0-5-5l-2-3a19 19 0 0 0-17-8h-1zm-6 16c5 1 9 5 11 9a17 17 0 0 1 1 5 18 18 0 0 1-1 10l-1 1a63 63 0 0 1 1-1v2l-2 3a18 18 0 0 1-9-29zm6-11c-3 0-6 2-9 1a19 19 0 0 0-17 14 20 20 0 0 0 6 27c6 4 14 4 20 1 6-2 14-3 19-8s6-15 3-22a21 21 0 0 0-16-13h-6zM5 202zm0 2c0-1 0-2 0 0zm189 17a19 19 0 0 0-16 21l1 5a20 20 0 0 0 21 17c9 1 19-4 22-13 5-11-1-25-13-28a49 49 0 0 0-15-2zM67 23c-9 0-19 5-21 14a55 55 0 0 0-1 24c1 9 6 18 15 20 10 3 21 0 27-8a26 26 0 0 0 10-21 20 20 0 0 0-13-21 24 24 0 0 0-17-8ZM46 39c2-3 3-4 0 0zm107 12c-8 0-15 5-19 11-5 2-12 4-18 4-9-5-18-11-29-12a20 20 0 0 0-19 23c0 7 5 13 4 20-3 5-5 11-6 17-5 6-11 11-17 15-8 6-14 12-20 20a33 33 0 0 0-1 22c1 4 3 8 6 11 1 12 13 20 24 17 7-1 13-6 21-9l38-16c1-1 4-1 3 2-4 13-6 28 2 40 5 7 11 14 19 19 5 2 11 1 16 4 8 4 20 3 26-5 5-6 5-14 2-21 2-6 1-12-1-18 0-3 4-2 5-2 12 4 25-7 24-19 1-2-2-6 1-6 6-1 11-5 15-10 9 2 19-3 22-11 2-5 1-13 7-16 8 0 16-3 20-11 6-10 12-23 7-35-4-9-14-12-24-11-9 1-19-1-26 7-3 2-3 6-5 9l-17-1c-3-8-10-13-18-15l-10-3c-5-6-12-10-18-15-4-4-9-5-15-5zm15 28c-1 1-1 1 0 0zm87 34c-12 1-20 14-21 25a20 20 0 0 0 22 21 51 51 0 0 0 22-8 20 20 0 0 0-1-32 39 39 0 0 0-22-6zm-70 61c-12 0-22 13-19 24 0 4 3 7 1 10-4 18 16 36 33 29l8-6c10 5 21 12 32 8a19 19 0 0 0 11-25c-1-5-6-9-5-15-2-10-11-17-20-17h-20c-6-4-13-8-21-8zm-67-19c-11 1-19 8-29 11-9 5-19 7-28 12-6 3-10 10-11 17-4 10-12 19-9 31 3 11 16 17 27 13l16-7c5 12 21 20 33 14 8 2 18 5 25-1 10-6 11-21 4-29-5-6-11-11-11-19-1-7 2-14 4-20a20 20 0 0 0-21-22zm-87-42c-11 1-22 8-23 19a21 21 0 0 0 16 24c9 3 20 2 26-6 9-10 3-26-7-33a21 21 0 0 0-12-4zM146 0c-11 0-21 9-21 20-1 10 6 21 17 22 8 1 16-4 21-10 8-10 3-27-10-31l-7-1zm-22 22c-3-1-6 1-9 2-12-4-27 2-31 14-2 5-5 9-5 15-1 10 6 19 15 22 8 3 14 10 22 10s16-4 24-5c9-3 14-13 14-22a22 22 0 0 0-4-19 32 32 0 0 0-20-17 22 22 0 0 0-6 0zm29-1c-12 1-21 14-17 25 3 11 13 17 21 25a94 94 0 0 0 36 21c3 1 2 6 5 8 4 8 13 9 21 9s18 1 24-6c7-6 7-18 1-26-2-2-3-5-1-7 4-8 9-18 5-26-5-10-18-14-27-10l-13 5c-3-2-3-7-6-9a26 26 0 0 0-29-6c-7-2-14-4-21-3z" style="fill:#fff;stroke-width:.216418"/><path d="M143 22a34 34 0 0 1-4 9l-4-2c-4-2-10-3-10-2l-4-1c-4-2-5-2-5-1a5 5 0 0 0-1 2l-7-2c-6-2-7-2-8-1-2 3-2 5 3 6l6 2c1 1 2 1 4-1s2-2 7 1 7 5 5 5h-1c0 3-1 5-5 6s-5 1-6-1c-3-2-9-2-11 1l-1 4c0 4-5 7-8 5-15-6-21-9-21-11-1-3-8-10-9-10l-1 4c0 3-1 3-4 3-4 1-4 1-2 4l1 2c-1 0 0 3 2 5a25 25 0 0 1 3 12l2 14 2 5-3 5c-2 4-3 5-5 5-7 0-10 8-5 12 1 2 2 3 1 5a83 83 0 0 0-3 11l-1 7-15 5-15 6 15 5c18 6 18 6 10 13l-9 7v2l-2 3c-2 3-2 3-1 5a7 7 0 0 1 2 4v2l3-2 2-1c-1 2-1 2 1 2h2c2 2 0 5-3 7-4 2-4 3-4 5l-6 3c-5 2-5 2-5 5 1 2 0 3-3 3-2 1-3 2-3 4l1 3c4 1 24-5 24-7l-1-3c-1-2-1-2 1-3l5-2c3 0 13-5 12-5l-1-1-9 2a181 181 0 0 1-24 8l5-3 12-7c-5 1-2 0 4-3 5-3 6-3 2-3h-3s7-5 20-11a231 231 0 0 0 46-32c19-15 19-16 3-5a527 527 0 0 1-26 16 681 681 0 0 0-40 24l-4 2 1-2c3-1 3-2 0-2h-1a5 5 0 0 0 2-3l-4 1c-7 5-7 5-2 0l4-5-3 1-5 5-5 3 4-5 5-5 7-8 13-14 10-12c5-5 8-10 5-8a5 5 0 0 1-3 2l-3 2-3 3-7 4-7 4c-1 0 1-3 4-5l2-3a21 21 0 0 1-6 3l-4 3-2 1 10-11 17-17-6 3a22 22 0 0 1-5 3l4-8c5-7 6-8 5-10-4-9-9-28-9-34a33 33 0 0 0-2-10c-2-2-2-3 0-2s2-1-1-4c-2-1-2-2-1-2l2 1c1 1 1 1 1-1l2-4c0-1 1-1 1 2l1 2c1-3 2-3 3 2l5 4a327 327 0 0 0 25 10 63 63 0 0 1 13 7l4 3 7-2a44 44 0 0 1 9-2c2 0 2-1 2-3l1-5c1-3 0-3-3-5-2-1-3-2-1-2 2-1 2-2-2-5-5-3-3-7 3-4h2l-15-9c-7-4-4-4 5 0 7 4 10 4 6 1-3-2 0-1 7 2 8 4 20 13 26 19a159 159 0 0 0 24 19l13 5c12 3 13 4 12 10l-1 4h6l16 1a91 91 0 0 0 28 1c7 0 7 0 7 2a33 33 0 0 1-6 14 14 14 0 0 0-2 7l-7 20c-1 2-3 3-5 3-2 1-4 2-6 5-3 5-10 12-9 9l1-7v-5h-5l-7-1c-2 0-3 0-5 5l-10 10v-2a31 31 0 0 0-1-13l-4-2a73 73 0 0 1-11-2c-6-2-7-2-8-1a112 112 0 0 0-13 19l8 5c7 3 9 5 12 9l6 7c3 4 5 4 9-2l3-4 1 6c0 7 1 7 8 8s9 0 12-7l3-6 2 9a89 89 0 0 0 1 10l-5 11c-2 1-4 2-7 1a39 39 0 0 0-18 1c-3 1-4 1-8-2a47 47 0 0 0-12-7c-4-1-3 3 1 10l4 8v3l-3-2a41 41 0 0 1-7-8 26 26 0 0 0-6-6c-2 0-2 0-1 3 1 4 5 9 12 16 6 5 6 6 4 5-3 0-3 0 2 4s6 5 12 7c3 1 1 3-3 2-3 0-3 0-1 1l7 4c6 3 5 5-1 2l-6-1-6-2-4-1c-1 1 0 1 1 2 3 0 3 2 1 2l-5-2c-4-1-10-1-11 1l6 2 6 3-24-4a114 114 0 0 1-28-11 53 53 0 0 1-16-18 49 49 0 0 1 1-38l1-5-5 4a274 274 0 0 1-64 25c-5 1-4 0 2-2l4-3c1-1 3-3 5-3 5-2 4-3-1-1l-8 2c-3 1-5 1-4 2l-2 3c-2 1-3 2-2 3 0 2 0 2 3 2 4 0 14-3 19-5l-5 14a234 234 0 0 0-7 14l14-6 15-8 7 5c6 4 7 6 7 8 1 4 7 8 11 6l3-2c0-2 16 3 20 5 3 2 4 4 8 16l4 13 3-10a33 33 0 0 1 5-10 166 166 0 0 0 35 6l1-2c0-1 0-2 2-2l4-1 1 3c-1 2 0 3 3 3l8 2 6-1c2-2 2-2 0-3v-4c3-2 3-3 1-3l-5-1c-3-1-3-1-3-4 1-3 0-3-3-4a37 37 0 0 1-6-3c-3-2-3-3-2-3 1-1 1-1-1-3s-2-2 6-7l5-4 15 7a96 96 0 0 0 14 6l-5-10a71 71 0 0 1-4-10l4-1c2 0 4-2 6-6 2-5 3-9 1-10-1-1 0-6 1-9 2-2 2-7 0-10-1-1-1-3 1-9 3-11 4-13 20-18l13-4-5-2-7-3c-1 0-1-2 1-5l2-9 2-7c3-4 7-15 6-17-1-3-4-4-9-3a59 59 0 0 1-23 0l-9-1-5-7-4-7 6-13 7-14-13 6-13 7-9-6c-6-4-8-6-8-8 0-6-7-9-12-5-3 1-4 2-6 1l-11-3-7-1-4-13-5-13-3 9zm-33 7c1 0 1 1 0 0l-5-1-4-2 9 2zM42 197c0 2-11 6-16 6-8 1-6 0 4-3l12-3zm169 50h-4c-8-1-11-2-4-2l8 2z"/><path d="m168 84-6 2-5 1 4 2 5 4 2 2 5-2 7-2c5 0-1-6-7-7a25 25 0 0 0-5 0z"/></svg>