<?xml version="1.0" encoding="UTF-8" standalone="no"?>
<svg
   xmlns:dc="http://purl.org/dc/elements/1.1/"
   xmlns:cc="http://creativecommons.org/ns#"
   xmlns:rdf="http://www.w3.org/1999/02/22-rdf-syntax-ns#"
   xmlns:svg="http://www.w3.org/2000/svg"
   xmlns="http://www.w3.org/2000/svg"
   xmlns:sodipodi="http://sodipodi.sourceforge.net/DTD/sodipodi-0.dtd"
   xmlns:inkscape="http://www.inkscape.org/namespaces/inkscape"
   version="1.1"
   viewBox="-10 0 1010 1000"
   id="svg6209"
   sodipodi:docname="gangrel.svg"
   inkscape:version="1.0.1 (3bc2e813f5, 2020-09-07)">
  <metadata
     id="metadata6215">
    <rdf:RDF>
      <cc:Work
         rdf:about="">
        <dc:format>image/svg+xml</dc:format>
        <dc:type
           rdf:resource="http://purl.org/dc/dcmitype/StillImage" />
        <dc:title></dc:title>
      </cc:Work>
    </rdf:RDF>
  </metadata>
  <defs
     id="defs6213" />
  <sodipodi:namedview
     pagecolor="#ffffff"
     bordercolor="#666666"
     borderopacity="1"
     objecttolerance="10"
     gridtolerance="10"
     guidetolerance="10"
     inkscape:pageopacity="0"
     inkscape:pageshadow="2"
     inkscape:window-width="1600"
     inkscape:window-height="837"
     id="namedview6211"
     showgrid="false"
     inkscape:zoom="0.67"
     inkscape:cx="309.1741"
     inkscape:cy="482.68441"
     inkscape:window-x="-8"
     inkscape:window-y="-8"
     inkscape:window-maximized="1"
     inkscape:current-layer="svg6209" />
  <path
     style="fill:#ffffff;stroke:#bb0000;stroke-width:0;paint-order:stroke fill markers"
     d="m 906.31436,66.138233 c -28.52012,2.375418 -47.3714,26.81567 -67.48319,44.306727 -8.59446,12.15877 -24.18613,11.69987 -37.12267,16.03026 -29.41105,8.6419 -60.65291,13.77467 -87.41839,29.3785 -10.67013,7.40993 -20.53884,15.78602 -32.60843,20.8343 -5.54357,7.28709 -10.42702,-0.42404 -16.21385,-3.01714 -27.27775,-14.72335 -58.46324,-3.14667 -87.37757,-1.86567 -39.41306,3.33941 -82.76339,5.22975 -123.61824,-0.26527 -27.64476,-1.72534 -56.31509,1.62732 -81.89133,12.55247 -10.74434,5.00205 -18.6593,15.30711 -24.07591,24.76096 -39.51552,-2.22644 -79.34867,-2.83021 -118.78789,0.92117 -18.11569,1.46245 -35.63106,7.84424 -53.59928,9.32233 -24.75673,-4.3343 -50.27685,0.44554 -72.15722,12.68041 -22.499884,12.4405 -51.055204,22.37296 -60.717381,48.62168 -2.920762,6.80058 -0.645432,15.60842 -8.920243,18.77624 -22.98137,15.62612 -32.7993883,48.9164 -19.338729,73.57061 9.78789,18.6272 32.361626,25.36617 52.145399,22.29284 22.540969,-0.43444 42.839854,11.52785 64.800024,15.03324 5.47783,1.72959 20.4909,2.59301 7.23822,5.59118 -22.33245,9.75094 -48.066984,15.84489 -65.094447,34.36917 -20.87869,23.84281 -11.969969,66.50524 18.371036,77.816 6.734133,3.30505 16.333581,3.99142 22.169421,6.14505 -17.006173,15.29385 -34.531108,35.51825 -30.629076,60.17375 1.869997,16.64909 13.033479,31.9371 28.571016,38.34829 -9.70024,12.08329 -13.122661,28.60514 -9.90264,43.67129 -13.370341,11.98788 -28.130806,22.21164 -42.785098,32.41313 -25.130008,21.47312 -21.392654,67.95196 9.399283,82.31541 19.51754,9.97546 42.000925,3.85716 62.411585,0.46211 -21.19038,21.78481 -17.5218,62.49344 9.82659,77.51266 20.51716,12.4606 45.87894,5.2546 64.46795,-7.31676 6.02721,-1.78955 11.91621,-10.67601 17.823,-8.32557 9.31489,4.85988 20.14329,6.73621 30.55036,5.30842 -6.49804,20.8143 -11.67856,45.92769 3.57102,64.38609 18.48209,24.22736 57.71642,23.47005 77.54198,1.32054 4.66573,-2.8813 9.42608,-15.76341 12.68481,-5.35748 17.35549,24.14231 55.17446,24.95985 75.98124,4.89106 13.33853,-11.81006 25.50627,-24.89531 37.328,-38.20545 25.48771,14.67748 61.51794,3.0172 72.83407,-24.39658 1.20905,-7.35749 6.01406,-7.59851 12.32218,-6.66978 7.03227,0.75579 14.84657,-5.71361 19.22808,2.34959 19.94388,17.77379 48.53038,33.84695 75.37606,21.82252 24.32717,-10.17308 33.93485,-40.91345 23.71443,-64.38315 -6.4229,-32.99264 -9.09227,-66.43954 -10.37488,-99.45197 0.45724,-7.76896 0.39394,-17.47294 4.624,-23.58609 16.78488,-6.82733 35.07567,-16.6434 53.20015,-13.567 -2.25772,27.62858 23.24367,52.90064 50.90831,49.81995 9.38033,-0.41114 18.22809,-4.13174 26.30718,-8.69064 17.39782,10.68444 39.92451,8.61058 58.91149,3.38444 8.09149,-1.1072 15.03587,-11.02942 22.73496,-4.51259 18.44962,5.76133 38.59998,4.85115 57.50642,2.03766 28.15122,-7.00952 47.60637,-32.36866 55.09561,-59.38666 8.45842,-22.77524 33.69033,-36.29489 36.54963,-61.78288 3.0775,-18.05052 -4.8844,-37.04968 -19.2892,-48.16931 0.5224,-28.56873 1.0832,-62.12494 -21.65221,-83.13846 -23.19666,-21.76942 -65.3454,-13.69606 -78.74139,15.26007 -2.8764,3.00239 -5.31882,-11.30607 -8.96916,-14.39428 -16.50288,-29.99763 -65.47649,-36.17444 -86.02058,-7.45099 -6.3322,8.78561 -9.07139,19.82173 -8.70953,30.60811 -26.90055,-16.3613 -60.80252,-22.60435 -91.22843,-13.22003 -6.58303,0.21374 -20.77686,7.62497 -14.96212,-4.43327 2.86979,-10.90873 3.20884,-23.84687 7.58981,-33.53315 32.70448,-11.50955 66.97121,-20.19258 96.2636,-39.57211 6.62029,-6.29317 10.68905,-6.303 12.83446,3.14487 13.88549,29.44213 57.00252,35.56887 79.86628,13.28827 15.98727,-14.98022 19.13969,-37.9207 23.88255,-58.25096 23.59466,24.39126 69.38493,14.87553 83.7745,-15.31309 20.27102,-34.64906 22.23332,-78.41797 6.37822,-115.13817 -4.37904,-20.80767 -2.39263,-43.70494 -14.92825,-62.06273 C 982.16122,139.4965 968.72557,115.04828 954.47202,92.417967 943.80351,76.513989 926.07507,64.732076 906.31436,66.138233 Z"
     id="path6784"
     transform="translate(-10)" />
  <path
     style="fill:#ffffff;stroke:#bb0000;stroke-width:0;paint-order:stroke fill markers"
     d="m 151.29069,791.61797 c -24.45611,0.77883 -45.33549,23.13082 -44.26426,47.6118 -0.44013,23.20347 20.91106,44.03069 44.23584,41.93124 20.75643,-1.83098 43.46902,-15.27154 46.5422,-37.44519 5.2151,-27.01862 -18.95055,-54.30844 -46.51378,-52.09785 z"
     id="path6782"
     transform="translate(-10)" />
  <path
     fill="currentColor"
     d="M867.933 134.831c13.7021 -13.7041 27.8213 -24.916 31.5586 -24.916c7.88965 0 34.0518 51.0762 32.8057 64.3643c-0.416016 5.39844 2.07617 11.627 5.39844 14.5352c4.15234 3.32129 6.22852 12.457 6.22852 25.7441c0 11.2129 3.32129 26.1621 7.05859 33.6367 c9.55176 18.2715 8.7207 46.9238 -2.0752 68.1006c-12.458 24.085 -16.1953 24.916 -15.7803 3.32324c0.416016 -15.7803 -1.66113 -20.7627 -12.873 -31.1445c-11.2109 -10.3809 -13.7031 -11.2119 -17.8555 -6.22852c-2.90723 3.32227 -12.458 8.30469 -21.1777 10.7959 c-14.9492 4.56836 -16.1953 6.22949 -18.2715 24.085c-4.56836 35.2969 -10.3809 58.9668 -17.4414 72.2539v13.2881l-12.873 -30.3125c-4.15234 -20.7627 -9.13477 -33.6357 -15.7793 -40.2803v-9.55078l-23.2539 14.1182 c-22.8379 23.2549 -55.6436 42.3564 -90.1104 51.4922c-47.7539 12.873 -56.8896 19.9326 -60.2109 44.4326c-1.66211 10.7959 -7.05957 38.2031 -11.627 60.2109c-4.9834 22.4248 -7.88965 41.9414 -6.22949 43.6016c1.66113 1.66113 9.13574 0.415039 16.6104 -2.49121 c12.8711 -5.71973 61.6191 -9.30176 74.3301 -14.9482c12.458 -4.9834 47.7539 5.8125 55.2285 17.0254c3.32324 5.39746 12.458 12.457 19.5176 15.3643c12.043 4.9834 13.7031 4.56738 23.2539 -4.9834c10.7969 -10.7969 17.0264 -30.3145 17.4414 -53.5684 c0 -9.13574 1.66016 -12.873 4.56738 -10.7959c9.13477 5.39746 20.3477 37.373 20.3477 58.1357c0 21.1768 0 21.5928 14.5332 24.085c11.2119 2.0752 17.0264 0.829102 26.5762 -6.22949c11.2129 -8.30566 30.3145 -43.1865 34.8818 -63.9492 c1.24609 -6.64453 2.90625 -5.39844 8.30566 7.05957c8.71973 19.5166 9.13574 53.9834 0.830078 70.1777c-6.22949 12.042 -6.22949 12.042 2.90625 9.96582c5.39941 -1.24512 13.2891 0 17.8564 3.73828c7.88965 5.8125 7.47461 6.22852 -9.55078 24.9141 c-10.7959 11.6279 -19.5166 26.1611 -22.4248 38.2041c-4.15234 15.3643 -8.30469 20.7627 -22.0078 29.0674h-31.1445c-16.6094 -16.1953 -21.5918 -22.0088 -29.4824 -12.457c-2.90723 3.32129 -14.1191 11.2109 -25.3301 16.6094h-19.9326v-31.5586l-19.5166 14.1182 c-11.2129 7.47461 -24.0859 16.1943 -29.4834 18.6865c-8.71973 4.56836 -9.13574 4.15332 -6.64453 -5.39844c9.55176 -39.4482 -39.0332 -58.1357 -93.8477 -36.127c-43.1855 17.4414 -43.1855 17.4414 -49.8291 43.1865 c-4.9834 19.5166 -4.9834 32.3896 -0.831055 76.8213c2.49121 29.4834 6.64355 58.5518 9.13574 65.1953c6.22852 16.6104 2.07617 17.4404 -17.8564 3.73828c-17.0254 -12.043 -17.4404 -12.873 -20.7627 -43.1875c-2.07617 -17.0254 -4.56738 -35.7109 -5.81348 -41.5254 c-2.07617 -8.7207 -2.90723 -7.88965 -5.81348 7.88965c-2.07617 10.3818 -9.9668 31.5605 -17.8564 47.7549l-14.1182 29.4824v-27.8223c-0.415039 -14.9482 -2.90723 -36.957 -5.81348 -48.584v-21.1787l-14.1182 38.2041 c-9.9668 38.6191 -33.2207 93.8477 -37.373 89.2793c-1.66113 -1.24609 -0.415039 -17.4404 2.07617 -35.7109c3.73633 -25.3311 3.73633 -35.7119 0 -42.3564c-4.56836 -8.7207 -4.9834 -8.30566 -12.043 7.88965c-12.457 26.9922 -38.6182 63.1191 -66.4404 90.1104 c-28.6533 28.2373 -28.2373 28.6523 -12.8721 -26.9912c8.71875 -30.3145 22.4229 -100.077 20.3477 -102.152c-2.41895 -2.41895 -112.669 156.136 -124.162 156.136c-2.49121 0 -2.90625 -2.07715 -1.24609 -4.9834c1.66211 -2.49219 6.22949 -17.8564 10.3818 -34.0518 c8.32812 -36.0879 21.8418 -65.5361 34.0508 -95.5078c4.15234 -11.6279 22.8389 -47.7549 40.6943 -80.5596c17.8564 -32.8057 32.8057 -60.627 32.8057 -62.2871c0 -3.32324 -103.813 136.202 -106.72 143.262c-2.07715 4.56738 -51.0771 46.0928 -62.7041 52.7383 c-2.90625 1.66016 1.24609 -8.7207 9.55176 -23.6709c7.88965 -14.5332 14.5332 -27.4062 14.5332 -29.0674c0 -1.24512 -15.3643 8.71973 -34.4668 22.0088c-18.6855 13.7031 -48.1689 32.3896 -66.0244 41.5254c-32.8047 17.0254 -46.0938 21.5938 -28.2373 9.55078 c22.4238 -14.9492 78.4824 -64.3652 89.2793 -78.4834l11.2119 -14.5342v2.07715c-5.39746 1.24609 -26.1611 2.90625 -34.0508 4.56738h-14.1182l14.9482 -13.2881c19.1016 -20.3477 75.9912 -105.475 68.1016 -102.568 c-3.32129 1.24609 -17.4395 15.7803 -31.5586 31.9746c-42.3564 49 -80.1436 69.7627 -137.034 75.5771h-26.9922l25.7461 -14.1191c25.3311 -16.6104 88.4492 -73.085 88.4492 -79.7285c0 -1.66113 -11.627 2.07617 -25.7451 8.7207 c-14.5342 7.05859 -30.7295 12.458 -36.542 12.458c-8.30566 0 -4.9834 -2.9082 14.5332 -13.7041c13.2881 -7.05957 34.8809 -23.2539 47.7539 -34.8818l22.8398 -22.0078h-15.3652c-8.71973 3.32227 -21.1777 12.457 -28.2373 12.457h-12.8721 c16.0566 -14.9492 32.1123 -29.8975 48.1689 -44.8467h-29.4834c-16.1943 5.39941 -40.6943 20.7627 -53.9824 22.0078h-6.64453c9.96582 -5.39746 35.2969 -32.8057 56.8906 -51.9072l38.6172 -35.2959l-41.9395 -11.2119 c-23.2549 -6.22852 -46.5088 -11.6279 -51.4922 -11.6279c-19.5166 0 -12.042 -7.88965 20.7627 -22.0078c37.8672 -15.9873 82.4258 -25.5176 108.382 -48.584l16.6104 -15.7803c16.9639 8.22754 33.7158 16.668 50.2451 25.3301l-16.6104 -18.2705 c-17.8555 -19.9326 -8.30469 -17.0254 -115.439 -34.4668c-22.0088 -3.7373 -51.0771 -10.7959 -63.9502 -15.7793c-24.085 -8.7207 -45.6777 -10.7959 -63.5332 -5.81348c-9.13574 2.90723 -8.7207 1.66113 4.56738 -10.7969 c7.88965 -7.47461 23.6699 -19.1016 35.2969 -26.1602l20.3467 -12.458h-40.2793l41.5254 -24.5c36.543 -18.2715 42.7715 -19.9326 53.9834 -15.7803c9.55078 3.32227 19.1016 2.49219 42.7705 -3.7373c35.2969 -9.13477 111.704 -10.7959 157.797 -2.90625 c23.2549 3.7373 31.1445 3.32129 39.4492 -0.831055c13.7031 -7.47461 11.2119 -12.042 -10.3818 -20.7627h-18.2705l18.2705 -11.627c33.2207 -8.30566 45.6787 -9.13574 75.9922 -4.56836c28.6533 4.15332 112.534 0.416016 156.551 -7.05859 c12.873 -2.07617 17.0254 -0.831055 28.6523 9.55078l14.1191 12.458h14.1182c7.89062 -5.39941 18.2715 -19.5176 22.8398 -19.5176c4.98242 0 14.5332 -5.81348 21.5928 -12.457c10.7969 -10.3818 23.6699 -15.3652 67.6865 -26.9922 c30.3135 -7.88965 55.2285 -14.5332 56.0586 -14.5332c0.831055 0 12.873 -11.2129 26.5771 -24.915zM588.881 301.763c-15.7793 0 -41.1094 -0.831055 -56.0586 -2.07715c-14.9492 -1.24414 -31.5586 -0.829102 -37.373 0.831055h1.24609 c6.64355 2.49219 12.873 12.873 14.5332 12.873c1.66211 0 13.7041 6.64355 26.9922 14.5342l23.6699 14.5342l17.8545 -13.7041c9.55176 -7.05859 22.4248 -16.1953 27.8232 -20.3477c9.96582 -6.64355 9.5498 -6.64355 -18.6875 -6.64355z"
     id="path6207" />
</svg>
