<svg xmlns="http://www.w3.org/2000/svg" viewBox="-10 0 1010 1000"><path d="M906 66c-28 2-47 27-67 44-9 13-24 12-37 16-30 9-61 14-88 30-10 7-20 16-32 21-6 7-11-1-17-3-27-15-58-4-87-2-39 3-83 5-124-1a181 181 0 0 0-82 13 59 59 0 0 0-24 25 788 788 0 0 0-118 1c-18 1-36 8-54 9-25-4-50 0-72 13-23 12-51 22-61 48-3 7 0 16-9 19-23 16-33 49-19 74 10 18 32 25 52 22 23 0 43 12 65 15 5 2 20 3 7 6-22 9-48 16-65 34-21 24-12 67 18 78 7 3 17 4 22 6-16 15-34 36-30 60a48 48 0 0 0 29 39 53 53 0 0 0-10 43l-43 33c-25 21-22 68 9 82 20 10 42 4 63 0-22 22-18 63 9 78 21 12 46 5 65-7 6-2 12-11 18-9a51 51 0 0 0 30 6c-6 20-11 46 4 64 18 24 58 23 77 1 5-3 10-16 13-5 17 24 55 25 76 5a446 446 0 0 0 37-38 53 53 0 0 0 73-25c1-7 6-7 12-7 7 1 15-5 20 3 20 18 48 34 75 22 24-11 34-41 24-65-7-33-9-66-11-99 1-8 1-18 5-24 17-7 35-16 53-13a48 48 0 0 0 51 49 59 59 0 0 0 27-8c17 10 40 8 58 3 8-1 15-11 23-4 19 5 39 5 58 2 28-7 47-33 55-60 8-22 33-36 36-61 3-18-5-37-19-49 1-28 1-62-22-83-23-22-65-13-78 15-3 3-6-11-9-14-17-30-66-36-86-7-7 8-9 19-9 30a114 114 0 0 0-91-13c-7 0-21 8-15-4 3-11 3-24 7-34 33-11 67-20 97-40 6-6 10-6 12 4 14 29 57 35 80 13 16-15 19-38 24-58 24 24 69 15 84-16a129 129 0 0 0 6-115c-4-21-2-43-15-62-4-27-17-51-32-74a54 54 0 0 0-48-26Z" style="fill:#fff;stroke:#b00;stroke-width:0;paint-order:stroke fill markers" transform="translate(-10)"/><path d="M151 792a47 47 0 0 0-44 47c0 23 21 44 44 42 21-2 44-15 47-37 5-27-19-55-47-52z" style="fill:#fff;stroke:#b00;stroke-width:0;paint-order:stroke fill markers" transform="translate(-10)"/><path fill="currentColor" d="M868 135c14-14 28-25 32-25 7 0 34 51 32 64 0 6 2 12 6 15s6 12 6 26c0 11 3 26 7 33 9 19 9 47-2 68-13 24-16 25-16 4 1-16-1-21-13-31-11-11-13-12-18-7-3 4-12 9-21 11-15 5-16 6-18 24-5 35-10 59-17 72v14l-13-31c-4-20-9-33-16-40v-9l-23 14a202 202 0 0 1-90 51c-48 13-57 20-61 45l-11 60c-5 22-8 42-7 43 2 2 10 1 17-2 13-6 62-9 74-15 13-5 48 6 56 17a49 49 0 0 0 19 15c12 5 14 5 23-5 11-10 17-30 18-53 0-9 2-13 4-11 10 5 21 37 21 58s0 22 14 24c12 2 17 1 27-6 11-8 30-43 35-64 1-7 3-5 8 7 9 20 9 54 1 70-6 12-6 12 3 10a23 23 0 0 1 18 4c8 6 7 6-10 25a94 94 0 0 0-22 38c-4 15-9 21-22 29h-31c-17-16-22-22-30-12a105 105 0 0 1-25 16h-20v-31l-20 14-29 19c-9 4-9 4-7-6 10-39-39-58-94-36-43 18-43 18-50 43-5 20-5 33 0 77 2 30 6 59 9 65 6 17 2 18-18 4-17-12-18-13-21-43-2-17-4-36-6-42-2-8-3-8-5 8-3 11-10 32-18 48l-14 29v-27c-1-15-3-37-6-49v-21l-14 38c-10 39-34 94-38 89-1-1 0-17 2-35 4-26 4-36 0-43-4-9-5-8-12 8a339 339 0 0 1-66 90c-29 28-28 29-13-27 9-30 22-100 20-102S291 907 279 907c-2 0-3-2-1-5a244 244 0 0 0 10-34c9-36 22-65 34-95 4-12 23-48 41-81a1119 1119 0 0 0 33-62c0-4-104 136-107 143-2 5-51 46-63 53-3 1 2-9 10-24a239 239 0 0 0 15-29l-35 22a592 592 0 0 1-66 42c-33 17-46 21-28 9 22-15 78-64 89-78l11-15v2l-34 5h-14l15-14c19-20 76-105 68-102-3 1-17 16-31 32-43 49-81 70-137 75H62l25-14c26-16 89-73 89-79 0-2-12 2-26 8-15 7-31 13-37 13-8 0-5-3 15-14a286 286 0 0 0 48-35l22-22h-15c-9 3-21 13-28 13h-13l48-45h-29c-16 5-41 21-54 22h-7c10-6 35-33 57-52l39-35-42-12a420 420 0 0 0-52-11c-19 0-12-8 21-22 38-16 82-26 108-49l17-16a1808 1808 0 0 1 50 26l-17-19c-17-20-8-17-115-34a422 422 0 0 1-64-16c-24-9-46-11-63-6-10 3-9 2 4-10 8-8 24-19 35-27l21-12H59l41-24c37-19 43-20 54-16 10 3 19 2 43-4 35-9 112-11 158-3 23 4 31 3 39-1 14-7 11-12-10-20h-19l19-12c33-8 45-9 76-5 28 5 112 1 156-7 13-2 17-1 29 10l14 12h14c8-5 19-19 23-19 5 0 15-6 22-13 10-10 23-15 67-27l56-14a316 316 0 0 0 27-25zM589 302l-56-2c-15-2-32-1-38 0h2c6 3 13 13 14 13a193 193 0 0 1 27 15l24 14 18-13 28-21c10-6 9-6-19-6z"/></svg>