<svg xmlns="http://www.w3.org/2000/svg" width="382.372" height="365.014" version="1.0" viewBox="0 0 286.779 273.76"><path d="M176.151 220.442c-7.507.438-14.404 5.677-16.852 12.786-2.906 7.736-.275 17.188 6.425 22.103 6.299 4.977 15.848 5.412 22.404.685 7.102-4.603 9.94-14.156 7.47-22.1-2.102-7.223-8.82-12.8-16.338-13.412-1.03-.16-2.073-.056-3.109-.062zm56.797-80.429c-8.051-.15-15.234 4.067-20.718 9.65-5.346 1.957-11.398 3.913-14.314 9.308-4.599 6.862-3.035 15.67-3.06 23.474.476 10.123 10.308 17.841 20.196 17.234 7.397.514 15.68 1.391 21.785-3.809 3.74-1.474 8.437-1.546 11.823-4.355 8.752-6.065 11.095-18.376 7.64-28.027 2.634-9.727-3.55-20.862-13.528-23.05-3.134-.963-6.588-.595-9.824-.425zm-86.992 78.843c-6.181 1.332-11.031 5.834-14.068 11.199-6.582 5.038-10.46 13.646-8.005 21.828 1.68 8.474 5.905 17.527 14.692 20.487 10.587 4.214 23.822-1.495 27.397-12.48 1.242-3.857 2.452-7.7 5.15-10.799 5.847-9.682.977-23.271-9.35-27.584-4.901-2.494-10.357-3.577-15.816-2.65zm11.421 39.908c-.513.043 2.695-.77 0 0zM65.197 63.742c-6.203.457-11.962 3.933-15.564 8.957-13.859 4.441-21.612 21.9-15.136 35.052-1.38 8.621-5.197 18.096-.239 26.286 6.265 11.52 23.05 12.788 32.639 4.788 7.964-6.677 17.868-14.135 17.996-25.579.507-4.307 4.566-7.58 5.434-11.983 2.509-9.24-1.398-18.723-5.225-27.018-3.89-7.025-11.927-11.197-19.905-10.503Zm-32.02 106.02c-3.13.309-6.132 1.433-8.804 3.07-3.627 1.578-7.425 2.98-10.484 5.572-2.53 2.043-4.52 4.72-5.883 7.653-7.951 6.456-10.296 18.617-5.603 27.665 3.093 6.217 9.573 10.51 16.477 11.078 6.862.552 13.623-1.28 20.119-3.282 5.478-1.814 11.043-3.866 15.598-7.512 4.776-3.811 7.772-9.851 7.55-15.995-.184-4.341-1.562-8.673-4.047-12.249-1.475-2.128-3.437-3.856-5.545-5.333-.775-.861-1.212-1.997-1.97-2.89-3.831-5.249-10.432-8.376-16.93-7.801l-.478.024zM27.22 185.8c4.514 1.542 8.347 4.934 10.44 9.216a16.914 16.914 0 0 1 1.638 4.945c.335 1.437.331 2.94.305 4.405-.136 1.923-.488 3.85-1.232 5.631-.4.316-1.246.828-1.444.936a63.3 63.3 0 0 1 1.208-.63c.324.037-.421 1.081-.56 1.508-.523 1.068-1.199 2.055-1.924 2.994-5.618-1.725-10.208-6.34-11.96-11.942-1.876-5.78-.624-12.471 3.274-17.145l.255.082zm5.77-11.2c-3.033.368-5.798 2.205-8.897 1.843-7.728.312-14.702 5.95-16.929 13.304-5.365 8.755-2.669 21.66 6.163 27.119 5.743 3.98 13.31 3.762 19.638 1.374 6.303-2.303 13.638-2.976 18.486-8.108 5.753-5.686 6.91-14.958 3.41-22.14-2.706-6.818-8.774-12.56-16.246-13.405-1.885-.349-3.735-.172-5.626.014zM4.65 202.447c-.01-.06-.024-.264 0 0zm.284 1.668c-.313-1.528-.304-1.879 0 0zm188.95 16.96c-9.82 1.317-17.441 11.018-16.01 20.888.276 3.184.774 3.667.71 4.664 1.198 10.207 11.103 17.649 21.176 17.055 9.24.887 19.42-3.486 22.727-12.665 4.45-10.921-1.736-24.726-13.242-27.983-4.948-1.538-10.193-2.142-15.361-1.96zM66.784 23.397c-8.905-.751-18.564 4.135-21.058 13.127-2.096 7.887-1.868 16.266-.312 24.295.58 8.758 5.63 17.675 14.478 20.209 9.636 3.05 20.83-.086 27.103-8.133 6.699-4.838 10.55-12.818 10.395-21.067 1.282-9.163-4.644-18.117-13.28-21.128-4.696-4.463-10.59-7.665-17.327-7.303ZM46.255 39.229c1.672-3.203 3.092-4.744 0 0zM152.47 50.782c-7.666.13-14.097 5.175-18.223 11.251-5.679 1.937-11.703 3.697-17.731 4.137-9.223-4.864-18.446-11.5-29.236-11.745-11.666-.327-21.514 11.265-19.387 22.722.53 6.799 5.302 12.7 4.305 19.667-3.351 5.382-4.794 11.594-6.403 17.601-4.428 6.042-10.93 10.171-17.1 14.221-7.172 6.101-13.981 12.805-19.655 20.317-3.123 6.744-2.877 14.73-1.092 21.812 1.45 3.918 3.48 7.697 5.714 11.114.933 11.708 13.367 20.12 24.62 17.3 7.267-1.679 13.209-6.58 20.293-8.84 12.936-4.914 25.507-10.871 38.177-16.465 1.559-.44 4.378-.737 3.08 1.762-3.397 13.012-5.314 28.171 2.326 40.1 5.23 7.112 10.687 14.716 18.576 19.043 5.02 2.666 11.053 1.47 15.95 4.507 8.757 3.52 20.025 2.81 26.235-5.051 4.858-5.86 4.965-14.001 2.474-20.874 1.525-6.05.806-12.422-1.22-18.314-.542-2.815 3.567-1.88 5.16-1.623 11.807 3.273 24.69-6.882 24.125-19.151.75-1.982-2.358-5.937.966-5.724 6.068-1.227 11.165-5.257 14.98-9.973 8.69 1.05 18.405-3.097 21.449-11.74 2.441-4.908.802-12.88 6.719-15.657 8.182.318 16.585-3.588 20.16-11.239 5.874-10.21 12.33-22.903 7.152-34.7-3.922-8.921-14.302-12.68-23.485-11.342-9.01.909-19.722-.557-26.343 6.995-2.665 2.494-3.483 6.237-5.239 9.223-5.682-.111-11.616.251-17.142-.607-2.308-8.379-9.88-13.808-17.957-15.96-3.156-1.071-6.4-2.083-9.715-2.389-4.866-6.335-11.96-10.397-17.833-15.696-4.227-3.09-9.43-4.94-14.7-4.682zm15.604 27.767c-1.26 1.771-1.308 1.25 0 0zm86.975 34.158c-12.102 1.681-19.854 13.994-20.904 25.39-1.052 11.838 10.146 22.497 21.904 21.015 7.742-1.253 15.781-3.41 22.184-8.1 10.178-7.685 9.742-24.811-.796-31.991-6.405-4.15-14.736-6.74-22.388-6.314zm-69.968 61.689c-12.073-.033-21.811 12.341-19.167 24.07.248 3.532 3.456 6.57 1.286 9.995-3.805 17.218 15.751 35.046 32.471 28.257 3.27-.972 5.923-3.923 8.394-5.562 9.868 4.423 20.542 11.634 31.77 7.822 9.816-3.338 15.396-15.15 11.542-24.808-1.608-5.28-6.383-9.594-5.657-15.406-1.291-9.624-10.207-16.487-19.625-16.994-6.69-.715-13.525-.876-20.164.37-6.257-4.025-13.134-8.075-20.85-7.744zm-67.01-19.566c-10.584.742-19.143 7.87-28.892 11.33-9.253 4.365-19.201 7.1-28.37 11.604-6.2 3.323-9.503 10.032-10.462 16.718-3.815 9.966-12.01 19.684-8.942 30.977 2.756 11.053 15.695 17.253 26.215 13.369 5.658-1.669 11.14-5.031 16.305-7.093 5.15 12.395 20.839 20.007 33.372 13.928 7.97 2.62 17.42 4.922 24.863-.393 10.108-6.02 11.397-21.114 3.66-29.577-4.746-5.302-11.165-10.75-10.603-18.617-.774-7.129 2.207-13.73 3.45-20.573 1.471-11.765-8.794-22.48-20.597-21.673zm-87.454-41.451c-10.435.482-21.322 7.5-22.7 18.495-2.113 10.648 5.207 21.658 15.705 24.177 8.94 3.473 20.393 2.384 26.474-5.754 8.372-10.494 3.134-26.57-7.2-33.634a20.901 20.901 0 0 0-12.28-3.284zM146.338.013c-11.1-.412-21.057 9.139-21.043 20.255-1.63 10.095 5.854 20.689 16.197 21.656 8.254.849 16.83-3.551 21.887-10.02 8.059-10.34 2.497-27.407-10.168-30.907-2.202-.745-4.555-1.02-6.873-.984zM124.08 21.478c-3.129-.088-6.128 1.441-8.956 2.109-12.01-3.597-26.769 2-31.088 14.316-1.637 5.03-5.453 9.372-5.34 14.985-1.013 9.909 5.992 19.33 15.445 21.99 7.723 2.762 13.594 10.007 22.284 9.938 8.035.112 15.515-3.457 23.316-4.892 9.228-2.892 14.179-12.51 14.493-21.697 1.443-6.682-.167-13.797-4.595-18.948-3.44-8.11-10.958-14.542-19.327-17.15a21.58 21.58 0 0 0-6.232-.651zm28.414-.634c-11.962.99-20.14 14.095-16.88 25.39 2.901 10.836 13.292 16.873 20.901 24.216 10.817 9.318 22.55 18.249 36.607 21.914 2.87 1.15 1.883 6.208 4.63 8.24 4.558 7 13.438 8.31 21.156 7.997 8.175.468 17.827 1.457 23.97-5.21 7.359-6.622 7.637-18.63 1.6-26.228-2.051-2.38-3.317-4.763-.959-7.408 4.071-7.807 8.616-17.166 4.24-25.846-4.311-10.125-17.197-14.058-26.97-9.737-4.226 1.223-8.33 4.28-12.308 5.2-2.893-2.425-3.585-6.877-6.663-9.398-6.966-7.775-18.936-9.955-28.482-6.093-6.862-1.323-13.804-3.336-20.842-3.037z" style="fill:#fff;stroke-width:.216418"/><path d="M143.016 21.761c-1.6 5-3.3 9-3.7 9-.5 0-2.3-.8-4.1-1.7-3.9-2-10.7-3.4-10.7-2.1 0 .4-1.9-.1-4.1-1.3-3.4-1.7-4.3-1.8-5-.7-.5.7-.9 1.6-.9 1.9 0 .3-3-.5-6.7-1.7-6.3-2.2-6.9-2.2-8-.7-2.2 2.9-1.4 4.2 3 5.3 2.3.6 5 1.5 6 2.1 1.5.8 2.3.6 3.8-.7 1.9-1.7 2.2-1.7 7.4 1.2 5.1 2.7 6.8 4.4 4.5 4.4-.5 0-.9.3-.9.7.5 2.9-.5 4-4.7 5.1-4 1.1-4.9 1-6.4-.3-2.3-2.1-8.3-1.9-10.3.3-1 1-1.7 3-1.7 4.5 0 3.8-4.2 6.5-7.9 5-14.8-6.2-20.2-9-20.8-10.8-.9-2.9-7.4-10.6-8.4-10-.4.3-1.1 2-1.4 3.8-.5 2.7-1.1 3.2-3.6 3.3-3.9.2-4.6 1-2.6 3.2 1 1 1.4 2.1 1.1 2.5-.4.3.5 2.5 1.8 4.9 1.9 3.2 2.7 6.3 3.1 12.3.3 4.4 1.4 10.5 2.5 13.6l2 5.6-2.9 4.6c-2.4 3.9-3.4 4.7-5.9 4.7-6.2 0-9.4 7.9-5 12.5 1.7 1.8 1.9 2.6 1 5.2-.6 1.6-1.6 6.3-2.3 10.4l-1.2 7.4-15 5.1-14.9 5.1 14.9 5c18 6 18.4 6.5 9.8 13.9-3.2 2.8-6.9 5.8-8.3 6.7-1.3.9-1.9 1.7-1.1 1.7.8 0 .3 1.2-1.4 3.1-2.3 2.9-2.4 3.3-1 4.9.8.9 1.5 2.7 1.5 3.9v2.3l3.8-2.3c3.1-2 3.5-2 2.2-.4-1.3 1.7-1.3 1.8.1 1.3.9-.4 2.1-.2 2.7.4 1.7 1.7.1 4.7-3.8 7.1-3.6 2.1-4 2.6-4 4.6 0 .5-2.5 1.9-5.5 3.1-5 2-5.4 2.4-4.9 4.9.5 2.4.2 2.9-2.8 3.7-2.5.7-3.4 1.6-3.6 3.6-.2 1.5.3 2.8 1.2 3.1 3.6 1.4 23.6-4.9 23.6-7.5 0-.5-.5-1.8-1-2.9-.9-1.6-.7-2.1 1.7-3 1.5-.6 3.7-1.3 4.8-1.4 2.7-.4 13.4-5.4 11.7-5.4-.7-.1-1.1-.5-.8-1 .3-.5-3.6.7-8.7 2.6-12.4 4.6-23.9 8.4-24.4 8-.2-.3 2.2-1.6 5.4-3.1 7-3.2 14.7-8 11.6-7.1-4.4 1.2-2.2-.6 4-3.5 5.5-2.6 5.8-2.8 2.5-2.3-2.1.3-3.8.3-3.8 0 0-.8 7.3-4.9 20.6-11.6 13.8-6.9 26.5-15.7 45.4-31.4 19-15.8 19-15.9 3.5-5.4-7.7 5.2-19.4 12.6-26 16.4-31.5 18.3-37.2 21.7-40.3 24-1.8 1.4-3.6 2.3-3.9 2-.3-.3.4-1.2 1.6-1.9 2.8-1.7 2.7-2.8-.2-2.1-1.8.5-2 .3-.9-.8.6-.7 1.2-1.9 1.2-2.7 0-.9-1.3-.4-3.8 1.5-6.3 5-6.9 4.8-1.7-.6 2.7-2.8 4.4-5.1 3.8-5.1-.6 0-1.6.7-2.4 1.6-.7.9-3.3 2.9-5.8 4.6l-4.6 3.1 4.4-4.6c2.4-2.4 4.4-4.8 4.5-5.2 0-.4 3.4-4 7.4-7.9 4-3.9 9.9-10.2 13-14 3.1-3.8 7.6-9.2 10-12 4.4-5.2 7.8-10.4 5.1-7.9-.7.7-2.1 1.3-3 1.3-.9 0-2.4 1.1-3.3 2.5-.9 1.4-2.2 2.5-2.9 2.5-.7 0-4.1 2.1-7.6 4.6-3.4 2.6-6.5 4.4-6.8 4-.4-.4 1.5-3 4.3-5.8 2.9-3.1 3.6-4.1 1.7-2.5-1.8 1.4-4.3 2.9-5.5 3.2-1.3.4-3.1 1.4-4.1 2.3-.9.8-2 1.3-2.3 1-.3-.3 4.3-5 10.3-10.3 10.1-9.1 18.2-17.5 16.8-17.5-.3 0-2.9 1.6-5.7 3.5-2.9 1.9-5.4 3.3-5.6 3.1-.2-.3 2-3.9 4.8-8.1 4.6-6.9 5.1-7.9 4.1-10.3-3.4-8.7-8.3-27.7-8.8-34.2-.3-4.1-1.2-8.6-2-9.9-1.4-2.2-1.4-2.4.1-1.8 2.5 1 1.9-1.1-1-3.8-1.8-1.6-2.2-2.5-1.2-2.5.7 0 1.9.5 2.6 1.2.9.9 1.2.7 1.2-1.3 0-1.3.4-3 .9-3.8.7-1.1 1.1-.4 1.7 2.5.7 3.6.8 3.7 1.4 1.4.7-2.6.9-2.4 2.5 2.6.3.8 2.6 2.4 5.2 3.6 2.7 1.1 7.2 3.1 10.1 4.4 2.9 1.4 9.4 4.1 14.5 6 5.1 1.9 10.9 4.9 13.1 6.6l3.9 3.1 6.7-2.1c3.6-1.2 7.8-2.2 9.2-2.2 2 0 2.6-.5 2.6-2.3.1-1.2.4-3.6.7-5.4.6-2.8.4-3.3-2.6-4.9-2.9-1.4-3.1-1.8-1.6-2.3 2.5-.9 2-2.2-1.9-4.9-5-3.4-2.7-7 2.7-4.2 1 .6 1.9.9 1.9.6 0-.7-8.7-6.6-14.5-9.8-7.3-4-3.7-3.4 4.6.8 6.9 3.4 10.3 3.9 6.3.9-3.4-2.6.5-1.6 7.5 1.9 7.2 3.7 19.3 12.9 25.1 19.1 3.8 4.2 19.9 16.5 24.5 18.8 1.7.8 7.6 2.9 13.2 4.6 11.3 3.5 12.6 4.6 11.6 10.5l-.6 3.6h5.3c2.9 0 10 .8 15.9 1.7 11.4 1.8 16.8 2 28 .9 7.1-.7 7.1-.7 7.1 1.7 0 3.5-2.5 10-5.4 14.4-1.5 2.1-2.6 5-2.6 6.6 0 3.4-4.4 16.8-6.6 20.2-.9 1.4-3 2.7-4.8 3-2.3.5-3.9 1.8-5.8 4.8-3.2 5-10.5 12.2-9.3 9.2.4-1.1.8-4.3.8-7v-5l-4.7-.1c-2.5-.1-5.7-.5-7-.8-2-.5-2.9.1-5.6 4.4-3.2 5-8.3 10-10.1 10-.6 0-.6-.6 0-1.8.9-1.6.6-11.6-.4-13.2-.2-.4-2.3-1-4.5-1.4-2.2-.3-7-1.6-10.5-2.8-6.3-2-6.6-2-8.5-.3-2.5 2.3-13.5 18.3-12.9 18.8.2.2 4.1 2.3 8.7 4.7 6.6 3.4 8.9 5.2 11.4 8.9 1.7 2.5 4.4 6 6.1 7.8 3.6 3.8 5.3 3.3 9.3-2.7 1.5-2.2 3-4 3.3-4 .3 0 .6 2.7.6 6 0 6.9.5 7.5 7.5 8.4 7.3 1 9.4-.3 12.1-7.3 1.3-3.4 2.8-6 3.4-5.8.5.2 1.2 4.4 1.5 9.3.3 4.9.8 9.3 1 9.9.8 1.9-2.2 8.5-4.8 10.5-2.1 1.7-3.4 1.9-7 1.4-6.9-1-13.5-.8-17.5.7-3.5 1.2-3.9 1.1-7.9-1.8-4.7-3.3-9.1-5.7-12.5-6.7-3.5-1.1-3 2.9 1.3 9.4 2 3 3.8 6.7 4 8.3l.3 2.8-3-2.2c-1.7-1.2-4.9-4.4-7.1-7.3-2.2-2.8-4.9-5.4-6-5.9-1.9-.7-2-.4-1.4 2.4.8 4.1 4.7 9.2 12.4 16.3 5.6 5.1 6.1 5.8 3.6 5.2-2.7-.6-2.5-.3 2.1 3.8 4.5 4.1 6.3 5.2 11.8 7 3 1 .9 2.6-2.6 2-3.2-.6-3.2-.6-1 1 1.3 1 4.4 2.6 6.9 3.7 5.7 2.6 4.7 4.9-1.1 2.5-2.1-.9-4.8-1.6-6.2-1.6-1.3 0-4-.7-6-1.5s-3.9-1.3-4.2-1c-.3.3.5.8 1.7 1.2 2.4.6 3 2.3.8 2.3-.7 0-3.1-.6-5.2-1.4-3.8-1.3-10-1.1-10.9.4-.3.4 2.4 1.6 6 2.5 3.6 1 6.3 2 6.1 2.3-.8.7-16.2-1.7-24.6-3.8-11.8-3.1-23.7-7.5-28-10.5-6.2-4.3-12.9-12.1-15.8-18.3-4.7-10.3-4.2-26.2 1.3-38 1.3-2.9 1.9-5 1.2-4.6-.6.4-3.2 2.1-5.6 3.7-10.9 7.4-49.8 22.8-63.6 25.2-4.8.8-3.7-.7 1.8-2.5 2-.6 4.2-2 4.7-3s2.6-2.4 4.6-3c4.7-1.6 3.5-2.7-1.3-1.2-2.1.7-5.8 1.7-8.1 2.2-2.9.8-4.2 1.6-3.9 2.4.3.8-.5 1.8-1.9 2.5-1.8.8-2.4 1.8-2.2 3.4.3 1.9.8 2.2 3.8 1.9 3.1-.2 14-3.1 18.5-4.9 1.1-.4-.9 4.5-5.4 13.6-3.9 7.7-7.1 14.3-7.1 14.6 0 .3 6.6-2.8 14.6-6.8l14.7-7.4 7.3 5.1c6.1 4.1 7.4 5.5 7.4 7.6 0 4.7 6 8.1 10.2 5.9 1.3-.7 2.6-1.6 2.9-2 .8-1.3 16.7 3 20.4 5.4 2.8 1.8 3.8 3.9 7.7 15.6l4.5 13.6 3.3-10.3c1.9-5.6 3.9-10.2 4.5-10.2.5 0 3.3.7 6 1.6 5.7 1.8 28.2 5.3 29 4.6.3-.3.5-1.3.5-2.3 0-1.1.8-1.7 2.3-1.6 1.2 0 2.9-.3 3.8-.7 1.3-.6 1.5-.1 1.1 2.3-.4 2.7-.1 3 2.9 3.6 1.9.3 5.5.9 8.1 1.4 4 .7 5 .5 6.4-1.1 1.6-1.7 1.6-1.9 0-3.1-1.6-1.2-1.6-1.4.3-3.1 2.4-2.2 2.7-3.6.9-3.6-.7 0-2.9-.5-4.9-1-3.2-.9-3.5-1.3-3.1-3.9.3-2.5 0-3-3-4-1.8-.6-4.8-2-6.7-3.2-2.6-1.6-3.1-2.3-2.1-2.9 1.2-.7 1.1-1.3-.5-3-2.1-2.3-2.2-2.1 5.7-7.3l5.6-3.8 14.2 7.1c7.8 3.9 14.4 6.9 14.7 6.6.3-.2-1.8-4.8-4.7-10.1-2.9-5.3-5-9.7-4.9-9.9.2-.1 2-.7 3.9-1.2 2.8-.7 4.1-2 6.2-5.9 2.8-5.3 3.5-9 1.8-10-1.5-.9-1.1-6.7.5-8.9 1.9-2.5 1.9-7.6.2-10.1-1.2-1.5-1.1-3 .5-9.4 2.9-11.4 4.7-13 20.3-18.1l13-4.3-5.5-1.9-6.6-2.2c-.8-.3-.6-2.1.7-5.8 1-2.9 1.8-6.8 1.9-8.7 0-2 1-4.7 2.4-6.6 3.1-4 6.9-15 6.1-17.6-1-3.1-4.2-4.2-8.9-3.1-6.2 1.6-14.2 1.7-23.6.2l-8.5-1.3-4.7-6.9-4.8-6.9 6.5-12.9c3.6-7.2 6.5-13.2 6.5-13.5 0-.3-5.9 2.4-13 6l-13.1 6.6-8.4-5.7c-6.4-4.2-8.5-6.1-8.5-7.8 0-6-7.1-9.4-12-5.7-2.4 1.7-3.3 1.9-5.9 1-1.7-.6-6.3-1.6-10.3-2.3l-7.2-1.2-4.3-12.8c-2.3-7.1-4.4-13-4.6-13.2-.2-.2-1.6 3.7-3.2 8.6zm-33.5 6.7c1.4.8 1.7 1.2.8.9-.9-.3-3.5-1-5.7-1.6-2.3-.6-4.1-1.3-4.1-1.6 0-.9 6.3.7 9 2.3zm-68 168.9c0 1.2-10.9 5.3-16 6-7.5.9-5.7-.5 4.8-3.8 9-2.8 11.2-3.2 11.2-2.2zm169.2 49.2c1 1 .1 1.1-3.7.5-8.5-1.1-10.7-2.3-3.7-2 3.4.2 6.8.9 7.4 1.5z"/><path d="M168.016 84.361c-1.1.3-3.9 1-6.3 1.6l-4.3 1.1 3.3 1.9c1.8 1.1 4.3 2.9 5.5 4l2.2 2.1 5-2.2c2.7-1.1 5.9-2.1 7.1-2.1 4.9 0-1.3-5.6-7-6.4-1.9-.2-4.4-.2-5.5 0z"/></svg>