<svg xmlns="http://www.w3.org/2000/svg" viewBox="-10 0 1010 1000"><path d="M906.314 66.138c-28.52 2.376-47.371 26.816-67.483 44.307-8.594 12.159-24.186 11.7-37.123 16.03-29.41 8.642-60.652 13.775-87.418 29.379-10.67 7.41-20.539 15.786-32.608 20.834-5.544 7.287-10.427-.424-16.214-3.017-27.278-14.723-58.463-3.147-87.378-1.866-39.413 3.34-82.763 5.23-123.618-.265-27.645-1.725-56.315 1.627-81.891 12.552-10.745 5.002-18.66 15.308-24.076 24.761-39.516-2.226-79.349-2.83-118.788.922-18.116 1.462-35.631 7.844-53.6 9.322-24.756-4.334-50.276.445-72.157 12.68-22.5 12.44-51.055 22.373-60.717 48.622-2.92 6.8-.645 15.608-8.92 18.776-22.982 15.626-32.8 48.917-19.339 73.57 9.788 18.628 32.362 25.367 52.145 22.294 22.541-.435 42.84 11.528 64.8 15.033 5.478 1.73 20.491 2.593 7.239 5.591-22.333 9.751-48.067 15.845-65.095 34.37-20.878 23.842-11.97 66.504 18.371 77.815 6.734 3.305 16.334 3.992 22.17 6.145-17.006 15.294-34.531 35.519-30.63 60.174 1.87 16.65 13.034 31.937 28.572 38.348-9.7 12.084-13.123 28.605-9.903 43.672-13.37 11.988-28.13 22.211-42.785 32.413-25.13 21.473-21.393 67.952 9.4 82.315 19.517 9.976 42 3.857 62.41.462-21.19 21.785-17.521 62.494 9.827 77.513 20.518 12.46 45.88 5.255 64.468-7.317 6.028-1.79 11.917-10.676 17.823-8.325 9.315 4.86 20.144 6.736 30.55 5.308-6.497 20.814-11.678 45.928 3.572 64.386 18.482 24.227 57.716 23.47 77.542 1.32 4.665-2.88 9.426-15.763 12.684-5.357 17.356 24.142 55.175 24.96 75.982 4.891 13.338-11.81 25.506-24.895 37.328-38.205 25.487 14.677 61.518 3.017 72.834-24.397 1.209-7.357 6.014-7.598 12.322-6.67 7.032.756 14.847-5.713 19.228 2.35 19.944 17.774 48.53 33.847 75.376 21.823 24.327-10.174 33.935-40.914 23.715-64.384-6.423-32.992-9.093-66.44-10.375-99.452.457-7.769.394-17.473 4.624-23.586 16.785-6.827 35.075-16.643 53.2-13.567-2.258 27.629 23.243 52.901 50.908 49.82 9.38-.41 18.228-4.131 26.307-8.69 17.398 10.684 39.925 8.61 58.912 3.384 8.091-1.107 15.036-11.03 22.735-4.513 18.45 5.762 38.6 4.852 57.506 2.038 28.151-7.01 47.607-32.369 55.096-59.387 8.458-22.775 33.69-36.294 36.55-61.782 3.077-18.05-4.885-37.05-19.29-48.17.523-28.568 1.083-62.125-21.652-83.138-23.197-21.77-65.345-13.696-78.741 15.26-2.877 3.002-5.32-11.306-8.97-14.394-16.502-29.998-65.476-36.175-86.02-7.451-6.332 8.785-9.072 19.821-8.71 30.608-26.9-16.362-60.802-22.605-91.228-13.22-6.583.213-20.777 7.625-14.962-4.434 2.87-10.908 3.209-23.846 7.59-33.533 32.704-11.51 66.97-20.192 96.263-39.572 6.62-6.293 10.69-6.303 12.835 3.145 13.885 29.442 57.002 35.569 79.866 13.288 15.987-14.98 19.14-37.92 23.882-58.25 23.595 24.39 69.385 14.875 83.775-15.314 20.271-34.649 22.233-78.418 6.378-115.138-4.379-20.808-2.392-43.705-14.928-62.063-4.319-26.706-17.754-51.154-32.008-73.784-10.668-15.904-28.397-27.686-48.158-26.28Z" style="fill:#fff;stroke:#b00;stroke-width:0;paint-order:stroke fill markers" transform="translate(-10)"/><path d="M151.29 791.618c-24.455.779-45.335 23.13-44.264 47.612-.44 23.203 20.911 44.03 44.236 41.931 20.757-1.831 43.47-15.272 46.542-37.445 5.216-27.019-18.95-54.309-46.513-52.098z" style="fill:#fff;stroke:#b00;stroke-width:0;paint-order:stroke fill markers" transform="translate(-10)"/><path fill="currentColor" d="M867.933 134.831c13.702-13.704 27.821-24.916 31.559-24.916 7.89 0 34.051 51.076 32.805 64.364-.416 5.399 2.076 11.627 5.399 14.535 4.152 3.322 6.228 12.457 6.228 25.745 0 11.212 3.322 26.162 7.059 33.636 9.552 18.272 8.72 46.924-2.075 68.1-12.458 24.086-16.196 24.917-15.78 3.324.415-15.78-1.662-20.763-12.874-31.144-11.21-10.381-13.703-11.212-17.855-6.229-2.907 3.322-12.458 8.305-21.178 10.796-14.95 4.568-16.195 6.23-18.271 24.085-4.569 35.297-10.381 58.967-17.442 72.254v13.288l-12.873-30.312c-4.152-20.763-9.135-33.636-15.78-40.28v-9.552l-23.253 14.119c-22.838 23.255-55.644 42.356-90.11 51.492-47.754 12.873-56.89 19.932-60.211 44.432-1.662 10.796-7.06 38.204-11.627 60.211-4.984 22.425-7.89 41.942-6.23 43.602 1.661 1.661 9.136.415 16.61-2.491 12.872-5.72 61.62-9.302 74.33-14.948 12.459-4.984 47.755 5.812 55.23 17.025 3.322 5.397 12.457 12.457 19.517 15.364 12.043 4.984 13.703 4.568 23.254-4.983 10.797-10.797 17.026-30.315 17.441-53.569 0-9.135 1.66-12.873 4.568-10.795 9.134 5.397 20.347 37.373 20.347 58.135 0 21.177 0 21.593 14.533 24.085 11.212 2.075 17.027.83 26.577-6.23 11.213-8.305 30.314-43.186 34.881-63.948 1.247-6.645 2.907-5.399 8.306 7.06 8.72 19.516 9.136 53.983.83 70.177-6.23 12.042-6.23 12.042 2.906 9.966 5.4-1.245 13.29 0 17.857 3.738 7.89 5.812 7.474 6.228-9.551 24.914-10.796 11.628-19.517 26.161-22.425 38.204-4.152 15.364-8.304 20.763-22.008 29.068h-31.144c-16.61-16.196-21.592-22.01-29.482-12.457-2.908 3.32-14.12 11.21-25.33 16.609h-19.933v-31.559l-19.517 14.119c-11.213 7.474-24.086 16.194-29.483 18.686-8.72 4.568-9.136 4.153-6.645-5.398 9.552-39.449-39.033-58.136-93.847-36.127-43.186 17.441-43.186 17.441-49.83 43.186-4.983 19.517-4.983 32.39-.83 76.821 2.49 29.484 6.643 58.552 9.135 65.196 6.229 16.61 2.076 17.44-17.856 3.738-17.026-12.043-17.44-12.873-20.763-43.188-2.076-17.025-4.567-35.71-5.813-41.525-2.077-8.72-2.908-7.89-5.814 7.89-2.076 10.381-9.967 31.56-17.856 47.755L529.5 830.38v-27.822c-.415-14.949-2.908-36.957-5.814-48.584v-21.179L509.57 771c-9.967 38.62-33.22 93.848-37.373 89.28-1.661-1.247-.415-17.441 2.076-35.712 3.736-25.33 3.736-35.711 0-42.356-4.568-8.72-4.983-8.306-12.043 7.89-12.457 26.992-38.618 63.119-66.44 90.11-28.654 28.237-28.238 28.652-12.872-26.991 8.718-30.315 22.422-100.077 20.347-102.152-2.419-2.419-112.669 156.136-124.162 156.136-2.491 0-2.906-2.077-1.246-4.983 1.662-2.493 6.23-17.857 10.382-34.052 8.328-36.088 21.842-65.536 34.05-95.508 4.153-11.628 22.84-47.755 40.695-80.56 17.856-32.805 32.806-60.627 32.806-62.287 0-3.323-103.813 136.202-106.72 143.262-2.077 4.568-51.077 46.093-62.704 52.739-2.907 1.66 1.246-8.721 9.551-23.671 7.89-14.534 14.534-27.407 14.534-29.068 0-1.245-15.365 8.72-34.467 22.009-18.686 13.703-48.17 32.39-66.025 41.525-32.804 17.026-46.093 21.594-28.237 9.551 22.424-14.949 78.483-64.365 89.28-78.483l11.211-14.534v2.077c-5.397 1.246-26.16 2.906-34.05 4.567h-14.119l14.949-13.288c19.101-20.348 75.99-105.475 68.101-102.568-3.321 1.246-17.44 15.78-31.558 31.975-42.357 49-80.144 69.762-137.034 75.577H61.508l25.746-14.12c25.332-16.61 88.45-73.084 88.45-79.728 0-1.661-11.627 2.076-25.745 8.72-14.535 7.06-30.73 12.459-36.542 12.459-8.306 0-4.984-2.908 14.533-13.704 13.288-7.06 34.88-23.254 47.754-34.882l22.84-22.008h-15.366c-8.72 3.322-21.177 12.457-28.237 12.457h-12.872l48.169-44.847h-29.484c-16.194 5.4-40.694 20.763-53.982 22.008h-6.645c9.966-5.397 35.297-32.805 56.891-51.907l38.617-35.296-41.94-11.212c-23.254-6.228-46.508-11.628-51.492-11.628-19.516 0-12.042-7.89 20.763-22.007 37.867-15.988 82.426-25.518 108.382-48.584l16.61-15.78a1808.273 1808.273 0 0 1 50.246 25.33l-16.61-18.271c-17.856-19.933-8.305-17.026-115.44-34.467-22.009-3.737-51.077-10.796-63.95-15.78-24.085-8.72-45.678-10.795-63.533-5.813-9.136 2.908-8.72 1.661 4.567-10.797 7.89-7.474 23.67-19.101 35.297-26.16l20.347-12.458h-40.28l41.526-24.5c36.543-18.271 42.771-19.932 53.983-15.78 9.551 3.322 19.102 2.492 42.77-3.737 35.298-9.135 111.705-10.796 157.798-2.907 23.255 3.738 31.144 3.322 39.45-.83 13.702-7.475 11.211-12.043-10.383-20.763h-18.27l18.27-11.627c33.221-8.306 45.679-9.136 75.992-4.569 28.654 4.154 112.534.416 156.551-7.058 12.873-2.077 17.026-.831 28.653 9.55l14.119 12.458h14.118c7.89-5.399 18.272-19.517 22.84-19.517 4.982 0 14.533-5.814 21.593-12.457 10.797-10.382 23.67-15.365 67.686-26.992 30.314-7.89 55.229-14.534 56.059-14.534.83 0 12.873-11.212 26.577-24.915zM588.881 301.763c-15.78 0-41.11-.831-56.059-2.077-14.949-1.244-31.558-.83-37.373.83h1.246c6.644 2.493 12.873 12.874 14.534 12.874 1.662 0 13.704 6.643 26.992 14.534l23.67 14.534 17.854-13.704c9.552-7.058 22.425-16.195 27.823-20.347 9.966-6.644 9.55-6.644-18.687-6.644z"/></svg>