<svg xmlns="http://www.w3.org/2000/svg" width="775" height="763" version="1.0" viewBox="0 0 582 572"><path d="M194 288c-11 1-20 8-22 19-4 15 6 34 23 35 12 2 23-9 22-21-1-10 0-21-7-28a20 20 0 0 0-16-5zm10 56c-23 0-41 24-35 46 4 13 20 23 33 16 7-3 12-10 20-10 12-3 19-19 13-30-6-12-17-23-31-22zm18 33c-18 1-37 16-37 36a25 25 0 0 0 15 25c12 9 28 3 38-6 14-11 17-34 4-47a34 34 0 0 0-19-8zm18 9c1 1-2-2 0 0zm2 3c1 3-1-2 0 0zm1 5c1 3 0-1 0 0zm-49 36s-1 0 0 0zm121-46c-12 1-21 13-19 24 0 19 17 38 36 37 6-1 11-5 15-8 13-6 20-25 10-36-5-6-13-6-20-7-6-6-13-11-22-10zm32-30a37 37 0 0 0-34 26c-3 15 10 32 26 33 19 2 40-15 39-35-2-15-18-24-31-24zm126-73c-17 0-30 16-30 32-1 17 10 36 27 37 18 1 32-15 32-32 2-15-7-33-23-36l-6-1zm-46-72c-7 0-13 4-18 8-5 3-6 9-11 10a45 45 0 0 0-19 27c-2 10 4 19 10 26 10 12 27 17 41 10 7-3 13-9 15-17 6-1 10-6 15-9 11-12 7-31-3-42a40 40 0 0 0-30-13zm-45 59c0-1 0-1 0 0zm-47-129c-15 0-25 16-26 30-1 16 10 34 27 35 15 1 25-15 26-28 2-14-4-30-17-36a25 25 0 0 0-10-1zm-87 0c-11 5-19 17-17 30 1 10 3 22 10 30 8 9 21 5 32 6 12 0 20-11 25-21 4-12 2-29-10-35-6-9-18-11-28-11a47 47 0 0 0-12 1zm-26 0c-11 0-23 1-29 11-10 12-9 31 0 44 4 8 13 12 22 11 9 0 19 0 25-8a36 36 0 0 0 9-27c0-13-8-26-20-30l-7-1zm-92 80c-9 0-16 6-22 11-13 8-15 30-2 38 10 5 21 2 32 3a20 20 0 0 0 19-21c0-15-11-31-27-31zm-29-34c-18 1-35 17-34 36a27 27 0 0 0 15 26c19 12 48 0 52-23a26 26 0 0 0-4-22c-5-10-18-17-29-17zM333 1a35 35 0 0 0-20 21c-22 0-43-1-65 1-62 9-123 37-167 82-13 13-28 27-30 46v9c-18 5-26 23-32 38A263 263 0 0 0 0 302c0 4 4 8 6 12-8 13-3 29 0 43a284 284 0 0 0 108 162c47 34 105 55 163 53 4 0 8-3 13-1 13 1 27-2 40-4a280 280 0 0 0 127-60c23-23 46-46 62-74a281 281 0 0 0 34-96c1-6 0-12-2-17 8-15 4-32 4-47 0-4-4-11 2-11a33 33 0 0 0 22-32c2-57 2-114 2-171 0-12 2-25-2-36-6-16-23-23-38-22L338 0l-5 1zm-64 153c13 3 17 21 7 30-8 10-25 7-29-6-5-13 8-27 22-24zm-51 0c6 1 11 7 13 12 0 6 2 12-3 16-3 6-11 11-17 5a15 15 0 0 1-6-12c-2-5 0-10 3-14 1-4 6-7 10-7zm121 4a19 19 0 0 1 2 25c-3 5-8 3-10-2a19 19 0 0 1 1-22c3-3 4-5 7-1zm-237 46c10 0 19 12 13 21-6 10-22 12-30 2 0-5-1-12 3-16 3-4 9-7 14-7zm338 26c5 5 9 10 8 18 0 7-10 9-16 8-1 3 0 9-3 12-6 8-20 9-26 1-8-6-8-21 2-25 3-3 9-3 12-2-1-6 1-14 8-14 5-2 10 1 15 2zm-313 5c8 1 12 10 12 18h-32c-1-10 10-19 20-18zm296 9c1 0 0 0 0 0zm-5 1s0-1 0 0zm1 2s-1-1 0 0zm9 1s-1 0 0 0zm-8 1zm9 1zm-7 2zm8 0c0 1 0 0 0 0zm1 2c0 1 0 0 0 0zm-5 0zm5 2c0 1 0 0 0 0zm-1 0s-1 0 0 0zm45 43c7 3 11 12 9 20-1 6-6 12-12 14-12-5-15-23-5-31 2-2 5-5 8-3zm-274 32c-4-1-9-5-8-8-4-4-4-11-1-16 3-7 6-6 5 1l4 23zm7 31c10 3 15 18 6 25-7 8-21 8-27-1a18 18 0 0 1 21-24zm142 11c5 1 13 4 9 10-3 12-20 16-29 7-1-11 10-19 20-17zm-125 23c4 0 7 4 7 8 2 14-15 25-26 18-8-12 5-28 19-26zm119 17c-1 5-5 11-10 13 0-8-1 2-5 0-13-1-20-18-12-29l27 15zm-30 12c5 1 12 5 13 10-2 4-9-3-13-3-2-2-12-3-8-6l8-1z" style="fill:#fff;stroke-width:.807465"/><path d="m337 32 20 20 20 21-3-1a258 258 0 0 0-69-18 250 250 0 0 0-124 21 272 272 0 0 0-57 35 287 287 0 0 0-28 26 184 184 0 0 0-17 21h15c12 0 14 1 15 2l5 12 1 2 1-1 1-2 4-6c2-6 5-6 7-1 1 4 3 3 5-2l1-4h11l1 6 5 15 1-3c0-4 4-12 6-11l2-3v-4h6c6 0 6 0 7 3l4 5 2 2 2-2 8-8 3 2c1 3 3 3 6 1 2-3 3-3 9-3l8 1h1l8-1h8l2 4c3 8 4 8 7 1 1-3 3-5 4-5h14c13 0 14 0 14 5l1 3c2 2 2 2 4-1l3-5c0-2 1-2 3-2s4 3 4 8c0 4 2 9 3 8l2-4a114 114 0 0 1 3-10c1-4 9-3 13 1s7 4 9-1l1-3h54l2 3a18 18 0 0 0 3 4c2 2 2 2 3-1 3-7 5-8 6-2a23 23 0 0 0 1 4c0 1 4-3 5-6 0-2 1-2 14-2h14v4l1 7a52 52 0 0 1-6 18h-9l-3-3c-2-4-2-4-5 0l-2 4h-29l-1-5-3-6-1-2c0-3-2-3-3 0-6 13-6 13-10 13h-60l-3-3-3-3-1 3c-1 3-3 4-18 4l-11-1-3-7a30 30 0 0 0-4-8c-1 0-6 7-6 10-1 4-4 6-8 3-2-1-2-1-5 1-2 2-4 2-10 2-8 0-8 0-12-4l-4-3-3 3-4 4h-10l-10-1-5-9-3 5c-2 6-3 6-15 6h-8l-2-4c-2-4-3-4-4 0s-1 4-3 3-3-3-4-6c-2-5-3-6-5-2-4 9-3 9-12 9l-8 1c-1 1 2 7 3 8a47 47 0 0 1 5 8v5c-3 4-2 5 2 5 4-1 2-3 15 18 9 14 9 15 9 20 0 4 0 4 2 4 4-1 5 1 2 4-3 4-4 7-3 10 0 2 0 4-2 6l-3 4c1 2 2 1 6-1a38 38 0 0 1 7-4c2-1 2-1 1 1 0 3 0 3 4 1l4-1 6 10 6 9 5-1c7 0 10 1 12 5s6 8 6 7l2-6 1-5h4l5 1 4 3c3 2 6 1 6-2 0-2 1-2 12-2h12l1 3c2 2 2 4 1 11a30 30 0 0 1-1 10l-2 5c-1 3-2 4-4 5-3 0-5-1-7-7l-3-5-4 6c-4 6-5 6-19 5a33 33 0 0 0-10 1l2 3c1 3 1 3-3 8-4 3-4 4-2 4h12l7 12a319 319 0 0 1 10 15l5 9c4 5 4 6 3 11 0 7 0 7 5 4l4 5c3 5 3 5 2 8-3 3-1 5 2 3 2-1 3-1 4 1l1 2-4 6a34 34 0 0 0-5 7h13c3-1 3-1 6 3l3 6-4 10a47 47 0 0 0-5 10l-1 4c-1 2-6 4-8 3a6 6 0 0 0-4 0c-2 1-3 0-5-3-2-2-2-4-1-8 1-5 1-8-1-7l-4-2-5-3-4-4c-2-4-3-5-2-8 0-5-2-8-5-8-2 0-4-1-5-4-3-4-3-4-2-12 1-11 1-10-3-11a134 134 0 0 1-9-4 10 10 0 0 1-5-4c-2-3-2-3 0-8l3-5c2-2 1-5-2-5l-14-2c0-2 5-7 11-11 8-5 9-10 2-6l-8 2-7 2c-3 2-4 2-6-2-1-3-1-4 2-8l3-6-4 1c-5 1-8 0-11-4l-3-4-46-1H86l-2-5-3-5a18 18 0 0 0-4 3l-5 4-1 1c0 1-1 2-3 2s-4-1-7-5a36 36 0 0 1-5-6l-1-1-1 3v6l-1 3H35v4a216 216 0 0 0 14 52l5 12a361 361 0 0 0 25 42 297 297 0 0 0 40 42 242 242 0 0 0 284 24 609 609 0 0 0 25-16 276 276 0 0 0 63-71 355 355 0 0 0 17-37 283 283 0 0 0 13-50h-6c-5 0-6 0-6-3-1-4-3-4-6 0-2 3-1 3-19 3-20 0-18 0-20-5l-3-4-2 4-2 5c-2 0-6-6-7-12l-2-5-2 2-1 3-2 5c-2 7-1 7-21 7a71 71 0 0 1-19-1c-1-1-5 1-5 3l-4 9-5 8h-5l-5-1 1 3 1 3 1 2c1 2 1 2-1 6-2 3-2 3-7 4l-7-2c-3-2-4-2-4 1s-2 3-8 3l-3 1 7 7 7 9-3 7-7 11-3 6-3-2c-4-2-5-1-4 6v7c-2 4-4 4-7 0l-4-2c-2 0-1 7 1 10v4l-1 3c1 2-1 5-11 21h-6l-5-1 1 3 3 6c1 3 1 4-2 8l-6 9c-1 3-3 4-3 2l-9-9c-4-3-5-1-3 3l4 11 3 7-4 6-3 6-6-2-6-2 3 5 4 6-12 19c-2 2-2 2-3 0l-8-11-6-10 2-4 2-3c-1 0 0-3 2-5 4-7 4-7 1-7l-6 4a22 22 0 0 1-6 5l-3-4-5-9-7-10-3-5 3-3 4-5 5-6 4-4 5-4 6-3 5 5a36 36 0 0 0 4 6l5-5 3-6 4 4c3 3 4 4 5 3s1-1 3 1a10 10 0 0 0 3 2l1-10-1-11 3-3 3-4-3-4c-3-3-3-3 1-11 3-4 5-5 7-6a19 19 0 0 1 4 0l1-10c0-5 1-6 8-7a68 68 0 0 0 14-2l-4-7-5-8 13-21c1-1 8 1 12 3 6 5 6 2-2-8a17 17 0 0 1-3-6l4-8 3-6h-5c-9 0-10 0-10-8l-2-6-2 5c-5 8-8 10-15 5l-6-2-13 4-8 1c-6 0-7 0-9-3s-5-3-6 0c-1 2-1 2-13 3a77 77 0 0 1-15-1 39 39 0 0 1-4-16l3-6 2-3v3l2 6 1-2 2-8 1-6h4c27 0 37 0 40 2s3 2 5 0c1-2 3-2 7-2 5 0 5 0 9 5l5 5 5-4 3-5h8l10 1c1 2 1 2 2 0l10-1h9l9-16 10-16h5c5 0 6-1 2-5l-3-3 6-9 6-9 6 3c9 4 12 4 6-1l-2-4c1-1 0-3-1-3-2-2-1-3 1-2l2-1 3-1c2 0 2-1 2-4l-2-7c-2-3-1-5 1-5s4-3 4-7c0-5 3-7 7-7l9-3c2-2 6-3 9-3 2 1 5 0 8-1l9-3c4 0 11 1 13 3l-1 4a69 69 0 0 0-5 7c-3 7-4 8-13 8l-3 1c0 1 2 3 4 3l2 1v5c-2 2-2 2-7 2h-4v3l1 3h-10l4 6 3 7-2 3c-4 7-4 6-6 4-4-2-4-2-3 3v7c-1 3-1 3-7 2l-10-1c-5-1-6 0-3 3l7 6 4 5-2 3c-1 4-2 4-6 3-4 0-4 0-4 2-1 3-1 3 1 5l3 2-3 4a32 32 0 0 0-2 4h6c6 0 7 0 7 5l1 6c1 2 1 2 2 0l3-4 3-4c1-2 2-3 6-3s5 0 7 2l2 3 1-2c2-3 2-3 14-2h13l4 5 6 5 1 1c0 3 3 2 4-1 3-7 5-10 6-10l2 1 1 4 1 3 3-2c2-2 3-3 6-2h4v-18l-2-24a334 334 0 0 0-5-26l-4-12a211 211 0 0 0-6-18 49 49 0 0 1-3-9l21 20a296 296 0 0 0 22 20l1-2v-35a11310 11310 0 0 0 1-167H426l-89-1zm108 132 2 8c2 0 4-4 5-9l2-6c2-1 51-2 51 0l-3 5a52 52 0 0 0-4 7 47 47 0 0 1-10 14l-10 2-16 4-8 3a34 34 0 0 1-6 1l-5 2c-1 1-5 0-8-2l3-5 4-3c3-3 2-4-3-2l-5 1-1-7-1-4-2 4-1 3-1-3-2-4c-1-2 0-6 2-13l1-4h15z"/><path d="M58 192a205 205 0 0 0-25 103h1l5-1h5v4l1 9c0 4 1 5 2 4l1-3 4-8 3-6h5c5 0 6 1 6 3l3 4c2 0 3-1 4-4l2-3h18l3 6 10 13 1-3 3-9c2-2 3-5 2-5l1-1 3 2c1 3 5 6 6 6l-1-4c-1-4-1-4 3-4l3-1-6-11-7-11 2-3 2-4c0-2 0-2-3 0-4 1-5 1-8-5-3-4-3-5-2-9 1-5 5-13 7-15 2-3-1-3-6 0-9 4-13 2-20-9-4-6-5-9-3-10l1-3 3-6 3-3-9-2h-9l-4-7a45 45 0 0 1-5-8c0-3-3-1-5 4z"/></svg>