<svg xmlns="http://www.w3.org/2000/svg" width="775.415" height="762.877" version="1.0" viewBox="0 0 581.562 572.158"><path d="M193.698 287.909c-10.23.697-19.747 8.092-21.196 18.55-4.26 15.113 5.231 34.671 22.103 35.709 12.037 1.785 23.755-8.805 22.806-21.016-1.32-9.649-.42-21.008-7.852-28.338-4.312-4.024-10.068-5.524-15.861-4.905zm10.054 55.658c-22.268.581-41.15 24.451-34.268 46.167 3.453 13.415 19.426 23.052 32.446 16.518 6.695-3.466 12.017-9.806 19.94-10.642 12.335-3.054 18.613-18.319 12.594-29.352-5.496-12.163-16.342-23.467-30.712-22.691zm18.783 33.84c-19.05.172-37.317 15.893-37.535 35.48-1.073 10.52 4.938 21.162 14.76 25.192 11.915 8.373 28.6 3.124 38.607-5.922 13.352-11.443 16.879-34.6 3.677-47.44-5.386-4.14-12.63-7.284-19.51-7.31zm17.382 8.668c.6.938-1.539-1.978 0 0zm1.9 3.328c1.021 2.946-1.097-2.234 0 0zm1.33 4.545c.425 2.808-.349-1.41 0 0zm-49.49 36.484c-.046-.066-.168-.358 0 0zm121.544-46.38c-12.031.418-20.725 12.41-19.227 23.992-.44 19.316 16.685 37.55 36.268 36.539 6.094-.154 10.691-4.589 15.11-7.907 13.096-5.43 19.852-24.823 9.38-35.751-5.13-5.844-13.108-5.864-20.034-7.425-6.143-5.194-12.88-10.331-21.497-9.448zm31.36-29.982c-14.849.621-29.783 11.173-33.57 25.822-3.023 15.55 9.577 32.519 25.774 32.774 19.65 2.114 40.723-14.335 39.525-34.878-1.937-14.485-17.937-24.22-31.73-23.718zm126.75-72.749c-17.097-.517-30 15.888-30.64 31.993-1.11 16.284 10.207 35.52 27.867 36.151 17.316 1.36 31.595-14.789 31.939-31.406 1.412-15.215-7.366-32.97-23.243-36.28-1.95-.371-3.943-.47-5.924-.458zm-45.97-72.27c-7.285-.374-13.5 3.68-18.69 8.238-4.496 2.496-5.853 8.217-11.097 9.357-9.46 5.906-15.52 16.493-18.34 27.062-2.266 9.93 3.596 19.144 9.49 26.542 9.922 11.555 27.372 16.404 41.28 9.288 7.153-3.014 13.192-8.903 15.524-16.235 5.715-1.813 9.799-6.328 14.664-9.54 11.3-11.625 6.98-31.095-3.035-42.14-7.259-8.508-18.86-12.439-29.795-12.573zm-45.171 58.47c-.072-.205-.114-.961 0 0zm-46.822-128.71c-15.618-.094-25.39 16.166-25.869 30.274-.94 15.613 9.442 34.192 26.484 34.905 14.925.476 24.756-14.737 26.217-28.106 2.03-13.678-4.084-29.487-17.117-35.446-3.079-1.234-6.41-1.721-9.715-1.628zm-86.954.536c-11.031 4.892-19.611 16.812-17.75 29.265.908 10.572 3.348 21.848 9.896 30.33 8.264 9.04 21.448 5.203 32.242 6.025 12.269.178 20.543-11.055 24.878-21.317 4.564-11.757 2.565-28.505-10.093-34.289-5.196-9.862-17.27-11.46-27.294-10.952a46.57 46.57 0 0 0-11.879.938zm-26.8-.41c-10.272-.143-22.322 1.086-28.468 10.545-10.324 12.632-9.001 31.453-.5 44.627 4.587 7.799 13.449 11.978 22.39 10.857 8.947.406 19.472.383 25.164-7.803 6.31-7.547 10.353-17.117 9.036-27.1.213-12.765-7.753-26.455-20.29-30.317-2.377-.683-4.87-.869-7.333-.81zm-91.853 80.26c-8.712-.153-15.25 6.007-21.353 11.301-13.023 7.593-14.961 29.292-1.949 37.673 9.54 5.32 20.962 2.137 31.377 3.008 11.151.216 20.289-10.202 19.153-21.197-.3-14.698-10.998-31.401-27.228-30.785zm-28.662-33.939c-18.067 1.024-35.444 16.958-34.093 35.824-.586 10.785 4.852 21.739 14.844 26.435 19.646 11.128 47.974-1.004 52.611-23.338 2.153-7.664-.289-15.654-4.707-21.912-4.788-10.53-17.458-16.921-28.655-17.009zM332.71.867c-9.18 3.9-16.557 11.784-19.6 21.317-21.737-.544-43.541-.89-65.26.26-62.17 9.366-122.524 36.992-166.778 82.221-12.663 13.23-28.489 26.974-29.677 46.606-.665 2.74.736 6.818-.622 8.773-17.328 4.926-25.39 22.8-31.31 38.218C6.656 231.135-1.059 266.416.118 301.778c-.135 4.623 3.913 8.608 5.457 11.973-7.296 13.47-2.383 29.203.196 43.263 5.84 26.115 15.95 51.123 29.46 74.204 19.475 34.644 47.073 64.465 78.916 88.087 46.781 33.978 104.438 55.025 162.68 52.674 4.54-.201 8.667-2.855 13.155-.993 13.63.697 27.16-2.438 40.571-4.533 46.172-9.122 90.368-29.57 126.342-60.018 23.558-22.046 46.518-45.45 62.377-73.836 16.72-29.447 28.43-61.92 33.599-95.408.83-5.838.442-12.007-1.683-17.443 7.919-14.441 4.15-31.485 3.453-47.094.56-3.695-3.485-10.305 2.239-10.504 13.556-4.273 23.24-17.762 22.644-32.013 1.427-56.912 1.515-113.854 1.976-170.781-.656-12.232 1.654-25.05-2.513-36.814-5.725-15.4-22.907-22.58-38.42-22.014C472.993.029 405.388-.076 337.829.047l-5.12.82zm-63.912 153.46c12.738 2.836 16.92 20.752 7.555 29.404-7.91 9.702-25.733 6.706-29.292-5.628-4.872-13.206 8.094-27.477 21.737-23.776zm-50.527-.375c6.102 1.282 10.27 6.758 12.572 12.039-.144 5.606 1.902 11.791-2.579 16.251-2.925 5.945-11.461 10.442-17.042 5.005-4.353-2.982-6.44-7.556-6.548-12.765-2.101-5.029-.063-9.346 2.837-13.515 1.836-3.817 6.584-6.717 10.76-7.015zm120.732 3.599c6.359 6.608 7.387 17.705 1.474 24.939-2.648 5.827-7.604 3.058-9.794-1.528-4.462-6.75-3.832-16.132 1.36-22.39 2.518-2.674 4.082-4.485 6.96-1.021zm-237.145 46.273c10.057-.254 19.194 11.987 12.764 20.863-5.9 10.372-22.142 11.812-29.702 2.533.47-5.636-1.272-11.998 3.51-16.217 2.571-4.376 8.383-7.252 13.428-7.18zm337.726 26.003c5.047 4.727 9.862 10.444 8.843 17.863-.566 7.4-10.406 9.647-16.501 8.609-.811 2.49-.428 8.267-3.32 11.216-5.414 8.733-19.323 9.255-25.47 1.275-8.455-5.807-8.638-20.99 1.526-25.238 3.439-2.117 9.296-2.581 12.252-1.628-1.305-5.888.953-13.606 8.044-13.859 5.002-2.103 9.685.877 14.626 1.762zm-312.27 5.571c7.912.953 11.814 9.983 11.328 17.132l-32.065.87c-.313-10.713 10.26-19.586 20.737-18.002zm296.096 8.794c.087.04-.103-.074 0 0zm-5.773.418c-.007-.056-.098-.238 0 0zm.847 1.968c-.005-.042-.12-.21 0 0zm9.113 1.28c.27.265-.378-.469 0 0zm-7.389 1.49c-.012-.043-.139-.16 0 0zm8.844.53c.266.398-.24-.426 0 0zm-6.633 1.91c-.014-.036-.153-.121 0 0zm7.769.294c.203.427-.188-.481 0 0zm.71 2.017c.145.453-.127-.506 0 0zm-5.036.188c-.025-.032-.168-.078 0 0zm5.43 1.596c.094.497-.07-.507 0 0zm-1.664 0c-.03-.025-.18-.038 0 0zm45.098 42.707c7.558 3.828 11.041 12.572 9.537 20.689-1.322 6.06-6.072 11.182-11.824 13.458-12.517-4.363-15.708-22.83-5.346-31.096 1.861-1.475 5.154-4.67 7.633-3.05zm-273.94 32.624c-4.057-1.475-8.337-5.53-7.56-8.127-4.216-4.51-4.276-11.188-1.374-16.464 2.598-6.913 5.682-5.536 5.322 1.472l3.612 23.119zm6.689 30.983c10.252 2.89 15.496 18.025 6.284 25.076-6.817 7.35-21.306 7.248-26.477-1.74-3.97-12.44 7.284-25.523 20.193-23.336zm142.802 10.554c4.679.979 12.636 3.943 9.138 9.92-3.816 11.992-20.573 15.948-29.472 7.145-.822-10.747 10.226-18.847 20.334-17.065zm-125.64 23.462c4.716.027 7.322 3.592 7.267 8.07 1.734 13.494-14.632 24.17-26.451 17.598-7.735-12.53 5.535-28.188 19.183-25.668zm119.53 16.149c-.761 5.83-4.886 11.07-10.369 13.192-.203-7.332-.63 2.51-4.366.577-13.2-1.466-20.001-18.583-12.179-29.034l26.913 15.265zm-30.405 12.765c5.452.639 12.41 4.45 13.22 9.864-2.442 4.163-8.817-2.532-12.94-3.012-1.888-1.872-12.44-2.916-8.101-5.433 2.358-1.35 5.154-1.668 7.82-1.42z" style="fill:#fff;stroke-width:.807465"/><path d="M337.051 31.952c0 .3 8.9 9.4 19.8 20.1 10.9 10.7 20.2 20 20.6 20.7.5.8-.6.6-3.1-.5-8.9-3.9-17.7-7-30-10.8-7.2-2.2-27.8-6.2-39.3-7.6-14.4-1.8-44.1-.8-57.5 1.8-33.1 6.4-43.7 9.5-67 19.6-18.2 7.9-44.4 23.8-56.9 34.6-12.6 10.8-21.5 19.1-27.4 25.8-7.7 8.4-17.2 20.2-17.2 21.1 0 .3 6.6.6 14.6.6 12 0 14.8.3 15.5 1.5 2 3.6 4.9 11 4.9 12.4 0 .9.5 1.6 1 1.6.6 0 1-.4 1-.9s.6-1.6 1.4-2.3c.7-.8 2.2-3.4 3.3-5.9 2.5-5.5 4.9-6 6.9-1.3 1.8 4.2 3.7 3.6 5.3-1.7l1.2-3.9h10.6l1.3 5.7c2.1 9.5 4 15.3 5 15.3.6 0 1-1.3 1-2.9 0-4.2 3.7-12.1 5.5-11.5 1 .4 1.6-.5 2.1-3l.6-3.6h5.9c5.7 0 5.9.1 7.2 3.2.8 1.8 2.4 4.2 3.7 5.3l2.2 2 1.9-2.5c5.4-6.9 6.5-8 7.9-8 .8 0 2 1 2.5 2.2 1.5 3.2 3.1 3.3 6 .4 2.3-2.3 3.4-2.6 9.3-2.6 4 0 7.3.5 8 1.2.9.9 1.2.9 1.2 0 0-.8 2.4-1.2 7.9-1.2h7.9l2.2 4.4c3.4 7.2 4.3 7.3 7 1.1 1.4-3.1 3.1-5.5 4-5.6.8 0 7.1-.1 13.9-.1 13 0 14.1.3 14.1 4.8 0 1.1.6 2.8 1.3 3.8 1.3 1.7 1.5 1.6 4-1.4 1.5-1.7 2.7-4 2.7-5.1 0-1.4.7-1.9 2.5-1.9 2.9 0 4.5 3 4.5 8.5 0 4 1.7 8.8 2.8 8.1.5-.3 1.4-2.4 2.1-4.8.7-2.4 1.7-5.2 2.1-6.3.5-1.1 1.1-2.8 1.4-3.8 1.1-3.4 9-2.6 12.7 1.4 3.7 4 6.6 3.8 8.5-.6l1.4-3.5h53.9l1.5 2.8c.8 1.5 2.3 3.6 3.5 4.6 2 1.8 2.1 1.8 3.1-1 2.5-7 4.5-8 5.5-2.7.4 2.1.9 4.1 1.2 4.6.6 1 3.8-3.1 4.7-6.1.7-2.2 1-2.3 14.4-2l13.7.3.8 4c.5 2.2.8 5.2.8 6.6 0 3.5-4.8 17.1-6.4 18.1-1.5 1-7.9 1-9.2 0-.6-.4-1.6-1.9-2.4-3.5-1.9-3.5-2.6-3.4-5.3.8l-2.3 3.5h-28.2l-1.8-4.8c-1-2.6-2.2-5.1-2.6-5.7-.5-.5-.9-1.7-.9-2.6 0-3-1.9-3.1-3.2-.2-5.4 13.1-5.6 13.3-10.1 13.4h-32.2l-28-.1-2.8-3.1-2.7-3.2-1.1 3.1c-1.3 3.7-3.2 4.1-18.4 3.9l-10.9-.2-2.6-7.4c-1.5-4.1-3.1-7.6-3.6-7.8-1.2-.4-5.9 6.5-6.8 9.9-.9 3.9-4.1 5.4-7.2 3.3-2.3-1.5-2.6-1.5-5.1.5-2.1 1.6-4 2-10.6 2-8 0-8.2-.1-11.9-3.7l-3.7-3.6-3.6 3.6-3.7 3.7h-9.9c-7.9 0-9.9-.3-9.9-1.4 0-1.7-4.2-8.5-5.2-8.6-.4 0-1.5 2.2-2.5 4.9-2 5.7-2.9 6.1-15.4 6.1h-7.9l-1.7-3.5c-2-4.2-3-4.4-3.9-.8-1 4.1-1.3 4.3-3.8 3.2-1.5-.7-2.8-2.7-3.7-5.7-1.7-5.5-3.3-6.3-4.9-2.5-4 9.7-3.6 9.3-12.1 9.3-4.3 0-8.1.4-8.4 1-.5.9 2 6.8 3.4 8 .7.6 2.8 4.1 4.9 8.2 1.1 2.4 1.1 3.1-.2 5-2.6 3.7-2.1 5 2.1 4.6 4.2-.3 2.5-2.4 15.6 18.7 8.6 13.8 9 14.7 8.5 19.5-.4 4.1-.3 4.2 2.5 3.6 3.6-.7 4.7 1.7 2 4.7-3.3 3.6-4.3 6.3-3.7 9.7.6 2.5.2 3.6-2.1 6-1.5 1.5-2.5 3.5-2.3 4.4.2 1.4 1.2 1.1 5.3-1.8 2.8-1.9 6-3.7 7.1-4 1.8-.6 2.1-.3 1.6 1.9-.5 2.9-.4 3 3.6.9 1.8-.8 3.6-1.3 4.1-.9.6.3 3.4 4.5 6.3 9.4l5.2 8.9 5.1-.4c7.8-.5 9.9.3 12.3 4.4 2.1 3.8 5.9 7.9 6.5 7.1.2-.2.8-2.7 1.3-5.4l.9-5 4.8-.3c3.3-.2 4.7.1 4.7 1 .1.7 1.6 2 3.5 2.9 3.8 1.8 6.5.9 6.5-2.1 0-1.9.8-2 11.8-2h11.8l1.7 2.9c1.3 2.3 1.5 4.4 1 11.2-.3 4.6-1.1 9.1-1.8 9.9-.8.8-1.6 3.2-2 5.3-.6 2.9-1.3 3.9-3.3 4.4-3.6.9-5.4-.7-7.7-6.6-1.1-2.8-2.4-5-3-4.8-.5.2-2.3 2.6-4 5.5-3.6 6.2-5 6.6-18.9 5.8-5.4-.2-9.6-.2-9.4.2.2.4 1 2 1.8 3.5 1.3 2.7 1.2 2.9-3.1 7.4-3.6 3.7-4 4.5-2.2 4 1.3-.3 2.6-.1 2.9.4.3.6 2.5.7 4.8.4l4.2-.7 7.6 11.9c4.2 6.5 8.4 13.4 9.4 15.3 1.1 1.9 3.6 6 5.5 9 3.4 5.1 3.6 5.9 3.1 11.4-.5 6.3-.4 6.4 4.8 4.2 1.1-.4 2.3.9 4.3 4.4 2.8 4.9 2.8 5.2 1.2 7.7-2.2 3.3-.6 5.4 2.6 3.5 1.8-1.1 2.3-1.1 3.5.5.7 1 1.4 2.1 1.4 2.4 0 .3-2 3.2-4.5 6.3-2.5 3.2-4.5 6.2-4.5 6.7 0 1.2 8.7 1.1 12.8 0 3.1-.9 3.4-.8 6.2 3.1 1.7 2.3 3 4.9 3 6 0 1-2 5.4-4.5 9.7-2.6 4.3-4.7 8.9-4.9 10.2-.1 1.3-.6 3.2-1 4.1-1 2.1-5.5 3.7-8.1 2.8-1.1-.4-2.8-.3-3.8.2-2.2 1.1-3.3.4-5.2-3.2-1.2-2.3-1.3-3.9-.5-8 1-5.3.6-7.5-1.1-6.4-.5.3-2.5-.8-4.5-2.5-1.9-1.7-4-3.1-4.7-3.1-.7 0-2.5-1.9-4-4.2-2.3-3.5-2.7-5-2.1-8.1.7-4.5-1.5-7.7-5.2-7.7-1.6 0-3.2-1.2-4.9-3.8-2.4-3.6-2.5-4.4-1.9-12.3.8-10.6.9-10.2-2.3-11.2-1.6-.5-3.7-1.2-4.8-1.6-1.1-.5-3.3-1.2-4.9-1.7-1.7-.5-3.8-2.3-4.9-4.1-1.8-3.1-1.8-3.5-.2-7.8 1-2.4 2.4-5 3.1-5.6 2.5-2 1.7-4.6-1.3-4.6-4.7 0-13.3-1.5-13.9-2.4-.8-1.3 4.6-6.8 10.3-10.5 7.9-5 9.5-9.9 2.1-6-1.6.8-4.9 1.8-7.5 2.2-2.7.3-6.1 1.3-7.6 2.1-3.3 1.7-4 1.3-5.7-2.7-1.2-2.8-1-3.5 1.9-8.2 1.7-2.8 3-5.3 2.7-5.5-.3-.3-2 0-3.9.6-5 1.7-8.3.5-10.9-3.8-1.2-2-2.3-3.8-2.6-4.1-.4-.5-16.7-.9-46-.9l-17.3-.1-2.2-5c-1.2-2.7-2.5-5-2.9-5-.4 0-2.3 1.6-4.2 3.5-2 1.9-4 3.5-4.6 3.5-.5 0-1 .7-1 1.5 0 1-1 1.5-2.9 1.5-2.2 0-3.9-1.2-7.5-5.2-2.5-2.9-4.6-5.6-4.6-6 0-.4-.5-.8-1.1-.8-.6 0-1 1.2-.9 2.8.2 1.5-.1 4.2-.5 6l-.8 3.3-9.1-.2-9.1-.1.2 4.8c.5 10.5 8.4 40 13.9 51.9 1.2 2.7 3.7 8.1 5.4 12 4.2 9.1 18.4 33.2 24.7 41.6 9.9 13.4 27.6 32.2 39.7 42.4 39.9 33.4 87 53.7 133.4 57.5 21.6 1.7 55.7-.7 79.2-5.6 22-4.7 54.5-17.4 72-28.2 6.9-4.3 21.8-14.2 24.4-16.2 24.3-19.1 48.2-46.1 63-71 4.1-6.9 13.9-27.5 17.3-36.5 4-10.5 8.9-27.6 11.3-39.9 1.1-5.4 2-10 2-10.2 0-.2-2.6-.4-5.9-.4-5.7 0-5.9-.1-6.4-3-.8-3.9-3.3-3.9-5.5 0-1.9 3.4-1.4 3.3-19.2 3.2-19.7-.1-17.8.4-20.2-4.7-1.2-2.5-2.7-4.5-3.3-4.5-.6 0-1.5 1.9-2.1 4.2-.5 2.3-1.3 4.3-1.9 4.5-1.6.5-5.2-5.8-6.5-11.5-.7-3.2-1.7-5.2-2.6-5.2-.8 0-1.4.8-1.4 1.9 0 1-.7 2.4-1.5 3.1-.8.7-1.7 2.8-2.1 4.9-1.4 7.4-.4 7.1-20.9 7.1-11.9 0-18.6-.4-19-1.1-.8-1.2-4.5 1.7-4.5 3.5 0 .6-2.1 4.7-4.6 9l-4.6 7.9-4.9-.6-4.8-.6 1 2.6c.5 1.4.7 2.8.4 3.1-.3.3.3 1.4 1.2 2.4 1.6 1.7 1.5 2.1-.5 5.6-1.9 3.4-2.5 3.7-7.1 4-3.4.2-5.9-.2-7.3-1.2-3.1-2.2-3.8-2-3.8.9 0 2.6-1.6 3.1-8.2 2.6-1.6-.1-2.8.1-2.8.6.1.4 3 3.9 6.5 7.8 3.6 3.8 6.8 7.8 7.1 8.8.4 1.2-.7 3.8-2.9 7-1.9 2.9-4.9 7.7-6.7 10.7-1.8 3-3.4 5.6-3.5 5.8-.2.2-1.5-.4-3-1.4-3.6-2.3-4.5-.9-3.2 5.3.9 4.3.8 5.5-.6 7.7-2.2 3.3-3.7 3.3-6.7.1-1.3-1.4-2.9-2.5-3.7-2.5-1.9 0-1.7 7.5.3 10.5 1.3 2 1.4 2.8.4 4-.7.8-1 2.1-.7 2.9.5 1.2-1.4 4.8-11.2 20.6-.8 1.3-1.6 1.2-6-.2-2.7-.9-5.2-1.3-5.5-1.1-.3.3.3 1.8 1.3 3.2 1 1.4 2.3 4.1 2.9 6 1.1 3 .9 3.7-2.2 8.5-1.8 2.8-4.2 6.6-5.2 8.3-1.7 3.1-3.4 4.3-3.4 2.5-.1-1.2-6.3-7.6-9.4-9.6-4-2.5-5-.9-2.5 3.9 1.1 2.2 3.1 7 4.3 10.7l2.3 6.7-3.5 5.9-3.5 5.9-5.9-2c-3.2-1.1-6.1-1.7-6.4-1.4-.4.3 1.2 2.7 3.5 5.3 2.2 2.6 4.1 5 4.1 5.4 0 1.2-10 17.4-12.1 19.5-1.9 1.9-1.9 1.9-3.4 0-.8-1.1-4.2-6.4-7.4-11.8l-6-9.7 2-3.5c1.2-1.9 1.8-3.5 1.5-3.5-.3 0 .7-2.4 2.4-5.3 3.5-6.3 3.6-6.7 1.2-6.7-1 0-3.9 2-6.4 4.5-2.5 2.5-5.1 4.5-5.6 4.5-.6 0-2-1.7-3.3-3.8-1.2-2-3.6-6-5.4-8.7-1.7-2.8-4.5-7.3-6.2-10.1l-3-5 2.4-3c1.3-1.6 3.2-3.8 4.1-4.9 1-1.1 3.3-3.9 5.1-6.3 1.8-2.3 3.8-4.2 4.4-4.2.7 0 2.9-1.6 5-3.5s4.4-3.5 5.2-3.5c.8 0 3 2.4 4.9 5.4 1.9 3 3.9 5.7 4.4 6 .6.3 2.7-2.1 4.8-5.5l3.7-6.1 3.9 4.3c3.1 3.4 4.1 4 4.8 2.9.7-1.2 1.3-1.1 3.3.8 1.3 1.2 2.7 2.2 3.1 2.2.4 0 .5-4.6.1-10.2l-.6-10.3 3-3.2c1.7-1.8 3.1-3.6 3.1-4 0-.4-1.4-2.1-3.1-3.7-3.4-3.2-3.3-3.4 1.5-11 2.6-4.1 4.2-5.5 6.7-6.1 1.9-.4 3.7-.7 4.2-.6.7.1 1-2.8.7-9.5-.2-5 1-6 7.5-6.8 9.9-1.1 14.5-1.8 14.5-2.2 0-.2-2-3.5-4.5-7.3s-4.5-7.2-4.5-7.5c0-.5 11.9-20.6 12.9-21.8 1-1.1 8.1 1.1 12 3.8 6.5 4.4 5.9 1.6-1.6-8.4-1.8-2.4-3.3-5.2-3.3-6.2 0-.9 1.6-4.4 3.5-7.6 1.9-3.2 3.5-6 3.5-6.3 0-.3-2.3-.4-5-.3-8.9.7-9.7.2-10.5-7.3-.3-3.6-1-6.3-1.3-6.1-.4.2-1.6 2.2-2.6 4.3-4.5 8.7-8 10.2-14.4 5.8-2-1.4-4.8-2.5-6.3-2.5-2.8 0-11.9 2.8-13.4 4.1-.5.5-3.9.9-7.6.9-6 0-7-.3-8.7-2.4-2.7-3.5-5.4-3.7-6.2-.6-.6 2.5-.6 2.5-13.5 2.8-7.2.1-13.5-.2-14.2-.6-1.4-.9-4.3-11.4-4.3-15.7 0-1.7 1.1-4.3 2.5-6l2.4-3 .1 2.7c0 3.3.9 5.8 2.1 5.8.5 0 .9-.9.9-2s.7-4.7 1.7-8l1.6-6h4.1c27-.3 36.1.1 39.2 2 3.1 2 3.1 2 4.9 0 1.4-1.5 3.1-2 7-2 5.2 0 5.3.1 9.5 5.6 2.3 3 4.7 5.3 5.3 5.1.6-.2 2.5-2.3 4.2-4.8l3.2-4.4 8.4-.3c7-.2 8.6 0 9.6 1.4 1.2 1.7 1.4 1.7 2.6 0 1.2-1.6 2.5-1.8 9.8-1.4l8.5.4 9.5-16 9.5-16.1h4.9c5.9 0 6.6-1.3 2.7-5.1l-2.9-2.9 5.5-9c3-4.9 5.6-9.2 5.8-9.4.2-.2 3.1 1.1 6.5 2.8 8.8 4.4 11.6 4 6.3-1-1.4-1.3-2.3-3.1-2.1-4.1.3-.9-.1-2.2-.9-2.9-2-1.6-1.7-2.8.5-2.2 1 .3 2.2 0 2.5-.6.4-.6 1.6-1.1 2.7-1.1 1.9 0 2-.4 1.4-4.3-.4-2.3-1.2-5.3-1.9-6.7-1.5-3.2-1-5 1.4-5s4-2.9 4-7.3c0-4.1 2.8-7 6.7-6.9 2.7.1 8.3-1.6 9.3-2.7 1.7-1.9 5.5-3 8.7-2.6 2.6.3 5.1-.2 8.1-1.7 2.4-1.1 6.4-2.3 8.9-2.6 4-.4 11.6 1.1 13.6 2.8.5.4-.4 2.5-1.8 4.6-1.4 2.1-3.3 5.2-4.1 6.9-3.1 6.3-4.7 7.2-13.6 7.4-1.7.1-2.8.7-2.8 1.5 0 1.2 1.9 2.6 3.5 2.5.3 0 1.3.8 2.2 1.7 1.5 1.5 1.5 1.8 0 4.2-1.4 2.4-2.2 2.7-6.3 2.5l-4.6-.3.6 3 .6 3h-10l3.6 6.5 3.6 6.5-2.1 3.2c-4.1 6.5-3.7 6.2-6.2 4.4-3.5-2.4-3.8-2.1-2.7 3 .7 3.2.7 5.4-.1 7-1 2.3-1.4 2.4-6.8 1.8-3.2-.3-7.9-.9-10.5-1.3-5.3-.9-5.9-.2-2.5 2.6 1.2 1.1 4.2 4 6.6 6.6l4.5 4.6-1.9 3.5c-1.8 3.3-2.1 3.5-6.1 2.9-3.9-.5-4.2-.4-4.8 2.3-.6 2.2-.3 3.1 1.6 4.6l2.3 1.7-2.2 4c-1.3 2.2-2.3 4.2-2.3 4.4 0 .2 2.5.2 5.6-.1 6.2-.5 7.4.3 7.4 5 0 1.5.5 3.9 1.1 5.5 1 2.7 1.1 2.7 2.1.8.6-1.1 2-3 3.1-4.2 1.1-1.2 2.5-3.3 3.1-4.5.9-1.8 2.1-2.4 5.8-2.6 3.9-.3 4.9.1 6.6 2.2l2 2.6 1.5-2.3c1.4-2.2 1.9-2.2 13.8-2l12.4.4 4.7 4.9c2.6 2.8 5.2 5 5.7 5 .6 0 1.1.7 1.1 1.5 0 2.7 2.7 1.5 4-1.8 2.5-6.6 4.5-9.7 6.2-9.7 1 0 1.8.6 1.8 1.4 0 .8.5 2.7 1 4.2l1.1 2.7 2.7-2.5c2.2-2.1 3.4-2.4 6.6-2l3.9.5-.6-17.9c-.3-9.9-1.1-20.8-1.7-24.4-2.1-12.2-4.2-22.5-5.1-25.5-.5-1.7-2-7.2-3.5-12.3-1.4-5.1-4.1-13.2-6-18-1.8-4.7-3.1-8.8-2.9-9 .3-.3 9.7 8.6 21 19.6 11.2 11.1 20.9 20.2 21.5 20.2.5 0 1-1 1-2.3 0-1.2.2-16.6.4-34.2.3-17.6.6-54.5.8-82 .1-27.5.5-57.7.8-67.2.5-16.6.4-17.2-1.5-17.7-1.1-.3-23.6-.3-50-.2-26.4.2-58.8 0-72-.5-32.8-1.1-88.5-1.6-88.5-.8zm108 131.9c.7 4.4 1.6 8 2 8 1.6 0 3.8-3.8 4.9-8.5.7-2.7 1.7-5.5 2.3-6.2 1.4-1.7 50.8-1.9 50.8-.2 0 .6-1.3 3-3 5.4-1.6 2.4-3.5 5.4-4 6.7-2.2 4.9-8.9 14.3-9.9 14-.7-.1-5.3.9-10.4 2.3-5.1 1.4-12.1 3.2-15.7 4.1-3.6.9-7.2 2-8 2.4-.9.4-3.6 1.1-6 1.5-2.5.4-5 1.1-5.6 1.6-1 .8-4.7-.1-7.2-1.7-.4-.2 2-4.6 2.9-5.4.3-.3 1.8-1.5 3.4-2.8 3.6-2.9 2.6-3.9-2.5-2.2-2.2.7-4.3 1-4.6.7-.4-.3-1-3.2-1.4-6.4-.3-3.2-.9-5.1-1.3-4.3-.4.8-1.2 2.8-1.8 4.5l-1.2 3-.7-3.2c-.4-1.8-1.2-3.9-1.8-4.5-1-1.3-.5-5.7 1.8-13.1l1.1-3.7h14.7z"/><path d="M57.851 192.052c-8.3 17.2-14 33.1-19.7 55.3-3.5 13.3-6.9 46.9-4.9 48.1.4.3.8 0 .8-.5 0-.6 2.1-1.1 5-1.1h5v3.7c0 2.1.3 6.2.6 9.1.6 4.2.9 5 2 4.1.8-.6 1.4-1.7 1.4-2.3 0-.6 1.6-4.2 3.6-7.9l3.6-6.8 5.1.3c4.9.3 5.2.5 5.7 3.3.4 2.3 1.1 3.1 3 3.3 2.1.2 2.9-.4 4.3-3.3l1.7-3.6 9.1.3 9.2.3 2.6 5.2c3 5.9 8.7 13.3 10.1 13.3.6 0 1-1.4 1-3.2 0-1.7 1.3-5.5 2.9-8.4 1.7-2.8 2.7-5.5 2.4-5.8-.4-.3.1-.6 1.1-.6.9 0 2 1 2.5 2.2 1 2.6 4.8 6.4 5.6 5.6.3-.3.1-1.7-.5-3.2-1.5-4.1-1.3-4.6 2.5-4.6 1.9 0 3.5-.2 3.5-.5s-2.9-5.3-6.5-11c-3.6-5.8-6.5-10.8-6.5-11.1 0-.3.9-1.7 2-3.1 1.1-1.4 2-3.4 2-4.4 0-1.6-.2-1.6-3-.2-4 1.9-5.2 1.4-8.4-4.1-2.4-4.1-2.5-4.9-1.6-9.3 1.2-5.4 4.6-13 6.9-15.3 2.4-2.5-1.3-2.5-6-.1-8.7 4.5-12.8 2.7-20.3-9.1-3.7-5.8-4.4-8.2-2.6-9.3.6-.3 1-2 1-3.7 0-2 .9-3.9 3-5.8 1.7-1.5 3-3 3-3.3 0-.2-4.1-.8-9.1-1.2l-9-.7-4.5-6.8c-2.4-3.8-4.4-7.3-4.4-7.9 0-2.9-2.9-.5-5.2 4.1z"/></svg>