<svg xmlns="http://www.w3.org/2000/svg" width="432" height="423" version="1.0" viewBox="0 0 324 317"><path d="m120 21-84 1c-8 0-14 9-13 17l-2 95c-3 5-2 12-2 18-3 8 1 17 2 25-3 7 0 14 0 21l2 84c2 9 10 14 18 13l164 1 80-1c9 0 15-9 14-18 2-48 2-97 3-145l2-23-2-31c0-14 2-28 1-42 0-9-9-15-17-15H120ZM14 134a15 15 0 0 0-14 17v26a15 15 0 0 0 17 15l12-3c4-3 7-8 6-13l-1-8-2-10 2-9a15 15 0 0 0-8-13 18 18 0 0 0-9-2h-3zm4 1zm15 19zm0 0c0 1 0 1 0 0zm2 18c0 1-1-1 0 0zm-24 17s-1 0 0 0zM135 0 18 1A16 16 0 0 0 2 19v116c0 9 8 15 17 15s18-9 17-18l1-96h246c2 0 7-2 6 2l-2 28c0 13 0 27 2 40 1 7-2 13-2 20-1 49 0 98-2 147 0 4 1 9-4 8H50l-12-1c-2-30-1-60-2-89-1-9-9-14-17-14-9-2-18 6-17 15v108c0 10 10 16 20 16l103 1 176-1c11 1 20-9 20-19 1-47 0-95 2-142l1-139c0-9-8-16-17-15L135 0Z" style="fill:#fff;stroke-width:.620565"/><g style="display:inline;fill:#000"><path d="M20 1486C20 697 23 45 26 36c6-14 107-16 1044-16 572 0 1041-4 1044-8 6-10 32-8 59 3 9 4 23 3 30-2 17-14 443-17 452-3 4 6 61 10 151 10h144v461c0 253 4 468 9 477 5 10 12 449 16 990l8 972H20Zm2915 1415 30-6-4-750c-2-413-7-755-12-760-4-6-9-305-10-665-2-564-5-657-18-673-14-17-85-17-1426-17C405 31 78 34 60 43L35 56l1 607c0 451 4 611 12 619 9 9 12 7 12-8 0-11 5-25 11-31 7-7 13-185 16-569 4-347 9-564 16-571 12-16 2717-19 2746-3 15 8 18 18 13 55-2 26 0 63 6 83 8 25 12 293 15 828 4 739 5 792 22 817 15 23 17 41 12 97-3 38-11 78-16 89-14 26-15 377-1 386 6 4 10 78 10 191 0 175-1 184-19 184-11 0-23 5-26 10-10 16-2750 14-2763-3-7-8-12-206-14-587-4-466-7-581-18-607-8-18-18-33-21-33-17 0-20 134-17 695l3 590 295 5c434 8 2570 9 2605 1zm-458-73c9-7 17-7 28 2 12 10 18 10 30 0 8-7 13-16 10-20-8-12-386-12-400 0-8 7-354 9-1018 8-809-2-1003-1-995 10 14 17 2324 17 2345 0zm293 2c0-5-16-10-36-10-21 0-33 4-29 10 3 6 19 10 36 10 16 0 29-4 29-10zm-1590-30c0-6-49-10-126-10-81 0-123 4-119 10s57 10 126 10c73 0 119-4 119-10zm-853-26c6-16-13-37-41-47-7-3-2-14 12-29 26-29 27-41 6-62-21-22-70-20-83 2-9 16-11 15-26-5-9-13-22-20-30-17-12 5-15 25-15 90v84h85c70 0 87-3 92-16zm502 2c7-8 11-30 9-48-2-27-12-39-58-68-83-54-144-74-225-73-93 1-225 46-202 69 4 4 13 1 21-5 24-20 127-25 150-9 18 14 18 15 0 32-17 18-18 17-26-3-6-18-14-22-40-19-27 2-34 8-36 30-2 19 3 30 19 38 23 13 95 6 115-11 7-5 35-12 63-16 28-3 54-10 57-14 9-14 38-10 82 11 43 21 47 26 36 54-8 22-24 20-24-3 0-26-20-39-50-31-18 4-25 13-25 30 0 16 9 29 25 37 34 17 95 16 109-1zm1451-6c17-24 39-25 66-5 24 18 34 19 34 2 0-27-57-67-144-102-40-16-226-22-240-8-4 5-38 14-74 21-115 22-186 38-202 45-40 18-396 43-413 29-7-5-56-13-109-17-54-4-100-11-103-15s-29-11-58-15c-28-4-56-11-62-15-5-4-26-11-45-15s-44-14-55-21c-11-8-26-14-34-14-19 0-101-40-101-48 0-4-15-13-33-21-17-8-48-27-68-43-20-15-40-28-43-28-4 0-14-6-23-12-31-25-199-193-221-223-78-105-147-229-196-355l-27-62c-5-10-9-25-9-33 0-9-4-13-10-10-14 8-14 732 0 740 6 4 11-105 12-307l3-313 19 40 94 196c1 4-9 4-23 1-39-7-65 22-65 73 0 45 19 71 45 61 17-6 22-76 5-76-5 0-10-4-10-10 0-17 26-11 45 10 15 16 17 31 13 85-3 36-10 71-15 78-19 25-44 107-41 134 3 24 8 28 33 28 27 0 30-4 33-32 4-37 9-40 28-15 17 21 18 54 2 70-15 15-6 24 15 16 34-13 37-247 4-294-25-36-23-58 3-35 11 10 20 23 20 29 0 14 161 176 176 176 6 0 21 11 34 25s29 25 36 25 14 3 16 8c4 10 65 52 77 52 5 0 11 6 14 14 3 7 18 17 34 20 15 4 42 18 60 32 17 13 36 24 42 24s32 10 58 21c76 35 85 38 133 50 141 34 304 51 430 46 158-7 317-24 365-39 52-17 190-17 206 0 16 15 65 16 74 1 4-5 0-18-9-28s-16-23-16-29c0-16 93-16 123 0l36 18c26 12 24 30-3 30-32 0-34 23-4 44s51 20 68-4zm176-90c3-52 8-102 12-110 3-8 11-49 18-90 21-126 55-252 75-274 5-6 9-17 9-25 0-20 30-51 50-51 21 0 70 23 70 33 0 4-6 10-13 13-12 4-47 73-78 149-22 55-53 301-44 345 16 72 58 110 121 110 25 0 41-10 78-50 48-52 58-80 28-80-10 0-31-13-47-30-35-36-64-38-95-5-21 22-22 27-10 55 11 27 16 30 41 25 30-7 37 3 17 23-17 17-53 15-68-3-26-31-22-273 5-281 6-2 20 19 32 46 12 28 26 50 31 50s16-14 24-31c9-17 26-36 39-43 38-19 35-43-7-61-21-9-42-21-46-28s-8-46-8-87v-76l56-29 72-39c20-11 62-72 62-91 0-8 5-17 10-20 12-8 13-112 1-119-4-3-11-18-14-33-3-16-14-37-24-49-22-25-83-54-115-54-12 0-29-4-37-9s-23-5-35-1a312 312 0 0 0-125 55c-56 39-69 49-141 110l-80 65-85 70c-103 89-134 108-146 88-5-7-9-16-9-20 0-19-32-6-42 17-6 14-15 25-20 25-4 0-8 7-8 15 0 19-109 91-152 100-18 4-42 14-53 21-11 8-31 14-45 14s-31 5-37 11c-7 7-62 14-127 17-97 4-116 2-116-10 0-38 61-52 82-18 7 11 20 20 28 20 9 0 22-9 30-20 8-12 26-20 42-20 35 0 37-23 2-38-24-11-24-13-10-34 14-20 14-24-1-40-20-22-35-23-73-3l-30 16v-38c0-21-7-46-14-55-12-16-16-16-67 9l-69 33c-8 4-17 16-19 26-4 22-20 44-32 44-4 0-9-12-11-27l-3-28-96 4c-107 4-169-14-169-50 0-27 18-33 46-14 16 10 40 15 67 13 38-3 42-5 39-28-3-24-2-25 56-22 47 3 61 0 65-12 4-9 2-16-4-16-5 0-23-14-40-31-27-28-35-30-80-27-51 3-57 0-37-20 8-8 8-15-2-27-17-21-125-21-134 0-8 22-72 19-107-6-39-28-36-40 9-37 32 3 37 0 34-17-3-19-19-36-108-115-67-60-67-61-71-308-3-191-1-227 13-257 31-66 43-9 18 89-5 20-2 25 18 28 15 2 24 11 26 26 4 25 27 30 36 6 10-25 7-59-6-72-8-8-12-64-12-174-1-157 0-164 23-193l23-30-7 45c-4 25-11 49-16 54-12 13-12 83 0 90 4 3 11 22 14 42s14 45 23 55c23 26 9 37-16 14-29-26-34-14-15 40 22 66 18 154-8 183-11 12-28 22-37 22-22 0-40 19-33 36 3 8 16 14 30 14 27 0 83-54 83-82 0-9 5-20 11-24 7-4 10-27 7-60-5-53-4-54 22-54 71 0 58-82-25-165-20-20-45-59-45-71 0-3 18-3 40 1 30 5 40 3 41-7l-1-85c-1-70 6-94 53-168 48-76 151-123 164-75 3 12 8 19 12 18l33-17c58-29 42-88-21-76-37 7-160 66-189 90a525 525 0 0 0-122 121 1290 1290 0 0 0-127 253c-25 77-44 162-55 241-11 86-4 365 10 383 5 7 12 33 15 58 4 25 13 59 21 75l37 82c12 28 26 52 31 52 4 0 8 6 8 13 0 8 11 24 25 37s25 27 25 32c0 19 186 208 205 208 5 0 64 39 75 50 12 12 115 55 190 78 48 16 140 20 230 11 80-7 168-26 185-39 6-4 24-11 41-14 18-4 60-22 95-41l97-52c17-9 32-20 32-25 0-4 5-8 11-8s23-9 37-20l56-43c41-31 148-126 168-148 9-11 19-19 24-19 4 0 31-21 61-46 30-26 56-44 59-41 7 7-66 88-87 96-9 3-54 41-100 84l-111 102c-15 14-31 25-36 25s-19 11-32 25-29 25-36 25-19 8-26 18c-17 22-28 29-168 102-63 33-133 63-155 66-22 4-46 12-54 18-19 15-333 15-352 0-8-6-27-14-44-18-28-6-134-55-145-66-10-10-69-50-75-50-19 0-215-197-215-216 0-5-40-64-50-74-21-20-100-213-100-242 0-13-6-30-13-37-17-17-17-515 1-532 6-7 12-21 12-30 0-29 37-132 72-199a847 847 0 0 1 248-305c12-11 114-61 219-109 14-7 96-11 205-11 150 0 191 3 241 19 73 23 84 31 78 56-7 25-23 26-23 1 0-19-23-35-34-24-3 4-6 15-6 25 0 12-7 18-24 18-13 0-31 3-39 6-12 4-15-2-14-27 2-38-19-50-32-17-7 15-10 17-10 7-1-27-31-32-31-6-1 20-2 20-11 4-8-13-23-17-64-17-30 0-57 5-60 10-3 6-16 10-27 10-12 0-38 18-60 40-29 31-38 49-38 75 0 43-13 52-30 20-19-35-28-31-40 15-6 21-16 42-22 46-10 7-10-7 3-56 2-9-2-14-10-12-10 2-12-4-7-23 5-18 2-27-10-32-21-8-60 34-69 74-6 29-4 33 14 33 12 0 21 6 21 14 0 7 7 27 15 42 19 37 19 60-1 68-24 9-5 27 24 22l35-5c4-1 7-9 7-19 0-27 23-72 38-72 6 0 12 5 12 10 0 18 22 10 58-21 34-30 35-33 33-94-2-53 1-67 18-84 12-12 30-21 42-21 19 0 20 5 17 58-3 56-3 57 25 60 17 2 37-4 48-14 19-17 21-17 49 15 20 22 37 31 53 29 19-3 22-8 20-47-3-53 14-70 70-71 37 0 93 23 109 45 4 6 8 20 8 31 0 21 18 32 77 49 29 8 103 85 103 107 0 26-17 22-51-13-31-32-46-34-115-14-14 5-31-2-52-20-28-24-33-25-38-10-9 22 21 85 40 85 8 0 16-5 18-11 3-8 21-9 63-4 45 6 54 10 34 14-14 3-38 16-55 28-27 21-27 22-7 23 38 0 53 11 53 40 0 15 9 35 20 45 17 15 24 16 46 7 48-22 63-15 97 45 9 17 17 42 17 55s5 29 11 35c11 11 8 85-8 180-12 69-23 78-23 20 0-42-8-68-44-146-6-13-11-41-11-62 0-38-1-39-27-34-23 6-30 2-40-20-13-30-41-30-46 0-8 53-24 75-54 75-16 0-38 5-49 10-24 13-26 50-2 50s83 23 83 32c0 4-21 8-47 8-50 0-133 33-133 53 0 17-48 67-64 67-22 0-40 27-24 36 9 6 4 10-17 14-35 7-55-4-55-31 0-33 36-59 80-59 41 0 47-8 30-39-6-13-17-17-34-14-29 6-50-11-59-48-8-30-27-41-47-29-16 10-32 113-24 161 10 68 87 115 127 78 12-11 35-19 54-19 36 0 36 2-4 78-13 24-21 48-18 53 23 36 123-39 117-87-2-13 1-24 7-24s11 5 11 10c0 6 12 22 26 37 21 21 32 24 61 20 46-8 63-23 63-59 0-28-1-29-36-22-26 5-39 3-45-7-23-37 3-99 42-99 10 0 21-5 24-10 3-6 12-10 18-10 16 0 72 50 86 77 13 25 13 99 1 128-8 18-9 17-9-7-1-35-17-36-25-3-15 59-141 154-168 127-8-8-8-15 2-26 18-22 5-46-25-46-14 0-49 12-77 26-38 19-56 24-68 16-9-5-31-13-50-17-66-14-160-127-160-193 0-15-5-33-11-39-17-17 7-179 30-207 14-17 8-46-9-46-6 0-23 25-37 56-24 52-25 64-21 168 4 90 9 120 28 159 13 26 28 47 32 47s8 5 8 12c0 15 40 58 55 58 6 0 17 9 25 20s20 20 27 20c12 0 66 21 105 41 10 5 52 9 93 9 68 0 87-4 135-32l40-20c14-6 42-27 62-47 21-19 41-31 45-27 10 10-93 107-137 129l-60 33c-19 11-53 14-145 12-114-3-122-5-165-33-25-17-52-33-60-36-37-15-130-172-130-219 0-15-5-31-11-37-13-13-7-138 11-208 17-66 73-145 104-145 7 0 19 14 26 31 22 53 64 86 118 94 50 7 132-8 132-24 0-5 9-11 19-14 26-6 51-57 58-117 4-39 1-58-17-92-33-64-103-125-153-133-23-3-55-11-70-17-21-8-31-8-40 1-6 6-27 11-48 11-42 0-99 18-99 31 0 5-6 9-14 9-12 0-74 62-116 116-49 63-92 126-115 170l-55 102-46 87c-19 38-41 77-48 85s-19 30-27 48c-8 17-17 32-20 32s-16 23-29 51l-24 51 45 41c48 45 127 104 168 126 14 7 37 24 51 36s43 31 65 41 45 23 51 29c6 5 35 21 65 34l73 33c28 14 136 48 155 48 9 0 22 5 29 12 17 17 274 23 332 8l85-21c22-5 49-13 60-18l75-31c143-56 179-80 314-215 91-90 130-151 181-285l26-65c4-11 11-40 15-65 3-25 10-50 15-56 14-18 22-300 11-369-15-83-33-158-42-170-4-5-11-26-15-45s-15-46-25-60l-46-70c-62-96-119-130-219-130-58 0-72 4-120 35-30 19-55 39-55 45 0 26-47 3-110-54-8-7-31-21-50-31s-37-21-40-24c-7-9-105-55-170-81l-75-30c-80-34-328-56-468-42a1067 1067 0 0 0-297 57c-19 4-41 11-50 15-8 5-40 18-70 30-93 37-190 89-190 103 0 4-4 7-10 7-13 0-71 40-108 75-53 51-102 88-108 82-7-7 83-96 162-160l77-63a482 482 0 0 0 97-64c5-5 152-77 205-101 28-12 67-22 195-50 65-13 423-7 443 9 6 5 33 12 58 15 46 6 214 58 247 77l52 25a820 820 0 0 1 214 133c19 8 33 5 81-19 50-25 69-29 140-29s87 3 119 25c20 14 39 25 42 25 8 0 88 82 101 104 15 26 83 163 94 191 29 70 52 434 30 480-5 11-12 40-16 65-11 83-62 200-136 309-50 76-198 222-282 279-83 57-75 52-167 92l-91 41c-9 4-33 11-53 14-20 4-39 11-42 16s-13 9-23 9c-9 0-36 18-60 41-35 34-42 46-39 72 2 27 8 33 32 35 55 7 112-37 99-75-7-20-45-15-71 10-23 21-24 21-20 2 3-19 77-61 178-100l75-30 63-25c17-7 32-15 32-19 0-3 15-12 33-20 17-8 48-27 68-43 20-15 41-28 47-28 10 0 229-214 247-241 28-43 37-58 64-110 16-30 33-73 36-95 4-21 11-44 16-50s11-37 14-70c4-32 11-68 16-79 16-32 5-389-13-460a561 561 0 0 0-101-225c-64-81-84-101-114-116-44-21-33-34 28-34 28 0 59-5 70-11 15-7 28-7 49 3 34 15 39 28 11 28-23 0-51 25-51 46 0 8 14 23 31 33 52 32 99-6 99-79 0-41-49-90-90-90-20 0-30-5-30-15 0-8 4-15 9-15 15 0 52-71 49-94-2-17-11-22-49-24-32-2-51 2-62 13-19 18-27 19-41 2-19-23-102-49-123-39l-63 31c-48 22-82 42-90 52-3 4-28 18-57 33-78 39-163 32-163-14 0-22 10-26 27-9 6 6 26 9 44 7 60-5 46-68-19-85-98-24-120 132-24 170 57 23 125 7 256-59 46-23 50-24 67-8 18 16 21 16 58 0 33-15 41-16 60-5 12 8 21 24 21 37 0 45-20 52-141 52-116 0-182 15-222 49-16 13-23 12-70-12-29-15-70-41-92-57-44-32-91-57-175-90l-75-30c-11-5-40-12-65-16-25-3-50-10-56-15s-55-12-108-16c-53-3-99-10-102-15-7-11-171-11-178 0-3 5-49 12-102 15-54 4-102 11-108 17-5 5-21 10-34 10s-38 6-55 13c-18 8-65 25-105 38-41 13-76 27-79 31-2 5-9 8-16 8-6 0 0-11 15-25 42-39 47-73 14-102-33-28-77-30-100-4s-17 54 14 61c27 7 50-5 50-26 0-8 5-14 11-14 22 0 3 44-26 61-32 19-100 25-109 10-3-5-23-12-43-16-21-4-42-10-48-15a1263 1263 0 0 0-131-36c-23-6-54 18-54 42 0 8 14 23 32 34 30 18 34 18 50 3 22-19 36-10 18 12-13 16-85 21-94 6-8-12-55-20-61-11-7 11 35 37 87 55 49 17 243 21 253 5 3-5 16-10 28-10 18 0 16 4-14 25-19 13-39 29-46 35-7 5-16 10-21 10-13 0-242 232-242 246 0 7 6 14 13 17 6 2 8 8 4 13s-12 2-17-6c-7-12-14-9-34 13-14 16-26 32-26 36s-10 16-21 27c-12 10-28 33-36 49-30 62-38 75-45 75-4 0-15 17-25 38-9 20-20 39-24 42l-22 35-16 30-1-67c0-37-4-70-10-73-6-4-10 33-10 104 0 61 3 111 8 111 4 0 27-41 52-91 63-127 70-139 79-139 5 0 11-9 14-20s10-20 17-20 4 12-8 33c-12 17-34 59-51 92l-40 75-15 30-15 30c-10 18-22 46-51 120l-30 75c-10 22-29 118-37 181-4 34 10 84 71 266 73 216 147 383 201 454 14 18 25 37 25 42 0 4 11 19 25 32s25 27 25 30a1186 1186 0 0 0 242 218c14 19 56 43 168 98 107 52 131 62 165 70 17 4 35 10 40 14 6 4 33 11 60 15 28 4 56 12 64 18 19 16 542 17 562 1 8-6 37-15 64-19 59-8 144-34 164-49 8-6 74-10 165-11 149 0 154 1 212 30s81 48 118 100c10 16 22 23 27 18s12-51 15-103zm-1846 90c0-6-29-10-66-10-41 0-63 4-59 10 3 6 33 10 66 10s59-4 59-10zm435 0c4-6-21-10-67-11-40-1-65-3-55-6 26-7 21-23-8-23-24 0-51 31-38 44 10 10 161 7 168-4zm915 0c0-6-30-10-70-10s-70 4-70 10 30 10 70 10 70-4 70-10zm-1575-30c3-5-1-10-10-10s-13 5-10 10c3 6 8 10 10 10s7-4 10-10zm255 0c0-5-11-10-25-10s-25 5-25 10c0 6 11 10 25 10s25-4 25-10zm1515 0c3-5-1-10-10-10s-13 5-10 10c3 6 8 10 10 10s7-4 10-10zm-1785-30c0-5-4-10-10-10-5 0-10 5-10 10 0 6 5 10 10 10 6 0 10-4 10-10zm1785 0c3-5-1-10-9-10-9 0-16 5-16 10 0 6 4 10 9 10 6 0 13-4 16-10zm725-186c0-101-3-153-10-149-6 4-10 67-10 156 0 93 4 149 10 149s10-59 10-156zm-60 82c0-11-19-15-25-6-3 5 1 10 9 10 9 0 16-2 16-4zm-2390-36c0-5-13-10-29-10-17 0-33 5-36 10-4 6 8 10 29 10 20 0 36-4 36-10zm2370 0c0-5-6-10-14-10s-18 5-21 10c-3 6 3 10 14 10 12 0 21-4 21-10zm-138-15c0-5-5-11-11-13s-11 4-11 13 5 15 11 13 11-8 11-13zm-2097-15c-3-5-19-10-36-10-16 0-29 5-29 10 0 6 16 10 36 10 21 0 33-4 29-10zm2265 0c0-5-15-11-32-11-18-1-25-3-15-6 25-7 21-23-6-23-25 0-47 17-47 37 0 9 16 13 50 13 28 0 50-4 50-10zm-2376-16c9-8 16-17 16-19 0-10-33-35-46-35-19 0-35 41-22 58 14 16 33 15 52-4zm2361-44c-3-5-13-10-21-10s-14 5-14 10c0 6 9 10 21 10 11 0 17-4 14-10zm-2635-36c0-8-5-12-10-9-6 4-8 11-5 16 9 14 15 11 15-7zm250-4c0-5-11-10-25-10s-25 5-25 10c0 6 11 10 25 10s25-4 25-10zm-240-30c0-5-9-10-21-10-11 0-17 5-14 10 3 6 13 10 21 10s14-4 14-10zm210 0c0-5-4-10-10-10-5 0-10 5-10 10 0 6 5 10 10 10 6 0 10-4 10-10zm-195-30c3-5-3-10-14-10-12 0-21 5-21 10 0 6 6 10 14 10s18-4 21-10zm2610-30c4-6-8-10-29-10-20 0-36 5-36 10 0 6 13 10 29 10 17 0 33-4 36-10zm-2610-20c-3-5-13-10-21-10s-14 5-14 10c0 6 9 10 21 10 11 0 17-4 14-10zm2595-30c0-5-13-10-29-10-17 0-33 5-36 10-4 6 8 10 29 10 20 0 36-4 36-10zm0-30c0-5-18-10-40-10s-40 5-40 10c0 6 18 10 40 10s40-4 40-10zm70-61c0-33-4-59-10-59s-10 29-10 66c0 41 4 63 10 59 6-3 10-33 10-66zm-1040 11c0-33-27-65-66-80-28-11-114-13-138-4s-19 24 8 24c15 0 32 11 44 27 19 26 22 27 56 15 41-15 53-10 66 24 13 33 30 30 30-6zm955 20c-3-5-15-10-25-10s-22 5-25 10c-4 6 7 10 25 10s29-4 25-10zm45-30c0-5-20-10-44-10-25 0-48 5-51 10-4 6 13 10 44 10 28 0 51-4 51-10zm-30-30c0-5-4-10-10-10-5 0-10 5-10 10 0 6 5 10 10 10 6 0 10-4 10-10zm70-545c0-90-4-145-10-145s-10 55-10 145 4 145 10 145 10-55 10-145zm-62 98c-2-13-16-20-53-24-44-5-45-6-13-7 58-3 57-22-2-22-36 0-52 4-56 15-4 8-15 15-26 15-10 0-16 5-13 10 3 6 37 10 76 10s69 4 69 10 5 10 11 10 9-8 7-17zm-23-73c4-6-12-10-40-10s-44 4-40 10c3 6 21 10 40 10s37-4 40-10zm-15-60c0-5-9-10-21-10-11 0-17 5-14 10 3 6 13 10 21 10s14-4 14-10zm30-30c0-5-11-10-25-10s-25 5-25 10c0 6 11 10 25 10s25-4 25-10zm2-40 2-32c1-6-5-13-11-15-8-3-13 4-13 16 0 11-5 23-10 26-13 8-3 25 16 25 8 0 15-9 16-20zm-792-16c0-8-5-12-10-9-6 4-8 11-5 16 9 14 15 11 15-7zm-10-44c0-5-4-10-10-10-5 0-10 5-10 10 0 6 5 10 10 10 6 0 10-4 10-10zm870-165c0-50-4-85-10-85s-10 35-10 85 4 85 10 85 10-35 10-85zM1138 992c2-7-5-16-17-19-27-7-27-39-1-53 47-25 6-70-46-50-21 8-24 16-24 56 0 36 5 51 22 66 24 21 59 21 66 0zm1712-447V120H122l-7 33c-12 50-17 607-6 607 6 0 12-97 15-242 3-134 8-271 11-304l7-62 45-6c25-3 229-6 453-6 353 0 409 2 414 15 8 21 104 21 112 0 5-13 107-15 835-15h829v415c0 270 3 415 10 415s10-148 10-425zM248 791c12-11 22-23 22-27s12-20 26-35 30-44 36-65c15-54 22-203 10-228-5-12-18-40-27-64-13-29-22-39-28-33-7 7-7 18 1 33 21 45 25 88 8 113-19 28-51 33-60 9-4-11-1-14 12-10 28 9 46-29 32-65-25-59-90-26-90 44 0 26 27 107 41 124 13 15 23 114 15 147-5 21-12 26-36 26-17 0-30-5-30-11s6-9 14-6c20 8 39-18 31-42-7-23-42-38-57-23-5 5-12 28-15 51-10 70 43 104 95 62zm2552-151c0-5-4-10-10-10-5 0-10 5-10 10 0 6 5 10 10 10 6 0 10-4 10-10zM208 612c2-7-6-12-17-12-21 0-27 11-14 24 9 9 26 2 31-12zm1167-7c0-15-8-21-34-23-28-3-33-1-27 13 3 9 6 21 6 26 0 6 12 9 28 7 19-2 27-9 27-23zm104-11c48-10 37-24-19-24-38 0-50 4-50 15 0 16 19 19 69 9zM190 580c0-5-4-10-10-10-5 0-10 5-10 10 0 6 5 10 10 10 6 0 10-4 10-10zm220-10c0-5-4-10-10-10-5 0-10 5-10 10 0 6 5 10 10 10 6 0 10-4 10-10zm2375-10c-3-5-15-10-25-10s-22 5-25 10c-4 6 7 10 25 10s29-4 25-10zM415 500c-3-5-13-10-21-10s-14 5-14 10c0 6 9 10 21 10 11 0 17-4 14-10zm61-46c9-34-28-74-53-58-32 20-39 41-19 63 27 30 64 27 72-5zm59-24c3-5-1-10-10-10s-13 5-10 10c3 6 8 10 10 10s7-4 10-10zm60-30c4-6-13-10-44-10-28 0-51 5-51 10 0 6 20 10 44 10 25 0 48-4 51-10zm1635-20c0-5-4-10-10-10-5 0-10 5-10 10 0 6 5 10 10 10 6 0 10-4 10-10zM205 370c3-5-3-10-14-10-12 0-21 5-21 10 0 6 6 10 14 10s18-4 21-10zm225-5c0-17-43-31-61-20-8 6-4 12 12 21 32 18 49 17 49-1zm2070-25c0-5-16-10-36-10-21 0-33 4-29 10 3 6 19 10 36 10 16 0 29-4 29-10zM197 310c6-24 19-25 39-5 23 22 50 18 69-11 16-25 16-27-11-55s-27-29-8-44 19-15-1-31c-15-12-32-14-69-9-28 3-53 8-58 11-9 6-11 125-2 148s35 20 41-4zm2588 0c3-5-1-10-10-10s-13 5-10 10c3 6 8 10 10 10s7-4 10-10zm-765-60c0-5-16-10-36-10-21 0-33 4-29 10 3 6 19 10 36 10 16 0 29-4 29-10zM368 222c2-7-6-12-17-12-21 0-27 11-14 24 9 9 26 2 31-12zm317-2c4-6-7-10-25-10s-29 4-25 10c3 6 15 10 25 10s22-4 25-10zm1245 0c0-5-9-10-21-10-11 0-17 5-14 10 3 6 13 10 21 10s14-4 14-10zm105 0c3-5-3-10-14-10-12 0-21 5-21 10 0 6 6 10 14 10s18-4 21-10zm285-32c0-4-9-8-20-8-20 0-28 29-13 44 7 7 33-21 33-36zm-1935 2c3-5-1-10-10-10s-13 5-10 10c3 6 8 10 10 10s7-4 10-10zm300 0c4-6-18-10-59-10-37 0-66 4-66 10s26 10 59 10 63-4 66-10zm1335 0c0-6-44-11-107-12-60-1-87-3-60-5 90-8 47-23-64-23-71 0-108 4-104 10 3 6 26 10 50 10 29 0 45 5 49 15 4 12 27 15 121 15 70 0 115-4 115-10zM700 160c0-5-16-10-36-10-21 0-33 4-29 10 3 6 19 10 36 10 16 0 29-4 29-10zm330 0c0-5-9-10-21-10-11 0-17 5-14 10 3 6 13 10 21 10s14-4 14-10zm1095 0c4-6-18-10-59-10-37 0-66 4-66 10s26 10 59 10 63-4 66-10zm225 0c0-6-34-10-81-10-51 0-78 4-74 10 3 6 40 10 81 10 43 0 74-4 74-10zm300 0c0-5-4-10-10-10-5 0-10 5-10 10 0 6 5 10 10 10 6 0 10-4 10-10z" style="fill:#000" transform="matrix(.1 0 0 -.1 13 305)"/><path d="M183 2753c-18-7-16-24 5-39 26-20 32-17 32 16 0 29-9 35-37 23zm987-110c-19-2-39-9-44-14a1793 1793 0 0 1-274-88l-62-30c-46-21-74-38-96-56l-49-35c-56-38-156-138-205-205l-50-65c-8-8-28-42-56-95-15-27-30-51-35-53s-9-10-9-17-14-40-30-73c-17-34-30-65-30-71 0-5-6-22-14-38-30-60-76-201-76-233 0-9-4-20-10-26-5-5-13-37-16-69-5-51-1-75 29-166 20-59 40-115 45-125l46-94c20-41 47-93 60-115l46-75c31-53 67-100 90-120a875 875 0 0 1 200-200c8-11 19-20 25-20 7 0 22-11 35-25s29-25 35-25 29-13 51-30c21-16 45-30 52-30 8 0 28-6 45-14 82-35 117-46 177-56 130-22 207-29 320-28 115 1 115 1-44 9-87 4-171 12-185 18-14 5-42 13-61 16-164 32-369 146-497 278a1434 1434 0 0 0-258 343c-9 9-28 51-91 189-7 17-16 44-20 60-4 17-10 35-14 40-5 6-11 27-15 48-4 20-11 40-16 43-12 7-11 81 1 89 6 3 10 15 10 25 0 20 51 180 74 235l31 75c34 90 112 238 136 260 3 3 13 22 23 43s24 41 32 44 14 11 14 17c0 22 216 221 278 256 14 8 32 21 40 28 7 6 21 12 30 12 10 0 27 7 38 15 30 20 195 74 267 86 174 29 426 33 512 9 17-5 55-13 85-19 30-5 84-17 120-26 126-31 146-34 255-34 100 0 128 3 217 25 24 5 29 2 43-31 8-21 18-62 21-92 4-29 11-56 15-59 5-3 9-13 9-23 0-25 43-159 65-201 25-49 85-120 101-120 7 0 17-7 22-15 8-16 42-11 42 6 0 5 12 9 26 9 24 0 26-3 22-35-4-36 14-50 26-19 22 56-29 136-67 106-7-5-26-13-43-16-27-6-35-2-65 31-19 21-41 54-48 73l-21 55c-5 11-16 47-25 80l-30 100c-8 22-17 64-20 92-4 29-11 55-16 59-5 3-9 18-9 34 0 15-5 30-12 32-7 3-43-6-81-19-61-21-82-24-185-20-67 2-145 11-182 21-36 10-96 22-135 28-38 5-79 15-90 21-20 11-457 20-525 10z" style="fill:#000" transform="matrix(.1 0 0 -.1 13 305)"/><path d="M1553 2550c76-5 144-13 150-18 7-5 32-12 56-16s53-13 64-21c12-8 31-15 42-15 34 0-39 39-88 46-23 4-48 11-55 17-7 5-79 11-160 13l-147 2zm-253-16-25-14h26c14 0 29 4 35 9 5 5 23 11 39 14 24 3 22 4-10 5-22 0-51-6-65-14zm-80-23-72-35c-32-15-58-31-58-36 0-14 0-14 63 20 31 17 62 30 69 30s22 7 32 15c20 15 20 15 0 14-10 0-26-4-34-8zm690-51c8-5 20-10 25-10 6 0 3 5-5 10s-19 10-25 10c-5 0-3-5 5-10zm50-30c0-5 5-10 11-10s28-13 49-30c21-16 41-30 46-30 4 0 20-12 36-27 31-30 48-27 21 3a787 787 0 0 1-154 104c-5 0-9-4-9-10zm-965-47c-61-51-131-121-180-179a1039 1039 0 0 1-175-329c-4-5-11-26-15-45s-11-39-15-45c-4-5-11-41-15-80-4-38-12-75-17-82-19-23 7-405 30-451 5-9 13-34 16-56 4-21 11-46 15-55 5-9 24-49 42-90a931 931 0 0 1 214-304c96-92 109-102 197-145 123-61 213-81 378-81 125 0 252 20 315 49l65 29a529 529 0 0 1 146 95c23 20 45 36 50 36 9 1 20 13 74 85l37 50c21 26 63 119 69 150 3 19 10 38 15 40 4 3 11 37 15 75 4 39 11 73 15 76 12 7 12 201 0 208-4 3-11 35-14 70-3 36-10 73-15 83l-42 87c-17 39-42 83-53 98a670 670 0 0 1-279 209c-10 5-28 9-40 9-19 0-16-3 12-16a551 551 0 0 0 208-136c2-4 16-24 33-45 39-52 42-56 57-82 17-30 52-138 52-162 0-10 4-20 9-23a985 985 0 0 0-34-481c-28-69-68-145-82-156-7-7-13-17-13-23 0-17-117-127-174-165-72-47-137-79-182-86-21-4-45-12-52-18-18-14-353-15-383 0-13 6-42 16-64 21-77 20-118 39-197 93-15 11-31 19-35 19-5 0-15 9-23 20s-19 20-25 20c-14 0-115 103-115 117 0 6-4 13-8 15-7 3-49 62-91 128-9 14-27 52-40 85a1057 1057 0 0 0-73 245c-13 71-6 444 9 462 6 7 14 33 17 58 4 25 11 54 16 65l30 75c37 94 89 190 103 190 4 0 7 5 7 11 0 12 21 42 70 99l61 73c17 20 37 37 44 37 8 0 22 10 32 23 10 12 30 30 46 40 26 17 36 37 19 37-5 0-35-21-67-47zm1165-93c6-11 20-25 33-31 12-6 54-41 92-78 102-96 135-123 147-119 5 2-9 21-33 42-24 22-72 65-105 97-34 33-66 59-71 59s-20 11-33 25c-28 30-45 33-30 5z" style="fill:#000" transform="matrix(.1 0 0 -.1 13 305)"/><path d="m1240 2264-35-13h32c17-1 35 4 38 9 16 25 155-11 155-40 0-6 9-10 20-10 15 0 20 7 20 25s-5 25-19 25c-11 0-23 5-26 10-9 14-143 10-185-6zm-72-21c7-3 16-2 19 1 4 3-2 6-13 5-11 0-14-3-6-6zm1566-118c11-8 23-15 27-15 3 0 12-15 19-32 6-18 16-41 21-50 26-50-19-135-93-174-43-22-100-14-171 27-21 11-33 6-23-10 6-9 58-36 119-60 70-28 165 0 210 61 32 43 27 134-9 192-16 25-34 45-40 46-6 0-17 7-24 15s-22 15-34 15c-21-1-21-1-2-15zm-1641-100c-3-9 2-22 13-30 23-16 37-9 29 15-5 15 0 20 22 23 20 3 16 4-15 6-30 1-44-3-49-14zm-100-22c-7-2-13-9-13-14 0-15 36-10 50 6 10 12 9 15-6 14-11 0-25-3-31-6zm617-20c-31-6-193-59-217-71l-67-33c-100-49-251-147-273-179-8-11-20-20-27-20-20 0-46-34-46-61 0-13 11-42 24-64 14-22 37-65 52-95 23-48 59-105 74-120 3-3 12-18 20-35 8-16 17-32 21-35 3-3 16-25 30-50 45-81 53-95 78-132 23-36 41-49 41-29 0 5-6 16-12 23-21 23-38 52-136 233-14 28-32 55-38 62-6 6-17 25-24 42s-16 31-19 31c-4 0-13 16-21 35s-17 35-20 35c-4 0-15 18-25 40l-18 41 33 34c19 19 39 35 46 35s14 4 16 9a898 898 0 0 0 178 119 999 999 0 0 0 255 118c17 4 36 12 44 18 9 7 80 11 205 11 231 0 243-3 449-117 33-19 187-167 187-181 0-5 11-23 26-42a843 843 0 0 0 115-241c42-52 42-525 0-579a382 382 0 0 0-159-214c-29-20-37-22-62-11-48 20-57 36-77 132-3 15-14 35-24 44-18 17-21 16-47-9a521 521 0 0 1-111-94 577 577 0 0 0-148-123c-14-1-59-40-45-40 34 0 141 75 238 168 36 34 69 62 75 62 5 0 9-12 9-27s9-46 20-69c33-67 118-93 183-56 81 45 151 144 177 252 28 113 32 155 28 315-4 154-7 178-32 250-36 106-91 217-139 285a881 881 0 0 1-173 180c-7 0-14 6-17 14-3 7-38 29-79 49-67 32-90 41-188 77-35 13-331 23-380 13z" style="fill:#000" transform="matrix(.1 0 0 -.1 13 305)"/><path d="M2530 1972c0-15 24-32 45-32 19 0 18 2-5 20-27 21-40 25-40 12zm88-49c12-2 32-2 45 0 12 2 2 4-23 4s-35-2-22-4zm-1065-34c-18-5-35-14-38-19-9-14 19-12 33 2 7 7 63 14 134 18l123 7-110 1c-60 0-124-4-142-9zm-703-24c-9-11-10-19-3-26 13-13 35 12 24 29-6 10-11 9-21-3zm577-42c-10-9-9-23 2-23 5 0 11 7 15 15 5 15-5 20-17 8zm-85-86c-12-13-22-29-22-35 0-7-4-12-8-12-10 0-44-73-67-140-16-49-21-235-6-244 4-3 11-26 15-52 3-25 18-65 33-87 16-23 35-55 43-70 32-64 128-117 210-117 57 0 74 18 46 49-37 41-5 111 52 111 36 0 62-30 62-72 0-39-59-95-107-103-21-4-50-11-64-17-18-6-33-6-45 0-11 6-35 16-53 23-19 7-50 26-68 42-19 16-37 27-40 23-10-10 35-48 82-70l57-27c37-18 108-9 168 21 72 36 90 61 90 122 0 45-4 51-44 86-22 18-76 15-112-7-33-20-50-73-37-120 6-23 5-24-42-19-40 5-55 13-102 59-30 30-69 81-86 114-30 59-31 63-31 206-1 88 3 155 10 170l34 76c13 29 34 62 47 74 23 23 30 39 15 39-5 0-18-10-30-23zm398-16c0-12 6-21 16-21 9 0 14 7 12 17-5 25-28 28-28 4zm230-90c0-6 5-13 10-16 6-3 10 1 10 9 0 9-4 16-10 16-5 0-10-4-10-9zm70-25 24-47c14-24 28-62 32-84 3-22 11-46 17-53 14-17 13-308-1-325-5-6-13-29-16-51-4-21-13-52-21-70l-27-63c-7-18-16-33-19-33-4 0-12-13-18-28-16-39-117-137-125-123-12 18-26 12-26-11 0-12-10-32-22-45-19-20-19-23-4-23 17 0 87 60 160 139 43 46 100 150 111 204 4 18 12 38 19 46 17 22 15 386-3 431-36 89-62 140-71 140-5 0-10-2-10-4zm-277-183c3-26 1-44-7-47-6-2 18-4 54-4 36 1 52 3 36 5-33 5-46 16-70 58l-17 30z" style="fill:#000" transform="matrix(.1 0 0 -.1 13 305)"/><path d="M1970 1330c0-5 5-10 10-10 6 0 10 5 10 10 0 6-4 10-10 10-5 0-10-4-10-10zm-25-40c3-5 10-10 16-10 5 0 9 5 9 10 0 6-7 10-16 10-8 0-12-4-9-10zm65-307c0-5 4-15 10-23 11-18 25-7 17 15-6 15-27 21-27 8zM300 792c0-4 9-13 20-20 22-13 27-3 8 16-14 14-28 16-28 4zm50-61c0-13 29-35 37-28 7 8-15 37-28 37-5 0-9-4-9-9zm1240-15c0-7 7-19 15-26 13-11 15-8 15 14 0 16-5 26-15 26-8 0-15-6-15-14zm-95-76c-3-5-1-10 4-10 6 0 11 5 11 10 0 6-2 10-4 10-3 0-8-4-11-10zm243-227c7-3 16-2 19 1 4 3-2 6-13 5-11 0-14-3-6-6zm-60-20c7-3 16-2 19 1 4 3-2 6-13 5-11 0-14-3-6-6zm-65-10c9-2 25-2 35 0 9 3 1 5-18 5s-27-2-17-5zm-85-20c12-2 30-2 40 0 9 3-1 5-23 4-22 0-30-2-17-4zM182 248c-29-29 1-68 42-52 19 7 20 18 6 45-12 22-30 25-48 7zm28-24c0-8-5-12-10-9-6 4-8 11-5 16 9 14 15 11 15-7z" style="fill:#000" transform="matrix(.1 0 0 -.1 13 305)"/></g></svg>