<?xml version="1.0" encoding="UTF-8" standalone="no"?>
<svg
   xmlns:dc="http://purl.org/dc/elements/1.1/"
   xmlns:cc="http://creativecommons.org/ns#"
   xmlns:rdf="http://www.w3.org/1999/02/22-rdf-syntax-ns#"
   xmlns:svg="http://www.w3.org/2000/svg"
   xmlns="http://www.w3.org/2000/svg"
   xmlns:sodipodi="http://sodipodi.sourceforge.net/DTD/sodipodi-0.dtd"
   xmlns:inkscape="http://www.inkscape.org/namespaces/inkscape"
   version="1.0"
   width="640.95239pt"
   height="751.36029pt"
   viewBox="0 0 640.95239 751.36029"
   preserveAspectRatio="xMidYMid meet"
   id="svg9021"
   sodipodi:docname="guruhi.svg"
   inkscape:version="1.0.1 (3bc2e813f5, 2020-09-07)">
  <defs
     id="defs9025" />
  <sodipodi:namedview
     pagecolor="#ffffff"
     bordercolor="#666666"
     borderopacity="1"
     objecttolerance="10"
     gridtolerance="10"
     guidetolerance="10"
     inkscape:pageopacity="0"
     inkscape:pageshadow="2"
     inkscape:window-width="1600"
     inkscape:window-height="837"
     id="namedview9023"
     showgrid="false"
     fit-margin-top="0"
     fit-margin-left="0"
     fit-margin-right="0"
     fit-margin-bottom="0"
     inkscape:zoom="0.34465021"
     inkscape:cx="55.427938"
     inkscape:cy="449.62398"
     inkscape:window-x="-8"
     inkscape:window-y="-8"
     inkscape:window-maximized="1"
     inkscape:current-layer="svg9021" />
  <metadata
     id="metadata8975">
Created by potrace 1.16, written by Peter Selinger 2001-2019
<rdf:RDF>
  <cc:Work
     rdf:about="">
    <dc:format>image/svg+xml</dc:format>
    <dc:type
       rdf:resource="http://purl.org/dc/dcmitype/StillImage" />
    <dc:title></dc:title>
  </cc:Work>
</rdf:RDF>
</metadata>
  <path
     style="fill:#ffffff;stroke-width:2.17612"
     d="M 119.36297,0.00873356 C 93.969669,2.2562328 79.181405,27.315026 65.56352,45.962254 43.37868,78.161383 32.368122,117.12887 34.473063,156.17505 c -0.09905,33.49905 7.45386,67.54821 27.846392,94.77669 6.693438,10.45231 14.60129,20.47526 22.361614,29.84441 -19.024666,6.37444 -29.076366,26.03208 -45.090724,36.44573 -15.59641,-3.29491 -32.5890818,4.9627 -36.8410216,20.94091 -8.160349,20.69126 3.969488,42.40072 8.8999886,62.44866 7.850614,21.83916 18.704083,45.30628 39.671676,57.0424 1.192011,24.87346 21.586099,43.30501 32.117916,64.58344 42.318786,66.05138 81.083436,134.89609 130.649016,195.92609 17.09256,20.09808 44.80313,42.00297 72.35596,29.52638 19.36996,-9.48327 20.23917,-37.24555 5.60181,-51.33857 -13.06197,-14.49204 -26.78416,-31.64816 -32.79904,-49.00946 21.43895,-8.71557 17.99586,-35.66022 18.31851,-54.34346 -1.69205,-8.29963 -0.57887,-12.66221 7.92242,-12.30019 6.83887,-0.37074 12.1419,-12.41365 16.77993,-3.95271 11.62406,10.6488 30.34775,11.41575 43.41613,5.4828 6.15907,5.98692 21.85798,-0.66918 19.15578,10.54909 0.40172,18.64478 -4.16199,43.08164 15.20736,54.33923 6.0231,2.46356 -3.2807,9.87703 -4.02924,14.04276 -9.18296,19.8084 -31.63835,33.24529 -33.89984,55.98408 -1.19889,24.62086 28.76418,42.55067 49.81271,29.48812 36.18415,-20.52287 58.15231,-57.99102 81.8085,-90.85299 38.07775,-59.81308 77.16057,-119.16247 112.24258,-180.76838 5.49688,-6.99838 1.59816,-18.70555 11.4307,-22.193 24.98247,-19.46789 32.72798,-52.65743 41.18901,-81.62999 6.25239,-19.25067 0.44193,-47.17583 -22.34347,-51.49581 -8.74583,-0.82589 -18.51971,0.32619 -23.10835,-9.20384 -10.19701,-11.7019 -21.66516,-23.23212 -36.22066,-29.29479 25.33591,-29.93563 47.14868,-65.22108 49.29846,-105.42277 2.42934,-39.69252 -0.0681,-81.894345 -22.10121,-116.345885 C 569.78413,36.50228 553.81546,9.0844411 525.93602,1.5728194 505.23925,-0.15886586 486.44888,19.865698 492.09991,40.577209 c 5.11058,21.91064 19.20809,41.572366 21.77821,63.923501 6.88492,28.25496 -0.28673,58.06986 -17.25595,81.42172 -21.08277,28.21557 -53.24768,45.44129 -82.22326,64.39177 -25.61445,15.09415 -52.18634,29.80574 -79.63411,40.84548 -17.20429,-0.006 -34.98211,2.34204 -49.41027,-9.05684 C 233.06552,254.86196 177.73686,227.08377 141.02216,179.21131 128.62062,163.12157 124.28226,143.03695 126.38435,123.22299 125.43086,95.56007 137.53513,70.27275 149.37812,46.111011 158.94634,25.096688 142.65745,-0.54236778 119.36297,0.00873356 Z M 96.760231,68.343981 c -14.979675,43.351209 -15.84673,95.405299 12.474439,133.708089 26.88068,40.13489 70.64088,64.1483 110.50002,89.37322 17.6219,10.62336 36.30795,19.26277 54.79578,28.23073 -15.26996,5.7168 -30.67369,12.18642 -43.47138,22.34349 C 191.0699,319.32749 148.31923,297.65384 118.76794,261.38958 94.302744,233.86234 71.13133,200.10399 73.294693,161.26683 c -0.505604,-25.55418 0.09051,-52.9746 13.788288,-75.88303 2.670098,-5.455073 7.077165,-14.008954 9.67725,-17.039819 z m 448.025579,0.08501 c 22.48379,32.272139 27.46123,74.154909 22.47098,111.929889 -8.21329,46.32688 -42.47344,82.56569 -76.7847,112.2104 -25.12783,18.8863 -52.69887,34.42631 -80.26991,49.31545 -13.0286,-10.01088 -28.35123,-16.29926 -43.53514,-22.25845 54.93903,-26.09294 108.5953,-57.36118 152.76221,-99.57196 19.93271,-24.3237 34.88383,-53.82924 36.05014,-85.78923 0.88803,-22.11344 -4.6151,-45.794946 -10.69358,-65.836099 z m -0.20826,250.589499 c 11.95567,7.39454 23.31786,21.4371 29.94288,31.60473 -13.59683,4.24633 -18.68255,-13.37841 -27.95952,-20.2178 -3.61227,-4.78039 -12.24117,-8.96026 -1.98336,-11.38693 z m -449.071139,0.14025 c 7.243539,0.96689 8.172409,6.12812 1.003058,10.13255 -9.351983,7.0671 -16.707163,24.59379 -30.393419,21.75695 8.339772,-11.62629 17.818101,-23.57557 29.390361,-31.8895 z m 413.347919,4.27575 c 15.18148,13.45296 29.4698,28.44723 40.50472,45.49023 -8.36221,1.06595 -18.48174,5.21165 -22.27972,-5.34255 -9.65562,-11.82438 -20.91218,-22.1717 -31.53247,-33.08805 4.1226,-2.84553 8.62186,-5.39364 13.30747,-7.05963 z m -373.67624,0.21249 c 6.7897,2.73438 14.27374,8.89354 4.21976,13.66503 -11.79844,10.32999 -21.03954,24.1296 -33.31686,33.49131 -4.32559,-1.00818 -18.840576,0.86526 -11.050604,-6.03532 11.832814,-14.65956 23.740524,-31.61734 40.147704,-41.12102 z m 336.99248,15.51336 c 15.1686,13.06349 29.79817,28.43346 40.1562,45.13749 -11.95184,4.38063 -20.9991,0.55119 -26.73278,-10.81845 -7.32843,-9.95177 -19.29128,-19.09952 -26.21236,-27.44217 3.99131,-2.25736 8.46327,-6.44661 12.78894,-6.87687 z m -301.60504,0.0595 c 5.67512,1.53386 16.41525,7.21266 7.14089,11.81665 -12.47717,11.43007 -22.8263,26.08115 -37.27504,34.93167 -8.24968,0.49959 -14.7406,-1.07163 -6.58187,-8.37128 10.97644,-13.34283 21.66586,-29.71213 36.71602,-38.37704 z m 105.03601,9.0955 c -16.64897,25.30375 -15.06121,58.34238 -2.73058,85.04432 4.45421,11.04535 3.19746,23.48437 -6.37342,31.34406 -16.07819,12.8294 -38.49137,7.25953 -57.34414,7.72268 -31.69359,-3.28259 -62.71046,-9.78199 -92.0983,-21.9567 C 97.041414,438.72718 74.273629,429.28896 58.312621,412.17086 50.603929,397.44426 45.269342,381.497 41.677209,365.29079 c 42.816577,31.62265 93.726421,53.43337 146.667041,59.91553 13.31207,0.46873 14.5758,-15.59779 23.56451,-22.03377 18.96342,-20.61684 42.14012,-37.81919 63.69278,-54.85719 z m 91.80503,1.42809 c 24.0583,18.5918 49.31233,36.91751 68.29274,60.89733 5.46683,12.44868 19.67108,17.30987 32.14042,12.82497 47.37853,-10.48247 95.10607,-27.91902 132.69638,-59.29701 -5.23141,19.69284 -11.89982,40.25617 -23.59814,56.64437 -29.30358,16.8636 -58.03693,36.55848 -92.15696,42.15655 -32.54791,8.13827 -66.27841,13.61021 -99.17919,7.77369 -18.24474,-5.24454 -22.70639,-27.42812 -15.3221,-42.96564 11.84532,-24.92248 10.99835,-55.06803 -3.7147,-78.59105 z m 83.64035,19.64883 c 8.03177,9.16793 19.8805,20.94942 23.83529,30.4359 -10.90185,2.59305 -20.3112,0.87191 -26.2438,-9.68112 -8.64483,-9.51473 -18.71639,-19.10508 -26.48883,-28.57521 9.52032,-10.76537 19.66363,-6.17872 26.24434,5.00832 l 1.49332,1.58289 z M 210.67923,356.53955 c 3.59429,1.76827 11.5105,3.38661 5.25754,7.61215 -11.86775,12.04545 -22.60959,25.75646 -35.08568,36.90903 -3.68876,-0.82631 -19.21736,2.39989 -13.27347,-3.88045 11.13005,-15.64062 24.45747,-29.52909 38.29884,-42.7701 1.60093,0.70978 3.20185,1.41957 4.80277,2.12937 z m 119.95008,5.0025 c 10.63111,17.18741 9.2111,39.27492 1.95511,57.90944 -4.68919,13.65031 -4.84504,29.85596 -3.61271,42.96987 -4.81575,3.08051 -19.34938,6.98941 -16.76717,-2.43539 4.76618,-23.96011 -7.33061,-46.43205 -10.26857,-69.52531 1.03582,-9.73293 4.92213,-18.86358 7.47193,-28.24706 7.42361,-0.2481 14.13039,-0.73518 21.22141,-0.67155 z m 211.98462,112.66944 c -40.05306,63.54794 -78.65018,128.16287 -121.67562,189.74527 -4.58628,5.9814 -13.15881,17.91498 -5.3681,4.52439 30.70737,-60.25903 58.38206,-121.99695 87.13404,-183.19779 14.11881,-2.64479 28.01912,-6.64347 40.99774,-12.86545 z M 98.532579,472.79616 c 12.582941,6.38512 26.402891,9.28722 39.871441,13.00573 30.83443,62.64014 58.58532,126.77845 90.61072,188.83361 -43.07092,-54.64258 -76.20099,-116.17952 -113.91095,-174.6951 -5.47601,-8.97297 -11.49787,-18.45992 -16.571211,-27.14424 z m 97.096571,27.14624 c 4.11558,6.369 5.00365,14.21145 6.44761,21.49344 -6.02246,-4.94492 -16.05646,-15.21667 -6.44761,-21.49344 z m 250.08797,-0.017 c 6.45602,4.02699 5.65607,11.33242 -0.36552,15.2796 -8.29097,11.42147 -4.41156,-3.69723 -2.09112,-10.27284 0.71411,-1.46278 1.24826,-4.1813 2.45664,-5.00676 z m -70.42636,1.17732 c 8.32611,11.72769 0.93486,29.02638 -6.31159,36.65825 1.62066,-12.12521 1.27503,-25.45133 6.31159,-36.65825 z m -108.83147,2.17611 c 3.73189,10.96923 5.87948,25.79436 5.78031,34.88592 -7.6029,-10.42539 -15.11379,-24.11382 -6.33709,-36.33101 z m 35.12818,-0.76929 c 3.89253,11.46094 5.89626,25.7931 5.86956,35.99097 -7.76572,-9.6289 -13.81363,-26.34189 -5.86956,-35.99097 z m 38.91513,0.33153 c 8.60216,12.15238 0.0399,27.02814 -7.4974,37.25754 1.64525,-12.07941 3.11802,-27.41796 7.4974,-37.25754 z m 69.15555,6.24783 c 6.305,25.45185 2.70874,52.15092 -5.21738,76.39041 -3.35962,14.72536 -2.68814,1.81715 -2.24551,-6.56999 1.13963,-23.69472 2.83685,-47.74839 7.11861,-71.257 z m -176.51644,3.37044 c 4.11902,27.00375 5.33949,53.60452 6.43911,80.80119 -9.96578,-27.16668 -15.18132,-56.51328 -7.14039,-84.65616 l 0.38948,2.14099 z"
     id="path9651" />
  <g
     transform="matrix(0.1,0,0,-0.1,17.723895,736.94493)"
     fill="#000000"
     stroke="none"
     id="g9019">
    <path
       d="M 963,7007 C 881,6924 811,6841 747,6749 657,6621 646,6600 576,6415 c -42,-108 -78,-215 -80,-238 -5,-52 -20,-438 -18,-492 0,-22 19,-123 42,-224 l 41,-184 107,-180 c 98,-164 123,-198 293,-391 178,-202 193,-217 360,-342 139,-104 238,-168 493,-313 175,-100 322,-183 326,-184 4,-1 41,27 82,63 71,63 81,68 296,150 121,47 218,88 214,92 -4,4 -74,38 -157,76 -82,38 -188,88 -235,110 -47,22 -128,60 -180,84 -52,25 -131,69 -175,99 -44,31 -195,132 -335,227 -194,130 -296,207 -424,319 -160,140 -172,153 -224,243 -30,52 -88,153 -128,223 l -74,128 -32,192 c -34,213 -35,199 12,504 33,220 104,413 221,601 49,79 88,146 86,148 -1,2 -57,-52 -124,-119 z"
       id="path8977" />
    <path
       d="m 4971,7124 c 2,-6 43,-73 91,-150 74,-118 95,-163 142,-297 48,-138 59,-184 88,-373 l 32,-216 -17,-116 c -48,-314 -32,-265 -165,-498 -67,-115 -128,-219 -136,-230 -8,-12 -93,-89 -188,-171 -126,-108 -239,-193 -418,-313 -135,-90 -281,-188 -324,-218 -67,-46 -273,-148 -696,-344 -36,-17 -59,-32 -53,-35 414,-157 439,-168 513,-234 39,-35 75,-63 79,-62 4,1 151,84 326,184 257,147 355,209 496,315 169,127 184,141 360,342 168,190 194,225 290,388 l 107,179 42,184 c 24,102 43,198 43,215 2,53 -14,459 -19,503 -3,23 -38,130 -79,238 -72,189 -78,200 -179,343 -74,104 -139,180 -221,262 -65,63 -116,110 -114,104 z"
       id="path8979" />
    <path
       d="M 621,4134 C 505,4013 432,3921 397,3850 c -9,-18 -17,-34 -17,-36 0,-3 59,-16 90,-20 14,-1 51,-5 83,-7 l 57,-6 42,57 c 22,31 98,114 168,184 l 128,126 -37,34 c -41,36 -121,78 -150,78 -11,0 -69,-53 -140,-126 z"
       id="path8981" />
    <path
       d="m 5231,4237 c -25,-12 -62,-37 -82,-56 l -38,-34 114,-110 c 64,-60 138,-140 166,-177 28,-38 56,-70 62,-72 26,-9 227,15 227,26 0,11 -41,80 -77,132 -67,96 -281,314 -307,313 -11,0 -41,-10 -65,-22 z"
       id="path8983" />
    <path
       d="m 990,4082 c -69,-70 -147,-153 -173,-185 -60,-71 -147,-197 -147,-213 0,-6 -7,-17 -15,-24 -8,-7 -15,-16 -15,-21 0,-11 72,-30 107,-28 15,1 46,-3 69,-9 61,-18 125,-9 146,19 114,149 247,291 373,396 l 49,42 -52,50 c -29,28 -59,51 -67,51 -7,0 -20,6 -27,13 -13,13 -84,37 -110,37 -8,0 -70,-58 -138,-128 z"
       id="path8985" />
    <path
       d="m 4865,4196 c -16,-6 -36,-17 -43,-23 -7,-7 -20,-13 -27,-13 -8,0 -38,-23 -67,-51 l -52,-50 49,-42 c 127,-106 257,-244 372,-395 19,-24 30,-30 65,-30 24,-1 61,4 83,10 22,6 51,10 65,9 32,-2 110,19 110,30 0,4 -5,11 -10,14 -6,4 -16,21 -24,39 -30,71 -146,214 -316,388 -132,136 -139,140 -205,114 z"
       id="path8987" />
    <path
       d="m 2783,4072 -191,-77 -131,-114 c -72,-63 -179,-150 -239,-192 -64,-46 -168,-136 -249,-216 -113,-112 -148,-153 -182,-215 l -42,-78 h -49 c -78,0 -398,76 -573,136 -180,62 -482,204 -662,314 -90,54 -144,96 -218,169 l -97,96 v -79 c 0,-67 8,-103 51,-239 61,-192 159,-413 197,-444 15,-13 92,-61 172,-107 80,-46 217,-126 305,-176 126,-74 177,-97 240,-113 44,-10 170,-41 280,-68 357,-89 344,-87 640,-94 l 270,-6 101,33 102,33 66,90 66,89 v 101 c 0,99 -1,102 -56,235 -50,120 -57,147 -67,242 -10,106 -10,110 23,235 28,108 42,141 88,213 l 54,85 138,77 c 76,42 155,82 177,88 50,15 74,6 246,-90 l 135,-75 55,-86 c 47,-73 60,-105 88,-213 32,-127 32,-129 21,-236 -10,-96 -18,-125 -67,-241 -54,-131 -55,-133 -55,-233 v -102 l 66,-89 66,-90 102,-33 101,-33 265,6 c 146,3 279,9 295,12 37,6 242,55 511,121 l 200,50 165,95 c 143,82 259,150 404,234 22,13 52,33 67,46 38,32 137,254 197,444 43,136 51,172 51,239 v 79 l -97,-97 c -77,-75 -126,-113 -226,-173 -180,-108 -475,-248 -657,-311 -170,-58 -491,-134 -570,-134 h -49 l -42,78 c -34,63 -67,102 -183,215 -80,80 -187,172 -249,216 -59,43 -166,129 -238,192 l -131,114 -191,77 c -252,101 -242,101 -494,0 z M 2234,2979 c 55,-14 79,-28 113,-61 24,-23 43,-51 43,-63 0,-11 -18,-41 -40,-66 -46,-54 -89,-69 -202,-69 -141,0 -368,84 -368,136 0,7 -7,17 -16,22 -19,11 -11,48 20,86 16,21 33,29 66,33 25,3 47,7 49,9 11,10 275,-10 335,-27 z m 2022,6 c 20,-13 54,-71 54,-93 0,-5 -7,-12 -15,-16 -8,-3 -15,-11 -15,-19 0,-32 -61,-64 -220,-117 -56,-18 -189,-24 -252,-11 -50,11 -63,19 -98,59 -22,26 -40,56 -40,67 0,32 78,102 135,121 96,32 405,38 451,9 z"
       id="path8989" />
    <path
       d="m 1374,3947 c -120,-122 -210,-224 -266,-302 -36,-50 -98,-152 -98,-161 0,-11 60,-27 117,-30 34,-1 71,-7 81,-13 10,-5 37,-7 61,-4 37,5 47,13 89,67 82,107 200,233 298,318 l 95,83 -52,48 c -28,26 -62,50 -75,53 -13,3 -24,9 -24,13 0,7 -34,20 -95,36 -16,4 -45,-20 -131,-108 z"
       id="path8991" />
    <path
       d="m 4528,4050 c -55,-16 -123,-56 -170,-100 l -49,-45 95,-83 c 98,-85 216,-211 298,-318 42,-54 52,-62 89,-67 24,-3 51,-1 61,4 10,6 47,12 81,13 66,4 117,19 117,36 0,5 -4,10 -10,10 -5,0 -10,6 -10,14 0,23 -92,157 -170,246 -99,114 -282,300 -295,299 -5,0 -22,-4 -37,-9 z"
       id="path8993" />
    <path
       d="m 1682,3728 c -161,-173 -218,-244 -278,-350 l -32,-56 43,-12 c 23,-6 51,-11 61,-9 10,1 44,-3 74,-9 30,-6 69,-10 85,-9 32,2 75,26 75,41 0,20 122,155 262,291 83,80 146,145 141,145 -4,0 -29,20 -55,45 -26,25 -54,45 -62,45 -8,0 -21,6 -28,13 -14,13 -84,37 -111,37 -8,0 -87,-78 -175,-172 z"
       id="path8995" />
    <path
       d="m 4135,3886 c -16,-6 -36,-17 -43,-23 -7,-7 -22,-13 -32,-13 -11,0 -24,-8 -29,-17 -5,-10 -27,-31 -49,-48 l -39,-29 147,-143 c 139,-134 260,-269 260,-289 0,-15 43,-39 75,-41 17,-1 55,3 85,9 30,6 64,10 74,9 10,-2 38,3 61,9 l 43,12 -32,56 c -60,106 -117,177 -278,350 -171,184 -173,185 -243,158 z"
       id="path8997" />
    <path
       d="m 659,2742 c 334,-534 834,-1331 988,-1578 170,-273 221,-344 420,-595 l 226,-284 95,-59 c 63,-39 112,-62 142,-67 25,-4 46,-6 48,-4 1,1 -33,24 -77,50 -79,48 -79,48 -209,240 -112,164 -145,223 -232,411 -56,120 -151,323 -211,451 -60,127 -122,260 -138,295 -88,193 -454,974 -457,977 -2,2 -70,16 -151,31 -158,29 -168,33 -372,146 -62,35 -115,64 -117,64 -2,0 18,-35 45,-78 z"
       id="path8999" />
    <path
       d="m 5360,2774 c -47,-25 -121,-66 -165,-91 -72,-40 -96,-48 -233,-73 -84,-15 -154,-29 -156,-31 -3,-3 -290,-616 -388,-829 -17,-36 -61,-130 -98,-210 -38,-80 -148,-315 -245,-524 C 3907,655 3893,629 3769,446 3640,255 3640,255 3560,206 c -44,-27 -79,-50 -77,-52 2,-2 24,0 49,4 27,6 84,33 141,69 l 95,59 226,285 c 214,269 241,308 504,729 325,519 894,1428 929,1483 13,20 22,37 21,37 -2,0 -41,-21 -88,-46 z"
       id="path9001" />
    <path
       d="m 2118,2397 -46,-72 -21,-210 -22,-210 55,-246 55,-247 71,-133 c 40,-74 74,-136 77,-139 8,-7 -12,658 -22,760 -3,25 -7,68 -9,95 -26,275 -30,302 -54,355 -14,30 -28,69 -31,87 l -6,32 z"
       id="path9003" />
    <path
       d="m 2469,2434 c -19,-14 -39,-28 -46,-32 -6,-4 -22,-55 -35,-113 l -24,-105 56,-123 c 52,-112 63,-129 126,-187 38,-35 72,-63 77,-64 4,0 5,17 3,38 -2,20 -7,89 -10,152 -4,63 -16,171 -28,238 -19,107 -26,129 -54,165 -18,23 -30,45 -28,49 9,14 -1,9 -37,-18 z"
       id="path9005" />
    <path
       d="m 2809,2425 c -45,-33 -48,-37 -68,-125 -12,-50 -21,-100 -21,-110 0,-10 27,-74 60,-142 54,-111 66,-129 131,-188 l 72,-65 -6,75 c -4,41 -9,118 -12,170 -3,52 -15,147 -27,210 -18,99 -25,121 -54,156 -18,23 -30,44 -27,48 15,15 -6,3 -48,-29 z"
       id="path9007" />
    <path
       d="m 3202,2455 c 4,-4 -8,-26 -26,-49 -29,-35 -36,-57 -54,-156 -12,-63 -23,-158 -27,-210 -3,-52 -8,-129 -11,-170 l -7,-74 79,73 c 71,66 82,82 132,189 l 54,117 -18,100 c -16,90 -21,103 -52,133 -29,27 -91,69 -70,47 z"
       id="path9009" />
    <path
       d="m 3552,2454 c 4,-5 -8,-28 -26,-51 -28,-36 -35,-58 -54,-165 -12,-67 -24,-172 -27,-233 -4,-60 -8,-129 -11,-152 -2,-24 -1,-43 3,-43 5,1 40,31 80,68 65,61 76,77 122,180 28,63 51,124 51,137 0,13 -9,63 -21,111 -14,62 -27,93 -42,104 -45,33 -81,54 -75,44 z"
       id="path9011" />
    <path
       d="m 3892,2448 c 3,-7 -10,-45 -27,-83 -23,-49 -35,-94 -39,-145 -4,-41 -9,-91 -11,-110 -8,-70 -24,-277 -29,-385 -9,-184 -18,-590 -13,-585 2,3 21,37 42,75 21,39 53,98 71,131 27,49 45,113 89,310 l 56,249 -22,210 -21,210 -44,68 c -41,62 -61,84 -52,55 z"
       id="path9013" />
    <path
       d="m 1743,2431 c -38,-18 -43,-25 -63,-88 l -23,-69 55,-77 c 46,-64 68,-85 129,-122 41,-24 76,-40 78,-34 7,21 -20,207 -41,282 -18,63 -28,82 -50,95 -15,9 -28,20 -28,24 0,12 -10,10 -57,-11 z"
       id="path9015" />
    <path
       d="m 4260,2443 c 0,-5 -13,-16 -29,-26 -23,-13 -32,-31 -49,-94 -19,-69 -48,-280 -40,-288 2,-2 36,16 76,40 60,35 82,56 129,121 l 56,78 -22,68 c -17,52 -29,71 -49,82 -40,20 -72,29 -72,19 z"
       id="path9017" />
  </g>
</svg>
