<svg xmlns="http://www.w3.org/2000/svg" width="855" height="1002" version="1.0" viewBox="0 0 641 751"><path d="M119 0C94 2 79 27 66 46a178 178 0 0 0-32 110c0 34 8 68 28 95a309 309 0 0 0 23 30c-19 6-29 26-45 36-16-3-33 5-37 21-8 21 4 43 9 63 7 21 18 45 39 57 1 25 22 43 32 64 43 66 81 135 131 196 17 20 45 42 72 30 20-10 21-38 6-52-13-14-27-31-33-49 22-8 18-35 19-54-2-8-1-13 7-12 7-1 13-13 17-4 12 10 31 11 44 5 6 6 21 0 19 11 0 18-4 43 15 54 6 3-3 10-4 14-9 20-32 33-34 56-1 25 29 43 50 30 36-21 58-58 82-91 38-60 77-119 112-181 6-7 2-19 11-22 25-20 33-53 42-82 6-19 0-47-23-51-8-1-18 0-23-9a102 102 0 0 0-36-30c25-30 47-65 49-105 3-40 0-82-22-117-14-22-30-50-58-57-21-2-40 18-34 39 5 22 19 41 22 64 7 28 0 58-17 81-21 28-54 45-83 64a602 602 0 0 1-79 41c-17 0-35 3-50-9-52-27-107-55-144-103a77 77 0 0 1-15-56c-1-27 11-53 23-77 10-21-6-46-30-46ZM97 68c-15 44-16 96 12 134 27 40 71 64 111 89 17 11 36 20 54 29a158 158 0 0 0-43 22c-40-23-83-44-112-81-25-27-48-61-46-100a140 140 0 0 1 24-93zm448 0c22 33 27 75 22 112-8 47-42 83-77 113a632 632 0 0 1-80 49c-13-10-28-16-43-22 55-26 108-58 152-100 20-24 35-54 36-86a207 207 0 0 0-10-66zm0 251a112 112 0 0 1 30 32c-14 4-19-14-28-21-4-4-13-9-2-11zm-449 0c7 1 8 6 1 10-10 8-17 25-31 22a137 137 0 0 1 29-32zm413 4a227 227 0 0 1 40 46c-8 1-18 5-22-5l-32-34 14-7zm-374 1c7 2 14 9 4 13-11 11-21 24-33 34-4-1-19 1-11-6 12-15 24-32 40-41zm337 15a202 202 0 0 1 40 45c-12 5-21 1-26-10-8-10-20-20-27-28 4-2 9-6 13-7zm-301 0c5 2 16 7 7 12-13 12-23 26-38 35-8 1-14-1-6-8 11-14 21-30 37-39zm105 9a89 89 0 0 0-3 85c4 11 3 24-7 32-16 12-38 7-57 7a327 327 0 0 1-92-22c-20-11-43-21-59-38-7-15-13-31-16-47a314 314 0 0 0 146 60c14 1 15-15 24-22 19-20 42-38 64-55zm91 2c24 18 50 37 69 61a25 25 0 0 0 32 12c47-10 95-27 132-59-5 20-11 40-23 57-29 17-58 36-92 42-33 8-67 14-99 8-19-6-23-28-16-43 12-25 11-55-3-79zm84 19c8 10 20 21 24 31-11 2-20 1-26-10l-27-28c10-11 20-7 26 5l2 1zm-240-13c3 2 11 4 5 8-12 12-23 26-35 37-4-1-19 2-13-4a304 304 0 0 1 38-43l5 2zm120 6c10 17 9 39 2 58a107 107 0 0 0-4 43c-5 3-19 7-17-3 5-24-7-46-10-69 1-10 5-19 7-29l22-1zm212 112c-40 64-79 128-122 190-5 6-13 18-5 5 30-61 58-122 87-184 14-2 28-6 41-13zm-445-1c13 6 27 9 40 13 31 62 59 127 91 189-43-55-76-116-114-175l-17-27zm98 27c4 6 5 14 6 21-6-5-16-15-6-21zm250 0c6 4 5 11-1 15-8 12-4-3-2-10 1-1 1-4 3-5zm-71 1c9 12 1 29-6 37 2-12 1-26 6-37zm-109 2c4 11 6 26 6 35-7-10-15-24-6-36zm35 0c4 11 6 25 6 36-7-10-13-27-6-36zm39 0c9 12 0 27-7 37 2-12 3-27 7-37zm70 6a139 139 0 0 1-6 77c-3 14-2 1-2-7 1-24 3-48 7-71zm-177 4c4 27 5 53 7 80-10-27-16-56-8-84l1 2z" style="fill:#fff;stroke-width:2.17612"/><path d="M114 36a193 193 0 0 0-22 26c-9 13-10 15-17 33a179 179 0 0 0-8 24c0 5-2 44-1 49l4 23 4 18 10 18a197 197 0 0 0 30 39c18 21 19 22 36 35a403 403 0 0 0 49 31l33 18 8-6c7-6 8-7 30-15l21-9-16-8-23-11-18-8a173 173 0 0 1-18-10l-33-23a369 369 0 0 1-43-32c-16-14-17-15-22-24l-13-22-7-13-4-19c-3-22-3-20 2-51 3-22 10-41 22-60l8-15-12 12zm401-11 9 15a156 156 0 0 1 23 67l3 21-2 12c-4 31-3 26-16 49a983 983 0 0 1-14 24 409 409 0 0 1-60 48l-33 22a744 744 0 0 1-75 38c42 15 44 16 52 23l8 6 32-18a408 408 0 0 0 50-32 168 168 0 0 0 36-34c17-19 19-22 29-39l10-18 5-18 4-22-2-50a209 209 0 0 0-26-58 193 193 0 0 0-33-37zM80 324a130 130 0 0 0-23 28l-1 4 9 2h8l6 1 4-6 17-18 12-13-3-3a36 36 0 0 0-15-8c-1 0-7 5-14 13zm461-11a38 38 0 0 0-8 6l-4 3 11 11a184 184 0 0 1 23 25c3 1 23-1 23-3s-4-8-8-13c-7-9-28-31-31-31l-6 2zm-424 16a347 347 0 0 0-18 18 117 117 0 0 0-16 24l-1 2 10 3 7 1c6 2 13 1 15-2a254 254 0 0 1 37-40l5-4-5-5a23 23 0 0 0-7-5l-3-1a28 28 0 0 0-10-4l-14 13zm387-12-4 3-3 1-7 5-5 5 5 4a248 248 0 0 1 37 40c2 2 3 3 7 3l8-1 7-1 11-3-1-2a12 12 0 0 1-3-3c-3-7-14-22-31-39-14-14-14-14-21-12z"/><path d="m296 330-19 7-13 12-24 19a248 248 0 0 0-25 22 90 90 0 0 0-18 21l-4 8h-5a316 316 0 0 1-58-14c-18-6-48-20-66-31l-22-17-9-10v8a172 172 0 0 0 25 68c1 2 9 7 17 11l30 18a87 87 0 0 0 24 11l28 7c36 9 35 9 64 9l27 1 10-3 11-4 6-9 7-9v-9c0-10 0-11-6-24-5-12-6-15-7-24a46 46 0 0 1 3-24 58 58 0 0 1 9-21l5-9 14-7c7-5 15-9 17-9 5-2 8-1 25 9l14 7 5 9c5 7 6 11 9 21a46 46 0 0 1 2 24c-1 10-2 13-7 24-5 13-5 13-5 23v11l6 9 7 9 10 3 10 3h27l29-2 51-12 20-5 17-9 40-24 7-4c4-4 14-26 20-45a69 69 0 0 0 5-24v-7l-10 9a105 105 0 0 1-22 18 425 425 0 0 1-66 31 316 316 0 0 1-57 13h-5l-4-8a234 234 0 0 0-43-43 420 420 0 0 1-24-19l-13-11-19-8c-26-10-25-10-50 0zm-55 109a21 21 0 0 1 11 6c3 2 5 5 5 6l-4 7c-5 5-9 7-21 7-13 0-36-8-36-14l-2-2c-2-1-1-5 2-8 2-2 3-3 7-4a23 23 0 0 0 5-1c1-1 27 1 33 3zm202-1a18 18 0 0 1 6 10l-2 1-1 2c0 3-6 7-22 12a68 68 0 0 1-26 1c-5-1-6-2-9-6-3-2-4-5-4-7 0-3 7-10 13-12 10-3 41-3 45-1z"/><path d="m155 342-27 30a120 120 0 0 0-9 16c0 2 6 3 11 4l9 1h6c3 0 4-1 9-7 8-10 20-23 29-31l10-9-5-4-8-6-2-1-10-4c-1 0-4 2-13 11zm316-10a47 47 0 0 0-17 10l-5 5 9 8c10 8 22 21 30 32 4 5 5 6 9 6h6l8-1c7-1 12-2 12-4l-1-1-1-1c0-3-9-16-17-25-10-11-28-30-30-30l-3 1zm-285 32c-16 17-22 25-28 35l-3 6 4 1 6 1 8 1 8 1 8-4c0-2 12-16 26-29l14-15-5-5c-2-3-6-4-7-4l-2-1a28 28 0 0 0-11-4l-18 17zm245-16-4 3-3 1-3 2a22 22 0 0 1-5 4l-4 3 15 15c14 13 26 27 26 29l7 4a43 43 0 0 0 9-1l7-1 6-1 5-1-4-6c-6-10-11-18-27-35-17-18-18-18-25-16zM84 463l98 158c17 27 22 34 42 59l23 28 9 6a47 47 0 0 0 15 7h4l-7-5c-8-4-8-4-21-24a222 222 0 0 1-23-41 35466 35466 0 0 0-35-74l-46-98-15-3c-16-3-17-3-37-15l-12-6 5 8zm470-4-17 10c-7 4-9 4-23 7a221 221 0 0 0-16 3 9046 9046 0 0 0-48 104 9047 9047 0 0 0-25 52c-17 36-18 39-30 57-13 19-13 19-21 24l-8 5h5c3 0 8-3 14-7l10-6 22-28c22-27 24-31 51-73l93-148 2-4-9 5zm-324 38-5 7-2 21-2 21 5 25 6 25 7 13a354 354 0 0 0 7 14l-2-76-1-10c-2-27-3-30-5-35l-3-9-1-3zm35-4a74 74 0 0 1-5 4l-3 11-3 11 6 12c5 11 6 13 12 18a58 58 0 0 0 8 7v-4l-1-15a256 256 0 0 0-2-24c-2-11-3-13-6-16l-3-5c1-2 0-1-3 2zm34 2c-5 3-5 3-7 12l-2 11 6 14a45 45 0 0 0 13 19l7 6-1-7a524 524 0 0 1-3-38c-2-10-3-12-6-16l-3-5-4 3zm39-3-3 4c-3 4-3 6-5 16l-3 21-1 17-1 7 8-7a44 44 0 0 0 14-19l5-12-2-10c-1-9-2-10-5-13l-7-5zm35 0-3 5c-2 3-3 5-5 16l-3 23-1 16v4l8-7a40 40 0 0 0 13-18 74 74 0 0 0 5-14 83 83 0 0 0-2-11c-2-6-3-9-5-10l-7-5zm34 0-3 8a40 40 0 0 0-4 15l-1 11a713 713 0 0 0-4 97 414 414 0 0 0 11-21c3-5 5-11 9-31l6-25-2-21-2-21-5-6c-4-7-6-9-5-6zm-215 2c-4 2-4 2-6 9l-3 7 6 7c4 7 7 9 13 12l8 4-4-28c-2-7-3-9-5-10l-3-2c0-1-1-1-6 1zm252-1-3 2c-2 2-3 3-5 10l-4 28a39 39 0 0 0 8-4 36 36 0 0 0 13-12l5-8-2-6c-2-6-3-7-5-9l-7-1z"/></svg>