<svg xmlns="http://www.w3.org/2000/svg" width="854.603" height="1001.814" version="1.0" viewBox="0 0 640.952 751.36"><path d="M119.363.009c-25.393 2.247-40.182 27.306-53.8 45.953-22.184 32.2-33.195 71.167-31.09 110.213-.099 33.5 7.454 67.548 27.846 94.777 6.694 10.452 14.602 20.475 22.362 29.844-19.025 6.375-29.076 26.032-45.09 36.446-15.597-3.295-32.59 4.963-36.842 20.94-8.16 20.692 3.97 42.402 8.9 62.45 7.85 21.839 18.704 45.306 39.672 57.042 1.192 24.873 21.586 43.305 32.118 64.583 42.319 66.052 81.083 134.896 130.649 195.926 17.092 20.098 44.803 42.003 72.356 29.527 19.37-9.484 20.239-37.246 5.602-51.339-13.062-14.492-26.784-31.648-32.8-49.01 21.44-8.715 17.997-35.66 18.32-54.343-1.693-8.3-.58-12.662 7.922-12.3 6.838-.37 12.141-12.414 16.78-3.953 11.624 10.65 30.347 11.416 43.416 5.483 6.159 5.987 21.858-.669 19.155 10.55.402 18.644-4.162 43.08 15.208 54.338 6.023 2.464-3.28 9.878-4.03 14.043-9.182 19.809-31.638 33.246-33.9 55.984-1.198 24.621 28.765 42.551 49.813 29.488 36.185-20.522 58.153-57.99 81.809-90.853 38.078-59.813 77.16-119.162 112.242-180.768 5.497-6.998 1.599-18.705 11.431-22.193 24.983-19.468 32.728-52.657 41.19-81.63 6.252-19.25.441-47.176-22.344-51.496-8.746-.826-18.52.326-23.109-9.204-10.197-11.701-21.665-23.232-36.22-29.294 25.336-29.936 47.148-65.221 49.298-105.423 2.43-39.693-.068-81.894-22.101-116.346-14.342-22.942-30.31-50.36-58.19-57.871C505.239-.16 486.449 19.866 492.1 40.577c5.11 21.91 19.208 41.573 21.778 63.924 6.885 28.255-.287 58.07-17.256 81.421-21.083 28.216-53.248 45.442-82.223 64.392-25.615 15.094-52.186 29.806-79.634 40.846-17.204-.006-34.982 2.342-49.41-9.057-52.29-27.241-107.618-55.02-144.333-102.892-12.401-16.09-16.74-36.174-14.638-55.988-.953-27.663 11.151-52.95 22.994-77.112 9.568-21.014-6.72-46.653-30.015-46.102ZM96.76 68.344c-14.98 43.351-15.846 95.405 12.475 133.708 26.88 40.135 70.64 64.148 110.5 89.373 17.622 10.624 36.308 19.263 54.795 28.231-15.27 5.717-30.673 12.186-43.47 22.344-39.99-22.673-82.74-44.346-112.292-80.61-24.465-27.528-47.637-61.286-45.473-100.123-.506-25.554.09-52.975 13.788-75.883 2.67-5.455 7.077-14.01 9.677-17.04zm448.026.085c22.484 32.272 27.461 74.155 22.47 111.93-8.212 46.327-42.473 82.566-76.784 112.21-25.128 18.887-52.699 34.427-80.27 49.316-13.028-10.011-28.351-16.3-43.535-22.259 54.94-26.093 108.595-57.36 152.762-99.572 19.933-24.323 34.884-53.829 36.05-85.789.888-22.113-4.615-45.795-10.693-65.836zm-.208 250.59c11.955 7.394 23.317 21.437 29.942 31.604-13.596 4.247-18.682-13.378-27.96-20.218-3.611-4.78-12.24-8.96-1.982-11.387zm-449.072.14c7.244.967 8.173 6.128 1.003 10.132-9.352 7.067-16.707 24.594-30.393 21.757 8.34-11.626 17.818-23.575 29.39-31.89zm413.348 4.275c15.182 13.453 29.47 28.448 40.505 45.49-8.362 1.067-18.482 5.212-22.28-5.342-9.655-11.824-20.912-22.172-31.532-33.088 4.122-2.845 8.622-5.394 13.307-7.06zm-373.676.213c6.79 2.734 14.274 8.894 4.22 13.665-11.799 10.33-21.04 24.13-33.317 33.491-4.326-1.008-18.84.866-11.05-6.035 11.832-14.66 23.74-31.617 40.147-41.121zm336.993 15.513c15.168 13.064 29.798 28.434 40.156 45.138-11.952 4.38-21 .551-26.733-10.819-7.328-9.951-19.291-19.1-26.212-27.442 3.99-2.257 8.463-6.446 12.789-6.877zm-301.605.06c5.675 1.534 16.415 7.212 7.14 11.816-12.477 11.43-22.826 26.082-37.275 34.932-8.25.5-14.74-1.071-6.581-8.371 10.976-13.343 21.665-29.712 36.716-38.377zm105.036 9.095c-16.65 25.304-15.062 58.343-2.731 85.045 4.454 11.045 3.197 23.484-6.373 31.344-16.079 12.83-38.492 7.26-57.345 7.722-31.693-3.282-62.71-9.782-92.098-21.956-20.014-11.743-42.781-21.181-58.742-38.3-7.71-14.726-13.044-30.673-16.636-46.88 42.817 31.623 93.727 53.434 146.667 59.916 13.312.469 14.576-15.597 23.565-22.033 18.963-20.617 42.14-37.82 63.693-54.858zm91.805 1.428c24.058 18.592 49.312 36.918 68.292 60.898 5.467 12.448 19.671 17.31 32.14 12.825 47.38-10.483 95.107-27.92 132.697-59.297-5.231 19.693-11.9 40.256-23.598 56.644-29.304 16.864-58.037 36.559-92.157 42.157-32.548 8.138-66.278 13.61-99.18 7.773-18.244-5.244-22.706-27.428-15.321-42.965 11.845-24.923 10.998-55.068-3.715-78.591zm83.64 19.65c8.032 9.167 19.88 20.949 23.835 30.435-10.902 2.593-20.311.872-26.244-9.681-8.644-9.515-18.716-19.105-26.488-28.575 9.52-10.766 19.663-6.179 26.244 5.008l1.493 1.583zM210.679 356.54c3.595 1.768 11.51 3.386 5.258 7.612-11.868 12.045-22.61 25.756-35.086 36.909-3.689-.827-19.217 2.4-13.273-3.88 11.13-15.641 24.457-29.53 38.298-42.77l4.803 2.129zm119.95 5.002c10.631 17.187 9.211 39.275 1.955 57.91-4.689 13.65-4.845 29.855-3.612 42.97-4.816 3.08-19.35 6.989-16.767-2.436 4.766-23.96-7.331-46.432-10.269-69.525 1.036-9.733 4.922-18.864 7.472-28.247 7.424-.248 14.13-.736 21.221-.672zm211.985 112.67c-40.053 63.547-78.65 128.162-121.676 189.745-4.586 5.981-13.158 17.915-5.368 4.524 30.708-60.259 58.382-121.997 87.134-183.198 14.12-2.644 28.02-6.643 40.998-12.865zm-444.081-1.416c12.583 6.385 26.402 9.287 39.871 13.006 30.834 62.64 58.585 126.778 90.61 188.833-43.07-54.642-76.2-116.179-113.91-174.695-5.476-8.973-11.498-18.46-16.571-27.144zm97.096 27.146c4.116 6.37 5.004 14.212 6.448 21.494-6.023-4.945-16.057-15.217-6.448-21.494zm250.088-.017c6.456 4.027 5.656 11.333-.365 15.28-8.291 11.421-4.412-3.697-2.092-10.273.715-1.463 1.249-4.181 2.457-5.007zm-70.426 1.178c8.326 11.727.935 29.026-6.312 36.658 1.62-12.125 1.275-25.451 6.312-36.658zm-108.832 2.176c3.732 10.97 5.88 25.794 5.78 34.886-7.602-10.426-15.113-24.114-6.336-36.331zm35.128-.77c3.893 11.461 5.897 25.794 5.87 35.992-7.766-9.63-13.814-26.342-5.87-35.991zm38.916.332c8.602 12.152.04 27.028-7.498 37.258 1.645-12.08 3.118-27.418 7.498-37.258zm69.155 6.248c6.305 25.452 2.709 52.15-5.217 76.39-3.36 14.726-2.688 1.817-2.246-6.57 1.14-23.694 2.837-47.748 7.119-71.257zm-176.516 3.37c4.119 27.004 5.34 53.605 6.439 80.802-9.966-27.167-15.181-56.514-7.14-84.657l.389 2.141z" style="fill:#fff;stroke-width:2.17612"/><path d="M114.024 36.245c-8.2 8.3-15.2 16.6-21.6 25.8-9 12.8-10.1 14.9-17.1 33.4-4.2 10.8-7.8 21.5-8 23.8-.5 5.2-2 43.8-1.8 49.2 0 2.2 1.9 12.3 4.2 22.4l4.1 18.4 10.7 18c9.8 16.4 12.3 19.8 29.3 39.1 17.8 20.2 19.3 21.7 36 34.2 13.9 10.4 23.8 16.8 49.3 31.3 17.5 10 32.2 18.3 32.6 18.4.4.1 4.1-2.7 8.2-6.3 7.1-6.3 8.1-6.8 29.6-15 12.1-4.7 21.8-8.8 21.4-9.2-.4-.4-7.4-3.8-15.7-7.6-8.2-3.8-18.8-8.8-23.5-11-4.7-2.2-12.8-6-18-8.4-5.2-2.5-13.1-6.9-17.5-9.9-4.4-3.1-19.5-13.2-33.5-22.7-19.4-13-29.6-20.7-42.4-31.9-16-14-17.2-15.3-22.4-24.3-3-5.2-8.8-15.3-12.8-22.3l-7.4-12.8-3.2-19.2c-3.4-21.3-3.5-19.9 1.2-50.4 3.3-22 10.4-41.3 22.1-60.1 4.9-7.9 8.8-14.6 8.6-14.8-.1-.2-5.7 5.2-12.4 11.9zM514.824 24.545c.2.6 4.3 7.3 9.1 15 7.4 11.8 9.5 16.3 14.2 29.7 4.8 13.8 5.9 18.4 8.8 37.3l3.2 21.6-1.7 11.6c-4.8 31.4-3.2 26.5-16.5 49.8-6.7 11.5-12.8 21.9-13.6 23-.8 1.2-9.3 8.9-18.8 17.1-12.6 10.8-23.9 19.3-41.8 31.3-13.5 9-28.1 18.8-32.4 21.8-6.7 4.6-27.3 14.8-69.6 34.4-3.6 1.7-5.9 3.2-5.3 3.5 41.4 15.7 43.9 16.8 51.3 23.4 3.9 3.5 7.5 6.3 7.9 6.2.4-.1 15.1-8.4 32.6-18.4 25.7-14.7 35.5-20.9 49.6-31.5 16.9-12.7 18.4-14.1 36-34.2 16.8-19 19.4-22.5 29-38.8l10.7-17.9 4.2-18.4c2.4-10.2 4.3-19.8 4.3-21.5.2-5.3-1.4-45.9-1.9-50.3-.3-2.3-3.8-13-7.9-23.8-7.2-18.9-7.8-20-17.9-34.3-7.4-10.4-13.9-18-22.1-26.2-6.5-6.3-11.6-11-11.4-10.4zM79.824 323.545c-11.6 12.1-18.9 21.3-22.4 28.4-.9 1.8-1.7 3.4-1.7 3.6 0 .3 5.9 1.6 9 2 1.4.1 5.1.5 8.3.7l5.7.6 4.2-5.7c2.2-3.1 9.8-11.4 16.8-18.4l12.8-12.6-3.7-3.4c-4.1-3.6-12.1-7.8-15-7.8-1.1 0-6.9 5.3-14 12.6zM540.824 313.245c-2.5 1.2-6.2 3.7-8.2 5.6l-3.8 3.4 11.4 11c6.4 6 13.8 14 16.6 17.7 2.8 3.8 5.6 7 6.2 7.2 2.6.9 22.7-1.5 22.7-2.6s-4.1-8-7.7-13.2c-6.7-9.6-28.1-31.4-30.7-31.3-1.1 0-4.1 1-6.5 2.2zM116.724 328.745c-6.9 7-14.7 15.3-17.3 18.5-6 7.1-14.7 19.7-14.7 21.3 0 .6-.7 1.7-1.5 2.4s-1.5 1.6-1.5 2.1c0 1.1 7.2 3 10.7 2.8 1.5-.1 4.6.3 6.9.9 6.1 1.8 12.5.9 14.6-1.9 11.4-14.9 24.7-29.1 37.3-39.6l4.9-4.2-5.2-5c-2.9-2.8-5.9-5.1-6.7-5.1-.7 0-2-.6-2.7-1.3-1.3-1.3-8.4-3.7-11-3.7-.8 0-7 5.8-13.8 12.8zM504.224 317.345c-1.6.6-3.6 1.7-4.3 2.3-.7.7-2 1.3-2.7 1.3-.8 0-3.8 2.3-6.7 5.1l-5.2 5 4.9 4.2c12.7 10.6 25.7 24.4 37.2 39.5 1.9 2.4 3 3 6.5 3 2.4.1 6.1-.4 8.3-1 2.2-.6 5.1-1 6.5-.9 3.2.2 11-1.9 11-3 0-.4-.5-1.1-1-1.4-.6-.4-1.6-2.1-2.4-3.9-3-7.1-14.6-21.4-31.6-38.8-13.2-13.6-13.9-14-20.5-11.4z"/><path d="m296.024 329.745-19.1 7.7-13.1 11.4c-7.2 6.3-17.9 15-23.9 19.2-6.4 4.6-16.8 13.6-24.9 21.6-11.3 11.2-14.8 15.3-18.2 21.5l-4.2 7.8h-4.9c-7.8 0-39.8-7.6-57.3-13.6-18-6.2-48.2-20.4-66.2-31.4-9-5.4-14.4-9.6-21.8-16.9l-9.7-9.6v7.9c0 6.7.8 10.3 5.1 23.9 6.1 19.2 15.9 41.3 19.7 44.4 1.5 1.3 9.2 6.1 17.2 10.7s21.7 12.6 30.5 17.6c12.6 7.4 17.7 9.7 24 11.3 4.4 1 17 4.1 28 6.8 35.7 8.9 34.4 8.7 64 9.4l27 .6 10.1-3.3 10.2-3.3 6.6-9 6.6-8.9v-10.1c0-9.9-.1-10.2-5.6-23.5-5-12-5.7-14.7-6.7-24.2-1-10.6-1-11 2.3-23.5 2.8-10.8 4.2-14.1 8.8-21.3l5.4-8.5 13.8-7.7c7.6-4.2 15.5-8.2 17.7-8.8 5-1.5 7.4-.6 24.6 9l13.5 7.5 5.5 8.6c4.7 7.3 6 10.5 8.8 21.3 3.2 12.7 3.2 12.9 2.1 23.6-1 9.6-1.8 12.5-6.7 24.1-5.4 13.1-5.5 13.3-5.5 23.3v10.2l6.6 8.9 6.6 9 10.2 3.3 10.1 3.3 26.5-.6c14.6-.3 27.9-.9 29.5-1.2 3.7-.6 24.2-5.5 51.1-12.1l20-5 16.5-9.5c14.3-8.2 25.9-15 40.4-23.4 2.2-1.3 5.2-3.3 6.7-4.6 3.8-3.2 13.7-25.4 19.7-44.4 4.3-13.6 5.1-17.2 5.1-23.9v-7.9l-9.7 9.7c-7.7 7.5-12.6 11.3-22.6 17.3-18 10.8-47.5 24.8-65.7 31.1-17 5.8-49.1 13.4-57 13.4h-4.9l-4.2-7.8c-3.4-6.3-6.7-10.2-18.3-21.5-8-8-18.7-17.2-24.9-21.6-5.9-4.3-16.6-12.9-23.8-19.2l-13.1-11.4-19.1-7.7c-25.2-10.1-24.2-10.1-49.4 0zm-54.9 109.3c5.5 1.4 7.9 2.8 11.3 6.1 2.4 2.3 4.3 5.1 4.3 6.3 0 1.1-1.8 4.1-4 6.6-4.6 5.4-8.9 6.9-20.2 6.9-14.1 0-36.8-8.4-36.8-13.6 0-.7-.7-1.7-1.6-2.2-1.9-1.1-1.1-4.8 2-8.6 1.6-2.1 3.3-2.9 6.6-3.3 2.5-.3 4.7-.7 4.9-.9 1.1-1 27.5 1 33.5 2.7zm202.2-.6c2 1.3 5.4 7.1 5.4 9.3 0 .5-.7 1.2-1.5 1.6-.8.3-1.5 1.1-1.5 1.9 0 3.2-6.1 6.4-22 11.7-5.6 1.8-18.9 2.4-25.2 1.1-5-1.1-6.3-1.9-9.8-5.9-2.2-2.6-4-5.6-4-6.7 0-3.2 7.8-10.2 13.5-12.1 9.6-3.2 40.5-3.8 45.1-.9z"/><path d="M155.124 342.245c-12 12.2-21 22.4-26.6 30.2-3.6 5-9.8 15.2-9.8 16.1 0 1.1 6 2.7 11.7 3 3.4.1 7.1.7 8.1 1.3 1 .5 3.7.7 6.1.4 3.7-.5 4.7-1.3 8.9-6.7 8.2-10.7 20-23.3 29.8-31.8l9.5-8.3-5.2-4.8c-2.8-2.6-6.2-5-7.5-5.3-1.3-.3-2.4-.9-2.4-1.3 0-.7-3.4-2-9.5-3.6-1.6-.4-4.5 2-13.1 10.8zM470.524 331.945c-5.5 1.6-12.3 5.6-17 10l-4.9 4.5 9.5 8.3c9.8 8.5 21.6 21.1 29.8 31.8 4.2 5.4 5.2 6.2 8.9 6.7 2.4.3 5.1.1 6.1-.4 1-.6 4.7-1.2 8.1-1.3 6.6-.4 11.7-1.9 11.7-3.6 0-.5-.4-1-1-1-.5 0-1-.6-1-1.4 0-2.3-9.2-15.7-17-24.6-9.9-11.4-28.2-30-29.5-29.9-.5 0-2.2.4-3.7.9zM185.924 364.145c-16.1 17.3-21.8 24.4-27.8 35l-3.2 5.6 4.3 1.2c2.3.6 5.1 1.1 6.1.9 1-.1 4.4.3 7.4.9 3 .6 6.9 1 8.5.9 3.2-.2 7.5-2.6 7.5-4.1 0-2 12.2-15.5 26.2-29.1 8.3-8 14.6-14.5 14.1-14.5-.4 0-2.9-2-5.5-4.5s-5.4-4.5-6.2-4.5c-.8 0-2.1-.6-2.8-1.3-1.4-1.3-8.4-3.7-11.1-3.7-.8 0-8.7 7.8-17.5 17.2zM431.224 348.345c-1.6.6-3.6 1.7-4.3 2.3-.7.7-2.2 1.3-3.2 1.3-1.1 0-2.4.8-2.9 1.7-.5 1-2.7 3.1-4.9 4.8l-3.9 2.9 14.7 14.3c13.9 13.4 26 26.9 26 28.9 0 1.5 4.3 3.9 7.5 4.1 1.7.1 5.5-.3 8.5-.9 3-.6 6.4-1 7.4-.9 1 .2 3.8-.3 6.1-.9l4.3-1.2-3.2-5.6c-6-10.6-11.7-17.7-27.8-35-17.1-18.4-17.3-18.5-24.3-15.8zM83.624 462.745c33.4 53.4 83.4 133.1 98.8 157.8 17 27.3 22.1 34.4 42 59.5l22.6 28.4 9.5 5.9c6.3 3.9 11.2 6.2 14.2 6.7 2.5.4 4.6.6 4.8.4.1-.1-3.3-2.4-7.7-5-7.9-4.8-7.9-4.8-20.9-24-11.2-16.4-14.5-22.3-23.2-41.1-5.6-12-15.1-32.3-21.1-45.1-6-12.7-12.2-26-13.8-29.5-8.8-19.3-45.4-97.4-45.7-97.7-.2-.2-7-1.6-15.1-3.1-15.8-2.9-16.8-3.3-37.2-14.6-6.2-3.5-11.5-6.4-11.7-6.4-.2 0 1.8 3.5 4.5 7.8zM553.724 459.545c-4.7 2.5-12.1 6.6-16.5 9.1-7.2 4-9.6 4.8-23.3 7.3-8.4 1.5-15.4 2.9-15.6 3.1-.3.3-29 61.6-38.8 82.9-1.7 3.6-6.1 13-9.8 21-3.8 8-14.8 31.5-24.5 52.4-16.8 36.1-18.2 38.7-30.6 57-12.9 19.1-12.9 19.1-20.9 24-4.4 2.7-7.9 5-7.7 5.2.2.2 2.4 0 4.9-.4 2.7-.6 8.4-3.3 14.1-6.9l9.5-5.9 22.6-28.5c21.4-26.9 24.1-30.8 50.4-72.9 32.5-51.9 89.4-142.8 92.9-148.3 1.3-2 2.2-3.7 2.1-3.7-.2 0-4.1 2.1-8.8 4.6zM229.524 497.245l-4.6 7.2-2.1 21-2.2 21 5.5 24.6 5.5 24.7 7.1 13.3c4 7.4 7.4 13.6 7.7 13.9.8.7-1.2-65.8-2.2-76-.3-2.5-.7-6.8-.9-9.5-2.6-27.5-3-30.2-5.4-35.5-1.4-3-2.8-6.9-3.1-8.7l-.6-3.2zM264.624 493.545c-1.9 1.4-3.9 2.8-4.6 3.2-.6.4-2.2 5.5-3.5 11.3l-2.4 10.5 5.6 12.3c5.2 11.2 6.3 12.9 12.6 18.7 3.8 3.5 7.2 6.3 7.7 6.4.4 0 .5-1.7.3-3.8-.2-2-.7-8.9-1-15.2-.4-6.3-1.6-17.1-2.8-23.8-1.9-10.7-2.6-12.9-5.4-16.5-1.8-2.3-3-4.5-2.8-4.9.9-1.4-.1-.9-3.7 1.8zM298.624 494.445c-4.5 3.3-4.8 3.7-6.8 12.5-1.2 5-2.1 10-2.1 11s2.7 7.4 6 14.2c5.4 11.1 6.6 12.9 13.1 18.8l7.2 6.5-.6-7.5c-.4-4.1-.9-11.8-1.2-17-.3-5.2-1.5-14.7-2.7-21-1.8-9.9-2.5-12.1-5.4-15.6-1.8-2.3-3-4.4-2.7-4.8 1.5-1.5-.6-.3-4.8 2.9zM337.924 491.445c.4.4-.8 2.6-2.6 4.9-2.9 3.5-3.6 5.7-5.4 15.6-1.2 6.3-2.3 15.8-2.7 21-.3 5.2-.8 12.9-1.1 17l-.7 7.4 7.9-7.3c7.1-6.6 8.2-8.2 13.2-18.9l5.4-11.7-1.8-10c-1.6-9-2.1-10.3-5.2-13.3-2.9-2.7-9.1-6.9-7-4.7zM372.924 491.545c.4.5-.8 2.8-2.6 5.1-2.8 3.6-3.5 5.8-5.4 16.5-1.2 6.7-2.4 17.2-2.7 23.3-.4 6-.8 12.9-1.1 15.2-.2 2.4-.1 4.3.3 4.3.5-.1 4-3.1 8-6.8 6.5-6.1 7.6-7.7 12.2-18 2.8-6.3 5.1-12.4 5.1-13.7 0-1.3-.9-6.3-2.1-11.1-1.4-6.2-2.7-9.3-4.2-10.4-4.5-3.3-8.1-5.4-7.5-4.4zM406.924 492.145c.3.7-1 4.5-2.7 8.3-2.3 4.9-3.5 9.4-3.9 14.5-.4 4.1-.9 9.1-1.1 11-.8 7-2.4 27.7-2.9 38.5-.9 18.4-1.8 59-1.3 58.5.2-.3 2.1-3.7 4.2-7.5 2.1-3.9 5.3-9.8 7.1-13.1 2.7-4.9 4.5-11.3 8.9-31l5.6-24.9-2.2-21-2.1-21-4.4-6.8c-4.1-6.2-6.1-8.4-5.2-5.5zM192.024 493.845c-3.8 1.8-4.3 2.5-6.3 8.8l-2.3 6.9 5.5 7.7c4.6 6.4 6.8 8.5 12.9 12.2 4.1 2.4 7.6 4 7.8 3.4.7-2.1-2-20.7-4.1-28.2-1.8-6.3-2.8-8.2-5-9.5-1.5-.9-2.8-2-2.8-2.4 0-1.2-1-1-5.7 1.1zM443.724 492.645c0 .5-1.3 1.6-2.9 2.6-2.3 1.3-3.2 3.1-4.9 9.4-1.9 6.9-4.8 28-4 28.8.2.2 3.6-1.6 7.6-4 6-3.5 8.2-5.6 12.9-12.1l5.6-7.8-2.2-6.8c-1.7-5.2-2.9-7.1-4.9-8.2-4-2-7.2-2.9-7.2-1.9z"/></svg>