<svg xmlns="http://www.w3.org/2000/svg" width="352" height="348" version="1.0" viewBox="0 0 264 261"><path d="M136 122c-12 0-23 9-24 20-1 8-3 17 3 24 8 11 26 14 35 3 6-7 5-17 7-26a21 21 0 0 0-22-21zm14-88c-11 2-20 9-29 16-8 7-12 20-5 29 5 8 15 9 24 8 8 1 16 4 24-1 10-6 11-19 9-30 0-11-8-21-19-22h-4zm123 211c-11 1-18 10-22 19-5 9-6 21 2 28s17 10 26 14c8 5 18 9 26 4 11-5 14-19 8-29-5-10-8-20-15-29-7-6-16-6-25-7zm14-157c-14 0-26 13-23 26a195 195 0 0 1 8 80c-1 17-6 33-10 49-3 12 9 25 21 23 9 0 15-8 19-15 16-5 25-25 18-40 1-3 1-7 3-9 10-4 21-7 31-12 11-6 13-22 4-31-6-7-17-7-25-10-4-2-8-2-11-5 0-4-4-9-1-13a29 29 0 0 0-16-37c-6-2-12-6-18-6zm15 6c1 1-1-1 0 0zm-11-58c-12 3-22 10-33 15a21 21 0 0 0-9 28c5 10 8 22 17 28 11 7 27 1 31-11 5-11 12-23 16-35 3-13-9-26-22-24zM182-3c-9 3-15 13-14 23l-1 10a23 23 0 0 0-13 25c1 13-1 26 1 39 3 8 10 15 9 23-1 5-8 2-11 5-13 4-16 19-17 31-1 13-3 28 6 39 4 6 12 9 18 8 4 6 12 6 17 10a31 31 0 0 1 9 25c1 9-11 13-13 21-3 9-1 19-2 29l1 49c1 13 17 21 28 15 13-7 23-18 34-28 22-21 37-48 47-77a214 214 0 0 0 7-118A201 201 0 0 0 199-1c-5-3-11-4-17-2ZM94 93c-10 2-15 10-18 18-11 28-10 59-10 88 2 12 6 24 10 36 4 13 11 26 16 39-5 8-6 19 1 27a243 243 0 0 0 39 39l31 19c12 4 26-5 27-17 2-16 1-32 1-48 0-27 0-55-2-82-1-11-11-22-23-20-5-1-9-5-14-5-1-13-9-28-22-32a42 42 0 0 0-8-36c-3-4-5-9-6-14a20 20 0 0 0-22-12ZM164-9c-12 1-22 9-32 16a285 285 0 0 0-38 38c-8 10-5 28 7 34 10 5 21 0 28-8a57 57 0 0 1 37-20c10-1 20-8 21-18 1-9 0-18-1-27a21 21 0 0 0-22-15zM57 33a21 21 0 0 0-18 26l14 29c-2 3-4 5-8 6-13 6-22 23-16 37 3 4 0 9 0 14l-30 10c-12 5-15 23-6 32 8 6 19 8 28 11 3 2 9 1 9 6 1 4 1 8-1 11-4 15 5 31 19 36 3 3 5 6 2 9-4 9-10 18-12 27-4 13 9 27 22 25 9-2 17-8 25-12 10-5 23-9 26-20 4-13-6-23-10-34-7-15-11-30-15-46-2-6 0-13-1-20 0-22 1-44 10-64 5-13 13-25 17-39 3-11-4-22-14-26-11-6-22-13-34-17l-7-1Zm78 34c-14 0-29 4-39 14-8 9-7 23 1 31 4 10 9 20 17 27 10 7 22 4 32-1 5-3 9 2 13 2 16 1 28-15 25-30a79 79 0 0 0-17-31c-8-10-20-12-32-12Z" style="fill:#fff;stroke-width:.734547" transform="scale(.75)"/><path d="m129 23 2 42v24l-3 3a49 49 0 0 0-11 19v22l1 2 2-2 3-6c1-4 5-10 7-10l1 12v12l5 1c6 2 11 7 15 17 3 4 3 7 3 13 0 11-1 16-7 21-7 7-9 8-12 9-3 0-4 3-3 11l1 23 1 17c1 1 2 0 4-1a32 32 0 0 1 6-4l7-5c19-16 21-19 30-32a146 146 0 0 0 9-145 156 156 0 0 0-41-49c-2-2-18-12-20-12v18zm46 51c3 1 6 6 6 8s-1 2-2 1c-2-2-4-1-8 3-5 5-9 5-16 1-5-3-8-4-11-1-4 2-4 0-1-3l5-4a24 24 0 0 1 27-5z"/><path d="M119 10a74 74 0 0 0-13 8 303 303 0 0 0-24 25l-2 3-6 8a34 34 0 0 0-3 6l-3 6a128 128 0 0 0-11 29 154 154 0 0 0 3 79 133 133 0 0 0 12 27l2 6 6 8a165 165 0 0 0 30 30l9 5a99 99 0 0 1 9 5v-46l-1-49c0-3-2-3-2 0-1 4-2 3-5-2 0-2 0-2-1 1 0 5-3 5-3 0-1-4-3-5-4-2l-1 4a28 28 0 0 0-1 8v6l-3-2c-6-3-7-7-7-15l-1-22a14 14 0 0 0-4-4c-2-3-3-3-8-3-6 0-8-1-9-6-1-4 0-4 3-8 3-3 3-4 3-8l-2-7-2-2-2-4c-4-4-6-14-6-23 1-10 2-12 9-23a58 58 0 0 1 38-24l7-1v-8l-1-8-6 3z"/><path d="m50 53 7 15-3 3a85 85 0 0 0-5 7c-3 4-4 5-6 5-4 0-8 4-8 7l2 6c2 3 2 3 1 8l-2 11-1 5-13 4-15 5c-4 0-2 1 12 5a368 368 0 0 1 14 5l3 5 2 10v8c-4 5-1 13 5 13 2 0 3 1 5 5l6 7 2 3-7 15c-5 8-7 15-7 15l15-7 13-7-6-11-8-21-4-13-1-5-1-3-1-1v-16c0-30 3-44 17-72 4-9 5-11 3-12a690 690 0 0 0-26-13l6 14zm165-9-14 7c-8 4-7 4-13-1-3-2-5-3-3-1l17 35a162 162 0 0 1 4 15l3 9c1 0 1 2-1 3v3c2 1 2 24 0 35a164 164 0 0 1-15 48l-5 11 4-2 16 6 15 8-7-15-8-15 4-5c5-9 6-10 8-10 4 0 7-4 7-8l-1-4c-2 0-2-4 0-8a55 55 0 0 0 2-10v-5l8-3 16-5 7-2-4-2c-3 0-10-2-16-5-11-3-11-4-11-7 0-2 0-5-3-14-1-4-1-4 1-7 4-5 1-11-5-12-4 0-5-1-8-7a44 44 0 0 0-5-7 79 79 0 0 1 6-14l7-14-6 3zM89 67c-7 3-8 5-6 11l3 7 2 3c0 2 4 5 7 5l10-3c9-4 9-4 13-1 3 2 3 2 4 0 2-1 2-6-1-10l-4-6c-3-7-6-8-15-8l-13 2z"/></svg>