<svg xmlns="http://www.w3.org/2000/svg" width="352" height="348" version="1.0" viewBox="0 0 264 261"><path d="M135.516 122.4c-11.395-.092-22.315 8.444-23.423 20.079-1.392 7.962-2.845 16.994 2.767 23.793 7.72 10.762 25.713 13.748 34.711 2.977 6.41-6.992 5.792-17.162 7.14-25.972.447-11.526-9.639-21.536-21.196-20.878zm14.713-88.19c-11.104 1.905-20.471 9.167-29.096 16.003-8.287 6.65-11.687 19.507-4.967 28.39 5.01 8.15 15.284 9.29 24.016 8.802 7.848.312 16.333 3.91 23.468-1.162 10.772-5.88 11.218-19.653 9.652-30.44-.39-10.514-8.29-21.063-19.311-21.455-1.253-.029-2.51-.172-3.762-.139zm122.833 211.042c-10.867.335-18.058 9.793-21.784 19.06-5.355 8.444-5.866 20.628 1.956 27.752 7.357 6.423 17.057 9.481 25.565 14.131 7.944 4.344 17.875 8.527 26.456 3.356 10.307-4.927 13.347-18.87 7.836-28.493-4.907-9.622-8.628-20.142-15.334-28.638-6.418-6.479-16.065-6.185-24.482-7.18zm13.436-157.01c-13.406-.381-25.791 12.817-22.415 26.291 8.21 25.71 11.171 53.065 8.273 79.924-1.379 16.559-6.426 32.469-10.767 48.388-2.342 12.295 9.086 24.874 21.611 23.027 8.812-.294 14.935-7.625 19.145-14.623 15.853-5.257 24.275-25.487 17.61-40.61 1.23-2.822.776-6.989 2.69-9.06 10.434-3.966 21.529-6.578 31.464-11.643 10.918-5.948 12.994-22.484 3.946-30.983-6.515-7.023-16.951-6.789-25.294-10.429-3.633-1.55-7.782-1.967-10.586-4.235-.322-4.593-3.882-9.303-.92-13.554 5.76-14.017-1.9-31.26-15.92-36.79-6.42-1.735-11.924-6.097-18.837-5.702zm15.217 5.69c1.26 1.16-.54-.45 0 0zm-11.108-57.453c-11.734 2.33-21.642 9.76-32.333 14.769-10.419 4.741-14.843 18.33-9.192 28.286 5.329 9.325 7.863 21.306 17.295 27.557 10.575 7.139 26.295 1.38 30.278-10.626 5.283-12.017 12.286-23.417 16.042-36.023 2.864-13.032-8.863-25.672-22.09-23.963zM182.003-3.085c-9.466 3.098-14.782 13.04-14.029 22.682-.547 3.32.47 7.403-.916 10.357-9.748 3.932-15.307 14.882-13.408 25.106.927 12.93-.217 26.036 1.853 38.844 2.67 7.664 9.57 14.673 8.759 23.224-1.646 4.843-7.927 2.175-11.424 4.453-12.547 4.714-15.954 19.442-17.216 31.348-.46 13.274-2.575 28.453 6.74 39.418 4.05 5.403 11.192 8.128 17.833 7.352 3.957 5.928 11.463 6.376 17.052 9.786 6.174 6.69 10.114 15.906 8.726 25.13.554 9.707-11.274 12.861-13.46 21.469-2.962 9.102-.746 19.002-1.315 28.441.401 16.49-.299 33.067.807 49.5 1.345 12.634 16.459 20.607 27.803 15.074 12.948-7.082 23.272-18.077 34.203-27.842 21.943-21.127 37.09-48.505 47.364-76.963 13.198-37.865 15.525-79.615 6.33-118.658-7.044-26.873-17.197-53.64-34.981-75.358-14.943-19.955-32.73-38.211-54.063-51.326-5.176-2.883-10.927-3.591-16.658-2.037ZM93.645 92.837c-9.293 1.65-14.959 9.896-17.644 18.346-11.336 27.76-10.346 58.37-10.536 87.777 1.955 12.169 6.423 23.832 9.997 35.616 4.217 13.697 11.6 26.263 16.354 39.64-5.263 7.93-5.53 18.893.888 26.272 11.533 14.612 24.882 27.883 39.449 39.465 9.633 7.16 20.328 12.782 30.783 18.554 11.948 4.685 26.083-4.298 27.55-16.907 1.87-15.87.41-31.936.645-47.883-.545-27.21-.3-54.473-1.859-81.641-.94-11.427-11.283-21.835-23.12-20.365-4.801-1.147-8.968-4.898-14.27-4.428-.999-13.556-8.38-27.972-21.856-32.661 3.563-12.385-.127-26.013-7.754-36.112-2.957-4.082-5.368-8.416-6.662-13.313-3.264-8.779-12.847-13.776-21.965-12.36Zm70.77-102.262c-12.07 1.684-22.307 9.371-31.93 16.347-14.07 11.453-26.91 24.488-38.48 38.439-8.266 10.232-5.431 27.779 7.09 33.198 9.673 5.086 21.22.076 27.663-7.878 9.446-11.071 22.671-18.918 37.301-20.329 9.798-.603 19.565-7.052 21.256-17.192.915-8.996-.021-18.2-1.403-27.112-2.465-9.49-11.674-16.205-21.497-15.473zM57.352 33.417c-12.427.76-21.683 14.141-18 26.036 3.316 9.927 8.816 18.953 13.254 28.398-1.752 2.958-3.742 5.433-7.269 6.132-13.8 5.87-22.547 23.04-15.912 37.202 2.97 4.348-.136 9.27-.53 13.95-9.753 3.746-19.725 6.28-29.713 9.79-12.198 4.98-15.37 22.898-5.744 31.844 7.396 6.83 18.065 7.936 27.09 11.775 3.107 1.935 9.478.991 9.263 5.847 1.262 3.874 1.464 7.562-.456 11.234-4.002 14.33 5.036 30.995 19.108 35.684 2.198 2.869 4.804 5.585 1.455 8.842-4.049 9.028-9.61 17.565-12.28 27.103-3.584 13.117 9.19 26.925 22.534 24.498 9.09-1.605 16.74-7.6 25.096-11.287 9.375-5.488 22.328-8.851 25.576-20.658 3.66-12.377-5.595-23.034-9.874-33.892-6.793-14.893-10.863-30.07-15.115-45.804-2.118-6.384-.285-13.535-.712-20.23.241-21.585 1.164-43.828 10.23-63.814 4.966-13.257 12.801-25.372 16.773-38.982 2.754-10.93-4.125-22.201-14.233-26.419-11.245-5.56-22.106-12.22-33.87-16.55-2.222-.247-4.422-.93-6.67-.699Zm77.496 33.847c-13.812.278-28.773 3.673-38.863 13.667-8.35 8.738-7.151 23.4 1.198 31.705 3.953 9.73 8.918 19.806 17.255 26.482 9.55 7.062 21.86 3.467 31.83-.58 4.36-3.051 8.394 1.915 13.108 1.478 15.411 1.45 27.862-14.96 24.533-29.58-2.503-11.796-9.085-22.445-16.485-31.803-7.99-9.567-20.786-11.71-32.576-11.37Z" style="fill:#fff;stroke-width:.734547" transform="scale(.75)"/><path d="M129.4 22.7c.3 9.8.8 28.8 1.2 42.1l.6 24.4-3 3.1c-5.4 5.8-10 13.7-11.2 19-1.4 7.2-1.4 19 0 21.8l1.3 2.3 1.8-2.3c1-1.3 2.4-4.2 3-6.4 1-3.9 5.3-9.7 7.1-9.7.4 0 .8 5.3.8 11.8v11.8l4.5 1.3c6.6 2 11.2 6.8 15.9 16.6 2.3 4.8 2.8 7.4 2.9 13.6.1 11-1.6 16-7.2 21.1-7.1 6.5-8.8 7.7-11.7 8.4-3.4.9-4.1 3.2-3.3 11.2.4 3.7.8 14.1.8 23.1 0 9.1.5 16.9 1 17.4.6.6 2 .1 3.8-1.3 1.5-1.2 4.2-2.8 5.8-3.5 1.7-.7 5-3 7.4-5.1 18.7-16.4 21.3-19.1 30.5-32.6 8.8-13.1 18.2-35.7 21-51 6.3-33.7 2.5-62.3-12.4-94.3-6.2-13.3-24.1-35.4-36-44.5-2.5-1.9-4.7-3.7-5-4-1.6-1.8-18.3-12-19.7-12-.2 0-.2 8 .1 17.7zm45.1 50.9c3.2 1.5 6.5 6 6.5 8.8 0 1.8-1.5 2.1-2.5.6-1.2-1.9-3.5-1-7.5 3-5.1 5.1-9.4 5.4-16 1-5.1-3.4-8-3.7-11.5-1.4-3.1 2-3.4.1-.4-2.4 1.2-.9 3.5-3 5.3-4.6 7.4-6.8 17.9-8.8 26.1-5z"/><path d="M119.4 9.6c-4.9 2.6-8.1 4.7-13.1 8.7C102.1 21.6 82 42 82 42.9c0 .4-.9 1.9-2 3.2-3.3 4.1-3.5 4.3-5.7 7.9-1.1 1.9-2.4 4.6-2.8 6-.5 1.4-1.8 4.1-3.1 6.1-3.5 5.5-9.1 19.8-11.3 28.8-6.2 24.9-5.3 56.9 2.4 79.6 2.7 8.1 9.2 22.7 10.4 23.5.5.3 1.2 1.6 1.6 3 .4 1.4 1.7 3.9 2.9 5.6 1.2 1.7 3.7 5.5 5.8 8.5 4.3 6.3 17.2 19.8 24.3 25.4 2.8 2.2 5.2 4.2 5.5 4.6.3.3 4.1 2.5 8.5 4.9 4.4 2.3 8.6 4.7 9.3 5.3 1.1.9 1.3-6.9.7-45.9-.3-25.8-.8-47.9-1.1-49.2-.6-2.8-2.2-2.9-2.6-.2-.6 3.9-2.3 2.9-4.4-2.5-.7-1.6-.9-1.3-1.2 1.8-.4 5-2.8 4.9-3.7-.3-.7-4.2-2.2-5.2-3.1-2.3-.3 1-1 2.9-1.6 4.3-.6 1.4-1 5.1-1 8.2l.2 5.7-3.5-2.1c-5.1-2.9-6.7-6.6-6.4-14.6.2-6.1-.6-16.6-1.6-21.8-.3-1.1-1.7-3.3-3.1-4.7-2.3-2.3-3.5-2.7-8.4-2.7-6.5 0-7.7-.9-9-6.5-.7-3.2-.5-3.9 2.7-7.2 3.2-3.3 3.5-4 3.1-8.4-.3-2.6-1.2-5.5-2.1-6.4-1-.9-1.7-2-1.7-2.5s-1.1-2.1-2.4-3.7c-3.9-4.6-6-14-5.3-23.7.7-9.4 1.7-12 9.1-22.3 9.8-13.5 23.1-22.3 37.1-24.5l7.6-1.2-.3-7.8c-.1-4.3-.5-7.8-.9-7.8-.3 0-2.8 1.2-5.5 2.6z"/><path d="m49.5 53.3 7.2 14.3-2.4 3c-1.4 1.6-3.8 5-5.5 7.6-2.4 4-3.5 4.8-5.9 4.8-3.6 0-7.9 3.9-7.9 7.2 0 1.3.9 3.8 2 5.6 1.8 3 1.9 3.6.6 8.5-.7 2.8-1.7 7.5-2.1 10.4l-.7 5.1-12.8 4.6c-7 2.5-13.8 4.6-15 4.6-3.8 0-1.8.9 11.7 5.5 7 2.3 13.6 4.6 14.5 5 1 .4 1.9 2.3 2.3 4.8.4 2.3 1.3 6.8 2.1 10 1.3 5.1 1.3 6-.1 8-3.5 5-.2 12.7 5.6 12.7 1.8 0 3.1 1.2 5.3 5 1.6 2.7 4.1 6.1 5.4 7.5l2.5 2.7-7.6 15c-4.2 8.2-7 14.8-6.3 14.6.7-.2 7.1-3.4 14.3-7.2l13-6.9-5.4-10.6c-2.9-5.8-6.7-15.1-8.3-20.6-1.7-5.5-3.5-11.4-4-13.1-.6-1.7-1-4-1-5.3 0-1.2-.7-2.4-1.5-2.7-.8-.4-1.2-1.1-.9-1.6.4-.6.6-7.7.5-15.9-.4-29.6 2.8-43.4 16.4-71.4 4.8-9.7 5.2-11.1 3.8-12-2.8-1.7-25.8-13.4-26.4-13.5-.3 0 2.7 6.4 6.6 14.3zM214.5 44.1c-3.3 1.7-9.3 4.9-13.3 7-7.9 4.4-7.3 4.4-13-.9-2.7-2.4-5.2-3.1-3.4-1 2.1 2.6 15.1 29.5 17 35.3 1.1 3.3 2.8 9.9 3.8 14.7 1.2 5.6 2.3 8.8 3.1 8.8 1.7 0 1.6 1.5-.2 3-1.2 1-1.3 1.6-.4 2.6 1.6 1.9 1.6 24.8 0 35.4-2.4 15.8-7.7 32.5-15.2 47.5-4.9 9.8-6.3 13.3-4.7 11.9 1.3-1.2 2.8-2.4 3.5-2.8.6-.3 7.8 2.8 15.9 6.9 8.1 4.1 14.9 7.3 15.1 7.1.2-.1-3-6.9-7.2-14.9l-7.4-14.6 3.4-5.3c5.7-8.9 6.5-9.8 8.9-9.8 3.4 0 6.6-4 6.6-8.3 0-2-.4-3.7-.9-3.7-1.9 0-2.1-3.8-.6-8.1.8-2.4 1.8-6.7 2.1-9.5l.6-5.1 8.2-2.8c4.4-1.5 11.5-3.9 15.6-5.3l7.4-2.6-4.5-1.1c-2.4-.5-9.5-2.8-15.7-5-10.9-3.9-11.2-4.1-11.2-7 0-2.9-.5-5.1-3-14.2-1.1-3.8-1-4.5.9-6.9 4.1-5.2 1.5-11.2-5.4-12.3-3.4-.5-4.2-1.3-7.7-7.1-2.2-3.6-4.3-6.6-4.7-6.8-.4-.1 2.4-6.4 6.1-13.8 3.8-7.5 6.8-13.8 6.6-14-.2-.1-3 1.1-6.3 2.7zM88.8 67.2c-7.2 2.7-8.2 4.7-5.7 11.2 1 2.7 2.5 5.6 3.3 6.5.9 1 1.6 2.3 1.6 2.9 0 2.2 4 5.2 6.8 5.2 1.5 0 6-1.4 10.1-3 8.7-3.6 9.4-3.6 13.1-1 2.6 1.9 3 1.9 4.5.4 1.9-1.9 1.3-6-1.6-10.8-1-1.7-2.6-4.4-3.5-6.1-3.5-6.2-6.3-7.5-15.6-7.4-4.8 0-9.2.7-13 2.1z"/></svg>