<?xml version="1.0" encoding="UTF-8" standalone="no"?>
<svg
   version="1.0"
   width="670pt"
   height="546pt"
   viewBox="0 0 670 546"
   preserveAspectRatio="xMidYMid"
   id="svg125"
   sodipodi:docname="hecata1.svg"
   inkscape:version="1.2.2 (b0a8486541, 2022-12-01)"
   xmlns:inkscape="http://www.inkscape.org/namespaces/inkscape"
   xmlns:sodipodi="http://sodipodi.sourceforge.net/DTD/sodipodi-0.dtd"
   xmlns="http://www.w3.org/2000/svg"
   xmlns:svg="http://www.w3.org/2000/svg">
  <defs
     id="defs129" />
  <sodipodi:namedview
     id="namedview127"
     pagecolor="#ffffff"
     bordercolor="#666666"
     borderopacity="1.0"
     inkscape:showpageshadow="2"
     inkscape:pageopacity="0.0"
     inkscape:pagecheckerboard="0"
     inkscape:deskcolor="#d1d1d1"
     inkscape:document-units="pt"
     showgrid="false"
     inkscape:zoom="1.2462757"
     inkscape:cx="414.83598"
     inkscape:cy="334.19572"
     inkscape:window-width="2560"
     inkscape:window-height="1417"
     inkscape:window-x="0"
     inkscape:window-y="23"
     inkscape:window-maximized="1"
     inkscape:current-layer="svg125"
     showguides="false" />
  <path
     style="fill:#ffffff;stroke-width:0.601793"
     d="m 507.16575,55.540088 c -12.51288,0.07275 -23.08816,11.530806 -22.67419,23.943604 -0.64781,37.260008 -0.93015,74.548578 -0.94887,111.801858 -0.44737,4.02832 3.08461,7.50114 1.32461,11.36323 -1.52434,17.33366 -0.88751,34.81109 -1.31877,52.20362 -0.37224,8.26164 -0.47464,17.50563 5.47646,23.94936 -6.96402,7.88862 -5.24692,18.82167 -5.41731,28.48527 0.0929,38.81497 -0.18537,77.65143 0.13884,116.45301 0.19882,9.6328 7.52098,17.1121 15.74054,21.13467 22.03374,13.35523 43.83658,27.15604 66.16347,39.98783 11.13662,6.05286 26.20911,0.13972 30.81503,-11.5429 5.68645,-14.37068 10.31885,-29.16946 14.7951,-43.95796 2.04922,-8.2065 0.63599,-16.70053 0.30326,-25.01556 8.56121,-4.80448 13.55022,-14.68837 12.12213,-24.43221 -0.31872,-5.94288 -0.46422,-12.0687 -1.44501,-17.85079 1.2613,-2.80996 1.32766,-6.64644 2.48592,-9.03747 8.09919,1.16359 17.09418,1.52782 23.90003,-3.82532 7.04752,-5.11371 9.50811,-13.96233 9.52315,-22.30425 3.34102,-64.33968 6.1453,-128.70974 8.854,-193.07925 1.01483,-10.30994 -4.95436,-20.85267 -14.84243,-24.41232 -45.03559,-17.52385 -90.02327,-35.187789 -135.22857,-52.264734 -3.14401,-1.051055 -6.44171,-1.696794 -9.76739,-1.599688 z"
     id="path1065" />
  <path
     style="fill:#ffffff;stroke-width:0.601793"
     d="m 158.24217,53.995642 c -47.3793,18.736546 -94.872023,37.239096 -142.285594,55.880898 -9.5114218,3.84139 -14.7625648,14.3161 -13.7826648,24.29039 0.03122,12.2187 0.574381,24.67611 2.354896,36.64438 -1.487557,10.22812 0.412601,20.65292 0.440277,30.9617 2.106137,43.62869 3.719363,87.28905 6.3939538,130.88574 0.659361,11.73077 11.320761,21.50983 23.064928,21.12854 3.428141,0.0649 6.836626,-0.36992 10.239884,-0.71933 0.340187,3.56654 1.47742,7.20446 2.276344,10.48416 -1.218187,8.64062 -2.184468,17.66082 -0.646859,26.31779 1.607641,6.17101 5.986629,11.22277 11.366658,14.49973 -0.464421,10.57908 -1.898819,21.56126 2.281617,31.64378 4.420328,13.24123 7.935906,26.9087 13.944462,39.53939 6.031169,10.6734 20.866106,14.33298 31.304158,8.04294 23.9771,-13.47271 47.66774,-27.50098 71.26295,-41.6083 8.06929,-4.99413 10.99106,-14.94184 10.16808,-23.98221 0.13749,-67.52448 1.13391,-135.0552 0.23661,-202.57691 0.0236,-5.6429 -0.62583,-11.46835 -1.5555,-16.84861 3.11181,-8.07329 1.35894,-17.02108 1.96422,-25.47489 0.0537,-33.1808 0.46392,-66.38099 -0.40798,-99.54974 -1.00466,-12.415696 -13.55478,-22.424255 -25.87785,-20.012346 -0.9142,0.150966 -1.82839,0.301932 -2.74259,0.452898 z"
     id="path1061" />
  <path
     style="fill:#ffffff;stroke-width:0.601793"
     d="M 290.03014,2.4600642 C 262.11697,12.801684 234.52289,24.053802 206.73313,34.747533 c -10.05742,4.355364 -20.87515,7.208958 -30.36003,12.716653 -7.5102,5.251156 -10.06698,14.78573 -9.28279,23.542686 0.0833,38.609718 -0.20293,77.240768 0.11281,115.837148 -0.0257,3.6294 2.37228,6.89197 0.24461,10.32429 -0.86718,17.59134 -0.14699,35.25612 -0.38263,52.87668 0.0928,54.65751 -0.1832,109.33644 0.14179,163.98056 0.0918,9.25903 7.18031,15.89476 13.72733,21.45795 37.46773,34.40245 74.41305,69.38203 112.29647,103.32693 9.04745,7.9731 24.23241,6.89861 31.84285,-2.52555 7.20611,-7.97904 5.26381,-19.2645 5.72938,-29.09981 0.30099,-23.99722 0.40536,-47.99631 0.57228,-71.9947 4.67862,-1.10489 6.4803,0.68731 5.39616,5.38205 0.17425,27.58682 -0.39456,55.21153 1.04021,82.76888 0.73586,12.31581 12.57865,22.63543 24.93934,20.99398 10.83858,-0.92681 17.55508,-10.48104 25.46147,-16.77088 36.86773,-33.21498 73.77815,-66.41535 110.33002,-99.95946 6.85699,-6.3399 6.97047,-16.14264 6.59583,-24.7915 -0.0463,-67.36915 0.0926,-134.74901 -0.0694,-202.11146 0.36865,-4.04058 -2.89554,-7.55973 -1.11268,-11.44584 1.29083,-9.78164 0.23922,-19.78653 0.5803,-29.65641 -0.1715,-30.33483 0.3935,-60.692282 -0.61515,-91.012042 C 504.26353,58.454675 498.09,48.47912 488.32591,45.212396 452.08043,31.162621 415.90905,16.863464 379.56924,3.0935172 c -8.90761,-2.409321 -18.3113,-0.714752 -27.4357,-1.223627 -19.77575,0.180536 -39.59384,-0.372889 -59.34288,0.270224 -0.92018,0.10665 -1.84034,0.2133 -2.76052,0.31995 z M 425.16793,212.75146 c -0.79032,5.11072 -1.58483,10.22078 -2.38954,15.32926 -13.31218,-1.31589 -26.78561,-2.71805 -40.27194,-4.11617 -0.0557,-5.38536 -0.0697,-10.40009 -0.0823,-15.81117 14.48182,-0.002 28.96364,0.006 43.44546,-0.007 -0.23389,1.53504 -0.4678,3.07009 -0.7017,4.60514 z m -168.20232,-4.59808 c 15.40645,0 30.8129,0 46.21934,0 1.98875,3.21 0.92648,6.03903 -0.62059,9.22906 0.15459,3.62282 -0.66449,6.27378 -4.80966,5.51051 -16.77804,1.8496 -33.96601,3.52478 -50.97843,5.10785 -1.09055,-6.61269 -2.17301,-13.22682 -3.21466,-19.84742 4.46801,0 8.936,0 13.404,0 z"
     id="path1063" />
  <g
     transform="matrix(0.1,0,0,-0.1,24.07172,524.07172)"
     fill="#000000"
     stroke="none"
     id="g123">
    <path
       d="m 2178,4792 -528,-207 v -602 -603 h 675 675 v -90 c 0,-104 -5,-100 110,-75 36,7 66,12 68,10 2,-2 -37,-50 -87,-108 l -91,-104 v -617 -616 h 174 174 l 4,-66 c 1,-36 1,-68 -1,-70 -2,-2 -114,-4 -248,-4 h -243 v 581 582 l -47,-6 c -216,-26 -765,-79 -770,-74 -4,5 -80,466 -83,505 0,1 -70,2 -155,2 H 1650 V 2172 1113 l 598,-553 597,-553 3,551 2,552 h 250 250 V 559 c 0,-352 4,-549 10,-547 5,2 284,252 620,557 l 610,553 v 1054 1054 h -168 -169 l -38,-255 c -37,-243 -39,-255 -60,-255 -12,0 -192,18 -400,40 -208,22 -382,40 -387,40 -4,0 -8,131 -8,290 v 290 h 609 c 336,0 611,3 613,8 2,4 2,273 0,597 l -3,590 -547,213 -547,212 -390,-1 -390,-1 z"
       id="path117" />
    <path
       d="m 1365,4471 c -22,-10 -338,-134 -703,-276 L 0,3936 6,3771 c 4,-91 10,-170 14,-174 4,-4 27,-3 51,2 24,5 45,9 46,7 1,-1 -20,-29 -47,-63 l -50,-60 35,-779 c 20,-428 37,-780 39,-781 2,-2 68,5 147,15 79,11 147,17 151,13 3,-3 13,-61 22,-129 8,-68 18,-127 21,-131 2,-5 50,-21 105,-36 l 100,-28 -7,-41 c -3,-23 -7,-42 -8,-44 -2,-2 -42,2 -89,9 -47,7 -88,10 -90,8 -3,-2 -6,-40 -7,-84 l -2,-79 64,-43 c 35,-24 64,-47 64,-51 -1,-4 -4,-70 -9,-147 l -8,-139 68,-213 c 38,-117 71,-213 74,-213 3,0 165,94 360,208 l 355,209 3,1091 c 2,1035 1,1092 -15,1092 -54,-1 -537,-80 -542,-89 -4,-6 -15,-68 -25,-138 -9,-70 -19,-129 -20,-131 -2,-1 -61,-21 -131,-42 -70,-21 -129,-40 -131,-42 -1,-2 60,-196 137,-432 76,-236 139,-432 139,-437 0,-4 -66,23 -147,60 l -148,68 -132,544 c -72,299 -128,547 -125,550 4,3 262,57 575,120 l 567,114 v 577 c 0,318 -1,578 -2,577 -2,0 -21,-8 -43,-18 z"
       id="path119" />
    <path
       d="m 4820,3903 v -568 l 568,-114 c 312,-62 571,-117 575,-121 9,-8 -249,-1093 -261,-1098 -4,-1 -70,-31 -147,-66 -77,-35 -141,-63 -142,-62 -1,1 61,197 138,435 102,314 137,436 129,441 -7,4 -62,22 -124,40 -61,18 -116,38 -122,44 -6,6 -19,71 -29,143 l -18,133 -31,5 c -81,14 -502,75 -518,75 -17,0 -18,-19 -18,-296 v -296 l 53,6 c 28,4 91,15 140,25 48,9 86,14 85,10 -2,-5 -65,-80 -140,-168 l -138,-161 v -649 -649 l 344,-211 c 190,-116 348,-211 353,-211 5,0 40,96 77,214 l 69,213 -7,129 c -4,71 -9,136 -12,145 -3,11 17,30 63,61 l 68,45 -3,83 -4,83 -56,-7 c -31,-4 -74,-9 -94,-13 -38,-6 -38,-5 -39,31 -1,20 -2,41 -3,48 -1,6 41,23 96,37 53,14 99,29 102,32 4,3 13,62 22,130 9,68 19,127 22,130 4,4 72,-2 151,-13 79,-10 145,-17 147,-15 4,4 95,2009 92,2013 -6,5 -1371,534 -1379,534 -5,0 -9,-242 -9,-567 z"
       id="path121" />
  </g>
</svg>
