<svg xmlns="http://www.w3.org/2000/svg" width="328" height="400" version="1.0" viewBox="0 0 246 300"><path d="M160.693-2.032c-12.447.782-20.156 11.946-26.139 21.58-6.725 11.567-14.794 22.755-18.436 35.777-2.965 10.934 2.705 23.68 13.626 27.553 2.386 1.014 5.175 1.46 7.548 1.99.034 5.713.06 11.426.069 17.139-10.298-1.067-20.773-.503-31.142-.752-14.492-.606-28.717 3.358-41.686 9.602-29.283 13.696-52.98 39.718-61.875 71.022-5.271 17.304-5.526 35.814-3.389 53.653 2.827 16.351 9.846 31.812 18.617 45.794 8.663 10.914 18.552 21.008 29.625 29.487 23.947 16.327 53.977 23.937 82.75 19.407 2.468-.283 5.136-.925 7.445-1.264.548 18.264-.212 36.794.9 55.262 1.266 10.548 11.48 18.41 21.952 17.78 9.938.815 20.367-4.56 23.948-14.164 3.918-10.999 2.358-22.972 2.94-34.422l.204-25.07c15.251 3.01 31.017 2.83 46.436 1.387 16.925-2.48 33.029-9.703 47.02-19.397 10.863-8.973 21.299-18.733 29.756-30.045 10.833-17.992 19.345-38.347 18.993-59.701.782-19.604-2.527-39.614-11.937-57.001-14.41-27.82-39.845-50.4-70.377-58.625-15.916-4.965-32.869-4.4-49.314-3.53-3.479.381-6.9 1.148-10.296 1.97-.021-6.218-.063-12.473-.024-18.67 14.375-1.52 26.33-17.219 21.135-31.387-5.821-13.003-13.631-25.048-21.196-37.096-6.103-9.42-14.765-19.286-27.153-18.28ZM112.721 150.99c1.418.477 6.971-1.043 5.283 1.12-12.836 18.975-19.504 42.05-18.465 64.959-.354 11.507.63 23.143 4.81 33.968 3.496 10.345 8.263 20.271 14.257 29.402-15.477 1.181-31.436-2.837-43.697-12.585-15.014-11.2-25.928-28.78-26.102-47.858-.964-9.79.203-19.768 4.476-28.71 9.048-21.341 29.8-38.58 53.357-40.142 2.025-.103 4.053-.15 6.08-.154zm102.562.1c24.748-.405 48.44 15.343 58.388 37.89 4.783 9.51 6.638 20.195 5.731 30.775-.63 26.191-20.148 49.838-44.841 57.56-8.106 2.841-16.78 3.422-25.303 3.395 20.867-30.011 24.588-70.153 12.91-104.402-3.099-8.91-7.557-17.416-12.812-25.162a105.9 105.9 0 0 1 5.927-.056z" style="fill:#fff;stroke-width:.597015" transform="scale(.75)"/><path d="M110 28.1c-9.9 16.5-10.9 20.1-5.8 20.7 2.5.3 3.3-.5 8-8l5.3-8.3.3 31.9c.1 17.6.1 32-.1 32.2-.1.2-4.3-1.1-9.2-2.9-8.6-3-9.7-3.2-23.5-3.2-13.3.1-15.2.3-22.5 2.8-29.3 10.2-47.8 34.6-49.3 64.8-.6 13.6 1.4 23.1 7.5 35.9 3.9 8.1 5.9 10.7 13.7 18.5 7.3 7.3 10.8 9.9 17.6 13.3 18.9 9.4 38.7 10.6 58.1 3.6 3.7-1.3 6.9-2.4 7.3-2.4.3 0 .7 13.4.8 29.7l.3 29.8 2.3.3c5.1.8 5.2.3 5.2-31.9v-29.8l5.3 2.4c9.5 4.4 17.4 5.9 29.7 5.9 13.7 0 20.9-1.6 33-7.6 6.8-3.4 10.3-6.1 17.6-13.3 7.8-7.8 9.8-10.4 13.7-18.5 6.1-12.8 8.1-22.3 7.4-35.9-.6-14.1-4.1-24.6-11.9-36.3-14.6-21.8-37.2-32.9-64.3-31.6-9.3.5-18 2.7-28.7 7.3-1.7.7-1.8-1.2-1.8-32.1 0-27.6.2-32.5 1.3-30.9.8 1.1 3 4.8 5.1 8.2 2.8 4.7 4.3 6.3 6 6.3 2.6 0 4.6-1.8 4.5-4 0-.8-4.2-8.3-9.2-16.5C121.2 8.2 122 8.2 110 28.1zM97.5 99.5c5.6 1.2 17.5 5.2 17.5 5.9 0 .1-2.7 3-6 6.4-12.3 12.9-18.9 28.2-19.7 45.8-.3 5.8 0 13.1.6 17 2.4 13.7 10 28.2 20 38.2l5.2 5.2-5.3 2.4c-8.3 3.6-15.5 5-25.8 4.9-17.3-.2-32.7-7-44.9-19.8-12.1-12.8-17.5-26.3-17.5-44 0-9.4.4-12.2 2.8-19 10.9-31.5 41.7-49.6 73.1-43zm83.1 1.9c19.3 6.2 34 20.9 41 41.1 2.4 6.8 2.8 9.6 2.8 19 0 12.6-1.5 19.1-7.2 30-15.2 28.9-51.5 41.8-81.1 28.9l-5.4-2.4 5.1-5c14.7-14.5 21.8-33 20.9-54.5-.8-18.2-7.2-33.6-19.7-46.7-3.3-3.4-6-6.3-6-6.4 0-.1 2.4-1.1 5.3-2.3 14-5.7 29.7-6.3 44.3-1.7zm-47.1 19.3c9.7 11.7 15.5 27.4 15.5 41.5-.1 14.4-6.9 31.4-16.8 41.9l-6.1 6.4-.1-48.3c0-30.8.4-48.2 1-48.2.5 0 3.5 3 6.5 6.7zM118 162.2l-.1 46.3-4.8-5.2c-5.9-6.3-9.4-12.4-12.9-22.3-2.3-6.5-2.6-9.1-2.6-19.5 0-10.3.4-13 2.6-19.2 1.4-4 3.7-9.2 5.2-11.6 3.4-5.9 10.4-14.7 11.6-14.7.6 0 1 16.8 1 46.2z"/></svg>