<svg xmlns="http://www.w3.org/2000/svg" width="328" height="400" version="1.0" viewBox="0 0 246 300"><path d="M161-2c-13 1-21 12-26 22-7 11-15 22-19 35-3 11 3 24 14 28l7 2v17l-31-1a88 88 0 0 0-42 10 115 115 0 0 0-61 71 131 131 0 0 0-4 53c3 17 10 32 19 46a116 116 0 0 0 112 49l8-1 1 55a21 21 0 0 0 22 18c10 1 20-5 24-14 3-11 2-23 2-35l1-25c15 3 31 3 46 2 17-3 33-10 47-20a180 180 0 0 0 30-30c11-18 19-38 19-59a115 115 0 0 0-82-116 142 142 0 0 0-60-2V85c14-2 26-17 21-32-6-13-14-25-21-37-6-9-15-19-27-18Zm-48 153c1 1 7-1 5 1-13 19-20 42-19 65 0 12 1 23 5 34 4 10 9 20 15 29a63 63 0 0 1-44-12 62 62 0 0 1-26-48 54 54 0 0 1 4-29 65 65 0 0 1 54-40 125 125 0 0 1 6 0zm102 0a64 64 0 0 1 59 38 58 58 0 0 1 5 31 64 64 0 0 1-44 57 76 76 0 0 1-26 4 119 119 0 0 0 13-105 109 109 0 0 0-13-25 106 106 0 0 1 6 0z" style="fill:#fff;stroke-width:.597015" transform="scale(.75)"/><path d="M110 28c-10 17-11 20-6 21 3 0 4-1 8-8l6-9v65a56 56 0 0 1-9-3c-9-3-10-3-24-3-13 0-15 0-22 2a71 71 0 0 0-50 65 68 68 0 0 0 8 36 54 54 0 0 0 13 19 58 58 0 0 0 18 13 72 72 0 0 0 58 3l7-2 1 30v29l3 1c5 1 5 0 5-32v-30l5 2a64 64 0 0 0 30 6c14 0 21-1 33-7a59 59 0 0 0 18-13 54 54 0 0 0 13-19 67 67 0 0 0 8-36 66 66 0 0 0-12-36 70 70 0 0 0-65-32 81 81 0 0 0-28 7c-2 1-2-1-2-32 0-27 0-32 1-31l5 9 6 6c3 0 5-2 5-4l-9-17c-13-20-12-20-24 0zm-12 72a82 82 0 0 1 17 5l-6 7a69 69 0 0 0-20 46l1 17a75 75 0 0 0 20 38l5 5-5 2a58 58 0 0 1-26 5c-17 0-33-7-45-19a60 60 0 0 1-17-44 64 64 0 0 1 76-62zm83 1a64 64 0 0 1 41 42c2 6 2 9 2 19 0 12-1 19-7 30a64 64 0 0 1-81 28l-5-2 5-5a70 70 0 0 0 21-54 70 70 0 0 0-20-47l-6-7 5-2c14-6 30-6 45-2zm-48 20a68 68 0 0 1 16 41 66 66 0 0 1-17 42l-6 6v-48l1-48 7 7zm-15 41v46l-5-5a58 58 0 0 1-13-22 46 46 0 0 1-2-19c0-11 0-13 2-20l5-11a58 58 0 0 1 12-15l1 46z"/></svg>