<svg xmlns="http://www.w3.org/2000/svg" width="765" height="765" version="1.0" viewBox="0 0 574 574"><path d="M407 351c-17 1-32 18-29 36a26 26 0 0 0 27 21c10 1 20-3 25-12 6-8 6-18 3-27a26 26 0 0 0-26-18zm-49 51c-16 0-31 15-30 32 0 12 9 23 21 25 10 1 22 1 29-7 8-6 9-17 7-27a26 26 0 0 0-27-23zm-48 0c-12 0-21 8-26 18-7 10-7 24 1 34 8 9 22 11 33 6 11-1 21-9 24-20 3-12-3-23-12-30-6-5-13-8-20-8zm72-85a27 27 0 0 0-27 25c0 12-3 24 5 34 8 12 25 16 37 8 10-7 20-16 22-28 1-12-6-22-14-29a34 34 0 0 0-23-10zm-45 14c-7 0-16 1-23 7-8 6-10 18-7 28a29 29 0 0 0 29 23c10 0 20-2 26-10a36 36 0 0 0 5-33 26 26 0 0 0-26-15h-3zm115-158a25 25 0 0 0-24 24v-1a26 26 0 0 0 34 28 26 26 0 0 0 17-18c2-7 0-16-5-22a26 26 0 0 0-22-11zm-42 134a25 25 0 0 0-23 34c2 5 5 9 9 13 5 4 12 7 19 6a25 25 0 0 0 23-28c0-8-4-14-10-19-5-4-11-7-18-6zm-89-62a26 26 0 0 0-24 26c0 15 14 27 29 26a26 26 0 0 0 24-26c0-15-14-27-29-26zm-53 52c-14 0-26 12-26 25-1 13 6 26 19 30a27 27 0 0 0 34-15c5-13 1-29-11-36a29 29 0 0 0-16-4zm94 60c-12 1-24 10-25 22a26 26 0 0 0 21 30c17 4 34-13 32-30a25 25 0 0 0-26-22h-2zm20 72a26 26 0 0 0-25 28c1 13 11 24 24 25 13 2 25-8 27-21a26 26 0 0 0-26-32zm26-34c-13 1-28 8-32 21a39 39 0 0 0 4 29c6 11 20 14 32 14 13 0 24-11 25-24 2-13-1-28-13-35a28 28 0 0 0-16-5zm-139 22a26 26 0 0 0-25 26 26 26 0 0 0 22 27 28 28 0 0 0 30-27 26 26 0 0 0-27-26zm62-48c-16 1-27 17-27 33-1 13 6 28 19 33 10 4 22 1 31-5 8-6 15-15 15-25a38 38 0 0 0-27-35 30 30 0 0 0-11-1zm50-81a26 26 0 0 0-25 27c0 13 11 26 25 26 14 1 27-11 27-25a26 26 0 0 0-27-29zm-53-8a26 26 0 0 0-25 27c0 5 3 11 4 16 4 17 25 28 41 20 14-6 24-24 18-40-3-10-13-14-22-20a32 32 0 0 0-16-3zm-112-70a25 25 0 0 0-24 24 25 25 0 0 0 3 13c1 3 4 6 7 9 4 2 8 5 12 5a26 26 0 0 0 30-21 25 25 0 0 0-5-19l-8-7c-4-3-9-4-14-4h-1zm235 206c-10 0-19 7-23 16a33 33 0 0 0-3 14c0 5 1 8 3 12a29 29 0 0 0 8 15l11 12a26 26 0 0 0 31 1 28 28 0 0 0 13-20v-13a27 27 0 0 0-5-25 26 26 0 0 0-24-10 26 26 0 0 0-11-2zm-24 20c0-2 1-2 0 0zm-1 4v-1 1zm43 31c-2 0 1 0 0 0zm-26 10c-1-1-1-2 0 0zm37-23a25 25 0 0 0-22 33l3 10 10 12 31 38a26 26 0 0 0 21 9 25 25 0 0 0 22-35l-7-12a994 994 0 0 0-29-42 29 29 0 0 0-9-9 28 28 0 0 0-9-3l-11-2zm-217 21c-10 0-17 7-22 14a30 30 0 0 0-5 28 26 26 0 0 0 27 17c9-1 17-7 22-14a28 28 0 0 0 8-23 27 27 0 0 0-21-22h-10zm290-234c-13 1-23 12-28 23a28 28 0 0 0 15 35c9 4 18 2 27 2a26 26 0 0 0 23-28c0-9-5-17-13-22a27 27 0 0 0-24-11zm-98-5c-6 0-13 1-18 5a25 25 0 0 0-10 23l2 8a27 27 0 0 0-3 24c3 8 9 14 17 17a27 27 0 0 0 23-3c5-3 10-6 13-11a27 27 0 0 0 5-34c-2-5-3-11-6-16-4-8-12-13-20-13a30 30 0 0 0-3 0zm11-43a33 33 0 0 0-17 6c-4 3-9 5-13 9a27 27 0 0 0-9 13c-3 7-3 15 0 21 2 5 4 10 8 13a26 26 0 0 0 26 4l11-6c10 0 20-6 24-16 2-3 2-7 3-11a25 25 0 0 0-10-24l-6-4a26 26 0 0 0-17-5zm20 8c1 1-1-1 0 0zM244 508a26 26 0 0 0-21 11l-6 10a25 25 0 0 0 6 32 25 25 0 0 0 33-2l7-8 5-7a25 25 0 0 0-9-31c-3-3-8-5-13-5h-2zm345-249c-9 0-17 5-21 13l-4 11a26 26 0 0 0 8 26l15 7c9 2 20-1 26-9l6-10a25 25 0 0 0-2-26 27 27 0 0 0-14-10 34 34 0 0 0-14-3zm-54-41c-7 0-12 3-17 7l-45 31a27 27 0 0 0-11 20 26 26 0 0 0 11 23l11 4a26 26 0 0 0 23-3l12-10 32-26a26 26 0 0 0 10-22 26 26 0 0 0-13-21 26 26 0 0 0-13-3zM381 14c-12 0-21 10-28 18a890 890 0 0 0-50 58c-3 3-8 6-11 11-3 4-4 10-7 15-5 10-13 19-15 31a27 27 0 0 0 19 28c10 4 23 3 30-6 2-1 4 4 6 5 8 6 19 8 28 4a34 34 0 0 0 30-11 35 35 0 0 0 25 12c6 8 15 14 25 15a27 27 0 0 0 21-5 219 219 0 0 1 8 24 27 27 0 0 0 28 16 26 26 0 0 0 24-26c-3-32-17-61-34-88-4-5-3-11-7-15-4-6-10-8-14-14-18-21-36-44-57-63-6-6-13-9-21-9zm-93 99c0-1 0-1 0 0zm189 8c-1 1 0-1 0 0zm-111 9v1zm94 75c0-1 0-1 0 0zm162 73c-8 0-18 1-24 8-3 1-3 7-6 6-10-6-20-14-32-11-3 1-6 1-9-1-8-3-16-2-23-2a27 27 0 0 0-15 9l-15-4c-9-6-21-7-31-2-7 3-10 10-14 17a26 26 0 0 0-13 21c-5 8-10 15-13 23-6 10-7 24 0 34 3 4 7 6 12 8-7 6-12 13-12 22 0 11 3 22 13 28a26 26 0 0 0 23 3c1 3 2 7 5 10-5 12-1 27 10 34 9 5 20 4 29 0 3-2 5-1 5 2 2 6 7 10 11 13 6 10 13 22 25 25 10 2 21-1 28-9 28-5 53-19 77-34a26 26 0 0 0 23-16 810 810 0 0 0 70-62c9-9 9-25 0-34-15-16-31-29-47-44l-24-19a27 27 0 0 0-22-15c-7-5-15-11-25-10h-6zm-180 56zm15 13c-2-2-2-2 0 0zm110 140c-2 2 0-1 0 0zm-138-24c-8 0-16 3-22 9-10 1-19 8-24 16-8-12-24-19-38-13a34 34 0 0 0-16 8 30 30 0 0 0-34 4 26 26 0 0 0-9 24 25 25 0 0 0-17 13c-10 6-22 13-25 26a27 27 0 0 0 9 27c6 27 19 53 34 76 0 10 7 19 16 23a751 751 0 0 0 60 68 27 27 0 0 0 32 5c11-7 19-17 27-26l41-48a27 27 0 0 0 14-20c14-24 28-48 34-76 0-4 5-6 6-9 8-11 5-26-5-35-5-5-12-8-18-13-3-5-9-9-15-10 3-9 7-18 3-27a26 26 0 0 0-27-17c-3 0-7 3-10 0a28 28 0 0 0-16-5zm-76 12c1 0 0 0 0 0zm100 203c-2 0 1 0 0 0zM318 151c-5 0-9 2-13 5a29 29 0 0 0-20-6c-6 0-14 2-19 7-5 4-7 10-9 16a185 185 0 0 0-4 16 26 26 0 0 0-9 28c1 4 3 7 6 10a26 26 0 0 0-28 6 26 26 0 0 0-6 11 26 26 0 0 0-27 10 191 191 0 0 0-62 24l-16 10c-9 0-18 7-22 16a1049 1049 0 0 0-64 55 35 35 0 0 0-11 13c-4 9-1 20 5 28l25 24a926 926 0 0 0 44 37l4 7a26 26 0 0 0 20 11c15 9 31 18 48 25 6 2 13 1 20 1a29 29 0 0 0 19-5 30 30 0 0 0 20 5c7 0 14-1 19-5l5-4c3-1 6-4 8-7 4 10 14 16 24 16h8l13-1a54 54 0 0 0 17 1l6-1a43 43 0 0 0 17 1 25 25 0 0 0 18-11 31 31 0 0 0 15 10c6 2 12 1 19 1a26 26 0 0 0 21-9l9-9c10 4 22 1 29-8a34 34 0 0 0 3-33c3-6 3-13 3-19l-1-19a25 25 0 0 0-2-7c4-7 2-15 3-23 0-7-3-14-8-19 6-5 8-13 8-20-1-7 0-15-2-22 2-6 2-12 1-18a24 24 0 0 0-3-8c4-7 4-15 3-22v-23a26 26 0 0 0-2-10c3-7 2-16 3-24l-2-7a39 39 0 0 0 1-17 26 26 0 0 0-30-20l-14-13a28 28 0 0 0-18-5l-22 1c-7 1-13 5-17 10-1 2-2 2-3 0a26 26 0 0 0-22-11h-8zm47 102c0-1 0-1 0 0zm-40 20c-1 0-3 0-3-2-2-2 3-2 2 0l1 2zm-143 0zm161 29c0 1 2 3 0 3-1 1 1 0 1 1a23 23 0 0 1-2 11c-3 4-7 6-12 7 2-6 0-13-3-19l10-2 6-2v1zm40 9v6c-2 0-2-3-3-4 1-1 0-3 3-3v1zm-115 10 4 2a28 28 0 0 1 0 7c-2 0-4-1-5-3a22 22 0 0 1 0-6h1zm-58 0c1 1 0 0 0 0zm200 4c2 1 2 4 3 6l1 9-19-2a25 25 0 0 1-1-14h12l4 1zm-46 0-1 14c-3 1-3-1-3-3v-12l4 1zm-39 0c0 1 0 0 0 0zm60 16c2 4 5 7 9 9l-1 10-2 5a24 24 0 0 1-11 1v-24c1-1 1-3 3-2l2 1zm7 0 2 7a25 25 0 0 1-4-8l2 1zm-47 15-2 8h-8c-2 0-4 0-4-2v-6h14zm65 16v11h-11l1-8 6-3h4zm-44 8c1 2-3 1-4 2l-5 2v-4h9zm-52 4c-2 0-4-1-2-2 2 0 3-1 2 2zm16 9c3 1 7 1 9 3 4 4 5 8 6 13l-14 3c-2 0-3-2-2-4v-15h1zm53 9c-1 0-5-1-1-1h1zm-92 13-4 1c-3 0-1-1 1-1 0 0 3-2 3 0zm120 5 2 11c0 1 0 4-2 3l-10-1a25 25 0 0 1-1-10 24 24 0 0 1 11-3zm-101 1c4 0 7 2 10 5v10c-5-1-11 0-15 3-3-3-4-7-5-12l1-5h3l2-1h4zm50 4 1 9h-8v-9h7zm-89 12 1 7-4 1v-6l3-2zm-61 7c-1 1 1-2 0 0zm174 8-1 6-1-6h2zm-111 53c-1 0-1 0 0 0z" style="fill:#fff;stroke-width:.571144" transform="scale(.75)"/><path d="M274 42a492 492 0 0 0-31 36 26 26 0 0 1-7 7l-2 2c1 1-2 5-6 12a137 137 0 0 0-20 49c-1 7-2 8-4 8l-3 1c-1 1 2 4 10 8 7 5 8 5 7 8 0 2 0 2 2 1 2-2 2-2 9 2 10 6 10 6 6 13-2 6-5 13-6 20l-1 3-7-3a50 50 0 0 0-8-4c-3 0 0 2 13 9a151 151 0 0 1 14 9l-3 6-5-4a961 961 0 0 0-50-36c-24-17-27-18-10-6a849 849 0 0 1 56 47 6875 6875 0 0 1 19 18l4 4-7 4-7 5c-1 0-12-16-12-18l2-1a4 4 0 0 0 2-3c1-1 1-1-1-1-6 3-5 3-14-12-6-11-9-14-9-12l3 8a35 35 0 0 1 3 6l-6 2-14 5-9 3a42 42 0 0 1-6-8c-4-6-4-8-3-9 1-2 1-2-1-2s-3-1-7-7c-5-9-8-12-9-10l-1 3c0 1-1 2-4 2-19 4-33 9-54 23-6 4-9 5-11 4-2 0-2 0-2 2s-2 4-9 9l-40 35-7 7 5 6a539 539 0 0 0 41 35c8 7 10 9 10 11s0 2 2 1c1-1 3 0 9 4l30 16a109 109 0 0 0 27 7c2 0 3 0 3 4 1 3 1 3 3 2a42 42 0 0 0 7-10c4-6 5-7 7-7 1 0 2 0 1-1l-1-2c-1 0 7-14 10-17l6 3 15 5 8 3-3 6a25 25 0 0 0-3 8c0 3 0 4 10-14l8-13 3 1 3 2-9 11a757 757 0 0 0-34 47l-7 12a892 892 0 0 1 69-80l4-4 4 8 5 7-9 6-9 6-2-2c-2-5-4-3-2 2 1 2-2 3-24 17-7 3-1 3 6-1l7-3a37 37 0 0 1 2 7l5 14 3 9-9 5c-6 4-7 5-9 3s-2-1-2 1c1 2 0 3-7 7-11 6-13 10-6 10 1 0 2 1 2 5 2 15 10 35 22 53 5 7 6 9 5 11s-1 2 1 2 4 2 9 8a560 560 0 0 0 34 39l9 9 9-9a591 591 0 0 0 33-38l9-9c2 0 2-1 2-2-1-1 1-5 5-11 12-19 19-35 21-50 1-6 2-8 3-8a6 6 0 0 0 3-1c2-1-1-4-10-9-6-4-7-5-6-7 0-2-1-3-3-1 0 2-2 1-9-3a39 39 0 0 1-8-6l3-7 5-14 3-8 6 3 7 3c2 0-2-3-12-9-15-9-14-8-12-14 1-2-2-1-3 1l-2 2-10-6-8-5 2-3 4-7 4-5 9 10a1102 1102 0 0 1 59 67 721 721 0 0 0-40-56 44 44 0 0 1-6-7l3-2c3-1 3-2 14 17 5 9 7 11 7 9a19 19 0 0 0-3-8l-3-6s3-2 7-2l14-6 8-3 5 8c5 8 6 8 4 9-2 2-1 3 1 3 2-1 3 0 7 7a50 50 0 0 0 6 10c2 1 3 1 3-2 1-4 1-4 7-4 14-2 34-11 52-22 8-5 10-6 11-5 2 1 2 1 2-1s2-4 8-9a595 595 0 0 0 40-34l9-9-10-9a597 597 0 0 0-38-33c-7-5-9-7-9-9s0-2-2-1c-2 0-5-1-11-5a134 134 0 0 0-54-23c-3 0-4-1-4-3l-2-3c-1 0-6 6-9 12-3 5-4 6-6 6s-2 0-1 2c1 1 1 3-3 9l-6 8-9-3c-5-2-11-5-14-5l-6-2 3-7a23 23 0 0 0 3-8l-9 13c-9 15-9 15-14 12-3-1-2 2 1 3l2 2-11 18-7-4a40 40 0 0 0-7-4c-2 0 1-3 17-18a954 954 0 0 1 70-59l-70 50-5 4-1-3c-1-4-2-4 14-13 14-8 16-12 4-6l-7 4-1-4a145 145 0 0 0-7-20l-1-6c1-2 15-10 16-9 0 2 3 1 2-1l8-7c7-4 10-6 10-8l-3-1c-2-1-3-1-3-6-2-15-11-35-22-52-4-6-6-10-5-11l-2-3c-2 0-6-5-11-11a522 522 0 0 0-40-45l-13 14zm25 8a367 367 0 0 1 31 38l-10 8-9 8-11-11-10-10 8-8c10-10 8-11-3-1-7 5-8 6-10 5l-7-7a24 24 0 0 0-8-5c-2 0 0 2 6 8l9 8-11 10-11 11-9-8-10-8c-2-1 40-51 43-51l12 13zm-6 42 10 10 4 5-10 8-10 9-10-9-10-8 3-3 17-18 6 6zm-43 9 9 7-2 2a405 405 0 0 1-21 26l-5 9a185 185 0 0 0-8 14l-3 5-6-3c-4-3-5-4-4-7a166 166 0 0 1 11-31 205 205 0 0 1 19-30l10 8zm90 0a206 206 0 0 1 21 41c4 14 4 15-2 19a46 46 0 0 1-5 3l-4-6a159 159 0 0 0-8-14 40 40 0 0 1-4-8l-1-1-9-11a152 152 0 0 0-13-15l19-16 6 8zm-68 18a137 137 0 0 1 9 8c1 1-1 4-9 12l-11 11-9-7-10-6 3-4c5-8 17-21 18-21a56 56 0 0 1 9 7zm50 5 10 12-10 7-10 7-9-11-10-11 18-16 11 12zm-25 19 10 10-10 9-10 8-8-6a195 195 0 0 0-12-10l20-21 10 10zm-47 3 9 7-3 3a233 233 0 0 0-14 20l-18-10 6-12 10-15 10 7zm90 3 10 17-9 6-8 5-5-7a256 256 0 0 0-12-18l9-7 9-6 6 10zm-67 16 10 8-10 10-10 9-8-6-8-6c-1-1 15-23 17-23 0 0 5 3 9 8zm43-2 8 12 4 5-9 6-9 6-10-10c-8-8-9-9-8-10l18-15 6 6zm-19 22 9 9-10 8-9 8-10-8-10-7 10-10 10-9 10 9zm-45 6 7 6-3 4-9 11a56 56 0 0 1-6 7l-6-3-5-3 2-6c3-9 10-22 11-21l9 5zm84 2 6 14 2 6-5 3a29 29 0 0 1-7 3l-3-3c0-2-4-7-8-11l-5-9a81 81 0 0 1 15-10l5 7zm-61 15 7 6-9 10-9 9-19-12 11-15c7-8 6-8 19 2zm50 8 4 5-10 6-9 6-9-9-9-10 9-8 9-7 6 6 9 11zm-164 0 3 5-7 4a228 228 0 0 0-22 12h-1l-4 5a304 304 0 0 0-22 17l-8-9-8-10 9-6c16-10 30-17 45-22 11-3 11-3 15 4zm271-2a178 178 0 0 1 49 26l-15 19-8-6a256 256 0 0 0-28-21 161 161 0 0 0-20-11l3-6c3-5 4-5 7-5l12 4zm-137 12 9 9c1 1-1 3-8 8l-9 7-9-7a69 69 0 0 1-9-7l18-17 8 7zm-124 6 5 9-7 6-12 8-5 4-13-18c0-1 24-17 26-17a57 57 0 0 1 6 8zm244-5 20 14c0 2-13 18-14 18l-9-7a3334 3334 0 0 1-12-9l-2-2 5-8a68 68 0 0 1 6-9l6 3zm-162 4 8 6-3 4-3 4-8-7c-8-7-9-7-7-9l2-3c0-2 2-1 11 5zm80-3 2 3-6 5-9 7c-2 2-2 2-4-2a15 15 0 0 1-3-4 307 307 0 0 1 18-12l2 3zm-117 9c3 5 3 5 1 6a208 208 0 0 0-21 16c-1 0-11-15-10-16 1-2 22-12 26-12l4 6zm153-4a93 93 0 0 1 19 10l-5 9-5 8-6-5-12-9a39 39 0 0 1-5-4l5-10c2-1 2-1 9 1zm-95 13 9 7a65 65 0 0 1-5 4l-4 4-6-5-6-5 4-2 4-3c0-1-1-1-6 1h-4l6-7 8 6zm37-3 3 4h-4c-5-2-6-2-6-1l3 2 4 3-6 5-5 5-4-4a21 21 0 0 1-5-4l17-13 3 3zm-169 9a64 64 0 0 1 6 10l-10 11-10 10-6-7-9-10-2-3 4-3a241 241 0 0 1 21-17l6 9zm308 0 12 10c1 1-1 3-7 11a92 92 0 0 1-9 9l-21-20 13-19 12 9zm-355 1 7 10-9 11-11 11-7-8c-6-7-8-8-8-6l7 9 6 7-6 8c-10 10-9 12 1 3l7-8 11 10 10 11-7 9a48 48 0 0 1-9 10c-2 0-24-18-38-31l-13-11 2-3c8-8 48-41 49-41l8 9zm398-4 35 29 10 9-7 7a501 501 0 0 1-43 36 198 198 0 0 1-17-19l10-11 11-10 7 8 8 6c0-2-2-4-11-14l-2-3 6-7c4-4 7-8 7-10l-8 7-7 8-11-10c-8-8-10-11-9-12 1-3 14-19 15-19l6 5zm-266 6 6 9-9 9-10 9a150 150 0 0 1-15-19c0-1 21-18 22-17l6 9zm142 2 6 6-7 10-8 9-10-9-9-9 5-7 6-10 1-2 5 3a149 149 0 0 1 11 9zm-183-2 5 9-10 10-9 10-8-10c-6-7-8-10-7-11l22-16a43 43 0 0 1 7 8zm218-2c11 9 13 10 13 12l-8 10-7 9-9-10-10-10a73 73 0 0 1 12-17 70 70 0 0 1 9 6zm-138 13c1 1 1 1-9 13l-5 5-6-9-6-9 4-3c3-3 4-3 2 2a10 10 0 0 0-1 5c1 1 1 1 2-2a93 93 0 0 1 5-8l2-5 5 5 7 6zm59-2c3 6 4 7 4 5l-1-5c-2-4-2-4 0-3a41 41 0 0 1 4 3l2 2-3 5-7 9-3 3-7-8-8-8 7-6 7-5 5 8zm-33-4 5 4-5 5-5 4-5-4a28 28 0 0 1-5-5l10-8 5 4zm-131 17 8 10-16 20c-1 0-6-4-11-10l-10-9 10-11 11-10 8 10zm271 0 10 11-10 10-11 10-8-10-8-11 16-20 11 10zm53 6 4 5-11 9c-10 10-10 10-12 8l-9-10-7-8 9-10 8-10 7 6 11 10zm-370-5 9 10-5 5-9 9-4 5-11-9-10-10 10-10c5-6 10-10 11-10l9 10zm83-6 7 10 5 6-2 2-8 10-6 7-9-10-9-10 18-19 4 4zm191 6c11 11 11 8-2 21l-7 8-8-10c-7-9-8-10-6-12a119 119 0 0 1 14-17l10 10zm-146 0 6 9-12 18c-1 1-9-7-14-12l-5-6 9-9c4-5 9-9 9-8l7 8zm105 1 8 8-9 9-9 9-7-9-7-9 7-9c5-7 7-9 8-8a78 78 0 0 1 9 9zm-76 10-8 8-4-4a19 19 0 0 1-4-6l7-9 7-8 5 5 6 5-9 9zm45-3c1 2 1 2-2 6a18 18 0 0 1-5 5l-8-9-8-8 5-5 4-5 7 7a86 86 0 0 1 7 9zm-21 9c7 8 8 9 7 10l-9 8-7 6-8-7-9-8 17-17 9 9zm-114 6 9 10-6 9-6 8a289 289 0 0 1-20-15l-3-2 8-10 8-10 10 10zm74 5-6 6-2-4-3-3 1 5 1 4-7-6 6-9 6-8 5 5 4 4-5 6zm72-6c7 9 7 9 1 13l-3 2 2-4c2-7 1-8-2-3a33 33 0 0 1-2 4l-6-6-5-6 4-4c2-3 5-5 5-4l7 8zm83 2 7 9-2 1c-12 10-21 16-22 15l-7-9-5-7 10-10c7-8 10-10 11-9l8 10zm-273 0 11 11-6 9-7 10-22-17-3-4 8-9 8-10 11 10zm94 9-12 18-19-16c-2-2-2-2 3-9l8-10c2-2 2-2 11 7l9 10zm223-9 8 9-3 3-22 18-7-10-6-9 10-11 11-10 9 10zm-86 0 6 9-5 5a111 111 0 0 1-17 13l-6-9-6-10 9-8 11-9a62 62 0 0 1 8 10zm-93 13 7 7-9 6-8 7-3-4-3-4 5 1c7 3 6 0-2-3l-7-5a39 39 0 0 1 11-13l9 8zm38-2c4 4 5 6 4 7l-8 5c-8 4-8 6-1 3a58 58 0 0 1 5-1l-6 7-17-12 16-15 6 6zm-70 6-13 15c-1 1-6-2-6-3a78 78 0 0 1 6-9l5-9 4 3 4 3zm103 14-3 2a74 74 0 0 1-13-17l3-3 3-2 6 9 6 9-2 2zm-232-12a353 353 0 0 0 27 20 162 162 0 0 0 13 8l9 5-4 5c-3 6-3 6-6 5-13-2-37-13-54-24-7-5-8-6-7-7l15-18 7 6zm55 8 6 4a89 89 0 0 1-11 17 107 107 0 0 1-26-16l7-10 6-9 6 5 12 9zm47 2 2 1-3 6a53 53 0 0 1-3 6 131 131 0 0 1-28-13l10-14c1-2 2-1 10 5l12 9zm166-8 6 8c0 2-25 13-27 13l-7-11 6-5a220 220 0 0 0 17-13l5 8zm90 1 8 10a150 150 0 0 1-61 30c-3 0-4 0-7-5l-3-5 9-5 13-8 6-3 2-1 26-22 7 9zm-44 0 6 10c0 1-12 9-20 13l-6 4-6-9a88 88 0 0 1-5-9l6-4a213 213 0 0 0 18-13l7 9zm-132 8 8 6-9 9-9 9-5-5c-9-8-14-13-12-14l9-6 8-6 10 7zm-23 20 8 9-9 7-10 7a99 99 0 0 1-18-22l10-6 10-5 9 10zm46-4c8 4 9 5 8 7a154 154 0 0 1-17 20l-19-14 18-19 10 6zm-75 12a194 194 0 0 0 14 18 173 173 0 0 1-16 11c-2 0-14-27-13-28l12-6 3 5zm93-2 5 5c0 3-7 19-11 25-1 1-2 0-9-4l-8-6 6-8a136 136 0 0 0 11-15l6 3zm-41 14a98 98 0 0 1 9 8l-19 18-19-18 19-15 9 7zm-23 20a75 75 0 0 1 9 10l-10 8-9 8-2-2c-12-15-16-21-15-22l9-6 7-5 11 9zm45-3 9 6-4 6a245 245 0 0 1-14 17l-10-8-10-8 10-10 10-9 9 6zm-75 14 9 12 6 7-8 6-10 7c-1 1-18-23-17-26l17-11a23 23 0 0 1 4 5zm98 0 8 6-11 19-6 7-10-7-8-6 5-6a199 199 0 0 0 13-18l9 5zm-45 10 10 8a90 90 0 0 1-10 11l-10 10-10-10a69 69 0 0 1-10-11l20-16 10 8zm-64 19 3 6 4 5c12 14 19 23 18 24l-9 8-9 7-6-8a186 186 0 0 1-20-41c-6-17-6-15 1-19l5-4 5 9 8 13zm129-6a157 157 0 0 1-28 55l-19-15 7-9a265 265 0 0 0 15-17l1-1 4-8 8-14 3-7 6 4 6 3-2 9zm-90 9 10 11-19 17-10-11-10-12c-1-2 0-3 8-8l10-7 11 10zm50-4 10 7-4 5-17 20-19-17a412 412 0 0 1 21-21l9 6zm-25 29 10 8-10 11-11 10-9-11-10-10 4-3 9-9 7-5 10 9zm-23 21 10 10-8 8c-10 10-7 11 4 1l7-6 7 6a30 30 0 0 0 9 7c2 0 1-2-6-8l-8-7 11-11 11-10 9 8 10 8c0 2-22 29-36 43l-7 8-7-7c-17-18-36-42-36-44l19-16 11 10z"/></svg>