<svg xmlns="http://www.w3.org/2000/svg" width="765.333" height="765.333" version="1.0" viewBox="0 0 574 574"><path d="M407.261 351.435c-17.323.427-32.676 17.777-28.975 35.166 2.127 12.455 14.225 21.66 26.73 21.094 9.661.85 20.062-2.713 25.382-11.208 5.243-7.923 5.225-18.365 2.81-27.276-3.466-10.932-14.526-18.389-25.947-17.776zm-49.159 50.246c-16.29.648-31.307 15.473-29.991 32.178-.176 12.058 9.244 23.256 21.228 24.905 9.914.873 21.441 1.13 28.957-6.546 7.513-6.582 9.108-17.383 7.025-26.751-1.248-13.615-13.442-24.585-27.219-23.786zm-48.125.607c-11.515-.112-21.243 8.031-26.302 17.874-6.67 10.022-6.874 24.314 1.295 33.567 7.743 9.567 21.886 11.614 32.797 6.681 11.168-1.546 21.662-9.427 24.145-20.764 2.855-11.2-2.964-22.779-11.927-29.446-5.524-4.825-12.585-8.013-20.008-7.912zm71.788-85.13c-13.601-.164-25.677 11.486-26.327 25.013-.654 11.326-3.055 24.118 4.117 33.989 8.006 11.66 25.436 15.995 37.36 7.78 9.75-6.86 20.458-15.518 21.66-28.28 1.479-11.246-5.239-21.624-13.798-28.295-6.322-5.799-14.17-10.39-23.012-10.207zm-44.121 13.954c-8.066.282-16.985.448-23.155 6.446-8.316 6.61-10.18 18.215-7.713 28.085 2.317 13.762 15.518 24.586 29.534 23.663 9.43-.176 19.788-2.114 25.951-9.96 7.236-9.277 9.254-22.603 5.21-33.624-4.379-10.082-15.536-16.255-26.404-14.853l-3.423.243zm114.238-158.129c-9.658.351-18.89 6.667-22.385 15.73-1.171 2.733-1.77 5.693-1.909 8.659-.001-.467.142-1.658.059-.96-1.32 8.62 2.053 17.813 8.843 23.337 7.016 5.943 17.244 7.365 25.774 4.121 7.94-2.72 14.52-9.35 16.627-17.541 2.124-7.612.185-15.999-4.55-22.25-5.032-7.176-13.681-11.532-22.46-11.096zm-42.058 133.578c-7.759.186-15.354 4.086-19.876 10.42-4.974 6.72-6.181 15.96-3.206 23.761 1.843 4.946 5.178 9.227 9.009 12.8 5.085 4.58 12.023 6.98 18.851 6.53 8.71-.362 16.978-5.696 20.912-13.473 2.41-4.61 3.266-9.973 2.549-15.116-.047-.562.123 1.645.009.246-.35-7.233-4.043-14.152-9.72-18.619-5.27-4.083-11.787-6.74-18.528-6.55zM321.1 244.67c-13.45.59-24.963 12.947-24.314 26.442-.046 14.844 14.042 27.319 28.695 26.332 13.528-.16 25.37-12.584 24.554-26.136-.162-14.918-14.002-27.76-28.935-26.637zm-53.63 51.931c-13.548-.024-25.498 11.91-25.562 25.45-1.155 12.832 6.39 26.347 18.98 30.34 13.085 4.874 29.354-2.047 34.04-15.402 4.878-12.771 1.05-29.262-11.285-36.35-4.841-2.93-10.54-4.222-16.173-4.038zm94.374 60.325c-12.01 1.071-23.405 9.926-25.298 22.19-2.593 13.513 7.478 27.641 21.039 29.822 17.058 3.627 34.763-12.713 32.14-30.013-1.234-12.766-13.51-22.88-26.232-22.081l-1.65.082zm19.82 71.636c-14.293.46-25.87 14.406-24.32 28.495.566 12.468 10.5 24.293 23.273 25.11 12.976 1.686 25.272-8.523 27.549-21.132 3.268-12.596-4.095-26.889-16.54-31.008-3.174-1.052-6.611-1.593-9.963-1.465zm26.744-33.16c-13.319.257-28.007 7.296-31.95 20.926-2.4 9.456-1.762 20.26 3.213 28.801 6.284 11.094 19.988 14.176 31.823 13.843 13.069.032 24.875-10.751 25.893-23.8 1.174-12.82-1.38-28.055-13.04-35.535-4.725-3.006-10.354-4.427-15.94-4.236zm-139.004 21.132c-13.866-.184-26.104 12.23-25.815 26.078-.838 12.957 9.15 25.66 22.235 27.013 15.48 2.23 31.124-11.206 30.622-26.991.293-14.368-12.754-26.771-27.042-26.1zm61.36-47.597c-16.063 1.07-27.283 17.448-26.634 32.76-.747 13.433 5.67 28.618 18.955 33.552 10.317 3.418 22.137.484 30.808-5.752 7.787-6.015 15.212-14.271 14.924-24.736-.876-15.3-11.4-30.44-26.659-34.363-3.666-1.187-7.543-1.762-11.395-1.461zm49.84-81.433c-13.844.606-25.424 13.588-24.49 27.406.115 13.348 11.116 26.037 24.784 26.304 14.059 1.157 26.663-11.18 27.299-24.994 1.753-13.65-8.976-27.346-22.744-28.573-1.606-.236-3.232-.2-4.85-.143zm-52.183-7.985c-14.015.041-26.126 13.015-25.27 26.99-.127 5.86 2.992 11.012 3.614 16.737 3.925 17.052 24.747 28.016 40.758 20.2 14.57-6.573 24.423-24.429 18.56-39.984-3.467-9.915-13.484-14.836-21.901-19.941-4.836-2.584-10.247-4.165-15.761-4.002zm-112.03-69.858c-6.354.075-12.634 2.666-17.174 7.116-4.58 4.427-7.355 10.652-7.586 17.018a25.242 25.242 0 0 0 2.908 12.931c1.828 3.502 4.527 6.497 7.671 8.87 3.436 2.797 7.473 4.929 11.844 5.778 6.472 1.333 13.444-.05 18.919-3.749 5.87-3.875 10.009-10.269 11.125-17.215 1.161-6.817-.682-14.073-4.957-19.508-2.229-2.91-5.169-5.178-8.291-7.055-4.154-2.621-9.014-4.166-13.94-4.185-.173-.006-.346 0-.518 0zm234.515 206.412c-9.912.286-19.242 6.846-22.823 16.094-1.856 4.558-3.795 9.288-3.434 14.329-.059 4.24 1.741 8.12 3.038 12.053 1.172 5.642 4.328 10.615 8.39 14.63 3.763 3.83 6.865 8.325 11.057 11.71 8.627 6.85 21.552 7.113 30.595.905 6.842-4.515 12.441-11.62 13.195-20 .502-4.074-.323-8.238-.183-12.272 2.871-8.533.423-18.111-5.094-25.033-5.324-7.07-14.359-11.138-23.184-10.273-3.62-1.59-7.612-2.288-11.557-2.143zm-23.957 19.868c.332-1.43.614-2.19.074-.274zm-.591 3.854c.187-1.876.527-3.91.11-.847l-.11.847zm42.247 31.305c-1.868.16 1.297-.15 0 0zm-25.88 9.485c-.626-.777-.891-1.137 0 0zm37.592-22.964c-8.242.46-16.088 5.259-20.184 12.435-3.712 6.266-4.371 14.104-2.15 21.004 1.104 3.22 1.737 6.625 3.453 9.609 2.516 4.675 6.427 8.357 9.74 12.446 10.54 12.274 20.486 25.035 30.66 37.607 5.184 6.248 13.366 9.874 21.483 9.35 7.888-.366 15.517-4.591 19.847-11.223 4.706-6.961 5.495-16.324 2.046-23.984-1.966-4.262-4.789-8.054-7.288-12.009-9.351-14.118-19.23-27.88-29.289-41.5-2.398-3.447-5.214-6.703-8.885-8.833-2.69-1.69-5.742-2.653-8.816-3.352-3.417-1.143-7.008-1.767-10.617-1.55zm-217.804 20.976c-9.31.75-17.028 7.135-21.83 14.812-5.77 7.87-8.453 18.496-4.74 27.816 3.949 10.906 15.874 17.91 27.325 16.375 9.001-.755 16.417-6.79 21.602-13.821 5.569-6.01 9.158-14.188 7.906-22.479-1.298-10.71-10.1-19.425-20.447-21.813-3.197-.88-6.516-1.107-9.816-.89zm290.417-234.07c-13.174 1.043-23.053 12.232-27.528 23.916-4.873 13.105 2.234 28.8 15.064 34.156 8.346 4.267 17.836 2.575 26.78 2.364 13.491-1.113 24.438-14.116 23.046-27.615-.324-8.956-5.725-17.068-13.022-21.895-5.497-7.613-15.025-11.76-24.34-10.926zm-97.867-5.02c-6.283.102-12.83 1.212-17.98 5.053-7.517 5.206-11.576 14.755-10.343 23.785.32 2.682 1.11 5.282 2.06 7.802-4.487 7.141-5.569 16.363-2.43 24.242 2.673 7.584 8.757 13.97 16.447 16.5 7.578 2.609 16.144 1.234 22.898-2.945 4.989-2.81 9.843-6.113 13.283-10.778 3.918-3.93 7.065-8.787 8.13-14.297 1.478-6.615.1-13.709-3.366-19.484-1.636-5.484-2.796-11.186-5.375-16.331-3.896-7.639-11.923-12.906-20.477-13.469a29.903 29.903 0 0 0-2.847-.078zm10.54-42.673c-5.954.252-11.347 3.087-16.237 6.272-4.438 2.88-9.125 5.391-13.402 8.504-4.39 3.365-7.253 8.307-8.887 13.525-2.94 6.69-3.05 14.522-.206 21.263 1.69 4.871 4.481 9.42 8.551 12.655 7.053 5.83 17.293 7.267 25.743 3.814 3.87-1.464 7.151-4.044 10.766-5.998 10.29.267 20.356-6.115 24.476-15.552 1.61-3.424 2.05-7.211 2.872-10.86 1.411-9.23-2.877-19.009-10.643-24.2-1.929-1.246-3.986-2.301-5.647-3.915-4.875-3.865-11.18-5.836-17.386-5.508zm20.15 7.989c.969 1.031-.906-.928 0 0zM243.876 507.602c-2.899.078-5.781.64-8.487 1.685-5.115 1.932-9.484 5.619-12.471 10.177-2.058 3.17-4.2 6.292-6.044 9.593-2.331 4.306-3.432 9.282-3.01 14.169.501 6.718 3.858 13.163 9.084 17.417 4.65 3.852 10.727 5.9 16.757 5.702 6.219-.146 12.316-2.737 16.79-7.048 2.66-2.54 4.647-5.662 6.909-8.538 1.743-2.25 3.506-4.524 4.663-7.145 2.826-6.106 3.024-13.359.521-19.606-1.79-4.601-5.026-8.576-9.038-11.432-3.951-2.895-8.731-4.664-13.63-4.928-.679-.058-1.363-.028-2.044-.046zm344.987-249.04c-8.57.495-16.6 5.724-20.617 13.293-1.885 3.366-2.702 7.166-3.876 10.804-2.458 9.267.814 19.729 8.14 25.92 4.132 3.534 9.263 5.754 14.467 7.184 9.289 2.343 19.698-.925 25.916-8.229 2.62-2.994 4.418-6.58 6.47-9.958 4.26-8.224 3.573-18.771-1.953-26.246-3.454-4.974-8.854-8.188-14.527-10.04-4.488-1.706-9.162-3.083-14.02-2.728zm-54.143-40.56c-6.237.239-11.98 3.104-16.972 6.67-14.931 10.287-29.733 20.77-44.335 31.52-6.47 4.673-10.929 12.187-11.268 20.227-.56 8.606 3.618 17.308 10.696 22.237 3.238 2.363 7.071 3.64 10.91 4.633 7.677 2.703 16.577 1.507 23.187-3.271 4.131-3.04 8.03-6.554 11.847-9.717 10.57-8.933 21.37-17.593 32.351-26.015 6.664-5.204 10.722-13.65 10.163-22.136-.381-8.776-5.622-17.156-13.435-21.212a25.834 25.834 0 0 0-13.144-2.936zM380.827 14.172c-12.179.335-20.585 10.158-28.22 18.405a890.443 890.443 0 0 0-49.363 57.334c-3.68 3.589-8.611 6.064-11.135 10.827-3.033 4.739-3.753 10.489-7.16 15.058-5.397 10.172-13.371 19.536-15.111 31.226-1.712 12.44 6.907 24.722 18.8 28.244 10.213 4.32 23.187 2.86 30.741-5.746 1.799-1.055 3.426 3.394 5.61 4.261 7.648 6.062 18.472 7.912 27.63 4.419 11.077 2.325 22.752-2.89 30.271-10.942 6.038 7.563 16.074 11.183 25.327 11.698 5.958 7.883 14.494 14.002 24.462 15.316 7.39 1.473 15.322-.263 21.35-4.795 3.068 7.757 5.568 15.717 7.725 23.748 4.269 11.252 16.672 17.663 28.375 16.339 13.457-.615 24.845-13.14 23.998-26.618-3.516-31.749-17.446-61.38-34.663-87.93-3.348-4.555-2.86-10.773-6.656-15.173-3.443-5.577-9.913-8.004-13.556-13.414-18.28-21.873-36.18-44.266-57.126-63.69-5.814-5.304-13.275-8.964-21.299-8.567zm-92.872 99.074c.078-1.034.08-.768 0 0zm188.894 7.912c-.33 1.483.09-.557 0 0zm-111.24 9.43c-.1.018-.98-.628 0 0zm94.246 74.178c-.028-.195-.029-.656 0 0zm162.507 73.22c-8.73-.338-18.324.963-24.486 7.808-2.508 1.158-3.18 7.01-5.605 6.053-9.855-5.69-20.201-13.527-32.3-11.382-3.47 1.199-6.214 1.263-9.344-.837-7.323-2.75-15.438-1.842-23.078-1.245-5.6 1.297-10.803 4.477-14.387 8.856-5.048-1.983-10.425-3.347-15.563-4.758-8.796-5.71-20.91-6.2-30.232-1.571-6.956 3.277-10.535 10.382-14.276 16.684-7.944 4.226-13.28 12.821-13.582 21.818-4.604 7.317-9.725 14.529-12.495 22.75-6.368 9.885-7.548 23.86.217 33.322 2.852 3.933 7.018 6.883 11.617 8.394-6.561 5.603-12.067 13.274-11.807 22.266-.173 10.551 3.28 22.206 12.853 27.907 6.655 4.361 15.355 5.244 22.825 2.571 1.02 3.714 2.783 7.291 5.408 10.13-5.376 11.79-1.303 27.297 10.173 33.838 8.758 5.688 19.794 3.98 28.984.366 3.069-1.724 4.483-1.211 5.091 2.316 1.87 5.472 6.384 9.457 10.803 12.77 6.158 9.971 12.792 21.761 25.178 24.562 9.663 2.54 20.742-.46 27.263-8.165 28.135-5.316 53.816-18.956 77.8-34.107 9.727-.424 18.872-6.81 22.53-15.828 24.26-19.794 48.387-39.891 70.216-62.388 8.718-9.368 8.566-25.024-.138-34.36-14.744-15.5-31.215-29.257-47.32-43.31-7.63-6.621-15.625-12.803-23.336-19.325-3.905-8.69-12.832-14.409-22.161-15.309-7.628-4.67-15.33-10.793-24.827-9.961l-6.02.135zm-180.066 55.806c-.012-.017-.048-.127 0 0zm14.332 13.057c-2.03-1.589-1.756-1.417 0 0zM566.99 486.49c-2 2.54.394-.625 0 0zm-138.334-23.13c-7.997-.046-15.944 3.083-21.588 8.771-10.154.888-18.968 7.754-24.298 16.15-7.505-12.036-23.59-19.485-37.225-13.608-6.214 1.441-12.316 4.097-16.862 8.72-10.431-6.274-24.792-4.37-34.011 3.29-6.791 5.897-10.073 15.412-8.362 24.237-7.332 1.357-13.643 6.444-17.141 12.961-10.442 6.159-22.226 13.625-24.841 26.422-2.198 9.498 1.194 20.142 8.775 26.342 5.492 27.748 19.061 53.09 34.013 76.807.349 9.887 6.978 18.955 16.021 22.715 18.663 23.524 38.343 46.296 59.696 67.424 8.252 8.66 22.282 11.434 32.702 5.079 10.415-6.752 18.152-16.77 26.687-25.628 14.286-15.509 27.502-31.95 41.142-48.012 7.768-3.74 12.549-11.712 14.12-19.927 14.019-23.813 28.001-48.35 33.758-75.678.006-4.236 4.472-5.885 6.107-9.457 7.264-10.928 4.269-26.388-5.492-34.802-5.17-5.153-11.885-8.55-17.598-12.805-3.554-5.254-9.053-9.189-15.246-10.649 3.213-8.458 6.641-17.747 3.315-26.74-3.826-11.137-15.793-18.167-27.382-16.758-3.32-.43-7.213 2.777-9.67-.325-4.885-3.28-10.762-4.746-16.62-4.529zm-75.215 11.57c.983.149-.587-.067 0 0zm99.59 202.972c-1.615.104.454-.05 0 0zM317.81 150.549c-4.687.482-9.271 2.428-12.948 5.186-5.507-4.22-12.609-5.676-19.432-5.22-6.865-.261-14.007 1.513-19.186 6.215-4.945 4.012-7.361 10.097-8.994 16.072-1.628 5.319-2.976 10.722-4.118 16.165-8.565 6.26-12.33 18.083-9.138 28.183 1.153 3.854 3.185 7.415 5.788 10.472-9.325-3.75-20.72-1.53-27.75 5.718-2.98 3.083-5.253 6.872-6.399 11.015-9.822-2.552-20.832 1.325-26.972 9.385-21.74 4.232-42.328 13.114-61.265 24.465-5.395 3.107-10.635 6.477-16.032 9.578-9.744.62-18.824 7.101-22.408 16.208-22.01 17.436-43.18 35.91-63.718 55.053-4.312 3.766-8.798 7.723-10.86 13.236-3.952 9.17-1.705 20.263 4.835 27.67 7.679 8.494 16.12 16.272 24.518 24.047 14.205 13.033 29.119 25.26 44.09 37.396 2.18 1.527 2.454 4.496 4.212 6.445 4.505 6.554 12.228 10.722 20.174 10.937 15.075 9.655 30.697 18.64 47.37 25.242 6.478 1.847 13.284.868 19.924 1.11 6.722.227 13.774-.998 19.189-5.236 5.678 4.504 13.16 5.487 20.195 5.255 6.722.389 13.777-1.039 19.05-5.437 1.58-1.203 2.76-2.816 4.72-3.435 3.169-1.657 5.953-4.03 8.159-6.838 3.839 9.558 13.91 15.93 24.152 15.708 2.64.013 5.23-.402 7.87-.035 4.463.023 9.044.347 13.36-1.01 5.516 1.451 11.327 1.133 16.96.807 1.95-.147 3.86-1.066 5.702-1.253 5.603 1.981 11.696 1.651 17.524 1.2 7.04-.994 13.524-5.178 17.364-11.155 4.077 4.582 8.808 9.01 14.943 10.49 6.187 1.676 12.673.693 19 .958 7.828.454 15.761-2.673 20.939-8.609 3.123-3.28 6.227-6.579 9.382-9.828 9.747 4.068 21.813.919 28.476-7.245 4.736-5.52 6.404-12.983 6.012-20.117.16-4.72-.73-9.488-2.954-13.68 3.283-5.618 3.057-12.281 2.962-18.56-.18-6.453.409-12.962-.396-19.374-.377-2.45-1.194-4.816-2.293-7.034 3.744-6.878 2.466-14.897 2.69-22.392.3-7.014-2.284-14.094-7.24-19.1 5.35-5.31 7.734-13 7.24-20.434-.247-7.212.748-14.675-1.522-21.657 2.063-5.83 1.708-12.194 1.067-18.248-.477-2.83-1.388-5.6-2.744-8.13 3.767-6.678 3.419-14.638 2.959-22.025-.096-2.252-1.692-4.382-.568-6.558 1.222-5.27.783-10.759.645-16.126-.277-3.477-1.174-6.936-2.804-10.026 3.855-7.213 2.865-15.627 2.914-23.488.041-2.436-.733-4.854-1.145-7.159 1.63-5.442 1.47-11.31.616-16.88-1.819-10.072-10.241-18.518-20.36-20.207-3.322-.53-6.778-.566-10.054.278-4.396-4.397-8.188-9.459-13.107-13.292-5.3-4.079-12.178-5.187-18.71-4.808-7.316.165-14.669-.307-21.959.327-6.835.915-12.874 4.993-17.01 10.407-1.157 1.731-2.001 1.898-2.862-.17-4.89-7.026-13.53-10.835-22-10.472-2.686-.06-5.37-.17-8.053.01zm47.346 101.937c-.468-.446-.59-.613 0 0zM325.46 272.53c-1.81.086-3.723.285-3.845-2.05-1.34-1.847 2.908-1.793 2.816.009l1.029 2.04zm-143.69.355c0-.03.01-.157 0 0zm161.663 29.003c.004 1.274 1.36 3.569-.72 3.59-.813.345 1.82-.913 1.255.5-.105 3.884-.431 8.05-2.483 11.423-3.008 3.32-6.964 5.757-11.268 6.984 1.484-6.511.328-13.555-3.16-19.25 3.122-1.191 6.656-1.471 9.94-2.308l6.334-1.322.073.276zm40.047 9.207c.069 1.966.66 4.032-.647 5.735-1.363 0-2.072-2.328-2.29-3.561.118-1.515-.162-3.714 2.053-3.232.973-.422.608.476.884 1.058zm-115.547 9.92c1.427.525 3.499.744 4.39 1.852.111 2.569-.195 5.156-.85 7.64-1.507-.87-3.42-1.645-4.416-3.052-.47-2.198-.584-4.47-.39-6.706l1.266.266zm-57.698-.1c.309 1.516-.726.112 0 0zm199.668 4.392c2.233 1.116 2.171 4.204 3.074 6.304.497 2.813.238 5.75.44 8.61l-18.403-2.246c-1.673-4.436-1.804-9.334-.775-13.935 3.884.054 7.846-.412 11.682-.04l3.982 1.307zm-45.727-.644-1.777 14.425c-2.523 1.083-2.242-1.033-2.176-2.903l-.23-11.728 4.183.206zm-39.275.236c.045.978-.235-.213 0 0zm59.49 15.972c2.243 3.882 5.513 7.121 9.307 9.49-.012 3.138.623 6.36-.722 9.323-.55 1.872-1.157 4.051-2.512 5.41-3.538 1.223-7.361 1.56-11.068 1.074.09-7.887.182-15.774.273-23.66.857-1.22 1.27-2.98 3.144-2.367.797-.018 1.35-.259 1.578.73zm7.091.091c.902 2.192 2.027 4.474 2.15 6.86-1.474-2.223-2.526-4.7-3.23-7.267l1.08.407zm-46.523 15.052c-.185 2.632-.733 5.24-1.723 7.69-2.848.197-5.735.963-8.56.81-1.834-.158-3.236-.874-3.317-2.887-.377-1.735-.733-3.473-.74-5.257l14.344-.794-.002.285zm64.67 16.171-.09 10.527-11.019.751c.047-2.925.306-6.166 1.768-8.682 1.906-.981 3.901-2.184 5.988-2.596h3.353zm-43.62 7.656c.555 1.92-2.692 1.581-3.873 2.47l-5.566 2.026c.213-1.495-.412-3.86.285-4.852 3.052.12 6.103.238 9.155.356zm-52.17 4.063c-1.633.466-4.294-.652-2.359-1.896 2.16-.069 3.066-.939 2.36 1.896zm16.023 9.315c3.269.332 6.803.877 9.521 2.785 3.15 3.678 5.016 8.376 5.515 13.174l-13.828 2.937c-2.251-.286-2.623-1.795-2.228-3.805.125-5.033.25-10.066.373-15.1l.647.008zm53.475 8.25c-1.45.045-4.917-.18-1.546-.07l1.546.07zm-92.38 13.262c-.621 1.215-3.062.901-4.434 1.246-2.96.452-.86-1.183.914-1.192.915.07 3.78-1.767 3.52-.054zm120.15 5.286c.812 3.49 2.393 6.891 1.797 10.542-.214 1.493.645 4.365-1.858 3.553-3.454-.171-6.974.045-10.214-1.378-.98-3.295-1.076-6.774-.664-10.168a24.437 24.437 0 0 1 10.939-2.55zm-101.331 1.209c3.905.263 7.775 1.924 10.04 5.235.51 2.887.467 6.115.676 9.043-5.445-.368-11.078.693-15.725 3.64-2.377-3.45-4.029-7.585-4.177-11.772l.27-5.332c1.16-.079 3.577-1.526 3.607.183-.432.037.423-1.692 2.11-1.081 1.062-.09 2.135.068 3.199.084zm50.266 4.054 1.538 8.658c-2.769.72-5.6.501-8.426.39l-.072-9.156 6.96.108zm-88.768 11.75c.43 2.312.457 4.646.34 6.988-1.003.169-3.841 2.418-3.605.562.13-1.987 0-4.103.29-6.01.816-.38 2.45-2.215 2.975-1.54zm-60.853 7.184c-1.456.596.186-1.74 0 0zm174.025 8.14c-.288 2.083-.65 4.148-1.369 6.131-.913-2.02-1.034-4.212-1.234-6.387.697.201 2.971-1.082 2.603.257zm-111.668 52.677c-.763-.065-1-.112 0 0z" style="fill:#fff;stroke-width:.571144" transform="scale(.75)"/><path d="M273.8 41.7c-13.4 14.6-22.9 25.8-30.6 36-2.6 3.4-5.8 6.4-7 6.8-1.6.4-2.2 1.1-1.8 2.1.4 1-2.1 5.8-6.1 12.2-11.4 18.3-18.3 34.6-20.7 49.5-1 6.5-1.3 7.2-3.6 7.5-1.4.2-2.7.6-3 .8-1.1 1.2 2.3 4.3 9.6 8.7 7.1 4.2 7.9 5 7.6 7.4-.3 2.7-.3 2.7 1.6.9 2-1.7 2.2-1.6 8.9 2.5 10.2 6.3 9.8 5.6 6.4 13-2.6 5.9-4.9 12.9-6.5 20.2l-.6 2.7-7-3.5c-3.8-1.9-7.4-3.5-8-3.5-2.8 0 .2 2.2 12.5 9.3 7.4 4.3 13.7 8.2 14 8.7.6.9-1.4 6-2.4 6-.3 0-2.6-1.6-5.1-3.6-11.3-9.1-35.9-27.1-50-36.6-24.3-16.5-27.2-18-10.4-5.5 13.3 9.8 36.4 29.2 56 47 8.7 7.8 17.6 15.8 19.8 17.8l4 3.6-7.2 4.6c-4 2.6-7.5 4.7-7.7 4.7-.8 0-11.5-16.4-11.5-17.7 0-.6.9-1.4 1.9-1.8 1.1-.3 2.2-1.3 2.5-2.1.5-1.2.2-1.5-1-1-6 2.3-5.6 2.7-14.5-12.6-6.3-10.7-8.5-13.7-8.7-12-.2 1.3 1 4.7 2.7 7.7 1.7 3 3.1 5.8 3.1 6.3 0 .4-2.6 1.3-5.7 2-3.2.7-9.6 2.8-14.3 4.7-4.7 1.9-8.8 3.5-9.1 3.5-.4 0-2.8-3.4-5.5-7.6-4-6.5-4.5-8-3.5-9.5 1-1.7.8-1.9-1.2-1.9-1.8 0-3.2-1.5-6.5-7.3-5-8.8-7.9-11.8-9.2-9.7-.6.8-1 2.3-1 3.2 0 1.2-1.1 1.9-3.7 2.3-19.1 3-33 8.7-54.5 22.2-6.2 3.9-9.3 5.3-10.8 4.8-1.6-.5-2-.2-2.1 1.7 0 1.7-2.4 4.1-9.1 9.3-9 6.9-26.8 22.3-40.3 34.8l-7 6.5 5.5 5.7c7.5 7.8 28.3 26.1 40.7 35.8 7.9 6.2 10.3 8.6 10.3 10.4 0 2 .3 2.2 1.9 1.4 1.5-.9 3.3-.1 9.2 3.8 9.8 6.4 20.8 12.4 29.6 16 8.3 3.4 22.3 7.1 26.9 7.1 2.8 0 3.2.4 3.8 3.5.7 3.4.8 3.5 2.9 2 1.2-.8 4.2-5 6.7-9.3 3.8-6.3 5-7.6 6.8-7.4 1.6.2 2-.1 1.6-1.2-.3-.9-1-1.6-1.5-1.6-.7 0 7.4-14.1 9.6-16.8.1-.1 3.2 1.1 6.8 2.8 3.6 1.6 10.1 3.9 14.4 5.1 4.3 1.2 7.9 2.3 8.1 2.4.2.2-1 3-2.7 6.4-1.7 3.3-3.1 7.1-3 8.3 0 2.7-.6 3.7 9.6-13.7 4.2-7.2 7.7-13.1 7.8-13.3.1-.1 1.6.4 3.4 1.1l3.1 1.3-8.6 11c-11.1 14.1-24 31.8-34 46.9-7.6 11.4-11.6 17.9-7.7 12.5 14.9-20.5 53.4-65.3 69-80.2l3.8-3.7 4.7 7.5 4.8 7.5-9.2 5.9-9.2 6-1.4-2.5c-2.5-4.8-4-2.7-1.8 2.6.6 1.5-2 3.2-24.9 16.6-6.2 3.6-.8 3 6.6-.8 3.4-1.7 6.3-2.8 6.5-2.6.3.2 1.2 3.3 2.1 6.8.9 3.5 3.1 10 4.9 14.3 1.9 4.4 3.2 8.2 2.9 8.4-.2.2-3.9 2.6-8.1 5.2-6.6 4.1-7.9 4.6-9.1 3.4-2-2-2.6-1.7-2 .8.5 2-.4 2.9-7.1 6.8-11 6.3-13.3 9.9-6.6 10 1.8 0 2.2.8 2.8 5.4 1.6 14.4 9.9 34.4 21.6 52.4 5 7.7 5.8 9.7 5 11.3-.9 1.6-.7 1.9 1.3 1.9 1.9 0 4 2 8.8 8.2 8.8 11.4 23.6 28.4 34.1 39.3l8.8 9 8.7-9c10.7-11.2 24.8-27.4 33.7-38.8 4.5-5.7 7.4-8.7 8.8-8.7 1.4 0 1.8-.5 1.3-1.9-.3-1.2 1.4-4.8 5.1-10.7 11.9-19 18.9-35.5 21.5-50.8 1-5.6 1.7-7.6 2.8-7.6.9 0 2.3-.4 3.1-1 2.1-1.3-.8-4.1-9.7-9.3-6.3-3.6-7.3-4.5-6.8-6.5.6-2.5-.9-3-2.2-.7-.7 1.2-2.3.6-9.1-3.6-4.5-2.8-8.2-5.4-8.2-5.9 0-.4 1.3-3.6 3-7.2 1.6-3.5 3.8-9.7 4.9-13.8 1-4.1 2.3-7.5 2.7-7.5.5 0 3.3 1.3 6.2 2.8 3 1.6 6.3 2.7 7.5 2.5 1.6-.2-1.9-2.7-12.1-8.7-15.1-8.8-14.6-8.2-12.5-13.9.8-2-1.5-1.4-2.7.8-.6 1.1-1.6 2-2.3 2-.7 0-5-2.5-9.5-5.6l-8.3-5.5 1.7-2.7c1-1.5 3.2-4.9 4.8-7.6l3.1-4.9 9.4 9.9c13.8 14.6 37.1 41.2 48 54.9 16 20.1 15.6 19.6 11.5 13-7.9-12.8-28.1-40.8-40.7-56.3-3.3-4-5.8-7.4-5.6-7.6.2-.1 1.6-.7 3.2-1.4 3.1-1.3 2.5-2.1 13.8 17.3 4.9 8.4 6.5 10.5 6.7 8.7.2-1.2-1-4.8-2.7-7.9-1.7-3.1-3.1-6-3.1-6.4 0-.3 3-1.4 6.8-2.3 3.7-1 10.2-3.3 14.5-5.1l7.8-3.4 5 7.7c5.2 8.2 5.4 8.7 3.9 9.7-1.8 1.1-1 2.7 1 2.2 1.7-.4 2.9.8 6.7 7.4 2.6 4.4 5.6 8.7 6.7 9.5 2 1.4 2.1 1.3 2.9-2 .8-3.3 1-3.4 6.9-4 13.6-1.6 34.1-10.1 51.6-21.5 7.7-5.1 9.7-5.9 11.3-5.1 1.6.9 1.9.7 1.9-1.3 0-1.9 2-4 8.2-8.8 11.1-8.6 28.2-23.4 39.3-34l9-8.7-9.2-8.7c-14.1-13.1-28.8-25.9-38.5-33.3-6.5-5-8.8-7.3-8.8-9 0-1.9-.4-2.1-2.4-1.6-1.7.4-4.4-.8-10.9-5-18.8-12.3-35.6-19.2-53.9-22.1-3-.5-3.8-1.1-4.3-3.5-.4-1.7-1-3-1.5-3-1.4 0-5.6 5.6-9.2 12-2.5 4.6-3.8 6-5.5 6-2 0-2.2.3-1.2 1.8 1 1.6.4 3.1-3.6 9.3-2.6 4.1-4.9 7.6-5.1 7.8-.2.2-4.4-1.3-9.3-3.3-4.9-2-11.5-4.1-14.5-4.8-3.1-.6-5.6-1.5-5.6-2s1.4-3.6 3.1-6.9c1.6-3.3 2.9-6.8 2.7-7.7-.2-1-4 4.4-8.8 12.6-9 15.1-8.6 14.8-14.4 12.6-2.6-1-1.8 1.6.9 2.8 1.4.6 2.5 1.5 2.5 2 0 1-10.8 17.8-11.4 17.8-.3 0-3.3-1.8-6.7-4-3.4-2.2-6.6-4-7.1-4-2.3 0 .7-3.1 17.5-18.3 22.6-20.5 44.9-39.4 59-50 5.9-4.4 10.7-8.2 10.7-8.4 0-1.6-52.4 35.7-69.6 49.5l-5 4.1-1.2-3.2c-1.5-4-1.9-3.6 14.1-13 13.4-7.8 15.9-11.4 3.8-5.2l-7 3.5-1.1-4.3c-1.8-7-4.2-13.9-6.6-19.6-1.3-2.9-2.2-5.7-1.9-6.1 1.2-2 15.9-10.3 16.3-9.2.6 2 3.1 1.4 2.5-.7-.4-1.4 1.3-2.8 7.6-6.6 6.9-4 10.1-6.8 10.1-8.8 0-.3-1.3-.7-2.9-1-2.6-.6-3-1.1-3.6-5.9-2-14.8-10.2-34.6-21.4-51.6-4.1-6.2-6-10-5.6-11.2.4-1.3-.1-2-1.8-2.7-1.3-.4-6.1-5.4-10.6-11.1-10.1-12.8-21.9-26.2-32.3-37-4.4-4.5-8.1-8.2-8.2-8.2-.1 0-5.9 6.2-12.8 13.7zm25.3 7.9C311.9 63.8 330 86 329.9 87.5c0 .5-4.4 4.5-9.7 8.7l-9.7 7.7L300 93.4l-10.5-10.5 8.1-7.9c10-9.9 8-10.8-3-1.4-6.9 5.9-7.9 6.5-9.4 5.2-.9-.8-4.4-3.8-7.6-6.6-3.3-2.9-6.9-5.2-7.9-5.2-1.4 0 .5 2.3 6.4 7.9l8.4 7.8-10.6 10.6-10.5 10.5-9.4-7.5c-5.2-4.1-9.8-7.8-10.2-8.1-1.4-1.3 40.6-51.2 43.1-51.2.4 0 5.9 5.7 12.2 12.6zM293 91.7c3.1 3.2 7.4 7.9 9.8 10.4l4.2 4.5-10 8.8-10 8.7-10-8.7-10-8.8 2.7-3C275.1 97.5 286.5 86 287 86c.3 0 3 2.6 6 5.7zm-43.3 8.9 9.4 7.5-1.8 2.3c-8.6 11-18.8 23.3-20.1 24.3-.9.7-1.3 1.3-1 1.3.4 0-1.8 3.9-4.8 8.6-3 4.8-6.5 11.1-7.9 14-1.4 3-2.8 5.4-3.1 5.4-.3 0-3-1.5-5.9-3.3-4.9-2.9-5.3-3.4-4.8-6.2 1.3-6.7 6.8-21.6 11.8-31.7 5-10 17.1-29.8 18.2-29.8.3 0 4.8 3.4 10 7.6zm90.3.6c8.2 12.6 16.5 29.2 20.5 41 4.7 14.2 4.7 14.9-1.5 18.7-2.8 1.7-5.2 3.1-5.5 3.1-.3 0-1.9-2.8-3.6-6.3-1.7-3.4-5.2-9.4-7.7-13.2-2.5-3.9-4.5-7.6-4.5-8.3 0-.6-.4-1.2-.8-1.2s-4.5-4.8-9.2-10.8c-4.6-5.9-9.4-11.6-10.6-12.6-1.1-1.1-2.1-2.4-2.1-3 .1-1 17.8-15.5 19-15.6.3 0 3 3.7 6 8.2zm-68.3 17.6c4.3 3.8 8.3 7.5 8.9 8.3 1 1.1-.8 3.5-9 12l-10.2 10.7-9.7-6.6-9.6-6.5 3-4.1c5.3-7.3 16.9-20.6 17.9-20.6.5 0 4.5 3.1 8.7 6.8zm50.5 5.6 9.8 11.9-9.8 6.8-9.7 6.7-10-10.6c-5.5-5.8-10-10.8-10-11.2 0-1.4 17.1-15.9 18.5-15.7.8.1 5.9 5.6 11.2 12.1zm-24.9 18.5c5.3 5.4 9.7 10 9.7 10.3 0 .3-4.5 4.2-10 8.7l-10.1 8.1-8-6.5c-4.4-3.6-8.9-7.1-10-7.8-1-.6-1.9-1.6-1.9-2.2 0-1 19-20.5 20-20.5.4 0 5 4.4 10.3 9.9zm-47.5 2.9 9.1 6.9-2.8 3.4c-3.9 4.7-13.8 18.6-14.3 20-.3.9-10.8-4.9-17.6-9.7-.8-.5 1.1-4.6 5.8-12.4 4.4-7.1 9.8-15 10.4-15 .2 0 4.4 3.1 9.4 6.8zm90.6 2.9c6.5 9.9 10.3 17 9.5 17.6-.2.2-4.2 2.7-8.8 5.5l-8.4 5.1-4.9-7.2c-2.8-4-6.8-9.4-9-12.1-2.3-2.6-3.7-5.1-3.2-5.5.5-.3 4.7-3.4 9.3-6.9 4.5-3.4 8.5-6.2 8.7-6.2.2 0 3.3 4.4 6.8 9.7zm-66.9 15.8c5 4.1 9 7.9 9 8.4 0 .4-4.3 4.9-9.6 9.9l-9.5 9-7.9-5.4c-4.4-3-8.3-5.8-8.8-6.3-1-1 15.4-23.1 17.2-23.1.3 0 4.7 3.4 9.6 7.5zm42.2-1.3c2.8 3.5 6.7 8.6 8.7 11.5l3.7 5.2-8.8 5.9-8.8 5.9-10-9.3c-8.8-8.2-9.8-9.5-8.5-10.8 3-2.9 17.5-14.6 18-14.6.4 0 2.9 2.8 5.7 6.2zm-19.1 21.5c5.2 4.9 9.4 9.1 9.4 9.4 0 .4-4.3 4.1-9.5 8.3l-9.4 7.6-10.1-7.8-10.1-7.7 9.8-9.2c5.4-5.1 9.9-9.3 10.1-9.3.2 0 4.6 3.9 9.8 8.7zm-44.8 6.5c3.9 2.7 7.2 5.2 7.2 5.5 0 .4-1.3 2.1-2.9 3.8-1.6 1.6-5.5 6.6-8.6 11-3.1 4.4-5.9 7.9-6.1 7.8-.3-.1-2.9-1.5-5.9-3.2l-5.4-3.1 2-5.7c3.1-9 10-22.3 11.3-21.6.6.4 4.4 2.8 8.4 5.5zm83.9 2.1c2 4 4.6 10 5.9 13.4l2.3 6.2-5.3 3c-2.9 1.7-5.8 3.1-6.4 3.1-.7 0-1.9-1.4-2.7-3-.9-1.7-4.5-6.7-8.1-11.1-3.6-4.5-6.2-8.5-5.7-9 2.4-2.4 14.9-10.6 15.6-10.2.4.2 2.4 3.7 4.4 7.6zm-60.9 15 7.3 5.9-8.8 9.3c-4.8 5.1-9 9.3-9.4 9.4-.4.1-17.2-10.1-18.7-11.5-.6-.5 4.6-7.6 11-15 7.3-8.4 5.8-8.6 18.6 1.9zm50.4 7.3c2.2 3 3.9 5.6 3.7 5.8-.2.2-4.5 2.9-9.6 6l-9.2 5.6-8.8-9.1c-4.8-5-8.9-9.4-9-9.7-.1-.4 3.9-4 9-7.9l9.2-7.3 5.3 5.6c2.9 3 7.1 8 9.4 11zm-164.5-.1 3.2 5.5-7 3.5c-3.8 2-10.1 5.6-14 8.1-3.9 2.4-7.4 4.2-8 3.9-.5-.4-.9 0-.9.8 0 .7-1.9 2.7-4.2 4.4-2.4 1.7-8.1 6.3-12.8 10.2-4.7 3.9-8.8 7.1-9.1 7.1-.4 0-4.1-4.3-8.3-9.5l-7.7-9.5 9.3-6c15.8-10.2 30-17.1 44.8-21.6 10.7-3.3 11-3.2 14.7 3.1zm271.2-1.8c4.7 1.5 13.5 5.2 19.6 8.2 11.4 5.7 29.5 17 29.5 18.4 0 1.1-14 18.7-15 18.7-.4 0-4.1-2.8-8.2-6.3-4-3.4-9.7-7.9-12.6-10-2.8-2.1-5.2-4.3-5.2-4.8s-.5-.9-1.2-.9c-.6 0-4.6-2.2-8.8-4.9-4.2-2.7-10.3-6.2-13.6-7.8-3.2-1.5-6.1-2.9-6.2-3-.2-.1 1.1-2.7 3-5.8 3.2-5.4 3.4-5.6 6.7-5.1 1.9.3 7.3 1.8 12 3.3zm-136.5 12.4c4.2 4 8.1 7.9 8.6 8.8.7 1.4-.8 3-8 8.4l-9 6.7-9-6.6c-4.9-3.7-9-7-9-7.4 0-1 16.6-17 17.8-17 .5 0 4.4 3.2 8.6 7.1zm-124.6 6.3c2.9 4.7 5.2 8.7 5.2 9 0 .3-3.3 2.7-7.2 5.4-4 2.7-9.3 6.6-11.6 8.6-2.4 2-4.8 3.4-5.3 3.1-1.2-.8-12.9-16.7-12.9-17.6 0-1.4 24-16.9 26.1-16.9.3 0 2.9 3.8 5.7 8.4zm244.1-5.2c7.4 4.2 20.1 12.9 20.1 13.8 0 1.6-13.2 18-14.1 17.5-.5-.4-4.6-3.4-9.2-6.8s-9.6-7.1-11.2-8.3l-2.9-2 5.3-8.7c3-4.8 5.6-8.7 5.9-8.7.2 0 3 1.4 6.1 3.2zm-162.2 3.9c4.3 2.9 7.9 5.3 8.1 5.5.2.1-.9 2-2.5 4.2l-2.9 3.9-8.5-7c-8.2-6.8-8.5-7.1-6.7-8.9 1-1 1.8-2.3 1.8-2.9 0-1.6 2-.6 10.7 5.2zm80.5-3.2 1.6 3-6.1 5.2c-3.4 2.9-7.1 6.1-8.3 7.1-2.1 1.8-2.1 1.8-4.8-2.3-1.5-2.2-2.6-4.2-2.4-4.3 1.5-1.3 17.4-11.6 17.8-11.6.3 0 1.2 1.3 2.2 2.9zm-117.1 8.8c3.1 5.3 3.1 5.7 1.4 6.7-3.6 2.2-17 12.3-18.4 13.9-.7.9-1.9 1.7-2.6 1.7-1.5 0-11.6-15-10.9-16.2 1.2-1.9 22.8-11.6 26.1-11.8.6 0 2.6 2.6 4.4 5.7zm153.1-3.3c7.4 2.7 18.4 8.2 19.2 9.4.3.5-2 4.6-5 9l-5.6 8.1-6.1-5.2c-3.4-2.9-8.6-6.8-11.4-8.6-2.9-1.9-5.3-3.6-5.3-3.8 0-.7 4.2-8.8 5.2-10.1 1.4-1.6 1.8-1.6 9 1.2zm-94.7 12.8c4.7 3.4 8.4 6.5 8.3 6.8-.2.3-2.2 2.3-4.5 4.4l-4.3 3.8-6.1-5.3-6.1-5.3 4.1-2c2.2-1.1 4.1-2.4 4.1-2.8 0-1.1-1.2-1-5.9.7-2.2.8-4.1 1.2-4.1.9 0-.7 5.1-7.4 5.6-7.4.3 0 4.3 2.8 8.9 6.2zm36.8-2.8c1.5 1.9 2.7 3.7 2.7 4 0 .3-1.9-.1-4.1-.9-4.7-1.7-5.9-1.8-5.9-.7 0 .5 1.6 1.6 3.5 2.5 1.9.9 3.5 2 3.5 2.5 0 .4-2.5 3-5.5 5.6l-5.6 4.8-4.2-3.8c-2.3-2.1-4.2-4.2-4.2-4.6 0-.7 15.5-12.7 16.5-12.8.3 0 1.7 1.6 3.3 3.4zm-168.8 8.4c3.3 4.8 6 9.1 6 9.7 0 .5-4.7 5.5-10.4 11l-10.3 10-6-6.5c-3.3-3.6-7.1-7.9-8.5-9.7l-2.5-3.2 3.8-3.3c6.6-5.9 20.5-16.8 21.2-16.8.4.1 3.4 4 6.7 8.8zm307.2 0c5.9 4.9 11.3 9.5 12 10.3 1 1.3-.2 3.1-6.8 10.7-4.4 5.1-8.3 9.2-8.6 9.2-.7 0-20.7-19-21.1-20.1-.4-.9 11.9-18.9 12.9-18.9.4 0 5.6 4 11.6 8.8zM94.6 253c3.7 4.7 7.1 9 7.6 9.7.6.7-2.5 4.5-9.7 11.6L82 284.8l-7.5-8.1c-5.7-6.2-7.5-7.7-7.5-6.1 0 1.2 2.9 5.4 6.5 9.4l6.4 7.4-6.4 7.2c-9.4 10.5-8.5 12.8 1.3 3.1l7.7-7.7 10.4 10.4 10.4 10.5-7.7 9.5c-4.2 5.3-8.2 9.6-8.9 9.6-1.7 0-23.4-17.6-38.1-30.9L36 287.6l2.2-2.4c8-8.5 47.4-41.5 48.9-41 .4.2 3.7 4.1 7.5 8.8zm398.8-4.3c9.3 7.2 24 19.7 34.8 29.6l9.8 8.9-7.3 6.8c-15.2 14.1-38.3 33.6-42.7 36-1.1.6-3.4-1.5-9-8.6-4.1-5.2-7.6-9.7-7.8-10.2-.1-.4 4.4-5.3 10.1-11l10.3-10.3 7.7 8c5.5 5.6 7.7 7.3 7.7 6 0-1.7-1.6-3.9-10.8-14l-2.3-2.7 6.5-7.3c3.6-4.1 6.6-8.3 6.5-9.4 0-1.5-2 .2-7.7 6.3l-7.7 8.3-10.4-10.4c-7.7-7.8-10.1-10.8-9.5-11.9 1.6-2.6 14.7-18.8 15.2-18.8.3 0 3.3 2.1 6.6 4.7zm-266.2 6.6 5.5 8.8-9.2 8.9c-5 5-9.4 9-9.7 9-.8 0-14.8-17.5-14.8-18.5 0-1.9 21.1-18.8 22.1-17.7.4.4 3.1 4.7 6.1 9.5zm141.3 2.1 6.7 6.1-7.2 9.3c-4 5.1-7.7 9.1-8.1 9-.4-.2-4.8-4.2-9.8-9.1l-9-8.7 4.6-7.3c2.5-3.9 5.2-8.2 6-9.5l1.4-2.3 4.4 3.2c2.4 1.7 7.3 5.9 11 9.3zm-183-2.3c3.1 4.5 5.4 8.5 5.3 8.9-.2.4-4.4 5-9.4 10.3l-9.1 9.6-8.1-9.7c-6.1-7.4-7.8-10-6.9-11 1.6-2 20.6-16.2 21.7-16.2.5 0 3.4 3.7 6.5 8.1zm218.2-2.2c11.4 8.7 13.6 10.6 13.2 11.8-.2.6-3.8 5.2-7.9 10.2l-7.5 9.1-9-9.7c-4.9-5.3-9.1-10-9.3-10.4-.4-1.1 10.6-16.9 11.8-16.9.4 0 4.4 2.7 8.7 5.9zm-137.8 12.7c1.5 1.4 1.5 1.4-9.4 13.6l-4.2 4.7-6.2-8.4c-3.3-4.7-6.1-8.9-6.1-9.4s1.6-2.1 3.5-3.5c3.8-2.9 4.1-2.6 2.4 2.2-.6 1.7-.9 3.9-.6 4.9.3 1.4.8 1 2-1.7.8-1.9 2.7-5.7 4.2-8.3l2.7-4.8 5.2 4.7c2.8 2.6 5.7 5.3 6.5 6zm58.9-1.1c2.7 5.3 3.7 6.5 4 4.9.2-1.2-.4-3.8-1.2-5.8-1.4-3.4-1.4-3.6.2-2.6.9.5 2.8 1.8 4.2 2.9l2.4 1.9-3.6 5.4c-2.1 2.9-5 6.8-6.6 8.7l-2.8 3.4-7.7-7.9-7.7-7.9 6.7-6.2c4.8-4.5 6.9-5.9 7.5-5 .5.6 2.5 4.3 4.6 8.2zm-32.5-4.3 4.7 4.3-5 4.3-5 4.4-5-4.2c-2.8-2.3-5-4.5-5-4.8.1-.8 9.2-8.2 10-8.2.3 0 2.7 1.9 5.3 4.2zM161 276.7c4.1 5.2 7.6 9.9 7.8 10.3.4 1-14.9 20-16.1 20-.4 0-5.3-4.4-10.8-9.7l-10-9.7 10.3-10.3c5.6-5.7 10.5-10.3 10.8-10.3.3.1 3.9 4.4 8 9.7zm270.8.6 10.3 10.4-10.6 10.1-10.7 10.1-7.9-10c-4.3-5.4-7.9-10.1-8-10.5-.1-.7 15.4-20.3 16.1-20.4.3 0 5.2 4.7 10.8 10.3zm52.9 5.9 4.3 4.4-10.6 9.8c-10.2 9.6-10.6 9.8-12.3 8-.9-1-4.9-5.5-8.8-9.9l-7.1-8.1 8.6-10 8.7-10.1 6.5 5.8c3.6 3.1 8.4 7.7 10.7 10.1zm-369.5-5.4 8.6 9.8-4.7 5c-2.5 2.7-6.5 7.1-8.8 9.8l-4.2 5-10.7-9.9-10.7-9.9 10.2-9.8c5.6-5.4 10.5-9.8 10.9-9.8.5 0 4.7 4.4 9.4 9.8zm82.6-5.5c1.7 2.4 5.1 6.8 7.6 9.8l4.5 5.4-2.3 2.5c-1.3 1.4-4.8 5.7-7.9 9.7l-5.4 7.2-9.3-9.4c-5-5.2-9-9.9-8.8-10.4.5-1.5 16.8-19.1 17.7-19.1.4 0 2.2 1.9 3.9 4.3zm191.7 5.2c10.1 11.1 10.4 8.5-2.3 21.6l-7.4 7.7-7.8-9.7c-7.4-9.2-7.6-9.7-6.1-11.7C376.1 272 379.4 268 380 268c.4 0 4.6 4.3 9.5 9.5zm-146.6.9c3.3 4.6 6.1 8.7 6.1 9 0 .5-11.2 16-12.5 17.5-.7.7-8.6-6.4-13.6-12.1l-5.1-5.9 8.8-8.9c4.8-4.9 9-8.7 9.4-8.5.4.3 3.5 4.3 6.9 8.9zm105.5.7 7.7 8.2-8.8 8.9c-4.8 4.8-9 8.8-9.3 8.8-.3 0-3.5-4-7.1-8.8l-6.6-8.8 6.6-9.1c5.2-7.1 6.9-8.8 8.2-8.2.9.4 5.1 4.5 9.3 9zm-76.4 9.5-8.5 8.5-3.7-4.3c-2.1-2.4-3.8-4.9-3.8-5.5 0-.7 3.2-4.9 7.1-9.4l7.2-8.1 5.1 5.1 5.1 5.1-8.5 8.6zm45.1-2.9c1 1.9.7 2.7-2.6 6.8-2.1 2.5-4.1 4.4-4.4 4.3-.4-.2-4.2-4-8.6-8.6l-7.8-8.3 4.9-5 4.9-5 6.2 6.8c3.4 3.7 6.7 7.8 7.4 9zm-21.1 9.8c7.3 7.3 8.2 8.7 7 9.8-.8.8-4.8 4.2-8.7 7.7l-7.3 6.3-8.5-7.3c-4.7-4-8.5-7.5-8.5-7.8 0-.8 16.2-17.2 17-17.2.3 0 4.3 3.8 9 8.5zM182 301l9.2 10-5.8 8.5c-3.2 4.7-6 8.5-6.3 8.5-.6 0-15.1-10.8-20.4-15.2l-2.8-2.3 8.1-9.8c4.5-5.3 8.3-9.7 8.5-9.7.1 0 4.4 4.5 9.5 10zm73.7 5c-2.8 3-5.2 5.7-5.3 5.8-.2.2-1.3-1.6-2.5-4-1.7-3.1-2.4-3.8-2.7-2.5-.2 1 .1 3.2.7 4.9.6 1.7 1 3.3.8 3.4-.6.6-6.7-4.1-6.7-5.1 0-.6 2.8-4.8 6.2-9.4l6.1-8.4 4.3 4.9 4.2 4.9-5.1 5.5zm72.8-5.7c6.3 8.4 6.3 8.6.4 12.8l-2.8 2 1.5-4.6c2.2-6.2 1.2-7.9-1.5-2.8-1.2 2.4-2.3 4.3-2.4 4.3-.1 0-2.6-2.6-5.4-5.8l-5.1-5.9 4-4.7c2.2-2.6 4.4-4.4 4.8-3.9.4.4 3.3 4.3 6.5 8.6zm82.4 1.7 7 8.5-2.2 1.8c-11.8 9.7-20.9 15.9-21.8 15-.6-.6-3.5-4.6-6.4-8.9l-5.3-7.9 9.6-9.7c7.6-7.7 9.9-9.5 10.8-8.5.7.6 4.4 5 8.3 9.7zm-272.5.4 10.9 10.5-6.4 9.5c-3.5 5.2-6.6 9.5-6.9 9.6-.6 0-15.1-11.6-21.5-17.2l-3.9-3.5 8.4-9.6c4.7-5.3 8.5-9.7 8.5-9.7s4.9 4.7 10.9 10.4zm93.8 8.2c.2 1.1-10.7 18.3-11.7 18.4-1.2 0-17-12.6-19.9-15.8-1.9-2.2-1.9-2.2 3.8-9.4 3.1-4 6.4-8.3 7.4-9.4 1.7-2.1 1.7-2.1 11 6.7 5.1 4.9 9.3 9.1 9.4 9.5zm222.8-8.7 8.3 9.5-3.4 2.9c-8.6 7.3-22 17.9-22.3 17.6-.1-.2-3.1-4.6-6.6-9.7l-6.4-9.3 10.4-10.4c5.8-5.8 10.8-10.4 11.1-10.3.3.2 4.4 4.5 8.9 9.7zm-86.5.6 6.9 8.8-4.9 4.4c-6.3 5.7-16.1 13.3-17.2 13.3-.4 0-3.3-4.2-6.5-9.3l-5.6-9.2 9.1-8.7c5.1-4.8 9.7-8.6 10.2-8.4.6.1 4.1 4.2 8 9.1zm-93 12.2 7.7 7.2-8.8 6.4-8.7 6.5-2.9-3.5c-1.5-2-2.7-3.8-2.5-4 .2-.2 2.2.3 4.5 1.1 6.9 2.5 5.8-.1-1.7-3.8-3.8-2-7.3-4.1-7.6-4.7-.7-1.1 10.3-13.2 11.6-12.7.3.2 4.1 3.5 8.4 7.5zm38-1.7c4.1 4.2 5.6 6.3 4.9 7-.6.6-4.4 2.8-8.4 4.9-7.6 4-8.2 6.1-1 3.6 2.3-.8 4.5-1.5 4.7-1.5.9 0-4 6.2-5.3 6.7-.9.3-12.5-7.2-17.3-11.4-.5-.4 15-15.2 15.9-15.3.3 0 3.2 2.7 6.5 6zm-69.5 5.7c0 .3-9.7 12-13 15.6-.8.9-6-2-6-3.3 0-.4 2.5-4.6 5.6-9.3l5.6-8.6 3.9 2.6c2.1 1.4 3.9 2.8 3.9 3zm103 14.4c-1.4 1-2.8 1.9-3.1 1.9-1.3 0-14.1-16.2-13.3-16.9.5-.4 2.2-1.7 3.8-3l2.9-2.1 6.1 9.1 6 9.1-2.4 1.9zm-232.2-12.3c3.7 3.1 9.5 7.9 13 10.5 3.4 2.7 6.2 5.5 6.2 6.2 0 .8.6 1.2 1.4.9.8-.3 3.7.9 6.3 2.8 2.6 1.8 8.7 5.3 13.5 7.8l8.8 4.6-3.6 5.7c-3.3 5.3-3.7 5.6-6.7 5-12.7-2.4-37-13.4-53.4-24.2-7.1-4.7-8-5.6-7-7.1 2.5-3.5 14.2-18 14.5-18 .2 0 3.3 2.6 7 5.8zm55.4 8c3.2 2 5.8 4 5.8 4.4 0 1.4-10.2 16.8-11.1 16.8-2.8 0-25.9-14.6-25.9-16.3 0-.6 3-5 6.6-9.8l6.6-8.7 6.2 4.9c3.3 2.8 8.7 6.7 11.8 8.7zm46.6 2.2 2.3 1.5-3.1 5.7c-1.7 3.2-3.3 5.8-3.4 5.8-2.8 0-27.6-11.3-27.6-12.6 0-.6 7.7-12.3 9.7-14.6 1.3-1.5 2.3-1 10.6 5.5 5.1 4 10.3 7.9 11.5 8.7zm166.6-8.1c3.1 4.3 5.6 8.2 5.6 8.5 0 1.2-24.8 12.6-27.4 12.6-.5 0-6.6-10.5-6.6-11.3 0-.4 2.6-2.4 5.8-4.5 3.1-2.2 8.2-6 11.2-8.5 3-2.6 5.6-4.7 5.7-4.7.1 0 2.7 3.6 5.7 7.9zm90.1 1.1c3.8 4.9 7.1 9.4 7.3 10 .5 1.3-15.3 11.6-27.6 17.8-9.9 5.2-28 11.8-33.6 12.4-2.6.3-3.3-.3-6.2-5.1l-3.3-5.5 8.8-4.7c4.9-2.5 10.9-6 13.4-7.8 2.5-1.7 5.2-3.1 6-3.1.9 0 1.7-.5 1.9-1 .3-1.1 24.8-21.8 25.8-21.9.3 0 3.6 4 7.5 8.9zm-44.7.5c3.4 4.7 6.2 8.8 6.2 9.2 0 1-11.8 9.1-20 13.6l-6.5 3.6-5.3-8.5c-2.8-4.6-5.2-8.8-5.2-9.2 0-.4 2.6-2.4 5.8-4.4 3.1-2.1 8.2-5.8 11.2-8.2 3-2.5 6-4.5 6.5-4.5.6 0 3.8 3.8 7.3 8.4zm-132.2 7.4 8.7 6.3-9.1 9.1-9 9-5.6-5c-8.8-7.8-13.2-13.4-11.5-14.3.8-.5 4.8-3.4 8.8-6.4 4.1-3.1 7.8-5.5 8.2-5.4.4.2 4.7 3.2 9.5 6.7zm-22.8 20.2 8.2 8.6-9.1 7.1c-5 4-9.5 7.2-9.9 7.2-1.7 0-18.6-20.7-17.7-21.7.3-.3 4.5-3.1 9.4-6.3 6.4-4.1 9.1-5.4 9.8-4.6.6.6 4.8 5 9.3 9.7zm46.2-4.5c7.9 4.9 8.9 5.8 7.9 7.5-1.6 3.1-15.9 19.9-16.8 19.9-.8 0-19.1-13.7-19.1-14.3.1-.6 17.6-18.6 18.2-18.7.4 0 4.8 2.5 9.8 5.6zm-74.9 12.1c1.8 2.7 5.7 7.9 8.7 11.6 2.9 3.8 5.2 7 5 7.2-1.4 1.3-15.3 10.5-16 10.5-1.5 0-13.7-26.6-12.6-27.5.5-.4 11.3-6.5 11.5-6.5.1 0 1.6 2.1 3.4 4.7zm92.5-1.6c3 1.7 5.4 3.7 5.4 4.5 0 3-7.2 19.9-10.9 25.3-.8 1.2-2.4.5-9-3.8-4.5-3-8.1-5.6-8.1-5.8 0-.3 2.7-4 6.1-8.2 3.4-4.2 7.1-9.3 8.3-11.3 1.1-2.1 2.3-3.8 2.5-3.8.2 0 2.8 1.4 5.7 3.1zm-41.1 14c5 3.9 9.1 7.5 9.3 7.9.4.9-17.6 18-19 18-1.3 0-18.9-17.1-18.6-18.1.4-.9 18-14.9 18.7-14.9.3 0 4.7 3.2 9.6 7.1zm-23 20.3c5.5 5.2 9.8 9.6 9.5 9.8-.3.3-4.7 4-9.9 8.2l-9.4 7.8-1.9-2.3c-11.6-14.4-16.1-21.2-14.7-21.9.7-.5 4.6-3.1 8.4-5.9 3.9-2.7 7.2-5 7.5-5 .3 0 5 4.2 10.5 9.3zm45.9-3.5 8.6 5.8-4.1 5.9c-2.3 3.2-6.2 8.4-8.7 11.4-2.5 3-4.7 5.7-4.8 5.9-.2.2-4.7-3.3-10.1-7.8l-9.9-8.2 9.5-9.4c5.3-5.2 9.9-9.5 10.2-9.5.4 0 4.6 2.6 9.3 5.9zm-74.9 13.8c1.6 2.7 5.6 8 8.7 12l5.7 7.1-8.2 6.3c-4.5 3.4-8.7 6.6-9.3 7.1-1.7 1.3-18.1-23.6-17.2-26.2.3-.9 15.7-10.9 16.8-11 .3 0 1.8 2.1 3.5 4.7zm97.1.5c4.6 2.8 8.4 5.3 8.4 5.5 0 1.2-6 11.8-10.7 18.9-3.7 5.5-6 8.1-6.7 7.6-.6-.5-4.8-3.7-9.4-7.1l-8.3-6.2 4.9-6.2c2.7-3.4 6.6-8.8 8.7-12 2.1-3.1 4-5.7 4.2-5.7.2 0 4.2 2.3 8.9 5.2zm-44.8 9.4c5.3 4.2 9.8 8 10 8.4.1.4-4.3 5.4-9.8 11.1l-10.1 10.4-10-10.3c-5.5-5.7-9.9-10.7-9.7-11.2.3-.8 18.9-15.9 19.6-16 .2 0 4.7 3.4 10 7.6zm-64 19.6c1.7 2.5 3.2 5.1 3.4 5.7.2.6 1.7 2.8 3.5 4.9 12.5 14.6 19.4 23.5 18.6 24.2-.4.5-4.8 4-9.7 7.9l-8.9 7.1-5.5-8.2c-8.3-12.3-16.7-29.1-20.5-40.8-5.5-16.6-5.6-15.3 1.1-19.2l5.7-3.4 4.6 8.6c2.5 4.8 6 10.7 7.7 13.2zm129.7-6.4c-2.6 9.8-7.9 22.6-13.2 32.2-6 10.8-14.2 23-15.4 23-1.2 0-18.9-13.8-18.9-14.7 0-.3 3.3-4.4 7.3-9.1 4-4.8 8.6-10.6 10.2-12.9 1.7-2.4 3.6-4.3 4.3-4.3.7 0 1.1-.4.8-.9-.3-.5 1.5-3.9 4-7.7 2.5-3.8 6.1-10.1 8.1-14l3.5-7.2 5.8 3.5 5.8 3.4-2.3 8.7zm-90.8 9.7c5.7 5.8 10.3 10.7 10.3 10.9 0 .6-17.9 16-19 16.4-.4.2-4.8-4.6-9.6-10.5s-9.4-11.5-10.1-12.4c-1.3-1.5-.4-2.4 7.9-8.2 5.1-3.6 9.5-6.6 9.7-6.6.3-.1 5.1 4.6 10.8 10.4zm50.7-4 9.6 6.6-4.1 5.2c-7.1 9-16.3 19.7-16.9 19.7-.9 0-19-16-19-16.8 0-.5 20.1-21.2 20.6-21.2.1 0 4.5 2.9 9.8 6.5zm-24.9 28.3 9.7 8.3-10.3 10.5-10.4 10.4-9.9-10.5-9.9-10.6 3.9-3.2c2.1-1.8 6.5-5.6 9.8-8.5 3.3-2.9 6.3-5.1 6.7-5 .4.2 5.1 4 10.4 8.6zm-23.8 21.4 10.3 10.3-7.7 7.7c-9.9 9.9-7.2 10.9 3.4 1.3l7.2-6.6 7.2 6.6c4.1 3.7 8.2 6.5 9.3 6.5 1.6-.1.2-1.8-5.9-7.5l-8-7.4 10.6-10.6 10.5-10.6 9.7 7.7c5.3 4.3 9.7 8.1 9.7 8.5 0 2-22.4 29-35.9 43.1l-7.3 7.8-6.8-7.3c-16.8-18-36.4-42-35.8-43.8.3-1 17.7-15.6 18.8-15.8.2-.1 5.1 4.5 10.7 10.1z"/></svg>