<svg xmlns="http://www.w3.org/2000/svg" width="400" height="300" version="1.0" viewBox="0 0 300 225"><path d="M197.186 3.155c-8.098-.242-16.465 2.068-22.32 7.897-1.55 2.095-3.452 3.118-6.1 2.534-27.756.186-55.53-.433-83.27.61-9.164.28-19.421 2.443-24.932 10.512-3.933 5.052-3.744 11.737-6.333 17.393-11.693 32.15-24.326 64.017-37.228 95.82-3.642 8.696-7.043 17.54-11.658 25.765-3.939 9.595-2.654 21.26 4.065 29.323 4.324 6.704 8.22 13.862 14.433 19.081 15.773 14.246 37.844 18.403 58.48 18.299 20.786.03 42.879-5.473 57.775-20.807 9.275-9.684 16.267-22.817 15.491-36.532-1.59-10.026-5.755-19.42-8.784-29.063-8.942-25.804-18.334-51.45-27.453-77.192 18.12-.121 36.242-.219 54.362.005.221 68.502-.021 137.008.673 205.507-.454 10.013 3.276 20.99 12.31 26.268 11.811 7.335 29.276 4 36.715-7.987 4.61-7.99 3.143-17.578 3.727-26.396.743-65.87.347-131.747.47-197.62 18.224.017 36.448-.032 54.672.087-11.493 32.34-22.947 64.809-35.122 96.726-2.916 5.956-3.696 12.92-1.242 19.176 5.729 20.812 22.8 37.925 43.603 43.711 15.711 4.563 32.431 4.932 48.593 3.012 18.576-2.45 37.04-11.227 47.935-26.922 6.916-10.237 13.038-22.793 9.922-35.443-2.2-7.33-5.956-14.095-8.558-21.295-12.697-31.86-25.435-63.723-36.978-96.024-1.658-4.613-3.075-9.318-3.271-14.237-1.566-10.316-10.531-18.229-20.578-20.032-11.913-1.987-24.077-1.168-36.105-1.514-22.617-.186-45.36-.03-67.898-.362-6.316-7.266-15.93-10.606-25.396-10.3Zm124.728 113.9c4.02 10.351 8.033 20.705 11.973 31.087-9.044.098-18.089.099-27.133.012 4.288-12.207 8.637-24.267 13.063-36.482.7 1.794 1.398 3.589 2.097 5.383zM86.94 126.106l7.946 22.062c-9.029.108-18.06.106-27.088.004a5908.332 5908.332 0 0 1 14.023-36.237l5.119 14.171z" style="fill:#fff;stroke-width:.447761" transform="scale(.75)"/><path d="M141.9 18.3c-.8.7-2.4 2.4-3.3 3.9l-1.8 2.8H98.1C57.4 25 57 25 57 29.5c0 3.2-35.9 94.7-38.1 97.1-2.4 2.5-2.5 6.8-.1 9.1.9 1 2.6 3.5 3.6 5.6 5.5 10.6 19.3 16.7 38.3 16.7 11.1 0 19.2-1.7 26.6-5.7 8.6-4.7 14.7-13.6 14.7-21.4 0-1.3-7.4-22.9-16.5-48S69 36.7 69 36.1c0-.8 9.7-1.1 34.9-1.1 31.4 0 35.2.2 38 1.7l3.1 1.8v85.2c0 76.1.2 85.3 1.6 86.7 2.2 2.3 7.1 2 8.4-.3.7-1.3 1-30.8 1-88.5V35h38c32.7 0 38 .2 38 1.5 0 1.6-31.3 88.6-33.1 92.2-1 1.8-.8 3.2 1 7.7 6 14.6 19.2 21.6 40.6 21.6 20.3 0 33-6.2 39.6-19.1 3-6 3.6-9.8 2-11.5-.5-.5-8.9-21.2-18.5-46C251 49.1 246 35.1 246 32.2c0-7.4 1.1-7.2-45.7-7.2h-41.2l-1.2-2.3c-2-3.9-5.1-5.7-9.9-5.6-2.5 0-5.2.5-6.1 1.2zm114 65.7c8.7 22.3 15.6 40.8 15.4 41.2-.2.5-14.1.8-30.8.8-16.7 0-30.6-.3-30.8-.8-.2-.4 5.1-16 11.9-34.7 6.8-18.7 13.6-37.4 15.1-41.5 1.4-4.1 2.8-7 3-6.5.2.6 7.4 19.2 16.2 41.5zm-179-.7c8 22.1 14.7 40.8 14.9 41.4.3 1-6.2 1.3-30.7 1.3-23.6 0-31.1-.3-31.1-1.2C30 123 61.2 43 61.9 43c.3 0 7.1 18.1 15 40.3zM92 136c0 2.9-6.6 8.7-12.9 11.1-8.7 3.4-25 3.8-34.1.9-7.4-2.4-15.3-8.2-16.3-12-.5-2-.1-2 31.4-2 31 0 31.9.1 31.9 2zm181-.9c0 .7-2.1 3.3-4.7 5.9-6.4 6.3-14.6 9-27.8 9-13 0-21-2.6-27.6-8.9-2.7-2.6-4.9-5.3-4.9-5.9 0-.9 8.1-1.2 32.5-1.2 23.7 0 32.5.3 32.5 1.1z"/></svg>