<svg xmlns="http://www.w3.org/2000/svg" width="400" height="300" version="1.0" viewBox="0 0 300 225"><path d="M197 3a30 30 0 0 0-22 8l-6 3H85c-9 1-19 3-25 11-3 5-3 11-6 17l-37 96c-4 9-7 18-12 26a29 29 0 0 0 4 29c5 7 9 14 15 19 16 14 38 19 58 18 21 0 43-5 58-20a51 51 0 0 0 16-37c-2-10-6-19-9-29l-28-77h55v205c0 10 4 21 13 27 11 7 29 4 36-8 5-8 4-18 4-27l1-197h54l-35 96c-3 6-4 13-1 20a64 64 0 0 0 43 43c16 5 33 5 49 3a69 69 0 0 0 48-27c7-10 13-22 10-35l-9-21a2925 2925 0 0 1-37-96 48 48 0 0 1-3-15 25 25 0 0 0-20-20c-12-2-24-1-37-1l-68-1a32 32 0 0 0-25-10Zm125 114 12 31h-27l13-36 2 5zm-235 9 8 22H68a5908 5908 0 0 1 14-36l5 14z" style="fill:#fff;stroke-width:.447761" transform="scale(.75)"/><path d="m142 18-3 4-2 3H98c-41 0-41 0-41 5 0 3-36 94-38 97-3 2-3 6 0 9l3 5c6 11 20 17 39 17 11 0 19-2 26-6 9-4 15-13 15-21L86 83 69 36l35-1c31 0 35 0 38 2l3 2v85c0 76 0 85 2 86 2 3 7 2 8 0l1-88V35h38c33 0 38 0 38 2l-33 92c-1 1-1 3 1 7 6 15 19 22 41 22 20 0 33-6 39-19 3-6 4-10 2-12a1111 1111 0 0 1-36-95c0-7 1-7-46-7h-41l-1-2c-2-4-5-6-10-6l-6 1zm114 66a808 808 0 0 1 15 41l-30 1-31-1 12-34 15-42c1-4 2-7 3-6l16 41zM77 83l15 42-31 1-31-1 32-82 15 40zm15 53c0 3-7 9-13 11-9 3-25 4-34 1-7-2-15-8-16-12-1-2 0-2 31-2s32 0 32 2zm181-1-5 6c-6 6-14 9-27 9s-21-3-28-9a22 22 0 0 1-5-6l33-1 32 1z"/></svg>