<?xml version="1.0" encoding="UTF-8" standalone="no"?>
<svg
   xmlns:dc="http://purl.org/dc/elements/1.1/"
   xmlns:cc="http://creativecommons.org/ns#"
   xmlns:rdf="http://www.w3.org/1999/02/22-rdf-syntax-ns#"
   xmlns:svg="http://www.w3.org/2000/svg"
   xmlns="http://www.w3.org/2000/svg"
   xmlns:sodipodi="http://sodipodi.sourceforge.net/DTD/sodipodi-0.dtd"
   xmlns:inkscape="http://www.inkscape.org/namespaces/inkscape"
   version="1.0"
   width="330.67621pt"
   height="322.82257pt"
   viewBox="0 0 330.67621 322.82257"
   preserveAspectRatio="xMidYMid meet"
   id="svg10342"
   sodipodi:docname="kiasyd.svg"
   inkscape:version="1.0.1 (3bc2e813f5, 2020-09-07)">
  <defs
     id="defs10346" />
  <sodipodi:namedview
     pagecolor="#ffffff"
     bordercolor="#666666"
     borderopacity="1"
     objecttolerance="10"
     gridtolerance="10"
     guidetolerance="10"
     inkscape:pageopacity="0"
     inkscape:pageshadow="2"
     inkscape:window-width="1600"
     inkscape:window-height="837"
     id="namedview10344"
     showgrid="false"
     fit-margin-top="0"
     fit-margin-left="0"
     fit-margin-right="0"
     fit-margin-bottom="0"
     inkscape:zoom="1.6262136"
     inkscape:cx="194.44781"
     inkscape:cy="215.63956"
     inkscape:window-x="-8"
     inkscape:window-y="-8"
     inkscape:window-maximized="1"
     inkscape:current-layer="svg10342" />
  <metadata
     id="metadata10324">
Created by potrace 1.16, written by Peter Selinger 2001-2019
<rdf:RDF>
  <cc:Work
     rdf:about="">
    <dc:format>image/svg+xml</dc:format>
    <dc:type
       rdf:resource="http://purl.org/dc/dcmitype/StillImage" />
    <dc:title></dc:title>
  </cc:Work>
</rdf:RDF>
</metadata>
  <path
     id="path10927"
     style="fill:#ffffff;stroke-width:0.00509552"
     d="m 165.95121,129.04234 c -1.3602,0.003 -2.72289,0.0972 -4.06357,0.33256 -1.09114,0.1916 -2.16495,0.48746 -3.19401,0.89878 -0.32163,0.12809 -0.63882,0.2673 -0.95107,0.41678 -0.35512,0.17117 -0.70428,0.3548 -1.04517,0.55282 -0.30954,0.1801 -0.61352,0.36983 -0.90936,0.57169 -0.24629,0.16669 -0.48743,0.34119 -0.72285,0.5229 -0.34079,0.26151 -0.66922,0.53886 -0.98671,0.82816 -0.28376,0.26131 -0.55905,0.5319 -0.82232,0.81389 -0.31483,0.33615 -0.61378,0.68709 -0.89655,1.05061 -0.22951,0.29538 -0.44762,0.59954 -0.65466,0.91108 -0.17523,0.26386 -0.34146,0.53359 -0.50014,0.80772 -0.19762,0.34551 -0.38338,0.69787 -0.55385,1.05758 -0.18576,0.39225 -0.35471,0.7924 -0.50635,1.19906 -0.16093,0.43323 -0.30197,0.87382 -0.42277,1.31992 -0.0988,0.36767 -0.18479,0.73884 -0.2556,1.11295 -0.0788,0.41638 -0.14046,0.83606 -0.18429,1.25758 -0.0398,0.39312 -0.0658,0.78771 -0.0752,1.18277 -0.0102,0.4339 -0.001,0.86816 0.025,1.30135 0.0294,0.45852 0.0788,0.91576 0.14952,1.36977 0.0659,0.42697 0.15221,0.85066 0.25418,1.27044 0.11761,0.47663 0.25778,0.94773 0.42113,1.41069 0.1436,0.40784 0.30531,0.80922 0.48344,1.2032 0.16182,0.35592 0.33627,0.70616 0.52536,1.04842 0.20464,0.37119 0.42487,0.73382 0.65982,1.08661 0.24039,0.35932 0.49542,0.7088 0.7655,1.04639 0.23521,0.2946 0.48257,0.5794 0.73871,0.85599 0.30888,0.33045 0.63187,0.64769 0.96873,0.94959 0.28808,0.2583 0.58676,0.50467 0.8936,0.74034 0.28785,0.21976 0.58324,0.42977 0.88602,0.62845 0.29391,0.19234 0.59394,0.37529 0.90045,0.54686 0.32437,0.18138 0.65527,0.35104 0.99192,0.5085 0.33571,0.15601 0.67676,0.30053 1.02283,0.43203 0.35693,0.13539 0.719,0.25709 1.08504,0.36547 0.27176,0.0799 0.5456,0.1526 0.8214,0.21733 0.50204,0.1187 1.01027,0.21138 1.52183,0.27796 0.67812,0.089 1.36221,0.13078 2.04609,0.13028 0.6835,6.4e-4 1.36719,-0.0303 2.0471,-0.10123 0.86299,-0.0872 1.72196,-0.21255 2.57554,-0.36621 0.43689,-0.0786 0.87001,-0.17803 1.29803,-0.29563 0.41691,-0.11442 0.82845,-0.24792 1.2341,-0.39736 0.42549,-0.15863 0.84434,-0.33518 1.25399,-0.53118 0.42042,-0.20098 0.8315,-0.42151 1.23141,-0.66073 0.35608,-0.21316 0.70371,-0.44061 1.04067,-0.6829 0.37072,-0.26518 0.72881,-0.548 1.07353,-0.84616 0.32592,-0.28146 0.63877,-0.57784 0.93964,-0.88589 0.31597,-0.32615 0.61827,-0.66558 0.90389,-1.01864 0.29321,-0.36218 0.56958,-0.73799 0.82782,-1.12589 0.22988,-0.34553 0.44601,-0.70031 0.6461,-1.06392 0.22073,-0.39879 0.42249,-0.80807 0.60556,-1.22546 0.17329,-0.39423 0.32836,-0.79631 0.4676,-1.20378 0.14511,-0.43029 0.27215,-0.8667 0.37827,-1.30827 0.10905,-0.45304 0.19704,-0.91116 0.26349,-1.37239 0.059,-0.41079 0.10167,-0.82403 0.12601,-1.23834 0.0279,-0.45495 0.0341,-0.91121 0.02,-1.36677 -0.013,-0.43043 -0.0458,-0.86013 -0.0952,-1.28788 -0.0539,-0.45089 -0.12683,-0.89953 -0.22081,-1.34383 -0.0963,-0.45594 -0.21375,-0.9074 -0.35203,-1.35241 -0.12329,-0.39628 -0.26241,-0.78773 -0.41852,-1.17227 -0.17037,-0.42276 -0.36085,-0.83741 -0.56943,-1.24266 -0.19676,-0.38305 -0.41109,-0.75692 -0.6396,-1.12189 -0.24251,-0.38393 -0.50118,-0.75767 -0.77701,-1.11844 -0.28291,-0.37027 -0.58304,-0.7274 -0.89918,-1.06975 -0.28048,-0.30357 -0.57313,-0.59603 -0.87799,-0.87513 -0.33674,-0.30969 -0.68819,-0.60339 -1.05207,-0.88065 -0.34232,-0.26128 -0.69653,-0.50673 -1.05973,-0.73803 -0.38401,-0.2424 -0.7782,-0.46867 -1.18232,-0.67584 -0.41462,-0.2127 -0.83911,-0.40616 -1.27172,-0.57939 -0.38532,-0.15414 -0.77688,-0.29294 -1.17379,-0.4142 -0.43557,-0.13428 -0.87751,-0.24785 -1.32358,-0.34144 -0.42138,-0.0888 -0.84671,-0.15811 -1.27407,-0.21085 -0.45091,-0.0538 -0.90409,-0.0887 -1.35803,-0.10199 -0.2678,-0.008 -0.53582,-0.008 -0.80372,-0.009 z m -20.9947,-38.120665 c -7.01803,0.525518 -12.56244,6.033742 -15.61586,12.012055 -3.3197,7.09973 -0.23569,16.34308 6.77978,19.90126 7.55853,4.26523 18.19429,1.23944 22.10738,-6.58921 2.93901,-5.51536 4.23681,-12.66948 0.56534,-18.171865 -2.78487,-4.774612 -8.36149,-7.503022 -13.83664,-7.15224 z m 29.77824,-2.64903 c -6.76698,1.348313 -12.055,7.700175 -11.98983,14.624675 -0.11187,5.29374 -0.0748,11.24362 3.89007,15.28664 2.96822,3.02618 6.52245,5.70298 10.52969,7.19427 6.9332,2.23923 15.13189,-1.29099 18.07304,-7.99578 1.8668,-3.3123 1.5055,-7.19339 1.42908,-10.80923 0.74958,-6.57446 -3.59895,-12.713637 -9.31618,-15.601865 -3.80527,-2.208555 -8.20539,-3.563287 -12.61587,-2.69871 z m 22.27444,68.905465 c -7.38831,1.01275 -13.17013,7.88029 -13.20505,15.28912 0.0427,10.00521 1.50226,19.99085 3.7089,29.73301 2.14665,7.4433 10.41195,12.33423 17.95611,10.53709 8.00832,-1.7221 14.44381,-9.16272 14.51129,-17.44662 0.37144,-4.79633 -0.7991,-9.51741 -1.56751,-14.18721 -0.12736,-8.41989 -3.63316,-17.63306 -11.26939,-21.95787 -3.05053,-1.78045 -6.64667,-2.39741 -10.13435,-1.96752 z m 34.52025,-78.150656 c -8.26249,0.87288 -15.07666,6.583194 -20.10909,12.805426 -1.82352,2.603963 -2.36737,5.810205 -2.82394,8.84608 -0.99682,1.25126 -2.90928,-0.0524 -4.25413,0.24331 -6.40667,-0.72617 -12.99971,1.74246 -17.19293,6.67387 -4.27308,4.54569 -8.47632,9.70908 -9.23331,16.13292 -1.16004,6.20617 -1.44432,13.32439 2.88909,18.44821 2.84648,2.811 5.1087,6.39516 8.88819,8.08338 3.07935,1.71198 6.66272,1.64098 10.05216,1.71239 6.33114,1.80825 10.15221,8.62819 17.04623,9.02134 7.88296,1.12019 15.82651,-5.16887 16.52955,-13.10807 0.43377,-2.90215 -0.17199,-6.23194 2.14128,-8.51449 3.25844,-3.59341 6.61043,-7.35089 7.88979,-12.1662 1.78335,-5.29218 2.27907,-10.93561 4.37581,-16.14677 1.65506,-5.8986 0.97409,-12.131915 0.97979,-18.17189 -0.27061,-7.612207 -7.20939,-14.090866 -14.80097,-14.000953 -0.79111,-0.07451 -1.58604,0.114101 -2.37752,0.141447 z m -15.58338,44.215756 c -0.81555,-2.53 -0.68575,-2.77642 0,0 z m 0.67133,1.54203 c -0.10491,-0.14457 -0.29481,-0.65143 0,0 z m -35.50241,5.26908 c -6.13649,1.13539 -12.93569,1.81645 -17.37228,6.84673 -3.02681,2.60423 -4.2864,6.71605 -6.18649,9.84744 -6.54492,3.90922 -7.57517,12.27104 -6.55959,19.18977 -1.03037,9.33624 -2.89235,19.42952 0.81528,28.40881 4.01983,8.34267 15.84203,11.16818 23.01473,5.17889 7.77186,-6.18369 7.0744,-17.09382 8.39535,-25.97754 4.93373,-4.38528 10.32409,-8.70113 12.44454,-15.25599 3.3925,-7.9785 4.81535,-18.86225 -2.83777,-24.91653 -3.32488,-2.53726 -7.53226,-3.78858 -11.71377,-3.32158 z m -14.76682,13.98466 c -3.11672,0.5503 -2.60987,-0.0393 0,0 z m -36.51452,9.91588 c -8.20537,1.75393 -15.38114,7.54252 -18.21052,15.51722 -4.05486,6.09589 -9.30234,13.00135 -6.69258,20.75925 1.48911,5.47882 6.7185,8.41603 9.34011,13.23036 6.03115,7.75891 19.29014,7.2006 24.32676,-1.33793 3.06823,-4.25698 2.34957,-9.65795 2.28969,-14.53208 7.01624,-7.42742 10.26437,-21.1123 2.51309,-29.16908 -3.35474,-3.81694 -8.65889,-5.1768 -13.56655,-4.46774 z M 91.049079,85.955123 c -10.144103,0.487042 -16.93364,11.422469 -14.408866,20.924757 1.475079,8.95696 3.871853,18.9466 12.256006,23.97061 2.432603,1.91935 6.560378,4.02133 5.165408,7.7288 -2.289105,9.8709 0.138772,22.05515 9.542633,27.38844 3.66706,2.20085 8.20771,1.91364 11.66353,4.49784 11.69589,5.23826 26.34822,-5.70455 25.5174,-18.32726 4.06221,-4.10338 5.63424,-9.77074 6.18852,-15.3388 4.04738,-9.9112 -2.5046,-22.87581 -13.56376,-23.83353 -4.53524,-0.98108 -8.9746,1.73908 -12.80557,3.05144 -0.22843,-4.48375 0.63869,-9.45917 -2.14012,-13.48402 -5.72222,-8.001577 -14.2339,-15.09225 -24.247046,-16.526055 -1.055152,-0.120645 -2.109472,-0.106417 -3.168135,-0.0522 z M 158.9864,1.066267 c -8.7576,3.8371165 -9.82194,14.172773 -12.9556,22.050493 -1.62974,2.500208 -0.82967,7.798112 -4.38133,8.075884 -4.07608,0.494423 -8.26066,2.190473 -12.20309,2.321909 C 118.63632,27.872379 104.16871,32.5371 98.414657,43.213879 91.846532,36.07937 80.174361,36.303901 72.68354,41.844457 66.494782,38.584984 58.55056,35.738248 52.216839,40.238739 c -7.531912,4.25472 -8.908663,14.708686 -4.570147,21.777617 3.22848,7.140976 7.107869,13.991147 9.926078,21.313294 -1.651923,3.006248 -2.280993,7.794203 -6.429276,8.045828 -13.513062,4.569322 -20.057418,22.352032 -12.314603,34.444462 -1.241132,3.60289 -1.081023,8.31271 -2.913315,11.24607 -9.979679,3.72564 -20.607812,5.92231 -30.098026,10.80225 -7.5512673,5.58606 -7.9105608,18.15037 -0.1425879,23.67754 6.6381449,4.44606 15.0110509,5.5166 22.4262449,8.39203 2.658544,1.47075 7.312942,1.19072 8.80922,3.67679 0.45946,4.68136 3.443821,9.40518 0.672609,13.82925 -3.952194,11.50967 3.001812,24.75951 14.406314,28.63683 2.774185,1.15221 3.726604,4.61952 5.644566,6.80253 -4.39843,9.52733 -10.049815,18.59433 -13.385167,28.55143 -2.403097,9.79398 6.82832,19.84048 16.791523,18.36559 8.023793,-1.46081 14.925045,-6.26398 22.278899,-9.54136 -0.489314,9.29167 8.805018,16.36718 17.684009,15.17319 4.05067,0.0271 8.08295,-1.6247 11.82671,0.5898 5.65087,1.60342 11.87744,0.9189 17.06362,-1.83057 3.86213,0.98884 7.75427,1.86127 11.67003,2.61019 3.77799,9.88893 5.9843,20.53386 11.29422,29.74765 5.82535,8.69939 20.21392,8.27693 25.46487,-0.80509 4.32642,-9.38548 6.87123,-19.52059 10.5108,-29.19479 5.00994,-0.55826 10.05756,-3.70474 14.9235,-1.23949 8.60793,2.23789 18.17994,-1.07066 23.75532,-7.95665 6.18299,-0.0114 12.59949,-3.5008 14.6802,-9.535 9.04177,4.10806 17.59826,9.72613 27.24597,12.24466 9.12962,1.75271 18.3116,-6.64164 17.23024,-15.92136 -1.05532,-7.73196 -6.05321,-14.31806 -9.02921,-21.43758 -1.50486,-3.8304 -4.67525,-7.76717 -5.08041,-11.52137 1.65666,-3.21481 4.1215,-5.3968 7.46512,-6.65845 9.63254,-5.50116 15.03783,-17.65673 11.1538,-28.33503 -2.32124,-3.99801 0.38668,-8.35213 0.94042,-12.53743 10.8046,-4.28762 22.38403,-6.67392 32.76421,-11.91588 7.54074,-5.6004 7.87445,-18.16809 0.0944,-23.67836 -6.75468,-4.50822 -15.27508,-5.59501 -22.77968,-8.61069 -2.99275,-1.73039 -8.44457,-1.29621 -9.90156,-4.37754 -0.30698,-4.45881 -3.49609,-9.03802 -0.91496,-13.20075 4.61193,-12.44974 -2.71272,-28.392737 -16.11331,-31.245737 -1.91582,-2.62764 -4.54165,-5.26857 -1.78259,-8.264745 3.51404,-7.946357 8.37145,-15.436957 10.82129,-23.781694 2.44498,-9.728427 -7.05059,-19.70564 -16.87742,-17.817119 -3.00473,-0.136798 -5.96673,3.511106 -8.08734,0.230629 -8.46651,-6.808218 -22.47744,-4.583581 -27.99735,4.946478 -3.29615,-9.375117 -12.88026,-15.924485 -22.86869,-14.871282 -3.9275,-0.238558 -7.59875,2.151469 -11.24328,2.268782 -3.30642,-1.092462 -7.6707,-0.997687 -10.28955,-2.832579 -3.343,-8.551452 -5.34464,-17.970456 -10.80043,-25.4745507 C 171.88571,0.18420592 164.9349,-1.2118315 158.9864,1.066267 Z m 75.1029,92.611118 c -1.44911,4.73004 1.38041,9.621275 -1.03312,14.113315 -2.22339,5.79222 -2.26674,12.26712 -5.04456,17.83943 -6.01014,5.23048 -10.71782,13.25286 -8.92482,21.37189 -6.82439,-6.18199 -16.68001,-13.07406 -26.15201,-8.6941 -7.33815,3.13656 -10.82323,12.46976 -7.58416,19.70935 -9.36958,-1.68357 -17.59472,7.33155 -17.02643,16.43995 -0.21659,5.28339 -1.21035,10.50425 -2.69579,15.5714 -2.40676,-7.39322 -1.41114,-15.33521 0.31975,-22.73496 0.44799,-3.4068 -1.53635,-6.52053 -0.55386,-9.83918 0.0313,-5.23395 -3.10102,-10.03903 -2.32001,-15.34288 2.83119,-2.99733 4.95254,1.23877 7.61143,2.38852 8.46784,4.06553 19.7435,-1.49603 20.99535,-10.9462 0.94055,-4.16075 -0.23331,-8.94603 3.23768,-12.27664 2.32527,-2.62973 4.65546,-6.88029 8.73372,-5.62418 9.68793,2.89038 20.55116,-5.32518 19.90056,-15.55154 3.08213,-2.592373 5.6255,-6.241227 9.97078,-6.318507 l 0.57313,-0.160448 0.004,-0.0015 z M 92.852889,100.6264 c 2.85852,0.89809 5.697038,1.32065 7.551561,3.96687 1.89323,1.83798 4.36601,3.42358 6.09298,5.19233 -3.81223,9.35776 3.36141,21.22987 13.70753,21.16995 4.38218,0.6514 8.08417,-2.41085 11.79556,-3.84644 3.03193,2.00297 0.87765,4.71051 0.34165,7.42725 -0.83246,2.80368 0.26409,6.19526 -2.72171,7.75536 -6.52751,6.90882 -3.9038,19.55139 4.81062,23.24017 -1.43004,3.24361 -1.12403,7.26317 -2.48383,10.29694 -6.06362,4.33815 -7.93754,13.26184 -4.3378,19.75263 -2.12842,0.37789 -3.70842,-5.16395 -5.86992,-6.99824 -2.7213,-1.28906 -3.40513,-3.41145 -1.52114,-5.74184 3.9506,-4.92045 8.3694,-10.70749 6.49138,-17.43479 -1.44639,-7.26666 -8.76682,-12.13678 -15.99707,-11.746 -3.60831,-3.68592 -3.21701,-8.9842 -1.80255,-13.51587 2.04107,-7.27012 -2.10011,-15.26199 -8.65652,-18.42547 -1.745733,-3.38218 -6.779336,-3.68149 -6.901376,-7.86997 -1.214482,-4.33714 -2.174925,-8.7465 -2.864962,-13.1974 0.77244,0.13912 1.640572,-0.28581 2.365597,-0.0255 z m 82.314341,1.65859 c 4.88743,0.62953 9.29099,4.01631 11.10951,8.59487 -3.33171,2.52219 -7.87911,-1.54361 -10.08289,-4.25691 -0.38214,-0.81886 -4.00063,-5.37011 -1.02662,-4.33796 z m -30.06995,7.3694 c -6.48835,2.09281 3.23039,-7.35593 0.75874,-2.36961 -0.25292,0.78987 -0.50583,1.57974 -0.75874,2.36961 z m 53.50553,62.25837 c 3.63804,-0.0565 3.96997,4.96135 5.14011,7.62672 -1.28375,5.25288 2.49252,9.93279 1.31766,15.10851 0.82953,2.02624 -3.74883,5.50347 -3.5979,2.23155 -1.62211,-8.1988 -2.84343,-16.68659 -2.85987,-24.96678 z m -44.19601,7.39743 c 0.25687,0.33909 -0.31253,-0.37924 0,0 z" />
  <g
     transform="matrix(0.1,0,0,-0.1,9.1696753,315.49817)"
     fill="#000000"
     stroke="none"
     id="g10340">
    <path
       d="m 1504,2868 -50,-152 -75,-12 c -41,-6 -102,-19 -136,-29 -61,-17 -62,-17 -89,4 -31,25 -64,27 -103,6 -29,-15 -54,-65 -45,-89 3,-8 -13,-24 -43,-41 -26,-16 -64,-41 -84,-57 -20,-15 -39,-28 -42,-28 -17,0 -47,73 -47,114 0,46 0,46 -34,46 -33,0 -66,-27 -79,-63 -3,-8 -33,2 -91,30 -47,24 -86,41 -86,38 0,-3 28,-60 61,-128 34,-67 65,-137 70,-155 10,-45 -5,-95 -55,-174 -38,-63 -43,-68 -77,-68 -79,0 -120,-100 -65,-155 24,-24 24,-26 10,-72 -8,-26 -20,-84 -27,-127 l -13,-80 -179,-60 -180,-60 183,-58 182,-59 1,-32 c 0,-18 11,-72 23,-122 23,-88 24,-90 5,-111 -21,-22 -25,-74 -9,-105 12,-21 60,-49 87,-49 11,-1 39,-34 77,-92 l 59,-91 -86,-174 c -48,-95 -85,-173 -82,-173 3,0 82,38 176,86 l 171,85 49,-33 c 27,-18 49,-37 49,-43 0,-5 -9,-21 -20,-35 -11,-14 -20,-41 -20,-62 v -38 h 48 c 26,0 53,4 61,9 9,6 25,2 45,-10 40,-25 77,-24 110,2 l 27,21 77,-21 c 42,-11 100,-23 128,-27 l 50,-6 59,-179 c 33,-98 62,-179 65,-179 3,0 32,81 65,179 l 59,179 40,6 c 23,4 78,16 123,27 76,19 85,19 105,5 47,-33 116,-11 136,44 8,22 15,25 58,25 h 49 l 3,40 c 2,32 11,46 40,71 l 37,32 177,-89 c 98,-49 180,-89 183,-89 3,0 -35,81 -85,179 l -89,179 55,84 c 46,68 62,85 90,91 50,13 87,62 80,105 -3,19 -12,42 -21,51 -13,16 -13,25 4,97 11,43 23,97 28,118 l 8,39 185,62 185,62 -186,62 -187,62 -6,49 c -4,27 -15,83 -26,126 -20,76 -20,76 0,101 47,60 9,153 -62,153 -31,0 -38,7 -88,83 -30,45 -56,87 -58,93 -2,7 34,82 78,168 45,86 79,156 76,156 -4,0 -42,-18 -86,-40 -44,-22 -81,-40 -83,-40 -3,0 -7,19 -11,42 -9,53 -21,68 -56,68 -25,0 -32,-7 -53,-52 -24,-51 -60,-98 -75,-98 -4,0 -38,21 -76,45 -38,25 -74,45 -79,45 -5,0 -6,7 -3,16 8,21 -18,80 -42,93 -34,18 -90,13 -113,-10 -17,-17 -24,-19 -54,-9 -18,6 -75,19 -126,29 l -93,17 -50,152 c -28,84 -53,152 -56,152 -3,0 -28,-68 -56,-152 z M 778,2471 c 9,-14 38,-50 65,-79 51,-55 53,-72 9,-72 -15,0 -38,-9 -52,-20 l -25,-20 45,15 c 41,15 46,14 57,-1 9,-12 21,-15 42,-11 25,5 32,1 52,-27 12,-18 53,-54 91,-80 37,-26 75,-60 83,-77 15,-28 15,-30 -10,-53 -14,-13 -25,-34 -25,-47 0,-23 1,-22 19,7 25,42 38,48 50,27 9,-17 11,-16 33,5 14,12 31,22 40,22 22,0 121,-109 142,-158 19,-43 19,-43 -3,-82 -18,-32 -22,-53 -20,-108 l 3,-67 -55,-6 -54,-6 50,-2 c 45,-1 53,-5 83,-41 17,-21 32,-42 32,-46 0,-4 -12,-32 -27,-63 -21,-43 -27,-72 -28,-126 -1,-88 -8,-102 -41,-80 -19,12 -24,13 -24,2 0,-8 9,-22 20,-32 25,-22 26,-59 3,-77 -10,-7 -18,-27 -19,-44 0,-16 -20,-82 -44,-145 -66,-176 -67,-179 -103,-179 -31,0 -31,0 -9,-16 12,-8 22,-21 22,-29 0,-31 -94,-167 -148,-215 -52,-46 -96,-70 -108,-58 -2,3 11,31 31,63 44,73 65,146 65,225 0,59 1,61 32,74 l 31,14 -24,12 c -34,18 -40,32 -44,107 -4,64 -3,67 31,101 29,29 31,34 13,29 -12,-3 -31,-2 -41,4 -17,9 -17,12 -2,41 l 17,32 -28,-18 c -31,-21 -33,-19 -48,31 -24,87 -4,180 53,241 25,26 25,34 3,31 -47,-7 -111,38 -143,101 -38,75 -41,116 -15,213 7,28 7,28 -14,15 -18,-11 -23,-11 -31,2 -5,8 -10,25 -10,38 0,19 -4,21 -25,16 -23,-6 -28,-1 -50,48 -30,65 -66,230 -68,308 -1,41 4,65 20,92 17,30 19,37 7,42 -34,13 -9,143 44,221 l 27,40 3,-54 c 2,-29 11,-65 20,-80 z m 1630,63 c 18,-76 9,-310 -13,-334 -9,-10 -11,-20 -5,-30 15,-24 11,-88 -7,-123 -9,-18 -18,-48 -19,-67 -1,-19 -13,-67 -26,-105 -18,-54 -31,-74 -56,-90 -17,-11 -31,-28 -32,-37 0,-10 -6,-18 -12,-18 -7,0 -5,-5 5,-11 23,-14 22,-26 -14,-105 -35,-77 -96,-164 -116,-164 -7,0 -28,24 -46,53 -57,89 -145,146 -253,164 -46,8 -46,8 -49,52 -5,62 -23,100 -58,117 -28,15 -29,18 -24,66 11,88 85,187 181,241 38,21 48,23 53,12 3,-10 13,-13 29,-9 14,4 31,1 39,-6 12,-10 15,-9 15,4 0,10 -5,27 -11,38 -9,17 -7,24 17,44 15,14 54,49 87,80 51,48 63,55 88,50 25,-5 29,-2 29,17 0,16 16,35 51,62 53,40 93,94 105,140 10,40 26,25 42,-41 z M 1367,2185 c 14,-10 24,-12 28,-5 15,25 23,5 18,-46 -6,-54 -5,-56 15,-50 19,6 20,5 9,-23 -9,-25 -8,-33 7,-50 10,-11 15,-25 11,-31 -5,-8 -22,3 -51,34 -46,48 -54,62 -29,52 26,-10 16,16 -20,50 -41,38 -44,48 -13,38 20,-6 21,-5 9,10 -7,9 -20,16 -27,16 -8,0 -14,5 -14,10 0,15 33,12 57,-5 z m 423,-10 c 0,-2 -14,-12 -32,-21 -27,-14 -29,-18 -15,-26 23,-12 21,-28 -3,-28 -23,0 -41,-31 -22,-38 17,-5 15,-22 -4,-22 -8,0 -28,-14 -43,-31 -20,-21 -31,-27 -36,-19 -4,6 -2,17 4,23 6,6 11,21 11,33 0,26 16,41 23,22 2,-7 8,-1 12,14 4,15 2,35 -5,48 -13,25 -4,42 11,20 6,-10 11,-12 17,-4 15,23 82,46 82,29 z m -160,-198 c 20,-11 24,-19 22,-47 -1,-19 -7,-39 -12,-44 -6,-6 9,-22 40,-43 31,-21 52,-43 55,-58 3,-14 7,-36 10,-49 8,-39 -13,-128 -37,-153 l -21,-22 27,-59 c 14,-33 26,-77 26,-98 -1,-79 -31,-207 -74,-311 -55,-135 -83,-216 -91,-270 -4,-24 -10,-43 -15,-43 -10,0 -20,26 -20,55 0,13 -23,90 -51,172 -74,213 -88,269 -88,353 0,57 5,89 23,133 15,35 20,60 14,63 -26,16 -48,91 -48,167 0,75 1,80 31,107 16,16 53,38 82,49 34,13 44,20 29,20 -13,1 -33,-4 -44,-10 -16,-9 -23,-8 -29,2 -13,21 -11,65 4,77 28,23 129,29 167,9 z m 248,-338 c 31,-11 49,-40 37,-59 -4,-6 3,-6 18,1 20,9 30,8 50,-6 59,-38 129,-193 107,-235 -7,-13 -5,-22 7,-31 13,-12 15,-28 9,-104 -3,-49 -10,-103 -15,-120 -7,-27 -12,-30 -45,-28 -42,3 -41,-9 4,-27 l 30,-12 V 896 c 0,-66 1,-132 2,-145 2,-19 -3,-26 -22,-31 -24,-6 -24,-6 6,-13 24,-4 34,-14 43,-38 6,-18 22,-47 36,-65 31,-41 31,-44 0,-44 -43,0 -130,39 -162,72 -34,37 -77,116 -87,164 -6,28 -2,34 39,68 46,38 61,66 26,46 -11,-5 -36,-10 -55,-10 -47,0 -48,25 -5,75 l 31,35 -47,-7 -48,-6 5,31 c 4,25 1,32 -13,32 -9,0 -21,6 -27,13 -17,20 -52,223 -52,305 0,55 -6,89 -20,121 l -20,43 32,54 c 30,49 36,54 69,54 20,0 50,-5 67,-11 z"
       id="path10326" />
    <path
       d="m 924,1982 c -23,-19 -40,-56 -23,-50 9,3 55,68 47,68 -1,0 -12,-8 -24,-18 z"
       id="path10328" />
    <path
       d="m 1177,1611 c -40,-19 -92,-64 -109,-94 -8,-17 -7,-17 12,-7 18,10 27,7 56,-15 27,-20 34,-23 34,-10 0,9 7,18 15,21 13,5 12,10 -5,31 -11,14 -20,32 -20,39 0,15 32,34 75,45 27,6 27,7 5,7 -14,0 -42,-8 -63,-17 z"
       id="path10330" />
    <path
       d="m 2175,1981 c -3,-6 -14,-11 -25,-11 -20,0 -35,-29 -22,-42 5,-5 17,1 27,12 10,11 27,20 37,20 11,0 18,5 16,12 -6,16 -25,21 -33,9 z"
       id="path10332" />
    <path
       d="m 2188,1713 c 7,-3 16,-2 19,1 4,3 -2,6 -13,5 -11,0 -14,-3 -6,-6 z"
       id="path10334" />
    <path
       d="m 1560,1896 c 0,-2 11,-6 25,-8 13,-3 22,-1 19,3 -5,9 -44,13 -44,5 z"
       id="path10336" />
    <path
       d="m 1503,1816 c -35,-16 -61,-59 -55,-93 2,-12 19,-33 38,-48 29,-22 34,-32 34,-66 0,-35 2,-40 19,-34 11,3 22,1 26,-5 5,-8 10,-8 20,0 7,6 19,9 26,8 10,-2 14,9 14,38 0,31 6,46 22,60 36,30 32,113 -5,133 -34,18 -106,21 -139,7 z m 31,-72 c 17,-16 21,-50 9,-57 -13,-8 -53,11 -59,28 -15,38 20,59 50,29 z m 116,-8 c 0,-15 -27,-40 -53,-49 -15,-6 -18,-2 -15,20 5,41 68,68 68,29 z m -59,-87 c 8,-15 8,-24 0,-32 -8,-8 -11,-7 -11,2 0,11 -3,11 -15,1 -22,-18 -30,-5 -17,25 14,31 28,32 43,4 z"
       id="path10338" />
  </g>
</svg>
