<svg xmlns="http://www.w3.org/2000/svg" width="440.902" height="430.43" version="1.0" viewBox="0 0 330.676 322.823"><path d="M165.951 129.042c-1.36.003-2.723.098-4.063.333a16.116 16.116 0 0 0-3.194.899 15.393 15.393 0 0 0-1.997.97 14.961 14.961 0 0 0-1.632 1.094 15.26 15.26 0 0 0-1.809 1.642 15.092 15.092 0 0 0-2.605 3.827 15.254 15.254 0 0 0-.93 2.519 15.14 15.14 0 0 0-.514 3.553 15.234 15.234 0 0 0 .429 3.942 15.143 15.143 0 0 0 1.43 3.662 15.2 15.2 0 0 0 1.425 2.133c.235.295.482.58.738.856a15.352 15.352 0 0 0 1.863 1.69 15.231 15.231 0 0 0 1.786 1.175 15.408 15.408 0 0 0 2.015.94 15.335 15.335 0 0 0 1.906.584c.502.118 1.01.211 1.522.278.678.089 1.362.13 2.046.13.684 0 1.368-.03 2.047-.101a33.62 33.62 0 0 0 2.576-.367 14.778 14.778 0 0 0 2.532-.693 15.239 15.239 0 0 0 2.485-1.191 14.828 14.828 0 0 0 2.115-1.53c.326-.281.638-.577.94-.885a15.249 15.249 0 0 0 1.731-2.145 14.827 14.827 0 0 0 1.252-2.29 15.239 15.239 0 0 0 1.11-3.884 14.83 14.83 0 0 0 .145-2.605c-.013-.43-.046-.86-.095-1.288a15.228 15.228 0 0 0-.573-2.696 14.823 14.823 0 0 0-.988-2.415 15.222 15.222 0 0 0-.64-1.122 15.243 15.243 0 0 0-1.676-2.188 14.836 14.836 0 0 0-1.93-1.756 15.223 15.223 0 0 0-1.06-.738 15.247 15.247 0 0 0-2.454-1.255 14.82 14.82 0 0 0-2.497-.756 15.215 15.215 0 0 0-2.632-.313c-.268-.008-.536-.008-.804-.009zm-20.994-38.12c-7.019.525-12.563 6.033-15.616 12.012-3.32 7.1-.236 16.343 6.78 19.901 7.558 4.265 18.194 1.24 22.107-6.59 2.939-5.515 4.237-12.669.565-18.171-2.785-4.775-8.361-7.503-13.836-7.152zm29.778-2.65c-6.767 1.349-12.055 7.7-11.99 14.625-.112 5.294-.075 11.244 3.89 15.287 2.968 3.026 6.522 5.703 10.53 7.194 6.933 2.24 15.132-1.29 18.073-7.996 1.867-3.312 1.505-7.193 1.429-10.809.75-6.574-3.6-12.713-9.316-15.602-3.806-2.208-8.206-3.563-12.616-2.698zm22.274 68.906c-7.388 1.013-13.17 7.88-13.205 15.29.043 10.004 1.502 19.99 3.709 29.732 2.147 7.444 10.412 12.334 17.956 10.537 8.008-1.722 14.444-9.162 14.511-17.446.372-4.797-.799-9.518-1.567-14.187-.127-8.42-3.633-17.634-11.27-21.958-3.05-1.78-6.646-2.398-10.134-1.968zm34.52-78.15c-8.262.872-15.076 6.583-20.109 12.805-1.823 2.604-2.367 5.81-2.824 8.846-.996 1.251-2.909-.052-4.254.243-6.406-.726-13 1.743-17.193 6.674-4.273 4.546-8.476 9.71-9.233 16.133-1.16 6.206-1.444 13.324 2.89 18.448 2.846 2.811 5.108 6.395 8.887 8.084 3.08 1.712 6.663 1.64 10.052 1.712 6.332 1.808 10.153 8.628 17.047 9.021 7.883 1.12 15.826-5.168 16.53-13.108.433-2.902-.173-6.232 2.14-8.514 3.259-3.594 6.611-7.351 7.89-12.166 1.784-5.293 2.28-10.936 4.376-16.147 1.655-5.899.974-12.132.98-18.172-.27-7.612-7.21-14.09-14.801-14.001-.791-.075-1.586.114-2.378.141zm-15.583 44.215c-.815-2.53-.686-2.776 0 0zm.671 1.542c-.105-.144-.294-.651 0 0zm-35.502 5.27c-6.137 1.135-12.936 1.816-17.372 6.846-3.027 2.604-4.287 6.716-6.187 9.847-6.545 3.91-7.575 12.272-6.56 19.19-1.03 9.337-2.892 19.43.816 28.41 4.02 8.342 15.842 11.167 23.015 5.178 7.771-6.184 7.074-17.094 8.395-25.978 4.934-4.385 10.324-8.7 12.445-15.256 3.392-7.978 4.815-18.862-2.838-24.916-3.325-2.537-7.533-3.789-11.714-3.322zm-14.767 13.984c-3.117.55-2.61-.04 0 0zm-36.514 9.916c-8.206 1.754-15.381 7.542-18.21 15.517-4.056 6.096-9.303 13.001-6.693 20.76 1.489 5.478 6.718 8.415 9.34 13.23 6.03 7.759 19.29 7.2 24.326-1.338 3.069-4.257 2.35-9.658 2.29-14.532 7.016-7.428 10.264-21.113 2.513-29.17-3.355-3.816-8.659-5.176-13.566-4.467zm-38.785-68c-10.144.487-16.934 11.423-14.409 20.925 1.475 8.957 3.872 18.946 12.256 23.97 2.433 1.92 6.56 4.022 5.166 7.73-2.29 9.87.138 22.054 9.542 27.388 3.667 2.2 8.208 1.913 11.664 4.498 11.696 5.238 26.348-5.705 25.517-18.328 4.062-4.103 5.634-9.77 6.189-15.338 4.047-9.912-2.505-22.876-13.564-23.834-4.535-.981-8.975 1.74-12.806 3.051-.228-4.483.64-9.459-2.14-13.484-5.722-8.001-14.234-15.092-24.247-16.526-1.055-.12-2.11-.106-3.168-.052zm67.937-84.889c-8.757 3.837-9.822 14.173-12.955 22.05-1.63 2.501-.83 7.799-4.382 8.077-4.076.494-8.26 2.19-12.203 2.322-10.81-5.643-25.277-.978-31.031 9.699-6.568-7.135-18.24-6.91-25.731-1.37-6.19-3.259-14.133-6.106-20.467-1.605-7.532 4.254-8.909 14.708-4.57 21.777 3.228 7.141 7.108 13.992 9.926 21.314-1.652 3.006-2.281 7.794-6.43 8.045-13.513 4.57-20.057 22.353-12.314 34.445-1.241 3.603-1.081 8.313-2.913 11.246-9.98 3.726-20.608 5.922-30.098 10.802-7.552 5.586-7.911 18.15-.143 23.678 6.638 4.446 15.011 5.516 22.426 8.392 2.659 1.47 7.313 1.19 8.81 3.677.459 4.681 3.443 9.405.672 13.829-3.952 11.51 3.002 24.76 14.406 28.637 2.775 1.152 3.727 4.62 5.645 6.802-4.399 9.528-10.05 18.595-13.385 28.552-2.403 9.794 6.828 19.84 16.791 18.365 8.024-1.46 14.925-6.264 22.28-9.541-.49 9.292 8.804 16.367 17.683 15.173 4.05.027 8.083-1.625 11.827.59 5.65 1.603 11.877.919 17.064-1.83 3.862.988 7.754 1.86 11.67 2.61 3.778 9.888 5.984 20.533 11.294 29.747 5.825 8.7 20.214 8.277 25.465-.805 4.326-9.385 6.87-19.52 10.51-29.195 5.01-.558 10.058-3.704 14.924-1.24 8.608 2.239 18.18-1.07 23.755-7.956 6.183-.011 12.6-3.5 14.68-9.535 9.042 4.108 17.599 9.726 27.246 12.245 9.13 1.752 18.312-6.642 17.23-15.922-1.055-7.732-6.053-14.318-9.029-21.437-1.504-3.83-4.675-7.767-5.08-11.522 1.657-3.214 4.122-5.396 7.465-6.658 9.633-5.501 15.038-17.657 11.154-28.335-2.321-3.998.387-8.352.94-12.537 10.805-4.288 22.384-6.674 32.765-11.916 7.54-5.6 7.874-18.168.094-23.679-6.755-4.508-15.275-5.595-22.78-8.61-2.992-1.73-8.444-1.297-9.901-4.378-.307-4.459-3.496-9.038-.915-13.2 4.612-12.45-2.713-28.393-16.114-31.246-1.915-2.628-4.541-5.269-1.782-8.265 3.514-7.946 8.371-15.437 10.821-23.782 2.445-9.728-7.05-19.705-16.877-17.817-3.005-.137-5.967 3.511-8.088.23-8.466-6.808-22.477-4.583-27.997 4.947-3.296-9.375-12.88-15.924-22.869-14.871-3.927-.239-7.598 2.151-11.243 2.269-3.306-1.093-7.67-.998-10.29-2.833-3.342-8.551-5.344-17.97-10.8-25.474-4.256-4.843-11.207-6.239-17.156-3.96Zm75.103 92.611c-1.449 4.73 1.38 9.622-1.033 14.114-2.223 5.792-2.267 12.267-5.044 17.84-6.01 5.23-10.718 13.252-8.925 21.371-6.825-6.182-16.68-13.074-26.152-8.694-7.338 3.136-10.823 12.47-7.584 19.71-9.37-1.684-17.595 7.33-17.027 16.44-.216 5.283-1.21 10.503-2.696 15.57-2.406-7.393-1.41-15.335.32-22.734.448-3.407-1.536-6.52-.554-9.84.032-5.233-3.1-10.039-2.32-15.342 2.831-2.998 4.953 1.238 7.612 2.388 8.468 4.066 19.743-1.496 20.995-10.946.94-4.16-.233-8.946 3.238-12.277 2.325-2.63 4.655-6.88 8.733-5.624 9.688 2.89 20.552-5.325 19.901-15.551 3.082-2.593 5.626-6.242 9.97-6.319l.574-.16.004-.002zm-141.236 6.95c2.858.897 5.697 1.32 7.551 3.966 1.894 1.838 4.366 3.424 6.093 5.193-3.812 9.357 3.362 21.23 13.708 21.17 4.382.651 8.084-2.411 11.796-3.847 3.031 2.003.877 4.71.341 7.427-.832 2.804.264 6.196-2.722 7.756-6.527 6.909-3.903 19.551 4.811 23.24-1.43 3.243-1.124 7.263-2.484 10.297-6.063 4.338-7.937 13.262-4.338 19.752-2.128.378-3.708-5.163-5.87-6.998-2.72-1.289-3.405-3.411-1.52-5.742 3.95-4.92 8.369-10.707 6.49-17.434-1.446-7.267-8.766-12.137-15.996-11.746-3.609-3.686-3.217-8.985-1.803-13.516 2.041-7.27-2.1-15.262-8.656-18.426-1.746-3.382-6.78-3.681-6.902-7.87a113.385 113.385 0 0 1-2.865-13.197c.773.139 1.64-.286 2.366-.026zm82.314 1.658c4.888.63 9.291 4.016 11.11 8.595-3.332 2.522-7.88-1.544-10.083-4.257-.382-.819-4-5.37-1.027-4.338zm-30.07 7.37c-6.488 2.092 3.23-7.357.759-2.37l-.759 2.37zm53.506 62.258c3.638-.057 3.97 4.961 5.14 7.626-1.284 5.253 2.492 9.933 1.318 15.109.83 2.026-3.75 5.503-3.598 2.232-1.622-8.2-2.844-16.687-2.86-24.967zm-44.196 7.397c.257.34-.313-.38 0 0z" style="fill:#fff;stroke-width:.00509552"/><path d="m159.57 28.698-5 15.2-7.5 1.2c-4.1.6-10.2 1.9-13.6 2.9-6.1 1.7-6.2 1.7-8.9-.4-3.1-2.5-6.4-2.7-10.3-.6-2.9 1.5-5.4 6.5-4.5 8.9.3.8-1.3 2.4-4.3 4.1-2.6 1.6-6.4 4.1-8.4 5.7-2 1.5-3.9 2.8-4.2 2.8-1.7 0-4.7-7.3-4.7-11.4 0-4.6 0-4.6-3.4-4.6-3.3 0-6.6 2.7-7.9 6.3-.3.8-3.3-.2-9.1-3-4.7-2.4-8.6-4.1-8.6-3.8 0 .3 2.8 6 6.1 12.8 3.4 6.7 6.5 13.7 7 15.5 1 4.5-.5 9.5-5.5 17.4-3.8 6.3-4.3 6.8-7.7 6.8-7.9 0-12 10-6.5 15.5 2.4 2.4 2.4 2.6 1 7.2-.8 2.6-2 8.4-2.7 12.7l-1.3 8-17.9 6-18 6 18.3 5.8 18.2 5.9.1 3.2c0 1.8 1.1 7.2 2.3 12.2 2.3 8.8 2.4 9 .5 11.1-2.1 2.2-2.5 7.4-.9 10.5 1.2 2.1 6 4.9 8.7 4.9 1.1.1 3.9 3.4 7.7 9.2l5.9 9.1-8.6 17.4c-4.8 9.5-8.5 17.3-8.2 17.3.3 0 8.2-3.8 17.6-8.6l17.1-8.5 4.9 3.3c2.7 1.8 4.9 3.7 4.9 4.3 0 .5-.9 2.1-2 3.5s-2 4.1-2 6.2v3.8h4.8c2.6 0 5.3-.4 6.1-.9.9-.6 2.5-.2 4.5 1 4 2.5 7.7 2.4 11-.2l2.7-2.1 7.7 2.1c4.2 1.1 10 2.3 12.8 2.7l5 .6 5.9 17.9c3.3 9.8 6.2 17.9 6.5 17.9.3 0 3.2-8.1 6.5-17.9l5.9-17.9 4-.6c2.3-.4 7.8-1.6 12.3-2.7 7.6-1.9 8.5-1.9 10.5-.5 4.7 3.3 11.6 1.1 13.6-4.4.8-2.2 1.5-2.5 5.8-2.5h4.9l.3-4c.2-3.2 1.1-4.6 4-7.1l3.7-3.2 17.7 8.9c9.8 4.9 18 8.9 18.3 8.9.3 0-3.5-8.1-8.5-17.9l-8.9-17.9 5.5-8.4c4.6-6.8 6.2-8.5 9-9.1 5-1.3 8.7-6.2 8-10.5-.3-1.9-1.2-4.2-2.1-5.1-1.3-1.6-1.3-2.5.4-9.7 1.1-4.3 2.3-9.7 2.8-11.8l.8-3.9 18.5-6.2 18.5-6.2-18.6-6.2-18.7-6.2-.6-4.9c-.4-2.7-1.5-8.3-2.6-12.6-2-7.6-2-7.6 0-10.1 4.7-6 .9-15.3-6.2-15.3-3.1 0-3.8-.7-8.8-8.3-3-4.5-5.6-8.7-5.8-9.3-.2-.7 3.4-8.2 7.8-16.8 4.5-8.6 7.9-15.6 7.6-15.6-.4 0-4.2 1.8-8.6 4-4.4 2.2-8.1 4-8.3 4-.3 0-.7-1.9-1.1-4.2-.9-5.3-2.1-6.8-5.6-6.8-2.5 0-3.2.7-5.3 5.2-2.4 5.1-6 9.8-7.5 9.8-.4 0-3.8-2.1-7.6-4.5-3.8-2.5-7.4-4.5-7.9-4.5s-.6-.7-.3-1.6c.8-2.1-1.8-8-4.2-9.3-3.4-1.8-9-1.3-11.3 1-1.7 1.7-2.4 1.9-5.4.9-1.8-.6-7.5-1.9-12.6-2.9l-9.3-1.7-5-15.2c-2.8-8.4-5.3-15.2-5.6-15.2-.3 0-2.8 6.8-5.6 15.2zm-72.6 39.7c.9 1.4 3.8 5 6.5 7.9 5.1 5.5 5.3 7.2.9 7.2-1.5 0-3.8.9-5.2 2l-2.5 2 4.5-1.5c4.1-1.5 4.6-1.4 5.7.1.9 1.2 2.1 1.5 4.2 1.1 2.5-.5 3.2-.1 5.2 2.7 1.2 1.8 5.3 5.4 9.1 8 3.7 2.6 7.5 6 8.3 7.7 1.5 2.8 1.5 3-1 5.3-1.4 1.3-2.5 3.4-2.5 4.7 0 2.3.1 2.2 1.9-.7 2.5-4.2 3.8-4.8 5-2.7.9 1.7 1.1 1.6 3.3-.5 1.4-1.2 3.1-2.2 4-2.2 2.2 0 12.1 10.9 14.2 15.8 1.9 4.3 1.9 4.3-.3 8.2-1.8 3.2-2.2 5.3-2 10.8l.3 6.7-5.5.6-5.4.6 5 .2c4.5.1 5.3.5 8.3 4.1 1.7 2.1 3.2 4.2 3.2 4.6 0 .4-1.2 3.2-2.7 6.3-2.1 4.3-2.7 7.2-2.8 12.6-.1 8.8-.8 10.2-4.1 8-1.9-1.2-2.4-1.3-2.4-.2 0 .8.9 2.2 2 3.2 2.5 2.2 2.6 5.9.3 7.7-1 .7-1.8 2.7-1.9 4.4 0 1.6-2 8.2-4.4 14.5-6.6 17.6-6.7 17.9-10.3 17.9-3.1 0-3.1 0-.9 1.6 1.2.8 2.2 2.1 2.2 2.9 0 3.1-9.4 16.7-14.8 21.5-5.2 4.6-9.6 7-10.8 5.8-.2-.3 1.1-3.1 3.1-6.3 4.4-7.3 6.5-14.6 6.5-22.5 0-5.9.1-6.1 3.2-7.4l3.1-1.4-2.4-1.2c-3.4-1.8-4-3.2-4.4-10.7-.4-6.4-.3-6.7 3.1-10.1 2.9-2.9 3.1-3.4 1.3-2.9-1.2.3-3.1.2-4.1-.4-1.7-.9-1.7-1.2-.2-4.1l1.7-3.2-2.8 1.8c-3.1 2.1-3.3 1.9-4.8-3.1-2.4-8.7-.4-18 5.3-24.1 2.5-2.6 2.5-3.4.3-3.1-4.7.7-11.1-3.8-14.3-10.1-3.8-7.5-4.1-11.6-1.5-21.3.7-2.8.7-2.8-1.4-1.5-1.8 1.1-2.3 1.1-3.1-.2-.5-.8-1-2.5-1-3.8 0-1.9-.4-2.1-2.5-1.6-2.3.6-2.8.1-5-4.8-3-6.5-6.6-23-6.8-30.8-.1-4.1.4-6.5 2-9.2 1.7-3 1.9-3.7.7-4.2-3.4-1.3-.9-14.3 4.4-22.1l2.7-4 .3 5.4c.2 2.9 1.1 6.5 2 8zm163-6.3c1.8 7.6.9 31-1.3 33.4-.9 1-1.1 2-.5 3 1.5 2.4 1.1 8.8-.7 12.3-.9 1.8-1.8 4.8-1.9 6.7-.1 1.9-1.3 6.7-2.6 10.5-1.8 5.4-3.1 7.4-5.6 9-1.7 1.1-3.1 2.8-3.2 3.7 0 1-.6 1.8-1.2 1.8-.7 0-.5.5.5 1.1 2.3 1.4 2.2 2.6-1.4 10.5-3.5 7.7-9.6 16.4-11.6 16.4-.7 0-2.8-2.4-4.6-5.3-5.7-8.9-14.5-14.6-25.3-16.4-4.6-.8-4.6-.8-4.9-5.2-.5-6.2-2.3-10-5.8-11.7-2.8-1.5-2.9-1.8-2.4-6.6 1.1-8.8 8.5-18.7 18.1-24.1 3.8-2.1 4.8-2.3 5.3-1.2.3 1 1.3 1.3 2.9.9 1.4-.4 3.1-.1 3.9.6 1.2 1 1.5.9 1.5-.4 0-1-.5-2.7-1.1-3.8-.9-1.7-.7-2.4 1.7-4.4 1.5-1.4 5.4-4.9 8.7-8 5.1-4.8 6.3-5.5 8.8-5 2.5.5 2.9.2 2.9-1.7 0-1.6 1.6-3.5 5.1-6.2 5.3-4 9.3-9.4 10.5-14 1-4 2.6-2.5 4.2 4.1zm-104.1 34.9c1.4 1 2.4 1.2 2.8.5 1.5-2.5 2.3-.5 1.8 4.6-.6 5.4-.5 5.6 1.5 5 1.9-.6 2-.5.9 2.3-.9 2.5-.8 3.3.7 5 1 1.1 1.5 2.5 1.1 3.1-.5.8-2.2-.3-5.1-3.4-4.6-4.8-5.4-6.2-2.9-5.2 2.6 1 1.6-1.6-2-5-4.1-3.8-4.4-4.8-1.3-3.8 2 .6 2.1.5.9-1-.7-.9-2-1.6-2.7-1.6-.8 0-1.4-.5-1.4-1 0-1.5 3.3-1.2 5.7.5zm42.3 1c0 .2-1.4 1.2-3.2 2.1-2.7 1.4-2.9 1.8-1.5 2.6 2.3 1.2 2.1 2.8-.3 2.8-2.3 0-4.1 3.1-2.2 3.8 1.7.5 1.5 2.2-.4 2.2-.8 0-2.8 1.4-4.3 3.1-2 2.1-3.1 2.7-3.6 1.9-.4-.6-.2-1.7.4-2.3.6-.6 1.1-2.1 1.1-3.3 0-2.6 1.6-4.1 2.3-2.2.2.7.8.1 1.2-1.4.4-1.5.2-3.5-.5-4.8-1.3-2.5-.4-4.2 1.1-2 .6 1 1.1 1.2 1.7.4 1.5-2.3 8.2-4.6 8.2-2.9zm-16 19.8c2 1.1 2.4 1.9 2.2 4.7-.1 1.9-.7 3.9-1.2 4.4-.6.6.9 2.2 4 4.3 3.1 2.1 5.2 4.3 5.5 5.8.3 1.4.7 3.6 1 4.9.8 3.9-1.3 12.8-3.7 15.3l-2.1 2.2 2.7 5.9c1.4 3.3 2.6 7.7 2.6 9.8-.1 7.9-3.1 20.7-7.4 31.1-5.5 13.5-8.3 21.6-9.1 27-.4 2.4-1 4.3-1.5 4.3-1 0-2-2.6-2-5.5 0-1.3-2.3-9-5.1-17.2-7.4-21.3-8.8-26.9-8.8-35.3 0-5.7.5-8.9 2.3-13.3 1.5-3.5 2-6 1.4-6.3-2.6-1.6-4.8-9.1-4.8-16.7 0-7.5.1-8 3.1-10.7 1.6-1.6 5.3-3.8 8.2-4.9 3.4-1.3 4.4-2 2.9-2-1.3-.1-3.3.4-4.4 1-1.6.9-2.3.8-2.9-.2-1.3-2.1-1.1-6.5.4-7.7 2.8-2.3 12.9-2.9 16.7-.9zm24.8 33.8c3.1 1.1 4.9 4 3.7 5.9-.4.6.3.6 1.8-.1 2-.9 3-.8 5 .6 5.9 3.8 12.9 19.3 10.7 23.5-.7 1.3-.5 2.2.7 3.1 1.3 1.2 1.5 2.8.9 10.4-.3 4.9-1 10.3-1.5 12-.7 2.7-1.2 3-4.5 2.8-4.2-.3-4.1.9.4 2.7l3 1.2v12.2c0 6.6.1 13.2.2 14.5.2 1.9-.3 2.6-2.2 3.1-2.4.6-2.4.6.6 1.3 2.4.4 3.4 1.4 4.3 3.8.6 1.8 2.2 4.7 3.6 6.5 3.1 4.1 3.1 4.4 0 4.4-4.3 0-13-3.9-16.2-7.2-3.4-3.7-7.7-11.6-8.7-16.4-.6-2.8-.2-3.4 3.9-6.8 4.6-3.8 6.1-6.6 2.6-4.6-1.1.5-3.6 1-5.5 1-4.7 0-4.8-2.5-.5-7.5l3.1-3.5-4.7.7-4.8.6.5-3.1c.4-2.5.1-3.2-1.3-3.2-.9 0-2.1-.6-2.7-1.3-1.7-2-5.2-22.3-5.2-30.5 0-5.5-.6-8.9-2-12.1l-2-4.3 3.2-5.4c3-4.9 3.6-5.4 6.9-5.4 2 0 5 .5 6.7 1.1z"/><path d="M101.57 117.298c-2.3 1.9-4 5.6-2.3 5 .9-.3 5.5-6.8 4.7-6.8-.1 0-1.2.8-2.4 1.8zM126.87 154.398c-4 1.9-9.2 6.4-10.9 9.4-.8 1.7-.7 1.7 1.2.7 1.8-1 2.7-.7 5.6 1.5 2.7 2 3.4 2.3 3.4 1 0-.9.7-1.8 1.5-2.1 1.3-.5 1.2-1-.5-3.1-1.1-1.4-2-3.2-2-3.9 0-1.5 3.2-3.4 7.5-4.5 2.7-.6 2.7-.7.5-.7-1.4 0-4.2.8-6.3 1.7zM226.67 117.398c-.3.6-1.4 1.1-2.5 1.1-2 0-3.5 2.9-2.2 4.2.5.5 1.7-.1 2.7-1.2 1-1.1 2.7-2 3.7-2 1.1 0 1.8-.5 1.6-1.2-.6-1.6-2.5-2.1-3.3-.9zM227.97 144.198c.7.3 1.6.2 1.9-.1.4-.3-.2-.6-1.3-.5-1.1 0-1.4.3-.6.6zM165.17 125.898c0 .2 1.1.6 2.5.8 1.3.3 2.2.1 1.9-.3-.5-.9-4.4-1.3-4.4-.5zM159.47 133.898c-3.5 1.6-6.1 5.9-5.5 9.3.2 1.2 1.9 3.3 3.8 4.8 2.9 2.2 3.4 3.2 3.4 6.6 0 3.5.2 4 1.9 3.4 1.1-.3 2.2-.1 2.6.5.5.8 1 .8 2 0 .7-.6 1.9-.9 2.6-.8 1 .2 1.4-.9 1.4-3.8 0-3.1.6-4.6 2.2-6 3.6-3 3.2-11.3-.5-13.3-3.4-1.8-10.6-2.1-13.9-.7zm3.1 7.2c1.7 1.6 2.1 5 .9 5.7-1.3.8-5.3-1.1-5.9-2.8-1.5-3.8 2-5.9 5-2.9zm11.6.8c0 1.5-2.7 4-5.3 4.9-1.5.6-1.8.2-1.5-2 .5-4.1 6.8-6.8 6.8-2.9zm-5.9 8.7c.8 1.5.8 2.4 0 3.2-.8.8-1.1.7-1.1-.2 0-1.1-.3-1.1-1.5-.1-2.2 1.8-3 .5-1.7-2.5 1.4-3.1 2.8-3.2 4.3-.4z"/></svg>