<svg xmlns="http://www.w3.org/2000/svg" width="441" height="430" version="1.0" viewBox="0 0 331 323"><path d="M166 129h-4a16 16 0 0 0-3 1 15 15 0 0 0-2 1 15 15 0 0 0-2 1 15 15 0 0 0-2 2 15 15 0 0 0-2 4 15 15 0 0 0-1 2 15 15 0 0 0-1 4 15 15 0 0 0 1 4 15 15 0 0 0 1 4 15 15 0 0 0 2 2 15 15 0 0 0 2 2 15 15 0 0 0 2 1 15 15 0 0 0 2 1 15 15 0 0 0 2 1 15 15 0 0 0 3 0h2a34 34 0 0 0 3 0 15 15 0 0 0 3-1 15 15 0 0 0 2-1 15 15 0 0 0 2-2h1a15 15 0 0 0 2-3 15 15 0 0 0 1-2 15 15 0 0 0 1-4 15 15 0 0 0 0-2 15 15 0 0 0 0-2 15 15 0 0 0 0-2 15 15 0 0 0-1-3 15 15 0 0 0-1-1 15 15 0 0 0-2-2 15 15 0 0 0-2-2 15 15 0 0 0-1-1 15 15 0 0 0-2-1 15 15 0 0 0-3-1 15 15 0 0 0-2 0h-1zm-21-38c-7 0-13 6-16 12a16 16 0 0 0 7 20 16 16 0 0 0 22-7c3-5 5-12 1-18a15 15 0 0 0-14-7zm30-3c-7 2-12 8-12 15 0 5 0 11 4 15 3 3 6 6 10 7a15 15 0 0 0 18-8c2-3 2-7 2-10 0-7-4-13-10-16a18 18 0 0 0-12-3zm22 69c-7 1-13 8-13 15 0 11 1 21 4 30a16 16 0 0 0 18 11c8-2 14-9 14-18l-2-14c0-8-3-18-11-22-3-2-7-2-10-2zm35-78c-9 1-15 7-20 13a20 20 0 0 0-3 9h-5a20 20 0 0 0-17 7c-4 4-8 9-9 16-1 6-1 13 3 18 3 3 5 7 9 8 3 2 6 2 10 2 6 2 10 9 17 9a15 15 0 0 0 16-13c1-3 0-6 3-9s6-7 7-12l5-16 1-18a15 15 0 0 0-15-14h-2zm-16 44c-1-2-1-2 0 0zm1 2s-1-1 0 0zm-36 5c-6 1-13 2-17 7-3 3-4 7-6 10-7 4-8 12-7 19-1 9-3 19 1 28s16 12 23 6c8-7 7-17 8-26 5-5 11-9 13-16 3-8 5-19-3-25a16 16 0 0 0-12-3zm-15 14c-3 1-2 0 0 0zm-36 10a25 25 0 0 0-18 16c-4 6-10 13-7 20 1 6 7 9 9 13 6 8 20 8 25-1 3-4 2-10 2-14 7-8 10-22 3-30a15 15 0 0 0-14-4zM91 86c-10 0-17 11-14 21 1 9 4 19 12 24 2 2 6 4 5 8-2 9 0 22 10 27 3 2 8 2 11 5 12 5 27-6 26-19 4-4 5-10 6-15 4-10-2-23-14-24-4-1-9 2-12 3-1-5 0-9-2-14a38 38 0 0 0-25-16h-3zm68-85c-9 4-10 14-13 22-2 3-1 8-4 8l-13 3a24 24 0 0 0-31 9c-6-7-18-7-25-1-6-3-14-6-21-2-7 5-9 15-4 22l10 21c-2 3-3 8-7 8-13 5-20 23-12 35-1 3-1 8-3 11-10 4-21 6-30 11-8 6-8 18 0 24 6 4 15 5 22 8 3 1 7 1 9 4 0 4 3 9 1 13-4 12 3 25 14 29 3 1 4 5 6 7l-14 28c-2 10 7 20 17 19 8-2 15-7 22-10 0 10 9 17 18 15 4 0 8-1 12 1 5 2 12 1 17-2l12 3c3 10 6 20 11 30 6 8 20 8 25-1 5-10 7-20 11-30 5 0 10-3 15-1 8 3 18-1 24-8 6 0 12-3 14-9 9 4 18 10 27 12 10 2 19-7 18-16-1-8-6-14-9-21-2-4-5-8-5-12 1-3 4-5 7-6a24 24 0 0 0 11-29c-2-4 1-8 1-12l33-12c7-6 8-18 0-24-7-4-15-5-23-9-3-1-8-1-10-4 0-4-3-9-1-13 5-13-2-28-16-31-2-3-4-6-1-9 3-8 8-15 10-23 3-10-7-20-17-18-3 0-6 3-8 0-8-7-22-5-28 5a22 22 0 0 0-23-15l-11 2-10-2c-3-9-5-18-11-26a16 16 0 0 0-17-4Zm75 93c-1 4 2 9-1 14-2 6-2 12-5 18-6 5-11 13-9 21-7-6-17-13-26-9a15 15 0 0 0-8 20c-9-2-17 7-17 17a65 65 0 0 1-2 15 42 42 0 0 1 0-23c0-3-2-6-1-9 0-6-3-10-2-16 3-3 5 1 8 2 8 5 19-1 21-10 1-5-1-9 3-13 2-2 5-7 9-5 9 3 20-6 20-16 3-2 5-6 10-6zm-141 7c3 1 6 1 7 4l7 5c-4 9 3 21 13 21 5 1 8-2 12-4 3 2 1 5 0 7 0 3 1 7-2 8-7 7-4 20 4 24l-2 10c-6 4-8 13-4 20-2 0-4-6-6-7-3-2-4-4-2-6 4-5 9-11 7-18s-9-12-16-11c-4-4-3-9-2-14 2-7-2-15-9-18-1-4-6-4-7-8a113 113 0 0 1-2-13h2zm82 1c5 1 9 4 11 9-3 2-8-2-10-4 0-1-4-6-1-5zm-30 8c-6 2 3-8 1-3l-1 3zm54 62c3 0 4 5 5 8-2 5 2 10 1 15 1 2-4 5-4 2l-2-25zm-45 7c1 1 0 0 0 0z" style="fill:#fff;stroke-width:.00509552"/><path d="m160 29-5 15-8 1a120 120 0 0 0-14 3c-6 2-6 2-8 0-3-3-7-3-11-1-3 2-5 7-4 9l-5 4-8 6a30 30 0 0 1-4 3c-2 0-5-8-5-12s0-4-3-4c-4 0-7 2-8 6l-9-3a42 42 0 0 0-9-4l6 13c4 6 7 13 7 15 1 5 0 10-5 18-4 6-5 6-8 6-8 0-12 10-6 16 2 2 2 3 1 7l-3 13-1 8-18 6-18 6 18 6 18 6v3l3 12c2 9 2 9 0 11s-2 7-1 11c1 2 6 4 9 4l8 10 5 9-8 17-8 17 17-8 17-9 5 4c3 1 5 3 5 4l-2 3-2 7v3h11c1-1 3-1 5 1 4 2 7 2 11-1l2-2 8 2a143 143 0 0 0 13 3l5 1 6 18a193 193 0 0 0 6 17l7-17 6-18 4-1 12-3c8-2 8-2 10 0a9 9 0 0 0 14-5c1-2 2-2 6-2h5v-4c0-3 1-5 4-7l4-3 17 9 19 9-9-18-9-18 6-9c4-7 6-8 9-9 5-1 9-6 8-10a11 11 0 0 0-2-5c-2-2-2-3 0-10l3-12 1-4 18-6 19-6-19-6-19-7v-4l-3-13c-2-8-2-8 0-10 5-6 1-15-6-15-3 0-4-1-9-9l-6-9 8-17a150 150 0 0 0 8-15l-9 4a152 152 0 0 1-8 4l-1-5c-1-5-2-6-6-6-2 0-3 0-5 5-3 5-6 10-8 10l-7-5-8-4v-2c0-2-2-8-5-9-3-2-9-2-11 1-2 1-2 2-5 1l-13-3-9-2-5-15-6-15-5 15zM87 68l7 8c5 6 5 8 0 8a10 10 0 0 0-5 2l-2 2 4-2h6c1 1 2 2 4 1 3 0 3 0 5 3a43 43 0 0 0 9 8 31 31 0 0 1 9 8c1 2 1 3-1 5-2 1-3 3-3 5s0 2 2-1c3-4 4-5 5-3s1 2 3 0l4-2c3 0 12 10 15 15 2 5 2 5-1 8l-2 11 1 7-6 1h-5 5c4 0 5 1 8 4l3 5-2 6a26 26 0 0 0-3 13c0 9-1 10-4 8h-3l2 3c3 2 3 6 1 8l-2 4-5 15c-6 17-6 17-10 17-3 0-3 0-1 2l2 3c0 3-9 17-15 21-5 5-9 8-10 6a19 19 0 0 1 3-6 42 42 0 0 0 6-22c0-6 0-7 3-8l3-1-2-2c-3-1-4-3-4-10-1-7-1-7 3-10 3-3 3-4 1-3l-4-1c-2 0-2-1 0-4l2-3-3 2c-3 2-4 2-5-3-2-9 0-18 5-24 3-3 3-4 1-3-5 0-12-4-15-10-4-8-4-12-1-22 0-3 0-3-2-1h-3l-1-4c0-2 0-2-2-2-3 1-3 0-5-5-3-6-7-23-7-30 0-5 0-7 2-10s2-3 1-4c-4-1-1-14 4-22l3-4v5l2 8zm163-6c2 8 1 31-1 34l-1 3c2 2 1 8-1 12l-1 6a54 54 0 0 1-3 11c-2 5-3 7-6 9l-3 4-1 1c-1 1 0 1 1 2 2 1 2 2-2 10-3 8-9 16-11 16-1 1-3-2-5-5a36 36 0 0 0-25-16c-5-1-5-1-5-5-1-7-3-10-6-12s-3-2-2-7c1-8 8-18 18-24 3-2 4-2 5-1l3 1 4 1c1 1 1 0 1-1l-1-4c-1-1-1-2 2-4l9-8c5-5 6-6 8-5 3 0 3 0 3-2l5-6c6-4 10-9 11-14 1-4 2-2 4 4zM146 97l3 1c1-3 2-1 2 4-1 5-1 6 1 5s2 0 1 2c-1 3-1 4 1 5l1 3c-1 1-2 0-5-3-5-5-6-6-3-5 2 1 1-2-2-5-4-4-5-5-2-4 2 1 2 1 1-1l-2-2-2-1c0-1 4-1 6 1zm42 1-3 2c-3 1-3 2-1 3s2 2-1 2-4 4-2 4c2 1 2 2 0 2l-5 4c-2 2-3 2-3 1v-2l1-3c0-3 2-4 2-2l2-2-1-5c-1-2 0-4 1-2 1 1 1 2 2 1 2-2 8-5 8-3zm-16 20c2 1 3 2 2 4l-1 5 4 4 6 6 1 5c0 4-2 13-4 15l-2 2 3 6 2 10a97 97 0 0 1-7 31 137 137 0 0 0-9 27l-2 5-2-6-5-17c-7-21-9-27-9-35 0-6 1-9 3-14l1-6c-3-2-5-9-5-17 0-7 0-8 3-10l8-5c4-2 5-2 3-2l-4 1c-2 1-2 0-3-1-1-2-1-6 1-7 2-3 12-3 16-1zm25 34c3 1 5 4 4 5h1l6 1c5 4 12 19 10 24-1 1 0 2 1 3l1 10-2 12c0 3-1 3-4 3-4 0-4 1 0 3l3 1v26c1 2 0 3-2 3-2 1-2 1 1 2 2 0 3 1 4 4l4 6c3 4 3 4 0 4-5 1-13-3-17-7a44 44 0 0 1-8-16c-1-3 0-3 4-7s6-7 2-5l-5 2c-5 0-5-3-1-8l3-3h-4l-5 1v-3c1-3 0-4-1-4a4 4 0 0 1-3-1c-1-2-5-22-5-30 0-6 0-9-2-12l-2-5 3-5c3-5 4-6 7-6l7 2z"/><path d="M102 117c-3 2-4 6-3 5l5-7-2 2zm25 37a30 30 0 0 0-11 10c-1 2-1 2 1 1s3-1 6 1c2 2 3 2 3 1l2-2c1-1 1-1-1-3a10 10 0 0 1-2-4c0-2 3-3 8-5 2 0 2 0 0 0l-6 1zm100-37-3 2c-2 0-3 2-2 4l3-1c1-2 2-2 3-2l2-2-3-1zm1 27h2-2zm-63-18 3 1 2-1h-5zm-6 8c-3 2-6 6-5 9l4 5c3 2 3 3 3 7 0 3 0 4 2 3l3 1h2l2-1c1 0 2-1 2-4s0-5 2-6c4-3 3-11-1-13a21 21 0 0 0-14-1zm4 7c1 2 2 5 1 6-2 1-6-1-6-3-2-4 2-6 5-3zm11 1-5 5c-2 0-2 0-2-2 1-4 7-7 7-3zm-6 9v3h-2c-3 1-3 0-2-3s3-3 4 0z"/></svg>