<svg viewBox="-10 0 1010 1000" xmlns="http://www.w3.org/2000/svg">
  <path d="M492 43c-21-1-46 5-56 25-5 9-7 19-7 29-23-2-46 12-51 35-3 18-2 38-1 57 1 13 8 25 19 33a119 119 0 0 0-16 29c-39-16-80-31-123-30-57-2-117 8-163 43S12 350 3 407c-5 29-3 58 1 86 11 67 49 125 78 186 3 9 12 18 5 27-3 8-4 18-4 27a82 82 0 0 0-6 65c3 6 8 12 4 20-1 18-1 37 10 52 0 26 24 48 50 46 58 0 115-7 173-9 138-6 278-5 418 3 40 2 81 8 122 8 25-1 45-22 48-46 12-18 11-40 8-60 14-20 14-47 6-69-4-6-7-13-6-20 0-9-5-17-7-24 22-54 55-102 74-157 16-45 21-95 12-143-18-83-86-153-169-171-37-9-75-7-113-5-34 4-66 16-97 29a127 127 0 0 0-18-31c18-11 22-33 21-53 0-20 2-43-14-57a50 50 0 0 0-38-14c2-24-14-47-38-51-10-3-20-3-31-3m-92 371c-1 0-1-1 0 0m-3 22c6 0 13-1 14 6 6 8 5 18 6 28-26-2-54-9-80-6-6-1-18 9-18 6 7-18 28-25 45-30 11-3 22-4 33-4m212 1c23 0 47 9 63 27 3 3 3 11-2 5-20-12-44-4-67-3l-26 4c1-11 0-24 7-33h25m164 207-13 35c3-18 11-35 19-51zm-554-8c5 12 11 24 14 37-7-12-10-26-15-39v1zm360-1 43 4c-3 11-4 22-14 29-6 6-11 14-15 21-3-13-14-24-13-38 0-5-2-12-1-16m-165 4c-2 14-2 28-10 39-3 13-6 0-12-5-6-8-17-11-18-23-3-8-3-13 7-12l34-3zm83 118c10-1 22 9 26 16 8-18 34-22 47-6 4 5 5 12 9 2 13-15 42-12 50 6 10-22 46-18 54 3 6-10 23-19 36-13 7 2 15 10 16 16 11-21 46-19 54 4 9-16 31-22 45-8 19 14 10 47-12 52-7 1-13 1-19-2 9-10 23-15 36-14-17-1-35-4-51-4l-23-2c-10 0-20-2-30-1l-21-2-33-2a1939 1939 0 0 0-51-2c-3 2-15-1-22 0h-52l-34-1h-52l-52 1h-53c-1 2-9-1-14 0-13 1-27 0-40 2-2 1-14-1-20 1-11 0-23 0-33 2-2 1-13-1-20 1l-33 2-21 1-21 1c9 1 21 6 27 15-20 11-47-8-42-31 2-23 33-33 49-18 4 2 6 12 8 3 11-18 42-18 52 1-1 1 4-9 8-11 13-12 37-7 45 9-1-5 7-14 13-16 15-6 34 1 40 13 9-20 43-21 53-2 10-21 44-19 53 0 4-11 17-17 28-16m290 52s-1-1 0 0m1 0c1-1 0 0 0 0m-319-36c1 2-1-2 0 0m-1 1s1-2 0 0m-52 0c1 0 0-1 0 0m106 0s1-1 0 0m-106 0s0-1 0 0m54 0c0 2-1-1 0 0m54 1c1 1-1-2 0 0m-56 0s0-1 0 0m-51 0c1 1 0-1 0 0m105 0s0-1 0 0m-107 1c0-1 1-2 0 0m55-1c1 2 0-1 0 0m-3 1c1 0 1-2 0 0m54 0s1-1 0 0m53 0c1 0 1-1 0 0m-156 0c0 1-1-1 0 0m212 0c0 2-1-2 0 0m-1 0s0-1 0 0m-105 0c1 2 0-1 0 0m-109 1c0-1 0-2 0 0m56 0c0 1-1-2 0 0m-4 0s1-1 0 0m-104 0c1 1 0-1 0 0m-1 1c0-1 1-3 0 0m159-1s0-1 0 0m-103 0c1 1 0-1 0 0m156 1c0-1 0-2 0 0m3-1c0 1-1-1 0 0m51 1s0-2 0 0m-157 0c1 1 0-2 0 0m-365-1s1 0 0 0m308 1s1-2 0 0m53 0s0-1 0 0m-48 0c0 1-1-1 0 0m211 0c1 2 0-2 0 0m-105 1c1 1 0-3 0 0m-216 0c0-1 0-2 0 0m374-1c0 1 0-1 0 0m-163 1c1-1 1-2 0 0m-210 0c1 2 0-2 0 0m263 0c0-1 1-2 0 0m108 0-1 2 1-2m-54 0c1 0 1-1 0 0m-213 0s0-1 0 0m58 0c0 1-1-1 0 0m-111 1c0-1 1-3 0 0m106-1s0-1 0 0m-48 0c0 1 0-1 0 0m101 1c0-1 0-2 0 0m53 0s0-1 0 0m111 0c0 1-1-2 0 0m-319 0c0 1-1-1 0 0m-54 0c1 2-1-2 0 0m215 0c0 2-1-2 0 0m-218 0s1-1 0 0m319 0s0-1 0 0m4 1c1 1 0-3 0 0m-165 0c0-1 1-2 0 0m218-1c0 1-1-1 0 0m-212 0c0 2 0-1 0 0m-58 1s0-2 0 0m5 0c1 2 0-2 0 0m159-1c0 2-1-1 0 0m-5 1s0-2 0 0m-53 0s0-1 0 0m-159 1c0-1 0-3 0 0m-104 0c1 1-1-3 0 0m54-1c1 2 0-1 0 0m155 1c0-1 0-2 0 0m161 0s0-2 0 0m109 0c1 1-1-2 0 0m-1 0s0-2 0 0m-51 0c0 1 0-2 0 0m-112 0s1-1 0 0m-52 0s0-1 0 0m-48 0c0 1 0-2 0 0m54 0c0 2 0-2 0 0m-113 0c1 0 1-1 0 0m-157 0s0-2 0 0m52 0s0-1 0 0m112 1c0 2-1-3 0 0m212 0c0 2-1-2 0 0m-60 1c0-1 1-3 0 0m112-1c1 1 0-1 0 0m-218 0s0-1 0 0m-208 0c1 2-1-2 0 0m368 0s1-1 0 0m-106 0s0-1 0 0m-154 0c0 1-1-1 0 0m212 0c1 1 0-1 0 0m156 1c0-1 1-2 0 0m-321 0c0-1 0-2 0 0m324-1c0 2-1-1 0 0m-265 0c0 1 0-1 0 0m-112 1s1-2 0 0m166 0c0 2 0-2 0 0m-214 0c1 1 0-2 0 0m-110 0c0-1-1 5 1-1zm53 0s0-2 0 0m430 0c0 1-1-1 0 0m-219 0s0-1 0 0m213 1c0-1 1-3 0 0m-259-1c1 3 0-2 0 0m0 1c0 3 1 3 0 0m-216-1c0 1-1-1 0 0m368 1v-1zm-265-1c1 0 1-1 0 0m319 1c0-1 0-2 0 0m-107 0s0-3 0 0m-47-1c0 2 0-1 0 0m160 1c0 2 0-2 0 0m-373 0c0 2-1-2 0 0m154 0s0-2 0 0m320 0c1 0 1-2 0 0m-48 0c0 1 0-1 0 0m-481 0c1 1 0-1 0 0m375 0c0 1 0-1 0 0m100 1c0-1 0-2 0 0m110-1c0 1-1-1 0 0m-263 1c0 2 0-3 0 0m-60 0c0-1 0-2 0 0m271-1c1 2 0-1 0 0m-483 1c1 0 1-2 0 0m106 0s0-2 0 0m266 0c0-1 0-2 0 0m162 0s1-2 0 0m-422 0c1 1 0-2 0 0m319 0c0 1 0-1 0 0m-372 0c0 2-1-2 0 0m-6 1c0-1 0-2 0 0m165-1c0 1 0-1 0 0m-267 0c0 1-1-1 0 0m261 1c0-1 0-2 0 0m-53 0c0-1 0-2 0 0m320 0s0-2 0 0m-207 0c0 1 0-2 0 0m-7 0s0-2 0 0m160 0s0-2 0 0m-47 0c0 2 0-2 0 0m157 0c1 1 0-2 0 0m-530 0c1 2 0-2 0 0m426 0c0 1 0-1 0 0m-106 0c0 1 0-1 0 0m-325 1c0-1 0-2 0 0m533 0c0-1 1-3 0 0m-161 0c0-1 0-2 0 0m112-1c0 2-1-1 0 0m-212 0c0 3 0-1 0 0m-321 0c0 1 0-1 0 0m-4 1s1-2 0 0m166 0c0 1-1-2 0 0m105 0c0 1 0-2 0 0m-59 0s0-2 0 0m-53 0s0-2 0 0m325 0c0 1 0-2 0 0m-219 0s0-1 0 0m-46 0c0 2 0-2 0 0m159 0c0 1 0 2 0 0 0 1 0-2 0 0m100 1c0-1 0-3 0 0m111-1c0 1 0-1 0 0m-58 1c1-1 1-2 0 0m-106 0c0-1 0-2 0 0m-313-1c0 2 0-1 0 0m-6 1s0-2 0 0m265 0s0-2 0 0m-367 0c1 1 0-2 0 0m321 0c0 1 0-2 0 0m-272 0s0-2 0 0m212 0s0-1 0 0m219 0c0 1 0-1 0 0m0 0c0 3 0 1 0 0m0 2s0 2 0 0m101-1c1-1 1-3 0 0m-267 0c0-1 0-3 0 0m113-1c0 2 0-2 0 0m-160 0c0 1 0-1 0 0m-212 0c0 1-1-1 0 0m478 0c0 2 0-2 0 0m-159 0s0 2 0 0m-212 0c0 4 0 0 0 0m0 2c0 1 0 1 0 0m53-1c0 1 0-2 0 0m-7 0c0-1 0-2 0 0m-212 0c0-1 0-2 0 0m478 0s0-2 0 0m-153 0c0 1 0-2 0 0m264 0c1 1 0-2 0 0m-164 0s0-1 0 0m-420 0c0 1 0-1 0 0m154 1c0-1 0-3 0 0m212 0c0-1 0-3 0 0m160-1s0-1 0 0m-153 0c0 2 0-1 0 0m-112 0c-1 0-1-1 0 0m319 1s1-3 0 0m-532 0s0-2 0 0m218-1c0 2 0-1 0 0m-165 1s0-2 0 0m-47 0s0-1 0 0m-59 0s0-1 0 0m325 0c0 1 0-2 0 0m-112 0s-1-2 0 0m-101 0c0 2 0-2 0 0m-107 0c0 1 0-1 0 0m314 1c0-1-1-3 0 0m-100-1c0 2 0-2 0 0m212 0c0 2 0-2 0 0m-6 0s0-1 0 0m112 0c0 2 0-2 0 0m53 0c0 1-1-1 0 0m-112 1c0-1-1-2 0 0m-107 0c0-1 0-2 0 0m-105 0c0-1-1-2 0 0m59 0c-1 1 0-2 0 0m53 0c0 1 0-2 0 0m206 1c1-1 1-3 0 0m-425 0c0-1 0-3 0 0m-100-1c0 1 0-1 0 0m212 0c0 1 0-1 0 0m-218 1c0-1 0-2 0 0m113-1c0 1 0-1 0 0m365 1c0-1 0-2 0 0m-526-1c1 1 0-1 0 0m-5 0s0-1 0 0m425 1s0-2 0 0m-159 0s0-1 0 0m-53 0s0-2 0 0m271 0c0 2 0-2 0 0m-318 0c-1 1 0-1 0 0m-60 0s0-1 0 0m484 0c0 1 0-1 0 0m-371 0c-1 2 0-2 0 0m105 0c0 1 1-1 0 0m48 1c0-1-1-3 0 0m165-1c0 2 0-2 0 0m-218 1c0-1 0-3 0 0m159 0c0-1-1-2 0 0m-47-1c-1 2 0-2 0 0m-425 0c0 1-1-1 0 0m265 0c-1 1 0-1 0 0m-159 0c0 2 0-1 0 0m472 1s1-2 0 0m-207 0c0 1 1-2 0 0m-377 0s0-1 0 0m266 0s0-1 0 0m-213 0s0-2 0 0m372 0s0-1 0 0m-366 0c0 1 0-1 0 0m106 0c0 1 1-1 0 0m366 0s0-1 0 0m-318 0s0-1 0 0m-53 1c0-1-1-3 0 0m164-1c0 1 0-1 0 0m266 0c0 2 0-1 0 0m-372 0c0 2 1-1 0 0m154 1s-1-2 0 0m-366 0c0 1 0-2 0 0m477 0c0 2 1-2 0 0m-5 0s0-2 0 0m-208 0c0 1 1-1 0 0m314 1c0-1 0-3 0 0m-477-1s-1-1 0 0m318 0s0-1 0 0m112 0c0 2 0-2 0 0m-270 0s-1-1 0 0m-102 0c0 1 0-1 0 0m-106 0c0 1 0-1 0 0m261 1c0-1-1-2 0 0m110-1c0 3 1-2 0 0m-430 1c0-1 0-2 0 0m6-1c0 2 0-1 0 0m318 0c-1 2 0-1 0 0m-271 1s0-2 0 0m324-1c0 2 0-1 0 0m-163 1s-1-2 0 0m376 0c0 1 0-1 0 0m-425 0c0 1 0-1 0 0m-53 0c0 2 0-2 0 0m155 0s0-1 0 0m-107 1c0-1-1-3 0 0m371 0c0-1 0-2 0 0m-158 0c0-1-1-2 0 0m-103-1c0 1 0-1 0 0m-52 0c-1 2 0-1 0 0m207 1c0-1 0-2 0 0m-366 0c0 1 0-2 0 0m525 1c0-1 0-3 0 0m-47-1c0 2 0-2 0 0m-214 0c-1 1 0-1 0 0m-317 0c0 1 0-1 0 0m-6 0s0-1 0 0m478 1c0-1 0-2 0 0m5-1c-1 2 0-2 0 0m-376 0s0-1 0 0m-54 1c0-1 0-2 0 0m537-1c0 1 0-1 0 0m-322 0s-1-1 0 0m-54 1c0-1 0-2 0 0m107 0c-1-1-2-2 0 0m109 0c-1 2 0-2 0 0m-265-1c-1 2 0-1 0 0m-106 0c0 2 0-1 0 0m367 1s-1-2 0 0m-157 0c0 1 1-2 0 0m107 0c0 1 1-2 0 0m-370 0c0 1 0-1 0 0m211 0c0 2 1-2 0 0m156 0s-1-1 0 0m-51 0c0 1 1-1 0 0m-211 0c0 2 1-1 0 0m50 1c0-1-1-2 0 0m370 0s0-2 0 0m53 0s0-2 0 0m-316 0c0-1 0-1 0 0m-215 0s0-2 0 0m111 0c0 1 1-2 0 0m262 0s0-1 0 0m111 0c-1 1 0-2 0 0m-268 0c-1 1 0-1 0 0m-269 0s0-1 0 0m59 0c0 1 0-1 0 0m531 0c0 1 0-2 0 0m-111 0s-1-2 0 0m-264 0s-1-1 0 0m-107 0s-1-1 0 0m-102 0c0 1 0-1 0 0m423 1c-1 2 1-2 0 0m53 0c-1 2 0-2 0 0m-476 0c0 1 0-1 0 0m420 0s0-1 0 0m-368 0c0 1 1-1 0 0m532 0c0 1 0-1 0 0m-59 1c0-1 0-2 0 0m-420 0c-1 1 0-2 0 0m-57 0c0-1-1-2 0 0m482 0c0 1 1-2 0 0m48 0s0-2 0 0m-583 0s0-1 0 0m107 0s0-1 0 0m371 0s0-1 0 0m-473 0c0 1 0-1 0 0m584 0c-1 2 0-1 0 0m-532 0c0 1 0-1 0 0m-4 1s0-2 0 0m427 0c-1 1 0-1 0 0m55 0c-1 2 0-1 0 0m-530 0c-1 1 0-1 0 0m526 1c0-1-1-2 0 0m-531 0c0-1 0-1 0 0m57 0c0 1 0-1 0 0m526 0s0-2 0 0m5 0c0 1 1-1 0 0m-534 1s-1-2 0 0m-50-1c0 2 1-1 0 0m53 1c-1 1 0-1 0 0m477 0c-1 2 1-2 0 0m54 0c0 1 0-1 0 0m-587 0s-1-1 0 0m3 1c0 1 0-2 0 0m527 0s0-2 0 0m52 0s0-1 0 0m5 0c-1 1 0-1 0 0m-584 0c0 2 0-1 0 0m580 1s-1-1 0 0m-583 0s0-1 0 0m586 0c0 2 1-1 0 0m-584 1c0 1 1-1 0 0m581 0s0-1 0 0m-582 1c0-1 0-1 0 0m585 0c-1 1 0-2 0 0" style="fill:#fff;stroke-width:1.55779"/>
  <path d="M826 872a4421 4421 0 0 0-471-13c-72 4-128 7-189 12-29 2-30 2-30-5 0-2 1-6 3-8 2-3 2-4 1-7s-2-4-6-4c-7-1-9-3-8-16 0-12 0-13 4-16 3-1 3-2 3-14 0-14 0-15-7-15l-6-3c-2-2-2-4-2-12 0-11 3-16 9-16 5 0 11-3 11-6 1-1-2-5-5-9-6-9-7-15-1-23 6-7 7-13 5-23-5-17-16-42-33-72-35-63-47-94-56-138a173 173 0 0 1 50-165c21-21 41-33 69-42 45-14 103-15 148-2a824 824 0 0 1 103 42v-5c-2-7-2-26 0-35 7-24 23-43 45-52 11-4 11-4 12-25l1-18h-7a550 550 0 0 0-47 2c-2-1-2-3 0-11v-20c-2-7-2-9 0-11h24c33 3 29 4 29-6l-1-27-1-19c2-2 42-2 42 0v27c-1 14-2 26-1 27l26-1c30-3 29-3 27 10v20c2 13 3 13-21 11l-26-2h-7l1 18 2 20 7 4c16 6 34 22 42 37 8 16 12 38 8 51v6l20-8c72-35 106-44 157-44 54 0 97 13 130 39a183 183 0 0 1 64 190c-9 38-22 69-57 131-15 27-26 53-30 69-2 10-1 16 4 23 6 7 6 13 0 24s-5 13 5 14c9 1 10 3 10 15 0 13-2 17-8 18l-6 2c-1 1-2 5-2 11-1 9-1 9 3 13s4 5 4 17 0 13-3 15h-5c-6-1-9 7-4 14 3 4 3 4 1 8-2 6-1 6-30 3zm13-19c3-6 1-7-25-9-213-15-409-16-617-2-39 3-41 3-43 6-2 4 2 9 7 8a4219 4219 0 0 1 675 1c1 0 3-2 3-4m-17-40c9-4 11-17 5-24-7-8-22-6-26 2-8 15 7 29 21 22m-634-3c5-5 6-10 4-16-3-10-12-14-21-10-16 6-11 30 6 30 5 0 7-1 11-4m53-4c3-3 4-5 5-11 0-6 0-7-3-10l-8-5c-7-2-14 0-18 7-9 15 11 32 24 19m530 2 6-8c2-7-1-14-7-18-16-9-33 12-20 25 6 6 15 6 21 1m-478-3c8-5 8-18 1-24-5-5-9-6-16-4-6 3-10 8-10 14 0 14 14 22 25 14m423 2c5-2 8-10 8-16 0-14-22-19-29-6-8 14 7 29 21 22m-54-3c5-2 9-8 9-15 0-14-18-20-28-10-7 7-4 20 5 25 6 2 8 2 14 0m-315-4c4-3 5-5 5-10 0-7-3-12-9-15s-13-2-18 3c-3 4-4 5-4 12 0 6 1 7 5 11 3 3 5 4 10 4 6 0 7-1 11-5m49 3c6-3 9-7 9-13 1-7-3-14-9-16-6-3-8-3-13 0-12 6-11 23 1 29 5 2 7 2 12 0zm212 0c7-3 10-9 10-17l-3-9c-6-7-17-6-24 1-4 3-4 5-4 10 0 7 3 12 9 15 6 2 7 2 12 0zm-158-2c6-3 8-8 8-15 0-6 0-7-4-10-4-4-7-5-14-4-5 0-8 2-11 7-4 8-2 17 6 22 5 3 9 3 15 0m110-3c4-3 6-10 5-15-2-8-12-14-20-12-9 2-15 16-10 24 4 8 18 10 25 3m-57 2c4-2 9-9 9-14 0-9-7-15-16-15-10 0-15 5-15 15 0 12 11 20 22 14m287-52c1-1 0-6-2-10-4-14-3-17 6-28 9-12 9-14 30-73a3478 3478 0 0 1 44-126c13-55 0-112-33-143-30-30-70-37-131-26l-14 4 10 5c53 20 88 59 92 101 1 10-2 36-6 51-6 21-16 43-38 86-16 30-28 57-34 82-2 11-1 17 7 31 4 9 5 11 5 17 0 7-1 9-5 15l-5 8c0 3 6 4 28 5 34 3 46 3 46 1m-543-1 27-3c3-1 2-5-3-13-6-11-6-15 1-27l8-16c2-7 2-8-2-22a335 335 0 0 0-44-101c-11-22-17-37-22-57-3-12-3-18-3-35 0-22 2-33 10-51 13-32 43-59 79-73l6-3c-2-2-36-8-51-9-66-7-112 26-126 93-2 9-2 17-2 37 0 31 2 43 12 71l26 77c29 83 27 78 37 90 5 6 10 12 10 14 1 4 0 8-4 19l-2 8c2 3 8 3 43 1m178-6c27-1 27-1 29-4s2-4-3-17c-7-15-8-21-6-25l6-9a425 425 0 0 0 13-98c-1-4-34-2-95 6-28 4-27 4-25-11 3-19 3-34 2-47-4-27-4-27-1-28 1-1 17 1 36 3l45 5c15 2 34 2 36 1s1-53-2-70c-2-15-4-20-11-30l-5-10c0-10-22-17-53-17-30 0-59 9-85 26-30 20-39 49-29 89 4 18 8 27 22 61a632 632 0 0 1 39 120l12 10c11 7 14 12 14 20 0 4-1 7-4 11-4 6-4 11 0 13 2 2 28 2 65 1zm214-3c0-2-1-5-4-9s-4-6-4-11c0-8 2-12 11-20 17-15 15-12 22-40 9-36 18-62 33-98 17-39 23-62 23-84s-4-34-20-49c-9-10-13-12-27-19-25-12-45-17-72-17-12 0-31 2-41 5-6 2-10 5-11 10l-6 12c-5 7-6 11-8 20-2 13-6 53-6 67s0 14 21 13l84-10c17-2 17-2 15 15-3 16-3 43 0 58 2 18 4 17-31 13-43-6-69-8-79-8h-9l-1 8 4 48 5 39 5 7 6 12c1 4-1 11-6 19-5 10-7 16-5 19a1841 1841 0 0 0 74 4l26-1z" style="fill:#000;stroke-width:1.31005"/>
  <path d="M390 391c-34 0-70 12-96 36-18 17-26 46-11 68 14 20 42 25 63 14 26-1 52 7 78 5 25-5 42-30 38-55-3-25-12-55-38-64-11-5-23-3-34-4" style="fill:#fff;stroke-width:1.55779"/>
  <path d="M217 593a46 46 0 0 0-40 62c4 14 9 29 17 41 8 13 23 22 39 21a46 46 0 0 0 43-60c-4-14-9-27-16-40a46 46 0 0 0-43-24m197-4-36 3c-18 0-36 10-45 26-7 12-8 28-4 42l6 18c5 10 14 18 22 25l7 8a47 47 0 0 0 77-4l7-14c7-13 9-28 11-42 1-9 2-19 0-27-4-16-16-29-31-33a48 48 0 0 0-14-2zm-85 65c0-1 0-1 0 0" style="fill:#fff;stroke-width:.27538"/>
  <path d="M578 589c-19 1-37 14-42 32-5 11-3 24-1 35 0 16 8 31 14 45a46 46 0 0 0 84 9c6-9 16-16 21-25 7-13 11-27 13-41 2-20-11-41-30-47-10-4-22-4-33-6l-26-2m25-198c-15 0-30 0-43 8-17 11-25 32-27 51-2 13-3 26 3 38 7 18 28 29 47 27l54-6c5 0 10-2 13 1 17 10 38 8 52-4 17-13 22-37 14-56-6-17-22-30-38-39-22-14-49-20-75-20" style="fill:#fff;stroke-width:.550761"/>
  <path d="M777 583a46 46 0 0 0-41 28c-8 17-16 34-20 53l-2 15a46 46 0 0 0 88 19l10-27 9-25c2-5 3-11 3-17a46 46 0 0 0-47-46" style="fill:#fff;stroke-width:.0973615"/>
  <path d="M177 781c-6 0-13 4-15 9-3 7-2 15 3 20l3 1 21-1 3-4c2-2 2-4 2-7 0-4-1-9-4-12-3-4-8-6-13-6" style="fill:#fff;stroke-width:.13769"/>
  <path d="M230 778c-6 0-11 3-14 8l-2 7a17 17 0 0 0 6 15h3l16-1 4-1 2-3c2-3 2-7 2-10l-1-6c-2-4-6-6-9-8a16 16 0 0 0-7-1" style="fill:#fff;stroke-width:.0973615"/>
  <path d="M284 775c-6 0-13 3-15 9-3 5-3 13 1 18 1 1 2 3 4 3l20-2 4-1c2-4 3-10 2-15-2-5-7-10-13-12h-3m160-5c-4 1-9 1-12 4-5 4-8 12-5 18 1 3 3 6 6 8l4 1h16l3-3c3-5 4-11 3-17-1-4-4-6-6-8l-9-3m-55 1c-3 0-7 2-10 4-4 3-6 8-6 13s2 9 6 13h22l3-3c4-7 3-16-2-22-3-3-7-4-12-5h-1" style="fill:#fff;stroke-width:.194723"/>
  <path d="M495 770c-7-1-14 5-15 12-2 6 0 13 5 17 2 3 6 1 9 2l11-1c4-3 7-8 8-13 1-9-6-17-15-17a25 25 0 0 0-3 0m53 0c-8 0-14 7-15 15-2 6 0 13 6 16l19-1c5-3 9-10 8-16-2-8-10-15-18-14m-212 2c-6 1-12 5-15 10v13c0 3 2 6 5 7h21c4-3 7-8 6-12 0-7-4-14-10-16l-7-2m267-1c-7 1-14 5-17 11-1 4 0 8 1 12 1 3 2 6 5 7h21c3-2 5-6 5-9 1-6 1-13-4-17-3-3-7-4-11-4m51 2c-7 0-15 6-16 14 0 5 2 10 5 14 4 2 8 1 12 1h12c3-3 5-8 5-14 0-8-9-16-18-15m159 10c-7 0-14 6-15 14-1 5 1 11 5 14l21 2c3-1 5-4 6-7 1-4 2-8 1-12-2-6-8-11-14-11a26 26 0 0 0-4 0m-53-4c-6 0-12 6-15 12v10c1 3 2 6 6 6l20 2c3-1 5-5 6-8 4-7 0-16-8-20-2-2-5-2-9-2m-52-3c-7 0-14 5-16 12-1 6 0 12 4 16 8 1 16 2 24 1 2-2 4-6 4-9 2-5 1-11-3-14-3-4-8-6-13-6" style="fill:#fff;stroke-width:.389446"/>
</svg>
