<svg xmlns="http://www.w3.org/2000/svg" width="384" height="347" version="1.0" viewBox="0 0 288 260"><path d="M274 120c-5 0-6 5-4 9 4 11 11 21 11 33l1 45c1 4 5 5 6 8 1 5-4 7-6 11-1 2-4 1-6 3-5 3-7 10-3 15a23 23 0 0 0 27 5c5-3 11-6 10-12-1-4-4-6-4-10 2-3-1-7-1-11l7-4 4-5c4-2 9-4 10-8a94 94 0 0 0 0-31 42 42 0 0 0-16-29 123 123 0 0 0-34-19 9 9 0 0 0-2 0zm-59-12c-3 1-9 2-9 7l1 67c0 4 1 7 4 10-1 4 2 8 5 12l-8 10c-7 1-10 8-9 14 2 5 6 8 10 11h23c6 0 14-2 15-9 1-6-2-12-7-15-3-2-4-6-6-8-2-3 2-5 4-5 4 0 6-4 7-7 3-4 8 0 11-3 2-6 1-12 2-18 0-11 2-21-1-32-4-12-11-23-22-29a71 71 0 0 0-18-6l-2 1zm-50 0c-10 3-20 6-27 14a57 57 0 0 0-11 20c-3 10-1 21-1 31 1 7 0 13 2 19 2 3 6 1 9 1 3 1 2 5 5 7 1 2 5 2 8 3 1 1 1 4-1 6s-3 6-7 8c-7 4-7 16 1 20 7 4 16 2 24 3 4 0 9-1 12-4 4-3 8-8 6-14a13 13 0 0 0-9-9c-1-1-1-4-3-5-2-2-5-3-4-5 2-4 5-7 5-11 2-4 5-7 4-11v-67c-1-5-7-5-10-7h-3zm-56 12c-6 1-11 5-17 7-13 7-26 16-32 29a108 108 0 0 0-3 33c0 6 1 14 8 17 2 0 4 1 4 3 2 4 7 5 10 7 0 4-3 7-1 11 1 3-3 6-4 9-1 6 5 10 9 12 9 6 21 3 28-4 5-5 1-14-5-16-4-1-6-5-8-8-3-2-2-7 1-8 4-4 3-10 3-15l2-43c2-10 8-19 11-28a6 6 0 0 0-6-6zM190 0a25 25 0 0 0-19 6c-3 2-6 6-7 10-9 4-16 13-15 23 0 6 0 12 2 17-4 4-6 9-9 13-29 5-59 9-84 26a110 110 0 0 0-41 48c-7 16-8 35-9 52-1 5-3 9-3 14a28 28 0 0 0 6 21c6 7 15 11 21 19l5 8c-7 12-9 27-1 38 1 3 4 5 6 7-2 9-1 20 5 28s17 11 28 13c13 0 25-4 38-7a342 342 0 0 1 81-9c30 0 59 5 89 12 14 4 30 6 44-1a28 28 0 0 0 16-27l-1-9a32 32 0 0 0 8-38l-2-7a57 57 0 0 1 18-21 31 31 0 0 0 13-28c-1-6-4-12-4-19 0-19-3-38-12-55a114 114 0 0 0-57-49c-21-9-43-12-64-16a47 47 0 0 0-9-13c3-7 2-15 2-23a25 25 0 0 0-15-17 25 25 0 0 0-23-16 110 110 0 0 0-7 0zm3 29c1 4-1 10 3 13l10 1c0 3-3 2-4 3-6 2-11 9-9 15 4 9 17 9 21 18 2 6 0 13 6 16 8 3 16 3 25 4 19 4 40 7 58 16a77 77 0 0 1 40 49c4 13 3 27 4 40 0 3 4 5 2 8a80 80 0 0 0-22 22c-5 7-10 15-12 23 0 6 5 10 7 15l2 6c-6 2-13 1-17 6-3 4-4 10-3 15 2 5 7 7 10 11 0 3-3 2-5 3-8 1-16-2-24-3a400 400 0 0 0-198 2 26 26 0 0 1-17 0c0-4 4-6 6-8 4-3 5-9 4-14-1-6-6-10-12-11l-8-1c0-5 4-9 6-13 3-4 3-9 1-13a92 92 0 0 0-29-38c-1-1-5-2-4-4 2-4 4-7 3-10 1-17 1-34 8-49 11-22 32-37 55-43 20-7 41-8 61-12 4-1 8-4 8-8 0-5 1-11 5-14 6-4 15-7 17-15 2-7-6-14-13-14 0-3 4-2 6-2 4 0 7-3 7-7v-7h2z" style="fill:#fff;stroke-width:.517413" transform="scale(.75)"/><path d="M140 23v5l-5 1h-5v4c0 4 0 4 3 4s7 3 7 6-2 4-7 7c-7 3-10 8-10 14 0 5 1 4-16 7-34 4-51 11-65 25a60 60 0 0 0-17 46c0 8-1 11-2 12l-1 4c0 2 1 3 3 5 6 3 14 12 19 21l4 9-3 6c-4 6-4 9-3 12 1 2 2 2 6 2 6 0 8 1 8 6 1 4 1 5-3 8-3 2-4 4-4 6 0 4 0 4 6 5 5 1 6 1 20-2 50-13 89-12 140 0 12 3 14 3 19 2s5-1 5-5c0-2-1-4-4-6-4-3-4-4-3-8 0-5 2-6 8-6 8 0 9-5 3-14a21 21 0 0 1-3-6l4-9a56 56 0 0 1 19-21c2-2 3-3 3-5l-1-4c-1-1-2-4-2-12 0-20-5-34-17-46-14-14-31-21-65-26-17-2-16-1-16-6 0-6-3-11-10-14-5-3-7-4-7-7s4-6 7-6 3 0 3-4v-4h-5l-4-1-1-5v-5h-8v5zm-13 62 3 1v26l-1 28-2 4-2 5c-3 2-3 7 1 8l2 3c0 2 2 4 4 4s3 2 3 3c1 3 1 4-2 6-3 3-3 4-12 4-11 0-15-2-15-7 0-3 1-4 3-5l4-3 2-4c2-2 2-3 1-5-1-4-2-5-5-5-2 0-3 0-3-2 0-3-5-6-7-5h-2l-1-5v-16c0-11 0-12 3-18 5-10 9-14 24-18l2 1zm42 1a28 28 0 0 1 18 16c3 6 3 7 3 18a341 341 0 0 1-1 21h-2c-2-1-7 2-7 5 0 1 0 2-2 2-6 0-9 6-5 10l2 4 4 3c2 1 3 2 3 5 0 5-4 6-15 6-9 1-9 0-12-3-3-2-3-3-2-6 0-2 1-3 3-3s3-1 3-2l3-5c4-3 4-4 1-9l-2-4c1-1 0-2-1-3-2-2-2-3-2-29V86l2-1 3-1 6 2zm-86 8-3 6c-6 12-7 15-7 36 1 15 0 20-1 20l-3 3c-1 2-1 6 2 9l2 3c1 2 2 3 4 3 3 0 5 4 4 6-1 3-7 5-11 5s-11-4-11-6l2-4c1-2 2-4 1-5v-5c2-4 0-6-4-7l-4-4-3-3c-3 0-4-1-4-5a79 79 0 0 1 1-27c4-8 12-16 25-22 9-4 10-4 10-3zm131 3c13 6 22 13 26 22 1 4 3 22 1 27 0 4-1 4-4 5l-4 3c0 2-1 3-3 4-4 1-6 3-4 7v5c-1 1 0 3 1 5l2 4c0 2-7 6-11 6s-10-2-11-5c-1-2 1-6 4-6a5 5 0 0 0 4-3l2-3c3-3 3-7 2-10l-3-2-1-20c0-21-1-24-7-36-3-5-3-7-2-7l8 4z"/></svg>