<svg xmlns="http://www.w3.org/2000/svg" width="384" height="346.667" version="1.0" viewBox="0 0 288 260"><path d="M273.917 119.627c-4.72.078-6.452 5.875-4.012 9.385 4.447 10.631 11.282 20.966 10.723 32.956.763 15.113.223 30.341 1.557 45.47.397 3.615 4.673 4.503 5.65 7.672.693 4.459-3.906 7.256-5.892 10.68-1.303 2.07-4.345 1.687-5.934 3.56-4.688 3.043-6.985 9.983-2.999 14.531 6.672 7.255 18.553 9.571 27.308 4.76 4.34-2.498 10.536-5.823 9.383-11.798-.42-3.411-3.627-6.135-3.644-9.399 1.498-3.775-.639-7.45-.876-11.151 1.527-1.996 4.791-1.933 6.62-3.752 2.364-1.19 2.933-3.95 4.435-5.757 4.109-1.293 8.441-3.616 9.443-8.23 2.473-10.115 1.473-20.73.502-30.99-.695-11.577-7.465-21.866-16.317-28.994-9.996-8.174-21.729-14.042-33.71-18.684-.728-.19-1.483-.297-2.237-.259zm-58.622-11.998c-3.629 1.542-9.413 2.454-9.192 7.518.29 22.402-.21 44.827.644 67.216.008 3.49 1.541 6.777 3.765 9.285-.25 4.708 2.85 8.511 4.977 12.338-2.535 3.435-5.886 6.346-7.79 10.213-6.55.458-10.142 8.262-8.93 14.105 2.008 4.624 6.237 8.19 10.598 10.559 7.324 1.603 14.996 1 22.444.664 6.198-.252 13.954-2.856 15.119-9.852 1.471-5.832-2.11-11.596-7.227-14.241-2.414-2.478-3.585-5.986-5.948-8.573-1.47-2.723 1.75-5.087 4.297-4.825 3.863-.337 6.388-3.807 6.812-7.41 2.851-3.556 8.13.704 10.926-3.065 2.374-5.464 1.376-11.72 2.018-17.543.088-10.527 1.769-21.263-.482-31.662-3.949-11.857-11.112-23.7-22.87-29.117-5.559-2.512-11.423-4.791-17.418-5.778-.606-.029-1.18-.132-1.743.168zm-50.52-.108c-9.811 3.152-20.2 6.63-27.112 14.744-5.188 5.577-8.358 12.767-10.932 19.847-2.386 10.275-.609 20.933-.56 31.357.602 5.967-.26 12.288 1.934 17.955 2.208 3.048 5.808 1.273 8.795 1.8 3.51.536 2.26 4.809 4.566 6.632 1.939 2.543 5.454 1.815 7.958 2.721 1.22 1.902 1.639 4.497-.46 5.974-2.218 2.93-3.291 6.852-6.928 8.443-6.975 4.355-7.046 16.1.447 19.964 7.364 3.869 16.05 2.574 24.058 2.88 4.578.171 9.422-.566 12.702-4.085 4.02-3.097 7.956-8.067 5.754-13.414-1.275-4.245-4.715-7.643-8.953-8.81-1.532-1.627-1.437-4.416-3.526-5.782-1.145-1.666-4.779-2.268-3.416-4.883 2.182-3.43 4.823-6.801 5.138-11.058 1.245-3.657 4.226-6.812 3.357-10.97-.09-22.216.18-44.48-.135-66.666-.626-4.661-6.24-5.166-9.775-6.631-.977-.028-1.967-.437-2.913-.018zm-55.345 12.048c-6.277 1.268-11.81 4.937-17.599 7.554-12.626 6.786-25.756 15.495-31.55 29.187-3.261 10.368-3.347 21.462-3.372 32.244.071 6.28.976 14.67 7.908 17.061 1.902.535 4 1.212 4.264 3.51 1.885 3.9 6.386 4.799 9.654 6.914.263 3.53-2.315 6.976-.973 10.605.909 3.496-2.818 6.268-3.44 9.703-1.603 5.975 4.728 9.639 9.088 12.101 8.68 5.181 20.359 2.64 27.344-4.2 5.077-5.35 1.01-13.95-5.15-16.323-3.876-.83-5.339-4.913-7.777-7.596-2.661-2.464-2.237-7.232 1.291-8.636 4.401-3.686 2.71-10.026 3.365-15.028.576-14.205.178-28.353 1.459-42.494 1.974-10.083 8.1-18.653 11.25-28.291.578-3.344-2.366-6.607-5.762-6.311zM189.606-.351c-6.657-.281-13.564 1.32-18.507 6.032-3.403 2.812-5.984 6.671-7.645 10.62-8.656 3.913-15.295 13.22-14.481 22.942.022 5.693-.328 11.577 1.741 17.002-3.675 3.718-6.256 8.63-8.578 13.04-28.878 4.456-58.928 9.263-83.863 25.563-17.712 11.965-33.295 28.173-41.408 48.213-7.225 16.402-8.092 34.67-8.778 52.212-.637 4.623-3.386 8.838-2.899 13.677-.593 7.29 1.028 14.907 5.901 20.549 6.278 6.926 15.167 11.16 20.398 19.134 1.734 2.745 4.25 5.558 4.979 8.577-6.305 11.383-8.206 26.385-.762 37.718 1.635 2.8 4.279 5.116 6.432 7.246-1.83 9.315-1.656 19.934 4.658 27.625 6.546 8.446 17.634 11.62 27.815 12.8 13.027.655 25.72-3.726 38.28-6.196 26.485-6.05 53.743-9.963 80.744-9.562 30.11.04 59.796 5.28 89.152 12.296 14.41 3.474 30.46 5.64 44.25-1.228 10.217-4.49 16.302-15.614 15.898-26.58-.025-3.278-.53-6.54-1.36-9.708 11.29-8.675 14.724-25.29 8.697-38.028-.637-2.403-2.753-4.78-2.73-7.08 4.442-8.193 10.663-15.401 18.487-20.52 8.686-6.35 14.388-17.127 12.899-28.016-.52-6.353-4.039-12.1-3.497-18.598-.13-18.966-3.064-38.416-12.543-55.122-12.463-22.667-33.361-40.205-57.295-49.76-20.295-8.593-42.252-11.936-63.896-15.214-2.123-4.728-4.825-9.277-8.404-13.053 2.51-7.324 1.823-15.273 1.408-22.865-1.64-7.553-7.363-13.923-14.317-17.093C216.939 6.537 206.932-.6 196.53-.238a110.367 110.367 0 0 0-6.924-.114zm3.18 29.495c.693 4.367-.995 10.382 3.578 13.03 2.974.96 6.184.715 9.266 1.02.702 2.476-2.666 1.4-4.02 2.514-6.094 2.048-10.798 8.897-8.266 15.283 3.699 9.401 16.792 9.31 20.692 18.453 1.918 5.067-.26 12.576 5.582 15.458 8.073 2.828 16.83 2.886 25.193 4.482 19.682 3.19 40.076 6.536 58.098 16.031 18.991 9.758 35.293 27.206 40.458 48.485 3.37 13.224 2.471 26.858 3.596 40.327.271 2.572 3.853 5.052 2.407 7.735-8.965 5.352-16.077 13.357-22.257 21.666-4.71 7.423-9.665 15.113-11.6 23.793-.235 5.382 4.238 9.479 6.265 14.155.827 2.021 2.703 4.408 2.126 6.593-5.526 1.742-12.605.467-16.69 5.644-2.977 4.267-4.494 10.13-3.014 15.22 1.724 4.8 7.112 7.015 9.423 11.253.87 2.684-3.084 2.03-4.748 2.72-8.095 1.355-15.98-2.085-23.845-3.477-32.06-7.762-64.956-12.51-97.994-12.163-33.886.173-67.243 7.034-100.07 14.85-5.417 1.49-11.71 1.709-16.727-.55-.111-3.61 4.102-5.196 6.075-7.73 4.142-3.318 4.932-9.02 3.339-13.845-.81-5.899-5.995-10.266-11.854-10.57-2.487-.573-5.603 0-7.696-1.114-.292-5.153 3.969-9.177 6.094-13.55 2.65-3.863 3.05-8.954.631-13.044-6.226-14.605-15.835-27.979-28.563-37.579-1.618-1.229-5.06-1.871-3.813-4.621 1.663-3.128 3.535-6.265 2.98-10 .387-16.455.41-33.728 8.034-48.814 10.355-21.869 31.948-36.285 54.594-43.09 19.944-6.226 40.837-8.144 61.316-11.78 4.153-.531 7.275-4.083 7.294-8.271.34-4.99.903-10.79 5.666-13.646 5.836-4.372 14.955-6.596 16.785-14.672 1.612-7.616-5.677-13.995-12.746-14.64-.415-2.868 3.99-1.16 5.912-1.899 3.868.299 6.996-3.111 6.577-6.928.187-2.312.311-4.628.44-6.943.339.19 1.579-.419 1.482.214z" style="fill:#fff;stroke-width:.517413" transform="scale(.75)"/><path d="m139.8 23.2-.3 5.3-4.7.3-4.8.3v4c0 3.7.2 3.9 3 3.9 3.3 0 7 3 7 5.7 0 3-1.7 4.6-7.2 7.3-6.6 3.1-9.8 7.6-9.8 13.6 0 5.1 1.1 4.6-16 6.9C72.8 75.3 56.1 81.8 41.9 96c-11.8 11.8-17.2 26.2-17.2 45.7.1 8.4-.3 11.5-1.3 12.4-.8.6-1.4 2.5-1.4 4.1 0 2.3.7 3.3 3.3 4.6 5.8 3.1 14 12.4 18.5 21.1 2.3 4.5 4.2 8.9 4.2 9.6 0 .8-1.3 3.4-2.9 5.7-3.7 5.4-4.6 9-3.1 11.7.8 1.7 2 2.1 5.8 2.1 6 0 7.8 1.4 8.7 6.5.6 3.9.4 4.3-3.4 7.3-3.3 2.7-4.1 3.9-4.1 6.7 0 3.3.2 3.4 5.5 4.6 5.1 1.1 6.4 1 20.2-2.4 49.9-12.3 89-12.1 140.6.5 11.8 2.9 13.2 3 18.2 1.9 5.3-1.2 5.5-1.3 5.5-4.6 0-2.8-.8-4-4.1-6.7-3.8-3-4-3.4-3.4-7.3.8-5 2.7-6.5 8.1-6.5 8.1 0 9.3-4.9 3.4-13.6-1.6-2.5-3-5.1-3-5.9 0-.7 1.9-5.1 4.2-9.6 4.5-8.7 12.7-18 18.6-21.1 2.5-1.3 3.2-2.3 3.2-4.6 0-1.6-.6-3.5-1.4-4.1-1-.9-1.4-4-1.3-12.4 0-19.5-5.4-33.9-17.2-45.7-14.2-14.2-30.9-20.7-65.1-25.5-17.1-2.3-16-1.8-16-6.9 0-6-3.2-10.5-9.8-13.6-5.5-2.7-7.2-4.3-7.2-7.3 0-2.7 3.7-5.7 7-5.7 2.8 0 3-.2 3-3.9v-4l-4.7-.3-4.8-.3-.3-5.3-.3-5.2h-7.8l-.3 5.2zM127.4 85l2.6 1v26.4c0 22.2-.2 26.6-1.5 27.6-.8.7-1.5 2.5-1.5 4s-.9 3.5-2 4.5c-2.9 2.6-2.6 7.3.5 8.7 1.4.6 2.5 1.9 2.5 2.8 0 2 1.7 3.6 4.4 4.1 1.1.2 2.4 1.7 2.9 3.3.8 2.5.6 3.2-2.2 6-3.1 3-3.4 3.1-12.4 3.1-11.2 0-15-1.8-14.5-6.9.2-2.2 1.1-3.5 3-4.4 1.5-.7 3-2.2 3.3-3.3.4-1.2 1.6-3 2.6-4 1.4-1.4 1.8-2.7 1.3-4.7-1-4-2.3-5.2-5.5-5.2-2.4 0-2.9-.4-2.9-2.4 0-2.6-4.7-5.3-7.5-4.2-.8.3-1.5.2-1.6-.2 0-.4-.2-2.7-.5-5.2-.2-2.5-.5-9.7-.6-16.1-.2-11.3-.1-11.9 3.1-18.3 4.8-9.8 9.4-13.2 23.8-17.5.1-.1 1.3.3 2.7.9zm41.8 1c8.4 2.6 13.8 7.3 17.9 15.6 3.2 6.4 3.3 7 3.1 18.3-.1 6.4-.4 13.6-.6 16.1-.3 2.5-.5 4.8-.5 5.2-.1.4-.8.5-1.6.2-2.8-1.1-7.5 1.6-7.5 4.2 0 1.8-.5 2.4-2.3 2.4-5.2 0-8.3 6.4-4.8 9.9 1 1 2.2 2.8 2.6 4 .3 1.1 1.8 2.6 3.3 3.3 1.9.9 2.8 2.2 3 4.4.5 5.1-3.3 6.9-14.5 6.9-9 0-9.3-.1-12.4-3.1-2.8-2.8-3-3.5-2.2-6 .7-2.1 1.7-3 3.6-3.2 1.7-.2 2.7-.9 2.7-1.9 0-.9 1.6-3.1 3.5-4.9 3.8-3.4 3.8-4.7.3-9.3-1-1.3-1.6-3.2-1.3-4.1.3-.9-.3-2.5-1.5-3.5-1.9-1.7-2-3-2-28.2V85.9l2.3-.9c1.2-.5 2.3-.9 2.3-.9.1-.1 3.1.8 6.6 1.9zM83 93.7c0 .5-1.3 3.4-2.9 6.5-6.1 12.1-6.6 14.6-6.6 36.1 0 14.9-.3 19.7-1.2 19.7-.7 0-2 1.1-2.9 2.5-1.8 2.8-1.3 6.4 1.3 9.1 1 1 2.3 2.7 2.8 3.8.6 1.2 2 2.2 3.3 2.4 3.1.5 5.4 4 4.1 6.4-1.3 2.5-6.8 4.8-11.1 4.8-3.6 0-10.8-4.2-10.8-6.3 0-.7.9-2.5 1.9-4.1 1.4-2.1 1.7-3.5 1.1-4.6-.6-1.1-.5-2.9.3-4.9 1.5-3.9.2-6.2-4.1-7.5-1.9-.6-3.3-1.8-3.7-3.3-.3-1.5-1.6-2.5-3.7-3.1-2.7-.7-3.4-1.4-4.1-4.8-1.3-5.7-.2-23.2 1.7-27.7 3.3-8.1 12-15.6 25.1-21.8 8.5-4 9.5-4.4 9.5-3.2zm131.2 3.1c13.3 6.2 22 13.7 25.4 21.9 1.9 4.5 3 22 1.7 27.7-.7 3.4-1.4 4.1-4.1 4.8-2.1.6-3.4 1.6-3.7 3.1-.4 1.5-1.8 2.7-3.7 3.3-4.3 1.3-5.6 3.6-4.1 7.5.8 2 .9 3.8.3 4.9-.6 1.1-.3 2.5 1.1 4.6 1 1.6 1.9 3.4 1.9 4.1 0 2.1-7.2 6.3-10.8 6.3-4.3 0-9.8-2.3-11.1-4.8-1.3-2.4 1-5.9 4.1-6.4 1.3-.2 2.7-1.2 3.3-2.4.5-1.1 1.8-2.8 2.8-3.8 2.6-2.7 3.1-6.3 1.3-9.1-.9-1.4-2.2-2.5-2.9-2.5-.9 0-1.2-4.8-1.2-19.7 0-21.5-.5-24-6.6-36.1-2.8-5.6-3.4-7.2-2.4-7.2.2 0 4.2 1.7 8.7 3.8z"/></svg>