<svg xmlns="http://www.w3.org/2000/svg" width="400" height="437.338" version="1.0" viewBox="0 0 300 328.004"><path d="M127.75 34.474c-7.388 1.109-11.775 7.71-16.398 12.892-7.915 10.138-13.814 22.126-16.03 34.84-1.223 8.556 5.97 17.295 14.744 17.088 8.53-.364 17.287-1.377 25.097-5.107 7.542-3.352 15.404-6.128 22.65-10.062 7.246-4.526 8.923-15.294 3.543-21.89-6.786-7.885-14.074-15.349-20.83-23.253-3.247-3.49-8.09-4.986-12.776-4.508zM152.831.012c-21.717-.439-42.125 11.073-56.626 26.616C80.513 43.605 70.242 65.74 67.88 88.765c-.39 12.792-.964 25.737 1.117 38.42 4.313 23.909 16.969 46.32 35.416 62.163-2.076 12.153 5.98 24.786 17.356 29.028 1.545 4 5.083 6.922 6.515 10.92 1.42 9.53 1.206 19.215 1.729 28.819-4.282 7.35-7.942 15.455-7.56 24.16-.679 7.49 2.035 14.819 6.606 20.678 4.914 6.68 9.594 13.544 14.322 20.336 5.785 6.606 17.35 6.228 22.592-.869 4.82-7.073 9.798-14.078 14.684-21.122 3.822-5.345 6.799-11.64 6.144-18.38.068-8.334-3.496-16.083-7.44-23.224.203-9.965.023-20.03 1.386-29.905 1.633-4.303 5.33-7.271 7.28-11.352 11.253-4.183 18.933-16.331 17.206-28.32-.405-2.112 2.798-2.86 3.818-4.505 18.855-18.494 30.118-44.18 32.503-70.358.982-14.788.404-29.844-3.922-44.116-3.375-12.023-8.843-23.484-15.789-33.844-8.897-11.332-19.469-21.768-32.242-28.64-11.358-5.636-24.053-8.876-36.77-8.642Zm-22.652 49.46c6.405 7.696 13.138 15.127 20.313 22.114-9.156 3.82-18.263 7.98-27.499 11.593l-13.376 1.483c3.163-13.42 9.739-26.405 20.347-35.45zm59.139 11.004c.326.485 2.166 3.015.75 1.523-.146-.334-.802-1.517-.75-1.523zm-66.057 67.432a626.761 626.761 0 0 1 6.635 5.84c-2.806 4.92-5.545 9.88-8.153 14.91-3.04-4.07-5.508-8.545-7.642-13.146 2.599-2.929 5.26-5.804 7.971-8.63l1.189 1.026zm47.092 7.896c.302 8.476.305 17.059-2.149 25.263-.709 1.652-.545 4.258-1.905 5.316-5.599 1.344-11.463 1.696-17.167.856 5.626-10.7 11.492-21.383 18.669-31.333.936-.088 3.107-2.556 2.552-.102zm18.972 24.553c.755.174-.415.155 0 0zm-71.383-47.322c-6.609 2.132-10.693 8.198-15.192 13.067-4.578 5.31-4.086 13.258-.42 18.927 3.73 6.957 7.722 15.407 16.185 17.326 7.084 1.629 14.485-2.491 17.454-9 2.793-5.667 6.967-10.87 8.31-17.104 1.373-6.575-2.8-12.61-7.807-16.437-4.502-4.616-10.779-8.67-17.492-6.945l-1.038.166zm51.196 6.98c-9.018.45-14.477 8.627-18.897 15.485-5.28 8.508-10.449 17.149-14.649 26.243-2.961 7.847 1.796 17.34 9.877 19.617 8.02 1.904 16.593 1.23 24.513-.88 6.765-1.817 11.193-8.112 12.29-14.798 2.888-10.59 3.515-21.687 2.7-32.592-1.04-7.673-8.098-13.497-15.834-13.075z" style="fill:#fff;stroke-width:.447761"/><path d="M144.607 15.24c-27 4.5-51 29.4-59.7 61.8-2.3 8.9-2.6 11.9-2.7 26.5-.1 18.4 1.6 27.5 7.4 41.2 6.1 14.4 16.6 27.9 28.1 36.4l4.8 3.5-1.9 3.2c-2.5 4.1-2.5 7.3 0 11.4 2.6 4.3 7.3 6.7 11.6 5.9 2.7-.6 3.5-.3 4.5 1.5 1 1.9.9 2.5-.6 3.5-1.9 1.4-1.7 1.9 2.6 7.4 4.3 5.7 5.1 9.5 5.6 27.3l.6 16.8-3.9 7.2c-3.3 6.2-3.8 8.1-3.9 13.7 0 6.6 0 6.6 6.6 15.5 3.7 5 7.6 10.5 8.7 12.3l2 3.3 2.3-3.8c1.3-2.1 5.1-7.6 8.6-12.2 3.4-4.6 6.5-9.8 6.9-11.6.7-4.2-1-10.7-4.8-17.4l-3-5.5.4-17.5c.4-15.6.7-18.2 2.7-22.8 1.2-2.8 3.4-6.1 4.7-7.4 2.7-2.6 3.1-4.4.9-5.3-1.2-.4-1.3-1-.4-3 1-2 1.6-2.3 4.8-1.9 9.9 1.3 17-10.4 11-18.1-1.2-1.5-2-2.8-1.8-3 .2-.1 2.4-1.6 4.9-3.3 14.4-9.7 27.2-29.7 32.5-50.6 6.8-27.1 3-55.3-10.8-79.2-5.7-9.9-20.1-23.9-29.4-28.8-12.1-6.3-27.3-9-39.3-7zm17.1 10.3h2.6l.5 12.2c.5 10.7.9 13.3 3.6 20.2 1.7 4.4 3 8.1 2.8 8.3-.2.2-5.7-5.2-12.2-11.9-11.6-12-21.4-23.7-21.4-25.6 0-1.8 12.1-4.2 18-3.6 1.9.2 4.7.4 6.1.4zm14.4 4.4c15.4 7.2 28.7 22.7 35.5 41.6l3 7.9-4.3 1.2c-2.3.6-5.4 1.8-6.8 2.6-2.5 1.5-3 1.3-12.6-3.6-5.5-2.8-10.9-6.1-12.1-7.4-1.2-1.3-4-7.1-6.2-12.8-3.3-8.9-4-12.2-4.6-21.2-.8-12.4-.7-12.5 8.1-8.3zm-30.9 14.6c7.3 8.6 18.9 20.2 27.7 27.5l4.7 4-25.2 10.8-25.3 10.8-13 1.4c-7.1.8-15 1.7-17.4 2l-4.4.5.7-7.5c2.4-26.4 16.2-50.6 35.1-61.6l5-2.9 2.5 3.2c1.4 1.8 5.7 7.1 9.6 11.8zm71.5 47c1.5 9.9.6 27.4-2.1 37.5-2.1 8.2-10.4 26.5-11.9 26.5-.5 0-3.8-3.3-7.4-7.3l-6.5-7.2-.7-15-.7-15 3.4-6c7.2-12.7 10.4-16.7 15.3-19.2 4-2.1 7.8-3.2 8.7-2.4.4.3 1.2 4 1.9 8.1zm-28.1-5.5c1.8 1.1-5.1 12.4-10.7 17.5-7 6.4-14.5 9.3-24.3 9.4-5 0-9.1-.5-12.3-1.8l-4.7-1.8 2.1-3.8c4.1-7.3 9.7-11.5 21.4-16.4 10.6-4.4 11.3-4.5 19.3-4.1 4.5.2 8.7.7 9.2 1zm-68 16.3c0 .4-5.6 6.3-12.4 13.1-9.8 9.8-12.4 11.9-13 10.6-.9-2.5-3.1-20.3-2.5-20.9.4-.4 13.3-2.1 26.7-3.5.6 0 1.2.2 1.2.7zm15.1 16.8c7.1 6.4 12.9 11.7 12.9 11.8 0 .2-2.6 4.5-5.7 9.7-3.1 5.2-8.2 14.7-11.3 21.2l-5.6 11.8-4.7-3.8c-5.7-4.8-10.3-10.1-15-17.4-4-6.2-8.7-16.9-8.7-19.7 0-2.2 21.7-25.2 23.8-25.2.8 0 7.2 5.2 14.3 11.6zm49.4 11.6c.4 11.4.3 19.7-.5 24.3-1.3 8.1-4.7 20.4-6.2 22.2-2 2.5-13.8 5.3-21.9 5.3-9.2 0-15.7-1.3-21.9-4.3-3.7-1.8-4.5-2.6-4.2-4.6.7-6.6 21.9-44 28.1-49.5 2-1.8 22.2-10.4 24.7-10.5.8-.1 1.4 5.2 1.9 17.1zm12.7 31.6c-2.6 3.5-13.3 12.5-13.9 11.8-.2-.2.5-3.6 1.7-7.7 1.1-4 2.3-10.2 2.7-13.8l.6-6.5 5.8 6.3 5.8 6.4z"/></svg>