<svg xmlns="http://www.w3.org/2000/svg" width="400" height="437" version="1.0" viewBox="0 0 300 328"><path d="M128 35c-8 1-12 7-17 12a80 80 0 0 0-16 35c-1 9 6 17 15 17s17-1 25-5l23-10c7-4 9-15 3-22l-20-23a15 15 0 0 0-13-5zm25-35c-22 0-42 11-57 27a109 109 0 0 0-28 62c0 13-1 26 1 38 4 24 17 47 35 62-2 13 6 25 18 29 1 4 5 7 6 11 2 10 2 20 2 29a44 44 0 0 0-7 24c-1 8 2 15 6 21l14 20a15 15 0 0 0 23-1l15-21a28 28 0 0 0 6-18c0-8-4-16-8-23 1-10 0-20 2-30 1-4 5-7 7-12a27 27 0 0 0 17-28c0-2 3-3 4-4a114 114 0 0 0 33-71 119 119 0 0 0-20-78 106 106 0 0 0-32-28 80 80 0 0 0-37-9Zm-23 50 21 22-28 11-13 2a66 66 0 0 1 20-36zm59 11 1 1-1-1zm-66 67a627 627 0 0 1 7 6 425 425 0 0 0-8 15l-8-13a302 302 0 0 1 8-9l1 1zm47 8c1 8 1 17-2 25 0 2 0 4-2 5a45 45 0 0 1-17 1 259 259 0 0 1 19-31c1 0 3-3 2 0zm19 24c1 1 0 1 0 0zm-71-47c-7 2-11 8-15 13-5 5-4 13-1 19 4 7 8 15 17 17a16 16 0 0 0 17-9c3-5 7-11 8-17 2-6-2-12-7-16-5-5-11-9-18-7h-1zm51 7c-9 1-14 9-19 16a245 245 0 0 0-14 26c-3 8 1 17 10 19 8 2 16 2 24-1 7-1 11-8 12-14a97 97 0 0 0 3-33c-1-8-8-13-16-13z" style="fill:#fff;stroke-width:.447761"/><path d="M145 15c-27 5-51 30-60 62a84 84 0 0 0-3 27 89 89 0 0 0 8 41 91 91 0 0 0 28 36l4 4-1 3c-3 4-3 7 0 11 2 4 7 7 11 6 3-1 4 0 5 2s1 2-1 3-2 2 3 7c4 6 5 10 5 28l1 17-4 7a24 24 0 0 0-4 14c0 6 0 6 7 15l8 12 2 4 3-4a202 202 0 0 1 8-12c4-5 7-10 7-12 1-4-1-11-5-17l-3-6 1-17c0-16 0-19 2-23l5-8c3-2 3-4 1-5v-3c1-2 1-2 4-2 10 1 17-10 11-18l-1-3 5-3c14-10 27-30 32-51a106 106 0 0 0-11-79 94 94 0 0 0-29-29 67 67 0 0 0-39-7zm17 11h2l1 12a51 51 0 0 0 3 20l3 8-12-12c-12-12-21-23-21-25s12-4 18-4l6 1zm14 4a73 73 0 0 1 36 42l3 8-5 1-7 2c-2 2-3 1-12-3a66 66 0 0 1-12-8 59 59 0 0 1-6-13c-4-9-4-12-5-21-1-12-1-12 8-8zm-31 14a257 257 0 0 0 28 28l5 4-26 11-25 11-13 1-17 2-5 1 1-8c3-26 16-51 35-62l5-3 3 4 9 12zm72 48c1 10 0 27-2 37l-12 27-8-8-6-7-1-15-1-15 4-6c7-13 10-17 15-19l9-3 2 8zm-28-6c1 1-6 12-11 18-7 6-15 9-24 9l-13-2-4-2 2-3c4-8 9-12 21-17 11-4 11-4 19-4l10 1zm-68 16a186 186 0 0 1-26 24c-1-3-3-20-2-21a351 351 0 0 1 28-3zm15 17a592 592 0 0 1 13 12l-6 10-11 21-6 12-5-4a74 74 0 0 1-15-18c-4-6-8-17-8-19 0-3 21-26 23-26l15 12zm49 12a91 91 0 0 1-7 46c-2 3-13 5-21 5-10 1-16-1-22-4-4-2-5-2-5-4 1-7 22-44 29-50 2-2 22-10 24-10 1 0 2 5 2 17zm13 31a57 57 0 0 1-14 12l2-8a108 108 0 0 0 2-13l1-7 6 6 5 7z"/></svg>