<svg xmlns="http://www.w3.org/2000/svg" width="372" height="368" version="1.0" viewBox="0 0 279 276"><path d="M132 55c-7 0-13 4-16 10a19 19 0 0 0 16 28 20 20 0 0 0 17-10 19 19 0 0 0-17-28zm75-19a60 60 0 0 0-24 6 31 31 0 0 0-13 8c-4 5-5 12-3 18 1 6 6 10 11 13l3 1a26 26 0 0 0 17 7c7 0 14-3 19-7 6-5 11-12 12-20a24 24 0 0 0-3-16c-2-3-5-6-9-8l-10-2zm-47 21c-4 0-9 2-12 4a19 19 0 0 0-1 32c4 3 9 4 14 3 5 0 9-3 13-6 5-4 7-11 6-18a19 19 0 0 0-20-15zM70 210c-14 2-25 17-19 30 4 12 20 16 29 8 8-5 14-17 9-27a19 19 0 0 0-19-11zm-20-18a19 19 0 0 0-17 21c1 14 18 24 31 18a20 20 0 0 0 8-27 24 24 0 0 0-22-11zm-7 20c-17 2-29 24-18 38 6 14 25 17 37 8 12-7 15-24 5-34-6-7-15-13-24-12ZM208 10c-21-1-40 8-57 20-14 6-29 24-20 40 10 7-12 6-15 14-8 8-13 18-23 25-10 11-23 26-14 41 8 10 16 22 29 26 10 10 22 23 39 20 24-1 38-21 53-37l34-40c8-21 22-41 24-65a47 47 0 0 0-50-45Zm1 45c7 7-11 23-18 10-8-2-9-2 0-6a41 41 0 0 1 18-4zm-49 23c-8 1 7-6 0 0zM140 0c-13-1-21 12-24 23-10 2-23-4-32 5-6 8-9 13-18 6-12-7-28-1-31 13-5 12 17 26-2 31-14 8-3 27-10 36-11 2-24 10-23 24-1 13 13 20 24 22 5 8-3 24 8 32 10 5 14 17 24 21 16 4 27-9 37-18 3-14 21-21 15-37-5-11-20-19-17-33 7-16 20-28 31-40s22-23 32-36c14-6 13-24 5-35a20 20 0 0 0-19-14Zm19 15 1 3zm74 90c-16 0-23 16-33 26-13 16-27 33-44 45-16 9-27-6-36-15-12-7-25 2-35 8-6 10-10 21-21 27-14 12-5 36 12 37 5 14 22 20 35 15 10 6 8 27 24 28 14 3 24-10 27-22 3-13 21 0 29-10 7-8 12-14 22-6 10 7 27 5 32-8 8-12-14-27-5-35 14-7 10-24 13-35 12-2 27-9 26-24 0-16-17-20-30-24-5-4-10-7-16-7zm20 18zm-123 54zm98 23z" style="fill:#fff;stroke-width:.109328"/><path d="M135 26c-4 12-5 13-7 14a196 196 0 0 0-12 2c-8 2-9 2-11 0-4-4-12 0-12 5 0 3-1 4-7 8l-8 5-14-7-14-7 7 14 7 14-6 8c-4 7-6 8-8 8l-4 2c-4 3-4 9-1 11 2 2 2 2 0 9l-2 10a11 11 0 0 1-1 4l-15 6-14 5 14 5 15 5 1 4 2 9v9c-4 4 0 13 6 13 1 0 4 3 7 8 6 9 6 11-1 13-11 5-15 11-14 19 1 4 1 5-1 7a15 15 0 0 0-5 9c0 3 4 9 7 10 2 1 11-4 12-6s2-3 4-3l8-4c4-3 5-5 8-11l3-9c0-1 2-1 7 3 6 3 7 4 7 7 0 6 8 9 13 5 1-2 3-1 10 0l11 2 6 15 6 15 5-14 6-16h4l10-2c5-2 6-2 8 0a14 14 0 0 0 5 1c2 0 7-4 7-7 0-1 3-4 8-7l7-5 16 7 15 8-8-15-7-16 4-7 6-7c3 0 7-3 8-5 1-3 1-4-1-7-1-3-1-4 1-13l3-10 15-5 14-5-15-6c-13-4-15-5-15-7l2-3c2-3 4-8 2-9l-4-1c-2 1-3 0-4-3-1-2-1-3 1-5 3-3 2-7 0-10l-2-3 4-9c6-14 7-20 7-28a30 30 0 0 0-20-26 45 45 0 0 0-25 0 69 69 0 0 0-28 11l-6 4-7-1c-7-2-9-3-7-7 1-2 1-3-1-5a26 26 0 0 1-5-9l-3-8zm86 4a29 29 0 0 1 18 26c0 5-6 21-14 37-7 15-8 18-6 23 1 3 1 3 5 3a21 21 0 0 0 8-4c4-2 6-2 5 1l-6 8c-4 3-12 14-20 23-22 27-38 42-51 47a36 36 0 0 1-15 2c-9 0-11 0-17-3s-16-12-16-15c0-1 1-3 4-4l3-2 3 4a56 56 0 0 0 10 7c5 3 7 4 11 4 15 0 33-14 55-42l13-19-5 5c-18 23-25 31-36 39-9 8-17 12-24 12-5 1-7 1-12-2a36 36 0 0 1-16-15l-3-3 1 7c1 1 0 3-5 6l-7 6c-2 2-5 2-5 0l-5-4-3-2 3-7 5-8c2-3 2-3 5-3l6 1 4 2c1 1 1 1 1-1l-6-3a34 34 0 0 1-17-9c-4-4-3-6 2-9 2-1 4-5 5-8a46 46 0 0 1 17-16c5-3 7-6 7-9l6-8c5-4 7-5 8-4 2 1 3 4 3 7-2 3 2 3 6 0 7-6 8-6 12-1a31 31 0 0 0 4 4l10-11 9-11 3 2a43 43 0 0 1 5 6c3 4 2 4 16-1l11-4c2 0 1 3-5 14-6 13-7 16-6 20 2 2 2 2 2-4 1-6 2-9 11-27 12-23 13-29 11-38-3-13-18-17-39-10-8 3-15 7-29 15-10 7-14 7-18 3l-3-3-14 14c-30 31-42 49-42 61s3 17 12 24l3 2-2 5c-2 4-2 4-5 3-7-1-19-20-20-31-1-16 5-25 37-60a748 748 0 0 1 26-29l10-11-1 5c-2 6 0 10 4 12 3 2 7 0 19-7a63 63 0 0 1 24-12 52 52 0 0 1 30 0zm-2 11c7 3 8 6 9 14 0 6 0 7-5 17-4 9-5 10-8 11a93 93 0 0 0-11 3 77 77 0 0 1-10 3c-1 0-4-2-6-5-4-5-7-6-10-4l-7 8c-7 8-8 9-11 6-4-3-6-3-9-1a13 13 0 0 1-5 3l-5-4-5-3-4 3c-5 3-5 3-10 1l-9-1-3-1 31-33 4 2c4 2 4 2 10 0a125 125 0 0 0 18-8c15-9 20-11 27-13a27 27 0 0 1 19 2zM117 95h4v3l-1 7c0 3-3 6-9 9-8 4-11 6-11 11-1 3-2 5-6 8-5 4-6 5-7 2-4-8 4-24 17-38 4-4 5-4 7-3l6 1zm-26 84c5 2 7 5 7 10a14 14 0 0 1-1 6c-2 2-2 2-3 0a42 42 0 0 0-11-10l-3-3 7-4 4 1zm-5 11 4 5 2 3-3 1-8 6c-3 3-6 5-7 4-1 0-1 1 1 3l2 3-3 7c-3 7-4 9-8 11-6 4-10 4-14 0-4-3-6-7-6-13l2-8a50 50 0 0 1 17-9l2-2 4-5a21 21 0 0 0 5-6c2-4 2-4 5-3l5 3zm-35 44c5 4 5 6-1 9-4 3-7 2-10-2l-2-4 3-4c3-5 3-5 10 1z"/></svg>