<svg xmlns="http://www.w3.org/2000/svg" width="372.439" height="368.323" version="1.0" viewBox="0 0 279.329 276.242"><path d="M131.794 54.751c-6.67.376-12.949 4.466-16.055 10.37-3.032 5.525-3.016 12.579.073 18.08 3.12 5.807 9.488 9.67 16.08 9.762 7.02.218 13.924-3.763 17.38-9.855 2.727-4.663 3.309-10.507 1.538-15.612-2.012-6.061-7.327-10.872-13.562-12.262-1.782-.438-3.624-.562-5.454-.483zm75.536-18.509c-8.295.04-16.436 2.335-23.97 5.695-4.849 1.884-9.78 4.215-13.136 8.336-4.187 4.944-5.609 12.06-3.574 18.219 1.675 5.419 5.903 9.815 11.003 12.182 1.01.57 2.252.729 3.022 1.656 4.851 4.225 11.277 6.707 17.74 6.457 6.9-.025 13.56-2.87 18.917-7.11 6.027-4.823 10.628-11.758 11.736-19.484.744-5.594-.304-11.5-3.438-16.248-2.098-3.334-4.961-6.28-8.592-7.914-3.014-1.47-6.385-1.913-9.708-1.789zM160.1 56.832c-4.42.265-8.684 1.913-12.415 4.244-5.032 3.222-8.437 8.871-8.794 14.85-.534 6.705 2.76 13.589 8.422 17.258 4.009 2.729 9.045 3.6 13.807 2.994 4.816-.476 9.32-2.808 12.737-6.194 4.747-4.47 7.02-11.402 5.728-17.804-1.177-6.738-6.372-12.563-12.927-14.511-2.113-.684-4.345-.91-6.558-.836zM69.842 210.416c-13.64 1.295-24.885 16.99-18.79 30.055 4.324 11.078 19.548 15.075 28.924 7.879 8.447-5.734 13.923-17.404 8.876-27.09-3.135-7.168-11.274-11.61-19.01-10.844zm-19.531-17.957c-9.87.942-17.715 10.422-16.955 20.277.402 14.191 17.623 24.297 30.254 18.028 9.676-4.494 13.627-17.528 8.326-26.733-4.103-7.604-13.196-12.098-21.625-11.572zm-7.5 19.132c-16.903 1.96-28.518 24.438-18.007 38.764 6.604 13.622 25.437 17.068 36.922 7.569 11.926-6.759 15.216-24.442 5.085-34.236-6.249-6.482-14.384-13.107-24-12.097ZM208.052 9.454c-20.769-.267-40.221 8.439-57.017 20.018-13.879 6.723-29.551 24.157-19.955 40.06 9.556 7.076-11.744 6.102-14.722 14.464-8.256 8.354-13.335 18.36-23.568 24.782-9.579 10.987-23.087 26.154-13.795 41.328 7.833 10.323 15.93 21.905 29.013 25.735 9.648 10.535 22.425 23.661 39.3 20.64 23.17-1.36 38.034-21.668 53-36.897 11.33-13.32 22.99-26.49 33.956-40.027 7.336-21.74 21.856-41.592 23.21-65.068-.543-25.504-23.813-47.122-49.422-45.035Zm.947 45.455c7.205 6.644-11.224 23.27-18.173 10.627-8.284-2.325-8.776-3.087-.103-6.397 5.719-2.624 11.926-4.479 18.276-4.23zm-49.373 22.643c-7.949.974 7.112-5.104 0 0zM139.736.032c-13.178-.75-20.943 11.878-23.82 22.99-10.322 1.688-22.728-4.145-31.627 5.089-6.136 7.853-9.328 12.805-18.733 5.347-11.491-6.216-28.09-.466-30.334 13.195-4.983 12.377 16.365 26.2-1.867 31.782-14.43 7.888-3.357 26.395-10.044 35.075C11.679 115.887-.75 124.315.04 137.577c-.892 13.806 12.878 20.145 24.257 22.546 4.178 7.932-3.147 23.716 8.096 31.543 9.883 5.189 13.451 16.996 24.15 21.063 14.867 4.443 26.512-9.125 36.613-17.752 2.494-13.872 20.383-20.613 15.17-36.845-5.034-11.346-20.206-18.858-17.323-33.354 6.99-15.59 20.208-27.315 31.147-40.136 10.89-11.67 22.093-23.11 31.759-35.844 13.72-5.935 12.917-23.96 5.528-34.616-2.775-8.379-10.726-14.554-19.702-14.15Zm19.793 15.205.404 2.457zm73.497 89.927c-15.604.033-23.28 16.091-32.737 25.911-13.723 15.902-26.909 33.131-44.765 44.593-15.629 8.977-26.44-5.205-35.59-15.101-12.234-6.607-24.775 2.598-35.048 8.335-5.96 10.547-9.631 20.705-21.238 27.29-13.278 11.463-4.56 35.516 12.514 36.989 4.787 14.044 21.853 19.754 35.108 14.7 9.575 6.276 7.277 27.231 23.728 27.844 13.942 3.272 24.307-9.564 26.833-21.892 3.146-12.697 21.416.638 29.256-10.002 6.653-7.882 12.028-13.734 21.564-5.327 10.742 6.362 27.437 4.382 31.904-8.729 8.304-12.162-13.375-26.56-4.304-34.349 14.133-7.168 9.655-24.435 12.322-35.075 12.138-2.454 27.343-9.36 26.739-24.024.098-16.4-17.473-20.774-29.946-24.772-4.952-3.195-10.013-6.95-16.34-6.39zm20.248 17.39.052.64zm-122.986 54.322-.003.068zm97.367 23.17-.103.003z" style="fill:#fff;stroke-width:.109328"/><path d="M134.76 25.812c-4 12.1-4.7 13.5-6.9 13.8-1.3.1-6.6 1.2-11.7 2.3-8.6 1.9-9.5 1.9-11.1.5-4.3-3.9-12.1-.5-12.1 5.1 0 2.4-1.2 3.6-7.4 7.6l-7.4 4.8-14.1-7.1-14.1-7 7 14 7 13.9-5.6 8.3c-4.5 6.6-6.1 8.2-7.8 8-1.2-.2-3.4.7-4.9 1.8-3.3 2.7-3.8 8.7-.8 11.4 1.8 1.6 1.8 1.8 0 8.8-1.1 4-1.9 8.3-1.9 9.7 0 1.4-.4 3.2-.8 3.9-.5.7-7.3 3.4-15.2 6-7.9 2.7-14 5.1-13.4 5.4.5.3 6.8 2.5 13.9 4.8 7.2 2.3 13.6 4.7 14.3 5.3.6.5 1.2 2.1 1.3 3.6 0 1.4.8 5.7 1.8 9.6 1.5 5.7 1.6 7.1.5 8.2-4.6 4.7-.7 13.3 6.1 13.3.7 0 3.6 3.5 6.5 7.7 5.8 8.9 5.8 11.1-.5 13.7-10.9 4.6-15.3 10.6-14.1 19 .6 3.5.3 4.5-1.5 6.2-2.8 2.5-4.9 6.7-4.9 9.7 0 2.7 4.3 8.9 6.8 9.8 2.4.9 11.1-3.7 12.4-6.5.7-1.6 2.2-2.6 4.3-3 1.8-.4 5.3-2.2 7.7-4 3.5-2.7 5.1-5 7.6-10.8 1.7-4 3.2-8 3.4-8.9.2-1.2 1.7-.6 7 2.8 5.8 3.7 6.8 4.8 6.8 7.3 0 5.9 8.1 8.8 12.9 4.6 1.4-1.2 2.9-1.1 10.1.6 4.7 1.1 9.5 2.2 10.7 2.4 1.8.3 2.9 2.7 6.9 14.6 2.5 7.9 4.9 14.7 5.2 15.3.3.5 2.9-6.1 5.7-14.5l5.2-15.5 4.4-.6c2.4-.4 6.9-1.3 10-2.2 4.7-1.2 6-1.2 8-.1 1.3.7 3.4 1.3 4.7 1.4 2.7 0 7.2-4.2 7.2-6.8 0-1.2 2.8-3.7 7.8-7.1l7.7-5.3 15.2 7.6 15.3 7.6-7.6-15.3-7.6-15.2 4.8-7.3c2.6-3.9 5.3-7.2 6-7.2 2.8 0 6.3-2.4 7.5-5.2 1-2.4.9-3.5-.5-6.6-1.5-3.5-1.5-4.3.4-13.1 1-5.2 2.4-9.7 3-10.1.7-.4 7.4-2.7 15.1-5.1 7.6-2.4 13.9-4.6 13.9-4.9 0-.3-6.7-2.8-15-5.5-13.1-4.3-15-5.2-15-7.1 0-1.1.9-2.9 1.9-3.8 2.6-2.4 3.8-7.6 2-8.8-.8-.4-2.6-.6-4-.4-2.2.4-2.7 0-3.6-2.8-.8-2.7-.7-3.7.8-5.5 2.5-3 2.4-7.2-.2-10.5l-2.1-2.6 4.1-9.4c6-14 7.4-19.8 6.9-27.7-.9-11.7-8.6-21.8-19.6-25.7-7-2.4-14.2-2.5-25.2-.2-11.6 2.3-18.4 5.1-27.6 11.1l-6.1 3.9-7.1-1.2c-7.6-1.3-9.3-3-7-7.1.9-1.7.6-2.4-1.4-4.2-1.5-1.3-3.5-5.1-5-9.6l-2.5-7.4zm86.6 4.1c9.9 3.6 17.6 14.9 17.6 25.7 0 5.5-5.8 21.3-13.7 37.4-7.3 15-8.2 18.3-6.3 23.4 1 2.4 1.4 2.6 5.1 2.1 2.2-.3 5.8-1.7 8-3.2 4.2-2.7 6.2-2.6 5.2.3-.4.9-3.4 4.6-6.7 8.2-3.4 3.6-12.1 14-19.5 23-22 26.9-38.3 42-51.3 47.3-4.2 1.7-7.4 2.2-15.3 2.2-8.9 0-10.7-.3-16.2-2.9-6.8-3.1-16.3-12.1-16.3-15.4 0-1.1 1.4-2.6 3.5-3.8l3.5-1.8 3.2 3.5c1.8 1.9 6.1 5.2 9.4 7.2 4.9 3 7.2 3.7 11.2 3.7 15.3 0 33.2-13.6 54.8-41.5 11.7-15 13.7-18 13.2-19.5-.1-.5-2.5 1.8-5.1 5.3-17.3 22.5-24.7 30.7-35.3 39.3-9.4 7.7-17 11.5-24.4 12.1-4.8.5-6.7.1-12-2.3-6.7-3-13.1-8.9-16.3-15-.9-1.9-2-3.4-2.3-3.4-.7 0 0 4.7 1 7.2.6 1.2-.7 2.6-5.4 5.8-3.3 2.2-6.6 5-7.3 6.1-1.5 2.5-4.4 2.4-5.2-.1-.4-1.1-2.2-2.7-4.1-3.5-1.9-.8-3.4-1.8-3.4-2.3 0-.5 1.5-3.4 3.3-6.5 1.7-3 4-6.9 5-8.7 1.6-2.9 2-3.2 5-2.5 1.7.4 4.2.8 5.4 1 1.2.1 2.9.8 3.9 1.5 1.4 1.3 1.6 1.2 1.3-.4-.3-1.4-2.1-2.4-6.4-3.6-7.7-2.1-13.3-5-16.8-8.8-3.3-3.5-2.8-5.6 2.4-9.2 1.6-1.2 4-4.5 5.3-7.4 2.2-5 8-10.8 16.6-16.6 4.6-3.1 7-6 7-8.7 0-1.3 2.3-4.2 6.1-7.7 5-4.5 6.5-5.3 8-4.6 2.2 1.2 3.3 4.3 2.4 7-1.1 3.4 2.1 3.5 6.2.2 7.6-5.9 8.1-5.9 12.3-1.3 2.1 2.3 4 4.1 4.2 4.1.3 0 4.6-5 9.8-11.1l9.3-11 2.3 2.2c1.3 1.2 3.5 3.9 5 6.1 3.1 4.4 2.2 4.5 16.8-1.3 5.4-2.1 10.2-3.9 10.7-3.9 1.9 0 .7 3.3-5 14.2-6.6 12.8-7.6 16.2-5.7 19.7 1.2 2.2 1.3 1.9 1.9-3.9.4-5.3 2-9.2 10.7-26.6 11.5-23 13.1-28.8 11.1-37.8-2.9-12.9-18.4-16.9-39-10-8.1 2.7-15.1 6.3-28.9 15-10.2 6.4-14 6.9-18.5 2.6l-2.9-2.7-13.4 13.8c-30.4 31.3-42.4 48.6-42.4 61.2 0 11.4 2.7 16.6 12.4 24l2.6 2-2 4.4c-1.8 3.9-2.3 4.3-4.7 3.7-7.5-1.7-19.1-20.2-20-31.9-1.3-15.3 4.3-24.4 36.7-59.7 5.8-6.3 12.8-13.7 15.6-16.5 2.9-2.7 7.6-8.4 10.6-12.5 5.7-7.7 9.4-11.7 10.3-10.8.3.2-.2 2.6-1.1 5.2-1.9 5.5-.8 9.5 3.2 11.7 3.4 1.8 7.4.3 19-7.1 12.6-8 14.4-8.9 24.8-11.5 11.8-3.1 22.5-3.2 30-.4zm-2.6 10.8c6.7 3.5 8.6 6.4 9 13.9.3 6.3 0 7.3-4.7 17.2-4.5 9.2-5.4 10.5-7.8 10.8-1.6.2-6.7 1.7-11.4 3.3-4.8 1.6-9.3 2.9-10.1 2.9-.8 0-3.4-2.3-5.7-5-4.3-5.1-7.1-6.2-10.1-3.7-.8.7-3.9 4-6.9 7.5-6.9 8-8.6 9-11.4 6.4-3.5-3.1-5.3-3.2-8.8-.6-1.8 1.3-3.8 2.4-4.5 2.4-.6 0-3.2-1.6-5.8-3.5l-4.6-3.6-4.4 3c-4.3 3-4.3 3-9.7 1.6-3-.8-6.9-1.5-8.6-1.5-1.8 0-3.3-.4-3.3-.8 0-.8 29.8-33.2 30.6-33.2.2 0 2.2 1 4.4 2.1 4.1 2.2 4.2 2.2 10.2.3 3.3-1 11.5-4.9 18.2-8.7 14.7-8.4 19.3-10.5 27.1-12.3 7.2-1.6 13.2-1.1 18.3 1.5zm-101.6 54.1h4.1l-.8 3.7c-.4 2.1-.6 5-.6 6.4.1 3-2.7 5.9-8.9 9-8.1 4-10.8 6.5-11.5 10.8-.5 3-1.7 4.8-5.5 8-5.3 4.5-6.5 4.9-7.4 2.5-3.1-8.2 4.1-23.8 17.7-38.1 3.4-3.6 4.3-4 6.4-3.2 1.3.5 4.3.9 6.5.9zm-25.9 84.1c5 2.6 6.7 5.1 6.7 9.9 0 2.6-.7 5.4-1.5 6.6-1.6 1.9-1.6 1.9-2.8-.1-1.8-2.9-7.8-8.4-10.9-10.1-1.6-.8-2.8-2.1-2.8-2.9 0-1.6 4.6-4.4 7.3-4.5 1 0 2.8.5 4 1.1zm-5.5 11.2c1.3 1.2 3.3 3.4 4.3 4.9l2 2.7-3.2 1.7c-1.8.9-5.4 3.6-8 6.1-3.1 2.9-5.4 4.3-6.4 3.9-1.1-.4-.9.3.6 2.4l2.2 2.9-3.4 7.7c-2.9 6.5-4.1 8.2-7.8 10.6-5.7 3.6-10 3.6-14.1.2-4.3-3.6-6-7.4-6-13.2 0-3.5.6-5.7 2.1-7.6 2.1-2.7 14.6-9.6 17.3-9.6.8 0 1.8-.9 2.1-2 .3-1.1 2.1-3.1 3.9-4.5 1.8-1.4 4.1-4.3 5.1-6.4 1.6-3.7 1.9-3.9 4.4-3 1.4.6 3.7 2 4.9 3.2zm-34.7 44c4.9 4.2 4.8 5.5-1 9.4-4.1 2.8-6.9 1.9-9.6-2.9l-1.9-3.6 2.7-4.1c3.1-4.6 3-4.6 9.8 1.2z"/></svg>