<svg xmlns="http://www.w3.org/2000/svg" width="400" height="300" version="1.0" viewBox="0 0 300 225"><path d="M331-1a43 43 0 0 0-30 12l-70 68-31 30-53-52-21-22a36 36 0 0 0-21-28 39 39 0 0 0-27-1 36 36 0 0 0-22 38c1 11 9 21 19 27a30 30 0 0 0 17 3l70 70c1 3-1 6-4 8-30 29-59 60-90 89-3 1-6-2-8-3a29 29 0 0 1-11-14l60-62c6-7 9-17 4-25-4-11-16-19-28-16-11 3-18 12-26 19L8 193a46 46 0 0 0-9 34 71 71 0 0 0 23 45 66 66 0 0 0 51 20c9-1 19-2 26-9 33-33 66-67 100-99 3-2 5 3 7 5l71 70a35 35 0 0 0 24 35c15 5 33-1 41-15 10-15 5-38-10-48a37 37 0 0 0-15-5c-19-17-36-35-54-53l-26-27a5227 5227 0 0 1 85-85c4-4 7-8 12-11 7 3 15 9 16 18-19 21-40 40-59 62-6 7-9 17-4 26 5 11 18 19 30 14 10-4 16-12 24-19 17-17 35-34 51-53a49 49 0 0 0 9-34c-1-18-12-34-25-47a73 73 0 0 0-35-17 61 61 0 0 0-10-1z" style="fill:#fff;stroke-width:.524934" transform="scale(.75)"/><path d="M239 16c-3 1-15 13-44 43-34 34-40 40-42 39l-6-1c-3 0-5-1-35-32-32-32-32-32-32-36 0-3-1-5-3-8-3-2-5-3-9-3s-5 1-8 3c-3 3-3 5-3 9s1 5 4 8 3 3 9 3l5-1 31 31 30 31v7l1 8-39 38a1083 1083 0 0 1-41 40c-3 2-10 1-16-2-13-6-22-23-18-31l25-27a286 286 0 0 0 24-25c0-2-3-5-5-5s-49 47-51 52c-10 21 17 52 41 47l6-1 41-41c39-39 42-42 46-42l4-1 35 35 35 35-1 4c-2 7 3 14 12 14 8 0 14-9 9-17-2-4-5-6-9-6s-5-1-40-36c-31-31-36-36-36-39 0-2 5-8 42-44 46-46 44-45 54-42a40 40 0 0 1 17 13c5 7 7 16 5 21l-25 26a286 286 0 0 0-24 26c0 2 3 5 5 5s48-47 51-51c5-11 2-24-9-36-10-11-25-16-36-11z"/></svg>