<svg xmlns="http://www.w3.org/2000/svg" width="400" height="300" version="1.0" viewBox="0 0 300 225"><path d="M331.135-.837c-11.14-.114-22.532 3.406-30.58 11.358-23.947 22.238-46.622 45.803-69.96 68.673-10.139 10.025-20.28 20.049-30.543 29.946-18.048-16.822-35.308-34.647-52.947-52.18-7.008-7.188-14.281-14.216-20.847-21.777-1.123-12.39-10.074-23.099-21.049-28.344-8.424-3.31-18.206-3.37-26.738-.412-14.372 5.87-24.288 21.607-22.079 37.187.986 11.459 9.023 21.083 18.395 27.084 5.307 3.106 11.622 3.991 17.68 3.482l69.563 69.547c.926 3.484-1.06 5.788-3.648 7.847-30.126 29.77-59.673 60.008-90.355 89.213-2.647 1.102-5.666-1.463-7.98-2.789-4.722-3.456-8.673-8.238-10.512-13.843 19.54-20.91 40.323-40.663 59.267-62.124 6.312-6.71 8.88-17.105 4.547-25.544-4.76-10.351-16.376-18.285-28.002-15.35-10.818 2.644-17.921 12.02-25.846 19.125-17.452 17.381-35.062 34.67-51.286 53.218C.28 202.652-2.12 215.186-1.232 227c.928 17.445 10.602 33.384 22.866 45.35 13.498 13.01 32.189 21.648 51.21 19.76 9.062-1.054 19.345-1.838 25.747-9.165 33.612-33.124 66.8-66.632 100.714-99.352 2.377-1.796 4.636 3.707 6.963 4.985l70.479 70.048c-1.404 15.575 9.533 30.649 24.324 35.15 14.949 5.202 33.173-.65 41.303-14.478 9.754-15.379 4.961-37.663-10.103-47.822-4.587-3.226-10.118-4.806-15.562-5.684-18.374-16.922-35.62-35.03-53.35-52.619-8.913-8.994-17.827-17.989-26.644-27.077a5226.884 5226.884 0 0 1 84.979-84.962c3.96-3.633 7.829-7.76 12.109-10.798 7.5 3.212 14.733 9.105 16.611 17.403-19.307 21.111-40.245 40.695-59.158 62.165-6.457 6.907-9.032 17.644-4.407 26.234 5.252 10.629 18.094 18.57 29.937 14.234 9.775-3.988 16.618-12.53 24.303-19.418 17.274-17.172 34.847-34.12 50.85-52.5 7.513-9.703 10.406-22.333 9.268-34.436-1.132-18.18-11.903-34.393-24.886-46.54-9.884-8.953-22.382-15.19-35.503-17.595a60.463 60.463 0 0 0-9.683-.719z" style="fill:#fff;stroke-width:.524934" transform="scale(.75)"/><path d="M239.1 16c-3.1 1.4-15.3 13.2-44.3 42.5C160.6 93.1 154.5 98.8 153 98c-1-.6-3.6-1-5.7-1-3.8 0-4.9-1-35.6-31.8C80.1 33.4 80 33.3 80 29.1c0-3.6-.6-4.9-3.4-7.7-2.9-2.9-4.1-3.4-8.1-3.4s-5.2.5-8.1 3.4c-2.9 2.9-3.4 4.1-3.4 8.1s.5 5.2 3.5 8.2c3.4 3.4 3.8 3.5 9 3.1l5.4-.5L105.5 71l30.7 30.7.2 7.6.2 7.6-38.5 38.4c-21.2 21.2-39.6 39-40.8 39.6-3.6 1.8-10.4 1.3-16-1.4-13-6-22.7-23-18.2-31.8.6-1.2 11.9-13 25-26.2C61.3 122.2 72 110.7 72 109.8c0-2.1-2.7-4.8-4.8-4.8-2.6 0-48.9 46.8-51.4 51.9-10.3 21.3 16.8 52.5 41 47.1l5.7-1.2 41.5-41.3c38.7-38.5 41.8-41.3 45.5-41.8l4-.5 35.1 35 35.1 35-1 3.7c-2 7.4 3.7 14.1 12 14.1 8.6 0 13.9-9.1 9.8-17-2.1-4.1-5.3-6-10-6-3.9 0-4.6-.6-39.8-35.8-31.1-31.1-35.7-36.1-35.7-38.7 0-2.7 5.2-8.2 41.8-44.7 46.1-45.9 43.9-44.3 53.9-41.3 5.6 1.7 13.8 7.6 17.2 12.4 5.5 7.6 7.5 16.5 5 21.4-.6 1.2-11.9 13-25 26.2-13.2 13.3-23.9 24.8-23.9 25.7 0 2.1 2.7 4.8 4.8 4.8 2.2 0 48.4-46.5 50.8-51 5.7-11.2 2.7-24.1-8.3-36.1-10.4-11.2-25.7-15.8-36.2-10.9z"/></svg>