<svg xmlns="http://www.w3.org/2000/svg" width="300" height="211" version="1.0" viewBox="0 0 225 158"><path d="M97 57c-6 2-9 8-8 13 0 8-1 16 1 24 2 6 8 8 14 8 8 0 17 1 25-1 6-2 8-8 7-13V64c-2-6-8-9-14-8-8 0-17-1-25 1z" style="fill:#fff;stroke:#b00;stroke-width:0;paint-order:stroke fill markers"/><path d="M110 19c-15 0-29 6-40 17a3652 3652 0 0 0-56 51c-4 6-7 14-10 21-2 4-5 11 0 15s10-1 15-2l21-8 15-14c7 20 26 36 47 39a63 63 0 0 0 46-9l50-45c5-5 11-8 14-14l12-27c1-6-5-10-10-8l-28 10-15 14a63 63 0 0 0-34-36 70 70 0 0 0-27-4zm4 38c10 0 19 7 21 17 3 9-2 19-11 24-11 7-28 1-33-12-3-8-1-17 6-23a23 23 0 0 1 17-6z" style="fill:#fff;stroke:#b00;stroke-width:0;paint-order:stroke fill markers"/><g style="stroke-width:1.34037"><path d="M1315 1506c-97-18-208-67-282-124-34-26-232-207-440-403L215 623l-52-114-87-191-35-77 48 18 197 77 149 57 148 140c81 77 149 138 151 136s8-25 15-52a728 728 0 0 1 1118-428c38 27 179 152 313 277l374 350 129 121 88 192c49 106 83 191 76 188l-197-76-185-72-139-130c-76-71-141-129-145-129s-13 27-19 60c-7 32-34 101-59 152-38 77-62 109-137 183a664 664 0 0 1-481 210c-61 3-127-1-170-9zm205-327a396 396 0 0 0 268-601 395 395 0 0 0-683 32 396 396 0 0 0 269 565c77 17 70 17 146 4z" style="stroke-width:1.34037" transform="matrix(.0758 0 0 -.07344 3 137)"/><path d="M1290 790V630h330v320h-330z" style="stroke-width:1.34037" transform="matrix(.0758 0 0 -.07344 3 137)"/></g></svg>