<svg xmlns="http://www.w3.org/2000/svg" width="300" height="158pt" version="1.0" viewBox="0 0 225 158"><path d="M96.535 56.702c-5.57 2.01-8.286 8.092-7.54 13.74.33 7.773-.728 15.763.936 23.399 1.83 5.941 8.304 8.506 14.09 8.017 8.288-.098 16.685.76 24.888-.522 5.57-2.01 8.286-8.091 7.54-13.74-.313-7.985.69-16.082-.63-23.984-2.01-5.57-8.092-8.286-13.74-7.54-8.49.316-17.145-.693-25.544.63z" style="fill:#fff;stroke:#b00;stroke-width:0;paint-order:stroke fill markers"/><path d="M109.869 19.075c-14.704-.068-28.942 6.373-39.511 16.428-19.004 16.78-37.743 33.9-56.382 51.062-4.079 6.564-6.824 13.94-10.175 20.921-2.108 4.671-4.98 11.241-.2 15.317 4.868 3.91 10.71-.34 15.7-1.705 6.791-2.752 14.017-4.624 20.453-8.115 5.013-4.53 10.017-9.07 15.057-13.57 7.36 20.04 26.024 35.087 47.036 38.517 15.656 2.925 32.476-.665 45.723-9.45 17.691-13.922 33.923-29.59 50.732-44.544 4.45-4.605 10.304-8.065 13.675-13.569 4.235-9.074 9.084-17.956 12.35-27.426 1.085-5.82-5.553-9.923-10.65-7.804-9.321 2.917-18.5 6.445-27.506 10.157-5.388 4.018-10.097 8.945-15.248 13.287-5.747-15.983-18.949-28.777-34.4-35.448-8.436-3.386-17.647-4.136-26.654-4.058zm3.623 37.393c10.105.318 19.64 7.563 21.774 17.602 2.704 9.29-2.616 19.382-10.858 23.903-11.626 7.019-28.866 1.407-33.345-11.611-2.751-8.03-.921-17.612 5.667-23.26 4.298-4.469 10.655-6.62 16.762-6.634z" style="fill:#fff;stroke:#b00;stroke-width:0;paint-order:stroke fill markers"/><g style="stroke-width:1.34037"><path d="M1315 1506c-97-18-208-67-282-124-34-26-232-207-440-403L215 623l-52-114c-28-63-68-149-87-191l-35-77 48 18c26 11 115 45 197 77l149 57 148 140c81 77 149 138 151 136s8-25 15-52c63-260 266-466 523-532 202-53 428-13 595 104 38 27 179 152 313 277 135 126 303 283 374 350l129 121 88 192c49 106 83 191 76 188-7-2-95-37-197-76l-185-72-139-130c-76-71-141-129-145-129s-13 27-19 60c-7 32-34 101-59 152-38 77-62 109-137 183-141 140-280 201-481 210-61 3-127-1-170-9zm205-327c276-45 419-364 268-601-162-255-546-237-683 32-77 154-48 338 73 459 59 59 113 88 196 106 77 17 70 17 146 4z" style="stroke-width:1.34037" transform="matrix(.0758 0 0 -.07344 3.238 136.94)"/><path d="M1290 790V630h330v320h-330z" style="stroke-width:1.34037" transform="matrix(.0758 0 0 -.07344 3.238 136.94)"/></g></svg>