<?xml version="1.0" encoding="UTF-8" standalone="no"?>
<svg
   xmlns:dc="http://purl.org/dc/elements/1.1/"
   xmlns:cc="http://creativecommons.org/ns#"
   xmlns:rdf="http://www.w3.org/1999/02/22-rdf-syntax-ns#"
   xmlns:svg="http://www.w3.org/2000/svg"
   xmlns="http://www.w3.org/2000/svg"
   xmlns:sodipodi="http://sodipodi.sourceforge.net/DTD/sodipodi-0.dtd"
   xmlns:inkscape="http://www.inkscape.org/namespaces/inkscape"
   width="745"
   height="449"
   version="1.0"
   viewBox="0 0 559 336"
   id="svg8"
   sodipodi:docname="nagaraja.svg"
   inkscape:version="1.0.1 (3bc2e813f5, 2020-09-07)">
  <metadata
     id="metadata14">
    <rdf:RDF>
      <cc:Work
         rdf:about="">
        <dc:format>image/svg+xml</dc:format>
        <dc:type
           rdf:resource="http://purl.org/dc/dcmitype/StillImage" />
      </cc:Work>
    </rdf:RDF>
  </metadata>
  <defs
     id="defs12" />
  <sodipodi:namedview
     pagecolor="#ffffff"
     bordercolor="#666666"
     borderopacity="1"
     objecttolerance="10"
     gridtolerance="10"
     guidetolerance="10"
     inkscape:pageopacity="0"
     inkscape:pageshadow="2"
     inkscape:window-width="1600"
     inkscape:window-height="837"
     id="namedview10"
     showgrid="false"
     inkscape:zoom="1.4872483"
     inkscape:cx="372.5"
     inkscape:cy="224.5"
     inkscape:window-x="-8"
     inkscape:window-y="-8"
     inkscape:window-maximized="1"
     inkscape:current-layer="svg8" />
  <path
     style="fill:#ffffff;stroke:#bb0000;stroke-width:0;paint-order:stroke fill markers"
     d="m 355.79024,250.63231 c -10.61767,1.11924 -21.38397,3.4863 -31.02284,8.17759 -8.83229,5.623 -17.2738,12.87032 -20.97388,23.00022 -4.56352,11.12254 -4.46934,23.47644 -7.34893,34.94551 -5.17874,8.88815 -4.0185,19.60026 -6.44444,29.30901 -3.65184,22.12001 -8.40252,44.05135 -12.42693,66.25863 -2.23568,13.97883 8.05804,28.42477 22.17944,30.37804 15.50002,1.46925 31.15597,0.60757 46.7174,0.98386 22.32449,-0.0823 44.68362,0.39907 66.98618,-0.0961 13.42079,-0.60456 24.05826,-13.56223 23.04225,-26.7876 -1.3125,-19.86318 -7.69267,-38.95195 -10.83824,-58.5485 -3.82917,-19.13148 -9.02765,-38.01272 -11.42034,-57.39677 -1.57621,-10.49814 -5.62686,-20.50513 -11.23186,-29.44566 -8.22427,-11.65935 -22.31265,-16.48522 -35.67962,-19.31524 -3.78647,-0.84777 -7.63904,-1.59316 -11.53819,-1.46296 z m -26.76136,9.59196 c 1.62704,-0.27365 1.17416,-0.11453 0,0 z m -20.33169,45.82183 c 1.7909,-0.79887 2.40468,-0.94639 0,0 z"
     id="path843"
     transform="matrix(0.75033557,0,0,0.75033557,0,-0.45033557)" />
  <path
     style="fill:#ffffff;stroke:#bb0000;stroke-width:0;paint-order:stroke fill markers"
     d="M 350.50573,5.3978029 C 288.00041,5.9429082 225.04765,10.592011 164.31455,26.103672 152.03213,30.135775 138.55244,31.679536 127.72119,39.221803 108.85765,45.403702 91.450512,56.090469 76.93266,69.58277 58.550429,87.137441 52.255612,116.8611 64.399026,139.64058 c 5.894148,12.31835 15.720011,22.37273 27.390333,29.33134 5.668307,2.15192 0.06354,3.36389 -2.119782,5.73346 -8.576759,7.00472 -10.644805,19.18775 -7.604747,29.43272 2.705732,16.6608 -2.233522,33.0778 -4.031669,49.52387 -1.146354,10.02845 1.047939,21.19047 9.556484,27.54615 9.480009,7.42073 22.044255,4.98809 33.218615,5.05391 20.87339,-1.39126 41.33811,-3.55454 62.24923,-5.12298 -11.8385,7.72345 -25.37874,12.78071 -36.19572,22.01265 -5.16929,2.79481 -10.96128,4.5719 -15.28357,8.81714 -8.70429,4.97236 -18.46697,7.93981 -27.02795,13.11541 -6.39496,6.19896 -15.781671,7.23469 -22.379047,13.12328 -9.851928,6.78701 -20.486638,12.43827 -30.364906,19.22856 -12.847853,7.86812 -25.502928,16.71254 -35.258793,28.31576 -4.55588,6.28719 -8.6258807,12.92655 -12.8148086,19.45937 -7.41063,12.32591 -3.82918097,30.28479 9.0533566,37.43913 7.964769,5.37117 17.70997,3.16488 26.60126,2.74261 47.764651,-1.44979 95.666068,-1.05474 143.616438,-1.96037 10.21381,-0.2319 17.80387,-7.93319 23.15179,-15.8873 4.40176,-6.23604 9.65038,-11.71582 15.29868,-16.7966 4.27001,-4.05176 5.75217,-10.26711 10.83955,-13.45291 5.46664,-4.8014 8.43816,-11.54025 13.52962,-16.67658 4.91495,-5.9424 8.3346,-13.32038 15.13448,-17.41378 5.77241,-5.08164 8.05811,-12.84116 13.96785,-17.83675 7.44183,-8.77788 16.14604,-17.88542 16.98441,-29.98437 2.10462,-10.47041 2.51403,-21.53706 7.70202,-31.11841 2.65009,-5.51214 8.09737,-9.21452 12.22633,-13.65908 3.15253,-4.09686 8.8456,-2.67302 13.00008,-5.10189 6.26615,-3.96156 14.04479,-2.72823 21.13025,-3.63078 13.5087,-0.87496 27.49315,-1.43344 40.53172,2.64576 4.29212,2.21826 9.32519,2.85264 12.62293,6.62665 5.19458,2.98647 10.11157,6.69945 12.72143,12.25654 3.39154,7.04346 4.45552,15.15784 5.58393,22.88202 0.008,8.64109 2.29153,17.17252 7.71467,24.02696 6.83283,10.63745 14.33573,20.93507 23.46576,29.71375 8.20967,11.41588 15.74006,23.31889 24.75719,34.14618 3.21951,4.90883 7.42685,9.07705 11.58037,13.09396 4.9613,7.22452 10.8481,13.76659 15.5239,21.21025 5.66401,8.74129 16.11426,12.78221 26.24262,12.56646 41.20613,2.13073 82.49738,0.512 123.7079,2.30345 22.91668,1.36715 46.65846,4.5792 70.07224,2.41505 14.35133,-1.64409 26.29722,-16.03738 23.32031,-30.54198 -1.93384,-11.93701 -12.54188,-19.37767 -19.96855,-27.97926 -6.85911,-6.95053 -13.4806,-14.48264 -22.37676,-18.83166 -6.28329,-3.16339 -10.80829,-8.91313 -17.4872,-11.40029 -8.07962,-5.13741 -16.26672,-10.15715 -24.69824,-14.71363 -8.15486,-4.85021 -15.91804,-10.37496 -24.53278,-14.45623 -6.68214,-4.62278 -14.12441,-7.78583 -21.43088,-11.23614 -10.43573,-5.56855 -20.16643,-12.43465 -30.69322,-17.79319 -7.8015,-7.25424 -18.25474,-10.62673 -26.45268,-17.40174 -2.05526,-1.82322 -9.65439,-5.85092 -3.03405,-4.79535 14.75786,0.0932 29.49623,0.86094 44.09333,3.10997 18.52216,1.94044 37.01615,4.68576 55.60483,5.68868 13.83874,-0.135 25.28705,-12.88977 24.98325,-26.54792 0.53869,-7.37698 -2.06916,-14.63766 -1.92046,-21.87411 1.55112,-10.11787 2.69898,-20.89168 8.33699,-29.98603 5.91304,-10.57746 3.82397,-25.0208 -5.84502,-32.6707 -10.09535,-8.39374 -23.98882,-5.74122 -36.06471,-5.70878 -7.85698,0.33539 -15.70807,0.81918 -23.54515,1.47198 9.80595,-7.44847 19.85815,-14.79661 27.69085,-24.45392 4.22192,-5.37405 8.62709,-10.71949 11.83658,-16.74922 1.72932,-6.52228 4.33047,-12.97501 4.80857,-19.7359 C 662.61615,98.166948 657.99006,87.65246 652.47384,78.248889 645.86304,66.671002 635.04034,58.281448 623.11488,52.676023 613.31367,47.382646 603.00808,42.897724 592.9903,38.196157 582.06624,30.837796 568.45744,30.135532 556.28372,25.885776 506.25212,14.183014 454.94793,8.7743903 403.68454,6.4565151 385.96717,5.7632207 368.23818,5.2865518 350.50573,5.3978029 Z m 7.5039,88.3920561 c 23.31195,1.447589 46.78392,2.368493 69.8128,6.524871 11.12415,2.8116 22.95206,3.77138 33.35329,8.87427 -4.33821,2.16597 -7.72674,5.82987 -11.81792,8.26426 -20.95589,9.94854 -43.246,15.87928 -65.06058,23.29396 -6.86528,2.02732 -13.41057,4.5922 -20.12321,6.05844 -23.88988,-7.14245 -48.52106,-11.69338 -72.29817,-19.1436 -11.64495,-3.45774 -23.89748,-6.48405 -33.57715,-14.15248 -1.66236,-1.53941 -6.37124,-2.87845 -6.75009,-4.19451 14.15937,-5.15555 28.31021,-9.10869 43.42567,-10.778453 21.0531,-2.378796 41.84836,-4.242277 63.03536,-4.746758 z M 253.92427,119.23009 c 0.28127,1.9596 -0.44953,-2.40156 0,0 z m 406.32137,1.94492 c -0.19237,1.48391 0.2503,-2.46122 0,0 z m -213.27138,0.85886 c 0.0351,-0.0999 0.40252,-0.58279 0,0 z m 204.02481,16.57318 c -3.33173,2.50844 -0.68207,0.51626 0,0 z m -8.83422,4.89448 c -5.0572,1.02962 -4.79069,0.88966 0,0 z m -14.90799,18.99218 c -1.36199,1.6245 1.41477,-1.806 0,0 z m -251.41202,93.4323 c -1.20106,-1.63909 -1.54138,-2.25529 0,0 z m 1.85299,2.1406 c -0.91923,-0.85778 -0.99849,-1.121 0,0 z m -162.23727,2.24959 c 1.08688,-0.27277 1.01375,-0.13145 0,0 z m 192.31589,15.2271 c -0.0403,-0.008 -0.17331,-0.0656 0,0 z m -262.80182,29.0359 c 2.57165,-0.66564 2.71741,-0.53651 0,0 z m -32.8128,16.59682 c 2.5036,-0.78488 7.24723,-1.76126 0,0 z M 94.788885,331.5034 c 2.642148,-0.69596 2.991592,-0.5636 0,0 z m 160.405295,35.70588 c -1.85187,0.99199 1.29455,-0.73934 0,0 z m 446.08911,1.70197 c 7.56975,2.93496 -3.48671,-1.00084 0,0 z"
     id="path845"
     transform="matrix(0.75033557,0,0,0.75033557,0,-0.45033557)" />
  <path
     d="m228 23-13 1-14 1-9 1-10 1-7 1-7 1-5 1-6 1-6 1-6 1-4 1-4 1-4 1-5 1-3 1-3 1-4 1-4 1-3 1-3 1-2 2-2 1-3 1-4 1-2 1-2 1-2 1-2 1-2 1-3 2-3 2-3 2-2 2c-2 0-10 9-10 10l-1 2-1 2-1 3-1 7 1 7 1 2 1 2 1 2 1 2 1 1c0 1 7 8 9 8l4 3 4 3 2 1 2 1 2 1 2 1 2 1 2 1 2 1 3 1 2 1 2 1 2 1 2 1 2 1 2 1 2 1c0 1 1 2 3 2l3 1 2 1 2 1 3 1 3 1 4 1 3 1 2 1 2 1 3 1 3 1 3 1 3 1 4 1 3 1 3 1 3 1 3 1 3 1-14 1-15-1-13-1-14-1-7-1-7-1-6-1-7-1-6-1c-5 0-6 0-6 2l1 2 1 13-1 14-1 5-1 5-1 5v6h11l11-1 12-1 11-1 13-1 12-1 12-1 11-1 3-1 3 1 2 1c1 0 2 0 2 2l-1 2-1 2-1 2-1 1c0 1-2 4-5 6l-5 7-1 1c-1 0-5 3-5 5l-2 1c-2 0-3 0-4 2l-2 2-1 1-2 1-3 2-3 2-2 1-2 1-3 2-4 2-2 1-2 1-2 1-4 4-2 1-2 1-2 1-2 1c-1 0-2 0-3 2l-3 2-2 1-2 1-3 1-2 1-2 1-2 1-2 1-2 1c-1 0-2 0-3 2l-3 2-2 1-2 1-2 1-2 1-3 1-2 2-3 2-3 2-2 1-2 1-3 2-3 2-2 1-1 1-2 1-1 1-2 1-1 1-2 1-2 1-4 3-4 3-6 5-2 2-2 4-2 3-2 3-1 1-2 3c0 1 1 2 3 2l2-1 57-1h56l3-4 4-5 3-4 3-3 4-3 1-2 4-7c1 1 6-4 6-5s2-4 5-6l5-7c0-2 8-10 10-10l1-2 1-2 1-2 2-2 4-4 3-4 3-4 1-1 1-6 1-6 1-6 1-5 1-2 1-2 1-3 2-5 2-3 1-1 12-12 4-2 4-2h3c2 0 3-1 3-2l4-1 5-1 19-1a83 83 0 0 1 25 2l6 1c0 1 1 2 3 2l3 1 3 1c2 0 3 1 3 2l1 2c1 0 4 1 6 4l5 4 1 1 2 4 2 3 1 1 1 4 1 4 1 4 1 4 1 6c0 6 0 7 2 9l2 3 3 5 3 4 5 6c1 0 4 2 4 4l3 4 3 4 3 5 3 4 4 5 4 5c0 1 4 6 6 6l1 1 2 4 2 2 2 3 2 2 3 5 3 4 52 1a507 507 0 0 1 74 3c21 0 22 0 22-2l-1-2a82 82 0 0 1-14-14l-4-4c-1 1-3-1-4-2l-5-3a3 3 0 0 1-3-2 3 3 0 0 0-2-2 5 5 0 0 1-4-2l-3-2-2-1-2-1-3-2-3-2-2-1-2-1-2-1-2-1-1-1-2-1-2-2-2-1-2-1-2-1-2-1-2-1-3-2-3-2-2-1-3-1-2-1-2-1-2-1-2-1-3-2-3-2-2-1-2-1-3-2-3-2-2-1-3-1-2-1c0-2-3-4-4-4l-2-1-2-1-3-2-3-2-2-1-1-1-3-2-3-2-6-6-5-4-1-1-4-5-4-6-1-2c-1 1-1-1-1-2l-1-3c-2 0-1-3 0-5l28-1 27 1 9 1 9 1 8 1 9 1 8 1 9 1 2 1c2 0 2-1 2-6l-1-5-1-6 1-6 1-7 1-6 1-3 1-3 1-2 1-2 1-2 1-2 1-1-11-1-10 1-13 1-12 1-14 1-13 1-24 1-23-1 3-1 3-1 2-1 2-1 3-1 3-1 2-1 2-1 2-1 2-1 3-1 4-1 2-1 2-1 2-1 2-1 2-1 2-2 2-1 2-1 2-1 3-1 2-1 2-1 2-1 2-1 2-1 3-2 3-2 3-2 3-2 3-2 2-2 3-2 3-2 4-4 4-4 4-6 1-2c1 1 1-1 1-2l1-3 1-3-1-3-1-4-2-4-2-3c0-2-7-8-8-8l-3-2-4-2-2-1-2-1-2-1-2-1-2-1-2-1-2-1-3-1-3-1-2-1-2-2-3-1-3-1-5-1-4-1-3-1-3-1-5-1-4-1-5-1-5-1-5-1-5-1-8-1-7-1-7-1-7-1-11-1-10-1-15-1-14-1-39-1-38 1zm54 29 14 1 13 1 7 1 6 1 5 1 5 1 4 1 4 1 5 1 4 1 2 1 2 1 2 1 2 1 2 1c1 0 8 6 8 8l1 1 1 4-1 4-1 1c0 2-10 13-12 13-1 0-4 2-4 4l-2 1-3 1-2 1-2 1-2 1-2 1-3 1-3 1-2 1-2 1-3 1-3 1-3 1-4 1-3 1-3 1-3 1-3 1-3 1-3 1-3 1-3 1-3 1-4 1-3 1-3 1-4 1-5-1-3-1-3-1-4-1-4-1-4-1-4-1-4-1-5-1-4-1-4-1-3-1-3-1-4-1-4-1-3-1-4-1-3-1-3-1-3-1-3-1-2-1-2-1-2-1-3-1-1-1-2-2-2-1-4-2-3-2c-2 0-4-3-4-5l-2-3-2-4-1-3-1-2 1-3 1-1c0-2 7-8 9-8l1-1 2-1 2-1 3-1 3-1 4-1 3-1 3-1 3-1 5-1 5-1 8-1 7-1 13-1 12-1 16-1 15 1z"
     id="path4" />
  <path
     d="m263 207-4 1-4 1-2 1-2 1-1 2c-2 0-5 3-5 6l-1 2-1 7-1 7-1 5-1 6c-2 0-2 1-2 5l-1 5-1 6-1 7-1 5-1 5-1 5-1 5-1 5-1 6-1 5-1 5-1 2c0 2 1 2 42 2h41v-4l-1-4-1-6-1-5-1-4-1-4-1-5-1-5-1-6-1-5-1-4-1-4-1-5-1-5-1-4-1-4-1-8-1-7-1-3-1-3c-1 0-2-1-2-3s-1-3-2-3l-2-2-2-1-2-1-4-1-4-1-4-1-5 1z"
     id="path6" />
</svg>
