<?xml version="1.0" encoding="UTF-8" standalone="no"?>
<svg
   xmlns:dc="http://purl.org/dc/elements/1.1/"
   xmlns:cc="http://creativecommons.org/ns#"
   xmlns:rdf="http://www.w3.org/1999/02/22-rdf-syntax-ns#"
   xmlns:svg="http://www.w3.org/2000/svg"
   xmlns="http://www.w3.org/2000/svg"
   xmlns:sodipodi="http://sodipodi.sourceforge.net/DTD/sodipodi-0.dtd"
   xmlns:inkscape="http://www.inkscape.org/namespaces/inkscape"
   version="1.0"
   width="558.90546pt"
   height="336.38922pt"
   viewBox="0 0 558.90546 336.38922"
   preserveAspectRatio="xMidYMid meet"
   id="svg40"
   sodipodi:docname="nagaraja.svg"
   inkscape:version="1.0.1 (3bc2e813f5, 2020-09-07)">
  <defs
     id="defs44" />
  <sodipodi:namedview
     pagecolor="#ffffff"
     bordercolor="#666666"
     borderopacity="1"
     objecttolerance="10"
     gridtolerance="10"
     guidetolerance="10"
     inkscape:pageopacity="0"
     inkscape:pageshadow="2"
     inkscape:window-width="1600"
     inkscape:window-height="837"
     id="namedview42"
     showgrid="false"
     inkscape:zoom="0.67"
     inkscape:cx="238.55888"
     inkscape:cy="304.7927"
     inkscape:window-x="-8"
     inkscape:window-y="-8"
     inkscape:window-maximized="1"
     inkscape:current-layer="g38"
     inkscape:document-rotation="0"
     fit-margin-top="0"
     fit-margin-left="0"
     fit-margin-right="0"
     fit-margin-bottom="0" />
  <metadata
     id="metadata28">
Created by potrace 1.16, written by Peter Selinger 2001-2019
<rdf:RDF>
  <cc:Work
     rdf:about="">
    <dc:format>image/svg+xml</dc:format>
    <dc:type
       rdf:resource="http://purl.org/dc/dcmitype/StillImage" />
    <dc:title></dc:title>
  </cc:Work>
</rdf:RDF>
</metadata>
  <g
     transform="matrix(0.1,0,0,-0.1,2.9809388,331.5443)"
     fill="#000000"
     stroke="none"
     id="g38">
    <path
       id="path7703"
       style="fill:#ffffff;stroke-width:1.49254"
       transform="matrix(7.5,0,0,-7.5,0,3750)"
       d="m 353.80654,152.041 c -28.79495,0.93909 -58.47528,-0.65107 -86.33776,7.33573 -4.54608,4.21306 -5.01269,17.3089 2.07435,19.6208 30.44009,9.83295 61.50351,18.56248 92.90672,24.29988 25.72178,-7.80832 51.96863,-15.0374 76.3293,-26.51586 7.63206,-3.88308 6.57021,-17.28693 -2.85099,-17.75012 -26.93057,-6.05925 -54.59737,-7.42932 -82.12162,-6.99043 z M 342.99731,57.947012 C 272.26047,58.974424 200.29822,64.208166 132.9256,87.258463 100.91896,99.066115 65.81157,116.86782 52.975738,150.72919 c -2.600723,13.76618 -2.982942,28.73421 1.166044,42.23415 5.934284,14.84962 17.34108,26.98097 30.223881,35.95499 -6.946351,5.15836 -10.481943,12.51558 -9.231673,21.22734 -0.581506,22.02854 -2.624421,43.93954 -6.203845,65.81499 0.04121,15.50128 11.788484,32.19368 28.63806,30.88561 20.882725,0.57465 41.733115,-1.37176 62.537895,-2.91803 -22.99625,14.56507 -46.9241,27.5074 -71.114155,39.99534 -25.767188,15.63325 -52.692678,30.4097 -74.665691,51.30228 -15.27648086,13.84441 -24.71533,38.05087 -13.1462259,57.02036 6.0324394,8.3566 14.6920169,15.43632 24.8571599,13.54653 51.949794,-0.20881 103.973762,0.40308 155.865202,-2.20675 14.84779,-1.17202 22.93732,-16.27636 32.71631,-25.5976 22.27018,-28.90637 47.29276,-55.61389 69.09398,-84.87931 -4.93849,27.8553 -11.79822,55.63891 -13.75059,83.87068 0.88125,17.81756 19.44109,28.51615 35.8967,27.33793 37.08765,0.54518 74.31125,1.22957 111.33395,-1.0407 16.12357,-3.4836 22.78529,-23.03127 19.04169,-37.72254 -3.73875,-23.51298 -9.55007,-46.62928 -14.19387,-69.92379 14.24787,19.1791 29.36796,37.48699 43.48506,56.82706 12.75144,15.14078 23.41962,32.35425 37.98066,45.82278 11.67452,8.01052 27.09636,4.1464 40.35973,6.08091 55.88672,1.54215 111.87272,3.09916 167.75594,1.27391 18.80415,-1.38633 33.89784,-20.89564 28.50397,-39.41815 -5.17246,-17.87309 -21.98986,-28.9452 -35.12452,-40.84276 -20.81019,-16.97517 -44.93996,-27.4203 -67.51073,-41.90269 -26.40306,-14.37463 -52.92,-29.03369 -77.93261,-45.49615 31.78791,0.93336 63.54015,9.04003 95.52238,5.09561 15.89018,-2.70771 24.65118,-19.87885 22.54839,-34.94344 -0.68864,-15.29584 0.17927,-30.78045 6.69602,-44.89565 8.71365,-20.42174 -10.96364,-43.59961 -32.12993,-42.64606 -7.04074,-0.7188 -16.54615,0.5782 -21.99495,0.45857 20.14544,-16.33378 38.74304,-42.5263 30.63491,-69.73531 -7.27482,-28.18617 -34.3472,-43.75277 -58.88282,-55.180686 C 558.26385,74.444057 508.85394,69.427013 461.07276,63.702699 421.8511,59.73418 382.41897,57.818214 342.99731,57.947012 Z m 6.59981,98.038128 c 32.57235,0.30463 67.44267,1.7387 97.94776,11.33687 -26.70764,14.55448 -56.42988,21.955 -85.302,31.02845 -31.03049,-5.97059 -61.74679,-13.75226 -91.4937,-24.45196 -4.48053,-1.93861 -9.5756,-4.11685 -13.38911,-6.67852 29.13493,-9.5485 61.40155,-10.97115 92.23705,-11.23484 z" />
    <path
       d="m 2250,3090 c 0,-6 -52,-10 -135,-10 -83,0 -135,-4 -135,-10 0,-6 -38,-10 -95,-10 -57,0 -95,-4 -95,-10 0,-6 -30,-10 -70,-10 -40,0 -70,-4 -70,-10 0,-5 -25,-10 -55,-10 -30,0 -55,-4 -55,-10 0,-6 -27,-10 -60,-10 -33,0 -60,-4 -60,-10 0,-5 -18,-10 -40,-10 -22,0 -40,-4 -40,-10 0,-5 -20,-10 -45,-10 -25,0 -45,-4 -45,-10 0,-5 -13,-10 -30,-10 -16,0 -30,-4 -30,-10 0,-5 -18,-10 -40,-10 -22,0 -40,-4 -40,-10 0,-5 -13,-10 -30,-10 -20,0 -30,-5 -30,-15 0,-8 -9,-15 -20,-15 -11,0 -20,-4 -20,-10 0,-5 -16,-10 -35,-10 -19,0 -35,-4 -35,-10 0,-5 -9,-10 -20,-10 -11,0 -20,-4 -20,-10 0,-5 -9,-10 -20,-10 -11,0 -20,-4 -20,-10 0,-5 -8,-10 -18,-10 -10,0 -24,-9 -32,-20 -8,-11 -21,-20 -30,-20 -9,0 -22,-9 -30,-20 -8,-11 -18,-20 -22,-20 -15,0 -98,-89 -98,-105 0,-8 -4,-15 -10,-15 -5,0 -10,-11 -10,-25 0,-14 -4,-25 -10,-25 -6,0 -10,-30 -10,-70 0,-40 4,-70 10,-70 6,0 10,-9 10,-20 0,-11 5,-20 10,-20 6,0 10,-9 10,-20 0,-11 5,-20 10,-20 6,0 10,-5 10,-10 0,-17 68,-80 86,-80 9,0 29,-13 44,-30 15,-16 35,-30 44,-30 9,0 16,-4 16,-10 0,-5 9,-10 20,-10 11,0 20,-4 20,-10 0,-5 9,-10 20,-10 11,0 20,-4 20,-10 0,-5 9,-10 20,-10 11,0 20,-4 20,-10 0,-5 11,-10 25,-10 14,0 25,-4 25,-10 0,-5 9,-10 20,-10 11,0 20,-4 20,-10 0,-5 9,-10 20,-10 11,0 20,-4 20,-10 0,-5 9,-10 20,-10 11,0 20,-7 20,-15 0,-10 10,-15 30,-15 17,0 30,-4 30,-10 0,-5 9,-10 20,-10 11,0 20,-4 20,-10 0,-5 14,-10 30,-10 17,0 30,-4 30,-10 0,-5 16,-10 35,-10 19,0 35,-4 35,-10 0,-5 9,-10 20,-10 11,0 20,-4 20,-10 0,-5 14,-10 30,-10 17,0 30,-4 30,-10 0,-5 14,-10 30,-10 17,0 30,-4 30,-10 0,-5 16,-10 35,-10 19,0 35,-4 35,-10 0,-5 14,-10 30,-10 17,0 30,-4 30,-10 0,-5 14,-10 30,-10 17,0 30,-4 30,-10 0,-6 -55,-10 -145,-10 -90,0 -145,4 -145,10 0,6 -52,10 -135,10 -83,0 -135,4 -135,10 0,6 -30,10 -70,10 -40,0 -70,4 -70,10 0,6 -28,10 -65,10 -37,0 -65,4 -65,10 0,6 -27,10 -60,10 -53,0 -60,-2 -60,-20 0,-11 5,-20 10,-20 6,0 10,-52 10,-135 0,-83 -4,-135 -10,-135 -5,0 -10,-22 -10,-50 0,-27 -4,-50 -10,-50 -5,0 -10,-25 -10,-55 v -55 h 110 c 67,0 110,4 110,10 0,6 45,10 115,10 70,0 115,4 115,10 0,6 48,10 125,10 77,0 125,4 125,10 0,6 45,10 115,10 70,0 115,4 115,10 0,6 14,10 30,10 17,0 30,-4 30,-10 0,-5 9,-10 20,-10 13,0 20,-7 20,-20 0,-11 -4,-20 -10,-20 -5,0 -10,-9 -10,-20 0,-11 -4,-20 -10,-20 -5,0 -10,-7 -10,-16 0,-8 -22,-37 -50,-64 -27,-27 -50,-53 -50,-59 0,-6 -4,-11 -8,-11 -14,0 -52,-36 -52,-49 0,-6 -11,-11 -24,-11 -16,0 -27,-7 -31,-20 -3,-11 -13,-20 -21,-20 -8,0 -14,-4 -14,-10 0,-5 -8,-10 -18,-10 -10,0 -24,-9 -32,-20 -8,-11 -22,-20 -32,-20 -10,0 -18,-4 -18,-10 0,-5 -8,-10 -18,-10 -10,0 -24,-9 -32,-20 -8,-11 -25,-20 -37,-20 -13,0 -23,-4 -23,-10 0,-5 -9,-10 -20,-10 -11,0 -20,-5 -20,-11 0,-16 -26,-39 -44,-39 -9,0 -16,-4 -16,-10 0,-5 -9,-10 -20,-10 -11,0 -20,-4 -20,-10 0,-5 -8,-10 -18,-10 -10,0 -24,-9 -32,-20 -8,-11 -22,-20 -32,-20 -10,0 -18,-4 -18,-10 0,-5 -11,-10 -25,-10 -14,0 -25,-4 -25,-10 0,-5 -9,-10 -20,-10 -11,0 -20,-4 -20,-10 0,-5 -9,-10 -20,-10 -11,0 -20,-4 -20,-10 0,-5 -8,-10 -18,-10 -10,0 -24,-9 -32,-20 -8,-11 -22,-20 -32,-20 -10,0 -18,-4 -18,-10 0,-5 -9,-10 -20,-10 -11,0 -20,-4 -20,-10 0,-5 -11,-10 -25,-10 -16,0 -25,-6 -25,-15 0,-8 -8,-15 -18,-15 -10,0 -24,-9 -32,-20 -8,-11 -22,-20 -32,-20 -10,0 -18,-4 -18,-10 0,-5 -8,-10 -18,-10 -10,0 -24,-9 -32,-20 -8,-11 -22,-20 -32,-20 -10,0 -18,-4 -18,-10 0,-5 -7,-10 -15,-10 -8,0 -15,-4 -15,-10 0,-5 -7,-10 -15,-10 -8,0 -15,-4 -15,-10 0,-5 -7,-10 -15,-10 -8,0 -15,-4 -15,-10 0,-5 -7,-10 -16,-10 -9,0 -29,-13 -44,-30 -15,-16 -33,-30 -39,-30 -14,0 -61,-45 -61,-57 0,-5 -9,-15 -20,-23 -11,-8 -20,-21 -20,-30 0,-9 -9,-22 -20,-30 -11,-8 -20,-22 -20,-32 0,-10 -7,-18 -15,-18 -8,0 -15,-9 -15,-20 0,-15 7,-20 25,-20 14,0 25,5 25,10 0,7 195,10 565,10 h 566 l 34,35 c 19,19 35,39 35,46 0,6 14,24 30,39 17,15 30,31 30,35 0,10 27,35 39,35 6,0 11,8 11,18 0,19 31,62 44,62 11,0 56,48 56,60 0,6 23,33 50,60 28,27 50,56 50,65 0,17 83,105 100,105 5,0 10,9 10,20 0,11 4,20 9,20 5,0 13,9 16,20 3,11 11,20 16,20 14,0 39,26 39,40 0,7 14,25 30,40 17,15 30,33 30,39 0,6 5,11 10,11 6,0 10,27 10,60 0,33 4,60 10,60 6,0 10,25 10,55 0,30 5,55 10,55 6,0 10,9 10,20 0,11 5,20 10,20 6,0 10,13 10,28 0,16 8,34 20,42 11,8 20,22 20,32 0,10 5,18 10,18 13,0 120,106 120,119 0,5 18,12 40,16 22,4 40,11 40,16 0,5 14,9 30,9 20,0 30,5 30,15 0,11 12,15 45,15 25,0 45,5 45,10 0,6 72,10 195,10 123,0 195,-4 195,-10 0,-5 25,-10 55,-10 42,0 55,-3 55,-15 0,-10 10,-15 30,-15 17,0 30,-4 30,-9 0,-5 14,-11 30,-15 18,-3 30,-12 30,-21 0,-8 7,-15 16,-15 8,0 33,-18 54,-40 21,-22 43,-40 49,-40 6,0 11,-8 11,-18 0,-10 9,-24 20,-32 11,-8 20,-22 20,-32 0,-10 5,-18 10,-18 6,0 10,-16 10,-35 0,-19 5,-35 10,-35 6,0 10,-18 10,-40 0,-22 5,-40 10,-40 6,0 10,-29 10,-68 0,-56 3,-70 20,-82 11,-8 20,-23 20,-33 0,-11 14,-32 30,-47 17,-15 30,-33 30,-39 0,-12 44,-61 55,-61 11,0 35,-28 35,-40 0,-7 14,-25 30,-40 17,-15 30,-36 30,-45 0,-9 14,-30 30,-45 17,-15 30,-33 30,-40 0,-6 18,-29 40,-50 22,-21 40,-43 40,-50 0,-14 46,-60 60,-60 5,0 10,-8 10,-18 0,-10 9,-24 20,-32 11,-8 20,-19 20,-25 0,-6 9,-17 20,-25 11,-8 20,-21 20,-28 0,-8 13,-27 30,-42 17,-15 30,-35 30,-44 0,-14 50,-16 520,-16 340,0 520,-3 520,-10 0,-6 80,-10 220,-10 213,0 220,1 220,20 0,11 -5,20 -10,20 -11,0 -140,125 -140,136 0,10 -28,34 -40,34 -7,0 -25,14 -40,30 -15,17 -37,30 -48,30 -12,0 -23,9 -27,20 -4,12 -15,20 -28,20 -13,0 -29,9 -37,20 -8,11 -22,20 -32,20 -10,0 -18,5 -18,10 0,6 -8,10 -18,10 -10,0 -24,9 -32,20 -8,11 -22,20 -32,20 -10,0 -18,5 -18,10 0,6 -9,10 -20,10 -11,0 -20,5 -20,10 0,6 -7,10 -15,10 -8,0 -15,5 -15,10 0,6 -9,10 -20,10 -11,0 -20,7 -20,15 0,8 -9,15 -20,15 -11,0 -20,5 -20,10 0,6 -9,10 -20,10 -11,0 -20,5 -20,10 0,6 -8,10 -18,10 -10,0 -24,9 -32,20 -8,11 -22,20 -32,20 -10,0 -18,5 -18,10 0,6 -11,10 -25,10 -14,0 -25,5 -25,10 0,6 -9,10 -20,10 -11,0 -20,5 -20,10 0,6 -8,10 -18,10 -10,0 -24,9 -32,20 -8,11 -22,20 -32,20 -10,0 -18,5 -18,10 0,6 -8,10 -18,10 -10,0 -24,9 -32,20 -8,11 -22,20 -32,20 -10,0 -18,5 -18,10 0,6 -11,10 -25,10 -14,0 -25,5 -25,11 0,16 -26,39 -44,39 -9,0 -16,5 -16,10 0,6 -8,10 -18,10 -10,0 -24,9 -32,20 -8,11 -22,20 -32,20 -10,0 -18,5 -18,10 0,6 -6,10 -13,10 -7,0 -19,9 -27,20 -8,11 -20,20 -28,20 -13,0 -62,44 -62,56 0,9 -41,44 -52,44 -4,0 -8,5 -8,11 0,6 -18,28 -40,49 -22,21 -40,46 -40,54 0,9 -4,16 -10,16 -5,0 -10,14 -10,30 0,17 -4,30 -10,30 -15,0 -12,29 4,46 12,11 63,14 280,14 171,0 266,-4 266,-10 0,-6 37,-10 90,-10 53,0 90,-4 90,-10 0,-6 35,-10 85,-10 50,0 85,-4 85,-10 0,-6 35,-10 85,-10 50,0 85,-4 85,-10 0,-5 9,-10 20,-10 18,0 20,7 20,55 0,30 -4,55 -10,55 -6,0 -10,27 -10,60 0,33 4,60 10,60 6,0 10,28 10,65 0,37 4,65 10,65 6,0 10,14 10,30 0,17 5,30 10,30 6,0 10,9 10,20 0,11 5,20 10,20 6,0 10,9 10,20 0,11 5,20 10,20 6,0 10,5 10,10 0,6 -42,10 -105,10 -63,0 -105,-4 -105,-10 0,-6 -48,-10 -125,-10 -77,0 -125,-4 -125,-10 0,-6 -52,-10 -135,-10 -83,0 -135,-4 -135,-10 0,-6 -85,-10 -235,-10 -150,0 -235,4 -235,10 0,6 14,10 30,10 17,0 30,5 30,10 0,6 9,10 20,10 11,0 20,5 20,10 0,6 14,10 30,10 17,0 30,5 30,10 0,6 9,10 20,10 11,0 20,5 20,10 0,6 9,10 20,10 11,0 20,5 20,10 0,6 16,10 35,10 19,0 35,5 35,10 0,6 9,10 20,10 11,0 20,5 20,10 0,6 9,10 20,10 11,0 20,5 20,10 0,6 9,10 20,10 11,0 20,7 20,15 0,8 9,15 20,15 11,0 20,5 20,10 0,6 11,10 25,10 14,0 25,5 25,10 0,6 9,10 20,10 11,0 20,5 20,10 0,6 9,10 20,10 11,0 20,5 20,10 0,6 8,10 18,10 10,0 24,9 32,20 8,11 21,20 30,20 9,0 22,9 30,20 8,11 21,20 30,20 9,0 22,9 30,20 8,11 19,20 25,20 6,0 17,9 25,20 8,11 20,20 28,20 14,0 42,23 42,35 0,4 18,24 40,45 22,21 40,46 40,54 0,9 5,16 10,16 6,0 10,14 10,30 0,17 5,30 10,30 6,0 10,14 10,30 0,17 -4,30 -10,30 -5,0 -10,15 -10,33 0,21 -7,38 -20,47 -11,8 -20,20 -20,28 0,17 -65,82 -82,82 -8,0 -20,9 -28,20 -8,11 -25,20 -37,20 -13,0 -23,5 -23,10 0,6 -9,10 -20,10 -11,0 -20,5 -20,10 0,6 -9,10 -20,10 -11,0 -20,5 -20,10 0,6 -9,10 -20,10 -11,0 -20,5 -20,10 0,6 -13,10 -30,10 -16,0 -30,5 -30,10 0,6 -9,10 -20,10 -11,0 -20,7 -20,15 0,10 -10,15 -30,15 -16,0 -30,5 -30,10 0,6 -20,10 -45,10 -25,0 -45,5 -45,10 0,6 -13,10 -30,10 -16,0 -30,5 -30,10 0,6 -20,10 -45,10 -25,0 -45,5 -45,10 0,6 -22,10 -50,10 -27,0 -50,5 -50,10 0,6 -22,10 -50,10 -27,0 -50,5 -50,10 0,6 -32,10 -75,10 -43,0 -75,4 -75,10 0,6 -30,10 -70,10 -40,0 -70,4 -70,10 0,6 -42,10 -105,10 -63,0 -105,4 -105,10 0,6 -55,10 -145,10 -90,0 -145,4 -145,10 0,6 -135,10 -385,10 -250,0 -385,-4 -385,-10 z m 540,-290 c 0,-6 52,-10 135,-10 83,0 135,-4 135,-10 0,-6 28,-10 65,-10 37,0 65,-4 65,-10 0,-5 23,-10 50,-10 28,0 50,-4 50,-10 0,-5 18,-10 40,-10 22,0 40,-4 40,-10 0,-5 20,-10 45,-10 25,0 45,-4 45,-10 0,-5 9,-10 20,-10 11,0 20,-4 20,-10 0,-5 9,-10 20,-10 11,0 20,-4 20,-10 0,-5 7,-10 15,-10 17,0 85,-64 85,-80 0,-5 5,-10 10,-10 6,0 10,-18 10,-40 0,-22 -4,-40 -10,-40 -5,0 -10,-7 -10,-15 0,-18 -104,-125 -120,-125 -15,0 -40,-25 -40,-39 0,-6 -11,-11 -25,-11 -14,0 -25,-4 -25,-10 0,-5 -9,-10 -20,-10 -11,0 -20,-4 -20,-10 0,-5 -9,-10 -20,-10 -11,0 -20,-4 -20,-10 0,-5 -13,-10 -30,-10 -16,0 -30,-4 -30,-10 0,-5 -9,-10 -20,-10 -11,0 -20,-4 -20,-10 0,-5 -13,-10 -30,-10 -16,0 -30,-4 -30,-10 0,-5 -16,-10 -35,-10 -19,0 -35,-4 -35,-10 0,-5 -13,-10 -30,-10 -16,0 -30,-4 -30,-10 0,-5 -13,-10 -30,-10 -16,0 -30,-4 -30,-10 0,-5 -13,-10 -30,-10 -16,0 -30,-4 -30,-10 0,-5 -13,-10 -30,-10 -16,0 -30,-4 -30,-10 0,-5 -16,-10 -35,-10 -19,0 -35,-4 -35,-10 0,-5 -13,-10 -30,-10 -16,0 -30,-4 -30,-10 0,-5 -20,-10 -45,-10 -25,0 -45,5 -45,10 0,6 -13,10 -30,10 -16,0 -30,5 -30,10 0,6 -18,10 -40,10 -22,0 -40,5 -40,10 0,6 -18,10 -40,10 -22,0 -40,5 -40,10 0,6 -20,10 -45,10 -25,0 -45,5 -45,10 0,6 -18,10 -40,10 -22,0 -40,5 -40,10 0,6 -13,10 -30,10 -16,0 -30,5 -30,10 0,6 -18,10 -40,10 -22,0 -40,5 -40,10 0,6 -16,10 -35,10 -19,0 -35,5 -35,10 0,6 -13,10 -30,10 -16,0 -30,5 -30,10 0,6 -13,10 -30,10 -16,0 -30,5 -30,10 0,6 -9,10 -20,10 -11,0 -20,5 -20,10 0,6 -11,10 -25,10 -14,0 -25,5 -25,10 0,6 -7,10 -15,10 -8,0 -15,7 -15,15 0,9 -9,15 -23,15 -12,0 -29,9 -37,20 -8,11 -20,20 -28,20 -17,0 -42,25 -42,42 0,8 -9,20 -20,28 -12,8 -20,26 -20,42 0,15 -4,28 -10,28 -5,0 -10,14 -10,30 0,17 5,30 10,30 6,0 10,5 10,10 0,16 68,80 85,80 8,0 15,5 15,10 0,6 9,10 20,10 11,0 20,5 20,10 0,6 14,10 30,10 17,0 30,5 30,10 0,6 16,10 35,10 19,0 35,5 35,10 0,6 14,10 30,10 17,0 30,5 30,10 0,6 23,10 50,10 28,0 50,5 50,10 0,6 32,10 75,10 43,0 75,4 75,10 0,6 48,10 125,10 77,0 125,4 125,10 0,6 58,10 155,10 97,0 155,-4 155,-10 z"
       id="path32" />
    <path
       d="m 2600,1250 c 0,-5 -18,-10 -40,-10 -22,0 -40,-4 -40,-10 0,-5 -9,-10 -20,-10 -11,0 -20,-7 -20,-15 0,-8 -4,-15 -8,-15 -18,0 -52,-38 -52,-59 0,-11 -4,-21 -10,-21 -6,0 -10,-30 -10,-70 0,-40 -4,-70 -10,-70 -5,0 -10,-25 -10,-55 0,-42 -3,-55 -15,-55 -11,0 -15,-12 -15,-50 0,-27 -4,-50 -10,-50 -6,0 -10,-28 -10,-65 0,-37 -4,-65 -10,-65 -5,0 -10,-22 -10,-50 0,-27 -4,-50 -10,-50 -5,0 -10,-22 -10,-50 0,-27 -4,-50 -10,-50 -5,0 -10,-25 -10,-55 0,-30 -4,-55 -10,-55 -5,0 -10,-22 -10,-50 0,-27 -4,-50 -10,-50 -5,0 -10,-9 -10,-20 0,-20 7,-20 415,-20 h 415 v 40 c 0,22 -4,40 -10,40 -5,0 -10,25 -10,55 0,30 -4,55 -10,55 -5,0 -10,18 -10,40 0,22 -4,40 -10,40 -5,0 -10,23 -10,50 0,28 -4,50 -10,50 -5,0 -10,25 -10,55 0,30 -4,55 -10,55 -5,0 -10,18 -10,40 0,22 -4,40 -10,40 -5,0 -10,23 -10,50 0,28 -4,50 -10,50 -5,0 -10,18 -10,40 0,22 -4,40 -10,40 -6,0 -10,32 -10,75 0,43 -4,75 -10,75 -5,0 -10,14 -10,30 0,20 -5,30 -15,30 -9,0 -15,9 -15,24 0,16 -7,27 -20,31 -11,3 -20,13 -20,21 0,8 -9,14 -20,14 -11,0 -20,5 -20,10 0,6 -18,10 -40,10 -22,0 -40,5 -40,10 0,6 -20,10 -45,10 -25,0 -45,-4 -45,-10 z"
       id="path36" />
  </g>
</svg>
