<svg xmlns="http://www.w3.org/2000/svg" width="745.207" height="448.519" version="1.0" viewBox="0 0 558.905 336.389"><path d="M353.807 152.041c-28.795.94-58.476-.651-86.338 7.336-4.546 4.213-5.013 17.309 2.074 19.62 30.44 9.833 61.504 18.563 92.907 24.3 25.722-7.808 51.968-15.037 76.33-26.515 7.631-3.884 6.57-17.287-2.852-17.75-26.93-6.06-54.597-7.43-82.121-6.991zm-10.81-94.094c-70.737 1.027-142.699 6.261-210.071 29.311-32.007 11.808-67.114 29.61-79.95 63.471-2.601 13.766-2.983 28.734 1.166 42.234 5.934 14.85 17.34 26.981 30.224 35.955-6.947 5.159-10.482 12.516-9.232 21.228a486.281 486.281 0 0 1-6.204 65.815c.041 15.5 11.789 32.193 28.638 30.885 20.883.575 41.733-1.371 62.538-2.918-22.996 14.565-46.924 27.508-71.114 39.996-25.767 15.633-52.693 30.41-74.666 51.302-15.276 13.844-24.715 38.05-13.146 57.02 6.032 8.357 14.692 15.437 24.857 13.547 51.95-.21 103.974.403 155.865-2.207 14.848-1.172 22.938-16.276 32.717-25.598 22.27-28.906 47.292-55.613 69.094-84.879-4.939 27.855-11.799 55.639-13.75 83.87.88 17.818 19.44 28.517 35.896 27.339 37.087.545 74.311 1.23 111.334-1.041 16.123-3.484 22.785-23.031 19.041-37.723-3.738-23.513-9.55-46.629-14.193-69.923 14.247 19.179 29.368 37.487 43.485 56.827 12.751 15.14 23.42 32.354 37.98 45.823 11.675 8.01 27.097 4.146 40.36 6.08 55.887 1.543 111.873 3.1 167.756 1.274 18.804-1.386 33.898-20.895 28.504-39.418-5.173-17.873-21.99-28.945-35.125-40.843-20.81-16.975-44.94-27.42-67.51-41.902-26.403-14.375-52.92-29.034-77.933-45.496 31.788.933 63.54 9.04 95.522 5.095 15.89-2.708 24.652-19.879 22.549-34.943-.689-15.296.18-30.78 6.696-44.896 8.714-20.422-10.964-43.6-32.13-42.646-7.04-.719-16.546.578-21.995.459 20.145-16.334 38.743-42.527 30.635-69.736-7.275-28.186-34.347-43.752-58.883-55.18-43.688-21.685-93.098-26.702-140.88-32.426a1136.335 1136.335 0 0 0-118.075-5.756Zm6.6 98.038c32.572.305 67.443 1.739 97.948 11.337-26.708 14.554-56.43 21.955-85.302 31.028-31.03-5.97-61.747-13.752-91.494-24.451-4.48-1.94-9.575-4.117-13.389-6.679 29.135-9.549 61.402-10.971 92.237-11.235z" style="fill:#fff;stroke-width:1.49254" transform="matrix(.8 0 0 .8 2.98 -43.456)"/><path d="M227.98 22.544c0 .6-5.2 1-13.5 1s-13.5.4-13.5 1-3.8 1-9.5 1-9.5.4-9.5 1-3 1-7 1-7 .4-7 1c0 .5-2.5 1-5.5 1s-5.5.4-5.5 1-2.7 1-6 1-6 .4-6 1c0 .5-1.8 1-4 1s-4 .4-4 1c0 .5-2 1-4.5 1s-4.5.4-4.5 1c0 .5-1.3 1-3 1-1.6 0-3 .4-3 1 0 .5-1.8 1-4 1s-4 .4-4 1c0 .5-1.3 1-3 1-2 0-3 .5-3 1.5 0 .8-.9 1.5-2 1.5s-2 .4-2 1c0 .5-1.6 1-3.5 1s-3.5.4-3.5 1c0 .5-.9 1-2 1s-2 .4-2 1c0 .5-.9 1-2 1s-2 .4-2 1c0 .5-.8 1-1.8 1s-2.4.9-3.2 2c-.8 1.1-2.1 2-3 2-.9 0-2.2.9-3 2-.8 1.1-1.8 2-2.2 2-1.5 0-9.8 8.9-9.8 10.5 0 .8-.4 1.5-1 1.5-.5 0-1 1.1-1 2.5s-.4 2.5-1 2.5-1 3-1 7 .4 7 1 7 1 .9 1 2 .5 2 1 2c.6 0 1 .9 1 2s.5 2 1 2c.6 0 1 .5 1 1 0 1.7 6.8 8 8.6 8 .9 0 2.9 1.3 4.4 3 1.5 1.6 3.5 3 4.4 3 .9 0 1.6.4 1.6 1 0 .5.9 1 2 1s2 .4 2 1c0 .5.9 1 2 1s2 .4 2 1c0 .5.9 1 2 1s2 .4 2 1c0 .5 1.1 1 2.5 1s2.5.4 2.5 1c0 .5.9 1 2 1s2 .4 2 1c0 .5.9 1 2 1s2 .4 2 1c0 .5.9 1 2 1s2 .7 2 1.5c0 1 1 1.5 3 1.5 1.7 0 3 .4 3 1 0 .5.9 1 2 1s2 .4 2 1c0 .5 1.4 1 3 1 1.7 0 3 .4 3 1 0 .5 1.6 1 3.5 1s3.5.4 3.5 1c0 .5.9 1 2 1s2 .4 2 1c0 .5 1.4 1 3 1 1.7 0 3 .4 3 1 0 .5 1.4 1 3 1 1.7 0 3 .4 3 1 0 .5 1.6 1 3.5 1s3.5.4 3.5 1c0 .5 1.4 1 3 1 1.7 0 3 .4 3 1 0 .5 1.4 1 3 1 1.7 0 3 .4 3 1s-5.5 1-14.5 1-14.5-.4-14.5-1-5.2-1-13.5-1-13.5-.4-13.5-1-3-1-7-1-7-.4-7-1-2.8-1-6.5-1-6.5-.4-6.5-1-2.7-1-6-1c-5.3 0-6 .2-6 2 0 1.1.5 2 1 2 .6 0 1 5.2 1 13.5s-.4 13.5-1 13.5c-.5 0-1 2.2-1 5 0 2.7-.4 5-1 5-.5 0-1 2.5-1 5.5v5.5h11c6.7 0 11-.4 11-1s4.5-1 11.5-1 11.5-.4 11.5-1 4.8-1 12.5-1 12.5-.4 12.5-1 4.5-1 11.5-1 11.5-.4 11.5-1 1.4-1 3-1c1.7 0 3 .4 3 1 0 .5.9 1 2 1 1.3 0 2 .7 2 2 0 1.1-.4 2-1 2-.5 0-1 .9-1 2s-.4 2-1 2c-.5 0-1 .7-1 1.6 0 .8-2.2 3.7-5 6.4-2.7 2.7-5 5.3-5 5.9 0 .6-.4 1.1-.8 1.1-1.4 0-5.2 3.6-5.2 4.9 0 .6-1.1 1.1-2.4 1.1-1.6 0-2.7.7-3.1 2-.3 1.1-1.3 2-2.1 2s-1.4.4-1.4 1c0 .5-.8 1-1.8 1s-2.4.9-3.2 2c-.8 1.1-2.2 2-3.2 2s-1.8.4-1.8 1c0 .5-.8 1-1.8 1s-2.4.9-3.2 2c-.8 1.1-2.5 2-3.7 2-1.3 0-2.3.4-2.3 1 0 .5-.9 1-2 1s-2 .5-2 1.1c0 1.6-2.6 3.9-4.4 3.9-.9 0-1.6.4-1.6 1 0 .5-.9 1-2 1s-2 .4-2 1c0 .5-.8 1-1.8 1s-2.4.9-3.2 2c-.8 1.1-2.2 2-3.2 2s-1.8.4-1.8 1c0 .5-1.1 1-2.5 1s-2.5.4-2.5 1c0 .5-.9 1-2 1s-2 .4-2 1c0 .5-.9 1-2 1s-2 .4-2 1c0 .5-.8 1-1.8 1s-2.4.9-3.2 2c-.8 1.1-2.2 2-3.2 2s-1.8.4-1.8 1c0 .5-.9 1-2 1s-2 .4-2 1c0 .5-1.1 1-2.5 1-1.6 0-2.5.6-2.5 1.5 0 .8-.8 1.5-1.8 1.5s-2.4.9-3.2 2c-.8 1.1-2.2 2-3.2 2s-1.8.4-1.8 1c0 .5-.8 1-1.8 1s-2.4.9-3.2 2c-.8 1.1-2.2 2-3.2 2s-1.8.4-1.8 1c0 .5-.7 1-1.5 1s-1.5.4-1.5 1c0 .5-.7 1-1.5 1s-1.5.4-1.5 1c0 .5-.7 1-1.5 1s-1.5.4-1.5 1c0 .5-.7 1-1.6 1-.9 0-2.9 1.3-4.4 3-1.5 1.6-3.3 3-3.9 3-1.4 0-6.1 4.5-6.1 5.7 0 .5-.9 1.5-2 2.3-1.1.8-2 2.1-2 3 0 .9-.9 2.2-2 3-1.1.8-2 2.2-2 3.2s-.7 1.8-1.5 1.8-1.5.9-1.5 2c0 1.5.7 2 2.5 2 1.4 0 2.5-.5 2.5-1 0-.7 19.5-1 56.5-1h56.6l3.4-3.5c1.9-1.9 3.5-3.9 3.5-4.6 0-.6 1.4-2.4 3-3.9 1.7-1.5 3-3.1 3-3.5 0-1 2.7-3.5 3.9-3.5.6 0 1.1-.8 1.1-1.8 0-1.9 3.1-6.2 4.4-6.2 1.1 0 5.6-4.8 5.6-6 0-.6 2.3-3.3 5-6 2.8-2.7 5-5.6 5-6.5 0-1.7 8.3-10.5 10-10.5.5 0 1-.9 1-2s.4-2 .9-2 1.3-.9 1.6-2c.3-1.1 1.1-2 1.6-2 1.4 0 3.9-2.6 3.9-4 0-.7 1.4-2.5 3-4 1.7-1.5 3-3.3 3-3.9 0-.6.5-1.1 1-1.1.6 0 1-2.7 1-6s.4-6 1-6 1-2.5 1-5.5.5-5.5 1-5.5c.6 0 1-.9 1-2s.5-2 1-2c.6 0 1-1.3 1-2.8 0-1.6.8-3.4 2-4.2 1.1-.8 2-2.2 2-3.2s.5-1.8 1-1.8c1.3 0 12-10.6 12-11.9 0-.5 1.8-1.2 4-1.6 2.2-.4 4-1.1 4-1.6s1.4-.9 3-.9c2 0 3-.5 3-1.5 0-1.1 1.2-1.5 4.5-1.5 2.5 0 4.5-.5 4.5-1 0-.6 7.2-1 19.5-1s19.5.4 19.5 1c0 .5 2.5 1 5.5 1 4.2 0 5.5.3 5.5 1.5 0 1 1 1.5 3 1.5 1.7 0 3 .4 3 .9s1.4 1.1 3 1.5c1.8.3 3 1.2 3 2.1 0 .8.7 1.5 1.6 1.5.8 0 3.3 1.8 5.4 4 2.1 2.2 4.3 4 4.9 4 .6 0 1.1.8 1.1 1.8s.9 2.4 2 3.2c1.1.8 2 2.2 2 3.2s.5 1.8 1 1.8c.6 0 1 1.6 1 3.5s.5 3.5 1 3.5c.6 0 1 1.8 1 4s.5 4 1 4c.6 0 1 2.9 1 6.8 0 5.6.3 7 2 8.2 1.1.8 2 2.3 2 3.3 0 1.1 1.4 3.2 3 4.7 1.7 1.5 3 3.3 3 3.9 0 1.2 4.4 6.1 5.5 6.1 1.1 0 3.5 2.8 3.5 4 0 .7 1.4 2.5 3 4 1.7 1.5 3 3.6 3 4.5 0 .9 1.4 3 3 4.5 1.7 1.5 3 3.3 3 4 0 .6 1.8 2.9 4 5s4 4.3 4 5c0 1.4 4.6 6 6 6 .5 0 1 .8 1 1.8s.9 2.4 2 3.2c1.1.8 2 1.9 2 2.5 0 .6.9 1.7 2 2.5s2 2.1 2 2.8c0 .8 1.3 2.7 3 4.2s3 3.5 3 4.4c0 1.4 5 1.6 52 1.6 34 0 52 .3 52 1 0 .6 8 1 22 1 21.3 0 22-.1 22-2 0-1.1-.5-2-1-2-1.1 0-14-12.5-14-13.6 0-1-2.8-3.4-4-3.4-.7 0-2.5-1.4-4-3-1.5-1.7-3.7-3-4.8-3-1.2 0-2.3-.9-2.7-2-.4-1.2-1.5-2-2.8-2-1.3 0-2.9-.9-3.7-2-.8-1.1-2.2-2-3.2-2s-1.8-.5-1.8-1c0-.6-.8-1-1.8-1s-2.4-.9-3.2-2c-.8-1.1-2.2-2-3.2-2s-1.8-.5-1.8-1c0-.6-.9-1-2-1s-2-.5-2-1c0-.6-.7-1-1.5-1s-1.5-.5-1.5-1c0-.6-.9-1-2-1s-2-.7-2-1.5-.9-1.5-2-1.5-2-.5-2-1c0-.6-.9-1-2-1s-2-.5-2-1c0-.6-.8-1-1.8-1s-2.4-.9-3.2-2c-.8-1.1-2.2-2-3.2-2s-1.8-.5-1.8-1c0-.6-1.1-1-2.5-1s-2.5-.5-2.5-1c0-.6-.9-1-2-1s-2-.5-2-1c0-.6-.8-1-1.8-1s-2.4-.9-3.2-2c-.8-1.1-2.2-2-3.2-2s-1.8-.5-1.8-1c0-.6-.8-1-1.8-1s-2.4-.9-3.2-2c-.8-1.1-2.2-2-3.2-2s-1.8-.5-1.8-1c0-.6-1.1-1-2.5-1s-2.5-.5-2.5-1.1c0-1.6-2.6-3.9-4.4-3.9-.9 0-1.6-.5-1.6-1 0-.6-.8-1-1.8-1s-2.4-.9-3.2-2c-.8-1.1-2.2-2-3.2-2s-1.8-.5-1.8-1c0-.6-.6-1-1.3-1-.7 0-1.9-.9-2.7-2-.8-1.1-2-2-2.8-2-1.3 0-6.2-4.4-6.2-5.6 0-.9-4.1-4.4-5.2-4.4-.4 0-.8-.5-.8-1.1 0-.6-1.8-2.8-4-4.9-2.2-2.1-4-4.6-4-5.4 0-.9-.4-1.6-1-1.6-.5 0-1-1.4-1-3 0-1.7-.4-3-1-3-1.5 0-1.2-2.9.4-4.6 1.2-1.1 6.3-1.4 28-1.4 17.1 0 26.6.4 26.6 1s3.7 1 9 1 9 .4 9 1 3.5 1 8.5 1 8.5.4 8.5 1 3.5 1 8.5 1 8.5.4 8.5 1c0 .5.9 1 2 1 1.8 0 2-.7 2-5.5 0-3-.4-5.5-1-5.5s-1-2.7-1-6 .4-6 1-6 1-2.8 1-6.5.4-6.5 1-6.5 1-1.4 1-3c0-1.7.5-3 1-3 .6 0 1-.9 1-2s.5-2 1-2c.6 0 1-.9 1-2s.5-2 1-2c.6 0 1-.5 1-1 0-.6-4.2-1-10.5-1s-10.5.4-10.5 1-4.8 1-12.5 1-12.5.4-12.5 1-5.2 1-13.5 1-13.5.4-13.5 1-8.5 1-23.5 1-23.5-.4-23.5-1 1.4-1 3-1c1.7 0 3-.5 3-1 0-.6.9-1 2-1s2-.5 2-1c0-.6 1.4-1 3-1 1.7 0 3-.5 3-1 0-.6.9-1 2-1s2-.5 2-1c0-.6.9-1 2-1s2-.5 2-1c0-.6 1.6-1 3.5-1s3.5-.5 3.5-1c0-.6.9-1 2-1s2-.5 2-1c0-.6.9-1 2-1s2-.5 2-1c0-.6.9-1 2-1s2-.7 2-1.5.9-1.5 2-1.5 2-.5 2-1c0-.6 1.1-1 2.5-1s2.5-.5 2.5-1c0-.6.9-1 2-1s2-.5 2-1c0-.6.9-1 2-1s2-.5 2-1c0-.6.8-1 1.8-1s2.4-.9 3.2-2c.8-1.1 2.1-2 3-2 .9 0 2.2-.9 3-2 .8-1.1 2.1-2 3-2 .9 0 2.2-.9 3-2 .8-1.1 1.9-2 2.5-2 .6 0 1.7-.9 2.5-2s2-2 2.8-2c1.4 0 4.2-2.3 4.2-3.5 0-.4 1.8-2.4 4-4.5s4-4.6 4-5.4c0-.9.5-1.6 1-1.6.6 0 1-1.4 1-3 0-1.7.5-3 1-3 .6 0 1-1.4 1-3 0-1.7-.4-3-1-3-.5 0-1-1.5-1-3.3 0-2.1-.7-3.8-2-4.7-1.1-.8-2-2-2-2.8 0-1.7-6.5-8.2-8.2-8.2-.8 0-2-.9-2.8-2-.8-1.1-2.5-2-3.7-2-1.3 0-2.3-.5-2.3-1 0-.6-.9-1-2-1s-2-.5-2-1c0-.6-.9-1-2-1s-2-.5-2-1c0-.6-.9-1-2-1s-2-.5-2-1c0-.6-1.3-1-3-1-1.6 0-3-.5-3-1 0-.6-.9-1-2-1s-2-.7-2-1.5c0-1-1-1.5-3-1.5-1.6 0-3-.5-3-1 0-.6-2-1-4.5-1s-4.5-.5-4.5-1c0-.6-1.3-1-3-1-1.6 0-3-.5-3-1 0-.6-2-1-4.5-1s-4.5-.5-4.5-1c0-.6-2.2-1-5-1-2.7 0-5-.5-5-1 0-.6-2.2-1-5-1-2.7 0-5-.5-5-1 0-.6-3.2-1-7.5-1s-7.5-.4-7.5-1-3-1-7-1-7-.4-7-1-4.2-1-10.5-1-10.5-.4-10.5-1-5.5-1-14.5-1-14.5-.4-14.5-1-13.5-1-38.5-1-38.5.4-38.5 1zm54 29c0 .6 5.2 1 13.5 1s13.5.4 13.5 1 2.8 1 6.5 1 6.5.4 6.5 1c0 .5 2.3 1 5 1 2.8 0 5 .4 5 1 0 .5 1.8 1 4 1s4 .4 4 1c0 .5 2 1 4.5 1s4.5.4 4.5 1c0 .5.9 1 2 1s2 .4 2 1c0 .5.9 1 2 1s2 .4 2 1c0 .5.7 1 1.5 1 1.7 0 8.5 6.4 8.5 8 0 .5.5 1 1 1 .6 0 1 1.8 1 4s-.4 4-1 4c-.5 0-1 .7-1 1.5 0 1.8-10.4 12.5-12 12.5-1.5 0-4 2.5-4 3.9 0 .6-1.1 1.1-2.5 1.1s-2.5.4-2.5 1c0 .5-.9 1-2 1s-2 .4-2 1c0 .5-.9 1-2 1s-2 .4-2 1c0 .5-1.3 1-3 1-1.6 0-3 .4-3 1 0 .5-.9 1-2 1s-2 .4-2 1c0 .5-1.3 1-3 1-1.6 0-3 .4-3 1 0 .5-1.6 1-3.5 1s-3.5.4-3.5 1c0 .5-1.3 1-3 1-1.6 0-3 .4-3 1 0 .5-1.3 1-3 1-1.6 0-3 .4-3 1 0 .5-1.3 1-3 1-1.6 0-3 .4-3 1 0 .5-1.3 1-3 1-1.6 0-3 .4-3 1 0 .5-1.6 1-3.5 1s-3.5.4-3.5 1c0 .5-1.3 1-3 1-1.6 0-3 .4-3 1 0 .5-2 1-4.5 1s-4.5-.5-4.5-1c0-.6-1.3-1-3-1-1.6 0-3-.5-3-1 0-.6-1.8-1-4-1s-4-.5-4-1c0-.6-1.8-1-4-1s-4-.5-4-1c0-.6-2-1-4.5-1s-4.5-.5-4.5-1c0-.6-1.8-1-4-1s-4-.5-4-1c0-.6-1.3-1-3-1-1.6 0-3-.5-3-1 0-.6-1.8-1-4-1s-4-.5-4-1c0-.6-1.6-1-3.5-1s-3.5-.5-3.5-1c0-.6-1.3-1-3-1-1.6 0-3-.5-3-1 0-.6-1.3-1-3-1-1.6 0-3-.5-3-1 0-.6-.9-1-2-1s-2-.5-2-1c0-.6-1.1-1-2.5-1s-2.5-.5-2.5-1c0-.6-.7-1-1.5-1s-1.5-.7-1.5-1.5c0-.9-.9-1.5-2.3-1.5-1.2 0-2.9-.9-3.7-2-.8-1.1-2-2-2.8-2-1.7 0-4.2-2.5-4.2-4.2 0-.8-.9-2-2-2.8-1.2-.8-2-2.6-2-4.2 0-1.5-.4-2.8-1-2.8-.5 0-1-1.4-1-3 0-1.7.5-3 1-3 .6 0 1-.5 1-1 0-1.6 6.8-8 8.5-8 .8 0 1.5-.5 1.5-1 0-.6.9-1 2-1s2-.5 2-1c0-.6 1.4-1 3-1 1.7 0 3-.5 3-1 0-.6 1.6-1 3.5-1s3.5-.5 3.5-1c0-.6 1.4-1 3-1 1.7 0 3-.5 3-1 0-.6 2.3-1 5-1 2.8 0 5-.5 5-1 0-.6 3.2-1 7.5-1s7.5-.4 7.5-1 4.8-1 12.5-1 12.5-.4 12.5-1 5.8-1 15.5-1 15.5.4 15.5 1z"/><path d="M262.98 206.544c0 .5-1.8 1-4 1s-4 .4-4 1c0 .5-.9 1-2 1s-2 .7-2 1.5-.4 1.5-.8 1.5c-1.8 0-5.2 3.8-5.2 5.9 0 1.1-.4 2.1-1 2.1s-1 3-1 7-.4 7-1 7c-.5 0-1 2.5-1 5.5 0 4.2-.3 5.5-1.5 5.5-1.1 0-1.5 1.2-1.5 5 0 2.7-.4 5-1 5s-1 2.8-1 6.5-.4 6.5-1 6.5c-.5 0-1 2.2-1 5 0 2.7-.4 5-1 5-.5 0-1 2.2-1 5 0 2.7-.4 5-1 5-.5 0-1 2.5-1 5.5s-.4 5.5-1 5.5c-.5 0-1 2.2-1 5 0 2.7-.4 5-1 5-.5 0-1 .9-1 2 0 2 .7 2 41.5 2h41.5v-4c0-2.2-.4-4-1-4-.5 0-1-2.5-1-5.5s-.4-5.5-1-5.5c-.5 0-1-1.8-1-4s-.4-4-1-4c-.5 0-1-2.3-1-5 0-2.8-.4-5-1-5-.5 0-1-2.5-1-5.5s-.4-5.5-1-5.5c-.5 0-1-1.8-1-4s-.4-4-1-4c-.5 0-1-2.3-1-5 0-2.8-.4-5-1-5-.5 0-1-1.8-1-4s-.4-4-1-4-1-3.2-1-7.5-.4-7.5-1-7.5c-.5 0-1-1.4-1-3 0-2-.5-3-1.5-3-.9 0-1.5-.9-1.5-2.4 0-1.6-.7-2.7-2-3.1-1.1-.3-2-1.3-2-2.1s-.9-1.4-2-1.4-2-.5-2-1c0-.6-1.8-1-4-1s-4-.5-4-1c0-.6-2-1-4.5-1s-4.5.4-4.5 1z"/></svg>