<svg xmlns="http://www.w3.org/2000/svg" width="392" height="386" version="1.0" viewBox="0 0 294 290"><path d="m107 184-3 1a4 4 0 0 0-2 3c-1 1 0 3 1 4h6l2-3a4 4 0 0 0-1-4 4 4 0 0 0-3-1zm-7 1-4 2c-1 3-1 6 2 7l5-1c2-1 2-6-1-7a5 5 0 0 0-2-1zm-6 35c-2 0-4 2-4 4-1 4 0 8 3 11a20 20 0 0 0 15 7c3 0 5 0 6-2a22 22 0 0 0 7-11c0-2 0-5-2-6h-8c-2-1-4-3-6-2l-7 1-3-2a4 4 0 0 0-1 0zm16-13c-8 1-18 6-16 15 2 6 10 3 14 2 3 5 14 3 12-4-1-5-4-13-10-13zm37-167a20 20 0 0 0-18 16c-2 6-2 14 2 19a20 20 0 0 0 21 7c7 0 13-4 16-10a20 20 0 0 0-2-23 22 22 0 0 0-19-9zm19 19c-5 0-10 4-16 5-7 1-14 1-20 4-7 3-11 11-13 18l-13 17a18 18 0 0 1-5 6 75 75 0 0 0-17 40c-1 8-2 17 0 25 2 10 11 16 20 15l7-1c-2 8 3 17 10 22 2 2 2 5 3 7a19 19 0 0 0 16 13c9 1 17-4 21-10 4-4 7-9 7-14 0 2 1-3 3-3 7-4 10-13 16-18l10-8c6-3 13-8 15-15 2-6 5-12 5-18 4-5 7-11 9-17 3-7-2-14 0-21 3-8 1-18-6-23-6-4-15-4-22-8-8-3-13-12-22-15a26 26 0 0 0-7-1zm78 9c-9 0-17 8-19 17-3 9 2 20 11 24 9 3 19 5 26-1 8-6 10-18 5-26-5-9-13-14-23-14ZM110 188a32 32 0 0 0-23 11 34 34 0 0 0-11 16c-3 5-3 11-4 16a20 20 0 0 0 9 24c3 2 7 2 10 6a28 28 0 0 0 23 10c7 0 15-3 19-9 4-5 3-12 2-18 0-3 3-4 4-6a20 20 0 0 0 1-24c-2-13-12-24-25-25l-5-1zm1 22 5 8c2 3 1 7 1 10-1 4-3 9-7 11-7 1-17-5-17-13 1-8 7-14 15-15l3-1zM146 0a21 21 0 0 0-20 15c-2 7-4 15-1 22 5 10 17 16 27 12a30 30 0 0 0 16-14c3-6 1-13-1-19-2-7-8-14-17-16h-4zm15 24a20 20 0 0 0-18 21c0 9 8 16 15 22 10 10 20 20 33 26 11 4 22 6 33 8 10 1 20-8 20-18l5-11c3-7 8-14 6-22a20 20 0 0 0-21-15c-8 1-15 5-22 9a7 7 0 0 1-4-5 27 27 0 0 0-33-12 29 29 0 0 0-14-3zm67 38c-1 0-1-1 0 0zm13 30c-9 0-15 6-20 12a98 98 0 0 0-21 33l-9 21c-9 6-18 11-25 20-9 11-15 24-25 35l-19 17a22 22 0 0 0-2 26l9 24c6 11 23 13 32 4 5-5 6-14 9-21 1-2 1-5 4-4 8-1 17 2 24-2 5-3 8-8 11-13 2-2 4 1 6 1 8 4 17 10 27 8a19 19 0 0 0 16-20c-1-8-6-14-9-21l-3-5a28 28 0 0 0 15-35c0-3 2-4 5-5 8-3 18-4 24-12a20 20 0 0 0-4-27c-7-5-15-7-23-10-2-1-1-4-2-6 1-10-8-19-18-20a27 27 0 0 0-2 0zM137 264c-1 0 1 0 0 0zm-9-240-12 3a24 24 0 0 0-27 4 33 33 0 0 0-8 11c-7-3-14-8-22-9a20 20 0 0 0-22 16c-2 9 4 17 7 25 2 1 3 4 0 5a27 27 0 0 0-17 27l3 9c-1 1 0 5-3 5-7 2-15 4-21 8-7 7-8 18-3 26 3 6 10 9 16 11l10 3v6a27 27 0 0 0 12 31c2 1 6 2 4 4-3 8-8 15-9 23a20 20 0 0 0 18 21c6 1 11-2 16-4 10 1 20-6 21-16l1-9c6-12 7-26 7-39 1-13 0-25 2-37a74 74 0 0 1 17-33 195 195 0 0 0 25-43 76 76 0 0 0 5-32 20 20 0 0 0-20-16zM79 51c0-1 0-1 0 0zM56 243c-1-1-1-2 0 0z" style="fill:#fff;stroke-width:.0382577"/><path d="M143 23a31 31 0 0 1-3 7l-3-1-7-1c-4-1-4-1-5 2v4l2 4 1 4-2 2-8 2h-7l-4-2c-3-1-4-1-7 2l-3 5c0 2-1 4-7 7l-7 5-14-7-15-7 6 15 8 14-6 9c-5 7-6 8-9 8-6 0-10 8-6 13l2 3-2 8a73 73 0 0 0-2 11c0 3 0 3-15 8l-16 5 16 6 15 5 1 4 2 10v9c-3 3-2 9 1 11a9 9 0 0 0 5 2l7 8 5 9-7 15-7 15 9-4c7-4 8-4 9-2 2 4 7 8 10 8l9 2a23 23 0 0 1 12 8l6 6h7c7-1 12-2 19-8l3-2 5 15a74 74 0 0 0 5 14l6-15 5-15 9-2c9-2 12-2 18-1 4 0 5 0 6-2a7 7 0 0 0 2-4c0-2 2-4 8-7l9-6 16 8 15 7-7-16-8-15 5-8c4-6 5-8 8-8 5 0 9-10 5-13l-1-3 2-11 2-8 17-6 16-6-16-5c-14-4-17-6-17-7l-2-11-2-8 5-5c5-5 8-12 7-16s-7-8-16-9l-11-2h-3l8-14 7-14-14 6-14 7-9-6c-8-5-10-6-10-9 1-6-8-9-12-5-2 2-2 2-9 0l-12-5c-5-4-5-5-9-14a114 114 0 0 0-3-10c-1-1-2 2-3 7zm-1 10a58 58 0 0 1 26 19 134 134 0 0 0 29 24l33 7 13 2c12 4 11 14-2 25a92 92 0 0 0-20 24l-8 20a67 67 0 0 1-7 16 73 73 0 0 1-12 8c-10 7-13 10-25 28a103 103 0 0 1-28 32c-14 11-21 15-28 15-4 0-5-1-9-4-6-8-8-9-24-13-8-2-10-8-5-18 4-11 5-19 6-45 0-22 0-27 2-33a83 83 0 0 1 17-31c7-8 17-24 22-34a67 67 0 0 0 8-28c1-7 0-9-1-12l-2-5c1-1 8 1 15 3z"/><path d="M168 71c-6 6-10 7-25 10-11 2-17 5-20 8l-2 2 2-1c5-3 12-5 25-7a56 56 0 0 0 18-5c5-2 8-7 8-9 0-3-2-3-6 2zm42 23c-6 9-7 16-3 32 2 5 2 6 2 2l-1-14c-1-10-1-11 2-16 5-8 4-11 0-4zm-34-1c-4 4-11 5-24 2-10-2-16-2-23 1-5 2-12 7-11 8l8-3c10-5 15-5 29-1 15 4 18 3 22-3 3-4 2-7-1-4zm10 9c-4 5-3 9 1 14l7 10c3 6 3 7 3 18s0 11 1 8l2-11c0-7 0-8-6-19a81 81 0 0 1-6-14l2-5c2-4 2-4 0-4l-4 3zm-66 16c-5 2-7 4-4 4l9 4 6 3 6-3a41 41 0 0 0 8-5l3-3h-8l-12-1c-3-1-5 0-8 1zm49 17c-1 8 0 12 5 18 3 3 6 6 6 8 1 5 2 5 3 0 1-6-1-11-7-22l-5-9zm-74 7c-4 5-7 11-5 15 1 3 4 4 7 2 2-2 2-5 0-7-2-3-2-6 0-10l1-4-3 4zm55 16a108 108 0 0 0-5 13l-2 7a77 77 0 0 1-13 7c-2 0-5-5-5-10 0-4 1-6 3-8l6-8 3-5-3 4c-9 11-11 11-10 2l1-5h-3a39 39 0 0 0-15 10 92 92 0 0 0-19 39c-1 4 0 4 2-3 5-18 14-32 23-40 6-4 9-4 9 2l1 6 2 10c0 11 1 12 5 9l9-5 9-5 2-2c-1 0-3-2-3-4l3-11c4-11 4-13 0-3zm5 13-1 4a83 83 0 0 1-5 23l-1 6 7-14c3-10 3-24 0-19z"/><path d="M108 188c-7 4-11 13-13 25l-1 5 6-6c5-5 7-6 13-5 6 0 10 8 9 15v3l6-7c12-15 12-19 1-22l-7-4c-7-6-9-7-14-4z"/><path d="M103 222c-5 3-5 3-1 2 4 0 5 0 7 2l2 3 1-2c0-3-2-7-4-7l-5 2z"/></svg>