<svg xmlns="http://www.w3.org/2000/svg" width="298" height="436" version="1.0" viewBox="0 0 224 327"><path d="M64 32c-6 0-13 5-14 11a16 16 0 0 0 4 17 16 16 0 0 0 17 3c4-2 9-5 11-10a15 15 0 0 0-7-18 21 21 0 0 0-11-3Zm95-1c-7 0-15 2-18 8-5 8-1 19 8 23 7 5 19 4 23-4 6-9 2-24-9-26l-5-1zm-6 101c-9 3-13 15-8 23a109 109 0 0 1 11 25c4 8 16 11 23 5 6-4 8-11 13-17 4-5 8-13 5-20-2-6-9-9-15-10l-22-6h-7zm-67 39c-8 2-13 10-12 18 0 7-1 16 6 21s17 3 22-3c5-4 10-11 8-18-1-7-8-12-14-16-2-2-6-2-10-2zm22 81c-7 2-11 10-11 17-1 10-2 22 5 29 8 8 22 5 26-5 5-12 4-29-7-38a16 16 0 0 0-13-3zm25-81c-7 3-12 8-16 13-6 7-3 18 4 23 6 4 8 12 16 14 9 3 20-6 19-16-1-8-2-17-5-26-3-6-11-10-18-8zM204 0c-11 1-21 6-33 8a391 391 0 0 1-93 4C62 11 47 7 31 2 22-1 10 0 4 9c-5 5-5 13-2 20 3 13 7 26 9 40 0 19-5 38-5 57 0 26-1 53 7 79 7 18 16 34 25 51a174 174 0 0 0 39 50c9 8 19 16 30 21 8 1 16-3 24-5 17-7 31-19 45-30a86 86 0 0 0 33-43c7-22 8-46 11-70 2-25 4-51-1-76-3-16-7-33-3-49 3-12 8-25 8-37-1-10-10-17-20-17Zm-44 46c1 4 0 6-3 3-3-1-8-3-2-3h5zm-94 1c5 0 0 1-2 2 0-1-1-3 2-2zm8 93c-1-1 1-1 0 0zm83 6c9 3 18 7 27 8l-14 22a80 80 0 0 0-15-31l2 1zm-46 9c1 1 0-1 0 0zm26 30c6 17 5 36 5 55 0 4-1 0-3-1a36 36 0 0 0-32-14c-6 1-13 3-18 7a1244 1244 0 0 1 0-47c7 8 17 16 28 14 9-2 14-9 20-14zm-26 81c5 4 5 12 4 17 0 3-1 7-4 3v-20z" style="fill:#fff;stroke-width:.22388"/><path d="M16 16c-2 2-2 3 3 20 7 28 8 34 4 60-4 37-3 82 4 103a431 431 0 0 0 37 72 154 154 0 0 0 42 39l5 3 6-2c13-3 19-7 42-24 32-24 37-33 42-77l7-59a160 160 0 0 0-3-44c-7-35-7-42 1-73 4-14 4-17 2-19-4-1-7-1-14 2-14 6-43 10-78 11-32 1-60-2-80-9-13-5-17-5-20-3zm15 8c10 3 10 4 13 10a33 33 0 0 1 1 22l-8 14-6 9-1-13c0-10-1-16-4-27l-3-17 8 2zm171-2-3 15c-3 12-4 16-4 28l-1 14-6-9c-8-11-10-15-10-24 0-6 0-8 3-13 3-6 3-6 11-9 9-3 9-3 10-2zM60 31c35 6 62 6 115-2l4-1-2 4c-2 4-2 7-2 14 0 9 2 15 7 21 11 14 19 35 21 61 2 18 1 24-10 38-14 19-17 29-15 60v26a48 48 0 0 1-13 23c-5 5-12 9-12 8a79 79 0 0 0 4-17c2-8 3-14 3-34 1-28 0-40-5-55-4-15-11-25-19-29-9-5-13-13-14-27l-1-8 4 3a318 318 0 0 0 61 24c2 0 3-1 5-4 3-6 3-21-1-30a85 85 0 0 0-28-38 120 120 0 0 0-19-9c-7-2-16-6-18-8-5-2-6-2-6-1-1 3 0 79 1 86 2 8 6 17 8 17l5-1c2-1 3 0 5 2l3 3-5 2a58 58 0 0 0-9 5c-12 9-15 9-27 1a71 71 0 0 0-13-7l-5-1 3-2c2-2 4-2 8-1 2 1 6-5 8-13 1-5 2-12 2-49V48l-6 4a71 71 0 0 1-16 6c-14 5-18 7-27 16S39 91 36 99c-3 11-2 26 3 32l2 3 3-2 10-5c1 0-1 10-4 17a61 61 0 0 0-3 12c-1 4-1 4 2 6 5 4 11 2 13-4 1-2 1-5-1-9l-6-21a30 30 0 0 1 11-2 69 69 0 0 0 32-10l2-2v5c0 6-3 18-6 24-2 5-3 5-6 6-5 1-11 6-14 13s-4 16-4 40a358 358 0 0 0 7 73c-1 1-9-9-12-14-4-7-7-18-11-36-4-25-10-40-21-57-7-12-8-16-7-38 1-27 2-39 7-47l7-12a37 37 0 0 0 9-24c1-7 0-9-2-13-2-6-2-6 0-5l13 2zm40 31v8l-4 3-15 6a48 48 0 0 0-26 14 48 48 0 0 0-15 30c0 7-2 1-2-8a38 38 0 0 1 7-27 60 60 0 0 1 36-26 99 99 0 0 0 19-8v8zm39-1 14 5c14 7 32 30 37 48a28 28 0 0 1-1 18c-1 2-1 2-3-5-5-23-23-44-40-47a94 94 0 0 1-21-8c-3-2-3-2-3-10v-9l4 3 13 5zm-39 43c0 10-10 16-38 19l-14 3c-4 3-4 2 0-3 5-5 11-8 23-10 13-3 21-6 25-10l4-4v5zm28 0 16 8 20 10 19 14a280 280 0 0 1-57-24c-3-2-4-3-4-8l1-4a15 15 0 0 0 5 4zm-39 61a51 51 0 0 1 10 9c7 8 10 11 14 11 3 0 5-2 13-9 8-8 10-9 13-9 5 0 7 1 10 7 6 12 9 39 7 68-1 20-2 28-6 36-3 6-12 17-15 17l-2-19c0-20-1-25-6-30-8-8-23-9-30-1-3 5-5 11-5 30v16l-5-5c-4-5-5-6-7-15-5-19-6-31-6-66 0-32 0-37 4-41 1-2 6-2 11 1zm110 8a587 587 0 0 0-4 43c-1 24-3 31-9 39-5 5-6 6-4 1 2-4 2-14 0-23l-1-18c0-12 2-19 6-28a133 133 0 0 1 13-20l-1 6zm-167 4c9 13 16 31 20 50 3 16 3 16-5 2l-11-19a107 107 0 0 1-8-30l-1-8c-1-3-1-3 5 5zm84 75c12 3 17 19 13 38-2 7-4 10-11 12l-6 2-8-5-8-5v-18c0-20 1-22 7-24 5-2 8-2 13 0z"/><path d="M101 191c-6 1-11 5-14 11-3 5-3 7-5 17l2 25 2-2c4-8 15-14 27-13 11 0 24 8 28 17l2 4 2-4a48 48 0 0 0-3-37c-8-16-23-23-41-18z"/></svg>