<svg xmlns="http://www.w3.org/2000/svg" width="391.882" height="386.4" version="1.0" viewBox="0 0 293.912 289.8"><path d="M107.078 184.18c-.932.124-1.827.435-2.736.662-1.286.395-2.32 1.497-2.61 2.813-.346 1.395.103 2.985 1.23 3.904.9.789 2.18 1.056 3.337.802.817-.103 1.668-.147 2.407-.553 1.043-.532 1.986-1.382 2.345-2.527.542-1.535.003-3.388-1.32-4.35a3.858 3.858 0 0 0-2.653-.75zm-6.713 1.116c-1.768-.07-3.87.341-4.654 2.13-1.177 2.256-.335 5.679 2.318 6.42 1.57.543 3.349-.179 4.608-.79 2.84-1.405 2.679-6.163-.261-7.383a4.601 4.601 0 0 0-2.011-.377zM93.938 219.6c-2.382.045-4.184 2.265-4.21 4.56-.422 3.83.499 7.841 2.933 10.88 3.709 4.743 9.799 7.369 15.76 7.376 2.13.1 4.282-.55 5.837-2.05 3.413-2.888 5.272-7.156 6.404-11.384.489-2.046.43-4.765-1.676-5.864-1.975-1.24-4.22.321-6.333-.225-.696-.046-1.434-.024-2.075.28-1.457-1.546-3.585-2.98-5.782-2.146-2.103.446-4.38 1.323-6.513.608-1.04-.88-2.095-1.94-3.556-2.013a4.402 4.402 0 0 0-.79-.022zm15.543-12.595c-7.221.822-17.291 5.983-15.553 14.644 2.122 6.357 9.8 3.468 14.17 2.226 2.978 4.908 13.89 3.274 11.99-3.638-1.36-5-4.467-13.108-10.607-13.232zm37.258-166.874c-8.71.48-16.298 7.355-18.065 15.83-1.978 6.272-1.748 13.591 2.341 18.99 4.55 6.785 13.563 9.425 21.301 7.411 6.53-.684 12.94-4.145 16.112-10.051 4.336-7.273 2.823-17.044-2.862-23.168-4.533-5.675-11.371-9.687-18.827-9.012zm19.808 19.128c-5.966.25-10.938 4.123-16.864 4.63-6.596 1.527-13.596 1.58-19.878 4.21-7.102 3.343-10.497 10.92-13.076 17.87-4.756 5.161-8.233 11.359-12.3 17.057-1.331 2.442-2.634 4.73-4.918 6.4-9.052 11.32-16.295 24.729-17.557 39.397-.598 8.503-1.647 17.144-.475 25.618 2 9.222 11.486 15.508 20.748 14.421 2.13-.041 4.54-.803 6.323-1.325-1.784 8.81 3.118 17.652 10.399 22.444 2.16 1.483 1.868 4.754 3.143 6.956 2.118 6.608 8.632 12.232 15.881 12.927 8.479 1.322 16.67-3.438 21.394-10.278 3.14-3.988 6.14-8.376 6.89-13.514-.329 2.047.266-3.382 2.262-2.96 7.148-4.483 10.114-13.019 16.58-18.28 3.219-2.648 6.56-5.243 10-7.521 6.249-3.308 12.487-7.806 14.56-14.924 2.105-6.157 5.752-12.01 5.812-18.672 3.905-4.983 6.535-10.889 8.884-16.727 2.183-7.104-2.595-14.21-.405-21.293 2.905-7.73.83-17.156-5.843-22.27-6.28-4.873-14.815-4.416-21.647-8.224-8.43-3.59-13.892-11.784-22.522-14.943-2.414-.785-4.865-1.001-7.39-.999zm77.826 8.63c-9.536.053-17.752 7.766-19.403 16.99-2.778 9.427 1.989 20.578 11.286 24.25 8.253 3.06 18.468 4.43 25.898-1.384 8.044-5.835 9.84-17.845 4.599-26.13-4.433-8.092-12.957-13.97-22.38-13.725ZM109.966 188.436c-8.714-.284-16.662 4.283-22.663 10.279-5.275 4.31-9.547 9.886-11.469 16.489-2.502 5.048-2.862 10.695-3.669 16.157-2.83 8.608.518 18.961 8.574 23.462 3.322 2.032 7.702 2.397 9.944 5.982 5.762 6.703 14.445 11.172 23.43 10.206 7.244.067 15.035-2.577 18.861-9.115 3.802-5.308 3.28-12.146 2.055-18.204.434-2.427 3.319-3.502 4.389-5.642 5.598-6.76 6.147-17.274.734-24.284-1.91-12.473-11.994-24.19-25.057-25.139-1.703-.177-3.418-.214-5.13-.19zm.797 21.786c2.578 2.217 4.596 4.812 5.581 8.105 1.369 2.958.744 6.501.82 9.664-1.053 4.045-3.01 8.539-6.734 10.634-7.679 1.109-17.392-4.139-17.163-12.718.21-7.805 7.124-14.266 14.67-15.142.937-.144 1.873-.691 2.826-.543zM145.748.01c-8.97.105-16.826 6.787-19.325 15.248-2.798 6.777-4.605 14.767-.945 21.599 4.4 9.673 16.181 15.67 26.447 12.01 6.798-2.42 12.61-7.7 15.927-14.057 2.625-6 1.222-12.635-1.252-18.424C164.52 8.644 158.505 1.63 150.309.33c-1.498-.297-3.037-.358-4.56-.321zm15.472 23.77c-10.552.452-19.24 10.506-18.35 20.994.342 9.647 8.35 16.083 14.583 22.408 10.227 9.803 20.557 20.172 33.604 26.151 10.666 3.995 21.992 6.052 33.238 7.56 10.251.937 19.69-8 20.043-18.158.742-3.928 3.447-7.346 4.958-11.079 3.193-6.82 7.862-13.965 5.886-21.848-1.827-9.665-11.837-16.486-21.498-15.059-7.838 1.202-14.673 5.576-21.764 8.846-1.88-.954-3.133-2.376-3.705-4.427-5.904-11.794-21.355-17.92-33.53-12.401-4.28-1.78-8.737-3.4-13.466-2.987zm66.435 37.82c-.526-.058-1.094-.142 0 0zm12.853 30.525c-8.247-.062-14.842 5.62-19.913 11.53-8.857 9.606-16.335 20.602-20.767 32.96-2.862 7.06-5.241 14.314-8.385 21.256-9.017 6.065-18.888 11.417-25.489 20.34-9.046 11.215-15.478 23.905-24.975 34.7-5.866 6.116-12.978 10.853-19.049 16.719-6.684 7.116-7.265 18.8-1.714 26.728 2.935 7.723 4.74 15.915 8.43 23.363 6.095 11.218 23.266 13.576 32.172 4.514 5.442-5.588 6.285-13.807 9.121-20.79.71-2.132.92-4.946 3.878-4.37 8.042-1.206 16.772 2.15 24.135-2.436 4.893-3.037 8.477-7.883 11.267-12.742 1.734-2.046 3.824.718 5.73 1.143 8.497 3.741 17.164 9.73 26.893 8.078 9.536-1.42 16.889-10.848 15.866-20.456-.929-7.327-5.457-13.507-8.341-20.162-.994-2.001-1.897-3.82-2.854-5.775 12.787-5.467 20.003-21.661 14.777-34.695-.244-3.216 2.07-4.173 4.81-4.742 8.196-3.262 18.088-4.623 23.792-12.05 6.704-8.189 4.76-21.499-3.877-27.556-6.899-4.69-15.34-6.195-23.006-9.222-1.739-1.254-1.221-4.485-1.917-6.573.467-10.035-8.037-19.264-18.062-19.701a26.54 26.54 0 0 0-2.522-.06zm-103.504 171.82c-.605-.047.574-.055 0 0zm-8.79-239.774c-4.382-.111-8.298 2.072-12.482 2.921-8.754-4.202-19.734-2.429-26.756 4.264-3.264 2.869-5.806 6.496-7.706 10.387-7.278-3.252-14.229-7.744-22.162-9.182-10.196-1.609-20.685 6.043-22.055 16.314-1.505 8.977 4.078 16.843 7.475 24.678 1.328 1.884 2.317 4.565-.829 4.932C32.98 82.77 25.835 94.48 27.42 106c.11 2.97 1.516 5.801 2.13 8.547-.758 1.821.004 4.95-2.7 5.042-6.963 2.815-14.884 3.842-20.806 8.74-7.16 6.523-7.626 17.896-3.145 26.035 3.354 6.02 10.053 8.482 16.315 10.26l9.744 3.24c.515 2.103 1.27 4.188.04 6.184-3.448 11.408 1.39 24.979 12.07 30.712 1.656 1.02 5.563 1.989 3.992 4.536-3.204 7.33-7.737 14.314-9.032 22.313-1.319 10.397 6.928 20.818 17.435 21.61 5.989.886 11.592-2.007 16.89-4.156 9.688.774 19.274-6.549 20.51-16.287.524-2.97-.254-6.04 1.427-8.77 5.477-12.378 6.47-26.037 6.798-39.394.549-12.267.187-24.608 1.496-36.822 2.21-12.396 9.818-22.816 17.58-32.37 9.84-13.58 19.226-27.781 25.275-43.503 3.352-10.135 6.124-20.921 4.964-31.665-1.567-9.486-10.607-16.62-20.19-16.081zM78.842 50.453c.035-.617.06-.573 0 0zM56.187 242.899c-1.374-1.346-1.32-1.515 0 0z" style="fill:#fff;stroke-width:.0382577"/><path d="M143.44 22.561c-1.3 4.1-2.7 7.5-3 7.5-.4 0-2-.4-3.6-.9s-4.7-1.2-7-1.5c-3.7-.5-4.2-.3-5.3 2-.9 2-.8 2.8.4 4 .8.9 1.8 2.7 2.1 4.2.3 1.5.7 3.3.9 3.9.3.7-.8 1.6-2.3 1.9-1.5.3-4.9 1.2-7.6 2-4.3 1.2-5.2 1.2-6.6-.1-.9-.8-3-1.8-4.8-2.1-2.6-.5-3.6-.1-6.2 2.4-1.6 1.7-3 4.1-3 5.4 0 1.8-1.7 3.4-7.2 7.1l-7.3 4.9-14.4-7.2c-7.9-3.9-14.5-6.9-14.8-6.7-.2.3 2.8 6.9 6.7 14.7l7.1 14.1-5.7 8.5c-5 7.2-6.2 8.4-8.6 8.4-6.5 0-10 8-5.8 13.3l2 2.5-2 8.4c-1.1 4.5-2 9.5-2 11 0 2.5-.7 2.9-15.7 7.9l-15.8 5.2 15.5 5.2 15.4 5.1.8 4c.4 2.1 1.5 7 2.4 10.7 1.4 6.3 1.4 7 0 8.6-2.6 2.9-2.1 8.6 1 11 1.5 1.2 3.6 2.1 4.8 2.1 1.6 0 3.5 2.1 7.4 8.1 2.9 4.4 5.2 8.4 5.2 9 0 .5-3.1 7.2-7 14.9-3.8 7.7-7 14.2-7 14.5 0 .3 3.7-1.3 8.2-3.6 7.7-3.9 8.3-4 9.3-2.3 2.2 4 7.4 8.4 9.8 8.4 1.4 0 5.5.9 9.2 2.1 5.7 1.7 7.6 3 12.2 7.7l5.4 5.7h7.2c7.5-.1 12.3-1.9 19.2-7.1l3.1-2.3 4.9 14.9c2.7 8.2 5.1 14.7 5.5 14.4.3-.3 2.8-7.4 5.6-15.7l5.1-15.2 8.4-1.8c9-2 12-2.2 18.6-1.2 3.4.6 4.5.3 6.2-1.4 1.2-1.2 2.1-3.1 2.1-4.4 0-1.6 1.9-3.4 7.8-7.2 4.2-2.7 8.2-5.1 8.9-5.3.6-.2 7.9 3.1 16.2 7.3 8.3 4.1 15.1 7.3 15.1 7 0-.3-3.4-7.4-7.6-15.8l-7.6-15.2 4.8-7.7c4-6.3 5.4-7.7 7.5-7.7 5.5-.2 9.5-9.7 5.3-13.2-.9-.8-1.3-2-.9-3.3.3-1.2 1.4-5.9 2.4-10.6l1.8-8.5 16.4-5.6 16.4-5.6-16.3-5.4c-13.2-4.4-16.4-5.8-16.7-7.4-.2-1.1-1.1-5.7-2.1-10.2l-1.7-8.1 5-5c5.3-5.3 8.1-12 6.9-16.7-1-3.9-7.3-7.4-16.2-9-4.4-.8-9.1-1.4-10.7-1.5h-2.7l7-14c3.8-7.7 7-14.2 7-14.5 0-.3-6.3 2.6-13.9 6.4l-13.9 7-9.1-6c-7.9-5.3-9.1-6.5-9.1-8.9 0-5.7-8.4-9.1-12.6-5.1-1.9 1.7-2.3 1.8-8.5.2-3.9-1-8.6-3.2-12.1-5.6-5.6-3.9-5.8-4.2-8.9-13.5-1.7-5.2-3.5-9.8-3.8-10.3-.4-.4-1.8 2.6-3.1 6.8zm-1.5 10.7c9.7 3.2 16.4 7.9 26.3 18.7 9.1 9.8 21.8 20.3 29.2 24.1 4.3 2.2 19.1 5.3 33 7 5.2.6 10.9 1.6 12.7 2.1 11.9 3.7 11 13.6-2.3 24.5-6.8 5.6-15.7 16.5-19.7 24.3-1.9 3.6-5.6 12.7-8.2 20.1-2.7 7.8-5.7 14.6-7.1 16-1.3 1.4-6.4 5-11.5 8-10.5 6.4-13.3 9.4-25.1 27.5-11.4 17.5-14.3 20.7-28.3 32.1-13.8 11.1-20.7 14.9-27.9 14.9-4.4 0-5.2-.4-8.5-4-6.3-7.1-8.7-8.3-24.7-12.4-7.7-2-9.5-8.2-5.1-18.1 4.8-10.8 5.8-18.6 6.2-45.5.2-21.5.6-26.1 2.4-32.8 2.8-10.5 8.7-21.6 16.6-31 6.8-8 16.9-23.7 22.3-34.3 4.8-9.4 7.3-18.2 7.8-27.4.5-7.2.3-9.1-1.4-12.2-1.1-2.1-1.7-4-1.4-4.3.9-.9 7.8.4 14.7 2.7z"/><path d="M167.54 70.961c-5.5 5.5-9.2 7-25 10.1-11.1 2.3-16.4 4.4-19.6 8l-2 2.3 2.5-1.6c4.5-2.9 11.3-4.8 24.4-6.7 9.4-1.5 14.1-2.7 17.8-4.7 5-2.7 8.8-6.9 8.8-9.6 0-3.3-2.1-2.6-6.9 2.2zM209.64 93.561c-5.9 9.1-6.4 16.9-2.2 32 1.7 5.9 1.9 6.3 1.5 2.5-.3-2.5-.8-9-1.1-14.5-.6-9.8-.6-10.1 2.6-15.8 4.1-7.8 3.5-11-.8-4.2zM176.44 92.561c-4.1 4.9-11.1 5.6-24.7 2.4-9.8-2.3-15.9-2-23 1.1-4.4 1.9-11.6 7-11 7.6.2.3 3.9-1.2 8.2-3.2 9.7-4.5 15.1-4.7 28.9-1 15.1 4 18.6 3.5 22.6-3 2.4-3.8 1.5-7-1-3.9zM186.04 102.161c-3.7 4.4-3.4 8.6.8 13.5 1.9 2.2 4.9 6.9 6.8 10.5 3.2 6.1 3.3 6.9 3.3 17.7 0 10.8.1 11.2 1.5 8 .9-1.9 1.5-6.4 1.5-10.8 0-7.1-.3-8.2-5.7-19.5-3.2-6.6-5.8-12.9-5.8-14 0-1.1.7-3.3 1.5-4.9 1.8-3.5 1.8-3.6.1-3.6-.8 0-2.6 1.4-4 3.1zM119.84 117.961c-5 2.3-6.4 4.1-3.3 4.1 1.2 0 5.1 1.6 8.5 3.4l6.3 3.5 5.9-2.9c3.2-1.6 6.8-4 8-5.3l2.3-2.4-7.3-.7c-4-.3-9.3-.8-11.8-1.1-3.2-.4-5.7 0-8.6 1.4zM169.44 135.061c-1.9 7.8-.9 11.4 5 17.6 2.8 3 5.3 6.6 5.6 8.4 1 4.6 2.2 4.5 2.9-.2.8-5.7-1-11.3-7.2-22.1l-5.1-8.8zM94.54 141.761c-4 4.8-6.3 11.6-5.1 14.8 1.2 3.2 4.6 4.1 7.1 1.9 2.3-2 2.4-4.2.4-6.8-1.9-2.5-1.9-5.7-.1-10.1.8-1.9 1.3-3.5 1.1-3.5-.2 0-1.7 1.7-3.4 3.7zM149.64 158.261c-1.7 4-3.7 9.9-4.5 13.1-.9 3.3-1.7 6-1.9 6.2-1.3 1.3-12.4 7.5-13.5 7.5-2 0-4.3-5.5-4.3-10.4 0-3.5.6-5.3 2.8-7.8 1.6-1.8 4.3-5.6 6.1-8.3l3.2-5-3.3 4c-9.2 11.2-11.4 11.8-10.3 2.7l.7-5.5-2.9.7c-4.2 1.1-10.8 5.2-14.9 9.4-7.5 7.7-17.6 28.4-18.8 38.7-.6 4.6-.4 4.5 1.7-2.5 5.5-18.2 13.8-32.2 23.6-39.6 5.9-4.6 8.5-4.3 8.9 1.1.1 2.2.7 4.9 1.2 6 .4 1.1 1.1 6 1.3 10.8.6 10.5 1.5 12 5.4 8.9 1.6-1.2 5.7-3.7 9.3-5.6 3.6-1.8 7.4-4.2 8.5-5.2 1.2-1.1 1.9-1.8 1.6-1.7-.9.6-3.1-2-3.1-3.7 0-1 1.6-5.9 3.6-11 4.2-11 3.9-13.2-.4-2.8zM154.74 170.961c-.7 1-.9 2.8-.6 4 .6 2.3-2 14.7-4.8 22.9-1 3-1.7 5.7-1.5 5.9.7.8 4.9-7.4 7.2-14.1 3.4-9.8 3.1-24.1-.3-18.7z"/><path d="M107.84 187.961c-6.4 3.9-10.8 12.6-12.9 25.1l-.7 4.5 5.5-5.3c5.5-5.1 7.4-5.9 13.7-5.3 5.3.5 9.6 7.7 8.8 14.7-.2 1.9-.3 3.4-.2 3.4.1 0 2.8-3.3 6.1-7.3 11.9-14.3 12.2-19.1 1.4-21.6-2.7-.6-5.7-2.3-8-4.4-6.4-6.1-8.8-6.8-13.7-3.8z"/><path d="M103.04 222.061c-5.3 2.7-5.4 2.9-.7 2.3 3.4-.5 4.3-.2 6.4 2.1l2.5 2.6.5-2.2c.7-2.5-1.6-6.8-3.6-6.8-.6.1-3 1-5.1 2z"/></svg>