<svg xmlns="http://www.w3.org/2000/svg" width="298.061" height="435.957" version="1.0" viewBox="0 0 223.546 326.968"><path d="M64.169 31.968c-6.618-.016-12.836 4.74-14.524 11.144-1.775 5.86-.46 12.832 4.3 16.925 4.409 4.16 11.27 4.924 16.727 2.495 4.743-1.62 9.18-4.913 10.887-9.78 2.588-6.48-.14-14.528-6.168-18.059-3.29-2.121-7.381-2.658-11.222-2.725Zm94.359-.764c-6.661.338-14.158 1.694-17.782 8.007-5.028 7.976-.627 19.091 7.937 22.482 7.464 4.975 18.872 3.955 23.684-4.188 5.878-9.018 1.697-23.542-9.481-25.877-1.445-.25-2.885-.502-4.358-.424zm-5.996 101.044c-8.986 3.012-12.768 14.593-7.841 22.532 5.18 7.77 8.632 16.456 11.664 25.24 3.921 8.376 15.623 11.235 22.89 5.485 5.557-4.528 7.905-11.698 12.355-17.194 4.405-5.573 8.676-12.865 5.447-20.03-2.408-6.208-8.901-9.232-15.176-9.792-7.563-1.933-14.845-5-22.38-6.86-2.38-.1-4.678-.207-6.96.62zm-66.595 38.986c-7.992 1.735-12.891 9.943-11.901 17.843-.182 7.421-.742 16.291 6.066 21.153 6.728 5.106 16.455 2.94 21.658-3.332 5.514-4.194 10.616-10.755 8.492-18.054-1.626-7.096-8.274-11.538-13.716-15.73-3.08-2.092-6.994-2.298-10.599-1.88zm22.502 81.09c-7.582 2.01-11.57 9.644-11.822 17.05-.39 9.643-1.973 21.21 5.614 28.664 7.349 7.557 21.294 4.677 25.293-5.002 5.01-12.348 4.32-28.74-6.233-38.036-3.707-2.818-8.338-3.571-12.852-2.677zm24.459-81.181c-6.645 2.591-11.608 8.256-16.375 13.328-5.931 7.008-2.809 18.112 4.755 22.633 5.763 3.943 7.863 12.353 15.5 13.574 9.46 2.934 19.689-5.563 19.08-15.357-.746-8.715-2.025-17.568-4.865-25.855-3.022-6.832-10.95-10.342-18.095-8.323zM204.055.02c-11.282.658-21.475 6.402-32.63 7.94-30.59 5.895-61.93 5.86-92.93 4.387C62.261 11.1 46.52 6.749 31.042 1.937 21.66-.938 9.683-.268 3.698 8.604c-4.977 5.6-4.202 13.418-1.913 20 3.015 13.32 7.429 26.453 8.69 40.094.43 19.233-4.112 38.163-4.14 57.396-.392 26.382-.843 53.415 6.813 78.935 6.607 17.6 15.801 34.105 24.614 50.672 10.193 18.852 22.744 36.662 39.146 50.636 9.181 7.749 18.589 15.919 29.94 20.245 8.268 1.649 16.263-2.387 24.073-4.576 16.733-7.059 30.823-18.922 45.226-29.732 14.43-11.01 27.367-25.136 32.579-42.905 6.828-22.748 8.017-46.66 10.897-70.11 2.754-25.435 4.725-51.403-.727-76.642-3.137-15.967-6.96-32.55-2.593-48.69 2.267-12.426 7.44-24.495 7.237-37.26-.508-9.943-9.865-17.105-19.485-16.646Zm-43.813 46.022c.681 3.8.303 5.673-3.431 3.122-3.125-1.301-7.522-2.707-1.777-2.778 1.442.138 4.362-1.13 5.208-.344zm-94.62.964c5.145.062.107 1.366-1.845 2.202.307-1.597-.556-3.098 1.845-2.202zm8.105 92.552c-.613-.46 1.581-.455 0 0zm83.553 6.454c8.684 3.047 17.335 6.545 26.475 7.953-4.97 6.902-10.143 13.75-13.77 21.488-3.054-10.756-7.268-21.47-14.53-30.123l1.825.682zm-45.756 8.9c.397 1.093-.697-.853 0 0zm25.954 29.718c4.94 17.815 4.865 36.588 4.31 54.93.334 3.967-1.116.647-2.492-.98-7.523-9.776-20.089-14.85-32.3-13.426-6.487.528-12.898 2.966-17.759 7.356-.433-15.781-.447-31.574-.24-47.36 7.116 7.906 16.927 16.299 28.393 13.546 8.33-1.767 13.998-8.7 20.088-14.066zm-26.085 81.152c5.039 3.985 4.843 11.682 3.802 17.446-.334 2.617-.963 6.483-3.86 3.15-.644-6.43-.037-13.95.058-20.596z" style="fill:#fff;stroke-width:.22388"/><path d="M15.996 16.307c-1.8 2-1.8 2.4 2.7 19.3 7.7 28.8 8.1 34.5 4.7 60.8-4.7 36.1-3.3 81.5 3.2 103 3.9 12.8 26.3 55.5 37.5 71.4 10 14.3 27.9 31 41.9 39.2l4.5 2.6 6.7-1.6c12.4-3.1 18.9-6.9 41.7-23.9 32.1-24 37.3-33.4 42.5-77.2 2.2-17.8 4.2-37.2 6.1-58.9 1.2-13.9.2-30.1-2.7-44.1-7.3-34.9-7.2-42.4 1.1-72.6 4-14.5 4.3-17.4 1.6-18.9-3.1-1.6-6.2-1.2-13.2 1.6-14.6 6-43.7 10.1-77.9 11.1-32.2.9-60.9-2.4-80.4-9.3-13.3-4.7-17.5-5.2-20-2.5zm15.2 7.8c9.5 3.3 10 3.6 12.8 9.8 2.8 5.9 3.2 14.6 1 21.9-.8 2.7-4.3 9.1-7.8 14.2l-6.3 9.4-.6-13.2c-.6-10.5-1.4-16.2-4.3-27.3-3.5-13.8-4.2-17.5-3-17.5.3 0 4 1.2 8.2 2.7zm170.6-1.8c.3.5-1 7.1-3 14.7-3.1 11.8-3.7 16-4.2 28.1l-.4 14.2-6.5-9c-7.8-10.9-9.5-15.3-9.6-24.6 0-6 .4-8 2.9-12.8 2.9-5.7 3-5.8 10.9-8.5 9.3-3.3 9.2-3.3 9.9-2.1zm-141.4 9c35 6 62.1 5.4 114.7-2.5l4.2-.6-2.2 4.3c-1.8 3.6-2.2 6-2.1 12.9.2 9.8 1.9 15.2 6.7 21.3 11.6 14.4 18.9 35.1 21.7 61.1 2 18.2.3 24.5-10.5 38.6-14 18.4-16.5 28.5-14.5 60 1.1 17.4 1.1 20.2-.4 25.9-2.3 9.1-7.1 17.5-13.1 23-4.8 4.3-11.5 8.5-12.3 7.6-.2-.2.3-1.6 1.1-3.2.8-1.5 2.5-7.5 3.7-13.3 2-8.8 2.4-14.4 2.8-34.5.5-27.8-.6-40.2-5-55-4.4-14.8-11-25-18.9-29-9.2-4.7-13.3-12.4-14.6-27.3l-.6-7.4 4.4 3.1c7.5 5.3 52 22.4 60.3 23.3 2.4.3 3.2-.3 5-3.7 3.2-6 2.9-20.5-.6-29.7-5.7-15.3-17-30.6-28-38.1-2.9-2-11.4-5.9-18.8-8.7-7.4-2.8-15.9-6.4-18.8-8.1-4.4-2.5-5.3-2.7-5.8-1.4-1.1 2.8.3 78.7 1.6 86.1 1.3 7.8 5.7 17 8 16.7.8-.1 2.7-.5 4.2-.9 2.1-.5 3.3 0 5.5 2.2l2.7 2.7-4.4 1.9c-2.5 1.1-6.7 3.6-9.5 5.7-11.8 8.9-15.2 9-27.1 1-4.4-2.9-10.1-6.1-12.9-7l-4.9-1.6 2.7-1.8c2.4-1.6 4-1.6 8.6-.4 1.9.5 5.5-5.9 7.7-13.6 1.5-5.1 1.8-12.2 2.2-49.3.2-27.9 0-43.2-.6-43.2s-3.2 1.5-6 3.3c-2.7 1.9-9.6 4.9-15.3 6.7-14.4 4.5-18.8 7-27.3 15.1s-14.7 16.9-17.6 25.4c-3.7 10.7-2.4 25.5 2.9 32.4l1.9 2.4 2.8-2.2c2.6-2 8.7-5.1 10.2-5.1 1.3 0-1 10.2-3.8 17-1.7 4.1-3.4 9.6-3.7 12.1-.5 4.1-.3 4.8 2.2 6.7 5.2 4.1 11.6 2 13.4-4.4.6-2.3.4-4.5-1-8.5-2-5.4-5.9-20-5.9-21.6 0-.5 4.6-1.5 10.3-2.1 15.4-1.8 24.2-4.5 32-9.6l2.7-1.8v4.4c0 5.9-3.2 18.4-6.4 24.6-2.2 4.3-3 5-6.3 5.5-4.7.8-10.3 6.2-13.2 12.7-3.4 7.7-4.3 16.5-4.3 40.5s2.5 52.9 5.7 66.4c.9 3.5 1.4 6.6 1.2 6.8-.6.5-8.9-9.5-12-14.3-4.2-6.7-7.5-17.9-10.7-36-4.3-24.8-9.9-40-21-57-7.7-11.7-8.4-15.4-7.7-37.4.9-27.4 2.8-39.6 7.2-47.7 1.9-3.5 5.3-8.8 7.5-11.7 6.2-8.2 8.3-13.9 8.8-23.7.4-7.2.1-9.4-1.7-13.4-2.5-5.7-2.5-5.8-.3-5.1.9.3 6.9 1.4 13.2 2.5zm40 30.6v8.4l-4.6 2.7c-2.6 1.5-9.4 4-15.2 5.6-12.6 3.4-17.8 6.3-25.8 14.3-8.4 8.3-14.3 20.8-14.4 30.4-.1 6.9-2.2.4-2.7-8.3-.7-10.6 1.2-17.1 7.7-27 9.2-13.7 18.8-20.8 35.4-26.2 6.1-1.9 12.9-4.6 15.1-5.9 2.2-1.3 4.1-2.4 4.3-2.5.1 0 .2 3.8.2 8.5zm38.2-1.2c4.7 1.4 11.1 3.7 14.2 5.2 14.5 6.9 32.5 30.4 37.2 48.5 1.6 6.5 1.3 12.9-.9 17.7-1 2.3-1.3 2-2.9-4.8-5.6-22.8-23.3-43.9-39.8-47.4-6.8-1.5-18.3-5.6-21.2-7.6-2.7-2-2.8-2.3-2.8-10.5v-8.4l3.9 2.4c2.1 1.4 7.7 3.6 12.3 4.9zm-38.2 43.1c0 10.4-10.6 15.7-37.9 19-7 .9-13.4 2.2-14.7 3.1-4 2.6-4 1.7.1-2.6 5.5-5.6 11.3-8.3 23-10.7 13-2.6 21-5.7 25.4-9.8 2-1.8 3.7-3.4 3.9-3.4.1 0 .2 2 .2 4.4zm27.3.4c2.3 1.6 9.6 5.2 16.2 8 6.6 2.9 15.5 7.4 19.7 10 9 5.4 20 13.3 19.4 13.9-.2.2-8.6-2.6-18.7-6.3-19.4-7-33.5-13.5-38.7-17.9-2.9-2.4-3.2-3.2-3.1-7.8 0-2.9.3-4.6.6-3.9.2.7 2.3 2.5 4.6 4zm-38.7 60.7c2.4 1.4 6.8 5.6 9.9 9.3 6.7 7.9 9.8 10.2 14.3 10.2 2.9 0 4.7-1.3 12.7-9 8.3-8 9.7-9 13-9 5.2 0 7.2 1.4 10 7 6.3 12.5 9.2 39 7.5 68.3-1.2 19.9-2.8 28.3-6.6 36.2-3 6-12.3 16.5-14.7 16.5-1.2 0-1.5-3.1-1.9-18.3-.6-19.9-1.6-24.8-6.6-30.1-8-8.5-22.6-8.9-29.4-.8-3.7 4.5-4.8 11-4.8 29.5v16.2l-5-5c-4.6-4.7-5.2-5.7-7.5-14.9-4.8-18.8-5.9-31.3-5.9-66.1-.1-32 .4-37.1 3.7-41.3 1.6-2 6.7-1.4 11.3 1.3zm110.4 7.6c-1 5.5-2.3 19.7-4 43.4-1.7 23.6-3.6 30.9-9.7 38.7-4.5 5.6-5.7 6-3.7 1.3 1.7-4.1 1.8-14.4.3-23.5-.6-3.6-1.1-11.5-1.1-17.5-.1-11.9 1.4-19 5.9-28 2.8-5.6 12.5-20.6 13-20.1.2.1-.1 2.7-.7 5.7zm-167.5 4.3c9.1 13.3 16 30.7 19.8 49.8 3.3 16.6 3.5 16.4-4.9 2.8-4.2-6.9-9.2-15.7-11-19.5-3.6-7.8-7.1-21-7.9-30-.4-3.3-.9-7.1-1.1-8.5-.7-3.1-.6-3 5.1 5.4zm83.9 74.8c11.9 3.6 17.5 19.8 13.2 38.2-1.7 7-4.2 9.7-11.5 12.5l-5.4 2-7.9-5.1-7.8-5.2v-18.2c0-20.3.4-21.6 7.1-24 4.5-1.6 7.3-1.7 12.3-.2z"/><path d="M101.196 190.807c-6 1.6-11.1 5.6-14.2 10.9-2.7 4.8-3.3 7.1-4.6 17-.9 7.2.4 23.3 1.9 25 .5.4 1.4-.6 2.1-2.2 3.3-8.1 14.7-13.7 26.5-12.9 11 .7 24.4 8.8 28.4 17.3l2 4 1.5-3.8c4.1-9.5 2.8-25.1-3-36.7-8.2-16.3-23.3-23.3-40.6-18.6z"/></svg>