<svg xmlns="http://www.w3.org/2000/svg" width="808" height="681" version="1.0" viewBox="0 0 606 511"><path d="m547 4-39 6c-27 4-55 5-82 9-8 1-15 7-20 12-12-13-32-13-48-15-33-2-65-7-98-11-12-2-23 7-33 13-17 9-33 21-43 37-21 7-42 14-63 18-10 3-21 2-29 10-16 12-22 33-32 50-17 36-35 71-50 108-6 17-11 36-2 53 7 14 20 27 37 27 21 2 43 1 63 9a9499 9499 0 0 1 88 29c-22 54-46 107-65 162-1 18-2 37 0 56 4 17 14 32 22 48 10 18 22 36 40 48 18 9 44 4 52-15 9-15 1-31-1-46-1-18 2-37 4-55 4-15 12-29 18-43 20-39 46-74 67-113 1-3 2-5 6-6a44 44 0 0 0 27-28c2-4 3-10 6-13 13-1 26-10 32-23a37 37 0 0 0 32 22c5 13 8 29 21 37a59 59 0 0 0 17 7c7 19 20 35 29 53 21 34 42 67 56 104 2 19 5 39 5 58-4 15-10 33-2 48a37 37 0 0 0 37 18c19-2 32-18 43-33 12-19 24-38 31-59 5-19 4-38 4-57-2-23-14-43-22-64a5829 5829 0 0 0-45-106c34-11 68-23 103-33 20-5 42-2 63-6 20-8 28-31 27-51s-11-39-18-57a6377 6377 0 0 0-49-100c-7-16-18-32-36-36-15-3-29-5-43-10l-33-11c-12-18-32-29-50-41a48 48 0 0 0-27-10Zm-43 107c7 0 9 10 2 13-7 4-13-12-4-13h1zm-199 1c9 0 2 16-4 11-6-3-6-10 1-11h3z" style="fill:#fff;stroke-width:1.01692" transform="scale(.75)"/><path d="m192 30-9 5c-11 7-24 17-25 22-1 2-1 2 1 3l3 1a519 519 0 0 0-55 18h-9l-3 2-7 1h-5l-6 10a625 625 0 0 0-17 36 495 495 0 0 1-16 32 57 57 0 0 0-5 10l-6 16c-6 14-7 20-4 24l2 4c1 1 3 2 11 2h13l12 2 15 2 72 25a2579 2579 0 0 0 78 25l12 3h2l1-1c2 0 4-5 4-8l1-2 2-3c1-3 0-4-4-8l-5-5 2-6c2-5 3-6 5-7l14 4 13 4 3-21v-8l-9-2-12-3-3-1v-7c0-8-1-8 15-5l12 2c1-1 5-27 4-28l-12-2-13-3-1-11h6l13 2h9v-30h-14l-14-1v-7l1-8 14-1 13-1V75h-4l-16 2c-11 0-11 0-11-2l-5-21-3-4c-1-2-1-2 3-2a769 769 0 0 1 29-3l3-5-9-1-17-2-18-1-12-2-14-1-13-2-7-1c-3-2-3-2-5 0zm-20 28v1l-4 1-6-1-4-2h7l7 1zm73 9c2 2 2 5 2 10l1 9c1 1 0 9-3 19-1 3-1 3 1 3 3 0 4 2 4 10v6h-4l-4 1-2 12-1 13h5l6-1v14l-6-1h-7v10l-2 13c0 2 0 2 6 3l7 1-1 7c-1 7 0 7-11 6h-4v5l-1 12v6l5 2 6 2-1 6a39 39 0 0 1-2 7l-1 3-17-6-41-14a919 919 0 0 0-41-14 634 634 0 0 0-84-17l-4-1-2-1c0-2 6-17 23-55l15-34c0-1 6-4 19-8 9-3 130-31 135-31 2 0 3 1 4 3z"/><path d="m224 81-11 3-2 1c-3 0-4 4-3 11 0 5 1 6 5 9l4 4 9-1h9V96l1-14-1-2-11 1zm-4 44c-7 1-9 1-10 3-2 3-3 5-1 6v2c-1 2 0 5 3 5l1 2 4 4a66 66 0 0 1 5 2l5 1c4 0 4 0 4-5l2-13c0-9 2-8-13-7zm-17 40c-1 2 0 5 3 6 2 1 2 1 0 1s-3 1-5 4c-1 3-1 3 1 6 2 2 4 2 14 3l12 1 1-12 1-12h-13c-13 0-13 0-14 3zm-7 36c-1 3 0 5 3 5 2 1 2 1 0 1-1 0-3 1-4 4-3 6-2 8 5 8l15 2a73 73 0 0 0 11 3l1-12v-12l-8-1a122 122 0 0 0-15-1c-6 0-7 0-8 3zM408 30l-6 1-39 5a200 200 0 0 1-19 1l-26 3 2 3c1 2 3 2 13 3l17 2h4l-2 4a16 16 0 0 0-2 5l-1 2a39 39 0 0 0-3 10l-1 8h-11l-16-2h-4v31h9l14 1h5v17h-28v15l1 15 25-3c2 0 2 1 2 6v7l-9 1c-20 3-17 2-17 6l4 24c1 1 4 0 13-1l13-2 1 7 1 7-12 3a460 460 0 0 0-13 3l3 29 12-4 14-3c4-1 4-1 6 6l2 6-4 5c-5 3-5 4-4 7l2 4 1 3c0 4 1 7 3 7l1 1h2l14-4 76-24a2267 2267 0 0 1 77-26l26-3h20l2-4c3-7 2-12-4-28l-6-14a563 563 0 0 1-21-44l-18-35c-5-10-5-9-17-10a8 8 0 0 1-3-2h-8c-5-3-33-12-44-15l-12-2 3-2 2-2v-2c0-1-14-14-21-18l-12-7a53 53 0 0 0-4-3l-3 2zm35 29c-3 2-8 1-9-1l6-1h7l-4 2zm-17 19a800 800 0 0 1 92 24l16 37 23 54h-3a11 11 0 0 0-4 1 707 707 0 0 0-87 18l-50 17-40 14-6 2-1-4a38 38 0 0 1-1-8c-1-4-1-4 5-6s6-1 4-17c-1-7-2-9-3-9l-7 2h-5l-1-5-1-7c0-2 1-2 7-3l6-1v-3l-2-13v-9h-7l-6 1v-14l5 1 6-1-3-23c0-2-1-2-4-2h-4v-5l1-8c0-3 0-3 2-3 3 0 3 1 0-11V80c1-11 3-16 5-16l62 14z"/><path d="m369 81 1 13 1 13 9 1 9 1 4-4c4-3 5-4 5-9 1-6-1-11-4-11l-2-1c-1-1-4-2-10-2l-11-2-2 1zm3 45 1 13 1 11h4l4-1 4-1c4-1 7-4 6-5l2-3c2 0 2-1 3-5 0-8-2-9-17-10-7-1-8-1-8 1zm4 44 1 12c0 5 0 5 15 3 7-1 9-1 11-3 2-3 2-3 1-6-2-3-3-4-5-4h-2l3-1c3-2 4-4 2-7 0-2-2-2-14-2h-13l1 8zm9 29-7 1 1 12 1 12 8-2a95 95 0 0 1 14-3c8 0 10-1 10-3s-3-8-5-9l-1-1c3 0 4-3 3-6-1-2-1-2-9-2l-15 1zm-211 61-1 3c0 2 7 6 14 8l18 7a390 390 0 0 0 34 13c2 0 3 0 4-3 2-6 1-8-8-11a2177 2177 0 0 0-55-19c-4-1-5-1-6 2zm241 2-24 8a131 131 0 0 0-23 8c-6 2-7 4-6 9 1 4 1 4 5 3a66 66 0 0 0 9-3 192 192 0 0 1 11-4c3-1 8-2 10-4s10-4 16-6c13-4 19-7 19-10s-1-6-3-6l-14 5zm-241 9-17 41-25 61-9 23v31l9 21c6 12 10 18 16 25 7 9 9 10 11 10 3 0 3 0 3-2l-3-11-3-10 2-26 3-26 10-23a392 392 0 0 1 33-58l22-36a363 363 0 0 0-52-20zm231 9-27 10 23 36c20 32 24 39 33 59l10 23 3 26 3 27-4 11-3 11 7-1c3-2 17-21 22-31 11-21 11-21 10-40v-16l-8-21a2550 2550 0 0 0-43-103c0-2-2-1-26 9z"/></svg>