<svg xmlns="http://www.w3.org/2000/svg" width="808" height="681.333" version="1.0" viewBox="0 0 606 511"><path d="M546.462 4.423c-12.771 1.06-25.239 4.653-38.09 5.43-27.416 3.865-55.117 5.215-82.546 8.839-7.936 1.64-15.137 6.818-20.162 12.616-11.613-13.803-31.324-13.261-47.715-15.376-32.708-2.22-64.91-6.876-97.492-11.162-12.735-1.867-23.136 7.578-33.827 12.878-16.383 9.668-32.723 21.126-42.747 37.669-20.78 6.688-41.465 13.627-62.989 17.637-9.745 2.912-20.842 2.316-28.809 9.666-16.342 12.449-22.03 33.252-31.692 50.475-17.071 35.806-35.81 70.927-50.243 107.917-6.284 16.668-11.494 36.15-2.426 52.888 6.905 14.41 20.413 27.046 37.16 27.361 21.175 1.598 42.625 1.044 62.723 8.919a9499.164 9499.164 0 0 1 88.692 28.565c-22.119 53.871-46.418 106.992-65.833 161.884-.175 18.582-1.267 37.4.77 55.942 3.627 17.449 13.47 32.808 21.455 48.514 10.617 17.911 22.705 36.372 40.778 47.503 17.63 9.261 43.056 3.937 51.858-15.063 8.318-14.28.7-30.426-1.823-45.108-.797-18.707 2.477-36.942 4.376-55.614 3.771-14.907 11.769-28.412 18.197-42.31 19.808-39.09 45.643-74.839 66.634-113.381.8-3.532 2.693-5.362 6.34-5.713 13.222-4.324 22.666-15.705 26.926-28.656 2.22-4.079 2.97-9.948 5.561-13.146 13.699-.774 26.625-10.083 32.05-22.237 5.122 13.13 18.652 21.46 32.463 22.086 4.815 13.066 8.036 28.513 21.017 36.122 5.022 3.693 11.413 5.754 16.962 7.54 6.766 18.946 19.483 35.047 29.242 52.489 20.302 33.914 41.706 67.26 55.864 104.218 1.44 19.549 5.044 38.911 4.973 58.473-4.198 15.23-10.16 32.876-1.861 47.781 7.55 12.338 22.136 19.854 36.599 17.509 19.475-1.226 32.192-18.064 42.605-32.645 12.375-18.663 24.32-38.052 31.93-59.2 4.884-18.352 3.779-37.68 3.471-56.488-2.014-22.84-13.843-43.188-21.563-64.39-14.513-35.47-29.632-70.685-44.84-105.858 33.95-11.133 68.089-23.082 102.609-32.869 20.38-4.728 42.05-2.07 62.715-6.45 19.888-7.608 28.162-30.976 27.633-50.805-.92-20.286-11.117-38.561-18.469-57.064-15.933-33.611-32.29-66.918-48.822-100.274-7.37-15.42-18.228-31.773-36.211-35.384-14.688-2.892-29.46-5.317-43.448-10.411-10.908-3.548-21.839-7.178-32.783-10.523-11.607-18.676-31.705-29.478-49.428-41.466-8.302-5.436-17.635-9.71-27.784-9.328Zm-42.423 106.69c7.207-.062 8.915 10.122 2.284 12.66-7.17 3.88-13.439-12.012-3.91-12.586l.84-.081zm-199.123.652c8.964-.045 2.455 16.568-4.262 10.833-5.18-2.484-5.173-9.47.973-10.507 1.07-.285 2.18-.454 3.29-.326z" style="fill:#fff;stroke-width:1.01692" transform="scale(.75)"/><path d="M191.9 29.9c-1.3 1-5.5 3.5-9.4 5.6-10.9 6-23.5 16.7-24.9 21.2-.6 1.9-.2 2.5 1.8 3.3 1.4.5 2.6 1.1 2.6 1.4 0 .2-3.5 1.2-7.7 2.1-8.4 1.8-43.1 12.9-47.5 15.1-2.2 1.1-3.2 1.2-4.7.2-1.6-.9-2.3-.9-3.7.3-.9.8-2.7 1.5-3.8 1.7-1.2.1-4.2.5-6.8.8l-4.7.6-5.6 9.9c-3.1 5.4-10.9 21.6-17.4 35.9-6.6 14.3-13.7 28.8-15.9 32.3-2.2 3.5-4.4 7.9-5 9.8-.5 1.9-3.3 9-6.2 15.9-5.8 13.8-6.9 19.9-4 24 .9 1.4 1.9 3.2 2.2 4.1.5 1.3 2.7 1.7 10.5 2.2 5.4.3 10.2.2 10.7-.3s1.6-.5 2.6 0 6.2 1.4 11.6 1.9c5.5.5 12.2 1.6 14.9 2.5 2.8.9 35.4 11.7 72.5 24.1 37.1 12.4 72.2 23.6 78 25.1 5.8 1.4 11.3 3 12.3 3.5 1.1.6 1.7.6 1.7-.1 0-.5.6-1 1.3-1 1.3 0 3.7-5.3 3.7-8.3 0-.9.4-1.7.9-1.7.4 0 1.3-1.5 1.8-3.3.9-3 .7-3.4-3.9-7.8l-4.8-4.7 2.4-6.3c1.9-5 2.8-6.3 4.6-6.4 1.2-.1 7.7 1.5 14.4 3.7 6.6 2.1 12.2 3.8 12.3 3.8.3 0 2.3-14.1 2.9-21.1l.6-7.5-8.8-2.4c-4.9-1.3-10.4-2.7-12.1-3.2l-3.3-.9V199c0-8.2-1.3-7.8 15.2-4.9 6.6 1.2 12 2 12.2 1.8 1-1.1 4.7-27.2 4-27.8-.5-.5-6.2-1.5-12.7-2.4-6.5-.9-12.3-1.9-12.8-2.2-.9-.6-1.3-10.8-.4-11.7.3-.3 2.7-.2 5.3.2 2.6.4 8.6 1.1 13.5 1.5l8.7.7v-30.1l-13.7-.3-13.8-.3-.3-7.8c-.2-5.6.1-7.8 1-8.1.7-.3 7-.8 14.1-1.1l12.7-.7v-31l-4.2.6c-2.4.3-9.4.9-15.5 1.2-11.2.7-11.3.7-11.3-1.5 0-3.4-4.1-19.4-5.4-21.1-.6-.8-1.6-2.5-2.3-3.6-1.1-2.1-.9-2.2 3-2.8 3.3-.5 25.9-2.5 28.8-2.6.5 0 3.2-5 2.6-5-.1 0-3.8-.6-8.2-1.4-4.4-.7-12.4-1.4-17.9-1.5-5.4-.1-13.3-.8-17.5-1.6-4.2-.8-9.6-1.5-12.1-1.5s-8.5-.7-13.5-1.5c-4.9-.8-10.9-1.5-13.3-1.5-2.4 0-5.6-.7-7.1-1.5-2.6-1.3-3.1-1.3-5.2.4zM172 58c0 .5-.1 1-.3 1-.1 0-1.6.4-3.3.9-2.3.6-3.9.4-6.5-1l-3.4-1.8 6.8-.1c3.8 0 6.7.4 6.7 1zm73.3 8.9c1.2 2 1.7 5.1 1.7 10.3 0 4.3.5 7.9 1.2 8.6 1.1 1.1-.3 9.5-3.3 19.4-.7 2.5-.5 2.8 1.5 2.8 3 0 3.6 1.6 3.6 9.6v6.4h-4c-2.2 0-4 .4-4 .8s-.7 6.2-1.5 12.7c-.8 6.6-1.5 12.2-1.5 12.4 0 .2 2.5.1 5.5-.3l5.5-.6v13.9l-6.3-.6-6.4-.6-.6 10.4c-.3 5.7-.9 11.4-1.2 12.5-.6 2-.1 2.3 5.6 3.3 3.4.6 6.4 1.3 6.6 1.5.3.3.1 3.3-.4 6.8-.9 7-.5 6.8-10.8 5.7l-4-.4-.7 5.5c-.4 3-.8 8.4-.9 11.9l-.2 6.5 5.5 1.8 5.5 1.9-.9 5.4c-.4 3-1.2 6.5-1.8 7.9l-.9 2.6-16.8-5.9c-9.2-3.3-27.8-9.8-41.3-14.6-13.5-4.8-32.1-10.9-41.4-13.6-19.6-5.6-64.9-15-74.9-15.5-3.7-.2-7.6-.8-8.7-1.4-1-.5-2.8-1-3.9-1-1.2 0-2.1-.6-2.1-1.4 0-1.9 6.1-16.3 23.4-54.8 8-18 14.6-33.2 14.6-33.7 0-1.3 6.4-4.1 18.5-7.9C115.4 92 236.1 64.3 241 64.1c1.8-.1 3.1.7 4.3 2.8z"/><path d="M223.6 81.4c-6.2.7-10.1 1.6-10.4 2.3-.2.7-1.2 1.3-2.3 1.3-2.8 0-4 4-3.2 10.8.6 5.1 1.1 6.1 4.9 9.5l4.2 3.8 9.1-.7 9.1-.7V96.1c0-6.4.3-12.6.6-13.9.4-1.5.2-2.2-.7-2.1-.8.1-5.9.7-11.3 1.3zM220.1 125c-7.1.6-8.8 1.1-10.3 3-2 2.5-2.3 4.6-.8 5.5.7.4.6 1.3-.1 2.6-1.2 2.3.3 4.9 2.7 4.9.8 0 1.4.9 1.4 2.1 0 1.4 1.1 2.4 3.8 3.5 2 .8 4.5 1.9 5.4 2.4 1 .6 3.3 1 5.2 1 3.2 0 3.3-.2 4-4.7.3-2.6.9-8.5 1.3-13 .7-9.5 2.4-8.6-12.6-7.3zM202.8 164.5c-1.2 2.8.1 5.1 3.7 6.5 1.8.8 1.7.9-.8.9-2.1.1-3.1.9-4.4 3.6-1.7 3.5-1.7 3.6.8 6 2.2 2.2 3.8 2.7 14.2 3.7 6.5.6 11.9.9 12.1.7.2-.2.7-5.7 1-12.2l.7-11.7h-13c-13 0-13.2 0-14.3 2.5zM196.1 200.6c-1.4 3.1-.2 5 3.2 5.7 2.2.4 2.2.4.1.6-1.4.1-2.9 1.6-4.5 4.5-3 5.7-1.8 7.6 5 7.6 2.5 0 9.3 1.1 15 2.5 5.7 1.4 10.5 2.4 10.7 2.2.2-.2.7-5.5 1-11.8l.7-11.6-8.4-1.1c-4.6-.7-11.4-1.2-15-1.2-6.1 0-6.7.2-7.8 2.6zM408 29.5c-1.4.8-4.3 1.4-6.5 1.5-3.8 0-16.1 1.5-38.5 4.5-5.8.8-14.3 1.5-19 1.6-7.8.1-24.6 2.2-25.6 3.2-.3.2.3 1.4 1.3 2.6 1.6 1.8 3.5 2.2 13.8 3.1 6.6.6 13.9 1.3 16.2 1.6l4.2.6-2 3.4c-1 1.9-1.9 4.3-1.9 5.4 0 1-.4 2.1-.9 2.4-.4.3-1.7 4.4-2.7 9.2l-1.8 8.7-11-.7c-6.1-.4-13-.9-15.3-1.2l-4.3-.6v30.9l9.2.7c5 .3 11.3.6 14 .6h4.8v17H313.7l.6 14.6c.3 8 .8 14.8 1 15.1.6.5 23-1.5 25.1-2.3 1.4-.5 1.6.4 1.6 5.9v6.5l-8.7 1.2c-19.9 2.8-17.8 2.1-17.5 6 .4 5.6 3.4 22.7 4.2 24 .5.8 4.1.5 13.3-1.1 7-1.3 12.8-2.1 13.1-1.8.2.2.6 3.4.8 7l.6 6.7-12.2 3.2c-6.6 1.8-12.2 3.4-12.4 3.5-.3.3 2.8 27.8 3.2 28.2.1.2 5.2-1.3 11.3-3.2 6-1.9 12.5-3.7 14.4-3.9 3.4-.5 3.5-.4 5.7 6l2.3 6.5-4.6 4.5c-4.1 3.9-4.6 4.8-4 7.5.4 1.7 1.3 3.3 2.1 3.6.8.3 1.4 1.7 1.4 3.2 0 4.4 1.1 7.3 2.6 6.7.8-.3 1.4.1 1.4 1 0 1.1.4 1.2 1.8.5.9-.5 7.1-2.3 13.8-3.9 6.6-1.7 40.8-12.8 76-24.6 35.1-11.9 66.7-22.2 70.2-23 3.5-.8 6.9-1.9 7.5-2.4 1.2-.9 14.8-2.3 25.2-2.7 2.8 0 8.4-.2 12.5-.4l7.5-.2 2.1-4.3c3.4-6.8 2.6-12-3.9-27.3-3.1-7.2-5.7-13.8-5.7-14.6 0-.7-2.2-5-4.9-9.4-2.6-4.4-10.1-19.7-16.6-33.9-6.5-14.2-14.2-30-17.1-35-5.8-9.9-5.4-9.6-17-10.7-1.1-.1-2.9-.8-3.8-1.6-1.4-1.2-2.1-1.2-3.7-.3-1.5 1-2.5 1-4.1.1-4.7-2.5-33-11.8-44.1-14.5L443 61.6l3.1-1.7c2-1 2.8-1.9 2-2.3-.6-.4-.9-1.1-.6-1.6.9-1.4-13.5-13.9-21-18.2-3.8-2.2-8.9-5.4-11.3-6.9-2.3-1.6-4.4-2.9-4.5-2.9-.1.1-1.3.7-2.7 1.5zm35.1 29.4c-3.6 1.9-8.1 1.6-8.9-.7-.3-.9 1.5-1.2 6-1.2l6.3.1-3.4 1.8zm-17.6 18.7c55.3 12.2 75.2 17.1 79.5 19.2.8.5 4.1 1.7 7.3 2.7 3.1 1.1 5.7 2.3 5.7 2.9 0 .5 7.1 16.9 15.9 36.5 14.8 33.2 23.1 52.5 23.1 53.6 0 .3-1.2.5-2.6.5-1.4 0-3.4.5-4.5 1.1-1.1.5-4.3 1-7.2 1.1-7.9.1-60 11.1-79.2 16.7-9.3 2.7-32.3 10.4-51 17.1-18.7 6.7-36.6 13-39.7 14l-5.8 1.8-1.1-4.2c-.7-2.2-1.2-5.9-1.3-8.1-.1-3.9-.1-4 5.2-5.5 6-1.7 5.9-1.2 4-16.6-.9-7.8-1.4-9.4-2.7-9-.9.3-3.9.8-6.8 1.1l-5.2.7-.6-4.9c-.3-2.6-.8-5.8-1-6.9-.4-2 .2-2.3 6.1-3.4l6.6-1.3-.6-3.1c-.4-1.7-.9-7.3-1.3-12.5l-.6-9.4-6.4.6-6.3.6V149l5.5.6c4 .5 5.5.3 5.5-.5 0-2.1-2.1-20.5-2.6-22.9-.4-1.8-1.1-2.2-4.6-2.2h-4.1l.7-4.6c.3-2.6.6-6.2.6-8 0-3 .3-3.4 2.5-3.4 2.8 0 2.8.7-.2-11.3-1.1-4.8-1.2-8-.4-16.9 1.1-10.9 2.7-15.8 5.4-15.8.7 0 28.7 6.1 62.2 13.6z"/><path d="M369.3 81.4c.4 1 .7 6.8.7 12.9 0 6.2.4 11.7.8 12.3.4.6 4.6 1.4 9.3 1.8l8.5.7 4.6-4c4.1-3.6 4.6-4.6 5.1-9.3.5-6.1-1.3-10.8-4.2-10.8-1 0-2.1-.6-2.4-1.4-.4-.9-3.3-1.6-9.4-2.1-4.8-.3-9.9-.9-11.2-1.2-2-.5-2.3-.3-1.8 1.1zM372 125.7c0 .8.5 6.7 1.2 12.9l1.2 11.4h3.7c2.1 0 4-.4 4.3-.9.3-.4 2-1.1 3.8-1.5 3.7-.7 6.9-3.3 6.2-5-.2-.6.6-1.6 1.8-2.1 1.9-.8 2.3-1.8 2.4-5.5.2-8.4-1.3-9.3-16.8-10.4-6.8-.5-7.8-.4-7.8 1.1zM375.6 169.7c.3 4.3.7 9.7 1 12 .6 5 .3 4.9 14.9 3.3 7.4-.9 9.4-1.5 11.4-3.5 2.5-2.4 2.5-2.5.8-6-1.3-2.7-2.3-3.5-4.4-3.5l-2.8-.1 3.3-1.4c3.2-1.4 3.9-3.4 2.6-6.9-.5-1.4-2.7-1.6-14-1.6H375l.6 7.7zM384.8 199.2l-6.7 1 .6 11.7c.3 6.4.7 11.8.9 12 .2.2 3.9-.5 8.1-1.7 4.3-1.2 10.5-2.4 13.8-2.7 8.9-.9 10.5-1.4 10.5-3.1 0-2.9-3.3-8.6-5.4-9.4-1.5-.6-1.7-.9-.5-.9 2.9-.1 4.3-2.8 3.1-5.6-1.1-2.4-1.5-2.5-9.4-2.4-4.6.1-11.3.6-15 1.1zM174 259.6c-.6 1.4-1 2.9-1 3.3 0 1.8 6.9 5.9 13.5 8 3.9 1.3 12.2 4.4 18.5 7.1 12.5 5.1 29.9 11.6 34.1 12.5 2.2.5 2.8.2 3.8-2.3 2.4-5.8.8-8-8.1-11.2-14-5-46.6-16.2-49.3-16.9-1.6-.5-4.3-1.4-5.8-2-4-1.6-4.6-1.4-5.7 1.5zM415 261.7c-6.9 2.4-17.7 6-24 8-6.3 1.9-13.1 4.3-15 5.3-1.9 1-5.4 2.3-7.8 2.9-5.7 1.6-7.5 4.4-6 9.4 1.1 3.6 1.3 3.7 4.7 3.1 1.9-.4 6.2-1.8 9.5-3.2 3.4-1.3 8.4-3.1 11.1-3.9 2.8-.9 7.2-2.6 9.9-4s9.9-4.2 16.1-6.3c12.9-4.5 18.5-7.5 18.5-9.8 0-3.5-1.3-6.2-2.9-6.1-.9.1-7.2 2.1-14.1 4.6zM174.3 270.8c-.1 1-7.8 19.2-17.1 40.7-9.3 21.4-20.8 49.1-25.5 61.5l-8.5 22.5-.5 13c-.3 7.2 0 15.4.6 18.4.6 3.1 4.5 12.3 8.8 21 6.2 12.4 9.5 17.6 16 25.3 7 8.4 8.6 9.8 11.1 9.8 2.4 0 2.9-.4 2.6-1.8-.3-.9-1.8-6-3.3-11.2l-2.7-9.6 2.5-26.1 2.6-26.2 10.4-22.8c9.3-20.3 12.8-26.6 32.6-58.1 12.2-19.5 22.3-35.8 22.4-36.4.2-.8-9.6-4.9-48.3-20.2-3.2-1.3-3.6-1.3-3.7.2zM404.5 279.6c-14.3 5.7-26.1 10.4-26.2 10.4-.1 0 10 16.3 22.5 36.2 20 32 24 39 33.2 58.8l10.3 22.5L447 434l2.6 26.5-3.3 11c-1.8 6-3.3 11.1-3.3 11.2 0 .6 5.6.2 6.6-.5 3.6-2.5 17-21.4 22-31.2 10.9-20.9 10.9-21.1 10.7-39.9l-.2-16.4-8.1-21.1c-4.5-11.6-15.9-38.9-25.2-60.6-9.4-21.7-17.4-40.5-17.7-41.6-.6-2.1-1.7-1.7-26.6 8.2z"/></svg>