<svg xmlns="http://www.w3.org/2000/svg" width="388" height="381.333" version="1.0" viewBox="0 0 291 286"><path d="M193.081 14.082c-8.933.11-14.583 8.208-16.835 16.023-2.5 5.363-3.5 12.105-6.53 16.574-4.365.475-9.171 3.531-12.804-.201-4.15-5.16-10.67-8.03-17.362-7.84-13.138.29-27.088 1.788-38.561 8.692-4.822 3.17-8.509 7.755-11.505 12.627-7.117-3.964-17.048-6.376-23.388.365-6.992 6.22-5.026 16.67-1.49 24.065-8.27 9.214-9.68 22.968-6.97 34.6-4.73 5.079-9.526 12.36-9.148 20.079-.296 4.784 2.85 9.027 4.071 13.124-1.51 4.626-1.365 10.751-3.865 14.482-10.461 4.16-22.85 5.456-31.255 13.535-7.216 8.238-3.235 22.4 6.977 26.131 8.137 3.698 16.85 5.902 25.199 9.057.528 5.719 5.224 11.837 1.822 17.42-5.946 11.804 3.083 25.477 13.83 30.664 4.642 1.649 5.805 7.02 8.933 10.443-4.917 10.98-11.655 21.425-14.485 33.193-.636 8.53 6.892 15.264 14.492 17.102 6.7 7.364 18.347 9.337 27.227 4.938 7.584 4.1 16.801 1.77 23.735-2.477 7.224 6.554 18 7.58 26.8 3.895 5.764-.026 11.001 1.544 16.567 2.497 4.453 11.267 6.674 23.774 13.597 33.872 8.13 9.09 24.386 3.96 27.39-7.379 3.398-8.722 6.233-17.659 9.353-26.477 5.065-.99 10.318-3.388 15.381-3.027 11.414 3.879 25.605-.31 31.406-11.345 2.844-3.674 6.604-8.576 11.435-8.826 4.539.093 5.105 5.963 8.284 8.192 4.482 6.137 12.123 8.886 19.54 7.588 8.693-.23 20.223-1.403 23.278-11.18 2.876-9.047-3.828-17.355-5.91-25.487 1.566-7.933 2.36-17.066-3.436-23.622-1.905-2.063 3.382-2.018 4.31-3.378 11.497-5.803 15.138-20.568 10.336-31.948.055-4.8 1.63-9.5 2.623-13.977 10.812-4.342 22.64-6.622 32.667-12.667 9.418-6.928 7.271-23.518-3.876-27.428-9.435-4.13-19.623-6.995-28.942-10.963-.742-4.824-2.495-9.81-2.642-14.566 6.901-12.474 1.287-30.31-12.53-35.133-4.476-.489-6.1-4.915-8.32-8.137 4.35-10.519 10.572-20.403 13.455-31.56.688-9.315-8.201-18.123-17.647-15.802-4.975.57-9.945 2.938-14.292 4.594-3.034-10.256-14.133-16.027-24.029-17.542-11.863.017-24.016-.746-35.66 1.88-5.182 2.043-10.777-1.39-16.101-1.708-3.199-1.943-3.115-7.638-4.99-11.103-2.97-8.42-5.563-19.682-15.978-21.485a15.926 15.926 0 0 0-4.157-.374zM158.484 51.74c.035.238-.045-.21 0 0zm-40.031 266.834c-.06-.094-.137-.334 0 0z" style="fill:#fff;stroke-width:.804906" transform="scale(.75)"/><path d="M142.4 30.9c-2.4 7.3-4.8 13.5-5.4 13.6-.5.2-4.6 1-9 1.8-4.4.9-9 1.9-10.2 2.3-2 .5-2.3.3-2.3-1.8 0-1.4-1.2-3.5-2.6-4.9-2.2-2-3.5-2.4-8.2-2.2-9 .3-20.2 3-23 5.5-1.3 1.3-3.7 4.9-5.3 8-1.6 3.2-3.2 5.8-3.4 5.8-.3 0-4.1-1.8-8.5-4s-8-3.8-8-3.5c0 .3 1.6 3.8 3.6 7.7 3.7 7.4 3.8 7.2-.9 9.9-2.7 1.5-4.7 7.1-4.7 12.8 0 4.4.4 5.3 2.9 7.2 2.8 2.1 2.9 2.3 1.4 4.5-.8 1.3-2.3 2.4-3.3 2.4-2.8 0-5.9 3.2-6.6 6.6-.5 2.4 0 3.7 1.9 5.9 2.1 2.5 2.3 3.3 1.4 6-.6 1.6-1.8 6.5-2.6 10.9l-1.6 7.9-14.3 4.5c-7.8 2.5-14.2 4.8-14.2 5.2 0 .3 6.5 2.7 14.5 5.3 8 2.7 14.5 5 14.5 5.2 0 1.5 3 15.5 3.8 17.5.8 2 .6 3.1-.9 4.9-1 1.3-1.9 3.3-1.9 4.6 0 3.4 3.7 7.5 6.8 7.5 2.3.1 3.6 1.4 8 8.3l5.4 8.2-7.1 14.3c-3.9 7.8-7.1 14.4-7.1 14.7 0 .3 1.8-.4 4-1.5l4-2v2.3c0 3.2 3 5.7 6.8 5.7 5.1 0 13.2-9.7 13.2-15.7 0-2.6 1-3.5 2.6-2.3.9.8.4 2.4-2.2 6.7-3.7 6.2-4.1 8.4-1.9 10.3 2 1.7 7.2-.2 12.3-4.5 2.2-1.9 4.3-3.5 4.6-3.5.3 0 .6 1.1.6 2.5 0 5.9 7.8 9.4 12.8 5.9 2.1-1.5 2.9-1.5 8.5-.1 3.4.9 8.3 1.9 10.9 2.2l4.7.7 5.2 15.7 5.2 15.6L152 256l5.2-15.5 3.9-.9c2.1-.5 6.9-1.6 10.6-2.6 5.7-1.4 7-1.5 7.9-.4 1.5 1.8 7 1.8 9.4 0 1.1-.8 2.4-2.7 3-4.4 1.4-4.2 14.2-12.8 16.7-11.3 1 .6 2.8 1.1 4 1.1 3.8.1 6.7 2.3 9.2 7 2.1 3.9 2.9 4.5 6.1 4.8 2 .2 4.3-.2 5-.8 1-.8 1.9-.8 3.4 0 2.6 1.4 2.6.3.1-3.5-1.1-1.7-2-3.7-2-4.6 0-.9-.9-2.7-2-4.1-1-1.4-1.5-2.9-1.1-3.4.5-.5 1.2-3 1.5-5.5.7-4.9.2-6-4.5-9.2-2.3-1.6-1.7-3.8 2.6-10.7 1.8-2.9 3.2-4 5-4 5.4 0 8.7-7.9 5-12-1.3-1.4-1.2-2.8.9-12l2.3-10.4 15.3-5.1c8.5-2.8 15-5.4 14.5-5.7-.6-.3-7.4-2.7-15.3-5.3-7.9-2.6-14.5-5.2-14.6-5.9-.2-.6-1.3-5.5-2.4-10.9l-2.1-9.9 2.1-2.8c3.5-4.8-.1-12-6-12-2.4 0-3.5-1.1-7.3-6.8-2.4-3.7-4.5-7.2-4.7-7.9-.2-.6 2.6-7 6.3-14.2 3.6-7.2 6.3-13.1 6-13.1-.3 0-3.7 1.6-7.5 3.5s-7.3 3.5-7.7 3.5c-.5 0-2.2-2.3-4-5-2-3-5.1-6-8-7.7-4.6-2.7-5.3-2.8-16.2-2.6-9 .2-11.7.6-13.2 1.9-1.7 1.5-2.3 1.5-8.1.1-3.5-.8-8.3-1.8-10.9-2.2l-4.5-.7-4.5-13.6-4.6-13.7zm-30.5 15.3c1.2 2-1 4.9-5.9 7.9-2.4 1.5-3 2.6-3.1 5.6-.1 2.1-.5 5.6-.9 7.8-.5 3.1-.3 4.4.8 5.3 1.3 1.1 1.9.8 3.7-1.8 1.2-1.6 2.7-3 3.3-3 2.1 0 14.7 13.2 14.7 15.4 0 1.2.9 2.7 2.1 3.4 1.7 1.1 2 2 1.5 4.5-1.5 7.4-1.6 7.2 4.5 7.5 5 .3 6.2.8 10.8 4.7 2.9 2.5 5.6 4.5 5.9 4.5 1.3 0 2.8-1.5 5.6-5.3 2.1-2.7 3.6-3.7 5.6-3.7 1.5 0 3.2-.6 3.7-1.3 1.3-1.6 3.8-12.6 3-13.3-.3-.3 1-1.9 2.9-3.6 3.4-3 10.4-14.9 10.4-17.8 0-2.4 7.7-12.4 10.3-13.3 9.8-3.7 25.4 4.8 27.3 15 .8 4.2-1.1 28.9-2.7 34.7-.6 2-2.1 4.4-3.6 5.3-2.5 1.6-2.6 1.6-4.4-.6l-1.8-2.2-1.3 2c-1.4 2.4-3.4 2.7-4.1.8-.3-.6-.6 0-.6 1.5-.1 2-.9 3.2-3 4.3-1.6.8-3.2 2.3-3.6 3.4-.9 2.9-4.5 7.2-5.6 6.6-.5-.4-.9-.1-.9.5 0 1.2-4.4 10.5-6.2 13.1-.9 1.4-.4 2.7 2.7 7 5.1 7.1 11.2 14.4 15.4 18.3 4.9 4.6 12.1 13.6 12.1 15.2 0 2.8-3 1.3-11.1-5.6-4.5-3.9-8.4-6.8-8.8-6.5-.3.4 1.7 2.5 4.4 4.8 7.8 6.4 29.5 28.1 29.5 29.4 0 1.7-1.5 1.6-3-.2-.7-.8-1.9-1.5-2.7-1.5-.8 0-4.9-3.1-9.1-7-8-7.2-13.6-10.9-14.9-9.7-.4.4 1.7 3.2 4.6 6.1 2.9 3 5.1 5.9 4.7 6.4-1.2 1.9-6.7-.6-11.7-5.3-4.6-4.3-7.3-5.4-6.9-3 .2 1.5 12.1 16.3 13.5 16.9 2.3.8 14.5 17 13.6 17.9-.9.9-9.3-4.2-10.8-6.6-1.4-2.2-14.6-14.1-21.2-19-4.8-3.7-6.9-4.7-8.7-4.3-2 .5-5.9-1.8-10.4-6.4-2.8-2.8-11.4-10-12-10-1 0-10.5 12-13.3 16.8-6.5 11.3-21.3 25.6-24.1 23.3-1-.8-2.5.3-6.6 5.2-6 6.9-14.3 15.2-17.8 17.5-5.7 3.7-3.1-3.1 4.4-12 9-10.6 19-23.4 16.4-21-.8.6-2.3 1.2-3.3 1.2-2 0-2-.8-.2-5.5.5-1.1-3.1 1.8-7.8 6.5-9.6 9.4-11.7 10.6-11.7 6.6 0-3.7 3.3-9.5 9.3-16.2 8-9 11.2-14.5 6-10.4-2.3 1.8-2.9 1.9-4.1.7-1.1-1.1-1.1-1.9-.3-3.5 1.6-3 1.3-4.1-.9-3.5-1.3.4-2 0-2-.9 0-4 3.2-9.1 13.2-21.1l10.9-13.1-5.5-5.5c-4.1-4.2-6.1-7.2-7.8-12.1l-2.3-6.5h-4.3c-2.3 0-4.6-.5-5-1-.4-.6-3.2-3-6.2-5.5s-6-5.2-6.7-6c-.6-.8-1.3-1.3-1.5-1-.2.3-.8 1.4-1.4 2.5-2.6 4.7-10.6 1.8-13.8-5-2-4.1-1.4-7.1 1.5-8 2.7-.9 2.4-2.2-1.1-4-3.6-1.9-5.3-5.6-4.5-9.9 1-5.1 2.6-7.5 5.9-8.6 3.9-1.3 11.3-8.4 14.5-13.8 1.4-2.3 4-5.7 5.9-7.7 2.9-3 4.1-3.5 8.1-3.6 2.5 0 5.5-.4 6.6-.9 3.3-1.5 10.7-.7 11.9 1.2zm96.6 61.3c2.2 5.9-.8 14.5-5.2 14.5-2.8 0-2.7-5 .4-12.3 2.3-5.3 3.4-5.8 4.8-2.2zm-25.1 90c3.3 3.8 3.9 5.9 1.9 7.1-1.3.9-8.8-6.8-8.8-9.1 0-2.7 3.7-1.6 6.9 2zm41 6.5c6.1 4.5 7.9 10 3.7 11.6-1.6.6-10.5-5.8-12.3-9-3.5-6.2 1.5-7.7 8.6-2.6zM81.5 219.8c0 2.6-5.7 12-8.4 13.7-2.3 1.5-5.6 1.1-5.6-.6 0-2.4 4.2-8.9 8-12.3 4.1-3.7 6-3.9 6-.8zm147.7 3.4c3.1 2.9 3.2 7.1.1 6.6-2.6-.4-5.4-4.8-4.5-7.1.8-2.2 1.6-2.1 4.4.5z"/><path d="M105.5 82.4c0 .9.5 1.6 1 1.6.6 0 1-.4 1-.9 0-.6-.4-1.3-1-1.6-.5-.3-1 .1-1 .9zM182.2 110c-3.3 3.7-3.5 5.4-.5 4.4 2.5-.8 4.4-2.9 5.1-5.7.8-2.7-1.7-2-4.6 1.3zM114 164c-6.5 6.6-6.9 9.7-.4 3.4 4.7-4.5 8.4-9.4 7.2-9.4-.5 0-3.5 2.7-6.8 6zM168.4 162.8c1.2 2.3 7.1 6.8 7.1 5.4 0-.5-1.8-2.4-4.1-4.2-3.1-2.4-3.8-2.7-3-1.2zM121.7 188.3c-1.3 1.4-1.9 2.8-1.4 3.1 1.2.7 4.5-2.9 4-4.4-.2-.6-1.3-.1-2.6 1.3z"/></svg>