<svg xmlns="http://www.w3.org/2000/svg" width="388" height="381" version="1.0" viewBox="0 0 291 286"><path d="M193 14c-9 0-14 8-17 16-2 6-3 12-6 17-5 0-10 3-13 0-4-6-11-8-18-8a78 78 0 0 0-38 8 39 39 0 0 0-11 13c-8-4-17-6-24 0s-5 17-1 24c-9 10-10 23-7 35-5 5-10 12-10 20 0 5 3 9 4 13-1 5-1 11-3 15-11 4-23 5-32 13-7 8-3 23 7 26l26 9c0 6 5 12 1 18-6 12 3 25 14 30 5 2 6 8 9 11-5 11-11 21-14 33-1 9 7 15 14 17a24 24 0 0 0 27 5c8 4 17 2 24-2 7 6 18 7 27 4l17 2c4 11 6 24 13 34 8 9 24 4 27-7l10-27 15-3c12 4 26 0 32-11 2-4 6-9 11-9s5 6 8 8a20 20 0 0 0 20 8c9-1 20-2 23-12 3-8-4-17-6-25 2-8 3-17-3-24-2-2 3-2 4-3 12-6 15-21 10-32l3-14c11-4 23-6 33-13 9-7 7-23-4-27l-29-11-3-14c7-13 2-31-12-36-5 0-6-5-8-8 4-10 10-20 13-31 1-10-8-19-18-16-5 0-10 3-14 4-3-10-14-16-24-17-12 0-24-1-36 2-5 2-11-2-16-2-3-2-3-8-5-11-3-9-5-20-16-22a16 16 0 0 0-4 0zm-34 38zm-40 267c-1-1-1-1 0 0z" style="fill:#fff;stroke-width:.804906" transform="scale(.75)"/><path d="M142 31a63 63 0 0 1-5 13l-9 2-10 3c-2 0-3 0-3-2 1-2-1-4-2-5-2-2-4-3-8-2-9 0-20 3-23 5a41 41 0 0 0-6 8 31 31 0 0 1-3 6l-8-4-8-3a73 73 0 0 0 3 7c4 8 4 7-1 10-2 2-4 7-4 13 0 4 0 5 2 7 3 2 3 2 2 5l-4 2c-2 0-5 3-6 7-1 2 0 3 2 6 2 2 2 3 1 6l-2 10-2 8-14 5a90 90 0 0 0-15 5l15 5 14 6 4 17c1 2 1 3-1 5a9 9 0 0 0-2 5c0 3 4 7 7 7s4 1 8 8l6 9-7 14a302 302 0 0 0-8 15l4-2 4-2v2c0 4 3 6 7 6 5 0 13-10 13-16 0-2 1-3 3-2 1 1 0 2-2 7-4 6-4 8-2 10s7 0 12-4l5-4v3c0 5 8 9 13 5h9l11 3h4l6 16 5 15 5-15 5-15 4-1 11-3h17l3-5c1-4 14-13 17-11l4 1c3 0 6 2 9 7 2 4 3 4 6 5l5-1h3c3 1 3 0 0-4a12 12 0 0 1-2-4c0-1 0-3-2-4l-1-4 2-5c1-5 0-6-5-9-2-2-1-4 3-11 2-3 3-4 5-4 5 0 9-8 5-12-1-1-1-3 1-12l2-10 15-6 15-5-15-5a61 61 0 0 1-15-6l-2-11-2-10 2-3c3-5 0-12-6-12-3 0-4-1-8-7a72 72 0 0 1-4-8l6-14 6-13-7 3-8 4-4-5-8-8c-5-2-5-3-16-2-9 0-12 0-14 2h-8l-11-3h-4l-5-14-4-14zm-30 15c1 2-1 5-6 8-2 2-3 3-3 6l-1 8 1 5c1 1 2 1 3-2l4-3c2 0 14 13 14 15l3 4c1 1 2 2 1 4-1 8-2 8 5 8 5 0 6 1 10 5l6 4c2 0 3-1 6-5 2-3 4-4 6-4l3-1a34 34 0 0 0 3-14l3-3c3-3 10-15 10-18 1-2 8-12 11-13 10-4 25 5 27 15 1 4-1 29-3 34l-3 6c-3 1-3 1-5-1l-1-2-2 2c-1 2-3 3-4 1v1c0 2-1 3-3 5-2 0-4 2-4 3-1 3-4 7-6 7 0-1 0-1 0 0l-7 13c-1 2 0 3 3 7a138 138 0 0 0 15 18 62 62 0 0 1 13 16c0 2-3 1-12-6a36 36 0 0 0-8-6l4 4c8 7 30 28 30 30h-3l-3-2-9-7c-8-7-14-11-15-10s2 4 4 6c3 3 6 6 5 7-1 2-7-1-12-5-4-5-7-6-6-3l13 16c2 1 15 17 14 18s-10-4-11-6a181 181 0 0 0-21-19c-5-4-7-5-9-5-2 1-6-1-10-6l-12-10a95 95 0 0 0-14 17c-6 11-21 25-24 23-1-1-2 0-6 5l-18 18c-6 4-3-3 4-12l17-21-4 1c-2 0-2-1 0-5l-8 6c-9 9-11 11-11 7s3-10 9-17c8-9 11-14 6-10-2 2-3 2-4 1l-1-4c2-3 2-4 0-3l-2-1c0-4 3-9 13-21l11-13-6-6a29 29 0 0 1-8-12l-2-6h-4l-5-1-6-6-7-6-2-1-1 3c-3 4-11 1-14-5-2-5-1-8 2-8 2-1 2-3-1-4-4-2-6-6-5-10 1-5 3-8 6-9a39 39 0 0 0 14-14l6-7c3-3 4-4 8-4l7-1c3-1 11-1 12 1zm97 62c2 5-1 14-6 14-2 0-2-5 1-12 2-6 3-6 5-2zm-26 90c4 3 4 5 2 7-1 0-8-7-8-10 0-2 3-1 6 3zm41 6c7 5 8 10 4 12-2 0-10-6-12-9-4-7 1-8 8-3zM82 220c0 2-6 12-9 14-2 1-6 1-6-1 1-2 5-9 9-12 4-4 6-4 6-1zm147 3c3 3 3 7 0 7-2-1-5-5-4-7s1-2 4 0z"/><path d="m106 82 1 2 1-1-1-2-1 1zm76 28c-3 4-3 5 0 4a8 8 0 0 0 5-5c1-3-2-2-5 1zm-68 54c-6 7-7 10 0 3l7-9-7 6zm54-1c2 2 8 7 8 5l-5-4c-3-2-3-3-3-1zm-46 25-2 3c1 1 5-2 4-4l-2 1z"/></svg>