<svg xmlns="http://www.w3.org/2000/svg" width="367" height="400" version="1.0" viewBox="0 0 275 300"><path d="M176 2c-11 1-18 11-27 19l-48 49a25 25 0 0 0 0 31 26 26 0 0 0-31 5l-59 60a25 25 0 0 0 2 35l59 58a25 25 0 0 0 36-3 28 28 0 0 0 5-17c3 1 10-2 9 3v88c1 12 11 20 17 29 9 10 16 21 26 30 10 8 25 6 34-3l33-40c7-9 4-22 5-32v-75l12 1a26 26 0 0 0 27 22c10 0 17-7 24-14 17-15 35-31 51-48a25 25 0 0 0-1-35l-59-59a25 25 0 0 0-36 3 27 27 0 0 0-6 17h-14v-17c12 1 23-5 27-16 4-10 0-22-9-29L195 8a26 26 0 0 0-19-6Zm-66 106 12 3v15c-3-1-10 2-8-3a26 26 0 0 0-6-16l2 1z" style="fill:#fff;stroke-width:.597015" transform="scale(.75)"/><path d="M112 42a472 472 0 0 0-22 22l10 1h10v48H67V92l-22 22-23 23 22 22 23 22v-20h43v86l12 15 13 15 13-14 11-14v-88h46v9l1 9 22-21 22-20-22-23-22-22-1 10v10h-47V64h22l-22-22a359 359 0 0 0-23-22 353 353 0 0 0-23 22z"/></svg>