<svg xmlns="http://www.w3.org/2000/svg" width="366.667" height="400" version="1.0" viewBox="0 0 275 300"><path d="M176.292 1.972c-11.615 1.327-18.688 11.475-26.86 18.635-16.304 16.149-32.816 32.144-48.282 49.098-7.106 8.76-7.241 22.615-.008 31.126-10.093-5.622-23.451-3.17-31.08 5.446-19.706 19.885-39.79 39.43-59.26 59.528-9.097 9.852-7.639 26.542 2.389 35.225 19.587 19.413 38.833 39.204 58.631 58.38 10.058 9.308 27.44 7.616 35.759-3.2 3.784-4.768 5.574-10.83 5.664-16.882 2.802.888 9.555-2.176 8.682 2.388.14 29.574-.228 59.175.227 88.732.604 11.682 10.56 19.37 16.855 28.28 8.61 10.261 16.28 21.442 26.16 30.546 10.075 7.511 25.302 5.895 33.57-3.57 11.628-12.761 22.688-26.072 33.521-39.495 7.174-9.372 4.207-21.707 4.738-32.617l-.415-74.264c4.156.252 9.176-.492 12.814.356 1.314 12.835 13.174 23.653 26.22 22.858 10.115-.1 17.657-7.474 24.533-13.97 17.131-15.974 34.443-31.795 51.246-48.095 9.458-9.587 8.524-26.492-1.414-35.409-19.812-19.652-39.286-39.682-59.31-59.098-10.056-9.31-27.44-7.626-35.76 3.19-3.783 4.765-5.596 10.83-5.61 16.885h-13.996l.078-16.496c11.244.803 22.939-5.736 26.492-16.732 3.945-10.143-.237-21.858-8.418-28.643-19.322-18.763-37.978-38.256-57.98-56.293-5.3-4.524-12.28-6.537-19.186-5.91ZM110.09 108.098c3.702 1.753 7.766 2.518 11.824 2.843v15.104c-2.934-.697-9.335 2.072-7.91-2.985-.121-5.745-1.912-11.493-5.567-15.967l1.653 1.005z" style="fill:#fff;stroke-width:.597015" transform="scale(.75)"/><path d="M111.7 41.8C99.8 53.7 90 63.9 90 64.3c0 .4 4.5.7 10 .7h10v48H67V91.5L44.5 114 22 136.5l22.2 22.3L66.5 181l.3-10 .3-10H110v85.5l12.1 15.2c6.6 8.4 12.4 15.3 12.9 15.3.4 0 6.1-6.4 12.6-14.2l11.8-14.3-.3-43.7-.3-43.8H205v9.1c0 5 .4 8.9.9 8.7.5-.2 10.6-9.5 22.5-20.7l21.7-20.4-22.3-22.4L205.5 93l-.3 10-.3 10H158V64h21.5l-22-22c-12.1-12.1-22.4-22-23-22-.6 0-10.8 9.8-22.8 21.8z"/></svg>