<?xml version="1.0" encoding="UTF-8" standalone="no"?>
<svg
   version="1.0"
   width="300.000000pt"
   height="256.000000pt"
   viewBox="0 0 300.000000 256.000000"
   preserveAspectRatio="xMidYMid meet"
   id="svg132"
   sodipodi:docname="ravnos.svg"
   inkscape:version="1.2.2 (b0a8486541, 2022-12-01)"
   xmlns:inkscape="http://www.inkscape.org/namespaces/inkscape"
   xmlns:sodipodi="http://sodipodi.sourceforge.net/DTD/sodipodi-0.dtd"
   xmlns="http://www.w3.org/2000/svg"
   xmlns:svg="http://www.w3.org/2000/svg">
  <defs
     id="defs136" />
  <sodipodi:namedview
     id="namedview134"
     pagecolor="#ffffff"
     bordercolor="#666666"
     borderopacity="1.0"
     inkscape:showpageshadow="2"
     inkscape:pageopacity="0.0"
     inkscape:pagecheckerboard="0"
     inkscape:deskcolor="#d1d1d1"
     inkscape:document-units="pt"
     showgrid="false"
     inkscape:zoom="1.7563477"
     inkscape:cx="251.08924"
     inkscape:cy="169.95496"
     inkscape:window-width="1278"
     inkscape:window-height="1415"
     inkscape:window-x="0"
     inkscape:window-y="23"
     inkscape:window-maximized="1"
     inkscape:current-layer="g130" />
  <g
     transform="translate(0.000000,256.000000) scale(0.100000,-0.100000)"
     fill="#000000"
     stroke="none"
     id="g130">
    <path
       style="fill:#ffffff;stroke-width:0.569363"
       d="m 142.41757,177.44231 c -11.57693,1.36515 -22.71233,5.23892 -34.01729,7.97613 -8.06186,1.46523 -15.998348,6.29947 -18.55993,14.47034 -3.627765,10.42647 3.058688,20.28308 7.876636,29.05534 4.801734,8.05405 10.219754,17.85839 20.472884,19.23732 8.37746,1.7527 16.51202,-3.04386 21.36482,-9.65799 7.58732,-9.11958 16.21122,-17.51595 22.58598,-27.56209 6.7971,-11.25305 1.16687,-27.50071 -11.17797,-32.048 -2.71111,-1.04923 -5.63465,-1.55583 -8.54513,-1.47105 z"
       id="path1265"
       transform="matrix(7.5,0,0,-7.5,0,2560)" />
    <path
       style="fill:#ffffff;stroke-width:0.569363"
       d="m 207.73534,203.13817 c -5.94783,0.22775 -10.95178,3.7128 -15.40729,7.24938 -4.73167,-0.47027 -9.96067,-0.85177 -14.40258,1.53882 -9.49682,4.0024 -12.33998,14.65968 -15.19518,23.56522 -2.7203,9.72931 -7.65003,19.30074 -7.06501,29.6249 0.87256,9.79653 9.32583,17.51628 18.88889,18.73445 6.09242,1.35603 12.29227,1.99175 18.25539,3.86327 6.05368,0.63734 11.81993,-1.74765 16.62608,-5.25216 8.7732,-3.99477 20.27738,-2.9576 26.47591,-11.51072 5.33142,-6.47173 4.96103,-15.57682 1.90908,-22.99045 -3.88242,-11.35644 -5.95321,-23.37353 -10.95415,-34.31412 -3.75212,-6.83161 -11.36054,-10.95655 -19.13114,-10.50859 z"
       id="path1263"
       transform="matrix(7.5,0,0,-7.5,0,2560)" />
    <path
       style="fill:#ffffff;stroke-width:0.569363"
       d="m 249.45121,174.06061 c -10.17754,2.3974 -16.29796,12.64319 -17.70244,22.36544 -1.43314,9.77739 6.35641,16.97303 11.70009,24.08914 6.29591,7.43496 11.41057,16.08392 19.0877,22.21709 8.71737,6.10821 21.67158,3.87141 27.90214,-4.74952 6.43104,-9.05371 12.5621,-18.50006 16.99972,-28.70503 4.08952,-10.6895 -2.603,-23.69528 -13.73255,-26.48874 -12.67356,-2.85336 -25.06398,-7.08625 -37.89179,-9.17192 -2.13577,-0.27857 -4.24023,0.27671 -6.36287,0.44354 z"
       id="path1273"
       transform="matrix(7.5,0,0,-7.5,0,2560)" />
    <path
       style="fill:#ffffff;stroke-width:0.569363"
       d="m 190.43536,39.372811 c -6.75477,1.602842 -12.05944,6.780459 -14.65999,13.077564 -3.54682,3.469326 -9.25658,3.284404 -12.58424,7.206096 -7.59938,6.383705 -8.80537,17.758523 -4.59675,26.409695 4.56623,11.552365 8.50503,23.399234 13.63403,34.702704 5.07095,9.11209 16.28342,12.60643 26.09138,12.60919 5.57701,-0.25268 10.21121,-3.57476 14.5754,-6.60909 9.67483,-0.29785 17.28881,-7.95335 20.40021,-16.67556 4.61447,-11.229406 10.19326,-22.143735 13.79021,-33.746221 2.59314,-10.852885 -4.96528,-22.276655 -15.64941,-24.908768 -6.92301,-2.495634 -14.50292,-2.876028 -21.27106,-5.716987 -5.11193,-5.223737 -12.48564,-7.912055 -19.72978,-6.348623 z"
       id="path1269"
       transform="matrix(7.5,0,0,-7.5,0,2560)" />
    <path
       style="fill:#ffffff;stroke-width:0.569363"
       d="m 276.01557,86.915763 c -10.00482,1.487439 -15.51849,10.740894 -22.34507,17.140867 -5.94049,6.6686 -13.0346,12.45983 -17.9434,19.94828 -4.04464,7.21479 -2.18045,15.86192 1.80418,22.66176 2.30042,6.94698 6.97058,13.49211 14.21184,15.8343 8.63401,2.90151 17.70736,-0.33034 26.47984,-0.81734 8.72504,-1.62285 18.32115,-0.71998 26.13512,-5.52683 8.27679,-5.53408 10.85631,-16.80125 7.32388,-25.84599 -4.141,-13.20697 -10.30591,-25.8202 -18.14401,-37.202108 -4.58063,-4.695858 -11.00634,-6.96494 -17.52238,-6.192939 z"
       id="path1271"
       transform="matrix(7.5,0,0,-7.5,0,2560)" />
    <path
       style="fill:#ffffff;stroke-width:0.569363"
       d="m 119.6486,88.510425 c -7.80452,1.13272 -13.31569,7.237906 -17.08424,13.724775 -7.023211,10.72028 -13.271095,22.28708 -16.379206,34.78454 -1.886563,10.52993 5.603246,21.23357 15.955516,23.56186 12.04322,2.76668 24.27966,4.91823 36.53014,6.45389 10.03555,0.72724 18.48907,-6.77359 22.22914,-15.57343 3.19519,-5.79692 7.49038,-11.6555 6.41272,-18.67273 -0.8652,-9.99241 -9.89783,-15.92436 -15.84436,-23.04638 -6.35828,-6.19332 -11.59892,-13.766879 -18.97884,-18.758133 -3.87476,-2.308411 -8.40503,-2.915496 -12.84087,-2.474392 z"
       id="path1267"
       transform="matrix(7.5,0,0,-7.5,0,2560)" />
    <path
       style="fill:#ffffff;stroke-width:0.569363"
       d="m 90.443147,-12.637197 c -10.556395,2.530505 -17.518832,14.2097899 -14.617464,24.69271 3.352719,10.816755 9.216922,20.67006 13.753575,31.016519 1.280743,3.214304 3.669644,6.659664 4.286742,9.723075 -3.807634,2.716176 -6.596712,6.518049 -9.456772,10.055046 C 73.977791,73.123273 65.678819,85.490842 58.940104,98.454124 50.667284,115.01136 44.88195,132.87296 42.347512,151.2238 c -14.327411,2.71547 -28.941003,4.19692 -43.0318444,8.00734 -10.4698836,3.35651 -16.5903436,16.00664 -12.3425596,26.22405 2.989934,8.47304 12.0171466,13.4756 20.7733474,13.12807 12.1075886,0.90886 24.6842356,2.02305 37.0430916,2.99027 3.462247,14.65713 9.040267,28.84832 16.025577,42.18182 9.336147,17.15953 22.421882,32.01365 36.95413,44.95635 -5.157037,14.32818 -10.956709,28.45618 -15.726425,42.90508 -3.1698,10.96002 4.909005,23.2818 16.198974,24.77588 9.052487,1.71674 17.794937,-3.9666 22.207887,-11.64913 16.13211,-23.08959 31.29699,-46.8588 47.83499,-69.65985 7.23407,-8.45658 8.2376,-20.05934 12.12279,-30.12495 1.68314,-5.20496 3.39161,-10.40173 5.11602,-15.59315 9.92534,3.33058 21.82889,-1.78934 25.54732,-11.71484 3.1289,-8.22739 0.56703,-16.86091 0.65827,-25.34821 -1.27752,-20.94498 -2.02793,-41.95067 -3.58434,-62.86098 -0.9278,-9.22577 -9.27348,-16.69614 -18.40551,-17.36371 -4.82533,-12.550335 -10.02632,-25.307388 -14.45761,-37.804834 11.31025,-1.913636 21.24316,-11.838443 20.93412,-23.694191 -0.005,-6.714296 -3.29673,-12.772832 -4.4426,-19.269391 C 188.45301,20.934056 176.95983,15.399225 166.56325,16.844036 156.31769,17.857525 146.53574,21.449609 137.1087,25.422297 127.42256,14.206678 118.69928,2.1057467 108.26244,-8.4281343 103.31686,-12.48178 96.681229,-14.035935 90.443147,-12.637197 Z M 127.76759,113.34557 c 6.82155,7.08119 13.59666,14.31332 20.04114,21.43675 -2.73123,4.0033 -5.09384,8.26444 -6.96914,12.73506 -11.99072,-1.86897 -23.96036,-3.71722 -35.65527,-6.20629 3.77168,-12.02199 9.72886,-23.33839 17.44342,-33.29663 1.71329,1.77703 3.42656,3.55407 5.13985,5.33111 z m 15.10035,76.56047 c -0.009,-0.0771 -0.009,-0.26692 0,0 z m 1.14874,7.14483 c 2.51655,2.62664 1.3667,5.14065 -1.1069,7.24798 -6.79767,8.28693 -14.0659,16.70839 -21.38629,24.9155 -5.53296,-7.06835 -10.06319,-15.31541 -13.42897,-23.4084 12.14002,-3.08799 23.91312,-6.31353 35.74423,-9.02197 z"
       id="path1255"
       transform="matrix(7.5,0,0,-7.5,0,2560)" />
    <path
       style="fill:#ffffff;stroke-width:0.569363"
       d="m 163.02919,261.84487 c -8.63183,0.33328 -15.23542,6.7665 -19.43175,13.79038 -5.03354,7.57807 -11.63521,15.76658 -9.6914,25.50837 1.55662,9.03558 9.59842,15.35017 18.24894,17.16433 13.53859,3.42891 27.33272,6.84203 41.35582,7.09476 11.02072,0.17547 20.68174,-10.02805 19.79563,-21.03346 -0.81499,-7.19794 -4.50115,-13.74907 -5.50548,-20.96419 -1.9879,-9.72715 -10.97732,-16.94621 -20.81068,-17.29886 -7.83257,-0.90251 -15.30874,-3.99986 -23.19471,-4.28047 l -0.56918,0.0142 z"
       id="path1261"
       transform="matrix(7.5,0,0,-7.5,0,2560)" />
    <path
       style="fill:#ffffff;stroke-width:0.569363"
       d="m 305.23436,-13.584654 c -9.18266,2.814893 -14.1384,11.6784966 -20.52392,18.1526447 -6.9784,8.4018753 -14.86829,16.1070413 -21.08631,25.0956173 -2.39579,4.502648 -2.0333,9.720432 -2.73228,14.52655 -3.12581,4.514899 -6.02051,9.401058 -9.81929,13.341118 -3.69178,1.019941 -7.90736,-0.101852 -11.39678,1.991472 -8.14765,2.835476 -11.39721,11.362512 -14.12034,18.793307 -3.99649,9.575257 -8.163,19.079571 -12.44674,28.529645 -10.78692,-0.40202 -20.35158,8.96746 -20.60717,19.68419 -1.07936,14.86572 -2.97821,29.31464 -1.79483,44.28579 0.91839,12.24727 0.67338,24.64102 2.60773,36.77954 1.92246,7.68137 8.65344,14.02527 16.54823,15.05477 3.49138,12.06008 6.78344,24.18272 10.60662,36.14345 -10.03345,2.84666 -22.40447,3.67724 -28.5181,13.42659 -6.55604,9.68518 -2.63327,21.89765 1.12527,31.84447 3.56014,9.72164 13.78596,16.36986 24.15346,15.04364 11.97298,-1.21117 23.57662,-4.73083 35.0203,-8.30803 7.79665,11.49482 14.56817,23.72089 22.98729,34.76867 7.58153,9.02376 23.14318,8.86755 30.3225,-0.55065 5.76464,-6.48424 5.47897,-16.02903 2.22188,-23.63697 -3.74278,-11.56629 -7.76064,-23.12725 -11.5528,-34.62331 18.06346,-15.18062 33.47038,-33.70436 43.9123,-54.94007 5.04867,-9.73404 8.49926,-20.17774 11.45718,-30.70686 15.3373,-1.28841 31.32018,-0.9431 46.73484,-3.56705 10.55231,-2.46565 17.63352,-14.20725 14.53138,-24.65891 -2.05898,-8.52809 -10.17521,-14.16716 -18.59042,-15.3083 -12.9459,-2.84034 -25.9923,-5.1924 -38.99051,-7.77627 -1.05488,-13.66508 -4.71351,-27.07063 -9.25661,-39.96108 -7.48611,-19.455257 -18.12669,-37.850647 -32.81179,-52.776202 -2.40685,-2.344503 -5.2763,-4.59138 -2.12042,-7.720015 6.20931,-12.557838 13.26517,-24.742601 18.70981,-37.654464 3.33771,-10.3121219 -3.05478,-22.595234 -13.70205,-25.161066 -3.48186,-1.171983 -7.32978,-0.906604 -10.86843,-0.112217 z M 279.23603,106.96691 c 4.73941,8.04798 9.28286,16.25663 12.23936,25.16591 0.90782,2.50253 1.75502,5.02763 2.51849,7.57805 -12.09435,1.53726 -24.05763,3.16682 -36.16458,4.56158 -1.27332,-3.83679 -2.92804,-7.54466 -4.89408,-11.0759 8.65294,-8.99911 17.5651,-17.75408 25.94941,-27.00806 l 0.23426,0.51894 z m -24.55824,86.02948 c 11.50109,3.0273 22.89863,6.49881 34.54434,8.94411 -4.06597,8.93123 -9.2038,17.38444 -15.31276,25.06645 -7.75819,-9.33011 -15.49298,-19.14946 -22.87239,-29.0164 1.38561,-1.2795 1.94575,-4.83683 3.64081,-4.99416 z"
       id="path1259"
       transform="matrix(7.5,0,0,-7.5,0,2560)" />
    <path
       style="fill:#ffffff;stroke-width:0.569363"
       d="m 211.30053,8.3035861 c -10.64732,0.016446 -19.75873,9.3577089 -20.0556,19.9054769 -0.32463,9.21887 -2.77084,19.263398 2.01688,27.7642 3.99523,7.109928 12.05304,9.87332 19.63052,11.206893 10.30436,1.876519 20.19522,5.327251 29.82438,9.365854 9.56029,3.583685 20.63156,-0.716963 26.05016,-9.177575 5.17798,-7.501111 12.78838,-14.773133 12.56724,-24.536938 0.32436,-9.331439 -6.95026,-17.082954 -15.40027,-20.008033 C 248.6824,15.239157 230.16381,9.6011846 211.30053,8.3035861 Z"
       id="path1257"
       transform="matrix(7.5,0,0,-7.5,0,2560)" />
    <path
       d="M753 2410 c220 -462 261 -546 271 -555 37 -33 276 -294 276 -302 0 -5 -16 -25 -36 -44 -42 -40 -81 -115 -90 -176 -4 -28 -11 -43 -20 -43 -28 0 -339 51 -367 60 -15 5 -38 5 -50 1 -12 -5 -46 -12 -76 -16 l-54 -7 6 62 c17 156 92 331 203 468 60 76 66 86 55 108 -6 13 -15 24 -20 24 -6 0 -8 6 -5 14 3 8 -1 26 -8 41 l-14 27 -33 -28 c-30 -25 -31 -29 -17 -40 14 -10 13 -11 -10 -11 -28 0 -32 -5 -111 -108 -107 -141 -193 -384 -193 -545 0 -45 23 -37 -243 -81 -108 -18 -196 -33 -195 -35 3 -3 444 -39 601 -49 49 -4 100 -10 114 -16 15 -6 31 -5 43 1 11 6 97 28 192 51 95 22 178 42 185 44 7 2 18 -18 28 -51 9 -30 20 -52 25 -49 6 4 10 -4 10 -16 0 -13 14 -38 32 -56 29 -29 30 -34 17 -50 -9 -10 -64 -76 -124 -148 -59 -71 -118 -139 -131 -150 -13 -12 -24 -30 -24 -41 0 -24 -19 -85 -30 -97 -11 -12 -135 107 -185 178 -52 73 -106 180 -130 256 -18 56 -18 57 -63 63 -73 10 -102 8 -102 -8 0 -31 52 -178 90 -254 67 -137 200 -292 318 -372 l22 -15 -65 -175 c-36 -96 -72 -192 -80 -212 -8 -21 -13 -38 -11 -38 2 0 90 127 194 283 105 156 197 289 206 296 9 8 16 20 16 28 0 20 120 386 130 396 4 5 25 0 46 -11 22 -11 53 -23 70 -26 l32 -7 -5 83 c-3 46 -10 180 -16 298 l-12 215 -46 -2 -47 -1 -76 194 c-42 106 -76 196 -76 199 0 3 -18 25 -40 47 -22 23 -40 47 -40 54 0 14 126 69 181 79 63 12 65 17 32 105 -4 8 -5 19 -4 23 7 32 -124 5 -236 -50 -63 -31 -76 -34 -87 -22 -7 8 -69 82 -136 164 -68 83 -129 157 -137 165 -8 8 15 -46 50 -120z"
       id="path122" />
    <path
       d="M2120 2283 c-122 -142 -233 -268 -246 -280 -13 -12 -24 -26 -24 -32 0 -5 -37 -93 -82 -196 -65 -148 -85 -185 -97 -180 -9 4 -30 9 -47 12 l-32 5 -5 -58 c-3 -33 -5 -70 -5 -84 0 -22 -28 -255 -47 -402 -8 -58 0 -60 86 -24 l56 23 51 -176 c28 -97 54 -189 58 -206 4 -16 18 -43 31 -59 41 -49 57 -87 41 -97 -22 -14 -169 -57 -235 -70 -39 -7 -63 -17 -63 -25 0 -34 25 -114 37 -118 31 -12 216 35 343 88 11 5 44 -41 130 -178 63 -101 116 -183 117 -182 2 2 -49 153 -112 336 -63 184 -115 341 -115 349 0 8 -13 29 -29 46 -36 38 -231 292 -231 301 0 3 13 22 30 40 35 41 65 96 75 142 3 17 10 32 14 32 4 0 98 -25 207 -56 148 -41 214 -55 258 -54 33 1 63 3 68 6 14 9 8 -42 -13 -112 -42 -137 -157 -320 -246 -392 l-37 -30 17 -54 c32 -104 32 -104 135 -2 145 144 238 305 287 497 12 49 28 93 35 97 7 4 92 11 189 15 97 4 194 10 216 14 l40 7 -45 8 c-25 5 -189 37 -365 71 l-320 63 -185 -24 c-263 -33 -246 -35 -253 30 -6 58 -31 115 -72 164 -14 16 -25 34 -25 39 0 4 69 77 153 160 111 110 160 166 177 203 13 27 26 50 30 50 4 0 35 -29 69 -65 37 -38 71 -65 83 -65 17 0 18 -3 8 -15 -9 -11 -8 -20 9 -44 55 -77 131 -284 131 -356 0 -18 9 -23 58 -33 104 -22 103 -24 76 106 -21 105 -48 182 -96 277 -52 103 -94 162 -190 261 l-78 80 81 160 c45 87 92 178 105 202 12 23 21 42 19 42 -2 0 -103 -116 -225 -257z"
       id="path124" />
    <path
       d="M1578 2283 c-3 -37 -4 -69 -3 -70 1 -2 35 -9 76 -17 72 -14 117 -28 191 -60 l37 -16 45 59 45 59 -69 31 c-72 32 -190 65 -271 76 l-47 6 -4 -68z"
       id="path126" />
    <path
       d="M1147 438 c-13 -18 -32 -45 -42 -61 l-17 -27 38 -16 c109 -46 388 -88 406 -62 4 7 6 22 3 33 -2 11 -5 39 -5 63 l0 42 -59 0 c-67 0 -184 21 -250 44 -24 9 -45 16 -47 16 -2 0 -14 -15 -27 -32z"
       id="path128" />
  </g>
</svg>
