<svg xmlns="http://www.w3.org/2000/svg" width="404.738" height="305.658" version="1.0" viewBox="0 0 303.553 229.243"><path d="M203.09 83.703c-6.557-.169-13.38 2.148-17.681 7.265-5.081 5.58-6.36 13.893-4.047 20.968 1.443 5.864 4.977 11.395 10.387 14.295 7.2 4.242 16.788 3.095 23.217-2.083 6.634-5.214 11.422-13.6 10.347-22.233-.894-8.542-7.703-16.006-16.13-17.67-1.998-.44-4.053-.553-6.094-.542zM196.21.014c-21.879-.36-43.427 6.882-61.333 19.299-8.212 5.487-15.512 12.182-22.434 19.194-36.03 1.509-70.983 20.215-91.577 49.929C6.626 108.013-.66 132.376.324 156.556c-.283 13.64 1.498 27.38 6.701 40.067 14.276 37.74 49.228 66.848 89.076 73.552 7.009 1.23 14.126 1.591 21.223 1.917 20.318 20.073 47.88 33.276 76.666 33.885 19.214.148 39.019-2.176 56.312-11.117 12-5.832 22.876-13.788 32.675-22.803 17.029-.652 34.644-1.45 50.206-9.2 16.371-6.796 31.026-17.352 42.708-30.679 19.791-21.323 30.395-50.69 28.728-79.741-.628-16.819-3.34-33.974-11.776-48.794-13.277-27.674-38.461-49.041-67.336-59.027-12.262-4.252-25.42-4.948-38.13-6.282-18.998-19.802-44.134-34.98-71.918-37.346A157.447 157.447 0 0 0 196.21.014Zm6.53 50.21c8.678-.536 17.152 1.894 24.847 5.76-7.846 4.748-15.04 10.522-21.586 16.935-3.5-.237-7.621 1.103-9.798-2.439-6.475-6.044-13.402-11.685-21.247-15.87 8.768-4.133 18.251-4.63 27.785-4.385zm1.503 38.975c8.927 1.038 17.75 9.392 15.247 18.933-1.693 9.744-13.106 19.002-22.823 13.668-9.521-4.544-14.112-18.151-7.96-27.033 3.86-4.392 9.796-6.314 15.536-5.568zm110.501 5.403c18.634 8.198 33.774 25.177 38.32 45.169 1.179 10.238 2.053 20.813.089 30.998-5.15 20.306-20.36 37.8-39.633 45.923 3.162-16.522 3.436-33.651 1.085-50.294-.785-4.771-2.928-9.444-3.513-14.109 4.291-11.686 5.172-24.183 4.781-36.526.079-6.98-.55-14.661-1.13-21.161zM84.767 97.967c-3.67 18.338-.86 37.168 4.008 54.976-5.833 19.846-7.744 41.15-2.703 61.388-18.235-9.718-31.942-28.078-35.374-48.501-.712-13.331-.941-27.555 6.066-39.463 6.064-12.432 16.162-22.865 28.215-29.596l-.108.61zm89.926 30.62c-3.133 15.833-3.046 32.225-.76 48.166-12.118-4.558-21.466-13.954-29.226-24.017 8.311-9.708 17.804-19.703 29.986-24.15zm56.777 2.82c9.525 4.96 16.77 13.306 23.55 21.43-5.91 7.37-12.664 14.28-20.363 19.775-4.12 3.437-3.39-.05-2.704-3.57 1.095-12.686.682-25.562-1.462-38.122l.554.276zm29.954 83.73c-.192 1.51-1.502-.125 0 0zm-122.017.544c4.108 2.105-1.861.909 0 0zm64.027 19.412c6.264 5.811 12.332 11.926 19.463 16.697-11.164 4.911-23.716 4.086-35.559 3.104-1.791-.7-8.839-1.058-6.23-2.79 7.704-5.22 14.969-11.129 21.409-17.857l.917.846z" style="fill:#fff;stroke-width:.218992" transform="scale(.75)"/><path d="M131.19 16.559c-13 3.5-25.5 11.1-34.7 21-5.4 5.9-5.8 6.1-10.6 6.1-12.5 0-27.1 4.5-38.3 11.9-13.8 9.1-24.1 22.3-29.4 37.6-3.6 10.5-4.5 28.5-2 39.7 4.6 20.7 19.1 39 38.1 48.4 11.2 5.5 18.4 7.4 30.5 7.9l9.4.5 5.1 4.9c9.6 9.3 21.8 15.9 34.3 18.7 11.2 2.5 29.2 1.6 39.7-2 9.7-3.3 20.2-9.7 27.5-16.7l5.5-5.3 11-.2c13.2-.3 20-1.9 32-7.8 19-9.4 33.5-27.7 38.1-48.4 2.5-11.2 1.6-29.2-2-39.7-7.8-22.8-27-40.8-50.1-47-3.3-.9-10.7-1.9-16.5-2.2-9.8-.6-10.6-.8-12.4-3.2-6.8-8.9-20.7-18.5-33.1-22.7-10.9-3.7-31.1-4.4-42.1-1.5zm34.1 7.6c8.8 2.2 21.2 8.7 27.8 14.6 3.1 2.8 5.7 5.4 5.7 5.8 0 .5-3.4 2.1-7.6 3.6-8.9 3.3-20.2 10.4-26.4 16.9l-4.4 4.6h-17.2l-4.4-4.6c-2.5-2.5-7.2-6.4-10.5-8.7-6.4-4.4-20.6-10.7-24.2-10.7-1.3 0-2.3-.4-2.3-.9s2.7-3.4 6-6.4c6.5-6.1 15.6-11 25.3-13.8 7.9-2.3 24.1-2.5 32.2-.4zm-79.5 28.3c0 .4-.4 1.2-.9 1.7-2 2.2-6.1 16.1-7.3 24.4-1.3 9.8-.2 20.8 2.9 30.8 1.6 5 1.6 5.6 0 10.6-3.1 10-4.2 21-2.9 30.8 1.3 9.2 5 21 8.4 26.7 1.1 1.8 1.8 3.5 1.5 3.8-1 1-15.6-1.6-22.1-3.9-19.9-7.3-35.8-24.9-41.1-45.7-2.5-9.6-1.7-27.2 1.7-36.2 6.7-18 20.3-32.3 37-38.9 9-3.6 22.8-6.1 22.8-4.1zm150.8 2.8c19.2 6.4 33.7 20.6 41 40.2 3.4 9 4.2 26.6 1.7 36.2-2.8 11-8.2 20.7-16.1 29-11.9 12.4-25.8 19-43.3 20.5l-8.3.8 3-5.9c5.9-11.7 7.7-19.6 7.7-33.9 0-10.7-.4-14.3-2.3-20.3l-2.3-7.2 2.3-7.3c1.9-5.9 2.3-9.5 2.3-20.2 0-13.7-1.8-22.3-6.7-31.9l-2-3.9 7.6.6c4.3.4 11.2 1.8 15.4 3.3zm-131.7-1c7.5 2.3 16.5 6.9 22.6 11.8 2.9 2.2 5.2 4.3 5.3 4.6 0 .3-3 1.6-6.7 2.8-13.4 4.6-27.4 14.9-34.4 25.1-1.9 2.8-3.7 5.1-4.1 5.1-1.1 0-2.3-9-2.2-17.5 0-9.8 1.6-16.8 6-26.3 3.7-8.2 4.2-8.4 13.5-5.6zm102.3 2.3c6.1 10.4 9.1 29.6 6.6 41.6l-1.3 6-2.1-3c-4-5.7-17.1-18-22.9-21.4-3.1-1.8-8.5-4.4-11.8-5.6l-6.1-2.2 5.3-4.7c2.9-2.6 8-6.2 11.4-7.9 6.5-3.3 16.4-6.8 18-6.3.5.1 1.8 1.7 2.9 3.5zm-53.6 23.1c-1.1 1.8-2.8 2.7-2.8 1.6 0-.2-.3-1.1-.6-2-.5-1.2 0-1.6 2-1.6 2.4 0 2.5.2 1.4 2zm-10 5c3.5 5.8 3.6 7.2 1.3 18-1.6 7.2-1.2 23.7.8 31.2 1.6 6.2 1.6 7 .1 10-4.1 8.3-3.2 7.8-10.2 6.2-3.5-.8-10.1-3.3-14.8-5.6-6.7-3.3-10.1-5.8-16.5-12.2-4.4-4.5-9.1-10.3-10.5-12.9l-2.5-4.7 2.5-4.7c3.7-7 17.2-20.2 25-24.2 7.4-3.9 16.6-7.1 19.5-6.8 1.2.1 3.3 2.3 5.3 5.7zm40.3 2.6c6.9 4.1 19.2 16.9 22.1 22.9l2.2 4.5-2.2 4.5c-2.9 6-15.2 18.8-22.1 22.9-5.3 3.2-18.8 8.6-21.5 8.6-.6 0-2.3-2.4-3.7-5.3l-2.5-5.2 1.7-6.5c2.3-8.3 2.4-23.8.3-33.7-1.8-8.7-1.6-10.1 2.5-16.5l3-4.8 7.3 2.6c4 1.5 9.8 4.1 12.9 6zm-92.2 43.5c7.4 10.8 21.4 20.8 36 25.6l8.4 2.7-6.1 5.7c-6.7 6.1-17.6 12.1-26.2 14.3-5.3 1.4-5.6 1.4-7.4-.7-2.7-3.1-8.1-15.2-9.7-21.7-2.1-8.8-1.4-31.1.9-31 .4 0 2.2 2.3 4.1 5.1zm122.5 11.9c0 10.8-.4 13.5-2.6 19.7-2.6 7.4-7 15.7-8.8 16.8-1.5.9-10.6-2.2-17.7-6.2-3.5-1.8-9-5.9-12.4-9l-6.1-5.7 7.5-2.6c4.1-1.5 10.1-4.2 13.3-6.1 7-4.2 17.5-13.7 21.7-19.8 3-4.4 3-4.4 4.1-2 .5 1.3 1 8 1 14.9zm-49.7 24.7c8.3 8.3 17 14 26.7 17.5l5.9 2.2-4.9 4.3c-5.8 5.2-18.5 11.7-26.9 13.8-7.7 2-23 1.9-30.9-.1-8.6-2.2-19.3-7.5-24.9-12.4-2.6-2.3-4.7-4.5-4.7-5 0-.4 1.5-1.1 3.3-1.4 9.1-1.7 26-12.4 33.8-21.5 4.2-4.9 4.6-5.1 9.6-5.1 5.1 0 5.3.1 13 7.7z"/></svg>