<svg xmlns="http://www.w3.org/2000/svg" width="405" height="306" version="1.0" viewBox="0 0 304 229"><path d="M203 84a22 22 0 0 0-18 7c-5 6-6 14-4 21a22 22 0 0 0 11 14 21 21 0 0 0 23-2c7-5 11-13 10-22a21 21 0 0 0-22-18zm-7-84c-22 0-43 7-61 19a146 146 0 0 0-22 20c-36 1-71 20-92 50a109 109 0 0 0-21 68 100 100 0 0 0 7 40 118 118 0 0 0 110 75 118 118 0 0 0 133 23 140 140 0 0 0 33-23c17-1 35-1 50-9 17-7 31-17 43-31a109 109 0 0 0 29-80c-1-16-4-34-12-48a118 118 0 0 0-68-59c-12-5-25-5-38-7-19-19-44-35-72-37a157 157 0 0 0-19-1Zm7 50a49 49 0 0 1 25 6 114 114 0 0 0-22 17c-3 0-7 1-10-2a102 102 0 0 0-21-16 60 60 0 0 1 28-5zm1 39c9 1 18 10 16 19-2 10-13 19-23 14s-14-18-8-27c4-5 10-7 15-6zm111 6a67 67 0 0 1 38 45 104 104 0 0 1 0 31 69 69 0 0 1-39 46 154 154 0 0 0 1-51l-4-14a97 97 0 0 0 5-36l-1-21zM85 98a120 120 0 0 0 4 55 118 118 0 0 0-3 61 69 69 0 0 1-35-48c-1-13-1-28 6-40a69 69 0 0 1 28-29zm90 31a147 147 0 0 0-1 48 69 69 0 0 1-29-24c8-10 17-20 30-24zm56 2c10 5 17 14 24 22a103 103 0 0 1-20 20c-5 3-4 0-3-4 1-13 1-25-1-38zm31 84c-1 2-2 0 0 0zm-122 1c4 2-2 1 0 0zm64 19 19 17c-11 5-24 4-36 3-1-1-8-1-6-3a132 132 0 0 0 22-18l1 1z" style="fill:#fff;stroke-width:.218992" transform="scale(.75)"/><path d="M131 17a75 75 0 0 0-35 21c-5 6-5 6-10 6a73 73 0 0 0-68 49 87 87 0 0 0-2 40 73 73 0 0 0 38 48 66 66 0 0 0 31 8l9 1 5 5a73 73 0 0 0 35 18 87 87 0 0 0 39-2 79 79 0 0 0 28-16l5-6h11c14 0 20-2 32-8a73 73 0 0 0 38-48 87 87 0 0 0-2-40 74 74 0 0 0-50-47 99 99 0 0 0-16-2c-10-1-11-1-13-3a78 78 0 0 0-33-23 91 91 0 0 0-42-1zm34 7a77 77 0 0 1 28 15l6 6-8 3a80 80 0 0 0-26 17l-5 5h-17l-4-5a93 93 0 0 0-11-9 80 80 0 0 0-24-10l-2-1s2-4 6-7c6-6 15-11 25-13a79 79 0 0 1 32-1zM86 53l-1 1a74 74 0 0 0-4 55v11a74 74 0 0 0 5 58l2 3c-1 1-16-1-23-4a67 67 0 0 1-41-45 75 75 0 0 1 2-36 66 66 0 0 1 37-39c9-4 23-6 23-4zm151 2a65 65 0 0 1 41 41 75 75 0 0 1 1 36 65 65 0 0 1-16 29 65 65 0 0 1-43 20l-8 1 3-6a65 65 0 0 0 7-34c0-11 0-14-2-20l-2-7 2-8c2-6 2-9 2-20 0-14-1-22-6-32l-2-4 7 1 16 3zm-132-1a74 74 0 0 1 28 17l-7 2a74 74 0 0 0-34 25 21 21 0 0 1-4 6c-1 0-3-9-2-18 0-10 1-17 6-26 3-8 4-9 13-6zm102 3a69 69 0 0 1 7 41l-1 6-3-3a113 113 0 0 0-22-21 91 91 0 0 0-12-6l-6-2 5-5a63 63 0 0 1 29-14l3 4zm-53 23-3 1-1-2 2-1c3 0 3 0 2 2zm-10 5c3 5 3 7 1 18a91 91 0 0 0 1 31v10c-4 8-3 8-10 6a85 85 0 0 1-15-6 53 53 0 0 1-17-12 80 80 0 0 1-10-13l-3-4 3-5c4-7 17-20 25-24a55 55 0 0 1 19-7c2 0 4 2 6 6zm40 2a81 81 0 0 1 22 23l2 5-2 4a81 81 0 0 1-22 23 88 88 0 0 1-21 9l-4-6-3-5 2-6c2-9 2-24 0-34-1-9-1-10 3-17l3-4 7 2a91 91 0 0 1 13 6zm-92 44a73 73 0 0 0 36 25l8 3-6 6a69 69 0 0 1-26 14c-5 1-6 1-8-1a79 79 0 0 1-9-21c-2-9-2-31 1-31l4 5zm122 12c0 11 0 13-2 19-3 8-7 16-9 17s-11-2-18-6l-12-9-6-6 7-2a97 97 0 0 0 14-6 88 88 0 0 0 21-20c3-5 3-5 4-2l1 15zm-49 24c8 9 17 14 26 18l6 2-5 4a78 78 0 0 1-27 14c-7 2-23 2-31 0a69 69 0 0 1-24-12 21 21 0 0 1-5-5l3-2c9-1 26-12 34-21 4-5 5-5 10-5s5 0 13 7z"/></svg>