<svg xmlns="http://www.w3.org/2000/svg" width="404" height="401.333" version="1.0" viewBox="0 0 303 301"><path d="M292.571 208.85c-17.029.59-33.236 16.325-30.794 33.924 1.227 13.11 13.277 23.249 26.19 23.697 11.675.686 25.28-.461 33.148-10.304 9.079-10.71 7.269-27.98-3.23-37.082-6.79-6.306-15.892-10.687-25.314-10.236zM169.104 106.76c-7.943.14-15.74 4.132-20.331 10.646-5.999 8.237-6.429 20.116-.91 28.706 4.654 7.606 13.626 12.25 22.519 11.733 6.912-.262 13.76-3.21 18.36-8.44 5.223-5.752 7.404-13.986 5.923-21.593-1.456-8.623-7.643-16.301-15.866-19.354-3.073-1.19-6.401-1.759-9.695-1.698zm71.88.025c-13.45-.114-25.395 11.112-26.544 24.435-2.115 13.316 7.483 26.72 20.561 29.541 12.343 4.254 27.47-1.192 32.97-13.336 6.72-13.365 1-31.792-13.123-37.688-4.344-1.943-9.095-3.03-13.864-2.952zm-38.3-20.135c-15.263.07-27.948 12.303-31.853 26.511-5.162 15.227 1.55 33.532 15.972 41.025 16.058 9.435 39.079 4.213 48.543-12.118 9.935-15.523 5.181-38.056-10.124-48.306-6.554-4.55-14.512-7.32-22.538-7.112zm49.972 141.122c-6.393.08-12.112 3.247-17.164 6.812-13.519 3.857-21.956 17.604-22.37 31.19-1.474 13.46 9.958 26.195 23.382 26.805 4.627.497 8.402 4.085 12.832 5.571 7.458 4.385 16.155 4.532 24.538 4.094 17.16-.372 34.365-.064 51.498-.86 9.79-1.218 17.628-8.021 26.335-12.152 9.94-4.456 17.006-14.925 15.93-25.986-.135-11.654-7.108-23.412-18.56-27.029-7.982-2.615-16.048-6.732-24.722-4.972-9.62.988-16.264 9.563-25.945 10.357-9.34 1.55-19.233-1.19-26.186-7.685-5.663-4.017-12.573-6.484-19.568-6.145zm-20.388 11.079c.824-1.098.802-.965 0 0zm-119.647-28.639c-12.768-.095-26.129 7.801-29.079 20.809-3.745 13.162 3.792 28.297 16.841 32.767 13.284 5.163 30.858 4.847 40.621-6.919 9.661-10.79 7.878-28.927-3.31-37.958-6.842-5.946-16.082-8.817-25.073-8.699zm36.082 17.14c-11.138 1.064-18.71 10.25-28.357 14.692-10.003 1.67-18.455-4.703-26.39-9.701-8.955-5.946-20.827-5.714-30.04-.468-11.7 4.838-19.049 18.099-16.246 30.557.65 8.853.712 18.74 7.578 25.352 5.742 5.334 12.59 9.486 19.495 13.158 10.104 3.688 21.129 2.012 31.655 2.564 12.664-.26 25.392.656 38.009-.531 11.786-3.415 21.25-11.827 32.64-16.131 9.97-5.245 14.72-17.451 12.29-28.26.39-12.471-8.767-24.294-21.045-26.76-6.126-2.908-12.685-5.29-19.59-4.471zm22.114-94.593c-11.231 1.078-19.647 9.84-24.576 19.39-8.467 14.903-17.36 29.627-24.806 45.072-4.756 10.786-1.973 23.933 6.438 32.117 8.94 9.132 17.7 19.222 29.481 24.726a37.154 37.154 0 0 0 7.405 2.384c-1.045 11.39 5.95 22.98 16.96 26.554 10.166 2.623 21.085 3.39 31.446 1.454 10.365-2.938 21.656-8.481 25.026-19.56.587-3.751 1.165-6.726 5.594-6.92 12.388-4.989 20.513-16.325 31.498-23.512 9.039-5.83 16.184-15.842 15.075-27.019-1.242-10.797-8.722-19.367-13.716-28.641-7.39-11.548-13.927-23.778-22.74-34.325-7.09-8.415-19.353-10.498-29.398-6.689-6.892 2.349-14.204 2.75-21.015 2.505-5.09.131-10.406-.21-14.554-3.528-5.447-3.163-11.83-4.735-18.118-4.008zM42.052 239.264c-13.665.44-25.252 13.176-24.351 26.831.109 17.883 20.205 31.478 36.92 25.796 16.094-4.618 23.455-25.842 14.505-39.746-5.421-9.58-16.66-13.093-27.074-12.881zm326.143-8.462c-13.11.152-24.505 11.36-25.332 24.369-2.521 13.256 7.263 27.13 20.577 29.283 11.955 2.572 25.621-3.224 30.392-14.843 6.37-13.901-.785-32.906-15.87-37.428-3.122-1.108-6.465-1.504-9.767-1.381zm3.829 41.911c-13.743-.386-26.103 11.484-26.45 25.198-1.755 12.21 5.631 25.236 17.666 28.798 14.641 5.218 32.484-4.04 36.092-19.307 4.322-14.829-6.162-31.928-21.57-34.222-1.889-.355-3.818-.49-5.738-.467zM201.01-12.712c-12.074-.047-22.415 9.2-25.74 20.472-2.384 6.022-3.935 12.79-6.581 18.418-3.989.524-8.076 2.291-11.971 2.296-17.27-8.055-39.338.518-47.711 17.358-1.255 1.876-1.853 7.045-4.995 4.65-10.252-4.656-20.082-10.558-30.92-13.743-13.781-3.372-29.102 6.725-30.903 20.923-2.17 12.687 5.762 23.92 10.605 35.003.687 2.715 4.409 5.738 2.366 8.387-1.655 4.235-6.928 3.83-10.123 6.475-16.201 9.205-22.751 31.776-13.794 48.132-1.023 2.836-.907 6.634-2.556 8.86-9.36 3.785-20.007 5.993-29.175 11.041-15.332 8.786-17.846 33.594-3.512 44.415 7.645 5.694 17.517 6.999 26.238 10.497 2.46 1.448 7.83.83 6.887 4.72.337 13.49 12.614 24.976 26.066 24.614 15.65-.09 27.775-11.425 40.304-19.265 10.422-5.726 24.473-4.98 32.154-15.264 5.016-6.139 6.677-14.516 5.59-22.186 7.293-12.694 14.406-25.555 22.795-37.564 10.783-6.783 15.88-21.442 11.09-33.215 12.597-2.952 24.083-13.535 24.41-27.067.563-4.021 3.743-7.335 5.353-11.057 1.967-3.332 3.937-7.415 5.968-10.245 2.053 3.28-.376 7.629.688 11.397.875 10.731 8.965 19.136 18.245 23.7 8.06 4.709 15.312 11.157 24.5 13.626.06 7.862-1.378 16.286 3.227 23.285 10.49 16.62 21.389 32.977 31.76 49.695-1.028 12.23 7.13 24.378 18.946 27.833 14.37 8.043 25.055 22.874 41.803 26.35 13.703 3.252 29.03-5.978 31.686-19.996 1.282-2.103-.69-6.187 1.662-7.099 10.89-4.206 22.883-6.419 32.519-13.304 11.76-8.646 13.662-27.363 3.6-38.029-8.13-9.008-20.907-10.581-31.69-14.783-2.38-1.24-6.28-1.154-7.72-3.231-.368-4.246-3.37-8.643-.65-12.568 5.797-13.942.411-30.587-11.102-39.895a38.516 38.516 0 0 0-12.268-7.005c-2.861-2.704 1.211-5.86 2.004-8.804 3.814-8.842 9.639-17.18 10.9-26.882 2.051-14.762-11.1-28.95-25.898-28.5-10.916.115-20.285 6.7-30.029 10.817-2.797.864-5.822 4.448-8.324 1.234-2.794-1.176-4.137-3.423-5.047-6.193-6.923-12.53-21.087-22.56-35.907-20.447-4.391.164-8.535 2.512-12.664 3.02-2.744-.663-5.649-1.145-8.305-1.872-3.577-8.586-5.587-17.824-9.826-26.11-4.913-8.273-14.369-13.257-23.955-12.894Zm110.373 289.856c-85.986 1.248-171.982 1.557-258.015 1.615-13.489.056-25.202 12.52-24.296 25.994-.137 8.916 3.52 18.126 10.952 23.36-3.535 13.535 5.556 28.767 19.34 31.602 11.752 3.062 22.314-4.421 32.536-8.97 4.548-2.226 9.073-4.498 13.648-6.67 2.534 1.968 2.578 5.972 4.69 8.49 8.164 14.371 26.794 20.829 42.288 15.556 4.454-2.527 9.169.58 13.838 1.017 2.395 2.065 2.447 6.767 3.95 9.835 4 10.304 5.098 22.915 14.68 29.903 9.337 6.779 22.941 6.239 32.458.168 9.997-6.348 11.347-18.988 15.425-29.125 1.263-3.67 2.53-7.34 3.802-11.006 4.246-.518 8.516-3.292 12.63-1.04 17.164 4.905 36.859-4.893 43.515-21.41 2.494-1.7 4.925-3.939 7.66-1.262 11.135 5.016 21.735 11.889 33.861 14.236 13.717 2.404 28.157-8.022 29.51-22.011 1.35-7.578-1.993-14.79-5.168-21.457 6.391-12.02 2.857-28.98-9.397-35.822-9.787-5.588-21.399-2.618-32.091-3.099l-5.816.096z" style="fill:#fff;stroke-width:.599005" transform="scale(.75)"/><path d="m146.1 20.2-5.2 15.6-7.2 1.3c-4 .6-10 1.9-13.4 2.9-5.5 1.5-6.4 1.5-7.5.3C107.6 34 97 38.8 97 47.4c0 1.5-.7 2.7-1.9 3.1-1 .3-4.6 2.5-8.1 4.9l-6.3 4.4-16-7.9c-8.7-4.4-16.1-7.8-16.4-7.6-.2.3 3.2 7.6 7.5 16.3l7.9 15.9-3.8 5c-2.1 2.7-4.9 6.9-6.1 9.2-2.1 3.8-2.7 4.3-5.9 4.3-7.8 0-12.2 10.2-6.6 15.2l2.4 2.1-2.4 9c-1.3 4.9-2.3 10.1-2.3 11.6 0 1.4-.4 3.1-.8 3.7-.4.6-8 3.5-16.9 6.5C12.3 146 5 148.7 5 149c0 .3 7.5 3 16.7 6.1l16.8 5.5 1.1 6.8 1.1 6.7-3.9-.6c-6.2-1.1-6.8 0-6.8 13.1 0 9.9.2 11.6 1.9 13.3 1.7 1.7 2.5 1.8 5.4.9 1.9-.6 5.1-.8 7.2-.4 3.4.7 3.6.9 2.2 2.4-2.5 2.9-13.7 22.8-13.7 24.3 0 3.2 2.3 3.9 13.2 3.9H57l-5.5 11c-3 6-5.5 11.2-5.5 11.6 0 .3 7.5-3.3 16.6-8.1 9.2-4.7 17.2-8.5 17.8-8.3.6.2 4.6 2.6 8.8 5.3 5.9 3.8 7.7 5.6 7.7 7.3.1 2.8 1.8 6.3 4 7.9 2.5 1.9 8.5 1.5 11.3-.7 2.4-1.9 2.8-1.9 7.2-.4 2.5.9 8.1 2.1 12.3 2.8l7.8 1.2 5.5 17.1c3 9.4 5.8 17.4 6.1 17.7.2.3 3.2-7.6 6.4-17.4 5.7-17.4 6-18 8.6-18 1.5 0 6.9-1.1 12-2.4 8.7-2.3 9.5-2.3 11.2-.8 4.4 4 13.4.1 13.9-6.1.2-2.2 1.3-3.4 5.3-5.7 2.7-1.6 6.8-4.2 9-5.8l3.9-3 16.9 8.5c9.3 4.6 17.1 8.2 17.4 8 .2-.3-2.1-5.5-5.1-11.6-3.1-6.1-5.6-11.3-5.6-11.6 0-.3 7.6-.5 16.9-.5 14.1 0 17.2-.3 18.5-1.6.9-.8 1.6-1.8 1.6-2.2 0-.3-3.7-6.2-8.2-12.9-4.4-6.8-7.8-12.6-7.5-12.9.3-.3 2 .1 3.7 1 3 1.4 3.3 1.4 6.2-.7 2.5-1.9 2.9-2.7 2.4-5.5-.3-1.8-.1-7.1.5-11.7.6-6.1.6-9.1-.3-11-.6-1.4-1.4-2.4-1.7-2.3-10.5 5.4-12.1 6-14.3 5.5-2.5-.7-2.5-.7-1.4-6.9l1.2-6.3 17.9-6.1c15.8-5.4 17.7-6.3 15.5-7.2-1.4-.5-9.2-3.1-17.4-5.8-16.5-5.4-15.6-4.6-17.6-15.9-.7-3.9-1.8-8.6-2.5-10.5-1.2-3.3-1.1-3.8 1.1-6.3 1.4-1.6 2.4-4.1 2.4-5.8 0-4.1-4.8-8.9-8.9-8.9-2.6 0-3.6-.9-8.7-8.7l-5.6-8.7 7.6-15.3c4.2-8.4 7.6-15.5 7.6-15.8 0-.3-7.2 3.1-15.9 7.4-14.8 7.5-16 7.9-17.4 6.3-.9-.9-5.1-3.9-9.5-6.7-7-4.3-7.9-5.3-8-8-.1-2.1-1.1-3.9-3.3-5.9-2.6-2.3-3.8-2.7-6.7-2.3-1.9.4-4.3 1.3-5.3 2.2-1.6 1.6-2.4 1.5-10-.4-4.6-1.2-9.4-2.1-10.8-2.1-1.4 0-3.3-.5-4.1-1-.8-.5-3.8-7.8-6.6-16.2l-5.1-15.3-5.2 15.7zm18.4 28C176 65 178.1 68.9 175 68.1c-.8-.2-4.1-1.1-7.3-1.9-4.6-1.2-6.4-2.2-8.3-4.9-1.3-1.8-3.6-4.9-5-6.8l-2.5-3.5-2.3 2.7c-1.2 1.6-3.9 5.5-5.9 8.8-3.1 5-5 6.8-11.4 10.7-4.3 2.5-8.2 4.3-8.6 3.8-.8-.7 21.6-40.3 25.1-44.3.8-.9 2.1-1.7 2.7-1.7.7 0 6.6 7.7 13 17.2zm5.5 22.1c3 1.3 8.4 4.4 11.9 7 5.3 3.9 7 4.7 10.8 4.7 2.4 0 5.4-.5 6.5-1.1 1.1-.6 2.4-.7 2.8-.2.4.4.9 6.2 1.1 12.8l.4 12-4.5-.3c-5.8-.4-8 .5-16.2 6.6-8.7 6.4-17 8.6-29.6 8-10.3-.5-18-3.5-24.9-9.9-7.1-6.5-12.6-8.2-17.9-5.4-1.7.8-3.2 1.1-3.7.6-1-1 .1-25.1 1.2-25.1.3 0 2.4.6 4.5 1.4 5.2 1.8 9 .7 17.7-5.1 12.3-8.2 28.6-10.6 39.9-6zm-53.3 36.3c.1.5-5 10.6-11.5 22.4l-11.7 21.5-6.5 2.2c-3.6 1.2-6.8 2.2-7.2 2.2-2.5.3.6-6.4 11.3-24.3 12.1-20.2 12.2-20.2 17.8-22.9 5.6-2.7 7.2-2.9 7.8-1.1zm88.1 3.6c1 1.8 7.6 12.1 14.6 22.8 6.9 10.7 12.5 19.8 12.3 20.3-.1.5-2.7 1-5.6 1-4.7 0-5.6-.4-7.6-2.9-5.6-7.3-26.6-41.7-25.8-42.4 1-1 3.9-1.7 7.5-1.9 1.9-.1 3.1.7 4.6 3.1zm-70.9 9.2c5.5 3.5 10.4 4.6 20.8 4.6 6.3 0 11.1-.6 15.4-2 3.5-1 6.4-1.8 6.5-1.7 2.2 2.3 23.4 36.3 23.1 37.1-.2.6-2.5 2.5-5.2 4.3-2.7 1.8-7.1 5.4-9.9 8.1-2.8 2.8-6.1 5.5-7.3 6.1-3.6 1.8-8.7 1.3-12.7-1.4-2-1.4-3.8-2.5-3.9-2.5-.1 0-.1 4.7.1 10.4l.4 10.4-3.2 1.7c-2.6 1.3-4.7 1.6-9.7 1l-6.3-.7.3-10.9c.2-6 .1-11.2-.3-11.4-.3-.2-3.2.3-6.4 1.1-8.4 2.2-10.7 1.3-20.1-7.8-6.9-6.6-8.2-8.3-7.7-10.1.8-2.6 21.1-38.7 21.8-38.7.2 0 2.2 1.1 4.3 2.4zm-30.8 40.8c3.1 1.6 9.2 6.2 13.7 10.3 8.9 8.1 11.9 9.5 16.6 7.6 1.7-.7 4.2-1.5 5.5-1.8 2.2-.5 2.3-.4 1.6 1.8-.4 1.3-1.1 6.4-1.4 11.4l-.6 9-5.7-.3c-7.7-.4-11.2.7-19.9 6.4-4.3 2.8-11.4 6.2-16.9 8.1l-9.5 3.2 86.3.1c47.4 0 86.2-.4 86.2-.8s-1.3-2.9-3-5.5-3-5-3-5.2c0-.6 7.3-5.5 8.1-5.5.9 0 16.9 24.3 16.9 25.7 0 1.3-41.5 2-160.2 2.8-54 .3-81.8.2-81.8-.5 0-1.2 12.7-22.7 13.9-23.4 1-.7 9.1 5.4 9.1 6.9 0 .5-.4 1.7-1 2.5-1.5 2.4.9 3 13 2.9 11.3-.1 11.4-.1 6.3-1.3-7.1-1.8-14.8-5.7-22.8-11.7-7.2-5.5-12.1-6.9-17.4-5.1-4.2 1.5-4.7.3-4.3-11.8l.3-10.2 3.5.6c5.4 1.1 10.6-1 18.9-7.4 6.5-5 9.4-6.5 17.4-9 5.3-1.6 10.7-3.1 12.1-3.3 4.9-.9 12.6.6 18.1 3.5zm130.1-1.9c1.8.8 4.7 2.6 6.3 4.1 1.7 1.4 3.3 2.6 3.7 2.6.4 0 3.4 2.4 6.7 5.4 7.9 6.9 13 8.6 19.6 6.1 2.5-1 4.8-2.2 5.1-2.6 1.6-2.6 2 .3 1.6 10.8-.3 6.5-.9 12.1-1.4 12.4-.6.4-3.8.5-7.2.2-6-.4-6.3-.3-16.6 5.6-5.8 3.3-12.5 6.7-15 7.6-6.2 2-17 3.4-22.2 2.8-5.1-.6-22.9-7.6-26.9-10.5-2.5-1.9-3.7-2-11.5-1.4-4.8.3-9.7.9-11 1.2l-2.2.6.5-12.4c.3-6.7.9-12.7 1.3-13.2.5-.5 2.5.1 4.5 1.4 5.3 3.3 9.8 1.7 17.3-6.1 5.9-6.2 6.9-7 16.2-11.6 10.7-5.3 23-6.5 31.2-3zm19.2 50.9c2.4 3.4 2 3.8-3.9 3.8-5.2 0-5.4-.1-4.3-1.9 1.1-1.8 4.2-3.9 6-4 .4-.1 1.4.9 2.2 2.1z"/><path d="M146 80.8c-11 3.6-23.7 11.7-20.2 12.9.7.3 3.1 2.1 5.5 4 8.3 7 21.4 10.6 30.9 8.4 6.7-1.5 14.2-5 19.1-8.9l3.7-3-3.3-2.9c-5.2-4.5-20.2-11.6-25.6-12-2.7-.2-6.9.5-10.1 1.5zm13 5.1c3.1 2.2 3.9 8.1 1.6 11.6-2.1 3.2-7.4 4.2-11.5 2.1-3.7-2-4.7-5.2-3.1-10 2.1-6.6 7.1-8 13-3.7zM72.4 173.3c-7.3 4-16.4 10.5-16.4 11.8 0 1.5 9.7 8.6 15.2 11.2 10.7 4.9 20.7 5.4 28.2 1.5 4.8-2.5 14.6-9.4 14.6-10.3 0-1.8-11.6-12-16.6-14.5-3.5-1.7-6.9-2.5-11.9-2.8-6.4-.2-7.6 0-13.1 3.1zm18.6 4.5c4.8 3.9 3.1 15.4-2.6 16.8-3.3.8-8.7-1.7-10.9-5-2.5-3.8-1.6-10.7 1.5-12.3 3.6-1.8 9.4-1.6 12 .5zM209.4 170.5c-2.7 1.3-8.4 5.2-12.6 8.5-7.6 5.9-7.7 6.2-6.3 8.4.8 1.2 3.6 3.7 6 5.5 13.2 9.5 33.2 9.6 46.8.2 7.8-5.3 7.8-5.3.5-12.4-12.3-12.1-23.8-15.5-34.4-10.2zm17.3 8c3 3 3.5 4 2.9 6.7-.8 4.3-3.2 6.6-7.4 7.4-3.1.6-3.9.3-6.4-2.5-3.7-4.1-3.8-9.2-.3-12.6 3.4-3.5 7-3.2 11.2 1z"/></svg>