<svg xmlns="http://www.w3.org/2000/svg" width="742" height="606" version="1.0" viewBox="0 0 557 454"><path d="M379 326c-7 1-14 6-18 13a20 20 0 0 0 4 23 23 23 0 0 0 21 7c8-2 15-10 15-18l-1-9a19 19 0 0 0-21-16zm6-75c-7 0-14 4-17 11a20 20 0 0 0 6 24 20 20 0 0 0 22 1c7-4 11-12 9-20a20 20 0 0 0-16-16 21 21 0 0 0-4 0zm-18-27c-6 0-12 4-15 9a20 20 0 0 0 2 24c5 5 12 7 19 5a19 19 0 0 0 15-14 20 20 0 0 0-21-24zm-19-30c-8 0-16 6-18 14a21 21 0 0 0 18 25 19 19 0 0 0 21-15 21 21 0 0 0-18-24h-3zm64 115c-18 0-33 16-31 34 0 16 11 34 28 35 12-1 27 1 35-10 9-12 14-32 3-44-9-10-23-14-35-15zm32 13c5 4-6-3 0 0zm-188 46c-14 1-21 16-17 28 4 15 22 18 34 12 16-7 14-33-2-38a48 48 0 0 0-15-2zm20-247a63 63 0 0 0-31 11c-8 9-9 23-4 34 7 12 23 12 35 13 11 1 24-1 29-12 5-9 6-21 3-31-5-9-17-12-26-14a30 30 0 0 0-6-1zm-60 71c-14 2-20 18-27 29-8 17-20 33-27 51-3 12 5 22 15 27l35 29c9 6 20 4 29-1 3-1 6 1 4 4-1 14-4 29 0 43 3 11 15 14 25 13a20 20 0 0 0 23-17c2-13 0-26 2-38 3-5 8 1 11 1 13 6 26-2 34-11a130 130 0 0 1 36-27c11-6 13-21 5-30l-29-45c-6-7-10-18-21-20-12-2-23 6-35 7a90 90 0 0 1-61-10c-6-3-12-6-19-5zm168-17c-11 3-24-1-33 7-9 9-6 24 0 34l22 33 18 29c7 11 22 7 33 8 10 1 21-1 25-10 6-10 0-20-6-28-11-20-24-38-37-57-5-8-12-16-22-16zm-6 1c1 0 3-1 0 0zM130 314c-15-1-32 4-38 20-4 14 0 33 16 39a68 68 0 0 0 43 2c14-6 16-24 14-37-1-10-6-19-16-21a56 56 0 0 0-19-3zm287-47c-25 0-49 9-70 24-11 7-19 19-30 26-5 0-9-6-15-6-13-3-26 8-26 22-2 14 1 28-3 42-3 12 6 26 19 26s26-3 40-4c11 7 23 15 37 14 33 0 67 0 100-2 11-1 18-12 17-22 2-6 9-9 15-11 4 0 5 6 8 8 9 10 26 9 35 0a25 25 0 0 0 6-27c1-13 5-26 3-39s-19-20-30-13c-7 3-14 9-21 4-10-7-19-16-31-23a72 72 0 0 0-49-19h-5zm56 21zm-60 40c15 1 28 11 38 21a73 73 0 0 1-51 9c-8-3-17-5-23-10 11-9 22-19 36-20zm-263-58a95 95 0 0 1-34 10c-9-7-21-5-31-1-18 6-31 21-48 30-9 1-20-4-28 4-11 8-8 24-9 36 0 13-2 30 10 39 5 4 12 5 18 3-7 15-21 27-20 45 0 11 11 20 22 18 149 0 297-2 446-3 21-1 43 0 65-2 13-2 19-18 13-30-6-11-15-21-21-33-7-8-11-17-19-24-11-9-27-2-37 6-7 5-11 15-9 23l-221 1c12-5 15-19 15-30-1-11 1-22 2-33 1-14-13-24-26-20-5 0-10 5-15 4a322 322 0 0 0-40-33c-10-5-21-13-33-10zm-22 63c8-1 15 1 21 5a125 125 0 0 1 14 11c-10 6-22 12-35 9a72 72 0 0 1-32-12c8-4 16-11 25-13h7zM269 79c-11 0-18 10-24 19-6 7-17 9-23 17-4-1-9 4-13 0-6-5-14-4-21-8-12-5-27 2-30 15-2 13-2 26-2 39 1 14 16 22 29 18 3 0 8-3 11-1 3 18 17 29 32 37a100 100 0 0 0 62 11c23-1 46-11 64-26 4-3 8-6 14-5 10 0 24 0 29-12 5-11 0-22 0-34-2-12 1-26-7-36-6-9-18-8-28-5-6 4-12-1-16-5-7-6-16-8-25-6a104 104 0 0 1-31-8c-5-6-13-10-21-10zm11 61a276 276 0 0 1 28 13 65 65 0 0 1-65-3c12-3 23-9 36-11l1 1zM270 0c-12 1-21 9-26 19-12 18-22 38-33 56l-18 31c-5 12 3 29 18 30 13 0 23-10 34-14 12-6 18-18 25-28 5 8 12 14 21 16 11 2 23 8 35 6 13-3 19-20 12-31-13-23-29-44-43-66-6-8-12-20-24-19h-1zm-15 114c-1 1 0-1 0 0zm-10 6c1 0 2 0 0 0zm-52 39c-13 0-24 7-35 14-11 9-16 23-25 35a652 652 0 0 1-24 41c-7 11-14 25-9 39 4 11 17 13 27 10 11-4 24-5 32-13 11-13 17-28 25-42l29-54c6-11 0-26-12-29a27 27 0 0 0-8-1zm-25 9s1 0 0 0z" style="fill:#fff;stroke-width:.236406"/><path d="m267 20-4 2c0 1-7 14-10 16l-2 4a83 83 0 0 1-6 11 98 98 0 0 0-5 8l-8 15a61 61 0 0 0-6 9 252 252 0 0 1-12 22c-2 0-5 7-5 9 0 3 4 2 13-3a105 105 0 0 1 14-7l4-3 2-1 6-8 7-9v-1c0-2 6-11 11-16l3-6c1-1 1-1 2 1a156 156 0 0 1 12 17l8 11 24 6c6 3 7 3 8 0l-3-8a28 28 0 0 1-4-6 222 222 0 0 1-18-27 42 42 0 0 0-6-7l-3-5a831 831 0 0 0-16-24c-1-2-2-2-6 0z"/><path d="M269 98a96 96 0 0 0-22 5l-1 1c-3 0-29 15-32 18a67 67 0 0 1-16 7c-5 0-11-1-15-4-3-2-5-2-6 0l-2 18-1 25-1 9h3a19 19 0 0 0 8-2c4-3 5-3 10-2 5 0 13 3 18 6l9 9a46 46 0 0 0 16 11l9 4c1 2 12 4 22 5h20a92 92 0 0 0 40-12l6-4 15-11 7-3c4-2 6-2 15-1 11 0 11 0 10-8-2-6-4-40-3-42 1-3-2-4-8-2l-16 4a35 35 0 0 1-14-7l-5-4c-15-10-19-13-21-13a6 6 0 0 1-3-1c-3-4-14-6-27-6h-15zm16 24 5 2a291 291 0 0 1 39 20l7 6 4 3-3 2-7 6c-8 8-29 16-43 18-20 2-48-6-60-18a58 58 0 0 0-10-8l-4-3c1 0 4-2 7-6 5-4 8-6 19-11a204 204 0 0 1 21-8 37 37 0 0 0 9-3 42 42 0 0 1 16 0z"/><path d="M265 133c-5 4-8 9-8 17-1 7-1 8 2 11 5 5 7 6 14 6 8 0 13-1 15-4l2-5 1-10c0-6 0-7-2-10a24 24 0 0 0-16-8c-5 0-6 0-8 3zm-82 46-7 4c-1 2-4 3-6 3-3 1-5 5-13 18a58 58 0 0 1-4 7 60 60 0 0 0-8 13l-5 8-5 10v1l-16 25c-3 5-3 11-2 12s13-2 25-6c4-1 5-2 8-7a350 350 0 0 0 14-25l8-16 11-20 11-21c2-1 3-6 3-7-1-2-9-1-14 1zm182 2c-4 0-9 3-9 6l5 9 4 7 9 14 3 4a237 237 0 0 0 17 27l10 17c0 1 6 9 10 12 3 4 4 4 6 3h17c4 1 4-2 1-8l-3-4-3-3-7-12-8-13a42 42 0 0 0-5-7l-9-14a147 147 0 0 0-11-16l-6-10-7-11c0-2-5-2-14-1zm-144 22-3 7a345 345 0 0 0-19 33 28 28 0 0 1-4 6l-9 15-8 15-1 5-1 5 8 9c11 11 23 21 29 23a42 42 0 0 0 27-1l9-2c2 1 2 3 1 25v24c1-1 5 0 10 1a59 59 0 0 0 13 1c7-1 15-5 16-7a351 351 0 0 0 0-43c0-1 8 3 10 6l6 3a21 21 0 0 0 19-1c4-2 6-4 17-15l11-9 2-2 8-6a28 28 0 0 0 9-5c1-3 0-8-5-16l-8-12a37 37 0 0 0-4-7 107 107 0 0 1-10-14 115 115 0 0 0-12-17l-10-16-4 1-15 4c-10 3-11 3-31 3-17-1-21-1-26-3a65 65 0 0 1-20-11c-1-2-3-1-5 1z"/><path d="M127 286a537 537 0 0 0-23 6c-17 5-26 8-26 10l-2 2-11 8a77 77 0 0 1-12 9l-5 3-5 3a25 25 0 0 1-12 1 210 210 0 0 0-9-1h-3v18a170 170 0 0 1-1 20l1 6c2 3 3 4 9 2 5-2 15-2 21 0a77 77 0 0 1 18 13 145 145 0 0 0 29 17 58 58 0 0 0 19 6 381 381 0 0 1-46 1c-1-1 0-2 1-4 4-4 4-7 1-10-13-12-12-11-16-10-3 0-4 1-8 8a158 158 0 0 0-4 9 128 128 0 0 1-13 19l-3 6c-5 8-5 8 12 8l200-1 242-2 57-2c2-1-4-10-6-12a135 135 0 0 1-11-17l-8-12a26 26 0 0 1-4-5c-2-5-6-10-7-10-2 0-10 4-13 7-5 4-5 5 0 13l4 8 3 4 3 2-10 1H133l12-3a58 58 0 0 0 13-4l10-5c8-4 23-12 23-14l9-5a43 43 0 0 1 28-5c9 2 13 1 14-1l1-18c0-12 1-17 2-20a21 21 0 0 0 1-6c0-4-2-4-10 0-4 2-7 3-11 3-9 0-12-2-21-11a62 62 0 0 0-15-12l-8-8a90 90 0 0 0-14-9 63 63 0 0 0-40-6zm22 31 11 5 7 7a67 67 0 0 1 16 13l4 5a16 16 0 0 1 3 4c0 1-2 3-6 5a59 59 0 0 0-7 6 109 109 0 0 1-26 13 55 55 0 0 1-33 1 80 80 0 0 1-38-19c-13-9-13-9-12-12 1-2 5-7 7-7l22-15a82 82 0 0 1 18-9l15-1c8 1 11 1 19 4z"/><path d="M120 328c-10 3-9 3-10 8a39 39 0 0 0 1 16 47 47 0 0 0 13 13 32 32 0 0 0 9 1c5 0 6 0 8-2 8-8 9-25 2-33-5-5-16-6-23-4zm279-41c-14 3-32 11-36 16a10 10 0 0 1-5 2 94 94 0 0 0-21 20 36 36 0 0 1-22 11c-4 0-6-1-10-3-5-4-7-5-10-3-2 1-2 2-2 21l-1 21c-2 1-2 8-1 10l5 1 11-2 17-2c10-1 10-1 16 1l5 4 25 11c13 5 17 7 17 8 1 2 12 3 22 3a116 116 0 0 0 27-3l11-3a99 99 0 0 0 16-7l12-6 4-3c0-1 14-9 22-11 6-3 8-3 13-3a27 27 0 0 1 9 2c3 2 3 2 7 0 3-2 3-3 3-6l-1-3-1-7 1-6 1-5 2-14v-10c-1-2-1-2-4-1l-4 3a42 42 0 0 1-18 7 40 40 0 0 1-21-7l-11-10a67 67 0 0 0-11-8 38 38 0 0 1-7-5 62 62 0 0 0-15-11 84 84 0 0 0-45-2zm30 25a63 63 0 0 1 21 11 281 281 0 0 0 18 17l6 6 3 5-5 5-8 6c-10 9-37 17-55 16-15-1-38-9-45-16l-9-9a38 38 0 0 1-6-6 174 174 0 0 1 30-24c3-4 10-8 20-11a39 39 0 0 1 30 0z"/><path d="m408 327-6 5c-2 3-3 4-3 9a22 22 0 0 0 8 18c4 3 5 4 9 4l4-1 3-1c5-1 8-5 9-9l3-4v-5l-1-5-1-1c0-2-5-8-9-10-5-2-12-2-16 0z"/></svg>