<svg xmlns="http://www.w3.org/2000/svg" width="741.962" height="605.917" version="1.0" viewBox="0 0 556.471 454.438"><path d="M379.192 326.393c-7.52.7-14.465 5.58-18.026 12.184-4.08 7.513-2.358 17.473 3.827 23.327 5.29 5.257 13.063 8.314 20.505 6.735 8.36-1.465 14.98-9.294 15.087-17.776.063-3.018-.656-5.98-.957-8.971-1.376-7.66-7.836-14.068-15.547-15.255-1.608-.326-3.257-.331-4.889-.244zm5.667-75.37c-6.939.138-13.62 4.337-16.632 10.612-4.16 8.32-1.491 19.38 6.07 24.821 6.177 4.639 15.133 4.887 21.666.833 6.822-3.944 10.51-12.427 8.932-20.123-1.403-7.96-8.145-14.623-16.142-15.866a20.882 20.882 0 0 0-3.894-.277zm-17.58-26.928c-6.05.329-11.84 3.683-15.048 8.836-4.715 7.198-3.806 17.494 2.123 23.737 4.537 5.015 11.77 6.948 18.326 5.8 7.535-1.203 13.901-7.494 15.182-15.019 1.942-9.742-4.866-20.159-14.408-22.666-2-.583-4.097-.763-6.174-.688zM348.136 193.6c-8.442-.091-16.463 5.937-18.53 14.157-3.198 11.685 6.168 24.825 18.275 25.591 9.49 1.087 19.22-5.828 20.767-15.356 2.151-11.091-6.514-23.192-17.894-24.253-.865-.122-1.746-.139-2.618-.139zm63.576 115.565c-17.194-.06-33.116 16.054-30.589 33.59.178 15.776 10.447 34.523 28.002 34.853 11.918-.634 26.626 1.237 34.936-9.297 9.365-12.31 14.295-31.934 2.775-44.498-8.271-10.133-22.48-14.325-35.124-14.648zm32.34 13.13c4.926 3.576-6.43-3.745 0 0zm-188.146 45.499c-13.505 1.158-20.795 16.56-16.626 28.602 3.886 14.239 22.18 17.577 34.061 11.9 15.611-7.197 14.021-33.11-2.248-38.472-4.85-1.36-10.13-2.305-15.187-2.03zm20.392-246.643c-10.782 1.133-21.888 4.48-30.698 10.94-8.908 8.45-9.138 23.152-4.25 33.744 7.095 11.708 22.486 12.059 34.658 13.076 10.877 1.037 23.884-1.058 29.484-11.672 4.906-9.242 5.936-21.136 2.198-30.837-4.693-9.555-16.218-12.077-25.617-14.821a29.607 29.607 0 0 0-5.775-.43zm-60.11 70.733c-14.471 2.428-19.859 17.976-26.566 29.03-8.282 17.294-20.628 32.978-27.283 51.374-3.206 11.338 5.01 21.69 14.495 26.78 12.34 8.74 23.038 19.54 35.004 28.698 9.05 6.299 20.531 3.793 29.738-.645 2.372-1.125 5.032.469 3.59 3.356-1.138 14.48-4.187 29.533-.39 43.81 3.79 10.344 15.559 13.712 25.591 12.827 10.695 1.292 21.38-6.426 22.29-17.387 1.952-12.664.344-25.822 2.402-38.325 2.595-4.396 7.948 1.301 11.214 1.862 12.603 5.284 25.408-2.52 33.94-11.5 10.424-10.859 22.384-20.094 35.881-26.822 11.1-5.682 13.206-21.274 5.382-30.555-9.298-14.987-19.723-29.213-28.976-44.225-5.92-7.745-10.103-18.69-21.08-20.267-12.201-2.274-22.987 6.111-35 6.762-20.766 3.558-42.935 1.312-61.272-9.637-5.951-2.866-12.122-6.073-18.96-5.136zm167.86-16.789c-11.022 2.52-23.901-.996-33.127 6.926-9.245 9.44-6.1 24.064.524 34.03 6.93 11.15 14.72 21.737 21.123 33.244 5.992 9.73 12.91 18.886 18.528 28.798 7.434 10.774 21.917 7.256 33.112 8.137 9.36.952 20.944-.811 25.087-10.48 5.673-9.436-.768-19.73-5.855-27.79-11.395-19.787-24.906-38.041-37.102-57.275-5.008-7.899-12.023-15.952-22.29-15.59zm-6.107 1.066c.916-.304 3.127-.8 0 0zM129.644 313.777c-14.537-.448-32.012 4.53-37.24 19.707-4.64 14.128-.052 33.85 15.422 39.064 13.803 5.16 29.55 6.745 43.708 2.25 13.785-6.167 15.132-23.684 13.464-36.793-.772-9.56-6.3-19.185-16.267-21.254-6.161-2.038-12.586-3.131-19.087-2.974zM416.862 267c-24.98-.167-49.468 8.92-69.553 23.474-11.487 7.163-18.947 19.398-30.411 26.408-5.245-.317-9.504-5.335-15.077-5.674-13.148-2.952-26.084 8.231-26.215 21.47-1.314 14.004 1.035 28.354-2.985 42.01-2.486 12.17 6.062 26.077 19.19 26.17 13.29-.186 26.547-3.167 39.668-3.89 11.358 6.857 23.48 15.504 37.506 13.787 33.405-.063 66.901-.075 100.235-1.629 10.698-.83 17.52-11.75 16.625-21.867 1.698-6.23 9.044-9.07 14.72-10.822 4.123-.594 5.21 5.528 8.178 7.218 8.987 10.524 26.19 9.893 35.41-.002 7.251-6.617 9.215-17.485 6.151-26.54.535-12.991 4.167-25.964 2.933-38.944-2.504-13.457-19.139-19.637-30.687-13.36-6.175 2.917-13.182 9.404-20.177 4.733-10.876-6.997-19.864-16.634-30.99-23.356-13.142-12.57-31.229-19.06-49.314-19.105-1.735-.061-3.47-.089-5.207-.08zm56.119 21.108c.158.206-.116-.136 0 0zm-60.248 39.436c15.061 1.335 27.966 10.903 38.286 21.352-14.885 9.269-33.673 11.891-50.792 8.884-7.881-2.449-17.775-4.911-23.384-10.193 10.93-8.427 21.627-18.126 35.89-20.043zm-262.778-57.476c-10.55 4.854-21.86 9.2-33.51 9.87-9.462-6.772-21.629-5.363-31.821-1.206-18.102 6.043-30.915 21.22-47.431 30.001-9.492 1.487-20.353-3.65-28.383 3.785C-2.294 321.185.778 336.74.002 349.057c.424 13.089-2.37 29.754 9.832 38.617 5.03 3.793 11.76 4.798 17.841 3.483-6.88 14.606-20.58 27.169-20.13 44.347.044 11.577 11.307 20.327 22.533 18.75 148.523-.388 297.04-1.996 445.557-3.298 21.807-.594 43.718.086 65.455-1.715 12.934-2.663 19.167-18.574 12.962-29.826-6.588-11.376-14.654-21.87-21.364-33.207-6.338-7.994-10.709-17.63-18.362-24.487-11.86-9.235-27.48-1.719-37.708 6.361-6.998 5.344-10.947 14.652-9.026 23.362-73.44.444-147.178.555-220.434.513 12.197-4.59 15.136-18.814 14.482-30.417-.536-10.755 1.404-21.835 2.654-32.677 1.026-13.423-13.207-24.054-25.887-20.222-5.462.447-10.488 5.462-15.828 4.453-12.655-11.597-25.46-23.215-39.832-32.662-9.864-5.374-21.073-13.264-32.792-10.364zm-21.578 62.679c7.512-.883 14.967.783 20.994 5.476a124.838 124.838 0 0 1 13.822 10.52c-10.587 6.396-22.646 12.586-35.413 9.705-11.228-2-22.576-5.354-31.756-12.381 8.105-4.579 15.747-11.29 24.83-13.323 2.508 0 5.015.002 7.523.003zm140.82-253.601c-11.57.189-18.554 10.32-24.516 18.785-5.954 7.472-16.353 9.383-22.338 16.667-4.518-.161-9.764 4.19-13.37-.03-6.338-4.206-14.251-3.586-20.844-7.218-11.913-5.357-27.26 1.928-29.618 15.02-2.021 12.864-2.622 26.066-2.198 39.07 1.079 13.465 16.102 22.026 28.505 17.55 3.242-.404 8.57-3.29 11.129-.565 2.684 17.29 17.315 28.924 32.165 36.084 18.617 10.527 40.478 14.366 61.631 11.715 23.598-.895 45.853-11.01 64.025-25.726 3.814-3.623 8.407-6.402 13.92-5.314 10.824.319 24.593-.348 29.679-11.821 4.602-10.855-.422-22.676-.198-33.955-1.741-12.126.932-26.097-6.768-36.59-6.69-8.719-18.802-8.15-28.043-4.415-6.28 3.966-11.927-1.494-16.602-5.267-6.838-5.754-16.091-7.67-24.7-5.694-10.516-1.418-21.232-3.89-30.82-8.476-5.328-5.725-12.787-10.397-21.039-9.82zm10.566 60.692c9.688 4.051 19.384 8.141 28.561 13.277-20.09 10.72-45.82 9.546-64.875-2.855 11.832-3.13 22.917-9.218 35.156-10.936l.865.383zM269.491.083c-11.527.45-20.985 8.659-25.403 18.918-11.89 18.1-21.638 37.46-33.146 55.733-5.392 10.503-12.34 20.184-17.402 30.806-5.509 12.565 3.014 29.348 17.358 29.896 12.868.625 22.807-9.145 34.034-13.892 11.82-5.532 18.505-17.194 25.434-27.637 4.3 7.905 11.359 14.112 20.4 15.661 11.485 2.591 23.012 8.266 34.993 6.46 13.537-2.822 19.067-19.73 12.51-31.125-13.028-22.706-29.2-43.506-43.269-65.536C289.448 10.74 283.034-.517 271.207.018l-.945.036zm-14.85 113.892c-.877 1.025.684-.958 0 0zm-9.806 6.095c1.192-.35 2.02-.567 0 0zm-51.91 38.538c-13.217-.044-24.44 7.578-35.304 13.988-10.899 9.426-15.647 23.64-24.207 34.945-7.808 13.913-15.76 27.75-24.498 41.12-6.798 11.581-14.054 25.772-9.014 39.275 3.95 10.68 17.096 13.222 26.928 9.771 10.976-3.388 23.524-4.815 32.32-12.794 10.543-12.688 16.763-28.321 25.243-42.379 9.491-17.77 19.348-35.381 28.479-53.32 5.751-11.137.406-26.792-12.334-29.836-2.48-.664-5.056-.826-7.613-.77zm-24.812 9.613c.141-.065 1.007-.122 0 0z" style="fill:#fff;stroke-width:.236406"/><path d="M266.702 19.559c-1.8.8-3.3 1.9-3.3 2.4 0 1.4-7.6 13.7-10 16.4-1.1 1.1-2.3 3-2.6 4.1-.4 1.2-2.8 5.8-5.5 10.2-2.7 4.5-4.9 8.4-4.9 8.7 0 1.1-7.3 13.2-8.6 14.2-.6.5-3.1 4.6-5.4 9-2.4 4.4-5.3 9.6-6.6 11.6-1.2 2-3 5.3-3.8 7.3-.8 2-1.9 3.6-2.4 3.6-1.1 0-4.2 6.6-4.2 9 0 3.3 3.6 2.4 12.8-3.3 4.8-2.9 10.8-6.2 13.4-7.2 2.7-1.1 4.8-2.3 4.8-2.8 0-.4.6-.7 1.4-.7.7 0 3.7-3.8 6.5-8.5 2.9-4.7 5.7-8.5 6.2-8.5s.9-.5.9-1.2c0-1.7 5.9-10.8 10.2-15.5 2.1-2.4 3.8-5.1 3.8-6 .1-1.6.2-1.6 1.2.2.6 1.1 2 2.8 3 3.9 1.1 1 5.3 7 9.5 13.2 4.1 6.3 7.6 11.4 7.8 11.4 2.6 0 20.2 4.4 23.8 5.9 6.3 2.7 7.4 2.6 7.9-.4.4-1.7-.5-4-2.8-7.4-1.9-2.8-3.4-5.5-3.4-6 0-.6-.6-1.4-1.3-1.8-1.3-.8-9-11.9-17.6-25.5-2.3-3.7-4.7-6.8-5.1-7-.5-.2-1.9-2.1-3.2-4.4-1.9-3.3-10.2-16-16-24.7-1.5-2-2.3-2.1-6.5-.2z"/><path d="M268.902 97.659c-7.3 1.1-21.5 4.7-21.5 5.5 0 .5-.6.9-1.3.9-3.3 0-28.9 14.5-31.7 18-1.1 1.3-12.8 5.9-16.7 6.6-4.5.7-10.2-.8-14.5-3.7-3.3-2.4-5.5-2.4-6.6-.2-.5 1-1.2 9.2-1.6 18.3-.4 9.1-.9 20.4-1.3 25.2l-.6 8.8h3.2c1.8 0 5.2-1.2 7.6-2.6 3.9-2.2 5.1-2.5 10.2-1.9 5.3.6 12.5 3.4 17.8 6.8 1.1.7 5.2 4.5 9 8.3 5.7 5.6 8.8 7.6 16 10.9 5 2.1 9.2 4.3 9.5 4.7.9 1.2 11.8 3.7 21.2 4.9 6.4.9 11.9.9 20.1.1 10.9-1.1 24.7-3.8 25.7-5.2.3-.4 2.6-1.2 5.1-1.9 2.5-.7 6.9-3 9.8-5.2 2.8-2.1 5.4-3.9 5.7-3.9.5 0 10.7-7.6 14.5-10.9.9-.7 4.1-2.2 7-3.3 4.5-1.6 6.9-1.8 15.1-1.3 11.1.7 11.6.3 9.9-7.6-1.2-5.7-3.5-40.4-2.8-42.3 1.2-3-1.6-3.5-7.3-1.4-8.5 3.1-12.9 3.9-16.8 3.2-4-.7-12.8-4.8-13.4-6.2-.1-.5-2.6-2.5-5.5-4.5-14.6-10.2-18.6-12.7-20.3-12.7-1 0-2.5-.7-3.3-1.4-3.3-3.4-13.8-5.8-26.7-6.1-6.9-.2-13.8-.1-15.5.1zm16.5 24.2c0 .5 1.9 1.5 4.3 2.2 6.7 2.1 36.6 16.8 39.5 19.5 1.5 1.3 4.5 4 6.7 6l4 3.5-2.8 2.3c-1.6 1.2-4.7 4-7 6.1-7.7 7.1-28.9 15.8-42.9 17.5-20.2 2.4-47.8-5.9-60.2-18.1-2.8-2.8-7.3-6.3-10.1-7.9-2.7-1.6-4.5-2.9-4-2.9.6 0 3.7-2.6 7.1-5.8 5-4.7 8.4-6.7 19-11.4 7.1-3.1 16.7-6.7 21.4-7.9 4.7-1.3 8.7-2.7 8.8-3.1.5-1.1 16.2-1 16.2 0z"/><path d="M264.602 132.559c-4.9 4.1-7.3 9.7-7.8 17.9-.5 6.7-.4 7.3 2.4 10.2 5.2 5.5 7.2 6.4 14.3 6.4 7.9 0 12.7-1.5 14-4.4.5-1.1 1.6-3.2 2.4-4.6.9-1.5 1.5-5.3 1.5-9.7 0-6.3-.3-7.5-2.6-10.3-3.5-4.1-9.5-7.1-15.8-7.7-4.6-.5-5.5-.2-8.4 2.2zM183.302 179.059c-2.6 1-5.9 3-7.4 4.4-1.4 1.3-4 2.8-5.6 3.1-2.9.7-5.6 4.3-12.9 18-1.8 3.2-3.8 6.4-4.4 7-1.4 1.1-7.6 11.1-7.6 12.1 0 .4-2.2 4.3-5 8.9-2.7 4.6-5 8.8-5 9.4 0 .6-.4 1.1-.9 1.1-.8 0-6.6 9.5-15.5 25.2-2.6 4.7-3.5 11.1-1.6 12.3 1 .6 12.6-2.4 24.5-6.4 4.4-1.4 5.2-2.2 7.7-7.1 1.6-3 3.6-6.6 4.6-7.9.9-1.3 5.2-9.1 9.6-17.5 4.3-8.3 8.2-15.3 8.7-15.6.4-.3 5.4-9.5 11-20.5s10.5-20.2 11-20.5c1.2-.8 3-6.1 2.3-7.1-.9-1.5-8.6-.9-13.5 1.1zM364.602 180.759c-3.7.5-8.2 3.8-8.2 6.1 0 .9 2 4.8 4.5 8.8 2.5 3.9 4.5 7.4 4.5 7.7 0 1.1 8.2 13.7 9 13.7.4 0 1.5 1.7 2.6 3.7 1 2.1 4.2 7.4 6.9 11.8 2.8 4.4 5.9 9.7 7 11.7 1.1 2.1 2.3 3.8 2.6 3.8.7 0 10.9 15.6 10.9 16.6 0 1.1 5.9 9.1 9.5 12.7 3.4 3.5 4 3.8 6.1 2.7 2.2-1.2 12.6-.9 17.1.5 3.5 1.1 3.9-2.6.8-8-1.5-2.5-3-4.5-3.4-4.5-.4 0-1.4-1.2-2.2-2.8-.7-1.5-4.1-7-7.4-12.2-3.3-5.3-6.8-11.2-7.8-13.2-1.1-1.9-3.1-4.9-4.7-6.6-1.5-1.7-5.6-7.9-9.1-13.7-3.5-5.9-7.4-11.8-8.6-13.2-1.3-1.3-2.3-2.6-2.3-2.8 0-.3-2.9-5-6.5-10.5s-6.5-10.4-6.5-10.9c0-2-5.7-2.5-14.8-1.4zM221.202 203.259c-.8 1.3-2.5 4.2-3.6 6.4-1.2 2.3-2.7 4.8-3.5 5.5-1.2 1.3-10.3 17.8-15.3 28-1.2 2.6-2.9 5.3-3.7 6.1-.8.8-4.7 7.5-8.7 14.9-4 7.4-7.6 13.8-8 14.4-.4.5-1.1 3.1-1.4 5.8l-.7 4.8 8.1 8.7c10.8 11.6 22.2 20.8 29 23.3 6.8 2.6 16.1 2.2 26.8-1.1 4-1.2 8-1.9 8.9-1.6 1.5.6 1.6 2.9 1 24.7-.4 14.1-.3 23.8.2 23.5.5-.3 4.7.1 9.3 1 4.6.9 10.7 1.4 13.8 1.1 6.2-.5 14.7-4.2 15.2-6.6.2-.9.1-10.8-.2-22.1-.3-11.3-.2-20.9.1-21.3.7-1 8.9 3.8 10.2 5.9.4.7 3.3 2.2 6.5 3.4 6.5 2.5 12.1 2.1 18.4-1.1 4.4-2.3 6.1-3.6 17.8-15.2 4.9-4.8 9.5-8.7 10.2-8.7.7 0 1.9-.9 2.6-2 .6-1.1 4.3-3.6 8.2-5.5 3.8-1.9 7.4-4.4 8.1-5.6 1.7-3.3.3-8.1-4.9-16.1-2.6-4-6-9.5-7.6-12.2-1.5-2.6-3.5-5.6-4.5-6.5-1.8-1.9-9.1-12.8-9.1-13.6 0-1-10.3-16-11.2-16.3-.4-.2-.8-.8-.8-1.3 0-1.1-9.8-15.9-10.5-15.9-.3 0-2.2.7-4.2 1.5-2.1.8-8.5 2.6-14.3 4.1-10 2.5-11.4 2.6-31 2.2-17.6-.4-21.4-.8-26.6-2.6-7.1-2.5-18.6-8.7-19.7-10.8-1.2-2.1-3.3-1.7-4.9.8z"/><path d="M126.902 286.059c-2.7.5-13.1 3.1-22.9 6-17.1 4.9-25.6 8.1-25.6 9.8 0 .4-1.2 1.5-2.8 2.4-1.5.9-6.2 4.6-10.6 8.1-4.3 3.6-9.8 7.5-12.2 8.6-2.4 1.2-4.4 2.5-4.4 3 0 .4-2.5 1.6-5.6 2.6-4.1 1.3-7.1 1.6-11.7 1.1-3.4-.4-7.5-.8-9.2-.9l-3-.2-.1 18.6c0 10.2-.3 19.3-.7 20.3-.4.9 0 3.3.8 5.2 1.6 3.8 3.3 4.2 8.8 1.9 4.8-2 15.6-1.9 20.9.1 4.3 1.7 12.5 7.5 18.6 13.2 3.5 3.3 20.9 13.5 26 15.3 1.7.6 3.2 1.4 3.2 1.8 0 1.1 10.5 4.3 18.5 5.7 6.4 1.1 4.6 1.2-19.7 1.3-14.8.1-26.8-.1-26.8-.4 0-.3.9-1.8 2-3.3 3.2-4.6 3.5-7.8.8-10.2-13.3-11.8-12.6-11.3-16.1-10.6-2.9.5-4 1.7-7.8 8.3-2.4 4.2-4.6 8.1-4.8 8.7-.9 2.4-8.7 15.2-10.3 16.8-1 1-1.8 2.2-1.8 2.8 0 .5-1.3 3.2-3 5.8-5 8.2-5.1 8.2 11.3 8.2 7.8 0 97.9-.7 200.2-1.5 102.3-.8 211.4-1.6 242.3-1.9 34-.2 56.8-.8 57.3-1.3 1-1-4.1-10.5-6.8-12.8-1.2-1.1-10.3-15.2-10.3-16.1 0-.9-6.2-9.7-8.5-12.1-1.1-1.2-2.7-3.4-3.5-5-2.9-5.7-6.3-10.3-7.6-10.3-1.6 0-10.3 4.5-13 6.7-4.9 4.1-4.9 5.7 0 13.7 2.6 4 4.6 7.5 4.6 7.9 0 .3 1.2 1.9 2.6 3.4l2.6 2.8-9.3.6c-12.6.9-313.4 1.1-337.2.2l-18.9-.6 11.8-2.9c6.5-1.6 12.1-3.3 12.5-3.9.3-.6 4.9-2.8 10.2-4.9 8.7-3.5 23.7-12.3 23.7-13.9 0-.4 3.7-2.6 8.3-4.9 10.4-5.4 19.9-7.2 28.6-5.4 8.6 1.8 12.8 1.6 14.1-.7.6-1.1 1-8.9 1-18.1 0-12 .4-17 1.5-19.7.8-1.9 1.5-4.8 1.5-6.4 0-3.8-2.6-3.8-10.5.1-4.2 2.1-7.4 3-10.9 3-9.1 0-12.4-1.7-21.5-11.2-4.6-4.9-8.9-8.8-9.4-8.8s-2.6-1.5-4.7-3.3c-2-1.7-5.7-5-8.2-7.2-2.5-2.2-8.7-6.2-13.8-8.9-12.9-6.7-25.8-8.9-40.5-6.6zm21.7 30.9c4.8 1.8 9.7 4.2 11 5.4 1.3 1.3 4.9 4 7.9 6.2 8.5 6.1 15.9 12.6 15.9 13.9 0 .7 1.6 2.7 3.5 4.6 1.9 1.9 3.5 3.7 3.5 4.2 0 .4-2.7 2.6-6 4.8-3.3 2.2-6.8 4.9-7.7 5.9-2.8 2.8-18.1 10.8-25.3 13.1-11 3.5-19.9 3.7-33 .5-14-3.3-29.3-9.8-32-13.6-.3-.4-3-2.5-6-4.7-13-9.6-13-9.5-12.4-12.2.5-2.3 4.9-6.9 6.6-7 .7 0 18.6-11.8 22.3-14.6 3.3-2.6 13.7-7.6 18.5-9 2.8-.8 8.3-1.2 14.5-1 8.3.2 11.4.8 18.7 3.5z"/><path d="M120.402 327.459c-10 3.9-9.7 3.7-10.4 8.4-.9 6.9-.7 14.1.5 16.4 1.9 3.5 10.3 11.6 13.2 12.7 1.6.6 5.5 1.1 8.8 1.1 5.1 0 6.4-.4 8.5-2.5 7.7-7.8 8.6-25 1.6-32.7-4.1-4.4-15.1-6.1-22.2-3.4zM399.002 287.059c-13.9 2.9-31.8 10.6-36.1 15.5-1.1 1.3-3.2 2.6-4.8 2.9-2.8.7-15.9 13-20.8 19.6-3.8 5.1-15.6 11-22 11-4 0-5.9-.7-10-3.5-5.5-3.7-6.9-4.1-10-2.5-1.8 1-1.9 2.3-1.9 21.4 0 16.1-.3 20.5-1.3 20.9-1.6.6-2.1 7.5-.8 9.6.6 1 2 1.2 4.7.7 2.2-.4 7.1-1 10.9-1.5 3.9-.5 11.5-1.4 17-2.1 10-1.3 10.1-1.3 15.8 1.3 3.1 1.4 5.7 3.1 5.7 3.7 0 1.2 11.3 6.5 24.4 11.5 12.9 4.8 17 6.6 17.7 7.6.9 1.5 11.6 2.9 21.9 2.9 9.5 0 26.1-1.8 27-2.9.3-.4 5-1.9 10.5-3.5 5.5-1.5 12.9-4.4 16.5-6.3 3.6-2 8.6-4.7 11.3-6.1 2.6-1.4 4.7-2.8 4.7-3.3 0-1.3 13.3-8.4 21.3-11.3 6.3-2.4 8.8-2.8 13.5-2.3 3.3.2 7.3 1.2 9 2.1 2.9 1.5 3.3 1.5 6.6-.7 2.8-1.8 3.5-2.8 3.6-5.5 0-1.7-.4-3.2-1-3.2s-1-2.8-1-6.5.4-6.5 1-6.5 1-2.3 1-5.1c0-2.9.5-9.1 1.2-13.9.6-4.8.8-9.5.5-10.4-.6-1.5-.9-1.5-3.6-.2-1.6.9-3.6 2.2-4.4 3-2.5 2.5-13.8 6.6-18.3 6.6-6.3 0-16.4-3.5-20.8-7.2-2.2-1.8-7.1-6.1-10.9-9.6-3.8-3.5-8.7-7.2-10.7-8.2-2.1-1.1-5.3-3.3-7.2-5.1-4.7-4.3-10.7-8.4-15.3-10.4-11.3-4.7-29.5-5.7-44.9-2.5zm29.6 25c8.9 2.9 17.2 7.3 21.3 11.1 1.1 1 5.2 4.6 9.2 7.9 4 3.3 8 7.2 9 8.6 1 1.4 3.5 4.3 5.6 6.5 2.1 2.1 3.7 4.5 3.5 5.2-.3.6-2.4 2.7-4.9 4.5-2.4 1.9-6 4.8-7.9 6.4-10.5 9.2-37 16.6-55.5 15.5-15.2-.9-37.5-8.9-44.9-16.1-1.8-1.7-5.8-5.5-8.9-8.5-3.1-2.9-5.7-5.6-5.7-6 0-1.4 23.9-21.1 25.5-21.1.4 0 2-1.3 3.6-2.9 3.9-4 10.9-7.8 20.4-11.2 10.8-3.9 17.7-3.8 29.7.1z"/><path d="M407.902 326.959c-1.7 1-4.3 3.3-5.8 5-2.3 2.8-2.7 4.2-2.7 9.4 0 7.7 2.3 12.9 7.8 17.9 3.5 3.2 4.8 3.8 8.7 3.8 2.5 0 4.5-.4 4.5-.9s1.3-1.2 3-1.6c4.4-1 7.8-4.2 9.1-8.6.7-2.1 1.6-3.9 2.1-3.9.4 0 .8-2.3.8-5 0-2.8-.4-5-1-5-.5 0-1-.5-1-1.2 0-2.3-5.4-8.1-9.4-9.9-5.3-2.4-12.2-2.4-16.1 0z"/></svg>