<svg xmlns="http://www.w3.org/2000/svg" width="404" height="401" version="1.0" viewBox="0 0 303 301"><path d="M293 209c-17 0-34 16-31 34a27 27 0 0 0 26 24c12 0 25-1 33-11 9-11 7-28-3-37a36 36 0 0 0-25-10zM169 107a26 26 0 0 0-21 39 25 25 0 0 0 22 12 25 25 0 0 0 25-30 26 26 0 0 0-16-20 26 26 0 0 0-10-1zm72 0a27 27 0 0 0-27 24 27 27 0 0 0 21 30c12 4 27-1 33-14 7-13 1-31-13-37-5-2-9-3-14-3zm-38-20c-16 0-28 12-32 26a35 35 0 0 0 16 41c16 10 39 4 48-12 10-16 5-38-10-48a38 38 0 0 0-22-7zm50 141c-7 0-13 3-18 7-13 3-22 17-22 31a25 25 0 0 0 23 27c5 0 9 4 13 5a43 43 0 0 0 25 4l51-1c10-1 18-8 27-12 10-4 17-15 16-26s-8-23-19-27c-8-2-16-6-25-5s-16 10-26 11a31 31 0 0 1-26-8 31 31 0 0 0-19-6zm-21 11c1-1 1-1 0 0zm-119-29c-13 0-26 8-29 21a28 28 0 0 0 16 33c14 5 31 5 41-7a27 27 0 0 0-3-38c-7-6-16-9-25-9zm36 18c-11 1-19 10-29 14-10 2-18-5-26-10a29 29 0 0 0-30 0 27 27 0 0 0-16 31c0 8 0 18 7 25a91 91 0 0 0 20 13c10 4 21 2 31 3l38-1c12-3 22-12 33-16a26 26 0 0 0 12-28 27 27 0 0 0-21-27 36 36 0 0 0-19-4zm22-95c-11 1-20 10-25 19l-25 45a29 29 0 0 0 7 32c9 10 18 20 29 25a37 37 0 0 0 8 3c-1 11 6 23 17 26 10 3 21 4 31 2 11-3 22-9 25-20 1-4 1-7 6-7 12-5 20-16 31-23 9-6 17-16 15-27-1-11-8-20-13-29-8-12-14-24-23-34a27 27 0 0 0-29-7 59 59 0 0 1-21 2c-6 1-11 0-15-3a30 30 0 0 0-18-4zM42 239a26 26 0 0 0-24 27c0 18 20 32 37 26 16-5 23-26 14-40-5-9-17-13-27-13zm326-8a27 27 0 0 0-25 24 26 26 0 0 0 20 30c12 2 26-4 31-15 6-14-1-33-16-38a26 26 0 0 0-10-1zm4 42a27 27 0 0 0-26 25 26 26 0 0 0 17 29c15 5 33-4 36-20a28 28 0 0 0-27-34zM201-13a28 28 0 0 0-26 21l-6 18-12 2c-18-8-40 1-48 18-1 2-2 7-5 4-10-4-20-10-31-13a26 26 0 0 0-31 21c-2 12 6 24 11 35 0 2 4 5 2 8-2 4-7 4-10 7a37 37 0 0 0-14 48l-2 9c-10 3-20 6-29 11-16 8-18 33-4 44 8 6 18 7 26 11 3 1 8 0 7 4a26 26 0 0 0 26 25c16 0 28-12 41-19 10-6 24-5 32-16a29 29 0 0 0 5-22l23-37a28 28 0 0 0 11-34c13-3 24-13 24-27 1-4 4-7 6-11l6-10c2 3 0 8 1 11 1 11 9 20 18 24 8 5 15 11 24 14 0 8-1 16 4 23l31 50a27 27 0 0 0 19 28c15 8 25 22 42 26 14 3 29-6 32-20 1-2-1-6 1-7 11-4 23-7 33-14a26 26 0 0 0 3-38c-8-9-20-10-31-14l-8-4c0-4-3-8-1-12 6-14 1-31-11-40a39 39 0 0 0-12-7c-3-3 1-6 2-9 4-9 10-17 11-27a26 26 0 0 0-26-28c-11 0-20 6-30 11-3 1-6 4-8 1-3-1-4-4-5-6-7-13-21-23-36-21-5 0-9 3-13 3l-8-2-10-26a27 27 0 0 0-24-13Zm110 290-258 2a25 25 0 0 0-24 26 28 28 0 0 0 11 23 26 26 0 0 0 19 32c12 3 23-5 33-9l13-7c3 2 3 6 5 9a36 36 0 0 0 42 15c5-2 10 1 14 1 3 2 3 7 4 10 4 10 5 23 15 30 9 7 23 6 32 0 10-6 12-19 16-29l4-11c4-1 8-4 12-1 17 5 37-5 44-22 2-1 5-4 7-1 11 5 22 12 34 14a26 26 0 0 0 30-22c1-7-2-15-5-21 6-12 2-29-10-36-10-5-21-3-32-3h-6z" style="fill:#fff;stroke-width:.599005" transform="scale(.75)"/><path d="m146 20-5 16-7 1-14 3h-7c-5-6-16-1-16 7 0 2-1 3-2 3l-8 5-6 5-16-8-17-8 8 17 8 15-4 6a77 77 0 0 0-6 9c-2 4-3 4-6 4-8 0-12 10-7 15l3 2-3 9a72 72 0 0 0-2 12l-1 4-17 6-16 6 17 6 17 6 1 6 1 7-4-1c-6-1-7 1-7 14 0 9 0 11 2 13s2 2 5 1l8-1c3 1 3 1 2 3a174 174 0 0 0-14 24c0 3 2 4 13 4h11l-5 11-6 12 17-9a137 137 0 0 1 17-8l9 5c6 4 8 6 8 8 0 3 2 6 4 8s8 1 11-1 3-2 7 0a92 92 0 0 0 13 2l8 2 5 17 6 17 7-17c5-17 6-18 8-18l12-2c9-3 10-3 11-1 5 4 14 0 14-6 0-2 2-4 6-6a141 141 0 0 0 9-6l3-3 17 9a171 171 0 0 0 18 8l-5-12-6-11 17-1c14 0 17 0 18-2l2-2-8-13a78 78 0 0 1-8-13l4 1c3 2 3 2 6 0s3-3 3-6v-22l-2-3c-10 6-12 6-14 6-3-1-3-1-2-7l2-6 18-7c15-5 17-6 15-7l-17-6c-17-5-16-4-18-15l-2-11c-2-3-2-4 1-6a10 10 0 0 0 2-6c0-4-5-9-9-9-3 0-4-1-9-9l-5-8 7-16 8-15-16 7c-15 7-16 8-17 6l-10-6c-7-5-8-6-8-8 0-3-1-4-3-6-3-3-4-3-7-3l-5 3c-2 1-3 1-10-1a68 68 0 0 0-11-2l-4-1-7-16-5-15-5 15zm18 28c12 17 14 21 11 20l-7-2c-5-1-7-2-9-5l-5-7-2-3-2 3-6 8a27 27 0 0 1-12 11l-8 4a407 407 0 0 1 27-46l13 17zm6 22 12 7c5 4 7 5 11 5l6-1h3l1 13 1 12-5-1c-6 0-8 1-16 7-9 6-17 8-30 8-10-1-18-4-25-10-7-7-12-8-18-5h-3c-1-1 0-25 1-25l4 1c6 2 9 1 18-5 12-8 29-10 40-6zm-53 37-12 22-11 22-7 2a79 79 0 0 1-7 2c-3 0 0-7 11-24 12-21 12-21 18-23 5-3 7-3 8-1zm88 3 14 23a202 202 0 0 1 13 20l-6 1c-5 0-5 0-7-3a396 396 0 0 1-26-42l7-2c2 0 3 1 5 3zm-71 9c5 4 10 5 21 5l15-2 7-2 23 37-5 5a86 86 0 0 0-10 8 44 44 0 0 1-8 6 13 13 0 0 1-12-1 40 40 0 0 0-4-3v21l-3 2-10 1-6-1v-22a25 25 0 0 0-6 1c-9 2-11 1-20-8-7-7-9-9-8-10l22-39a34 34 0 0 1 4 2zm-31 41 14 10c9 9 12 10 16 8l6-2c2 0 2 0 2 2l-2 11-1 10-5-1c-8 0-11 1-20 7a88 88 0 0 1-17 8l-9 3h86l86-1-3-5-3-6a34 34 0 0 1 8-5c1 0 17 24 17 26 0 1-41 2-160 2H36a192 192 0 0 1 14-23c1-1 9 5 9 6l-1 3c-1 2 1 3 13 3 11 0 11 0 6-1a66 66 0 0 1-22-12c-8-6-13-7-18-5-4 1-5 0-4-12v-10h4c5 1 10-1 19-7 6-5 9-7 17-9l12-3a32 32 0 0 1 18 3zm130-2 6 4 4 3 7 5c8 7 13 9 19 6l6-2c1-3 2 0 1 11l-1 12h-7c-6 0-7 0-17 6-6 3-12 7-15 7-6 2-17 4-22 3-5 0-23-7-27-10-3-2-4-2-12-2l-11 2h-2l1-12a73 73 0 0 1 1-13c1-1 3 0 5 1 5 3 9 2 17-6 6-6 7-7 16-12 11-5 23-6 31-3zm19 51c3 4 2 4-4 4-5 0-5 0-4-2s4-4 6-4l2 2z"/><path d="M146 81c-11 3-24 11-20 13a49 49 0 0 1 5 4c9 7 22 10 31 8a51 51 0 0 0 19-9l4-3-3-3a71 71 0 0 0-26-12l-10 2zm13 5c3 2 4 8 2 11-3 4-8 5-12 3s-5-6-3-10c2-7 7-8 13-4zm-87 87a61 61 0 0 0-16 12c0 2 10 9 15 11 11 5 21 6 28 2a70 70 0 0 0 15-11 58 58 0 0 0-17-14 29 29 0 0 0-11-3c-7 0-8 0-14 3zm19 5c5 4 3 15-3 17-3 0-8-2-10-5-3-4-2-11 1-13 4-1 9-1 12 1zm118-7a93 93 0 0 0-12 8c-8 6-8 6-6 8a34 34 0 0 0 6 6 42 42 0 0 0 46 0c8-5 8-5 1-12-12-12-24-16-35-11zm18 8c3 3 3 4 3 6-1 4-4 7-8 8-3 0-4 0-6-3-4-4-4-9 0-13 3-3 7-3 11 2z"/></svg>