<svg xmlns="http://www.w3.org/2000/svg" width="761.586" height="803.76" version="1.0" viewBox="0 0 571.19 602.82"><path d="M296.499.002c-11.28 1.045-23.217.186-33.881 4.528-6.425 4.45-14.824 1.584-21.817 4.667-13.854 5.427-28.26 9.19-42.362 13.84-12.342 4.924-23.93 13.742-29.8 25.869-5.286 16.144-4.147 33.512-5.788 50.242-.76 20.356-4.316 40.757-2.478 61.126.371 3.102 3.134 5.797.386 8.727-4.948 13.336-7.12 27.528-12.056 40.89-3.043 13.793-3.03 28.982 2.692 42.04-12.554 10.846-11.229 28.93-15.302 43.496-2.371 11.239-5.553 22.527-6.189 33.978-6.259 6.68-10.285 16.438-14.2 23.597-5.644-8.57-12.289-17.513-22.223-21.131-9.204-12.764-20.597-23.944-32.512-34.17-11.404-9.17-29.454-9.864-40.097.903-12.802 12.138-14.436 30.823-17.856 47.15-3.533 21.216-4.221 43.15-.671 64.403 3.148 13.138 6.652 29.048 19.872 35.678 2.253 1.44 6.453.188 5.559 4.082 2.997 13.48 15.08 22.128 23.458 32.275 10.095 10.759 20.09 22.262 33.619 28.77 8.827 6.252 16.486 16.396 28.39 16.203 4.052.444 5.367 5.952 8.805 8.115 23.631 22.276 55.782 30.882 85.42 41.977 35.871 13.36 74.063 19.952 112.274 20.818 6.97 1.636 14.358 2.156 21.359.243 10.482 7.244 23.852 4.21 35.297 1.47 24.119-3.297 50.303-.26 72.306-12.585 14.713-8.286 25.139-22.994 28.89-39.387 3.263-12.642 7.32-25.288 15.35-35.798 9.08-12.891 6.57-33.02-7.116-41.736-12.208-8.063-27.673-4.298-40.984-1.701-11.144 1.927-18.615 11.433-29.434 14.177-7.257 1.71-13.01 6.539-19.301 10.114-7.241 2.35-15.155 1.707-22.277 4.63 2.794-16.664 9.77-32.34 12.629-48.917 9.594-11.352 18.527-23.206 28.098-34.59 6.854-8.576 12.055-18.327 19.9-25.857 12.042-6.284 16.554-20.046 20.944-31.927 12.63-17.91 28.125-33.717 44.074-48.69 9.954-10.494 25.994-15.396 31.587-29.695.771-4.114 6.778-2.829 9.736-4.873 13.384-4.54 28.526-13.24 30.31-28.721.827-12.257-4.93-23.753-7.91-35.4-9.176-31.2-23.502-61.246-45.255-85.686-10.492-11.976-21.528-24.26-35.783-31.707-7.247-16.424-21.55-28.174-36.295-37.675-8.665-5.587-19.046-8.662-29.38-7.357-3.377-12.458-12.757-23.2-25.403-26.707C362.594 9.386 332.193 6.62 302.72.36a45.574 45.574 0 0 0-6.221-.358Z" style="fill:#fff;stroke-width:.87015"/><path d="M286.329 26.185c-2.1.6-3.8 1.4-3.8 1.9s-.7.9-1.5.9-1.5-.4-1.5-.9c0-1.1-3.8-2.1-5.5-1.4-.8.2-1.9 2.9-2.5 5.9-.6 2.9-1.6 5.7-2.2 6-.5.3-2.2-.2-3.6-1.3-8.2-6.1-13-6.5-22.2-1.8-2.6 1.3-6.9 3-9.6 3.6-2.7.7-5.1 1.5-5.4 1.9-.3.4-3.4 1.2-6.9 1.9-13.7 2.7-18.7 4.8-24.8 10.7l-5.8 5.5-.8 13.2c-.5 7.3-1 17-1.2 21.7-.2 7.3-1.1 19.2-3.2 43-.3 3-.6 8.4-.6 12l-.2 6.5 5 .8c2.8.5 5.7 1.3 6.5 1.8.8.5 2.3 1.2 3.3 1.6 2.6.8 1.6 2.4-3.4 5-2.4 1.3-5.6 3.6-7 5.1-2.8 3-6.9 11.9-6.9 15.1 0 1.2-.4 2.1-1 2.1-.5 0-1 1.8-1 4.1 0 5.6-2.7 15.7-5.2 19.1-2.3 3.3-4.2 15-3.6 21.8.6 5.9 5.7 16.3 10.8 22 2.2 2.5 4 4.8 4 5.1 0 .4-1.7 1.4-3.9 2.2-2.1.9-4.9 2.9-6.2 4.4-1.4 1.6-4.2 3.8-6.4 4.9l-4 1.9-.7 7.5c-.3 4.1-2.2 13.8-4.2 21.5-2 7.7-3.9 16.1-4.2 18.7-.4 2.7-1 4.8-1.5 4.8s-.9.6-.9 1.4c0 1.3 7.3 4.3 18.5 7.7 2.2.6 4.2 1.5 4.5 1.9.3.4 7.3 2.6 15.5 4.9 22.8 6.2 27 7.4 27.5 8.1.3.4 2.6 1.2 5.2 1.9 2.6.8 5.5 2.2 6.4 3.2.9 1.1 2.2 1.9 2.8 1.9.6 0 3.2 2 5.8 4.5 3.2 2.9 6.6 5 10.4 6.2 5.5 1.7 5.7 1.7 9.2-.4 2-1.1 4.1-2.9 4.7-3.8.5-1 2.5-4.1 4.3-6.9 1.7-2.8 3.2-5.5 3.2-6.1 0-.6.8-2 1.8-3.1 3-3.3 5-6.9 6.2-11.2.6-2.4 2.7-5.9 5-8.3 5.1-5.4 5.6-6.9 2.3-6.9-3.8 0-1.9-1.3 2.9-1.9 4.5-.7 4 .3 7.8-14.8.6-2.3 1.6-4.8 2.3-5.5 1.6-1.7 4.7-8.2 4.7-10 0-.7 1.4-5.1 3.1-9.8 1.7-4.7 3.5-9.8 4-11.4.5-1.6 1.2-3.2 1.7-3.5.4-.3 2.2-2.6 4-5 1.9-2.8 3.2-3.8 3.2-2.8 0 2.2-6.1 23-6.9 23.7-.7.5-2.1 6.4-5.7 23.7-.9 4.3-2.3 10.3-3.1 13.3-.8 3-1.8 7-2.3 8.9-.5 1.9-1.7 3.9-2.7 4.4-3 1.7-13.2 12.8-15.6 17-1.2 2.1-5 6.1-8.5 8.8-8.6 6.9-10.8 12.7-7.3 19.9 1.6 3.3 1.8 4.7 1 5.7-.7.8-1.6 1-2.3.4-.6-.4-3.5-1.6-6.4-2.6-2.9-.9-5.8-2.3-6.6-3-.7-.7-6.9-3.9-13.7-7-6.8-3.1-12.6-6-12.9-6.5-1.1-1.8-14.2-5.2-18.3-4.8-3.6.4-4.7 0-8.2-2.9-2.2-1.9-5-3.6-6.2-3.9-1.3-.4-2.3-1-2.3-1.4 0-1.2-7.4-3.8-16-5.5-6-1.3-8.8-1.4-15-.4-13.7 2-14.7 2.4-16.9 7.5-1.1 2.4-2.7 5.1-3.5 5.9-1.3 1.3-9.3 25-11.2 33-.4 1.6-1.1 3.3-1.6 3.6-1.7 1.1-2.2 11.4-.6 13 .7.8 3.5 4.1 6 7.4 2.6 3.3 7.5 8.9 11 12.5 6.1 6.3 6.4 6.5 11.3 6.4 2.7 0 6.2-.3 7.8-.7l2.7-.7v6.9c0 6.8 0 6.9 3.4 8.5 1.9.9 4.2 1.6 5.1 1.6 2.2 0 5.8 1.9 6.8 3.6.4.8 1.4 1.4 2.1 1.4.7 0 2.4 1.1 3.8 2.4 2.5 2.6 12.8 8.7 19.1 11.3 2 .9 3.7 1.9 3.7 2.4 0 .8 24.9 10.9 26.8 10.9.6 0 1.7.6 2.4 1.3 1.7 1.7 30.6 11.7 33.9 11.7 1.6 0 4.1-1.6 7.2-4.6 3.7-3.5 5.3-4.5 7.4-4.2 2.6.3 2.8.7 3.5 6.7.4 3.6 1.3 7 2.1 7.8 2.4 2.4 33.9 6.9 42.4 6 8.8-.9 10.7-2.8 11.5-11.8.6-7.7 5.3-27 6.7-27.9 1.5-.9 5.2-14.1 5.8-20.4l.5-6.1-9.3-9.8c-5.2-5.3-9.9-9.7-10.5-9.7-.6 0-2.2-1.1-3.5-2.4-2.3-2.2-23.3-13.6-25.1-13.6-.5 0-2.6-1.6-4.6-3.5-3.9-3.6-8.1-4.6-10-2.2-.6.7-1.7 3.1-2.4 5.2s-1.9 4-2.5 4.3c-1.5.4-3.3-3.8-3.3-7.9 0-2.3-1.2-4.2-5.4-8.3-5.2-5-5.3-5.3-4-7.9 1.4-2.5 1.6-2.6 4.7-1.3 1.7.8 5.7 2.4 8.7 3.6 3 1.3 5.7 2.5 6 2.9.3.4 3.9 2 8 3.6s10.1 4.4 13.2 6.2c3.1 1.8 6.1 3.3 6.7 3.3.6 0 1.1.4 1.1.8 0 1.1 8.6 5.2 10.9 5.2 2 0 4-2 6-6.2 3.1-6.2 6.2-3.4 4.3 3.9-2.4 8.8-1.2 12.2 5.6 15.7 1.6.8 3.2 2.2 3.5 3.1.4.8 1.3 1.5 2 1.5.8 0 2.2.9 3.2 2 3.2 3.5 6.3 2.6 8.4-2.4 1.1-2.4 3-5.4 4.3-6.8 4.1-4.3 13.1-14.7 14.7-17.1.9-1.2 2.7-3.4 4.1-4.9 1.4-1.4 3.9-5.2 5.5-8.4 1.7-3.1 4.2-6.9 5.8-8.5 1.5-1.5 2.7-3.2 2.7-3.7 0-1.3 8.9-9.2 10.4-9.2 3.8-.1 8-7.9 9.2-16.9.5-3.9 1.4-5.8 4-8.3 1.9-1.8 3.4-3.8 3.4-4.3 0-.6 2.6-3.8 5.8-7.2 3.1-3.4 6.4-7.4 7.3-8.9 2.4-4 38.4-39.6 42.1-41.8 1.8-1 5.4-2.9 8-4.3 2.6-1.3 5.2-3.1 5.8-3.8 2.1-2.5 2.3-11.7.5-18.5-3.5-12.9-3.1-14.7 1.7-8.6 1.5 1.9 4.9 4.6 7.5 6.1 6.2 3.4 10.5 2.9 21.7-2.8 4.4-2.2 8.2-4.1 8.4-4.3.2-.1-.6-2.9-1.8-6.3-1.1-3.3-2-7.2-2-8.6 0-1.4-.4-2.5-1-2.5-.5 0-1-.7-1-1.6 0-2.9-10.7-35.5-12-36.4-.4-.3-2.4-4.3-4.4-9-3.4-7.8-7.1-14.7-8.6-16-.6-.6-7.9-11.4-9.5-14.1-.6-.9-2.4-3-4-4.6-1.7-1.6-6.6-6.9-11-11.8-11.1-12.3-13.1-14-17.7-15.6-3.2-1-4.6-1-7.1 0-7.1 2.8-6.7 3.2-6.7-6.1 0-7-.4-9-2-11.1-1.1-1.4-2-3-2-3.5s-3.3-3.9-7.2-7.3c-4-3.5-8-7.2-8.8-8.1-2.7-3.1-14.6-8.8-18.3-8.8-4.1 0-4.7.7-6.4 7-.6 2.5-1.9 6.5-2.8 8.9-.9 2.4-1.3 5.1-1 5.9.3.8 0 7.6-.6 15.1-.6 8-.7 15.2-.2 17.6 1 4.4-.4 18.8-1.8 19.3-.5.2-.9 1.4-.9 2.7 0 2.7-4.1 19.1-7.2 28.7-2.1 6.5-6.4 12.8-8.9 12.8-.7 0-.9-1-.6-2.8 1.1-5.3 4.2-15.7 4.9-16.2 1.3-1 3.9-23.7 4.3-37.5.6-21.8-2.2-58.1-4.6-59.6-.6-.3-1.2-3.3-1.4-6.5-.4-8.4-1.5-13.4-3.6-16.9-2.3-3.9-4.2-5-11.2-6.5-3.1-.7-5.7-1.6-5.7-2 0-.8-10.5-3.5-24.5-6.4-6.2-1.2-20.1-3.3-34.7-5.1-2.7-.4-4.8-1-4.8-1.4 0-1.1-10.4-3.1-15.4-3-2.3.1-5.8.6-7.8 1.1z"/><path d="M37.729 317.685c-3.2 3.2-5.2 9.2-8.2 24.3-5.4 26.9-5.8 52.5-.9 68.7 3.5 11.9 3.8 12.3 7.3 12.3 1.7-.1 4.2-.7 5.6-1.5 3.5-2 8-1.9 9.6.2.9 1.3 1.3 5.3 1.4 13.4v11.6l4.8 4.5c2.6 2.4 6.8 7 9.5 10.1 2.6 3.1 6.1 6.8 7.8 8.4 1.7 1.5 5.1 5.3 7.6 8.3 3.4 4.1 6 6.1 10.1 7.7 3 1.3 6.3 3 7.2 3.8.9.8 2.1 1.5 2.6 1.5 1.1 0 4.2 3.1 7.9 7.6 3.2 4.1 6.5 4.7 14.3 2.6l6.3-1.7 1.9 2.5c1.8 2.4 3.3 6.7 3.5 10.2.1 2 4.3 6.8 6 6.8.6 0 2.5 1.5 4.3 3.4 1.8 1.9 8 5.8 14 8.8 5.9 2.9 10.8 5.6 11 6 .2.4 8.3 3.3 18 6.4 9.7 3.1 17.9 6 18.2 6.3 1.2 1.6 23 8.9 33 11.2 3 .6 5.7 1.5 6 1.9 1.4 2.1 64.9 11 68.5 9.6.7-.2 2.8-2.7 4.6-5.4 2.8-4.4 3.4-4.8 4.7-3.6.8.8 1.9 3.4 2.4 5.7 1 4.5 2.1 5.7 5.4 5.7 2.8 0 7-5.6 7.9-10.3.4-2 1-3.7 1.4-3.7.4 0 2.4 2.4 4.5 5.2 7.6 11 8.5 11.7 13.9 11.1 2.6-.3 4.7-1 4.7-1.4 0-.5 1.3-.9 2.9-.9 1.6 0 4.2-.5 5.8-1.1 1.6-.7 10.3-1.3 20.8-1.4 13.5-.2 19.9-.7 25.5-2 4.1-1.1 7.9-1.8 8.4-1.6 1.8.4 12.1-5.3 14.1-7.9 1-1.4 3.3-3.9 5-5.5 2.6-2.5 3.6-4.9 5.8-14 3.6-14.8 7.6-27.5 8.6-27.5.5 0 1.7-2.2 2.9-4.9 1.1-2.7 3.7-6.7 5.7-9 3.2-3.5 3.6-4.4 2.7-6.8-1-3.1 0-3-14.2-1.4-10 1.1-10.3 1.3-17.8 7.7-3.3 2.9-6.2 4.2-13 5.9-6.7 1.7-9.6 3-12.2 5.5-1.9 1.8-6.3 4.5-9.7 6.1-5.3 2.4-7.5 2.9-14.3 2.9-7.8 0-8 .1-8 2.4 0 1.3-.5 2.6-1.1 2.8-.6.2-1.3 2.5-1.6 5-.4 3.4-1 4.8-2.4 5.1-2.1.6-2.9 0-2.9-2.4 0-2.2-4.7-7.9-6.5-7.9-.8 0-2-.6-2.7-1.4-3.7-3.7-7.7-4.5-25.9-5.6-10.1-.6-20-1.6-21.9-2.1-2.9-.8-18.9-3-39.2-5.6-2.7-.3-4.8-.9-4.8-1.3 0-.3-3-1.2-6.7-2-3.9-.7-10.5-3.2-15.3-5.7-9.8-5-12.7-5.2-15-.8-.8 1.6-1.8 3.2-2.1 3.5-.3.3-1 1.8-1.6 3.4-1.2 3.7-3.7 5.5-5.9 4.1-.8-.6-2.5-2.8-3.7-5-1.2-2.2-2.5-4.2-2.8-4.5-.3-.3-1.6-3.7-2.8-7.5-2.8-8.5-3.4-9.3-7.7-10.1-1.9-.3-4.1-1.3-4.9-2-2.3-2.4-10.5-8.4-11.3-8.4-.4 0-2.3-1.4-4.2-3.2-1.9-1.7-5.3-3.9-7.5-4.9-4-1.8-10.8-8.1-11.8-11-.2-.8-3-3.3-6.1-5.4-5.1-3.5-6.4-3.9-11.9-3.9l-6.2-.1-1-6.3c-1-6-1.2-6.4-8.5-13.1-4.1-3.8-7.8-7.3-8.3-7.7-1.8-2.1-7.8-11.3-10.2-15.7-1.4-2.6-3.4-5.6-4.5-6.7-1.1-1.1-3.3-4.7-5-8.1-1.8-3.4-5.2-8.2-7.7-10.8-4.6-4.6-11.3-14.1-11.3-16 0-2.1-4.5-5.1-7.5-5.1-3.1 0-7.5 3.4-7.5 5.7 0 .6-.9 1.3-2 1.6-1.6.4-2.1-.1-2.6-3-.6-3.2-.1-9.3 1.1-13.8.4-1.6-2.6-5.2-13.9-16.8-8-8.1-15.2-14.7-16.1-14.7-.8 0-2.8 1.2-4.3 2.7z"/></svg>