<svg xmlns="http://www.w3.org/2000/svg" width="762" height="804" version="1.0" viewBox="0 0 571 603"><path d="M297 0c-12 1-24 0-34 5-7 4-15 1-22 4-14 6-28 9-43 14a56 56 0 0 0-29 26c-6 16-5 33-6 50-1 20-4 41-3 61 1 3 4 6 1 9-5 13-7 28-12 41a69 69 0 0 0 2 42c-12 11-11 29-15 43-2 12-6 23-6 34-6 7-10 17-14 24-6-9-13-17-22-21-10-13-21-24-33-34a29 29 0 0 0-40 1C8 311 6 329 3 346a197 197 0 0 0-1 64c4 13 7 29 20 36 3 1 7 0 6 4 3 13 15 22 23 32 10 11 20 23 34 29 9 6 16 16 28 16 4 1 6 6 9 8 24 23 56 31 86 42a344 344 0 0 0 133 21c11 8 24 5 35 2 25-3 51 0 73-13a61 61 0 0 0 29-39 98 98 0 0 1 15-36c9-13 7-33-7-42-12-8-28-4-41-1-11 2-19 11-29 14-8 2-13 6-20 10-7 2-15 2-22 5 3-17 10-33 13-49l28-35c7-9 12-18 20-26 12-6 16-20 20-32a328 328 0 0 1 44-48c10-11 26-16 32-30 1-4 7-3 10-5 13-5 28-13 30-29 1-12-5-23-8-35a222 222 0 0 0-45-86c-10-12-21-24-36-32-7-16-21-28-36-37-9-6-19-9-29-8a38 38 0 0 0-26-26C363 9 332 7 303 0a46 46 0 0 0-7 0Z" style="fill:#fff;stroke-width:.87015"/><path d="m286 26-3 2-2 1-1-1c0-1-4-2-6-1l-2 6-3 6-3-2c-9-6-13-6-23-2-2 2-6 4-9 4l-5 2-7 2c-14 3-19 5-25 11l-6 5-1 13-1 22a738 738 0 0 1-3 43l-1 12v7h5a27 27 0 0 1 10 4c2 1 1 2-4 5a33 33 0 0 0-7 5c-2 3-6 12-6 15l-1 2-1 4c0 6-3 16-6 19a48 48 0 0 0-3 22c0 6 5 16 11 22a42 42 0 0 1 4 5l-4 2-7 5a25 25 0 0 1-6 5l-4 1-1 8a164 164 0 0 1-4 21 208 208 0 0 0-6 24v1c0 2 7 5 18 8l5 2 15 5a205 205 0 0 1 33 10 18 18 0 0 1 6 3l3 2 6 4a28 28 0 0 0 10 7c6 1 6 1 9-1l5-4 4-7a30 30 0 0 0 4-6l1-3 7-11a21 21 0 0 1 5-8c5-6 5-7 2-7-4 0-2-1 3-2 4-1 4 0 8-15l2-5 5-10 3-10 4-11 1-4 4-5c2-3 4-4 4-3l-7 24-6 24-3 13-2 9-3 4a83 83 0 0 0-16 17 40 40 0 0 1-8 9c-9 7-11 13-8 20 2 3 2 5 1 6h-2a48 48 0 0 0-6-3l-7-3-14-7-12-6c-1-2-15-5-19-5-3 1-4 0-8-3l-6-4-2-1-16-6a33 33 0 0 0-15 0c-14 2-15 2-17 8a27 27 0 0 1-4 5 251 251 0 0 0-13 37c-1 1-2 11 0 13l6 7c2 4 7 9 11 13 6 6 6 6 11 6h8l3-1v7c0 7 0 7 3 8l5 2c2 0 6 2 7 4l2 1 4 2a84 84 0 0 0 19 12l4 2a197 197 0 0 0 29 12c1 2 30 12 34 12l7-5 7-4c3 0 3 1 4 7l2 8c2 2 34 7 42 6 9-1 11-3 12-12 0-8 5-27 6-28a61 61 0 0 0 6-20l1-7-10-9a77 77 0 0 0-10-10l-3-2a160 160 0 0 0-25-14l-5-3c-4-4-8-5-10-3l-3 6-2 4c-2 0-3-4-3-8 0-2-2-4-6-8-5-5-5-6-4-8 2-3 2-3 5-2l9 4 6 3 8 4 13 6 7 3 1 1c0 1 8 5 11 5 2 0 4-2 6-6 3-6 6-4 4 4-3 9-1 12 5 15l4 3 2 2 3 2c3 4 6 3 9-2l4-7 15-17a71 71 0 0 1 4-5c1-2 4-5 5-9a46 46 0 0 1 6-8l3-4a33 33 0 0 1 10-9c4 0 8-8 9-17l4-8 4-4 5-8a86 86 0 0 0 8-9 534 534 0 0 1 42-41l8-5 6-3c2-3 2-12 0-19-3-13-3-15 2-9l7 6c6 4 11 3 22-2l8-5-1-6-2-9-1-2-1-2a259 259 0 0 0-17-45 73 73 0 0 0-8-16 277 277 0 0 1-14-19l-11-11c-11-13-13-14-18-16h-7c-7 3-6 3-6-6 0-7-1-9-2-11l-2-4-8-7-8-8a43 43 0 0 0-19-9c-4 0-4 1-6 7l-3 9-1 6v15l-1 18c1 4 0 18-1 19l-1 3c0 2-4 19-8 28-2 7-6 13-8 13l-1-3a91 91 0 0 1 5-16 246 246 0 0 0-2-104 36 36 0 0 0-3-17c-3-3-5-5-12-6l-5-2-25-6a617 617 0 0 0-63-9z"/><path d="M38 318c-3 3-5 9-8 24-6 27-6 53-1 69 3 12 3 12 7 12a15 15 0 0 0 6-1c3-2 8-2 9 0l2 13v12l4 4a186 186 0 0 1 18 19l7 8 10 8 7 3 3 2 8 8c3 4 6 4 14 2l7-1 2 2a21 21 0 0 1 3 10c0 2 4 7 6 7l4 3 14 9a85 85 0 0 1 11 6l18 7 19 6a181 181 0 0 0 33 11l6 2c1 2 65 11 68 10a20 20 0 0 0 5-6c2-4 3-5 4-3l3 5c1 5 2 6 5 6s7-6 8-10l1-4 5 5c7 11 8 12 14 11l4-1 4-1a109 109 0 0 1 26-3 121 121 0 0 0 26-2 36 36 0 0 1 8-1 34 34 0 0 0 14-8 48 48 0 0 1 5-5c3-3 4-5 6-14a122 122 0 0 1 11-33 39 39 0 0 1 6-9c3-3 4-4 3-7s0-3-14-1c-10 1-11 1-18 8a27 27 0 0 1-13 6c-7 1-10 3-12 5a45 45 0 0 1-10 6 27 27 0 0 1-14 3c-8 0-8 0-8 2l-1 3-2 5c-1 4-1 5-3 5-2 1-2 0-2-2s-5-8-7-8a4 4 0 0 1-3-1c-3-4-7-5-26-6a218 218 0 0 1-21-2 686 686 0 0 0-51-9 65 65 0 0 1-15-6c-10-5-13-5-15 0l-2 3-2 3c-1 4-4 6-6 4-1 0-3-2-4-5a36 36 0 0 0-3-4l-2-7c-3-9-4-10-8-11l-5-2a63 63 0 0 0-11-8 16 16 0 0 1-4-3 36 36 0 0 0-8-5c-4-2-11-8-12-11l-6-5c-5-4-6-4-12-4h-6l-1-7c-1-6-1-6-8-13l-9-8-10-15a36 36 0 0 0-5-7 42 42 0 0 1-5-8 57 57 0 0 0-7-11 57 57 0 0 1-12-16c0-2-4-5-7-5s-8 3-8 6l-2 1c-1 1-2 0-2-3-1-3 0-9 1-13 0-2-3-6-14-17a115 115 0 0 0-16-15l-4 3z"/></svg>