<svg xmlns="http://www.w3.org/2000/svg" width="436.653" height="443.67" version="1.0" viewBox="0 0 327.489 332.753"><path d="M127.774 165.147c-8.01 2.762-12.232 12.62-8.755 20.34 2.938 6.273 6.29 12.492 10.735 17.828 5.564 5.706 15.247 5.773 21.166.563 6.864-5.028 8.04-15.416 3.094-22.183-3.723-5.333-7.574-10.896-12.821-14.83-3.927-2.678-8.936-3.147-13.419-1.718zm126.532 7.362c-6.551 1.981-11.163 7.432-16.761 11.088-6.752 5.27-7.592 16.19-1.567 22.325 4.85 5.114 12.265 9.107 19.38 6.52 7.36-2.413 10.964-10.002 14.95-16.036 4.67-6.77 3.374-17.13-3.761-21.662-3.457-2.585-8.088-3.14-12.24-2.235zM116.66 136.73c-9.628 1.212-17.167 11.763-13.783 21.188 2.014 5.155 5.624 9.685 9.722 13.349 6.349 4.748 16.19 3.464 20.851-3.025 4.351-5.317 3.473-12.723.856-18.61-1.858-6.53-7.179-12.583-14.319-12.903-1.1-.271-2.215-.034-3.327 0zm71.922-88.472c-19.041.18-37.905 6.54-53.548 17.295-7.084 5.802-11.584 14.065-15.886 21.991-1.363 2.226-.966 5.152-1.705 7.328-4.721 5.237-5.99 12.55-7.702 19.174-1.92 9.021 2.749 17.544 5.93 25.68 3.038 7.306 7.684 13.736 11.923 20.346 3.377 8.955 6.562 18.075 11.774 26.184 4.995 7.736 10.176 15.643 17.197 21.698 6.85 4.197 14.754 6.403 22.45 8.518 4.332 1.061 9.109.312 12.766-2.252 5.963 5.717 14.729 3.984 22.095 3.007 7.01-.634 13.369-4.014 18.537-8.677 17.842-14.83 32.281-34.146 39.757-56.222 5.961-17.59 6.137-37.005 1.189-54.85-2.906-10.154-10.454-18.068-17.836-25.254-14.35-13.047-33.344-19.84-52.224-22.946a95.597 95.597 0 0 0-14.717-1.02Zm-43.333 142.23c-8.227 2.61-12.718 12.754-8.977 20.571.714 2.06 2.894 3.662 1.806 6.073-.66 7.772 5.34 15.104 13.032 16.178 1.21.322 3.368.212 2.562 2.166-.587 6.02 1.609 12.217 6.53 15.912 7.908 7.48 16.769 14.332 22.187 23.989 3.161 5.557 7.906 11.136 14.764 11.558 8.261.958 15.922-5.727 16.972-13.815 3.504-8.746 8.974-16.594 15.203-23.59 3.083-4.023 3.233-9.495 1.892-14.213 7.228-5.54 15.4-10.254 21.12-17.472 4.68-6.761 2.572-17.002-4.55-21.193-5.26-3.517-12.082-2.51-17.413.326-19.55 8.677-42.848 9.357-62.385.26-6.65-2.43-12.317-8.572-19.912-7.3l-2.83.55zm156.736-62.907c-7.026.968-12.402 7.157-13.265 14.05-5.877 2.285-9.858 7.688-11.643 13.608-4.036 10.027-11.25 18.321-16.227 27.864-4.198 7.922-9.078 15.538-15.638 21.733-6.835 7.094-14.682 13.1-22.956 18.41-6.591 4.857-7.994 15.157-2.64 21.432 4.1 5.49 11.448 6.316 17.798 5.65 18.995-1.047 37.653-6.425 54.502-15.22 10.536-5.413 21.46-10.508 30.647-18.093 6.073-5.544 6.548-15.598 1.337-21.877-1.32-17.862-1.562-35.86-4.43-53.579-.887-7.791-7.91-14.57-15.93-14.055-.522-.08-1.037.03-1.555.077zM262.418.231c-3.948.94-7.353 3.37-9.81 6.562-11.664 1.265-23.47-.183-35.113 1.055-7.606 2.372-15.452 4.102-22.901 6.902-8.056 3.667-11.112 14.592-6.38 22.014 2.647 3.66 3.51 8.527 7.454 11.231 5.096 3.952 11.919 4.72 16.978 8.823 10.097 7.138 18.897 15.923 29.01 23.053 16.36 12.732 25.828 32.458 29.853 52.437 1.97 7.144 1.416 16.001 7.81 20.993 6.705 5.896 18.43 3.656 22.415-4.367 2.983-5.747 2.213-12.567 3.23-18.824 1.844-17.944 2.446-36.096-.023-54.014-1.67-18.242-8.528-35.498-16.26-51.931-3.955-7.079-7.287-14.91-13.407-20.424-3.405-3.202-8.32-4.262-12.856-3.51ZM146.44 17.447c-16.526-.079-32.713 4.475-47.635 11.35-5.525 2.106-11.066 4.78-17.075 4.802-9.048 1.278-15.049 11.324-12.411 19.964 1.087 5.053 4.534 9.55 3.68 14.905.251 10.565-.46 21.225.878 31.726.895 5.662 4.892 10.333 9.852 12.926 3.584 11.727 6.318 24.036 12.215 34.999 4.408 7.337 15.36 9.257 21.899 3.68 5.083-3.695 6.22-10.342 5.788-16.247.147-8.439-.757-17.116 2.308-25.195 5.433-17.153 14.679-34.402 30.467-44.032 10.364-6.646 22.505-9.514 34.502-11.489 7.9-1.08 14.742-8.454 13.78-16.626-.312-7.336-6.68-12.859-13.494-14.477a164.365 164.365 0 0 0-44.754-6.286zM79.816 98.439c-6.454 1.67-10.572 7.625-12.023 13.85-6.259 20.422-7.315 41.894-10.677 62.867-.48 3.35-1.65 6.6-4.2 8.93-5.564 6.556-3.802 17.45 3.485 21.978 17.817 11.512 37.899 18.925 57.917 25.616 5.45 1.858 11.568.704 16.18-2.53 5.152.312 10.747 1.78 15.366-1.403 7.594-4.113 9.685-15.123 4.362-21.87-8.516-9.796-15.947-20.662-20.64-32.832-4.889-11.733-15.11-20.092-20.437-31.59-5.456-10.397-8.175-21.888-11.146-33.154-2.459-7.395-10.64-11.85-18.187-9.862zM128.2 214.227c-8.113 1.277-12.079 9.035-16.601 14.93-3.043 4.244-8.547 5.45-13.038 7.592-8.118 3.185-16.417 5.88-24.695 8.614 1.278-8.242-5.385-16.696-13.793-17.005-8.625-.816-15.113 6.266-20.437 12.061-6.15 6.737-8.35 15.986-8.71 24.86-10.801 8.515-20.821 18.793-25.789 31.874C2.5 303.96-.005 311.144 0 318.513c.369 8.24 8.228 15.047 16.45 14.162 6.272-.45 10.88-5.232 13.947-10.323 6.717-10.787 17.11-18.786 28.706-23.745 14.342-6.298 29.46-10.682 44.624-14.493 8.864 4.423 19.289 4.611 28.871 2.963 7.193-1.793 15.122-5.794 16.882-13.678 1.055-4.05.255-8.505-2.055-11.99 8.412-6.044 16.89-13.248 20.764-23.112 2.526-8.074-3.08-17.22-11.334-18.85-8.416-1.842-16.758-4.335-25.316-5.355l-3.339.135z" style="fill:red;stroke-width:.458209"/><path d="M354.01-4.464c-7.572.042-14.484 4.046-19.822 9.163-15.4.596-30.937.114-46.254 1.377-12.098 4.348-25.83 5.725-36.377 13.55-2.768 1.86-3.61 6.984-7.68 4.511-31.93-6.71-66.193-8.386-97.18 3.435-13.993 5.014-27.218 11.318-41.902 13.812-13.074 3.628-21.017 19.03-16.514 31.84 2.2 7.608 5.763 14.864 4.583 23.015l.453 37.953c-9.768 12.758-10.916 29.574-14.04 44.794-3.43 19.473-4.952 39.198-9 58.514-4.669 6.757-9.655 14.327-8.333 23.016.455 10.519 8.964 17.986 17.762 22.36 18.084 10.21 37.517 18.548 56.86 25.527-10.971 4.617-22.961 9.048-33.905 12.062-2.149-14.559-18.825-25.062-32.677-19.018-18.48 8.521-31.917 27.549-33.012 48.004-.872 4.608-6.765 6.52-9.62 10.175C13.562 372.376 2.908 388.64-1.588 407c-3.857 11.14-4.84 25.323 4.593 34.062 10.293 10.816 29.857 8.308 37.801-4.085 8.439-11.861 18.035-23.516 31.385-30.02 20.388-11.123 43.047-17.331 65.408-22.963 15.97 4.947 34.184 7.059 49.802-.172 10.151-4.455 18.288-14.762 16.735-26.288.574-3.312-3.45-7.443.403-9.244 3.16-1.89 6.343-6.695 9.368-6.736 10.562 10.088 21.227 20.288 28.853 32.877 6.076 9.54 18.15 15.773 29.297 11.581 9.869-2.59 15.732-11.723 18.373-21.01 3.756-9.812 9.827-18.511 16.415-26.615 24.514.058 48.993-4.771 71.321-15.002 18.09-8.51 36.71-16.694 52.642-28.944 10.592-7.689 13.246-23.3 6.586-34.368-2.822-15.188-2.265-31.065-4.015-46.575-1.587-11.6-.888-24.072-5.987-34.85-3.412-5.718-8.899-10.268-15.268-12.288 1.378-34.882 2.43-70.904-9.896-104.184-7.747-20.553-15.915-41.758-30.45-58.581-4.512-5.09-10.889-8.233-17.767-8.06zm.249 32.01c16.712 27.606 28.093 58.104 29.451 90.572 1.27 14.048 1.113 28.147-.568 42.155-7.96-30.86-25.94-59.452-52.29-77.797-18.207-14.275-35.078-31.804-57.937-38.46-4.67-1.098-6.694-1.969-.597-2.989 11.278-2.74 22.251-8.148 34.141-6.972 12.932-.76 26.226.989 38.922-1.949 3.141-1.126 5.994-3.004 8.367-5.34l.473.722zm-158.43 20.377c13.33.022 26.674 1.3 39.722 4.057-30.038 5.906-57.738 23.84-73.811 50.125-14.064 22.272-22.96 48.424-21.335 75.009.096 4.121.337 8.241.79 12.34-11.259-20.06-18.286-42.876-18.91-65.927-.94-14.166.115-28.605-.716-42.817-1.506-4.049-3.27-8.137-4.514-12.22 21.601-3.93 40.065-17.223 62.135-19.618 5.513-.737 11.081-.947 16.638-.949zm69.128 15.564c12.23 2.65 23.48 9.59 32.48 18.18 3.26 3.276 6.352 6.715 9.35 10.23-30.889-14.461-68.155-17.26-99.491-2.537-1.816.4-10.467 5.82-6.442 2.51 17.34-15.072 39.119-24.706 61.515-28.27.86-.079 1.725-.151 2.588-.113zm-8.019 33.828c21.497-.067 42.242 8.51 60.162 19.843 12.186 7.477 14.771 22.826 13.92 36-.076 10.755-4.263 21.958-9.163 30.639 1.206-19.572-4.286-39.817-17.555-54.602-15.25-17.79-37.876-28.203-60.93-30.881 4.598-.71 9.16-.975 13.566-.999zm-31.011 19.832c2.847.166 8.072-.285 9.65.37-20.677 13.336-39.736 31.53-47.347 55.56-8.48-11.23-12.3-25.13-12.571-39.071-.093-4.581 7.446-4.72 10.768-7.27 12.427-5.657 25.615-10.468 39.5-9.59zm40.853 7.531c7.93 5.848 15.524 13.563 18.468 23.175.487 2.278 1.736 6.42 1.438 7.7-6.867-6.936-15.78-13.35-25.812-13.831-7.084.197-14.81 5.05-19.744 7.533 5.203-10.769 14.603-20.22 25.65-24.577zm81.998 5.888c13.657 25.16 21.23 53.208 22.327 81.583-1.455 6.32-7.636 10.388-11.477 15.088-16.76 17.538-36.067 33.256-58.935 42.021-2.036.763-6.323 2.555-7.15 2.284 29.993-21.904 53.637-54.628 59.51-91.79 2.49-16.594.71-33.705-4.518-49.615zm-129.356 28.733c-2.013 12.47-4.581 27.217 4.588 37.655 6.007 7.878 13.526 14.524 21.67 20.12-15.137-3.497-30.72-9.306-41.763-20.607-3.407-3.623.985-8.626 1.727-12.52 3.787-9.153 8.538-17.908 14.042-26.14l-.15.851zm-57.825 4.048c4.704 14.462 11.2 28.411 20.374 40.585 5.89 11.895 9.071 25.072 16.406 36.298 5.561 9.484 13.07 18.424 20.545 25.917-31.152-15.136-54.998-46.457-57.84-81.37-.42-7.576-.292-14.891.2-22.405l.266.822zm-50.276 3.134c5.954 23.001 16.948 44.603 32.385 62.676 8.24 11.805 12.153 25.864 20.473 37.736 6.056 9.565 13.21 18.39 20.866 26.712-31.804-9.463-63.62-20.012-92.386-36.688 8.622-11.95 8.122-27.565 10.604-41.497 2.225-16.588 4.08-33.287 7.93-49.401zm190.91 3.949c.242 8.758.591 17.737-.148 26.358-2.648 4.377-3.955 10.472-7.64 13.778-12.942.895-25.85-3.396-36.455-10.674 12.453-.079 25.128-3.871 35.676-10.473 5.649-4.938 6.835-12.933 8.483-19.865l.083.86zm98.313 15.123c5.398 25.947 4.437 52.544 7.503 78.866.506 3.067 1.465 6.112 3.258 8.68-20.762 13.622-43.556 24.999-67.306 31.817-6.68 1.899-13.557 2.943-20.465 3.554 18.393-13.964 34.765-31.094 45.241-51.858 8.893-16.43 21.574-31.025 26.286-49.49 2.338-7.822 3.884-15.86 5.02-23.938l.463 2.37zm-83.562 32.369c-15.849 21.979-36.182 40.85-59.974 53.534-16.478-11.281-31.386-25.538-41.07-43.17 13.185 8.477 27.845 16.724 44.097 15.704 22.197 1.29 41.926-11.615 57.21-26.448zm-127.546 52.847c19.423 14.4 42.714 24.03 67.086 24.66 22.692 1.965 45.782-2.966 66.02-13.297-15.598 16.24-32.595 31.275-46.695 48.875-4.695 7.235-9.057 14.742-12.322 22.74-12.637-19.833-31.845-34.08-47.664-51.176-10.274-10.122-19.36-21.126-27.79-32.806l.696.512zm-13.871 39.517c7.291 1.41 15.43 2.767 22.106 4.794-11.154 13.66-27.358 20.386-41.838 29.682-5.727 4.58.172 11.765 5.22 13.846 4.163 1.569.707 1.318-1.726 1.065-8.954-.42-16.776-8.11-25.976-4.645-27.234 7.064-54.943 14.53-79.407 28.839-8.765 5.288-16.866 11.735-23.701 19.372 6.684-15.854 20.92-26.365 33.852-36.734 3.222-5.949 1.047-13.46 2.412-20.072.24-2.486 2.221-6.875 3.468-7.576-.11 6.51-2.272 16.542 5.559 19.484 7.58.967 14.654-3.662 21.91-5.26 19.984-7.051 40.882-12.257 59.594-22.427 8.29-4.667 12.854-13.256 18.527-20.368z" style="fill:#fff;stroke-width:.864007" transform="scale(.75)"/><path d="M263.618 16.66c-3 4.6-6.7 5.5-25.3 5.5l-17.5.1-17.2 5-17.2 5 7.8 1.6c15.3 3.1 26.9 9.2 39 20.3 4.2 3.9 10.1 8.7 13.2 10.8 20.6 13.8 35.2 38.5 40.4 68.1.8 4.9 1.7 9.1 1.9 9.3.3.4 2-17.8 3.1-33.2.7-9.8-.9-31.2-3.1-42-2.9-14.3-12.1-36.5-20.1-48.6-2.9-4.5-3.4-4.6-5-1.9zM135.818 32.76c-9.3 1.2-19.2 4.2-29.5 8.9-9.1 4.2-20.4 7.5-22 6.5-1.7-1-1.1 1.8 1.6 8.5 2.5 6.1 2.6 7 1.9 18-.8 13.9.7 29.4 4 42.8 2.8 11 11.2 28.7 17.6 37.2 4.3 5.8 4.3 5.8 1.3-5-2.2-8-2.9-23.5-1.5-32.6 3.4-20.9 15-43 29.2-55.8 10.9-9.8 27.1-17.2 42.9-19.7 10.6-1.6 11.1-2 6-3.6-15.4-4.7-38.2-7-51.5-5.2z"/><path d="M188.618 45.56c-19.3 5.2-33.2 13-45.8 25.6-4.9 5-9.9 10.6-10.9 12.5l-2 3.4 3-2.2c33-25.7 65.1-28.6 102.6-9.6 2.7 1.4 4.8 2.1 4.8 1.7 0-1.7-10.4-14.4-16-19.6-6.7-6.2-18.6-12.6-24.6-13.3-2.1-.2-7.1.5-11.1 1.5z"/><path d="M185.318 69.66c-6 .7-14 3.2-18 5.5-2.3 1.3-1.7 1.4 7.1 1.5 25 .1 48.5 13.4 58.5 33.2 5.5 10.9 6.9 28.8 3.1 39.8-.9 2.4-1.5 4.6-1.3 4.7.6.7 8.8-12 11.6-17.9 6.6-14.1 7.6-27.9 3-40-2.7-7.3-7.3-11.3-20.4-17.8-15.2-7.5-30.6-10.7-43.6-9z"/><path d="M246.318 73.86c0 .3 1.6 3.1 3.5 6.3 15.4 25.7 16.5 54.3 2.9 80.7-9.8 18.9-26.4 36.3-43.5 45.8l-5.4 3h4.4c10 0 26.9-6.6 40.8-16.2 8.6-5.8 26.6-22.7 30.8-28.8 2.6-3.7 2.7-4.4 2-10.7-2.8-26.9-10.7-50.3-22.5-66.3-4.6-6.1-13-15.1-13-13.8zM160.818 84.56c-8.6 1.4-16.7 4.1-24.8 8.4l-7.9 4 .4 8.1c.3 5.1 1.3 10.2 2.6 13.7 3 7.5 10.9 19.8 11.6 17.9.2-.8 1-3.3 1.6-5.5 5-16.5 17.8-30.4 40.6-44.1 1.1-.7 1.7-1.4 1.4-1.7-1-1-20.4-1.6-25.5-.8zM193.818 92.56c-6.2 3.5-12.6 10.3-15.8 16.8-2.6 5-4.9 12.3-4 12.3.3 0 2.3-1.6 4.5-3.6 5.1-4.6 13.2-8.4 17.9-8.4 4.6 0 15 6.7 18.8 12.1 1.4 2.1 3 3.8 3.5 3.9 1.8 0-.1-14.4-2.5-19.4-2.5-5.4-13.2-16.6-15.8-16.6-.9 0-3.9 1.3-6.6 2.9zM120.118 107.26c-3.5 6.1-4.3 30.5-1.4 41.9 7 26.8 26.3 48 52.5 57.5 4.6 1.7 8.5 2.9 8.7 2.7.2-.2-1.9-2-4.7-4.2-14-10.6-26.6-28.4-31.6-44.5-1.7-5.6-3.8-9.9-6.1-12.5-5.8-6.9-13-23.4-15.6-35.9-.7-3.3-1.5-5.6-1.8-5z"/><path d="M165.618 111.16c-7.9 9.4-17.3 28.4-17.3 34.9 0 4.5 13.4 13.8 26.1 18 7.7 2.6 23.9 4.6 23.9 3 0-.5-3.1-2.2-6.8-3.9-5-2.2-8.6-4.8-14.3-10.5-10.1-10-11.3-12.9-10.5-23.7.4-4.6 1.5-11.5 2.5-15.3 1-3.9 1.4-7 1-7-.5 0-2.5 2-4.6 4.5zM81.418 118.16c-2.8 8.8-5.6 25.7-7.6 44.5-1.7 16.6-3.5 23.6-7.1 27.9l-2.5 3 4.3 2.7c12.1 7.7 39.8 18.8 64.4 25.9 8.6 2.5 15.9 4.5 16.2 4.5.2 0-3.1-3.7-7.3-8.3-12.5-13.3-20.9-26.3-26-40.2-1.1-2.8-4.2-7.5-6.9-10.7-10.1-11.2-18-27.1-22.6-45.3l-2.7-11z"/><path d="M224.318 118.96c0 5.6-3 16.9-5.3 19.8-2 2.5-14.7 7.1-21.2 7.6-4.4.4-7.6 0-11.8-1.5l-5.8-1.9 3.3 3.4c9 9.3 23.4 15.7 34.4 15.1l5.9-.3 3.5-7c3.4-6.7 3.5-7.4 3.4-17.5 0-8.5-.4-11.6-2.3-16.2-3-7.7-4.1-8.1-4.1-1.5zM297.618 128.96c-1.9 21.1-6.8 36.1-15.6 47.7-1.8 2.5-5.2 8-7.5 12.3-2.3 4.4-5.9 10.4-7.9 13.5-5.4 8.2-19.6 22.1-28.7 28.1l-7.9 5.1h5.5c8 0 21.9-2.6 32.2-6.1 10.1-3.4 33.6-15.2 40.9-20.4l4.7-3.5-2.2-3c-2-2.8-2.3-4.6-2.9-22.3-.9-21.3-2.6-35-6.5-52.5-1.4-6.4-2.7-11.8-2.8-11.9-.1-.1-.7 5.7-1.3 13z"/><path d="M248.218 146.46c-5.9 8.2-16.9 19.1-24.5 24.1-10.7 7.2-18.3 9.4-30.3 8.9-8.9-.3-10.4-.7-18.1-4.4-4.7-2.3-11.4-6.4-15-9.2-3.5-2.8-6.6-4.9-6.9-4.7-.8.9 6.9 15.3 11.2 21.1 5.6 7.4 17.2 18.5 23.5 22.5l4.5 2.9 5.6-3c17.8-9.6 39.8-31.8 48.8-49.4 2.8-5.5 5.5-12.7 5-13.3-.2-.1-1.9 1.8-3.8 4.5z"/><path d="M127.718 187.06c5.7 14.1 26.3 39.2 48.9 59.4 9.5 8.5 12.9 12.2 17 19 5.1 8.3 5.2 8.4 5.8 5.4.8-4.1 4.9-12.4 9.8-19.8 4.5-6.9 10.3-12.9 30-31.4 12.4-11.6 25.1-26 25.1-28.4 0-.5-2.7 1.7-6 4.8-22.4 20.7-57 28-87 18.4-14.8-4.8-30.2-14.6-40.1-25.7l-5-5.6zM125.618 235.06c-6.2 9.8-10.5 12.1-40.3 22.1-14 4.7-26.3 8.5-27.2 8.5-3.7 0-3.6-13.2.1-19.6 2.6-4.4 1.1-4.3-4 .3-6.1 5.5-8.3 10.4-8.5 19.1l-.2 7.2-4.8 3.7c-15.4 11.4-22.8 22.8-25.9 39.8-.6 3.8-.5 3.7 4.4-3.7 12.1-18 28.8-27.9 64.6-38.3 21-6.1 21.7-6.2 26-3.5 6.2 3.8 19.5 3.7 24.8-.2 1.5-1.1 1.1-1.3-2.7-1.4-4.6-.1-12.1-3.7-13.1-6.2-.3-.8-.4-1.6-.3-1.7.2-.1 4-2.1 8.5-4.5 10.5-5.5 20.4-13 24.2-18.2 1.7-2.3 3-4.3 2.8-4.4-.3-.3-22.6-5.4-23.7-5.4-.3 0-2.5 2.9-4.7 6.4z"/></svg>