<?xml version="1.0" encoding="UTF-8" standalone="no"?>
<svg
   xmlns:dc="http://purl.org/dc/elements/1.1/"
   xmlns:cc="http://creativecommons.org/ns#"
   xmlns:rdf="http://www.w3.org/1999/02/22-rdf-syntax-ns#"
   xmlns:svg="http://www.w3.org/2000/svg"
   xmlns="http://www.w3.org/2000/svg"
   xmlns:sodipodi="http://sodipodi.sourceforge.net/DTD/sodipodi-0.dtd"
   xmlns:inkscape="http://www.inkscape.org/namespaces/inkscape"
   version="1.0"
   width="265.75522pt"
   height="261.43958pt"
   viewBox="0 0 265.75522 261.43958"
   preserveAspectRatio="xMidYMid meet"
   id="svg6509"
   sodipodi:docname="toreadorantitribu.svg"
   inkscape:version="1.0.1 (3bc2e813f5, 2020-09-07)">
  <defs
     id="defs6513" />
  <sodipodi:namedview
     pagecolor="#ffffff"
     bordercolor="#666666"
     borderopacity="1"
     objecttolerance="10"
     gridtolerance="10"
     guidetolerance="10"
     inkscape:pageopacity="0"
     inkscape:pageshadow="2"
     inkscape:window-width="1600"
     inkscape:window-height="837"
     id="namedview6511"
     showgrid="false"
     fit-margin-top="0"
     fit-margin-left="0"
     fit-margin-right="0"
     fit-margin-bottom="0"
     inkscape:zoom="1.7508711"
     inkscape:cx="178.98551"
     inkscape:cy="212.2979"
     inkscape:window-x="-8"
     inkscape:window-y="-8"
     inkscape:window-maximized="1"
     inkscape:current-layer="svg6509" />
  <metadata
     id="metadata6503">
Created by potrace 1.16, written by Peter Selinger 2001-2019
<rdf:RDF>
  <cc:Work
     rdf:about="">
    <dc:format>image/svg+xml</dc:format>
    <dc:type
       rdf:resource="http://purl.org/dc/dcmitype/StillImage" />
    <dc:title></dc:title>
  </cc:Work>
</rdf:RDF>
</metadata>
  <path
     id="path7082"
     style="fill:#ffffff;stroke-width:0.0535447"
     d="m 165.00292,110.39869 c -4.03851,0.14359 -8.01502,1.61819 -11.15601,4.16329 -3.86409,3.09547 -6.40697,7.77125 -6.8993,12.69837 -0.50677,4.59687 0.77468,9.33599 3.44113,13.10476 2.27012,3.27071 5.48042,5.92907 9.23933,7.29665 2.94188,1.11467 6.15825,1.41024 9.26967,1.00098 0.35826,-0.0367 0.71923,-0.0752 1.08349,-0.10942 -0.56444,0.048 -0.34769,0.0255 0.0952,-0.0105 5.10075,-0.46082 9.95272,-3.12617 13.07183,-7.18922 2.96883,-3.78506 4.36791,-8.73526 3.87955,-13.516 -0.47617,-5.03222 -3.09328,-9.81374 -7.07773,-12.92462 -2.72593,-2.17448 -6.07151,-3.49602 -9.51413,-3.97224 -1.55837,-0.31165 -3.13661,-0.55998 -4.73048,-0.5516 -0.23419,-0.006 -0.46839,0.007 -0.70257,0.01 z M 146.75996,42.234344 c -9.82185,0.198726 -18.36744,8.746187 -18.6478,18.549922 -0.95144,8.957806 4.73394,18.182483 13.50177,20.699971 8.17549,2.727825 16.97156,-1.291883 22.3501,-7.553813 7.42851,-7.41552 6.40624,-21.069322 -2.0465,-27.296966 -4.15561,-3.523556 -9.85178,-4.478844 -15.15757,-4.399114 z m 14.16846,15.696987 c -11.62392,0.841625 -20.14647,11.201433 -23.03012,21.837063 -2.08969,6.562088 -3.34177,14.172841 0.67476,20.285306 1.09156,2.0341 3.1509,3.51229 3.2315,6.02527 2.52429,9.0643 10.97682,14.32881 18.27216,19.32213 6.96337,4.67573 15.37569,6.61449 23.69691,6.26055 5.35103,0.23571 10.66123,-1.4323 14.95286,-4.54683 8.97139,-2.97732 17.62745,-7.90037 23.84915,-15.12796 7.43925,-8.42807 8.85663,-21.445135 3.18651,-31.190073 -4.17215,-7.926473 -12.03189,-14.842193 -21.47166,-14.426295 -4.89061,0.0591 -9.77352,1.946265 -13.31174,5.334397 -2.43657,-1.988985 -5.76785,-2.571135 -8.46946,-3.670237 -2.98936,-3.559485 -7.01665,-5.528708 -10.8573,-7.927911 -3.30252,-1.648887 -7.03825,-2.417758 -10.72357,-2.17541 z m 14.19355,4.581423 c 2.4467,1.12884 -1.28072,-0.53757 0,0 z M 128.72291,0.03436684 C 120.55859,0.88024536 113.87045,7.417688 112.08526,15.315529 c -0.8479,2.598195 -1.68284,5.200864 -2.57573,7.784087 -2.28164,0.448046 -4.57671,1.310559 -6.75877,0.02451 -11.3446,-3.001027 -24.601847,2.60913 -29.616535,13.39766 -7.600088,-3.341001 -15.146679,-8.972408 -23.890707,-7.624832 -10.700565,1.229787 -18.622243,12.497327 -16.354145,22.986032 1.3818,6.346478 4.942722,12.069521 7.461223,17.910191 -10.558931,3.459742 -17.894469,14.66748 -16.348727,25.753358 0.138374,2.817817 1.449291,5.502295 1.987338,8.134445 0.335619,2.65873 -1.987488,2.92961 -3.966034,3.52835 -6.871151,2.25145 -14.6864895,4.34969 -18.6542034,11.00105 -6.2227022,8.99685 -3.59029509,22.77515 5.9589849,28.3793 4.8499445,2.9492 10.4653665,4.22929 15.7515045,6.16109 -13.267483,8.14837 -21.6711961,24.67784 -18.2311606,40.17531 2.2528471,9.83594 7.5912576,20.37443 17.8372096,23.70141 2.723075,0.93803 5.63515,1.30372 8.507657,1.1258 3.979302,9.16392 15.490943,13.37964 24.69902,9.9414 5.231595,-1.74745 10.119217,-4.3501 15.094792,-6.69859 5.152028,11.93603 20.346421,16.96445 32.172043,12.69847 3.06976,-0.25326 3.81707,2.08961 4.40034,4.61489 2.51178,7.09798 4.14534,15.52557 11.10591,19.7551 9.24762,6.59787 23.55963,3.1219 28.81262,-6.94467 2.87953,-5.37425 4.33491,-11.35619 6.51938,-17.02122 3.51187,-1.25154 6.91425,1.12032 10.52156,0.67851 9.58296,0.11437 18.69102,-5.90021 22.76155,-14.47215 5.47281,2.1038 10.9816,5.48695 16.73217,7.49463 9.89643,3.77016 22.1808,-1.87352 25.31469,-12.08991 2.67039,-6.95914 -0.15508,-14.27669 -3.42519,-20.48124 -1.37984,-2.88648 -2.79815,-5.75432 -4.23254,-8.61402 10.87862,-5.44972 17.00497,-19.18393 12.86413,-30.78155 -0.65894,-3.03276 2.40326,-3.14185 4.54073,-3.92006 7.62122,-2.61237 16.70907,-4.51698 20.99893,-12.14283 3.93866,-6.16015 3.63563,-14.46393 0.17773,-20.65545 5.47944,-8.45189 3.6917,-19.09305 0.34651,-27.968488 -4.27308,-11.905373 -10.29691,-23.409143 -19.37698,-32.372289 -3.96471,-4.267279 -7.97806,-8.49717 -12.22295,-12.488482 -0.91405,-6.985739 -6.25065,-13.059615 -12.92521,-15.173251 -6.83058,-7.482267 -15.48121,-13.188939 -24.5988,-17.489063 -8.98926,-3.8046714 -19.03077,0.04352 -26.124,5.938451 -1.65278,2.26084 -4.4374,0.693498 -6.68077,0.592527 -2.53165,-0.403036 -5.04772,-0.905568 -7.59142,-1.230882 -2.05657,-7.126756 -5.96511,-14.469315 -13.2753,-17.2871364 -3.49404,-1.51235101 -7.32366,-1.73943602 -11.0792,-1.60161976 z M 153.60533,47.490935 c -0.29951,-1.347533 -0.18278,-1.623392 0,0 z m -6.18024,13.205482 c 2.55538,0.0878 5.10366,0.397524 7.59666,0.968829 0.66792,4.345411 3.5758,7.749683 5.63055,11.464868 5.66103,8.912993 18.66057,10.874168 27.36392,5.416793 3.24663,0.747427 6.66665,0.721717 9.8924,-0.12048 3.30673,3.182918 7.83321,4.761683 12.07876,5.832848 4.32569,4.15884 8.22069,8.83245 10.54725,14.420467 -6.50911,3.195998 -12.2336,7.700828 -18.38845,11.454398 -4.01871,1.47173 -8.65434,1.53865 -12.05036,4.49693 -4.08986,2.5896 -6.3877,7.27502 -7.77794,11.58408 -5.04347,2.44254 -10.73156,3.41964 -16.21403,3.90625 -3.15347,-3.69162 -2.62232,-8.88486 -4.87592,-12.99799 1.79302,-5.05143 0.3394,-10.4314 -1.46743,-15.23055 -0.82369,-6.242855 -4.68464,-12.030995 -10.24717,-15.012208 -3.30592,-7.130453 -2.4169,-15.218055 -2.7947,-22.851885 0.36458,-0.815708 -0.79115,-3.765392 0.70646,-3.33235 z m 64.46038,2.873845 c -0.28395,0.89688 0.75202,-4.692805 0,0 z M 24.721377,159.63294 c 0.09058,-0.71024 0.114485,-0.5698 0,0 z" />
  <g
     transform="matrix(0.1,0,0,-0.1,-12.962252,272.73707)"
     fill="#000000"
     stroke="none"
     id="g6507">
    <path
       d="m 1407,2459 c -21,-66 -43,-121 -50,-123 -7,-2 -55,-12 -107,-24 -82,-17 -98,-18 -115,-6 -45,32 -115,2 -115,-49 0,-17 -17,-34 -69,-68 l -69,-45 -123,62 c -68,35 -127,63 -132,63 -4,1 22,-58 59,-130 65,-131 65,-131 46,-153 -11,-11 -34,-45 -52,-73 -27,-45 -36,-53 -61,-53 -60,0 -88,-63 -49,-112 18,-23 18,-29 5,-76 -7,-28 -16,-73 -20,-99 l -7,-48 -135,-43 c -74,-24 -131,-47 -127,-52 5,-4 66,-26 136,-49 l 127,-42 7,-37 c 3,-20 12,-61 19,-91 12,-46 12,-57 -1,-75 -7,-11 -14,-27 -14,-36 0,-8 -19,-24 -42,-34 -70,-32 -116,-82 -134,-142 -14,-49 -14,-59 0,-107 9,-30 25,-62 36,-72 30,-27 75,-5 99,50 22,50 57,77 133,100 47,15 60,16 72,5 9,-7 16,-19 16,-28 0,-8 -29,-70 -65,-137 -36,-68 -65,-126 -65,-129 0,-3 58,23 130,59 71,36 134,65 139,65 5,0 39,-19 75,-42 54,-34 66,-46 66,-68 0,-15 8,-34 18,-43 23,-21 85,-22 102,-2 8,9 20,13 29,9 9,-3 54,-14 101,-24 l 84,-17 45,-136 c 25,-76 48,-137 51,-137 3,0 26,61 50,136 25,75 50,138 55,139 6,2 48,12 94,22 77,18 87,19 111,5 38,-22 89,-1 97,40 4,22 23,40 79,78 l 74,50 140,-70 140,-70 -70,140 -70,140 46,70 c 27,42 52,70 62,70 50,0 80,58 56,106 -12,22 -11,39 4,118 l 18,91 137,45 c 75,25 139,48 142,52 4,4 -39,21 -96,39 -57,17 -108,35 -112,39 -4,4 20,19 55,35 71,31 123,67 138,94 13,26 -11,112 -61,217 -33,71 -58,103 -146,195 -96,99 -109,109 -134,104 -27,-6 -28,-5 -20,23 5,16 14,39 20,51 13,23 9,26 -19,11 -15,-8 -23,-3 -46,28 -37,49 -73,79 -147,124 -57,35 -62,36 -89,22 -15,-8 -42,-27 -60,-43 -45,-39 -111,-47 -203,-26 -38,9 -92,15 -119,13 l -49,-3 -36,107 c -20,59 -38,109 -41,112 -3,2 -22,-49 -43,-115 z m 655,-135 c 62,-42 134,-126 123,-144 -2,-4 -41,0 -87,7 -105,18 -209,10 -255,-18 -19,-12 -36,-19 -39,-17 -19,19 143,218 178,218 7,0 43,-21 80,-46 z m -355,-30 c 38,-9 84,-13 106,-10 20,4 37,2 37,-2 0,-5 -35,-36 -77,-69 -199,-154 -262,-263 -250,-435 3,-43 2,-80 -3,-83 -20,-13 -73,86 -95,177 -15,65 -20,267 -9,351 l 7,46 61,19 c 77,25 136,26 223,6 z m 354,-194 c 62,-63 109,-143 109,-183 0,-13 9,-32 21,-43 83,-75 57,-154 -72,-218 -87,-44 -113,-47 -79,-11 30,32 21,42 -13,15 -17,-13 -26,-29 -24,-43 2,-21 -2,-22 -60,-21 -71,1 -104,18 -207,103 -72,60 -75,68 -55,160 13,63 40,98 93,121 36,16 38,19 15,19 -40,1 -90,-38 -106,-84 -25,-74 -23,-71 -33,-55 -6,8 -10,38 -10,65 0,64 33,132 79,163 36,23 168,68 177,60 2,-3 -9,-31 -26,-64 -18,-34 -29,-67 -26,-78 3,-11 -2,-28 -10,-37 -25,-28 -21,-117 8,-180 24,-51 74,-116 83,-107 2,2 -3,28 -11,57 -16,52 -13,135 5,146 5,2 16,-16 26,-41 9,-25 34,-63 55,-85 54,-57 84,-52 127,21 19,30 33,67 33,85 -1,27 -5,23 -35,-37 -34,-65 -57,-88 -89,-88 -15,0 -15,3 -1,36 19,46 19,114 0,140 -30,40 -6,45 64,14 56,-26 39,-1 -27,37 -35,21 -62,27 -123,31 -84,5 -91,10 -68,55 17,33 91,107 107,107 8,0 41,-27 73,-60 z m 114,21 c 54,-25 84,-60 106,-123 10,-29 18,-44 18,-33 0,11 -8,45 -19,75 -10,30 -17,57 -14,59 6,6 127,-112 174,-171 37,-46 96,-171 110,-235 10,-41 -10,-60 -110,-106 -41,-19 -101,-55 -133,-81 -67,-52 -154,-85 -187,-70 -20,9 -18,12 29,43 60,38 90,75 128,156 25,54 28,72 29,180 2,97 1,108 -6,60 -10,-79 -28,-125 -40,-105 -6,8 -10,25 -10,38 0,13 -13,36 -28,52 -16,15 -34,47 -41,71 -19,63 -47,114 -87,159 -24,26 -31,40 -22,43 26,11 64,6 103,-12 z m -545,-105 c -5,-15 -8,-71 -6,-124 6,-147 54,-270 147,-375 l 41,-47 h -32 c -40,0 -81,21 -152,79 -69,55 -88,96 -88,186 0,73 42,267 66,303 21,32 39,15 24,-22 z m 359,-48 c 28,-10 22,-19 -22,-34 -44,-15 -68,-53 -76,-121 l -7,-58 -17,33 c -24,45 -32,121 -17,166 l 12,36 51,-6 c 29,-4 63,-11 76,-16 z m 269,-292 c 5,-42 -4,-68 -38,-111 -38,-47 -75,-71 -160,-101 -120,-43 -200,-23 -277,70 -35,43 -86,142 -81,158 2,5 27,-12 55,-40 64,-62 124,-87 195,-79 56,7 165,55 238,106 52,36 64,35 68,-3 z m -717,-78 c 1,-7 2,-51 3,-97 2,-78 -1,-90 -30,-145 -18,-34 -66,-104 -106,-156 -67,-87 -79,-98 -148,-132 -95,-46 -175,-64 -373,-84 -167,-16 -296,-48 -347,-84 -17,-12 -42,-41 -56,-66 -14,-24 -30,-44 -35,-44 -19,0 -31,75 -19,119 14,52 44,82 119,118 51,24 70,27 226,34 143,5 184,11 260,34 201,60 292,142 399,356 37,73 71,139 77,146 14,16 29,17 30,1 z m 69,-59 c 17,-30 74,-68 136,-91 47,-17 92,-22 221,-27 89,-3 165,-10 169,-14 16,-15 -22,-62 -73,-93 -70,-41 -139,-61 -253,-73 l -95,-9 -38,41 c -61,66 -87,119 -101,206 -7,44 -11,83 -9,85 9,8 33,-6 43,-25 z m -262,-505 c 8,-27 27,-55 52,-78 51,-46 90,-48 131,-7 38,38 39,83 3,116 -30,27 -12,36 22,11 15,-11 19,-26 19,-69 0,-70 -26,-101 -95,-116 -73,-16 -115,0 -182,71 -32,32 -58,65 -58,71 1,14 82,57 91,48 3,-3 11,-25 17,-47 z"
       id="path6505" />
  </g>
</svg>
