<svg xmlns="http://www.w3.org/2000/svg" width="354.34" height="348.586" version="1.0" viewBox="0 0 265.755 261.44"><path d="M165.003 110.399c-4.039.143-8.015 1.618-11.156 4.163-3.864 3.095-6.407 7.771-6.9 12.698-.506 4.597.775 9.336 3.442 13.105 2.27 3.27 5.48 5.93 9.24 7.297 2.94 1.114 6.157 1.41 9.269 1 .358-.036.719-.074 1.083-.109-.564.048-.347.026.095-.01 5.101-.461 9.953-3.126 13.072-7.19 2.97-3.784 4.368-8.735 3.88-13.515-.476-5.033-3.093-9.814-7.078-12.925-2.726-2.175-6.071-3.496-9.514-3.972-1.558-.312-3.137-.56-4.73-.552-.235-.006-.469.007-.703.01zM146.76 42.234c-9.822.2-18.367 8.747-18.648 18.55-.951 8.958 4.734 18.183 13.502 20.7 8.175 2.728 16.971-1.292 22.35-7.554 7.429-7.415 6.406-21.069-2.046-27.297-4.156-3.523-9.852-4.478-15.158-4.399zm14.168 15.697c-11.623.842-20.146 11.202-23.03 21.837-2.09 6.562-3.341 14.173.675 20.286 1.092 2.034 3.151 3.512 3.232 6.025 2.524 9.064 10.976 14.329 18.272 19.322 6.963 4.676 15.375 6.615 23.697 6.26 5.35.236 10.66-1.432 14.952-4.546 8.972-2.977 17.628-7.9 23.85-15.128 7.439-8.428 8.856-21.445 3.186-31.19-4.172-7.927-12.032-14.842-21.472-14.427-4.89.06-9.773 1.947-13.311 5.335-2.437-1.99-5.768-2.571-8.47-3.67-2.99-3.56-7.016-5.53-10.857-7.928a21.045 21.045 0 0 0-10.724-2.176zm14.194 4.582c2.447 1.129-1.28-.538 0 0zM128.722.034c-8.163.846-14.852 7.384-16.637 15.282-.848 2.598-1.683 5.2-2.575 7.784-2.282.448-4.577 1.31-6.76.024-11.344-3-24.601 2.61-29.616 13.398-7.6-3.341-15.146-8.973-23.89-7.625-10.701 1.23-18.623 12.497-16.355 22.986 1.382 6.346 4.943 12.07 7.462 17.91C29.79 73.253 22.456 84.461 24 95.547c.14 2.817 1.45 5.502 1.988 8.134.336 2.659-1.987 2.93-3.966 3.528-6.871 2.252-14.686 4.35-18.654 11.001-6.223 8.997-3.59 22.776 5.959 28.38 4.85 2.949 10.465 4.229 15.751 6.16-13.267 8.15-21.67 24.679-18.23 40.176 2.252 9.836 7.59 20.375 17.837 23.701 2.723.939 5.635 1.304 8.507 1.126 3.98 9.164 15.491 13.38 24.7 9.942 5.23-1.748 10.118-4.35 15.094-6.699 5.152 11.936 20.346 16.965 32.172 12.699 3.07-.254 3.817 2.09 4.4 4.614 2.512 7.098 4.146 15.526 11.106 19.756 9.248 6.597 23.56 3.121 28.813-6.945 2.88-5.374 4.335-11.356 6.52-17.021 3.511-1.252 6.914 1.12 10.52.678 9.584.115 18.692-5.9 22.762-14.472 5.473 2.104 10.982 5.487 16.733 7.495 9.896 3.77 22.18-1.874 25.314-12.09 2.67-6.96-.155-14.277-3.425-20.481a505.29 505.29 0 0 0-4.232-8.615c10.878-5.45 17.004-19.183 12.864-30.781-.66-3.033 2.403-3.142 4.54-3.92 7.622-2.612 16.71-4.517 21-12.143 3.938-6.16 3.635-14.464.177-20.655 5.48-8.452 3.692-19.093.347-27.969-4.274-11.905-10.297-23.409-19.377-32.372-3.965-4.267-7.978-8.497-12.223-12.489-.914-6.985-6.251-13.06-12.926-15.173-6.83-7.482-15.48-13.189-24.598-17.489-8.99-3.805-19.031.044-26.124 5.938-1.653 2.261-4.438.694-6.681.593-2.532-.403-5.048-.906-7.592-1.23-2.056-7.128-5.965-14.47-13.275-17.288-3.494-1.512-7.324-1.74-11.08-1.602zm24.883 47.457c-.3-1.348-.182-1.623 0 0zm-6.18 13.205c2.555.088 5.104.398 7.597.97.668 4.345 3.576 7.749 5.63 11.464 5.661 8.913 18.66 10.874 27.364 5.417 3.247.747 6.667.722 9.893-.12 3.306 3.182 7.833 4.761 12.078 5.832 4.326 4.16 8.221 8.833 10.548 14.42-6.51 3.197-12.234 7.702-18.389 11.455-4.019 1.472-8.654 1.539-12.05 4.497-4.09 2.59-6.388 7.275-7.778 11.584-5.044 2.443-10.732 3.42-16.214 3.906-3.154-3.691-2.622-8.884-4.876-12.998 1.793-5.051.34-10.431-1.468-15.23-.823-6.243-4.684-12.031-10.247-15.012-3.306-7.13-2.417-15.218-2.794-22.852.364-.816-.792-3.766.706-3.333zm64.46 2.874c-.283.897.752-4.693 0 0zM24.721 159.633c.091-.71.115-.57 0 0z" style="fill:#fff;stroke-width:.0535447"/><path d="M127.738 26.837c-2.1 6.6-4.3 12.1-5 12.3-.7.2-5.5 1.2-10.7 2.4-8.2 1.7-9.8 1.8-11.5.6-4.5-3.2-11.5-.2-11.5 4.9 0 1.7-1.7 3.4-6.9 6.8l-6.9 4.5-12.3-6.2c-6.8-3.5-12.7-6.3-13.2-6.3-.4-.1 2.2 5.8 5.9 13 6.5 13.1 6.5 13.1 4.6 15.3-1.1 1.1-3.4 4.5-5.2 7.3-2.7 4.5-3.6 5.3-6.1 5.3-6 0-8.8 6.3-4.9 11.2 1.8 2.3 1.8 2.9.5 7.6-.7 2.8-1.6 7.3-2 9.9l-.7 4.8-13.5 4.3c-7.4 2.4-13.1 4.7-12.7 5.2.5.4 6.6 2.6 13.6 4.9l12.7 4.2.7 3.7c.3 2 1.2 6.1 1.9 9.1 1.2 4.6 1.2 5.7-.1 7.5-.7 1.1-1.4 2.7-1.4 3.6 0 .8-1.9 2.4-4.2 3.4-7 3.2-11.6 8.2-13.4 14.2-1.4 4.9-1.4 5.9 0 10.7.9 3 2.5 6.2 3.6 7.2 3 2.7 7.5.5 9.9-5 2.2-5 5.7-7.7 13.3-10 4.7-1.5 6-1.6 7.2-.5.9.7 1.6 1.9 1.6 2.8 0 .8-2.9 7-6.5 13.7-3.6 6.8-6.5 12.6-6.5 12.9 0 .3 5.8-2.3 13-5.9 7.1-3.6 13.4-6.5 13.9-6.5s3.9 1.9 7.5 4.2c5.4 3.4 6.6 4.6 6.6 6.8 0 1.5.8 3.4 1.8 4.3 2.3 2.1 8.5 2.2 10.2.2.8-.9 2-1.3 2.9-.9.9.3 5.4 1.4 10.1 2.4l8.4 1.7 4.5 13.6c2.5 7.6 4.8 13.7 5.1 13.7.3 0 2.6-6.1 5-13.6 2.5-7.5 5-13.8 5.5-13.9.6-.2 4.8-1.2 9.4-2.2 7.7-1.8 8.7-1.9 11.1-.5 3.8 2.2 8.9.1 9.7-4 .4-2.2 2.3-4 7.9-7.8l7.4-5 14 7 14 7-7-14-7-14 4.6-7c2.7-4.2 5.2-7 6.2-7 5 0 8-5.8 5.6-10.6-1.2-2.2-1.1-3.9.4-11.8l1.8-9.1 13.7-4.5c7.5-2.5 13.9-4.8 14.2-5.2.4-.4-3.9-2.1-9.6-3.9-5.7-1.7-10.8-3.5-11.2-3.9-.4-.4 2-1.9 5.5-3.5 7.1-3.1 12.3-6.7 13.8-9.4 1.3-2.6-1.1-11.2-6.1-21.7-3.3-7.1-5.8-10.3-14.6-19.5-9.6-9.9-10.9-10.9-13.4-10.4-2.7.6-2.8.5-2-2.3.5-1.6 1.4-3.9 2-5.1 1.3-2.3.9-2.6-1.9-1.1-1.5.8-2.3.3-4.6-2.8-3.7-4.9-7.3-7.9-14.7-12.4-5.7-3.5-6.2-3.6-8.9-2.2-1.5.8-4.2 2.7-6 4.3-4.5 3.9-11.1 4.7-20.3 2.6-3.8-.9-9.2-1.5-11.9-1.3l-4.9.3-3.6-10.7c-2-5.9-3.8-10.9-4.1-11.2-.3-.2-2.2 4.9-4.3 11.5zm65.5 13.5c6.2 4.2 13.4 12.6 12.3 14.4-.2.4-4.1 0-8.7-.7-10.5-1.8-20.9-1-25.5 1.8-1.9 1.2-3.6 1.9-3.9 1.7-1.9-1.9 14.3-21.8 17.8-21.8.7 0 4.3 2.1 8 4.6zm-35.5 3c3.8.9 8.4 1.3 10.6 1 2-.4 3.7-.2 3.7.2 0 .5-3.5 3.6-7.7 6.9-19.9 15.4-26.2 26.3-25 43.5.3 4.3.2 8-.3 8.3-2 1.3-7.3-8.6-9.5-17.7-1.5-6.5-2-26.7-.9-35.1l.7-4.6 6.1-1.9c7.7-2.5 13.6-2.6 22.3-.6zm35.4 19.4c6.2 6.3 10.9 14.3 10.9 18.3 0 1.3.9 3.2 2.1 4.3 8.3 7.5 5.7 15.4-7.2 21.8-8.7 4.4-11.3 4.7-7.9 1.1 3-3.2 2.1-4.2-1.3-1.5-1.7 1.3-2.6 2.9-2.4 4.3.2 2.1-.2 2.2-6 2.1-7.1-.1-10.4-1.8-20.7-10.3-7.2-6-7.5-6.8-5.5-16 1.3-6.3 4-9.8 9.3-12.1 3.6-1.6 3.8-1.9 1.5-1.9-4-.1-9 3.8-10.6 8.4-2.5 7.4-2.3 7.1-3.3 5.5-.6-.8-1-3.8-1-6.5 0-6.4 3.3-13.2 7.9-16.3 3.6-2.3 16.8-6.8 17.7-6 .2.3-.9 3.1-2.6 6.4-1.8 3.4-2.9 6.7-2.6 7.8.3 1.1-.2 2.8-1 3.7-2.5 2.8-2.1 11.7.8 18 2.4 5.1 7.4 11.6 8.3 10.7.2-.2-.3-2.8-1.1-5.7-1.6-5.2-1.3-13.5.5-14.6.5-.2 1.6 1.6 2.6 4.1.9 2.5 3.4 6.3 5.5 8.5 5.4 5.7 8.4 5.2 12.7-2.1 1.9-3 3.3-6.7 3.3-8.5-.1-2.7-.5-2.3-3.5 3.7-3.4 6.5-5.7 8.8-8.9 8.8-1.5 0-1.5-.3-.1-3.6 1.9-4.6 1.9-11.4 0-14-3-4-.6-4.5 6.4-1.4 5.6 2.6 3.9.1-2.7-3.7-3.5-2.1-6.2-2.7-12.3-3.1-8.4-.5-9.1-1-6.8-5.5 1.7-3.3 9.1-10.7 10.7-10.7.8 0 4.1 2.7 7.3 6zm11.4-2.1c5.4 2.5 8.4 6 10.6 12.3 1 2.9 1.8 4.4 1.8 3.3 0-1.1-.8-4.5-1.9-7.5-1-3-1.7-5.7-1.4-5.9.6-.6 12.7 11.2 17.4 17.1 3.7 4.6 9.6 17.1 11 23.5 1 4.1-1 6-11 10.6-4.1 1.9-10.1 5.5-13.3 8.1-6.7 5.2-15.4 8.5-18.7 7-2-.9-1.8-1.2 2.9-4.3 6-3.8 9-7.5 12.8-15.6 2.5-5.4 2.8-7.2 2.9-18 .2-9.7.1-10.8-.6-6-1 7.9-2.8 12.5-4 10.5-.6-.8-1-2.5-1-3.8 0-1.3-1.3-3.6-2.8-5.2-1.6-1.5-3.4-4.7-4.1-7.1-1.9-6.3-4.7-11.4-8.7-15.9-2.4-2.6-3.1-4-2.2-4.3 2.6-1.1 6.4-.6 10.3 1.2zm-54.5 10.5c-.5 1.5-.8 7.1-.6 12.4.6 14.7 5.4 27 14.7 37.5l4.1 4.7h-3.2c-4 0-8.1-2.1-15.2-7.9-6.9-5.5-8.8-9.6-8.8-18.6 0-7.3 4.2-26.7 6.6-30.3 2.1-3.2 3.9-1.5 2.4 2.2zm35.9 4.8c2.8 1 2.2 1.9-2.2 3.4s-6.8 5.3-7.6 12.1l-.7 5.8-1.7-3.3c-2.4-4.5-3.2-12.1-1.7-16.6l1.2-3.6 5.1.6c2.9.4 6.3 1.1 7.6 1.6zm26.9 29.2c.5 4.2-.4 6.8-3.8 11.1-3.8 4.7-7.5 7.1-16 10.1-12 4.3-20 2.3-27.7-7-3.5-4.3-8.6-14.2-8.1-15.8.2-.5 2.7 1.2 5.5 4 6.4 6.2 12.4 8.7 19.5 7.9 5.6-.7 16.5-5.5 23.8-10.6 5.2-3.6 6.4-3.5 6.8.3zm-71.7 7.8c.1.7.2 5.1.3 9.7.2 7.8-.1 9-3 14.5-1.8 3.4-6.6 10.4-10.6 15.6-6.7 8.7-7.9 9.8-14.8 13.2-9.5 4.6-17.5 6.4-37.3 8.4-16.7 1.6-29.6 4.8-34.7 8.4-1.7 1.2-4.2 4.1-5.6 6.6-1.4 2.4-3 4.4-3.5 4.4-1.9 0-3.1-7.5-1.9-11.9 1.4-5.2 4.4-8.2 11.9-11.8 5.1-2.4 7-2.7 22.6-3.4 14.3-.5 18.4-1.1 26-3.4 20.1-6 29.2-14.2 39.9-35.6 3.7-7.3 7.1-13.9 7.7-14.6 1.4-1.6 2.9-1.7 3-.1zm6.9 5.9c1.7 3 7.4 6.8 13.6 9.1 4.7 1.7 9.2 2.2 22.1 2.7 8.9.3 16.5 1 16.9 1.4 1.6 1.5-2.2 6.2-7.3 9.3-7 4.1-13.9 6.1-25.3 7.3l-9.5.9-3.8-4.1c-6.1-6.6-8.7-11.9-10.1-20.6-.7-4.4-1.1-8.3-.9-8.5.9-.8 3.3.6 4.3 2.5zm-26.2 50.5c.8 2.7 2.7 5.5 5.2 7.8 5.1 4.6 9 4.8 13.1.7 3.8-3.8 3.9-8.3.3-11.6-3-2.7-1.2-3.6 2.2-1.1 1.5 1.1 1.9 2.6 1.9 6.9 0 7-2.6 10.1-9.5 11.6-7.3 1.6-11.5 0-18.2-7.1-3.2-3.2-5.8-6.5-5.8-7.1.1-1.4 8.2-5.7 9.1-4.8.3.3 1.1 2.5 1.7 4.7z"/></svg>