<svg xmlns="http://www.w3.org/2000/svg" width="354" height="349" version="1.0" viewBox="0 0 266 261"><path d="M165 110a19 19 0 0 0-15 30c3 4 6 6 10 8l9 1h1a19 19 0 0 0 17-21 19 19 0 0 0-17-17l-4-1h-1zm-18-68c-10 0-19 9-19 19-1 9 5 18 14 21 8 2 17-2 22-8 7-7 6-21-2-27a23 23 0 0 0-15-5zm14 16c-12 1-20 11-23 22-2 6-3 14 1 20l3 6c2 9 11 15 18 20 7 4 15 6 24 6 5 0 10-2 15-5a54 54 0 0 0 24-15 27 27 0 0 0 3-31c-4-8-12-15-22-14-5 0-10 2-13 5l-9-4-10-8a21 21 0 0 0-11-2zm14 5c3 1-1-1 0 0zM129 0c-8 1-15 7-17 15l-3 8h-6a26 26 0 0 0-30 14c-8-4-15-9-24-8a20 20 0 0 0-16 23c1 6 5 12 7 18a24 24 0 0 0-16 26l2 8c0 2-2 3-4 3-7 3-15 5-19 11-6 9-3 23 6 29 5 3 11 4 16 6a39 39 0 0 0-18 40c2 10 7 20 18 24a22 22 0 0 0 8 1c4 9 16 13 25 10l15-7c5 12 20 17 32 13 3-1 4 2 5 4 2 7 4 16 11 20a20 20 0 0 0 28-7l7-17c4-1 7 1 11 1a26 26 0 0 0 22-15l17 8a20 20 0 0 0 25-12c3-7 0-15-3-21a505 505 0 0 0-4-8 26 26 0 0 0 13-31c-1-3 2-3 4-4 8-3 17-5 21-12 4-6 4-15 0-21 6-8 4-19 1-28a85 85 0 0 0-20-32l-12-13c-1-7-6-13-13-15a78 78 0 0 0-24-17c-9-4-19 0-27 6-1 2-4 0-6 0l-8-1c-2-7-6-15-13-17a25 25 0 0 0-11-2zm25 48c-1-2-1-2 0 0zm-7 13a40 40 0 0 1 8 1c1 4 4 7 6 11 5 9 18 11 27 6h10c3 3 8 4 12 5 4 4 8 9 10 15l-18 11c-4 2-9 2-12 5-4 2-6 7-8 11-5 3-10 4-16 4-3-4-3-9-5-13 2-5 1-10-1-15-1-6-5-12-11-15-3-7-2-15-2-23v-3zm65 3c0 1 1-5 0 0zM25 160c0-1 0-1 0 0z" style="fill:#fff;stroke-width:.0535447"/><path d="M128 27a46 46 0 0 1-5 12l-11 3h-11c-5-3-12 0-12 5 0 2-2 3-7 7l-7 4-12-6-13-6 6 13c6 13 6 13 4 15a63 63 0 0 0-5 7c-3 5-4 6-6 6-6 0-9 6-5 11 2 2 2 3 0 7l-2 10v5l-14 4a43 43 0 0 0-13 6l14 5 13 4v3l3 10c1 4 1 5-1 7a9 9 0 0 0-1 4l-4 3c-7 3-12 8-14 14v11l4 7c3 3 7 1 10-5 2-5 5-8 13-10h7a4 4 0 0 1 2 2l-7 14-6 13 13-6 14-6 7 4c6 3 7 4 7 7l2 4c2 2 8 2 10 0l3-1 10 3 8 1 5 14 5 14 5-14a74 74 0 0 1 6-14l9-2c8-2 9-2 11 0 4 2 9 0 10-4 0-3 2-4 8-8l7-5 14 7 14 7-7-14-7-14 5-7c2-5 5-7 6-7 5 0 8-6 5-11-1-2-1-4 1-12l2-9 13-4 15-6-10-3a80 80 0 0 1-11-4c-1-1 2-2 5-4 7-3 13-7 14-9 1-3-1-11-6-22a62 62 0 0 0-15-19c-9-10-10-11-13-11-3 1-3 1-2-2l2-5c1-3 1-3-2-1-1 0-2 0-5-3a46 46 0 0 0-14-13c-6-3-6-3-9-2a38 38 0 0 0-6 5c-5 4-11 4-20 2a49 49 0 0 0-12-1h-5l-4-11a216 216 0 0 0-4-11 52 52 0 0 0-4 12zm65 13c6 4 14 13 12 15l-8-1c-11-2-21-1-26 2-2 1-3 2-4 1s15-21 18-21l8 4zm-35 3c3 1 8 2 10 1h4l-8 8c-20 15-26 26-25 43v8c-2 2-7-8-10-17-1-7-2-27 0-35v-5l6-2a38 38 0 0 1 23-1zm35 20c6 6 11 14 11 18l2 4c8 8 6 16-7 22-9 4-11 5-8 1 3-3 2-4-1-1l-3 4c0 2 0 2-6 2-7 0-10-2-20-10-8-6-8-7-6-16 1-7 4-10 9-12 4-2 4-2 2-2-4 0-9 4-11 8-2 8-2 7-3 6l-1-7c0-6 3-13 8-16a56 56 0 0 1 18-6l-3 6-3 8c1 1 0 3-1 4-2 3-2 11 1 18 3 5 8 11 9 10l-1-5c-2-5-2-14 0-15l3 4 5 9c5 5 8 5 13-2l3-9c0-2 0-2-3 4-4 6-6 9-9 9-2 0-2-1 0-4V81c-3-4-1-4 6-1 6 2 4 0-3-4-3-2-6-3-12-3-8-1-9-1-7-6 2-3 9-10 11-10 1 0 4 2 7 6zm11-2c6 2 9 6 11 12l2 3a32 32 0 0 0-2-7l-1-6a107 107 0 0 1 17 17 79 79 0 0 1 11 24c1 4-1 6-11 10a76 76 0 0 0-13 8c-7 5-16 9-19 7-2-1-2-1 3-4 6-4 9-8 13-16 2-5 2-7 3-18 0-9 0-11-1-6-1 8-3 13-4 11l-1-4c0-1-1-4-3-5a18 18 0 0 1-4-7 41 41 0 0 0-9-16c-2-3-3-4-2-5 3 0 7 0 10 2zm-54 10-1 12a58 58 0 0 0 15 38l4 5h-3c-4 0-8-2-15-8s-9-10-9-19c0-7 4-27 7-30 2-3 4-2 2 2zm36 5c3 1 2 2-2 3s-7 6-8 12l-1 6-1-3a25 25 0 0 1-2-17l1-3h5a46 46 0 0 1 8 2zm27 29c0 4-1 7-4 11-4 5-7 7-16 10-12 4-20 2-28-7a44 44 0 0 1-8-16l6 4c6 7 12 9 19 8a68 68 0 0 0 24-10c5-4 6-4 7 0zm-72 8v9c1 8 0 10-3 15l-10 16c-7 8-8 9-15 13-9 4-17 6-37 8-17 2-30 5-35 9a23 23 0 0 0-6 6l-3 5c-2 0-3-8-2-12 1-6 4-9 12-12 5-3 7-3 23-4a84 84 0 0 0 26-3c20-6 29-14 40-36l7-14c2-2 3-2 3 0zm7 6c2 3 7 6 14 9 4 1 9 2 22 2l17 2c1 1-3 6-8 9a58 58 0 0 1-25 8l-9 1-4-5a35 35 0 0 1-10-20l-1-9c1-1 3 1 4 3zm-26 50 5 8c5 5 9 5 13 1s4-9 0-12c-3-3-1-4 3-1 1 1 2 3 2 7 0 7-3 10-10 12-7 1-11 0-18-7a30 30 0 0 1-6-8c0-1 8-5 9-4l2 4z"/></svg>