<svg xmlns="http://www.w3.org/2000/svg" width="437" height="444" version="1.0" viewBox="0 0 328 333"><path d="M128 165a15 15 0 0 0-9 20c3 7 6 13 11 18a16 16 0 0 0 21 1c7-5 8-15 3-22-4-6-8-11-13-15-4-3-9-3-13-2zm126 7c-6 3-11 8-16 12a15 15 0 0 0-2 22c5 5 12 9 19 6 8-2 11-10 15-16 5-6 4-17-4-21-3-3-7-3-12-2zm-137-35c-10 1-17 11-14 21a36 36 0 0 0 10 13 15 15 0 0 0 20-3c5-5 4-13 1-18-2-7-7-13-14-13h-3zm72-89c-19 0-38 7-54 18-7 5-12 14-16 22l-2 7c-4 5-6 12-7 19-2 9 3 18 6 26 3 7 7 13 12 20a96 96 0 0 0 29 48 86 86 0 0 0 22 8c4 1 9 1 13-2 6 6 15 4 22 3 7 0 13-4 18-8a127 127 0 0 0 40-57 94 94 0 0 0 1-55c-3-10-10-18-17-25a101 101 0 0 0-53-23 96 96 0 0 0-14-1Zm-44 142a15 15 0 0 0-9 21c1 2 3 4 2 6a15 15 0 0 0 13 16c1 1 4 0 3 2-1 6 1 13 6 16 8 8 17 15 22 24 4 6 8 11 15 12 8 1 16-6 17-14a81 81 0 0 1 15-24c3-4 4-9 2-14 7-5 16-10 21-17s3-17-4-21c-5-4-12-3-18 0a76 76 0 0 1-62 0c-7-2-12-8-20-7h-3zm157-63c-7 1-12 8-13 15a21 21 0 0 0-12 13c-4 10-11 19-16 28-4 8-9 16-16 22a124 124 0 0 1-23 18c-6 5-8 15-2 22 4 5 11 6 17 5 19-1 38-6 55-15 10-5 21-10 31-18 6-6 6-16 1-22-1-18-2-36-5-53 0-8-7-15-15-15h-2zM262 0a18 18 0 0 0-9 7l-36 1-23 7a16 16 0 0 0-6 22c3 3 4 8 8 11 5 4 12 5 17 9 10 7 18 16 29 23a88 88 0 0 1 29 52c2 8 2 16 8 21a15 15 0 0 0 23-4c3-6 2-13 3-19 2-18 2-36 0-54a157 157 0 0 0-16-52c-4-7-8-15-14-20a15 15 0 0 0-13-4ZM146 17a114 114 0 0 0-47 12c-6 2-11 5-17 5-9 1-15 11-13 20 1 5 5 9 4 15 0 10-1 21 1 31 1 6 5 11 10 13 3 12 6 24 12 35a15 15 0 0 0 22 4c5-4 6-10 6-16 0-9-1-17 2-25 5-18 15-35 30-44a90 90 0 0 1 35-12c8-1 15-9 14-17 0-7-7-13-14-14a164 164 0 0 0-44-7zM80 99c-7 1-11 7-12 13-7 21-8 42-11 63 0 4-2 7-4 9a15 15 0 0 0 3 22 253 253 0 0 0 58 26c6 2 12 1 16-3 6 1 11 2 16-1a15 15 0 0 0 4-22c-8-10-16-21-20-33-5-12-16-20-21-31s-8-22-11-34a15 15 0 0 0-18-10zm48 115c-8 2-12 9-16 15-3 5-9 6-13 8l-25 9a15 15 0 0 0-14-17c-9-1-15 6-20 12-7 6-9 16-9 24a77 77 0 0 0-26 32 60 60 0 0 0-5 22c0 8 8 15 16 14 7-1 11-6 14-11a62 62 0 0 1 29-23 281 281 0 0 1 45-15 47 47 0 0 0 29 3c7-2 15-6 16-14 2-4 1-8-1-12 8-6 16-13 20-23 3-8-3-17-11-19l-26-5h-3z" style="fill:red;stroke-width:.458209"/><path d="M354-4a29 29 0 0 0-20 9l-46 1c-12 4-26 6-36 14-3 2-4 7-8 4-32-7-66-8-97 4-14 5-28 11-42 13-13 4-21 19-17 32 2 8 6 15 5 23v38c-10 13-11 30-14 45l-9 59c-4 6-9 14-8 23 0 10 9 18 18 22 18 10 37 18 57 25-11 5-23 9-34 12-2-14-19-25-33-19a58 58 0 0 0-33 48c-1 5-7 7-10 11a97 97 0 0 0-29 47c-3 11-4 25 5 34 10 11 30 8 38-4a87 87 0 0 1 31-30c21-11 43-17 66-23 16 5 34 7 49 0 11-5 19-15 17-27 1-3-3-7 0-9 4-2 7-6 10-6 10 10 21 20 29 32 6 10 18 16 29 12 10-3 16-12 18-21a99 99 0 0 1 17-27c24 0 49-4 71-15 18-8 37-16 53-29a27 27 0 0 0 6-34l-4-47c-1-11-1-24-6-34a28 28 0 0 0-15-13c1-35 3-71-10-104-8-20-16-42-30-58a23 23 0 0 0-18-8zm0 32a193 193 0 0 1 29 132c-8-31-26-59-52-77-18-15-35-32-58-39-5-1-7-2-1-3 12-3 23-8 34-7 13-1 27 1 39-2l9-5v1zM196 48c13 0 27 1 40 4a112 112 0 0 0-74 50 128 128 0 0 0-21 88 144 144 0 0 1-19-66V81l-5-12c22-4 40-18 62-20l17-1zm69 16a70 70 0 0 1 32 18l10 10c-31-15-68-17-100-3l-6 3a124 124 0 0 1 61-28h3zm-8 33c21 0 42 9 60 20 12 8 15 23 14 36 0 11-4 22-9 31a75 75 0 0 0-18-55 95 95 0 0 0-61-31l14-1zm-31 20h10c-21 14-40 32-48 56a67 67 0 0 1-12-39c0-5 7-5 10-7a84 84 0 0 1 40-10zm41 8a48 48 0 0 1 18 23l2 8c-7-7-16-14-26-14-7 0-15 5-20 7a50 50 0 0 1 26-24zm82 6a186 186 0 0 1 22 81c-1 6-8 10-11 15a165 165 0 0 1-59 42l-7 2c30-21 53-54 59-91 2-17 1-34-5-50zm-130 28c-2 13-4 27 5 38 6 8 14 15 22 20a83 83 0 0 1-42-20c-4-4 1-9 2-13a151 151 0 0 1 14-26v1zm-57 4a138 138 0 0 0 20 41c6 12 9 25 16 36 6 10 13 19 21 26a103 103 0 0 1-58-103h1zm-51 3c6 23 17 45 33 63 8 12 12 26 20 38l21 27c-32-10-64-20-92-37 8-12 8-28 10-42 2-16 4-33 8-49zm191 4v27c-3 4-4 10-8 14a58 58 0 0 1-36-11 69 69 0 0 0 36-11c5-5 7-13 8-19zm99 15c5 26 4 53 7 79a21 21 0 0 0 3 9 250 250 0 0 1-67 32l-20 4c18-14 34-32 45-52 9-17 21-31 26-50l5-24 1 3zm-84 33a179 179 0 0 1-60 54 129 129 0 0 1-41-44c13 9 28 17 44 16 22 1 42-11 57-26zm-128 53a119 119 0 0 0 68 24c22 3 45-2 66-13-16 16-33 31-47 49-5 7-9 15-12 23-13-20-32-34-48-51a256 256 0 0 1-28-33h1zm-13 39 22 5c-11 14-28 21-42 30-6 4 0 12 5 14 4 1 1 1-2 1-9-1-16-8-26-5-27 7-55 15-79 29a103 103 0 0 0-24 19c7-16 21-26 34-36 3-6 1-14 3-20 0-3 2-7 3-8 0 6-2 16 6 19 7 1 14-3 22-5 20-7 40-12 59-22 8-5 13-14 19-21z" style="fill:#fff;stroke-width:.864007" transform="scale(.75)"/><path d="M264 17c-3 4-7 5-26 5h-17l-17 5-18 5 8 2a77 77 0 0 1 39 20l13 11c21 14 36 39 41 68a52 52 0 0 0 2 9l3-33c1-10-1-31-3-42a167 167 0 0 0-20-48c-3-5-4-5-5-2zM136 33c-9 1-19 4-30 9-9 4-20 7-22 6-1-1-1 2 2 9 2 6 3 7 2 18a150 150 0 0 0 4 43c3 11 11 28 17 37 5 5 5 5 2-5a98 98 0 0 1-2-33c4-21 15-43 29-56a87 87 0 0 1 43-19c11-2 11-2 6-4-15-5-38-7-51-5z"/><path d="M189 46a96 96 0 0 0-46 25l-11 13-2 3 3-2c33-26 65-29 103-10l4 2c0-2-10-14-16-20a58 58 0 0 0-24-13 44 44 0 0 0-11 2z"/><path d="M185 70a56 56 0 0 0-18 5c-2 2-1 2 7 2 25 0 49 13 59 33a59 59 0 0 1 2 44c0 1 9-12 11-18a51 51 0 0 0 3-40c-2-7-7-11-20-17a78 78 0 0 0-44-9z"/><path d="m246 74 4 6a80 80 0 0 1 3 81 115 115 0 0 1-44 46l-5 3h4c10 0 27-7 41-17 9-5 27-22 31-28 2-4 3-5 2-11-3-27-11-50-23-66-4-6-13-15-13-14zm-85 11a79 79 0 0 0-25 8l-8 4v8l3 14c3 7 11 20 12 18l1-6c5-16 18-30 41-44 1-1 2-1 1-2h-25zm33 8a43 43 0 0 0-20 29 23 23 0 0 0 5-4 33 33 0 0 1 18-8c4 0 15 6 18 12l4 4c1 0 0-15-3-20-2-5-13-16-16-16l-6 3zm-74 14c-3 6-4 31-1 42a83 83 0 0 0 61 60l-5-4a96 96 0 0 1-31-44 35 35 0 0 0-6-13 99 99 0 0 1-16-36l-2-5z"/><path d="M166 111c-8 10-18 29-18 35 0 5 14 14 26 18 8 3 24 5 24 3l-7-4c-5-2-8-5-14-10-10-10-11-13-10-24l2-15 1-7-4 4zm-85 7-7 45c-2 16-4 23-7 28l-3 3 5 2a304 304 0 0 0 64 26l16 5-7-9a118 118 0 0 1-26-40 48 48 0 0 0-7-11 107 107 0 0 1-23-45l-2-11z"/><path d="M224 119c0 6-3 17-5 20a51 51 0 0 1-21 7 25 25 0 0 1-12-1l-6-2 3 3c10 10 24 16 35 15h6l3-7c4-6 4-7 4-17 0-9-1-12-3-16-3-8-4-9-4-2zm74 10c-2 21-7 36-16 48l-7 12-8 14a130 130 0 0 1-29 28l-8 5h6c8 0 22-3 32-6a244 244 0 0 0 41-21l4-3-2-3c-2-3-2-5-3-23a271 271 0 0 0-9-64l-1 13z"/><path d="M248 147a114 114 0 0 1-24 24 44 44 0 0 1-31 9 33 33 0 0 1-18-5 93 93 0 0 1-15-9 29 29 0 0 0-7-5c0 1 7 16 12 21 5 8 17 19 23 23l5 3 5-3a138 138 0 0 0 49-50 45 45 0 0 0 5-13 19 19 0 0 0-4 5z"/><path d="M128 187c5 14 26 39 49 60a74 74 0 0 1 17 19c5 8 5 8 5 5 1-4 5-13 10-20s10-13 30-31c13-12 25-26 25-29l-6 5a90 90 0 0 1-127-7l-5-6zm-2 48c-7 10-11 12-41 22l-27 9c-4 0-3-14 0-20 3-4 1-4-4 0a23 23 0 0 0-8 19v8l-5 3a59 59 0 0 0-26 40c-1 4-1 4 4-4 12-17 29-27 65-38 21-6 22-6 26-3 6 3 19 3 25-1 1-1 1-1-3-1-5 0-12-4-13-6v-2l8-4a80 80 0 0 0 24-18 18 18 0 0 0 3-5l-24-5-4 6z"/></svg>