<svg xmlns="http://www.w3.org/2000/svg" width="418.467" height="417.093" version="1.0" viewBox="0 0 313.85 312.819"><path d="M143.085 249.317c-9.254.02-18.509-.039-27.76.032-5.882.18-11.404 4.207-13.376 9.75-2.127 5.488-.571 12.14 3.763 16.12 2.264 2.24 5.301 3.41 8.343 4.151 8.967 2.434 18.234 3.816 27.529 3.915 5.283.006 10.575-.168 15.81-.932 6.259-.878 12.52-2.052 18.491-4.166 4.925-1.998 8.574-6.765 9.17-12.05.756-5.68-2.098-11.638-7.02-14.58-2.788-1.784-6.157-2.396-9.428-2.24h-25.522zM237.33 129.14c-6.111.413-11.698 4.91-13.281 10.845-1.02 3.6-.452 7.39-.6 11.079.024 14.827-.049 29.657.037 44.483.157 6.563 5.175 12.603 11.597 13.961 6.263 1.563 13.294-1.528 16.39-7.19 1.827-3.322 2.293-7.167 3.11-10.82 2.283-12.076 2.838-24.505 1.21-36.702-.755-5.565-1.66-11.171-3.522-16.484-2.312-5.74-8.46-9.595-14.635-9.178l-.158.003zM141.45 56.082c-8.179-.005-16.469.182-24.385 2.47-4.724.956-9.242 3.739-11.378 8.18-3.384 6.183-1.476 14.578 4.197 18.745 3.357 2.731 7.81 3.311 12.003 3.155 15.512.218 31.032.272 46.543.2 7.122-.143 13.53-6.08 14.216-13.17.967-6.82-3.497-13.88-10.06-15.964a86.655 86.655 0 0 0-17.34-3.327c-4.592-.268-9.197-.292-13.796-.289zM56.303 76.25c-7.526 3.662-11.85 11.36-16.988 17.649-12.417 17.747-21.322 38.472-23.504 60.133-.384 17.049-1.497 34.586 3.978 51.031 6.232 20.604 17.208 40.146 32.773 55.107 7.477 7.126 21.426 2.955 23.81-7.088 1.701-7.946.373-16.323.827-24.438-.074-46.436.74-92.915-.802-139.322-.543-9.806-10.914-16.375-20.094-13.072zm81.42 21.054c-16.323-.41-31.593 7.767-43.6 18.245-15.25 13.727-24.506 34.156-23.508 54.786-.617 17.304 6.378 34.264 17.974 46.963 13.97 15.963 35.117 26.388 56.595 24.596 33.515.082 64.586-27.11 69.474-60.158 1.315-16.367.756-33.949-8.396-48.208-11.832-18.594-31.064-34.479-53.844-35.807-4.885-.426-9.795-.47-14.695-.417zm5.48 53.01h18.878v37.756h-37.756v-37.756h18.878zM193.244.736c-9.013 2.866-13.31 14.654-7.783 22.454 6.72 9.055 15.397 16.541 22.972 24.894 25.543 26.155 50.536 52.872 76.787 78.32 6.137 6.748 17.922 6.67 23.457-.8 5.054-7.11 2.982-16.357 3.851-24.527.71-28.377 1.562-56.8 1.26-85.165-.344-8.715-8.973-14.575-17.244-14.149C263.69.568 230.796.215 197.919 0l-4.675.736zm-55.592 25.623c-22.394-.524-44.36 6.81-63.874 17.36-31.326 17.553-56.169 46.84-67.249 81.111-4.81 13.62-6.542 28.053-6.422 42.444-1.488 36.673 12.672 73.688 38.533 99.773 23.835 26.309 58.028 42.825 93.364 45.604 18.411.65 37.132-.396 54.68-6.46 38.117-11.983 69.94-41.174 86.933-77.118 18.14-39.397 17.037-87.029-3.235-125.42-21.06-41.202-63.065-71.227-109.153-76.589-7.834-.755-15.715-.708-23.577-.705Zm6.705 44.52c8.218-.253 16.404.836 24.302 3.104-16.95-.034-33.899-.067-50.848-.102 8.607-3 17.545-3.145 26.546-3.003zm-3.505 40.92c11.143-.154 22.764 1.329 32.128 7.861 14.694 9.705 26.651 25.26 27.441 43.407 1.404 11.918-.563 24.218-6.641 34.664-12.978 24.047-44.411 36.469-70.086 26.497-10.345-3.187-18.765-10.289-25.632-18.446-10.047-10.494-13.66-25.414-12.895-39.607.628-21.515 14.838-41.543 34.472-50.08 6.559-3.4 13.888-4.53 21.213-4.297zm97.552 31.718c4.656 17.01 4.433 35.264-.098 52.275v-52.62zm-190.64 1.255c.115 17.187.198 34.374.237 51.561-4.347-12.518-2.937-25.894-2.933-38.883.169-4.754 1.465-9.37 2.685-13.94l.005.634zm95.439 119.522h27.28c-17.743 5.447-37.028 5.4-54.776 0h27.496z" style="fill:#fff;stroke-width:.11194"/><path d="M206.489 24.975c5.4 5.6 28 29 50.3 52l40.5 41.6.7-19.2c.4-10.6.8-33.6 1-51l.3-31.7-7-.5c-3.8-.3-26.9-.8-51.3-1l-44.3-.5zM124.289 41.675c-40.4 5.9-77 32.1-95.7 68.5-10.1 19.6-14.1 36.3-14.1 58.9-.1 36.5 12.9 67.3 39.3 92.9 44.7 43.4 112.8 48.6 164 12.5 16.5-11.6 34-32.7 42.4-51 22.8-50.1 11.7-108.5-27.8-146.7-24.7-23.9-56.1-36.4-90.1-36.1-6.6.1-14.7.5-18 1zm35.8 15.4c10.6 1.6 24.5 5.8 32.9 10.1 6.9 3.4 20.1 12.4 25.8 17.4l4.5 4h-159.8l1.9-2.2c4.3-4.8 18.6-14.4 28.9-19.4 21.2-10.2 42.5-13.4 65.8-9.9zm-17 192.5 80.2.1-5.4 5c-21.6 20.1-55.3 31.2-85.6 27.9-51.1-5.4-91.4-42.4-101-92.5-2-10.4-2-30.7 0-41.1 3.9-20.5 13.2-39.6 26.6-54.8l4.4-5 .3 80.2.2 80.2zm94.2-143.4c19.7 29.1 24.7 66 13.4 99.6-4.4 13.3-13.3 28.6-22.2 38.3l-4.6 5-.1-80v-80l4 4.5c2.2 2.5 6.5 8.2 9.5 12.6zm-115.3-10c-14.6 4.3-24.2 10.3-35 21.9-7.7 8.3-15.1 21.3-17.4 31-.6 2.7-1.6 5.4-2 5.9-.4.6-.8-12.7-.8-29.5s.3-30.9.7-31.2c.3-.4 14.6-.7 31.7-.6h31.1zm96.7 29.1v31.8l-1.9-7.3c-6.7-25.6-28.6-47.5-54.4-54.2l-7.1-1.9h31.8l31.7-.1zm-53.4-25.4c11.4 3.8 19.8 9 29 18.2 14.2 14.2 20.4 28.4 21.3 48.6.4 9.5.1 13-1.7 19.9-12.4 49.2-68.5 71.4-110.8 43.9-7.5-4.9-18.6-16.4-23.1-24.1-14.9-25.2-12.9-57.4 5.2-81.5 9.7-12.9 25.9-23.2 42-26.9 9.9-2.2 28.3-1.3 38.1 1.9zm-95.9 89.3c4.2 16.3 15.1 32.1 28.9 41.9 8 5.7 13.3 8.3 23.5 11.6l8.5 2.8-31.5-.2-31.5-.2-.3-31.4c-.1-17.3 0-31.2.3-30.9.3.3 1.2 3.2 2.1 6.4zm149.4 24.9v31.5l-31.7-.1c-22.8-.1-30.8-.4-28.3-1.1 19.3-5.4 31.3-12.8 43.1-26.6 5.8-6.7 13.2-21.3 15.1-29.5.7-3.1 1.4-5.7 1.5-5.7.2 0 .3 14.2.3 31.5z"/><path d="M109.789 169.075v33.5h67v-67h-67z"/></svg>