<svg xmlns="http://www.w3.org/2000/svg" width="385" height="381" version="1.0" viewBox="0 0 289 286"><path d="M171 76a19 19 0 0 0-15 19c1 2-2 1-3 2-3 3-7 1-10 2h-41c-9 1-15 9-21 15a24 24 0 0 0-7 18l-1 49c1 9 8 16 14 22 5 4 11 9 18 8h51c8-1 14-7 19-12 5-6 11-12 10-20l1-46c1-2 1-5 4-4 7 1 15-2 19-9s2-15 3-23c1-9-4-17-12-20-7-3-14-1-21-2a48 48 0 0 0-8 1zm-4 65c-1 0-1 0 0 0zM142 0c-9 0-16 7-18 16l-4 10c-3 0-6 2-9 0a26 26 0 0 0-31 15c-8-3-14-8-22-9a20 20 0 0 0-22 17c-1 9 4 16 8 24 1 2 2 4-1 4a26 26 0 0 0-16 32c1 2 3 4 1 6 1 3-3 3-5 4-7 3-15 4-20 11a22 22 0 0 0 0 23c4 7 13 9 21 12 2 0 5 0 5 3 1 3-2 5-2 8a26 26 0 0 0 17 28c2 2-1 4-2 6-3 7-9 15-7 24a20 20 0 0 0 23 16c8-2 14-6 22-10a27 27 0 0 0 32 16h7c3 7 4 15 8 21 7 10 23 11 31 2 6-5 7-13 10-20 0-3 2-4 5-4 5 1 10 2 14 0a26 26 0 0 0 19-14c1-2 4 1 6 1 7 3 14 8 22 8a20 20 0 0 0 19-21c-1-7-5-14-8-20 0-2-4-5-1-6 10-5 17-17 14-29v-7c1-2 4-2 6-3 8-2 17-5 22-12a20 20 0 0 0-10-29l-18-6v-8a26 26 0 0 0-10-29 28 28 0 0 0-6-3c3-7 8-13 9-21a20 20 0 0 0-17-22c-9-1-16 5-24 8-2 2-4 0-4-2a26 26 0 0 0-33-14h-6c-3-8-5-18-13-23-3-2-8-3-12-3Zm51 94v17a20 20 0 0 0-23 14c-3 8 2 15 3 23s2 17-2 25a45 45 0 0 1-38 27 48 48 0 0 1-30-8 44 44 0 0 1-15-19 44 44 0 0 1 5-46 43 43 0 0 1 35-17c7 0 14 1 20 3 9 4 20 0 24-8 2-4 3-7 3-11h18zm35 48c2 4-2-3 0 0z" style="fill:#fff;stroke-width:.428358"/><path d="m139 29-4 14h-3a82 82 0 0 0-13 2c-8 2-9 2-10 0-4-4-12-1-13 5 0 3-1 4-7 8l-8 5-14-7-14-7 7 15 7 14-3 3-6 9-4 4c-2-1-6 1-8 3-2 3-2 7 1 10 2 3 2 3 0 8l-2 11-1 5-14 5a148 148 0 0 0-15 5l15 6 15 5v4a80 80 0 0 0 2 11c2 5 2 6 0 8-2 3-2 8 1 10a9 9 0 0 0 5 2c2 0 4 3 8 9l5 8-7 14a281 281 0 0 0-7 15l15-7 14-7 4 2 7 5c3 2 4 3 4 6 1 5 9 9 13 5 1-1 2-1 12 1l11 2 7 15 5 16 5-16c5-14 6-15 8-16 18-3 19-4 20-3l5 2c3 0 4-1 6-3a10 10 0 0 0 2-4c0-2 2-3 5-5a144 144 0 0 0 8-5l3-3 15 8 15 8-7-16-7-15 4-8c4-6 6-8 8-8 3 1 7-4 7-7a10 10 0 0 0-2-5v-9l3-10v-4l16-5 15-5-15-6-16-5v-5a382 382 0 0 0-3-10c-1-6-1-6 1-10 3-6 0-11-6-12l-4-2-5-8-4-5 7-14 7-14-14 7-14 7-5-4a95 95 0 0 0-9-6l-3-4a8 8 0 0 0-13-6c-2 1-3 1-12-1l-11-2a54 54 0 0 1-5-13 99 99 0 0 0-5-13l-5 13zm73 84v37l-14-14a111 111 0 0 0-13-12c7 15 8 23 7 36 0 16-7 29-19 41a65 65 0 0 1-73 11 48 48 0 0 1-15-11 51 51 0 0 1-12-17 59 59 0 0 1-7-31 61 61 0 0 1 19-44 60 60 0 0 1 44-18 65 65 0 0 1 28 6l5 3-12-12-12-12h74z"/><path d="M118 106c-8 2-23 9-23 11a565 565 0 0 0 66-1 70 70 0 0 0-16-8c-5-2-23-3-27-2zm-30 21a59 59 0 0 0-7 38 51 51 0 0 0 9 23l2 2v-26a627 627 0 0 1 0-42l-4 5zm79-2a616 616 0 0 0 0 34c0 33 0 33 6 20 8-15 8-37 0-51-4-7-5-7-6-3zm-66 71c17 11 46 11 60 0l3-3H95Z"/></svg>