<svg xmlns="http://www.w3.org/2000/svg" width="384.72" height="380.665" version="1.0" viewBox="0 0 288.54 285.499"><path d="M171.291 75.8c-8.725 1.785-15.29 10.205-14.92 19.099.216 1.65-2.544 1.328-3.284 2.384-2.674 2.446-6.776 1.022-9.882 1.472-13.694.231-27.659-.072-41.46.578-8.948.971-15.108 8.3-21.034 14.31-4.573 4.879-7.753 11.288-7.18 18.113-.012 16.54-.488 33.101-.208 49.63.819 8.772 7.613 15.34 13.549 21.234 4.947 4.848 11.28 8.996 18.508 8.378 16.779-.116 33.581.233 50.345-.176 8.098-.655 14.027-7.018 19.565-12.325 4.91-5.338 10.296-11.388 10.019-19.13.143-15.554-.254-31.216.396-46.706 1.405-1.29 1.575-4.591 4.206-3.684 7.34.624 15.121-2.337 19.045-8.805 4.475-7.05 2.457-15.683 2.91-23.55.738-8.25-3.897-16.85-11.805-19.81-6.717-2.502-14.069-.995-21.08-1.408a47.72 47.72 0 0 0-7.69.397zm-4.085 65.035c-.96-.1-.855-.132 0 0zM142.204.035c-8.805.34-16.17 7.25-18.417 15.554-1.107 3.271-2.108 6.577-3.15 9.869-3.16.307-6.358 2.238-9.38.529-12.41-3.837-26.865 3.24-31.485 15.371-7.195-3.251-14.044-7.815-21.943-9.112C47.704 30.92 37.47 38.631 36.245 48.82c-1.403 8.861 4.188 16.564 7.578 24.276.897 1.406 2.285 3.827-.344 4.124-12.46 4.216-20.231 18.89-16.063 31.493.575 2.163 2.269 4.087 1.033 6.358.27 3.027-2.921 2.968-5.048 3.865-7.124 2.606-15.751 3.95-20.01 10.987-4.151 6.77-4.722 16.158-.42 22.993 4.397 7.401 13.43 8.778 20.845 11.582 2.08.874 5.181.814 4.923 3.789.963 2.657-1.42 5.135-1.312 7.875-1.84 11.564 5.41 23.46 16.236 27.654 2.012 1.94-.72 3.913-1.345 6.087-3.322 7.53-8.869 15.08-7.314 23.749 1.437 10.586 12.657 18.23 23.045 15.968 7.637-1.852 14.422-6.136 21.51-9.402 4.794 12.6 20.037 20.082 32.835 15.447 2.103-1.084 4.856.097 6.797.701 2.756 6.973 3.843 14.727 8.081 21.026 7.045 9.85 23.058 10.977 31.257 1.988 5.343-5.568 6.29-13.736 9.107-20.544.104-3.191 2.756-3.513 5.355-3.873 4.697.669 9.674 1.508 14.462.42 8.036-1.414 14.626-7.412 18.143-14.578 1.835-2.017 3.97.707 5.967 1.242 7.317 3.097 14.37 8.14 22.626 7.907 10.66-.133 19.82-10.26 18.708-20.892-.674-7.4-5.089-13.751-7.969-20.437-.176-1.678-3.747-4.52-1.183-5.256 10.685-5.074 17.699-17.62 14.698-29.356-.562-2.31-1.752-4.486-.592-6.831.859-2.055 4.34-1.722 6.231-2.837 7.917-2.694 17.28-4.805 21.698-12.713 6.222-9.885 1.432-24.462-9.457-28.695-5.921-2.27-12.001-4.118-17.996-6.19-.557-2.556-1.607-5.118-.193-7.583 3.4-10.507-.486-23.072-9.967-29.054a27.746 27.746 0 0 0-6.033-3.01c3.166-6.915 7.636-13.449 9.017-21.028 1.437-10.185-6.476-20.407-16.692-21.571-8.91-1.332-16.633 4.31-24.386 7.722-1.625 1.668-3.846-.391-4.38-2.06-5.069-11.962-19.858-18.797-32.126-14.054-1.976 1.276-4.184-.013-6.285-.223-3.116-8.072-4.688-17.958-12.748-22.787C150.906.725 146.5-.198 142.204.035Zm51.01 94.021v16.465c-10.15-2.377-21.446 4.499-23.452 14.842-2.178 7.86 2.753 15.023 3.874 22.564.061 8.258.89 16.924-2.863 24.6-6.52 14.783-21.134 26.238-37.525 27.15-10.546.658-21.656-1.63-30.407-7.733-6.427-4.77-11.63-11.13-14.657-18.567-7.121-14.67-5.399-33.526 5.2-46.122 8.353-10.527 21.329-18.24 35.107-17.262 6.706-.177 13.372.873 19.609 3.37 8.836 3.269 19.735-.152 24.347-8.558 1.799-3.26 2.792-7.016 2.5-10.749h18.267zm34.614 47.514c1.934 4.01-1.504-2.664 0 0z" style="fill:#fff;stroke-width:.428358"/><path d="m138.912 28.987-4.2 13.5h-3.1c-1.8 0-7.2.9-12.1 2.1-8.2 1.9-9.1 2-10.7.5-4.2-3.8-12-.7-12.4 4.9-.2 2.5-1.4 3.8-7.6 7.9l-7.4 4.9-14.4-7.1c-7.8-4-14.3-7-14.3-6.7 0 .3 3.2 6.8 7 14.6l7.1 14-2.9 3.7c-1.6 2-4.1 5.9-5.7 8.5-2.1 3.7-3.1 4.6-4.6 4.2-2-.7-5.8 1-7.6 3.4-1.9 2.4-1.5 6.5.8 9.5 2.1 2.6 2.1 2.9.6 8.4-.9 3.1-1.9 8-2.3 10.9l-.6 5.2-14.2 4.7c-7.7 2.5-14.4 4.9-14.8 5.3-.4.4 5.9 2.9 14.1 5.6l14.9 4.9.7 4.5c.3 2.5 1.3 7.2 2.2 10.3 1.4 5.1 1.4 5.8-.1 7.9-2.5 3.6-2.1 8.4 1 10.8 1.5 1.2 3.6 2.1 4.8 2.1 1.6 0 3.5 2.1 7.5 8.2l5.3 8.3-7.1 14.2c-3.9 7.9-7.1 14.5-7.1 14.8 0 .3 6.7-2.8 14.8-6.9l14.8-7.4 3.2 2.4c1.7 1.3 5 3.5 7.3 4.8 3.4 2 4.2 3 4.4 5.7.5 5.9 8.3 9.2 12.6 5.3 1.6-1.4 2.6-1.4 12.1.7 5.6 1.2 10.8 2.3 11.5 2.5.7.2 3.4 7.1 6 15.4 2.6 8.2 5 15 5.3 15 .3 0 2.8-6.8 5.6-15.2 4.8-14.4 5.2-15.2 8-15.9 17.6-3.9 18.6-4.1 19.7-3 .6.6 2.8 1.1 4.8 1.1 2.9 0 4.3-.6 5.8-2.6 1.2-1.5 2.1-3.5 2.1-4.4 0-1.1 1.9-2.9 4.8-4.6 2.6-1.5 6.1-3.8 7.9-5.1l3.1-2.4 15.1 7.5c8.3 4.2 15.3 7.6 15.6 7.6.3 0-3-6.9-7.2-15.4l-7.6-15.3 4.8-7.7c3.8-6 5.4-7.6 7.2-7.6 3.3 0 7.3-4.3 7.3-7.7 0-1.6-.7-3.9-1.6-5.1-1.4-2.1-1.5-2.9 0-8.5.8-3.4 1.9-8 2.3-10.1l.8-4 15.3-5c8.3-2.8 15.2-5.3 15.2-5.6 0-.3-6.9-2.8-15.2-5.6l-15.3-5-.7-4.5c-.5-2.4-1.5-7.1-2.3-10.4-1.5-5.6-1.4-6.2.3-9.7 3.3-6.3.6-11.8-5.9-12.3-1.9-.1-3.6-1-4.2-2.1-.5-1.1-2.7-4.5-4.9-7.7l-3.8-5.7 6.7-13.3c3.8-7.2 7-13.5 7.2-14 .1-.4-6.1 2.4-13.8 6.3l-14.1 7-5.3-3.8c-2.8-2.2-6.7-4.8-8.4-5.8-1.8-1-3.3-2.6-3.3-3.6 0-7.1-7.7-10.7-13.1-6.2-1.3 1.2-3.1 1-11.5-.7-5.4-1.2-10.4-2.3-11.1-2.5-.6-.1-3.1-6.1-5.4-13.3-2.4-7.2-4.6-13.1-4.9-13.1-.3 0-2.5 6.1-4.8 13.5zm72.8 83.7-.1 37.3-13.6-14c-7.5-7.7-13.4-13.3-13.1-12.5 6.8 15.9 8.3 23.1 7.5 36.4-.8 15.6-7.1 29-19.1 40.7-19.2 18.9-47.1 23.1-73.7 11.1-4.9-2.2-8.8-5.1-14.7-10.9-6.6-6.6-8.7-9.5-12.5-17.4-5.4-11.2-7.1-18.3-7-30.4 0-16.4 7.2-32.5 19.7-44.2 13.1-12.2 26.4-17.6 43.6-17.6 10.4 0 19.2 1.9 28 5.9l5.5 2.5-12-12.1-12-12h73.5z"/><path d="M117.712 106.087c-7.4 1.4-23 8.8-23 10.9 0 .3 15.4.5 34.3.5 31.1-.1 34-.2 32.2-1.6-3.1-2.4-11.3-6.4-16.4-8-4.6-1.5-22.4-2.7-27.1-1.8zM88.012 126.687c-6.6 11.1-9.3 24.9-7.5 37.9 1.2 8.5 5 18.2 9 22.9l2.1 2.5.1-26c0-14.3.3-29.7.7-34.3.3-4.9.2-8.2-.3-8.2-.6 0-2.4 2.4-4.1 5.2zM167.312 125.187c-.3 2.1-.6 17.3-.6 33.8.1 33.3-.2 32.5 6.1 20.3 7.7-15.2 7.8-37 .2-51-3.8-7-4.9-7.6-5.7-3.1zM100.712 196.087c17.4 11.1 46.7 10.8 60-.5l3.5-3h-69Z"/></svg>