<?xml version="1.0" encoding="UTF-8" standalone="no"?>
<svg
   xmlns:dc="http://purl.org/dc/elements/1.1/"
   xmlns:cc="http://creativecommons.org/ns#"
   xmlns:rdf="http://www.w3.org/1999/02/22-rdf-syntax-ns#"
   xmlns:svg="http://www.w3.org/2000/svg"
   xmlns="http://www.w3.org/2000/svg"
   xmlns:sodipodi="http://sodipodi.sourceforge.net/DTD/sodipodi-0.dtd"
   xmlns:inkscape="http://www.inkscape.org/namespaces/inkscape"
   version="1.0"
   width="288.53976pt"
   height="285.49899pt"
   viewBox="0 0 288.53976 285.49899"
   preserveAspectRatio="xMidYMid meet"
   id="svg5919"
   sodipodi:docname="tremereantitribu.svg"
   inkscape:version="1.0.1 (3bc2e813f5, 2020-09-07)">
  <defs
     id="defs5923" />
  <sodipodi:namedview
     pagecolor="#ffffff"
     bordercolor="#666666"
     borderopacity="1"
     objecttolerance="10"
     gridtolerance="10"
     guidetolerance="10"
     inkscape:pageopacity="0"
     inkscape:pageshadow="2"
     inkscape:window-width="1600"
     inkscape:window-height="837"
     id="namedview5921"
     showgrid="false"
     fit-margin-top="0"
     fit-margin-left="0"
     fit-margin-right="0"
     fit-margin-bottom="0"
     inkscape:zoom="1.2380528"
     inkscape:cx="125.25012"
     inkscape:cy="198.2198"
     inkscape:window-x="-8"
     inkscape:window-y="-8"
     inkscape:window-maximized="1"
     inkscape:current-layer="svg5919" />
  <metadata
     id="metadata5905">
Created by potrace 1.16, written by Peter Selinger 2001-2019
<rdf:RDF>
  <cc:Work
     rdf:about="">
    <dc:format>image/svg+xml</dc:format>
    <dc:type
       rdf:resource="http://purl.org/dc/dcmitype/StillImage" />
    <dc:title></dc:title>
  </cc:Work>
</rdf:RDF>
</metadata>
  <path
     id="path6488"
     style="fill:#ffffff;stroke-width:0.428358"
     d="m 171.29126,75.800888 c -8.72525,1.78365 -15.29087,10.204035 -14.92055,19.097903 0.21597,1.649985 -2.54341,1.328392 -3.28384,2.38443 -2.67377,2.445637 -6.77551,1.0221 -9.88235,1.471642 -13.69332,0.231353 -27.65855,-0.07185 -41.45874,0.577658 -8.948442,0.971889 -15.109025,8.301289 -21.034505,14.310419 -4.57314,4.87864 -7.753249,11.28794 -7.179993,18.113 -0.01187,16.54056 -0.488219,33.10142 -0.207996,49.62916 0.818679,8.77241 7.612359,15.34 13.548512,21.23486 4.947585,4.84777 11.280675,8.99617 18.508352,8.37814 16.77862,-0.11626 33.58126,0.23316 50.34475,-0.17627 8.09822,-0.65531 14.02674,-7.01812 19.56465,-12.32476 4.91067,-5.33843 10.29669,-11.38762 10.01921,-19.12971 0.14361,-15.55455 -0.25408,-31.21588 0.39608,-46.70611 1.40481,-1.28931 1.57515,-4.59122 4.20661,-3.68475 7.33936,0.6248 15.12087,-2.33684 19.04418,-8.80428 4.47527,-7.05034 2.45782,-15.68277 2.91009,-23.550784 0.7387,-8.249903 -3.89702,-16.848623 -11.80448,-19.809705 -6.71742,-2.50197 -14.06917,-0.99429 -21.08045,-1.407413 -2.57891,-0.07462 -5.1317,0.05692 -7.68953,0.39657 z m -4.0853,65.034312 c -0.96005,-0.0998 -0.85501,-0.13178 0,0 z M 142.2039,0.03502816 C 133.39872,0.37527739 126.03351,7.284141 123.787,15.588949 c -1.10659,3.27127 -2.10837,6.576709 -3.14993,9.868972 -3.16067,0.306741 -6.35784,2.237967 -9.37955,0.528754 C 98.84791,22.149515 84.392185,29.227154 79.771518,41.358209 72.577394,38.10666 65.727557,33.542631 57.829041,32.246394 47.703718,30.919754 37.47016,38.631249 36.245104,48.820286 c -1.403429,8.861096 4.187556,16.563877 7.577997,24.275772 0.896913,1.40553 2.284786,3.82743 -0.344061,4.123763 -12.460744,4.216657 -20.231259,18.88977 -16.062596,31.492699 0.574412,2.16338 2.26835,4.08779 1.03226,6.35815 0.270467,3.02713 -2.920665,2.96805 -5.047806,3.86522 -7.124171,2.60583 -15.7511854,3.95005 -20.0106751,10.98695 -4.15044747,6.77005 -4.7216169,16.15776 -0.4188812,22.99318 4.3969431,7.40139 13.4287773,8.77822 20.8443843,11.58219 2.081109,0.8735 5.181351,0.81397 4.923441,3.78873 0.962479,2.65661 -1.420498,5.13496 -1.311674,7.87473 -1.839738,11.56463 5.40932,23.4612 16.235607,27.6539 2.011767,1.94006 -0.719161,3.91305 -1.344686,6.08793 -3.322431,7.52906 -8.868955,15.07876 -7.314049,23.74842 1.436398,10.58621 12.656171,18.22957 23.044157,15.96822 7.637505,-1.85201 14.422083,-6.13616 21.511331,-9.40249 4.79292,12.60016 20.03583,20.08232 32.834297,15.44737 2.10334,-1.08439 4.85573,0.097 6.7972,0.7014 2.75529,6.97238 3.84276,14.72647 8.08108,21.02553 7.04472,9.85039 23.05788,10.97718 31.25645,1.9882 5.34347,-5.56826 6.29013,-13.73607 9.10719,-20.54424 0.10376,-3.19107 2.75543,-3.51331 5.35524,-3.87336 4.69704,0.66909 9.67319,1.50889 14.4621,0.41999 8.03537,-1.41342 14.62592,-7.41185 18.14248,-14.57757 1.83523,-2.01677 3.97036,0.70734 5.96717,1.24233 7.31733,3.09687 14.3695,8.13906 22.62574,7.9063 10.65984,-0.13216 19.81979,-10.25988 18.70856,-20.8912 -0.67465,-7.39969 -5.08932,-13.75145 -7.96888,-20.43736 -0.17648,-1.67806 -3.74739,-4.52034 -1.18349,-5.2559 10.68468,-5.0744 17.69863,-17.61932 14.69793,-29.35625 -0.56197,-2.30968 -1.75193,-4.4861 -0.59222,-6.83084 0.85922,-2.05535 4.34095,-1.72222 6.23174,-2.83711 7.91613,-2.69417 17.2791,-4.80485 21.69771,-12.71286 6.22229,-9.88483 1.43205,-24.46171 -9.45684,-28.69529 -5.92158,-2.26901 -12.00134,-4.11809 -17.99585,-6.18921 -0.55739,-2.55694 -1.60705,-5.11893 -0.19297,-7.58312 3.39954,-10.507254 -0.48602,-23.072724 -9.96799,-29.054057 -1.87632,-1.248195 -3.91154,-2.25231 -6.03299,-3.010222 3.16631,-6.914894 7.63641,-13.449053 9.01728,-21.028035 1.43724,-10.18558 -6.4754,-20.407583 -16.69227,-21.571636 -8.90957,-1.331557 -16.63271,4.31063 -24.38517,7.722234 -1.62573,1.667833 -3.84627,-0.390893 -4.38091,-2.059822 -5.06813,-11.961465 -19.85764,-18.796534 -32.12553,-14.054097 -1.97571,1.276501 -4.18363,-0.01295 -6.28482,-0.222546 C 164.16625,17.814395 162.59415,7.9280415 154.53383,3.0994479 150.90601,0.72489821 146.50074,-0.19838166 142.2039,0.03502816 Z M 193.2145,94.056308 c 0,5.488335 0,10.976682 0,16.465022 -10.15052,-2.37724 -21.44642,4.49824 -23.45244,14.84212 -2.178,7.85879 2.75264,15.0226 3.87345,22.56309 0.0616,8.25849 0.88984,16.92479 -2.86297,24.59964 -6.51928,14.78412 -21.13374,26.2386 -37.52415,27.15162 -10.54664,0.65675 -21.65628,-1.6305 -30.40764,-7.7335 -6.42683,-4.7697 -11.630285,-11.13039 -14.656475,-18.56722 -7.121722,-14.6707 -5.399167,-33.52649 5.199338,-46.12217 8.353047,-10.52715 21.328907,-18.24077 35.106957,-17.26234 6.70647,-0.17641 13.37267,0.87317 19.60911,3.37082 8.83584,3.26829 19.73519,-0.15279 24.34781,-8.5588 1.79843,-3.25949 2.79161,-7.015359 2.49904,-10.748282 6.08932,0 12.17865,0 18.26797,0 z m 34.61335,47.513462 c 1.93375,4.00934 -1.50342,-2.66333 0,0 z" />
  <g
     transform="matrix(0.1,0,0,-0.1,-1.2878672,286.48703)"
     fill="#000000"
     stroke="none"
     id="g5917">
    <path
       d="m 1402,2575 -42,-135 h -31 c -18,0 -72,-9 -121,-21 -82,-19 -91,-20 -107,-5 -42,38 -120,7 -124,-49 -2,-25 -14,-38 -76,-79 l -74,-49 -144,71 c -78,40 -143,70 -143,67 0,-3 32,-68 70,-146 l 71,-140 -29,-37 c -16,-20 -41,-59 -57,-85 -21,-37 -31,-46 -46,-42 -20,7 -58,-10 -76,-34 -19,-24 -15,-65 8,-95 21,-26 21,-29 6,-84 -9,-31 -19,-80 -23,-109 l -6,-52 -142,-47 c -77,-25 -144,-49 -148,-53 -4,-4 59,-29 141,-56 l 149,-49 7,-45 c 3,-25 13,-72 22,-103 14,-51 14,-58 -1,-79 -25,-36 -21,-84 10,-108 15,-12 36,-21 48,-21 16,0 35,-21 75,-82 l 53,-83 -71,-142 c -39,-79 -71,-145 -71,-148 0,-3 67,28 148,69 l 148,74 32,-24 c 17,-13 50,-35 73,-48 34,-20 42,-30 44,-57 5,-59 83,-92 126,-53 16,14 26,14 121,-7 56,-12 108,-23 115,-25 7,-2 34,-71 60,-154 26,-82 50,-150 53,-150 3,0 28,68 56,152 48,144 52,152 80,159 176,39 186,41 197,30 6,-6 28,-11 48,-11 29,0 43,6 58,26 12,15 21,35 21,44 0,11 19,29 48,46 26,15 61,38 79,51 l 31,24 151,-75 c 83,-42 153,-76 156,-76 3,0 -30,69 -72,154 l -76,153 48,77 c 38,60 54,76 72,76 33,0 73,43 73,77 0,16 -7,39 -16,51 -14,21 -15,29 0,85 8,34 19,80 23,101 l 8,40 153,50 c 83,28 152,53 152,56 0,3 -69,28 -152,56 l -153,50 -7,45 c -5,24 -15,71 -23,104 -15,56 -14,62 3,97 33,63 6,118 -59,123 -19,1 -36,10 -42,21 -5,11 -27,45 -49,77 l -38,57 67,133 c 38,72 70,135 72,140 1,4 -61,-24 -138,-63 l -141,-70 -53,38 c -28,22 -67,48 -84,58 -18,10 -33,26 -33,36 0,71 -77,107 -131,62 -13,-12 -31,-10 -115,7 -54,12 -104,23 -111,25 -6,1 -31,61 -54,133 -24,72 -46,131 -49,131 -3,0 -25,-61 -48,-135 z m 728,-837 -1,-373 -136,140 c -75,77 -134,133 -131,125 68,-159 83,-231 75,-364 -8,-156 -71,-290 -191,-407 -192,-189 -471,-231 -737,-111 -49,22 -88,51 -147,109 -66,66 -87,95 -125,174 -54,112 -71,183 -70,304 0,164 72,325 197,442 131,122 264,176 436,176 104,0 192,-19 280,-59 l 55,-25 -120,121 -120,120 h 368 367 z"
       id="path5907" />
    <path
       d="m 1190,1804 c -74,-14 -230,-88 -230,-109 0,-3 154,-5 343,-5 311,1 340,2 322,16 -31,24 -113,64 -164,80 -46,15 -224,27 -271,18 z"
       id="path5909" />
    <path
       d="m 893,1598 c -66,-111 -93,-249 -75,-379 12,-85 50,-182 90,-229 l 21,-25 1,260 c 0,143 3,297 7,343 3,49 2,82 -3,82 -6,0 -24,-24 -41,-52 z"
       id="path5911" />
    <path
       d="m 1686,1613 c -3,-21 -6,-173 -6,-338 1,-333 -2,-325 61,-203 77,152 78,370 2,510 -38,70 -49,76 -57,31 z"
       id="path5913" />
    <path
       d="m 1020,904 c 174,-111 467,-108 600,5 l 35,30 H 1310 965 Z"
       id="path5915" />
  </g>
</svg>
