<svg xmlns="http://www.w3.org/2000/svg" width="419" height="417" version="1.0" viewBox="0 0 314 313"><path d="M143 249h-28a15 15 0 0 0-9 26c2 3 5 4 8 4a110 110 0 0 0 62-1c5-2 9-7 9-12a15 15 0 0 0-16-17h-26zm94-120a15 15 0 0 0-13 11l-1 11v45a15 15 0 0 0 28 6l4-10a116 116 0 0 0-3-54 15 15 0 0 0-14-9h-1zm-95-73a87 87 0 0 0-25 3c-5 1-9 3-11 8a15 15 0 0 0 4 19c3 2 8 3 12 3h46a15 15 0 0 0 5-29 87 87 0 0 0-18-4h-14zM56 76c-7 4-11 12-17 18a129 129 0 0 0-23 60c-1 17-2 35 4 51a128 128 0 0 0 33 55c7 7 21 3 23-7 2-8 1-16 1-24 0-47 1-93-1-140a15 15 0 0 0-20-13zm82 21a66 66 0 0 0-44 19 70 70 0 0 0-23 54 67 67 0 0 0 18 47c14 16 35 27 56 25a73 73 0 0 0 70-60c1-17 0-34-9-49-12-18-31-34-54-35l-14-1zm5 53h19v38h-38v-38h19zM193 1c-9 3-13 14-8 22 7 9 16 17 24 25 25 26 50 53 76 78 6 7 18 7 24 0 5-7 3-17 3-25l2-85c-1-9-9-15-18-14l-98-2-5 1zm-55 25c-23 0-45 7-64 18a146 146 0 0 0-68 81 124 124 0 0 0-6 42 136 136 0 0 0 39 100 142 142 0 0 0 148 39 147 147 0 0 0 87-77A144 144 0 0 0 161 27l-23-1Zm6 45c9 0 17 1 25 3h-51c8-3 17-3 26-3zm-3 41a54 54 0 0 1 32 8c15 9 27 25 27 43a56 56 0 0 1-6 35 58 58 0 0 1-70 26 56 56 0 0 1-26-18 53 53 0 0 1-13-40 58 58 0 0 1 35-50 43 43 0 0 1 21-4zm97 31c5 17 5 36 0 53v-53zm-190 2v51c-4-12-3-26-3-39l3-14v1zm95 119h27a94 94 0 0 1-54 0h27z" style="fill:#fff;stroke-width:.11194"/><path d="m207 25 50 52 40 42 1-20 1-51V17l-7-1-51-1h-44zm-83 17c-40 6-77 32-95 68a118 118 0 0 0-14 59 124 124 0 0 0 39 93 128 128 0 0 0 164 13c16-12 34-33 42-51A129 129 0 0 0 142 41l-18 1zm36 15c11 2 25 6 33 10a162 162 0 0 1 26 18l4 4H64l1-3c5-4 19-14 29-19a109 109 0 0 1 66-10zm-17 193h80l-5 5a113 113 0 0 1-86 28 114 114 0 0 1-101-93c-2-10-2-31 0-41a116 116 0 0 1 27-55l4-5v80l1 81zm94-144a113 113 0 0 1-9 138l-4 5V89l4 5a163 163 0 0 1 9 12zM122 96a71 71 0 0 0-35 22 79 79 0 0 0-17 31l-2 6c-1 1-1-13-1-30V94h63zm97 29v32l-2-7a78 78 0 0 0-55-54l-7-2h64zm-54-25a69 69 0 0 1 29 18 67 67 0 0 1 22 49c0 9 0 13-2 20a73 73 0 0 1-111 44 91 91 0 0 1-23-25 74 74 0 0 1 47-108 91 91 0 0 1 38 2zm-96 89a77 77 0 0 0 53 54l8 3-31-1H67v-31a456 456 0 0 1 0-31l2 6zm150 25v32l-32-1c-23 0-31 0-28-1a79 79 0 0 0 43-26 89 89 0 0 0 17-35v31z"/><path d="M110 169v34h67v-67h-67z"/></svg>