<svg xmlns="http://www.w3.org/2000/svg" width="490.638" height="491.346" version="1.0" viewBox="0 0 367.978 368.509"><path d="M196.07 160.358c-7.563 1.351-12.998 8.76-12.36 16.356-.234 2.613.488 5.687-.346 8.05-7.43 5.11-12.54 15.247-8.287 23.954 3.559 8.416 14.384 11.546 22.366 7.697 16.022-6.36 25.405-25.674 19.992-42.14-1.737-7.701-8.608-13.95-16.648-14.019-1.564-.139-3.148.095-4.716.102zm-17.676-9.158c-13.772 1.15-24.983 13.298-27.538 26.496-1.069 9.506-.587 21.156 7.966 27.264 7.973 5.541 21.257 3.515 25.113-6.043 2.144-4.423.996-9.492 1.48-14.15 5.173-5.476 11.352-12.119 9.63-20.332-1.207-7.844-8.808-13.647-16.651-13.235zm5.226-121.008c-39.214-.506-78.07 15.542-106.052 42.909-25.82 24.914-43.527 58.815-46.925 94.709-1.347 19.155-.963 38.7 4.457 57.26 7.826 29.035 24.843 55.216 47.356 75.038 22.616 20.607 51.816 33.741 82.143 37.472 13.176.957 26.467 1.035 39.642.05 36.75-4.679 71.154-23.777 95.47-51.6 19.478-21.445 32.31-48.724 37.01-77.265 1.865-15.206 1.717-30.659.236-45.892-4.497-33.695-21.055-65.434-45.526-88.954-13.514-13.683-29.818-24.456-47.61-31.724-19.016-8.008-39.499-12.615-60.201-12.003Zm6.947 132.494c2.817 1.171 6.294 1.504 8.829 2.776 3.428 6.327 8.585 12.533 7.528 20.237-.468 10.392-8.884 19.565-19.135 21.102-2.918 1.358-5.61.791-8.465-.515-3.01-1.081-6.239-1.913-9.206-2.82-4.287-6.784-9.967-14.372-7.523-22.91 1.505-7.824 6.812-15.29 14.884-17.198 2.676-.723 5.452-1.98 8.05-2.338l5.038 1.666zM182.702.004c-18.085.137-36.374 1.543-53.636 7.31C68.203 25.687 19.075 77.915 4.04 139.634.304 153.504-.097 167.922.031 182.198c-.172 18.08.203 36.463 5.67 53.869 5.871 19.02 14.777 37.096 25.699 53.712 11.321 16.293 25.779 30.195 41.067 42.731 14.437 11.066 30.957 19.119 47.71 26.026 15.57 6.116 32.15 9.812 48.925 9.768 15.802.212 31.71.67 47.428-1.237 35.093-6.092 68.083-22.973 93.924-47.439 25.787-24.044 44.918-55.33 53.43-89.627 2.335-7.913 3.693-16.06 3.615-24.324.306-16.707 1.012-33.476-.225-50.155-3.014-20.77-10.325-40.823-20.155-59.311-9.865-17.887-22.406-34.317-37.538-48.078-18.01-17.103-39.858-30.032-63.103-38.637-20.41-7.186-42.229-9.602-63.776-9.492Zm2.468 38.51c42.39.222 84.2 19.988 111.074 52.812 19.663 23.669 32.044 53.731 33.23 84.583.392 13.43.215 27-3.152 40.095-6.09 27.358-19.986 53.126-40.516 72.343-27.35 28.138-67.081 43.122-106.14 41.714-31.04-.756-61.796-11.96-86.05-31.343-14.026-11.79-27.103-25.264-35.592-41.67-8.151-14.247-14.673-29.576-17.37-45.846-8.32-43.22 4.532-89.866 33.77-122.754 27.531-31.504 68.801-50.511 110.746-49.935Z" style="fill:#fff;stroke-width:.507463"/><path d="M162.488 15.524c-12.8.9-30.2 5.3-44.4 11.3-51.6 21.8-89.9 68.2-101.2 122.5-1.8 9.1-2.1 13.8-2.2 35 0 27.2 1.2 35.7 7.2 54.1 4.2 12.7 14.7 33.4 22.8 44.9 8.5 12.1 28 31.5 40.3 40.3 11.5 8.2 34.1 19.5 47 23.6 18.5 5.8 25.1 6.6 52.5 6.6 22.4 0 26.1-.3 35.3-2.3 33.1-7.4 60.7-22.6 84.7-46.6 24.3-24.3 39.5-52.1 46.7-85 2-9 2.2-12.9 2.2-35.6 0-20.8-.3-27.1-1.8-34-9.6-45-36.7-84.6-74.6-109.2-33.7-21.9-65.3-29-114.5-25.6zm36 8.8c42.7 4.1 81.7 24.6 108.9 57.2 46.9 56.3 49.9 135.9 7.4 196.3-8.2 11.7-25.8 29.2-37.8 37.7-56.7 40.2-133 39.2-189-2.3-11.4-8.5-26-23.4-34.3-34.9-7.6-10.8-18.4-31.7-22.2-43.3-22.6-68.5 3.1-143.5 63-183.8 30.6-20.7 68-30.4 104-26.9z"/><path d="M163.488 28.423c-44.1 5.9-84.7 31.1-109.9 68.2-6.1 9.1-15.7 28.8-19.1 39.1-5.6 17.5-6.9 26.5-6.9 48.6 0 17.5.3 22 2.3 31 13.4 62.5 60.3 109.8 121.9 123.1 15.2 3.2 42.1 3.7 57.8 1.1 64.9-11.1 114-58.2 128.6-123.4 2-9.1 2.3-12.9 2.3-31.8-.1-18.4-.4-23-2.3-31.7-13.5-62.2-60.7-109.2-122.7-122.3-11.5-2.4-40.4-3.5-52-1.9zm45.7 18.5c19.2 3.6 39.4 12.1 55.2 23.1 4.4 3.1 12.8 10.4 18.6 16.2 20 20.1 32 42.3 38.2 70.9 2.8 13 3.1 39.5.5 52.5-5.8 28.9-18.4 52.5-39.1 73.3-20.8 20.7-44.3 33.3-73.3 39.1-13 2.6-39.5 2.3-52.5-.5-29-6.3-50.9-18.2-71.3-38.7-21-21-34-45.8-39.2-74.8-2.2-12.5-2.2-35.2.1-47.7 10-55.4 53.2-100.5 107.6-112.4 17.4-3.8 38.4-4.2 55.2-1z"/><path d="M177.088 70.324c-3.9 10.5-7.1 19.3-7.1 19.6 0 .4 1.1-.1 2.5-1s3.6-2.3 5-3.2l2.5-1.6v63l-6.8 2.1c-11.6 3.5-18.9 10.4-23.2 21.8-4.7 12.5-3.4 23.5 4.1 34.7 2.1 3.2 3.9 6 3.9 6.2 0 .2-6.8 10.8-15.1 23.6-8.3 12.7-15.3 23.8-15.6 24.5-.9 2.3-2 1.4-3.7-3.2-1-2.5-2.1-4.7-2.5-5-1-.5-9.7 38.3-8.8 39.1.8.8 32.7-22.7 32.1-23.7-.2-.4-2.5-.7-5.2-.6-2.6 0-4.7-.3-4.6-.7 0-.5 7-11.6 15.5-24.7 11-17.1 15.8-23.8 16.9-23.5.8.3 3.9 1.3 6.8 2.3l5.2 1.7v62.7l-4.4-3c-2.4-1.7-4.6-2.8-4.8-2.5-.6.5 13.4 38.4 14.2 38.4.7 0 15-38.3 14.5-38.8-.2-.2-2.4 1-4.8 2.7-2.4 1.6-4.6 2.9-4.8 2.6-.2-.2-.3-14.3-.1-31.3l.3-31 3.7-.7c11-2 22.2-11.5 26.2-22.3 4.9-12.7 3.5-24.9-4-35.6-3-4.3-3.9-6.4-3.3-7.6 1.5-3.2 30.8-48 31.3-48 .3 0 1.4 2.2 2.5 5 1.1 2.7 2.2 5 2.5 5 .6 0 9.3-40 8.8-40.5-.2-.2-7.7 5.1-16.8 11.8l-16.5 12.2 5.8.3c3.1.2 5.7.5 5.7.7 0 .6-30.1 46.9-31.4 48.2-.8.9-2.6.7-7.6-1l-6.5-2.3-.3-31.2c-.1-17.2 0-31.2.3-31.2s2.3 1.2 4.5 2.6c2.2 1.5 4.3 2.4 4.6 2.1.7-.7-12.8-37.7-13.7-37.7-.4 0-3.9 8.6-7.8 19zm3.7 96.8c.2.7-1.7 3.2-4.2 5.5-5.4 5-7 8.7-6.1 14.5.7 4.5 0 8.2-1.5 8.2-1.8 0-4-6-4-10.7.1-8 3.7-14.2 10.5-17.7 3.3-1.7 4.6-1.7 5.3.2zm11.7-.8c.7 1.2-1.2 4-2.6 4-.5 0-.9-1.1-.9-2.5 0-2.5 2.3-3.5 3.5-1.5zm11.4 14.3c1.9 8.2-2.7 17.5-10.6 21.6-6.2 3.2-7.5-1.5-1.5-5.3 5.5-3.5 7.6-8.3 6.8-15.8-.8-6.9.7-10.3 3-6.9.7 1 1.8 3.9 2.3 6.4zm-23.9 20.2c0 1.5-.6 2.5-1.4 2.5-1.9 0-2.8-1.4-2-3.4 1-2.5 3.4-1.9 3.4.9z"/></svg>