<svg xmlns="http://www.w3.org/2000/svg" width="491" height="491" version="1.0" viewBox="0 0 368 369"><path d="M196 160c-7 2-13 9-12 17l-1 8c-7 5-12 15-8 24 4 8 14 11 22 7a35 35 0 0 0 20-42c-1-7-8-14-16-14h-5zm-18-9c-13 1-25 14-27 27-1 9-1 21 8 27 8 6 21 4 25-6 2-4 1-10 1-14 6-6 12-12 10-21a16 16 0 0 0-17-13zm6-121c-40 0-78 16-106 43a154 154 0 0 0-47 95c-2 19-1 39 4 57 8 29 25 55 47 75a150 150 0 0 0 83 38h39a154 154 0 0 0 96-52 152 152 0 0 0 37-77c2-15 1-31 0-46a153 153 0 0 0-46-89 143 143 0 0 0-47-32 145 145 0 0 0-60-12Zm7 133c2 1 6 1 8 3 4 6 9 12 8 20a23 23 0 0 1-19 21c-3 1-6 1-9-1l-9-2c-4-7-10-15-7-23 1-8 6-16 15-18l8-2 5 2zM183 0c-18 0-37 2-54 7A187 187 0 0 0 4 140a158 158 0 0 0-4 42c0 18 0 37 6 54 6 19 14 37 25 54a215 215 0 0 0 41 43c15 11 31 19 48 26a132 132 0 0 0 49 9c16 1 32 1 47-1a185 185 0 0 0 151-161v-50a183 183 0 0 0-58-108c-17-17-39-30-63-39a189 189 0 0 0-63-9Zm2 39a146 146 0 0 1 145 137 144 144 0 0 1-44 112 142 142 0 0 1-106 42 145 145 0 0 1-122-73 139 139 0 0 1-17-46A146 146 0 0 1 185 39Z" style="fill:#fff;stroke-width:.507463"/><path d="M163 16a156 156 0 0 0-45 11A172 172 0 0 0 17 149c-2 9-2 14-2 35 0 28 1 36 7 54a211 211 0 0 0 23 45c8 12 28 32 40 41a216 216 0 0 0 47 23c19 6 25 7 53 7 22 0 26 0 35-2a168 168 0 0 0 85-47 168 168 0 0 0 46-85c2-9 2-13 2-36l-1-34c-10-45-37-84-75-109-34-22-65-29-114-26zm36 8a162 162 0 0 1 108 58 161 161 0 0 1 8 196 193 193 0 0 1-38 38 161 161 0 0 1-189-3c-11-8-26-23-34-35a211 211 0 0 1-22-43A161 161 0 0 1 95 51c30-21 68-30 104-27z"/><path d="M164 28A160 160 0 0 0 54 97a214 214 0 0 0-19 39 131 131 0 0 0-7 48c0 18 0 22 2 31a158 158 0 0 0 122 123c15 4 42 4 58 1a157 157 0 0 0 128-123c2-9 3-13 3-32-1-18-1-23-3-31A158 158 0 0 0 216 30a226 226 0 0 0-52-2zm45 19a148 148 0 0 1 55 23l19 16a137 137 0 0 1 39 124 139 139 0 0 1-39 73 139 139 0 0 1-74 39c-13 3-39 2-52 0a135 135 0 0 1-72-39c-21-21-34-46-39-75a173 173 0 0 1 0-48A142 142 0 0 1 154 48c17-4 38-4 55-1z"/><path d="M177 70a635 635 0 0 0-7 20l3-1 5-3 2-2v63l-7 2a33 33 0 0 0-23 22 36 36 0 0 0 4 35l4 6-15 23a800 800 0 0 0-16 25c-1 2-2 1-3-3l-3-5c-1-1-10 38-9 39s33-23 32-24h-5l-4-1a478 478 0 0 1 32-48l7 2 5 2v62l-4-3-5-2 14 38 15-38c-1-1-3 1-5 2l-5 3v-62l4-1c11-2 22-12 26-22a36 36 0 0 0-4-36c-3-4-4-6-3-8l31-48 2 5 3 5 9-40a220 220 0 0 0-17 12l-16 12h5l6 1-31 48c-1 1-3 1-8-1l-6-2-1-32V84l5 3 5 2a308 308 0 0 0-14-38l-8 19zm4 97-4 6c-6 5-7 8-6 14 0 5 0 8-2 8s-4-6-4-10a19 19 0 0 1 11-18c3-2 4-2 5 0zm12-1-3 4-1-2c0-3 2-4 4-2zm11 15a20 20 0 0 1-11 21c-6 3-7-1-1-5 5-4 7-8 7-16-1-7 0-10 3-7l2 7zm-24 20-1 2c-2 0-3-1-2-3 1-3 3-2 3 1z"/></svg>