<svg xmlns="http://www.w3.org/2000/svg" width="365" height="385" version="1.0" viewBox="0 0 274 289"><path d="m170 45-15 2c-8 2-13 9-14 17a21 21 0 0 0 3 16 20 20 0 0 0 18 8c6 0 12 2 17-1 8-3 13-11 13-19a28 28 0 0 0-3-13 20 20 0 0 0-19-10zm-6 58c-8 0-17 1-24 6-11-3-22 4-32 8a127 127 0 0 0-37 32 91 91 0 0 0-17 35c0 6 2 11 6 16-2 11-7 22-6 33 1 10 3 22 12 29 9 6 22 4 30-4 1-3 5-3 6 0 6 7 14 13 23 13 14 0 27-7 40-11 8-4 18-6 27-3 3 2 2 6 3 8 5 12 20 17 30 11a76 76 0 0 0 26-27 89 89 0 0 0 13-43c0-8-5-14-10-20 0-4 4-8 3-13 1-9-5-16-10-24a105 105 0 0 0-83-46zm28-92c-8 0-16 6-20 13-5 5-10 10-17 13-7 1-13-2-19-4-8-3-16-1-22 4-8 1-15 7-17 14a21 21 0 0 0-25 17l-5 7a24 24 0 0 0 0 21 150 150 0 0 0-53 76c-6 20-5 41-5 61 1 23 10 45 21 65a162 162 0 0 0 87 72c15 6 32 10 49 11 17 0 34 0 51-5a210 210 0 0 0 81-41c15-12 29-27 38-45a175 175 0 0 0 19-121 194 194 0 0 0-35-70 190 190 0 0 0-99-64c-1-4-5-7-8-10a21 21 0 0 0-21-14zm-28 44c5 3 7 9 8 14a181 181 0 0 0-12-1l3-12 1-1zm-47 32c3 0 7 1 5 4v1c0-5 4-3 6-1 2 3 5 6 6 10-3 9-16 14-23 7-4-4-6-10-5-15l11-6zm-11 3c2-1 3-1 0 0zm57 32a86 86 0 0 1 75 51c-6 9-3 22 4 30 4 3 2 7 2 11a67 67 0 0 1-22 41 66 66 0 0 1-10 7c3-12-7-24-19-25-18-4-36 4-53 11-5 2-10 4-16 4-6-5-11-13-19-15a22 22 0 0 0-26 13 37 37 0 0 1-4-27c2-11 7-22 2-33-1-2-4-4-2-7 6-18 20-33 35-44a104 104 0 0 1 49-16l4-1zm52 203c0 1-1-3 0 0zm-7-292a21 21 0 0 0-20 22 29 29 0 0 0 8 18c-17-4-35-5-53-4-5 0-10 3-14 6-8 0-17 0-24 5-12-2-22 6-32 12a145 145 0 0 0-62 89 286 286 0 0 0-1 59c2 22 12 42 22 60a163 163 0 0 0 99 75 185 185 0 0 0 134-18 170 170 0 0 0 77-78 175 175 0 0 0 15-92c-2-30-16-58-33-83a190 190 0 0 0-81-62c-11-4-22-8-33-9h-2zm-33 65c1 3 0-2 0 0zm-27 3s1-1 0 0zm16 21a86 86 0 0 1 72 45c0 3 3 5 1 7-6 10-2 22 6 30 3 2 1 6 1 9a68 68 0 0 1-30 48c1-12-8-23-19-24-16-4-32 2-47 8-8 3-15 7-24 7-6-4-9-12-17-14-11-5-24 0-28 11-4-8-7-17-4-26 1-10 8-20 4-30l-5-8c4-11 10-22 19-31a84 84 0 0 1 28-22 95 95 0 0 1 36-8c3 0 4-2 6-1zm51 203c0 1-1-4 0 0z" style="fill:#fff;stroke-width:.203337" transform="scale(.75)"/><path d="M144 22a54 54 0 0 1-18 18 19 19 0 0 1-12 3c-6 0-15-3-18-6-2-1-2-1-2 1l2 5c3 4 1 4-6 0l-6-3 7 11c1 2 1 2-2 2-10 2-14 2-20 0-2-1-2-1-1 3a25 25 0 0 1 2 4l-7 3c-2 0-2 0 0 3l8 4 7 3 5 4 1 2-4-2-4-3-5 2a90 90 0 0 0-41 43c-7 15-8 22-8 43s1 27 9 45c14 32 43 54 80 62 25 5 52 1 79-13 34-17 55-44 62-80 3-14 3-36-1-48a135 135 0 0 0-29-52 137 137 0 0 0-52-33c-10-3-16-4-16-3l4 5c5 5 11 15 9 15l-3-1c-4-3-4-2-2 2l4 10c2 7 2 7 8 10 18 8 33 23 42 42 6 14 7 19 7 38 0 16 0 17-3 25a91 91 0 0 1-23 37c-9 9-28 19-42 23h-7c1-1 0-1-1-1-3 0-9-6-12-11-2-4-2-5-6-5a83 83 0 0 1-19-6l6 1a85 85 0 0 0 34 1 80 80 0 0 0 40-24c7-7 12-11 16-11l3-1c1-1-1-2-5-2-3 0-3-1 0-9 2-3 4-10 5-16v-45c2-3-1-2-3 2l-2 4-3-6a92 92 0 0 0-31-37 92 92 0 0 0-50-14l-13 1-1 5c-1 4-1 4-3 3l-5-2c-1-1-2-1 0 0 5 2 6 1 6-3 1-5 3-6 17-6 13 0 23 2 35 7l9 4c0-1-5-14-8-18-2-4-2-5 3-2l4 1-9-12-5-1c-2 0-2 0-1-3 2-3 3-11 2-11l-2 1c-2 2-3 2-3 0v-7l-1-5-1 4zm-9 28h-2l-7 3c-5 3-6 4-9 2-4-2-3-3 3-5 4-2 13-2 15 0zM93 70c2 2 2 2-2 1-5 0-5 0-3 7 1 2 1 2-1 2v-4c-3-6 1-10 6-6zm46 9a79 79 0 0 1 50 38 61 61 0 0 1 7 20c0 2 0 2-2 1l-4-1c-3 0-3 0 1 4a32 32 0 0 1 6 6c3 6 0 23-6 36a65 65 0 0 1-29 29c-5 2-11 5-14 5a84 84 0 0 1-30 0h16v-5c0-11 5-17 12-17 4 0 4 0 1-1-7-4-16-3-31 4-13 5-21 7-27 5a30 30 0 0 1-15-14l-4-5c-1 1 6 21 10 29a56 56 0 0 0 27 28 64 64 0 0 0 31 6c10 0 10 0 4 1h-15a101 101 0 0 1-82-56c-6-13-6-21-2-36l3-8-4 2-4 2a79 79 0 0 1 25-50 71 71 0 0 1 26-18 92 92 0 0 1 25-6c2 0 2 0-3 5-6 6-8 6-13 3l-4-3 1 2c0 3 4 9 6 10l1 3c0 2 5 11 6 9l1-5c1-5 8-12 16-18l4-4-6-2-6-1h6l16 2z"/></svg>