<svg xmlns="http://www.w3.org/2000/svg" width="365.333" height="385.333" version="1.0" viewBox="0 0 274 289"><path d="M170.045 44.924c-5.165.262-10.415.636-15.38 2.171-7.19 2.323-12.625 8.967-13.649 16.431-1.148 5.643-.173 11.792 3.302 16.466 3.859 5.529 10.642 8.626 17.333 8.36 5.821.09 11.954 1.198 17.456-1.322 7.66-3.009 13.024-10.987 12.806-19.233-.145-4.404-1.274-8.855-3.426-12.711-3.627-6.542-11.022-10.427-18.442-10.162zm-6.111 58.21c-8.27.266-17.212 1.114-23.953 6.397-11.197-3.227-22.147 2.924-32.05 7.433-14.478 7.777-26.34 19.685-36.717 32.263-7.652 10.235-14.021 21.832-16.772 34.386-.553 5.946 1.952 11.562 5.348 16.24-1.649 11.055-6.575 21.658-5.982 33.056.732 10.48 3.33 22.412 12.38 28.903 9.027 6.518 22.011 4.05 29.347-3.874 1.405-2.459 4.99-2.473 6.509.142 6.163 6.498 13.529 13.413 23.13 13.23 14.055.164 26.467-7.543 39.51-11.698 8.72-3.23 18.664-6.093 27.777-2.921 2.544 2.041 1.134 6.017 2.883 8.627 4.128 11.755 19.265 16.953 30.02 11.028 11.066-6.161 19.324-16.421 25.983-26.993 7.785-13.035 12.261-28.162 12.613-43.335-.181-7.773-5.255-14.007-9.73-19.857-.572-4.57 3.467-8.29 3.027-12.99.368-8.88-5.383-16.476-9.765-23.758-18.587-27.268-50.276-45.902-83.558-46.278zm28.48-92.07c-8.618-.056-15.922 5.64-20.394 12.607-5.038 5.156-10.19 10.865-16.936 13.71-6.876.54-13.389-1.942-19.595-4.526-7.292-2.326-15.854-.923-21.538 4.354-7.707 1.074-14.563 6.769-16.92 14.196-11.205-3.142-23.812 4.876-25.463 16.453-.401 2.897-3.88 4.42-4.777 7.355-3.442 6.35-3.08 14.358-.143 20.74-25.515 18.509-43.544 46.187-53.024 76.016-5.55 19.946-4.623 40.916-4.169 61.402.658 22.93 10.047 44.438 20.555 64.428 18.791 33.754 50.462 59.66 86.767 72.562 15.7 5.64 32.193 9.314 48.827 10.573 17.139.178 34.49-.255 51.12-4.857 29.577-7.58 57.848-21.196 81.422-40.692 14.973-13.068 28.736-27.852 38.246-45.443 20.864-36.384 26.77-80.51 18.282-121.404-6.4-25.419-18.966-49.096-34.855-69.84-19-24.76-45.708-42.573-73.886-55.333-8.116-3.609-16.631-6.202-25.226-8.39-1.128-4.367-4.716-7.552-7.559-10.582-3.257-8.3-11.841-13.76-20.733-13.329zm-27.946 44.247c4.515 2.972 7.013 8.355 7.704 13.592-3.922-.291-7.854-.437-11.786-.472.749-4.081 1.494-8.57 2.967-12.418.402-.11.567-1.19 1.115-.702zm-47.71 31.702c2.822.201 6.94.591 4.699 4.2-.439 2.1-.79 2.983.136.371.691-4.283 3.883-2.21 5.992-.182 2.68 2.378 5.546 5.742 5.865 9.294-2.915 8.93-16.034 14.14-23.047 6.851-3.612-4.045-5.147-9.641-4.5-14.981 3.623-1.83 7.209-3.823 10.855-5.553zm-10.45 3.268c1.688-1.457 2.147-1.317 0 0zm56.234 32.156c31.806 1.192 63.062 20.85 75.346 50.64-6.28 9.328-2.96 21.921 4.328 29.666 3.508 2.798 1.353 7.578 1.18 11.304-2.393 15.48-9.692 30.307-21.602 40.649a66.247 66.247 0 0 1-9.662 7.237c2.363-11.927-7.03-23.9-18.882-25.462-18.74-3.296-36.709 4.775-53.619 11.725-4.919 1.529-10.11 4.184-15.362 3.429-6.547-4.647-11.31-12.226-19.578-14.24-10.17-3.228-22.294 2.316-26.057 12.256-4.312-8.246-6.615-17.86-3.966-27.017 2.294-10.523 7.659-22.114 2.073-32.528-1.318-2.435-3.88-4.296-1.715-7.11 5.998-18.167 19.706-32.567 34.63-43.949 14.487-9.877 31.94-14.454 49.226-16.044 1.23-.104 2.422-.573 3.66-.556zm51.979 202.48c.058.648-.514-2.558 0 0zm-6.187-291.943c-11.508-.035-21.313 10.73-20.331 22.174.172 6.75 3.857 12.77 8.207 17.693-17.17-4.453-35.135-4.98-52.752-3.847-5.434.355-10.494 3.15-14.562 6.292-8.155-.3-17.325-.86-24.025 4.699-11.774-1.988-21.82 5.997-31.44 11.489-15.719 9.923-28.93 23.586-39.62 38.716-10.237 15.484-18.643 32.597-22.285 50.899-3.373 19.548-2.407 39.523-1.545 59.243 2.07 21.47 11.576 41.37 21.79 60.055 21.096 37.12 58.41 63.502 99.353 74.436 15.614 4.238 31.776 6.965 48 6.034 30.144-.16 59.555-9.51 85.952-23.658 32.965-17.07 61.244-44.142 76.88-78.081 13.636-28.525 18.6-60.778 15.492-92.16-2.685-30.165-16.278-58.33-33.56-82.792-20.227-28.123-49.594-48.734-81.275-62.1-10.608-3.864-21.423-7.81-32.699-9.07-.526-.003-1.053-.031-1.58-.022zm-33.247 64.902c.603 3.56-.527-2.299 0 0zm-26.95 3.575c-.026-.038.35-1.628 0 0zm15.235 21.083c29.698 1 58.152 18.63 72.006 44.95.866 2.265 3.533 4.686 1.184 6.82-5.696 9.804-1.395 22.183 6.432 29.464 2.728 2.35.54 6.51.63 9.575-2.702 19.22-13.61 37.405-30.19 47.761 1.724-11.608-7.5-22.615-18.811-24.423-16.009-3.933-32.023 2.041-46.646 8.117-7.758 2.81-15.534 7.466-24.01 6.796-6.261-4.004-9.552-11.761-17.058-14.07-10.654-4.573-24.475.81-28.429 11.907-3.969-7.997-6.658-17.152-4.031-26.019 1.776-10.061 8.033-20.284 3.963-30.564-.919-2.74-3.11-5.188-4.444-7.38 4.071-11.473 9.964-22.546 18.855-31.021 8.108-8.7 16.83-17.23 27.99-21.882 11.508-5.072 23.87-8.757 36.52-8.947 2.08-.054 3.978-1.295 6.039-1.084zM214.5 324.86c.11 1.106-.7-3.554 0 0z" style="fill:#fff;stroke-width:.203337" transform="scale(.75)"/><path d="M143.8 22.1c-2.2 4.9-11.2 14-17.9 17.8-4.4 2.5-6.5 3.1-11.6 3.1-6.6 0-15.1-2.6-18.4-5.6-1.8-1.6-1.9-1.6-1.9.1 0 1 .9 3.3 2.1 5.1 2.6 4.3 1.2 4.4-6 .4-3-1.7-5.6-3-5.9-3-.5 0 4.7 9.1 6.5 11.2 1.3 1.4 1.1 1.7-1.4 2.2-9.8 1.8-14.4 1.6-20.6-.9-1.7-.7-1.8-.6-.3 3 .9 2.1 1.6 4.1 1.6 4.5 0 1-4.7 3-7.2 3-2.1 0-2.1 0 .2 2.5 1.3 1.4 4.9 3.3 7.9 4.2 3.1.9 6.4 2.6 7.5 3.7 1 1.2 3 2.9 4.5 3.8 1.4 1 2.1 1.8 1.5 1.8-.6 0-2.8-1.1-4.8-2.5L75.9 74 71 76.4c-17.9 9-31.8 23.5-41 42.7-6.9 14.6-8.4 21.7-8.4 42.4-.1 21 1.2 27.4 9.3 45.6 14.5 32.4 42.7 54.3 80 61.9 25.5 5.2 51.9.8 79-13 34-17.3 54.8-44.1 62.1-80 2.9-13.9 2.5-36.3-.9-48.3-4.9-17.7-15.9-37.5-28.6-51.4-12.2-13.5-35.1-28-53-33.6-9.2-2.8-15.5-4.1-15.5-3.1 0 .4 2 2.8 4.4 5.4 4.2 4.5 10.5 15 8.9 15-.5-.1-1.9-.7-3.3-1.5-3.8-2.2-4.2-1.8-2.2 2.2 1.1 2.1 2.9 6.9 4.2 10.7 2.2 6.7 2.3 6.9 7.7 9.2 18 8 33 23.1 42.2 42.5 6.6 13.6 7.6 19 7.5 37.9 0 15.9-.1 16.8-3.2 25.4-5.2 14.5-12.7 26.4-23 36.2-9.4 9-28.4 19.3-42.1 22.9-6.9 1.8-7.4 1.8-6.6.5.3-.6-.3-1-1.4-1-3 0-8.9-5.6-11.6-11-2.2-4.3-2.8-4.8-6.8-5.3-4.1-.6-19.1-5.6-18.5-6.2.2-.2 2.8.3 5.8 1.1 9.2 2.5 24.5 2.9 33.6.9 15.3-3.3 30-11.9 40.9-23.7 6.6-7.2 11.8-10.8 15.7-10.8 1.5 0 2.9-.4 3.2-.9.7-1.1-1.7-2.1-5-2.1-3 0-3-1.2 0-8.6 1.3-3.2 3.2-10.5 4.2-16.1 1.5-9.1 1.6-11.3.4-20.1-1.2-9.5-1-21.8.5-25.5 1.3-3.2-1.1-1.7-3.2 2l-2.2 3.8-2.6-5.9c-5.9-13.4-18.2-27.5-31.4-36.3-13.9-9.2-31.8-14.3-50.6-14.3-6 0-11.5.4-12.1.8-.6.4-1.5 2.6-1.9 5-.6 3.8-.9 4.2-2.8 3.6-1.2-.4-3.3-1.3-4.7-2.1-1.5-.9-1.7-1.2-.5-.7 5.8 2 6.3 1.8 6.7-2.2.4-5.5 3-6.5 17-6.5 13.1 0 22.3 2 34.9 7.6 4.5 2 8.4 3.4 8.6 3.1.7-.7-4.6-13.6-7.3-17.9-2.6-4-2-4.6 2.7-2.1 1.7.8 3.3 1.4 3.5 1.2.7-.7-6.7-10.3-8.9-11.5-1.2-.7-3.2-1.2-4.5-1.3-2.1 0-2.2-.2-.9-2.8 1.8-3.4 3-11.2 1.8-11.2-.5 0-1.4.7-2.1 1.5-1.7 2-3.3 1.9-2.6-.3.3-.9.2-4-.2-6.7l-.8-5-1.6 3.6zm-8.9 27.5c.2.2-.7.4-2 .4s-4.4 1.4-6.8 3c-4.9 3.3-5.9 3.5-9.6 1.8-3.6-1.6-2.7-3 3.1-5 4.3-1.5 13.7-1.6 15.3-.2zM92.8 69.8c2.3 1.8 2.3 1.8-1.9 1.4-4.5-.5-4.5-.5-2.4 6.5.6 1.8.3 2.3-1.1 2.3-1.5 0-1.6-.2-.5-.9 1-.6 1.1-1.3.2-2.9-3.3-6.1.5-10.4 5.7-6.4zm46.5 9.6c21 5.4 38.9 18.9 49.3 37.2 3.8 6.8 7.4 16.5 7.4 20.1 0 2-.3 2.2-1.9 1.3-1.1-.5-3.1-1-4.5-1-2.5 0-2.5.1 1.5 3.7 2.2 2 4.7 4.9 5.5 6.4 3.2 6.4.7 22.6-5.6 35.8-5.7 11.9-17.2 23.4-29.1 29-4.6 2.2-11.1 4.7-14.4 5.6-7.2 1.8-23.1 1.8-30 0-4.8-1.3-4.6-1.4 5.8-.8l10.7.5v-5.6c0-10.1 4.6-16.6 11.9-16.6 3.6-.1 3.6-.1 1.1-1.4-7.3-3.9-16.1-2.8-31.1 4-12.5 5.6-20.9 7.3-26.9 5.5-5.3-1.6-11.4-7.1-15.2-13.9-1.7-2.9-3.2-5.1-3.5-4.9-1.1 1.2 5.4 20.3 10 29.2 6.9 13.4 14.9 21.7 26.7 27.3 9.9 4.7 17.2 6.3 30.8 6.4 9.7.1 9.7.1 3.7 1-3.3.5-9.6.6-14.1.3-35.3-2.6-68.5-25.3-82.6-56.5-5.7-12.6-6-21.1-1.3-35.6 1.3-4.4 2.5-8.2 2.5-8.7 0-.4-1.8.5-4 1.9-2.2 1.5-4.2 2.5-4.4 2.3-1-.9 2.9-15.8 5.8-22.9 4.7-11 9.8-18.4 19.2-27.5 8.9-8.8 15.5-13.1 26.3-17.5 7.3-3 19.9-6 24.8-6 2.7 0 2.7.1-2.4 5-5.9 5.8-8.3 6.2-13.7 2.5L93.9 83l.6 2.2c.9 3 4.1 8.3 6 9.8.8.7 1.5 1.9 1.5 2.8 0 1.9 5.3 11 5.6 9.7.2-.6.8-3 1.4-5.4 1.4-5.2 7.8-12.4 15.7-17.7 3-2 5.1-4 4.6-4.4-.4-.5-3.5-1.3-6.8-1.8l-6-1 6.6-.1c4.1-.1 10.3.8 16.2 2.3z"/></svg>