<svg xmlns="http://www.w3.org/2000/svg" width="431" height="399" version="1.0" viewBox="0 0 323 299"><path d="M229 99c-3 0-5 3-7 5s-1 5 1 6h6c2-1 4-3 4-6s-2-5-4-5zm57-42-5 1c-2-1-5 1-5 3-1 3-2 6 0 9 1 2 5 3 8 2 5-1 8-6 8-11-1-2-3-5-6-4zm-5-7a14 14 0 0 0-8 4c-2 1-2 4 0 6l7 1c3 0 6 0 8-3 2-2 0-6-3-7a9 9 0 0 0-4-1zm11-13c-3 1-5 3-6 6a5 5 0 0 0 1 7c2 1 4 3 7 2s3-5 3-7c0-3 0-6-3-7a4 4 0 0 0-2-1zm-13 2a5 5 0 0 0-4 4c0 3 1 6 3 7 3 1 7-1 8-4 0-2-2-5-4-6l-3-1zm1-11a12 12 0 0 0-5 1 4 4 0 0 0-1 5l3 5h5l5-4a4 4 0 0 0 0-6l-5-1a19 19 0 0 0-2 0zm-12 7a4 4 0 0 0-3 5l-1 2v6a4 4 0 0 0 4 4l4-4a12 12 0 0 0 2-9 6 6 0 0 0-4-3 4 4 0 0 0-2-1zm-6-3-6 1a10 10 0 0 0-4 9c0 2 1 4 3 5 1 2 4 2 6 1l7-4 1-6c-1-3-3-6-6-6h-1zm-6 15zm2 1s-1 0 0 0zm0 0zm-40 40c-4 0-8 4-7 8a4 4 0 0 0 5 3l5-5c1-1 1-4-1-6h-2zm-3-11c-7 0-14 5-14 13-1 4 0 10 4 12 5 1 7-4 7-8 1-2 2-6 6-5 3 0 9-1 8-6-1-4-7-6-11-6zm22 19c-5 1-4 7-5 11-4 3-11 2-14 7-1 5 6 6 9 7 8 1 17-6 16-14 0-4-1-11-6-11zM12 0A15 15 0 0 0 1 19c3 8 8 16 12 23 5 9 10 19 16 27l94 94-10 4a65 65 0 0 0-19 19c-2 3-2 7-5 9l-30 29c-6 1-9 5-14 8-7 0-14 2-18 8-3 4-4 9-7 12-5 4-8 11-7 18 1 3 0 5-2 8-4 9 4 21 14 21 3 1 7-2 10-2 7 1 14 2 19-4 4-2 7-5 12-6 8-3 12-12 13-20a66 66 0 0 0 9-12 336 336 0 0 1 33-32c10-1 18-10 25-17 3-3 4-7 5-11 2-4 4-2 6 0l28 29c-1 9 8 15 14 20 6 6 15 7 23 4l18 18c-2 18 16 36 34 33 3-1 6-3 9-2 13 2 24-11 20-23 4-10 2-23-7-30a28 28 0 0 0-24-9l-13-13-6-6a22 22 0 0 0-3-21c-6-7-13-16-23-15a994 994 0 0 1-26-25 46 46 0 0 0 16-20c0-3 5-1 7-3 4-1 6-6 11-6 6-3 12-7 14-14a40 40 0 0 0 23-11c3-3 5-2 8 0 7 3 14 0 19-4 6-3 12-6 15-12s9-10 9-17-4-13-8-18a16 16 0 0 0 6-18c3-7-1-14-6-19s-12-10-20-8a17 17 0 0 0-18 4c-6-5-14-11-23-8l-13 8c-7 2-9 10-13 15-6 6-8 16-3 22-2 5-8 9-11 15a23 23 0 0 0-3 10c-8 2-14 10-16 17-4 3-7 9-8 13-10 2-17 10-23 18L75 33c-10-9-22-14-33-21C34 8 26 2 18 0h-6zm270 32c9 0 15 12 9 19-1 3-4 6-6 3 3 1 2 2-1 0-3-1-1 0 1 1 2 3-5 3-7 3-8 0-13-11-9-19 1-1 3 5 3 5l-2-7c3 3 3 4 1 0 0-3 4-4 7-5h4zm-20 4c3-1 4 4 3 6-2 2-7 5-9 1s2-8 6-7zm22 24c2 0 5 1 4 4s-4 5-7 5-2-4-2-6c1-3 2-4 5-3zm-67 21c6 1 11 6 12 12 10 2 14 16 7 23-8 5-20-1-21-10-10-2-15-15-8-23 3-2 6-3 10-2zm9 11s-1 0 0 0zm-1 0zm2 0s-1 0 0 0zm-3 0zm4 0zm-5 0zm-1 1s1-1 0 0zm-1 0s1 0 0 0zm0 0zm-1 0s1 0 0 0zm9 0c0 1 0 0 0 0zm-9 1s0-1 0 0zm-1 0s1 0 0 0zm10 0c0 1 0 0 0 0zm-11 1c1 0 1-1 0 0zm0 0zm0 1s0-1 0 0zm-1 0c0 1 1-1 0 0zm12 0zm-12 0zm0 1s0-1 0 0zm12 0c0 1 0 0 0 0zm-13 1s1-1 0 0zm0 1s0-1 0 0zm13 0s0-1 0 0zm-1 1s0-1 0 0zm-13 0zm13 1s0-1 0 0zm-1 1s1-1 0 0zm-12 0zm12 0c0 1 0 0 0 0zm0 1c-1 1 0-1 0 0zm-1 0c0 1 0 0 0 0zm0 0c-1 1 0 1 0 0zm-1 1s1 0 0 0zm0 0c-1 1 0 0 0 0zm-10 1s0-1 0 0zm9 0c-1 0 0 0 0 0zm-1 0c-1 0 0 0 0 0zm-1 1c-1 0 0 0 0 0zm-2 0s1 0 0 0zm-4 0zm3 0zm-2 0c1 0 0 0 0 0z" style="fill:#fff;stroke-width:.145643"/><path d="m14 14 13 23 12 21 28 28 52 52c29 29 27 24 15 35-5 5-7 6-10 6s-5 1-11 6c-5 6-7 8-7 11-1 3-3 6-15 18-24 23-26 25-28 24l-5 3a18 18 0 0 1-13 6c-5 0-7 1-7 4 0 2-2 5-6 9l-5 5 1 6c0 5 0 7-2 10-2 4-2 4 2 2l9-1 7 1 6-5c4-3 7-4 9-4 3 0 5-3 5-7a19 19 0 0 1 6-13c3-2 4-3 3-4a158 158 0 0 1 45-41c4 0 5-1 11-7s8-7 8-10 1-5 8-12l8-9 25 24a482 482 0 0 1 25 25l-2 3c-2 2-2 2 3 6 6 7 8 8 16 5 6-3 9-2 11 3a15 15 0 0 0 5 5l5 5 5 4 4 4c0 2 2 3 4 4 4 1 4 1 2 5-4 8 2 19 12 20 2 1 5 0 8-1 3-2 5-2 6-1 3 3 9-1 6-6-1-2-1-2 1-6 2-5 2-9-1-13-4-7-12-10-19-7-4 2-3 2-5-2-1-2-2-4-4-4l-4-4a13 13 0 0 0-5-5 9 9 0 0 1-5-4 8 8 0 0 0-4-5c-5-2-6-4-3-11a18 18 0 0 0 1-8 40 40 0 0 0-11-12l-2 1c-2 2-3 2-10-5a834 834 0 0 1-24-23l-16-17 3-3 8-4c3 0 5-1 10-6l6-8c0-6 5-11 12-11 3 0 4-1 5-3l5-3 6-2c3-2 4-3 4-7 0-5 1-6 11-7 6 0 7 0 12-5a43 43 0 0 1 18-9c2 0 6 2 7 4h3l4-3 6-3c3-1 4-2 5-4l4-6c3-3 3-3 1-6a31 31 0 0 0-12-15c-6-3-7-4-5-7s3-3 6 0l2 3 5-4 5-5-3-2c-3-3-3-3 0-6l3-2-4-4-5-4-3 2-2 3-2-3-2-3-5 4-5 4 2 3 3 3-2 2a10 10 0 0 1-4 2l-4-6a29 29 0 0 0-9-11 30 30 0 0 0-7-4l-3 2-7 4c-3 1-4 1-5 4l-4 8-3 3 2 3c5 5 3 12-7 23-6 6-6 7-6 12l-2 8c-1 4-2 4-5 3a10 10 0 0 0-5 1c-3 1-5 6-5 9 0 2-1 3-3 4-4 1-4 2-4 7s-6 10-11 10c-3 0-5 1-9 4-6 6-7 8-7 12l-4 6-4 4-52-51C72 49 61 39 56 37L32 23a152 152 0 0 0-18-9zm251 18c6 5 7 11 3 16s-10 3-10-2l-2-2-2-1h-2c-3 0 0-10 3-12a9 9 0 0 1 10 1zm17 12v2c-2 1-3 0-3-2s1-2 3 0zm4 11c4 2 8 8 8 11s-4 6-8 8c-4 1-6 0-7-4 0-2-1-3-2-3-5-1-5-9 1-12h8zm-69 39-2 1 1-3c3-2 3 0 1 2zm12 11-2 2c-3 0-3 0-1-2 2-3 4-3 3 0z"/></svg>