<svg xmlns="http://www.w3.org/2000/svg" width="397" height="393" version="1.0" viewBox="0 0 298 295"><path d="M220 35a20 20 0 1 0 4 39 20 20 0 0 0 16-14 20 20 0 0 0-20-25zm13-18-9 1-7 2c-10-3-22 1-25 11-3 6-1 12-1 18v14a19 19 0 0 0 15 23c6 2 13-1 19-3h20a19 19 0 0 0 14-22c-1-2-2-5-1-7l1-13c0-8-6-15-13-20a21 21 0 0 0-13-4zm-10 20a18 18 0 0 1 15 22 17 17 0 0 1-9 12c-5-1-9-3-12-6a23 23 0 0 0 9 7c-11 3-23-6-23-16 0-3 1-6 2-2l8 7c-4-2-8-7-8-12a18 18 0 0 1 18-12zM52 208c-8 0-15 6-19 13-3 5-6 11-5 17-1 4-2 8-1 12 1 11 12 19 22 17 3 0 6-2 9-1 8 0 15-5 21-10a19 19 0 0 0 10-23l-5-10c-3-6-10-9-17-10a23 23 0 0 0-15-5zM236 65c-12 1-24 1-34 7l-11 8c-6 1-12 6-15 12a36 36 0 0 0-12 15l-8 6c-5 6-7 13-12 18a425 425 0 0 1-26 29c-4 3-9 5-11 10-2 3-6 6-7 10a233 233 0 0 1-27 32c-7 7-8 20-1 27 3 4 7 6 10 8a26 26 0 0 0 30 17c3-1 5-2 8-1 3 0 4 1 4 4 3 6 4 13 8 19a21 21 0 0 0 30 3c6-6 8-15 11-23 0-3 2-3 4-3h10c10 1 21-5 25-15 2-2 4-1 6 0 8 4 17 11 27 9a20 20 0 0 0 15-23c-2-8-6-16-10-24 0-1 4-1 5-3 10-6 14-21 10-32 0-3 1-4 4-5 7-2 14-4 20-8a20 20 0 0 0 4-29c-6-7-16-8-24-11-2-1-4-1-3-4-2-3 1-6 1-9 2-10-3-20-11-26 0-10-10-19-20-18zm-74 46c1-1 2-1 0 0zm-3 1zm-8 13zM143 0a20 20 0 0 0-15 16l-3 11c-4 0-7 2-11 0-9-3-19 0-26 8a31 31 0 0 0-6 8c-8-3-16-9-25-9-10-1-19 8-20 18 0 8 5 15 8 23 1 1 3 3 1 5a26 26 0 0 0-18 26l2 11c0 2 0 5-3 5-8 3-18 4-23 12-7 10-4 25 7 30l19 7v7a26 26 0 0 0 15 32c2 2 4 4 4 7a20 20 0 0 0 22 15c12-2 20-12 28-21 6-7 13-14 17-22a25 25 0 0 0 2-8c11-3 17-12 24-19 7-8 15-16 21-25l6-11a23 23 0 0 0 13-14c3-2 4-6 6-9 6-4 9-11 11-17 3-6 9-11 10-18a39 39 0 0 0 0-17 20 20 0 0 0-12-25c-6-3-14-1-20 2-2-1-4 0-5-2-3-8-5-18-13-23-5-3-10-3-16-3Z" style="fill:#fff;stroke-width:.153031"/><path d="m144 29-5 14h-4l-12 3c-8 2-8 2-12 0-3-2-4-2-6-1-3 1-6 5-6 7s-2 4-8 8l-7 5-15-8-15-7 7 15 7 15-5 8c-6 8-6 9-9 9-7 0-10 8-6 13 2 3 2 3 0 11l-2 11c0 3-1 3-16 8l-15 6 15 5c14 5 16 6 16 8l2 11c2 7 2 8 1 10-4 5-1 13 5 13 2 0 3 1 5 3 0 2 3 5 5 8a27 27 0 0 1 3 6 15 15 0 0 1-3 4 12 12 0 0 1-8 3c-4 1-5 1-6 5 0 3-2 6-3 7-3 4-4 7-3 10v4c-3 2-3 9-1 10s3 1 5-1c3-2 5-3 9-2 4 0 5 0 9-4l7-4c3 0 4-4 2-8-1-3 0-4 5-7l4-1 6 4 8 5 1 3a8 8 0 0 0 8 8l5-2c2-1 3-1 11 1l12 2c2 0 3 2 8 17l5 16 6-16 7-17 11-2c7-2 9-2 11-1 2 2 8 1 10-1l3-4c0-2 2-4 8-8l9-6 15 8a191 191 0 0 0 16 7l-8-16c-6-13-7-15-6-17l5-8c3-5 4-6 6-6 4 0 7-3 7-8l-2-5-1-4 3-10 2-9 16-5c15-5 16-6 14-7l-16-5c-10-4-13-5-14-7a150 150 0 0 1-3-11c-2-9-2-10 0-12 4-5 1-13-6-13-2 0-3-1-5-4l-3-5h2l4-4 3-7c2-3 2-3 6-3l5-1-4-3c-4-2-5-3-7-8-1-5-2-6 0-8v-8l1-3c2-3 2-4 0-4l-5-4c-3-4-3-4-6-2l-4 1c-1-1-4 0-8 3l-2 2-6-4-6-5-4 3a25 25 0 0 1-8 3c-3 1-5 4-5 6l-2 2-5 2c-1 2-2 2-9 0l-11-2-4-1-5-15-5-14zm67 8c4 3 9 8 9 10l2 1c2 0 1-3-1-4-3-1-3-1 1-5s6-4 6-1c1 2 1 2 3-1l3-3 4 4 3 4-3 1c-3 2-3 4-1 4 4 0 4 2 1 6-3 3-4 4-6 1s-2-3-3-1c0 2 2 5 4 4h4l3 5 2 7 1 3-3 5c-4 8-3 7-13 7s-18 3-23 10c-3 3-4 4-7 4s-3 0-4 3c-2 4-4 6-9 8-4 1-4 2-4 4s-1 2-5 1c-2 0-6 8-6 12 1 1 0 2-1 2-4-1-17 9-24 18l-12 14c-7 7-9 10-9 12l-1 5v3c2 3 0 5-4 6-11 0-13 1-24 16l-12 14c-2 2-4 4-3 5l-3 5c-4 4-4 5-3 8 0 4 0 5-2 5l-6 5c-5 4-7 5-10 3-2-1-3-1-6 1a27 27 0 0 1-4 3c-2 0-1-4 1-6l1-6c-1-4-1-5 3-9l3-7c-1-2 0-2 1-2 3 0 9-3 13-6a14 14 0 0 1 5-3l20-21c7-8 9-11 8-12s-1-3 1-5v-5c-2-2-1-4 2-2 2 1 3 0 6-2l5-2a313 313 0 0 0 34-37c6-11 6-11 5-12-2-1-2-4-1-4a4 4 0 0 1 2 1l6-1c4-2 5-2 5-6 0-2 1-3 3-4l2-4c0-5 4-10 8-9l3-6 5-10a34 34 0 0 0 5-6c1-4 0-11-2-13v-3l3-5c1-5 1-5 3-5l6-3c5-3 5-3 10 1z"/><path d="M200 49c-2 3-2 8 0 7h2l2 2c0 2 1 3 2 2h2l3-9c-3-6-7-7-11-3zm8 2a11 11 0 0 1-1 5v2l-1-2c0-2-1-3-3-3l-2-1c0-4 6-5 7-1zm12 4 1 1 1-1-1-1a1 1 0 0 0-1 1zm-2 11c-3 4-3 6 0 6l3 2c0 3 3 2 7-1s4-5 1-8c-4-2-8-2-11 1zm-42 28v2l2-2c0-1-1-2-2-1zm8 7-1 3c2 0 3-2 3-4 0-1-1-1-2 1z"/></svg>