<svg xmlns="http://www.w3.org/2000/svg" width="396.672" height="392.952" version="1.0" viewBox="0 0 297.504 294.714"><path d="M220.195 35.197c-7.213.279-14.028 4.893-16.933 11.506-3.181 6.801-1.956 15.369 3.04 20.981 4.394 5.135 11.545 7.744 18.205 6.498 7.444-1.293 13.838-7.218 15.593-14.582 1.918-7.329-.905-15.603-6.91-20.225-3.65-2.897-8.345-4.38-12.995-4.178zm12.7-18.005c-3.124.52-6.156.903-9.325.97-2.372.023-4.624 1.602-6.801 1.66-9.499-3.265-21.36 1.41-24.826 11.113-2.754 5.795-.539 12.138-.623 18.214.96 4.647-.292 9.299-.343 13.987-2.52 10.076 4.626 21.2 14.865 23.011 6.596 1.369 13.294-1.073 19.5-2.732 6.536 1.025 13.26.326 19.77-.572 9.21-2.402 15.473-12.31 13.522-21.649-.483-2.608-1.909-5.098-.524-7.663.853-4.08.164-8.193.983-12.282-.043-8.63-6.385-15.398-12.917-20.224-3.858-2.681-8.58-4.099-13.281-3.833zm-10.049 20.126c10.286.749 18.09 11.69 15.456 21.658-1.206 4.903-4.637 9.76-9.408 11.531-4.515-.31-9.105-2.327-11.893-5.99 2.202 3.117 5.095 5.786 8.541 7.466-10.417 3.082-22.16-5.557-22.149-16.452-.19-2.935.27-5.248 1.83-1.458 2.061 2.965 4.91 5.354 8.153 6.931-4.562-2.377-8.494-7.156-8.838-12.304 2.677-7.375 10.527-12.17 18.308-11.382zM52.032 207.614c-8.474.24-15.352 6.454-19.032 13.698-3.442 4.945-5.579 10.845-4.836 16.932-.874 3.879-2.392 7.924-1.602 12.043C27.594 261 38.525 269.163 49.09 267.36c2.973-.313 5.618-2.017 8.65-1.23 8.351.33 15.09-5.185 21.275-10.033 8.37-3.748 13.308-13.853 10.359-22.666-1.202-3.804-3.671-7.055-5.318-10.67-3.547-6.005-10.337-9.035-17.02-9.879-4.277-3.35-9.466-5.581-15.003-5.269zm183.68-142.472c-11.435.986-23.668.54-33.843 6.727-3.937 2.087-7.127 5.415-10.47 8.14-6.59 1.416-12.01 6.296-14.939 12.262-5.806 3.391-9.471 9.254-12.553 15.014-2.377 2.344-5.834 3.381-7.896 6.147-4.54 5.69-7.38 12.6-12.25 18.096-8.344 9.875-16.725 19.775-25.94 28.851-3.761 3.083-8.787 4.86-11.068 9.49-1.98 3.58-5.572 6.136-6.878 10.202-7.83 11.489-17.475 21.599-27.192 31.484-6.948 7.459-7.347 20.002-.368 27.572 2.719 3.504 7.006 5.433 10.173 8.258 4.432 11.628 17.659 19.28 29.922 16.282 2.606-.482 5.02-2.068 7.665-.765 2.633-.116 3.87 1.372 4.23 3.833 2.497 6.475 3.802 13.483 7.337 19.505 6.538 10.019 22.246 11.383 30.56 2.866 6.206-6.297 7.447-15.512 10.632-23.417.114-2.541 2.328-2.713 4.38-3.057 3.13-.782 6.228 1.268 9.47.86 10.412.324 21.057-5.51 25.085-15.361 1.785-2.512 3.901-.85 5.97.276 8.57 4.017 17.433 10.223 27.383 8.314 10.291-1.723 17.598-12.725 15.297-22.88-2.208-8.228-6.77-15.604-10.169-23.379-.457-1.763 3.337-1.771 4.385-3.15 10.604-6.469 14.342-20.821 10.213-32.17.056-2.716 1.14-4.507 3.952-4.769 6.841-2.72 14.306-4.248 20.518-8.32 9.088-6.255 11.03-20.377 3.693-28.704-5.95-7.124-16.06-8.413-24.01-11.57-1.936-.45-3.641-1.131-3.492-3.418-1.304-3.369 1.461-6.379 1.531-9.797 1.515-9.674-2.9-19.971-11.004-25.486-.178-10.465-9.957-18.91-20.324-17.936zm-73.962 45.666c1.237-.617 2.566-.827 0 0zm-2.872 1.5c.649-.491.574-.36 0 0zm-8.12 12.606c0-.019.02-.152 0 0zM143.223.406c-7.586 1.578-13.225 8.036-14.906 15.444-1.165 3.584-2.321 7.17-3.491 10.752-3.5.338-7.144 2.436-10.48.57-9.179-3.306-19.773.01-26.064 7.3-2.476 2.544-4.39 5.623-5.838 8.817-8.22-3.663-16.102-9.192-25.346-9.66-10.077-.444-19.348 8.025-19.824 18.093-.531 8.313 4.726 15.353 7.89 22.645.596 1.75 2.828 3.637.923 5.194-11.09 3.269-19.225 14.589-18.177 26.212-.154 3.761 1.18 7.44 2.246 10.866-.579 2.008-.062 5-2.884 5.075-8.188 3.24-18.152 4.524-23.633 12.209-6.846 9.508-3.777 24.96 7.06 30.11 6.158 2.565 12.582 4.413 18.83 6.704.488 2.355 1.433 4.72.117 6.972-3.903 12.492 3.17 27.511 15.638 31.879 1.423 2.35 3.358 4.453 3.36 7.35 2.123 9.58 12.258 16.12 21.869 14.495 12.314-1.72 20.61-12.018 28.476-20.641 5.998-7.117 12.847-13.743 17.292-21.998 1.189-2.436 1.713-5.205 2.04-7.81 10.247-2.736 16.764-11.824 23.702-19.169 7.099-8.304 14.834-16.14 21.102-25.108 2.262-3.524 4.357-7.164 6.217-10.914 5.998-2.552 10.961-7.624 12.863-13.917 2.741-2.437 4.117-6.09 5.664-9.127 6.42-3.56 9.485-10.603 11.31-17.36 3.124-6.041 8.508-11.02 9.764-17.982 1.404-5.373.633-11.066-.26-16.351 3.608-9.757-1.644-21.793-11.571-25.255-6.524-2.697-13.817-.928-19.89 2.097-1.596-.66-3.996-.382-5.128-1.528-3.2-8.276-4.83-18.407-13.08-23.377-4.695-3-10.402-3.488-15.79-2.587Z" style="fill:#fff;stroke-width:.153031"/><path d="m143.682 28.52-4.7 14.2-3.7.6c-2 .3-7.4 1.4-11.9 2.4-8 1.9-8.2 1.9-12.1 0-3-1.5-4.5-1.7-6.5-1-3 1.2-5.7 4.8-5.7 7.7 0 1.5-2.1 3.5-7.7 7.2l-7.6 5-14.9-7.4c-8.1-4.1-14.8-7.2-14.8-6.9 0 .3 3.2 6.9 7.2 14.8l7.1 14.4-5.7 8.7c-5.3 7.8-6.1 8.6-9 8.6-6.6 0-9.9 7.8-5.6 13.3 2 2.5 2 2.6.1 10.9-1.1 4.5-2.1 9.6-2.3 11.2-.3 2.9-.8 3.1-15.5 8-8.4 2.8-15.3 5.3-15.3 5.6 0 .3 6.9 2.8 15.3 5.6 13.7 4.5 15.2 5.3 15.5 7.5.2 1.3 1.2 6.1 2.3 10.6 1.9 7.6 1.9 8.5.5 10.5-3.8 5.3-.6 12.8 5.4 12.8 2.3 0 3.3.7 4.6 3.2.9 1.8 3.2 5.4 5 8.1 1.9 2.6 3.4 5.1 3.4 5.5 0 .4-1.5 2.3-3.4 4.1-2.5 2.4-4.6 3.5-7.8 3.8-4.3.5-4.5.7-5.6 4.8-.6 2.3-2.2 5.6-3.5 7.1-3.2 3.9-4 6.6-2.7 9.9.8 2.2.7 3-.5 3.9-2.2 1.6-2.4 8.5-.3 9.9 1.4.9 2.4.6 5-1.3 2.7-2 4.3-2.4 8.4-2.2 4.6.3 5.4 0 9.6-3.8 2.5-2.2 5.5-4 6.7-4 2.6 0 3.8-4.2 2.2-7.7-1.4-3.1-.5-4.3 4.7-6.7l3.8-1.7 6.8 4.5c3.7 2.6 7.2 4.6 7.7 4.6s.9 1.3.9 2.9c0 4.5 3.5 8.1 7.7 8.1 2 0 4.5-.7 5.5-1.6 1.7-1.6 2.4-1.5 11 .4 5.1 1.2 10.4 2.3 11.7 2.4 2.2.3 3 1.8 7.9 16.8l5.5 16.5 5.6-16.8c4.6-13.8 5.9-16.7 7.5-16.7 1 0 5.9-.9 10.8-2.1 6.9-1.6 9.2-1.8 10.3-.9 2.1 1.8 8.3 1.5 10.5-.5 1-.9 2.2-3 2.5-4.5.5-2.1 2.7-4.1 8.9-8.3l8.3-5.5 15.3 7.9c8.5 4.3 15.6 7.7 15.7 7.5.2-.2-3.1-7.4-7.4-16-6.6-13.2-7.6-15.9-6.6-17.4.7-.9 3-4.5 5-7.9 3.2-5.2 4.3-6.3 6.6-6.3 3.9 0 6.7-3.2 6.7-7.9 0-2.3-.6-4.4-1.6-5.2-.9-.8-1.3-2-.9-3.3.3-1.2 1.4-5.9 2.4-10.6l1.8-8.5 16.4-5.6c14.4-5 16.1-5.8 13.9-6.7-1.4-.5-8.5-2.9-15.9-5.3-10-3.3-13.5-4.9-14.1-6.4-.4-1.1-1.7-6.3-2.8-11.5-1.9-9.3-1.9-9.5-.1-11.9 4.1-5.2.5-13.1-6-13.1-2.4 0-3.4-.8-5.4-4.3l-2.5-4.2 2.2-.8c1.2-.4 3-2.2 3.9-4 .9-1.7 2.3-4.7 3.2-6.5 1.4-2.9 1.9-3.2 6-3.2 2.5 0 4.5-.4 4.5-.8s-2-1.8-4.4-2.9c-3.9-2-4.6-2.8-6.3-8.2-1.7-5-1.8-6.3-.7-8.3 1.6-2.8 1.8-6.5.4-7.3-.6-.4-.3-1.6 1-3.2 2.4-3.1 2.5-4.3.4-4.3-.9 0-3.2-1.7-5.1-3.7-3.4-3.8-3.4-3.8-6.2-2.1-1.9 1-3.2 1.3-3.9.6-1.1-1.1-4.5.3-7.9 3.5l-2.2 2-6.1-4.6-6.1-4.5-4.4 2.9c-2.4 1.6-5.7 3.2-7.4 3.5-3.1.7-5.4 3.2-4.9 5.5.2.6-1 1.5-2.6 2-1.5.4-3.6 1.5-4.5 2.3-1.6 1.5-2.5 1.4-9.6-.4-4.3-1.1-9.1-2-10.6-2s-3.1-.6-3.6-1.2c-.4-.7-2.9-7.3-5.4-14.8l-4.6-13.5zm67 8.2c4.2 3 9.4 8.6 9.4 10.2 0 .5.7.9 1.5.9 2.2 0 1.8-3.1-.5-3.7-2.7-.7-2.6-1.1 1.2-5 3.7-3.9 5.3-4.1 6.2-1.1.6 2.3.7 2.3 3.1-.7l2.5-3 3.6 3.7 3.7 3.6-3.2 1.6c-3 1.6-3.4 3.6-.7 3.6 3.2 0 3.6 2.6.9 5.8-3.1 3.8-4.5 4-6.6.9-1.4-2.1-1.6-2.1-2.3-.3-.8 2 2.1 5 3.8 4 .5-.3 2-.3 3.3 0 1.8.5 2.6 1.5 3.1 4.4.3 2 1.5 5.2 2.5 6.9 1 1.8 1.4 3.3.9 3.3-.5 0-1.9 2.1-3.2 4.7-4 8.3-3.2 7.8-12.7 7.8-10.7.1-18 3-23.1 9.4-2.7 3.3-4 4.1-6.7 4.1s-3.5.5-4.6 3.2c-1.8 4.2-4.3 6.4-9.3 8.1-3.1 1.1-3.9 1.9-3.9 3.8 0 2.4-.2 2.4-4.7 1.2-2-.6-6 7.8-5.6 11.7.2 1.6-.2 2.4-1 2.2-4.1-.8-16.9 8.8-24 18.1-2.3 2.9-8 9.4-12.7 14.3-6.5 6.8-8.5 9.5-8.5 11.7 0 1.6-.5 3.7-1.1 4.8-.7 1.5-.7 2.4.1 3.4 2.1 2.6.3 5.1-3.8 5.3-11.7.4-13.2 1.5-24.8 15.9-4.3 5.4-9.6 11.7-11.7 14-2.1 2.3-3.6 4.6-3.3 5.2.3.5-1 2.8-3 5.2-3.2 3.9-3.5 4.7-2.9 8.5.5 3.7.3 4.3-1.5 4.9-1.1.4-4.1 2.4-6.6 4.6-4.8 4.1-6.3 4.6-9.5 2.8-1.7-.9-2.8-.6-6 1.5-2.1 1.4-4.1 2.6-4.4 2.6-1.2 0-.4-4 1.1-5.5 1.2-1.2 1.5-2.6 1-6-.6-4-.3-4.9 2.9-9.7 2.1-3 3.4-6 3.2-7-.4-1.3.1-1.8 1.4-1.8 3.1 0 8.8-2.7 12.5-6 1.9-1.6 4.1-3 4.8-3 1.6 0 8.3-6.8 20.4-20.9 7.2-8.4 8.8-10.8 8-12.1-.8-1.2-.6-2.5.6-4.9 1.6-3 1.6-3.4.1-5.1-2-2.2-.4-3.6 2.4-2.1 1.5.8 2.7.5 5.5-1.4 2-1.4 4.7-2.5 5.9-2.5 1.7 0 6.4-4.7 17.7-17.6 8.5-9.6 16-18.5 16.6-19.7 5.7-11 5.5-10.4 3.9-11.7-1.6-1.3-2.1-4-.7-4 .4 0 1.3.4 2 .9.9.5 3.2.1 6-.9 4.3-1.6 4.7-2.1 5-5.4.3-2.8.9-3.9 2.8-4.6 1.7-.7 2.4-1.7 2.4-3.5 0-5.4 4.1-10.2 8.1-9.3.8.2 1.9-2 2.9-5.9 1.1-3.9 2.9-7.6 5-9.9 1.8-2.1 3.8-5.1 4.5-6.7 1.4-3.4.5-10.2-1.8-12.4-1.3-1.4-1.3-1.7.4-3.4 1-1 2.1-3.1 2.5-4.6 1-4.9 1.3-5.3 3.6-5.4 1.3 0 3.9-1.1 5.8-2.4 4.5-3.1 4.9-3.1 9.6.4z"/><path d="M200.082 48.52c-2.2 2.9-2.4 8-.2 7.5.6-.1 1.8-.3 2.5-.5.7-.1 1.3 1 1.5 2.6.3 2.1.8 2.7 1.9 2.3.8-.3 1.8-.6 2.3-.6 1.3 0 3.1-6.5 2.4-8.6-2.1-5.8-7-7.1-10.4-2.7zm7.6 2.7c.3 1.4.2 3.5-.2 4.8l-.8 2.3-.6-2.5c-.4-1.6-1.4-2.6-2.8-2.8-1.2-.2-2.2-.5-2.2-.7 0-4 5.6-4.9 6.6-1.1zM220.082 54.82c0 .5.5 1 1 1 .6 0 1-.5 1-1 0-.6-.4-1-1-1-.5 0-1 .4-1 1zM218.182 66.42c-2.7 3.4-2.7 5.4 0 5.4 1.2 0 2.3.8 2.6 2 .7 2.7 3.5 2.5 7.2-.6 3.7-3 3.9-5.7.9-7.8-3.5-2.5-8.3-2-10.7 1zM175.782 93.52c-1 .9-.9 2.3.2 2.3.5 0 1.1-.7 1.5-1.5.5-1.5-.5-2-1.7-.8zM183.782 100.82c-1.1 1.6-1.3 2.6-.6 2.9 1.6.5 3.1-1.4 2.7-3.5-.3-1.7-.5-1.6-2.1.6z"/></svg>