<svg xmlns="http://www.w3.org/2000/svg" width="430.58" height="398.948" version="1.0" viewBox="0 0 322.935 299.211"><path d="M228.55 99.195c-2.893.228-4.868 2.684-6.59 4.753-1.615 1.91-.95 5.174 1.38 6.171 1.74.74 3.742.281 5.458-.307 2.44-.918 4.328-3.251 4.346-5.91.186-2.551-1.99-4.91-4.595-4.707zm57.562-42.723c-1.666.198-3.175 1.132-4.905 1.06-2.37-.297-4.86 1.173-5.304 3.609-.548 2.813-1.681 6.014.074 8.64 1.495 2.726 5.029 2.8 7.745 2.495 4.926-.778 8.452-5.986 7.938-10.825-.443-2.641-2.754-5.064-5.548-4.979zm-5.023-6.139c-2.877.167-5.526 1.723-7.72 3.496-1.87 1.43-2.362 4.5-.429 6.067 1.898 1.459 4.505 1.315 6.797 1.393 2.895-.131 6.532-.177 8.265-2.919 1.681-2.638-.14-6.081-2.799-7.209-1.27-.632-2.706-.855-4.114-.828zm11.033-12.972c-2.988.292-4.764 3.168-6.082 5.562-1.33 2.195-.801 5.08 1.069 6.787 1.748 1.696 4.276 3.772 6.84 2.597 2.777-1.317 2.718-4.835 2.844-7.464.047-2.492.06-5.702-2.51-7.016a4.264 4.264 0 0 0-2.161-.466zm-12.761 1.79c-2.277-.012-4.224 1.954-4.39 4.19-.389 2.616 1.08 5.38 3.526 6.428 2.807 1.335 6.81-.4 7.256-3.603.378-2.543-1.441-4.796-3.423-6.145-.874-.58-1.916-.905-2.969-.87zm1.019-11.198c-1.79.082-3.682.242-5.269 1.14-1.697 1.031-2.249 3.405-1.28 5.118.909 1.581 1.857 3.23 3.285 4.4 1.464 1.127 3.53.98 5.045.037 1.834-1 3.46-2.346 5.032-3.709 1.49-1.455 1.434-4.147-.193-5.475-1.345-1.204-3.274-1.241-4.974-1.457a18.833 18.833 0 0 0-1.646-.054zm-12.055 7.52c-1.794.398-3.04 2.166-2.951 3.98-.04 1-.025 2.138-.833 2.87-1.41 1.681-1.113 4.01-.74 6.004.272 2.028 2.314 3.622 4.35 3.254 1.937-.258 3.058-2.053 4.07-3.53 1.576-2.51 2.303-5.648 1.669-8.568-.476-1.686-1.823-3.08-3.378-3.815-.682-.31-1.459-.308-2.187-.195zm-6.137-3.47c-1.985-.072-4.013.316-5.692 1.42-2.888 1.792-4.957 5.125-4.679 8.59.074 1.952 1.092 3.945 2.833 4.903 1.617 1.585 4.083 1.783 6.198 1.332 2.664-.549 5.228-1.948 6.96-4.068 1.376-1.776 1.446-4.208 1.112-6.338-.454-2.797-2.604-5.524-5.56-5.802-.39-.038-.781-.04-1.172-.037zm-6.154 15.232c-.243-.024-.204-.036 0 0zm1.433 1.073c-.032-.004-.189-.052 0 0zm.008.002c.046.012-.018-.004 0 0zm-39.64 39.262c-3.921.278-7.432 4.067-6.807 8.077.195 2.49 3.033 4.272 5.346 3.265 1.974-.947 3.448-2.71 4.732-4.438 1.415-1.851 1.282-4.862-.779-6.19-.723-.505-1.615-.738-2.492-.714zm-3.04-10.366c-7.084-.227-14.155 5.207-14.18 12.594-.17 4.244.186 10.224 4.665 12.123 4.319.714 7.009-4.108 6.956-7.766.798-2.598 2.057-6.008 5.439-5.378 3.541.116 9.27-.687 8.76-5.486-1.214-4.684-7.496-6.03-11.64-6.087zm21.783 19.069c-4.918 1.064-3.94 7.094-5.089 10.747-3.974 3.324-10.738 2.301-13.363 7.116-.968 5.025 5.528 6.307 9.304 6.938 8.03 1.122 16.239-5.734 15.542-14.046-.06-4.038-.937-11.07-6.394-10.755zM12.342.203C4.047 1.656-1.749 10.56.481 18.72c3.1 8.348 8.46 15.732 12.562 23.634 5.403 8.782 9.584 18.408 15.923 26.548 31.408 31.369 63.147 62.532 94.148 94.148-2.922 2.042-7.053 1.77-10.016 4.078-7.51 4.92-14.15 11.478-18.982 19.052-1.579 3.264-2.258 6.928-5.41 9.197-9.85 9.828-19.432 19.597-29.947 28.743-5.293.887-8.945 5.054-13.295 7.67-6.986.602-14.592 2.413-18.74 8.648-2.748 3.585-3.447 8.285-7.008 11.322-4.932 4.58-8.01 11.141-6.679 17.944.672 3.042-.093 5.76-1.546 8.436-3.876 9.191 3.35 20.643 13.379 20.845 3.66.7 6.86-1.813 10.23-2.105 6.658.878 14.251 1.673 19.535-3.406 3.486-2.844 7.017-5.76 11.57-6.482 8.255-3.09 11.474-12.045 12.533-20.049 3.414-3.777 6.484-7.886 8.93-12.332 10.163-11.238 21.475-21.416 33.05-31.168 10.65-1.513 18.207-10.175 25.167-17.612 2.818-3.016 4.169-7.029 5.25-10.834 1.758-3.69 3.765-2.4 5.725.26 9.636 9.433 19.082 18.817 28.444 28.395-.738 9.285 7.478 15.257 13.518 20.887 6.156 5.596 15.322 6.337 23.023 4.005 6.17 5.872 12.59 11.783 18.417 17.836-2.448 18.127 15.439 35.331 33.42 32.528 3.383-.47 6.383-2.78 9.821-1.434 12.231 1.332 23.159-11.968 19.496-23.71 4.003-10.237 1.674-22.697-6.685-30.097-6.18-6.693-15.409-10.5-24.523-9.163-4.834-3.521-7.845-9.005-13.036-12.113-1.213-2.56-4.259-4.397-5.28-6.617 2.28-7.163 1.425-15.406-3.772-21.124-5.413-7.042-12.56-15.284-22.408-14.232-8.741-8.118-17.785-17.163-26.454-25.852 6.634-5.197 13.522-11.197 16.435-19.353.09-3.402 4.528-1.76 6.626-3.264 4.296-1.03 6.385-5.527 10.752-6.202 6.51-2.314 12.88-6.934 14.61-13.971 8.67-.37 16.003-5.269 22.564-10.481 2.882-3.227 5.5-1.924 8.504.122 6.64 2.97 13.53-.661 18.838-4.645 5.886-2.865 12.367-5.729 15.365-12.023 2.733-5.654 8.617-10.051 8.383-16.915.314-6.713-3.705-12.59-7.332-17.888 5.29-4.035 8.213-11.154 5.932-17.607 2.782-7.091-1.167-14.588-6.741-19.07-4.743-5.541-11.945-10.206-19.527-8.24-6.264-2.774-13.586-.633-18.325 4.055-6.26-5.298-14.385-11.265-23-7.912-4.772 1.732-8.086 5.988-13.08 7.298-6.8 2.907-8.771 10.398-12.97 15.742-6.034 5.344-8.049 15.247-2.504 21.629-2.754 5.43-8.67 9.656-11.607 15.39-1.722 3.085-2.683 6.57-2.864 10.095-8.105 1.892-13.611 9.369-15.951 16.974-4.328 3.043-6.758 8.299-7.944 13.05-9.802 2.063-16.976 9.935-22.9 17.493-29.82-28.725-58.836-58.3-89.283-86.367-9.783-8.555-21.8-13.965-32.906-20.55C33.868 7.925 26.306 2.442 17.528.2c-1.726-.402-3.445-.089-5.186.003zM281.708 31.68c9.255.416 14.95 12.198 9.46 19.694-1.312 2.42-3.94 5.003-6.138 2.015 2.483 1.87 1.77 2.827-1.274.608-2.986-1.396-.351-.29.877 1.161 2.295 2.522-4.57 2.543-6.371 2.467-8.793-.27-13.703-10.96-9.632-18.317 1.28-1.232 3.514 4.992 3.495 4.496-.324-2.317-1.516-4.656-2.171-6.69 2.594 2.978 2.842 3.816.787-.118.534-2.822 4.72-4.44 7.469-5.112 1.147-.253 2.329-.276 3.498-.204zm-19.733 4.042c3.27-.614 3.943 3.871 3.083 6.093-2.063 2.416-7.523 4.707-9.376.961-1.132-3.583 2.65-7.55 6.293-7.054zm21.897 23.907c2.546-.158 5.051 1.22 4.048 4.063-.648 3.271-3.543 5.671-6.961 4.953-3.374.562-2.066-4.078-1.677-5.965.484-2.612 2.1-3.368 4.59-3.051zm-66.815 21.108c6.209.781 10.92 6.305 12.227 11.922 9.673 2.321 14.259 16.597 6.312 23.21-8.006 5.15-19.816-.837-20.512-10.315-9.572-1.638-14.99-14.89-8.333-22.263 2.854-2.293 6.726-3.093 10.306-2.554zm8.66 11.38c.25 0-.228-.008 0 0zm-.901.014c.058.007.32-.026 0 0zm1.873.039c.241.017-.204-.025 0 0zm-2.96.064c.131.007.677-.112 0 0zm4.262.116c.205.034-.204-.043 0 0zm-5.323.088c.158-.012.712-.185 0 0zm-.801.228c.164-.026.745-.257 0 0zm-.664.244c.169-.041.766-.322 0 0zm-.54.245c.165-.052.772-.385 0 0zm-.497.265c.16-.06.768-.446 0 0zm8.96-.076c.026.193-.02-.237 0 0zm-9.52.423c.161-.07.735-.503 0 0zm-.592.43c.156-.082.69-.555 0 0zm10.172.03c.013.268 0-.203 0 0zm-10.789.495c.157-.105.624-.587 0 0zm-.403.4c.069-.057.291-.309 0 0zm-.43.466c.069-.066.269-.314 0 0zm-.178.21c-.457.577.425-.521 0 0zm11.775-.117c-.009.205.02-.2 0 0zm-12.135.609c.077-.088.36-.538 0 0zm-.29.457c.067-.08.292-.502 0 0zm12.24.421c-.03.204.045-.226 0 0zm-12.62.258c.057-.073.228-.466 0 0zm-.48 1.045c.05-.07.16-.434 0 0zm12.83-.108c-.056.224.069-.234 0 0zm-.343 1.072c-.083.24.092-.234 0 0zm-12.998.546c.042-.066.088-.399 0 0zm12.595.419c-.235.53.24-.48 0 0zm-.525.995c-.27.488.354-.581 0 0zm-12.461.584c.03-.065.024-.366 0 0zm12.079.016c-.35.527.409-.575 0 0zm-.32.432c-.76.922.346-.398 0 0zm-.283.345c-.846.85-.034.027 0 0zm-.412.412c-.729.595-.376.331 0 0zm-.777.603c-.575.409.528-.35 0 0zm-.6.382c-.581.354.488-.27 0 0zm-9.77.22c.023-.062-.042-.333 0 0zm8.775.305c-.48.24.53-.235 0 0zm-.965.403c-.234.092.24-.083 0 0zm-1.072.342c-.233.07.224-.055 0 0zm-1.195.27c-.226.046.204-.03 0 0zm-4.284.095c-.092-.035-.414-.04 0 0zm2.8.091c-.207.02.197-.009 0 0zm-1.678.02c.493.043.104-.017 0 0z" style="fill:#fff;stroke-width:.145643"/><path d="M13.79 13.77c.2.5 5.9 10.7 12.8 22.7l12.5 21.8 27.5 27.5c15.1 15.2 38.9 38.7 52.8 52.4 29.1 28.4 27.2 24.1 14.9 34.7-5.5 4.8-7.4 5.9-10.3 5.9-3.1 0-4.6 1-10.4 6.6-5.5 5.3-7 7.4-7.5 10.6-.6 3.4-2.5 5.7-14.8 17.7-24.2 23.5-26.4 25.3-28.4 24.7-1.3-.4-2.8.4-4.9 2.5-3.5 3.8-8.1 5.9-12.9 5.9-4.9 0-7.5 1.6-7.5 4.5 0 1.4-2 4.6-5.1 8.2l-5.1 5.8.6 6c.5 5 .2 6.6-1.5 9.4-2.4 4-2 4.8 1.5 2.6 2.1-1.4 3.9-1.6 9.4-1l6.8.7 5.9-4.6c3.7-3 6.9-4.6 8.6-4.6 3.1 0 4.9-2.3 4.9-6.4 0-4.4 3-10.4 6.7-13.2 2.4-1.8 3.3-3.2 3-4.5-.5-1.9 12.1-14.8 31.6-32.2 8.6-7.5 10.4-8.7 13.5-8.7 3.2 0 4.8-1 11-6.8s7.2-7.3 7.2-10.1c0-2.9 1.2-4.6 8.4-11.9l8.4-8.6 24.6 23.9c13.5 13.1 24.6 24.3 24.6 24.8 0 .6-.8 1.9-1.7 2.9-1.6 1.8-1.4 2.1 2.7 6.3 6.4 6.6 8.8 7.2 16 4.6 6.8-2.5 9-1.9 11.5 2.8.8 1.6 3 3.8 4.8 4.9 1.9 1.1 4.2 3.3 5.2 4.9.9 1.6 3 3.6 4.6 4.5 1.6 1 3.4 2.8 4 4.2.7 1.5 2.6 3 4.5 3.6 3.8 1.3 3.9 1.5 1.9 5-4.4 7.8 2 19.1 11.7 20.6 2.7.5 4.9 0 8.3-1.6 3.4-1.7 4.9-2 5.8-1.1 3.6 3.6 9.1-1 6.3-5.4-1.4-2.1-1.3-2.6.5-6.1 2.5-5 2.4-9.3-.4-13.5-4.8-7.1-12.6-9.8-19.1-6.4-3.7 1.9-3.3 2.1-5-2-.9-2-2.6-3.9-3.9-4.4-1.4-.5-3.4-2.5-4.6-4.4-1.2-1.9-3.4-4-5-4.7-1.7-.7-3.5-2.5-4.2-4.2-.8-1.9-2.5-3.6-4.5-4.4-5.2-2.2-5.9-4.5-3.4-11.6 1.2-3.4 1.8-6.9 1.4-8.1-.8-2.4-9.2-11.7-10.7-11.7-.6 0-1.9.7-2.8 1.6-1.7 1.6-2.3 1.2-9.6-5.4-4.3-3.9-15.1-14.4-24.1-23.5l-16.3-16.4 3.4-3c2.1-1.9 5.1-3.3 7.8-3.7 3.6-.6 5.5-1.8 10.2-6.4 3.7-3.6 5.7-6.5 5.7-8 0-6.1 5.4-11.2 12-11.2 3.3 0 4.2-.4 5.2-2.4.7-1.7 2.2-2.7 4.8-3.1 2-.3 5.1-1.5 6.8-2.5 2.8-1.7 3.2-2.5 3.2-6.5 0-5.5 1.6-6.5 11.1-7 6.5-.4 7.2-.7 12.7-5.1 5.9-4.9 14.3-9.4 17.5-9.4 2.3 0 5.9 1.9 7.4 3.9.8 1.1 1.6 1.3 2.6.6.8-.6 2.6-1.8 4.1-2.9 1.4-1 4.3-2.4 6.3-3.1 2.7-.9 4-2.1 4.6-4.1.5-1.6 2.3-4.4 4-6.1 3-3.2 3-3.3 1.5-6.5-3.2-6.6-7.8-11.8-12.7-14.3-6.1-3-6.7-3.9-4.7-7 2.1-3.2 3.2-3.1 6 .1l2.3 2.7 4.7-4.5 4.7-4.6-2.5-2c-3.2-2.5-3.2-2.8 0-5.5l2.5-2.2-4-4.3c-2.2-2.3-4.5-4.2-5-4.2s-1.8 1.2-2.9 2.6l-1.9 2.7-2.2-3.2-2.3-3.1-4.8 4.2-4.8 4.3 2.6 2.8 2.7 2.9-2.4 1.9c-1.3 1-2.7 1.9-3.2 1.9-.4 0-2.2-2.7-4-6-2.3-4.4-4.9-7.3-9.2-10.5-3.2-2.5-6.5-4.5-7.1-4.5-.7 0-2.3 1.1-3.6 2.5-1.3 1.4-4.1 3-6.1 3.5-3.1.9-4 1.7-4.9 4.7-.7 1.9-2.8 5.2-4.6 7.3l-3.4 3.7 2.5 2.3c5.1 4.8 2.6 12.6-7.5 23.3-5.7 6.2-6 6.7-6 11.6 0 2.8-.7 6.8-1.5 8.7-1.4 3.4-1.7 3.6-5 3-1.9-.4-4.4-.2-5.5.4-2.5 1.3-5 6.1-5 9.5 0 1.9-.7 2.8-2.7 3.6-3.5 1.3-4.3 2.6-4.3 7 0 5-5.4 9.9-10.7 9.9-2.9 0-4.6.9-8.7 4.7-5.8 5.4-7.5 7.9-7.6 11.1 0 1.2-1.7 4.1-3.9 6.4l-3.8 4.2-52.2-51.1c-42.6-41.7-53.3-51.7-58.4-54.4-3.4-1.8-14.4-7.9-24.5-13.5-10.1-5.7-18.2-9.9-18-9.4zm251.2 18.1c6.1 4.8 7.2 11.5 2.7 16s-10.1 3.5-10.1-1.8c0-1.3-.6-2.4-1.2-2.5-.7 0-1.7-.2-2.3-.3-.5-.2-1.6-.3-2.2-.4-3-.3-.3-9.9 3.4-12 2.9-1.7 6.8-1.3 9.7 1zm16.5 12.3c.8 1 .9 1.6.1 2.1-1.3.8-3-.3-3-2.1s1.4-1.8 2.9 0zm4 11.1c4.1 2.1 8.1 7.2 8.1 10.4s-3.2 6.6-7.8 8.2c-3.9 1.3-5.9.1-6.4-3.9-.2-1.9-1-2.8-2.6-3-5.2-.8-4.8-8.7.7-11.7 3.3-1.8 4.6-1.8 8 0zm-68.7 38.7c-1.8 1.9-2.2 2-2.2.6 0-.9.8-2.1 1.7-2.7 2.7-1.5 2.9-.3.5 2.1zm12.6 10.5c-.2 1-1.4 2-2.8 2.2-2.5.3-2.5.3-.6-1.8 2.3-2.6 3.9-2.7 3.4-.4z"/></svg>