<svg xmlns="http://www.w3.org/2000/svg" width="400" height="398.667" version="1.0" viewBox="0 0 300 299"><path d="M199.58 159.413c-12.524-.1-24.948 6.435-32.355 16.453-7.654 11.138-9.547 25.678-6.956 38.749 4.72 16.633 20.659 30.242 38.397 29.495 9.814.364 20.45-.053 28.438-6.554 16.19-11.37 22.234-34.375 14.176-52.368-6.414-16.33-24.268-27.24-41.7-25.775zM155.981-1.777c-32.197.722-61.415 22.228-75.832 50.373-7.814 15.044-12.772 32.02-12.263 49.066.407 12.104 9.92 23.473 22.261 24.5 11.715 1.841 23.259-6.495 26.24-17.771 3.321-11.543 3.105-24.489 10.662-34.48 6.428-9.065 15.19-17.844 26.445-20.131 3.803-.35 8.073-.244 10.532 3.185 5.936 5.161 8.395 13.343 8.718 20.954-.99 3.646-1.485 7.466-4.773 9.842-24.555 25.912-49.814 51.151-75.329 76.115-3.896 3.56-8.112 8.24-12.67 11.614-7.238 1.489-13.963 4.767-21.34 5.744-20.86 4.415-41.528 15.661-52.04 34.895-10.465 17.502-9.898 39.635-2.684 58.211 13.416 34.26 47.921 58.596 84.487 60.975 11.247 1.393 24.175-1.818 30.383-12.063 8.198-12.22 1.94-30.408-11.56-35.742-10.485-4.532-22.851-1.854-32.78-8.142-10.016-6.013-19.496-14.51-23.75-25.65-2.142-5.113-1.605-11.475 3.013-15.09 3.737-3.34 8.63-5.913 13.461-6.729 5.27 3.505 11.615 5.155 17.907 5.245 26.019 24.813 51.083 50.32 76.185 76.06 4.767 5.468 11.675 10.505 13.84 18.002 2.741 20.96 9.545 42.89 25.93 57.267 16.347 14.998 40.712 19.963 61.76 13.155 39.504-11.7 68.155-51.084 68.523-92.072 1.214-10.895-4.28-22.592-14.636-27-12.611-6.142-29.077.747-33.926 13.802-3.355 9.113-1.496 19.377-5.829 28.269-5.34 13.118-16.506 24.183-30.196 28.161-4.282.262-9.493.767-12.19-3.395-4.597-5.578-6.744-12.725-8.031-19.72 4.684-9.733 13.089-16.815 20.298-24.62 22.576-22.767 44.65-45.641 68.007-67.58 4.061-2.383 8.923-3.791 12.6-7.032 4.246-2.71 9.885-2.147 14.662-3.647 22.316-4.618 44.415-17.585 53.94-39.117 11.155-24.827 3.982-54.516-12.173-75.42-19.52-25.531-51.855-40.994-84.024-39.385-14.63.988-25.385 16.842-21.51 30.84 2.63 12.064 14.63 19.88 26.547 20.125 13.158.196 25.803 6.73 34.972 15.953 6.534 6.882 12.554 16.712 9.549 26.497-3.911 7.359-13.208 9-20.575 10.896-2.907.392-6.4 2.18-8.283-1.057-29.879-28.12-58.65-57.384-87.63-86.423.608-8.481-2.783-17.181-9.34-22.68-3.734-16.947-10.103-34.03-22.907-46.287-11.57-11.973-27.955-18.96-44.65-18.513Zm44.758 128.948c24.44 24.03 48.58 48.36 72.837 72.574-23.654 25.085-48.058 49.2-72.949 73.137-2.53 2.019-4.899-4.09-7.363-5.342l-67.58-67.638c24.738-24.52 49.362-49.154 74.292-73.479l.425.417z" style="fill:#fff;stroke-width:.595025" transform="scale(.75)"/><path d="M111 14c-23.9 4.3-42.8 27-45.3 54.3-.6 6.1.7 8.7 4.2 8.7 2.8 0 3.6-1.8 4.9-11 1.6-11.7 6.3-21.2 14.7-29.9 10.4-10.9 22.3-15.6 33.2-13.2 5 1.1 6.6 2.1 11.4 7 4.4 4.5 6.1 7.1 7.7 12.2 3.3 10.1 3.6 13.3 1.7 18.3-.9 2.4-1.4 5-1 5.6.5.8-13 15-37.1 39.1C69.8 140.7 67.3 143 64 143c-2 0-4.4.6-5.5 1.4-1.1.7-4.2 1.7-6.9 2.1-27 3.9-41.8 21.3-37.2 43.5 4.8 23 27.3 41.8 52.2 43.7 8.2.6 10.4-.3 10.4-4.3 0-2.8-3.1-4.4-8.8-4.4-20-.1-43-19.7-45.7-38.9-2-14.7 8.6-26.6 27-30.3 5.2-1 5.8-.9 6.7.6 1.6 2.9 7.2 4.8 10.4 3.5 2.7-1 3.8 0 39.1 35.3 20 20 36.3 37 36.3 37.9 0 .9.9 2.8 2 4.2 1.1 1.4 2 4 2 5.9 0 5.3 3.6 18.4 6.7 24.1 7.4 13.7 21.1 20.5 35.9 17.8 23.5-4.3 42.9-27 45.1-52.8.7-8-.3-10.3-4.3-10.3-2.9 0-4.4 2.7-4.4 8.2-.1 16.3-12.2 34.8-27.8 42.6-6.6 3.2-8.5 3.7-14.6 3.7-5.7 0-8-.5-11.6-2.5-8-4.5-13.8-14.7-15.9-28.1-.9-5.7-.9-6.4.9-7.6 1-.7 2.4-3 3-5.1.9-2.9 9-11.5 35.8-38.4 19-19.1 34.9-34.5 35.3-34.2 1.3.7 6.3-1.6 7.9-3.7 1.2-1.5 3.6-2.3 9-3 25-3.5 39.3-16.4 39.3-35.4 0-25.2-22.8-48.2-51.3-51.8-9.7-1.2-12-.5-12 3.7 0 3.2 1.9 4.6 6.2 4.6 11.8 0 26.1 6.2 35.3 15.5 15 14.9 17.4 33.8 5.8 44.7-4.7 4.5-13.1 8-22.9 9.6-8.7 1.5-9.4 1.5-11.2-.1-1-.9-2.3-1.7-2.8-1.7s-17.4-16.5-37.5-36.6l-36.6-36.6.5-4.7c.4-4.3.2-5-2.7-7.4-2.4-2-3.4-3.9-4.2-8.1-4.7-25.4-21.1-39.4-41.9-35.6zm75.6 96.2 36.1 36.3-.4 4.1c-.5 3.9-2.4 6-34.3 37.9-32.6 32.6-33.9 33.7-37.8 33.9l-4.1.2-36.3-36.3L73.5 150l38-38c20.9-20.9 38.2-38 38.5-38 .3 0 16.8 16.3 36.6 36.2z"/><path d="M142.8 136c-5.7 3.1-8.2 7.4-8.6 15-.3 5.5 0 7 2 9.9 4.2 6.1 7.1 7.6 15.1 7.6 5.9 0 7.8-.4 10.5-2.3 10.2-7.3 9.2-24.1-1.8-29.9-5.3-2.8-12.1-3-17.2-.3z"/></svg>