<svg xmlns="http://www.w3.org/2000/svg" width="400" height="399" version="1.0" viewBox="0 0 300 299"><path d="M200 159a41 41 0 0 0-33 17 52 52 0 0 0-7 39c5 16 21 30 39 29 9 1 20 0 28-6a44 44 0 0 0 14-53 42 42 0 0 0-41-26zM156-2c-32 1-61 22-76 51-8 15-13 32-12 49 0 12 10 23 22 24a24 24 0 0 0 26-18c4-11 3-24 11-34 6-9 15-18 26-20 4-1 8-1 11 3 6 5 8 13 9 21-1 4-2 7-5 10a2702 2702 0 0 1-76 76l-12 12-22 5c-20 5-41 16-52 35a67 67 0 0 0-2 58 99 99 0 0 0 84 61c11 2 24-1 31-12 8-12 2-30-12-35-10-5-23-2-33-9-10-6-19-14-23-25-3-5-2-12 3-15a28 28 0 0 1 13-7 33 33 0 0 0 18 5l76 76c5 6 12 11 14 18 3 21 10 43 26 57 16 15 41 20 62 14a99 99 0 0 0 68-92c1-11-4-23-14-27a26 26 0 0 0-34 13c-4 9-2 20-6 29a48 48 0 0 1-30 28c-5 0-10 1-13-4a43 43 0 0 1-8-19c5-10 13-17 21-25 22-23 44-46 68-68 4-2 9-3 12-7l15-3c22-5 44-18 54-39 11-25 4-55-12-76a102 102 0 0 0-84-39c-15 1-26 17-22 31 3 12 15 20 27 20a52 52 0 0 1 35 16c6 7 12 16 9 26-4 8-13 9-20 11-3 1-7 2-9-1l-87-86c1-9-3-18-9-23-4-17-10-34-23-46a60 60 0 0 0-45-19Zm45 129 73 73-73 73c-3 2-5-4-8-6l-67-67 74-73z" style="fill:#fff;stroke-width:.595025" transform="scale(.75)"/><path d="M111 14c-24 4-43 27-45 54-1 6 0 9 4 9 3 0 4-2 5-11a51 51 0 0 1 15-30c10-11 22-15 33-13 5 1 6 2 11 7 5 4 6 7 8 12 3 10 3 13 2 18-1 3-2 5-1 6 0 1-13 15-38 39-35 36-38 38-41 38l-5 1-7 3c-27 3-42 21-38 43 5 23 28 42 53 44 8 0 10-1 10-5 0-2-3-4-9-4-20 0-43-20-45-39-2-15 8-27 27-30h6c2 3 7 5 11 4 2-1 3 0 39 35a629 629 0 0 1 38 42l2 6c0 5 4 19 7 24a33 33 0 0 0 36 18c23-4 42-27 45-53 0-8-1-10-5-10-3 0-4 3-4 8a52 52 0 0 1-28 43 26 26 0 0 1-14 3c-6 0-8 0-12-2-8-5-14-15-16-28-1-6-1-7 1-8l3-5c1-3 9-11 36-38l35-34 8-4c1-2 4-2 9-3 25-4 39-17 39-36 0-25-23-48-51-51-10-2-12-1-12 3s2 5 6 5c12 0 26 6 35 15 15 15 18 34 6 45-4 5-13 8-23 10h-11l-3-2-37-37-37-36 1-5c0-4 0-5-3-7l-4-8c-5-26-21-40-42-36zm76 96 36 37-1 4c0 3-2 6-34 37-33 33-34 34-38 34l-4 1-36-37-36-36 38-38 38-38 37 36z"/><path d="M143 136c-6 3-8 7-9 15 0 6 0 7 2 10 4 6 7 8 15 8 6 0 8-1 11-3 10-7 9-24-2-30a19 19 0 0 0-17 0z"/></svg>