<?xml version="1.0" standalone="no"?>
<!DOCTYPE svg PUBLIC "-//W3C//DTD SVG 20010904//EN"
 "http://www.w3.org/TR/2001/REC-SVG-20010904/DTD/svg10.dtd">
<svg version="1.0" xmlns="http://www.w3.org/2000/svg"
 width="315.000000pt" height="330.000000pt" viewBox="0 0 315.000000 330.000000"
 preserveAspectRatio="xMidYMid meet">
<metadata>
Created by potrace 1.16, written by Peter Selinger 2001-2019
</metadata>
<g transform="translate(0.000000,330.000000) scale(0.100000,-0.100000)"
fill="#000000" stroke="none">
<path d="M1295 3140 c-3 -5 -24 -10 -46 -10 -63 0 -49 -23 31 -53 106 -39 334
-243 420 -376 73 -113 87 -129 120 -136 25 -6 28 -9 20 -25 -16 -30 -12 -52
25 -148 39 -101 45 -131 52 -250 6 -94 9 -98 111 -122 29 -6 68 -23 88 -36 19
-13 42 -24 50 -24 8 0 47 -17 87 -37 68 -35 77 -36 165 -35 50 0 92 -3 92 -8
0 -5 10 -12 23 -16 12 -3 58 -41 102 -83 63 -60 101 -87 170 -120 109 -52 132
-71 140 -123 4 -21 18 -51 31 -66 l23 -27 1 171 c0 163 -1 172 -20 177 -26 7
-26 27 1 34 15 4 19 12 16 27 -3 12 -10 48 -17 81 -12 59 -43 161 -93 300 -16
44 -33 74 -46 80 -15 7 -19 16 -15 32 17 66 -246 392 -304 376 -16 -4 -18 0
-15 24 4 25 -4 35 -64 82 -90 72 -160 116 -265 168 -130 65 -258 111 -319 117
-30 2 -74 12 -98 20 -34 13 -87 16 -252 16 -128 0 -210 -4 -214 -10z"/>
<path d="M1920 1893 c0 -74 -7 -110 -41 -223 -22 -74 -51 -154 -65 -177 l-24
-41 49 -32 c34 -21 83 -39 153 -55 182 -41 186 -42 212 -83 25 -40 141 -154
192 -190 18 -12 65 -34 104 -50 40 -15 76 -34 81 -42 4 -8 23 -49 42 -90 18
-41 46 -90 61 -107 l28 -33 22 28 c93 112 149 229 210 433 50 170 50 175 -44
221 -70 34 -82 37 -168 37 l-93 1 -55 51 c-46 44 -54 57 -54 88 -1 58 -17 71
-93 71 -36 0 -69 5 -72 10 -3 6 -20 10 -36 10 -22 0 -32 6 -39 25 -9 23 -14
25 -79 25 l-70 0 -43 52 c-70 84 -146 158 -163 158 -12 0 -15 -15 -15 -87z"/>
<path d="M1662 1264 c-31 -40 -42 -63 -42 -90 0 -56 -14 -74 -54 -67 -43 7
-103 -13 -117 -38 -6 -11 -31 -29 -56 -40 -25 -10 -56 -28 -69 -38 l-24 -19
37 -32 c21 -18 58 -62 83 -98 l45 -67 135 -5 134 -5 11 -35 c5 -19 28 -60 51
-90 23 -30 44 -63 47 -72 5 -14 17 -18 51 -18 29 0 62 -10 98 -28 29 -16 64
-31 76 -34 16 -4 30 -23 44 -57 12 -28 29 -53 39 -56 11 -4 15 -13 11 -30 -3
-20 0 -25 17 -25 27 0 177 88 251 148 93 74 230 213 230 233 0 24 -39 44 -126
64 -38 9 -79 22 -91 30 -12 8 -29 15 -38 15 -9 0 -37 33 -62 73 -43 67 -54 77
-137 124 -57 32 -117 58 -161 68 -64 14 -75 21 -141 85 -40 39 -78 70 -86 70
-8 0 -24 12 -35 28 -11 15 -34 35 -50 44 l-29 17 -42 -55z"/>
<path d="M152 1013 c55 -123 198 -333 284 -419 146 -143 344 -271 503 -323 35
-11 70 -26 77 -32 8 -7 31 -9 54 -6 29 4 40 1 40 -8 0 -15 42 -34 88 -38 17
-2 35 -7 39 -10 3 -4 39 -7 78 -7 40 0 87 -5 104 -11 25 -9 43 -9 72 0 30 9
43 9 59 -1 16 -10 24 -10 40 0 11 7 53 12 99 12 44 0 82 4 85 8 2 4 19 9 38
10 18 1 59 10 91 19 64 18 70 32 40 85 -21 37 -140 98 -190 98 -25 0 -33 4
-33 18 0 11 -13 23 -34 30 -21 8 -48 31 -69 60 -31 41 -44 49 -103 67 -44 13
-72 28 -79 40 -34 66 -69 115 -81 115 -9 0 -14 11 -14 28 -1 39 -19 73 -67
127 -40 44 -45 47 -80 42 -73 -11 -238 -51 -241 -59 -5 -11 -369 -10 -376 1
-3 4 -26 11 -51 15 -70 9 -221 62 -303 107 -41 21 -72 36 -70 32z"/>
</g>
</svg>
