<?xml version="1.0" encoding="UTF-8" standalone="no"?>
<svg
   xmlns:dc="http://purl.org/dc/elements/1.1/"
   xmlns:cc="http://creativecommons.org/ns#"
   xmlns:rdf="http://www.w3.org/1999/02/22-rdf-syntax-ns#"
   xmlns:svg="http://www.w3.org/2000/svg"
   xmlns="http://www.w3.org/2000/svg"
   xmlns:sodipodi="http://sodipodi.sourceforge.net/DTD/sodipodi-0.dtd"
   xmlns:inkscape="http://www.inkscape.org/namespaces/inkscape"
   version="1.0"
   width="606.000000pt"
   height="496.000000pt"
   viewBox="0 0 606.000000 496.000000"
   preserveAspectRatio="xMidYMid meet"
   id="svg6"
   sodipodi:docname="ahrimane.svg"
   inkscape:version="1.0.1 (3bc2e813f5, 2020-09-07)">
  <metadata
     id="metadata12">
    <rdf:RDF>
      <cc:Work
         rdf:about="">
        <dc:format>image/svg+xml</dc:format>
        <dc:type
           rdf:resource="http://purl.org/dc/dcmitype/StillImage" />
      </cc:Work>
    </rdf:RDF>
  </metadata>
  <defs
     id="defs10" />
  <sodipodi:namedview
     pagecolor="#ffffff"
     bordercolor="#666666"
     borderopacity="1"
     objecttolerance="10"
     gridtolerance="10"
     guidetolerance="10"
     inkscape:pageopacity="0"
     inkscape:pageshadow="2"
     inkscape:window-width="1600"
     inkscape:window-height="837"
     id="namedview8"
     showgrid="false"
     inkscape:zoom="1.0131048"
     inkscape:cx="246.06965"
     inkscape:cy="330.66667"
     inkscape:window-x="-8"
     inkscape:window-y="-8"
     inkscape:window-maximized="1"
     inkscape:current-layer="svg6" />
  <path
     style="fill:#ffffff;stroke-width:0.987065"
     d="m 472.69739,-15.305286 c -11.312,-0.249319 -21.33809,5.5936277 -32.26529,7.4552771 -13.96423,5.2234969 -28.24154,9.7007789 -41.88494,15.7189675 -9.50854,3.9457224 -19.01939,7.8648464 -28.42739,11.9937904 -6.6305,4.087572 -13.22676,9.005767 -20.17492,12.183249 -21.95445,0.907448 -44.1769,-0.553085 -65.92912,2.940817 -18.49868,5.805306 -39.42005,8.442639 -54.08613,22.326556 -7.35567,7.072876 -16.52323,12.210163 -23.50833,19.831903 -11.19322,8.576764 -20.98946,18.787044 -32.94907,26.353856 -8.35124,7.2018 -19.0578,10.76286 -27.93084,17.18109 -16.47875,3.98798 -32.23125,15.26744 -36.29777,32.48253 -3.5142,12.76139 -1.86857,27.01109 3.09229,38.77313 -14.899079,10.625 -28.633575,22.7222 -42.553666,34.59546 -12.020079,9.03656 -21.301599,21.47428 -33.922637,29.65822 -11.907256,5.11685 -22.324353,12.83902 -33.4294259,19.37116 -17.3115821,11.13598 -24.8200711,34.5039 -16.9012331,53.56558 0.923725,8.69025 5.9003647,16.30451 9.5182223,23.80468 -0.2102142,21.429 3.4377103,44.1016 17.5345307,61.0844 17.170048,21.73158 37.94836,40.47043 59.733752,57.46416 19.09897,13.17108 43.879197,15.62651 66.287567,11.64235 16.0414,10.78507 34.13134,18.29693 52.2161,24.92531 6.92396,0.80511 7.26649,2.62858 2.12967,7.39038 -13.43618,19.37629 -8.92337,45.12819 -0.69727,65.65241 6.24875,14.31904 9.67918,30.20822 20.37942,42.21822 10.48525,13.20487 23.25896,25.53788 39.49222,31.04434 19.74558,14.3619 43.99915,21.30686 68.21792,22.42213 11.11169,3.27434 23.03717,2.96964 33.87388,-1.29278 18.45997,-3.70034 34.03849,-19.95515 34.28145,-39.20501 0.79451,-4.75335 -2.89396,-11.23422 3.1229,-13.50463 11.47931,-8.24815 22.82071,-16.75221 35.63457,-22.88756 6.30263,-3.5827 12.26401,-10.05037 20.20398,-7.5977 21.105,3.08597 42.74213,1.50059 63.5491,6.47087 7.4481,0.92569 15.2263,0.50195 21.62572,5.01339 24.57608,10.46995 56.61754,-5.17162 62.52052,-31.47232 22.61134,2.91362 45.82301,-13.0624 50.02991,-35.69626 1.32389,-3.63399 -0.7009,-12.95511 5.66792,-10.19067 11.16595,2.1028 21.35757,7.78041 32.65407,9.40752 12.67585,2.37253 24.19003,8.54415 36.6795,11.47699 27.44303,5.70201 59.54371,-15.25317 60.21401,-44.36525 0.65376,-12.74976 -5.46625,-25.42482 -15.41438,-33.32754 5.86118,-18.432 -3.41237,-38.91397 -19.51244,-48.88875 -9.21182,-7.20187 -20.31935,-10.84851 -31.31175,-14.26025 20.29939,-10.70226 28.44122,-38.84641 16.13787,-58.4182 -4.82522,-8.62958 -12.97234,-14.84077 -21.64963,-19.27844 23.15524,-8.80691 33.14755,-39.11534 21.2048,-60.46037 -2.63456,-6.01298 -8.94447,-9.948 -8.25485,-17.14947 -4.20689,-5.54256 1.14467,-8.66657 4.03258,-13.15192 13.91617,-20.85835 4.51965,-51.93443 -18.12294,-62.25528 -11.09482,-3.97774 -22.2462,-7.96172 -32.82655,-13.31879 -10.57753,-3.89685 -19.93996,-10.81298 -31.23928,-12.66314 -9.20394,-4.08055 -18.54645,-7.80563 -28.08871,-11.00327 13.08726,-8.96212 30.21357,-11.33497 40.89958,-23.95665 3.1502,-3.07074 4.64162,-8.02616 9.8687,-7.28048 14.68359,-1.65404 27.69193,-10.872393 34.71586,-23.726323 14.85825,-16.631876 13.66584,-44.290742 -2.8271,-59.387691 C 683.71139,9.6664103 661.0149,9.2227395 642.60553,15.264801 620.38112,13.650186 597.5702,12.754337 575.088,10.551181 564.53032,6.8332997 553.31677,8.8827865 542.89465,11.765734 c -7.61022,0.891712 -14.92448,2.593742 -22.22823,3.898134 -6.43119,-20.1167329 -27.55302,-31.752982 -47.96903,-30.969154 z m -29.15504,8.0218285 c 0.17466,-0.044097 0.60649,-0.033003 0,0 z m 2.97854,0.3296638 c 0.043,-0.068236 0.49648,-0.3171567 0,0 z m -16.9671,10.5723886 c 1.26164,-1.4446461 1.80582,-1.7635756 0,0 z m -25.0911,2.6720147 c 2.16128,-0.4449559 2.96471,-0.4680128 0,0 z M 275.84546,38.158147 c 0.92744,-0.751515 2.62627,-1.052914 0,0 z m -3.16169,1.509515 c 2.49264,-1.355938 5.54144,-2.62595 0,0 z m -6.17108,4.459141 c 4.4956,-3.697782 6.0901,-4.409572 0,0 z m 437.88463,25.285822 c -1.19661,7.808842 0.46249,-4.170198 0,0 z M 181.31667,102.88993 c 2.2842,-0.58621 2.75572,-0.43688 0,0 z m -6.38701,1.69458 c 0.22265,-0.1562 1.18958,-0.3165 0,0 z m 2.13029,2.62575 c 0.0645,-0.0187 0.59866,-0.0635 0,0 z m 443.48701,33.61996 c 1.07233,0.28005 -0.35796,-0.0662 0,0 z m 20.66088,8.91443 c 0.22148,0.0281 -0.33197,-0.0309 0,0 z m 50.1475,21.60747 c 1.70471,0.19577 -2.21404,-0.17982 0,0 z m -448.57848,8.92598 c 20.46143,2.21447 35.72205,23.85044 31.48197,43.8974 -12.67817,1.64677 -24.35523,-7.96422 -30.82264,-18.09298 -3.49612,-6.95193 -6.97321,-16.01951 -3.73812,-23.44085 1.03307,-0.66827 1.53324,-2.95294 3.07879,-2.36357 z m 405.22861,8.81612 c 0.16144,0.0757 -0.25248,-0.1021 0,0 z m -547.73992,13.52201 c 1.23436,-1.54346 1.1142,-1.28166 0,0 z m 162.27767,27.58768 c -3.48664,0.4773 3.39266,-0.63726 0,0 z m -277.438432,95.26331 c -0.154338,-1.29132 -0.07027,-1.78358 0,0 z M 592.27102,351.262 c 1.43957,0.4835 -4.69655,-0.99963 0,0 z m -305.4541,46.05273 c 0.50614,0.51947 -1.07897,-1.02554 0,0 z m 256.23003,2.83011 c -1.88414,-1.39794 -1.93844,-1.65436 0,0 z m -217.03084,5.36138 c -1.4125,-1.49735 -0.94318,-1.09346 0,0 z m -0.0983,2.92264 c -1.80409,-1.0239 -1.462,-0.92635 0,0 z m 9.68944,5.98022 c -4.61411,10.51069 -8.92123,21.15742 -13.53551,31.67089 -3.92645,-11.99758 -13.0243,-21.1186 -21.28552,-30.25584 11.72128,-0.91423 23.47041,-1.41962 35.20081,-2.20354 z m 1.83147,-0.45691 c -0.86924,4.28729 -0.87947,3.76992 0,0 z m -37.85933,4.70591 c 0.20036,0.90132 -0.50999,-1.76198 0,0 z m 1.05068,5.55417 c 0.48995,4.12916 -0.70848,-4.27562 0,0 z m 65.35255,9.58532 c -0.3601,-0.11466 -1.52627,-0.76421 0,0 z m -124.46654,60.17818 c 5.05243,0.50253 5.87981,3.76702 5.46933,8.2416 -3.29006,-2.71758 -13.36845,-2.3213 -6.40771,-7.11918 0.59871,0.60945 0.42422,-1.44102 0.93838,-1.12242 z m 431.89862,31.55136 c -2.40109,-2.51946 -2.45546,-2.94845 0,0 z m 3.96947,4.02923 c -0.30442,-0.0798 -1.42652,-1.39892 0,0 z m -395.58159,19.92058 c 0.41539,2.82175 -0.60811,-3.10116 0,0 z M 195.793,587.53097 c -0.19463,-0.83805 -0.25387,-2.01665 0,0 z m 300.92556,7.72494 c -1.57762,-0.58385 -1.26589,-0.54247 0,0 z m -179.43949,79.74596 c -1.17454,-0.43762 -1.76305,-0.83472 0,0 z"
     id="path845"
     transform="scale(0.75000001)" />
  <path
     style="fill:#ffffff;stroke-width:0.987065"
     d="M 472.80149,-0.30460224 C 463.23044,-0.34115719 454.95072,5.181524 445.55696,6.2443409 432.18882,11.4296 418.2822,15.357856 405.2752,21.472966 c -9.51237,3.365403 -18.56203,7.946623 -27.96065,11.551288 -6.93615,5.115176 -14.75098,8.885451 -21.77904,13.928793 -22.6502,0.898682 -45.52343,-0.426293 -68.01879,2.618035 -14.63343,4.680065 -30.57951,6.881681 -43.64676,15.52699 -4.88414,4.755387 -9.85213,9.14904 -15.64176,12.84653 -9.28797,7.976764 -18.56222,15.964358 -27.94909,23.842588 -7.30598,7.18006 -16.45139,12.21748 -24.34888,18.63277 -7.64802,4.82451 -16.19858,8.2166 -23.37531,13.85168 -12.23583,2.90096 -25.78741,9.25678 -28.80803,22.71598 -3.98583,13.79986 0.91517,28.07132 7.83675,39.99926 -10.57056,7.02609 -20.74999,14.7304 -30.7166,22.6485 -15.70252,13.65506 -31.866296,26.7816 -46.837794,41.59361 -9.002783,9.356 -22.340398,12.04346 -32.20835,20.2406 -12.4946748,5.68134 -25.1529945,16.38952 -24.4491296,31.40871 1.019475,8.28693 3.18299044,16.55776 6.3580843,24.28333 2.5753041,5.59902 7.9579563,9.87233 6.3566923,16.64511 -0.2248718,18.76363 3.040439,38.73763 16.041193,53.16466 15.96244,19.59193 34.929092,36.6564 54.78209,52.21417 17.079864,11.73856 39.189994,12.25888 58.941394,8.71424 5.37564,-1.24606 8.4819,5.14596 13.26663,6.8301 15.47911,8.12001 31.32211,16.33865 48.3758,20.54714 14.43682,3.46218 30.77079,-6.55623 32.65218,-21.60746 9.29869,5.46587 19.51428,9.34442 29.77388,12.54459 -5.45521,14.38359 0.98094,29.81523 6.38082,43.23388 2.14647,6.4585 2.22596,13.74673 6.63225,19.39075 -3.32004,0.6071 -7.71375,6.33322 -8.6426,0.17543 -8.40912,-13.27595 -16.30404,-28.93795 -31.79846,-35.08613 -16.0448,-6.62431 -34.47978,6.24496 -36.46516,22.86735 -2.68563,17.56678 4.14968,34.52332 10.87699,50.30753 5.09579,19.31153 18.46686,35.52507 34.32941,47.27114 6.47359,4.33462 14.43874,5.45023 20.22325,10.93675 17.00545,10.90388 37.04799,15.63348 57.04155,16.60852 8.39525,2.18601 17.38367,3.35031 25.61549,-0.30075 12.59348,-2.10136 24.92472,-11.5392 25.36527,-25.1364 0.49587,-4.78131 -0.67885,-9.63829 -2.73605,-13.94519 5.24355,-5.05701 9.11477,-11.36447 15.95884,-14.55342 11.04215,-8.83363 23.21455,-15.99224 35.6365,-22.67164 6.05696,-4.13392 12.0582,-8.94879 19.89745,-8.34185 12.59819,0.62687 25.18083,2.71844 37.86148,2.90135 11.30194,0.35823 22.47976,1.60746 33.47515,4.09678 8.40488,0.9802 17.40247,0.60216 24.52239,5.82793 19.37024,8.57324 45.64575,-8.00794 43.12917,-29.92001 -1.24202,-4.13977 -0.96756,-6.0589 3.74098,-4.77378 13.40087,4.4365 30.24002,3.16815 39.43313,-8.77751 5.77172,-6.54564 7.15129,-16.00673 6.80275,-24.02118 3.96956,-3.79351 6.79529,-8.74284 8.0681,-14.0811 12.41032,2.57913 24.79163,5.48351 36.56959,10.38154 14.90685,3.08708 29.53211,7.40794 43.68918,13.16922 19.31105,5.94745 43.75224,-7.32166 45.97369,-28.1275 1.0633,-13.03085 -8.53769,-24.01941 -20.19241,-28.46486 10.79317,-11.93142 7.11274,-31.99905 -6.17687,-40.5005 -11.27204,-9.5508 -25.919,-12.59459 -39.6291,-16.82444 -6.98201,-3.59727 -14.58071,-5.64822 -21.96605,-8.19919 4.62895,-2.82537 8.15694,-7.18862 10.60324,-11.98165 17.87531,2.13475 36.36608,-14.44752 32.55598,-32.89384 -1.88648,-14.78922 -16.38385,-21.68951 -28.24419,-27.57562 -10.48209,-6.37786 -21.25987,-12.29692 -30.90085,-19.90499 -0.58991,-3.2731 -1.49712,-9.82038 4.03887,-6.00142 10.92995,0.82876 20.88673,8.16496 32.15093,5.20137 18.07872,-2.95491 27.77527,-25.43001 18.92112,-41.08404 -1.77627,-4.94315 -7.07332,-8.17598 -9.24604,-12.21494 1.21615,-8.20422 -2.76534,-16.58544 -8.70729,-21.98976 17.0725,-5.19653 23.96362,-27.94027 13.51044,-42.12569 -5.03475,-8.49141 -14.66173,-11.40773 -23.46013,-14.09266 -13.22858,-5.68086 -26.54136,-11.221 -39.28595,-17.81922 -8.2396,-2.33528 -16.29371,-5.01981 -24.0647,-8.77439 -12.09822,-4.51922 -24.34353,-8.65817 -36.25998,-13.68326 4.57783,-6.34531 8.89219,-12.829 15.74291,-16.93047 13.685,-11.33388 34.82988,-12.15022 44.43333,-28.549691 0.9112,-4.936523 4.42359,-5.885555 8.98302,-5.766171 11.54022,-0.697259 24.10454,-5.492291 28.91101,-16.86113 11.77694,-10.847067 12.2407,-31.161533 -0.0292,-41.817001 -11.38413,-11.291672 -28.94978,-8.947301 -42.81364,-4.47479 -24.0876,-1.501469 -48.24865,-2.695721 -72.26393,-4.943035 -10.9534,-4.854945 -21.96901,1.250934 -32.97798,2.093657 -10.46069,2.187547 -21.0458,3.609973 -31.56679,5.405722 2.9347,-17.465981 -13.22805,-32.69348012 -30.04957,-33.0088315 -1.56757,-0.13842693 -3.14213,-0.19458499 -4.71555,-0.16965174 z M 441.26748,12.987997 c 0.28968,-0.40549 1.29825,-1.228826 0,0 z m -33.51779,7.925436 c 0.40262,-0.126988 1.54011,-0.207136 0,0 z M 281.72544,51.872947 c 0.14253,-0.185273 2.19071,-0.924903 0,0 z m -5.17824,3.402675 c 2.90377,-2.384974 3.72628,-2.677555 0,0 z m 412.92463,12.642911 c -0.41547,2.599778 0.15553,-1.455368 0,0 z M 184.1564,117.58215 c 1.40711,-0.38086 1.95938,-0.28672 0,0 z m 505.98439,68.72245 c 0.34939,0.0402 -0.47772,-0.0396 0,0 z m -578.1018,25.57886 c 0.0298,-0.10188 0.74632,-0.81816 0,0 z M 0.03607015,324.11772 c -0.02827151,-0.17989 -0.02827941,-0.63743 0,0 z M 552.37008,388.42152 c -0.44345,-0.25288 -1.58652,-1.38128 0,0 z m -215.8587,6.38315 c -0.21635,-0.17626 -0.59572,-0.72312 0,0 z m -3.16555,0.61113 c -0.30259,-0.11877 -0.91026,-0.61092 0,0 z m 6.8497,3.17711 c 5.44923,2.4948 11.06387,5.16034 15.42673,9.42917 -10.79508,20.92052 -19.15943,43.06509 -28.38003,64.74141 -2.37618,6.43616 -4.57054,12.95244 -5.41536,19.80299 -6.70721,-4.67897 -10.20285,-12.45335 -16.70492,-17.30448 8.93753,-13.00954 2.91588,-30.23708 -7.43282,-40.48104 -6.5619,-7.04088 -13.16901,-14.12072 -17.62358,-22.68532 -4.46695,-2.99377 -0.26807,-5.23849 2.95348,-6.58942 13.57134,-7.14241 29.50884,-4.52383 44.20585,-6.37159 4.29577,-0.0419 8.73686,-0.96168 12.97065,-0.54172 z m 11.66741,19.38078 c 0.32564,-1.68495 0.24437,-1.0489 0,0 z m -66.13719,7.94858 c 0.31075,2.61177 -0.41307,-2.57172 0,0 z m 42.64042,46.87785 c 0.0203,-0.0903 0.39584,-0.53143 0,0 z m 356.24359,42.81008 c -1.31609,-1.37342 -1.07639,-1.30357 0,0 z m -417.67872,35.82351 c 0.19035,1.31231 -0.28916,-1.44017 0,0 z"
     id="path851"
     transform="scale(0.75000001)" />
  <g
     transform="translate(0.000000,496.000000) scale(0.100000,-0.100000)"
     fill="#000000"
     stroke="none"
     id="g4">
    <path
       d="M3515 4770 c-3 -5 -17 -10 -30 -10 -13 0 -27 -4 -30 -10 -3 -5 -21 -10 -40 -10 -19 0 -37 -4 -40 -10 -3 -5 -15 -10 -25 -10 -11 0 -35 -9 -55 -20 -20 -11 -46 -20 -59 -20 -13 0 -50 -13 -81 -30 -31 -16 -63 -30 -70 -30 -7 0 -39 -13 -70 -30 -31 -16 -65 -30 -75 -30 -10 0 -23 -7 -30 -15 -7 -9 -32 -25 -55 -35 -23 -10 -48 -26 -55 -35 -7 -8 -18 -15 -25 -15 -6 0 -20 -9 -30 -20 -17 -19 -31 -20 -281 -20 -164 0 -265 -4 -269 -10 -3 -5 -17 -10 -30 -10 -13 0 -27 -4 -30 -10 -3 -5 -21 -10 -40 -10 -19 0 -37 -4 -40 -10 -3 -5 -16 -10 -29 -10 -12 0 -26 -4 -31 -9 -6 -5 -21 -11 -35 -13 -15 -2 -30 -14 -38 -30 -7 -16 -19 -28 -26 -28 -7 0 -21 -9 -31 -20 -10 -11 -23 -20 -29 -20 -7 0 -38 -27 -71 -60 -33 -33 -64 -60 -70 -60 -6 0 -37 -27 -70 -60 -33 -33 -64 -60 -71 -60 -6 0 -19 -9 -29 -20 -10 -11 -23 -20 -30 -20 -6 0 -24 -13 -40 -30 -16 -16 -34 -30 -40 -30 -7 0 -20 -9 -30 -20 -10 -11 -28 -20 -40 -20 -12 0 -30 -9 -40 -20 -10 -11 -23 -20 -30 -20 -7 0 -20 -9 -30 -20 -10 -11 -28 -20 -40 -20 -11 0 -25 -4 -31 -9 -5 -5 -22 -11 -39 -13 -28 -3 -30 -6 -33 -47 -2 -24 2 -49 7 -54 6 -6 11 -18 11 -27 0 -29 28 -74 75 -120 25 -24 45 -52 45 -61 0 -23 -62 -69 -93 -69 -7 0 -23 -13 -35 -30 -13 -16 -29 -30 -36 -30 -7 0 -21 -9 -31 -20 -10 -11 -23 -20 -30 -20 -6 0 -24 -13 -40 -30 -16 -16 -34 -30 -40 -30 -6 0 -29 -18 -50 -40 -21 -22 -44 -40 -50 -40 -6 0 -37 -27 -70 -60 -33 -33 -64 -60 -70 -60 -6 0 -58 -47 -115 -105 -83 -83 -120 -113 -175 -139 -38 -19 -78 -36 -87 -40 -10 -3 -18 -10 -18 -15 0 -6 -30 -24 -66 -41 -70 -34 -84 -52 -66 -81 7 -10 12 -29 12 -42 0 -32 24 -77 55 -107 24 -23 25 -27 25 -156 0 -78 4 -135 10 -139 6 -3 10 -14 10 -25 0 -26 41 -100 62 -111 10 -5 18 -15 18 -22 0 -13 180 -197 193 -197 4 0 39 -30 77 -66 71 -68 109 -94 141 -94 10 0 21 -4 24 -10 8 -13 202 -13 210 0 3 6 37 10 75 10 68 0 69 -1 103 -40 19 -22 38 -40 44 -40 5 0 54 -22 108 -50 54 -27 104 -50 111 -50 8 0 29 -9 49 -20 65 -37 111 -13 66 34 -11 12 -21 27 -21 33 0 5 -9 18 -20 28 -11 10 -20 25 -20 34 0 9 -15 28 -34 43 -36 29 -66 78 -66 109 0 10 -4 20 -9 23 -14 9 -22 82 -12 109 9 22 17 25 83 30 64 4 76 3 96 -16 12 -11 22 -26 22 -32 0 -6 18 -29 40 -50 22 -21 40 -44 40 -50 0 -14 122 -135 137 -135 6 0 16 -7 23 -15 14 -16 108 -65 127 -65 7 0 29 -9 49 -20 26 -15 50 -20 88 -18 46 3 51 5 54 28 2 20 -13 40 -68 95 -38 38 -70 75 -70 81 0 6 -9 19 -20 29 -11 10 -20 24 -20 30 0 7 -7 18 -15 25 -18 15 -65 109 -65 130 0 25 50 120 64 120 7 0 25 14 41 30 16 17 36 30 46 30 9 0 41 13 70 28 51 27 61 28 204 31 82 1 154 6 159 11 13 13 123 13 131 0 3 -5 16 -10 29 -10 13 0 31 -9 41 -20 10 -11 28 -20 39 -20 13 0 45 -24 81 -60 33 -33 64 -60 71 -60 18 0 44 -35 44 -59 0 -12 -18 -40 -40 -63 -22 -23 -40 -52 -40 -63 0 -12 -9 -30 -20 -40 -11 -10 -20 -26 -20 -36 0 -9 -13 -43 -30 -74 -16 -31 -30 -63 -30 -70 0 -7 -13 -39 -30 -70 -16 -31 -30 -63 -30 -71 0 -7 -9 -29 -20 -49 -11 -20 -20 -44 -20 -55 0 -10 -4 -22 -10 -25 -5 -3 -10 -24 -10 -45 0 -22 -9 -55 -20 -75 -11 -20 -20 -44 -20 -55 0 -10 -4 -22 -10 -25 -5 -3 -10 -29 -10 -56 0 -55 -18 -72 -48 -47 -9 8 -42 27 -73 42 -32 14 -62 33 -69 41 -7 8 -18 15 -24 15 -15 0 -114 101 -130 131 -15 32 -50 32 -54 0 -2 -13 1 -28 7 -34 6 -6 11 -23 11 -38 0 -15 14 -53 30 -84 18 -34 30 -72 30 -94 0 -30 8 -44 40 -76 37 -36 40 -43 40 -96 0 -39 -5 -61 -15 -69 -22 -18 -106 -60 -120 -60 -23 0 -71 -29 -105 -65 -18 -19 -41 -35 -50 -35 -23 0 -150 132 -150 156 0 12 -9 29 -20 39 -11 10 -20 23 -20 30 0 7 -9 20 -20 30 -11 10 -20 23 -20 30 0 20 -68 78 -84 72 -25 -10 -22 -136 4 -182 11 -20 20 -42 20 -50 0 -8 9 -30 20 -50 11 -20 20 -44 20 -55 0 -10 5 -22 10 -25 6 -3 10 -16 10 -29 0 -13 9 -31 20 -41 11 -10 20 -23 20 -29 0 -7 28 -40 63 -74 49 -49 69 -62 93 -62 18 0 38 -8 49 -20 10 -11 24 -20 31 -20 7 0 18 -9 24 -20 6 -11 17 -20 24 -20 8 0 40 -13 71 -30 35 -18 72 -30 95 -30 22 0 42 -4 45 -10 3 -5 42 -10 86 -10 46 0 88 -5 99 -12 16 -10 24 -10 40 0 11 6 31 12 45 12 14 0 28 6 31 14 8 20 -24 66 -45 66 -21 0 -41 19 -41 38 0 16 63 82 77 82 13 0 83 74 97 102 6 12 31 33 55 45 24 11 60 37 80 56 20 18 53 41 73 51 20 9 40 21 43 26 3 5 34 23 69 40 35 16 69 37 76 45 7 8 18 15 25 15 6 0 20 9 30 20 11 12 31 20 51 20 18 0 36 4 39 10 3 5 37 10 75 10 38 0 72 -5 75 -10 4 -6 68 -10 160 -10 92 0 156 -4 160 -10 3 -6 30 -10 60 -10 30 0 57 -4 60 -10 3 -5 39 -10 80 -10 41 0 77 -4 80 -10 3 -5 20 -10 37 -10 19 0 41 -9 55 -22 19 -18 28 -20 55 -12 55 16 46 74 -12 74 -28 0 -85 24 -96 41 -3 6 -17 14 -30 19 -33 13 -40 37 -18 61 27 30 8 53 -47 57 -24 2 -48 7 -53 13 -6 5 -20 9 -32 9 -13 0 -26 5 -29 10 -3 6 -21 10 -39 10 -17 0 -36 4 -42 10 -5 5 -43 10 -84 12 -73 3 -75 4 -75 28 l0 25 119 3 c73 2 123 -1 130 -8 5 -5 34 -10 62 -10 29 0 56 -4 59 -10 3 -5 30 -10 60 -10 30 0 57 -4 60 -10 3 -5 30 -10 60 -10 30 0 57 -4 60 -10 3 -5 35 -10 70 -10 35 0 67 -5 70 -10 3 -6 30 -10 59 -10 28 0 57 -5 63 -11 6 -6 28 -9 49 -7 36 3 39 6 42 34 3 27 -2 34 -29 48 -20 10 -58 16 -100 16 -37 0 -71 4 -74 10 -3 5 -21 10 -40 10 -19 0 -37 5 -40 10 -3 6 -19 10 -35 10 -16 0 -45 9 -65 20 -20 11 -49 20 -65 20 -16 0 -32 4 -35 10 -3 5 -16 10 -28 11 -34 1 -82 33 -82 55 0 22 41 32 58 15 7 -7 53 -11 113 -11 58 0 106 -4 109 -10 3 -5 26 -10 50 -10 24 0 47 -4 50 -10 3 -5 44 -10 90 -10 46 0 87 -4 90 -10 10 -16 81 -12 95 5 16 20 6 45 -19 45 -11 0 -23 5 -26 10 -3 6 -21 10 -40 10 -19 0 -37 4 -40 10 -3 5 -21 10 -40 10 -19 0 -37 5 -40 10 -3 6 -26 10 -50 10 -24 0 -47 5 -50 10 -3 6 -26 10 -50 10 -24 0 -47 5 -50 10 -3 5 -21 10 -40 10 -19 0 -37 5 -40 10 -3 6 -26 10 -50 10 -24 0 -47 5 -50 10 -3 6 -21 10 -40 10 -19 0 -37 5 -40 10 -3 6 -21 10 -40 10 -19 0 -37 5 -40 10 -3 5 -17 10 -30 10 -13 0 -27 5 -30 10 -3 5 -15 10 -26 10 -24 0 -35 25 -19 45 9 11 33 14 102 13 49 -1 92 -6 94 -10 3 -4 47 -8 99 -8 52 0 97 -4 100 -10 3 -6 39 -10 80 -10 41 0 77 -5 80 -10 3 -5 35 -10 70 -10 35 0 67 -5 70 -10 3 -6 26 -10 50 -10 24 0 47 -5 50 -10 3 -5 26 -10 50 -10 24 0 47 -4 50 -10 3 -5 21 -10 40 -10 19 0 37 -4 40 -10 3 -5 26 -10 50 -10 24 0 47 -5 50 -10 3 -6 21 -10 40 -10 19 0 37 -4 40 -10 3 -5 21 -10 40 -10 19 0 37 -4 40 -10 3 -5 17 -10 30 -10 13 0 27 -4 30 -10 3 -5 17 -10 30 -10 13 0 27 -5 30 -10 3 -6 21 -10 40 -10 19 0 37 -5 40 -10 3 -5 21 -10 40 -10 19 0 37 -4 40 -10 3 -5 17 -10 30 -10 13 0 27 -4 30 -10 3 -5 15 -10 25 -10 11 0 35 -9 55 -20 43 -24 70 -24 110 -1 35 21 44 49 18 57 -39 13 -69 30 -96 57 -20 18 -39 27 -62 27 -19 0 -37 5 -40 10 -3 6 -21 10 -40 10 -19 0 -37 5 -40 10 -3 6 -30 10 -60 10 -30 0 -57 5 -60 10 -3 6 -24 10 -45 10 -22 0 -55 9 -75 20 -20 11 -47 20 -60 20 -13 0 -40 9 -60 20 -20 11 -46 20 -59 20 -33 0 -84 28 -103 56 -13 20 -23 24 -69 24 -35 0 -66 7 -89 20 -20 11 -42 20 -49 20 -8 0 -40 14 -71 30 -34 18 -72 30 -94 30 -25 0 -44 7 -56 20 -10 11 -23 20 -30 20 -7 0 -20 9 -30 20 -10 11 -30 20 -44 20 -31 0 -161 63 -186 90 -10 11 -15 26 -12 35 7 17 33 20 42 5 3 -5 39 -10 80 -10 41 0 77 -4 80 -10 3 -5 26 -10 50 -10 24 0 47 -4 50 -10 3 -5 21 -10 40 -10 19 0 37 -4 40 -10 3 -5 26 -10 50 -10 24 0 47 -4 50 -10 3 -5 21 -10 40 -10 19 0 37 -4 40 -10 3 -5 17 -10 30 -10 13 0 27 -5 30 -10 3 -6 21 -10 40 -10 19 0 37 -4 40 -10 3 -5 17 -10 30 -10 13 0 27 -4 30 -10 3 -5 21 -10 40 -10 19 0 37 -4 40 -10 3 -5 21 -10 39 -10 20 0 40 -8 51 -20 10 -11 26 -20 36 -20 10 0 34 -9 54 -20 20 -11 42 -20 50 -20 8 0 30 -9 50 -20 20 -11 42 -20 49 -20 8 0 27 -7 42 -15 40 -21 53 -19 64 10 10 25 34 33 45 15 3 -5 16 -10 29 -10 12 0 27 -5 33 -11 6 -6 21 -9 34 -7 31 4 32 38 2 54 -13 6 -31 18 -41 27 -10 10 -28 17 -40 17 -11 0 -24 5 -27 10 -3 6 -17 10 -30 10 -13 0 -27 5 -30 10 -3 6 -19 10 -35 10 -15 0 -54 14 -85 30 -31 17 -68 30 -81 30 -13 0 -39 9 -59 20 -20 11 -41 20 -49 20 -7 0 -57 23 -111 50 -54 28 -103 50 -110 50 -15 0 -141 64 -163 82 -9 8 -51 31 -94 52 -42 20 -82 43 -88 51 -7 8 -18 15 -25 15 -6 0 -20 9 -30 20 -10 11 -23 20 -29 20 -5 0 -22 12 -37 26 -15 15 -38 32 -51 38 -31 15 -31 50 1 54 13 2 28 -1 34 -7 6 -6 21 -11 33 -11 13 0 26 -4 29 -10 3 -5 15 -10 25 -10 11 0 35 -9 55 -20 20 -11 42 -20 49 -20 8 0 40 -13 71 -30 31 -16 65 -30 74 -30 9 0 22 -5 28 -11 6 -6 26 -9 44 -7 27 2 35 8 37 26 2 13 -4 32 -13 42 -10 11 -15 26 -12 35 7 17 33 20 42 5 3 -5 15 -10 25 -10 11 0 35 -9 55 -20 20 -11 44 -20 55 -20 10 0 22 -4 25 -10 3 -5 16 -10 29 -10 13 0 31 -9 41 -20 24 -27 43 -25 57 4 14 33 4 56 -25 56 -14 0 -30 7 -37 15 -18 22 -69 45 -100 45 -32 0 -55 23 -46 45 4 12 23 15 80 15 41 0 78 -4 81 -10 3 -5 17 -10 30 -10 13 0 27 -4 30 -10 3 -5 19 -10 35 -10 16 0 46 -9 66 -21 49 -27 108 -23 112 8 3 18 -10 28 -82 63 -47 22 -88 45 -91 51 -4 5 -25 18 -49 29 -23 10 -49 26 -56 35 -7 8 -18 15 -24 15 -7 0 -25 13 -41 30 -16 17 -36 30 -45 30 -22 0 -75 26 -90 45 -7 8 -23 15 -36 15 -16 0 -28 8 -34 23 -6 12 -15 30 -22 39 -19 27 4 46 35 29 31 -16 67 -11 81 12 9 15 6 21 -14 37 -14 11 -33 20 -42 20 -10 0 -33 9 -53 20 -20 11 -44 20 -55 20 -10 0 -22 5 -25 10 -3 6 -17 10 -30 10 -13 0 -27 5 -30 10 -3 6 -21 10 -39 10 -19 0 -39 7 -46 15 -15 18 -6 45 15 45 8 0 24 5 35 12 15 10 24 9 45 -2 21 -11 30 -12 45 -2 11 7 47 12 79 12 33 0 63 5 66 10 3 6 50 10 105 10 55 0 102 -4 105 -10 3 -5 21 -10 40 -10 19 0 37 -4 40 -10 3 -5 24 -10 45 -10 22 0 56 -9 76 -21 51 -28 79 -22 79 16 0 21 -7 33 -25 42 -14 7 -34 23 -45 36 -11 13 -32 32 -47 42 -35 22 -35 40 -3 61 14 9 25 22 25 28 0 23 -93 96 -122 96 -23 0 -158 72 -158 84 0 15 -58 71 -82 79 -22 8 -23 25 -3 64 18 36 66 48 130 33 22 -5 58 -6 81 -3 26 3 44 1 48 -6 4 -6 27 -11 51 -11 24 0 47 -4 50 -10 10 -16 75 -12 81 5 8 20 -13 45 -37 45 -10 0 -34 9 -54 20 -20 11 -42 20 -49 20 -7 0 -48 18 -91 40 -43 22 -85 40 -95 40 -9 0 -25 9 -35 20 -10 11 -31 20 -46 20 -16 0 -44 9 -64 20 -20 11 -42 20 -50 20 -8 0 -30 9 -50 20 -20 11 -44 20 -55 20 -10 0 -22 5 -25 10 -3 6 -15 10 -25 10 -11 0 -35 9 -55 20 -20 11 -42 20 -50 20 -8 0 -30 9 -50 20 -20 11 -49 20 -65 20 -16 0 -32 5 -35 10 -3 6 -17 10 -30 10 -13 0 -27 5 -30 10 -3 6 -16 10 -29 10 -26 0 -46 17 -46 40 0 9 20 36 45 60 25 24 45 49 45 55 0 6 14 24 30 40 17 16 30 34 30 40 0 6 14 24 30 40 17 16 30 35 30 42 0 8 8 16 18 20 9 3 33 21 53 40 36 34 199 122 229 124 28 1 75 35 75 55 0 14 -8 20 -34 22 -18 2 -38 -1 -44 -7 -6 -6 -24 -11 -39 -11 -16 0 -37 -6 -48 -12 -15 -10 -22 -10 -32 0 -17 17 1 46 32 50 12 2 38 12 57 23 18 10 51 19 73 19 21 0 42 5 45 10 3 6 25 10 49 10 23 0 46 4 52 10 5 5 43 10 84 12 68 3 75 5 78 25 2 12 14 29 28 38 19 12 24 23 22 43 -3 24 -8 27 -47 30 -24 2 -49 -2 -54 -7 -6 -6 -24 -11 -39 -11 -16 0 -37 -6 -48 -12 -16 -10 -24 -10 -40 0 -13 8 -68 12 -169 12 -89 0 -152 4 -156 10 -4 6 -55 10 -120 10 -65 0 -116 4 -120 10 -3 6 -19 10 -35 10 -16 0 -32 -4 -35 -10 -3 -5 -30 -10 -60 -10 -30 0 -57 -4 -60 -10 -3 -5 -26 -10 -50 -10 -24 0 -47 -4 -50 -10 -3 -5 -30 -10 -60 -10 -30 0 -57 -4 -60 -10 -3 -5 -44 -10 -90 -10 -46 0 -87 -4 -90 -10 -3 -5 -21 -10 -40 -10 -19 0 -37 -4 -40 -10 -3 -5 -14 -10 -25 -10 -10 0 -44 -14 -76 -30 -48 -26 -67 -30 -113 -28 -49 3 -56 6 -59 24 -4 28 45 54 100 54 42 0 59 20 38 45 -7 8 -10 21 -7 29 6 16 62 46 87 46 9 0 20 4 25 9 6 5 21 11 35 13 18 2 26 10 28 28 2 14 8 35 14 47 17 33 -13 63 -63 63 -21 0 -41 -4 -44 -10z m-1427 -1216 c2 -12 -6 -38 -17 -58 -12 -20 -21 -45 -21 -54 0 -29 -79 -92 -115 -92 -8 0 -30 -9 -50 -20 -20 -11 -54 -20 -76 -20 -62 0 -61 22 5 89 31 31 56 61 56 66 0 16 53 65 72 65 9 0 22 9 28 19 6 13 24 21 48 24 57 6 67 3 70 -19z"
       id="path2" />
  </g>
</svg>
