<?xml version="1.0" standalone="no"?>
<!DOCTYPE svg PUBLIC "-//W3C//DTD SVG 20010904//EN"
 "http://www.w3.org/TR/2001/REC-SVG-20010904/DTD/svg10.dtd">
<svg version="1.0" xmlns="http://www.w3.org/2000/svg"
 width="606.000000pt" height="496.000000pt" viewBox="0 0 606.000000 496.000000"
 preserveAspectRatio="xMidYMid meet">
<metadata>
Created by potrace 1.16, written by Peter Selinger 2001-2019
</metadata>
<g transform="translate(0.000000,496.000000) scale(0.100000,-0.100000)"
fill="#000000" stroke="none">
<path d="M3520 4770 c0 -5 -13 -10 -30 -10 -16 0 -30 -4 -30 -10 0 -5 -18 -10
-40 -10 -22 0 -40 -4 -40 -10 0 -5 -13 -10 -30 -10 -16 0 -30 -4 -30 -10 0 -5
-9 -10 -20 -10 -11 0 -20 -4 -20 -10 0 -5 -18 -10 -40 -10 -22 0 -40 -4 -40
-10 0 -5 -9 -10 -20 -10 -11 0 -20 -4 -20 -10 0 -5 -9 -10 -20 -10 -11 0 -20
-4 -20 -10 0 -5 -13 -10 -30 -10 -16 0 -30 -4 -30 -10 0 -5 -9 -10 -20 -10
-11 0 -20 -4 -20 -10 0 -5 -9 -10 -20 -10 -11 0 -20 -4 -20 -10 0 -5 -13 -10
-28 -10 -16 0 -34 -8 -42 -20 -8 -11 -22 -20 -32 -20 -10 0 -18 -4 -18 -10 0
-5 -8 -10 -18 -10 -10 0 -24 -9 -32 -20 -8 -11 -21 -20 -30 -20 -9 0 -22 -9
-30 -20 -14 -19 -26 -20 -282 -20 -172 0 -268 -4 -268 -10 0 -5 -13 -10 -30
-10 -16 0 -30 -4 -30 -10 0 -5 -18 -10 -40 -10 -22 0 -40 -4 -40 -10 0 -5 -13
-10 -30 -10 -16 0 -30 -4 -30 -10 0 -5 -12 -10 -26 -10 -29 0 -54 -21 -54 -44
0 -9 -8 -16 -18 -16 -10 0 -24 -9 -32 -20 -8 -11 -20 -20 -28 -20 -7 0 -40
-27 -72 -60 -32 -33 -64 -60 -70 -60 -6 0 -38 -27 -70 -60 -32 -33 -65 -60
-72 -60 -8 0 -20 -9 -28 -20 -8 -11 -21 -20 -28 -20 -8 0 -27 -13 -42 -30 -15
-16 -34 -30 -42 -30 -7 0 -20 -9 -28 -20 -8 -11 -26 -20 -40 -20 -14 0 -32 -9
-40 -20 -8 -11 -21 -20 -30 -20 -9 0 -22 -9 -30 -20 -8 -12 -26 -20 -42 -20
-15 0 -28 -4 -28 -10 0 -5 -18 -10 -40 -10 l-40 0 0 -50 c0 -27 5 -50 10 -50
6 0 10 -13 10 -30 0 -16 5 -30 10 -30 6 0 10 -7 10 -16 0 -8 23 -37 50 -64 29
-28 50 -58 50 -70 0 -25 -22 -50 -44 -50 -9 0 -16 -4 -16 -10 0 -5 -13 -10
-30 -10 -21 0 -30 -5 -30 -16 0 -19 -24 -44 -42 -44 -8 0 -20 -9 -28 -20 -8
-11 -21 -20 -28 -20 -8 0 -27 -13 -42 -30 -15 -16 -33 -30 -40 -30 -6 0 -29
-18 -50 -40 -21 -22 -44 -40 -50 -40 -6 0 -38 -27 -70 -60 -32 -33 -64 -60
-70 -60 -6 0 -60 -49 -120 -110 -60 -60 -116 -110 -125 -110 -8 0 -15 -4 -15
-10 0 -5 -9 -10 -20 -10 -11 0 -20 -4 -20 -10 0 -5 -9 -10 -20 -10 -11 0 -20
-4 -20 -10 0 -5 -13 -10 -30 -10 -23 0 -30 -4 -30 -20 0 -13 -7 -20 -20 -20
-11 0 -20 -4 -20 -10 0 -5 -9 -10 -20 -10 -11 0 -20 -4 -20 -10 0 -5 -7 -10
-16 -10 -8 0 -22 -6 -30 -14 -16 -17 -19 -46 -4 -46 6 0 10 -18 10 -40 0 -22
5 -40 10 -40 6 0 10 -7 10 -16 0 -9 14 -29 30 -44 l30 -28 0 -136 c0 -84 4
-136 10 -136 6 0 10 -13 10 -30 0 -16 5 -30 10 -30 6 0 10 -9 10 -20 0 -11 5
-20 10 -20 6 0 10 -9 10 -20 0 -13 7 -20 20 -20 11 0 20 -7 20 -15 0 -20 185
-205 205 -205 8 0 15 -9 15 -20 0 -11 7 -20 16 -20 8 0 37 -22 64 -50 27 -27
56 -50 64 -50 9 0 16 -4 16 -10 0 -5 14 -10 30 -10 17 0 30 -4 30 -10 0 -6 40
-10 100 -10 60 0 100 4 100 10 0 6 32 10 75 10 67 0 79 -3 100 -25 14 -13 25
-31 25 -40 0 -10 10 -15 30 -15 17 0 30 -4 30 -10 0 -5 9 -10 20 -10 11 0 20
-4 20 -10 0 -5 9 -10 20 -10 11 0 20 -4 20 -10 0 -5 9 -10 20 -10 11 0 20 -4
20 -10 0 -5 9 -10 20 -10 11 0 20 -4 20 -10 0 -5 14 -10 30 -10 17 0 30 -4 30
-10 0 -5 9 -10 20 -10 11 0 20 -4 20 -10 0 -5 12 -10 26 -10 15 0 35 -10 45
-22 11 -11 22 -18 26 -15 3 4 -4 15 -15 26 -12 10 -22 25 -22 32 0 8 -9 21
-20 29 -11 8 -20 21 -20 30 0 9 -9 22 -20 30 -12 8 -20 26 -20 42 0 19 -5 28
-15 28 -20 0 -65 45 -65 65 0 8 -4 15 -10 15 -5 0 -10 14 -10 30 0 17 -4 30
-10 30 -5 0 -10 14 -10 30 0 17 -4 30 -10 30 -5 0 -10 9 -10 20 0 11 5 20 10
20 6 0 10 9 10 20 0 18 7 20 60 20 33 0 60 4 60 10 0 6 7 10 15 10 18 0 65
-44 65 -60 0 -7 18 -29 40 -50 22 -21 40 -43 40 -49 0 -16 127 -141 143 -141
7 0 19 -9 27 -20 8 -11 22 -20 32 -20 10 0 18 -4 18 -10 0 -5 9 -10 20 -10 11
0 20 -4 20 -10 0 -5 14 -10 30 -10 17 0 30 -4 30 -10 0 -5 9 -10 20 -10 11 0
20 -4 20 -10 0 -6 27 -10 60 -10 53 0 60 -2 60 -20 0 -24 6 -25 26 -6 21 21
17 46 -6 46 -11 0 -20 7 -20 15 0 9 -31 47 -70 85 -38 38 -70 75 -70 82 0 8
-9 20 -20 28 -11 8 -20 21 -20 30 0 9 -9 22 -20 30 -11 8 -20 22 -20 32 0 10
-4 18 -10 18 -5 0 -10 9 -10 20 0 11 -4 20 -10 20 -5 0 -10 18 -10 40 0 22 5
40 10 40 6 0 10 9 10 20 0 11 5 20 10 20 6 0 10 9 10 20 0 12 7 20 16 20 9 0
29 14 44 30 17 18 38 30 54 30 14 0 26 5 26 10 0 6 9 10 20 10 11 0 20 5 20
10 0 6 9 10 20 10 11 0 20 5 20 10 0 15 77 12 84 -2 5 -10 7 -10 12 0 4 8 37
12 115 12 66 0 109 4 109 10 0 6 30 10 70 10 40 0 70 -4 70 -10 0 -5 13 -10
28 -10 16 0 34 -8 42 -20 8 -11 25 -20 38 -20 15 0 43 -21 82 -60 32 -33 64
-60 70 -60 22 0 40 -29 40 -64 0 -29 -4 -36 -20 -36 -13 0 -20 -7 -20 -18 0
-10 -9 -24 -20 -32 -11 -8 -20 -26 -20 -40 0 -14 -9 -32 -20 -40 -12 -8 -20
-26 -20 -42 0 -15 -4 -28 -10 -28 -5 0 -10 -9 -10 -20 0 -11 -4 -20 -10 -20
-5 0 -10 -9 -10 -20 0 -11 -4 -20 -10 -20 -5 0 -10 -13 -10 -30 0 -16 -4 -30
-10 -30 -5 0 -10 -9 -10 -20 0 -11 -4 -20 -10 -20 -5 0 -10 -9 -10 -20 0 -11
-4 -20 -10 -20 -5 0 -10 -13 -10 -30 0 -16 -4 -30 -10 -30 -5 0 -10 -9 -10
-20 0 -11 -4 -20 -10 -20 -5 0 -10 -13 -10 -30 0 -16 -4 -30 -10 -30 -5 0 -10
-22 -10 -50 0 -27 -4 -50 -10 -50 -5 0 -10 -9 -10 -20 0 -11 -4 -20 -10 -20
-5 0 -10 -13 -10 -30 0 -16 -4 -30 -10 -30 -6 0 -10 -27 -10 -60 0 -51 -3 -60
-18 -60 -10 0 -24 9 -32 20 -8 11 -22 20 -32 20 -10 0 -18 5 -18 10 0 6 -9 10
-20 10 -11 0 -20 5 -20 10 0 6 -8 10 -18 10 -10 0 -24 9 -32 20 -8 11 -20 20
-27 20 -16 0 -123 105 -123 120 0 11 -65 80 -75 80 -3 0 -5 -9 -5 -20 0 -11 5
-20 10 -20 6 0 10 -13 10 -30 0 -16 5 -30 10 -30 6 0 10 -18 10 -40 0 -22 5
-40 10 -40 6 0 10 -9 10 -20 0 -11 5 -20 10 -20 6 0 10 -9 10 -20 0 -11 5 -20
10 -20 6 0 10 -21 10 -46 0 -40 5 -50 40 -84 38 -37 40 -41 40 -100 0 -63 -13
-90 -44 -90 -9 0 -16 -4 -16 -10 0 -5 -9 -10 -20 -10 -11 0 -20 -4 -20 -10 0
-5 -13 -10 -30 -10 -16 0 -30 -4 -30 -10 0 -5 -7 -10 -16 -10 -8 0 -33 -18
-54 -40 -21 -22 -48 -40 -59 -40 -30 0 -151 123 -151 153 0 12 -9 29 -20 37
-11 8 -20 21 -20 30 0 9 -9 22 -20 30 -11 8 -20 21 -20 28 0 8 -13 27 -30 42
-21 20 -30 37 -30 60 0 28 -18 60 -34 60 -3 0 -6 -54 -6 -120 0 -73 4 -120 10
-120 6 0 10 -9 10 -20 0 -11 5 -20 10 -20 6 0 10 -13 10 -30 0 -16 5 -30 10
-30 6 0 10 -9 10 -20 0 -11 5 -20 10 -20 6 0 10 -13 10 -30 0 -16 5 -30 10
-30 6 0 10 -13 10 -28 0 -16 8 -34 20 -42 11 -8 20 -20 20 -27 0 -8 29 -43 65
-78 53 -54 70 -65 98 -65 21 0 38 -7 47 -20 8 -11 22 -20 32 -20 11 0 18 -7
18 -20 0 -16 7 -20 30 -20 17 0 30 -4 30 -10 0 -5 9 -10 20 -10 11 0 20 -4 20
-10 0 -5 9 -10 20 -10 11 0 20 -4 20 -10 0 -5 23 -10 50 -10 28 0 50 -4 50
-10 0 -6 37 -10 90 -10 53 0 90 -4 90 -10 0 -5 9 -10 20 -10 11 0 20 5 20 10
0 6 40 10 100 10 60 0 100 4 100 10 0 6 -25 10 -56 10 -57 0 -84 14 -84 44 0
11 -9 16 -30 16 -16 0 -30 5 -30 10 0 6 -9 10 -20 10 -13 0 -20 7 -20 20 0 13
7 20 20 20 11 0 20 5 20 10 0 6 9 10 20 10 13 0 20 7 20 20 0 11 7 20 15 20
18 0 105 84 105 100 0 17 26 40 44 40 9 0 16 5 16 10 0 6 7 10 16 10 8 0 33
18 54 40 21 22 46 40 54 40 9 0 16 5 16 10 0 6 8 10 18 10 10 0 24 9 32 20 8
11 22 20 32 20 10 0 18 5 18 10 0 6 9 10 20 10 11 0 20 5 20 10 0 6 8 10 18
10 10 0 24 9 32 20 8 11 21 20 30 20 9 0 22 9 30 20 10 14 26 20 52 20 21 0
38 5 38 10 0 6 33 10 80 10 47 0 80 -4 80 -10 0 -6 60 -10 160 -10 100 0 160
-4 160 -10 0 -6 27 -10 60 -10 33 0 60 -4 60 -10 0 -6 33 -10 80 -10 47 0 80
-4 80 -10 0 -5 17 -10 38 -10 26 0 42 -6 52 -20 15 -21 50 -28 50 -10 0 6 9
10 20 10 11 0 20 -4 20 -10 0 -5 14 -10 30 -10 17 0 30 5 30 10 0 6 -13 10
-30 10 -21 0 -30 5 -30 16 0 26 -26 44 -64 44 -20 0 -36 5 -36 10 0 6 -8 10
-18 10 -10 0 -24 9 -32 20 -8 11 -22 20 -32 20 -10 0 -18 5 -18 10 0 6 -9 10
-20 10 -11 0 -20 7 -20 15 0 9 -9 15 -25 15 -14 0 -25 4 -25 10 0 12 183 1
188 -12 5 -12 82 -10 82 2 0 6 -13 10 -30 10 -16 0 -30 5 -30 10 0 6 -13 10
-30 10 -16 0 -30 5 -30 10 0 6 -13 10 -30 10 -16 0 -30 5 -30 10 0 6 -22 10
-50 10 -27 0 -50 5 -50 10 0 6 -13 10 -30 10 -16 0 -30 5 -30 10 0 6 -18 10
-40 10 -22 0 -40 5 -40 10 0 6 -33 10 -80 10 l-80 0 0 30 0 30 130 0 c80 0
130 -4 130 -10 0 -6 27 -10 60 -10 33 0 60 -4 60 -10 0 -6 27 -10 60 -10 33 0
60 -4 60 -10 0 -6 27 -10 60 -10 33 0 60 -4 60 -10 0 -6 30 -10 70 -10 40 0
70 -4 70 -10 0 -6 27 -10 60 -10 33 0 60 -4 60 -10 0 -5 23 -10 50 -10 28 0
50 -4 50 -10 0 -5 14 -10 30 -10 17 0 30 5 30 10 0 6 -13 10 -30 10 -16 0 -30
5 -30 10 0 6 -18 10 -40 10 -33 0 -40 3 -40 20 0 18 7 20 60 20 33 0 60 -4 60
-10 0 -5 23 -10 50 -10 28 0 50 -4 50 -10 0 -5 23 -10 50 -10 28 0 50 5 50 10
0 6 -18 10 -40 10 -22 0 -40 5 -40 10 0 6 -22 10 -50 10 -27 0 -50 5 -50 10 0
6 -27 10 -60 10 -33 0 -60 4 -60 10 0 6 -33 10 -80 10 -47 0 -80 4 -80 10 0 6
-18 10 -40 10 -22 0 -40 5 -40 10 0 6 -18 10 -40 10 -22 0 -40 5 -40 10 0 6
-9 10 -20 10 -11 0 -20 5 -20 10 0 6 -18 10 -40 10 -22 0 -40 5 -40 10 0 6
-13 10 -30 10 -16 0 -30 5 -30 10 0 6 -9 10 -20 10 -11 0 -20 5 -20 10 0 6 -9
10 -20 10 -13 0 -20 7 -20 20 0 17 7 20 50 20 28 0 50 -4 50 -10 0 -6 43 -10
110 -10 67 0 110 -4 110 -10 0 -5 23 -10 50 -10 28 0 50 -4 50 -10 0 -6 37
-10 90 -10 53 0 90 -4 90 -10 0 -5 18 -10 40 -10 22 0 40 5 40 10 0 6 30 10
70 10 40 0 70 -4 70 -10 0 -6 27 -10 60 -10 63 0 69 3 46 26 -10 9 -37 14 -80
14 -37 0 -66 4 -66 10 0 6 -30 10 -70 10 -40 0 -70 4 -70 10 0 6 -18 10 -40
10 -22 0 -40 5 -40 10 0 6 -18 10 -40 10 -22 0 -40 5 -40 10 0 6 -22 10 -50
10 -27 0 -50 5 -50 10 0 6 -22 10 -50 10 -27 0 -50 5 -50 10 0 6 -18 10 -40
10 -22 0 -40 5 -40 10 0 6 -22 10 -50 10 -27 0 -50 5 -50 10 0 6 -18 10 -40
10 -22 0 -40 5 -40 10 0 6 -18 10 -40 10 -22 0 -40 5 -40 10 0 6 -13 10 -30
10 -16 0 -30 5 -30 10 0 6 -18 10 -40 10 -33 0 -40 3 -40 20 0 13 7 20 20 20
11 0 20 5 20 10 0 15 117 13 124 -2 5 -10 7 -10 12 0 7 14 64 17 64 2 0 -6 40
-10 100 -10 60 0 100 -4 100 -10 0 -6 33 -10 80 -10 47 0 80 -4 80 -10 0 -6
30 -10 70 -10 40 0 70 -4 70 -10 0 -5 23 -10 50 -10 28 0 50 -4 50 -10 0 -5
23 -10 50 -10 28 0 50 -4 50 -10 0 -5 18 -10 40 -10 22 0 40 -4 40 -10 0 -5
23 -10 50 -10 28 0 50 -4 50 -10 0 -5 18 -10 40 -10 22 0 40 -4 40 -10 0 -5
18 -10 40 -10 22 0 40 -4 40 -10 0 -5 14 -10 30 -10 17 0 30 -4 30 -10 0 -5
14 -10 30 -10 17 0 30 -4 30 -10 0 -5 18 -10 40 -10 22 0 40 -4 40 -10 0 -5
18 -10 40 -10 22 0 40 -4 40 -10 0 -5 14 -10 30 -10 17 0 30 -4 30 -10 0 -5
14 -10 30 -10 17 0 30 -4 30 -10 0 -5 9 -10 20 -10 11 0 20 -4 20 -10 0 -5 9
-10 20 -10 11 0 20 -4 20 -10 0 -5 5 -10 10 -10 6 0 10 7 10 15 0 9 -9 15 -21
15 -11 0 -27 6 -35 14 -16 17 -19 46 -4 46 6 0 10 -4 10 -10 0 -5 14 -10 30
-10 20 0 30 -5 30 -15 0 -8 7 -15 15 -15 8 0 15 5 15 10 0 6 18 10 40 10 22 0
40 -4 40 -10 0 -5 9 -10 20 -10 11 0 20 5 20 10 0 6 -9 10 -20 10 -11 0 -20 5
-20 10 0 6 -13 10 -30 10 -16 0 -30 5 -30 10 0 6 -13 10 -30 10 -16 0 -30 5
-30 10 0 6 -9 10 -20 10 -13 0 -20 7 -20 20 0 13 -7 20 -20 20 -11 0 -20 5
-20 10 0 6 -18 10 -40 10 -22 0 -40 5 -40 10 0 6 -18 10 -40 10 -22 0 -40 5
-40 10 0 6 -27 10 -60 10 -33 0 -60 4 -60 10 0 6 -22 10 -50 10 -27 0 -50 5
-50 10 0 6 -9 10 -20 10 -11 0 -20 5 -20 10 0 6 -18 10 -40 10 -22 0 -40 5
-40 10 0 6 -9 10 -20 10 -11 0 -20 5 -20 10 0 6 -18 10 -40 10 -22 0 -40 5
-40 10 0 6 -7 10 -16 10 -20 0 -44 24 -44 44 0 13 -13 16 -70 16 -40 0 -70 4
-70 10 0 6 -9 10 -20 10 -11 0 -20 5 -20 10 0 6 -13 10 -30 10 -16 0 -30 5
-30 10 0 6 -9 10 -20 10 -11 0 -20 5 -20 10 0 6 -9 10 -20 10 -11 0 -20 5 -20
10 0 6 -22 10 -48 10 -36 0 -51 5 -62 20 -8 11 -21 20 -30 20 -9 0 -22 9 -30
20 -10 14 -26 20 -52 20 -21 0 -38 5 -38 10 0 6 -9 10 -20 10 -11 0 -20 5 -20
10 0 6 -9 10 -20 10 -11 0 -20 5 -20 10 0 6 -7 10 -15 10 -20 0 -65 45 -65 65
0 10 10 15 30 15 17 0 30 -4 30 -10 0 -6 33 -10 80 -10 47 0 80 -4 80 -10 0
-5 23 -10 50 -10 28 0 50 -4 50 -10 0 -5 18 -10 40 -10 22 0 40 -4 40 -10 0
-5 23 -10 50 -10 28 0 50 -4 50 -10 0 -5 18 -10 40 -10 22 0 40 -4 40 -10 0
-5 14 -10 30 -10 17 0 30 -4 30 -10 0 -5 18 -10 40 -10 22 0 40 -4 40 -10 0
-5 14 -10 30 -10 17 0 30 -4 30 -10 0 -5 18 -10 40 -10 22 0 40 -4 40 -10 0
-5 17 -10 38 -10 26 0 42 -6 52 -20 8 -12 26 -20 42 -20 15 0 28 -4 28 -10 0
-5 9 -10 20 -10 11 0 20 -4 20 -10 0 -5 14 -10 30 -10 17 0 30 -4 30 -10 0 -5
9 -10 20 -10 11 0 20 -4 20 -10 0 -5 14 -10 30 -10 17 0 30 -4 30 -10 0 -5 9
-10 20 -10 11 0 20 -4 20 -10 0 -5 9 -10 20 -10 11 0 20 -4 20 -10 0 -5 9 -10
20 -10 11 0 20 5 20 10 0 6 -9 10 -20 10 -11 0 -20 5 -20 10 0 6 -9 10 -20 10
-11 0 -20 7 -20 15 0 9 -9 15 -25 15 -14 0 -25 5 -25 11 0 13 123 2 128 -12 2
-5 17 -9 33 -9 16 0 29 -4 29 -10 0 -5 14 -10 30 -10 17 0 30 -4 30 -10 0 -5
14 -10 30 -10 17 0 30 3 30 6 0 11 -29 34 -42 34 -8 0 -20 9 -28 20 -8 11 -21
20 -30 20 -9 0 -22 9 -30 20 -8 12 -26 20 -42 20 -15 0 -28 5 -28 10 0 6 -13
10 -30 10 -16 0 -30 5 -30 10 0 6 -18 10 -40 10 -22 0 -40 5 -40 10 0 6 -9 10
-20 10 -11 0 -20 5 -20 10 0 6 -9 10 -20 10 -11 0 -20 5 -20 10 0 6 -18 10
-40 10 -22 0 -40 5 -40 10 0 6 -9 10 -20 10 -11 0 -20 5 -20 10 0 6 -13 10
-30 10 -16 0 -30 5 -30 10 0 6 -9 10 -20 10 -11 0 -20 5 -20 10 0 6 -9 10 -20
10 -11 0 -20 5 -20 10 0 6 -9 10 -20 10 -11 0 -20 5 -20 10 0 6 -9 10 -20 10
-11 0 -20 5 -20 10 0 6 -13 10 -30 10 -16 0 -30 5 -30 10 0 6 -9 10 -20 10
-11 0 -20 5 -20 10 0 6 -9 10 -20 10 -11 0 -20 5 -20 10 0 6 -8 10 -18 10 -10
0 -24 9 -32 20 -8 11 -22 20 -32 20 -10 0 -18 5 -18 10 0 6 -9 10 -20 10 -11
0 -20 5 -20 10 0 6 -9 10 -20 10 -11 0 -20 5 -20 10 0 6 -8 10 -18 10 -10 0
-24 9 -32 20 -8 11 -21 20 -30 20 -9 0 -22 9 -30 20 -8 11 -21 20 -28 20 -8 0
-27 14 -42 30 -15 17 -33 30 -40 30 -16 0 -40 26 -40 44 0 12 10 16 40 16 22
0 40 -4 40 -10 0 -5 14 -10 30 -10 17 0 30 -4 30 -10 0 -5 14 -10 30 -10 17 0
30 -4 30 -10 0 -5 9 -10 20 -10 11 0 20 -4 20 -10 0 -5 14 -10 30 -10 17 0 30
-4 30 -10 0 -5 9 -10 20 -10 11 0 20 -4 20 -10 0 -5 9 -10 20 -10 11 0 20 -4
20 -10 0 -5 14 -10 30 -10 17 0 30 -4 30 -10 0 -5 23 -10 50 -10 28 0 50 5 50
10 0 6 -4 10 -10 10 -5 0 -10 8 -10 18 0 10 -9 24 -20 32 -31 23 -26 50 10 50
17 0 30 -4 30 -10 0 -5 14 -10 30 -10 17 0 30 -4 30 -10 0 -5 9 -10 20 -10 11
0 20 -4 20 -10 0 -5 14 -10 30 -10 17 0 30 -4 30 -10 0 -5 13 -10 28 -10 16 0
34 -8 42 -20 8 -11 22 -20 32 -20 11 0 18 7 18 20 0 13 7 20 20 20 11 0 20 5
20 10 0 6 -9 10 -20 10 -11 0 -20 5 -20 10 0 6 -13 10 -28 10 -16 0 -34 8 -42
20 -8 11 -22 20 -32 20 -10 0 -18 5 -18 10 0 6 -18 10 -40 10 -22 0 -40 5 -40
10 0 6 -13 10 -30 10 -23 0 -30 4 -30 20 0 19 7 20 110 20 67 0 110 -4 110
-10 0 -5 14 -10 30 -10 17 0 30 -4 30 -10 0 -5 18 -10 40 -10 22 0 40 -4 40
-10 0 -5 9 -10 20 -10 11 0 20 -4 20 -10 0 -5 14 -10 30 -10 17 0 30 -4 30
-10 0 -5 5 -10 10 -10 6 0 10 9 10 20 0 17 7 20 39 20 22 0 41 -5 43 -12 3 -9
9 -8 21 4 18 18 23 68 7 68 -5 0 -10 -9 -10 -20 0 -17 -7 -20 -50 -20 -27 0
-50 5 -50 10 0 6 -9 10 -20 10 -11 0 -20 5 -20 10 0 6 -9 10 -20 10 -11 0 -20
5 -20 10 0 6 -9 10 -20 10 -11 0 -20 5 -20 10 0 6 -8 10 -18 10 -10 0 -24 9
-32 20 -8 11 -22 20 -32 20 -10 0 -18 5 -18 10 0 6 -8 10 -18 10 -10 0 -24 9
-32 20 -8 11 -21 20 -28 20 -8 0 -27 14 -42 30 -17 18 -38 30 -54 30 -14 0
-26 5 -26 10 0 6 -8 10 -18 10 -10 0 -24 9 -32 20 -8 12 -26 20 -42 20 -19 0
-28 5 -28 16 0 20 -24 44 -44 44 -9 0 -16 4 -16 9 0 5 -3 16 -6 24 -4 13 2 14
38 10 24 -3 45 -10 46 -14 2 -5 12 -9 23 -9 10 0 19 -4 19 -10 0 -5 5 -10 10
-10 6 0 10 9 10 20 0 16 7 20 30 20 17 0 30 -4 30 -10 0 -5 9 -10 20 -10 11 0
20 -4 20 -10 0 -5 9 -10 20 -10 11 0 20 -4 20 -10 0 -5 9 -10 20 -10 11 0 20
-4 20 -10 0 -5 9 -10 20 -10 11 0 20 -4 20 -10 0 -5 9 -10 20 -10 11 0 20 5
20 10 0 6 -9 10 -20 10 -11 0 -20 5 -20 10 0 6 -9 10 -20 10 -11 0 -20 5 -20
10 0 6 -9 10 -20 10 -11 0 -20 5 -20 10 0 6 -8 10 -18 10 -10 0 -24 9 -32 20
-8 12 -26 20 -42 20 -15 0 -28 5 -28 10 0 6 -9 10 -20 10 -11 0 -20 5 -20 10
0 6 -13 10 -30 10 -16 0 -30 5 -30 10 0 6 -9 10 -20 10 -11 0 -20 5 -20 10 0
6 -13 10 -30 10 -16 0 -30 5 -30 10 0 6 -13 10 -30 10 -16 0 -30 5 -30 10 0 6
-16 10 -36 10 -38 0 -64 18 -64 44 0 11 9 16 30 16 17 0 30 5 30 10 0 6 14 10
30 10 17 0 30 -4 30 -10 0 -5 9 -10 20 -10 11 0 20 5 20 10 0 6 30 10 70 10
40 0 70 4 70 10 0 6 43 10 110 10 67 0 110 -4 110 -10 0 -5 18 -10 40 -10 22
0 40 -4 40 -10 0 -5 23 -10 50 -10 28 0 50 -4 50 -10 0 -5 9 -10 20 -10 11 0
20 -4 20 -10 0 -6 27 -10 60 -10 33 0 60 -4 60 -10 0 -5 9 -10 20 -10 24 0 25
6 6 26 -8 8 -31 14 -50 14 -26 0 -36 4 -36 16 0 18 -23 44 -40 44 -17 0 -40
26 -40 44 0 9 -8 16 -20 16 -11 0 -20 5 -20 10 0 6 -13 10 -30 10 -23 0 -30 4
-30 20 0 13 7 20 20 20 11 0 20 5 20 10 0 22 53 9 80 -20 32 -34 40 -37 40
-15 0 18 -64 85 -81 85 -6 0 -24 14 -39 30 -15 17 -35 30 -44 30 -9 0 -16 5
-16 10 0 6 -13 10 -30 10 -16 0 -30 5 -30 10 0 6 -9 10 -20 10 -11 0 -20 5
-20 10 0 6 -9 10 -20 10 -11 0 -20 5 -20 10 0 6 -9 10 -20 10 -11 0 -20 7 -20
15 0 9 -16 31 -35 50 -19 19 -41 35 -50 35 -10 0 -15 10 -15 30 0 17 5 30 10
30 6 0 10 9 10 20 0 16 7 20 30 20 17 0 30 5 30 10 0 6 9 10 20 10 11 0 20 -4
20 -10 0 -5 13 -10 29 -10 16 0 32 -6 35 -12 5 -10 7 -10 12 0 3 6 23 12 45
12 32 0 39 -3 39 -20 0 -11 5 -20 10 -20 6 0 10 5 10 10 0 6 18 10 40 10 22 0
40 -4 40 -10 0 -6 30 -10 70 -10 40 0 70 -4 70 -10 0 -5 9 -10 20 -10 11 0 20
5 20 10 0 6 -9 10 -20 10 -11 0 -20 5 -20 10 0 6 -9 10 -20 10 -11 0 -20 5
-20 10 0 6 -9 10 -20 10 -11 0 -20 5 -20 10 0 6 -13 10 -30 10 -16 0 -30 5
-30 10 0 6 -9 10 -20 10 -11 0 -20 5 -20 10 0 6 -13 10 -30 10 -16 0 -30 5
-30 10 0 6 -9 10 -20 10 -11 0 -20 5 -20 10 0 6 -9 10 -20 10 -11 0 -20 5 -20
10 0 6 -9 10 -20 10 -11 0 -20 5 -20 10 0 6 -13 10 -28 10 -16 0 -34 8 -42 20
-10 14 -26 20 -52 20 -21 0 -38 5 -38 10 0 6 -9 10 -20 10 -11 0 -20 5 -20 10
0 6 -13 10 -30 10 -16 0 -30 5 -30 10 0 6 -9 10 -20 10 -11 0 -20 5 -20 10 0
6 -13 10 -30 10 -16 0 -30 5 -30 10 0 6 -13 10 -30 10 -16 0 -30 5 -30 10 0 6
-9 10 -20 10 -11 0 -20 5 -20 10 0 6 -13 10 -30 10 -16 0 -30 5 -30 10 0 6 -9
10 -20 10 -11 0 -20 5 -20 10 0 6 -18 10 -40 10 -22 0 -40 5 -40 10 0 6 -13
10 -30 10 -16 0 -30 5 -30 10 0 6 -12 10 -26 10 -26 0 -54 20 -54 40 0 6 23
33 50 60 28 27 50 54 50 60 0 7 14 25 30 40 17 15 30 33 30 40 0 7 14 25 30
40 17 15 30 35 30 44 0 9 7 16 16 16 8 0 33 18 54 40 21 22 46 40 54 40 9 0
16 5 16 10 0 6 9 10 20 10 11 0 20 5 20 10 0 6 9 10 20 10 11 0 20 5 20 10 0
6 9 10 20 10 11 0 20 5 20 10 0 6 14 10 30 10 17 0 30 5 30 10 0 6 9 10 20 10
11 0 20 5 20 10 0 6 9 10 20 10 13 0 20 7 20 20 0 17 -7 20 -50 20 -27 0 -50
-4 -50 -10 0 -5 -18 -10 -40 -10 -22 0 -40 -4 -40 -10 0 -5 -13 -10 -30 -10
-21 0 -30 5 -30 16 0 23 25 44 54 44 14 0 26 5 26 10 0 6 9 10 20 10 11 0 20
5 20 10 0 6 23 10 50 10 28 0 50 5 50 10 0 6 23 10 50 10 28 0 50 5 50 10 0 6
37 10 90 10 53 0 90 4 90 10 0 6 -30 10 -70 10 -63 0 -70 2 -70 20 0 18 7 20
76 20 78 0 104 11 104 44 0 9 8 16 20 16 11 0 20 5 20 10 0 6 14 10 30 10 17
0 30 5 30 10 0 6 12 10 26 10 23 0 54 20 54 34 0 3 -13 6 -30 6 -16 0 -30 -4
-30 -10 0 -5 -9 -10 -20 -10 -11 0 -20 -4 -20 -10 0 -5 -18 -10 -40 -10 -22 0
-40 -4 -40 -10 0 -5 -22 -10 -50 -10 -27 0 -50 -4 -50 -10 0 -5 -18 -10 -40
-10 -22 0 -40 -4 -40 -10 0 -5 -13 -10 -30 -10 -16 0 -30 5 -30 10 0 6 -60 10
-160 10 -100 0 -160 4 -160 10 0 6 -47 10 -120 10 -73 0 -120 4 -120 10 0 6
-13 10 -30 10 -16 0 -30 -4 -30 -10 0 -6 -27 -10 -60 -10 -33 0 -60 -4 -60
-10 0 -5 -22 -10 -50 -10 -27 0 -50 -4 -50 -10 0 -6 -27 -10 -60 -10 -33 0
-60 -4 -60 -10 0 -6 -37 -10 -90 -10 -53 0 -90 -4 -90 -10 0 -5 -18 -10 -40
-10 -22 0 -40 -4 -40 -10 0 -5 -13 -10 -30 -10 -16 0 -30 -4 -30 -10 0 -5 -9
-10 -20 -10 -11 0 -20 -4 -20 -10 0 -5 -9 -10 -20 -10 -11 0 -20 -4 -20 -10 0
-6 -30 -10 -70 -10 l-70 0 0 30 c0 23 4 30 20 30 11 0 20 5 20 10 0 6 23 10
50 10 28 0 50 5 50 10 0 6 18 10 40 10 22 0 40 5 40 10 0 6 -27 10 -60 10 -53
0 -60 2 -60 20 0 13 7 20 20 20 11 0 20 5 20 10 0 6 9 10 20 10 11 0 20 5 20
10 0 6 14 10 30 10 17 0 30 5 30 10 0 6 12 10 26 10 29 0 67 31 46 38 -6 2
-12 12 -12 23 0 17 8 19 90 19 53 0 90 4 90 10 0 6 9 10 20 10 11 0 20 5 20
10 0 6 -43 10 -110 10 -67 0 -110 4 -110 10 0 6 -18 10 -40 10 -22 0 -40 -4
-40 -10z m70 -66 c0 -3 -6 -12 -14 -20 -20 -19 -26 -18 -26 6 0 13 7 20 20 20
11 0 20 -3 20 -6z m-1500 -1154 c0 -22 -4 -40 -10 -40 -5 0 -10 -9 -10 -20 0
-11 -4 -20 -10 -20 -5 0 -10 -11 -10 -25 0 -29 -40 -75 -65 -75 -8 0 -15 -4
-15 -10 0 -5 -13 -10 -30 -10 -16 0 -30 -4 -30 -10 0 -5 -9 -10 -20 -10 -11 0
-20 -4 -20 -10 0 -6 -30 -10 -70 -10 -38 0 -70 2 -70 5 0 3 32 37 70 75 39 38
70 74 70 80 0 21 49 60 75 60 18 0 25 5 25 20 0 17 7 20 40 20 22 0 40 5 40
10 0 6 9 10 20 10 17 0 20 -7 20 -40z m2500 -930 c0 -5 -4 -10 -10 -10 -5 0
-10 5 -10 10 0 6 5 10 10 10 6 0 10 -4 10 -10z m120 0 c0 -5 -4 -10 -10 -10
-5 0 -10 5 -10 10 0 6 5 10 10 10 6 0 10 -4 10 -10z m40 -20 c0 -5 -4 -10 -10
-10 -5 0 -10 5 -10 10 0 6 5 10 10 10 6 0 10 -4 10 -10z m240 -300 c0 -5 -9
-10 -20 -10 -11 0 -20 5 -20 10 0 6 9 10 20 10 11 0 20 -4 20 -10z m-820 -100
c0 -5 -4 -10 -10 -10 -5 0 -10 5 -10 10 0 6 5 10 10 10 6 0 10 -4 10 -10z
m440 -20 c0 -5 -4 -10 -10 -10 -5 0 -10 5 -10 10 0 6 5 10 10 10 6 0 10 -4 10
-10z m40 -20 c0 -5 -4 -10 -10 -10 -5 0 -10 5 -10 10 0 6 5 10 10 10 6 0 10
-4 10 -10z m240 -40 c0 -5 -4 -10 -10 -10 -5 0 -10 5 -10 10 0 6 5 10 10 10 6
0 10 -4 10 -10z m-240 -20 c0 -5 -4 -10 -10 -10 -5 0 -10 5 -10 10 0 6 5 10
10 10 6 0 10 -4 10 -10z m280 0 c0 -5 -4 -10 -10 -10 -5 0 -10 5 -10 10 0 6 5
10 10 10 6 0 10 -4 10 -10z m60 -20 c0 -5 -4 -10 -10 -10 -5 0 -10 5 -10 10 0
6 5 10 10 10 6 0 10 -4 10 -10z m340 -840 c0 -5 -4 -10 -10 -10 -5 0 -10 5
-10 10 0 6 5 10 10 10 6 0 10 -4 10 -10z m-960 -200 c0 -5 -4 -10 -10 -10 -5
0 -10 5 -10 10 0 6 5 10 10 10 6 0 10 -4 10 -10z"/>
<path d="M3840 4770 c0 -5 5 -10 10 -10 6 0 10 5 10 10 0 6 -4 10 -10 10 -5 0
-10 -4 -10 -10z"/>
<path d="M5320 3295 c0 -12 50 -55 62 -55 8 0 20 -9 28 -20 8 -11 26 -20 41
-20 15 0 29 -6 32 -12 2 -7 8 -10 12 -6 9 9 -19 38 -37 38 -8 0 -20 9 -28 20
-8 11 -21 20 -30 20 -9 0 -22 9 -30 20 -13 18 -50 29 -50 15z"/>
<path d="M5340 2730 c0 -5 14 -10 30 -10 17 0 30 -4 30 -10 0 -5 8 -10 18 -10
10 0 24 -9 32 -20 10 -14 26 -20 52 -20 21 0 38 -4 38 -10 0 -5 9 -10 20 -10
11 0 20 -4 20 -10 0 -5 14 -10 30 -10 17 0 30 3 30 6 0 14 -31 34 -54 34 -14
0 -26 5 -26 10 0 6 -13 10 -30 10 -16 0 -30 5 -30 10 0 6 -9 10 -20 10 -11 0
-20 5 -20 10 0 6 -13 10 -30 10 -16 0 -30 5 -30 10 0 6 -13 10 -30 10 -16 0
-30 -4 -30 -10z"/>
<path d="M5060 2070 c0 -5 5 -10 10 -10 6 0 10 5 10 10 0 6 -4 10 -10 10 -5 0
-10 -4 -10 -10z"/>
<path d="M5120 2050 c0 -5 9 -10 19 -10 11 0 21 -6 24 -12 2 -7 8 -10 12 -6
10 9 -19 38 -39 38 -9 0 -16 -4 -16 -10z"/>
<path d="M4740 2030 c0 -5 5 -10 10 -10 6 0 10 5 10 10 0 6 -4 10 -10 10 -5 0
-10 -4 -10 -10z"/>
<path d="M4780 2010 c0 -5 9 -10 19 -10 11 0 21 -6 24 -12 2 -7 8 -10 12 -6
10 9 -19 38 -39 38 -9 0 -16 -4 -16 -10z"/>
<path d="M5360 1450 c0 -5 9 -10 20 -10 11 0 20 5 20 10 0 6 -9 10 -20 10 -11
0 -20 -4 -20 -10z"/>
<path d="M5420 1430 c0 -5 5 -10 10 -10 6 0 10 5 10 10 0 6 -4 10 -10 10 -5 0
-10 -4 -10 -10z"/>
<path d="M5540 1390 c0 -5 14 -10 30 -10 17 0 30 5 30 10 0 6 -13 10 -30 10
-16 0 -30 -4 -30 -10z"/>
<path d="M5680 1150 c0 -5 9 -10 20 -10 11 0 20 -4 20 -10 0 -5 9 -10 20 -10
11 0 20 5 20 10 0 6 -9 10 -20 10 -11 0 -20 5 -20 10 0 6 -9 10 -20 10 -11 0
-20 -4 -20 -10z"/>
<path d="M5780 1110 c0 -5 5 -10 10 -10 6 0 10 5 10 10 0 6 -4 10 -10 10 -5 0
-10 -4 -10 -10z"/>
<path d="M5820 1090 c0 -5 5 -10 10 -10 6 0 10 5 10 10 0 6 -4 10 -10 10 -5 0
-10 -4 -10 -10z"/>
<path d="M4820 970 c0 -5 9 -10 20 -10 11 0 20 5 20 10 0 6 -9 10 -20 10 -11
0 -20 -4 -20 -10z"/>
<path d="M4900 950 c0 -5 9 -10 20 -10 11 0 20 5 20 10 0 6 -9 10 -20 10 -11
0 -20 -4 -20 -10z"/>
<path d="M4640 930 c0 -5 14 -10 30 -10 17 0 30 5 30 10 0 6 -13 10 -30 10
-16 0 -30 -4 -30 -10z"/>
<path d="M4960 930 c0 -5 9 -10 20 -10 11 0 20 5 20 10 0 6 -9 10 -20 10 -11
0 -20 -4 -20 -10z"/>
<path d="M4720 910 c0 -5 5 -10 10 -10 6 0 10 5 10 10 0 6 -4 10 -10 10 -5 0
-10 -4 -10 -10z"/>
<path d="M4800 890 c0 -5 5 -10 10 -10 6 0 10 5 10 10 0 6 -4 10 -10 10 -5 0
-10 -4 -10 -10z"/>
<path d="M4180 870 c0 -5 9 -10 20 -10 11 0 20 5 20 10 0 6 -9 10 -20 10 -11
0 -20 -4 -20 -10z"/>
<path d="M4260 850 c0 -5 9 -10 20 -10 11 0 20 5 20 10 0 6 -9 10 -20 10 -11
0 -20 -4 -20 -10z"/>
<path d="M4340 830 c0 -5 5 -10 10 -10 6 0 10 5 10 10 0 6 -4 10 -10 10 -5 0
-10 -4 -10 -10z"/>
<path d="M4400 810 c0 -5 5 -10 10 -10 6 0 10 5 10 10 0 6 -4 10 -10 10 -5 0
-10 -4 -10 -10z"/>
<path d="M4260 690 c0 -5 5 -10 10 -10 6 0 10 5 10 10 0 6 -4 10 -10 10 -5 0
-10 -4 -10 -10z"/>
<path d="M4300 670 c0 -5 5 -10 10 -10 6 0 10 5 10 10 0 6 -4 10 -10 10 -5 0
-10 -4 -10 -10z"/>
<path d="M4340 650 c0 -5 5 -10 10 -10 6 0 10 5 10 10 0 6 -4 10 -10 10 -5 0
-10 -4 -10 -10z"/>
</g>
</svg>
