<?xml version="1.0" encoding="UTF-8" standalone="no"?>
<svg
   xmlns:dc="http://purl.org/dc/elements/1.1/"
   xmlns:cc="http://creativecommons.org/ns#"
   xmlns:rdf="http://www.w3.org/1999/02/22-rdf-syntax-ns#"
   xmlns:svg="http://www.w3.org/2000/svg"
   xmlns="http://www.w3.org/2000/svg"
   xmlns:sodipodi="http://sodipodi.sourceforge.net/DTD/sodipodi-0.dtd"
   xmlns:inkscape="http://www.inkscape.org/namespaces/inkscape"
   version="1.0"
   width="606.000000pt"
   height="691.000000pt"
   viewBox="0 0 606.000000 691.000000"
   preserveAspectRatio="xMidYMid meet"
   id="svg963"
   sodipodi:docname="akunanse.svg"
   inkscape:version="1.0.1 (3bc2e813f5, 2020-09-07)">
  <defs
     id="defs967" />
  <sodipodi:namedview
     pagecolor="#ffffff"
     bordercolor="#666666"
     borderopacity="1"
     objecttolerance="10"
     gridtolerance="10"
     guidetolerance="10"
     inkscape:pageopacity="0"
     inkscape:pageshadow="2"
     inkscape:window-width="1600"
     inkscape:window-height="837"
     id="namedview965"
     showgrid="false"
     inkscape:zoom="0.51421296"
     inkscape:cx="229.43747"
     inkscape:cy="373.21533"
     inkscape:window-x="-8"
     inkscape:window-y="-8"
     inkscape:window-maximized="1"
     inkscape:current-layer="svg963" />
  <metadata
     id="metadata911">
Created by potrace 1.16, written by Peter Selinger 2001-2019
<rdf:RDF>
  <cc:Work
     rdf:about="">
    <dc:format>image/svg+xml</dc:format>
    <dc:type
       rdf:resource="http://purl.org/dc/dcmitype/StillImage" />
  </cc:Work>
</rdf:RDF>
</metadata>
  <path
     style="fill:#ff0000;stroke-width:1.37512"
     d="m 523.12055,-17.186415 c -31.03536,0.451884 -52.41324,38.253167 -38.21342,65.466126 3.59927,7.394105 8.84424,13.823969 14.33137,19.888274 -17.36623,-6.144797 -34.56488,-16.495343 -53.50361,-15.609811 -27.44179,1.899348 -47.09411,33.65862 -36.02181,58.977256 9.40847,23.314 35.22769,32.30818 55.53406,43.67363 47.20771,24.19007 96.85743,44.45044 140.62259,74.78313 5.71678,3.22444 8.85375,6.94083 -0.0949,7.96877 -23.49084,7.70566 -47.7157,16.09454 -70.91469,22.07716 -12.69675,-21.04704 -34.39224,-35.5311 -56.58958,-45.12663 -13.76185,-6.30778 -29.80838,-3.9788 -42.2421,4.17908 -10.44898,4.6988 -21.25967,9.58231 -30.81676,15.54266 -19.93767,-7.13566 -37.79542,-21.11248 -59.19212,-23.59198 -20.59907,1.66862 -37.91106,15.21175 -54.15908,26.84994 -7.71446,6.10304 -14.37987,13.7254 -18.46737,22.73512 -26.07313,-8.19226 -52.28622,-15.98506 -78.0195,-25.21419 25.19793,-21.16567 56.33111,-33.31745 84.9865,-48.91545 32.51274,-16.90637 66.12332,-31.91036 97.64451,-50.61186 17.98355,-10.99021 29.31288,-34.18426 20.91962,-54.607485 -7.22215,-21.309058 -32.52961,-35.430331 -54.073,-26.686007 -12.70633,3.899492 -25.0439,8.888089 -37.33248,13.92582 13.44124,-14.142158 24.78794,-34.324982 17.75576,-54.223411 -6.69982,-24.72176 -37.56555,-39.406442 -60.37118,-26.476515 C 235.97428,5.0418543 211.61765,28.800171 185.40933,49.738095 124.77097,101.75675 61.268077,155.17985 24.210319,227.50846 c -6.524763,12.49755 -11.774457,25.99379 -17.1669671,38.75263 -26.5271559,14.80906 -31.6088899,55.72309 -9.3653493,76.46713 7.8616508,7.54897 17.9619724,12.20727 28.1041044,15.85421 -16.3689441,7.57914 -34.9430844,18.1725 -37.845464,37.82936 -4.606769,22.63624 5.7140188,46.90742 24.574976,60.00054 17.087425,47.98344 40.521519,94.3486 72.535693,134.29284 49.914508,64.33337 111.016568,118.6444 170.061618,174.30197 14.58352,11.61037 27.92392,29.46136 48.09378,30.27934 25.61879,0.61438 49.45375,-23.29778 45.96192,-49.3299 -3.12659,-28.79625 -27.4633,-48.11602 -45.45435,-68.35816 -6.14747,-6.05741 9.28868,3.43089 13.27321,4.58677 14.97471,6.77566 29.91789,13.77548 45.58055,18.8435 0.35756,54.31861 -0.45432,108.79791 3.89977,162.96836 5.84546,17.4603 23.89011,29.43931 41.72373,30.93224 22.64108,-0.688 41.08848,-21.03466 42.20917,-43.17612 4.15175,-51.54201 4.1977,-103.58087 6.49763,-155.06739 16.89733,-6.98333 33.7905,-14.00321 50.2941,-21.89189 -15.77349,17.70103 -34.42565,33.79503 -45.45699,55.08288 -8.56366,22.82274 1.04739,52.29281 24.52126,61.7463 17.02214,7.4856 36.89923,0.92798 49.46208,-11.88161 52.31267,-45.60505 102.21396,-94.02476 149.93572,-144.40588 46.07042,-50.61515 86.40854,-108.04126 107.74375,-173.66447 2.68091,-9.9888 13.84034,-13.75576 18.20428,-22.92859 12.1535,-16.9935 13.65463,-42.54379 0.76009,-59.51711 -7.71392,-9.67284 -18.90457,-15.62274 -29.91434,-20.76384 20.40842,-5.33441 41.06254,-21.65536 41.30745,-44.35044 2.31639,-22.78798 -8.91977,-45.45317 -26.59469,-59.40162 C 786.40838,232.43743 775.79988,209.85367 761.01247,189.83703 708.3616,117.02358 636.8251,61.169585 567.79867,4.8182618 554.60549,-5.1045542 540.80863,-17.846683 523.12055,-17.186415 Z M 735.99087,247.12753 c 6.3342,10.44122 10.29054,22.05515 14.44687,33.473 -3.64681,-1.14498 -3.77194,-8.28422 -6.04681,-11.604 -3.04107,-7.67516 -6.05536,-15.36087 -9.07956,-23.04268 z m -663.88426,0.29275 c -4.442573,11.15784 -8.659141,22.40696 -13.343004,33.46762 -1.844742,-2.89971 2.729432,-9.66117 3.813821,-14.09502 2.715433,-7.19729 6.121131,-14.1085 10.066341,-20.71012 l -0.512476,1.27606 z m 36.98064,3.19073 c 10.90189,5.84682 23.53325,12.90779 33.23933,18.27141 -12.04107,-5.95686 -24.28394,-11.96183 -35.40139,-19.40214 l 1.21854,0.63728 z m 590.14322,0.50223 c -8.61375,5.14128 -17.61079,9.60035 -26.58395,14.07085 9.23315,-5.1051 18.49042,-10.17351 27.92148,-14.90612 l -1.16637,0.72839 z m -352.86444,13.03145 c 7.79461,3.18208 -5.69989,3.58846 -8.03833,5.69823 -5.63644,2.25644 -8.50928,3.29546 -1.69309,-0.55042 3.16272,-1.80605 6.39378,-3.82915 9.73142,-5.14781 z m 121.2097,2.84157 c 3.60294,1.92052 8.67775,5.04553 11.11649,6.82459 -6.5103,-3.18638 -13.42168,-5.45511 -20.30726,-7.6733 3.39914,-3.28486 5.84619,-1.00255 9.19077,0.84871 z m -79.29794,17.2186 c 0.85918,32.52193 0.35548,66.6798 0.0591,99.84155 -26.44646,-20.67079 -48.26193,-47.34043 -64.32199,-76.76255 16.47056,-17.52387 41.07077,-22.9866 64.2629,-23.079 z m 30.30107,0.23366 c 22.10642,0.66597 46.03564,3.73858 62.58223,20.0098 6.31255,3.544 -2.42315,9.59359 -3.84678,14.14233 -15.44208,25.24429 -34.81963,48.24686 -58.48298,66.15675 -0.57334,-33.34782 -0.79812,-67.40685 -0.25247,-100.30888 z m 209.32241,1.29455 c -5.16713,1.93856 -10.42622,3.63553 -15.76559,5.03318 3.07748,-0.92861 18.93997,-6.3105 15.76559,-5.03318 z m -443.81065,1.42884 c 3.5403,1.19959 15.86346,5.13612 6.40024,2.27487 -2.08054,-0.64388 -5.28815,-1.81742 -6.40024,-2.27487 z m 587.00353,15.58833 c 4.11453,5.70723 -2.69356,6.07399 -6.87893,7.41468 -38.56006,10.66481 -77.34255,19.27196 -117.06759,23.89089 -14.49057,-0.95604 -28.93595,-2.15785 -43.47219,-3.28204 30.91956,-2.18932 61.99963,-3.81839 92.75088,-7.30632 24.76546,-7.25574 49.4329,-14.85895 74.3321,-21.64918 z M 38.365032,302.25068 c 26.168835,6.716 51.843485,16.18289 78.320148,22.02119 29.2352,2.21697 58.45204,4.70126 87.71806,6.48847 -17.7109,0.61295 -35.52675,3.99373 -53.20268,2.67383 -39.29906,-7.12162 -77.883217,-13.28732 -115.448801,-26.10198 1.101128,-0.90124 0.62154,-5.84621 2.613273,-5.08151 z M 634.71243,370.0427 c 30.0243,-0.51381 58.49428,10.85392 86.76175,19.523 16.0381,5.90301 33.36382,11.53716 47.4982,20.41738 -1.99891,3.67541 -1.64187,13.58475 -7.76124,8.26277 -24.79442,-10.06322 -49.12863,-21.61908 -74.26251,-30.62416 -35.11498,-5.37289 -70.16447,-11.22976 -105.40678,-15.7258 17.76331,-0.73239 35.61302,-1.70518 53.17058,-1.85319 z m -458.94508,0.28202 c 16.48682,0.23102 33.72799,0.87378 49.92884,1.62758 -36.19175,5.04169 -72.39205,10.40369 -108.38237,16.574 -24.999234,10.50371 -49.696181,21.24582 -74.804615,31.32437 -0.76771,-4.45847 -6.654383,-11.20028 0.09938,-12.77899 35.615668,-16.41179 73.684925,-27.84015 111.873815,-36.98159 7.09498,0.0782 14.18997,0.15641 21.28496,0.23463 z m 308.39313,1.94181 c 1.49387,37.26983 -0.0657,75.89009 -10.65453,112.00818 -10.64918,37.66265 -26.40199,75.25507 -54.98348,103.04033 -0.0739,-9.70689 -0.73831,-20.04182 0.21217,-29.33151 36.44901,-24.71432 53.30376,-73.85215 40.51604,-115.92193 -0.65116,-7.37439 5.99972,-13.95523 7.81383,-21.27349 6.61989,-16.29257 12.2743,-32.97283 17.03151,-49.90207 l 0.0641,1.37363 z m -159.77494,0.22292 c 5.94191,23.09634 15.39497,45.07231 24.10227,67.15013 -1.68384,12.38712 -4.99884,24.87527 -3.57502,37.6072 1.39222,31.45425 17.45526,62.65193 43.76787,80.36879 -0.005,9.35551 0.0118,18.71103 -0.0134,28.06651 -34.59438,-33.82737 -51.1516,-81.48688 -60.21264,-127.98486 -5.71259,-28.80216 -5.53897,-57.48635 -4.42894,-86.43516 z m 284.16461,47.55461 c 29.95442,17.70366 59.42535,35.49376 86.24876,57.7767 -2.47649,8.01854 -8.37616,-2.43236 -12.64868,-4.09993 -23.54361,-18.19606 -46.72352,-37.68397 -74.83593,-48.527 -9.821,-4.58711 -19.65269,-9.15192 -29.5245,-13.62882 10.25345,2.82635 20.5069,5.6527 30.76035,8.47905 z m -384.4923,-5.64285 c -19.39247,9.64873 -40.06421,17.20599 -58.43942,28.58876 -16.76456,12.89028 -33.44697,25.85378 -50.22226,38.53987 -5.41916,-4.6963 3.95977,-7.57231 6.67419,-10.94996 25.40057,-19.0643 52.23874,-36.77292 80.3726,-51.28869 9.17992,-2.53243 18.35983,-5.06485 27.53975,-7.59726 -1.97495,0.90242 -3.94991,1.80485 -5.92486,2.70728 z m 520.20526,25.40756 c 2.42246,2.70736 -2.02095,9.15286 -2.54076,13.29467 -4.1169,14.11188 -10.65812,27.52131 -17.60266,40.24118 6.70019,-17.79606 12.99147,-36.35481 20.14342,-53.53585 z M 64.79589,442.3361 c 6.416584,16.48968 12.577284,33.63222 18.894531,50.46869 -8.796265,-16.79116 -16.084169,-34.41183 -21.558834,-52.56091 2.163037,-1.1336 1.886156,0.33197 2.664303,2.09222 z"
     id="path2278"
     transform="scale(0.75000001)" />
  <path
     id="path2288"
     style="fill:#ffffff;stroke-width:0.171891"
     transform="scale(0.75000001)"
     d="m 469.40005,690.85796 c -4.15912,0.0859 -7.72095,2.89826 -9.77762,6.35995 -2.13766,3.17366 -4.0912,7.01719 -3.06596,10.9428 0.92347,4.54252 5.35856,7.96974 9.98062,7.80956 3.6352,-0.01 6.78188,-2.25355 8.97783,-4.99406 2.44174,-2.64004 4.52525,-5.95065 4.36911,-9.68261 0.11403,-4.76465 -3.42876,-9.39569 -8.17973,-10.20271 -0.75361,-0.21341 -1.52867,-0.20762 -2.30425,-0.23293 z m -126.5712,4.13845 c -10.72371,0.15358 -13.88946,15.02692 -5.56227,20.80413 3.61944,6.72442 7.17814,18.67905 17.03781,14.93833 9.50183,-3.57549 8.14494,-16.88687 6.0573,-25.05302 -2.68733,-6.86366 -10.42707,-10.81315 -17.53284,-10.68944 z M 522.75529,-26.028035 c -23.55186,0.084 -44.315,19.6688502 -49.61998,41.917122 -1.71492,10.87741 -2.1167,22.485495 1.79143,32.95464 -17.67876,-7.192606 -39.29308,-8.094312 -54.94858,4.305322 -6.48377,4.4551 -12.04345,12.346268 -16.13086,17.583865 -11.63034,-21.459616 -38.84304,-33.899442 -62.22974,-24.779096 -3.64805,0.259164 -13.22591,6.641391 -8.75299,-0.418984 11.26734,-26.338137 -4.45572,-59.219627 -31.48283,-67.993454 -14.37302,-5.531327 -31.08543,-4.717452 -43.87506,4.380523 C 220.87141,5.5990959 188.83962,35.586516 155.52344,63.572723 98.085796,114.18242 39.454992,168.19114 8.2459243,239.68331 c -4.5908857,9.55154 -6.8818168,21.08941 -16.5814051,26.99141 -23.3182662,22.82622 -22.9620032,66.32447 4.2005745,86.11984 1.916207,3.2465 13.193437,5.55695 7.326836,8.39578 -14.8456317,8.87406 -25.3736107,24.65782 -25.3216267,42.25822 -1.77713,21.87729 9.339287,42.54818 24.8354982,57.26641 7.5754748,11.36302 10.1536518,25.37994 16.6975548,37.40499 20.804995,46.90654 49.231066,90.16627 83.416564,128.39783 48.49193,54.65134 102.08833,104.51745 155.99164,153.7374 14.20698,12.56255 31.13304,27.04796 51.60517,23.47811 18.44753,-2.24547 34.9287,-14.78313 43.10156,-31.31632 1.35564,32.40855 0.10669,65.22318 5.5569,97.28199 7.60446,18.69903 27.21717,31.75117 46.97447,34.02091 27.17278,0.71783 51.70981,-23.34018 53.04972,-50.2753 2.70795,-22.578 3.08093,-45.3514 4.08508,-68.04717 16.58914,21.60231 50.35026,23.98208 71.04452,7.00185 56.38398,-46.92872 108.00525,-99.29681 158.90206,-152.04255 43.36912,-47.62667 81.33359,-101.55646 104.26021,-162.10305 2.56434,-10.5885 8.1755,-19.77071 16.15094,-27.14857 19.21511,-21.11231 24.15946,-57.01542 3.9248,-79.16623 -3.66476,-4.93528 -10.47462,-9.19463 -13.77272,-12.73601 19.08883,-10.41753 31.22137,-31.69841 29.46847,-53.49824 -0.63877,-21.31466 -12.06321,-40.31989 -26.19449,-55.53676 C 791.91472,226.4546 781.22938,200.0157 763.5068,177.95232 710.58428,108.68057 642.27052,53.367513 574.82786,-1.0475114 559.42778,-12.33824 543.15241,-26.967228 522.75529,-26.028035 Z M 404.29315,121.03239 c 14.97619,25.21696 44.65047,34.59076 68.91806,48.10577 40.01086,20.75361 81.63762,38.74522 119.64855,63.12889 -17.95481,6.39101 -35.90726,12.16545 -54.03808,17.05478 -17.23128,-20.85891 -39.94331,-38.08615 -66.11341,-45.68529 -12.98368,-1.4151 -26.93441,-2.30405 -38.08273,5.84191 -10.14724,5.02313 -20.19892,10.28749 -30.71377,14.51638 -21.0589,-7.79082 -41.03011,-23.70607 -64.5476,-21.28489 -24.85062,5.88098 -46.91059,21.22971 -64.49386,39.38711 -3.53662,3.26797 -5.12831,10.5126 -10.97848,5.86303 -16.28383,-5.22948 -32.59534,-10.37366 -48.84749,-15.70108 41.91816,-24.91018 86.48101,-45.12349 129.63964,-67.99567 20.94294,-12.30101 47.30698,-20.75662 59.49368,-43.43506 z M 340.33107,265.1653 c 7.68511,14.01701 -4.86368,1.50233 0,0 z m -154.79012,30.68514 c -5.42179,-6.96524 6.26246,-20.25707 1.07748,-5.62627 -0.35916,1.87543 -0.71833,3.75085 -1.07748,5.62627 z m 436.75507,-10.73778 c 4.4814,22.29455 -11.06281,-9.26653 0,0 z m -243.24123,48.57788 c -0.009,9.76397 -0.0369,19.52822 -0.18533,29.29122 -16.50743,-15.88536 -32.06431,-34.12169 -42.8464,-53.95484 12.1357,-9.65034 27.86328,-13.49206 43.03173,-14.91418 0,13.1926 0,26.3852 0,39.5778 z m 51.21532,-39.18299 c 14.76239,1.67366 30.23888,4.84562 41.9413,14.61607 -12.20698,20.20981 -26.45947,39.02774 -44.04965,55.10434 -0.37918,-23.31506 -0.17976,-46.63437 -0.23098,-69.95139 l 1.36848,0.13512 z M 338.96936,440.73 c -1.0648,10.87073 -2.36606,13.19165 -3.42644,1.54925 -0.64188,-4.73007 -1.28537,-9.46718 -1.54495,-14.23692 1.65714,4.22922 3.31427,8.45844 4.97139,12.68767 z m 134.75415,-11.28837 c -0.65702,6.69122 -1.69026,17.14017 -2.95706,22.35651 -1.06518,-6.89071 -2.77287,-14.33449 1.91228,-20.37709 0.16367,0.0888 1.34497,-3.92942 1.04478,-1.97942 z m -3.78159,272.72853 c -8.86382,11.48329 0.9764,-6.42984 0,0 z m -129.81766,0.1128 c 4.58748,3.26394 14.93912,2.25695 12.33118,10.36901 -0.17419,5.29921 1.55422,17.96842 -2.29405,7.27533 -3.35493,-6.76994 -7.57161,-13.11764 -12.62623,-18.74015 0.86303,0.36527 1.72606,0.73053 2.5891,1.09581 z" />
  <g
     transform="translate(0.000000,691.000000) scale(0.100000,-0.100000)"
     fill="#000000"
     stroke="none"
     id="g961">
    <path
       d="M1603 6300 l-508 -429 -215 -237 c-208 -229 -219 -243 -338 -438 -107 -175 -127 -217 -163 -325 -22 -68 -39 -124 -37 -126 2 -1 35 -5 75 -9 l71 -7 89 226 88 226 180 232 180 232 528 475 c289 261 538 486 551 500 30 31 46 110 22 110 -8 0 -244 -193 -523 -430z"
       id="path913" />
    <path
       d="M3925 6688 c4 -25 17 -54 31 -68 13 -14 262 -239 551 -500 l528 -475 180 -232 180 -232 88 -226 89 -226 71 7 c40 4 73 8 75 9 2 2 -15 58 -37 126 -36 108 -56 150 -163 325 -119 195 -130 209 -338 438 l-215 237 -508 429 c-279 237 -515 430 -523 430 -13 0 -14 -8 -9 -42z"
       id="path915" />
    <path
       d="M2184 5996 c-432 -190 -503 -224 -705 -343 -196 -116 -241 -147 -361 -253 -94 -82 -155 -145 -193 -198 -30 -42 -55 -79 -55 -83 0 -7 88 -49 103 -48 6 0 67 69 134 153 l121 153 189 130 c186 128 194 132 725 383 494 234 538 257 552 287 15 32 15 33 -7 32 -12 -1 -238 -96 -503 -213z"
       id="path917" />
    <path
       d="M3366 6177 c14 -30 58 -53 552 -287 531 -251 539 -255 725 -383 l189 -130 121 -153 c67 -84 128 -153 134 -153 15 -1 103 41 103 48 0 4 -25 41 -55 83 -38 53 -99 116 -192 198 -122 107 -164 136 -373 258 -216 127 -274 155 -710 345 -262 114 -483 207 -493 207 -15 0 -15 -3 -1 -33z"
       id="path919" />
    <path
       d="M747 5080 c-21 -27 -37 -54 -37 -59 0 -31 342 -210 580 -304 l165 -65 367 -63 c357 -60 368 -62 388 -44 11 10 20 21 20 25 0 4 -55 19 -122 35 -68 15 -292 83 -498 150 l-375 123 -190 107 c-104 59 -206 115 -226 125 l-36 19 -36 -49z"
       id="path921" />
    <path
       d="M5050 5004 l-225 -125 -375 -123 c-206 -68 -430 -136 -497 -151 -68 -16 -123 -31 -123 -35 0 -4 9 -15 20 -25 20 -18 31 -16 388 44 l367 63 165 65 c241 95 580 273 580 305 0 8 -34 57 -70 100 -3 4 -107 -49 -230 -118z"
       id="path923" />
    <path
       d="M2525 4973 c-38 -19 -86 -50 -107 -67 -20 -17 -48 -39 -63 -49 -38 -27 -31 -63 17 -91 31 -17 41 -19 55 -9 64 44 122 68 223 94 63 17 133 35 155 41 l40 10 -78 23 c-43 12 -97 36 -122 54 -24 17 -45 31 -47 31 -1 -1 -34 -17 -73 -37z"
       id="path925" />
    <path
       d="M3413 4978 c-23 -17 -77 -41 -120 -53 l-78 -23 40 -10 c22 -6 92 -24 155 -41 101 -26 159 -50 223 -94 14 -10 24 -8 55 9 48 28 55 64 17 91 -15 10 -43 32 -63 49 -29 25 -172 105 -184 104 -2 -1 -22 -15 -45 -32z"
       id="path927" />
    <path
       d="M2761 4839 c-147 -19 -278 -80 -367 -170 l-47 -48 19 -43 c26 -58 137 -226 211 -319 115 -144 262 -277 360 -328 23 -11 45 -21 48 -21 3 0 5 209 5 464 l0 464 -31 6 c-40 8 -115 6 -198 -5z"
       id="path929" />
    <path
       d="M3093 4844 l-23 -5 0 -465 c0 -255 2 -464 5 -464 3 0 25 10 48 21 98 51 245 184 360 328 75 94 185 261 212 320 l19 44 -60 56 c-73 69 -159 115 -259 141 -75 19 -258 33 -302 24z"
       id="path931" />
    <path
       d="M211 4658 c-13 -40 -25 -78 -28 -84 -12 -32 375 -136 742 -199 l250 -43 466 36 467 36 16 33 c9 19 16 36 16 40 0 3 -58 3 -129 0 -98 -4 -249 4 -637 33 l-509 38 -308 91 c-169 50 -311 91 -316 91 -4 0 -18 -33 -30 -72z"
       id="path933" />
    <path
       d="M5495 4638 l-300 -90 -509 -38 c-388 -29 -539 -37 -637 -33 -71 3 -129 3 -129 0 0 -4 7 -21 16 -40 l16 -33 467 -36 466 -36 250 43 c367 63 754 167 742 199 -3 6 -15 44 -28 84 -16 50 -28 72 -38 71 -9 -1 -151 -42 -316 -91z"
       id="path935" />
    <path
       d="M2371 4273 c-19 -139 -25 -415 -12 -553 44 -482 196 -896 432 -1179 51 -61 174 -171 191 -171 4 0 8 89 8 198 l0 197 -36 20 c-52 28 -137 113 -182 183 -113 175 -151 408 -94 588 17 56 18 64 4 90 -63 119 -151 357 -187 508 -19 79 -32 109 -65 152 -22 30 -42 54 -44 54 -2 0 -9 -39 -15 -87z"
       id="path937" />
    <path
       d="M3632 4309 c-35 -46 -47 -75 -67 -155 -36 -151 -124 -389 -187 -508 -14 -26 -13 -34 4 -90 57 -180 19 -413 -94 -588 -45 -70 -130 -155 -182 -183 l-36 -20 0 -197 c0 -109 4 -198 8 -198 4 0 37 24 73 53 329 272 559 893 559 1512 0 116 -14 302 -28 388 l-8 42 -42 -56z"
       id="path939" />
    <path
       d="M920 4146 c-304 -81 -674 -226 -705 -277 -8 -12 56 -199 68 -199 4 0 146 59 315 131 l307 131 450 69 c378 59 478 71 627 76 l177 6 -15 36 c-8 20 -19 40 -24 45 -9 9 -766 45 -910 44 -35 0 -141 -23 -290 -62z"
       id="path941" />
    <path
       d="M4343 4191 c-217 -9 -397 -21 -402 -26 -6 -6 -17 -26 -25 -46 l-15 -36 177 -6 c149 -5 249 -17 627 -76 l450 -69 307 -131 c169 -72 311 -131 315 -131 12 0 76 187 68 199 -31 52 -420 202 -722 281 -268 69 -195 65 -780 41z"
       id="path943" />
    <path
       d="M1834 3924 l-369 -102 -186 -110 c-175 -103 -431 -285 -492 -349 l-27 -29 42 -67 c24 -37 45 -67 48 -67 3 0 106 79 230 175 l225 174 315 149 c173 82 383 176 465 207 83 32 153 61 157 64 4 3 -4 18 -16 32 l-23 26 -369 -103z"
       id="path945" />
    <path
       d="M3832 3999 l-23 -29 28 -11 c196 -74 358 -144 613 -265 l305 -145 225 -174 c124 -96 227 -175 230 -175 3 0 24 30 48 67 l42 67 -27 29 c-61 64 -317 246 -492 349 l-185 110 -301 83 c-165 46 -331 92 -370 103 l-70 19 -23 -28z"
       id="path947" />
    <path
       d="M450 3678 c-36 -11 -66 -21 -68 -23 -2 -2 19 -74 47 -162 45 -140 66 -185 183 -400 l133 -242 247 -303 248 -303 515 -490 c283 -269 524 -493 536 -497 18 -7 20 -5 16 14 -3 13 -9 40 -12 60 -6 32 -83 115 -594 635 l-586 599 -187 269 -186 270 -107 290 c-58 160 -109 293 -113 296 -4 3 -36 -3 -72 -13z"
       id="path949" />
    <path
       d="M5535 3690 c-2 -4 -52 -137 -111 -296 l-106 -289 -186 -270 -187 -269 -586 -599 c-511 -520 -588 -603 -594 -635 -3 -20 -9 -47 -12 -60 -4 -19 -2 -21 16 -14 12 4 253 228 536 497 l515 490 248 303 247 303 133 242 c117 215 138 260 183 400 28 88 49 160 47 162 -11 10 -139 42 -143 35z"
       id="path951" />
    <path
       d="M982 3256 c-28 -17 -52 -34 -52 -38 0 -4 29 -51 64 -105 48 -73 103 -136 217 -250 148 -145 164 -158 399 -311 238 -155 258 -166 711 -381 257 -121 477 -221 489 -221 18 0 20 4 14 23 -3 12 -10 28 -14 36 -4 7 -248 138 -542 290 l-534 277 -216 167 -217 167 -117 168 c-64 92 -125 177 -134 188 l-16 22 -52 -32z"
       id="path953" />
    <path
       d="M4892 3100 l-133 -190 -217 -167 -216 -167 -534 -277 c-294 -152 -538 -283 -542 -290 -4 -8 -11 -24 -14 -36 -6 -19 -4 -23 14 -23 12 0 232 100 489 221 453 215 473 226 711 381 235 153 251 166 399 311 114 114 169 177 217 250 35 54 64 101 64 106 0 4 -10 13 -22 19 -13 6 -37 20 -53 31 l-30 20 -133 -189z"
       id="path955" />
    <path
       d="M2978 2233 l-37 -25 5 -107 c2 -58 11 -371 20 -696 9 -324 24 -732 34 -905 l17 -315 2 1038 c0 570 0 1037 -1 1036 -2 0 -20 -12 -40 -26z"
       id="path957" />
    <path
       d="M3041 1223 l2 -1038 17 315 c10 173 25 581 34 905 9 325 18 638 20 696 l5 107 -39 26 -40 26 1 -1037z"
       id="path959" />
  </g>
</svg>
