<?xml version="1.0" standalone="no"?>
<!DOCTYPE svg PUBLIC "-//W3C//DTD SVG 20010904//EN"
 "http://www.w3.org/TR/2001/REC-SVG-20010904/DTD/svg10.dtd">
<svg version="1.0" xmlns="http://www.w3.org/2000/svg"
 width="606.000000pt" height="691.000000pt" viewBox="0 0 606.000000 691.000000"
 preserveAspectRatio="xMidYMid meet">
<metadata>
Created by potrace 1.16, written by Peter Selinger 2001-2019
</metadata>
<g transform="translate(0.000000,691.000000) scale(0.100000,-0.100000)"
fill="#000000" stroke="none">
<path d="M1603 6300 l-508 -429 -215 -237 c-208 -229 -219 -243 -338 -438
-107 -175 -127 -217 -163 -325 -22 -68 -39 -124 -37 -126 2 -1 35 -5 75 -9
l71 -7 89 226 88 226 180 232 180 232 528 475 c289 261 538 486 551 500 30 31
46 110 22 110 -8 0 -244 -193 -523 -430z"/>
<path d="M3925 6688 c4 -25 17 -54 31 -68 13 -14 262 -239 551 -500 l528 -475
180 -232 180 -232 88 -226 89 -226 71 7 c40 4 73 8 75 9 2 2 -15 58 -37 126
-36 108 -56 150 -163 325 -119 195 -130 209 -338 438 l-215 237 -508 429
c-279 237 -515 430 -523 430 -13 0 -14 -8 -9 -42z"/>
<path d="M2184 5996 c-432 -190 -503 -224 -705 -343 -196 -116 -241 -147 -361
-253 -94 -82 -155 -145 -193 -198 -30 -42 -55 -79 -55 -83 0 -7 88 -49 103
-48 6 0 67 69 134 153 l121 153 189 130 c186 128 194 132 725 383 494 234 538
257 552 287 15 32 15 33 -7 32 -12 -1 -238 -96 -503 -213z"/>
<path d="M3366 6177 c14 -30 58 -53 552 -287 531 -251 539 -255 725 -383 l189
-130 121 -153 c67 -84 128 -153 134 -153 15 -1 103 41 103 48 0 4 -25 41 -55
83 -38 53 -99 116 -192 198 -122 107 -164 136 -373 258 -216 127 -274 155
-710 345 -262 114 -483 207 -493 207 -15 0 -15 -3 -1 -33z"/>
<path d="M747 5080 c-21 -27 -37 -54 -37 -59 0 -31 342 -210 580 -304 l165
-65 367 -63 c357 -60 368 -62 388 -44 11 10 20 21 20 25 0 4 -55 19 -122 35
-68 15 -292 83 -498 150 l-375 123 -190 107 c-104 59 -206 115 -226 125 l-36
19 -36 -49z"/>
<path d="M5050 5004 l-225 -125 -375 -123 c-206 -68 -430 -136 -497 -151 -68
-16 -123 -31 -123 -35 0 -4 9 -15 20 -25 20 -18 31 -16 388 44 l367 63 165 65
c241 95 580 273 580 305 0 8 -34 57 -70 100 -3 4 -107 -49 -230 -118z"/>
<path d="M2525 4973 c-38 -19 -86 -50 -107 -67 -20 -17 -48 -39 -63 -49 -38
-27 -31 -63 17 -91 31 -17 41 -19 55 -9 64 44 122 68 223 94 63 17 133 35 155
41 l40 10 -78 23 c-43 12 -97 36 -122 54 -24 17 -45 31 -47 31 -1 -1 -34 -17
-73 -37z"/>
<path d="M3413 4978 c-23 -17 -77 -41 -120 -53 l-78 -23 40 -10 c22 -6 92 -24
155 -41 101 -26 159 -50 223 -94 14 -10 24 -8 55 9 48 28 55 64 17 91 -15 10
-43 32 -63 49 -29 25 -172 105 -184 104 -2 -1 -22 -15 -45 -32z"/>
<path d="M2761 4839 c-147 -19 -278 -80 -367 -170 l-47 -48 19 -43 c26 -58
137 -226 211 -319 115 -144 262 -277 360 -328 23 -11 45 -21 48 -21 3 0 5 209
5 464 l0 464 -31 6 c-40 8 -115 6 -198 -5z"/>
<path d="M3093 4844 l-23 -5 0 -465 c0 -255 2 -464 5 -464 3 0 25 10 48 21 98
51 245 184 360 328 75 94 185 261 212 320 l19 44 -60 56 c-73 69 -159 115
-259 141 -75 19 -258 33 -302 24z"/>
<path d="M211 4658 c-13 -40 -25 -78 -28 -84 -12 -32 375 -136 742 -199 l250
-43 466 36 467 36 16 33 c9 19 16 36 16 40 0 3 -58 3 -129 0 -98 -4 -249 4
-637 33 l-509 38 -308 91 c-169 50 -311 91 -316 91 -4 0 -18 -33 -30 -72z"/>
<path d="M5495 4638 l-300 -90 -509 -38 c-388 -29 -539 -37 -637 -33 -71 3
-129 3 -129 0 0 -4 7 -21 16 -40 l16 -33 467 -36 466 -36 250 43 c367 63 754
167 742 199 -3 6 -15 44 -28 84 -16 50 -28 72 -38 71 -9 -1 -151 -42 -316 -91z"/>
<path d="M2371 4273 c-19 -139 -25 -415 -12 -553 44 -482 196 -896 432 -1179
51 -61 174 -171 191 -171 4 0 8 89 8 198 l0 197 -36 20 c-52 28 -137 113 -182
183 -113 175 -151 408 -94 588 17 56 18 64 4 90 -63 119 -151 357 -187 508
-19 79 -32 109 -65 152 -22 30 -42 54 -44 54 -2 0 -9 -39 -15 -87z"/>
<path d="M3632 4309 c-35 -46 -47 -75 -67 -155 -36 -151 -124 -389 -187 -508
-14 -26 -13 -34 4 -90 57 -180 19 -413 -94 -588 -45 -70 -130 -155 -182 -183
l-36 -20 0 -197 c0 -109 4 -198 8 -198 4 0 37 24 73 53 329 272 559 893 559
1512 0 116 -14 302 -28 388 l-8 42 -42 -56z"/>
<path d="M920 4146 c-304 -81 -674 -226 -705 -277 -8 -12 56 -199 68 -199 4 0
146 59 315 131 l307 131 450 69 c378 59 478 71 627 76 l177 6 -15 36 c-8 20
-19 40 -24 45 -9 9 -766 45 -910 44 -35 0 -141 -23 -290 -62z"/>
<path d="M4343 4191 c-217 -9 -397 -21 -402 -26 -6 -6 -17 -26 -25 -46 l-15
-36 177 -6 c149 -5 249 -17 627 -76 l450 -69 307 -131 c169 -72 311 -131 315
-131 12 0 76 187 68 199 -31 52 -420 202 -722 281 -268 69 -195 65 -780 41z"/>
<path d="M1834 3924 l-369 -102 -186 -110 c-175 -103 -431 -285 -492 -349
l-27 -29 42 -67 c24 -37 45 -67 48 -67 3 0 106 79 230 175 l225 174 315 149
c173 82 383 176 465 207 83 32 153 61 157 64 4 3 -4 18 -16 32 l-23 26 -369
-103z"/>
<path d="M3832 3999 l-23 -29 28 -11 c196 -74 358 -144 613 -265 l305 -145
225 -174 c124 -96 227 -175 230 -175 3 0 24 30 48 67 l42 67 -27 29 c-61 64
-317 246 -492 349 l-185 110 -301 83 c-165 46 -331 92 -370 103 l-70 19 -23
-28z"/>
<path d="M450 3678 c-36 -11 -66 -21 -68 -23 -2 -2 19 -74 47 -162 45 -140 66
-185 183 -400 l133 -242 247 -303 248 -303 515 -490 c283 -269 524 -493 536
-497 18 -7 20 -5 16 14 -3 13 -9 40 -12 60 -6 32 -83 115 -594 635 l-586 599
-187 269 -186 270 -107 290 c-58 160 -109 293 -113 296 -4 3 -36 -3 -72 -13z"/>
<path d="M5535 3690 c-2 -4 -52 -137 -111 -296 l-106 -289 -186 -270 -187
-269 -586 -599 c-511 -520 -588 -603 -594 -635 -3 -20 -9 -47 -12 -60 -4 -19
-2 -21 16 -14 12 4 253 228 536 497 l515 490 248 303 247 303 133 242 c117
215 138 260 183 400 28 88 49 160 47 162 -11 10 -139 42 -143 35z"/>
<path d="M982 3256 c-28 -17 -52 -34 -52 -38 0 -4 29 -51 64 -105 48 -73 103
-136 217 -250 148 -145 164 -158 399 -311 238 -155 258 -166 711 -381 257
-121 477 -221 489 -221 18 0 20 4 14 23 -3 12 -10 28 -14 36 -4 7 -248 138
-542 290 l-534 277 -216 167 -217 167 -117 168 c-64 92 -125 177 -134 188
l-16 22 -52 -32z"/>
<path d="M4892 3100 l-133 -190 -217 -167 -216 -167 -534 -277 c-294 -152
-538 -283 -542 -290 -4 -8 -11 -24 -14 -36 -6 -19 -4 -23 14 -23 12 0 232 100
489 221 453 215 473 226 711 381 235 153 251 166 399 311 114 114 169 177 217
250 35 54 64 101 64 106 0 4 -10 13 -22 19 -13 6 -37 20 -53 31 l-30 20 -133
-189z"/>
<path d="M2978 2233 l-37 -25 5 -107 c2 -58 11 -371 20 -696 9 -324 24 -732
34 -905 l17 -315 2 1038 c0 570 0 1037 -1 1036 -2 0 -20 -12 -40 -26z"/>
<path d="M3041 1223 l2 -1038 17 315 c10 173 25 581 34 905 9 325 18 638 20
696 l5 107 -39 26 -40 26 1 -1037z"/>
</g>
</svg>
