<?xml version="1.0" standalone="no"?>
<!DOCTYPE svg PUBLIC "-//W3C//DTD SVG 20010904//EN"
 "http://www.w3.org/TR/2001/REC-SVG-20010904/DTD/svg10.dtd">
<svg version="1.0" xmlns="http://www.w3.org/2000/svg"
 width="169.000000pt" height="300.000000pt" viewBox="0 0 169.000000 300.000000"
 preserveAspectRatio="xMidYMid meet">
<metadata>
Created by potrace 1.16, written by Peter Selinger 2001-2019
</metadata>
<g transform="translate(0.000000,300.000000) scale(0.100000,-0.100000)"
fill="#000000" stroke="none">
<path d="M794 2821 c-84 -51 -80 -180 7 -229 l29 -17 0 -143 0 -143 -40 -38
c-22 -21 -40 -47 -40 -59 0 -24 7 -21 -203 -73 -91 -22 -140 -30 -145 -23 -42
62 -171 57 -214 -8 -73 -111 31 -250 156 -208 40 13 86 65 86 98 0 11 4 23 9
26 4 3 77 23 161 45 l153 40 38 -32 37 -32 1 -801 1 -801 -25 -11 c-86 -40
-84 -191 4 -237 92 -47 201 19 201 122 0 42 -32 95 -68 113 l-32 15 0 796 0
797 30 12 c17 7 37 22 45 33 14 19 15 19 144 -13 l131 -32 0 -31 c0 -41 41
-93 86 -107 125 -42 229 97 156 208 -35 54 -128 69 -189 31 l-34 -21 -127 32
-128 31 -20 42 c-11 25 -34 52 -56 66 l-38 24 0 142 c0 142 0 142 25 153 38
18 65 69 65 126 0 43 -4 53 -39 87 -34 35 -44 39 -87 39 -30 0 -61 -7 -80 -19z"/>
</g>
</svg>
