<?xml version="1.0" encoding="UTF-8" standalone="no"?>
<svg
   xmlns:dc="http://purl.org/dc/elements/1.1/"
   xmlns:cc="http://creativecommons.org/ns#"
   xmlns:rdf="http://www.w3.org/1999/02/22-rdf-syntax-ns#"
   xmlns:svg="http://www.w3.org/2000/svg"
   xmlns="http://www.w3.org/2000/svg"
   xmlns:sodipodi="http://sodipodi.sourceforge.net/DTD/sodipodi-0.dtd"
   xmlns:inkscape="http://www.inkscape.org/namespaces/inkscape"
   version="1.0"
   width="169.000000pt"
   height="300.000000pt"
   viewBox="0 0 169.000000 300.000000"
   preserveAspectRatio="xMidYMid meet"
   id="svg11722"
   sodipodi:docname="avenger.svg"
   inkscape:version="1.0.1 (3bc2e813f5, 2020-09-07)">
  <defs
     id="defs11726" />
  <sodipodi:namedview
     pagecolor="#ffffff"
     bordercolor="#666666"
     borderopacity="1"
     objecttolerance="10"
     gridtolerance="10"
     guidetolerance="10"
     inkscape:pageopacity="0"
     inkscape:pageshadow="2"
     inkscape:window-width="1600"
     inkscape:window-height="837"
     id="namedview11724"
     showgrid="false"
     inkscape:zoom="1.72"
     inkscape:cx="112.66667"
     inkscape:cy="153.48837"
     inkscape:window-x="-8"
     inkscape:window-y="-8"
     inkscape:window-maximized="1"
     inkscape:current-layer="svg11722" />
  <metadata
     id="metadata11716">
Created by potrace 1.16, written by Peter Selinger 2001-2019
<rdf:RDF>
  <cc:Work
     rdf:about="">
    <dc:format>image/svg+xml</dc:format>
    <dc:type
       rdf:resource="http://purl.org/dc/dcmitype/StillImage" />
  </cc:Work>
</rdf:RDF>
</metadata>
  <path
     style="fill:#ffffff;stroke-width:0.581395"
     d="M 116.42529,1.8248093 C 101.98346,1.4653709 87.201696,9.4821692 81.556335,23.138854 c -4.392471,9.368984 -4.694046,20.378895 -0.529157,29.88849 2.185913,5.485873 5.723535,10.413341 10.185774,14.277116 -0.111838,6.342351 0.219645,12.863854 -0.161245,19.097476 -2.758709,2.216116 -4.204825,6.186465 -7.150157,7.823767 -8.137735,2.030099 -16.404327,4.503332 -24.5745,5.792467 -16.935951,-9.67853 -41.364448,-4.733658 -51.6451676,12.35268 -9.9568686,15.7123 -5.6922128,38.50113 9.2282886,49.62838 13.49804,11.17793 34.724881,10.41357 47.598338,-1.37854 3.742838,-3.29857 6.900284,-7.27702 9.18423,-11.71649 5.638532,-1.52755 11.288277,-3.01342 16.937683,-4.50013 0.08307,62.84483 0.173425,125.68966 0.266849,188.53448 -14.47144,12.8159 -15.348501,36.7089 -3.461116,51.5148 12.224849,16.33034 38.592535,18.46325 53.453165,4.59439 12.85649,-10.35096 17.17295,-29.67512 9.5283,-44.37227 -2.30792,-4.60059 -5.50289,-8.74823 -9.32049,-12.19682 0,-62.58932 0,-125.17866 0,-187.76799 3.13758,1.10688 7.4835,1.07556 10.10855,2.95581 7.22093,17.46911 28.86764,26.84643 46.56954,20.23755 16.66758,-5.48042 27.35853,-23.57546 24.98297,-40.81804 -1.57444,-14.81668 -13.1153,-27.871073 -27.77185,-30.905928 -9.05794,-2.426197 -18.90632,-1.198401 -27.2495,3.010308 -5.90297,-1.436936 -11.80589,-2.874069 -17.70871,-4.311633 -2.34623,-4.053337 -5.31213,-7.767105 -8.90261,-10.787611 0.0981,-5.857981 0.0349,-11.784692 0.23165,-17.600836 10.4353,-9.861366 14.01989,-25.930053 10.1006,-39.545104 C 147.64839,16.113521 138.48579,7.2468651 127.81701,3.2044878 124.1497,1.9912198 120.26054,1.7646622 116.42529,1.8248093 Z"
     id="path12289"
     transform="scale(0.75000001)" />
  <g
     transform="translate(0.000000,300.000000) scale(0.100000,-0.100000)"
     fill="#000000"
     stroke="none"
     id="g11720">
    <path
       d="M794 2821 c-84 -51 -80 -180 7 -229 l29 -17 0 -143 0 -143 -40 -38 c-22 -21 -40 -47 -40 -59 0 -24 7 -21 -203 -73 -91 -22 -140 -30 -145 -23 -42 62 -171 57 -214 -8 -73 -111 31 -250 156 -208 40 13 86 65 86 98 0 11 4 23 9 26 4 3 77 23 161 45 l153 40 38 -32 37 -32 1 -801 1 -801 -25 -11 c-86 -40 -84 -191 4 -237 92 -47 201 19 201 122 0 42 -32 95 -68 113 l-32 15 0 796 0 797 30 12 c17 7 37 22 45 33 14 19 15 19 144 -13 l131 -32 0 -31 c0 -41 41 -93 86 -107 125 -42 229 97 156 208 -35 54 -128 69 -189 31 l-34 -21 -127 32 -128 31 -20 42 c-11 25 -34 52 -56 66 l-38 24 0 142 c0 142 0 142 25 153 38 18 65 69 65 126 0 43 -4 53 -39 87 -34 35 -44 39 -87 39 -30 0 -61 -7 -80 -19z"
       id="path11718" />
  </g>
</svg>
