<?xml version="1.0" standalone="no"?>
<!DOCTYPE svg PUBLIC "-//W3C//DTD SVG 20010904//EN"
 "http://www.w3.org/TR/2001/REC-SVG-20010904/DTD/svg10.dtd">
<svg version="1.0" xmlns="http://www.w3.org/2000/svg"
 width="547.000000pt" height="536.000000pt" viewBox="0 0 547.000000 536.000000"
 preserveAspectRatio="xMidYMid meet">
<metadata>
Created by potrace 1.16, written by Peter Selinger 2001-2019
</metadata>
<g transform="translate(0.000000,536.000000) scale(0.100000,-0.100000)"
fill="#000000" stroke="none">
<path d="M768 5184 c2 -13 8 -24 13 -24 5 0 9 -13 9 -29 0 -16 4 -31 8 -33 4
-1 18 -32 31 -68 13 -36 27 -67 30 -70 4 -3 18 -39 31 -80 13 -41 27 -77 30
-80 4 -3 17 -36 30 -75 13 -38 27 -74 32 -79 4 -6 8 -18 8 -28 0 -10 5 -18 10
-18 6 0 10 -13 10 -30 0 -16 3 -30 8 -30 4 0 18 -35 31 -78 14 -42 27 -79 30
-82 9 -8 28 -51 43 -95 7 -22 15 -42 19 -45 3 -3 16 -40 30 -82 13 -43 27 -78
32 -78 4 0 7 -9 7 -20 0 -11 5 -20 10 -20 6 0 10 -11 10 -24 0 -14 4 -27 9
-30 18 -12 20 -67 3 -106 -9 -22 -20 -40 -24 -40 -5 0 -8 -9 -8 -20 0 -11 -3
-20 -8 -20 -8 0 -26 -38 -44 -97 -7 -24 -16 -43 -19 -43 -3 0 -11 -19 -18 -42
-7 -24 -17 -53 -22 -66 -5 -13 -9 -32 -9 -42 0 -11 -4 -20 -8 -20 -5 0 -14
-30 -21 -67 -7 -38 -17 -90 -22 -116 -5 -26 -9 -79 -9 -117 0 -40 -4 -70 -10
-70 -6 0 -10 -33 -10 -80 0 -47 4 -80 10 -80 6 0 10 -27 10 -61 0 -64 -3 -70
-60 -109 -12 -8 -31 -23 -42 -32 -12 -10 -25 -18 -29 -18 -4 0 -14 -6 -21 -12
-20 -19 -50 -38 -70 -44 -10 -4 -18 -10 -18 -15 0 -5 -6 -9 -14 -9 -7 0 -19
-6 -25 -14 -7 -8 -26 -21 -44 -30 -49 -25 -74 -41 -116 -76 -13 -11 -28 -20
-32 -20 -4 0 -19 -10 -31 -23 -13 -13 -52 -38 -86 -57 -34 -18 -62 -37 -62
-41 0 -5 -9 -9 -20 -9 -11 0 -20 -4 -20 -8 0 -5 -19 -19 -42 -32 -24 -13 -52
-32 -62 -42 -11 -10 -26 -18 -33 -18 -7 0 -13 -4 -13 -10 0 -5 -9 -10 -20 -10
-11 0 -20 -4 -20 -10 0 -7 182 -10 526 -10 407 0 528 -3 537 -12 7 -7 23 -33
36 -58 43 -79 46 -84 64 -104 9 -11 17 -23 17 -28 0 -4 16 -25 35 -45 19 -20
35 -41 35 -46 0 -11 246 -257 257 -257 5 0 26 -16 46 -35 20 -19 41 -35 45
-35 5 0 17 -9 29 -19 11 -11 40 -29 64 -41 24 -13 46 -26 49 -30 7 -11 117
-63 168 -79 23 -8 42 -18 42 -23 0 -4 7 -8 15 -8 8 0 23 -4 33 -9 9 -5 36 -15
59 -21 32 -10 44 -20 53 -44 7 -17 16 -39 21 -48 5 -10 9 -25 9 -33 0 -8 4
-15 9 -15 4 0 19 -34 32 -75 13 -41 27 -75 32 -75 4 0 7 -13 7 -30 0 -16 5
-30 10 -30 6 0 10 -7 10 -15 0 -8 5 -24 10 -35 22 -44 27 -57 41 -102 7 -27
16 -48 19 -48 4 0 13 -23 20 -51 8 -27 18 -52 22 -55 4 -3 8 -16 8 -30 0 -13
5 -24 10 -24 6 0 10 -8 10 -18 0 -10 4 -22 9 -27 5 -6 14 -28 21 -50 7 -22 16
-42 19 -45 4 -3 17 -36 29 -75 29 -87 64 -178 71 -185 4 -3 12 -23 19 -45 24
-72 34 -95 43 -95 5 0 9 9 9 19 0 11 5 23 10 26 5 3 10 17 10 30 0 13 5 27 10
30 5 3 10 15 10 25 0 10 4 20 9 22 5 2 28 59 51 128 23 69 46 127 50 130 4 3
17 37 30 75 13 39 26 72 29 75 4 3 17 37 30 75 13 39 26 72 30 75 7 5 60 151
68 187 3 13 9 23 14 23 5 0 9 14 9 30 0 17 3 30 8 30 4 0 18 34 31 75 13 41
27 75 31 75 4 0 15 24 24 53 16 50 19 53 64 66 79 22 112 35 112 43 0 4 7 8
15 8 8 0 23 4 33 9 9 5 49 24 87 41 39 18 72 35 75 40 3 4 25 17 49 30 24 12
53 30 64 41 12 10 25 19 30 19 5 0 17 8 26 18 9 10 31 29 50 42 19 13 57 46
85 72 28 26 56 48 63 48 7 0 13 6 13 13 0 7 27 41 60 75 33 35 60 66 60 71 0
4 14 22 30 39 17 18 30 36 30 40 0 5 8 17 18 28 10 10 34 48 52 84 19 36 40
71 47 78 9 9 129 12 532 12 287 0 521 4 521 8 0 5 -20 19 -45 32 -25 13 -45
26 -45 29 0 3 -20 17 -45 30 -25 13 -45 28 -45 32 0 5 -7 9 -15 9 -8 0 -15 3
-15 8 0 4 -23 18 -50 31 -28 14 -50 29 -50 33 0 4 -7 8 -15 8 -8 0 -15 4 -15
8 0 5 -19 19 -42 32 -24 13 -52 33 -63 43 -11 10 -29 23 -40 28 -24 11 -49 26
-92 56 -17 13 -36 23 -42 23 -6 0 -11 4 -11 9 0 5 -8 11 -17 15 -21 6 -51 25
-71 44 -7 6 -17 12 -21 12 -4 0 -17 8 -29 18 -11 9 -30 24 -42 32 -12 8 -29
20 -38 26 -14 10 -17 41 -18 220 -1 150 -6 236 -19 304 -9 52 -19 110 -22 128
-3 17 -9 32 -14 32 -5 0 -9 9 -9 20 0 10 -4 29 -9 42 -5 13 -15 43 -22 68 -7
25 -16 47 -19 50 -6 6 -24 44 -40 88 -7 17 -16 32 -21 32 -5 0 -9 11 -9 24 0
13 -4 26 -9 28 -5 2 -18 19 -28 38 -20 35 -20 35 0 95 11 33 24 62 29 63 4 2
8 15 8 28 0 13 3 24 8 24 4 0 18 36 32 80 14 44 27 80 31 80 3 0 16 33 29 73
14 39 27 74 31 77 4 3 22 50 40 105 19 55 36 102 40 105 3 3 12 23 19 45 7 22
16 45 20 50 4 6 13 31 21 58 7 26 16 47 19 47 4 0 13 23 20 51 8 27 18 52 22
55 4 3 8 16 8 30 0 13 3 24 8 24 8 0 26 38 44 98 7 23 16 42 20 42 5 0 8 14 8
30 0 17 5 30 10 30 6 0 10 7 10 15 0 8 -3 15 -6 15 -12 0 -64 -34 -64 -42 0
-4 -7 -8 -15 -8 -8 0 -15 -4 -15 -9 0 -5 -14 -14 -30 -21 -16 -7 -30 -16 -30
-20 0 -4 -13 -13 -30 -20 -16 -7 -30 -16 -30 -21 0 -5 -5 -9 -10 -9 -6 0 -19
-8 -30 -18 -10 -10 -42 -29 -69 -42 -28 -14 -51 -28 -51 -32 0 -5 -7 -8 -15
-8 -8 0 -15 -4 -15 -10 0 -5 -7 -10 -15 -10 -8 0 -15 -4 -15 -10 0 -5 -6 -10
-12 -10 -7 0 -26 -11 -42 -25 -16 -13 -37 -27 -47 -30 -11 -4 -19 -11 -19 -16
0 -5 -7 -9 -16 -9 -9 0 -24 -8 -33 -18 -9 -10 -36 -29 -61 -43 -25 -13 -52
-31 -60 -39 -8 -8 -35 -26 -60 -39 -25 -14 -47 -28 -50 -31 -3 -4 -18 -14 -35
-23 -16 -8 -43 -27 -60 -41 -16 -14 -42 -31 -57 -37 -15 -6 -28 -15 -28 -20 0
-5 -9 -9 -20 -9 -11 0 -20 -4 -20 -10 0 -5 -11 -10 -25 -10 -14 0 -25 5 -25
10 0 6 -9 10 -20 10 -11 0 -20 3 -20 8 0 4 -27 18 -60 32 -33 14 -60 28 -60
31 0 3 -33 16 -72 29 -40 14 -75 27 -78 30 -5 7 -64 23 -150 40 -30 7 -71 16
-91 21 -20 5 -59 9 -88 9 -28 0 -51 5 -51 10 0 6 -63 10 -170 10 -107 0 -170
-4 -170 -10 0 -5 -23 -10 -51 -10 -29 0 -68 -4 -88 -9 -20 -5 -81 -20 -136
-32 -55 -12 -102 -25 -105 -28 -3 -4 -38 -17 -77 -31 -40 -13 -73 -26 -73 -29
0 -3 -27 -17 -60 -31 -33 -14 -60 -28 -60 -32 0 -5 -7 -8 -15 -8 -8 0 -15 -4
-15 -9 0 -15 -50 -19 -65 -5 -7 8 -21 14 -29 14 -9 0 -16 4 -16 8 0 5 -19 19
-42 32 -24 13 -52 32 -62 42 -11 10 -24 18 -29 18 -5 0 -17 8 -26 19 -9 10
-38 30 -66 44 -27 14 -62 36 -77 49 -15 12 -49 34 -75 48 -27 14 -57 33 -67
42 -11 10 -25 18 -30 18 -6 0 -27 13 -46 30 -19 16 -47 35 -62 41 -16 6 -28
15 -28 20 0 5 -7 9 -16 9 -9 0 -24 8 -33 19 -9 10 -36 28 -61 41 -25 12 -47
26 -50 29 -3 4 -21 18 -40 31 -19 13 -37 27 -40 30 -3 3 -25 16 -50 29 -25 14
-47 28 -50 31 -3 4 -19 14 -36 23 -31 16 -31 16 -26 -9z m412 -436 c0 -4 7 -8
15 -8 8 0 15 -4 15 -9 0 -5 8 -11 18 -14 22 -7 71 -37 96 -59 11 -10 26 -18
33 -18 7 0 13 -4 13 -10 0 -5 7 -10 15 -10 8 0 15 -4 15 -10 0 -5 7 -10 15
-10 8 0 15 -4 15 -9 0 -5 14 -14 30 -21 17 -7 30 -16 30 -21 0 -5 7 -9 16 -9
9 0 24 -8 33 -18 9 -10 36 -29 61 -43 25 -13 47 -26 50 -29 3 -3 21 -17 40
-30 19 -13 37 -27 40 -30 3 -3 25 -16 50 -29 25 -14 51 -31 58 -38 7 -7 17
-13 22 -13 5 0 15 -6 22 -12 7 -7 33 -24 58 -37 25 -14 52 -33 61 -43 9 -10
22 -18 29 -18 7 0 20 -8 29 -17 9 -10 25 -23 36 -29 50 -27 70 -40 87 -54 9
-9 45 -31 80 -49 34 -19 68 -40 76 -47 7 -8 17 -14 22 -14 5 0 19 -10 32 -22
13 -13 43 -34 68 -48 25 -13 54 -32 64 -42 11 -10 26 -18 33 -18 7 0 13 -4 13
-10 0 -5 6 -10 13 -10 7 0 23 -9 35 -20 12 -11 26 -20 32 -20 5 0 10 -4 10
-10 0 -5 5 -10 11 -10 6 0 24 -10 41 -21 17 -12 33 -18 37 -13 3 5 18 15 34
23 15 8 27 18 27 23 0 4 7 8 16 8 9 0 24 8 33 19 9 10 36 28 60 40 24 13 53
31 64 42 12 10 26 19 31 19 6 0 25 12 41 26 17 14 44 33 60 41 17 9 32 19 35
23 3 3 25 17 50 31 25 13 51 29 58 36 6 6 21 15 32 18 11 3 20 10 20 15 0 5 9
12 20 15 11 4 31 16 43 28 12 12 42 33 67 46 25 14 47 27 50 31 3 3 39 26 80
50 41 25 81 50 88 57 7 7 17 13 22 13 5 0 20 11 34 25 14 14 32 25 41 25 8 0
15 4 15 9 0 5 8 12 19 16 10 3 31 16 47 30 15 13 47 34 71 46 24 12 43 26 43
31 0 4 7 8 15 8 9 0 25 8 36 18 10 11 32 25 47 33 15 8 35 22 46 31 10 9 31
22 47 28 16 7 29 16 29 20 0 4 14 13 30 20 17 7 30 16 30 21 0 4 9 11 20 14
11 3 26 12 32 18 25 25 88 56 88 45 0 -15 -23 -81 -31 -88 -3 -3 -16 -40 -30
-82 -13 -43 -27 -78 -31 -78 -5 0 -8 -9 -8 -19 0 -11 -3 -21 -8 -23 -4 -1 -23
-50 -42 -108 -19 -58 -37 -107 -40 -110 -13 -12 -30 -51 -30 -69 0 -11 -4 -23
-10 -26 -6 -3 -10 -15 -10 -26 0 -10 -3 -19 -8 -19 -4 0 -18 -36 -32 -80 -14
-44 -28 -80 -32 -80 -5 0 -8 -9 -8 -19 0 -11 -4 -23 -10 -26 -6 -3 -10 -17
-10 -30 0 -13 -4 -26 -8 -29 -5 -3 -19 -38 -32 -78 -13 -40 -27 -75 -30 -78
-7 -6 -41 -98 -47 -127 -3 -13 -9 -23 -12 -23 -4 0 -18 -33 -31 -72 -14 -40
-27 -75 -30 -78 -3 -3 -12 -25 -20 -50 -7 -25 -16 -49 -20 -55 -3 -5 -17 -44
-30 -85 -14 -41 -27 -77 -31 -80 -15 -11 -20 -50 -7 -50 7 0 27 -12 43 -26 17
-14 43 -33 60 -41 16 -9 35 -22 43 -29 7 -8 17 -14 22 -14 5 0 19 -10 32 -23
13 -12 44 -33 71 -47 26 -14 47 -28 47 -32 0 -5 7 -8 15 -8 8 0 15 -4 15 -10
0 -5 6 -10 13 -10 10 0 163 -94 177 -110 9 -9 45 -30 63 -36 9 -4 17 -10 17
-14 0 -4 13 -13 30 -20 16 -7 40 -21 52 -31 35 -28 41 -32 78 -53 33 -19 45
-27 73 -52 7 -5 32 -21 57 -35 25 -13 47 -27 50 -30 3 -4 27 -21 54 -38 l50
-31 -676 0 -676 0 -18 -57 c-10 -32 -20 -60 -24 -63 -5 -5 -56 -143 -68 -185
-3 -11 -8 -22 -12 -25 -4 -3 -22 -50 -41 -105 -18 -55 -37 -102 -40 -105 -3
-3 -16 -36 -29 -75 -13 -38 -26 -72 -30 -75 -4 -3 -18 -36 -31 -75 -13 -38
-27 -71 -31 -73 -5 -2 -8 -17 -8 -33 0 -16 -4 -29 -8 -29 -5 0 -15 -19 -22
-42 -8 -24 -17 -47 -20 -53 -4 -5 -13 -31 -21 -57 -7 -27 -16 -48 -19 -48 -4
0 -13 -23 -20 -51 -8 -27 -18 -52 -22 -55 -4 -3 -8 -16 -8 -30 0 -13 -3 -24
-8 -24 -8 0 -22 -31 -44 -95 -7 -22 -15 -42 -18 -45 -3 -3 -16 -39 -30 -80
-13 -41 -27 -79 -31 -85 -4 -5 -13 -29 -20 -52 -6 -24 -15 -43 -18 -43 -3 0
-17 -36 -31 -80 -14 -44 -28 -80 -31 -80 -8 0 -23 35 -40 93 -7 26 -17 47 -21
47 -4 0 -8 8 -8 18 0 10 -4 22 -9 27 -4 6 -23 55 -42 110 -18 55 -36 102 -39
105 -3 3 -16 37 -29 75 -14 39 -27 72 -30 75 -6 5 -39 89 -49 125 -3 11 -8 22
-11 25 -4 3 -22 51 -41 108 -18 56 -37 102 -42 102 -4 0 -8 14 -8 30 0 17 -4
30 -9 30 -4 0 -19 34 -32 75 -13 41 -27 75 -31 75 -5 0 -8 7 -8 15 0 9 -9 35
-20 57 -11 23 -20 50 -20 60 0 10 -4 18 -10 18 -5 0 -10 8 -10 18 0 10 -4 22
-8 28 -5 5 -19 43 -32 84 -14 41 -27 77 -31 80 -3 3 -12 26 -20 53 -7 26 -16
47 -19 47 -4 0 -13 23 -20 50 -7 27 -16 50 -20 50 -3 0 -12 21 -19 47 -8 27
-19 58 -24 71 l-10 22 -671 0 -670 0 50 31 c27 17 51 34 54 38 3 3 25 17 50
30 25 14 47 27 50 30 8 9 100 71 106 71 5 0 19 11 49 38 7 6 19 12 25 12 6 0
18 6 25 13 27 23 40 33 55 40 19 9 53 30 60 37 14 16 167 110 178 110 6 0 12
5 12 10 0 6 7 10 15 10 8 0 15 3 15 8 0 4 21 18 48 32 26 14 57 35 70 47 13
13 27 23 32 23 5 0 15 6 22 14 8 7 27 20 43 29 17 8 44 27 60 41 17 14 33 26
38 26 4 0 7 9 7 20 0 11 -4 20 -8 20 -5 0 -15 23 -22 51 -8 27 -18 52 -22 55
-4 3 -8 13 -8 23 0 9 -9 36 -20 59 -11 22 -20 48 -20 57 0 8 -3 15 -8 15 -4 0
-18 36 -32 80 -14 44 -28 80 -32 80 -5 0 -8 6 -8 13 0 7 -9 32 -20 55 -11 22
-20 48 -20 57 0 8 -3 15 -7 15 -5 0 -19 35 -32 78 -13 42 -28 81 -33 87 -4 5
-8 17 -8 27 0 10 -4 18 -10 18 -5 0 -10 14 -10 30 0 17 -3 30 -8 30 -4 0 -18
33 -32 73 -13 39 -27 74 -30 77 -3 3 -17 38 -30 78 -14 39 -27 72 -31 72 -3 0
-21 46 -40 103 -18 56 -37 104 -41 105 -5 2 -8 17 -8 33 0 16 -4 29 -8 29 -5
0 -15 19 -22 43 -7 23 -17 46 -22 52 -4 5 -8 17 -8 27 0 10 -4 18 -8 18 -4 0
-14 21 -21 48 -8 26 -16 53 -19 60 -2 7 12 3 37 -10 23 -12 41 -25 41 -30z"/>
<path d="M1310 4527 c0 -7 4 -17 8 -22 5 -6 15 -30 22 -55 8 -25 17 -47 20
-50 3 -3 11 -23 18 -45 22 -64 36 -95 44 -95 5 0 8 -13 8 -30 0 -16 3 -30 8
-30 4 0 18 -35 31 -78 13 -42 28 -81 33 -86 4 -6 8 -18 8 -28 0 -10 5 -18 10
-18 6 0 10 -10 10 -23 0 -13 4 -27 9 -33 5 -5 14 -27 21 -49 7 -22 16 -42 19
-45 4 -3 17 -38 31 -77 13 -40 27 -73 32 -73 4 0 8 -10 8 -23 0 -13 4 -27 9
-32 4 -6 24 -55 42 -110 19 -55 36 -102 39 -105 5 -5 38 -92 48 -125 3 -11 8
-22 12 -25 4 -3 15 -29 24 -57 19 -57 33 -65 56 -33 8 11 19 20 25 20 5 0 23
11 39 25 16 13 37 27 47 30 11 4 19 11 19 16 0 5 7 9 15 9 8 0 15 5 15 10 0 6
6 10 14 10 8 0 16 3 18 8 4 9 57 41 81 49 9 3 17 9 17 14 0 5 7 9 15 9 8 0 15
4 15 9 0 5 16 16 35 25 19 9 40 23 48 30 7 8 33 24 58 36 24 13 51 30 59 40 8
9 35 27 60 41 25 13 53 31 63 40 10 9 38 27 62 39 53 27 56 42 15 67 -16 9
-30 20 -30 23 0 3 -22 17 -50 31 -27 13 -50 27 -50 32 0 4 -7 7 -15 7 -8 0
-15 4 -15 8 0 5 -22 21 -50 36 -27 15 -55 32 -63 39 -7 7 -23 18 -35 25 -12 6
-32 18 -44 25 -12 6 -28 18 -36 25 -8 7 -28 20 -45 28 -16 9 -39 25 -50 35
-12 10 -27 19 -34 19 -7 0 -13 3 -13 8 0 4 -20 18 -45 31 -25 13 -45 28 -45
32 0 5 -7 9 -15 9 -8 0 -15 5 -15 10 0 6 -6 10 -13 10 -7 0 -22 8 -33 18 -10
10 -39 29 -64 42 -25 14 -54 33 -64 43 -11 9 -26 17 -33 17 -7 0 -13 4 -13 9
0 5 -8 11 -17 14 -27 8 -76 40 -94 60 -9 9 -22 17 -29 17 -7 0 -20 8 -29 18
-9 10 -35 29 -58 42 -24 13 -43 27 -43 32 0 4 -7 8 -15 8 -8 0 -15 3 -15 8 0
4 -23 18 -50 31 -28 14 -50 29 -50 33 0 4 -4 8 -10 8 -5 0 -10 -6 -10 -13z"/>
<path d="M4150 4533 c0 -5 -22 -20 -49 -32 -27 -13 -62 -34 -77 -48 -16 -14
-42 -32 -59 -40 -16 -9 -32 -19 -35 -23 -3 -3 -25 -17 -50 -31 -25 -13 -51
-30 -58 -36 -7 -7 -34 -25 -60 -40 -26 -15 -48 -31 -50 -35 -2 -4 -10 -8 -18
-8 -8 0 -26 -11 -40 -25 -14 -14 -29 -25 -33 -25 -4 0 -21 -11 -37 -25 -16
-14 -35 -25 -41 -25 -7 0 -13 -4 -13 -10 0 -5 -7 -10 -15 -10 -8 0 -15 -4 -15
-8 0 -5 -30 -24 -66 -43 -36 -19 -74 -42 -84 -51 -11 -10 -24 -18 -30 -18 -5
0 -10 -4 -10 -9 0 -5 -13 -14 -30 -21 -16 -7 -30 -16 -30 -20 0 -4 -13 -13
-30 -20 -16 -7 -30 -16 -30 -21 0 -5 -7 -9 -15 -9 -8 0 -15 -4 -15 -8 0 -5
-27 -23 -60 -42 -33 -19 -60 -37 -60 -42 0 -4 -9 -8 -20 -8 -11 0 -20 -4 -20
-8 0 -5 -20 -19 -45 -32 -25 -13 -45 -26 -45 -30 0 -4 -13 -13 -30 -20 -38
-16 -39 -42 -2 -61 15 -8 33 -20 40 -26 7 -7 17 -13 22 -13 5 0 15 -6 22 -13
7 -7 34 -25 60 -40 26 -15 53 -33 60 -40 7 -7 33 -24 58 -38 25 -13 51 -30 58
-36 7 -7 28 -20 47 -29 19 -9 35 -20 35 -25 0 -5 7 -9 15 -9 8 0 15 -3 15 -8
0 -4 21 -18 48 -32 26 -13 54 -32 62 -41 8 -9 35 -26 59 -39 25 -12 51 -28 58
-36 8 -7 27 -21 43 -31 17 -9 30 -21 30 -25 0 -20 19 -5 30 25 28 72 35 87 42
87 5 0 8 11 8 24 0 14 4 27 8 30 4 3 14 28 22 55 7 28 16 51 20 51 3 0 12 21
19 48 8 26 17 52 21 57 4 6 18 42 31 80 13 39 26 72 29 75 3 3 16 37 29 75 13
39 27 72 31 75 4 3 17 37 30 75 13 39 26 72 29 75 4 3 26 64 50 135 25 72 48
132 52 135 3 3 17 37 30 75 13 39 26 72 29 75 11 10 42 111 36 117 -3 4 -6 2
-6 -4z"/>
<path d="M2712 3600 c-12 -11 -24 -20 -27 -20 -4 0 -26 -13 -50 -30 -24 -16
-48 -30 -54 -30 -6 0 -11 -4 -11 -8 0 -5 -20 -19 -45 -32 -25 -13 -45 -27 -45
-32 0 -4 -7 -8 -15 -8 -8 0 -15 -4 -15 -9 0 -5 -13 -14 -30 -21 -16 -7 -30
-16 -30 -21 0 -5 -7 -9 -16 -9 -9 0 -24 -8 -33 -19 -9 -10 -36 -28 -60 -40
-24 -13 -52 -31 -63 -40 -10 -10 -31 -24 -46 -32 -15 -8 -33 -20 -40 -27 -8
-7 -28 -20 -45 -29 -18 -9 -34 -19 -37 -23 -3 -3 -25 -17 -50 -31 -25 -13 -51
-29 -58 -36 -6 -6 -21 -15 -32 -18 -11 -3 -20 -14 -20 -22 0 -26 43 -153 52
-153 4 0 8 -11 8 -25 0 -14 4 -25 8 -25 5 0 19 -34 32 -75 13 -41 26 -75 30
-75 3 0 13 -23 20 -51 8 -27 18 -52 22 -55 4 -3 8 -14 8 -25 0 -10 5 -19 10
-19 6 0 10 -11 10 -25 l0 -25 644 0 c697 0 656 -3 656 51 0 10 4 19 8 19 5 0
15 19 22 43 7 23 17 46 22 52 4 5 8 17 8 27 0 10 5 18 10 18 6 0 10 11 10 24
0 14 4 27 8 30 4 3 14 28 22 55 7 28 17 51 22 51 4 0 8 11 8 25 0 14 5 25 10
25 6 0 10 8 10 18 0 10 3 22 7 26 8 8 33 76 33 92 0 6 -22 21 -50 34 -27 13
-50 27 -50 30 0 4 -13 13 -30 20 -16 7 -30 16 -30 20 0 4 -13 13 -29 20 -16 6
-37 19 -47 28 -11 9 -31 23 -46 31 -15 8 -36 21 -46 30 -18 16 -23 19 -102 62
-25 13 -55 34 -67 46 -12 12 -32 24 -43 28 -11 3 -20 11 -20 16 0 5 -7 9 -16
9 -9 0 -24 8 -33 18 -9 9 -28 23 -43 31 -16 8 -28 18 -28 23 0 4 -5 8 -11 8
-6 0 -30 14 -54 30 -24 17 -46 30 -50 30 -3 0 -15 9 -27 20 -12 11 -25 20 -28
20 -3 0 -16 -9 -28 -20z"/>
<path d="M1750 2976 c-19 -11 -43 -28 -53 -37 -10 -9 -38 -27 -62 -39 -25 -13
-45 -27 -45 -32 0 -4 -7 -8 -16 -8 -9 0 -26 -8 -39 -17 -12 -10 -33 -25 -45
-33 -12 -8 -28 -21 -36 -27 -7 -7 -18 -13 -24 -13 -6 0 -17 -6 -24 -12 -8 -7
-24 -20 -36 -28 -12 -8 -33 -23 -45 -32 -13 -10 -27 -18 -31 -18 -4 0 -21 -11
-38 -24 -17 -12 -44 -31 -61 -40 -16 -9 -43 -25 -60 -36 -16 -11 -37 -23 -45
-27 -18 -8 -40 -29 -40 -37 0 -3 209 -6 465 -6 l465 0 -7 33 c-3 17 -10 34
-15 35 -4 2 -8 15 -8 28 0 13 -4 24 -10 24 -5 0 -10 9 -10 19 0 11 -4 23 -10
26 -5 3 -10 17 -10 30 0 13 -4 26 -8 29 -4 3 -14 28 -22 55 -7 28 -17 51 -22
51 -4 0 -8 7 -8 15 0 9 -9 35 -20 57 -11 23 -20 49 -20 59 0 26 -21 28 -60 5z"/>
<path d="M3651 2930 c-13 -38 -27 -71 -30 -72 -3 -2 -22 -49 -41 -105 -19 -57
-38 -103 -42 -103 -5 0 -8 -13 -8 -30 0 -16 -4 -30 -9 -30 -5 0 -11 -10 -14
-22 -2 -13 -8 -31 -12 -40 -7 -17 19 -18 464 -18 259 0 471 3 471 6 0 8 -22
29 -40 37 -8 4 -28 16 -45 27 -16 11 -43 27 -60 36 -16 9 -44 28 -61 40 -17
13 -34 24 -38 24 -4 0 -18 8 -31 18 -12 9 -33 24 -45 32 -12 8 -28 21 -36 28
-7 6 -18 12 -24 12 -6 0 -17 6 -24 13 -8 6 -24 19 -36 27 -12 8 -33 23 -45 33
-13 9 -30 17 -39 17 -9 0 -16 4 -16 8 0 5 -20 19 -45 32 -24 12 -52 30 -62 39
-21 19 -91 61 -101 61 -4 0 -18 -31 -31 -70z"/>
<path d="M2146 2383 c4 -16 10 -30 13 -33 3 -3 22 -50 40 -105 19 -55 37 -102
41 -105 4 -3 17 -36 31 -75 13 -38 26 -72 29 -75 3 -3 17 -38 30 -77 14 -40
28 -73 32 -73 5 0 8 -13 8 -30 0 -16 4 -30 8 -30 5 0 24 -46 43 -102 18 -57
37 -104 41 -106 5 -2 8 -10 8 -18 0 -8 9 -34 20 -56 11 -23 20 -48 20 -55 0
-7 3 -13 8 -13 4 0 18 -36 32 -80 14 -44 28 -80 32 -80 5 0 8 -7 8 -15 0 -8 9
-34 19 -58 11 -23 30 -73 43 -112 13 -38 26 -71 30 -73 5 -2 8 -12 8 -22 0
-10 5 -22 10 -25 6 -3 10 -14 10 -24 0 -19 22 -71 30 -71 3 0 16 36 30 80 14
44 28 80 32 80 5 0 8 8 8 18 0 10 3 22 7 25 5 6 56 143 70 192 4 11 9 22 12
25 4 3 18 39 31 80 13 41 27 77 30 80 9 8 50 111 50 126 0 7 3 14 8 16 4 2 23
49 41 106 19 56 38 102 43 102 4 0 8 11 8 25 0 14 5 25 10 25 6 0 10 10 10 23
0 13 4 27 8 33 5 5 15 29 22 54 8 25 17 47 20 50 3 3 11 23 18 45 22 64 36 95
44 95 5 0 8 10 8 23 0 13 4 27 8 33 5 5 20 44 33 86 13 43 27 78 32 78 4 0 7
9 7 20 0 20 -7 20 -595 20 l-595 0 6 -27z"/>
</g>
</svg>
