<?xml version="1.0" standalone="no"?>
<!DOCTYPE svg PUBLIC "-//W3C//DTD SVG 20010904//EN"
 "http://www.w3.org/TR/2001/REC-SVG-20010904/DTD/svg10.dtd">
<svg version="1.0" xmlns="http://www.w3.org/2000/svg"
 width="547.000000pt" height="540.000000pt" viewBox="0 0 547.000000 540.000000"
 preserveAspectRatio="xMidYMid meet">
<metadata>
Created by potrace 1.16, written by Peter Selinger 2001-2019
</metadata>
<g transform="translate(0.000000,540.000000) scale(0.100000,-0.100000)"
fill="#000000" stroke="none">
<path d="M2725 5180 c-4 -16 -10 -30 -14 -30 -5 0 -14 -21 -21 -47 -12 -45
-120 -396 -124 -399 0 -1 -53 -9 -116 -18 -63 -9 -172 -31 -242 -48 l-126 -31
-32 26 c-65 55 -136 55 -205 0 -39 -31 -56 -76 -49 -126 5 -30 2 -34 -53 -64
-111 -62 -138 -80 -177 -117 -25 -22 -50 -36 -65 -36 -27 0 -131 45 -141 60
-3 4 -88 47 -190 95 -101 47 -187 90 -190 94 -10 15 -50 32 -50 21 0 -5 4 -10
8 -10 5 0 47 -80 93 -177 46 -98 87 -180 90 -183 12 -10 89 -170 89 -186 0
-17 -49 -86 -81 -115 -17 -16 -38 -48 -102 -162 -31 -56 -33 -58 -72 -56 -74
3 -86 -1 -125 -41 -45 -46 -55 -74 -47 -132 4 -29 16 -51 42 -78 l37 -38 -31
-123 c-16 -68 -35 -162 -41 -209 -7 -47 -13 -94 -16 -106 -3 -17 -41 -32 -251
-98 -137 -43 -250 -82 -253 -86 -3 -4 -20 -11 -37 -15 -18 -3 -35 -10 -37 -14
-3 -4 67 -29 154 -56 88 -26 161 -51 162 -55 2 -4 61 -25 133 -47 l130 -39 7
-55 c13 -92 39 -221 60 -297 21 -72 21 -72 2 -95 -50 -57 -61 -125 -30 -185
23 -44 61 -66 124 -72 l54 -5 38 -72 c42 -80 78 -134 96 -146 7 -4 27 -30 44
-59 l32 -51 -38 -81 c-21 -45 -41 -83 -45 -86 -5 -3 -44 -82 -88 -175 -44 -94
-84 -175 -89 -181 -14 -15 -33 -54 -28 -54 10 0 212 100 225 111 8 7 77 44
155 82 78 38 143 73 146 78 4 5 19 11 35 14 25 5 37 0 73 -33 24 -22 55 -45
70 -53 42 -21 135 -81 150 -96 7 -7 18 -13 23 -13 6 0 10 -15 8 -32 -1 -18 -1
-43 0 -55 2 -30 74 -102 113 -114 45 -12 101 5 137 43 l29 32 81 -19 c45 -10
81 -21 81 -25 0 -9 80 -26 198 -44 52 -7 97 -17 101 -22 5 -5 44 -121 86 -259
43 -137 82 -252 86 -255 4 -3 11 -18 14 -33 4 -15 10 -29 14 -32 7 -4 92 254
106 322 4 18 10 33 14 33 5 0 21 43 37 95 27 91 54 126 54 70 l0 -25 580 0
c380 0 580 -3 580 -10 0 -18 82 -12 96 8 15 19 19 112 5 112 -5 0 -16 6 -23
14 -8 7 -43 29 -80 48 -74 40 -142 98 -165 143 -9 16 -26 37 -38 47 -12 9 -28
32 -35 49 -15 34 -18 28 50 82 9 7 23 18 32 25 19 15 50 9 72 -13 8 -8 83 -47
168 -86 84 -40 155 -75 158 -79 5 -8 210 -108 210 -103 0 11 -103 219 -111
224 -6 3 -44 77 -85 165 -42 87 -80 161 -85 162 -11 4 -12 59 -1 64 12 5 97
129 129 188 45 85 61 100 108 100 41 0 73 17 115 60 20 20 24 35 25 83 0 45
-4 61 -17 68 -10 6 -18 16 -18 24 0 8 -8 18 -17 24 -16 9 -16 16 7 108 14 54
28 100 31 103 8 6 26 94 35 171 l6 56 136 42 c76 24 139 46 142 50 3 4 76 29
162 56 86 26 155 52 153 56 -3 4 -17 10 -32 14 -15 3 -30 10 -33 14 -3 4 -52
22 -110 40 -58 18 -176 55 -262 82 l-158 50 0 32 c0 49 -30 221 -39 227 -4 3
-19 49 -32 104 l-24 99 39 33 c35 30 40 40 44 89 4 54 4 54 -47 105 -49 49
-63 54 -123 50 -16 -1 -34 5 -42 13 -14 14 -80 119 -105 169 -8 15 -31 46 -53
70 -33 36 -38 48 -33 73 3 16 10 32 15 35 5 3 43 77 85 165 42 88 79 162 83
165 9 7 74 142 70 145 -6 6 -319 -144 -334 -160 -20 -20 -162 -85 -185 -85
-19 0 -139 76 -139 88 0 9 -67 51 -151 96 l-64 34 -5 58 c-8 93 -45 132 -135
141 l-55 6 0 42 0 43 -52 6 c-59 7 -308 -17 -403 -39 -33 -8 -65 -15 -72 -15
-6 0 -21 30 -34 68 -12 37 -25 69 -28 72 -4 3 -31 83 -61 178 -30 94 -57 172
-61 172 -4 0 -10 -13 -14 -30z m675 -460 c0 -11 -6 -20 -12 -20 -7 0 -47 -13
-88 -30 -41 -16 -87 -29 -102 -30 -14 0 -46 -8 -70 -18 -24 -10 -79 -29 -123
-42 -44 -12 -82 -26 -85 -30 -3 -4 -45 -22 -95 -40 -49 -17 -124 -44 -165 -60
-41 -15 -106 -39 -145 -53 -38 -14 -71 -30 -73 -35 -2 -6 -33 -25 -70 -43 -59
-28 -159 -95 -187 -125 -5 -5 -36 -30 -67 -53 -32 -24 -97 -83 -145 -132 -49
-49 -107 -103 -130 -121 -24 -17 -43 -38 -43 -45 0 -7 -4 -13 -9 -13 -12 0
-59 -65 -107 -150 -21 -36 -49 -76 -62 -90 -28 -29 -114 -196 -132 -258 -7
-23 -16 -42 -20 -42 -30 0 -71 -226 -71 -390 1 -160 32 -325 71 -373 5 -7 31
-41 58 -77 27 -36 74 -85 104 -110 31 -25 74 -61 96 -80 29 -24 71 -44 144
-67 110 -35 179 -40 293 -24 59 9 201 69 236 100 10 9 39 32 65 51 133 100
247 236 326 393 37 73 67 138 68 145 0 6 4 12 8 12 21 0 64 194 61 269 l-3 56
225 2 c123 0 229 2 234 2 12 1 9 381 -4 485 -12 93 -40 167 -87 230 -72 95
-190 201 -251 225 -18 8 -33 20 -33 28 0 12 74 14 519 12 286 -1 531 -4 545
-6 34 -7 33 -20 -5 -41 -30 -17 -127 -84 -142 -99 -42 -42 -129 -180 -143
-229 -9 -33 -20 -61 -24 -64 -7 -5 -14 -294 -11 -478 l1 -74 113 4 c97 3 119
7 167 30 58 28 120 77 120 95 0 5 15 27 33 49 38 45 77 121 77 151 0 11 7 26
15 33 37 31 39 5 42 -483 1 -259 5 -491 8 -514 3 -23 1 -44 -4 -47 -15 -9 -41
5 -41 22 0 8 -11 30 -25 48 -14 18 -25 37 -25 43 0 17 -83 82 -145 113 -33 17
-62 33 -65 37 -18 22 -65 33 -161 38 l-109 5 0 -786 c0 -450 4 -786 9 -786 5
0 12 -19 16 -43 3 -23 17 -62 30 -87 13 -25 30 -56 37 -70 7 -14 17 -30 23
-37 5 -6 21 -27 34 -45 14 -19 51 -53 83 -77 32 -23 58 -46 58 -50 0 -7 33
-24 103 -55 89 -39 58 -41 -556 -43 -373 -1 -589 2 -593 9 -8 13 21 33 82 56
28 11 63 31 78 45 15 14 41 32 59 40 45 22 110 93 136 150 51 108 51 96 51
960 l0 807 -52 1 c-48 0 -215 0 -325 -1 -38 0 -42 -3 -53 -35 -20 -60 -90
-219 -99 -224 -5 -4 -32 -48 -61 -100 -28 -52 -63 -111 -76 -132 -13 -21 -24
-41 -24 -43 0 -2 -12 -18 -27 -34 -16 -16 -44 -48 -63 -72 -19 -24 -45 -53
-57 -64 -13 -11 -23 -25 -23 -31 0 -6 -19 -25 -42 -42 -24 -18 -68 -50 -98
-72 -30 -23 -60 -41 -67 -41 -6 0 -13 -3 -15 -7 -15 -36 -256 -113 -373 -120
-149 -9 -316 46 -420 138 -103 91 -145 132 -145 141 0 12 -90 160 -105 173
-10 9 -41 99 -79 235 -38 135 -47 378 -21 552 18 120 80 349 99 363 7 6 37 59
67 118 86 173 94 187 122 213 33 31 107 127 107 140 0 5 8 17 18 25 9 9 62 64
116 122 55 59 104 107 109 107 13 0 105 76 130 108 11 12 40 34 65 48 75 40
147 85 150 95 2 5 8 9 12 9 5 0 31 13 58 29 26 15 66 34 88 40 52 17 268 104
274 111 7 9 103 45 195 73 149 46 274 73 378 83 42 4 77 10 77 15 0 9 37 15
108 18 46 1 52 -1 52 -19z"/>
</g>
</svg>
