<?xml version="1.0" encoding="UTF-8" standalone="no"?>
<svg
   xmlns:dc="http://purl.org/dc/elements/1.1/"
   xmlns:cc="http://creativecommons.org/ns#"
   xmlns:rdf="http://www.w3.org/1999/02/22-rdf-syntax-ns#"
   xmlns:svg="http://www.w3.org/2000/svg"
   xmlns="http://www.w3.org/2000/svg"
   xmlns:sodipodi="http://sodipodi.sourceforge.net/DTD/sodipodi-0.dtd"
   xmlns:inkscape="http://www.inkscape.org/namespaces/inkscape"
   version="1.0"
   width="273.88998pt"
   height="255.57114pt"
   viewBox="0 0 273.88998 255.57114"
   preserveAspectRatio="xMidYMid meet"
   id="svg902"
   sodipodi:docname="brujahantitribu.svg"
   inkscape:version="1.0.1 (3bc2e813f5, 2020-09-07)">
  <defs
     id="defs906" />
  <sodipodi:namedview
     pagecolor="#ffffff"
     bordercolor="#666666"
     borderopacity="1"
     objecttolerance="10"
     gridtolerance="10"
     guidetolerance="10"
     inkscape:pageopacity="0"
     inkscape:pageshadow="2"
     inkscape:window-width="1600"
     inkscape:window-height="837"
     id="namedview904"
     showgrid="false"
     fit-margin-top="0"
     fit-margin-left="0"
     fit-margin-right="0"
     fit-margin-bottom="0"
     inkscape:zoom="1.6393581"
     inkscape:cx="122.89482"
     inkscape:cy="175.61393"
     inkscape:window-x="-8"
     inkscape:window-y="-8"
     inkscape:window-maximized="1"
     inkscape:current-layer="svg902" />
  <metadata
     id="metadata874">
Created by potrace 1.16, written by Peter Selinger 2001-2019
<rdf:RDF>
  <cc:Work
     rdf:about="">
    <dc:format>image/svg+xml</dc:format>
    <dc:type
       rdf:resource="http://purl.org/dc/dcmitype/StillImage" />
    <dc:title></dc:title>
  </cc:Work>
</rdf:RDF>
</metadata>
  <path
     id="path931"
     style="fill:#ffffff;stroke-width:0.114374"
     d="m 161.56761,57.14523 c -6.45258,0.455622 -12.52242,4.470492 -15.38437,10.283217 -3.37541,6.525907 -2.5286,14.94819 2.05652,20.686868 4.20991,5.48604 11.45909,8.464522 18.30801,7.387402 6.2379,-0.875722 11.82932,-5.036295 14.60745,-10.669005 2.86992,-5.581208 2.72989,-12.583973 -0.41825,-18.019838 -3.06788,-5.4946 -9.03659,-9.192355 -15.31125,-9.572905 -1.28072,-0.179182 -2.57,-0.1409 -3.85811,-0.09574 z M 234.29664,3.2031709 c -8.68783,-0.094929 -15.94655,5.9685631 -20.1822,13.1177961 -2.23961,3.386475 -4.27146,6.798717 -7.66834,9.367788 -6.55637,6.705362 -10.07107,17.403415 -5.41979,26.13053 2.33955,4.218738 5.57207,7.906998 8.931,11.335542 8.49057,7.670677 23.09898,6.202837 29.82743,-3.083555 4.02593,-5.975266 8.28268,-12.58402 8.32525,-20.025365 3.22278,-6.409697 8.16942,-12.796415 6.76698,-20.429217 C 253.70064,9.6341023 244.13907,2.5692739 234.29664,3.2031709 Z M 213.8907,20.859662 c 2.0885,-0.631409 2.34574,-0.612122 0,0 z M 61.699964,6.872075 C 50.923161,6.985898 41.790507,17.286147 42.970415,27.997851 43.340497,38.027603 51.723646,47.133979 61.90202,47.50601 71.219034,48.475667 80.676084,41.951888 82.548557,32.670388 85.117419,21.074632 76.518212,7.77383 64.280132,6.960455 63.426617,6.8348877 62.559407,6.88811 61.699964,6.872075 Z M 185.61976,79.158252 c -5.55388,0.125752 -10.7151,2.916547 -14.65685,6.615825 -5.34845,1.095495 -9.60353,4.774928 -12.88435,8.927408 -2.26474,1.64511 -3.34381,4.665787 -4.91899,6.565465 -7.5418,2.00415 -16.6121,2.92549 -21.12339,10.19052 -3.96887,5.07484 -3.36842,11.66277 -3.03399,17.68307 -0.23388,6.79369 0.29147,14.54606 5.40124,19.7966 -3.68143,6.70489 -7.39496,13.5207 -9.42662,20.92426 -3.56652,6.10955 -2.89867,13.53506 -0.17816,19.82533 2.32846,5.40556 1.77047,11.80437 5.70228,16.53107 6.74763,9.45037 21.11611,10.08603 30.04233,3.45463 6.42713,-4.58891 9.37227,-12.2489 14.14395,-18.28913 2.03787,-2.43087 2.96292,-5.73624 5.00342,-8.01463 5.08957,-3.8275 8.11708,-9.58306 10.11808,-15.48297 3.28269,-6.55305 8.86605,-12.70385 7.97848,-20.53997 0.72653,-3.18462 4.24532,-3.97091 6.01894,-6.44962 9.37394,-2.62026 16.14134,-12.47132 14.3677,-22.17895 -0.93468,-6.02624 -4.95432,-10.84658 -7.62726,-16.15527 -2.07723,-2.81241 -4.26818,-5.630655 -4.72661,-9.223793 -2.52337,-8.682007 -11.1793,-14.741955 -20.2002,-14.179845 z M 162.0882,156.94064 c 0.62589,0.059 -0.46998,-0.0285 0,0 z M 87.618189,66.850534 c -9.90435,0.469755 -16.76709,8.754968 -21.365602,16.688783 -4.039493,6.545348 -4.666136,14.696715 -2.15166,21.911553 1.460122,5.12169 2.193315,10.51455 3.533085,15.59866 -6.77673,3.2795 -12.186564,9.67853 -12.770875,17.37324 -1.547595,6.51879 -1.680374,13.83203 2.569201,19.41504 3.926127,6.13032 8.496736,12.74793 15.924841,14.78369 3.16437,5.18339 8.993183,8.48011 15.010703,8.91403 2.692553,6.97618 4.407248,14.44266 8.080613,20.97732 3.515197,5.92009 10.308695,8.77258 16.940485,9.28622 6.6795,2.377 14.33586,4.23232 21.00664,0.72971 8.89613,-4.1509 13.21306,-15.5291 9.357,-24.55525 -2.05033,-6.69074 -5.54831,-13.34244 -4.49294,-20.54685 0.0695,-4.72398 -0.0641,-9.57117 -1.67701,-14.06469 5.31337,-3.45915 7.65395,-9.61856 9.10938,-15.48 3.23689,-8.21327 0.3761,-17.49366 -4.58803,-24.34094 -4.43147,-5.23401 -11.53052,-7.65304 -18.27036,-6.83295 -1.5822,-1.74821 -6.60223,-0.73163 -5.68639,-3.55991 1.25791,-7.72123 -2.41887,-15.953223 -9.03391,-20.141433 -2.71438,-8.535315 -10.23371,-16.040655 -19.574278,-16.164848 -0.638918,-0.066 -1.280858,0.0088 -1.920893,0.0086 z m 8.284973,40.762726 c 0.0092,-0.0152 0.06938,-0.0442 0,0 z m -3.401737,3.26145 c 0.154275,-0.23892 0.714502,-0.68138 0,0 z m 5.735685,47.17661 c -0.0023,-0.0432 0.02572,-0.20928 0,0 z m 136.1185,-48.32929 c -3.01868,1.32381 -5.95341,3.10501 -9.42386,2.54801 -8.74726,-0.56331 -17.47167,5.14117 -19.7652,13.72433 -1.03784,3.55031 -0.50213,7.58797 -3.37035,10.37577 -1.10001,2.82044 -2.57784,5.25966 -4.36465,7.69995 -3.25406,6.88691 -6.66641,14.28651 -6.25839,22.08213 -4.8363,8.45034 -12.84992,14.35647 -20.11375,20.48546 -10.94986,6.13348 -23.43122,8.32035 -35.13695,12.46855 -9.14347,3.4466 -14.32007,14.0626 -11.83146,23.43686 1.3233,4.45453 0.285,9.47068 3.09365,13.49357 4.04042,7.8455 13.79381,11.27091 22.10975,8.98092 5.26383,-0.92418 10.48658,-2.78177 15.75859,-3.21856 10.02618,3.17199 21.62695,-0.64296 27.71336,-9.25089 1.56224,-1.30617 2.03046,-4.57387 4.05156,-4.69257 8.09185,3.61444 15.87338,9.10456 24.98152,9.50855 10.04502,0.38114 19.42619,-8.22867 19.50801,-18.34862 0.32511,-7.92661 -4.79482,-14.55039 -7.71486,-21.56825 -0.32837,-1.76716 -3.62978,-4.48197 -0.81578,-5.23327 10.65843,-6.09094 16.82113,-20.10414 11.92966,-31.78045 -0.31662,-3.02717 2.80472,-2.93264 4.88584,-3.7815 8.00523,-2.72939 17.60838,-4.90058 21.79889,-13.13359 5.58813,-9.42743 1.39069,-22.76481 -8.48406,-27.45132 -6.61171,-2.95288 -13.5117,-5.41721 -20.54712,-7.12693 -2.73675,-0.19401 -5.35563,0.0632 -8.0044,0.78185 z M 214.8888,126.9112 c 1.9305,-0.43977 2.21907,-0.30264 0,0 z m -2.59665,0.73539 c 0.73677,-0.33924 0.66401,-0.22396 0,0 z m 2.13647,56.09778 c -0.34466,0.054 0.85198,-0.1817 0,0 z m -16.55386,36.69084 c -0.0239,0.1626 0.0128,-0.12191 0,0 z M 213.82279,65.881932 c -7.30959,0.06817 -14.00405,4.438252 -17.90216,10.439347 -7.00163,5.34231 -10.25254,14.910496 -7.53352,23.353253 1.01531,4.937738 3.46479,9.538948 7.00639,13.064918 2.36384,6.84557 7.7087,12.92095 15.03918,14.39335 4.43491,0.34805 7.99291,3.55869 12.54271,3.56257 7.41938,0.8249 15.6556,-0.75977 20.60448,-6.80549 5.17638,-5.92651 6.14976,-15.03229 2.34628,-21.93098 2.4548,-10.988283 -2.79706,-23.204261 -12.87691,-28.466628 -2.65218,-1.166385 -5.12073,-2.379278 -7.29849,-4.3203 -3.53036,-2.270108 -7.73531,-3.414638 -11.92796,-3.29004 z M 205.2358,108.5354 c 0.41099,-2.37923 0.63382,-2.83146 0,0 z m 4.25418,8.87203 c -0.48284,-0.005 0.76634,-0.0277 0,0 z M 136.02343,0.03822639 C 127.15477,0.18163464 119.31791,6.646709 116.7523,15.013183 c -1.02816,2.772117 -1.92576,5.590116 -2.86739,8.392195 -2.73942,0.459206 -5.45952,1.74521 -8.09841,0.276814 -11.845023,-3.234437 -25.518401,3.002847 -30.224936,14.486372 -1.442122,2.957001 -4.830667,4.713133 -6.064515,7.966798 -3.273952,5.786672 -2.380642,12.674393 -0.162727,18.656347 1.724055,7.818578 6.779992,15.521243 14.914545,17.607788 7.765695,2.651865 15.551685,-1.332008 21.885593,-5.589615 2.71638,-2.66643 6.66576,-1.69344 9.90747,-3.25506 3.65318,-0.927825 6.14259,-4.373513 9.89335,-4.824263 7.09526,1.6914 14.51062,1.490918 21.57559,3.45534 6.0679,1.212675 11.91458,3.95697 18.21318,3.67785 2.58518,1.798935 5.99301,3.004658 7.87035,5.427405 4.28853,12.404326 21.02523,18.509498 31.98161,10.899841 6.88551,-4.621103 10.03701,-12.710468 14.43817,-19.417133 4.60908,-7.125195 6.39684,-16.876797 1.45304,-24.307854 -4.58783,-7.599294 -14.57753,-10.882864 -22.92587,-8.221734 -3.01834,-1.458969 -3.29956,-5.304519 -5.6499,-7.535283 -6.8472,-8.808745 -19.58736,-12.497664 -29.98208,-8.254589 -2.17531,-0.232584 -4.26028,-0.608544 -4.36428,-3.208683 -2.30147,-6.937494 -4.27325,-15.1042018 -11.3496,-18.7124443 -3.33412,-2.04604731 -7.30943,-2.70881556 -11.17206,-2.49504831 z M 88.929024,51.460972 c 0.412223,-1.452483 0.620903,-1.802886 0,0 z m 101.548066,2.594861 c 0.0284,-0.01432 0.50049,-0.04525 0,0 z M 88.453659,55.23174 c -0.05265,-0.208641 0.116625,-0.852592 0,0 z m 33.261401,11.810014 c -0.033,-0.0123 -0.1743,-0.09252 0,0 z M 53.265773,29.786198 C 42.483046,29.75502 33.227115,39.948926 34.236871,50.669496 c 0.642276,7.644936 5.153913,14.223201 8.203578,21.081253 -13.262711,4.380975 -21.688585,20.679466 -15.820252,33.764471 1.015185,1.70148 0.661833,5.06228 -1.769405,5.13492 -7.643962,2.88909 -17.0419531,4.05168 -21.7082664,11.60154 -5.2186973,8.59207 -4.03485532,21.44756 4.2818063,27.70553 6.0655771,4.23373 13.6387541,5.37576 20.4012441,8.17072 5.278632,2.44055 11.354547,3.90301 17.028344,1.80073 4.40435,-1.98051 9.180052,-2.1675 13.899126,-2.54929 9.244836,-1.97945 15.869473,-11.41555 14.565711,-20.78301 -0.109343,-5.61058 1.632945,-11.25758 0.90531,-16.86873 1.470232,-7.80762 5.654947,-14.79374 6.96138,-22.620108 -0.11406,-2.667585 0.875205,-4.951455 2.649322,-6.914947 4.769625,-5.245313 7.957268,-12.385013 6.40962,-19.562528 C 88.250904,62.266923 85.110512,54.203422 83.060867,45.847436 80.793099,37.883504 72.847112,32.112525 64.578077,32.440927 61.028014,30.832032 57.201148,29.665471 53.265773,29.786198 Z M 29.500099,158.59459 c -1.040026,-0.50532 -1.268749,-0.75827 0,0 z m 22.105463,-19.45877 c -7.981626,1.08652 -17.110718,3.44795 -21.061095,11.22134 -2.179374,3.62096 -1.986083,8.04626 -4.190318,11.67879 -4.507185,12.31925 3.384372,26.5288 15.128418,31.35069 -0.324603,2.5866 -2.567522,5.34646 -3.614419,8.01862 -3.276048,6.40265 -7.153337,13.54873 -4.838592,20.94044 2.342691,10.49077 14.297508,16.88019 24.440132,13.82395 6.369256,-1.76656 12.164851,-5.06189 18.104386,-7.88106 4.80039,12.25064 19.966066,17.72283 32.032486,13.661 5.13105,0.0728 9.97891,3.31518 15.28957,3.16441 10.7198,0.76609 20.80815,-8.64927 20.47763,-19.44171 0.33798,-5.09217 -2.41483,-9.50131 -4.56067,-13.85088 -2.40656,-7.82932 -8.74408,-13.92188 -16.39928,-16.62802 -3.49732,-1.52786 -7.3671,-2.17207 -11.11304,-2.23386 -5.20678,-3.29736 -10.13057,-7.03205 -15.37348,-10.25971 -1.881788,-1.76084 -4.59633,-2.81976 -6.424606,-4.31673 -1.177642,-5.6561 -3.49878,-11.4167 -8.430615,-14.82484 -3.12006,-7.01888 -5.355817,-15.59575 -12.956542,-19.10098 -4.669665,-2.04538 -8.980287,-5.56813 -14.413659,-5.35079 -0.698768,0.01 -1.397537,0.0196 -2.096306,0.0293 z m 9.238384,37.77917 c -0.219349,0.1035 0.360358,-0.18298 0,0 z m -0.0143,17.20704 c 0.06616,-0.82525 0.08667,-0.64323 0,0 z m -11.250652,1.18305 c -0.05145,0.006 -0.324953,-0.0344 0,0 z" />
  <g
     transform="matrix(0.1,0,0,-0.1,-12.900742,283.86275)"
     fill="#000000"
     stroke="none"
     id="g900">
    <path
       d="m 2457,2657 c -26,-34 -61,-86 -77,-114 -17,-29 -43,-59 -58,-67 -18,-9 -45,-46 -79,-108 -47,-85 -57,-96 -101,-117 l -48,-23 -82,54 c -62,40 -81,58 -82,76 -1,55 -81,92 -122,55 -17,-15 -23,-15 -90,0 -40,9 -87,19 -105,22 -31,6 -33,10 -75,136 l -43,130 -43,-130 -43,-129 -72,-12 c -40,-7 -91,-18 -114,-25 -24,-7 -43,-10 -43,-5 0,4 -13,13 -29,20 -50,20 -101,-9 -101,-58 0,-21 -10,-33 -45,-55 -25,-15 -48,-27 -51,-27 -2,0 -15,25 -29,55 -13,30 -28,55 -34,55 -5,0 -17,20 -27,45 -9,25 -22,45 -29,45 -7,0 -16,12 -19,28 -4,15 -12,38 -18,52 -5,14 -20,50 -32,80 -16,41 -26,55 -41,55 -17,0 -20,-6 -18,-45 1,-25 12,-75 24,-112 16,-50 19,-71 11,-81 -8,-9 -7,-29 4,-71 8,-32 13,-60 11,-63 -3,-2 -33,10 -66,27 l -61,30 68,-136 68,-136 -50,-78 c -46,-70 -54,-79 -83,-79 -22,-1 -38,-9 -52,-27 -27,-34 -27,-64 0,-98 17,-22 19,-31 10,-59 -6,-17 -17,-63 -23,-101 l -13,-70 -138,-45 c -75,-25 -137,-48 -137,-51 0,-3 62,-26 137,-50 75,-25 139,-50 140,-56 2,-6 -19,-21 -46,-33 -36,-15 -52,-28 -57,-46 -3,-14 -10,-25 -15,-25 -5,0 -9,-11 -9,-24 0,-20 -11,-27 -75,-52 -41,-16 -75,-31 -75,-34 0,-4 6,-14 13,-24 13,-18 18,-17 123,17 109,35 184,53 184,43 0,-3 -19,-15 -42,-27 l -41,-21 26,-16 c 15,-9 27,-22 27,-29 0,-21 38,-53 63,-53 18,0 36,-19 76,-77 l 54,-78 -72,-136 c -39,-75 -71,-139 -71,-143 0,-3 64,26 143,65 l 142,71 73,-48 c 60,-39 72,-52 72,-74 0,-15 8,-34 18,-43 23,-21 80,-22 101,-3 14,13 28,12 106,-7 66,-16 91,-27 93,-39 3,-15 -2,-17 -26,-12 -38,8 -54,-18 -50,-79 3,-38 6,-42 31,-45 22,-3 30,1 34,17 3,12 10,21 15,21 6,0 7,-11 4,-25 -5,-19 -3,-25 11,-25 9,0 24,7 34,16 16,14 19,10 44,-66 15,-45 29,-79 31,-77 3,2 26,69 52,147 l 48,143 99,22 c 90,20 101,21 125,7 38,-22 84,-2 102,44 9,23 36,49 83,82 l 70,49 148,-74 c 81,-40 147,-71 147,-68 0,3 -32,69 -71,148 l -71,143 46,72 c 37,56 52,72 71,72 28,0 65,43 65,74 0,12 -7,31 -15,43 -14,20 -14,29 -1,80 8,32 17,75 20,95 l 7,37 144,48 c 80,26 145,50 145,53 0,3 -65,27 -144,53 -138,46 -144,49 -148,77 -4,25 -1,30 23,35 30,7 48,40 31,57 -6,6 -25,13 -43,17 -42,8 -62,59 -35,86 23,23 21,80 -4,105 -11,11 -32,20 -48,20 -15,0 -32,8 -38,18 -5,9 -20,33 -32,52 l -21,36 60,94 c 33,52 62,112 65,132 4,20 22,61 41,90 25,37 33,60 30,81 -3,21 11,54 54,130 45,79 55,105 48,119 -17,31 -43,19 -92,-45 z m 75,37 c 4,-3 -12,-38 -35,-77 -58,-101 -101,-193 -82,-177 26,22 17,-5 -30,-84 -24,-42 -42,-82 -39,-89 3,-8 -26,-65 -65,-128 l -69,-114 19,-33 c 26,-45 14,-60 -21,-27 -36,35 -41,19 -20,-70 11,-44 19,-63 22,-50 4,16 9,11 25,-25 11,-25 23,-53 26,-62 5,-13 16,-17 45,-16 53,2 77,-14 37,-24 -19,-5 -9,-6 27,-3 92,8 122,-15 46,-35 -24,-7 -61,-18 -83,-25 l -40,-13 3,-59 c 1,-32 -4,-89 -12,-128 -8,-38 -13,-71 -11,-73 2,-3 7,7 11,22 3,14 10,26 15,26 5,0 0,-24 -12,-52 -11,-29 -29,-76 -39,-104 -10,-28 -36,-88 -58,-135 -22,-46 -39,-85 -38,-86 2,-2 47,67 76,117 19,31 18,2 -1,-35 -51,-104 -137,-204 -231,-269 -18,-13 -32,-28 -31,-33 1,-6 -10,-14 -25,-18 -15,-4 -34,-12 -42,-19 -24,-20 -170,-72 -268,-97 -79,-19 -93,-25 -102,-48 -23,-55 -43,-86 -48,-72 -2,7 -13,-13 -24,-45 -11,-33 -29,-68 -40,-78 l -21,-20 6,45 c 7,43 6,43 -9,19 -15,-24 -15,-23 -9,27 4,40 2,55 -11,68 -9,9 -22,35 -29,57 -13,45 -13,45 -92,76 -38,14 -50,16 -46,6 3,-7 14,-16 25,-20 11,-3 17,-8 14,-11 -8,-8 -133,63 -181,103 -23,19 -47,34 -54,34 -6,0 -40,27 -75,60 -63,61 -111,134 -100,152 4,6 -1,8 -13,4 -17,-6 -25,6 -58,85 l -38,91 -33,-7 c -45,-8 -52,11 -9,25 41,13 61,36 24,27 -62,-15 -222,-60 -294,-83 -44,-14 -86,-27 -93,-30 -7,-2 -11,0 -8,5 3,4 43,23 88,41 88,35 120,54 79,48 -42,-5 -34,19 8,26 22,3 53,18 68,32 l 28,26 -25,-7 c -14,-4 -38,-9 -55,-11 l -30,-5 28,16 c 16,9 63,26 105,38 65,19 78,26 80,45 2,13 -1,29 -7,36 -8,10 -8,34 -1,82 12,86 12,86 0,79 -13,-8 -13,-3 1,32 6,15 15,50 20,78 5,27 23,79 39,114 22,47 27,67 20,77 -13,14 22,89 64,139 l 26,30 -10,-28 c -14,-40 -13,-52 5,-37 20,17 19,47 -4,112 -34,96 -83,278 -78,296 2,11 8,1 17,-26 7,-23 15,-40 17,-38 4,4 -13,71 -47,181 -23,77 -32,125 -21,125 4,0 14,-19 20,-42 7,-24 21,-61 31,-83 10,-22 23,-59 29,-82 7,-24 14,-43 17,-43 4,0 4,7 0,15 -3,8 -2,15 3,15 5,0 19,-28 32,-62 16,-42 24,-56 29,-44 4,12 11,1 25,-36 28,-79 65,-161 71,-156 2,3 -3,22 -11,43 -21,49 -12,57 12,11 l 18,-36 81,53 c 94,62 119,74 111,53 -5,-13 -1,-13 20,-5 15,5 31,16 37,24 26,32 166,59 182,34 3,-6 18,-9 32,-6 39,7 227,-31 295,-59 33,-14 62,-23 65,-20 3,3 1,6 -4,6 -6,0 -19,7 -30,15 -18,15 -17,16 15,9 19,-3 87,-41 150,-83 89,-58 111,-77 94,-79 -12,-2 -32,2 -45,9 -23,12 -23,12 -4,-10 11,-11 32,-28 48,-36 l 29,-14 39,61 c 22,34 75,122 117,196 48,82 86,138 99,142 12,5 40,39 64,76 23,37 51,77 62,88 11,12 27,33 36,49 16,27 24,32 34,21 z M 2357,1518 c -3,-35 -13,-79 -22,-98 l -16,-35 5,40 c 3,22 6,66 6,98 0,46 3,57 16,57 15,0 16,-9 11,-62 z m -56,-195 c -9,-16 -10,-16 -11,4 0,12 3,30 7,40 7,16 8,16 11,-4 2,-12 -1,-30 -7,-40 z M 585,1170 c -3,-5 -11,-10 -16,-10 -6,0 -7,5 -4,10 3,6 11,10 16,10 6,0 7,-4 4,-10 z M 900,913 c 39,-53 23,-56 -30,-5 -26,24 -42,49 -46,72 l -6,35 26,-30 c 14,-16 39,-49 56,-72 z m 440,-428 c 0,-33 -4,-45 -15,-45 -11,0 -15,11 -15,38 0,21 3,42 7,45 16,16 23,4 23,-38 z"
       id="path876" />
    <path
       d="m 1390,2179 c -19,-6 -48,-9 -65,-6 -36,5 -76,-13 -197,-93 -48,-33 -90,-54 -93,-49 -4,5 -10,7 -15,4 -4,-3 8,-45 28,-95 35,-89 55,-119 29,-44 -24,67 -28,104 -13,104 14,0 23,-20 51,-114 15,-52 15,-61 3,-70 -17,-12 -16,-23 6,-85 19,-50 20,-65 6,-56 -12,8 -13,8 4,-40 l 14,-40 10,40 c 6,22 14,52 18,68 11,45 24,30 18,-20 -3,-27 -7,-54 -10,-60 -6,-21 14,-15 30,9 12,17 19,19 27,11 9,-9 9,-16 -1,-28 -21,-25 5,-17 30,10 44,47 56,25 14,-25 -15,-17 -25,-33 -23,-35 2,-2 29,3 59,11 71,18 111,18 104,0 -3,-7 -20,-18 -37,-24 l -32,-11 40,4 c 75,8 134,27 128,41 -6,17 -11,15 160,54 101,24 137,36 137,47 0,10 6,13 16,9 17,-6 14,8 -12,73 -18,44 -11,51 12,12 10,-17 21,-31 25,-31 4,0 10,40 14,90 8,95 25,115 24,27 0,-29 4,-65 8,-81 l 9,-28 27,51 c 16,28 34,54 41,58 7,5 18,18 25,31 11,20 6,29 -61,101 -54,59 -93,89 -151,121 -43,23 -83,39 -90,37 -7,-2 6,-12 28,-21 47,-20 57,-33 43,-56 -10,-16 -12,-16 -28,0 -9,9 -38,20 -65,23 -57,8 -75,21 -75,53 0,22 -4,24 -57,24 -32,0 -74,2 -93,5 -19,2 -51,-1 -70,-6 z"
       id="path878" />
    <path
       d="m 1626,2161 c 5,-5 20,-12 34,-15 24,-7 24,-6 6,8 -21,17 -57,23 -40,7 z"
       id="path880" />
    <path
       d="m 894,1873 c -10,-16 -17,-39 -16,-52 1,-13 -9,-43 -23,-67 -28,-47 -30,-54 -15,-54 6,0 10,9 10,20 0,11 5,20 10,20 15,0 12,-44 -5,-88 -23,-56 -26,-222 -5,-222 6,0 9,5 8,11 -2,6 11,16 27,22 17,5 37,15 45,22 8,7 25,16 37,19 19,6 21,11 13,27 -13,23 -5,40 15,33 26,-11 27,22 1,83 -14,33 -25,69 -25,79 1,35 -32,152 -45,164 -10,8 -18,4 -32,-17 z"
       id="path882" />
    <path
       d="m 2087,1790 c -15,-33 -15,-35 5,-38 30,-5 38,9 23,43 l -13,30 z"
       id="path884" />
    <path
       d="m 2075,1596 c -28,-8 -39,-16 -37,-27 1,-9 -9,-21 -25,-28 -15,-7 -35,-17 -43,-21 -8,-4 -16,-22 -18,-41 -2,-20 -13,-42 -27,-54 -22,-19 -101,-135 -91,-135 2,0 25,29 51,65 46,62 65,78 65,55 0,-16 -27,-67 -68,-129 -20,-29 -36,-64 -37,-77 0,-13 -10,-34 -22,-45 -17,-17 -24,-19 -41,-10 -23,12 -29,7 -42,-39 -7,-23 -5,-28 6,-23 22,8 17,-4 -24,-60 -93,-128 -136,-218 -97,-203 9,3 19,6 21,6 3,0 3,4 -1,10 -3,5 20,21 52,35 139,63 226,111 244,133 23,30 24,43 4,36 -28,-11 -15,7 59,85 41,43 82,95 90,116 20,47 20,59 0,23 -8,-16 -19,-28 -25,-28 -12,0 -5,25 28,100 49,109 54,131 47,202 -4,41 -11,67 -18,67 -6,-1 -29,-7 -51,-13 z"
       id="path886" />
    <path
       d="m 1548,1583 c 7,-3 16,-2 19,1 4,3 -2,6 -13,5 -11,0 -14,-3 -6,-6 z"
       id="path888" />
    <path
       d="m 1425,1520 c -22,-11 -29,-17 -15,-14 38,10 70,23 70,29 0,9 -14,5 -55,-15 z"
       id="path890" />
    <path
       d="m 1355,1490 c -3,-6 1,-7 9,-4 18,7 21,14 7,14 -6,0 -13,-4 -16,-10 z"
       id="path892" />
    <path
       d="m 1433,1489 c -21,-6 -30,-14 -27,-23 4,-10 -19,-20 -86,-36 -75,-19 -90,-25 -85,-39 31,-84 59,-150 62,-147 3,2 -1,30 -7,61 -13,65 -8,80 13,38 24,-46 40,-142 33,-202 -5,-48 -1,-73 29,-166 38,-115 61,-163 75,-149 4,5 22,45 40,89 17,44 44,103 59,130 15,28 26,56 24,62 -6,16 94,203 159,300 26,40 48,75 48,78 0,11 -57,4 -167,-21 -111,-25 -166,-27 -110,-5 35,14 35,23 0,15 -22,-6 -25,-4 -20,10 7,18 5,18 -40,5 z"
       id="path894" />
    <path
       d="m 970,1304 c -41,-14 -82,-23 -92,-21 -23,6 -23,-8 0,-31 9,-10 37,-59 62,-110 27,-58 50,-92 60,-92 8,0 45,-27 82,-60 36,-33 71,-60 78,-60 6,0 29,-14 51,-32 21,-17 42,-29 45,-25 3,3 -10,48 -29,99 -20,51 -45,125 -57,163 -22,77 -60,165 -70,165 -3,0 -20,-29 -38,-65 -17,-36 -35,-65 -40,-65 -16,0 -5,76 16,118 12,23 19,42 15,41 -5,0 -42,-11 -83,-25 z"
       id="path896" />
    <path
       d="m 1290,375 c -17,-21 -8,-50 17,-53 30,-4 49,31 27,52 -19,20 -28,20 -44,1 z m 30,-25 c 0,-5 -4,-10 -10,-10 -5,0 -10,5 -10,10 0,6 5,10 10,10 6,0 10,-4 10,-10 z"
       id="path898" />
  </g>
</svg>
