<?xml version="1.0" standalone="no"?>
<!DOCTYPE svg PUBLIC "-//W3C//DTD SVG 20010904//EN"
 "http://www.w3.org/TR/2001/REC-SVG-20010904/DTD/svg10.dtd">
<svg version="1.0" xmlns="http://www.w3.org/2000/svg"
 width="287.000000pt" height="289.000000pt" viewBox="0 0 287.000000 289.000000"
 preserveAspectRatio="xMidYMid meet">
<metadata>
Created by potrace 1.16, written by Peter Selinger 2001-2019
</metadata>
<g transform="translate(0.000000,289.000000) scale(0.100000,-0.100000)"
fill="#000000" stroke="none">
<path d="M2618 2604 c-24 -30 -63 -88 -88 -127 -25 -40 -58 -78 -72 -85 -17
-8 -48 -50 -89 -120 -34 -59 -91 -155 -126 -214 -63 -106 -64 -107 -91 -96
-31 13 -84 59 -77 66 2 3 11 -1 19 -7 8 -7 25 -11 38 -9 18 3 -2 20 -102 86
-69 45 -132 82 -140 82 -9 0 -21 5 -28 12 -6 6 -15 9 -18 5 -4 -3 5 -12 20
-18 14 -7 26 -16 26 -21 0 -11 -32 -2 -81 23 -20 10 -74 25 -120 34 -46 9
-103 20 -126 24 -23 5 -54 6 -68 4 -14 -3 -32 0 -40 7 -25 21 -214 -17 -200
-40 5 -8 -39 -30 -61 -30 -8 0 -12 5 -9 10 13 20 -10 9 -107 -56 -55 -36 -101
-64 -102 -62 -1 2 -10 20 -19 42 -24 51 -34 39 -13 -15 9 -23 14 -44 11 -47
-8 -8 -10 -4 -59 118 -26 63 -43 99 -40 80 9 -51 -2 -34 -41 61 -28 68 -34 78
-35 54 -1 -24 -7 -15 -25 40 -13 39 -37 106 -54 150 -24 64 -30 74 -30 49 -1
-18 9 -63 20 -100 38 -121 68 -238 64 -242 -3 -3 -6 1 -9 9 -15 51 -39 109
-43 105 -5 -5 60 -247 99 -367 l22 -66 -23 -37 c-13 -20 -25 -35 -27 -34 -2 2
3 25 11 51 8 26 13 47 11 47 -1 0 -19 -24 -39 -53 -45 -66 -65 -116 -48 -126
8 -5 1 -31 -24 -85 -20 -43 -40 -102 -45 -131 -5 -30 -14 -63 -19 -74 -14 -25
-14 -54 0 -46 7 5 8 -5 3 -32 -5 -21 -8 -77 -7 -125 l1 -88 -97 -30 c-140 -44
-157 -61 -33 -33 22 5 23 4 11 -14 -12 -20 -88 -53 -121 -53 -10 0 -18 -4 -18
-10 0 -5 14 -10 32 -10 45 0 28 -11 -86 -56 -54 -21 -94 -40 -88 -42 5 -1 59
13 118 31 60 19 138 42 174 51 36 10 82 24 103 32 45 17 57 18 57 3 0 -6 -18
-18 -40 -26 -51 -20 -52 -37 -1 -28 l38 6 38 -88 c43 -102 51 -114 71 -106 8
3 14 -1 14 -11 0 -43 136 -208 185 -222 11 -3 41 -24 67 -45 26 -22 82 -58
125 -81 l78 -41 -40 36 -40 37 65 -30 c36 -16 72 -30 81 -30 22 0 33 -16 47
-66 7 -22 21 -51 33 -65 13 -15 18 -31 14 -44 -3 -11 -8 -33 -11 -50 l-6 -30
22 25 22 25 -7 -30 c-3 -16 -8 -38 -11 -47 -3 -10 -1 -18 5 -18 6 0 11 6 11
14 0 8 6 16 14 19 8 3 25 38 37 77 16 50 25 66 30 53 5 -16 7 -15 14 7 4 14
11 27 15 30 4 3 13 18 21 34 14 29 72 54 166 70 46 8 222 75 243 92 8 7 27 15
42 19 14 4 28 15 31 26 3 10 20 27 39 36 60 32 194 181 238 265 22 43 37 78
33 78 -5 0 -18 -20 -31 -44 -13 -24 -37 -59 -54 -77 -22 -25 -26 -27 -16 -9
31 53 38 67 67 135 54 129 101 257 100 274 0 9 -6 2 -12 -16 -31 -82 -31 -35
-2 83 10 37 11 64 4 95 -14 59 -5 86 28 92 40 7 147 38 153 43 14 14 -34 23
-100 20 -41 -3 -64 -3 -50 0 14 3 32 7 40 11 26 9 -21 22 -62 16 l-36 -5 -23
62 c-12 34 -28 64 -35 67 -14 5 -48 83 -40 91 3 2 1 12 -4 21 -5 10 -5 23 0
31 7 11 14 9 35 -14 36 -39 53 -21 25 27 -25 41 -23 47 56 169 64 99 88 149
69 142 -15 -6 51 121 82 157 7 8 13 24 13 35 0 15 -5 12 -21 -13 -12 -18 -23
-33 -25 -33 -6 0 81 176 119 240 22 36 41 68 43 72 3 4 0 9 -5 13 -6 3 -29
-20 -53 -51z m-1221 -390 c-3 -3 -12 -4 -19 -1 -8 3 -5 6 6 6 11 1 17 -2 13
-5z m234 -136 c3 -5 10 -8 15 -7 26 5 53 -3 58 -17 5 -13 0 -15 -36 -9 -43 7
-43 7 -25 -13 12 -13 37 -23 70 -27 30 -4 61 -16 73 -27 20 -17 22 -18 28 -2
9 22 -10 43 -56 61 -37 15 -51 33 -25 33 7 0 49 -17 93 -39 63 -30 96 -55 164
-125 47 -48 88 -93 93 -101 9 -16 -24 -89 -38 -83 -5 1 -25 -28 -46 -65 l-37
-69 -6 39 c-4 21 -11 63 -15 93 l-8 55 -2 -50 c-2 -27 -6 -72 -10 -100 l-7
-50 -18 33 c-9 19 -20 32 -22 29 -3 -3 2 -19 10 -36 9 -16 16 -42 16 -57 0
-27 -1 -27 -15 -8 -14 19 -14 19 -15 -1 0 -19 -19 -25 -172 -60 -95 -22 -165
-41 -154 -43 10 -2 38 1 63 8 25 6 48 9 50 6 6 -6 -109 -42 -163 -52 -22 -3
-43 -10 -49 -14 -5 -3 -26 -7 -45 -8 -19 -2 -44 -5 -55 -9 -17 -5 -18 -4 -7
10 7 9 27 19 43 22 28 6 46 21 36 31 -2 2 -43 -5 -91 -16 -93 -21 -118 -25
-100 -12 14 10 64 77 64 86 0 4 -20 -9 -44 -28 -52 -44 -60 -45 -38 -7 22 39
8 52 -19 18 -11 -15 -25 -27 -30 -27 -9 0 -6 50 7 120 4 19 2 22 -6 10 -5 -8
-15 -41 -21 -73 -13 -66 -25 -80 -35 -40 -4 15 -15 45 -25 65 -25 49 -23 59 3
28 l21 -25 -6 25 c-9 40 -64 190 -102 280 -27 64 -32 87 -23 97 8 10 13 11 19
2 5 -9 12 -8 28 3 11 8 19 17 16 19 -2 3 4 5 14 6 11 1 41 17 68 37 90 65 158
95 200 89 21 -3 54 -1 73 5 41 11 232 3 241 -10z m494 -247 c3 -5 1 -12 -5
-16 -5 -3 -10 1 -10 9 0 18 6 21 15 7z m-1215 -81 c6 -19 15 -62 21 -95 6 -33
24 -93 40 -133 19 -50 26 -80 20 -94 -5 -14 -10 -17 -15 -10 -9 15 -36 15 -36
0 0 -6 7 -19 16 -29 14 -16 13 -18 -16 -24 -18 -4 -41 -16 -51 -26 -10 -10
-30 -19 -43 -19 -14 0 -28 -4 -31 -10 -8 -13 4 -13 43 1 17 6 37 9 44 6 7 -2
-13 -12 -46 -22 -49 -14 -60 -15 -67 -4 -14 23 -11 197 5 227 16 33 28 92 18
92 -4 0 -17 -21 -30 -48 l-23 -47 7 40 c4 22 20 66 35 97 31 62 34 73 19 63
-18 -11 -11 10 21 60 29 46 32 48 45 30 8 -10 19 -35 24 -55z m1410 -50 c0 -5
-4 -10 -10 -10 -5 0 -10 5 -10 10 0 6 5 10 10 10 6 0 10 -4 10 -10z m-105 -40
c8 -16 15 -33 15 -39 0 -11 -58 -26 -67 -17 -6 5 26 86 33 86 2 0 10 -13 19
-30z m10 -80 c-11 -5 -29 -8 -40 -8 -16 0 -15 2 5 8 34 11 60 11 35 0z m-488
-126 c-3 -3 -12 -4 -19 -1 -8 3 -5 6 6 6 11 1 17 -2 13 -5z m511 -91 c11 -83
10 -87 -62 -258 -31 -73 -33 -103 -4 -52 25 42 42 50 28 12 -23 -60 -47 -95
-116 -166 -41 -42 -74 -82 -74 -89 0 -10 3 -10 15 0 22 18 18 -2 -8 -41 -23
-34 -113 -86 -270 -154 -47 -20 -63 -31 -52 -35 13 -4 6 -10 -25 -22 l-41 -17
6 32 c9 40 37 90 109 190 60 84 68 101 34 71 -12 -10 -19 -14 -16 -9 3 6 11
29 17 53 9 30 19 46 37 52 13 5 24 16 24 23 0 8 9 22 20 32 26 23 26 8 0 -25
-21 -27 -26 -50 -11 -50 17 0 52 54 49 76 -2 12 11 41 28 65 41 58 86 148 81
162 -2 7 -10 1 -18 -13 -17 -31 -158 -220 -164 -220 -12 0 152 254 166 257 12
4 19 20 24 53 6 45 9 49 38 56 57 12 79 49 35 57 -13 2 5 7 40 12 34 4 65 12
68 16 3 5 11 9 18 9 9 0 17 -26 24 -77z m-1501 -20 c-3 -10 -5 -2 -5 17 0 19
2 27 5 18 2 -10 2 -26 0 -35z m718 -3 c-44 -14 -84 -28 -90 -31 -21 -13 -87
-21 -80 -10 3 6 15 11 26 11 10 0 27 4 37 10 20 11 100 45 122 52 8 2 26 2 40
-1 20 -4 9 -10 -55 -31z m63 -6 c-36 -19 -35 -28 2 -21 16 4 32 2 35 -3 3 -6
-1 -10 -9 -10 -9 0 -16 -4 -16 -10 0 -5 -7 -10 -17 -10 -9 0 -13 -3 -10 -6 4
-4 33 1 65 10 33 9 105 25 161 35 80 15 101 16 101 5 0 -7 -24 -48 -53 -91
-70 -102 -160 -270 -152 -283 3 -5 1 -18 -5 -27 -9 -15 -10 -14 -5 7 l6 25
-15 -25 c-8 -14 -10 -27 -5 -30 4 -3 -7 -32 -26 -63 -19 -31 -53 -104 -75
-162 -23 -58 -45 -107 -49 -110 -12 -7 -74 136 -95 217 -10 37 -22 65 -27 62
-5 -3 -9 -3 -9 0 0 2 -3 12 -7 22 -5 13 -3 15 7 9 10 -6 12 -4 7 10 -4 10 -2
32 4 50 16 42 -2 160 -32 213 -16 29 -19 32 -15 12 23 -114 39 -186 43 -195 4
-7 3 -7 -4 0 -20 21 -105 257 -96 266 5 5 51 19 101 31 51 12 92 26 92 30 0 4
-3 7 -7 7 -42 -7 -24 8 32 26 81 27 112 31 73 9z m432 -98 l-22 -21 18 35 c10
21 19 30 22 21 2 -7 -6 -23 -18 -35z m-1084 -121 c-11 -8 -25 -15 -30 -15 -6
0 -2 7 8 15 11 8 25 15 30 15 6 0 2 -7 -8 -15z m164 0 c0 -3 -10 -25 -22 -48
-12 -23 -22 -61 -23 -85 -1 -23 -1 -41 0 -40 2 2 20 35 40 73 21 39 41 74 45
79 14 15 63 -100 100 -234 6 -25 30 -91 52 -148 23 -56 38 -105 35 -108 -8 -8
-59 20 -81 45 -11 12 -30 21 -43 21 -13 0 -26 7 -29 15 -11 27 -137 127 -144
114 -9 -14 -44 45 -86 141 -25 60 -56 110 -41 68 9 -26 -2 -22 -12 5 -23 62
-23 64 6 60 16 -2 57 8 93 21 62 23 110 32 110 21z m260 -195 c0 -13 -1 -13
-10 0 -5 8 -10 22 -10 30 0 13 1 13 10 0 5 -8 10 -22 10 -30z"/>
</g>
</svg>
