<?xml version="1.0" standalone="no"?>
<!DOCTYPE svg PUBLIC "-//W3C//DTD SVG 20010904//EN"
 "http://www.w3.org/TR/2001/REC-SVG-20010904/DTD/svg10.dtd">
<svg version="1.0" xmlns="http://www.w3.org/2000/svg"
 width="300.000000pt" height="296.000000pt" viewBox="0 0 300.000000 296.000000"
 preserveAspectRatio="xMidYMid meet">
<metadata>
Created by potrace 1.16, written by Peter Selinger 2001-2019
</metadata>
<g transform="translate(0.000000,296.000000) scale(0.100000,-0.100000)"
fill="#000000" stroke="none">
<path d="M2457 2657 c-26 -34 -61 -86 -77 -114 -17 -29 -43 -59 -58 -67 -18
-9 -45 -46 -79 -108 -47 -85 -57 -96 -101 -117 l-48 -23 -82 54 c-62 40 -81
58 -82 76 -1 55 -81 92 -122 55 -17 -15 -23 -15 -90 0 -40 9 -87 19 -105 22
-31 6 -33 10 -75 136 l-43 130 -43 -130 -43 -129 -72 -12 c-40 -7 -91 -18
-114 -25 -24 -7 -43 -10 -43 -5 0 4 -13 13 -29 20 -50 20 -101 -9 -101 -58 0
-21 -10 -33 -45 -55 -25 -15 -48 -27 -51 -27 -2 0 -15 25 -29 55 -13 30 -28
55 -34 55 -5 0 -17 20 -27 45 -9 25 -22 45 -29 45 -7 0 -16 12 -19 28 -4 15
-12 38 -18 52 -5 14 -20 50 -32 80 -16 41 -26 55 -41 55 -17 0 -20 -6 -18 -45
1 -25 12 -75 24 -112 16 -50 19 -71 11 -81 -8 -9 -7 -29 4 -71 8 -32 13 -60
11 -63 -3 -2 -33 10 -66 27 l-61 30 68 -136 68 -136 -50 -78 c-46 -70 -54 -79
-83 -79 -22 -1 -38 -9 -52 -27 -27 -34 -27 -64 0 -98 17 -22 19 -31 10 -59 -6
-17 -17 -63 -23 -101 l-13 -70 -138 -45 c-75 -25 -137 -48 -137 -51 0 -3 62
-26 137 -50 75 -25 139 -50 140 -56 2 -6 -19 -21 -46 -33 -36 -15 -52 -28 -57
-46 -3 -14 -10 -25 -15 -25 -5 0 -9 -11 -9 -24 0 -20 -11 -27 -75 -52 -41 -16
-75 -31 -75 -34 0 -4 6 -14 13 -24 13 -18 18 -17 123 17 109 35 184 53 184 43
0 -3 -19 -15 -42 -27 l-41 -21 26 -16 c15 -9 27 -22 27 -29 0 -21 38 -53 63
-53 18 0 36 -19 76 -77 l54 -78 -72 -136 c-39 -75 -71 -139 -71 -143 0 -3 64
26 143 65 l142 71 73 -48 c60 -39 72 -52 72 -74 0 -15 8 -34 18 -43 23 -21 80
-22 101 -3 14 13 28 12 106 -7 66 -16 91 -27 93 -39 3 -15 -2 -17 -26 -12 -38
8 -54 -18 -50 -79 3 -38 6 -42 31 -45 22 -3 30 1 34 17 3 12 10 21 15 21 6 0
7 -11 4 -25 -5 -19 -3 -25 11 -25 9 0 24 7 34 16 16 14 19 10 44 -66 15 -45
29 -79 31 -77 3 2 26 69 52 147 l48 143 99 22 c90 20 101 21 125 7 38 -22 84
-2 102 44 9 23 36 49 83 82 l70 49 148 -74 c81 -40 147 -71 147 -68 0 3 -32
69 -71 148 l-71 143 46 72 c37 56 52 72 71 72 28 0 65 43 65 74 0 12 -7 31
-15 43 -14 20 -14 29 -1 80 8 32 17 75 20 95 l7 37 144 48 c80 26 145 50 145
53 0 3 -65 27 -144 53 -138 46 -144 49 -148 77 -4 25 -1 30 23 35 30 7 48 40
31 57 -6 6 -25 13 -43 17 -42 8 -62 59 -35 86 23 23 21 80 -4 105 -11 11 -32
20 -48 20 -15 0 -32 8 -38 18 -5 9 -20 33 -32 52 l-21 36 60 94 c33 52 62 112
65 132 4 20 22 61 41 90 25 37 33 60 30 81 -3 21 11 54 54 130 45 79 55 105
48 119 -17 31 -43 19 -92 -45z m75 37 c4 -3 -12 -38 -35 -77 -58 -101 -101
-193 -82 -177 26 22 17 -5 -30 -84 -24 -42 -42 -82 -39 -89 3 -8 -26 -65 -65
-128 l-69 -114 19 -33 c26 -45 14 -60 -21 -27 -36 35 -41 19 -20 -70 11 -44
19 -63 22 -50 4 16 9 11 25 -25 11 -25 23 -53 26 -62 5 -13 16 -17 45 -16 53
2 77 -14 37 -24 -19 -5 -9 -6 27 -3 92 8 122 -15 46 -35 -24 -7 -61 -18 -83
-25 l-40 -13 3 -59 c1 -32 -4 -89 -12 -128 -8 -38 -13 -71 -11 -73 2 -3 7 7
11 22 3 14 10 26 15 26 5 0 0 -24 -12 -52 -11 -29 -29 -76 -39 -104 -10 -28
-36 -88 -58 -135 -22 -46 -39 -85 -38 -86 2 -2 47 67 76 117 19 31 18 2 -1
-35 -51 -104 -137 -204 -231 -269 -18 -13 -32 -28 -31 -33 1 -6 -10 -14 -25
-18 -15 -4 -34 -12 -42 -19 -24 -20 -170 -72 -268 -97 -79 -19 -93 -25 -102
-48 -23 -55 -43 -86 -48 -72 -2 7 -13 -13 -24 -45 -11 -33 -29 -68 -40 -78
l-21 -20 6 45 c7 43 6 43 -9 19 -15 -24 -15 -23 -9 27 4 40 2 55 -11 68 -9 9
-22 35 -29 57 -13 45 -13 45 -92 76 -38 14 -50 16 -46 6 3 -7 14 -16 25 -20
11 -3 17 -8 14 -11 -8 -8 -133 63 -181 103 -23 19 -47 34 -54 34 -6 0 -40 27
-75 60 -63 61 -111 134 -100 152 4 6 -1 8 -13 4 -17 -6 -25 6 -58 85 l-38 91
-33 -7 c-45 -8 -52 11 -9 25 41 13 61 36 24 27 -62 -15 -222 -60 -294 -83 -44
-14 -86 -27 -93 -30 -7 -2 -11 0 -8 5 3 4 43 23 88 41 88 35 120 54 79 48 -42
-5 -34 19 8 26 22 3 53 18 68 32 l28 26 -25 -7 c-14 -4 -38 -9 -55 -11 l-30
-5 28 16 c16 9 63 26 105 38 65 19 78 26 80 45 2 13 -1 29 -7 36 -8 10 -8 34
-1 82 12 86 12 86 0 79 -13 -8 -13 -3 1 32 6 15 15 50 20 78 5 27 23 79 39
114 22 47 27 67 20 77 -13 14 22 89 64 139 l26 30 -10 -28 c-14 -40 -13 -52 5
-37 20 17 19 47 -4 112 -34 96 -83 278 -78 296 2 11 8 1 17 -26 7 -23 15 -40
17 -38 4 4 -13 71 -47 181 -23 77 -32 125 -21 125 4 0 14 -19 20 -42 7 -24 21
-61 31 -83 10 -22 23 -59 29 -82 7 -24 14 -43 17 -43 4 0 4 7 0 15 -3 8 -2 15
3 15 5 0 19 -28 32 -62 16 -42 24 -56 29 -44 4 12 11 1 25 -36 28 -79 65 -161
71 -156 2 3 -3 22 -11 43 -21 49 -12 57 12 11 l18 -36 81 53 c94 62 119 74
111 53 -5 -13 -1 -13 20 -5 15 5 31 16 37 24 26 32 166 59 182 34 3 -6 18 -9
32 -6 39 7 227 -31 295 -59 33 -14 62 -23 65 -20 3 3 1 6 -4 6 -6 0 -19 7 -30
15 -18 15 -17 16 15 9 19 -3 87 -41 150 -83 89 -58 111 -77 94 -79 -12 -2 -32
2 -45 9 -23 12 -23 12 -4 -10 11 -11 32 -28 48 -36 l29 -14 39 61 c22 34 75
122 117 196 48 82 86 138 99 142 12 5 40 39 64 76 23 37 51 77 62 88 11 12 27
33 36 49 16 27 24 32 34 21z m-175 -1176 c-3 -35 -13 -79 -22 -98 l-16 -35 5
40 c3 22 6 66 6 98 0 46 3 57 16 57 15 0 16 -9 11 -62z m-56 -195 c-9 -16 -10
-16 -11 4 0 12 3 30 7 40 7 16 8 16 11 -4 2 -12 -1 -30 -7 -40z m-1716 -153
c-3 -5 -11 -10 -16 -10 -6 0 -7 5 -4 10 3 6 11 10 16 10 6 0 7 -4 4 -10z m315
-257 c39 -53 23 -56 -30 -5 -26 24 -42 49 -46 72 l-6 35 26 -30 c14 -16 39
-49 56 -72z m440 -428 c0 -33 -4 -45 -15 -45 -11 0 -15 11 -15 38 0 21 3 42 7
45 16 16 23 4 23 -38z"/>
<path d="M1390 2179 c-19 -6 -48 -9 -65 -6 -36 5 -76 -13 -197 -93 -48 -33
-90 -54 -93 -49 -4 5 -10 7 -15 4 -4 -3 8 -45 28 -95 35 -89 55 -119 29 -44
-24 67 -28 104 -13 104 14 0 23 -20 51 -114 15 -52 15 -61 3 -70 -17 -12 -16
-23 6 -85 19 -50 20 -65 6 -56 -12 8 -13 8 4 -40 l14 -40 10 40 c6 22 14 52
18 68 11 45 24 30 18 -20 -3 -27 -7 -54 -10 -60 -6 -21 14 -15 30 9 12 17 19
19 27 11 9 -9 9 -16 -1 -28 -21 -25 5 -17 30 10 44 47 56 25 14 -25 -15 -17
-25 -33 -23 -35 2 -2 29 3 59 11 71 18 111 18 104 0 -3 -7 -20 -18 -37 -24
l-32 -11 40 4 c75 8 134 27 128 41 -6 17 -11 15 160 54 101 24 137 36 137 47
0 10 6 13 16 9 17 -6 14 8 -12 73 -18 44 -11 51 12 12 10 -17 21 -31 25 -31 4
0 10 40 14 90 8 95 25 115 24 27 0 -29 4 -65 8 -81 l9 -28 27 51 c16 28 34 54
41 58 7 5 18 18 25 31 11 20 6 29 -61 101 -54 59 -93 89 -151 121 -43 23 -83
39 -90 37 -7 -2 6 -12 28 -21 47 -20 57 -33 43 -56 -10 -16 -12 -16 -28 0 -9
9 -38 20 -65 23 -57 8 -75 21 -75 53 0 22 -4 24 -57 24 -32 0 -74 2 -93 5 -19
2 -51 -1 -70 -6z"/>
<path d="M1626 2161 c5 -5 20 -12 34 -15 24 -7 24 -6 6 8 -21 17 -57 23 -40 7z"/>
<path d="M894 1873 c-10 -16 -17 -39 -16 -52 1 -13 -9 -43 -23 -67 -28 -47
-30 -54 -15 -54 6 0 10 9 10 20 0 11 5 20 10 20 15 0 12 -44 -5 -88 -23 -56
-26 -222 -5 -222 6 0 9 5 8 11 -2 6 11 16 27 22 17 5 37 15 45 22 8 7 25 16
37 19 19 6 21 11 13 27 -13 23 -5 40 15 33 26 -11 27 22 1 83 -14 33 -25 69
-25 79 1 35 -32 152 -45 164 -10 8 -18 4 -32 -17z"/>
<path d="M2087 1790 c-15 -33 -15 -35 5 -38 30 -5 38 9 23 43 l-13 30 -15 -35z"/>
<path d="M2075 1596 c-28 -8 -39 -16 -37 -27 1 -9 -9 -21 -25 -28 -15 -7 -35
-17 -43 -21 -8 -4 -16 -22 -18 -41 -2 -20 -13 -42 -27 -54 -22 -19 -101 -135
-91 -135 2 0 25 29 51 65 46 62 65 78 65 55 0 -16 -27 -67 -68 -129 -20 -29
-36 -64 -37 -77 0 -13 -10 -34 -22 -45 -17 -17 -24 -19 -41 -10 -23 12 -29 7
-42 -39 -7 -23 -5 -28 6 -23 22 8 17 -4 -24 -60 -93 -128 -136 -218 -97 -203
9 3 19 6 21 6 3 0 3 4 -1 10 -3 5 20 21 52 35 139 63 226 111 244 133 23 30
24 43 4 36 -28 -11 -15 7 59 85 41 43 82 95 90 116 20 47 20 59 0 23 -8 -16
-19 -28 -25 -28 -12 0 -5 25 28 100 49 109 54 131 47 202 -4 41 -11 67 -18 67
-6 -1 -29 -7 -51 -13z"/>
<path d="M1548 1583 c7 -3 16 -2 19 1 4 3 -2 6 -13 5 -11 0 -14 -3 -6 -6z"/>
<path d="M1425 1520 c-22 -11 -29 -17 -15 -14 38 10 70 23 70 29 0 9 -14 5
-55 -15z"/>
<path d="M1355 1490 c-3 -6 1 -7 9 -4 18 7 21 14 7 14 -6 0 -13 -4 -16 -10z"/>
<path d="M1433 1489 c-21 -6 -30 -14 -27 -23 4 -10 -19 -20 -86 -36 -75 -19
-90 -25 -85 -39 31 -84 59 -150 62 -147 3 2 -1 30 -7 61 -13 65 -8 80 13 38
24 -46 40 -142 33 -202 -5 -48 -1 -73 29 -166 38 -115 61 -163 75 -149 4 5 22
45 40 89 17 44 44 103 59 130 15 28 26 56 24 62 -6 16 94 203 159 300 26 40
48 75 48 78 0 11 -57 4 -167 -21 -111 -25 -166 -27 -110 -5 35 14 35 23 0 15
-22 -6 -25 -4 -20 10 7 18 5 18 -40 5z"/>
<path d="M970 1304 c-41 -14 -82 -23 -92 -21 -23 6 -23 -8 0 -31 9 -10 37 -59
62 -110 27 -58 50 -92 60 -92 8 0 45 -27 82 -60 36 -33 71 -60 78 -60 6 0 29
-14 51 -32 21 -17 42 -29 45 -25 3 3 -10 48 -29 99 -20 51 -45 125 -57 163
-22 77 -60 165 -70 165 -3 0 -20 -29 -38 -65 -17 -36 -35 -65 -40 -65 -16 0
-5 76 16 118 12 23 19 42 15 41 -5 0 -42 -11 -83 -25z"/>
<path d="M1290 375 c-17 -21 -8 -50 17 -53 30 -4 49 31 27 52 -19 20 -28 20
-44 1z m30 -25 c0 -5 -4 -10 -10 -10 -5 0 -10 5 -10 10 0 6 5 10 10 10 6 0 10
-4 10 -10z"/>
</g>
</svg>
