<?xml version="1.0" encoding="UTF-8" standalone="no"?>
<svg
   xmlns:dc="http://purl.org/dc/elements/1.1/"
   xmlns:cc="http://creativecommons.org/ns#"
   xmlns:rdf="http://www.w3.org/1999/02/22-rdf-syntax-ns#"
   xmlns:svg="http://www.w3.org/2000/svg"
   xmlns="http://www.w3.org/2000/svg"
   xmlns:sodipodi="http://sodipodi.sourceforge.net/DTD/sodipodi-0.dtd"
   xmlns:inkscape="http://www.inkscape.org/namespaces/inkscape"
   version="1.0"
   width="300.000000pt"
   height="303.000000pt"
   viewBox="0 0 300.000000 303.000000"
   preserveAspectRatio="xMidYMid meet"
   id="svg940"
   sodipodi:docname="caitiff.svg"
   inkscape:version="1.0.1 (3bc2e813f5, 2020-09-07)">
  <defs
     id="defs944" />
  <sodipodi:namedview
     pagecolor="#ffffff"
     bordercolor="#666666"
     borderopacity="1"
     objecttolerance="10"
     gridtolerance="10"
     guidetolerance="10"
     inkscape:pageopacity="0"
     inkscape:pageshadow="2"
     inkscape:window-width="1600"
     inkscape:window-height="837"
     id="namedview942"
     showgrid="false"
     inkscape:zoom="1.6584158"
     inkscape:cx="200"
     inkscape:cy="202"
     inkscape:window-x="-8"
     inkscape:window-y="-8"
     inkscape:window-maximized="1"
     inkscape:current-layer="svg940" />
  <metadata
     id="metadata934">
Created by potrace 1.16, written by Peter Selinger 2001-2019
<rdf:RDF>
  <cc:Work
     rdf:about="">
    <dc:format>image/svg+xml</dc:format>
    <dc:type
       rdf:resource="http://purl.org/dc/dcmitype/StillImage" />
  </cc:Work>
</rdf:RDF>
</metadata>
  <path
     id="path1509"
     style="fill:#ffffff;stroke-width:0.602985"
     transform="scale(0.75)"
     d="m 292.53466,40.514237 c -10.31688,-0.212493 -20.95848,1.416502 -29.61811,7.410122 -18.11031,11.360128 -30.80222,29.723151 -38.77017,49.249956 -4.53083,12.836305 3.222,28.430525 16.49053,31.973195 7.89761,2.89156 16.21683,0.10545 23.42083,-3.35092 4.30019,-1.26325 8.83093,-2.03277 13.31749,-1.83958 -0.2974,6.88589 -1.90095,13.65702 -5.00396,19.80658 -4.70223,12.45047 2.30233,27.90565 15.04676,32.05593 8.8978,3.71638 18.55098,0.42748 26.57594,-3.88877 21.27427,-9.70203 38.88074,-28.22408 45.78259,-50.71311 0.99019,-8.80921 0.73578,-17.80978 -0.17748,-26.620824 -3.17222,-9.127534 -7.96169,-17.713023 -13.27627,-25.770545 -9.44844,-12.617909 -23.42212,-21.425875 -38.19769,-26.48659 -5.05304,-1.472695 -10.34513,-1.911637 -15.59046,-1.825444 z m -2.68988,-42.9662191 c -23.5495,-0.6401471 -46.91679,8.3736905 -64.77732,23.5482161 -12.08156,10.540699 -20.51102,24.494462 -28.57467,38.16707 -4.03519,7.456134 -8.57977,14.726573 -11.26403,22.86108 -4.95799,13.344548 -8.5276,27.166526 -11.43388,41.089486 -5.34659,-3.51389 -11.94224,-4.68628 -18.21439,-3.6709 -9.13393,-5.28073 -19.96126,-6.71474 -30.32927,-6.78332 -14.20199,0.76156 -25.478941,14.67708 -23.89463,28.69335 1.08074,8.55579 2.74829,17.45588 7.72103,24.69766 -2.79052,12.59869 5.60789,26.17805 18.08131,29.42731 5.60661,1.43985 11.13445,3.20974 16.39013,5.65535 -1.51835,3.8546 -6.17547,5.30959 -8.8163,8.37819 -17.10866,14.65007 -35.033297,28.42697 -54.042557,40.51612 -8.504217,6.92809 -16.956294,13.98757 -26.445357,19.55627 -13.188951,9.83812 -25.080277,21.31096 -37.133046,32.48229 -8.68764,7.89218 -11.3214584,21.62737 -5.134785,31.8013 5.244041,9.15386 16.260215,13.55351 26.505638,12.0906 2.934551,-0.34251 6.148588,-0.56186 7.881303,2.34684 2.833382,2.9405 6.107986,5.76455 8.317819,9.12989 -0.38895,9.49325 0.585957,20.17259 8.165759,26.89078 9.283408,9.49316 25.987518,9.1919 35.187925,-0.30526 14.147881,-15.7439 28.695241,-31.27258 40.321091,-49.04554 6.96419,-9.64338 14.87177,-18.57188 21.14239,-28.72216 7.42301,-10.93132 14.42964,-22.23325 23.67949,-31.75896 4.7594,-5.08956 8.33305,-11.25669 13.23664,-16.15805 2.6207,-3.23437 3.68972,0.30533 4.61174,2.68139 4.18486,8.67926 5.50764,19.53495 14.20014,25.23009 5.60614,4.30695 13.09191,5.77401 19.9617,4.69094 10.47823,4.68589 22.4808,8.75442 34.00423,5.97442 13.10664,-3.02834 21.48194,-17.53379 18.31369,-30.46013 -1.0293,-6.89668 -2.40765,-13.86953 -5.77382,-20.05864 1.94369,-6.68312 1.06384,-14.21772 -2.62982,-20.14464 16.96874,-3.84759 34.30279,-7.60895 49.88882,-15.59298 10.3715,-6.3539 21.60043,-11.31272 31.36549,-18.67646 8.44647,-6.02259 17.6411,-11.80812 22.71227,-21.20245 12.1468,-16.09424 20.02492,-35.88147 19.4793,-56.24877 0.50644,-13.46954 -0.89173,-27.022483 -5.29614,-39.817031 C 391.68171,57.919842 381.75893,42.579492 368.63561,30.566161 355.669,17.033956 338.98424,7.5234303 321.11992,2.0986709 311.02691,-1.2285917 300.45253,-2.6087263 289.84478,-2.4519821 Z m 4.40108,67.6261891 c 4.56055,-0.491191 8.79036,0.766788 12.61166,3.22012 8.90029,4.14001 17.38289,9.992442 22.08471,18.868919 1.91145,4.08321 4.72674,7.977065 6.16529,12.35177 0.57214,5.714644 1.60512,11.903314 -0.007,17.439284 -2.18924,4.92499 -4.02422,10.00766 -7.85424,13.9866 -6.04492,8.09101 -14.12071,14.44572 -23.41679,18.39462 -3.21722,1.58297 -6.46138,3.11273 -9.75093,4.54002 6.52888,-8.66776 6.976,-19.84426 8.28752,-30.1681 -0.0596,-12.51205 -10.43009,-23.78333 -22.95607,-24.630131 -10.49068,0.02523 -21.62248,1.013351 -30.78145,6.641861 -3.00438,0.002 0.818,-3.94945 1.10712,-5.73293 6.96238,-14.190504 17.21774,-27.971354 32.07355,-34.373821 4.12192,-0.502652 8.28911,-0.54519 12.43657,-0.538212 z m -101.69602,6.702321 c 0.0774,-1.016085 0.12671,-0.926617 0,0 z" />
  <g
     transform="translate(0.000000,303.000000) scale(0.100000,-0.100000)"
     fill="#000000"
     stroke="none"
     id="g938">
    <path
       d="M2082 2859 c-118 -18 -260 -94 -320 -172 -57 -75 -132 -189 -132 -203 0 -7 -7 -20 -15 -28 -40 -40 -109 -253 -140 -436 -9 -52 -20 -164 -24 -247 -3 -84 -11 -157 -16 -162 -19 -19 -50 0 -89 52 -42 56 -106 186 -127 254 -11 40 -13 41 -33 28 -30 -22 -51 -18 -88 14 -26 22 -47 30 -97 36 -58 7 -63 6 -58 -11 3 -11 8 -36 12 -58 4 -25 16 -47 35 -62 39 -33 47 -71 20 -99 l-21 -22 34 -6 c19 -3 74 -23 123 -44 66 -28 103 -52 148 -95 50 -49 57 -60 46 -73 -7 -8 -28 -15 -46 -15 -30 0 -34 -3 -34 -27 0 -29 -58 -122 -76 -123 -6 0 -19 -10 -30 -21 -10 -12 -55 -50 -99 -85 -44 -35 -87 -70 -95 -77 -29 -26 -195 -142 -222 -156 -15 -8 -40 -26 -55 -41 -33 -32 -139 -110 -149 -110 -9 0 -89 -64 -144 -116 -25 -23 -71 -66 -104 -94 -39 -35 -51 -50 -35 -45 37 12 113 8 153 -9 51 -21 161 -137 182 -191 11 -30 15 -61 12 -97 l-5 -52 30 35 c16 18 64 71 105 117 41 45 91 106 110 135 57 86 125 177 134 177 4 0 8 5 8 10 0 6 36 60 80 121 44 60 80 114 80 119 0 4 13 21 28 37 48 48 142 162 142 172 0 14 80 76 117 90 17 7 37 10 42 6 7 -4 11 4 11 20 0 33 17 65 34 65 8 0 28 -17 46 -37 17 -21 40 -47 50 -59 21 -24 84 -156 102 -215 10 -36 13 -38 28 -24 23 21 37 19 89 -14 27 -17 67 -32 97 -36 l51 -6 -9 57 c-6 41 -17 67 -38 91 -36 40 -37 59 -8 90 21 22 21 23 2 23 -23 0 -124 34 -169 57 -64 33 -154 99 -169 124 -24 41 -5 49 140 54 71 3 176 12 234 21 166 24 411 95 430 123 3 5 34 22 70 39 36 16 90 48 120 71 30 22 70 50 88 62 17 12 32 25 32 30 0 5 16 30 36 55 52 69 73 115 90 202 32 153 -3 342 -86 471 -20 31 -70 89 -111 129 -141 140 -354 210 -547 181z m223 -140 c22 -6 42 -14 45 -18 3 -3 37 -21 75 -40 92 -46 171 -125 215 -216 18 -38 37 -73 42 -76 4 -3 13 -41 19 -86 12 -84 0 -204 -21 -211 -5 -2 -10 -11 -10 -20 0 -51 -141 -216 -225 -264 -136 -79 -296 -141 -395 -155 -25 -3 -48 -10 -51 -16 -8 -11 -246 -23 -282 -13 -14 3 -29 15 -32 27 -12 38 68 103 195 159 41 18 76 36 78 41 2 5 19 11 38 15 32 6 34 8 19 23 -23 27 -18 48 20 87 20 20 35 45 35 58 0 13 3 38 7 56 l6 33 -58 -6 c-50 -5 -63 -11 -93 -41 -39 -40 -66 -45 -84 -16 -18 29 -24 25 -36 -22 -18 -70 -107 -240 -146 -280 -68 -70 -89 -47 -89 95 0 116 19 260 33 265 6 2 10 10 10 18 0 8 13 54 29 103 68 206 190 380 316 447 27 15 52 30 55 34 19 25 215 38 285 19z"
       id="path936" />
  </g>
</svg>
