<?xml version="1.0" standalone="no"?>
<!DOCTYPE svg PUBLIC "-//W3C//DTD SVG 20010904//EN"
 "http://www.w3.org/TR/2001/REC-SVG-20010904/DTD/svg10.dtd">
<svg version="1.0" xmlns="http://www.w3.org/2000/svg"
 width="300.000000pt" height="303.000000pt" viewBox="0 0 300.000000 303.000000"
 preserveAspectRatio="xMidYMid meet">
<metadata>
Created by potrace 1.16, written by Peter Selinger 2001-2019
</metadata>
<g transform="translate(0.000000,303.000000) scale(0.100000,-0.100000)"
fill="#000000" stroke="none">
<path d="M2082 2859 c-118 -18 -260 -94 -320 -172 -57 -75 -132 -189 -132
-203 0 -7 -7 -20 -15 -28 -40 -40 -109 -253 -140 -436 -9 -52 -20 -164 -24
-247 -3 -84 -11 -157 -16 -162 -19 -19 -50 0 -89 52 -42 56 -106 186 -127 254
-11 40 -13 41 -33 28 -30 -22 -51 -18 -88 14 -26 22 -47 30 -97 36 -58 7 -63
6 -58 -11 3 -11 8 -36 12 -58 4 -25 16 -47 35 -62 39 -33 47 -71 20 -99 l-21
-22 34 -6 c19 -3 74 -23 123 -44 66 -28 103 -52 148 -95 50 -49 57 -60 46 -73
-7 -8 -28 -15 -46 -15 -30 0 -34 -3 -34 -27 0 -29 -58 -122 -76 -123 -6 0 -19
-10 -30 -21 -10 -12 -55 -50 -99 -85 -44 -35 -87 -70 -95 -77 -29 -26 -195
-142 -222 -156 -15 -8 -40 -26 -55 -41 -33 -32 -139 -110 -149 -110 -9 0 -89
-64 -144 -116 -25 -23 -71 -66 -104 -94 -39 -35 -51 -50 -35 -45 37 12 113 8
153 -9 51 -21 161 -137 182 -191 11 -30 15 -61 12 -97 l-5 -52 30 35 c16 18
64 71 105 117 41 45 91 106 110 135 57 86 125 177 134 177 4 0 8 5 8 10 0 6
36 60 80 121 44 60 80 114 80 119 0 4 13 21 28 37 48 48 142 162 142 172 0 14
80 76 117 90 17 7 37 10 42 6 7 -4 11 4 11 20 0 33 17 65 34 65 8 0 28 -17 46
-37 17 -21 40 -47 50 -59 21 -24 84 -156 102 -215 10 -36 13 -38 28 -24 23 21
37 19 89 -14 27 -17 67 -32 97 -36 l51 -6 -9 57 c-6 41 -17 67 -38 91 -36 40
-37 59 -8 90 21 22 21 23 2 23 -23 0 -124 34 -169 57 -64 33 -154 99 -169 124
-24 41 -5 49 140 54 71 3 176 12 234 21 166 24 411 95 430 123 3 5 34 22 70
39 36 16 90 48 120 71 30 22 70 50 88 62 17 12 32 25 32 30 0 5 16 30 36 55
52 69 73 115 90 202 32 153 -3 342 -86 471 -20 31 -70 89 -111 129 -141 140
-354 210 -547 181z m223 -140 c22 -6 42 -14 45 -18 3 -3 37 -21 75 -40 92 -46
171 -125 215 -216 18 -38 37 -73 42 -76 4 -3 13 -41 19 -86 12 -84 0 -204 -21
-211 -5 -2 -10 -11 -10 -20 0 -51 -141 -216 -225 -264 -136 -79 -296 -141
-395 -155 -25 -3 -48 -10 -51 -16 -8 -11 -246 -23 -282 -13 -14 3 -29 15 -32
27 -12 38 68 103 195 159 41 18 76 36 78 41 2 5 19 11 38 15 32 6 34 8 19 23
-23 27 -18 48 20 87 20 20 35 45 35 58 0 13 3 38 7 56 l6 33 -58 -6 c-50 -5
-63 -11 -93 -41 -39 -40 -66 -45 -84 -16 -18 29 -24 25 -36 -22 -18 -70 -107
-240 -146 -280 -68 -70 -89 -47 -89 95 0 116 19 260 33 265 6 2 10 10 10 18 0
8 13 54 29 103 68 206 190 380 316 447 27 15 52 30 55 34 19 25 215 38 285 19z"/>
</g>
</svg>
