<?xml version="1.0" standalone="no"?>
<!DOCTYPE svg PUBLIC "-//W3C//DTD SVG 20010904//EN"
 "http://www.w3.org/TR/2001/REC-SVG-20010904/DTD/svg10.dtd">
<svg version="1.0" xmlns="http://www.w3.org/2000/svg"
 width="600.000000pt" height="350.000000pt" viewBox="0 0 600.000000 350.000000"
 preserveAspectRatio="xMidYMid meet">
<metadata>
Created by potrace 1.16, written by Peter Selinger 2001-2019
</metadata>
<g transform="translate(0.000000,350.000000) scale(0.100000,-0.100000)"
fill="#000000" stroke="none">
<path d="M3111 3306 c-19 -19 -46 -40 -62 -46 -22 -9 -30 -21 -35 -49 -6 -41
-31 -104 -82 -211 -22 -46 -37 -95 -40 -127 -3 -29 -6 -53 -8 -53 -10 0 -58
48 -69 70 -27 50 -110 127 -160 148 -75 31 -146 38 -186 18 -42 -21 -39 -21
-116 15 -70 32 -98 33 -167 4 -17 -7 -56 -23 -86 -36 -185 -76 -203 -92 -210
-182 -6 -71 -22 -83 -66 -48 -30 23 -83 27 -117 9 -12 -6 -37 -27 -55 -47 -79
-87 -118 -122 -139 -127 -17 -5 -24 -16 -29 -50 -7 -47 -29 -59 -54 -29 -14
17 -40 20 -40 6 0 -9 -147 -159 -183 -188 -9 -7 -22 -13 -29 -13 -7 0 -21 -20
-31 -45 -11 -25 -23 -45 -28 -45 -5 0 -9 -6 -9 -13 0 -7 -11 -29 -25 -48 -14
-19 -33 -45 -42 -59 -10 -13 -48 -55 -85 -92 l-68 -67 0 -70 c0 -38 -4 -72 -8
-75 -4 -2 -21 11 -37 31 l-28 36 -20 -38 c-10 -21 -23 -43 -28 -49 -89 -110
-169 -221 -169 -235 0 -6 -4 -11 -10 -11 -5 0 -10 -6 -10 -12 0 -7 -7 -26 -15
-42 -9 -16 -21 -58 -28 -93 -6 -34 -15 -63 -19 -63 -5 0 -8 -15 -8 -32 0 -29
5 -35 43 -50 56 -24 281 -25 311 -3 22 17 66 20 66 5 0 -5 5 -10 10 -10 6 0
10 20 10 45 0 36 -4 45 -17 46 -12 1 -9 4 7 8 17 5 28 3 33 -6 6 -9 36 -13
111 -13 l103 0 6 29 c5 24 13 30 54 40 67 18 135 37 226 63 69 20 77 24 77 46
0 14 -7 30 -16 37 -13 9 -1 15 67 32 94 24 197 53 279 78 30 9 83 24 117 34
57 16 90 31 67 31 -13 0 -47 26 -97 74 -35 34 -38 40 -23 48 17 10 64 -18 109
-64 15 -15 34 -18 122 -18 l105 0 0 31 c0 25 -6 33 -30 42 -16 6 -30 15 -30
19 0 4 -6 8 -13 8 -8 0 -24 9 -37 20 -13 11 -26 20 -31 20 -4 0 -26 12 -48 27
-29 19 -37 29 -29 35 22 13 51 8 93 -17 22 -14 54 -32 70 -41 17 -9 32 -20 35
-23 9 -11 60 -31 80 -31 27 0 25 12 -7 52 -48 57 -57 65 -85 72 -18 4 -30 15
-34 31 -3 14 -10 25 -15 25 -5 0 -9 11 -9 25 0 14 3 25 7 25 3 0 44 -38 90
-85 68 -69 90 -85 113 -85 25 0 30 4 30 24 0 14 5 28 10 31 6 3 10 -1 10 -9 0
-12 10 -16 35 -16 l35 0 0 60 c0 54 2 60 21 60 12 0 42 -23 73 -57 41 -43 65
-60 102 -70 100 -29 105 -28 236 28 68 29 125 56 128 60 3 4 26 17 52 29 34
16 57 36 80 71 35 55 48 61 48 24 0 -24 3 -25 59 -25 56 0 58 1 54 24 -3 15 5
39 24 67 30 46 39 39 31 -27 l-4 -34 52 0 52 0 28 58 c25 51 29 71 34 197 l7
140 1 -182 2 -183 83 0 c65 0 89 4 105 18 11 9 33 26 49 37 44 31 173 167 190
200 9 17 19 32 22 35 19 16 41 78 41 116 0 40 2 44 25 44 23 0 25 -4 25 -40 0
-31 -9 -53 -37 -93 -37 -51 -43 -61 -84 -133 l-19 -34 35 0 c19 0 35 4 35 9 0
5 12 22 28 39 15 16 32 37 37 45 44 65 134 177 206 254 l48 53 -5 -83 c-9
-142 -4 -133 -126 -257 l-112 -115 86 -3 c78 -2 89 0 124 23 21 14 49 28 63
31 14 3 35 9 47 14 12 4 48 11 80 15 32 4 64 11 69 15 6 4 26 10 46 14 27 5
55 26 120 91 95 96 99 100 123 138 30 45 39 33 32 -38 l-7 -65 32 0 c26 0 43
11 86 55 30 30 58 55 64 55 12 0 11 -67 -2 -91 -6 -11 -19 -29 -30 -40 -24
-24 -147 -85 -190 -94 l-31 -7 27 -14 c29 -15 95 -19 95 -6 0 12 107 48 212
72 81 18 104 27 135 56 21 19 49 37 63 40 90 20 336 152 318 170 -3 2 -47 13
-99 24 -52 11 -119 26 -149 35 -30 8 -76 15 -103 15 -63 0 -117 28 -188 100
l-58 57 -80 6 c-59 4 -90 11 -118 28 -21 13 -40 26 -43 30 -15 19 -126 81
-155 86 -23 4 -32 10 -28 19 4 11 -7 14 -46 14 -37 0 -53 -4 -56 -15 -3 -8 -7
-22 -10 -31 -4 -12 -20 -1 -63 44 -48 49 -66 61 -112 72 -30 7 -66 18 -80 25
-36 18 -98 25 -124 15 -25 -9 -66 -82 -66 -117 0 -28 -25 -49 -34 -27 -3 8 -6
25 -6 37 0 16 -19 35 -65 66 -56 38 -72 44 -118 45 -73 1 -133 -27 -153 -71
-9 -18 -22 -33 -29 -33 -6 0 -22 19 -34 43 -43 84 -181 127 -407 127 l-140 0
-33 -34z"/>
<path d="M5354 2478 c-53 -35 -95 -59 -134 -80 -14 -7 -27 -16 -30 -20 -19
-26 -86 -38 -209 -38 l-129 0 13 -49 c17 -66 21 -71 58 -73 18 0 -22 -4 -88
-8 -225 -14 -213 -10 -313 -111 l-88 -89 -115 0 c-113 0 -116 -1 -155 -30 -24
-18 -51 -30 -71 -30 -21 0 -33 -5 -33 -13 0 -14 -20 -61 -44 -106 -12 -21 -10
-26 16 -55 17 -17 48 -56 71 -86 49 -65 84 -106 114 -133 12 -11 24 -37 28
-63 3 -24 10 -46 16 -49 12 -8 12 -182 0 -189 -11 -7 -21 18 -21 55 0 62 -42
191 -78 243 -82 115 -163 176 -234 176 -46 0 -48 -1 -48 -28 0 -16 8 -32 20
-40 21 -13 27 -42 9 -42 -6 0 -35 24 -64 53 -99 97 -99 97 -149 97 -25 0 -46
-2 -46 -5 0 -2 11 -21 25 -41 25 -37 33 -74 16 -74 -5 0 -19 11 -32 25 -21 21
-33 25 -86 25 -49 0 -63 3 -63 15 0 22 -378 23 -386 1 -3 -8 -39 -22 -82 -32
-62 -14 -83 -24 -108 -52 -25 -26 -44 -36 -93 -45 -49 -9 -61 -15 -61 -30 0
-11 -16 -35 -35 -54 l-36 -36 -29 28 c-25 24 -35 27 -71 22 -23 -3 -45 -10
-48 -15 -17 -26 -74 -42 -146 -42 -67 0 -109 -10 -125 -29 -12 -14 -52 -31
-74 -31 -28 0 -31 -11 -46 -165 -19 -199 -34 -279 -87 -457 -15 -49 -30 -88
-34 -88 -3 0 -9 22 -13 50 -4 27 -11 52 -16 55 -21 13 -10 70 20 102 30 32 30
33 30 146 0 90 -3 117 -15 127 -8 7 -15 23 -15 36 0 20 -5 24 -29 24 -27 0
-32 -6 -50 -55 -12 -31 -21 -63 -21 -73 0 -10 -10 -1 -25 23 -13 22 -28 45
-32 50 -5 6 -22 29 -38 51 -16 23 -44 52 -63 64 -30 21 -40 22 -120 17 -111
-8 -189 -29 -274 -72 -75 -39 -112 -43 -182 -19 -57 20 -85 14 -216 -48 -47
-22 -94 -44 -105 -49 -11 -5 -60 -15 -110 -24 -228 -38 -386 -75 -413 -97 -24
-19 -62 -58 -62 -63 0 -2 17 -7 37 -11 43 -8 114 -43 126 -61 4 -7 15 -13 22
-13 8 0 15 -4 15 -10 0 -6 46 -10 118 -10 114 0 118 1 147 28 69 64 155 119
155 99 0 -2 -19 -25 -42 -51 -55 -60 -85 -166 -48 -166 5 0 31 -13 57 -28 57
-34 129 -58 199 -67 44 -6 61 -3 107 19 58 28 89 25 125 -10 13 -14 17 -14 20
-3 3 8 10 21 17 29 7 8 17 30 23 47 15 44 88 144 163 223 l62 65 -5 -35 c-4
-20 -19 -58 -36 -86 -16 -27 -35 -68 -42 -90 -7 -21 -17 -45 -22 -51 -15 -18
-13 -110 3 -129 7 -8 15 -32 18 -52 l6 -37 62 -3 62 -3 3 -60 3 -61 62 -33
c35 -18 80 -39 100 -46 21 -6 40 -15 43 -19 9 -12 254 -112 300 -122 25 -6 49
-14 55 -19 5 -5 33 -9 62 -9 l53 0 0 90 c0 53 -4 90 -10 90 -6 0 -10 41 -10
104 0 83 -3 105 -15 110 -10 3 -15 19 -15 48 0 39 1 41 14 23 7 -11 40 -72 73
-135 l60 -115 119 -5 c147 -6 202 -29 226 -92 5 -12 23 -17 70 -20 105 -6 106
-5 168 118 31 60 70 136 88 169 l32 60 0 -87 c0 -48 -4 -90 -10 -93 -5 -3 -10
-28 -10 -56 l0 -49 125 0 c131 0 139 2 252 58 57 29 79 46 103 83 29 46 30 50
30 172 0 98 3 127 15 137 12 10 15 38 15 136 0 68 3 124 8 124 7 0 32 -39 68
-107 17 -32 17 -32 -14 -67 -39 -45 -48 -88 -27 -145 12 -36 13 -46 3 -53 -7
-4 15 -8 52 -8 36 0 75 -3 87 -6 15 -4 28 2 45 21 13 15 29 33 36 41 6 7 12
17 12 22 0 5 7 15 15 22 8 7 15 21 15 32 0 10 7 32 15 48 33 63 97 19 99 -67
l1 -43 43 0 c41 0 50 4 91 41 10 8 25 18 34 22 9 3 17 11 17 16 0 5 10 11 23
15 32 8 122 96 196 191 34 44 66 85 71 92 6 7 10 17 10 22 0 6 6 14 13 18 7 4
23 22 35 40 20 28 22 44 22 148 0 118 -8 153 -47 197 -16 18 -24 120 -10 134
15 15 53 -41 81 -118 l29 -78 41 0 c38 0 46 5 104 70 54 60 66 80 79 133 14
59 13 101 -2 140 -6 14 -2 17 20 17 127 0 245 122 245 254 l0 49 155 153 c149
147 155 155 155 194 0 39 -1 40 -33 40 -20 0 -52 -12 -83 -32z"/>
<path d="M428 1255 c-20 -14 -41 -25 -47 -25 -6 0 -23 -21 -38 -47 -15 -27
-38 -59 -50 -73 -15 -16 -23 -37 -23 -59 0 -32 1 -33 31 -27 17 3 45 12 62 20
75 34 158 66 172 66 8 0 15 5 15 10 0 6 11 10 25 10 23 0 25 3 25 50 0 28 -3
50 -7 50 -5 0 -21 11 -37 25 -37 32 -81 32 -128 0z"/>
</g>
</svg>
