<?xml version="1.0" encoding="UTF-8" standalone="no"?>
<svg
   xmlns:dc="http://purl.org/dc/elements/1.1/"
   xmlns:cc="http://creativecommons.org/ns#"
   xmlns:rdf="http://www.w3.org/1999/02/22-rdf-syntax-ns#"
   xmlns:svg="http://www.w3.org/2000/svg"
   xmlns="http://www.w3.org/2000/svg"
   xmlns:sodipodi="http://sodipodi.sourceforge.net/DTD/sodipodi-0.dtd"
   xmlns:inkscape="http://www.inkscape.org/namespaces/inkscape"
   version="1.0"
   width="300.000000pt"
   height="300.000000pt"
   viewBox="0 0 300.000000 300.000000"
   preserveAspectRatio="xMidYMid meet"
   id="svg2050"
   sodipodi:docname="defender.svg"
   inkscape:version="1.0.1 (3bc2e813f5, 2020-09-07)">
  <defs
     id="defs2054" />
  <sodipodi:namedview
     pagecolor="#ffffff"
     bordercolor="#666666"
     borderopacity="1"
     objecttolerance="10"
     gridtolerance="10"
     guidetolerance="10"
     inkscape:pageopacity="0"
     inkscape:pageshadow="2"
     inkscape:window-width="1600"
     inkscape:window-height="837"
     id="namedview2052"
     showgrid="false"
     inkscape:zoom="1.675"
     inkscape:cx="200"
     inkscape:cy="200"
     inkscape:window-x="-8"
     inkscape:window-y="-8"
     inkscape:window-maximized="1"
     inkscape:current-layer="svg2050" />
  <metadata
     id="metadata2044">
Created by potrace 1.16, written by Peter Selinger 2001-2019
<rdf:RDF>
  <cc:Work
     rdf:about="">
    <dc:format>image/svg+xml</dc:format>
    <dc:type
       rdf:resource="http://purl.org/dc/dcmitype/StillImage" />
  </cc:Work>
</rdf:RDF>
</metadata>
  <path
     style="fill:#ffffff;stroke-width:0.597015"
     d="M 198.72435,2.3729009 C 179.50992,2.8308782 160.40642,18.133438 159.5499,38.032882 c -0.93138,11.533009 1.20907,23.807433 9.0112,32.772855 1.669,2.770399 5.99516,4.098369 4.87174,7.903452 0.9674,3.814118 -0.56513,5.601581 -4.37941,5.687605 -22.70158,5.660603 -43.10462,18.864446 -58.42164,36.445816 -13.909318,14.47066 -22.814733,33.15978 -27.32022,52.59023 -3.151279,-0.48449 -7.380334,1.47334 -9.173277,-2.0126 -11.023735,-11.5349 -28.840385,-14.43571 -43.866605,-10.71828 -13.653501,4.86975 -24.8925734,17.4839 -26.9881453,31.97569 -0.8804842,10.02828 -0.5800131,20.88105 5.6040507,29.34894 5.1675316,7.9687 12.9568036,14.60593 21.9126216,17.74267 7.817481,1.55964 16.069423,0.95006 23.905712,-0.38318 9.45079,-1.88477 18.00013,-7.68518 23.201023,-15.80399 3.745898,-0.93651 5.517122,0.4921 5.499068,4.26539 8.643224,37.53624 36.904852,69.56025 72.788012,83.36871 5.60848,2.22017 11.37481,4.03983 17.23881,5.45242 -0.48797,3.1563 1.4781,7.39573 -2.0126,9.1931 -11.5349,11.02373 -14.43571,28.84038 -10.71828,43.8666 5.73658,16.2789 22.50088,28.64356 40.0268,27.51589 14.63574,0.16692 28.34651,-8.51616 35.71304,-20.95775 5.81348,-7.93671 4.2112,-18.26515 3.56986,-27.45133 -1.24282,-10.7577 -7.22629,-20.91688 -16.42957,-26.74207 -0.86371,-3.67815 0.54118,-5.45571 4.23158,-5.48857 44.41342,-10.37529 80.99866,-48.25015 89.72364,-93.02239 3.40824,-0.7825 5.5816,0.59164 7.15835,3.5098 8.45963,10.75535 22.82001,14.17096 35.91417,13.49463 10.29143,1.0709 19.10304,-5.55586 25.87571,-12.55364 9.01806,-9.58726 12.66064,-23.46595 9.97552,-36.3013 -2.62298,-15.26236 -15.09336,-28.5363 -30.21222,-31.87267 -14.99073,-2.33844 -32.2706,1.23124 -42.14786,13.57393 -2.95634,-0.55091 -8.2005,1.81082 -7.91511,-2.84282 -5.43683,-22.39332 -18.32884,-42.55147 -35.05714,-58.23578 -15.80814,-15.136419 -36.08513,-25.588371 -57.54664,-29.841416 -0.76577,-3.416368 0.56386,-5.629139 3.5098,-7.208486 10.75535,-8.459628 14.17096,-22.820007 13.49463,-35.914165 1.07532,-10.452717 -5.74024,-19.37306 -12.89879,-26.18355 C 219.85089,6.1123301 209.33069,2.0026424 198.72435,2.3729009 Z"
     id="path2617"
     transform="scale(0.75)" />
  <g
     transform="translate(0.000000,300.000000) scale(0.100000,-0.100000)"
     fill="#000000"
     stroke="none"
     id="g2048">
    <path
       d="M1447 2826 c-78 -29 -111 -81 -105 -166 5 -65 32 -111 78 -132 l30 -13 0 -130 0 -131 -82 -15 c-162 -31 -285 -96 -398 -210 -115 -115 -178 -236 -209 -396 l-15 -83 -131 0 -130 0 -13 30 c-21 47 -67 74 -137 78 -50 3 -66 0 -94 -20 -100 -67 -100 -209 0 -276 28 -20 44 -23 94 -20 74 4 116 31 141 88 l18 40 127 0 126 0 7 -61 c37 -324 285 -585 614 -648 l82 -15 0 -131 0 -130 -30 -13 c-47 -21 -74 -67 -78 -137 -3 -50 0 -66 20 -94 67 -100 209 -100 276 0 20 28 23 44 20 94 -4 74 -31 116 -88 141 l-40 18 0 127 0 126 61 7 c336 38 617 319 655 655 l7 61 126 0 127 0 18 -40 c25 -57 67 -84 141 -88 50 -3 66 0 94 20 100 67 100 209 0 276 -28 20 -44 23 -94 20 -70 -4 -116 -31 -137 -78 l-13 -30 -132 0 -131 0 -7 53 c-45 332 -323 605 -654 643 l-61 7 0 126 0 127 40 18 c57 25 84 67 88 141 3 50 0 66 -20 94 -43 64 -122 92 -191 67z m3 -795 l0 -139 -37 -7 c-139 -26 -272 -159 -298 -297 l-7 -38 -140 0 -140 0 7 43 c26 153 88 272 199 382 92 91 183 143 306 175 120 30 110 41 110 -119z m248 108 c104 -32 189 -84 273 -168 106 -106 169 -229 194 -378 l7 -43 -140 0 -140 0 -7 38 c-27 143 -167 279 -310 299 l-45 6 0 140 0 140 50 -7 c28 -4 81 -16 118 -27z m-248 -403 c0 -74 0 -74 -34 -96 -19 -11 -45 -37 -56 -56 -22 -34 -22 -34 -96 -34 -53 0 -74 4 -74 13 0 24 48 114 79 150 31 34 139 97 168 97 10 0 13 -19 13 -74z m188 44 c70 -35 114 -82 148 -154 35 -75 35 -76 -50 -76 l-73 0 -26 39 c-15 22 -43 47 -66 57 l-40 19 -1 73 c0 69 1 72 23 72 13 0 51 -14 85 -30z m-525 -355 c20 -143 156 -283 300 -310 l37 -7 0 -140 0 -140 -42 7 c-150 25 -273 88 -379 194 -109 109 -175 242 -195 391 l-7 50 140 0 140 0 6 -45z m241 4 c10 -23 35 -51 57 -66 l39 -26 0 -73 c0 -53 -4 -74 -12 -74 -25 0 -115 48 -151 79 -39 35 -97 140 -97 178 0 22 3 23 73 23 l72 -1 19 -40z m456 19 c0 -33 -42 -119 -79 -161 -35 -39 -140 -97 -178 -97 -22 0 -23 3 -23 74 0 70 1 74 25 80 32 8 93 69 101 101 6 24 10 25 80 25 70 0 74 -1 74 -22z m356 -28 c-20 -149 -86 -282 -195 -391 -109 -109 -242 -175 -391 -195 l-50 -7 0 140 0 140 48 7 c145 19 288 164 309 311 l6 45 140 0 140 0 -7 -50z"
       id="path2046" />
  </g>
</svg>
