<?xml version="1.0" standalone="no"?>
<!DOCTYPE svg PUBLIC "-//W3C//DTD SVG 20010904//EN"
 "http://www.w3.org/TR/2001/REC-SVG-20010904/DTD/svg10.dtd">
<svg version="1.0" xmlns="http://www.w3.org/2000/svg"
 width="300.000000pt" height="300.000000pt" viewBox="0 0 300.000000 300.000000"
 preserveAspectRatio="xMidYMid meet">
<metadata>
Created by potrace 1.16, written by Peter Selinger 2001-2019
</metadata>
<g transform="translate(0.000000,300.000000) scale(0.100000,-0.100000)"
fill="#000000" stroke="none">
<path d="M1447 2826 c-78 -29 -111 -81 -105 -166 5 -65 32 -111 78 -132 l30
-13 0 -130 0 -131 -82 -15 c-162 -31 -285 -96 -398 -210 -115 -115 -178 -236
-209 -396 l-15 -83 -131 0 -130 0 -13 30 c-21 47 -67 74 -137 78 -50 3 -66 0
-94 -20 -100 -67 -100 -209 0 -276 28 -20 44 -23 94 -20 74 4 116 31 141 88
l18 40 127 0 126 0 7 -61 c37 -324 285 -585 614 -648 l82 -15 0 -131 0 -130
-30 -13 c-47 -21 -74 -67 -78 -137 -3 -50 0 -66 20 -94 67 -100 209 -100 276
0 20 28 23 44 20 94 -4 74 -31 116 -88 141 l-40 18 0 127 0 126 61 7 c336 38
617 319 655 655 l7 61 126 0 127 0 18 -40 c25 -57 67 -84 141 -88 50 -3 66 0
94 20 100 67 100 209 0 276 -28 20 -44 23 -94 20 -70 -4 -116 -31 -137 -78
l-13 -30 -132 0 -131 0 -7 53 c-45 332 -323 605 -654 643 l-61 7 0 126 0 127
40 18 c57 25 84 67 88 141 3 50 0 66 -20 94 -43 64 -122 92 -191 67z m3 -795
l0 -139 -37 -7 c-139 -26 -272 -159 -298 -297 l-7 -38 -140 0 -140 0 7 43 c26
153 88 272 199 382 92 91 183 143 306 175 120 30 110 41 110 -119z m248 108
c104 -32 189 -84 273 -168 106 -106 169 -229 194 -378 l7 -43 -140 0 -140 0
-7 38 c-27 143 -167 279 -310 299 l-45 6 0 140 0 140 50 -7 c28 -4 81 -16 118
-27z m-248 -403 c0 -74 0 -74 -34 -96 -19 -11 -45 -37 -56 -56 -22 -34 -22
-34 -96 -34 -53 0 -74 4 -74 13 0 24 48 114 79 150 31 34 139 97 168 97 10 0
13 -19 13 -74z m188 44 c70 -35 114 -82 148 -154 35 -75 35 -76 -50 -76 l-73
0 -26 39 c-15 22 -43 47 -66 57 l-40 19 -1 73 c0 69 1 72 23 72 13 0 51 -14
85 -30z m-525 -355 c20 -143 156 -283 300 -310 l37 -7 0 -140 0 -140 -42 7
c-150 25 -273 88 -379 194 -109 109 -175 242 -195 391 l-7 50 140 0 140 0 6
-45z m241 4 c10 -23 35 -51 57 -66 l39 -26 0 -73 c0 -53 -4 -74 -12 -74 -25 0
-115 48 -151 79 -39 35 -97 140 -97 178 0 22 3 23 73 23 l72 -1 19 -40z m456
19 c0 -33 -42 -119 -79 -161 -35 -39 -140 -97 -178 -97 -22 0 -23 3 -23 74 0
70 1 74 25 80 32 8 93 69 101 101 6 24 10 25 80 25 70 0 74 -1 74 -22z m356
-28 c-20 -149 -86 -282 -195 -391 -109 -109 -242 -175 -391 -195 l-50 -7 0
140 0 140 48 7 c145 19 288 164 309 311 l6 45 140 0 140 0 -7 -50z"/>
</g>
</svg>
