<?xml version="1.0" encoding="UTF-8" standalone="no"?>
<svg
   xmlns:dc="http://purl.org/dc/elements/1.1/"
   xmlns:cc="http://creativecommons.org/ns#"
   xmlns:rdf="http://www.w3.org/1999/02/22-rdf-syntax-ns#"
   xmlns:svg="http://www.w3.org/2000/svg"
   xmlns="http://www.w3.org/2000/svg"
   xmlns:sodipodi="http://sodipodi.sourceforge.net/DTD/sodipodi-0.dtd"
   xmlns:inkscape="http://www.inkscape.org/namespaces/inkscape"
   version="1.0"
   width="288.000000pt"
   height="290.000000pt"
   viewBox="0 0 288.000000 290.000000"
   preserveAspectRatio="xMidYMid meet"
   id="svg2812"
   sodipodi:docname="followerofset.svg"
   inkscape:version="1.0.1 (3bc2e813f5, 2020-09-07)">
  <defs
     id="defs2816" />
  <sodipodi:namedview
     pagecolor="#ffffff"
     bordercolor="#666666"
     borderopacity="1"
     objecttolerance="10"
     gridtolerance="10"
     guidetolerance="10"
     inkscape:pageopacity="0"
     inkscape:pageshadow="2"
     inkscape:window-width="1600"
     inkscape:window-height="837"
     id="namedview2814"
     showgrid="false"
     inkscape:zoom="1.2252454"
     inkscape:cx="118.20484"
     inkscape:cy="201.58546"
     inkscape:window-x="-8"
     inkscape:window-y="-8"
     inkscape:window-maximized="1"
     inkscape:current-layer="svg2812" />
  <metadata
     id="metadata2806">
Created by potrace 1.16, written by Peter Selinger 2001-2019
<rdf:RDF>
  <cc:Work
     rdf:about="">
    <dc:format>image/svg+xml</dc:format>
    <dc:type
       rdf:resource="http://purl.org/dc/dcmitype/StillImage" />
  </cc:Work>
</rdf:RDF>
</metadata>
  <path
     id="path3396"
     style="fill:#ffffff;stroke-width:0.816163"
     transform="scale(0.75000001)"
     d="m 261.50522,151.56199 c -12.52795,0.99811 -20.637,13.74466 -19.62777,25.62944 -0.66874,11.39904 5.01632,25.02254 17.53523,26.73718 10.4689,1.62269 21.38243,-5.00132 26.81814,-13.84595 8.28063,-14.65028 -2.86595,-34.9965 -18.71101,-38.26084 -1.97774,-0.4212 -4.00793,-0.41621 -6.01459,-0.25983 z M 193.52139,6.2929426 c -11.06406,1.1496905 -22.66675,1.1939739 -33.04504,5.5664864 -15.70674,8.457987 -18.98105,29.844628 -12.42736,45.233288 4.89935,12.300767 10.14121,24.459031 14.1107,37.101943 4.05815,11.23786 9.68681,22.26371 13.46669,33.36066 -9.32203,9.70006 -23.43739,9.82663 -35.69581,12.65035 -13.50653,3.14645 -29.62861,3.7601 -38.77589,15.7687 -24.289689,33.65496 -37.912622,73.40976 -51.514846,112.23381 -8.721186,26.13502 -18.055487,52.08372 -26.46379,78.31158 -3.962922,12.41602 5.460082,26.70427 18.620314,27.29523 8.02711,0.57124 16.576015,1.05626 24.108498,-1.50464 10.19999,2.80513 18.934554,-4.65681 24.908907,-12.05674 13.357277,-14.12915 26.625507,-28.35608 39.356157,-43.05515 6.64016,-0.34305 12.57077,-3.84897 18.42902,-6.6393 7.20491,4.42958 15.90929,7.86448 24.45142,5.74503 15.96523,25.59392 41.93489,43.85254 69.72137,54.71481 11.99455,3.79889 25.55329,9.41958 37.90694,3.98357 14.06937,-6.46736 19.82777,-27.21977 8.50914,-38.806 -11.04104,-10.71982 -26.61123,-14.60748 -39.31292,-22.91793 -5.53398,-3.2792 -10.76281,-7.42843 -14.00229,-13.09208 12.18164,0.17039 23.7282,-5.69319 31.25759,-15.18326 9.6232,-10.69092 15.02883,-24.57846 23.18623,-36.06923 12.63484,3.86314 20.44079,17.24865 34.27884,18.2234 10.89551,0.42033 22.82888,2.27213 32.85535,-3.08294 9.57658,-5.44764 15.84782,-17.60974 10.83432,-28.18426 -9.57305,-19.30003 -20.20533,-38.36346 -33.77457,-55.17595 -14.10213,-15.37061 -29.29448,-29.79756 -45.13126,-43.36344 -5.0449,-4.04889 -11.08956,-6.83186 -16.86365,-9.42095 16.80089,-20.60628 27.10211,-46.172886 29.32392,-72.664646 2.81421,-12.282697 -6.40125,-24.402026 -18.36151,-26.87377 -13.47227,-2.94434 -28.64489,-4.150613 -41.35492,2.203002 -5.80373,3.076542 -10.4254,7.832768 -15.18031,12.264763 -2.40346,-13.585034 -7.50086,-29.532914 -21.79559,-34.6722211 -3.67751,-1.487689 -7.6783,-2.0041178 -11.62565,-1.8941153 z M 265.25128,171.60103 c 3.13905,3.15863 6.88443,8.03964 2.93604,12.12472 -2.21874,5.32201 -5.59787,3.67968 -6.24851,-1.4875 -0.83257,-3.49224 -1.09745,-10.82659 1.61919,-11.93168 0.56442,0.43149 1.12886,0.86297 1.69328,1.29446 z" />
  <g
     transform="translate(0.000000,290.000000) scale(0.100000,-0.100000)"
     fill="#000000"
     stroke="none"
     id="g2810">
    <path
       d="M1400 2700 c-14 -4 -49 -8 -78 -9 -48 -1 -54 -4 -73 -33 -30 -49 -21 -109 35 -224 25 -53 49 -115 52 -137 4 -23 33 -98 64 -167 76 -163 111 -280 77 -251 -11 8 -21 2 -46 -29 -34 -42 -98 -84 -163 -107 -22 -7 -105 -25 -185 -38 -79 -14 -159 -31 -176 -39 -25 -10 -47 -38 -94 -118 -117 -197 -194 -381 -336 -808 -52 -157 -111 -329 -131 -384 -20 -54 -36 -102 -36 -107 0 -5 27 -9 59 -9 l59 0 30 79 c17 43 54 155 82 247 68 224 134 390 138 350 5 -41 -23 -159 -79 -331 -53 -166 -79 -265 -79 -310 l0 -29 41 39 c46 45 297 318 316 343 8 11 15 116 22 310 11 288 27 443 57 532 14 43 14 40 9 -85 -2 -71 -9 -213 -15 -315 -10 -171 -3 -391 13 -406 3 -3 34 10 70 30 l64 36 -8 45 c-27 143 -33 643 -9 709 4 11 10 -52 14 -140 7 -161 31 -491 42 -574 5 -40 11 -48 51 -72 45 -29 77 -35 88 -19 3 5 -1 67 -10 138 -8 70 -15 160 -14 198 l1 70 28 -105 c34 -127 70 -229 120 -335 83 -182 343 -372 570 -419 57 -12 67 -12 83 2 10 9 17 26 15 40 -3 20 -21 32 -109 71 -129 58 -237 128 -283 184 -47 59 -94 156 -116 242 -23 89 -38 289 -22 299 11 6 17 -24 27 -129 3 -33 8 -79 11 -102 l5 -43 97 0 c53 0 114 5 135 11 57 15 105 71 170 195 32 62 75 131 94 154 36 42 37 42 89 37 66 -7 147 -47 212 -103 50 -44 50 -44 136 -47 68 -1 89 1 101 14 15 15 15 20 -10 69 -46 90 -142 248 -188 308 -39 49 -114 125 -198 198 -13 11 -41 39 -61 62 -21 23 -61 57 -90 77 -53 35 -188 85 -233 85 -58 0 -57 10 11 84 170 182 247 337 268 539 l6 58 -35 14 c-36 16 -104 19 -166 9 -24 -4 -53 -21 -82 -48 -45 -41 -45 -42 -46 -106 -1 -120 -21 -290 -41 -343 -21 -57 -74 -127 -95 -127 -9 0 -16 31 -25 103 -56 480 -81 615 -118 652 -26 26 -63 31 -112 15z m667 -1098 c54 -26 55 -41 3 -42 -14 0 -45 -14 -69 -30 -33 -22 -54 -30 -85 -29 -34 2 -36 3 -11 6 39 6 55 20 55 48 0 31 -24 49 -56 41 -35 -9 -22 12 20 30 37 16 73 10 143 -24z"
       id="path2808" />
  </g>
</svg>
