<?xml version="1.0" standalone="no"?>
<!DOCTYPE svg PUBLIC "-//W3C//DTD SVG 20010904//EN"
 "http://www.w3.org/TR/2001/REC-SVG-20010904/DTD/svg10.dtd">
<svg version="1.0" xmlns="http://www.w3.org/2000/svg"
 width="288.000000pt" height="290.000000pt" viewBox="0 0 288.000000 290.000000"
 preserveAspectRatio="xMidYMid meet">
<metadata>
Created by potrace 1.16, written by Peter Selinger 2001-2019
</metadata>
<g transform="translate(0.000000,290.000000) scale(0.100000,-0.100000)"
fill="#000000" stroke="none">
<path d="M1400 2700 c-14 -4 -49 -8 -78 -9 -48 -1 -54 -4 -73 -33 -30 -49 -21
-109 35 -224 25 -53 49 -115 52 -137 4 -23 33 -98 64 -167 76 -163 111 -280
77 -251 -11 8 -21 2 -46 -29 -34 -42 -98 -84 -163 -107 -22 -7 -105 -25 -185
-38 -79 -14 -159 -31 -176 -39 -25 -10 -47 -38 -94 -118 -117 -197 -194 -381
-336 -808 -52 -157 -111 -329 -131 -384 -20 -54 -36 -102 -36 -107 0 -5 27 -9
59 -9 l59 0 30 79 c17 43 54 155 82 247 68 224 134 390 138 350 5 -41 -23
-159 -79 -331 -53 -166 -79 -265 -79 -310 l0 -29 41 39 c46 45 297 318 316
343 8 11 15 116 22 310 11 288 27 443 57 532 14 43 14 40 9 -85 -2 -71 -9
-213 -15 -315 -10 -171 -3 -391 13 -406 3 -3 34 10 70 30 l64 36 -8 45 c-27
143 -33 643 -9 709 4 11 10 -52 14 -140 7 -161 31 -491 42 -574 5 -40 11 -48
51 -72 45 -29 77 -35 88 -19 3 5 -1 67 -10 138 -8 70 -15 160 -14 198 l1 70
28 -105 c34 -127 70 -229 120 -335 83 -182 343 -372 570 -419 57 -12 67 -12
83 2 10 9 17 26 15 40 -3 20 -21 32 -109 71 -129 58 -237 128 -283 184 -47 59
-94 156 -116 242 -23 89 -38 289 -22 299 11 6 17 -24 27 -129 3 -33 8 -79 11
-102 l5 -43 97 0 c53 0 114 5 135 11 57 15 105 71 170 195 32 62 75 131 94
154 36 42 37 42 89 37 66 -7 147 -47 212 -103 50 -44 50 -44 136 -47 68 -1 89
1 101 14 15 15 15 20 -10 69 -46 90 -142 248 -188 308 -39 49 -114 125 -198
198 -13 11 -41 39 -61 62 -21 23 -61 57 -90 77 -53 35 -188 85 -233 85 -58 0
-57 10 11 84 170 182 247 337 268 539 l6 58 -35 14 c-36 16 -104 19 -166 9
-24 -4 -53 -21 -82 -48 -45 -41 -45 -42 -46 -106 -1 -120 -21 -290 -41 -343
-21 -57 -74 -127 -95 -127 -9 0 -16 31 -25 103 -56 480 -81 615 -118 652 -26
26 -63 31 -112 15z m667 -1098 c54 -26 55 -41 3 -42 -14 0 -45 -14 -69 -30
-33 -22 -54 -30 -85 -29 -34 2 -36 3 -11 6 39 6 55 20 55 48 0 31 -24 49 -56
41 -35 -9 -22 12 20 30 37 16 73 10 143 -24z"/>
</g>
</svg>
