<?xml version="1.0" standalone="no"?>
<!DOCTYPE svg PUBLIC "-//W3C//DTD SVG 20010904//EN"
 "http://www.w3.org/TR/2001/REC-SVG-20010904/DTD/svg10.dtd">
<svg version="1.0" xmlns="http://www.w3.org/2000/svg"
 width="288.000000pt" height="254.000000pt" viewBox="0 0 288.000000 254.000000"
 preserveAspectRatio="xMidYMid meet">
<metadata>
Created by potrace 1.16, written by Peter Selinger 2001-2019
</metadata>
<g transform="translate(0.000000,254.000000) scale(0.100000,-0.100000)"
fill="#000000" stroke="none">
<path d="M1220 2355 c41 -24 86 -53 100 -64 l25 -20 -36 5 c-52 9 -60 -18 -14
-46 35 -22 41 -41 16 -51 -9 -3 -3 -10 19 -19 32 -13 32 -14 26 -68 -8 -69
-10 -72 -50 -72 -19 0 -53 -7 -76 -15 -59 -21 -75 -19 -125 15 -23 16 -87 47
-141 69 -264 105 -288 117 -299 150 -10 34 -25 41 -26 14 0 -10 -6 0 -14 22
l-13 40 -1 -37 c-1 -37 -21 -52 -36 -28 -3 6 -11 10 -17 10 -7 0 0 -13 15 -28
30 -31 39 -64 12 -42 -20 17 -19 1 1 -21 11 -12 17 -41 19 -86 3 -64 69 -324
95 -373 9 -16 3 -31 -27 -77 -20 -32 -46 -68 -57 -80 -29 -34 0 -29 48 7 22
17 46 30 55 30 19 0 -51 -73 -182 -188 -54 -48 -94 -88 -88 -90 5 -2 40 15 78
38 l68 41 -50 -50 c-61 -63 -40 -66 39 -6 33 25 65 45 72 45 6 0 19 12 29 26
9 14 23 23 30 20 7 -2 19 2 26 10 6 8 14 12 17 10 8 -9 -190 -247 -283 -340
-49 -49 -89 -93 -88 -97 2 -4 -18 -25 -42 -45 -25 -20 -43 -39 -41 -42 3 -2
31 16 63 41 31 25 60 44 63 41 3 -3 -19 -28 -48 -55 -29 -27 -49 -49 -43 -49
5 0 12 3 15 8 2 4 25 22 50 40 44 32 54 24 22 -17 -9 -11 -7 -13 12 -7 29 9
28 -7 0 -29 -28 -20 -36 -25 206 119 94 56 209 124 256 150 47 27 154 96 238
153 83 57 152 102 152 99 0 -7 -310 -265 -370 -307 -30 -21 -75 -53 -99 -71
-24 -17 -121 -71 -215 -120 -94 -49 -175 -93 -179 -97 -5 -5 11 -5 35 -1 24 5
44 7 46 5 1 -1 -27 -15 -63 -30 -68 -29 -99 -52 -45 -33 50 17 46 2 -4 -17
-25 -10 -43 -21 -41 -25 3 -5 -26 -21 -65 -36 -39 -15 -69 -29 -67 -31 5 -4
158 46 262 86 80 31 113 39 85 21 -13 -9 -13 -10 0 -11 8 0 -7 -11 -35 -24
l-50 -24 45 6 c25 3 53 10 62 14 9 5 25 9 35 8 11 0 3 -8 -21 -19 -21 -10 -33
-19 -26 -22 6 -2 -8 -13 -32 -24 -23 -11 -54 -26 -68 -33 -58 -27 60 2 220 55
190 62 329 122 436 189 41 26 77 45 79 43 3 -2 -5 -22 -15 -44 -53 -107 -61
-267 -19 -380 24 -64 127 -181 193 -219 65 -36 304 -110 391 -119 28 -3 70 -8
95 -11 52 -6 46 -2 -32 20 -32 8 -58 19 -58 24 0 17 75 20 115 6 54 -19 76
-18 48 2 -32 22 -28 36 5 19 28 -14 107 -34 172 -42 l35 -4 -42 19 c-24 11
-60 32 -80 46 l-38 26 43 -7 c28 -4 42 -3 42 5 0 6 -7 11 -15 11 -27 0 -88 38
-145 90 -47 43 -50 48 -22 34 18 -9 35 -14 38 -11 3 2 -29 35 -70 71 -71 64
-116 130 -116 169 0 30 41 4 84 -53 23 -30 55 -62 72 -72 31 -18 31 -18 29 4
-2 13 -19 47 -39 77 -36 53 -53 97 -43 107 10 11 75 -17 138 -57 50 -33 68
-39 88 -33 14 4 78 8 142 8 131 1 138 4 163 71 14 35 15 48 6 66 -8 14 -10 44
-5 88 5 48 3 71 -7 84 -13 17 -16 13 -37 -40 -13 -32 -28 -64 -34 -70 -15 -20
-68 -24 -122 -11 l-50 13 -5 68 -5 69 -33 -46 c-17 -26 -39 -49 -49 -53 -16
-6 -57 33 -130 124 -20 26 -60 55 -112 82 -45 23 -81 44 -81 47 0 8 97 145
125 177 28 32 38 33 102 11 26 -9 73 -22 103 -28 l55 -11 7 -45 c4 -24 3 -60
-2 -79 -5 -19 -8 -36 -7 -38 8 -8 79 63 105 105 l29 48 74 -4 c41 -2 75 -5 76
-6 6 -5 5 -105 -2 -121 -13 -32 63 44 91 91 19 33 32 43 59 48 21 4 42 17 51
31 26 39 64 157 64 199 0 27 8 50 26 74 29 37 64 121 64 151 0 25 -25 33 -69
21 -56 -15 -167 -13 -266 4 -49 9 -125 17 -168 18 l-78 3 2 35 c5 71 -1 76
-141 120 -111 35 -139 48 -211 102 -46 33 -120 96 -164 138 -44 42 -105 95
-135 117 -65 48 -198 118 -207 110 -3 -4 2 -9 11 -13 9 -3 16 -12 16 -20 0
-10 -24 -2 -80 26 -105 53 -113 51 -20 -5z m576 -620 l37 -28 -59 -17 c-32 -9
-69 -22 -82 -29 -20 -11 -27 -9 -55 12 -18 13 -48 32 -67 42 l-35 19 55 18
c80 26 158 20 206 -17z m607 -560 c-3 -9 -8 -14 -10 -11 -3 3 -2 9 2 15 9 16
15 13 8 -4z"/>
</g>
</svg>
