<?xml version="1.0" standalone="no"?>
<!DOCTYPE svg PUBLIC "-//W3C//DTD SVG 20010904//EN"
 "http://www.w3.org/TR/2001/REC-SVG-20010904/DTD/svg10.dtd">
<svg version="1.0" xmlns="http://www.w3.org/2000/svg"
 width="293.000000pt" height="290.000000pt" viewBox="0 0 293.000000 290.000000"
 preserveAspectRatio="xMidYMid meet">
<metadata>
Created by potrace 1.16, written by Peter Selinger 2001-2019
</metadata>
<g transform="translate(0.000000,290.000000) scale(0.100000,-0.100000)"
fill="#000000" stroke="none">
<path d="M1435 2600 c-16 -50 -33 -90 -37 -90 -5 0 -23 8 -41 17 -39 20 -107
34 -107 21 0 -4 -19 1 -41 13 -34 17 -43 18 -50 7 -5 -7 -9 -16 -9 -19 0 -3
-30 5 -67 17 -63 22 -69 22 -80 7 -22 -29 -14 -42 30 -53 23 -6 50 -15 60 -21
15 -8 23 -6 38 7 19 17 22 17 74 -12 51 -27 68 -44 45 -44 -5 0 -9 -3 -9 -7 5
-29 -5 -40 -47 -51 -40 -11 -49 -10 -64 3 -23 21 -83 19 -103 -3 -10 -10 -17
-30 -17 -45 0 -38 -42 -65 -79 -50 -148 62 -202 90 -208 108 -9 29 -74 106
-84 100 -4 -3 -11 -20 -14 -38 -5 -27 -11 -32 -36 -33 -39 -2 -46 -10 -26 -32
10 -10 14 -21 11 -25 -4 -3 5 -25 18 -49 19 -32 27 -63 31 -123 3 -44 14 -105
25 -136 l20 -56 -29 -46 c-24 -39 -34 -47 -59 -47 -62 0 -94 -79 -50 -125 17
-18 19 -26 10 -52 -6 -16 -16 -63 -23 -104 l-12 -74 -150 -51 -149 -51 149
-50 c180 -60 184 -65 98 -139 -32 -28 -69 -58 -83 -67 -13 -9 -19 -17 -11 -17
8 0 3 -12 -14 -31 -23 -29 -24 -33 -10 -49 8 -9 15 -27 15 -39 l0 -23 38 23
c31 20 35 20 22 4 -13 -17 -13 -18 1 -13 9 4 21 2 27 -4 17 -17 1 -47 -38 -71
-36 -21 -40 -26 -40 -46 0 -5 -25 -19 -55 -31 -50 -20 -54 -24 -49 -49 5 -24
2 -29 -28 -37 -25 -7 -34 -16 -36 -36 -2 -15 3 -28 12 -31 36 -14 236 49 236
75 0 5 -5 18 -10 29 -9 16 -7 21 17 30 15 6 37 13 48 14 27 4 134 54 117 54
-7 1 -11 5 -8 10 3 5 -36 -7 -87 -26 -124 -46 -239 -84 -244 -80 -2 3 22 16
54 31 70 32 147 80 116 71 -44 -12 -22 6 40 35 55 26 58 28 25 23 -21 -3 -38
-3 -38 0 0 8 73 49 206 116 138 69 265 157 454 314 190 158 190 159 35 54 -77
-52 -194 -126 -260 -164 -315 -183 -372 -217 -403 -240 -18 -14 -36 -23 -39
-20 -3 3 4 12 16 19 28 17 27 28 -2 21 -18 -5 -20 -3 -9 8 6 7 12 19 12 27 0
9 -13 4 -38 -15 -63 -50 -69 -48 -17 6 27 28 44 51 38 51 -6 0 -16 -7 -24 -16
-7 -9 -33 -29 -58 -46 l-46 -31 44 46 c24 24 44 48 45 52 0 4 34 40 74 79 40
39 99 102 130 140 31 38 76 92 100 120 44 52 78 104 51 79 -7 -7 -21 -13 -30
-13 -9 0 -24 -11 -33 -25 -9 -14 -22 -25 -29 -25 -7 0 -41 -21 -76 -46 -34
-26 -65 -44 -68 -40 -4 4 15 30 43 58 29 31 36 41 17 25 -18 -14 -43 -29 -55
-32 -13 -4 -31 -14 -41 -23 -9 -8 -20 -13 -23 -10 -3 3 43 50 103 103 101 91
182 175 168 175 -3 0 -29 -16 -57 -35 -29 -19 -54 -33 -56 -31 -2 3 20 39 48
81 46 69 51 79 41 103 -34 87 -83 277 -88 342 -3 41 -12 86 -20 99 -14 22 -14
24 1 18 25 -10 19 11 -10 38 -18 16 -22 25 -12 25 7 0 19 -5 26 -12 9 -9 12
-7 12 13 0 13 4 30 9 38 7 11 11 4 17 -25 7 -36 8 -37 14 -14 7 26 9 24 25
-26 3 -8 26 -24 52 -36 27 -11 72 -31 101 -44 29 -14 94 -41 145 -60 51 -19
109 -49 131 -66 l39 -31 67 21 c36 12 78 22 92 22 20 0 26 5 26 23 1 12 4 36
7 54 6 28 4 33 -26 49 -29 14 -31 18 -16 23 25 9 20 22 -19 49 -50 34 -27 70
27 42 10 -6 19 -9 19 -6 0 7 -87 66 -145 98 -73 40 -37 34 46 -8 69 -34 103
-39 63 -9 -34 26 5 16 75 -19 72 -37 193 -129 251 -191 38 -42 199 -165 245
-188 17 -8 76 -29 132 -46 113 -35 126 -46 116 -105 l-6 -36 53 0 c29 0 100
-8 159 -17 114 -18 168 -20 280 -9 71 7 71 7 71 -17 0 -35 -25 -100 -54 -144
-15 -21 -26 -50 -26 -66 0 -34 -44 -168 -66 -202 -9 -14 -30 -27 -48 -30 -23
-5 -39 -18 -58 -48 -32 -50 -105 -122 -93 -92 4 11 8 43 8 70 l0 50 -47 1
c-25 1 -57 5 -70 8 -20 5 -29 -1 -56 -44 -32 -50 -83 -100 -101 -100 -6 0 -6
6 0 18 9 16 6 116 -4 132 -2 4 -23 10 -45 14 -22 3 -70 16 -105 28 -63 20 -66
20 -85 3 -25 -23 -135 -183 -129 -188 2 -2 41 -23 87 -47 66 -34 89 -52 114
-89 17 -25 44 -60 61 -78 36 -38 53 -33 93 27 15 22 30 40 33 40 3 0 6 -27 6
-60 0 -69 5 -75 75 -84 73 -10 94 3 121 73 13 34 28 60 34 58 5 -2 12 -44 15
-93 3 -49 8 -93 10 -99 8 -19 -22 -85 -48 -105 -21 -17 -34 -19 -70 -14 -69
10 -135 8 -175 -7 -35 -12 -39 -11 -79 18 -47 33 -91 57 -125 67 -35 11 -30
-29 13 -94 20 -30 38 -67 40 -83 l3 -28 -30 22 c-17 12 -49 44 -71 73 -22 28
-49 54 -60 59 -19 7 -20 4 -14 -24 8 -41 47 -92 124 -163 56 -51 61 -58 36
-52 -27 6 -25 3 21 -38 45 -41 63 -52 118 -70 30 -10 9 -26 -26 -20 -32 6 -32
6 -10 -10 13 -10 44 -26 69 -37 57 -26 47 -49 -11 -25 -21 9 -48 16 -62 16
-13 0 -40 7 -60 15 -20 8 -39 13 -42 10 -3 -3 5 -8 17 -12 24 -6 30 -23 8 -23
-7 0 -31 6 -52 14 -38 13 -100 11 -109 -4 -3 -4 24 -16 60 -25 36 -10 63 -20
61 -23 -8 -7 -162 17 -246 38 -118 31 -237 75 -280 105 -62 43 -129 121 -158
183 -47 103 -42 262 13 380 13 29 19 50 12 46 -6 -4 -32 -21 -56 -37 -109 -74
-498 -228 -636 -252 -48 -8 -37 7 18 25 20 6 42 20 47 30 5 10 26 24 46 30 47
16 35 27 -13 12 -21 -7 -58 -17 -81 -22 -29 -8 -42 -16 -39 -24 3 -8 -5 -18
-19 -25 -18 -8 -24 -18 -22 -34 3 -19 8 -22 38 -19 31 2 140 31 185 49 11 4
-9 -45 -54 -136 -39 -77 -71 -143 -71 -146 0 -3 66 28 146 68 l147 74 73 -51
c61 -41 74 -55 74 -76 0 -47 60 -81 102 -59 13 7 26 16 29 20 8 13 167 -30
204 -54 28 -18 38 -39 77 -156 l45 -136 33 103 c19 56 39 102 45 102 5 0 33
-7 60 -16 57 -18 282 -53 290 -46 3 3 5 13 5 23 0 11 8 17 23 16 12 0 29 3 38
7 13 6 15 1 11 -23 -4 -27 -1 -30 29 -36 19 -3 55 -9 81 -14 40 -7 50 -5 64
11 16 17 16 19 0 31 -16 12 -16 14 3 31 24 22 27 36 9 36 -7 0 -29 5 -49 10
-32 9 -35 13 -31 39 3 25 0 30 -30 40 -18 6 -48 20 -67 32 -26 16 -31 23 -21
29 12 7 11 13 -5 30 -21 23 -22 21 57 73 l56 38 142 -71 c78 -39 144 -69 147
-66 3 2 -18 48 -47 101 -29 53 -50 97 -49 99 2 1 20 7 39 12 28 7 41 20 62 59
28 53 35 90 18 100 -15 9 -11 67 5 89 19 25 19 76 2 101 -12 15 -11 30 5 94
29 114 47 130 203 181 l130 43 -55 19 c-30 10 -60 20 -66 22 -8 3 -6 21 7 58
10 29 18 68 19 87 0 20 10 47 24 66 31 40 69 150 61 176 -10 31 -42 42 -89 31
-62 -16 -142 -17 -236 -2 l-85 13 -47 69 -48 69 65 129 c36 72 65 132 65 135
0 3 -59 -24 -130 -60 l-131 -66 -84 57 c-64 42 -85 61 -85 78 0 60 -71 94
-120 57 -24 -17 -33 -19 -59 -10 -17 6 -63 16 -103 23 l-72 12 -43 128 c-23
71 -44 130 -46 132 -2 2 -16 -37 -32 -86z m-335 -67 c14 -8 17 -12 8 -9 -9 3
-35 10 -57 16 -23 6 -41 13 -41 16 0 9 63 -7 90 -23z m-680 -1689 c0 -12 -109
-53 -160 -60 -75 -9 -57 5 48 38 90 28 112 32 112 22z m1692 -492 c10 -10 1
-11 -37 -5 -85 11 -107 23 -37 20 34 -2 68 -9 74 -15z"/>
<path d="M1685 1974 c-11 -3 -39 -10 -63 -16 l-43 -11 33 -19 c18 -11 43 -29
55 -40 l22 -21 50 22 c27 11 59 21 71 21 49 0 -13 56 -70 64 -19 2 -44 2 -55
0z"/>
</g>
</svg>
