<?xml version="1.0" standalone="no"?>
<!DOCTYPE svg PUBLIC "-//W3C//DTD SVG 20010904//EN"
 "http://www.w3.org/TR/2001/REC-SVG-20010904/DTD/svg10.dtd">
<svg version="1.0" xmlns="http://www.w3.org/2000/svg"
 width="549.000000pt" height="541.000000pt" viewBox="0 0 549.000000 541.000000"
 preserveAspectRatio="xMidYMid meet">
<metadata>
Created by potrace 1.16, written by Peter Selinger 2001-2019
</metadata>
<g transform="translate(0.000000,541.000000) scale(0.100000,-0.100000)"
fill="#000000" stroke="none">
<path d="M3200 5239 c0 -3 89 -94 198 -201 109 -107 202 -200 206 -207 5 -8
-6 -6 -31 5 -89 39 -177 70 -300 108 -72 22 -278 62 -393 76 -144 18 -441 8
-575 -18 -331 -64 -437 -95 -670 -196 -182 -79 -444 -238 -569 -346 -126 -108
-215 -191 -274 -258 -77 -84 -172 -202 -172 -211 0 -3 66 -6 146 -6 120 0 148
-3 155 -15 20 -36 49 -110 49 -124 0 -9 5 -16 10 -16 6 0 10 4 10 9 0 5 6 16
14 23 7 8 22 34 33 59 25 55 49 60 69 13 18 -42 37 -36 53 17 l12 39 53 0 53
0 13 -57 c21 -95 40 -153 50 -153 6 0 10 13 10 29 0 42 37 121 55 115 10 -4
16 5 21 30 l6 36 59 0 c57 0 59 -1 72 -32 8 -18 24 -42 37 -53 l22 -20 19 25
c54 69 65 80 79 80 8 0 20 -10 25 -22 15 -32 31 -33 60 -4 23 23 34 26 93 26
40 0 73 -5 80 -12 9 -9 12 -9 12 0 0 8 24 12 79 12 l79 0 22 -44 c34 -72 43
-73 70 -11 14 31 31 55 40 56 8 0 71 1 139 1 130 0 141 -3 141 -48 0 -11 6
-28 13 -38 13 -17 15 -16 40 14 15 17 27 40 27 51 0 14 7 19 25 19 29 0 45
-30 45 -85 0 -40 17 -88 28 -81 5 3 14 24 21 48 7 24 17 52 21 63 5 11 11 28
14 38 11 34 90 26 127 -14 37 -40 66 -38 85 6 l14 35 270 0 269 0 15 -28 c8
-15 23 -36 35 -46 20 -18 21 -18 31 10 25 70 45 80 55 27 4 -21 9 -41 12 -46
6 -10 38 31 47 61 7 22 10 23 144 20 l137 -3 8 -40 c5 -22 8 -52 8 -66 0 -35
-48 -171 -64 -181 -15 -10 -79 -10 -92 0 -6 4 -16 19 -24 35 -19 35 -26 34
-53 -8 l-23 -35 -141 0 -141 0 -18 48 c-10 26 -22 51 -26 57 -5 5 -9 17 -9 26
0 30 -19 31 -32 2 -54 -131 -56 -133 -101 -134 -23 0 -168 0 -322 0 l-280 1
-28 31 -27 32 -11 -31 c-13 -37 -32 -41 -184 -39 l-109 2 -26 74 c-15 41 -31
76 -36 78 -12 4 -59 -65 -68 -99 -9 -39 -41 -54 -72 -33 -23 15 -26 15 -51 -5
-21 -16 -40 -20 -106 -20 -80 0 -82 1 -119 37 l-37 36 -36 -36 -37 -37 -99 0
c-79 0 -99 3 -99 14 0 17 -42 85 -52 86 -4 0 -15 -22 -25 -49 -20 -57 -29 -61
-154 -61 l-79 0 -17 35 c-20 42 -30 44 -39 8 -10 -41 -13 -43 -38 -32 -15 7
-28 27 -37 57 -17 55 -33 63 -49 25 -40 -97 -36 -93 -121 -93 -43 0 -81 -4
-84 -10 -5 -9 20 -68 34 -80 7 -6 28 -41 49 -82 11 -24 11 -31 -2 -50 -26 -37
-21 -50 21 -46 42 3 25 24 156 -187 86 -138 90 -147 85 -195 -4 -41 -3 -42 25
-36 36 7 47 -17 20 -47 -33 -36 -43 -63 -37 -97 6 -25 2 -36 -21 -60 -15 -15
-25 -35 -23 -44 2 -14 12 -11 53 18 28 19 60 37 71 40 18 6 21 3 16 -19 -5
-29 -4 -30 36 -9 18 8 36 13 41 9 6 -3 34 -45 63 -94 l52 -89 51 4 c78 5 99
-3 123 -44 21 -38 59 -79 65 -71 2 2 8 27 13 54 l9 50 48 3 c33 2 47 -1 47
-10 1 -7 16 -20 35 -29 38 -18 65 -9 65 21 0 19 8 20 118 20 l118 0 17 -29
c13 -23 15 -44 10 -112 -3 -46 -11 -91 -18 -99 -8 -8 -16 -32 -20 -53 -6 -29
-13 -39 -33 -44 -36 -9 -54 7 -77 66 -11 28 -24 50 -30 48 -5 -2 -23 -26 -40
-55 -36 -62 -50 -66 -189 -58 -54 2 -96 2 -94 -2 2 -4 10 -20 18 -35 13 -27
12 -29 -31 -74 -36 -37 -40 -45 -22 -40 13 3 26 1 29 -4 3 -6 25 -7 48 -4 l42
7 76 -119 c42 -65 84 -134 94 -153 11 -19 36 -60 55 -90 34 -51 36 -59 31
-114 -5 -63 -4 -64 48 -42 11 4 23 -9 43 -44 28 -49 28 -52 12 -77 -22 -33 -6
-54 26 -35 18 11 23 11 35 -5 7 -10 14 -21 14 -24 0 -3 -20 -32 -45 -63 -25
-32 -45 -62 -45 -67 0 -12 87 -11 128 0 31 9 34 8 62 -31 17 -23 30 -49 30
-60 0 -10 -20 -54 -45 -97 -26 -43 -47 -89 -49 -102 -1 -13 -6 -32 -10 -41
-10 -21 -55 -37 -81 -28 -11 4 -28 3 -38 -2 -22 -11 -33 -4 -52 32 -12 23 -13
39 -5 80 10 53 6 75 -11 64 -5 -3 -25 8 -45 25 -19 17 -40 31 -47 31 -7 0 -25
19 -40 42 -23 35 -27 50 -21 81 7 45 -15 77 -52 77 -16 0 -32 12 -49 38 -24
36 -25 44 -19 123 8 106 9 102 -23 112 -16 5 -37 12 -48 16 -11 5 -33 12 -49
17 -17 5 -38 23 -49 41 -18 31 -18 35 -2 78 10 24 24 50 31 56 25 20 17 46
-13 46 -47 0 -133 15 -139 24 -8 13 46 68 103 105 79 50 95 99 21 60 -16 -8
-49 -18 -75 -22 -27 -3 -61 -13 -76 -21 -33 -17 -40 -13 -57 27 -12 28 -10 35
19 82 17 28 30 53 27 55 -3 3 -20 0 -39 -6 -50 -17 -83 -5 -109 38 -12 20 -23
38 -26 41 -4 5 -167 9 -460 9 l-173 1 -22 50 c-12 27 -25 50 -29 50 -4 0 -23
-16 -42 -35 -20 -19 -40 -35 -46 -35 -5 0 -10 -7 -10 -15 0 -10 -10 -15 -29
-15 -22 0 -39 12 -75 52 -25 29 -46 56 -46 60 0 4 -5 8 -11 8 -6 0 -10 -12 -9
-28 2 -15 -1 -42 -5 -60 l-8 -33 -91 2 -91 1 2 -48 c5 -105 84 -400 139 -519
12 -27 37 -81 54 -120 42 -91 184 -332 247 -416 99 -134 276 -322 397 -424
399 -334 870 -537 1334 -575 216 -17 557 7 792 56 220 47 545 174 720 282 69
43 218 142 244 162 243 191 482 461 630 710 41 69 139 275 173 365 40 105 89
276 113 399 11 54 20 100 20 102 0 2 -26 4 -59 4 -57 0 -59 1 -64 30 -8 39
-33 39 -55 0 -19 -34 -14 -33 -192 -32 -197 1 -178 -4 -202 47 -12 25 -27 45
-33 45 -6 0 -15 -19 -21 -42 -5 -23 -13 -43 -19 -45 -16 -5 -52 58 -65 115 -7
32 -17 52 -26 52 -8 0 -14 -8 -14 -19 0 -10 -7 -24 -15 -31 -8 -7 -17 -28 -21
-49 -14 -74 -4 -71 -209 -71 -119 0 -186 4 -190 11 -8 12 -45 -17 -45 -35 0
-6 -21 -47 -46 -90 l-46 -79 -49 6 -48 6 10 -26 c5 -14 7 -28 4 -31 -3 -3 3
-14 12 -24 16 -17 15 -21 -5 -56 -19 -34 -25 -37 -71 -40 -34 -2 -59 2 -73 12
-31 22 -38 20 -38 -9 0 -26 -16 -31 -82 -26 -16 1 -28 -1 -28 -6 1 -4 30 -39
65 -78 36 -38 68 -78 71 -88 4 -12 -7 -38 -29 -70 -19 -29 -49 -77 -67 -107
-18 -30 -34 -56 -35 -58 -2 -2 -15 4 -30 14 -36 23 -45 9 -32 -53 9 -43 8 -55
-6 -77 -22 -33 -37 -33 -67 -1 -13 14 -29 25 -37 25 -19 0 -17 -75 3 -105 13
-20 14 -28 4 -40 -7 -8 -10 -21 -7 -29 5 -12 -14 -48 -112 -206 -8 -13 -16
-12 -60 2 -27 9 -52 13 -55 11 -3 -3 3 -18 13 -32 10 -14 23 -41 29 -60 11
-30 9 -37 -22 -85 -18 -28 -42 -66 -52 -83 -17 -31 -34 -43 -34 -25 -1 12 -63
76 -94 96 -40 25 -50 9 -25 -39 11 -22 31 -70 43 -107 l23 -67 -35 -59 -35
-59 -59 20 c-32 11 -61 17 -64 14 -4 -3 12 -27 35 -53 22 -26 41 -50 41 -54 0
-12 -100 -174 -121 -195 -19 -19 -19 -19 -34 0 -8 11 -42 64 -74 118 l-60 97
20 35 c12 19 18 35 15 35 -3 0 7 24 24 53 35 63 36 67 12 67 -10 0 -39 -20
-64 -45 -25 -25 -51 -45 -56 -45 -6 0 -20 17 -33 38 -12 20 -36 60 -54 87 -17
28 -45 73 -62 101 l-30 50 24 30 c13 16 32 38 41 49 10 11 33 39 51 63 18 23
38 42 44 42 7 0 29 16 50 35 21 19 44 35 52 35 8 0 30 -24 49 -54 19 -30 39
-57 44 -60 6 -3 27 21 48 55 l37 61 39 -43 c31 -34 41 -40 48 -29 7 12 13 11
33 -8 13 -12 27 -22 31 -22 4 0 5 46 1 102 l-6 103 30 32 c17 18 31 36 31 40
0 4 -14 21 -31 37 -34 32 -33 34 15 110 26 41 42 55 67 61 19 4 37 7 42 6 7
-1 10 28 7 95 -2 50 10 60 75 68 99 11 145 18 145 22 0 2 -20 35 -45 73 -25
38 -45 72 -45 75 0 5 119 206 129 218 10 11 81 -11 120 -38 65 -44 59 -16 -16
84 -18 24 -33 52 -33 62 0 9 16 44 35 76 19 32 35 60 35 63 0 3 -23 4 -50 3
-89 -7 -97 -2 -105 73 -3 36 -10 63 -13 61 -4 -2 -16 -22 -26 -43 -45 -87 -80
-102 -144 -58 -20 14 -48 25 -63 25 -28 0 -119 -28 -134 -41 -5 -5 -39 -9 -76
-9 -60 0 -70 3 -87 24 -27 35 -54 37 -62 6 -6 -25 -6 -25 -135 -28 -72 -1
-135 2 -142 6 -14 9 -43 114 -43 157 0 17 11 43 25 60 l24 30 1 -27 c0 -33 9
-58 21 -58 5 0 9 9 9 20 0 11 7 47 17 80 l16 60 41 0 c270 3 361 -1 392 -20
31 -20 31 -20 49 0 14 15 31 20 70 20 52 0 53 -1 95 -56 23 -30 47 -53 53 -51
6 2 25 23 42 48 l32 44 84 3 c70 2 86 0 96 -14 12 -17 14 -17 26 0 12 16 25
18 98 14 l85 -4 95 160 95 161 49 0 c59 0 66 13 27 51 l-29 29 55 90 c30 49
56 92 58 94 2 2 31 -11 65 -28 88 -44 116 -40 63 10 -14 13 -23 31 -21 41 3 9
-1 22 -9 29 -20 16 -17 28 5 22 10 -3 22 0 25 6 4 6 16 11 27 11 19 0 20 4 14
43 -4 23 -12 53 -19 67 -15 32 -10 50 14 50 24 0 40 29 40 73 0 41 28 70 67
69 27 -1 83 16 93 27 17 19 55 30 87 26 26 -3 51 2 81 17 24 11 64 23 89 26
40 4 116 -11 136 -28 5 -4 -4 -25 -18 -46 -14 -21 -33 -52 -41 -69 -31 -63
-47 -72 -136 -74 -17 -1 -28 -7 -28 -15 0 -12 19 -26 35 -25 3 0 13 -8 22 -17
15 -15 15 -18 0 -42 -14 -24 -22 -27 -63 -25 l-46 3 6 -30 6 -30 -50 0 -50 0
36 -65 36 -65 -21 -32 c-41 -65 -37 -62 -62 -44 -35 24 -38 21 -27 -30 7 -32
7 -54 -1 -70 -10 -23 -14 -24 -68 -18 -32 3 -79 9 -105 13 -53 9 -59 2 -25
-26 12 -11 42 -40 66 -66 l45 -46 -19 -35 c-18 -33 -21 -35 -61 -29 -39 5 -42
4 -48 -23 -6 -22 -3 -31 16 -46 l23 -17 -22 -40 c-13 -22 -23 -42 -23 -44 0
-2 25 -2 56 1 62 5 74 -3 74 -50 0 -15 5 -39 11 -55 10 -27 11 -27 21 -8 6 11
20 30 31 42 11 12 25 33 31 45 9 18 21 24 58 26 39 3 49 -1 66 -22 l20 -26 15
23 c14 22 19 22 138 20 l124 -4 47 -49 c26 -28 52 -50 57 -50 6 0 11 -7 11
-15 0 -27 27 -15 40 18 25 66 45 97 62 97 10 0 18 -6 18 -14 0 -8 5 -27 10
-42 l11 -27 27 25 c22 21 34 24 66 20 l39 -5 -6 179 c-3 99 -11 208 -17 244
-21 122 -42 225 -51 255 -5 17 -20 72 -35 123 -14 51 -41 132 -60 180 -18 47
-31 88 -29 90 3 3 97 -86 210 -196 112 -111 209 -202 215 -202 5 0 10 10 10
23 0 12 2 166 4 342 3 176 6 545 8 820 1 275 5 577 8 672 5 166 4 172 -15 177
-11 3 -236 3 -500 2 -264 -2 -588 0 -720 5 -328 11 -885 16 -885 8z m1080
-1319 c7 -44 16 -80 20 -80 16 0 38 38 49 85 7 27 17 55 23 62 14 17 508 19
508 2 0 -6 -13 -30 -30 -54 -16 -24 -35 -54 -40 -67 -22 -49 -89 -143 -99
-140 -7 1 -53 -9 -104 -23 -51 -14 -121 -32 -157 -41 -36 -9 -72 -20 -80 -24
-9 -4 -36 -11 -60 -15 -25 -4 -50 -11 -56 -16 -10 -8 -47 1 -72 17 -4 2 20 46
29 54 3 3 18 15 34 28 36 29 26 39 -25 22 -22 -7 -43 -10 -46 -7 -4 3 -10 32
-14 64 -3 32 -9 51 -13 43 -4 -8 -12 -28 -18 -45 l-12 -30 -7 32 c-4 18 -12
39 -18 45 -10 13 -5 57 18 131 l11 37 73 0 74 0 12 -80z"/>
<path d="M408 3638 c-83 -172 -140 -331 -197 -553 -35 -133 -69 -469 -49 -481
4 -3 8 0 8 5 0 6 21 11 50 11 l50 0 0 -37 c0 -21 3 -62 6 -91 6 -42 9 -50 20
-41 8 6 14 17 14 23 0 6 16 42 36 79 l36 68 51 -3 c49 -3 52 -5 57 -33 4 -23
11 -31 30 -33 21 -2 29 4 43 33 l17 36 91 -3 92 -3 26 -52 c30 -59 87 -133
101 -133 6 0 10 14 10 32 0 17 13 55 29 84 17 28 27 55 24 58 -4 3 1 6 11 6 9
0 20 -10 25 -22 10 -26 48 -64 56 -56 3 3 1 17 -5 32 -15 41 -13 46 25 46 19
0 35 2 35 5 0 3 -29 53 -65 110 -36 58 -65 108 -65 111 0 3 9 17 20 31 11 14
20 34 20 44 0 16 -2 16 -30 2 -40 -19 -52 -14 -84 41 -24 41 -25 49 -16 93 12
54 46 130 69 153 24 25 -13 25 -60 1 -87 -45 -128 -27 -203 91 -37 58 -44 82
-26 93 6 3 10 20 10 37 0 20 9 39 30 58 17 15 30 30 30 33 0 2 -41 8 -91 12
l-90 7 -45 68 c-24 38 -44 73 -44 79 0 29 -29 5 -52 -41z"/>
</g>
</svg>
