<?xml version="1.0" standalone="no"?>
<!DOCTYPE svg PUBLIC "-//W3C//DTD SVG 20010904//EN"
 "http://www.w3.org/TR/2001/REC-SVG-20010904/DTD/svg10.dtd">
<svg version="1.0" xmlns="http://www.w3.org/2000/svg"
 width="300.000000pt" height="294.000000pt" viewBox="0 0 300.000000 294.000000"
 preserveAspectRatio="xMidYMid meet">
<metadata>
Created by potrace 1.16, written by Peter Selinger 2001-2019
</metadata>
<g transform="translate(0.000000,294.000000) scale(0.100000,-0.100000)"
fill="#000000" stroke="none">
<path d="M20 1486 c0 -789 3 -1441 6 -1450 6 -14 107 -16 1044 -16 572 0 1041
-4 1044 -8 6 -10 32 -8 59 3 9 4 23 3 30 -2 17 -14 443 -17 452 -3 4 6 61 10
151 10 l144 0 0 461 c0 253 4 468 9 477 5 10 12 449 16 990 l8 972 -1482 0
-1481 0 0 -1434z m2915 1415 l30 -6 -4 -750 c-2 -413 -7 -755 -12 -760 -4 -6
-9 -305 -10 -665 -2 -564 -5 -657 -18 -673 -14 -17 -85 -17 -1426 -17 -1090 1
-1417 4 -1435 13 l-25 13 1 607 c0 451 4 611 12 619 9 9 12 7 12 -8 0 -11 5
-25 11 -31 7 -7 13 -185 16 -569 4 -347 9 -564 16 -571 12 -16 2717 -19 2746
-3 15 8 18 18 13 55 -2 26 0 63 6 83 8 25 12 293 15 828 4 739 5 792 22 817
15 23 17 41 12 97 -3 38 -11 78 -16 89 -14 26 -15 377 -1 386 6 4 10 78 10
191 0 175 -1 184 -19 184 -11 0 -23 5 -26 10 -10 16 -2750 14 -2763 -3 -7 -8
-12 -206 -14 -587 -4 -466 -7 -581 -18 -607 -8 -18 -18 -33 -21 -33 -17 0 -20
134 -17 695 l3 590 295 5 c434 8 2570 9 2605 1z m-458 -73 c9 -7 17 -7 28 2
12 10 18 10 30 0 8 -7 13 -16 10 -20 -8 -12 -386 -12 -400 0 -8 7 -354 9
-1018 8 -809 -2 -1003 -1 -995 10 14 17 2324 17 2345 0z m293 2 c0 -5 -16 -10
-36 -10 -21 0 -33 4 -29 10 3 6 19 10 36 10 16 0 29 -4 29 -10z m-1590 -30 c0
-6 -49 -10 -126 -10 -81 0 -123 4 -119 10 4 6 57 10 126 10 73 0 119 -4 119
-10z m-853 -26 c6 -16 -13 -37 -41 -47 -7 -3 -2 -14 12 -29 26 -29 27 -41 6
-62 -21 -22 -70 -20 -83 2 -9 16 -11 15 -26 -5 -9 -13 -22 -20 -30 -17 -12 5
-15 25 -15 90 l0 84 85 0 c70 0 87 -3 92 -16z m502 2 c7 -8 11 -30 9 -48 -2
-27 -12 -39 -58 -68 -83 -54 -144 -74 -225 -73 -93 1 -225 46 -202 69 4 4 13
1 21 -5 24 -20 127 -25 150 -9 18 14 18 15 0 32 -17 18 -18 17 -26 -3 -6 -18
-14 -22 -40 -19 -27 2 -34 8 -36 30 -2 19 3 30 19 38 23 13 95 6 115 -11 7 -5
35 -12 63 -16 28 -3 54 -10 57 -14 9 -14 38 -10 82 11 43 21 47 26 36 54 -8
22 -24 20 -24 -3 0 -26 -20 -39 -50 -31 -18 4 -25 13 -25 30 0 16 9 29 25 37
34 17 95 16 109 -1z m1451 -6 c17 -24 39 -25 66 -5 24 18 34 19 34 2 0 -27
-57 -67 -144 -102 -40 -16 -226 -22 -240 -8 -4 5 -38 14 -74 21 -115 22 -186
38 -202 45 -40 18 -396 43 -413 29 -7 -5 -56 -13 -109 -17 -54 -4 -100 -11
-103 -15 -3 -4 -29 -11 -58 -15 -28 -4 -56 -11 -62 -15 -5 -4 -26 -11 -45 -15
-19 -4 -44 -14 -55 -21 -11 -8 -26 -14 -34 -14 -19 0 -101 -40 -101 -48 0 -4
-15 -13 -33 -21 -17 -8 -48 -27 -68 -43 -20 -15 -40 -28 -43 -28 -4 0 -14 -6
-23 -12 -31 -25 -199 -193 -221 -223 -78 -105 -147 -229 -196 -355 -10 -25
-22 -53 -27 -62 -5 -10 -9 -25 -9 -33 0 -9 -4 -13 -10 -10 -14 8 -14 732 0
740 6 4 11 -105 12 -307 l3 -313 19 40 c17 35 86 178 94 196 1 4 -9 4 -23 1
-39 -7 -65 22 -65 73 0 45 19 71 45 61 17 -6 22 -76 5 -76 -5 0 -10 -4 -10
-10 0 -17 26 -11 45 10 15 16 17 31 13 85 -3 36 -10 71 -15 78 -19 25 -44 107
-41 134 3 24 8 28 33 28 27 0 30 -4 33 -32 4 -37 9 -40 28 -15 17 21 18 54 2
70 -15 15 -6 24 15 16 34 -13 37 -247 4 -294 -25 -36 -23 -58 3 -35 11 10 20
23 20 29 0 14 161 176 176 176 6 0 21 11 34 25 13 14 29 25 36 25 7 0 14 3 16
8 4 10 65 52 77 52 5 0 11 6 14 14 3 7 18 17 34 20 15 4 42 18 60 32 17 13 36
24 42 24 6 0 32 10 58 21 76 35 85 38 133 50 141 34 304 51 430 46 158 -7 317
-24 365 -39 52 -17 190 -17 206 0 16 15 65 16 74 1 4 -5 0 -18 -9 -28 -9 -10
-16 -23 -16 -29 0 -16 93 -16 123 0 12 6 28 14 36 18 26 12 24 30 -3 30 -32 0
-34 23 -4 44 30 21 51 20 68 -4z m176 -90 c3 -52 8 -102 12 -110 3 -8 11 -49
18 -90 21 -126 55 -252 75 -274 5 -6 9 -17 9 -25 0 -20 30 -51 50 -51 21 0 70
23 70 33 0 4 -6 10 -13 13 -12 4 -47 73 -78 149 -22 55 -53 301 -44 345 16 72
58 110 121 110 25 0 41 -10 78 -50 48 -52 58 -80 28 -80 -10 0 -31 -13 -47
-30 -35 -36 -64 -38 -95 -5 -21 22 -22 27 -10 55 11 27 16 30 41 25 30 -7 37
3 17 23 -17 17 -53 15 -68 -3 -26 -31 -22 -273 5 -281 6 -2 20 19 32 46 12 28
26 50 31 50 5 0 16 -14 24 -31 9 -17 26 -36 39 -43 38 -19 35 -43 -7 -61 -21
-9 -42 -21 -46 -28 -4 -7 -8 -46 -8 -87 l0 -76 56 -29 c30 -17 63 -34 72 -39
20 -11 62 -72 62 -91 0 -8 5 -17 10 -20 12 -8 13 -112 1 -119 -4 -3 -11 -18
-14 -33 -3 -16 -14 -37 -24 -49 -22 -25 -83 -54 -115 -54 -12 0 -29 -4 -37 -9
-8 -5 -23 -5 -35 -1 -12 5 -33 11 -47 14 -15 3 -50 22 -78 41 -56 39 -69 49
-141 110 -26 22 -62 51 -80 65 -18 14 -56 45 -85 70 -103 89 -134 108 -146 88
-5 -7 -9 -16 -9 -20 0 -19 -32 -6 -42 17 -6 14 -15 25 -20 25 -4 0 -8 7 -8 15
0 19 -109 91 -152 100 -18 4 -42 14 -53 21 -11 8 -31 14 -45 14 -14 0 -31 5
-37 11 -7 7 -62 14 -127 17 -97 4 -116 2 -116 -10 0 -38 61 -52 82 -18 7 11
20 20 28 20 9 0 22 -9 30 -20 8 -12 26 -20 42 -20 35 0 37 -23 2 -38 -24 -11
-24 -13 -10 -34 14 -20 14 -24 -1 -40 -20 -22 -35 -23 -73 -3 l-30 16 0 -38
c0 -21 -7 -46 -14 -55 -12 -16 -16 -16 -67 9 -30 15 -61 30 -69 33 -8 4 -17
16 -19 26 -4 22 -20 44 -32 44 -4 0 -9 -12 -11 -27 l-3 -28 -96 4 c-107 4
-169 -14 -169 -50 0 -27 18 -33 46 -14 16 10 40 15 67 13 38 -3 42 -5 39 -28
-3 -24 -2 -25 56 -22 47 3 61 0 65 -12 4 -9 2 -16 -4 -16 -5 0 -23 -14 -40
-31 -27 -28 -35 -30 -80 -27 -51 3 -57 0 -37 -20 8 -8 8 -15 -2 -27 -17 -21
-125 -21 -134 0 -8 22 -72 19 -107 -6 -39 -28 -36 -40 9 -37 32 3 37 0 34 -17
-3 -19 -19 -36 -108 -115 -67 -60 -67 -61 -71 -308 -3 -191 -1 -227 13 -257
31 -66 43 -9 18 89 -5 20 -2 25 18 28 15 2 24 11 26 26 4 25 27 30 36 6 10
-25 7 -59 -6 -72 -8 -8 -12 -64 -12 -174 -1 -157 0 -164 23 -193 l23 -30 -7
45 c-4 25 -11 49 -16 54 -12 13 -12 83 0 90 4 3 11 22 14 42 3 20 14 45 23 55
23 26 9 37 -16 14 -29 -26 -34 -14 -15 40 22 66 18 154 -8 183 -11 12 -28 22
-37 22 -22 0 -40 19 -33 36 3 8 16 14 30 14 27 0 83 -54 83 -82 0 -9 5 -20 11
-24 7 -4 10 -27 7 -60 -5 -53 -4 -54 22 -54 71 0 58 -82 -25 -165 -20 -20 -45
-59 -45 -71 0 -3 18 -3 40 1 30 5 40 3 41 -7 0 -7 0 -45 -1 -85 -1 -70 6 -94
53 -168 48 -76 151 -123 164 -75 3 12 8 19 12 18 3 -2 18 -10 33 -17 58 -29
42 -88 -21 -76 -37 7 -160 66 -189 90 -76 64 -122 110 -122 121 0 7 -4 14 -9
16 -12 4 -100 181 -118 237 -25 77 -44 162 -55 241 -11 86 -4 365 10 383 5 7
12 33 15 58 4 25 13 59 21 75 8 16 24 53 37 82 12 28 26 52 31 52 4 0 8 6 8
13 0 8 11 24 25 37 14 13 25 27 25 32 0 19 186 208 205 208 5 0 64 39 75 50
12 12 115 55 190 78 48 16 140 20 230 11 80 -7 168 -26 185 -39 6 -4 24 -11
41 -14 18 -4 60 -22 95 -41 35 -19 79 -42 97 -52 17 -9 32 -20 32 -25 0 -4 5
-8 11 -8 6 0 23 -9 37 -20 15 -11 40 -31 56 -43 41 -31 148 -126 168 -148 9
-11 19 -19 24 -19 4 0 31 -21 61 -46 30 -26 56 -44 59 -41 7 7 -66 88 -87 96
-9 3 -54 41 -100 84 -46 42 -96 89 -111 102 -15 14 -31 25 -36 25 -5 0 -19 11
-32 25 -13 14 -29 25 -36 25 -7 0 -19 8 -26 18 -17 22 -28 29 -168 102 -63 33
-133 63 -155 66 -22 4 -46 12 -54 18 -19 15 -333 15 -352 0 -8 -6 -27 -14 -44
-18 -28 -6 -134 -55 -145 -66 -10 -10 -69 -50 -75 -50 -19 0 -215 -197 -215
-216 0 -5 -40 -64 -50 -74 -21 -20 -100 -213 -100 -242 0 -13 -6 -30 -13 -37
-17 -17 -17 -515 1 -532 6 -7 12 -21 12 -30 0 -29 37 -132 72 -199 71 -136
110 -184 248 -305 12 -11 114 -61 219 -109 14 -7 96 -11 205 -11 150 0 191 3
241 19 73 23 84 31 78 56 -7 25 -23 26 -23 1 0 -19 -23 -35 -34 -24 -3 4 -6
15 -6 25 0 12 -7 18 -24 18 -13 0 -31 3 -39 6 -12 4 -15 -2 -14 -27 2 -38 -19
-50 -32 -17 -7 15 -10 17 -10 7 -1 -27 -31 -32 -31 -6 -1 20 -2 20 -11 4 -8
-13 -23 -17 -64 -17 -30 0 -57 5 -60 10 -3 6 -16 10 -27 10 -12 0 -38 18 -60
40 -29 31 -38 49 -38 75 0 43 -13 52 -30 20 -19 -35 -28 -31 -40 15 -6 21 -16
42 -22 46 -10 7 -10 -7 3 -56 2 -9 -2 -14 -10 -12 -10 2 -12 -4 -7 -23 5 -18
2 -27 -10 -32 -21 -8 -60 34 -69 74 -6 29 -4 33 14 33 12 0 21 6 21 14 0 7 7
27 15 42 19 37 19 60 -1 68 -24 9 -5 27 24 22 15 -2 30 -5 35 -5 4 -1 7 -9 7
-19 0 -27 23 -72 38 -72 6 0 12 5 12 10 0 18 22 10 58 -21 34 -30 35 -33 33
-94 -2 -53 1 -67 18 -84 12 -12 30 -21 42 -21 19 0 20 5 17 58 -3 56 -3 57 25
60 17 2 37 -4 48 -14 19 -17 21 -17 49 15 20 22 37 31 53 29 19 -3 22 -8 20
-47 -3 -53 14 -70 70 -71 37 0 93 23 109 45 4 6 8 20 8 31 0 21 18 32 77 49
29 8 103 85 103 107 0 26 -17 22 -51 -13 -31 -32 -46 -34 -115 -14 -14 5 -31
-2 -52 -20 -28 -24 -33 -25 -38 -10 -9 22 21 85 40 85 8 0 16 -5 18 -11 3 -8
21 -9 63 -4 45 6 54 10 34 14 -14 3 -38 16 -55 28 -27 21 -27 22 -7 23 38 0
53 11 53 40 0 15 9 35 20 45 17 15 24 16 46 7 48 -22 63 -15 97 45 9 17 17 42
17 55 0 13 5 29 11 35 11 11 8 85 -8 180 -12 69 -23 78 -23 20 0 -42 -8 -68
-44 -146 -6 -13 -11 -41 -11 -62 0 -38 -1 -39 -27 -34 -23 6 -30 2 -40 -20
-13 -30 -41 -30 -46 0 -8 53 -24 75 -54 75 -16 0 -38 5 -49 10 -24 13 -26 50
-2 50 24 0 83 23 83 32 0 4 -21 8 -47 8 -50 0 -133 33 -133 53 0 17 -48 67
-64 67 -22 0 -40 27 -24 36 9 6 4 10 -17 14 -35 7 -55 -4 -55 -31 0 -33 36
-59 80 -59 41 0 47 -8 30 -39 -6 -13 -17 -17 -34 -14 -29 6 -50 -11 -59 -48
-8 -30 -27 -41 -47 -29 -16 10 -32 113 -24 161 10 68 87 115 127 78 12 -11 35
-19 54 -19 36 0 36 2 -4 78 -13 24 -21 48 -18 53 23 36 123 -39 117 -87 -2
-13 1 -24 7 -24 6 0 11 5 11 10 0 6 12 22 26 37 21 21 32 24 61 20 46 -8 63
-23 63 -59 0 -28 -1 -29 -36 -22 -26 5 -39 3 -45 -7 -23 -37 3 -99 42 -99 10
0 21 -5 24 -10 3 -6 12 -10 18 -10 16 0 72 50 86 77 13 25 13 99 1 128 -8 18
-9 17 -9 -7 -1 -35 -17 -36 -25 -3 -15 59 -141 154 -168 127 -8 -8 -8 -15 2
-26 18 -22 5 -46 -25 -46 -14 0 -49 12 -77 26 -38 19 -56 24 -68 16 -9 -5 -31
-13 -50 -17 -66 -14 -160 -127 -160 -193 0 -15 -5 -33 -11 -39 -17 -17 7 -179
30 -207 14 -17 8 -46 -9 -46 -6 0 -23 25 -37 56 -24 52 -25 64 -21 168 4 90 9
120 28 159 13 26 28 47 32 47 4 0 8 5 8 12 0 15 40 58 55 58 6 0 17 9 25 20 8
11 20 20 27 20 12 0 66 21 105 41 10 5 52 9 93 9 68 0 87 -4 135 -32 8 -4 26
-13 40 -20 14 -6 42 -27 62 -47 21 -19 41 -31 45 -27 10 10 -93 107 -137 129
-19 10 -46 25 -60 33 -19 11 -53 14 -145 12 -114 -3 -122 -5 -165 -33 -25 -17
-52 -33 -60 -36 -37 -15 -130 -172 -130 -219 0 -15 -5 -31 -11 -37 -13 -13 -7
-138 11 -208 17 -66 73 -145 104 -145 7 0 19 14 26 31 22 53 64 86 118 94 50
7 132 -8 132 -24 0 -5 9 -11 19 -14 26 -6 51 -57 58 -117 4 -39 1 -58 -17 -92
-33 -64 -103 -125 -153 -133 -23 -3 -55 -11 -70 -17 -21 -8 -31 -8 -40 1 -6 6
-27 11 -48 11 -42 0 -99 18 -99 31 0 5 -6 9 -14 9 -12 0 -74 62 -116 116 -49
63 -92 126 -115 170 -25 48 -35 66 -55 102 -5 9 -26 48 -46 87 -19 38 -41 77
-48 85 -7 8 -19 30 -27 48 -8 17 -17 32 -20 32 -3 0 -16 23 -29 51 l-24 51 45
41 c48 45 127 104 168 126 14 7 37 24 51 36 14 12 43 31 65 41 22 10 45 23 51
29 6 5 35 21 65 34 30 13 62 28 73 33 28 14 136 48 155 48 9 0 22 5 29 12 17
17 274 23 332 8 25 -6 63 -15 85 -21 22 -5 49 -13 60 -18 11 -5 45 -19 75 -31
143 -56 179 -80 314 -215 91 -90 130 -151 181 -285 10 -25 21 -54 26 -65 4
-11 11 -40 15 -65 3 -25 10 -50 15 -56 14 -18 22 -300 11 -369 -15 -83 -33
-158 -42 -170 -4 -5 -11 -26 -15 -45 -4 -19 -15 -46 -25 -60 -9 -14 -30 -45
-46 -70 -62 -96 -119 -130 -219 -130 -58 0 -72 4 -120 35 -30 19 -55 39 -55
45 0 26 -47 3 -110 -54 -8 -7 -31 -21 -50 -31 -19 -10 -37 -21 -40 -24 -7 -9
-105 -55 -170 -81 -30 -12 -64 -26 -75 -30 -80 -34 -328 -56 -468 -42 -122 11
-223 28 -247 41 -9 5 -31 12 -50 16 -19 4 -41 11 -50 15 -8 5 -40 18 -70 30
-93 37 -190 89 -190 103 0 4 -4 7 -10 7 -13 0 -71 40 -108 75 -53 51 -102 88
-108 82 -7 -7 83 -96 162 -160 32 -26 67 -55 77 -63 9 -7 20 -14 23 -14 5 0
64 -40 74 -50 5 -5 152 -77 205 -101 28 -12 67 -22 195 -50 65 -13 423 -7 443
9 6 5 33 12 58 15 46 6 214 58 247 77 9 5 33 16 52 25 67 29 190 103 190 114
0 4 11 13 24 19 19 8 33 5 81 -19 50 -25 69 -29 140 -29 71 0 87 3 119 25 20
14 39 25 42 25 8 0 88 82 101 104 15 26 83 163 94 191 29 70 52 434 30 480 -5
11 -12 40 -16 65 -11 83 -62 200 -136 309 -50 76 -198 222 -282 279 -83 57
-75 52 -167 92 -41 18 -82 36 -91 41 -9 4 -33 11 -53 14 -20 4 -39 11 -42 16
-3 5 -13 9 -23 9 -9 0 -36 18 -60 41 -35 34 -42 46 -39 72 2 27 8 33 32 35 55
7 112 -37 99 -75 -7 -20 -45 -15 -71 10 -23 21 -24 21 -20 2 3 -19 77 -61 178
-100 25 -9 59 -23 75 -30 17 -7 45 -18 63 -25 17 -7 32 -15 32 -19 0 -3 15
-12 33 -20 17 -8 48 -27 68 -43 20 -15 41 -28 47 -28 10 0 229 -214 247 -241
28 -43 37 -58 64 -110 16 -30 33 -73 36 -95 4 -21 11 -44 16 -50 5 -6 11 -37
14 -70 4 -32 11 -68 16 -79 16 -32 5 -389 -13 -460 -26 -102 -56 -169 -101
-225 -64 -81 -84 -101 -114 -116 -44 -21 -33 -34 28 -34 28 0 59 -5 70 -11 15
-7 28 -7 49 3 34 15 39 28 11 28 -23 0 -51 25 -51 46 0 8 14 23 31 33 52 32
99 -6 99 -79 0 -41 -49 -90 -90 -90 -20 0 -30 -5 -30 -15 0 -8 4 -15 9 -15 15
0 52 -71 49 -94 -2 -17 -11 -22 -49 -24 -32 -2 -51 2 -62 13 -19 18 -27 19
-41 2 -19 -23 -102 -49 -123 -39 -10 5 -38 19 -63 31 -48 22 -82 42 -90 52 -3
4 -28 18 -57 33 -78 39 -163 32 -163 -14 0 -22 10 -26 27 -9 6 6 26 9 44 7 60
-5 46 -68 -19 -85 -98 -24 -120 132 -24 170 57 23 125 7 256 -59 46 -23 50
-24 67 -8 18 16 21 16 58 0 33 -15 41 -16 60 -5 12 8 21 24 21 37 0 45 -20 52
-141 52 -116 0 -182 15 -222 49 -16 13 -23 12 -70 -12 -29 -15 -70 -41 -92
-57 -44 -32 -91 -57 -175 -90 -30 -12 -64 -26 -75 -30 -11 -5 -40 -12 -65 -16
-25 -3 -50 -10 -56 -15 -6 -5 -55 -12 -108 -16 -53 -3 -99 -10 -102 -15 -7
-11 -171 -11 -178 0 -3 5 -49 12 -102 15 -54 4 -102 11 -108 17 -5 5 -21 10
-34 10 -13 0 -38 6 -55 13 -18 8 -65 25 -105 38 -41 13 -76 27 -79 31 -2 5 -9
8 -16 8 -6 0 0 -11 15 -25 42 -39 47 -73 14 -102 -33 -28 -77 -30 -100 -4 -23
26 -17 54 14 61 27 7 50 -5 50 -26 0 -8 5 -14 11 -14 22 0 3 44 -26 61 -32 19
-100 25 -109 10 -3 -5 -23 -12 -43 -16 -21 -4 -42 -10 -48 -15 -5 -4 -32 -13
-60 -19 -27 -7 -59 -15 -71 -17 -23 -6 -54 18 -54 42 0 8 14 23 32 34 30 18
34 18 50 3 22 -19 36 -10 18 12 -13 16 -85 21 -94 6 -8 -12 -55 -20 -61 -11
-7 11 35 37 87 55 49 17 243 21 253 5 3 -5 16 -10 28 -10 18 0 16 4 -14 25
-19 13 -39 29 -46 35 -7 5 -16 10 -21 10 -13 0 -242 232 -242 246 0 7 6 14 13
17 6 2 8 8 4 13 -4 5 -12 2 -17 -6 -7 -12 -14 -9 -34 13 -14 16 -26 32 -26 36
0 4 -10 16 -21 27 -12 10 -28 33 -36 49 -30 62 -38 75 -45 75 -4 0 -15 17 -25
38 -9 20 -20 39 -24 42 -3 3 -13 19 -22 35 l-16 30 -1 -67 c0 -37 -4 -70 -10
-73 -6 -4 -10 33 -10 104 0 61 3 111 8 111 4 0 27 -41 52 -91 63 -127 70 -139
79 -139 5 0 11 -9 14 -20 3 -11 10 -20 17 -20 7 0 4 12 -8 33 -12 17 -34 59
-51 92 -17 33 -35 67 -40 75 -5 8 -12 22 -15 30 -3 8 -10 22 -15 30 -10 18
-22 46 -51 120 -12 30 -26 64 -30 75 -10 22 -29 118 -37 181 -4 34 10 84 71
266 73 216 147 383 201 454 14 18 25 37 25 42 0 4 11 19 25 32 14 13 25 27 25
30 0 17 200 200 218 200 6 0 17 8 24 18 14 19 56 43 168 98 107 52 131 62 165
70 17 4 35 10 40 14 6 4 33 11 60 15 28 4 56 12 64 18 19 16 542 17 562 1 8
-6 37 -15 64 -19 59 -8 144 -34 164 -49 8 -6 74 -10 165 -11 149 0 154 1 212
30 58 29 81 48 118 100 10 16 22 23 27 18 5 -5 12 -51 15 -103z m-1846 90 c0
-6 -29 -10 -66 -10 -41 0 -63 4 -59 10 3 6 33 10 66 10 33 0 59 -4 59 -10z
m435 0 c4 -6 -21 -10 -67 -11 -40 -1 -65 -3 -55 -6 26 -7 21 -23 -8 -23 -24 0
-51 31 -38 44 10 10 161 7 168 -4z m915 0 c0 -6 -30 -10 -70 -10 -40 0 -70 4
-70 10 0 6 30 10 70 10 40 0 70 -4 70 -10z m-1575 -30 c3 -5 -1 -10 -10 -10
-9 0 -13 5 -10 10 3 6 8 10 10 10 2 0 7 -4 10 -10z m255 0 c0 -5 -11 -10 -25
-10 -14 0 -25 5 -25 10 0 6 11 10 25 10 14 0 25 -4 25 -10z m1515 0 c3 -5 -1
-10 -10 -10 -9 0 -13 5 -10 10 3 6 8 10 10 10 2 0 7 -4 10 -10z m-1785 -30 c0
-5 -4 -10 -10 -10 -5 0 -10 5 -10 10 0 6 5 10 10 10 6 0 10 -4 10 -10z m1785
0 c3 -5 -1 -10 -9 -10 -9 0 -16 5 -16 10 0 6 4 10 9 10 6 0 13 -4 16 -10z
m725 -186 c0 -101 -3 -153 -10 -149 -6 4 -10 67 -10 156 0 93 4 149 10 149 6
0 10 -59 10 -156z m-60 82 c0 -11 -19 -15 -25 -6 -3 5 1 10 9 10 9 0 16 -2 16
-4z m-2390 -36 c0 -5 -13 -10 -29 -10 -17 0 -33 5 -36 10 -4 6 8 10 29 10 20
0 36 -4 36 -10z m2370 0 c0 -5 -6 -10 -14 -10 -8 0 -18 5 -21 10 -3 6 3 10 14
10 12 0 21 -4 21 -10z m-138 -15 c0 -5 -5 -11 -11 -13 -6 -2 -11 4 -11 13 0 9
5 15 11 13 6 -2 11 -8 11 -13z m-2097 -15 c-3 -5 -19 -10 -36 -10 -16 0 -29 5
-29 10 0 6 16 10 36 10 21 0 33 -4 29 -10z m2265 0 c0 -5 -15 -11 -32 -11 -18
-1 -25 -3 -15 -6 25 -7 21 -23 -6 -23 -25 0 -47 17 -47 37 0 9 16 13 50 13 28
0 50 -4 50 -10z m-2376 -16 c9 -8 16 -17 16 -19 0 -10 -33 -35 -46 -35 -19 0
-35 41 -22 58 14 16 33 15 52 -4z m2361 -44 c-3 -5 -13 -10 -21 -10 -8 0 -14
5 -14 10 0 6 9 10 21 10 11 0 17 -4 14 -10z m-2635 -36 c0 -8 -5 -12 -10 -9
-6 4 -8 11 -5 16 9 14 15 11 15 -7z m250 -4 c0 -5 -11 -10 -25 -10 -14 0 -25
5 -25 10 0 6 11 10 25 10 14 0 25 -4 25 -10z m-240 -30 c0 -5 -9 -10 -21 -10
-11 0 -17 5 -14 10 3 6 13 10 21 10 8 0 14 -4 14 -10z m210 0 c0 -5 -4 -10
-10 -10 -5 0 -10 5 -10 10 0 6 5 10 10 10 6 0 10 -4 10 -10z m-195 -30 c3 -5
-3 -10 -14 -10 -12 0 -21 5 -21 10 0 6 6 10 14 10 8 0 18 -4 21 -10z m2610
-30 c4 -6 -8 -10 -29 -10 -20 0 -36 5 -36 10 0 6 13 10 29 10 17 0 33 -4 36
-10z m-2610 -20 c-3 -5 -13 -10 -21 -10 -8 0 -14 5 -14 10 0 6 9 10 21 10 11
0 17 -4 14 -10z m2595 -30 c0 -5 -13 -10 -29 -10 -17 0 -33 5 -36 10 -4 6 8
10 29 10 20 0 36 -4 36 -10z m0 -30 c0 -5 -18 -10 -40 -10 -22 0 -40 5 -40 10
0 6 18 10 40 10 22 0 40 -4 40 -10z m70 -61 c0 -33 -4 -59 -10 -59 -6 0 -10
29 -10 66 0 41 4 63 10 59 6 -3 10 -33 10 -66z m-1040 11 c0 -33 -27 -65 -66
-80 -28 -11 -114 -13 -138 -4 -24 9 -19 24 8 24 15 0 32 11 44 27 19 26 22 27
56 15 41 -15 53 -10 66 24 13 33 30 30 30 -6z m955 20 c-3 -5 -15 -10 -25 -10
-10 0 -22 5 -25 10 -4 6 7 10 25 10 18 0 29 -4 25 -10z m45 -30 c0 -5 -20 -10
-44 -10 -25 0 -48 5 -51 10 -4 6 13 10 44 10 28 0 51 -4 51 -10z m-30 -30 c0
-5 -4 -10 -10 -10 -5 0 -10 5 -10 10 0 6 5 10 10 10 6 0 10 -4 10 -10z m70
-545 c0 -90 -4 -145 -10 -145 -6 0 -10 55 -10 145 0 90 4 145 10 145 6 0 10
-55 10 -145z m-62 98 c-2 -13 -16 -20 -53 -24 -44 -5 -45 -6 -13 -7 58 -3 57
-22 -2 -22 -36 0 -52 4 -56 15 -4 8 -15 15 -26 15 -10 0 -16 5 -13 10 3 6 37
10 76 10 39 0 69 4 69 10 0 6 5 10 11 10 6 0 9 -8 7 -17z m-23 -73 c4 -6 -12
-10 -40 -10 -28 0 -44 4 -40 10 3 6 21 10 40 10 19 0 37 -4 40 -10z m-15 -60
c0 -5 -9 -10 -21 -10 -11 0 -17 5 -14 10 3 6 13 10 21 10 8 0 14 -4 14 -10z
m30 -30 c0 -5 -11 -10 -25 -10 -14 0 -25 5 -25 10 0 6 11 10 25 10 14 0 25 -4
25 -10z m2 -40 c0 -11 1 -25 2 -32 1 -6 -5 -13 -11 -15 -8 -3 -13 4 -13 16 0
11 -5 23 -10 26 -13 8 -3 25 16 25 8 0 15 -9 16 -20z m-792 -16 c0 -8 -5 -12
-10 -9 -6 4 -8 11 -5 16 9 14 15 11 15 -7z m-10 -44 c0 -5 -4 -10 -10 -10 -5
0 -10 5 -10 10 0 6 5 10 10 10 6 0 10 -4 10 -10z m870 -165 c0 -50 -4 -85 -10
-85 -6 0 -10 35 -10 85 0 50 4 85 10 85 6 0 10 -35 10 -85z m-1732 -313 c2 -7
-5 -16 -17 -19 -27 -7 -27 -39 -1 -53 47 -25 6 -70 -46 -50 -21 8 -24 16 -24
56 0 36 5 51 22 66 24 21 59 21 66 0z m1712 -447 l0 -425 -1364 0 -1364 0 -7
33 c-12 50 -17 607 -6 607 6 0 12 -97 15 -242 3 -134 8 -271 11 -304 l7 -62
45 -6 c25 -3 229 -6 453 -6 353 0 409 2 414 15 8 21 104 21 112 0 5 -13 107
-15 835 -15 l829 0 0 415 c0 270 3 415 10 415 7 0 10 -148 10 -425z m-2602
246 c12 -11 22 -23 22 -27 0 -4 12 -20 26 -35 14 -15 30 -44 36 -65 15 -54 22
-203 10 -228 -5 -12 -18 -40 -27 -64 -13 -29 -22 -39 -28 -33 -7 7 -7 18 1 33
21 45 25 88 8 113 -19 28 -51 33 -60 9 -4 -11 -1 -14 12 -10 28 9 46 -29 32
-65 -25 -59 -90 -26 -90 44 0 26 27 107 41 124 13 15 23 114 15 147 -5 21 -12
26 -36 26 -17 0 -30 -5 -30 -11 0 -6 6 -9 14 -6 20 8 39 -18 31 -42 -7 -23
-42 -38 -57 -23 -5 5 -12 28 -15 51 -10 70 43 104 95 62z m2552 -151 c0 -5 -4
-10 -10 -10 -5 0 -10 5 -10 10 0 6 5 10 10 10 6 0 10 -4 10 -10z m-2592 -28
c2 -7 -6 -12 -17 -12 -21 0 -27 11 -14 24 9 9 26 2 31 -12z m1167 -7 c0 -15
-8 -21 -34 -23 -28 -3 -33 -1 -27 13 3 9 6 21 6 26 0 6 12 9 28 7 19 -2 27 -9
27 -23z m104 -11 c48 -10 37 -24 -19 -24 -38 0 -50 4 -50 15 0 16 19 19 69 9z
m-1289 -14 c0 -5 -4 -10 -10 -10 -5 0 -10 5 -10 10 0 6 5 10 10 10 6 0 10 -4
10 -10z m220 -10 c0 -5 -4 -10 -10 -10 -5 0 -10 5 -10 10 0 6 5 10 10 10 6 0
10 -4 10 -10z m2375 -10 c-3 -5 -15 -10 -25 -10 -10 0 -22 5 -25 10 -4 6 7 10
25 10 18 0 29 -4 25 -10z m-2370 -60 c-3 -5 -13 -10 -21 -10 -8 0 -14 5 -14
10 0 6 9 10 21 10 11 0 17 -4 14 -10z m61 -46 c9 -34 -28 -74 -53 -58 -32 20
-39 41 -19 63 27 30 64 27 72 -5z m59 -24 c3 -5 -1 -10 -10 -10 -9 0 -13 5
-10 10 3 6 8 10 10 10 2 0 7 -4 10 -10z m60 -30 c4 -6 -13 -10 -44 -10 -28 0
-51 5 -51 10 0 6 20 10 44 10 25 0 48 -4 51 -10z m1635 -20 c0 -5 -4 -10 -10
-10 -5 0 -10 5 -10 10 0 6 5 10 10 10 6 0 10 -4 10 -10z m-2025 -10 c3 -5 -3
-10 -14 -10 -12 0 -21 5 -21 10 0 6 6 10 14 10 8 0 18 -4 21 -10z m225 -5 c0
-17 -43 -31 -61 -20 -8 6 -4 12 12 21 32 18 49 17 49 -1z m2070 -25 c0 -5 -16
-10 -36 -10 -21 0 -33 4 -29 10 3 6 19 10 36 10 16 0 29 -4 29 -10z m-2303
-30 c6 -24 19 -25 39 -5 23 22 50 18 69 -11 16 -25 16 -27 -11 -55 -27 -28
-27 -29 -8 -44 19 -15 19 -15 -1 -31 -15 -12 -32 -14 -69 -9 -28 3 -53 8 -58
11 -9 6 -11 125 -2 148 9 23 35 20 41 -4z m2588 0 c3 -5 -1 -10 -10 -10 -9 0
-13 5 -10 10 3 6 8 10 10 10 2 0 7 -4 10 -10z m-765 -60 c0 -5 -16 -10 -36
-10 -21 0 -33 4 -29 10 3 6 19 10 36 10 16 0 29 -4 29 -10z m-1652 -28 c2 -7
-6 -12 -17 -12 -21 0 -27 11 -14 24 9 9 26 2 31 -12z m317 -2 c4 -6 -7 -10
-25 -10 -18 0 -29 4 -25 10 3 6 15 10 25 10 10 0 22 -4 25 -10z m1245 0 c0 -5
-9 -10 -21 -10 -11 0 -17 5 -14 10 3 6 13 10 21 10 8 0 14 -4 14 -10z m105 0
c3 -5 -3 -10 -14 -10 -12 0 -21 5 -21 10 0 6 6 10 14 10 8 0 18 -4 21 -10z
m285 -32 c0 -4 -9 -8 -20 -8 -20 0 -28 29 -13 44 7 7 33 -21 33 -36z m-1935 2
c3 -5 -1 -10 -10 -10 -9 0 -13 5 -10 10 3 6 8 10 10 10 2 0 7 -4 10 -10z m300
0 c4 -6 -18 -10 -59 -10 -37 0 -66 4 -66 10 0 6 26 10 59 10 33 0 63 -4 66
-10z m1335 0 c0 -6 -44 -11 -107 -12 -60 -1 -87 -3 -60 -5 90 -8 47 -23 -64
-23 -71 0 -108 4 -104 10 3 6 26 10 50 10 29 0 45 5 49 15 4 12 27 15 121 15
70 0 115 -4 115 -10z m-1320 -30 c0 -5 -16 -10 -36 -10 -21 0 -33 4 -29 10 3
6 19 10 36 10 16 0 29 -4 29 -10z m330 0 c0 -5 -9 -10 -21 -10 -11 0 -17 5
-14 10 3 6 13 10 21 10 8 0 14 -4 14 -10z m1095 0 c4 -6 -18 -10 -59 -10 -37
0 -66 4 -66 10 0 6 26 10 59 10 33 0 63 -4 66 -10z m225 0 c0 -6 -34 -10 -81
-10 -51 0 -78 4 -74 10 3 6 40 10 81 10 43 0 74 -4 74 -10z m300 0 c0 -5 -4
-10 -10 -10 -5 0 -10 5 -10 10 0 6 5 10 10 10 6 0 10 -4 10 -10z"/>
<path d="M183 2753 c-18 -7 -16 -24 5 -39 26 -20 32 -17 32 16 0 29 -9 35 -37
23z"/>
<path d="M1170 2643 c-19 -2 -39 -9 -44 -14 -6 -5 -19 -9 -30 -9 -20 0 -208
-61 -244 -79 -9 -4 -37 -18 -62 -30 -46 -21 -74 -38 -96 -56 -7 -5 -29 -21
-49 -35 -56 -38 -156 -138 -205 -205 -25 -33 -47 -62 -50 -65 -8 -8 -28 -42
-56 -95 -15 -27 -30 -51 -35 -53 -5 -2 -9 -10 -9 -17 0 -7 -14 -40 -30 -73
-17 -34 -30 -65 -30 -71 0 -5 -6 -22 -14 -38 -30 -60 -76 -201 -76 -233 0 -9
-4 -20 -10 -26 -5 -5 -13 -37 -16 -69 -5 -51 -1 -75 29 -166 20 -59 40 -115
45 -125 6 -11 26 -53 46 -94 20 -41 47 -93 60 -115 14 -22 34 -56 46 -75 31
-53 67 -100 90 -120 11 -9 20 -21 20 -26 0 -13 143 -154 156 -154 5 0 16 -9
24 -20 8 -11 19 -20 25 -20 7 0 22 -11 35 -25 13 -14 29 -25 35 -25 6 0 29
-13 51 -30 21 -16 45 -30 52 -30 8 0 28 -6 45 -14 82 -35 117 -46 177 -56 130
-22 207 -29 320 -28 115 1 115 1 -44 9 -87 4 -171 12 -185 18 -14 5 -42 13
-61 16 -164 32 -369 146 -497 278 -101 104 -191 220 -230 297 -9 19 -22 40
-28 46 -9 9 -28 51 -91 189 -7 17 -16 44 -20 60 -4 17 -10 35 -14 40 -5 6 -11
27 -15 48 -4 20 -11 40 -16 43 -12 7 -11 81 1 89 6 3 10 15 10 25 0 20 51 180
74 235 7 17 21 50 31 75 34 90 112 238 136 260 3 3 13 22 23 43 10 21 24 41
32 44 8 3 14 11 14 17 0 22 216 221 278 256 14 8 32 21 40 28 7 6 21 12 30 12
10 0 27 7 38 15 30 20 195 74 267 86 174 29 426 33 512 9 17 -5 55 -13 85 -19
30 -5 84 -17 120 -26 126 -31 146 -34 255 -34 100 0 128 3 217 25 24 5 29 2
43 -31 8 -21 18 -62 21 -92 4 -29 11 -56 15 -59 5 -3 9 -13 9 -23 0 -25 43
-159 65 -201 25 -49 85 -120 101 -120 7 0 17 -7 22 -15 8 -16 42 -11 42 6 0 5
12 9 26 9 24 0 26 -3 22 -35 -4 -36 14 -50 26 -19 22 56 -29 136 -67 106 -7
-5 -26 -13 -43 -16 -27 -6 -35 -2 -65 31 -19 21 -41 54 -48 73 -7 19 -17 44
-21 55 -5 11 -16 47 -25 80 -9 33 -23 78 -30 100 -8 22 -17 64 -20 92 -4 29
-11 55 -16 59 -5 3 -9 18 -9 34 0 15 -5 30 -12 32 -7 3 -43 -6 -81 -19 -61
-21 -82 -24 -185 -20 -67 2 -145 11 -182 21 -36 10 -96 22 -135 28 -38 5 -79
15 -90 21 -20 11 -457 20 -525 10z"/>
<path d="M1553 2550 c76 -5 144 -13 150 -18 7 -5 32 -12 56 -16 24 -4 53 -13
64 -21 12 -8 31 -15 42 -15 34 0 -39 39 -88 46 -23 4 -48 11 -55 17 -7 5 -79
11 -160 13 l-147 2 138 -8z"/>
<path d="M1300 2534 l-25 -14 26 0 c14 0 29 4 35 9 5 5 23 11 39 14 24 3 22 4
-10 5 -22 0 -51 -6 -65 -14z"/>
<path d="M1220 2511 c-8 -5 -41 -21 -72 -35 -32 -15 -58 -31 -58 -36 0 -14 0
-14 63 20 31 17 62 30 69 30 7 0 22 7 32 15 20 15 20 15 0 14 -10 0 -26 -4
-34 -8z"/>
<path d="M1910 2460 c8 -5 20 -10 25 -10 6 0 3 5 -5 10 -8 5 -19 10 -25 10 -5
0 -3 -5 5 -10z"/>
<path d="M1960 2430 c0 -5 5 -10 11 -10 6 0 28 -13 49 -30 21 -16 41 -30 46
-30 4 0 20 -12 36 -27 31 -30 48 -27 21 3 -21 23 -141 104 -154 104 -5 0 -9
-4 -9 -10z"/>
<path d="M995 2383 c-61 -51 -131 -121 -180 -179 -60 -72 -148 -230 -160 -287
-4 -17 -11 -36 -15 -42 -4 -5 -11 -26 -15 -45 -4 -19 -11 -39 -15 -45 -4 -5
-11 -41 -15 -80 -4 -38 -12 -75 -17 -82 -19 -23 7 -405 30 -451 5 -9 13 -34
16 -56 4 -21 11 -46 15 -55 5 -9 24 -49 42 -90 56 -123 118 -211 214 -304 96
-92 109 -102 197 -145 123 -61 213 -81 378 -81 125 0 252 20 315 49 11 5 40
18 65 29 40 18 53 26 94 53 6 4 30 23 52 42 23 20 45 36 50 36 9 1 20 13 74
85 16 22 33 45 37 50 21 26 63 119 69 150 3 19 10 38 15 40 4 3 11 37 15 75 4
39 11 73 15 76 12 7 12 201 0 208 -4 3 -11 35 -14 70 -3 36 -10 73 -15 83 -5
10 -24 49 -42 87 -17 39 -42 83 -53 98 -56 72 -147 148 -222 182 -22 11 -48
23 -57 27 -10 5 -28 9 -40 9 -19 0 -16 -3 12 -16 87 -39 108 -51 155 -89 28
-22 51 -43 53 -47 2 -4 16 -24 33 -45 39 -52 42 -56 57 -82 17 -30 52 -138 52
-162 0 -10 4 -20 9 -23 4 -3 11 -49 14 -103 8 -131 -12 -292 -48 -378 -28 -69
-68 -145 -82 -156 -7 -7 -13 -17 -13 -23 0 -17 -117 -127 -174 -165 -72 -47
-137 -79 -182 -86 -21 -4 -45 -12 -52 -18 -18 -14 -353 -15 -383 0 -13 6 -42
16 -64 21 -77 20 -118 39 -197 93 -15 11 -31 19 -35 19 -5 0 -15 9 -23 20 -8
11 -19 20 -25 20 -14 0 -115 103 -115 117 0 6 -4 13 -8 15 -7 3 -49 62 -91
128 -9 14 -27 52 -40 85 -12 33 -27 69 -32 80 -10 24 -27 89 -41 165 -13 71
-6 444 9 462 6 7 14 33 17 58 4 25 11 54 16 65 4 11 18 45 30 75 37 94 89 190
103 190 4 0 7 5 7 11 0 12 21 42 70 99 16 19 43 52 61 73 17 20 37 37 44 37 8
0 22 10 32 23 10 12 30 30 46 40 26 17 36 37 19 37 -5 0 -35 -21 -67 -47z"/>
<path d="M2160 2290 c6 -11 20 -25 33 -31 12 -6 54 -41 92 -78 102 -96 135
-123 147 -119 5 2 -9 21 -33 42 -24 22 -72 65 -105 97 -34 33 -66 59 -71 59
-5 0 -20 11 -33 25 -28 30 -45 33 -30 5z"/>
<path d="M1240 2264 l-35 -13 32 0 c17 -1 35 4 38 9 16 25 155 -11 155 -40 0
-6 9 -10 20 -10 15 0 20 7 20 25 0 18 -5 25 -19 25 -11 0 -23 5 -26 10 -9 14
-143 10 -185 -6z"/>
<path d="M1168 2243 c7 -3 16 -2 19 1 4 3 -2 6 -13 5 -11 0 -14 -3 -6 -6z"/>
<path d="M2734 2125 c11 -8 23 -15 27 -15 3 0 12 -15 19 -32 6 -18 16 -41 21
-50 26 -50 -19 -135 -93 -174 -43 -22 -100 -14 -171 27 -21 11 -33 6 -23 -10
6 -9 58 -36 119 -60 70 -28 165 0 210 61 32 43 27 134 -9 192 -16 25 -34 45
-40 46 -6 0 -17 7 -24 15 -7 8 -22 15 -34 15 -21 -1 -21 -1 -2 -15z"/>
<path d="M1093 2025 c-3 -9 2 -22 13 -30 23 -16 37 -9 29 15 -5 15 0 20 22 23
20 3 16 4 -15 6 -30 1 -44 -3 -49 -14z"/>
<path d="M993 2003 c-7 -2 -13 -9 -13 -14 0 -15 36 -10 50 6 10 12 9 15 -6 14
-11 0 -25 -3 -31 -6z"/>
<path d="M1610 1983 c-31 -6 -193 -59 -217 -71 -10 -5 -40 -20 -67 -33 -100
-49 -251 -147 -273 -179 -8 -11 -20 -20 -27 -20 -20 0 -46 -34 -46 -61 0 -13
11 -42 24 -64 14 -22 37 -65 52 -95 23 -48 59 -105 74 -120 3 -3 12 -18 20
-35 8 -16 17 -32 21 -35 3 -3 16 -25 30 -50 45 -81 53 -95 78 -132 23 -36 41
-49 41 -29 0 5 -6 16 -12 23 -21 23 -38 52 -136 233 -14 28 -32 55 -38 62 -6
6 -17 25 -24 42 -7 17 -16 31 -19 31 -4 0 -13 16 -21 35 -8 19 -17 35 -20 35
-4 0 -15 18 -25 40 l-18 41 33 34 c19 19 39 35 46 35 7 0 14 4 16 9 4 12 154
111 167 111 6 0 11 4 11 8 0 7 66 40 195 98 17 7 44 16 60 20 17 4 36 12 44
18 9 7 80 11 205 11 231 0 243 -3 449 -117 33 -19 187 -167 187 -181 0 -5 11
-23 26 -42 33 -43 91 -160 100 -199 3 -17 10 -36 15 -42 42 -52 42 -525 0
-579 -5 -5 -11 -23 -15 -39 -12 -50 -75 -127 -144 -175 -29 -20 -37 -22 -62
-11 -48 20 -57 36 -77 132 -3 15 -14 35 -24 44 -18 17 -21 16 -47 -9 -16 -15
-32 -27 -36 -27 -4 0 -38 -30 -75 -67 -68 -69 -133 -123 -148 -123 -14 -1 -59
-40 -45 -40 34 0 141 75 238 168 36 34 69 62 75 62 5 0 9 -12 9 -27 0 -15 9
-46 20 -69 33 -67 118 -93 183 -56 81 45 151 144 177 252 28 113 32 155 28
315 -4 154 -7 178 -32 250 -36 106 -91 217 -139 285 -48 66 -157 180 -173 180
-7 0 -14 6 -17 14 -3 7 -38 29 -79 49 -67 32 -90 41 -188 77 -35 13 -331 23
-380 13z"/>
<path d="M2530 1972 c0 -15 24 -32 45 -32 19 0 18 2 -5 20 -27 21 -40 25 -40
12z"/>
<path d="M2618 1923 c12 -2 32 -2 45 0 12 2 2 4 -23 4 -25 0 -35 -2 -22 -4z"/>
<path d="M1553 1889 c-18 -5 -35 -14 -38 -19 -9 -14 19 -12 33 2 7 7 63 14
134 18 l123 7 -110 1 c-60 0 -124 -4 -142 -9z"/>
<path d="M850 1865 c-9 -11 -10 -19 -3 -26 13 -13 35 12 24 29 -6 10 -11 9
-21 -3z"/>
<path d="M1427 1823 c-10 -9 -9 -23 2 -23 5 0 11 7 15 15 5 15 -5 20 -17 8z"/>
<path d="M1342 1737 c-12 -13 -22 -29 -22 -35 0 -7 -4 -12 -8 -12 -10 0 -44
-73 -67 -140 -16 -49 -21 -235 -6 -244 4 -3 11 -26 15 -52 3 -25 18 -65 33
-87 16 -23 35 -55 43 -70 32 -64 128 -117 210 -117 57 0 74 18 46 49 -37 41
-5 111 52 111 36 0 62 -30 62 -72 0 -39 -59 -95 -107 -103 -21 -4 -50 -11 -64
-17 -18 -6 -33 -6 -45 0 -11 6 -35 16 -53 23 -19 7 -50 26 -68 42 -19 16 -37
27 -40 23 -10 -10 35 -48 82 -70 22 -10 48 -23 57 -27 37 -18 108 -9 168 21
72 36 90 61 90 122 0 45 -4 51 -44 86 -22 18 -76 15 -112 -7 -33 -20 -50 -73
-37 -120 6 -23 5 -24 -42 -19 -40 5 -55 13 -102 59 -30 30 -69 81 -86 114 -30
59 -31 63 -31 206 -1 88 3 155 10 170 6 13 22 48 34 76 13 29 34 62 47 74 23
23 30 39 15 39 -5 0 -18 -10 -30 -23z"/>
<path d="M1740 1721 c0 -12 6 -21 16 -21 9 0 14 7 12 17 -5 25 -28 28 -28 4z"/>
<path d="M1970 1631 c0 -6 5 -13 10 -16 6 -3 10 1 10 9 0 9 -4 16 -10 16 -5 0
-10 -4 -10 -9z"/>
<path d="M2040 1606 c0 -2 11 -23 24 -47 14 -24 28 -62 32 -84 3 -22 11 -46
17 -53 14 -17 13 -308 -1 -325 -5 -6 -13 -29 -16 -51 -4 -21 -13 -52 -21 -70
-8 -17 -20 -46 -27 -63 -7 -18 -16 -33 -19 -33 -4 0 -12 -13 -18 -28 -16 -39
-117 -137 -125 -123 -12 18 -26 12 -26 -11 0 -12 -10 -32 -22 -45 -19 -20 -19
-23 -4 -23 17 0 87 60 160 139 43 46 100 150 111 204 4 18 12 38 19 46 17 22
15 386 -3 431 -36 89 -62 140 -71 140 -5 0 -10 -2 -10 -4z"/>
<path d="M1763 1423 c3 -26 1 -44 -7 -47 -6 -2 18 -4 54 -4 36 1 52 3 36 5
-33 5 -46 16 -70 58 l-17 30 4 -42z"/>
<path d="M1970 1330 c0 -5 5 -10 10 -10 6 0 10 5 10 10 0 6 -4 10 -10 10 -5 0
-10 -4 -10 -10z"/>
<path d="M1945 1290 c3 -5 10 -10 16 -10 5 0 9 5 9 10 0 6 -7 10 -16 10 -8 0
-12 -4 -9 -10z"/>
<path d="M2010 983 c0 -5 4 -15 10 -23 11 -18 25 -7 17 15 -6 15 -27 21 -27 8z"/>
<path d="M300 792 c0 -4 9 -13 20 -20 22 -13 27 -3 8 16 -14 14 -28 16 -28 4z"/>
<path d="M350 731 c0 -13 29 -35 37 -28 7 8 -15 37 -28 37 -5 0 -9 -4 -9 -9z"/>
<path d="M1590 716 c0 -7 7 -19 15 -26 13 -11 15 -8 15 14 0 16 -5 26 -15 26
-8 0 -15 -6 -15 -14z"/>
<path d="M1495 640 c-3 -5 -1 -10 4 -10 6 0 11 5 11 10 0 6 -2 10 -4 10 -3 0
-8 -4 -11 -10z"/>
<path d="M1738 413 c7 -3 16 -2 19 1 4 3 -2 6 -13 5 -11 0 -14 -3 -6 -6z"/>
<path d="M1678 393 c7 -3 16 -2 19 1 4 3 -2 6 -13 5 -11 0 -14 -3 -6 -6z"/>
<path d="M1613 383 c9 -2 25 -2 35 0 9 3 1 5 -18 5 -19 0 -27 -2 -17 -5z"/>
<path d="M1528 363 c12 -2 30 -2 40 0 9 3 -1 5 -23 4 -22 0 -30 -2 -17 -4z"/>
<path d="M182 248 c-29 -29 1 -68 42 -52 19 7 20 18 6 45 -12 22 -30 25 -48 7z
m28 -24 c0 -8 -5 -12 -10 -9 -6 4 -8 11 -5 16 9 14 15 11 15 -7z"/>
</g>
</svg>
