<?xml version="1.0" standalone="no"?>
<!DOCTYPE svg PUBLIC "-//W3C//DTD SVG 20010904//EN"
 "http://www.w3.org/TR/2001/REC-SVG-20010904/DTD/svg10.dtd">
<svg version="1.0" xmlns="http://www.w3.org/2000/svg"
 width="606.000000pt" height="729.000000pt" viewBox="0 0 606.000000 729.000000"
 preserveAspectRatio="xMidYMid meet">
<metadata>
Created by potrace 1.16, written by Peter Selinger 2001-2019
</metadata>
<g transform="translate(0.000000,729.000000) scale(0.100000,-0.100000)"
fill="#000000" stroke="none">
<path d="M963 7007 c-82 -83 -152 -166 -216 -258 -90 -128 -101 -149 -171
-334 -42 -108 -78 -215 -80 -238 -5 -52 -20 -438 -18 -492 0 -22 19 -123 42
-224 l41 -184 107 -180 c98 -164 123 -198 293 -391 178 -202 193 -217 360
-342 139 -104 238 -168 493 -313 175 -100 322 -183 326 -184 4 -1 41 27 82 63
71 63 81 68 296 150 121 47 218 88 214 92 -4 4 -74 38 -157 76 -82 38 -188 88
-235 110 -47 22 -128 60 -180 84 -52 25 -131 69 -175 99 -44 31 -195 132 -335
227 -194 130 -296 207 -424 319 -160 140 -172 153 -224 243 -30 52 -88 153
-128 223 l-74 128 -32 192 c-34 213 -35 199 12 504 33 220 104 413 221 601 49
79 88 146 86 148 -1 2 -57 -52 -124 -119z"/>
<path d="M4971 7124 c2 -6 43 -73 91 -150 74 -118 95 -163 142 -297 48 -138
59 -184 88 -373 l32 -216 -17 -116 c-48 -314 -32 -265 -165 -498 -67 -115
-128 -219 -136 -230 -8 -12 -93 -89 -188 -171 -126 -108 -239 -193 -418 -313
-135 -90 -281 -188 -324 -218 -67 -46 -273 -148 -696 -344 -36 -17 -59 -32
-53 -35 414 -157 439 -168 513 -234 39 -35 75 -63 79 -62 4 1 151 84 326 184
257 147 355 209 496 315 169 127 184 141 360 342 168 190 194 225 290 388
l107 179 42 184 c24 102 43 198 43 215 2 53 -14 459 -19 503 -3 23 -38 130
-79 238 -72 189 -78 200 -179 343 -74 104 -139 180 -221 262 -65 63 -116 110
-114 104z"/>
<path d="M621 4134 c-116 -121 -189 -213 -224 -284 -9 -18 -17 -34 -17 -36 0
-3 59 -16 90 -20 14 -1 51 -5 83 -7 l57 -6 42 57 c22 31 98 114 168 184 l128
126 -37 34 c-41 36 -121 78 -150 78 -11 0 -69 -53 -140 -126z"/>
<path d="M5231 4237 c-25 -12 -62 -37 -82 -56 l-38 -34 114 -110 c64 -60 138
-140 166 -177 28 -38 56 -70 62 -72 26 -9 227 15 227 26 0 11 -41 80 -77 132
-67 96 -281 314 -307 313 -11 0 -41 -10 -65 -22z"/>
<path d="M990 4082 c-69 -70 -147 -153 -173 -185 -60 -71 -147 -197 -147 -213
0 -6 -7 -17 -15 -24 -8 -7 -15 -16 -15 -21 0 -11 72 -30 107 -28 15 1 46 -3
69 -9 61 -18 125 -9 146 19 114 149 247 291 373 396 l49 42 -52 50 c-29 28
-59 51 -67 51 -7 0 -20 6 -27 13 -13 13 -84 37 -110 37 -8 0 -70 -58 -138
-128z"/>
<path d="M4865 4196 c-16 -6 -36 -17 -43 -23 -7 -7 -20 -13 -27 -13 -8 0 -38
-23 -67 -51 l-52 -50 49 -42 c127 -106 257 -244 372 -395 19 -24 30 -30 65
-30 24 -1 61 4 83 10 22 6 51 10 65 9 32 -2 110 19 110 30 0 4 -5 11 -10 14
-6 4 -16 21 -24 39 -30 71 -146 214 -316 388 -132 136 -139 140 -205 114z"/>
<path d="M2783 4072 l-191 -77 -131 -114 c-72 -63 -179 -150 -239 -192 -64
-46 -168 -136 -249 -216 -113 -112 -148 -153 -182 -215 l-42 -78 -49 0 c-78 0
-398 76 -573 136 -180 62 -482 204 -662 314 -90 54 -144 96 -218 169 l-97 96
0 -79 c0 -67 8 -103 51 -239 61 -192 159 -413 197 -444 15 -13 92 -61 172
-107 80 -46 217 -126 305 -176 126 -74 177 -97 240 -113 44 -10 170 -41 280
-68 357 -89 344 -87 640 -94 l270 -6 101 33 102 33 66 90 66 89 0 101 c0 99
-1 102 -56 235 -50 120 -57 147 -67 242 -10 106 -10 110 23 235 28 108 42 141
88 213 l54 85 138 77 c76 42 155 82 177 88 50 15 74 6 246 -90 l135 -75 55
-86 c47 -73 60 -105 88 -213 32 -127 32 -129 21 -236 -10 -96 -18 -125 -67
-241 -54 -131 -55 -133 -55 -233 l0 -102 66 -89 66 -90 102 -33 101 -33 265 6
c146 3 279 9 295 12 37 6 242 55 511 121 l200 50 165 95 c143 82 259 150 404
234 22 13 52 33 67 46 38 32 137 254 197 444 43 136 51 172 51 239 l0 79 -97
-97 c-77 -75 -126 -113 -226 -173 -180 -108 -475 -248 -657 -311 -170 -58
-491 -134 -570 -134 l-49 0 -42 78 c-34 63 -67 102 -183 215 -80 80 -187 172
-249 216 -59 43 -166 129 -238 192 l-131 114 -191 77 c-252 101 -242 101 -494
0z m-549 -1093 c55 -14 79 -28 113 -61 24 -23 43 -51 43 -63 0 -11 -18 -41
-40 -66 -46 -54 -89 -69 -202 -69 -141 0 -368 84 -368 136 0 7 -7 17 -16 22
-19 11 -11 48 20 86 16 21 33 29 66 33 25 3 47 7 49 9 11 10 275 -10 335 -27z
m2022 6 c20 -13 54 -71 54 -93 0 -5 -7 -12 -15 -16 -8 -3 -15 -11 -15 -19 0
-32 -61 -64 -220 -117 -56 -18 -189 -24 -252 -11 -50 11 -63 19 -98 59 -22 26
-40 56 -40 67 0 32 78 102 135 121 96 32 405 38 451 9z"/>
<path d="M1374 3947 c-120 -122 -210 -224 -266 -302 -36 -50 -98 -152 -98
-161 0 -11 60 -27 117 -30 34 -1 71 -7 81 -13 10 -5 37 -7 61 -4 37 5 47 13
89 67 82 107 200 233 298 318 l95 83 -52 48 c-28 26 -62 50 -75 53 -13 3 -24
9 -24 13 0 7 -34 20 -95 36 -16 4 -45 -20 -131 -108z"/>
<path d="M4528 4050 c-55 -16 -123 -56 -170 -100 l-49 -45 95 -83 c98 -85 216
-211 298 -318 42 -54 52 -62 89 -67 24 -3 51 -1 61 4 10 6 47 12 81 13 66 4
117 19 117 36 0 5 -4 10 -10 10 -5 0 -10 6 -10 14 0 23 -92 157 -170 246 -99
114 -282 300 -295 299 -5 0 -22 -4 -37 -9z"/>
<path d="M1682 3728 c-161 -173 -218 -244 -278 -350 l-32 -56 43 -12 c23 -6
51 -11 61 -9 10 1 44 -3 74 -9 30 -6 69 -10 85 -9 32 2 75 26 75 41 0 20 122
155 262 291 83 80 146 145 141 145 -4 0 -29 20 -55 45 -26 25 -54 45 -62 45
-8 0 -21 6 -28 13 -14 13 -84 37 -111 37 -8 0 -87 -78 -175 -172z"/>
<path d="M4135 3886 c-16 -6 -36 -17 -43 -23 -7 -7 -22 -13 -32 -13 -11 0 -24
-8 -29 -17 -5 -10 -27 -31 -49 -48 l-39 -29 147 -143 c139 -134 260 -269 260
-289 0 -15 43 -39 75 -41 17 -1 55 3 85 9 30 6 64 10 74 9 10 -2 38 3 61 9
l43 12 -32 56 c-60 106 -117 177 -278 350 -171 184 -173 185 -243 158z"/>
<path d="M659 2742 c334 -534 834 -1331 988 -1578 170 -273 221 -344 420 -595
l226 -284 95 -59 c63 -39 112 -62 142 -67 25 -4 46 -6 48 -4 1 1 -33 24 -77
50 -79 48 -79 48 -209 240 -112 164 -145 223 -232 411 -56 120 -151 323 -211
451 -60 127 -122 260 -138 295 -88 193 -454 974 -457 977 -2 2 -70 16 -151 31
-158 29 -168 33 -372 146 -62 35 -115 64 -117 64 -2 0 18 -35 45 -78z"/>
<path d="M5360 2774 c-47 -25 -121 -66 -165 -91 -72 -40 -96 -48 -233 -73 -84
-15 -154 -29 -156 -31 -3 -3 -290 -616 -388 -829 -17 -36 -61 -130 -98 -210
-38 -80 -148 -315 -245 -524 -168 -361 -182 -387 -306 -570 -129 -191 -129
-191 -209 -240 -44 -27 -79 -50 -77 -52 2 -2 24 0 49 4 27 6 84 33 141 69 l95
59 226 285 c214 269 241 308 504 729 325 519 894 1428 929 1483 13 20 22 37
21 37 -2 0 -41 -21 -88 -46z"/>
<path d="M2118 2397 l-46 -72 -21 -210 -22 -210 55 -246 55 -247 71 -133 c40
-74 74 -136 77 -139 8 -7 -12 658 -22 760 -3 25 -7 68 -9 95 -26 275 -30 302
-54 355 -14 30 -28 69 -31 87 l-6 32 -47 -72z"/>
<path d="M2469 2434 c-19 -14 -39 -28 -46 -32 -6 -4 -22 -55 -35 -113 l-24
-105 56 -123 c52 -112 63 -129 126 -187 38 -35 72 -63 77 -64 4 0 5 17 3 38
-2 20 -7 89 -10 152 -4 63 -16 171 -28 238 -19 107 -26 129 -54 165 -18 23
-30 45 -28 49 9 14 -1 9 -37 -18z"/>
<path d="M2809 2425 c-45 -33 -48 -37 -68 -125 -12 -50 -21 -100 -21 -110 0
-10 27 -74 60 -142 54 -111 66 -129 131 -188 l72 -65 -6 75 c-4 41 -9 118 -12
170 -3 52 -15 147 -27 210 -18 99 -25 121 -54 156 -18 23 -30 44 -27 48 15 15
-6 3 -48 -29z"/>
<path d="M3202 2455 c4 -4 -8 -26 -26 -49 -29 -35 -36 -57 -54 -156 -12 -63
-23 -158 -27 -210 -3 -52 -8 -129 -11 -170 l-7 -74 79 73 c71 66 82 82 132
189 l54 117 -18 100 c-16 90 -21 103 -52 133 -29 27 -91 69 -70 47z"/>
<path d="M3552 2454 c4 -5 -8 -28 -26 -51 -28 -36 -35 -58 -54 -165 -12 -67
-24 -172 -27 -233 -4 -60 -8 -129 -11 -152 -2 -24 -1 -43 3 -43 5 1 40 31 80
68 65 61 76 77 122 180 28 63 51 124 51 137 0 13 -9 63 -21 111 -14 62 -27 93
-42 104 -45 33 -81 54 -75 44z"/>
<path d="M3892 2448 c3 -7 -10 -45 -27 -83 -23 -49 -35 -94 -39 -145 -4 -41
-9 -91 -11 -110 -8 -70 -24 -277 -29 -385 -9 -184 -18 -590 -13 -585 2 3 21
37 42 75 21 39 53 98 71 131 27 49 45 113 89 310 l56 249 -22 210 -21 210 -44
68 c-41 62 -61 84 -52 55z"/>
<path d="M1743 2431 c-38 -18 -43 -25 -63 -88 l-23 -69 55 -77 c46 -64 68 -85
129 -122 41 -24 76 -40 78 -34 7 21 -20 207 -41 282 -18 63 -28 82 -50 95 -15
9 -28 20 -28 24 0 12 -10 10 -57 -11z"/>
<path d="M4260 2443 c0 -5 -13 -16 -29 -26 -23 -13 -32 -31 -49 -94 -19 -69
-48 -280 -40 -288 2 -2 36 16 76 40 60 35 82 56 129 121 l56 78 -22 68 c-17
52 -29 71 -49 82 -40 20 -72 29 -72 19z"/>
</g>
</svg>
