<?xml version="1.0" encoding="UTF-8" standalone="no"?>
<svg
   xmlns:dc="http://purl.org/dc/elements/1.1/"
   xmlns:cc="http://creativecommons.org/ns#"
   xmlns:rdf="http://www.w3.org/1999/02/22-rdf-syntax-ns#"
   xmlns:svg="http://www.w3.org/2000/svg"
   xmlns="http://www.w3.org/2000/svg"
   xmlns:sodipodi="http://sodipodi.sourceforge.net/DTD/sodipodi-0.dtd"
   xmlns:inkscape="http://www.inkscape.org/namespaces/inkscape"
   version="1.0"
   width="264.000000pt"
   height="261.000000pt"
   viewBox="0 0 264.000000 261.000000"
   preserveAspectRatio="xMidYMid meet"
   id="svg3639"
   sodipodi:docname="harbingerofskulls.svg"
   inkscape:version="1.0.1 (3bc2e813f5, 2020-09-07)">
  <defs
     id="defs3643" />
  <sodipodi:namedview
     pagecolor="#ffffff"
     bordercolor="#666666"
     borderopacity="1"
     objecttolerance="10"
     gridtolerance="10"
     guidetolerance="10"
     inkscape:pageopacity="0"
     inkscape:pageshadow="2"
     inkscape:window-width="1600"
     inkscape:window-height="837"
     id="namedview3641"
     showgrid="false"
     inkscape:zoom="1.3613837"
     inkscape:cx="156.17463"
     inkscape:cy="175.29086"
     inkscape:window-x="-8"
     inkscape:window-y="-8"
     inkscape:window-maximized="1"
     inkscape:current-layer="svg3639" />
  <metadata
     id="metadata3625">
Created by potrace 1.16, written by Peter Selinger 2001-2019
<rdf:RDF>
  <cc:Work
     rdf:about="">
    <dc:format>image/svg+xml</dc:format>
    <dc:type
       rdf:resource="http://purl.org/dc/dcmitype/StillImage" />
  </cc:Work>
</rdf:RDF>
</metadata>
  <path
     id="path4234"
     style="fill:#ffffff;stroke-width:0.734547"
     transform="scale(0.75)"
     d="m 135.5155,122.39919 c -11.3946,-0.0911 -22.31425,8.4453 -23.42229,20.07953 -1.39173,7.96221 -2.845,16.9945 2.76653,23.79366 7.71998,10.7615 25.71354,13.74778 34.71173,2.97708 6.40915,-6.99278 5.7913,-17.16224 7.13897,-25.97259 0.44717,-11.52624 -9.63812,-21.53551 -21.19494,-20.87768 z m 14.71389,-88.190081 c -11.10484,1.906356 -20.47166,9.168346 -29.09637,16.00365 -8.28666,6.650429 -11.68732,19.507574 -4.96741,28.389513 5.01007,8.149891 15.28465,9.289818 24.01684,8.802655 7.84738,0.312227 16.33291,3.909607 23.46769,-1.161761 10.77177,-5.879353 11.2181,-19.653103 9.65148,-30.439531 -0.38952,-10.514954 -8.28937,-21.064036 -19.31104,-21.455797 -1.25266,-0.02856 -2.51034,-0.172287 -3.76119,-0.138729 z M 273.06225,245.25214 c -10.86774,0.33506 -18.05849,9.79311 -21.78399,19.05906 -5.35508,8.44486 -5.86646,20.62874 1.95524,27.7527 7.35797,6.42305 17.05738,9.48146 25.56581,14.13108 7.94365,4.34451 17.87462,8.52729 26.45617,3.35634 10.30652,-4.92752 13.34676,-18.87123 7.83524,-28.49346 -4.90665,-9.62162 -8.62764,-20.14157 -15.33327,-28.63804 -6.41867,-6.47881 -16.06496,-6.18493 -24.48287,-7.17916 z m 13.4356,-157.009371 c -13.4054,-0.382267 -25.79116,12.816351 -22.41499,26.290261 8.21105,25.71036 11.1713,53.06497 8.27353,79.92348 -1.37903,16.559 -6.42604,32.46903 -10.76734,48.38808 -2.3424,12.29539 9.08558,24.87446 21.61097,23.02756 8.81197,-0.29395 14.93511,-7.62506 19.1451,-14.62313 15.85321,-5.25742 24.2751,-25.48727 17.60904,-40.61097 1.23101,-2.82102 0.77666,-6.98791 2.69044,-9.06 10.43442,-3.96499 21.52897,-6.57723 31.4644,-11.64165 10.91813,-5.94889 12.99372,-22.48436 3.94619,-30.98382 -6.5156,-7.02291 -16.95132,-6.78809 -25.29387,-10.42826 -3.63376,-1.55117 -7.78227,-1.96734 -10.5863,-4.23506 -0.32225,-4.59354 -3.88244,-9.30304 -0.91962,-13.55468 5.76004,-14.01612 -1.90019,-31.258641 -15.92044,-36.790466 -6.42074,-1.733775 -11.92408,-6.095676 -18.83711,-5.701345 z m 15.21746,5.688433 c 1.25933,1.16007 -0.54083,-0.449633 0,0 z M 290.60672,36.478744 c -11.73382,2.329577 -21.6421,9.759491 -32.33269,14.768943 -10.41893,4.741391 -14.84319,18.330929 -9.1922,28.286327 5.32896,9.325183 7.86315,21.305946 17.2947,27.557206 10.57533,7.13868 26.29592,1.37884 30.27873,-10.626405 5.28239,-12.017274 12.28562,-23.416614 16.04153,-36.022577 2.86464,-13.032706 -8.86298,-25.672069 -22.09007,-23.963494 z M 182.00284,-3.08492 c -9.46609,3.09825501 -14.78221,13.0398775 -14.02846,22.681659 -0.54771,3.320852 0.47044,7.402858 -0.91641,10.357164 -9.74767,3.931674 -15.30688,14.882377 -13.40836,25.105837 0.92691,12.929651 -0.21697,26.035885 1.85359,38.844203 2.66912,7.664517 9.57039,14.672747 8.75861,23.224307 -1.64539,4.84256 -7.92637,2.17476 -11.42421,4.45319 -12.54618,4.71324 -15.95316,19.44108 -17.21594,31.34735 -0.45969,13.27465 -2.5747,28.4529 6.74036,39.41839 4.04992,5.40299 11.19194,8.12771 17.83253,7.35158 3.95714,5.92829 11.46367,6.37629 17.05239,9.78583 6.1742,6.68999 10.11414,15.90619 8.72561,25.12953 0.55406,9.7083 -11.27365,12.86222 -13.45984,21.46958 -2.9614,9.10267 -0.74588,19.00217 -1.31509,28.44165 0.40142,16.48938 -0.29823,33.06687 0.80705,49.49992 1.34506,12.63411 16.45933,20.60697 27.80345,15.07367 12.94768,-7.08216 23.27217,-18.07713 34.20248,-27.84197 21.94308,-21.12665 37.08955,-48.50476 47.36476,-76.96338 13.19766,-37.86428 15.525,-79.61459 6.32902,-118.6578 C 280.66117,98.7628 270.50797,71.995513 252.72356,50.278426 237.78109,30.322674 219.99478,12.066854 198.6607,-1.0477001 193.48529,-3.9307469 187.73391,-4.6394787 182.00284,-3.08492 Z M 93.6449,92.836556 c -9.292754,1.649878 -14.958892,9.896814 -17.644262,18.346204 -11.336069,27.75982 -10.345197,58.37046 -10.535785,87.77768 1.955423,12.1682 6.423401,23.83186 9.996831,35.61558 4.217792,13.69723 11.599895,26.26273 16.354022,39.6405 -5.262657,7.92938 -5.528761,18.8924 0.888477,26.2714 11.532367,14.61206 24.881487,27.88348 39.448467,39.4648 9.63298,7.1601 20.32869,12.78222 30.78354,18.55447 11.94797,4.68522 26.08311,-4.2977 27.54981,-16.90748 1.87087,-15.86914 0.40975,-31.9357 0.64503,-47.88316 -0.54497,-27.20984 -0.30038,-54.47254 -1.85876,-81.64097 -0.93963,-11.42661 -11.28369,-21.83409 -23.11958,-20.36501 -4.80205,-1.14699 -8.96875,-4.89748 -14.27057,-4.42737 -0.99913,-13.556 -8.38035,-27.9721 -21.85564,-32.66151 3.56233,-12.38422 -0.12778,-26.01305 -7.75434,-36.11186 -2.95673,-4.08184 -5.36784,-8.41557 -6.66202,-13.31286 C 112.3463,96.4184 102.76272,91.421474 93.6449,92.836556 Z M 164.41532,-9.4246894 c -12.06988,1.6832521 -22.30775,9.37098968 -31.92983,16.3465344 -14.07097,11.452859 -26.9112,24.488172 -38.48049,38.438888 -8.266041,10.232544 -5.431164,27.779183 7.09089,33.198299 9.67162,5.085768 21.21967,0.07614 27.66235,-7.877955 9.44548,-11.071444 22.67101,-18.917793 37.30106,-20.328758 9.7979,-0.603741 19.56447,-7.052564 21.25593,-17.192162 0.91524,-8.996032 -0.0214,-18.199874 -1.40293,-27.1120209 -2.4657,-9.4909082 -11.67381,-16.2051821 -21.49698,-15.4728255 z M 57.352265,33.417176 c -12.426778,0.759813 -21.682808,14.141131 -18.0007,26.036239 3.316812,9.926907 8.816253,18.952182 13.254839,28.397692 -1.75278,2.957839 -3.742418,5.432624 -7.26943,6.131744 -13.799623,5.869253 -22.547313,23.039869 -15.911832,37.202209 2.970581,4.34773 -0.136346,9.27007 -0.530825,13.94921 -9.752095,3.74653 -19.7243744,6.28001 -29.71279285,9.79124 -12.19766015,4.97945 -15.36967815,22.89732 -5.74362945,31.84331 7.39583972,6.8298 18.0650273,7.93634 27.0907433,11.77564 3.106611,1.93435 9.477167,0.99082 9.262703,5.8466 1.261932,3.87347 1.463945,7.562 -0.456754,11.2339 -4.001763,14.33031 5.036331,30.99475 19.10843,35.68431 2.197908,2.86837 4.803573,5.58456 1.454935,8.84204 -4.048455,9.02807 -9.610181,17.56477 -12.279911,27.10289 -3.583815,13.11726 9.18995,26.92431 22.534082,24.49777 9.089026,-1.60512 16.73924,-7.59957 25.095815,-11.28661 9.374998,-5.48826 22.327912,-8.85176 25.575602,-20.65796 3.66057,-12.37693 -5.59471,-23.03476 -9.87395,-33.89224 -6.792253,-14.89274 -10.862663,-30.07047 -15.114991,-45.80465 -2.117787,-6.38364 -0.284975,-13.53446 -0.711534,-20.22901 0.241086,-21.5851 1.164139,-43.8286 10.229085,-63.8149 4.96728,-13.25691 12.8023,-25.37181 16.77406,-38.981194 C 114.87952,66.154303 108.00111,54.883924 97.892933,50.666112 86.647808,45.106109 75.7867,38.445592 64.023301,34.116548 61.801386,33.868863 59.600521,33.18615 57.352265,33.417176 Z m 77.496115,33.846537 c -13.81239,0.278299 -28.77298,3.673567 -38.863018,13.667096 -8.350367,8.73818 -7.151493,23.400821 1.197413,31.705511 3.953125,9.73001 8.918415,19.8059 17.255545,26.48171 9.54972,7.06214 21.85933,3.46667 31.82997,-0.58033 4.35951,-3.05089 8.39385,1.91515 13.10806,1.47857 15.41101,1.45027 27.86145,-14.9598 24.53315,-29.58072 C 181.40576,98.640494 174.82376,87.991347 167.42381,78.633405 159.43368,69.066324 146.6377,66.922367 134.84838,67.263713 Z" />
  <g
     transform="translate(0.000000,261.000000) scale(0.100000,-0.100000)"
     fill="#000000"
     stroke="none"
     id="g3637">
    <path
       d="M1294 2383 c3 -98 8 -288 12 -421 l6 -244 -30 -31 c-54 -58 -100 -137 -112 -190 -14 -72 -14 -190 0 -218 l13 -23 18 23 c10 13 24 42 30 64 10 39 53 97 71 97 4 0 8 -53 8 -118 l0 -118 45 -13 c66 -20 112 -68 159 -166 23 -48 28 -74 29 -136 1 -110 -16 -160 -72 -211 -71 -65 -88 -77 -117 -84 -34 -9 -41 -32 -33 -112 4 -37 8 -141 8 -231 0 -91 5 -169 10 -174 6 -6 20 -1 38 13 15 12 42 28 58 35 17 7 50 30 74 51 187 164 213 191 305 326 88 131 182 357 210 510 63 337 25 623 -124 943 -62 133 -241 354 -360 445 -25 19 -47 37 -50 40 -16 18 -183 120 -197 120 -2 0 -2 -80 1 -177z m451 -509 c32 -15 65 -60 65 -88 0 -18 -15 -21 -25 -6 -12 19 -35 10 -75 -30 -51 -51 -94 -54 -160 -10 -51 34 -80 37 -115 14 -31 -20 -34 -1 -4 24 12 9 35 30 53 46 74 68 179 88 261 50z"
       id="path3627" />
    <path
       d="M1194 2514 c-49 -26 -81 -47 -131 -87 -42 -33 -243 -237 -243 -246 0 -4 -9 -19 -20 -32 -33 -41 -35 -43 -57 -79 -11 -19 -24 -46 -28 -60 -5 -14 -18 -41 -31 -61 -35 -55 -91 -198 -113 -288 -62 -249 -53 -569 24 -796 27 -81 92 -227 104 -235 5 -3 12 -16 16 -30 4 -14 17 -39 29 -56 12 -17 37 -55 58 -85 43 -63 172 -198 243 -254 28 -22 52 -42 55 -46 3 -3 41 -25 85 -49 44 -23 86 -47 93 -53 11 -9 13 69 7 459 -3 258 -8 479 -11 492 -6 28 -22 29 -26 2 -6 -39 -23 -29 -44 25 -7 16 -9 13 -12 -18 -4 -50 -28 -49 -37 3 -7 42 -22 52 -31 23 -3 -10 -10 -29 -16 -43 -6 -14 -10 -51 -10 -82 l2 -57 -35 21 c-51 29 -67 66 -64 146 2 61 -6 166 -16 218 -3 11 -17 33 -31 47 -23 23 -35 27 -84 27 -65 0 -77 9 -90 65 -7 32 -5 39 27 72 32 33 35 40 31 84 -3 26 -12 55 -21 64 -10 9 -17 20 -17 25 0 5 -11 21 -24 37 -39 46 -60 140 -53 237 7 94 17 120 91 223 98 135 231 223 371 245 l76 12 -3 78 c-1 43 -5 78 -9 78 -3 0 -28 -12 -55 -26z"
       id="path3629" />
    <path
       d="M495 2077 l72 -143 -24 -30 c-14 -16 -38 -50 -55 -76 -24 -40 -35 -48 -59 -48 -36 0 -79 -39 -79 -72 0 -13 9 -38 20 -56 18 -30 19 -36 6 -85 -7 -28 -17 -75 -21 -104 l-7 -51 -128 -46 c-70 -25 -138 -46 -150 -46 -38 0 -18 -9 117 -55 70 -23 136 -46 145 -50 10 -4 19 -23 23 -48 4 -23 13 -68 21 -100 13 -51 13 -60 -1 -80 -35 -50 -2 -127 56 -127 18 0 31 -12 53 -50 16 -27 41 -61 54 -75 l25 -27 -76 -150 c-42 -82 -70 -148 -63 -146 7 2 71 34 143 72 l130 69 -54 106 c-29 58 -67 151 -83 206 -17 55 -35 114 -40 131 -6 17 -10 40 -10 53 0 12 -7 24 -15 27 -8 4 -12 11 -9 16 4 6 6 77 5 159 -4 296 28 434 164 714 48 97 52 111 38 120 -28 17 -258 134 -264 135 -3 0 27 -64 66 -143z"
       id="path3631" />
    <path
       d="M2145 2169 c-33 -17 -93 -49 -133 -70 -79 -44 -73 -44 -130 9 -27 24 -52 31 -34 10 21 -26 151 -295 170 -353 11 -33 28 -99 38 -147 12 -56 23 -88 31 -88 17 0 16 -15 -2 -30 -12 -10 -13 -16 -4 -26 16 -19 16 -248 0 -354 -24 -158 -77 -325 -152 -475 -49 -98 -63 -133 -47 -119 13 12 28 24 35 28 6 3 78 -28 159 -69 81 -41 149 -73 151 -71 2 1 -30 69 -72 149 l-74 146 34 53 c57 89 65 98 89 98 34 0 66 40 66 83 0 20 -4 37 -9 37 -19 0 -21 38 -6 81 8 24 18 67 21 95 l6 51 82 28 c44 15 115 39 156 53 l74 26 -45 11 c-24 5 -95 28 -157 50 -109 39 -112 41 -112 70 0 29 -5 51 -30 142 -11 38 -10 45 9 69 41 52 15 112 -54 123 -34 5 -42 13 -77 71 -22 36 -43 66 -47 68 -4 1 24 64 61 138 38 75 68 138 66 140 -2 1 -30 -11 -63 -27z"
       id="path3633" />
    <path
       d="M888 1938 c-72 -27 -82 -47 -57 -112 10 -27 25 -56 33 -65 9 -10 16 -23 16 -29 0 -22 40 -52 68 -52 15 0 60 14 101 30 87 36 94 36 131 10 26 -19 30 -19 45 -4 19 19 13 60 -16 108 -10 17 -26 44 -35 61 -35 62 -63 75 -156 74 -48 0 -92 -7 -130 -21z"
       id="path3635" />
  </g>
</svg>
