<?xml version="1.0" standalone="no"?>
<!DOCTYPE svg PUBLIC "-//W3C//DTD SVG 20010904//EN"
 "http://www.w3.org/TR/2001/REC-SVG-20010904/DTD/svg10.dtd">
<svg version="1.0" xmlns="http://www.w3.org/2000/svg"
 width="264.000000pt" height="261.000000pt" viewBox="0 0 264.000000 261.000000"
 preserveAspectRatio="xMidYMid meet">
<metadata>
Created by potrace 1.16, written by Peter Selinger 2001-2019
</metadata>
<g transform="translate(0.000000,261.000000) scale(0.100000,-0.100000)"
fill="#000000" stroke="none">
<path d="M1294 2383 c3 -98 8 -288 12 -421 l6 -244 -30 -31 c-54 -58 -100
-137 -112 -190 -14 -72 -14 -190 0 -218 l13 -23 18 23 c10 13 24 42 30 64 10
39 53 97 71 97 4 0 8 -53 8 -118 l0 -118 45 -13 c66 -20 112 -68 159 -166 23
-48 28 -74 29 -136 1 -110 -16 -160 -72 -211 -71 -65 -88 -77 -117 -84 -34 -9
-41 -32 -33 -112 4 -37 8 -141 8 -231 0 -91 5 -169 10 -174 6 -6 20 -1 38 13
15 12 42 28 58 35 17 7 50 30 74 51 187 164 213 191 305 326 88 131 182 357
210 510 63 337 25 623 -124 943 -62 133 -241 354 -360 445 -25 19 -47 37 -50
40 -16 18 -183 120 -197 120 -2 0 -2 -80 1 -177z m451 -509 c32 -15 65 -60 65
-88 0 -18 -15 -21 -25 -6 -12 19 -35 10 -75 -30 -51 -51 -94 -54 -160 -10 -51
34 -80 37 -115 14 -31 -20 -34 -1 -4 24 12 9 35 30 53 46 74 68 179 88 261 50z"/>
<path d="M1194 2514 c-49 -26 -81 -47 -131 -87 -42 -33 -243 -237 -243 -246 0
-4 -9 -19 -20 -32 -33 -41 -35 -43 -57 -79 -11 -19 -24 -46 -28 -60 -5 -14
-18 -41 -31 -61 -35 -55 -91 -198 -113 -288 -62 -249 -53 -569 24 -796 27 -81
92 -227 104 -235 5 -3 12 -16 16 -30 4 -14 17 -39 29 -56 12 -17 37 -55 58
-85 43 -63 172 -198 243 -254 28 -22 52 -42 55 -46 3 -3 41 -25 85 -49 44 -23
86 -47 93 -53 11 -9 13 69 7 459 -3 258 -8 479 -11 492 -6 28 -22 29 -26 2 -6
-39 -23 -29 -44 25 -7 16 -9 13 -12 -18 -4 -50 -28 -49 -37 3 -7 42 -22 52
-31 23 -3 -10 -10 -29 -16 -43 -6 -14 -10 -51 -10 -82 l2 -57 -35 21 c-51 29
-67 66 -64 146 2 61 -6 166 -16 218 -3 11 -17 33 -31 47 -23 23 -35 27 -84 27
-65 0 -77 9 -90 65 -7 32 -5 39 27 72 32 33 35 40 31 84 -3 26 -12 55 -21 64
-10 9 -17 20 -17 25 0 5 -11 21 -24 37 -39 46 -60 140 -53 237 7 94 17 120 91
223 98 135 231 223 371 245 l76 12 -3 78 c-1 43 -5 78 -9 78 -3 0 -28 -12 -55
-26z"/>
<path d="M495 2077 l72 -143 -24 -30 c-14 -16 -38 -50 -55 -76 -24 -40 -35
-48 -59 -48 -36 0 -79 -39 -79 -72 0 -13 9 -38 20 -56 18 -30 19 -36 6 -85 -7
-28 -17 -75 -21 -104 l-7 -51 -128 -46 c-70 -25 -138 -46 -150 -46 -38 0 -18
-9 117 -55 70 -23 136 -46 145 -50 10 -4 19 -23 23 -48 4 -23 13 -68 21 -100
13 -51 13 -60 -1 -80 -35 -50 -2 -127 56 -127 18 0 31 -12 53 -50 16 -27 41
-61 54 -75 l25 -27 -76 -150 c-42 -82 -70 -148 -63 -146 7 2 71 34 143 72
l130 69 -54 106 c-29 58 -67 151 -83 206 -17 55 -35 114 -40 131 -6 17 -10 40
-10 53 0 12 -7 24 -15 27 -8 4 -12 11 -9 16 4 6 6 77 5 159 -4 296 28 434 164
714 48 97 52 111 38 120 -28 17 -258 134 -264 135 -3 0 27 -64 66 -143z"/>
<path d="M2145 2169 c-33 -17 -93 -49 -133 -70 -79 -44 -73 -44 -130 9 -27 24
-52 31 -34 10 21 -26 151 -295 170 -353 11 -33 28 -99 38 -147 12 -56 23 -88
31 -88 17 0 16 -15 -2 -30 -12 -10 -13 -16 -4 -26 16 -19 16 -248 0 -354 -24
-158 -77 -325 -152 -475 -49 -98 -63 -133 -47 -119 13 12 28 24 35 28 6 3 78
-28 159 -69 81 -41 149 -73 151 -71 2 1 -30 69 -72 149 l-74 146 34 53 c57 89
65 98 89 98 34 0 66 40 66 83 0 20 -4 37 -9 37 -19 0 -21 38 -6 81 8 24 18 67
21 95 l6 51 82 28 c44 15 115 39 156 53 l74 26 -45 11 c-24 5 -95 28 -157 50
-109 39 -112 41 -112 70 0 29 -5 51 -30 142 -11 38 -10 45 9 69 41 52 15 112
-54 123 -34 5 -42 13 -77 71 -22 36 -43 66 -47 68 -4 1 24 64 61 138 38 75 68
138 66 140 -2 1 -30 -11 -63 -27z"/>
<path d="M888 1938 c-72 -27 -82 -47 -57 -112 10 -27 25 -56 33 -65 9 -10 16
-23 16 -29 0 -22 40 -52 68 -52 15 0 60 14 101 30 87 36 94 36 131 10 26 -19
30 -19 45 -4 19 19 13 60 -16 108 -10 17 -26 44 -35 61 -35 62 -63 75 -156 74
-48 0 -92 -7 -130 -21z"/>
</g>
</svg>
