<?xml version="1.0" standalone="no"?>
<!DOCTYPE svg PUBLIC "-//W3C//DTD SVG 20010904//EN"
 "http://www.w3.org/TR/2001/REC-SVG-20010904/DTD/svg10.dtd">
<svg version="1.0" xmlns="http://www.w3.org/2000/svg"
 width="246.000000pt" height="300.000000pt" viewBox="0 0 246.000000 300.000000"
 preserveAspectRatio="xMidYMid meet">
<metadata>
Created by potrace 1.16, written by Peter Selinger 2001-2019
</metadata>
<g transform="translate(0.000000,300.000000) scale(0.100000,-0.100000)"
fill="#000000" stroke="none">
<path d="M1100 2719 c-99 -165 -109 -201 -58 -207 25 -3 33 5 80 80 l53 83 3
-319 c1 -176 1 -320 -1 -322 -1 -2 -43 11 -92 29 -86 30 -97 32 -235 32 -133
-1 -152 -3 -225 -28 -293 -102 -478 -346 -493 -648 -6 -136 14 -231 75 -359
39 -81 59 -107 137 -185 73 -73 108 -99 176 -133 189 -94 387 -106 581 -36 37
13 69 24 73 24 3 0 7 -134 8 -297 l3 -298 23 -3 c51 -8 52 -3 52 319 l0 298
53 -24 c95 -44 174 -59 297 -59 137 0 209 16 330 76 68 34 103 61 176 133 78
78 98 104 137 185 61 128 81 223 74 359 -6 141 -41 246 -119 363 -146 218
-372 329 -643 316 -93 -5 -180 -27 -287 -73 -17 -7 -18 12 -18 321 0 276 2
325 13 309 8 -11 30 -48 51 -82 28 -47 43 -63 60 -63 26 0 46 18 45 40 0 8
-42 83 -92 165 -125 203 -117 203 -237 4z m-125 -714 c56 -12 175 -52 175 -59
0 -1 -27 -30 -60 -64 -123 -129 -189 -282 -197 -458 -3 -58 0 -131 6 -170 24
-137 100 -282 200 -382 l52 -52 -53 -24 c-83 -36 -155 -50 -258 -49 -173 2
-327 70 -449 198 -121 128 -175 263 -175 440 0 94 4 122 28 190 109 315 417
496 731 430z m831 -19 c193 -62 340 -209 410 -411 24 -68 28 -96 28 -190 0
-126 -15 -191 -72 -300 -152 -289 -515 -418 -811 -289 l-54 24 51 50 c147 145
218 330 209 545 -8 182 -72 336 -197 467 -33 34 -60 63 -60 64 0 1 24 11 53
23 140 57 297 63 443 17z m-471 -193 c97 -117 155 -274 155 -415 -1 -144 -69
-314 -168 -419 l-61 -64 -1 483 c0 308 4 482 10 482 5 0 35 -30 65 -67z m-155
-415 l-1 -463 -48 52 c-59 63 -94 124 -129 223 -23 65 -26 91 -26 195 0 103 4
130 26 192 14 40 37 92 52 116 34 59 104 147 116 147 6 0 10 -168 10 -462z"/>
</g>
</svg>
