<?xml version="1.0" standalone="no"?>
<!DOCTYPE svg PUBLIC "-//W3C//DTD SVG 20010904//EN"
 "http://www.w3.org/TR/2001/REC-SVG-20010904/DTD/svg10.dtd">
<svg version="1.0" xmlns="http://www.w3.org/2000/svg"
 width="574.000000pt" height="574.000000pt" viewBox="0 0 574.000000 574.000000"
 preserveAspectRatio="xMidYMid meet">
<metadata>
Created by potrace 1.16, written by Peter Selinger 2001-2019
</metadata>
<g transform="translate(0.000000,574.000000) scale(0.100000,-0.100000)"
fill="#000000" stroke="none">
<path d="M2738 5323 c-134 -146 -229 -258 -306 -360 -26 -34 -58 -64 -70 -68
-16 -4 -22 -11 -18 -21 4 -10 -21 -58 -61 -122 -114 -183 -183 -346 -207 -495
-10 -65 -13 -72 -36 -75 -14 -2 -27 -6 -30 -8 -11 -12 23 -43 96 -87 71 -42
79 -50 76 -74 -3 -27 -3 -27 16 -9 20 17 22 16 89 -25 102 -63 98 -56 64 -130
-26 -59 -49 -129 -65 -202 l-6 -27 -70 35 c-38 19 -74 35 -80 35 -28 0 2 -22
125 -93 74 -43 137 -82 140 -87 6 -9 -14 -60 -24 -60 -3 0 -26 16 -51 36 -113
91 -359 271 -500 366 -243 165 -272 180 -104 55 133 -98 364 -292 560 -470 87
-78 176 -158 198 -178 l40 -36 -72 -46 c-40 -26 -75 -47 -77 -47 -8 0 -115
164 -115 177 0 6 9 14 19 18 11 3 22 13 25 21 5 12 2 15 -10 10 -60 -23 -56
-27 -145 126 -63 107 -85 137 -87 120 -2 -13 10 -47 27 -77 17 -30 31 -58 31
-63 0 -4 -26 -13 -57 -20 -32 -7 -96 -28 -143 -47 -47 -19 -88 -35 -91 -35 -4
0 -28 34 -55 76 -40 65 -45 80 -35 95 10 17 8 19 -12 19 -18 0 -32 15 -65 73
-50 88 -79 118 -92 97 -6 -8 -10 -23 -10 -32 0 -12 -11 -19 -37 -23 -191 -30
-330 -87 -545 -222 -62 -39 -93 -53 -108 -48 -16 5 -20 2 -21 -17 0 -17 -24
-41 -91 -93 -90 -69 -268 -223 -403 -348 l-70 -65 55 -57 c75 -78 283 -261
407 -358 79 -62 103 -86 103 -104 0 -20 3 -22 19 -14 15 9 33 1 92 -38 98 -64
208 -124 296 -160 83 -34 223 -71 269 -71 28 0 32 -4 38 -35 7 -34 8 -35 29
-20 12 8 42 50 67 93 38 63 50 76 68 74 16 -2 20 1 16 12 -3 9 -10 16 -15 16
-7 0 74 141 96 168 1 1 32 -11 68 -28 36 -16 101 -39 144 -51 43 -12 79 -23
81 -24 2 -2 -10 -30 -27 -64 -17 -33 -31 -71 -30 -83 0 -27 -6 -37 96 137 42
72 77 131 78 133 1 1 16 -4 34 -11 l31 -13 -86 -110 c-111 -141 -240 -318
-340 -469 -76 -114 -116 -179 -77 -125 149 205 534 653 690 802 l38 37 47 -75
48 -75 -92 -59 -92 -60 -14 25 c-25 48 -40 27 -18 -26 6 -15 -20 -32 -249
-166 -62 -36 -8 -30 66 8 34 17 63 28 65 26 3 -2 12 -33 21 -68 9 -35 31 -100
49 -143 19 -44 32 -82 29 -84 -2 -2 -39 -26 -81 -52 -66 -41 -79 -46 -91 -34
-20 20 -26 17 -20 -8 5 -20 -4 -29 -71 -68 -110 -63 -133 -99 -66 -100 18 0
22 -8 28 -54 16 -144 99 -344 216 -524 50 -77 58 -97 50 -113 -9 -16 -7 -19
13 -19 19 0 40 -20 88 -82 88 -114 236 -284 341 -393 l88 -90 87 90 c107 112
248 274 337 388 45 57 74 87 88 87 14 0 18 5 13 19 -3 12 14 48 51 107 119
190 189 355 215 508 10 56 17 76 28 76 9 0 23 4 31 10 21 13 -8 41 -97 93 -63
36 -73 45 -68 65 6 25 -9 30 -22 7 -7 -12 -23 -6 -91 36 -45 28 -82 54 -82 59
0 4 13 36 30 72 16 35 38 97 49 138 10 41 23 75 27 75 5 0 33 -13 62 -28 30
-16 63 -27 75 -25 16 2 -19 27 -121 87 -151 88 -146 82 -125 139 8 20 -15 14
-27 -8 -6 -11 -16 -20 -23 -20 -7 0 -50 25 -95 56 l-83 55 17 27 c10 15 32 49
48 76 l31 49 94 -99 c138 -146 371 -412 480 -549 160 -201 156 -196 115 -130
-79 128 -281 408 -407 563 -33 40 -58 74 -56 76 2 1 16 7 32 14 31 13 25 21
138 -173 49 -84 65 -105 67 -87 2 12 -10 48 -27 79 -17 31 -31 60 -31 64 0 3
30 14 68 23 37 10 102 33 145 51 l78 34 50 -77 c52 -82 54 -87 39 -97 -18 -11
-10 -27 10 -22 17 4 29 -8 67 -74 26 -44 56 -87 67 -95 20 -14 21 -13 29 20 8
33 10 34 69 40 136 16 341 101 516 215 77 51 97 59 113 51 16 -9 19 -7 19 13
0 19 20 40 82 88 111 86 282 234 393 340 l90 87 -92 87 c-141 131 -288 259
-385 333 -65 50 -88 73 -88 90 0 19 -4 21 -24 16 -17 -4 -44 8 -109 50 -188
123 -356 192 -539 221 -30 5 -38 11 -43 35 -4 17 -10 30 -15 30 -14 0 -56 -56
-92 -120 -25 -46 -38 -60 -55 -60 -20 0 -22 -3 -12 -18 10 -16 4 -31 -36 -93
-26 -41 -49 -76 -51 -78 -2 -2 -44 13 -93 33 -49 20 -115 41 -145 48 -31 6
-56 15 -56 20 0 5 14 36 31 69 16 33 29 68 27 77 -2 10 -40 -44 -88 -126 -90
-151 -86 -148 -144 -126 -26 10 -18 -16 9 -28 14 -6 25 -15 25 -20 0 -10 -108
-178 -114 -178 -3 0 -33 18 -67 40 -34 22 -66 40 -71 40 -23 0 7 31 175 183
226 205 449 394 590 500 59 44 107 82 107 84 0 16 -524 -357 -696 -495 l-50
-41 -12 32 c-15 40 -19 36 141 130 134 78 159 114 38 52 l-70 -35 -11 43 c-18
70 -42 139 -66 196 -13 29 -22 57 -19 61 12 20 159 103 163 92 6 -20 31 -14
25 7 -4 14 13 28 76 66 69 40 101 68 101 88 0 3 -13 7 -29 10 -26 6 -30 11
-36 59 -20 148 -102 346 -214 516 -41 62 -60 100 -56 112 4 13 -1 20 -18 27
-13 4 -61 54 -106 111 -101 128 -219 262 -323 370 -44 45 -81 82 -82 82 -1 0
-59 -62 -128 -137z m253 -79 c128 -142 309 -364 308 -379 0 -5 -44 -45 -97
-87 l-97 -77 -105 105 -105 105 81 79 c100 99 80 108 -30 14 -69 -59 -79 -65
-94 -52 -9 8 -44 38 -76 66 -33 29 -69 52 -79 52 -14 0 5 -23 64 -79 l84 -78
-106 -106 -105 -105 -94 75 c-52 41 -98 78 -102 81 -14 13 406 512 431 512 4
0 59 -57 122 -126z m-61 -421 c31 -32 74 -79 98 -104 l42 -45 -100 -88 -100
-87 -100 87 -100 88 27 30 c54 61 168 176 173 176 3 0 30 -26 60 -57z m-433
-89 l94 -75 -18 -23 c-86 -110 -188 -233 -201 -243 -9 -7 -13 -13 -10 -13 4 0
-18 -39 -48 -86 -30 -48 -65 -111 -79 -140 -14 -30 -28 -54 -31 -54 -3 0 -30
15 -59 33 -49 29 -53 34 -48 62 13 67 68 216 118 317 50 100 171 298 182 298
3 0 48 -34 100 -76z m903 -6 c82 -126 165 -292 205 -410 47 -142 47 -149 -15
-187 -28 -17 -52 -31 -55 -31 -3 0 -19 28 -36 63 -17 34 -52 94 -77 132 -25
39 -45 76 -45 83 0 6 -4 12 -8 12 -4 0 -45 48 -92 108 -46 59 -94 116 -106
126 -11 11 -21 24 -21 30 1 10 178 155 190 156 3 0 30 -37 60 -82z m-683 -176
c43 -38 83 -75 89 -83 10 -11 -8 -35 -90 -120 l-102 -107 -97 66 -96 65 30 41
c53 73 169 206 179 206 5 0 45 -31 87 -68z m505 -56 l98 -119 -98 -68 -97 -67
-100 106 c-55 58 -100 108 -100 112 0 14 171 159 185 157 8 -1 59 -56 112
-121z m-249 -185 c53 -54 97 -100 97 -103 0 -3 -45 -42 -100 -87 l-101 -81
-80 65 c-44 36 -89 71 -100 78 -10 6 -19 16 -19 22 0 10 190 205 200 205 4 0
50 -44 103 -99z m-475 -29 l91 -69 -28 -34 c-39 -47 -138 -186 -143 -200 -3
-9 -108 49 -176 97 -8 5 11 46 58 124 44 71 98 150 104 150 2 0 44 -31 94 -68z
m906 -29 c65 -99 103 -170 95 -176 -2 -2 -42 -27 -88 -55 l-84 -51 -49 72
c-28 40 -68 94 -90 121 -23 26 -37 51 -32 55 5 3 47 34 93 69 45 34 85 62 87
62 2 0 33 -44 68 -97z m-669 -158 c50 -41 90 -79 90 -84 0 -4 -43 -49 -96 -99
l-95 -90 -79 54 c-44 30 -83 58 -88 63 -10 10 154 231 172 231 3 0 47 -34 96
-75z m422 13 c28 -35 67 -86 87 -115 l37 -52 -88 -59 -88 -59 -100 93 c-88 82
-98 95 -85 108 30 29 175 146 180 146 4 0 29 -28 57 -62z m-191 -215 c52 -49
94 -91 94 -94 0 -4 -43 -41 -95 -83 l-94 -76 -101 78 -101 77 98 92 c54 51 99
93 101 93 2 0 46 -39 98 -87z m-448 -65 c39 -27 72 -52 72 -55 0 -4 -13 -21
-29 -38 -16 -16 -55 -66 -86 -110 -31 -44 -59 -79 -61 -78 -3 1 -29 15 -59 32
l-54 31 20 57 c31 90 100 223 113 216 6 -4 44 -28 84 -55z m839 -21 c20 -40
46 -100 59 -134 l23 -62 -53 -30 c-29 -17 -58 -31 -64 -31 -7 0 -19 14 -27 30
-9 17 -45 67 -81 111 -36 45 -62 85 -57 90 24 24 149 106 156 102 4 -2 24 -37
44 -76z m-609 -150 l73 -59 -88 -93 c-48 -51 -90 -93 -94 -94 -4 -1 -172 101
-187 115 -6 5 46 76 110 150 73 84 58 86 186 -19z m504 -73 c22 -30 39 -56 37
-58 -2 -2 -45 -29 -96 -60 l-92 -56 -88 91 c-48 50 -89 94 -90 97 -1 4 39 40
90 79 l92 73 53 -56 c29 -30 71 -80 94 -110z m-1645 1 l32 -55 -70 -35 c-38
-20 -101 -56 -140 -81 -39 -24 -74 -42 -80 -39 -5 4 -9 0 -9 -8 0 -7 -19 -27
-42 -44 -24 -17 -81 -63 -128 -102 -47 -39 -88 -71 -91 -71 -4 0 -41 43 -83
95 l-77 95 93 60 c158 102 300 171 448 216 107 33 110 32 147 -31z m2712 18
c47 -15 135 -52 196 -82 114 -57 295 -170 295 -184 0 -11 -140 -187 -150 -187
-4 0 -41 28 -82 63 -40 34 -97 79 -126 100 -28 21 -52 43 -52 48 0 5 -5 9 -12
9 -6 0 -46 22 -88 49 -42 27 -103 62 -136 78 -32 15 -61 29 -62 30 -2 1 11 27
30 58 32 54 34 56 67 51 19 -3 73 -18 120 -33z m-1365 -124 c42 -40 81 -79 86
-88 7 -14 -8 -30 -80 -84 l-90 -67 -90 66 c-49 37 -90 70 -90 74 0 10 166 170
178 170 5 0 44 -32 86 -71z m-1246 -63 c29 -47 52 -87 52 -90 0 -3 -33 -27
-72 -54 -40 -27 -93 -66 -116 -86 -24 -20 -48 -34 -53 -31 -12 8 -129 167
-129 176 0 14 240 169 261 169 3 0 29 -38 57 -84z m2441 52 c74 -42 201 -129
201 -138 0 -16 -132 -180 -141 -175 -5 4 -46 34 -92 68 -46 34 -96 71 -112 83
l-29 20 53 87 c30 48 56 87 59 87 2 0 30 -14 61 -32z m-1622 -39 c43 -29 79
-53 81 -55 2 -1 -9 -20 -25 -42 l-29 -39 -85 70 c-82 68 -85 71 -67 89 10 10
18 23 18 29 0 16 20 6 107 -52z m805 32 l16 -30 -61 -52 c-34 -29 -71 -61 -83
-71 -21 -18 -21 -18 -48 23 -15 22 -26 42 -24 43 15 13 174 116 178 116 3 0
12 -13 22 -29z m-1171 -88 c31 -53 31 -57 14 -67 -36 -22 -170 -123 -184 -139
-7 -9 -19 -17 -26 -17 -15 0 -116 150 -109 162 12 19 228 116 261 118 6 0 26
-26 44 -57z m1531 33 c74 -27 184 -82 192 -94 3 -5 -20 -46 -50 -90 l-56 -81
-61 52 c-34 29 -86 68 -114 86 -29 19 -53 36 -53 38 0 7 42 88 52 101 14 16
18 16 90 -12z m-947 -128 c47 -34 84 -65 83 -68 -2 -3 -22 -23 -45 -44 l-43
-38 -61 53 -61 53 41 20 c22 11 41 24 41 28 0 11 -12 10 -59 -7 -22 -8 -41
-12 -41 -9 0 7 51 74 56 74 3 0 43 -28 89 -62z m368 28 c15 -19 27 -37 27 -40
0 -3 -19 1 -41 9 -47 17 -59 18 -59 7 0 -5 16 -16 35 -25 19 -9 35 -20 35 -25
0 -4 -25 -30 -55 -56 l-56 -48 -42 38 c-23 21 -42 42 -42 46 0 7 155 127 165
128 3 0 17 -16 33 -34z m-1688 -84 c33 -48 60 -91 60 -97 0 -5 -47 -55 -104
-110 l-103 -100 -60 65 c-33 36 -71 79 -85 97 l-25 32 38 33 c66 59 205 168
212 168 4 -1 34 -40 67 -88z m3072 0 c59 -49 113 -95 120 -103 10 -13 -2 -31
-68 -107 -44 -51 -83 -92 -86 -92 -7 0 -207 190 -211 201 -4 9 119 189 129
189 4 0 56 -40 116 -88z m-3551 -12 c37 -47 71 -90 76 -97 6 -7 -25 -45 -97
-116 l-105 -105 -75 81 c-57 62 -75 77 -75 61 0 -12 29 -54 65 -94 l64 -74
-64 -72 c-94 -105 -85 -128 13 -31 l77 77 104 -104 104 -105 -77 -95 c-42 -53
-82 -96 -89 -96 -17 0 -234 176 -381 309 l-126 115 22 24 c80 85 474 415 489
410 4 -2 37 -41 75 -88z m3988 43 c93 -72 240 -197 348 -296 l98 -89 -73 -68
c-152 -141 -383 -336 -427 -360 -11 -6 -34 15 -90 86 -41 52 -76 97 -78 102
-1 4 44 53 101 110 l103 103 77 -80 c55 -56 77 -73 77 -60 0 17 -16 39 -108
140 l-23 27 65 73 c36 41 66 83 65 94 0 15 -20 -2 -77 -63 l-77 -83 -104 104
c-77 78 -101 108 -95 119 16 26 147 188 152 188 3 0 33 -21 66 -47z m-2662
-66 l55 -88 -92 -89 c-50 -50 -94 -90 -97 -90 -8 0 -148 175 -148 185 0 19
211 188 221 177 4 -4 31 -47 61 -95z m1413 -21 l67 -61 -72 -93 c-40 -51 -77
-91 -81 -90 -4 2 -48 42 -98 91 l-90 87 46 73 c25 39 52 82 60 95 l14 23 44
-32 c24 -17 73 -59 110 -93z m-1830 23 c31 -45 54 -85 53 -89 -2 -4 -44 -50
-94 -103 l-91 -96 -81 97 c-61 74 -78 100 -69 110 16 20 206 162 217 162 5 0
34 -37 65 -81z m2182 22 c114 -87 136 -106 132 -118 -2 -6 -38 -52 -79 -102
l-75 -91 -90 97 c-49 53 -91 100 -93 104 -4 11 106 169 118 169 4 0 44 -27 87
-59z m-1378 -127 c15 -14 15 -14 -94 -136 l-42 -47 -62 84 c-33 47 -61 89 -61
94 0 5 16 21 35 35 38 29 41 26 24 -22 -6 -17 -9 -39 -6 -49 3 -14 8 -10 20
17 8 19 27 57 42 83 l27 48 52 -47 c28 -26 57 -53 65 -60z m589 11 c27 -53 37
-65 40 -49 2 12 -4 38 -12 58 -14 34 -14 36 2 26 9 -5 28 -18 42 -29 l24 -19
-36 -54 c-21 -29 -50 -68 -66 -87 l-28 -34 -77 79 -77 79 67 62 c48 45 69 59
75 50 5 -6 25 -43 46 -82z m-325 43 l47 -43 -50 -43 -50 -44 -50 42 c-28 23
-50 45 -50 48 1 8 92 82 100 82 3 0 27 -19 53 -42z m-1313 -165 c41 -52 76
-99 78 -103 4 -10 -149 -200 -161 -200 -4 0 -53 44 -108 97 l-100 97 103 103
c56 57 105 103 108 103 3 -1 39 -44 80 -97z m2708 -6 l103 -104 -106 -101
-107 -101 -79 100 c-43 54 -79 101 -80 105 -1 7 154 203 161 204 3 0 52 -47
108 -103z m529 -59 l43 -44 -106 -98 c-102 -96 -106 -98 -123 -80 -9 10 -49
55 -88 99 l-71 81 86 100 87 101 65 -58 c36 -31 84 -77 107 -101z m-3695 54
l86 -98 -47 -50 c-25 -27 -65 -71 -88 -98 l-42 -50 -107 99 -107 99 102 98
c56 54 105 98 109 98 5 0 47 -44 94 -98z m826 55 c17 -24 51 -68 76 -98 l45
-54 -23 -25 c-13 -14 -48 -57 -79 -97 l-54 -72 -93 94 c-50 52 -90 99 -88 104
5 15 168 191 177 191 4 0 22 -19 39 -43z m1917 -52 c101 -111 104 -85 -23
-216 l-74 -77 -78 97 c-74 92 -76 97 -61 117 102 134 135 174 141 174 4 0 46
-43 95 -95z m-1466 -9 c33 -46 61 -87 61 -90 0 -5 -112 -160 -125 -175 -7 -7
-86 64 -136 121 l-51 59 88 89 c48 49 90 87 94 85 4 -3 35 -43 69 -89z m1055
-7 l77 -82 -88 -89 c-48 -48 -90 -88 -93 -88 -3 0 -35 40 -71 88 l-66 88 66
91 c52 71 69 88 82 82 9 -4 51 -45 93 -90z m-764 -95 l-85 -85 -37 43 c-21 24
-38 49 -38 55 0 7 32 49 71 94 l72 81 51 -51 51 -51 -85 -86z m451 29 c10 -19
7 -27 -26 -68 -21 -25 -41 -44 -44 -43 -4 2 -42 40 -86 86 l-78 83 49 50 49
50 62 -68 c34 -37 67 -78 74 -90z m-211 -98 c73 -73 82 -87 70 -98 -8 -8 -48
-42 -87 -77 l-73 -63 -85 73 c-47 40 -85 75 -85 78 0 8 162 172 170 172 3 0
43 -38 90 -85z m-1140 -55 l92 -100 -58 -85 c-32 -47 -60 -85 -63 -85 -6 0
-151 108 -204 152 l-28 23 81 98 c45 53 83 97 85 97 1 0 44 -45 95 -100z m737
-50 c-28 -30 -52 -57 -53 -58 -2 -2 -13 16 -25 40 -17 31 -24 38 -27 25 -2
-10 1 -32 7 -49 6 -17 10 -33 8 -34 -6 -6 -67 41 -67 51 0 6 28 48 62 94 l61
84 43 -49 42 -49 -51 -55z m728 57 c63 -84 63 -86 4 -128 l-28 -20 15 46 c22
62 12 79 -15 28 -12 -24 -23 -43 -24 -43 -1 0 -26 26 -54 58 l-51 59 40 47
c22 26 44 44 48 39 4 -4 33 -43 65 -86z m824 -17 l70 -85 -22 -18 c-118 -97
-209 -159 -218 -150 -6 6 -35 46 -64 89 l-53 79 96 97 c76 77 99 95 108 85 7
-6 44 -50 83 -97z m-2725 -4 l109 -105 -64 -95 c-35 -52 -66 -95 -69 -96 -6 0
-151 116 -215 172 l-39 35 84 96 c47 53 85 97 85 97 0 0 49 -47 109 -104z
m938 -82 c2 -11 -107 -183 -117 -184 -12 0 -170 126 -199 158 -19 22 -19 22
38 94 31 40 64 83 74 94 17 21 17 21 110 -67 51 -49 93 -91 94 -95z m2228 87
l83 -95 -34 -29 c-86 -73 -220 -179 -223 -176 -1 2 -31 46 -66 97 l-64 93 104
104 c58 58 108 104 111 103 3 -2 44 -45 89 -97z m-865 -6 l69 -88 -49 -44
c-63 -57 -161 -133 -172 -133 -4 0 -33 42 -65 93 l-56 92 91 87 c51 48 97 86
102 84 6 -1 41 -42 80 -91z m-930 -122 l77 -72 -88 -64 -87 -65 -29 35 c-15
20 -27 38 -25 40 2 2 22 -3 45 -11 69 -25 58 1 -17 38 -38 20 -73 41 -76 47
-7 11 103 132 116 127 3 -2 41 -35 84 -75z m380 17 c41 -42 56 -63 49 -70 -6
-6 -44 -28 -84 -49 -76 -40 -82 -61 -10 -36 23 8 45 15 47 15 9 0 -40 -62 -53
-67 -9 -3 -125 72 -173 114 -5 4 150 152 159 153 3 0 32 -27 65 -60z m-695
-57 c0 -3 -97 -120 -130 -156 -8 -9 -60 20 -60 33 0 4 25 46 56 93 l56 86 39
-26 c21 -14 39 -28 39 -30z m1030 -144 c-14 -10 -28 -19 -31 -19 -13 0 -141
162 -133 169 5 4 22 17 38 30 l29 21 61 -91 60 -91 -24 -19z m-2322 123 c37
-31 95 -79 130 -105 34 -27 62 -55 62 -62 0 -8 6 -12 14 -9 8 3 37 -9 63 -28
26 -18 87 -53 135 -78 l88 -46 -36 -57 c-33 -53 -37 -56 -67 -50 -127 24 -370
134 -534 242 -71 47 -80 56 -70 71 25 35 142 180 145 180 2 0 33 -26 70 -58z
m554 -80 c32 -20 58 -40 58 -44 0 -14 -102 -168 -111 -168 -28 0 -259 146
-259 163 0 6 30 50 66 98 l66 87 62 -49 c33 -28 87 -67 118 -87z m466 -22 l23
-15 -31 -57 c-17 -32 -33 -58 -34 -58 -28 0 -276 113 -276 126 0 6 77 123 97
146 13 15 23 10 106 -55 51 -40 103 -79 115 -87z m1666 81 c31 -43 56 -82 56
-85 0 -12 -248 -126 -274 -126 -5 0 -66 105 -66 113 0 4 26 24 58 45 31 22 82
60 112 85 30 26 56 47 57 47 1 0 27 -36 57 -79z m901 -11 c38 -49 71 -94 73
-100 5 -13 -153 -116 -276 -178 -99 -52 -280 -118 -336 -124 -26 -3 -33 3 -62
51 l-33 55 88 47 c49 25 109 60 134 78 25 17 52 31 60 31 9 0 17 5 19 10 3 11
248 218 258 219 3 0 36 -40 75 -89z m-447 -5 c34 -47 62 -88 62 -92 0 -10
-118 -91 -200 -136 l-65 -36 -53 85 c-28 46 -52 88 -52 92 0 4 26 24 58 44 31
21 82 58 112 82 30 25 60 45 65 45 6 0 38 -38 73 -84z m-1322 -74 l87 -63 -91
-91 -90 -90 -56 50 c-88 78 -132 134 -115 143 8 5 48 34 88 64 41 31 78 55 82
54 4 -2 47 -32 95 -67z m-228 -202 l82 -86 -91 -71 c-50 -40 -95 -72 -99 -72
-17 0 -186 207 -177 217 3 3 45 31 94 63 64 41 91 54 98 46 6 -6 48 -50 93
-97z m462 45 c79 -49 89 -58 79 -75 -16 -31 -159 -199 -168 -199 -8 0 -191
137 -191 143 1 6 176 186 182 187 4 0 48 -25 98 -56z m-749 -121 c18 -27 57
-79 87 -116 29 -38 52 -70 50 -72 -14 -13 -153 -105 -160 -105 -15 0 -137 266
-126 275 5 4 113 65 115 65 1 0 16 -21 34 -47z m925 16 c30 -17 54 -37 54 -45
0 -30 -72 -199 -109 -253 -8 -12 -24 -5 -90 38 -45 30 -81 56 -81 58 0 3 27
40 61 82 34 42 71 93 83 113 11 21 23 38 25 38 2 0 28 -14 57 -31z m-411 -140
c50 -39 91 -75 93 -79 4 -9 -176 -180 -190 -180 -13 0 -189 171 -186 181 4 9
180 149 187 149 3 0 47 -32 96 -71z m-230 -203 c55 -52 98 -96 95 -98 -3 -3
-47 -40 -99 -82 l-94 -78 -19 23 c-116 144 -161 212 -147 219 7 5 46 31 84 59
39 27 72 50 75 50 3 0 50 -42 105 -93z m459 35 l86 -58 -41 -59 c-23 -32 -62
-84 -87 -114 -25 -30 -47 -57 -48 -59 -2 -2 -47 33 -101 78 l-99 82 95 94 c53
52 99 95 102 95 4 0 46 -26 93 -59z m-749 -138 c16 -27 56 -80 87 -120 l57
-71 -82 -63 c-45 -34 -87 -66 -93 -71 -17 -13 -181 236 -172 262 3 9 157 109
168 110 3 0 18 -21 35 -47z m971 -5 c46 -28 84 -53 84 -55 0 -12 -60 -118
-107 -189 -37 -55 -60 -81 -67 -76 -6 5 -48 37 -94 71 l-83 62 49 62 c27 34
66 88 87 120 21 31 40 57 42 57 2 0 42 -23 89 -52z m-448 -94 c53 -42 98 -80
100 -84 1 -4 -43 -54 -98 -111 l-101 -104 -100 103 c-55 57 -99 107 -97 112 3
8 189 159 196 160 2 0 47 -34 100 -76z m-640 -196 c17 -25 32 -51 34 -57 2 -6
17 -28 35 -49 125 -146 194 -235 186 -242 -4 -5 -48 -40 -97 -79 l-89 -71 -55
82 c-83 123 -167 291 -205 408 -55 166 -56 153 11 192 l57 34 46 -86 c25 -48
60 -107 77 -132z m1297 64 c-26 -98 -79 -226 -132 -322 -60 -108 -142 -230
-154 -230 -12 0 -189 138 -189 147 0 3 33 44 73 91 40 48 86 106 102 129 17
24 36 43 43 43 7 0 11 4 8 9 -3 5 15 39 40 77 25 38 61 101 81 140 l35 72 58
-35 58 -34 -23 -87z m-908 -97 c57 -58 103 -107 103 -109 0 -6 -179 -160 -190
-164 -4 -2 -48 46 -96 105 -48 59 -94 115 -101 124 -13 15 -4 24 79 82 51 36
95 66 97 66 3 1 51 -46 108 -104z m507 40 l96 -66 -41 -52 c-71 -90 -163 -197
-169 -197 -9 0 -190 160 -190 168 0 5 201 212 206 212 1 0 45 -29 98 -65z
m-249 -283 l97 -83 -103 -105 -104 -104 -99 105 -99 106 39 32 c21 18 65 56
98 85 33 29 63 51 67 50 4 -2 51 -40 104 -86z m-238 -214 l103 -103 -77 -77
c-99 -99 -72 -109 34 -13 l72 66 72 -66 c41 -37 82 -65 93 -65 16 1 2 18 -59
75 l-80 74 106 106 105 106 97 -77 c53 -43 97 -81 97 -85 0 -20 -224 -290
-359 -431 l-73 -78 -68 73 c-168 180 -364 420 -358 438 3 10 177 156 188 158
2 1 51 -45 107 -101z"/>
</g>
</svg>
