<?xml version="1.0" standalone="no"?>
<!DOCTYPE svg PUBLIC "-//W3C//DTD SVG 20010904//EN"
 "http://www.w3.org/TR/2001/REC-SVG-20010904/DTD/svg10.dtd">
<svg version="1.0" xmlns="http://www.w3.org/2000/svg"
 width="300.000000pt" height="225.000000pt" viewBox="0 0 300.000000 225.000000"
 preserveAspectRatio="xMidYMid meet">
<metadata>
Created by potrace 1.16, written by Peter Selinger 2001-2019
</metadata>
<g transform="translate(0.000000,225.000000) scale(0.100000,-0.100000)"
fill="#000000" stroke="none">
<path d="M1419 2067 c-8 -7 -24 -24 -33 -39 l-18 -28 -387 0 c-407 0 -411 0
-411 -45 0 -32 -359 -947 -381 -971 -24 -25 -25 -68 -1 -91 9 -10 26 -35 36
-56 55 -106 193 -167 383 -167 111 0 192 17 266 57 86 47 147 136 147 214 0
13 -74 229 -165 480 -91 251 -165 462 -165 468 0 8 97 11 349 11 314 0 352 -2
380 -17 l31 -18 0 -852 c0 -761 2 -853 16 -867 22 -23 71 -20 84 3 7 13 10
308 10 885 l0 866 380 0 c327 0 380 -2 380 -15 0 -16 -313 -886 -331 -922 -10
-18 -8 -32 10 -77 60 -146 192 -216 406 -216 203 0 330 62 396 191 30 60 36
98 20 115 -5 5 -89 212 -185 460 -126 323 -176 463 -176 492 0 74 11 72 -457
72 l-412 0 -12 23 c-20 39 -51 57 -99 56 -25 0 -52 -5 -61 -12z m1140 -657
c87 -223 156 -408 154 -412 -2 -5 -141 -8 -308 -8 -167 0 -306 3 -308 8 -2 4
51 160 119 347 68 187 136 374 151 415 14 41 28 70 30 65 2 -6 74 -192 162
-415z m-1790 7 c80 -221 147 -408 149 -414 3 -10 -62 -13 -307 -13 -236 0
-311 3 -311 12 0 18 312 818 319 818 3 0 71 -181 150 -403z m151 -527 c0 -29
-66 -87 -129 -111 -87 -34 -250 -38 -341 -9 -74 24 -153 82 -163 120 -5 20 -1
20 314 20 310 0 319 -1 319 -20z m1810 9 c0 -7 -21 -33 -47 -59 -64 -63 -146
-90 -278 -90 -130 0 -210 26 -276 89 -27 26 -49 53 -49 59 0 9 81 12 325 12
237 0 325 -3 325 -11z"/>
</g>
</svg>
