<?xml version="1.0" encoding="UTF-8" standalone="no"?>
<svg
   xmlns:dc="http://purl.org/dc/elements/1.1/"
   xmlns:cc="http://creativecommons.org/ns#"
   xmlns:rdf="http://www.w3.org/1999/02/22-rdf-syntax-ns#"
   xmlns:svg="http://www.w3.org/2000/svg"
   xmlns="http://www.w3.org/2000/svg"
   xmlns:sodipodi="http://sodipodi.sourceforge.net/DTD/sodipodi-0.dtd"
   xmlns:inkscape="http://www.inkscape.org/namespaces/inkscape"
   version="1.0"
   width="300.000000pt"
   height="225.000000pt"
   viewBox="0 0 300.000000 225.000000"
   preserveAspectRatio="xMidYMid meet"
   id="svg2625"
   sodipodi:docname="judge.svg"
   inkscape:version="1.0.1 (3bc2e813f5, 2020-09-07)">
  <defs
     id="defs2629" />
  <sodipodi:namedview
     pagecolor="#ffffff"
     bordercolor="#666666"
     borderopacity="1"
     objecttolerance="10"
     gridtolerance="10"
     guidetolerance="10"
     inkscape:pageopacity="0"
     inkscape:pageshadow="2"
     inkscape:window-width="1600"
     inkscape:window-height="837"
     id="namedview2627"
     showgrid="false"
     inkscape:zoom="1.5792051"
     inkscape:cx="233.50802"
     inkscape:cy="113.27719"
     inkscape:window-x="-8"
     inkscape:window-y="-8"
     inkscape:window-maximized="1"
     inkscape:current-layer="svg2625" />
  <metadata
     id="metadata2619">
Created by potrace 1.16, written by Peter Selinger 2001-2019
<rdf:RDF>
  <cc:Work
     rdf:about="">
    <dc:format>image/svg+xml</dc:format>
    <dc:type
       rdf:resource="http://purl.org/dc/dcmitype/StillImage" />
  </cc:Work>
</rdf:RDF>
</metadata>
  <path
     style="fill:#ffffff;stroke-width:0.447761"
     d="m 197.18575,3.1553172 c -8.09807,-0.2425397 -16.46451,2.0681077 -22.31897,7.8970388 -1.55136,2.094215 -3.45249,3.117594 -6.10162,2.533385 -27.75478,0.18657 -55.52859,-0.433192 -83.269612,0.611113 -9.163406,0.279732 -19.420897,2.441951 -24.931351,10.511509 -3.933342,5.051688 -3.744203,11.736164 -6.332876,17.392849 -11.692913,32.149755 -24.326787,64.016378 -37.22848,95.818908 -3.641931,8.69692 -7.042435,17.54028 -11.6574004,25.76545 -3.9392252,9.59552 -2.6547116,21.25996 4.06422,29.32332 4.3241884,6.70378 8.2207634,13.86209 14.4330404,19.08125 15.772908,14.24613 37.844167,18.40331 58.480933,18.29874 20.785696,0.0302 42.877866,-5.47248 57.774316,-20.80691 9.27516,-9.684 16.26709,-22.8174 15.49149,-36.53189 -1.59123,-10.02574 -5.75517,-19.41991 -8.78408,-29.06273 -8.94264,-25.80448 -18.33447,-51.450017 -27.4531,-77.192224 18.12014,-0.121389 36.24221,-0.21871 54.36188,0.0052 0.2213,68.501944 -0.0212,137.007404 0.67252,205.506644 -0.45376,10.01315 3.27612,20.98944 12.31025,26.26822 11.81125,7.33475 29.27565,3.99943 36.71523,-7.98697 4.60989,-7.98973 3.14322,-17.57871 3.72639,-26.39605 0.74359,-65.87044 0.34794,-131.74761 0.46962,-197.620972 18.2244,0.01739 36.44908,-0.03087 54.67322,0.08745 -11.49326,32.339814 -22.94785,64.809372 -35.1228,96.726782 -2.91538,5.95594 -3.6955,12.92003 -1.24189,19.17521 5.72926,20.81244 22.80097,37.92526 43.60338,43.71157 15.71092,4.56322 32.43093,4.93132 48.59328,3.01208 18.5752,-2.44999 37.04052,-11.22682 47.93493,-26.92251 6.91542,-10.23635 13.03734,-22.79302 9.92159,-35.4431 -2.1996,-7.3306 -5.956,-14.09441 -8.5578,-21.29451 -12.69677,-31.86092 -25.43548,-63.723124 -36.97808,-96.023996 -1.65766,-4.613371 -3.07456,-9.318034 -3.27097,-14.23671 -1.56581,-10.31609 -10.53149,-18.228998 -20.57777,-20.032941 -11.91323,-1.986428 -24.07763,-1.167842 -36.105,-1.51356 C 267.8633,13.631367 245.11907,13.786478 222.5822,13.454699 216.26561,6.1893081 206.65178,2.8492142 197.18575,3.1553172 Z M 321.91435,117.05545 c 4.0205,10.35056 8.03309,20.70436 11.97237,31.08617 -9.04374,0.0988 -18.08856,0.0994 -27.13241,0.0122 4.28752,-12.20724 8.63698,-24.26683 13.06291,-36.48204 0.69904,1.79454 1.39809,3.58908 2.09713,5.38363 z m -234.975802,9.05054 c 2.649206,7.35387 5.297888,14.70792 7.946888,22.06186 -9.029123,0.1081 -18.059512,0.10608 -27.088679,0.004 4.633531,-12.09482 9.310177,-24.17309 14.023146,-36.23717 1.706216,4.72394 3.412433,9.44788 5.118645,14.17181 z"
     id="path3192"
     transform="scale(0.75)" />
  <g
     transform="translate(0.000000,225.000000) scale(0.100000,-0.100000)"
     fill="#000000"
     stroke="none"
     id="g2623">
    <path
       d="M1419 2067 c-8 -7 -24 -24 -33 -39 l-18 -28 -387 0 c-407 0 -411 0 -411 -45 0 -32 -359 -947 -381 -971 -24 -25 -25 -68 -1 -91 9 -10 26 -35 36 -56 55 -106 193 -167 383 -167 111 0 192 17 266 57 86 47 147 136 147 214 0 13 -74 229 -165 480 -91 251 -165 462 -165 468 0 8 97 11 349 11 314 0 352 -2 380 -17 l31 -18 0 -852 c0 -761 2 -853 16 -867 22 -23 71 -20 84 3 7 13 10 308 10 885 l0 866 380 0 c327 0 380 -2 380 -15 0 -16 -313 -886 -331 -922 -10 -18 -8 -32 10 -77 60 -146 192 -216 406 -216 203 0 330 62 396 191 30 60 36 98 20 115 -5 5 -89 212 -185 460 -126 323 -176 463 -176 492 0 74 11 72 -457 72 l-412 0 -12 23 c-20 39 -51 57 -99 56 -25 0 -52 -5 -61 -12z m1140 -657 c87 -223 156 -408 154 -412 -2 -5 -141 -8 -308 -8 -167 0 -306 3 -308 8 -2 4 51 160 119 347 68 187 136 374 151 415 14 41 28 70 30 65 2 -6 74 -192 162 -415z m-1790 7 c80 -221 147 -408 149 -414 3 -10 -62 -13 -307 -13 -236 0 -311 3 -311 12 0 18 312 818 319 818 3 0 71 -181 150 -403z m151 -527 c0 -29 -66 -87 -129 -111 -87 -34 -250 -38 -341 -9 -74 24 -153 82 -163 120 -5 20 -1 20 314 20 310 0 319 -1 319 -20z m1810 9 c0 -7 -21 -33 -47 -59 -64 -63 -146 -90 -278 -90 -130 0 -210 26 -276 89 -27 26 -49 53 -49 59 0 9 81 12 325 12 237 0 325 -3 325 -11z"
       id="path2621" />
  </g>
</svg>
