<?xml version="1.0" standalone="no"?>
<!DOCTYPE svg PUBLIC "-//W3C//DTD SVG 20010904//EN"
 "http://www.w3.org/TR/2001/REC-SVG-20010904/DTD/svg10.dtd">
<svg version="1.0" xmlns="http://www.w3.org/2000/svg"
 width="313.000000pt" height="309.000000pt" viewBox="0 0 313.000000 309.000000"
 preserveAspectRatio="xMidYMid meet">
<metadata>
Created by potrace 1.16, written by Peter Selinger 2001-2019
</metadata>
<g transform="translate(0.000000,309.000000) scale(0.100000,-0.100000)"
fill="#000000" stroke="none">
<path d="M1504 2868 l-50 -152 -75 -12 c-41 -6 -102 -19 -136 -29 -61 -17 -62
-17 -89 4 -31 25 -64 27 -103 6 -29 -15 -54 -65 -45 -89 3 -8 -13 -24 -43 -41
-26 -16 -64 -41 -84 -57 -20 -15 -39 -28 -42 -28 -17 0 -47 73 -47 114 0 46 0
46 -34 46 -33 0 -66 -27 -79 -63 -3 -8 -33 2 -91 30 -47 24 -86 41 -86 38 0
-3 28 -60 61 -128 34 -67 65 -137 70 -155 10 -45 -5 -95 -55 -174 -38 -63 -43
-68 -77 -68 -79 0 -120 -100 -65 -155 24 -24 24 -26 10 -72 -8 -26 -20 -84
-27 -127 l-13 -80 -179 -60 -180 -60 183 -58 182 -59 1 -32 c0 -18 11 -72 23
-122 23 -88 24 -90 5 -111 -21 -22 -25 -74 -9 -105 12 -21 60 -49 87 -49 11
-1 39 -34 77 -92 l59 -91 -86 -174 c-48 -95 -85 -173 -82 -173 3 0 82 38 176
86 l171 85 49 -33 c27 -18 49 -37 49 -43 0 -5 -9 -21 -20 -35 -11 -14 -20 -41
-20 -62 l0 -38 48 0 c26 0 53 4 61 9 9 6 25 2 45 -10 40 -25 77 -24 110 2 l27
21 77 -21 c42 -11 100 -23 128 -27 l50 -6 59 -179 c33 -98 62 -179 65 -179 3
0 32 81 65 179 l59 179 40 6 c23 4 78 16 123 27 76 19 85 19 105 5 47 -33 116
-11 136 44 8 22 15 25 58 25 l49 0 3 40 c2 32 11 46 40 71 l37 32 177 -89 c98
-49 180 -89 183 -89 3 0 -35 81 -85 179 l-89 179 55 84 c46 68 62 85 90 91 50
13 87 62 80 105 -3 19 -12 42 -21 51 -13 16 -13 25 4 97 11 43 23 97 28 118
l8 39 185 62 185 62 -186 62 -187 62 -6 49 c-4 27 -15 83 -26 126 -20 76 -20
76 0 101 47 60 9 153 -62 153 -31 0 -38 7 -88 83 -30 45 -56 87 -58 93 -2 7
34 82 78 168 45 86 79 156 76 156 -4 0 -42 -18 -86 -40 -44 -22 -81 -40 -83
-40 -3 0 -7 19 -11 42 -9 53 -21 68 -56 68 -25 0 -32 -7 -53 -52 -24 -51 -60
-98 -75 -98 -4 0 -38 21 -76 45 -38 25 -74 45 -79 45 -5 0 -6 7 -3 16 8 21
-18 80 -42 93 -34 18 -90 13 -113 -10 -17 -17 -24 -19 -54 -9 -18 6 -75 19
-126 29 l-93 17 -50 152 c-28 84 -53 152 -56 152 -3 0 -28 -68 -56 -152z
m-726 -397 c9 -14 38 -50 65 -79 51 -55 53 -72 9 -72 -15 0 -38 -9 -52 -20
l-25 -20 45 15 c41 15 46 14 57 -1 9 -12 21 -15 42 -11 25 5 32 1 52 -27 12
-18 53 -54 91 -80 37 -26 75 -60 83 -77 15 -28 15 -30 -10 -53 -14 -13 -25
-34 -25 -47 0 -23 1 -22 19 7 25 42 38 48 50 27 9 -17 11 -16 33 5 14 12 31
22 40 22 22 0 121 -109 142 -158 19 -43 19 -43 -3 -82 -18 -32 -22 -53 -20
-108 l3 -67 -55 -6 -54 -6 50 -2 c45 -1 53 -5 83 -41 17 -21 32 -42 32 -46 0
-4 -12 -32 -27 -63 -21 -43 -27 -72 -28 -126 -1 -88 -8 -102 -41 -80 -19 12
-24 13 -24 2 0 -8 9 -22 20 -32 25 -22 26 -59 3 -77 -10 -7 -18 -27 -19 -44 0
-16 -20 -82 -44 -145 -66 -176 -67 -179 -103 -179 -31 0 -31 0 -9 -16 12 -8
22 -21 22 -29 0 -31 -94 -167 -148 -215 -52 -46 -96 -70 -108 -58 -2 3 11 31
31 63 44 73 65 146 65 225 0 59 1 61 32 74 l31 14 -24 12 c-34 18 -40 32 -44
107 -4 64 -3 67 31 101 29 29 31 34 13 29 -12 -3 -31 -2 -41 4 -17 9 -17 12
-2 41 l17 32 -28 -18 c-31 -21 -33 -19 -48 31 -24 87 -4 180 53 241 25 26 25
34 3 31 -47 -7 -111 38 -143 101 -38 75 -41 116 -15 213 7 28 7 28 -14 15 -18
-11 -23 -11 -31 2 -5 8 -10 25 -10 38 0 19 -4 21 -25 16 -23 -6 -28 -1 -50 48
-30 65 -66 230 -68 308 -1 41 4 65 20 92 17 30 19 37 7 42 -34 13 -9 143 44
221 l27 40 3 -54 c2 -29 11 -65 20 -80z m1630 63 c18 -76 9 -310 -13 -334 -9
-10 -11 -20 -5 -30 15 -24 11 -88 -7 -123 -9 -18 -18 -48 -19 -67 -1 -19 -13
-67 -26 -105 -18 -54 -31 -74 -56 -90 -17 -11 -31 -28 -32 -37 0 -10 -6 -18
-12 -18 -7 0 -5 -5 5 -11 23 -14 22 -26 -14 -105 -35 -77 -96 -164 -116 -164
-7 0 -28 24 -46 53 -57 89 -145 146 -253 164 -46 8 -46 8 -49 52 -5 62 -23
100 -58 117 -28 15 -29 18 -24 66 11 88 85 187 181 241 38 21 48 23 53 12 3
-10 13 -13 29 -9 14 4 31 1 39 -6 12 -10 15 -9 15 4 0 10 -5 27 -11 38 -9 17
-7 24 17 44 15 14 54 49 87 80 51 48 63 55 88 50 25 -5 29 -2 29 17 0 16 16
35 51 62 53 40 93 94 105 140 10 40 26 25 42 -41z m-1041 -349 c14 -10 24 -12
28 -5 15 25 23 5 18 -46 -6 -54 -5 -56 15 -50 19 6 20 5 9 -23 -9 -25 -8 -33
7 -50 10 -11 15 -25 11 -31 -5 -8 -22 3 -51 34 -46 48 -54 62 -29 52 26 -10
16 16 -20 50 -41 38 -44 48 -13 38 20 -6 21 -5 9 10 -7 9 -20 16 -27 16 -8 0
-14 5 -14 10 0 15 33 12 57 -5z m423 -10 c0 -2 -14 -12 -32 -21 -27 -14 -29
-18 -15 -26 23 -12 21 -28 -3 -28 -23 0 -41 -31 -22 -38 17 -5 15 -22 -4 -22
-8 0 -28 -14 -43 -31 -20 -21 -31 -27 -36 -19 -4 6 -2 17 4 23 6 6 11 21 11
33 0 26 16 41 23 22 2 -7 8 -1 12 14 4 15 2 35 -5 48 -13 25 -4 42 11 20 6
-10 11 -12 17 -4 15 23 82 46 82 29z m-160 -198 c20 -11 24 -19 22 -47 -1 -19
-7 -39 -12 -44 -6 -6 9 -22 40 -43 31 -21 52 -43 55 -58 3 -14 7 -36 10 -49 8
-39 -13 -128 -37 -153 l-21 -22 27 -59 c14 -33 26 -77 26 -98 -1 -79 -31 -207
-74 -311 -55 -135 -83 -216 -91 -270 -4 -24 -10 -43 -15 -43 -10 0 -20 26 -20
55 0 13 -23 90 -51 172 -74 213 -88 269 -88 353 0 57 5 89 23 133 15 35 20 60
14 63 -26 16 -48 91 -48 167 0 75 1 80 31 107 16 16 53 38 82 49 34 13 44 20
29 20 -13 1 -33 -4 -44 -10 -16 -9 -23 -8 -29 2 -13 21 -11 65 4 77 28 23 129
29 167 9z m248 -338 c31 -11 49 -40 37 -59 -4 -6 3 -6 18 1 20 9 30 8 50 -6
59 -38 129 -193 107 -235 -7 -13 -5 -22 7 -31 13 -12 15 -28 9 -104 -3 -49
-10 -103 -15 -120 -7 -27 -12 -30 -45 -28 -42 3 -41 -9 4 -27 l30 -12 0 -122
c0 -66 1 -132 2 -145 2 -19 -3 -26 -22 -31 -24 -6 -24 -6 6 -13 24 -4 34 -14
43 -38 6 -18 22 -47 36 -65 31 -41 31 -44 0 -44 -43 0 -130 39 -162 72 -34 37
-77 116 -87 164 -6 28 -2 34 39 68 46 38 61 66 26 46 -11 -5 -36 -10 -55 -10
-47 0 -48 25 -5 75 l31 35 -47 -7 -48 -6 5 31 c4 25 1 32 -13 32 -9 0 -21 6
-27 13 -17 20 -52 223 -52 305 0 55 -6 89 -20 121 l-20 43 32 54 c30 49 36 54
69 54 20 0 50 -5 67 -11z"/>
<path d="M924 1982 c-23 -19 -40 -56 -23 -50 9 3 55 68 47 68 -1 0 -12 -8 -24
-18z"/>
<path d="M1177 1611 c-40 -19 -92 -64 -109 -94 -8 -17 -7 -17 12 -7 18 10 27
7 56 -15 27 -20 34 -23 34 -10 0 9 7 18 15 21 13 5 12 10 -5 31 -11 14 -20 32
-20 39 0 15 32 34 75 45 27 6 27 7 5 7 -14 0 -42 -8 -63 -17z"/>
<path d="M2175 1981 c-3 -6 -14 -11 -25 -11 -20 0 -35 -29 -22 -42 5 -5 17 1
27 12 10 11 27 20 37 20 11 0 18 5 16 12 -6 16 -25 21 -33 9z"/>
<path d="M2188 1713 c7 -3 16 -2 19 1 4 3 -2 6 -13 5 -11 0 -14 -3 -6 -6z"/>
<path d="M1560 1896 c0 -2 11 -6 25 -8 13 -3 22 -1 19 3 -5 9 -44 13 -44 5z"/>
<path d="M1503 1816 c-35 -16 -61 -59 -55 -93 2 -12 19 -33 38 -48 29 -22 34
-32 34 -66 0 -35 2 -40 19 -34 11 3 22 1 26 -5 5 -8 10 -8 20 0 7 6 19 9 26 8
10 -2 14 9 14 38 0 31 6 46 22 60 36 30 32 113 -5 133 -34 18 -106 21 -139 7z
m31 -72 c17 -16 21 -50 9 -57 -13 -8 -53 11 -59 28 -15 38 20 59 50 29z m116
-8 c0 -15 -27 -40 -53 -49 -15 -6 -18 -2 -15 20 5 41 68 68 68 29z m-59 -87
c8 -15 8 -24 0 -32 -8 -8 -11 -7 -11 2 0 11 -3 11 -15 1 -22 -18 -30 -5 -17
25 14 31 28 32 43 4z"/>
</g>
</svg>
