<?xml version="1.0" standalone="no"?>
<!DOCTYPE svg PUBLIC "-//W3C//DTD SVG 20010904//EN"
 "http://www.w3.org/TR/2001/REC-SVG-20010904/DTD/svg10.dtd">
<svg version="1.0" xmlns="http://www.w3.org/2000/svg"
 width="288.000000pt" height="260.000000pt" viewBox="0 0 288.000000 260.000000"
 preserveAspectRatio="xMidYMid meet">
<metadata>
Created by potrace 1.16, written by Peter Selinger 2001-2019
</metadata>
<g transform="translate(0.000000,260.000000) scale(0.100000,-0.100000)"
fill="#000000" stroke="none">
<path d="M1398 2368 l-3 -53 -47 -3 -48 -3 0 -40 c0 -37 2 -39 30 -39 33 0 70
-30 70 -57 0 -30 -17 -46 -72 -73 -66 -31 -98 -76 -98 -136 0 -51 11 -46 -160
-69 -342 -48 -509 -113 -651 -255 -118 -118 -172 -262 -172 -457 1 -84 -3
-115 -13 -124 -8 -6 -14 -25 -14 -41 0 -23 7 -33 33 -46 58 -31 140 -124 185
-211 23 -45 42 -89 42 -96 0 -8 -13 -34 -29 -57 -37 -54 -46 -90 -31 -117 8
-17 20 -21 58 -21 60 0 78 -14 87 -65 6 -39 4 -43 -34 -73 -33 -27 -41 -39
-41 -67 0 -33 2 -34 55 -46 51 -11 64 -10 202 24 499 123 890 121 1406 -5 118
-29 132 -30 182 -19 53 12 55 13 55 46 0 28 -8 40 -41 67 -38 30 -40 34 -34
73 8 50 27 65 81 65 81 0 93 49 34 136 -16 25 -30 51 -30 59 0 7 19 51 42 96
45 87 127 180 186 211 25 13 32 23 32 46 0 16 -6 35 -14 41 -10 9 -14 40 -13
124 0 195 -54 339 -172 457 -142 142 -309 207 -651 255 -171 23 -160 18 -160
69 0 60 -32 105 -98 136 -55 27 -72 43 -72 73 0 27 37 57 70 57 28 0 30 2 30
39 l0 40 -47 3 -48 3 -3 53 -3 52 -39 0 -39 0 -3 -52z m-124 -618 l26 -10 0
-264 c0 -222 -2 -266 -15 -276 -8 -7 -15 -25 -15 -40 0 -15 -9 -35 -20 -45
-29 -26 -26 -73 5 -87 14 -6 25 -19 25 -28 0 -20 17 -36 44 -41 11 -2 24 -17
29 -33 8 -25 6 -32 -22 -60 -31 -30 -34 -31 -124 -31 -112 0 -150 18 -145 69
2 22 11 35 30 44 15 7 30 22 33 33 4 12 16 30 26 40 14 14 18 27 13 47 -10 40
-23 52 -55 52 -24 0 -29 4 -29 24 0 26 -47 53 -75 42 -8 -3 -15 -2 -16 2 0 4
-2 27 -5 52 -2 25 -5 97 -6 161 -2 113 -1 119 31 183 48 98 94 132 238 175 1
1 13 -3 27 -9z m418 -10 c84 -26 138 -73 179 -156 32 -64 33 -70 31 -183 -1
-64 -4 -136 -6 -161 -3 -25 -5 -48 -5 -52 -1 -4 -8 -5 -16 -2 -28 11 -75 -16
-75 -42 0 -18 -5 -24 -23 -24 -52 0 -83 -64 -48 -99 10 -10 22 -28 26 -40 3
-11 18 -26 33 -33 19 -9 28 -22 30 -44 5 -51 -33 -69 -145 -69 -90 0 -93 1
-124 31 -28 28 -30 35 -22 60 7 21 17 30 36 32 17 2 27 9 27 19 0 9 16 31 35
49 38 34 38 47 3 93 -10 13 -16 32 -13 41 3 9 -3 25 -15 35 -19 17 -20 30 -20
282 l0 264 23 9 c12 5 23 9 23 9 1 1 31 -8 66 -19z m-862 -77 c0 -5 -13 -34
-29 -65 -61 -121 -66 -146 -66 -361 0 -149 -3 -197 -12 -197 -7 0 -20 -11 -29
-25 -18 -28 -13 -64 13 -91 10 -10 23 -27 28 -38 6 -12 20 -22 33 -24 31 -5
54 -40 41 -64 -13 -25 -68 -48 -111 -48 -36 0 -108 42 -108 63 0 7 9 25 19 41
14 21 17 35 11 46 -6 11 -5 29 3 49 15 39 2 62 -41 75 -19 6 -33 18 -37 33 -3
15 -16 25 -37 31 -27 7 -34 14 -41 48 -13 57 -2 232 17 277 33 81 120 156 251
218 85 40 95 44 95 32z m1312 -31 c133 -62 220 -137 254 -219 19 -45 30 -220
17 -277 -7 -34 -14 -41 -41 -48 -21 -6 -34 -16 -37 -31 -4 -15 -18 -27 -37
-33 -43 -13 -56 -36 -41 -75 8 -20 9 -38 3 -49 -6 -11 -3 -25 11 -46 10 -16
19 -34 19 -41 0 -21 -72 -63 -108 -63 -43 0 -98 23 -111 48 -13 24 10 59 41
64 13 2 27 12 33 24 5 11 18 28 28 38 26 27 31 63 13 91 -9 14 -22 25 -29 25
-9 0 -12 48 -12 197 0 215 -5 240 -66 361 -28 56 -34 72 -24 72 2 0 42 -17 87
-38z"/>
</g>
</svg>
