<?xml version="1.0" standalone="no"?>
<!DOCTYPE svg PUBLIC "-//W3C//DTD SVG 20010904//EN"
 "http://www.w3.org/TR/2001/REC-SVG-20010904/DTD/svg10.dtd">
<svg version="1.0" xmlns="http://www.w3.org/2000/svg"
 width="277.000000pt" height="289.000000pt" viewBox="0 0 277.000000 289.000000"
 preserveAspectRatio="xMidYMid meet">
<metadata>
Created by potrace 1.16, written by Peter Selinger 2001-2019
</metadata>
<g transform="translate(0.000000,289.000000) scale(0.100000,-0.100000)"
fill="#000000" stroke="none">
<path d="M2086 2740 c-85 -14 -204 -48 -259 -76 -27 -13 -91 -51 -142 -85 -84
-54 -177 -99 -205 -99 -5 0 -25 14 -45 31 -40 36 -45 68 -19 136 9 24 14 46
11 50 -11 10 -45 -26 -122 -132 -40 -55 -99 -125 -131 -155 -58 -54 -305 -321
-399 -430 -67 -78 -172 -231 -195 -283 -65 -147 -12 -356 129 -510 23 -25 89
-67 106 -67 3 0 17 24 31 53 l24 52 -24 20 c-13 11 -43 35 -66 54 -45 36 -80
96 -64 110 12 11 331 141 347 141 7 0 32 -20 56 -44 l44 -45 88 60 89 60 0
-141 c0 -77 3 -140 6 -140 3 0 52 43 109 95 l102 95 7 -127 c3 -71 7 -207 8
-303 l3 -175 -50 -17 c-28 -10 -82 -17 -122 -18 -68 0 -76 2 -147 45 -41 25
-88 61 -105 80 -17 19 -39 35 -49 35 -26 0 -72 -38 -72 -59 0 -27 92 -122 151
-158 70 -42 154 -63 252 -63 211 0 421 160 777 595 90 110 195 235 234 278
108 119 109 141 2 87 -61 -31 -119 -39 -132 -18 -5 7 -11 37 -15 66 -7 53 -6
57 72 211 160 319 196 460 148 586 -29 79 -113 164 -184 189 -62 21 -171 28
-249 16z m218 -111 c124 -48 165 -163 115 -325 -12 -37 -53 -131 -92 -208 -69
-134 -72 -139 -75 -103 l-3 37 -117 0 -117 -1 -290 -266 -290 -267 -3 89 c-2
73 5 128 38 289 22 110 38 201 36 203 -2 2 -50 -8 -106 -22 -57 -14 -108 -24
-114 -22 -7 3 -17 59 -24 143 l-13 138 58 58 57 58 31 -30 c25 -25 39 -30 78
-30 41 0 61 9 158 71 291 186 515 248 673 188z m-1118 -555 c8 -82 17 -150 19
-152 2 -3 45 6 95 18 50 12 93 21 95 19 2 -2 -9 -64 -24 -138 l-27 -134 -84
-58 -85 -57 -45 43 -45 43 -180 -74 c-239 -99 -215 -95 -215 -36 0 57 55 194
104 257 114 148 364 430 373 421 2 -2 11 -71 19 -152z m1051 -146 c-37 -83
-59 -146 -67 -187 l-9 -51 54 -53 c41 -40 55 -60 55 -81 0 -40 -32 -88 -81
-122 -22 -15 -87 -84 -143 -153 -113 -138 -244 -268 -320 -319 -27 -17 -53
-32 -56 -32 -8 0 -19 288 -21 509 l-1 133 198 184 199 183 99 0 c75 1 97 -2
93 -11z"/>
<path d="M870 1158 c-12 -23 -38 -68 -56 -99 -19 -31 -34 -62 -34 -68 0 -6 12
-17 28 -23 15 -6 41 -27 58 -46 l31 -35 29 33 c16 18 59 53 95 79 65 46 65 46
53 76 -7 17 -13 41 -14 55 -1 38 -15 53 -52 57 -18 1 -52 6 -75 9 -41 6 -42 5
-63 -38z"/>
<path d="M677 934 c-43 -28 -41 -43 10 -72 41 -22 94 -70 116 -105 9 -15 21
-27 26 -27 15 0 31 51 31 98 0 56 -17 84 -62 104 -59 28 -81 28 -121 2z"/>
<path d="M605 810 c-10 -22 -38 -56 -62 -76 -23 -19 -46 -47 -49 -60 -4 -16
-11 -23 -21 -20 -16 7 -154 -61 -197 -97 -26 -21 -30 -32 -34 -90 -4 -58 -1
-72 22 -111 54 -93 125 -113 209 -61 40 25 54 43 87 112 52 108 52 124 -7 179
-27 24 -43 44 -37 44 6 0 21 -11 34 -25 33 -35 54 -31 100 19 22 24 60 54 85
67 25 13 45 28 45 33 0 16 -61 85 -94 105 -47 30 -61 26 -81 -19z"/>
<path d="M185 303 c-31 -46 -31 -55 -3 -104 25 -45 49 -52 100 -27 33 16 78
64 67 71 -2 2 -29 24 -61 50 -31 26 -61 47 -67 47 -6 0 -22 -17 -36 -37z"/>
</g>
</svg>
