<?xml version="1.0" standalone="no"?>
<!DOCTYPE svg PUBLIC "-//W3C//DTD SVG 20010904//EN"
 "http://www.w3.org/TR/2001/REC-SVG-20010904/DTD/svg10.dtd">
<svg version="1.0" xmlns="http://www.w3.org/2000/svg"
 width="297.000000pt" height="293.000000pt" viewBox="0 0 297.000000 293.000000"
 preserveAspectRatio="xMidYMid meet">
<metadata>
Created by potrace 1.16, written by Peter Selinger 2001-2019
</metadata>
<g transform="translate(0.000000,293.000000) scale(0.100000,-0.100000)"
fill="#000000" stroke="none">
<path d="M1428 2590 c-40 -121 -47 -135 -69 -138 -13 -1 -66 -12 -117 -23 -86
-19 -95 -19 -111 -5 -43 39 -121 5 -121 -51 0 -24 -12 -36 -74 -76 l-74 -48
-141 71 -141 70 70 -140 70 -139 -56 -83 c-45 -66 -61 -82 -78 -80 -12 2 -34
-7 -49 -18 -33 -27 -38 -87 -8 -114 18 -16 18 -18 0 -88 -11 -40 -19 -83 -19
-97 0 -14 -4 -32 -8 -39 -5 -7 -73 -34 -152 -60 -79 -27 -140 -51 -134 -54 5
-3 68 -25 139 -48 72 -23 136 -47 143 -53 6 -5 12 -21 13 -36 0 -14 8 -57 18
-96 15 -57 16 -71 5 -82 -46 -47 -7 -133 61 -133 7 0 36 -35 65 -77 58 -89 58
-111 -5 -137 -109 -46 -153 -106 -141 -190 6 -35 3 -45 -15 -62 -28 -25 -49
-67 -49 -97 0 -27 43 -89 68 -98 24 -9 111 37 124 65 7 16 22 26 43 30 18 4
53 22 77 40 35 27 51 50 76 108 17 40 32 80 34 89 2 12 17 6 70 -28 58 -37 68
-48 68 -73 0 -59 81 -88 129 -46 14 12 29 11 101 -6 47 -11 95 -22 107 -24 18
-3 29 -27 69 -146 25 -79 49 -147 52 -153 3 -5 29 61 57 145 l52 155 44 6 c24
4 69 13 100 22 47 12 60 12 80 1 13 -7 34 -13 47 -14 27 0 72 42 72 68 0 12
28 37 78 71 l77 53 152 -76 153 -76 -76 153 -76 152 48 73 c26 39 53 72 60 72
28 0 63 24 75 52 10 24 9 35 -5 66 -15 35 -15 43 4 131 10 52 24 97 30 101 7
4 74 27 151 51 76 24 139 46 139 49 0 3 -67 28 -150 55 -131 43 -150 52 -150
71 0 11 9 29 19 38 26 24 38 76 20 88 -8 4 -26 6 -40 4 -22 -4 -27 0 -36 28
-8 27 -7 37 8 55 25 30 24 72 -2 105 l-21 26 41 94 c60 140 74 198 69 277 -9
117 -86 218 -196 257 -70 24 -142 25 -252 2 -116 -23 -184 -51 -276 -111 l-61
-39 -71 12 c-76 13 -93 30 -70 71 9 17 6 24 -14 42 -15 13 -35 51 -50 96 l-25
74 -45 -135z m866 -41 c99 -36 176 -149 176 -257 0 -55 -58 -213 -137 -374
-73 -150 -82 -183 -63 -234 10 -24 14 -26 51 -21 22 3 58 17 80 32 42 27 62
26 52 -3 -4 -9 -34 -46 -67 -82 -34 -36 -121 -140 -195 -230 -220 -269 -383
-420 -513 -473 -42 -17 -74 -22 -153 -22 -89 0 -107 3 -162 29 -68 31 -163
121 -163 154 0 11 14 26 35 38 l35 18 32 -35 c18 -19 61 -52 94 -72 49 -30 72
-37 112 -37 153 0 332 136 548 415 117 150 137 180 132 195 -1 5 -25 -18 -51
-53 -173 -225 -247 -307 -353 -393 -94 -77 -170 -115 -244 -121 -48 -5 -67 -1
-120 23 -67 30 -131 89 -163 150 -9 19 -20 34 -23 34 -7 0 0 -47 10 -72 6 -12
-7 -26 -54 -58 -33 -22 -66 -50 -73 -61 -15 -25 -44 -24 -52 1 -4 11 -22 27
-41 35 -19 8 -34 18 -34 23 0 5 15 34 33 65 17 30 40 69 50 87 16 29 20 32 50
25 17 -4 42 -8 54 -10 12 -1 29 -8 39 -15 14 -13 16 -12 13 4 -3 14 -21 24
-64 36 -77 21 -133 50 -168 88 -33 35 -28 56 24 92 16 12 40 45 53 74 22 50
80 108 166 166 46 31 70 60 70 87 0 13 23 42 61 77 50 45 65 53 80 46 22 -12
33 -43 24 -70 -11 -34 21 -35 62 -2 76 59 81 59 123 13 21 -23 40 -41 42 -41
3 0 46 50 98 111 l93 110 23 -22 c13 -12 35 -39 50 -61 31 -44 22 -45 168 13
54 21 102 39 107 39 19 0 7 -33 -50 -142 -66 -128 -76 -162 -57 -197 12 -22
13 -19 19 39 4 53 20 92 107 266 115 230 131 288 111 378 -29 129 -184 169
-390 100 -81 -27 -151 -63 -289 -150 -102 -64 -140 -69 -185 -26 l-29 27 -134
-138 c-304 -313 -424 -486 -424 -612 0 -114 27 -166 124 -240 l26 -20 -20 -44
c-18 -39 -23 -43 -47 -37 -75 17 -191 202 -200 319 -13 153 43 244 367 597 58
63 128 137 156 165 29 27 76 84 106 125 57 77 94 117 103 108 3 -2 -2 -26 -11
-52 -19 -55 -8 -95 32 -117 34 -18 74 -3 190 71 126 80 144 89 248 115 118 31
225 32 300 4z m-26 -108 c67 -35 86 -64 90 -139 3 -63 0 -73 -47 -172 -45 -92
-54 -105 -78 -108 -16 -2 -67 -17 -114 -33 -48 -16 -93 -29 -101 -29 -8 0 -34
23 -57 50 -43 51 -71 62 -101 37 -8 -7 -39 -40 -69 -75 -69 -80 -86 -90 -114
-64 -35 31 -53 32 -88 6 -18 -13 -38 -24 -45 -24 -6 0 -32 16 -58 35 l-46 36
-44 -30 c-43 -30 -43 -30 -97 -16 -30 8 -69 15 -86 15 -18 0 -33 4 -33 8 0 8
298 332 306 332 2 0 22 -10 44 -21 41 -22 42 -22 102 -3 33 10 115 49 182 87
147 84 193 105 271 123 72 16 132 11 183 -15z m-1016 -541 l41 0 -8 -37 c-4
-21 -6 -50 -6 -64 1 -30 -27 -59 -89 -90 -81 -40 -108 -65 -115 -108 -5 -30
-17 -48 -55 -80 -53 -45 -65 -49 -74 -25 -31 82 41 238 177 381 34 36 43 40
64 32 13 -5 43 -9 65 -9z m-259 -841 c50 -26 67 -51 67 -99 0 -26 -7 -54 -15
-66 -16 -19 -16 -19 -28 1 -18 29 -78 84 -109 101 -16 8 -28 21 -28 29 0 16
46 44 73 45 10 0 28 -5 40 -11z m-55 -112 c13 -12 33 -34 43 -49 l20 -27 -32
-17 c-18 -9 -54 -36 -80 -61 -31 -29 -54 -43 -64 -39 -11 4 -9 -3 6 -24 l22
-29 -34 -77 c-29 -65 -41 -82 -78 -106 -57 -36 -100 -36 -141 -2 -43 36 -60
74 -60 132 0 35 6 57 21 76 21 27 146 96 173 96 8 0 18 9 21 20 3 11 21 31 39
45 18 14 41 43 51 64 16 37 19 39 44 30 14 -6 37 -20 49 -32z m-347 -440 c49
-42 48 -55 -10 -94 -41 -28 -69 -19 -96 29 l-19 36 27 41 c31 46 30 46 98 -12z"/>
</g>
</svg>
