<?xml version="1.0" standalone="no"?>
<!DOCTYPE svg PUBLIC "-//W3C//DTD SVG 20010904//EN"
 "http://www.w3.org/TR/2001/REC-SVG-20010904/DTD/svg10.dtd">
<svg version="1.0" xmlns="http://www.w3.org/2000/svg"
 width="300.000000pt" height="300.000000pt" viewBox="0 0 300.000000 300.000000"
 preserveAspectRatio="xMidYMid meet">
<metadata>
Created by potrace 1.16, written by Peter Selinger 2001-2019
</metadata>
<g transform="translate(0.000000,300.000000) scale(0.100000,-0.100000)"
fill="#000000" stroke="none">
<path d="M1400 2993 c-270 -45 -510 -294 -597 -618 -23 -89 -26 -119 -27 -265
-1 -184 16 -275 74 -412 61 -144 166 -279 281 -364 l48 -35 -19 -32 c-25 -41
-25 -73 0 -114 26 -43 73 -67 116 -59 27 6 35 3 45 -15 10 -19 9 -25 -6 -35
-19 -14 -17 -19 26 -74 43 -57 51 -95 56 -273 l6 -168 -39 -72 c-33 -62 -38
-81 -39 -137 0 -66 0 -66 66 -155 37 -50 76 -105 87 -123 l20 -33 23 38 c13
21 51 76 86 122 34 46 65 98 69 116 7 42 -10 107 -48 174 l-30 55 4 175 c4
156 7 182 27 228 12 28 34 61 47 74 27 26 31 44 9 53 -12 4 -13 10 -4 30 10
20 16 23 48 19 99 -13 170 104 110 181 -12 15 -20 28 -18 30 2 1 24 16 49 33
144 97 272 297 325 506 68 271 30 553 -108 792 -57 99 -201 239 -294 288 -121
63 -273 90 -393 70z m171 -103 l26 0 5 -122 c5 -107 9 -133 36 -202 17 -44 30
-81 28 -83 -2 -2 -57 52 -122 119 -116 120 -214 237 -214 256 0 18 121 42 180
36 19 -2 47 -4 61 -4z m144 -44 c154 -72 287 -227 355 -416 l30 -79 -43 -12
c-23 -6 -54 -18 -68 -26 -25 -15 -30 -13 -126 36 -55 28 -109 61 -121 74 -12
13 -40 71 -62 128 -33 89 -40 122 -46 212 -8 124 -7 125 81 83z m-309 -146
c73 -86 189 -202 277 -275 l47 -40 -252 -108 -253 -108 -130 -14 c-71 -8 -150
-17 -174 -20 l-44 -5 7 75 c24 264 162 506 351 616 l50 29 25 -32 c14 -18 57
-71 96 -118z m715 -470 c15 -99 6 -274 -21 -375 -21 -82 -104 -265 -119 -265
-5 0 -38 33 -74 73 l-65 72 -7 150 -7 150 34 60 c72 127 104 167 153 192 40
21 78 32 87 24 4 -3 12 -40 19 -81z m-281 55 c18 -11 -51 -124 -107 -175 -70
-64 -145 -93 -243 -94 -50 0 -91 5 -123 18 l-47 18 21 38 c41 73 97 115 214
164 106 44 113 45 193 41 45 -2 87 -7 92 -10z m-680 -163 c0 -4 -56 -63 -124
-131 -98 -98 -124 -119 -130 -106 -9 25 -31 203 -25 209 4 4 133 21 267 35 6
0 12 -2 12 -7z m151 -168 c71 -64 129 -117 129 -118 0 -2 -26 -45 -57 -97 -31
-52 -82 -147 -113 -212 l-56 -118 -47 38 c-57 48 -103 101 -150 174 -40 62
-87 169 -87 197 0 22 217 252 238 252 8 0 72 -52 143 -116z m494 -116 c4 -114
3 -197 -5 -243 -13 -81 -47 -204 -62 -222 -20 -25 -138 -53 -219 -53 -92 0
-157 13 -219 43 -37 18 -45 26 -42 46 7 66 219 440 281 495 20 18 222 104 247
105 8 1 14 -52 19 -171z m127 -316 c-26 -35 -133 -125 -139 -118 -2 2 5 36 17
77 11 40 23 102 27 138 l6 65 58 -63 58 -64 -27 -35z"/>
</g>
</svg>
