<?xml version="1.0" standalone="no"?>
<!DOCTYPE svg PUBLIC "-//W3C//DTD SVG 20010904//EN"
 "http://www.w3.org/TR/2001/REC-SVG-20010904/DTD/svg10.dtd">
<svg version="1.0" xmlns="http://www.w3.org/2000/svg"
 width="300.000000pt" height="225.000000pt" viewBox="0 0 300.000000 225.000000"
 preserveAspectRatio="xMidYMid meet">
<metadata>
Created by potrace 1.16, written by Peter Selinger 2001-2019
</metadata>
<g transform="translate(0.000000,225.000000) scale(0.100000,-0.100000)"
fill="#000000" stroke="none">
<path d="M2391 2090 c-31 -14 -153 -132 -443 -425 -342 -346 -403 -403 -418
-395 -10 6 -36 10 -57 10 -38 0 -49 10 -356 318 -316 318 -317 319 -317 361 0
36 -6 49 -34 77 -29 29 -41 34 -81 34 -40 0 -52 -5 -81 -34 -29 -29 -34 -41
-34 -81 0 -40 5 -52 35 -82 34 -34 38 -35 90 -31 l54 5 306 -307 307 -307 2
-76 2 -76 -385 -384 c-212 -212 -396 -390 -408 -396 -36 -18 -104 -13 -160 14
-130 60 -227 230 -182 318 6 12 119 130 250 262 132 133 239 248 239 257 0 21
-27 48 -48 48 -26 0 -489 -468 -514 -519 -103 -213 168 -525 410 -471 l57 12
415 413 c387 385 418 413 455 418 l40 5 351 -350 351 -350 -10 -37 c-20 -74
37 -141 120 -141 86 0 139 91 98 170 -21 41 -53 60 -100 60 -39 0 -46 6 -398
358 -311 311 -357 361 -357 387 0 27 52 82 418 447 461 459 439 443 539 413
56 -17 138 -76 172 -124 55 -76 75 -165 50 -214 -6 -12 -119 -130 -250 -262
-132 -133 -239 -248 -239 -257 0 -21 27 -48 48 -48 22 0 484 465 508 510 57
112 27 241 -83 361 -104 112 -257 158 -362 109z"/>
</g>
</svg>
