<?xml version="1.0" encoding="UTF-8" standalone="no"?>
<svg
   xmlns:dc="http://purl.org/dc/elements/1.1/"
   xmlns:cc="http://creativecommons.org/ns#"
   xmlns:rdf="http://www.w3.org/1999/02/22-rdf-syntax-ns#"
   xmlns:svg="http://www.w3.org/2000/svg"
   xmlns="http://www.w3.org/2000/svg"
   xmlns:sodipodi="http://sodipodi.sourceforge.net/DTD/sodipodi-0.dtd"
   xmlns:inkscape="http://www.inkscape.org/namespaces/inkscape"
   version="1.0"
   width="552.000000pt"
   height="375.000000pt"
   viewBox="0 0 552.000000 375.000000"
   preserveAspectRatio="xMidYMid meet"
   id="svg40"
   sodipodi:docname="nagaraja.svg"
   inkscape:version="1.0.1 (3bc2e813f5, 2020-09-07)">
  <defs
     id="defs44" />
  <sodipodi:namedview
     pagecolor="#ffffff"
     bordercolor="#666666"
     borderopacity="1"
     objecttolerance="10"
     gridtolerance="10"
     guidetolerance="10"
     inkscape:pageopacity="0"
     inkscape:pageshadow="2"
     inkscape:window-width="1600"
     inkscape:window-height="837"
     id="namedview42"
     showgrid="false"
     inkscape:zoom="1.34"
     inkscape:cx="368"
     inkscape:cy="250"
     inkscape:window-x="-8"
     inkscape:window-y="-8"
     inkscape:window-maximized="1"
     inkscape:current-layer="g38" />
  <metadata
     id="metadata28">
Created by potrace 1.16, written by Peter Selinger 2001-2019
<rdf:RDF>
  <cc:Work
     rdf:about="">
    <dc:format>image/svg+xml</dc:format>
    <dc:type
       rdf:resource="http://purl.org/dc/dcmitype/StillImage" />
  </cc:Work>
</rdf:RDF>
</metadata>
  <g
     transform="translate(0.000000,375.000000) scale(0.100000,-0.100000)"
     fill="#000000"
     stroke="none"
     id="g38">
    <path
       d="M2250 3090 c0 -6 -52 -10 -135 -10 -83 0 -135 -4 -135 -10 0 -6 -38 -10 -95 -10 -57 0 -95 -4 -95 -10 0 -6 -30 -10 -70 -10 -40 0 -70 -4 -70 -10 0 -5 -25 -10 -55 -10 -30 0 -55 -4 -55 -10 0 -6 -27 -10 -60 -10 -33 0 -60 -4 -60 -10 0 -5 -18 -10 -40 -10 -22 0 -40 -4 -40 -10 0 -5 -20 -10 -45 -10 -25 0 -45 -4 -45 -10 0 -5 -13 -10 -30 -10 -16 0 -30 -4 -30 -10 0 -5 -18 -10 -40 -10 -22 0 -40 -4 -40 -10 0 -5 -13 -10 -30 -10 -20 0 -30 -5 -30 -15 0 -8 -9 -15 -20 -15 -11 0 -20 -4 -20 -10 0 -5 -16 -10 -35 -10 -19 0 -35 -4 -35 -10 0 -5 -9 -10 -20 -10 -11 0 -20 -4 -20 -10 0 -5 -9 -10 -20 -10 -11 0 -20 -4 -20 -10 0 -5 -8 -10 -18 -10 -10 0 -24 -9 -32 -20 -8 -11 -21 -20 -30 -20 -9 0 -22 -9 -30 -20 -8 -11 -18 -20 -22 -20 -15 0 -98 -89 -98 -105 0 -8 -4 -15 -10 -15 -5 0 -10 -11 -10 -25 0 -14 -4 -25 -10 -25 -6 0 -10 -30 -10 -70 0 -40 4 -70 10 -70 6 0 10 -9 10 -20 0 -11 5 -20 10 -20 6 0 10 -9 10 -20 0 -11 5 -20 10 -20 6 0 10 -5 10 -10 0 -17 68 -80 86 -80 9 0 29 -13 44 -30 15 -16 35 -30 44 -30 9 0 16 -4 16 -10 0 -5 9 -10 20 -10 11 0 20 -4 20 -10 0 -5 9 -10 20 -10 11 0 20 -4 20 -10 0 -5 9 -10 20 -10 11 0 20 -4 20 -10 0 -5 11 -10 25 -10 14 0 25 -4 25 -10 0 -5 9 -10 20 -10 11 0 20 -4 20 -10 0 -5 9 -10 20 -10 11 0 20 -4 20 -10 0 -5 9 -10 20 -10 11 0 20 -7 20 -15 0 -10 10 -15 30 -15 17 0 30 -4 30 -10 0 -5 9 -10 20 -10 11 0 20 -4 20 -10 0 -5 14 -10 30 -10 17 0 30 -4 30 -10 0 -5 16 -10 35 -10 19 0 35 -4 35 -10 0 -5 9 -10 20 -10 11 0 20 -4 20 -10 0 -5 14 -10 30 -10 17 0 30 -4 30 -10 0 -5 14 -10 30 -10 17 0 30 -4 30 -10 0 -5 16 -10 35 -10 19 0 35 -4 35 -10 0 -5 14 -10 30 -10 17 0 30 -4 30 -10 0 -5 14 -10 30 -10 17 0 30 -4 30 -10 0 -6 -55 -10 -145 -10 -90 0 -145 4 -145 10 0 6 -52 10 -135 10 -83 0 -135 4 -135 10 0 6 -30 10 -70 10 -40 0 -70 4 -70 10 0 6 -28 10 -65 10 -37 0 -65 4 -65 10 0 6 -27 10 -60 10 -53 0 -60 -2 -60 -20 0 -11 5 -20 10 -20 6 0 10 -52 10 -135 0 -83 -4 -135 -10 -135 -5 0 -10 -22 -10 -50 0 -27 -4 -50 -10 -50 -5 0 -10 -25 -10 -55 l0 -55 110 0 c67 0 110 4 110 10 0 6 45 10 115 10 70 0 115 4 115 10 0 6 48 10 125 10 77 0 125 4 125 10 0 6 45 10 115 10 70 0 115 4 115 10 0 6 14 10 30 10 17 0 30 -4 30 -10 0 -5 9 -10 20 -10 13 0 20 -7 20 -20 0 -11 -4 -20 -10 -20 -5 0 -10 -9 -10 -20 0 -11 -4 -20 -10 -20 -5 0 -10 -7 -10 -16 0 -8 -22 -37 -50 -64 -27 -27 -50 -53 -50 -59 0 -6 -4 -11 -8 -11 -14 0 -52 -36 -52 -49 0 -6 -11 -11 -24 -11 -16 0 -27 -7 -31 -20 -3 -11 -13 -20 -21 -20 -8 0 -14 -4 -14 -10 0 -5 -8 -10 -18 -10 -10 0 -24 -9 -32 -20 -8 -11 -22 -20 -32 -20 -10 0 -18 -4 -18 -10 0 -5 -8 -10 -18 -10 -10 0 -24 -9 -32 -20 -8 -11 -25 -20 -37 -20 -13 0 -23 -4 -23 -10 0 -5 -9 -10 -20 -10 -11 0 -20 -5 -20 -11 0 -16 -26 -39 -44 -39 -9 0 -16 -4 -16 -10 0 -5 -9 -10 -20 -10 -11 0 -20 -4 -20 -10 0 -5 -8 -10 -18 -10 -10 0 -24 -9 -32 -20 -8 -11 -22 -20 -32 -20 -10 0 -18 -4 -18 -10 0 -5 -11 -10 -25 -10 -14 0 -25 -4 -25 -10 0 -5 -9 -10 -20 -10 -11 0 -20 -4 -20 -10 0 -5 -9 -10 -20 -10 -11 0 -20 -4 -20 -10 0 -5 -8 -10 -18 -10 -10 0 -24 -9 -32 -20 -8 -11 -22 -20 -32 -20 -10 0 -18 -4 -18 -10 0 -5 -9 -10 -20 -10 -11 0 -20 -4 -20 -10 0 -5 -11 -10 -25 -10 -16 0 -25 -6 -25 -15 0 -8 -8 -15 -18 -15 -10 0 -24 -9 -32 -20 -8 -11 -22 -20 -32 -20 -10 0 -18 -4 -18 -10 0 -5 -8 -10 -18 -10 -10 0 -24 -9 -32 -20 -8 -11 -22 -20 -32 -20 -10 0 -18 -4 -18 -10 0 -5 -7 -10 -15 -10 -8 0 -15 -4 -15 -10 0 -5 -7 -10 -15 -10 -8 0 -15 -4 -15 -10 0 -5 -7 -10 -15 -10 -8 0 -15 -4 -15 -10 0 -5 -7 -10 -16 -10 -9 0 -29 -13 -44 -30 -15 -16 -33 -30 -39 -30 -14 0 -61 -45 -61 -57 0 -5 -9 -15 -20 -23 -11 -8 -20 -21 -20 -30 0 -9 -9 -22 -20 -30 -11 -8 -20 -22 -20 -32 0 -10 -7 -18 -15 -18 -8 0 -15 -9 -15 -20 0 -15 7 -20 25 -20 14 0 25 5 25 10 0 7 195 10 565 10 l566 0 34 35 c19 19 35 39 35 46 0 6 14 24 30 39 17 15 30 31 30 35 0 10 27 35 39 35 6 0 11 8 11 18 0 19 31 62 44 62 11 0 56 48 56 60 0 6 23 33 50 60 28 27 50 56 50 65 0 17 83 105 100 105 5 0 10 9 10 20 0 11 4 20 9 20 5 0 13 9 16 20 3 11 11 20 16 20 14 0 39 26 39 40 0 7 14 25 30 40 17 15 30 33 30 39 0 6 5 11 10 11 6 0 10 27 10 60 0 33 4 60 10 60 6 0 10 25 10 55 0 30 5 55 10 55 6 0 10 9 10 20 0 11 5 20 10 20 6 0 10 13 10 28 0 16 8 34 20 42 11 8 20 22 20 32 0 10 5 18 10 18 13 0 120 106 120 119 0 5 18 12 40 16 22 4 40 11 40 16 0 5 14 9 30 9 20 0 30 5 30 15 0 11 12 15 45 15 25 0 45 5 45 10 0 6 72 10 195 10 123 0 195 -4 195 -10 0 -5 25 -10 55 -10 42 0 55 -3 55 -15 0 -10 10 -15 30 -15 17 0 30 -4 30 -9 0 -5 14 -11 30 -15 18 -3 30 -12 30 -21 0 -8 7 -15 16 -15 8 0 33 -18 54 -40 21 -22 43 -40 49 -40 6 0 11 -8 11 -18 0 -10 9 -24 20 -32 11 -8 20 -22 20 -32 0 -10 5 -18 10 -18 6 0 10 -16 10 -35 0 -19 5 -35 10 -35 6 0 10 -18 10 -40 0 -22 5 -40 10 -40 6 0 10 -29 10 -68 0 -56 3 -70 20 -82 11 -8 20 -23 20 -33 0 -11 14 -32 30 -47 17 -15 30 -33 30 -39 0 -12 44 -61 55 -61 11 0 35 -28 35 -40 0 -7 14 -25 30 -40 17 -15 30 -36 30 -45 0 -9 14 -30 30 -45 17 -15 30 -33 30 -40 0 -6 18 -29 40 -50 22 -21 40 -43 40 -50 0 -14 46 -60 60 -60 5 0 10 -8 10 -18 0 -10 9 -24 20 -32 11 -8 20 -19 20 -25 0 -6 9 -17 20 -25 11 -8 20 -21 20 -28 0 -8 13 -27 30 -42 17 -15 30 -35 30 -44 0 -14 50 -16 520 -16 340 0 520 -3 520 -10 0 -6 80 -10 220 -10 213 0 220 1 220 20 0 11 -5 20 -10 20 -11 0 -140 125 -140 136 0 10 -28 34 -40 34 -7 0 -25 14 -40 30 -15 17 -37 30 -48 30 -12 0 -23 9 -27 20 -4 12 -15 20 -28 20 -13 0 -29 9 -37 20 -8 11 -22 20 -32 20 -10 0 -18 5 -18 10 0 6 -8 10 -18 10 -10 0 -24 9 -32 20 -8 11 -22 20 -32 20 -10 0 -18 5 -18 10 0 6 -9 10 -20 10 -11 0 -20 5 -20 10 0 6 -7 10 -15 10 -8 0 -15 5 -15 10 0 6 -9 10 -20 10 -11 0 -20 7 -20 15 0 8 -9 15 -20 15 -11 0 -20 5 -20 10 0 6 -9 10 -20 10 -11 0 -20 5 -20 10 0 6 -8 10 -18 10 -10 0 -24 9 -32 20 -8 11 -22 20 -32 20 -10 0 -18 5 -18 10 0 6 -11 10 -25 10 -14 0 -25 5 -25 10 0 6 -9 10 -20 10 -11 0 -20 5 -20 10 0 6 -8 10 -18 10 -10 0 -24 9 -32 20 -8 11 -22 20 -32 20 -10 0 -18 5 -18 10 0 6 -8 10 -18 10 -10 0 -24 9 -32 20 -8 11 -22 20 -32 20 -10 0 -18 5 -18 10 0 6 -11 10 -25 10 -14 0 -25 5 -25 11 0 16 -26 39 -44 39 -9 0 -16 5 -16 10 0 6 -8 10 -18 10 -10 0 -24 9 -32 20 -8 11 -22 20 -32 20 -10 0 -18 5 -18 10 0 6 -6 10 -13 10 -7 0 -19 9 -27 20 -8 11 -20 20 -28 20 -13 0 -62 44 -62 56 0 9 -41 44 -52 44 -4 0 -8 5 -8 11 0 6 -18 28 -40 49 -22 21 -40 46 -40 54 0 9 -4 16 -10 16 -5 0 -10 14 -10 30 0 17 -4 30 -10 30 -15 0 -12 29 4 46 12 11 63 14 280 14 171 0 266 -4 266 -10 0 -6 37 -10 90 -10 53 0 90 -4 90 -10 0 -6 35 -10 85 -10 50 0 85 -4 85 -10 0 -6 35 -10 85 -10 50 0 85 -4 85 -10 0 -5 9 -10 20 -10 18 0 20 7 20 55 0 30 -4 55 -10 55 -6 0 -10 27 -10 60 0 33 4 60 10 60 6 0 10 28 10 65 0 37 4 65 10 65 6 0 10 14 10 30 0 17 5 30 10 30 6 0 10 9 10 20 0 11 5 20 10 20 6 0 10 9 10 20 0 11 5 20 10 20 6 0 10 5 10 10 0 6 -42 10 -105 10 -63 0 -105 -4 -105 -10 0 -6 -48 -10 -125 -10 -77 0 -125 -4 -125 -10 0 -6 -52 -10 -135 -10 -83 0 -135 -4 -135 -10 0 -6 -85 -10 -235 -10 -150 0 -235 4 -235 10 0 6 14 10 30 10 17 0 30 5 30 10 0 6 9 10 20 10 11 0 20 5 20 10 0 6 14 10 30 10 17 0 30 5 30 10 0 6 9 10 20 10 11 0 20 5 20 10 0 6 9 10 20 10 11 0 20 5 20 10 0 6 16 10 35 10 19 0 35 5 35 10 0 6 9 10 20 10 11 0 20 5 20 10 0 6 9 10 20 10 11 0 20 5 20 10 0 6 9 10 20 10 11 0 20 7 20 15 0 8 9 15 20 15 11 0 20 5 20 10 0 6 11 10 25 10 14 0 25 5 25 10 0 6 9 10 20 10 11 0 20 5 20 10 0 6 9 10 20 10 11 0 20 5 20 10 0 6 8 10 18 10 10 0 24 9 32 20 8 11 21 20 30 20 9 0 22 9 30 20 8 11 21 20 30 20 9 0 22 9 30 20 8 11 19 20 25 20 6 0 17 9 25 20 8 11 20 20 28 20 14 0 42 23 42 35 0 4 18 24 40 45 22 21 40 46 40 54 0 9 5 16 10 16 6 0 10 14 10 30 0 17 5 30 10 30 6 0 10 14 10 30 0 17 -4 30 -10 30 -5 0 -10 15 -10 33 0 21 -7 38 -20 47 -11 8 -20 20 -20 28 0 17 -65 82 -82 82 -8 0 -20 9 -28 20 -8 11 -25 20 -37 20 -13 0 -23 5 -23 10 0 6 -9 10 -20 10 -11 0 -20 5 -20 10 0 6 -9 10 -20 10 -11 0 -20 5 -20 10 0 6 -9 10 -20 10 -11 0 -20 5 -20 10 0 6 -13 10 -30 10 -16 0 -30 5 -30 10 0 6 -9 10 -20 10 -11 0 -20 7 -20 15 0 10 -10 15 -30 15 -16 0 -30 5 -30 10 0 6 -20 10 -45 10 -25 0 -45 5 -45 10 0 6 -13 10 -30 10 -16 0 -30 5 -30 10 0 6 -20 10 -45 10 -25 0 -45 5 -45 10 0 6 -22 10 -50 10 -27 0 -50 5 -50 10 0 6 -22 10 -50 10 -27 0 -50 5 -50 10 0 6 -32 10 -75 10 -43 0 -75 4 -75 10 0 6 -30 10 -70 10 -40 0 -70 4 -70 10 0 6 -42 10 -105 10 -63 0 -105 4 -105 10 0 6 -55 10 -145 10 -90 0 -145 4 -145 10 0 6 -135 10 -385 10 -250 0 -385 -4 -385 -10z m540 -290 c0 -6 52 -10 135 -10 83 0 135 -4 135 -10 0 -6 28 -10 65 -10 37 0 65 -4 65 -10 0 -5 23 -10 50 -10 28 0 50 -4 50 -10 0 -5 18 -10 40 -10 22 0 40 -4 40 -10 0 -5 20 -10 45 -10 25 0 45 -4 45 -10 0 -5 9 -10 20 -10 11 0 20 -4 20 -10 0 -5 9 -10 20 -10 11 0 20 -4 20 -10 0 -5 7 -10 15 -10 17 0 85 -64 85 -80 0 -5 5 -10 10 -10 6 0 10 -18 10 -40 0 -22 -4 -40 -10 -40 -5 0 -10 -7 -10 -15 0 -18 -104 -125 -120 -125 -15 0 -40 -25 -40 -39 0 -6 -11 -11 -25 -11 -14 0 -25 -4 -25 -10 0 -5 -9 -10 -20 -10 -11 0 -20 -4 -20 -10 0 -5 -9 -10 -20 -10 -11 0 -20 -4 -20 -10 0 -5 -13 -10 -30 -10 -16 0 -30 -4 -30 -10 0 -5 -9 -10 -20 -10 -11 0 -20 -4 -20 -10 0 -5 -13 -10 -30 -10 -16 0 -30 -4 -30 -10 0 -5 -16 -10 -35 -10 -19 0 -35 -4 -35 -10 0 -5 -13 -10 -30 -10 -16 0 -30 -4 -30 -10 0 -5 -13 -10 -30 -10 -16 0 -30 -4 -30 -10 0 -5 -13 -10 -30 -10 -16 0 -30 -4 -30 -10 0 -5 -13 -10 -30 -10 -16 0 -30 -4 -30 -10 0 -5 -16 -10 -35 -10 -19 0 -35 -4 -35 -10 0 -5 -13 -10 -30 -10 -16 0 -30 -4 -30 -10 0 -5 -20 -10 -45 -10 -25 0 -45 5 -45 10 0 6 -13 10 -30 10 -16 0 -30 5 -30 10 0 6 -18 10 -40 10 -22 0 -40 5 -40 10 0 6 -18 10 -40 10 -22 0 -40 5 -40 10 0 6 -20 10 -45 10 -25 0 -45 5 -45 10 0 6 -18 10 -40 10 -22 0 -40 5 -40 10 0 6 -13 10 -30 10 -16 0 -30 5 -30 10 0 6 -18 10 -40 10 -22 0 -40 5 -40 10 0 6 -16 10 -35 10 -19 0 -35 5 -35 10 0 6 -13 10 -30 10 -16 0 -30 5 -30 10 0 6 -13 10 -30 10 -16 0 -30 5 -30 10 0 6 -9 10 -20 10 -11 0 -20 5 -20 10 0 6 -11 10 -25 10 -14 0 -25 5 -25 10 0 6 -7 10 -15 10 -8 0 -15 7 -15 15 0 9 -9 15 -23 15 -12 0 -29 9 -37 20 -8 11 -20 20 -28 20 -17 0 -42 25 -42 42 0 8 -9 20 -20 28 -12 8 -20 26 -20 42 0 15 -4 28 -10 28 -5 0 -10 14 -10 30 0 17 5 30 10 30 6 0 10 5 10 10 0 16 68 80 85 80 8 0 15 5 15 10 0 6 9 10 20 10 11 0 20 5 20 10 0 6 14 10 30 10 17 0 30 5 30 10 0 6 16 10 35 10 19 0 35 5 35 10 0 6 14 10 30 10 17 0 30 5 30 10 0 6 23 10 50 10 28 0 50 5 50 10 0 6 32 10 75 10 43 0 75 4 75 10 0 6 48 10 125 10 77 0 125 4 125 10 0 6 58 10 155 10 97 0 155 -4 155 -10z"
       id="path32" />
    <path
       d="M2600 1250 c0 -5 -18 -10 -40 -10 -22 0 -40 -4 -40 -10 0 -5 -9 -10 -20 -10 -11 0 -20 -7 -20 -15 0 -8 -4 -15 -8 -15 -18 0 -52 -38 -52 -59 0 -11 -4 -21 -10 -21 -6 0 -10 -30 -10 -70 0 -40 -4 -70 -10 -70 -5 0 -10 -25 -10 -55 0 -42 -3 -55 -15 -55 -11 0 -15 -12 -15 -50 0 -27 -4 -50 -10 -50 -6 0 -10 -28 -10 -65 0 -37 -4 -65 -10 -65 -5 0 -10 -22 -10 -50 0 -27 -4 -50 -10 -50 -5 0 -10 -22 -10 -50 0 -27 -4 -50 -10 -50 -5 0 -10 -25 -10 -55 0 -30 -4 -55 -10 -55 -5 0 -10 -22 -10 -50 0 -27 -4 -50 -10 -50 -5 0 -10 -9 -10 -20 0 -20 7 -20 415 -20 l415 0 0 40 c0 22 -4 40 -10 40 -5 0 -10 25 -10 55 0 30 -4 55 -10 55 -5 0 -10 18 -10 40 0 22 -4 40 -10 40 -5 0 -10 23 -10 50 0 28 -4 50 -10 50 -5 0 -10 25 -10 55 0 30 -4 55 -10 55 -5 0 -10 18 -10 40 0 22 -4 40 -10 40 -5 0 -10 23 -10 50 0 28 -4 50 -10 50 -5 0 -10 18 -10 40 0 22 -4 40 -10 40 -6 0 -10 32 -10 75 0 43 -4 75 -10 75 -5 0 -10 14 -10 30 0 20 -5 30 -15 30 -9 0 -15 9 -15 24 0 16 -7 27 -20 31 -11 3 -20 13 -20 21 0 8 -9 14 -20 14 -11 0 -20 5 -20 10 0 6 -18 10 -40 10 -22 0 -40 5 -40 10 0 6 -20 10 -45 10 -25 0 -45 -4 -45 -10z"
       id="path36" />
  </g>
</svg>
