<?xml version="1.0" encoding="UTF-8" standalone="no"?>
<svg
   xmlns:dc="http://purl.org/dc/elements/1.1/"
   xmlns:cc="http://creativecommons.org/ns#"
   xmlns:rdf="http://www.w3.org/1999/02/22-rdf-syntax-ns#"
   xmlns:svg="http://www.w3.org/2000/svg"
   xmlns="http://www.w3.org/2000/svg"
   xmlns:sodipodi="http://sodipodi.sourceforge.net/DTD/sodipodi-0.dtd"
   xmlns:inkscape="http://www.inkscape.org/namespaces/inkscape"
   version="1.0"
   width="223.54584pt"
   height="326.96774pt"
   viewBox="0 0 223.54584 326.96774"
   preserveAspectRatio="xMidYMid meet"
   id="svg8098"
   sodipodi:docname="nosferatu.svg"
   inkscape:version="1.0.1 (3bc2e813f5, 2020-09-07)">
  <defs
     id="defs8102" />
  <sodipodi:namedview
     pagecolor="#ffffff"
     bordercolor="#666666"
     borderopacity="1"
     objecttolerance="10"
     gridtolerance="10"
     guidetolerance="10"
     inkscape:pageopacity="0"
     inkscape:pageshadow="2"
     inkscape:window-width="1600"
     inkscape:window-height="837"
     id="namedview8100"
     showgrid="false"
     fit-margin-top="0"
     fit-margin-left="0"
     fit-margin-right="0"
     fit-margin-bottom="0"
     inkscape:zoom="1.1844039"
     inkscape:cx="-62.893839"
     inkscape:cy="180.20256"
     inkscape:window-x="-8"
     inkscape:window-y="-8"
     inkscape:window-maximized="1"
     inkscape:current-layer="svg8098" />
  <metadata
     id="metadata8090">
Created by potrace 1.16, written by Peter Selinger 2001-2019
<rdf:RDF>
  <cc:Work
     rdf:about="">
    <dc:format>image/svg+xml</dc:format>
    <dc:type
       rdf:resource="http://purl.org/dc/dcmitype/StillImage" />
    <dc:title></dc:title>
  </cc:Work>
</rdf:RDF>
</metadata>
  <path
     id="path8681"
     style="fill:#ffffff;stroke-width:0.22388"
     d="m 64.168977,31.968371 c -6.617625,-0.0164 -12.83598,4.739756 -14.524253,11.143307 -1.774965,5.859524 -0.46059,12.832411 4.299495,16.925668 4.409385,4.159696 11.2704,4.923724 16.727348,2.495099 4.74393,-1.620645 9.17991,-4.913017 10.88787,-9.779659 C 84.147432,46.27272 81.419314,38.224493 75.390852,34.693143 72.101209,32.571702 68.009517,32.03463 64.168977,31.968371 Z m 94.358603,-0.764668 c -6.66074,0.33844 -14.15775,1.694104 -17.78157,8.007636 -5.0279,7.975987 -0.62717,19.090862 7.93682,22.481397 7.46443,4.975162 18.87221,3.955627 23.68442,-4.187662 5.87748,-9.01794 1.69701,-23.542508 -9.48127,-25.877156 -1.44468,-0.249631 -2.88539,-0.501592 -4.3584,-0.424215 z m -5.9959,101.044697 c -8.98541,3.01187 -12.76748,14.59272 -7.84117,22.53161 5.18099,7.77039 8.63246,16.45617 11.66405,25.24015 3.92171,8.37544 15.62356,11.23473 22.89048,5.4845 5.55722,-4.5274 7.90447,-11.69802 12.35485,-17.19319 4.40485,-5.57372 8.67641,-12.86587 5.44752,-20.03018 -2.4086,-6.20793 -8.90148,-9.23271 -15.1769,-9.79211 -7.56287,-1.93312 -14.84463,-5.00088 -22.37938,-6.86086 -2.3802,-0.0994 -4.67856,-0.20641 -6.95945,0.62008 z m -66.594268,38.9857 c -7.992413,1.73442 -12.89154,9.94339 -11.90151,17.84298 -0.181673,7.42122 -0.74148,16.29087 6.06648,21.15304 6.727777,5.10614 16.454482,2.94011 21.658028,-3.33186 5.5136,-4.19461 10.61527,-10.75501 8.4913,-18.05438 -1.62563,-7.09616 -8.27334,-11.53746 -13.715853,-15.73073 -3.080588,-2.09158 -6.99426,-2.29706 -10.598445,-1.87905 z m 22.501918,81.08929 c -7.58251,2.00967 -11.570953,9.64495 -11.822353,17.05146 -0.39006,9.64246 -1.973198,21.20868 5.613733,28.66354 7.34899,7.55651 21.29402,4.67619 25.29333,-5.00276 5.01019,-12.34773 4.31959,-28.73964 -6.23317,-38.03593 -3.70678,-2.81767 -8.33796,-3.57106 -12.85154,-2.67631 z m 24.45851,-81.18081 c -6.64495,2.59137 -11.60819,8.25687 -16.37526,13.32844 -5.93075,7.00758 -2.80859,18.11168 4.75557,22.63274 5.76264,3.94359 7.8631,12.35358 15.50052,13.57452 9.45894,2.93408 19.68825,-5.56358 19.07871,-15.35736 -0.74511,-8.71452 -2.02449,-17.56831 -4.86432,-25.85529 -3.0225,-6.83151 -10.95019,-10.34199 -18.09522,-8.32305 z M 204.05458,0.02083805 C 192.77341,0.67900055 182.58019,6.4225908 171.42411,7.9601408 140.83546,13.855811 109.49491,13.82061 78.494487,12.347797 62.262199,11.100994 46.520517,6.7493596 31.043051,1.9366066 21.660094,-0.9383797 9.6834131,-0.26842045 3.6977058,8.6039204 -1.2788119,14.203832 -0.50351443,22.022132 1.7849471,28.60493 c 3.0149212,13.318296 7.429086,26.45166 8.6904979,40.092912 0.430277,19.232662 -4.1119819,38.163418 -4.1398984,57.396108 -0.392922,26.38179 -0.8434073,53.41543 6.8125744,78.93508 6.606393,17.6007 15.801278,34.10525 24.613761,50.6721 10.192792,18.85145 22.744507,36.66156 39.145957,50.63562 9.181545,7.74899 18.589193,15.91878 29.939771,20.24523 8.26867,1.64879 16.26304,-2.38741 24.07386,-4.57608 16.73249,-7.0588 30.82213,-18.92167 45.22524,-29.73212 14.43066,-11.00947 27.3676,-25.13614 32.57918,-42.90504 6.82828,-22.74742 8.01748,-46.65938 10.89724,-70.1092 2.75367,-25.43579 4.72488,-51.40322 -0.72746,-76.64254 -3.13621,-15.966996 -6.95942,-32.549507 -2.5931,-48.690809 2.26716,-12.425458 7.44082,-24.494346 7.23744,-37.258331 C 223.03224,6.7241191 213.67529,-0.4378252 204.05458,0.02083805 Z M 160.24175,46.042556 c 0.68164,3.800012 0.3035,5.673446 -3.43099,3.122937 -3.12478,-1.301898 -7.52128,-2.70766 -1.77665,-2.778915 1.44203,0.137969 4.36194,-1.129941 5.20764,-0.344022 z m -94.619641,0.964686 c 5.145,0.06133 0.106965,1.366155 -1.845277,2.201464 0.306765,-1.596826 -0.555638,-3.097531 1.845277,-2.201464 z M 73.726707,139.559 c -0.612525,-0.46035 1.581397,-0.45541 0,0 z m 83.552953,6.4535 c 8.6841,3.04776 17.33546,6.54562 26.4757,7.95371 -4.96961,6.90229 -10.14326,13.74932 -13.77028,21.48777 -3.0538,-10.75601 -7.26807,-21.47049 -14.52966,-30.12295 0.60808,0.22716 1.21616,0.45431 1.82424,0.68147 z m -45.7558,8.89984 c 0.39739,1.09363 -0.69677,-0.85209 0,0 z m 25.95377,29.71853 c 4.93993,17.81554 4.86555,36.58829 4.31017,54.93022 0.33438,3.96732 -1.11605,0.64687 -2.49211,-0.98076 -7.52262,-9.77553 -20.08871,-14.84857 -32.29967,-13.42522 -6.48663,0.52791 -12.898001,2.96574 -17.758886,7.35636 -0.433275,-15.78196 -0.446925,-31.57418 -0.23994,-47.35992 7.116023,7.90517 16.926696,16.29823 28.393176,13.54591 8.32954,-1.76729 13.99801,-8.70117 20.08726,-14.06659 z m -26.08487,81.15237 c 5.03884,3.98491 4.84302,11.68186 3.80185,17.44599 -0.33409,2.61682 -0.96291,6.48323 -3.86002,3.15014 -0.6435,-6.43078 -0.0362,-13.94995 0.0582,-20.59613 z" />
  <g
     transform="matrix(0.1,0,0,-0.1,-37.604058,312.40733)"
     fill="#000000"
     stroke="none"
     id="g8096">
    <path
       d="m 536,2961 c -18,-20 -18,-24 27,-193 77,-288 81,-345 47,-608 -47,-361 -33,-815 32,-1030 39,-128 263,-555 375,-714 100,-143 279,-310 419,-392 l 45,-26 67,16 c 124,31 189,69 417,239 321,240 373,334 425,772 22,178 42,372 61,589 12,139 2,301 -27,441 -73,349 -72,424 11,726 40,145 43,174 16,189 -31,16 -62,12 -132,-16 -146,-60 -437,-101 -779,-111 -322,-9 -609,24 -804,93 -133,47 -175,52 -200,25 z m 152,-78 c 95,-33 100,-36 128,-98 28,-59 32,-146 10,-219 -8,-27 -43,-91 -78,-142 l -63,-94 -6,132 c -6,105 -14,162 -43,273 -35,138 -42,175 -30,175 3,0 40,-12 82,-27 z m 1706,18 c 3,-5 -10,-71 -30,-147 -31,-118 -37,-160 -42,-281 l -4,-142 -65,90 c -78,109 -95,153 -96,246 0,60 4,80 29,128 29,57 30,58 109,85 93,33 92,33 99,21 z M 980,2811 c 350,-60 621,-54 1147,25 l 42,6 -22,-43 c -18,-36 -22,-60 -21,-129 2,-98 19,-152 67,-213 116,-144 189,-351 217,-611 20,-182 3,-245 -105,-386 -140,-184 -165,-285 -145,-600 11,-174 11,-202 -4,-259 -23,-91 -71,-175 -131,-230 -48,-43 -115,-85 -123,-76 -2,2 3,16 11,32 8,15 25,75 37,133 20,88 24,144 28,345 5,278 -6,402 -50,550 -44,148 -110,250 -189,290 -92,47 -133,124 -146,273 l -6,74 44,-31 c 75,-53 520,-224 603,-233 24,-3 32,3 50,37 32,60 29,205 -6,297 -57,153 -170,306 -280,381 -29,20 -114,59 -188,87 -74,28 -159,64 -188,81 -44,25 -53,27 -58,14 -11,-28 3,-787 16,-861 13,-78 57,-170 80,-167 8,1 27,5 42,9 21,5 33,0 55,-22 l 27,-27 -44,-19 c -25,-11 -67,-36 -95,-57 -118,-89 -152,-90 -271,-10 -44,29 -101,61 -129,70 l -49,16 27,18 c 24,16 40,16 86,4 19,-5 55,59 77,136 15,51 18,122 22,493 2,279 0,432 -6,432 -6,0 -32,-15 -60,-33 -27,-19 -96,-49 -153,-67 -144,-45 -188,-70 -273,-151 -85,-81 -147,-169 -176,-254 -37,-107 -24,-255 29,-324 l 19,-24 28,22 c 26,20 87,51 102,51 13,0 -10,-102 -38,-170 -17,-41 -34,-96 -37,-121 -5,-41 -3,-48 22,-67 52,-41 116,-20 134,44 6,23 4,45 -10,85 -20,54 -59,200 -59,216 0,5 46,15 103,21 154,18 242,45 320,96 l 27,18 v -44 c 0,-59 -32,-184 -64,-246 -22,-43 -30,-50 -63,-55 -47,-8 -103,-62 -132,-127 -34,-77 -43,-165 -43,-405 0,-240 25,-529 57,-664 9,-35 14,-66 12,-68 -6,-5 -89,95 -120,143 -42,67 -75,179 -107,360 -43,248 -99,400 -210,570 -77,117 -84,154 -77,374 9,274 28,396 72,477 19,35 53,88 75,117 62,82 83,139 88,237 4,72 1,94 -17,134 -25,57 -25,58 -3,51 9,-3 69,-14 132,-25 z m 400,-306 v -84 l -46,-27 c -26,-15 -94,-40 -152,-56 -126,-34 -178,-63 -258,-143 -84,-83 -143,-208 -144,-304 -1,-69 -22,-4 -27,83 -7,106 12,171 77,270 92,137 188,208 354,262 61,19 129,46 151,59 22,13 41,24 43,25 1,0 2,-38 2,-85 z m 382,12 c 47,-14 111,-37 142,-52 145,-69 325,-304 372,-485 16,-65 13,-129 -9,-177 -10,-23 -13,-20 -29,48 -56,228 -233,439 -398,474 -68,15 -183,56 -212,76 -27,20 -28,23 -28,105 v 84 l 39,-24 c 21,-14 77,-36 123,-49 z m -382,-431 c 0,-104 -106,-157 -379,-190 -70,-9 -134,-22 -147,-31 -40,-26 -40,-17 1,26 55,56 113,83 230,107 130,26 210,57 254,98 20,18 37,34 39,34 1,0 2,-20 2,-44 z m 273,-4 c 23,-16 96,-52 162,-80 66,-29 155,-74 197,-100 90,-54 200,-133 194,-139 -2,-2 -86,26 -187,63 -194,70 -335,135 -387,179 -29,24 -32,32 -31,78 0,29 3,46 6,39 2,-7 23,-25 46,-40 z m -387,-607 c 24,-14 68,-56 99,-93 67,-79 98,-102 143,-102 29,0 47,13 127,90 83,80 97,90 130,90 52,0 72,-14 100,-70 63,-125 92,-390 75,-683 -12,-199 -28,-283 -66,-362 -30,-60 -123,-165 -147,-165 -12,0 -15,31 -19,183 -6,199 -16,248 -66,301 -80,85 -226,89 -294,8 -37,-45 -48,-110 -48,-295 V 215 l -50,50 c -46,47 -52,57 -75,149 -48,188 -59,313 -59,661 -1,320 4,371 37,413 16,20 67,14 113,-13 z m 1104,-76 c -10,-55 -23,-197 -40,-434 -17,-236 -36,-309 -97,-387 -45,-56 -57,-60 -37,-13 17,41 18,144 3,235 -6,36 -11,115 -11,175 -1,119 14,190 59,280 28,56 125,206 130,201 2,-1 -1,-27 -7,-57 z M 695,1356 c 91,-133 160,-307 198,-498 33,-166 35,-164 -49,-28 -42,69 -92,157 -110,195 -36,78 -71,210 -79,300 -4,33 -9,71 -11,85 -7,31 -6,30 51,-54 z m 839,-748 c 119,-36 175,-198 132,-382 -17,-70 -42,-97 -115,-125 l -54,-20 -79,51 -78,52 v 182 c 0,203 4,216 71,240 45,16 73,17 123,2 z"
       id="path8092" />
    <path
       d="m 1388,1216 c -60,-16 -111,-56 -142,-109 -27,-48 -33,-71 -46,-170 -9,-72 4,-233 19,-250 5,-4 14,6 21,22 33,81 147,137 265,129 110,-7 244,-88 284,-173 l 20,-40 15,38 c 41,95 28,251 -30,367 -82,163 -233,233 -406,186 z"
       id="path8094" />
  </g>
</svg>
