<?xml version="1.0" standalone="no"?>
<!DOCTYPE svg PUBLIC "-//W3C//DTD SVG 20010904//EN"
 "http://www.w3.org/TR/2001/REC-SVG-20010904/DTD/svg10.dtd">
<svg version="1.0" xmlns="http://www.w3.org/2000/svg"
 width="237.000000pt" height="289.000000pt" viewBox="0 0 237.000000 289.000000"
 preserveAspectRatio="xMidYMid meet">
<metadata>
Created by potrace 1.16, written by Peter Selinger 2001-2019
</metadata>
<g transform="translate(0.000000,289.000000) scale(0.100000,-0.100000)"
fill="#000000" stroke="none">
<path d="M780 2735 c0 -3 8 -18 18 -32 29 -45 23 -226 -11 -328 -47 -142 -188
-390 -287 -505 -128 -149 -192 -264 -230 -410 -20 -75 -23 -123 -30 -405 -8
-344 -11 -361 -70 -509 -40 -99 -39 -135 4 -180 24 -26 42 -36 64 -36 84 0
234 -72 268 -129 21 -35 68 -61 111 -61 55 0 148 40 216 93 37 28 100 78 140
109 100 77 173 158 253 280 136 210 160 243 209 293 28 29 93 77 145 108 52
30 107 68 122 84 19 20 46 80 83 189 31 87 72 190 91 229 44 87 138 202 227
280 93 81 128 134 130 192 2 44 -1 48 -39 75 -36 26 -60 32 -210 53 -392 55
-431 75 -719 362 -162 161 -225 202 -361 237 -61 16 -124 21 -124 11z m560
-448 c0 -12 -22 -41 -49 -68 -59 -57 -127 -81 -275 -99 -152 -18 -226 -41
-298 -92 -40 -28 -34 -6 7 31 58 50 104 68 257 99 166 34 214 55 280 124 40
42 51 48 63 38 8 -7 15 -22 15 -33z m460 -250 c0 -13 -14 -45 -32 -73 -39 -61
-46 -130 -28 -290 18 -164 3 -188 -27 -44 -33 154 -34 250 -5 314 25 56 68
116 83 116 5 0 9 -10 9 -23z m-406 -13 c8 -21 -17 -66 -54 -98 -42 -35 -94
-34 -245 5 -167 43 -221 39 -346 -23 -52 -26 -96 -45 -98 -42 -10 10 80 80
137 107 88 41 170 46 289 18 148 -34 255 -23 284 30 12 23 25 24 33 3z m137
-110 c-36 -46 -28 -95 39 -233 70 -147 85 -207 71 -286 -11 -56 -47 -152 -56
-144 -2 3 1 25 6 49 6 25 9 88 7 140 -3 85 -8 104 -39 170 -20 41 -53 95 -74
120 -64 77 -69 108 -25 168 24 34 36 42 61 42 l30 0 -20 -26z m-564 -188 l72
-1 -37 -38 c-36 -37 -141 -97 -169 -97 -8 0 -43 16 -77 35 -45 25 -75 35 -106
35 -37 0 -41 2 -29 16 7 8 33 27 58 40 42 23 53 24 131 18 47 -4 117 -8 157
-8z m454 -379 c22 -55 24 -138 5 -182 l-13 -30 -7 40 c-11 56 -31 91 -88 151
-61 64 -69 104 -43 200 l17 65 55 -98 c30 -54 63 -120 74 -146z m-986 100
c-19 -47 -19 -111 0 -127 21 -18 19 -50 -7 -77 -26 -28 -52 -29 -78 -3 -26 26
-25 72 1 130 18 40 88 125 96 116 2 -1 -4 -19 -12 -39z m501 -109 c-22 -38
-82 -123 -154 -221 -20 -27 -23 -39 -17 -82 3 -27 13 -61 21 -73 20 -30 48
-24 126 26 55 35 56 38 77 114 26 95 90 248 103 248 11 0 6 -19 -29 -114 -55
-147 -60 -186 -25 -186 8 0 32 18 53 39 l37 40 12 -46 c24 -96 -25 -252 -128
-405 -24 -38 -46 -68 -48 -68 -3 0 9 26 24 58 37 72 67 163 91 276 24 109 20
125 -22 90 -16 -14 -64 -43 -106 -64 -42 -21 -94 -52 -115 -69 -68 -54 -79
-39 -97 134 -5 55 -12 123 -15 152 -7 59 -18 67 -62 46 -36 -17 -144 -128
-189 -194 -40 -58 -93 -188 -132 -324 -35 -120 -47 -145 -36 -75 25 162 62
265 146 411 72 124 176 213 275 233 l30 7 -7 -63 c-13 -112 5 -104 128 53 42
55 78 99 80 99 2 0 -7 -19 -21 -42z m-226 -473 c35 -32 69 -55 82 -55 13 0 42
-9 64 -19 78 -35 65 -98 -47 -232 -35 -41 -72 -86 -81 -100 -17 -24 -17 -23
-11 32 7 68 -8 116 -45 152 -27 26 -49 31 -110 29 -27 -2 -48 -16 -103 -69
-75 -72 -77 -71 -55 34 31 143 71 217 140 258 66 40 96 34 166 -30z m-112
-363 c15 -19 15 -42 1 -79 l-11 -28 -13 32 c-16 37 -47 49 -101 38 -47 -8 -37
8 24 40 49 25 78 24 100 -3z"/>
</g>
</svg>
