<?xml version="1.0" standalone="no"?>
<!DOCTYPE svg PUBLIC "-//W3C//DTD SVG 20010904//EN"
 "http://www.w3.org/TR/2001/REC-SVG-20010904/DTD/svg10.dtd">
<svg version="1.0" xmlns="http://www.w3.org/2000/svg"
 width="294.000000pt" height="290.000000pt" viewBox="0 0 294.000000 290.000000"
 preserveAspectRatio="xMidYMid meet">
<metadata>
Created by potrace 1.16, written by Peter Selinger 2001-2019
</metadata>
<g transform="translate(0.000000,290.000000) scale(0.100000,-0.100000)"
fill="#000000" stroke="none">
<path d="M1440 2675 c-13 -41 -27 -75 -30 -75 -4 0 -20 4 -36 9 -16 5 -47 12
-70 15 -37 5 -42 3 -53 -20 -9 -20 -8 -28 4 -40 8 -9 18 -27 21 -42 3 -15 7
-33 9 -39 3 -7 -8 -16 -23 -19 -15 -3 -49 -12 -76 -20 -43 -12 -52 -12 -66 1
-9 8 -30 18 -48 21 -26 5 -36 1 -62 -24 -16 -17 -30 -41 -30 -54 0 -18 -17
-34 -72 -71 l-73 -49 -144 72 c-79 39 -145 69 -148 67 -2 -3 28 -69 67 -147
l71 -141 -57 -85 c-50 -72 -62 -84 -86 -84 -65 0 -100 -80 -58 -133 l20 -25
-20 -84 c-11 -45 -20 -95 -20 -110 0 -25 -7 -29 -157 -79 l-158 -52 155 -52
154 -51 8 -40 c4 -21 15 -70 24 -107 14 -63 14 -70 0 -86 -26 -29 -21 -86 10
-110 15 -12 36 -21 48 -21 16 0 35 -21 74 -81 29 -44 52 -84 52 -90 0 -5 -31
-72 -70 -149 -38 -77 -70 -142 -70 -145 0 -3 37 13 82 36 77 39 83 40 93 23
22 -40 74 -84 98 -84 14 0 55 -9 92 -21 57 -17 76 -30 122 -77 l54 -57 72 0
c75 1 123 19 192 71 l31 23 49 -149 c27 -82 51 -147 55 -144 3 3 28 74 56 157
l51 152 84 18 c90 20 120 22 186 12 34 -6 45 -3 62 14 12 12 21 31 21 44 0 16
19 34 78 72 42 27 82 51 89 53 6 2 79 -31 162 -73 83 -41 151 -73 151 -70 0 3
-34 74 -76 158 l-76 152 48 77 c40 63 54 77 75 77 55 2 95 97 53 132 -9 8 -13
20 -9 33 3 12 14 59 24 106 l18 85 164 56 164 56 -163 54 c-132 44 -164 58
-167 74 -2 11 -11 57 -21 102 l-17 81 50 50 c53 53 81 120 69 167 -10 39 -73
74 -162 90 -44 8 -91 14 -107 15 l-27 0 70 140 c38 77 70 142 70 145 0 3 -63
-26 -139 -64 l-139 -70 -91 60 c-79 53 -91 65 -91 89 0 57 -84 91 -126 51 -19
-17 -23 -18 -85 -2 -39 10 -86 32 -121 56 -56 39 -58 42 -89 135 -17 52 -35
98 -38 103 -4 4 -18 -26 -31 -68z m-15 -107 c97 -32 164 -79 263 -187 91 -98
218 -203 292 -241 43 -22 191 -53 330 -70 52 -6 109 -16 127 -21 119 -37 110
-136 -23 -245 -68 -56 -157 -165 -197 -243 -19 -36 -56 -127 -82 -201 -27 -78
-57 -146 -71 -160 -13 -14 -64 -50 -115 -80 -105 -64 -133 -94 -251 -275 -114
-175 -143 -207 -283 -321 -138 -111 -207 -149 -279 -149 -44 0 -52 4 -85 40
-63 71 -87 83 -247 124 -77 20 -95 82 -51 181 48 108 58 186 62 455 2 215 6
261 24 328 28 105 87 216 166 310 68 80 169 237 223 343 48 94 73 182 78 274
5 72 3 91 -14 122 -11 21 -17 40 -14 43 9 9 78 -4 147 -27z"/>
<path d="M1681 2191 c-55 -55 -92 -70 -250 -101 -111 -23 -164 -44 -196 -80
l-20 -23 25 16 c45 29 113 48 244 67 94 15 141 27 178 47 50 27 88 69 88 96 0
33 -21 26 -69 -22z"/>
<path d="M2102 1965 c-59 -91 -64 -169 -22 -320 17 -59 19 -63 15 -25 -3 25
-8 90 -11 145 -6 98 -6 101 26 158 41 78 35 110 -8 42z"/>
<path d="M1770 1975 c-41 -49 -111 -56 -247 -24 -98 23 -159 20 -230 -11 -44
-19 -116 -70 -110 -76 2 -3 39 12 82 32 97 45 151 47 289 10 151 -40 186 -35
226 30 24 38 15 70 -10 39z"/>
<path d="M1866 1879 c-37 -44 -34 -86 8 -135 19 -22 49 -69 68 -105 32 -61 33
-69 33 -177 0 -108 1 -112 15 -80 9 19 15 64 15 108 0 71 -3 82 -57 195 -32
66 -58 129 -58 140 0 11 7 33 15 49 18 35 18 36 1 36 -8 0 -26 -14 -40 -31z"/>
<path d="M1204 1721 c-50 -23 -64 -41 -33 -41 12 0 51 -16 85 -34 l63 -35 59
29 c32 16 68 40 80 53 l23 24 -73 7 c-40 3 -93 8 -118 11 -32 4 -57 0 -86 -14z"/>
<path d="M1700 1550 c-19 -78 -9 -114 50 -176 28 -30 53 -66 56 -84 10 -46 22
-45 29 2 8 57 -10 113 -72 221 l-51 88 -12 -51z"/>
<path d="M951 1483 c-40 -48 -63 -116 -51 -148 12 -32 46 -41 71 -19 23 20 24
42 4 68 -19 25 -19 57 -1 101 8 19 13 35 11 35 -2 0 -17 -17 -34 -37z"/>
<path d="M1502 1318 c-17 -40 -37 -99 -45 -131 -9 -33 -17 -60 -19 -62 -13
-13 -124 -75 -135 -75 -20 0 -43 55 -43 104 0 35 6 53 28 78 16 18 43 56 61
83 l32 50 -33 -40 c-92 -112 -114 -118 -103 -27 l7 55 -29 -7 c-42 -11 -108
-52 -149 -94 -75 -77 -176 -284 -188 -387 -6 -46 -4 -45 17 25 55 182 138 322
236 396 59 46 85 43 89 -11 1 -22 7 -49 12 -60 4 -11 11 -60 13 -108 6 -105
15 -120 54 -89 16 12 57 37 93 56 36 18 74 42 85 52 12 11 19 18 16 17 -9 -6
-31 20 -31 37 0 10 16 59 36 110 42 110 39 132 -4 28z"/>
<path d="M1553 1191 c-7 -10 -9 -28 -6 -40 6 -23 -20 -147 -48 -229 -10 -30
-17 -57 -15 -59 7 -8 49 74 72 141 34 98 31 241 -3 187z"/>
<path d="M1084 1021 c-64 -39 -108 -126 -129 -251 l-7 -45 55 53 c55 51 74 59
137 53 53 -5 96 -77 88 -147 -2 -19 -3 -34 -2 -34 1 0 28 33 61 73 119 143
122 191 14 216 -27 6 -57 23 -80 44 -64 61 -88 68 -137 38z"/>
<path d="M1036 680 c-53 -27 -54 -29 -7 -23 34 5 43 2 64 -21 l25 -26 5 22 c7
25 -16 68 -36 68 -6 -1 -30 -10 -51 -20z"/>
</g>
</svg>
