<?xml version="1.0" standalone="no"?>
<!DOCTYPE svg PUBLIC "-//W3C//DTD SVG 20010904//EN"
 "http://www.w3.org/TR/2001/REC-SVG-20010904/DTD/svg10.dtd">
<svg version="1.0" xmlns="http://www.w3.org/2000/svg"
 width="300.000000pt" height="300.000000pt" viewBox="0 0 300.000000 300.000000"
 preserveAspectRatio="xMidYMid meet">
<metadata>
Created by potrace 1.16, written by Peter Selinger 2001-2019
</metadata>
<g transform="translate(0.000000,300.000000) scale(0.100000,-0.100000)"
fill="#000000" stroke="none">
<path d="M536 2961 c-18 -20 -18 -24 27 -193 77 -288 81 -345 47 -608 -47
-361 -33 -815 32 -1030 39 -128 263 -555 375 -714 100 -143 279 -310 419 -392
l45 -26 67 16 c124 31 189 69 417 239 321 240 373 334 425 772 22 178 42 372
61 589 12 139 2 301 -27 441 -73 349 -72 424 11 726 40 145 43 174 16 189 -31
16 -62 12 -132 -16 -146 -60 -437 -101 -779 -111 -322 -9 -609 24 -804 93
-133 47 -175 52 -200 25z m152 -78 c95 -33 100 -36 128 -98 28 -59 32 -146 10
-219 -8 -27 -43 -91 -78 -142 l-63 -94 -6 132 c-6 105 -14 162 -43 273 -35
138 -42 175 -30 175 3 0 40 -12 82 -27z m1706 18 c3 -5 -10 -71 -30 -147 -31
-118 -37 -160 -42 -281 l-4 -142 -65 90 c-78 109 -95 153 -96 246 0 60 4 80
29 128 29 57 30 58 109 85 93 33 92 33 99 21z m-1414 -90 c350 -60 621 -54
1147 25 l42 6 -22 -43 c-18 -36 -22 -60 -21 -129 2 -98 19 -152 67 -213 116
-144 189 -351 217 -611 20 -182 3 -245 -105 -386 -140 -184 -165 -285 -145
-600 11 -174 11 -202 -4 -259 -23 -91 -71 -175 -131 -230 -48 -43 -115 -85
-123 -76 -2 2 3 16 11 32 8 15 25 75 37 133 20 88 24 144 28 345 5 278 -6 402
-50 550 -44 148 -110 250 -189 290 -92 47 -133 124 -146 273 l-6 74 44 -31
c75 -53 520 -224 603 -233 24 -3 32 3 50 37 32 60 29 205 -6 297 -57 153 -170
306 -280 381 -29 20 -114 59 -188 87 -74 28 -159 64 -188 81 -44 25 -53 27
-58 14 -11 -28 3 -787 16 -861 13 -78 57 -170 80 -167 8 1 27 5 42 9 21 5 33
0 55 -22 l27 -27 -44 -19 c-25 -11 -67 -36 -95 -57 -118 -89 -152 -90 -271
-10 -44 29 -101 61 -129 70 l-49 16 27 18 c24 16 40 16 86 4 19 -5 55 59 77
136 15 51 18 122 22 493 2 279 0 432 -6 432 -6 0 -32 -15 -60 -33 -27 -19 -96
-49 -153 -67 -144 -45 -188 -70 -273 -151 -85 -81 -147 -169 -176 -254 -37
-107 -24 -255 29 -324 l19 -24 28 22 c26 20 87 51 102 51 13 0 -10 -102 -38
-170 -17 -41 -34 -96 -37 -121 -5 -41 -3 -48 22 -67 52 -41 116 -20 134 44 6
23 4 45 -10 85 -20 54 -59 200 -59 216 0 5 46 15 103 21 154 18 242 45 320 96
l27 18 0 -44 c0 -59 -32 -184 -64 -246 -22 -43 -30 -50 -63 -55 -47 -8 -103
-62 -132 -127 -34 -77 -43 -165 -43 -405 0 -240 25 -529 57 -664 9 -35 14 -66
12 -68 -6 -5 -89 95 -120 143 -42 67 -75 179 -107 360 -43 248 -99 400 -210
570 -77 117 -84 154 -77 374 9 274 28 396 72 477 19 35 53 88 75 117 62 82 83
139 88 237 4 72 1 94 -17 134 -25 57 -25 58 -3 51 9 -3 69 -14 132 -25z m400
-306 l0 -84 -46 -27 c-26 -15 -94 -40 -152 -56 -126 -34 -178 -63 -258 -143
-84 -83 -143 -208 -144 -304 -1 -69 -22 -4 -27 83 -7 106 12 171 77 270 92
137 188 208 354 262 61 19 129 46 151 59 22 13 41 24 43 25 1 0 2 -38 2 -85z
m382 12 c47 -14 111 -37 142 -52 145 -69 325 -304 372 -485 16 -65 13 -129 -9
-177 -10 -23 -13 -20 -29 48 -56 228 -233 439 -398 474 -68 15 -183 56 -212
76 -27 20 -28 23 -28 105 l0 84 39 -24 c21 -14 77 -36 123 -49z m-382 -431 c0
-104 -106 -157 -379 -190 -70 -9 -134 -22 -147 -31 -40 -26 -40 -17 1 26 55
56 113 83 230 107 130 26 210 57 254 98 20 18 37 34 39 34 1 0 2 -20 2 -44z
m273 -4 c23 -16 96 -52 162 -80 66 -29 155 -74 197 -100 90 -54 200 -133 194
-139 -2 -2 -86 26 -187 63 -194 70 -335 135 -387 179 -29 24 -32 32 -31 78 0
29 3 46 6 39 2 -7 23 -25 46 -40z m-387 -607 c24 -14 68 -56 99 -93 67 -79 98
-102 143 -102 29 0 47 13 127 90 83 80 97 90 130 90 52 0 72 -14 100 -70 63
-125 92 -390 75 -683 -12 -199 -28 -283 -66 -362 -30 -60 -123 -165 -147 -165
-12 0 -15 31 -19 183 -6 199 -16 248 -66 301 -80 85 -226 89 -294 8 -37 -45
-48 -110 -48 -295 l0 -162 -50 50 c-46 47 -52 57 -75 149 -48 188 -59 313 -59
661 -1 320 4 371 37 413 16 20 67 14 113 -13z m1104 -76 c-10 -55 -23 -197
-40 -434 -17 -236 -36 -309 -97 -387 -45 -56 -57 -60 -37 -13 17 41 18 144 3
235 -6 36 -11 115 -11 175 -1 119 14 190 59 280 28 56 125 206 130 201 2 -1
-1 -27 -7 -57z m-1675 -43 c91 -133 160 -307 198 -498 33 -166 35 -164 -49
-28 -42 69 -92 157 -110 195 -36 78 -71 210 -79 300 -4 33 -9 71 -11 85 -7 31
-6 30 51 -54z m839 -748 c119 -36 175 -198 132 -382 -17 -70 -42 -97 -115
-125 l-54 -20 -79 51 -78 52 0 182 c0 203 4 216 71 240 45 16 73 17 123 2z"/>
<path d="M1388 1216 c-60 -16 -111 -56 -142 -109 -27 -48 -33 -71 -46 -170 -9
-72 4 -233 19 -250 5 -4 14 6 21 22 33 81 147 137 265 129 110 -7 244 -88 284
-173 l20 -40 15 38 c41 95 28 251 -30 367 -82 163 -233 233 -406 186z"/>
</g>
</svg>
