<?xml version="1.0" standalone="no"?>
<!DOCTYPE svg PUBLIC "-//W3C//DTD SVG 20010904//EN"
 "http://www.w3.org/TR/2001/REC-SVG-20010904/DTD/svg10.dtd">
<svg version="1.0" xmlns="http://www.w3.org/2000/svg"
 width="606.000000pt" height="511.000000pt" viewBox="0 0 606.000000 511.000000"
 preserveAspectRatio="xMidYMid meet">
<metadata>
Created by potrace 1.16, written by Peter Selinger 2001-2019
</metadata>
<g transform="translate(0.000000,511.000000) scale(0.100000,-0.100000)"
fill="#000000" stroke="none">
<path d="M1919 4811 c-13 -10 -55 -35 -94 -56 -109 -60 -235 -167 -249 -212
-6 -19 -2 -25 18 -33 14 -5 26 -11 26 -14 0 -2 -35 -12 -77 -21 -84 -18 -431
-129 -475 -151 -22 -11 -32 -12 -47 -2 -16 9 -23 9 -37 -3 -9 -8 -27 -15 -38
-17 -12 -1 -42 -5 -68 -8 l-47 -6 -56 -99 c-31 -54 -109 -216 -174 -359 -66
-143 -137 -288 -159 -323 -22 -35 -44 -79 -50 -98 -5 -19 -33 -90 -62 -159
-58 -138 -69 -199 -40 -240 9 -14 19 -32 22 -41 5 -13 27 -17 105 -22 54 -3
102 -2 107 3 5 5 16 5 26 0 10 -5 62 -14 116 -19 55 -5 122 -16 149 -25 28 -9
354 -117 725 -241 371 -124 722 -236 780 -251 58 -14 113 -30 123 -35 11 -6
17 -6 17 1 0 5 6 10 13 10 13 0 37 53 37 83 0 9 4 17 9 17 4 0 13 15 18 33 9
30 7 34 -39 78 l-48 47 24 63 c19 50 28 63 46 64 12 1 77 -15 144 -37 66 -21
122 -38 123 -38 3 0 23 141 29 211 l6 75 -88 24 c-49 13 -104 27 -121 32 l-33
9 0 69 c0 82 -13 78 152 49 66 -12 120 -20 122 -18 10 11 47 272 40 278 -5 5
-62 15 -127 24 -65 9 -123 19 -128 22 -9 6 -13 108 -4 117 3 3 27 2 53 -2 26
-4 86 -11 135 -15 l87 -7 0 151 0 150 -137 3 -138 3 -3 78 c-2 56 1 78 10 81
7 3 70 8 141 11 l127 7 0 155 0 155 -42 -6 c-24 -3 -94 -9 -155 -12 -112 -7
-113 -7 -113 15 0 34 -41 194 -54 211 -6 8 -16 25 -23 36 -11 21 -9 22 30 28
33 5 259 25 288 26 5 0 32 50 26 50 -1 0 -38 6 -82 14 -44 7 -124 14 -179 15
-54 1 -133 8 -175 16 -42 8 -96 15 -121 15 -25 0 -85 7 -135 15 -49 8 -109 15
-133 15 -24 0 -56 7 -71 15 -26 13 -31 13 -52 -4z m-199 -281 c0 -5 -1 -10 -3
-10 -1 0 -16 -4 -33 -9 -23 -6 -39 -4 -65 10 l-34 18 68 1 c38 0 67 -4 67 -10z
m733 -89 c12 -20 17 -51 17 -103 0 -43 5 -79 12 -86 11 -11 -3 -95 -33 -194
-7 -25 -5 -28 15 -28 30 0 36 -16 36 -96 l0 -64 -40 0 c-22 0 -40 -4 -40 -8 0
-4 -7 -62 -15 -127 -8 -66 -15 -122 -15 -124 0 -2 25 -1 55 3 l55 6 0 -70 0
-69 -63 6 -64 6 -6 -104 c-3 -57 -9 -114 -12 -125 -6 -20 -1 -23 56 -33 34 -6
64 -13 66 -15 3 -3 1 -33 -4 -68 -9 -70 -5 -68 -108 -57 l-40 4 -7 -55 c-4
-30 -8 -84 -9 -119 l-2 -65 55 -18 55 -19 -9 -54 c-4 -30 -12 -65 -18 -79 l-9
-26 -168 59 c-92 33 -278 98 -413 146 -135 48 -321 109 -414 136 -196 56 -649
150 -749 155 -37 2 -76 8 -87 14 -10 5 -28 10 -39 10 -12 0 -21 6 -21 14 0 19
61 163 234 548 80 180 146 332 146 337 0 13 64 41 185 79 99 32 1306 309 1355
311 18 1 31 -7 43 -28z"/>
<path d="M2236 4296 c-62 -7 -101 -16 -104 -23 -2 -7 -12 -13 -23 -13 -28 0
-40 -40 -32 -108 6 -51 11 -61 49 -95 l42 -38 91 7 91 7 0 116 c0 64 3 126 6
139 4 15 2 22 -7 21 -8 -1 -59 -7 -113 -13z"/>
<path d="M2201 3860 c-71 -6 -88 -11 -103 -30 -20 -25 -23 -46 -8 -55 7 -4 6
-13 -1 -26 -12 -23 3 -49 27 -49 8 0 14 -9 14 -21 0 -14 11 -24 38 -35 20 -8
45 -19 54 -24 10 -6 33 -10 52 -10 32 0 33 2 40 47 3 26 9 85 13 130 7 95 24
86 -126 73z"/>
<path d="M2028 3465 c-12 -28 1 -51 37 -65 18 -8 17 -9 -8 -9 -21 -1 -31 -9
-44 -36 -17 -35 -17 -36 8 -60 22 -22 38 -27 142 -37 65 -6 119 -9 121 -7 2 2
7 57 10 122 l7 117 -130 0 c-130 0 -132 0 -143 -25z"/>
<path d="M1961 3104 c-14 -31 -2 -50 32 -57 22 -4 22 -4 1 -6 -14 -1 -29 -16
-45 -45 -30 -57 -18 -76 50 -76 25 0 93 -11 150 -25 57 -14 105 -24 107 -22 2
2 7 55 10 118 l7 116 -84 11 c-46 7 -114 12 -150 12 -61 0 -67 -2 -78 -26z"/>
<path d="M4080 4815 c-14 -8 -43 -14 -65 -15 -38 0 -161 -15 -385 -45 -58 -8
-143 -15 -190 -16 -78 -1 -246 -22 -256 -32 -3 -2 3 -14 13 -26 16 -18 35 -22
138 -31 66 -6 139 -13 162 -16 l42 -6 -20 -34 c-10 -19 -19 -43 -19 -54 0 -10
-4 -21 -9 -24 -4 -3 -17 -44 -27 -92 l-18 -87 -110 7 c-61 4 -130 9 -153 12
l-43 6 0 -154 0 -155 92 -7 c50 -3 113 -6 140 -6 l48 0 0 -85 0 -85 -142 0
-141 0 6 -146 c3 -80 8 -148 10 -151 6 -5 230 15 251 23 14 5 16 -4 16 -59 l0
-65 -87 -12 c-199 -28 -178 -21 -175 -60 4 -56 34 -227 42 -240 5 -8 41 -5
133 11 70 13 128 21 131 18 2 -2 6 -34 8 -70 l6 -67 -122 -32 c-66 -18 -122
-34 -124 -35 -3 -3 28 -278 32 -282 1 -2 52 13 113 32 60 19 125 37 144 39 34
5 35 4 57 -60 l23 -65 -46 -45 c-41 -39 -46 -48 -40 -75 4 -17 13 -33 21 -36
8 -3 14 -17 14 -32 0 -44 11 -73 26 -67 8 3 14 -1 14 -10 0 -11 4 -12 18 -5 9
5 71 23 138 39 66 17 408 128 760 246 351 119 667 222 702 230 35 8 69 19 75
24 12 9 148 23 252 27 28 0 84 2 125 4 l75 2 21 43 c34 68 26 120 -39 273 -31
72 -57 138 -57 146 0 7 -22 50 -49 94 -26 44 -101 197 -166 339 -65 142 -142
300 -171 350 -58 99 -54 96 -170 107 -11 1 -29 8 -38 16 -14 12 -21 12 -37 3
-15 -10 -25 -10 -41 -1 -47 25 -330 118 -441 145 l-117 28 31 17 c20 10 28 19
20 23 -6 4 -9 11 -6 16 9 14 -135 139 -210 182 -38 22 -89 54 -113 69 -23 16
-44 29 -45 29 -1 -1 -13 -7 -27 -15z m351 -294 c-36 -19 -81 -16 -89 7 -3 9
15 12 60 12 l63 -1 -34 -18z m-176 -187 c553 -122 752 -171 795 -192 8 -5 41
-17 73 -27 31 -11 57 -23 57 -29 0 -5 71 -169 159 -365 148 -332 231 -525 231
-536 0 -3 -12 -5 -26 -5 -14 0 -34 -5 -45 -11 -11 -5 -43 -10 -72 -11 -79 -1
-600 -111 -792 -167 -93 -27 -323 -104 -510 -171 -187 -67 -366 -130 -397
-140 l-58 -18 -11 42 c-7 22 -12 59 -13 81 -1 39 -1 40 52 55 60 17 59 12 40
166 -9 78 -14 94 -27 90 -9 -3 -39 -8 -68 -11 l-52 -7 -6 49 c-3 26 -8 58 -10
69 -4 20 2 23 61 34 l66 13 -6 31 c-4 17 -9 73 -13 125 l-6 94 -64 -6 -63 -6
0 69 0 70 55 -6 c40 -5 55 -3 55 5 0 21 -21 205 -26 229 -4 18 -11 22 -46 22
l-41 0 7 46 c3 26 6 62 6 80 0 30 3 34 25 34 28 0 28 -7 -2 113 -11 48 -12 80
-4 169 11 109 27 158 54 158 7 0 287 -61 622 -136z"/>
<path d="M3693 4296 c4 -10 7 -68 7 -129 0 -62 4 -117 8 -123 4 -6 46 -14 93
-18 l85 -7 46 40 c41 36 46 46 51 93 5 61 -13 108 -42 108 -10 0 -21 6 -24 14
-4 9 -33 16 -94 21 -48 3 -99 9 -112 12 -20 5 -23 3 -18 -11z"/>
<path d="M3720 3853 c0 -8 5 -67 12 -129 l12 -114 37 0 c21 0 40 4 43 9 3 4
20 11 38 15 37 7 69 33 62 50 -2 6 6 16 18 21 19 8 23 18 24 55 2 84 -13 93
-168 104 -68 5 -78 4 -78 -11z"/>
<path d="M3756 3413 c3 -43 7 -97 10 -120 6 -50 3 -49 149 -33 74 9 94 15 114
35 25 24 25 25 8 60 -13 27 -23 35 -44 35 l-28 1 33 14 c32 14 39 34 26 69 -5
14 -27 16 -140 16 l-134 0 6 -77z"/>
<path d="M3848 3118 l-67 -10 6 -117 c3 -64 7 -118 9 -120 2 -2 39 5 81 17 43
12 105 24 138 27 89 9 105 14 105 31 0 29 -33 86 -54 94 -15 6 -17 9 -5 9 29
1 43 28 31 56 -11 24 -15 25 -94 24 -46 -1 -113 -6 -150 -11z"/>
<path d="M1740 2514 c-6 -14 -10 -29 -10 -33 0 -18 69 -59 135 -80 39 -13 122
-44 185 -71 125 -51 299 -116 341 -125 22 -5 28 -2 38 23 24 58 8 80 -81 112
-140 50 -466 162 -493 169 -16 5 -43 14 -58 20 -40 16 -46 14 -57 -15z"/>
<path d="M4150 2493 c-69 -24 -177 -60 -240 -80 -63 -19 -131 -43 -150 -53
-19 -10 -54 -23 -78 -29 -57 -16 -75 -44 -60 -94 11 -36 13 -37 47 -31 19 4
62 18 95 32 34 13 84 31 111 39 28 9 72 26 99 40 27 14 99 42 161 63 129 45
185 75 185 98 0 35 -13 62 -29 61 -9 -1 -72 -21 -141 -46z"/>
<path d="M1743 2402 c-1 -10 -78 -192 -171 -407 -93 -214 -208 -491 -255 -615
l-85 -225 -5 -130 c-3 -72 0 -154 6 -184 6 -31 45 -123 88 -210 62 -124 95
-176 160 -253 70 -84 86 -98 111 -98 24 0 29 4 26 18 -3 9 -18 60 -33 112
l-27 96 25 261 26 262 104 228 c93 203 128 266 326 581 122 195 223 358 224
364 2 8 -96 49 -483 202 -32 13 -36 13 -37 -2z"/>
<path d="M4045 2314 c-143 -57 -261 -104 -262 -104 -1 0 100 -163 225 -362
200 -320 240 -390 332 -588 l103 -225 27 -265 26 -265 -33 -110 c-18 -60 -33
-111 -33 -112 0 -6 56 -2 66 5 36 25 170 214 220 312 109 209 109 211 107 399
l-2 164 -81 211 c-45 116 -159 389 -252 606 -94 217 -174 405 -177 416 -6 21
-17 17 -266 -82z"/>
</g>
</svg>
