<?xml version="1.0" standalone="no"?>
<!DOCTYPE svg PUBLIC "-//W3C//DTD SVG 20010904//EN"
 "http://www.w3.org/TR/2001/REC-SVG-20010904/DTD/svg10.dtd">
<svg version="1.0" xmlns="http://www.w3.org/2000/svg"
 width="291.000000pt" height="286.000000pt" viewBox="0 0 291.000000 286.000000"
 preserveAspectRatio="xMidYMid meet">
<metadata>
Created by potrace 1.16, written by Peter Selinger 2001-2019
</metadata>
<g transform="translate(0.000000,286.000000) scale(0.100000,-0.100000)"
fill="#000000" stroke="none">
<path d="M1409 2551 c-24 -73 -48 -135 -54 -136 -5 -2 -46 -10 -90 -18 -44 -9
-90 -19 -102 -23 -20 -5 -23 -3 -23 18 0 14 -12 35 -26 49 -22 20 -35 24 -82
22 -90 -3 -202 -30 -230 -55 -13 -13 -37 -49 -53 -80 -16 -32 -32 -58 -34 -58
-3 0 -41 18 -85 40 -44 22 -80 38 -80 35 0 -3 16 -38 36 -77 37 -74 38 -72 -9
-99 -27 -15 -47 -71 -47 -128 0 -44 4 -53 29 -72 28 -21 29 -23 14 -45 -8 -13
-23 -24 -33 -24 -28 0 -59 -32 -66 -66 -5 -24 0 -37 19 -59 21 -25 23 -33 14
-60 -6 -16 -18 -65 -26 -109 l-16 -79 -143 -45 c-78 -25 -142 -48 -142 -52 0
-3 65 -27 145 -53 80 -27 145 -50 145 -52 0 -15 30 -155 38 -175 8 -20 6 -31
-9 -49 -10 -13 -19 -33 -19 -46 0 -34 37 -75 68 -75 23 -1 36 -14 80 -83 l54
-82 -71 -143 c-39 -78 -71 -144 -71 -147 0 -3 18 4 40 15 l40 20 0 -23 c0 -32
30 -57 68 -57 51 0 132 97 132 157 0 26 10 35 26 23 9 -8 4 -24 -22 -67 -37
-62 -41 -84 -19 -103 20 -17 72 2 123 45 22 19 43 35 46 35 3 0 6 -11 6 -25 0
-59 78 -94 128 -59 21 15 29 15 85 1 34 -9 83 -19 109 -22 l47 -7 52 -157 52
-156 52 155 52 155 39 9 c21 5 69 16 106 26 57 14 70 15 79 4 15 -18 70 -18
94 0 11 8 24 27 30 44 14 42 142 128 167 113 10 -6 28 -11 40 -11 38 -1 67
-23 92 -70 21 -39 29 -45 61 -48 20 -2 43 2 50 8 10 8 19 8 34 0 26 -14 26 -3
1 35 -11 17 -20 37 -20 46 0 9 -9 27 -20 41 -10 14 -15 29 -11 34 5 5 12 30
15 55 7 49 2 60 -45 92 -23 16 -17 38 26 107 18 29 32 40 50 40 54 0 87 79 50
120 -13 14 -12 28 9 120 l23 104 153 51 c85 28 150 54 145 57 -6 3 -74 27
-153 53 -79 26 -145 52 -146 59 -2 6 -13 55 -24 109 l-21 99 21 28 c35 48 -1
120 -60 120 -24 0 -35 11 -73 68 -24 37 -45 72 -47 79 -2 6 26 70 63 142 36
72 63 131 60 131 -3 0 -37 -16 -75 -35 -38 -19 -73 -35 -77 -35 -5 0 -22 23
-40 50 -20 30 -51 60 -80 77 -46 27 -53 28 -162 26 -90 -2 -117 -6 -132 -19
-17 -15 -23 -15 -81 -1 -35 8 -83 18 -109 22 l-45 7 -45 136 -46 137 -44 -134z
m-305 -153 c12 -20 -10 -49 -59 -79 -24 -15 -30 -26 -31 -56 -1 -21 -5 -56 -9
-78 -5 -31 -3 -44 8 -53 13 -11 19 -8 37 18 12 16 27 30 33 30 21 0 147 -132
147 -154 0 -12 9 -27 21 -34 17 -11 20 -20 15 -45 -15 -74 -16 -72 45 -75 50
-3 62 -8 108 -47 29 -25 56 -45 59 -45 13 0 28 15 56 53 21 27 36 37 56 37 15
0 32 6 37 13 13 16 38 126 30 133 -3 3 10 19 29 36 34 30 104 149 104 178 0
24 77 124 103 133 98 37 254 -48 273 -150 8 -42 -11 -289 -27 -347 -6 -20 -21
-44 -36 -53 -25 -16 -26 -16 -44 6 l-18 22 -13 -20 c-14 -24 -34 -27 -41 -8
-3 6 -6 0 -6 -15 -1 -20 -9 -32 -30 -43 -16 -8 -32 -23 -36 -34 -9 -29 -45
-72 -56 -66 -5 4 -9 1 -9 -5 0 -12 -44 -105 -62 -131 -9 -14 -4 -27 27 -70 51
-71 112 -144 154 -183 49 -46 121 -136 121 -152 0 -28 -30 -13 -111 56 -45 39
-84 68 -88 65 -3 -4 17 -25 44 -48 78 -64 295 -281 295 -294 0 -17 -15 -16
-30 2 -7 8 -19 15 -27 15 -8 0 -49 31 -91 70 -80 72 -136 109 -149 97 -4 -4
17 -32 46 -61 29 -30 51 -59 47 -64 -12 -19 -67 6 -117 53 -46 43 -73 54 -69
30 2 -15 121 -163 135 -169 23 -8 145 -170 136 -179 -9 -9 -93 42 -108 66 -14
22 -146 141 -212 190 -48 37 -69 47 -87 43 -20 -5 -59 18 -104 64 -28 28 -114
100 -120 100 -10 0 -105 -120 -133 -168 -65 -113 -213 -256 -241 -233 -10 8
-25 -3 -66 -52 -60 -69 -143 -152 -178 -175 -57 -37 -31 31 44 120 90 106 190
234 164 210 -8 -6 -23 -12 -33 -12 -20 0 -20 8 -2 55 5 11 -31 -18 -78 -65
-96 -94 -117 -106 -117 -66 0 37 33 95 93 162 80 90 112 145 60 104 -23 -18
-29 -19 -41 -7 -11 11 -11 19 -3 35 16 30 13 41 -9 35 -13 -4 -20 0 -20 9 0
40 32 91 132 211 l109 131 -55 55 c-41 42 -61 72 -78 121 l-23 65 -43 0 c-23
0 -46 5 -50 10 -4 6 -32 30 -62 55 -30 25 -60 52 -67 60 -6 8 -13 13 -15 10
-2 -3 -8 -14 -14 -25 -26 -47 -106 -18 -138 50 -20 41 -14 71 15 80 27 9 24
22 -11 40 -36 19 -53 56 -45 99 10 51 26 75 59 86 39 13 113 84 145 138 14 23
40 57 59 77 29 30 41 35 81 36 25 0 55 4 66 9 33 15 107 7 119 -12z m966 -613
c22 -59 -8 -145 -52 -145 -28 0 -27 50 4 123 23 53 34 58 48 22z m-251 -900
c33 -38 39 -59 19 -71 -13 -9 -88 68 -88 91 0 27 37 16 69 -20z m410 -65 c61
-45 79 -100 37 -116 -16 -6 -105 58 -123 90 -35 62 15 77 86 26z m-1429 -158
c0 -26 -57 -120 -84 -137 -23 -15 -56 -11 -56 6 0 24 42 89 80 123 41 37 60
39 60 8z m1477 -34 c31 -29 32 -71 1 -66 -26 4 -54 48 -45 71 8 22 16 21 44
-5z"/>
<path d="M1040 2036 c0 -9 5 -16 10 -16 6 0 10 4 10 9 0 6 -4 13 -10 16 -5 3
-10 -1 -10 -9z"/>
<path d="M1807 1760 c-33 -37 -35 -54 -5 -44 25 8 44 29 51 57 8 27 -17 20
-46 -13z"/>
<path d="M1125 1220 c-65 -66 -69 -97 -4 -34 47 45 84 94 72 94 -5 0 -35 -27
-68 -60z"/>
<path d="M1669 1232 c12 -23 71 -68 71 -54 0 5 -18 24 -41 42 -31 24 -38 27
-30 12z"/>
<path d="M1202 977 c-13 -14 -19 -28 -14 -31 12 -7 45 29 40 44 -2 6 -13 1
-26 -13z"/>
</g>
</svg>
