<?xml version="1.0" encoding="UTF-8" standalone="no"?>
<svg
   xmlns:dc="http://purl.org/dc/elements/1.1/"
   xmlns:cc="http://creativecommons.org/ns#"
   xmlns:rdf="http://www.w3.org/1999/02/22-rdf-syntax-ns#"
   xmlns:svg="http://www.w3.org/2000/svg"
   xmlns="http://www.w3.org/2000/svg"
   xmlns:sodipodi="http://sodipodi.sourceforge.net/DTD/sodipodi-0.dtd"
   xmlns:inkscape="http://www.inkscape.org/namespaces/inkscape"
   version="1.0"
   width="275.000000pt"
   height="300.000000pt"
   viewBox="0 0 275.000000 300.000000"
   preserveAspectRatio="xMidYMid meet"
   id="svg9671"
   sodipodi:docname="ravnos.svg"
   inkscape:version="1.0.1 (3bc2e813f5, 2020-09-07)">
  <defs
     id="defs9675" />
  <sodipodi:namedview
     pagecolor="#ffffff"
     bordercolor="#666666"
     borderopacity="1"
     objecttolerance="10"
     gridtolerance="10"
     guidetolerance="10"
     inkscape:pageopacity="0"
     inkscape:pageshadow="2"
     inkscape:window-width="1600"
     inkscape:window-height="837"
     id="namedview9673"
     showgrid="false"
     inkscape:zoom="1.1844039"
     inkscape:cx="207.34123"
     inkscape:cy="177.99104"
     inkscape:window-x="-8"
     inkscape:window-y="-8"
     inkscape:window-maximized="1"
     inkscape:current-layer="svg9671" />
  <metadata
     id="metadata9665">
Created by potrace 1.16, written by Peter Selinger 2001-2019
<rdf:RDF>
  <cc:Work
     rdf:about="">
    <dc:format>image/svg+xml</dc:format>
    <dc:type
       rdf:resource="http://purl.org/dc/dcmitype/StillImage" />
  </cc:Work>
</rdf:RDF>
</metadata>
  <path
     style="fill:#ffffff;stroke-width:0.597015"
     d="m 176.29159,1.9717815 c -11.6141,1.3271946 -18.68766,11.4752935 -26.85868,18.6352315 -16.30473,16.148811 -32.81672,32.143883 -48.28267,49.09773 -7.10634,8.760259 -7.241557,22.615729 -0.008,31.126647 -10.093645,-5.622118 -23.451555,-3.170017 -31.081063,5.44557 -19.705412,19.88543 -39.789415,39.43057 -59.258942,59.52803 -9.0973611,9.85209 -7.639219,26.54244 2.388674,35.22496 19.58661,19.41269 38.832714,39.20407 58.631352,58.38095 10.057966,9.30738 27.439199,7.61487 35.758759,-3.20048 3.78358,-4.76868 5.5744,-10.82975 5.66359,-16.88206 2.80207,0.88808 9.55505,-2.17648 8.68225,2.38806 0.13952,29.57384 -0.22804,59.17479 0.22706,88.73165 0.60396,11.68166 10.56088,19.37038 16.85544,28.27955 8.6095,10.2615 16.28007,21.4424 26.15923,30.54593 10.0752,7.51158 25.30247,5.89545 33.57048,-3.56868 11.62812,-12.76183 22.6877,-26.0731 33.5212,-39.49624 7.17349,-9.37213 4.20628,-21.70689 4.73807,-32.61693 -0.13821,-24.75445 -0.27655,-49.5089 -0.41534,-74.26334 4.15593,0.25123 9.17634,-0.49244 12.81367,0.35564 1.31417,12.83546 13.17473,23.65317 26.22043,22.85789 10.11493,-0.10038 17.65653,-7.47354 24.53308,-13.96996 17.13087,-15.974 34.44235,-31.79511 51.24535,-48.09515 9.45825,-9.58685 8.52488,-26.49209 -1.4132,-35.40848 -19.81279,-19.65228 -39.28609,-39.68187 -59.31105,-59.09834 -10.0551,-9.309172 -27.4384,-7.625506 -35.75963,3.18993 -3.78314,4.76512 -5.59562,10.82924 -5.60943,16.88489 -4.66535,0 -9.33069,0 -13.99604,0 0.0261,-5.49868 0.0521,-10.99736 0.0781,-16.49604 11.24399,0.80277 22.93864,-5.73577 26.49145,-16.731361 3.9452,-10.143366 -0.23655,-21.85875 -8.4174,-28.643743 C 234.13565,45.41121 215.48036,25.917746 195.47712,7.8806257 190.17871,3.3568812 183.19715,1.3435678 176.29159,1.9717815 Z M 110.09056,108.09818 c 3.7021,1.75246 7.76655,2.51814 11.82486,2.84282 0,5.03459 0,10.06919 0,15.10378 -2.93467,-0.69717 -9.3359,2.07221 -7.91044,-2.98508 -0.1213,-5.7452 -1.91156,-11.49227 -5.5667,-15.96665 0.55076,0.33505 1.10152,0.67009 1.65228,1.00513 z"
     id="path10240"
     transform="scale(0.75000001)" />
  <g
     transform="translate(0.000000,300.000000) scale(0.100000,-0.100000)"
     fill="#000000"
     stroke="none"
     id="g9669">
    <path
       d="M1117 2582 c-119 -119 -217 -221 -217 -225 0 -4 45 -7 100 -7 l100 0 0 -240 0 -240 -215 0 -215 0 0 107 0 108 -225 -225 -225 -225 222 -223 223 -222 3 100 3 100 214 0 215 0 0 -427 0 -428 121 -152 c66 -84 124 -153 129 -153 4 0 61 64 126 142 l118 143 -3 437 -3 438 231 0 231 0 0 -91 c0 -50 4 -89 9 -87 5 2 106 95 225 207 l217 204 -223 224 -223 223 -3 -100 -3 -100 -234 0 -235 0 0 245 0 245 107 0 108 0 -220 220 c-121 121 -224 220 -230 220 -6 0 -108 -98 -228 -218z"
       id="path9667" />
  </g>
</svg>
