<?xml version="1.0" standalone="no"?>
<!DOCTYPE svg PUBLIC "-//W3C//DTD SVG 20010904//EN"
 "http://www.w3.org/TR/2001/REC-SVG-20010904/DTD/svg10.dtd">
<svg version="1.0" xmlns="http://www.w3.org/2000/svg"
 width="300.000000pt" height="226.000000pt" viewBox="0 0 300.000000 226.000000"
 preserveAspectRatio="xMidYMid meet">
<metadata>
Created by potrace 1.16, written by Peter Selinger 2001-2019
</metadata>
<g transform="translate(0.000000,226.000000) scale(0.100000,-0.100000)"
fill="#000000" stroke="none">
<path d="M1294 2111 c-130 -35 -255 -111 -347 -210 -54 -59 -58 -61 -106 -61
-125 0 -271 -45 -383 -119 -138 -91 -241 -223 -294 -376 -36 -105 -45 -285
-20 -397 46 -207 191 -390 381 -484 112 -55 184 -74 305 -79 l94 -5 51 -49
c96 -93 218 -159 343 -187 112 -25 292 -16 397 20 97 33 202 97 275 167 l55
53 110 2 c132 3 200 19 320 78 190 94 335 277 381 484 25 112 16 292 -20 397
-78 228 -270 408 -501 470 -33 9 -107 19 -165 22 -98 6 -106 8 -124 32 -68 89
-207 185 -331 227 -109 37 -311 44 -421 15z m341 -76 c88 -22 212 -87 278
-146 31 -28 57 -54 57 -58 0 -5 -34 -21 -76 -36 -89 -33 -202 -104 -264 -169
l-44 -46 -86 0 -86 0 -44 46 c-25 25 -72 64 -105 87 -64 44 -206 107 -242 107
-13 0 -23 4 -23 9 0 5 27 34 60 64 65 61 156 110 253 138 79 23 241 25 322 4z
m-795 -283 c0 -4 -4 -12 -9 -17 -20 -22 -61 -161 -73 -244 -13 -98 -2 -208 29
-308 16 -50 16 -56 0 -106 -31 -100 -42 -210 -29 -308 13 -92 50 -210 84 -267
11 -18 18 -35 15 -38 -10 -10 -156 16 -221 39 -199 73 -358 249 -411 457 -25
96 -17 272 17 362 67 180 203 323 370 389 90 36 228 61 228 41z m1508 -28
c192 -64 337 -206 410 -402 34 -90 42 -266 17 -362 -28 -110 -82 -207 -161
-290 -119 -124 -258 -190 -433 -205 l-83 -8 30 59 c59 117 77 196 77 339 0
107 -4 143 -23 203 l-23 72 23 73 c19 59 23 95 23 202 0 137 -18 223 -67 319
l-20 39 76 -6 c43 -4 112 -18 154 -33z m-1317 10 c75 -23 165 -69 226 -118 29
-22 52 -43 53 -46 0 -3 -30 -16 -67 -28 -134 -46 -274 -149 -344 -251 -19 -28
-37 -51 -41 -51 -11 0 -23 90 -22 175 0 98 16 168 60 263 37 82 42 84 135 56z
m1023 -23 c61 -104 91 -296 66 -416 l-13 -60 -21 30 c-40 57 -171 180 -229
214 -31 18 -85 44 -118 56 l-61 22 53 47 c29 26 80 62 114 79 65 33 164 68
180 63 5 -1 18 -17 29 -35z m-536 -231 c-11 -18 -28 -27 -28 -16 0 2 -3 11 -6
20 -5 12 0 16 20 16 24 0 25 -2 14 -20z m-100 -50 c35 -58 36 -72 13 -180 -16
-72 -12 -237 8 -312 16 -62 16 -70 1 -100 -41 -83 -32 -78 -102 -62 -35 8
-101 33 -148 56 -67 33 -101 58 -165 122 -44 45 -91 103 -105 129 l-25 47 25
47 c37 70 172 202 250 242 74 39 166 71 195 68 12 -1 33 -23 53 -57z m403 -26
c69 -41 192 -169 221 -229 l22 -45 -22 -45 c-29 -60 -152 -188 -221 -229 -53
-32 -188 -86 -215 -86 -6 0 -23 24 -37 53 l-25 52 17 65 c23 83 24 238 3 337
-18 87 -16 101 25 165 l30 48 73 -26 c40 -15 98 -41 129 -60z m-922 -435 c74
-108 214 -208 360 -256 l84 -27 -61 -57 c-67 -61 -176 -121 -262 -143 -53 -14
-56 -14 -74 7 -27 31 -81 152 -97 217 -21 88 -14 311 9 310 4 0 22 -23 41 -51z
m1225 -119 c0 -108 -4 -135 -26 -197 -26 -74 -70 -157 -88 -168 -15 -9 -106
22 -177 62 -35 18 -90 59 -124 90 l-61 57 75 26 c41 15 101 42 133 61 70 42
175 137 217 198 30 44 30 44 41 20 5 -13 10 -80 10 -149z m-497 -247 c83 -83
170 -140 267 -175 l59 -22 -49 -43 c-58 -52 -185 -117 -269 -138 -77 -20 -230
-19 -309 1 -86 22 -193 75 -249 124 -26 23 -47 45 -47 50 0 4 15 11 33 14 91
17 260 124 338 215 42 49 46 51 96 51 51 0 53 -1 130 -77z"/>
</g>
</svg>
