<?xml version="1.0" encoding="UTF-8" standalone="no"?>
<svg
   xmlns:dc="http://purl.org/dc/elements/1.1/"
   xmlns:cc="http://creativecommons.org/ns#"
   xmlns:rdf="http://www.w3.org/1999/02/22-rdf-syntax-ns#"
   xmlns:svg="http://www.w3.org/2000/svg"
   xmlns="http://www.w3.org/2000/svg"
   xmlns:sodipodi="http://sodipodi.sourceforge.net/DTD/sodipodi-0.dtd"
   xmlns:inkscape="http://www.inkscape.org/namespaces/inkscape"
   version="1.0"
   width="556.47125pt"
   height="454.43784pt"
   viewBox="0 0 556.47125 454.43784"
   preserveAspectRatio="xMidYMid meet"
   id="svg6510"
   sodipodi:docname="salubri.svg"
   inkscape:version="1.0.1 (3bc2e813f5, 2020-09-07)">
  <defs
     id="defs6514" />
  <sodipodi:namedview
     pagecolor="#ffffff"
     bordercolor="#666666"
     borderopacity="1"
     objecttolerance="10"
     gridtolerance="10"
     guidetolerance="10"
     inkscape:pageopacity="0"
     inkscape:pageshadow="2"
     inkscape:window-width="1600"
     inkscape:window-height="837"
     id="namedview6512"
     showgrid="false"
     inkscape:zoom="0.79312758"
     inkscape:cx="315.38648"
     inkscape:cy="389.64764"
     inkscape:window-x="-8"
     inkscape:window-y="-8"
     inkscape:window-maximized="1"
     inkscape:current-layer="svg6510"
     fit-margin-top="0"
     fit-margin-left="0"
     fit-margin-right="0"
     fit-margin-bottom="0" />
  <metadata
     id="metadata6486">
Created by potrace 1.16, written by Peter Selinger 2001-2019
<rdf:RDF>
  <cc:Work
     rdf:about="">
    <dc:format>image/svg+xml</dc:format>
    <dc:type
       rdf:resource="http://purl.org/dc/dcmitype/StillImage" />
    <dc:title></dc:title>
  </cc:Work>
</rdf:RDF>
</metadata>
  <path
     id="path7105"
     style="fill:#ffffff;stroke-width:0.236406"
     d="m 379.19219,326.39258 c -7.5204,0.70106 -14.4656,5.58105 -18.02631,12.18435 -4.07898,7.51266 -2.35799,17.47279 3.82672,23.32686 5.29103,5.25671 13.06319,8.31421 20.5052,6.73539 8.3611,-1.46523 14.9803,-9.29415 15.08727,-17.77633 0.0626,-3.01772 -0.65637,-5.98063 -0.9573,-8.97101 -1.37616,-7.65917 -7.83552,-14.06796 -15.54648,-15.2547 -1.60803,-0.32593 -3.25722,-0.33119 -4.8891,-0.24456 z m 5.66699,-75.37004 c -6.93903,0.13834 -13.62063,4.33777 -16.63183,10.61257 -4.16098,8.31901 -1.49133,19.37915 6.07008,24.8213 6.17639,4.6382 15.13214,4.88612 21.66545,0.83273 6.82257,-3.94463 10.50951,-12.42756 8.93216,-20.12274 -1.4029,-7.95963 -8.14535,-14.62343 -16.14166,-15.86641 -1.28312,-0.22097 -2.59263,-0.29962 -3.8942,-0.27745 z m -17.57934,-26.9278 c -6.04997,0.32919 -11.84118,3.68339 -15.04868,8.83628 -4.71489,7.1976 -3.80615,17.49417 2.1229,23.73708 4.53665,5.01532 11.77077,6.94801 18.32573,5.80014 7.53525,-1.20344 13.90168,-7.49382 15.182,-15.01898 1.94229,-9.74258 -4.86559,-20.15894 -14.40732,-22.66618 -2.00019,-0.58277 -4.09778,-0.76325 -6.17463,-0.68834 z M 348.1346,193.59999 c -8.44203,-0.091 -16.46285,5.93736 -18.52923,14.15686 -3.198,11.68554 6.16797,24.82479 18.27431,25.59122 9.49039,1.08727 19.21977,-5.82839 20.76697,-15.35604 2.15134,-11.09111 -6.5141,-23.19188 -17.89384,-24.25256 -0.86528,-0.12234 -1.74541,-0.1394 -2.61821,-0.13948 z m 63.5766,115.56521 c -17.19386,-0.0602 -33.11571,16.05333 -30.5887,33.58995 0.17776,15.77577 10.4469,34.52325 28.00116,34.85324 11.9186,-0.63445 26.62649,1.2371 34.93636,-9.2974 9.36477,-12.31043 14.29543,-31.93403 2.77541,-44.49793 -8.27158,-10.13262 -22.48002,-14.32503 -35.12423,-14.64786 z m 32.33958,13.12976 c 4.92633,3.5762 -6.42987,-3.74497 0,0 z m -188.14581,45.49889 c -13.50509,1.15865 -20.7952,16.56011 -16.62596,28.60208 3.88556,14.23899 22.18091,17.57685 34.06139,11.90094 15.61082,-7.19818 14.02055,-33.11163 -2.24826,-38.47321 -4.8496,-1.35949 -10.12929,-2.3048 -15.18717,-2.02981 z m 20.39185,-246.64334 c -10.78163,1.13323 -21.88809,4.48031 -30.69767,10.94117 -8.90823,8.44913 -9.13816,23.15101 -4.24976,33.74323 7.09424,11.70801 22.48545,12.0588 34.65746,13.07621 10.87734,1.03658 23.88411,-1.05793 29.48425,-11.67254 4.9062,-9.24127 5.93627,-21.13568 2.19762,-30.83634 -4.69285,-9.55492 -16.21809,-12.07683 -25.61658,-14.82139 -1.90494,-0.33271 -3.84219,-0.4751 -5.77532,-0.43034 z m -60.10988,70.73337 c -14.47143,2.42852 -19.85868,17.97629 -26.56636,29.03014 -8.28136,17.29388 -20.62721,32.97788 -27.28247,51.37371 -3.20593,11.33874 5.00933,21.68981 14.49497,26.77986 12.33924,8.73982 23.03829,19.54029 35.00436,28.69795 9.0505,6.29925 20.531,3.79303 29.73727,-0.64457 2.37254,-1.12514 5.03278,0.46867 3.59041,3.35584 -1.13799,14.48109 -4.18749,29.53338 -0.3897,43.81081 3.7903,10.34344 15.5584,13.71146 25.59093,12.82686 10.69452,1.29145 21.37875,-6.42616 22.29015,-17.38714 1.95153,-12.66403 0.34318,-25.82199 2.40134,-38.32521 2.59562,-4.39599 7.9485,1.30086 11.2145,1.86169 12.60262,5.28436 25.40771,-2.52062 33.9395,-11.49976 10.42384,-10.85866 22.38457,-20.09445 35.88149,-26.822 11.09908,-5.68231 13.20559,-21.27431 5.38193,-30.55545 -9.29794,-14.98676 -19.72372,-29.2124 -28.97634,-44.22452 -5.91908,-7.74503 -10.10292,-18.69036 -21.08038,-20.26726 -12.20097,-2.27429 -22.98635,6.11135 -34.99952,6.76258 -20.76597,3.55806 -42.93531,1.31181 -61.2716,-9.63724 -5.95139,-2.86622 -12.12203,-6.07298 -18.96048,-5.13629 z m 167.85923,-16.78851 c -11.02142,2.52006 -23.90045,-0.99619 -33.12637,6.92596 -9.24438,9.43925 -6.10021,24.06332 0.52453,34.02951 6.92974,11.14988 14.71959,21.73717 21.12237,33.244 5.99246,9.73033 12.91035,18.88645 18.52838,28.79778 7.43405,10.7746 21.91716,7.25591 33.11238,8.13752 9.35968,0.9519 20.94382,-0.81154 25.08699,-10.4799 5.67242,-9.43583 -0.76796,-19.72987 -5.855,-27.79015 -11.39565,-19.78725 -24.90631,-38.04159 -37.10279,-57.27486 -5.00717,-7.89927 -12.02291,-15.95224 -22.29049,-15.58986 z m -6.10592,1.06568 c 0.91604,-0.30357 3.12723,-0.79948 0,0 z M 129.64393,313.77696 c -14.53684,-0.44809 -32.012382,4.52915 -37.239469,19.70664 -4.640896,14.12871 -0.05227,33.8507 15.421789,39.06422 13.8024,5.16015 29.55066,6.74483 43.70739,2.24943 13.78487,-6.1662 15.13249,-23.68299 13.46404,-36.79239 -0.77186,-9.56077 -6.29987,-19.18521 -16.26634,-21.25417 -6.16179,-2.03733 -12.58675,-3.13103 -19.08741,-2.97373 z M 416.86226,267 c -24.98038,-0.16731 -49.46856,8.91979 -69.55319,23.47436 -11.48681,7.16216 -18.94677,19.39803 -30.4114,26.40727 -5.24509,-0.31632 -9.50378,-5.33446 -15.07641,-5.67373 -13.14812,-2.9517 -26.08458,8.23115 -26.21519,21.47045 -1.31366,14.00405 1.0347,28.35382 -2.98462,42.01006 -2.48596,12.1692 6.06156,26.07683 19.1895,26.16902 13.28991,-0.18532 26.54721,-3.16676 39.66816,-3.88962 11.35783,6.85672 23.47935,15.50464 37.50543,13.78726 33.4059,-0.0633 66.90175,-0.0751 100.23552,-1.62881 10.69754,-0.82988 17.51958,-11.75056 16.62469,-21.86771 1.69833,-6.22923 9.04406,-9.07022 14.71996,-10.82111 4.12367,-0.59402 5.2106,5.52742 8.17816,7.21776 8.98695,10.52351 26.18975,9.89295 35.41057,-0.002 7.25087,-6.61728 9.21444,-17.48475 6.15069,-26.53989 0.53487,-12.99181 4.16695,-25.96464 2.933,-38.94413 -2.50429,-13.45677 -19.13867,-19.63728 -30.68667,-13.36067 -6.1752,2.91754 -13.18271,9.4048 -20.17762,4.73366 -10.87585,-6.99668 -19.86343,-16.63447 -30.98948,-23.35616 -13.14227,-12.57057 -31.22921,-19.05971 -49.31463,-19.10455 -1.73477,-0.0618 -3.47063,-0.0894 -5.20647,-0.0813 z m 56.11868,21.10846 c 0.15832,0.20538 -0.1161,-0.13669 0,0 z m -60.2484,39.43545 c 15.06177,1.33478 27.9668,10.90326 38.28667,21.35224 -14.88529,9.26858 -33.67335,11.89116 -50.79217,8.88369 -7.88153,-2.44863 -17.77529,-4.91098 -23.38386,-10.19315 10.92904,-8.42716 21.62644,-18.12604 35.88936,-20.04278 z M 149.95451,270.06773 c -10.54969,4.85378 -21.85871,9.20063 -33.50869,9.86995 -9.4629,-6.77159 -21.629577,-5.36295 -31.822182,-1.20556 -18.101818,6.04299 -30.914289,21.22051 -47.431024,30.0009 -9.491926,1.48701 -20.352743,-3.6506 -28.3823028,3.78469 -11.1047911,8.66737 -8.03188668,24.2221 -8.80875507,36.53912 0.42492818,13.08922 -2.37029493,29.75369 9.83253607,38.61673 5.0307818,3.79305 11.7593698,4.79821 17.8413388,3.48384 -6.8798,14.60575 -20.5794847,27.16844 -20.1295882,44.34641 0.043413,11.57766 11.3058202,20.32689 22.5324322,18.74994 148.522295,-0.38778 297.039925,-1.99527 445.556465,-3.29807 21.80732,-0.59346 43.71815,0.0861 65.4551,-1.71448 12.93441,-2.66308 19.16719,-18.57381 12.96169,-29.82591 -6.58796,-11.37636 -14.65351,-21.87079 -21.36333,-33.20764 -6.33854,-7.99366 -10.7092,-17.62914 -18.36208,-24.48647 -11.86024,-9.2349 -27.48102,-1.71918 -37.70859,6.36079 -6.99759,5.34407 -10.94603,14.65228 -9.02589,23.3617 -73.43927,0.44434 -147.17718,0.55575 -220.43369,0.51344 12.19723,-4.58946 15.13561,-18.81392 14.4817,-30.41693 -0.53597,-10.7555 1.40418,-21.83563 2.65403,-32.67757 1.02658,-13.42294 -13.20635,-24.05315 -25.88645,-20.22193 -5.46272,0.44729 -10.48867,5.46231 -15.8281,4.45292 -12.65541,-11.59691 -25.46066,-23.215 -39.83237,-32.6613 -9.86352,-5.37417 -21.07317,-13.26384 -32.79225,-10.36457 z m -21.57757,62.67895 c 7.51218,-0.88272 14.96712,0.7834 20.99394,5.47613 4.84902,3.17281 9.46154,6.70512 13.82236,10.52005 -10.58753,6.39633 -22.64611,12.58657 -35.41286,9.70557 -11.22794,-2.00093 -22.57595,-5.35451 -31.755954,-12.38176 8.104734,-4.57854 15.746134,-11.28984 24.830004,-13.32294 2.5075,7.5e-4 5.01501,0.002 7.52251,0.003 z M 269.19725,79.145997 c -11.57097,0.18867 -18.55414,10.320608 -24.51602,18.785033 -5.95396,7.47152 -16.35331,9.38345 -22.33851,16.66661 -4.51784,-0.16077 -9.76418,4.18968 -13.36985,-0.0296 -6.33741,-4.20579 -14.25097,-3.58641 -20.84436,-7.21776 -11.9126,-5.35776 -27.2589,1.92809 -29.61721,15.01915 -2.02153,12.86432 -2.62237,26.06657 -2.19784,39.06977 1.07825,13.46614 16.10198,22.02703 28.50463,17.55019 3.24155,-0.40376 8.57033,-3.29005 11.12844,-0.56407 2.68424,17.28897 17.3158,28.92324 32.16597,36.0833 18.61689,10.52785 40.47753,14.36638 61.63046,11.7157 23.59794,-0.8953 45.85278,-11.00983 64.02479,-25.72644 3.81464,-3.62241 8.40687,-6.40144 13.92021,-5.31414 10.82448,0.31922 24.59339,-0.34782 29.67864,-11.82072 4.60244,-10.85457 -0.422,-22.6763 -0.19805,-33.95466 -1.74057,-12.12612 0.93267,-26.09772 -6.76713,-36.5912 -6.69105,-8.71777 -18.80264,-8.14974 -28.04364,-4.41414 -6.27945,3.96576 -11.92632,-1.49404 -16.60197,-5.26741 -6.83773,-5.753217 -16.09089,-7.670322 -24.69887,-5.694065 -10.51723,-1.417687 -21.2332,-3.889897 -30.82141,-8.475518 -5.32707,-5.72487 -12.78648,-10.39749 -21.03828,-9.82008 z m 10.56624,60.691663 c 9.68799,4.05163 19.38348,8.14154 28.56078,13.27752 -20.09087,10.72023 -45.82098,9.54632 -64.87494,-2.85534 11.83119,-3.13059 22.91658,-9.21828 35.15614,-10.93563 l 0.86446,0.38329 z M 269.49092,0.08301632 C 257.96416,0.53355483 248.50634,8.7419137 244.08771,19.000785 232.19739,37.100987 222.45028,56.461085 210.94195,74.733822 205.55017,85.23665 198.60154,94.917523 193.54,105.54034 c -5.50904,12.56459 3.01397,29.34784 17.35791,29.89557 12.86772,0.62469 22.80735,-9.14489 34.0345,-13.892 11.82007,-5.53216 18.50463,-17.19383 25.43394,-27.63732 4.29999,7.90556 11.35819,14.11269 20.39925,15.66189 11.48555,2.59054 23.01287,8.2655 34.9936,6.45868 13.53722,-2.82151 19.06694,-19.729817 12.5092,-31.124313 C 325.24145,62.197031 309.06922,41.396666 295.00043,19.367283 289.44788,10.738832 283.03392,-0.51654389 271.20671,0.01837352 l -0.94496,0.035601 z M 254.64167,113.97523 c -0.87746,1.025 0.68286,-0.95805 0,0 z m -9.80715,6.09483 c 1.19295,-0.35082 2.01993,-0.56754 0,0 z m -51.90955,38.53785 c -13.21705,-0.0437 -24.43978,7.57771 -35.30389,13.98858 -10.89899,9.4254 -15.64684,23.63859 -24.20745,34.94478 -7.80813,13.91253 -15.76044,27.75021 -24.49796,41.11987 -6.79766,11.58107 -14.054052,25.7716 -9.013872,39.27466 3.951012,10.6803 17.096522,13.2224 26.927712,9.77117 10.97622,-3.38845 23.52466,-4.81455 32.32082,-12.79368 10.54228,-12.68847 16.76266,-28.3216 25.24258,-42.37909 9.4914,-17.76978 19.34786,-35.3812 28.4788,-53.32096 5.75135,-11.13631 0.40625,-26.79138 -12.33373,-29.83516 -2.48007,-0.66397 -5.0555,-0.82652 -7.61301,-0.77017 z m -24.81153,9.61323 c 0.14056,-0.0652 1.00653,-0.12195 0,0 z" />
  <g
     transform="matrix(0.1,0,0,-0.1,2.4023143,451.05866)"
     fill="#000000"
     stroke="none"
     id="g6508">
    <path
       d="m 2643,4315 c -18,-8 -33,-19 -33,-24 0,-14 -76,-137 -100,-164 -11,-11 -23,-30 -26,-41 -4,-12 -28,-58 -55,-102 -27,-45 -49,-84 -49,-87 0,-11 -73,-132 -86,-142 -6,-5 -31,-46 -54,-90 -24,-44 -53,-96 -66,-116 -12,-20 -30,-53 -38,-73 -8,-20 -19,-36 -24,-36 -11,0 -42,-66 -42,-90 0,-33 36,-24 128,33 48,29 108,62 134,72 27,11 48,23 48,28 0,4 6,7 14,7 7,0 37,38 65,85 29,47 57,85 62,85 5,0 9,5 9,12 0,17 59,108 102,155 21,24 38,51 38,60 1,16 2,16 12,-2 6,-11 20,-28 30,-39 11,-10 53,-70 95,-132 41,-63 76,-114 78,-114 26,0 202,-44 238,-59 63,-27 74,-26 79,4 4,17 -5,40 -28,74 -19,28 -34,55 -34,60 0,6 -6,14 -13,18 -13,8 -90,119 -176,255 -23,37 -47,68 -51,70 -5,2 -19,21 -32,44 -19,33 -102,160 -160,247 -15,20 -23,21 -65,2 z"
       id="path6488" />
    <path
       d="m 2665,3534 c -73,-11 -215,-47 -215,-55 0,-5 -6,-9 -13,-9 -33,0 -289,-145 -317,-180 -11,-13 -128,-59 -167,-66 -45,-7 -102,8 -145,37 -33,24 -55,24 -66,2 -5,-10 -12,-92 -16,-183 -4,-91 -9,-204 -13,-252 l -6,-88 h 32 c 18,0 52,12 76,26 39,22 51,25 102,19 53,-6 125,-34 178,-68 11,-7 52,-45 90,-83 57,-56 88,-76 160,-109 50,-21 92,-43 95,-47 9,-12 118,-37 212,-49 64,-9 119,-9 201,-1 109,11 247,38 257,52 3,4 26,12 51,19 25,7 69,30 98,52 28,21 54,39 57,39 5,0 107,76 145,109 9,7 41,22 70,33 45,16 69,18 151,13 111,-7 116,-3 99,76 -12,57 -35,404 -28,423 12,30 -16,35 -73,14 -85,-31 -129,-39 -168,-32 -40,7 -128,48 -134,62 -1,5 -26,25 -55,45 -146,102 -186,127 -203,127 -10,0 -25,7 -33,14 -33,34 -138,58 -267,61 -69,2 -138,1 -155,-1 z m 165,-242 c 0,-5 19,-15 43,-22 67,-21 366,-168 395,-195 15,-13 45,-40 67,-60 l 40,-35 -28,-23 c -16,-12 -47,-40 -70,-61 -77,-71 -289,-158 -429,-175 -202,-24 -478,59 -602,181 -28,28 -73,63 -101,79 -27,16 -45,29 -40,29 6,0 37,26 71,58 50,47 84,67 190,114 71,31 167,67 214,79 47,13 87,27 88,31 5,11 162,10 162,0 z"
       id="path6490" />
    <path
       d="m 2622,3185 c -49,-41 -73,-97 -78,-179 -5,-67 -4,-73 24,-102 52,-55 72,-64 143,-64 79,0 127,15 140,44 5,11 16,32 24,46 9,15 15,53 15,97 0,63 -3,75 -26,103 -35,41 -95,71 -158,77 -46,5 -55,2 -84,-22 z"
       id="path6492" />
    <path
       d="m 1809,2720 c -26,-10 -59,-30 -74,-44 -14,-13 -40,-28 -56,-31 -29,-7 -56,-43 -129,-180 -18,-32 -38,-64 -44,-70 -14,-11 -76,-111 -76,-121 0,-4 -22,-43 -50,-89 -27,-46 -50,-88 -50,-94 0,-6 -4,-11 -9,-11 -8,0 -66,-95 -155,-252 -26,-47 -35,-111 -16,-123 10,-6 126,24 245,64 44,14 52,22 77,71 16,30 36,66 46,79 9,13 52,91 96,175 43,83 82,153 87,156 4,3 54,95 110,205 56,110 105,202 110,205 12,8 30,61 23,71 -9,15 -86,9 -135,-11 z"
       id="path6494" />
    <path
       d="m 3622,2703 c -37,-5 -82,-38 -82,-61 0,-9 20,-48 45,-88 25,-39 45,-74 45,-77 0,-11 82,-137 90,-137 4,0 15,-17 26,-37 10,-21 42,-74 69,-118 28,-44 59,-97 70,-117 11,-21 23,-38 26,-38 7,0 109,-156 109,-166 0,-11 59,-91 95,-127 34,-35 40,-38 61,-27 22,12 126,9 171,-5 35,-11 39,26 8,80 -15,25 -30,45 -34,45 -4,0 -14,12 -22,28 -7,15 -41,70 -74,122 -33,53 -68,112 -78,132 -11,19 -31,49 -47,66 -15,17 -56,79 -91,137 -35,59 -74,118 -86,132 -13,13 -23,26 -23,28 0,3 -29,50 -65,105 -36,55 -65,104 -65,109 0,20 -57,25 -148,14 z"
       id="path6496" />
    <path
       d="m 2188,2478 c -8,-13 -25,-42 -36,-64 -12,-23 -27,-48 -35,-55 -12,-13 -103,-178 -153,-280 -12,-26 -29,-53 -37,-61 -8,-8 -47,-75 -87,-149 -40,-74 -76,-138 -80,-144 -4,-5 -11,-31 -14,-58 l -7,-48 81,-87 c 108,-116 222,-208 290,-233 68,-26 161,-22 268,11 40,12 80,19 89,16 15,-6 16,-29 10,-247 -4,-141 -3,-238 2,-235 5,3 47,-1 93,-10 46,-9 107,-14 138,-11 62,5 147,42 152,66 2,9 1,108 -2,221 -3,113 -2,209 1,213 7,10 89,-38 102,-59 4,-7 33,-22 65,-34 65,-25 121,-21 184,11 44,23 61,36 178,152 49,48 95,87 102,87 7,0 19,9 26,20 6,11 43,36 82,55 38,19 74,44 81,56 17,33 3,81 -49,161 -26,40 -60,95 -76,122 -15,26 -35,56 -45,65 -18,19 -91,128 -91,136 0,10 -103,160 -112,163 -4,2 -8,8 -8,13 0,11 -98,159 -105,159 -3,0 -22,-7 -42,-15 -21,-8 -85,-26 -143,-41 -100,-25 -114,-26 -310,-22 -176,4 -214,8 -266,26 -71,25 -186,87 -197,108 -12,21 -33,17 -49,-8 z"
       id="path6498" />
    <path
       d="m 1245,1650 c -27,-5 -131,-31 -229,-60 -171,-49 -256,-81 -256,-98 0,-4 -12,-15 -28,-24 -15,-9 -62,-46 -106,-81 -43,-36 -98,-75 -122,-86 -24,-12 -44,-25 -44,-30 0,-4 -25,-16 -56,-26 -41,-13 -71,-16 -117,-11 -34,4 -75,8 -92,9 l -30,2 -1,-186 c 0,-102 -3,-193 -7,-203 -4,-9 0,-33 8,-52 16,-38 33,-42 88,-19 48,20 156,19 209,-1 43,-17 125,-75 186,-132 35,-33 209,-135 260,-153 17,-6 32,-14 32,-18 0,-11 105,-43 185,-57 64,-11 46,-12 -197,-13 -148,-1 -268,1 -268,4 0,3 9,18 20,33 32,46 35,78 8,102 -133,118 -126,113 -161,106 -29,-5 -40,-17 -78,-83 -24,-42 -46,-81 -48,-87 -9,-24 -87,-152 -103,-168 -10,-10 -18,-22 -18,-28 0,-5 -13,-32 -30,-58 -50,-82 -51,-82 113,-82 78,0 979,7 2002,15 1023,8 2114,16 2423,19 340,2 568,8 573,13 10,10 -41,105 -68,128 -12,11 -103,152 -103,161 0,9 -62,97 -85,121 -11,12 -27,34 -35,50 -29,57 -63,103 -76,103 -16,0 -103,-45 -130,-67 -49,-41 -49,-57 0,-137 26,-40 46,-75 46,-79 0,-3 12,-19 26,-34 l 26,-28 -93,-6 c -126,-9 -3134,-11 -3372,-2 l -189,6 118,29 c 65,16 121,33 125,39 3,6 49,28 102,49 87,35 237,123 237,139 0,4 37,26 83,49 104,54 199,72 286,54 86,-18 128,-16 141,7 6,11 10,89 10,181 0,120 4,170 15,197 8,19 15,48 15,64 0,38 -26,38 -105,-1 -42,-21 -74,-30 -109,-30 -91,0 -124,17 -215,112 -46,49 -89,88 -94,88 -5,0 -26,15 -47,33 -20,17 -57,50 -82,72 -25,22 -87,62 -138,89 -129,67 -258,89 -405,66 z m 217,-309 c 48,-18 97,-42 110,-54 13,-13 49,-40 79,-62 85,-61 159,-126 159,-139 0,-7 16,-27 35,-46 19,-19 35,-37 35,-42 0,-4 -27,-26 -60,-48 -33,-22 -68,-49 -77,-59 -28,-28 -181,-108 -253,-131 -110,-35 -199,-37 -330,-5 -140,33 -293,98 -320,136 -3,4 -30,25 -60,47 -130,96 -130,95 -124,122 5,23 49,69 66,70 7,0 186,118 223,146 33,26 137,76 185,90 28,8 83,12 145,10 83,-2 114,-8 187,-35 z"
       id="path6500" />
    <path
       d="m 1180,1236 c -100,-39 -97,-37 -104,-84 -9,-69 -7,-141 5,-164 19,-35 103,-116 132,-127 16,-6 55,-11 88,-11 51,0 64,4 85,25 77,78 86,250 16,327 -41,44 -151,61 -222,34 z"
       id="path6502" />
    <path
       d="m 3966,1640 c -139,-29 -318,-106 -361,-155 -11,-13 -32,-26 -48,-29 -28,-7 -159,-130 -208,-196 -38,-51 -156,-110 -220,-110 -40,0 -59,7 -100,35 -55,37 -69,41 -100,25 -18,-10 -19,-23 -19,-214 0,-161 -3,-205 -13,-209 -16,-6 -21,-75 -8,-96 6,-10 20,-12 47,-7 22,4 71,10 109,15 39,5 115,14 170,21 100,13 101,13 158,-13 31,-14 57,-31 57,-37 0,-12 113,-65 244,-115 129,-48 170,-66 177,-76 9,-15 116,-29 219,-29 95,0 261,18 270,29 3,4 50,19 105,35 55,15 129,44 165,63 36,20 86,47 113,61 26,14 47,28 47,33 0,13 133,84 213,113 63,24 88,28 135,23 33,-2 73,-12 90,-21 29,-15 33,-15 66,7 28,18 35,28 36,55 0,17 -4,32 -10,32 -6,0 -10,28 -10,65 0,37 4,65 10,65 6,0 10,23 10,51 0,29 5,91 12,139 6,48 8,95 5,104 -6,15 -9,15 -36,2 -16,-9 -36,-22 -44,-30 -25,-25 -138,-66 -183,-66 -63,0 -164,35 -208,72 -22,18 -71,61 -109,96 -38,35 -87,72 -107,82 -21,11 -53,33 -72,51 -47,43 -107,84 -153,104 -113,47 -295,57 -449,25 z m 296,-250 c 89,-29 172,-73 213,-111 11,-10 52,-46 92,-79 40,-33 80,-72 90,-86 10,-14 35,-43 56,-65 21,-21 37,-45 35,-52 -3,-6 -24,-27 -49,-45 -24,-19 -60,-48 -79,-64 -105,-92 -370,-166 -555,-155 -152,9 -375,89 -449,161 -18,17 -58,55 -89,85 -31,29 -57,56 -57,60 0,14 239,211 255,211 4,0 20,13 36,29 39,40 109,78 204,112 108,39 177,38 297,-1 z"
       id="path6504" />
    <path
       d="m 4055,1241 c -17,-10 -43,-33 -58,-50 -23,-28 -27,-42 -27,-94 0,-77 23,-129 78,-179 35,-32 48,-38 87,-38 25,0 45,4 45,9 0,5 13,12 30,16 44,10 78,42 91,86 7,21 16,39 21,39 4,0 8,23 8,50 0,28 -4,50 -10,50 -5,0 -10,5 -10,12 0,23 -54,81 -94,99 -53,24 -122,24 -161,0 z"
       id="path6506" />
  </g>
</svg>
