<?xml version="1.0" standalone="no"?>
<!DOCTYPE svg PUBLIC "-//W3C//DTD SVG 20010904//EN"
 "http://www.w3.org/TR/2001/REC-SVG-20010904/DTD/svg10.dtd">
<svg version="1.0" xmlns="http://www.w3.org/2000/svg"
 width="303.000000pt" height="301.000000pt" viewBox="0 0 303.000000 301.000000"
 preserveAspectRatio="xMidYMid meet">
<metadata>
Created by potrace 1.16, written by Peter Selinger 2001-2019
</metadata>
<g transform="translate(0.000000,301.000000) scale(0.100000,-0.100000)"
fill="#000000" stroke="none">
<path d="M1461 2808 l-52 -156 -72 -13 c-40 -6 -100 -19 -134 -29 -55 -15 -64
-15 -75 -3 -52 63 -158 15 -158 -71 0 -15 -7 -27 -19 -31 -10 -3 -46 -25 -81
-49 l-63 -44 -160 79 c-87 44 -161 78 -164 76 -2 -3 32 -76 75 -163 l79 -159
-38 -50 c-21 -27 -49 -69 -61 -92 -21 -38 -27 -43 -59 -43 -78 0 -122 -102
-66 -152 l24 -21 -24 -90 c-13 -49 -23 -101 -23 -116 0 -14 -4 -31 -8 -37 -4
-6 -80 -35 -169 -65 -90 -29 -163 -56 -163 -59 0 -3 75 -30 167 -61 l168 -55
11 -68 11 -67 -39 6 c-62 11 -68 0 -68 -131 0 -99 2 -116 19 -133 17 -17 25
-18 54 -9 19 6 51 8 72 4 34 -7 36 -9 22 -24 -25 -29 -137 -228 -137 -243 0
-32 23 -39 132 -39 l108 0 -55 -110 c-30 -60 -55 -112 -55 -116 0 -3 75 33
166 81 92 47 172 85 178 83 6 -2 46 -26 88 -53 59 -38 77 -56 77 -73 1 -28 18
-63 40 -79 25 -19 85 -15 113 7 24 19 28 19 72 4 25 -9 81 -21 123 -28 l78
-12 55 -171 c30 -94 58 -174 61 -177 2 -3 32 76 64 174 57 174 60 180 86 180
15 0 69 11 120 24 87 23 95 23 112 8 44 -40 134 -1 139 61 2 22 13 34 53 57
27 16 68 42 90 58 l39 30 169 -85 c93 -46 171 -82 174 -80 2 3 -21 55 -51 116
-31 61 -56 113 -56 116 0 3 76 5 169 5 141 0 172 3 185 16 9 8 16 18 16 22 0
3 -37 62 -82 129 -44 68 -78 126 -75 129 3 3 20 -1 37 -10 30 -14 33 -14 62 7
25 19 29 27 24 55 -3 18 -1 71 5 117 6 61 6 91 -3 110 -6 14 -14 24 -17 23
-105 -54 -121 -60 -143 -55 -25 7 -25 7 -14 69 l12 63 179 61 c158 54 177 63
155 72 -14 5 -92 31 -174 58 -165 54 -156 46 -176 159 -7 39 -18 86 -25 105
-12 33 -11 38 11 63 14 16 24 41 24 58 0 41 -48 89 -89 89 -26 0 -36 9 -87 87
l-56 87 76 153 c42 84 76 155 76 158 0 3 -72 -31 -159 -74 -148 -75 -160 -79
-174 -63 -9 9 -51 39 -95 67 -70 43 -79 53 -80 80 -1 21 -11 39 -33 59 -26 23
-38 27 -67 23 -19 -4 -43 -13 -53 -22 -16 -16 -24 -15 -100 4 -46 12 -94 21
-108 21 -14 0 -33 5 -41 10 -8 5 -38 78 -66 162 l-51 153 -52 -157z m184 -280
c115 -168 136 -207 105 -199 -8 2 -41 11 -73 19 -46 12 -64 22 -83 49 -13 18
-36 49 -50 68 l-25 35 -23 -27 c-12 -16 -39 -55 -59 -88 -31 -50 -50 -68 -114
-107 -43 -25 -82 -43 -86 -38 -8 7 216 403 251 443 8 9 21 17 27 17 7 0 66
-77 130 -172z m55 -221 c30 -13 84 -44 119 -70 53 -39 70 -47 108 -47 24 0 54
5 65 11 11 6 24 7 28 2 4 -4 9 -62 11 -128 l4 -120 -45 3 c-58 4 -80 -5 -162
-66 -87 -64 -170 -86 -296 -80 -103 5 -180 35 -249 99 -71 65 -126 82 -179 54
-17 -8 -32 -11 -37 -6 -10 10 1 251 12 251 3 0 24 -6 45 -14 52 -18 90 -7 177
51 123 82 286 106 399 60z m-533 -363 c1 -5 -50 -106 -115 -224 l-117 -215
-65 -22 c-36 -12 -68 -22 -72 -22 -25 -3 6 64 113 243 121 202 122 202 178
229 56 27 72 29 78 11z m881 -36 c10 -18 76 -121 146 -228 69 -107 125 -198
123 -203 -1 -5 -27 -10 -56 -10 -47 0 -56 4 -76 29 -56 73 -266 417 -258 424
10 10 39 17 75 19 19 1 31 -7 46 -31z m-709 -92 c55 -35 104 -46 208 -46 63 0
111 6 154 20 35 10 64 18 65 17 22 -23 234 -363 231 -371 -2 -6 -25 -25 -52
-43 -27 -18 -71 -54 -99 -81 -28 -28 -61 -55 -73 -61 -36 -18 -87 -13 -127 14
-20 14 -38 25 -39 25 -1 0 -1 -47 1 -104 l4 -104 -32 -17 c-26 -13 -47 -16
-97 -10 l-63 7 3 109 c2 60 1 112 -3 114 -3 2 -32 -3 -64 -11 -84 -22 -107
-13 -201 78 -69 66 -82 83 -77 101 8 26 211 387 218 387 2 0 22 -11 43 -24z
m-308 -408 c31 -16 92 -62 137 -103 89 -81 119 -95 166 -76 17 7 42 15 55 18
22 5 23 4 16 -18 -4 -13 -11 -64 -14 -114 l-6 -90 -57 3 c-77 4 -112 -7 -199
-64 -43 -28 -114 -62 -169 -81 l-95 -32 863 -1 c474 0 862 4 862 8 0 4 -13 29
-30 55 -17 26 -30 50 -30 52 0 6 73 55 81 55 9 0 169 -243 169 -257 0 -13
-415 -20 -1602 -28 -540 -3 -818 -2 -818 5 0 12 127 227 139 234 10 7 91 -54
91 -69 0 -5 -4 -17 -10 -25 -15 -24 9 -30 130 -29 113 1 114 1 63 13 -71 18
-148 57 -228 117 -72 55 -121 69 -174 51 -42 -15 -47 -3 -43 118 l3 102 35 -6
c54 -11 106 10 189 74 65 50 94 65 174 90 53 16 107 31 121 33 49 9 126 -6
181 -35z m1301 19 c18 -8 47 -26 63 -41 17 -14 33 -26 37 -26 4 0 34 -24 67
-54 79 -69 130 -86 196 -61 25 10 48 22 51 26 16 26 20 -3 16 -108 -3 -65 -9
-121 -14 -124 -6 -4 -38 -5 -72 -2 -60 4 -63 3 -166 -56 -58 -33 -125 -67
-150 -76 -62 -20 -170 -34 -222 -28 -51 6 -229 76 -269 105 -25 19 -37 20
-115 14 -48 -3 -97 -9 -110 -12 l-22 -6 5 124 c3 67 9 127 13 132 5 5 25 -1
45 -14 53 -33 98 -17 173 61 59 62 69 70 162 116 107 53 230 65 312 30z m192
-509 c24 -34 20 -38 -39 -38 -52 0 -54 1 -43 19 11 18 42 39 60 40 4 1 14 -9
22 -21z"/>
<path d="M1460 2202 c-110 -36 -237 -117 -202 -129 7 -3 31 -21 55 -40 83 -70
214 -106 309 -84 67 15 142 50 191 89 l37 30 -33 29 c-52 45 -202 116 -256
120 -27 2 -69 -5 -101 -15z m130 -51 c31 -22 39 -81 16 -116 -21 -32 -74 -42
-115 -21 -37 20 -47 52 -31 100 21 66 71 80 130 37z"/>
<path d="M724 1277 c-73 -40 -164 -105 -164 -118 0 -15 97 -86 152 -112 107
-49 207 -54 282 -15 48 25 146 94 146 103 0 18 -116 120 -166 145 -35 17 -69
25 -119 28 -64 2 -76 0 -131 -31z m186 -45 c48 -39 31 -154 -26 -168 -33 -8
-87 17 -109 50 -25 38 -16 107 15 123 36 18 94 16 120 -5z"/>
<path d="M2094 1305 c-27 -13 -84 -52 -126 -85 -76 -59 -77 -62 -63 -84 8 -12
36 -37 60 -55 132 -95 332 -96 468 -2 78 53 78 53 5 124 -123 121 -238 155
-344 102z m173 -80 c30 -30 35 -40 29 -67 -8 -43 -32 -66 -74 -74 -31 -6 -39
-3 -64 25 -37 41 -38 92 -3 126 34 35 70 32 112 -10z"/>
</g>
</svg>
