<?xml version="1.0" standalone="no"?>
<!DOCTYPE svg PUBLIC "-//W3C//DTD SVG 20010904//EN"
 "http://www.w3.org/TR/2001/REC-SVG-20010904/DTD/svg10.dtd">
<svg version="1.0" xmlns="http://www.w3.org/2000/svg"
 width="552.000000pt" height="448.000000pt" viewBox="0 0 552.000000 448.000000"
 preserveAspectRatio="xMidYMid meet">
<metadata>
Created by potrace 1.16, written by Peter Selinger 2001-2019
</metadata>
<g transform="translate(0.000000,448.000000) scale(0.100000,-0.100000)"
fill="#000000" stroke="none">
<path d="M2643 4315 c-18 -8 -33 -19 -33 -24 0 -14 -76 -137 -100 -164 -11
-11 -23 -30 -26 -41 -4 -12 -28 -58 -55 -102 -27 -45 -49 -84 -49 -87 0 -11
-73 -132 -86 -142 -6 -5 -31 -46 -54 -90 -24 -44 -53 -96 -66 -116 -12 -20
-30 -53 -38 -73 -8 -20 -19 -36 -24 -36 -11 0 -42 -66 -42 -90 0 -33 36 -24
128 33 48 29 108 62 134 72 27 11 48 23 48 28 0 4 6 7 14 7 7 0 37 38 65 85
29 47 57 85 62 85 5 0 9 5 9 12 0 17 59 108 102 155 21 24 38 51 38 60 1 16 2
16 12 -2 6 -11 20 -28 30 -39 11 -10 53 -70 95 -132 41 -63 76 -114 78 -114
26 0 202 -44 238 -59 63 -27 74 -26 79 4 4 17 -5 40 -28 74 -19 28 -34 55 -34
60 0 6 -6 14 -13 18 -13 8 -90 119 -176 255 -23 37 -47 68 -51 70 -5 2 -19 21
-32 44 -19 33 -102 160 -160 247 -15 20 -23 21 -65 2z"/>
<path d="M2665 3534 c-73 -11 -215 -47 -215 -55 0 -5 -6 -9 -13 -9 -33 0 -289
-145 -317 -180 -11 -13 -128 -59 -167 -66 -45 -7 -102 8 -145 37 -33 24 -55
24 -66 2 -5 -10 -12 -92 -16 -183 -4 -91 -9 -204 -13 -252 l-6 -88 32 0 c18 0
52 12 76 26 39 22 51 25 102 19 53 -6 125 -34 178 -68 11 -7 52 -45 90 -83 57
-56 88 -76 160 -109 50 -21 92 -43 95 -47 9 -12 118 -37 212 -49 64 -9 119 -9
201 -1 109 11 247 38 257 52 3 4 26 12 51 19 25 7 69 30 98 52 28 21 54 39 57
39 5 0 107 76 145 109 9 7 41 22 70 33 45 16 69 18 151 13 111 -7 116 -3 99
76 -12 57 -35 404 -28 423 12 30 -16 35 -73 14 -85 -31 -129 -39 -168 -32 -40
7 -128 48 -134 62 -1 5 -26 25 -55 45 -146 102 -186 127 -203 127 -10 0 -25 7
-33 14 -33 34 -138 58 -267 61 -69 2 -138 1 -155 -1z m165 -242 c0 -5 19 -15
43 -22 67 -21 366 -168 395 -195 15 -13 45 -40 67 -60 l40 -35 -28 -23 c-16
-12 -47 -40 -70 -61 -77 -71 -289 -158 -429 -175 -202 -24 -478 59 -602 181
-28 28 -73 63 -101 79 -27 16 -45 29 -40 29 6 0 37 26 71 58 50 47 84 67 190
114 71 31 167 67 214 79 47 13 87 27 88 31 5 11 162 10 162 0z"/>
<path d="M2622 3185 c-49 -41 -73 -97 -78 -179 -5 -67 -4 -73 24 -102 52 -55
72 -64 143 -64 79 0 127 15 140 44 5 11 16 32 24 46 9 15 15 53 15 97 0 63 -3
75 -26 103 -35 41 -95 71 -158 77 -46 5 -55 2 -84 -22z"/>
<path d="M1809 2720 c-26 -10 -59 -30 -74 -44 -14 -13 -40 -28 -56 -31 -29 -7
-56 -43 -129 -180 -18 -32 -38 -64 -44 -70 -14 -11 -76 -111 -76 -121 0 -4
-22 -43 -50 -89 -27 -46 -50 -88 -50 -94 0 -6 -4 -11 -9 -11 -8 0 -66 -95
-155 -252 -26 -47 -35 -111 -16 -123 10 -6 126 24 245 64 44 14 52 22 77 71
16 30 36 66 46 79 9 13 52 91 96 175 43 83 82 153 87 156 4 3 54 95 110 205
56 110 105 202 110 205 12 8 30 61 23 71 -9 15 -86 9 -135 -11z"/>
<path d="M3622 2703 c-37 -5 -82 -38 -82 -61 0 -9 20 -48 45 -88 25 -39 45
-74 45 -77 0 -11 82 -137 90 -137 4 0 15 -17 26 -37 10 -21 42 -74 69 -118 28
-44 59 -97 70 -117 11 -21 23 -38 26 -38 7 0 109 -156 109 -166 0 -11 59 -91
95 -127 34 -35 40 -38 61 -27 22 12 126 9 171 -5 35 -11 39 26 8 80 -15 25
-30 45 -34 45 -4 0 -14 12 -22 28 -7 15 -41 70 -74 122 -33 53 -68 112 -78
132 -11 19 -31 49 -47 66 -15 17 -56 79 -91 137 -35 59 -74 118 -86 132 -13
13 -23 26 -23 28 0 3 -29 50 -65 105 -36 55 -65 104 -65 109 0 20 -57 25 -148
14z"/>
<path d="M2188 2478 c-8 -13 -25 -42 -36 -64 -12 -23 -27 -48 -35 -55 -12 -13
-103 -178 -153 -280 -12 -26 -29 -53 -37 -61 -8 -8 -47 -75 -87 -149 -40 -74
-76 -138 -80 -144 -4 -5 -11 -31 -14 -58 l-7 -48 81 -87 c108 -116 222 -208
290 -233 68 -26 161 -22 268 11 40 12 80 19 89 16 15 -6 16 -29 10 -247 -4
-141 -3 -238 2 -235 5 3 47 -1 93 -10 46 -9 107 -14 138 -11 62 5 147 42 152
66 2 9 1 108 -2 221 -3 113 -2 209 1 213 7 10 89 -38 102 -59 4 -7 33 -22 65
-34 65 -25 121 -21 184 11 44 23 61 36 178 152 49 48 95 87 102 87 7 0 19 9
26 20 6 11 43 36 82 55 38 19 74 44 81 56 17 33 3 81 -49 161 -26 40 -60 95
-76 122 -15 26 -35 56 -45 65 -18 19 -91 128 -91 136 0 10 -103 160 -112 163
-4 2 -8 8 -8 13 0 11 -98 159 -105 159 -3 0 -22 -7 -42 -15 -21 -8 -85 -26
-143 -41 -100 -25 -114 -26 -310 -22 -176 4 -214 8 -266 26 -71 25 -186 87
-197 108 -12 21 -33 17 -49 -8z"/>
<path d="M1245 1650 c-27 -5 -131 -31 -229 -60 -171 -49 -256 -81 -256 -98 0
-4 -12 -15 -28 -24 -15 -9 -62 -46 -106 -81 -43 -36 -98 -75 -122 -86 -24 -12
-44 -25 -44 -30 0 -4 -25 -16 -56 -26 -41 -13 -71 -16 -117 -11 -34 4 -75 8
-92 9 l-30 2 -1 -186 c0 -102 -3 -193 -7 -203 -4 -9 0 -33 8 -52 16 -38 33
-42 88 -19 48 20 156 19 209 -1 43 -17 125 -75 186 -132 35 -33 209 -135 260
-153 17 -6 32 -14 32 -18 0 -11 105 -43 185 -57 64 -11 46 -12 -197 -13 -148
-1 -268 1 -268 4 0 3 9 18 20 33 32 46 35 78 8 102 -133 118 -126 113 -161
106 -29 -5 -40 -17 -78 -83 -24 -42 -46 -81 -48 -87 -9 -24 -87 -152 -103
-168 -10 -10 -18 -22 -18 -28 0 -5 -13 -32 -30 -58 -50 -82 -51 -82 113 -82
78 0 979 7 2002 15 1023 8 2114 16 2423 19 340 2 568 8 573 13 10 10 -41 105
-68 128 -12 11 -103 152 -103 161 0 9 -62 97 -85 121 -11 12 -27 34 -35 50
-29 57 -63 103 -76 103 -16 0 -103 -45 -130 -67 -49 -41 -49 -57 0 -137 26
-40 46 -75 46 -79 0 -3 12 -19 26 -34 l26 -28 -93 -6 c-126 -9 -3134 -11
-3372 -2 l-189 6 118 29 c65 16 121 33 125 39 3 6 49 28 102 49 87 35 237 123
237 139 0 4 37 26 83 49 104 54 199 72 286 54 86 -18 128 -16 141 7 6 11 10
89 10 181 0 120 4 170 15 197 8 19 15 48 15 64 0 38 -26 38 -105 -1 -42 -21
-74 -30 -109 -30 -91 0 -124 17 -215 112 -46 49 -89 88 -94 88 -5 0 -26 15
-47 33 -20 17 -57 50 -82 72 -25 22 -87 62 -138 89 -129 67 -258 89 -405 66z
m217 -309 c48 -18 97 -42 110 -54 13 -13 49 -40 79 -62 85 -61 159 -126 159
-139 0 -7 16 -27 35 -46 19 -19 35 -37 35 -42 0 -4 -27 -26 -60 -48 -33 -22
-68 -49 -77 -59 -28 -28 -181 -108 -253 -131 -110 -35 -199 -37 -330 -5 -140
33 -293 98 -320 136 -3 4 -30 25 -60 47 -130 96 -130 95 -124 122 5 23 49 69
66 70 7 0 186 118 223 146 33 26 137 76 185 90 28 8 83 12 145 10 83 -2 114
-8 187 -35z"/>
<path d="M1180 1236 c-100 -39 -97 -37 -104 -84 -9 -69 -7 -141 5 -164 19 -35
103 -116 132 -127 16 -6 55 -11 88 -11 51 0 64 4 85 25 77 78 86 250 16 327
-41 44 -151 61 -222 34z"/>
<path d="M3966 1640 c-139 -29 -318 -106 -361 -155 -11 -13 -32 -26 -48 -29
-28 -7 -159 -130 -208 -196 -38 -51 -156 -110 -220 -110 -40 0 -59 7 -100 35
-55 37 -69 41 -100 25 -18 -10 -19 -23 -19 -214 0 -161 -3 -205 -13 -209 -16
-6 -21 -75 -8 -96 6 -10 20 -12 47 -7 22 4 71 10 109 15 39 5 115 14 170 21
100 13 101 13 158 -13 31 -14 57 -31 57 -37 0 -12 113 -65 244 -115 129 -48
170 -66 177 -76 9 -15 116 -29 219 -29 95 0 261 18 270 29 3 4 50 19 105 35
55 15 129 44 165 63 36 20 86 47 113 61 26 14 47 28 47 33 0 13 133 84 213
113 63 24 88 28 135 23 33 -2 73 -12 90 -21 29 -15 33 -15 66 7 28 18 35 28
36 55 0 17 -4 32 -10 32 -6 0 -10 28 -10 65 0 37 4 65 10 65 6 0 10 23 10 51
0 29 5 91 12 139 6 48 8 95 5 104 -6 15 -9 15 -36 2 -16 -9 -36 -22 -44 -30
-25 -25 -138 -66 -183 -66 -63 0 -164 35 -208 72 -22 18 -71 61 -109 96 -38
35 -87 72 -107 82 -21 11 -53 33 -72 51 -47 43 -107 84 -153 104 -113 47 -295
57 -449 25z m296 -250 c89 -29 172 -73 213 -111 11 -10 52 -46 92 -79 40 -33
80 -72 90 -86 10 -14 35 -43 56 -65 21 -21 37 -45 35 -52 -3 -6 -24 -27 -49
-45 -24 -19 -60 -48 -79 -64 -105 -92 -370 -166 -555 -155 -152 9 -375 89
-449 161 -18 17 -58 55 -89 85 -31 29 -57 56 -57 60 0 14 239 211 255 211 4 0
20 13 36 29 39 40 109 78 204 112 108 39 177 38 297 -1z"/>
<path d="M4055 1241 c-17 -10 -43 -33 -58 -50 -23 -28 -27 -42 -27 -94 0 -77
23 -129 78 -179 35 -32 48 -38 87 -38 25 0 45 4 45 9 0 5 13 12 30 16 44 10
78 42 91 86 7 21 16 39 21 39 4 0 8 23 8 50 0 28 -4 50 -10 50 -5 0 -10 5 -10
12 0 23 -54 81 -94 99 -53 24 -122 24 -161 0z"/>
</g>
</svg>
