<?xml version="1.0" standalone="no"?>
<!DOCTYPE svg PUBLIC "-//W3C//DTD SVG 20010904//EN"
 "http://www.w3.org/TR/2001/REC-SVG-20010904/DTD/svg10.dtd">
<svg version="1.0" xmlns="http://www.w3.org/2000/svg"
 width="288.000000pt" height="229.000000pt" viewBox="0 0 288.000000 229.000000"
 preserveAspectRatio="xMidYMid meet">
<metadata>
Created by potrace 1.16, written by Peter Selinger 2001-2019
</metadata>
<g transform="translate(0.000000,229.000000) scale(0.100000,-0.100000)"
fill="#000000" stroke="none">
<path d="M1979 2065 c-25 -18 -59 -50 -75 -71 -36 -46 -86 -135 -80 -141 2 -3
24 6 48 20 68 39 147 42 336 11 32 -5 42 -3 42 7 -1 28 -71 109 -127 147 -97
65 -93 65 -144 27z"/>
<path d="M1308 1928 c-49 -15 -68 -26 -73 -42 -3 -11 -8 -84 -12 -161 -7 -181
10 -289 64 -395 21 -41 43 -73 48 -70 6 3 9 38 7 86 -6 134 34 251 118 346 23
26 91 88 151 138 60 50 109 92 109 95 0 2 -24 1 -52 -2 -32 -3 -80 1 -121 11
-88 21 -156 19 -239 -6z"/>
<path d="M2092 1813 c57 -113 74 -177 105 -397 4 -33 13 -61 20 -63 6 -2 24
17 38 42 15 25 29 44 32 41 2 -2 -1 -23 -7 -46 -14 -52 -9 -59 18 -25 17 21
19 31 11 54 -7 21 -6 52 5 111 21 107 20 143 -3 188 -22 42 -43 63 -88 86 -32
16 -138 23 -131 9z"/>
<path d="M1868 1736 l-55 -55 -64 9 c-55 8 -66 7 -76 -7 -22 -29 -19 -137 4
-195 20 -51 33 -48 33 7 0 56 20 107 51 129 28 19 39 20 39 4 0 -9 22 -14 73
-15 86 -2 138 -19 200 -65 60 -44 59 -55 -3 -23 -27 14 -61 25 -75 25 l-26 0
22 -29 c25 -34 28 -101 5 -156 -20 -47 -21 -44 9 -55 14 -5 30 -21 35 -35 5
-14 13 -25 17 -25 8 0 70 201 80 258 4 23 -2 48 -22 88 -30 61 -151 194 -177
194 -8 0 -40 -25 -70 -54z"/>
<path d="M2347 1772 c-4 -6 -3 -13 2 -16 5 -4 19 -37 32 -74 12 -37 40 -105
61 -152 59 -126 61 -136 37 -189 -23 -52 -247 -281 -275 -281 -12 0 -10 7 12
33 40 47 61 100 56 142 -5 40 -2 39 -77 12 -22 -9 -101 -20 -175 -26 -74 -6
-150 -14 -167 -17 l-33 -6 0 98 c0 55 -4 104 -8 111 -5 8 -22 -5 -51 -42 -24
-30 -45 -55 -47 -55 -2 0 -16 24 -30 53 -15 28 -46 82 -70 119 l-43 67 27 3
c26 3 26 3 -26 61 -28 31 -52 62 -52 67 0 6 -4 10 -8 10 -16 0 -41 -69 -67
-186 -30 -134 -31 -255 -3 -309 17 -32 123 -122 175 -149 18 -9 46 -16 63 -16
20 0 45 -11 70 -31 46 -37 76 -36 73 4 l-2 27 27 -31 c25 -31 27 -31 98 -27
56 4 89 13 151 42 l78 37 -32 -30 c-18 -16 -33 -33 -33 -36 0 -11 63 6 110 30
25 12 59 26 76 29 16 4 63 32 104 63 40 31 110 73 154 93 45 21 91 49 104 62
22 24 22 25 6 79 -9 30 -34 91 -56 137 -33 70 -57 102 -147 195 -65 66 -110
106 -114 99z m-528 -649 l0 -68 -24 65 c-14 36 -25 66 -25 68 0 1 11 2 25 2
24 0 25 -2 24 -67z"/>
<path d="M1363 1163 c-16 -26 -45 -84 -64 -128 -45 -105 -100 -186 -175 -260
-75 -75 -148 -114 -289 -156 -101 -30 -126 -33 -295 -39 -169 -6 -190 -9 -241
-32 -86 -39 -126 -79 -139 -141 -10 -44 -10 -59 3 -90 9 -20 20 -37 24 -37 5
0 19 20 30 44 51 104 178 150 497 181 191 19 226 26 336 67 64 25 96 44 130
78 69 69 150 177 195 260 l41 76 -2 103 c-1 57 -6 107 -12 113 -6 6 -20 -8
-39 -39z"/>
<path d="M1474 1058 c3 -13 10 -54 16 -92 13 -82 33 -123 95 -200 l47 -57 82
6 c138 11 198 25 283 66 82 39 130 85 120 113 -4 10 -47 15 -179 18 -138 4
-186 10 -238 27 -77 24 -151 71 -181 112 -25 35 -51 39 -45 7z"/>
<path d="M1395 590 c-3 -6 -1 -10 4 -10 24 0 51 -41 51 -76 0 -46 -14 -70 -50
-89 -86 -45 -163 16 -206 163 -3 11 -12 9 -38 -7 -18 -12 -41 -21 -50 -21 -27
0 -18 -23 32 -85 59 -73 108 -100 182 -99 115 2 172 74 144 182 -7 26 -59 58
-69 42z"/>
</g>
</svg>
