<?xml version="1.0" encoding="UTF-8" standalone="no"?>
<svg
   xmlns:dc="http://purl.org/dc/elements/1.1/"
   xmlns:cc="http://creativecommons.org/ns#"
   xmlns:rdf="http://www.w3.org/1999/02/22-rdf-syntax-ns#"
   xmlns:svg="http://www.w3.org/2000/svg"
   xmlns="http://www.w3.org/2000/svg"
   xmlns:sodipodi="http://sodipodi.sourceforge.net/DTD/sodipodi-0.dtd"
   xmlns:inkscape="http://www.inkscape.org/namespaces/inkscape"
   version="1.0"
   width="327.48947pt"
   height="332.75253pt"
   viewBox="0 0 327.48947 332.75253"
   preserveAspectRatio="xMidYMid meet"
   id="svg7484"
   sodipodi:docname="toreador.svg"
   inkscape:version="1.0.1 (3bc2e813f5, 2020-09-07)">
  <defs
     id="defs7488" />
  <sodipodi:namedview
     pagecolor="#ffffff"
     bordercolor="#666666"
     borderopacity="1"
     objecttolerance="10"
     gridtolerance="10"
     guidetolerance="10"
     inkscape:pageopacity="0"
     inkscape:pageshadow="2"
     inkscape:window-width="1600"
     inkscape:window-height="837"
     id="namedview7486"
     showgrid="false"
     fit-margin-top="0"
     fit-margin-left="0"
     fit-margin-right="0"
     fit-margin-bottom="0"
     inkscape:zoom="1.1573979"
     inkscape:cx="202.48058"
     inkscape:cy="207.94839"
     inkscape:window-x="-8"
     inkscape:window-y="-8"
     inkscape:window-maximized="1"
     inkscape:current-layer="svg7484" />
  <metadata
     id="metadata7450">
Created by potrace 1.16, written by Peter Selinger 2001-2019
<rdf:RDF>
  <cc:Work
     rdf:about="">
    <dc:format>image/svg+xml</dc:format>
    <dc:type
       rdf:resource="http://purl.org/dc/dcmitype/StillImage" />
    <dc:title></dc:title>
  </cc:Work>
</rdf:RDF>
</metadata>
  <path
     id="path8067"
     style="fill:#ff0000;stroke-width:0.458209"
     d="m 127.77441,165.14656 c -8.01084,2.76257 -12.23232,12.62032 -8.75519,20.34108 2.93732,6.27223 6.29069,12.49086 10.7348,17.82719 5.56392,5.7064 15.24701,5.77303 21.16621,0.56291 6.86348,-5.02737 8.03963,-15.41573 3.0936,-22.18227 -3.72312,-5.33339 -7.57433,-10.89631 -12.821,-14.83055 -3.9269,-2.67785 -8.93535,-3.14726 -13.41842,-1.71836 z m 126.5319,7.36266 c -6.5518,1.98093 -11.1633,7.43178 -16.76132,11.08741 -6.75175,5.27087 -7.59166,16.19 -1.56722,22.32563 4.85055,5.11369 12.26562,9.10633 19.38029,6.52038 7.35912,-2.414 10.96373,-10.00293 14.95066,-16.03674 4.66835,-6.77013 3.37326,-17.12903 -3.76205,-21.66161 -3.45674,-2.58554 -8.08774,-3.14068 -12.24036,-2.23507 z M 116.65926,136.73044 c -9.62846,1.21197 -17.167457,11.76279 -13.78295,21.18769 2.01417,5.15468 5.62391,9.68438 9.72172,13.34892 6.34858,4.74783 16.1903,3.46346 20.85133,-3.02508 4.35089,-5.31652 3.47223,-12.72289 0.85576,-18.61082 -1.85844,-6.52915 -7.179,-12.5825 -14.31865,-12.90236 -1.1004,-0.27078 -2.21532,-0.0335 -3.32721,0.001 z m 71.92181,-88.472806 c -19.04124,0.180279 -37.90547,6.53958 -53.5478,17.295599 -7.08453,5.801521 -11.58449,14.06465 -15.88674,21.991 -1.36246,2.225442 -0.96603,5.152242 -1.70457,7.328135 -4.72097,5.236562 -5.98997,12.549762 -7.70147,19.174052 -1.91967,9.02079 2.74817,17.5435 5.9297,25.68032 3.03823,7.30538 7.68357,13.73572 11.92255,20.34551 3.3773,8.95463 6.56246,18.07446 11.77472,26.18414 4.99464,7.73569 10.17516,15.64295 17.19626,21.6978 6.8509,4.19648 14.7538,6.40314 22.45045,8.51803 4.33139,1.06081 9.1085,0.31181 12.7663,-2.25256 5.96296,5.71736 14.72831,3.98474 22.09423,3.00747 7.01022,-0.63372 13.36912,-4.01409 18.53692,-8.67691 17.84211,-14.8293 32.28148,-34.14596 39.75742,-56.22197 5.96121,-17.58988 6.13683,-37.00488 1.18859,-54.850277 C 270.45153,87.323506 262.90352,79.410261 255.52164,72.22411 241.17291,59.176759 222.17793,52.383284 203.29774,49.277955 198.42776,48.564654 193.50336,48.212793 188.58107,48.257634 Z M 145.2481,190.48855 c -8.2267,2.60868 -12.71809,12.75357 -8.97708,20.5707 0.71442,2.05986 2.89442,3.66138 1.80593,6.07254 -0.6606,7.7718 5.34089,15.1044 13.03242,16.17831 1.20927,0.32216 3.36777,0.21192 2.56191,2.16616 -0.58708,6.02041 1.60836,12.21682 6.52938,15.91145 7.90809,7.4809 16.76894,14.33195 22.18705,23.98908 3.1617,5.55692 7.90661,11.13651 14.76476,11.55844 8.26101,0.95741 15.92117,-5.72695 16.97196,-13.81513 3.50358,-8.74613 8.97389,-16.59366 15.20245,-23.59043 3.08332,-4.02304 3.23277,-9.49481 1.89179,-14.21271 7.22832,-5.5402 15.40095,-10.2538 21.11967,-17.4719 4.68138,-6.76114 2.57238,-17.00204 -4.54869,-21.19343 -5.25973,-3.51682 -12.08289,-2.50937 -17.41323,0.32664 -19.54971,8.6768 -42.84815,9.3569 -62.38578,0.25907 -6.65035,-2.42852 -12.31705,-8.57162 -19.91202,-7.29886 -0.9435,0.18335 -1.88701,0.36671 -2.83052,0.55007 z m 156.7361,-62.90707 c -7.02591,0.96717 -12.40221,7.15677 -13.26479,14.04965 -5.87761,2.2851 -9.85884,7.68759 -11.64292,13.60801 -4.03692,10.02709 -11.24958,18.32117 -16.227,27.86386 -4.19856,7.92193 -9.07867,15.538 -15.63881,21.73295 -6.83475,7.0944 -14.68185,13.10045 -22.95573,18.41008 -6.59137,4.85661 -7.99378,15.15703 -2.64022,21.43188 4.09952,5.49099 11.44843,6.31578 17.79781,5.65077 18.99583,-1.04724 37.65382,-6.42538 54.50236,-15.21984 10.53574,-5.41425 21.46068,-10.50909 30.64664,-18.09428 6.07384,-5.54359 6.54891,-15.59765 1.33704,-21.87679 -1.31956,-17.86131 -1.56195,-35.85987 -4.43003,-53.57832 -0.887,-7.79146 -7.90876,-14.56966 -15.93035,-14.05506 -0.52166,-0.0807 -1.03619,0.0297 -1.554,0.0771 z M 262.41804,0.23160843 c -3.94769,0.93888227 -7.35294,3.36910647 -9.80943,6.56169587 -11.6642,1.2642301 -23.4702,-0.1833675 -35.11384,1.0551333 -7.60551,2.3719164 -15.45167,4.1012824 -22.9009,6.9020164 -8.05627,3.666582 -11.11147,14.591334 -6.38004,22.013375 2.64722,3.660235 3.51083,8.527386 7.45415,11.231123 5.09621,3.952336 11.91896,4.720561 16.97773,8.82318 10.097,7.13769 18.89775,15.922471 29.00999,23.052816 16.36081,12.731807 25.82808,32.457682 29.85293,52.436712 1.97111,7.14463 1.41654,16.00163 7.81019,20.99342 6.70551,5.89614 18.43055,3.65622 22.41553,-4.36693 2.983,-5.74749 2.21223,-12.56691 3.23,-18.82447 1.84363,-17.94386 2.44554,-36.095867 -0.0233,-54.014061 -1.6707,-18.24193 -8.52832,-35.49743 -16.25985,-51.930678 C 284.72577,17.086007 281.39428,9.2555047 275.27352,3.7414306 271.86889,0.53933118 266.9541,-0.52137506 262.41806,0.23160843 Z M 146.44016,17.445768 c -16.52613,-0.07871 -32.71284,4.475473 -47.63493,11.34962 -5.52534,2.106233 -11.065905,4.78023 -17.074845,4.802287 -9.047978,1.278567 -15.048994,11.324078 -12.41162,19.964264 1.086958,5.052656 4.534374,9.5502 3.680301,14.905203 0.251417,10.565174 -0.459468,21.224413 0.877625,31.725618 0.894961,5.66198 4.892217,10.33356 9.852387,12.9265 3.58419,11.72649 6.318342,24.03587 12.215255,34.99858 4.407407,7.33685 15.359407,9.25689 21.898247,3.6803 5.08343,-3.69468 6.22058,-10.34252 5.78881,-16.24721 0.14672,-8.43875 -0.75779,-17.11589 2.30737,-25.19456 5.43278,-17.153547 14.67895,-34.402586 30.46744,-44.032595 10.36423,-6.645379 22.50432,-9.513487 34.50171,-11.488336 7.89954,-1.080899 14.74159,-8.453978 13.78046,-16.626285 -0.31195,-7.336122 -6.68122,-12.858774 -13.49398,-14.477401 -14.5038,-4.138779 -29.6707,-6.268501 -44.75423,-6.285985 z M 79.816403,98.43867 c -6.454559,1.67118 -10.57286,7.62532 -12.02351,13.85009 -6.258788,20.42184 -7.314947,41.89377 -10.676626,62.8668 -0.479439,3.34987 -1.649458,6.6001 -4.201195,8.93067 -5.563242,6.5553 -3.801177,17.45024 3.486175,21.97776 17.816442,11.51228 37.898441,18.92482 57.917243,25.61615 5.44954,1.85804 11.5675,0.7035 16.17922,-2.5302 5.15246,0.31227 10.74769,1.77937 15.36659,-1.40292 7.59323,-4.11284 9.68426,-15.12268 4.36187,-21.86977 -8.51574,-9.79643 -15.94679,-20.66267 -20.63976,-32.83176 -4.88916,-11.73311 -15.10989,-20.09228 -20.43717,-31.58984 -5.45669,-10.39752 -8.1749,-21.88855 -11.146157,-33.15454 -2.45859,-7.39554 -10.640693,-11.849505 -18.18668,-9.86244 z m 48.384007,115.78815 c -8.11332,1.2767 -12.07944,9.03514 -16.60168,14.93098 -3.04245,4.24326 -8.54704,5.44833 -13.03725,7.59079 -8.118322,3.18502 -16.417619,5.88003 -24.69553,8.61407 1.278417,-8.24196 -5.385298,-16.69565 -13.79274,-17.00418 -8.625429,-0.81633 -15.112965,6.26552 -20.436899,12.06053 -6.150111,6.73738 -8.351058,15.98602 -8.709549,24.86053 -10.80207,8.51469 -20.822101,18.79271 -25.7896718,31.87317 C 2.5004623,303.96037 -0.00467121,311.14409 6.5406681e-6,318.51318 0.36866754,326.75224 8.2284803,333.56025 16.450804,332.67486 c 6.271615,-0.45062 10.879195,-5.23173 13.94627,-10.32279 6.717085,-10.78722 17.109049,-18.78613 28.706392,-23.74529 14.341642,-6.2977 29.45998,-10.68179 44.623924,-14.49324 8.86335,4.42344 19.28855,4.6119 28.87075,2.96313 7.1928,-1.79247 15.12199,-5.79408 16.88142,-13.67793 1.05591,-4.0495 0.25537,-8.50458 -2.05407,-11.98893 8.41185,-6.04524 16.8903,-13.24877 20.76353,-23.11296 2.52612,-8.07398 -3.07978,-17.22067 -11.33363,-18.84944 -8.41627,-1.84275 -16.75879,-4.3359 -25.31649,-5.35516 -1.11283,0.0448 -2.22567,0.0897 -3.33849,0.13457 z" />
  <path
     style="fill:#ffffff;stroke-width:0.864007"
     d="m 354.01088,-4.4640393 c -7.57263,0.041694 -14.48535,4.04558092 -19.82322,9.1632002 -15.40028,0.5955068 -30.9369,0.113671 -46.25319,1.3768219 -12.09814,4.3478352 -25.83097,5.7247502 -36.37762,13.5509252 -2.76826,1.858489 -3.60995,6.983577 -7.68003,4.510444 -31.9299,-6.70989 -66.19321,-8.386029 -97.18039,3.434372 -13.99263,5.01407 -27.2178,11.318301 -41.90097,13.812301 -13.07419,3.627627 -21.017077,19.029647 -16.51401,31.84001 2.199313,7.608077 5.762176,14.863616 4.582063,23.015325 0.151089,12.65096 0.30229,25.30191 0.453483,37.95287 -9.76836,12.75769 -10.916483,29.57414 -14.040118,44.79337 -3.430177,19.47312 -4.952034,39.19879 -8.999512,58.51453 -4.66939,6.75709 -9.655106,14.3269 -8.332943,23.01601 0.45438,10.51867 8.963937,17.98631 17.761084,22.35955 18.084341,10.21028 37.517943,18.54838 56.860783,25.52702 -10.97174,4.61752 -22.96151,9.04818 -33.90553,12.06235 -2.14829,-14.55892 -18.824993,-25.06206 -32.67702,-19.01828 -18.479416,8.52128 -31.916473,27.54902 -33.011529,48.00417 -0.872117,4.60808 -6.764788,6.52093 -9.620134,10.17456 -13.78956,12.74968 -24.4439479,29.01432 -28.9391753,47.37526 -3.8577234,11.14002 -4.8410536,25.3229 4.5917252,34.06247 10.2931751,10.81549 29.8573591,8.3075 37.8014761,-4.08488 8.438407,-11.8616 18.034701,-23.51595 31.385098,-30.0212 20.387786,-11.12249 43.046449,-17.33032 65.407839,-22.96226 15.96927,4.94667 34.18431,7.05908 49.80192,-0.17213 10.15118,-4.45482 18.28815,-14.76138 16.73507,-26.28809 0.57381,-3.31193 -3.45015,-7.44274 0.40297,-9.24347 3.15984,-1.88992 6.34288,-6.6957 9.36804,-6.73585 10.56158,10.08794 21.22672,20.28808 28.8528,32.8764 6.07662,9.54042 18.14982,15.77297 29.29693,11.58141 9.86911,-2.58963 15.73207,-11.72333 18.37365,-21.00955 3.75542,-9.81301 9.82611,-18.51157 16.41445,-26.61547 24.5138,0.0576 48.99363,-4.7715 71.32109,-15.002 18.09061,-8.50962 36.71002,-16.6942 52.64199,-28.94424 10.59241,-7.68855 13.24636,-23.30071 6.58637,-34.3679 -2.82273,-15.18803 -2.26566,-31.06453 -4.01537,-46.57549 -1.58733,-11.59986 -0.88843,-24.07166 -5.98653,-34.85043 -3.41224,-5.7174 -8.89913,-10.26723 -15.26863,-12.28679 1.37855,-34.88279 2.43078,-70.904498 -9.8956,-104.183812 -7.74758,-20.553044 -15.91568,-41.758922 -30.44948,-58.5819611 -4.51302,-5.0901395 -10.88955,-8.2324596 -17.76783,-8.0595662 z m 0.24807,32.0104503 c 16.71163,27.605611 28.09323,58.103674 29.45143,90.571399 1.27041,14.04816 1.11226,28.14721 -0.56794,42.15494 -7.96131,-30.85977 -25.94053,-59.45209 -52.29046,-77.797169 -18.20696,-14.274689 -35.07759,-31.80355 -57.93694,-38.45869 -4.66923,-1.098805 -6.69414,-1.969509 -0.59684,-2.989871 11.27805,-2.740005 22.25121,-8.148368 34.14112,-6.97191 12.93153,-0.759176 26.22539,0.988928 38.92162,-1.949036 3.14108,-1.126205 5.9945,-3.004055 8.36669,-5.340982 l 0.47312,0.722955 z M 195.8284,47.92314 c 13.32999,0.02177 26.67488,1.300595 39.72239,4.056784 -30.03819,5.905946 -57.73806,23.839357 -73.81089,50.125246 -14.0643,22.27205 -22.95902,48.42387 -21.33491,75.00866 0.0964,4.12145 0.33742,8.24112 0.79015,12.33941 -11.25891,-20.05856 -18.28649,-42.87559 -18.90919,-65.92656 -0.94158,-14.16549 0.11388,-28.604499 -0.7166,-42.816833 -1.5063,-4.048526 -3.26985,-8.136418 -4.5141,-12.219287 21.60092,-3.929951 40.06514,-17.223607 62.13505,-19.619022 5.51264,-0.736542 11.08104,-0.946044 16.6381,-0.948398 z m 69.129,15.563941 c 12.23022,2.649844 23.47869,9.589747 32.48022,18.180768 3.25999,3.274717 6.35129,6.714239 9.34988,10.228527 -30.88918,-14.460773 -68.1554,-17.259263 -99.49179,-2.536733 -1.81559,0.401305 -10.46698,5.820539 -6.44189,2.509733 17.33981,-15.071386 39.11896,-24.704989 61.51493,-28.269231 0.85943,-0.07878 1.72492,-0.15134 2.58865,-0.113064 z m -8.01906,33.827898 c 21.4964,-0.06664 42.24154,8.509441 60.16156,19.843481 12.18625,7.47618 14.77147,22.8255 13.92029,35.99973 -0.0764,10.75509 -4.26331,21.95768 -9.16319,30.63851 1.20648,-19.57201 -4.28558,-39.81668 -17.55505,-54.60121 -15.25045,-17.78974 -37.8756,-28.20339 -60.92954,-30.881494 4.59788,-0.709877 9.1588,-0.975231 13.56593,-0.999017 z M 225.9269,117.14665 c 2.84666,0.16664 8.07201,-0.28434 9.6492,0.36956 -20.67575,13.33677 -39.73486,31.53163 -47.34658,55.56139 -8.48018,-11.23057 -12.29931,-25.13108 -12.57068,-39.07178 -0.093,-4.58132 7.44652,-4.72052 10.76851,-7.27069 12.42696,-5.6563 25.61486,-10.46684 39.49955,-9.58848 z m 40.85302,7.53137 c 7.92992,5.84772 15.52409,13.56263 18.46815,23.17456 0.48712,2.2789 1.73596,6.42024 1.43776,7.70019 -6.86645,-6.93602 -15.78048,-13.34985 -25.81222,-13.83086 -7.08366,0.19752 -14.80988,5.05049 -19.74391,7.53306 5.2031,-10.76867 14.60305,-20.21969 25.65022,-24.57695 z m 81.99798,5.88774 c 13.65756,25.16063 21.23087,53.20805 22.3275,81.58286 -1.45495,6.32095 -7.63595,10.38809 -11.47697,15.08806 -16.7602,17.53869 -36.06779,33.25648 -58.93574,42.02134 -2.03605,0.76321 -6.32289,2.555 -7.15049,2.28433 29.99362,-21.90435 53.63747,-54.62866 59.51083,-91.79015 2.48925,-16.59375 0.70935,-33.70527 -4.51813,-49.61507 z m -129.35637,28.7333 c -2.01266,12.47008 -4.58056,27.21671 4.58835,37.65518 6.00727,7.87743 13.52622,14.52396 21.67105,20.12023 -15.13776,-3.49746 -30.72043,-9.30676 -41.76428,-20.60792 -3.40691,-3.6227 0.98553,-8.62575 1.72751,-12.51994 3.78711,-9.153 8.53776,-17.9072 14.04231,-26.13931 l -0.15108,0.85069 z m -57.82435,4.04834 c 4.70418,14.46174 11.19991,28.41108 20.37335,40.58471 5.891,11.89457 9.07149,25.07169 16.4068,36.29776 5.5609,9.48374 13.06944,18.42438 20.5447,25.9175 -31.15247,-15.13597 -54.99793,-46.45713 -57.83954,-81.37023 -0.42063,-7.576 -0.29259,-14.89114 0.19913,-22.40512 l 0.26596,0.82205 z m -50.2761,3.13371 c 5.95408,23.00102 16.9481,44.6032 32.38508,62.67596 8.24002,11.80487 12.1529,25.86442 20.47239,37.73631 6.05668,9.56441 13.20984,18.38929 20.86663,26.71153 -31.80411,-9.46294 -63.62089,-20.01163 -92.386316,-36.68824 8.622116,-11.95049 8.122636,-27.56507 10.604526,-41.49642 2.22468,-16.58807 4.08031,-33.28768 7.92944,-49.40152 z m 190.91013,3.94878 c 0.24192,8.75793 0.59075,17.73709 -0.14783,26.35823 -2.64814,4.37725 -3.95533,10.47231 -7.64005,13.77761 -12.94257,0.89572 -25.85055,-3.39543 -36.45536,-10.67353 12.45305,-0.079 25.12793,-3.87119 35.67573,-10.47271 5.6493,-4.93872 6.83485,-12.9338 8.48314,-19.86541 l 0.0829,0.86002 z m 98.31287,15.12351 c 5.39743,25.94629 4.43724,52.54327 7.50269,78.86596 0.5065,3.06659 1.46512,6.11148 3.25858,8.68057 -20.76215,13.62144 -43.55664,24.99786 -67.30649,31.81638 -6.67911,1.89831 -13.55708,2.94308 -20.46448,3.55391 18.39261,-13.96375 34.76492,-31.09456 45.24071,-51.85808 8.89251,-16.43101 21.57359,-31.02488 26.28626,-49.49063 2.33811,-7.82188 3.88407,-15.8597 5.02034,-23.93738 0.15413,0.78975 0.30826,1.57951 0.46239,2.36927 z m -83.56231,32.3682 c -15.84873,21.97925 -36.18219,40.85008 -59.97424,53.53469 -16.47789,-11.28143 -31.38558,-25.53812 -41.06903,-43.16998 13.185,8.47673 27.84479,16.72364 44.09642,15.704 22.19748,1.28978 41.92597,-11.61562 57.21009,-26.4484 z m -127.54568,52.84787 c 19.4226,14.39933 42.71344,24.02936 67.08588,24.66039 22.69178,1.96395 45.78245,-2.96703 66.02015,-13.29836 -15.59793,16.2401 -32.59555,31.27556 -46.69519,48.87546 -4.69478,7.23545 -9.05686,14.74175 -12.32223,22.74094 -12.6371,-19.83393 -31.84493,-34.08096 -47.66373,-51.17738 -10.2738,-10.12116 -19.35958,-21.12531 -27.79007,-32.80512 l 0.69603,0.51191 z m -13.87136,39.51651 c 7.29167,1.40946 15.43105,2.76689 22.10643,4.79423 -11.15381,13.65978 -27.35865,20.38589 -41.83852,29.68168 -5.72668,4.57935 0.17262,11.76495 5.21947,13.84605 4.16439,1.56881 0.70798,1.31789 -1.72464,1.06482 -8.95476,-0.41923 -16.77656,-8.10913 -25.97652,-4.64488 -27.23412,7.06443 -54.94284,14.53048 -79.40703,28.83877 -8.764716,5.28803 -16.865823,11.73555 -23.701132,19.37266 6.683721,-15.85441 20.921031,-26.36548 33.851842,-36.73418 3.22255,-5.94871 1.047337,-13.46039 2.412831,-20.0726 0.239222,-2.48544 2.220877,-6.87496 3.467841,-7.57525 -0.111032,6.50983 -2.272571,16.54201 5.558671,19.48403 7.580951,0.96705 14.654056,-3.66253 21.910039,-5.26036 19.984218,-7.05121 40.881528,-12.2568 59.593508,-22.42668 8.29102,-4.66718 12.85442,-13.25647 18.52721,-20.36829 z"
     id="path8074"
     transform="scale(0.75)" />
  <g
     transform="matrix(0.1,0,0,-0.1,14.318369,320.65928)"
     fill="#000000"
     stroke="none"
     id="g7482">
    <path
       d="m 2493,3040 c -30,-46 -67,-55 -253,-55 l -175,-1 -172,-50 -172,-50 78,-16 c 153,-31 269,-92 390,-203 42,-39 101,-87 132,-108 206,-138 352,-385 404,-681 8,-49 17,-91 19,-93 3,-4 20,178 31,332 7,98 -9,312 -31,420 -29,143 -121,365 -201,486 -29,45 -34,46 -50,19 z"
       id="path7452" />
    <path
       d="m 1215,2879 c -93,-12 -192,-42 -295,-89 -91,-42 -204,-75 -220,-65 -17,10 -11,-18 16,-85 25,-61 26,-70 19,-180 -8,-139 7,-294 40,-428 28,-110 112,-287 176,-372 43,-58 43,-58 13,50 -22,80 -29,235 -15,326 34,209 150,430 292,558 109,98 271,172 429,197 106,16 111,20 60,36 -154,47 -382,70 -515,52 z"
       id="path7454" />
    <path
       d="m 1743,2751 c -193,-52 -332,-130 -458,-256 -49,-50 -99,-106 -109,-125 l -20,-34 30,22 c 330,257 651,286 1026,96 27,-14 48,-21 48,-17 0,17 -104,144 -160,196 -67,62 -186,126 -246,133 -21,2 -71,-5 -111,-15 z"
       id="path7456" />
    <path
       d="m 1710,2510 c -60,-7 -140,-32 -180,-55 -23,-13 -17,-14 71,-15 250,-1 485,-134 585,-332 55,-109 69,-288 31,-398 -9,-24 -15,-46 -13,-47 6,-7 88,120 116,179 66,141 76,279 30,400 -27,73 -73,113 -204,178 -152,75 -306,107 -436,90 z"
       id="path7458" />
    <path
       d="m 2320,2468 c 0,-3 16,-31 35,-63 154,-257 165,-543 29,-807 -98,-189 -264,-363 -435,-458 l -54,-30 h 44 c 100,0 269,66 408,162 86,58 266,227 308,288 26,37 27,44 20,107 -28,269 -107,503 -225,663 -46,61 -130,151 -130,138 z"
       id="path7460" />
    <path
       d="m 1465,2361 c -86,-14 -167,-41 -248,-84 l -79,-40 4,-81 c 3,-51 13,-102 26,-137 30,-75 109,-198 116,-179 2,8 10,33 16,55 50,165 178,304 406,441 11,7 17,14 14,17 -10,10 -204,16 -255,8 z"
       id="path7462" />
    <path
       d="m 1795,2281 c -62,-35 -126,-103 -158,-168 -26,-50 -49,-123 -40,-123 3,0 23,16 45,36 51,46 132,84 179,84 46,0 150,-67 188,-121 14,-21 30,-38 35,-39 18,0 -1,144 -25,194 -25,54 -132,166 -158,166 -9,0 -39,-13 -66,-29 z"
       id="path7464" />
    <path
       d="m 1058,2134 c -35,-61 -43,-305 -14,-419 70,-268 263,-480 525,-575 46,-17 85,-29 87,-27 2,2 -19,20 -47,42 -140,106 -266,284 -316,445 -17,56 -38,99 -61,125 -58,69 -130,234 -156,359 -7,33 -15,56 -18,50 z"
       id="path7466" />
    <path
       d="m 1513,2095 c -79,-94 -173,-284 -173,-349 0,-45 134,-138 261,-180 77,-26 239,-46 239,-30 0,5 -31,22 -68,39 -50,22 -86,48 -143,105 -101,100 -113,129 -105,237 4,46 15,115 25,153 10,39 14,70 10,70 -5,0 -25,-20 -46,-45 z"
       id="path7468" />
    <path
       d="m 671,2025 c -28,-88 -56,-257 -76,-445 -17,-166 -35,-236 -71,-279 l -25,-30 43,-27 c 121,-77 398,-188 644,-259 86,-25 159,-45 162,-45 2,0 -31,37 -73,83 -125,133 -209,263 -260,402 -11,28 -42,75 -69,107 -101,112 -180,271 -226,453 l -27,110 z"
       id="path7470" />
    <path
       d="m 2100,2017 c 0,-56 -30,-169 -53,-198 -20,-25 -147,-71 -212,-76 -44,-4 -76,0 -118,15 l -58,19 33,-34 c 90,-93 234,-157 344,-151 l 59,3 35,70 c 34,67 35,74 34,175 0,85 -4,116 -23,162 -30,77 -41,81 -41,15 z"
       id="path7472" />
    <path
       d="m 2833,1917 c -19,-211 -68,-361 -156,-477 -18,-25 -52,-80 -75,-123 -23,-44 -59,-104 -79,-135 -54,-82 -196,-221 -287,-281 l -79,-51 h 55 c 80,0 219,26 322,61 101,34 336,152 409,204 l 47,35 -22,30 c -20,28 -23,46 -29,223 -9,213 -26,350 -65,525 -14,64 -27,118 -28,119 -1,1 -7,-57 -13,-130 z"
       id="path7474" />
    <path
       d="m 2339,1742 c -59,-82 -169,-191 -245,-241 -107,-72 -183,-94 -303,-89 -89,3 -104,7 -181,44 -47,23 -114,64 -150,92 -35,28 -66,49 -69,47 -8,-9 69,-153 112,-211 56,-74 172,-185 235,-225 l 45,-29 56,30 c 178,96 398,318 488,494 28,55 55,127 50,133 -2,1 -19,-18 -38,-45 z"
       id="path7476" />
    <path
       d="m 1134,1336 c 57,-141 263,-392 489,-594 95,-85 129,-122 170,-190 51,-83 52,-84 58,-54 8,41 49,124 98,198 45,69 103,129 300,314 124,116 251,260 251,284 0,5 -27,-17 -60,-48 -224,-207 -570,-280 -870,-184 -148,48 -302,146 -401,257 l -50,56 z"
       id="path7478" />
    <path
       d="M 1113,856 C 1051,758 1008,735 710,635 570,588 447,550 438,550 c -37,0 -36,132 1,196 26,44 11,43 -40,-3 -61,-55 -83,-104 -85,-191 l -2,-72 -48,-37 C 110,329 36,215 5,45 -1,7 0,8 49,82 c 121,180 288,279 646,383 210,61 217,62 260,35 62,-38 195,-37 248,2 15,11 11,13 -27,14 -46,1 -121,37 -131,62 -3,8 -4,16 -3,17 2,1 40,21 85,45 105,55 204,130 242,182 17,23 30,43 28,44 -3,3 -226,54 -237,54 -3,0 -25,-29 -47,-64 z"
       id="path7480" />
  </g>
</svg>
