<?xml version="1.0" standalone="no"?>
<!DOCTYPE svg PUBLIC "-//W3C//DTD SVG 20010904//EN"
 "http://www.w3.org/TR/2001/REC-SVG-20010904/DTD/svg10.dtd">
<svg version="1.0" xmlns="http://www.w3.org/2000/svg"
 width="293.000000pt" height="287.000000pt" viewBox="0 0 293.000000 287.000000"
 preserveAspectRatio="xMidYMid meet">
<metadata>
Created by potrace 1.16, written by Peter Selinger 2001-2019
</metadata>
<g transform="translate(0.000000,287.000000) scale(0.100000,-0.100000)"
fill="#000000" stroke="none">
<path d="M1407 2459 c-21 -66 -43 -121 -50 -123 -7 -2 -55 -12 -107 -24 -82
-17 -98 -18 -115 -6 -45 32 -115 2 -115 -49 0 -17 -17 -34 -69 -68 l-69 -45
-123 62 c-68 35 -127 63 -132 63 -4 1 22 -58 59 -130 65 -131 65 -131 46 -153
-11 -11 -34 -45 -52 -73 -27 -45 -36 -53 -61 -53 -60 0 -88 -63 -49 -112 18
-23 18 -29 5 -76 -7 -28 -16 -73 -20 -99 l-7 -48 -135 -43 c-74 -24 -131 -47
-127 -52 5 -4 66 -26 136 -49 l127 -42 7 -37 c3 -20 12 -61 19 -91 12 -46 12
-57 -1 -75 -7 -11 -14 -27 -14 -36 0 -8 -19 -24 -42 -34 -70 -32 -116 -82
-134 -142 -14 -49 -14 -59 0 -107 9 -30 25 -62 36 -72 30 -27 75 -5 99 50 22
50 57 77 133 100 47 15 60 16 72 5 9 -7 16 -19 16 -28 0 -8 -29 -70 -65 -137
-36 -68 -65 -126 -65 -129 0 -3 58 23 130 59 71 36 134 65 139 65 5 0 39 -19
75 -42 54 -34 66 -46 66 -68 0 -15 8 -34 18 -43 23 -21 85 -22 102 -2 8 9 20
13 29 9 9 -3 54 -14 101 -24 l84 -17 45 -136 c25 -76 48 -137 51 -137 3 0 26
61 50 136 25 75 50 138 55 139 6 2 48 12 94 22 77 18 87 19 111 5 38 -22 89
-1 97 40 4 22 23 40 79 78 l74 50 140 -70 140 -70 -70 140 -70 140 46 70 c27
42 52 70 62 70 50 0 80 58 56 106 -12 22 -11 39 4 118 l18 91 137 45 c75 25
139 48 142 52 4 4 -39 21 -96 39 -57 17 -108 35 -112 39 -4 4 20 19 55 35 71
31 123 67 138 94 13 26 -11 112 -61 217 -33 71 -58 103 -146 195 -96 99 -109
109 -134 104 -27 -6 -28 -5 -20 23 5 16 14 39 20 51 13 23 9 26 -19 11 -15 -8
-23 -3 -46 28 -37 49 -73 79 -147 124 -57 35 -62 36 -89 22 -15 -8 -42 -27
-60 -43 -45 -39 -111 -47 -203 -26 -38 9 -92 15 -119 13 l-49 -3 -36 107 c-20
59 -38 109 -41 112 -3 2 -22 -49 -43 -115z m655 -135 c62 -42 134 -126 123
-144 -2 -4 -41 0 -87 7 -105 18 -209 10 -255 -18 -19 -12 -36 -19 -39 -17 -19
19 143 218 178 218 7 0 43 -21 80 -46z m-355 -30 c38 -9 84 -13 106 -10 20 4
37 2 37 -2 0 -5 -35 -36 -77 -69 -199 -154 -262 -263 -250 -435 3 -43 2 -80
-3 -83 -20 -13 -73 86 -95 177 -15 65 -20 267 -9 351 l7 46 61 19 c77 25 136
26 223 6z m354 -194 c62 -63 109 -143 109 -183 0 -13 9 -32 21 -43 83 -75 57
-154 -72 -218 -87 -44 -113 -47 -79 -11 30 32 21 42 -13 15 -17 -13 -26 -29
-24 -43 2 -21 -2 -22 -60 -21 -71 1 -104 18 -207 103 -72 60 -75 68 -55 160
13 63 40 98 93 121 36 16 38 19 15 19 -40 1 -90 -38 -106 -84 -25 -74 -23 -71
-33 -55 -6 8 -10 38 -10 65 0 64 33 132 79 163 36 23 168 68 177 60 2 -3 -9
-31 -26 -64 -18 -34 -29 -67 -26 -78 3 -11 -2 -28 -10 -37 -25 -28 -21 -117 8
-180 24 -51 74 -116 83 -107 2 2 -3 28 -11 57 -16 52 -13 135 5 146 5 2 16
-16 26 -41 9 -25 34 -63 55 -85 54 -57 84 -52 127 21 19 30 33 67 33 85 -1 27
-5 23 -35 -37 -34 -65 -57 -88 -89 -88 -15 0 -15 3 -1 36 19 46 19 114 0 140
-30 40 -6 45 64 14 56 -26 39 -1 -27 37 -35 21 -62 27 -123 31 -84 5 -91 10
-68 55 17 33 91 107 107 107 8 0 41 -27 73 -60z m114 21 c54 -25 84 -60 106
-123 10 -29 18 -44 18 -33 0 11 -8 45 -19 75 -10 30 -17 57 -14 59 6 6 127
-112 174 -171 37 -46 96 -171 110 -235 10 -41 -10 -60 -110 -106 -41 -19 -101
-55 -133 -81 -67 -52 -154 -85 -187 -70 -20 9 -18 12 29 43 60 38 90 75 128
156 25 54 28 72 29 180 2 97 1 108 -6 60 -10 -79 -28 -125 -40 -105 -6 8 -10
25 -10 38 0 13 -13 36 -28 52 -16 15 -34 47 -41 71 -19 63 -47 114 -87 159
-24 26 -31 40 -22 43 26 11 64 6 103 -12z m-545 -105 c-5 -15 -8 -71 -6 -124
6 -147 54 -270 147 -375 l41 -47 -32 0 c-40 0 -81 21 -152 79 -69 55 -88 96
-88 186 0 73 42 267 66 303 21 32 39 15 24 -22z m359 -48 c28 -10 22 -19 -22
-34 -44 -15 -68 -53 -76 -121 l-7 -58 -17 33 c-24 45 -32 121 -17 166 l12 36
51 -6 c29 -4 63 -11 76 -16z m269 -292 c5 -42 -4 -68 -38 -111 -38 -47 -75
-71 -160 -101 -120 -43 -200 -23 -277 70 -35 43 -86 142 -81 158 2 5 27 -12
55 -40 64 -62 124 -87 195 -79 56 7 165 55 238 106 52 36 64 35 68 -3z m-717
-78 c1 -7 2 -51 3 -97 2 -78 -1 -90 -30 -145 -18 -34 -66 -104 -106 -156 -67
-87 -79 -98 -148 -132 -95 -46 -175 -64 -373 -84 -167 -16 -296 -48 -347 -84
-17 -12 -42 -41 -56 -66 -14 -24 -30 -44 -35 -44 -19 0 -31 75 -19 119 14 52
44 82 119 118 51 24 70 27 226 34 143 5 184 11 260 34 201 60 292 142 399 356
37 73 71 139 77 146 14 16 29 17 30 1z m69 -59 c17 -30 74 -68 136 -91 47 -17
92 -22 221 -27 89 -3 165 -10 169 -14 16 -15 -22 -62 -73 -93 -70 -41 -139
-61 -253 -73 l-95 -9 -38 41 c-61 66 -87 119 -101 206 -7 44 -11 83 -9 85 9 8
33 -6 43 -25z m-262 -505 c8 -27 27 -55 52 -78 51 -46 90 -48 131 -7 38 38 39
83 3 116 -30 27 -12 36 22 11 15 -11 19 -26 19 -69 0 -70 -26 -101 -95 -116
-73 -16 -115 0 -182 71 -32 32 -58 65 -58 71 1 14 82 57 91 48 3 -3 11 -25 17
-47z"/>
</g>
</svg>
