<?xml version="1.0" standalone="no"?>
<!DOCTYPE svg PUBLIC "-//W3C//DTD SVG 20010904//EN"
 "http://www.w3.org/TR/2001/REC-SVG-20010904/DTD/svg10.dtd">
<svg version="1.0" xmlns="http://www.w3.org/2000/svg"
 width="300.000000pt" height="307.000000pt" viewBox="0 0 300.000000 307.000000"
 preserveAspectRatio="xMidYMid meet">
<metadata>
Created by potrace 1.16, written by Peter Selinger 2001-2019
</metadata>
<g transform="translate(0.000000,307.000000) scale(0.100000,-0.100000)"
fill="#000000" stroke="none">
<path d="M2493 3040 c-30 -46 -67 -55 -253 -55 l-175 -1 -172 -50 -172 -50 78
-16 c153 -31 269 -92 390 -203 42 -39 101 -87 132 -108 206 -138 352 -385 404
-681 8 -49 17 -91 19 -93 3 -4 20 178 31 332 7 98 -9 312 -31 420 -29 143
-121 365 -201 486 -29 45 -34 46 -50 19z"/>
<path d="M1215 2879 c-93 -12 -192 -42 -295 -89 -91 -42 -204 -75 -220 -65
-17 10 -11 -18 16 -85 25 -61 26 -70 19 -180 -8 -139 7 -294 40 -428 28 -110
112 -287 176 -372 43 -58 43 -58 13 50 -22 80 -29 235 -15 326 34 209 150 430
292 558 109 98 271 172 429 197 106 16 111 20 60 36 -154 47 -382 70 -515 52z"/>
<path d="M1743 2751 c-193 -52 -332 -130 -458 -256 -49 -50 -99 -106 -109
-125 l-20 -34 30 22 c330 257 651 286 1026 96 27 -14 48 -21 48 -17 0 17 -104
144 -160 196 -67 62 -186 126 -246 133 -21 2 -71 -5 -111 -15z"/>
<path d="M1710 2510 c-60 -7 -140 -32 -180 -55 -23 -13 -17 -14 71 -15 250 -1
485 -134 585 -332 55 -109 69 -288 31 -398 -9 -24 -15 -46 -13 -47 6 -7 88
120 116 179 66 141 76 279 30 400 -27 73 -73 113 -204 178 -152 75 -306 107
-436 90z"/>
<path d="M2320 2468 c0 -3 16 -31 35 -63 154 -257 165 -543 29 -807 -98 -189
-264 -363 -435 -458 l-54 -30 44 0 c100 0 269 66 408 162 86 58 266 227 308
288 26 37 27 44 20 107 -28 269 -107 503 -225 663 -46 61 -130 151 -130 138z"/>
<path d="M1465 2361 c-86 -14 -167 -41 -248 -84 l-79 -40 4 -81 c3 -51 13
-102 26 -137 30 -75 109 -198 116 -179 2 8 10 33 16 55 50 165 178 304 406
441 11 7 17 14 14 17 -10 10 -204 16 -255 8z"/>
<path d="M1795 2281 c-62 -35 -126 -103 -158 -168 -26 -50 -49 -123 -40 -123
3 0 23 16 45 36 51 46 132 84 179 84 46 0 150 -67 188 -121 14 -21 30 -38 35
-39 18 0 -1 144 -25 194 -25 54 -132 166 -158 166 -9 0 -39 -13 -66 -29z"/>
<path d="M1058 2134 c-35 -61 -43 -305 -14 -419 70 -268 263 -480 525 -575 46
-17 85 -29 87 -27 2 2 -19 20 -47 42 -140 106 -266 284 -316 445 -17 56 -38
99 -61 125 -58 69 -130 234 -156 359 -7 33 -15 56 -18 50z"/>
<path d="M1513 2095 c-79 -94 -173 -284 -173 -349 0 -45 134 -138 261 -180 77
-26 239 -46 239 -30 0 5 -31 22 -68 39 -50 22 -86 48 -143 105 -101 100 -113
129 -105 237 4 46 15 115 25 153 10 39 14 70 10 70 -5 0 -25 -20 -46 -45z"/>
<path d="M671 2025 c-28 -88 -56 -257 -76 -445 -17 -166 -35 -236 -71 -279
l-25 -30 43 -27 c121 -77 398 -188 644 -259 86 -25 159 -45 162 -45 2 0 -31
37 -73 83 -125 133 -209 263 -260 402 -11 28 -42 75 -69 107 -101 112 -180
271 -226 453 l-27 110 -22 -70z"/>
<path d="M2100 2017 c0 -56 -30 -169 -53 -198 -20 -25 -147 -71 -212 -76 -44
-4 -76 0 -118 15 l-58 19 33 -34 c90 -93 234 -157 344 -151 l59 3 35 70 c34
67 35 74 34 175 0 85 -4 116 -23 162 -30 77 -41 81 -41 15z"/>
<path d="M2833 1917 c-19 -211 -68 -361 -156 -477 -18 -25 -52 -80 -75 -123
-23 -44 -59 -104 -79 -135 -54 -82 -196 -221 -287 -281 l-79 -51 55 0 c80 0
219 26 322 61 101 34 336 152 409 204 l47 35 -22 30 c-20 28 -23 46 -29 223
-9 213 -26 350 -65 525 -14 64 -27 118 -28 119 -1 1 -7 -57 -13 -130z"/>
<path d="M2339 1742 c-59 -82 -169 -191 -245 -241 -107 -72 -183 -94 -303 -89
-89 3 -104 7 -181 44 -47 23 -114 64 -150 92 -35 28 -66 49 -69 47 -8 -9 69
-153 112 -211 56 -74 172 -185 235 -225 l45 -29 56 30 c178 96 398 318 488
494 28 55 55 127 50 133 -2 1 -19 -18 -38 -45z"/>
<path d="M1134 1336 c57 -141 263 -392 489 -594 95 -85 129 -122 170 -190 51
-83 52 -84 58 -54 8 41 49 124 98 198 45 69 103 129 300 314 124 116 251 260
251 284 0 5 -27 -17 -60 -48 -224 -207 -570 -280 -870 -184 -148 48 -302 146
-401 257 l-50 56 15 -39z"/>
<path d="M1113 856 c-62 -98 -105 -121 -403 -221 -140 -47 -263 -85 -272 -85
-37 0 -36 132 1 196 26 44 11 43 -40 -3 -61 -55 -83 -104 -85 -191 l-2 -72
-48 -37 c-154 -114 -228 -228 -259 -398 -6 -38 -5 -37 44 37 121 180 288 279
646 383 210 61 217 62 260 35 62 -38 195 -37 248 2 15 11 11 13 -27 14 -46 1
-121 37 -131 62 -3 8 -4 16 -3 17 2 1 40 21 85 45 105 55 204 130 242 182 17
23 30 43 28 44 -3 3 -226 54 -237 54 -3 0 -25 -29 -47 -64z"/>
</g>
</svg>
