<?xml version="1.0" standalone="no"?>
<!DOCTYPE svg PUBLIC "-//W3C//DTD SVG 20010904//EN"
 "http://www.w3.org/TR/2001/REC-SVG-20010904/DTD/svg10.dtd">
<svg version="1.0" xmlns="http://www.w3.org/2000/svg"
 width="289.000000pt" height="284.000000pt" viewBox="0 0 289.000000 284.000000"
 preserveAspectRatio="xMidYMid meet">
<metadata>
Created by potrace 1.16, written by Peter Selinger 2001-2019
</metadata>
<g transform="translate(0.000000,284.000000) scale(0.100000,-0.100000)"
fill="#000000" stroke="none">
<path d="M1443 2653 c-19 -4 11 -38 205 -229 125 -124 220 -222 212 -218 -8 4
-31 18 -51 30 -119 74 -323 131 -500 141 -280 15 -508 -55 -732 -223 -210
-158 -341 -361 -413 -642 -23 -89 -25 -110 -21 -262 4 -136 9 -182 30 -263 50
-188 154 -372 287 -506 111 -112 171 -158 258 -197 42 -19 85 -39 96 -45 36
-21 181 -60 276 -74 287 -44 566 20 804 185 239 166 414 445 461 735 41 249
-14 537 -143 750 -13 23 86 -72 232 -220 l255 -260 0 646 1 646 -302 6 c-321
7 -918 7 -955 0z m-103 -523 c122 -14 232 -44 328 -90 80 -38 202 -116 202
-129 0 -3 -208 -3 -462 0 -255 4 -533 7 -618 8 l-155 2 45 39 c115 101 328
172 535 179 22 0 78 -4 125 -9z m-731 -780 c-4 -289 -8 -568 -8 -620 l-1 -95
-35 40 c-49 57 -120 198 -144 286 -82 299 -17 656 162 882 16 21 30 37 31 35
2 -2 -1 -239 -5 -528z m1420 380 c22 -42 52 -116 67 -165 25 -83 28 -104 28
-265 1 -151 -2 -188 -22 -265 -26 -106 -115 -293 -166 -350 l-35 -40 5 525 c2
289 7 568 10 620 l6 95 34 -40 c19 -22 52 -74 73 -115z m-159 -1127 c12 -11
-87 -84 -163 -122 -139 -68 -225 -86 -417 -86 -135 1 -180 4 -250 22 -145 37
-276 99 -380 183 l-25 20 615 -7 c338 -3 617 -8 620 -10z"/>
</g>
</svg>
