<?xml version="1.0" standalone="no"?>
<!DOCTYPE svg PUBLIC "-//W3C//DTD SVG 20010904//EN"
 "http://www.w3.org/TR/2001/REC-SVG-20010904/DTD/svg10.dtd">
<svg version="1.0" xmlns="http://www.w3.org/2000/svg"
 width="300.000000pt" height="300.000000pt" viewBox="0 0 300.000000 300.000000"
 preserveAspectRatio="xMidYMid meet">
<metadata>
Created by potrace 1.16, written by Peter Selinger 2001-2019
</metadata>
<g transform="translate(0.000000,300.000000) scale(0.100000,-0.100000)"
fill="#000000" stroke="none">
<path d="M1997 2816 c54 -56 280 -290 503 -520 l405 -416 7 192 c4 106 8 336
10 510 l3 317 -70 5 c-38 3 -269 8 -513 10 l-443 5 98 -103z"/>
<path d="M1175 2649 c-404 -59 -770 -321 -957 -685 -101 -196 -141 -363 -141
-589 -1 -365 129 -673 393 -929 447 -434 1128 -486 1640 -125 165 116 340 327
424 510 228 501 117 1085 -278 1467 -247 239 -561 364 -901 361 -66 -1 -147
-5 -180 -10z m358 -154 c106 -16 245 -58 329 -101 69 -34 201 -124 258 -174
l45 -40 -799 0 -799 0 19 22 c43 48 186 144 289 194 212 102 425 134 658 99z
m-170 -1925 l802 -1 -54 -50 c-216 -201 -553 -312 -856 -279 -511 54 -914 424
-1010 925 -20 104 -20 307 0 411 39 205 132 396 266 548 l44 50 3 -802 2 -802
803 0z m942 1434 c197 -291 247 -660 134 -996 -44 -133 -133 -286 -222 -383
l-46 -50 -1 800 0 800 40 -45 c22 -25 65 -82 95 -126z m-1153 100 c-146 -43
-242 -103 -350 -219 -77 -83 -151 -213 -174 -310 -6 -27 -16 -54 -20 -59 -4
-6 -8 127 -8 295 0 168 3 309 7 312 3 4 146 7 317 6 l311 0 -83 -25z m967
-291 l0 -318 -19 73 c-67 256 -286 475 -544 542 l-71 19 318 0 317 1 -1 -317z
m-534 254 c114 -38 198 -90 290 -182 142 -142 204 -284 213 -486 4 -95 1 -130
-17 -199 -124 -492 -685 -714 -1108 -439 -75 49 -186 164 -231 241 -149 252
-129 574 52 815 97 129 259 232 420 269 99 22 283 13 381 -19z m-959 -893 c42
-163 151 -321 289 -419 80 -57 133 -83 235 -116 l85 -28 -315 2 -315 2 -3 314
c-1 173 0 312 3 309 3 -3 12 -32 21 -64z m1494 -249 l0 -315 -317 1 c-228 1
-308 4 -283 11 193 54 313 128 431 266 58 67 132 213 151 295 7 31 14 57 15
57 2 0 3 -142 3 -315z"/>
<path d="M1030 1375 l0 -335 335 0 335 0 0 335 0 335 -335 0 -335 0 0 -335z"/>
</g>
</svg>
