<?xml version="1.0" standalone="no"?>
<!DOCTYPE svg PUBLIC "-//W3C//DTD SVG 20010904//EN"
 "http://www.w3.org/TR/2001/REC-SVG-20010904/DTD/svg10.dtd">
<svg version="1.0" xmlns="http://www.w3.org/2000/svg"
 width="292.000000pt" height="287.000000pt" viewBox="0 0 292.000000 287.000000"
 preserveAspectRatio="xMidYMid meet">
<metadata>
Created by potrace 1.16, written by Peter Selinger 2001-2019
</metadata>
<g transform="translate(0.000000,287.000000) scale(0.100000,-0.100000)"
fill="#000000" stroke="none">
<path d="M1402 2575 l-42 -135 -31 0 c-18 0 -72 -9 -121 -21 -82 -19 -91 -20
-107 -5 -42 38 -120 7 -124 -49 -2 -25 -14 -38 -76 -79 l-74 -49 -144 71 c-78
40 -143 70 -143 67 0 -3 32 -68 70 -146 l71 -140 -29 -37 c-16 -20 -41 -59
-57 -85 -21 -37 -31 -46 -46 -42 -20 7 -58 -10 -76 -34 -19 -24 -15 -65 8 -95
21 -26 21 -29 6 -84 -9 -31 -19 -80 -23 -109 l-6 -52 -142 -47 c-77 -25 -144
-49 -148 -53 -4 -4 59 -29 141 -56 l149 -49 7 -45 c3 -25 13 -72 22 -103 14
-51 14 -58 -1 -79 -25 -36 -21 -84 10 -108 15 -12 36 -21 48 -21 16 0 35 -21
75 -82 l53 -83 -71 -142 c-39 -79 -71 -145 -71 -148 0 -3 67 28 148 69 l148
74 32 -24 c17 -13 50 -35 73 -48 34 -20 42 -30 44 -57 5 -59 83 -92 126 -53
16 14 26 14 121 -7 56 -12 108 -23 115 -25 7 -2 34 -71 60 -154 26 -82 50
-150 53 -150 3 0 28 68 56 152 48 144 52 152 80 159 176 39 186 41 197 30 6
-6 28 -11 48 -11 29 0 43 6 58 26 12 15 21 35 21 44 0 11 19 29 48 46 26 15
61 38 79 51 l31 24 151 -75 c83 -42 153 -76 156 -76 3 0 -30 69 -72 154 l-76
153 48 77 c38 60 54 76 72 76 33 0 73 43 73 77 0 16 -7 39 -16 51 -14 21 -15
29 0 85 8 34 19 80 23 101 l8 40 153 50 c83 28 152 53 152 56 0 3 -69 28 -152
56 l-153 50 -7 45 c-5 24 -15 71 -23 104 -15 56 -14 62 3 97 33 63 6 118 -59
123 -19 1 -36 10 -42 21 -5 11 -27 45 -49 77 l-38 57 67 133 c38 72 70 135 72
140 1 4 -61 -24 -138 -63 l-141 -70 -53 38 c-28 22 -67 48 -84 58 -18 10 -33
26 -33 36 0 71 -77 107 -131 62 -13 -12 -31 -10 -115 7 -54 12 -104 23 -111
25 -6 1 -31 61 -54 133 -24 72 -46 131 -49 131 -3 0 -25 -61 -48 -135z m728
-837 l-1 -373 -136 140 c-75 77 -134 133 -131 125 68 -159 83 -231 75 -364 -8
-156 -71 -290 -191 -407 -192 -189 -471 -231 -737 -111 -49 22 -88 51 -147
109 -66 66 -87 95 -125 174 -54 112 -71 183 -70 304 0 164 72 325 197 442 131
122 264 176 436 176 104 0 192 -19 280 -59 l55 -25 -120 121 -120 120 368 0
367 0 0 -372z"/>
<path d="M1190 1804 c-74 -14 -230 -88 -230 -109 0 -3 154 -5 343 -5 311 1
340 2 322 16 -31 24 -113 64 -164 80 -46 15 -224 27 -271 18z"/>
<path d="M893 1598 c-66 -111 -93 -249 -75 -379 12 -85 50 -182 90 -229 l21
-25 1 260 c0 143 3 297 7 343 3 49 2 82 -3 82 -6 0 -24 -24 -41 -52z"/>
<path d="M1686 1613 c-3 -21 -6 -173 -6 -338 1 -333 -2 -325 61 -203 77 152
78 370 2 510 -38 70 -49 76 -57 31z"/>
<path d="M1020 904 c174 -111 467 -108 600 5 l35 30 -345 0 -345 0 55 -35z"/>
</g>
</svg>
