<?xml version="1.0" encoding="UTF-8" standalone="no"?>
<svg
   xmlns:dc="http://purl.org/dc/elements/1.1/"
   xmlns:cc="http://creativecommons.org/ns#"
   xmlns:rdf="http://www.w3.org/1999/02/22-rdf-syntax-ns#"
   xmlns:svg="http://www.w3.org/2000/svg"
   xmlns="http://www.w3.org/2000/svg"
   xmlns:sodipodi="http://sodipodi.sourceforge.net/DTD/sodipodi-0.dtd"
   xmlns:inkscape="http://www.inkscape.org/namespaces/inkscape"
   version="1.0"
   width="367.97845pt"
   height="368.50919pt"
   viewBox="0 0 367.97845 368.50919"
   preserveAspectRatio="xMidYMid meet"
   id="svg4393"
   sodipodi:docname="truebrujah.svg"
   inkscape:version="1.0.1 (3bc2e813f5, 2020-09-07)">
  <defs
     id="defs4397" />
  <sodipodi:namedview
     pagecolor="#ffffff"
     bordercolor="#666666"
     borderopacity="1"
     objecttolerance="10"
     gridtolerance="10"
     guidetolerance="10"
     inkscape:pageopacity="0"
     inkscape:pageshadow="2"
     inkscape:window-width="1600"
     inkscape:window-height="837"
     id="namedview4395"
     showgrid="false"
     fit-margin-top="0"
     fit-margin-left="0"
     fit-margin-right="0"
     fit-margin-bottom="0"
     inkscape:zoom="1.4779412"
     inkscape:cx="245.31676"
     inkscape:cy="245.76467"
     inkscape:window-x="-8"
     inkscape:window-y="-8"
     inkscape:window-maximized="1"
     inkscape:current-layer="svg4393" />
  <metadata
     id="metadata4383">
Created by potrace 1.16, written by Peter Selinger 2001-2019
<rdf:RDF>
  <cc:Work
     rdf:about="">
    <dc:format>image/svg+xml</dc:format>
    <dc:type
       rdf:resource="http://purl.org/dc/dcmitype/StillImage" />
    <dc:title></dc:title>
  </cc:Work>
</rdf:RDF>
</metadata>
  <path
     id="path4966"
     style="fill:#ffffff;stroke-width:0.507463"
     d="m 196.07053,160.35778 c -7.56369,1.35142 -12.99837,8.7599 -12.3606,16.35575 -0.23409,2.61322 0.488,5.6873 -0.34579,8.05102 -7.43043,5.10866 -12.54009,15.24652 -8.28664,23.95311 3.55818,8.41651 14.3833,11.54586 22.36576,7.6969 16.02156,-6.35974 25.40507,-25.67386 19.99224,-42.13922 -1.73728,-7.70155 -8.60829,-13.95092 -16.64839,-14.01921 -1.5637,-0.13878 -3.14783,0.0947 -4.71658,0.10165 z m -17.67695,-9.15812 c -13.77145,1.15123 -24.98236,13.29821 -27.53778,26.4961 -1.06868,9.50656 -0.58683,21.15635 7.96578,27.26422 7.97348,5.54152 21.2579,3.51504 25.11302,-6.04325 2.14393,-4.42278 0.99652,-9.49207 1.48119,-14.15019 5.17257,-5.47579 11.35158,-12.11858 9.62853,-20.3316 -1.20642,-7.84438 -8.8076,-13.64693 -16.65074,-13.23528 z M 183.61985,30.191619 C 144.40594,29.685826 105.55061,45.73409 77.568084,73.100958 51.747317,98.01515 34.041215,131.91588 30.642622,167.80988 c -1.346244,19.15484 -0.962512,38.70103 4.45718,57.2593 7.826045,29.03603 24.842741,55.21714 47.356462,75.03901 22.616196,20.60685 51.815786,33.74109 82.142616,37.47174 13.1757,0.95712 26.46703,1.03479 39.64259,0.0509 36.74865,-4.6794 71.15352,-23.77764 95.46932,-51.60048 19.47828,-21.4458 32.31018,-48.72472 37.01016,-77.26532 1.86467,-15.20571 1.71741,-30.65896 0.23589,-45.89166 -4.49689,-33.6958 -21.05526,-65.43416 -45.52567,-88.9541 C 277.91715,60.236473 261.61312,49.463397 243.82158,42.195292 224.80531,34.187069 204.32204,29.579957 183.61985,30.191619 Z m 6.94689,132.494341 c 2.81774,1.17152 6.2944,1.50388 8.82906,2.77618 3.42787,6.3272 8.58568,12.53264 7.52868,20.23705 -0.46821,10.3922 -8.88469,19.56431 -19.1359,21.10133 -2.91783,1.35897 -5.60925,0.79194 -8.46484,-0.51457 -3.00919,-1.08107 -6.23834,-1.9127 -9.20616,-2.82061 -4.28701,-6.78337 -9.96686,-14.37106 -7.52274,-22.91015 1.50552,-7.82304 6.81247,-15.2895 14.88425,-17.1973 2.67576,-0.72252 5.45225,-1.97949 8.05078,-2.33822 1.67896,0.55543 3.35791,1.11086 5.03687,1.66629 z M 182.70206,0.00353675 C 164.61721,0.14100275 146.32795,1.5469145 129.0664,7.3141676 68.203349,25.686862 19.07473,77.915073 4.0394411,139.63356 0.303686,153.50355 -0.09657999,167.92204 0.03066575,182.1975 c -0.17132024,18.07966 0.20363475,36.46358 5.67098985,53.86934 5.8705294,19.02041 14.7762944,37.09569 25.6982274,53.71175 11.321096,16.29294 25.778671,30.19491 41.066736,42.73165 14.437197,11.06553 30.957041,19.1185 47.710811,26.0258 15.56872,6.11581 32.14893,9.81237 48.92482,9.76824 15.80215,0.2114 31.71008,0.66893 47.42804,-1.2368 35.09305,-6.09272 68.08256,-22.9734 93.92356,-47.43907 25.78689,-24.04462 44.91798,-55.33058 53.42945,-89.62771 2.33572,-7.91245 3.69375,-16.05964 3.616,-24.32355 0.30548,-16.70736 1.01211,-33.47569 -0.22482,-50.15505 C 364.2599,134.75237 356.94893,114.69861 347.11895,96.21086 337.25366,78.324377 324.71254,61.89427 309.58061,48.1332 291.57188,31.029702 269.72346,18.101378 246.47783,9.495666 226.06718,2.3096479 204.249,-0.105931 182.70206,0.00353675 Z M 185.17,38.513214 c 42.38966,0.222977 84.19927,19.989135 111.07417,52.812641 19.66296,23.669115 32.04426,53.731525 33.22923,84.583445 0.39269,13.42886 0.21511,26.99998 -3.15147,40.09493 -6.08988,27.35793 -19.98558,53.12607 -40.51548,72.3426 -27.34955,28.13827 -67.0814,43.12216 -106.14014,41.71414 -31.04116,-0.7555 -61.79638,-11.9592 -86.05056,-31.34334 C 79.589817,286.92776 66.512986,273.45397 58.023752,257.04744 49.87295,242.80099 43.351274,227.47165 40.653095,211.20152 32.333733,167.98271 45.186011,121.33579 74.423203,88.44774 101.95511,56.94396 143.22535,37.93671 185.17,38.513214 Z" />
  <g
     transform="matrix(0.1,0,0,-0.1,13.98757,354.3235)"
     fill="#000000"
     stroke="none"
     id="g4391">
    <path
       d="m 1485,3388 c -128,-9 -302,-53 -444,-113 C 525,3057 142,2593 29,2050 11,1959 8,1912 7,1700 7,1428 19,1343 79,1159 121,1032 226,825 307,710 392,589 587,395 710,307 825,225 1051,112 1180,71 1365,13 1431,5 1705,5 c 224,0 261,3 353,23 331,74 607,226 847,466 243,243 395,521 467,850 20,90 22,129 22,356 0,208 -3,271 -18,340 -96,450 -367,846 -746,1092 -337,219 -653,290 -1145,256 z m 360,-88 c 427,-41 817,-246 1089,-572 469,-563 499,-1359 74,-1963 C 2926,648 2750,473 2630,388 2063,-14 1300,-4 740,411 626,496 480,645 397,760 c -76,108 -184,317 -222,433 -226,685 31,1435 630,1838 306,207 680,304 1040,269 z"
       id="path4385" />
    <path
       d="M 1495,3259 C 1054,3200 648,2948 396,2577 335,2486 239,2289 205,2186 c -56,-175 -69,-265 -69,-486 0,-175 3,-220 23,-310 C 293,765 762,292 1378,159 c 152,-32 421,-37 578,-11 649,111 1140,582 1286,1234 20,91 23,129 23,318 -1,184 -4,230 -23,317 -135,622 -607,1092 -1227,1223 -115,24 -404,35 -520,19 z m 457,-185 c 192,-36 394,-121 552,-231 44,-31 128,-104 186,-162 200,-201 320,-423 382,-709 28,-130 31,-395 5,-525 -58,-289 -184,-525 -391,-733 -208,-207 -443,-333 -733,-391 -130,-26 -395,-23 -525,5 -290,63 -509,182 -713,387 -210,210 -340,458 -392,748 -22,125 -22,352 1,477 100,554 532,1005 1076,1124 174,38 384,42 552,10 z"
       id="path4387" />
    <path
       d="m 1631,2840 c -39,-105 -71,-193 -71,-196 0,-4 11,1 25,10 14,9 36,23 50,32 l 25,16 v -315 -315 l -68,-21 c -116,-35 -189,-104 -232,-218 -47,-125 -34,-235 41,-347 21,-32 39,-60 39,-62 0,-2 -68,-108 -151,-236 -83,-127 -153,-238 -156,-245 -9,-23 -20,-14 -37,32 -10,25 -21,47 -25,50 -10,5 -97,-383 -88,-391 8,-8 327,227 321,237 -2,4 -25,7 -52,6 -26,0 -47,3 -46,7 0,5 70,116 155,247 110,171 158,238 169,235 8,-3 39,-13 68,-23 l 52,-17 V 1012 699 l -44,30 c -24,17 -46,28 -48,25 -6,-5 134,-384 142,-384 7,0 150,383 145,388 -2,2 -24,-10 -48,-27 -24,-16 -46,-29 -48,-26 -2,2 -3,143 -1,313 l 3,310 37,7 c 110,20 222,115 262,223 49,127 35,249 -40,356 -30,43 -39,64 -33,76 15,32 308,480 313,480 3,0 14,-22 25,-50 11,-27 22,-50 25,-50 6,0 93,400 88,405 -2,2 -77,-51 -168,-118 l -165,-122 58,-3 c 31,-2 57,-5 57,-7 0,-6 -301,-469 -314,-482 -8,-9 -26,-7 -76,10 l -65,23 -3,312 c -1,172 0,312 3,312 3,0 23,-12 45,-26 22,-15 43,-24 46,-21 7,7 -128,377 -137,377 -4,0 -39,-86 -78,-190 z m 37,-968 c 2,-7 -17,-32 -42,-55 -54,-50 -70,-87 -61,-145 7,-45 0,-82 -15,-82 -18,0 -40,60 -40,107 1,80 37,142 105,177 33,17 46,17 53,-2 z m 117,8 c 7,-12 -12,-40 -26,-40 -5,0 -9,11 -9,25 0,25 23,35 35,15 z m 114,-143 c 19,-82 -27,-175 -106,-216 -62,-32 -75,15 -15,53 55,35 76,83 68,158 -8,69 7,103 30,69 7,-10 18,-39 23,-64 z m -239,-202 c 0,-15 -6,-25 -14,-25 -19,0 -28,14 -20,34 10,25 34,19 34,-9 z"
       id="path4389" />
  </g>
</svg>
