<?xml version="1.0" standalone="no"?>
<!DOCTYPE svg PUBLIC "-//W3C//DTD SVG 20010904//EN"
 "http://www.w3.org/TR/2001/REC-SVG-20010904/DTD/svg10.dtd">
<svg version="1.0" xmlns="http://www.w3.org/2000/svg"
 width="559.000000pt" height="558.000000pt" viewBox="0 0 559.000000 558.000000"
 preserveAspectRatio="xMidYMid meet">
<metadata>
Created by potrace 1.16, written by Peter Selinger 2001-2019
</metadata>
<g transform="translate(0.000000,558.000000) scale(0.100000,-0.100000)"
fill="#000000" stroke="none">
<path d="M2410 5385 c0 -12 -17 -15 -90 -15 -53 0 -90 -4 -90 -10 0 -5 -25
-10 -55 -10 -48 0 -55 -2 -55 -20 0 -17 -7 -20 -45 -20 -25 0 -45 -4 -45 -10
0 -5 -20 -10 -45 -10 -33 0 -45 -4 -45 -15 0 -11 -12 -15 -45 -15 -38 0 -45
-3 -45 -20 0 -17 -7 -20 -45 -20 -25 0 -45 -4 -45 -10 0 -5 -13 -10 -30 -10
-20 0 -30 -5 -30 -15 0 -10 -10 -15 -30 -15 -20 0 -30 -5 -30 -15 0 -10 -10
-15 -30 -15 -20 0 -30 -5 -30 -15 0 -10 -10 -15 -30 -15 -20 0 -30 -5 -30 -15
0 -10 -10 -15 -30 -15 -20 0 -30 -5 -30 -15 0 -8 -7 -15 -15 -15 -8 0 -15 -7
-15 -15 0 -10 -10 -15 -30 -15 -20 0 -30 -5 -30 -15 0 -8 -7 -15 -15 -15 -8 0
-15 -7 -15 -15 0 -10 -10 -15 -30 -15 -20 0 -30 -5 -30 -15 0 -8 -7 -15 -15
-15 -8 0 -15 -7 -15 -15 0 -8 -4 -15 -10 -15 -5 0 -10 -7 -10 -15 0 -10 -10
-15 -30 -15 -20 0 -30 -5 -30 -15 0 -8 -7 -15 -15 -15 -8 0 -15 -7 -15 -15 0
-8 -9 -15 -20 -15 -11 0 -20 -7 -20 -15 0 -8 -4 -15 -10 -15 -5 0 -10 -7 -10
-15 0 -8 -7 -15 -15 -15 -8 0 -15 -7 -15 -15 0 -10 -10 -15 -30 -15 -20 0 -30
-5 -30 -15 0 -8 -7 -15 -15 -15 -8 0 -15 -7 -15 -15 0 -8 -7 -15 -15 -15 -8 0
-15 -7 -15 -15 0 -8 -7 -15 -15 -15 -10 0 -15 -10 -15 -30 0 -20 -5 -30 -15
-30 -8 0 -15 -7 -15 -15 0 -8 -7 -15 -15 -15 -8 0 -15 -7 -15 -15 0 -8 -7 -15
-15 -15 -8 0 -15 -7 -15 -15 0 -8 -7 -15 -15 -15 -8 0 -15 -7 -15 -15 0 -8 -7
-15 -15 -15 -8 0 -15 -7 -15 -15 0 -8 -7 -15 -15 -15 -9 0 -15 -9 -15 -25 0
-16 -6 -25 -15 -25 -8 0 -15 -9 -15 -20 0 -11 -7 -20 -15 -20 -9 0 -15 -9 -15
-25 0 -16 -6 -25 -15 -25 -8 0 -15 -9 -15 -20 0 -11 -7 -20 -15 -20 -9 0 -15
-9 -15 -25 0 -16 -6 -25 -15 -25 -8 0 -15 -7 -15 -15 0 -8 -7 -15 -15 -15 -10
0 -15 -10 -15 -30 0 -20 -5 -30 -15 -30 -10 0 -15 -10 -15 -30 0 -20 -5 -30
-15 -30 -10 0 -15 -10 -15 -30 0 -20 -5 -30 -15 -30 -10 0 -15 -10 -15 -30 0
-20 -5 -30 -15 -30 -10 0 -15 -10 -15 -30 0 -16 -4 -30 -10 -30 -5 0 -10 -13
-10 -30 0 -23 -4 -30 -20 -30 -17 0 -20 -7 -20 -45 0 -33 -4 -45 -15 -45 -11
0 -15 -12 -15 -45 0 -25 -4 -45 -10 -45 -5 0 -10 -20 -10 -45 0 -38 -3 -45
-20 -45 -18 0 -20 -7 -20 -60 0 -33 -4 -60 -10 -60 -5 0 -10 -25 -10 -55 0
-42 -3 -55 -15 -55 -12 0 -15 -20 -15 -120 0 -113 -1 -120 -20 -120 -20 0 -20
-7 -20 -270 0 -263 0 -270 20 -270 19 0 20 -7 20 -100 0 -82 3 -100 15 -100
12 0 15 -15 15 -75 0 -43 4 -75 10 -75 6 0 10 -20 10 -45 0 -38 3 -45 20 -45
18 0 20 -7 20 -60 0 -33 4 -60 10 -60 6 0 10 -13 10 -30 0 -20 5 -30 15 -30
11 0 15 -12 15 -45 0 -38 3 -45 20 -45 16 0 20 -7 20 -30 0 -16 5 -30 10 -30
6 0 10 -20 10 -45 0 -33 4 -45 15 -45 10 0 15 -10 15 -30 0 -20 5 -30 15 -30
10 0 15 -10 15 -30 0 -20 5 -30 15 -30 8 0 15 -7 15 -15 0 -8 7 -15 15 -15 10
0 15 -10 15 -30 0 -20 5 -30 15 -30 10 0 15 -10 15 -30 0 -20 5 -30 15 -30 8
0 15 -7 15 -15 0 -8 7 -15 15 -15 10 0 15 -10 15 -30 0 -20 5 -30 15 -30 8 0
15 -4 15 -10 0 -5 7 -10 15 -10 10 0 15 -11 15 -35 0 -24 5 -35 15 -35 8 0 15
-4 15 -10 0 -5 7 -10 15 -10 8 0 15 -7 15 -15 0 -8 7 -15 15 -15 8 0 15 -7 15
-15 0 -8 7 -15 15 -15 10 0 15 -10 15 -30 0 -20 5 -30 15 -30 8 0 15 -7 15
-15 0 -8 7 -15 15 -15 8 0 15 -7 15 -15 0 -8 7 -15 15 -15 8 0 15 -7 15 -15 0
-8 7 -15 15 -15 8 0 15 -7 15 -15 0 -8 7 -15 15 -15 8 0 15 -7 15 -15 0 -8 7
-15 15 -15 8 0 15 -7 15 -15 0 -8 7 -15 15 -15 8 0 15 -7 15 -15 0 -8 7 -15
15 -15 8 0 15 -7 15 -15 0 -8 7 -15 15 -15 8 0 15 -7 15 -15 0 -10 10 -15 30
-15 20 0 30 -5 30 -15 0 -8 7 -15 15 -15 8 0 15 -7 15 -15 0 -8 5 -15 10 -15
6 0 10 -7 10 -15 0 -8 9 -15 20 -15 11 0 20 -7 20 -15 0 -9 9 -15 25 -15 16 0
25 -6 25 -15 0 -8 9 -15 20 -15 11 0 20 -7 20 -15 0 -9 9 -15 25 -15 16 0 25
-6 25 -15 0 -8 7 -15 15 -15 8 0 15 -7 15 -15 0 -10 10 -15 30 -15 20 0 30 -5
30 -15 0 -10 10 -15 30 -15 20 0 30 -5 30 -15 0 -8 7 -15 15 -15 8 0 15 -7 15
-15 0 -10 10 -15 30 -15 20 0 30 -5 30 -15 0 -10 10 -15 30 -15 20 0 30 -5 30
-15 0 -11 12 -15 45 -15 33 0 45 -4 45 -15 0 -10 10 -15 30 -15 17 0 30 -4 30
-10 0 -5 20 -10 45 -10 38 0 45 -3 45 -20 0 -17 7 -20 45 -20 33 0 45 -4 45
-15 0 -11 12 -15 45 -15 25 0 45 -4 45 -10 0 -6 27 -10 60 -10 53 0 60 -2 60
-20 0 -18 7 -20 70 -20 40 0 70 -4 70 -10 0 -6 47 -10 120 -10 100 0 120 -2
120 -15 0 -13 32 -15 225 -15 193 0 225 2 225 15 0 13 20 15 120 15 73 0 120
4 120 10 0 6 30 10 70 10 63 0 70 2 70 20 0 18 7 20 60 20 33 0 60 4 60 10 0
6 20 10 45 10 33 0 45 4 45 15 0 11 12 15 45 15 38 0 45 3 45 20 0 16 7 20 30
20 17 0 30 5 30 10 0 6 20 10 45 10 33 0 45 4 45 15 0 10 10 15 30 15 20 0 30
5 30 15 0 10 10 15 30 15 20 0 30 5 30 15 0 10 10 15 30 15 20 0 30 5 30 15 0
10 10 15 30 15 20 0 30 5 30 15 0 10 10 15 30 15 20 0 30 5 30 15 0 8 7 15 15
15 8 0 15 7 15 15 0 10 10 15 30 15 20 0 30 5 30 15 0 8 5 15 10 15 6 0 10 7
10 15 0 10 11 15 35 15 24 0 35 5 35 15 0 8 5 15 10 15 6 0 10 7 10 15 0 8 7
15 15 15 8 0 15 7 15 15 0 10 10 15 30 15 20 0 30 5 30 15 0 8 7 15 15 15 8 0
15 7 15 15 0 8 7 15 15 15 8 0 15 7 15 15 0 8 7 15 15 15 8 0 15 7 15 15 0 8
7 15 15 15 8 0 15 7 15 15 0 8 7 15 15 15 8 0 15 7 15 15 0 8 7 15 15 15 8 0
15 7 15 15 0 8 7 15 15 15 8 0 15 7 15 15 0 8 7 15 15 15 8 0 15 7 15 15 0 8
7 15 15 15 8 0 15 7 15 15 0 8 7 15 15 15 8 0 15 7 15 15 0 8 7 15 15 15 8 0
15 7 15 15 0 8 7 15 15 15 8 0 15 7 15 15 0 8 7 15 15 15 8 0 15 7 15 15 0 8
7 15 15 15 9 0 15 9 15 25 0 16 6 25 15 25 8 0 15 9 15 20 0 11 7 20 15 20 9
0 15 9 15 25 0 16 6 25 15 25 8 0 15 9 15 20 0 11 7 20 15 20 8 0 15 5 15 10
0 6 7 10 15 10 10 0 15 10 15 30 0 20 5 30 15 30 10 0 15 10 15 30 0 20 5 30
15 30 10 0 15 10 15 30 0 20 5 30 15 30 8 0 15 7 15 15 0 8 7 15 15 15 10 0
15 10 15 30 0 20 5 30 15 30 10 0 15 10 15 30 0 17 5 30 10 30 6 0 10 20 10
45 0 38 3 45 20 45 16 0 20 7 20 30 0 20 5 30 15 30 11 0 15 12 15 45 0 25 5
45 10 45 6 0 10 20 10 45 0 38 3 45 20 45 17 0 20 7 20 45 0 25 5 45 10 45 6
0 10 32 10 75 0 60 3 75 15 75 12 0 15 15 15 75 0 60 3 75 15 75 13 0 15 49
15 385 0 336 -2 385 -15 385 -12 0 -15 16 -15 85 0 69 -3 85 -15 85 -12 0 -15
13 -15 60 0 33 -4 60 -10 60 -6 0 -10 27 -10 60 0 53 -2 60 -20 60 -17 0 -20
7 -20 45 0 25 -4 45 -10 45 -5 0 -10 14 -10 30 0 20 -5 30 -15 30 -11 0 -15
12 -15 45 0 38 -3 45 -20 45 -16 0 -20 7 -20 30 0 17 -4 30 -10 30 -5 0 -10
14 -10 30 0 20 -5 30 -15 30 -10 0 -15 10 -15 30 0 20 -5 30 -15 30 -10 0 -15
10 -15 30 0 20 -5 30 -15 30 -10 0 -15 10 -15 30 0 20 -5 30 -15 30 -10 0 -15
10 -15 30 0 20 -5 30 -15 30 -8 0 -15 7 -15 15 0 8 -7 15 -15 15 -10 0 -15 10
-15 30 0 20 -5 30 -15 30 -8 0 -15 7 -15 15 0 8 -7 15 -15 15 -10 0 -15 10
-15 30 0 20 -5 30 -15 30 -8 0 -15 5 -15 10 0 6 -7 10 -15 10 -8 0 -15 7 -15
15 0 8 -7 15 -15 15 -8 0 -15 7 -15 15 0 8 -7 15 -15 15 -10 0 -15 10 -15 30
0 20 -5 30 -15 30 -8 0 -15 7 -15 15 0 8 -7 15 -15 15 -8 0 -15 7 -15 15 0 8
-7 15 -15 15 -8 0 -15 7 -15 15 0 8 -7 15 -15 15 -8 0 -15 7 -15 15 0 8 -7 15
-15 15 -8 0 -15 7 -15 15 0 8 -7 15 -15 15 -8 0 -15 7 -15 15 0 8 -7 15 -15
15 -8 0 -15 7 -15 15 0 8 -7 15 -15 15 -8 0 -15 7 -15 15 0 8 -7 15 -15 15 -8
0 -15 7 -15 15 0 8 -7 15 -15 15 -8 0 -15 7 -15 15 0 10 -10 15 -30 15 -20 0
-30 5 -30 15 0 8 -7 15 -15 15 -8 0 -15 7 -15 15 0 8 -7 15 -15 15 -8 0 -15 7
-15 15 0 8 -7 15 -15 15 -8 0 -15 7 -15 15 0 10 -10 15 -30 15 -20 0 -30 5
-30 15 0 8 -7 15 -15 15 -8 0 -15 7 -15 15 0 10 -10 15 -30 15 -20 0 -30 5
-30 15 0 8 -4 15 -10 15 -5 0 -10 7 -10 15 0 10 -10 15 -30 15 -20 0 -30 5
-30 15 0 10 -10 15 -30 15 -20 0 -30 5 -30 15 0 10 -10 15 -30 15 -20 0 -30 5
-30 15 0 10 -10 15 -30 15 -20 0 -30 5 -30 15 0 10 -10 15 -30 15 -20 0 -30 5
-30 15 0 10 -10 15 -30 15 -16 0 -30 5 -30 10 0 6 -13 10 -30 10 -23 0 -30 4
-30 20 0 17 -7 20 -45 20 -33 0 -45 4 -45 15 0 11 -12 15 -45 15 -25 0 -45 5
-45 10 0 6 -20 10 -45 10 -38 0 -45 3 -45 20 0 18 -7 20 -70 20 -40 0 -70 4
-70 10 0 6 -32 10 -75 10 -60 0 -75 3 -75 15 0 13 -52 15 -405 15 -353 0 -405
-2 -405 -15z m720 -145 c0 -18 7 -20 85 -20 50 0 85 -4 85 -10 0 -6 27 -10 60
-10 47 0 60 -3 60 -15 0 -12 13 -15 60 -15 47 0 60 -3 60 -15 0 -11 12 -15 45
-15 33 0 45 -4 45 -15 0 -10 10 -15 30 -15 20 0 30 -5 30 -15 0 -11 12 -15 45
-15 33 0 45 -4 45 -15 0 -10 10 -15 30 -15 20 0 30 -5 30 -15 0 -10 10 -15 30
-15 20 0 30 -5 30 -15 0 -10 10 -15 30 -15 20 0 30 -5 30 -15 0 -10 10 -15 30
-15 20 0 30 -5 30 -15 0 -8 7 -15 15 -15 8 0 15 -7 15 -15 0 -8 -7 -15 -15
-15 -8 0 -15 7 -15 15 0 10 -10 15 -30 15 -20 0 -30 5 -30 15 0 10 -10 15 -30
15 -20 0 -30 5 -30 15 0 10 -10 15 -30 15 -20 0 -30 5 -30 15 0 10 -10 15 -30
15 -20 0 -30 5 -30 15 0 11 -12 15 -45 15 -33 0 -45 4 -45 15 0 10 -10 15 -30
15 -20 0 -30 5 -30 15 0 11 -12 15 -45 15 -33 0 -45 4 -45 15 0 12 -13 15 -60
15 -47 0 -60 3 -60 15 0 12 -13 15 -60 15 -47 0 -60 3 -60 15 0 12 -16 15 -85
15 -50 0 -85 4 -85 10 0 6 -112 10 -315 10 -203 0 -315 -4 -315 -10 0 -6 -37
-10 -90 -10 -73 0 -90 -3 -90 -15 0 -12 -15 -15 -75 -15 -60 0 -75 -3 -75 -15
0 -11 -11 -15 -40 -15 -29 0 -40 -4 -40 -15 0 -11 -12 -15 -45 -15 -33 0 -45
-4 -45 -15 0 -11 -12 -15 -45 -15 -33 0 -45 -4 -45 -15 0 -10 -10 -15 -30 -15
-20 0 -30 -5 -30 -15 0 -10 -10 -15 -30 -15 -20 0 -30 5 -30 15 0 10 10 15 30
15 20 0 30 5 30 15 0 10 10 15 30 15 20 0 30 5 30 15 0 11 12 15 45 15 33 0
45 4 45 15 0 11 12 15 45 15 33 0 45 4 45 15 0 11 11 15 40 15 29 0 40 4 40
15 0 12 15 15 75 15 43 0 75 4 75 10 0 6 37 10 90 10 83 0 90 1 90 20 0 20 7
20 315 20 308 0 315 0 315 -20z m-1370 -235 c0 -8 -7 -15 -15 -15 -8 0 -15 7
-15 15 0 8 7 15 15 15 8 0 15 -7 15 -15z m-60 -30 c0 -8 -7 -15 -15 -15 -8 0
-15 7 -15 15 0 8 7 15 15 15 8 0 15 -7 15 -15z m-60 -30 c0 -8 -7 -15 -15 -15
-8 0 -15 -7 -15 -15 0 -10 -10 -15 -30 -15 -20 0 -30 -5 -30 -15 0 -10 -10
-15 -30 -15 -20 0 -30 -5 -30 -15 0 -8 -7 -15 -15 -15 -8 0 -15 -7 -15 -15 0
-10 -10 -15 -30 -15 -20 0 -30 -5 -30 -15 0 -8 -7 -15 -15 -15 -8 0 -15 -7
-15 -15 0 -8 -7 -15 -15 -15 -8 0 -15 -7 -15 -15 0 -10 -10 -15 -30 -15 -20 0
-30 -5 -30 -15 0 -8 -7 -15 -15 -15 -8 0 -15 -7 -15 -15 0 -8 -4 -15 -10 -15
-5 0 -10 -7 -10 -15 0 -8 -9 -15 -20 -15 -11 0 -20 -7 -20 -15 0 -8 -4 -15
-10 -15 -5 0 -10 -7 -10 -15 0 -8 -7 -15 -15 -15 -8 0 -15 -7 -15 -15 0 -10
-10 -15 -30 -15 -27 0 -30 -3 -30 -30 0 -20 -5 -30 -15 -30 -8 0 -15 -7 -15
-15 0 -8 -7 -15 -15 -15 -8 0 -15 -7 -15 -15 0 -8 -7 -15 -15 -15 -8 0 -15 -7
-15 -15 0 -8 -7 -15 -15 -15 -8 0 -15 -4 -15 -10 0 -5 -7 -10 -15 -10 -8 0
-15 -9 -15 -20 0 -11 -7 -20 -15 -20 -8 0 -15 -4 -15 -10 0 -5 -7 -10 -15 -10
-10 0 -15 -11 -15 -35 0 -24 -5 -35 -15 -35 -8 0 -15 -4 -15 -10 0 -5 -7 -10
-15 -10 -10 0 -15 -10 -15 -30 0 -20 -5 -30 -15 -30 -8 0 -15 -7 -15 -15 0 -8
-7 -15 -15 -15 -10 0 -15 -10 -15 -30 0 -20 -5 -30 -15 -30 -8 0 -15 -7 -15
-15 0 -8 -7 -15 -15 -15 -10 0 -15 -10 -15 -30 0 -20 -5 -30 -15 -30 -10 0
-15 -10 -15 -30 0 -20 -5 -30 -15 -30 -10 0 -15 -10 -15 -30 0 -20 -5 -30 -15
-30 -10 0 -15 -10 -15 -30 0 -20 -5 -30 -15 -30 -10 0 -15 -10 -15 -30 0 -20
-5 -30 -15 -30 -10 0 -15 10 -15 30 0 20 5 30 15 30 10 0 15 10 15 30 0 20 5
30 15 30 10 0 15 10 15 30 0 20 5 30 15 30 10 0 15 10 15 30 0 20 5 30 15 30
10 0 15 10 15 30 0 20 5 30 15 30 8 0 15 7 15 15 0 8 7 15 15 15 10 0 15 10
15 30 0 20 5 30 15 30 8 0 15 7 15 15 0 8 7 15 15 15 10 0 15 10 15 30 0 20 5
30 15 30 8 0 15 5 15 10 0 6 7 10 15 10 10 0 15 11 15 35 0 24 5 35 15 35 8 0
15 5 15 10 0 6 7 10 15 10 8 0 15 9 15 20 0 11 7 20 15 20 8 0 15 5 15 10 0 6
7 10 15 10 8 0 15 7 15 15 0 8 7 15 15 15 8 0 15 7 15 15 0 8 7 15 15 15 10 0
15 10 15 30 0 20 5 30 15 30 8 0 15 7 15 15 0 8 7 15 15 15 8 0 15 7 15 15 0
10 10 15 30 15 20 0 30 5 30 15 0 8 7 15 15 15 8 0 15 7 15 15 0 8 5 15 10 15
6 0 10 7 10 15 0 8 9 15 20 15 11 0 20 7 20 15 0 8 5 15 10 15 6 0 10 7 10 15
0 8 7 15 15 15 8 0 15 7 15 15 0 10 10 15 30 15 20 0 30 5 30 15 0 8 7 15 15
15 8 0 15 7 15 15 0 8 7 15 15 15 8 0 15 7 15 15 0 10 10 15 30 15 20 0 30 5
30 15 0 8 7 15 15 15 8 0 15 7 15 15 0 10 10 15 30 15 20 0 30 5 30 15 0 10
10 15 30 15 20 0 30 5 30 15 0 8 7 15 15 15 8 0 15 -7 15 -15z m1490 -30 c0
-12 15 -15 75 -15 60 0 75 -3 75 -15 0 -12 13 -15 55 -15 42 0 55 -3 55 -15 0
-11 12 -15 45 -15 33 0 45 -4 45 -15 0 -11 12 -15 45 -15 33 0 45 -4 45 -15 0
-10 10 -15 30 -15 20 0 30 -5 30 -15 0 -11 12 -15 45 -15 33 0 45 -4 45 -15 0
-10 10 -15 30 -15 20 0 30 -5 30 -15 0 -8 7 -15 15 -15 8 0 15 -7 15 -15 0
-10 10 -15 30 -15 20 0 30 -5 30 -15 0 -10 10 -15 30 -15 20 0 30 -5 30 -15 0
-8 7 -15 15 -15 8 0 15 -7 15 -15 0 -10 10 -15 30 -15 20 0 30 -5 30 -15 0 -8
7 -15 15 -15 8 0 15 -7 15 -15 0 -10 10 -15 30 -15 20 0 30 -5 30 -15 0 -8 7
-15 15 -15 8 0 15 -7 15 -15 0 -8 7 -15 15 -15 8 0 15 -7 15 -15 0 -8 7 -15
15 -15 8 0 15 -5 15 -11 0 -19 28 -39 54 -39 19 0 26 -5 26 -20 0 -11 7 -20
15 -20 8 0 15 -4 15 -10 0 -5 9 -10 20 -10 11 0 20 -7 20 -15 0 -8 5 -15 10
-15 6 0 10 -13 10 -30 0 -20 5 -30 15 -30 8 0 15 -7 15 -15 0 -8 7 -15 15 -15
8 0 15 -7 15 -15 0 -8 7 -15 15 -15 8 0 15 -7 15 -15 0 -8 7 -15 15 -15 8 0
15 -7 15 -15 0 -8 7 -15 15 -15 10 0 15 -10 15 -30 0 -20 5 -30 15 -30 8 0 15
-7 15 -15 0 -8 7 -15 15 -15 10 0 15 -10 15 -30 0 -20 5 -30 15 -30 8 0 15 -7
15 -15 0 -8 7 -15 15 -15 10 0 15 -10 15 -30 0 -20 5 -30 15 -30 10 0 15 -10
15 -30 0 -20 5 -30 15 -30 10 0 15 -10 15 -30 0 -20 5 -30 15 -30 10 0 15 -10
15 -30 0 -20 5 -30 15 -30 10 0 15 -10 15 -30 0 -20 5 -30 15 -30 10 0 15 -10
15 -30 0 -20 5 -30 15 -30 11 0 15 -12 15 -45 0 -33 4 -45 15 -45 11 0 15 -11
15 -40 0 -29 4 -40 15 -40 12 0 15 -14 15 -65 0 -51 3 -65 15 -65 12 0 15 -16
15 -85 0 -69 3 -85 15 -85 13 0 15 -40 15 -300 0 -260 -2 -300 -15 -300 -12 0
-15 -15 -15 -75 0 -60 -3 -75 -15 -75 -12 0 -15 -13 -15 -55 0 -42 -3 -55 -15
-55 -11 0 -15 -12 -15 -45 0 -33 -4 -45 -15 -45 -11 0 -15 -12 -15 -45 0 -33
-4 -45 -15 -45 -10 0 -15 -10 -15 -30 0 -20 -5 -30 -15 -30 -11 0 -15 -12 -15
-45 0 -33 -4 -45 -15 -45 -10 0 -15 -10 -15 -30 0 -20 -5 -30 -15 -30 -10 0
-15 -10 -15 -30 0 -20 -5 -30 -15 -30 -8 0 -15 -7 -15 -15 0 -8 -7 -15 -15
-15 -10 0 -15 -10 -15 -30 0 -20 -5 -30 -15 -30 -10 0 -15 -10 -15 -30 0 -20
-5 -30 -15 -30 -8 0 -15 -7 -15 -15 0 -8 -7 -15 -15 -15 -10 0 -15 -10 -15
-30 0 -20 -5 -30 -15 -30 -8 0 -15 -7 -15 -15 0 -8 -7 -15 -15 -15 -8 0 -15
-7 -15 -15 0 -8 -7 -15 -15 -15 -8 0 -15 -7 -15 -15 0 -8 -7 -15 -15 -15 -10
0 -15 -10 -15 -30 0 -20 -5 -30 -15 -30 -8 0 -15 -7 -15 -15 0 -8 -5 -15 -11
-15 -16 0 -39 -26 -39 -44 0 -9 -8 -16 -20 -16 -11 0 -20 -4 -20 -10 0 -5 -7
-10 -15 -10 -8 0 -15 -7 -15 -15 0 -8 -4 -15 -10 -15 -5 0 -10 -9 -10 -20 0
-12 -7 -20 -16 -20 -18 0 -44 -23 -44 -39 0 -6 -13 -11 -30 -11 -20 0 -30 -5
-30 -15 0 -8 -7 -15 -15 -15 -8 0 -15 -7 -15 -15 0 -8 -7 -15 -15 -15 -8 0
-15 -7 -15 -15 0 -10 -10 -15 -30 -15 -20 0 -30 -5 -30 -15 0 -8 -7 -15 -15
-15 -8 0 -15 -7 -15 -15 0 -10 -10 -15 -30 -15 -20 0 -30 -5 -30 -15 0 -8 -7
-15 -15 -15 -8 0 -15 -7 -15 -15 0 -10 -10 -15 -30 -15 -20 0 -30 -5 -30 -15
0 -10 -10 -15 -30 -15 -20 0 -30 -5 -30 -15 0 -10 -10 -15 -30 -15 -20 0 -30
-5 -30 -15 0 -10 -10 -15 -30 -15 -20 0 -30 -5 -30 -15 0 -10 -10 -15 -30 -15
-20 0 -30 -5 -30 -15 0 -11 -12 -15 -45 -15 -33 0 -45 -4 -45 -15 0 -11 -12
-15 -45 -15 -33 0 -45 -4 -45 -15 0 -12 -13 -15 -60 -15 -47 0 -60 -3 -60 -15
0 -12 -13 -15 -55 -15 -42 0 -55 -3 -55 -15 0 -13 -22 -15 -135 -15 -113 0
-135 -2 -135 -15 0 -12 -20 -15 -120 -15 -100 0 -120 3 -120 15 0 13 -20 15
-120 15 -100 0 -120 3 -120 15 0 12 -14 15 -70 15 -56 0 -70 3 -70 15 0 11
-12 15 -45 15 -33 0 -45 4 -45 15 0 11 -12 15 -45 15 -33 0 -45 4 -45 15 0 11
-12 15 -45 15 -33 0 -45 4 -45 15 0 10 -10 15 -30 15 -20 0 -30 5 -30 15 0 11
-12 15 -45 15 -33 0 -45 4 -45 15 0 10 -10 15 -30 15 -20 0 -30 5 -30 15 0 10
-10 15 -30 15 -20 0 -30 5 -30 15 0 8 -7 15 -15 15 -8 0 -15 7 -15 15 0 10
-10 15 -30 15 -20 0 -30 5 -30 15 0 8 -7 15 -15 15 -8 0 -15 7 -15 15 0 10
-10 15 -30 15 -20 0 -30 5 -30 15 0 8 -7 15 -15 15 -8 0 -15 7 -15 15 0 10
-10 15 -30 15 -20 0 -30 5 -30 15 0 8 -7 15 -15 15 -8 0 -15 7 -15 15 0 8 -7
15 -15 15 -8 0 -15 7 -15 15 0 8 -7 15 -15 15 -8 0 -15 5 -15 10 0 6 -7 10
-15 10 -8 0 -15 9 -15 20 0 11 -7 20 -15 20 -8 0 -15 5 -15 11 0 16 -26 39
-44 39 -9 0 -16 8 -16 20 0 11 -5 20 -11 20 -14 0 -39 25 -39 39 0 6 -9 11
-20 11 -11 0 -20 7 -20 15 0 8 -4 15 -10 15 -5 0 -10 7 -10 15 0 8 -7 15 -15
15 -8 0 -15 7 -15 15 0 8 -9 15 -20 15 -16 0 -20 7 -20 30 0 17 -4 30 -10 30
-5 0 -10 7 -10 15 0 8 -7 15 -15 15 -10 0 -15 10 -15 30 0 20 -5 30 -15 30 -8
0 -15 7 -15 15 0 8 -7 15 -15 15 -10 0 -15 10 -15 30 0 20 -5 30 -15 30 -8 0
-15 7 -15 15 0 8 -7 15 -15 15 -10 0 -15 10 -15 30 0 20 -5 30 -15 30 -10 0
-15 10 -15 30 0 20 -5 30 -15 30 -10 0 -15 10 -15 30 0 20 -5 30 -15 30 -11 0
-15 12 -15 45 0 33 -4 45 -15 45 -10 0 -15 10 -15 30 0 20 -5 30 -15 30 -11 0
-15 12 -15 45 0 33 -4 45 -15 45 -12 0 -15 13 -15 55 0 42 -3 55 -15 55 -12 0
-15 14 -15 65 0 51 -3 65 -15 65 -12 0 -15 19 -15 115 0 96 -3 115 -15 115
-13 0 -15 25 -15 165 0 140 2 165 15 165 12 0 15 18 15 105 0 87 3 105 15 105
12 0 15 14 15 70 0 56 3 70 15 70 11 0 15 12 15 45 0 33 4 45 15 45 11 0 15
12 15 45 0 33 4 45 15 45 11 0 15 12 15 45 0 33 4 45 15 45 10 0 15 10 15 30
0 20 5 30 15 30 10 0 15 10 15 30 0 20 5 30 15 30 10 0 15 10 15 30 0 20 5 30
15 30 10 0 15 10 15 30 0 20 5 30 15 30 10 0 15 10 15 30 0 20 5 30 15 30 10
0 15 10 15 30 0 20 5 30 15 30 8 0 15 7 15 15 0 8 7 15 15 15 10 0 15 10 15
30 0 20 5 30 15 30 8 0 15 7 15 15 0 8 5 15 10 15 6 0 10 7 10 15 0 8 9 15 20
15 16 0 20 7 20 30 0 20 5 30 15 30 8 0 15 7 15 15 0 8 5 15 10 15 6 0 10 7
10 15 0 8 7 15 16 15 20 0 44 24 44 44 0 9 7 16 15 16 8 0 15 7 15 15 0 8 7
15 16 15 20 0 44 24 44 44 0 9 7 16 15 16 8 0 15 5 15 10 0 6 7 10 15 10 8 0
15 7 15 15 0 8 7 15 15 15 8 0 15 7 15 15 0 10 10 15 30 15 20 0 30 5 30 15 0
8 7 15 15 15 8 0 15 7 15 15 0 8 7 15 15 15 8 0 15 7 15 15 0 10 10 15 30 15
20 0 30 5 30 15 0 8 7 15 15 15 8 0 15 7 15 15 0 10 10 15 30 15 20 0 30 5 30
15 0 8 7 15 15 15 8 0 15 7 15 15 0 10 10 15 30 15 20 0 30 5 30 15 0 10 10
15 30 15 20 0 30 5 30 15 0 10 10 15 30 15 20 0 30 5 30 15 0 10 10 15 30 15
20 0 30 5 30 15 0 11 12 15 45 15 33 0 45 4 45 15 0 10 10 15 30 15 20 0 30 5
30 15 0 12 13 15 55 15 42 0 55 3 55 15 0 11 12 15 45 15 33 0 45 4 45 15 0
12 17 15 90 15 73 0 90 3 90 15 0 13 42 15 315 15 273 0 315 -2 315 -15z m980
-30 c0 -10 10 -15 30 -15 20 0 30 -5 30 -15 0 -8 7 -15 15 -15 8 0 15 -7 15
-15 0 -10 10 -15 30 -15 20 0 30 -5 30 -15 0 -8 5 -15 10 -15 6 0 10 -7 10
-15 0 -8 7 -15 15 -15 8 0 15 -7 15 -15 0 -8 9 -15 20 -15 11 0 20 -7 20 -15
0 -9 9 -15 25 -15 16 0 25 -6 25 -15 0 -8 7 -15 15 -15 8 0 15 -7 15 -15 0 -8
7 -15 15 -15 8 0 15 -7 15 -15 0 -8 7 -15 15 -15 8 0 15 -7 15 -15 0 -8 7 -15
15 -15 8 0 15 -7 15 -15 0 -8 7 -15 15 -15 8 0 15 -7 15 -15 0 -8 7 -15 15
-15 8 0 15 -7 15 -15 0 -8 7 -15 15 -15 8 0 15 -7 15 -15 0 -8 7 -15 15 -15 8
0 15 -7 15 -15 0 -8 7 -15 15 -15 8 0 15 -7 15 -15 0 -8 7 -15 15 -15 10 0 15
-10 15 -30 0 -20 5 -30 15 -30 8 0 15 -4 15 -10 0 -5 7 -10 15 -10 8 0 15 -7
15 -15 0 -8 7 -15 15 -15 8 0 15 -9 15 -20 0 -11 -7 -20 -15 -20 -8 0 -15 9
-15 20 0 11 -7 20 -15 20 -8 0 -15 7 -15 15 0 8 -7 15 -15 15 -8 0 -15 5 -15
10 0 6 -7 10 -15 10 -10 0 -15 10 -15 30 0 20 -5 30 -15 30 -8 0 -15 7 -15 15
0 8 -7 15 -15 15 -8 0 -15 7 -15 15 0 8 -7 15 -15 15 -8 0 -15 7 -15 15 0 8
-7 15 -15 15 -8 0 -15 7 -15 15 0 8 -7 15 -15 15 -8 0 -15 7 -15 15 0 8 -7 15
-15 15 -8 0 -15 7 -15 15 0 8 -7 15 -15 15 -8 0 -15 7 -15 15 0 8 -7 15 -15
15 -8 0 -15 7 -15 15 0 8 -7 15 -15 15 -8 0 -15 7 -15 15 0 9 -9 15 -25 15
-16 0 -25 6 -25 15 0 8 -9 15 -20 15 -11 0 -20 7 -20 15 0 8 -7 15 -15 15 -8
0 -15 7 -15 15 0 8 -4 15 -10 15 -5 0 -10 7 -10 15 0 10 -10 15 -30 15 -20 0
-30 5 -30 15 0 8 -7 15 -15 15 -8 0 -15 7 -15 15 0 10 -10 15 -30 15 -20 0
-30 5 -30 15 0 8 -7 15 -15 15 -8 0 -15 7 -15 15 0 8 7 15 15 15 8 0 15 -7 15
-15z m710 -680 c0 -8 7 -15 15 -15 8 0 15 -7 15 -15 0 -8 7 -15 15 -15 10 0
15 -10 15 -30 0 -20 5 -30 15 -30 8 0 15 -7 15 -15 0 -8 -7 -15 -15 -15 -8 0
-15 7 -15 15 0 8 -7 15 -15 15 -10 0 -15 10 -15 30 0 20 -5 30 -15 30 -8 0
-15 7 -15 15 0 8 -7 15 -15 15 -8 0 -15 7 -15 15 0 8 7 15 15 15 8 0 15 -7 15
-15z m120 -180 c0 -8 7 -15 15 -15 10 0 15 -10 15 -30 0 -20 5 -30 15 -30 10
0 15 -10 15 -30 0 -20 5 -30 15 -30 10 0 15 -10 15 -30 0 -20 5 -30 15 -30 10
0 15 -10 15 -30 0 -20 5 -30 15 -30 11 0 15 -12 15 -45 0 -33 4 -45 15 -45 10
0 15 -10 15 -30 0 -20 -5 -30 -15 -30 -10 0 -15 10 -15 30 0 20 -5 30 -15 30
-11 0 -15 12 -15 45 0 33 -4 45 -15 45 -10 0 -15 10 -15 30 0 20 -5 30 -15 30
-10 0 -15 10 -15 30 0 20 -5 30 -15 30 -10 0 -15 10 -15 30 0 20 -5 30 -15 30
-10 0 -15 10 -15 30 0 20 -5 30 -15 30 -8 0 -15 7 -15 15 0 8 7 15 15 15 8 0
15 -7 15 -15z m-4400 -345 c0 -20 -5 -30 -15 -30 -11 0 -15 -12 -15 -45 0 -33
-4 -45 -15 -45 -11 0 -15 -12 -15 -45 0 -33 -4 -45 -15 -45 -12 0 -15 -13 -15
-60 0 -47 -3 -60 -15 -60 -12 0 -15 -14 -15 -70 0 -40 -4 -70 -10 -70 -6 0
-10 -67 -10 -180 0 -173 -1 -180 -20 -180 -16 0 -20 -7 -20 -30 0 -23 4 -30
20 -30 19 0 20 -7 20 -190 0 -120 4 -190 10 -190 6 0 10 -32 10 -75 0 -60 3
-75 15 -75 12 0 15 -13 15 -60 0 -47 3 -60 15 -60 11 0 15 -12 15 -45 0 -33 4
-45 15 -45 11 0 15 -12 15 -45 0 -33 4 -45 15 -45 11 0 15 -12 15 -45 0 -33 4
-45 15 -45 10 0 15 -10 15 -30 0 -20 5 -30 15 -30 10 0 15 -10 15 -30 0 -20 5
-30 15 -30 10 0 15 -10 15 -30 0 -20 5 -30 15 -30 10 0 15 -10 15 -30 0 -20 5
-30 15 -30 10 0 15 -10 15 -30 0 -20 5 -30 15 -30 10 0 15 -10 15 -30 0 -20 5
-30 15 -30 8 0 15 -7 15 -15 0 -8 7 -15 15 -15 10 0 15 -10 15 -30 0 -20 5
-30 15 -30 8 0 15 -7 15 -15 0 -8 7 -15 15 -15 8 0 15 -7 15 -15 0 -8 -7 -15
-15 -15 -8 0 -15 7 -15 15 0 8 -7 15 -15 15 -8 0 -15 7 -15 15 0 8 -7 15 -15
15 -10 0 -15 10 -15 30 0 20 -5 30 -15 30 -8 0 -15 7 -15 15 0 8 -7 15 -15 15
-10 0 -15 10 -15 30 0 20 -5 30 -15 30 -10 0 -15 10 -15 30 0 20 -5 30 -15 30
-10 0 -15 10 -15 30 0 20 -5 30 -15 30 -10 0 -15 10 -15 30 0 20 -5 30 -15 30
-10 0 -15 10 -15 30 0 20 -5 30 -15 30 -10 0 -15 10 -15 30 0 20 -5 30 -15 30
-11 0 -15 12 -15 45 0 33 -4 45 -15 45 -11 0 -15 12 -15 45 0 33 -4 45 -15 45
-11 0 -15 12 -15 45 0 33 -4 45 -15 45 -12 0 -15 13 -15 60 0 33 -4 60 -10 60
-6 0 -10 32 -10 75 0 68 -2 75 -20 75 -19 0 -20 7 -20 130 0 109 -2 130 -15
130 -13 0 -15 22 -15 135 0 113 2 135 15 135 13 0 15 22 15 135 0 128 1 135
20 135 18 0 20 7 20 70 0 40 4 70 10 70 6 0 10 27 10 60 0 47 3 60 15 60 11 0
15 12 15 45 0 33 4 45 15 45 11 0 15 12 15 45 0 33 4 45 15 45 10 0 15 10 15
30 0 20 5 30 15 30 10 0 15 -10 15 -30z m4610 -135 c0 -33 4 -45 15 -45 11 0
15 -12 15 -45 0 -25 5 -45 10 -45 6 0 10 -32 10 -75 0 -68 2 -75 20 -75 18 0
20 -7 20 -85 0 -69 3 -85 15 -85 13 0 15 -38 15 -285 0 -247 -2 -285 -15 -285
-12 0 -15 -18 -15 -100 0 -93 -1 -100 -20 -100 -18 0 -20 -7 -20 -65 0 -37 -4
-65 -10 -65 -5 0 -10 -25 -10 -55 0 -42 -3 -55 -15 -55 -11 0 -15 -12 -15 -45
0 -33 -4 -45 -15 -45 -10 0 -15 -10 -15 -30 0 -20 -5 -30 -15 -30 -10 0 -15
10 -15 30 0 20 5 30 15 30 11 0 15 12 15 45 0 33 4 45 15 45 12 0 15 13 15 55
0 42 3 55 15 55 12 0 15 14 15 65 0 37 4 65 10 65 6 0 10 40 10 100 0 93 1
100 20 100 20 0 20 7 20 285 0 278 0 285 -20 285 -18 0 -20 7 -20 85 0 50 -4
85 -10 85 -6 0 -10 32 -10 75 0 60 -3 75 -15 75 -11 0 -15 12 -15 45 0 33 -4
45 -15 45 -11 0 -15 12 -15 45 0 33 4 45 15 45 11 0 15 -12 15 -45z m-60
-1675 c0 -20 -5 -30 -15 -30 -10 0 -15 -10 -15 -30 0 -20 -5 -30 -15 -30 -10
0 -15 -10 -15 -30 0 -20 -5 -30 -15 -30 -10 0 -15 -10 -15 -30 0 -20 -5 -30
-15 -30 -10 0 -15 -10 -15 -30 0 -20 -5 -30 -15 -30 -10 0 -15 -10 -15 -30 0
-20 -5 -30 -15 -30 -8 0 -15 -7 -15 -15 0 -8 -7 -15 -15 -15 -10 0 -15 -10
-15 -30 0 -20 -5 -30 -15 -30 -8 0 -15 -7 -15 -15 0 -8 -7 -15 -15 -15 -10 0
-15 -10 -15 -30 0 -20 -5 -30 -15 -30 -8 0 -15 -4 -15 -10 0 -5 -7 -10 -15
-10 -8 0 -15 -9 -15 -20 0 -11 -7 -20 -15 -20 -8 0 -15 9 -15 20 0 11 7 20 15
20 8 0 15 5 15 10 0 6 7 10 15 10 10 0 15 10 15 30 0 20 5 30 15 30 8 0 15 7
15 15 0 8 7 15 15 15 10 0 15 10 15 30 0 20 5 30 15 30 8 0 15 7 15 15 0 8 7
15 15 15 10 0 15 10 15 30 0 20 5 30 15 30 10 0 15 10 15 30 0 20 5 30 15 30
10 0 15 10 15 30 0 20 5 30 15 30 10 0 15 10 15 30 0 20 5 30 15 30 10 0 15
10 15 30 0 20 5 30 15 30 10 0 15 10 15 30 0 20 5 30 15 30 10 0 15 -10 15
-30z m-4220 -550 c0 -11 7 -20 15 -20 8 0 15 -4 15 -10 0 -5 7 -10 15 -10 8 0
15 -7 15 -15 0 -8 7 -15 15 -15 8 0 15 -9 15 -20 0 -11 -7 -20 -15 -20 -8 0
-15 9 -15 20 0 11 -7 20 -15 20 -8 0 -15 7 -15 15 0 8 -7 15 -15 15 -8 0 -15
5 -15 10 0 6 -7 10 -15 10 -8 0 -15 9 -15 20 0 11 7 20 15 20 8 0 15 -9 15
-20z m3860 -55 c0 -8 -7 -15 -15 -15 -8 0 -15 -9 -15 -20 0 -11 -7 -20 -15
-20 -8 0 -15 -4 -15 -10 0 -5 -7 -10 -15 -10 -8 0 -15 -7 -15 -15 0 -8 -7 -15
-15 -15 -8 0 -15 -7 -15 -15 0 -8 -7 -15 -15 -15 -8 0 -15 -7 -15 -15 0 -8 -7
-15 -15 -15 -8 0 -15 -7 -15 -15 0 -8 -7 -15 -15 -15 -8 0 -15 -7 -15 -15 0
-8 -7 -15 -15 -15 -8 0 -15 -7 -15 -15 0 -8 -7 -15 -15 -15 -8 0 -15 -7 -15
-15 0 -8 -7 -15 -15 -15 -8 0 -15 -7 -15 -15 0 -8 -7 -15 -15 -15 -8 0 -15 -7
-15 -15 0 -8 -7 -15 -15 -15 -8 0 -15 -7 -15 -15 0 -8 -4 -15 -10 -15 -5 0
-10 -7 -10 -15 0 -10 -11 -15 -35 -15 -24 0 -35 -5 -35 -15 0 -8 -4 -15 -10
-15 -5 0 -10 -7 -10 -15 0 -8 -9 -15 -20 -15 -11 0 -20 -7 -20 -15 0 -9 -9
-15 -25 -15 -16 0 -25 -6 -25 -15 0 -8 -7 -15 -15 -15 -8 0 -15 -7 -15 -15 0
-10 -10 -15 -30 -15 -20 0 -30 -5 -30 -15 0 -10 -10 -15 -30 -15 -20 0 -30 -5
-30 -15 0 -8 -7 -15 -15 -15 -8 0 -15 7 -15 15 0 8 7 15 15 15 8 0 15 7 15 15
0 10 10 15 30 15 20 0 30 5 30 15 0 10 10 15 30 15 20 0 30 5 30 15 0 8 7 15
15 15 8 0 15 7 15 15 0 9 9 15 25 15 16 0 25 6 25 15 0 8 9 15 20 15 11 0 20
7 20 15 0 8 5 15 10 15 6 0 10 7 10 15 0 10 11 15 35 15 24 0 35 5 35 15 0 8
5 15 10 15 6 0 10 7 10 15 0 8 7 15 15 15 8 0 15 7 15 15 0 8 7 15 15 15 8 0
15 7 15 15 0 8 7 15 15 15 8 0 15 7 15 15 0 8 7 15 15 15 8 0 15 7 15 15 0 8
7 15 15 15 8 0 15 7 15 15 0 8 7 15 15 15 8 0 15 7 15 15 0 8 7 15 15 15 8 0
15 7 15 15 0 8 7 15 15 15 8 0 15 7 15 15 0 8 7 15 15 15 8 0 15 5 15 10 0 6
7 10 15 10 8 0 15 9 15 20 0 11 7 20 15 20 8 0 15 7 15 15 0 8 7 15 15 15 8 0
15 -7 15 -15z m-3740 -90 c0 -8 7 -15 15 -15 8 0 15 -7 15 -15 0 -8 7 -15 15
-15 8 0 15 -7 15 -15 0 -8 7 -15 15 -15 8 0 15 -7 15 -15 0 -8 5 -15 10 -15 6
0 10 -7 10 -15 0 -8 9 -15 20 -15 11 0 20 -7 20 -15 0 -8 7 -15 15 -15 8 0 15
-7 15 -15 0 -8 5 -15 10 -15 6 0 10 -7 10 -15 0 -8 -4 -15 -10 -15 -5 0 -10 7
-10 15 0 8 -7 15 -15 15 -8 0 -15 7 -15 15 0 8 -9 15 -20 15 -11 0 -20 7 -20
15 0 8 -4 15 -10 15 -5 0 -10 7 -10 15 0 8 -7 15 -15 15 -8 0 -15 7 -15 15 0
8 -7 15 -15 15 -8 0 -15 7 -15 15 0 8 -7 15 -15 15 -8 0 -15 7 -15 15 0 8 -7
15 -15 15 -8 0 -15 7 -15 15 0 8 7 15 15 15 8 0 15 -7 15 -15z m260 -240 c0
-8 7 -15 15 -15 8 0 15 -7 15 -15 0 -8 9 -15 20 -15 11 0 20 -7 20 -15 0 -8 5
-15 10 -15 6 0 10 -7 10 -15 0 -8 -4 -15 -10 -15 -5 0 -10 7 -10 15 0 8 -9 15
-20 15 -11 0 -20 7 -20 15 0 8 -7 15 -15 15 -8 0 -15 7 -15 15 0 8 -4 15 -10
15 -5 0 -10 7 -10 15 0 8 5 15 10 15 6 0 10 -7 10 -15z m150 -120 c0 -8 7 -15
15 -15 8 0 15 -7 15 -15 0 -10 10 -15 30 -15 20 0 30 -5 30 -15 0 -8 7 -15 15
-15 8 0 15 -7 15 -15 0 -8 -7 -15 -15 -15 -8 0 -15 7 -15 15 0 10 -10 15 -30
15 -20 0 -30 5 -30 15 0 8 -7 15 -15 15 -8 0 -15 7 -15 15 0 8 -7 15 -15 15
-8 0 -15 7 -15 15 0 8 7 15 15 15 8 0 15 -7 15 -15z m180 -120 c0 -10 10 -15
30 -15 20 0 30 -5 30 -15 0 -10 10 -15 30 -15 20 0 30 -5 30 -15 0 -10 10 -15
30 -15 20 0 30 -5 30 -15 0 -10 10 -15 30 -15 20 0 30 -5 30 -15 0 -10 10 -15
30 -15 20 0 30 -5 30 -15 0 -10 -10 -15 -30 -15 -20 0 -30 5 -30 15 0 10 -10
15 -30 15 -20 0 -30 5 -30 15 0 10 -10 15 -30 15 -20 0 -30 5 -30 15 0 10 -10
15 -30 15 -20 0 -30 5 -30 15 0 10 -10 15 -30 15 -20 0 -30 5 -30 15 0 8 -7
15 -15 15 -8 0 -15 7 -15 15 0 8 7 15 15 15 8 0 15 -7 15 -15z m2380 -60 c0
-8 -7 -15 -15 -15 -8 0 -15 -7 -15 -15 0 -10 -10 -15 -30 -15 -20 0 -30 -5
-30 -15 0 -10 -10 -15 -30 -15 -20 0 -30 5 -30 15 0 10 10 15 30 15 20 0 30 5
30 15 0 10 10 15 30 15 20 0 30 5 30 15 0 8 7 15 15 15 8 0 15 -7 15 -15z
m-180 -90 c0 -10 -10 -15 -30 -15 -20 0 -30 -5 -30 -15 0 -10 -10 -15 -30 -15
-20 0 -30 5 -30 15 0 10 10 15 30 15 20 0 30 5 30 15 0 10 10 15 30 15 20 0
30 -5 30 -15z m-1810 -30 c0 -11 12 -15 45 -15 33 0 45 -4 45 -15 0 -11 12
-15 45 -15 33 0 45 -4 45 -15 0 -12 13 -15 55 -15 42 0 55 -3 55 -15 0 -12 17
-15 90 -15 73 0 90 -3 90 -15 0 -13 48 -15 375 -15 327 0 375 2 375 15 0 12
14 15 70 15 56 0 70 3 70 15 0 12 13 15 60 15 47 0 60 3 60 15 0 11 12 15 45
15 33 0 45 -4 45 -15 0 -11 -12 -15 -45 -15 -33 0 -45 -4 -45 -15 0 -12 -13
-15 -60 -15 -47 0 -60 -3 -60 -15 0 -12 -14 -15 -70 -15 -40 0 -70 -4 -70 -10
0 -6 -62 -10 -165 -10 -158 0 -165 -1 -165 -20 0 -18 -7 -20 -60 -20 -53 0
-60 2 -60 20 0 19 -7 20 -150 20 -93 0 -150 4 -150 10 0 6 -37 10 -90 10 -73
0 -90 3 -90 15 0 12 -13 15 -55 15 -42 0 -55 3 -55 15 0 11 -12 15 -45 15 -33
0 -45 4 -45 15 0 11 -12 15 -45 15 -33 0 -45 4 -45 15 0 10 -10 15 -30 15 -20
0 -30 5 -30 15 0 10 10 15 30 15 20 0 30 -5 30 -15z m1660 -30 c0 -10 -10 -15
-30 -15 -20 0 -30 5 -30 15 0 10 10 15 30 15 20 0 30 -5 30 -15z"/>
<path d="M2800 4840 c0 -20 -5 -30 -15 -30 -10 0 -15 -10 -15 -30 0 -20 -5
-30 -15 -30 -11 0 -15 -12 -15 -45 0 -33 -4 -45 -15 -45 -11 0 -15 -12 -15
-45 0 -33 -4 -45 -15 -45 -10 0 -15 -10 -15 -30 0 -20 -5 -30 -15 -30 -11 0
-15 -12 -15 -45 0 -33 -4 -45 -15 -45 -11 0 -15 -12 -15 -45 0 -33 -4 -45 -15
-45 -9 0 -15 -9 -15 -25 0 -16 -6 -25 -15 -25 -8 0 -15 -9 -15 -20 0 -17 7
-20 45 -20 38 0 45 3 45 20 0 11 7 20 15 20 8 0 15 7 15 15 0 10 10 15 30 15
l30 0 0 -460 0 -460 -30 0 c-23 0 -30 -4 -30 -20 0 -17 -7 -20 -45 -20 -33 0
-45 -4 -45 -15 0 -10 -10 -15 -30 -15 -16 0 -30 -4 -30 -10 0 -5 -13 -10 -30
-10 -23 0 -30 -4 -30 -20 0 -11 -7 -20 -15 -20 -8 0 -15 -4 -15 -10 0 -5 -7
-10 -15 -10 -8 0 -15 -7 -15 -15 0 -8 -7 -15 -15 -15 -8 0 -15 -7 -15 -15 0
-8 -7 -15 -15 -15 -8 0 -15 -7 -15 -15 0 -8 -7 -15 -15 -15 -8 0 -15 -7 -15
-15 0 -8 -4 -15 -10 -15 -5 0 -10 -13 -10 -30 0 -23 -4 -30 -20 -30 -17 0 -20
-7 -20 -45 0 -33 -4 -45 -15 -45 -13 0 -15 -25 -15 -165 0 -140 2 -165 15
-165 11 0 15 -12 15 -45 0 -38 3 -45 20 -45 16 0 20 -7 20 -30 0 -16 5 -30 10
-30 6 0 10 -7 10 -15 0 -8 7 -15 15 -15 9 0 15 -9 15 -25 0 -16 6 -25 15 -25
10 0 15 -11 15 -35 0 -24 -5 -35 -15 -35 -10 0 -15 -10 -15 -30 0 -16 -5 -30
-11 -30 -20 0 -39 -29 -39 -59 0 -24 -4 -31 -20 -31 -11 0 -20 -4 -20 -10 0
-5 -7 -10 -15 -10 -10 0 -15 -10 -15 -30 0 -16 -4 -30 -10 -30 -5 0 -10 -7
-10 -15 0 -8 -9 -15 -20 -15 -16 0 -20 -7 -20 -30 0 -16 -4 -30 -10 -30 -5 0
-10 -7 -10 -15 0 -8 -7 -15 -15 -15 -10 0 -15 -10 -15 -30 0 -20 -5 -30 -15
-30 -10 0 -15 -10 -15 -30 0 -20 -5 -30 -15 -30 -8 0 -15 -7 -15 -15 0 -8 -7
-15 -15 -15 -10 0 -15 -10 -15 -30 0 -20 -5 -30 -15 -30 -8 0 -15 -7 -15 -15
0 -8 -7 -15 -15 -15 -10 0 -15 -10 -15 -30 0 -20 -5 -30 -15 -30 -8 0 -15 -7
-15 -15 0 -8 -7 -15 -15 -15 -8 0 -15 7 -15 15 0 8 -7 15 -15 15 -10 0 -15 10
-15 30 0 20 -5 30 -15 30 -8 0 -15 7 -15 15 0 8 -7 15 -15 15 -8 0 -15 -7 -15
-15 0 -8 -7 -15 -15 -15 -12 0 -15 -15 -15 -75 0 -60 -3 -75 -15 -75 -12 0
-15 -15 -15 -75 0 -60 -3 -75 -15 -75 -12 0 -15 -13 -15 -55 0 -42 -3 -55 -15
-55 -12 0 -15 -15 -15 -75 0 -60 -3 -75 -15 -75 -10 0 -15 -10 -15 -30 0 -27
3 -30 30 -30 20 0 30 5 30 15 0 8 7 15 15 15 8 0 15 7 15 15 0 8 7 15 15 15 8
0 15 5 15 10 0 6 14 10 30 10 23 0 30 4 30 20 0 11 7 20 15 20 8 0 15 7 15 15
0 10 10 15 30 15 17 0 30 5 30 10 0 6 7 10 15 10 8 0 15 9 15 20 0 11 7 20 15
20 8 0 15 5 15 10 0 6 14 10 30 10 20 0 30 5 30 15 0 8 7 15 15 15 8 0 15 7
15 15 0 8 7 15 15 15 8 0 15 7 15 15 0 9 9 15 25 15 16 0 25 6 25 15 0 8 9 15
20 15 11 0 20 7 20 15 0 8 5 15 10 15 6 0 10 7 10 15 0 12 -16 15 -85 15 -69
0 -85 3 -85 15 0 8 7 15 15 15 10 0 15 10 15 30 0 20 5 30 15 30 8 0 15 7 15
15 0 8 7 15 15 15 10 0 15 10 15 30 0 17 5 30 10 30 6 0 10 7 10 15 0 8 9 15
20 15 16 0 20 7 20 30 0 17 5 30 10 30 6 0 10 7 10 15 0 8 7 15 15 15 10 0 15
10 15 30 0 23 4 30 20 30 11 0 20 7 20 15 0 8 5 15 10 15 6 0 10 14 10 30 0
20 5 30 15 30 8 0 15 7 15 15 0 8 7 15 15 15 10 0 15 10 15 30 0 20 5 30 15
30 10 0 15 10 15 30 0 20 5 30 15 30 8 0 15 7 15 15 0 8 7 15 15 15 10 0 15
10 15 30 0 20 5 30 15 30 8 0 15 7 15 15 0 8 7 15 15 15 8 0 15 5 15 10 0 6 7
10 15 10 8 0 15 -4 15 -10 0 -5 14 -10 30 -10 20 0 30 -5 30 -15 0 -12 13 -15
60 -15 l60 0 0 -475 c0 -416 -2 -475 -15 -475 -8 0 -15 5 -15 10 0 6 -7 10
-15 10 -8 0 -15 9 -15 20 0 16 -7 20 -30 20 -16 0 -30 5 -30 10 0 6 -13 10
-30 10 -27 0 -30 -3 -30 -30 0 -20 5 -30 15 -30 11 0 15 -12 15 -45 0 -33 4
-45 15 -45 9 0 15 -9 15 -25 0 -16 6 -25 15 -25 11 0 15 -12 15 -45 0 -33 4
-45 15 -45 11 0 15 -12 15 -45 0 -33 4 -45 15 -45 10 0 15 -10 15 -30 0 -20 5
-30 15 -30 11 0 15 -12 15 -45 0 -33 4 -45 15 -45 11 0 15 -12 15 -45 0 -43 1
-45 30 -45 27 0 30 3 30 30 0 20 5 30 15 30 11 0 15 12 15 45 0 33 4 45 15 45
10 0 15 10 15 30 0 20 5 30 15 30 11 0 15 12 15 45 0 33 4 45 15 45 11 0 15
12 15 45 0 33 4 45 15 45 10 0 15 10 15 30 0 20 5 30 15 30 11 0 15 12 15 45
0 33 4 45 15 45 11 0 15 11 15 40 0 38 -2 40 -30 40 -16 0 -30 -4 -30 -10 0
-5 -7 -10 -15 -10 -8 0 -15 -9 -15 -20 0 -16 -7 -20 -30 -20 l-30 0 0 465 0
465 60 0 c47 0 60 3 60 15 0 10 10 15 30 15 17 0 30 5 30 10 0 6 14 10 30 10
23 0 30 4 30 20 0 16 7 20 30 20 17 0 30 5 30 10 0 6 7 10 15 10 8 0 15 7 15
15 0 8 5 15 10 15 6 0 10 9 10 20 0 13 7 20 20 20 15 0 20 7 20 25 0 14 5 25
10 25 6 0 10 7 10 15 0 8 7 15 15 15 10 0 15 10 15 30 0 23 4 30 20 30 17 0
20 7 20 45 0 25 5 45 10 45 6 0 10 62 10 165 0 103 -4 165 -10 165 -5 0 -10
20 -10 45 0 38 -3 45 -20 45 -16 0 -20 7 -20 30 0 20 -5 30 -15 30 -8 0 -15 7
-15 15 0 8 -4 15 -10 15 -5 0 -10 7 -10 15 0 8 -9 15 -20 15 -11 0 -20 7 -20
15 0 8 -4 15 -10 15 -5 0 -10 5 -10 11 0 16 26 39 44 39 11 0 16 9 16 30 0 17
5 30 10 30 6 0 10 7 10 15 0 8 7 15 15 15 10 0 15 10 15 30 0 23 4 30 20 30
11 0 20 7 20 15 0 8 5 15 10 15 6 0 10 14 10 30 0 20 5 30 15 30 10 0 15 10
15 30 0 20 5 30 15 30 8 0 15 7 15 15 0 8 7 15 15 15 10 0 15 10 15 30 0 20 5
30 15 30 8 0 15 7 15 15 0 8 7 15 15 15 10 0 15 10 15 30 0 20 5 30 15 30 8 0
15 7 15 15 0 8 7 15 15 15 10 0 15 10 15 30 0 20 5 30 15 30 8 0 15 7 15 15 0
8 7 15 15 15 10 0 15 10 15 30 0 20 5 30 15 30 8 0 15 7 15 15 0 8 7 15 15 15
8 0 15 -7 15 -15 0 -8 7 -15 15 -15 11 0 15 -12 15 -45 0 -33 4 -45 15 -45 8
0 15 -7 15 -15 0 -8 7 -15 15 -15 11 0 15 12 15 45 0 33 4 45 15 45 12 0 15
15 15 75 0 60 3 75 15 75 12 0 15 13 15 60 0 47 3 60 15 60 12 0 15 15 15 75
0 60 3 75 15 75 12 0 15 13 15 55 0 42 3 55 15 55 10 0 15 10 15 30 0 27 -3
30 -30 30 -20 0 -30 -5 -30 -15 0 -8 -7 -15 -15 -15 -8 0 -15 -7 -15 -15 0
-10 -10 -15 -30 -15 -20 0 -30 -5 -30 -15 0 -8 -7 -15 -15 -15 -8 0 -15 -4
-15 -10 0 -5 -7 -10 -15 -10 -8 0 -15 -9 -15 -20 0 -16 -7 -20 -30 -20 -16 0
-30 -4 -30 -10 0 -5 -7 -10 -15 -10 -8 0 -15 -7 -15 -15 0 -8 -7 -15 -15 -15
-8 0 -15 -9 -15 -20 0 -16 -7 -20 -30 -20 -16 0 -30 -4 -30 -10 0 -5 -7 -10
-15 -10 -8 0 -15 -7 -15 -15 0 -8 -7 -15 -15 -15 -8 0 -15 -7 -15 -15 0 -10
-10 -15 -30 -15 -20 0 -30 -5 -30 -15 0 -8 -7 -15 -15 -15 -8 0 -15 -7 -15
-15 0 -8 -7 -15 -15 -15 -8 0 -15 -7 -15 -15 0 -12 17 -15 90 -15 73 0 90 -3
90 -15 0 -8 -7 -15 -15 -15 -8 0 -15 -7 -15 -15 0 -8 -7 -15 -15 -15 -10 0
-15 -10 -15 -30 0 -20 -5 -30 -15 -30 -10 0 -15 -10 -15 -30 0 -20 -5 -30 -15
-30 -8 0 -15 -7 -15 -15 0 -8 -7 -15 -15 -15 -10 0 -15 -10 -15 -30 0 -20 -5
-30 -15 -30 -8 0 -15 -7 -15 -15 0 -8 -4 -15 -10 -15 -5 0 -10 -13 -10 -30 0
-23 -4 -30 -20 -30 -11 0 -20 -7 -20 -15 0 -8 -7 -15 -15 -15 -10 0 -15 -10
-15 -30 0 -16 -4 -30 -10 -30 -5 0 -10 -7 -10 -15 0 -8 -9 -15 -20 -15 -16 0
-20 -7 -20 -30 0 -16 -4 -30 -10 -30 -5 0 -10 -7 -10 -15 0 -8 -7 -15 -15 -15
-10 0 -15 -10 -15 -30 0 -23 -4 -30 -20 -30 -11 0 -20 -7 -20 -15 0 -8 -4 -15
-10 -15 -5 0 -10 -13 -10 -30 0 -20 -5 -30 -15 -30 -8 0 -15 -7 -15 -15 0 -10
-10 -15 -30 -15 -20 0 -30 5 -30 15 0 11 -12 15 -45 15 -38 0 -45 3 -45 20 0
16 -7 20 -30 20 l-30 0 0 460 0 460 30 0 c20 0 30 -5 30 -15 0 -8 7 -15 15
-15 8 0 15 -9 15 -20 0 -17 7 -20 45 -20 38 0 45 3 45 20 0 11 -7 20 -15 20
-11 0 -15 12 -15 45 0 33 -4 45 -15 45 -11 0 -15 11 -15 40 0 29 -4 40 -15 40
-10 0 -15 10 -15 30 0 20 -5 30 -15 30 -11 0 -15 12 -15 45 0 33 -4 45 -15 45
-11 0 -15 12 -15 45 0 33 -4 45 -15 45 -10 0 -15 10 -15 30 0 20 -5 30 -15 30
-11 0 -15 12 -15 45 0 33 -4 45 -15 45 -8 0 -15 7 -15 15 0 8 -7 15 -15 15
-10 0 -15 -10 -15 -30z m-60 -1780 c0 -20 -5 -30 -15 -30 -8 0 -15 -7 -15 -15
0 -10 -10 -15 -30 -15 -20 0 -30 -5 -30 -15 0 -8 -7 -15 -15 -15 -10 0 -15
-10 -15 -30 0 -20 -5 -30 -15 -30 -12 0 -15 -20 -15 -120 0 -100 -2 -120 -15
-120 -8 0 -15 7 -15 15 0 8 -7 15 -15 15 -12 0 -15 18 -15 105 0 87 3 105 15
105 10 0 15 10 15 30 0 20 5 30 15 30 8 0 15 7 15 15 0 8 7 15 15 15 8 0 15 7
15 15 0 8 7 15 15 15 8 0 15 7 15 15 0 10 10 15 30 15 20 0 30 5 30 15 0 8 7
15 15 15 10 0 15 -10 15 -30z m180 0 c0 -20 -5 -30 -15 -30 -10 0 -15 10 -15
30 0 20 5 30 15 30 10 0 15 -10 15 -30z m150 -120 c0 -20 5 -30 15 -30 12 0
15 -18 15 -105 0 -87 -3 -105 -15 -105 -10 0 -15 -10 -15 -30 0 -20 -5 -30
-15 -30 -8 0 -15 -7 -15 -15 0 -8 -7 -15 -15 -15 -8 0 -15 -7 -15 -15 0 -8 -7
-15 -15 -15 -8 0 -15 -7 -15 -15 0 -8 -7 -15 -15 -15 -8 0 -15 -7 -15 -15 0
-10 -10 -15 -30 -15 -27 0 -30 3 -30 30 0 27 3 30 30 30 20 0 30 5 30 15 0 8
7 15 15 15 8 0 15 7 15 15 0 8 7 15 15 15 8 0 15 7 15 15 0 8 7 15 15 15 13 0
15 23 15 150 0 127 2 150 15 150 10 0 15 -10 15 -30z m-330 -390 c0 -20 -5
-30 -15 -30 -10 0 -15 10 -15 30 0 20 5 30 15 30 10 0 15 -10 15 -30z"/>
</g>
</svg>
