<?xml version="1.0" encoding="UTF-8" standalone="no"?>
<svg
   xmlns:dc="http://purl.org/dc/elements/1.1/"
   xmlns:cc="http://creativecommons.org/ns#"
   xmlns:rdf="http://www.w3.org/1999/02/22-rdf-syntax-ns#"
   xmlns:svg="http://www.w3.org/2000/svg"
   xmlns="http://www.w3.org/2000/svg"
   xmlns:sodipodi="http://sodipodi.sourceforge.net/DTD/sodipodi-0.dtd"
   xmlns:inkscape="http://www.inkscape.org/namespaces/inkscape"
   version="1.0"
   width="274.000000pt"
   height="289.000000pt"
   viewBox="0 0 274.000000 289.000000"
   preserveAspectRatio="xMidYMid meet"
   id="svg3212"
   sodipodi:docname="tzimisce.svg"
   inkscape:version="1.0.1 (3bc2e813f5, 2020-09-07)">
  <defs
     id="defs3216" />
  <sodipodi:namedview
     pagecolor="#ffffff"
     bordercolor="#666666"
     borderopacity="1"
     objecttolerance="10"
     gridtolerance="10"
     guidetolerance="10"
     inkscape:pageopacity="0"
     inkscape:pageshadow="2"
     inkscape:window-width="1600"
     inkscape:window-height="837"
     id="namedview3214"
     showgrid="false"
     inkscape:zoom="1.229485"
     inkscape:cx="100.39701"
     inkscape:cy="204.73362"
     inkscape:window-x="-8"
     inkscape:window-y="-8"
     inkscape:window-maximized="1"
     inkscape:current-layer="svg3212" />
  <metadata
     id="metadata3206">
Created by potrace 1.16, written by Peter Selinger 2001-2019
<rdf:RDF>
  <cc:Work
     rdf:about="">
    <dc:format>image/svg+xml</dc:format>
    <dc:type
       rdf:resource="http://purl.org/dc/dcmitype/StillImage" />
  </cc:Work>
</rdf:RDF>
</metadata>
  <path
     id="path3789"
     style="fill:#ffffff;stroke-width:0.203337"
     transform="scale(0.74999998)"
     d="m 170.04504,44.924021 c -5.16507,0.261516 -10.41518,0.636126 -15.38046,2.171108 -7.18963,2.322664 -12.62422,8.966621 -13.6483,16.431066 -1.14801,5.642726 -0.17295,11.791719 3.3014,16.466179 3.85913,5.528383 10.64254,8.625411 17.33358,8.358948 5.82101,0.09087 11.95385,1.198756 17.4555,-1.321598 7.66098,-3.00863 13.02425,-10.986566 12.80585,-19.232966 -0.14459,-4.403804 -1.27358,-8.855251 -3.42543,-12.710925 -3.62745,-6.541392 -11.02201,-10.42699 -18.44214,-10.161812 z m -6.11148,58.210829 c -8.26976,0.2651 -17.21206,1.11269 -23.95303,6.39602 -11.19648,-3.22698 -22.14604,2.92389 -32.04896,7.43295 -14.478361,7.77739 -26.341448,19.68508 -36.717717,32.26298 -7.651466,10.23496 -14.021101,21.83181 -16.77184,34.38615 -0.5526,5.94611 1.951905,11.56178 5.347982,16.2394 -1.648886,11.05524 -6.575093,21.65891 -5.981518,33.05617 0.731287,10.47984 3.328678,22.41231 12.379777,28.90337 9.026455,6.51805 22.011039,4.04948 29.347069,-3.87423 1.404734,-2.45868 4.988907,-2.4728 6.508337,0.14266 6.16375,6.49724 13.52897,13.41235 23.13079,13.22899 14.0547,0.16424 26.4661,-7.54195 39.50935,-11.69778 8.71967,-3.22959 18.66391,-6.09234 27.77683,-2.92071 2.54461,2.04147 1.13432,6.01685 2.88332,8.62706 4.1279,11.75467 19.26464,16.95346 30.02027,11.02768 11.06546,-6.16073 19.32338,-16.42071 25.98263,-26.99208 7.78547,-13.03597 12.26157,-28.16232 12.61342,-43.33539 -0.1814,-7.77283 -5.25517,-14.00753 -9.72993,-19.85752 -0.57189,-4.57008 3.46638,-8.28956 3.02668,-12.99022 0.36748,-8.87987 -5.38273,-16.47495 -9.76543,-23.75735 -18.58636,-27.26837 -50.27559,-45.90244 -83.55803,-46.27815 z m 28.48102,-92.070446 c -8.619,-0.05664 -15.92213,5.6389 -20.39445,12.606682 -5.03835,5.155459 -10.19054,10.865027 -16.93584,13.709752 -6.87632,0.539903 -13.38925,-1.941937 -19.59579,-4.525735 -7.29149,-2.326578 -15.85396,-0.923174 -21.53796,4.353872 -7.70674,1.0738 -14.562487,6.768573 -16.918996,14.196136 -11.20585,-3.142574 -23.812583,4.876381 -25.463855,16.452826 -0.401174,2.896604 -3.88037,4.420321 -4.776449,7.354607 -3.442538,6.349895 -3.080725,14.358362 -0.143561,20.739994 C 41.132548,114.4617 23.10357,142.1397 13.623666,171.96941 c -5.5505181,19.9457 -4.6222358,40.91563 -4.1682182,61.4011 0.6575502,22.93017 10.0460872,44.4389 20.5550112,64.42822 18.790972,33.75422 50.461982,59.65984 86.766731,72.56264 15.69902,5.63911 32.19252,9.31383 48.82643,10.57275 17.13916,0.17778 34.4913,-0.25468 51.11972,-4.85701 29.57718,-7.58074 57.84823,-21.19648 81.42314,-40.69198 14.9724,-13.06766 28.73599,-27.85239 38.24577,-45.44269 20.86399,-36.38402 26.77058,-80.51097 18.28201,-121.40405 -6.40094,-25.4191 -18.96638,-49.09626 -34.85543,-69.840047 -18.99982,-24.760349 -45.70815,-42.573337 -73.88623,-55.33374 -8.11589,-3.608613 -16.63086,-6.202064 -25.22572,-8.389852 -1.12793,-4.366596 -4.71559,-7.551716 -7.55862,-10.58139 -3.25707,-8.300786 -11.84135,-13.76079 -20.73368,-13.328957 z M 164.46825,55.31079 c 4.51475,2.972447 7.01301,8.355382 7.70352,13.591807 -3.92171,-0.290818 -7.85346,-0.436368 -11.78555,-0.471782 0.74849,-4.080793 1.49401,-8.569325 2.96659,-12.417824 0.40233,-0.109197 0.56699,-1.190895 1.11544,-0.702201 z m -47.71061,31.702608 c 2.82191,0.200972 6.94085,0.590601 4.69914,4.198936 -0.43862,2.101326 -0.78967,2.983647 0.13662,0.371731 0.69077,-4.282651 3.88219,-2.210392 5.9916,-0.182193 2.68057,2.378455 5.546,5.742197 5.86473,9.294318 -2.91523,8.92916 -16.03409,14.14002 -23.04654,6.85095 -3.61229,-4.04554 -5.14743,-9.64152 -4.4999,-14.98132 3.62269,-1.829361 7.20848,-3.822903 10.85435,-5.552422 z m -10.44885,3.267648 c 1.68698,-1.457462 2.14651,-1.317402 0,0 z m 56.23302,32.156414 c 31.80611,1.19112 63.06203,20.84996 75.34578,50.64015 -6.27974,9.3275 -2.95874,21.92087 4.3285,29.66517 3.50803,2.79822 1.35321,7.57801 1.18012,11.30458 -2.39325,15.47975 -9.69269,30.30618 -21.60199,40.6485 -2.99643,2.69358 -6.226,5.13227 -9.66254,7.23735 2.36282,-11.92741 -7.03007,-23.8996 -18.88203,-25.46243 -18.74036,-3.29534 -36.70827,4.77518 -53.6187,11.72572 -4.91895,1.52838 -10.11016,4.1832 -15.36187,3.42828 -6.54728,-4.64661 -11.30953,-12.22576 -19.57782,-14.23994 -10.169547,-3.22786 -22.294114,2.3158 -26.056955,12.25621 -4.312087,-8.24588 -6.615418,-17.85948 -3.966796,-27.01752 2.294595,-10.52239 7.659111,-22.11348 2.073925,-32.52792 -1.31805,-2.43435 -3.880453,-4.29569 -1.715136,-7.10945 5.997438,-18.16694 19.705209,-32.5671 34.628782,-43.94872 14.48837,-9.87713 31.94055,-14.45489 49.22685,-16.04424 1.22938,-0.10391 2.42256,-0.57356 3.65988,-0.55574 z m 51.97911,202.47973 c 0.0576,0.64746 -0.51386,-2.55827 0,0 z M 208.33384,32.974172 c -11.50763,-0.03541 -21.31321,10.729785 -20.33104,22.173385 0.17233,6.750177 3.85674,12.770087 8.20737,17.693294 -17.17035,-4.453264 -35.13527,-4.979589 -52.75193,-3.847268 -5.43433,0.355862 -10.49414,3.150201 -14.56233,6.292669 -8.15522,-0.299994 -17.32493,-0.860459 -24.02493,4.698722 C 93.096554,77.997332 83.050151,85.981912 73.431227,91.473982 57.712319,101.3967 44.500184,115.06041 33.810549,130.19041 c -10.236757,15.48368 -18.642284,32.59677 -22.284947,50.89851 -3.3724774,19.54851 -2.4068832,39.5229 -1.5445227,59.24343 2.0696067,21.46944 11.5755987,41.36914 21.7895357,60.05474 21.096716,37.12061 58.410438,63.50179 99.353615,74.43618 15.61419,4.23748 31.77568,6.96489 48.00071,6.03376 30.14298,-0.15934 59.55368,-9.51088 85.95101,-23.65818 32.96512,-17.07048 61.24355,-44.14232 76.88064,-78.08119 13.63555,-28.52454 18.60002,-60.77737 15.49139,-92.15998 -2.68457,-30.16501 -16.27796,-58.32978 -33.55907,-82.79165 -20.22752,-28.123259 -49.59515,-48.734012 -81.27633,-62.100635 -10.60773,-3.863864 -21.42262,-7.808898 -32.69827,-9.068757 -0.5268,-0.0033 -1.05366,-0.03184 -1.58047,-0.02247 z M 175.08671,97.87561 c 0.60323,3.56113 -0.52654,-2.298313 0,0 z m -26.94997,3.57543 c -0.0259,-0.0383 0.3499,-1.628364 0,0 z m 15.23518,21.08303 c 29.6985,1.00061 58.15209,18.63016 72.00624,44.95068 0.86634,2.26469 3.53327,4.68525 1.18423,6.81945 -5.6964,9.80411 -1.3954,22.18324 6.43168,29.46394 2.72767,2.34969 0.54053,6.51027 0.62904,9.57492 -2.70144,19.21936 -13.6094,37.40457 -30.18954,47.76116 1.72436,-11.60778 -7.50008,-22.6148 -18.81061,-24.42369 -16.00897,-3.93223 -32.02338,2.04175 -46.64559,8.11738 -7.7583,2.81098 -15.53419,7.46656 -24.01046,6.79654 -6.26138,-4.0044 -9.552,-11.76168 -17.05763,-14.07112 -10.654695,-4.57223 -24.475188,0.81106 -28.428866,11.90766 -3.969069,-7.99723 -6.658178,-17.15157 -4.031486,-26.01876 1.776028,-10.06142 8.032984,-20.28405 3.963528,-30.5638 -0.919075,-2.73983 -3.109913,-5.18848 -4.444297,-7.38093 4.07132,-11.47292 9.964109,-22.54512 18.855269,-31.02065 8.107332,-8.69896 16.829522,-17.22988 27.989282,-21.8818 11.50864,-5.07188 23.87075,-8.75673 36.5204,-8.94701 2.08001,-0.0541 3.97821,-1.29505 6.03881,-1.08397 z m 51.12766,202.32583 c 0.1103,1.10573 -0.69916,-3.55376 0,0 z" />
  <g
     transform="translate(0.000000,289.000000) scale(0.100000,-0.100000)"
     fill="#000000"
     stroke="none"
     id="g3210">
    <path
       d="M1438 2669 c-22 -49 -112 -140 -179 -178 -44 -25 -65 -31 -116 -31 -66 0 -151 26 -184 56 -18 16 -19 16 -19 -1 0 -10 9 -33 21 -51 26 -43 12 -44 -60 -4 -30 17 -56 30 -59 30 -5 0 47 -91 65 -112 13 -14 11 -17 -14 -22 -98 -18 -144 -16 -206 9 -17 7 -18 6 -3 -30 9 -21 16 -41 16 -45 0 -10 -47 -30 -72 -30 -21 0 -21 0 2 -25 13 -14 49 -33 79 -42 31 -9 64 -26 75 -37 10 -12 30 -29 45 -38 14 -10 21 -18 15 -18 -6 0 -28 11 -48 25 l-37 25 -49 -24 c-179 -90 -318 -235 -410 -427 -69 -146 -84 -217 -84 -424 -1 -210 12 -274 93 -456 145 -324 427 -543 800 -619 255 -52 519 -8 790 130 340 173 548 441 621 800 29 139 25 363 -9 483 -49 177 -159 375 -286 514 -122 135 -351 280 -530 336 -92 28 -155 41 -155 31 0 -4 20 -28 44 -54 42 -45 105 -150 89 -150 -5 1 -19 7 -33 15 -38 22 -42 18 -22 -22 11 -21 29 -69 42 -107 22 -67 23 -69 77 -92 180 -80 330 -231 422 -425 66 -136 76 -190 75 -379 0 -159 -1 -168 -32 -254 -52 -145 -127 -264 -230 -362 -94 -90 -284 -193 -421 -229 -69 -18 -74 -18 -66 -5 3 6 -3 10 -14 10 -30 0 -89 56 -116 110 -22 43 -28 48 -68 53 -41 6 -191 56 -185 62 2 2 28 -3 58 -11 92 -25 245 -29 336 -9 153 33 300 119 409 237 66 72 118 108 157 108 15 0 29 4 32 9 7 11 -17 21 -50 21 -30 0 -30 12 0 86 13 32 32 105 42 161 15 91 16 113 4 201 -12 95 -10 218 5 255 13 32 -11 17 -32 -20 l-22 -38 -26 59 c-59 134 -182 275 -314 363 -139 92 -318 143 -506 143 -60 0 -115 -4 -121 -8 -6 -4 -15 -26 -19 -50 -6 -38 -9 -42 -28 -36 -12 4 -33 13 -47 21 -15 9 -17 12 -5 7 58 -20 63 -18 67 22 4 55 30 65 170 65 131 0 223 -20 349 -76 45 -20 84 -34 86 -31 7 7 -46 136 -73 179 -26 40 -20 46 27 21 17 -8 33 -14 35 -12 7 7 -67 103 -89 115 -12 7 -32 12 -45 13 -21 0 -22 2 -9 28 18 34 30 112 18 112 -5 0 -14 -7 -21 -15 -17 -20 -33 -19 -26 3 3 9 2 40 -2 67 l-8 50 -16 -36z m-89 -275 c2 -2 -7 -4 -20 -4 -13 0 -44 -14 -68 -30 -49 -33 -59 -35 -96 -18 -36 16 -27 30 31 50 43 15 137 16 153 2z m-421 -202 c23 -18 23 -18 -19 -14 -45 5 -45 5 -24 -65 6 -18 3 -23 -11 -23 -15 0 -16 2 -5 9 10 6 11 13 2 29 -33 61 5 104 57 64z m465 -96 c210 -54 389 -189 493 -372 38 -68 74 -165 74 -201 0 -20 -3 -22 -19 -13 -11 5 -31 10 -45 10 -25 0 -25 -1 15 -37 22 -20 47 -49 55 -64 32 -64 7 -226 -56 -358 -57 -119 -172 -234 -291 -290 -46 -22 -111 -47 -144 -56 -72 -18 -231 -18 -300 0 -48 13 -46 14 58 8 l107 -5 0 56 c0 101 46 166 119 166 36 1 36 1 11 14 -73 39 -161 28 -311 -40 -125 -56 -209 -73 -269 -55 -53 16 -114 71 -152 139 -17 29 -32 51 -35 49 -11 -12 54 -203 100 -292 69 -134 149 -217 267 -273 99 -47 172 -63 308 -64 97 -1 97 -1 37 -10 -33 -5 -96 -6 -141 -3 -353 26 -685 253 -826 565 -57 126 -60 211 -13 356 13 44 25 82 25 87 0 4 -18 -5 -40 -19 -22 -15 -42 -25 -44 -23 -10 9 29 158 58 229 47 110 98 184 192 275 89 88 155 131 263 175 73 30 199 60 248 60 27 0 27 -1 -24 -50 -59 -58 -83 -62 -137 -25 l-37 25 6 -22 c9 -30 41 -83 60 -98 8 -7 15 -19 15 -28 0 -19 53 -110 56 -97 2 6 8 30 14 54 14 52 78 124 157 177 30 20 51 40 46 44 -4 5 -35 13 -68 18 l-60 10 66 1 c41 1 103 -8 162 -23z"
       id="path3208" />
  </g>
</svg>
