<?xml version="1.0" standalone="no"?>
<!DOCTYPE svg PUBLIC "-//W3C//DTD SVG 20010904//EN"
 "http://www.w3.org/TR/2001/REC-SVG-20010904/DTD/svg10.dtd">
<svg version="1.0" xmlns="http://www.w3.org/2000/svg"
 width="274.000000pt" height="289.000000pt" viewBox="0 0 274.000000 289.000000"
 preserveAspectRatio="xMidYMid meet">
<metadata>
Created by potrace 1.16, written by Peter Selinger 2001-2019
</metadata>
<g transform="translate(0.000000,289.000000) scale(0.100000,-0.100000)"
fill="#000000" stroke="none">
<path d="M1438 2669 c-22 -49 -112 -140 -179 -178 -44 -25 -65 -31 -116 -31
-66 0 -151 26 -184 56 -18 16 -19 16 -19 -1 0 -10 9 -33 21 -51 26 -43 12 -44
-60 -4 -30 17 -56 30 -59 30 -5 0 47 -91 65 -112 13 -14 11 -17 -14 -22 -98
-18 -144 -16 -206 9 -17 7 -18 6 -3 -30 9 -21 16 -41 16 -45 0 -10 -47 -30
-72 -30 -21 0 -21 0 2 -25 13 -14 49 -33 79 -42 31 -9 64 -26 75 -37 10 -12
30 -29 45 -38 14 -10 21 -18 15 -18 -6 0 -28 11 -48 25 l-37 25 -49 -24 c-179
-90 -318 -235 -410 -427 -69 -146 -84 -217 -84 -424 -1 -210 12 -274 93 -456
145 -324 427 -543 800 -619 255 -52 519 -8 790 130 340 173 548 441 621 800
29 139 25 363 -9 483 -49 177 -159 375 -286 514 -122 135 -351 280 -530 336
-92 28 -155 41 -155 31 0 -4 20 -28 44 -54 42 -45 105 -150 89 -150 -5 1 -19
7 -33 15 -38 22 -42 18 -22 -22 11 -21 29 -69 42 -107 22 -67 23 -69 77 -92
180 -80 330 -231 422 -425 66 -136 76 -190 75 -379 0 -159 -1 -168 -32 -254
-52 -145 -127 -264 -230 -362 -94 -90 -284 -193 -421 -229 -69 -18 -74 -18
-66 -5 3 6 -3 10 -14 10 -30 0 -89 56 -116 110 -22 43 -28 48 -68 53 -41 6
-191 56 -185 62 2 2 28 -3 58 -11 92 -25 245 -29 336 -9 153 33 300 119 409
237 66 72 118 108 157 108 15 0 29 4 32 9 7 11 -17 21 -50 21 -30 0 -30 12 0
86 13 32 32 105 42 161 15 91 16 113 4 201 -12 95 -10 218 5 255 13 32 -11 17
-32 -20 l-22 -38 -26 59 c-59 134 -182 275 -314 363 -139 92 -318 143 -506
143 -60 0 -115 -4 -121 -8 -6 -4 -15 -26 -19 -50 -6 -38 -9 -42 -28 -36 -12 4
-33 13 -47 21 -15 9 -17 12 -5 7 58 -20 63 -18 67 22 4 55 30 65 170 65 131 0
223 -20 349 -76 45 -20 84 -34 86 -31 7 7 -46 136 -73 179 -26 40 -20 46 27
21 17 -8 33 -14 35 -12 7 7 -67 103 -89 115 -12 7 -32 12 -45 13 -21 0 -22 2
-9 28 18 34 30 112 18 112 -5 0 -14 -7 -21 -15 -17 -20 -33 -19 -26 3 3 9 2
40 -2 67 l-8 50 -16 -36z m-89 -275 c2 -2 -7 -4 -20 -4 -13 0 -44 -14 -68 -30
-49 -33 -59 -35 -96 -18 -36 16 -27 30 31 50 43 15 137 16 153 2z m-421 -202
c23 -18 23 -18 -19 -14 -45 5 -45 5 -24 -65 6 -18 3 -23 -11 -23 -15 0 -16 2
-5 9 10 6 11 13 2 29 -33 61 5 104 57 64z m465 -96 c210 -54 389 -189 493
-372 38 -68 74 -165 74 -201 0 -20 -3 -22 -19 -13 -11 5 -31 10 -45 10 -25 0
-25 -1 15 -37 22 -20 47 -49 55 -64 32 -64 7 -226 -56 -358 -57 -119 -172
-234 -291 -290 -46 -22 -111 -47 -144 -56 -72 -18 -231 -18 -300 0 -48 13 -46
14 58 8 l107 -5 0 56 c0 101 46 166 119 166 36 1 36 1 11 14 -73 39 -161 28
-311 -40 -125 -56 -209 -73 -269 -55 -53 16 -114 71 -152 139 -17 29 -32 51
-35 49 -11 -12 54 -203 100 -292 69 -134 149 -217 267 -273 99 -47 172 -63
308 -64 97 -1 97 -1 37 -10 -33 -5 -96 -6 -141 -3 -353 26 -685 253 -826 565
-57 126 -60 211 -13 356 13 44 25 82 25 87 0 4 -18 -5 -40 -19 -22 -15 -42
-25 -44 -23 -10 9 29 158 58 229 47 110 98 184 192 275 89 88 155 131 263 175
73 30 199 60 248 60 27 0 27 -1 -24 -50 -59 -58 -83 -62 -137 -25 l-37 25 6
-22 c9 -30 41 -83 60 -98 8 -7 15 -19 15 -28 0 -19 53 -110 56 -97 2 6 8 30
14 54 14 52 78 124 157 177 30 20 51 40 46 44 -4 5 -35 13 -68 18 l-60 10 66
1 c41 1 103 -8 162 -23z"/>
</g>
</svg>
