<?xml version="1.0" standalone="no"?>
<!DOCTYPE svg PUBLIC "-//W3C//DTD SVG 20010904//EN"
 "http://www.w3.org/TR/2001/REC-SVG-20010904/DTD/svg10.dtd">
<svg version="1.0" xmlns="http://www.w3.org/2000/svg"
 width="300.000000pt" height="276.000000pt" viewBox="0 0 300.000000 276.000000"
 preserveAspectRatio="xMidYMid meet">
<metadata>
Created by potrace 1.16, written by Peter Selinger 2001-2019
</metadata>
<g transform="translate(0.000000,276.000000) scale(0.100000,-0.100000)"
fill="#000000" stroke="none">
<path d="M32 2720 c2 -5 59 -107 128 -227 l125 -218 275 -275 c151 -152 389
-387 528 -524 291 -284 272 -241 149 -347 -55 -48 -74 -59 -103 -59 -31 0 -46
-10 -104 -66 -55 -53 -70 -74 -75 -106 -6 -34 -25 -57 -148 -177 -242 -235
-264 -253 -284 -247 -13 4 -28 -4 -49 -25 -35 -38 -81 -59 -129 -59 -49 0 -75
-16 -75 -45 0 -14 -20 -46 -51 -82 l-51 -58 6 -60 c5 -50 2 -66 -15 -94 -24
-40 -20 -48 15 -26 21 14 39 16 94 10 l68 -7 59 46 c37 30 69 46 86 46 31 0
49 23 49 64 0 44 30 104 67 132 24 18 33 32 30 45 -5 19 121 148 316 322 86
75 104 87 135 87 32 0 48 10 110 68 62 58 72 73 72 101 0 29 12 46 84 119 l84
86 246 -239 c135 -131 246 -243 246 -248 0 -6 -8 -19 -17 -29 -16 -18 -14 -21
27 -63 64 -66 88 -72 160 -46 68 25 90 19 115 -28 8 -16 30 -38 48 -49 19 -11
42 -33 52 -49 9 -16 30 -36 46 -45 16 -10 34 -28 40 -42 7 -15 26 -30 45 -36
38 -13 39 -15 19 -50 -44 -78 20 -191 117 -206 27 -5 49 0 83 16 34 17 49 20
58 11 36 -36 91 10 63 54 -14 21 -13 26 5 61 25 50 24 93 -4 135 -48 71 -126
98 -191 64 -37 -19 -33 -21 -50 20 -9 20 -26 39 -39 44 -14 5 -34 25 -46 44
-12 19 -34 40 -50 47 -17 7 -35 25 -42 42 -8 19 -25 36 -45 44 -52 22 -59 45
-34 116 12 34 18 69 14 81 -8 24 -92 117 -107 117 -6 0 -19 -7 -28 -16 -17
-16 -23 -12 -96 54 -43 39 -151 144 -241 235 l-163 164 34 30 c21 19 51 33 78
37 36 6 55 18 102 64 37 36 57 65 57 80 0 61 54 112 120 112 33 0 42 4 52 24
7 17 22 27 48 31 20 3 51 15 68 25 28 17 32 25 32 65 0 55 16 65 111 70 65 4
72 7 127 51 59 49 143 94 175 94 23 0 59 -19 74 -39 8 -11 16 -13 26 -6 8 6
26 18 41 29 14 10 43 24 63 31 27 9 40 21 46 41 5 16 23 44 40 61 30 32 30 33
15 65 -32 66 -78 118 -127 143 -61 30 -67 39 -47 70 21 32 32 31 60 -1 l23
-27 47 45 47 46 -25 20 c-32 25 -32 28 0 55 l25 22 -40 43 c-22 23 -45 42 -50
42 -5 0 -18 -12 -29 -26 l-19 -27 -22 32 -23 31 -48 -42 -48 -43 26 -28 27
-29 -24 -19 c-13 -10 -27 -19 -32 -19 -4 0 -22 27 -40 60 -23 44 -49 73 -92
105 -32 25 -65 45 -71 45 -7 0 -23 -11 -36 -25 -13 -14 -41 -30 -61 -35 -31
-9 -40 -17 -49 -47 -7 -19 -28 -52 -46 -73 l-34 -37 25 -23 c51 -48 26 -126
-75 -233 -57 -62 -60 -67 -60 -116 0 -28 -7 -68 -15 -87 -14 -34 -17 -36 -50
-30 -19 4 -44 2 -55 -4 -25 -13 -50 -61 -50 -95 0 -19 -7 -28 -27 -36 -35 -13
-43 -26 -43 -70 0 -50 -54 -99 -107 -99 -29 0 -46 -9 -87 -47 -58 -54 -75 -79
-76 -111 0 -12 -17 -41 -39 -64 l-38 -42 -522 511 c-426 417 -533 517 -584
544 -34 18 -144 79 -245 135 -101 57 -182 99 -180 94z m2512 -181 c61 -48 72
-115 27 -160 -45 -45 -101 -35 -101 18 0 13 -6 24 -12 25 -7 0 -17 2 -23 3 -5
2 -16 3 -22 4 -30 3 -3 99 34 120 29 17 68 13 97 -10z m165 -123 c8 -10 9 -16
1 -21 -13 -8 -30 3 -30 21 0 18 14 18 29 0z m40 -111 c41 -21 81 -72 81 -104
0 -32 -32 -66 -78 -82 -39 -13 -59 -1 -64 39 -2 19 -10 28 -26 30 -52 8 -48
87 7 117 33 18 46 18 80 0z m-687 -387 c-18 -19 -22 -20 -22 -6 0 9 8 21 17
27 27 15 29 3 5 -21z m126 -105 c-2 -10 -14 -20 -28 -22 -25 -3 -25 -3 -6 18
23 26 39 27 34 4z"/>
</g>
</svg>
