<?xml version="1.0" encoding="UTF-8" standalone="no"?>
<svg
   xmlns:dc="http://purl.org/dc/elements/1.1/"
   xmlns:cc="http://creativecommons.org/ns#"
   xmlns:rdf="http://www.w3.org/1999/02/22-rdf-syntax-ns#"
   xmlns:svg="http://www.w3.org/2000/svg"
   xmlns="http://www.w3.org/2000/svg"
   xmlns:sodipodi="http://sodipodi.sourceforge.net/DTD/sodipodi-0.dtd"
   xmlns:inkscape="http://www.inkscape.org/namespaces/inkscape"
   version="1.0"
   width="297.50415pt"
   height="294.71414pt"
   viewBox="0 0 297.50415 294.71414"
   preserveAspectRatio="xMidYMid meet"
   id="svg4645"
   sodipodi:docname="ventrueantitribu.svg"
   inkscape:version="1.0.1 (3bc2e813f5, 2020-09-07)">
  <defs
     id="defs4649" />
  <sodipodi:namedview
     pagecolor="#ffffff"
     bordercolor="#666666"
     borderopacity="1"
     objecttolerance="10"
     gridtolerance="10"
     guidetolerance="10"
     inkscape:pageopacity="0"
     inkscape:pageshadow="2"
     inkscape:window-width="1600"
     inkscape:window-height="837"
     id="namedview4647"
     showgrid="false"
     fit-margin-top="0"
     fit-margin-left="0"
     fit-margin-right="0"
     fit-margin-bottom="0"
     inkscape:zoom="1.2252454"
     inkscape:cx="93.042215"
     inkscape:cy="186.85315"
     inkscape:window-x="-8"
     inkscape:window-y="-8"
     inkscape:window-maximized="1"
     inkscape:current-layer="svg4645" />
  <metadata
     id="metadata4629">
Created by potrace 1.16, written by Peter Selinger 2001-2019
<rdf:RDF>
  <cc:Work
     rdf:about="">
    <dc:format>image/svg+xml</dc:format>
    <dc:type
       rdf:resource="http://purl.org/dc/dcmitype/StillImage" />
    <dc:title></dc:title>
  </cc:Work>
</rdf:RDF>
</metadata>
  <path
     id="path5249"
     style="fill:#ffffff;stroke-width:0.153031"
     d="m 220.1949,35.196779 c -7.21297,0.278957 -14.02795,4.893219 -16.9331,11.506093 -3.18112,6.801225 -1.95565,15.36898 3.04009,20.981296 4.394,5.135016 11.54536,7.743708 18.20518,6.497732 7.44384,-1.292836 13.838,-7.217482 15.59244,-14.581705 1.91895,-7.329079 -0.90487,-15.603613 -6.91023,-20.224988 -3.64957,-2.897036 -8.34422,-4.379977 -12.99438,-4.178428 z M 232.89466,17.19156 c -3.12317,0.520582 -6.15523,0.903151 -9.32435,0.970611 -2.37197,0.02272 -4.62452,1.602157 -6.80132,1.659374 -9.49881,-3.264343 -21.36045,1.41019 -24.8256,11.113706 -2.75459,5.794441 -0.5394,12.138177 -0.62342,18.214164 0.95937,4.646451 -0.29185,9.298608 -0.34275,13.986146 -2.52062,10.076868 4.62573,21.200647 14.86454,23.011515 6.59629,1.368555 13.29397,-1.0734 19.50084,-2.73231 6.5358,1.025677 13.26024,0.326122 19.76953,-0.57165 9.20918,-2.40261 15.47263,-12.309971 13.52213,-21.648625 -0.48332,-2.60896 -1.90883,-5.098909 -0.52437,-7.663321 0.85322,-4.079649 0.16398,-8.193524 0.98318,-12.281716 -0.0427,-8.631081 -6.38462,-15.398699 -12.91661,-20.224084 -3.85813,-2.681569 -8.57957,-4.099265 -13.2818,-3.83381 z m -10.04821,20.12602 c 10.28533,0.749342 18.08948,11.690516 15.45524,21.658266 -1.20533,4.903033 -4.63676,9.76101 -9.40796,11.53148 -4.51494,-0.310995 -9.1047,-2.327052 -11.89311,-5.991255 2.20269,3.118115 5.09505,5.786448 8.54175,7.467263 -10.41729,3.082145 -22.15945,-5.55763 -22.14915,-16.451866 -0.18996,-2.93577 0.26948,-5.248527 1.83028,-1.458381 2.06052,2.964759 4.90927,5.354408 8.15297,6.931265 -4.56295,-2.37744 -8.49465,-7.156726 -8.83875,-12.304304 2.67769,-7.375449 10.52697,-12.170772 18.30873,-11.382468 z M 52.031847,207.61396 c -8.474208,0.23965 -15.351683,6.45445 -19.031803,13.69781 -3.442218,4.94557 -5.579078,10.84555 -4.835654,16.93195 -0.874322,3.87882 -2.392038,7.92426 -1.601923,12.04309 1.031632,10.7144 11.962848,18.87598 22.526605,17.07455 2.973057,-0.31332 5.618212,-2.01751 8.649108,-1.23003 8.351823,0.32948 15.09057,-5.18545 21.275741,-10.03299 8.370735,-3.74833 13.307977,-13.85313 10.358925,-22.6667 -1.201605,-3.80398 -3.670928,-7.05441 -5.3181,-10.66986 -3.546608,-6.00504 -10.336286,-9.03509 -17.01905,-9.87855 -4.277862,-3.35056 -9.466769,-5.58158 -15.003849,-5.26927 z M 235.71232,65.142499 c -11.4358,0.985922 -23.66842,0.539142 -33.84319,6.726708 -3.93749,2.086784 -7.12713,5.414554 -10.47012,8.140484 -6.59069,1.41492 -12.00969,6.29559 -14.9387,12.261127 -5.80636,3.391328 -9.47161,9.253842 -12.55309,15.013992 -2.37726,2.34395 -5.83434,3.38136 -7.89593,6.14704 -4.53969,5.69009 -7.38081,12.60077 -12.25122,18.096 -8.34274,9.87467 -16.72366,19.77533 -25.93972,28.85121 -3.76062,3.08307 -8.78616,4.86035 -11.06709,9.49011 -1.98058,3.58004 -5.57224,6.13583 -6.878682,10.20138 -7.82979,11.48946 -17.474205,21.59913 -27.191727,31.48458 -6.947413,7.45851 -7.346451,20.00234 -0.367927,27.57192 2.7191,3.50444 7.005874,5.43335 10.173132,8.25761 4.432365,11.62797 17.658634,19.27948 29.921954,16.28241 2.60599,-0.48211 5.02023,-2.068 7.66456,-0.76549 2.63329,-0.11537 3.87067,1.37272 4.23133,3.83346 2.49621,6.47525 3.80082,13.48337 7.33562,19.50457 6.53859,10.01925 22.24663,11.38312 30.56057,2.86668 6.20555,-6.29742 7.44655,-15.51217 10.63152,-23.4168 0.11429,-2.54184 2.3288,-2.71344 4.38104,-3.0573 3.12884,-0.78238 6.22771,1.26765 9.46967,0.85931 10.4113,0.32462 21.05639,-5.51017 25.08508,-15.36089 1.7846,-2.51165 3.90095,-0.85044 5.96948,0.27636 8.57022,4.017 17.43295,10.22339 27.38353,8.31435 10.29084,-1.72314 17.5978,-12.72526 15.29675,-22.87979 -2.20863,-8.22834 -6.77084,-15.6046 -10.16871,-23.37907 -0.4574,-1.76343 3.33607,-1.77186 4.38407,-3.1503 10.60451,-6.469 14.34237,-20.82141 10.21307,-32.16934 0.0561,-2.71642 1.14093,-4.50734 3.95205,-4.76984 6.84141,-2.71928 14.30624,-4.24837 20.51807,-8.31963 9.08845,-6.25507 11.03092,-20.37732 3.69361,-28.70478 -5.94945,-7.12379 -16.06093,-8.41272 -24.01078,-11.57023 -1.93544,-0.44954 -3.64088,-1.13053 -3.49187,-3.41732 -1.30368,-3.36864 1.46166,-6.37881 1.53183,-9.79714 1.51434,-9.674072 -2.90123,-19.971047 -11.00433,-25.485744 -0.17784,-10.464998 -9.95763,-18.909353 -20.32385,-17.935637 z m -73.96251,45.665031 c 1.23762,-0.61669 2.56577,-0.82641 0,0 z m -2.87176,1.50055 c 0.64885,-0.49147 0.57367,-0.35969 0,0 z m -8.1199,12.60634 c -0.001,-0.019 0.0195,-0.15232 0,0 z M 143.22325,0.405646 c -7.58631,1.578399 -13.22542,8.0361926 -14.90644,15.444417 -1.16445,3.58354 -2.32119,7.169586 -3.49077,10.751449 -3.49949,0.338285 -7.14364,2.436662 -10.47936,0.569789 -9.17936,-3.3051 -19.773784,0.0104 -26.064829,7.301568 -2.47563,2.543478 -4.390553,5.621703 -5.83821,8.816493 C 74.22416,39.626 66.342207,34.097311 57.098225,33.628332 47.021236,33.185076 37.749988,41.654449 37.274337,51.721819 c -0.531405,8.313498 4.725879,15.35275 7.888827,22.645181 0.596596,1.749843 2.828388,3.636751 0.923955,5.193501 -11.090711,3.269242 -19.224744,14.589382 -18.177414,26.212769 -0.153798,3.76082 1.179403,7.43945 2.246515,10.86617 -0.579222,2.00745 -0.06255,4.99971 -2.883983,5.0742 -8.18855,3.24085 -18.152179,4.52461 -23.6334632,12.20918 -6.8458461,9.50811 -3.7769198,24.96087 7.0611662,30.11037 6.156871,2.56462 12.581364,4.41231 18.828672,6.7035 0.488242,2.35513 1.433605,4.72007 0.117508,6.97186 -3.903512,12.49269 3.169896,27.51145 15.637885,31.87938 1.423018,2.3504 3.357793,4.45345 3.360766,7.35009 2.121852,9.57962 12.256737,16.11907 21.867982,14.49459 12.313808,-1.7204 20.610818,-12.01761 28.475865,-20.64086 5.998452,-7.11665 12.847882,-13.74287 17.292302,-21.99769 1.18888,-2.43611 1.71305,-5.20516 2.0399,-7.80965 10.247,-2.73607 16.76414,-11.82403 23.70262,-19.16894 7.09813,-8.30454 14.83321,-16.14141 21.10159,-25.10891 2.26231,-3.52404 4.35708,-7.164 6.21716,-10.91379 5.99818,-2.55165 10.96129,-7.62336 12.8625,-13.91668 2.74169,-2.43701 4.11766,-6.09063 5.66392,-9.12719 6.42038,-3.559812 9.48588,-10.603024 11.30967,-17.360337 3.12478,-6.040942 8.50832,-11.018784 9.76501,-17.981286 1.40373,-5.373354 0.63278,-11.066037 -0.25954,-16.351386 3.60698,-9.75679 -1.64509,-21.793071 -11.57223,-25.254405 -6.52319,-2.697656 -13.81671,-0.9284 -19.88952,2.096843 -1.59608,-0.659973 -3.99648,-0.382458 -5.12806,-1.528718 C 168.89489,18.094218 167.26337,7.9625841 159.01331,2.9933619 154.31863,-0.00616962 148.61187,-0.49498707 143.22325,0.405646 Z" />
  <g
     transform="matrix(0.1,0,0,-0.1,1.0821333,293.82015)"
     fill="#000000"
     stroke="none"
     id="g4643">
    <path
       d="m 1426,2653 -47,-142 -37,-6 c -20,-3 -74,-14 -119,-24 -80,-19 -82,-19 -121,0 -30,15 -45,17 -65,10 -30,-12 -57,-48 -57,-77 0,-15 -21,-35 -77,-72 l -76,-50 -149,74 c -81,41 -148,72 -148,69 0,-3 32,-69 72,-148 l 71,-144 -57,-87 c -53,-78 -61,-86 -90,-86 -66,0 -99,-78 -56,-133 20,-25 20,-26 1,-109 -11,-45 -21,-96 -23,-112 -3,-29 -8,-31 -155,-80 -84,-28 -153,-53 -153,-56 0,-3 69,-28 153,-56 137,-45 152,-53 155,-75 2,-13 12,-61 23,-106 19,-76 19,-85 5,-105 -38,-53 -6,-128 54,-128 23,0 33,-7 46,-32 9,-18 32,-54 50,-81 19,-26 34,-51 34,-55 0,-4 -15,-23 -34,-41 -25,-24 -46,-35 -78,-38 -43,-5 -45,-7 -56,-48 -6,-23 -22,-56 -35,-71 -32,-39 -40,-66 -27,-99 8,-22 7,-30 -5,-39 -22,-16 -24,-85 -3,-99 14,-9 24,-6 50,13 27,20 43,24 84,22 46,-3 54,0 96,38 25,22 55,40 67,40 26,0 38,42 22,77 -14,31 -5,43 47,67 l 38,17 68,-45 c 37,-26 72,-46 77,-46 5,0 9,-13 9,-29 0,-45 35,-81 77,-81 20,0 45,7 55,16 17,16 24,15 110,-4 51,-12 104,-23 117,-24 22,-3 30,-18 79,-168 l 55,-165 56,168 c 46,138 59,167 75,167 10,0 59,9 108,21 69,16 92,18 103,9 21,-18 83,-15 105,5 10,9 22,30 25,45 5,21 27,41 89,83 l 83,55 153,-79 c 85,-43 156,-77 157,-75 2,2 -31,74 -74,160 -66,132 -76,159 -66,174 7,9 30,45 50,79 32,52 43,63 66,63 39,0 67,32 67,79 0,23 -6,44 -16,52 -9,8 -13,20 -9,33 3,12 14,59 24,106 l 18,85 164,56 c 144,50 161,58 139,67 -14,5 -85,29 -159,53 -100,33 -135,49 -141,64 -4,11 -17,63 -28,115 -19,93 -19,95 -1,119 41,52 5,131 -60,131 -24,0 -34,8 -54,43 l -25,42 22,8 c 12,4 30,22 39,40 9,17 23,47 32,65 14,29 19,32 60,32 25,0 45,4 45,8 0,4 -20,18 -44,29 -39,20 -46,28 -63,82 -17,50 -18,63 -7,83 16,28 18,65 4,73 -6,4 -3,16 10,32 24,31 25,43 4,43 -9,0 -32,17 -51,37 -34,38 -34,38 -62,21 -19,-10 -32,-13 -39,-6 -11,11 -45,-3 -79,-35 l -22,-20 -61,46 -61,45 -44,-29 c -24,-16 -57,-32 -74,-35 -31,-7 -54,-32 -49,-55 2,-6 -10,-15 -26,-20 -15,-4 -36,-15 -45,-23 -16,-15 -25,-14 -96,4 -43,11 -91,20 -106,20 -15,0 -31,6 -36,12 -4,7 -29,73 -54,148 l -46,135 z m 670,-82 c 42,-30 94,-86 94,-102 0,-5 7,-9 15,-9 22,0 18,31 -5,37 -27,7 -26,11 12,50 37,39 53,41 62,11 6,-23 7,-23 31,7 l 25,30 36,-37 37,-36 -32,-16 c -30,-16 -34,-36 -7,-36 32,0 36,-26 9,-58 -31,-38 -45,-40 -66,-9 -14,21 -16,21 -23,3 -8,-20 21,-50 38,-40 5,3 20,3 33,0 18,-5 26,-15 31,-44 3,-20 15,-52 25,-69 10,-18 14,-33 9,-33 -5,0 -19,-21 -32,-47 -40,-83 -32,-78 -127,-78 -107,-1 -180,-30 -231,-94 -27,-33 -40,-41 -67,-41 -27,0 -35,-5 -46,-32 -18,-42 -43,-64 -93,-81 -31,-11 -39,-19 -39,-38 0,-24 -2,-24 -47,-12 -20,6 -60,-78 -56,-117 2,-16 -2,-24 -10,-22 -41,8 -169,-88 -240,-181 -23,-29 -80,-94 -127,-143 -65,-68 -85,-95 -85,-117 0,-16 -5,-37 -11,-48 -7,-15 -7,-24 1,-34 21,-26 3,-51 -38,-53 -117,-4 -132,-15 -248,-159 -43,-54 -96,-117 -117,-140 -21,-23 -36,-46 -33,-52 3,-5 -10,-28 -30,-52 -32,-39 -35,-47 -29,-85 5,-37 3,-43 -15,-49 -11,-4 -41,-24 -66,-46 -48,-41 -63,-46 -95,-28 -17,9 -28,6 -60,-15 -21,-14 -41,-26 -44,-26 -12,0 -4,40 11,55 12,12 15,26 10,60 -6,40 -3,49 29,97 21,30 34,60 32,70 -4,13 1,18 14,18 31,0 88,27 125,60 19,16 41,30 48,30 16,0 83,68 204,209 72,84 88,108 80,121 -8,12 -6,25 6,49 16,30 16,34 1,51 -20,22 -4,36 24,21 15,-8 27,-5 55,14 20,14 47,25 59,25 17,0 64,47 177,176 85,96 160,185 166,197 57,110 55,104 39,117 -16,13 -21,40 -7,40 4,0 13,-4 20,-9 9,-5 32,-1 60,9 43,16 47,21 50,54 3,28 9,39 28,46 17,7 24,17 24,35 0,54 41,102 81,93 8,-2 19,20 29,59 11,39 29,76 50,99 18,21 38,51 45,67 14,34 5,102 -18,124 -13,14 -13,17 4,34 10,10 21,31 25,46 10,49 13,53 36,54 13,0 39,11 58,24 45,31 49,31 96,-4 z"
       id="path4631" />
    <path
       d="m 1990,2453 c -22,-29 -24,-80 -2,-75 6,1 18,3 25,5 7,1 13,-10 15,-26 3,-21 8,-27 19,-23 8,3 18,6 23,6 13,0 31,65 24,86 -21,58 -70,71 -104,27 z m 76,-27 c 3,-14 2,-35 -2,-48 l -8,-23 -6,25 c -4,16 -14,26 -28,28 -12,2 -22,5 -22,7 0,40 56,49 66,11 z"
       id="path4633" />
    <path
       d="m 2190,2390 c 0,-5 5,-10 10,-10 6,0 10,5 10,10 0,6 -4,10 -10,10 -5,0 -10,-4 -10,-10 z"
       id="path4635" />
    <path
       d="m 2171,2274 c -27,-34 -27,-54 0,-54 12,0 23,-8 26,-20 7,-27 35,-25 72,6 37,30 39,57 9,78 -35,25 -83,20 -107,-10 z"
       id="path4637" />
    <path
       d="m 1747,2003 c -10,-9 -9,-23 2,-23 5,0 11,7 15,15 5,15 -5,20 -17,8 z"
       id="path4639" />
    <path
       d="m 1827,1930 c -11,-16 -13,-26 -6,-29 16,-5 31,14 27,35 -3,17 -5,16 -21,-6 z"
       id="path4641" />
  </g>
</svg>
