<?xml version="1.0" standalone="no"?>
<!DOCTYPE svg PUBLIC "-//W3C//DTD SVG 20010904//EN"
 "http://www.w3.org/TR/2001/REC-SVG-20010904/DTD/svg10.dtd">
<svg version="1.0" xmlns="http://www.w3.org/2000/svg"
 width="295.000000pt" height="290.000000pt" viewBox="0 0 295.000000 290.000000"
 preserveAspectRatio="xMidYMid meet">
<metadata>
Created by potrace 1.16, written by Peter Selinger 2001-2019
</metadata>
<g transform="translate(0.000000,290.000000) scale(0.100000,-0.100000)"
fill="#000000" stroke="none">
<path d="M1426 2653 l-47 -142 -37 -6 c-20 -3 -74 -14 -119 -24 -80 -19 -82
-19 -121 0 -30 15 -45 17 -65 10 -30 -12 -57 -48 -57 -77 0 -15 -21 -35 -77
-72 l-76 -50 -149 74 c-81 41 -148 72 -148 69 0 -3 32 -69 72 -148 l71 -144
-57 -87 c-53 -78 -61 -86 -90 -86 -66 0 -99 -78 -56 -133 20 -25 20 -26 1
-109 -11 -45 -21 -96 -23 -112 -3 -29 -8 -31 -155 -80 -84 -28 -153 -53 -153
-56 0 -3 69 -28 153 -56 137 -45 152 -53 155 -75 2 -13 12 -61 23 -106 19 -76
19 -85 5 -105 -38 -53 -6 -128 54 -128 23 0 33 -7 46 -32 9 -18 32 -54 50 -81
19 -26 34 -51 34 -55 0 -4 -15 -23 -34 -41 -25 -24 -46 -35 -78 -38 -43 -5
-45 -7 -56 -48 -6 -23 -22 -56 -35 -71 -32 -39 -40 -66 -27 -99 8 -22 7 -30
-5 -39 -22 -16 -24 -85 -3 -99 14 -9 24 -6 50 13 27 20 43 24 84 22 46 -3 54
0 96 38 25 22 55 40 67 40 26 0 38 42 22 77 -14 31 -5 43 47 67 l38 17 68 -45
c37 -26 72 -46 77 -46 5 0 9 -13 9 -29 0 -45 35 -81 77 -81 20 0 45 7 55 16
17 16 24 15 110 -4 51 -12 104 -23 117 -24 22 -3 30 -18 79 -168 l55 -165 56
168 c46 138 59 167 75 167 10 0 59 9 108 21 69 16 92 18 103 9 21 -18 83 -15
105 5 10 9 22 30 25 45 5 21 27 41 89 83 l83 55 153 -79 c85 -43 156 -77 157
-75 2 2 -31 74 -74 160 -66 132 -76 159 -66 174 7 9 30 45 50 79 32 52 43 63
66 63 39 0 67 32 67 79 0 23 -6 44 -16 52 -9 8 -13 20 -9 33 3 12 14 59 24
106 l18 85 164 56 c144 50 161 58 139 67 -14 5 -85 29 -159 53 -100 33 -135
49 -141 64 -4 11 -17 63 -28 115 -19 93 -19 95 -1 119 41 52 5 131 -60 131
-24 0 -34 8 -54 43 l-25 42 22 8 c12 4 30 22 39 40 9 17 23 47 32 65 14 29 19
32 60 32 25 0 45 4 45 8 0 4 -20 18 -44 29 -39 20 -46 28 -63 82 -17 50 -18
63 -7 83 16 28 18 65 4 73 -6 4 -3 16 10 32 24 31 25 43 4 43 -9 0 -32 17 -51
37 -34 38 -34 38 -62 21 -19 -10 -32 -13 -39 -6 -11 11 -45 -3 -79 -35 l-22
-20 -61 46 -61 45 -44 -29 c-24 -16 -57 -32 -74 -35 -31 -7 -54 -32 -49 -55 2
-6 -10 -15 -26 -20 -15 -4 -36 -15 -45 -23 -16 -15 -25 -14 -96 4 -43 11 -91
20 -106 20 -15 0 -31 6 -36 12 -4 7 -29 73 -54 148 l-46 135 -47 -142z m670
-82 c42 -30 94 -86 94 -102 0 -5 7 -9 15 -9 22 0 18 31 -5 37 -27 7 -26 11 12
50 37 39 53 41 62 11 6 -23 7 -23 31 7 l25 30 36 -37 37 -36 -32 -16 c-30 -16
-34 -36 -7 -36 32 0 36 -26 9 -58 -31 -38 -45 -40 -66 -9 -14 21 -16 21 -23 3
-8 -20 21 -50 38 -40 5 3 20 3 33 0 18 -5 26 -15 31 -44 3 -20 15 -52 25 -69
10 -18 14 -33 9 -33 -5 0 -19 -21 -32 -47 -40 -83 -32 -78 -127 -78 -107 -1
-180 -30 -231 -94 -27 -33 -40 -41 -67 -41 -27 0 -35 -5 -46 -32 -18 -42 -43
-64 -93 -81 -31 -11 -39 -19 -39 -38 0 -24 -2 -24 -47 -12 -20 6 -60 -78 -56
-117 2 -16 -2 -24 -10 -22 -41 8 -169 -88 -240 -181 -23 -29 -80 -94 -127
-143 -65 -68 -85 -95 -85 -117 0 -16 -5 -37 -11 -48 -7 -15 -7 -24 1 -34 21
-26 3 -51 -38 -53 -117 -4 -132 -15 -248 -159 -43 -54 -96 -117 -117 -140 -21
-23 -36 -46 -33 -52 3 -5 -10 -28 -30 -52 -32 -39 -35 -47 -29 -85 5 -37 3
-43 -15 -49 -11 -4 -41 -24 -66 -46 -48 -41 -63 -46 -95 -28 -17 9 -28 6 -60
-15 -21 -14 -41 -26 -44 -26 -12 0 -4 40 11 55 12 12 15 26 10 60 -6 40 -3 49
29 97 21 30 34 60 32 70 -4 13 1 18 14 18 31 0 88 27 125 60 19 16 41 30 48
30 16 0 83 68 204 209 72 84 88 108 80 121 -8 12 -6 25 6 49 16 30 16 34 1 51
-20 22 -4 36 24 21 15 -8 27 -5 55 14 20 14 47 25 59 25 17 0 64 47 177 176
85 96 160 185 166 197 57 110 55 104 39 117 -16 13 -21 40 -7 40 4 0 13 -4 20
-9 9 -5 32 -1 60 9 43 16 47 21 50 54 3 28 9 39 28 46 17 7 24 17 24 35 0 54
41 102 81 93 8 -2 19 20 29 59 11 39 29 76 50 99 18 21 38 51 45 67 14 34 5
102 -18 124 -13 14 -13 17 4 34 10 10 21 31 25 46 10 49 13 53 36 54 13 0 39
11 58 24 45 31 49 31 96 -4z"/>
<path d="M1990 2453 c-22 -29 -24 -80 -2 -75 6 1 18 3 25 5 7 1 13 -10 15 -26
3 -21 8 -27 19 -23 8 3 18 6 23 6 13 0 31 65 24 86 -21 58 -70 71 -104 27z
m76 -27 c3 -14 2 -35 -2 -48 l-8 -23 -6 25 c-4 16 -14 26 -28 28 -12 2 -22 5
-22 7 0 40 56 49 66 11z"/>
<path d="M2190 2390 c0 -5 5 -10 10 -10 6 0 10 5 10 10 0 6 -4 10 -10 10 -5 0
-10 -4 -10 -10z"/>
<path d="M2171 2274 c-27 -34 -27 -54 0 -54 12 0 23 -8 26 -20 7 -27 35 -25
72 6 37 30 39 57 9 78 -35 25 -83 20 -107 -10z"/>
<path d="M1747 2003 c-10 -9 -9 -23 2 -23 5 0 11 7 15 15 5 15 -5 20 -17 8z"/>
<path d="M1827 1930 c-11 -16 -13 -26 -6 -29 16 -5 31 14 27 35 -3 17 -5 16
-21 -6z"/>
</g>
</svg>
