<?xml version="1.0" standalone="no"?>
<!DOCTYPE svg PUBLIC "-//W3C//DTD SVG 20010904//EN"
 "http://www.w3.org/TR/2001/REC-SVG-20010904/DTD/svg10.dtd">
<svg version="1.0" xmlns="http://www.w3.org/2000/svg"
 width="264.000000pt" height="287.000000pt" viewBox="0 0 264.000000 287.000000"
 preserveAspectRatio="xMidYMid meet">
<metadata>
Created by potrace 1.16, written by Peter Selinger 2001-2019
</metadata>
<g transform="translate(0.000000,287.000000) scale(0.100000,-0.100000)"
fill="#000000" stroke="none">
<path d="M2005 2678 c-28 -17 -63 -34 -80 -38 -21 -4 -30 -12 -28 -25 2 -21
-31 -90 -48 -100 -7 -5 -4 -14 9 -29 50 -54 40 -131 -27 -210 -42 -49 -52 -70
-66 -133 -17 -74 -17 -74 -45 -68 -21 5 -34 1 -49 -14 -19 -19 -41 -79 -41
-113 0 -10 -9 -18 -22 -20 -17 -2 -24 -11 -26 -33 -5 -59 -12 -75 -32 -75 -11
0 -35 -8 -55 -17 -29 -14 -40 -15 -55 -5 -26 16 -37 -3 -16 -27 19 -20 21 -42
5 -58 -6 -6 -16 -27 -23 -47 -19 -56 -390 -476 -420 -476 -12 0 -44 -14 -70
-31 -41 -27 -51 -30 -72 -20 -32 14 -34 14 -34 -4 0 -8 5 -15 10 -15 15 0 12
-37 -5 -71 -12 -22 -13 -34 -5 -50 12 -22 26 -3 -203 -265 -59 -67 -111 -117
-130 -125 -18 -7 -50 -28 -71 -46 -36 -30 -65 -43 -126 -57 -18 -4 -25 -12
-27 -32 0 -14 -18 -50 -38 -80 -34 -50 -36 -57 -30 -103 6 -43 4 -55 -14 -77
-19 -25 -29 -64 -15 -64 3 0 25 14 49 31 40 29 47 31 74 19 39 -16 66 -6 125
46 26 24 57 44 67 44 20 0 24 28 10 65 -10 24 7 60 43 94 15 15 26 35 26 51 0
16 11 36 26 51 15 13 63 69 107 124 44 55 110 130 146 168 55 56 71 67 99 67
18 0 46 7 63 15 21 11 34 13 48 6 29 -16 48 12 31 44 -10 19 -11 30 -2 50 7
14 12 38 12 53 0 27 76 125 153 197 18 17 56 60 85 97 94 119 222 221 282 224
20 1 24 5 22 23 -4 23 36 131 52 143 6 4 18 2 27 -3 32 -17 48 -11 46 18 -2
23 4 29 47 44 59 22 92 51 106 95 10 30 16 34 60 40 36 5 51 12 55 25 10 30
85 87 144 110 68 25 204 37 225 20 12 -10 17 -6 31 23 9 19 23 40 31 47 8 6
14 17 14 23 0 6 7 24 15 39 12 24 12 32 0 60 -7 18 -20 52 -27 77 -13 44 -14
45 -63 50 -45 4 -50 8 -50 29 0 31 21 39 30 12 9 -30 29 -26 64 12 39 40 39
52 1 66 -40 13 -38 29 5 47 19 8 35 16 35 19 0 9 -75 74 -86 75 -6 0 -16 -11
-22 -25 -14 -30 -38 -33 -47 -5 -9 29 -22 25 -69 -22 l-41 -41 28 -9 c17 -6
27 -17 27 -29 0 -32 -34 -22 -55 17 -16 29 -93 99 -140 127 -6 3 -33 -8 -60
-25z m99 -103 c24 -23 31 -43 27 -90 -3 -30 -57 -75 -90 -75 -38 0 -88 42 -96
80 -7 32 15 83 42 99 33 19 88 13 117 -14z m217 -231 c17 -8 37 -30 45 -50 31
-75 -44 -152 -118 -121 -45 19 -63 43 -63 87 0 40 24 76 60 91 30 12 43 11 76
-7z"/>
</g>
</svg>
