<?xml version="1.0" standalone="no"?>
<!DOCTYPE svg PUBLIC "-//W3C//DTD SVG 20010904//EN"
 "http://www.w3.org/TR/2001/REC-SVG-20010904/DTD/svg10.dtd">
<svg version="1.0" xmlns="http://www.w3.org/2000/svg"
 width="300.000000pt" height="299.000000pt" viewBox="0 0 300.000000 299.000000"
 preserveAspectRatio="xMidYMid meet">
<metadata>
Created by potrace 1.16, written by Peter Selinger 2001-2019
</metadata>
<g transform="translate(0.000000,299.000000) scale(0.100000,-0.100000)"
fill="#000000" stroke="none">
<path d="M1110 2850 c-239 -43 -428 -270 -453 -543 -6 -61 7 -87 42 -87 28 0
36 18 49 110 16 117 63 212 147 299 104 109 223 156 332 132 50 -11 66 -21
114 -70 44 -45 61 -71 77 -122 33 -101 36 -133 17 -183 -9 -24 -14 -50 -10
-56 5 -8 -130 -150 -371 -391 -356 -356 -381 -379 -414 -379 -20 0 -44 -6 -55
-14 -11 -7 -42 -17 -69 -21 -270 -39 -418 -213 -372 -435 48 -230 273 -418
522 -437 82 -6 104 3 104 43 0 28 -31 44 -88 44 -200 1 -430 197 -457 389 -20
147 86 266 270 303 52 10 58 9 67 -6 16 -29 72 -48 104 -35 27 10 38 0 391
-353 200 -200 363 -370 363 -379 0 -9 9 -28 20 -42 11 -14 20 -40 20 -59 0
-53 36 -184 67 -241 74 -137 211 -205 359 -178 235 43 429 270 451 528 7 80
-3 103 -43 103 -29 0 -44 -27 -44 -82 -1 -163 -122 -348 -278 -426 -66 -32
-85 -37 -146 -37 -57 0 -80 5 -116 25 -80 45 -138 147 -159 281 -9 57 -9 64 9
76 10 7 24 30 30 51 9 29 90 115 358 384 190 191 349 345 353 342 13 -7 63 16
79 37 12 15 36 23 90 30 250 35 393 164 393 354 0 252 -228 482 -513 518 -97
12 -120 5 -120 -37 0 -32 19 -46 62 -46 118 0 261 -62 353 -155 150 -149 174
-338 58 -447 -47 -45 -131 -80 -229 -96 -87 -15 -94 -15 -112 1 -10 9 -23 17
-28 17 -5 0 -174 165 -375 366 l-366 366 5 47 c4 43 2 50 -27 74 -24 20 -34
39 -42 81 -47 254 -211 394 -419 356z m756 -962 l361 -363 -4 -41 c-5 -39 -24
-60 -343 -379 -326 -326 -339 -337 -378 -339 l-41 -2 -363 363 -363 363 380
380 c209 209 382 380 385 380 3 0 168 -163 366 -362z"/>
<path d="M1428 1630 c-57 -31 -82 -74 -86 -150 -3 -55 0 -70 20 -99 42 -61 71
-76 151 -76 59 0 78 4 105 23 102 73 92 241 -18 299 -53 28 -121 30 -172 3z"/>
</g>
</svg>
