<?xml version="1.0" encoding="UTF-8" standalone="no"?>
<svg
   xmlns:dc="http://purl.org/dc/elements/1.1/"
   xmlns:cc="http://creativecommons.org/ns#"
   xmlns:rdf="http://www.w3.org/1999/02/22-rdf-syntax-ns#"
   xmlns:svg="http://www.w3.org/2000/svg"
   xmlns="http://www.w3.org/2000/svg"
   xmlns:sodipodi="http://sodipodi.sourceforge.net/DTD/sodipodi-0.dtd"
   xmlns:inkscape="http://www.inkscape.org/namespaces/inkscape"
   version="1.0"
   width="238.000000pt"
   height="238.000000pt"
   viewBox="0 0 238.000000 238.000000"
   preserveAspectRatio="xMidYMid meet"
   id="svg172"
   sodipodi:docname="abombwesup.svg"
   inkscape:version="1.0.1 (3bc2e813f5, 2020-09-07)">
  <defs
     id="defs176" />
  <sodipodi:namedview
     pagecolor="#ffffff"
     bordercolor="#666666"
     borderopacity="1"
     objecttolerance="10"
     gridtolerance="10"
     guidetolerance="10"
     inkscape:pageopacity="0"
     inkscape:pageshadow="2"
     inkscape:window-width="1600"
     inkscape:window-height="837"
     id="namedview174"
     showgrid="false"
     inkscape:zoom="2.1113445"
     inkscape:cx="158.66667"
     inkscape:cy="158.66667"
     inkscape:window-x="-8"
     inkscape:window-y="-8"
     inkscape:window-maximized="1"
     inkscape:current-layer="svg172" />
  <metadata
     id="metadata166">
Created by potrace 1.16, written by Peter Selinger 2001-2019
<rdf:RDF>
  <cc:Work
     rdf:about="">
    <dc:format>image/svg+xml</dc:format>
    <dc:type
       rdf:resource="http://purl.org/dc/dcmitype/StillImage" />
  </cc:Work>
</rdf:RDF>
</metadata>
  <g
     transform="translate(0.000000,238.000000) scale(0.100000,-0.100000)"
     fill="#000000"
     stroke="none"
     id="g170">
    <path
       d="M617 1772 l-577 -577 578 -578 577 -577 580 580 580 580 -575 575 c-316 316 -577 575 -580 575 -3 0 -265 -260 -583 -578z m161 -7 c30 -14 59 -25 64 -25 6 0 23 -11 40 -25 16 -14 38 -25 47 -25 10 0 31 -12 47 -27 l29 -28 199 1 198 2 25 26 c13 14 31 26 39 26 9 0 29 11 46 25 16 14 35 25 43 25 7 0 38 12 69 26 64 29 96 28 112 -3 6 -13 19 -32 30 -44 17 -19 19 -37 19 -168 l0 -146 -32 -44 c-42 -56 -43 -98 -3 -198 17 -41 30 -90 30 -109 0 -31 -33 -121 -61 -164 -5 -8 -18 -33 -29 -55 -11 -22 -24 -47 -29 -55 -6 -8 -16 -28 -23 -45 -10 -24 -20 -30 -43 -30 -26 0 -30 4 -35 35 -4 19 -11 44 -17 55 -51 94 -112 237 -115 270 -3 39 -3 39 40 47 50 8 90 38 126 91 49 72 25 102 -76 95 -52 -4 -63 -9 -98 -43 -50 -49 -63 -88 -58 -178 2 -55 9 -80 26 -104 12 -17 22 -42 22 -55 0 -14 11 -35 25 -48 17 -16 25 -34 25 -57 0 -26 5 -36 24 -42 25 -10 36 -30 36 -66 0 -13 6 -36 14 -52 53 -106 52 -98 30 -138 -20 -37 -101 -125 -116 -125 -4 0 -8 11 -8 25 0 22 -4 25 -39 25 -48 0 -111 34 -111 61 0 10 11 26 24 34 13 9 31 33 40 54 10 27 24 42 45 49 34 12 61 57 61 101 0 22 -8 34 -31 49 l-32 20 -45 -24 c-25 -13 -50 -24 -57 -24 -6 0 -26 -11 -45 -25 -42 -31 -58 -31 -104 0 -20 14 -47 27 -60 31 -13 3 -34 15 -46 26 -21 20 -25 20 -64 6 -38 -14 -41 -18 -44 -54 -4 -50 24 -89 79 -111 31 -12 39 -20 39 -40 0 -15 12 -36 30 -53 38 -35 38 -51 -1 -79 -23 -17 -41 -22 -77 -19 -45 3 -47 2 -52 -27 l-5 -30 -48 50 c-76 81 -81 122 -26 241 10 23 19 58 19 78 0 27 4 36 18 36 11 1 30 27 56 83 22 45 45 89 52 97 16 21 26 177 14 221 -6 23 -25 48 -52 69 -34 28 -52 35 -100 38 -46 4 -63 1 -78 -13 -25 -23 -25 -39 0 -80 30 -49 85 -86 138 -94 28 -4 47 -11 46 -19 -1 -6 -2 -23 -2 -36 -1 -14 -13 -38 -27 -54 -14 -17 -25 -40 -25 -52 0 -13 -11 -33 -25 -46 -18 -17 -25 -33 -25 -62 0 -26 -7 -45 -19 -56 -10 -10 -22 -32 -25 -51 -10 -53 -60 -58 -72 -6 -4 14 -12 33 -20 41 -21 25 -74 131 -95 190 -21 61 -24 125 -8 167 6 15 18 60 25 98 14 70 14 70 -15 130 -46 92 -64 158 -58 212 6 64 33 148 52 163 8 7 15 18 15 24 0 18 22 36 45 36 11 0 44 -11 73 -25z m470 -1376 c17 -6 33 -17 36 -25 4 -10 22 -14 61 -14 33 0 55 -4 55 -11 0 -6 -21 -30 -47 -54 l-48 -43 -105 0 -105 0 -47 43 c-27 24 -48 48 -48 54 0 6 20 11 49 11 31 0 53 5 61 15 24 29 90 41 138 24z"
       id="path168" />
  </g>
  <path
     style="fill:#ffffff;stroke-width:0.473632"
     d="m 121.25306,260.63574 c -5.70555,-6.04455 -8.29675,-9.93501 -9.28435,-13.93967 -0.7084,-2.8725 -0.71193,-3.45664 -0.0408,-6.74762 0.40411,-1.98159 1.8243,-6.30005 3.15598,-9.59659 2.67755,-6.62818 3.78013,-10.67559 3.79071,-13.91513 0.008,-2.47479 0.90448,-4.01561 2.58093,-4.43637 0.64632,-0.16222 1.79548,-1.19895 2.55369,-2.30386 1.13484,-1.65377 6.38958,-11.55678 11.74702,-22.13829 1.34499,-2.65649 2.03669,-7.59722 2.38709,-17.05075 0.39536,-10.66609 -0.39643,-13.98282 -4.40148,-18.4374 -5.39899,-6.00497 -11.23475,-8.29524 -20.39226,-8.00302 -5.1987,0.16589 -6.32609,0.62254 -8.40224,3.40331 -2.24331,3.00468 6.2e-4,8.67323 5.67341,14.33195 3.98066,3.97079 8.53099,6.42569 13.94442,7.52301 6.11075,1.23866 6.15722,1.27493 6.15722,4.80707 0,3.66548 -0.50416,4.94868 -3.90341,9.93502 -1.70658,2.50338 -2.7453,4.57465 -2.969,5.9204 -0.4454,2.67943 -1.14855,4.0066 -3.71685,7.01545 -2.2501,2.63605 -3.14607,5.13591 -3.14607,8.77792 0,2.61554 -0.94084,5.02365 -2.78203,7.12065 -0.75035,0.8546 -1.71016,2.53533 -2.13291,3.73495 -0.42275,1.19963 -1.10935,3.1491 -1.52577,4.33215 -0.82015,2.33004 -2.35381,3.65098 -4.23892,3.65098 -1.76812,0 -2.87094,-1.27255 -4.26543,-4.92189 -0.68782,-1.8 -2.212457,-4.6775 -3.388085,-6.39446 -1.175628,-1.71696 -3.795337,-6.4537 -5.821575,-10.52608 -8.632782,-17.35038 -10.147785,-25.85713 -6.632786,-37.24314 2.000516,-6.4802 3.871005,-15.96634 3.846423,-19.50704 -0.01818,-2.6188 -0.39981,-3.76125 -3.593927,-10.75878 -7.495916,-16.42174 -8.506839,-22.22991 -5.913128,-33.97333 1.402157,-6.348482 3.543534,-11.761858 5.671127,-14.336539 1.03701,-1.254926 1.885473,-2.588762 1.885473,-2.964081 0,-1.321275 1.452396,-3.469111 2.826288,-4.179578 2.617423,-1.353522 5.699659,-0.752354 12.89658,2.515387 1.7444,0.792037 4.70222,1.99218 6.57293,2.666986 1.94608,0.701989 4.92454,2.339321 6.96156,3.826937 2.04654,1.494576 4.62115,2.908433 6.05551,3.325414 2.72217,0.791354 5.51487,2.592942 8.56839,5.527504 l 1.96483,1.888294 26.5577,-0.169817 26.55771,-0.169816 2.97635,-2.94992 c 2.189,-2.169565 3.76609,-3.259418 5.96176,-4.119893 1.64197,-0.643485 4.43432,-2.244095 6.20521,-3.556912 2.06483,-1.53072 4.37369,-2.743342 6.43658,-3.380502 1.76923,-0.546458 5.15671,-1.83933 7.52774,-2.873049 4.96861,-2.166209 9.49182,-3.348254 11.1862,-2.923276 1.91344,0.47992 2.783,1.291516 4.87623,4.551177 1.09112,1.699142 2.58887,3.946859 3.32834,4.994928 1.90707,2.702968 2.17422,5.701731 2.19226,24.607846 l 0.0155,16.24492 -3.14513,4.35806 c -4.02121,5.572 -5.00993,7.8128 -5.26669,11.93617 -0.25697,4.12679 0.53581,7.62274 3.61437,15.93835 4.63146,12.51021 4.83494,14.63186 2.16982,22.62463 -1.84572,5.53537 -3.11607,8.19976 -10.40585,21.82508 -2.29962,4.29821 -4.97434,9.42198 -5.94382,11.38617 -0.96949,1.96418 -2.0965,3.84827 -2.50447,4.18686 -0.91189,0.7568 -4.10228,1.22366 -5.67121,0.82989 -1.34969,-0.33876 -1.45881,-0.57187 -2.91157,-6.21983 -0.73673,-2.86423 -2.41646,-6.90421 -5.12007,-12.31443 -8.422,-16.85338 -12.90045,-29.02945 -11.9987,-32.62229 0.33017,-1.31551 0.79287,-1.53419 5.21596,-2.46516 6.47158,-1.36214 10.86133,-4.20955 15.16279,-9.83536 8.13908,-10.64495 6.42449,-15.47082 -5.49372,-15.46251 -4.81844,0.003 -8.78382,0.61908 -11.14906,1.73116 -2.62802,1.23564 -8.65225,7.50697 -10.39113,10.81734 -2.20725,4.20206 -2.68821,7.51242 -2.39122,16.45821 0.2926,8.81345 0.5996,10.15771 3.43439,15.03831 1.13479,1.95373 2.29004,4.61791 2.56722,5.9204 0.27719,1.30249 0.61075,2.83885 0.74126,3.41415 0.13051,0.57529 1.3043,2.32813 2.60843,3.8952 2.78288,3.34397 3.13948,4.15825 3.57255,8.15792 0.35365,3.26612 1.06072,4.41307 3.29646,5.34723 1.92798,0.80556 3.92158,3.24009 4.20155,5.13079 0.12423,0.83894 0.44444,3.00693 0.71159,4.81774 0.36425,2.46899 1.31486,5.01568 3.80105,10.18308 1.82343,3.78989 3.45162,7.47126 3.61819,8.18082 0.622,2.64965 -4.19209,9.85874 -11.67968,17.49032 -4.93184,5.02666 -5.74695,5.2176 -6.12765,1.43542 -0.28879,-2.86907 -0.83039,-3.38436 -3.56797,-3.39467 -5.28702,-0.0199 -11.09176,-2.03497 -14.35517,-4.98326 -2.89085,-2.61171 -2.71175,-3.70537 1.25728,-7.67732 2.15731,-2.15889 3.8017,-4.379 5.01116,-6.76558 2.25082,-4.44147 2.75541,-4.99703 6.0505,-6.66184 4.96377,-2.50786 7.98806,-7.57352 7.98806,-13.3799 0,-4.01915 -0.8953,-5.26948 -5.99587,-8.37352 l -2.44361,-1.48711 -4.89768,2.60277 c -2.69372,1.43153 -6.24089,3.05036 -7.8826,3.59739 -1.64171,0.54704 -4.81743,2.21412 -7.05716,3.70463 -3.62683,2.41361 -4.33721,2.71002 -6.49479,2.71002 -2.06748,0 -2.95127,-0.32953 -6.02971,-2.24824 -1.98393,-1.23653 -5.07119,-2.90186 -6.86058,-3.70074 -5.37028,-2.39759 -6.1231,-2.8219 -8.51853,-4.80137 -2.10591,-1.74022 -2.46875,-1.87585 -4.33436,-1.62013 -1.11982,0.15349 -3.46761,0.87123 -5.2173,1.59497 -3.92926,1.62532 -4.83712,3.07599 -4.83822,7.73094 -0.002,6.60941 2.91014,10.69303 10.03946,14.08016 4.19817,1.99455 5.58965,3.28616 5.58965,5.18849 0,1.98203 1.26356,4.17283 4.4422,7.70209 3.99374,4.43426 4.12651,5.58933 0.9763,8.4931 -3.48421,3.21163 -5.25718,3.79111 -11.63613,3.80316 -4.06084,0.008 -5.64786,0.17992 -6.04287,0.65587 -0.29463,0.35501 -0.76666,1.90024 -1.04896,3.43383 -0.2823,1.53361 -0.57356,2.85057 -0.64725,2.92659 -0.0737,0.076 -2.10393,-1.94875 -4.51162,-4.4995 z"
     id="path178"
     transform="scale(0.74999998)" />
  <path
     style="fill:#ffffff;stroke-width:0.473632"
     d="m 141.36578,280.40173 c -2.57358,-2.33805 -5.3899,-5.14906 -6.25848,-6.24669 -2.0167,-2.54851 -1.69977,-2.75378 5.0325,-3.25952 5.80915,-0.43639 6.35545,-0.59566 8.55654,-2.49454 3.0795,-2.6567 5.41023,-3.38107 10.91759,-3.3931 4.24291,-0.009 5.34075,0.15525 7.47676,1.12047 1.377,0.62224 2.99199,1.75534 3.58886,2.518 1.30457,1.66693 3.36715,2.22298 8.5901,2.3158 4.60654,0.0819 6.4813,0.45113 6.77523,1.33449 0.13423,0.40339 -2.1612,2.9877 -5.78443,6.51244 l -6.00696,5.84366 h -14.10424 -14.10424 z"
     id="path180"
     transform="scale(0.74999998)" />
</svg>
