<?xml version="1.0" encoding="UTF-8" standalone="no"?>
<svg
   xmlns:dc="http://purl.org/dc/elements/1.1/"
   xmlns:cc="http://creativecommons.org/ns#"
   xmlns:rdf="http://www.w3.org/1999/02/22-rdf-syntax-ns#"
   xmlns:svg="http://www.w3.org/2000/svg"
   xmlns="http://www.w3.org/2000/svg"
   xmlns:sodipodi="http://sodipodi.sourceforge.net/DTD/sodipodi-0.dtd"
   xmlns:inkscape="http://www.inkscape.org/namespaces/inkscape"
   version="1.0"
   width="238.000000pt"
   height="238.000000pt"
   viewBox="0 0 238.000000 238.000000"
   preserveAspectRatio="xMidYMid meet"
   id="svg1948"
   sodipodi:docname="auspexsup.svg"
   inkscape:version="1.0.1 (3bc2e813f5, 2020-09-07)">
  <defs
     id="defs1952" />
  <sodipodi:namedview
     pagecolor="#ffffff"
     bordercolor="#666666"
     borderopacity="1"
     objecttolerance="10"
     gridtolerance="10"
     guidetolerance="10"
     inkscape:pageopacity="0"
     inkscape:pageshadow="2"
     inkscape:window-width="1600"
     inkscape:window-height="837"
     id="namedview1950"
     showgrid="false"
     inkscape:zoom="2.1113445"
     inkscape:cx="158.66667"
     inkscape:cy="158.66667"
     inkscape:window-x="-8"
     inkscape:window-y="-8"
     inkscape:window-maximized="1"
     inkscape:current-layer="svg1948" />
  <metadata
     id="metadata1940">
Created by potrace 1.16, written by Peter Selinger 2001-2019
<rdf:RDF>
  <cc:Work
     rdf:about="">
    <dc:format>image/svg+xml</dc:format>
    <dc:type
       rdf:resource="http://purl.org/dc/dcmitype/StillImage" />
  </cc:Work>
</rdf:RDF>
</metadata>
  <g
     transform="translate(0.000000,238.000000) scale(0.100000,-0.100000)"
     fill="#000000"
     stroke="none"
     id="g1946">
    <path
       d="M612 1777 c-314 -314 -572 -577 -572 -582 0 -13 1142 -1155 1155 -1155 6 0 269 259 585 575 l575 575 -580 580 c-319 319 -582 580 -585 580 -3 0 -263 -258 -578 -573z m340 -193 c-45 -41 -71 -75 -99 -132 -37 -75 -38 -78 -38 -191 0 -110 2 -120 32 -184 42 -88 117 -163 208 -208 67 -33 74 -34 185 -34 111 0 118 1 185 34 90 44 162 116 206 206 33 67 34 74 34 186 l0 117 -41 81 c-41 79 -41 80 -15 66 87 -45 338 -290 357 -348 8 -24 -54 -103 -164 -209 -240 -231 -485 -326 -731 -284 -215 37 -420 168 -618 394 -40 47 -73 90 -73 97 0 7 46 61 101 119 154 161 307 269 457 322 37 13 69 24 71 24 3 0 -23 -25 -57 -56z m431 8 c70 -32 149 -111 183 -185 25 -53 29 -75 29 -147 0 -76 -4 -93 -32 -151 -39 -79 -102 -140 -181 -177 -48 -22 -71 -27 -142 -27 -71 0 -94 5 -142 27 -79 37 -142 98 -181 177 -30 62 -32 72 -33 181 -2 132 8 182 43 228 29 39 91 72 135 72 18 0 51 7 73 15 56 21 185 14 248 -13z"
       id="path1942" />
    <path
       d="M1278 1407 c3 -55 0 -67 -26 -108 -35 -54 -97 -89 -160 -89 -49 0 -51 -7 -17 -66 70 -119 241 -134 333 -28 109 123 50 311 -108 347 -26 6 -26 6 -22 -56z"
       id="path1944" />
  </g>
  <path
     style="fill:#ffffff;stroke-width:0.473632"
     d="m 152.74627,227.03057 c -23.12608,-1.87343 -44.35246,-10.95583 -65.984552,-28.23364 -10.391966,-8.30019 -27.544959,-26.12112 -34.177831,-35.50872 -1.986644,-2.81173 -2.016686,-2.73937 4.075686,-9.81544 17.680467,-20.5352 38.995151,-37.75059 58.049777,-46.88548 5.47917,-2.62675 17.81568,-7.37437 18.18981,-7.000233 0.0937,0.09373 -2.58914,2.880853 -5.96193,6.193613 -7.18707,7.05915 -9.55759,10.22446 -13.49167,18.01516 -4.79717,9.49988 -4.74705,9.23173 -4.74705,25.3982 0,16.0912 0.17961,17.09265 4.61906,25.75385 6.78359,13.23455 18.48343,23.57381 33.5021,29.60613 l 3.08481,1.23902 h 15.15622 c 17.31496,0 16.63215,0.11745 25.50167,-4.38609 12.50992,-6.35197 21.81868,-16.02633 28.02284,-29.12343 3.26433,-6.89107 3.53038,-8.78042 3.5399,-25.13892 l 0.008,-14.12706 -4.85472,-9.3911 c -2.6701,-5.16511 -4.70598,-9.54236 -4.52417,-9.72722 1.39171,-1.41511 17.27859,11.46633 30.96065,25.10359 11.21422,11.17749 18.20332,19.71529 18.20332,22.23696 0,3.00302 -7.42997,12.32402 -18.78088,23.56089 -15.79642,15.63771 -26.82852,23.8716 -42.33407,31.59635 -15.90117,7.92185 -33.4898,11.81366 -48.05719,10.63357 z"
     id="path1954"
     transform="scale(0.74999998)" />
  <path
     style="fill:#ffffff;stroke-width:0.473632"
     d="m 157.48259,196.12027 c -8.42138,-1.11498 -17.09114,-5.64284 -24.59069,-12.84272 -4.69887,-4.5111 -8.08452,-9.23759 -10.94988,-15.28642 -3.42645,-7.2333 -3.69206,-8.99374 -3.6936,-24.48068 -10e-4,-14.92722 0.44461,-18.52489 2.96574,-23.91841 3.59879,-7.69899 11.48283,-13.07428 20.55255,-14.01263 2.38321,-0.24656 6.51652,-1.07421 9.18514,-1.83921 8.21631,-2.35533 19.16153,-2.35408 28.38578,0.003 13.93337,3.56076 29.53551,20.53214 32.42214,35.26751 0.75531,3.85562 0.57471,18.47645 -0.26912,21.78706 -0.92262,3.61974 -5.28233,12.47856 -7.80849,15.86667 -6.55183,8.78738 -16.97673,16.18849 -26.30704,18.67656 -3.28989,0.8773 -15.5299,1.35665 -19.89253,0.77903 z m 16.29146,-18.76288 c 12.27145,-2.89263 21.42182,-14.72919 21.42347,-27.71255 6.9e-4,-5.41593 -0.57512,-8.04766 -2.79293,-12.76524 -3.21958,-6.84842 -10.91739,-13.00313 -18.43303,-14.73795 -4.04441,-0.93357 -3.97811,-1.06418 -3.85972,7.60324 l 0.10337,7.56786 -1.78767,3.522 c -4.53971,8.94395 -12.50488,14.24678 -22.31212,14.85436 -2.34447,0.14524 -4.66091,0.46935 -5.14764,0.72024 -1.41427,0.72901 -0.71153,3.68311 1.91124,8.03424 3.95636,6.56351 9.79485,11.06142 16.73491,12.89238 3.42832,0.90448 10.36936,0.91498 14.16012,0.0214 z"
     id="path1956"
     transform="scale(0.74999998)" />
</svg>
