<?xml version="1.0" encoding="UTF-8" standalone="no"?>
<svg
   xmlns:dc="http://purl.org/dc/elements/1.1/"
   xmlns:cc="http://creativecommons.org/ns#"
   xmlns:rdf="http://www.w3.org/1999/02/22-rdf-syntax-ns#"
   xmlns:svg="http://www.w3.org/2000/svg"
   xmlns="http://www.w3.org/2000/svg"
   xmlns:sodipodi="http://sodipodi.sourceforge.net/DTD/sodipodi-0.dtd"
   xmlns:inkscape="http://www.inkscape.org/namespaces/inkscape"
   version="1.0"
   width="238.000000pt"
   height="238.000000pt"
   viewBox="0 0 238.000000 238.000000"
   preserveAspectRatio="xMidYMid meet"
   id="svg2002"
   sodipodi:docname="celeritysup.svg"
   inkscape:version="1.0.1 (3bc2e813f5, 2020-09-07)">
  <defs
     id="defs2006" />
  <sodipodi:namedview
     pagecolor="#ffffff"
     bordercolor="#666666"
     borderopacity="1"
     objecttolerance="10"
     gridtolerance="10"
     guidetolerance="10"
     inkscape:pageopacity="0"
     inkscape:pageshadow="2"
     inkscape:window-width="1600"
     inkscape:window-height="837"
     id="namedview2004"
     showgrid="false"
     inkscape:zoom="2.1113445"
     inkscape:cx="158.66667"
     inkscape:cy="158.66667"
     inkscape:window-x="-8"
     inkscape:window-y="-8"
     inkscape:window-maximized="1"
     inkscape:current-layer="svg2002" />
  <metadata
     id="metadata1996">
Created by potrace 1.16, written by Peter Selinger 2001-2019
<rdf:RDF>
  <cc:Work
     rdf:about="">
    <dc:format>image/svg+xml</dc:format>
    <dc:type
       rdf:resource="http://purl.org/dc/dcmitype/StillImage" />
  </cc:Work>
</rdf:RDF>
</metadata>
  <g
     transform="translate(0.000000,238.000000) scale(0.100000,-0.100000)"
     fill="#000000"
     stroke="none"
     id="g2000">
    <path
       d="M612 1777 c-314 -314 -572 -574 -572 -577 0 -3 260 -265 578 -583 l577 -577 580 581 580 581 -580 574 c-319 316 -582 574 -585 574 -3 0 -263 -258 -578 -573z m958 56 c-1 -5 -50 -60 -110 -123 l-108 -115 174 -3 c96 -1 174 -6 174 -10 0 -4 -82 -86 -182 -182 l-182 -175 141 -5 141 -5 -299 -343 -299 -342 -90 0 c-50 0 -90 2 -90 5 0 2 81 118 179 257 l180 253 -140 5 -139 5 140 170 141 170 -171 3 c-95 1 -170 6 -168 11 2 5 55 104 118 220 l114 211 238 0 c131 0 238 -3 238 -7z"
       id="path1998" />
  </g>
  <path
     style="fill:#ffffff;stroke-width:0.473632"
     d="m 112.95705,245.80821 c -0.31185,-0.50457 7.63943,-12.00936 32.33752,-46.78953 8.19537,-11.54082 14.82316,-21.05267 14.72842,-21.13744 -0.0947,-0.0848 -8.4099,-0.44647 -18.47815,-0.80376 l -18.30591,-0.64962 11.92261,-14.44577 c 6.55743,-7.94517 14.92805,-18.06906 18.60138,-22.49751 l 6.67877,-8.05174 -5.03179,-0.29497 c -2.76748,-0.16224 -9.40104,-0.32284 -14.74124,-0.3569 -9.94051,-0.0634 -24.59743,-0.81654 -25.06904,-1.28814 -0.14476,-0.14477 0.39242,-1.47256 1.19374,-2.95065 0.80131,-1.4781 7.72659,-14.37597 15.3895,-28.661939 l 13.93256,-25.974485 28.65473,0.322556 c 15.7601,0.177406 29.91061,0.463238 31.44558,0.635182 l 2.79085,0.312625 -4.1701,4.681279 c -2.29355,2.574703 -8.80554,9.608136 -14.47109,15.629851 -8.06768,8.574861 -10.13042,11.018371 -9.51428,11.270511 0.43268,0.17706 5.79536,0.33975 11.91705,0.36153 14.21909,0.0506 32.27337,0.8512 32.88022,1.45804 0.51639,0.51639 -7.77396,8.82432 -32.5623,32.63133 -8.25028,7.92366 -15.00051,14.55605 -15.00051,14.73864 0,0.18259 4.95538,0.49096 11.01194,0.68525 6.05657,0.1943 14.3924,0.48877 18.52408,0.65439 l 7.51213,0.30112 -11.76749,13.49851 c -6.47212,7.42418 -24.29088,27.83179 -39.59724,45.35025 l -27.82976,31.85174 h -11.34266 c -7.1565,0 -11.45222,-0.17728 -11.63952,-0.48035 z"
     id="path2008"
     transform="scale(0.74999998)" />
</svg>
