<?xml version="1.0" encoding="UTF-8" standalone="no"?>
<svg
   xmlns:dc="http://purl.org/dc/elements/1.1/"
   xmlns:cc="http://creativecommons.org/ns#"
   xmlns:rdf="http://www.w3.org/1999/02/22-rdf-syntax-ns#"
   xmlns:svg="http://www.w3.org/2000/svg"
   xmlns="http://www.w3.org/2000/svg"
   xmlns:sodipodi="http://sodipodi.sourceforge.net/DTD/sodipodi-0.dtd"
   xmlns:inkscape="http://www.inkscape.org/namespaces/inkscape"
   version="1.0"
   width="238.000000pt"
   height="238.000000pt"
   viewBox="0 0 238.000000 238.000000"
   preserveAspectRatio="xMidYMid meet"
   id="svg2061"
   sodipodi:docname="chimerstrysup.svg"
   inkscape:version="1.0.1 (3bc2e813f5, 2020-09-07)">
  <defs
     id="defs2065" />
  <sodipodi:namedview
     pagecolor="#ffffff"
     bordercolor="#666666"
     borderopacity="1"
     objecttolerance="10"
     gridtolerance="10"
     guidetolerance="10"
     inkscape:pageopacity="0"
     inkscape:pageshadow="2"
     inkscape:window-width="1600"
     inkscape:window-height="837"
     id="namedview2063"
     showgrid="false"
     inkscape:zoom="2.1113445"
     inkscape:cx="158.66667"
     inkscape:cy="158.66667"
     inkscape:window-x="-8"
     inkscape:window-y="-8"
     inkscape:window-maximized="1"
     inkscape:current-layer="svg2061" />
  <metadata
     id="metadata2055">
Created by potrace 1.16, written by Peter Selinger 2001-2019
<rdf:RDF>
  <cc:Work
     rdf:about="">
    <dc:format>image/svg+xml</dc:format>
    <dc:type
       rdf:resource="http://purl.org/dc/dcmitype/StillImage" />
  </cc:Work>
</rdf:RDF>
</metadata>
  <g
     transform="translate(0.000000,238.000000) scale(0.100000,-0.100000)"
     fill="#000000"
     stroke="none"
     id="g2059">
    <path
       d="M610 1775 l-575 -575 110 -112 c60 -62 319 -323 574 -580 l464 -467 579 571 c318 314 578 576 578 582 0 11 -1140 1156 -1150 1156 -3 0 -264 -259 -580 -575z m717 150 c118 -40 179 -79 278 -179 104 -105 157 -196 201 -341 37 -126 40 -295 6 -405 -90 -289 -376 -490 -699 -490 -165 0 -288 53 -414 179 -71 70 -94 101 -127 171 -53 111 -72 195 -72 311 0 163 47 278 160 389 190 187 504 237 703 111 147 -94 256 -300 257 -486 1 -262 -246 -471 -533 -453 -171 11 -297 124 -352 313 -56 191 10 347 182 432 65 32 86 37 162 41 109 5 172 -18 231 -85 75 -85 110 -238 76 -328 -38 -98 -155 -161 -282 -153 -54 3 -69 9 -95 33 -62 58 -93 172 -65 238 21 53 67 77 143 77 53 0 64 -3 77 -22 36 -51 12 -101 -55 -115 -34 -8 -35 -9 -27 -40 8 -30 12 -33 49 -33 45 0 113 31 123 55 20 54 -5 145 -56 198 l-37 40 -73 -5 c-162 -11 -255 -114 -229 -254 30 -161 124 -254 257 -254 163 0 312 98 350 229 42 142 -30 345 -154 436 -189 139 -523 43 -634 -183 -29 -59 -33 -78 -36 -164 -3 -79 0 -112 19 -174 51 -173 181 -309 334 -349 241 -62 540 74 649 296 50 101 64 191 48 305 -45 307 -258 528 -530 551 -61 5 -81 11 -99 29 -29 29 -29 54 -1 89 21 27 23 28 104 22 48 -3 115 -17 161 -32z"
       id="path2057" />
  </g>
  <path
     style="fill:#ffffff;stroke-width:0.473632"
     d="m 139.41446,248.67925 c -18.29662,-2.11205 -31.4828,-9.04259 -47.315632,-24.86868 -7.899648,-7.89628 -11.533841,-12.82856 -15.338177,-20.81678 -7.254245,-15.23223 -9.626035,-25.28313 -9.677854,-41.0117 -0.03464,-10.51301 0.767949,-16.76201 3.102359,-24.15522 8.810322,-27.90283 39.313754,-50.08541 71.522114,-52.012015 28.65499,-1.714053 48.99743,9.670085 63.50159,35.537075 6.66692,11.8899 10.37529,25.41268 10.37529,37.83406 0,15.97154 -5.98105,29.65755 -18.04297,41.28643 -9.63733,9.29134 -21.18879,15.22479 -34.67347,17.81016 -15.57635,2.9864 -28.43748,1.12843 -40.41039,-5.83785 -4.37077,-2.54308 -12.23661,-10.29156 -15.40694,-15.17707 -4.59492,-7.0808 -8.37468,-16.39619 -10.281534,-25.3393 -1.271648,-5.964 -1.146409,-16.90937 0.252002,-22.02388 3.493952,-12.77868 12.159012,-22.62837 25.993422,-29.54707 5.70178,-2.85151 10.1292,-4.18553 15.99668,-4.81996 6.20435,-0.67085 15.43641,-0.33216 19.4189,0.71242 15.24637,3.99901 26.77653,21.14516 27.56826,40.9959 0.4067,10.19698 -1.55783,15.55256 -8.09404,22.06553 -4.39119,4.37557 -8.05299,6.59752 -14.26427,8.65542 -6.05386,2.00574 -12.12403,2.6701 -18.2788,2.00053 -6.09172,-0.66271 -8.07636,-1.58584 -11.6712,-5.42875 -6.51334,-6.96277 -10.17504,-18.54082 -8.46077,-26.7524 1.25397,-6.00672 4.39517,-9.88652 9.71846,-12.00359 2.32475,-0.92455 3.53495,-1.05318 10.06259,-1.06946 7.26795,-0.0181 7.44639,0.006 8.70646,1.16556 1.529,1.40734 3.52234,5.43716 3.5142,7.10447 -0.01,1.95648 -1.6681,5.00051 -3.47579,6.3793 -0.93468,0.71291 -3.56877,1.87073 -5.85355,2.57294 -3.78879,1.16446 -4.16736,1.38976 -4.30454,2.56183 -0.2167,1.85154 1.21118,6.38463 2.17327,6.89948 3.78757,2.02687 13.17972,0.14755 18.88703,-3.77918 2.77773,-1.91113 3.48393,-3.65479 3.47514,-8.58035 -0.016,-8.9473 -3.00427,-15.60337 -10.56315,-23.52807 l -2.73135,-2.86354 -6.49253,0.46968 c -10.81831,0.7826 -16.95782,2.46215 -22.72263,6.2161 -10.25281,6.67646 -14.01368,18.07879 -10.51727,31.88664 4.03037,15.91657 12.79331,26.08539 25.32647,29.38972 4.07395,1.07408 13.9027,0.97763 19.41891,-0.19056 17.18309,-3.63894 30.87368,-14.59653 35.41864,-28.34816 3.76912,-11.40418 1.83393,-27.62089 -4.88322,-40.92087 -5.67909,-11.24464 -15.37969,-20.45469 -25.34027,-24.05885 -6.68032,-2.41722 -10.58684,-3.05348 -18.69366,-3.04467 -10.41149,0.0113 -18.84097,1.91237 -28.23605,6.36795 -8.57627,4.06727 -17.61417,11.31034 -22.960032,18.40039 -2.913125,3.8636 -6.64869,11.0647 -7.962734,15.34989 -1.937192,6.31732 -2.553399,22.11165 -1.177015,30.16871 3.743458,21.91343 18.716191,42.43182 37.327891,51.15356 8.66382,4.06 16.04677,5.38947 28.1246,5.06445 6.88229,-0.1852 9.39201,-0.45732 14.02819,-1.52102 24.452,-5.61015 43.98325,-20.03324 53.91277,-39.81253 4.99314,-9.94619 7.09105,-18.63903 7.08692,-29.36517 -0.005,-14.34913 -3.39416,-28.06706 -10.33791,-41.84997 -4.50292,-8.938 -8.58039,-14.62131 -15.33897,-21.379884 -12.99828,-12.998282 -27.32612,-19.793581 -45.94229,-21.789154 -8.97381,-0.961955 -11.98206,-2.126367 -14.3606,-5.558598 -2.2374,-3.228563 -1.41188,-6.940519 2.44529,-10.995242 l 1.82237,-1.915713 4.21761,0.0039 c 16.45466,0.01516 36.1208,5.899864 48.84775,14.616722 7.32852,5.019401 17.24104,14.414829 24.22328,22.959658 10.63321,13.012891 18.34805,30.752571 21.23076,48.818471 0.63679,3.99073 0.8364,8.03075 0.83267,16.85301 -0.006,13.33477 -0.51311,17.06421 -3.57349,26.26186 -10.75662,32.32781 -40.57633,56.31499 -77.16026,62.06827 -5.72662,0.90058 -19.02506,1.30814 -23.98853,0.73519 z"
     id="path2067"
     transform="scale(0.74999998)" />
</svg>
