<?xml version="1.0" encoding="UTF-8" standalone="no"?>
<svg
   xmlns:dc="http://purl.org/dc/elements/1.1/"
   xmlns:cc="http://creativecommons.org/ns#"
   xmlns:rdf="http://www.w3.org/1999/02/22-rdf-syntax-ns#"
   xmlns:svg="http://www.w3.org/2000/svg"
   xmlns="http://www.w3.org/2000/svg"
   xmlns:sodipodi="http://sodipodi.sourceforge.net/DTD/sodipodi-0.dtd"
   xmlns:inkscape="http://www.inkscape.org/namespaces/inkscape"
   version="1.0"
   width="286.000000pt"
   height="289.000000pt"
   viewBox="0 0 286.000000 289.000000"
   preserveAspectRatio="xMidYMid meet"
   id="svg2028"
   sodipodi:docname="chimerstry.svg"
   inkscape:version="1.0.1 (3bc2e813f5, 2020-09-07)">
  <defs
     id="defs2032" />
  <sodipodi:namedview
     pagecolor="#ffffff"
     bordercolor="#666666"
     borderopacity="1"
     objecttolerance="10"
     gridtolerance="10"
     guidetolerance="10"
     inkscape:pageopacity="0"
     inkscape:pageshadow="2"
     inkscape:window-width="1600"
     inkscape:window-height="837"
     id="namedview2030"
     showgrid="false"
     inkscape:zoom="1.7387543"
     inkscape:cx="190.66667"
     inkscape:cy="192.66667"
     inkscape:window-x="-8"
     inkscape:window-y="-8"
     inkscape:window-maximized="1"
     inkscape:current-layer="svg2028" />
  <metadata
     id="metadata2022">
Created by potrace 1.16, written by Peter Selinger 2001-2019
<rdf:RDF>
  <cc:Work
     rdf:about="">
    <dc:format>image/svg+xml</dc:format>
    <dc:type
       rdf:resource="http://purl.org/dc/dcmitype/StillImage" />
  </cc:Work>
</rdf:RDF>
</metadata>
  <g
     transform="translate(0.000000,289.000000) scale(0.100000,-0.100000)"
     fill="#000000"
     stroke="none"
     id="g2026">
    <path
       d="M240 1450 l0 -1200 1200 0 1200 0 0 1200 0 1200 -1200 0 -1200 0 0 -1200z m1365 1041 c186 -45 339 -133 481 -275 150 -150 251 -327 311 -544 24 -88 27 -114 27 -282 1 -155 -2 -195 -18 -250 -54 -181 -126 -303 -255 -431 -142 -141 -302 -231 -508 -286 -85 -22 -119 -26 -258 -27 -139 -1 -170 2 -239 22 -372 107 -632 439 -675 862 -18 168 20 352 100 487 47 78 178 214 261 270 135 89 317 149 488 159 351 21 646 -202 756 -573 35 -117 44 -298 20 -393 -50 -201 -205 -371 -414 -456 -112 -45 -181 -58 -302 -59 -95 0 -127 4 -183 23 -172 60 -309 209 -374 407 -31 98 -43 268 -23 343 54 202 239 346 490 383 238 34 428 -109 486 -368 34 -152 4 -276 -86 -357 -93 -84 -263 -132 -376 -107 -48 11 -66 22 -109 65 -58 57 -82 114 -92 212 -8 81 2 126 35 165 67 81 246 102 300 36 8 -9 16 -34 19 -55 4 -33 1 -44 -24 -72 -24 -27 -38 -33 -81 -38 -56 -5 -57 -7 -42 -64 15 -51 37 -61 105 -49 125 23 172 73 162 170 -12 114 -59 202 -128 240 -36 21 -51 23 -128 19 -143 -7 -263 -75 -315 -180 -82 -163 31 -457 208 -543 185 -89 497 16 626 210 82 123 78 337 -10 520 -129 268 -373 375 -673 294 -242 -65 -443 -258 -486 -467 -53 -259 65 -588 272 -760 70 -58 196 -119 282 -137 288 -60 662 81 841 318 62 82 120 205 139 292 65 309 -72 702 -317 906 -137 114 -274 171 -464 193 -107 12 -120 16 -141 40 -39 46 -25 122 28 153 32 18 175 10 284 -16z"
       id="path2024" />
  </g>
  <path
     style="fill:#ffffff;stroke-width:0.575124"
     d="m 165.88475,331.82117 c -14.96639,-1.33404 -35.70863,-10.08912 -51.17761,-21.60151 -27.388002,-20.38284 -45.010476,-51.49467 -50.948102,-89.94702 -1.356314,-8.78356 -1.344578,-25.56149 0.02352,-33.62008 2.914892,-17.16977 8.608537,-31.72749 16.540658,-42.29176 4.584997,-6.10646 19.413093,-21.37341 25.512604,-26.26769 17.50779,-14.04832 45.93965,-24.050852 71.89055,-25.291591 33.53417,-1.603303 64.41385,14.527171 83.7302,43.737731 9.39186,14.20257 16.19353,32.34604 18.45393,49.22592 0.96457,7.20308 0.98149,26.7414 0.0275,31.77488 -1.91928,10.1268 -7.17407,22.11331 -13.80444,31.48881 -4.8858,6.90863 -14.37369,16.39722 -21.42338,21.42497 -10.3055,7.34974 -27.17974,14.73512 -39.66543,17.36044 -2.37238,0.49883 -8.49719,1.2143 -13.61069,1.58993 -22.48629,1.65181 -36.80112,-2.24401 -52.24108,-14.21751 -11.67592,-9.05454 -21.74136,-22.97537 -27.30585,-37.76486 -3.66997,-9.7542 -5.40498,-18.9634 -6.10224,-32.38999 -0.45335,-8.7297 0.28435,-15.48984 2.35451,-21.57638 7.73135,-22.73109 27.76287,-39.09486 56.0715,-45.80487 8.34638,-1.97835 20.80386,-2.46982 27.63874,-1.09041 22.81561,4.60464 39.09019,22.70362 44.92339,49.95932 1.6468,7.69468 1.76204,19.49136 0.24827,25.41383 -3.87498,15.16049 -14.93902,25.85665 -33.0077,31.91021 -13.24595,4.4378 -26.79478,4.57501 -35.06895,0.35515 -5.6399,-2.87638 -13.42754,-11.40377 -16.25788,-17.80222 -2.99407,-6.76858 -4.94434,-19.6445 -4.05197,-26.75143 0.27848,-2.21782 1.13928,-5.40696 1.91288,-7.08697 3.66773,-7.96519 13.4148,-13.42716 25.1657,-14.10212 12.46075,-0.71572 18.68985,3.22003 19.44148,12.28379 0.35954,4.33561 -0.15119,5.69262 -3.45878,9.18991 -3.17712,3.35933 -5.55508,4.36147 -12.10095,5.09964 -4.34205,0.48965 -5.2527,1.41466 -4.74245,4.81724 0.6996,4.66529 2.53357,8.68544 4.51282,9.89231 2.26641,1.38197 6.80907,1.45282 12.87076,0.20074 7.09119,-1.46472 11.54588,-3.52227 14.92716,-6.89462 3.9673,-3.95682 5.07439,-7.5364 4.60687,-14.89553 -1.16114,-18.27748 -11.54774,-33.67094 -23.86908,-35.3752 -4.18175,-0.57841 -16.57619,0.2199 -21.63717,1.39361 -16.68002,3.86836 -29.85961,15.25506 -33.31895,28.78639 -4.24118,16.58957 2.18177,39.5061 15.36646,54.82618 6.61399,7.68519 13.66058,12.24145 22.33243,14.43994 27.46163,6.96209 66.22172,-10.21702 78.42367,-34.75866 3.87159,-7.78687 4.95694,-12.65202 5.29072,-23.71588 0.31689,-10.50359 -0.23679,-15.64361 -2.71126,-25.16969 -6.12467,-23.57847 -20.80523,-43.08932 -39.53219,-52.53935 -15.45045,-7.79663 -35.38622,-9.05176 -56.24333,-3.54099 -21.98283,5.8082 -40.9768,18.81845 -53.93654,36.94476 -5.670333,7.93089 -9.576298,16.89148 -11.725735,26.89976 -1.589789,7.40243 -1.45085,25.4923 0.265812,34.60859 4.419598,23.47017 15.626773,45.48097 30.856733,60.6024 11.66961,11.58644 31.28237,21.54924 47.48003,24.11867 7.17714,1.13851 21.73982,1.12249 30.02456,-0.033 27.58936,-3.84805 54.67469,-17.45527 72.38273,-36.3639 11.38535,-12.15727 22.03276,-33.0119 25.09564,-49.1538 1.59447,-8.40312 1.42503,-29.36662 -0.31642,-39.14663 -7.05558,-39.62437 -28.07599,-71.9487 -58.38965,-89.789243 -13.75443,-8.094912 -26.48295,-12.034472 -48.2393,-14.930381 -12.5627,-1.672175 -15.13649,-2.572779 -17.48209,-6.117215 -1.96856,-2.974695 -2.5566,-8.852035 -1.20778,-12.071446 1.12069,-2.674873 3.62836,-5.566513 5.80227,-6.690684 2.4813,-1.28313 10.19232,-1.612576 18.78576,-0.802603 21.01374,1.980644 41.9414,9.138045 58.73221,20.086806 18.44028,12.024324 36.74526,31.373376 48.14827,50.894516 10.63819,18.21183 18.77122,41.48571 20.28334,58.04386 0.89469,9.79715 0.33437,44.32597 -0.79541,49.01571 -3.51905,14.60767 -11.33787,32.2937 -19.00421,42.98719 -11.24417,15.68409 -27.30424,30.57944 -43.52539,40.36882 -13.29518,8.02357 -31.34765,15.00373 -47.73533,18.45733 -8.0362,1.69358 -33.41058,2.47227 -45.48639,1.39589 z"
     id="path2034"
     transform="scale(0.74999998)" />
</svg>
