<?xml version="1.0" encoding="UTF-8" standalone="no"?>
<svg
   xmlns:dc="http://purl.org/dc/elements/1.1/"
   xmlns:cc="http://creativecommons.org/ns#"
   xmlns:rdf="http://www.w3.org/1999/02/22-rdf-syntax-ns#"
   xmlns:svg="http://www.w3.org/2000/svg"
   xmlns="http://www.w3.org/2000/svg"
   xmlns:sodipodi="http://sodipodi.sourceforge.net/DTD/sodipodi-0.dtd"
   xmlns:inkscape="http://www.inkscape.org/namespaces/inkscape"
   version="1.0"
   width="238.000000pt"
   height="238.000000pt"
   viewBox="0 0 238.000000 238.000000"
   preserveAspectRatio="xMidYMid meet"
   id="svg2197"
   sodipodi:docname="daimoinonsup.svg"
   inkscape:version="1.0.1 (3bc2e813f5, 2020-09-07)">
  <defs
     id="defs2201" />
  <sodipodi:namedview
     pagecolor="#ffffff"
     bordercolor="#666666"
     borderopacity="1"
     objecttolerance="10"
     gridtolerance="10"
     guidetolerance="10"
     inkscape:pageopacity="0"
     inkscape:pageshadow="2"
     inkscape:window-width="1600"
     inkscape:window-height="837"
     id="namedview2199"
     showgrid="false"
     inkscape:zoom="2.1113445"
     inkscape:cx="158.66667"
     inkscape:cy="158.66667"
     inkscape:window-x="-8"
     inkscape:window-y="-8"
     inkscape:window-maximized="1"
     inkscape:current-layer="svg2197" />
  <metadata
     id="metadata2191">
Created by potrace 1.16, written by Peter Selinger 2001-2019
<rdf:RDF>
  <cc:Work
     rdf:about="">
    <dc:format>image/svg+xml</dc:format>
    <dc:type
       rdf:resource="http://purl.org/dc/dcmitype/StillImage" />
  </cc:Work>
</rdf:RDF>
</metadata>
  <g
     transform="translate(0.000000,238.000000) scale(0.100000,-0.100000)"
     fill="#000000"
     stroke="none"
     id="g2195">
    <path
       d="M610 1775 l-575 -575 185 -187 c534 -542 956 -963 965 -963 6 0 269 259 585 575 l575 575 -575 575 c-316 316 -577 575 -580 575 -3 0 -264 -259 -580 -575z m186 -69 c61 -72 61 -71 -8 -49 -17 5 -18 -7 -18 -165 l0 -171 176 -85 c97 -47 178 -86 180 -86 2 0 4 106 4 236 0 232 0 236 -20 230 -11 -3 -30 -9 -42 -13 -15 -4 -2 17 47 76 38 45 71 78 75 74 3 -5 33 -38 65 -76 32 -37 56 -70 53 -73 -3 -2 -18 0 -33 6 -15 6 -29 9 -32 7 -2 -2 -2 -108 -1 -236 l3 -231 175 85 175 86 3 170 2 171 -24 -6 c-13 -3 -32 -9 -42 -13 -16 -6 96 140 116 152 4 3 38 -32 75 -77 38 -45 61 -78 51 -75 -10 4 -29 10 -42 13 l-24 6 -2 -207 -3 -207 -232 -112 -233 -111 0 -372 0 -373 -55 0 -55 0 0 373 -1 372 -232 111 -232 111 -3 207 -2 208 -24 -6 c-13 -3 -32 -9 -43 -13 -11 -4 2 17 31 53 88 105 89 106 101 92 6 -7 38 -44 71 -82z"
       id="path2193" />
  </g>
  <path
     style="fill:#ffffff;stroke-width:0.473632"
     d="m 151.02118,248.30149 c -0.037,-17.38821 -0.19691,-39.809 -0.35523,-49.82397 l -0.28784,-18.20906 -30.5984,-14.63433 -30.598403,-14.63434 -0.306076,-5.00243 c -0.168342,-2.75134 -0.306077,-11.64896 -0.306077,-19.77251 0,-19.50723 -0.435523,-30.551218 -1.204798,-30.551218 -0.320323,0 -2.311628,0.500854 -4.425122,1.113008 -2.113494,0.612155 -3.842717,0.943144 -3.842717,0.73553 0,-1.090945 14.516572,-18.552482 15.848401,-19.063553 0.982554,-0.377041 17.419422,18.680199 16.717272,19.382348 -0.12005,0.120047 -1.58196,-0.209176 -3.24869,-0.731606 -1.66673,-0.522431 -3.3959,-0.952624 -3.84261,-0.955985 -1.87469,-0.01411 -1.99439,1.285529 -2.18354,23.706946 l -0.18207,21.58172 2.77298,1.25266 c 1.52514,0.68896 12.25746,5.83164 23.8496,11.42818 11.59214,5.59654 21.22362,10.02734 21.4033,9.84623 0.17967,-0.18112 0.46124,-10.55976 0.62569,-23.06364 0.30687,-23.33208 -0.11385,-38.18874 -1.10966,-39.18454 -0.41877,-0.41878 -1.35567,-0.2917 -3.9065,0.52985 -1.84558,0.59441 -3.47579,0.96056 -3.62268,0.81366 -0.62946,-0.62945 7.171,-10.46345 12.7804,-16.112177 l 3.25181,-3.274604 2.22116,2.532938 c 8.75875,9.988195 13.72148,16.355413 13.17424,16.902653 -0.17489,0.17489 -1.76689,-0.14867 -3.53779,-0.71903 -1.7709,-0.57035 -3.57768,-1.03701 -4.01507,-1.03701 -0.73362,0 -0.7906,1.64239 -0.73523,21.19503 0.033,11.65726 0.19285,25.82919 0.35522,31.49316 l 0.29521,10.29815 18.94527,-9.27834 c 10.4199,-5.10309 20.97005,-10.27009 23.44478,-11.48223 l 4.4995,-2.20388 0.36922,-22.68086 c 0.20307,-12.47448 0.25728,-22.7928 0.12048,-22.929609 -0.13681,-0.136809 -1.98613,0.216262 -4.1096,0.784603 -2.12347,0.568341 -3.95929,0.934906 -4.0796,0.814589 -0.38714,-0.387137 5.69103,-8.613028 11.14281,-15.080125 l 3.49855,-4.150113 1.26997,0.904297 c 2.5999,1.851295 15.72366,17.719806 15.13866,18.304812 -0.13194,0.131937 -1.97727,-0.225119 -4.10073,-0.79346 -2.12347,-0.568341 -3.96228,-0.931927 -4.08624,-0.807969 -0.12395,0.123958 -0.38944,12.552505 -0.58997,27.618985 l -0.36459,27.39361 -12.31443,5.9308 c -6.77294,3.26194 -20.62667,9.90115 -30.78607,14.75379 l -18.47164,8.82299 -0.12058,49.82549 -0.12058,49.82549 h -7.10231 -7.1023 z"
     id="path2203"
     transform="scale(0.74999998)" />
</svg>
