<?xml version="1.0" encoding="UTF-8" standalone="no"?>
<svg
   xmlns:dc="http://purl.org/dc/elements/1.1/"
   xmlns:cc="http://creativecommons.org/ns#"
   xmlns:rdf="http://www.w3.org/1999/02/22-rdf-syntax-ns#"
   xmlns:svg="http://www.w3.org/2000/svg"
   xmlns="http://www.w3.org/2000/svg"
   xmlns:sodipodi="http://sodipodi.sourceforge.net/DTD/sodipodi-0.dtd"
   xmlns:inkscape="http://www.inkscape.org/namespaces/inkscape"
   version="1.0"
   width="288.000000pt"
   height="289.000000pt"
   viewBox="0 0 288.000000 289.000000"
   preserveAspectRatio="xMidYMid meet"
   id="svg2374"
   sodipodi:docname="dominate.svg"
   inkscape:version="1.0.1 (3bc2e813f5, 2020-09-07)">
  <defs
     id="defs2378" />
  <sodipodi:namedview
     pagecolor="#ffffff"
     bordercolor="#666666"
     borderopacity="1"
     objecttolerance="10"
     gridtolerance="10"
     guidetolerance="10"
     inkscape:pageopacity="0"
     inkscape:pageshadow="2"
     inkscape:window-width="1600"
     inkscape:window-height="837"
     id="namedview2376"
     showgrid="false"
     inkscape:zoom="1.7387543"
     inkscape:cx="192"
     inkscape:cy="192.66667"
     inkscape:window-x="-8"
     inkscape:window-y="-8"
     inkscape:window-maximized="1"
     inkscape:current-layer="svg2374" />
  <metadata
     id="metadata2368">
Created by potrace 1.16, written by Peter Selinger 2001-2019
<rdf:RDF>
  <cc:Work
     rdf:about="">
    <dc:format>image/svg+xml</dc:format>
    <dc:type
       rdf:resource="http://purl.org/dc/dcmitype/StillImage" />
  </cc:Work>
</rdf:RDF>
</metadata>
  <g
     transform="translate(0.000000,289.000000) scale(0.100000,-0.100000)"
     fill="#000000"
     stroke="none"
     id="g2372">
    <path
       d="M240 1450 l0 -1200 1200 0 1200 0 0 1200 0 1200 -1200 0 -1200 0 0 -1200z m742 733 c365 -367 376 -379 386 -428 19 -91 -17 -176 -93 -221 -56 -32 -135 -35 -191 -5 -22 11 -201 182 -404 385 l-365 366 140 140 c77 77 142 140 145 140 3 0 175 -170 382 -377z m623 148 c49 -23 739 -713 755 -754 14 -40 13 -112 -4 -150 -8 -18 -50 -68 -95 -112 l-81 -80 -465 465 -465 465 68 68 c111 113 194 141 287 98z m12 -1679 c-77 -79 -130 -111 -196 -119 -94 -11 -118 8 -492 384 -185 186 -345 354 -354 373 -23 44 -23 126 -1 169 10 18 52 69 94 112 l76 80 468 -468 468 -468 -63 -63z m186 714 c18 -8 197 -179 405 -388 l372 -373 -140 -140 -140 -140 -371 370 c-204 204 -377 382 -384 396 -51 96 -8 226 89 270 49 22 124 24 169 5z"
       id="path2370" />
  </g>
  <path
     style="fill:#ffffff;stroke-width:0.575124"
     d="m 150.02986,183.11782 c -1.73208,-0.46545 -4.19073,-1.46411 -5.46368,-2.21924 -3.96186,-2.35026 -21.54495,-19.23177 -62.601147,-60.10336 L 42.382803,81.390973 60.814632,63.080358 C 72.039314,51.929494 79.595438,44.843553 80.138948,44.958504 c 1.11079,0.23493 78.398402,77.341566 90.119182,89.908166 10.0367,10.76098 11.85601,13.77473 12.36178,20.47765 1.00118,13.26849 -7.38143,24.93463 -19.97467,27.7989 -4.81689,1.09558 -8.47127,1.08822 -12.61538,-0.0254 z"
     id="path2380"
     transform="scale(0.74999999)" />
  <path
     style="fill:#ffffff;stroke-width:0.575124"
     d="m 228.80346,158.40593 -61.82137,-61.859718 7.31486,-7.089452 c 12.59424,-12.206143 19.30949,-16.359628 27.27649,-16.870919 6.34406,-0.407137 10.899,0.983171 15.34614,4.684121 13.31169,11.078097 78.54229,76.009668 93.06048,92.633858 3.85717,4.4167 4.57378,5.57721 5.14947,8.33931 0.9239,4.43278 0.33821,12.51077 -1.15121,15.87784 -1.54741,3.49818 -6.8982,9.80064 -15.97426,18.81534 l -7.37922,7.32934 z"
     id="path2382"
     transform="scale(0.74999999)" />
  <path
     style="fill:#ffffff;stroke-width:0.575124"
     d="m 179.77661,313.14411 c -2.95982,-1.08694 -7.41884,-4.12205 -12.83824,-8.7386 -12.76002,-10.86969 -82.222801,-81.10335 -88.996587,-89.98424 -2.314757,-3.03481 -3.474569,-8.43447 -3.091768,-14.39413 0.528834,-8.23318 1.779616,-10.21939 16.115449,-25.5909 l 8.151949,-8.74088 61.969647,61.93888 c 34.08331,34.06639 61.96966,62.21205 61.96966,62.54591 0,0.76963 -14.12194,14.18813 -18.0387,17.14017 -6.10447,4.60089 -12.17963,6.72567 -19.03388,6.65707 -2.22685,-0.0223 -5.02024,-0.39726 -6.20753,-0.83328 z"
     id="path2384"
     transform="scale(0.74999999)" />
  <path
     style="fill:#ffffff;stroke-width:0.575124"
     d="m 262.13786,296.93351 c -24.49965,-24.60852 -47.18294,-47.63033 -50.4073,-51.15959 -5.36705,-5.87457 -5.96891,-6.76728 -7.12207,-10.5638 -3.90379,-12.85238 3.04401,-27.17593 15.41457,-31.77859 4.29956,-1.59972 15.90802,-1.80272 19.13714,-0.33466 3.56558,1.62104 15.50167,13.0485 60.38806,57.8148 l 43.99701,43.8793 -18.43129,18.44265 -18.43129,18.44266 z"
     id="path2386"
     transform="scale(0.74999999)" />
</svg>
