<?xml version="1.0" encoding="UTF-8" standalone="no"?>
<svg
   xmlns:dc="http://purl.org/dc/elements/1.1/"
   xmlns:cc="http://creativecommons.org/ns#"
   xmlns:rdf="http://www.w3.org/1999/02/22-rdf-syntax-ns#"
   xmlns:svg="http://www.w3.org/2000/svg"
   xmlns="http://www.w3.org/2000/svg"
   xmlns:sodipodi="http://sodipodi.sourceforge.net/DTD/sodipodi-0.dtd"
   xmlns:inkscape="http://www.inkscape.org/namespaces/inkscape"
   version="1.0"
   width="286.000000pt"
   height="289.000000pt"
   viewBox="0 0 286.000000 289.000000"
   preserveAspectRatio="xMidYMid meet"
   id="svg356"
   sodipodi:docname="master.svg"
   inkscape:version="1.0.1 (3bc2e813f5, 2020-09-07)">
  <defs
     id="defs360" />
  <sodipodi:namedview
     pagecolor="#ffffff"
     bordercolor="#666666"
     borderopacity="1"
     objecttolerance="10"
     gridtolerance="10"
     guidetolerance="10"
     inkscape:pageopacity="0"
     inkscape:pageshadow="2"
     inkscape:window-width="1600"
     inkscape:window-height="837"
     id="namedview358"
     showgrid="false"
     inkscape:zoom="1.7387543"
     inkscape:cx="190.66667"
     inkscape:cy="192.66667"
     inkscape:window-x="-8"
     inkscape:window-y="-8"
     inkscape:window-maximized="1"
     inkscape:current-layer="svg356" />
  <metadata
     id="metadata348">
Created by potrace 1.16, written by Peter Selinger 2001-2019
<rdf:RDF>
  <cc:Work
     rdf:about="">
    <dc:format>image/svg+xml</dc:format>
    <dc:type
       rdf:resource="http://purl.org/dc/dcmitype/StillImage" />
  </cc:Work>
</rdf:RDF>
</metadata>
  <g
     transform="translate(0.000000,289.000000) scale(0.100000,-0.100000)"
     fill="#000000"
     stroke="none"
     id="g354">
    <path
       d="M240 1450 l0 -1200 1200 0 1200 0 0 1200 0 1200 -1200 0 -1200 0 0 -1200z m1380 1125 c237 -39 450 -147 619 -314 177 -176 298 -412 332 -650 28 -194 -4 -431 -84 -617 -123 -291 -411 -551 -711 -643 -255 -79 -533 -63 -783 42 -248 105 -495 351 -600 601 -80 187 -112 423 -83 617 91 627 686 1065 1310 964z"
       id="path350" />
    <path
       d="M720 1425 l0 -655 155 0 155 0 0 477 c0 301 4 473 9 468 6 -6 75 -163 155 -350 l145 -340 106 0 106 0 146 340 c80 187 149 344 154 349 5 6 9 -186 9 -467 l0 -477 155 0 155 0 0 655 0 655 -212 -2 -212 -3 -149 -348 c-83 -192 -153 -345 -157 -340 -4 4 -72 162 -151 350 l-144 342 -212 1 -213 0 0 -655z"
       id="path352" />
  </g>
  <path
     style="fill:#ffffff;stroke-width:0.575124"
     d="m 182.25329,344.47463 c -20.83826,-1.40267 -44.37774,-8.1144 -60.88911,-17.36109 C 90.732154,309.959 64.17699,280.67635 51.856451,250.46667 44.356475,232.07689 40.453548,211.6495 40.428388,190.65373 c -0.0279,-23.28398 4.645259,-43.0502 15.364822,-64.98905 18.632714,-38.134054 53.06821,-67.000502 94.61475,-79.313273 41.83657,-12.398724 88.24199,-5.177734 125.37711,19.509506 32.03773,21.298519 56.33882,56.652087 64.62932,94.023667 4.16929,18.7941 4.38036,39.06598 0.61979,59.52537 -3.91782,21.31495 -10.9539,39.01547 -22.17573,55.78706 -21.03976,31.44498 -54.55376,56.02086 -88.23985,64.70645 -9.03425,2.32939 -18.55804,3.87784 -28.16188,4.57881 -8.7584,0.63926 -10.60345,0.63856 -20.20343,-0.008 z M 137.8332,227.03035 c 0.0429,-30.76197 0.237,-59.03652 0.43135,-62.83234 l 0.35336,-6.90149 3.91429,8.62686 c 2.15285,4.74478 11.08166,25.3804 19.84179,45.85694 l 15.9275,37.23006 14.38206,0.009 14.38205,0.009 12.61484,-29.47513 c 6.93815,-16.21136 15.86518,-36.85113 19.83784,-45.86621 l 7.22301,-16.39104 0.35908,8.3393 c 0.19749,4.58662 0.39159,32.86117 0.43134,62.83234 l 0.0723,54.49303 h 20.99204 20.99204 v -87.61871 -87.6187 l -28.32488,0.26413 c -15.57868,0.14527 -28.47727,0.42929 -28.66353,0.63114 -0.18626,0.20186 -5.59531,12.6603 -12.0201,27.68543 -11.76949,27.52432 -23.19029,53.33144 -26.52496,59.93738 l -1.80395,3.57361 -1.30625,-2.57026 c -1.24906,-2.45776 -16.60175,-38.46638 -31.03744,-72.79609 l -6.799,-16.16879 -4.65696,-0.36259 c -2.56133,-0.19942 -15.46211,-0.36414 -28.6684,-0.36604 l -24.011446,-0.003 v 87.70647 87.70646 h 20.992036 20.99204 z"
     id="path362"
     transform="scale(0.74999998)" />
</svg>
