<?xml version="1.0" encoding="UTF-8" standalone="no"?>
<svg
   xmlns:dc="http://purl.org/dc/elements/1.1/"
   xmlns:cc="http://creativecommons.org/ns#"
   xmlns:rdf="http://www.w3.org/1999/02/22-rdf-syntax-ns#"
   xmlns:svg="http://www.w3.org/2000/svg"
   xmlns="http://www.w3.org/2000/svg"
   xmlns:sodipodi="http://sodipodi.sourceforge.net/DTD/sodipodi-0.dtd"
   xmlns:inkscape="http://www.inkscape.org/namespaces/inkscape"
   version="1.0"
   width="300.000000pt"
   height="300.000000pt"
   viewBox="0 0 300.000000 300.000000"
   preserveAspectRatio="xMidYMid meet"
   id="svg2819"
   sodipodi:docname="melpominee.svg"
   inkscape:version="1.0.1 (3bc2e813f5, 2020-09-07)">
  <defs
     id="defs2823" />
  <sodipodi:namedview
     pagecolor="#ffffff"
     bordercolor="#666666"
     borderopacity="1"
     objecttolerance="10"
     gridtolerance="10"
     guidetolerance="10"
     inkscape:pageopacity="0"
     inkscape:pageshadow="2"
     inkscape:window-width="1600"
     inkscape:window-height="837"
     id="namedview2821"
     showgrid="false"
     inkscape:zoom="1.675"
     inkscape:cx="200"
     inkscape:cy="200"
     inkscape:window-x="-8"
     inkscape:window-y="-8"
     inkscape:window-maximized="1"
     inkscape:current-layer="svg2819" />
  <metadata
     id="metadata2813">
Created by potrace 1.16, written by Peter Selinger 2001-2019
<rdf:RDF>
  <cc:Work
     rdf:about="">
    <dc:format>image/svg+xml</dc:format>
    <dc:type
       rdf:resource="http://purl.org/dc/dcmitype/StillImage" />
  </cc:Work>
</rdf:RDF>
</metadata>
  <g
     transform="translate(0.000000,300.000000) scale(0.100000,-0.100000)"
     fill="#000000"
     stroke="none"
     id="g2817">
    <path
       d="M277 1493 l3 -1228 1220 0 1220 0 3 1228 2 1227 -1225 0 -1225 0 2 -1227z m1384 1102 c46 -25 95 -50 109 -57 14 -7 41 -25 61 -40 20 -15 41 -28 47 -28 5 0 12 -7 16 -15 3 -8 10 -15 17 -15 12 0 100 -68 112 -87 4 -7 15 -13 23 -13 18 0 374 -354 374 -371 0 -7 11 -22 25 -35 14 -13 25 -27 25 -32 0 -5 9 -17 20 -27 11 -10 20 -24 20 -31 0 -7 6 -17 13 -21 16 -11 57 -69 57 -83 0 -5 3 -10 8 -10 7 0 17 -15 46 -77 9 -17 20 -34 26 -38 16 -10 13 -250 -4 -264 -10 -8 -16 -8 -24 2 -12 13 -29 56 -30 71 0 5 -4 12 -9 15 -4 3 -21 31 -36 61 -31 62 -42 81 -75 128 -13 17 -19 32 -15 32 4 0 4 4 -2 8 -12 9 -55 69 -55 77 0 3 -11 16 -25 29 -14 13 -25 27 -25 32 0 5 -32 43 -70 86 -39 42 -70 80 -70 84 0 11 -132 144 -143 144 -5 0 -43 32 -85 70 -42 39 -80 70 -85 70 -5 0 -20 11 -33 25 -13 14 -26 25 -29 25 -3 0 -18 8 -33 18 -54 37 -115 77 -136 88 -41 24 -301 152 -318 158 -21 6 -22 19 -8 47 10 17 22 19 119 19 l109 0 83 -45z m-413 -559 c123 -61 122 -60 122 -68 0 -5 4 -8 9 -8 13 0 153 -94 170 -114 7 -9 20 -16 29 -16 18 0 412 -393 412 -411 0 -6 16 -31 35 -55 19 -23 35 -47 35 -53 0 -6 5 -11 10 -11 6 0 10 -5 10 -10 0 -10 37 -68 51 -80 3 -3 11 -21 19 -40 7 -19 20 -43 28 -52 18 -22 9 -35 -30 -44 -18 -3 -43 -13 -55 -21 -28 -18 -46 -7 -69 41 -8 17 -25 49 -39 71 -13 22 -27 48 -31 58 -3 9 -10 17 -15 17 -6 0 -12 8 -16 18 -4 9 -28 42 -55 73 -26 31 -48 61 -48 65 0 11 -262 274 -273 274 -5 0 -33 20 -61 45 -29 25 -58 45 -65 45 -6 0 -14 7 -17 15 -4 8 -10 15 -15 15 -4 0 -23 10 -42 23 -19 13 -79 46 -133 73 -55 27 -100 52 -102 57 -2 4 -10 7 -18 7 -26 0 -26 27 1 84 31 66 26 66 153 2z m-298 -586 c41 -22 86 -45 100 -52 14 -7 30 -16 35 -20 47 -36 106 -83 133 -108 18 -16 36 -30 41 -30 11 0 125 -127 206 -230 49 -63 49 -62 63 -90 7 -14 20 -37 28 -53 18 -33 13 -43 -26 -52 -17 -4 -30 -11 -30 -16 0 -5 -13 -9 -30 -9 -16 0 -30 5 -30 10 0 12 -41 73 -52 78 -5 2 -8 9 -8 15 0 11 -78 109 -92 115 -5 2 -8 9 -8 15 0 15 -101 117 -115 117 -6 0 -22 13 -35 30 -14 16 -30 29 -36 30 -6 0 -19 9 -29 20 -10 11 -24 20 -32 20 -7 0 -16 6 -19 14 -3 8 -19 18 -35 21 -16 4 -29 11 -29 16 0 11 -101 59 -125 59 -15 0 -17 6 -12 37 4 20 11 39 16 42 5 4 13 19 16 34 4 15 12 27 19 27 6 0 45 -18 86 -40z m-303 -577 c12 -3 28 -11 34 -19 6 -8 16 -14 22 -14 5 0 29 -16 53 -35 23 -19 45 -35 49 -35 4 0 27 -20 52 -45 24 -25 42 -45 38 -45 -4 0 12 -21 34 -46 46 -53 43 -68 -14 -78 -19 -4 -35 -11 -35 -16 0 -6 -9 -10 -20 -10 -11 0 -20 5 -20 11 0 13 -148 159 -180 178 -54 31 -76 41 -94 41 -16 0 -18 5 -13 37 4 21 11 39 17 41 5 2 10 12 10 21 0 24 11 33 29 25 9 -4 26 -9 38 -11z"
       id="path2815" />
  </g>
  <path
     style="fill:#ffffff;stroke-width:0.597015"
     d="m 112.17579,327.61194 c -1.28928,-2.46693 -8.51805,-10.14894 -15.719739,-16.70537 -7.510921,-6.83796 -14.9456,-11.5528 -19.263625,-12.21639 -1.246879,-0.19162 -2.591471,-0.60321 -2.987982,-0.91465 -1.209217,-0.94976 0.265668,-7.17149 2.23954,-9.44738 0.642376,-0.74067 1.167956,-2.09234 1.167956,-3.00372 0,-3.20296 1.19293,-3.58828 6.264565,-2.02351 2.479078,0.76488 5.340033,2.09129 6.357677,2.94759 1.017644,0.85629 2.690964,1.90982 3.718488,2.34118 1.027524,0.43137 4.151808,2.50759 6.94285,4.61383 2.79105,2.10624 6.14926,4.55455 7.46269,5.44069 3.3135,2.23553 8.13044,7.2323 11.17197,11.58904 1.40766,2.01635 3.84807,5.35403 5.42314,7.41707 4.1832,5.4792 3.85573,6.11947 -4.24251,8.2949 -1.41503,0.38012 -3.01951,1.21287 -3.56552,1.85056 -1.38133,1.61329 -4.08249,1.51336 -4.9695,-0.18384 z"
     id="path2825"
     transform="scale(0.75)" />
  <path
     style="fill:#ffffff;stroke-width:0.597015"
     d="m 192.98507,293.93297 c -0.41044,-0.16562 -0.74626,-0.65922 -0.74626,-1.09689 0,-1.03176 -5.893,-9.85101 -6.58242,-9.85101 -0.28924,0 -1.03326,-1.14179 -1.65337,-2.53731 -1.19402,-2.68706 -6.60326,-9.76193 -10.76408,-14.07857 -1.37096,-1.42231 -2.49267,-2.96616 -2.49267,-3.43077 0,-1.1288 -12.00405,-13.51073 -14.13888,-14.58397 -0.92511,-0.46507 -3.60114,-2.66941 -5.94675,-4.89853 -2.3456,-2.22911 -4.58795,-4.05293 -4.98301,-4.05293 -0.39506,0 -1.91939,-1.05726 -3.3874,-2.34946 -1.46802,-1.29219 -3.41553,-2.51339 -4.3278,-2.71376 -0.91228,-0.20037 -2.23796,-1.14781 -2.94596,-2.10543 -0.81732,-1.10549 -2.2132,-1.98582 -3.82351,-2.41138 -1.39494,-0.36863 -3.34221,-1.43963 -4.32729,-2.37999 -2.26973,-2.16671 -12.31921,-6.95228 -15.75229,-7.50125 l -2.60649,-0.41679 0.3042,-3.35475 c 0.20623,-2.27436 0.99943,-4.66524 2.46297,-7.42399 1.18733,-2.23808 2.15878,-4.41702 2.15878,-4.84208 0,-0.42506 0.39995,-1.10477 0.88879,-1.51047 1.19653,-0.99303 2.87161,-0.28692 17.61049,7.42349 12.03762,6.29729 15.35748,8.58145 28.66489,19.72224 2.79105,2.33662 6.08034,4.90735 7.30953,5.71273 3.77005,2.47016 20.37944,21.35617 30.11259,34.24007 2.45563,3.25054 5.84974,8.69486 7.54248,12.09849 3.5795,7.19739 3.5042,7.70014 -1.39248,9.29674 -1.74865,0.57017 -3.7552,1.57763 -4.459,2.23881 -1.22618,1.15194 -4.80549,1.58132 -6.72506,0.80676 z"
     id="path2827"
     transform="scale(0.75)" />
  <path
     style="fill:#ffffff;stroke-width:0.597015"
     d="m 273.3354,258.65672 c -0.83317,-0.90299 -2.73453,-3.92538 -4.22524,-6.71642 -5.95702,-11.15323 -9.3672,-16.87347 -10.55552,-17.70579 -0.68641,-0.48078 -1.65425,-1.6597 -2.15074,-2.61981 -0.49649,-0.96011 -3.12321,-4.50351 -5.83715,-7.87421 -2.71394,-3.3707 -6.17804,-7.88979 -7.69799,-10.04241 -3.55287,-5.03173 -32.45958,-34.05784 -36.50497,-36.65577 -1.69412,-1.08794 -5.44796,-3.89182 -8.34188,-6.23083 -2.89392,-2.33901 -6.1178,-4.68636 -7.16418,-5.21635 -1.04638,-0.52999 -2.70848,-1.7715 -3.69355,-2.75893 -2.20076,-2.20601 -9.46977,-6.43136 -25.03728,-14.55374 -6.54662,-3.41571 -12.3789,-6.64112 -12.96062,-7.16757 -0.58172,-0.52645 -1.94181,-1.14158 -3.02243,-1.36695 -1.90551,-0.39741 -1.96411,-0.49879 -1.94352,-3.36243 0.016,-2.22475 0.64476,-4.23853 2.55047,-8.16848 2.93524,-6.05307 3.73164,-6.50384 8.30544,-4.70102 5.56014,2.1916 25.7435,12.55051 26.92551,13.81925 0.63962,0.68655 2.20166,1.79252 3.4712,2.4577 3.80953,1.99603 17.00637,10.9807 20.41669,13.90009 1.75069,1.49867 3.54779,2.72486 3.99354,2.72486 1.17194,0 4.95901,3.37287 19.34706,17.23103 15.61119,15.03624 34.33972,34.70574 35.83357,37.63394 0.60507,1.18604 2.88408,4.57289 5.06447,7.52633 2.18039,2.95344 4.11817,5.97437 4.30619,6.71318 0.18801,0.7388 0.68417,1.34328 1.10258,1.34328 0.41841,0 1.45789,1.41045 2.30996,3.13433 0.85208,1.72388 2.63118,4.55194 3.95355,6.28457 1.32237,1.73264 3.59364,5.62816 5.04726,8.65672 1.45363,3.02856 3.13144,6.26298 3.72847,7.18761 1.058,1.63855 1.05525,1.70349 -0.10853,2.56361 -0.65672,0.48535 -2.67164,1.308 -4.47761,1.8281 -1.80597,0.5201 -4.55077,1.58289 -6.09956,2.36177 -3.61818,1.81955 -4.68199,1.78282 -6.53519,-0.22566 z"
     id="path2829"
     transform="scale(0.75)" />
  <path
     style="fill:#ffffff;stroke-width:0.597015"
     d="m 350.22544,217.76119 c -0.80667,-1.39552 -1.87763,-3.94602 -2.3799,-5.66778 -0.50227,-1.72176 -1.56796,-4.00534 -2.3682,-5.07463 -0.80023,-1.06928 -3.49249,-5.77849 -5.98278,-10.46491 -2.4903,-4.68641 -5.74609,-10.22799 -7.23507,-12.31462 -1.48899,-2.08662 -2.70725,-4.23632 -2.70725,-4.77711 0,-0.54079 -1.44241,-2.87648 -3.20536,-5.19042 -1.76295,-2.31394 -3.56715,-4.92691 -4.00933,-5.8066 -0.44218,-0.8797 -2.22365,-3.12428 -3.95882,-4.98796 -1.73517,-1.86369 -3.15485,-3.6735 -3.15485,-4.02182 0,-0.67781 -3.58054,-5.04594 -12.1095,-14.77314 -2.92439,-3.33523 -5.99677,-7.09643 -6.82751,-8.35821 -2.20991,-3.35657 -16.09343,-17.27183 -19.57045,-19.61521 -1.64179,-1.1065 -5.94631,-4.64699 -9.5656,-7.86777 -8.36167,-7.44097 -11.89791,-10.333547 -12.63296,-10.333547 -0.32067,0 -2.1736,-1.424044 -4.11762,-3.164544 -1.94401,-1.740498 -4.87785,-3.937444 -6.51964,-4.882102 -1.64179,-0.944657 -6.09342,-3.798203 -9.89251,-6.341212 -9.11585,-6.101907 -17.06781,-10.406377 -37.57018,-20.337092 -10.38001,-5.027754 -17.09374,-8.612755 -17.21705,-9.19356 -0.11117,-0.52363 0.13661,-1.769821 0.55061,-2.769314 1.28139,-3.093542 3.15451,-3.46143 17.62409,-3.46143 h 12.9363 l 8.72467,4.706416 c 4.79856,2.588529 10.60526,5.648136 12.90377,6.799127 5.43265,2.720429 17.2837,10.490862 20.1662,13.222465 1.24066,1.175715 2.54983,2.137664 2.90926,2.137664 1.05619,0 7.8002,5.030328 12.38573,9.238456 2.33489,2.14273 4.61161,3.895872 5.05938,3.895872 0.44777,0 4.00636,2.917047 7.90797,6.482327 10.58987,9.676974 40.53772,40.184374 41.74425,42.524204 0.57806,1.12103 2.35402,3.50232 3.94658,5.29175 1.59255,1.78943 2.89555,3.5085 2.89555,3.82016 0,0.31167 1.20896,2.03516 2.68657,3.83001 1.47761,1.79484 2.68657,3.63262 2.68657,4.08396 0,0.45134 1.33808,2.29818 2.97352,4.10408 3.26845,3.60914 5.55493,6.97825 6.2734,9.24382 0.25637,0.80842 1.05116,1.93004 1.76619,2.49249 0.71503,0.56244 2.21369,2.85623 3.33035,5.0973 1.11666,2.24107 3.08115,5.76861 4.36551,7.83898 l 2.33522,3.7643 0.29424,9.07152 c 0.3018,9.30447 -0.53577,21.04382 -1.64995,23.12569 -0.97902,1.82931 -2.1975,1.38978 -3.7914,-1.36761 z"
     id="path2831"
     transform="scale(0.75)" />
</svg>
