<?xml version="1.0" encoding="UTF-8" standalone="no"?>
<svg
   xmlns:dc="http://purl.org/dc/elements/1.1/"
   xmlns:cc="http://creativecommons.org/ns#"
   xmlns:rdf="http://www.w3.org/1999/02/22-rdf-syntax-ns#"
   xmlns:svg="http://www.w3.org/2000/svg"
   xmlns="http://www.w3.org/2000/svg"
   xmlns:sodipodi="http://sodipodi.sourceforge.net/DTD/sodipodi-0.dtd"
   xmlns:inkscape="http://www.inkscape.org/namespaces/inkscape"
   version="1.0"
   width="238.000000pt"
   height="238.000000pt"
   viewBox="0 0 238.000000 238.000000"
   preserveAspectRatio="xMidYMid meet"
   id="svg3050"
   sodipodi:docname="mytherceriasup.svg"
   inkscape:version="1.0.1 (3bc2e813f5, 2020-09-07)">
  <defs
     id="defs3054" />
  <sodipodi:namedview
     pagecolor="#ffffff"
     bordercolor="#666666"
     borderopacity="1"
     objecttolerance="10"
     gridtolerance="10"
     guidetolerance="10"
     inkscape:pageopacity="0"
     inkscape:pageshadow="2"
     inkscape:window-width="1600"
     inkscape:window-height="837"
     id="namedview3052"
     showgrid="false"
     inkscape:zoom="5.9717842"
     inkscape:cx="150.77596"
     inkscape:cy="163.90436"
     inkscape:window-x="-8"
     inkscape:window-y="-8"
     inkscape:window-maximized="1"
     inkscape:current-layer="svg3050" />
  <metadata
     id="metadata3036">
Created by potrace 1.16, written by Peter Selinger 2001-2019
<rdf:RDF>
  <cc:Work
     rdf:about="">
    <dc:format>image/svg+xml</dc:format>
    <dc:type
       rdf:resource="http://purl.org/dc/dcmitype/StillImage" />
  </cc:Work>
</rdf:RDF>
</metadata>
  <g
     transform="translate(0.000000,238.000000) scale(0.100000,-0.100000)"
     fill="#000000"
     stroke="none"
     id="g3048">
    <path
       d="M614 1773 l-573 -578 577 -578 577 -577 580 580 580 580 -575 575 c-316 316 -579 575 -584 575 -5 0 -267 -260 -582 -577z m1152 -88 c4 -9 3 -40 -1 -71 -6 -53 -12 -62 -95 -154 -48 -55 -100 -115 -115 -134 -15 -20 -31 -36 -34 -36 -4 0 -15 25 -25 55 -21 68 -98 155 -170 193 -44 23 -62 27 -136 26 -164 -1 -266 -78 -330 -247 l-10 -28 -48 54 c-196 228 -189 217 -195 283 -4 34 -4 64 0 68 3 3 264 6 580 6 503 0 574 -2 579 -15z m-586 -174 c0 -46 -73 -58 -92 -16 -13 30 -9 35 34 45 36 7 58 -3 58 -29z m69 29 c9 0 26 -6 36 -14 19 -14 19 -15 1 -35 -22 -24 -68 -28 -86 -6 -17 21 -4 69 16 61 9 -3 23 -6 33 -6z m-177 -55 c9 -21 8 -27 -13 -44 -29 -25 -38 -25 -67 -5 -29 20 -28 28 11 53 42 27 55 26 69 -4z m289 8 c35 -21 37 -37 5 -58 -23 -15 -27 -15 -51 1 -14 9 -23 22 -20 28 3 6 8 19 11 29 8 21 18 21 55 0z m-138 -39 c3 -4 0 -16 -8 -28 -8 -11 -15 -33 -15 -48 0 -18 -5 -28 -15 -28 -9 0 -15 9 -15 23 0 12 -7 33 -16 45 -8 12 -12 27 -9 32 7 11 68 14 78 4z m40 -46 c-7 -38 -21 -60 -34 -52 -16 10 -9 43 13 64 28 26 29 26 21 -12z m-176 -52 c23 -15 45 -37 48 -47 8 -24 -11 -59 -33 -59 -9 0 -30 -7 -46 -15 -37 -19 -57 -13 -80 25 -19 33 -33 128 -23 155 6 14 12 13 49 -7 24 -13 62 -36 85 -52z m44 57 c14 -17 20 -63 8 -63 -13 0 -34 34 -34 57 -1 27 7 29 26 6z m287 -21 c5 -49 -25 -139 -51 -157 -21 -13 -28 -13 -72 4 -37 14 -53 26 -60 46 -9 25 -6 31 34 65 27 23 39 40 32 44 -14 9 -14 26 -1 26 6 0 10 -7 10 -15 0 -20 13 -19 52 5 41 25 52 22 56 -18z m-330 16 c-6 -18 -28 -21 -28 -4 0 9 7 16 16 16 9 0 14 -5 12 -12z m-155 -28 c-3 -11 -9 -20 -14 -20 -10 0 -12 24 -2 33 13 13 21 7 16 -13z m527 -1 c0 -24 -23 -21 -28 4 -2 10 3 17 12 17 10 0 16 -9 16 -21z m-520 -89 c0 -39 -1 -40 -36 -40 -35 0 -35 1 -29 33 12 55 23 69 45 57 15 -8 20 -21 20 -50z m549 13 c15 -53 15 -53 -29 -53 -35 0 -40 3 -40 23 0 28 26 67 45 67 8 0 19 -17 24 -37z m-289 18 c0 -6 -4 -13 -10 -16 -5 -3 -10 1 -10 9 0 9 5 16 10 16 6 0 10 -4 10 -9z m15 -50 c0 -8 -8 -19 -17 -25 -14 -8 -22 -7 -35 7 -16 16 -16 19 -3 27 21 14 55 8 55 -9z m-222 -81 c-3 -11 4 -36 16 -55 25 -44 27 -63 4 -44 -23 19 -53 88 -53 123 0 28 1 28 19 12 11 -10 17 -25 14 -36z m141 -27 c-2 -74 -18 -118 -62 -165 -14 -16 -34 -28 -44 -28 -23 0 -22 9 2 40 26 33 25 80 -1 125 l-22 37 22 21 c22 23 78 47 96 43 6 -2 9 -34 9 -73z m190 42 c32 -21 33 -44 4 -95 l-23 -40 23 -42 c35 -68 28 -86 -21 -48 -43 34 -77 115 -77 185 0 34 3 64 6 67 8 9 57 -7 88 -27z m75 -24 c-10 -46 -50 -112 -57 -93 -2 6 4 22 14 36 10 16 14 37 11 54 -3 17 1 33 11 45 23 26 32 8 21 -42z m-456 17 c4 -25 0 -37 -15 -50 -29 -26 -36 -23 -48 22 -13 49 -8 60 29 60 25 0 30 -5 34 -32z m262 -5 c-4 -21 -9 -40 -11 -42 -7 -8 -21 13 -28 40 -7 30 0 39 27 39 17 0 18 -5 12 -37z m290 -5 c-4 -24 -9 -46 -12 -50 -7 -13 -30 -9 -51 10 -16 14 -18 22 -11 50 9 28 14 32 45 32 l36 0 -7 -42z m-512 -89 c17 -30 17 -33 1 -50 -24 -27 -36 -24 -63 18 -22 35 -23 37 -5 50 28 21 48 15 67 -18z m239 -19 c10 -25 18 -51 18 -57 0 -16 -106 -18 -115 -3 -3 5 1 23 10 39 8 17 15 39 15 51 0 17 5 20 28 18 22 -2 30 -11 44 -48z m227 33 l22 -18 -28 -33 -28 -34 -23 25 c-23 24 -23 26 -7 51 20 31 35 32 64 9z m-69 -78 c19 -20 21 -28 11 -38 -10 -9 -16 -7 -31 13 -37 48 -20 68 20 25z m-360 -6 c-12 -22 -37 -35 -47 -25 -9 8 27 46 44 46 11 0 11 -4 3 -21z m134 -39 c19 -7 26 -17 26 -35 0 -27 -17 -31 -79 -19 -35 7 -39 19 -14 46 18 21 31 22 67 8z m130 -15 c16 -25 16 -26 -11 -36 -42 -16 -77 -8 -81 19 -2 16 3 25 20 31 38 16 55 12 72 -14z m-171 -62 c69 -16 89 -15 199 12 l27 7 3 -148 3 -149 40 -19 c22 -11 65 -30 95 -42 30 -13 56 -28 58 -33 3 -8 -106 -11 -353 -11 -238 0 -356 3 -353 10 2 6 46 30 98 53 l95 42 3 148 c1 81 6 147 10 147 4 0 38 -7 75 -17z"
       id="path3038" />
    <path
       d="M1047 1332 c-11 -16 2 -54 16 -49 7 2 14 12 15 22 2 10 0 15 -6 11 -6 -3 -12 2 -14 11 -3 13 -6 15 -11 5z"
       id="path3040" />
    <path
       d="M1284 1325 c-9 -23 15 -48 32 -34 10 8 11 15 1 30 -14 23 -26 24 -33 4z"
       id="path3042" />
    <path
       d="M1064 1185 c-7 -18 3 -35 22 -35 15 0 17 9 8 34 -8 20 -23 21 -30 1z"
       id="path3044" />
    <path
       d="M1267 1186 c-8 -20 20 -43 35 -28 8 8 6 15 -5 26 -19 20 -23 20 -30 2z"
       id="path3046" />
  </g>
  <path
     style="fill:#ffffff;stroke-width:0.167454"
     d="m 110.16833,141.75825 c -3.70945,-4.1706 -17.259779,-19.96999 -20.357455,-23.73636 -5.537735,-6.73318 -7.366557,-9.52352 -8.102008,-12.36172 -0.664601,-2.56477 -1.290874,-12.182489 -0.887029,-13.622165 0.08578,-0.305803 0.271055,-0.477331 0.586089,-0.542606 2.855534,-0.591659 88.603533,-1.003333 125.548903,-0.602757 14.99349,0.162565 21.60346,0.364219 24.86694,0.75863 3.68847,0.445773 3.74056,0.495687 3.82734,3.667828 0.0895,3.272873 -0.46013,8.52746 -1.16621,11.14849 -0.83998,3.11804 -2.87395,6.04724 -8.77887,12.64278 -5.59573,6.25019 -15.81728,18.09524 -18.49634,21.43413 -2.07574,2.58698 -4.00458,4.60499 -4.40151,4.60499 -0.4061,0 -1.69566,-2.77615 -2.95583,-6.36325 -2.37586,-6.76296 -5.74012,-11.91864 -11.64656,-17.84819 -4.25581,-4.27245 -8.11784,-7.15303 -12.47916,-9.30786 -4.19604,-2.07316 -6.10235,-2.55723 -11.20996,-2.84651 -5.81682,-0.32945 -12.99445,0.15499 -17.84333,1.20431 -4.23754,0.91702 -9.55802,3.11292 -12.9777,5.35624 -8.78659,5.76402 -15.12388,14.91478 -20.03257,28.92613 -0.16939,0.48352 -0.34682,0.8786 -0.39428,0.87795 -0.0474,-6.7e-4 -1.44266,-1.52618 -3.10046,-3.39006 z"
     id="path3056"
     transform="scale(0.74999998)" />
  <path
     style="fill:#ffffff;stroke-width:0.167454"
     d="m 132.85837,246.46094 c -14.89332,-0.2069 -21.76904,-0.57645 -21.76904,-1.17002 0,-0.22322 2.06053,-1.52235 4.52116,-2.85051 2.86778,-1.54794 5.96485,-2.99437 14.23371,-6.64762 3.63794,-1.60727 6.67844,-2.98447 6.75667,-3.06043 0.0782,-0.076 0.24409,-5.28863 0.36859,-11.5837 0.25789,-13.0397 0.49161,-19.63542 0.83374,-23.52908 0.21495,-2.44614 0.44333,-3.99383 0.61461,-4.16511 0.10186,-0.10186 3.79829,0.69112 7.48546,1.60583 6.93201,1.71967 9.5085,2.0988 13.2454,1.94903 3.60837,-0.14462 8.54952,-1.08219 16.90812,-3.20828 1.24074,-0.3156 2.28773,-0.54196 2.32666,-0.50303 0.0389,0.0389 0.25121,8.90691 0.47173,19.70662 0.22051,10.79972 0.45454,19.68642 0.52005,19.74824 0.3076,0.29023 10.33883,4.92359 14.52018,6.70678 6.72531,2.86808 10.96824,5.08828 10.96824,5.73935 0,0.49514 -4.05334,0.84827 -12.55906,1.09413 -7.79541,0.22533 -47.28167,0.33679 -59.44622,0.1678 z"
     id="path3058"
     transform="scale(0.74999998)" />
  <path
     style="fill:#ffffff;stroke-width:0.167454"
     d="m 151.56545,193.19824 c -2.05901,-0.22438 -5.12226,-0.79568 -6.37303,-1.18859 -1.45178,-0.45605 -2.28749,-1.18826 -2.28523,-2.00222 0.002,-0.82028 0.83317,-2.15034 2.30709,-3.69307 1.6982,-1.77748 2.25148,-2.06336 3.97087,-2.05173 1.10717,0.007 1.67254,0.12332 3.25808,0.66745 3.35452,1.15121 4.37813,2.03815 4.70667,4.07823 0.19006,1.18013 0.007,2.47011 -0.45018,3.16742 -0.58096,0.88665 -2.63222,1.29517 -5.13427,1.02251 z"
     id="path3060"
     transform="scale(0.74999998)" />
  <path
     style="fill:#ffffff;stroke-width:0.167454"
     d="m 163.41875,193.09938 c -2.81711,-0.41491 -4.43166,-1.94054 -4.4359,-4.19159 -0.004,-2.00528 0.69706,-2.67385 4.10099,-3.91214 1.28448,-0.46727 1.74207,-0.55046 3.09791,-0.56321 1.85617,-0.0174 2.50667,0.22468 3.63731,1.35385 0.69965,0.69873 2.00888,2.60715 2.51112,3.66035 0.52984,1.11108 0.0324,1.60925 -2.5564,2.56046 -2.23385,0.82078 -4.98635,1.29387 -6.35503,1.09228 z"
     id="path3062"
     transform="scale(0.74999998)" />
  <path
     style="fill:#ffffff;stroke-width:0.167454"
     d="m 154.21564,182.46985 c -2.92313,-0.28079 -4.27695,-0.85501 -4.27695,-1.81409 0,-0.81244 0.51301,-2.42401 1.33689,-4.19969 1.34045,-2.88903 2.17965,-5.76264 2.17965,-7.46363 0,-1.86103 1.07642,-2.37222 3.99726,-1.89828 2.55608,0.41476 3.46995,1.47552 5.35612,6.21705 1.07331,2.69816 2.19907,6.18467 2.31615,7.17322 l 0.093,0.78554 -0.73206,0.34613 c -1.78356,0.84329 -6.39132,1.22633 -10.27009,0.85375 z"
     id="path3064"
     transform="scale(0.74999998)" />
  <path
     style="fill:#ffffff;stroke-width:0.167454"
     d="m 158.06486,163.55106 c -1.30139,-1.14263 -2.58387,-4.33223 -2.72326,-6.77285 -0.13248,-2.31975 0.32989,-2.92473 2.50273,-3.27465 1.25906,-0.20277 2.41687,-0.041 2.85703,0.39915 0.2994,0.2994 0.32528,0.4829 0.23892,1.69404 -0.0896,1.2568 -0.89218,5.44334 -1.30365,6.80052 -0.52759,1.74014 -0.73257,1.89061 -1.57177,1.15379 z"
     id="path3066"
     transform="scale(0.74999998)" />
  <path
     style="fill:#ffffff;stroke-width:0.167454"
     d="m 156.83005,151.51214 c -0.7512,-0.34305 -2.71505,-2.25057 -3.13473,-3.04482 -0.33354,-0.63124 -0.16354,-0.92202 0.96579,-1.65194 2.22063,-1.43526 5.22796,-1.45089 6.70633,-0.0349 1.12542,1.07796 0.001,3.46555 -2.13504,4.53522 -1.04859,0.525 -1.58649,0.56897 -2.40235,0.1964 z"
     id="path3068"
     transform="scale(0.74999998)" />
  <path
     style="fill:#ffffff;stroke-width:0.167454"
     d="m 157.62852,142.94817 c -0.51226,-0.95717 0.22271,-2.8223 1.11215,-2.8223 0.59715,0 1.13241,0.54243 1.11568,1.13063 -0.0416,1.46302 -1.68312,2.70948 -2.22783,1.69167 z"
     id="path3070"
     transform="scale(0.74999998)" />
  <path
     style="fill:#ffffff;stroke-width:0.167454"
     d="m 163.62819,136.14883 c -0.87801,-0.92035 -1.02972,-2.26254 -0.46309,-4.09706 0.44224,-1.4318 1.37115,-2.80574 2.87129,-4.24689 2.32374,-2.23236 2.82576,-2.50547 2.82317,-1.53584 -0.002,0.88737 -0.9578,5.33664 -1.43314,6.67392 -1.13522,3.19374 -2.61682,4.44427 -3.79823,3.20587 z"
     id="path3072"
     transform="scale(0.74999998)" />
  <path
     style="fill:#ffffff;stroke-width:0.167454"
     d="m 157.20642,136.9686 c -0.58883,-0.36714 -1.07192,-1.40165 -1.07192,-2.29544 0,-0.88812 -0.48268,-3.04565 -0.92476,-4.13362 -0.21562,-0.53064 -0.73572,-1.51622 -1.15577,-2.19018 -0.81943,-1.31471 -1.43601,-2.88428 -1.43601,-3.65549 0,-1.03096 1.18824,-1.53199 4.39592,-1.85357 2.9397,-0.29471 5.54102,0.0911 6.04033,0.8958 0.25262,0.40713 -0.14149,1.61027 -1.05112,3.20885 -1.37631,2.41875 -1.90885,4.14886 -2.09852,6.81766 -0.11282,1.58744 -0.46059,2.7317 -0.95396,3.13877 -0.46381,0.38268 -1.19319,0.41079 -1.74419,0.0672 z"
     id="path3074"
     transform="scale(0.74999998)" />
  <path
     style="fill:#ffffff;stroke-width:0.167454"
     d="m 151.1946,136.96936 c -1.33729,-0.82134 -2.94578,-3.34847 -3.50509,-5.50693 -0.47078,-1.81679 -0.22576,-4.56544 0.40696,-4.56544 0.71368,0 2.5507,1.77004 3.22949,3.11175 1.07509,2.12501 1.59981,5.38136 1.07036,6.64245 -0.29754,0.70872 -0.48502,0.75835 -1.20172,0.31817 z"
     id="path3076"
     transform="scale(0.74999998)" />
  <path
     style="fill:#ffffff;stroke-width:0.167454"
     d="m 142.13684,131.42649 c -0.55759,-0.23122 -0.8249,-1.06833 -0.59073,-1.84992 0.35583,-1.18767 1.69739,-1.80757 2.78719,-1.28788 0.74677,0.35611 0.85426,0.79741 0.41516,1.70445 -0.51956,1.07326 -1.79367,1.77254 -2.61162,1.43335 z"
     id="path3078"
     transform="scale(0.74999998)" />
  <path
     style="fill:#ffffff;stroke-width:0.167454"
     d="m 135.33076,127.47573 c -1.04173,-0.33177 -4.06119,-2.35978 -4.95153,-3.32568 -0.827,-0.89719 -0.89292,-1.41633 -0.29212,-2.30049 0.69853,-1.02798 4.42573,-3.61286 6.91198,-4.79357 1.41434,-0.67167 2.75525,-0.87539 3.5621,-0.54119 0.9805,0.40614 2.11549,2.13151 2.76582,4.2045 0.53826,1.71576 0.14097,2.44581 -2.53878,4.66515 -2.57959,2.13638 -3.82152,2.61229 -5.45747,2.09128 z"
     id="path3080"
     transform="scale(0.74999998)" />
  <path
     style="fill:#ffffff;stroke-width:0.167454"
     d="m 149.18515,121.14575 c -2.51902,-0.65634 -3.94745,-2.22483 -4.72459,-5.18784 -0.26805,-1.02202 -0.26625,-1.08368 0.0479,-1.63408 0.93376,-1.63628 7.12768,-3.05031 9.86969,-2.25319 2.09369,0.60865 3.2159,2.50474 2.76576,4.67302 -0.40145,1.93377 -1.78205,3.43959 -3.80566,4.15083 -1.21276,0.42625 -3.05392,0.53764 -4.15305,0.25126 z"
     id="path3082"
     transform="scale(0.74999998)" />
  <path
     style="fill:#ffffff;stroke-width:0.167454"
     d="m 163.08384,120.97854 c -1.67561,-0.43708 -2.94913,-1.36592 -3.51882,-2.56645 -0.44836,-0.94486 -0.62712,-2.51578 -0.42097,-3.69957 0.22627,-1.29931 0.40827,-1.79469 0.94717,-2.57809 0.68609,-0.99735 1.08523,-1.0727 3.10099,-0.58537 0.9535,0.23051 2.31401,0.46532 3.02336,0.5218 2.07733,0.16538 3.47153,0.73059 5.45852,2.21288 1.44027,1.07444 1.68264,1.47134 1.32272,2.16602 -0.40316,0.77812 -2.21706,2.66018 -3.12596,3.24342 -1.86543,1.19705 -4.91294,1.7742 -6.78701,1.28536 z"
     id="path3084"
     transform="scale(0.74999998)" />
  <path
     style="fill:#ffffff;stroke-width:0.167454"
     d="m 177.44982,126.98993 c -1.34728,-0.62727 -2.75101,-1.6463 -3.70365,-2.68864 -0.98091,-1.07327 -1.17582,-1.59109 -0.87773,-2.33186 0.11391,-0.28309 0.53031,-1.38817 0.92532,-2.45575 0.39501,-1.06759 0.84129,-2.12892 0.99174,-2.35852 0.67101,-1.0241 1.81355,-1.10531 3.75277,-0.26672 3.00912,1.30124 5.69557,3.27724 6.31099,4.64199 0.38679,0.85775 0.19335,1.63772 -0.65075,2.62387 -1.13271,1.32331 -4.313,3.24178 -5.37398,3.24178 -0.2763,0 -0.89492,-0.18277 -1.37471,-0.40615 z"
     id="path3086"
     transform="scale(0.74999998)" />
  <path
     style="fill:#ffffff;stroke-width:0.167454"
     d="m 177.60728,153.68903 c -1.09122,-0.22967 -4.02104,-1.2619 -6.23202,-2.19566 -4.24338,-1.79211 -5.82011,-3.20448 -6.78447,-6.07726 -0.91517,-2.72624 -0.48815,-3.47435 4.46669,-7.82527 2.60186,-2.28474 4.01858,-3.82687 4.50223,-4.90077 0.34025,-0.75551 0.27423,-1.02774 -0.38349,-1.58117 -1.02613,-0.86343 -1.30839,-2.30539 -0.54871,-2.80315 0.87666,-0.57441 1.925,0.325 1.92632,1.65266 9.3e-4,0.94122 0.39943,1.76238 0.91849,1.89266 1.07437,0.26965 2.53643,-0.28005 5.65814,-2.12733 2.95075,-1.74611 4.30493,-2.35237 5.322,-2.38265 0.76739,-0.0228 0.9049,0.0301 1.33845,0.51492 0.58078,0.64952 0.93393,1.80298 1.15284,3.76537 0.64098,5.74603 -2.4961,16.40014 -5.95694,20.23088 -1.27869,1.41535 -3.60612,2.21002 -5.37953,1.83677 z m -2.56701,-8.11235 c 0.25806,-0.13344 0.70644,-0.51284 0.99641,-0.84309 0.90429,-1.02993 0.69254,-2.09246 -0.8603,-4.31704 -1.1143,-1.59633 -2.46271,-2.1042 -3.27919,-1.2351 -0.52694,0.5609 -1.02701,1.98236 -1.02509,2.9138 0.005,2.42284 2.37969,4.40629 4.16817,3.48143 z"
     id="path3088"
     transform="scale(0.74999998)" />
  <path
     style="fill:#ffffff;stroke-width:0.167454"
     d="m 192.80695,135.48635 c -0.8248,-0.30152 -1.6382,-1.61861 -1.78973,-2.89803 -0.0893,-0.75414 -0.056,-0.85716 0.43597,-1.34915 0.46957,-0.46957 0.61258,-0.52194 1.20739,-0.44216 0.3711,0.0498 0.82731,0.22858 1.01379,0.39734 1.07473,0.97262 1.19603,3.19187 0.22046,4.03348 -0.4411,0.38054 -0.63077,0.42561 -1.08788,0.25852 z"
     id="path3090"
     transform="scale(0.74999998)" />
  <path
     style="fill:#ffffff;stroke-width:0.167454"
     d="m 179.06907,172.26465 c -0.27923,-0.52174 0.32316,-2.30558 1.34883,-3.99427 1.74527,-2.87349 2.02873,-4.05936 1.96666,-8.22766 -0.0401,-2.69357 -0.0144,-2.99175 0.3309,-3.84125 0.69526,-1.71037 2.3844,-3.40537 3.30361,-3.31507 0.75789,0.0744 1.00911,0.72393 0.9908,2.56152 -0.032,3.20835 -1.09592,7.03289 -3.07456,11.05198 -1.32195,2.68521 -2.26777,4.18096 -3.36191,5.31666 -0.83638,0.86815 -1.21859,0.982 -1.50433,0.44809 z"
     id="path3092"
     transform="scale(0.74999998)" />
  <path
     style="fill:#ffffff;stroke-width:0.167454"
     d="m 190.89646,150.26007 c -1.08964,-0.38828 -1.33443,-0.75646 -1.41166,-2.12318 -0.0918,-1.62459 0.18152,-2.75728 1.14992,-4.76553 1.20337,-2.49553 3.27401,-4.58512 4.54355,-4.58512 1.25464,0 2.5904,2.29255 3.65879,6.27953 1.06759,3.98395 1.04026,4.80644 -0.17358,5.22349 -0.86483,0.29713 -6.91506,0.2744 -7.76702,-0.0292 z"
     id="path3094"
     transform="scale(0.74999998)" />
  <path
     style="fill:#ffffff;stroke-width:0.167454"
     d="m 194.64895,166.32044 c -0.50655,-0.13843 -1.32447,-0.49377 -1.81761,-0.78966 -1.22932,-0.7376 -2.98552,-2.37307 -3.38129,-3.14884 -0.43274,-0.84824 -0.43101,-2.53894 0.004,-4.24112 0.68645,-2.68399 1.58985,-4.03903 2.97122,-4.45668 0.3479,-0.10519 2.24203,-0.23246 4.20919,-0.28283 l 3.57665,-0.0916 -0.0969,0.48301 c -0.0533,0.26566 -0.36516,2.06546 -0.69305,3.99955 -0.66022,3.89442 -1.2883,6.69763 -1.69061,7.54544 -0.50272,1.0594 -1.56354,1.39766 -3.08193,0.98272 z"
     id="path3096"
     transform="scale(0.74999998)" />
  <path
     style="fill:#ffffff;stroke-width:0.167454"
     d="m 186.32103,177.56949 c -2.85834,-3.12063 -3.11232,-3.49338 -3.01047,-4.4182 0.14238,-1.29272 2.44793,-4.70764 3.82051,-5.65883 0.59274,-0.41077 0.87247,-0.4902 1.72639,-0.4902 1.37759,0 2.41036,0.54296 5.04014,2.64975 l 2.07953,1.66597 -0.37104,0.45639 c -1.93684,2.38228 -6.88138,8.20558 -6.96732,8.20558 -0.0604,0 -1.10342,-1.08471 -2.31774,-2.41046 z"
     id="path3098"
     transform="scale(0.74999998)" />
  <path
     style="fill:#ffffff;stroke-width:0.167454"
     d="m 183.29076,184.62681 c -1.1236,-0.77259 -3.38853,-3.93631 -4.15932,-5.80985 -0.93908,-2.28258 -0.18714,-3.12048 1.78627,-1.99047 1.0882,0.62312 3.92904,3.40592 4.67048,4.57503 0.87624,1.3817 0.56623,2.63453 -0.83067,3.35689 -0.63441,0.32807 -0.82284,0.31116 -1.46676,-0.1316 z"
     id="path3100"
     transform="scale(0.74999998)" />
  <path
     style="fill:#ffffff;stroke-width:0.167454"
     d="m 130.05351,183.58296 c -0.20722,-0.1501 -0.37606,-0.43819 -0.3752,-0.64019 0.005,-1.09143 2.74657,-4.14105 4.51597,-5.02277 0.99687,-0.49676 2.02692,-0.58765 2.34305,-0.20674 0.16104,0.19404 0.14579,0.41865 -0.0732,1.07788 -0.58364,1.75719 -2.26953,3.76811 -3.82656,4.56433 -0.91039,0.46554 -2.10968,0.57112 -2.58409,0.22749 z"
     id="path3102"
     transform="scale(0.74999998)" />
  <path
     style="fill:#ffffff;stroke-width:0.167454"
     d="m 135.30892,187.50314 c -0.34968,-0.27506 -0.41981,-0.44024 -0.33768,-0.7954 0.15407,-0.66629 0.81253,-1.76638 2.12257,-3.54616 0.64403,-0.87494 1.38452,-2.04294 1.64555,-2.59554 1.78801,-3.7852 1.49533,-8.79687 -0.77744,-13.3126 -0.3013,-0.59865 -1.22868,-2.2362 -2.06085,-3.63901 l -1.51302,-2.55056 2.01205,-1.88698 c 2.41282,-2.26284 3.45204,-3.00758 6.03268,-4.32327 3.28422,-1.6744 6.83185,-2.67371 7.56191,-2.13007 0.71949,0.53576 1.22537,5.38543 1.06148,10.17608 -0.21116,6.17281 -1.16806,10.44605 -3.22258,14.39106 -2.23724,4.29588 -6.18857,8.68832 -9.05454,10.06536 -1.30543,0.62723 -2.78026,0.68975 -3.47013,0.14709 z m 10.93951,-23.84429 c 0.89114,-0.80646 -0.0931,-4.87896 -1.43412,-5.93378 -1.47285,-1.15854 -3.24832,0.53603 -3.24832,3.10031 0,1.49602 0.50768,2.34469 1.75826,2.93923 0.85725,0.40754 2.41942,0.35104 2.92418,-0.10576 z"
     id="path3104"
     transform="scale(0.74999998)" />
  <path
     style="fill:#ffffff;stroke-width:0.167454"
     d="m 135.027,153.79649 c -1.09062,-0.29414 -1.85455,-0.81633 -2.95869,-2.02244 -2.27386,-2.48387 -3.62179,-5.96775 -4.64434,-12.00392 -0.88023,-5.19599 -0.92353,-9.73531 -0.10811,-11.33366 0.6128,-1.20118 1.34833,-1.18075 3.97068,0.11029 3.58165,1.76334 9.89557,5.52175 13.72956,8.17263 3.06775,2.12108 5.90119,4.94345 6.26014,6.23566 0.45147,1.62531 -0.0211,3.93499 -1.12914,5.51879 -0.95373,1.36321 -1.7241,1.83931 -3.42055,2.11393 -1.80792,0.29266 -3.47041,0.85019 -6.03682,2.02449 -1.9648,0.89902 -3.62373,1.41663 -4.48228,1.39853 -0.23025,-0.005 -0.76145,-0.10129 -1.18045,-0.2143 z m 7.51782,-7.89736 c 0.77783,-0.6545 1.2263,-1.74511 1.25612,-3.0547 l 0.0257,-1.12775 -0.50237,0.0364 c -0.27629,0.02 -0.67863,0.0483 -0.89408,0.0628 -0.55788,0.0376 -0.81856,-0.2942 -1.33906,-1.70427 -0.5726,-1.55124 -0.89573,-1.63384 -1.58188,-0.40438 -0.43595,0.78116 -0.46343,0.9439 -0.40992,2.42809 0.0631,1.75025 0.44318,2.88221 1.25108,3.72585 0.58876,0.61481 1.49034,0.63041 2.19443,0.038 z"
     id="path3106"
     transform="scale(0.74999998)" />
  <path
     style="fill:#ffffff;stroke-width:0.167454"
     d="m 135.86659,172.30617 c -1.59238,-1.0165 -3.06856,-3.06408 -4.77313,-6.62069 -2.22006,-4.6322 -3.04456,-7.89475 -2.9469,-11.66092 0.0366,-1.40964 0.18128,-1.65826 0.77909,-1.33832 0.78881,0.42216 2.50692,2.23923 2.92905,3.09776 0.3687,0.74986 0.41291,1.06063 0.42864,3.01301 0.016,1.98441 0.0652,2.31756 0.55611,3.76771 0.29621,0.87495 0.94065,2.30668 1.43209,3.18163 1.88916,3.36341 2.84379,5.60717 2.74481,6.4514 -0.0757,0.64546 -0.2785,0.66458 -1.14976,0.10842 z"
     id="path3108"
     transform="scale(0.74999998)" />
  <path
     style="fill:#ffffff;stroke-width:0.167454"
     d="m 126.57884,179.33376 c -1.69413,-1.04552 -5.95151,-7.30246 -5.99423,-8.80953 -0.019,-0.66845 0.25748,-1.02519 1.52171,-1.96386 2.7017,-2.00595 4.86862,-2.15779 6.78472,-0.47543 1.24984,1.09737 3.56961,5.10862 3.73763,6.46296 0.10272,0.82788 -0.18724,1.36527 -1.56181,2.89461 -1.8626,2.0723 -3.2484,2.65628 -4.48802,1.89125 z"
     id="path3110"
     transform="scale(0.74999998)" />
  <path
     style="fill:#ffffff;stroke-width:0.167454"
     d="m 119.62079,166.17425 c -0.51129,-0.28283 -1.16095,-1.44859 -1.63825,-2.93971 -1.2528,-3.91385 -1.68165,-7.26336 -1.0709,-8.36425 0.17625,-0.3177 0.59743,-0.72137 0.93596,-0.89705 1.40259,-0.72788 5.28178,-0.72403 6.28912,0.006 0.64143,0.46501 1.14313,1.61794 1.43185,3.29051 0.32854,1.90315 0.32505,3.16065 -0.0119,4.30148 -0.22766,0.77073 -0.48998,1.12854 -1.71897,2.34466 -2.07574,2.05401 -3.35117,2.737 -4.21688,2.25812 z"
     id="path3112"
     transform="scale(0.74999998)" />
  <path
     style="fill:#ffffff;stroke-width:0.167454"
     d="m 117.12098,150.29294 c -0.59068,-0.29887 -0.86147,-0.91768 -0.74857,-1.71064 0.48077,-3.37678 1.73747,-7.68244 2.62175,-8.98251 0.91836,-1.35019 1.98159,-1.65462 3.36313,-0.96296 2.24387,1.12339 2.85586,2.69379 2.84363,7.29692 -0.0117,4.40232 -0.19049,4.57497 -4.73416,4.57155 -2.01427,-0.002 -3.06029,-0.0679 -3.34578,-0.21236 z"
     id="path3114"
     transform="scale(0.74999998)" />
  <path
     style="fill:#ffffff;stroke-width:0.167454"
     d="m 121.98246,135.57527 c -0.64719,-0.69468 -0.65228,-2.38852 -0.0104,-3.44409 0.43751,-0.71941 1.55125,-1.445 1.9996,-1.3027 0.9639,0.30593 0.44945,3.36432 -0.78226,4.65054 -0.53223,0.55578 -0.76182,0.57409 -1.20699,0.0962 z"
     id="path3116"
     transform="scale(0.74999998)" />
  <path
     style="fill:#ffffff;stroke-width:0.167454"
     d="m 142.06835,131.37381 c -0.96514,-0.49579 -0.74345,-2.28861 0.36669,-2.96544 0.65858,-0.40152 1.31374,-0.43135 1.97411,-0.0899 0.67458,0.34884 0.76503,0.79522 0.33931,1.67463 -0.54937,1.13486 -1.85215,1.80599 -2.68011,1.38067 z"
     id="path3118"
     transform="scale(0.74999998)" />
  <path
     style="fill:#ffffff;stroke-width:0.167454"
     d="m 135.33076,127.46706 c -1.03046,-0.31691 -4.05174,-2.34085 -4.95153,-3.31701 -0.827,-0.89719 -0.89292,-1.41633 -0.29212,-2.30049 0.71427,-1.05114 4.38044,-3.59027 6.93997,-4.80652 1.38613,-0.65866 2.73316,-0.86 3.53411,-0.52824 0.74286,0.30771 1.48369,1.24323 2.20732,2.78742 0.80472,1.71723 0.95042,2.63677 0.55113,3.47822 -0.57709,1.21613 -4.49254,4.3872 -5.89951,4.77794 -0.79957,0.22206 -1.11529,0.20826 -2.08937,-0.0913 z"
     id="path3120"
     transform="scale(0.74999998)" />
</svg>
