<?xml version="1.0" encoding="UTF-8" standalone="no"?>
<svg
   xmlns:dc="http://purl.org/dc/elements/1.1/"
   xmlns:cc="http://creativecommons.org/ns#"
   xmlns:rdf="http://www.w3.org/1999/02/22-rdf-syntax-ns#"
   xmlns:svg="http://www.w3.org/2000/svg"
   xmlns="http://www.w3.org/2000/svg"
   xmlns:sodipodi="http://sodipodi.sourceforge.net/DTD/sodipodi-0.dtd"
   xmlns:inkscape="http://www.inkscape.org/namespaces/inkscape"
   version="1.0"
   width="238.000000pt"
   height="235.000000pt"
   viewBox="0 0 238.000000 235.000000"
   preserveAspectRatio="xMidYMid meet"
   id="svg3202"
   sodipodi:docname="necromancysup.svg"
   inkscape:version="1.0.1 (3bc2e813f5, 2020-09-07)">
  <defs
     id="defs3206" />
  <sodipodi:namedview
     pagecolor="#ffffff"
     bordercolor="#666666"
     borderopacity="1"
     objecttolerance="10"
     gridtolerance="10"
     guidetolerance="10"
     inkscape:pageopacity="0"
     inkscape:pageshadow="2"
     inkscape:window-width="1600"
     inkscape:window-height="837"
     id="namedview3204"
     showgrid="false"
     inkscape:zoom="2.1382979"
     inkscape:cx="158.66667"
     inkscape:cy="156.66667"
     inkscape:window-x="-8"
     inkscape:window-y="-8"
     inkscape:window-maximized="1"
     inkscape:current-layer="svg3202" />
  <metadata
     id="metadata3190">
Created by potrace 1.16, written by Peter Selinger 2001-2019
<rdf:RDF>
  <cc:Work
     rdf:about="">
    <dc:format>image/svg+xml</dc:format>
    <dc:type
       rdf:resource="http://purl.org/dc/dcmitype/StillImage" />
  </cc:Work>
</rdf:RDF>
</metadata>
  <g
     transform="translate(0.000000,235.000000) scale(0.100000,-0.100000)"
     fill="#000000"
     stroke="none"
     id="g3200">
    <path
       d="M622 1747 c-314 -314 -572 -577 -572 -582 0 -6 258 -268 573 -583 l572 -572 580 580 580 580 -575 575 c-316 316 -577 575 -580 575 -3 0 -263 -258 -578 -573z m663 129 c101 -6 222 -34 285 -66 56 -28 126 -94 156 -146 50 -85 59 -177 39 -384 -5 -42 -38 -115 -79 -169 -14 -19 -24 -36 -22 -39 4 -3 99 9 184 24 24 5 31 3 28 -7 -3 -8 -21 -67 -41 -133 l-36 -118 -37 5 c-54 6 -157 -10 -201 -33 -55 -28 -75 -80 -73 -195 1 -49 3 -99 4 -110 3 -18 -4 -20 -54 -23 l-57 -3 -7 81 c-6 76 -8 80 -30 80 -23 0 -24 -2 -24 -80 l0 -80 -44 0 -43 0 -7 46 c-3 26 -6 64 -6 85 0 36 -2 39 -27 39 l-28 0 3 -86 4 -85 -48 3 -47 3 2 83 c2 82 2 82 -23 82 -30 0 -35 -14 -38 -105 l-3 -60 -46 -3 -46 -3 1 130 c1 116 -1 132 -20 158 -32 43 -111 81 -199 95 l-77 12 -49 104 c-27 58 -49 106 -49 108 0 2 54 4 121 4 l121 0 -57 63 c-83 91 -105 133 -112 214 -11 133 33 282 107 367 93 105 250 160 430 150 30 -2 96 -6 145 -8z"
       id="path3192" />
    <path
       d="M930 1321 c-108 -57 -108 -215 0 -272 103 -55 220 18 220 136 0 87 -66 155 -150 155 -19 0 -51 -8 -70 -19z m137 -65 c23 -20 28 -32 28 -71 0 -39 -5 -51 -28 -71 -53 -45 -131 -27 -157 35 -39 94 79 174 157 107z"
       id="path3194" />
    <path
       d="M1374 1310 c-40 -16 -74 -68 -74 -113 0 -47 27 -100 62 -118 32 -17 101 -14 132 7 51 33 71 109 43 164 -27 54 -106 83 -163 60z"
       id="path3196" />
    <path
       d="M1147 949 c-38 -54 -65 -99 -62 -99 3 0 31 16 61 35 30 19 59 35 64 35 6 0 27 -11 48 -23 20 -13 47 -29 60 -36 22 -12 23 -11 12 10 -10 18 -108 170 -113 176 -1 1 -33 -43 -70 -98z"
       id="path3198" />
  </g>
  <path
     style="fill:#ffffff;stroke-width:0.467662"
     d="m 123.33868,233.02893 c 0.0234,-19.50094 -0.0136,-19.69395 -4.65393,-24.25769 -2.15941,-2.12377 -4.12843,-3.45458 -7.76172,-5.24594 -5.94474,-2.931 -10.951572,-4.40217 -19.436583,-5.7111 -3.562073,-0.5495 -6.771099,-1.15072 -7.131168,-1.33604 -0.84858,-0.43675 -13.265396,-27.07323 -12.897729,-27.66813 0.170628,-0.27608 6.362206,-0.45182 15.918309,-0.45182 8.601487,0 15.633831,-0.15784 15.627431,-0.35075 -0.006,-0.19291 -2.65522,-3.29701 -5.886262,-6.89801 -14.655459,-16.33348 -16.94727,-21.65988 -16.399647,-38.11443 0.590074,-17.7301 6.333751,-32.707907 16.424458,-42.830123 12.216451,-12.254596 31.335051,-18.663235 53.106921,-17.80167 22.52645,0.891425 32.37003,1.921028 42.79104,4.475789 9.68545,2.374435 15.36187,4.615176 20.48296,8.085562 9.78528,6.631148 17.51182,16.416759 20.41583,25.856512 2.41504,7.8503 2.98958,20.09456 1.66776,35.54229 -0.96831,11.31644 -3.20488,17.30527 -10.32476,27.64657 -3.73711,5.42798 -4.19163,6.72657 -2.35434,6.72657 1.70749,0 11.83929,-1.35063 19.44861,-2.59261 3.72835,-0.60854 6.95,-0.93527 7.15919,-0.72607 0.2092,0.2092 -1.89231,7.82842 -4.67002,16.93161 l -5.05039,16.55125 -8.42225,0.0192 c -6.91852,0.0158 -9.28049,0.20572 -13.22922,1.06383 -17.51953,3.80722 -20.85505,9.89834 -19.76634,36.09606 0.32593,7.84283 0.28114,9.19743 -0.31993,9.67686 -0.72607,0.57912 -2.69744,0.85526 -9.5583,1.33885 l -4.05355,0.28571 -0.26458,-2.49399 c -0.14552,-1.3717 -0.57851,-5.7323 -0.96222,-9.69023 -0.81653,-8.42261 -1.2317,-9.40577 -3.97184,-9.40577 -3.23944,0 -3.29626,0.19807 -3.29626,11.49112 v 10.02132 h -5.58043 c -4.91099,0 -5.60937,-0.0982 -5.82171,-0.81841 -0.53563,-1.8167 -1.27386,-8.64339 -1.55067,-14.33955 -0.36189,-7.44678 -0.56537,-7.75746 -5.08082,-7.75746 h -3.06846 l 0.24554,1.98756 c 0.13505,1.09316 0.37697,6.25179 0.53759,11.46361 l 0.29205,9.47606 -4.13331,-0.26141 c -2.27332,-0.14377 -4.98306,-0.36307 -6.02163,-0.48734 l -1.88832,-0.22593 0.0177,-10.52335 c 0.0196,-11.68023 0.0936,-11.40875 -3.11297,-11.42204 -2.46312,-0.0102 -4.01372,1.50316 -4.54473,4.43562 -0.23288,1.28607 -0.57435,5.74917 -0.75882,9.918 l -0.3354,7.57968 -1.92864,0.23411 c -1.06075,0.12875 -3.72623,0.35554 -5.92329,0.50397 l -3.99465,0.26987 0.0196,-16.26774 z m 28.9624,-37.03129 c 9.59272,-5.74702 8.68536,-5.45369 11.85545,-3.83261 1.48182,0.75775 5.00548,2.76121 7.83036,4.45212 7.42708,4.4457 7.76516,4.20782 3.67273,-2.58419 -3.47481,-5.76699 -13.14847,-20.53047 -13.45242,-20.53047 -0.9208,0 -17.57038,24.7904 -17.57038,26.16142 0,0.84058 0.7026,0.50448 7.66426,-3.66627 z M 137.1731,175.83722 c 13.6152,-2.58207 20.3856,-17.82095 13.7422,-30.93107 -2.2837,-4.50667 -7.11872,-8.34111 -12.26504,-9.72686 -3.096,-0.83367 -7.90789,-0.66186 -11.31693,0.40407 -17.45656,5.4583 -19.46726,30.09858 -3.11371,38.15713 4.86563,2.39764 8.37311,2.96538 12.95348,2.09673 z m 56.81821,-5.18327 c 3.64608,-0.67402 5.69707,-1.77386 8.03233,-4.30732 2.26941,-2.46201 3.32581,-4.37747 4.17799,-7.57549 2.93238,-11.0045 -4.42898,-20.62855 -16.20163,-21.18159 -5.41445,-0.25435 -8.32985,0.83502 -11.66104,4.35726 -5.66533,5.99024 -6.67136,13.75012 -2.77326,21.39103 1.16686,2.28723 3.93436,5.3547 5.6153,6.22395 3.00538,1.55414 8.00529,1.98041 12.81031,1.09216 z"
     id="path3208"
     transform="scale(0.74999998)" />
  <path
     style="fill:#ffffff;stroke-width:0.467662"
     d="m 129.61659,167.27359 c -5.70456,-2.13526 -8.92405,-6.46802 -8.92405,-12.00991 0,-3.2753 0.89709,-5.4502 3.34223,-8.10286 2.50234,-2.71472 5.92121,-4.21059 9.612,-4.20558 4.53667,0.006 9.15657,2.63493 11.00774,6.26352 1.1212,2.19774 1.29522,9.38022 0.2858,11.7961 -1.98342,4.74698 -10.29411,8.14135 -15.32372,6.25873 z"
     id="path3210"
     transform="scale(0.74999998)" />
</svg>
