<?xml version="1.0" encoding="UTF-8" standalone="no"?>
<svg
   xmlns:dc="http://purl.org/dc/elements/1.1/"
   xmlns:cc="http://creativecommons.org/ns#"
   xmlns:rdf="http://www.w3.org/1999/02/22-rdf-syntax-ns#"
   xmlns:svg="http://www.w3.org/2000/svg"
   xmlns="http://www.w3.org/2000/svg"
   xmlns:sodipodi="http://sodipodi.sourceforge.net/DTD/sodipodi-0.dtd"
   xmlns:inkscape="http://www.inkscape.org/namespaces/inkscape"
   version="1.0"
   width="286.000000pt"
   height="291.000000pt"
   viewBox="0 0 286.000000 291.000000"
   preserveAspectRatio="xMidYMid meet"
   id="svg394"
   sodipodi:docname="politicalaction.svg"
   inkscape:version="1.0.1 (3bc2e813f5, 2020-09-07)">
  <defs
     id="defs398" />
  <sodipodi:namedview
     pagecolor="#ffffff"
     bordercolor="#666666"
     borderopacity="1"
     objecttolerance="10"
     gridtolerance="10"
     guidetolerance="10"
     inkscape:pageopacity="0"
     inkscape:pageshadow="2"
     inkscape:window-width="1600"
     inkscape:window-height="837"
     id="namedview396"
     showgrid="false"
     inkscape:zoom="1.7268041"
     inkscape:cx="190.66667"
     inkscape:cy="194"
     inkscape:window-x="-8"
     inkscape:window-y="-8"
     inkscape:window-maximized="1"
     inkscape:current-layer="svg394" />
  <metadata
     id="metadata382">
Created by potrace 1.16, written by Peter Selinger 2001-2019
<rdf:RDF>
  <cc:Work
     rdf:about="">
    <dc:format>image/svg+xml</dc:format>
    <dc:type
       rdf:resource="http://purl.org/dc/dcmitype/StillImage" />
  </cc:Work>
</rdf:RDF>
</metadata>
  <g
     transform="translate(0.000000,291.000000) scale(0.100000,-0.100000)"
     fill="#000000"
     stroke="none"
     id="g392">
    <path
       d="M240 1460 l0 -1200 1200 0 1200 0 0 1200 0 1200 -1200 0 -1200 0 0 -1200z m1356 1129 c491 -68 885 -451 970 -944 23 -131 15 -338 -19 -467 -107 -409 -423 -725 -827 -828 -608 -154 -1226 214 -1387 828 -34 129 -42 336 -19 467 75 435 392 790 813 910 153 44 315 56 469 34z"
       id="path384" />
    <path
       d="M1427 2520 c-7 -18 -117 -569 -117 -587 0 -10 30 -13 115 -13 63 0 115 2 115 5 0 6 -99 575 -104 595 -3 13 -4 13 -9 0z"
       id="path386" />
    <path
       d="M1304 1846 c-183 -42 -359 -193 -448 -386 -34 -74 -66 -200 -66 -260 l0 -30 105 0 105 0 0 60 0 60 80 0 80 0 0 -60 0 -60 90 0 89 0 3 68 3 67 75 0 75 0 3 -67 3 -68 89 0 90 0 0 65 0 65 80 0 80 0 0 -65 0 -66 112 3 112 3 -3 49 c-13 211 -163 440 -362 554 -121 69 -275 95 -395 68z"
       id="path388" />
    <path
       d="M790 820 l0 -250 640 0 640 0 -2 248 -3 247 -112 3 -113 3 0 -116 0 -115 -80 0 -80 0 0 115 0 115 -90 0 -90 0 0 -110 0 -110 -80 0 -80 0 0 110 0 110 -90 0 -90 0 0 -120 0 -121 -77 3 -78 3 -3 118 -3 117 -104 0 -105 0 0 -250z"
       id="path390" />
  </g>
  <path
     style="fill:#ffffff;stroke-width:0.579104"
     d="M 178.50547,345.10047 C 133.64825,340.84399 92.354582,316.45917 66.787163,279.12836 54.056623,260.54059 45.338562,238.80823 42.046018,217.45373 c -0.870743,-5.64739 -1.070904,-10.3124 -1.068448,-24.90149 0.0027,-16.1182 0.133773,-18.63261 1.282865,-24.61194 6.333212,-32.95504 21.90707,-61.83177 45.431917,-84.238939 23.640508,-22.517339 52.472058,-36.213381 86.180288,-40.938805 8.38543,-1.175521 30.44552,-0.999759 39.08955,0.311442 65.19227,9.888929 116.12397,58.952092 128.5051,123.790632 2.38664,12.49854 2.65547,33.75969 0.62136,49.14134 -4.97449,37.61621 -27.4363,75.22399 -59.23558,99.17805 -29.70287,22.37487 -68.02832,33.36277 -104.3476,29.91645 z m 97.5221,-66.11689 c -0.21512,-18.23455 -0.4206,-33.1848 -0.45661,-33.22279 -0.036,-0.038 -6.90616,-0.25205 -15.26698,-0.4757 l -15.20149,-0.40664 v 15.38764 15.38764 h -10.42388 -10.42388 v -15.34627 -15.34627 h -12.1612 -12.16119 v 14.76717 14.76716 h -10.42388 -10.42388 v -14.76716 -14.76717 h -12.45075 -12.45075 v 16.07428 16.07429 l -6.80447,-0.15856 c -3.74247,-0.0872 -8.14092,-0.29931 -9.77434,-0.47133 -2.8989,-0.3053 -2.97831,-0.36388 -3.32348,-2.45155 -0.19449,-1.17632 -0.35648,-6.20386 -0.35999,-11.17229 -0.003,-4.96844 -0.17491,-11.02732 -0.3809,-13.46418 l -0.37453,-4.43066 H 119.06229 104.9592 v 33.58806 33.58806 h 85.72975 85.72975 z M 133.33532,224.11343 v -8.10746 h 10.42388 10.42388 v 8.10746 8.10747 h 12.45075 12.45075 l 0.004,-5.06717 c 0.002,-2.78694 0.17025,-6.82619 0.37329,-8.97612 l 0.36918,-3.90895 h 9.76103 9.76104 v 5.41654 c 0,2.9791 0.16743,7.01835 0.37205,8.97612 l 0.37205,3.55958 h 12.0787 12.07869 v -8.68657 -8.68657 h 10.42388 10.42388 v 8.68657 8.68657 l 5.93582,-0.002 c 3.26471,-0.001 10.04023,-0.17216 15.05672,-0.38022 l 9.1209,-0.37829 v -3.45441 c 6e-5,-14.51514 -6.81888,-33.69782 -17.23462,-48.48385 -5.16776,-7.33608 -18.00131,-20.14723 -24.75039,-24.70718 -9.57594,-6.46988 -19.30025,-10.61436 -30.58343,-13.03458 -4.73485,-1.01561 -7.78737,-1.26355 -15.45538,-1.25531 -8.42317,0.009 -10.21864,0.18751 -15.1549,1.50626 -23.1787,6.19231 -45.03528,24.81069 -56.58815,48.20424 -5.5802,11.29941 -9.59587,25.46774 -10.29936,36.33881 l -0.36539,5.64627 h 14.27554 14.27554 z m 72.0075,-92.51194 c 0.50046,-0.81438 -13.33764,-80.068465 -14.12188,-80.879373 -0.3024,-0.312687 -0.74268,0.08012 -1.07782,0.961604 -0.99301,2.611808 -14.14877,67.840609 -15.41646,76.437779 -0.3725,2.52625 -0.29563,2.7891 0.96312,3.29314 1.61501,0.6467 29.2634,0.82092 29.65304,0.18685 z"
     id="path400"
     transform="scale(0.74999999)" />
</svg>
