<?xml version="1.0" encoding="UTF-8" standalone="no"?>
<svg
   xmlns:dc="http://purl.org/dc/elements/1.1/"
   xmlns:cc="http://creativecommons.org/ns#"
   xmlns:rdf="http://www.w3.org/1999/02/22-rdf-syntax-ns#"
   xmlns:svg="http://www.w3.org/2000/svg"
   xmlns="http://www.w3.org/2000/svg"
   xmlns:sodipodi="http://sodipodi.sourceforge.net/DTD/sodipodi-0.dtd"
   xmlns:inkscape="http://www.inkscape.org/namespaces/inkscape"
   version="1.0"
   width="288.000000pt"
   height="289.000000pt"
   viewBox="0 0 288.000000 289.000000"
   preserveAspectRatio="xMidYMid meet"
   id="svg222"
   sodipodi:docname="protean.svg"
   inkscape:version="1.0.1 (3bc2e813f5, 2020-09-07)">
  <defs
     id="defs226" />
  <sodipodi:namedview
     pagecolor="#ffffff"
     bordercolor="#666666"
     borderopacity="1"
     objecttolerance="10"
     gridtolerance="10"
     guidetolerance="10"
     inkscape:pageopacity="0"
     inkscape:pageshadow="2"
     inkscape:window-width="1600"
     inkscape:window-height="837"
     id="namedview224"
     showgrid="false"
     inkscape:zoom="1.7387543"
     inkscape:cx="192"
     inkscape:cy="192.66667"
     inkscape:window-x="-8"
     inkscape:window-y="-8"
     inkscape:window-maximized="1"
     inkscape:current-layer="svg222" />
  <metadata
     id="metadata216">
Created by potrace 1.16, written by Peter Selinger 2001-2019
<rdf:RDF>
  <cc:Work
     rdf:about="">
    <dc:format>image/svg+xml</dc:format>
    <dc:type
       rdf:resource="http://purl.org/dc/dcmitype/StillImage" />
  </cc:Work>
</rdf:RDF>
</metadata>
  <g
     transform="translate(0.000000,289.000000) scale(0.100000,-0.100000)"
     fill="#000000"
     stroke="none"
     id="g220">
    <path
       d="M240 1450 l0 -1200 1200 0 1200 0 0 1200 0 1200 -1200 0 -1200 0 0 -1200z m1082 324 l3 -806 75 50 c89 58 201 171 259 262 152 234 224 540 238 1008 3 111 9 202 12 202 4 0 42 -20 85 -45 307 -175 513 -466 572 -810 23 -131 15 -338 -19 -467 -135 -512 -582 -860 -1107 -860 -525 0 -972 348 -1107 860 -34 129 -42 336 -19 467 78 451 406 806 850 921 50 12 106 23 123 24 l33 0 2 -806z"
       id="path218" />
  </g>
  <path
     style="fill:#ffffff;stroke-width:0.575124"
     d="m 179.92239,343.52288 c -29.75204,-2.30543 -59.13223,-13.9246 -82.817912,-32.75253 -6.246759,-4.9656 -18.187894,-16.89849 -23.22419,-23.20816 -13.850887,-17.35294 -24.766676,-39.58713 -29.675714,-60.44596 -4.36013,-18.5265 -4.953575,-44.54867 -1.428269,-62.62863 7.949319,-40.76904 30.880372,-75.368394 65.217535,-98.403027 9.92259,-6.656438 24.83739,-14.006594 36.0427,-17.762197 9.15246,-3.06756 21.52345,-6.026408 27.88865,-6.6703 l 3.79284,-0.383678 0.32059,107.370612 c 0.17633,59.05385 0.45981,107.50983 0.62996,107.67998 0.47706,0.47706 14.4843,-9.25546 19.64485,-13.64965 9.8342,-8.3738 19.44843,-19.06112 25.29874,-28.12248 16.95555,-26.26189 26.37363,-59.57547 30.16828,-106.71104 0.33105,-4.11214 0.98841,-16.923034 1.4608,-28.468656 0.8367,-20.450059 1.19769,-25.305472 1.88136,-25.305472 0.18312,0 2.76152,1.297614 5.72976,2.883586 42.79419,22.865511 71.30032,61.020602 80.38021,107.587882 3.34856,17.17349 2.95533,42.15464 -0.94982,60.34047 -4.5865,21.3588 -15.78012,44.63137 -30.15188,62.68856 -5.50079,6.91138 -18.45037,19.61291 -25.38621,24.89994 -23.29499,17.75719 -50.0073,28.16676 -79.22925,30.87498 -5.89169,0.54602 -19.65463,0.64593 -25.59303,0.18577 z"
     id="path228"
     transform="scale(0.74999999)" />
</svg>
