<?xml version="1.0" encoding="UTF-8" standalone="no"?>
<svg
   xmlns:dc="http://purl.org/dc/elements/1.1/"
   xmlns:cc="http://creativecommons.org/ns#"
   xmlns:rdf="http://www.w3.org/1999/02/22-rdf-syntax-ns#"
   xmlns:svg="http://www.w3.org/2000/svg"
   xmlns="http://www.w3.org/2000/svg"
   xmlns:sodipodi="http://sodipodi.sourceforge.net/DTD/sodipodi-0.dtd"
   xmlns:inkscape="http://www.inkscape.org/namespaces/inkscape"
   version="1.0"
   width="300.000000pt"
   height="300.000000pt"
   viewBox="0 0 300.000000 300.000000"
   preserveAspectRatio="xMidYMid meet"
   id="svg421"
   sodipodi:docname="redemption.svg"
   inkscape:version="1.0.1 (3bc2e813f5, 2020-09-07)">
  <defs
     id="defs425" />
  <sodipodi:namedview
     pagecolor="#ffffff"
     bordercolor="#666666"
     borderopacity="1"
     objecttolerance="10"
     gridtolerance="10"
     guidetolerance="10"
     inkscape:pageopacity="0"
     inkscape:pageshadow="2"
     inkscape:window-width="1600"
     inkscape:window-height="837"
     id="namedview423"
     showgrid="false"
     inkscape:zoom="1.675"
     inkscape:cx="200"
     inkscape:cy="200"
     inkscape:window-x="-8"
     inkscape:window-y="-8"
     inkscape:window-maximized="1"
     inkscape:current-layer="svg421" />
  <metadata
     id="metadata413">
Created by potrace 1.16, written by Peter Selinger 2001-2019
<rdf:RDF>
  <cc:Work
     rdf:about="">
    <dc:format>image/svg+xml</dc:format>
    <dc:type
       rdf:resource="http://purl.org/dc/dcmitype/StillImage" />
  </cc:Work>
</rdf:RDF>
</metadata>
  <g
     transform="translate(0.000000,300.000000) scale(0.100000,-0.100000)"
     fill="#000000"
     stroke="none"
     id="g419">
    <path
       d="M1390 2994 c-289 -35 -489 -106 -707 -251 l-83 -54 0 -160 0 -159 -150 0 -150 0 -34 -52 c-93 -146 -167 -332 -207 -518 -33 -151 -33 -419 0 -570 44 -206 116 -378 228 -547 l54 -83 130 0 129 0 0 -129 0 -130 83 -54 c165 -110 349 -188 540 -229 147 -32 437 -32 584 0 175 38 366 116 511 208 l52 34 0 150 0 150 159 0 160 0 54 83 c117 175 201 381 233 572 23 135 23 385 0 520 -30 174 -126 419 -218 553 l-29 42 -179 0 -180 0 0 180 0 180 -52 34 c-155 99 -371 183 -538 211 -96 16 -325 27 -390 19z m523 -172 c119 -40 212 -81 289 -128 l58 -35 0 -200 0 -199 199 0 200 0 35 -58 c47 -77 88 -170 128 -289 l32 -98 4 -269 c3 -225 1 -281 -13 -345 -31 -139 -107 -316 -187 -436 l-33 -50 -183 -3 -182 -2 0 -173 0 -173 -72 -41 c-213 -120 -427 -176 -673 -176 -272 0 -512 70 -742 215 l-63 40 0 154 0 154 -153 0 -152 0 -35 53 c-95 143 -174 345 -206 522 -20 117 -20 342 0 458 24 132 71 269 138 400 l61 117 173 0 174 0 0 180 0 179 58 39 c109 74 276 148 412 182 66 17 108 19 355 17 l280 -3 98 -32z"
       id="path415" />
    <path
       d="M1320 2331 c-36 -9 -81 -25 -100 -36 -110 -61 -141 -83 -190 -140 l-45 -53 -90 -4 c-72 -4 -106 -11 -169 -36 -43 -18 -92 -44 -108 -57 -16 -14 -33 -25 -38 -25 -10 0 -130 -120 -130 -130 0 -3 -13 -24 -30 -46 -16 -21 -30 -43 -30 -48 0 -5 -12 -39 -26 -74 -24 -62 -26 -72 -22 -216 3 -132 6 -157 26 -195 12 -25 22 -48 22 -53 0 -20 83 -131 135 -182 65 -62 139 -107 225 -136 73 -25 173 -42 222 -39 34 3 44 -2 76 -34 43 -43 97 -87 107 -87 3 0 27 -12 53 -28 103 -60 288 -79 435 -43 106 26 218 91 290 169 28 30 34 32 73 26 23 -3 74 -1 114 5 147 23 261 77 355 167 66 64 95 105 145 209 34 69 34 73 38 221 4 150 4 152 -28 230 -17 44 -42 95 -56 115 -13 19 -24 38 -24 41 0 11 -92 98 -147 139 -28 21 -87 53 -130 71 -66 26 -95 32 -182 36 l-104 4 -31 36 c-17 20 -39 43 -49 51 -10 9 -30 25 -44 37 -124 105 -363 151 -543 105z m290 -61 c63 -12 188 -72 207 -100 8 -11 20 -20 27 -20 7 0 22 -13 34 -29 l21 -29 -62 -26 c-34 -14 -66 -26 -71 -26 -4 0 -25 -13 -46 -30 -21 -16 -41 -30 -46 -30 -4 0 -29 -22 -56 -50 l-49 -50 -70 0 -71 0 -47 50 c-26 28 -50 50 -55 50 -4 0 -22 11 -39 24 -39 29 -171 86 -201 86 -17 1 -11 10 36 54 60 57 167 115 233 126 62 11 197 11 255 0z m-670 -234 c0 -2 -9 -21 -19 -43 -52 -105 -71 -254 -45 -363 22 -95 22 -165 0 -260 -12 -51 -16 -95 -12 -138 9 -105 49 -234 84 -275 8 -9 12 -20 9 -24 -11 -10 -189 27 -232 49 -22 12 -51 27 -65 34 -27 15 -150 128 -150 139 0 3 -11 21 -24 38 -24 31 -40 70 -71 167 -8 25 -15 82 -15 128 0 212 151 434 345 505 88 33 195 57 195 43z m1202 -7 c29 -6 71 -20 92 -30 22 -11 46 -19 53 -19 15 0 115 -70 149 -104 52 -53 108 -143 135 -222 33 -97 39 -216 14 -294 -31 -97 -47 -136 -71 -167 -13 -17 -24 -35 -24 -38 0 -16 -135 -131 -187 -158 -58 -31 -198 -67 -261 -67 -33 0 -33 0 -18 28 14 26 28 59 57 132 22 56 19 302 -4 363 -18 44 -18 50 -3 87 36 91 30 328 -12 420 -35 78 -35 80 -2 80 16 0 53 -5 82 -11z m-993 -34 c46 -19 91 -41 101 -50 9 -8 20 -15 24 -15 5 0 21 -13 36 -30 15 -16 24 -30 18 -30 -19 0 -177 -79 -215 -107 -50 -38 -125 -118 -153 -164 -4 -6 -13 21 -20 61 -12 73 -10 98 18 235 13 61 60 135 85 135 12 0 60 -16 106 -35z m818 4 c7 -13 19 -40 26 -59 8 -19 20 -48 27 -65 19 -46 24 -192 8 -245 l-14 -45 -26 40 c-33 53 -180 185 -205 185 -4 0 -30 11 -58 25 -27 13 -55 25 -61 25 -12 0 50 70 62 70 4 0 15 7 24 15 21 19 181 86 195 82 6 -2 15 -14 22 -28z m-560 -206 c4 -10 18 -34 31 -53 25 -37 25 -52 2 -140 -15 -57 -8 -222 12 -275 14 -38 13 -42 -11 -88 -25 -46 -28 -48 -62 -44 -44 6 -175 63 -202 88 -12 10 -24 19 -28 19 -5 0 -27 21 -51 46 -24 26 -51 55 -60 65 -10 11 -18 25 -18 33 0 7 -7 19 -15 26 -8 7 -15 20 -15 30 0 10 7 23 15 30 8 7 15 20 15 29 0 9 8 24 18 33 9 8 36 36 60 62 24 25 46 46 51 46 4 0 17 10 30 21 25 23 175 89 204 89 10 0 21 -8 24 -17z m107 2 c-4 -8 -10 -15 -14 -15 -4 0 -10 7 -14 15 -4 10 1 15 14 15 13 0 18 -5 14 -15z m181 -27 c5 -4 19 -8 32 -8 13 0 23 -4 23 -9 0 -5 10 -13 22 -16 29 -10 169 -153 192 -198 19 -36 19 -38 0 -73 -10 -20 -25 -38 -31 -41 -7 -3 -13 -11 -13 -17 0 -28 -126 -130 -206 -167 -124 -58 -125 -58 -155 -2 -24 46 -24 50 -11 88 24 65 27 213 7 299 l-17 74 23 43 c38 71 36 70 82 52 23 -9 46 -20 52 -25z m-704 -409 c29 -36 82 -89 126 -124 40 -32 194 -105 222 -105 12 0 21 -4 21 -8 0 -11 -92 -91 -122 -106 -13 -7 -34 -20 -48 -28 -37 -25 -148 -48 -158 -34 -46 61 -81 157 -97 268 -8 51 13 198 25 179 4 -7 18 -26 31 -42z m1046 -119 c-3 -47 -10 -98 -17 -115 -7 -16 -16 -39 -20 -50 -25 -63 -53 -114 -64 -118 -23 -9 -99 13 -138 38 -21 14 -41 25 -45 25 -5 0 -32 22 -62 49 -50 45 -60 70 -28 71 7 0 35 12 62 25 28 14 54 25 58 25 26 0 169 130 205 185 l26 40 14 -45 c9 -30 12 -74 9 -130z m-439 -178 c31 -31 69 -66 83 -77 32 -25 124 -75 137 -75 6 0 22 -4 37 -10 22 -8 24 -13 15 -30 -6 -11 -17 -20 -25 -20 -8 0 -20 -9 -27 -19 -21 -29 -125 -80 -201 -97 -47 -11 -96 -14 -155 -11 -107 6 -151 16 -222 50 -55 26 -140 91 -140 106 0 5 21 14 48 21 93 25 165 71 252 162 50 52 59 57 98 58 40 0 48 -5 100 -58z"
       id="path417" />
  </g>
  <path
     style="fill:#ffffff;stroke-width:0.597015"
     d="m 191.9403,379.88256 c -7.05897,-0.37476 -20.23991,-2.05442 -27.1235,-3.45636 -22.05563,-4.49197 -40.79607,-12.1504 -62.06479,-25.36328 l -7.826637,-4.86218 V 325.63768 305.07463 H 74.61371 54.302048 l -4.46648,-6.79229 C 36.132533,277.4438 24.572541,246.98564 21.37078,223.28358 c -0.496555,-3.6759 -0.764254,-12.70923 -0.76077,-25.67164 0.006,-22.31857 0.5054,-27.29341 4.163096,-41.47125 4.015235,-15.56373 8.558348,-27.14217 17.753156,-45.24517 L 48.515126,99.104478 H 71.72025 94.925373 l 0.01296,-24.029851 0.01296,-24.029851 6.434507,-4.27274 c 17.57924,-11.673255 40.94423,-21.825075 59.80824,-25.986006 6.22342,-1.372732 6.53576,-1.381718 43.28358,-1.245312 l 37.01493,0.137397 9.94574,3.265685 c 18.21866,5.982093 30.25505,11.262494 43.33784,19.012432 l 6.1194,3.624991 v 26.761628 26.761627 h 26.73152 26.73151 l 3.65557,6.119402 c 7.65327,12.81152 13.00284,24.97256 19.09279,43.40308 l 3.26479,9.8805 0.11266,37.01493 c 0.11145,36.62102 0.098,37.08163 -1.26072,43.28358 -3.9538,18.04671 -14.3699,42.46386 -25.19994,59.07303 l -4.21417,6.46294 -24.457,0.44179 -24.45701,0.44178 v 23.07473 23.07473 l -8.80597,4.88724 c -13.7591,7.6362 -24.34422,12.23216 -37.52392,16.29254 -18.58125,5.72449 -41.75358,8.43589 -62.62533,7.32781 z m 23.58209,-67.95406 c 15.4458,-3.34509 28.6438,-10.35926 40.61693,-21.58618 l 6.04725,-5.67036 5.47388,0.40371 c 10.40974,0.76773 26.02793,-2.06409 37.71799,-6.83885 14.71029,-6.00836 28.12701,-17.08573 36.81715,-30.39769 3.99238,-6.11572 9.81525,-18.19613 11.00027,-22.82172 1.13321,-4.42334 1.99322,-28.96359 1.32657,-37.85323 -0.57122,-7.61711 -5.07499,-19.01728 -12.11962,-30.67783 -3.31703,-5.49046 -5.04575,-7.60712 -9.78305,-11.9784 -8.25797,-7.61993 -12.67926,-11.0032 -19.15375,-14.6569 -12.46403,-7.03373 -19.59781,-8.99239 -35.95168,-9.87092 l -11.9436,-0.64162 -7.56148,-7.64185 c -11.00742,-11.1244 -18.40993,-15.950869 -30.74947,-20.048773 -11.69877,-3.885111 -22.51406,-5.39852 -34.72247,-4.858806 -14.6339,0.646943 -23.92223,3.293576 -35.71878,10.177785 -11.41055,6.658944 -14.3275,9.093534 -23.09624,19.276934 l -2.67751,3.10947 -10.14926,0.62202 c -11.07972,0.67904 -17.16092,1.88383 -24.17155,4.78879 -5.626346,2.33135 -12.695755,6.1297 -15.481391,8.31804 -1.175958,0.92381 -3.067877,2.15564 -4.20427,2.7374 -2.196446,1.12443 -17.336816,16.04237 -17.336816,17.08211 0,0.3382 -1.710196,3.08115 -3.800435,6.09544 -2.090239,3.0143 -4.140047,6.55517 -4.555129,7.8686 -0.415082,1.31343 -1.854468,5.20896 -3.198636,8.65672 l -2.443941,6.26865 -0.209679,15.37069 c -0.217822,15.96774 0.426739,26.16499 1.902405,30.09687 4.922615,13.11619 7.823956,18.07434 16.799131,28.70825 10.926553,12.94595 25.033937,21.75798 41.811591,26.11718 8.31675,2.16088 15.78015,3.28036 22.0529,3.30786 3.08533,0.0136 5.90662,0.3323 6.62608,0.74867 0.68912,0.39881 4.37906,3.54601 8.19986,6.99377 3.82081,3.44776 8.36146,7.02612 10.09034,7.95192 1.72889,0.9258 5.02806,2.7232 7.3315,3.99423 6.72708,3.71198 16.78609,6.66718 27.15521,7.97784 4.64521,0.58715 23.66848,-0.17882 28.0597,-1.12982 z"
     id="path427"
     transform="scale(0.75)" />
  <path
     style="fill:#ffffff;stroke-width:0.597015"
     d="m 114.92537,273.77529 c -10.47752,-2.18665 -15.49764,-3.74941 -21.063045,-6.55693 -6.491203,-3.27455 -8.334013,-4.62431 -16.691778,-12.22579 -10.085235,-9.17262 -15.451939,-17.74569 -20.036556,-32.0075 -5.614108,-17.46433 -4.373372,-34.14896 3.825628,-51.44457 7.390996,-15.59115 21.266767,-29.52057 35.566619,-35.70415 8.562502,-3.70261 26.815372,-8.51464 27.959112,-7.3709 0.18437,0.18437 -0.72148,2.73647 -2.01299,5.67134 -7.24753,16.4695 -9.07963,32.57592 -5.66623,49.81329 2.20595,11.13987 2.21391,21.10062 0.0254,31.80731 -0.86539,4.23373 -1.74871,9.63198 -1.96295,11.9961 -1.04067,11.48425 4.46226,34.7561 10.25346,43.3618 1.12316,1.669 2.0421,3.27621 2.0421,3.57157 0,0.91941 -5.38859,0.51806 -12.2388,-0.91157 z"
     id="path429"
     transform="scale(0.75)" />
  <path
     style="fill:#ffffff;stroke-width:0.597015"
     d="m 127.1945,184.85586 c -1.56851,-4.12549 -2.55563,-12.16487 -2.20893,-17.99019 0.47911,-8.05027 3.36417,-21.73806 5.59971,-26.56716 2.12055,-4.5807 4.91556,-8.5224 7.02163,-9.90235 1.44129,-0.94438 1.77695,-0.90207 7.25504,0.91443 12.84138,4.25813 26.22413,11.46394 29.98684,16.14613 1.0272,1.27821 1.86763,2.43759 1.86763,2.57642 0,0.13882 -1.27612,0.72703 -2.83582,1.30713 -5.52598,2.05526 -22.59408,11.08996 -26.4885,14.02122 -4.53126,3.4106 -13.26292,12.38823 -17.04298,17.52307 -2.55096,3.46524 -2.57978,3.48325 -3.15462,1.9713 z"
     id="path431"
     transform="scale(0.75)" />
  <path
     style="fill:#ffffff;stroke-width:0.597015"
     d="m 185.18202,143.28026 c -3.06033,-3.28105 -6.82153,-6.70164 -8.35821,-7.6013 -1.53668,-0.89966 -4.12531,-2.53089 -5.75253,-3.62496 -5.6992,-3.83189 -22.16748,-10.85997 -25.44721,-10.85997 -2.11994,0 -1.17316,-1.64816 3.40033,-5.9193 5.62764,-5.25559 12.64408,-9.97047 19.99042,-13.43308 8.76177,-4.12975 11.11607,-4.595066 25.06317,-4.953623 18.51709,-0.476044 23.25866,0.425615 36.73014,6.984623 4.72012,2.29814 8.34328,4.53693 10.44776,6.45576 1.77194,1.61565 3.8053,3.12089 4.51856,3.34498 1.34061,0.42119 4.99326,4.13562 6.0995,6.20265 0.58367,1.09058 -0.0883,1.4626 -9.28181,5.13855 -5.45107,2.17956 -10.88369,4.72748 -12.07249,5.66204 -1.18879,0.93456 -4.04204,2.91596 -6.34055,4.40313 -2.2985,1.48716 -6.72603,5.28469 -9.83895,8.43895 l -5.65985,5.73502 -8.96702,-0.004 -8.96701,-0.004 z"
     id="path433"
     transform="scale(0.75)" />
  <path
     style="fill:#ffffff;stroke-width:0.597015"
     d="m 265.47214,183.36719 c -4.94186,-7.23265 -23.03044,-23.81895 -27.08656,-24.83697 -0.75151,-0.18862 -4.2554,-1.64733 -7.78643,-3.24158 -3.53102,-1.59425 -6.90928,-3.06587 -7.50723,-3.27028 -1.0387,-0.35507 -1.03421,-0.44497 0.10072,-2.0159 1.96489,-2.71973 6.12291,-6.35568 10.32564,-9.02917 4.22935,-2.69043 16.43085,-8.17476 22.22422,-9.98934 l 3.50369,-1.09742 1.40376,1.76048 c 2.18041,2.73449 8.97573,19.74703 9.77488,24.47203 1.09603,6.48037 0.94104,21.30512 -0.27152,25.97051 -1.52469,5.86636 -1.54252,5.87123 -4.68117,1.27764 z"
     id="path435"
     transform="scale(0.75)" />
  <path
     style="fill:#ffffff;stroke-width:0.597015"
     d="m 269.25373,274.99419 c 0,-0.54912 0.81694,-2.61673 1.81541,-4.5947 3.45,-6.8344 7.08587,-16.47339 7.76786,-20.59318 0.88001,-5.31605 0.88607,-28.19962 0.009,-35.17944 -0.37121,-2.95523 -1.36723,-7.47639 -2.21337,-10.04703 l -1.53844,-4.67388 1.28173,-3.79455 c 2.19243,-6.49066 3.02883,-11.60923 3.41311,-20.88753 0.65914,-15.91462 -1.2489,-28.91684 -5.81009,-39.59261 -1.32384,-3.09856 -2.25044,-6.04172 -2.05909,-6.54035 0.28926,-0.75381 1.18101,-0.84258 5.29083,-0.52667 8.07629,0.62079 20.46669,4.4295 30.55019,9.39089 4.55013,2.2388 13.1634,8.67588 17.42244,13.02056 6.30173,6.42846 14.29658,19.76607 17.3978,29.0243 3.16681,9.45405 4.52561,23.57959 3.11149,32.3457 -0.80115,4.96626 -5.15313,18.28876 -7.43887,22.77224 -1.49688,2.93612 -5.98314,9.99005 -8.15048,12.81533 -3.58539,4.67381 -19.95924,17.41469 -25.59432,19.91556 -7.71937,3.42589 -21.83677,7.02466 -30.33764,7.73361 -4.36213,0.36378 -4.91788,0.2973 -4.91788,-0.58825 z"
     id="path437"
     transform="scale(0.75)" />
  <path
     style="fill:#ffffff;stroke-width:0.597015"
     d="m 248.44509,270.7639 c -2.4149,-0.78182 -6.44475,-2.59156 -8.95522,-4.02165 -2.51047,-1.43008 -5.357,-2.99481 -6.3256,-3.47717 -2.91252,-1.45041 -13.62028,-12.161 -13.37705,-13.38057 0.1383,-0.69338 1.36223,-1.43902 3.49636,-2.13004 1.80597,-0.58475 5.97015,-2.29877 9.25373,-3.80893 3.28359,-1.51015 6.23881,-2.74961 6.56717,-2.75436 2.61239,-0.0378 21.86649,-17.97069 26.36766,-24.55837 3.13621,-4.59002 3.13564,-4.59017 4.72114,1.27764 1.28846,4.76846 1.43531,16.89698 0.29998,24.77612 -1.05066,7.29161 -8.06142,24.40397 -11.55692,28.20895 -1.62507,1.76895 -4.74149,1.72985 -10.49125,-0.13162 z"
     id="path439"
     transform="scale(0.75)" />
  <path
     style="fill:#ffffff;stroke-width:0.597015"
     d="m 186.26866,302.61213 c -6.87725,-0.79336 -13.2613,-2.61201 -19.435,-5.53652 -9.03005,-4.27758 -19.93781,-12.34927 -19.21915,-14.22207 0.21928,-0.57143 2.79382,-1.69673 6.52312,-2.85119 7.31996,-2.266 15.06944,-6.13612 20.46365,-10.21965 2.15208,-1.62916 7.39467,-6.30275 11.65021,-10.38574 4.27873,-4.10525 8.48038,-7.62738 9.39964,-7.87947 2.80073,-0.76805 7.52612,-0.44635 9.62445,0.65522 1.0956,0.57516 5.57152,4.48989 9.94651,8.6994 4.37498,4.2095 9.15575,8.48011 10.62393,9.49025 4.06981,2.8001 14.78775,8.27725 17.13905,8.75851 3.61097,0.73908 6.56717,2.15709 6.56717,3.15009 0,1.19664 -2.9276,4.2962 -4.05784,4.2962 -0.46716,0 -2.27884,1.30646 -4.02597,2.90324 -5.64502,5.15922 -18.59167,10.92079 -28.95902,12.88744 -5.33142,1.01135 -18.56642,1.13961 -26.24075,0.25429 z"
     id="path441"
     transform="scale(0.75)" />
  <path
     style="fill:#ffffff;stroke-width:0.597015"
     d="m 136.49205,270.5652 c -6.30785,-9.99228 -11.74555,-27.74914 -11.6975,-38.19831 0.0308,-6.691 1.88449,-18.68014 2.87694,-18.6069 0.21351,0.0158 1.46284,1.53827 2.77627,3.38337 3.46416,4.86639 15.23496,16.40572 19.88465,19.49361 5.48885,3.64519 18.93737,10.19443 24.16246,11.76678 7.45554,2.24355 7.21432,1.7381 2.81856,5.90614 -11.74738,11.13881 -25.97023,18.39317 -36.26116,18.49499 -2.98459,0.0295 -3.19206,-0.0724 -4.56022,-2.23968 z"
     id="path443"
     transform="scale(0.75)" />
  <path
     style="fill:#ffffff;stroke-width:0.597015"
     d="m 177.00628,238.58224 c -7.4193,-2.69537 -16.17862,-6.94133 -19.39434,-9.40115 -1.47761,-1.13028 -3.70493,-2.67959 -4.94959,-3.44292 -3.23849,-1.98611 -15.78131,-15.86836 -16.24507,-17.97985 -0.20853,-0.94944 -1.16683,-2.71743 -2.12956,-3.92886 -2.20892,-2.77956 -2.2161,-4.87032 -0.0262,-7.62598 0.94833,-1.19332 1.89268,-3.04369 2.09855,-4.11195 0.27843,-1.4447 2.4006,-4.00702 8.28388,-10.00198 4.35026,-4.43283 9.38352,-9.08673 11.18503,-10.34198 4.38692,-3.05671 16.31073,-8.82161 23.12007,-11.17804 5.24854,-1.81631 5.58897,-1.86129 7.01493,-0.92697 0.82428,0.54009 1.49869,1.22396 1.49869,1.51971 0,0.29575 1.41044,2.90009 3.13432,5.78742 2.90666,4.86837 3.12895,5.51133 3.06025,8.8515 -0.0408,1.98099 -0.62419,5.75105 -1.29654,8.37791 -2.8371,11.08457 -2.13662,28.54123 1.68201,41.91765 0.66867,2.34232 0.58839,2.79138 -1.17136,6.55189 -1.03909,2.22046 -2.56046,4.91722 -3.38084,5.99279 -1.32083,1.7317 -1.81276,1.95217 -4.29703,1.92578 -1.60746,-0.0171 -5.10358,-0.8647 -8.18722,-1.98497 z"
     id="path445"
     transform="scale(0.75)" />
  <path
     style="fill:#ffffff;stroke-width:0.597015"
     d="m 211.86901,239.78503 c -0.87402,-0.43128 -2.43048,-2.68442 -4.04237,-5.85175 l -2.62112,-5.15043 1.57756,-5.58546 c 3.33463,-11.80648 3.36869,-28.60973 0.0874,-43.12081 l -1.46767,-6.49058 3.32497,-6.04673 c 1.82874,-3.3257 3.67935,-6.41682 4.11249,-6.86916 1.1131,-1.16245 3.9352,-0.5076 9.59617,2.22672 2.60025,1.25595 5.91512,2.4418 7.36638,2.63521 1.45125,0.19342 2.86024,0.74763 3.13107,1.23159 0.27083,0.48395 1.90875,1.67923 3.63981,2.65619 3.48197,1.96509 13.48466,11.54315 19.77802,18.93839 4.21832,4.95689 6.93185,9.51416 6.93185,11.64179 0,1.87464 -2.73736,6.87667 -5.00329,9.1426 -1.11008,1.11008 -2.49147,3.01539 -3.06975,4.23403 -2.42642,5.1133 -16.21444,15.68692 -28.04636,21.5079 -9.51642,4.68183 -13.28889,5.89051 -15.29517,4.9005 z"
     id="path447"
     transform="scale(0.75)" />
  <path
     style="fill:#ffffff;stroke-width:0.597015"
     d="m 198.79937,161.18169 c -0.3551,-0.6635 -0.48302,-1.46947 -0.28428,-1.79104 0.46764,-0.75667 2.50218,-0.75667 2.96982,0 0.4347,0.70335 -0.70177,2.99741 -1.48491,2.99741 -0.30525,0 -0.84554,-0.54287 -1.20063,-1.20637 z"
     id="path449"
     transform="scale(0.75)" />
  <path
     style="fill:#ffffff;stroke-width:0.597015"
     d="m 127.1945,184.85586 c -1.56851,-4.12549 -2.55563,-12.16487 -2.20893,-17.99019 0.52702,-8.85517 3.37789,-21.9304 5.93996,-27.24299 2.29454,-4.75785 5.72687,-9.18316 7.57838,-9.7708 2.63602,-0.83665 20.64634,6.51286 29.11291,11.88016 4.55503,2.88761 9.71545,7.70241 9.01028,8.4068 -0.11506,0.11492 -1.6868,0.78664 -3.49277,1.49271 -4.40534,1.72232 -20.8147,10.23913 -24.34122,12.63361 -3.73272,2.5345 -14.79999,13.66938 -18.26594,18.37754 -2.71613,3.6896 -2.7602,3.71887 -3.33267,2.21316 z"
     id="path451"
     transform="scale(0.75)" />
  <path
     style="fill:#ffffff;stroke-width:0.597015"
     d="m 266.01168,184.06336 c -2.67434,-4.099 -17.06761,-18.48933 -22.15232,-22.1478 -1.95847,-1.40912 -5.71011,-3.46454 -8.33697,-4.56759 -8.09444,-3.39895 -12.82571,-5.49707 -13.16815,-5.8395 -0.71022,-0.71022 6.41138,-7.49068 10.75933,-10.24391 4.78522,-3.03014 16.56103,-8.38004 22.62893,-10.28061 l 3.50369,-1.09742 1.40376,1.76048 c 2.18041,2.73449 8.97573,19.74703 9.77488,24.47203 1.09603,6.48037 0.94104,21.30512 -0.27152,25.97051 -1.51657,5.83511 -1.59728,5.87358 -4.14163,1.97381 z"
     id="path453"
     transform="scale(0.75)" />
</svg>
