<?xml version="1.0" encoding="UTF-8" standalone="no"?>
<svg
   xmlns:dc="http://purl.org/dc/elements/1.1/"
   xmlns:cc="http://creativecommons.org/ns#"
   xmlns:rdf="http://www.w3.org/1999/02/22-rdf-syntax-ns#"
   xmlns:svg="http://www.w3.org/2000/svg"
   xmlns="http://www.w3.org/2000/svg"
   xmlns:sodipodi="http://sodipodi.sourceforge.net/DTD/sodipodi-0.dtd"
   xmlns:inkscape="http://www.inkscape.org/namespaces/inkscape"
   version="1.0"
   width="238.000000pt"
   height="238.000000pt"
   viewBox="0 0 238.000000 238.000000"
   preserveAspectRatio="xMidYMid meet"
   id="svg667"
   sodipodi:docname="strigasup.svg"
   inkscape:version="1.0.1 (3bc2e813f5, 2020-09-07)">
  <defs
     id="defs671" />
  <sodipodi:namedview
     pagecolor="#ffffff"
     bordercolor="#666666"
     borderopacity="1"
     objecttolerance="10"
     gridtolerance="10"
     guidetolerance="10"
     inkscape:pageopacity="0"
     inkscape:pageshadow="2"
     inkscape:window-width="1600"
     inkscape:window-height="837"
     id="namedview669"
     showgrid="false"
     inkscape:zoom="2.1113445"
     inkscape:cx="158.66667"
     inkscape:cy="158.66667"
     inkscape:window-x="-8"
     inkscape:window-y="-8"
     inkscape:window-maximized="1"
     inkscape:current-layer="svg667" />
  <metadata
     id="metadata661">
Created by potrace 1.16, written by Peter Selinger 2001-2019
<rdf:RDF>
  <cc:Work
     rdf:about="">
    <dc:format>image/svg+xml</dc:format>
    <dc:type
       rdf:resource="http://purl.org/dc/dcmitype/StillImage" />
  </cc:Work>
</rdf:RDF>
</metadata>
  <g
     transform="translate(0.000000,238.000000) scale(0.100000,-0.100000)"
     fill="#000000"
     stroke="none"
     id="g665">
    <path
       d="M617 1772 l-577 -577 578 -578 577 -577 580 580 580 580 -575 575 c-316 316 -577 575 -580 575 -3 0 -265 -260 -583 -578z m388 -196 c68 -68 95 -102 95 -119 0 -14 7 -42 16 -63 27 -66 -3 -159 -50 -152 -13 2 -57 42 -109 99 -65 72 -96 98 -125 107 -22 7 -47 24 -60 41 -21 29 -25 30 -110 33 l-87 3 -3 28 c-4 35 19 72 61 97 27 17 51 20 155 20 l122 0 95 -94z m789 44 c37 -39 47 -57 44 -78 l-3 -27 -87 4 c-86 3 -88 3 -119 -28 -18 -18 -48 -35 -72 -41 -35 -7 -58 -26 -137 -110 -96 -102 -123 -117 -150 -85 -8 10 -11 41 -9 94 4 70 7 83 31 108 14 15 34 47 43 70 12 30 33 54 68 80 86 63 83 62 218 63 l126 0 47 -50z m23 -168 c30 -19 44 -118 28 -194 -4 -18 -23 -65 -41 -105 -19 -39 -34 -77 -34 -85 0 -7 -13 -29 -28 -48 -33 -40 -82 -133 -82 -154 0 -18 22 -26 71 -26 32 0 48 7 74 33 72 68 101 92 115 92 45 0 -30 -116 -87 -135 -17 -6 -39 -22 -47 -35 -9 -14 -31 -32 -49 -41 -17 -10 -56 -36 -84 -60 -38 -30 -59 -41 -74 -37 -28 8 -61 62 -52 88 3 11 5 50 5 86 -3 90 38 250 78 307 16 23 44 62 61 86 38 53 34 83 -18 150 -50 64 -42 74 59 79 46 1 85 4 88 5 3 1 10 -2 17 -6z m-1078 -8 c38 -8 38 -18 1 -68 -40 -53 -42 -126 -4 -177 14 -19 46 -72 71 -118 l46 -84 7 -131 c6 -136 -1 -193 -26 -203 -22 -8 -72 16 -146 70 -92 68 -101 97 -28 97 31 0 43 5 55 24 18 28 13 47 -36 123 -74 113 -88 141 -107 213 -34 126 -33 200 3 235 20 20 34 25 78 25 30 0 69 -3 86 -6z m1271 -419 c0 -8 -4 -15 -10 -15 -5 0 -10 7 -10 15 0 8 5 15 10 15 6 0 10 -7 10 -15z m-1530 -65 c11 -16 38 -39 59 -51 37 -21 66 -60 54 -73 -4 -3 -21 -6 -39 -6 -24 0 -38 7 -51 26 -10 14 -30 40 -45 57 -30 32 -38 77 -14 77 8 0 24 -13 36 -30z"
       id="path663" />
  </g>
  <path
     style="fill:#ffffff;stroke-width:0.473632"
     d="m 70.334328,205.57872 c -1.794464,-0.93531 -5.204079,-4.91268 -10.400557,-12.13243 -1.59951,-2.22229 -1.878028,-2.96845 -1.894527,-5.07555 -0.01695,-2.16438 0.105142,-2.488 0.986052,-2.61369 1.023173,-0.14599 1.882121,0.58632 6.470698,5.51669 1.246379,1.33921 3.803991,3.47311 5.683582,4.74198 5.460106,3.68601 9.006983,8.16628 7.588186,9.58508 -0.24687,0.24687 -1.819116,0.56507 -3.49388,0.70712 -2.501059,0.21212 -3.383467,0.0819 -4.939554,-0.7292 z"
     id="path673"
     transform="scale(0.74999998)" />
  <path
     style="fill:#ffffff;stroke-width:0.473632"
     d="m 105.51925,227.62895 c -5.51327,-2.26746 -17.203858,-10.42416 -21.362416,-14.90491 -3.561894,-3.83784 -2.502037,-5.72318 3.228241,-5.74259 4.369848,-0.0148 6.21079,-0.70685 7.83137,-2.94399 1.71116,-2.36219 1.876236,-5.35382 0.475709,-8.62112 -0.510808,-1.19166 -3.487544,-6.19539 -6.61497,-11.11939 -9.081583,-14.29859 -11.041293,-18.70424 -14.03428,-31.55068 -1.616003,-6.93618 -2.086747,-16.42853 -0.999065,-20.14572 0.912727,-3.11927 3.027748,-5.79951 5.690531,-7.21127 1.772085,-0.93953 2.624562,-1.03841 8.597968,-0.99724 7.271307,0.0501 11.774682,0.69944 13.086842,1.88692 0.76801,0.69504 0.78554,0.92356 0.18171,2.36872 -0.36757,0.87971 -1.660923,2.99051 -2.874127,4.69066 -2.781616,3.89808 -4.020946,7.14085 -4.340148,11.35619 -0.320199,4.22851 0.724741,8.45618 2.973152,12.02893 0.918506,1.45951 2.548579,4.03903 3.622383,5.73226 1.07381,1.69324 4.33654,7.35178 7.25052,12.57456 l 5.29814,9.49595 0.61251,12.0543 c 0.64966,12.78513 0.44113,25.02094 -0.47986,28.15778 -1.21037,4.12242 -3.32457,4.87282 -8.14421,2.89064 z"
     id="path675"
     transform="scale(0.74999998)" />
  <path
     style="fill:#ffffff;stroke-width:0.473632"
     d="m 139.95821,150.12618 c -1.04199,-0.77531 -6.79662,-6.39385 -12.78806,-12.48564 l -10.89353,-11.07598 -5.09229,-2.46532 c -4.19527,-2.03105 -5.53652,-2.95623 -7.61423,-5.25217 -1.38707,-1.53276 -3.31126,-3.11664 -4.275967,-3.51972 -1.258287,-0.52574 -4.641574,-0.8545 -11.97095,-1.16322 -5.619315,-0.2367 -10.312389,-0.52581 -10.429054,-0.64247 -0.116665,-0.11667 -0.236581,-1.67587 -0.26648,-3.4649 -0.08155,-4.87949 1.94401,-8.33879 6.868698,-11.730554 4.164945,-2.868508 5.886415,-3.130276 22.597183,-3.436146 l 14.91941,-0.273081 10.4708,10.593001 c 12.10058,12.24181 14.60018,15.36196 14.99808,18.72153 0.14965,1.26365 0.94248,4.31533 1.76184,6.78153 2.8035,8.43831 1.44925,17.10544 -3.11336,19.92529 -2.01121,1.24299 -2.93636,1.15138 -5.17209,-0.51215 z"
     id="path677"
     transform="scale(0.74999998)" />
  <path
     style="fill:#ffffff;stroke-width:0.473632"
     d="m 170.86268,151.05061 c -2.2641,-1.31871 -3.11402,-7.24751 -2.30309,-16.06554 0.65998,-7.17659 1.00159,-8.1764 4.1102,-12.02962 1.44982,-1.79709 3.70182,-5.39127 5.00446,-7.98707 2.81867,-5.61687 5.17486,-8.28308 11.48959,-13.00137 8.94998,-6.687325 9.18365,-6.745025 28.46999,-7.030145 l 15.15622,-0.224063 4.63348,5.098326 c 7.09456,7.806292 8.00931,9.515262 7.25252,13.549292 l -0.30696,1.63623 -10.57259,-0.2582 c -5.81492,-0.14201 -11.13204,-0.11779 -11.81582,0.0538 -0.68378,0.17161 -2.79409,1.61132 -4.68957,3.19934 -3.75357,3.14472 -6.78942,4.8649 -10.51607,5.95864 -1.32159,0.38788 -3.14887,1.14826 -4.06061,1.68974 -0.91174,0.54148 -6.77294,6.03339 -13.02488,12.20424 -6.25194,6.17085 -12.21589,11.78182 -13.25323,12.46884 -1.94809,1.29019 -4.12925,1.57881 -5.57364,0.73753 z"
     id="path679"
     transform="scale(0.74999998)" />
  <path
     style="fill:#ffffff;stroke-width:0.473632"
     d="m 209.5619,228.84122 c -1.92349,-1.18916 -3.95446,-3.65049 -5.05411,-6.1251 -0.8186,-1.84213 -0.85425,-2.49582 -0.40034,-7.3413 0.27405,-2.9255 0.499,-7.58911 0.49989,-10.36358 0.003,-8.12231 2.53266,-20.86283 6.00537,-30.24109 2.06953,-5.58886 2.73598,-6.74642 9.12391,-15.84725 5.91213,-8.42298 6.91565,-10.57385 6.51432,-13.96241 -0.35201,-2.9722 -1.54662,-5.31941 -5.56964,-10.94342 -3.33897,-4.66773 -4.24843,-6.41196 -3.88394,-7.44893 0.60367,-1.7174 5.02098,-2.44291 19.2528,-3.16209 l 5.15463,-0.26048 1.50177,1.59234 c 2.99814,3.17895 4.61972,12.13311 3.66734,20.25049 -0.61606,5.25082 -2.11819,9.68521 -6.67744,19.71235 -1.56823,3.44899 -3.19574,7.45563 -3.61669,8.90363 -0.42095,1.44802 -1.74273,4.06103 -2.93729,5.80672 -5.49565,8.03112 -6.49185,9.65404 -8.92587,14.54114 -3.00583,6.03519 -3.55972,8.33968 -2.33083,9.69758 1.79855,1.98738 11.48201,2.52654 14.75139,0.82133 0.81343,-0.42425 4.06878,-3.16492 7.23412,-6.09036 9.41,-8.69685 12.79309,-10.83174 13.52255,-8.53339 0.70598,2.22435 -3.33302,9.00973 -7.69243,12.92301 -1.27158,1.14145 -3.91451,2.87627 -5.87317,3.85515 -2.63093,1.31486 -4.19292,2.50606 -5.9794,4.56003 -1.33,1.52913 -3.65172,3.57923 -5.15938,4.55579 -5.48586,3.55334 -8.49581,5.66896 -11.97702,8.41834 -6.48636,5.12278 -8.83902,6.11053 -11.15054,4.6815 z"
     id="path681"
     transform="scale(0.74999998)" />
  <path
     style="fill:#ffffff;stroke-width:0.473632"
     d=""
     id="path683"
     transform="scale(0.74999998)" />
</svg>
