<?xml version="1.0" encoding="UTF-8" standalone="no"?>
<svg
   xmlns:dc="http://purl.org/dc/elements/1.1/"
   xmlns:cc="http://creativecommons.org/ns#"
   xmlns:rdf="http://www.w3.org/1999/02/22-rdf-syntax-ns#"
   xmlns:svg="http://www.w3.org/2000/svg"
   xmlns="http://www.w3.org/2000/svg"
   xmlns:sodipodi="http://sodipodi.sourceforge.net/DTD/sodipodi-0.dtd"
   xmlns:inkscape="http://www.inkscape.org/namespaces/inkscape"
   version="1.0"
   width="175.000000pt"
   height="300.000000pt"
   viewBox="0 0 175.000000 300.000000"
   preserveAspectRatio="xMidYMid meet"
   id="svg28"
   sodipodi:docname="advanced.svg"
   inkscape:version="1.0.1 (3bc2e813f5, 2020-09-07)">
  <defs
     id="defs32" />
  <sodipodi:namedview
     pagecolor="#ffffff"
     bordercolor="#666666"
     borderopacity="1"
     objecttolerance="10"
     gridtolerance="10"
     guidetolerance="10"
     inkscape:pageopacity="0"
     inkscape:pageshadow="2"
     inkscape:window-width="1346"
     inkscape:window-height="860"
     id="namedview30"
     showgrid="false"
     inkscape:zoom="1.6175"
     inkscape:cx="116.66667"
     inkscape:cy="200"
     inkscape:window-x="156"
     inkscape:window-y="0"
     inkscape:window-maximized="0"
     inkscape:current-layer="svg28" />
  <metadata
     id="metadata22">
Created by potrace 1.16, written by Peter Selinger 2001-2019
<rdf:RDF>
  <cc:Work
     rdf:about="">
    <dc:format>image/svg+xml</dc:format>
    <dc:type
       rdf:resource="http://purl.org/dc/dcmitype/StillImage" />
  </cc:Work>
</rdf:RDF>
</metadata>
  <g
     transform="translate(0.000000,300.000000) scale(0.100000,-0.100000)"
     fill="#000000"
     stroke="none"
     id="g26">
    <path
       d="M762 2793 c-316 -484 -505 -986 -612 -1627 -47 -282 -80 -698 -80 -1018 l0 -98 360 0 360 0 0 513 c0 477 1 515 18 530 30 28 65 30 95 7 l27 -21 0 -515 0 -514 361 0 362 0 -6 288 c-10 472 -56 835 -159 1237 -121 478 -299 880 -556 1263 -34 50 -66 92 -71 92 -5 0 -49 -62 -99 -137z m147 -149 c381 -607 582 -1355 617 -2287 l7 -187 -237 0 -236 0 0 443 c0 366 -3 452 -15 494 -49 164 -280 179 -362 24 l-23 -44 0 -459 0 -458 -232 0 -231 0 6 223 c21 746 168 1393 442 1944 76 154 203 373 216 373 4 0 25 -30 48 -66z"
       id="path24" />
  </g>
  <path
     style="fill:#ffffff;stroke-width:0.618238"
     d="m 26.664404,371.40649 c 0.184302,-3.14528 0.489301,-12.11746 0.677778,-19.93817 C 29.862193,246.90204 50.784504,156.90126 90.219953,80.989181 100.36467,61.460903 113.3627,39.567233 114.81171,39.567233 c 0.89852,0 8.6763,11.994462 15.43447,23.802164 41.02697,71.681283 64.61154,157.977493 71.38694,261.205563 1.05755,16.11247 2.20511,41.12306 2.20511,48.0593 v 4.49093 H 172.6559 141.47357 l -0.25734,-59.81453 c -0.18185,-42.26756 -0.46729,-60.72134 -0.97301,-62.90571 -3.0928,-13.35889 -15.69206,-21.74206 -29.36717,-19.54002 -9.18373,1.4788 -16.163683,6.69441 -20.745791,15.50181 l -2.520779,4.84525 v 60.9566 60.9566 H 56.969396 26.329311 Z"
     id="path34"
     transform="scale(0.75000001)" />
</svg>
