<?xml version="1.0" encoding="UTF-8" standalone="no"?>
<svg
   xmlns:dc="http://purl.org/dc/elements/1.1/"
   xmlns:cc="http://creativecommons.org/ns#"
   xmlns:rdf="http://www.w3.org/1999/02/22-rdf-syntax-ns#"
   xmlns:svg="http://www.w3.org/2000/svg"
   xmlns="http://www.w3.org/2000/svg"
   xmlns:sodipodi="http://sodipodi.sourceforge.net/DTD/sodipodi-0.dtd"
   xmlns:inkscape="http://www.inkscape.org/namespaces/inkscape"
   version="1.0"
   width="270.000000pt"
   height="270.000000pt"
   viewBox="0 0 270.000000 270.000000"
   preserveAspectRatio="xMidYMid meet"
   id="svg52"
   sodipodi:docname="burn.svg"
   inkscape:version="1.0.1 (3bc2e813f5, 2020-09-07)">
  <metadata
     id="metadata58">
    <rdf:RDF>
      <cc:Work
         rdf:about="">
        <dc:format>image/svg+xml</dc:format>
        <dc:type
           rdf:resource="http://purl.org/dc/dcmitype/StillImage" />
      </cc:Work>
    </rdf:RDF>
  </metadata>
  <defs
     id="defs56" />
  <sodipodi:namedview
     pagecolor="#ffffff"
     bordercolor="#666666"
     borderopacity="1"
     objecttolerance="10"
     gridtolerance="10"
     guidetolerance="10"
     inkscape:pageopacity="0"
     inkscape:pageshadow="2"
     inkscape:window-width="1600"
     inkscape:window-height="837"
     id="namedview54"
     showgrid="false"
     inkscape:zoom="1.8611111"
     inkscape:cx="180"
     inkscape:cy="180"
     inkscape:window-x="-8"
     inkscape:window-y="-8"
     inkscape:window-maximized="1"
     inkscape:current-layer="svg52" />
  <g
     transform="translate(0.000000,270.000000) scale(0.100000,-0.100000)"
     fill="#000000"
     stroke="none"
     id="g50">
    <path
       d="M10 1350 l0 -1340 1340 0 1340 0 0 1340 0 1340 -1340 0 -1340 0 0 -1340z m1290 1056 c-58 -115 -74 -184 -68 -283 6 -87 39 -148 106 -200 62 -47 99 -45 147 8 20 22 45 62 57 87 27 65 64 209 82 321 9 52 17 96 19 98 6 5 33 -98 46 -171 24 -135 6 -271 -47 -350 -16 -24 -62 -64 -112 -99 -47 -31 -109 -83 -137 -115 -60 -65 -78 -113 -93 -242 -5 -45 -12 -85 -14 -88 -14 -13 -34 24 -40 71 -5 39 -28 93 -87 202 -127 239 -152 304 -157 407 -4 80 -2 93 23 145 33 68 168 208 260 270 33 23 61 40 62 39 1 -1 -20 -46 -47 -100z m-510 -306 c81 -203 160 -441 160 -482 0 -8 -19 -19 -43 -25 -37 -10 -69 -38 -212 -182 l-168 -170 -56 51 c-77 70 -119 131 -127 187 -12 81 23 270 99 526 l32 110 6 -175 c7 -199 27 -286 76 -331 39 -36 59 -41 98 -25 40 17 67 64 86 151 14 68 17 292 5 405 -4 41 -5 73 -3 70 3 -3 24 -52 47 -110z m1264 -320 c-32 -91 -36 -189 -10 -238 11 -21 33 -41 59 -53 109 -49 214 4 273 138 27 60 54 160 54 198 0 59 19 9 30 -82 18 -141 10 -296 -18 -350 -26 -50 -42 -59 -192 -108 -63 -20 -134 -48 -157 -61 -71 -41 -74 -56 -67 -269 5 -121 4 -185 -3 -185 -5 0 -18 9 -29 21 -10 12 -70 62 -132 112 l-114 90 38 13 c51 17 62 31 90 108 36 100 41 186 15 270 -11 37 -21 87 -21 111 0 62 34 162 75 223 40 58 122 148 130 141 2 -3 -7 -38 -21 -79z m-440 -54 c-39 -95 -49 -171 -24 -186 25 -16 81 -11 114 10 37 22 72 80 97 159 16 50 18 52 18 23 1 -55 -29 -184 -55 -239 -30 -62 -65 -89 -142 -112 -53 -16 -58 -20 -74 -62 -10 -24 -23 -63 -28 -87 l-11 -44 -32 25 c-22 17 -30 31 -27 44 7 25 5 100 -5 225 -8 104 -7 107 18 151 24 40 175 192 183 184 2 -2 -12 -43 -32 -91z m-644 -216 c29 -15 941 -748 968 -776 12 -14 22 -29 22 -35 0 -13 -80 -99 -306 -331 -169 -174 -196 -198 -224 -198 -25 0 -111 65 -518 391 -268 215 -491 398 -495 405 -5 8 -6 22 -2 32 10 30 499 522 518 522 10 0 27 -5 37 -10z"
       id="path48" />
  </g>
  <path
     style="fill:#ffffff;stroke-width:0.537313"
     d="m 61.644846,185.82407 c -8.864106,-8.77775 -12.173055,-13.10894 -14.30142,-18.71959 -3.699733,-9.75298 0.02806,-32.89722 11.899789,-73.880599 l 3.891113,-13.432836 0.370258,11.552239 c 1.216719,37.962236 3.657333,49.032626 12.319399,55.879596 3.298041,2.60695 5.472157,3.25667 8.810583,2.63299 3.003051,-0.56103 5.59539,-2.06096 7.524681,-4.3538 3.797306,-4.51284 6.830397,-13.80993 7.764721,-23.80058 0.72863,-7.79124 0.70899,-36.408094 -0.03106,-45.249555 -0.321598,-3.842035 -0.501604,-7.56397 -0.400025,-8.270966 0.343645,-2.391708 14.202415,33.644921 21.126725,54.935291 3.28921,10.11344 5.64905,18.70138 5.64905,20.55806 0,1.35581 -1.67253,2.45364 -5.7753,3.79086 -1.55104,0.50553 -4.33164,2.02356 -6.17911,3.37341 -1.84746,1.34984 -12.58117,11.62823 -23.852687,22.84086 l -20.493659,20.3866 z"
     id="path60"
     transform="scale(0.75)" />
  <path
     style="fill:#ffffff;stroke-width:0.537313"
     d="m 169.6862,176.38583 c -1.46358,-1.67705 -2.07478,-3.29024 -3.16607,-8.35659 -1.46221,-6.78835 -2.99176,-10.60793 -8.58529,-21.43928 -14.89524,-28.8432 -19.09027,-37.66583 -21.48935,-45.19453 -2.68588,-8.428761 -3.50909,-22.792501 -1.64884,-28.769524 2.17452,-6.986723 7.61792,-14.521059 18.29234,-25.318816 3.42344,-3.463002 8.4148,-8.103052 11.0919,-10.311224 4.86511,-4.012916 14.08893,-10.438716 14.44249,-10.061395 0.10299,0.109921 -2.07891,4.914783 -4.84868,10.677469 -7.68657,15.992379 -9.83832,23.440625 -9.87536,34.183349 -0.0441,12.783304 2.97226,21.025306 10.39031,28.391101 6.35176,6.30703 12.03176,9.0051 16.45192,7.81488 4.17197,-1.1234 9.63585,-6.8432 13.85956,-14.508733 3.48561,-6.325984 8.37864,-24.392897 12.03676,-44.444361 1.25535,-6.880975 2.4614,-12.510863 2.68012,-12.510863 0.48321,0 2.01616,5.206102 3.8863,13.198376 4.78322,20.441684 3.79911,38.860263 -2.74595,51.393071 -2.34369,4.48783 -8.27682,10.30423 -16.54791,16.22237 -17.40884,12.45639 -25.13789,21.41451 -28.18522,32.66722 -0.58415,2.15707 -1.78982,8.98166 -2.67926,15.16576 -0.88945,6.18409 -1.82213,11.44876 -2.07263,11.69926 -0.25049,0.2505 -0.82971,0.0266 -1.28714,-0.49754 z"
     id="path62"
     transform="scale(0.75)" />
  <path
     style="fill:#ffffff;stroke-width:0.537313"
     d="m 197.92963,198.63976 c -4.23326,-3.45747 -4.17845,-3.28049 -4.02518,-12.99797 0.0746,-4.72836 -0.2673,-13.91642 -0.75973,-20.41791 -0.49242,-6.50149 -0.77466,-13.19141 -0.62719,-14.86649 0.3958,-4.49598 2.82401,-8.51505 9.74841,-16.13517 5.77825,-6.35881 14.71316,-14.97739 15.97735,-15.41168 0.84649,-0.29079 0.26793,1.71549 -2.76744,9.59675 -3.90584,10.1414 -4.89549,13.77141 -5.23329,19.19559 -0.39204,6.29512 0.15797,7.33443 4.34101,8.20283 3.86136,0.80162 8.92671,-0.0784 12.63188,-2.19447 4.77497,-2.7271 9.26741,-9.93474 13.27745,-21.30223 l 1.8465,-5.23438 -0.29378,4.51712 c -0.62564,9.61988 -5.01648,25.88051 -8.56652,31.72452 -2.29457,3.77726 -6.25722,7.56061 -9.75104,9.30983 -1.44297,0.72244 -5.03884,2.11182 -7.99081,3.08753 -3.34518,1.10565 -5.89241,2.29917 -6.76124,3.16799 -1.68886,1.68886 -4.39989,8.54342 -6.275,15.86567 -0.76085,2.97108 -1.52535,5.56896 -1.6989,5.77306 -0.17355,0.20411 -1.55616,-0.64215 -3.07248,-1.88059 z"
     id="path64"
     transform="scale(0.75)" />
  <path
     style="fill:#ffffff;stroke-width:0.537313"
     d="m 266.23881,254.3297 c -3.79537,-3.50699 -16.45019,-13.99662 -24.85075,-20.59888 -3.91567,-3.07746 -7.11836,-5.72659 -7.11708,-5.88698 0.001,-0.16038 1.94235,-1.008 4.31351,-1.88361 4.96167,-1.83221 6.96798,-3.54922 9.09974,-7.7876 2.30215,-4.57713 5.34567,-14.59395 6.27086,-20.63857 1.12754,-7.36666 0.66889,-13.36638 -1.73616,-22.71125 -2.2226,-8.63592 -2.84984,-15.65242 -1.85245,-20.72204 1.52134,-7.73283 5.4996,-17.37462 9.71011,-23.53361 4.95726,-7.25129 15.51569,-18.68584 15.9768,-17.30251 0.11645,0.34935 -0.76258,3.76911 -1.9534,7.59946 -3.05368,9.82235 -3.86138,14.26289 -3.87266,21.29093 -0.0183,11.39367 2.39026,15.82258 10.76214,19.78981 3.30043,1.56399 3.90012,1.66709 9.6971,1.66709 5.81139,0 6.38694,-0.0996 9.67164,-1.6743 8.78146,-4.20978 14.54339,-11.83847 19.2299,-25.46003 2.27496,-6.6123 4.14531,-14.38143 4.72138,-19.61194 0.31045,-2.81877 0.42027,-3.05508 0.87393,-1.8806 2.01394,5.21392 3.64461,20.05803 3.63006,33.04478 -0.0173,15.42612 -1.34748,22.94399 -5.02044,28.37424 -2.92433,4.32343 -5.49981,5.67184 -20.74826,10.8629 -15.03659,5.11893 -21.88048,7.88801 -26.18987,10.59658 -4.08429,2.56707 -5.24364,4.11755 -6.3881,8.54325 -0.78177,3.02312 -0.84042,6.00021 -0.51219,25.99782 0.34339,20.921 0.24454,24.45116 -0.68375,24.41934 -0.19002,-0.007 -1.55445,-1.12894 -3.03206,-2.49428 z"
     id="path66"
     transform="scale(0.75)" />
  <path
     style="fill:#ffffff;stroke-width:0.537313"
     d="M 183.64839,333.16193 C 173.04567,326.00216 101.21585,268.878 65.820896,239.45717 53.891813,229.54153 53.782111,229.35023 57.403943,224.77959 c 5.482768,-6.91908 55.996657,-58.00706 64.067167,-64.79529 4.53225,-3.81215 4.28806,-3.92181 21.72292,9.75477 19.37297,15.19691 78.34056,62.51815 101.67714,81.59548 12.51013,10.22685 14.30036,11.86122 15.47007,14.12321 0.76641,1.48206 0.71492,1.61324 -1.92349,4.90076 -6.90261,8.60082 -58.6388,61.61701 -63.31926,64.88584 -3.62584,2.53229 -4.98138,2.28575 -11.4501,-2.08243 z"
     id="path68"
     transform="scale(0.75)" />
</svg>
