<?xml version="1.0" standalone="no"?>
<!DOCTYPE svg PUBLIC "-//W3C//DTD SVG 20010904//EN"
 "http://www.w3.org/TR/2001/REC-SVG-20010904/DTD/svg10.dtd">
<svg version="1.0" xmlns="http://www.w3.org/2000/svg"
 width="300.000000pt" height="291.000000pt" viewBox="0 0 300.000000 291.000000"
 preserveAspectRatio="xMidYMid meet">
<metadata>
Created by potrace 1.16, written by Peter Selinger 2001-2019
</metadata>
<g transform="translate(0.000000,291.000000) scale(0.100000,-0.100000)"
fill="#000000" stroke="none">
<path d="M616 2881 c-16 -17 -51 -38 -78 -47 -26 -8 -48 -21 -48 -27 0 -10 48
-175 164 -568 l14 -46 -47 -53 -47 -53 -140 52 c-78 28 -154 51 -171 51 -63 0
-108 -69 -84 -129 7 -15 66 -72 132 -127 98 -81 118 -103 113 -119 -3 -11 -17
-64 -32 -117 l-25 -97 -86 -15 c-47 -8 -117 -21 -156 -27 -86 -15 -125 -47
-125 -104 0 -57 39 -89 125 -104 244 -41 245 -41 250 -70 3 -14 15 -60 26
-101 12 -41 23 -82 25 -90 3 -10 -39 -51 -115 -114 -66 -55 -125 -112 -132
-127 -24 -60 21 -129 84 -129 17 0 92 23 167 50 75 28 141 50 146 49 5 -1 28
-22 51 -48 l43 -48 -90 -304 c-50 -167 -90 -309 -90 -316 0 -6 21 -18 47 -27
26 -9 61 -30 78 -46 l32 -31 222 236 c123 129 226 235 229 235 17 -1 125 -29
129 -34 5 -4 16 -62 48 -245 l6 -33 57 6 c31 3 74 2 95 -3 33 -8 38 -7 42 13
7 31 45 249 45 257 0 3 17 9 38 13 21 3 76 16 121 30 l82 23 92 -108 91 -108
37 30 c20 15 57 37 82 48 l46 20 -21 53 c-11 29 -32 87 -48 129 l-27 75 91 91
91 91 115 -44 c63 -23 123 -43 132 -43 12 -1 21 12 29 39 7 22 10 42 8 43 -2
2 -76 29 -164 61 l-160 57 -29 -38 c-38 -48 -128 -138 -184 -183 l-43 -35 59
-162 c33 -90 56 -160 51 -157 -7 4 -194 224 -215 253 -2 2 -52 -12 -111 -32
-59 -20 -138 -39 -175 -43 -38 -4 -68 -10 -68 -13 0 -20 -60 -334 -64 -339 -3
-3 -6 -1 -6 4 0 11 -47 288 -55 319 -4 17 -18 23 -81 34 -42 7 -94 19 -116 27
-22 8 -43 14 -47 14 -4 0 -114 -114 -246 -254 -132 -140 -241 -251 -243 -247
-1 4 40 152 93 329 52 177 95 330 95 339 0 10 -8 23 -19 30 -10 6 -45 45 -78
86 l-60 74 -104 -37 c-57 -21 -134 -49 -171 -64 -38 -14 -68 -23 -68 -21 0 2
63 56 139 120 l139 117 -23 56 c-27 67 -51 156 -60 229 l-7 51 -86 16 c-48 8
-129 23 -180 32 -51 9 -91 18 -90 19 3 3 340 65 351 65 3 0 8 26 12 57 8 66
48 211 70 253 l14 27 -139 118 c-77 64 -140 118 -140 120 0 2 37 -10 83 -27
45 -17 122 -44 170 -62 l88 -31 32 40 c18 22 53 63 79 91 27 28 48 56 48 63 0
6 -43 156 -95 333 -53 177 -94 325 -93 329 3 7 135 -130 408 -421 l75 -80 61
19 c34 11 89 23 123 27 51 5 62 10 66 28 7 31 55 309 55 320 0 5 3 7 6 4 3 -3
18 -78 34 -167 16 -89 31 -165 34 -170 3 -4 35 -11 71 -14 36 -4 113 -22 171
-42 l105 -35 27 32 c15 18 66 79 114 135 l87 102 -37 30 -38 30 -88 -106 c-72
-85 -92 -104 -110 -100 -11 3 -57 14 -100 26 -44 12 -90 21 -103 21 -12 0 -23
4 -23 8 0 8 -38 224 -45 258 -4 20 -9 21 -42 13 -21 -5 -64 -6 -95 -3 l-57 6
-6 -33 c-31 -176 -43 -240 -46 -243 -2 -2 -33 -10 -69 -19 l-65 -17 -75 78
c-42 42 -143 148 -225 235 l-150 158 -29 -30z"/>
<path d="M2016 2552 c-3 -5 -30 -78 -61 -163 l-56 -154 33 -25 c43 -32 179
-167 204 -203 l20 -28 154 56 c85 31 159 60 164 65 12 12 -13 80 -30 80 -7 0
-61 -18 -119 -40 -58 -21 -111 -40 -118 -42 -7 -1 -53 38 -103 88 l-90 91 47
127 47 128 -34 14 c-38 16 -51 17 -58 6z"/>
<path d="M1466 2242 c3 -26 7 -47 8 -47 0 0 43 -11 93 -23 51 -13 97 -21 102
-17 6 3 19 19 31 35 l21 29 -38 16 c-35 15 -112 35 -191 49 l-33 6 7 -48z"/>
<path d="M1193 2268 c-24 -5 -43 -13 -43 -18 0 -22 53 -70 78 -70 40 0 50 11
58 58 6 41 6 42 -22 41 -16 -1 -48 -5 -71 -11z"/>
<path d="M1848 2095 l-17 -44 71 -69 72 -70 43 15 c36 13 41 17 33 33 -13 24
-118 130 -156 157 l-30 22 -16 -44z"/>
<path d="M2353 1983 c-70 -58 -129 -107 -130 -108 -2 -1 8 -29 22 -62 13 -33
32 -90 41 -126 10 -43 22 -68 33 -71 31 -9 647 -156 654 -156 8 0 30 80 24 86
-2 3 -141 38 -308 78 l-303 73 -23 68 c-13 38 -23 72 -23 76 0 4 47 47 105 94
l104 87 -27 34 c-15 19 -30 34 -34 34 -3 0 -64 -48 -135 -107z"/>
<path d="M757 1999 c-25 -29 -44 -56 -41 -60 3 -5 23 -14 44 -20 36 -11 41
-10 58 11 17 21 18 27 5 68 -7 25 -15 47 -17 49 -2 2 -24 -20 -49 -48z"/>
<path d="M2103 1772 c-32 -26 -33 -28 -21 -64 11 -38 16 -41 76 -53 24 -5 32
-3 32 7 0 22 -41 138 -48 138 -4 0 -22 -13 -39 -28z"/>
<path d="M596 1713 c-13 -43 -27 -100 -31 -127 l-8 -48 44 7 c56 9 59 11 59
40 0 13 9 51 19 85 l19 62 -31 29 c-18 15 -35 29 -39 29 -4 0 -18 -35 -32 -77z"/>
<path d="M2650 1375 c-168 -41 -315 -77 -326 -80 -17 -4 -25 -19 -38 -70 -9
-36 -27 -90 -41 -121 -14 -31 -22 -60 -19 -65 8 -14 254 -219 262 -219 4 0 19
15 34 34 l27 34 -104 87 c-58 47 -105 90 -105 94 0 4 10 38 23 75 l23 69 303
73 c167 40 305 75 308 78 9 8 -18 86 -30 85 -7 0 -149 -34 -317 -74z"/>
<path d="M565 1323 c9 -60 53 -203 63 -203 4 0 21 14 39 30 l32 28 -20 64
c-10 35 -19 73 -19 86 0 24 -5 27 -64 37 l-38 6 7 -48z"/>
<path d="M2128 1248 c-30 -8 -39 -16 -49 -46 -11 -34 -10 -36 22 -63 19 -16
37 -29 40 -29 6 0 49 119 49 138 0 14 -10 14 -62 0z"/>
<path d="M742 985 l-34 -15 42 -50 c23 -27 46 -52 50 -55 5 -3 15 16 23 42 23
78 -10 109 -81 78z"/>
<path d="M1898 928 l-68 -69 16 -39 c9 -22 20 -40 26 -40 5 0 50 41 101 91
l92 92 -30 12 c-63 26 -67 25 -137 -47z"/>
<path d="M1619 755 c-20 -7 -62 -18 -93 -25 -47 -10 -56 -15 -56 -33 0 -12 -3
-32 -6 -44 -6 -20 -3 -23 23 -23 37 0 174 34 208 52 l26 14 -33 36 c-32 36
-34 36 -69 23z"/>
<path d="M1179 702 c-16 -18 -27 -37 -24 -41 5 -10 125 -35 132 -28 2 3 1 25
-2 50 -7 42 -9 45 -42 49 -29 4 -39 -1 -64 -30z"/>
</g>
</svg>
