<?xml version="1.0" encoding="UTF-8" standalone="no"?>
<svg
   xmlns:dc="http://purl.org/dc/elements/1.1/"
   xmlns:cc="http://creativecommons.org/ns#"
   xmlns:rdf="http://www.w3.org/1999/02/22-rdf-syntax-ns#"
   xmlns:svg="http://www.w3.org/2000/svg"
   xmlns="http://www.w3.org/2000/svg"
   xmlns:sodipodi="http://sodipodi.sourceforge.net/DTD/sodipodi-0.dtd"
   xmlns:inkscape="http://www.inkscape.org/namespaces/inkscape"
   version="1.0"
   width="268.000000pt"
   height="268.000000pt"
   viewBox="0 0 268.000000 268.000000"
   preserveAspectRatio="xMidYMid meet"
   id="svg114"
   sodipodi:docname="trifle.svg"
   inkscape:version="1.0.1 (3bc2e813f5, 2020-09-07)">
  <metadata
     id="metadata120">
    <rdf:RDF>
      <cc:Work
         rdf:about="">
        <dc:format>image/svg+xml</dc:format>
        <dc:type
           rdf:resource="http://purl.org/dc/dcmitype/StillImage" />
      </cc:Work>
    </rdf:RDF>
  </metadata>
  <defs
     id="defs118" />
  <sodipodi:namedview
     pagecolor="#ffffff"
     bordercolor="#666666"
     borderopacity="1"
     objecttolerance="10"
     gridtolerance="10"
     guidetolerance="10"
     inkscape:pageopacity="0"
     inkscape:pageshadow="2"
     inkscape:window-width="1600"
     inkscape:window-height="837"
     id="namedview116"
     showgrid="false"
     inkscape:zoom="1.875"
     inkscape:cx="178.66667"
     inkscape:cy="178.66667"
     inkscape:window-x="-8"
     inkscape:window-y="-8"
     inkscape:window-maximized="1"
     inkscape:current-layer="svg114" />
  <g
     transform="translate(0.000000,268.000000) scale(0.100000,-0.100000)"
     fill="#000000"
     stroke="none"
     id="g112">
    <path
       d="M0 1340 l0 -1340 1340 0 1340 0 0 1340 0 1340 -1340 0 -1340 0 0 -1340z m1952 835 c188 -47 355 -90 371 -96 37 -16 75 -62 83 -104 5 -27 -32 -182 -166 -693 -95 -361 -179 -669 -186 -684 -7 -14 -25 -36 -40 -47 -48 -38 -86 -37 -256 5 -87 21 -158 41 -158 44 0 3 16 12 36 19 49 18 104 68 125 116 38 82 33 100 -166 663 -102 287 -185 532 -185 544 0 36 55 224 74 253 16 25 85 64 113 65 6 0 166 -38 355 -85z m-770 28 c15 -7 35 -25 44 -38 23 -36 474 -1311 474 -1341 0 -31 -21 -72 -52 -101 -31 -30 -689 -253 -744 -253 -44 0 -95 27 -118 62 -8 13 -117 311 -241 663 -205 579 -226 645 -222 689 8 88 25 97 408 224 184 61 343 113 354 115 26 5 63 -2 97 -20z"
       id="path110" />
  </g>
  <path
     style="fill:#ffffff;stroke-width:0.533333"
     d="m 116,293.6859 c -5.1203,-1.69601 -9.37416,-4.763 -10.98466,-7.91984 C 101.97433,279.80518 61.777626,167.42367 50.039914,132.06635 44.08781,114.13693 42.973578,109.61549 43.452017,105.33333 44.65002,94.610908 46.794089,93.510413 102.66667,74.939982 c 43.61578,-14.496626 43.13055,-14.35482 46.7982,-13.676598 5.02389,0.92902 8.7971,2.671154 11.50191,5.310572 2.42312,2.364537 2.80543,3.165754 7.43502,15.581955 12.99965,34.864039 39.39157,109.389119 51.91417,146.594429 3.71953,11.05091 5.81736,18.08826 5.81736,19.51482 0,2.64736 -2.30025,7.55836 -5.03879,10.75773 -1.55017,1.81102 -3.03229,2.66209 -8.68191,4.98532 -23.11986,9.50736 -83.75814,29.51951 -91.33289,30.14214 -1.69351,0.1392 -3.85356,-0.0583 -5.07974,-0.46445 z"
     id="path122"
     transform="scale(0.74999998)" />
  <path
     style="fill:#ffffff;stroke-width:0.533333"
     d="m 251.54728,286.65599 c -5.34806,-0.86205 -26.56842,-5.9813 -33.41133,-8.06022 l -4.53071,-1.37646 5.59738,-2.68007 c 7.27335,-3.48253 12.58156,-8.54374 15.77912,-15.04491 2.04429,-4.15639 2.08484,-4.35388 2.08041,-10.13334 -0.004,-4.75703 -0.29266,-6.97482 -1.49796,-11.49432 -2.17272,-8.14706 -9.29163,-29.24763 -23.03183,-68.26667 -13.71197,-38.93886 -24.26569,-70.139988 -24.26569,-71.739298 0,-2.076546 3.75992,-16.070584 6.51838,-24.260702 2.47507,-7.348733 3.03086,-8.506501 5.00533,-10.42655 2.86172,-2.782845 10.32935,-6.640117 12.85519,-6.640117 2.14056,0 22.90314,4.904665 55.6211,13.139165 34.47094,8.675691 40.63715,10.35473 43.01392,11.712535 4.47016,2.553728 9.25274,9.672986 9.25274,13.77345 0,4.127406 -4.78731,24.358417 -15.72222,66.441517 -10.90917,41.98404 -27.2871,103.08399 -30.35733,113.25188 -1.98885,6.5866 -8.22584,11.68614 -15.02644,12.28602 -1.73837,0.15334 -5.2844,-0.0635 -7.88006,-0.48191 z"
     id="path124"
     transform="scale(0.74999998)" />
</svg>
