<?xml version="1.0" encoding="UTF-8" standalone="no"?>
<svg
   xmlns:dc="http://purl.org/dc/elements/1.1/"
   xmlns:cc="http://creativecommons.org/ns#"
   xmlns:rdf="http://www.w3.org/1999/02/22-rdf-syntax-ns#"
   xmlns:svg="http://www.w3.org/2000/svg"
   xmlns="http://www.w3.org/2000/svg"
   xmlns:sodipodi="http://sodipodi.sourceforge.net/DTD/sodipodi-0.dtd"
   xmlns:inkscape="http://www.inkscape.org/namespaces/inkscape"
   version="1.0"
   width="443.000000pt"
   height="443.000000pt"
   viewBox="0 0 443.000000 443.000000"
   preserveAspectRatio="xMidYMid meet"
   id="svg871"
   sodipodi:docname="banuhaqim.svg"
   inkscape:version="1.0.1 (3bc2e813f5, 2020-09-07)">
  <defs
     id="defs875" />
  <sodipodi:namedview
     pagecolor="#ffffff"
     bordercolor="#666666"
     borderopacity="1"
     objecttolerance="10"
     gridtolerance="10"
     guidetolerance="10"
     inkscape:pageopacity="0"
     inkscape:pageshadow="2"
     inkscape:window-width="1600"
     inkscape:window-height="837"
     id="namedview873"
     showgrid="false"
     inkscape:zoom="1.1343115"
     inkscape:cx="146.67463"
     inkscape:cy="280.59958"
     inkscape:window-x="-8"
     inkscape:window-y="-8"
     inkscape:window-maximized="1"
     inkscape:current-layer="svg871" />
  <metadata
     id="metadata855">
Created by potrace 1.16, written by Peter Selinger 2001-2019
<rdf:RDF>
  <cc:Work
     rdf:about="">
    <dc:format>image/svg+xml</dc:format>
    <dc:type
       rdf:resource="http://purl.org/dc/dcmitype/StillImage" />
  </cc:Work>
</rdf:RDF>
</metadata>
  <path
     style="fill:#ffffff;fill-opacity:1;stroke:#bb0000;stroke-width:0;stroke-miterlimit:4;stroke-dasharray:none;stroke-opacity:1;paint-order:stroke fill markers"
     d="m 403.08674,24.102578 c -19.42169,0.912954 -39.37394,-1.725492 -58.4175,2.878261 -15.45001,4.336744 -20.49451,24.970372 -10.31012,36.818364 10.6234,13.34553 23.13638,25.281426 35.564,36.838397 11.36438,8.07497 26.42132,3.26315 39.46034,4.68854 25.03516,0.13255 50.07031,0.26516 75.10547,0.39778 0.52314,34.97228 -0.30073,70.08817 1.05587,104.97156 2.3932,13.52228 16.21719,20.57566 24.4577,30.52487 10.59111,10.58395 23.14034,24.56021 39.83707,20.57652 13.09183,-1.00395 19.39335,-15.19309 17.55643,-26.97977 -0.16687,-63.43309 0.33344,-126.93376 -0.25004,-190.324644 -0.53163,-13.455257 -14.61753,-20.6821 -26.84615,-18.91828 -45.7318,-0.982104 -91.46974,-1.591587 -137.21307,-1.471598 z"
     id="path3691"
     transform="scale(0.74999997)" />
  <path
     style="fill:#ffffff;fill-opacity:1;stroke:#bb0000;stroke-width:0;stroke-miterlimit:4;stroke-dasharray:none;stroke-opacity:1;paint-order:stroke fill markers"
     d="m 164.11072,24.173195 c -41.15982,0.350109 -82.369758,-0.233544 -123.492498,1.541404 -12.25073,1.6698 -19.325024,14.186525 -18.090186,25.850777 -1.136567,64.226704 -2.323359,128.525014 0.219156,192.731484 0.680772,13.79162 15.189397,21.87718 27.876762,18.85723 16.434836,-4.19066 26.395572,-19.64597 38.744335,-30.09061 8.953203,-7.43693 17.511181,-17.2073 15.479961,-29.73924 -0.10423,-32.82465 0.20067,-65.33618 1.13961,-98.11899 35.22664,-0.3365 70.58939,0.67064 105.73153,-0.50007 13.75815,-2.39346 20.76516,-16.611056 30.72031,-25.116376 9.03287,-10.711802 24.57343,-22.032168 19.79505,-38.045295 -3.74543,-14.510119 -20.47679,-17.070554 -33.20488,-16.94174 -21.63348,-0.5464 -43.28054,-0.396536 -64.91915,-0.428574 z"
     id="path3679"
     transform="scale(0.74999997)" />
  <path
     style="fill:#ffffff;fill-opacity:1;stroke:#bb0000;stroke-width:0;stroke-miterlimit:4;stroke-dasharray:none;stroke-opacity:1;paint-order:stroke fill markers"
     d="m 540.87069,329.55133 c -17.30809,1.48698 -27.4063,17.96419 -39.51579,28.35828 -8.50414,7.74481 -18.22979,16.83821 -16.34731,29.5162 0,32.64626 0,65.29253 0,97.93879 -35.10326,0.33647 -70.34259,-0.67027 -105.36138,0.50007 -13.48122,2.26185 -20.50016,16.04778 -30.3901,24.21529 -10.62033,11.06512 -25.91509,23.3175 -22.11699,40.65185 1.27432,13.12837 14.8983,20.61981 27.15538,18.98019 64.76223,0.71848 129.59967,0.73959 194.32363,0.28448 13.61552,-0.53549 20.81707,-14.90462 18.77787,-27.22981 -0.42045,-62.87744 0.98783,-125.80837 -1.30693,-188.65092 1.03839,-14.74068 -10.17518,-26.60648 -25.21838,-24.56442 z"
     id="path3687"
     transform="scale(0.74999997)" />
  <path
     style="fill:#ffffff;fill-opacity:1;stroke:#bb0000;stroke-width:0;stroke-miterlimit:4;stroke-dasharray:none;stroke-opacity:1;paint-order:stroke fill markers"
     d="m 294.00259,219.98504 c -9.5598,0.44222 -17.31687,6.88207 -23.56911,13.54877 -12.94814,-0.31162 -30.3458,-0.44856 -35.96223,14.00925 -4.08832,8.33692 -1.71746,18.73619 -4.9081,26.73202 -11.37046,9.13289 -17.0638,26.4924 -7.7825,39.06838 3.24108,5.85821 11.08016,9.05837 9.35302,16.76891 0.25272,11.67793 2.53727,26.11892 15.6097,29.79321 7.07292,2.28519 15.46965,-0.64785 22.09856,1.75116 8.91966,9.34192 22.0578,19.98469 35.59497,13.12371 7.49347,-3.22296 12.91487,-10.46213 19.70464,-13.98952 11.37365,0.52499 26.22983,0.89666 31.57226,-11.45913 5.55378,-8.81548 -2.34675,-21.6799 6.70924,-28.48598 8.3088,-8.24323 16.99146,-20.31278 10.77522,-32.30719 -3.38651,-7.51854 -11.61044,-12.22423 -15.25785,-18.97299 1.17711,-12.69273 -1.53129,-28.4098 -14.94894,-33.57484 -7.20969,-3.94194 -16.46525,-0.82962 -23.367,-3.51625 -6.64116,-7.08592 -15.42535,-13.30403 -25.62188,-12.48951 z"
     id="path3693"
     transform="scale(0.74999997)" />
  <path
     style="fill:#ffffff;fill-opacity:1;stroke:#bb0000;stroke-width:0;stroke-miterlimit:4;stroke-dasharray:none;stroke-opacity:1;paint-order:stroke fill markers"
     d="m 293.24285,29.174844 c -15.63298,2.886435 -25.01467,17.61344 -36.44824,27.306953 -14.16321,14.019279 -28.20294,28.162626 -42.30459,42.243715 -33.20148,0.586553 -66.47744,-0.204897 -99.62873,1.731338 -12.01364,2.07853 -18.477821,14.44498 -17.32204,25.88525 -1.074328,30.36516 -1.256497,60.75257 -1.795755,91.12994 -21.751971,22.66999 -45.638996,43.48413 -65.440259,67.92404 -8.40575,11.16812 -2.30816,25.84374 7.032503,34.23719 18.957093,20.63078 39.096765,40.13267 58.68292,60.15857 0.115861,32.88443 0.004,65.92497 2.225258,98.68021 1.451935,13.43765 16.247503,18.8128 28.145023,16.96891 28.40923,0 56.81847,0 85.22769,0 23.18277,21.97676 44.61038,45.96384 69.34613,66.21948 10.9422,8.76813 26.47997,4.33411 35.25747,-5.3036 21.24058,-19.6346 41.19033,-40.61187 61.78278,-60.91588 32.32639,-0.33728 64.78906,0.67088 97.03099,-0.50008 13.09184,-1.00395 19.39336,-15.19308 17.55643,-26.97977 0,-29.00177 0,-58.00354 0,-87.00531 22.94563,-23.84425 47.8775,-45.9801 68.83962,-71.62779 7.30099,-10.78814 1.48248,-24.17048 -7.39532,-31.95551 -19.4308,-21.12462 -40.05861,-41.1017 -60.19511,-61.54414 -0.89532,-32.70139 -0.45407,-65.56116 -2.17809,-98.16414 C 490.38786,104.18148 475.80091,99.022384 463.97097,99.611881 434.93318,98.548056 405.86592,98.985528 376.8147,98.871618 354.1279,77.150002 333.25894,53.348026 308.89066,33.477625 304.3518,30.292239 298.79098,28.635458 293.24285,29.174844 Z M 144.23562,147.09588 c -0.33426,1.02536 -0.79136,-1.07452 0,0 z m 298.97875,3.77681 c -5.75353,2.93546 6.19177,-7.97845 0,0 z m -134.69141,92.12139 c 9.80646,8.69657 23.6474,5.28435 35.60082,6.55524 0.43884,13.08379 -3.04335,29.25521 9.14454,38.25102 2.52051,4.43705 15.10043,8.68752 7.93667,13.28671 -8.55723,8.15105 -19.0494,17.2603 -17.08121,30.39774 -1.41565,4.93537 3.8996,16.48379 -4.86285,14.22571 -11.64078,-0.63342 -24.77992,-0.42035 -32.43427,9.91823 -4.86198,2.49911 -9.79618,14.88249 -14.61356,7.74766 -8.48734,-8.58024 -17.55004,-19.703 -31.07918,-17.64885 -4.77934,-0.004 -9.56075,0.0392 -14.33773,-0.13148 -0.58791,-13.06626 2.12725,-28.95256 -10.06903,-37.77058 -3.46904,-4.75172 -14.74782,-9.46511 -5.96386,-14.23611 8.51881,-7.63662 18.07516,-16.73812 16.21553,-29.32246 0.50498,-6.79981 -3.13716,-17.7414 7.47325,-14.44085 12.99452,0.43262 30.00318,0.60769 36.25099,-13.40668 2.59465,-7.37515 6.99741,-6.56318 10.87757,-0.347 2.3141,2.30723 4.62821,4.61447 6.94232,6.9217 z M 143.97263,449.03813 c -0.0141,0.0192 -0.004,-0.0112 0,0 z m 152.91797,58.32252 c 0.73818,11.98598 -7.0847,-2.0311 0.002,-1.51949 l -0.002,1.24676 z"
     id="path3689"
     transform="scale(0.74999997)" />
  <path
     style="fill:#ffffff;fill-opacity:1;stroke:#bb0000;stroke-width:0;stroke-miterlimit:4;stroke-dasharray:none;stroke-opacity:1;paint-order:stroke fill markers"
     d="m 34.596277,328.63574 c -12.111932,5.30917 -13.051125,19.37055 -12.136424,30.8573 0.167263,64.00204 -0.333695,128.07177 0.250036,192.03163 0.536173,13.64296 14.954305,20.84017 27.295514,18.75306 66.502287,-0.52403 133.041657,0.29105 199.518077,-1.61402 15.46626,-1.34524 23.58739,-20.74599 14.68595,-33.09756 -12.19089,-16.328 -27.47808,-30.19949 -41.57971,-44.79926 -11.4465,-9.23345 -27.27457,-4.02865 -40.78677,-5.40229 -25.28503,0 -50.57006,0 -75.85509,0 -1.18637,-35.26226 -0.92706,-70.34037 -1.38965,-105.61805 C 102.82015,365.31766 88.087876,358.07607 79.37695,347.85163 68.11786,336.59251 53.929723,322.07112 36.351991,328.27633 l -1.22143,0.25004 z"
     id="path3685"
     transform="scale(0.74999997)" />
  <path
     style="fill:#ffffff;fill-opacity:1;stroke:#bb0000;stroke-width:0;stroke-miterlimit:4;stroke-dasharray:none;stroke-opacity:1;paint-order:stroke fill markers"
     d="m 444.23186,127.92652 c -4.07502,0.13266 -8.07258,1.54444 -11.38721,3.90645 -2.70168,1.94172 -5.107,4.30546 -7.09328,6.9747 -2.69067,3.63677 -4.20696,8.14772 -4.12781,12.67969 0.0413,5.17856 2.18544,10.30082 5.8539,13.95784 3.34572,3.38611 7.9303,5.49489 12.67284,5.86847 4.51647,0.36823 9.08933,-0.83854 12.98699,-3.10807 2.88405,-1.68178 5.29817,-4.0855 7.18171,-6.82862 1.92108,-2.63879 3.47617,-5.59075 4.18771,-8.79448 1.13964,-4.89467 0.36746,-10.20552 -2.14725,-14.56022 -2.53419,-4.45903 -6.84566,-7.85657 -11.76977,-9.2884 -2.06111,-0.60843 -4.21159,-0.86141 -6.35783,-0.80736 z"
     id="path3697"
     transform="scale(0.74999997)" />
  <path
     style="fill:#ffffff;fill-opacity:1;stroke:#bb0000;stroke-width:0;stroke-miterlimit:4;stroke-dasharray:none;stroke-opacity:1;paint-order:stroke fill markers"
     d="m 295.73278,485.91772 c -10.17256,0.0125 -19.51969,7.95365 -21.26675,17.95869 -1.90505,9.70383 2.31413,20.91907 11.51598,25.36022 9.17089,4.82924 21.68435,1.8001 27.26889,-7.04036 4.04118,-6.04099 4.40822,-13.85662 3.0063,-20.79039 -2.18375,-9.23128 -11.07603,-15.83813 -20.52442,-15.48816 z"
     id="path3695"
     transform="scale(0.74999997)" />
  <g
     transform="translate(0.000000,443.000000) scale(0.100000,-0.100000)"
     fill="#000000"
     stroke="none"
     id="g869">
    <path
       d="M317 4093 c-4 -3 -7 -345 -7 -760 0 -681 2 -754 16 -760 11 -4 59 37 165 143 l149 149 2 460 3 460 460 3 460 2 139 139 c98 98 137 144 133 155 -6 14 -80 16 -760 16 -415 0 -757 -3 -760 -7z"
       id="path857" />
    <path
       d="M2593 4084 c-4 -11 34 -56 133 -155 l139 -139 460 -2 460 -3 3 -460 2 -460 144 -144 c102 -102 149 -142 160 -138 15 6 16 77 14 759 l-3 753 -753 3 c-682 2 -753 1 -759 -14z"
       id="path859" />
    <path
       d="M1935 3810 l-270 -270 -395 -2 -395 -3 -3 -395 -2 -395 -270 -270 c-149 -148 -270 -274 -270 -280 0 -6 121 -132 270 -280 l270 -270 2 -390 3 -390 390 -3 390 -2 275 -275 c151 -151 279 -275 285 -275 6 0 134 124 285 275 l275 275 385 2 385 3 3 385 2 385 275 275 c151 151 275 279 275 285 0 5 -123 133 -272 282 l-273 273 -5 393 -5 392 -390 3 -390 2 -270 270 c-148 149 -274 270 -280 270 -6 0 -132 -121 -280 -270z m369 21 c97 -97 94 -101 -89 -101 -185 0 -189 5 -84 101 41 38 81 68 89 69 9 0 46 -31 84 -69z m230 -230 c18 -18 26 -36 23 -46 -6 -13 -44 -15 -339 -13 -314 3 -333 4 -336 21 -2 11 6 30 19 43 l22 24 292 0 291 0 28 -29z m-1317 -207 c8 -22 -179 -209 -201 -201 -13 5 -16 24 -16 105 0 54 3 102 7 105 3 4 51 7 105 7 81 0 100 -3 105 -16z m280 0 c7 -20 -454 -486 -477 -482 -11 2 -16 19 -18 57 l-3 55 193 193 193 193 53 0 c39 0 54 -4 59 -16z m650 0 c4 -11 -18 -40 -70 -92 l-76 -77 -3 -150 -3 -150 -52 -3 c-42 -2 -62 2 -96 22 -54 32 -65 32 -77 1 -7 -20 -17 -25 -42 -25 -29 0 -47 -14 -133 -100 -55 -55 -104 -100 -109 -100 -12 0 -230 211 -234 226 -4 14 110 114 130 114 8 0 29 -16 48 -35 19 -19 43 -35 55 -35 12 0 45 25 80 60 l59 59 95 3 96 3 3 95 3 95 52 53 51 52 108 0 c90 0 110 -3 115 -16z m410 -36 l52 -53 3 -95 3 -95 96 -3 95 -3 59 -59 c33 -33 66 -60 75 -60 9 0 34 18 55 40 21 22 46 40 54 40 19 0 131 -109 131 -127 0 -7 -12 -19 -27 -27 -16 -8 -68 -55 -118 -105 -49 -50 -94 -91 -100 -91 -6 0 -55 45 -110 100 l-99 99 -146 3 -145 3 -3 145 -3 145 -81 82 c-107 107 -104 113 45 113 l113 0 51 -52z m676 -146 l198 -198 -3 -50 c-2 -34 -8 -50 -18 -52 -23 -4 -484 462 -477 482 5 12 20 16 54 16 l48 0 198 -198z m195 90 c4 -141 -3 -142 -125 -19 -123 122 -122 129 19 125 l103 -3 3 -103z m-1103 -492 l99 -100 151 -2 150 -3 3 -150 2 -150 98 -97 c53 -54 104 -98 112 -98 8 0 59 44 112 98 l98 97 2 150 3 150 135 0 135 0 0 -85 0 -85 -40 -5 -40 -5 -3 -96 -3 -95 -64 -64 c-36 -36 -65 -69 -65 -75 0 -6 29 -39 65 -75 l64 -64 3 -90 3 -91 40 -5 40 -5 0 -85 0 -85 -135 0 -135 0 -3 145 -3 145 -97 98 c-53 53 -104 97 -112 97 -8 0 -59 -44 -112 -97 l-97 -98 -3 -145 -3 -145 -145 -3 -146 -3 -104 -104 c-58 -58 -109 -105 -115 -105 -6 0 -57 47 -115 105 l-104 104 -146 3 -145 3 -3 145 -3 145 -97 98 c-53 53 -104 97 -112 97 -8 0 -59 -44 -112 -97 l-97 -98 -3 -145 -3 -145 -135 0 -135 0 0 85 0 85 40 5 40 5 3 91 3 90 64 64 c36 36 65 69 65 75 0 6 -29 39 -65 75 l-64 64 -3 95 -3 96 -40 5 -40 5 0 85 0 85 135 0 135 0 3 -150 2 -150 98 -97 c53 -54 104 -98 112 -98 8 0 59 44 112 98 l98 97 2 150 3 150 170 1 170 1 3 24 c4 24 147 179 167 179 6 0 55 -45 110 -100z m1287 -287 l28 -27 0 -296 0 -296 -29 -28 c-18 -17 -36 -26 -45 -23 -14 6 -16 47 -16 345 0 186 3 342 7 345 12 13 27 7 55 -20z m-2744 -326 c2 -290 0 -328 -13 -334 -10 -3 -28 5 -46 23 l-29 28 0 287 0 288 27 21 c58 45 58 47 61 -313z m2979 91 c40 -40 73 -79 73 -88 0 -9 -33 -49 -74 -89 -103 -103 -106 -100 -106 87 0 82 3 152 7 155 14 15 30 4 100 -65z m-3169 -86 c3 -180 -1 -183 -99 -86 -38 38 -69 73 -69 78 0 19 133 157 149 154 14 -3 16 -24 19 -146z m927 -632 l99 -99 146 -3 145 -3 3 -145 3 -145 81 -82 c106 -107 104 -113 -39 -113 l-109 0 -56 58 -57 57 -3 95 -3 95 -96 3 -95 3 -59 59 c-33 33 -66 60 -75 60 -9 0 -34 -18 -55 -40 -21 -22 -46 -40 -54 -40 -17 0 -121 98 -121 114 0 17 213 226 230 226 8 0 60 -45 115 -100z m1457 -7 c60 -59 108 -112 108 -118 0 -16 -103 -115 -120 -115 -9 0 -34 18 -55 40 -21 22 -46 40 -55 40 -9 0 -42 -27 -75 -60 l-59 -59 -95 -3 -96 -3 -3 -95 -3 -95 -57 -57 -56 -58 -109 0 c-143 0 -145 6 -39 113 l81 82 3 145 3 145 145 3 146 3 99 99 c55 55 106 100 115 100 8 0 63 -48 122 -107z m-1793 -317 c168 -168 232 -239 228 -250 -5 -12 -20 -16 -54 -16 l-48 0 -197 197 -198 198 0 46 c0 47 5 59 24 59 6 0 116 -105 245 -234z m2159 182 l3 -48 -202 -200 c-201 -199 -201 -200 -245 -200 -84 0 -74 15 177 266 132 132 241 233 249 232 10 -2 16 -18 18 -50z m-3 -333 l0 -110 -108 -3 c-147 -4 -148 2 -21 129 54 55 106 98 114 97 12 -3 15 -23 15 -113z m-2296 11 c120 -121 119 -128 -21 -124 l-103 3 -3 94 c-3 102 0 121 20 121 8 0 56 -42 107 -94z m1428 -262 c3 -9 -7 -28 -28 -50 l-33 -34 -281 0 -281 0 -33 34 c-64 66 -63 66 314 66 295 0 336 -2 342 -16z m-200 -200 c4 -11 -16 -38 -63 -85 -38 -38 -73 -69 -79 -69 -6 0 -41 31 -79 69 -96 97 -92 101 79 101 115 0 137 -2 142 -16z"
       id="path861" />
    <path
       d="M2145 2590 l-59 -59 -100 -3 -101 -3 -3 -101 -3 -100 -59 -59 c-33 -33 -60 -64 -60 -70 0 -6 27 -37 60 -70 l59 -59 3 -95 3 -96 96 -3 95 -3 64 -64 c36 -36 69 -65 75 -65 6 0 39 29 75 65 l64 64 90 3 91 3 3 91 3 90 64 64 c36 36 65 69 65 75 0 6 -29 39 -65 75 l-64 64 -3 95 -3 96 -96 3 -95 3 -59 59 c-33 33 -64 60 -70 60 -6 0 -37 -27 -70 -60z"
       id="path863" />
    <path
       d="M315 1848 c-3 -7 -4 -357 -3 -778 l3 -765 773 -3 c701 -2 773 -1 779 14 4 11 -38 60 -148 170 l-154 154 -460 2 -460 3 -3 460 -2 460 -147 147 c-81 82 -154 148 -161 148 -7 0 -15 -6 -17 -12z"
       id="path865" />
    <path
       d="M3933 1708 l-143 -143 -2 -460 -3 -460 -460 -3 -460 -2 -154 -154 c-110 -110 -152 -159 -148 -170 6 -15 78 -16 774 -14 l768 3 0 770 c0 676 -2 770 -15 773 -8 1 -78 -61 -157 -140z"
       id="path867" />
  </g>
</svg>
