<?xml version="1.0" encoding="UTF-8" standalone="no"?>
<svg
   xmlns:dc="http://purl.org/dc/elements/1.1/"
   xmlns:cc="http://creativecommons.org/ns#"
   xmlns:rdf="http://www.w3.org/1999/02/22-rdf-syntax-ns#"
   xmlns:svg="http://www.w3.org/2000/svg"
   xmlns="http://www.w3.org/2000/svg"
   xmlns:sodipodi="http://sodipodi.sourceforge.net/DTD/sodipodi-0.dtd"
   xmlns:inkscape="http://www.inkscape.org/namespaces/inkscape"
   version="1.0"
   width="300.000000pt"
   height="150.000000pt"
   viewBox="0 0 300.000000 150.000000"
   preserveAspectRatio="xMidYMid meet"
   id="svg10448"
   sodipodi:docname="assamite.svg"
   inkscape:version="1.0.1 (3bc2e813f5, 2020-09-07)">
  <defs
     id="defs10452" />
  <sodipodi:namedview
     pagecolor="#ffffff"
     bordercolor="#666666"
     borderopacity="1"
     objecttolerance="10"
     gridtolerance="10"
     guidetolerance="10"
     inkscape:pageopacity="0"
     inkscape:pageshadow="2"
     inkscape:window-width="1600"
     inkscape:window-height="837"
     id="namedview10450"
     showgrid="false"
     inkscape:zoom="1.385"
     inkscape:cx="133.27376"
     inkscape:cy="126.36436"
     inkscape:window-x="-8"
     inkscape:window-y="-8"
     inkscape:window-maximized="1"
     inkscape:current-layer="svg10448" />
  <metadata
     id="metadata10432">
Created by potrace 1.16, written by Peter Selinger 2001-2019
<rdf:RDF>
  <cc:Work
     rdf:about="">
    <dc:format>image/svg+xml</dc:format>
    <dc:type
       rdf:resource="http://purl.org/dc/dcmitype/StillImage" />
  </cc:Work>
</rdf:RDF>
</metadata>
  <path
     style="fill:#ffffff;stroke-width:0.722022"
     d="m 243.83756,11.475488 c -7.5429,-0.173229 -11.51497,7.732735 -16.54868,12.083932 -7.2216,7.525277 -14.91995,14.566544 -22.66189,21.547893 -5.58194,-0.470482 -11.01548,-1.345085 -15.36756,-5.164642 -2.83257,-1.939838 -1.02072,-6.965077 -4.14395,-9.258869 -3.65183,-3.906558 -10.27828,-4.303936 -14.8508,-1.999661 -10.78574,10.601924 -20.92479,22.005219 -33.49527,30.609419 -4.97634,4.241488 -11.42948,7.361356 -18.04749,5.39577 -4.62345,-0.44665 -9.4105,-0.525642 -13.29806,2.452157 -4.93968,3.025776 -11.25737,4.118584 -16.443024,1.064879 -8.721545,-1.414653 -15.649272,5.271579 -22.003488,10.047529 -6.23544,3.811003 -14.364705,-0.479863 -20.616384,3.851805 -13.715734,6.432873 -25.850311,17.600296 -31.449399,31.82212 -1.307525,6.13448 3.132796,11.5376 8.645928,13.53791 8.643701,5.01461 12.029123,18.58097 3.868175,25.53446 -3.36521,4.50638 -7.149377,9.55778 -5.728227,15.55168 0.953684,6.93595 8.918521,10.11846 14.996051,7.61083 6.189267,-2.36987 9.572557,-8.88298 14.230692,-12.91152 5.324488,-1.61643 12.194364,-3.7412 16.525738,0.95445 6.305283,3.53108 13.762813,-0.45438 18.129514,-5.3108 5.988801,-5.27419 13.699632,-1.07659 20.586634,-1.21425 16.09184,0.0741 31.77934,5.84253 44.37513,15.79485 6.13001,3.84839 10.82434,10.28242 17.80984,12.5488 7.75811,1.47757 12.64882,-5.54676 17.99511,-9.76027 10.66328,-10.07291 23.12924,-18.46079 37.39044,-22.41059 5.89648,-2.15675 12.9741,-5.81226 18.71474,-1.12958 6.89176,5.71273 16.64197,5.67455 25.12848,6.62971 10.505,0.034 22.00058,1.51596 31.53189,-3.83046 4.4204,-2.53466 6.36979,-7.27047 9.26924,-11.09403 5.1464,-5.43738 12.61805,-1.70239 18.96434,-2.56234 12.77676,-0.39267 25.8057,0.7927 38.19523,-3.12218 5.81454,-1.78974 14.20273,-3.21075 15.99729,-10.04766 1.34205,-14.88145 -6.37511,-28.820885 -14.55233,-40.6623 -2.40648,-3.641523 -6.8826,-5.259567 -7.15211,-10.091386 -1.2995,-3.699358 -1.23608,-8.946149 1.39658,-11.912769 8.67479,-9.836992 18.72115,-18.197693 25.23369,-29.72129 3.16105,-6.041626 -0.95514,-13.969021 -7.7984,-14.55466 -7.92588,-1.455274 -13.4009,6.079809 -18.86948,10.474325 -16.52509,16.524691 -36.1486,29.305066 -54.66799,43.381556 -6.32761,4.434758 -12.04635,13.48673 -20.95762,10.62543 -8.18895,-2.051545 -10.32297,-13.7633 -3.57999,-18.718957 5.20124,-3.329637 10.76707,-8.590148 9.42577,-15.420522 -0.49644,-5.224059 -4.99095,-8.414809 -9.72614,-9.552685 -5.63058,-2.095379 -7.95092,-8.194871 -7.71097,-13.784691 -1.06712,-5.763944 -6.70366,-8.788931 -12.08258,-9.260774 -6.495,-1.440091 -9.36607,-9.31249 -16.65867,-8.022619 z"
     id="path11086"
     transform="scale(0.75)" />
  <g
     transform="translate(0.000000,150.000000) scale(0.100000,-0.100000)"
     fill="#000000"
     stroke="none"
     id="g10446">
    <path
       d="M1992 1404 c-6 -98 -36 -137 -288 -374 -105 -99 -113 -116 -121 -268 l-6 -102 -22 25 c-29 30 -66 40 -94 25 -16 -8 -33 -7 -73 5 -68 20 -75 19 -84 -7 -3 -13 -12 -30 -19 -38 -13 -16 -6 -132 9 -147 12 -13 36 28 36 62 0 41 22 70 45 62 14 -6 15 -10 5 -22 -11 -13 -10 -14 2 -10 8 3 25 -6 38 -20 30 -32 46 -32 54 0 5 19 15 25 44 30 20 3 45 10 55 16 24 13 34 5 41 -35 11 -59 138 -159 261 -206 45 -17 88 -24 171 -28 155 -6 184 11 270 160 51 87 74 112 74 80 0 -12 -5 -24 -10 -27 -11 -7 -3 -54 11 -70 5 -5 27 -11 49 -12 32 -2 46 3 75 28 23 21 35 26 35 17 0 -8 9 -23 19 -32 18 -16 24 -16 97 -1 44 8 91 20 107 27 25 10 27 14 21 47 -19 102 -112 254 -198 322 -21 16 -13 0 33 -71 87 -131 112 -224 69 -254 -24 -17 -103 -22 -112 -7 -9 14 -10 71 -3 126 l7 50 -33 -66 c-17 -37 -41 -76 -51 -88 -17 -19 -55 -28 -68 -16 -2 3 19 53 48 112 29 59 51 109 49 111 -8 9 -194 -186 -231 -242 -29 -44 -49 -63 -81 -77 -72 -31 -159 -41 -283 -34 -99 5 -124 11 -176 36 -34 16 -69 40 -78 54 -16 24 -48 161 -48 198 1 29 32 117 65 182 20 40 62 92 134 164 129 131 166 196 160 287 -2 32 -4 45 -5 28z"
       id="path10434" />
    <path
       d="M1847 1399 c-13 -49 -95 -143 -207 -239 -193 -163 -266 -263 -252 -344 9 -52 32 -60 32 -11 0 75 58 150 213 275 62 50 131 116 154 146 42 55 78 147 71 182 -3 12 -6 10 -11 -9z"
       id="path10436" />
    <path
       d="M2872 1345 c-58 -88 -248 -263 -390 -360 -65 -44 -135 -93 -157 -110 -50 -39 -121 -136 -136 -186 -12 -37 -14 -39 -55 -39 -42 0 -44 1 -55 40 -19 62 8 118 100 209 62 60 70 70 41 56 -67 -34 -88 -55 -160 -160 l-71 -105 -43 0 c-59 0 -70 16 -62 87 17 144 106 251 278 333 113 54 109 64 -10 24 -145 -48 -266 -146 -317 -256 -39 -84 -30 -164 39 -330 39 -95 55 -90 25 7 -25 81 -20 109 14 76 27 -25 55 -27 83 -6 27 20 30 19 48 -20 16 -32 21 -35 60 -35 32 0 54 8 84 30 46 33 55 23 27 -30 -9 -17 -11 -31 -6 -35 14 -8 54 51 90 135 41 96 102 198 135 229 32 30 33 14 4 -42 -26 -51 -39 -105 -27 -113 5 -3 9 1 9 9 0 8 14 41 31 75 24 49 59 89 176 199 80 76 165 165 188 198 37 53 111 185 102 185 -1 0 -22 -29 -45 -65z"
       id="path10438" />
    <path
       d="M1330 1263 c-47 -91 -148 -190 -300 -292 -139 -94 -272 -195 -309 -235 -29 -31 -26 -32 20 -9 21 11 66 19 119 21 74 4 88 2 110 -16 23 -18 25 -27 24 -91 0 -39 -3 -73 -6 -77 -3 -3 -24 4 -47 15 -30 16 -59 21 -118 21 -276 -1 -556 -195 -652 -453 -28 -76 -26 -83 6 -22 110 213 371 388 599 403 90 5 138 -6 183 -43 l28 -24 45 44 c56 54 74 112 59 193 -6 29 -16 62 -22 73 -12 23 -66 49 -103 49 -47 0 -35 17 52 76 179 121 289 239 332 353 31 82 20 90 -20 14z"
       id="path10440" />
    <path
       d="M1043 1081 c-36 -35 -104 -82 -165 -116 -209 -116 -274 -171 -345 -292 -24 -41 -53 -57 -53 -30 0 25 68 153 103 193 20 22 62 60 94 84 86 65 86 66 -5 21 -102 -51 -140 -90 -220 -224 -34 -59 -67 -109 -74 -113 -21 -13 -4 118 24 179 15 31 25 57 22 57 -16 0 -115 -54 -147 -81 -40 -33 -120 -145 -156 -219 l-22 -45 23 30 c12 17 51 61 87 98 75 79 87 75 78 -27 -5 -51 -2 -68 18 -106 l23 -44 33 34 c19 19 46 51 60 70 26 35 27 35 48 16 26 -24 39 -14 83 63 46 80 144 172 294 276 131 91 210 157 246 207 10 15 18 28 16 28 -2 -1 -31 -27 -65 -59z"
       id="path10442" />
    <path
       d="M1214 983 c-64 -59 -76 -91 -85 -233 -4 -69 -9 -141 -11 -162 -1 -20 4 -44 12 -53 16 -19 125 -105 134 -105 3 0 27 13 53 29 63 38 165 51 212 27 17 -9 31 -23 31 -30 0 -7 -36 -29 -79 -49 -54 -24 -96 -52 -130 -86 -28 -28 -56 -51 -62 -51 -6 0 -33 20 -61 44 -217 190 -568 159 -828 -74 -22 -19 -11 -14 29 15 217 155 445 177 651 63 59 -33 154 -103 183 -135 17 -20 19 -19 96 58 82 83 186 143 291 170 28 7 50 18 50 25 0 17 -57 64 -105 85 -78 36 -223 21 -277 -28 -17 -15 -21 -15 -52 -1 -30 15 -34 22 -39 70 -11 85 -7 279 6 322 24 78 80 75 85 -5 4 -65 11 -89 26 -89 11 0 15 19 18 76 l3 76 -42 39 c-24 21 -48 39 -55 39 -7 0 -31 -17 -54 -37z"
       id="path10444" />
  </g>
</svg>
