<?xml version="1.0" encoding="UTF-8" standalone="no"?>
<svg
   xmlns:dc="http://purl.org/dc/elements/1.1/"
   xmlns:cc="http://creativecommons.org/ns#"
   xmlns:rdf="http://www.w3.org/1999/02/22-rdf-syntax-ns#"
   xmlns:svg="http://www.w3.org/2000/svg"
   xmlns="http://www.w3.org/2000/svg"
   xmlns:sodipodi="http://sodipodi.sourceforge.net/DTD/sodipodi-0.dtd"
   xmlns:inkscape="http://www.inkscape.org/namespaces/inkscape"
   version="1.0"
   width="547.000000pt"
   height="536.000000pt"
   viewBox="0 0 547.000000 536.000000"
   preserveAspectRatio="xMidYMid meet"
   id="svg20"
   sodipodi:docname="baali.svg"
   inkscape:version="1.0.1 (3bc2e813f5, 2020-09-07)">
  <defs
     id="defs24" />
  <sodipodi:namedview
     pagecolor="#ffffff"
     bordercolor="#666666"
     borderopacity="1"
     objecttolerance="10"
     gridtolerance="10"
     guidetolerance="10"
     inkscape:pageopacity="0"
     inkscape:pageshadow="2"
     inkscape:window-width="1600"
     inkscape:window-height="837"
     id="namedview22"
     showgrid="false"
     inkscape:zoom="0.9375"
     inkscape:cx="364.66667"
     inkscape:cy="357.33333"
     inkscape:window-x="-8"
     inkscape:window-y="-8"
     inkscape:window-maximized="1"
     inkscape:current-layer="svg20" />
  <metadata
     id="metadata2">
Created by potrace 1.16, written by Peter Selinger 2001-2019
<rdf:RDF>
  <cc:Work
     rdf:about="">
    <dc:format>image/svg+xml</dc:format>
    <dc:type
       rdf:resource="http://purl.org/dc/dcmitype/StillImage" />
  </cc:Work>
</rdf:RDF>
</metadata>
  <path
     id="path861"
     style="fill:#ffffff;stroke-width:1.06667"
     transform="scale(0.75)"
     d="m 364.68958,355.54792 c -23.72693,0.43095 -47.5659,-0.47066 -71.22185,0.80451 -19.78932,2.4428 -29.28753,28.00322 -20.34484,44.68924 4.63074,12.44259 18.31787,18.0938 30.88537,16.50772 43.42539,0.0398 87.39632,0.61682 130.21333,0.58447 23.71388,-2.73996 33.29052,-36.08803 18.09656,-53.05411 -8.78497,-12.57975 -25.51164,-9.52966 -38.76382,-9.73375 -16.28825,0.0673 -32.5765,0.13461 -48.86475,0.20192 z m 117.54375,-57.78334 c -14.52205,0.51319 -30.96613,7.46218 -35.06875,22.69167 -5.31321,11.99053 -8.85156,24.77521 -14.39791,36.73125 -6.5074,13.58752 1.12285,31.48811 15.84444,35.41156 14.60946,2.98015 33.56253,2.19093 42.27847,-11.96989 3.63795,-7.88413 5.71072,-16.38798 9.2801,-24.3813 3.66965,-13.185 14.18008,-25.6565 9.95949,-39.97912 -3.61546,-11.92875 -15.67326,-19.29827 -27.89584,-18.50417 z m -96.41458,-90.61875 c -17.96145,0.78487 -33.43296,18.40326 -29.79167,36.50834 1.09265,10.74158 9.28103,18.72938 18.48136,23.25333 26.80571,19.51189 55.9656,35.56644 83.08948,54.53833 14.09082,8.31148 33.62847,-0.46774 37.54999,-16.17708 4.25992,-11.71813 6.5935,-26.77992 -3.80945,-35.99093 -17.55118,-12.84855 -36.63074,-23.91081 -54.65463,-36.00839 -13.81226,-8.08612 -26.37237,-19.24999 -41.60258,-25.00068 -3.00484,-0.85944 -6.13948,-1.23814 -9.2625,-1.12292 z m -55.08542,2.04167 c -25.18925,16.26293 -50.05997,33.04288 -75.60359,48.71679 -10.60536,7.18869 -23.8509,15.53793 -23.71143,30.02097 -0.78656,13.45164 10.39273,23.62627 22.39606,27.32191 10.71334,5.93513 24.13738,4.66636 33.52093,-3.23147 27.74979,-18.03227 55.45164,-36.26483 83.09146,-54.37004 13.9448,-9.78589 11.93228,-33.13313 -2.9337,-41.06561 -11.3116,-6.3674 -23.6617,-14.07625 -36.75973,-7.39255 z m -86.87291,82.76458 c -12.67264,7.51358 -26.12726,20.32006 -24.00834,36.5125 2.09977,12.66887 9.72253,23.62912 12.41667,36.16459 4.42573,9.28748 7.0846,20.85993 17.67606,25.22036 9.81242,4.23436 21.27145,4.73918 31.65872,3.12186 14.8553,-3.85251 22.20027,-21.90474 15.60687,-35.44192 -6.86932,-17.50215 -14.12727,-34.88978 -21.0013,-52.38459 -5.26219,-12.33649 -19.9708,-18.01037 -32.34868,-13.1928 z M 625.08125,-3.2895829 C 610.20959,-2.161344 599.91793,10.008489 587.46875,16.727083 576.76105,24.903623 564.56976,30.837879 553.525,38.529597 529.86925,53.77695 506.27715,69.487506 482.83541,84.839583 455.89586,70.285007 426.23441,61.317286 395.83725,57.846287 349.93187,51.991483 302.56288,59.809109 260.35986,78.46896 c -4.65108,1.462781 -9.54661,6.807716 -14.07168,6.010186 C 215.05791,63.239206 182.98343,43.303273 151.22307,22.90106 138.32018,14.19601 125.8109,4.0829536 111.07847,-1.2492843 93.879125,-6.7279061 74.97888,9.9940684 78.741188,27.76517 c 5.456352,20.504973 15.878828,38.915297 22.637542,59.022588 5.62007,13.530212 9.77965,27.525012 15.48417,40.922582 6.28292,16.76705 13.94659,33.01395 19.82231,49.93319 1.84131,5.62867 7.45552,11.47117 2.89188,17.0023 -9.37504,17.22597 -14.96422,36.27973 -21.14882,54.8128 -5.21298,24.81514 -8.4314,50.32038 -6.64285,75.70387 -19.475721,13.83608 -40.503217,25.25576 -59.705825,39.5037 -6.618895,5.23126 -14.230577,8.61326 -21.450428,12.73172 -9.355749,9.32941 -25.3588353,12.26894 -29.2548673,26.43116 -6.4174826,15.46663 6.5994112,33.53861 22.9715333,34.07092 41.083721,1.94556 82.660417,0.60114 123.222917,2.10833 18.56581,30.88425 44.23013,57.36593 73.38001,78.37318 18.21028,13.33226 39.10786,22.41504 59.86644,30.89795 5.70429,10.68435 10.1389,22.69704 13.78063,34.4622 7.06437,15.27613 12.78772,31.21929 18.02708,47.26876 9.81158,18.91168 15.11283,39.90954 24.15001,59.22916 3.59149,12.07536 9.84446,25.97009 23.77109,28.02906 13.7394,2.74839 25.96547,-7.68502 30.02058,-20.24573 5.7404,-16.19686 12.43639,-32.09426 18.41352,-48.23861 9.06164,-22.50657 17.95166,-45.15887 26.61564,-67.7718 3.75092,-10.9173 7.24799,-22.01977 12.66875,-32.30208 29.84891,-10.74414 58.37192,-26.37188 82.19792,-47.56876 7.0248,-6.9655 17.37265,-10.65809 21.37499,-20.30416 11.58804,-13.22115 22.87828,-27.05471 31.7,-42.17291 42.15487,-1.17216 84.77126,0.10341 127.14168,-2.04168 16.17034,-2.06569 26.62724,-21.79328 18.44229,-36.08252 -5.00547,-11.01384 -17.74523,-14.54163 -26.48397,-21.87372 -21.62842,-13.01377 -41.96167,-28.1001 -63.51874,-41.16459 -6.91045,-4.21598 -13.3319,-9.04635 -20.31042,-13.08958 -1.77311,-27.91868 -0.23197,-56.95511 -8.46459,-84.22083 -5.83972,-15.73163 -10.54858,-32.02376 -18.89583,-46.68542 -2.87043,-4.18226 -3.02354,-8.21309 -0.25558,-12.50892 6.1661,-15.52737 12.46767,-31.75635 18.7813,-47.5623 8.97494,-24.02059 18.50632,-47.867351 27.97428,-71.620447 4.69048,-13.244261 12.24008,-25.856651 14.00208,-39.991666 0.4224,-14.5808573 -12.364,-26.9021074 -26.86666,-26.1124999 z m -12.61666,5.770833 c 0.19488,-0.1061077 0.9095,-0.1549248 0,0 z M 596.22083,17.147917 c -0.0119,-0.01796 0.0841,-0.248613 0,0 z m -20.48542,14.422916 c -0.11818,-0.15511 0.55044,-1.38731 0,0 z m 58.40417,39.375001 c -0.78372,1.151855 1.36826,-2.227637 0,0 z m -500.75,15.43125 c -0.616,-2.256373 -0.68631,-4.016963 0,0 z m 353.43958,-1.422918 c -0.10078,0.02021 -0.0269,-0.0036 0,0 z m -24.39375,23.812504 c 0.22686,-2.20726 0.32197,-1.92872 0,0 z m -283.64374,13.5625 c 0.0605,0.072 -0.29107,-0.13162 0,0 z m -57.95417,6.56666 c -1.83333,-1.44792 -3.8336,-3.6604 0,0 z m 77.3875,4.77292 c -2.34003,-0.24558 -2.52493,-0.42212 0,0 z m -2.73125,0.9625 c 24.31537,17.13291 50.19807,31.86641 74.57576,48.90606 23.3337,14.28472 45.97968,29.71273 68.96381,44.49597 10.88198,8.1792 25.7336,16.05312 38.97104,8.46397 18.64726,-12.05494 37.34257,-24.07846 55.91057,-36.31802 33.73901,-21.54936 67.11051,-43.67417 100.58507,-65.43548 -5.92806,13.05305 -10.57183,26.60328 -15.775,39.96458 -5.86058,14.10426 -10.53886,28.68373 -16.65926,42.70985 -6.23747,16.63264 -13.58449,32.87829 -19.19074,49.79224 -3.19851,11.89829 -11.67979,22.5795 -10.76667,35.32291 1.30721,14.50876 15.40457,21.12268 25.99475,28.39889 18.97201,13.27898 39.00998,24.88572 58.33025,37.62612 -33.15427,0.42164 -66.38594,-0.0594 -99.49169,0.92644 -13.35323,0.63887 -21.66502,12.95945 -24.05831,25.0423 -12.99112,33.59642 -25.34376,67.04501 -38.9875,100.20625 -5.20843,15.04141 -11.4883,29.71322 -17.1875,44.58542 -3.89662,9.96877 -7.8447,19.86215 -11.88958,29.8375 -8.51438,-21.84704 -17.68429,-43.61132 -25.24685,-65.72263 -4.16353,-11.49604 -9.30769,-22.69426 -13.85388,-34.05547 -2.16385,-9.90848 -7.71923,-18.34854 -10.66808,-28.00027 -7.81499,-19.69566 -14.80751,-39.39822 -23.19537,-58.84794 -5.63086,-12.20609 -20.2517,-14.51438 -32.31479,-13.46017 -28.48966,-0.16979 -56.9793,-0.33956 -85.46894,-0.50935 24.59323,-16.02862 50.11595,-30.82737 73.51874,-48.59167 11.11555,-9.39162 12.23997,-26.21561 4.9667,-38.26336 -9.69512,-26.30255 -19.85433,-52.40783 -30.67086,-78.26789 -8.25475,-23.26796 -17.27663,-46.25668 -26.79584,-69.06041 z m 17.05624,45.75417 c 0.16328,0.27906 -0.58849,-0.84938 0,0 z m 373.57501,8.45416 c 1.05342,1.03116 -0.83226,-0.71707 0,0 z m -448.96875,14.54376 c -0.007,-0.063 0.0685,-0.33125 0,0 z m 245.55208,28.06457 c -0.72501,0.14619 2.06684,-0.5548 0,0 z m 249.43333,104.85417 c 0.34635,0.1054 -0.53333,-0.11196 0,0 z m 16.18542,14.54793 c 1.23329,4.0139 -1.68229,-3.84274 0,0 z M 44.5875,371.96459 c 0.147121,-0.0591 1.147009,-0.11872 0,0 z m -22.152083,13.26874 c 2.279366,-0.56294 4.06324,-0.68309 0,0 z m 280.743753,57.41668 c 8.5074,2.70977 -1.13725,-0.10328 0,0 z m 23.41041,30.49165 c 1.13156,1.70391 -2.06602,-2.76471 0,0 z m 209.66876,22.93959 c -10.33102,2.93416 4.71568,-1.77774 0,0 z M 430.69167,589.0625 c -4.15221,4.18459 1.76414,-2.05926 0,0 z m -130.44166,2.6625 c -2.55339,-2.68617 -2.59308,-2.84669 0,0 z m 9.88124,30.9375 c -0.0887,-0.25923 -0.18904,-1.49033 0,0 z m 83.68125,63.90209 c -0.17111,1.20769 0.17886,-1.76362 0,0 z" />
  <g
     transform="translate(0.000000,536.000000) scale(0.100000,-0.100000)"
     fill="#000000"
     stroke="none"
     id="g18">
    <path
       d="M768 5184 c2 -13 8 -24 13 -24 5 0 9 -13 9 -29 0 -16 4 -31 8 -33 4 -1 18 -32 31 -68 13 -36 27 -67 30 -70 4 -3 18 -39 31 -80 13 -41 27 -77 30 -80 4 -3 17 -36 30 -75 13 -38 27 -74 32 -79 4 -6 8 -18 8 -28 0 -10 5 -18 10 -18 6 0 10 -13 10 -30 0 -16 3 -30 8 -30 4 0 18 -35 31 -78 14 -42 27 -79 30 -82 9 -8 28 -51 43 -95 7 -22 15 -42 19 -45 3 -3 16 -40 30 -82 13 -43 27 -78 32 -78 4 0 7 -9 7 -20 0 -11 5 -20 10 -20 6 0 10 -11 10 -24 0 -14 4 -27 9 -30 18 -12 20 -67 3 -106 -9 -22 -20 -40 -24 -40 -5 0 -8 -9 -8 -20 0 -11 -3 -20 -8 -20 -8 0 -26 -38 -44 -97 -7 -24 -16 -43 -19 -43 -3 0 -11 -19 -18 -42 -7 -24 -17 -53 -22 -66 -5 -13 -9 -32 -9 -42 0 -11 -4 -20 -8 -20 -5 0 -14 -30 -21 -67 -7 -38 -17 -90 -22 -116 -5 -26 -9 -79 -9 -117 0 -40 -4 -70 -10 -70 -6 0 -10 -33 -10 -80 0 -47 4 -80 10 -80 6 0 10 -27 10 -61 0 -64 -3 -70 -60 -109 -12 -8 -31 -23 -42 -32 -12 -10 -25 -18 -29 -18 -4 0 -14 -6 -21 -12 -20 -19 -50 -38 -70 -44 -10 -4 -18 -10 -18 -15 0 -5 -6 -9 -14 -9 -7 0 -19 -6 -25 -14 -7 -8 -26 -21 -44 -30 -49 -25 -74 -41 -116 -76 -13 -11 -28 -20 -32 -20 -4 0 -19 -10 -31 -23 -13 -13 -52 -38 -86 -57 -34 -18 -62 -37 -62 -41 0 -5 -9 -9 -20 -9 -11 0 -20 -4 -20 -8 0 -5 -19 -19 -42 -32 -24 -13 -52 -32 -62 -42 -11 -10 -26 -18 -33 -18 -7 0 -13 -4 -13 -10 0 -5 -9 -10 -20 -10 -11 0 -20 -4 -20 -10 0 -7 182 -10 526 -10 407 0 528 -3 537 -12 7 -7 23 -33 36 -58 43 -79 46 -84 64 -104 9 -11 17 -23 17 -28 0 -4 16 -25 35 -45 19 -20 35 -41 35 -46 0 -11 246 -257 257 -257 5 0 26 -16 46 -35 20 -19 41 -35 45 -35 5 0 17 -9 29 -19 11 -11 40 -29 64 -41 24 -13 46 -26 49 -30 7 -11 117 -63 168 -79 23 -8 42 -18 42 -23 0 -4 7 -8 15 -8 8 0 23 -4 33 -9 9 -5 36 -15 59 -21 32 -10 44 -20 53 -44 7 -17 16 -39 21 -48 5 -10 9 -25 9 -33 0 -8 4 -15 9 -15 4 0 19 -34 32 -75 13 -41 27 -75 32 -75 4 0 7 -13 7 -30 0 -16 5 -30 10 -30 6 0 10 -7 10 -15 0 -8 5 -24 10 -35 22 -44 27 -57 41 -102 7 -27 16 -48 19 -48 4 0 13 -23 20 -51 8 -27 18 -52 22 -55 4 -3 8 -16 8 -30 0 -13 5 -24 10 -24 6 0 10 -8 10 -18 0 -10 4 -22 9 -27 5 -6 14 -28 21 -50 7 -22 16 -42 19 -45 4 -3 17 -36 29 -75 29 -87 64 -178 71 -185 4 -3 12 -23 19 -45 24 -72 34 -95 43 -95 5 0 9 9 9 19 0 11 5 23 10 26 5 3 10 17 10 30 0 13 5 27 10 30 5 3 10 15 10 25 0 10 4 20 9 22 5 2 28 59 51 128 23 69 46 127 50 130 4 3 17 37 30 75 13 39 26 72 29 75 4 3 17 37 30 75 13 39 26 72 30 75 7 5 60 151 68 187 3 13 9 23 14 23 5 0 9 14 9 30 0 17 3 30 8 30 4 0 18 34 31 75 13 41 27 75 31 75 4 0 15 24 24 53 16 50 19 53 64 66 79 22 112 35 112 43 0 4 7 8 15 8 8 0 23 4 33 9 9 5 49 24 87 41 39 18 72 35 75 40 3 4 25 17 49 30 24 12 53 30 64 41 12 10 25 19 30 19 5 0 17 8 26 18 9 10 31 29 50 42 19 13 57 46 85 72 28 26 56 48 63 48 7 0 13 6 13 13 0 7 27 41 60 75 33 35 60 66 60 71 0 4 14 22 30 39 17 18 30 36 30 40 0 5 8 17 18 28 10 10 34 48 52 84 19 36 40 71 47 78 9 9 129 12 532 12 287 0 521 4 521 8 0 5 -20 19 -45 32 -25 13 -45 26 -45 29 0 3 -20 17 -45 30 -25 13 -45 28 -45 32 0 5 -7 9 -15 9 -8 0 -15 3 -15 8 0 4 -23 18 -50 31 -28 14 -50 29 -50 33 0 4 -7 8 -15 8 -8 0 -15 4 -15 8 0 5 -19 19 -42 32 -24 13 -52 33 -63 43 -11 10 -29 23 -40 28 -24 11 -49 26 -92 56 -17 13 -36 23 -42 23 -6 0 -11 4 -11 9 0 5 -8 11 -17 15 -21 6 -51 25 -71 44 -7 6 -17 12 -21 12 -4 0 -17 8 -29 18 -11 9 -30 24 -42 32 -12 8 -29 20 -38 26 -14 10 -17 41 -18 220 -1 150 -6 236 -19 304 -9 52 -19 110 -22 128 -3 17 -9 32 -14 32 -5 0 -9 9 -9 20 0 10 -4 29 -9 42 -5 13 -15 43 -22 68 -7 25 -16 47 -19 50 -6 6 -24 44 -40 88 -7 17 -16 32 -21 32 -5 0 -9 11 -9 24 0 13 -4 26 -9 28 -5 2 -18 19 -28 38 -20 35 -20 35 0 95 11 33 24 62 29 63 4 2 8 15 8 28 0 13 3 24 8 24 4 0 18 36 32 80 14 44 27 80 31 80 3 0 16 33 29 73 14 39 27 74 31 77 4 3 22 50 40 105 19 55 36 102 40 105 3 3 12 23 19 45 7 22 16 45 20 50 4 6 13 31 21 58 7 26 16 47 19 47 4 0 13 23 20 51 8 27 18 52 22 55 4 3 8 16 8 30 0 13 3 24 8 24 8 0 26 38 44 98 7 23 16 42 20 42 5 0 8 14 8 30 0 17 5 30 10 30 6 0 10 7 10 15 0 8 -3 15 -6 15 -12 0 -64 -34 -64 -42 0 -4 -7 -8 -15 -8 -8 0 -15 -4 -15 -9 0 -5 -14 -14 -30 -21 -16 -7 -30 -16 -30 -20 0 -4 -13 -13 -30 -20 -16 -7 -30 -16 -30 -21 0 -5 -5 -9 -10 -9 -6 0 -19 -8 -30 -18 -10 -10 -42 -29 -69 -42 -28 -14 -51 -28 -51 -32 0 -5 -7 -8 -15 -8 -8 0 -15 -4 -15 -10 0 -5 -7 -10 -15 -10 -8 0 -15 -4 -15 -10 0 -5 -6 -10 -12 -10 -7 0 -26 -11 -42 -25 -16 -13 -37 -27 -47 -30 -11 -4 -19 -11 -19 -16 0 -5 -7 -9 -16 -9 -9 0 -24 -8 -33 -18 -9 -10 -36 -29 -61 -43 -25 -13 -52 -31 -60 -39 -8 -8 -35 -26 -60 -39 -25 -14 -47 -28 -50 -31 -3 -4 -18 -14 -35 -23 -16 -8 -43 -27 -60 -41 -16 -14 -42 -31 -57 -37 -15 -6 -28 -15 -28 -20 0 -5 -9 -9 -20 -9 -11 0 -20 -4 -20 -10 0 -5 -11 -10 -25 -10 -14 0 -25 5 -25 10 0 6 -9 10 -20 10 -11 0 -20 3 -20 8 0 4 -27 18 -60 32 -33 14 -60 28 -60 31 0 3 -33 16 -72 29 -40 14 -75 27 -78 30 -5 7 -64 23 -150 40 -30 7 -71 16 -91 21 -20 5 -59 9 -88 9 -28 0 -51 5 -51 10 0 6 -63 10 -170 10 -107 0 -170 -4 -170 -10 0 -5 -23 -10 -51 -10 -29 0 -68 -4 -88 -9 -20 -5 -81 -20 -136 -32 -55 -12 -102 -25 -105 -28 -3 -4 -38 -17 -77 -31 -40 -13 -73 -26 -73 -29 0 -3 -27 -17 -60 -31 -33 -14 -60 -28 -60 -32 0 -5 -7 -8 -15 -8 -8 0 -15 -4 -15 -9 0 -15 -50 -19 -65 -5 -7 8 -21 14 -29 14 -9 0 -16 4 -16 8 0 5 -19 19 -42 32 -24 13 -52 32 -62 42 -11 10 -24 18 -29 18 -5 0 -17 8 -26 19 -9 10 -38 30 -66 44 -27 14 -62 36 -77 49 -15 12 -49 34 -75 48 -27 14 -57 33 -67 42 -11 10 -25 18 -30 18 -6 0 -27 13 -46 30 -19 16 -47 35 -62 41 -16 6 -28 15 -28 20 0 5 -7 9 -16 9 -9 0 -24 8 -33 19 -9 10 -36 28 -61 41 -25 12 -47 26 -50 29 -3 4 -21 18 -40 31 -19 13 -37 27 -40 30 -3 3 -25 16 -50 29 -25 14 -47 28 -50 31 -3 4 -19 14 -36 23 -31 16 -31 16 -26 -9z m412 -436 c0 -4 7 -8 15 -8 8 0 15 -4 15 -9 0 -5 8 -11 18 -14 22 -7 71 -37 96 -59 11 -10 26 -18 33 -18 7 0 13 -4 13 -10 0 -5 7 -10 15 -10 8 0 15 -4 15 -10 0 -5 7 -10 15 -10 8 0 15 -4 15 -9 0 -5 14 -14 30 -21 17 -7 30 -16 30 -21 0 -5 7 -9 16 -9 9 0 24 -8 33 -18 9 -10 36 -29 61 -43 25 -13 47 -26 50 -29 3 -3 21 -17 40 -30 19 -13 37 -27 40 -30 3 -3 25 -16 50 -29 25 -14 51 -31 58 -38 7 -7 17 -13 22 -13 5 0 15 -6 22 -12 7 -7 33 -24 58 -37 25 -14 52 -33 61 -43 9 -10 22 -18 29 -18 7 0 20 -8 29 -17 9 -10 25 -23 36 -29 50 -27 70 -40 87 -54 9 -9 45 -31 80 -49 34 -19 68 -40 76 -47 7 -8 17 -14 22 -14 5 0 19 -10 32 -22 13 -13 43 -34 68 -48 25 -13 54 -32 64 -42 11 -10 26 -18 33 -18 7 0 13 -4 13 -10 0 -5 6 -10 13 -10 7 0 23 -9 35 -20 12 -11 26 -20 32 -20 5 0 10 -4 10 -10 0 -5 5 -10 11 -10 6 0 24 -10 41 -21 17 -12 33 -18 37 -13 3 5 18 15 34 23 15 8 27 18 27 23 0 4 7 8 16 8 9 0 24 8 33 19 9 10 36 28 60 40 24 13 53 31 64 42 12 10 26 19 31 19 6 0 25 12 41 26 17 14 44 33 60 41 17 9 32 19 35 23 3 3 25 17 50 31 25 13 51 29 58 36 6 6 21 15 32 18 11 3 20 10 20 15 0 5 9 12 20 15 11 4 31 16 43 28 12 12 42 33 67 46 25 14 47 27 50 31 3 3 39 26 80 50 41 25 81 50 88 57 7 7 17 13 22 13 5 0 20 11 34 25 14 14 32 25 41 25 8 0 15 4 15 9 0 5 8 12 19 16 10 3 31 16 47 30 15 13 47 34 71 46 24 12 43 26 43 31 0 4 7 8 15 8 9 0 25 8 36 18 10 11 32 25 47 33 15 8 35 22 46 31 10 9 31 22 47 28 16 7 29 16 29 20 0 4 14 13 30 20 17 7 30 16 30 21 0 4 9 11 20 14 11 3 26 12 32 18 25 25 88 56 88 45 0 -15 -23 -81 -31 -88 -3 -3 -16 -40 -30 -82 -13 -43 -27 -78 -31 -78 -5 0 -8 -9 -8 -19 0 -11 -3 -21 -8 -23 -4 -1 -23 -50 -42 -108 -19 -58 -37 -107 -40 -110 -13 -12 -30 -51 -30 -69 0 -11 -4 -23 -10 -26 -6 -3 -10 -15 -10 -26 0 -10 -3 -19 -8 -19 -4 0 -18 -36 -32 -80 -14 -44 -28 -80 -32 -80 -5 0 -8 -9 -8 -19 0 -11 -4 -23 -10 -26 -6 -3 -10 -17 -10 -30 0 -13 -4 -26 -8 -29 -5 -3 -19 -38 -32 -78 -13 -40 -27 -75 -30 -78 -7 -6 -41 -98 -47 -127 -3 -13 -9 -23 -12 -23 -4 0 -18 -33 -31 -72 -14 -40 -27 -75 -30 -78 -3 -3 -12 -25 -20 -50 -7 -25 -16 -49 -20 -55 -3 -5 -17 -44 -30 -85 -14 -41 -27 -77 -31 -80 -15 -11 -20 -50 -7 -50 7 0 27 -12 43 -26 17 -14 43 -33 60 -41 16 -9 35 -22 43 -29 7 -8 17 -14 22 -14 5 0 19 -10 32 -23 13 -12 44 -33 71 -47 26 -14 47 -28 47 -32 0 -5 7 -8 15 -8 8 0 15 -4 15 -10 0 -5 6 -10 13 -10 10 0 163 -94 177 -110 9 -9 45 -30 63 -36 9 -4 17 -10 17 -14 0 -4 13 -13 30 -20 16 -7 40 -21 52 -31 35 -28 41 -32 78 -53 33 -19 45 -27 73 -52 7 -5 32 -21 57 -35 25 -13 47 -27 50 -30 3 -4 27 -21 54 -38 l50 -31 -676 0 -676 0 -18 -57 c-10 -32 -20 -60 -24 -63 -5 -5 -56 -143 -68 -185 -3 -11 -8 -22 -12 -25 -4 -3 -22 -50 -41 -105 -18 -55 -37 -102 -40 -105 -3 -3 -16 -36 -29 -75 -13 -38 -26 -72 -30 -75 -4 -3 -18 -36 -31 -75 -13 -38 -27 -71 -31 -73 -5 -2 -8 -17 -8 -33 0 -16 -4 -29 -8 -29 -5 0 -15 -19 -22 -42 -8 -24 -17 -47 -20 -53 -4 -5 -13 -31 -21 -57 -7 -27 -16 -48 -19 -48 -4 0 -13 -23 -20 -51 -8 -27 -18 -52 -22 -55 -4 -3 -8 -16 -8 -30 0 -13 -3 -24 -8 -24 -8 0 -22 -31 -44 -95 -7 -22 -15 -42 -18 -45 -3 -3 -16 -39 -30 -80 -13 -41 -27 -79 -31 -85 -4 -5 -13 -29 -20 -52 -6 -24 -15 -43 -18 -43 -3 0 -17 -36 -31 -80 -14 -44 -28 -80 -31 -80 -8 0 -23 35 -40 93 -7 26 -17 47 -21 47 -4 0 -8 8 -8 18 0 10 -4 22 -9 27 -4 6 -23 55 -42 110 -18 55 -36 102 -39 105 -3 3 -16 37 -29 75 -14 39 -27 72 -30 75 -6 5 -39 89 -49 125 -3 11 -8 22 -11 25 -4 3 -22 51 -41 108 -18 56 -37 102 -42 102 -4 0 -8 14 -8 30 0 17 -4 30 -9 30 -4 0 -19 34 -32 75 -13 41 -27 75 -31 75 -5 0 -8 7 -8 15 0 9 -9 35 -20 57 -11 23 -20 50 -20 60 0 10 -4 18 -10 18 -5 0 -10 8 -10 18 0 10 -4 22 -8 28 -5 5 -19 43 -32 84 -14 41 -27 77 -31 80 -3 3 -12 26 -20 53 -7 26 -16 47 -19 47 -4 0 -13 23 -20 50 -7 27 -16 50 -20 50 -3 0 -12 21 -19 47 -8 27 -19 58 -24 71 l-10 22 -671 0 -670 0 50 31 c27 17 51 34 54 38 3 3 25 17 50 30 25 14 47 27 50 30 8 9 100 71 106 71 5 0 19 11 49 38 7 6 19 12 25 12 6 0 18 6 25 13 27 23 40 33 55 40 19 9 53 30 60 37 14 16 167 110 178 110 6 0 12 5 12 10 0 6 7 10 15 10 8 0 15 3 15 8 0 4 21 18 48 32 26 14 57 35 70 47 13 13 27 23 32 23 5 0 15 6 22 14 8 7 27 20 43 29 17 8 44 27 60 41 17 14 33 26 38 26 4 0 7 9 7 20 0 11 -4 20 -8 20 -5 0 -15 23 -22 51 -8 27 -18 52 -22 55 -4 3 -8 13 -8 23 0 9 -9 36 -20 59 -11 22 -20 48 -20 57 0 8 -3 15 -8 15 -4 0 -18 36 -32 80 -14 44 -28 80 -32 80 -5 0 -8 6 -8 13 0 7 -9 32 -20 55 -11 22 -20 48 -20 57 0 8 -3 15 -7 15 -5 0 -19 35 -32 78 -13 42 -28 81 -33 87 -4 5 -8 17 -8 27 0 10 -4 18 -10 18 -5 0 -10 14 -10 30 0 17 -3 30 -8 30 -4 0 -18 33 -32 73 -13 39 -27 74 -30 77 -3 3 -17 38 -30 78 -14 39 -27 72 -31 72 -3 0 -21 46 -40 103 -18 56 -37 104 -41 105 -5 2 -8 17 -8 33 0 16 -4 29 -8 29 -5 0 -15 19 -22 43 -7 23 -17 46 -22 52 -4 5 -8 17 -8 27 0 10 -4 18 -8 18 -4 0 -14 21 -21 48 -8 26 -16 53 -19 60 -2 7 12 3 37 -10 23 -12 41 -25 41 -30z"
       id="path4" />
    <path
       d="M1310 4527 c0 -7 4 -17 8 -22 5 -6 15 -30 22 -55 8 -25 17 -47 20 -50 3 -3 11 -23 18 -45 22 -64 36 -95 44 -95 5 0 8 -13 8 -30 0 -16 3 -30 8 -30 4 0 18 -35 31 -78 13 -42 28 -81 33 -86 4 -6 8 -18 8 -28 0 -10 5 -18 10 -18 6 0 10 -10 10 -23 0 -13 4 -27 9 -33 5 -5 14 -27 21 -49 7 -22 16 -42 19 -45 4 -3 17 -38 31 -77 13 -40 27 -73 32 -73 4 0 8 -10 8 -23 0 -13 4 -27 9 -32 4 -6 24 -55 42 -110 19 -55 36 -102 39 -105 5 -5 38 -92 48 -125 3 -11 8 -22 12 -25 4 -3 15 -29 24 -57 19 -57 33 -65 56 -33 8 11 19 20 25 20 5 0 23 11 39 25 16 13 37 27 47 30 11 4 19 11 19 16 0 5 7 9 15 9 8 0 15 5 15 10 0 6 6 10 14 10 8 0 16 3 18 8 4 9 57 41 81 49 9 3 17 9 17 14 0 5 7 9 15 9 8 0 15 4 15 9 0 5 16 16 35 25 19 9 40 23 48 30 7 8 33 24 58 36 24 13 51 30 59 40 8 9 35 27 60 41 25 13 53 31 63 40 10 9 38 27 62 39 53 27 56 42 15 67 -16 9 -30 20 -30 23 0 3 -22 17 -50 31 -27 13 -50 27 -50 32 0 4 -7 7 -15 7 -8 0 -15 4 -15 8 0 5 -22 21 -50 36 -27 15 -55 32 -63 39 -7 7 -23 18 -35 25 -12 6 -32 18 -44 25 -12 6 -28 18 -36 25 -8 7 -28 20 -45 28 -16 9 -39 25 -50 35 -12 10 -27 19 -34 19 -7 0 -13 3 -13 8 0 4 -20 18 -45 31 -25 13 -45 28 -45 32 0 5 -7 9 -15 9 -8 0 -15 5 -15 10 0 6 -6 10 -13 10 -7 0 -22 8 -33 18 -10 10 -39 29 -64 42 -25 14 -54 33 -64 43 -11 9 -26 17 -33 17 -7 0 -13 4 -13 9 0 5 -8 11 -17 14 -27 8 -76 40 -94 60 -9 9 -22 17 -29 17 -7 0 -20 8 -29 18 -9 10 -35 29 -58 42 -24 13 -43 27 -43 32 0 4 -7 8 -15 8 -8 0 -15 3 -15 8 0 4 -23 18 -50 31 -28 14 -50 29 -50 33 0 4 -4 8 -10 8 -5 0 -10 -6 -10 -13z"
       id="path6" />
    <path
       d="M4150 4533 c0 -5 -22 -20 -49 -32 -27 -13 -62 -34 -77 -48 -16 -14 -42 -32 -59 -40 -16 -9 -32 -19 -35 -23 -3 -3 -25 -17 -50 -31 -25 -13 -51 -30 -58 -36 -7 -7 -34 -25 -60 -40 -26 -15 -48 -31 -50 -35 -2 -4 -10 -8 -18 -8 -8 0 -26 -11 -40 -25 -14 -14 -29 -25 -33 -25 -4 0 -21 -11 -37 -25 -16 -14 -35 -25 -41 -25 -7 0 -13 -4 -13 -10 0 -5 -7 -10 -15 -10 -8 0 -15 -4 -15 -8 0 -5 -30 -24 -66 -43 -36 -19 -74 -42 -84 -51 -11 -10 -24 -18 -30 -18 -5 0 -10 -4 -10 -9 0 -5 -13 -14 -30 -21 -16 -7 -30 -16 -30 -20 0 -4 -13 -13 -30 -20 -16 -7 -30 -16 -30 -21 0 -5 -7 -9 -15 -9 -8 0 -15 -4 -15 -8 0 -5 -27 -23 -60 -42 -33 -19 -60 -37 -60 -42 0 -4 -9 -8 -20 -8 -11 0 -20 -4 -20 -8 0 -5 -20 -19 -45 -32 -25 -13 -45 -26 -45 -30 0 -4 -13 -13 -30 -20 -38 -16 -39 -42 -2 -61 15 -8 33 -20 40 -26 7 -7 17 -13 22 -13 5 0 15 -6 22 -13 7 -7 34 -25 60 -40 26 -15 53 -33 60 -40 7 -7 33 -24 58 -38 25 -13 51 -30 58 -36 7 -7 28 -20 47 -29 19 -9 35 -20 35 -25 0 -5 7 -9 15 -9 8 0 15 -3 15 -8 0 -4 21 -18 48 -32 26 -13 54 -32 62 -41 8 -9 35 -26 59 -39 25 -12 51 -28 58 -36 8 -7 27 -21 43 -31 17 -9 30 -21 30 -25 0 -20 19 -5 30 25 28 72 35 87 42 87 5 0 8 11 8 24 0 14 4 27 8 30 4 3 14 28 22 55 7 28 16 51 20 51 3 0 12 21 19 48 8 26 17 52 21 57 4 6 18 42 31 80 13 39 26 72 29 75 3 3 16 37 29 75 13 39 27 72 31 75 4 3 17 37 30 75 13 39 26 72 29 75 4 3 26 64 50 135 25 72 48 132 52 135 3 3 17 37 30 75 13 39 26 72 29 75 11 10 42 111 36 117 -3 4 -6 2 -6 -4z"
       id="path8" />
    <path
       d="M2712 3600 c-12 -11 -24 -20 -27 -20 -4 0 -26 -13 -50 -30 -24 -16 -48 -30 -54 -30 -6 0 -11 -4 -11 -8 0 -5 -20 -19 -45 -32 -25 -13 -45 -27 -45 -32 0 -4 -7 -8 -15 -8 -8 0 -15 -4 -15 -9 0 -5 -13 -14 -30 -21 -16 -7 -30 -16 -30 -21 0 -5 -7 -9 -16 -9 -9 0 -24 -8 -33 -19 -9 -10 -36 -28 -60 -40 -24 -13 -52 -31 -63 -40 -10 -10 -31 -24 -46 -32 -15 -8 -33 -20 -40 -27 -8 -7 -28 -20 -45 -29 -18 -9 -34 -19 -37 -23 -3 -3 -25 -17 -50 -31 -25 -13 -51 -29 -58 -36 -6 -6 -21 -15 -32 -18 -11 -3 -20 -14 -20 -22 0 -26 43 -153 52 -153 4 0 8 -11 8 -25 0 -14 4 -25 8 -25 5 0 19 -34 32 -75 13 -41 26 -75 30 -75 3 0 13 -23 20 -51 8 -27 18 -52 22 -55 4 -3 8 -14 8 -25 0 -10 5 -19 10 -19 6 0 10 -11 10 -25 l0 -25 644 0 c697 0 656 -3 656 51 0 10 4 19 8 19 5 0 15 19 22 43 7 23 17 46 22 52 4 5 8 17 8 27 0 10 5 18 10 18 6 0 10 11 10 24 0 14 4 27 8 30 4 3 14 28 22 55 7 28 17 51 22 51 4 0 8 11 8 25 0 14 5 25 10 25 6 0 10 8 10 18 0 10 3 22 7 26 8 8 33 76 33 92 0 6 -22 21 -50 34 -27 13 -50 27 -50 30 0 4 -13 13 -30 20 -16 7 -30 16 -30 20 0 4 -13 13 -29 20 -16 6 -37 19 -47 28 -11 9 -31 23 -46 31 -15 8 -36 21 -46 30 -18 16 -23 19 -102 62 -25 13 -55 34 -67 46 -12 12 -32 24 -43 28 -11 3 -20 11 -20 16 0 5 -7 9 -16 9 -9 0 -24 8 -33 18 -9 9 -28 23 -43 31 -16 8 -28 18 -28 23 0 4 -5 8 -11 8 -6 0 -30 14 -54 30 -24 17 -46 30 -50 30 -3 0 -15 9 -27 20 -12 11 -25 20 -28 20 -3 0 -16 -9 -28 -20z"
       id="path10" />
    <path
       d="M1750 2976 c-19 -11 -43 -28 -53 -37 -10 -9 -38 -27 -62 -39 -25 -13 -45 -27 -45 -32 0 -4 -7 -8 -16 -8 -9 0 -26 -8 -39 -17 -12 -10 -33 -25 -45 -33 -12 -8 -28 -21 -36 -27 -7 -7 -18 -13 -24 -13 -6 0 -17 -6 -24 -12 -8 -7 -24 -20 -36 -28 -12 -8 -33 -23 -45 -32 -13 -10 -27 -18 -31 -18 -4 0 -21 -11 -38 -24 -17 -12 -44 -31 -61 -40 -16 -9 -43 -25 -60 -36 -16 -11 -37 -23 -45 -27 -18 -8 -40 -29 -40 -37 0 -3 209 -6 465 -6 l465 0 -7 33 c-3 17 -10 34 -15 35 -4 2 -8 15 -8 28 0 13 -4 24 -10 24 -5 0 -10 9 -10 19 0 11 -4 23 -10 26 -5 3 -10 17 -10 30 0 13 -4 26 -8 29 -4 3 -14 28 -22 55 -7 28 -17 51 -22 51 -4 0 -8 7 -8 15 0 9 -9 35 -20 57 -11 23 -20 49 -20 59 0 26 -21 28 -60 5z"
       id="path12" />
    <path
       d="M3651 2930 c-13 -38 -27 -71 -30 -72 -3 -2 -22 -49 -41 -105 -19 -57 -38 -103 -42 -103 -5 0 -8 -13 -8 -30 0 -16 -4 -30 -9 -30 -5 0 -11 -10 -14 -22 -2 -13 -8 -31 -12 -40 -7 -17 19 -18 464 -18 259 0 471 3 471 6 0 8 -22 29 -40 37 -8 4 -28 16 -45 27 -16 11 -43 27 -60 36 -16 9 -44 28 -61 40 -17 13 -34 24 -38 24 -4 0 -18 8 -31 18 -12 9 -33 24 -45 32 -12 8 -28 21 -36 28 -7 6 -18 12 -24 12 -6 0 -17 6 -24 13 -8 6 -24 19 -36 27 -12 8 -33 23 -45 33 -13 9 -30 17 -39 17 -9 0 -16 4 -16 8 0 5 -20 19 -45 32 -24 12 -52 30 -62 39 -21 19 -91 61 -101 61 -4 0 -18 -31 -31 -70z"
       id="path14" />
    <path
       d="M2146 2383 c4 -16 10 -30 13 -33 3 -3 22 -50 40 -105 19 -55 37 -102 41 -105 4 -3 17 -36 31 -75 13 -38 26 -72 29 -75 3 -3 17 -38 30 -77 14 -40 28 -73 32 -73 5 0 8 -13 8 -30 0 -16 4 -30 8 -30 5 0 24 -46 43 -102 18 -57 37 -104 41 -106 5 -2 8 -10 8 -18 0 -8 9 -34 20 -56 11 -23 20 -48 20 -55 0 -7 3 -13 8 -13 4 0 18 -36 32 -80 14 -44 28 -80 32 -80 5 0 8 -7 8 -15 0 -8 9 -34 19 -58 11 -23 30 -73 43 -112 13 -38 26 -71 30 -73 5 -2 8 -12 8 -22 0 -10 5 -22 10 -25 6 -3 10 -14 10 -24 0 -19 22 -71 30 -71 3 0 16 36 30 80 14 44 28 80 32 80 5 0 8 8 8 18 0 10 3 22 7 25 5 6 56 143 70 192 4 11 9 22 12 25 4 3 18 39 31 80 13 41 27 77 30 80 9 8 50 111 50 126 0 7 3 14 8 16 4 2 23 49 41 106 19 56 38 102 43 102 4 0 8 11 8 25 0 14 5 25 10 25 6 0 10 10 10 23 0 13 4 27 8 33 5 5 15 29 22 54 8 25 17 47 20 50 3 3 11 23 18 45 22 64 36 95 44 95 5 0 8 10 8 23 0 13 4 27 8 33 5 5 20 44 33 86 13 43 27 78 32 78 4 0 7 9 7 20 0 20 -7 20 -595 20 l-595 0 6 -27z"
       id="path16" />
  </g>
</svg>
