<?xml version="1.0" standalone="no"?>
<!DOCTYPE svg PUBLIC "-//W3C//DTD SVG 20010904//EN"
 "http://www.w3.org/TR/2001/REC-SVG-20010904/DTD/svg10.dtd">
<svg version="1.0" xmlns="http://www.w3.org/2000/svg"
 width="443.000000pt" height="443.000000pt" viewBox="0 0 443.000000 443.000000"
 preserveAspectRatio="xMidYMid meet">
<metadata>
Created by potrace 1.16, written by Peter Selinger 2001-2019
</metadata>
<g transform="translate(0.000000,443.000000) scale(0.100000,-0.100000)"
fill="#000000" stroke="none">
<path d="M317 4093 c-4 -3 -7 -345 -7 -760 0 -681 2 -754 16 -760 11 -4 59 37
165 143 l149 149 2 460 3 460 460 3 460 2 139 139 c98 98 137 144 133 155 -6
14 -80 16 -760 16 -415 0 -757 -3 -760 -7z"/>
<path d="M2593 4084 c-4 -11 34 -56 133 -155 l139 -139 460 -2 460 -3 3 -460
2 -460 144 -144 c102 -102 149 -142 160 -138 15 6 16 77 14 759 l-3 753 -753
3 c-682 2 -753 1 -759 -14z"/>
<path d="M1935 3810 l-270 -270 -395 -2 -395 -3 -3 -395 -2 -395 -270 -270
c-149 -148 -270 -274 -270 -280 0 -6 121 -132 270 -280 l270 -270 2 -390 3
-390 390 -3 390 -2 275 -275 c151 -151 279 -275 285 -275 6 0 134 124 285 275
l275 275 385 2 385 3 3 385 2 385 275 275 c151 151 275 279 275 285 0 5 -123
133 -272 282 l-273 273 -5 393 -5 392 -390 3 -390 2 -270 270 c-148 149 -274
270 -280 270 -6 0 -132 -121 -280 -270z m369 21 c97 -97 94 -101 -89 -101
-185 0 -189 5 -84 101 41 38 81 68 89 69 9 0 46 -31 84 -69z m230 -230 c18
-18 26 -36 23 -46 -6 -13 -44 -15 -339 -13 -314 3 -333 4 -336 21 -2 11 6 30
19 43 l22 24 292 0 291 0 28 -29z m-1317 -207 c8 -22 -179 -209 -201 -201 -13
5 -16 24 -16 105 0 54 3 102 7 105 3 4 51 7 105 7 81 0 100 -3 105 -16z m280
0 c7 -20 -454 -486 -477 -482 -11 2 -16 19 -18 57 l-3 55 193 193 193 193 53
0 c39 0 54 -4 59 -16z m650 0 c4 -11 -18 -40 -70 -92 l-76 -77 -3 -150 -3
-150 -52 -3 c-42 -2 -62 2 -96 22 -54 32 -65 32 -77 1 -7 -20 -17 -25 -42 -25
-29 0 -47 -14 -133 -100 -55 -55 -104 -100 -109 -100 -12 0 -230 211 -234 226
-4 14 110 114 130 114 8 0 29 -16 48 -35 19 -19 43 -35 55 -35 12 0 45 25 80
60 l59 59 95 3 96 3 3 95 3 95 52 53 51 52 108 0 c90 0 110 -3 115 -16z m410
-36 l52 -53 3 -95 3 -95 96 -3 95 -3 59 -59 c33 -33 66 -60 75 -60 9 0 34 18
55 40 21 22 46 40 54 40 19 0 131 -109 131 -127 0 -7 -12 -19 -27 -27 -16 -8
-68 -55 -118 -105 -49 -50 -94 -91 -100 -91 -6 0 -55 45 -110 100 l-99 99
-146 3 -145 3 -3 145 -3 145 -81 82 c-107 107 -104 113 45 113 l113 0 51 -52z
m676 -146 l198 -198 -3 -50 c-2 -34 -8 -50 -18 -52 -23 -4 -484 462 -477 482
5 12 20 16 54 16 l48 0 198 -198z m195 90 c4 -141 -3 -142 -125 -19 -123 122
-122 129 19 125 l103 -3 3 -103z m-1103 -492 l99 -100 151 -2 150 -3 3 -150 2
-150 98 -97 c53 -54 104 -98 112 -98 8 0 59 44 112 98 l98 97 2 150 3 150 135
0 135 0 0 -85 0 -85 -40 -5 -40 -5 -3 -96 -3 -95 -64 -64 c-36 -36 -65 -69
-65 -75 0 -6 29 -39 65 -75 l64 -64 3 -90 3 -91 40 -5 40 -5 0 -85 0 -85 -135
0 -135 0 -3 145 -3 145 -97 98 c-53 53 -104 97 -112 97 -8 0 -59 -44 -112 -97
l-97 -98 -3 -145 -3 -145 -145 -3 -146 -3 -104 -104 c-58 -58 -109 -105 -115
-105 -6 0 -57 47 -115 105 l-104 104 -146 3 -145 3 -3 145 -3 145 -97 98 c-53
53 -104 97 -112 97 -8 0 -59 -44 -112 -97 l-97 -98 -3 -145 -3 -145 -135 0
-135 0 0 85 0 85 40 5 40 5 3 91 3 90 64 64 c36 36 65 69 65 75 0 6 -29 39
-65 75 l-64 64 -3 95 -3 96 -40 5 -40 5 0 85 0 85 135 0 135 0 3 -150 2 -150
98 -97 c53 -54 104 -98 112 -98 8 0 59 44 112 98 l98 97 2 150 3 150 170 1
170 1 3 24 c4 24 147 179 167 179 6 0 55 -45 110 -100z m1287 -287 l28 -27 0
-296 0 -296 -29 -28 c-18 -17 -36 -26 -45 -23 -14 6 -16 47 -16 345 0 186 3
342 7 345 12 13 27 7 55 -20z m-2744 -326 c2 -290 0 -328 -13 -334 -10 -3 -28
5 -46 23 l-29 28 0 287 0 288 27 21 c58 45 58 47 61 -313z m2979 91 c40 -40
73 -79 73 -88 0 -9 -33 -49 -74 -89 -103 -103 -106 -100 -106 87 0 82 3 152 7
155 14 15 30 4 100 -65z m-3169 -86 c3 -180 -1 -183 -99 -86 -38 38 -69 73
-69 78 0 19 133 157 149 154 14 -3 16 -24 19 -146z m927 -632 l99 -99 146 -3
145 -3 3 -145 3 -145 81 -82 c106 -107 104 -113 -39 -113 l-109 0 -56 58 -57
57 -3 95 -3 95 -96 3 -95 3 -59 59 c-33 33 -66 60 -75 60 -9 0 -34 -18 -55
-40 -21 -22 -46 -40 -54 -40 -17 0 -121 98 -121 114 0 17 213 226 230 226 8 0
60 -45 115 -100z m1457 -7 c60 -59 108 -112 108 -118 0 -16 -103 -115 -120
-115 -9 0 -34 18 -55 40 -21 22 -46 40 -55 40 -9 0 -42 -27 -75 -60 l-59 -59
-95 -3 -96 -3 -3 -95 -3 -95 -57 -57 -56 -58 -109 0 c-143 0 -145 6 -39 113
l81 82 3 145 3 145 145 3 146 3 99 99 c55 55 106 100 115 100 8 0 63 -48 122
-107z m-1793 -317 c168 -168 232 -239 228 -250 -5 -12 -20 -16 -54 -16 l-48 0
-197 197 -198 198 0 46 c0 47 5 59 24 59 6 0 116 -105 245 -234z m2159 182 l3
-48 -202 -200 c-201 -199 -201 -200 -245 -200 -84 0 -74 15 177 266 132 132
241 233 249 232 10 -2 16 -18 18 -50z m-3 -333 l0 -110 -108 -3 c-147 -4 -148
2 -21 129 54 55 106 98 114 97 12 -3 15 -23 15 -113z m-2296 11 c120 -121 119
-128 -21 -124 l-103 3 -3 94 c-3 102 0 121 20 121 8 0 56 -42 107 -94z m1428
-262 c3 -9 -7 -28 -28 -50 l-33 -34 -281 0 -281 0 -33 34 c-64 66 -63 66 314
66 295 0 336 -2 342 -16z m-200 -200 c4 -11 -16 -38 -63 -85 -38 -38 -73 -69
-79 -69 -6 0 -41 31 -79 69 -96 97 -92 101 79 101 115 0 137 -2 142 -16z"/>
<path d="M2145 2590 l-59 -59 -100 -3 -101 -3 -3 -101 -3 -100 -59 -59 c-33
-33 -60 -64 -60 -70 0 -6 27 -37 60 -70 l59 -59 3 -95 3 -96 96 -3 95 -3 64
-64 c36 -36 69 -65 75 -65 6 0 39 29 75 65 l64 64 90 3 91 3 3 91 3 90 64 64
c36 36 65 69 65 75 0 6 -29 39 -65 75 l-64 64 -3 95 -3 96 -96 3 -95 3 -59 59
c-33 33 -64 60 -70 60 -6 0 -37 -27 -70 -60z"/>
<path d="M315 1848 c-3 -7 -4 -357 -3 -778 l3 -765 773 -3 c701 -2 773 -1 779
14 4 11 -38 60 -148 170 l-154 154 -460 2 -460 3 -3 460 -2 460 -147 147 c-81
82 -154 148 -161 148 -7 0 -15 -6 -17 -12z"/>
<path d="M3933 1708 l-143 -143 -2 -460 -3 -460 -460 -3 -460 -2 -154 -154
c-110 -110 -152 -159 -148 -170 6 -15 78 -16 774 -14 l768 3 0 770 c0 676 -2
770 -15 773 -8 1 -78 -61 -157 -140z"/>
</g>
</svg>
