<?xml version="1.0" encoding="UTF-8" standalone="no"?>
<svg
   xmlns:dc="http://purl.org/dc/elements/1.1/"
   xmlns:cc="http://creativecommons.org/ns#"
   xmlns:rdf="http://www.w3.org/1999/02/22-rdf-syntax-ns#"
   xmlns:svg="http://www.w3.org/2000/svg"
   xmlns="http://www.w3.org/2000/svg"
   xmlns:sodipodi="http://sodipodi.sourceforge.net/DTD/sodipodi-0.dtd"
   xmlns:inkscape="http://www.inkscape.org/namespaces/inkscape"
   version="1.0"
   width="287.000000pt"
   height="289.000000pt"
   viewBox="0 0 287.000000 289.000000"
   preserveAspectRatio="xMidYMid meet"
   id="svg9829"
   sodipodi:docname="brujah.svg"
   inkscape:version="1.0.1 (3bc2e813f5, 2020-09-07)">
  <defs
     id="defs9833" />
  <sodipodi:namedview
     pagecolor="#ffffff"
     bordercolor="#666666"
     borderopacity="1"
     objecttolerance="10"
     gridtolerance="10"
     guidetolerance="10"
     inkscape:pageopacity="0"
     inkscape:pageshadow="2"
     inkscape:window-width="1600"
     inkscape:window-height="837"
     id="namedview9831"
     showgrid="false"
     inkscape:zoom="0.86937716"
     inkscape:cx="252.12587"
     inkscape:cy="392.29032"
     inkscape:window-x="-8"
     inkscape:window-y="-8"
     inkscape:window-maximized="1"
     inkscape:current-layer="svg9829" />
  <metadata
     id="metadata9823">
Created by potrace 1.16, written by Peter Selinger 2001-2019
<rdf:RDF>
  <cc:Work
     rdf:about="">
    <dc:format>image/svg+xml</dc:format>
    <dc:type
       rdf:resource="http://purl.org/dc/dcmitype/StillImage" />
  </cc:Work>
</rdf:RDF>
</metadata>
  <path
     id="path10424"
     style="fill:#ffffff;stroke-width:0.0718905"
     transform="scale(0.75)"
     d="m 297.10157,163.60127 c -3.28157,0.093 -6.47247,1.01832 -9.57175,2.03366 -3.0042,0.99748 -5.52913,3.38437 -6.56267,6.39054 -1.18358,3.33151 -0.59624,7.28035 1.68963,10.01223 1.95363,2.40487 5.06119,3.76715 8.1503,3.64745 3.55247,0.0152 7.15627,-0.62328 10.3813,-2.14731 3.10842,-1.46265 5.60098,-4.33864 6.24479,-7.75404 0.73047,-3.47915 -0.51972,-7.2936 -3.20775,-9.63008 -1.93732,-1.72807 -4.53807,-2.61536 -7.12385,-2.55245 z m -15.92224,-33.37471 c -4.0722,0.32516 -7.74991,3.23776 -9.05099,7.10257 -1.56816,4.4868 -0.7184,10.02131 2.91135,13.28727 3.21928,3.03336 8.3797,3.66155 12.24395,1.51683 4.18674,-2.18275 6.77341,-7.09528 6.02933,-11.78431 -0.7065,-5.17414 -5.13225,-9.80075 -10.4479,-10.12235 -0.56182,-0.064 -1.12291,-0.0189 -1.68574,-1e-5 z m 11.23489,20.08016 c -2.89675,0.13841 -5.74085,1.42982 -7.62899,3.65187 -1.4348,1.67428 -2.311,3.73041 -3.21998,5.7167 -1.14572,2.48896 -1.50433,5.40378 -0.60517,8.02652 1.07071,3.51942 4.25052,6.26225 7.87924,6.84241 1.80449,0.32952 3.6424,0.0296 5.38228,-0.48189 1.60047,-0.40536 3.28875,-0.4665 4.80873,-1.16436 3.32965,-1.39381 5.75953,-4.70278 6.03986,-8.30758 0.24923,-2.34074 -0.4688,-4.6871 -1.69701,-6.66693 -1.3026,-2.23745 -2.59951,-4.65534 -4.87962,-6.04506 -1.78688,-1.16534 -3.95387,-1.705 -6.07934,-1.57168 z m -29.69174,55.50312 c -4.07931,0.0502 -7.76942,2.69729 -9.62442,6.25073 -1.75222,3.0778 -3.59812,6.50536 -2.95705,10.17493 0.59742,4.47897 4.47321,8.21594 8.96651,8.66597 3.95716,0.54716 7.91752,-1.41017 10.32493,-4.5124 3.04573,-3.47078 4.98829,-8.3311 3.68396,-12.9366 -1.13707,-4.50486 -5.60078,-7.82176 -10.2389,-7.64391 l -0.14378,0.001 z M 99.225247,191.95296 c -3.256693,0.0442 -6.447788,1.71899 -8.28376,4.41799 -1.472011,2.05637 -1.996025,4.62909 -1.945342,7.12254 -0.02062,2.40387 -0.01561,4.91254 1.071546,7.11999 1.421321,3.03872 4.433388,5.27143 7.769956,5.68919 3.502163,0.50296 7.221303,-0.91983 9.430083,-3.69663 1.59441,-1.89576 2.30593,-4.37163 2.42784,-6.81275 0.1481,-2.17009 0.10357,-4.39227 -0.45823,-6.50439 -0.9506,-3.404 -3.80612,-6.18537 -7.24418,-7.01856 -0.9002,-0.23011 -1.83916,-0.33149 -2.767913,-0.31738 z m 72.264713,58.10794 c -5.81038,-0.0872 -10.93572,5.34565 -10.27912,11.16444 0.32204,6.03929 5.85954,11.42155 12.03201,10.816 6.02669,-0.13845 10.87004,-6.29385 9.63446,-12.18367 -0.60382,-5.34862 -5.32602,-9.93655 -10.81054,-9.79902 -0.19225,0.003 -0.3846,-0.005 -0.57681,0.002 z m -48.04451,-17.42223 c -14.11153,-0.24051 -24.023887,18.90952 -14.05568,29.67769 5.11342,7.55936 16.50934,8.95582 23.19315,2.68787 6.48492,-4.20807 12.74023,-11.43598 9.93651,-19.71418 -2.27246,-8.13137 -10.91617,-13.09539 -19.07398,-12.65138 z m 72.88367,-11.49014 c -9.14309,0.35519 -17.92373,9.12237 -14.85156,18.57993 2.7196,8.24661 8.69739,18.6755 18.80393,17.58072 9.70871,-1.22817 12.87191,-12.08444 16.05614,-19.77688 2.57587,-7.10521 -3.75766,-13.3083 -10.37064,-14.52832 -3.12087,-0.95994 -6.331,-2.02314 -9.63787,-1.85545 z m 1.75061,-104.8775 c -12.67516,0.60042 -26.45126,-0.22518 -37.40133,7.36461 -6.7188,4.38242 -17.12301,8.76121 -16.1526,18.4179 2.46213,11.16595 7.161,21.71756 10.38608,32.66422 3.05627,6.65698 10.80496,8.54849 16.74672,11.67123 6.07918,1.526 12.33985,2.16285 18.18915,4.48454 12.59942,1.44546 22.6475,-8.08846 34.07327,-11.55686 8.18316,-2.18596 19.04712,-3.1785 22.36074,-12.49729 1.85642,-5.29291 6.11057,-8.9687 10.6482,-11.84757 6.87062,-6.87642 1.85454,-17.58687 -4.80861,-22.57202 -13.35385,-12.27164 -32.20275,-14.37998 -49.45224,-16.07157 -1.52899,-0.0602 -3.05938,-0.0742 -4.58938,-0.0572 z M 89.259391,17.790703 C 77.026716,17.467218 67.86134,30.063826 70.135438,41.682334 c 1.295604,9.596797 3.79073,19.269481 8.170751,27.871976 0.163963,10.58848 -0.11489,21.747431 3.718354,32.05339 1.366399,5.55838 3.801271,11.32682 4.453259,16.58709 -8.005092,7.62267 -11.698551,18.97349 -12.276482,29.73647 -4.949553,13.87064 -10.224713,27.94884 -12.038196,42.61979 0.779672,5.45093 1.862014,10.817 1.069102,16.38825 0.941447,4.34144 -4.995598,3.7293 -7.227994,6.30132 -3.661984,2.05349 -5.593481,6.10057 -7.91903,9.11522 -4.585361,2.18462 -8.263467,6.10064 -11.112059,9.98259 -5.20789,0.82155 -8.766721,5.16897 -14.009614,5.6982 -13.0266224,4.68766 -17.7416487,23.68856 -7.126332,33.20274 6.514925,6.53202 17.165342,6.75892 24.800781,2.3352 5.679941,0.29377 10.594638,-3.25106 15.413911,-5.08343 6.376442,-0.37349 12.681434,-2.73141 18.691134,-3.96031 4.314147,8.97523 8.239382,18.52456 15.758631,25.549 8.468786,13.72359 19.586176,26.0452 33.661836,34.18606 10.17355,6.8791 20.41534,15.97429 33.46326,15.61725 4.05627,0.57269 7.03995,2.89769 8.01435,6.95477 2.7987,5.92911 1.32422,13.27277 6.01273,18.46396 4.41144,12.33663 20.87954,18.02593 31.78574,10.46234 6.79552,-3.89899 9.5724,-11.48782 12.55766,-18.2241 2.78127,-3.21295 4.90116,-7.20234 7.27248,-10.47027 13.849,-4.50354 28.13417,-8.01958 41.4444,-14.14332 13.535,-5.02205 24.76756,-14.29942 34.66124,-24.58265 8.749,-9.35573 20.85675,-18.0392 22.65268,-31.6414 0.53428,-7.12701 5.45626,-13.04727 7.4808,-19.8393 3.57504,-10.1223 9.12416,-19.89369 10.19683,-30.6884 -0.66682,-4.22837 -1.61468,-8.27014 -0.089,-12.5386 1.01317,-4.08882 0.48159,-9.18331 1.55362,-12.74034 11.13825,-2.41846 21.66011,-12.07618 20.34484,-24.27656 -0.73194,-11.81683 -12.28288,-19.16933 -23.20268,-19.89844 -2.43773,-2.65151 -7.86867,-1.30551 -8.71967,-4.99447 4.58897,-5.77942 4.40903,-13.96068 1.76649,-20.45763 6.59858,-12.05376 15.35247,-23.39162 18.27237,-37.034734 3.18961,-6.59663 7.19866,-13.123607 7.67854,-20.60341 4.09526,-11.186905 12.30157,-20.892879 14.12399,-32.82148 0.28708,-14.687001 -17.27422,-24.711939 -30.13838,-18.322586 -12.99283,6.085492 -17.74655,20.960129 -27.61725,30.490015 -11.15391,11.900462 -18.37517,26.711159 -26.92318,40.444476 -10.82815,-7.4711 -22.18698,-16.827417 -36.10347,-16.424242 -15.55015,-4.984385 -31.61547,-8.460953 -47.88273,-10.220871 -14.83556,-3.317897 -30.81319,-0.871826 -44.36721,5.968264 -4.16373,2.744976 -9.78156,2.015128 -13.99638,5.006437 -3.28097,1.670098 -6.40225,3.630895 -9.51608,5.589337 -3.36782,-5.748082 -7.64407,-10.899005 -9.96034,-17.236003 -1.795,-4.358548 -6.1647,-7.345087 -7.95715,-11.429773 C 114.39401,44.434108 111.30944,33.907724 105.56608,24.969458 101.6301,20.206944 95.370897,17.70329 89.259391,17.790703 Z m 95.253929,71.611222 c 2.49715,-0.364458 1.98705,1.647965 0.14139,1.253383 -1.34231,-0.01864 -2.73769,-1.496305 -0.14139,-1.253383 z m 14.69429,36.440245 c 10.41479,-0.25684 20.64507,3.54952 30.75792,4.19383 9.14678,3.35317 17.48083,10.01307 23.43144,17.15022 -8.68001,2.15941 -14.79662,9.7822 -16.87858,18.21456 -4.24527,2.69852 -10.50231,2.96934 -15.53986,4.73009 -6.21212,0.71217 -10.93854,4.97512 -16.14579,7.7815 -4.23416,0.96588 -8.41392,2.65965 -12.01118,4.77366 -4.94306,-4.52395 -12.22979,-4.29838 -18.21298,-4.90075 -3.01096,-2.78232 -7.18683,-4.40757 -10.76416,-5.61559 -2.19965,-11.2669 -7.18691,-21.72055 -10.76416,-32.57525 9.0556,-4.8232 17.02244,-13.09026 27.99698,-12.80071 6.0278,-0.53998 12.07452,-0.99433 18.13037,-0.95156 z m 83.23957,14.3877 c 2.39662,0.9907 0.48167,4.68282 -1.28515,2.81494 -0.24039,-0.91059 -0.13576,-3.36057 1.28515,-2.81494 z m 10.95638,19.96358 c 7.73796,1.74098 8.43939,15.25528 -0.25735,15.83488 -10.00521,0.5418 -8.11,-15.13371 0.25735,-15.83488 z M 99.519975,201.55508 c 1.000495,1.22119 0.745575,5.09161 -0.43368,5.17081 -0.893545,-1.54737 -0.737861,-3.96643 0.43368,-5.17081 z M 263.47328,215.4948 c 0.76103,3.13955 -1.91666,6.84782 -4.62274,7.44087 -0.2458,-2.76283 1.73261,-7.39537 4.62274,-7.44087 z m -66.11476,13.97308 c 3.10842,2.37637 6.963,3.71059 10.86583,3.865 -3.68328,6.15143 -6.70731,14.61187 -9.88568,19.85237 -0.57464,-7.49949 -7.77414,-11.80678 -9.15653,-19.06127 2.9799,-0.99852 5.7984,-3.0349 8.17638,-4.6561 z m -67.97499,13.91271 c 3.17874,1.78675 7.57489,7.87563 2.32731,9.9176 -4.02172,2.47954 -8.14666,9.22713 -13.11568,4.77299 -7.62055,-4.70173 -1.95479,-17.10447 6.39901,-15.7687 1.57949,-0.27227 2.92783,0.65535 4.38936,1.07811 z m 42.08763,12.37815 c 1.95406,1.26877 3.01288,11.40298 -0.10144,6.23975 -1.08723,-0.98821 -2.26847,-8.92246 0.10144,-6.23975 z" />
  <g
     transform="translate(0.000000,289.000000) scale(0.100000,-0.100000)"
     fill="#000000"
     stroke="none"
     id="g9827">
    <path
       d="M2618 2604 c-24 -30 -63 -88 -88 -127 -25 -40 -58 -78 -72 -85 -17 -8 -48 -50 -89 -120 -34 -59 -91 -155 -126 -214 -63 -106 -64 -107 -91 -96 -31 13 -84 59 -77 66 2 3 11 -1 19 -7 8 -7 25 -11 38 -9 18 3 -2 20 -102 86 -69 45 -132 82 -140 82 -9 0 -21 5 -28 12 -6 6 -15 9 -18 5 -4 -3 5 -12 20 -18 14 -7 26 -16 26 -21 0 -11 -32 -2 -81 23 -20 10 -74 25 -120 34 -46 9 -103 20 -126 24 -23 5 -54 6 -68 4 -14 -3 -32 0 -40 7 -25 21 -214 -17 -200 -40 5 -8 -39 -30 -61 -30 -8 0 -12 5 -9 10 13 20 -10 9 -107 -56 -55 -36 -101 -64 -102 -62 -1 2 -10 20 -19 42 -24 51 -34 39 -13 -15 9 -23 14 -44 11 -47 -8 -8 -10 -4 -59 118 -26 63 -43 99 -40 80 9 -51 -2 -34 -41 61 -28 68 -34 78 -35 54 -1 -24 -7 -15 -25 40 -13 39 -37 106 -54 150 -24 64 -30 74 -30 49 -1 -18 9 -63 20 -100 38 -121 68 -238 64 -242 -3 -3 -6 1 -9 9 -15 51 -39 109 -43 105 -5 -5 60 -247 99 -367 l22 -66 -23 -37 c-13 -20 -25 -35 -27 -34 -2 2 3 25 11 51 8 26 13 47 11 47 -1 0 -19 -24 -39 -53 -45 -66 -65 -116 -48 -126 8 -5 1 -31 -24 -85 -20 -43 -40 -102 -45 -131 -5 -30 -14 -63 -19 -74 -14 -25 -14 -54 0 -46 7 5 8 -5 3 -32 -5 -21 -8 -77 -7 -125 l1 -88 -97 -30 c-140 -44 -157 -61 -33 -33 22 5 23 4 11 -14 -12 -20 -88 -53 -121 -53 -10 0 -18 -4 -18 -10 0 -5 14 -10 32 -10 45 0 28 -11 -86 -56 -54 -21 -94 -40 -88 -42 5 -1 59 13 118 31 60 19 138 42 174 51 36 10 82 24 103 32 45 17 57 18 57 3 0 -6 -18 -18 -40 -26 -51 -20 -52 -37 -1 -28 l38 6 38 -88 c43 -102 51 -114 71 -106 8 3 14 -1 14 -11 0 -43 136 -208 185 -222 11 -3 41 -24 67 -45 26 -22 82 -58 125 -81 l78 -41 -40 36 -40 37 65 -30 c36 -16 72 -30 81 -30 22 0 33 -16 47 -66 7 -22 21 -51 33 -65 13 -15 18 -31 14 -44 -3 -11 -8 -33 -11 -50 l-6 -30 22 25 22 25 -7 -30 c-3 -16 -8 -38 -11 -47 -3 -10 -1 -18 5 -18 6 0 11 6 11 14 0 8 6 16 14 19 8 3 25 38 37 77 16 50 25 66 30 53 5 -16 7 -15 14 7 4 14 11 27 15 30 4 3 13 18 21 34 14 29 72 54 166 70 46 8 222 75 243 92 8 7 27 15 42 19 14 4 28 15 31 26 3 10 20 27 39 36 60 32 194 181 238 265 22 43 37 78 33 78 -5 0 -18 -20 -31 -44 -13 -24 -37 -59 -54 -77 -22 -25 -26 -27 -16 -9 31 53 38 67 67 135 54 129 101 257 100 274 0 9 -6 2 -12 -16 -31 -82 -31 -35 -2 83 10 37 11 64 4 95 -14 59 -5 86 28 92 40 7 147 38 153 43 14 14 -34 23 -100 20 -41 -3 -64 -3 -50 0 14 3 32 7 40 11 26 9 -21 22 -62 16 l-36 -5 -23 62 c-12 34 -28 64 -35 67 -14 5 -48 83 -40 91 3 2 1 12 -4 21 -5 10 -5 23 0 31 7 11 14 9 35 -14 36 -39 53 -21 25 27 -25 41 -23 47 56 169 64 99 88 149 69 142 -15 -6 51 121 82 157 7 8 13 24 13 35 0 15 -5 12 -21 -13 -12 -18 -23 -33 -25 -33 -6 0 81 176 119 240 22 36 41 68 43 72 3 4 0 9 -5 13 -6 3 -29 -20 -53 -51z m-1221 -390 c-3 -3 -12 -4 -19 -1 -8 3 -5 6 6 6 11 1 17 -2 13 -5z m234 -136 c3 -5 10 -8 15 -7 26 5 53 -3 58 -17 5 -13 0 -15 -36 -9 -43 7 -43 7 -25 -13 12 -13 37 -23 70 -27 30 -4 61 -16 73 -27 20 -17 22 -18 28 -2 9 22 -10 43 -56 61 -37 15 -51 33 -25 33 7 0 49 -17 93 -39 63 -30 96 -55 164 -125 47 -48 88 -93 93 -101 9 -16 -24 -89 -38 -83 -5 1 -25 -28 -46 -65 l-37 -69 -6 39 c-4 21 -11 63 -15 93 l-8 55 -2 -50 c-2 -27 -6 -72 -10 -100 l-7 -50 -18 33 c-9 19 -20 32 -22 29 -3 -3 2 -19 10 -36 9 -16 16 -42 16 -57 0 -27 -1 -27 -15 -8 -14 19 -14 19 -15 -1 0 -19 -19 -25 -172 -60 -95 -22 -165 -41 -154 -43 10 -2 38 1 63 8 25 6 48 9 50 6 6 -6 -109 -42 -163 -52 -22 -3 -43 -10 -49 -14 -5 -3 -26 -7 -45 -8 -19 -2 -44 -5 -55 -9 -17 -5 -18 -4 -7 10 7 9 27 19 43 22 28 6 46 21 36 31 -2 2 -43 -5 -91 -16 -93 -21 -118 -25 -100 -12 14 10 64 77 64 86 0 4 -20 -9 -44 -28 -52 -44 -60 -45 -38 -7 22 39 8 52 -19 18 -11 -15 -25 -27 -30 -27 -9 0 -6 50 7 120 4 19 2 22 -6 10 -5 -8 -15 -41 -21 -73 -13 -66 -25 -80 -35 -40 -4 15 -15 45 -25 65 -25 49 -23 59 3 28 l21 -25 -6 25 c-9 40 -64 190 -102 280 -27 64 -32 87 -23 97 8 10 13 11 19 2 5 -9 12 -8 28 3 11 8 19 17 16 19 -2 3 4 5 14 6 11 1 41 17 68 37 90 65 158 95 200 89 21 -3 54 -1 73 5 41 11 232 3 241 -10z m494 -247 c3 -5 1 -12 -5 -16 -5 -3 -10 1 -10 9 0 18 6 21 15 7z m-1215 -81 c6 -19 15 -62 21 -95 6 -33 24 -93 40 -133 19 -50 26 -80 20 -94 -5 -14 -10 -17 -15 -10 -9 15 -36 15 -36 0 0 -6 7 -19 16 -29 14 -16 13 -18 -16 -24 -18 -4 -41 -16 -51 -26 -10 -10 -30 -19 -43 -19 -14 0 -28 -4 -31 -10 -8 -13 4 -13 43 1 17 6 37 9 44 6 7 -2 -13 -12 -46 -22 -49 -14 -60 -15 -67 -4 -14 23 -11 197 5 227 16 33 28 92 18 92 -4 0 -17 -21 -30 -48 l-23 -47 7 40 c4 22 20 66 35 97 31 62 34 73 19 63 -18 -11 -11 10 21 60 29 46 32 48 45 30 8 -10 19 -35 24 -55z m1410 -50 c0 -5 -4 -10 -10 -10 -5 0 -10 5 -10 10 0 6 5 10 10 10 6 0 10 -4 10 -10z m-105 -40 c8 -16 15 -33 15 -39 0 -11 -58 -26 -67 -17 -6 5 26 86 33 86 2 0 10 -13 19 -30z m10 -80 c-11 -5 -29 -8 -40 -8 -16 0 -15 2 5 8 34 11 60 11 35 0z m-488 -126 c-3 -3 -12 -4 -19 -1 -8 3 -5 6 6 6 11 1 17 -2 13 -5z m511 -91 c11 -83 10 -87 -62 -258 -31 -73 -33 -103 -4 -52 25 42 42 50 28 12 -23 -60 -47 -95 -116 -166 -41 -42 -74 -82 -74 -89 0 -10 3 -10 15 0 22 18 18 -2 -8 -41 -23 -34 -113 -86 -270 -154 -47 -20 -63 -31 -52 -35 13 -4 6 -10 -25 -22 l-41 -17 6 32 c9 40 37 90 109 190 60 84 68 101 34 71 -12 -10 -19 -14 -16 -9 3 6 11 29 17 53 9 30 19 46 37 52 13 5 24 16 24 23 0 8 9 22 20 32 26 23 26 8 0 -25 -21 -27 -26 -50 -11 -50 17 0 52 54 49 76 -2 12 11 41 28 65 41 58 86 148 81 162 -2 7 -10 1 -18 -13 -17 -31 -158 -220 -164 -220 -12 0 152 254 166 257 12 4 19 20 24 53 6 45 9 49 38 56 57 12 79 49 35 57 -13 2 5 7 40 12 34 4 65 12 68 16 3 5 11 9 18 9 9 0 17 -26 24 -77z m-1501 -20 c-3 -10 -5 -2 -5 17 0 19 2 27 5 18 2 -10 2 -26 0 -35z m718 -3 c-44 -14 -84 -28 -90 -31 -21 -13 -87 -21 -80 -10 3 6 15 11 26 11 10 0 27 4 37 10 20 11 100 45 122 52 8 2 26 2 40 -1 20 -4 9 -10 -55 -31z m63 -6 c-36 -19 -35 -28 2 -21 16 4 32 2 35 -3 3 -6 -1 -10 -9 -10 -9 0 -16 -4 -16 -10 0 -5 -7 -10 -17 -10 -9 0 -13 -3 -10 -6 4 -4 33 1 65 10 33 9 105 25 161 35 80 15 101 16 101 5 0 -7 -24 -48 -53 -91 -70 -102 -160 -270 -152 -283 3 -5 1 -18 -5 -27 -9 -15 -10 -14 -5 7 l6 25 -15 -25 c-8 -14 -10 -27 -5 -30 4 -3 -7 -32 -26 -63 -19 -31 -53 -104 -75 -162 -23 -58 -45 -107 -49 -110 -12 -7 -74 136 -95 217 -10 37 -22 65 -27 62 -5 -3 -9 -3 -9 0 0 2 -3 12 -7 22 -5 13 -3 15 7 9 10 -6 12 -4 7 10 -4 10 -2 32 4 50 16 42 -2 160 -32 213 -16 29 -19 32 -15 12 23 -114 39 -186 43 -195 4 -7 3 -7 -4 0 -20 21 -105 257 -96 266 5 5 51 19 101 31 51 12 92 26 92 30 0 4 -3 7 -7 7 -42 -7 -24 8 32 26 81 27 112 31 73 9z m432 -98 l-22 -21 18 35 c10 21 19 30 22 21 2 -7 -6 -23 -18 -35z m-1084 -121 c-11 -8 -25 -15 -30 -15 -6 0 -2 7 8 15 11 8 25 15 30 15 6 0 2 -7 -8 -15z m164 0 c0 -3 -10 -25 -22 -48 -12 -23 -22 -61 -23 -85 -1 -23 -1 -41 0 -40 2 2 20 35 40 73 21 39 41 74 45 79 14 15 63 -100 100 -234 6 -25 30 -91 52 -148 23 -56 38 -105 35 -108 -8 -8 -59 20 -81 45 -11 12 -30 21 -43 21 -13 0 -26 7 -29 15 -11 27 -137 127 -144 114 -9 -14 -44 45 -86 141 -25 60 -56 110 -41 68 9 -26 -2 -22 -12 5 -23 62 -23 64 6 60 16 -2 57 8 93 21 62 23 110 32 110 21z m260 -195 c0 -13 -1 -13 -10 0 -5 8 -10 22 -10 30 0 13 1 13 10 0 5 -8 10 -22 10 -30z"
       id="path9825" />
  </g>
</svg>
