<?xml version="1.0" encoding="UTF-8" standalone="no"?>
<svg
   xmlns:dc="http://purl.org/dc/elements/1.1/"
   xmlns:cc="http://creativecommons.org/ns#"
   xmlns:rdf="http://www.w3.org/1999/02/22-rdf-syntax-ns#"
   xmlns:svg="http://www.w3.org/2000/svg"
   xmlns="http://www.w3.org/2000/svg"
   xmlns:sodipodi="http://sodipodi.sourceforge.net/DTD/sodipodi-0.dtd"
   xmlns:inkscape="http://www.inkscape.org/namespaces/inkscape"
   version="1.0"
   width="286.77911pt"
   height="273.7605pt"
   viewBox="0 0 286.77911 273.7605"
   preserveAspectRatio="xMidYMid meet"
   id="svg1579"
   sodipodi:docname="gangrelantitribu.svg"
   inkscape:version="1.0.1 (3bc2e813f5, 2020-09-07)">
  <defs
     id="defs1583" />
  <sodipodi:namedview
     pagecolor="#ffffff"
     bordercolor="#666666"
     borderopacity="1"
     objecttolerance="10"
     gridtolerance="10"
     guidetolerance="10"
     inkscape:pageopacity="0"
     inkscape:pageshadow="2"
     inkscape:window-width="1600"
     inkscape:window-height="837"
     id="namedview1581"
     showgrid="false"
     inkscape:zoom="1.2252454"
     inkscape:cx="154.92379"
     inkscape:cy="180.51902"
     inkscape:window-x="-8"
     inkscape:window-y="-8"
     inkscape:window-maximized="1"
     inkscape:current-layer="svg1579"
     fit-margin-top="0"
     fit-margin-left="0"
     fit-margin-right="0"
     fit-margin-bottom="0" />
  <metadata
     id="metadata1571">
Created by potrace 1.16, written by Peter Selinger 2001-2019
<rdf:RDF>
  <cc:Work
     rdf:about="">
    <dc:format>image/svg+xml</dc:format>
    <dc:type
       rdf:resource="http://purl.org/dc/dcmitype/StillImage" />
    <dc:title></dc:title>
  </cc:Work>
</rdf:RDF>
</metadata>
  <path
     id="path2172"
     style="fill:#ffffff;stroke-width:0.216418"
     d="m 176.15137,220.4422 c -7.50711,0.43794 -14.40404,5.67665 -16.85246,12.78579 -2.90635,7.73553 -0.27492,17.18768 6.42477,22.10287 6.29925,4.97708 15.84833,5.4118 22.40406,0.6851 7.10202,-4.60337 9.94009,-14.15556 7.47088,-22.1001 -2.10244,-7.22301 -8.82142,-12.79977 -16.33891,-13.41155 -1.02892,-0.16087 -2.07253,-0.0562 -3.10834,-0.0621 z m 56.79678,-80.42908 c -8.05163,-0.15102 -15.23412,4.06658 -20.71771,9.6493 -5.34667,1.95743 -11.39839,3.91333 -14.31451,9.30836 -4.59849,6.8622 -3.03507,15.6711 -3.05965,23.47454 0.47571,10.12267 10.30744,17.84069 20.19596,17.23374 7.3966,0.51395 15.68063,1.3913 21.78504,-3.80857 3.73941,-1.47434 8.43708,-1.54692 11.82281,-4.3554 8.75172,-6.06474 11.09497,-18.37583 7.63957,-28.02731 2.63469,-9.72652 -3.55041,-20.86211 -13.52803,-23.05043 -3.13353,-0.96237 -6.58808,-0.59447 -9.82348,-0.42423 z m -86.9919,78.84304 c -6.18124,1.33152 -11.03174,5.83409 -14.06806,11.19873 -6.58269,5.03778 -10.46002,13.64648 -8.00507,21.82791 1.68059,8.47384 5.90458,17.52712 14.69179,20.48743 10.58676,4.21389 23.82195,-1.49522 27.39726,-12.48037 1.24198,-3.85721 2.45159,-7.70004 5.15058,-10.79866 5.84611,-9.68201 0.97672,-23.27149 -9.35055,-27.58451 -4.90116,-2.49383 -10.3576,-3.57662 -15.81595,-2.65053 z m 11.4211,39.9075 c -0.51353,0.0436 2.69472,-0.7699 0,0 z M 65.19675,63.741731 c -6.202279,0.457372 -11.96199,3.933689 -15.563688,8.957069 -13.858576,4.441402 -21.61255,21.899565 -15.13568,35.05238 -1.380078,8.62093 -5.19737,18.09591 -0.23901,26.28563 6.264809,11.52109 23.049678,12.78789 32.638452,4.78794 7.963734,-6.67692 17.868197,-14.13515 17.996245,-25.57869 0.506902,-4.30713 4.565482,-7.57923 5.43417,-11.98314 2.50869,-9.240385 -1.39809,-18.722838 -5.225453,-27.018235 C 81.212894,67.220357 73.174922,63.047937 65.19675,63.741731 Z M 33.176899,169.76161 c -3.129818,0.30896 -6.132238,1.43308 -8.803814,3.07001 -3.627194,1.57854 -7.425406,2.97972 -10.483912,5.57259 -2.530087,2.04256 -4.5199604,4.72049 -5.8833262,7.65321 -7.95105184,6.45516 -10.295703,18.6167 -5.6029867,27.66424 3.0928934,6.2177 9.5733379,10.51027 16.4769299,11.07795 6.861737,0.55215 13.623501,-1.2801 20.119124,-3.28192 5.478029,-1.81388 11.043341,-3.86582 15.597652,-7.51172 4.776151,-3.81096 7.772205,-9.85094 7.550365,-15.99527 -0.183948,-4.34105 -1.561522,-8.67256 -4.046496,-12.24825 -1.475327,-2.12848 -3.437595,-3.85669 -5.54589,-5.33296 -0.774336,-0.86172 -1.211168,-1.99722 -1.968932,-2.89025 -3.831647,-5.24912 -10.432397,-8.37642 -16.930989,-7.80166 -0.159241,0.008 -0.318483,0.016 -0.477725,0.024 z m -5.956776,16.03818 c 4.51433,1.54248 8.347307,4.93425 10.440323,9.21647 0.794523,1.54827 1.352643,3.22568 1.637171,4.94515 0.335401,1.43689 0.331605,2.93884 0.305098,4.40453 -0.135297,1.9231 -0.48725,3.85 -1.231364,5.63144 -0.40036,0.31559 -1.246729,0.82785 -1.444335,0.93605 0.17297,-0.0948 0.855632,-0.4536 1.207511,-0.63099 0.324188,0.0377 -0.420493,1.08166 -0.559906,1.5083 -0.5225,1.06799 -1.198469,2.05504 -1.92371,2.99454 -5.618231,-1.72566 -10.207847,-6.34015 -11.959586,-11.94194 -1.876386,-5.77943 -0.624578,-12.4716 3.27328,-17.14513 0.08517,0.0272 0.170346,0.0544 0.255518,0.0816 z m 5.769095,-11.19916 c -3.032609,0.36714 -5.796754,2.20417 -8.895785,1.84187 -7.728724,0.31292 -14.7026496,5.95121 -16.9293359,13.30412 -5.3649329,8.7549 -2.669066,21.65976 6.1625039,27.11937 5.74375,3.98067 13.309833,3.76224 19.637935,1.37356 6.303492,-2.30293 13.638885,-2.97529 18.486519,-8.10713 5.75319,-5.68619 6.910064,-14.95805 3.409581,-22.14042 -2.705224,-6.81751 -8.773192,-12.5603 -16.24535,-13.40451 -1.885116,-0.34929 -3.735047,-0.17253 -5.626068,0.0131 z M 4.6504661,202.44562 c -0.010246,-0.0589 -0.024823,-0.26312 0,0 z m 0.2839436,1.66839 c -0.3134207,-1.52844 -0.3044265,-1.87854 0,0 z M 193.88351,221.0739 c -9.81916,1.31699 -17.44093,11.01763 -16.00956,20.88823 0.27555,3.184 0.7743,3.66681 0.71049,4.66395 1.19782,10.20653 11.10297,17.64885 21.1752,17.05488 9.23967,0.88662 19.41988,-3.48645 22.72743,-12.66447 4.44905,-10.92198 -1.73651,-24.72629 -13.24232,-27.98319 -4.94776,-1.53822 -10.19295,-2.14201 -15.36124,-1.9594 z M 66.783246,23.396654 c -8.904465,-0.750939 -18.562919,4.134882 -21.057194,13.127782 -2.096227,7.887036 -1.868079,16.265881 -0.312228,24.294467 0.580674,8.758412 5.630916,17.675049 14.477686,20.208842 9.636474,3.050258 20.830306,-0.0857 27.103726,-8.132873 C 93.694049,68.056577 97.544174,60.076598 97.389794,51.827939 98.671889,42.665279 92.746266,33.710658 84.109799,30.699804 79.413996,26.237122 73.519428,23.034848 66.783246,23.396654 Z M 46.25563,39.229341 c 1.672119,-3.2038 3.09256,-4.744628 0,0 z M 152.4708,50.781954 c -7.66573,0.130303 -14.09644,5.174756 -18.22259,11.251334 -5.67914,1.936989 -11.70273,3.696367 -17.73123,4.136608 C 107.29437,61.306286 98.070749,54.670505 87.280979,54.424799 75.615343,54.098325 65.766651,65.689636 67.893914,77.147447 c 0.529376,6.798196 5.302369,12.698926 4.30518,19.666823 -3.351189,5.38202 -4.794085,11.59403 -6.403373,17.6009 -4.427556,6.04146 -10.929735,10.17122 -17.099971,14.22109 -7.1714,6.10071 -13.981149,12.80471 -19.654864,20.3172 -3.122858,6.74305 -2.876958,14.73035 -1.092323,21.81156 1.450998,3.91774 3.480831,7.69664 5.714324,11.11392 0.933294,11.70769 13.367118,20.1192 24.619335,17.30042 7.26805,-1.67903 13.209671,-6.58013 20.293716,-8.84073 12.935761,-4.91315 25.506722,-10.8711 38.176572,-16.4651 1.5592,-0.44038 4.37839,-0.73696 3.07974,1.76225 -3.39577,13.01244 -5.31345,28.17127 2.32654,40.09999 5.23095,7.11211 10.6877,14.7159 18.57648,19.04274 5.01891,2.66686 11.05291,1.47069 15.94986,4.50722 8.75705,3.52101 20.02474,2.81041 26.235,-5.05072 4.8578,-5.8594 4.96535,-14.00136 2.47377,-20.87361 1.52543,-6.0503 0.80562,-12.4222 -1.21947,-18.31465 -0.54292,-2.81449 3.56631,-1.87971 5.1588,-1.62237 11.80779,3.27283 24.69171,-6.882 24.12579,-19.15151 0.74963,-1.9823 -2.35761,-5.93733 0.9661,-5.72425 6.06822,-1.22668 11.16481,-5.25676 14.98061,-9.97217 8.68925,1.04863 18.40459,-3.09763 21.44797,-11.73988 2.44143,-4.9087 0.80193,-12.88117 6.71922,-15.65737 8.18226,0.31734 16.58466,-3.58848 20.15948,-11.23875 5.87466,-10.20991 12.32974,-22.90376 7.15289,-34.700315 -3.92194,-8.92128 -14.30207,-12.679665 -23.48563,-11.34228 -9.01033,0.909 -19.72215,-0.557025 -26.34312,6.995137 -2.66478,2.494036 -3.4824,6.236536 -5.23834,9.222601 -5.68248,-0.111015 -11.61613,0.25155 -17.14182,-0.606143 -2.30812,-8.378963 -9.8801,-13.808145 -17.95788,-15.960983 -3.15566,-1.07049 -6.39978,-2.082 -9.71435,-2.388337 -4.86634,-6.335465 -11.96084,-10.397361 -17.83285,-15.696397 -4.22759,-3.090208 -9.42959,-4.939345 -14.7005,-4.681779 z m 15.60434,27.766681 c -1.26055,1.771852 -1.30831,1.25046 0,0 z m 86.97517,34.158095 c -12.10245,1.68147 -19.854,13.99398 -20.90421,25.39113 -1.05242,11.83668 10.1463,22.49645 21.90369,21.0142 7.74224,-1.25283 15.78132,-3.40918 22.18392,-8.10061 10.17813,-7.68415 9.74259,-24.81069 -0.79522,-31.99052 -6.40502,-4.14983 -14.73624,-6.73968 -22.38818,-6.3142 z m -69.96845,61.68926 c -12.07288,-0.0327 -21.81086,12.34102 -19.16718,24.06992 0.24862,3.53179 3.45655,6.5706 1.28651,9.99492 -3.80541,17.21816 15.75089,35.04633 32.47118,28.25686 3.26967,-0.97157 5.92275,-3.9223 8.39397,-5.56171 9.86742,4.42288 20.54132,11.63421 31.76938,7.8225 9.81582,-3.33851 15.39601,-15.14981 11.54276,-24.80887 -1.60862,-5.27945 -6.38351,-9.59381 -5.65706,-15.40589 -1.29163,-9.62338 -10.2078,-16.48694 -19.62498,-16.99357 -6.69077,-0.71531 -13.52538,-0.87582 -20.16417,0.36943 -6.25741,-4.02496 -13.13405,-8.07457 -20.85041,-7.74359 z m -67.01066,-19.5664 c -10.58291,0.74258 -19.142383,7.87117 -28.890809,11.33091 -9.253695,4.36404 -19.201652,7.09863 -28.370119,11.60336 -6.200781,3.32289 -9.503021,10.03186 -10.46227,16.71859 -3.8149,9.96598 -12.009635,19.6833 -8.941528,30.97674 2.755558,11.05233 15.694491,17.25243 26.214855,13.36865 5.658127,-1.66847 11.140497,-5.03133 16.30493,-7.09321 5.150647,12.39529 20.838721,20.00711 33.371421,13.92818 7.97075,2.61999 17.42066,4.92217 24.86283,-0.39327 10.10879,-6.01962 11.3975,-21.114 3.66064,-29.57682 -4.7457,-5.30196 -11.16465,-10.75058 -10.60334,-18.61712 -0.77371,-7.12845 2.20743,-13.72873 3.45035,-20.57305 1.47119,-11.76479 -8.79458,-22.47899 -20.59696,-21.67296 z M 30.617818,113.37864 c -10.43439,0.48284 -21.3214964,7.50053 -22.6994137,18.49509 -2.1132909,10.64803 5.2062577,21.6581 15.7042427,24.17772 8.94048,3.47223 20.393363,2.38331 26.474289,-5.75419 8.372159,-10.49461 3.133843,-26.56942 -7.199611,-33.63445 -3.624373,-2.33946 -7.972159,-3.49408 -12.279507,-3.28417 z M 146.33762,0.01286504 c -11.09877,-0.41219476 -21.05707,9.13896026 -21.0424,20.25530096 -1.6302,10.094431 5.85373,20.688877 16.19631,21.655966 8.25412,0.848467 16.83064,-3.551353 21.88724,-10.019667 8.05909,-10.339744 2.49734,-27.4070161 -10.16758,-30.90765769 -2.20244,-0.74455427 -4.55472,-1.02041102 -6.87357,-0.98394227 z M 124.08004,21.477794 c -3.12866,-0.08829 -6.12774,1.44162 -8.95587,2.108953 -12.00939,-3.596773 -26.769191,1.999712 -31.087924,14.316727 -1.63689,5.029569 -5.453243,9.371527 -5.33952,14.984873 -1.01385,9.908437 5.991083,19.32893 15.444323,21.989945 7.722671,2.762108 13.593711,10.006951 22.284431,9.938183 8.03451,0.11199 15.51453,-3.457275 23.3151,-4.892955 9.22822,-2.891108 14.17935,-12.509715 14.49355,-21.696826 1.44297,-6.68135 -0.16664,-13.797178 -4.59477,-18.947663 -3.44106,-8.10954 -10.95806,-14.541708 -19.32691,-17.150857 -2.03343,-0.51885 -4.13549,-0.737941 -6.23241,-0.65038 z m 28.41348,-0.633642 c -11.96185,0.989946 -20.13893,14.095295 -16.87989,25.389601 2.90137,10.836615 13.29243,16.873196 20.90173,24.216217 10.81698,9.317775 22.55047,18.248948 36.60621,21.914468 2.8696,1.14933 1.88372,6.20784 4.63119,8.238842 4.5571,7.00012 13.43733,8.31059 21.15566,7.99767 8.17414,0.46768 17.82612,1.45732 23.96989,-5.20979 7.35843,-6.621995 7.6362,-18.6296 1.59976,-26.22812 -2.05153,-2.37972 -3.31746,-4.762553 -0.95886,-7.407683 4.0712,-7.807042 8.61594,-17.166696 4.24055,-25.846793 -4.31188,-10.124865 -17.19761,-14.057745 -26.97036,-9.736405 -4.22604,1.222571 -8.33134,4.28075 -12.30821,5.200648 -2.89304,-2.425778 -3.58563,-6.877966 -6.66291,-9.398704 -6.96596,-7.775091 -18.93586,-9.955434 -28.48271,-6.093251 -6.86173,-1.32243 -13.80341,-3.335566 -20.84205,-3.0367 z" />
  <g
     transform="matrix(0.1,0,0,-0.1,-0.48413613,281.76097)"
     fill="#000000"
     stroke="none"
     id="g1577">
    <path
       d="m 1435,2600 c -16,-50 -33,-90 -37,-90 -5,0 -23,8 -41,17 -39,20 -107,34 -107,21 0,-4 -19,1 -41,13 -34,17 -43,18 -50,7 -5,-7 -9,-16 -9,-19 0,-3 -30,5 -67,17 -63,22 -69,22 -80,7 -22,-29 -14,-42 30,-53 23,-6 50,-15 60,-21 15,-8 23,-6 38,7 19,17 22,17 74,-12 51,-27 68,-44 45,-44 -5,0 -9,-3 -9,-7 5,-29 -5,-40 -47,-51 -40,-11 -49,-10 -64,3 -23,21 -83,19 -103,-3 -10,-10 -17,-30 -17,-45 0,-38 -42,-65 -79,-50 -148,62 -202,90 -208,108 -9,29 -74,106 -84,100 -4,-3 -11,-20 -14,-38 -5,-27 -11,-32 -36,-33 -39,-2 -46,-10 -26,-32 10,-10 14,-21 11,-25 -4,-3 5,-25 18,-49 19,-32 27,-63 31,-123 3,-44 14,-105 25,-136 l 20,-56 -29,-46 c -24,-39 -34,-47 -59,-47 -62,0 -94,-79 -50,-125 17,-18 19,-26 10,-52 -6,-16 -16,-63 -23,-104 l -12,-74 -150,-51 -149,-51 149,-50 c 180,-60 184,-65 98,-139 -32,-28 -69,-58 -83,-67 -13,-9 -19,-17 -11,-17 8,0 3,-12 -14,-31 -23,-29 -24,-33 -10,-49 8,-9 15,-27 15,-39 v -23 l 38,23 c 31,20 35,20 22,4 -13,-17 -13,-18 1,-13 9,4 21,2 27,-4 17,-17 1,-47 -38,-71 -36,-21 -40,-26 -40,-46 0,-5 -25,-19 -55,-31 -50,-20 -54,-24 -49,-49 5,-24 2,-29 -28,-37 -25,-7 -34,-16 -36,-36 -2,-15 3,-28 12,-31 36,-14 236,49 236,75 0,5 -5,18 -10,29 -9,16 -7,21 17,30 15,6 37,13 48,14 27,4 134,54 117,54 -7,1 -11,5 -8,10 3,5 -36,-7 -87,-26 -124,-46 -239,-84 -244,-80 -2,3 22,16 54,31 70,32 147,80 116,71 -44,-12 -22,6 40,35 55,26 58,28 25,23 -21,-3 -38,-3 -38,0 0,8 73,49 206,116 138,69 265,157 454,314 190,158 190,159 35,54 -77,-52 -194,-126 -260,-164 -315,-183 -372,-217 -403,-240 -18,-14 -36,-23 -39,-20 -3,3 4,12 16,19 28,17 27,28 -2,21 -18,-5 -20,-3 -9,8 6,7 12,19 12,27 0,9 -13,4 -38,-15 -63,-50 -69,-48 -17,6 27,28 44,51 38,51 -6,0 -16,-7 -24,-16 -7,-9 -33,-29 -58,-46 l -46,-31 44,46 c 24,24 44,48 45,52 0,4 34,40 74,79 40,39 99,102 130,140 31,38 76,92 100,120 44,52 78,104 51,79 -7,-7 -21,-13 -30,-13 -9,0 -24,-11 -33,-25 -9,-14 -22,-25 -29,-25 -7,0 -41,-21 -76,-46 -34,-26 -65,-44 -68,-40 -4,4 15,30 43,58 29,31 36,41 17,25 -18,-14 -43,-29 -55,-32 -13,-4 -31,-14 -41,-23 -9,-8 -20,-13 -23,-10 -3,3 43,50 103,103 101,91 182,175 168,175 -3,0 -29,-16 -57,-35 -29,-19 -54,-33 -56,-31 -2,3 20,39 48,81 46,69 51,79 41,103 -34,87 -83,277 -88,342 -3,41 -12,86 -20,99 -14,22 -14,24 1,18 25,-10 19,11 -10,38 -18,16 -22,25 -12,25 7,0 19,-5 26,-12 9,-9 12,-7 12,13 0,13 4,30 9,38 7,11 11,4 17,-25 7,-36 8,-37 14,-14 7,26 9,24 25,-26 3,-8 26,-24 52,-36 27,-11 72,-31 101,-44 29,-14 94,-41 145,-60 51,-19 109,-49 131,-66 l 39,-31 67,21 c 36,12 78,22 92,22 20,0 26,5 26,23 1,12 4,36 7,54 6,28 4,33 -26,49 -29,14 -31,18 -16,23 25,9 20,22 -19,49 -50,34 -27,70 27,42 10,-6 19,-9 19,-6 0,7 -87,66 -145,98 -73,40 -37,34 46,-8 69,-34 103,-39 63,-9 -34,26 5,16 75,-19 72,-37 193,-129 251,-191 38,-42 199,-165 245,-188 17,-8 76,-29 132,-46 113,-35 126,-46 116,-105 l -6,-36 h 53 c 29,0 100,-8 159,-17 114,-18 168,-20 280,-9 71,7 71,7 71,-17 0,-35 -25,-100 -54,-144 -15,-21 -26,-50 -26,-66 0,-34 -44,-168 -66,-202 -9,-14 -30,-27 -48,-30 -23,-5 -39,-18 -58,-48 -32,-50 -105,-122 -93,-92 4,11 8,43 8,70 v 50 l -47,1 c -25,1 -57,5 -70,8 -20,5 -29,-1 -56,-44 -32,-50 -83,-100 -101,-100 -6,0 -6,6 0,18 9,16 6,116 -4,132 -2,4 -23,10 -45,14 -22,3 -70,16 -105,28 -63,20 -66,20 -85,3 -25,-23 -135,-183 -129,-188 2,-2 41,-23 87,-47 66,-34 89,-52 114,-89 17,-25 44,-60 61,-78 36,-38 53,-33 93,27 15,22 30,40 33,40 3,0 6,-27 6,-60 0,-69 5,-75 75,-84 73,-10 94,3 121,73 13,34 28,60 34,58 5,-2 12,-44 15,-93 3,-49 8,-93 10,-99 8,-19 -22,-85 -48,-105 -21,-17 -34,-19 -70,-14 -69,10 -135,8 -175,-7 -35,-12 -39,-11 -79,18 -47,33 -91,57 -125,67 -35,11 -30,-29 13,-94 20,-30 38,-67 40,-83 l 3,-28 -30,22 c -17,12 -49,44 -71,73 -22,28 -49,54 -60,59 -19,7 -20,4 -14,-24 8,-41 47,-92 124,-163 56,-51 61,-58 36,-52 -27,6 -25,3 21,-38 45,-41 63,-52 118,-70 30,-10 9,-26 -26,-20 -32,6 -32,6 -10,-10 13,-10 44,-26 69,-37 57,-26 47,-49 -11,-25 -21,9 -48,16 -62,16 -13,0 -40,7 -60,15 -20,8 -39,13 -42,10 -3,-3 5,-8 17,-12 24,-6 30,-23 8,-23 -7,0 -31,6 -52,14 -38,13 -100,11 -109,-4 -3,-4 24,-16 60,-25 36,-10 63,-20 61,-23 -8,-7 -162,17 -246,38 -118,31 -237,75 -280,105 -62,43 -129,121 -158,183 -47,103 -42,262 13,380 13,29 19,50 12,46 -6,-4 -32,-21 -56,-37 -109,-74 -498,-228 -636,-252 -48,-8 -37,7 18,25 20,6 42,20 47,30 5,10 26,24 46,30 47,16 35,27 -13,12 -21,-7 -58,-17 -81,-22 -29,-8 -42,-16 -39,-24 3,-8 -5,-18 -19,-25 -18,-8 -24,-18 -22,-34 3,-19 8,-22 38,-19 31,2 140,31 185,49 11,4 -9,-45 -54,-136 -39,-77 -71,-143 -71,-146 0,-3 66,28 146,68 l 147,74 73,-51 c 61,-41 74,-55 74,-76 0,-47 60,-81 102,-59 13,7 26,16 29,20 8,13 167,-30 204,-54 28,-18 38,-39 77,-156 l 45,-136 33,103 c 19,56 39,102 45,102 5,0 33,-7 60,-16 57,-18 282,-53 290,-46 3,3 5,13 5,23 0,11 8,17 23,16 12,0 29,3 38,7 13,6 15,1 11,-23 -4,-27 -1,-30 29,-36 19,-3 55,-9 81,-14 40,-7 50,-5 64,11 16,17 16,19 0,31 -16,12 -16,14 3,31 24,22 27,36 9,36 -7,0 -29,5 -49,10 -32,9 -35,13 -31,39 3,25 0,30 -30,40 -18,6 -48,20 -67,32 -26,16 -31,23 -21,29 12,7 11,13 -5,30 -21,23 -22,21 57,73 l 56,38 142,-71 c 78,-39 144,-69 147,-66 3,2 -18,48 -47,101 -29,53 -50,97 -49,99 2,1 20,7 39,12 28,7 41,20 62,59 28,53 35,90 18,100 -15,9 -11,67 5,89 19,25 19,76 2,101 -12,15 -11,30 5,94 29,114 47,130 203,181 l 130,43 -55,19 c -30,10 -60,20 -66,22 -8,3 -6,21 7,58 10,29 18,68 19,87 0,20 10,47 24,66 31,40 69,150 61,176 -10,31 -42,42 -89,31 -62,-16 -142,-17 -236,-2 l -85,13 -47,69 -48,69 65,129 c 36,72 65,132 65,135 0,3 -59,-24 -130,-60 l -131,-66 -84,57 c -64,42 -85,61 -85,78 0,60 -71,94 -120,57 -24,-17 -33,-19 -59,-10 -17,6 -63,16 -103,23 l -72,12 -43,128 c -23,71 -44,130 -46,132 -2,2 -16,-37 -32,-86 z m -335,-67 c 14,-8 17,-12 8,-9 -9,3 -35,10 -57,16 -23,6 -41,13 -41,16 0,9 63,-7 90,-23 z M 420,844 c 0,-12 -109,-53 -160,-60 -75,-9 -57,5 48,38 90,28 112,32 112,22 z M 2112,352 c 10,-10 1,-11 -37,-5 -85,11 -107,23 -37,20 34,-2 68,-9 74,-15 z"
       id="path1573" />
    <path
       d="m 1685,1974 c -11,-3 -39,-10 -63,-16 l -43,-11 33,-19 c 18,-11 43,-29 55,-40 l 22,-21 50,22 c 27,11 59,21 71,21 49,0 -13,56 -70,64 -19,2 -44,2 -55,0 z"
       id="path1575" />
  </g>
</svg>
