<?xml version="1.0" encoding="UTF-8" standalone="no"?>
<svg
   xmlns:dc="http://purl.org/dc/elements/1.1/"
   xmlns:cc="http://creativecommons.org/ns#"
   xmlns:rdf="http://www.w3.org/1999/02/22-rdf-syntax-ns#"
   xmlns:svg="http://www.w3.org/2000/svg"
   xmlns="http://www.w3.org/2000/svg"
   xmlns:sodipodi="http://sodipodi.sourceforge.net/DTD/sodipodi-0.dtd"
   xmlns:inkscape="http://www.inkscape.org/namespaces/inkscape"
   version="1.0"
   width="246.000000pt"
   height="300.000000pt"
   viewBox="0 0 246.000000 300.000000"
   preserveAspectRatio="xMidYMid meet"
   id="svg1475"
   sodipodi:docname="innocent.svg"
   inkscape:version="1.0.1 (3bc2e813f5, 2020-09-07)">
  <defs
     id="defs1479" />
  <sodipodi:namedview
     pagecolor="#ffffff"
     bordercolor="#666666"
     borderopacity="1"
     objecttolerance="10"
     gridtolerance="10"
     guidetolerance="10"
     inkscape:pageopacity="0"
     inkscape:pageshadow="2"
     inkscape:window-width="1600"
     inkscape:window-height="837"
     id="namedview1477"
     showgrid="false"
     inkscape:zoom="1.675"
     inkscape:cx="164"
     inkscape:cy="200"
     inkscape:window-x="-8"
     inkscape:window-y="-8"
     inkscape:window-maximized="1"
     inkscape:current-layer="svg1475" />
  <metadata
     id="metadata1469">
Created by potrace 1.16, written by Peter Selinger 2001-2019
<rdf:RDF>
  <cc:Work
     rdf:about="">
    <dc:format>image/svg+xml</dc:format>
    <dc:type
       rdf:resource="http://purl.org/dc/dcmitype/StillImage" />
  </cc:Work>
</rdf:RDF>
</metadata>
  <path
     style="fill:#ffffff;stroke-width:0.597015"
     d="m 160.6931,-2.0324161 c -12.44758,0.7824668 -20.15656,11.9468042 -26.13866,21.5799541 -6.72577,11.567521 -14.79412,22.755191 -18.4369,35.777789 -2.96439,10.933946 2.70538,23.679127 13.62639,27.55247 2.38583,1.013707 5.17551,1.459994 7.54781,1.990442 0.0345,5.712788 0.0611,11.42563 0.0688,17.138521 -10.2972,-1.06717 -20.77254,-0.5032 -31.14154,-0.75212 -14.492409,-0.6057 -28.717484,3.35833 -41.686118,9.6024 -29.283335,13.69624 -52.980399,39.71764 -61.8745363,71.02223 -5.2715242,17.30412 -5.526689,35.8139 -3.38898928,53.65244 2.82680478,16.35151 9.84544358,31.81216 18.61707058,45.79408 8.663062,10.91377 18.551218,21.00807 29.624319,29.48686 23.947723,16.32702 53.976824,23.93706 82.750914,19.40773 2.46695,-0.28368 5.13513,-0.92566 7.44403,-1.26399 0.54851,18.2636 -0.21168,36.79355 0.90109,55.26162 1.2652,10.54794 11.47916,18.41052 21.95106,17.78059 9.93861,0.81459 20.36738,-4.56139 23.94858,-14.16496 3.91731,-10.99829 2.35773,-22.97175 2.94041,-34.4218 0.0675,-8.35665 0.13498,-16.7133 0.20289,-25.06995 15.25135,3.00923 31.01726,2.83006 46.43657,1.38759 16.92422,-2.47967 33.02829,-9.70338 47.01929,-19.39712 10.86381,-8.97332 21.29935,-18.73367 29.75659,-30.04551 10.83297,-17.99138 19.34434,-38.34656 18.9926,-59.70135 0.78224,-19.6033 -2.52684,-39.61354 -11.93668,-57.00099 -14.41096,-27.82019 -39.84523,-50.40006 -70.37681,-58.62416 -15.91606,-4.965299 -32.86881,-4.40004 -49.31437,-3.53078 -3.47878,0.38171 -6.89915,1.14862 -10.29618,1.97062 -0.0209,-6.218357 -0.0623,-12.472793 -0.0233,-18.669545 14.37456,-1.520454 26.32984,-17.219221 21.13418,-31.387403 C 203.22074,40.339668 195.41065,28.294564 187.84562,16.246502 181.74333,6.827274 173.08136,-3.0385707 160.6931,-2.0324161 Z M 112.72085,150.99114 c 1.41797,0.47709 6.97153,-1.04316 5.28331,1.11937 -12.83588,18.97548 -19.504142,42.05078 -18.46545,64.95922 -0.353719,11.50739 0.63033,23.14316 4.81021,33.96875 3.49572,10.34405 8.26314,20.27102 14.25695,29.40112 -15.47663,1.18165 -31.435697,-2.83651 -43.69737,-12.58416 -15.01349,-11.20069 -25.92772,-28.7797 -26.10141,-47.85795 -0.964577,-9.78976 0.202977,-19.76838 4.475792,-28.71018 9.047771,-21.34159 29.7995,-38.58068 53.357048,-40.14225 2.02522,-0.10288 4.05317,-0.14911 6.08092,-0.15392 z m 102.5618,0.10027 c 24.74798,-0.40586 48.44122,15.34264 58.38838,37.88923 4.78305,9.50946 6.63799,20.19515 5.73124,30.77577 -0.62986,26.19057 -20.14846,49.83742 -44.84123,57.5588 -8.10594,2.8421 -16.77934,3.42306 -25.30334,3.39608 20.86749,-30.01176 24.5881,-70.15304 12.91044,-104.40182 -3.09906,-8.90985 -7.55684,-17.4162 -12.8125,-25.16208 1.97459,-0.0797 3.95126,-0.0869 5.92701,-0.056 z"
     id="path2042"
     transform="scale(0.75)" />
  <g
     transform="translate(0.000000,300.000000) scale(0.100000,-0.100000)"
     fill="#000000"
     stroke="none"
     id="g1473">
    <path
       d="M1100 2719 c-99 -165 -109 -201 -58 -207 25 -3 33 5 80 80 l53 83 3 -319 c1 -176 1 -320 -1 -322 -1 -2 -43 11 -92 29 -86 30 -97 32 -235 32 -133 -1 -152 -3 -225 -28 -293 -102 -478 -346 -493 -648 -6 -136 14 -231 75 -359 39 -81 59 -107 137 -185 73 -73 108 -99 176 -133 189 -94 387 -106 581 -36 37 13 69 24 73 24 3 0 7 -134 8 -297 l3 -298 23 -3 c51 -8 52 -3 52 319 l0 298 53 -24 c95 -44 174 -59 297 -59 137 0 209 16 330 76 68 34 103 61 176 133 78 78 98 104 137 185 61 128 81 223 74 359 -6 141 -41 246 -119 363 -146 218 -372 329 -643 316 -93 -5 -180 -27 -287 -73 -17 -7 -18 12 -18 321 0 276 2 325 13 309 8 -11 30 -48 51 -82 28 -47 43 -63 60 -63 26 0 46 18 45 40 0 8 -42 83 -92 165 -125 203 -117 203 -237 4z m-125 -714 c56 -12 175 -52 175 -59 0 -1 -27 -30 -60 -64 -123 -129 -189 -282 -197 -458 -3 -58 0 -131 6 -170 24 -137 100 -282 200 -382 l52 -52 -53 -24 c-83 -36 -155 -50 -258 -49 -173 2 -327 70 -449 198 -121 128 -175 263 -175 440 0 94 4 122 28 190 109 315 417 496 731 430z m831 -19 c193 -62 340 -209 410 -411 24 -68 28 -96 28 -190 0 -126 -15 -191 -72 -300 -152 -289 -515 -418 -811 -289 l-54 24 51 50 c147 145 218 330 209 545 -8 182 -72 336 -197 467 -33 34 -60 63 -60 64 0 1 24 11 53 23 140 57 297 63 443 17z m-471 -193 c97 -117 155 -274 155 -415 -1 -144 -69 -314 -168 -419 l-61 -64 -1 483 c0 308 4 482 10 482 5 0 35 -30 65 -67z m-155 -415 l-1 -463 -48 52 c-59 63 -94 124 -129 223 -23 65 -26 91 -26 195 0 103 4 130 26 192 14 40 37 92 52 116 34 59 104 147 116 147 6 0 10 -168 10 -462z"
       id="path1471" />
  </g>
</svg>
