<?xml version="1.0" encoding="UTF-8" standalone="no"?>
<svg
   xmlns:dc="http://purl.org/dc/elements/1.1/"
   xmlns:cc="http://creativecommons.org/ns#"
   xmlns:rdf="http://www.w3.org/1999/02/22-rdf-syntax-ns#"
   xmlns:svg="http://www.w3.org/2000/svg"
   xmlns="http://www.w3.org/2000/svg"
   xmlns:sodipodi="http://sodipodi.sourceforge.net/DTD/sodipodi-0.dtd"
   xmlns:inkscape="http://www.inkscape.org/namespaces/inkscape"
   version="1.0"
   width="279.3291pt"
   height="276.2424pt"
   viewBox="0 0 279.3291 276.2424"
   preserveAspectRatio="xMidYMid meet"
   id="svg959"
   sodipodi:docname="malkavianantitribu.svg"
   inkscape:version="1.0.1 (3bc2e813f5, 2020-09-07)">
  <defs
     id="defs963" />
  <sodipodi:namedview
     pagecolor="#ffffff"
     bordercolor="#666666"
     borderopacity="1"
     objecttolerance="10"
     gridtolerance="10"
     guidetolerance="10"
     inkscape:pageopacity="0"
     inkscape:pageshadow="2"
     inkscape:window-width="1600"
     inkscape:window-height="837"
     id="namedview961"
     showgrid="false"
     inkscape:zoom="1.2127002"
     inkscape:cx="406.71704"
     inkscape:cy="136.82555"
     inkscape:window-x="-8"
     inkscape:window-y="-8"
     inkscape:window-maximized="1"
     inkscape:current-layer="svg959"
     fit-margin-top="0"
     fit-margin-left="0"
     fit-margin-right="0"
     fit-margin-bottom="0" />
  <metadata
     id="metadata953">
Created by potrace 1.16, written by Peter Selinger 2001-2019
<rdf:RDF>
  <cc:Work
     rdf:about="">
    <dc:format>image/svg+xml</dc:format>
    <dc:type
       rdf:resource="http://purl.org/dc/dcmitype/StillImage" />
    <dc:title></dc:title>
  </cc:Work>
</rdf:RDF>
</metadata>
  <path
     id="path1554"
     style="fill:#ffffff;stroke-width:0.109328"
     d="m 131.79407,54.751497 c -6.66935,0.375198 -12.94879,4.465674 -16.05462,10.368845 -3.0327,5.526013 -3.01656,12.579343 0.0724,18.079963 3.12085,5.807985 9.48831,9.6711 16.08101,9.762233 7.01948,0.218497 13.92363,-3.762413 17.37965,-9.854843 2.72616,-4.663072 3.30851,-10.507102 1.53758,-15.61185 -2.01194,-6.061088 -7.32744,-10.871488 -13.56171,-12.261478 -1.78218,-0.438523 -3.62418,-0.562046 -5.45435,-0.48287 z M 207.33015,36.24212 c -8.29546,0.0395 -16.43572,2.33503 -23.9697,5.694885 -4.84925,1.884283 -9.77976,4.214706 -13.13601,8.335956 -4.18731,4.943891 -5.60943,12.060165 -3.57443,18.218622 1.6754,5.419132 5.9027,9.815917 11.00261,12.18291 1.01028,0.568845 2.25243,0.728212 3.02218,1.655677 4.8512,4.224765 11.27753,6.70671 17.73932,6.456398 6.90093,-0.02407 13.5612,-2.868968 18.91744,-7.10976 6.02773,-4.822478 10.62893,-11.758088 11.73677,-19.484307 0.74416,-5.59388 -0.30435,-11.49979 -3.43849,-16.247702 -2.09829,-3.334255 -4.96115,-6.278963 -8.59204,-7.913795 -3.01409,-1.470545 -6.38438,-1.912868 -9.70765,-1.788884 z m -47.23113,20.590673 c -4.42026,0.264275 -8.6836,1.912603 -12.41458,4.243447 -5.03266,3.221713 -8.43726,8.870748 -8.79472,14.849568 -0.53408,6.70491 2.76007,13.588717 8.42188,17.257702 4.00933,2.729213 9.04509,3.599685 13.8079,2.99412 4.81506,-0.475297 9.31994,-2.807355 12.73674,-6.193785 4.7472,-4.469152 7.02063,-11.40135 5.72812,-17.80419 -1.17736,-6.737282 -6.37199,-12.562787 -12.92775,-14.510923 -2.11231,-0.68419 -4.34486,-0.910287 -6.55759,-0.835939 z M 69.842327,210.4151 c -13.640854,1.29528 -24.884901,16.99046 -18.791202,30.05516 4.324765,11.07794 19.549024,15.07512 28.925217,7.87864 8.4471,-5.73435 13.922857,-17.40417 8.875372,-27.08905 -3.13491,-7.16847 -11.273482,-11.60998 -19.009387,-10.84475 z M 50.310926,192.45794 c -9.869813,0.94159 -17.714535,10.42192 -16.955412,20.2768 0.402253,14.19161 17.623506,24.29701 30.254975,18.02829 9.67601,-4.49448 13.626658,-17.52782 8.325313,-26.73276 -4.103265,-7.60414 -13.195689,-12.09778 -21.624876,-11.57233 z m -7.499242,19.1316 c -16.903226,1.95977 -28.518423,24.43872 -18.007376,38.7648 6.60355,13.62124 25.436602,17.06796 36.922167,7.56862 C 73.651959,251.16439 76.942232,233.48083 66.811271,223.687 60.562,217.2052 52.42717,210.5798 42.811684,211.58954 Z M 208.05141,9.4541183 c -20.76928,-0.2676097 -40.2216,8.4384407 -57.0171,20.0183587 -13.87882,6.722058 -29.55178,24.156598 -19.95498,40.060301 9.55568,7.075132 -11.74422,6.101302 -14.7223,14.46321 -8.25561,8.353545 -13.33487,18.360012 -23.568356,24.781712 -9.578445,10.98778 -23.08668,26.15392 -13.7949,41.3281 7.832925,10.32323 15.929558,21.90558 29.012946,25.73505 9.64782,10.53539 22.42556,23.66144 39.29999,20.64003 23.17008,-1.36035 38.03433,-21.6676 53.00022,-36.89736 11.32959,-13.31964 22.99096,-26.48926 33.95578,-40.02658 7.33656,-21.740027 21.85593,-41.592287 23.21072,-65.067591 C 256.93022,28.984872 233.66016,7.3674248 208.05141,9.4541183 Z m 0.9464,45.4546027 c 7.20475,6.644543 -11.22407,23.270027 -18.17255,10.626826 -8.28453,-2.324228 -8.77669,-3.086687 -0.10314,-6.396365 5.71863,-2.624485 11.9261,-4.478804 18.27569,-4.230461 z M 159.62532,77.55177 c -7.94916,0.97401 7.11197,-5.104177 0,0 z M 139.73612,0.03177894 C 126.55757,-0.7170774 118.79307,11.909717 115.91559,23.021079 105.59376,24.709763 93.188282,18.877408 84.288744,28.110666 78.153279,35.963657 74.961339,40.916145 65.556217,33.458091 54.064689,27.241581 37.465143,32.992451 35.222349,46.653136 30.239369,59.029828 51.587091,72.85383 33.354828,78.434985 18.925738,86.323238 29.998142,104.82967 23.310566,113.5105 11.679092,115.88735 -0.74841142,124.31453 0.04122736,137.57666 -0.8511486,151.38281 12.918859,157.72211 24.297656,160.12286 c 4.178203,7.93236 -3.146771,23.71646 8.095953,31.54328 9.883726,5.18883 13.451365,16.99579 24.150887,21.06262 14.866973,4.4435 26.511968,-9.12487 36.612376,-17.75131 2.493712,-13.87233 20.383498,-20.6138 15.169318,-36.8456 -5.03365,-11.34628 -20.204923,-18.85824 -17.322358,-33.35343 6.990022,-15.591 20.207788,-27.315635 31.147438,-40.136915 10.88996,-11.66868 22.09323,-23.109143 31.75857,-35.843615 13.7211,-5.934762 12.91715,-23.96011 5.52834,-34.615643 C 156.663,5.8034243 148.71155,-0.37162657 139.73612,0.03177894 Z m 19.79296,15.20528606 0.40353,2.457257 z m 73.49706,89.927165 c -15.60402,0.0328 -23.27968,16.0912 -32.73747,25.91083 -13.72252,15.90168 -26.90853,33.13118 -44.76462,44.59289 -15.62892,8.97669 -26.44048,-5.20502 -35.58996,-15.10112 -12.23422,-6.60663 -24.775408,2.59829 -35.048383,8.33534 -5.9601,10.54702 -9.630825,20.70448 -21.238108,27.29017 -13.277421,11.463 -4.559118,35.51574 12.514535,36.98837 4.786808,14.04387 21.852548,19.75408 35.108186,14.69943 9.57429,6.27685 7.27711,27.23225 23.72775,27.84494 13.94221,3.2717 24.30742,-9.56434 26.83261,-21.89243 3.14676,-12.69713 21.41586,0.63843 29.25668,-10.00197 6.65236,-7.8821 12.02797,-13.73331 21.56326,-5.32629 10.74198,6.36154 27.43712,4.38138 31.90439,-8.72916 8.30389,-12.16199 -13.37466,-26.5607 -4.30373,-34.34885 14.13267,-7.16793 9.65462,-24.43518 12.32184,-35.07505 12.13793,-2.45393 27.34257,-9.36084 26.73855,-24.02471 0.0981,-16.40046 -17.47276,-20.7732 -29.94594,-24.77173 -4.95129,-3.19466 -10.01229,-6.95034 -16.33959,-6.39066 z m 20.24835,17.38921 0.0511,0.6402 z m -122.98671,54.32253 -0.003,0.0676 z m 97.36674,23.16911 -0.10219,0.004 z" />
  <g
     transform="matrix(0.1,0,0,-0.1,-8.0398345,284.81154)"
     fill="#000000"
     stroke="none"
     id="g957">
    <path
       d="m 1428,2590 c -40,-121 -47,-135 -69,-138 -13,-1 -66,-12 -117,-23 -86,-19 -95,-19 -111,-5 -43,39 -121,5 -121,-51 0,-24 -12,-36 -74,-76 l -74,-48 -141,71 -141,70 70,-140 70,-139 -56,-83 c -45,-66 -61,-82 -78,-80 -12,2 -34,-7 -49,-18 -33,-27 -38,-87 -8,-114 18,-16 18,-18 0,-88 -11,-40 -19,-83 -19,-97 0,-14 -4,-32 -8,-39 -5,-7 -73,-34 -152,-60 -79,-27 -140,-51 -134,-54 5,-3 68,-25 139,-48 72,-23 136,-47 143,-53 6,-5 12,-21 13,-36 0,-14 8,-57 18,-96 15,-57 16,-71 5,-82 -46,-47 -7,-133 61,-133 7,0 36,-35 65,-77 58,-89 58,-111 -5,-137 C 546,770 502,710 514,626 c 6,-35 3,-45 -15,-62 -28,-25 -49,-67 -49,-97 0,-27 43,-89 68,-98 24,-9 111,37 124,65 7,16 22,26 43,30 18,4 53,22 77,40 35,27 51,50 76,108 17,40 32,80 34,89 2,12 17,6 70,-28 58,-37 68,-48 68,-73 0,-59 81,-88 129,-46 14,12 29,11 101,-6 47,-11 95,-22 107,-24 18,-3 29,-27 69,-146 25,-79 49,-147 52,-153 3,-5 29,61 57,145 l 52,155 44,6 c 24,4 69,13 100,22 47,12 60,12 80,1 13,-7 34,-13 47,-14 27,0 72,42 72,68 0,12 28,37 78,71 l 77,53 152,-76 153,-76 -76,153 -76,152 48,73 c 26,39 53,72 60,72 28,0 63,24 75,52 10,24 9,35 -5,66 -15,35 -15,43 4,131 10,52 24,97 30,101 7,4 74,27 151,51 76,24 139,46 139,49 0,3 -67,28 -150,55 -131,43 -150,52 -150,71 0,11 9,29 19,38 26,24 38,76 20,88 -8,4 -26,6 -40,4 -22,-4 -27,0 -36,28 -8,27 -7,37 8,55 25,30 24,72 -2,105 l -21,26 41,94 c 60,140 74,198 69,277 -9,117 -86,218 -196,257 -70,24 -142,25 -252,2 -116,-23 -184,-51 -276,-111 l -61,-39 -71,12 c -76,13 -93,30 -70,71 9,17 6,24 -14,42 -15,13 -35,51 -50,96 l -25,74 z m 866,-41 c 99,-36 176,-149 176,-257 0,-55 -58,-213 -137,-374 -73,-150 -82,-183 -63,-234 10,-24 14,-26 51,-21 22,3 58,17 80,32 42,27 62,26 52,-3 -4,-9 -34,-46 -67,-82 -34,-36 -121,-140 -195,-230 -220,-269 -383,-420 -513,-473 -42,-17 -74,-22 -153,-22 -89,0 -107,3 -162,29 -68,31 -163,121 -163,154 0,11 14,26 35,38 l 35,18 32,-35 c 18,-19 61,-52 94,-72 49,-30 72,-37 112,-37 153,0 332,136 548,415 117,150 137,180 132,195 -1,5 -25,-18 -51,-53 -173,-225 -247,-307 -353,-393 -94,-77 -170,-115 -244,-121 -48,-5 -67,-1 -120,23 -67,30 -131,89 -163,150 -9,19 -20,34 -23,34 -7,0 0,-47 10,-72 6,-12 -7,-26 -54,-58 -33,-22 -66,-50 -73,-61 -15,-25 -44,-24 -52,1 -4,11 -22,27 -41,35 -19,8 -34,18 -34,23 0,5 15,34 33,65 17,30 40,69 50,87 16,29 20,32 50,25 17,-4 42,-8 54,-10 12,-1 29,-8 39,-15 14,-13 16,-12 13,4 -3,14 -21,24 -64,36 -77,21 -133,50 -168,88 -33,35 -28,56 24,92 16,12 40,45 53,74 22,50 80,108 166,166 46,31 70,60 70,87 0,13 23,42 61,77 50,45 65,53 80,46 22,-12 33,-43 24,-70 -11,-34 21,-35 62,-2 76,59 81,59 123,13 21,-23 40,-41 42,-41 3,0 46,50 98,111 l 93,110 23,-22 c 13,-12 35,-39 50,-61 31,-44 22,-45 168,13 54,21 102,39 107,39 19,0 7,-33 -50,-142 -66,-128 -76,-162 -57,-197 12,-22 13,-19 19,39 4,53 20,92 107,266 115,230 131,288 111,378 -29,129 -184,169 -390,100 -81,-27 -151,-63 -289,-150 -102,-64 -140,-69 -185,-26 l -29,27 -134,-138 c -304,-313 -424,-486 -424,-612 0,-114 27,-166 124,-240 l 26,-20 -20,-44 c -18,-39 -23,-43 -47,-37 -75,17 -191,202 -200,319 -13,153 43,244 367,597 58,63 128,137 156,165 29,27 76,84 106,125 57,77 94,117 103,108 3,-2 -2,-26 -11,-52 -19,-55 -8,-95 32,-117 34,-18 74,-3 190,71 126,80 144,89 248,115 118,31 225,32 300,4 z m -26,-108 c 67,-35 86,-64 90,-139 3,-63 0,-73 -47,-172 -45,-92 -54,-105 -78,-108 -16,-2 -67,-17 -114,-33 -48,-16 -93,-29 -101,-29 -8,0 -34,23 -57,50 -43,51 -71,62 -101,37 -8,-7 -39,-40 -69,-75 -69,-80 -86,-90 -114,-64 -35,31 -53,32 -88,6 -18,-13 -38,-24 -45,-24 -6,0 -32,16 -58,35 l -46,36 -44,-30 c -43,-30 -43,-30 -97,-16 -30,8 -69,15 -86,15 -18,0 -33,4 -33,8 0,8 298,332 306,332 2,0 22,-10 44,-21 41,-22 42,-22 102,-3 33,10 115,49 182,87 147,84 193,105 271,123 72,16 132,11 183,-15 z M 1252,1900 h 41 l -8,-37 c -4,-21 -6,-50 -6,-64 1,-30 -27,-59 -89,-90 -81,-40 -108,-65 -115,-108 -5,-30 -17,-48 -55,-80 -53,-45 -65,-49 -74,-25 -31,82 41,238 177,381 34,36 43,40 64,32 13,-5 43,-9 65,-9 z M 993,1059 c 50,-26 67,-51 67,-99 0,-26 -7,-54 -15,-66 -16,-19 -16,-19 -28,1 -18,29 -78,84 -109,101 -16,8 -28,21 -28,29 0,16 46,44 73,45 10,0 28,-5 40,-11 z M 938,947 c 13,-12 33,-34 43,-49 l 20,-27 -32,-17 c -18,-9 -54,-36 -80,-61 -31,-29 -54,-43 -64,-39 -11,4 -9,-3 6,-24 l 22,-29 -34,-77 c -29,-65 -41,-82 -78,-106 -57,-36 -100,-36 -141,-2 -43,36 -60,74 -60,132 0,35 6,57 21,76 21,27 146,96 173,96 8,0 18,9 21,20 3,11 21,31 39,45 18,14 41,43 51,64 16,37 19,39 44,30 14,-6 37,-20 49,-32 z M 591,507 c 49,-42 48,-55 -10,-94 -41,-28 -69,-19 -96,29 l -19,36 27,41 c 31,46 30,46 98,-12 z"
       id="path955" />
  </g>
</svg>
