<?xml version="1.0" encoding="UTF-8" standalone="no"?>
<svg
   xmlns:dc="http://purl.org/dc/elements/1.1/"
   xmlns:cc="http://creativecommons.org/ns#"
   xmlns:rdf="http://www.w3.org/1999/02/22-rdf-syntax-ns#"
   xmlns:svg="http://www.w3.org/2000/svg"
   xmlns="http://www.w3.org/2000/svg"
   xmlns:sodipodi="http://sodipodi.sourceforge.net/DTD/sodipodi-0.dtd"
   xmlns:inkscape="http://www.inkscape.org/namespaces/inkscape"
   version="1.0"
   width="225pt"
   height="158pt"
   viewBox="0 0 225 158"
   preserveAspectRatio="xMidYMid meet"
   id="svg3721"
   sodipodi:docname="ministry.svg"
   inkscape:version="1.0.1 (3bc2e813f5, 2020-09-07)">
  <defs
     id="defs3725" />
  <sodipodi:namedview
     pagecolor="#ffffff"
     bordercolor="#666666"
     borderopacity="1"
     objecttolerance="10"
     gridtolerance="10"
     guidetolerance="10"
     inkscape:pageopacity="0"
     inkscape:pageshadow="2"
     inkscape:window-width="1600"
     inkscape:window-height="837"
     id="namedview3723"
     showgrid="false"
     inkscape:zoom="1.4427083"
     inkscape:cx="70.934138"
     inkscape:cy="63.546329"
     inkscape:window-x="-8"
     inkscape:window-y="-8"
     inkscape:window-maximized="1"
     inkscape:current-layer="svg3721"
     inkscape:document-rotation="0"
     units="mm" />
  <metadata
     id="metadata3713">
Created by potrace 1.16, written by Peter Selinger 2001-2019
<rdf:RDF>
  <cc:Work
     rdf:about="">
    <dc:format>image/svg+xml</dc:format>
    <dc:type
       rdf:resource="http://purl.org/dc/dcmitype/StillImage" />
    <dc:title></dc:title>
  </cc:Work>
</rdf:RDF>
</metadata>
  <path
     style="fill:#ffffff;stroke:#bb0000;stroke-width:0;paint-order:stroke fill markers"
     d="m 96.535422,56.701964 c -5.569813,2.010544 -8.286713,8.091751 -7.539933,13.739621 0.33011,7.773057 -0.72863,15.762987 0.93507,23.399052 1.83012,5.941725 8.304223,8.506723 14.090991,8.017683 8.28716,-0.098 16.68458,0.75922 24.88706,-0.52189 5.56982,-2.010533 8.28672,-8.091743 7.53994,-13.739611 -0.31232,-7.98618 0.68959,-16.083062 -0.62951,-23.984431 -2.01055,-5.56982 -8.09176,-8.286716 -13.73962,-7.539936 -8.4912,0.315464 -17.1452,-0.693384 -25.543998,0.629512 z"
     id="path6184" />
  <path
     style="fill:#ffffff;stroke:#bb0000;stroke-width:0;paint-order:stroke fill markers"
     d="M 109.86898,19.074967 C 95.165102,19.007002 80.926569,25.44799 70.357937,35.503216 51.35377,52.283871 32.614985,69.403688 13.975891,86.56476 c -4.0788846,6.563775 -6.8239383,13.9408 -10.1747053,20.92119 -2.1077802,4.67141 -4.9800262,11.24114 -0.200022,15.31746 4.8682444,3.90915 10.7094213,-0.33954 15.6992323,-1.70578 6.791787,-2.75177 14.017285,-4.62385 20.454084,-8.11461 5.012265,-4.53064 10.01646,-9.07029 15.05652,-13.570055 7.360365,20.040115 26.023934,35.087185 47.03556,38.517305 15.65619,2.92441 32.47692,-0.66571 45.72312,-9.45109 17.69145,-13.92134 33.92362,-29.588905 50.73271,-44.543043 4.45012,-4.605127 10.30338,-8.06487 13.6748,-13.56877 4.23442,-9.074152 9.08375,-17.956162 12.34938,-27.426764 1.08575,-5.81992 -5.5526,-9.922329 -10.64994,-7.803925 -9.32089,2.917506 -18.49994,6.445106 -27.50602,10.157799 -5.38771,4.017098 -10.09663,8.944371 -15.24804,13.286469 -5.74676,-15.982607 -18.94811,-28.777193 -34.39982,-35.447653 -8.43601,-3.386338 -17.64646,-4.135876 -26.65377,-4.058326 z m 3.62274,37.393051 c 10.1055,0.317835 19.64025,7.562894 21.77404,17.601984 2.70394,9.2903 -2.61592,19.381955 -10.85808,23.903203 -11.62599,7.018655 -28.865558,1.40718 -33.344878,-11.611463 -2.75086,-8.029327 -0.92109,-17.611728 5.66681,-23.260355 4.298718,-4.468024 10.655498,-6.618734 16.762108,-6.633369 z"
     id="path6186" />
  <g
     transform="matrix(0.07579605,0,0,-0.0734359,3.2379155,136.93939)"
     fill="#000000"
     stroke="none"
     id="g3719"
     style="stroke-width:1.34037">
    <path
       d="m 1315,1506 c -97,-18 -208,-67 -282,-124 C 999,1356 801,1175 593,979 L 215,623 163,509 C 135,446 95,360 76,318 l -35,-77 48,18 c 26,11 115,45 197,77 l 149,57 148,140 c 81,77 149,138 151,136 2,-2 8,-25 15,-52 63,-260 266,-466 523,-532 202,-53 428,-13 595,104 38,27 179,152 313,277 135,126 303,283 374,350 l 129,121 88,192 c 49,106 83,191 76,188 -7,-2 -95,-37 -197,-76 l -185,-72 -139,-130 c -76,-71 -141,-129 -145,-129 -4,0 -13,27 -19,60 -7,32 -34,101 -59,152 -38,77 -62,109 -137,183 -141,140 -280,201 -481,210 -61,3 -127,-1 -170,-9 z m 205,-327 c 276,-45 419,-364 268,-601 -162,-255 -546,-237 -683,32 -77,154 -48,338 73,459 59,59 113,88 196,106 77,17 70,17 146,4 z"
       id="path3715"
       style="stroke-width:1.34037" />
    <path
       d="M 1290,790 V 630 h 165 165 v 160 160 h -165 -165 z"
       id="path3717"
       style="stroke-width:1.34037" />
  </g>
</svg>
