<?xml version="1.0" standalone="no"?>
<!DOCTYPE svg PUBLIC "-//W3C//DTD SVG 20010904//EN"
 "http://www.w3.org/TR/2001/REC-SVG-20010904/DTD/svg10.dtd">
<svg version="1.0" xmlns="http://www.w3.org/2000/svg"
 width="288.000000pt" height="158.000000pt" viewBox="0 0 288.000000 158.000000"
 preserveAspectRatio="xMidYMid meet">
<metadata>
Created by potrace 1.16, written by Peter Selinger 2001-2019
</metadata>
<g transform="translate(0.000000,158.000000) scale(0.100000,-0.100000)"
fill="#000000" stroke="none">
<path d="M1315 1506 c-97 -18 -208 -67 -282 -124 -34 -26 -232 -207 -440 -403
l-378 -356 -52 -114 c-28 -63 -68 -149 -87 -191 l-35 -77 48 18 c26 11 115 45
197 77 l149 57 148 140 c81 77 149 138 151 136 2 -2 8 -25 15 -52 63 -260 266
-466 523 -532 202 -53 428 -13 595 104 38 27 179 152 313 277 135 126 303 283
374 350 l129 121 88 192 c49 106 83 191 76 188 -7 -2 -95 -37 -197 -76 l-185
-72 -139 -130 c-76 -71 -141 -129 -145 -129 -4 0 -13 27 -19 60 -7 32 -34 101
-59 152 -38 77 -62 109 -137 183 -141 140 -280 201 -481 210 -61 3 -127 -1
-170 -9z m205 -327 c276 -45 419 -364 268 -601 -162 -255 -546 -237 -683 32
-77 154 -48 338 73 459 59 59 113 88 196 106 77 17 70 17 146 4z"/>
<path d="M1290 790 l0 -160 165 0 165 0 0 160 0 160 -165 0 -165 0 0 -160z"/>
</g>
</svg>
