<?xml version="1.0" encoding="UTF-8" standalone="no"?>
<svg
   xmlns:dc="http://purl.org/dc/elements/1.1/"
   xmlns:cc="http://creativecommons.org/ns#"
   xmlns:rdf="http://www.w3.org/1999/02/22-rdf-syntax-ns#"
   xmlns:svg="http://www.w3.org/2000/svg"
   xmlns="http://www.w3.org/2000/svg"
   xmlns:sodipodi="http://sodipodi.sourceforge.net/DTD/sodipodi-0.dtd"
   xmlns:inkscape="http://www.inkscape.org/namespaces/inkscape"
   version="1.0"
   width="293.91187pt"
   height="289.7998pt"
   viewBox="0 0 293.91187 289.7998"
   preserveAspectRatio="xMidYMid meet"
   id="svg2242"
   sodipodi:docname="nosferatuantitribu.svg"
   inkscape:version="1.0.1 (3bc2e813f5, 2020-09-07)">
  <defs
     id="defs2246" />
  <sodipodi:namedview
     pagecolor="#ffffff"
     bordercolor="#666666"
     borderopacity="1"
     objecttolerance="10"
     gridtolerance="10"
     guidetolerance="10"
     inkscape:pageopacity="0"
     inkscape:pageshadow="2"
     inkscape:window-width="1600"
     inkscape:window-height="837"
     id="namedview2244"
     showgrid="false"
     fit-margin-top="0"
     fit-margin-left="0"
     fit-margin-right="0"
     fit-margin-bottom="0"
     inkscape:zoom="0.86637931"
     inkscape:cx="143.56864"
     inkscape:cy="225.37877"
     inkscape:window-x="-8"
     inkscape:window-y="-8"
     inkscape:window-maximized="1"
     inkscape:current-layer="svg2242" />
  <metadata
     id="metadata2214">
Created by potrace 1.16, written by Peter Selinger 2001-2019
<rdf:RDF>
  <cc:Work
     rdf:about="">
    <dc:format>image/svg+xml</dc:format>
    <dc:type
       rdf:resource="http://purl.org/dc/dcmitype/StillImage" />
    <dc:title></dc:title>
  </cc:Work>
</rdf:RDF>
</metadata>
  <path
     id="path2855"
     style="fill:#ffffff;stroke-width:0.0382577"
     d="m 107.07842,184.18049 c -0.93209,0.12359 -1.82712,0.43406 -2.73678,0.66124 -1.28542,0.39563 -2.31915,1.49727 -2.60998,2.81337 -0.34591,1.39534 0.10344,2.98455 1.23103,3.9035 0.89915,0.78901 2.17857,1.05602 3.33603,0.80286 0.81711,-0.10355 1.6678,-0.14754 2.40681,-0.55338 1.04343,-0.53189 1.98648,-1.38253 2.34514,-2.52755 0.54248,-1.53461 0.003,-3.38715 -1.31968,-4.3503 -0.74961,-0.56934 -1.71661,-0.83326 -2.65257,-0.74974 z m -6.7136,1.11532 c -1.767772,-0.0691 -3.869085,0.34156 -4.65366,2.12997 -1.177222,2.25591 -0.335047,5.67903 2.31762,6.41986 1.569323,0.54294 3.3488,-0.17819 4.608,-0.78976 2.83955,-1.40498 2.67886,-6.16296 -0.26104,-7.38258 -0.63385,-0.27765 -1.32009,-0.40163 -2.01092,-0.37749 z m -6.427282,34.30425 c -2.381438,0.0445 -4.183148,2.2651 -4.20894,4.55923 -0.42222,3.8307 0.498045,7.84187 2.932087,10.88072 3.708975,4.74264 9.798995,7.36902 15.760925,7.37584 2.13023,0.10053 4.28169,-0.55059 5.83686,-2.05011 3.4125,-2.88745 5.27121,-7.15556 6.40353,-11.38419 0.48871,-2.04593 0.43054,-4.76482 -1.6761,-5.86393 -1.97506,-1.23987 -4.22031,0.32141 -6.33261,-0.22442 -0.69651,-0.0466 -1.43433,-0.0241 -2.07517,0.27977 -1.45719,-1.54614 -3.58546,-2.9802 -5.78238,-2.14577 -2.10251,0.44624 -4.37957,1.3229 -6.512372,0.60769 -1.039538,-0.87963 -2.09577,-1.94036 -3.556418,-2.01329 -0.261487,-0.0341 -0.52644,-0.0347 -0.789412,-0.0215 z M 109.481,207.00497 c -7.221,0.82178 -17.291097,5.98353 -15.55334,14.64371 2.122193,6.35714 9.80027,3.46873 14.1703,2.22674 2.97849,4.90765 13.8893,3.27324 11.98921,-3.63852 -1.35951,-5.00004 -4.46654,-13.10783 -10.60617,-13.23193 z M 146.73881,40.130735 c -8.70948,0.480416 -16.29801,7.355009 -18.06478,15.829833 -1.97828,6.272129 -1.74796,13.591762 2.34115,18.990277 4.55063,6.785034 13.56244,9.424892 21.30087,7.411172 6.52951,-0.68358 12.93982,-4.14501 16.1117,-10.051194 4.33604,-7.27252 2.823,-17.043693 -2.862,-23.167424 -4.53296,-5.675486 -11.37121,-9.687221 -18.82694,-9.012664 z m 19.80829,19.128434 c -5.966,0.249068 -10.93822,4.122692 -16.86449,4.630046 -6.59534,1.526603 -13.5953,1.580105 -19.87716,4.209986 -7.10228,3.342346 -10.49739,10.920463 -13.07674,17.869828 -4.75538,5.16096 -8.23271,11.358758 -12.30031,17.057281 -1.33056,2.44162 -2.63333,4.72938 -4.917717,6.40054 -9.051488,11.31829 -16.29507,24.72814 -17.556241,39.39627 -0.598207,8.5029 -1.64703,17.14339 -0.475852,25.61807 2.00001,9.22187 11.48604,15.50743 20.74879,14.4209 2.1294,-0.0412 4.53911,-0.80326 6.32225,-1.32459 -1.7834,8.80956 3.11826,17.65136 10.39905,22.44322 2.16078,1.48319 1.86869,4.75434 3.14314,6.95581 2.11851,6.60823 8.63254,12.23284 15.88135,12.92758 8.47861,1.32212 16.66891,-3.4381 21.39366,-10.27829 3.13962,-3.98794 6.14058,-8.37625 6.88946,-13.51415 -0.32793,2.04712 0.26686,-3.38161 2.26256,-2.96007 7.14829,-4.48227 10.11377,-13.0184 16.58017,-18.27932 3.21883,-2.6482 6.56088,-5.24304 10.00087,-7.52136 6.2478,-3.30766 12.48583,-7.806 14.55958,-14.92404 2.1043,-6.15654 5.7514,-12.0104 5.8116,-18.67146 3.90472,-4.98381 6.53456,-10.88897 8.88413,-16.72759 2.183,-7.1037 -2.59489,-14.21025 -0.40501,-21.2933 2.90493,-7.73024 0.83045,-17.155446 -5.84287,-22.269441 -6.27946,-4.873275 -14.81523,-4.416375 -21.64721,-8.223697 -8.42954,-3.589455 -13.89257,-11.784686 -22.52183,-14.943827 -2.41452,-0.784378 -4.8651,-1.000897 -7.39118,-0.998396 z m 77.82591,8.630509 c -9.53564,0.05266 -17.7521,7.765291 -19.40322,16.989654 -2.77821,9.42654 1.98877,20.577828 11.28605,24.248948 8.25289,3.06089 18.46859,4.43019 25.89854,-1.38301 8.0433,-5.83537 9.83987,-17.845468 4.59844,-26.130808 C 262.3202,73.522613 253.79579,67.644985 244.37301,67.889678 Z M 109.96565,188.4353 c -8.71338,-0.28421 -16.661277,4.28223 -22.663055,10.27843 -5.274847,4.31016 -9.54639,9.88665 -11.4681,16.48919 -2.502058,5.04841 -2.862421,10.69501 -3.669278,16.15752 -2.83106,8.60801 0.517824,18.96091 8.573865,23.4619 3.321878,2.03201 7.702193,2.39627 9.944236,5.98193 5.761642,6.70252 14.444862,11.17177 23.429182,10.20567 7.24493,0.0674 15.03523,-2.57729 18.86196,-9.11449 3.80163,-5.30812 3.2798,-12.14692 2.05424,-18.20426 0.43449,-2.4268 3.31887,-3.5021 4.38923,-5.64208 5.59837,-6.76051 6.14701,-17.27431 0.73379,-24.28446 -1.91054,-12.47222 -11.99335,-24.18937 -25.05629,-25.13829 -1.70344,-0.17723 -3.41834,-0.2147 -5.12978,-0.19106 z m 0.79719,21.78551 c 2.57809,2.21681 4.59571,4.81224 5.5814,8.10485 1.36867,2.95868 0.74397,6.50169 0.81895,9.66389 -1.05206,4.04574 -3.00879,8.53913 -6.73342,10.63442 -7.67864,1.10902 -17.39173,-4.1386 -17.162417,-12.71792 0.210022,-7.80484 7.123257,-14.2662 14.670417,-15.14249 0.93655,-0.14347 1.87186,-0.69082 2.82507,-0.54275 z M 145.74815,0.00969226 c -8.97107,0.10543535 -16.82589,6.78699344 -19.32544,15.24816374 -2.7974,6.777 -4.60487,14.767189 -0.94473,21.598894 4.40022,9.673317 16.18132,15.670974 26.44687,12.011076 6.79767,-2.42067 12.60978,-7.699972 15.92752,-14.057964 2.62414,-6.000323 1.22168,-12.635004 -1.25252,-18.424048 -2.08002,-7.7416926 -8.09436,-14.7554658 -16.29118,-16.05492033 -1.4977,-0.29705739 -3.03715,-0.35822272 -4.56052,-0.32120141 z M 161.2195,23.780157 c -10.55107,0.451546 -19.23945,10.505556 -18.34988,20.994228 0.34281,9.646941 8.35083,16.083071 14.58377,22.407265 10.2264,9.803069 20.55693,20.172112 33.60388,26.151502 10.66546,3.994808 21.99181,6.051653 33.23726,7.559328 10.25171,0.93705 19.69112,-8.000276 20.04351,-18.157061 0.74175,-3.928252 3.44729,-7.34637 4.95748,-11.078996 3.19314,-6.820135 7.86203,-13.965764 5.88618,-21.848397 -1.82646,-9.665482 -11.83705,-16.486055 -21.49771,-15.059032 -7.83762,1.202397 -14.67271,5.575997 -21.76437,8.846083 -1.88027,-0.954384 -3.13293,-2.375861 -3.70443,-4.427151 -5.90387,-11.794122 -21.3554,-17.920706 -33.5296,-12.401033 -4.28092,-1.779672 -8.73793,-3.399239 -13.46609,-2.986736 z m 66.43522,37.81903 c -0.52545,-0.05709 -1.09386,-0.141653 0,0 z m 12.8532,30.525917 c -8.24723,-0.06225 -14.84144,5.619256 -19.91298,11.529326 -8.8571,9.60667 -16.33457,20.60241 -20.76683,32.96146 -2.86259,7.05837 -5.24121,14.31292 -8.38534,21.25545 -9.01721,6.06493 -18.88755,11.41687 -25.48858,20.34041 -9.0464,11.21407 -15.47839,23.90401 -24.97484,34.69991 -5.86588,6.11552 -12.9781,10.85218 -19.04905,16.71808 -6.68398,7.11598 -7.2656,18.80067 -1.71449,26.7286 2.9351,7.72267 4.7397,15.91488 8.4311,23.36221 6.09377,11.21882 23.2652,13.57619 32.17123,4.51476 5.44186,-5.58789 6.2846,-13.80754 9.12133,-20.79004 0.7094,-2.13242 0.91878,-4.94665 3.87707,-4.36981 8.04198,-1.20644 16.77201,2.15002 24.13517,-2.43655 4.89355,-3.03679 8.47746,-7.8834 11.26692,-12.74229 1.73415,-2.04568 3.82388,0.71862 5.72991,1.14293 8.49715,3.74181 17.16445,9.73079 26.89315,8.07869 9.53676,-1.42096 16.88886,-10.84814 15.86595,-20.45671 -0.92853,-7.32613 -5.45616,-13.50634 -8.34091,-20.16172 -0.99417,-2.00097 -1.89714,-3.82023 -2.85406,-5.77466 12.78702,-5.46738 20.00322,-21.66149 14.77729,-34.69534 -0.24441,-3.21624 2.06987,-4.17287 4.80992,-4.74207 8.1963,-3.26194 18.08769,-4.62274 23.79201,-12.04968 6.70385,-8.18883 4.76075,-21.49907 -3.87669,-27.55576 -6.8988,-4.6908 -15.34086,-6.19538 -23.00607,-9.22238 -1.73863,-1.25349 -1.22141,-4.48503 -1.91699,-6.57316 0.46702,-10.03491 -8.03735,-19.263873 -18.06214,-19.701063 -0.83851,-0.0687 -1.68135,-0.07185 -2.52208,-0.0606 z M 137.00351,263.94571 c -0.60424,-0.0476 0.57425,-0.0557 0,0 z M 128.21323,24.170724 c -4.38149,-0.111041 -8.29703,2.072098 -12.48122,2.921641 -8.75411,-4.202479 -19.734335,-2.429351 -26.75552,4.264109 -3.264165,2.868149 -5.806657,6.495122 -7.706505,10.38637 C 73.991996,38.491295 67.04128,33.999438 59.108467,32.560818 48.912348,30.952404 38.422795,38.604286 37.053101,48.875335 c -1.505368,8.976375 4.077462,16.842643 7.475263,24.677824 1.327303,1.883613 2.316305,4.564608 -0.828865,4.931695 -10.719617,4.286325 -17.864469,15.995386 -16.27953,27.515516 0.110058,2.97029 1.516409,5.80079 2.129215,8.5464 -0.757352,1.82169 0.0044,4.94962 -2.699773,5.04228 -6.962479,2.81488 -14.883477,3.84228 -20.8049387,8.73956 -7.1608701,6.5235 -7.6267846,17.89632 -3.145808,26.03539 3.3548335,6.0205 10.0535187,8.48216 16.3157487,10.25962 3.247785,1.08 6.495674,2.15969 9.743306,3.24015 0.515297,2.10319 1.269569,4.18833 0.03943,6.1845 -3.446836,11.40774 1.390268,24.97837 12.071514,30.71221 1.655093,1.01898 5.561919,1.9881 3.991422,4.53519 -3.204164,7.33047 -7.736725,14.31404 -9.032437,22.31331 -1.318533,10.39744 6.928605,20.81823 17.435449,21.61023 5.988848,0.8862 11.591423,-2.00762 16.890459,-4.15646 9.687256,0.77432 19.273007,-6.54833 20.509344,-16.28685 0.523695,-2.97074 -0.25434,-6.04043 1.426643,-8.77028 5.47737,-12.37812 6.470542,-26.03654 6.798562,-39.39314 0.54855,-12.26706 0.186518,-24.60807 1.496335,-36.82232 2.2102,-12.3965 9.8175,-22.81621 17.57972,-32.37054 9.8394,-13.57899 19.22601,-27.780941 25.2744,-43.50254 3.35255,-10.13556 6.12489,-20.921218 4.96409,-31.665491 -1.56709,-9.485162 -10.60673,-16.619957 -20.18943,-16.080865 z M 78.842887,50.452819 c 0.03495,-0.616466 0.06075,-0.572496 0,0 z M 56.187488,242.89907 c -1.374401,-1.34609 -1.320131,-1.51517 0,0 z" />
  <g
     transform="matrix(0.1,0,0,-0.1,-0.5603261,290.06126)"
     fill="#000000"
     stroke="none"
     id="g2240">
    <path
       d="m 1440,2675 c -13,-41 -27,-75 -30,-75 -4,0 -20,4 -36,9 -16,5 -47,12 -70,15 -37,5 -42,3 -53,-20 -9,-20 -8,-28 4,-40 8,-9 18,-27 21,-42 3,-15 7,-33 9,-39 3,-7 -8,-16 -23,-19 -15,-3 -49,-12 -76,-20 -43,-12 -52,-12 -66,1 -9,8 -30,18 -48,21 -26,5 -36,1 -62,-24 -16,-17 -30,-41 -30,-54 0,-18 -17,-34 -72,-71 l -73,-49 -144,72 c -79,39 -145,69 -148,67 -2,-3 28,-69 67,-147 l 71,-141 -57,-85 c -50,-72 -62,-84 -86,-84 -65,0 -100,-80 -58,-133 l 20,-25 -20,-84 c -11,-45 -20,-95 -20,-110 0,-25 -7,-29 -157,-79 l -158,-52 155,-52 154,-51 8,-40 c 4,-21 15,-70 24,-107 14,-63 14,-70 0,-86 -26,-29 -21,-86 10,-110 15,-12 36,-21 48,-21 16,0 35,-21 74,-81 29,-44 52,-84 52,-90 0,-5 -31,-72 -70,-149 -38,-77 -70,-142 -70,-145 0,-3 37,13 82,36 77,39 83,40 93,23 22,-40 74,-84 98,-84 14,0 55,-9 92,-21 57,-17 76,-30 122,-77 l 54,-57 h 72 c 75,1 123,19 192,71 l 31,23 49,-149 c 27,-82 51,-147 55,-144 3,3 28,74 56,157 l 51,152 84,18 c 90,20 120,22 186,12 34,-6 45,-3 62,14 12,12 21,31 21,44 0,16 19,34 78,72 42,27 82,51 89,53 6,2 79,-31 162,-73 83,-41 151,-73 151,-70 0,3 -34,74 -76,158 l -76,152 48,77 c 40,63 54,77 75,77 55,2 95,97 53,132 -9,8 -13,20 -9,33 3,12 14,59 24,106 l 18,85 164,56 164,56 -163,54 c -132,44 -164,58 -167,74 -2,11 -11,57 -21,102 l -17,81 50,50 c 53,53 81,120 69,167 -10,39 -73,74 -162,90 -44,8 -91,14 -107,15 h -27 l 70,140 c 38,77 70,142 70,145 0,3 -63,-26 -139,-64 l -139,-70 -91,60 c -79,53 -91,65 -91,89 0,57 -84,91 -126,51 -19,-17 -23,-18 -85,-2 -39,10 -86,32 -121,56 -56,39 -58,42 -89,135 -17,52 -35,98 -38,103 -4,4 -18,-26 -31,-68 z m -15,-107 c 97,-32 164,-79 263,-187 91,-98 218,-203 292,-241 43,-22 191,-53 330,-70 52,-6 109,-16 127,-21 119,-37 110,-136 -23,-245 -68,-56 -157,-165 -197,-243 -19,-36 -56,-127 -82,-201 -27,-78 -57,-146 -71,-160 -13,-14 -64,-50 -115,-80 -105,-64 -133,-94 -251,-275 C 1584,670 1555,638 1415,524 1277,413 1208,375 1136,375 c -44,0 -52,4 -85,40 -63,71 -87,83 -247,124 -77,20 -95,82 -51,181 48,108 58,186 62,455 2,215 6,261 24,328 28,105 87,216 166,310 68,80 169,237 223,343 48,94 73,182 78,274 5,72 3,91 -14,122 -11,21 -17,40 -14,43 9,9 78,-4 147,-27 z"
       id="path2216" />
    <path
       d="m 1681,2191 c -55,-55 -92,-70 -250,-101 -111,-23 -164,-44 -196,-80 l -20,-23 25,16 c 45,29 113,48 244,67 94,15 141,27 178,47 50,27 88,69 88,96 0,33 -21,26 -69,-22 z"
       id="path2218" />
    <path
       d="m 2102,1965 c -59,-91 -64,-169 -22,-320 17,-59 19,-63 15,-25 -3,25 -8,90 -11,145 -6,98 -6,101 26,158 41,78 35,110 -8,42 z"
       id="path2220" />
    <path
       d="m 1770,1975 c -41,-49 -111,-56 -247,-24 -98,23 -159,20 -230,-11 -44,-19 -116,-70 -110,-76 2,-3 39,12 82,32 97,45 151,47 289,10 151,-40 186,-35 226,30 24,38 15,70 -10,39 z"
       id="path2222" />
    <path
       d="m 1866,1879 c -37,-44 -34,-86 8,-135 19,-22 49,-69 68,-105 32,-61 33,-69 33,-177 0,-108 1,-112 15,-80 9,19 15,64 15,108 0,71 -3,82 -57,195 -32,66 -58,129 -58,140 0,11 7,33 15,49 18,35 18,36 1,36 -8,0 -26,-14 -40,-31 z"
       id="path2224" />
    <path
       d="m 1204,1721 c -50,-23 -64,-41 -33,-41 12,0 51,-16 85,-34 l 63,-35 59,29 c 32,16 68,40 80,53 l 23,24 -73,7 c -40,3 -93,8 -118,11 -32,4 -57,0 -86,-14 z"
       id="path2226" />
    <path
       d="m 1700,1550 c -19,-78 -9,-114 50,-176 28,-30 53,-66 56,-84 10,-46 22,-45 29,2 8,57 -10,113 -72,221 l -51,88 z"
       id="path2228" />
    <path
       d="m 951,1483 c -40,-48 -63,-116 -51,-148 12,-32 46,-41 71,-19 23,20 24,42 4,68 -19,25 -19,57 -1,101 8,19 13,35 11,35 -2,0 -17,-17 -34,-37 z"
       id="path2230" />
    <path
       d="m 1502,1318 c -17,-40 -37,-99 -45,-131 -9,-33 -17,-60 -19,-62 -13,-13 -124,-75 -135,-75 -20,0 -43,55 -43,104 0,35 6,53 28,78 16,18 43,56 61,83 l 32,50 -33,-40 c -92,-112 -114,-118 -103,-27 l 7,55 -29,-7 c -42,-11 -108,-52 -149,-94 -75,-77 -176,-284 -188,-387 -6,-46 -4,-45 17,25 55,182 138,322 236,396 59,46 85,43 89,-11 1,-22 7,-49 12,-60 4,-11 11,-60 13,-108 6,-105 15,-120 54,-89 16,12 57,37 93,56 36,18 74,42 85,52 12,11 19,18 16,17 -9,-6 -31,20 -31,37 0,10 16,59 36,110 42,110 39,132 -4,28 z"
       id="path2232" />
    <path
       d="m 1553,1191 c -7,-10 -9,-28 -6,-40 6,-23 -20,-147 -48,-229 -10,-30 -17,-57 -15,-59 7,-8 49,74 72,141 34,98 31,241 -3,187 z"
       id="path2234" />
    <path
       d="M 1084,1021 C 1020,982 976,895 955,770 l -7,-45 55,53 c 55,51 74,59 137,53 53,-5 96,-77 88,-147 -2,-19 -3,-34 -2,-34 1,0 28,33 61,73 119,143 122,191 14,216 -27,6 -57,23 -80,44 -64,61 -88,68 -137,38 z"
       id="path2236" />
    <path
       d="m 1036,680 c -53,-27 -54,-29 -7,-23 34,5 43,2 64,-21 l 25,-26 5,22 c 7,25 -16,68 -36,68 -6,-1 -30,-10 -51,-20 z"
       id="path2238" />
  </g>
</svg>
