<?xml version="1.0" encoding="UTF-8" standalone="no"?>
<svg
   xmlns:dc="http://purl.org/dc/elements/1.1/"
   xmlns:cc="http://creativecommons.org/ns#"
   xmlns:rdf="http://www.w3.org/1999/02/22-rdf-syntax-ns#"
   xmlns:svg="http://www.w3.org/2000/svg"
   xmlns="http://www.w3.org/2000/svg"
   xmlns:sodipodi="http://sodipodi.sourceforge.net/DTD/sodipodi-0.dtd"
   xmlns:inkscape="http://www.inkscape.org/namespaces/inkscape"
   version="1.0"
   width="303.55322pt"
   height="229.24323pt"
   viewBox="0 0 303.55322 229.24323"
   preserveAspectRatio="xMidYMid meet"
   id="svg11086"
   sodipodi:docname="redeemer.svg"
   inkscape:version="1.0.1 (3bc2e813f5, 2020-09-07)">
  <defs
     id="defs11090" />
  <sodipodi:namedview
     pagecolor="#ffffff"
     bordercolor="#666666"
     borderopacity="1"
     objecttolerance="10"
     gridtolerance="10"
     guidetolerance="10"
     inkscape:pageopacity="0"
     inkscape:pageshadow="2"
     inkscape:window-width="1600"
     inkscape:window-height="837"
     id="namedview11088"
     showgrid="false"
     fit-margin-top="0"
     fit-margin-left="0"
     fit-margin-right="0"
     fit-margin-bottom="0"
     inkscape:zoom="1.6144562"
     inkscape:cx="195.42461"
     inkscape:cy="170.15627"
     inkscape:window-x="-8"
     inkscape:window-y="-8"
     inkscape:window-maximized="1"
     inkscape:current-layer="svg11086" />
  <metadata
     id="metadata11080">
Created by potrace 1.16, written by Peter Selinger 2001-2019
<rdf:RDF>
  <cc:Work
     rdf:about="">
    <dc:format>image/svg+xml</dc:format>
    <dc:type
       rdf:resource="http://purl.org/dc/dcmitype/StillImage" />
    <dc:title></dc:title>
  </cc:Work>
</rdf:RDF>
</metadata>
  <path
     id="path11694"
     style="fill:#ffffff;stroke-width:0.218992"
     transform="scale(0.75000001)"
     d="m 203.08932,83.703432 c -6.55674,-0.169238 -13.37844,2.147198 -17.68028,7.264839 -5.08152,5.578905 -6.36023,13.893019 -4.04743,20.968049 1.44322,5.86412 4.97767,11.39473 10.38778,14.29448 7.19987,4.24204 16.78727,3.09508 23.21656,-2.08267 6.6339,-5.2138 11.42247,-13.59982 10.34704,-22.23305 -0.8937,-8.541687 -7.70339,-16.006005 -16.13051,-17.669159 -1.9971,-0.441069 -4.05288,-0.554289 -6.09316,-0.542489 z M 196.21043,0.01445255 C 174.33114,-0.34659844 152.78266,6.8963711 134.87738,19.312746 126.66509,24.800021 119.36527,31.495291 112.44335,38.507 76.413673,40.015706 41.459868,58.722138 20.865977,88.435527 6.6255717,108.01264 -0.65979418,132.37692 0.32423129,156.5554 c -0.28359581,13.63966 1.49797621,27.38113 6.70073681,40.06768 14.2756509,37.74053 49.2281849,66.84835 89.0755499,73.5523 7.009512,1.22869 14.126302,1.59085 21.223052,1.91695 20.31877,20.07283 47.88077,33.27571 76.66693,33.88452 19.21339,0.14798 39.01838,-2.17622 56.31128,-11.1166 12.00053,-5.83185 22.87572,-13.78849 32.67476,-22.803 17.02944,-0.65175 34.64482,-1.4511 50.20601,-9.20042 16.37154,-6.79573 31.02668,-17.35222 42.70824,-30.6786 19.79122,-21.32286 30.39537,-50.69067 28.72784,-79.74139 -0.62795,-16.8184 -3.33985,-33.9741 -11.77562,-48.79362 C 379.56589,75.969212 354.38154,54.601962 325.50707,44.615751 313.2453,40.364252 300.08733,39.668474 287.37648,38.334002 268.37868,18.532394 243.2426,3.3531638 215.45891,0.98827829 209.07126,0.26466064 202.63817,-0.04805395 196.21043,0.01445255 Z m 6.53036,50.21040545 c 8.67685,-0.536776 17.15087,1.893124 24.84631,5.759728 -7.84653,4.747247 -15.04052,10.521879 -21.58598,16.934398 -3.49931,-0.237014 -7.62141,1.102925 -9.79795,-2.438902 -6.47539,-6.044352 -13.4021,-11.68484 -21.24724,-15.869798 8.76813,-4.13293 18.2515,-4.630087 27.78486,-4.385426 z m 1.50253,38.974034 c 8.92671,1.037885 17.74913,9.392346 15.24676,18.932948 -1.69333,9.74429 -13.10596,19.00255 -22.8231,13.66846 -9.52139,-4.54426 -14.11222,-18.15178 -7.95956,-27.03282 3.8597,-4.392891 9.79535,-6.31417 15.5359,-5.568588 z m 110.50063,5.402847 c 18.63396,8.198271 33.77419,25.177601 38.31956,45.169281 1.1795,10.23814 2.05384,20.81249 0.0895,30.99801 -5.15051,20.30633 -20.36004,37.79915 -39.63336,45.92297 3.16214,-16.52229 3.4367,-33.65148 1.08517,-50.29388 -0.78464,-4.77149 -2.9275,-9.44442 -3.51257,-14.10883 4.29074,-11.6864 5.17129,-24.18319 4.78078,-36.5262 0.0786,-6.97927 -0.55065,-14.66157 -1.1291,-21.161351 z M 84.767383,97.967325 c -3.670728,18.337515 -0.859608,37.167255 4.007975,54.975705 -5.833029,19.84593 -7.743858,41.15075 -2.703846,61.3875 -18.234437,-9.7179 -31.941756,-28.07771 -35.373822,-48.5005 -0.711958,-13.33104 -0.941018,-27.55459 6.065853,-39.4626 6.06437,-12.43243 16.16243,-22.86576 28.215546,-29.59657 l -0.107925,0.609933 z m 89.926037,30.619355 c -3.13367,15.83299 -3.04665,32.22563 -0.75975,48.16589 -12.11911,-4.55772 -21.46655,-13.95325 -29.22689,-24.01641 8.31152,-9.70778 17.80451,-19.70343 29.98664,-24.14948 z m 56.77705,2.81997 c 9.52478,4.9605 16.76918,13.30622 23.54943,21.43113 -5.91009,7.3695 -12.66391,14.27955 -20.36289,19.77373 -4.11971,3.43757 -3.38985,-0.0496 -2.70384,-3.56883 1.09444,-12.68703 0.68212,-25.56301 -1.46262,-38.12235 l 0.55483,0.27535 z m 29.95396,83.73079 c -0.19238,1.5104 -1.50199,-0.12517 0,0 z m -122.01766,0.54319 c 4.10822,2.10571 -1.86121,0.90891 0,0 z m 64.02721,19.41201 c 6.2641,5.81168 12.33209,11.92606 19.46282,16.69729 -11.1634,4.91153 -23.71561,4.08603 -35.55884,3.10427 -1.79131,-0.70018 -8.83863,-1.0582 -6.23034,-2.79094 7.70412,-5.21986 14.96934,-11.12777 21.40936,-17.85625 0.30567,0.28188 0.61134,0.56376 0.917,0.84563 z" />
  <g
     transform="matrix(0.1,0,0,-0.1,1.7899566,227.6589)"
     fill="#000000"
     stroke="none"
     id="g11084">
    <path
       d="m 1294,2111 c -130,-35 -255,-111 -347,-210 -54,-59 -58,-61 -106,-61 -125,0 -271,-45 -383,-119 C 320,1630 217,1498 164,1345 128,1240 119,1060 144,948 190,741 335,558 525,464 637,409 709,390 830,385 l 94,-5 51,-49 c 96,-93 218,-159 343,-187 112,-25 292,-16 397,20 97,33 202,97 275,167 l 55,53 110,2 c 132,3 200,19 320,78 190,94 335,277 381,484 25,112 16,292 -20,397 -78,228 -270,408 -501,470 -33,9 -107,19 -165,22 -98,6 -106,8 -124,32 -68,89 -207,185 -331,227 -109,37 -311,44 -421,15 z m 341,-76 c 88,-22 212,-87 278,-146 31,-28 57,-54 57,-58 0,-5 -34,-21 -76,-36 -89,-33 -202,-104 -264,-169 l -44,-46 h -86 -86 l -44,46 c -25,25 -72,64 -105,87 -64,44 -206,107 -242,107 -13,0 -23,4 -23,9 0,5 27,34 60,64 65,61 156,110 253,138 79,23 241,25 322,4 z M 840,1752 c 0,-4 -4,-12 -9,-17 -20,-22 -61,-161 -73,-244 -13,-98 -2,-208 29,-308 16,-50 16,-56 0,-106 -31,-100 -42,-210 -29,-308 13,-92 50,-210 84,-267 11,-18 18,-35 15,-38 -10,-10 -156,16 -221,39 -199,73 -358,249 -411,457 -25,96 -17,272 17,362 67,180 203,323 370,389 90,36 228,61 228,41 z m 1508,-28 c 192,-64 337,-206 410,-402 34,-90 42,-266 17,-362 C 2747,850 2693,753 2614,670 2495,546 2356,480 2181,465 l -83,-8 30,59 c 59,117 77,196 77,339 0,107 -4,143 -23,203 l -23,72 23,73 c 19,59 23,95 23,202 0,137 -18,223 -67,319 l -20,39 76,-6 c 43,-4 112,-18 154,-33 z m -1317,10 c 75,-23 165,-69 226,-118 29,-22 52,-43 53,-46 0,-3 -30,-16 -67,-28 -134,-46 -274,-149 -344,-251 -19,-28 -37,-51 -41,-51 -11,0 -23,90 -22,175 0,98 16,168 60,263 37,82 42,84 135,56 z m 1023,-23 c 61,-104 91,-296 66,-416 l -13,-60 -21,30 c -40,57 -171,180 -229,214 -31,18 -85,44 -118,56 l -61,22 53,47 c 29,26 80,62 114,79 65,33 164,68 180,63 5,-1 18,-17 29,-35 z m -536,-231 c -11,-18 -28,-27 -28,-16 0,2 -3,11 -6,20 -5,12 0,16 20,16 24,0 25,-2 14,-20 z m -100,-50 c 35,-58 36,-72 13,-180 -16,-72 -12,-237 8,-312 16,-62 16,-70 1,-100 -41,-83 -32,-78 -102,-62 -35,8 -101,33 -148,56 -67,33 -101,58 -165,122 -44,45 -91,103 -105,129 l -25,47 25,47 c 37,70 172,202 250,242 74,39 166,71 195,68 12,-1 33,-23 53,-57 z m 403,-26 c 69,-41 192,-169 221,-229 l 22,-45 -22,-45 c -29,-60 -152,-188 -221,-229 -53,-32 -188,-86 -215,-86 -6,0 -23,24 -37,53 l -25,52 17,65 c 23,83 24,238 3,337 -18,87 -16,101 25,165 l 30,48 73,-26 c 40,-15 98,-41 129,-60 z M 899,969 c 74,-108 214,-208 360,-256 l 84,-27 -61,-57 c -67,-61 -176,-121 -262,-143 -53,-14 -56,-14 -74,7 -27,31 -81,152 -97,217 -21,88 -14,311 9,310 4,0 22,-23 41,-51 z M 2124,850 c 0,-108 -4,-135 -26,-197 -26,-74 -70,-157 -88,-168 -15,-9 -106,22 -177,62 -35,18 -90,59 -124,90 l -61,57 75,26 c 41,15 101,42 133,61 70,42 175,137 217,198 30,44 30,44 41,20 5,-13 10,-80 10,-149 z M 1627,603 c 83,-83 170,-140 267,-175 l 59,-22 -49,-43 c -58,-52 -185,-117 -269,-138 -77,-20 -230,-19 -309,1 -86,22 -193,75 -249,124 -26,23 -47,45 -47,50 0,4 15,11 33,14 91,17 260,124 338,215 42,49 46,51 96,51 51,0 53,-1 130,-77 z"
       id="path11082" />
  </g>
</svg>
