<?xml version="1.0" encoding="UTF-8" standalone="no"?>
<svg
   xmlns:dc="http://purl.org/dc/elements/1.1/"
   xmlns:cc="http://creativecommons.org/ns#"
   xmlns:rdf="http://www.w3.org/1999/02/22-rdf-syntax-ns#"
   xmlns:svg="http://www.w3.org/2000/svg"
   xmlns="http://www.w3.org/2000/svg"
   xmlns:sodipodi="http://sodipodi.sourceforge.net/DTD/sodipodi-0.dtd"
   xmlns:inkscape="http://www.inkscape.org/namespaces/inkscape"
   version="1.0"
   width="303.000000pt"
   height="301.000000pt"
   viewBox="0 0 303.000000 301.000000"
   preserveAspectRatio="xMidYMid meet"
   id="svg5282"
   sodipodi:docname="salubriantitribu.svg"
   inkscape:version="1.0.1 (3bc2e813f5, 2020-09-07)">
  <defs
     id="defs5286" />
  <sodipodi:namedview
     pagecolor="#ffffff"
     bordercolor="#666666"
     borderopacity="1"
     objecttolerance="10"
     gridtolerance="10"
     guidetolerance="10"
     inkscape:pageopacity="0"
     inkscape:pageshadow="2"
     inkscape:window-width="1600"
     inkscape:window-height="837"
     id="namedview5284"
     showgrid="false"
     inkscape:zoom="1.180469"
     inkscape:cx="215.48851"
     inkscape:cy="228.90543"
     inkscape:window-x="-8"
     inkscape:window-y="-8"
     inkscape:window-maximized="1"
     inkscape:current-layer="svg5282" />
  <metadata
     id="metadata5270">
Created by potrace 1.16, written by Peter Selinger 2001-2019
<rdf:RDF>
  <cc:Work
     rdf:about="">
    <dc:format>image/svg+xml</dc:format>
    <dc:type
       rdf:resource="http://purl.org/dc/dcmitype/StillImage" />
  </cc:Work>
</rdf:RDF>
</metadata>
  <path
     id="path5875"
     style="fill:#ffffff;stroke-width:0.599005"
     transform="scale(0.74999999)"
     d="m 292.57142,208.84917 c -17.02936,0.59031 -33.2361,16.32601 -30.79475,33.92517 1.22752,13.11012 13.27751,23.24819 26.1899,23.6963 11.67549,0.68645 25.27967,-0.46112 33.14885,-10.30359 9.07829,-10.70924 7.26847,-27.98012 -3.23019,-37.08215 -6.78943,-6.3062 -15.89232,-10.68652 -25.31381,-10.23573 z M 169.10402,106.76039 c -7.94283,0.14024 -15.74053,4.13203 -20.33127,10.64549 -5.99845,8.23704 -6.42876,20.11638 -0.91061,28.7063 4.65515,7.60564 13.62688,12.2489 22.51975,11.73317 6.91197,-0.26223 13.76095,-3.21073 18.36054,-8.43978 5.22207,-5.75264 7.40361,-13.98695 5.92272,-21.59337 -1.45574,-8.62335 -7.64335,-16.30146 -15.8666,-19.35463 -3.07262,-1.1903 -6.40063,-1.75813 -9.69453,-1.69718 z m 71.88044,0.0251 c -13.45009,-0.11451 -25.39575,11.11172 -26.54458,24.43402 -2.11439,13.31613 7.48328,26.72036 20.56155,29.54194 12.34281,4.25375 27.46981,-1.19276 32.97034,-13.33612 6.71935,-13.36529 0.99936,-31.79212 -13.12362,-37.68811 -4.34406,-1.94358 -9.09516,-3.02947 -13.86369,-2.95173 z M 202.68441,86.649813 c -15.26372,0.07001 -27.94798,12.302736 -31.85328,26.511417 -5.1622,15.22631 1.54924,33.53207 15.97146,41.02522 16.05839,9.43486 39.0794,4.2125 48.54356,-12.11798 9.93511,-15.52334 5.18084,-38.05678 -10.12418,-48.306642 -6.55355,-4.550263 -14.51188,-7.319273 -22.53756,-7.112015 z M 252.6557,227.77164 c -6.39262,0.0809 -12.11151,3.24724 -17.16407,6.81251 -13.51813,3.85637 -21.95533,17.60383 -22.37038,31.18905 -1.47303,13.46089 9.95903,26.19592 23.38237,26.80563 4.62715,0.49745 8.40241,4.08493 12.83258,5.57118 7.45811,4.38459 16.15437,4.532 24.53788,4.09442 17.16057,-0.37194 34.36541,-0.0641 51.49834,-0.86043 9.78946,-1.2178 17.62803,-8.02147 26.33437,-12.15234 9.93961,-4.45593 17.00646,-14.92505 15.92978,-25.98535 -0.13415,-11.65459 -7.10804,-23.4123 -18.56005,-27.02885 -7.98168,-2.61581 -16.04743,-6.73274 -24.72157,-4.97229 -9.61998,0.98821 -16.2639,9.56282 -25.94493,10.35692 -9.34067,1.54907 -19.23276,-1.18948 -26.18625,-7.6853 -5.66301,-4.01716 -12.57235,-6.48333 -19.56807,-6.14515 z m -20.38723,11.07925 c 0.82397,-1.09758 0.80193,-0.96465 0,0 z M 112.62074,210.21214 c -12.767567,-0.0954 -26.12851,7.80114 -29.078269,20.80851 -3.74539,13.16262 3.791665,28.29768 16.840779,32.76734 13.28353,5.16306 30.85821,4.84697 40.6212,-6.91898 9.66056,-10.78947 7.87746,-28.9268 -3.31005,-37.95795 -6.84195,-5.94632 -16.08217,-8.81735 -25.07366,-8.69892 z m 36.08186,17.14067 c -11.13721,1.06338 -18.71037,10.2501 -28.35681,14.69083 -10.00244,1.66948 -18.45494,-4.70254 -26.390143,-9.70108 -8.955129,-5.94508 -20.826996,-5.71385 -30.040333,-0.46797 -11.698891,4.83848 -19.047946,18.099 -16.24567,30.55744 0.650483,8.85339 0.71187,18.74036 7.578348,25.35237 5.74226,5.33355 12.590536,9.48589 19.495039,13.1571 10.103756,3.68835 21.128855,2.01202 31.654839,2.56463 12.66442,-0.2592 25.39243,0.65592 38.00874,-0.53129 11.78666,-3.41449 21.24981,-11.82672 32.64081,-16.13109 9.96888,-5.24454 14.72029,-17.45104 12.29041,-28.25962 0.38952,-12.47139 -8.76832,-24.29441 -21.0459,-26.75985 -6.1257,-2.90863 -12.6854,-5.29021 -19.58933,-4.47147 z m 22.11404,-94.59365 c -11.2311,1.0782 -19.64642,9.83894 -24.57515,19.38892 -8.46755,14.90429 -17.36082,29.62832 -24.80649,45.07314 -4.75563,10.78589 -1.97307,23.93263 6.43813,32.11696 8.93987,9.13168 17.70043,19.22204 29.48111,24.72534 2.37758,1.04572 4.86052,1.85693 7.4045,2.38432 -1.04433,11.39016 5.95013,22.97969 16.96114,26.55456 10.16547,2.62223 21.08412,3.39022 31.44469,1.45334 10.36509,-2.93816 21.65612,-8.48108 25.02672,-19.5606 0.58639,-3.75057 1.1643,-6.72498 5.59414,-6.91995 12.38774,-4.98778 20.51245,-16.3242 31.49737,-23.51109 9.03875,-5.8298 16.18374,-15.84163 15.07544,-27.0188 -1.24202,-10.79772 -8.72213,-19.36706 -13.71579,-28.64138 -7.38965,-11.54747 -13.92795,-23.77814 -22.74021,-34.32498 -7.0905,-8.415 -19.35306,-10.49783 -29.39865,-6.68854 -6.89148,2.34836 -14.20357,2.75051 -21.01427,2.50429 -5.09043,0.13127 -10.40649,-0.20955 -14.55463,-3.52783 -5.44657,-3.1625 -11.82878,-4.73518 -18.11805,-4.0077 z M 42.051632,239.26388 c -13.664603,0.44029 -25.25153,13.17631 -24.351067,26.83113 0.109389,17.88308 20.205824,31.47782 36.920417,25.79596 16.093779,-4.61819 23.454655,-25.84236 14.504567,-39.74551 -5.420926,-9.58004 -16.659043,-13.09296 -27.073917,-12.88158 z m 326.142998,-8.46212 c -13.10982,0.15248 -24.50473,11.36065 -25.33204,24.36886 -2.52064,13.25676 7.26339,27.1304 20.57717,29.28357 11.95516,2.57211 25.6215,-3.22431 30.39191,-14.84294 6.36985,-13.90128 -0.78487,-32.90577 -15.86902,-37.428 -3.12228,-1.10856 -6.46582,-1.50475 -9.76802,-1.38149 z m 3.82919,41.91163 c -13.74326,-0.38628 -26.10294,11.48343 -26.44982,25.19799 -1.75507,12.20988 5.63106,25.2356 17.66591,28.79802 14.64158,5.2174 32.48397,-4.04121 36.09245,-19.30753 4.32182,-14.82853 -6.16203,-31.92757 -21.57012,-34.22159 -1.88886,-0.35499 -3.81788,-0.49044 -5.73842,-0.46689 z M 201.01141,-12.712477 c -12.07471,-0.04653 -22.41588,9.2002077 -25.74084,20.4726332 -2.38319,6.0216888 -3.93425,12.7904588 -6.58087,18.4182328 -3.98824,0.523888 -8.07532,2.290603 -11.97086,2.295806 -17.26986,-8.055325 -39.33828,0.517866 -47.71085,17.357875 -1.25463,1.875502 -1.85286,7.044938 -4.99473,4.650529 C 93.761209,45.825889 83.930567,39.924455 73.09368,36.739195 59.311586,33.367313 43.991089,43.464416 42.189775,57.661615 c -2.169178,12.687557 5.761833,23.920526 10.6056,35.003526 0.686393,2.714433 4.408175,5.738216 2.365341,8.386529 -1.654602,4.23497 -6.927613,3.83048 -10.122248,6.47558 -16.201962,9.20449 -22.751621,31.77547 -13.794663,48.13215 -1.023238,2.83551 -0.906473,6.63344 -2.555604,8.85911 -9.359582,3.78523 -20.007644,5.99367 -29.17510661,11.04174 -15.33193039,8.78562 -17.84626339,33.59388 -3.51246639,44.41446 7.6454282,5.69441 17.517756,6.99899 26.237978,10.49752 2.461216,1.44821 7.831049,0.83071 6.887623,4.71912 0.336413,13.49152 12.613413,24.97634 26.066075,24.61419 15.649135,-0.0897 27.774386,-11.42466 40.304144,-19.26409 10.421682,-5.726 24.472692,-4.98066 32.153602,-15.2646 5.01616,-6.13849 6.67734,-14.51584 5.58956,-22.18608 7.29293,-12.69374 14.40678,-25.55432 22.79495,-37.56417 10.78355,-6.7831 15.88136,-21.44154 11.08978,-33.21436 12.5972,-2.95235 24.08332,-13.53551 24.41008,-27.06681 0.56336,-4.02181 3.74328,-7.335078 5.35359,-11.057109 1.96717,-3.332109 3.93743,-7.415502 5.96838,-10.245729 2.05292,3.280176 -0.37603,7.629251 0.68726,11.397538 0.8752,10.73125 8.96556,19.1356 18.24505,23.70054 8.06001,4.70804 15.31257,11.15615 24.50023,13.62489 0.0605,7.8623 -1.37766,16.28632 3.22709,23.28568 10.49051,16.6191 21.38882,32.97724 31.75971,49.69466 -1.02745,12.22932 7.13053,24.37808 18.94588,27.83267 14.37047,8.04368 25.05497,22.87483 41.8034,26.35027 13.70341,3.25209 29.03088,-5.97789 31.68575,-19.99568 1.2824,-2.10304 -0.68959,-6.18668 1.66257,-7.09867 10.88945,-4.20665 22.88278,-6.41939 32.51847,-13.30404 11.75959,-8.64688 13.66201,-27.36317 3.60022,-38.02905 -8.13004,-9.00852 -20.90679,-10.58179 -31.6898,-14.78386 -2.38051,-1.24044 -6.28112,-1.15309 -7.72108,-3.23074 -0.36686,-4.24535 -3.36854,-8.64314 -0.64931,-12.56741 5.79669,-13.94244 0.41161,-30.58697 -11.10148,-39.89583 -3.61252,-3.06204 -7.79329,-5.45593 -12.2679,-7.00439 -2.86173,-2.70423 1.21096,-5.859474 2.00331,-8.803931 3.81459,-8.842158 9.63889,-17.181128 10.89991,-26.882051 2.05178,-14.762675 -11.10015,-28.949697 -25.89735,-28.500933 -10.91613,0.115389 -20.28545,6.700567 -30.02904,10.817656 -2.79701,0.863966 -5.82273,4.44776 -8.32396,1.233601 -2.79399,-1.17532 -4.13746,-3.422118 -5.04766,-6.19205 -6.92228,-12.530006 -21.08649,-22.559724 -35.90714,-20.447654 -4.39082,0.163702 -8.53437,2.511873 -12.66316,3.021125 -2.74426,-0.664077 -5.64928,-1.146006 -8.30535,-1.87306 C 231.21522,17.70589 229.20522,8.4676651 224.96575,0.18250963 220.05332,-8.0913766 210.59702,-13.075363 201.01141,-12.712477 Z M 311.38393,277.14392 c -85.98589,1.24819 -171.98208,1.5574 -258.014475,1.6152 -13.489136,0.0559 -25.202471,12.51899 -24.296092,25.99388 -0.137502,8.9156 3.520584,18.12561 10.951948,23.36016 -3.53553,13.53457 5.555719,28.76648 19.339486,31.60148 11.752395,3.06231 22.314385,-4.42067 32.5358,-8.97048 4.548371,-2.22476 9.073433,-4.49739 13.647903,-6.66845 2.53401,1.96703 2.57875,5.97173 4.69026,8.4902 8.16397,14.37024 26.79423,20.8279 42.28834,15.55541 4.45424,-2.52683 9.16878,0.58012 13.83781,1.01704 2.39545,2.06503 2.44731,6.76633 3.95097,9.83451 3.99855,10.30412 5.09748,22.91494 14.67936,29.90276 9.33661,6.77921 22.94102,6.23887 32.45793,0.16798 9.9972,-6.34756 11.34697,-18.98735 15.42436,-29.12487 1.2639,-3.66973 2.5296,-7.33884 3.80275,-11.00538 4.24538,-0.51865 8.5162,-3.29197 12.63058,-1.04007 17.16288,4.90445 36.85792,-4.8933 43.51444,-21.40975 2.49416,-1.70048 4.92481,-3.93913 7.66017,-1.26238 11.1347,5.01586 21.73453,11.88869 33.8607,14.23575 13.71691,2.40436 28.15705,-8.02218 29.50975,-22.01107 1.34977,-7.57823 -1.99292,-14.79014 -5.16815,-21.45657 6.39168,-12.01936 2.85697,-28.97974 -9.39668,-35.82212 -9.7868,-5.58854 -21.39886,-2.61818 -32.09118,-3.09883 -1.93867,0.0319 -3.87733,0.0637 -5.81598,0.0956 z" />
  <g
     transform="translate(0.000000,301.000000) scale(0.100000,-0.100000)"
     fill="#000000"
     stroke="none"
     id="g5280">
    <path
       d="M1461 2808 l-52 -156 -72 -13 c-40 -6 -100 -19 -134 -29 -55 -15 -64 -15 -75 -3 -52 63 -158 15 -158 -71 0 -15 -7 -27 -19 -31 -10 -3 -46 -25 -81 -49 l-63 -44 -160 79 c-87 44 -161 78 -164 76 -2 -3 32 -76 75 -163 l79 -159 -38 -50 c-21 -27 -49 -69 -61 -92 -21 -38 -27 -43 -59 -43 -78 0 -122 -102 -66 -152 l24 -21 -24 -90 c-13 -49 -23 -101 -23 -116 0 -14 -4 -31 -8 -37 -4 -6 -80 -35 -169 -65 -90 -29 -163 -56 -163 -59 0 -3 75 -30 167 -61 l168 -55 11 -68 11 -67 -39 6 c-62 11 -68 0 -68 -131 0 -99 2 -116 19 -133 17 -17 25 -18 54 -9 19 6 51 8 72 4 34 -7 36 -9 22 -24 -25 -29 -137 -228 -137 -243 0 -32 23 -39 132 -39 l108 0 -55 -110 c-30 -60 -55 -112 -55 -116 0 -3 75 33 166 81 92 47 172 85 178 83 6 -2 46 -26 88 -53 59 -38 77 -56 77 -73 1 -28 18 -63 40 -79 25 -19 85 -15 113 7 24 19 28 19 72 4 25 -9 81 -21 123 -28 l78 -12 55 -171 c30 -94 58 -174 61 -177 2 -3 32 76 64 174 57 174 60 180 86 180 15 0 69 11 120 24 87 23 95 23 112 8 44 -40 134 -1 139 61 2 22 13 34 53 57 27 16 68 42 90 58 l39 30 169 -85 c93 -46 171 -82 174 -80 2 3 -21 55 -51 116 -31 61 -56 113 -56 116 0 3 76 5 169 5 141 0 172 3 185 16 9 8 16 18 16 22 0 3 -37 62 -82 129 -44 68 -78 126 -75 129 3 3 20 -1 37 -10 30 -14 33 -14 62 7 25 19 29 27 24 55 -3 18 -1 71 5 117 6 61 6 91 -3 110 -6 14 -14 24 -17 23 -105 -54 -121 -60 -143 -55 -25 7 -25 7 -14 69 l12 63 179 61 c158 54 177 63 155 72 -14 5 -92 31 -174 58 -165 54 -156 46 -176 159 -7 39 -18 86 -25 105 -12 33 -11 38 11 63 14 16 24 41 24 58 0 41 -48 89 -89 89 -26 0 -36 9 -87 87 l-56 87 76 153 c42 84 76 155 76 158 0 3 -72 -31 -159 -74 -148 -75 -160 -79 -174 -63 -9 9 -51 39 -95 67 -70 43 -79 53 -80 80 -1 21 -11 39 -33 59 -26 23 -38 27 -67 23 -19 -4 -43 -13 -53 -22 -16 -16 -24 -15 -100 4 -46 12 -94 21 -108 21 -14 0 -33 5 -41 10 -8 5 -38 78 -66 162 l-51 153 -52 -157z m184 -280 c115 -168 136 -207 105 -199 -8 2 -41 11 -73 19 -46 12 -64 22 -83 49 -13 18 -36 49 -50 68 l-25 35 -23 -27 c-12 -16 -39 -55 -59 -88 -31 -50 -50 -68 -114 -107 -43 -25 -82 -43 -86 -38 -8 7 216 403 251 443 8 9 21 17 27 17 7 0 66 -77 130 -172z m55 -221 c30 -13 84 -44 119 -70 53 -39 70 -47 108 -47 24 0 54 5 65 11 11 6 24 7 28 2 4 -4 9 -62 11 -128 l4 -120 -45 3 c-58 4 -80 -5 -162 -66 -87 -64 -170 -86 -296 -80 -103 5 -180 35 -249 99 -71 65 -126 82 -179 54 -17 -8 -32 -11 -37 -6 -10 10 1 251 12 251 3 0 24 -6 45 -14 52 -18 90 -7 177 51 123 82 286 106 399 60z m-533 -363 c1 -5 -50 -106 -115 -224 l-117 -215 -65 -22 c-36 -12 -68 -22 -72 -22 -25 -3 6 64 113 243 121 202 122 202 178 229 56 27 72 29 78 11z m881 -36 c10 -18 76 -121 146 -228 69 -107 125 -198 123 -203 -1 -5 -27 -10 -56 -10 -47 0 -56 4 -76 29 -56 73 -266 417 -258 424 10 10 39 17 75 19 19 1 31 -7 46 -31z m-709 -92 c55 -35 104 -46 208 -46 63 0 111 6 154 20 35 10 64 18 65 17 22 -23 234 -363 231 -371 -2 -6 -25 -25 -52 -43 -27 -18 -71 -54 -99 -81 -28 -28 -61 -55 -73 -61 -36 -18 -87 -13 -127 14 -20 14 -38 25 -39 25 -1 0 -1 -47 1 -104 l4 -104 -32 -17 c-26 -13 -47 -16 -97 -10 l-63 7 3 109 c2 60 1 112 -3 114 -3 2 -32 -3 -64 -11 -84 -22 -107 -13 -201 78 -69 66 -82 83 -77 101 8 26 211 387 218 387 2 0 22 -11 43 -24z m-308 -408 c31 -16 92 -62 137 -103 89 -81 119 -95 166 -76 17 7 42 15 55 18 22 5 23 4 16 -18 -4 -13 -11 -64 -14 -114 l-6 -90 -57 3 c-77 4 -112 -7 -199 -64 -43 -28 -114 -62 -169 -81 l-95 -32 863 -1 c474 0 862 4 862 8 0 4 -13 29 -30 55 -17 26 -30 50 -30 52 0 6 73 55 81 55 9 0 169 -243 169 -257 0 -13 -415 -20 -1602 -28 -540 -3 -818 -2 -818 5 0 12 127 227 139 234 10 7 91 -54 91 -69 0 -5 -4 -17 -10 -25 -15 -24 9 -30 130 -29 113 1 114 1 63 13 -71 18 -148 57 -228 117 -72 55 -121 69 -174 51 -42 -15 -47 -3 -43 118 l3 102 35 -6 c54 -11 106 10 189 74 65 50 94 65 174 90 53 16 107 31 121 33 49 9 126 -6 181 -35z m1301 19 c18 -8 47 -26 63 -41 17 -14 33 -26 37 -26 4 0 34 -24 67 -54 79 -69 130 -86 196 -61 25 10 48 22 51 26 16 26 20 -3 16 -108 -3 -65 -9 -121 -14 -124 -6 -4 -38 -5 -72 -2 -60 4 -63 3 -166 -56 -58 -33 -125 -67 -150 -76 -62 -20 -170 -34 -222 -28 -51 6 -229 76 -269 105 -25 19 -37 20 -115 14 -48 -3 -97 -9 -110 -12 l-22 -6 5 124 c3 67 9 127 13 132 5 5 25 -1 45 -14 53 -33 98 -17 173 61 59 62 69 70 162 116 107 53 230 65 312 30z m192 -509 c24 -34 20 -38 -39 -38 -52 0 -54 1 -43 19 11 18 42 39 60 40 4 1 14 -9 22 -21z"
       id="path5272" />
    <path
       d="M1460 2202 c-110 -36 -237 -117 -202 -129 7 -3 31 -21 55 -40 83 -70 214 -106 309 -84 67 15 142 50 191 89 l37 30 -33 29 c-52 45 -202 116 -256 120 -27 2 -69 -5 -101 -15z m130 -51 c31 -22 39 -81 16 -116 -21 -32 -74 -42 -115 -21 -37 20 -47 52 -31 100 21 66 71 80 130 37z"
       id="path5274" />
    <path
       d="M724 1277 c-73 -40 -164 -105 -164 -118 0 -15 97 -86 152 -112 107 -49 207 -54 282 -15 48 25 146 94 146 103 0 18 -116 120 -166 145 -35 17 -69 25 -119 28 -64 2 -76 0 -131 -31z m186 -45 c48 -39 31 -154 -26 -168 -33 -8 -87 17 -109 50 -25 38 -16 107 15 123 36 18 94 16 120 -5z"
       id="path5276" />
    <path
       d="M2094 1305 c-27 -13 -84 -52 -126 -85 -76 -59 -77 -62 -63 -84 8 -12 36 -37 60 -55 132 -95 332 -96 468 -2 78 53 78 53 5 124 -123 121 -238 155 -344 102z m173 -80 c30 -30 35 -40 29 -67 -8 -43 -32 -66 -74 -74 -31 -6 -39 -3 -64 25 -37 41 -38 92 -3 126 34 35 70 32 112 -10z"
       id="path5278" />
  </g>
</svg>
