<?xml version="1.0" encoding="UTF-8" standalone="no"?>
<svg
   xmlns:dc="http://purl.org/dc/elements/1.1/"
   xmlns:cc="http://creativecommons.org/ns#"
   xmlns:rdf="http://www.w3.org/1999/02/22-rdf-syntax-ns#"
   xmlns:svg="http://www.w3.org/2000/svg"
   xmlns="http://www.w3.org/2000/svg"
   xmlns:sodipodi="http://sodipodi.sourceforge.net/DTD/sodipodi-0.dtd"
   xmlns:inkscape="http://www.inkscape.org/namespaces/inkscape"
   version="1.0"
   width="313.8501pt"
   height="312.8194pt"
   viewBox="0 0 313.8501 312.8194"
   preserveAspectRatio="xMidYMid meet"
   id="svg6769"
   sodipodi:docname="tremere.svg"
   inkscape:version="1.0.1 (3bc2e813f5, 2020-09-07)">
  <defs
     id="defs6773" />
  <sodipodi:namedview
     pagecolor="#ffffff"
     bordercolor="#666666"
     borderopacity="1"
     objecttolerance="10"
     gridtolerance="10"
     guidetolerance="10"
     inkscape:pageopacity="0"
     inkscape:pageshadow="2"
     inkscape:window-width="1600"
     inkscape:window-height="837"
     id="namedview6771"
     showgrid="false"
     fit-margin-top="0"
     fit-margin-left="0"
     fit-margin-right="0"
     fit-margin-bottom="0"
     inkscape:zoom="1.1844039"
     inkscape:cx="246.93746"
     inkscape:cy="254.5903"
     inkscape:window-x="-8"
     inkscape:window-y="-8"
     inkscape:window-maximized="1"
     inkscape:current-layer="svg6769" />
  <metadata
     id="metadata6759">
Created by potrace 1.16, written by Peter Selinger 2001-2019
<rdf:RDF>
  <cc:Work
     rdf:about="">
    <dc:format>image/svg+xml</dc:format>
    <dc:type
       rdf:resource="http://purl.org/dc/dcmitype/StillImage" />
    <dc:title></dc:title>
  </cc:Work>
</rdf:RDF>
</metadata>
  <path
     id="path7352"
     style="fill:#ffffff;stroke-width:0.11194"
     d="m 143.08473,249.31745 c -9.25328,0.0204 -18.50836,-0.0393 -27.76052,0.0312 -5.88117,0.18068 -11.40323,4.20773 -13.37567,9.75092 -2.126254,5.48695 -0.57067,12.14029 3.76323,16.12024 2.26393,2.23865 5.30154,3.40943 8.34326,4.15055 8.96707,2.43368 18.23369,3.81521 27.529,3.9145 5.28257,0.006 10.57506,-0.16834 15.80924,-0.93164 6.25927,-0.87781 12.52108,-2.05202 18.49216,-4.16633 4.92408,-1.99824 8.5734,-6.76485 9.17033,-12.0507 0.75541,-5.67942 -2.09905,-11.63733 -7.02124,-14.57875 -2.78753,-1.78458 -6.157,-2.39627 -9.4274,-2.24102 -8.50746,3.3e-4 -17.01493,6.8e-4 -25.52239,7.5e-4 z m 94.24634,-120.17888 c -6.1112,0.41358 -11.69793,4.91132 -13.28142,10.84567 -1.01884,3.59957 -0.45135,7.38927 -0.6003,11.07837 0.0246,14.82754 -0.0479,29.65788 0.0379,44.48366 0.15638,6.56264 5.17451,12.60292 11.59682,13.96097 6.26287,1.56255 13.29402,-1.52832 16.39012,-7.19114 1.82654,-3.3212 2.29257,-7.16646 3.11024,-10.81951 2.28219,-12.07577 2.83751,-24.50441 1.20975,-36.70136 -0.75511,-5.56532 -1.6594,-11.17145 -3.52185,-16.48393 -2.31265,-5.73968 -8.46114,-9.59498 -14.63496,-9.17793 l -0.15828,0.003 z M 141.45002,56.08228 c -8.17884,-0.0049 -16.46882,0.181941 -24.38453,2.469359 -4.72468,0.956503 -9.24266,3.739328 -11.37877,8.180192 -3.3841,6.182847 -1.47567,14.578515 4.19736,18.745533 3.35728,2.730615 7.80969,3.311048 12.0027,3.15441 15.5124,0.218228 31.03212,0.272048 46.543,0.200408 7.12209,-0.14289 13.53102,-6.08058 14.21631,-13.170996 0.9673,-6.819773 -3.49744,-13.878836 -10.05978,-15.963081 -5.63614,-1.693422 -11.47497,-2.813624 -17.33956,-3.326711 -4.59294,-0.268257 -9.19725,-0.292092 -13.79673,-0.289114 z M 56.303193,76.248554 c -7.526138,3.662573 -11.8495,11.36067 -16.988156,17.64903 -12.416715,17.746946 -21.321951,38.472116 -23.503931,60.133126 -0.384323,17.04897 -1.49698,34.58674 3.97794,51.03166 6.232324,20.6041 17.208284,40.14604 32.772648,55.10676 7.477262,7.1258 21.426545,2.95488 23.811117,-7.08841 1.700522,-7.94604 0.372203,-16.32226 0.826037,-24.43765 -0.07418,-46.43652 0.74036,-92.91471 -0.802043,-139.322323 -0.54328,-9.80617 -10.914272,-16.375223 -20.093612,-13.072193 z m 81.419517,21.054893 c -16.32288,-0.41013 -31.59286,7.766833 -43.598871,18.244943 -15.249922,13.72649 -24.506816,34.15548 -23.509132,54.7855 -0.616636,17.30377 6.378742,34.2645 17.974559,46.96293 13.970674,15.96345 35.116764,26.38853 56.594924,24.59579 33.51529,0.0828 64.58534,-27.11045 69.47349,-60.15809 1.31578,-16.36612 0.75603,-33.94835 -8.39525,-48.2071 -11.83256,-18.59471 -31.06471,-34.478978 -53.84432,-35.807633 -4.88523,-0.42612 -9.79491,-0.469785 -14.6954,-0.41634 z m 5.48016,53.009513 c 6.29273,0 12.58545,0 18.87817,0 0,12.58544 0,25.17089 0,37.75633 -12.58544,0 -25.17089,0 -37.75634,0 0,-12.58544 0,-25.17089 0,-37.75633 6.29273,0 12.58545,0 18.87817,0 z M 193.24412,0.73588223 C 184.23119,3.6020248 179.93398,15.390421 185.4612,23.19039 c 6.71939,9.054579 15.3971,16.540611 22.97176,24.893696 25.54287,26.155161 50.53561,52.871494 76.78729,78.320354 6.13725,6.74757 17.92183,6.67001 23.45715,-0.8004 5.05347,-7.10916 2.98206,-16.3574 3.85077,-24.52724 0.70935,-28.376629 1.56216,-56.800175 1.25897,-85.164941 C 313.44413,7.1966489 304.8151,1.3373532 296.54404,1.7630338 263.6899,0.5675805 230.79644,0.2146485 197.91914,0 c -1.55835,0.24529432 -3.11668,0.49058857 -4.67502,0.73588223 z M 137.65222,26.359433 C 115.25789,25.834703 93.291624,33.168305 73.777618,43.718839 42.451697,61.272051 17.609414,90.558239 6.5293797,124.83011 1.7189534,138.44996 -0.01345364,152.88342 0.10650796,167.27413 -1.3812069,203.94664 12.779371,240.9621 38.640471,267.04741 c 23.834338,26.30846 58.027765,42.82506 93.363909,45.6039 18.41069,0.64933 37.1315,-0.39589 54.68017,-6.46024 38.11644,-11.98303 69.93859,-41.17365 86.93278,-77.11766 18.14052,-39.39732 17.03695,-87.02907 -3.23541,-125.42035 C 249.32258,62.45123 207.31744,32.425984 161.2289,27.064397 153.39509,26.308925 145.51367,26.355554 137.65222,26.359433 Z m 6.70457,44.519035 c 8.2183,-0.252693 16.40459,0.83644 24.30267,3.10431 -16.94962,-0.03347 -33.89924,-0.06727 -50.84886,-0.101416 8.60759,-3.000043 17.54525,-3.145081 26.54619,-3.002894 z m -3.50503,40.920012 c 11.14328,-0.15362 22.76435,1.32949 32.12868,7.86202 14.69321,9.70494 26.65098,25.25965 27.4407,43.4061 1.40407,11.91859 -0.5627,24.2189 -6.6415,34.6644 -12.97808,24.0475 -44.4109,36.46865 -70.08531,26.49703 -10.34522,-3.18685 -18.76574,-10.28854 -25.632594,-18.44561 -10.046827,-10.49435 -13.659075,-25.41428 -12.894637,-39.60779 0.627892,-21.51447 14.837441,-41.54263 34.472111,-50.08028 6.55836,-3.39997 13.88735,-4.52932 21.21255,-4.29587 z m 97.55205,31.71839 c 4.65629,17.01015 4.43313,35.26383 -0.0977,52.27486 0,-17.53997 0,-35.07995 0,-52.61992 z M 47.763246,144.7722 c 0.115578,17.18689 0.198715,34.37401 0.237461,51.56124 -4.346276,-12.51804 -2.936248,-25.89436 -2.932399,-38.88304 0.168438,-4.75487 1.464666,-9.37096 2.685044,-13.93972 l 0.005,0.63321 z m 95.439624,119.52215 c 9.09362,0 18.18722,0 27.28083,0 -17.74417,5.44677 -37.02851,5.40011 -54.77686,0 9.16534,0 18.33069,0 27.49603,0 z" />
  <g
     transform="matrix(0.1,0,0,-0.1,6.7886939,306.57539)"
     fill="#000000"
     stroke="none"
     id="g6767">
    <path
       d="m 1997,2816 c 54,-56 280,-290 503,-520 l 405,-416 7,192 c 4,106 8,336 10,510 l 3,317 -70,5 c -38,3 -269,8 -513,10 l -443,5 z"
       id="path6761" />
    <path
       d="M 1175,2649 C 771,2590 405,2328 218,1964 117,1768 77,1601 77,1375 76,1010 206,702 470,446 917,12 1598,-40 2110,321 c 165,116 340,327 424,510 228,501 117,1085 -278,1467 -247,239 -561,364 -901,361 -66,-1 -147,-5 -180,-10 z m 358,-154 c 106,-16 245,-58 329,-101 69,-34 201,-124 258,-174 l 45,-40 H 1366 567 l 19,22 c 43,48 186,144 289,194 212,102 425,134 658,99 z m -170,-1925 802,-1 -54,-50 C 1895,318 1558,207 1255,240 744,294 341,664 245,1165 c -20,104 -20,307 0,411 39,205 132,396 266,548 l 44,50 3,-802 2,-802 z m 942,1434 c 197,-291 247,-660 134,-996 -44,-133 -133,-286 -222,-383 l -46,-50 -1,800 v 800 l 40,-45 c 22,-25 65,-82 95,-126 z m -1153,100 c -146,-43 -242,-103 -350,-219 -77,-83 -151,-213 -174,-310 -6,-27 -16,-54 -20,-59 -4,-6 -8,127 -8,295 0,168 3,309 7,312 3,4 146,7 317,6 h 311 z m 967,-291 v -318 l -19,73 c -67,256 -286,475 -544,542 l -71,19 h 318 l 317,1 z m -534,254 c 114,-38 198,-90 290,-182 142,-142 204,-284 213,-486 4,-95 1,-130 -17,-199 C 1947,708 1386,486 963,761 c -75,49 -186,164 -231,241 -149,252 -129,574 52,815 97,129 259,232 420,269 99,22 283,13 381,-19 z M 626,1174 c 42,-163 151,-321 289,-419 80,-57 133,-83 235,-116 l 85,-28 -315,2 -315,2 -3,314 c -1,173 0,312 3,309 3,-3 12,-32 21,-64 z M 2120,925 V 610 l -317,1 c -228,1 -308,4 -283,11 193,54 313,128 431,266 58,67 132,213 151,295 7,31 14,57 15,57 2,0 3,-142 3,-315 z"
       id="path6763" />
    <path
       d="m 1030,1375 v -335 h 335 335 v 335 335 h -335 -335 z"
       id="path6765" />
  </g>
</svg>
