<?xml version="1.0" encoding="UTF-8" standalone="no"?>
<svg
   xmlns:dc="http://purl.org/dc/elements/1.1/"
   xmlns:cc="http://creativecommons.org/ns#"
   xmlns:rdf="http://www.w3.org/1999/02/22-rdf-syntax-ns#"
   xmlns:svg="http://www.w3.org/2000/svg"
   xmlns="http://www.w3.org/2000/svg"
   xmlns:sodipodi="http://sodipodi.sourceforge.net/DTD/sodipodi-0.dtd"
   xmlns:inkscape="http://www.inkscape.org/namespaces/inkscape"
   version="1.0"
   width="300.000000pt"
   height="299.000000pt"
   viewBox="0 0 300.000000 299.000000"
   preserveAspectRatio="xMidYMid meet"
   id="svg883"
   sodipodi:docname="visionary.svg"
   inkscape:version="1.0.1 (3bc2e813f5, 2020-09-07)">
  <defs
     id="defs887" />
  <sodipodi:namedview
     pagecolor="#ffffff"
     bordercolor="#666666"
     borderopacity="1"
     objecttolerance="10"
     gridtolerance="10"
     guidetolerance="10"
     inkscape:pageopacity="0"
     inkscape:pageshadow="2"
     inkscape:window-width="1600"
     inkscape:window-height="837"
     id="namedview885"
     showgrid="false"
     inkscape:zoom="1.680602"
     inkscape:cx="200"
     inkscape:cy="199.33333"
     inkscape:window-x="-8"
     inkscape:window-y="-8"
     inkscape:window-maximized="1"
     inkscape:current-layer="svg883" />
  <metadata
     id="metadata875">
Created by potrace 1.16, written by Peter Selinger 2001-2019
<rdf:RDF>
  <cc:Work
     rdf:about="">
    <dc:format>image/svg+xml</dc:format>
    <dc:type
       rdf:resource="http://purl.org/dc/dcmitype/StillImage" />
  </cc:Work>
</rdf:RDF>
</metadata>
  <path
     id="path1454"
     style="fill:#ffffff;stroke-width:0.595025"
     transform="scale(0.75000001)"
     d="m 199.5793,159.41321 c -12.52289,-0.10078 -24.94726,6.43456 -32.35448,16.45267 -7.65352,11.13777 -9.54682,25.67799 -6.95551,38.74867 4.71919,16.63382 20.65824,30.24281 38.39653,29.49557 9.81385,0.36427 20.44976,-0.0535 28.43801,-6.55457 16.19028,-11.37041 22.23442,-34.37452 14.176,-52.368 -6.41353,-16.32872 -24.26738,-27.23943 -41.70055,-25.77434 z M 155.98211,-1.7769394 C 123.78533,-1.0553641 94.567316,20.451161 80.150393,48.595533 72.335593,63.640267 67.37794,80.615089 67.887045,97.661945 c 0.407053,12.103765 9.920319,23.473055 22.261134,24.500615 11.714781,1.8404 23.258451,-6.49584 26.239201,-17.77172 3.32174,-11.543117 3.106,-24.488609 10.6628,-34.478903 6.42736,-9.065892 15.18897,-17.845115 26.44491,-20.132063 3.8032,-0.35031 8.07328,-0.243597 10.53147,3.185475 5.93666,5.161026 8.39543,13.342818 8.71851,20.953708 -0.98953,3.645857 -1.48529,7.466214 -4.77343,9.841934 -24.55419,25.911659 -49.81332,51.151299 -75.328307,76.114759 -3.896151,3.55977 -8.112581,8.24119 -12.671007,11.6146 -7.237598,1.4882 -13.962008,4.76713 -21.339544,5.74339 -20.859327,4.41542 -41.527337,15.6615 -52.0391094,34.89495 -10.4654582,17.50249 -9.8985982,39.63492 -2.6845851,58.21133 13.4159545,34.25937 47.9210455,58.59587 84.4865595,60.97494 11.247612,1.39329 24.175053,-1.81824 30.383453,-12.06319 8.1979,-12.22033 1.93965,-30.40768 -11.55998,-35.74217 -10.484997,-4.53137 -22.851601,-1.85367 -32.779828,-8.14208 -10.016455,-6.01301 -19.496073,-14.50935 -23.74986,-25.64999 -2.141942,-5.11297 -1.605673,-11.47451 3.012313,-15.08946 3.736849,-3.3398 8.631066,-5.91287 13.461276,-6.7289 5.270224,3.50492 11.614798,5.15459 17.906532,5.24483 26.019187,24.81329 51.083877,50.32048 76.185267,76.06091 4.76762,5.46749 11.67489,10.50418 13.84013,18.00066 2.74116,20.95967 9.54516,42.88992 25.93008,57.26766 16.34676,14.99729 40.71203,19.96308 61.75939,13.15447 39.50463,-11.70055 68.156,-51.08413 68.52312,-92.07161 1.21411,-10.89512 -4.28048,-22.59178 -14.63569,-27.001 -12.61132,-6.14073 -29.07681,0.74805 -33.9262,13.80318 -3.355,9.11224 -1.496,19.37671 -5.82822,28.26833 -5.34111,13.11855 -16.50617,24.18377 -30.19636,28.16141 -4.28197,0.26172 -9.49331,0.76723 -12.18987,-3.39466 -4.59686,-5.57872 -6.74428,-12.72528 -8.03167,-19.72066 4.68485,-9.73286 13.08936,-16.81459 20.29809,-24.62056 22.57676,-22.7664 44.65086,-45.64056 68.00753,-67.58007 4.06109,-2.38184 8.92235,-3.79046 12.5999,-7.03139 4.24546,-2.71026 9.88453,-2.14677 14.66149,-3.64683 22.31664,-4.6177 44.4158,-17.58436 53.93953,-39.1171 11.15571,-24.82662 3.98305,-54.51593 -12.17244,-75.42056 -19.52037,-25.530324 -51.85443,-40.993588 -84.02402,-39.384375 -14.6295,0.988633 -25.3851,16.842641 -21.50922,30.840185 2.62887,12.06369 14.62869,19.88029 26.54684,20.12545 13.15783,0.19518 25.80269,6.72978 34.97197,15.95262 6.53381,6.88182 12.55353,16.71233 9.54831,26.49716 -3.91095,7.3587 -13.20779,8.99888 -20.57498,10.89555 -2.90645,0.39189 -6.39942,2.1808 -8.28279,-1.05631 -29.87832,-28.11964 -58.65042,-57.38459 -87.6288,-86.423123 0.60665,-8.481651 -2.78406,-17.181602 -9.34027,-22.679511 C 219.80555,46.075616 213.43709,28.992608 200.63337,16.736237 189.0627,4.7626214 172.67805,-2.2232938 155.98211,-1.7769394 Z M 200.74029,127.17146 c 24.4399,24.02912 48.58008,48.36018 72.83709,72.57328 -23.65431,25.0851 -48.05851,49.20027 -72.9493,73.13732 -2.53093,2.01851 -4.89875,-4.08941 -7.36301,-5.34164 -22.52641,-22.54627 -45.05283,-45.09253 -67.57926,-67.63879 24.73672,-24.52 49.3613,-49.15412 74.29095,-73.4786 l 0.42492,0.41652 z" />
  <g
     transform="translate(0.000000,299.000000) scale(0.100000,-0.100000)"
     fill="#000000"
     stroke="none"
     id="g881">
    <path
       d="M1110 2850 c-239 -43 -428 -270 -453 -543 -6 -61 7 -87 42 -87 28 0 36 18 49 110 16 117 63 212 147 299 104 109 223 156 332 132 50 -11 66 -21 114 -70 44 -45 61 -71 77 -122 33 -101 36 -133 17 -183 -9 -24 -14 -50 -10 -56 5 -8 -130 -150 -371 -391 -356 -356 -381 -379 -414 -379 -20 0 -44 -6 -55 -14 -11 -7 -42 -17 -69 -21 -270 -39 -418 -213 -372 -435 48 -230 273 -418 522 -437 82 -6 104 3 104 43 0 28 -31 44 -88 44 -200 1 -430 197 -457 389 -20 147 86 266 270 303 52 10 58 9 67 -6 16 -29 72 -48 104 -35 27 10 38 0 391 -353 200 -200 363 -370 363 -379 0 -9 9 -28 20 -42 11 -14 20 -40 20 -59 0 -53 36 -184 67 -241 74 -137 211 -205 359 -178 235 43 429 270 451 528 7 80 -3 103 -43 103 -29 0 -44 -27 -44 -82 -1 -163 -122 -348 -278 -426 -66 -32 -85 -37 -146 -37 -57 0 -80 5 -116 25 -80 45 -138 147 -159 281 -9 57 -9 64 9 76 10 7 24 30 30 51 9 29 90 115 358 384 190 191 349 345 353 342 13 -7 63 16 79 37 12 15 36 23 90 30 250 35 393 164 393 354 0 252 -228 482 -513 518 -97 12 -120 5 -120 -37 0 -32 19 -46 62 -46 118 0 261 -62 353 -155 150 -149 174 -338 58 -447 -47 -45 -131 -80 -229 -96 -87 -15 -94 -15 -112 1 -10 9 -23 17 -28 17 -5 0 -174 165 -375 366 l-366 366 5 47 c4 43 2 50 -27 74 -24 20 -34 39 -42 81 -47 254 -211 394 -419 356z m756 -962 l361 -363 -4 -41 c-5 -39 -24 -60 -343 -379 -326 -326 -339 -337 -378 -339 l-41 -2 -363 363 -363 363 380 380 c209 209 382 380 385 380 3 0 168 -163 366 -362z"
       id="path877" />
    <path
       d="M1428 1630 c-57 -31 -82 -74 -86 -150 -3 -55 0 -70 20 -99 42 -61 71 -76 151 -76 59 0 78 4 105 23 102 73 92 241 -18 299 -53 28 -121 30 -172 3z"
       id="path879" />
  </g>
</svg>
