<?xml version="1.0" encoding="UTF-8" standalone="no"?>
<svg
   xmlns:dc="http://purl.org/dc/elements/1.1/"
   xmlns:cc="http://creativecommons.org/ns#"
   xmlns:rdf="http://www.w3.org/1999/02/22-rdf-syntax-ns#"
   xmlns:svg="http://www.w3.org/2000/svg"
   xmlns="http://www.w3.org/2000/svg"
   xmlns:sodipodi="http://sodipodi.sourceforge.net/DTD/sodipodi-0.dtd"
   xmlns:inkscape="http://www.inkscape.org/namespaces/inkscape"
   version="1.0"
   width="300.000000pt"
   height="300.000000pt"
   viewBox="0 0 300.000000 300.000000"
   preserveAspectRatio="xMidYMid meet"
   id="svg144"
   sodipodi:docname="abombwe.svg"
   inkscape:version="1.0.1 (3bc2e813f5, 2020-09-07)">
  <defs
     id="defs148" />
  <sodipodi:namedview
     pagecolor="#ffffff"
     bordercolor="#666666"
     borderopacity="1"
     objecttolerance="10"
     gridtolerance="10"
     guidetolerance="10"
     inkscape:pageopacity="0"
     inkscape:pageshadow="2"
     inkscape:window-width="1600"
     inkscape:window-height="837"
     id="namedview146"
     showgrid="false"
     inkscape:zoom="1.675"
     inkscape:cx="200"
     inkscape:cy="200"
     inkscape:window-x="-8"
     inkscape:window-y="-8"
     inkscape:window-maximized="1"
     inkscape:current-layer="svg144" />
  <metadata
     id="metadata138">
Created by potrace 1.16, written by Peter Selinger 2001-2019
<rdf:RDF>
  <cc:Work
     rdf:about="">
    <dc:format>image/svg+xml</dc:format>
    <dc:type
       rdf:resource="http://purl.org/dc/dcmitype/StillImage" />
  </cc:Work>
</rdf:RDF>
</metadata>
  <g
     transform="translate(0.000000,300.000000) scale(0.100000,-0.100000)"
     fill="#000000"
     stroke="none"
     id="g142">
    <path
       d="M250 1500 l0 -1250 1250 0 1250 0 0 1250 0 1250 -1250 0 -1250 0 0 -1250z m642 1121 c30 -17 66 -31 81 -31 15 0 41 -13 61 -30 19 -17 55 -38 80 -46 26 -9 51 -25 56 -35 19 -35 67 -51 129 -45 103 11 315 13 386 3 85 -12 120 -5 154 32 31 33 62 51 89 51 11 0 39 16 62 35 23 19 51 35 63 35 11 0 45 14 75 31 34 19 75 33 108 36 52 6 53 5 73 -28 11 -19 30 -44 42 -56 60 -58 66 -453 9 -518 -38 -44 -70 -113 -70 -151 0 -46 36 -182 54 -204 41 -50 46 -189 8 -252 -11 -18 -28 -55 -38 -83 -10 -27 -28 -63 -41 -78 -13 -16 -23 -35 -23 -43 0 -16 -44 -89 -60 -99 -5 -3 -10 -17 -10 -31 0 -41 -18 -63 -62 -75 -37 -9 -44 -9 -55 7 -7 10 -13 35 -13 55 0 21 -4 40 -9 43 -13 8 -51 93 -51 114 0 11 -9 27 -20 37 -11 10 -29 43 -40 74 -12 31 -32 72 -45 91 -27 39 -48 146 -34 171 5 11 28 18 69 22 52 4 66 10 103 43 42 38 92 98 114 138 30 54 -25 100 -122 100 -85 -1 -123 -17 -183 -77 -44 -45 -54 -62 -68 -120 -23 -94 -9 -238 28 -294 14 -21 29 -55 33 -77 4 -24 19 -51 40 -73 28 -29 33 -42 33 -79 0 -50 13 -71 45 -76 27 -4 47 -42 47 -91 0 -21 9 -55 19 -75 49 -93 73 -154 67 -175 -14 -56 -158 -227 -191 -227 -11 0 -15 11 -15 41 l0 42 -59 -6 c-52 -4 -64 -2 -92 19 -18 13 -38 24 -45 24 -14 0 -24 23 -24 56 0 17 10 31 34 44 21 13 40 36 51 63 28 68 30 72 62 82 41 14 58 30 88 82 37 67 33 94 -17 135 -63 50 -62 50 -107 17 -23 -16 -56 -32 -74 -36 -42 -8 -66 -20 -98 -50 -15 -14 -44 -27 -65 -30 -34 -4 -48 1 -99 36 -33 23 -70 41 -81 41 -21 0 -69 31 -91 60 -10 13 -16 13 -45 1 -18 -7 -44 -15 -58 -19 -34 -7 -40 -18 -40 -79 0 -47 4 -58 37 -94 21 -23 61 -52 90 -65 47 -20 53 -26 53 -53 0 -44 19 -78 51 -91 18 -8 30 -22 34 -41 7 -30 -7 -59 -28 -59 -6 0 -23 -12 -38 -26 -26 -25 -30 -26 -86 -16 -69 12 -83 4 -83 -44 0 -55 -18 -45 -102 56 -70 85 -92 140 -74 185 8 17 19 55 25 84 6 28 21 65 32 81 15 19 24 51 28 92 5 55 9 63 30 68 19 4 31 21 50 66 14 33 38 77 52 99 14 22 30 51 34 65 4 14 15 34 25 45 16 17 19 44 24 172 5 150 5 152 -21 190 -14 21 -33 42 -41 47 -9 5 -26 20 -37 32 -29 31 -133 58 -188 49 -53 -9 -87 -39 -87 -78 0 -30 63 -137 80 -137 5 0 26 -14 46 -32 31 -27 46 -33 100 -36 35 -2 68 -10 74 -17 14 -17 -14 -125 -39 -145 -25 -20 -41 -53 -41 -86 0 -18 -12 -40 -32 -61 -27 -28 -33 -44 -39 -96 -5 -51 -12 -68 -38 -96 -17 -18 -32 -42 -32 -52 -1 -10 -3 -23 -4 -29 -1 -5 -3 -15 -4 -20 0 -6 -13 -15 -27 -20 -36 -14 -61 3 -76 52 -7 23 -24 54 -38 70 -14 15 -34 51 -44 78 -10 28 -22 53 -27 56 -16 10 -49 82 -49 108 0 14 -9 40 -20 58 -28 46 -28 178 -1 229 22 40 55 230 46 262 -11 39 -34 84 -49 96 -33 27 -81 223 -72 295 11 96 47 209 77 242 11 11 19 25 19 30 0 5 7 20 16 33 15 21 22 23 69 18 32 -3 74 -17 107 -36z m671 -2042 c21 -6 52 -24 69 -40 28 -27 37 -29 104 -29 45 0 76 -5 80 -12 4 -7 -12 -27 -41 -52 -27 -23 -65 -56 -84 -75 -35 -32 -38 -33 -91 -25 -70 10 -113 10 -175 0 l-50 -8 -75 62 c-123 102 -124 110 -16 110 61 0 76 3 92 21 44 49 117 68 187 48z"
       id="path140" />
  </g>
  <path
     style="fill:#ffffff;stroke-width:0.597015"
     d="m 145.07692,318.95387 c -9.47837,-9.79217 -16.63349,-21.01142 -16.84727,-26.41656 -0.0628,-1.58844 0.64493,-5.12683 1.73152,-8.65671 1.01078,-3.28359 2.30032,-7.58209 2.86564,-9.55224 0.56532,-1.97015 1.71161,-4.92537 2.54733,-6.56717 0.83571,-1.64179 2.02539,-3.99709 2.64373,-5.234 0.61834,-1.23691 1.54346,-5.26676 2.05582,-8.95522 0.51236,-3.68847 1.14147,-7.0822 1.39804,-7.54164 0.25656,-0.45943 1.64232,-1.39973 3.07946,-2.08955 2.48639,-1.19345 2.8444,-1.71701 7.3894,-10.80645 2.62702,-5.25373 5.39125,-10.41443 6.14274,-11.46822 0.75148,-1.05379 2.58693,-4.412 4.07876,-7.46269 1.49183,-3.05069 3.35661,-6.75566 4.14395,-8.23327 1.23332,-2.31459 1.51553,-4.00915 2.03824,-12.23881 0.33369,-5.25373 0.60767,-13.99949 0.60883,-19.43502 0.002,-9.4938 -0.0605,-10.01075 -1.5881,-13.13433 -2.15189,-4.40004 -11.1726,-13.12812 -16.02173,-15.50198 -10.92069,-5.34617 -23.77796,-5.43256 -29.57123,-0.19869 -4.29963,3.88445 -4.35155,6.98263 -0.25369,15.13569 2.75752,5.48632 5.24269,8.68669 8.18004,10.53412 1.39722,0.87879 4.01234,2.79366 5.81138,4.25528 4.13612,3.36038 4.81565,3.60422 12.81815,4.5996 7.40065,0.92053 9.73347,1.62136 10.29855,3.09394 0.57775,1.50558 -0.81446,8.69017 -2.47662,12.78078 -0.80388,1.97838 -2.68126,4.95359 -4.17194,6.61159 -2.71562,3.02042 -3.35136,4.52394 -4.51848,10.68619 -0.47833,2.52547 -1.26698,4.07861 -3.3347,6.56716 -3.84887,4.63223 -4.82564,6.81372 -5.61452,12.5393 -0.99551,7.22535 -2.02793,9.99307 -5.11376,13.70903 -3.5559,4.28202 -4.15531,5.50642 -4.95197,10.11522 -0.75124,4.34599 -1.34298,5.15508 -4.58557,6.26982 -4.23583,1.45621 -6.78473,-0.45705 -9.1965,-6.90308 -1.15207,-3.0792 -2.91612,-6.15488 -6.86714,-11.97314 -0.96633,-1.42302 -2.89639,-5.20043 -4.28903,-8.39425 -1.39263,-3.19383 -3.34329,-6.8207 -4.334808,-8.0597 -2.403772,-3.0038 -4.61489,-8.14976 -5.427644,-12.63183 -0.364736,-2.01139 -1.448317,-5.3173 -2.40796,-7.34647 -2.561268,-5.4158 -3.162365,-9.23596 -2.846959,-18.0933 0.245206,-6.88597 0.480362,-8.26922 2.08097,-12.24085 2.800853,-6.94983 5.391464,-19.30981 6.452673,-30.78615 0.351785,-3.80434 0.209758,-4.68446 -1.44513,-8.95522 -1.009391,-2.60494 -2.956243,-6.21018 -4.326338,-8.01167 -3.472993,-4.5665 -5.067769,-8.35069 -7.366828,-17.48046 -2.830578,-11.24049 -3.640261,-18.66454 -2.721146,-24.950403 1.579812,-10.804402 5.738685,-23.862688 9.02064,-28.323562 0.966319,-1.313433 2.450122,-3.865671 3.29734,-5.671642 0.847217,-1.80597 2.240682,-4.022388 3.096588,-4.925373 1.366533,-1.441699 2.000237,-1.641791 5.199662,-1.641791 5.02171,0 9.70529,1.33408 16.79634,4.784303 3.31999,1.615372 7.34984,3.244426 8.95522,3.620119 4.13695,0.968129 7.46373,2.539747 10.78716,5.096012 1.5829,1.217507 5.63347,3.509422 9.00128,5.093145 4.69061,2.205775 6.85608,3.636089 9.2553,6.113197 2.52792,2.609988 3.82263,3.434865 6.71254,4.27664 3.30435,0.962495 4.63963,0.983998 17.31186,0.278797 12.94483,-0.720372 32.3138,-0.581961 50.06518,0.357765 8.13296,0.430544 10.2348,-0.28202 15.76732,-5.345428 4.1152,-3.766263 7.11072,-5.412909 10.99928,-6.046325 1.30535,-0.212633 4.07283,-1.699344 6.78344,-3.64411 5.08514,-3.648425 8.66279,-5.628891 10.16841,-5.628891 0.54746,0 4.38652,-1.603177 8.53125,-3.562615 9.27638,-4.38545 15.23812,-5.932081 21.09572,-5.472786 0.56239,0.0441 2.15546,1.759282 3.54015,3.811521 1.38469,2.052238 3.67342,5.16044 5.08605,6.907114 4.98186,6.159895 6.44102,14.48021 6.45798,36.824229 0.0168,22.112014 -0.91857,27.247114 -6.25291,34.328354 -3.19141,4.23655 -6.42889,10.9659 -7.32033,15.2159 -0.58051,2.7676 -0.52976,4.35765 0.29175,9.14184 1.47433,8.58591 3.73307,15.91083 6.66451,21.61241 3.12674,6.08148 4.12982,10.41332 4.09057,17.66545 -0.0359,6.631 -1.1414,11.16014 -4.22952,17.32775 -1.2966,2.58956 -3.19892,6.74646 -4.22739,9.23754 -1.02848,2.49108 -2.79166,5.98362 -3.9182,7.7612 -1.12653,1.77757 -2.62314,4.4409 -3.3258,5.91851 -4.4772,9.41503 -5.65894,11.53514 -7.76015,13.92225 -1.99348,2.26472 -2.42959,3.26506 -2.91369,6.68336 -0.60112,4.24471 -1.82603,6.19054 -4.90579,7.79314 -2.19317,1.14124 -6.99724,2.15444 -8.28193,1.74669 -1.63398,-0.5186 -2.89093,-3.80417 -3.48428,-9.1076 -0.41498,-3.70924 -0.88893,-5.26834 -2.07366,-6.8216 -1.86732,-2.44818 -4.90529,-9.44734 -5.76425,-13.28022 -0.36368,-1.6228 -1.6479,-4.15815 -3.04043,-6.00255 -1.32595,-1.75621 -3.32853,-5.3691 -4.45019,-8.02866 -1.12166,-2.65955 -3.65924,-7.9877 -5.63907,-11.84033 -3.77023,-7.33664 -5.19157,-11.71729 -5.78756,-17.83755 -0.68675,-7.05221 -0.15006,-7.54975 9.65351,-8.94922 3.28307,-0.46866 7.10584,-1.40234 8.49504,-2.07484 4.64728,-2.24971 16.84984,-15.56896 20.15762,-22.0023 1.39945,-2.72179 1.36106,-6.27097 -0.0895,-8.27751 -0.63407,-0.87708 -2.7528,-2.40067 -4.70828,-3.38575 -3.22887,-1.62654 -4.19464,-1.81038 -10.51537,-2.00155 -12.15266,-0.36757 -16.9745,1.49145 -25.32211,9.76275 -8.70181,8.62226 -10.72728,14.51854 -10.66437,31.04477 0.047,12.34679 1.23937,18.11316 5.29105,25.58764 1.44899,2.67307 3.09305,6.47207 3.65349,8.44222 1.35287,4.75591 2.73046,7.38029 5.63669,10.73817 3.37364,3.89795 3.9673,5.33097 4.39386,10.6063 0.55392,6.85031 1.39761,8.43197 5.25789,9.85693 4.9681,1.8339 5.89067,3.69071 7.57729,15.25047 0.44423,3.04466 1.7134,6.41347 5.06072,13.43284 6.655,13.9556 6.97139,15.80601 3.64951,21.34444 -5.0653,8.44517 -17.23878,22.49892 -21.41678,24.72474 -1.5114,0.8052 -1.72082,0.78301 -2.48595,-0.26336 -0.53287,-0.72874 -0.83551,-2.69987 -0.83551,-5.44179 v -4.29916 l -8.50746,0.0849 -8.50747,0.0849 -2.85572,-1.98268 c -1.57065,-1.09046 -4.02983,-2.50203 -5.46485,-3.13681 -2.84401,-1.25804 -3.91823,-3.1786 -3.91823,-7.00523 0,-1.70969 0.45266,-2.49068 2.4571,-4.23927 6.03314,-5.26307 7.43668,-7.00312 9.44525,-11.70981 2.93278,-6.87242 4.09187,-8.21931 8.4365,-9.80344 4.69993,-1.71368 7.92345,-4.95048 11.19752,-11.24365 4.28538,-8.23703 3.98981,-11.83117 -1.37626,-16.73546 -3.87722,-3.54356 -8.51286,-6.68097 -9.8714,-6.68097 -0.54951,0 -2.65564,1.07067 -4.68027,2.37925 -5.22066,3.37427 -7.53207,4.46887 -12.62337,5.97797 -5.53619,1.64098 -6.75265,2.26009 -10.45988,5.32357 -4.01031,3.31393 -7.6275,4.9113 -11.27772,4.98031 -3.39893,0.0643 -5.46253,-0.83546 -12.59363,-5.4907 -2.46366,-1.60828 -5.68728,-3.34896 -7.16362,-3.86817 -1.47634,-0.51921 -3.86816,-1.35966 -5.31517,-1.86766 -1.51321,-0.53125 -4.27865,-2.4335 -6.50945,-4.47762 -2.46224,-2.2562 -4.39011,-3.5495 -5.27952,-3.54175 -1.63916,0.0143 -14.70642,4.39768 -15.51232,5.20358 -1.84937,1.84937 -1.91555,13.54265 -0.0967,17.09129 2.30135,4.49007 8.79793,9.91661 16.57653,13.84624 5.31331,2.6842 6.25881,3.89013 6.29254,8.02578 0.04,4.90306 2.5768,8.68172 7.70646,11.47901 1.06778,0.58229 2.27017,1.9385 2.7618,3.11516 1.78414,4.27004 0.70772,7.39614 -3.09366,8.98445 -1.15141,0.48109 -3.32747,1.96092 -4.83569,3.28851 -3.43401,3.02274 -4.49603,3.2823 -10.04994,2.45626 -10.03254,-1.49216 -12.11381,-0.74334 -12.59897,4.53298 -0.39686,4.31617 -0.73964,5.54662 -1.54518,5.54662 -0.40293,0 -2.74856,-2.0827 -5.21251,-4.62822 z"
     id="path150"
     transform="scale(0.75)" />
  <path
     style="fill:#ffffff;stroke-width:0.597015"
     d="m 175.1992,347.70878 c -13.07292,-10.91549 -15.31403,-13.37814 -13.32279,-14.63984 0.44559,-0.28234 2.95941,-0.53194 5.58628,-0.55467 2.62686,-0.0227 6.85949,-0.25995 9.40584,-0.52714 4.42851,-0.46469 4.76017,-0.60781 7.63101,-3.29315 5.47924,-5.12519 12.90676,-7.43557 20.17265,-6.27484 4.51917,0.72194 8.07276,2.42581 12.92304,6.19629 1.96096,1.5244 4.11021,2.8927 4.77613,3.04067 0.6659,0.14796 5.0427,0.49098 9.72622,0.76226 4.68352,0.27127 8.80259,0.78032 9.15349,1.13122 0.45267,0.45266 0.40697,1.01415 -0.15728,1.93281 -1.11528,1.8158 -18.14837,16.86986 -20.27242,17.91703 -1.47596,0.72766 -2.65403,0.75004 -7.55368,0.1435 -9.5151,-1.1779 -19.83856,-0.879 -28.21775,0.817 -1.26322,0.25569 -2.91232,-0.85777 -9.85074,-6.65114 z"
     id="path152"
     transform="scale(0.75)" />
</svg>
