<?xml version="1.0" encoding="UTF-8" standalone="no"?>
<svg
   xmlns:dc="http://purl.org/dc/elements/1.1/"
   xmlns:cc="http://creativecommons.org/ns#"
   xmlns:rdf="http://www.w3.org/1999/02/22-rdf-syntax-ns#"
   xmlns:svg="http://www.w3.org/2000/svg"
   xmlns="http://www.w3.org/2000/svg"
   xmlns:sodipodi="http://sodipodi.sourceforge.net/DTD/sodipodi-0.dtd"
   xmlns:inkscape="http://www.inkscape.org/namespaces/inkscape"
   version="1.0"
   width="286.000000pt"
   height="289.000000pt"
   viewBox="0 0 286.000000 289.000000"
   preserveAspectRatio="xMidYMid meet"
   id="svg78"
   sodipodi:docname="actionmodifier.svg"
   inkscape:version="1.0.1 (3bc2e813f5, 2020-09-07)">
  <defs
     id="defs82" />
  <sodipodi:namedview
     pagecolor="#ffffff"
     bordercolor="#666666"
     borderopacity="1"
     objecttolerance="10"
     gridtolerance="10"
     guidetolerance="10"
     inkscape:pageopacity="0"
     inkscape:pageshadow="2"
     inkscape:window-width="1600"
     inkscape:window-height="837"
     id="namedview80"
     showgrid="false"
     inkscape:zoom="1.7387543"
     inkscape:cx="190.66667"
     inkscape:cy="192.66667"
     inkscape:window-x="-8"
     inkscape:window-y="-8"
     inkscape:window-maximized="1"
     inkscape:current-layer="svg78" />
  <metadata
     id="metadata66">
Created by potrace 1.16, written by Peter Selinger 2001-2019
<rdf:RDF>
  <cc:Work
     rdf:about="">
    <dc:format>image/svg+xml</dc:format>
    <dc:type
       rdf:resource="http://purl.org/dc/dcmitype/StillImage" />
  </cc:Work>
</rdf:RDF>
</metadata>
  <g
     transform="translate(0.000000,289.000000) scale(0.100000,-0.100000)"
     fill="#000000"
     stroke="none"
     id="g76">
    <path
       d="M240 1450 l0 -1200 1185 0 1185 0 0 1200 0 1200 -1185 0 -1185 0 0 -1200z m1442 1106 c206 -52 368 -140 514 -278 256 -242 391 -597 355 -937 -29 -273 -141 -511 -331 -702 -440 -443 -1144 -444 -1586 -3 -171 172 -291 409 -325 643 -18 128 -7 333 25 456 82 311 303 587 589 731 234 119 515 152 759 90z"
       id="path68" />
    <path
       d="M850 1905 l-445 -445 448 -448 447 -447 0 170 0 170 -277 277 -278 278 278 278 278 278 -3 167 -3 167 -445 -445z"
       id="path70" />
    <path
       d="M1470 2180 l0 -165 277 -277 278 -278 -278 -278 -277 -277 0 -165 0 -165 442 443 443 442 -443 442 -442 443 0 -165z"
       id="path72" />
    <path
       d="M1242 1597 l-132 -132 138 -138 137 -137 135 135 135 135 -135 135 c-74 74 -137 135 -140 135 -3 0 -65 -60 -138 -133z"
       id="path74" />
  </g>
  <path
     style="fill:#ffffff;stroke-width:0.575124"
     d="M 183.47761,344.13305 C 148.52842,342.12612 117.65269,329.4334 91.077776,306.14836 70.532264,288.14631 53.136438,260.16196 45.518129,232.85739 c -3.946707,-14.14528 -4.959678,-21.76766 -4.95696,-37.30002 0.0052,-29.53836 4.570876,-49.64682 16.457045,-72.48075 4.036936,-7.75516 11.405665,-19.12689 16.58394,-25.593038 19.415275,-24.243971 46.246246,-42.311597 75.217286,-50.650337 33.02018,-9.504204 64.9443,-7.792353 97.39357,5.222488 18.13451,7.273436 32.81153,16.895202 47.32608,31.025406 27.81672,27.080131 43.64767,60.813791 46.70436,99.520851 2.39804,30.3665 -7.3801,67.00556 -24.82821,93.03221 -25.49076,38.02356 -63.60837,61.97665 -107.20733,67.36902 -7.40938,0.91641 -19.12561,1.45168 -24.7303,1.12983 z m -10.06467,-57.00389 v -22.86288 l -36.80798,-36.8046 -36.807968,-36.80461 36.903968,-36.90729 36.90397,-36.9073 -0.16793,-16.58094 c -0.0924,-9.11952 -0.32967,-19.236066 -0.52734,-22.481217 l -0.35941,-5.900275 -59.52433,59.530622 -59.524334,59.53062 59.523294,59.52538 c 32.73781,32.73895 59.71786,59.52537 59.95567,59.52537 0.23781,0 0.43239,-10.2883 0.43239,-22.86288 z m 81.81144,-155.5697 -59.09403,-59.096364 -0.15066,22.278818 -0.15066,22.278826 36.81485,36.81816 36.81485,36.81817 -36.80797,36.80461 -36.80797,36.8046 v 22.43049 22.43049 l 59.23781,-59.23572 59.23781,-59.23572 z m -49.46097,43.67539 c -8.46137,-8.4844 -16.87995,-16.73524 -18.70797,-18.33521 l -3.32365,-2.90904 -18.11236,18.0281 -18.11235,18.0281 18.55707,18.56367 18.55707,18.56366 18.26325,-18.25655 18.26324,-18.25656 z"
     id="path84"
     transform="scale(0.74999998)" />
</svg>
