<?xml version="1.0" encoding="UTF-8" standalone="no"?>
<svg
   xmlns:dc="http://purl.org/dc/elements/1.1/"
   xmlns:cc="http://creativecommons.org/ns#"
   xmlns:rdf="http://www.w3.org/1999/02/22-rdf-syntax-ns#"
   xmlns:svg="http://www.w3.org/2000/svg"
   xmlns="http://www.w3.org/2000/svg"
   xmlns:sodipodi="http://sodipodi.sourceforge.net/DTD/sodipodi-0.dtd"
   xmlns:inkscape="http://www.inkscape.org/namespaces/inkscape"
   version="1.0"
   width="288.000000pt"
   height="289.000000pt"
   viewBox="0 0 288.000000 289.000000"
   preserveAspectRatio="xMidYMid meet"
   id="svg963"
   sodipodi:docname="thaumaturgy.svg"
   inkscape:version="1.0.1 (3bc2e813f5, 2020-09-07)">
  <defs
     id="defs967" />
  <sodipodi:namedview
     pagecolor="#ffffff"
     bordercolor="#666666"
     borderopacity="1"
     objecttolerance="10"
     gridtolerance="10"
     guidetolerance="10"
     inkscape:pageopacity="0"
     inkscape:pageshadow="2"
     inkscape:window-width="1600"
     inkscape:window-height="837"
     id="namedview965"
     showgrid="false"
     inkscape:zoom="1.7387543"
     inkscape:cx="192"
     inkscape:cy="192.66667"
     inkscape:window-x="-8"
     inkscape:window-y="-8"
     inkscape:window-maximized="1"
     inkscape:current-layer="svg963" />
  <metadata
     id="metadata955">
Created by potrace 1.16, written by Peter Selinger 2001-2019
<rdf:RDF>
  <cc:Work
     rdf:about="">
    <dc:format>image/svg+xml</dc:format>
    <dc:type
       rdf:resource="http://purl.org/dc/dcmitype/StillImage" />
  </cc:Work>
</rdf:RDF>
</metadata>
  <g
     transform="translate(0.000000,289.000000) scale(0.100000,-0.100000)"
     fill="#000000"
     stroke="none"
     id="g961">
    <path
       d="M240 1450 l0 -1200 1200 0 1200 0 0 1200 0 1200 -1200 0 -1200 0 0 -1200z m2208 -2 l2 -1008 -1010 0 -1010 0 0 1003 c0 552 3 1007 7 1010 3 4 457 6 1007 5 l1001 -3 3 -1007z"
       id="path957" />
    <path
       d="M540 1450 l0 -900 900 0 900 0 0 900 0 900 -900 0 -900 0 0 -900z m934 858 c-53 -86 -417 -634 -422 -636 -4 -1 -75 68 -156 153 l-148 155 26 35 c96 126 304 251 481 288 90 20 229 22 219 5z m191 -14 c71 -18 206 -80 267 -122 55 -38 148 -121 148 -133 0 -10 -409 -363 -415 -358 -2 3 -40 148 -83 323 l-80 318 51 -6 c29 -4 79 -14 112 -22z m-176 -530 c46 -189 48 -200 31 -214 -10 -8 -57 -48 -105 -89 l-86 -74 -84 84 -84 84 136 208 c75 114 138 206 139 204 2 -2 26 -93 53 -203z m739 59 c52 -112 71 -178 81 -289 23 -257 -60 -499 -231 -680 -66 -69 -165 -151 -172 -143 -7 9 -198 789 -195 797 5 12 460 402 469 402 4 0 25 -39 48 -87z m-1277 -312 c-9 -14 -80 -122 -156 -239 -93 -143 -141 -208 -147 -200 -23 36 -70 211 -77 290 -14 152 15 332 71 442 l20 39 153 -153 154 -154 -18 -25z m196 -160 l62 -68 -211 -164 c-248 -192 -250 -193 -223 -153 10 16 81 125 158 242 77 116 142 212 146 212 3 0 34 -31 68 -69z m437 22 c8 -28 76 -315 76 -321 0 -4 -49 43 -110 103 -60 60 -110 114 -109 120 0 10 119 114 131 115 4 0 9 -8 12 -17z m-9 -455 c280 -284 268 -258 137 -301 -207 -69 -437 -55 -637 37 -81 37 -208 122 -203 136 5 13 433 379 444 379 6 1 123 -112 259 -251z"
       id="path959" />
  </g>
  <path
     style="fill:#ffffff;stroke-width:0.575124"
     d="m 57.622736,196.54876 c 0.211934,-71.56704 0.545398,-131.843158 0.741032,-133.946925 0.342519,-3.683319 0.419536,-3.837799 2.0788,-4.169652 0.947707,-0.189542 60.965442,-0.344621 133.372742,-0.344621 104.81182,0 131.69723,0.146555 131.88304,0.718906 0.12837,0.395398 0.32672,60.826592 0.44078,134.291542 l 0.20738,133.57264 H 191.79195 57.237402 Z M 312.201,192.09154 V 71.890547 H 192 71.799005 v 120.200993 120.201 H 192 312.201 Z"
     id="path969"
     transform="scale(0.74999999)" />
  <path
     style="fill:#ffffff;stroke-width:0.575124"
     d="m 85.152126,238.8204 c -2.402475,-5.62574 -6.467664,-20.99516 -8.252484,-31.2005 -0.958782,-5.48218 -0.963864,-23.31165 -0.0086,-30.19403 1.116504,-8.04411 2.800738,-15.80084 4.678637,-21.54744 1.775211,-5.43235 6.23231,-15.54808 6.850653,-15.54808 0.193057,0 9.345379,8.99712 20.338498,19.9936 l 19.98748,19.99361 -7.72411,11.78202 c -21.6008,32.94889 -25.792528,39.23091 -29.444003,44.12685 -2.179796,2.92269 -4.254902,5.31665 -4.611347,5.3199 -0.356445,0.003 -1.173068,-1.22342 -1.814717,-2.72593 z"
     id="path971"
     transform="scale(0.74999999)" />
  <path
     style="fill:#ffffff;stroke-width:0.575124"
     d="m 132.33955,154.56468 c -8.41494,-8.30429 -31.40972,-32.42762 -31.69339,-33.24885 -0.565,-1.63567 11.29411,-14.08704 19.16459,-20.12169 12.61635,-9.673516 31.50131,-18.862038 45.44597,-22.11184 9.48215,-2.209816 27.91571,-3.469287 30.14274,-2.059499 0.9725,0.615622 0.5356,1.302777 -31.74966,49.935909 -12.65184,19.05818 -23.26609,34.65124 -23.58723,34.65124 -0.32113,0 -3.79649,-3.17037 -7.72302,-7.04527 z"
     id="path973"
     transform="scale(0.74999999)" />
  <path
     style="fill:#ffffff;stroke-width:0.575124"
     d="M 165.97644,188.78458 155.20503,178.001 169.15772,156.72139 c 17.12793,-26.12225 21.70614,-32.71722 22.28769,-32.10568 0.47881,0.5035 8.07198,30.43284 10.57043,41.66448 2.53778,11.40852 3.56395,9.41713 -11.45982,22.23897 -7.12056,6.07695 -13.14035,11.049 -13.37732,11.049 -0.23697,0 -5.27798,-4.85261 -11.20226,-10.78358 z"
     id="path975"
     transform="scale(0.74999999)" />
  <path
     style="fill:#ffffff;stroke-width:0.575124"
     d="m 103.2129,257.51194 c 1.58613,-2.68262 14.88976,-23.03058 24.39774,-37.31647 12.1544,-18.26215 15.84925,-23.50293 16.57003,-23.50293 0.45864,0 15.74926,16.43391 16.07531,17.27727 0.16337,0.42255 -11.98725,10.02248 -38.99628,30.81009 -17.05184,13.12402 -19.15649,14.60885 -18.0468,12.73204 z"
     id="path977"
     transform="scale(0.74999999)" />
  <path
     style="fill:#ffffff;stroke-width:0.575124"
     d="m 221.39706,158.01542 c -0.35713,-1.34435 -5.0596,-19.91368 -10.44993,-41.26517 -5.39033,-21.351494 -9.93396,-39.270623 -10.09695,-39.820288 -0.24296,-0.819376 -0.005,-0.952935 1.32177,-0.74148 0.88995,0.141851 4.33556,0.682111 7.65691,1.200576 12.65722,1.975808 21.70837,5.021846 35.746,12.029819 4.00254,1.998179 8.91986,4.740361 10.92737,6.093738 7.57354,5.105765 20.04105,16.072985 20.04105,17.629395 0,0.48678 -1.61753,2.36645 -3.59452,4.17704 -14.4454,13.22959 -49.53149,43.14065 -50.60459,43.14065 -0.16379,0 -0.58998,-1.09992 -0.94711,-2.44428 z"
     id="path979"
     transform="scale(0.74999999)" />
  <path
     style="fill:#ffffff;stroke-width:0.575124"
     d="m 252.45419,283.37666 c -8.51683,-33.36786 -23.64623,-96.09102 -23.64623,-98.03206 0,-1.32203 4.51175,-5.62361 19.55423,-18.6433 11.74617,-10.16664 30.62303,-26.19879 37.06054,-31.47557 6.07719,-4.98143 5.10401,-5.48706 10.37828,5.39218 9.17769,18.93085 12.03765,31.20036 11.99824,51.47363 -0.0235,12.06952 -0.79938,18.64199 -3.4239,29.00259 -4.21946,16.65673 -12.70427,32.83393 -24.34164,46.40991 -4.96245,5.78912 -14.9621,15.19077 -20.91463,19.66389 -5.12734,3.85303 -4.6435,4.12825 -6.66489,-3.79127 z"
     id="path981"
     transform="scale(0.74999999)" />
  <path
     style="fill:#ffffff;stroke-width:0.575124"
     d="m 209.76995,233.73091 c -13.88371,-13.70466 -17.39551,-17.7599 -16.62566,-19.19838 0.62162,-1.16151 10.36898,-9.84422 14.2809,-12.72108 2.31551,-1.70284 2.34217,-1.70746 2.98004,-0.51558 0.81254,1.51823 10.43069,42.09375 10.06477,42.45966 -0.14875,0.14876 -4.96377,-4.36232 -10.70005,-10.02462 z"
     id="path983"
     transform="scale(0.74999999)" />
  <path
     style="fill:#ffffff;stroke-width:0.575124"
     d="m 184.10292,308.13957 c -12.74528,-0.7513 -28.60695,-4.77971 -40.32845,-10.24227 -10.06116,-4.68879 -26.8282,-15.71067 -26.8282,-17.63563 0,-1.48602 56.77927,-50.21192 58.5109,-50.21192 1.23435,0 30.37629,28.71652 53.23078,52.45372 7.30341,7.58548 11.04737,12.39253 11.04737,14.18424 0,1.83713 -2.25724,3.0876 -10.02479,5.55353 -16.62533,5.27798 -28.99436,6.87763 -45.60761,5.89833 z"
     id="path985"
     transform="scale(0.74999999)" />
</svg>
