<?xml version="1.0" encoding="UTF-8" standalone="no"?>
<svg
   xmlns:dc="http://purl.org/dc/elements/1.1/"
   xmlns:cc="http://creativecommons.org/ns#"
   xmlns:rdf="http://www.w3.org/1999/02/22-rdf-syntax-ns#"
   xmlns:svg="http://www.w3.org/2000/svg"
   xmlns="http://www.w3.org/2000/svg"
   xmlns:sodipodi="http://sodipodi.sourceforge.net/DTD/sodipodi-0.dtd"
   xmlns:inkscape="http://www.inkscape.org/namespaces/inkscape"
   version="1.0"
   width="300.000000pt"
   height="291.000000pt"
   viewBox="0 0 300.000000 291.000000"
   preserveAspectRatio="xMidYMid meet"
   id="svg865"
   sodipodi:docname="con1.svg"
   inkscape:version="1.0.2 (e86c870879, 2021-01-15)">
  <defs
     id="defs869" />
  <sodipodi:namedview
     pagecolor="#ffffff"
     bordercolor="#666666"
     borderopacity="1"
     objecttolerance="10"
     gridtolerance="10"
     guidetolerance="10"
     inkscape:pageopacity="0"
     inkscape:pageshadow="2"
     inkscape:window-width="1918"
     inkscape:window-height="1180"
     id="namedview867"
     showgrid="false"
     inkscape:zoom="1.7313182"
     inkscape:cx="62.469365"
     inkscape:cy="162.31695"
     inkscape:window-x="0"
     inkscape:window-y="18"
     inkscape:window-maximized="1"
     inkscape:current-layer="svg865" />
  <metadata
     id="metadata829">
Created by potrace 1.16, written by Peter Selinger 2001-2019
<rdf:RDF>
  <cc:Work
     rdf:about="">
    <dc:format>image/svg+xml</dc:format>
    <dc:type
       rdf:resource="http://purl.org/dc/dcmitype/StillImage" />
  </cc:Work>
</rdf:RDF>
</metadata>
  <g
     transform="translate(0.000000,291.000000) scale(0.100000,-0.100000)"
     fill="#000000"
     stroke="none"
     id="g863">
    <path
       d="M616 2881 c-16 -17 -51 -38 -78 -47 -26 -8 -48 -21 -48 -27 0 -10 48 -175 164 -568 l14 -46 -47 -53 -47 -53 -140 52 c-78 28 -154 51 -171 51 -63 0 -108 -69 -84 -129 7 -15 66 -72 132 -127 98 -81 118 -103 113 -119 -3 -11 -17 -64 -32 -117 l-25 -97 -86 -15 c-47 -8 -117 -21 -156 -27 -86 -15 -125 -47 -125 -104 0 -57 39 -89 125 -104 244 -41 245 -41 250 -70 3 -14 15 -60 26 -101 12 -41 23 -82 25 -90 3 -10 -39 -51 -115 -114 -66 -55 -125 -112 -132 -127 -24 -60 21 -129 84 -129 17 0 92 23 167 50 75 28 141 50 146 49 5 -1 28 -22 51 -48 l43 -48 -90 -304 c-50 -167 -90 -309 -90 -316 0 -6 21 -18 47 -27 26 -9 61 -30 78 -46 l32 -31 222 236 c123 129 226 235 229 235 17 -1 125 -29 129 -34 5 -4 16 -62 48 -245 l6 -33 57 6 c31 3 74 2 95 -3 33 -8 38 -7 42 13 7 31 45 249 45 257 0 3 17 9 38 13 21 3 76 16 121 30 l82 23 92 -108 91 -108 37 30 c20 15 57 37 82 48 l46 20 -21 53 c-11 29 -32 87 -48 129 l-27 75 91 91 91 91 115 -44 c63 -23 123 -43 132 -43 12 -1 21 12 29 39 7 22 10 42 8 43 -2 2 -76 29 -164 61 l-160 57 -29 -38 c-38 -48 -128 -138 -184 -183 l-43 -35 59 -162 c33 -90 56 -160 51 -157 -7 4 -194 224 -215 253 -2 2 -52 -12 -111 -32 -59 -20 -138 -39 -175 -43 -38 -4 -68 -10 -68 -13 0 -20 -60 -334 -64 -339 -3 -3 -6 -1 -6 4 0 11 -47 288 -55 319 -4 17 -18 23 -81 34 -42 7 -94 19 -116 27 -22 8 -43 14 -47 14 -4 0 -114 -114 -246 -254 -132 -140 -241 -251 -243 -247 -1 4 40 152 93 329 52 177 95 330 95 339 0 10 -8 23 -19 30 -10 6 -45 45 -78 86 l-60 74 -104 -37 c-57 -21 -134 -49 -171 -64 -38 -14 -68 -23 -68 -21 0 2 63 56 139 120 l139 117 -23 56 c-27 67 -51 156 -60 229 l-7 51 -86 16 c-48 8 -129 23 -180 32 -51 9 -91 18 -90 19 3 3 340 65 351 65 3 0 8 26 12 57 8 66 48 211 70 253 l14 27 -139 118 c-77 64 -140 118 -140 120 0 2 37 -10 83 -27 45 -17 122 -44 170 -62 l88 -31 32 40 c18 22 53 63 79 91 27 28 48 56 48 63 0 6 -43 156 -95 333 -53 177 -94 325 -93 329 3 7 135 -130 408 -421 l75 -80 61 19 c34 11 89 23 123 27 51 5 62 10 66 28 7 31 55 309 55 320 0 5 3 7 6 4 3 -3 18 -78 34 -167 16 -89 31 -165 34 -170 3 -4 35 -11 71 -14 36 -4 113 -22 171 -42 l105 -35 27 32 c15 18 66 79 114 135 l87 102 -37 30 -38 30 -88 -106 c-72 -85 -92 -104 -110 -100 -11 3 -57 14 -100 26 -44 12 -90 21 -103 21 -12 0 -23 4 -23 8 0 8 -38 224 -45 258 -4 20 -9 21 -42 13 -21 -5 -64 -6 -95 -3 l-57 6 -6 -33 c-31 -176 -43 -240 -46 -243 -2 -2 -33 -10 -69 -19 l-65 -17 -75 78 c-42 42 -143 148 -225 235 l-150 158 -29 -30z"
       id="path831" />
    <path
       d="M2016 2552 c-3 -5 -30 -78 -61 -163 l-56 -154 33 -25 c43 -32 179 -167 204 -203 l20 -28 154 56 c85 31 159 60 164 65 12 12 -13 80 -30 80 -7 0 -61 -18 -119 -40 -58 -21 -111 -40 -118 -42 -7 -1 -53 38 -103 88 l-90 91 47 127 47 128 -34 14 c-38 16 -51 17 -58 6z"
       id="path833" />
    <path
       d="M1466 2242 c3 -26 7 -47 8 -47 0 0 43 -11 93 -23 51 -13 97 -21 102 -17 6 3 19 19 31 35 l21 29 -38 16 c-35 15 -112 35 -191 49 l-33 6 7 -48z"
       id="path835" />
    <path
       d="M1193 2268 c-24 -5 -43 -13 -43 -18 0 -22 53 -70 78 -70 40 0 50 11 58 58 6 41 6 42 -22 41 -16 -1 -48 -5 -71 -11z"
       id="path837" />
    <path
       d="M1848 2095 l-17 -44 71 -69 72 -70 43 15 c36 13 41 17 33 33 -13 24 -118 130 -156 157 l-30 22 -16 -44z"
       id="path839" />
    <path
       d="M2353 1983 c-70 -58 -129 -107 -130 -108 -2 -1 8 -29 22 -62 13 -33 32 -90 41 -126 10 -43 22 -68 33 -71 31 -9 647 -156 654 -156 8 0 30 80 24 86 -2 3 -141 38 -308 78 l-303 73 -23 68 c-13 38 -23 72 -23 76 0 4 47 47 105 94 l104 87 -27 34 c-15 19 -30 34 -34 34 -3 0 -64 -48 -135 -107z"
       id="path841" />
    <path
       d="M757 1999 c-25 -29 -44 -56 -41 -60 3 -5 23 -14 44 -20 36 -11 41 -10 58 11 17 21 18 27 5 68 -7 25 -15 47 -17 49 -2 2 -24 -20 -49 -48z"
       id="path843" />
    <path
       d="M2103 1772 c-32 -26 -33 -28 -21 -64 11 -38 16 -41 76 -53 24 -5 32 -3 32 7 0 22 -41 138 -48 138 -4 0 -22 -13 -39 -28z"
       id="path845" />
    <path
       d="M596 1713 c-13 -43 -27 -100 -31 -127 l-8 -48 44 7 c56 9 59 11 59 40 0 13 9 51 19 85 l19 62 -31 29 c-18 15 -35 29 -39 29 -4 0 -18 -35 -32 -77z"
       id="path847" />
    <path
       d="M2650 1375 c-168 -41 -315 -77 -326 -80 -17 -4 -25 -19 -38 -70 -9 -36 -27 -90 -41 -121 -14 -31 -22 -60 -19 -65 8 -14 254 -219 262 -219 4 0 19 15 34 34 l27 34 -104 87 c-58 47 -105 90 -105 94 0 4 10 38 23 75 l23 69 303 73 c167 40 305 75 308 78 9 8 -18 86 -30 85 -7 0 -149 -34 -317 -74z"
       id="path849" />
    <path
       d="M565 1323 c9 -60 53 -203 63 -203 4 0 21 14 39 30 l32 28 -20 64 c-10 35 -19 73 -19 86 0 24 -5 27 -64 37 l-38 6 7 -48z"
       id="path851" />
    <path
       d="M2128 1248 c-30 -8 -39 -16 -49 -46 -11 -34 -10 -36 22 -63 19 -16 37 -29 40 -29 6 0 49 119 49 138 0 14 -10 14 -62 0z"
       id="path853" />
    <path
       d="M742 985 l-34 -15 42 -50 c23 -27 46 -52 50 -55 5 -3 15 16 23 42 23 78 -10 109 -81 78z"
       id="path855" />
    <path
       d="M1898 928 l-68 -69 16 -39 c9 -22 20 -40 26 -40 5 0 50 41 101 91 l92 92 -30 12 c-63 26 -67 25 -137 -47z"
       id="path857" />
    <path
       d="M1619 755 c-20 -7 -62 -18 -93 -25 -47 -10 -56 -15 -56 -33 0 -12 -3 -32 -6 -44 -6 -20 -3 -23 23 -23 37 0 174 34 208 52 l26 14 -33 36 c-32 36 -34 36 -69 23z"
       id="path859" />
    <path
       d="M1179 702 c-16 -18 -27 -37 -24 -41 5 -10 125 -35 132 -28 2 3 1 25 -2 50 -7 42 -9 45 -42 49 -29 4 -39 -1 -64 -30z"
       id="path861" />
  </g>
  <path
     style="fill:none;stroke:#000000;stroke-width:0.75px;stroke-linecap:butt;stroke-linejoin:miter;stroke-opacity:1"
     d="m 247.30382,80.804932 1.62728,1.718018"
     id="path873" />
  <path
     style="fill:none;stroke:#000000;stroke-width:0.75px;stroke-linecap:butt;stroke-linejoin:miter;stroke-opacity:1"
     d="m 296.8484,144.58749 -0.14973,1.67885"
     id="path879" />
  <path
     style="fill:none;stroke:#000000;stroke-width:0.75px;stroke-linecap:butt;stroke-linejoin:miter;stroke-opacity:1"
     d="m 248.55844,208.4872 -1.13622,1.40847"
     id="path881" />
  <path
     style="fill:#ff0000;stroke:#000000;stroke-width:0.75px;stroke-linecap:butt;stroke-linejoin:miter;stroke-opacity:1"
     d="m 201.25815,34.204805 1.54104,1.400757"
     id="path885" />
  <path
     style="fill:#ffffff;stroke-width:0.408421"
     d="m 78.083344,375.97839 c 0.129343,-0.41238 1.263585,-4.50255 2.520546,-9.08926 1.256957,-4.58672 4.400569,-15.52219 6.985805,-24.30106 6.163621,-20.93024 12.822875,-44.22657 14.260915,-49.88952 1.3558,-5.33911 1.17523,-6.24137 -1.72463,-8.61759 -2.054592,-1.68358 -6.557977,-6.80865 -13.396677,-15.24604 -3.241323,-3.99906 -5.019041,-5.87721 -5.474545,-5.78386 -0.623814,0.12786 -23.236209,8.33615 -36.002965,13.06906 -3.032527,1.12423 -6.065053,2.16156 -6.738948,2.30517 -1.153106,0.24575 -1.092976,0.13758 1.021053,-1.83674 1.235474,-1.15382 9.138421,-7.9025 17.562105,-14.99706 8.423684,-7.09456 15.534168,-13.09969 15.80108,-13.34473 0.36967,-0.33938 0.0037,-1.605 -1.536848,-5.31225 -4.450001,-10.70994 -7.429644,-21.60107 -9.149902,-33.44451 -0.515623,-3.54991 -1.020685,-6.53758 -1.122357,-6.63925 -0.215798,-0.2158 -4.427591,-1.00425 -21.758289,-4.07319 -16.074114,-2.84642 -23.605475,-4.30849 -23.997818,-4.65872 -0.170169,-0.1519 3.321831,-0.97378 7.76,-1.82638 7.703207,-1.47984 32.298053,-5.97196 35.937771,-6.56385 2.021888,-0.3288 2.072851,-0.45371 3.16911,-7.76738 1.743905,-11.63445 6.301006,-27.68042 9.83052,-34.61417 0.771964,-1.51654 1.403575,-2.83574 1.403575,-2.93157 0,-0.0958 -4.732579,-4.17837 -10.516842,-9.07232 -22.708005,-19.2128 -25.852154,-21.90908 -25.711865,-22.04937 0.209328,-0.20933 6.443738,1.94958 21.117128,7.31265 16.835692,6.15337 22.257718,8.05584 22.959128,8.05584 0.316625,0 1.010124,-0.58762 1.541108,-1.30582 1.662813,-2.24907 7.314662,-8.89271 12.265962,-14.41839 5.106526,-5.69892 7.751696,-9.137543 7.751696,-10.076907 0,-1.021821 -4.958149,-18.401064 -15.127343,-53.02415 -5.442558,-18.530304 -9.85502,-34.374828 -9.634334,-34.595516 0.492523,-0.492522 16.06697,15.556403 47.048497,48.481832 9.19456,9.771474 16.90118,17.742967 17.12581,17.714426 0.22463,-0.02855 2.85867,-0.81005 5.85342,-1.736692 6.94955,-2.150345 12.88043,-3.504567 19.05916,-4.351869 5.3613,-0.735203 7.27275,-1.346536 7.90521,-2.528294 0.48247,-0.9015 2.78173,-13.372052 5.84207,-31.685755 1.18802,-7.109364 2.28541,-12.700505 2.43865,-12.424756 0.37703,0.678457 1.9465,8.434357 4.44044,21.943466 2.06289,11.174249 3.95091,20.824402 4.32821,22.122707 0.28898,0.994346 1.95415,1.444871 8.87371,2.400854 7.82726,1.081389 16.14164,3.199521 28.14982,7.171314 6.0607,2.004624 9.63287,2.995964 9.96787,2.766268 0.28716,-0.196891 5.81231,-6.617315 12.27809,-14.267613 16.00303,-18.934714 17.0442,-20.143316 17.2108,-19.978531 0.0799,0.07906 -1.41818,4.336141 -3.32916,9.460169 -5.17856,13.885655 -12.13197,33.095257 -12.13197,33.516 0,0.203083 1.88013,1.825258 4.17806,3.604826 5.50531,4.263426 23.96738,22.635321 27.26137,27.128221 1.39986,1.90936 2.68854,3.52578 2.86373,3.59203 0.38547,0.14577 23.2692,-8.1635 34.23219,-12.42999 6.15571,-2.39563 8.00904,-2.96547 8.45121,-2.5985 0.45702,0.37929 -0.6316,1.42527 -5.63852,5.41764 -4.81439,3.83886 -26.5115,21.67633 -28.17464,23.16273 -0.17789,0.15899 0.34752,2.11007 1.16757,4.33573 3.52251,9.56034 5.63021,15.80374 6.92129,20.50221 1.62463,5.91229 3.05468,9.23024 4.25521,9.87275 1.08069,0.57836 30.97618,7.83577 70.88884,17.20891 16.60841,3.90034 15.31579,3.52915 15.31579,4.39808 0,0.53984 -0.60521,0.83181 -2.55263,1.23147 -4.17805,0.85743 -43.58298,10.2738 -64.22421,15.34728 -17.99515,4.42309 -19.26509,4.79402 -20.30379,5.93051 -1.06686,1.1673 -1.38635,2.06175 -4.67121,13.07757 -0.56936,1.90937 -2.10707,6.22842 -3.41714,9.59789 -1.31005,3.36948 -2.60403,7.0097 -2.8755,8.0894 -0.47931,1.90631 -0.45953,1.99916 0.68387,3.21062 2.35468,2.49483 25.50027,21.99791 30.81705,25.96726 2.99409,2.23529 2.23888,2.7686 -1.79968,1.27088 -13.46174,-4.99234 -38.25041,-13.89657 -38.91219,-13.97747 -0.24933,-0.0305 -1.79146,1.69057 -3.42696,3.82457 -3.76933,4.91822 -20.88226,21.97428 -26.63589,26.54737 -2.40227,1.90937 -4.37587,3.67446 -4.38579,3.92241 -0.01,0.24796 2.34723,6.95628 5.23811,14.90737 5.94451,16.34984 9.23398,26.03729 8.94079,26.33049 -0.20976,0.20976 -12.76223,-14.29849 -21.93431,-25.35185 -2.98238,-3.5941 -5.63785,-6.76385 -5.90103,-7.04387 -0.56918,-0.6056 -2.68074,-0.071 -14.13422,3.57844 -9.54378,3.04095 -15.93176,4.65787 -22.66737,5.73753 -11.09687,1.77873 -10.57842,1.62495 -10.92849,3.24159 -0.17025,0.78621 -1.14397,6.10664 -2.16382,11.82319 -2.44216,13.689 -5.87678,31.09337 -6.27728,31.80901 -0.18759,0.3352 -0.69287,-1.84229 -1.22909,-5.29676 -1.52781,-9.84242 -6.20288,-35.97506 -6.70323,-37.46955 -0.70106,-2.09401 -2.40501,-2.74723 -12.39448,-4.75147 -4.89814,-0.98274 -11.28992,-2.5322 -14.20396,-3.44324 -2.91403,-0.91105 -5.5755,-1.65644 -5.91436,-1.65644 -0.69383,0 -3.78059,3.14408 -25.86292,26.34315 -21.37131,22.45209 -37.412047,38.94911 -38.370726,39.46218 -0.681593,0.36477 -0.766373,0.31675 -0.56641,-0.32081 z M 204.74021,303.28581 c 11.10135,-2.10225 24.70948,-6.55278 24.70948,-8.08123 0,-0.93139 -7.7449,-8.73933 -8.92612,-8.99878 -0.75872,-0.16664 -2.48367,0.16817 -4.99931,0.97036 -2.11249,0.67364 -6.87341,1.97111 -10.57984,2.88328 -3.70642,0.91217 -7.19842,1.99595 -7.76,2.40842 -0.84956,0.62398 -1.10904,1.32609 -1.54499,4.1806 -0.28817,1.88687 -0.56385,4.24548 -0.61263,5.24136 -0.0791,1.61407 0.0222,1.84337 0.93236,2.11165 1.24685,0.36752 4.43192,0.10793 8.78105,-0.71566 z m -33.01164,-3.30879 c -0.4967,-7.69177 -1.40552,-9.25887 -5.65093,-9.74403 -4.5473,-0.51966 -6.52627,0.56028 -10.3514,5.64882 -2.15286,2.86394 -2.35159,4.22113 -0.71129,4.85746 3.20964,1.24515 12.15201,3.12105 15.17328,3.183 l 1.79748,0.0368 -0.25714,-3.98211 z m 81.09273,-18.15948 c 4.60245,-3.93001 22.82978,-22.08637 22.47934,-22.39181 -0.85304,-0.74349 -8.33013,-3.35833 -10.13659,-3.5449 -1.61332,-0.16662 -2.44742,-0.0179 -3.81608,0.68032 -1.82994,0.93356 -9.9701,8.6157 -14.7799,13.94827 l -2.79968,3.10397 1.38992,3.29562 c 0.76446,1.8126 1.68779,3.87164 2.05184,4.57565 0.63242,1.22297 2.03616,2.87026 2.44589,2.87026 0.10655,0 1.53092,-1.14182 3.16526,-2.53738 z m -144.85256,-9.89925 c 2.39672,-3.65786 3.57402,-11.70712 2.10766,-14.41014 -1.68228,-3.10105 -5.62955,-3.33135 -12.036186,-0.70223 -2.077842,0.85269 -3.777895,1.66785 -3.777895,1.81146 0,0.78883 12.000561,14.30175 12.701111,14.30175 0.19224,0 0.64463,-0.45038 1.00531,-1.00084 z m 178.93279,-34.02127 c 1.15336,-2.59249 4.8309,-13.48385 5.20595,-15.41789 0.51351,-2.64809 -1.08767,-2.96609 -7.15455,-1.42091 -5.59457,1.42489 -6.77481,2.54342 -8.33055,7.89501 -0.88491,3.04395 -0.4817,4.08772 2.60375,6.74024 2.77268,2.38364 5.75511,4.55197 6.261,4.55197 0.20328,0 0.83976,-1.05679 1.4144,-2.34842 z M 88.748635,235.14629 c 2.021684,-1.72427 3.91135,-3.36236 4.199254,-3.64021 0.424215,-0.40938 0.248663,-1.38165 -0.925845,-5.12769 -1.955618,-6.23735 -3.394629,-12.01286 -3.724935,-14.95012 -0.368694,-3.27865 -0.674324,-3.7347 -2.95723,-4.41265 -2.602206,-0.77277 -10.632053,-2.08024 -10.932243,-1.78006 -0.359905,0.35991 0.980019,8.32972 2.329658,13.85671 1.504027,6.15922 4.995174,16.83442 6.08734,18.61381 1.006191,1.63931 0.994877,1.6442 5.924001,-2.55979 z m -8.863362,-52.89951 c 7.914583,-1.29135 7.945235,-1.31379 8.426172,-6.17009 0.246878,-2.49289 1.981879,-9.40282 3.850675,-15.33597 l 1.17883,-3.74262 -1.887735,-1.82299 c -2.567967,-2.47989 -7.049225,-6.00756 -7.631502,-6.00756 -1.591821,0 -6.657852,16.08187 -8.739133,27.74195 -0.903304,5.06065 -0.997074,6.15704 -0.526577,6.15692 0.168474,-5e-5 2.566645,-0.36888 5.32927,-0.81964 z m 212.048187,-14.8989 c 0.40264,-0.48514 0.35866,-1.20275 -0.21902,-3.57368 -1.69792,-6.96874 -5.20391,-15.83191 -6.2626,-15.83191 -0.79103,0 -6.93962,4.7995 -8.19793,6.39919 -1.07893,1.37163 -1.05306,2.26458 0.17854,6.16327 1.43394,4.53924 2.55156,5.43079 8.33827,6.65162 4.37897,0.92384 5.5254,0.95947 6.16274,0.19151 z m -183.60137,-35.5447 c 2.19484,-2.19483 2.8129,-3.67421 2.54557,-6.09294 -0.28849,-2.61009 -2.79177,-10.53062 -3.39137,-10.73049 -0.91053,-0.30351 -10.297875,10.11039 -11.957082,13.26466 -0.2683,0.51006 -0.375771,1.10869 -0.238824,1.33028 0.697412,1.12843 7.579646,3.61597 10.087796,3.64617 1.20488,0.0145 1.81413,-0.2779 2.95391,-1.41768 z m 159.7079,-0.20862 c 5.06003,-1.8432 6.16752,-2.65335 5.77346,-4.2234 -0.39834,-1.58712 -3.823,-5.53219 -10.86699,-12.51834 -5.64431,-5.59796 -14.02208,-12.66214 -14.47553,-12.20583 -0.42827,0.43096 -4.35962,11.47088 -4.24491,11.92041 0.14881,0.58314 18.6039,18.67444 19.04207,18.66671 0.15662,-0.003 2.30397,-0.74056 4.7719,-1.63955 z M 224.00142,99.646497 c 1.80211,-1.918713 5.44914,-6.885162 5.44324,-7.412487 -0.0101,-0.906294 -9.08541,-4.153005 -17.14866,-6.134994 -6.54845,-1.609645 -17.48496,-3.717384 -17.77639,-3.425955 -0.20368,0.20368 1.25856,10.928155 1.66947,12.244316 0.16056,0.514296 2.34735,1.195906 8.87473,2.766195 15.95112,3.837358 17.06832,3.953158 18.93761,1.962925 z M 168.1498,96.737461 c 0.54137,-0.253242 1.31839,-0.919911 1.7267,-1.48149 1.663,-2.287252 2.79658,-10.237462 1.5774,-11.062893 -1.87979,-1.272685 -18.37895,2.014553 -18.37895,3.66176 0,2.493741 5.89148,8.435218 9.37458,9.454135 1.26182,0.369122 4.35163,0.05934 5.70027,-0.571512 z"
     id="path889"
     transform="scale(0.75)" />
</svg>
