<?xml version="1.0" encoding="UTF-8" standalone="no"?>
<svg
   xmlns:dc="http://purl.org/dc/elements/1.1/"
   xmlns:cc="http://creativecommons.org/ns#"
   xmlns:rdf="http://www.w3.org/1999/02/22-rdf-syntax-ns#"
   xmlns:svg="http://www.w3.org/2000/svg"
   xmlns="http://www.w3.org/2000/svg"
   xmlns:sodipodi="http://sodipodi.sourceforge.net/DTD/sodipodi-0.dtd"
   xmlns:inkscape="http://www.inkscape.org/namespaces/inkscape"
   version="1.0"
   width="393.000000pt"
   height="292.000000pt"
   viewBox="0 0 393.000000 292.000000"
   preserveAspectRatio="xMidYMid meet"
   id="svg1011"
   sodipodi:docname="con2.svg"
   inkscape:version="1.0.2 (e86c870879, 2021-01-15)">
  <defs
     id="defs1015" />
  <sodipodi:namedview
     pagecolor="#ffffff"
     bordercolor="#666666"
     borderopacity="1"
     objecttolerance="10"
     gridtolerance="10"
     guidetolerance="10"
     inkscape:pageopacity="0"
     inkscape:pageshadow="2"
     inkscape:window-width="1918"
     inkscape:window-height="1180"
     id="namedview1013"
     showgrid="false"
     inkscape:zoom="1.6643836"
     inkscape:cx="270.64206"
     inkscape:cy="189.04736"
     inkscape:window-x="0"
     inkscape:window-y="18"
     inkscape:window-maximized="0"
     inkscape:current-layer="svg1011" />
  <metadata
     id="metadata967">
Created by potrace 1.16, written by Peter Selinger 2001-2019
<rdf:RDF>
  <cc:Work
     rdf:about="">
    <dc:format>image/svg+xml</dc:format>
    <dc:type
       rdf:resource="http://purl.org/dc/dcmitype/StillImage" />
  </cc:Work>
</rdf:RDF>
</metadata>
  <g
     transform="translate(0.000000,292.000000) scale(0.100000,-0.100000)"
     fill="#000000"
     stroke="none"
     id="g1009">
    <path
       d="M1546 2891 c-16 -17 -51 -38 -78 -47 l-49 -16 6 -38 c8 -47 -5 -53 -87 -44 -32 4 -58 5 -58 2 0 -7 -39 -230 -45 -254 -3 -16 -18 -24 -62 -34 -32 -7 -63 -14 -69 -17 -6 -2 -112 102 -234 232 l-223 236 -32 -31 c-17 -16 -52 -37 -78 -46 -26 -9 -47 -21 -47 -27 0 -10 48 -175 164 -568 l14 -46 -47 -53 -47 -53 -140 52 c-78 28 -154 51 -171 51 -63 0 -108 -69 -84 -129 7 -15 66 -72 132 -127 98 -81 118 -103 113 -119 -3 -11 -17 -64 -32 -117 l-25 -97 -86 -15 c-47 -8 -117 -21 -156 -27 -86 -15 -125 -47 -125 -104 0 -57 39 -89 125 -104 244 -41 245 -41 250 -70 3 -14 15 -60 26 -101 12 -41 23 -82 25 -90 3 -10 -39 -51 -115 -114 -66 -55 -125 -112 -132 -127 -24 -60 21 -129 84 -129 17 0 92 23 167 50 75 28 141 50 146 49 5 -1 28 -22 51 -48 l43 -48 -90 -304 c-50 -167 -90 -309 -90 -316 0 -6 21 -18 47 -27 26 -9 61 -30 78 -46 l32 -31 222 236 c123 129 226 235 229 235 17 -1 125 -29 129 -34 5 -4 16 -62 48 -245 l6 -33 58 6 c75 9 92 2 85 -34 -6 -25 -3 -29 42 -44 27 -9 62 -30 79 -46 l31 -30 69 72 c38 40 110 115 159 167 l91 93 24 -31 23 -31 38 30 c20 16 58 38 83 49 l46 20 -14 35 c-8 20 -15 40 -15 45 0 9 66 -2 77 -13 5 -4 16 -62 48 -245 l6 -33 57 6 c31 3 74 2 95 -3 33 -8 38 -7 42 13 7 31 45 249 45 257 0 3 17 9 38 13 21 3 76 16 121 30 l82 23 92 -108 91 -108 37 30 c20 15 57 37 82 48 l46 20 -21 53 c-11 29 -32 87 -48 129 l-27 75 91 91 91 91 115 -44 c63 -23 123 -43 132 -43 12 -1 21 12 29 39 7 22 10 42 8 43 -2 2 -76 29 -164 61 l-160 57 -29 -38 c-38 -48 -128 -138 -184 -183 l-43 -35 59 -162 c33 -90 56 -160 51 -157 -7 4 -194 224 -215 253 -2 2 -52 -12 -111 -32 -59 -20 -138 -39 -175 -43 -38 -4 -68 -10 -68 -13 0 -20 -60 -334 -64 -339 -3 -3 -6 -1 -6 4 0 11 -47 288 -55 319 -4 17 -18 23 -81 34 -42 7 -94 19 -116 27 -22 8 -43 14 -47 14 -4 0 -114 -114 -246 -254 -132 -140 -241 -251 -243 -247 -1 4 40 152 93 329 52 177 95 330 95 339 0 10 -8 23 -19 30 -10 6 -45 45 -78 86 l-60 74 -104 -37 c-57 -21 -134 -49 -171 -64 -38 -14 -68 -23 -68 -21 0 2 63 56 139 120 l139 117 -23 56 c-27 67 -51 156 -60 229 l-7 51 -86 16 c-48 8 -129 23 -180 32 -51 9 -91 18 -90 19 3 3 340 65 351 65 3 0 8 26 12 57 8 66 48 211 70 253 l14 27 -139 118 c-77 64 -140 118 -140 120 0 2 37 -10 83 -27 45 -17 122 -44 170 -62 l88 -31 32 40 c18 22 53 63 79 91 27 28 48 56 48 63 0 6 -43 156 -95 333 -53 177 -94 325 -93 329 3 7 135 -130 408 -421 l75 -80 61 19 c34 11 89 23 123 27 51 5 62 10 66 28 7 31 55 309 55 320 0 5 3 7 6 4 3 -3 18 -78 34 -167 16 -89 31 -165 34 -170 3 -4 35 -11 71 -14 36 -4 113 -22 171 -42 l105 -35 27 32 c15 18 66 79 114 135 l87 102 -37 30 -38 30 -88 -106 c-72 -85 -92 -104 -110 -100 -11 3 -57 14 -100 26 -44 12 -90 21 -103 21 -12 0 -23 4 -23 8 0 8 -38 224 -45 258 -4 20 -9 21 -42 13 -21 -5 -64 -6 -95 -3 l-57 6 -6 -33 c-31 -175 -43 -240 -46 -243 -2 -2 -19 -7 -36 -11 -36 -7 -41 1 -22 36 9 17 5 22 -25 34 -50 21 -55 19 -72 -21 -11 -27 -18 -34 -27 -25 -8 8 -4 18 17 40 l27 28 -39 32 -40 31 -19 -26 -20 -26 -99 103 c-54 57 -128 134 -164 172 l-65 68 -29 -30z m-736 -291 c111 -118 214 -227 229 -242 l26 -28 61 20 c34 10 89 22 123 26 51 5 62 10 66 28 7 31 55 309 55 320 0 5 3 7 6 4 3 -3 18 -79 34 -169 17 -89 33 -166 37 -170 5 -4 28 -9 53 -11 44 -3 45 -4 61 -53 9 -27 15 -51 14 -53 -2 -2 -27 1 -56 6 -30 6 -55 9 -57 8 -1 -2 1 -23 4 -48 6 -45 7 -46 50 -53 52 -7 55 -21 15 -59 l-29 -28 -123 45 c-67 24 -117 46 -111 48 6 2 14 23 18 47 8 48 3 50 -86 31 -54 -12 -57 -15 -36 -44 12 -17 10 -21 -17 -40 -39 -25 -54 -73 -38 -113 7 -15 65 -72 132 -128 98 -81 118 -103 113 -119 -3 -11 -17 -64 -32 -117 l-25 -97 -86 -15 c-47 -8 -117 -21 -156 -27 -86 -15 -125 -47 -125 -104 0 -57 39 -89 125 -104 244 -41 245 -41 250 -70 3 -14 15 -60 26 -101 12 -41 23 -82 25 -90 3 -10 -39 -51 -115 -114 -125 -104 -147 -134 -136 -185 7 -34 47 -71 77 -71 18 0 18 -2 -6 -31 -14 -17 -24 -34 -21 -38 5 -10 125 -34 132 -28 2 3 1 26 -2 51 -6 36 -11 46 -29 48 -19 3 230 99 250 97 5 0 26 -20 47 -44 l37 -42 -60 -12 c-51 -10 -60 -15 -60 -34 0 -12 -3 -33 -7 -46 -6 -24 -6 -24 51 -17 52 6 57 5 52 -11 -3 -10 -8 -30 -12 -46 -8 -33 -31 -47 -78 -47 -20 0 -36 -3 -36 -7 0 -21 -60 -336 -64 -341 -3 -3 -6 -1 -6 4 0 11 -47 288 -55 319 -4 17 -18 23 -81 34 -42 7 -94 19 -116 27 -22 8 -43 14 -47 14 -4 0 -114 -114 -246 -254 -132 -140 -241 -251 -243 -247 -1 4 40 152 93 329 52 177 95 330 95 339 0 10 -8 23 -19 30 -10 6 -45 45 -78 86 l-60 74 -104 -37 c-57 -21 -134 -49 -171 -64 -38 -14 -68 -23 -68 -21 0 2 63 56 139 120 l139 117 -23 56 c-27 67 -51 156 -60 230 -4 28 -9 52 -12 52 -11 0 -348 62 -351 65 -1 1 39 10 90 19 51 9 132 24 179 32 l87 16 7 56 c8 65 48 210 70 252 l14 27 -139 118 c-77 64 -140 118 -140 120 0 2 37 -10 83 -27 45 -17 122 -44 170 -62 l88 -31 32 40 c18 22 53 63 79 91 27 28 48 56 48 63 0 6 -43 156 -95 333 -52 176 -95 326 -95 332 0 5 6 4 14 -4 7 -8 105 -112 216 -230z m1197 -2220 l14 -35 -32 32 c-28 28 -31 34 -19 49 11 13 15 13 18 3 3 -8 11 -30 19 -49z"
       id="path969" />
    <path
       d="M757 1999 c-25 -29 -44 -56 -41 -60 3 -5 23 -14 44 -20 36 -11 41 -10 58 11 17 21 18 27 5 68 -7 25 -15 47 -17 49 -2 2 -24 -20 -49 -48z"
       id="path971" />
    <path
       d="M596 1713 c-13 -43 -27 -100 -31 -127 l-8 -48 44 7 c56 9 59 11 59 40 0 13 9 51 19 85 l19 62 -31 29 c-18 15 -35 29 -39 29 -4 0 -18 -35 -32 -77z"
       id="path973" />
    <path
       d="M565 1323 c9 -60 53 -203 63 -203 4 0 21 14 39 30 l32 28 -20 64 c-10 35 -19 73 -19 86 0 24 -5 27 -64 37 l-38 6 7 -48z"
       id="path975" />
    <path
       d="M742 985 l-34 -15 42 -50 c23 -27 46 -52 50 -55 5 -3 15 16 23 42 23 78 -10 109 -81 78z"
       id="path977" />
    <path
       d="M2946 2562 c-3 -5 -30 -78 -61 -163 l-56 -154 33 -25 c43 -32 179 -167 204 -203 l20 -28 154 56 c85 31 159 60 164 65 12 12 -13 80 -30 80 -7 0 -61 -18 -119 -40 -58 -21 -111 -40 -118 -42 -7 -1 -53 38 -103 88 l-90 91 47 127 47 128 -34 14 c-38 16 -51 17 -58 6z"
       id="path979" />
    <path
       d="M2396 2252 c3 -26 7 -47 8 -47 0 0 43 -11 93 -23 51 -13 97 -21 102 -17 6 3 19 19 31 35 l21 29 -38 16 c-35 15 -112 35 -191 49 l-33 6 7 -48z"
       id="path981" />
    <path
       d="M2123 2278 c-24 -5 -43 -13 -43 -18 0 -22 53 -70 78 -70 40 0 50 11 58 58 6 41 6 42 -22 41 -16 -1 -48 -5 -71 -11z"
       id="path983" />
    <path
       d="M2778 2105 l-17 -44 71 -69 72 -70 43 15 c36 13 41 17 33 33 -13 24 -118 130 -156 157 l-30 22 -16 -44z"
       id="path985" />
    <path
       d="M3283 1993 c-70 -58 -129 -107 -130 -108 -2 -1 8 -29 22 -62 13 -33 32 -90 41 -126 10 -43 22 -68 33 -71 31 -9 647 -156 654 -156 8 0 30 80 24 86 -2 3 -141 38 -308 78 l-303 73 -23 68 c-13 38 -23 72 -23 76 0 4 47 47 105 94 l104 87 -27 34 c-15 19 -30 34 -34 34 -3 0 -64 -48 -135 -107z"
       id="path987" />
    <path
       d="M1687 2009 c-25 -29 -44 -56 -41 -60 3 -5 23 -14 44 -20 36 -11 41 -10 58 11 17 21 18 27 5 68 -7 25 -15 47 -17 49 -2 2 -24 -20 -49 -48z"
       id="path989" />
    <path
       d="M3033 1782 c-32 -26 -33 -28 -21 -64 11 -38 16 -41 76 -53 24 -5 32 -3 32 7 0 22 -41 138 -48 138 -4 0 -22 -13 -39 -28z"
       id="path991" />
    <path
       d="M1526 1723 c-13 -43 -27 -100 -31 -127 l-8 -48 44 7 c56 9 59 11 59 40 0 13 9 51 19 85 l19 62 -31 29 c-18 15 -35 29 -39 29 -4 0 -18 -35 -32 -77z"
       id="path993" />
    <path
       d="M3580 1385 c-168 -41 -315 -77 -326 -80 -17 -4 -25 -19 -38 -70 -9 -36 -27 -90 -41 -121 -14 -31 -22 -60 -19 -65 8 -14 254 -219 262 -219 4 0 19 15 34 34 l27 34 -104 87 c-58 47 -105 90 -105 94 0 4 10 38 23 75 l23 69 303 73 c167 40 305 75 308 78 9 8 -18 86 -30 85 -7 0 -149 -34 -317 -74z"
       id="path995" />
    <path
       d="M1495 1333 c9 -60 53 -203 63 -203 4 0 21 14 39 30 l32 28 -20 64 c-10 35 -19 73 -19 86 0 24 -5 27 -64 37 l-38 6 7 -48z"
       id="path997" />
    <path
       d="M3058 1258 c-30 -8 -39 -16 -49 -46 -11 -34 -10 -36 22 -63 19 -16 37 -29 40 -29 6 0 49 119 49 138 0 14 -10 14 -62 0z"
       id="path999" />
    <path
       d="M1672 995 l-34 -15 42 -50 c23 -27 46 -52 50 -55 5 -3 15 16 23 42 23 78 -10 109 -81 78z"
       id="path1001" />
    <path
       d="M2828 938 l-68 -69 16 -39 c9 -22 20 -40 26 -40 5 0 50 41 101 91 l92 92 -30 12 c-63 26 -67 25 -137 -47z"
       id="path1003" />
    <path
       d="M2549 765 c-20 -7 -62 -18 -93 -25 -47 -10 -56 -15 -56 -33 0 -12 -3 -32 -6 -44 -6 -20 -3 -23 23 -23 37 0 174 34 208 52 l26 14 -33 36 c-32 36 -34 36 -69 23z"
       id="path1005" />
    <path
       d="M2109 712 c-16 -18 -27 -37 -24 -41 5 -10 125 -35 132 -28 2 3 1 25 -2 50 -7 42 -9 45 -42 49 -29 4 -39 -1 -64 -30z"
       id="path1007" />
  </g>
  <path
     style="fill:none;stroke:#000000;stroke-width:0.75px;stroke-linecap:butt;stroke-linejoin:miter;stroke-opacity:1"
     d="m 294.26796,34.384936 1.16118,1.08047"
     id="path1017" />
  <path
     style="fill:none;stroke:#000000;stroke-width:0.75px;stroke-linecap:butt;stroke-linejoin:miter;stroke-opacity:1"
     d="m 340.23818,80.883951 1.36285,1.55112"
     id="path1019" />
  <path
     style="fill:none;stroke:#000000;stroke-width:0.75px;stroke-linecap:butt;stroke-linejoin:miter;stroke-opacity:1"
     d="m 389.98754,144.71092 -0.36612,1.66555"
     id="path1021" />
  <path
     style="fill:#ff0000;stroke:#000000;stroke-width:0.75px;stroke-linecap:butt;stroke-linejoin:miter;stroke-opacity:1"
     d="m 341.49966,208.4003 -0.97764,1.44426"
     id="path1023" />
  <path
     style="fill:#ffffff;stroke-width:0.600823"
     d="m 205.2764,364.96057 c 1.73114,-6.19598 5.87792,-20.59321 9.21506,-31.99382 9.29554,-31.75619 12.70891,-44.37485 12.31303,-45.51927 -0.19873,-0.57448 -2.18535,-2.93711 -4.41472,-5.25028 -2.22936,-2.31317 -6.6851,-7.45021 -9.90163,-11.41564 -3.21654,-3.96543 -6.03819,-7.41801 -6.27033,-7.6724 -0.37864,-0.41492 -10.10499,2.95951 -35.09419,12.17552 -4.57589,1.68758 -8.52149,2.98697 -8.76802,2.88754 -0.46737,-0.1885 4.62428,-4.63255 23.54666,-20.55179 6.19598,-5.21263 11.26543,-9.70059 11.26543,-9.97324 0,-0.27266 -1.19829,-3.56044 -2.66287,-7.3062 -4.37294,-11.18406 -7.54315,-23.51784 -8.51128,-33.11336 -0.22599,-2.23984 -0.6378,-4.21268 -0.91514,-4.38408 -0.56234,-0.34755 -5.63957,-1.31021 -28.46627,-5.39731 -8.59177,-1.53836 -15.97293,-2.98928 -16.40258,-3.22427 -0.70394,-0.38503 18.03181,-4.10006 36.83057,-7.30297 3.96543,-0.67562 7.4189,-1.43419 7.67438,-1.6857 0.25547,-0.25151 1.00659,-3.68197 1.66913,-7.62324 2.07442,-12.34 6.22508,-27.15609 9.36583,-33.43198 0.78002,-1.55867 1.41649,-3.18089 1.41437,-3.60494 -0.002,-0.42405 -7.97925,-7.50652 -17.72696,-15.73882 -9.74772,-8.2323 -17.62751,-15.06343 -17.51065,-15.18029 0.11685,-0.11685 7.75603,2.525 16.97594,5.87078 9.21991,3.34578 18.98698,6.84535 21.7046,7.77681 l 4.94114,1.69358 4.07022,-4.91341 c 2.23862,-2.70237 6.25235,-7.34673 8.9194,-10.32081 2.66704,-2.97407 5.68698,-6.56644 6.71098,-7.98304 l 1.86182,-2.575639 -1.47725,-5.535473 c -0.81249,-3.044509 -5.371,-18.918806 -10.13002,-35.276214 -11.56398,-39.746957 -13.03651,-45.064081 -12.70438,-45.873841 0.35329,-0.861339 10.36724,9.334831 39.89077,40.61664 12.70905,13.465946 23.29994,24.483539 23.53531,24.483539 0.23537,0 2.30695,-0.639096 4.60352,-1.420208 5.50971,-1.873973 13.56723,-3.73775 20.91807,-4.838536 3.40853,-0.510427 6.34155,-1.276392 6.85549,-1.790328 0.83109,-0.831091 6.59989,-31.060487 7.6678,-40.180422 0.22336,-1.907497 0.61107,-3.594853 0.86159,-3.749679 0.25051,-0.154826 1.45126,4.920668 2.66834,11.278876 4.44344,23.213358 6.30032,32.458278 6.57445,32.732406 0.15409,0.154085 2.93366,0.682807 6.17683,1.174938 8.54789,1.297086 21.41693,4.531635 31.54631,7.928959 l 8.82657,2.960375 14.27678,-16.853345 c 7.85223,-9.269339 14.36259,-16.595934 14.46746,-16.281323 0.10487,0.314611 -0.92264,3.529709 -2.28337,7.14466 -1.36072,3.614951 -4.58751,12.385602 -7.17063,19.490335 -2.58313,7.104732 -4.87254,13.361457 -5.08761,13.903838 -0.28723,0.724388 0.61611,1.755274 3.40335,3.88384 5.09597,3.891717 23.28741,21.800272 27.09455,26.673222 1.67815,2.14795 3.22611,4.11527 3.43991,4.37183 0.37186,0.44622 22.8428,-7.49931 35.99988,-12.72925 3.44443,-1.36916 6.48742,-2.26456 6.76221,-1.98978 0.27479,0.27479 -1.86746,2.35706 -4.76054,4.62726 -9.43016,7.39985 -28.99267,23.81526 -28.99267,24.32849 0,0.2754 1.21643,3.70392 2.70318,7.61893 1.48675,3.91501 3.80732,10.87953 5.15682,15.4767 1.3495,4.59718 2.86624,8.98821 3.37053,9.75785 0.52055,0.79445 1.99239,1.68995 3.4049,2.07162 4.33301,1.17079 45.62068,11.09545 64.67321,15.54603 20.97763,4.90027 20.20976,4.68794 19.47701,5.38577 -0.30309,0.28866 -10.4196,2.8519 -22.48113,5.69609 -12.06152,2.84419 -31.37367,7.53341 -42.9159,10.4205 -18.57429,4.64603 -21.11187,5.42185 -22.08247,6.7513 -0.60314,0.82613 -2.16885,5.05832 -3.47935,9.40487 -1.3105,4.34655 -3.47246,10.63809 -4.80436,13.98121 -3.17187,7.96156 -3.14102,8.82787 0.43229,12.1403 3.69906,3.42899 16.13019,13.92286 24.28035,20.49652 3.52322,2.84171 6.27058,5.30203 6.10524,5.46737 -0.16534,0.16534 -1.96649,-0.32481 -4.00257,-1.08922 -12.10602,-4.54496 -37.58066,-13.5332 -38.29962,-13.51328 -0.46799,0.013 -2.33793,1.95331 -4.15542,4.31189 -4.39603,5.70479 -16.93984,18.31064 -24.03292,24.1518 -3.1393,2.58522 -5.91816,4.89222 -6.17524,5.12668 -0.25709,0.23444 1.45353,5.6774 3.80138,12.09546 5.63645,15.4077 10.25002,28.92747 9.96773,29.20976 -0.19393,0.19392 -19.15339,-21.85608 -25.69404,-29.88238 l -2.17837,-2.67315 -6.53356,1.94875 c -3.59347,1.07182 -10.11517,3.01844 -14.49269,4.32584 -4.3775,1.3074 -12.05258,3.05736 -17.05573,3.88881 -5.00314,0.83145 -9.14681,1.58726 -9.20814,1.67959 -0.0613,0.0923 -0.70075,3.68268 -1.42092,7.97856 -2.47491,14.76318 -6.85101,36.33611 -7.31291,36.05064 -0.25433,-0.15718 -0.65209,-1.84399 -0.88393,-3.74846 -0.49532,-4.06892 -6.19419,-36.61632 -6.68445,-38.17621 -0.59114,-1.88088 -2.75278,-2.707 -11.9634,-4.57212 -4.95844,-1.00408 -11.69309,-2.64985 -14.9659,-3.65729 -5.70762,-1.75691 -5.99896,-1.78849 -7.1357,-0.77359 -0.65182,0.58195 -9.05085,9.3044 -18.66452,19.3832 -29.84568,31.28971 -43.77119,45.66256 -44.24137,45.66256 -0.24871,0 0.96419,-5.06945 2.69533,-11.26544 z m 90.6138,-61.65708 c 0.42459,-1.10644 -0.69317,-9.89221 -1.43482,-11.278 -1.19414,-2.23127 -7.93224,-2.71713 -10.57456,-0.76249 -2.21712,1.64011 -6.19595,6.87772 -6.19982,8.16127 -0.004,1.17975 2.09202,1.95601 9.49458,3.51708 6.40276,1.35022 8.30513,1.42928 8.71462,0.36214 z m 41.56967,-1.86865 c 4.62634,-1.17421 10.28832,-3.02121 12.5822,-4.10444 l 4.17066,-1.96951 -4.39725,-4.62917 c -4.84259,-5.09799 -5.60178,-5.37 -10.32739,-3.7002 -1.44598,0.51093 -5.87349,1.7453 -9.83892,2.74304 -8.65808,2.17845 -9.90832,2.87161 -9.92827,5.50439 -0.008,1.06635 -0.28999,3.13321 -0.62647,4.593 -0.98042,4.25348 -0.69102,4.48819 5.01211,4.06474 2.71799,-0.20181 8.72699,-1.32764 13.35333,-2.50185 z m 41.23345,-21.14504 c 6.00781,-5.43969 20.95173,-20.21034 20.95173,-20.7088 0,-0.22101 -2.36222,-1.2566 -5.24937,-2.30129 -7.7039,-2.7876 -7.71519,-2.783 -17.99851,7.34883 -4.72766,4.658 -8.59574,8.71924 -8.59574,9.02499 0,1.46609 4.82515,10.64655 5.59571,10.64655 0.47688,0 2.86016,-1.80463 5.29618,-4.01028 z m -146.43835,-8.75721 c 0.47744,-0.74352 1.32547,-2.94609 1.88453,-4.89459 2.04078,-7.11279 -0.001,-11.77825 -5.15537,-11.77825 -2.35387,0 -9.88919,2.63731 -10.53889,3.68853 -0.4699,0.76032 11.34801,14.33616 12.47978,14.33616 0.25404,0 0.85251,-0.60833 1.32995,-1.35185 z m 179.56131,-35.6385 c 2.24611,-5.44406 4.76538,-14.1187 4.38683,-15.1052 -0.16397,-0.42728 -1.0111,-0.77688 -1.88251,-0.77688 -2.28893,0 -8.72901,1.73706 -10.37578,2.79862 -1.91128,1.23207 -3.81348,5.72196 -3.58404,8.45964 0.16016,1.91092 0.7546,2.69063 4.34975,5.70541 2.29033,1.9206 4.43935,3.40029 4.77559,3.28822 0.33624,-0.11209 1.38481,-2.0785 2.33016,-4.36981 z m -200.59113,0.6917 c 1.35584,-1.12845 3.34627,-2.81827 4.42316,-3.75514 l 1.95799,-1.70341 -1.82656,-6.00823 c -2.19538,-7.22147 -3.59148,-13.06943 -3.59148,-15.04401 0,-0.86257 -0.5762,-1.82847 -1.42095,-2.38197 -1.50127,-0.98367 -11.69613,-3.00289 -12.26899,-2.43003 -0.8345,0.8345 1.98102,14.46407 4.78438,23.16054 2.5468,7.90058 3.57302,10.21399 4.53089,10.21399 0.52051,0 2.05571,-0.92328 3.41156,-2.05174 z m -5.94635,-54.4742 c 5.94084,-0.95897 6.65197,-1.53644 7.0984,-5.76411 0.20328,-1.92504 1.42118,-7.09137 2.70645,-11.48074 l 2.33686,-7.98065 -3.33445,-3.04751 c -1.83395,-1.67613 -3.99028,-3.47722 -4.79185,-4.00242 -1.3542,-0.88731 -1.51601,-0.87475 -2.28536,0.17741 -1.88358,2.57594 -5.54681,14.32406 -7.38347,23.67905 -2.09527,10.67226 -2.07706,9.80888 -0.19888,9.43001 0.9056,-0.18268 3.53913,-0.63765 5.8523,-1.01104 z m 210.88957,-14.97311 c 0.97678,-1.58045 -5.19705,-19.22523 -6.72682,-19.22523 -1.40795,0 -8.58516,6.06082 -8.96382,7.56955 -0.46646,1.85852 1.52778,7.80215 3.11959,9.29756 2.32322,2.18257 11.60364,3.92341 12.57105,2.35812 z M 231.4004,132.90027 c 1.66076,-0.88881 3.61914,-4.4095 3.61914,-6.50635 0,-2.60179 -2.91064,-11.52594 -3.75922,-11.52594 -1.61229,0 -11.86218,12.22571 -11.86218,14.14878 0,1.11744 1.18634,1.8553 5.107,3.17636 4.16721,1.40414 5.36366,1.52684 6.89526,0.70715 z m 165.16542,-2.97151 c 2.2712,-1.21551 1.54802,-3.19027 -3.1236,-8.5295 -5.11976,-5.85141 -11.71507,-12.0849 -17.17413,-16.23196 l -3.85021,-2.92488 -2.33857,6.16257 -2.33857,6.16258 9.60388,9.44065 9.60387,9.44065 4.17028,-1.4184 c 2.29365,-0.78012 4.74482,-1.72589 5.44705,-2.10171 z M 348.33304,99.427243 c 2.51796,-2.716916 5.64014,-7.325379 5.16277,-7.620419 -1.67309,-1.034017 -10.41049,-4.065776 -15.43512,-5.355773 -7.96628,-2.045213 -18.94928,-4.204433 -19.34965,-3.804069 -0.17591,0.175915 0.0283,3.051394 0.45373,6.389958 0.55459,4.351773 1.04252,6.209842 1.72364,6.563721 0.87883,0.456607 17.06812,4.427509 20.47681,5.022539 3.94038,0.68785 5.46439,0.42627 6.96782,-1.195957 z m -55.06213,-3.664708 c 1.30993,-1.309927 1.84525,-2.651895 2.42211,-6.071942 1.02985,-6.105594 0.6681,-6.425772 -6.22378,-5.508634 -7.5651,1.006727 -12.04789,2.490111 -12.27586,4.062158 -0.21398,1.475568 2.64313,4.970165 6.13236,7.500627 3.31134,2.401466 7.55392,2.409054 9.94517,0.01779 z"
     id="path1035"
     transform="scale(0.74999999)" />
  <path
     style="fill:#ffffff;stroke-width:0.600823"
     d="m 78.594227,375.75938 c 0.222401,-0.89994 2.669871,-9.477 5.438818,-19.06012 14.946177,-51.72762 18.805425,-65.47987 18.805425,-67.01221 0,-1.28005 -0.98374,-2.68663 -4.055555,-5.79873 -2.230556,-2.2598 -6.970888,-7.67786 -10.534075,-12.04013 -6.287589,-7.69765 -6.526626,-7.91289 -8.111111,-7.30327 -0.897924,0.34546 -6.364074,2.33531 -12.146995,4.42188 -5.782922,2.08658 -14.434774,5.2767 -19.226338,7.08916 -4.791564,1.81247 -9.38786,3.47597 -10.213992,3.69667 l -1.502057,0.40127 1.574386,-1.38165 c 0.865912,-0.7599 8.289522,-7.05941 16.496911,-13.99892 8.207388,-6.93951 15.694183,-13.29321 16.637321,-14.11934 l 1.714797,-1.50206 -2.692928,-6.70004 c -3.698322,-9.20147 -6.166871,-18.09259 -7.981797,-28.74852 -0.844244,-4.95679 -1.720579,-9.21133 -1.947412,-9.45454 -0.226833,-0.24321 -4.998989,-1.26479 -10.604793,-2.27017 -14.633897,-2.62455 -32.222492,-5.99039 -33.624469,-6.43453 -1.502976,-0.47615 0.276832,-0.85082 25.355388,-5.33763 l 19.347157,-3.4614 0.381886,-3.34391 c 1.211383,-10.6072 5.691087,-27.83489 9.608215,-36.95051 1.254886,-2.92026 1.842445,-5.01537 1.516627,-5.40796 -0.292529,-0.35247 -8.373535,-7.26402 -17.957793,-15.35899 -9.584257,-8.09497 -17.353794,-14.79025 -17.265638,-14.87841 0.08816,-0.0882 9.461666,3.19231 20.83002,7.28993 11.368354,4.09762 21.248382,7.62509 21.955616,7.83884 1.023623,0.30937 1.69759,-0.13573 3.304527,-2.18239 1.110255,-1.41405 4.857534,-5.7878 8.327287,-9.71945 9.042535,-10.24625 10.801235,-12.51987 10.808425,-13.97292 0.004,-0.709581 -4.069203,-15.309581 -9.050483,-32.44445 C 79.692748,19.151325 78.1597,13.705986 78.340343,12.767987 78.474122,12.073339 124.28743,59.873451 138.66885,75.712775 l 3.08552,3.398315 5.02559,-1.614399 c 7.09011,-2.277606 11.34371,-3.297689 18.2437,-4.375151 8.84851,-1.381743 9.26336,-1.499535 9.97697,-2.83292 0.63402,-1.184674 6.59929,-33.883069 7.46429,-40.915193 0.23559,-1.915214 0.56434,-3.346204 0.73057,-3.179977 0.16623,0.166227 2.2584,10.198271 4.64926,22.29343 2.39086,12.095159 4.5939,22.238075 4.89564,22.539813 0.30174,0.301738 2.70558,0.843969 5.34187,1.204962 7.79947,1.067999 8.10694,1.347532 10.38437,9.440852 l 1.22575,4.355967 -1.60596,-0.02097 c -0.88329,-0.01154 -3.76894,-0.411762 -6.41256,-0.889411 -7.65319,-1.382776 -7.14859,-1.687796 -6.67151,4.032809 0.5728,6.868356 1.13737,7.822956 5.17528,8.750663 6.20918,1.426546 6.89567,1.689472 7.09352,2.716855 0.21457,1.1142 -6.18144,8.24133 -7.39591,8.24133 -0.87837,0 -23.54846,-8.39447 -27.49223,-10.180047 l -2.85463,-1.292467 0.92614,-1.790969 c 0.50939,-0.985031 1.08685,-3.511769 1.28324,-5.614962 0.32409,-3.470546 0.23983,-3.886754 -0.91159,-4.502976 -2.19954,-1.177157 -16.70409,1.697565 -17.37404,3.443431 -0.19389,0.505268 0.23502,1.939541 0.95312,3.187282 0.71811,1.247735 1.30565,2.527644 1.30565,2.844242 0,0.316598 -1.37018,1.560013 -3.04485,2.763143 -5.05514,3.631763 -7.21187,10.006173 -5.09758,15.066383 1.09288,2.61564 6.85956,8.26848 19.67046,19.28214 5.51428,4.74069 10.747,9.56476 11.62826,10.72015 l 1.6023,2.10073 -3.36156,12.47873 c -1.84887,6.8633 -3.53411,13.36306 -3.74497,14.44391 -0.21087,1.08084 -0.58326,2.08869 -0.82753,2.23966 -0.24426,0.15096 -8.69482,1.73346 -18.77901,3.51666 -22.51766,3.98182 -25.96374,5.26788 -28.75143,10.72987 -1.35322,2.6514 -1.51435,8.02325 -0.32598,10.86744 1.13562,2.7179 4.49928,5.48213 8.48605,6.97378 1.86342,0.69719 10.19947,2.47681 18.52455,3.95471 8.32509,1.47789 16.16796,2.98051 17.42861,3.33915 2.46555,0.70141 4.61737,2.47103 4.61737,3.79724 0,0.45096 1.48704,6.25213 3.30453,12.8915 1.81749,6.63937 3.30452,12.35979 3.30452,12.71204 0,1.18854 -5.05738,6.1473 -14.72016,14.43308 -15.39714,13.20297 -18.92593,17.4038 -18.92593,22.53031 0,5.59338 5.72327,12.31687 10.48457,12.31687 0.84254,0 1.53189,0.21005 1.53189,0.46678 0,0.25674 -1.09446,1.92339 -2.43214,3.70367 -3.55869,4.73617 -3.23469,5.45177 3.19982,7.06703 2.90062,0.72814 6.88858,1.50659 8.86214,1.72987 l 3.58829,0.40597 v -3.05215 c 0,-4.36003 -1.12151,-8.99806 -2.48236,-10.26588 -1.14158,-1.06354 -1.03106,-1.1461 4.74015,-3.54121 7.52926,-3.12472 19.30723,-7.50878 23.57537,-8.77535 l 3.30229,-0.97996 4.95873,5.26876 c 2.72731,2.89782 4.95887,5.42781 4.95903,5.6222 1.6e-4,0.19438 -2.90619,0.95722 -6.45856,1.6952 -3.55237,0.73797 -6.89241,1.66127 -7.42233,2.05178 -1.12643,0.83009 -3.03717,11.09075 -2.16562,11.6294 0.30137,0.18626 3.49445,0.14768 7.09572,-0.0857 4.60834,-0.29868 6.54779,-0.22916 6.54779,0.23469 0,1.41193 -2.40149,9.2305 -3.08998,10.06007 -1.40786,1.69637 -4.30431,2.70686 -8.7151,3.04045 -2.45036,0.18532 -4.55522,0.50005 -4.67746,0.6994 -0.12224,0.19935 -1.19713,5.80147 -2.38865,12.44914 -1.19152,6.64768 -3.11072,16.76476 -4.26489,22.48239 -1.15417,5.71763 -2.11842,10.5527 -2.14278,10.74459 -0.0243,0.19189 -1.47388,-8.03259 -3.22118,-18.27663 -4.23155,-24.80871 -4.34028,-25.28655 -6.06201,-26.64086 -0.90942,-0.71534 -4.58777,-1.73734 -10.0237,-2.78498 -4.7229,-0.91023 -11.04839,-2.43492 -14.05664,-3.38822 -3.00825,-0.95329 -5.98623,-1.73326 -6.61773,-1.73326 -1.25462,0 -9.05526,7.7303 -28.49561,28.23868 -22.367483,23.59632 -34.962152,36.57604 -35.804734,36.89937 -0.638681,0.24508 -0.73867,-0.062 -0.428639,-1.31661 z M 108.89534,271.41235 c 1.88,-4.25003 2.51495,-8.76026 1.6175,-11.48943 -0.96527,-2.93539 -2.88987,-4.0082 -6.51211,-3.62998 -2.94708,0.30771 -9.573782,2.96404 -9.573782,3.83766 0,1.00257 11.504332,13.95549 12.394782,13.95549 0.48999,0 1.42312,-1.20318 2.07361,-2.67374 z m -20.187994,-34.7275 c 5.280352,-4.33518 5.112674,-3.04746 1.890947,-14.52217 -1.198768,-4.2696 -2.179576,-8.61144 -2.179576,-9.64854 0,-3.18139 -1.00889,-3.86424 -7.702185,-5.21305 -3.398844,-0.68492 -6.295797,-1.12923 -6.437677,-0.98735 -0.480676,0.48068 1.384233,10.42628 3.303706,17.61872 2.134838,7.99946 5.244548,16.50754 6.033513,16.50754 0.28458,0 2.575656,-1.68982 5.091272,-3.75515 z M 81.919855,183.3295 c 5.403021,-0.91218 6.010741,-1.45636 6.528296,-5.84577 0.236358,-2.00459 1.449534,-7.19852 2.695941,-11.54206 l 2.266197,-7.89734 -3.192792,-2.81246 c -3.341081,-2.94307 -6.021785,-4.90466 -6.711896,-4.91137 -0.593493,-0.006 -3.759596,8.45653 -5.505955,14.7162 -1.459549,5.23164 -2.847835,11.6053 -3.714308,17.05254 l -0.418787,2.63279 2.018883,-0.3573 c 1.110381,-0.19652 3.825873,-0.66237 6.034421,-1.03523 z M 109.0772,132.29012 c 1.32384,-1.46534 2.17279,-3.01597 2.17279,-3.96867 0,-2.17347 -2.91612,-11.5257 -3.75561,-12.04453 -1.13136,-0.69922 -12.466609,12.30308 -12.466609,14.30004 0,0.62348 3.241909,2.30785 6.308639,3.27774 4.14954,1.31232 5.36332,1.06699 7.74079,-1.56458 z"
     id="path1037"
     transform="scale(0.74999999)" />
  <path
     style="fill:#ffffff;stroke-width:0.212423"
     d="m 265.74647,339.41411 c -3.37917,-3.44523 -4.07306,-4.48811 -3.69938,-5.56005 0.3124,-0.89615 1.93485,-2.61783 2.32563,-2.46787 0.17643,0.0677 0.63781,0.96871 1.0253,2.00225 0.38748,1.03353 1.35865,3.49712 2.15815,5.47463 0.7995,1.97752 1.42214,3.62698 1.38365,3.66547 -0.0385,0.0385 -1.4755,-1.363 -3.19335,-3.11443 z"
     id="path1039"
     transform="scale(0.74999999)" />
</svg>
