<?xml version="1.0" encoding="UTF-8" standalone="no"?>
<svg
   xmlns:dc="http://purl.org/dc/elements/1.1/"
   xmlns:cc="http://creativecommons.org/ns#"
   xmlns:rdf="http://www.w3.org/1999/02/22-rdf-syntax-ns#"
   xmlns:svg="http://www.w3.org/2000/svg"
   xmlns="http://www.w3.org/2000/svg"
   xmlns:sodipodi="http://sodipodi.sourceforge.net/DTD/sodipodi-0.dtd"
   xmlns:inkscape="http://www.inkscape.org/namespaces/inkscape"
   version="1.0"
   width="300.000000pt"
   height="300.000000pt"
   viewBox="0 0 300.000000 300.000000"
   preserveAspectRatio="xMidYMid meet"
   id="svg2646"
   sodipodi:docname="judgment.svg"
   inkscape:version="1.0.1 (3bc2e813f5, 2020-09-07)">
  <defs
     id="defs2650" />
  <sodipodi:namedview
     pagecolor="#ffffff"
     bordercolor="#666666"
     borderopacity="1"
     objecttolerance="10"
     gridtolerance="10"
     guidetolerance="10"
     inkscape:pageopacity="0"
     inkscape:pageshadow="2"
     inkscape:window-width="1600"
     inkscape:window-height="837"
     id="namedview2648"
     showgrid="false"
     inkscape:zoom="1.675"
     inkscape:cx="200"
     inkscape:cy="200"
     inkscape:window-x="-8"
     inkscape:window-y="-8"
     inkscape:window-maximized="1"
     inkscape:current-layer="svg2646" />
  <metadata
     id="metadata2638">
Created by potrace 1.16, written by Peter Selinger 2001-2019
<rdf:RDF>
  <cc:Work
     rdf:about="">
    <dc:format>image/svg+xml</dc:format>
    <dc:type
       rdf:resource="http://purl.org/dc/dcmitype/StillImage" />
  </cc:Work>
</rdf:RDF>
</metadata>
  <g
     transform="translate(0.000000,300.000000) scale(0.100000,-0.100000)"
     fill="#000000"
     stroke="none"
     id="g2644">
    <path
       d="M1390 2994 c-289 -35 -489 -106 -707 -251 l-83 -54 0 -160 0 -159 -150 0 -150 0 -34 -52 c-93 -146 -167 -332 -207 -518 -33 -151 -33 -419 0 -570 44 -206 116 -378 228 -547 l54 -83 130 0 129 0 0 -129 0 -130 83 -54 c165 -110 349 -188 540 -229 147 -32 437 -32 584 0 175 38 366 116 511 208 l52 34 0 150 0 150 159 0 160 0 54 83 c117 175 201 381 233 572 23 135 23 385 0 520 -30 174 -126 419 -218 553 l-29 42 -179 0 -180 0 0 180 0 180 -52 34 c-155 99 -371 183 -538 211 -96 16 -325 27 -390 19z m523 -172 c119 -40 212 -81 289 -128 l58 -35 0 -200 0 -199 199 0 200 0 35 -58 c47 -77 88 -170 128 -289 l32 -98 4 -269 c3 -225 1 -281 -13 -345 -31 -139 -107 -316 -187 -436 l-33 -50 -183 -3 -182 -2 0 -173 0 -173 -72 -41 c-213 -120 -427 -176 -673 -176 -272 0 -512 70 -742 215 l-63 40 0 154 0 154 -153 0 -152 0 -35 53 c-95 143 -174 345 -206 522 -20 117 -20 342 0 458 24 132 71 269 138 400 l61 117 173 0 174 0 0 180 0 179 58 39 c109 74 276 148 412 182 66 17 108 19 355 17 l280 -3 98 -32z"
       id="path2640" />
    <path
       d="M1420 2230 c-11 -11 -20 -24 -20 -30 0 -6 -115 -10 -326 -10 -205 0 -332 -4 -345 -10 -10 -6 -19 -21 -19 -34 0 -13 -26 -90 -59 -172 -32 -82 -100 -257 -151 -389 -51 -132 -101 -249 -111 -261 -25 -27 -24 -45 4 -89 68 -111 141 -158 274 -176 185 -25 351 39 404 156 25 55 24 81 -12 177 -17 46 -64 175 -104 288 -41 113 -90 249 -109 303 -20 54 -36 102 -36 107 0 6 115 10 300 10 260 0 304 -2 325 -16 l25 -16 0 -722 c0 -548 3 -725 12 -734 15 -15 51 -15 66 0 9 9 12 189 12 750 l0 738 325 0 c179 0 325 -4 325 -8 0 -9 -194 -554 -255 -715 l-37 -98 25 -53 c61 -128 218 -193 406 -167 135 18 220 69 267 162 25 51 30 79 15 95 -5 5 -25 50 -44 99 -19 50 -87 224 -151 388 -72 185 -114 307 -111 320 3 12 2 27 -2 33 -22 31 -55 34 -393 34 l-341 0 -26 30 c-21 25 -32 30 -69 30 -31 0 -50 -6 -64 -20z m-647 -242 c9 -24 63 -173 121 -333 57 -159 107 -298 111 -307 7 -17 -10 -18 -260 -18 l-267 0 6 23 c3 13 55 151 117 307 61 157 118 306 127 332 8 26 19 45 22 43 4 -2 14 -24 23 -47z m1562 -131 c38 -100 99 -258 136 -352 l67 -170 -266 -3 c-146 -1 -266 -1 -268 1 -2 1 41 124 95 272 53 149 110 307 127 353 16 45 31 82 34 82 3 0 36 -82 75 -183z m-1325 -611 c0 -27 -49 -73 -102 -96 -73 -32 -214 -39 -289 -15 -72 23 -125 58 -144 95 l-16 30 276 0 c231 0 275 -2 275 -14z m1525 -16 c-19 -37 -73 -73 -143 -95 -81 -27 -221 -18 -295 19 -49 24 -107 78 -107 99 0 4 126 7 280 7 l281 0 -16 -30z"
       id="path2642" />
  </g>
  <path
     style="fill:#ffffff;stroke-width:0.597015"
     d="m 191.9403,379.88256 c -7.05897,-0.37476 -20.23991,-2.05442 -27.1235,-3.45636 -22.05563,-4.49197 -40.79607,-12.1504 -62.06479,-25.36328 l -7.826637,-4.86218 V 325.63768 305.07463 H 74.61371 54.302048 l -4.46648,-6.79229 C 36.132533,277.4438 24.572541,246.98564 21.37078,223.28358 c -0.496555,-3.6759 -0.764254,-12.70923 -0.76077,-25.67164 0.006,-22.31857 0.5054,-27.29341 4.163096,-41.47125 4.015235,-15.56373 8.558348,-27.14217 17.753156,-45.24517 L 48.515126,99.104478 H 71.72025 94.925373 l 0.01296,-24.029851 0.01296,-24.029851 6.434507,-4.27274 c 17.57924,-11.673255 40.94423,-21.825075 59.80824,-25.986006 6.22342,-1.372732 6.53576,-1.381718 43.28358,-1.245312 l 37.01493,0.137397 9.94574,3.265685 c 18.21866,5.982093 30.25505,11.262494 43.33784,19.012432 l 6.1194,3.624991 v 26.761628 26.761627 h 26.73152 26.73151 l 3.65557,6.119402 c 7.65327,12.81152 13.00284,24.97256 19.09279,43.40308 l 3.26479,9.8805 0.11266,37.01493 c 0.11145,36.62102 0.098,37.08163 -1.26072,43.28358 -3.9538,18.04671 -14.3699,42.46386 -25.19994,59.07303 l -4.21417,6.46294 -24.457,0.44179 -24.45701,0.44178 v 23.07473 23.07473 l -8.80597,4.88724 c -13.7591,7.6362 -24.34422,12.23216 -37.52392,16.29254 -18.58125,5.72449 -41.75358,8.43589 -62.62533,7.32781 z m 12.57246,-60.72957 c 0.91531,-0.669 1.24577,-1.8924 1.57226,-5.8209 0.22736,-2.73564 0.60291,-47.39602 0.83456,-99.2453 l 0.42118,-94.27142 39.16544,0.40935 c 21.54099,0.22515 40.81858,0.56978 42.83908,0.76587 l 3.67364,0.3565 -3.56209,10.22198 c -6.80517,19.52852 -22.15958,62.2627 -28.62537,79.66974 -3.57671,9.62911 -6.5031,17.89626 -6.5031,18.37146 0,0.4752 1.04399,2.94012 2.31997,5.47761 6.40671,12.74072 14.43698,18.97325 29.91883,23.22088 5.60978,1.53911 23.32429,1.52323 30.44777,-0.0273 14.10101,-3.0693 22.73626,-8.29888 28.62312,-17.33438 2.41353,-3.70441 5.36797,-10.85204 5.39414,-13.04988 0.007,-0.58191 -1.02885,-3.13415 -2.30171,-5.67164 -2.4017,-4.78787 -26.43882,-66.1468 -33.49787,-85.50916 -5.01638,-13.75949 -5.97888,-17.07237 -5.97888,-20.5789 0,-5.1107 -1.71972,-6.44843 -9.61485,-7.47918 -2.94922,-0.38504 -22.33209,-0.80451 -47.09507,-1.01921 l -42.08305,-0.36486 -2.6763,-2.97669 c -1.47196,-1.63717 -3.54835,-3.34105 -4.61419,-3.78639 -2.28593,-0.955118 -7.35179,-1.051106 -10.42492,-0.19752 -2.03598,0.56551 -5.96969,4.13547 -6.58246,5.97379 -0.20988,0.62961 -7.16402,0.87432 -35.15256,1.23695 -37.87177,0.49068 -52.37393,0.89121 -53.933166,1.48954 -1.265218,0.48551 -2.464495,2.83265 -3.020465,5.91142 -0.622974,3.44984 -4.02012,12.60145 -18.851429,50.78415 -14.547334,37.45161 -21.373731,53.99198 -23.694531,57.41187 -3.321952,4.89517 -3.063904,6.84278 1.919923,14.49055 8.098034,12.42658 18.412481,18.8483 34.032025,21.18816 24.782643,3.71253 46.848813,-4.13569 54.971113,-19.55143 2.0213,-3.83635 2.30247,-4.89487 2.49627,-9.39792 0.25625,-5.95413 2.02197,-0.54296 -21.27642,-65.20326 -8.24831,-22.89163 -14.99693,-41.99871 -14.99693,-42.46017 0,-0.60359 1.20339,-0.95759 4.28871,-1.26161 6.92564,-0.68243 70.18605,-0.46516 73.9063,0.25384 1.79829,0.34755 4.28337,1.30277 5.52238,2.12271 l 2.25276,1.4908 0.0281,89.09601 c 0.0154,49.0028 0.24723,92.5652 0.51511,96.80532 0.40581,6.42323 0.66916,7.84248 1.57859,8.50747 1.4396,1.05266 6.29886,1.02207 7.76413,-0.0489 z"
     id="path2652"
     transform="scale(0.75)" />
  <path
     style="fill:#ffffff;stroke-width:0.597015"
     d="m 64.477612,221.25935 c 0,-0.89071 5.616574,-16.04878 11.637946,-31.4086 6.833976,-17.43269 16.633543,-42.89487 19.523985,-50.72911 4.066741,-11.02247 3.972849,-10.8739 5.268137,-8.3361 0.57555,1.12766 6.73629,17.7667 13.69052,36.97565 6.95424,19.20896 14.13655,39.03473 15.96069,44.05728 1.82414,5.02254 3.12763,9.32105 2.89664,9.55223 -0.23098,0.23119 -15.8455,0.49592 -34.698941,0.58829 -29.658708,0.14531 -34.278977,0.051 -34.278977,-0.69964 z"
     id="path2654"
     transform="scale(0.75)" />
  <path
     style="fill:#ffffff;stroke-width:0.597015"
     d="m 87.303022,249.52576 c -7.040312,-1.26202 -16.00789,-5.62094 -20.637192,-10.03124 -1.941575,-1.84972 -4.576278,-5.84151 -4.576278,-6.93342 0,-0.17726 13.902985,-0.30539 30.895523,-0.28473 28.927565,0.0352 40.204935,0.41612 41.179865,1.39106 0.7473,0.7473 -1.84644,4.64034 -4.8312,7.25134 -3.796,3.32065 -9.01535,5.92597 -15.00538,7.49018 -5.46283,1.42654 -21.581577,2.09264 -27.025338,1.11681 z"
     id="path2656"
     transform="scale(0.75)" />
  <path
     style="fill:#ffffff;stroke-width:0.597015"
     d="m 270.42882,213.58209 c 3.62596,-10.59413 26.05792,-72.99463 28.6711,-79.75635 1.05859,-2.73912 2.14875,-4.75405 2.42258,-4.47761 0.59144,0.59706 6.35499,15.11267 19.87472,50.05486 5.46304,14.1194 11.37332,29.2985 13.13395,33.73134 l 3.20116,8.0597 -3.34377,0.38297 c -1.83909,0.21062 -17.63752,0.41212 -35.10765,0.44776 l -31.76386,0.0648 z"
     id="path2658"
     transform="scale(0.75)" />
  <path
     style="fill:#ffffff;stroke-width:0.597015"
     d="m 297.61194,250.08603 c -12.70301,-0.94398 -21.66777,-4.91262 -28.8509,-12.77211 -1.69917,-1.85916 -3.0894,-3.58551 -3.0894,-3.83633 0,-0.79582 16.12858,-1.23435 45.48036,-1.2366 l 28.46544,-0.002 -1.53401,2.74463 c -2.32283,4.156 -5.87599,7.20542 -11.81477,10.13979 -8.86845,4.38192 -17.15712,5.81736 -28.65672,4.9628 z"
     id="path2660"
     transform="scale(0.75)" />
</svg>
