<?xml version="1.0" encoding="UTF-8" standalone="no"?>
<svg
   xmlns:dc="http://purl.org/dc/elements/1.1/"
   xmlns:cc="http://creativecommons.org/ns#"
   xmlns:rdf="http://www.w3.org/1999/02/22-rdf-syntax-ns#"
   xmlns:svg="http://www.w3.org/2000/svg"
   xmlns="http://www.w3.org/2000/svg"
   xmlns:sodipodi="http://sodipodi.sourceforge.net/DTD/sodipodi-0.dtd"
   xmlns:inkscape="http://www.inkscape.org/namespaces/inkscape"
   version="1.0"
   width="238.000000pt"
   height="238.000000pt"
   viewBox="0 0 238.000000 238.000000"
   preserveAspectRatio="xMidYMid meet"
   id="svg254"
   sodipodi:docname="obtenebrationsup.svg"
   inkscape:version="1.0.1 (3bc2e813f5, 2020-09-07)">
  <defs
     id="defs258" />
  <sodipodi:namedview
     pagecolor="#ffffff"
     bordercolor="#666666"
     borderopacity="1"
     objecttolerance="10"
     gridtolerance="10"
     guidetolerance="10"
     inkscape:pageopacity="0"
     inkscape:pageshadow="2"
     inkscape:window-width="1600"
     inkscape:window-height="837"
     id="namedview256"
     showgrid="false"
     inkscape:zoom="1.492946"
     inkscape:cx="92.308508"
     inkscape:cy="239.67615"
     inkscape:window-x="-8"
     inkscape:window-y="-8"
     inkscape:window-maximized="1"
     inkscape:current-layer="svg254" />
  <metadata
     id="metadata248">
Created by potrace 1.16, written by Peter Selinger 2001-2019
<rdf:RDF>
  <cc:Work
     rdf:about="">
    <dc:format>image/svg+xml</dc:format>
    <dc:type
       rdf:resource="http://purl.org/dc/dcmitype/StillImage" />
  </cc:Work>
</rdf:RDF>
</metadata>
  <g
     transform="translate(0.000000,238.000000) scale(0.100000,-0.100000)"
     fill="#000000"
     stroke="none"
     id="g252">
    <path
       d="M612 1777 c-314 -314 -572 -577 -572 -582 0 -12 592 -605 604 -605 4 0 6 46 4 103 -4 105 -18 152 -58 195 -24 26 -17 32 37 32 60 0 101 -19 145 -68 54 -60 81 -118 88 -192 l6 -65 19 60 c14 43 20 89 20 166 0 102 -1 107 -38 183 -25 50 -58 96 -94 132 -64 63 -60 69 47 69 53 0 74 -5 112 -28 88 -51 149 -150 188 -302 11 -43 22 -80 24 -82 7 -8 34 91 40 146 7 68 -10 189 -35 253 -42 107 -121 199 -235 275 -53 35 -54 37 -32 46 26 10 150 1 218 -15 93 -23 161 -73 244 -181 89 -117 138 -227 174 -392 l9 -40 16 54 c39 128 5 284 -96 430 -29 43 -29 43 -6 36 162 -45 251 -122 291 -250 5 -16 13 -68 17 -115 7 -80 8 -83 20 -56 19 47 34 181 29 275 -5 100 -28 160 -101 258 -41 55 -120 129 -187 175 -24 17 -23 17 55 17 133 1 261 -39 369 -115 28 -20 -125 140 -344 360 -217 218 -397 396 -400 396 -3 0 -263 -258 -578 -573z"
       id="path250" />
  </g>
  <path
     style="fill:#ffffff;stroke-width:0.334908"
     d="M 122.40175,272.53779 C 102.5082,253.93582 86.280544,238.53992 86.340293,238.32467 c 0.363649,-1.31002 0.418646,-10.68512 0.09201,-15.6841 -0.811716,-12.42278 -2.446409,-17.81977 -7.020536,-23.1785 -2.421525,-2.83688 -2.594382,-3.18202 -1.927732,-3.84901 0.818952,-0.81937 8.127083,-0.98593 11.594344,-0.26425 5.222213,1.08696 10.156909,4.33108 14.606461,9.60245 7.56096,8.95741 10.05991,15.31842 11.21341,28.54342 0.22172,2.54204 0.51924,4.50126 0.66116,4.35381 0.50727,-0.52703 3.62973,-11.10458 4.14191,-14.03096 1.42065,-8.11715 1.54869,-25.25575 0.22666,-30.33949 -0.36812,-1.41556 -1.56324,-4.529 -2.65582,-6.91876 -3.76895,-8.24368 -8.09437,-14.61483 -14.42512,-21.24756 -1.97147,-2.06552 -3.916724,-4.19027 -4.322773,-4.72166 -0.927283,-1.21351 -0.949885,-2.41355 -0.05448,-2.89276 2.001823,-1.07134 14.995833,-1.16498 18.944343,-0.13653 6.77747,1.76531 15.30446,8.5727 20.53354,16.39262 4.48891,6.71304 7.53437,13.85128 10.64256,24.94511 1.00636,3.59189 2.28518,8.03532 2.84183,9.87429 1.00977,3.33589 1.01349,3.34184 1.62213,2.59021 1.1479,-1.4176 3.3345,-9.15854 4.50293,-15.94118 1.38918,-8.0641 0.0638,-22.92443 -2.9807,-33.42014 -2.75312,-9.4912 -8.95731,-19.43947 -17.42426,-27.93938 -4.92729,-4.94646 -9.07656,-8.34316 -15.6787,-12.835 -2.49203,-1.69547 -4.78839,-3.36714 -5.10303,-3.71482 -0.54605,-0.60336 -0.52222,-0.66246 0.52333,-1.2983 1.47227,-0.89534 4.57688,-1.18222 9.84732,-0.90993 21.41928,1.10661 31.93979,4.98622 42.89211,15.81718 9.704,9.59647 19.20886,23.83188 24.76156,37.08532 2.88062,6.87559 6.70707,19.90011 8.59872,29.26837 0.23246,1.15123 0.52897,1.98013 0.65892,1.84199 0.37197,-0.3954 2.66028,-8.30878 3.36537,-11.63804 0.84817,-4.0048 1.15619,-11.7569 0.64541,-16.24305 -0.5389,-4.7331 -1.80451,-10.29597 -3.41723,-15.02006 -1.92807,-5.64783 -6.38345,-14.44948 -10.47937,-20.70209 -1.95023,-2.97712 -3.54588,-5.56258 -3.54588,-5.74547 0,-0.80873 11.97359,3.39353 17.26816,6.06046 6.42711,3.23739 13.88943,9.63488 17.32826,14.85562 5.15573,7.8273 6.76284,13.38231 8.27113,28.58934 0.83325,8.40101 0.90373,8.77631 1.62221,8.63795 1.28578,-0.24762 2.95273,-6.45197 4.06874,-15.14374 2.042,-15.9036 1.48712,-29.92311 -1.54525,-39.04174 -1.74782,-5.25586 -5.70977,-12.18333 -11.0125,-19.25534 -4.44127,-5.92312 -14.85019,-15.803032 -23.0619,-21.889826 -2.29082,-1.698037 -3.19721,-2.556174 -2.95535,-2.798033 0.23337,-0.233367 3.32279,-0.291026 9.33255,-0.174177 9.25495,0.179945 13.02424,0.605604 19.70656,2.225428 6.48089,1.570995 13.85364,4.380886 19.57069,7.458752 7.55192,4.065696 6.62596,3.215956 33.84139,31.055706 13.90706,14.22609 25.327,25.97882 25.37764,26.11718 0.11377,0.31087 -148.58628,149.54675 -149.09485,149.6321 -0.20147,0.0338 -16.64286,-15.15832 -36.53641,-33.76029 z"
     id="path282"
     transform="scale(0.74999998)" />
</svg>
