<?xml version="1.0" encoding="UTF-8" standalone="no"?>
<svg
   xmlns:dc="http://purl.org/dc/elements/1.1/"
   xmlns:cc="http://creativecommons.org/ns#"
   xmlns:rdf="http://www.w3.org/1999/02/22-rdf-syntax-ns#"
   xmlns:svg="http://www.w3.org/2000/svg"
   xmlns="http://www.w3.org/2000/svg"
   xmlns:sodipodi="http://sodipodi.sourceforge.net/DTD/sodipodi-0.dtd"
   xmlns:inkscape="http://www.inkscape.org/namespaces/inkscape"
   version="1.0"
   width="238.000000pt"
   height="238.000000pt"
   viewBox="0 0 238.000000 238.000000"
   preserveAspectRatio="xMidYMid meet"
   id="svg142"
   sodipodi:docname="potencesup.svg"
   inkscape:version="1.0.1 (3bc2e813f5, 2020-09-07)">
  <defs
     id="defs146" />
  <sodipodi:namedview
     pagecolor="#ffffff"
     bordercolor="#666666"
     borderopacity="1"
     objecttolerance="10"
     gridtolerance="10"
     guidetolerance="10"
     inkscape:pageopacity="0"
     inkscape:pageshadow="2"
     inkscape:window-width="1600"
     inkscape:window-height="837"
     id="namedview144"
     showgrid="false"
     inkscape:zoom="2.1113445"
     inkscape:cx="158.66667"
     inkscape:cy="158.66667"
     inkscape:window-x="-8"
     inkscape:window-y="-8"
     inkscape:window-maximized="1"
     inkscape:current-layer="svg142" />
  <metadata
     id="metadata136">
Created by potrace 1.16, written by Peter Selinger 2001-2019
<rdf:RDF>
  <cc:Work
     rdf:about="">
    <dc:format>image/svg+xml</dc:format>
    <dc:type
       rdf:resource="http://purl.org/dc/dcmitype/StillImage" />
  </cc:Work>
</rdf:RDF>
</metadata>
  <g
     transform="translate(0.000000,238.000000) scale(0.100000,-0.100000)"
     fill="#000000"
     stroke="none"
     id="g140">
    <path
       d="M612 1777 c-314 -314 -572 -577 -572 -582 0 -13 1142 -1155 1155 -1155 6 0 269 259 585 575 l575 575 -580 580 c-319 319 -582 580 -585 580 -3 0 -263 -258 -578 -573z m785 -2 c12 -9 32 -33 43 -55 11 -22 25 -40 31 -40 6 0 27 14 46 30 48 42 108 42 157 0 59 -52 60 -66 42 -409 -9 -168 -19 -330 -22 -358 l-5 -53 -111 0 -111 0 7 173 c4 94 9 195 12 223 6 51 6 51 -25 56 -26 4 -31 1 -32 -16 -2 -84 -27 -428 -32 -432 -3 -4 -48 -7 -99 -8 l-93 -1 -7 145 c-12 221 -19 310 -26 310 -27 -1 -32 -24 -37 -195 -3 -99 -8 -199 -11 -222 l-5 -43 -85 0 c-65 0 -84 3 -84 14 0 15 -47 371 -55 424 -5 25 -11 32 -28 32 l-22 0 8 -226 c5 -124 6 -228 3 -231 -2 -3 -41 -7 -85 -10 -65 -5 -81 -3 -81 8 -1 43 -71 600 -79 628 -8 24 -7 47 0 75 30 110 122 148 207 86 23 -16 45 -30 49 -30 3 0 29 24 57 54 77 82 130 86 198 15 37 -39 78 -52 78 -25 0 22 50 77 85 92 34 16 78 11 112 -11z m253 -1081 l0 -125 -207 3 c-232 3 -267 12 -304 72 -38 62 -13 122 65 157 36 16 68 19 244 19 l202 0 0 -126z"
       id="path138" />
  </g>
  <path
     style="fill:#ffffff;stroke-width:0.473632"
     d="m 93.457029,199.41811 c -1.147811,-0.48656 -1.11861,-0.34244 -2.307143,-11.38627 -2.080392,-19.33096 -8.3462,-67.73885 -9.471751,-73.17612 -0.861687,-4.1626 -0.85897,-6.41636 0.01168,-9.68798 1.705649,-6.409263 5.486243,-11.585888 10.263076,-14.05284 2.106604,-1.087936 3.138895,-1.31045 6.0889,-1.312478 4.214099,-0.0029 6.160809,0.759805 12.621119,4.944821 2.39502,1.551504 4.60387,2.820916 4.90856,2.820916 0.3047,0 3.57199,-2.930597 7.26066,-6.512438 7.69331,-7.470519 10.35461,-9.117413 14.73327,-9.117413 3.46001,0 6.25967,1.339706 9.92976,4.751629 4.17375,3.880162 7.16453,6.037208 9.1189,6.576837 2.17295,0.599977 3.25919,0.04456 3.64038,-1.861369 0.41036,-2.051773 2.60229,-5.070276 5.89672,-8.120335 5.21276,-4.826092 9.73855,-6.038916 15.73653,-4.217085 4.16245,1.264306 6.62006,3.560823 10.07946,9.418771 1.25268,2.121214 2.72429,4.169626 3.27025,4.552025 1.21779,0.852979 1.74561,0.614676 6.33863,-2.861788 4.60891,-3.488493 7.28585,-4.611188 11.09396,-4.652747 2.57096,-0.02806 3.6142,0.22534 6.23169,1.513654 4.25754,2.09554 8.03625,5.875227 9.42494,9.427406 0.96185,2.460327 1.10161,3.790804 1.285,12.233204 0.11316,5.20995 -0.0399,14.58786 -0.3401,20.8398 -0.87463,18.21378 -3.32329,59.12351 -3.82231,63.8595 -0.25172,2.38891 -0.46136,4.50333 -0.46588,4.69871 -0.005,0.19537 -6.5088,0.35522 -14.45398,0.35522 h -14.44577 v -3.70129 c 0,-8.54728 1.94985,-46.8291 2.6614,-52.2518 0.37375,-2.84834 -0.61751,-3.93064 -4.01247,-4.381 -3.99106,-0.52943 -4.18701,-0.26206 -4.55327,6.21302 -0.94302,16.67171 -3.28619,48.30026 -3.84009,51.83422 -0.15363,0.98016 -0.61882,1.88547 -1.06605,2.07465 -0.43643,0.18459 -6.0514,0.44183 -12.47773,0.57164 l -11.68424,0.236 -0.24821,-2.07384 c -0.13652,-1.14061 -0.58841,-9.0007 -1.00421,-17.46687 -1.23221,-25.08953 -2.45153,-40.25518 -3.30517,-41.10882 -0.52539,-0.52539 -2.60817,0.86811 -3.30152,2.2089 -1.0562,2.04246 -1.58391,7.97088 -2.1557,24.21733 -0.50742,14.41779 -1.15847,26.48919 -1.73062,32.08856 l -0.30248,2.9602 -8.34156,-0.0282 c -8.36083,-0.0283 -12.52819,-0.40512 -13.30083,-1.20268 -0.2274,-0.23475 -1.29239,-7.35367 -2.36665,-15.81984 -3.66919,-28.91682 -5.64598,-42.57147 -6.36414,-43.96023 -0.72361,-1.3993 -2.2011,-1.98206 -5.02519,-1.98206 h -1.30928 l 0.19642,3.90746 c 0.48252,9.59937 1.59328,44.98317 1.59328,50.75495 0,3.50911 -0.15985,6.47749 -0.35522,6.59641 -1.2087,0.73571 -18.978071,1.85406 -20.333021,1.27969 z"
     id="path148"
     transform="scale(0.74999998)" />
  <path
     style="fill:#ffffff;stroke-width:0.473632"
     d="m 182.34826,240.5958 c -21.42982,-0.68483 -25.98877,-2.14195 -30.34955,-9.70028 -3.38588,-5.86858 -2.80141,-10.73585 1.84741,-15.38447 2.75159,-2.75147 6.94286,-5.11995 10.99093,-6.21095 1.48674,-0.4007 9.98956,-0.63067 28.52315,-0.77146 l 26.40497,-0.20059 v 16.37528 16.37528 l -13.61691,-0.0787 c -7.4893,-0.0433 -18.1993,-0.22514 -23.8,-0.40411 z"
     id="path150"
     transform="scale(0.74999998)" />
</svg>
