<?xml version="1.0" encoding="UTF-8" standalone="no"?>
<svg
   xmlns:dc="http://purl.org/dc/elements/1.1/"
   xmlns:cc="http://creativecommons.org/ns#"
   xmlns:rdf="http://www.w3.org/1999/02/22-rdf-syntax-ns#"
   xmlns:svg="http://www.w3.org/2000/svg"
   xmlns="http://www.w3.org/2000/svg"
   xmlns:sodipodi="http://sodipodi.sourceforge.net/DTD/sodipodi-0.dtd"
   xmlns:inkscape="http://www.inkscape.org/namespaces/inkscape"
   version="1.0"
   width="286.000000pt"
   height="289.000000pt"
   viewBox="0 0 286.000000 289.000000"
   preserveAspectRatio="xMidYMid meet"
   id="svg112"
   sodipodi:docname="potence.svg"
   inkscape:version="1.0.1 (3bc2e813f5, 2020-09-07)">
  <defs
     id="defs116" />
  <sodipodi:namedview
     pagecolor="#ffffff"
     bordercolor="#666666"
     borderopacity="1"
     objecttolerance="10"
     gridtolerance="10"
     guidetolerance="10"
     inkscape:pageopacity="0"
     inkscape:pageshadow="2"
     inkscape:window-width="1600"
     inkscape:window-height="837"
     id="namedview114"
     showgrid="false"
     inkscape:zoom="1.7387543"
     inkscape:cx="190.66667"
     inkscape:cy="192.66667"
     inkscape:window-x="-8"
     inkscape:window-y="-8"
     inkscape:window-maximized="1"
     inkscape:current-layer="svg112" />
  <metadata
     id="metadata106">
Created by potrace 1.16, written by Peter Selinger 2001-2019
<rdf:RDF>
  <cc:Work
     rdf:about="">
    <dc:format>image/svg+xml</dc:format>
    <dc:type
       rdf:resource="http://purl.org/dc/dcmitype/StillImage" />
  </cc:Work>
</rdf:RDF>
</metadata>
  <g
     transform="translate(0.000000,289.000000) scale(0.100000,-0.100000)"
     fill="#000000"
     stroke="none"
     id="g110">
    <path
       d="M240 1450 l0 -1200 1200 0 1200 0 0 1200 0 1200 -1200 0 -1200 0 0 -1200z m1485 881 c47 -21 88 -66 106 -116 17 -45 45 -46 85 -4 56 60 141 76 212 40 47 -24 66 -45 91 -101 27 -59 27 -106 -4 -640 -14 -239 -25 -445 -25 -457 0 -23 -1 -23 -165 -23 -164 0 -165 0 -165 23 0 12 7 156 16 320 9 164 14 300 12 302 -2 2 -22 7 -44 11 l-40 6 -20 -331 c-11 -181 -22 -332 -25 -335 -2 -3 -67 -6 -144 -8 l-140 -3 -16 328 c-9 180 -19 331 -22 334 -3 3 -18 3 -32 -1 -21 -5 -25 -12 -26 -44 0 -20 -6 -170 -12 -332 l-12 -295 -122 -3 -121 -3 -6 28 c-3 15 -24 168 -46 338 -22 171 -42 316 -45 323 -2 6 -19 12 -36 12 l-32 0 7 -192 c3 -106 9 -259 13 -339 l6 -147 -117 -7 c-65 -4 -121 -4 -125 1 -5 5 -29 194 -55 419 -25 226 -53 433 -61 461 -49 168 36 324 178 324 54 0 119 -29 150 -67 30 -38 52 -28 102 42 68 95 133 127 215 105 44 -12 115 -69 125 -100 14 -43 77 -32 89 15 9 37 65 96 111 116 51 23 89 23 140 0z m395 -1592 l0 -190 -282 3 c-319 4 -358 11 -428 74 -49 45 -67 93 -51 144 15 51 45 87 94 112 81 41 121 45 400 47 l267 1 0 -191z"
       id="path108" />
  </g>
  <path
     style="fill:#ffffff;stroke-width:0.575124"
     d="m 148.39205,251.16223 c -0.54508,-1.60291 -1.67319,-9.57973 -6.60524,-46.70551 -2.85749,-21.50966 -5.46488,-40.44476 -5.79419,-42.07801 -0.68029,-3.374 -0.97312,-3.56718 -6.13827,-4.04951 l -3.60161,-0.33633 v 4.62339 c 0,4.76475 1.25674,40.05697 2.47297,69.44643 l 0.69021,16.6786 -5.17612,0.37239 c -10.6828,0.76855 -25.328502,1.12272 -26.036016,0.62962 -0.979132,-0.6824 -2.674527,-12.83611 -7.600944,-54.48857 -4.691227,-39.66395 -7.055451,-57.07396 -8.747205,-64.41393 -2.984928,-12.95064 -0.628126,-25.21601 6.369372,-33.147737 9.378033,-10.630089 25.118113,-10.567602 36.570113,0.14518 5.62544,5.262317 7.76943,4.579207 14.55511,-4.637526 4.44633,-6.039273 9.60174,-10.934801 13.65877,-12.970241 3.10089,-1.555735 3.97611,-1.72481 8.93148,-1.725373 5.13629,-5.75e-4 5.75312,0.130338 9.48077,2.01231 4.25638,2.148913 11.64122,8.925116 13.79093,12.654324 1.58048,2.741718 4.46709,3.499216 7.44515,1.953739 2.17668,-1.129597 2.77197,-1.949897 4.96656,-6.843884 1.7786,-3.966293 9.05576,-11.119547 13.40561,-13.177358 7.11456,-3.365724 12.67084,-3.282538 19.83402,0.296942 4.51009,2.253719 9.70722,7.813716 12.12992,12.97682 3.82984,8.161966 5.82444,8.501074 12.82908,2.181116 6.60128,-5.956011 14.20777,-8.593715 20.90409,-7.248903 8.51459,1.709975 14.34144,6.243317 18.06077,14.051447 3.18042,6.676784 3.65608,10.592264 3.2287,26.577644 -0.35704,13.35413 -0.76164,21.30708 -3.81826,75.05373 -0.92645,16.2904 -1.86396,33.57743 -2.08337,38.41562 -0.36784,8.1116 -0.49295,8.85067 -1.60643,9.48955 -1.91069,1.0963 -40.08389,0.97768 -41.4168,-0.1287 -0.85742,-0.7117 -0.94434,-1.55755 -0.65015,-6.32637 0.38986,-6.31954 2.93911,-57.70062 3.48775,-70.2969 0.34182,-7.8479 0.29455,-8.45141 -0.6848,-8.74184 -1.65583,-0.49103 -10.7078,-2.1219 -10.85833,-1.95631 -0.0745,0.0819 -0.95623,13.73625 -1.95948,30.34296 -1.91086,31.63018 -3.83191,58.0611 -4.25043,58.47961 -0.36276,0.36277 -21.35997,1.28725 -29.79828,1.31199 l -7.28121,0.0213 -0.34321,-4.74478 c -0.18877,-2.60962 -0.73729,-13.15597 -1.21893,-23.43631 -0.48165,-10.28035 -1.25582,-25.1617 -1.72039,-33.06966 -1.6279,-27.71072 -1.57665,-27.32177 -3.59867,-27.31519 -2.12465,0.007 -5.31531,1.25188 -5.87142,2.29099 -0.32357,0.60459 -0.97525,11.58749 -1.45737,24.5614 -1.29361,34.81114 -2.4926,62.9804 -2.68746,63.13979 -0.0946,0.0774 -7.23659,0.29523 -15.87112,0.48413 -12.02023,0.26297 -15.75457,0.18045 -15.93567,-0.35212 z"
     id="path118"
     transform="scale(0.74999998)" />
  <path
     style="fill:#ffffff;stroke-width:0.575124"
     d="m 228.91244,311.12602 c -20.89583,-0.57619 -27.44607,-1.4787 -33.76208,-4.65183 -4.81002,-2.41652 -10.42072,-7.91531 -12.6063,-12.35484 -1.62965,-3.3103 -1.78176,-4.06172 -1.53052,-7.56066 0.89667,-12.48734 12.47394,-21.54294 30.3576,-23.74533 2.68871,-0.33112 19.7052,-0.75719 37.81443,-0.94683 l 32.92587,-0.34479 v 25.09784 25.09783 l -19.41044,-0.0975 c -10.67575,-0.0536 -25.8806,-0.27588 -33.78856,-0.49393 z"
     id="path120"
     transform="scale(0.74999998)" />
</svg>
