<?xml version="1.0" encoding="UTF-8" standalone="no"?>
<svg
   xmlns:dc="http://purl.org/dc/elements/1.1/"
   xmlns:cc="http://creativecommons.org/ns#"
   xmlns:rdf="http://www.w3.org/1999/02/22-rdf-syntax-ns#"
   xmlns:svg="http://www.w3.org/2000/svg"
   xmlns="http://www.w3.org/2000/svg"
   xmlns:sodipodi="http://sodipodi.sourceforge.net/DTD/sodipodi-0.dtd"
   xmlns:inkscape="http://www.inkscape.org/namespaces/inkscape"
   version="1.0"
   width="300.000000pt"
   height="303.000000pt"
   viewBox="0 0 300.000000 303.000000"
   preserveAspectRatio="xMidYMid meet"
   id="svg424"
   sodipodi:docname="power.svg"
   inkscape:version="1.0.1 (3bc2e813f5, 2020-09-07)">
  <defs
     id="defs428" />
  <sodipodi:namedview
     pagecolor="#ffffff"
     bordercolor="#666666"
     borderopacity="1"
     objecttolerance="10"
     gridtolerance="10"
     guidetolerance="10"
     inkscape:pageopacity="0"
     inkscape:pageshadow="2"
     inkscape:window-width="1600"
     inkscape:window-height="837"
     id="namedview426"
     showgrid="false"
     inkscape:zoom="1.6584158"
     inkscape:cx="200"
     inkscape:cy="202"
     inkscape:window-x="-8"
     inkscape:window-y="-8"
     inkscape:window-maximized="1"
     inkscape:current-layer="svg424" />
  <metadata
     id="metadata416">
Created by potrace 1.16, written by Peter Selinger 2001-2019
<rdf:RDF>
  <cc:Work
     rdf:about="">
    <dc:format>image/svg+xml</dc:format>
    <dc:type
       rdf:resource="http://purl.org/dc/dcmitype/StillImage" />
  </cc:Work>
</rdf:RDF>
</metadata>
  <g
     transform="translate(0.000000,303.000000) scale(0.100000,-0.100000)"
     fill="#000000"
     stroke="none"
     id="g422">
    <path
       d="M250 1520 l0 -1260 1265 0 1265 0 0 1260 0 1260 -1265 0 -1265 0 0 -1260z m1436 1179 c494 -69 902 -455 1005 -951 54 -262 13 -546 -113 -788 -167 -324 -465 -548 -830 -626 -114 -25 -353 -25 -464 -1 -493 105 -847 460 -951 951 -24 113 -24 351 1 466 91 426 399 769 811 904 161 52 366 70 541 45z"
       id="path418" />
    <path
       d="M1430 2349 c-116 -23 -225 -110 -282 -226 -30 -63 -33 -75 -33 -168 0 -88 3 -107 28 -159 15 -33 43 -79 63 -103 l35 -43 -96 -162 c-53 -90 -98 -164 -99 -165 -1 -1 -26 5 -56 14 -45 12 -64 13 -98 4 -51 -14 -110 -64 -128 -108 -29 -68 -9 -168 43 -215 53 -49 148 -61 212 -28 41 20 86 67 96 100 6 20 15 20 394 20 l388 0 30 -48 c67 -108 213 -124 298 -33 104 110 50 277 -101 312 -39 9 -57 8 -91 -4 l-42 -14 -100 170 -101 169 30 35 c201 228 66 596 -239 653 -62 11 -88 11 -151 -1z m225 -73 c76 -34 139 -97 178 -175 28 -58 32 -75 32 -146 -1 -66 -6 -91 -29 -142 -15 -34 -38 -71 -51 -83 l-22 -21 -110 188 c-93 159 -114 188 -133 188 -25 0 -27 -3 -180 -263 -70 -120 -72 -123 -91 -106 -39 35 -81 140 -87 212 -19 266 253 458 493 348z m-28 -429 l101 -172 -21 -18 c-41 -32 -153 -60 -222 -55 -59 5 -175 47 -175 64 0 11 203 354 210 354 3 0 51 -78 107 -173z m309 -529 c13 -25 13 -31 -2 -53 -9 -13 -22 -44 -29 -67 l-12 -43 -381 -3 -380 -2 -7 32 c-4 18 -15 49 -25 68 l-18 35 94 159 c52 88 97 163 101 167 5 5 31 -3 58 -17 115 -56 246 -55 362 4 l58 29 83 -141 c46 -78 90 -153 98 -168z"
       id="path420" />
  </g>
  <path
     style="fill:#ffffff;stroke-width:0.602985"
     d="m 185.88377,361.14583 c -8.09615,-0.57922 -12.53254,-1.31931 -21.45989,-3.57996 C 103.10706,342.03877 58.753216,296.20713 45.093592,234.2597 c -1.841189,-8.34994 -2.492521,-16.78688 -2.495246,-32.3219 -0.0037,-21.04392 1.330739,-30.63517 6.493084,-46.66914 13.269523,-41.21444 41.450999,-74.730077 79.3918,-94.418992 23.91618,-12.411008 45.85367,-17.62558 74.2302,-17.64462 26.95749,-0.01809 48.98536,5.373173 72.65402,17.781875 14.24132,7.466249 25.17449,15.473755 37.30467,27.322112 22.0844,21.571295 37.06236,47.445335 44.34647,76.607385 7.98241,31.95767 5.16904,67.41266 -7.80683,98.38407 -19.14179,45.68849 -56.11582,78.5237 -104.54199,92.83969 -16.73372,4.94691 -36.30886,6.61374 -58.786,5.00565 z M 129.47508,274.3536 c 7.27093,-1.37891 14.51308,-6.59966 18.20546,-13.12406 0.98964,-1.74867 2.38047,-3.5124 3.09075,-3.9194 0.98603,-0.56502 13.19684,-0.77589 51.64065,-0.89183 l 50.34925,-0.15185 3.51196,5.46219 c 6.01337,9.35265 12.30885,12.93105 22.74958,12.93105 5.44327,0 6.01226,-0.12466 10.34605,-2.26673 7.67122,-3.79166 12.96548,-10.7727 14.41635,-19.00948 1.74546,-9.9091 -3.6085,-20.54244 -12.81361,-25.44871 -7.38375,-3.9355 -13.75165,-4.59078 -20.91981,-2.15273 l -4.32669,1.4716 -6.11219,-10.36563 c -3.36171,-5.7011 -9.3334,-15.74577 -13.27042,-22.32149 l -7.15823,-11.95586 3.96291,-4.92772 c 8.75242,-10.88328 12.29523,-20.50299 12.31707,-33.44419 0.0244,-14.43094 -5.23492,-27.50886 -15.2833,-38.00416 -12.15013,-12.690527 -30.81832,-19.037186 -47.38874,-16.110838 -11.04927,1.951308 -20.45966,6.89207 -28.71092,15.074168 -5.14375,5.10065 -8.55784,10.04227 -12.09091,17.50064 -2.26838,4.78861 -2.72851,6.44088 -3.29499,11.83214 -0.78074,7.4304 -0.26521,19.36677 1.03891,24.05436 1.41144,5.07336 6.52133,14.36179 11.1298,20.23108 l 4.14615,5.28048 -1.13192,1.86661 c -0.62256,1.02663 -6.19827,10.41392 -12.39046,20.86064 -6.1922,10.44672 -11.5829,19.32563 -11.97935,19.73092 -0.56692,0.57957 -1.8775,0.41865 -6.13874,-0.75373 -9.84206,-2.70782 -16.09082,-1.68045 -23.3899,3.84557 -6.94176,5.2555 -10.075312,11.24104 -10.075312,19.24533 0,13.33675 6.940392,22.56383 18.934812,25.17335 4.59889,1.00054 6.59479,1.05463 10.63579,0.28828 z"
     id="path430"
     transform="scale(0.75)" />
  <path
     style="fill:#ffffff;stroke-width:0.602985"
     d="m 165.99058,173.98382 c -2.80201,-3.05908 -5.90212,-9.06852 -8.27471,-16.04019 -2.64672,-7.77722 -3.1183,-17.68148 -1.20621,-25.33327 4.94792,-19.8005 21.78507,-34.127543 42.1177,-35.838737 8.24077,-0.693543 18.45794,1.80064 26.2642,6.411537 5.02441,2.96774 11.1388,8.60699 14.61672,13.48086 3.45985,4.84853 7.29049,12.86511 8.16856,17.09475 1.08393,5.22127 0.41373,18.81973 -1.14129,23.15702 -1.97146,5.49882 -6.0928,12.96212 -8.82334,15.97809 l -2.51457,2.77742 -8.06215,-13.81923 c -16.2171,-27.79753 -20.82142,-34.93587 -23.07075,-35.76795 -2.30229,-0.85167 -4.09434,0.0307 -6.4802,3.19076 -1.28539,1.70248 -7.79564,12.3177 -14.46723,23.58937 -6.6716,11.27168 -12.7797,21.15297 -13.57356,21.95843 l -1.44339,1.46448 z"
     id="path432"
     transform="scale(0.75)" />
  <path
     style="fill:#ffffff;stroke-width:0.602985"
     d="m 191.25582,188.80583 c -5.25715,-1.42816 -13.46926,-4.61417 -15.07373,-5.84808 -1.18752,-0.91326 -1.16718,-0.99995 1.32933,-5.66588 3.09523,-5.78493 15.09184,-26.16913 20.88148,-35.48105 l 4.2434,-6.82499 2.752,4.35482 c 1.5136,2.39515 7.65891,12.65506 13.65626,22.79981 l 10.90425,18.44499 -2.46246,1.96535 c -7.22324,5.76501 -26.06197,9.01743 -36.23053,6.25503 z"
     id="path434"
     transform="scale(0.75)" />
  <path
     style="fill:#ffffff;stroke-width:0.602985"
     d="m 150.81557,248.5806 c -0.97746,-4.4332 -2.21233,-8.05669 -4.04886,-11.88063 l -2.01358,-4.19256 10.9516,-18.41938 c 14.50016,-24.38766 14.72946,-24.75072 15.63186,-24.75072 0.42868,0 3.68173,1.24683 7.229,2.77074 9.14532,3.92881 16.18543,5.2803 25.35381,4.86714 8.86514,-0.39949 13.89518,-1.73605 23.07138,-6.13043 l 6.79077,-3.25202 0.85195,1.32453 c 3.48934,5.42489 24.45904,41.80715 24.45904,42.43624 0,0.43686 -0.92686,2.62619 -2.05969,4.86517 -1.96804,3.88975 -4.57315,11.0187 -4.57315,12.51454 0,0.88275 -29.65199,1.50332 -71.89448,1.50466 l -29.38403,9.3e-4 z"
     id="path436"
     transform="scale(0.75)" />
</svg>
