<?xml version="1.0" encoding="UTF-8" standalone="no"?>
<svg
   xmlns:dc="http://purl.org/dc/elements/1.1/"
   xmlns:cc="http://creativecommons.org/ns#"
   xmlns:rdf="http://www.w3.org/1999/02/22-rdf-syntax-ns#"
   xmlns:svg="http://www.w3.org/2000/svg"
   xmlns="http://www.w3.org/2000/svg"
   xmlns:sodipodi="http://sodipodi.sourceforge.net/DTD/sodipodi-0.dtd"
   xmlns:inkscape="http://www.inkscape.org/namespaces/inkscape"
   version="1.0"
   width="238.000000pt"
   height="238.000000pt"
   viewBox="0 0 238.000000 238.000000"
   preserveAspectRatio="xMidYMid meet"
   id="svg196"
   sodipodi:docname="presencesup.svg"
   inkscape:version="1.0.1 (3bc2e813f5, 2020-09-07)">
  <defs
     id="defs200" />
  <sodipodi:namedview
     pagecolor="#ffffff"
     bordercolor="#666666"
     borderopacity="1"
     objecttolerance="10"
     gridtolerance="10"
     guidetolerance="10"
     inkscape:pageopacity="0"
     inkscape:pageshadow="2"
     inkscape:window-width="1600"
     inkscape:window-height="837"
     id="namedview198"
     showgrid="false"
     inkscape:zoom="2.1113445"
     inkscape:cx="158.66667"
     inkscape:cy="158.66667"
     inkscape:window-x="-8"
     inkscape:window-y="-8"
     inkscape:window-maximized="1"
     inkscape:current-layer="svg196" />
  <metadata
     id="metadata190">
Created by potrace 1.16, written by Peter Selinger 2001-2019
<rdf:RDF>
  <cc:Work
     rdf:about="">
    <dc:format>image/svg+xml</dc:format>
    <dc:type
       rdf:resource="http://purl.org/dc/dcmitype/StillImage" />
  </cc:Work>
</rdf:RDF>
</metadata>
  <g
     transform="translate(0.000000,238.000000) scale(0.100000,-0.100000)"
     fill="#000000"
     stroke="none"
     id="g194">
    <path
       d="M610 1775 l-575 -575 580 -580 580 -580 580 581 580 581 -580 574 c-319 316 -582 574 -585 574 -3 0 -264 -259 -580 -575z m625 -104 c26 -177 43 -268 49 -263 6 3 103 74 216 157 113 83 211 155 219 159 12 8 -66 -101 -241 -334 -68 -90 -77 -106 -61 -112 10 -4 133 -23 273 -43 218 -32 294 -45 254 -45 -20 0 -536 -79 -540 -83 -2 -2 70 -103 161 -225 91 -122 162 -222 160 -222 -3 0 -92 64 -197 143 -106 78 -207 152 -224 164 l-30 22 -39 -270 c-22 -148 -42 -269 -45 -269 -3 0 -23 121 -45 270 l-40 270 -223 -165 c-122 -91 -225 -165 -227 -165 -3 0 69 100 160 222 91 122 163 223 161 225 -4 4 -520 83 -540 83 -40 0 36 13 254 45 140 20 263 39 273 43 16 6 7 22 -61 112 -175 233 -253 342 -241 334 8 -4 106 -76 219 -159 113 -83 210 -154 216 -157 6 -5 23 86 49 263 22 148 42 269 45 269 3 0 23 -121 45 -269z"
       id="path192" />
  </g>
  <path
     style="fill:#ffffff;stroke-width:0.473632"
     d="m 157.77746,252.09055 c -1.01242,-5.8256 -5.60457,-35.63608 -7.91834,-51.40283 -1.49745,-10.20411 -2.45521,-15.45734 -2.79441,-15.32717 -0.28384,0.10892 -11.58997,8.38067 -25.12473,18.38166 -28.454554,21.02542 -32.890443,24.24126 -33.116422,24.00813 -0.208787,-0.2154 2.403924,-3.83927 19.416092,-26.93044 16.53115,-22.43826 22.08732,-30.31442 21.86214,-30.99073 -0.0926,-0.27818 -5.05281,-1.30079 -11.02266,-2.27245 -15.73736,-2.56145 -53.884444,-8.31846 -57.637674,-8.69846 -1.765109,-0.17871 -3.123768,-0.41044 -3.019242,-0.51497 0.326416,-0.32641 12.98847,-2.35841 34.883259,-5.59803 23.460357,-3.47127 34.921557,-5.31124 35.566447,-5.7098 0.92277,-0.5703 0.35019,-2.94595 -1.30774,-5.42586 -0.95552,-1.42926 -7.20311,-9.95179 -13.88353,-18.93895 C 93.29584,95.246996 89.25637,89.618588 89.665659,89.2093 c 0.139028,-0.139029 7.462175,5.024626 16.273661,11.47479 33.83094,24.76484 39.82247,29.09103 40.2894,29.09103 1.03143,0 2.42284,-7.49748 7.44882,-40.137437 3.6997,-24.026723 4.57187,-29.012807 5.07495,-29.012807 0.21329,0 0.38781,0.206825 0.38781,0.459611 0,0.252787 0.63406,4.249055 1.40902,8.880598 0.77497,4.631542 2.37701,14.815015 3.56009,22.62994 4.07794,26.937055 6.00208,37.180095 6.98422,37.180095 0.55887,0 -1.50165,1.48137 30.59252,-21.99385 14.15256,-10.351865 25.84496,-18.708535 25.98312,-18.570381 0.4076,0.407606 -3.64982,6.06038 -24.01658,33.459761 -6.68042,8.98716 -12.92802,17.50969 -13.88353,18.93895 -1.63073,2.43922 -2.23262,4.85425 -1.34633,5.40201 0.624,0.38565 13.10738,2.40441 32.52642,5.26002 17.92536,2.63596 34.24019,5.17678 36.94329,5.75342 0.96333,0.20551 -2.62091,0.88752 -11.13035,2.11789 -13.14644,1.90084 -45.96723,6.94771 -54.43137,8.36995 -2.71526,0.45625 -5.01221,1.05566 -5.10433,1.33203 -0.21499,0.64496 5.9838,9.43246 21.68299,30.73816 15.07935,20.4645 19.56358,26.73557 19.3036,26.99554 -0.19935,0.19936 -7.53437,-5.1041 -28.57726,-20.66227 -18.56994,-13.72979 -29.69375,-21.79277 -29.84752,-21.63468 -0.0777,0.0799 -1.55641,9.84281 -3.28607,21.69544 -2.80616,19.22944 -5.36178,35.80703 -6.95474,45.11344 -0.30097,1.75836 -0.69734,3.19701 -0.88082,3.19701 -0.18348,0 -0.58363,-1.43865 -0.88921,-3.19701 z"
     id="path202"
     transform="scale(0.74999998)" />
</svg>
