<?xml version="1.0" encoding="UTF-8" standalone="no"?>
<svg
   xmlns:dc="http://purl.org/dc/elements/1.1/"
   xmlns:cc="http://creativecommons.org/ns#"
   xmlns:rdf="http://www.w3.org/1999/02/22-rdf-syntax-ns#"
   xmlns:svg="http://www.w3.org/2000/svg"
   xmlns="http://www.w3.org/2000/svg"
   xmlns:sodipodi="http://sodipodi.sourceforge.net/DTD/sodipodi-0.dtd"
   xmlns:inkscape="http://www.inkscape.org/namespaces/inkscape"
   version="1.0"
   width="250.000000pt"
   height="250.000000pt"
   viewBox="0 0 250.000000 250.000000"
   preserveAspectRatio="xMidYMid meet"
   id="svg503"
   sodipodi:docname="sanguinussup.svg"
   inkscape:version="1.0.1 (3bc2e813f5, 2020-09-07)">
  <defs
     id="defs507" />
  <sodipodi:namedview
     pagecolor="#ffffff"
     bordercolor="#666666"
     borderopacity="1"
     objecttolerance="10"
     gridtolerance="10"
     guidetolerance="10"
     inkscape:pageopacity="0"
     inkscape:pageshadow="2"
     inkscape:window-width="1600"
     inkscape:window-height="837"
     id="namedview505"
     showgrid="false"
     inkscape:zoom="2.01"
     inkscape:cx="166.66667"
     inkscape:cy="166.66667"
     inkscape:window-x="-8"
     inkscape:window-y="-8"
     inkscape:window-maximized="1"
     inkscape:current-layer="svg503" />
  <metadata
     id="metadata497">
Created by potrace 1.16, written by Peter Selinger 2001-2019
<rdf:RDF>
  <cc:Work
     rdf:about="">
    <dc:format>image/svg+xml</dc:format>
    <dc:type
       rdf:resource="http://purl.org/dc/dcmitype/StillImage" />
  </cc:Work>
</rdf:RDF>
</metadata>
  <g
     transform="translate(0.000000,250.000000) scale(0.100000,-0.100000)"
     fill="#000000"
     stroke="none"
     id="g501">
    <path
       d="M647 1832 l-577 -577 578 -578 577 -577 580 580 580 580 -575 575 c-316 316 -577 575 -580 575 -3 0 -265 -260 -583 -578z m421 69 c141 -73 162 -241 43 -343 -114 -98 -293 -39 -331 110 -24 96 34 202 130 241 42 16 118 13 158 -8z m452 -1 c50 -25 77 -54 101 -105 57 -122 -28 -268 -164 -282 -132 -14 -226 73 -227 208 0 48 5 64 33 105 58 87 170 119 257 74z m-423 -465 c33 -10 63 -28 89 -55 l39 -40 35 35 c110 107 327 94 401 -23 16 -25 29 -58 29 -73 0 -14 -29 -171 -65 -347 -36 -177 -65 -324 -65 -327 0 -3 -42 -5 -94 -5 l-93 0 -36 138 c-20 75 -52 197 -71 271 -36 138 -42 154 -50 130 -5 -15 -80 -384 -98 -481 l-10 -58 -94 0 -93 0 -10 38 c-6 20 -23 89 -40 152 -16 63 -51 196 -76 294 -54 207 -53 224 14 290 70 68 183 92 288 61z"
       id="path499" />
  </g>
  <path
     style="fill:#ffffff;stroke-width:0.497512"
     d="m 119.68106,240.42289 c -6.65478,-25.32381 -16.1984,-62.56137 -17.23333,-67.2415 -0.58056,-2.62539 -1.08895,-6.67641 -1.12976,-9.00229 -0.10044,-5.72512 0.94213,-7.90917 6.2805,-13.15675 7.20413,-7.0816 15.59465,-10.35725 26.48113,-10.33821 10.85072,0.019 16.74473,2.32058 24.17476,9.44024 2.64144,2.53109 4.96989,4.60199 5.17434,4.60199 0.20445,0 2.31791,-1.84702 4.69657,-4.10448 6.3394,-6.01638 12.15338,-8.63015 21.92093,-9.85489 11.03253,-1.38337 24.10862,3.27806 29.76605,10.61115 2.59619,3.36515 4.67015,7.8886 4.94942,10.79505 0.26668,2.77543 -1.72648,13.6848 -10.50146,57.47854 l -6.57933,32.83582 -3.21855,0.31499 c -1.7702,0.17324 -7.2495,0.34115 -12.17622,0.37313 l -8.95767,0.0582 -6.41022,-24.50249 c -12.56276,-48.02003 -12.73911,-48.63184 -14.01774,-48.63184 -0.37019,0 -0.89551,0.83955 -1.1674,1.86567 -1.30518,4.92606 -13.19559,64.2365 -13.76413,68.65672 l -0.33595,2.61194 h -12.29269 -12.29269 z"
     id="path509"
     transform="scale(0.74999998)" />
  <path
     style="fill:#ffffff;stroke-width:0.497512"
     d="m 126.1194,131.36514 c -5.89307,-1.28001 -12.1747,-4.84047 -15.68159,-8.88839 -2.6546,-3.06415 -5.83457,-9.53994 -6.51766,-13.27277 -2.47323,-13.515353 8.1636,-28.773471 21.70233,-31.131139 7.05115,-1.227905 14.78398,0.465119 20.5185,4.492311 9.40376,6.604001 13.88432,17.556568 11.3128,27.653708 -2.29821,9.02394 -9.30652,16.81435 -17.94815,19.9511 -3.75536,1.36312 -10.0327,1.92359 -13.38623,1.19518 z"
     id="path511"
     transform="scale(0.74999998)" />
  <path
     style="fill:#ffffff;stroke-width:0.497512"
     d="m 183.21619,130.57632 c -5.82174,-1.56787 -11.3009,-5.59777 -14.59914,-10.73764 -3.36451,-5.24314 -5.24542,-15.32954 -3.98568,-21.373273 0.80783,-3.875629 3.65919,-8.526177 7.77225,-12.676513 10.04182,-10.132826 24.41637,-10.861496 35.85765,-1.817685 4.94195,3.906384 9.19422,11.952328 9.90858,18.748561 0.42034,3.999 -0.75297,9.47367 -3.01552,14.07036 -3.22737,6.55685 -9.8133,11.86234 -17.14814,13.81419 -3.43793,0.91486 -11.34461,0.89989 -14.79,-0.028 z"
     id="path513"
     transform="scale(0.74999998)" />
</svg>
