<?xml version="1.0" encoding="UTF-8" standalone="no"?>
<svg
   xmlns:dc="http://purl.org/dc/elements/1.1/"
   xmlns:cc="http://creativecommons.org/ns#"
   xmlns:rdf="http://www.w3.org/1999/02/22-rdf-syntax-ns#"
   xmlns:svg="http://www.w3.org/2000/svg"
   xmlns="http://www.w3.org/2000/svg"
   xmlns:sodipodi="http://sodipodi.sourceforge.net/DTD/sodipodi-0.dtd"
   xmlns:inkscape="http://www.inkscape.org/namespaces/inkscape"
   version="1.0"
   width="300.000000pt"
   height="300.000000pt"
   viewBox="0 0 300.000000 300.000000"
   preserveAspectRatio="xMidYMid meet"
   id="svg585"
   sodipodi:docname="spiritus.svg"
   inkscape:version="1.0.1 (3bc2e813f5, 2020-09-07)">
  <defs
     id="defs589" />
  <sodipodi:namedview
     pagecolor="#ffffff"
     bordercolor="#666666"
     borderopacity="1"
     objecttolerance="10"
     gridtolerance="10"
     guidetolerance="10"
     inkscape:pageopacity="0"
     inkscape:pageshadow="2"
     inkscape:window-width="1600"
     inkscape:window-height="837"
     id="namedview587"
     showgrid="false"
     inkscape:zoom="1.675"
     inkscape:cx="200"
     inkscape:cy="200"
     inkscape:window-x="-8"
     inkscape:window-y="-8"
     inkscape:window-maximized="1"
     inkscape:current-layer="svg585" />
  <metadata
     id="metadata579">
Created by potrace 1.16, written by Peter Selinger 2001-2019
<rdf:RDF>
  <cc:Work
     rdf:about="">
    <dc:format>image/svg+xml</dc:format>
    <dc:type
       rdf:resource="http://purl.org/dc/dcmitype/StillImage" />
  </cc:Work>
</rdf:RDF>
</metadata>
  <g
     transform="translate(0.000000,300.000000) scale(0.100000,-0.100000)"
     fill="#000000"
     stroke="none"
     id="g583">
    <path
       d="M294 2711 c-2 -2 -4 -553 -4 -1223 l0 -1218 1218 2 1217 3 0 1220 0 1220 -1213 0 c-668 0 -1215 -2 -1218 -4z m1310 -273 c7 -18 46 -144 87 -280 41 -136 79 -247 84 -247 6 0 40 51 76 112 l67 112 386 3 386 2 0 -39 c0 -37 -14 -53 -392 -452 -216 -227 -398 -419 -404 -428 -6 -9 -54 -100 -107 -202 l-97 -186 91 -134 c49 -74 99 -141 110 -151 13 -11 19 -29 19 -57 l0 -41 -407 2 -408 3 -3 43 c-2 32 0 42 12 42 8 0 60 66 115 147 l100 146 -97 190 -97 189 -402 424 c-373 392 -403 427 -403 459 l0 35 388 0 387 -1 70 -111 c39 -61 74 -112 79 -112 7 -1 76 222 76 244 0 3 -16 15 -34 27 -26 16 -61 25 -137 33 -97 10 -119 18 -119 45 0 6 89 56 198 112 l197 102 83 0 83 1 13 -32z"
       id="path581" />
  </g>
  <path
     style="fill:#ffffff;stroke-width:0.597015"
     d="m 170.07647,339.25399 -23.65487,-0.16308 -0.4121,-4.18213 c -0.47262,-4.79642 -0.15698,-6.30249 1.40658,-6.71137 0.60933,-0.15934 3.21984,-3.03653 5.80113,-6.39374 6.49923,-8.4529 22.95787,-32.41926 22.76331,-33.14695 -0.51863,-1.93976 -25.38952,-49.87843 -26.66759,-51.40182 -0.85346,-1.01726 -20.37648,-21.70383 -43.38449,-45.97015 -45.662416,-48.15966 -52.787181,-55.79248 -57.840436,-61.96494 -4.305544,-5.25914 -5.102929,-6.85128 -5.102929,-10.189 v -2.71953 l 51.445807,0.15257 51.445808,0.15257 7.50942,11.71306 c 8.45725,13.19147 11.72636,17.83918 12.54776,17.83918 1.02086,0 10.18191,-29.2723 10.18287,-32.53732 3.3e-4,-1.09871 -3.38722,-3.83659 -6.86301,-5.54681 -1.79023,-0.88087 -9.42357,-2.38494 -15.82089,-3.11735 -11.30663,-1.29446 -15.52239,-2.59172 -15.52239,-4.77651 0,-1.793408 4.27468,-4.27242 33.79986,-19.601494 l 18.57598,-9.6444 h 10.81899 10.81899 l 0.94237,2.238806 c 0.51831,1.231343 4.67091,14.328358 9.228,29.104478 8.02632,26.02486 12.57657,39.94135 13.81802,42.26101 0.57799,1.07999 0.64423,1.08186 1.78401,0.0504 1.34547,-1.21763 7.9368,-11.51793 13.93343,-21.7738 l 4.04911,-6.9251 8.97174,-0.38833 c 4.93445,-0.2136 28.00364,-0.38835 51.26486,-0.38835 h 42.29315 v 3.46521 c 0,6.4079 1.77838,4.38896 -77.71982,88.23278 -13.68619,14.43433 -25.86867,27.45851 -27.07217,28.94261 -2.57262,3.17246 -28.46236,52.47149 -28.08518,53.47959 0.49385,1.31995 18.48001,27.41825 22.67595,32.90329 5.84271,7.63771 6.31859,8.64859 6.31969,13.42428 l 9.3e-4,4.02985 -30.29851,-0.1422 c -16.66418,-0.0782 -40.9432,-0.21559 -53.95338,-0.3053 z"
     id="path591"
     transform="scale(0.75)" />
</svg>
