<?xml version="1.0" encoding="UTF-8" standalone="no"?>
<svg
   xmlns:dc="http://purl.org/dc/elements/1.1/"
   xmlns:cc="http://creativecommons.org/ns#"
   xmlns:rdf="http://www.w3.org/1999/02/22-rdf-syntax-ns#"
   xmlns:svg="http://www.w3.org/2000/svg"
   xmlns="http://www.w3.org/2000/svg"
   xmlns:sodipodi="http://sodipodi.sourceforge.net/DTD/sodipodi-0.dtd"
   xmlns:inkscape="http://www.inkscape.org/namespaces/inkscape"
   version="1.0"
   width="300.000000pt"
   height="300.000000pt"
   viewBox="0 0 300.000000 300.000000"
   preserveAspectRatio="xMidYMid meet"
   id="svg1123"
   sodipodi:docname="vengeance.svg"
   inkscape:version="1.0.1 (3bc2e813f5, 2020-09-07)">
  <defs
     id="defs1127" />
  <sodipodi:namedview
     pagecolor="#ffffff"
     bordercolor="#666666"
     borderopacity="1"
     objecttolerance="10"
     gridtolerance="10"
     guidetolerance="10"
     inkscape:pageopacity="0"
     inkscape:pageshadow="2"
     inkscape:window-width="1600"
     inkscape:window-height="837"
     id="namedview1125"
     showgrid="false"
     inkscape:zoom="1.675"
     inkscape:cx="200"
     inkscape:cy="200"
     inkscape:window-x="-8"
     inkscape:window-y="-8"
     inkscape:window-maximized="1"
     inkscape:current-layer="svg1123" />
  <metadata
     id="metadata1115">
Created by potrace 1.16, written by Peter Selinger 2001-2019
<rdf:RDF>
  <cc:Work
     rdf:about="">
    <dc:format>image/svg+xml</dc:format>
    <dc:type
       rdf:resource="http://purl.org/dc/dcmitype/StillImage" />
  </cc:Work>
</rdf:RDF>
</metadata>
  <g
     transform="translate(0.000000,300.000000) scale(0.100000,-0.100000)"
     fill="#000000"
     stroke="none"
     id="g1121">
    <path
       d="M1390 2994 c-289 -35 -489 -106 -707 -251 l-83 -54 0 -160 0 -159 -150 0 -150 0 -34 -52 c-93 -146 -167 -332 -207 -518 -33 -151 -33 -419 0 -570 44 -206 116 -378 228 -547 l54 -83 130 0 129 0 0 -129 0 -130 83 -54 c165 -110 349 -188 540 -229 147 -32 437 -32 584 0 175 38 366 116 511 208 l52 34 0 150 0 150 159 0 160 0 54 83 c117 175 201 381 233 572 23 135 23 385 0 520 -30 174 -126 419 -218 553 l-29 42 -179 0 -180 0 0 180 0 180 -52 34 c-155 99 -371 183 -538 211 -96 16 -325 27 -390 19z m523 -172 c119 -40 212 -81 289 -128 l58 -35 0 -200 0 -199 199 0 200 0 35 -58 c47 -77 88 -170 128 -289 l32 -98 4 -269 c3 -225 1 -281 -13 -345 -31 -139 -107 -316 -187 -436 l-33 -50 -183 -3 -182 -2 0 -173 0 -173 -72 -41 c-213 -120 -427 -176 -673 -176 -272 0 -512 70 -742 215 l-63 40 0 154 0 154 -153 0 -152 0 -35 53 c-95 143 -174 345 -206 522 -20 117 -20 342 0 458 24 132 71 269 138 400 l61 117 173 0 174 0 0 180 0 179 58 39 c109 74 276 148 412 182 66 17 108 19 355 17 l280 -3 98 -32z"
       id="path1117" />
    <path
       d="M1458 2624 c-33 -17 -58 -62 -58 -101 0 -36 33 -89 59 -98 20 -6 21 -14 21 -135 0 -119 -2 -130 -20 -140 -11 -6 -28 -27 -38 -48 -17 -37 -17 -37 -154 -70 l-136 -34 -29 22 c-35 26 -103 29 -136 7 -13 -9 -32 -32 -41 -52 -17 -34 -17 -40 -2 -79 30 -80 127 -103 185 -45 17 17 31 41 31 54 0 26 22 34 194 75 l87 21 29 -28 30 -28 0 -676 0 -677 -35 -35 c-30 -30 -35 -42 -35 -81 0 -36 6 -52 29 -78 26 -29 35 -33 81 -33 46 0 55 4 81 33 39 44 41 107 3 151 -14 17 -32 31 -40 31 -12 0 -14 101 -14 680 l0 679 28 15 c16 8 34 21 41 29 12 16 31 13 179 -29 47 -13 52 -17 52 -44 0 -19 11 -39 31 -59 60 -60 161 -31 189 54 9 28 8 41 -6 70 -9 20 -28 43 -41 52 -30 20 -95 19 -132 -3 -27 -16 -33 -16 -138 10 -108 27 -110 28 -122 63 -8 21 -26 43 -47 55 l-34 20 0 122 c0 118 1 123 23 135 13 7 31 25 40 41 59 99 -53 210 -155 154z"
       id="path1119" />
  </g>
  <path
     style="fill:#ffffff;stroke-width:0.597015"
     d="m 191.9403,379.88256 c -7.05897,-0.37476 -20.23991,-2.05442 -27.1235,-3.45636 -22.05563,-4.49197 -40.79607,-12.1504 -62.06479,-25.36328 l -7.826637,-4.86218 V 325.63768 305.07463 H 74.61371 54.302048 l -4.46648,-6.79229 C 36.132533,277.4438 24.572541,246.98564 21.37078,223.28358 c -0.496555,-3.6759 -0.764254,-12.70923 -0.76077,-25.67164 0.006,-22.31857 0.5054,-27.29341 4.163096,-41.47125 4.015235,-15.56373 8.558348,-27.14217 17.753156,-45.24517 L 48.515126,99.104478 H 71.72025 94.925373 l 0.01296,-24.029851 0.01296,-24.029851 6.434507,-4.27274 c 17.57924,-11.673255 40.94423,-21.825075 59.80824,-25.986006 6.22342,-1.372732 6.53576,-1.381718 43.28358,-1.245312 l 37.01493,0.137397 9.94574,3.265685 c 18.21866,5.982093 30.25505,11.262494 43.33784,19.012432 l 6.1194,3.624991 v 26.761628 26.761627 h 26.73152 26.73151 l 3.65557,6.119402 c 7.65327,12.81152 13.00284,24.97256 19.09279,43.40308 l 3.26479,9.8805 0.11266,37.01493 c 0.11145,36.62102 0.098,37.08163 -1.26072,43.28358 -3.9538,18.04671 -14.3699,42.46386 -25.19994,59.07303 l -4.21417,6.46294 -24.457,0.44179 -24.45701,0.44178 v 23.07473 23.07473 l -8.80597,4.88724 c -13.7591,7.6362 -24.34422,12.23216 -37.52392,16.29254 -18.58125,5.72449 -41.75358,8.43589 -62.62533,7.32781 z m 16.52713,-28.85812 c 1.43339,-0.39812 3.14897,-1.66754 4.92847,-3.64677 4.6017,-5.1182 5.69534,-12.00014 2.80679,-17.66218 -1.15552,-2.26499 -5.67433,-6.90255 -7.23162,-7.42165 -0.54142,-0.18047 -0.94343,-2.14367 -1.27048,-6.2043 -0.26314,-3.26716 -0.49148,-43.88352 -0.50742,-90.25858 l -0.029,-84.31831 2.96303,-1.50148 c 1.62967,-0.82582 3.92388,-2.34512 5.09825,-3.37622 2.01092,-1.76561 2.33365,-1.85349 5.54443,-1.50975 1.87507,0.20074 7.84205,1.58946 13.25996,3.08603 10.88927,3.00792 12.53731,4.02334 12.53731,7.72474 0,2.81786 3.24215,7.36762 6.81886,9.56902 2.59258,1.59568 3.47054,1.80844 7.46268,1.80844 3.27499,0 5.16799,-0.3193 6.85482,-1.15626 4.87632,-2.41946 8.49172,-7.53335 9.12879,-12.91245 0.29701,-2.50782 0.0709,-3.50609 -1.53128,-6.76059 -2.46479,-5.0067 -5.66722,-7.90624 -9.34052,-8.45708 -4.84036,-0.72586 -10.41553,-0.008 -13.97552,1.79844 -3.93611,1.99775 -5.09328,1.90447 -18.68852,-1.50647 -12.09127,-3.03361 -13.32346,-3.63401 -15.21492,-7.41373 -2.33073,-4.65751 -4.06689,-6.62571 -7.65591,-8.67914 l -3.31648,-1.89749 0.17677,-15.789782 0.17676,-15.789779 3.72918,-3.4044 c 4.5108,-4.117953 6.09534,-7.330938 6.09534,-12.359624 0,-10.197908 -9.76296,-17.335313 -19.72482,-14.420217 -4.26465,1.247947 -7.25858,3.824513 -9.31273,8.014491 -3.82835,7.808923 -1.35742,15.175887 7.08106,21.111823 1.36655,0.961288 1.38841,1.155138 1.58202,14.029849 0.26267,17.467169 0.0866,18.694199 -3.13894,21.877669 -1.40473,1.38639 -3.43107,4.07619 -4.50299,5.97734 -1.34328,2.3824 -2.62779,3.80294 -4.1333,4.57099 -1.20138,0.6129 -9.32448,2.91353 -18.05132,5.1125 l -15.86698,3.99814 -2.92304,-2.06596 c -1.60767,-1.13628 -3.83626,-2.37298 -4.95242,-2.74823 -2.77515,-0.933 -10.42039,-0.85995 -12.76591,0.12198 -4.09857,1.71582 -8.9719,8.90744 -8.98083,13.25311 -0.006,2.85352 2.55687,8.78811 4.85466,11.24203 3.96269,4.23195 11.90697,5.81289 17.17867,3.41862 4.16797,-1.89298 7.98122,-6.60514 8.89665,-10.99387 0.52847,-2.53364 4.31834,-3.97345 21.6096,-8.20967 l 15.20189,-3.72434 3.83822,3.8041 3.83823,3.8041 v 89.88839 89.88839 l -3.31785,3.26319 c -5.18483,5.09941 -5.87857,6.54117 -5.86241,12.18357 0.0106,3.70346 0.30131,5.3607 1.26284,7.19902 1.457,2.78558 5.1801,6.54563 7.3204,7.39306 1.98279,0.78506 9.29273,0.81497 12.04952,0.0493 z"
     id="path1129"
     transform="scale(0.75)" />
</svg>
