<?xml version="1.0" encoding="UTF-8" standalone="no"?>
<svg
   xmlns:dc="http://purl.org/dc/elements/1.1/"
   xmlns:cc="http://creativecommons.org/ns#"
   xmlns:rdf="http://www.w3.org/1999/02/22-rdf-syntax-ns#"
   xmlns:svg="http://www.w3.org/2000/svg"
   xmlns="http://www.w3.org/2000/svg"
   xmlns:sodipodi="http://sodipodi.sourceforge.net/DTD/sodipodi-0.dtd"
   xmlns:inkscape="http://www.inkscape.org/namespaces/inkscape"
   version="1.0"
   width="315.000000pt"
   height="330.000000pt"
   viewBox="0 0 315.000000 330.000000"
   preserveAspectRatio="xMidYMid meet"
   id="svg14"
   sodipodi:docname="abomination.svg"
   inkscape:version="1.0.1 (3bc2e813f5, 2020-09-07)">
  <defs
     id="defs18" />
  <sodipodi:namedview
     pagecolor="#ffffff"
     bordercolor="#666666"
     borderopacity="1"
     objecttolerance="10"
     gridtolerance="10"
     guidetolerance="10"
     inkscape:pageopacity="0"
     inkscape:pageshadow="2"
     inkscape:window-width="1600"
     inkscape:window-height="837"
     id="namedview16"
     showgrid="false"
     inkscape:zoom="1.0767308"
     inkscape:cx="150.99228"
     inkscape:cy="250.64105"
     inkscape:window-x="-8"
     inkscape:window-y="-8"
     inkscape:window-maximized="1"
     inkscape:current-layer="svg14" />
  <metadata
     id="metadata2">
Created by potrace 1.16, written by Peter Selinger 2001-2019
<rdf:RDF>
  <cc:Work
     rdf:about="">
    <dc:format>image/svg+xml</dc:format>
    <dc:type
       rdf:resource="http://purl.org/dc/dcmitype/StillImage" />
  </cc:Work>
</rdf:RDF>
</metadata>
  <path
     id="path2252"
     style="fill:#ffffff;stroke-width:0.928737"
     transform="scale(0.75)"
     d="m 196.65278,-4.1757915 c -15.55772,0.433659 -34.54951,-2.0347751 -45.68589,11.4659145 -11.68197,13.721618 -6.75251,37.180402 9.68099,44.806132 17.78499,9.775944 32.30091,24.751242 44.86055,40.494396 4.66871,7.028157 9.69631,14.129669 15.06477,20.441289 3.00781,14.239 10.80427,27.32522 10.60709,42.24604 0.75313,14.00366 13.91186,24.99541 27.78495,23.77412 5.70069,0.53238 9.11046,6.84372 13.35889,10.17712 7.37902,8.05491 16.93228,15.05819 28.29099,15.12916 8.29855,3.97664 16.87621,8.32169 26.22595,8.62165 5.40402,0.31336 9.84023,3.70098 11.78516,8.67608 8.80426,12.7912 23.82879,19.65295 38.85822,21.6403 12.64896,4.45387 29.26441,8.08151 39.98832,-2.72962 10.57835,-9.62954 7.2862,-24.79594 6.46125,-37.46729 -0.80487,-6.92366 0.87985,-14.11723 -1.48678,-21.00864 -4.83304,-19.84545 -10.25193,-39.80023 -18.88558,-58.35848 -4.92628,-7.0254 -6.20434,-15.89601 -11.28634,-22.96267 C 382.2402,84.601709 369.61076,69.717032 354.7154,58.000172 345.42551,44.486305 330.70139,35.978082 317.1617,27.267684 294.38754,13.754332 269.63797,2.8573492 243.30369,-1.1265585 228.24931,-5.6467776 212.13762,-3.6632372 196.65278,-4.1757915 Z M 401.48469,220.53691 c -3.73287,0.47733 3.6041,-0.63625 0,0 z M 249.8774,155.17884 c -11.91913,3.63095 -18.7667,15.91422 -18.12492,27.9749 -0.22492,18.89497 -8.57529,36.12464 -13.80042,53.88821 -3.44439,12.41963 3.33915,25.86596 14.81263,31.27776 9.81792,9.09129 22.81594,12.86082 35.59132,15.5763 3.78229,0.87272 8.77438,1.53131 10.7788,5.89484 12.72386,14.77475 28.87465,26.85643 46.40566,34.93151 4.68843,9.97706 15.1347,14.38976 24.88906,17.77117 13.09818,8.0958 32.37419,7.27665 41.9679,-5.83948 12.48788,-18.74243 19.82527,-40.46496 26.03261,-61.97566 4.49742,-14.06037 4.28046,-31.65327 -7.8058,-41.98302 -12.40137,-10.32999 -28.54265,-15.75452 -44.66194,-15.48886 -4.89582,1.56163 -5.3907,-3.13233 -6.13655,-6.532 -3.96973,-14.02965 -18.48568,-21.80169 -32.35782,-22.00738 -5.23625,0.73447 -8.49502,-2.81391 -12.53357,-5.34139 -5.64138,-3.60102 -12.95806,-3.21739 -18.85046,-4.69085 -10.31883,-11.06309 -21.44651,-25.67066 -38.36302,-24.50633 -2.62677,0.15508 -5.22797,0.73241 -7.84348,1.05028 z m -15.70327,113.31501 c -1.87839,-0.6309 -6.94969,-3.31937 0,0 z m 5.752,1.40399 c -4.17847,-0.61419 -4.26491,-1.02415 0,0 z m -12.75925,-28.51695 c -15.38897,-0.0963 -25.54226,13.51372 -31.60247,26.04999 -1.40763,3.8019 -7.03979,3.02219 -9.92043,5.62503 -14.17524,7.31147 -26.47754,23.28668 -21.53959,39.92646 2.66306,9.80109 11.88974,15.9711 14.67927,25.80347 5.1927,11.20564 13.78513,23.07657 27.37525,23.19516 4.75559,0.12175 10.39781,-1.5308 11.7816,4.53209 6.32737,10.13309 13.13439,22.42746 26.35585,23.79146 5.75079,0.98242 13.0691,1.65099 16.96896,6.18272 4.4438,6.91958 5.95333,16.15458 13.90681,20.40948 12.50808,8.89923 28.61903,2.97456 40.29008,-4.42323 22.06242,-12.44261 41.39639,-29.5209 57.48739,-48.98726 10.1973,-12.27605 6.75504,-32.33007 -6.91837,-40.54325 -9.43716,-6.68614 -21.29674,-7.69019 -31.70585,-12.07552 -7.33238,-12.19142 -18.10168,-21.97902 -31.01293,-27.98909 -8.87719,-5.01766 -18.7642,-7.9916 -28.18682,-11.47862 -9.32399,-8.54142 -19.25098,-16.29596 -29.1101,-24.14898 -5.52559,-3.7486 -12.12786,-6.04163 -18.84865,-5.86991 z m 25.3879,12.35112 c 3.28674,1.51717 -3.52566,-1.3263 0,0 z M 26.813578,285.17122 c -17.0186416,-0.2842 -30.2469957,17.99237 -25.2645552,34.12383 5.80866,17.24033 17.5667732,31.70956 28.3301142,46.1158 20.833512,25.70158 48.962427,44.9388 78.942663,58.48324 9.78813,3.39814 19.09284,8.79363 29.5636,9.62295 10.01147,5.1642 21.26398,7.25628 32.42054,8.30422 10.75228,-0.27398 21.26804,3.68985 32.00879,1.42576 22.47446,-0.97066 45.72488,-2.06218 66.73667,-10.81109 15.49918,-6.78446 20.38219,-27.47559 11.86317,-41.49388 -7.4322,-14.36952 -23.36131,-20.79022 -37.56126,-26.20054 -4.08817,-3.492 -9.28548,-5.14266 -12.14796,-9.96942 -6.3082,-6.53777 -14.63864,-11.10998 -22.88829,-14.23217 -3.52544,-5.51004 -7.91484,-10.29773 -9.3418,-16.83336 -6.11957,-11.31001 -14.48134,-22.71534 -26.39964,-28.31217 -14.06352,-5.17029 -29.08406,0.61782 -43.0162,3.5537 -12.34145,4.88317 -25.80855,1.95515 -38.698183,2.48012 -19.967748,0.47343 -37.900128,-9.64038 -56.457487,-15.37905 -2.646929,-0.62548 -5.369899,-0.93413 -8.090172,-0.87794 z m 176.489102,54.79549 c 0.53412,0.0646 -0.93656,-0.0801 0,0 z" />
  <g
     transform="translate(0.000000,330.000000) scale(0.100000,-0.100000)"
     fill="#000000"
     stroke="none"
     id="g12">
    <path
       id="path4"
       sodipodi:type="inkscape:offset"
       inkscape:radius="0"
       inkscape:original="M 2999 1445 L 2976 1472 C 2963 1487 2949 1517 2945 1538 C 2937 1590 2914 1609 2805 1661 C 2736 1694 2698 1721 2635 1781 C 2591 1823 2545 1861 2533 1864 C 2520 1868 2510 1875 2510 1880 C 2510 1885 2468 1888 2418 1888 C 2330 1887 2321 1888 2253 1923 C 2213 1943 2174 1960 2166 1960 C 2158 1960 2135 1971 2116 1984 C 2096 1997 2057 2014 2028 2020 C 1926 2044 1923 2048 1917 2142 C 1910 2261 1904 2291 1865 2392 C 1828 2488 1824 2510 1840 2540 C 1848 2556 1845 2559 1820 2565 C 1787 2572 1773 2588 1700 2701 C 1614 2834 1386 3038 1280 3077 C 1200 3107 1186 3130 1249 3130 C 1271 3130 1292 3135 1295 3140 C 1299 3146 1381 3150 1509 3150 C 1674 3150 1727 3147 1761 3134 C 1785 3126 1829 3116 1859 3114 C 1920 3108 2048 3062 2178 2997 C 2283 2945 2353 2901 2443 2829 C 2503 2782 2511 2772 2507 2747 C 2504 2723 2506 2719 2522 2723 C 2580 2739 2843 2413 2826 2347 C 2822 2331 2826 2322 2841 2315 C 2854 2309 2871 2279 2887 2235 C 2937 2096 2968 1994 2980 1935 C 2987 1902 2994 1866 2997 1854 C 3000 1839 2996 1831 2981 1827 C 2954 1820 2954 1800 2980 1793 C 2999 1788 3000 1779 3000 1616 L 2999 1445 z "
       d="m 2999,1445 -23,27 c -13,15 -27,45 -31,66 -8,52 -31,71 -140,123 -69,33 -107,60 -170,120 -44,42 -90,80 -102,83 -13,4 -23,11 -23,16 0,5 -42,8 -92,8 -88,-1 -97,0 -165,35 -40,20 -79,37 -87,37 -8,0 -31,11 -50,24 -20,13 -59,30 -88,36 -102,24 -105,28 -111,122 -7,119 -13,149 -52,250 -37,96 -41,118 -25,148 8,16 5,19 -20,25 -33,7 -47,23 -120,136 -86,133 -314,337 -420,376 -80,30 -94,53 -31,53 22,0 43,5 46,10 4,6 86,10 214,10 165,0 218,-3 252,-16 24,-8 68,-18 98,-20 61,-6 189,-52 319,-117 105,-52 175,-96 265,-168 60,-47 68,-57 64,-82 -3,-24 -1,-28 15,-24 58,16 321,-310 304,-376 -4,-16 0,-25 15,-32 13,-6 30,-36 46,-80 50,-139 81,-241 93,-300 7,-33 14,-69 17,-81 3,-15 -1,-23 -16,-27 -27,-7 -27,-27 -1,-34 19,-5 20,-14 20,-177 z" />
    <path
       d="M1920 1893 c0 -74 -7 -110 -41 -223 -22 -74 -51 -154 -65 -177 l-24 -41 49 -32 c34 -21 83 -39 153 -55 182 -41 186 -42 212 -83 25 -40 141 -154 192 -190 18 -12 65 -34 104 -50 40 -15 76 -34 81 -42 4 -8 23 -49 42 -90 18 -41 46 -90 61 -107 l28 -33 22 28 c93 112 149 229 210 433 50 170 50 175 -44 221 -70 34 -82 37 -168 37 l-93 1 -55 51 c-46 44 -54 57 -54 88 -1 58 -17 71 -93 71 -36 0 -69 5 -72 10 -3 6 -20 10 -36 10 -22 0 -32 6 -39 25 -9 23 -14 25 -79 25 l-70 0 -43 52 c-70 84 -146 158 -163 158 -12 0 -15 -15 -15 -87z"
       id="path6" />
    <path
       d="M1662 1264 c-31 -40 -42 -63 -42 -90 0 -56 -14 -74 -54 -67 -43 7 -103 -13 -117 -38 -6 -11 -31 -29 -56 -40 -25 -10 -56 -28 -69 -38 l-24 -19 37 -32 c21 -18 58 -62 83 -98 l45 -67 135 -5 134 -5 11 -35 c5 -19 28 -60 51 -90 23 -30 44 -63 47 -72 5 -14 17 -18 51 -18 29 0 62 -10 98 -28 29 -16 64 -31 76 -34 16 -4 30 -23 44 -57 12 -28 29 -53 39 -56 11 -4 15 -13 11 -30 -3 -20 0 -25 17 -25 27 0 177 88 251 148 93 74 230 213 230 233 0 24 -39 44 -126 64 -38 9 -79 22 -91 30 -12 8 -29 15 -38 15 -9 0 -37 33 -62 73 -43 67 -54 77 -137 124 -57 32 -117 58 -161 68 -64 14 -75 21 -141 85 -40 39 -78 70 -86 70 -8 0 -24 12 -35 28 -11 15 -34 35 -50 44 l-29 17 -42 -55z"
       id="path8" />
    <path
       d="M152 1013 c55 -123 198 -333 284 -419 146 -143 344 -271 503 -323 35 -11 70 -26 77 -32 8 -7 31 -9 54 -6 29 4 40 1 40 -8 0 -15 42 -34 88 -38 17 -2 35 -7 39 -10 3 -4 39 -7 78 -7 40 0 87 -5 104 -11 25 -9 43 -9 72 0 30 9 43 9 59 -1 16 -10 24 -10 40 0 11 7 53 12 99 12 44 0 82 4 85 8 2 4 19 9 38 10 18 1 59 10 91 19 64 18 70 32 40 85 -21 37 -140 98 -190 98 -25 0 -33 4 -33 18 0 11 -13 23 -34 30 -21 8 -48 31 -69 60 -31 41 -44 49 -103 67 -44 13 -72 28 -79 40 -34 66 -69 115 -81 115 -9 0 -14 11 -14 28 -1 39 -19 73 -67 127 -40 44 -45 47 -80 42 -73 -11 -238 -51 -241 -59 -5 -11 -369 -10 -376 1 -3 4 -26 11 -51 15 -70 9 -221 62 -303 107 -41 21 -72 36 -70 32z"
       id="path10" />
  </g>
</svg>
