<?xml version="1.0" encoding="UTF-8" standalone="no"?>
<svg
   xmlns:dc="http://purl.org/dc/elements/1.1/"
   xmlns:cc="http://creativecommons.org/ns#"
   xmlns:rdf="http://www.w3.org/1999/02/22-rdf-syntax-ns#"
   xmlns:svg="http://www.w3.org/2000/svg"
   xmlns="http://www.w3.org/2000/svg"
   xmlns:sodipodi="http://sodipodi.sourceforge.net/DTD/sodipodi-0.dtd"
   xmlns:inkscape="http://www.inkscape.org/namespaces/inkscape"
   version="1.0"
   width="600.000000pt"
   height="350.000000pt"
   viewBox="0 0 600.000000 350.000000"
   preserveAspectRatio="xMidYMid meet"
   id="svg1566"
   sodipodi:docname="daughterofcacophony.svg"
   inkscape:version="1.0.1 (3bc2e813f5, 2020-09-07)">
  <defs
     id="defs1570" />
  <sodipodi:namedview
     pagecolor="#ffffff"
     bordercolor="#666666"
     borderopacity="1"
     objecttolerance="10"
     gridtolerance="10"
     guidetolerance="10"
     inkscape:pageopacity="0"
     inkscape:pageshadow="2"
     inkscape:window-width="1600"
     inkscape:window-height="837"
     id="namedview1568"
     showgrid="false"
     inkscape:zoom="0.97934289"
     inkscape:cx="212.23369"
     inkscape:cy="317.51986"
     inkscape:window-x="-8"
     inkscape:window-y="-8"
     inkscape:window-maximized="1"
     inkscape:current-layer="svg1566" />
  <metadata
     id="metadata1556">
Created by potrace 1.16, written by Peter Selinger 2001-2019
<rdf:RDF>
  <cc:Work
     rdf:about="">
    <dc:format>image/svg+xml</dc:format>
    <dc:type
       rdf:resource="http://purl.org/dc/dcmitype/StillImage" />
  </cc:Work>
</rdf:RDF>
</metadata>
  <path
     id="path2156"
     style="fill:#ffffff;stroke-width:0.361011"
     transform="scale(0.75000001)"
     d="m 295.31757,241.69886 c -6.15405,-0.35871 -11.85513,5.49976 -10.70816,11.6883 0.64788,6.43703 7.7047,11.40258 13.94931,9.15246 4.79219,-1.55153 9.63184,-5.36484 9.424,-10.86156 0.17539,-5.88342 -5.55744,-10.58567 -11.28945,-9.97614 -0.45854,-0.004 -0.91715,-0.007 -1.3757,-0.003 z m 240.02355,-76.48001 c -6.88558,0.36189 -11.02726,6.60658 -16.1288,10.37381 -4.42462,3.49143 -8.64141,7.95053 -14.53315,8.67515 -7.78022,1.58479 -15.82989,0.32047 -23.59967,1.8107 -3.6001,1.25328 -7.00556,3.23629 -10.92692,3.36403 -5.26987,0.47819 -10.75962,-0.18914 -15.72936,2.06946 -5.23957,2.14014 -10.93959,2.20405 -16.49411,2.25951 -5.01564,0.59405 -8.84275,4.38847 -13.21458,6.62294 -3.9185,2.3267 -8.75496,4.62295 -9.6389,9.59891 -1.29496,5.69456 3.28138,11.70358 9.13059,11.95186 6.73905,-0.224 13.24453,-0.64853 20.09037,-0.51021 8.83204,-0.048 17.66733,0.48243 26.3894,1.85548 3.82435,0.50835 6.89261,-2.01664 9.77021,-4.10122 2.99762,-1.91065 6.47661,-2.75678 10.01311,-2.42907 5.88347,-0.22897 11.98346,0.29391 17.18327,3.30198 5.668,2.78083 13.11582,0.11183 15.56224,-5.75079 2.68404,-7.33882 6.26179,-15.25705 13.10216,-19.76816 3.4734,-2.12113 7.75857,-2.09535 11.09615,-4.5211 4.50411,-2.20098 8.0459,-7.1823 6.6948,-12.32362 -1.02747,-5.52143 -6.67085,-7.98769 -11.01565,-10.56954 -2.38261,-1.23187 -5.04137,-2.07319 -7.75116,-1.91012 z m -251.08144,81.10438 c -15.17364,3.74151 -29.93882,9.30121 -45.11556,13.20241 -8.83825,2.55328 -9.27,15.85894 -0.7003,19.03804 8.12182,2.31885 13.33116,11.71184 22.62987,9.86567 7.89432,0.10601 15.27484,-4.68114 17.50815,-12.40269 3.04014,-7.19651 11.70175,-8.7487 15.55718,-14.93452 3.78354,-6.76274 -2.14663,-15.64047 -9.87934,-14.76891 z m 62.82313,-31.23108 c -7.58408,1.39183 -15.66089,2.34169 -21.52073,8.04111 -6.45812,4.80128 -9.2035,12.7151 -14.24015,18.71208 -5.12927,7.73558 3.42751,17.08428 11.79711,15.09167 10.92079,-1.56258 20.44032,-8.87771 31.78151,-8.36618 7.40293,-1.88701 13.60837,-6.8433 21.04452,-8.6156 8.79725,-3.12248 7.49489,-16.80553 -1.46227,-18.79436 -9.70868,0.0742 -17.92252,-5.83092 -27.39999,-6.06872 z m 366.13158,-84.77863 c -12.56475,2.26652 -24.54812,7.20161 -36.89309,10.50783 -7.84145,2.95654 -15.61623,6.01545 -24.16931,5.86389 -16.61227,2.39166 -34.84869,0.42902 -49.90367,9.01999 -7.72718,5.20884 -14.38154,11.80817 -20.97827,18.34377 -13.71492,0.22961 -28.86087,-0.55472 -40.16365,8.57958 -13.72763,1.74092 -21.98083,14.16299 -26.25554,26.19187 -0.90197,6.38423 -6.33628,-0.80024 -10.15992,-0.46738 -10.99058,-2.88837 -24.36976,-2.97418 -33.02483,5.20744 -19.2196,-3.17634 -39.10014,-2.67206 -58.34606,0.0922 -8.1286,2.46729 -16.05166,5.56296 -24.17101,8.16824 -5.71324,1.77102 -10.16752,6.00166 -14.91753,9.19781 -7.09839,1.39214 -14.11904,4.39162 -19.53837,8.91263 -10.01257,-1.73181 -19.66142,2.72928 -28.21965,7.03796 -12.27495,0.77988 -25.22886,1.5627 -35.53682,9.05223 -11.27646,2.0378 -20.81729,11.25359 -23.23385,22.14096 -4.44715,-1.09515 -9.6593,4.06729 -12.65796,-0.57835 -13.59115,-12.89324 -33.74325,-10.00013 -50.59922,-7.48241 -13.25884,1.73806 -24.98898,8.40532 -37.48401,12.39044 -13.81878,2.3793 -29.47664,0.361 -40.8816,10.32459 -14.38551,3.3741 -32.478285,0.74188 -42.497004,14.10784 -2.828642,3.96747 -4.246189,9.01949 -9.7642,10.02347 -12.943483,6.37791 -31.221549,9.12855 -36.165563,24.84032 -5.567387,13.19931 3.300302,28.29181 16.000974,33.33604 10.866413,5.98005 23.615403,4.98486 35.562748,5.07356 8.333749,11.58001 23.081765,15.50614 35.636535,20.79079 13.22002,4.10228 28.23838,7.20707 41.2346,0.62622 4.36018,4.3383 12.99064,0.5297 15.45526,5.04206 3.34894,6.09082 9.05072,10.6987 15.81372,12.41226 4.40794,14.94338 21.19482,18.64488 33.34598,25.37545 22.68955,10.12924 45.53385,21.39549 70.28098,25.31223 12.4864,1.96398 27.2603,-2.14956 32.24582,-14.87079 3.31259,-3.29154 -0.12367,-12.52104 4.03145,-13.04735 5.68039,0.62782 12.60099,-0.52094 15.62097,5.42219 11.44311,10.89575 29.17322,10.87732 43.73149,7.96731 4.7976,-1.41807 9.25511,-3.96676 12.91124,-7.38098 11.72637,2.16052 23.93461,0.13338 35.84794,0.12963 17.14644,-1.1848 32.90496,-10.30043 46.00991,-20.87561 6.4693,-5.89691 11.89557,-13.39269 13.90949,-22.02425 11.07537,1.73572 22.0255,-2.87315 29.13106,-11.36964 15.34477,5.36638 31.74989,-1.3386 43.52408,-11.4135 9.73008,-6.95089 19.85921,-13.68582 27.33622,-23.28082 10.47789,-11.35891 19.03997,-24.2473 28.54069,-36.29555 5.60872,-8.31672 6.07964,-18.96637 6.6032,-28.37522 13.70549,-6.34031 24.17828,-18.61891 31.56214,-31.54618 3.5832,-6.07392 4.62617,-13.69745 6.41773,-19.97114 18.95358,-8.685 32.06544,-28.19773 33.49663,-48.92869 9.05682,-9.70606 21.34011,-17.37496 26.77257,-29.83886 6.25677,-15.06325 -5.96331,-33.27307 -22.12587,-33.71038 -1.10575,-0.20509 -2.2243,-0.0285 -3.33643,-0.0337 z M 413.92251,-3.0527661 C 404.00494,0.05754087 398.13982,9.1762653 389.4442,14.351682 379.20365,21.712094 378.53287,34.858845 373.69704,45.465098 359.43445,35.93861 340.88596,30.184585 324.02845,35.076675 c -14.11328,-7.711659 -31.06906,-6.133312 -45.23521,0.492598 -16.34383,7.415232 -36.03512,12.711067 -45.75772,29.1869 -18.46125,0.703334 -30.31917,16.584068 -42.81011,27.970365 -5.08219,3.249574 -9.01621,7.552962 -15.01526,9.112062 -13.09379,9.18861 -22.34367,22.93839 -35.59466,31.9231 -10.28593,10.69122 -14.16119,26.02406 -25.49247,35.97851 -6.52844,6.90648 -14.150162,13.57871 -18.558945,21.74856 -9.656117,6.19132 -12.866552,18.2186 -20.738277,26.22957 -11.732863,15.80804 -24.470342,32.77179 -26.988997,52.85584 -0.790303,13.40812 10.173299,25.16472 23.088264,27.03304 9.340572,4.23469 11.786992,15.86853 21.628421,19.48852 9.254434,4.55603 19.994654,2.67608 29.498494,0.91749 8.59248,1.1574 17.42635,-2.84119 22.8724,-9.47115 11.82199,1.05894 25.98207,1.03199 33.43062,-9.86313 3.18321,-4.82372 10.77953,-3.96515 15.84683,-6.33985 12.55373,-3.6044 27.3795,-7.19373 33.84589,-19.86233 19.12536,-5.72209 38.74727,-10.16038 57.36667,-17.36855 5.56837,-6.90422 14.57248,-1.7005 21.952,-3.87369 9.71436,-0.97027 16.72064,-9.23456 20.38427,-17.39788 4.11224,-2.40883 5.6982,-8.16041 11.25825,-7.2698 5.15395,-0.2281 9.18539,-4.58887 13.87339,-0.5877 17.36284,7.64563 36.78362,3.09056 53.10281,-4.90204 11.27708,-5.00516 22.46801,-11.08951 32.59918,-17.71356 7.73721,0.98389 15.53461,-0.91664 22.46205,-3.89292 7.60568,0.17794 15.68816,0.20526 22.28256,-4.08836 13.12534,-0.39737 27.9919,1.03253 38.14429,-9.03668 4.7315,-3.50851 9.0828,-7.56165 13.36506,-11.54074 6.09614,0.26719 10.19183,7.17674 16.87595,7.3411 14.35881,2.26674 29.8001,1.42427 42.45513,-6.40576 13.24958,-5.28729 28.29731,-4.82711 40.90155,-12.05168 13.15158,8.93041 31.16248,9.38087 44.81839,1.39402 15.64137,-5.79111 33.53702,-6.73953 46.59932,-18.20217 17.37954,-7.30258 35.62244,-14.42319 49.90286,-27.10388 12.32322,-11.60043 8.56747,-34.300182 -6.95314,-41.157775 C 751.32302,71.61991 731.87763,68.919303 712.88134,65.334528 703.07978,57.489786 694.91897,45.258632 681.03204,45.25434 673.92732,44.482455 666.26978,44.847998 660.7476,39.538172 651.82984,33.325274 641.86691,28.941115 632.767,23.212381 625.73291,19.805062 617.38432,21.26351 610.23757,20.909012 598.02007,12.49979 583.06123,9.0293209 568.75967,5.9755294 560.0254,4.5922897 550.80118,7.0439315 543.71498,11.954507 530.00862,3.9202942 512.59953,3.840989 498.35811,10.544521 475.45855,-4.5605546 446.73787,-2.4965656 420.57618,-3.8124428 c -2.21789,0.2532259 -4.43578,0.5064508 -6.65367,0.7596767 z M 648.49664,42.603246 c 1.68138,8.86843 -0.92988,-3.534156 0,0 z M 106.60947,309.97401 c -4.25156,-5.06328 -4.79568,-7.07313 0,0 z M 65.045804,272.03203 c -13.011351,0.87684 -25.696791,7.50192 -34.545644,16.95573 -9.861588,12.78185 -22.059653,28.16 -17.682612,45.37897 3.60908,16.33043 23.129662,24.50434 38.006746,18.12223 13.847604,-5.69518 28.297831,-10.31021 41.526384,-17.21761 13.451202,-9.21625 15.385962,-29.43172 8.357592,-43.17644 C 93.069267,280.401 79.316778,271.6535 65.045804,272.03203 Z" />
  <g
     transform="translate(0.000000,350.000000) scale(0.100000,-0.100000)"
     fill="#000000"
     stroke="none"
     id="g1564">
    <path
       d="M3111 3306 c-19 -19 -46 -40 -62 -46 -22 -9 -30 -21 -35 -49 -6 -41 -31 -104 -82 -211 -22 -46 -37 -95 -40 -127 -3 -29 -6 -53 -8 -53 -10 0 -58 48 -69 70 -27 50 -110 127 -160 148 -75 31 -146 38 -186 18 -42 -21 -39 -21 -116 15 -70 32 -98 33 -167 4 -17 -7 -56 -23 -86 -36 -185 -76 -203 -92 -210 -182 -6 -71 -22 -83 -66 -48 -30 23 -83 27 -117 9 -12 -6 -37 -27 -55 -47 -79 -87 -118 -122 -139 -127 -17 -5 -24 -16 -29 -50 -7 -47 -29 -59 -54 -29 -14 17 -40 20 -40 6 0 -9 -147 -159 -183 -188 -9 -7 -22 -13 -29 -13 -7 0 -21 -20 -31 -45 -11 -25 -23 -45 -28 -45 -5 0 -9 -6 -9 -13 0 -7 -11 -29 -25 -48 -14 -19 -33 -45 -42 -59 -10 -13 -48 -55 -85 -92 l-68 -67 0 -70 c0 -38 -4 -72 -8 -75 -4 -2 -21 11 -37 31 l-28 36 -20 -38 c-10 -21 -23 -43 -28 -49 -89 -110 -169 -221 -169 -235 0 -6 -4 -11 -10 -11 -5 0 -10 -6 -10 -12 0 -7 -7 -26 -15 -42 -9 -16 -21 -58 -28 -93 -6 -34 -15 -63 -19 -63 -5 0 -8 -15 -8 -32 0 -29 5 -35 43 -50 56 -24 281 -25 311 -3 22 17 66 20 66 5 0 -5 5 -10 10 -10 6 0 10 20 10 45 0 36 -4 45 -17 46 -12 1 -9 4 7 8 17 5 28 3 33 -6 6 -9 36 -13 111 -13 l103 0 6 29 c5 24 13 30 54 40 67 18 135 37 226 63 69 20 77 24 77 46 0 14 -7 30 -16 37 -13 9 -1 15 67 32 94 24 197 53 279 78 30 9 83 24 117 34 57 16 90 31 67 31 -13 0 -47 26 -97 74 -35 34 -38 40 -23 48 17 10 64 -18 109 -64 15 -15 34 -18 122 -18 l105 0 0 31 c0 25 -6 33 -30 42 -16 6 -30 15 -30 19 0 4 -6 8 -13 8 -8 0 -24 9 -37 20 -13 11 -26 20 -31 20 -4 0 -26 12 -48 27 -29 19 -37 29 -29 35 22 13 51 8 93 -17 22 -14 54 -32 70 -41 17 -9 32 -20 35 -23 9 -11 60 -31 80 -31 27 0 25 12 -7 52 -48 57 -57 65 -85 72 -18 4 -30 15 -34 31 -3 14 -10 25 -15 25 -5 0 -9 11 -9 25 0 14 3 25 7 25 3 0 44 -38 90 -85 68 -69 90 -85 113 -85 25 0 30 4 30 24 0 14 5 28 10 31 6 3 10 -1 10 -9 0 -12 10 -16 35 -16 l35 0 0 60 c0 54 2 60 21 60 12 0 42 -23 73 -57 41 -43 65 -60 102 -70 100 -29 105 -28 236 28 68 29 125 56 128 60 3 4 26 17 52 29 34 16 57 36 80 71 35 55 48 61 48 24 0 -24 3 -25 59 -25 56 0 58 1 54 24 -3 15 5 39 24 67 30 46 39 39 31 -27 l-4 -34 52 0 52 0 28 58 c25 51 29 71 34 197 l7 140 1 -182 2 -183 83 0 c65 0 89 4 105 18 11 9 33 26 49 37 44 31 173 167 190 200 9 17 19 32 22 35 19 16 41 78 41 116 0 40 2 44 25 44 23 0 25 -4 25 -40 0 -31 -9 -53 -37 -93 -37 -51 -43 -61 -84 -133 l-19 -34 35 0 c19 0 35 4 35 9 0 5 12 22 28 39 15 16 32 37 37 45 44 65 134 177 206 254 l48 53 -5 -83 c-9 -142 -4 -133 -126 -257 l-112 -115 86 -3 c78 -2 89 0 124 23 21 14 49 28 63 31 14 3 35 9 47 14 12 4 48 11 80 15 32 4 64 11 69 15 6 4 26 10 46 14 27 5 55 26 120 91 95 96 99 100 123 138 30 45 39 33 32 -38 l-7 -65 32 0 c26 0 43 11 86 55 30 30 58 55 64 55 12 0 11 -67 -2 -91 -6 -11 -19 -29 -30 -40 -24 -24 -147 -85 -190 -94 l-31 -7 27 -14 c29 -15 95 -19 95 -6 0 12 107 48 212 72 81 18 104 27 135 56 21 19 49 37 63 40 90 20 336 152 318 170 -3 2 -47 13 -99 24 -52 11 -119 26 -149 35 -30 8 -76 15 -103 15 -63 0 -117 28 -188 100 l-58 57 -80 6 c-59 4 -90 11 -118 28 -21 13 -40 26 -43 30 -15 19 -126 81 -155 86 -23 4 -32 10 -28 19 4 11 -7 14 -46 14 -37 0 -53 -4 -56 -15 -3 -8 -7 -22 -10 -31 -4 -12 -20 -1 -63 44 -48 49 -66 61 -112 72 -30 7 -66 18 -80 25 -36 18 -98 25 -124 15 -25 -9 -66 -82 -66 -117 0 -28 -25 -49 -34 -27 -3 8 -6 25 -6 37 0 16 -19 35 -65 66 -56 38 -72 44 -118 45 -73 1 -133 -27 -153 -71 -9 -18 -22 -33 -29 -33 -6 0 -22 19 -34 43 -43 84 -181 127 -407 127 l-140 0 -33 -34z"
       id="path1558" />
    <path
       d="M5354 2478 c-53 -35 -95 -59 -134 -80 -14 -7 -27 -16 -30 -20 -19 -26 -86 -38 -209 -38 l-129 0 13 -49 c17 -66 21 -71 58 -73 18 0 -22 -4 -88 -8 -225 -14 -213 -10 -313 -111 l-88 -89 -115 0 c-113 0 -116 -1 -155 -30 -24 -18 -51 -30 -71 -30 -21 0 -33 -5 -33 -13 0 -14 -20 -61 -44 -106 -12 -21 -10 -26 16 -55 17 -17 48 -56 71 -86 49 -65 84 -106 114 -133 12 -11 24 -37 28 -63 3 -24 10 -46 16 -49 12 -8 12 -182 0 -189 -11 -7 -21 18 -21 55 0 62 -42 191 -78 243 -82 115 -163 176 -234 176 -46 0 -48 -1 -48 -28 0 -16 8 -32 20 -40 21 -13 27 -42 9 -42 -6 0 -35 24 -64 53 -99 97 -99 97 -149 97 -25 0 -46 -2 -46 -5 0 -2 11 -21 25 -41 25 -37 33 -74 16 -74 -5 0 -19 11 -32 25 -21 21 -33 25 -86 25 -49 0 -63 3 -63 15 0 22 -378 23 -386 1 -3 -8 -39 -22 -82 -32 -62 -14 -83 -24 -108 -52 -25 -26 -44 -36 -93 -45 -49 -9 -61 -15 -61 -30 0 -11 -16 -35 -35 -54 l-36 -36 -29 28 c-25 24 -35 27 -71 22 -23 -3 -45 -10 -48 -15 -17 -26 -74 -42 -146 -42 -67 0 -109 -10 -125 -29 -12 -14 -52 -31 -74 -31 -28 0 -31 -11 -46 -165 -19 -199 -34 -279 -87 -457 -15 -49 -30 -88 -34 -88 -3 0 -9 22 -13 50 -4 27 -11 52 -16 55 -21 13 -10 70 20 102 30 32 30 33 30 146 0 90 -3 117 -15 127 -8 7 -15 23 -15 36 0 20 -5 24 -29 24 -27 0 -32 -6 -50 -55 -12 -31 -21 -63 -21 -73 0 -10 -10 -1 -25 23 -13 22 -28 45 -32 50 -5 6 -22 29 -38 51 -16 23 -44 52 -63 64 -30 21 -40 22 -120 17 -111 -8 -189 -29 -274 -72 -75 -39 -112 -43 -182 -19 -57 20 -85 14 -216 -48 -47 -22 -94 -44 -105 -49 -11 -5 -60 -15 -110 -24 -228 -38 -386 -75 -413 -97 -24 -19 -62 -58 -62 -63 0 -2 17 -7 37 -11 43 -8 114 -43 126 -61 4 -7 15 -13 22 -13 8 0 15 -4 15 -10 0 -6 46 -10 118 -10 114 0 118 1 147 28 69 64 155 119 155 99 0 -2 -19 -25 -42 -51 -55 -60 -85 -166 -48 -166 5 0 31 -13 57 -28 57 -34 129 -58 199 -67 44 -6 61 -3 107 19 58 28 89 25 125 -10 13 -14 17 -14 20 -3 3 8 10 21 17 29 7 8 17 30 23 47 15 44 88 144 163 223 l62 65 -5 -35 c-4 -20 -19 -58 -36 -86 -16 -27 -35 -68 -42 -90 -7 -21 -17 -45 -22 -51 -15 -18 -13 -110 3 -129 7 -8 15 -32 18 -52 l6 -37 62 -3 62 -3 3 -60 3 -61 62 -33 c35 -18 80 -39 100 -46 21 -6 40 -15 43 -19 9 -12 254 -112 300 -122 25 -6 49 -14 55 -19 5 -5 33 -9 62 -9 l53 0 0 90 c0 53 -4 90 -10 90 -6 0 -10 41 -10 104 0 83 -3 105 -15 110 -10 3 -15 19 -15 48 0 39 1 41 14 23 7 -11 40 -72 73 -135 l60 -115 119 -5 c147 -6 202 -29 226 -92 5 -12 23 -17 70 -20 105 -6 106 -5 168 118 31 60 70 136 88 169 l32 60 0 -87 c0 -48 -4 -90 -10 -93 -5 -3 -10 -28 -10 -56 l0 -49 125 0 c131 0 139 2 252 58 57 29 79 46 103 83 29 46 30 50 30 172 0 98 3 127 15 137 12 10 15 38 15 136 0 68 3 124 8 124 7 0 32 -39 68 -107 17 -32 17 -32 -14 -67 -39 -45 -48 -88 -27 -145 12 -36 13 -46 3 -53 -7 -4 15 -8 52 -8 36 0 75 -3 87 -6 15 -4 28 2 45 21 13 15 29 33 36 41 6 7 12 17 12 22 0 5 7 15 15 22 8 7 15 21 15 32 0 10 7 32 15 48 33 63 97 19 99 -67 l1 -43 43 0 c41 0 50 4 91 41 10 8 25 18 34 22 9 3 17 11 17 16 0 5 10 11 23 15 32 8 122 96 196 191 34 44 66 85 71 92 6 7 10 17 10 22 0 6 6 14 13 18 7 4 23 22 35 40 20 28 22 44 22 148 0 118 -8 153 -47 197 -16 18 -24 120 -10 134 15 15 53 -41 81 -118 l29 -78 41 0 c38 0 46 5 104 70 54 60 66 80 79 133 14 59 13 101 -2 140 -6 14 -2 17 20 17 127 0 245 122 245 254 l0 49 155 153 c149 147 155 155 155 194 0 39 -1 40 -33 40 -20 0 -52 -12 -83 -32z"
       id="path1560" />
    <path
       d="M428 1255 c-20 -14 -41 -25 -47 -25 -6 0 -23 -21 -38 -47 -15 -27 -38 -59 -50 -73 -15 -16 -23 -37 -23 -59 0 -32 1 -33 31 -27 17 3 45 12 62 20 75 34 158 66 172 66 8 0 15 5 15 10 0 6 11 10 25 10 23 0 25 3 25 50 0 28 -3 50 -7 50 -5 0 -21 11 -37 25 -37 32 -81 32 -128 0z"
       id="path1562" />
  </g>
</svg>
