<?xml version="1.0" encoding="UTF-8" standalone="no"?>
<svg
   xmlns:dc="http://purl.org/dc/elements/1.1/"
   xmlns:cc="http://creativecommons.org/ns#"
   xmlns:rdf="http://www.w3.org/1999/02/22-rdf-syntax-ns#"
   xmlns:svg="http://www.w3.org/2000/svg"
   xmlns="http://www.w3.org/2000/svg"
   xmlns:sodipodi="http://sodipodi.sourceforge.net/DTD/sodipodi-0.dtd"
   xmlns:inkscape="http://www.inkscape.org/namespaces/inkscape"
   version="1.0"
   width="581.56152pt"
   height="572.15784pt"
   viewBox="0 0 581.56152 572.15784"
   preserveAspectRatio="xMidYMid meet"
   id="svg5137"
   sodipodi:docname="gargoyle.svg"
   inkscape:version="1.0.1 (3bc2e813f5, 2020-09-07)">
  <defs
     id="defs5141" />
  <sodipodi:namedview
     pagecolor="#ffffff"
     bordercolor="#666666"
     borderopacity="1"
     objecttolerance="10"
     gridtolerance="10"
     guidetolerance="10"
     inkscape:pageopacity="0"
     inkscape:pageshadow="2"
     inkscape:window-width="1600"
     inkscape:window-height="837"
     id="namedview5139"
     showgrid="false"
     inkscape:zoom="0.92883549"
     inkscape:cx="314.56348"
     inkscape:cy="383.94337"
     inkscape:window-x="-8"
     inkscape:window-y="-8"
     inkscape:window-maximized="1"
     inkscape:current-layer="svg5137"
     fit-margin-top="0"
     fit-margin-left="0"
     fit-margin-right="0"
     fit-margin-bottom="0" />
  <metadata
     id="metadata5129">
Created by potrace 1.16, written by Peter Selinger 2001-2019
<rdf:RDF>
  <cc:Work
     rdf:about="">
    <dc:format>image/svg+xml</dc:format>
    <dc:type
       rdf:resource="http://purl.org/dc/dcmitype/StillImage" />
    <dc:title></dc:title>
  </cc:Work>
</rdf:RDF>
</metadata>
  <path
     id="path5741"
     style="fill:#ffffff;stroke-width:0.807465"
     d="m 193.69799,287.90864 c -10.22977,0.69702 -19.74713,8.09224 -21.19617,18.54973 -4.26032,15.11349 5.23137,34.67177 22.10299,35.70956 12.03671,1.7855 23.75532,-8.80528 22.80609,-21.01611 -1.32037,-9.64858 -0.42043,-21.00778 -7.85182,-28.33744 -4.31207,-4.02443 -10.06776,-5.52441 -15.86109,-4.90574 z m 10.05386,55.65815 c -22.26753,0.58117 -41.15006,24.45146 -34.26827,46.16732 3.45306,13.41439 19.42607,23.05192 32.44675,16.51828 6.69458,-3.46659 12.01704,-9.80672 19.94054,-10.6421 12.33422,-3.05425 18.61221,-18.31909 12.59295,-29.35253 -5.49551,-12.1627 -16.3415,-23.46678 -30.71197,-22.69097 z m 18.78297,33.83931 c -19.04942,0.173 -37.3165,15.89423 -37.5344,35.48105 -1.07386,10.51999 4.93753,21.16143 14.75985,25.1922 11.91512,8.37267 28.59995,3.12357 38.60682,-5.92191 13.3523,-11.4433 16.87895,-34.60119 3.67725,-47.44034 -5.38634,-4.14001 -12.62966,-7.28392 -19.50952,-7.311 z m 17.38253,8.66919 c 0.59978,0.93788 -1.53907,-1.97843 0,0 z m 1.8988,3.32763 c 1.02186,2.94579 -1.096,-2.23429 0,0 z m 1.33105,4.54513 c 0.42453,2.80776 -0.34893,-1.41091 0,0 z m -49.49021,36.48406 c -0.0461,-0.0662 -0.1684,-0.35845 0,0 z M 315.20063,384.0519 c -12.03092,0.41772 -20.72487,12.41005 -19.22613,23.99205 -0.44001,19.31647 16.68426,37.54983 36.26713,36.53893 6.09447,-0.15369 10.69175,-4.5889 15.11084,-7.90712 13.09539,-5.42996 19.85181,-24.82253 9.37887,-35.75073 -5.12891,-5.84376 -13.10739,-5.86409 -20.0336,-7.42487 -6.14239,-5.1937 -12.88014,-10.33145 -21.49711,-9.44826 z m 31.36015,-29.98179 c -14.84848,0.62106 -29.78246,11.17317 -33.56964,25.82147 -3.02275,15.54977 9.57671,32.51898 25.77415,32.77478 19.64911,2.11362 40.72279,-14.33502 39.52467,-34.87861 -1.937,-14.48504 -17.93697,-24.21951 -31.72918,-23.71764 z M 473.31034,281.3212 c -17.09653,-0.5172 -29.99992,15.88824 -30.63943,31.99256 -1.10921,16.28454 10.20683,35.52086 27.86693,36.15129 17.31649,1.36018 31.59491,-14.78892 31.93894,-31.40588 1.41207,-15.21563 -7.3657,-32.97065 -23.24289,-36.28022 -1.94952,-0.37122 -3.94247,-0.46932 -5.92355,-0.45775 z m -45.9686,-72.27107 c -7.28603,-0.37337 -13.50044,3.68084 -18.69074,8.23892 -4.49598,2.49634 -5.85337,8.21732 -11.09706,9.35651 -9.45918,5.90604 -15.51975,16.49312 -18.33981,27.06262 -2.26604,9.93072 3.59616,19.14416 9.48926,26.54218 9.92239,11.55471 27.3727,16.40369 41.27995,9.2874 7.15375,-3.01397 13.19306,-8.90316 15.52473,-16.23441 5.71534,-1.81319 9.79848,-6.32853 14.66346,-9.54033 11.29973,-11.62541 6.98079,-31.09507 -3.0341,-42.14044 -7.2593,-8.50767 -18.85976,-12.43842 -29.79569,-12.57245 z m -45.17217,58.47008 c -0.0712,-0.20402 -0.11384,-0.96044 0,0 z M 335.34776,138.81034 c -15.61803,-0.0935 -25.38965,16.16696 -25.86876,30.27512 -0.93929,15.61263 9.44171,34.1915 26.48362,34.90466 14.92497,0.47621 24.75636,-14.73741 26.21751,-28.10589 2.03065,-13.67783 -4.08391,-29.48712 -17.11758,-35.44635 -3.07836,-1.23347 -6.40912,-1.72086 -9.71479,-1.62754 z m -86.95363,0.5362 c -11.03137,4.89238 -19.6112,16.812 -17.75053,29.26593 0.90806,10.57111 3.34878,21.84793 9.896,30.32886 8.26469,9.0413 21.44816,5.2041 32.24243,6.02575 12.26897,0.17786 20.54294,-11.05498 24.87836,-21.31732 4.56343,-11.7565 2.56427,-28.50488 -10.09328,-34.28878 -5.19594,-9.86174 -17.26924,-11.45997 -27.29444,-10.95233 -4.02869,-0.19851 -7.92784,0.11895 -11.87854,0.93789 z m -26.80082,-0.41004 c -10.27104,-0.14246 -22.3218,1.08652 -28.46779,10.54591 -10.32318,12.63149 -9.00051,31.45298 -0.49994,44.62651 4.58751,7.79872 13.4491,11.97781 22.38975,10.85713 8.94776,0.40645 19.47303,0.38273 25.16463,-7.80278 6.30936,-7.54714 10.35336,-17.11708 9.03556,-27.09957 0.21352,-12.76582 -7.75272,-26.45521 -20.29045,-30.31793 -2.37615,-0.68299 -4.86884,-0.86854 -7.33176,-0.80927 z m -91.85204,80.26053 c -8.71254,-0.15349 -15.24998,6.00705 -21.3536,11.30133 -13.022808,7.59309 -14.960703,29.29158 -1.94828,37.67232 9.53927,5.31966 20.96126,2.13774 31.37651,3.00834 11.15151,0.2155 20.28904,-10.20168 19.15358,-21.19747 -0.29965,-14.69708 -10.99827,-31.40052 -27.22821,-30.78452 z M 101.0795,185.25837 c -18.067855,1.02333 -35.444034,16.95783 -34.093221,35.82327 -0.586545,10.78512 4.851603,21.7393 14.843435,26.43494 19.646116,11.12811 47.974616,-1.00335 52.611246,-23.33756 2.15301,-7.66357 -0.28875,-15.65387 -4.70658,-21.91207 -4.78845,-10.53018 -17.45792,-16.92105 -28.65488,-17.00858 z M 332.70932,0.86669309 c -9.1807,3.90092401 -16.55719,11.78448791 -19.5999,21.31732991 -21.73772,-0.54423 -43.54161,-0.88961 -65.26096,0.260218 -62.16929,9.366065 -122.52384,36.992057 -166.77732,82.220829 -12.663426,13.22927 -28.488983,26.97438 -29.677408,46.60574 -0.664663,2.74102 0.736077,6.81865 -0.621367,8.77328 -17.328022,4.92598 -25.390711,22.79992 -31.310178,38.21836 -12.8059952,32.87291 -20.5215851,68.15374 -19.34413833,103.5151 -0.13543875,4.62332 3.91302233,8.60856 5.45690633,11.97305 -7.2959019,13.47009 -2.3833455,29.20362 0.195612,43.26341 5.840947,26.11513 15.950814,51.12312 29.459901,74.20425 19.475419,34.64401 47.073318,64.4652 78.916682,88.0868 46.78093,33.97816 104.43821,55.02476 162.68007,52.67432 4.54019,-0.20177 8.66683,-2.8554 13.15439,-0.99356 13.62999,0.69751 27.16047,-2.43753 40.57185,-4.53251 46.17112,-9.12254 90.36758,-29.56977 126.3418,-60.01838 23.5573,-22.04554 46.51809,-45.45043 62.3772,-73.83546 16.71889,-29.44712 28.42889,-61.91989 33.59819,-95.40879 0.83085,-5.83735 0.44263,-12.0065 -1.68274,-17.44246 7.91876,-14.44154 4.15066,-31.48557 3.45321,-47.09435 0.55968,-3.69477 -3.4856,-10.30473 2.23845,-10.50361 13.55647,-4.27327 23.24037,-17.76226 22.64451,-32.01346 1.42674,-56.91132 1.51507,-113.85391 1.97625,-170.781102 C 580.84438,47.123533 583.15417,34.306671 578.98702,22.54202 573.26174,7.1426549 556.08037,-0.03788943 540.56655,0.52802908 472.99257,0.02908032 405.38806,-0.07581468 337.82921,0.04658307 c -1.70663,0.27336976 -3.41325,0.54674026 -5.11989,0.82011002 z M 268.79675,154.32719 c 12.73844,2.83554 16.91976,20.75136 7.55506,29.40351 -7.91021,9.70257 -25.73245,6.70607 -29.29168,-5.62746 -4.87173,-13.20574 8.0937,-27.477 21.73662,-23.77605 z m -50.52634,-0.37534 c 6.10191,1.28224 10.26918,6.75765 12.57195,12.03896 -0.1448,5.60609 1.90152,11.79139 -2.57906,16.25134 -2.92488,5.94482 -11.46129,10.4422 -17.04273,5.00461 -4.35242,-2.98134 -6.43894,-7.55535 -6.54748,-12.76442 -2.10128,-5.0291 -0.0631,-9.34618 2.83702,-13.51502 1.83632,-3.8171 6.58342,-6.71773 10.7603,-7.01547 z m 120.73144,3.59888 c 6.35901,6.60839 7.38711,17.70482 1.47417,24.9388 -2.648,5.8274 -7.60435,3.05859 -9.79361,-1.52721 -4.46289,-6.74975 -3.83258,-16.13233 1.35891,-22.38977 2.519,-2.67495 4.0827,-4.48525 6.96053,-1.02182 z M 101.857,203.82371 c 10.05666,-0.25362 19.19363,11.98699 12.76424,20.86378 -5.90068,10.37128 -22.142723,11.81195 -29.702035,2.53213 0.469532,-5.63558 -1.272017,-11.99737 3.510395,-16.21644 2.570727,-4.37569 8.382762,-7.25242 13.4274,-7.17947 z m 337.72601,26.00281 c 5.04665,4.7279 9.86215,10.44437 8.84265,17.86354 -0.56586,7.39984 -10.40586,9.64689 -16.50079,8.60878 -0.81134,2.49 -0.42784,8.26705 -3.32021,11.21604 -5.4135,8.73346 -19.32234,9.25474 -25.47009,1.27509 -8.45427,-5.80706 -8.63733,-20.98988 1.52628,-25.23823 3.43899,-2.11682 9.29621,-2.58112 12.25169,-1.62747 -1.30409,-5.88823 0.95309,-13.6058 8.04456,-13.85915 5.00235,-2.10362 9.68518,0.87662 14.62591,1.7614 z m -312.27044,5.57181 c 7.91237,0.95252 11.81472,9.98294 11.32813,17.13178 -10.68835,0.28965 -21.37672,0.57931 -32.06509,0.86896 -0.31233,-10.7124 10.26004,-19.58465 20.73696,-18.00074 z m 296.09594,8.79378 c 0.0872,0.0391 -0.10248,-0.0743 0,0 z m -5.77209,0.41792 c -0.007,-0.0565 -0.0982,-0.23775 0,0 z m 0.84689,1.9682 c -0.005,-0.0424 -0.12048,-0.2098 0,0 z m 9.11233,1.279 c 0.27105,0.26614 -0.3781,-0.46789 0,0 z m -7.38859,1.49034 c -0.0123,-0.0426 -0.13885,-0.159 0,0 z m 8.84425,0.52989 c 0.26616,0.39859 -0.23937,-0.42575 0,0 z m -6.63319,1.90984 c -0.0146,-0.0349 -0.15326,-0.12047 0,0 z m 7.76868,0.29492 c 0.20272,0.42639 -0.18752,-0.48159 0,0 z m 0.70968,2.01708 c 0.14581,0.45287 -0.1265,-0.50601 0,0 z m -5.0356,0.18767 c -0.0251,-0.0316 -0.16794,-0.0776 0,0 z m 5.42987,1.59599 c 0.094,0.49706 -0.069,-0.50686 0,0 z m -1.66382,0 c -0.0307,-0.0248 -0.17919,-0.0382 0,0 z m 45.09806,42.70721 c 7.55799,3.82749 11.04111,12.57204 9.5374,20.68846 -1.32238,6.05987 -6.0719,11.18198 -11.82416,13.45839 -12.51706,-4.36347 -15.70839,-22.82971 -5.34595,-31.09558 1.86092,-1.47526 5.15399,-4.6711 7.63271,-3.05127 z m -273.93961,32.62339 c -4.05697,-1.47417 -8.33751,-5.52957 -7.56059,-8.12706 -4.21546,-4.50889 -4.27531,-11.18734 -1.37363,-16.46344 2.59828,-6.91292 5.68199,-5.53569 5.32177,1.47176 1.20415,7.70624 2.40831,15.41249 3.61245,23.11874 z m 6.68838,30.98323 c 10.2522,2.89033 15.49661,18.02499 6.28409,25.07621 -6.81634,7.35078 -21.30574,7.24812 -26.47697,-1.74022 -3.97032,-12.43957 7.2843,-25.5226 20.19288,-23.33599 z m 142.80262,10.55379 c 4.67836,0.97925 12.63517,3.94387 9.13748,9.91986 -3.81539,11.99278 -20.57295,15.94856 -29.4723,7.14567 -0.82189,-10.74678 10.22598,-18.84721 20.33482,-17.06553 z m -125.64089,23.46215 c 4.71628,0.0277 7.32216,3.5919 7.26721,8.06958 1.73481,13.49509 -14.6316,24.17091 -26.45076,17.5989 -7.73499,-12.53104 5.53535,-28.18837 19.18355,-25.66848 z m 119.52971,16.14925 c -0.7604,5.83047 -4.8853,11.07077 -10.36769,13.19224 -0.20349,-7.332 -0.63033,2.50905 -4.36692,0.57721 -13.19864,-1.46643 -20.00095,-18.5836 -12.17818,-29.03396 8.97093,5.08817 17.94187,10.17635 26.91279,15.26451 z m -30.40443,12.76485 c 5.4525,0.63877 12.40942,4.44996 13.2207,9.86447 -2.44283,4.16272 -8.81761,-2.53279 -12.9414,-3.01213 -1.88691,-1.87235 -12.43825,-2.91598 -8.10002,-5.43296 2.35786,-1.34975 5.15355,-1.66786 7.82072,-1.41938 z" />
  <g
     transform="matrix(0.1,0,0,-0.1,17.051316,555.85166)"
     fill="#000000"
     stroke="none"
     id="g5135">
    <path
       d="m 3200,5239 c 0,-3 89,-94 198,-201 109,-107 202,-200 206,-207 5,-8 -6,-6 -31,5 -89,39 -177,70 -300,108 -72,22 -278,62 -393,76 -144,18 -441,8 -575,-18 -331,-64 -437,-95 -670,-196 -182,-79 -444,-238 -569,-346 -126,-108 -215,-191 -274,-258 -77,-84 -172,-202 -172,-211 0,-3 66,-6 146,-6 120,0 148,-3 155,-15 20,-36 49,-110 49,-124 0,-9 5,-16 10,-16 6,0 10,4 10,9 0,5 6,16 14,23 7,8 22,34 33,59 25,55 49,60 69,13 18,-42 37,-36 53,17 l 12,39 h 53 53 l 13,-57 c 21,-95 40,-153 50,-153 6,0 10,13 10,29 0,42 37,121 55,115 10,-4 16,5 21,30 l 6,36 h 59 c 57,0 59,-1 72,-32 8,-18 24,-42 37,-53 l 22,-20 19,25 c 54,69 65,80 79,80 8,0 20,-10 25,-22 15,-32 31,-33 60,-4 23,23 34,26 93,26 40,0 73,-5 80,-12 9,-9 12,-9 12,0 0,8 24,12 79,12 h 79 l 22,-44 c 34,-72 43,-73 70,-11 14,31 31,55 40,56 8,0 71,1 139,1 130,0 141,-3 141,-48 0,-11 6,-28 13,-38 13,-17 15,-16 40,14 15,17 27,40 27,51 0,14 7,19 25,19 29,0 45,-30 45,-85 0,-40 17,-88 28,-81 5,3 14,24 21,48 7,24 17,52 21,63 5,11 11,28 14,38 11,34 90,26 127,-14 37,-40 66,-38 85,6 l 14,35 h 270 269 l 15,-28 c 8,-15 23,-36 35,-46 20,-18 21,-18 31,10 25,70 45,80 55,27 4,-21 9,-41 12,-46 6,-10 38,31 47,61 7,22 10,23 144,20 l 137,-3 8,-40 c 5,-22 8,-52 8,-66 0,-35 -48,-171 -64,-181 -15,-10 -79,-10 -92,0 -6,4 -16,19 -24,35 -19,35 -26,34 -53,-8 l -23,-35 h -141 -141 l -18,48 c -10,26 -22,51 -26,57 -5,5 -9,17 -9,26 0,30 -19,31 -32,2 -54,-131 -56,-133 -101,-134 -23,0 -168,0 -322,0 l -280,1 -28,31 -27,32 -11,-31 c -13,-37 -32,-41 -184,-39 l -109,2 -26,74 c -15,41 -31,76 -36,78 -12,4 -59,-65 -68,-99 -9,-39 -41,-54 -72,-33 -23,15 -26,15 -51,-5 -21,-16 -40,-20 -106,-20 -80,0 -82,1 -119,37 l -37,36 -36,-36 -37,-37 h -99 c -79,0 -99,3 -99,14 0,17 -42,85 -52,86 -4,0 -15,-22 -25,-49 -20,-57 -29,-61 -154,-61 h -79 l -17,35 c -20,42 -30,44 -39,8 -10,-41 -13,-43 -38,-32 -15,7 -28,27 -37,57 -17,55 -33,63 -49,25 -40,-97 -36,-93 -121,-93 -43,0 -81,-4 -84,-10 -5,-9 20,-68 34,-80 7,-6 28,-41 49,-82 11,-24 11,-31 -2,-50 -26,-37 -21,-50 21,-46 42,3 25,24 156,-187 86,-138 90,-147 85,-195 -4,-41 -3,-42 25,-36 36,7 47,-17 20,-47 -33,-36 -43,-63 -37,-97 6,-25 2,-36 -21,-60 -15,-15 -25,-35 -23,-44 2,-14 12,-11 53,18 28,19 60,37 71,40 18,6 21,3 16,-19 -5,-29 -4,-30 36,-9 18,8 36,13 41,9 6,-3 34,-45 63,-94 l 52,-89 51,4 c 78,5 99,-3 123,-44 21,-38 59,-79 65,-71 2,2 8,27 13,54 l 9,50 48,3 c 33,2 47,-1 47,-10 1,-7 16,-20 35,-29 38,-18 65,-9 65,21 0,19 8,20 118,20 h 118 l 17,-29 c 13,-23 15,-44 10,-112 -3,-46 -11,-91 -18,-99 -8,-8 -16,-32 -20,-53 -6,-29 -13,-39 -33,-44 -36,-9 -54,7 -77,66 -11,28 -24,50 -30,48 -5,-2 -23,-26 -40,-55 -36,-62 -50,-66 -189,-58 -54,2 -96,2 -94,-2 2,-4 10,-20 18,-35 13,-27 12,-29 -31,-74 -36,-37 -40,-45 -22,-40 13,3 26,1 29,-4 3,-6 25,-7 48,-4 l 42,7 76,-119 c 42,-65 84,-134 94,-153 11,-19 36,-60 55,-90 34,-51 36,-59 31,-114 -5,-63 -4,-64 48,-42 11,4 23,-9 43,-44 28,-49 28,-52 12,-77 -22,-33 -6,-54 26,-35 18,11 23,11 35,-5 7,-10 14,-21 14,-24 0,-3 -20,-32 -45,-63 -25,-32 -45,-62 -45,-67 0,-12 87,-11 128,0 31,9 34,8 62,-31 17,-23 30,-49 30,-60 0,-10 -20,-54 -45,-97 -26,-43 -47,-89 -49,-102 -1,-13 -6,-32 -10,-41 -10,-21 -55,-37 -81,-28 -11,4 -28,3 -38,-2 -22,-11 -33,-4 -52,32 -12,23 -13,39 -5,80 10,53 6,75 -11,64 -5,-3 -25,8 -45,25 -19,17 -40,31 -47,31 -7,0 -25,19 -40,42 -23,35 -27,50 -21,81 7,45 -15,77 -52,77 -16,0 -32,12 -49,38 -24,36 -25,44 -19,123 8,106 9,102 -23,112 -16,5 -37,12 -48,16 -11,5 -33,12 -49,17 -17,5 -38,23 -49,41 -18,31 -18,35 -2,78 10,24 24,50 31,56 25,20 17,46 -13,46 -47,0 -133,15 -139,24 -8,13 46,68 103,105 79,50 95,99 21,60 -16,-8 -49,-18 -75,-22 -27,-3 -61,-13 -76,-21 -33,-17 -40,-13 -57,27 -12,28 -10,35 19,82 17,28 30,53 27,55 -3,3 -20,0 -39,-6 -50,-17 -83,-5 -109,38 -12,20 -23,38 -26,41 -4,5 -167,9 -460,9 l -173,1 -22,50 c -12,27 -25,50 -29,50 -4,0 -23,-16 -42,-35 -20,-19 -40,-35 -46,-35 -5,0 -10,-7 -10,-15 0,-10 -10,-15 -29,-15 -22,0 -39,12 -75,52 -25,29 -46,56 -46,60 0,4 -5,8 -11,8 -6,0 -10,-12 -9,-28 2,-15 -1,-42 -5,-60 l -8,-33 -91,2 -91,1 2,-48 c 5,-105 84,-400 139,-519 12,-27 37,-81 54,-120 42,-91 184,-332 247,-416 99,-134 276,-322 397,-424 399,-334 870,-537 1334,-575 216,-17 557,7 792,56 220,47 545,174 720,282 69,43 218,142 244,162 243,191 482,461 630,710 41,69 139,275 173,365 40,105 89,276 113,399 11,54 20,100 20,102 0,2 -26,4 -59,4 -57,0 -59,1 -64,30 -8,39 -33,39 -55,0 -19,-34 -14,-33 -192,-32 -197,1 -178,-4 -202,47 -12,25 -27,45 -33,45 -6,0 -15,-19 -21,-42 -5,-23 -13,-43 -19,-45 -16,-5 -52,58 -65,115 -7,32 -17,52 -26,52 -8,0 -14,-8 -14,-19 0,-10 -7,-24 -15,-31 -8,-7 -17,-28 -21,-49 -14,-74 -4,-71 -209,-71 -119,0 -186,4 -190,11 -8,12 -45,-17 -45,-35 0,-6 -21,-47 -46,-90 l -46,-79 -49,6 -48,6 10,-26 c 5,-14 7,-28 4,-31 -3,-3 3,-14 12,-24 16,-17 15,-21 -5,-56 -19,-34 -25,-37 -71,-40 -34,-2 -59,2 -73,12 -31,22 -38,20 -38,-9 0,-26 -16,-31 -82,-26 -16,1 -28,-1 -28,-6 1,-4 30,-39 65,-78 36,-38 68,-78 71,-88 4,-12 -7,-38 -29,-70 -19,-29 -49,-77 -67,-107 -18,-30 -34,-56 -35,-58 -2,-2 -15,4 -30,14 -36,23 -45,9 -32,-53 9,-43 8,-55 -6,-77 -22,-33 -37,-33 -67,-1 -13,14 -29,25 -37,25 -19,0 -17,-75 3,-105 13,-20 14,-28 4,-40 -7,-8 -10,-21 -7,-29 5,-12 -14,-48 -112,-206 -8,-13 -16,-12 -60,2 -27,9 -52,13 -55,11 -3,-3 3,-18 13,-32 10,-14 23,-41 29,-60 11,-30 9,-37 -22,-85 -18,-28 -42,-66 -52,-83 -17,-31 -34,-43 -34,-25 -1,12 -63,76 -94,96 -40,25 -50,9 -25,-39 11,-22 31,-70 43,-107 l 23,-67 -35,-59 -35,-59 -59,20 c -32,11 -61,17 -64,14 -4,-3 12,-27 35,-53 22,-26 41,-50 41,-54 0,-12 -100,-174 -121,-195 -19,-19 -19,-19 -34,0 -8,11 -42,64 -74,118 l -60,97 20,35 c 12,19 18,35 15,35 -3,0 7,24 24,53 35,63 36,67 12,67 -10,0 -39,-20 -64,-45 -25,-25 -51,-45 -56,-45 -6,0 -20,17 -33,38 -12,20 -36,60 -54,87 -17,28 -45,73 -62,101 l -30,50 24,30 c 13,16 32,38 41,49 10,11 33,39 51,63 18,23 38,42 44,42 7,0 29,16 50,35 21,19 44,35 52,35 8,0 30,-24 49,-54 19,-30 39,-57 44,-60 6,-3 27,21 48,55 l 37,61 39,-43 c 31,-34 41,-40 48,-29 7,12 13,11 33,-8 13,-12 27,-22 31,-22 4,0 5,46 1,102 l -6,103 30,32 c 17,18 31,36 31,40 0,4 -14,21 -31,37 -34,32 -33,34 15,110 26,41 42,55 67,61 19,4 37,7 42,6 7,-1 10,28 7,95 -2,50 10,60 75,68 99,11 145,18 145,22 0,2 -20,35 -45,73 -25,38 -45,72 -45,75 0,5 119,206 129,218 10,11 81,-11 120,-38 65,-44 59,-16 -16,84 -18,24 -33,52 -33,62 0,9 16,44 35,76 19,32 35,60 35,63 0,3 -23,4 -50,3 -89,-7 -97,-2 -105,73 -3,36 -10,63 -13,61 -4,-2 -16,-22 -26,-43 -45,-87 -80,-102 -144,-58 -20,14 -48,25 -63,25 -28,0 -119,-28 -134,-41 -5,-5 -39,-9 -76,-9 -60,0 -70,3 -87,24 -27,35 -54,37 -62,6 -6,-25 -6,-25 -135,-28 -72,-1 -135,2 -142,6 -14,9 -43,114 -43,157 0,17 11,43 25,60 l 24,30 1,-27 c 0,-33 9,-58 21,-58 5,0 9,9 9,20 0,11 7,47 17,80 l 16,60 h 41 c 270,3 361,-1 392,-20 31,-20 31,-20 49,0 14,15 31,20 70,20 52,0 53,-1 95,-56 23,-30 47,-53 53,-51 6,2 25,23 42,48 l 32,44 84,3 c 70,2 86,0 96,-14 12,-17 14,-17 26,0 12,16 25,18 98,14 l 85,-4 95,160 95,161 h 49 c 59,0 66,13 27,51 l -29,29 55,90 c 30,49 56,92 58,94 2,2 31,-11 65,-28 88,-44 116,-40 63,10 -14,13 -23,31 -21,41 3,9 -1,22 -9,29 -20,16 -17,28 5,22 10,-3 22,0 25,6 4,6 16,11 27,11 19,0 20,4 14,43 -4,23 -12,53 -19,67 -15,32 -10,50 14,50 24,0 40,29 40,73 0,41 28,70 67,69 27,-1 83,16 93,27 17,19 55,30 87,26 26,-3 51,2 81,17 24,11 64,23 89,26 40,4 116,-11 136,-28 5,-4 -4,-25 -18,-46 -14,-21 -33,-52 -41,-69 -31,-63 -47,-72 -136,-74 -17,-1 -28,-7 -28,-15 0,-12 19,-26 35,-25 3,0 13,-8 22,-17 15,-15 15,-18 0,-42 -14,-24 -22,-27 -63,-25 l -46,3 6,-30 6,-30 h -50 -50 l 36,-65 36,-65 -21,-32 c -41,-65 -37,-62 -62,-44 -35,24 -38,21 -27,-30 7,-32 7,-54 -1,-70 -10,-23 -14,-24 -68,-18 -32,3 -79,9 -105,13 -53,9 -59,2 -25,-26 12,-11 42,-40 66,-66 l 45,-46 -19,-35 c -18,-33 -21,-35 -61,-29 -39,5 -42,4 -48,-23 -6,-22 -3,-31 16,-46 l 23,-17 -22,-40 c -13,-22 -23,-42 -23,-44 0,-2 25,-2 56,1 62,5 74,-3 74,-50 0,-15 5,-39 11,-55 10,-27 11,-27 21,-8 6,11 20,30 31,42 11,12 25,33 31,45 9,18 21,24 58,26 39,3 49,-1 66,-22 l 20,-26 15,23 c 14,22 19,22 138,20 l 124,-4 47,-49 c 26,-28 52,-50 57,-50 6,0 11,-7 11,-15 0,-27 27,-15 40,18 25,66 45,97 62,97 10,0 18,-6 18,-14 0,-8 5,-27 10,-42 l 11,-27 27,25 c 22,21 34,24 66,20 l 39,-5 -6,179 c -3,99 -11,208 -17,244 -21,122 -42,225 -51,255 -5,17 -20,72 -35,123 -14,51 -41,132 -60,180 -18,47 -31,88 -29,90 3,3 97,-86 210,-196 112,-111 209,-202 215,-202 5,0 10,10 10,23 0,12 2,166 4,342 3,176 6,545 8,820 1,275 5,577 8,672 5,166 4,172 -15,177 -11,3 -236,3 -500,2 -264,-2 -588,0 -720,5 -328,11 -885,16 -885,8 z M 4280,3920 c 7,-44 16,-80 20,-80 16,0 38,38 49,85 7,27 17,55 23,62 14,17 508,19 508,2 0,-6 -13,-30 -30,-54 -16,-24 -35,-54 -40,-67 -22,-49 -89,-143 -99,-140 -7,1 -53,-9 -104,-23 -51,-14 -121,-32 -157,-41 -36,-9 -72,-20 -80,-24 -9,-4 -36,-11 -60,-15 -25,-4 -50,-11 -56,-16 -10,-8 -47,1 -72,17 -4,2 20,46 29,54 3,3 18,15 34,28 36,29 26,39 -25,22 -22,-7 -43,-10 -46,-7 -4,3 -10,32 -14,64 -3,32 -9,51 -13,43 -4,-8 -12,-28 -18,-45 l -12,-30 -7,32 c -4,18 -12,39 -18,45 -10,13 -5,57 18,131 l 11,37 h 73 74 z"
       id="path5131" />
    <path
       d="m 408,3638 c -83,-172 -140,-331 -197,-553 -35,-133 -69,-469 -49,-481 4,-3 8,0 8,5 0,6 21,11 50,11 h 50 v -37 c 0,-21 3,-62 6,-91 6,-42 9,-50 20,-41 8,6 14,17 14,23 0,6 16,42 36,79 l 36,68 51,-3 c 49,-3 52,-5 57,-33 4,-23 11,-31 30,-33 21,-2 29,4 43,33 l 17,36 91,-3 92,-3 26,-52 c 30,-59 87,-133 101,-133 6,0 10,14 10,32 0,17 13,55 29,84 17,28 27,55 24,58 -4,3 1,6 11,6 9,0 20,-10 25,-22 10,-26 48,-64 56,-56 3,3 1,17 -5,32 -15,41 -13,46 25,46 19,0 35,2 35,5 0,3 -29,53 -65,110 -36,58 -65,108 -65,111 0,3 9,17 20,31 11,14 20,34 20,44 0,16 -2,16 -30,2 -40,-19 -52,-14 -84,41 -24,41 -25,49 -16,93 12,54 46,130 69,153 24,25 -13,25 -60,1 -87,-45 -128,-27 -203,91 -37,58 -44,82 -26,93 6,3 10,20 10,37 0,20 9,39 30,58 17,15 30,30 30,33 0,2 -41,8 -91,12 l -90,7 -45,68 c -24,38 -44,73 -44,79 0,29 -29,5 -52,-41 z"
       id="path5133" />
  </g>
</svg>
