<?xml version="1.0" encoding="UTF-8" standalone="no"?>
<svg
   xmlns:dc="http://purl.org/dc/elements/1.1/"
   xmlns:cc="http://creativecommons.org/ns#"
   xmlns:rdf="http://www.w3.org/1999/02/22-rdf-syntax-ns#"
   xmlns:svg="http://www.w3.org/2000/svg"
   xmlns="http://www.w3.org/2000/svg"
   xmlns:sodipodi="http://sodipodi.sourceforge.net/DTD/sodipodi-0.dtd"
   xmlns:inkscape="http://www.inkscape.org/namespaces/inkscape"
   version="1.0"
   width="574.000000pt"
   height="574.000000pt"
   viewBox="0 0 574.000000 574.000000"
   preserveAspectRatio="xMidYMid meet"
   id="svg5796"
   sodipodi:docname="ishtarri.svg"
   inkscape:version="1.0.1 (3bc2e813f5, 2020-09-07)">
  <defs
     id="defs5800" />
  <sodipodi:namedview
     pagecolor="#ffffff"
     bordercolor="#666666"
     borderopacity="1"
     objecttolerance="10"
     gridtolerance="10"
     guidetolerance="10"
     inkscape:pageopacity="0"
     inkscape:pageshadow="2"
     inkscape:window-width="1600"
     inkscape:window-height="837"
     id="namedview5798"
     showgrid="false"
     inkscape:zoom="0.87543554"
     inkscape:cx="249.65059"
     inkscape:cy="364.09376"
     inkscape:window-x="-8"
     inkscape:window-y="-8"
     inkscape:window-maximized="1"
     inkscape:current-layer="svg5796" />
  <metadata
     id="metadata5790">
Created by potrace 1.16, written by Peter Selinger 2001-2019
<rdf:RDF>
  <cc:Work
     rdf:about="">
    <dc:format>image/svg+xml</dc:format>
    <dc:type
       rdf:resource="http://purl.org/dc/dcmitype/StillImage" />
  </cc:Work>
</rdf:RDF>
</metadata>
  <path
     id="path6420"
     style="fill:#ffffff;stroke-width:0.571144"
     transform="scale(0.75000002)"
     d="m 407.26105,351.43544 c -17.3229,0.42646 -32.67577,17.7767 -28.97554,35.16553 2.12734,12.4552 14.22529,21.66083 26.73,21.09441 9.66178,0.84896 20.06241,-2.7133 25.38262,-11.2083 5.2424,-7.92322 5.22525,-18.36473 2.81068,-27.27589 -3.46682,-10.93205 -14.5267,-18.38913 -25.94776,-17.77575 z m -49.15857,50.24508 c -16.29017,0.64812 -31.30759,15.47316 -29.99177,32.17818 -0.17551,12.05842 9.24383,23.25662 21.22865,24.90553 9.91332,0.87265 21.44073,1.1306 28.95702,-6.54602 7.51228,-6.5827 9.10781,-17.38358 7.02469,-26.75154 -1.24767,-13.61451 -13.44191,-24.58468 -27.21859,-23.78615 z m -48.1256,0.60796 c -11.51492,-0.11244 -21.2425,8.03086 -26.30164,17.87391 -6.67049,10.02143 -6.87465,24.31385 1.29498,33.56651 7.74232,9.56664 21.88534,11.61417 32.79631,6.68132 11.16844,-1.54657 21.66199,-9.42738 24.14569,-20.76438 2.85522,-11.1989 -2.96454,-22.77887 -11.92744,-29.44612 -5.52375,-4.82463 -12.58516,-8.01311 -20.0079,-7.91124 z m 71.78793,-85.13062 c -13.601,-0.16381 -25.67637,11.48595 -26.3273,25.01322 -0.6531,11.32566 -3.0541,24.11806 4.11793,33.98876 8.00538,11.65998 25.43554,15.99547 37.35961,7.78023 9.75012,-6.85995 20.45755,-15.51813 21.65956,-28.28017 1.47891,-11.24634 -5.23815,-21.62358 -13.79773,-28.29463 -6.32232,-5.79923 -14.16959,-10.39056 -23.01207,-10.20741 z m -44.1209,13.95399 c -8.06616,0.2823 -16.98465,0.44818 -23.15531,6.44634 -8.31544,6.60962 -10.1796,18.21519 -7.71245,28.08446 2.31667,13.76212 15.51795,24.58644 29.53361,23.66345 9.42973,-0.17649 19.78823,-2.11365 25.95167,-9.95935 7.23601,-9.27763 9.25393,-22.60348 5.21027,-33.62498 -4.37949,-10.08184 -15.53656,-16.25454 -26.40444,-14.85248 -1.14112,0.0809 -2.28223,0.16171 -3.42335,0.24256 z M 451.88153,172.9833 c -9.65801,0.35117 -18.89039,6.66717 -22.38498,15.72952 -1.17098,2.73362 -1.76875,5.69316 -1.90854,8.65905 -10e-4,-0.46644 0.14158,-1.65767 0.0588,-0.96075 -1.32032,8.62007 2.05348,17.81413 8.84351,23.33825 7.01607,5.94297 17.24336,7.36504 25.77368,4.12068 7.93993,-2.7196 14.52074,-9.35046 16.62713,-17.54144 2.12394,-7.61202 0.18519,-15.99863 -4.54959,-22.24941 -5.03276,-7.17572 -13.68189,-11.53174 -22.45998,-11.0959 z m -42.05759,133.57734 c -7.75867,0.18671 -15.35427,4.08641 -19.87553,10.42126 -4.97471,6.71947 -6.18176,15.95985 -3.20608,23.76045 1.84268,4.94603 5.17728,9.22705 9.00864,12.80034 5.08454,4.58005 12.02317,6.97838 18.85124,6.53013 8.70922,-0.36286 16.97801,-5.6964 20.91153,-13.47423 2.40952,-4.60934 3.26635,-9.97223 2.54922,-15.11537 -0.0471,-0.56266 0.12328,1.64508 0.009,0.24627 -0.3502,-7.23372 -4.04292,-14.15288 -9.71905,-18.61925 -5.27177,-4.08338 -11.78829,-6.7404 -18.52929,-6.5496 z m -88.72425,-61.88902 c -13.45055,0.58905 -24.96276,12.94661 -24.31339,26.44101 -0.0462,14.84435 14.04196,27.31922 28.69499,26.33233 13.52731,-0.15987 25.36952,-12.58359 24.554,-26.13564 -0.16269,-14.9181 -14.00209,-27.75972 -28.9356,-26.6377 z m -53.62955,51.93062 c -13.54828,-0.0247 -25.49818,11.90962 -25.56199,25.44988 -1.15493,12.83194 6.3892,26.34682 18.98044,30.33932 13.08487,4.87449 29.35353,-2.04675 34.03906,-15.40173 4.87817,-12.77066 1.05012,-29.26194 -11.28476,-36.35041 -4.84105,-2.92999 -10.54072,-4.22121 -16.17275,-4.03706 z m 94.37378,60.32489 c -12.01027,1.07123 -23.40542,9.92578 -25.29806,22.18952 -2.59321,13.51293 7.47814,27.64177 21.03865,29.82192 17.05865,3.62752 34.76313,-12.71289 32.14102,-30.01259 -1.23437,-12.76631 -13.50965,-22.87962 -26.23257,-22.08127 -0.54968,0.0275 -1.09936,0.0549 -1.64904,0.0824 z m 19.81938,71.63621 c -14.29274,0.45977 -25.87002,14.40596 -24.31881,28.49491 0.56557,12.46763 10.50005,24.29236 23.2725,25.10937 12.97629,1.686 25.27155,-8.52247 27.54874,-21.1316 3.26785,-12.59577 -4.09443,-26.8888 -16.54017,-31.00786 -3.17313,-1.05259 -6.61064,-1.59307 -9.96226,-1.46482 z m 26.7445,-33.16095 c -13.31855,0.25784 -28.00687,7.29644 -31.9497,20.92629 -2.40052,9.45678 -1.7626,20.25945 3.21259,28.80179 6.2842,11.09381 19.98841,14.17533 31.82329,13.84247 13.06859,0.0323 24.87549,-10.75095 25.8927,-23.80016 1.17436,-12.82018 -1.37877,-28.05438 -13.03927,-35.53477 -4.7259,-3.0056 -10.35407,-4.42722 -15.93961,-4.23562 z m -139.00336,21.13234 c -13.86602,-0.18391 -26.10441,12.23094 -25.81527,26.07854 -0.83819,12.95631 9.15076,25.65991 22.23504,27.01253 15.48014,2.23028 31.12378,-11.20629 30.62184,-26.99116 0.29268,-14.36734 -12.75394,-26.77068 -27.04161,-26.09991 z m 61.35897,-47.59684 c -16.06246,1.06986 -27.28256,17.4479 -26.63314,32.76046 -0.7475,13.43311 5.67058,28.61718 18.95423,33.55163 10.31765,3.41809 22.1371,0.48446 30.80802,-5.75183 7.78701,-6.01491 15.21251,-14.27141 14.92488,-24.73623 -0.87648,-15.29956 -11.40104,-30.43984 -26.65899,-34.3627 -3.66641,-1.18732 -7.54292,-1.76207 -11.395,-1.46133 z m 49.84015,-81.43268 c -13.84369,0.60611 -25.42342,13.58778 -24.48901,27.40626 0.11461,13.3473 11.11581,26.03674 24.78346,26.3031 14.05868,1.15749 26.66338,-11.17923 27.29896,-24.99374 1.75268,-13.65019 -8.97553,-27.34564 -22.74399,-28.57242 -1.60608,-0.23621 -3.23235,-0.20028 -4.84942,-0.1432 z m -52.18273,-7.98487 c -14.01486,0.041 -26.12559,13.01449 -25.26958,26.98986 -0.12745,5.85944 2.99161,11.01132 3.61334,16.73687 3.92578,17.05151 24.74704,28.01588 40.75834,20.20016 14.56935,-6.57323 24.42294,-24.42878 18.5607,-39.98455 -3.46733,-9.91448 -13.48451,-14.83564 -21.90168,-19.94098 -4.83546,-2.58376 -10.24668,-4.16493 -15.76112,-4.00136 z M 216.39175,209.66221 c -6.35434,0.0744 -12.63473,2.66588 -17.17432,7.11598 -4.58123,4.4268 -7.3551,10.65168 -7.58632,17.01768 -0.20402,4.46611 0.80862,8.98385 2.90831,12.93137 1.82736,3.50225 4.52681,6.49685 7.67066,8.86992 3.43599,2.79658 7.47325,4.92857 11.84436,5.77807 6.4718,1.33231 13.44384,-0.0502 18.91851,-3.74914 5.86933,-3.87517 10.00873,-10.26893 11.12465,-17.2155 1.1615,-6.81637 -0.68186,-14.07211 -4.95634,-19.5078 -2.22877,-2.90913 -5.16885,-5.17741 -8.29156,-7.05447 -4.15403,-2.62172 -9.01402,-4.1667 -13.94015,-4.18568 -0.17254,-0.006 -0.3452,-2.6e-4 -0.5178,-4.3e-4 z m 234.5145,206.41197 c -9.91255,0.28597 -19.24188,6.84565 -22.82339,16.09404 -1.8554,4.55775 -3.79524,9.2879 -3.43339,14.3283 -0.0591,4.24037 1.74056,8.12067 3.03771,12.05357 1.17211,5.64209 4.32804,10.61471 8.38941,14.63029 3.76322,3.82905 6.86554,8.3243 11.05694,11.70962 8.62698,6.84919 21.55273,7.11279 30.5959,0.90467 6.84164,-4.51488 12.44091,-11.61877 13.1944,-19.99898 0.50205,-4.07493 -0.32249,-8.23828 -0.18258,-12.27293 2.8709,-8.5332 0.42239,-18.11081 -5.09428,-25.03228 -5.32374,-7.07055 -14.35894,-11.13842 -23.18398,-10.2734 -3.61945,-1.5895 -7.61168,-2.28794 -11.55674,-2.1429 z m -23.95683,19.8679 c 0.33151,-1.43029 0.61361,-2.18958 0.0731,-0.27414 z m -0.59178,3.85355 c 0.18763,-1.87612 0.52736,-3.9088 0.10982,-0.84656 -0.0366,0.28219 -0.0732,0.56437 -0.10982,0.84656 z m 42.24739,31.30529 c -1.86773,0.16099 1.29727,-0.15064 0,0 z m -25.87998,9.48467 c -0.62633,-0.77634 -0.89131,-1.13664 0,0 z m 37.59162,-22.96365 c -8.24163,0.45974 -16.08726,5.25862 -20.18355,12.43484 -3.71185,6.26656 -4.37114,14.1045 -2.15026,21.00401 1.10445,3.2203 1.73735,6.6253 3.45289,9.60897 2.51616,4.67482 6.42768,8.35677 9.74084,12.44609 10.53863,12.27375 20.48556,25.03558 30.66034,37.60763 5.18262,6.24789 13.36536,9.87347 21.48252,9.34996 7.88744,-0.36646 15.51619,-4.59166 19.84652,-11.22334 4.7056,-6.96126 5.49458,-16.32413 2.0462,-23.98373 -1.96647,-4.26249 -4.78899,-8.05406 -7.28863,-12.00924 -9.35086,-14.11792 -19.22941,-27.88026 -29.28814,-41.50029 -2.39814,-3.44645 -5.21401,-6.70253 -8.88577,-8.83279 -2.68959,-1.68936 -5.74169,-2.65293 -8.81571,-3.35166 -3.41663,-1.14379 -7.00813,-1.76757 -10.61725,-1.55045 z m -217.80373,20.97619 c -9.31088,0.74907 -17.02802,7.13439 -21.82947,14.8118 -5.76978,7.87015 -8.45354,18.49575 -4.73996,27.8157 3.94824,10.90682 15.87355,17.91063 27.32405,16.37522 9.0015,-0.7546 16.41734,-6.78972 21.6025,-13.82126 5.56892,-6.0092 9.15813,-14.18782 7.90636,-22.47827 -1.29793,-10.70966 -10.10007,-19.42543 -20.447,-21.81344 -3.19758,-0.88007 -6.51595,-1.10725 -9.81648,-0.88975 z M 552.9298,244.52827 c -13.17386,1.04284 -23.05318,12.23156 -27.52759,23.91555 -4.87287,13.10555 2.23394,28.80021 15.06395,34.15643 8.34623,4.2665 17.83554,2.5746 26.77906,2.36334 13.49202,-1.11234 24.43875,-14.11541 23.04667,-27.6144 -0.32391,-8.95572 -5.72512,-17.06812 -13.02152,-21.89556 -5.49752,-7.61244 -15.025,-11.75939 -24.34057,-10.92536 z m -97.86685,-5.02003 c -6.28336,0.10224 -12.82912,1.2122 -17.98075,5.05294 -7.51585,5.20619 -11.57527,14.75435 -10.34193,23.78526 0.31994,2.6811 1.10974,5.2817 2.05995,7.80106 -4.48675,7.1415 -5.56918,16.36333 -2.42945,24.24266 2.67218,7.58407 8.75585,13.969 16.44604,16.49925 7.57772,2.60957 16.1444,1.23467 22.89791,-2.94426 4.98915,-2.81098 9.84309,-6.11356 13.28324,-10.77847 3.91789,-3.92924 7.06469,-8.78654 8.12957,-14.29702 1.47888,-6.61484 0.1014,-13.70839 -3.36528,-19.48366 -1.63609,-5.48426 -2.79597,-11.18649 -5.37503,-16.33126 -3.89607,-7.63866 -11.92294,-12.90548 -20.47769,-13.46873 -0.94618,-0.076 -1.89758,-0.0922 -2.84658,-0.0778 z m 10.5398,-42.67348 c -5.9541,0.25188 -11.34677,3.08745 -16.23722,6.27221 -4.4373,2.87921 -9.12413,5.39104 -13.40117,8.50378 -4.39023,3.3652 -7.25322,8.30705 -8.88765,13.52536 -2.93893,6.68954 -3.04944,14.52211 -0.20587,21.2626 1.68969,4.87146 4.48143,9.4208 8.55122,12.65571 7.05302,5.82983 17.29272,7.26675 25.74257,3.81381 3.87063,-1.46389 7.15158,-4.04444 10.76657,-5.99834 10.28899,0.26664 20.35602,-6.11492 24.47538,-15.55209 1.61083,-3.42334 2.05048,-7.21096 2.87199,-10.85942 1.4118,-9.23081 -2.87698,-19.00916 -10.64272,-24.20104 -1.92863,-1.24515 -3.98542,-2.30068 -5.64689,-3.91462 -4.87491,-3.8643 -11.1791,-5.83548 -17.38621,-5.50796 z m 20.1504,7.98925 c 0.96859,1.03119 -0.90651,-0.92846 0,0 z m -241.8775,302.7775 c -2.89855,0.0783 -5.78098,0.63979 -8.48643,1.68519 -5.11511,1.93222 -9.48385,5.61906 -12.47136,10.17737 -2.05774,3.16926 -4.20034,6.2918 -6.04421,9.59306 -2.33069,4.30621 -3.43144,9.28181 -3.00928,14.16845 0.50061,6.71886 3.85715,13.16332 9.08335,17.4174 4.64998,3.85188 10.72679,5.90083 16.75768,5.70223 6.21834,-0.146 12.31541,-2.73768 16.78995,-7.04871 2.65931,-2.53966 4.6468,-5.66141 6.90869,-8.53753 1.74318,-2.24972 3.50613,-4.52381 4.66265,-7.14514 2.82601,-6.10574 3.02405,-13.35882 0.52177,-19.60557 -1.79139,-4.60127 -5.02648,-8.57597 -9.03818,-11.43245 -3.95139,-2.89495 -8.73135,-4.66381 -13.62967,-4.9283 -0.67923,-0.0575 -1.36385,-0.0278 -2.04496,-0.046 z M 588.86252,258.56214 c -8.56984,0.4949 -16.60038,5.72401 -20.617,13.29264 -1.88445,3.36589 -2.70158,7.16651 -3.87515,10.80382 -2.45818,9.26772 0.81314,19.72945 8.13906,25.92093 4.13247,3.53352 9.26343,5.75318 14.46709,7.18322 9.28937,2.34348 19.69875,-0.92485 25.91649,-8.22842 2.62054,-2.99471 4.41803,-6.58011 6.4708,-9.9579 4.25919,-8.22402 3.57183,-18.77188 -1.95412,-26.24656 -3.45363,-4.9739 -8.85348,-8.18759 -14.52684,-10.0401 -4.4883,-1.70618 -9.16137,-3.08268 -14.02033,-2.72763 z m -54.14253,-40.56023 c -6.23705,0.23883 -11.97966,3.10419 -16.97155,6.66925 -14.93188,10.28781 -29.73349,20.77039 -44.3355,31.52125 -6.47061,4.67277 -10.92895,12.18617 -11.2678,20.22671 -0.56064,8.60635 3.61766,17.30801 10.6958,22.23686 3.23829,2.36258 7.07103,3.6401 10.90988,4.63335 7.67676,2.70256 16.57732,1.50649 23.18763,-3.2715 4.13063,-3.04013 8.0295,-6.55379 11.84644,-9.71673 10.57077,-8.93301 21.3697,-17.59325 32.3511,-26.01479 6.6637,-5.2045 10.72151,-13.65044 10.16323,-22.13593 -0.38155,-8.77647 -5.62268,-17.15622 -13.43532,-21.21272 -4.01911,-2.12202 -8.6029,-3.13733 -13.14391,-2.93575 z M 380.82737,14.172194 c -12.17905,0.3353 -20.58586,10.158097 -28.21958,18.404684 -17.25516,18.407364 -33.73538,37.53128 -49.36346,57.334403 -3.68108,3.588456 -8.61174,6.063263 -11.13558,10.826699 -3.03269,4.73873 -3.75296,10.48861 -7.16,15.05774 -5.39635,10.17216 -13.3708,19.53598 -15.11078,31.22664 -1.71166,12.43902 6.90678,24.72205 18.80091,28.24376 10.21203,4.32 23.18596,2.86065 30.74009,-5.74585 1.79865,-1.05569 3.4262,3.3934 5.60989,4.26074 7.64858,6.06207 18.47254,7.91176 27.62934,4.41891 11.07741,2.32494 22.75252,-2.89028 30.27176,-10.94209 6.03843,7.56338 16.07442,11.1836 25.32668,11.69841 5.95809,7.88284 14.49428,14.00216 24.46215,15.31604 7.39075,1.47245 15.32199,-0.26285 21.34987,-4.7956 3.06789,7.75727 5.5686,15.7178 7.72495,23.74822 4.26942,11.25245 16.67224,17.66275 28.37492,16.339 13.45791,-0.61509 24.84552,-13.13997 23.99856,-26.61744 -3.51565,-31.74903 -17.44625,-61.38112 -34.66272,-87.92953 -3.34829,-4.55592 -2.86008,-10.7743 -6.65684,-15.173678 -3.44262,-5.576773 -9.913,-8.004117 -13.55518,-13.414445 -18.28067,-21.873235 -36.17983,-44.266028 -57.12643,-63.690564 -5.81388,-5.302989 -13.27526,-8.96367 -21.29855,-8.566049 z m -92.8723,99.073456 c 0.0775,-1.03317 0.079,-0.76806 0,0 z m 188.8937,7.91235 c -0.3291,1.48269 0.0895,-0.55683 0,0 z m -111.23927,9.42946 c -0.101,0.0183 -0.98141,-0.62779 0,0 z m 94.2455,74.17848 c -0.0277,-0.19483 -0.0288,-0.65587 0,0 z m 162.50737,73.21979 c -8.73054,-0.33819 -18.32428,0.9628 -24.48665,7.80869 -2.50766,1.15801 -3.17956,7.01043 -5.6044,6.05272 -9.85501,-5.69055 -20.2018,-13.52736 -32.30031,-11.38245 -3.46917,1.19885 -6.21357,1.26314 -9.34407,-0.83689 -7.32297,-2.7491 -15.43771,-1.84181 -23.07787,-1.24494 -5.60037,1.29709 -10.80337,4.4776 -14.38681,8.85608 -5.04839,-1.98256 -10.42565,-3.34716 -15.56288,-4.75797 -8.7965,-5.71065 -20.90996,-6.20016 -30.23264,-1.57117 -6.95599,3.27748 -10.53515,10.38261 -14.27614,16.68448 -7.94379,4.2254 -13.27962,12.82086 -13.58141,21.81726 -4.60396,7.31776 -9.72513,14.52916 -12.4949,22.74984 -6.36791,9.88587 -7.5482,23.86036 0.21674,33.32233 2.85247,3.93319 7.01761,6.88362 11.61666,8.39462 -6.56064,5.60274 -12.0671,13.27377 -11.80652,22.2653 -0.17341,10.5516 3.28073,22.20672 12.85328,27.90778 6.6544,4.36092 15.35493,5.24361 22.82417,2.57076 1.02041,3.71348 2.78354,7.2911 5.40802,10.13001 -5.37609,11.79056 -1.30302,27.29722 10.17361,33.83747 8.75787,5.68878 19.79358,3.98055 28.98389,0.36603 3.06878,-1.72352 4.48271,-1.21076 5.09128,2.31658 1.86877,5.47139 6.38353,9.4568 10.80242,12.77036 6.15815,9.97049 12.79255,21.76077 25.17819,24.56149 9.66347,2.53946 20.74222,-0.45959 27.26286,-8.16477 28.1352,-5.31624 53.81571,-18.95681 77.80056,-34.10691 9.72679,-0.42456 18.87203,-6.81029 22.53009,-15.82805 24.25978,-19.79389 48.38601,-39.89161 70.21505,-62.38859 8.71825,-9.36803 8.56641,-25.02415 -0.13721,-34.35901 -14.74472,-15.50158 -31.21546,-29.25778 -47.32041,-43.30997 -7.6294,-6.62226 -15.62487,-12.80388 -23.33639,-19.32627 -3.90414,-8.69018 -12.83134,-14.40823 -22.16084,-15.30823 -7.62823,-4.67009 -15.32906,-10.79356 -24.82664,-9.9616 -2.00691,0.045 -4.01382,0.09 -6.02073,0.13502 z m -180.06662,55.80593 c -0.0122,-0.0165 -0.0473,-0.12622 0,0 z m 14.33215,13.05712 c -2.02935,-1.58855 -1.75594,-1.41711 0,0 z m 110.3636,139.64254 c -2.00049,2.53876 0.39385,-0.62521 0,0 z M 428.65745,463.36109 c -7.99743,-0.0456 -15.944,3.08289 -21.58859,8.77131 -10.15423,0.88767 -18.96748,7.75391 -24.29817,16.15044 -7.50457,-12.0369 -23.59054,-19.48606 -37.22505,-13.60933 -6.21324,1.44165 -12.31582,4.09755 -16.86187,8.72002 -10.4308,-6.27379 -24.79139,-4.36968 -34.01097,3.29078 -6.79098,5.89631 -10.07314,15.41131 -8.36191,24.23682 -7.33203,1.35649 -13.643,6.44408 -17.14102,12.96118 -10.44219,6.15824 -22.2258,13.6243 -24.84116,26.42121 -2.19734,9.49872 1.19437,20.14234 8.7755,26.3427 5.49224,27.74779 19.06076,53.08996 34.0132,76.80664 0.3484,9.88728 6.97796,18.9547 16.02104,22.71525 18.66257,23.52397 38.34254,46.29584 59.69574,67.42403 8.25197,8.65906 22.28214,11.43402 32.70231,5.07878 10.4144,-6.75183 18.15198,-16.77024 26.6862,-25.62818 14.28652,-15.50873 27.50225,-31.94892 41.14181,-48.01134 7.76807,-3.74133 12.54917,-11.71246 14.12073,-19.92759 14.0183,-23.81263 28.00084,-48.34983 33.75751,-75.67773 0.006,-4.23568 4.47225,-5.8855 6.10711,-9.45746 7.26444,-10.92721 4.26916,-26.38785 -5.49164,-34.80175 -5.16991,-5.15306 -11.88533,-8.55003 -17.59841,-12.80503 -3.5534,-5.25392 -9.05286,-9.18874 -15.24573,-10.6487 3.21301,-8.45786 6.6411,-17.74711 3.31483,-26.7406 -3.82613,-11.13682 -15.79274,-18.16635 -27.38209,-16.75784 -3.32065,-0.42934 -7.21293,2.77686 -9.66969,-0.32513 -4.88518,-3.28043 -10.7621,-4.74564 -16.61968,-4.52848 z m -75.21591,11.57014 c 0.98322,0.14873 -0.587,-0.0676 0,0 z m 99.58994,202.97151 c -1.61419,0.10382 0.45427,-0.0494 0,0 z M 317.81102,150.54864 c -4.68752,0.48255 -9.27103,2.42788 -12.94835,5.18659 -5.50644,-4.22053 -12.60826,-5.67585 -19.43166,-5.2205 -6.86458,-0.26069 -14.00688,1.51351 -19.18639,6.21508 -4.94479,4.0121 -7.36079,10.09701 -8.99386,16.07177 -1.62743,5.3192 -2.97613,10.72205 -4.11792,16.16543 -8.56508,6.26059 -12.32986,18.0828 -9.13775,28.18296 1.15261,3.85403 3.1848,7.41531 5.78786,10.47247 -9.32445,-3.75018 -20.72008,-1.53138 -27.75019,5.71797 -2.97996,3.08236 -5.2527,6.87145 -6.39855,11.01421 -9.82222,-2.55204 -20.83171,1.32495 -26.97263,9.3854 -21.73943,4.23201 -42.32807,13.11363 -61.26458,24.46513 -5.39514,3.10682 -10.63454,6.47718 -16.03176,9.57819 -9.7441,0.61895 -18.824488,7.1009 -22.407932,16.20789 -22.01003,17.43594 -43.179394,35.91026 -63.718386,55.05233 -4.311883,3.76681 -8.797886,7.72309 -10.860266,13.23653 -3.951592,9.16903 -1.704787,20.26267 4.834906,27.67007 7.679432,8.49395 16.120292,16.27178 24.517983,24.04653 14.205942,13.03379 29.119014,25.26093 44.089848,37.39664 2.180046,1.52652 2.454244,4.49525 4.212466,6.4445 4.50524,6.5538 12.228481,10.72207 20.174151,10.9375 15.07488,9.6546 30.69656,18.63975 47.37039,25.24132 6.47796,1.84726 13.28362,0.86834 19.92311,1.11117 6.72277,0.22614 13.7743,-0.99865 19.18912,-5.23688 5.6783,4.50418 13.16085,5.48689 20.19586,5.25464 6.7214,0.38895 13.77666,-1.03846 19.04936,-5.43672 1.58036,-1.20335 2.75981,-2.81572 4.7201,-3.43532 3.16876,-1.65641 5.9531,-4.03037 8.15885,-6.8378 3.83871,9.55799 13.90929,15.93107 24.15202,15.70875 2.63924,0.0129 5.23102,-0.40268 7.86943,-0.0352 4.46357,0.0226 9.04494,0.34637 13.36109,-1.01064 5.51533,1.45142 11.32646,1.13335 16.95996,0.80731 1.94878,-0.14741 3.85895,-1.06598 5.70125,-1.25343 5.60394,1.98164 11.69642,1.65149 17.52401,1.20123 7.04035,-0.99442 13.52472,-5.17828 17.36427,-11.15565 4.07697,4.58187 8.80781,9.01026 14.94364,10.48993 6.18615,1.67619 12.67261,0.69274 18.99929,0.95752 7.82796,0.45429 15.76121,-2.67279 20.93912,-8.60832 3.12296,-3.28019 6.2267,-6.57886 9.3817,-9.82839 9.74766,4.06846 21.8134,0.91889 28.47603,-7.24508 4.73687,-5.52025 6.40469,-12.98317 6.01215,-20.11685 0.15989,-4.72024 -0.73004,-9.48812 -2.95419,-13.68014 3.28314,-5.61825 3.05759,-12.28085 2.96281,-18.55995 -0.17954,-6.45264 0.40814,-12.96186 -0.39617,-19.37401 -0.37739,-2.45035 -1.19429,-4.81602 -2.29278,-7.03416 3.74357,-6.87764 2.46575,-14.89637 2.68895,-22.3912 0.29982,-7.01479 -2.28298,-14.09436 -7.2386,-19.10099 5.34849,-5.30982 7.7331,-12.99896 7.2386,-20.43346 -0.24602,-7.21206 0.74846,-14.67551 -1.52158,-21.65664 2.0628,-5.82947 1.70809,-12.19424 1.06755,-18.24872 -0.4775,-2.82924 -1.38805,-5.60026 -2.74472,-8.12877 3.7669,-6.6789 3.41887,-14.63884 2.95916,-22.02608 -0.0956,-2.25181 -1.69179,-4.3814 -0.56818,-6.55792 1.22231,-5.27014 0.78387,-10.75872 0.64534,-16.12603 -0.27672,-3.47734 -1.17385,-6.93628 -2.80375,-10.02612 3.85511,-7.2127 2.86469,-15.62716 2.91372,-23.48781 0.0411,-2.43565 -0.73303,-4.85379 -1.14537,-7.15897 1.63062,-5.44242 1.47121,-11.31024 0.61686,-16.87965 -1.81903,-10.07261 -10.24164,-18.51872 -20.35986,-20.20728 -3.32275,-0.53 -6.77903,-0.56586 -10.05491,0.27845 -4.39544,-4.39787 -8.18813,-9.45913 -13.10662,-13.29258 -5.30033,-4.0784 -12.17782,-5.187 -18.71012,-4.80789 -7.31558,0.16468 -14.66892,-0.3069 -21.95864,0.32685 -6.83505,0.9152 -12.87462,4.99283 -17.01082,10.40675 -1.15656,1.73147 -2.00054,1.89811 -2.86186,-0.16981 -4.88993,-7.0259 -13.53001,-10.83497 -21.99965,-10.47186 -2.68572,-0.0604 -5.3691,-0.17029 -8.05291,0.01 z m 47.34641,101.93698 c -0.46805,-0.44605 -0.59028,-0.61273 0,0 z m -39.69844,20.04415 c -1.81001,0.0865 -3.72302,0.28548 -3.8449,-2.04923 -1.33946,-1.84793 2.90765,-1.79396 2.81607,0.008 0.34295,0.68029 0.68589,1.36057 1.02883,2.04086 z m -143.68962,0.35474 c -0.001,-0.0289 0.0102,-0.157 0,0 z m 161.66228,29.00342 c 0.004,1.27383 1.36086,3.56888 -0.7195,3.59029 -0.81277,0.34526 1.82075,-0.91289 1.25494,0.49919 -0.10526,3.88453 -0.43121,8.05113 -2.48347,11.42385 -3.00771,3.31987 -6.96391,5.75642 -11.26805,6.98384 1.48463,-6.51153 0.32838,-13.55475 -3.16026,-19.24935 3.12293,-1.19217 6.65712,-1.47211 9.94025,-2.3089 2.11152,-0.4407 4.22305,-0.8814 6.33457,-1.3221 l 0.0731,0.27605 z m 40.04703,9.20691 c 0.0692,1.96619 0.66096,4.03256 -0.64645,5.73487 -1.363,4e-4 -2.07262,-2.32733 -2.2894,-3.56089 0.11723,-1.51497 -0.16332,-3.71382 2.05261,-3.23173 0.97246,-0.42251 0.60767,0.47633 0.88324,1.05775 z m -115.54684,9.91973 c 1.42741,0.52496 3.49869,0.74395 4.39076,1.85284 0.11054,2.5681 -0.19591,5.1554 -0.85067,7.63908 -1.50719,-0.86858 -3.42061,-1.64433 -4.41568,-3.05166 -0.47112,-2.19745 -0.58413,-4.46899 -0.38941,-6.70576 0.42167,0.0885 0.84333,0.177 1.265,0.2655 z m -57.69785,-0.0987 c 0.30877,1.51482 -0.72574,0.11085 0,0 z m 199.66791,4.39123 c 2.23306,1.11622 2.17149,4.20427 3.07424,6.30397 0.49641,2.81284 0.2376,5.74948 0.44019,8.61048 -6.13458,-0.74869 -12.26918,-1.49739 -18.40379,-2.24609 -1.67228,-4.43687 -1.80319,-9.33425 -0.77473,-13.93558 3.88401,0.0537 7.84578,-0.41142 11.68219,-0.0404 1.32731,0.43588 2.65459,0.87177 3.9819,1.30766 z m -45.72724,-0.64421 c -0.59216,4.80825 -1.18429,9.61649 -1.77645,14.42474 -2.52301,1.08338 -2.24197,-1.03251 -2.17598,-2.90309 -0.0765,-3.90915 -0.15309,-7.81831 -0.22963,-11.72746 1.39402,0.0686 2.78804,0.13721 4.18206,0.20581 z m -39.27507,0.23593 c 0.0459,0.97866 -0.23503,-0.21311 0,0 z m 59.49047,15.97196 c 2.24274,3.88251 5.51283,7.12153 9.30731,9.49026 -0.0123,3.1376 0.62309,6.36 -0.72224,9.32311 -0.5493,1.87211 -1.15665,4.05101 -2.51218,5.40963 -3.53815,1.22336 -7.36136,1.55945 -11.06818,1.07468 0.0911,-7.88707 0.1822,-15.77414 0.2733,-23.66121 0.85648,-1.21939 1.27022,-2.97983 3.14377,-2.36657 0.79764,-0.0177 1.35059,-0.25852 1.57822,0.7301 z m 7.09133,0.0915 c 0.90198,2.19171 2.02702,4.47359 2.14904,6.86042 -1.47335,-2.2234 -2.52574,-4.69982 -3.22942,-7.26759 0.36013,0.13572 0.72024,0.27144 1.08038,0.40717 z m -46.52316,15.05221 c -0.18554,2.63151 -0.73329,5.24031 -1.72291,7.68926 -2.84864,0.19758 -5.73509,0.96294 -8.56037,0.81003 -1.83406,-0.15803 -3.23645,-0.87331 -3.31649,-2.88654 -0.3777,-1.73522 -0.73355,-3.47329 -0.74018,-5.2569 4.78108,-0.26493 9.56218,-0.52987 14.34329,-0.7948 l -0.002,0.28556 z m 64.66927,16.17053 c -0.0298,3.50885 -0.0595,7.01771 -0.0892,10.52657 -3.67303,0.25061 -7.34606,0.50123 -11.01909,0.75185 0.0472,-2.92494 0.30568,-6.16615 1.76743,-8.68221 1.90663,-0.98123 3.90132,-2.18444 5.98877,-2.59621 1.11738,0 2.23474,0 3.35213,0 z m -43.61892,7.65634 c 0.55484,1.91892 -2.69229,1.58073 -3.8733,2.46913 -1.85539,0.67566 -3.71081,1.35131 -5.5662,2.02696 0.21281,-1.49499 -0.41188,-3.86065 0.28534,-4.852 3.0514,0.11864 6.10276,0.23727 9.15416,0.35591 z m -52.16991,4.06271 c -1.63398,0.46576 -4.29496,-0.65234 -2.3597,-1.89598 2.16066,-0.0687 3.06647,-0.93909 2.3597,1.89598 z m 16.02273,9.31456 c 3.26846,0.33285 6.80222,0.87767 9.52089,2.78488 3.14998,3.67883 5.01522,8.37671 5.51514,13.17425 -4.6093,0.97906 -9.21861,1.95811 -13.82794,2.93716 -2.2518,-0.28571 -2.62396,-1.79517 -2.22801,-3.80472 0.12431,-5.03331 0.24862,-10.06662 0.3729,-15.09993 0.21566,0.003 0.43136,0.006 0.64702,0.008 z m 53.47504,8.25092 c -1.45079,0.0445 -4.91769,-0.18013 -1.54672,-0.0696 0.51558,0.0232 1.03115,0.0464 1.54672,0.0696 z m -92.38091,13.26181 c -0.62062,1.21486 -3.06196,0.90094 -4.43336,1.24531 -2.95963,0.45243 -0.85961,-1.18218 0.9135,-1.19195 0.91514,0.0698 3.78068,-1.76643 3.51986,-0.0534 z m 120.15003,5.28532 c 0.81208,3.48971 2.39324,6.89151 1.79711,10.54221 -0.21338,1.49263 0.64576,4.36496 -1.85751,3.55266 -3.45396,-0.17077 -6.9741,0.0458 -10.21408,-1.37743 -0.97955,-3.29508 -1.07624,-6.77414 -0.66373,-10.16849 3.38083,-1.68173 7.16583,-2.56669 10.93821,-2.54895 z m -101.33071,1.20921 c 3.90562,0.26309 7.77498,1.92363 10.03994,5.23471 0.51055,2.88743 0.46713,6.11575 0.67626,9.0439 -5.44549,-0.36841 -11.0782,0.69281 -15.72487,3.63938 -2.37744,-3.44946 -4.02872,-7.58533 -4.17679,-11.77226 0.0899,-1.77732 0.17979,-3.55464 0.2697,-5.33196 1.16019,-0.0784 3.57702,-1.52598 3.60701,0.18295 -0.43216,0.037 0.4225,-1.69165 2.11049,-1.08094 1.0614,-0.0891 2.13427,0.0682 3.19826,0.0842 z m 50.2657,4.05435 c 0.51277,2.88603 1.02555,5.77205 1.53832,8.65808 -2.76871,0.71954 -5.6007,0.50083 -8.42549,0.38876 -0.024,-3.05168 -0.048,-6.10337 -0.072,-9.15505 2.31974,0.0361 4.63944,0.0721 6.95914,0.10821 z m -88.76719,11.75029 c 0.43019,2.31178 0.45663,4.64549 0.33912,6.98703 -1.00294,0.16907 -3.84082,2.41867 -3.60459,0.56211 0.1309,-1.98645 -7.7e-4,-4.10223 0.29039,-6.00973 0.81573,-0.37982 2.4498,-2.21473 2.97508,-1.53941 z m -60.85307,7.18337 c -1.45631,0.59645 0.18569,-1.73963 0,0 z m 174.02443,8.14103 c -0.28755,2.08239 -0.64985,4.14752 -1.36875,6.13032 -0.91306,-2.02052 -1.03374,-4.21263 -1.23433,-6.38744 0.69731,0.20131 2.97184,-1.08145 2.60308,0.25712 z m -111.6682,52.67636 c -0.76202,-0.0655 -0.99936,-0.11278 0,0 z" />
  <g
     transform="translate(0.000000,574.000000) scale(0.100000,-0.100000)"
     fill="#000000"
     stroke="none"
     id="g5794">
    <path
       d="M2738 5323 c-134 -146 -229 -258 -306 -360 -26 -34 -58 -64 -70 -68 -16 -4 -22 -11 -18 -21 4 -10 -21 -58 -61 -122 -114 -183 -183 -346 -207 -495 -10 -65 -13 -72 -36 -75 -14 -2 -27 -6 -30 -8 -11 -12 23 -43 96 -87 71 -42 79 -50 76 -74 -3 -27 -3 -27 16 -9 20 17 22 16 89 -25 102 -63 98 -56 64 -130 -26 -59 -49 -129 -65 -202 l-6 -27 -70 35 c-38 19 -74 35 -80 35 -28 0 2 -22 125 -93 74 -43 137 -82 140 -87 6 -9 -14 -60 -24 -60 -3 0 -26 16 -51 36 -113 91 -359 271 -500 366 -243 165 -272 180 -104 55 133 -98 364 -292 560 -470 87 -78 176 -158 198 -178 l40 -36 -72 -46 c-40 -26 -75 -47 -77 -47 -8 0 -115 164 -115 177 0 6 9 14 19 18 11 3 22 13 25 21 5 12 2 15 -10 10 -60 -23 -56 -27 -145 126 -63 107 -85 137 -87 120 -2 -13 10 -47 27 -77 17 -30 31 -58 31 -63 0 -4 -26 -13 -57 -20 -32 -7 -96 -28 -143 -47 -47 -19 -88 -35 -91 -35 -4 0 -28 34 -55 76 -40 65 -45 80 -35 95 10 17 8 19 -12 19 -18 0 -32 15 -65 73 -50 88 -79 118 -92 97 -6 -8 -10 -23 -10 -32 0 -12 -11 -19 -37 -23 -191 -30 -330 -87 -545 -222 -62 -39 -93 -53 -108 -48 -16 5 -20 2 -21 -17 0 -17 -24 -41 -91 -93 -90 -69 -268 -223 -403 -348 l-70 -65 55 -57 c75 -78 283 -261 407 -358 79 -62 103 -86 103 -104 0 -20 3 -22 19 -14 15 9 33 1 92 -38 98 -64 208 -124 296 -160 83 -34 223 -71 269 -71 28 0 32 -4 38 -35 7 -34 8 -35 29 -20 12 8 42 50 67 93 38 63 50 76 68 74 16 -2 20 1 16 12 -3 9 -10 16 -15 16 -7 0 74 141 96 168 1 1 32 -11 68 -28 36 -16 101 -39 144 -51 43 -12 79 -23 81 -24 2 -2 -10 -30 -27 -64 -17 -33 -31 -71 -30 -83 0 -27 -6 -37 96 137 42 72 77 131 78 133 1 1 16 -4 34 -11 l31 -13 -86 -110 c-111 -141 -240 -318 -340 -469 -76 -114 -116 -179 -77 -125 149 205 534 653 690 802 l38 37 47 -75 48 -75 -92 -59 -92 -60 -14 25 c-25 48 -40 27 -18 -26 6 -15 -20 -32 -249 -166 -62 -36 -8 -30 66 8 34 17 63 28 65 26 3 -2 12 -33 21 -68 9 -35 31 -100 49 -143 19 -44 32 -82 29 -84 -2 -2 -39 -26 -81 -52 -66 -41 -79 -46 -91 -34 -20 20 -26 17 -20 -8 5 -20 -4 -29 -71 -68 -110 -63 -133 -99 -66 -100 18 0 22 -8 28 -54 16 -144 99 -344 216 -524 50 -77 58 -97 50 -113 -9 -16 -7 -19 13 -19 19 0 40 -20 88 -82 88 -114 236 -284 341 -393 l88 -90 87 90 c107 112 248 274 337 388 45 57 74 87 88 87 14 0 18 5 13 19 -3 12 14 48 51 107 119 190 189 355 215 508 10 56 17 76 28 76 9 0 23 4 31 10 21 13 -8 41 -97 93 -63 36 -73 45 -68 65 6 25 -9 30 -22 7 -7 -12 -23 -6 -91 36 -45 28 -82 54 -82 59 0 4 13 36 30 72 16 35 38 97 49 138 10 41 23 75 27 75 5 0 33 -13 62 -28 30 -16 63 -27 75 -25 16 2 -19 27 -121 87 -151 88 -146 82 -125 139 8 20 -15 14 -27 -8 -6 -11 -16 -20 -23 -20 -7 0 -50 25 -95 56 l-83 55 17 27 c10 15 32 49 48 76 l31 49 94 -99 c138 -146 371 -412 480 -549 160 -201 156 -196 115 -130 -79 128 -281 408 -407 563 -33 40 -58 74 -56 76 2 1 16 7 32 14 31 13 25 21 138 -173 49 -84 65 -105 67 -87 2 12 -10 48 -27 79 -17 31 -31 60 -31 64 0 3 30 14 68 23 37 10 102 33 145 51 l78 34 50 -77 c52 -82 54 -87 39 -97 -18 -11 -10 -27 10 -22 17 4 29 -8 67 -74 26 -44 56 -87 67 -95 20 -14 21 -13 29 20 8 33 10 34 69 40 136 16 341 101 516 215 77 51 97 59 113 51 16 -9 19 -7 19 13 0 19 20 40 82 88 111 86 282 234 393 340 l90 87 -92 87 c-141 131 -288 259 -385 333 -65 50 -88 73 -88 90 0 19 -4 21 -24 16 -17 -4 -44 8 -109 50 -188 123 -356 192 -539 221 -30 5 -38 11 -43 35 -4 17 -10 30 -15 30 -14 0 -56 -56 -92 -120 -25 -46 -38 -60 -55 -60 -20 0 -22 -3 -12 -18 10 -16 4 -31 -36 -93 -26 -41 -49 -76 -51 -78 -2 -2 -44 13 -93 33 -49 20 -115 41 -145 48 -31 6 -56 15 -56 20 0 5 14 36 31 69 16 33 29 68 27 77 -2 10 -40 -44 -88 -126 -90 -151 -86 -148 -144 -126 -26 10 -18 -16 9 -28 14 -6 25 -15 25 -20 0 -10 -108 -178 -114 -178 -3 0 -33 18 -67 40 -34 22 -66 40 -71 40 -23 0 7 31 175 183 226 205 449 394 590 500 59 44 107 82 107 84 0 16 -524 -357 -696 -495 l-50 -41 -12 32 c-15 40 -19 36 141 130 134 78 159 114 38 52 l-70 -35 -11 43 c-18 70 -42 139 -66 196 -13 29 -22 57 -19 61 12 20 159 103 163 92 6 -20 31 -14 25 7 -4 14 13 28 76 66 69 40 101 68 101 88 0 3 -13 7 -29 10 -26 6 -30 11 -36 59 -20 148 -102 346 -214 516 -41 62 -60 100 -56 112 4 13 -1 20 -18 27 -13 4 -61 54 -106 111 -101 128 -219 262 -323 370 -44 45 -81 82 -82 82 -1 0 -59 -62 -128 -137z m253 -79 c128 -142 309 -364 308 -379 0 -5 -44 -45 -97 -87 l-97 -77 -105 105 -105 105 81 79 c100 99 80 108 -30 14 -69 -59 -79 -65 -94 -52 -9 8 -44 38 -76 66 -33 29 -69 52 -79 52 -14 0 5 -23 64 -79 l84 -78 -106 -106 -105 -105 -94 75 c-52 41 -98 78 -102 81 -14 13 406 512 431 512 4 0 59 -57 122 -126z m-61 -421 c31 -32 74 -79 98 -104 l42 -45 -100 -88 -100 -87 -100 87 -100 88 27 30 c54 61 168 176 173 176 3 0 30 -26 60 -57z m-433 -89 l94 -75 -18 -23 c-86 -110 -188 -233 -201 -243 -9 -7 -13 -13 -10 -13 4 0 -18 -39 -48 -86 -30 -48 -65 -111 -79 -140 -14 -30 -28 -54 -31 -54 -3 0 -30 15 -59 33 -49 29 -53 34 -48 62 13 67 68 216 118 317 50 100 171 298 182 298 3 0 48 -34 100 -76z m903 -6 c82 -126 165 -292 205 -410 47 -142 47 -149 -15 -187 -28 -17 -52 -31 -55 -31 -3 0 -19 28 -36 63 -17 34 -52 94 -77 132 -25 39 -45 76 -45 83 0 6 -4 12 -8 12 -4 0 -45 48 -92 108 -46 59 -94 116 -106 126 -11 11 -21 24 -21 30 1 10 178 155 190 156 3 0 30 -37 60 -82z m-683 -176 c43 -38 83 -75 89 -83 10 -11 -8 -35 -90 -120 l-102 -107 -97 66 -96 65 30 41 c53 73 169 206 179 206 5 0 45 -31 87 -68z m505 -56 l98 -119 -98 -68 -97 -67 -100 106 c-55 58 -100 108 -100 112 0 14 171 159 185 157 8 -1 59 -56 112 -121z m-249 -185 c53 -54 97 -100 97 -103 0 -3 -45 -42 -100 -87 l-101 -81 -80 65 c-44 36 -89 71 -100 78 -10 6 -19 16 -19 22 0 10 190 205 200 205 4 0 50 -44 103 -99z m-475 -29 l91 -69 -28 -34 c-39 -47 -138 -186 -143 -200 -3 -9 -108 49 -176 97 -8 5 11 46 58 124 44 71 98 150 104 150 2 0 44 -31 94 -68z m906 -29 c65 -99 103 -170 95 -176 -2 -2 -42 -27 -88 -55 l-84 -51 -49 72 c-28 40 -68 94 -90 121 -23 26 -37 51 -32 55 5 3 47 34 93 69 45 34 85 62 87 62 2 0 33 -44 68 -97z m-669 -158 c50 -41 90 -79 90 -84 0 -4 -43 -49 -96 -99 l-95 -90 -79 54 c-44 30 -83 58 -88 63 -10 10 154 231 172 231 3 0 47 -34 96 -75z m422 13 c28 -35 67 -86 87 -115 l37 -52 -88 -59 -88 -59 -100 93 c-88 82 -98 95 -85 108 30 29 175 146 180 146 4 0 29 -28 57 -62z m-191 -215 c52 -49 94 -91 94 -94 0 -4 -43 -41 -95 -83 l-94 -76 -101 78 -101 77 98 92 c54 51 99 93 101 93 2 0 46 -39 98 -87z m-448 -65 c39 -27 72 -52 72 -55 0 -4 -13 -21 -29 -38 -16 -16 -55 -66 -86 -110 -31 -44 -59 -79 -61 -78 -3 1 -29 15 -59 32 l-54 31 20 57 c31 90 100 223 113 216 6 -4 44 -28 84 -55z m839 -21 c20 -40 46 -100 59 -134 l23 -62 -53 -30 c-29 -17 -58 -31 -64 -31 -7 0 -19 14 -27 30 -9 17 -45 67 -81 111 -36 45 -62 85 -57 90 24 24 149 106 156 102 4 -2 24 -37 44 -76z m-609 -150 l73 -59 -88 -93 c-48 -51 -90 -93 -94 -94 -4 -1 -172 101 -187 115 -6 5 46 76 110 150 73 84 58 86 186 -19z m504 -73 c22 -30 39 -56 37 -58 -2 -2 -45 -29 -96 -60 l-92 -56 -88 91 c-48 50 -89 94 -90 97 -1 4 39 40 90 79 l92 73 53 -56 c29 -30 71 -80 94 -110z m-1645 1 l32 -55 -70 -35 c-38 -20 -101 -56 -140 -81 -39 -24 -74 -42 -80 -39 -5 4 -9 0 -9 -8 0 -7 -19 -27 -42 -44 -24 -17 -81 -63 -128 -102 -47 -39 -88 -71 -91 -71 -4 0 -41 43 -83 95 l-77 95 93 60 c158 102 300 171 448 216 107 33 110 32 147 -31z m2712 18 c47 -15 135 -52 196 -82 114 -57 295 -170 295 -184 0 -11 -140 -187 -150 -187 -4 0 -41 28 -82 63 -40 34 -97 79 -126 100 -28 21 -52 43 -52 48 0 5 -5 9 -12 9 -6 0 -46 22 -88 49 -42 27 -103 62 -136 78 -32 15 -61 29 -62 30 -2 1 11 27 30 58 32 54 34 56 67 51 19 -3 73 -18 120 -33z m-1365 -124 c42 -40 81 -79 86 -88 7 -14 -8 -30 -80 -84 l-90 -67 -90 66 c-49 37 -90 70 -90 74 0 10 166 170 178 170 5 0 44 -32 86 -71z m-1246 -63 c29 -47 52 -87 52 -90 0 -3 -33 -27 -72 -54 -40 -27 -93 -66 -116 -86 -24 -20 -48 -34 -53 -31 -12 8 -129 167 -129 176 0 14 240 169 261 169 3 0 29 -38 57 -84z m2441 52 c74 -42 201 -129 201 -138 0 -16 -132 -180 -141 -175 -5 4 -46 34 -92 68 -46 34 -96 71 -112 83 l-29 20 53 87 c30 48 56 87 59 87 2 0 30 -14 61 -32z m-1622 -39 c43 -29 79 -53 81 -55 2 -1 -9 -20 -25 -42 l-29 -39 -85 70 c-82 68 -85 71 -67 89 10 10 18 23 18 29 0 16 20 6 107 -52z m805 32 l16 -30 -61 -52 c-34 -29 -71 -61 -83 -71 -21 -18 -21 -18 -48 23 -15 22 -26 42 -24 43 15 13 174 116 178 116 3 0 12 -13 22 -29z m-1171 -88 c31 -53 31 -57 14 -67 -36 -22 -170 -123 -184 -139 -7 -9 -19 -17 -26 -17 -15 0 -116 150 -109 162 12 19 228 116 261 118 6 0 26 -26 44 -57z m1531 33 c74 -27 184 -82 192 -94 3 -5 -20 -46 -50 -90 l-56 -81 -61 52 c-34 29 -86 68 -114 86 -29 19 -53 36 -53 38 0 7 42 88 52 101 14 16 18 16 90 -12z m-947 -128 c47 -34 84 -65 83 -68 -2 -3 -22 -23 -45 -44 l-43 -38 -61 53 -61 53 41 20 c22 11 41 24 41 28 0 11 -12 10 -59 -7 -22 -8 -41 -12 -41 -9 0 7 51 74 56 74 3 0 43 -28 89 -62z m368 28 c15 -19 27 -37 27 -40 0 -3 -19 1 -41 9 -47 17 -59 18 -59 7 0 -5 16 -16 35 -25 19 -9 35 -20 35 -25 0 -4 -25 -30 -55 -56 l-56 -48 -42 38 c-23 21 -42 42 -42 46 0 7 155 127 165 128 3 0 17 -16 33 -34z m-1688 -84 c33 -48 60 -91 60 -97 0 -5 -47 -55 -104 -110 l-103 -100 -60 65 c-33 36 -71 79 -85 97 l-25 32 38 33 c66 59 205 168 212 168 4 -1 34 -40 67 -88z m3072 0 c59 -49 113 -95 120 -103 10 -13 -2 -31 -68 -107 -44 -51 -83 -92 -86 -92 -7 0 -207 190 -211 201 -4 9 119 189 129 189 4 0 56 -40 116 -88z m-3551 -12 c37 -47 71 -90 76 -97 6 -7 -25 -45 -97 -116 l-105 -105 -75 81 c-57 62 -75 77 -75 61 0 -12 29 -54 65 -94 l64 -74 -64 -72 c-94 -105 -85 -128 13 -31 l77 77 104 -104 104 -105 -77 -95 c-42 -53 -82 -96 -89 -96 -17 0 -234 176 -381 309 l-126 115 22 24 c80 85 474 415 489 410 4 -2 37 -41 75 -88z m3988 43 c93 -72 240 -197 348 -296 l98 -89 -73 -68 c-152 -141 -383 -336 -427 -360 -11 -6 -34 15 -90 86 -41 52 -76 97 -78 102 -1 4 44 53 101 110 l103 103 77 -80 c55 -56 77 -73 77 -60 0 17 -16 39 -108 140 l-23 27 65 73 c36 41 66 83 65 94 0 15 -20 -2 -77 -63 l-77 -83 -104 104 c-77 78 -101 108 -95 119 16 26 147 188 152 188 3 0 33 -21 66 -47z m-2662 -66 l55 -88 -92 -89 c-50 -50 -94 -90 -97 -90 -8 0 -148 175 -148 185 0 19 211 188 221 177 4 -4 31 -47 61 -95z m1413 -21 l67 -61 -72 -93 c-40 -51 -77 -91 -81 -90 -4 2 -48 42 -98 91 l-90 87 46 73 c25 39 52 82 60 95 l14 23 44 -32 c24 -17 73 -59 110 -93z m-1830 23 c31 -45 54 -85 53 -89 -2 -4 -44 -50 -94 -103 l-91 -96 -81 97 c-61 74 -78 100 -69 110 16 20 206 162 217 162 5 0 34 -37 65 -81z m2182 22 c114 -87 136 -106 132 -118 -2 -6 -38 -52 -79 -102 l-75 -91 -90 97 c-49 53 -91 100 -93 104 -4 11 106 169 118 169 4 0 44 -27 87 -59z m-1378 -127 c15 -14 15 -14 -94 -136 l-42 -47 -62 84 c-33 47 -61 89 -61 94 0 5 16 21 35 35 38 29 41 26 24 -22 -6 -17 -9 -39 -6 -49 3 -14 8 -10 20 17 8 19 27 57 42 83 l27 48 52 -47 c28 -26 57 -53 65 -60z m589 11 c27 -53 37 -65 40 -49 2 12 -4 38 -12 58 -14 34 -14 36 2 26 9 -5 28 -18 42 -29 l24 -19 -36 -54 c-21 -29 -50 -68 -66 -87 l-28 -34 -77 79 -77 79 67 62 c48 45 69 59 75 50 5 -6 25 -43 46 -82z m-325 43 l47 -43 -50 -43 -50 -44 -50 42 c-28 23 -50 45 -50 48 1 8 92 82 100 82 3 0 27 -19 53 -42z m-1313 -165 c41 -52 76 -99 78 -103 4 -10 -149 -200 -161 -200 -4 0 -53 44 -108 97 l-100 97 103 103 c56 57 105 103 108 103 3 -1 39 -44 80 -97z m2708 -6 l103 -104 -106 -101 -107 -101 -79 100 c-43 54 -79 101 -80 105 -1 7 154 203 161 204 3 0 52 -47 108 -103z m529 -59 l43 -44 -106 -98 c-102 -96 -106 -98 -123 -80 -9 10 -49 55 -88 99 l-71 81 86 100 87 101 65 -58 c36 -31 84 -77 107 -101z m-3695 54 l86 -98 -47 -50 c-25 -27 -65 -71 -88 -98 l-42 -50 -107 99 -107 99 102 98 c56 54 105 98 109 98 5 0 47 -44 94 -98z m826 55 c17 -24 51 -68 76 -98 l45 -54 -23 -25 c-13 -14 -48 -57 -79 -97 l-54 -72 -93 94 c-50 52 -90 99 -88 104 5 15 168 191 177 191 4 0 22 -19 39 -43z m1917 -52 c101 -111 104 -85 -23 -216 l-74 -77 -78 97 c-74 92 -76 97 -61 117 102 134 135 174 141 174 4 0 46 -43 95 -95z m-1466 -9 c33 -46 61 -87 61 -90 0 -5 -112 -160 -125 -175 -7 -7 -86 64 -136 121 l-51 59 88 89 c48 49 90 87 94 85 4 -3 35 -43 69 -89z m1055 -7 l77 -82 -88 -89 c-48 -48 -90 -88 -93 -88 -3 0 -35 40 -71 88 l-66 88 66 91 c52 71 69 88 82 82 9 -4 51 -45 93 -90z m-764 -95 l-85 -85 -37 43 c-21 24 -38 49 -38 55 0 7 32 49 71 94 l72 81 51 -51 51 -51 -85 -86z m451 29 c10 -19 7 -27 -26 -68 -21 -25 -41 -44 -44 -43 -4 2 -42 40 -86 86 l-78 83 49 50 49 50 62 -68 c34 -37 67 -78 74 -90z m-211 -98 c73 -73 82 -87 70 -98 -8 -8 -48 -42 -87 -77 l-73 -63 -85 73 c-47 40 -85 75 -85 78 0 8 162 172 170 172 3 0 43 -38 90 -85z m-1140 -55 l92 -100 -58 -85 c-32 -47 -60 -85 -63 -85 -6 0 -151 108 -204 152 l-28 23 81 98 c45 53 83 97 85 97 1 0 44 -45 95 -100z m737 -50 c-28 -30 -52 -57 -53 -58 -2 -2 -13 16 -25 40 -17 31 -24 38 -27 25 -2 -10 1 -32 7 -49 6 -17 10 -33 8 -34 -6 -6 -67 41 -67 51 0 6 28 48 62 94 l61 84 43 -49 42 -49 -51 -55z m728 57 c63 -84 63 -86 4 -128 l-28 -20 15 46 c22 62 12 79 -15 28 -12 -24 -23 -43 -24 -43 -1 0 -26 26 -54 58 l-51 59 40 47 c22 26 44 44 48 39 4 -4 33 -43 65 -86z m824 -17 l70 -85 -22 -18 c-118 -97 -209 -159 -218 -150 -6 6 -35 46 -64 89 l-53 79 96 97 c76 77 99 95 108 85 7 -6 44 -50 83 -97z m-2725 -4 l109 -105 -64 -95 c-35 -52 -66 -95 -69 -96 -6 0 -151 116 -215 172 l-39 35 84 96 c47 53 85 97 85 97 0 0 49 -47 109 -104z m938 -82 c2 -11 -107 -183 -117 -184 -12 0 -170 126 -199 158 -19 22 -19 22 38 94 31 40 64 83 74 94 17 21 17 21 110 -67 51 -49 93 -91 94 -95z m2228 87 l83 -95 -34 -29 c-86 -73 -220 -179 -223 -176 -1 2 -31 46 -66 97 l-64 93 104 104 c58 58 108 104 111 103 3 -2 44 -45 89 -97z m-865 -6 l69 -88 -49 -44 c-63 -57 -161 -133 -172 -133 -4 0 -33 42 -65 93 l-56 92 91 87 c51 48 97 86 102 84 6 -1 41 -42 80 -91z m-930 -122 l77 -72 -88 -64 -87 -65 -29 35 c-15 20 -27 38 -25 40 2 2 22 -3 45 -11 69 -25 58 1 -17 38 -38 20 -73 41 -76 47 -7 11 103 132 116 127 3 -2 41 -35 84 -75z m380 17 c41 -42 56 -63 49 -70 -6 -6 -44 -28 -84 -49 -76 -40 -82 -61 -10 -36 23 8 45 15 47 15 9 0 -40 -62 -53 -67 -9 -3 -125 72 -173 114 -5 4 150 152 159 153 3 0 32 -27 65 -60z m-695 -57 c0 -3 -97 -120 -130 -156 -8 -9 -60 20 -60 33 0 4 25 46 56 93 l56 86 39 -26 c21 -14 39 -28 39 -30z m1030 -144 c-14 -10 -28 -19 -31 -19 -13 0 -141 162 -133 169 5 4 22 17 38 30 l29 21 61 -91 60 -91 -24 -19z m-2322 123 c37 -31 95 -79 130 -105 34 -27 62 -55 62 -62 0 -8 6 -12 14 -9 8 3 37 -9 63 -28 26 -18 87 -53 135 -78 l88 -46 -36 -57 c-33 -53 -37 -56 -67 -50 -127 24 -370 134 -534 242 -71 47 -80 56 -70 71 25 35 142 180 145 180 2 0 33 -26 70 -58z m554 -80 c32 -20 58 -40 58 -44 0 -14 -102 -168 -111 -168 -28 0 -259 146 -259 163 0 6 30 50 66 98 l66 87 62 -49 c33 -28 87 -67 118 -87z m466 -22 l23 -15 -31 -57 c-17 -32 -33 -58 -34 -58 -28 0 -276 113 -276 126 0 6 77 123 97 146 13 15 23 10 106 -55 51 -40 103 -79 115 -87z m1666 81 c31 -43 56 -82 56 -85 0 -12 -248 -126 -274 -126 -5 0 -66 105 -66 113 0 4 26 24 58 45 31 22 82 60 112 85 30 26 56 47 57 47 1 0 27 -36 57 -79z m901 -11 c38 -49 71 -94 73 -100 5 -13 -153 -116 -276 -178 -99 -52 -280 -118 -336 -124 -26 -3 -33 3 -62 51 l-33 55 88 47 c49 25 109 60 134 78 25 17 52 31 60 31 9 0 17 5 19 10 3 11 248 218 258 219 3 0 36 -40 75 -89z m-447 -5 c34 -47 62 -88 62 -92 0 -10 -118 -91 -200 -136 l-65 -36 -53 85 c-28 46 -52 88 -52 92 0 4 26 24 58 44 31 21 82 58 112 82 30 25 60 45 65 45 6 0 38 -38 73 -84z m-1322 -74 l87 -63 -91 -91 -90 -90 -56 50 c-88 78 -132 134 -115 143 8 5 48 34 88 64 41 31 78 55 82 54 4 -2 47 -32 95 -67z m-228 -202 l82 -86 -91 -71 c-50 -40 -95 -72 -99 -72 -17 0 -186 207 -177 217 3 3 45 31 94 63 64 41 91 54 98 46 6 -6 48 -50 93 -97z m462 45 c79 -49 89 -58 79 -75 -16 -31 -159 -199 -168 -199 -8 0 -191 137 -191 143 1 6 176 186 182 187 4 0 48 -25 98 -56z m-749 -121 c18 -27 57 -79 87 -116 29 -38 52 -70 50 -72 -14 -13 -153 -105 -160 -105 -15 0 -137 266 -126 275 5 4 113 65 115 65 1 0 16 -21 34 -47z m925 16 c30 -17 54 -37 54 -45 0 -30 -72 -199 -109 -253 -8 -12 -24 -5 -90 38 -45 30 -81 56 -81 58 0 3 27 40 61 82 34 42 71 93 83 113 11 21 23 38 25 38 2 0 28 -14 57 -31z m-411 -140 c50 -39 91 -75 93 -79 4 -9 -176 -180 -190 -180 -13 0 -189 171 -186 181 4 9 180 149 187 149 3 0 47 -32 96 -71z m-230 -203 c55 -52 98 -96 95 -98 -3 -3 -47 -40 -99 -82 l-94 -78 -19 23 c-116 144 -161 212 -147 219 7 5 46 31 84 59 39 27 72 50 75 50 3 0 50 -42 105 -93z m459 35 l86 -58 -41 -59 c-23 -32 -62 -84 -87 -114 -25 -30 -47 -57 -48 -59 -2 -2 -47 33 -101 78 l-99 82 95 94 c53 52 99 95 102 95 4 0 46 -26 93 -59z m-749 -138 c16 -27 56 -80 87 -120 l57 -71 -82 -63 c-45 -34 -87 -66 -93 -71 -17 -13 -181 236 -172 262 3 9 157 109 168 110 3 0 18 -21 35 -47z m971 -5 c46 -28 84 -53 84 -55 0 -12 -60 -118 -107 -189 -37 -55 -60 -81 -67 -76 -6 5 -48 37 -94 71 l-83 62 49 62 c27 34 66 88 87 120 21 31 40 57 42 57 2 0 42 -23 89 -52z m-448 -94 c53 -42 98 -80 100 -84 1 -4 -43 -54 -98 -111 l-101 -104 -100 103 c-55 57 -99 107 -97 112 3 8 189 159 196 160 2 0 47 -34 100 -76z m-640 -196 c17 -25 32 -51 34 -57 2 -6 17 -28 35 -49 125 -146 194 -235 186 -242 -4 -5 -48 -40 -97 -79 l-89 -71 -55 82 c-83 123 -167 291 -205 408 -55 166 -56 153 11 192 l57 34 46 -86 c25 -48 60 -107 77 -132z m1297 64 c-26 -98 -79 -226 -132 -322 -60 -108 -142 -230 -154 -230 -12 0 -189 138 -189 147 0 3 33 44 73 91 40 48 86 106 102 129 17 24 36 43 43 43 7 0 11 4 8 9 -3 5 15 39 40 77 25 38 61 101 81 140 l35 72 58 -35 58 -34 -23 -87z m-908 -97 c57 -58 103 -107 103 -109 0 -6 -179 -160 -190 -164 -4 -2 -48 46 -96 105 -48 59 -94 115 -101 124 -13 15 -4 24 79 82 51 36 95 66 97 66 3 1 51 -46 108 -104z m507 40 l96 -66 -41 -52 c-71 -90 -163 -197 -169 -197 -9 0 -190 160 -190 168 0 5 201 212 206 212 1 0 45 -29 98 -65z m-249 -283 l97 -83 -103 -105 -104 -104 -99 105 -99 106 39 32 c21 18 65 56 98 85 33 29 63 51 67 50 4 -2 51 -40 104 -86z m-238 -214 l103 -103 -77 -77 c-99 -99 -72 -109 34 -13 l72 66 72 -66 c41 -37 82 -65 93 -65 16 1 2 18 -59 75 l-80 74 106 106 105 106 97 -77 c53 -43 97 -81 97 -85 0 -20 -224 -290 -359 -431 l-73 -78 -68 73 c-168 180 -364 420 -358 438 3 10 177 156 188 158 2 1 51 -45 107 -101z"
       id="path5792" />
  </g>
</svg>
