<?xml version="1.0" encoding="UTF-8" standalone="no"?>
<svg
   xmlns:dc="http://purl.org/dc/elements/1.1/"
   xmlns:cc="http://creativecommons.org/ns#"
   xmlns:rdf="http://www.w3.org/1999/02/22-rdf-syntax-ns#"
   xmlns:svg="http://www.w3.org/2000/svg"
   xmlns="http://www.w3.org/2000/svg"
   xmlns:sodipodi="http://sodipodi.sourceforge.net/DTD/sodipodi-0.dtd"
   xmlns:inkscape="http://www.inkscape.org/namespaces/inkscape"
   version="1.0"
   width="288.000000pt"
   height="260.000000pt"
   viewBox="0 0 288.000000 260.000000"
   preserveAspectRatio="xMidYMid meet"
   id="svg4335"
   sodipodi:docname="lasombra.svg"
   inkscape:version="1.0.1 (3bc2e813f5, 2020-09-07)">
  <defs
     id="defs4339" />
  <sodipodi:namedview
     pagecolor="#ffffff"
     bordercolor="#666666"
     borderopacity="1"
     objecttolerance="10"
     gridtolerance="10"
     guidetolerance="10"
     inkscape:pageopacity="0"
     inkscape:pageshadow="2"
     inkscape:window-width="1600"
     inkscape:window-height="837"
     id="namedview4337"
     showgrid="false"
     inkscape:zoom="1.9326923"
     inkscape:cx="192"
     inkscape:cy="173.33333"
     inkscape:window-x="-8"
     inkscape:window-y="-8"
     inkscape:window-maximized="1"
     inkscape:current-layer="svg4335" />
  <metadata
     id="metadata4329">
Created by potrace 1.16, written by Peter Selinger 2001-2019
<rdf:RDF>
  <cc:Work
     rdf:about="">
    <dc:format>image/svg+xml</dc:format>
    <dc:type
       rdf:resource="http://purl.org/dc/dcmitype/StillImage" />
  </cc:Work>
</rdf:RDF>
</metadata>
  <path
     id="path4912"
     style="fill:#ffffff;stroke-width:0.517413"
     transform="scale(0.75000001)"
     d="m 273.91698,119.62749 c -4.72038,0.078 -6.45196,5.87448 -4.01197,9.38417 4.44718,10.63166 11.28196,20.96597 10.72322,32.95656 0.7631,15.11318 0.22228,30.34087 1.55725,45.4699 0.39687,3.61485 4.67272,4.50307 5.6491,7.67227 0.69372,4.45855 -3.90547,7.25552 -5.89141,10.67972 -1.30357,2.0701 -4.34474,1.687 -5.93431,3.56025 -4.68799,3.04248 -6.98493,9.98241 -2.99837,14.53102 6.67137,7.25423 18.55227,9.57107 27.30768,4.75979 4.33991,-2.49809 10.53566,-5.82317 9.38317,-11.79843 -0.42043,-3.41085 -3.62751,-6.13489 -3.64413,-9.39832 1.49783,-3.77513 -0.63884,-7.45086 -0.87616,-11.15167 1.52678,-1.99593 4.79095,-1.93308 6.61925,-3.75225 2.3647,-1.18935 2.9334,-3.94863 4.4354,-5.75622 4.10904,-1.29283 8.44173,-3.61583 9.44379,-8.23111 2.47243,-10.11466 1.47214,-20.72976 0.50125,-30.98919 -0.69447,-11.57724 -7.4651,-21.86611 -16.3167,-28.99433 -9.99622,-8.17348 -21.72904,-14.04136 -33.70966,-18.68346 -0.72853,-0.18983 -1.48336,-0.29721 -2.2374,-0.2587 z M 215.2947,107.62896 c -3.62851,1.54155 -9.41233,2.45434 -9.19192,7.51765 0.29046,22.40272 -0.20931,44.8276 0.64433,67.21639 0.008,3.48954 1.54125,6.77661 3.76455,9.28493 -0.25037,4.70773 2.85026,8.51126 4.97707,12.33808 -2.53511,3.43469 -5.8859,6.34635 -7.7905,10.21284 -6.54902,0.45861 -10.14144,8.26239 -8.92841,14.10557 2.00714,4.62368 6.2362,8.19008 10.59686,10.55845 7.32436,1.60329 14.99583,1.00103 22.44464,0.66385 6.19772,-0.25156 13.95345,-2.85617 15.11833,-9.85197 1.47176,-5.83142 -2.10932,-11.59592 -7.2266,-14.24098 -2.41427,-2.47797 -3.58514,-5.98587 -5.94823,-8.57268 -1.47035,-2.72307 1.74991,-5.08747 4.29695,-4.82548 3.86301,-0.33621 6.38861,-3.80676 6.81227,-7.41053 2.8514,-3.5549 8.12988,0.70481 10.92631,-3.06405 2.37326,-5.46448 1.37578,-11.71998 2.01728,-17.54303 0.0888,-10.52748 1.76911,-21.26312 -0.48121,-31.66173 -3.949,-11.85695 -11.11201,-23.70056 -22.87026,-29.11762 -5.55876,-2.51186 -11.42301,-4.79069 -17.41805,-5.77746 -0.60654,-0.0288 -1.17986,-0.13224 -1.74341,0.16777 z m -50.52052,-0.10813 c -9.81057,3.15224 -20.20006,6.63003 -27.11163,14.74425 -5.18759,5.57708 -8.35744,12.76669 -10.93136,19.84663 -2.38626,10.27578 -0.60906,20.93319 -0.55986,31.35704 0.6016,5.9677 -0.26085,12.28801 1.93323,17.95483 2.20827,3.04824 5.80823,1.27386 8.795,1.79984 3.51137,0.53629 2.25975,4.80952 4.56678,6.63238 1.93825,2.54272 5.45402,1.81484 7.95725,2.72147 1.22069,1.90171 1.63902,4.49686 -0.4588,5.97349 -2.21831,2.92975 -3.2918,6.85215 -6.92849,8.44333 -6.97504,4.3548 -7.0462,16.09931 0.44668,19.96386 7.36445,3.86889 16.04916,2.57391 24.05768,2.88012 4.57862,0.17112 9.42262,-0.5658 12.70199,-4.08533 4.02013,-3.09679 7.95663,-8.06713 5.75408,-13.41373 -1.27464,-4.24531 -4.71452,-7.64323 -8.95265,-8.81017 -1.53236,-1.62667 -1.43724,-4.41621 -3.52589,-5.78148 -1.14493,-1.66608 -4.77899,-2.26825 -3.41573,-4.88309 2.1818,-3.42939 4.82239,-6.80135 5.13775,-11.05869 1.24497,-3.65653 4.22567,-6.81177 3.35712,-10.96976 -0.0901,-22.2159 0.18015,-44.47968 -0.13513,-66.66566 -0.6265,-4.66117 -6.24054,-5.16574 -9.77565,-6.63162 -0.97667,-0.0278 -1.96663,-0.43606 -2.91237,-0.0177 z m -55.34399,12.04804 c -6.27679,1.26828 -11.80984,4.9369 -17.599169,7.55433 -12.625733,6.7854 -25.756439,15.49482 -31.550004,29.18705 -3.261232,10.3682 -3.346937,21.46158 -3.371639,32.244 0.0709,6.2802 0.975455,14.6693 7.908097,17.0608 1.902023,0.53518 4.000216,1.21208 4.263604,3.51073 1.884464,3.89871 6.386177,4.79808 9.653996,6.91332 0.262476,3.53023 -2.314876,6.97628 -0.973181,10.60494 0.908634,3.49614 -2.818294,6.26765 -3.438977,9.70251 -1.604027,5.97585 4.726976,9.63897 9.08727,12.10159 8.679076,5.18114 20.358523,2.63925 27.343853,-4.19993 5.07723,-5.3509 1.01078,-13.95105 -5.14987,-16.32276 -3.87664,-0.83034 -5.33876,-4.91369 -7.777366,-7.59647 -2.661039,-2.46406 -2.23644,-7.23179 1.291511,-8.63635 4.401025,-3.68602 2.709975,-10.02518 3.364305,-15.02773 0.57619,-14.20536 0.1787,-28.35305 1.45916,-42.49404 1.97384,-10.08319 8.10091,-18.65276 11.24968,-28.29096 0.57857,-3.34413 -2.36538,-6.60685 -5.76127,-6.31103 z M 189.60596,-0.3516791 c -6.65714,-0.28075794 -13.56361,1.31975016 -18.50661,6.0331157 -3.4032,2.8118308 -5.98468,6.6707294 -7.64498,10.6201024 -8.65618,3.912368 -15.29554,13.218577 -14.4815,22.940998 0.0217,5.693225 -0.32821,11.577536 1.74122,17.002878 -3.67524,3.717492 -6.25585,8.630396 -8.57774,13.04042 -28.87831,4.454967 -58.92866,9.262173 -83.862867,25.562548 -17.71228,11.964357 -33.295654,28.172407 -41.408236,48.212597 -7.2252625,16.40163 -8.091898,34.66995 -8.778378,52.21179 -0.6364348,4.6228 -3.3862461,8.83855 -2.898864,13.67709 -0.5933226,7.28964 1.0275418,14.90741 5.901392,20.54905 6.277999,6.92604 15.166241,11.15938 20.398051,19.13387 1.733552,2.74538 4.249017,5.55839 4.978426,8.57703 -6.305051,11.38338 -8.205862,26.38566 -0.761972,37.7186 1.634907,2.79901 4.279072,5.11546 6.432292,7.2458 -1.829419,9.31496 -1.656063,19.93347 4.657727,27.625 6.546435,8.44621 17.633708,11.62025 27.814987,12.79889 13.026968,0.65556 25.720632,-3.72534 38.280172,-6.19544 26.48452,-6.05054 53.74312,-9.96297 80.744,-9.5614 30.10901,0.0404 59.79599,5.27981 89.15173,12.29553 14.4094,3.474 30.46114,5.64104 44.24986,-1.22774 10.21736,-4.48935 16.30253,-15.61367 15.89832,-26.58007 -0.0251,-3.27845 -0.5298,-6.53987 -1.36023,-9.70755 11.28988,-8.67564 14.72469,-25.28956 8.69699,-38.02885 -0.63699,-2.40291 -2.75269,-4.77877 -2.73053,-7.08029 4.44234,-8.19233 10.66362,-15.40051 18.48736,-20.51944 8.6863,-6.35069 14.38881,-17.12673 12.89895,-28.01609 -0.52033,-6.35272 -4.03841,-12.09963 -3.49701,-18.59788 -0.12881,-18.96585 -3.06369,-38.41555 -12.54279,-55.12235 -12.46303,-22.6663 -33.3607,-40.204518 -57.29456,-49.759567 -20.29527,-8.59322 -42.25205,-11.93547 -63.89629,-15.21416 -2.12239,-4.727669 -4.82496,-9.276619 -8.40392,-13.052549 2.50925,-7.324504 1.82318,-15.273706 1.40774,-22.865204 -1.63958,-7.552909 -7.36255,-13.923259 -14.31678,-17.092817 -3.44274,-9.734907 -13.45048,-16.87248369 -23.85214,-16.51009342 -2.30574,-0.11557851 -4.61556,-0.14308071 -6.92382,-0.11381868 z m 3.18026,29.4955691 c 0.69262,4.367111 -0.99565,10.382543 3.57743,13.029306 2.97471,0.960238 6.18438,0.715551 9.26594,1.021689 0.70216,2.474987 -2.66552,1.399746 -4.02006,2.513293 -6.09322,2.048035 -10.79707,8.896973 -8.26547,15.282881 3.69889,9.401305 16.79204,9.309433 20.69147,18.453051 1.91816,5.066694 -0.25922,12.576104 5.58239,15.457711 8.07296,2.827802 16.82996,2.88628 25.1931,4.481862 19.68226,3.190007 40.07574,6.536057 58.09826,16.031737 18.99087,9.7571 35.29243,27.20588 40.4573,48.48497 3.36983,13.22329 2.47158,26.85753 3.59664,40.32695 0.27084,2.57214 3.85301,5.05151 2.40712,7.73511 -8.96568,5.35122 -16.07783,13.35655 -22.25702,21.66517 -4.71071,7.42365 -9.66565,15.11353 -11.60018,23.7934 -0.23482,5.38183 4.23739,9.47902 6.26453,14.15509 0.82714,2.02091 2.70327,4.40783 2.12625,6.59296 -5.52629,1.74145 -12.60474,0.46726 -16.69061,5.64405 -2.9759,4.26715 -4.49281,10.12993 -3.01353,15.21922 1.72416,4.80155 7.11218,7.01592 9.42359,11.25373 0.87058,2.68443 -3.08453,2.02959 -4.74868,2.72046 -8.0943,1.35449 -15.97931,-2.08595 -23.84503,-3.4771 -32.05997,-7.76251 -64.95583,-12.51135 -97.99352,-12.16322 -33.88652,0.17277 -67.24284,7.0342 -100.069533,14.85 -5.418017,1.48902 -11.710079,1.70849 -16.727411,-0.55071 -0.111586,-3.60959 4.101791,-5.19554 6.075178,-7.7293 4.141839,-3.31835 4.931799,-9.01974 3.338301,-13.8454 -0.808788,-5.89862 -5.994627,-10.26564 -11.854013,-10.56958 -2.486319,-0.57282 -5.602914,-2e-5 -7.695506,-1.11466 -0.292279,-5.15279 3.968508,-9.17628 6.093751,-13.54874 2.650924,-3.86378 3.050217,-8.95471 0.631078,-13.04457 -6.226433,-14.60566 -15.835004,-27.97929 -28.563293,-37.57903 -1.617743,-1.22889 -5.059506,-1.87158 -3.812889,-4.62135 1.662778,-3.12743 3.535595,-6.2646 2.979697,-10.00003 0.387302,-16.4553 0.4099,-33.72798 8.034529,-48.81425 10.35462,-21.86814 31.948391,-36.28455 54.593581,-43.08904 19.94395,-6.22679 40.83692,-8.144488 61.31601,-11.78099 4.15323,-0.530612 7.27583,-4.082362 7.29431,-8.27052 0.33914,-4.990091 0.90293,-10.79015 5.66628,-13.645757 5.83616,-4.37186 14.95448,-6.596756 16.78459,-14.672496 1.61206,-7.616243 -5.67715,-13.994857 -12.74533,-14.63915 -0.41585,-2.868523 3.98958,-1.160566 5.9118,-1.899539 3.86749,0.298554 6.99553,-3.111495 6.57685,-6.927808 0.18677,-2.31181 0.31087,-4.628049 0.4396,-6.943642 0.33912,0.191232 1.57903,-0.418243 1.4825,0.214242 z" />
  <g
     transform="translate(0.000000,260.000000) scale(0.100000,-0.100000)"
     fill="#000000"
     stroke="none"
     id="g4333">
    <path
       d="M1398 2368 l-3 -53 -47 -3 -48 -3 0 -40 c0 -37 2 -39 30 -39 33 0 70 -30 70 -57 0 -30 -17 -46 -72 -73 -66 -31 -98 -76 -98 -136 0 -51 11 -46 -160 -69 -342 -48 -509 -113 -651 -255 -118 -118 -172 -262 -172 -457 1 -84 -3 -115 -13 -124 -8 -6 -14 -25 -14 -41 0 -23 7 -33 33 -46 58 -31 140 -124 185 -211 23 -45 42 -89 42 -96 0 -8 -13 -34 -29 -57 -37 -54 -46 -90 -31 -117 8 -17 20 -21 58 -21 60 0 78 -14 87 -65 6 -39 4 -43 -34 -73 -33 -27 -41 -39 -41 -67 0 -33 2 -34 55 -46 51 -11 64 -10 202 24 499 123 890 121 1406 -5 118 -29 132 -30 182 -19 53 12 55 13 55 46 0 28 -8 40 -41 67 -38 30 -40 34 -34 73 8 50 27 65 81 65 81 0 93 49 34 136 -16 25 -30 51 -30 59 0 7 19 51 42 96 45 87 127 180 186 211 25 13 32 23 32 46 0 16 -6 35 -14 41 -10 9 -14 40 -13 124 0 195 -54 339 -172 457 -142 142 -309 207 -651 255 -171 23 -160 18 -160 69 0 60 -32 105 -98 136 -55 27 -72 43 -72 73 0 27 37 57 70 57 28 0 30 2 30 39 l0 40 -47 3 -48 3 -3 53 -3 52 -39 0 -39 0 -3 -52z m-124 -618 l26 -10 0 -264 c0 -222 -2 -266 -15 -276 -8 -7 -15 -25 -15 -40 0 -15 -9 -35 -20 -45 -29 -26 -26 -73 5 -87 14 -6 25 -19 25 -28 0 -20 17 -36 44 -41 11 -2 24 -17 29 -33 8 -25 6 -32 -22 -60 -31 -30 -34 -31 -124 -31 -112 0 -150 18 -145 69 2 22 11 35 30 44 15 7 30 22 33 33 4 12 16 30 26 40 14 14 18 27 13 47 -10 40 -23 52 -55 52 -24 0 -29 4 -29 24 0 26 -47 53 -75 42 -8 -3 -15 -2 -16 2 0 4 -2 27 -5 52 -2 25 -5 97 -6 161 -2 113 -1 119 31 183 48 98 94 132 238 175 1 1 13 -3 27 -9z m418 -10 c84 -26 138 -73 179 -156 32 -64 33 -70 31 -183 -1 -64 -4 -136 -6 -161 -3 -25 -5 -48 -5 -52 -1 -4 -8 -5 -16 -2 -28 11 -75 -16 -75 -42 0 -18 -5 -24 -23 -24 -52 0 -83 -64 -48 -99 10 -10 22 -28 26 -40 3 -11 18 -26 33 -33 19 -9 28 -22 30 -44 5 -51 -33 -69 -145 -69 -90 0 -93 1 -124 31 -28 28 -30 35 -22 60 7 21 17 30 36 32 17 2 27 9 27 19 0 9 16 31 35 49 38 34 38 47 3 93 -10 13 -16 32 -13 41 3 9 -3 25 -15 35 -19 17 -20 30 -20 282 l0 264 23 9 c12 5 23 9 23 9 1 1 31 -8 66 -19z m-862 -77 c0 -5 -13 -34 -29 -65 -61 -121 -66 -146 -66 -361 0 -149 -3 -197 -12 -197 -7 0 -20 -11 -29 -25 -18 -28 -13 -64 13 -91 10 -10 23 -27 28 -38 6 -12 20 -22 33 -24 31 -5 54 -40 41 -64 -13 -25 -68 -48 -111 -48 -36 0 -108 42 -108 63 0 7 9 25 19 41 14 21 17 35 11 46 -6 11 -5 29 3 49 15 39 2 62 -41 75 -19 6 -33 18 -37 33 -3 15 -16 25 -37 31 -27 7 -34 14 -41 48 -13 57 -2 232 17 277 33 81 120 156 251 218 85 40 95 44 95 32z m1312 -31 c133 -62 220 -137 254 -219 19 -45 30 -220 17 -277 -7 -34 -14 -41 -41 -48 -21 -6 -34 -16 -37 -31 -4 -15 -18 -27 -37 -33 -43 -13 -56 -36 -41 -75 8 -20 9 -38 3 -49 -6 -11 -3 -25 11 -46 10 -16 19 -34 19 -41 0 -21 -72 -63 -108 -63 -43 0 -98 23 -111 48 -13 24 10 59 41 64 13 2 27 12 33 24 5 11 18 28 28 38 26 27 31 63 13 91 -9 14 -22 25 -29 25 -9 0 -12 48 -12 197 0 215 -5 240 -66 361 -28 56 -34 72 -24 72 2 0 42 -17 87 -38z"
       id="path4331" />
  </g>
</svg>
