<?xml version="1.0" encoding="UTF-8" standalone="no"?>
<svg
   xmlns:dc="http://purl.org/dc/elements/1.1/"
   xmlns:cc="http://creativecommons.org/ns#"
   xmlns:rdf="http://www.w3.org/1999/02/22-rdf-syntax-ns#"
   xmlns:svg="http://www.w3.org/2000/svg"
   xmlns="http://www.w3.org/2000/svg"
   xmlns:sodipodi="http://sodipodi.sourceforge.net/DTD/sodipodi-0.dtd"
   xmlns:inkscape="http://www.inkscape.org/namespaces/inkscape"
   version="1.0"
   width="300pt"
   height="328.00385pt"
   viewBox="0 0 300.00001 328.00385"
   preserveAspectRatio="xMidYMid meet"
   id="svg4940"
   sodipodi:docname="malkavian.svg"
   inkscape:version="1.0.1 (3bc2e813f5, 2020-09-07)">
  <defs
     id="defs4944" />
  <sodipodi:namedview
     pagecolor="#ffffff"
     bordercolor="#666666"
     borderopacity="1"
     objecttolerance="10"
     gridtolerance="10"
     guidetolerance="10"
     inkscape:pageopacity="0"
     inkscape:pageshadow="2"
     inkscape:window-width="1600"
     inkscape:window-height="837"
     id="namedview4942"
     showgrid="false"
     inkscape:zoom="0.8375"
     inkscape:cx="89.249377"
     inkscape:cy="147.008"
     inkscape:window-x="-8"
     inkscape:window-y="-8"
     inkscape:window-maximized="1"
     inkscape:current-layer="svg4940"
     fit-margin-top="0"
     fit-margin-left="0"
     fit-margin-right="0"
     fit-margin-bottom="0" />
  <metadata
     id="metadata4934">
Created by potrace 1.16, written by Peter Selinger 2001-2019
<rdf:RDF>
  <cc:Work
     rdf:about="">
    <dc:format>image/svg+xml</dc:format>
    <dc:type
       rdf:resource="http://purl.org/dc/dcmitype/StillImage" />
    <dc:title></dc:title>
  </cc:Work>
</rdf:RDF>
</metadata>
  <path
     id="path5513"
     style="fill:#ffffff;stroke-width:0.447761"
     d="m 127.75039,34.474021 c -7.38851,1.10893 -11.77538,7.710829 -16.39838,12.892375 -7.91513,10.137405 -13.81391,22.125431 -16.030196,34.838794 -1.22301,8.557115 5.970266,17.296138 14.744606,17.088418 8.53002,-0.363135 17.28685,-1.376723 25.09615,-5.106788 7.5421,-3.351787 15.40456,-6.127659 22.65119,-10.062276 7.24502,-4.525434 8.92231,-15.293633 3.54234,-21.890203 -6.7863,-7.884389 -14.07382,-15.348227 -20.83,-23.25222 -3.24755,-3.489917 -8.09075,-4.986205 -12.77571,-4.5081 z M 152.83114,0.01215092 C 131.11361,-0.42697183 110.70568,11.084759 96.204617,26.628467 80.513087,43.605213 70.242154,65.740178 67.879742,88.764887 c -0.390255,12.792263 -0.96336,25.736983 1.116861,38.419313 4.313747,23.9096 16.969096,46.32123 35.416857,62.1636 -2.07678,12.15326 5.97957,24.78659 17.35512,29.02839 1.54513,4.00038 5.08299,6.92132 6.51528,10.9203 1.41937,9.52881 1.20614,19.21494 1.72896,28.81851 -4.28142,7.35046 -7.94212,15.45495 -7.56015,24.15973 -0.67854,7.49038 2.03574,14.81882 6.60584,20.67839 4.91497,6.6807 9.59451,13.54368 14.32269,20.33548 5.78508,6.60647 17.35044,6.22867 22.59166,-0.86854 4.8197,-7.07305 9.79771,-14.07784 14.68367,-21.12211 3.82256,-5.34539 6.79923,-11.63921 6.14412,-18.3803 0.0682,-8.33349 -3.49607,-16.08286 -7.43966,-23.22324 0.2031,-9.96543 0.0229,-20.03071 1.38614,-29.90556 1.63288,-4.30305 5.32985,-7.27099 7.28049,-11.35144 11.25263,-4.1835 18.93224,-16.3317 17.20557,-28.32002 -0.40547,-2.11261 2.79805,-2.86009 3.81822,-4.5056 18.85464,-18.4939 30.11731,-44.17929 32.50291,-70.35798 0.982,-14.78806 0.40379,-29.844105 -3.92197,-44.115728 C 234.25724,59.114672 228.78904,47.654211 221.84321,37.293518 212.94632,25.962317 202.37438,15.52566 189.6009,8.654292 178.24308,3.0179777 165.5483,-0.22224133 152.83114,0.01215092 Z M 130.17897,49.472273 c 6.40475,7.696174 13.13764,15.126669 20.31279,22.113454 -9.15603,3.821006 -18.26323,7.979628 -27.49873,11.593182 -4.45869,0.494279 -8.91739,0.988562 -13.37609,1.482846 3.16258,-13.419502 9.73895,-26.404663 20.34689,-35.449219 z m 59.13859,11.003379 c 0.3269,0.485651 2.16634,3.015712 0.75122,1.52344 -0.14628,-0.334517 -0.80326,-1.516813 -0.75122,-1.52344 z m -66.05702,67.432658 c 2.22382,1.93257 4.43872,3.87551 6.63508,5.83926 -2.80571,4.92084 -5.54431,9.88125 -8.1524,14.90993 -3.04099,-4.06894 -5.5083,-8.54405 -7.64255,-13.14512 2.59914,-2.92943 5.26008,-5.80401 7.97138,-8.62989 0.39616,0.34194 0.79232,0.68388 1.18849,1.02582 z m 47.09276,7.8953 c 0.30165,8.47605 0.30509,17.05942 -2.14925,25.26318 -0.70859,1.65223 -0.54552,4.25784 -1.90509,5.31575 -5.59882,1.34417 -11.46345,1.69622 -17.1671,0.85617 5.62599,-10.69918 11.49213,-21.3823 18.66867,-31.33279 0.93644,-0.0877 3.10769,-2.55548 2.55277,-0.10231 z m 18.97213,24.5534 c 0.75489,0.17357 -0.41499,0.15494 0,0 z m -71.3838,-47.32189 c -6.60863,2.13211 -10.69299,8.19798 -15.19162,13.06681 -4.57751,5.30963 -4.08617,13.25825 -0.42026,18.92744 3.73089,6.95658 7.72275,15.40656 16.18557,17.32595 7.0833,1.62838 14.48497,-2.49128 17.45412,-9.00071 2.79234,-5.66632 6.96697,-10.86924 8.3095,-17.10409 1.37293,-6.57449 -2.80024,-12.60875 -7.8066,-16.43641 -4.50192,-4.61562 -10.77901,-8.67082 -17.49197,-6.94559 -0.34625,0.0555 -0.6925,0.11107 -1.03874,0.1666 z m 51.19606,6.97965 c -9.01726,0.45059 -14.47715,8.62759 -18.89623,15.48546 -5.27955,8.50732 -10.4493,17.14852 -14.64912,26.24292 -2.96165,7.84647 1.79559,17.34033 9.87636,19.61686 8.02056,1.90397 16.59334,1.22971 24.51379,-0.87998 6.76487,-1.81727 11.19204,-8.11192 12.29046,-14.79849 2.88697,-10.58885 3.51419,-21.68631 2.6988,-32.59187 -1.03923,-7.6731 -8.09779,-13.49676 -15.83406,-13.0749 z" />
  <g
     transform="matrix(0.1,0,0,-0.1,4.607319,314.5399)"
     fill="#000000"
     stroke="none"
     id="g4938">
    <path
       d="m 1400,2993 c -270,-45 -510,-294 -597,-618 -23,-89 -26,-119 -27,-265 -1,-184 16,-275 74,-412 61,-144 166,-279 281,-364 l 48,-35 -19,-32 c -25,-41 -25,-73 0,-114 26,-43 73,-67 116,-59 27,6 35,3 45,-15 10,-19 9,-25 -6,-35 -19,-14 -17,-19 26,-74 43,-57 51,-95 56,-273 l 6,-168 -39,-72 c -33,-62 -38,-81 -39,-137 0,-66 0,-66 66,-155 37,-50 76,-105 87,-123 l 20,-33 23,38 c 13,21 51,76 86,122 34,46 65,98 69,116 7,42 -10,107 -48,174 l -30,55 4,175 c 4,156 7,182 27,228 12,28 34,61 47,74 27,26 31,44 9,53 -12,4 -13,10 -4,30 10,20 16,23 48,19 99,-13 170,104 110,181 -12,15 -20,28 -18,30 2,1 24,16 49,33 144,97 272,297 325,506 68,271 30,553 -108,792 -57,99 -201,239 -294,288 -121,63 -273,90 -393,70 z m 171,-103 h 26 l 5,-122 c 5,-107 9,-133 36,-202 17,-44 30,-81 28,-83 -2,-2 -57,52 -122,119 -116,120 -214,237 -214,256 0,18 121,42 180,36 19,-2 47,-4 61,-4 z m 144,-44 c 154,-72 287,-227 355,-416 l 30,-79 -43,-12 c -23,-6 -54,-18 -68,-26 -25,-15 -30,-13 -126,36 -55,28 -109,61 -121,74 -12,13 -40,71 -62,128 -33,89 -40,122 -46,212 -8,124 -7,125 81,83 z m -309,-146 c 73,-86 189,-202 277,-275 l 47,-40 -252,-108 -253,-108 -130,-14 c -71,-8 -150,-17 -174,-20 l -44,-5 7,75 c 24,264 162,506 351,616 l 50,29 25,-32 c 14,-18 57,-71 96,-118 z m 715,-470 c 15,-99 6,-274 -21,-375 -21,-82 -104,-265 -119,-265 -5,0 -38,33 -74,73 l -65,72 -7,150 -7,150 34,60 c 72,127 104,167 153,192 40,21 78,32 87,24 4,-3 12,-40 19,-81 z m -281,55 c 18,-11 -51,-124 -107,-175 -70,-64 -145,-93 -243,-94 -50,0 -91,5 -123,18 l -47,18 21,38 c 41,73 97,115 214,164 106,44 113,45 193,41 45,-2 87,-7 92,-10 z m -680,-163 c 0,-4 -56,-63 -124,-131 -98,-98 -124,-119 -130,-106 -9,25 -31,203 -25,209 4,4 133,21 267,35 6,0 12,-2 12,-7 z m 151,-168 c 71,-64 129,-117 129,-118 0,-2 -26,-45 -57,-97 -31,-52 -82,-147 -113,-212 l -56,-118 -47,38 c -57,48 -103,101 -150,174 -40,62 -87,169 -87,197 0,22 217,252 238,252 8,0 72,-52 143,-116 z m 494,-116 c 4,-114 3,-197 -5,-243 -13,-81 -47,-204 -62,-222 -20,-25 -138,-53 -219,-53 -92,0 -157,13 -219,43 -37,18 -45,26 -42,46 7,66 219,440 281,495 20,18 222,104 247,105 8,1 14,-52 19,-171 z m 127,-316 c -26,-35 -133,-125 -139,-118 -2,2 5,36 17,77 11,40 23,102 27,138 l 6,65 58,-63 58,-64 z"
       id="path4936" />
  </g>
</svg>
