<?xml version="1.0" encoding="UTF-8" standalone="no"?>
<svg
   xmlns:dc="http://purl.org/dc/elements/1.1/"
   xmlns:cc="http://creativecommons.org/ns#"
   xmlns:rdf="http://www.w3.org/1999/02/22-rdf-syntax-ns#"
   xmlns:svg="http://www.w3.org/2000/svg"
   xmlns="http://www.w3.org/2000/svg"
   xmlns:sodipodi="http://sodipodi.sourceforge.net/DTD/sodipodi-0.dtd"
   xmlns:inkscape="http://www.inkscape.org/namespaces/inkscape"
   version="1.0"
   width="300.000000pt"
   height="225.000000pt"
   viewBox="0 0 300.000000 225.000000"
   preserveAspectRatio="xMidYMid meet"
   id="svg851"
   sodipodi:docname="martyr.svg"
   inkscape:version="1.0.1 (3bc2e813f5, 2020-09-07)">
  <defs
     id="defs855" />
  <sodipodi:namedview
     pagecolor="#ffffff"
     bordercolor="#666666"
     borderopacity="1"
     objecttolerance="10"
     gridtolerance="10"
     guidetolerance="10"
     inkscape:pageopacity="0"
     inkscape:pageshadow="2"
     inkscape:window-width="1600"
     inkscape:window-height="837"
     id="namedview853"
     showgrid="false"
     inkscape:zoom="1.905"
     inkscape:cx="200"
     inkscape:cy="150"
     inkscape:window-x="-8"
     inkscape:window-y="-8"
     inkscape:window-maximized="1"
     inkscape:current-layer="svg851" />
  <metadata
     id="metadata845">
Created by potrace 1.16, written by Peter Selinger 2001-2019
<rdf:RDF>
  <cc:Work
     rdf:about="">
    <dc:format>image/svg+xml</dc:format>
    <dc:type
       rdf:resource="http://purl.org/dc/dcmitype/StillImage" />
  </cc:Work>
</rdf:RDF>
</metadata>
  <path
     style="fill:#ffffff;stroke-width:0.524934"
     d="M 331.13517,-0.83661417 C 319.99583,-0.95134173 308.60304,2.5694598 300.5547,10.520792 276.60774,32.758719 253.93317,56.324494 230.59439,79.193837 220.45634,89.219228 210.31541,99.242619 200.05229,109.14022 182.00438,92.318352 164.7439,74.493307 147.10496,56.960727 140.09655,49.77231 132.82394,42.744211 126.25799,35.182907 125.13482,22.792201 116.18445,12.084004 105.20936,6.8385008 96.78484,3.5292357 87.003475,3.4680551 78.470514,6.4273706 64.099026,12.297377 54.183096,28.033573 56.392485,43.61357 c 0.985791,11.459313 9.022503,21.08338 18.39426,27.084429 5.30714,3.105712 11.622405,3.991119 17.680651,3.481791 23.187454,23.182772 46.375144,46.36531 69.563034,69.54765 0.92532,3.48369 -1.0601,5.78729 -3.64858,7.84642 -30.12578,29.76964 -59.673257,60.0083 -90.35466,89.21313 -2.647309,1.10205 -5.666418,-1.46277 -7.979618,-2.78871 -4.722219,-3.45593 -8.673674,-8.23825 -10.513041,-13.8431 19.540407,-20.91101 40.322991,-40.66269 59.267509,-62.12424 6.31213,-6.71071 8.87959,-17.10491 4.54688,-25.5439 -4.76044,-10.35134 -16.375996,-18.28517 -28.001629,-15.35053 -10.818483,2.64442 -17.921342,12.02063 -25.846495,19.12531 -17.451801,17.38159 -35.061902,34.67104 -51.2853677,53.21854 -7.93498526,9.17153 -10.334969,21.70587 -9.4471569,33.51819 0.9278971,17.44592 10.601484,33.38411 22.8657916,45.35012 13.498174,13.01055 32.188858,21.64802 51.210835,19.75989 9.060876,-1.05354 19.343653,-1.838 25.746021,-9.16446 33.612371,-33.12401 66.800681,-66.63206 100.714291,-99.35211 2.37715,-1.79605 4.63603,3.70665 6.96265,4.98532 23.4932,23.34893 46.98621,46.69804 70.47918,70.0472 -1.40421,15.57508 9.53254,30.64935 24.32436,35.15112 14.94835,5.2017 33.17222,-0.65027 41.3027,-14.47875 9.75365,-15.37864 4.96087,-37.66244 -10.10294,-47.82235 -4.58751,-3.22571 -10.11819,-4.80515 -15.56246,-5.68303 -18.37368,-16.92262 -35.61877,-35.03028 -53.34892,-52.6192 -8.91332,-8.99461 -17.82752,-17.98887 -26.64513,-27.07752 27.99615,-28.64607 56.33155,-56.967384 84.97888,-84.96227 3.96029,-3.632999 7.82898,-7.758886 12.10937,-10.797249 7.5004,3.211263 14.73315,9.10471 16.6113,17.402805 -19.30671,21.111 -40.24555,40.694874 -59.1584,62.164564 -6.45652,6.90778 -9.03173,17.64485 -4.40684,26.23459 5.25198,10.62848 18.09363,18.56954 29.93664,14.23372 9.77504,-3.98835 16.61873,-12.52956 24.3031,-19.41817 17.27422,-17.17202 34.84738,-34.12006 50.85078,-52.500712 7.51301,-9.702016 10.40597,-22.331937 9.26733,-34.435317 C 400.07517,45.837714 389.30429,29.623783 376.32054,17.477649 366.43668,8.5237328 353.9388,2.2870084 340.81775,-0.11790499 c -3.20089,-0.50302729 -6.44292,-0.73478635 -9.68258,-0.71870918 z"
     id="path859"
     transform="scale(0.75)" />
  <g
     transform="translate(0.000000,225.000000) scale(0.100000,-0.100000)"
     fill="#000000"
     stroke="none"
     id="g849">
    <path
       d="M2391 2090 c-31 -14 -153 -132 -443 -425 -342 -346 -403 -403 -418 -395 -10 6 -36 10 -57 10 -38 0 -49 10 -356 318 -316 318 -317 319 -317 361 0 36 -6 49 -34 77 -29 29 -41 34 -81 34 -40 0 -52 -5 -81 -34 -29 -29 -34 -41 -34 -81 0 -40 5 -52 35 -82 34 -34 38 -35 90 -31 l54 5 306 -307 307 -307 2 -76 2 -76 -385 -384 c-212 -212 -396 -390 -408 -396 -36 -18 -104 -13 -160 14 -130 60 -227 230 -182 318 6 12 119 130 250 262 132 133 239 248 239 257 0 21 -27 48 -48 48 -26 0 -489 -468 -514 -519 -103 -213 168 -525 410 -471 l57 12 415 413 c387 385 418 413 455 418 l40 5 351 -350 351 -350 -10 -37 c-20 -74 37 -141 120 -141 86 0 139 91 98 170 -21 41 -53 60 -100 60 -39 0 -46 6 -398 358 -311 311 -357 361 -357 387 0 27 52 82 418 447 461 459 439 443 539 413 56 -17 138 -76 172 -124 55 -76 75 -165 50 -214 -6 -12 -119 -130 -250 -262 -132 -133 -239 -248 -239 -257 0 -21 27 -48 48 -48 22 0 484 465 508 510 57 112 27 241 -83 361 -104 112 -257 158 -362 109z"
       id="path847" />
  </g>
</svg>
