<?xml version="1.0" encoding="UTF-8" standalone="no"?>
<svg
   xmlns:dc="http://purl.org/dc/elements/1.1/"
   xmlns:cc="http://creativecommons.org/ns#"
   xmlns:rdf="http://www.w3.org/1999/02/22-rdf-syntax-ns#"
   xmlns:svg="http://www.w3.org/2000/svg"
   xmlns="http://www.w3.org/2000/svg"
   xmlns:sodipodi="http://sodipodi.sourceforge.net/DTD/sodipodi-0.dtd"
   xmlns:inkscape="http://www.inkscape.org/namespaces/inkscape"
   version="1.0"
   width="291.000000pt"
   height="286.000000pt"
   viewBox="0 0 291.000000 286.000000"
   preserveAspectRatio="xMidYMid meet"
   id="svg7760"
   sodipodi:docname="pander.svg"
   inkscape:version="1.0.1 (3bc2e813f5, 2020-09-07)">
  <defs
     id="defs7764" />
  <sodipodi:namedview
     pagecolor="#ffffff"
     bordercolor="#666666"
     borderopacity="1"
     objecttolerance="10"
     gridtolerance="10"
     guidetolerance="10"
     inkscape:pageopacity="0"
     inkscape:pageshadow="2"
     inkscape:window-width="1600"
     inkscape:window-height="837"
     id="namedview7762"
     showgrid="false"
     inkscape:zoom="1.2423817"
     inkscape:cx="270.10066"
     inkscape:cy="153.27092"
     inkscape:window-x="-8"
     inkscape:window-y="-8"
     inkscape:window-maximized="1"
     inkscape:current-layer="svg7760" />
  <metadata
     id="metadata7744">
Created by potrace 1.16, written by Peter Selinger 2001-2019
<rdf:RDF>
  <cc:Work
     rdf:about="">
    <dc:format>image/svg+xml</dc:format>
    <dc:type
       rdf:resource="http://purl.org/dc/dcmitype/StillImage" />
  </cc:Work>
</rdf:RDF>
</metadata>
  <path
     style="fill:#ffffff;stroke-width:0.804906"
     d="m 193.08126,14.081982 c -8.93303,0.110164 -14.58313,8.207896 -16.83542,16.022653 -2.49953,5.363631 -3.49895,12.105562 -6.53043,16.574453 -4.36438,0.475198 -9.17052,3.530942 -12.80303,-0.201226 -4.15099,-5.159527 -10.67084,-8.029535 -17.36206,-7.83997 -13.13859,0.289733 -27.08817,1.78806 -38.56159,8.692037 -4.821416,3.170966 -8.508581,7.755108 -11.504486,12.626957 -7.117459,-3.964059 -17.047865,-6.376222 -23.387854,0.364723 -6.992226,6.220761 -5.026196,16.669519 -1.490333,24.065421 -8.270525,9.213901 -9.680597,22.96784 -6.970609,34.59994 -4.729175,5.07906 -9.525521,12.35939 -9.147941,20.07862 -0.295091,4.78477 2.850031,9.02697 4.071703,13.12415 -1.510828,4.62664 -1.365206,10.75131 -3.865571,14.48224 -10.460803,4.16028 -22.850046,5.45612 -31.254738,13.53497 -7.215872,8.23852 -3.234822,22.39979 6.976897,26.13115 8.137421,3.69795 16.849505,5.90206 25.198892,9.05675 0.527923,5.71882 5.224365,11.83731 1.822042,17.42024 -5.94546,11.80424 3.083118,25.47714 13.831171,30.66344 4.641211,1.64941 5.803879,7.02019 8.932566,10.44334 -4.917464,10.98101 -11.655011,21.4255 -14.485157,33.19292 -0.636357,8.53082 6.892143,15.26399 14.491445,17.10268 6.700407,7.36327 18.347457,9.33632 27.226873,4.9379 7.58402,4.10025 16.80134,1.76958 23.73528,-2.4776 7.22385,6.55428 18.00026,7.57978 26.79928,3.89562 5.7649,-0.0261 11.00214,1.54402 16.56816,2.49647 4.45313,11.26682 6.67402,23.77419 13.59694,33.87206 8.13,9.09057 24.38546,3.96027 27.38954,-7.37877 3.39774,-8.72256 6.23345,-17.65918 9.35314,-26.47757 5.06517,-0.98946 10.31781,-3.38763 15.38124,-3.02626 11.41376,3.87842 25.60481,-0.3097 31.40547,-11.34571 2.84443,-3.67335 6.60412,-8.57582 11.43532,-8.82567 4.53893,0.0935 5.10463,5.96263 8.28373,8.19206 4.48196,6.13669 12.12359,8.88556 19.54072,7.58842 8.69252,-0.2303 20.22243,-1.40377 23.27762,-11.18056 2.87558,-9.04689 -3.82785,-17.35441 -5.90945,-25.48658 1.56516,-7.93368 2.35874,-17.06676 -3.43657,-23.6221 -1.90488,-2.06355 3.38181,-2.01843 4.30908,-3.37841 11.49805,-5.80294 15.13894,-20.56819 10.33643,-31.94783 0.0559,-4.79943 1.62976,-9.49925 2.6238,-13.97738 10.81116,-4.34201 22.63878,-6.62158 32.66628,-12.66625 9.41851,-6.92852 7.27176,-23.51866 -3.87518,-27.42811 -9.43505,-4.13074 -19.62328,-6.99512 -28.94202,-10.96369 -0.7428,-4.82301 -2.49534,-9.80955 -2.64266,-14.56533 6.90142,-12.47437 1.28703,-30.31011 -12.52949,-35.13288 -4.47658,-0.48898 -6.0998,-4.91506 -8.32103,-8.13709 4.35072,-10.518956 10.57282,-20.403337 13.45545,-31.559533 0.6886,-9.315365 -8.20114,-18.123664 -17.64662,-15.802561 -4.97473,0.570434 -9.94464,2.938082 -14.29179,4.593621 -3.03411,-10.25545 -14.13313,-16.027097 -24.02927,-17.541283 -11.86332,0.01664 -24.0156,-0.746601 -35.65951,1.88021 -5.18209,2.042437 -10.77725,-1.390205 -16.10161,-1.708976 -3.19851,-1.943054 -3.11491,-7.638063 -4.989,-11.102544 -2.97143,-8.420658 -5.56395,-19.682137 -15.97907,-21.485007 -1.36129,-0.306651 -2.76247,-0.432141 -4.15658,-0.374155 z m -34.59679,37.657636 c 0.035,0.238195 -0.0451,-0.209211 0,0 z M 118.45298,318.57369 c -0.0599,-0.0941 -0.13711,-0.33345 0,0 z"
     id="path8395"
     transform="scale(0.74999999)" />
  <g
     transform="matrix(0.1,0,0,-0.1,1.5,286)"
     fill="#000000"
     stroke="none"
     id="g7758">
    <path
       d="m 1409,2551 c -24,-73 -48,-135 -54,-136 -5,-2 -46,-10 -90,-18 -44,-9 -90,-19 -102,-23 -20,-5 -23,-3 -23,18 0,14 -12,35 -26,49 -22,20 -35,24 -82,22 -90,-3 -202,-30 -230,-55 -13,-13 -37,-49 -53,-80 -16,-32 -32,-58 -34,-58 -3,0 -41,18 -85,40 -44,22 -80,38 -80,35 0,-3 16,-38 36,-77 37,-74 38,-72 -9,-99 -27,-15 -47,-71 -47,-128 0,-44 4,-53 29,-72 28,-21 29,-23 14,-45 -8,-13 -23,-24 -33,-24 -28,0 -59,-32 -66,-66 -5,-24 0,-37 19,-59 21,-25 23,-33 14,-60 -6,-16 -18,-65 -26,-109 l -16,-79 -143,-45 c -78,-25 -142,-48 -142,-52 0,-3 65,-27 145,-53 80,-27 145,-50 145,-52 0,-15 30,-155 38,-175 8,-20 6,-31 -9,-49 -10,-13 -19,-33 -19,-46 0,-34 37,-75 68,-75 23,-1 36,-14 80,-83 l 54,-82 -71,-143 c -39,-78 -71,-144 -71,-147 0,-3 18,4 40,15 l 40,20 v -23 c 0,-32 30,-57 68,-57 51,0 132,97 132,157 0,26 10,35 26,23 9,-8 4,-24 -22,-67 -37,-62 -41,-84 -19,-103 20,-17 72,2 123,45 22,19 43,35 46,35 3,0 6,-11 6,-25 0,-59 78,-94 128,-59 21,15 29,15 85,1 34,-9 83,-19 109,-22 l 47,-7 52,-157 52,-156 52,155 52,155 39,9 c 21,5 69,16 106,26 57,14 70,15 79,4 15,-18 70,-18 94,0 11,8 24,27 30,44 14,42 142,128 167,113 10,-6 28,-11 40,-11 38,-1 67,-23 92,-70 21,-39 29,-45 61,-48 20,-2 43,2 50,8 10,8 19,8 34,0 26,-14 26,-3 1,35 -11,17 -20,37 -20,46 0,9 -9,27 -20,41 -10,14 -15,29 -11,34 5,5 12,30 15,55 7,49 2,60 -45,92 -23,16 -17,38 26,107 18,29 32,40 50,40 54,0 87,79 50,120 -13,14 -12,28 9,120 l 23,104 153,51 c 85,28 150,54 145,57 -6,3 -74,27 -153,53 -79,26 -145,52 -146,59 -2,6 -13,55 -24,109 l -21,99 21,28 c 35,48 -1,120 -60,120 -24,0 -35,11 -73,68 -24,37 -45,72 -47,79 -2,6 26,70 63,142 36,72 63,131 60,131 -3,0 -37,-16 -75,-35 -38,-19 -73,-35 -77,-35 -5,0 -22,23 -40,50 -20,30 -51,60 -80,77 -46,27 -53,28 -162,26 -90,-2 -117,-6 -132,-19 -17,-15 -23,-15 -81,-1 -35,8 -83,18 -109,22 l -45,7 -45,136 -46,137 z m -305,-153 c 12,-20 -10,-49 -59,-79 -24,-15 -30,-26 -31,-56 -1,-21 -5,-56 -9,-78 -5,-31 -3,-44 8,-53 13,-11 19,-8 37,18 12,16 27,30 33,30 21,0 147,-132 147,-154 0,-12 9,-27 21,-34 17,-11 20,-20 15,-45 -15,-74 -16,-72 45,-75 50,-3 62,-8 108,-47 29,-25 56,-45 59,-45 13,0 28,15 56,53 21,27 36,37 56,37 15,0 32,6 37,13 13,16 38,126 30,133 -3,3 10,19 29,36 34,30 104,149 104,178 0,24 77,124 103,133 98,37 254,-48 273,-150 8,-42 -11,-289 -27,-347 -6,-20 -21,-44 -36,-53 -25,-16 -26,-16 -44,6 l -18,22 -13,-20 c -14,-24 -34,-27 -41,-8 -3,6 -6,0 -6,-15 -1,-20 -9,-32 -30,-43 -16,-8 -32,-23 -36,-34 -9,-29 -45,-72 -56,-66 -5,4 -9,1 -9,-5 0,-12 -44,-105 -62,-131 -9,-14 -4,-27 27,-70 51,-71 112,-144 154,-183 49,-46 121,-136 121,-152 0,-28 -30,-13 -111,56 -45,39 -84,68 -88,65 -3,-4 17,-25 44,-48 78,-64 295,-281 295,-294 0,-17 -15,-16 -30,2 -7,8 -19,15 -27,15 -8,0 -49,31 -91,70 -80,72 -136,109 -149,97 -4,-4 17,-32 46,-61 29,-30 51,-59 47,-64 -12,-19 -67,6 -117,53 -46,43 -73,54 -69,30 2,-15 121,-163 135,-169 23,-8 145,-170 136,-179 -9,-9 -93,42 -108,66 -14,22 -146,141 -212,190 -48,37 -69,47 -87,43 -20,-5 -59,18 -104,64 -28,28 -114,100 -120,100 -10,0 -105,-120 -133,-168 -65,-113 -213,-256 -241,-233 -10,8 -25,-3 -66,-52 -60,-69 -143,-152 -178,-175 -57,-37 -31,31 44,120 90,106 190,234 164,210 -8,-6 -23,-12 -33,-12 -20,0 -20,8 -2,55 5,11 -31,-18 -78,-65 -96,-94 -117,-106 -117,-66 0,37 33,95 93,162 80,90 112,145 60,104 -23,-18 -29,-19 -41,-7 -11,11 -11,19 -3,35 16,30 13,41 -9,35 -13,-4 -20,0 -20,9 0,40 32,91 132,211 l 109,131 -55,55 c -41,42 -61,72 -78,121 l -23,65 h -43 c -23,0 -46,5 -50,10 -4,6 -32,30 -62,55 -30,25 -60,52 -67,60 -6,8 -13,13 -15,10 -2,-3 -8,-14 -14,-25 -26,-47 -106,-18 -138,50 -20,41 -14,71 15,80 27,9 24,22 -11,40 -36,19 -53,56 -45,99 10,51 26,75 59,86 39,13 113,84 145,138 14,23 40,57 59,77 29,30 41,35 81,36 25,0 55,4 66,9 33,15 107,7 119,-12 z m 966,-613 c 22,-59 -8,-145 -52,-145 -28,0 -27,50 4,123 23,53 34,58 48,22 z M 1819,885 c 33,-38 39,-59 19,-71 -13,-9 -88,68 -88,91 0,27 37,16 69,-20 z m 410,-65 c 61,-45 79,-100 37,-116 -16,-6 -105,58 -123,90 -35,62 15,77 86,26 z M 800,662 c 0,-26 -57,-120 -84,-137 -23,-15 -56,-11 -56,6 0,24 42,89 80,123 41,37 60,39 60,8 z m 1477,-34 c 31,-29 32,-71 1,-66 -26,4 -54,48 -45,71 8,22 16,21 44,-5 z"
       id="path7746" />
    <path
       d="m 1040,2036 c 0,-9 5,-16 10,-16 6,0 10,4 10,9 0,6 -4,13 -10,16 -5,3 -10,-1 -10,-9 z"
       id="path7748" />
    <path
       d="m 1807,1760 c -33,-37 -35,-54 -5,-44 25,8 44,29 51,57 8,27 -17,20 -46,-13 z"
       id="path7750" />
    <path
       d="m 1125,1220 c -65,-66 -69,-97 -4,-34 47,45 84,94 72,94 -5,0 -35,-27 -68,-60 z"
       id="path7752" />
    <path
       d="m 1669,1232 c 12,-23 71,-68 71,-54 0,5 -18,24 -41,42 -31,24 -38,27 -30,12 z"
       id="path7754" />
    <path
       d="m 1202,977 c -13,-14 -19,-28 -14,-31 12,-7 45,29 40,44 -2,6 -13,1 -26,-13 z"
       id="path7756" />
  </g>
</svg>
