<?xml version="1.0" encoding="UTF-8" standalone="no"?>
<svg
   xmlns:dc="http://purl.org/dc/elements/1.1/"
   xmlns:cc="http://creativecommons.org/ns#"
   xmlns:rdf="http://www.w3.org/1999/02/22-rdf-syntax-ns#"
   xmlns:svg="http://www.w3.org/2000/svg"
   xmlns="http://www.w3.org/2000/svg"
   xmlns:sodipodi="http://sodipodi.sourceforge.net/DTD/sodipodi-0.dtd"
   xmlns:inkscape="http://www.inkscape.org/namespaces/inkscape"
   version="1.0"
   width="571.18982pt"
   height="602.8197pt"
   viewBox="0 0 571.18982 602.8197"
   preserveAspectRatio="xMidYMid meet"
   id="svg8564"
   sodipodi:docname="samedi.svg"
   inkscape:version="1.0.1 (3bc2e813f5, 2020-09-07)">
  <defs
     id="defs8568" />
  <sodipodi:namedview
     pagecolor="#ffffff"
     bordercolor="#666666"
     borderopacity="1"
     objecttolerance="10"
     gridtolerance="10"
     guidetolerance="10"
     inkscape:pageopacity="0"
     inkscape:pageshadow="2"
     inkscape:window-width="1600"
     inkscape:window-height="837"
     id="namedview8566"
     showgrid="false"
     inkscape:zoom="0.8619211"
     inkscape:cx="380.70487"
     inkscape:cy="401.98014"
     inkscape:window-x="-8"
     inkscape:window-y="-8"
     inkscape:window-maximized="1"
     inkscape:current-layer="svg8564"
     fit-margin-top="0"
     fit-margin-left="0"
     fit-margin-right="0"
     fit-margin-bottom="0" />
  <metadata
     id="metadata8556">
Created by potrace 1.16, written by Peter Selinger 2001-2019
<rdf:RDF>
  <cc:Work
     rdf:about="">
    <dc:format>image/svg+xml</dc:format>
    <dc:type
       rdf:resource="http://purl.org/dc/dcmitype/StillImage" />
    <dc:title></dc:title>
  </cc:Work>
</rdf:RDF>
</metadata>
  <path
     style="fill:#ffffff;stroke-width:0.87015"
     d="m 296.499,0.00217893 c -11.27983,1.04460297 -23.21652,0.18610201 -33.88144,4.52749517 -6.42408,4.4500117 -14.82367,1.5844013 -21.81661,4.6668552 -13.85436,5.4274507 -28.26008,9.1907917 -42.362,13.8408117 -12.34245,4.924064 -23.92928,13.741273 -29.79921,25.868247 -5.28722,16.143913 -4.14781,33.512567 -5.78829,50.242628 -0.76032,20.356114 -4.31599,40.756984 -2.47813,61.126284 0.37084,3.10185 3.13414,5.79628 0.38579,8.72698 -4.94799,13.33531 -7.1208,27.52723 -12.05632,40.89021 -3.04266,13.79275 -3.0291,28.98104 2.69202,42.0391 -12.55367,10.84634 -11.22882,28.92999 -15.30132,43.49644 -2.37148,11.23835 -5.55345,22.52725 -6.189,33.97743 -6.25908,6.67987 -10.28528,16.43827 -14.2011,23.5977 -5.64322,-8.56995 -12.28833,-17.5132 -22.222797,-21.13171 -9.204028,-12.76372 -20.596752,-23.94381 -32.51163,-34.17036 -11.404444,-9.16846 -29.453535,-9.86325 -40.096547,0.90414 -12.8029074,12.13776 -14.4361408,30.82284 -17.8567317,47.14963 -3.53226091,21.21565 -4.2210587,43.15086 -0.6709416,64.40333 3.148396,13.13756 6.6523078,29.04769 19.8719863,35.67732 2.253514,1.44018 6.453084,0.18816 5.559099,4.08223 2.99751,13.48028 15.080307,22.12796 23.45834,32.2754 10.095236,10.7582 20.089752,22.26126 33.618515,28.76938 8.827523,6.25212 16.486677,16.39582 28.389817,16.20306 4.05261,0.44409 5.36714,5.95192 8.80517,8.11515 23.63151,22.2758 55.78278,30.88171 85.42047,41.97666 35.87113,13.35995 74.06314,19.95202 112.27351,20.81877 6.9702,1.63516 14.35866,2.15604 21.35929,0.24282 10.48246,7.24387 23.85192,4.21062 35.29713,1.47007 24.1187,-3.29692 50.30274,-0.26118 72.30567,-12.58487 14.71288,-8.28678 25.13898,-22.99463 28.89102,-39.38711 3.26248,-12.64247 7.31831,-25.28853 15.35009,-35.7983 9.07899,-12.89123 6.56864,-33.02058 -7.11701,-41.7358 -12.20754,-8.06322 -27.67241,-4.29816 -40.98369,-1.70121 -11.14406,1.92726 -18.61523,11.43349 -29.43382,14.17731 -7.25765,1.71012 -13.01049,6.53869 -19.30134,10.11379 -7.2411,2.34943 -15.15474,1.70666 -22.27718,4.62947 2.79406,-16.66366 9.76982,-32.33961 12.62906,-48.91701 9.59377,-11.35167 18.52698,-23.2059 28.09801,-34.59013 6.85368,-8.57567 12.05476,-18.32589 19.89957,-25.85636 12.04245,-6.28395 16.55467,-20.04639 20.94476,-31.92699 12.63009,-17.90926 28.12472,-33.71748 44.0734,-48.68927 9.95406,-10.49458 25.99466,-15.39666 31.58709,-29.69555 0.77174,-4.11402 6.77805,-2.82878 9.73627,-4.87293 13.38452,-4.53998 28.52558,-13.23993 30.3093,-28.72129 0.82781,-12.25652 -4.92927,-23.75306 -7.90923,-35.40014 -9.17566,-31.19897 -23.50155,-61.24577 -45.2551,-85.68583 C 507.45325,111.16997 496.41739,98.885941 482.16199,91.439228 474.91504,75.01464 460.61221,63.264918 445.86726,53.764246 437.20237,48.177452 426.82063,45.10228 416.48781,46.407307 413.10951,33.949178 403.7301,23.206679 391.0836,19.699623 362.59338,9.385635 332.19268,6.6196671 302.7199,0.36065419 300.65775,0.09656118 298.57765,-0.01757232 296.499,0.00217893 Z"
     id="path9138" />
  <g
     transform="matrix(0.1,0,0,-0.1,9.528652,592.9851)"
     fill="#000000"
     stroke="none"
     id="g8562">
    <path
       d="m 2768,5668 c -21,-6 -38,-14 -38,-19 0,-5 -7,-9 -15,-9 -8,0 -15,4 -15,9 0,11 -38,21 -55,14 -8,-2 -19,-29 -25,-59 -6,-29 -16,-57 -22,-60 -5,-3 -22,2 -36,13 -82,61 -130,65 -222,18 -26,-13 -69,-30 -96,-36 -27,-7 -51,-15 -54,-19 -3,-4 -34,-12 -69,-19 -137,-27 -187,-48 -248,-107 l -58,-55 -8,-132 c -5,-73 -10,-170 -12,-217 -2,-73 -11,-192 -32,-430 -3,-30 -6,-84 -6,-120 l -2,-65 50,-8 c 28,-5 57,-13 65,-18 8,-5 23,-12 33,-16 26,-8 16,-24 -34,-50 -24,-13 -56,-36 -70,-51 -28,-30 -69,-119 -69,-151 0,-12 -4,-21 -10,-21 -5,0 -10,-18 -10,-41 0,-56 -27,-157 -52,-191 -23,-33 -42,-150 -36,-218 6,-59 57,-163 108,-220 22,-25 40,-48 40,-51 0,-4 -17,-14 -39,-22 -21,-9 -49,-29 -62,-44 -14,-16 -42,-38 -64,-49 l -40,-19 -7,-75 c -3,-41 -22,-138 -42,-215 -20,-77 -39,-161 -42,-187 -4,-27 -10,-48 -15,-48 -5,0 -9,-6 -9,-14 0,-13 73,-43 185,-77 22,-6 42,-15 45,-19 3,-4 73,-26 155,-49 228,-62 270,-74 275,-81 3,-4 26,-12 52,-19 26,-8 55,-22 64,-32 9,-11 22,-19 28,-19 6,0 32,-20 58,-45 32,-29 66,-50 104,-62 55,-17 57,-17 92,4 20,11 41,29 47,38 5,10 25,41 43,69 17,28 32,55 32,61 0,6 8,20 18,31 30,33 50,69 62,112 6,24 27,59 50,83 51,54 56,69 23,69 -38,0 -19,13 29,19 45,7 40,-3 78,148 6,23 16,48 23,55 16,17 47,82 47,100 0,7 14,51 31,98 17,47 35,98 40,114 5,16 12,32 17,35 4,3 22,26 40,50 19,28 32,38 32,28 0,-22 -61,-230 -69,-237 -7,-5 -21,-64 -57,-237 -9,-43 -23,-103 -31,-133 -8,-30 -18,-70 -23,-89 -5,-19 -17,-39 -27,-44 -30,-17 -132,-128 -156,-170 -12,-21 -50,-61 -85,-88 -86,-69 -108,-127 -73,-199 16,-33 18,-47 10,-57 -7,-8 -16,-10 -23,-4 -6,4 -35,16 -64,26 -29,9 -58,23 -66,30 -7,7 -69,39 -137,70 -68,31 -126,60 -129,65 -11,18 -142,52 -183,48 -36,-4 -47,0 -82,29 -22,19 -50,36 -62,39 -13,4 -23,10 -23,14 0,12 -74,38 -160,55 -60,13 -88,14 -150,4 -137,-20 -147,-24 -169,-75 -11,-24 -27,-51 -35,-59 -13,-13 -93,-250 -112,-330 -4,-16 -11,-33 -16,-36 -17,-11 -22,-114 -6,-130 7,-8 35,-41 60,-74 26,-33 75,-89 110,-125 61,-63 64,-65 113,-64 27,0 62,3 78,7 l 27,7 v -69 c 0,-68 0,-69 34,-85 19,-9 42,-16 51,-16 22,0 58,-19 68,-36 4,-8 14,-14 21,-14 7,0 24,-11 38,-24 25,-26 128,-87 191,-113 20,-9 37,-19 37,-24 0,-8 249,-109 268,-109 6,0 17,-6 24,-13 17,-17 306,-117 339,-117 16,0 41,16 72,46 37,35 53,45 74,42 26,-3 28,-7 35,-67 4,-36 13,-70 21,-78 24,-24 339,-69 424,-60 88,9 107,28 115,118 6,77 53,270 67,279 15,9 52,141 58,204 l 5,61 -93,98 c -52,53 -99,97 -105,97 -6,0 -22,11 -35,24 -23,22 -233,136 -251,136 -5,0 -26,16 -46,35 -39,36 -81,46 -100,22 -6,-7 -17,-31 -24,-52 -7,-21 -19,-40 -25,-43 -15,-4 -33,38 -33,79 0,23 -12,42 -54,83 -52,50 -53,53 -40,79 14,25 16,26 47,13 17,-8 57,-24 87,-36 30,-13 57,-25 60,-29 3,-4 39,-20 80,-36 41,-16 101,-44 132,-62 31,-18 61,-33 67,-33 6,0 11,-4 11,-8 0,-11 86,-52 109,-52 20,0 40,20 60,62 31,62 62,34 43,-39 -24,-88 -12,-122 56,-157 16,-8 32,-22 35,-31 4,-8 13,-15 20,-15 8,0 22,-9 32,-20 32,-35 63,-26 84,24 11,24 30,54 43,68 41,43 131,147 147,171 9,12 27,34 41,49 14,14 39,52 55,84 17,31 42,69 58,85 15,15 27,32 27,37 0,13 89,92 104,92 38,1 80,79 92,169 5,39 14,58 40,83 19,18 34,38 34,43 0,6 26,38 58,72 31,34 64,74 73,89 24,40 384,396 421,418 18,10 54,29 80,43 26,13 52,31 58,38 21,25 23,117 5,185 -35,129 -31,147 17,86 15,-19 49,-46 75,-61 62,-34 105,-29 217,28 44,22 82,41 84,43 2,1 -6,29 -18,63 -11,33 -20,72 -20,86 0,14 -4,25 -10,25 -5,0 -10,7 -10,16 0,29 -107,355 -120,364 -4,3 -24,43 -44,90 -34,78 -71,147 -86,160 -6,6 -79,114 -95,141 -6,9 -24,30 -40,46 -17,16 -66,69 -110,118 -111,123 -131,140 -177,156 -32,10 -46,10 -71,0 -71,-28 -67,-32 -67,61 0,70 -4,90 -20,111 -11,14 -20,30 -20,35 0,5 -33,39 -72,73 -40,35 -80,72 -88,81 -27,31 -146,88 -183,88 -41,0 -47,-7 -64,-70 -6,-25 -19,-65 -28,-89 -9,-24 -13,-51 -10,-59 3,-8 0,-76 -6,-151 -6,-80 -7,-152 -2,-176 10,-44 -4,-188 -18,-193 -5,-2 -9,-14 -9,-27 0,-27 -41,-191 -72,-287 -21,-65 -64,-128 -89,-128 -7,0 -9,10 -6,28 11,53 42,157 49,162 13,10 39,237 43,375 6,218 -22,581 -46,596 -6,3 -12,33 -14,65 -4,84 -15,134 -36,169 -23,39 -42,50 -112,65 -31,7 -57,16 -57,20 0,8 -105,35 -245,64 -62,12 -201,33 -347,51 -27,4 -48,10 -48,14 0,11 -104,31 -154,30 -23,-1 -58,-6 -78,-11 z"
       id="path8558" />
    <path
       d="m 282,2753 c -32,-32 -52,-92 -82,-243 -54,-269 -58,-525 -9,-687 35,-119 38,-123 73,-123 17,1 42,7 56,15 35,20 80,19 96,-2 9,-13 13,-53 14,-134 v -116 l 48,-45 c 26,-24 68,-70 95,-101 26,-31 61,-68 78,-84 17,-15 51,-53 76,-83 34,-41 60,-61 101,-77 30,-13 63,-30 72,-38 9,-8 21,-15 26,-15 11,0 42,-31 79,-76 32,-41 65,-47 143,-26 l 63,17 19,-25 c 18,-24 33,-67 35,-102 1,-20 43,-68 60,-68 6,0 25,-15 43,-34 18,-19 80,-58 140,-88 59,-29 108,-56 110,-60 2,-4 83,-33 180,-64 97,-31 179,-60 182,-63 12,-16 230,-89 330,-112 30,-6 57,-15 60,-19 14,-21 649,-110 685,-96 7,2 28,27 46,54 28,44 34,48 47,36 8,-8 19,-34 24,-57 10,-45 21,-57 54,-57 28,0 70,56 79,103 4,20 10,37 14,37 4,0 24,-24 45,-52 76,-110 85,-117 139,-111 26,3 47,10 47,14 0,5 13,9 29,9 16,0 42,5 58,11 16,7 103,13 208,14 135,2 199,7 255,20 41,11 79,18 84,16 18,-4 121,53 141,79 10,14 33,39 50,55 26,25 36,49 58,140 36,148 76,275 86,275 5,0 17,22 29,49 11,27 37,67 57,90 32,35 36,44 27,68 -10,31 0,30 -142,14 -100,-11 -103,-13 -178,-77 -33,-29 -62,-42 -130,-59 -67,-17 -96,-30 -122,-55 -19,-18 -63,-45 -97,-61 -53,-24 -75,-29 -143,-29 -78,0 -80,-1 -80,-24 0,-13 -5,-26 -11,-28 -6,-2 -13,-25 -16,-50 -4,-34 -10,-48 -24,-51 -21,-6 -29,0 -29,24 0,22 -47,79 -65,79 -8,0 -20,6 -27,14 -37,37 -77,45 -259,56 -101,6 -200,16 -219,21 -29,8 -189,30 -392,56 -27,3 -48,9 -48,13 0,3 -30,12 -67,20 -39,7 -105,32 -153,57 -98,50 -127,52 -150,8 -8,-16 -18,-32 -21,-35 -3,-3 -10,-18 -16,-34 -12,-37 -37,-55 -59,-41 -8,6 -25,28 -37,50 -12,22 -25,42 -28,45 -3,3 -16,37 -28,75 -28,85 -34,93 -77,101 -19,3 -41,13 -49,20 -23,24 -105,84 -113,84 -4,0 -23,14 -42,32 -19,17 -53,39 -75,49 -40,18 -108,81 -118,110 -2,8 -30,33 -61,54 -51,35 -64,39 -119,39 l -62,1 -10,63 c -10,60 -12,64 -85,131 -41,38 -78,73 -83,77 -18,21 -78,113 -102,157 -14,26 -34,56 -45,67 -11,11 -33,47 -50,81 -18,34 -52,82 -77,108 -46,46 -113,141 -113,160 0,21 -45,51 -75,51 -31,0 -75,-34 -75,-57 0,-6 -9,-13 -20,-16 -16,-4 -21,1 -26,30 -6,32 -1,93 11,138 4,16 -26,52 -139,168 -80,81 -152,147 -161,147 -8,0 -28,-12 -43,-27 z"
       id="path8560" />
  </g>
</svg>
