<?xml version="1.0" encoding="UTF-8" standalone="no"?>
<svg
   xmlns:dc="http://purl.org/dc/elements/1.1/"
   xmlns:cc="http://creativecommons.org/ns#"
   xmlns:rdf="http://www.w3.org/1999/02/22-rdf-syntax-ns#"
   xmlns:svg="http://www.w3.org/2000/svg"
   xmlns="http://www.w3.org/2000/svg"
   xmlns:sodipodi="http://sodipodi.sourceforge.net/DTD/sodipodi-0.dtd"
   xmlns:inkscape="http://www.inkscape.org/namespaces/inkscape"
   version="1.0"
   width="322.935pt"
   height="299.21085pt"
   viewBox="0 0 322.935 299.21085"
   preserveAspectRatio="xMidYMid meet"
   id="svg6112"
   sodipodi:docname="ventrue.svg"
   inkscape:version="1.0.1 (3bc2e813f5, 2020-09-07)">
  <defs
     id="defs6116" />
  <sodipodi:namedview
     pagecolor="#ffffff"
     bordercolor="#666666"
     borderopacity="1"
     objecttolerance="10"
     gridtolerance="10"
     guidetolerance="10"
     inkscape:pageopacity="0"
     inkscape:pageshadow="2"
     inkscape:window-width="1600"
     inkscape:window-height="837"
     id="namedview6114"
     showgrid="false"
     fit-margin-top="0"
     fit-margin-left="0"
     fit-margin-right="0"
     fit-margin-bottom="0"
     inkscape:zoom="1.2873955"
     inkscape:cx="102.70106"
     inkscape:cy="132.28674"
     inkscape:window-x="-8"
     inkscape:window-y="-8"
     inkscape:window-maximized="1"
     inkscape:current-layer="svg6112" />
  <metadata
     id="metadata6106">
Created by potrace 1.16, written by Peter Selinger 2001-2019
<rdf:RDF>
  <cc:Work
     rdf:about="">
    <dc:format>image/svg+xml</dc:format>
    <dc:type
       rdf:resource="http://purl.org/dc/dcmitype/StillImage" />
    <dc:title></dc:title>
  </cc:Work>
</rdf:RDF>
</metadata>
  <path
     id="path6689"
     style="fill:#ffffff;stroke-width:0.145643"
     d="m 228.54913,99.194752 c -2.89232,0.227977 -4.86696,2.684278 -6.58892,4.753308 -1.61558,1.90947 -0.95012,5.17396 1.3802,6.17104 1.7405,0.74035 3.74139,0.28114 5.45791,-0.30693 2.43906,-0.91834 4.32742,-3.25123 4.34595,-5.91077 0.18592,-2.55044 -1.99062,-4.909516 -4.59514,-4.706648 z M 286.112,56.472007 c -1.66599,0.197586 -3.17531,1.131886 -4.90546,1.060424 -2.37032,-0.297365 -4.86035,1.17214 -5.30333,3.608501 -0.54783,2.81354 -1.68138,6.013742 0.0736,8.640287 1.49516,2.725618 5.02879,2.800227 7.7448,2.494572 4.92652,-0.778208 8.45248,-5.985627 7.9383,-10.824697 -0.44338,-2.641373 -2.75367,-5.064589 -5.54793,-4.979087 z m -5.02333,-6.138876 c -2.87702,0.167131 -5.526,1.722555 -7.72026,3.495861 -1.86904,1.429962 -2.36166,4.499306 -0.42803,6.066722 1.89766,1.459156 4.50498,1.314841 6.7962,1.393661 2.89562,-0.131848 6.53226,-0.176889 8.26536,-2.918983 1.68136,-2.638107 -0.13959,-6.081595 -2.7987,-7.209357 -1.27008,-0.632469 -2.70638,-0.854974 -4.11457,-0.827904 z m 11.03308,-12.972096 c -2.98761,0.291489 -4.76345,3.168419 -6.08216,5.5624 -1.32903,2.19487 -0.80094,5.078691 1.06928,6.786154 1.74822,1.696786 4.27659,3.772205 6.84034,2.597534 2.77677,-1.317591 2.71779,-4.835574 2.84391,-7.464373 0.0469,-2.492002 0.06,-5.702073 -2.5107,-7.015467 -0.66437,-0.342096 -1.41418,-0.503955 -2.16067,-0.466248 z m -12.76071,1.789514 c -2.27724,-0.01116 -4.22409,1.954448 -4.38973,4.189602 -0.38924,2.617231 1.07882,5.38039 3.52599,6.428952 2.80627,1.335315 6.80908,-0.399295 7.25586,-3.6035 0.37735,-2.542941 -1.4414,-4.795923 -3.42284,-6.144509 -0.87441,-0.580192 -1.91671,-0.904838 -2.96928,-0.870545 z m 1.019,-11.197616 c -1.79,0.08187 -3.68204,0.241941 -5.26884,1.139321 -1.69694,1.032086 -2.24874,3.405318 -1.28057,5.118833 0.90903,1.58109 1.85741,3.229268 3.28546,4.399796 1.46374,1.12749 3.52971,0.97922 5.04467,0.03701 1.83427,-0.999702 3.46005,-2.345791 5.03191,-3.708506 1.48952,-1.455526 1.43434,-4.146914 -0.19282,-5.475562 -1.34469,-1.204117 -3.27338,-1.240929 -4.97406,-1.456583 -0.54755,-0.04062 -1.09667,-0.06168 -1.64575,-0.05431 z m -12.05469,7.520526 c -1.79483,0.397765 -3.03984,2.165149 -2.95152,3.979116 -0.0406,1.000218 -0.0251,2.138716 -0.83298,2.869794 -1.41,1.682013 -1.1126,4.010724 -0.7392,6.004914 0.27139,2.027348 2.3133,3.621735 4.34894,3.254201 1.93716,-0.258784 3.05808,-2.053962 4.07,-3.531389 1.57611,-2.509345 2.30358,-5.647296 1.66938,-8.567259 -0.47581,-1.686204 -1.82259,-3.079636 -3.37755,-3.814471 -0.68271,-0.311271 -1.459,-0.308741 -2.18707,-0.194906 z m -6.13727,-3.470316 c -1.9853,-0.072 -4.01273,0.315373 -5.69253,1.419867 -2.88794,1.791787 -4.95644,5.125156 -4.67838,8.590202 0.0743,1.952174 1.09157,3.944939 2.83269,4.903256 1.61676,1.584291 4.08319,1.782773 6.19861,1.331363 2.6632,-0.548872 5.22799,-1.947944 6.96021,-4.06765 1.37543,-1.776094 1.44485,-4.208615 1.11105,-6.338066 -0.45331,-2.797069 -2.60403,-5.52405 -5.56039,-5.80176 -0.38911,-0.03865 -0.78062,-0.04012 -1.17126,-0.03721 z m -6.15396,15.231735 c -0.24343,-0.02383 -0.20394,-0.03545 0,0 z m 1.43295,1.073497 c -0.0323,-0.0045 -0.18893,-0.05265 0,0 z m 0.008,0.002 c 0.0463,0.01135 -0.0178,-0.0039 0,0 z m -39.64015,39.261932 c -3.92112,0.278145 -7.43231,4.066642 -6.80738,8.076352 0.19506,2.491215 3.03389,4.272158 5.34612,3.265425 1.97406,-0.946695 3.44837,-2.710935 4.73253,-4.43796 1.41468,-1.851097 1.28192,-4.861642 -0.77909,-6.19059 -0.72334,-0.50463 -1.61494,-0.737355 -2.49218,-0.713227 z M 214.79505,77.20572 c -7.08398,-0.22633 -14.1551,5.207731 -14.18083,12.594697 -0.16999,4.243537 0.18704,10.223243 4.66626,12.122493 4.31833,0.71376 7.00846,-4.107791 6.95558,-7.765721 0.79765,-2.598135 2.05713,-6.008497 5.43885,-5.37855 3.5414,0.116318 9.26978,-0.686857 8.76019,-5.485501 -1.21422,-4.684322 -7.4959,-6.03016 -11.64005,-6.087418 z m 21.78272,19.068982 c -4.91792,1.063957 -3.93891,7.093958 -5.0884,10.746848 -3.9739,3.32449 -10.73792,2.30191 -13.36347,7.11611 -0.96794,5.02519 5.52845,6.30686 9.30367,6.93843 8.03128,1.12234 16.23933,-5.73388 15.54283,-14.04658 -0.0609,-4.03754 -0.937,-11.069501 -6.39463,-10.754808 z M 12.342332,0.20273156 C 4.0471756,1.6560156 -1.7490173,10.561285 0.48050317,18.720694 3.5812885,27.068722 8.940193,34.452962 13.042904,42.355021 c 5.403167,8.781485 9.583596,18.40801 15.923101,26.548099 31.407563,31.36881 63.146978,62.53217 94.147985,94.1477 -2.92167,2.0418 -7.05285,1.77069 -10.01636,4.078 -7.51,4.91927 -14.149957,11.47861 -18.981367,19.05192 -1.5792,3.26456 -2.25855,6.92829 -5.410627,9.19748 -9.849046,9.82813 -19.431893,19.597 -29.94646,28.74249 -5.292949,0.88695 -8.944728,5.05459 -13.295603,7.67014 -6.985814,0.60173 -14.591427,2.41331 -18.739246,8.64765 -2.748409,3.58538 -3.447514,8.28539 -7.008824,11.3225 -4.931469,4.57998 -8.009904,11.14143 -6.678043,17.94393 0.671783,3.0424 -0.09386,5.75931 -1.546229,8.43564 -3.8764379,9.1919 3.349686,20.64318 13.37861,20.84518 3.660967,0.69992 6.85957,-1.81273 10.230331,-2.10504 6.658137,0.87821 14.251004,1.67286 19.535327,-3.40543 3.485399,-2.84409 7.016268,-5.76111 11.569669,-6.48236 8.254882,-3.08918 11.473782,-12.04497 12.533253,-20.04865 3.413881,-3.77774 6.483282,-7.8863 8.929732,-12.33186 10.162508,-11.23836 21.474377,-21.41614 33.049557,-31.16871 10.64942,-1.51221 18.20771,-10.17519 25.16778,-17.61141 2.81722,-3.01614 4.16813,-7.02888 5.24883,-10.83447 1.75864,-3.68892 3.7652,-2.40037 5.72568,0.26063 9.63562,9.43263 19.0824,18.81682 28.44351,28.39461 -0.73771,9.2846 7.47815,15.25645 13.51862,20.88724 6.1558,5.59527 15.32211,6.33676 23.02295,4.00518 6.17012,5.87109 12.58927,11.78248 18.41699,17.83556 -2.44812,18.12673 15.43861,35.3311 33.4205,32.52843 3.38287,-0.47134 6.38204,-2.78069 9.82066,-1.43481 12.23106,1.33204 23.15868,-11.96811 19.49566,-23.70907 4.00294,-10.23712 1.67374,-22.69778 -6.68479,-30.09802 -6.18069,-6.69226 -15.40887,-10.49922 -24.52261,-9.16298 -4.83407,-3.5208 -7.84551,-9.00433 -13.03618,-12.11225 -1.21295,-2.55974 -4.25883,-4.39754 -5.28069,-6.61765 2.27994,-7.1626 1.4252,-15.40603 -3.77192,-21.12391 -5.4122,-7.04198 -12.55883,-15.28362 -22.40739,-14.23204 -8.74174,-8.11727 -17.78565,-17.16311 -26.45467,-25.85162 6.63459,-5.19742 13.52234,-11.19714 16.43489,-19.35343 0.0912,-3.40179 4.5288,-1.75989 6.62676,-3.26331 4.29592,-1.03061 6.38511,-5.5277 10.7514,-6.20234 6.50997,-2.31405 12.88054,-6.93433 14.61093,-13.97148 8.66904,-0.36889 16.00263,-5.2681 22.56297,-10.48105 2.88291,-3.226381 5.50044,-1.923593 8.50398,0.12205 6.64131,2.97129 13.53117,-0.66097 18.8385,-4.644491 5.88549,-2.865405 12.36717,-5.72871 15.36533,-12.023503 2.73304,-5.653986 8.61706,-10.050682 8.38225,-16.914655 0.31439,-6.712988 -3.70431,-12.590345 -7.33203,-17.888306 5.29064,-4.034761 8.21386,-11.153615 5.93267,-17.60686 2.78145,-7.091069 -1.16738,-14.587347 -6.74167,-19.068978 C 310.03437,7.7287073 302.8325,3.063783 295.25023,5.0305656 288.98617,2.2561341 281.66362,4.3966118 276.9254,9.084672 270.66468,3.7872851 262.54023,-2.1798024 253.92414,1.1725776 c -4.77095,1.7327908 -8.08528,5.9882279 -13.07949,7.2988013 -6.7993,2.9070331 -8.77104,10.3973021 -12.97003,15.7416001 -6.03408,5.344312 -8.04825,15.247408 -2.5041,21.628702 -2.75333,5.430704 -8.66889,9.655969 -11.60635,15.39111 -1.72266,3.083906 -2.68366,6.569886 -2.86393,10.093735 -8.10505,1.892317 -13.61124,9.369023 -15.95131,16.974228 -4.32756,3.043635 -6.75777,8.299155 -7.94436,13.050966 -9.8018,2.06188 -16.97595,9.9345 -22.89893,17.49194 C 134.28497,90.118507 105.2693,60.543604 74.821996,32.477423 65.039147,23.921618 53.021955,18.511781 41.916422,11.927372 33.868211,7.9253188 26.30637,2.4423417 17.52841,0.19972481 c -1.726555,-0.401679 -3.445693,-0.088551 -5.186078,0.003 z M 281.70772,31.680939 c 9.25525,0.41589 14.94947,12.197711 9.46003,19.694177 -1.31224,2.420672 -3.93927,5.002495 -6.13755,2.014578 2.48304,1.870731 1.76964,2.826824 -1.27438,0.608742 -2.98563,-1.396808 -0.35114,-0.290448 0.87727,1.160591 2.29534,2.521809 -4.57085,2.542587 -6.37107,2.46735 -8.79306,-0.270369 -13.70311,-10.95972 -9.63154,-18.317308 1.27861,-1.232344 3.51303,4.992301 3.49439,4.495503 -0.32426,-2.316179 -1.51558,-4.655758 -2.17099,-6.689333 2.59434,2.977434 2.84165,3.815736 0.78738,-0.118335 0.53376,-2.822159 4.7203,-4.439726 7.4685,-5.111583 1.14771,-0.253719 2.32917,-0.276783 3.49796,-0.204382 z m -19.73234,4.04159 c 3.26967,-0.613059 3.9423,3.871652 3.0824,6.093107 -2.06239,2.416504 -7.5223,4.707744 -9.37576,0.96147 -1.13217,-3.583316 2.6496,-7.549179 6.29336,-7.054577 z m 21.8965,23.907053 c 2.54563,-0.157899 5.05124,1.219746 4.04842,4.063209 -0.64862,3.271401 -3.54339,5.671443 -6.96128,4.952996 -3.37377,0.56197 -2.0663,-4.077964 -1.67717,-5.964532 0.48398,-2.612515 2.10034,-3.367834 4.59003,-3.051673 z m -66.81481,21.107976 c 6.20895,0.781747 10.9199,6.305821 12.22717,11.922241 9.67272,2.321573 14.25855,16.596731 6.31157,23.209561 -8.00593,5.15 -19.81538,-0.83684 -20.51175,-10.31448 -9.5723,-1.63746 -14.98995,-14.889518 -8.3335,-22.262879 2.85468,-2.292956 6.72637,-3.092844 10.30651,-2.554443 z m 8.66006,11.380629 c 0.24961,4.2e-4 -0.22806,-0.0084 0,0 z m -0.90116,0.01365 c 0.0585,0.0075 0.32068,-0.0255 0,0 z m 1.87287,0.0387 c 0.24159,0.01748 -0.20409,-0.02475 0,0 z m -2.96064,0.06488 c 0.13196,0.0067 0.67792,-0.112703 0,0 z m 4.26232,0.116062 c 0.20538,0.03338 -0.20331,-0.0435 0,0 z m -5.32279,0.08761 c 0.1583,-0.01252 0.71232,-0.184657 0,0 z m -0.80103,0.227565 c 0.16444,-0.0258 0.7456,-0.25632 0,0 z m -0.66336,0.244635 c 0.16845,-0.04147 0.76591,-0.32256 0,0 z m -0.54048,0.244635 c 0.16561,-0.0522 0.77181,-0.384607 0,0 z m -0.49723,0.265118 c 0.1603,-0.0606 0.76801,-0.446003 0,0 z m 8.96045,-0.07624 c 0.0257,0.193388 -0.0207,-0.236332 0,0 z m -9.51913,0.42327 c 0.16052,-0.07027 0.73438,-0.50301 0,0 z m -0.5928,0.430103 c 0.15564,-0.08188 0.69069,-0.55512 0,0 z m 10.17224,0.02962 c 0.013,0.268447 -2.3e-4,-0.203273 0,0 z m -10.78895,0.494955 c 0.15639,-0.104453 0.62323,-0.587168 0,0 z m -0.40393,0.399382 c 0.0692,-0.05595 0.29179,-0.308137 0,0 z m -0.42897,0.466515 c 0.0685,-0.06608 0.2683,-0.3132 0,0 z m -0.17864,0.210495 c -0.45735,0.576705 0.42549,-0.521332 0,0 z m 11.77545,-0.117195 c -0.009,0.2049 0.0193,-0.199747 0,0 z m -12.135,0.608745 c 0.0765,-0.0872 0.36037,-0.537795 0,0 z m -0.29129,0.45741 c 0.0683,-0.08044 0.29273,-0.502027 0,0 z m 12.24083,0.420998 c -0.0302,0.203617 0.0455,-0.22587 0,0 z m -12.61973,0.258285 c 0.057,-0.0735 0.22817,-0.466463 0,0 z m -0.48016,1.044532 c 0.0492,-0.06915 0.1601,-0.434302 0,0 z m 12.82908,-0.108097 c -0.0549,0.224182 0.0699,-0.233333 0,0 z m -0.34248,1.071847 c -0.0821,0.240068 0.092,-0.233317 0,0 z m -12.9975,0.546158 c 0.0424,-0.06547 0.088,-0.39837 0,0 z m 12.5947,0.418725 c -0.23495,0.53067 0.2405,-0.480435 0,0 z m -0.52454,0.9956 c -0.27107,0.48794 0.35349,-0.58118 0,0 z m -12.46157,0.58371 c 0.0307,-0.065 0.024,-0.36548 0,0 z m 12.07926,0.0159 c -0.3502,0.52768 0.40907,-0.57496 0,0 z m -0.31974,0.43238 c -0.7599,0.92181 0.34557,-0.39767 0,0 z m -0.28332,0.34476 c -0.84618,0.85099 -0.0343,0.0275 0,0 z m -0.41189,0.41189 c -0.72855,0.59479 -0.37585,0.33151 0,0 z m -0.77714,0.60306 c -0.57496,0.40907 0.52768,-0.3502 0,0 z m -0.59964,0.38232 c -0.58118,0.35348 0.48794,-0.27108 0,0 z m -9.77059,0.22074 c 0.0236,-0.063 -0.0417,-0.33389 0,0 z m 8.77499,0.30379 c -0.48044,0.2405 0.53067,-0.23495 0,0 z m -0.96489,0.4028 c -0.23331,0.092 0.24007,-0.0821 0,0 z m -1.07184,0.34249 c -0.23334,0.0699 0.22418,-0.0549 0,0 z m -1.19473,0.2708 c -0.22587,0.0454 0.20362,-0.0302 0,0 z m -4.28394,0.0944 c -0.0925,-0.0353 -0.4139,-0.0406 0,0 z m 2.80021,0.091 c -0.2079,0.019 0.19686,-0.009 0,0 z m -1.67831,0.0194 c 0.49335,0.0434 0.10411,-0.0161 0,0 z" />
  <g
     transform="matrix(0.1,0,0,-0.1,10.590698,285.77)"
     fill="#000000"
     stroke="none"
     id="g6110">
    <path
       d="m 32,2720 c 2,-5 59,-107 128,-227 l 125,-218 275,-275 c 151,-152 389,-387 528,-524 291,-284 272,-241 149,-347 -55,-48 -74,-59 -103,-59 -31,0 -46,-10 -104,-66 C 975,951 960,930 955,898 949,864 930,841 807,721 565,486 543,468 523,474 c -13,4 -28,-4 -49,-25 -35,-38 -81,-59 -129,-59 -49,0 -75,-16 -75,-45 0,-14 -20,-46 -51,-82 l -51,-58 6,-60 c 5,-50 2,-66 -15,-94 -24,-40 -20,-48 15,-26 21,14 39,16 94,10 l 68,-7 59,46 c 37,30 69,46 86,46 31,0 49,23 49,64 0,44 30,104 67,132 24,18 33,32 30,45 -5,19 121,148 316,322 86,75 104,87 135,87 32,0 48,10 110,68 62,58 72,73 72,101 0,29 12,46 84,119 l 84,86 246,-239 c 135,-131 246,-243 246,-248 0,-6 -8,-19 -17,-29 -16,-18 -14,-21 27,-63 64,-66 88,-72 160,-46 68,25 90,19 115,-28 8,-16 30,-38 48,-49 19,-11 42,-33 52,-49 9,-16 30,-36 46,-45 16,-10 34,-28 40,-42 7,-15 26,-30 45,-36 38,-13 39,-15 19,-50 -44,-78 20,-191 117,-206 27,-5 49,0 83,16 34,17 49,20 58,11 36,-36 91,10 63,54 -14,21 -13,26 5,61 25,50 24,93 -4,135 -48,71 -126,98 -191,64 -37,-19 -33,-21 -50,20 -9,20 -26,39 -39,44 -14,5 -34,25 -46,44 -12,19 -34,40 -50,47 -17,7 -35,25 -42,42 -8,19 -25,36 -45,44 -52,22 -59,45 -34,116 12,34 18,69 14,81 -8,24 -92,117 -107,117 -6,0 -19,-7 -28,-16 -17,-16 -23,-12 -96,54 -43,39 -151,144 -241,235 l -163,164 34,30 c 21,19 51,33 78,37 36,6 55,18 102,64 37,36 57,65 57,80 0,61 54,112 120,112 33,0 42,4 52,24 7,17 22,27 48,31 20,3 51,15 68,25 28,17 32,25 32,65 0,55 16,65 111,70 65,4 72,7 127,51 59,49 143,94 175,94 23,0 59,-19 74,-39 8,-11 16,-13 26,-6 8,6 26,18 41,29 14,10 43,24 63,31 27,9 40,21 46,41 5,16 23,44 40,61 30,32 30,33 15,65 -32,66 -78,118 -127,143 -61,30 -67,39 -47,70 21,32 32,31 60,-1 l 23,-27 47,45 47,46 -25,20 c -32,25 -32,28 0,55 l 25,22 -40,43 c -22,23 -45,42 -50,42 -5,0 -18,-12 -29,-26 l -19,-27 -22,32 -23,31 -48,-42 -48,-43 26,-28 27,-29 -24,-19 c -13,-10 -27,-19 -32,-19 -4,0 -22,27 -40,60 -23,44 -49,73 -92,105 -32,25 -65,45 -71,45 -7,0 -23,-11 -36,-25 -13,-14 -41,-30 -61,-35 -31,-9 -40,-17 -49,-47 -7,-19 -28,-52 -46,-73 l -34,-37 25,-23 c 51,-48 26,-126 -75,-233 -57,-62 -60,-67 -60,-116 0,-28 -7,-68 -15,-87 -14,-34 -17,-36 -50,-30 -19,4 -44,2 -55,-4 -25,-13 -50,-61 -50,-95 0,-19 -7,-28 -27,-36 -35,-13 -43,-26 -43,-70 0,-50 -54,-99 -107,-99 -29,0 -46,-9 -87,-47 -58,-54 -75,-79 -76,-111 0,-12 -17,-41 -39,-64 l -38,-42 -522,511 c -426,417 -533,517 -584,544 -34,18 -144,79 -245,135 -101,57 -182,99 -180,94 z m 2512,-181 c 61,-48 72,-115 27,-160 -45,-45 -101,-35 -101,18 0,13 -6,24 -12,25 -7,0 -17,2 -23,3 -5,2 -16,3 -22,4 -30,3 -3,99 34,120 29,17 68,13 97,-10 z m 165,-123 c 8,-10 9,-16 1,-21 -13,-8 -30,3 -30,21 0,18 14,18 29,0 z m 40,-111 c 41,-21 81,-72 81,-104 0,-32 -32,-66 -78,-82 -39,-13 -59,-1 -64,39 -2,19 -10,28 -26,30 -52,8 -48,87 7,117 33,18 46,18 80,0 z m -687,-387 c -18,-19 -22,-20 -22,-6 0,9 8,21 17,27 27,15 29,3 5,-21 z m 126,-105 c -2,-10 -14,-20 -28,-22 -25,-3 -25,-3 -6,18 23,26 39,27 34,4 z"
       id="path6108" />
  </g>
</svg>
