<?xml version="1.0" encoding="UTF-8" standalone="no"?>
<svg
   width="360"
   height="360"
   version="1.0"
   viewBox="0 0 270 270"
   id="svg6"
   xmlns="http://www.w3.org/2000/svg"
   xmlns:svg="http://www.w3.org/2000/svg">
  <defs
     id="defs10" />
  <rect
     style="fill:#000000;stroke-width:0.75"
     id="rect384"
     width="270"
     height="270"
     x="0"
     y="0" />
  <path
     d="m 46.5,139.5 c -6.75,-6.75 -9.75,-9.75 -11.25,-14.25 -2.25,-7.5 0,-24.75 9,-55.5 l 3,-9.75 0.75,8.25 c 0.75,28.5 2.25,36.75 9,42 2.25,2.25 3.75,2.25 6.75,2.25 l 5.25,-3 c 3,-3.75 5.25,-10.5 6,-18 A 348.75,348.75 0 0 0 74.25,51 332.25,332.25 0 0 1 94.5,108 c 0,0.75 -0.75,1.5 -4.5,2.25 l -4.5,3 -18,17.25 -15,15 z m 81,-7.5 c -1.5,-0.75 -1.5,-2.25 -2.25,-6 -1.5,-5.25 -2.25,-8.25 -6.75,-15.75 -11.25,-21.75 -14.25,-28.5 -16.5,-34.5 -1.5,-6 -2.25,-16.5 -0.75,-21 1.5,-5.25 5.25,-11.25 13.5,-19.5 a 138.75,138.75 0 0 1 19.5,-15 l -3.75,8.25 c -6,12 -7.5,17.25 -7.5,25.5 0,9.75 2.25,15.75 7.5,21 5.25,4.5 9,6.75 12.75,6 3,-0.75 6.75,-5.25 10.5,-11.25 2.25,-4.5 6,-18 9,-33 l 1.5,-9 3,9.75 c 3.75,15 3,29.25 -2.25,38.25 -1.5,3.75 -6,7.5 -12,12 -12.75,9.75 -18.75,16.5 -21,24.75 a 142.5,142.5 0 0 0 -3.75,20.25 z m 21,17.25 c -3,-3 -3,-3 -3,-9.75 a 207,207 0 0 0 -0.75,-27 c 0,-3 1.5,-6 6.75,-12 l 12,-11.25 c 0.75,0 0.75,1.5 -2.25,6.75 l -3.75,15 c 0,4.5 0,5.25 3.75,6 2.25,0.75 6.75,0 9,-1.5 C 174,113.25 177,108 180,99 l 1.5,-3.75 V 99 c -0.75,6.75 -3.75,18.75 -6.75,23.25 -1.5,3 -4.5,6 -6.75,7.5 l -6,2.25 -5.25,2.25 c -1.5,1.5 -3,6 -4.5,12 l -1.5,4.5 z m 51,41.25 a 462,462 0 0 0 -24,-19.5 l 3.75,-1.5 c 3.75,-1.5 5.25,-3 6.75,-6 l 4.5,-15 c 0.75,-6 0.75,-10.5 -1.5,-17.25 -1.5,-6.75 -2.25,-12 -1.5,-15.75 A 53.25,53.25 0 0 1 207,84.75 l -1.5,6 c -2.25,7.5 -3,10.5 -3,15.75 0,9 2.25,12 8.25,15 2.25,1.5 3,1.5 7.5,1.5 3.75,0 4.5,0 6.75,-1.5 6.75,-3 11.25,-9 15,-19.5 1.5,-4.5 3,-10.5 3,-14.25 l 0.75,-1.5 c 1.5,3.75 3,15 3,24.75 0,11.25 -1.5,17.25 -3.75,21 -2.25,3.75 -4.5,4.5 -15.75,8.25 -11.25,3.75 -16.5,6 -19.5,8.25 -3,1.5 -3.75,3 -5.25,6 V 174 l -0.75,18.75 z"
     style="fill:#ffffff;fill-opacity:1;stroke-width:0.402985"
     id="path2" />
  <path
     d="m 138,249.75 c -8.25,-5.25 -62.25,-48 -88.5,-70.5 -9,-6.75 -9,-7.5 -6.75,-10.5 l 48,-48.75 c 3.75,-3 3.75,-3 16.5,7.5 A 7776.75,7776.75 0 0 1 195,198.75 c 0.75,1.5 0.75,1.5 -1.5,3.75 -4.5,6.75 -43.5,46.5 -47.25,48.75 -3,2.25 -3.75,2.25 -8.25,-1.5 z"
     style="fill:#ffffff;fill-opacity:1;stroke-width:0.402985"
     id="path4" />
</svg>
