<svg xmlns="http://www.w3.org/2000/svg" width="381" height="385" version="1.0" viewBox="0 0 286 289"><path d="M24 144v120h237V24H24v120zM168 33a114 114 0 0 1 54 192c-44 44-114 45-159 0-17-17-29-40-32-64-2-13-1-33 2-45 9-32 31-59 59-74 24-11 52-15 76-9z"/><path d="m85 99-44 44 44 45 45 45v-34l-28-28-27-28 27-28 28-28V71l-1-17-44 45zm62-28v17l28 27 27 28-27 28-28 28v33l44-45 44-44-44-44-44-44v16z"/><path d="m124 129-13 14 14 13 13 14 14-13 14-14-14-13-14-14-14 13z"/><path d="M183 344A150 150 0 0 1 46 233c-4-14-5-22-5-37a143 143 0 0 1 33-99c19-24 46-42 75-50a145 145 0 0 1 145 36c27 27 43 61 46 100 3 30-7 67-25 93a150 150 0 0 1-132 68zm-10-57v-23l-36-37-37-36 37-37 37-37-1-17V72l-60 59-59 60 59 59 60 60v-23zm82-155-59-60v45l37 37 36 37-36 36-37 37v45l59-59 59-59zm-49 43-19-18-3-3-18 18-18 18 18 19 19 18 18-18 18-18z" style="fill:#fff;stroke-width:.575124" transform="scale(.75)"/></svg>