<svg xmlns="http://www.w3.org/2000/svg" width="381" height="385" version="1.0" viewBox="0 0 286 289"><path d="M24 144v120h240V24H24v120zM162 32a114 114 0 0 1 96 117c-2 30-13 55-33 76-23 22-50 33-81 33s-58-11-81-33c-20-21-31-46-33-76A114 114 0 0 1 162 31z"/><path d="m91 101-43 43 43 43 43 44V58l-44 43zm63 43v87l43-44 43-43-43-43-43-43v86z"/><path d="M177 343a152 152 0 1 1 166-170c1 7 0 29-1 39a145 145 0 0 1-55 98 147 147 0 0 1-110 33zm2-119V108l-1-31-57 57-58 58 58 58 58 58v-84zm142-32L205 76v232l58-58 58-58z" style="fill:#fff;stroke-width:.575124" transform="scale(.75)"/><path d="M177 343c-33-3-61-15-86-38-27-24-44-55-49-91-1-9-2-30-1-38A153 153 0 0 1 251 53a153 153 0 0 1 88 178c-6 25-19 46-38 66a148 148 0 0 1-124 46zm2-117V111l-1-34-57 57-58 58 58 58 58 58v-82zm84-92-58-58v232l58-58 58-58z" style="fill:#fff;stroke-width:.575124" transform="scale(.75)"/><path d="M179 344c-35-3-67-18-94-45-23-22-37-49-42-79-3-16-3-40-1-54 9-47 39-87 81-109a150 150 0 0 1 211 81c8 21 11 40 9 62a147 147 0 0 1-56 110 147 147 0 0 1-108 34zm84-210-58-58v232l58-58 58-58zm-84 90V109l-1-32-57 57-58 58 57 58 58 57 1-83z" style="fill:#fff;stroke-width:.575124" transform="scale(.75)"/></svg>