<svg xmlns="http://www.w3.org/2000/svg" width="381.333" height="385.333" version="1.0" viewBox="0 0 286 289"><path d="M24 144v120h240V24H24v120zM162 31.5c23.7 3.9 45 14.7 61.9 31.4 13.7 13.7 22.3 27.6 28.6 46.4 4.5 13.7 5.9 24.1 5.2 40.1-1.2 29.3-12.3 54.5-33.1 75.2-22.4 22.3-49.5 33.6-80.6 33.6-31.1 0-58.2-11.3-80.6-33.6-20.8-20.7-31.9-45.9-33.1-75.2-.7-15.6.6-26 4.9-39.4C52.5 55.9 106.4 22.5 162 31.5z"/><path d="m90.5 101-43 43 43.3 43.3 43.2 43.2v-86.3c0-47.4-.1-86.2-.3-86.2-.1 0-19.6 19.4-43.2 43zM154 144v86.5l43.2-43.3 43.3-43.2-43.3-43.2L154 57.5V144z"/><path d="M176.576 343.317c-41.063-4.187-77.12-24.327-104.463-58.35-16.061-19.985-26.435-44.448-30.117-71.02-1.225-8.844-1.75-30.209-.936-38.146 1.38-13.463 6.377-31.872 12.049-44.385 22.094-48.744 65.081-81.484 117.511-89.5 14.216-2.173 33.288-1.799 48.34.95 36.209 6.61 68.922 26.391 92.232 55.77 16.332 20.584 27.714 47.376 31.393 73.901 1.09 7.85.903 29.946-.331 39.396-3.543 27.118-12.97 50.29-28.99 71.26-5.804 7.598-18.36 20.498-26.264 26.986-20.872 17.132-45.219 28.02-71.768 32.095-8.73 1.34-30.086 1.916-38.656 1.043zm2.507-119.45c-.045-46.103-.239-98.059-.432-115.456l-.35-31.632-57.8 57.652-57.8 57.651 57.8 57.805c31.789 31.792 57.993 57.805 58.23 57.805.239 0 .397-37.721.352-83.825zm141.562-31.91c0-.46-114.862-115.465-115.321-115.465-.154 0-.28 52.084-.28 115.742v115.743l57.8-57.798c31.79-31.789 57.8-57.988 57.8-58.222z" style="fill:#fff;stroke-width:.575124" transform="scale(.75)"/><path d="M176.576 343.317c-32.236-3.287-60.156-15.75-85.381-38.114-27.426-24.314-44.246-55.514-49.199-91.257-1.225-8.843-1.75-30.208-.936-38.145 1.846-18.01 8.76-39.82 17.718-55.888C74.513 91.69 97.267 69.885 125.39 56.08c39.997-19.635 84.136-20.867 125.869-3.515 35.612 14.807 65.934 45.554 80.881 82.015 9.113 22.23 12.466 42.095 11.03 65.35-.816 13.22-1.776 19.82-4.466 30.696-6.183 25.002-18.422 46.6-37.593 66.345-24.653 25.389-52.771 40.222-85.879 45.304-8.73 1.34-30.086 1.916-38.656 1.043zm2.507-117.15c-.045-44.837-.239-96.793-.431-115.456l-.35-33.932-57.8 57.65-57.8 57.65 57.798 57.807c31.79 31.793 57.994 57.806 58.232 57.806.238 0 .396-36.686.351-81.524zm83.905-92.019-57.943-57.943v231.773l57.943-57.943 57.944-57.943z" style="fill:#fff;stroke-width:.575124" transform="scale(.75)"/><path d="M179.164 343.522c-35.563-2.766-67.648-17.88-94.362-44.453-22.586-22.466-36.467-48.687-41.884-79.113-2.92-16.404-3.104-40.247-.42-54.32C51.48 118.55 80.722 79.127 122.865 57.29 176.518 29.49 241.118 36.442 288.15 75.078c6.72 5.52 17.492 16.42 22.71 22.98 8.636 10.858 17.438 26.312 22.663 39.79 8.024 20.698 11.02 40.094 9.656 62.537-1.625 26.762-8.243 48.824-20.967 69.9-7.67 12.705-22.35 29.338-35.212 39.894-22.634 18.578-49.426 29.823-78.373 32.895-7.065.75-22.554.985-29.463.448zm83.824-209.374-57.943-57.943v231.773l57.943-57.943 57.944-57.943zm-83.955 90.294c-.086-45.47-.286-97.296-.444-115.168l-.288-32.495-57.8 57.649-57.8 57.649 57.547 57.52c31.65 31.635 57.86 57.52 58.243 57.52.545 0 .664-18.166.542-82.675z" style="fill:#fff;stroke-width:.575124" transform="scale(.75)"/></svg>