<svg xmlns="http://www.w3.org/2000/svg" width="381" height="385" version="1.0" viewBox="0 0 286 289"><path d="M24 144v120h240V24H24v120zM162 32a113 113 0 0 1 95 96c3 19 0 43-8 62-11 24-35 49-59 59-11 4-12 4-12 3l3-31c7-70 7-73 2-84-13-24-59-25-76-1-6 10-6 11-2 50l3 39 1 23c1 6 1 6-11 1-24-10-48-35-59-59A115 115 0 0 1 162 32z"/><path d="M134 38c-11 3-20 11-25 21-2 4-2 7-2 14s0 9 3 14c3 8 9 14 17 18 5 2 7 2 14 2 8 0 10 0 15-2 8-4 13-9 17-16 3-6 3-7 3-17s0-10-3-16c-6-11-16-18-29-19l-10 1z"/><path d="M138 334a154 154 0 0 1-97-125v-34A153 153 0 0 1 228 45a152 152 0 0 1 11 291l-1-5 3-31 8-88c0-14 0-18-3-25-4-9-9-15-17-20a71 71 0 0 0-77 5c-6 5-13 14-15 20v33a2495 2495 0 0 1 9 111c-1 1-2 1-8-2zm65-192c12-3 24-14 30-26 2-6 3-9 2-21l-1-15c-4-9-13-19-21-24-11-7-27-8-39-4-13 4-25 17-30 30-2 5-3 14-2 22 2 18 20 37 38 39 5 1 19 0 23-1z" style="fill:#fff;stroke-width:.575124" transform="scale(.75)"/></svg>