<svg xmlns="http://www.w3.org/2000/svg" width="384" height="385.333" version="1.0" viewBox="0 0 288 289"><path d="M24 144v120h240V24H24v120zM154.1 31.1c17.3 1.7 31.8 6.2 46.1 14.2 18.7 10.5 36.4 29 46.2 48.4 15.8 31.5 15.8 71.1 0 102.6-9.8 19.4-27.5 37.9-46.2 48.4-35.1 19.6-77.3 19.6-112.4 0-18.7-10.5-36.4-29-46.1-48.3C22.3 158 26.6 110.7 52.4 76.3c6.2-8.2 20.3-21.5 28.3-26.7 18.9-12.2 35.1-17.3 61.4-19.5.9 0 6.3.4 12 1z"/><path d="M128.5 61.5c-38 7.1-66.2 37.9-70.1 76.7l-.7 6.8H91v-3.3c0-9.9 5.8-23.2 13.8-31.9 9.8-10.6 22.2-17 34.7-17.9l5-.4.3 15.7.3 15.8h-14.6l17.2 17.2 17.3 17.3 16.5-16.5c9.1-9.1 16.5-16.8 16.5-17.2 0-.5-4.3-.8-9.5-.8H179V67.2l-7.7-2.6c-14.3-4.7-28.7-5.7-42.8-3.1z"/><path d="M102.8 149.7c-8.7 8.7-15.8 16.2-15.8 16.6 0 .4 4 .7 8.9.7h8.8l-.5 27.5-.5 27.5 6.4 2.9c11.1 4.9 19.9 6.6 34.4 6.5 15.6-.1 24.6-2.2 38-8.8 21.8-10.8 38.6-31.6 44.5-55 3-11.8 2.9-12.2-2.6-13-2.6-.3-9.5-.6-15.5-.6h-10.8l-1.6 5.7c-6.7 23.2-27.5 39.3-50.7 39.3H139v-30.9l8.7-.3 8.7-.3-17.8-16.5c-9.8-9.1-18.3-16.6-19-16.8-.6-.1-8.2 6.9-16.8 15.5z"/><path d="M181.36 345.288c-48.355-4.024-89.948-28.687-117.064-69.416-21.927-32.935-29.483-74.388-20.936-114.867 4.633-21.944 15.127-44.34 28.828-61.53 4.455-5.587 17.268-18.368 24.629-24.565 16.78-14.126 38.517-24.855 60.166-29.697 11.928-2.667 30.685-5.147 35.226-4.658 1.308.14 5.485.535 9.28.876 33.932 3.049 60.452 13.222 84.543 32.431 7.574 6.04 20.114 18.716 25.952 26.233 17.443 22.463 26.349 43.561 30.82 73.017 1.137 7.499.959 34.904-.277 42.437-4.712 28.72-14.142 50.438-31.27 72.013-5.007 6.307-19.235 20.531-25.512 25.504-20.673 16.38-45.04 26.817-72.178 30.913-7.275 1.098-25.73 1.848-32.207 1.31zm32.724-38.138c11.602-2.023 24.814-7.091 36.37-13.95 19.586-11.625 34.34-27.699 44.504-48.485 4.359-8.913 6.086-13.662 8.628-23.715 1.904-7.533 2.197-12.24.844-13.592-1.477-1.477-5.7-1.801-23.484-1.801h-17.164l-1.978 6.614c-6.286 21.023-20.36 37.633-39.472 46.584-8.725 4.087-19.477 6.318-30.476 6.324l-6.182.003v-40.716l11.502-.42c6.326-.23 11.503-.627 11.503-.88s-.745-1.061-1.655-1.796c-.91-.734-8.609-7.791-17.11-15.682-18.674-17.334-29.405-26.775-30.436-26.775-2.684 0-44.875 41.884-43.538 43.221.303.303 5.661.707 11.909.898l11.358.349-.49 29.383c-.27 16.161-.491 32.597-.491 36.524v7.14l6.326 2.834c11.496 5.15 21.3 7.896 32.207 9.023 8.686.896 29.417.294 37.325-1.085zm50.382-141.982c0-.962-3.397-1.258-14.45-1.258H239.16V89.35l-9.346-2.966c-11.071-3.513-14.894-4.41-23.754-5.571-26.695-3.5-55.363 3.286-77.98 18.458-28.79 19.312-46.962 50.117-50.514 85.631-.348 3.48-.758 6.91-.91 7.62l-.278 1.295h45.312l.29-6.47c.21-4.644.723-7.932 1.82-11.647 2.033-6.884 6.86-16.652 11.328-22.922 6.21-8.712 17.58-18.347 27.66-23.435 7.302-3.686 19.863-6.828 27.343-6.838l2.444-.003.001 8.195c0 4.508.172 13.825.38 20.705l.377 12.509h-20.02l23.29 23.317 23.29 23.318 22.286-22.42c12.258-12.33 22.287-22.66 22.287-22.957z" style="fill:#fff;stroke-width:.575124" transform="scale(.75)"/></svg>