<svg xmlns="http://www.w3.org/2000/svg" width="384" height="385" version="1.0" viewBox="0 0 288 289"><path d="M24 144v120h240V24H24v120zM154 31a114 114 0 0 1 92 63c16 31 16 71 0 102A115 115 0 1 1 52 76a119 119 0 0 1 90-46l12 1z"/><path d="M129 62c-38 7-67 37-71 76v7h33v-3c0-10 6-24 14-32 10-11 22-17 35-18l5-1v32h-14l17 17 17 17 17-16 16-17-9-1h-10V67l-8-2c-14-5-28-6-42-3z"/><path d="m103 150-16 16 9 1h9l-1 27v28l6 3c11 5 20 6 35 6s24-2 38-8c21-11 38-32 44-55 3-12 3-13-3-13l-15-1h-11l-2 6c-6 23-27 39-50 39h-7v-31h9l8-1-17-16-19-17c-1 0-9 7-17 16z"/><path d="M181 345A154 154 0 0 1 43 161a152 152 0 0 1 243-87 145 145 0 0 1 56 142 147 147 0 0 1-56 97 151 151 0 0 1-105 32zm33-38a112 112 0 0 0 90-86c1-8 2-12 0-14l-23-1h-17l-2 6c-6 21-21 38-40 47-8 4-19 6-30 6h-6v-41h11l12-1-2-2a1082 1082 0 0 1-48-42c-2 0-44 42-43 43l12 1h11v30l-1 36v7l7 3c11 5 21 8 32 9 8 1 29 1 37-1zm50-142-14-1h-11V89l-9-3-24-5c-27-4-55 3-78 18a116 116 0 0 0-51 94l-1 1h46v-7l2-11c2-7 7-17 11-23 6-9 18-19 28-24 7-3 20-6 27-6h3v41h-20l24 23 23 24 22-23 22-23z" style="fill:#fff;stroke-width:.575124" transform="scale(.75)"/></svg>