<?xml version="1.0" encoding="UTF-8" standalone="no"?>
<svg
   xmlns:dc="http://purl.org/dc/elements/1.1/"
   xmlns:cc="http://creativecommons.org/ns#"
   xmlns:rdf="http://www.w3.org/1999/02/22-rdf-syntax-ns#"
   xmlns:svg="http://www.w3.org/2000/svg"
   xmlns="http://www.w3.org/2000/svg"
   xmlns:sodipodi="http://sodipodi.sourceforge.net/DTD/sodipodi-0.dtd"
   xmlns:inkscape="http://www.inkscape.org/namespaces/inkscape"
   version="1.0"
   width="300.000000pt"
   height="291.000000pt"
   viewBox="0 0 300.000000 291.000000"
   preserveAspectRatio="xMidYMid meet"
   id="svg911"
   sodipodi:docname="conviction.svg"
   inkscape:version="1.0.1 (3bc2e813f5, 2020-09-07)">
  <defs
     id="defs915" />
  <sodipodi:namedview
     pagecolor="#ffffff"
     bordercolor="#666666"
     borderopacity="1"
     objecttolerance="10"
     gridtolerance="10"
     guidetolerance="10"
     inkscape:pageopacity="0"
     inkscape:pageshadow="2"
     inkscape:window-width="1600"
     inkscape:window-height="837"
     id="namedview913"
     showgrid="false"
     inkscape:zoom="1.7268041"
     inkscape:cx="122.71891"
     inkscape:cy="193.07149"
     inkscape:window-x="-8"
     inkscape:window-y="-8"
     inkscape:window-maximized="1"
     inkscape:current-layer="svg911" />
  <metadata
     id="metadata875">
Created by potrace 1.16, written by Peter Selinger 2001-2019
<rdf:RDF>
  <cc:Work
     rdf:about="">
    <dc:format>image/svg+xml</dc:format>
    <dc:type
       rdf:resource="http://purl.org/dc/dcmitype/StillImage" />
  </cc:Work>
</rdf:RDF>
</metadata>
  <g
     transform="translate(0.000000,291.000000) scale(0.100000,-0.100000)"
     fill="#000000"
     stroke="none"
     id="g909">
    <path
       d="M616 2881 c-16 -17 -51 -38 -78 -47 -26 -8 -48 -21 -48 -27 0 -10 48 -175 164 -568 l14 -46 -47 -53 -47 -53 -140 52 c-78 28 -154 51 -171 51 -63 0 -108 -69 -84 -129 7 -15 66 -72 132 -127 98 -81 118 -103 113 -119 -3 -11 -17 -64 -32 -117 l-25 -97 -86 -15 c-47 -8 -117 -21 -156 -27 -86 -15 -125 -47 -125 -104 0 -57 39 -89 125 -104 244 -41 245 -41 250 -70 3 -14 15 -60 26 -101 12 -41 23 -82 25 -90 3 -10 -39 -51 -115 -114 -66 -55 -125 -112 -132 -127 -24 -60 21 -129 84 -129 17 0 92 23 167 50 75 28 141 50 146 49 5 -1 28 -22 51 -48 l43 -48 -90 -304 c-50 -167 -90 -309 -90 -316 0 -6 21 -18 47 -27 26 -9 61 -30 78 -46 l32 -31 222 236 c123 129 226 235 229 235 17 -1 125 -29 129 -34 5 -4 16 -62 48 -245 l6 -33 57 6 c31 3 74 2 95 -3 33 -8 38 -7 42 13 7 31 45 249 45 257 0 3 17 9 38 13 21 3 76 16 121 30 l82 23 92 -108 91 -108 37 30 c20 15 57 37 82 48 l46 20 -21 53 c-11 29 -32 87 -48 129 l-27 75 91 91 91 91 115 -44 c63 -23 123 -43 132 -43 12 -1 21 12 29 39 7 22 10 42 8 43 -2 2 -76 29 -164 61 l-160 57 -29 -38 c-38 -48 -128 -138 -184 -183 l-43 -35 59 -162 c33 -90 56 -160 51 -157 -7 4 -194 224 -215 253 -2 2 -52 -12 -111 -32 -59 -20 -138 -39 -175 -43 -38 -4 -68 -10 -68 -13 0 -20 -60 -334 -64 -339 -3 -3 -6 -1 -6 4 0 11 -47 288 -55 319 -4 17 -18 23 -81 34 -42 7 -94 19 -116 27 -22 8 -43 14 -47 14 -4 0 -114 -114 -246 -254 -132 -140 -241 -251 -243 -247 -1 4 40 152 93 329 52 177 95 330 95 339 0 10 -8 23 -19 30 -10 6 -45 45 -78 86 l-60 74 -104 -37 c-57 -21 -134 -49 -171 -64 -38 -14 -68 -23 -68 -21 0 2 63 56 139 120 l139 117 -23 56 c-27 67 -51 156 -60 229 l-7 51 -86 16 c-48 8 -129 23 -180 32 -51 9 -91 18 -90 19 3 3 340 65 351 65 3 0 8 26 12 57 8 66 48 211 70 253 l14 27 -139 118 c-77 64 -140 118 -140 120 0 2 37 -10 83 -27 45 -17 122 -44 170 -62 l88 -31 32 40 c18 22 53 63 79 91 27 28 48 56 48 63 0 6 -43 156 -95 333 -53 177 -94 325 -93 329 3 7 135 -130 408 -421 l75 -80 61 19 c34 11 89 23 123 27 51 5 62 10 66 28 7 31 55 309 55 320 0 5 3 7 6 4 3 -3 18 -78 34 -167 16 -89 31 -165 34 -170 3 -4 35 -11 71 -14 36 -4 113 -22 171 -42 l105 -35 27 32 c15 18 66 79 114 135 l87 102 -37 30 -38 30 -88 -106 c-72 -85 -92 -104 -110 -100 -11 3 -57 14 -100 26 -44 12 -90 21 -103 21 -12 0 -23 4 -23 8 0 8 -38 224 -45 258 -4 20 -9 21 -42 13 -21 -5 -64 -6 -95 -3 l-57 6 -6 -33 c-31 -176 -43 -240 -46 -243 -2 -2 -33 -10 -69 -19 l-65 -17 -75 78 c-42 42 -143 148 -225 235 l-150 158 -29 -30z"
       id="path877" />
    <path
       d="M2016 2552 c-3 -5 -30 -78 -61 -163 l-56 -154 33 -25 c43 -32 179 -167 204 -203 l20 -28 154 56 c85 31 159 60 164 65 12 12 -13 80 -30 80 -7 0 -61 -18 -119 -40 -58 -21 -111 -40 -118 -42 -7 -1 -53 38 -103 88 l-90 91 47 127 47 128 -34 14 c-38 16 -51 17 -58 6z"
       id="path879" />
    <path
       d="M1466 2242 c3 -26 7 -47 8 -47 0 0 43 -11 93 -23 51 -13 97 -21 102 -17 6 3 19 19 31 35 l21 29 -38 16 c-35 15 -112 35 -191 49 l-33 6 7 -48z"
       id="path881" />
    <path
       d="M1193 2268 c-24 -5 -43 -13 -43 -18 0 -22 53 -70 78 -70 40 0 50 11 58 58 6 41 6 42 -22 41 -16 -1 -48 -5 -71 -11z"
       id="path883" />
    <path
       d="M1848 2095 l-17 -44 71 -69 72 -70 43 15 c36 13 41 17 33 33 -13 24 -118 130 -156 157 l-30 22 -16 -44z"
       id="path885" />
    <path
       d="M2353 1983 c-70 -58 -129 -107 -130 -108 -2 -1 8 -29 22 -62 13 -33 32 -90 41 -126 10 -43 22 -68 33 -71 31 -9 647 -156 654 -156 8 0 30 80 24 86 -2 3 -141 38 -308 78 l-303 73 -23 68 c-13 38 -23 72 -23 76 0 4 47 47 105 94 l104 87 -27 34 c-15 19 -30 34 -34 34 -3 0 -64 -48 -135 -107z"
       id="path887" />
    <path
       d="M757 1999 c-25 -29 -44 -56 -41 -60 3 -5 23 -14 44 -20 36 -11 41 -10 58 11 17 21 18 27 5 68 -7 25 -15 47 -17 49 -2 2 -24 -20 -49 -48z"
       id="path889" />
    <path
       d="M2103 1772 c-32 -26 -33 -28 -21 -64 11 -38 16 -41 76 -53 24 -5 32 -3 32 7 0 22 -41 138 -48 138 -4 0 -22 -13 -39 -28z"
       id="path891" />
    <path
       d="M596 1713 c-13 -43 -27 -100 -31 -127 l-8 -48 44 7 c56 9 59 11 59 40 0 13 9 51 19 85 l19 62 -31 29 c-18 15 -35 29 -39 29 -4 0 -18 -35 -32 -77z"
       id="path893" />
    <path
       d="M2650 1375 c-168 -41 -315 -77 -326 -80 -17 -4 -25 -19 -38 -70 -9 -36 -27 -90 -41 -121 -14 -31 -22 -60 -19 -65 8 -14 254 -219 262 -219 4 0 19 15 34 34 l27 34 -104 87 c-58 47 -105 90 -105 94 0 4 10 38 23 75 l23 69 303 73 c167 40 305 75 308 78 9 8 -18 86 -30 85 -7 0 -149 -34 -317 -74z"
       id="path895" />
    <path
       d="M565 1323 c9 -60 53 -203 63 -203 4 0 21 14 39 30 l32 28 -20 64 c-10 35 -19 73 -19 86 0 24 -5 27 -64 37 l-38 6 7 -48z"
       id="path897" />
    <path
       d="M2128 1248 c-30 -8 -39 -16 -49 -46 -11 -34 -10 -36 22 -63 19 -16 37 -29 40 -29 6 0 49 119 49 138 0 14 -10 14 -62 0z"
       id="path899" />
    <path
       d="M742 985 l-34 -15 42 -50 c23 -27 46 -52 50 -55 5 -3 15 16 23 42 23 78 -10 109 -81 78z"
       id="path901" />
    <path
       d="M1898 928 l-68 -69 16 -39 c9 -22 20 -40 26 -40 5 0 50 41 101 91 l92 92 -30 12 c-63 26 -67 25 -137 -47z"
       id="path903" />
    <path
       d="M1619 755 c-20 -7 -62 -18 -93 -25 -47 -10 -56 -15 -56 -33 0 -12 -3 -32 -6 -44 -6 -20 -3 -23 23 -23 37 0 174 34 208 52 l26 14 -33 36 c-32 36 -34 36 -69 23z"
       id="path905" />
    <path
       d="M1179 702 c-16 -18 -27 -37 -24 -41 5 -10 125 -35 132 -28 2 3 1 25 -2 50 -7 42 -9 45 -42 49 -29 4 -39 -1 -64 -30z"
       id="path907" />
  </g>
  <path
     style="fill:none;stroke:#000000;stroke-width:0.75px;stroke-linecap:butt;stroke-linejoin:miter;stroke-opacity:1"
     d="m 247.9,209.7 1.1715,-1.78211"
     id="path921" />
  <path
     style="fill:none;stroke:#000000;stroke-width:0.75px;stroke-linecap:butt;stroke-linejoin:miter;stroke-opacity:1"
     d="M 297.36558,144.53672 296.7,146.1"
     id="path923" />
  <path
     style="fill:none;stroke:#000000;stroke-width:0.75px;stroke-linecap:butt;stroke-linejoin:miter;stroke-opacity:1"
     d="m 247.35,80.893658 1.35728,1.302982"
     id="path925" />
  <path
     style="fill:#ffff00;stroke:#000000;stroke-width:0.75px;stroke-linecap:butt;stroke-linejoin:miter;stroke-opacity:1"
     d="m 201.9,34.1 0.87369,1.29518"
     id="path933" />
  <path
     style="fill:#ffffff;stroke-width:0.579104"
     d="m 78.455779,375.19984 c 0.429805,-1.83427 6.136225,-21.795 17.260128,-60.37493 3.696945,-12.82174 6.882743,-24.31928 7.079563,-25.5501 0.34632,-2.16577 0.22241,-2.37547 -3.846603,-6.50957 -2.312445,-2.34945 -7.069638,-7.7907 -10.57154,-12.09169 -4.162904,-5.11282 -6.688269,-7.75346 -7.294846,-7.62783 -0.510261,0.10567 -7.703271,2.67335 -15.984465,5.70595 -8.281194,3.03259 -17.504178,6.40844 -20.49552,7.50188 -2.991342,1.09345 -5.705989,1.89903 -6.032549,1.79017 -0.32656,-0.10885 6.941946,-6.54089 16.152236,-14.29341 9.21029,-7.75253 17.209839,-14.52859 17.776782,-15.05792 0.986001,-0.92061 0.967661,-1.1052 -0.421999,-4.24746 -4.233001,-9.57157 -7.802715,-22.23179 -9.629847,-34.15288 -0.642695,-4.19324 -1.221253,-7.65457 -1.285685,-7.69186 -0.06443,-0.0373 -10.019836,-1.83832 -22.12312,-4.00232 -12.103283,-2.164 -22.491465,-4.11391 -23.084849,-4.33313 -0.704025,-0.2601 0.704434,-0.72386 4.053731,-1.33476 28.879368,-5.26756 40.512517,-7.50285 40.83759,-7.84689 0.21236,-0.22474 0.811259,-3.14489 1.330887,-6.48922 1.841032,-11.84889 6.648505,-28.9649 9.984771,-35.54871 1.223908,-2.41527 1.330157,-2.98485 0.653253,-3.50216 -2.645748,-2.02195 -34.103396,-28.87718 -34.413082,-29.37826 -0.502497,-0.81306 -0.779443,-0.9054 22.204373,7.40371 10.906148,3.94279 20.160775,7.16871 20.565835,7.16871 0.405066,0 1.807617,-1.36814 3.116787,-3.0403 1.30917,-1.67217 5.771274,-6.91078 9.915786,-11.64136 4.144517,-4.73058 7.853494,-9.19528 8.242184,-9.92155 0.61227,-1.144033 -0.16208,-4.328262 -5.794785,-23.828788 C 80.525741,20.479866 78.139831,12.071544 78.29294,11.609266 78.51238,10.9467 94.317149,27.191665 120.36234,54.8504 l 21.50833,22.840796 4.46741,-1.401856 c 6.48821,-2.035986 15.3239,-4.089994 20.97188,-4.875272 5.9803,-0.831489 7.90167,-1.71917 8.34062,-3.853412 1.179,-5.732308 7.16477,-40.52978 7.34497,-42.698961 0.12681,-1.526378 1.38323,4.296472 4.61905,21.406806 4.21987,22.313758 4.46448,23.33586 5.67432,23.709678 0.52217,0.161344 3.68566,0.697415 7.02999,1.191276 8.55709,1.263629 16.55135,3.269131 27.88488,6.995408 5.38368,1.770068 10.13343,3.135411 10.55501,3.034102 0.42157,-0.101308 5.17624,-5.396136 10.56592,-11.766285 5.38968,-6.37015 11.72913,-13.85949 14.08766,-16.642979 2.35853,-2.783489 4.38982,-4.959304 4.51398,-4.835143 0.12416,0.12416 -1.72635,5.528724 -4.11225,12.010143 -8.25304,22.419824 -10.82214,29.659956 -10.66497,30.055519 0.0868,0.218485 2.24261,2.05808 4.79067,4.087997 5.98238,4.765868 23.63973,22.475513 26.6388,26.717683 1.27403,1.80212 2.64444,3.28908 3.04535,3.30436 0.91585,0.0349 30.6832,-10.7974 37.04815,-13.4818 4.38003,-1.84726 5.3662,-2.02021 5.3662,-0.94108 0,0.22715 -1.40333,1.47254 -3.11852,2.76752 -1.71519,1.29498 -9.33765,7.4912 -16.93881,13.76937 -7.60115,6.27817 -13.89696,11.47237 -13.99068,11.54268 -0.0937,0.0703 1.11034,3.61265 2.6757,7.87186 2.8309,7.70262 3.84048,10.75676 6.68993,20.23809 0.8208,2.73115 1.95422,5.38322 2.51872,5.8935 0.56449,0.51027 5.1959,1.97543 10.29202,3.25591 9.2791,2.33152 67.13526,16.11037 73.4015,17.48109 1.83141,0.40061 3.32961,1.01267 3.32932,1.36012 -2.8e-4,0.34745 -5.92887,2.02212 -13.17462,3.72148 -7.24576,1.69936 -26.59485,6.34322 -42.99799,10.31967 -24.88098,6.03166 -30.0223,7.44812 -31.02112,8.54648 -0.66991,0.73666 -2.15923,4.60863 -3.38129,8.79077 -1.20123,4.11082 -3.35891,10.46098 -4.79484,14.11145 -3.84903,9.78514 -3.85203,9.60554 0.22309,13.37143 3.55517,3.28541 16.57587,14.2328 25.07565,21.08282 4.35891,3.51286 5.83082,4.94733 5.07646,4.94733 -0.1276,0 -8.03238,-2.82663 -17.56617,-6.28141 -22.07287,-7.99857 -25.09215,-9.03955 -25.335,-8.73487 -0.10921,0.13702 -1.72797,2.20359 -3.59726,4.5924 -4.39926,5.62192 -17.57079,18.78955 -24.59594,24.58867 -3.02582,2.49775 -5.57638,4.72669 -5.66791,4.95321 -0.0915,0.22651 2.4143,7.54904 5.56849,16.27229 6.80002,18.80611 8.42289,23.65539 8.04357,24.03472 -0.32321,0.3232 -7.53089,-7.87004 -19.13939,-21.75645 -4.40559,-5.2701 -8.38518,-9.66731 -8.84353,-9.77158 -0.45834,-0.10427 -5.45347,1.2506 -11.10028,3.01081 -13.2749,4.13805 -20.4151,5.92012 -27.94155,6.97373 -3.3509,0.46909 -6.49758,1.00831 -6.99261,1.19827 -0.64628,0.248 -1.25515,2.4208 -2.1594,7.70593 -0.69263,4.0483 -2.61611,14.26637 -4.2744,22.70682 -2.65158,13.49614 -3.07049,15.067 -3.47475,13.02985 -0.25281,-1.27403 -1.74851,-9.87373 -3.32377,-19.11045 -3.78855,-22.21465 -3.90919,-22.7324 -5.5466,-23.80527 -0.74584,-0.48869 -5.60841,-1.76142 -10.8057,-2.82827 -5.1973,-1.06686 -11.53441,-2.60869 -14.08246,-3.4263 -2.54806,-0.81761 -5.19355,-1.48989 -5.87887,-1.49396 -1.26745,-0.008 -4.30376,3.0692 -43.14598,43.7203 -9.127251,9.55231 -17.809915,18.54051 -19.294809,19.9738 -2.691886,2.59832 -2.698621,2.60087 -2.292732,0.86865 z m 93.374711,-73.67915 c 0.27101,-3.72975 -0.86684,-8.99021 -2.17976,-10.07733 -1.70032,-1.4079 -5.92227,-1.87458 -8.22779,-0.90946 -3.10716,1.30069 -8.64581,8.17706 -7.75164,9.62385 0.63734,1.03126 14.3864,4.15438 17.11328,3.88732 0.58909,-0.0577 0.92571,-0.87014 1.04591,-2.52438 z m 41.31036,-0.0854 c 4.95975,-1.26538 10.77124,-3.09578 12.91442,-4.06754 l 3.89669,-1.76684 -1.16253,-1.60648 c -1.59103,-2.19862 -7.13574,-7.48829 -8.20186,-7.8246 -0.47776,-0.15072 -2.04135,0.0829 -3.47463,0.51909 -1.43328,0.43621 -6.25433,1.71825 -10.71343,2.84896 -9.78297,2.48071 -10.70848,2.99005 -10.72759,5.90372 -0.008,1.18706 -0.27951,3.3095 -0.60382,4.71653 -0.93756,4.06748 -0.63787,4.32532 4.56128,3.92439 2.47156,-0.19059 8.55172,-1.38184 13.51147,-2.64723 z m 41.44792,-21.02645 c 5.70747,-5.20204 21.01372,-20.36941 21.01372,-20.82305 0,-0.5835 -9.69151,-3.97097 -11.36087,-3.97097 -0.80056,0 -2.02478,0.28865 -2.72048,0.64145 -1.4194,0.71979 -17.76939,16.76447 -17.76939,17.43757 0,0.23723 1.02555,2.65112 2.279,5.36421 1.76502,3.82037 2.54387,4.93289 3.45344,4.93289 0.64594,0 2.943,-1.61194 5.10458,-3.5821 z M 108.519,271.27351 c 0.4876,-0.94291 1.29466,-3.47415 1.79347,-5.62497 2.24091,-9.66261 -2.02208,-12.89372 -11.927135,-9.0401 -2.223396,0.86502 -4.042543,1.79797 -4.042543,2.0732 0,0.27523 2.019627,2.83918 4.48806,5.69766 2.468428,2.85848 5.139548,5.96401 5.935818,6.90118 1.82623,2.14939 2.63801,2.14788 3.75233,-0.007 z m 179.38066,-35.63785 c 0.92099,-2.22955 2.34112,-6.35822 3.15585,-9.17483 1.28947,-4.45782 1.37329,-5.22913 0.64722,-5.95521 -0.72608,-0.72608 -1.41923,-0.70554 -5.3517,0.15856 -5.67465,1.24691 -7.83387,2.67107 -9.1139,6.01129 -1.59803,4.17005 -1.37212,5.82165 1.11611,8.15998 3.80707,3.57772 6.06518,5.20353 6.98108,5.02631 0.48995,-0.0948 1.64435,-1.99654 2.56534,-4.2261 z m -201.874308,1.88209 c 0.963798,-0.71664 3.020672,-2.42379 4.570837,-3.79367 l 2.818478,-2.49069 -0.998938,-3.58991 c -2.51556,-9.04026 -3.795873,-14.23021 -4.147332,-16.81187 -0.33273,-2.44413 -0.613625,-2.89487 -2.220425,-3.56307 -1.667717,-0.69353 -11.458411,-2.60745 -11.846573,-2.31581 -0.08926,0.0671 0.123257,2.04681 0.472254,4.39945 1.202783,8.10811 6.491825,26.59192 8.225131,28.74468 0.792209,0.98391 1.101561,0.92661 3.126568,-0.57911 z M 79.86518,182.36293 c 7.878954,-1.38005 7.871009,-1.37401 8.627788,-6.5636 0.35645,-2.44434 1.597054,-7.63792 2.756902,-11.54129 2.081765,-7.00603 2.094696,-7.11289 1.008325,-8.33493 -1.716158,-1.93047 -7.754417,-6.86356 -8.401219,-6.86356 -1.380423,0 -5.271333,11.1767 -7.660857,22.00597 -1.847338,8.3721 -2.393717,12.16141 -1.753407,12.1604 0.275046,-4.4e-4 2.715155,-0.38878 5.422468,-0.86299 z m 211.86936,-14.70857 c 0.96918,-0.6141 0.64766,-2.40908 -1.77481,-9.90825 -2.12039,-6.56404 -3.68701,-9.84477 -4.7011,-9.84477 -1.24987,0 -8.45646,6.29283 -8.80726,7.69054 -0.48539,1.93395 2.0681,8.51087 3.78396,9.74618 0.79627,0.57326 3.27194,1.42372 5.50149,1.8899 4.96409,1.03796 5.02566,1.04233 5.99772,0.4264 z M 108.91007,131.08292 c 1.61818,-1.70106 2.22675,-2.84034 2.22675,-4.16862 0,-2.28165 -2.69636,-11.25137 -3.53873,-11.77199 -1.06961,-0.66105 -9.890423,8.83906 -12.07938,13.00962 -0.871361,1.66017 -0.449617,1.99963 4.88455,3.93154 5.01625,1.81678 5.92887,1.70943 8.50681,-1.00055 z m 159.74317,0.43627 c 6.50082,-2.45597 6.67998,-3.31765 1.85051,-8.90012 -7.71412,-8.91688 -21.00642,-20.6704 -22.1016,-19.54303 -0.27987,0.2881 -1.45189,2.99948 -2.6045,6.0253 l -2.09566,5.50149 9.71999,9.41045 c 5.346,5.17574 9.85249,9.40034 10.01443,9.388 0.16194,-0.0123 2.50952,-0.85928 5.21683,-1.88209 z M 224.42669,99.111784 c 2.06891,-2.225174 5.42655,-6.5505 5.42655,-6.990497 0,-0.425248 -8.10004,-3.494543 -13.02985,-4.937312 -5.55155,-1.62473 -21.71752,-4.913383 -22.12915,-4.501744 -0.3168,0.316799 0.76334,9.982812 1.34523,12.038314 0.252,0.890165 5.49175,2.35267 20.20481,5.639505 4.64139,1.03687 6.29187,0.78508 8.18241,-1.248266 z m -56.30323,-2.251882 c 1.9914,-0.907341 3.24906,-3.854184 3.64122,-8.531773 0.28793,-3.434448 0.19694,-3.997147 -0.70214,-4.342154 -2.29251,-0.879718 -16.36716,1.851906 -17.6776,3.430887 -0.84647,1.01993 0.44415,3.409883 3.30863,6.12692 3.97771,3.772958 7.91813,4.916185 11.42989,3.31612 z"
     id="path937"
     transform="scale(0.75)" />
</svg>
