<svg xmlns="http://www.w3.org/2000/svg" width="400" height="388" version="1.0" viewBox="0 0 300 291"><path d="m62 3-8 5c-3 0-5 2-5 2l16 57 2 5-5 5-5 5-14-5-17-5c-6 0-10 7-8 13l13 13c10 8 12 10 11 12l-3 11-2 10-9 1-16 3c-8 2-12 5-12 11s4 8 13 10c24 4 24 4 25 7a342 342 0 0 0 5 19l-12 11-13 13c-2 6 2 13 8 13l17-5 15-5 5 5 4 5-9 30-9 32s2 2 5 2l8 5 3 3 22-23 23-24 13 3 5 25v3h15c4 1 4 1 5-1l4-26 4-1 12-3 8-3 9 11 9 11 4-3 8-5 5-2-2-5-5-13-3-8 9-9 9-9 12 5 13 4 3-4 1-4-17-6-16-6-2 4c-4 5-13 14-19 18l-4 4 6 16 5 15-22-25-11 3a104 104 0 0 1-24 6 591 591 0 0 1-7 33l-6-31c0-2-1-3-8-4a85 85 0 0 1-16-4 641 641 0 0 0-49 50 669 669 0 0 1 19-67l-2-3-8-8-6-8-10 4-17 6-7 3 14-12 14-12-3-6c-2-6-5-15-6-23v-5l-9-1-18-4-9-1 35-7 1-6 7-25 2-3-14-11-14-12 8 2 17 6 9 4 3-4a229 229 0 0 1 13-16A1099 1099 0 0 0 58 8c1-1 14 13 41 42l8 8 6-2 12-3c5 0 6-1 6-2a999 999 0 0 0 7-33l3 17 3 17 8 1 17 5 10 3 3-3 11-14 9-10-4-3-4-3-8 11-11 10-10-3-11-2-2-1-5-26c0-2 0-2-4-1h-15l-1 3-4 24-7 2-7 2-7-8-22-23L65 0l-3 3z"/><path d="m202 36-7 16-5 15 3 3c5 3 18 17 21 20l2 3 15-6 16-6c2-1-1-8-3-8l-11 4-12 4-11-9-9-9 5-12 5-13-4-2h-5zm-55 31v4a722 722 0 0 0 20 5l3-4 2-3-4-2-19-4-3-1 1 5zm-28-3-4 2c0 2 5 7 8 7 4 0 5-1 6-6 0-4 0-4-3-4l-7 1zm66 18-2 4 7 7 7 7 5-2c3-1 4-1 3-3l-16-16-3-2-1 5zm50 11-13 11 3 6 4 12c1 5 2 7 3 7l65 16 3-9-31-7-30-8-3-7-2-7 10-9 11-9-3-4-3-3-14 11zM76 91l-4 6 4 2c4 1 4 1 6-1 1-2 2-3 0-7l-1-5-5 5zm134 23c-3 2-3 3-2 6 1 4 2 4 8 6l3-1-5-14-4 3zm-150 6-4 12v5h4c6-1 6-2 6-4l2-9 2-6-3-3-4-3-3 8zm205 34-33 8c-1 0-2 1-3 7l-5 12-1 6 26 22 3-3 3-4-11-9-10-9 2-7 3-7 30-8 31-7c1-1-2-9-3-9l-32 7zm-208 5c0 6 5 20 6 20l4-3 3-3-2-6-2-9c0-2 0-3-6-4h-4l1 5zm156 7c-3 1-4 2-5 5s-1 3 2 6l4 3 5-14h-6zM74 193l-3 1 4 5 5 6 2-5c3-7-1-11-8-7zm116 5-7 7 2 4 2 4 10-9 9-9-3-1c-6-3-6-3-13 4zm-28 18-9 2c-5 1-6 2-6 3l-1 5c0 2 0 2 3 2s17-3 21-5l2-2-3-3c-3-4-4-4-7-2zm-44 5-2 4 13 3-1-5c0-4 0-5-4-5-3-1-4 0-6 3z"/><path d="m248 210 1-2m48-63v1m-50-65 2 1" style="fill:none;stroke:#000;stroke-width:.75px;stroke-linecap:butt;stroke-linejoin:miter;stroke-opacity:1"/><path d="m202 34 1 1" style="fill:#ff0;stroke:#000;stroke-width:.75px;stroke-linecap:butt;stroke-linejoin:miter;stroke-opacity:1"/><path d="M78 375a5720 5720 0 0 1 25-86c0-2 0-2-4-6l-11-12-7-8a573 573 0 0 0-42 15l16-14 17-15v-5a143 143 0 0 1-11-41 2808 2808 0 0 0-41-10l41-8 1-6a158 158 0 0 1 11-39l-35-30 23 8 20 7 3-3a427 427 0 0 1 18-22c1-1 0-4-5-24L78 12c1-1 16 15 42 43l22 23 4-2 21-5c6 0 8-1 9-3l7-43 5 21 5 24 7 1c9 1 17 3 28 7l11 3 10-12a49134 49134 0 0 1 19-21l-4 12-11 30 5 4a272 272 0 0 1 30 30 738 738 0 0 0 42-14l-3 2-17 14a8487 8487 0 0 1-14 12l3 8a280 280 0 0 1 9 26l10 3a8006 8006 0 0 0 77 19l-13 4a8245 8245 0 0 0-74 18l-4 9-4 14c-4 10-4 10 0 14a774 774 0 0 0 30 26 1133 1133 0 0 1-43-15l-4 4a233 233 0 0 1-30 30l6 16 8 24c-1 1-8-8-19-22l-9-9-11 3a168 168 0 0 1-35 8 1263 1263 0 0 1-10 43 1821 1821 0 0 1-9-43l-11-2a179 179 0 0 1-20-5l-43 43a1628 1628 0 0 1-22 21zm94-73-2-11h-9c-3 1-8 8-7 9l17 4 1-2zm41-1 13-4 4-1-1-2-8-8-4 1-11 3c-9 2-10 3-10 5l-1 5c-1 4-1 4 5 4l13-3zm42-21 21-20-12-4h-2l-18 18 2 5 3 5 6-4zm-146-9 1-5c3-10-2-13-12-9l-4 2 5 5 6 7c2 2 2 2 4 0zm179-35 3-10 1-5h-6c-5 1-7 2-9 6-1 4-1 5 1 8l7 5 3-4zm-202 2 5-4 2-3-1-3-4-17c0-3 0-3-2-4l-12-2 1 4c1 8 6 27 8 29h3zm-6-56c8-1 8-1 8-6l3-12c2-7 2-7 1-8l-8-7c-2 0-5 11-8 22l-2 12 6-1zm212-14c1-1 0-3-2-10s-4-10-5-10l-9 8 4 9 6 2 6 1zm-183-37 2-4-3-12c-1-1-10 9-12 13-1 2-1 2 4 4s6 2 9-1zm160 1c6-3 6-4 2-9-8-9-22-21-23-20l-2 6-2 6 9 9 10 9 6-1zm-45-33 6-7-13-5-22-4 1 12 20 5c5 1 7 1 8-1zm-56-2c2-1 3-4 4-9l-1-4c-2-1-16 2-18 3 0 1 1 4 4 7 4 3 8 4 11 3z" style="fill:#fff;stroke-width:.579104" transform="scale(.75)"/></svg>