<svg xmlns="http://www.w3.org/2000/svg" width="400" height="388" version="1.0" viewBox="0 0 300 291"><path d="M61.6 2.9c-1.6 1.7-5.1 3.8-7.8 4.7-2.6.8-4.8 2.1-4.8 2.7 0 1 4.8 17.5 16.4 56.8l1.4 4.6-4.7 5.3-4.7 5.3-14-5.2C35.6 74.3 28 72 26.3 72c-6.3 0-10.8 6.9-8.4 12.9.7 1.5 6.6 7.2 13.2 12.7 9.8 8.1 11.8 10.3 11.3 11.9-.3 1.1-1.7 6.4-3.2 11.7l-2.5 9.7-8.6 1.5c-4.7.8-11.7 2.1-15.6 2.7C3.9 136.6 0 139.8 0 145.5s3.9 8.9 12.5 10.4c24.4 4.1 24.5 4.1 25 7 .3 1.4 1.5 6 2.6 10.1 1.2 4.1 2.3 8.2 2.5 9 .3 1-3.9 5.1-11.5 11.4-6.6 5.5-12.5 11.2-13.2 12.7-2.4 6 2.1 12.9 8.4 12.9 1.7 0 9.2-2.3 16.7-5 7.5-2.8 14.1-5 14.6-4.9.5.1 2.8 2.2 5.1 4.8l4.3 4.8-9 30.4c-5 16.7-9 30.9-9 31.6 0 .6 2.1 1.8 4.7 2.7 2.6.9 6.1 3 7.8 4.6l3.2 3.1 22.2-23.6c12.3-12.9 22.6-23.5 22.9-23.5 1.7.1 12.5 2.9 12.9 3.4.5.4 1.6 6.2 4.8 24.5l.6 3.3 5.7-.6c3.1-.3 7.4-.2 9.5.3 3.3.8 3.8.7 4.2-1.3.7-3.1 4.5-24.9 4.5-25.7 0-.3 1.7-.9 3.8-1.3 2.1-.3 7.6-1.6 12.1-3l8.2-2.3 9.2 10.8 9.1 10.8 3.7-3c2-1.5 5.7-3.7 8.2-4.8l4.6-2-2.1-5.3c-1.1-2.9-3.2-8.7-4.8-12.9l-2.7-7.5 9.1-9.1 9.1-9.1 11.5 4.4c6.3 2.3 12.3 4.3 13.2 4.3 1.2.1 2.1-1.2 2.9-3.9.7-2.2 1-4.2.8-4.3-.2-.2-7.6-2.9-16.4-6.1l-16-5.7-2.9 3.8c-3.8 4.8-12.8 13.8-18.4 18.3l-4.3 3.5 5.9 16.2c3.3 9 5.6 16 5.1 15.7-.7-.4-19.4-22.4-21.5-25.3-.2-.2-5.2 1.2-11.1 3.2-5.9 2-13.8 3.9-17.5 4.3-3.8.4-6.8 1-6.8 1.3 0 2-6 33.4-6.4 33.9-.3.3-.6.1-.6-.4 0-1.1-4.7-28.8-5.5-31.9-.4-1.7-1.8-2.3-8.1-3.4-4.2-.7-9.4-1.9-11.6-2.7-2.2-.8-4.3-1.4-4.7-1.4-.4 0-11.4 11.4-24.6 25.4-13.2 14-24.1 25.1-24.3 24.7-.1-.4 4-15.2 9.3-32.9 5.2-17.7 9.5-33 9.5-33.9 0-1-.8-2.3-1.9-3-1-.6-4.5-4.5-7.8-8.6l-6-7.4-10.4 3.7c-5.7 2.1-13.4 4.9-17.1 6.4-3.8 1.4-6.8 2.3-6.8 2.1 0-.2 6.3-5.6 13.9-12l13.9-11.7-2.3-5.6c-2.7-6.7-5.1-15.6-6-22.9l-.7-5.1-8.6-1.6c-4.8-.8-12.9-2.3-18-3.2-5.1-.9-9.1-1.8-9-1.9.3-.3 34-6.5 35.1-6.5.3 0 .8-2.6 1.2-5.7.8-6.6 4.8-21.1 7-25.3l1.4-2.7L41 93.5c-7.7-6.4-14-11.8-14-12 0-.2 3.7 1 8.3 2.7 4.5 1.7 12.2 4.4 17 6.2l8.8 3.1 3.2-4c1.8-2.2 5.3-6.3 7.9-9.1 2.7-2.8 4.8-5.6 4.8-6.3 0-.6-4.3-15.6-9.5-33.3-5.3-17.7-9.4-32.5-9.3-32.9.3-.7 13.5 13 40.8 42.1l7.5 8 6.1-1.9c3.4-1.1 8.9-2.3 12.3-2.7 5.1-.5 6.2-1 6.6-2.8.7-3.1 5.5-30.9 5.5-32 0-.5.3-.7.6-.4.3.3 1.8 7.8 3.4 16.7 1.6 8.9 3.1 16.5 3.4 17 .3.4 3.5 1.1 7.1 1.4 3.6.4 11.3 2.2 17.1 4.2l10.5 3.5 2.7-3.2c1.5-1.8 6.6-7.9 11.4-13.5l8.7-10.2-3.7-3-3.8-3-8.8 10.6c-7.2 8.5-9.2 10.4-11 10-1.1-.3-5.7-1.4-10-2.6-4.4-1.2-9-2.1-10.3-2.1-1.2 0-2.3-.4-2.3-.8 0-.8-3.8-22.4-4.5-25.8-.4-2-.9-2.1-4.2-1.3-2.1.5-6.4.6-9.5.3l-5.7-.6-.6 3.3c-3.1 17.6-4.3 24-4.6 24.3-.2.2-3.3 1-6.9 1.9l-6.5 1.7-7.5-7.8C97.8 35 87.7 24.4 79.5 15.7L64.5-.1l-2.9 3z"/><path d="M201.6 35.8c-.3.5-3 7.8-6.1 16.3l-5.6 15.4 3.3 2.5c4.3 3.2 17.9 16.7 20.4 20.3l2 2.8 15.4-5.6c8.5-3.1 15.9-6 16.4-6.5 1.2-1.2-1.3-8-3-8-.7 0-6.1 1.8-11.9 4-5.8 2.1-11.1 4-11.8 4.2-.7.1-5.3-3.8-10.3-8.8l-9-9.1 4.7-12.7 4.7-12.8-3.4-1.4c-3.8-1.6-5.1-1.7-5.8-.6zM146.6 66.8c.3 2.6.7 4.7.8 4.7 0 0 4.3 1.1 9.3 2.3 5.1 1.3 9.7 2.1 10.2 1.7.6-.3 1.9-1.9 3.1-3.5l2.1-2.9-3.8-1.6c-3.5-1.5-11.2-3.5-19.1-4.9l-3.3-.6.7 4.8zM119.3 64.2c-2.4.5-4.3 1.3-4.3 1.8 0 2.2 5.3 7 7.8 7 4 0 5-1.1 5.8-5.8.6-4.1.6-4.2-2.2-4.1-1.6.1-4.8.5-7.1 1.1zM184.8 81.5l-1.7 4.4 7.1 6.9 7.2 7 4.3-1.5c3.6-1.3 4.1-1.7 3.3-3.3-1.3-2.4-11.8-13-15.6-15.7l-3-2.2-1.6 4.4zM235.3 92.7c-7 5.8-12.9 10.7-13 10.8-.2.1.8 2.9 2.2 6.2 1.3 3.3 3.2 9 4.1 12.6 1 4.3 2.2 6.8 3.3 7.1 3.1.9 64.7 15.6 65.4 15.6.8 0 3-8 2.4-8.6-.2-.3-14.1-3.8-30.8-7.8l-30.3-7.3-2.3-6.8c-1.3-3.8-2.3-7.2-2.3-7.6 0-.4 4.7-4.7 10.5-9.4l10.4-8.7-2.7-3.4c-1.5-1.9-3-3.4-3.4-3.4-.3 0-6.4 4.8-13.5 10.7zM75.7 91.1c-2.5 2.9-4.4 5.6-4.1 6 .3.5 2.3 1.4 4.4 2 3.6 1.1 4.1 1 5.8-1.1 1.7-2.1 1.8-2.7.5-6.8-.7-2.5-1.5-4.7-1.7-4.9-.2-.2-2.4 2-4.9 4.8zM210.3 113.8c-3.2 2.6-3.3 2.8-2.1 6.4 1.1 3.8 1.6 4.1 7.6 5.3 2.4.5 3.2.3 3.2-.7 0-2.2-4.1-13.8-4.8-13.8-.4 0-2.2 1.3-3.9 2.8zM59.6 119.7c-1.3 4.3-2.7 10-3.1 12.7l-.8 4.8 4.4-.7c5.6-.9 5.9-1.1 5.9-4 0-1.3.9-5.1 1.9-8.5l1.9-6.2-3.1-2.9c-1.8-1.5-3.5-2.9-3.9-2.9-.4 0-1.8 3.5-3.2 7.7zM265 153.5c-16.8 4.1-31.5 7.7-32.6 8-1.7.4-2.5 1.9-3.8 7-.9 3.6-2.7 9-4.1 12.1-1.4 3.1-2.2 6-1.9 6.5.8 1.4 25.4 21.9 26.2 21.9.4 0 1.9-1.5 3.4-3.4l2.7-3.4-10.4-8.7c-5.8-4.7-10.5-9-10.5-9.4 0-.4 1-3.8 2.3-7.5l2.3-6.9 30.3-7.3c16.7-4 30.5-7.5 30.8-7.8.9-.8-1.8-8.6-3-8.5-.7 0-14.9 3.4-31.7 7.4zM56.5 158.7c.9 6 5.3 20.3 6.3 20.3.4 0 2.1-1.4 3.9-3l3.2-2.8-2-6.4c-1-3.5-1.9-7.3-1.9-8.6 0-2.4-.5-2.7-6.4-3.7l-3.8-.6.7 4.8zM212.8 166.2c-3 .8-3.9 1.6-4.9 4.6-1.1 3.4-1 3.6 2.2 6.3 1.9 1.6 3.7 2.9 4 2.9.6 0 4.9-11.9 4.9-13.8 0-1.4-1-1.4-6.2 0zM74.2 192.5l-3.4 1.5 4.2 5c2.3 2.7 4.6 5.2 5 5.5.5.3 1.5-1.6 2.3-4.2 2.3-7.8-1-10.9-8.1-7.8zM189.8 198.2l-6.8 6.9 1.6 3.9c.9 2.2 2 4 2.6 4 .5 0 5-4.1 10.1-9.1l9.2-9.2-3-1.2c-6.3-2.6-6.7-2.5-13.7 4.7zM161.9 215.5c-2 .7-6.2 1.8-9.3 2.5-4.7 1-5.6 1.5-5.6 3.3 0 1.2-.3 3.2-.6 4.4-.6 2-.3 2.3 2.3 2.3 3.7 0 17.4-3.4 20.8-5.2l2.6-1.4-3.3-3.6c-3.2-3.6-3.4-3.6-6.9-2.3zM117.9 220.8c-1.6 1.8-2.7 3.7-2.4 4.1.5 1 12.5 3.5 13.2 2.8.2-.3.1-2.5-.2-5-.7-4.2-.9-4.5-4.2-4.9-2.9-.4-3.9.1-6.4 3z"/><path d="m247.9 209.7 1.171-1.782M297.366 144.537l-.666 1.563M247.35 80.894l1.357 1.303" style="fill:none;stroke:#000;stroke-width:.75px;stroke-linecap:butt;stroke-linejoin:miter;stroke-opacity:1"/><path d="m201.9 34.1.874 1.295" style="fill:#ff0;stroke:#000;stroke-width:.75px;stroke-linecap:butt;stroke-linejoin:miter;stroke-opacity:1"/><path d="M78.456 375.2c.43-1.834 6.136-21.795 17.26-60.375 3.697-12.822 6.883-24.32 7.08-25.55.346-2.166.222-2.376-3.847-6.51-2.313-2.35-7.07-7.79-10.572-12.091-4.163-5.113-6.688-7.754-7.295-7.628-.51.105-7.703 2.673-15.984 5.706-8.281 3.032-17.504 6.408-20.496 7.502-2.99 1.093-5.705 1.899-6.032 1.79-.327-.11 6.942-6.541 16.152-14.294 9.21-7.752 17.21-14.528 17.777-15.058.986-.92.968-1.105-.422-4.247-4.233-9.572-7.803-22.232-9.63-34.153-.643-4.193-1.221-7.655-1.286-7.692-.064-.037-10.02-1.838-22.123-4.002-12.103-2.164-22.491-4.114-23.085-4.333-.704-.26.705-.724 4.054-1.335 28.88-5.268 40.513-7.503 40.838-7.847.212-.225.811-3.145 1.33-6.49 1.842-11.848 6.65-28.964 9.985-35.548 1.224-2.415 1.33-2.985.654-3.502-2.646-2.022-34.104-28.877-34.413-29.378-.503-.813-.78-.906 22.204 7.403 10.906 3.943 20.16 7.17 20.566 7.17.405 0 1.807-1.369 3.117-3.041 1.309-1.672 5.77-6.91 9.915-11.642 4.145-4.73 7.854-9.195 8.243-9.921.612-1.144-.162-4.328-5.795-23.829C80.526 20.48 78.14 12.072 78.293 11.61c.22-.662 16.024 15.583 42.07 43.241l21.508 22.841 4.467-1.402c6.488-2.036 15.324-4.09 20.972-4.875 5.98-.831 7.902-1.72 8.34-3.853 1.18-5.733 7.165-40.53 7.346-42.7.126-1.526 1.383 4.297 4.619 21.408 4.22 22.313 4.464 23.335 5.674 23.71.522.16 3.686.697 7.03 1.19 8.557 1.264 16.551 3.27 27.885 6.996 5.383 1.77 10.133 3.135 10.555 3.034.421-.101 5.176-5.396 10.566-11.766 5.39-6.37 11.729-13.86 14.087-16.643 2.359-2.784 4.39-4.96 4.514-4.835.125.124-1.726 5.528-4.112 12.01-8.253 22.42-10.822 29.66-10.665 30.055.087.219 2.243 2.058 4.79 4.088 5.983 4.766 23.64 22.476 26.64 26.718 1.274 1.802 2.644 3.289 3.045 3.304.916.035 30.683-10.797 37.048-13.482 4.38-1.847 5.366-2.02 5.366-.94 0 .227-1.403 1.472-3.118 2.767-1.715 1.295-9.338 7.491-16.939 13.77a8487.1 8487.1 0 0 1-13.99 11.542c-.094.07 1.11 3.613 2.675 7.872 2.83 7.702 3.84 10.757 6.69 20.238.82 2.731 1.954 5.383 2.519 5.893.564.51 5.196 1.976 10.292 3.256 9.279 2.332 67.135 16.11 73.401 17.481 1.832.401 3.33 1.013 3.33 1.36 0 .348-5.93 2.023-13.175 3.722-7.246 1.7-26.595 6.343-42.998 10.32-24.881 6.031-30.022 7.448-31.021 8.546-.67.737-2.16 4.609-3.382 8.79-1.2 4.112-3.358 10.462-4.794 14.112-3.85 9.786-3.852 9.606.223 13.372 3.555 3.285 16.576 14.233 25.075 21.083 4.36 3.512 5.831 4.947 5.077 4.947-.128 0-8.033-2.827-17.566-6.281-22.073-7.999-25.092-9.04-25.335-8.735-.11.137-1.728 2.203-3.598 4.592-4.399 5.622-17.57 18.79-24.596 24.589-3.025 2.497-5.576 4.726-5.667 4.953-.092.226 2.414 7.549 5.568 16.272 6.8 18.806 8.423 23.656 8.044 24.035-.324.323-7.531-7.87-19.14-21.756-4.405-5.27-8.385-9.668-8.843-9.772-.459-.104-5.454 1.25-11.1 3.01-13.275 4.139-20.416 5.92-27.942 6.974-3.351.47-6.498 1.009-6.993 1.199-.646.248-1.255 2.42-2.16 7.706-.692 4.048-2.615 14.266-4.274 22.706-2.651 13.497-3.07 15.067-3.474 13.03-.253-1.274-1.749-9.873-3.324-19.11-3.789-22.215-3.91-22.733-5.547-23.805-.746-.49-5.608-1.762-10.805-2.829-5.198-1.067-11.535-2.608-14.083-3.426-2.548-.818-5.193-1.49-5.879-1.494-1.267-.008-4.303 3.07-43.146 43.72-9.127 9.553-17.81 18.54-19.294 19.974-2.692 2.599-2.7 2.601-2.293.869zm93.374-73.68c.271-3.73-.866-8.99-2.18-10.077-1.7-1.408-5.922-1.874-8.227-.91-3.107 1.302-8.646 8.178-7.752 9.625.638 1.031 14.387 4.154 17.114 3.887.589-.058.925-.87 1.045-2.524zm41.31-.085c4.96-1.265 10.772-3.095 12.915-4.067l3.897-1.767-1.163-1.607c-1.59-2.198-7.135-7.488-8.201-7.824-.478-.15-2.042.083-3.475.519-1.433.436-6.254 1.718-10.713 2.849-9.783 2.48-10.709 2.99-10.728 5.904-.008 1.187-.28 3.31-.604 4.716-.937 4.068-.638 4.325 4.561 3.925 2.472-.191 8.552-1.382 13.512-2.648zm41.449-21.026c5.707-5.202 21.013-20.37 21.013-20.823 0-.584-9.691-3.971-11.36-3.971-.8 0-2.025.288-2.72.641-1.42.72-17.77 16.765-17.77 17.438 0 .237 1.025 2.651 2.279 5.364 1.765 3.82 2.544 4.933 3.453 4.933.646 0 2.943-1.612 5.105-3.582zm-146.07-9.135c.488-.943 1.295-3.475 1.793-5.625 2.241-9.663-2.022-12.894-11.927-9.04-2.223.864-4.042 1.797-4.042 2.073 0 .275 2.02 2.839 4.488 5.697 2.468 2.859 5.14 5.964 5.936 6.901 1.826 2.15 2.638 2.148 3.752-.007zm179.38-35.638c.922-2.23 2.342-6.359 3.157-9.175 1.289-4.458 1.373-5.23.647-5.955-.726-.726-1.42-.706-5.352.158-5.675 1.247-7.834 2.671-9.114 6.011-1.598 4.17-1.372 5.822 1.116 8.16 3.807 3.578 6.065 5.204 6.981 5.027.49-.095 1.645-1.997 2.566-4.226zm-201.874 1.882c.964-.717 3.021-2.424 4.571-3.794l2.819-2.49-1-3.59c-2.515-9.04-3.795-14.23-4.147-16.812-.332-2.445-.613-2.895-2.22-3.563-1.668-.694-11.458-2.608-11.847-2.316-.089.067.124 2.047.473 4.4 1.202 8.107 6.491 26.591 8.225 28.744.792.984 1.101.926 3.126-.58zm-6.16-55.155c7.88-1.38 7.871-1.374 8.628-6.564.356-2.444 1.597-7.638 2.757-11.541 2.082-7.006 2.095-7.113 1.008-8.335-1.716-1.93-7.754-6.863-8.401-6.863-1.38 0-5.271 11.176-7.66 22.006-1.848 8.372-2.395 12.16-1.754 12.16.275 0 2.715-.389 5.422-.863zm211.87-14.709c.969-.614.647-2.409-1.775-9.908-2.12-6.564-3.687-9.845-4.701-9.845-1.25 0-8.457 6.293-8.808 7.69-.485 1.935 2.068 8.512 3.784 9.747.797.573 3.272 1.424 5.502 1.89 4.964 1.038 5.025 1.042 5.998.426zM108.91 131.083c1.618-1.701 2.227-2.84 2.227-4.169 0-2.281-2.697-11.251-3.539-11.772-1.07-.66-9.89 8.84-12.08 13.01-.87 1.66-.449 2 4.885 3.931 5.017 1.817 5.93 1.71 8.507-1zm159.743.436c6.501-2.456 6.68-3.317 1.85-8.9-7.713-8.917-21.006-20.67-22.1-19.543-.28.288-1.453 3-2.605 6.025l-2.096 5.502 9.72 9.41c5.346 5.176 9.852 9.4 10.014 9.388.162-.012 2.51-.859 5.217-1.882zm-44.226-32.407c2.069-2.225 5.426-6.55 5.426-6.99 0-.426-8.1-3.495-13.03-4.938-5.551-1.625-21.717-4.913-22.129-4.502-.317.317.764 9.983 1.345 12.039.252.89 5.492 2.352 20.205 5.639 4.642 1.037 6.292.785 8.183-1.248zm-56.304-2.252c1.992-.907 3.25-3.854 3.642-8.532.288-3.434.197-3.997-.702-4.342-2.293-.88-16.368 1.852-17.678 3.43-.847 1.02.444 3.41 3.309 6.128 3.977 3.773 7.918 4.916 11.43 3.316z" style="fill:#fff;stroke-width:.579104" transform="scale(.75)"/></svg>