<svg xmlns="http://www.w3.org/2000/svg" width="384" height="385" version="1.0" viewBox="0 0 288 289"><path d="M24 144v120h240V24H24v120zM168 33c7 1 9 1 38-1h32l7 18 6 18v12c0 12 0 13-2 13-1 1-2 2-1 3l9 29a111 111 0 0 1-32 99c-20 21-43 31-71 34-22 2-49-4-66-15l-6-3-17 7c-11 5-16 6-17 6l-4-10c-5-10-6-22-6-41 0-13 0-15-2-22l-5-17c-2-13-1-34 2-46 2-6 2-9 2-18l-1-10h10l5-9c18-25 45-43 77-49 10-1 32-1 42 2z"/><path d="m144 77-84 37-4-2c-4-3-6-4-8-2-2 1-2 3 0 16 1 11 2 14 4 16 3 4 3 12 0 32l-1 19c3 20 4 25 2 31-1 7-1 8 1 11l2 2 29-12 29-13-3-11c-3-11-3-12-2-16l2-6 18-8c25-11 25-11 28-17 4-5 4-6 3-20v-14l17-7 36-16 18-8V79c0-10 0-11 3-13l3-3-4-11-5-11-84 36zm4 60c0 10 0 10-18 17l-17 7c-1 0-4-18-3-19l19-8 17-8 1 3 1 8z"/><path d="M185 344a156 156 0 0 1-76-24l-15 6-28 11-5-7c-8-16-9-25-10-58 0-25 0-25-4-34-1-5-5-19-5-25a233 233 0 0 1 2-55c3-11 3-12 2-23v-13l-1-3h13l6-8 19-24c24-25 60-43 92-46 14-1 39 1 50 3h48l32-2h12l1 2 13 36 4 12-1 14v17l-2 1c-2 1-3 3-2 4 2 4 10 28 11 36 3 16 3 42-1 60-2 14-11 35-19 47a149 149 0 0 1-137 72zm-72-44 39-17-4-16c-4-14-4-17-1-25 2-3 0-3 28-15l25-11c5-3 8-7 11-12l3-5v-39l5-2a46740 46740 0 0 1 88-39l1-11c0-17 0-16 5-20l3-4v-2l-12-28a5485 5485 0 0 0-224 98l-5-3c-4-3-5-3-7-3l-4 1c-2 2-2 4-1 17 2 17 3 20 6 26l3 6-1 10-1 21c-2 18-2 27 0 40 2 18 2 23 1 31-2 10-2 12 1 15l2 3 39-16z" style="fill:#fff;stroke-width:.575124" transform="scale(.75)"/><path d="m150 212-3-17v-5l7-3 24-11 17-7 1 1 1 10c1 12-1 15-8 19l-38 15-1-2z" style="fill:#fff;stroke-width:.575124" transform="scale(.75)"/></svg>