<svg xmlns="http://www.w3.org/2000/svg" width="384" height="385.333" version="1.0" viewBox="0 0 288 289"><path d="M24 144v120h240V24H24v120zM168 32.6c7.1 1.5 9.3 1.5 38.3-.1 18.7-1.1 31.1-1.5 31.6-.9.4.5 3.6 8.9 7 18.6l6.1 17.6v12.6c0 11.7-.1 12.5-2.1 13.1-1.4.5-1.8 1.2-1.3 2.3 3.2 7.5 7.7 22.2 9 29.6 2.3 13.1 1.4 33.8-1.9 46.6-5.5 20.9-15.1 37.7-30.1 52.6-20.1 20.1-42.7 30.7-71.1 33.4-21.6 2-48.3-3.9-66-14.6l-6-3.5-16.2 6.9c-11.7 5-16.5 6.7-17.2 5.8-.5-.6-2.5-4.7-4.4-9.1-4.3-10-6-22.3-5.6-41.9.2-13 0-14.7-2.4-21.7-1.5-4.2-3.4-11.8-4.3-17-2.2-12.7-1.5-34.1 1.6-45.4 1.8-6.8 2-9.5 1.5-18.3L33.8 89h9.8l5.9-8.7C67.1 54.5 94.4 37 125.7 31.4c9.9-1.7 32.1-1.1 42.3 1.2z"/><path d="M144 77.1c-45.9 20.3-83.7 37.1-84 37.2-.3.1-2.1-1-4.1-2.6-4-3-5.6-3.3-8-1.4-1.6 1.2-1.6 2.3 0 15.3 1.3 11.4 2.1 14.6 3.9 16.9 2.8 3.5 2.9 11.4.6 31.3-.9 8-1.3 15.8-.9 18.7 2.8 20.7 3.1 25.1 1.8 31-1.6 7.8-1.6 8.6.6 11.2l1.9 2.3 28.8-12.2c15.9-6.7 29.1-12.3 29.3-12.4.2-.2-1.1-5.5-2.9-11.7-3.1-10.7-3.2-11.8-2-16.1.7-2.5 1.8-5 2.4-5.5.6-.5 8.4-4.1 17.3-8 24.9-10.8 25.4-11.1 28.8-17.3 3-5.2 3-5.5 2.8-19.5l-.1-14.1 17.1-7.6c9.5-4.2 25.3-11.1 35.2-15.5l18-7.9.3-10.3c.2-10.2.3-10.5 3.2-13l3.1-2.6-4.2-10.9c-2.3-6-4.5-11.2-4.8-11.6-.3-.4-38.2 16-84.1 36.3zm3.9 60.1c.2 9.6.2 9.6-17.8 17.1-8.9 3.7-16.5 6.7-17 6.7-.9 0-3.7-17.7-2.9-18.5.3-.3 8.6-4.1 18.4-8.5l17.9-7.9.6 2.7c.4 1.5.7 5.3.8 8.4z"/><path d="M184.523 343.854c-24.54-1.328-49.084-8.67-69.854-20.893-2.983-1.756-5.705-3.192-6.05-3.192-.345 0-6.765 2.618-14.266 5.818-17.442 7.44-25.85 10.73-28.018 10.963-1.67.18-1.833-.03-5.045-6.429-7.94-15.819-9.553-25.08-10.175-58.375-.457-24.486-.45-24.416-3.762-33.645-1.746-4.865-4.902-18.684-5.78-25.305-1.167-8.8-1.149-30.503.034-40.527.483-4.102 1.533-10.313 2.331-13.803 2.644-11.55 2.712-12.23 2.352-23.312-.19-5.852-.516-11.869-.724-13.371l-.38-2.732h13.16l5.55-8.196c6.837-10.095 11.739-16.252 18.83-23.648 24.023-25.056 60.137-42.945 92.595-45.867 13.368-1.204 38.767.18 50.038 2.724 5.797 1.309 19.912 1.217 47.446-.309 11.704-.649 26.37-1.352 32.593-1.564l11.314-.384.964 2.245c1.442 3.358 8.184 21.92 12.933 35.603l4.19 12.077-.34 14.689c-.187 8.079-.594 15.357-.905 16.174-.322.848-1.184 1.641-2.006 1.848-1.69.424-2.408 2.148-1.557 3.737 1.965 3.671 9.531 28.014 11.21 36.066 3.196 15.323 2.815 42.184-.855 60.248-2.775 13.656-11.247 34.686-18.921 46.965-8.186 13.097-23.53 30.261-35.68 39.913-29.078 23.1-64.508 34.469-101.222 32.482zm-71.289-43.933c21.292-9.02 38.807-16.493 38.923-16.61.288-.287-.626-3.985-3.993-16.166-4.038-14.605-4.146-17.633-.896-25.187 1.45-3.37-.045-2.569 28.189-15.122 11.787-5.24 22.709-10.22 24.27-11.065 4.896-2.652 8.414-6.368 11.252-11.887l2.588-5.032.288-19.234.287-19.234 4.601-2.044c2.53-1.125 23.365-10.31 46.298-20.413 22.933-10.103 41.872-18.548 42.086-18.766.215-.219.548-5.056.74-10.75.575-17.053.346-16.076 4.759-20.334l3.788-3.655-.736-2.096c-2.62-7.454-11.17-28.264-11.613-28.264-1.93 0-55.266 23.22-168.283 73.26-30.445 13.481-55.604 24.51-55.908 24.51-.305 0-2.644-1.423-5.2-3.162-3.859-2.628-5.065-3.164-7.127-3.164-1.837 0-2.877.367-4.003 1.41-1.914 1.774-1.956 3.779-.364 17.282 2.036 17.278 2.648 20.117 5.636 26.138l2.695 5.434-.062 9.807c-.038 5.917-.566 14.256-1.33 21.022-2.056 18.173-2.149 27.54-.404 40.84 2.274 17.341 2.446 22.593 1 30.592-1.826 10.104-1.704 11.816 1.097 15.36 1.273 1.61 2.403 2.927 2.512 2.927.109 0 17.618-7.379 38.91-16.397z" style="fill:#fff;stroke-width:.575124" transform="scale(.75)"/><path d="M150.068 211.79c-.921-3.503-2.32-12.229-2.722-16.994l-.374-4.43 6.842-3.252c3.763-1.789 14.606-6.695 24.095-10.902l17.254-7.65.42 1.844c.23 1.014.707 5.118 1.06 9.119 1.068 12.161-.22 15.22-8.07 19.164-6.69 3.361-35.636 15.257-37.125 15.257-.455 0-1.062-.95-1.38-2.156z" style="fill:#fff;stroke-width:.575124" transform="scale(.75)"/></svg>