<svg xmlns="http://www.w3.org/2000/svg" width="240" height="400" version="1.0" viewBox="0 0 180 300"><path d="M12 1C3 2 3 3 3 6v4l10 2a143 143 0 0 1-5 275l-8 3v3c0 3 0 4 3 4A150 150 0 0 0 136 44 148 148 0 0 0 12 1zm42 9c29 4 55 18 77 40 27 27 41 61 41 100s-14 73-42 101a140 140 0 0 1-105 41c-3 0-2-1 7-4a151 151 0 0 0 91-160c-8-50-40-94-85-114L26 8c-3-1 16-1 28 2z"/><path d="m33 389 3-2 10-4a200 200 0 0 0 119-201A201 201 0 0 0 36 11a184 184 0 0 1 116 36c17 13 35 32 47 50 16 24 25 48 29 78v50a179 179 0 0 1-61 115 185 185 0 0 1-134 49z" style="fill:#fff;stroke-width:.597015" transform="scale(.75)"/></svg>