<svg xmlns="http://www.w3.org/2000/svg" width="381.333" height="385.333" version="1.0" viewBox="0 0 286 289"><path d="M24 144v120h240V24H24v120zM162 31.5c23.7 3.9 45 14.7 61.9 31.4 17.7 17.6 29.8 41.2 33.2 65 2.8 19.4-.4 43.1-8.4 61.7-12.3 29.1-41.1 55.1-71.1 64.3-25.5 7.9-53.3 6.3-78.3-4.2-24.8-10.5-49.5-35.1-60-60.1-8-18.7-11.2-42.3-8.3-61.7 9.1-62.7 68.6-106.5 131-96.4z"/><path d="M72 146.5V212h31v-47.7c0-30.1.4-47.3.9-46.8.6.6 7.5 16.3 15.5 35l14.5 34h21.2l14.6-34c8-18.7 14.9-34.4 15.4-34.9.5-.6.9 18.6.9 46.7V212h31V81l-21.2.2-21.2.3-14.9 34.8c-8.3 19.2-15.3 34.5-15.7 34-.4-.4-7.2-16.2-15.1-35l-14.4-34.2-21.2-.1H72v65.5z"/><path d="M182.253 344.475c-20.838-1.403-44.377-8.115-60.889-17.361-30.632-17.155-57.187-46.438-69.508-76.647-7.5-18.39-11.402-38.818-11.428-59.813-.028-23.284 4.646-43.05 15.365-64.99 18.633-38.133 53.068-67 94.615-79.313 41.837-12.398 88.242-5.177 125.377 19.51 32.038 21.298 56.339 56.652 64.63 94.024 4.169 18.794 4.38 39.066.62 59.525-3.919 21.315-10.955 39.015-22.177 55.787-21.04 31.445-54.553 56.02-88.24 64.706-9.034 2.33-18.557 3.878-28.161 4.58-8.759.639-10.604.638-20.204-.009zm-44.42-117.445c.043-30.762.237-59.036.432-62.832l.353-6.901 3.914 8.626c2.153 4.745 11.082 25.38 19.842 45.857l15.927 37.23 14.383.01 14.382.008 12.614-29.475c6.939-16.211 15.866-36.85 19.838-45.866l7.223-16.391.36 8.34c.197 4.586.391 32.86.43 62.832l.073 54.493h41.984V107.723l-28.325.264c-15.578.146-28.477.43-28.663.632-.187.201-5.596 12.66-12.02 27.685-11.77 27.524-23.19 53.331-26.525 59.937l-1.804 3.574-1.307-2.57c-1.249-2.458-16.601-38.467-31.037-72.796l-6.799-16.17-4.657-.362c-2.561-.2-15.462-.364-28.668-.366l-24.012-.003v175.413h41.984z" style="fill:#fff;stroke-width:.575124" transform="scale(.75)"/></svg>