<svg xmlns="http://www.w3.org/2000/svg" width="381" height="385" version="1.0" viewBox="0 0 286 289"><path d="M24 144v120h240V24H24v120zM162 32a113 113 0 0 1 95 96c3 19 0 43-8 62-13 29-41 55-71 64-26 8-54 6-79-4-24-11-49-35-60-60A115 115 0 0 1 162 32z"/><path d="M72 147v65h31v-48c0-30 0-47 1-46l15 35 15 34h21l15-34 15-35c1-1 1 18 1 46v48h31V81h-21l-21 1-15 34-16 34-15-35-14-34H72v66z"/><path d="M182 344c-21-1-44-8-61-17-30-17-57-46-69-77-8-18-12-38-12-59A154 154 0 0 1 150 47c42-13 89-6 126 19a150 150 0 0 1 43 209c-21 32-55 56-88 65a160 160 0 0 1-49 4zm-44-117v-63l1-7 4 9 19 46 16 37h29l13-29 20-46 7-17v9l1 62v55h42V108h-29l-28 1-12 27-27 60-2 4-1-3-31-73-7-16H96v175h42z" style="fill:#fff;stroke-width:.575124" transform="scale(.75)"/></svg>