<svg xmlns="http://www.w3.org/2000/svg" width="381" height="388" version="1.0" viewBox="0 0 286 291"><path d="M24 145v120h240V25H24v120zM160 32a115 115 0 0 1 95 141 115 115 0 0 1-223-47 115 115 0 0 1 128-94z"/><path d="m143 39-12 59 12 1h11a4834 4834 0 0 0-11-60zm-13 67c-18 5-35 20-44 39-4 7-7 20-7 26v3h21v-12h16v12h18v-7l1-7h15v14h18v-13h16v13h11l11-1v-4c-1-22-16-44-36-56-12-7-28-9-40-7zM79 209v25h128v-50h-23v23h-16v-23h-18v22h-16v-22h-18v24h-8l-8-1v-23H79v25z"/><path d="M179 345A154 154 0 0 1 42 217l-1-24 1-25A155 155 0 0 1 174 43h39a154 154 0 0 1 129 173 154 154 0 0 1-163 129zm97-66v-33l-16-1h-15v31h-21v-31h-24v29h-21v-29h-25v32h-7l-9-1c-3 0-3 0-4-2v-25l-1-4h-28v67h171zm-143-55v-8h21v16h25v-14l1-4h19v6l1 9v3h24v-17h21v17h21l9-1v-3a99 99 0 0 0-42-73c-9-7-19-11-30-13l-16-1-15 1c-23 6-45 25-57 48-5 12-9 26-10 37v5h28zm72-92a1776 1776 0 0 0-15-80 2208 2208 0 0 0-14 79l29 1z" style="fill:#fff;stroke-width:.579104" transform="scale(.75)"/></svg>