<svg xmlns="http://www.w3.org/2000/svg" width="381.333" height="388" version="1.0" viewBox="0 0 286 291"><path d="M24 145v120h240V25H24v120zM159.6 32.1c49.1 6.8 88.5 45.1 97 94.4 2.3 13.1 1.5 33.8-1.9 46.7-10.7 40.9-42.3 72.5-82.7 82.8-60.8 15.4-122.6-21.4-138.7-82.8-3.4-12.9-4.2-33.6-1.9-46.7 7.5-43.5 39.2-79 81.3-91 15.3-4.4 31.5-5.6 46.9-3.4z"/><path d="M142.7 39C142 40.8 131 95.9 131 97.7c0 1 3 1.3 11.5 1.3 6.3 0 11.5-.2 11.5-.5 0-.6-9.9-57.5-10.4-59.5-.3-1.3-.4-1.3-.9 0zM130.4 106.4c-18.3 4.2-35.9 19.3-44.8 38.6-3.4 7.4-6.6 20-6.6 26v3h21v-12h16v12h17.9l.3-6.8.3-6.7h15l.3 6.7.3 6.8H168v-13h16v13.1l11.2-.3 11.2-.3-.3-4.9c-1.3-21.1-16.3-44-36.2-55.4-12.1-6.9-27.5-9.5-39.5-6.8zM79 209v25h128l-.2-24.8-.3-24.7-11.2-.3-11.3-.3V207h-16v-23h-18v22h-16v-22h-18v24.1l-7.7-.3-7.8-.3-.3-11.8-.3-11.7H79v25z"/><path d="M178.505 345.1c-44.857-4.256-86.15-28.64-111.718-65.972-12.73-18.587-21.448-40.32-24.741-61.674-.87-5.648-1.07-10.313-1.068-24.902.002-16.118.133-18.632 1.282-24.612 6.334-32.955 21.908-61.831 45.432-84.239 23.64-22.517 52.472-36.213 86.18-40.938 8.386-1.176 30.446-1 39.09.311 65.192 9.889 116.124 58.952 128.505 123.79 2.387 12.5 2.656 33.76.622 49.142-4.975 37.616-27.437 75.224-59.236 99.178-29.703 22.375-68.028 33.363-104.348 29.916zm97.523-66.116c-.216-18.235-.421-33.185-.457-33.223-.036-.038-6.906-.252-15.267-.476l-15.202-.407v30.776h-20.847V244.96h-24.323v29.535h-20.847V244.96h-24.901v32.149l-6.805-.159c-3.743-.087-8.141-.3-9.775-.471-2.899-.305-2.978-.364-3.323-2.452-.195-1.176-.357-6.204-.36-11.172-.003-4.968-.175-11.027-.381-13.464l-.375-4.43H104.96V312.136h171.46zm-142.693-54.87v-8.108h20.848v16.215h24.902l.004-5.067c.002-2.787.17-6.826.373-8.976l.369-3.91h19.522v5.417c0 2.98.168 7.019.372 8.976l.372 3.56h24.158V214.848h20.847V232.22l5.936-.002c3.265-.001 10.04-.172 15.057-.38l9.12-.379v-3.454c0-14.515-6.818-33.698-17.234-48.484-5.168-7.336-18.001-20.147-24.75-24.707-9.576-6.47-19.3-10.614-30.584-13.035-4.734-1.015-7.787-1.263-15.455-1.255-8.423.01-10.219.188-15.155 1.506-23.179 6.193-45.035 24.811-56.588 48.205-5.58 11.299-9.596 25.467-10.3 36.338l-.365 5.647H133.335zm72.008-92.513c.5-.814-13.338-80.068-14.122-80.879-.302-.313-.743.08-1.078.962-.993 2.612-14.149 67.84-15.416 76.438-.373 2.526-.296 2.789.963 3.293 1.615.646 29.263.82 29.653.186z" style="fill:#fff;stroke-width:.579104" transform="scale(.75)"/></svg>