<svg xmlns="http://www.w3.org/2000/svg" width="400" height="404" version="1.0" viewBox="0 0 300 303"><path d="M25 151v126h253V25H25v126zM169 33z"/><path d="M143 68c-12 2-22 11-28 23-3 6-4 7-4 16 1 9 1 11 3 16l7 11 3 4-10 16-9 17-6-2H89c-5 1-11 6-13 11-2 6 0 16 5 21s15 6 21 3c4-2 9-7 10-10 0-2 1-2 39-2h39l3 5c6 11 21 12 29 3 11-11 6-28-10-31h-9l-4 2-10-17-10-17 3-4c20-22 7-59-24-65h-15zm23 7c7 4 13 10 17 18 3 6 4 7 4 14l-3 15-6 8-2 2-11-19c-9-16-11-18-13-18s-3 0-18 26c-7 12-7 12-9 10-4-3-8-14-9-21-2-26 26-46 50-35zm-3 43 10 17-2 2c-4 3-16 6-23 6-5-1-17-5-17-7l21-35 11 17zm31 53c1 3 1 3-1 5l-2 7-2 4-38 1h-38v-3l-3-7-2-3 10-16 10-17 6 2c11 5 24 5 36-1l6-3 8 14 10 17z"/><path d="M186 361A160 160 0 0 1 49 155 161 161 0 0 1 203 43c27 0 49 6 72 18a160 160 0 0 1 82 104 160 160 0 0 1-171 196zm-57-87c8-1 15-6 19-13l3-4 51-1h51l3 6c6 9 13 13 23 13 5 0 6 0 10-3 8-3 13-10 15-19 2-10-4-20-13-25-7-4-14-5-21-2l-4 1-6-10a4721 4721 0 0 0-14-22l-7-12 4-5c9-11 12-21 12-34a55 55 0 0 0-63-54 57 57 0 0 0-41 33l-2 12c-1 7-1 19 1 24 1 5 6 14 11 20l4 5-1 2a8247 8247 0 0 0-24 41l-7-1c-9-3-16-2-23 4-7 5-10 11-10 19 0 13 7 22 19 25h10z" style="fill:#fff;stroke-width:.602985" transform="scale(.75)"/><path d="M166 174c-3-3-6-9-8-16-3-8-3-18-1-25 4-20 21-35 42-36a47 47 0 0 1 41 20l8 17c1 5 0 19-1 23l-9 16-3 3-8-14c-16-28-21-35-23-36s-4 0-6 3a566 566 0 0 0-28 46l-2 1z" style="fill:#fff;stroke-width:.602985" transform="scale(.75)"/><path d="m191 189-15-6c-1-1-1-1 2-6l20-35 5-7 2 4 14 23 11 19-3 2c-7 5-26 9-36 6z" style="fill:#fff;stroke-width:.602985" transform="scale(.75)"/><path d="m151 249-4-12-2-4 11-19 15-25 8 3a56 56 0 0 0 48-1l7-3 1 1 24 42-2 5-5 13-71 1h-30z" style="fill:#fff;stroke-width:.602985" transform="scale(.75)"/></svg>