<svg xmlns="http://www.w3.org/2000/svg" width="400" height="404" version="1.0" viewBox="0 0 300 303"><path d="M25 151v126h253V25H25v126zM168.6 33.1c49.4 6.9 90.2 45.5 100.5 95.1 5.4 26.2 1.3 54.6-11.3 78.8-16.7 32.4-46.5 54.8-83 62.6-11.4 2.5-35.3 2.5-46.4.1-49.3-10.5-84.7-46-95.1-95.1-2.4-11.3-2.4-35.1.1-46.6 9.1-42.6 39.9-76.9 81.1-90.4 16.1-5.2 36.6-7 54.1-4.5z"/><path d="M143 68.1c-11.6 2.3-22.5 11-28.2 22.6-3 6.3-3.3 7.5-3.3 16.8 0 8.8.3 10.7 2.8 15.9 1.5 3.3 4.3 7.9 6.3 10.3l3.5 4.3-9.6 16.2c-5.3 9-9.8 16.4-9.9 16.5-.1.1-2.6-.5-5.6-1.4-4.5-1.2-6.4-1.3-9.8-.4-5.1 1.4-11 6.4-12.8 10.8-2.9 6.8-.9 16.8 4.3 21.5 5.3 4.9 14.8 6.1 21.2 2.8 4.1-2 8.6-6.7 9.6-10 .6-2 1.5-2 39.4-2h38.8l3 4.8c6.7 10.8 21.3 12.4 29.8 3.3 10.4-11 5-27.7-10.1-31.2-3.9-.9-5.7-.8-9.1.4l-4.2 1.4-10-17-10.1-16.9 3-3.5c20.1-22.8 6.6-59.6-23.9-65.3-6.2-1.1-8.8-1.1-15.1.1zm22.5 7.3c7.6 3.4 13.9 9.7 17.8 17.5 2.8 5.8 3.2 7.5 3.2 14.6-.1 6.6-.6 9.1-2.9 14.2-1.5 3.4-3.8 7.1-5.1 8.3l-2.2 2.1-11-18.8C156 97.4 153.9 94.5 152 94.5c-2.5 0-2.7.3-18 26.3-7 12-7.2 12.3-9.1 10.6-3.9-3.5-8.1-14-8.7-21.2-1.9-26.6 25.3-45.8 49.3-34.8zm-2.8 42.9 10.1 17.2-2.1 1.8c-4.1 3.2-15.3 6-22.2 5.5-5.9-.5-17.5-4.7-17.5-6.4 0-1.1 20.3-35.4 21-35.4.3 0 5.1 7.8 10.7 17.3zm30.9 52.9c1.3 2.5 1.3 3.1-.2 5.3-.9 1.3-2.2 4.4-2.9 6.7l-1.2 4.3-38.1.3-38 .2-.7-3.2c-.4-1.8-1.5-4.9-2.5-6.8l-1.8-3.5 9.4-15.9c5.2-8.8 9.7-16.3 10.1-16.7.5-.5 3.1.3 5.8 1.7 11.5 5.6 24.6 5.5 36.2-.4l5.8-2.9 8.3 14.1c4.6 7.8 9 15.3 9.8 16.8z"/><path d="M185.884 361.146c-8.096-.58-12.533-1.32-21.46-3.58-61.317-15.527-105.67-61.359-119.33-123.306-1.842-8.35-2.493-16.787-2.496-32.322-.003-21.044 1.331-30.635 6.493-46.67 13.27-41.214 41.451-74.73 79.392-94.418 23.916-12.411 45.854-17.626 74.23-17.645 26.958-.018 48.986 5.373 72.654 17.782 14.242 7.466 25.175 15.474 37.305 27.322 22.085 21.571 37.062 47.445 44.347 76.607 7.982 31.958 5.169 67.413-7.807 98.384-19.142 45.689-56.116 78.524-104.542 92.84-16.734 4.947-36.31 6.614-58.786 5.006zm-56.409-86.792c7.271-1.38 14.513-6.6 18.206-13.124.99-1.75 2.38-3.513 3.09-3.92.986-.565 13.197-.776 51.64-.892l50.35-.152 3.512 5.463c6.014 9.352 12.309 12.93 22.75 12.93 5.443 0 6.012-.124 10.346-2.266 7.671-3.792 12.965-10.773 14.416-19.01 1.746-9.909-3.608-20.542-12.813-25.448-7.384-3.936-13.752-4.591-20.92-2.153l-4.327 1.472-6.112-10.366a4721.459 4721.459 0 0 0-13.27-22.321l-7.159-11.956 3.963-4.928c8.753-10.883 12.295-20.503 12.317-33.444.025-14.431-5.235-27.51-15.283-38.004-12.15-12.69-30.818-19.038-47.389-16.111-11.05 1.951-20.46 6.892-28.71 15.074-5.145 5.1-8.559 10.042-12.092 17.5-2.268 4.79-2.728 6.441-3.295 11.833-.78 7.43-.265 19.366 1.04 24.054 1.41 5.073 6.52 14.362 11.129 20.231l4.146 5.28-1.132 1.867c-.622 1.027-6.198 10.414-12.39 20.86-6.192 10.448-11.583 19.327-11.98 19.732-.566.58-1.877.418-6.138-.754-9.842-2.708-16.091-1.68-23.39 3.846-6.942 5.255-10.076 11.24-10.076 19.245 0 13.337 6.94 22.564 18.935 25.173 4.6 1 6.595 1.055 10.636.289z" style="fill:#fff;stroke-width:.602985" transform="scale(.75)"/><path d="M165.99 173.984c-2.801-3.06-5.902-9.069-8.274-16.04-2.647-7.778-3.118-17.682-1.206-25.334 4.948-19.8 21.785-34.127 42.117-35.838 8.241-.694 18.458 1.8 26.265 6.411 5.024 2.968 11.138 8.607 14.616 13.481 3.46 4.849 7.29 12.865 8.169 17.095 1.084 5.221.414 18.82-1.141 23.157-1.972 5.499-6.093 12.962-8.824 15.978l-2.514 2.777-8.063-13.819c-16.217-27.797-20.82-34.936-23.07-35.768-2.303-.852-4.095.03-6.48 3.19-1.286 1.703-7.796 12.319-14.468 23.59-6.671 11.272-12.78 21.153-13.573 21.959l-1.444 1.464z" style="fill:#fff;stroke-width:.602985" transform="scale(.75)"/><path d="M191.256 188.806c-5.257-1.428-13.47-4.614-15.074-5.848-1.187-.914-1.167-1 1.33-5.666 3.095-5.785 15.091-26.17 20.88-35.481l4.244-6.825 2.752 4.355c1.514 2.395 7.66 12.655 13.657 22.8l10.904 18.444-2.463 1.966c-7.223 5.765-26.062 9.017-36.23 6.255z" style="fill:#fff;stroke-width:.602985" transform="scale(.75)"/><path d="M150.816 248.58c-.978-4.433-2.213-8.056-4.05-11.88l-2.013-4.193 10.952-18.419c14.5-24.388 14.73-24.75 15.632-24.75.428 0 3.681 1.246 7.229 2.77 9.145 3.929 16.185 5.28 25.353 4.867 8.866-.4 13.896-1.736 23.072-6.13l6.79-3.252.853 1.324c3.489 5.425 24.459 41.807 24.459 42.437 0 .436-.927 2.626-2.06 4.865-1.968 3.89-4.573 11.018-4.573 12.514 0 .883-29.652 1.504-71.895 1.505h-29.384z" style="fill:#fff;stroke-width:.602985" transform="scale(.75)"/></svg>