<svg xmlns="http://www.w3.org/2000/svg" width="384" height="385" version="1.0" viewBox="0 0 288 289"><path d="M24 144v120h240V24H24v120zM162 32a114 114 0 0 1 96 117c-2 30-13 55-33 76-23 22-50 33-81 33s-58-11-81-33c-20-21-31-46-33-76A114 114 0 0 1 162 31z"/><path d="m82 79-30 30 30 30 30 30v-33h31c30 1 32 1 35 3 6 4 8 10 7 18-1 4-7 11-12 12l-26 1h-23v56h31c34-1 36-1 52-9 20-10 34-28 39-48 2-12 1-31-2-41-8-22-25-40-47-48-5-2-7-2-45-3h-40V49L82 79z"/><path d="M178 344c-36-4-66-18-92-44-25-25-39-51-44-86v-47a160 160 0 0 1 55-93c17-14 38-24 59-29a153 153 0 0 1 187 129 151 151 0 0 1-51 132 146 146 0 0 1-114 38zm25-43c40 0 48-1 58-4l28-15c6-5 18-16 23-23 9-12 15-27 17-42 1-10 0-28-2-38-3-18-15-39-30-52a91 91 0 0 0-42-23 1762 1762 0 0 0-105-3l-1-13V65l-40 40-40 40 40 40 40 40v-43h25l59 1c3 1 9 6 11 10 3 6 3 14 0 19-1 4-6 9-9 11-4 3-8 3-42 3l-28 1v75h3l35-1z" style="fill:#fff;stroke-width:.575124" transform="scale(.75)"/></svg>