<svg xmlns="http://www.w3.org/2000/svg" width="400" height="400" version="1.0" viewBox="0 0 300 300"><path d="M25 150v125h250V25H25v125zM172 30a123 123 0 1 1-43 241 123 123 0 0 1 43-241z"/><path d="m74 59-2 17c-13 81-6 112 33 151 10 11 25 24 39 35l6 4 15-12c17-14 37-33 45-44 8-10 14-23 18-32 4-14 5-23 5-43s0-27-5-57l-2-19H74z"/><path d="M182 363A162 162 0 0 1 38 184c4-38 19-70 46-98a165 165 0 0 1 243 11c16 20 29 47 34 72a164 164 0 0 1-179 194zm32-19c19-16 30-25 45-40a167 167 0 0 0 51-94c2-19 2-49-1-72l-8-58v-2H200L99 79l-7 42c-8 66-5 100 11 133 12 24 32 47 67 77l30 24 14-11z" style="fill:#fff;stroke-width:.597015" transform="scale(.75)"/></svg>