<svg xmlns="http://www.w3.org/2000/svg" width="384" height="385.333" version="1.0" viewBox="0 0 288 289"><path d="M24 144v120h240V24H24v120zM163.6 29.5c69.5 12.2 112.8 82.7 91.9 149.5-9 28.6-27.6 51.9-53.5 67-29.4 17.2-68.9 20.1-100.7 7.3-6.2-2.5-6.5-2.7-5.9-5.5.8-4.2 5.8-11 10.4-14.2 4.2-2.9 14.7-6.6 18.6-6.6 1.3 0 3.1.9 4.1 2 2.4 2.6 6.9 2.6 9.7-.2 2.9-2.9 13.8-4 13.8-1.5 0 1.9 3 3.7 6.1 3.7 2.6 0 5.9-2.7 5.9-4.8 0-1.3 2.4-1.4 18-.8l18 .6 4-3.6c4.2-3.8 5.5-7.2 2.3-5.9-1 .4-11.4.9-23.2 1.2l-21.4.6 3.8-6.7c3.4-6.1 3.7-7.2 3.1-11.6l-.7-4.9 23.8.5c13.1.2 28.9.6 35.1.8 6.1.3 11.2.3 11.2.1 0-.2-6.7-4.4-14.8-9.4-17.6-10.9-24.4-16.7-39.3-33.8-21.9-25-32.6-34.5-48.3-42.9-9-4.8-11.1-7.1-12.7-14.2-2.1-9.3 6.1-14.8 18.4-12.4 5 1 5.8.2 3.7-3.7-1.5-2.9-14.6-12.5-26-19-9.8-5.7-10.9-6.1-16.8-6.1-7.4 0-12.4 1.9-17 6.3-4.5 4.2-6.5 8.4-10.1 20.7-3.4 11.2-3.8 16.1-1.7 17.9 1.2 1 1.1 2.2-.5 8.4-2.6 10.1-2.5 11 1.5 13 3.2 1.5 3.4 1.8 2.9 5.4-.4 3.4-.2 4 2.1 5.2 1.4.8 2.6 2.2 2.6 3.1 0 3.3 7.9 17.7 13.5 24.7s19.7 19.7 26.3 23.6c1.7 1 3.2 2.3 3.2 2.8s3.2 4 7 7.7l7.1 6.8-4 8.6-3.9 8.5-8.7.8c-4.7.4-8.8.5-9 .3-.3-.2.4-2.8 1.5-5.6 3-7.9 2.8-8.5-2.4-5.9-3.8 1.9-4.3 2.5-3.9 4.8.4 2-.2 3.1-2.2 4.8-1.5 1.1-3.3 2.1-4 2.1-.7 0-6.1 5.2-12 11.5L79.8 242l-3-1.8c-5.4-3.1-21-18.5-27-26.6-9.7-13-16.7-29.1-20.5-47-2.1-9.7-2.3-32.8-.4-42.6 9.5-48.5 46.9-85.8 94.7-94.4 10.7-1.9 29.2-1.9 40-.1zm-8 168.5c2.9 2.5 5.3 4.9 5.3 5.4.1.6-1.7 4-3.9 7.8l-4.1 6.8H146c-3.9 0-7-.2-7-.4 0-.3 1.8-4.3 4.1-9.1 4-8.3 4.2-9.9 2.3-14.8-1-2.8 4.5-.4 10.2 4.3z"/><path d="M174.746 347.136c-15.929-1.839-34.253-6.721-44.123-11.756-3.622-1.848-3.907-2.462-2.765-5.954 2.341-7.157 9.91-15.965 16.854-19.614 4.572-2.403 14.858-5.98 18.714-6.509 3.479-.476 4.997-.024 7.81 2.326 3.97 3.317 8.566 3.404 12.549.238 2.848-2.264 5.254-3.232 9.977-4.012 5.55-.916 7.81-.368 8.862 2.149 1.113 2.664 5.081 4.522 8.772 4.106 3.11-.35 6.543-2.918 7.315-5.47.491-1.626.816-1.828 3.45-2.15 1.6-.196 10.129-.08 18.953.26 8.824.338 18.347.615 21.16.615h5.117l4.819-4.755c4.221-4.164 6.268-7.305 5.356-8.217-.146-.146-2.7-.016-5.677.29-2.976.305-14.469.827-25.54 1.159-11.07.332-22.388.682-25.149.776l-5.019.173 1.487-2.621c6.918-12.19 7.387-13.324 7.395-17.862.004-2.372-.187-5.573-.423-7.113l-.43-2.801 19.121.389c10.517.213 28.568.63 40.114.927 25.561.655 33.932.683 33.932.11 0-.24-4.982-3.534-11.071-7.32-15.012-9.335-26.764-17.24-32.638-21.955-7.13-5.721-17.215-15.954-30.52-30.964-27.303-30.806-40.05-42.095-60.85-53.896-12.78-7.25-15.601-10.116-17.693-17.97-2.281-8.566.89-14.587 9.121-17.321 3.414-1.134 10-1.254 15.282-.278 4.42.816 5.868.455 5.868-1.466 0-2.368-2.02-5.54-5.344-8.398C177.87 92.23 152.195 76.227 144 73.874c-4.484-1.288-13.895-.886-19.315.826-6.786 2.144-13.363 7.604-17.326 14.386-3.853 6.595-10.654 28.96-11.24 36.968-.298 4.056-.2 4.628 1.211 7.035l1.536 2.62-2.032 8.648c-2.083 8.87-2.482 13.035-1.435 14.991.327.612 1.832 1.74 3.343 2.505 1.51.766 3.043 1.75 3.405 2.185.362.436.733 2.959.826 5.606l.17 4.814 2.587 1.819c1.553 1.09 2.787 2.49 3.085 3.497 2.231 7.547 7.07 17.035 14.055 27.558 6.71 10.11 25.567 28.075 38.942 37.1 2.322 1.568 4.38 3.349 4.574 3.96.194.61 4.456 5.208 9.472 10.219l9.12 9.11-5.029 10.881c-3.325 7.199-5.4 11.02-6.13 11.29-1.589.588-21.41 1.981-21.855 1.536-.45-.449.218-2.958 2.67-10.037 2.7-7.793 1.935-8.532-5.153-4.986-4.43 2.217-5.442 3.564-4.86 6.476.196.977-.034 2.35-.565 3.376-.866 1.675-5.19 4.845-7.578 5.557-1.168.348-16.527 15.616-25.44 25.289l-4.696 5.097-2.631-1.542c-6.365-3.73-23.618-20.009-32.942-31.083-13.549-16.09-23.867-37.294-29.945-61.538-2.636-10.514-3.021-14.182-3.354-31.92-.444-23.638.766-32.74 6.725-50.61 13.574-40.707 41.993-73.556 79.594-92 14.822-7.27 28.967-11.831 44.075-14.21 9.562-1.507 38.891-1.505 48.003.002 40.37 6.677 75.554 27.952 100.103 60.532 15.842 21.024 25.564 44.228 29.901 71.37 1.415 8.857 1.735 28.2.624 37.731-2.198 18.859-6.568 33.916-14.788 50.954-8.622 17.868-17.326 30.022-31.399 43.844-20.374 20.011-43.5 32.995-70.638 39.66-11.907 2.925-21.087 4.037-35.37 4.285-8.483.147-15.22-.039-19.555-.539z" style="fill:#fff;stroke-width:.575124" transform="scale(.75)"/><path d="M186.711 290.055c-.857-.232-.725-.803 1.08-4.686 6.426-13.83 7.65-17.053 7.654-20.17.003-1.703-.295-4.099-.662-5.324-.367-1.224-.526-2.367-.355-2.539 1.23-1.23 9.777 4.041 15.86 9.78 4.862 4.586 4.983 3.562-1.78 15.01l-4.74 8.024-8.041.085c-4.422.047-8.48-.034-9.016-.18z" style="fill:#fff;stroke-width:.575124" transform="scale(.75)"/></svg>