<svg xmlns="http://www.w3.org/2000/svg" width="384" height="385" version="1.0" viewBox="0 0 288 289"><path d="M24 144v120h240V24H24v120zM164 30a117 117 0 1 1-63 223c-6-2-6-2-6-5 1-4 6-11 11-14 4-3 14-7 18-7l5 2c2 3 6 3 9 0s14-4 14-2 3 4 6 4 6-3 6-5l18-1 18 1 4-4c4-3 6-7 2-5l-23 1h-21l4-6c3-7 3-8 3-12l-1-5 24 1a2557 2557 0 0 1 46 1l-15-10c-17-11-24-17-39-34-22-25-33-34-48-43-9-4-11-7-13-14-2-9 6-15 18-12 5 1 6 0 4-4-1-3-15-12-26-19-10-6-11-6-17-6-7 0-12 2-17 6-4 4-6 9-10 21-3 11-4 16-2 18 2 1 2 2 0 8-3 10-3 11 1 13s4 2 3 6c0 3 0 4 2 5l3 3c0 3 8 18 14 25s19 19 26 23l3 3 7 8 7 7-4 8-4 9h-9l-9 1 2-6c3-8 3-8-2-6-4 2-5 3-4 5 0 2-1 3-3 5l-4 2-12 12-10 11-3-2c-6-3-21-18-27-26a120 120 0 0 1-21-90 118 118 0 0 1 135-94zm-8 168 5 5-4 8-4 7h-14l4-9c4-9 4-10 2-15-1-3 5-1 11 4z"/><path d="M175 347c-16-2-35-7-44-12-4-1-4-2-3-6 2-7 10-16 17-19 4-3 15-6 18-7 4 0 5 0 8 3 4 3 9 3 13 0l10-4c5-1 8-1 9 2s5 5 8 4c4 0 7-3 8-5 0-2 1-2 3-3l19 1h26l5-4 6-9-6 1a605 605 0 0 1-51 2h-5l2-3c7-12 7-13 7-18v-7l-1-3 19 1a8911 8911 0 0 1 74 1l-11-7-32-22c-7-6-18-16-31-31-27-31-40-43-61-54-12-8-15-10-17-18-3-9 0-15 9-18h15c4 1 6 1 6-1 0-3-2-6-5-9-12-10-38-26-46-28-4-1-14-1-19 1-7 2-14 7-18 14-3 7-10 29-11 37l1 7 2 3-2 8c-2 9-3 13-2 15l4 3 3 2 1 6v4l3 2 3 4c2 7 7 17 14 27a180 180 0 0 0 43 41l10 11 9 9-5 11-6 11-22 1 3-10c2-7 2-8-6-5-4 3-5 4-4 7l-1 3-8 6-25 25-5 5-2-1a153 153 0 0 1-60-175A157 157 0 0 1 168 39h48a156 156 0 0 1 84 265 149 149 0 0 1-106 44l-19-1z" style="fill:#fff;stroke-width:.575124" transform="scale(.75)"/><path d="M187 290c-1 0-1-1 1-5 6-13 7-17 7-20v-5l-1-3c2-1 10 4 16 10 5 5 5 4-1 15l-5 8h-17z" style="fill:#fff;stroke-width:.575124" transform="scale(.75)"/></svg>