<svg xmlns="http://www.w3.org/2000/svg" width="233" height="400" version="1.0" viewBox="0 0 175 300"><path d="M76 21c-31 48-50 98-61 162-5 29-8 70-8 102v10h72v-51c0-48 0-52 2-53 3-3 6-3 9-1l3 2v103h72v-29c-1-47-6-83-16-124A393 393 0 0 0 86 8L76 21zm15 15c38 60 58 135 62 228v19h-47v-44l-1-50c-5-16-28-18-37-2l-2 4v92H20v-22A461 461 0 0 1 86 29l5 7z"/><path d="M27 371v-20a612 612 0 0 1 88-311l15 23a597 597 0 0 1 74 310v4h-63v-60l-1-63c-3-13-15-21-29-19-9 1-16 7-21 15l-2 5v122H26Z" style="fill:#fff;stroke-width:.618238" transform="scale(.75)"/></svg>