<svg xmlns="http://www.w3.org/2000/svg" width="233.333" height="400" version="1.0" viewBox="0 0 175 300"><path d="M76.2 20.7C44.6 69.1 25.7 119.3 15 183.4c-4.7 28.2-8 69.8-8 101.8v9.8h72v-51.3c0-47.7.1-51.5 1.8-53 3-2.8 6.5-3 9.5-.7l2.7 2.1V295H165.3l-.6-28.8c-1-47.2-5.6-83.5-15.9-123.7-12.1-47.8-29.9-88-55.6-126.3-3.4-5-6.6-9.2-7.1-9.2s-4.9 6.2-9.9 13.7zm14.7 14.9c38.1 60.7 58.2 135.5 61.7 228.7l.7 18.7H106v-44.3c0-36.6-.3-45.2-1.5-49.4-4.9-16.4-28-17.9-36.2-2.4l-2.3 4.4V283H19.7l.6-22.3c2.1-74.6 16.8-139.3 44.2-194.4C72.1 50.9 84.8 29 86.1 29c.4 0 2.5 3 4.8 6.6z"/><path d="M26.664 371.406c.185-3.145.49-12.117.678-19.938C29.862 246.902 50.785 156.901 90.22 80.99c10.145-19.528 23.143-41.422 24.592-41.422.898 0 8.676 11.995 15.434 23.802 41.027 71.682 64.612 157.978 71.387 261.206 1.058 16.112 2.205 41.123 2.205 48.06v4.49h-62.364l-.258-59.814c-.182-42.268-.467-60.722-.973-62.906-3.093-13.359-15.692-21.742-29.367-19.54-9.184 1.479-16.164 6.694-20.746 15.502l-2.52 4.845V377.125H26.33Z" style="fill:#fff;stroke-width:.618238" transform="scale(.75)"/></svg>