<?xml version="1.0" encoding="UTF-8" standalone="no"?>
<svg
   xmlns:dc="http://purl.org/dc/elements/1.1/"
   xmlns:cc="http://creativecommons.org/ns#"
   xmlns:rdf="http://www.w3.org/1999/02/22-rdf-syntax-ns#"
   xmlns:svg="http://www.w3.org/2000/svg"
   xmlns="http://www.w3.org/2000/svg"
   xmlns:sodipodi="http://sodipodi.sourceforge.net/DTD/sodipodi-0.dtd"
   xmlns:inkscape="http://www.inkscape.org/namespaces/inkscape"
   width="400"
   height="388"
   version="1.0"
   viewBox="0 0 300 291"
   id="svg6"
   sodipodi:docname="con1.svg"
   inkscape:version="1.0.1 (3bc2e813f5, 2020-09-07)">
  <metadata
     id="metadata12">
    <rdf:RDF>
      <cc:Work
         rdf:about="">
        <dc:format>image/svg+xml</dc:format>
        <dc:type
           rdf:resource="http://purl.org/dc/dcmitype/StillImage" />
      </cc:Work>
    </rdf:RDF>
  </metadata>
  <defs
     id="defs10" />
  <sodipodi:namedview
     pagecolor="#ffffff"
     bordercolor="#666666"
     borderopacity="1"
     objecttolerance="10"
     gridtolerance="10"
     guidetolerance="10"
     inkscape:pageopacity="0"
     inkscape:pageshadow="2"
     inkscape:window-width="1600"
     inkscape:window-height="837"
     id="namedview8"
     showgrid="false"
     showguides="true"
     inkscape:zoom="1.7268041"
     inkscape:cx="218.73739"
     inkscape:cy="196.48332"
     inkscape:window-x="-8"
     inkscape:window-y="-8"
     inkscape:window-maximized="1"
     inkscape:current-layer="svg6">
    <inkscape:grid
       type="xygrid"
       id="grid871" />
  </sodipodi:namedview>
  <path
     style="fill:#ffffff;stroke:#bb0000;stroke-width:0;paint-order:stroke fill markers"
     d="M 80.205872,7.6624558 C 74.462742,7.5124579 70.512192,13.924498 72.755557,19.104294 79.857723,45.380568 87.965477,71.373879 95.306703,97.584259 90.10408,104.03678 84.384648,110.05346 79.191308,116.516 68.004879,112.95633 57.172636,107.94983 45.727666,104.98029 c -6.919025,-1.03803 -11.2339,7.69483 -7.658431,13.16784 5.32166,7.13386 13.054008,12.04624 19.531656,18.06195 1.881235,2.33038 6.440373,4.03503 6.742947,6.73435 -4.559141,11.61093 -7.580329,23.80595 -9.55183,36.11146 -11.157625,2.56341 -22.776718,3.84975 -33.932188,6.77574 -5.436783,2.2534 -6.339396,10.41279 -2.969888,14.73595 4.330318,3.65979 10.516851,2.76917 15.702278,4.31765 7.139158,1.31439 14.2165,2.62677 21.31856,3.99115 1.732763,12.63089 5.161835,25.17461 9.886625,36.8704 -8.625456,7.66442 -18.219314,14.35496 -26.041605,22.86332 -4.321245,5.02172 -0.95159,14.26098 6.048928,14.13264 8.008331,-0.68347 15.186787,-4.99316 22.8055,-7.28357 3.935059,-1.43024 7.869775,-2.86241 11.826531,-4.23179 5.030242,6.33687 10.334155,12.4509 15.874477,18.34585 -7.227201,27.43083 -16.095943,54.42293 -23.094055,81.9037 -0.946841,7.23783 8.627052,11.14358 13.889461,6.95038 10.356444,-8.80046 19.129758,-19.32418 28.724938,-28.93201 9.9401,-10.40184 19.83219,-20.85018 29.86188,-31.16591 7.91304,2.58208 16.13495,3.96792 24.22173,5.85438 2.35697,10.81905 3.68217,21.58652 6.04378,32.29881 1.71351,5.39273 9.1873,5.92915 13.56797,3.65251 5.41096,-3.83314 4.5146,-11.46851 6.15359,-17.19025 1.1254,-6.26138 2.26161,-12.5208 3.40365,-18.77917 13.17753,-1.56081 25.78947,-5.77025 38.41431,-9.64005 7.24556,8.19536 13.62091,17.24687 21.61689,24.7341 4.75585,3.83202 14.42346,2.58495 14.95162,-4.46227 -0.89046,-7.01694 -4.48349,-13.4471 -6.50707,-20.21387 -1.71872,-4.7485 -3.43696,-9.49714 -5.15429,-14.24602 10.12462,-8.7017 19.8367,-17.98593 28.35802,-28.27884 11.04833,3.57613 21.80986,8.43529 33.11075,11.30045 6.82057,1.01442 11.35414,-7.72498 7.41638,-13.06152 -6.13956,-7.4962 -14.54063,-12.76139 -21.59267,-19.35102 -0.81626,-1.68777 -4.989,-2.52779 -3.91394,-4.73045 2.90769,-8.00533 5.53174,-16.11779 8.13348,-24.2206 26.90417,-7.41137 54.27125,-13.20551 81.36531,-20.0628 7.03773,-2.57087 6.8013,-14.05401 -0.51463,-16.13575 -26.84191,-6.77708 -53.97652,-12.463 -80.72174,-19.64205 -2.83576,-8.54346 -5.12053,-17.28775 -8.59834,-25.6118 7.9364,-7.34006 17.10106,-13.41024 24.3156,-21.48455 4.16748,-5.09999 0.8297,-14.40465 -6.2446,-14.12245 -7.97703,1.31552 -15.40842,5.02243 -23.08421,7.50933 -3.09938,1.02499 -6.46462,2.53976 -9.56281,3.28101 -8.82746,-9.95346 -18.25332,-19.448263 -28.39987,-28.059425 3.64575,-10.822328 8.06926,-21.479198 11.46397,-32.412535 1.5285,-5.734045 -4.77284,-9.87592 -9.93251,-8.726502 -6.84086,1.344346 -10.24506,8.353899 -14.78885,12.927379 -4.03618,4.454034 -7.77856,9.869119 -12.03658,13.697852 -12.35373,-4.151299 -25.01422,-7.934177 -37.88723,-9.661542 -2.41083,-10.733663 -3.80413,-21.741281 -6.47126,-32.373498 -2.17243,-5.892276 -11.1726,-6.037329 -15.30511,-2.109232 -3.53107,4.372184 -2.60318,10.606561 -4.10689,15.728567 -1.23417,6.319911 -2.0125,12.972819 -3.685,19.075385 -8.20864,1.481371 -16.42944,3.035042 -24.3846,5.595371 C 125.32324,50.094367 107.47537,29.621818 87.894843,10.873545 85.786851,8.9948902 83.136162,7.404565 80.205872,7.6624558 Z"
     id="path891"
     transform="scale(0.75)" />
  <path
     d="M61.6 2.9c-1.6 1.7-5.1 3.8-7.8 4.7-2.6.8-4.8 2.1-4.8 2.7 0 1 4.8 17.5 16.4 56.8l1.4 4.6-4.7 5.3-4.7 5.3-14-5.2C35.6 74.3 28 72 26.3 72c-6.3 0-10.8 6.9-8.4 12.9.7 1.5 6.6 7.2 13.2 12.7 9.8 8.1 11.8 10.3 11.3 11.9-.3 1.1-1.7 6.4-3.2 11.7l-2.5 9.7-8.6 1.5c-4.7.8-11.7 2.1-15.6 2.7C3.9 136.6 0 139.8 0 145.5s3.9 8.9 12.5 10.4c24.4 4.1 24.5 4.1 25 7 .3 1.4 1.5 6 2.6 10.1 1.2 4.1 2.3 8.2 2.5 9 .3 1-3.9 5.1-11.5 11.4-6.6 5.5-12.5 11.2-13.2 12.7-2.4 6 2.1 12.9 8.4 12.9 1.7 0 9.2-2.3 16.7-5 7.5-2.8 14.1-5 14.6-4.9.5.1 2.8 2.2 5.1 4.8l4.3 4.8-9 30.4c-5 16.7-9 30.9-9 31.6 0 .6 2.1 1.8 4.7 2.7 2.6.9 6.1 3 7.8 4.6l3.2 3.1 22.2-23.6c12.3-12.9 22.6-23.5 22.9-23.5 1.7.1 12.5 2.9 12.9 3.4.5.4 1.6 6.2 4.8 24.5l.6 3.3 5.7-.6c3.1-.3 7.4-.2 9.5.3 3.3.8 3.8.7 4.2-1.3.7-3.1 4.5-24.9 4.5-25.7 0-.3 1.7-.9 3.8-1.3 2.1-.3 7.6-1.6 12.1-3l8.2-2.3 9.2 10.8 9.1 10.8 3.7-3c2-1.5 5.7-3.7 8.2-4.8l4.6-2-2.1-5.3c-1.1-2.9-3.2-8.7-4.8-12.9l-2.7-7.5 9.1-9.1 9.1-9.1 11.5 4.4c6.3 2.3 12.3 4.3 13.2 4.3 1.2.1 2.1-1.2 2.9-3.9.7-2.2 1-4.2.8-4.3-.2-.2-7.6-2.9-16.4-6.1l-16-5.7-2.9 3.8c-3.8 4.8-12.8 13.8-18.4 18.3l-4.3 3.5 5.9 16.2c3.3 9 5.6 16 5.1 15.7-.7-.4-19.4-22.4-21.5-25.3-.2-.2-5.2 1.2-11.1 3.2-5.9 2-13.8 3.9-17.5 4.3-3.8.4-6.8 1-6.8 1.3 0 2-6 33.4-6.4 33.9-.3.3-.6.1-.6-.4 0-1.1-4.7-28.8-5.5-31.9-.4-1.7-1.8-2.3-8.1-3.4-4.2-.7-9.4-1.9-11.6-2.7-2.2-.8-4.3-1.4-4.7-1.4-.4 0-11.4 11.4-24.6 25.4-13.2 14-24.1 25.1-24.3 24.7-.1-.4 4-15.2 9.3-32.9 5.2-17.7 9.5-33 9.5-33.9 0-1-.8-2.3-1.9-3-1-.6-4.5-4.5-7.8-8.6l-6-7.4-10.4 3.7c-5.7 2.1-13.4 4.9-17.1 6.4-3.8 1.4-6.8 2.3-6.8 2.1 0-.2 6.3-5.6 13.9-12l13.9-11.7-2.3-5.6c-2.7-6.7-5.1-15.6-6-22.9l-.7-5.1-8.6-1.6c-4.8-.8-12.9-2.3-18-3.2-5.1-.9-9.1-1.8-9-1.9.3-.3 34-6.5 35.1-6.5.3 0 .8-2.6 1.2-5.7.8-6.6 4.8-21.1 7-25.3l1.4-2.7L41 93.5c-7.7-6.4-14-11.8-14-12 0-.2 3.7 1 8.3 2.7 4.5 1.7 12.2 4.4 17 6.2l8.8 3.1 3.2-4c1.8-2.2 5.3-6.3 7.9-9.1 2.7-2.8 4.8-5.6 4.8-6.3 0-.6-4.3-15.6-9.5-33.3-5.3-17.7-9.4-32.5-9.3-32.9.3-.7 13.5 13 40.8 42.1l7.5 8 6.1-1.9c3.4-1.1 8.9-2.3 12.3-2.7 5.1-.5 6.2-1 6.6-2.8.7-3.1 5.5-30.9 5.5-32 0-.5.3-.7.6-.4.3.3 1.8 7.8 3.4 16.7 1.6 8.9 3.1 16.5 3.4 17 .3.4 3.5 1.1 7.1 1.4 3.6.4 11.3 2.2 17.1 4.2l10.5 3.5 2.7-3.2c1.5-1.8 6.6-7.9 11.4-13.5l8.7-10.2-3.7-3-3.8-3-8.8 10.6c-7.2 8.5-9.2 10.4-11 10-1.1-.3-5.7-1.4-10-2.6-4.4-1.2-9-2.1-10.3-2.1-1.2 0-2.3-.4-2.3-.8 0-.8-3.8-22.4-4.5-25.8-.4-2-.9-2.1-4.2-1.3-2.1.5-6.4.6-9.5.3l-5.7-.6-.6 3.3c-3.1 17.6-4.3 24-4.6 24.3-.2.2-3.3 1-6.9 1.9l-6.5 1.7-7.5-7.8C97.8 35 87.7 24.4 79.5 15.7L64.5-.1l-2.9 3z"
     id="path2" />
  <path
     d="M201.6 35.8c-.3.5-3 7.8-6.1 16.3l-5.6 15.4 3.3 2.5c4.3 3.2 17.9 16.7 20.4 20.3l2 2.8 15.4-5.6c8.5-3.1 15.9-6 16.4-6.5 1.2-1.2-1.3-8-3-8-.7 0-6.1 1.8-11.9 4-5.8 2.1-11.1 4-11.8 4.2-.7.1-5.3-3.8-10.3-8.8l-9-9.1 4.7-12.7 4.7-12.8-3.4-1.4c-3.8-1.6-5.1-1.7-5.8-.6zM146.6 66.8c.3 2.6.7 4.7.8 4.7 0 0 4.3 1.1 9.3 2.3 5.1 1.3 9.7 2.1 10.2 1.7.6-.3 1.9-1.9 3.1-3.5l2.1-2.9-3.8-1.6c-3.5-1.5-11.2-3.5-19.1-4.9l-3.3-.6.7 4.8zM119.3 64.2c-2.4.5-4.3 1.3-4.3 1.8 0 2.2 5.3 7 7.8 7 4 0 5-1.1 5.8-5.8.6-4.1.6-4.2-2.2-4.1-1.6.1-4.8.5-7.1 1.1zM184.8 81.5l-1.7 4.4 7.1 6.9 7.2 7 4.3-1.5c3.6-1.3 4.1-1.7 3.3-3.3-1.3-2.4-11.8-13-15.6-15.7l-3-2.2-1.6 4.4zM235.3 92.7c-7 5.8-12.9 10.7-13 10.8-.2.1.8 2.9 2.2 6.2 1.3 3.3 3.2 9 4.1 12.6 1 4.3 2.2 6.8 3.3 7.1 3.1.9 64.7 15.6 65.4 15.6.8 0 3-8 2.4-8.6-.2-.3-14.1-3.8-30.8-7.8l-30.3-7.3-2.3-6.8c-1.3-3.8-2.3-7.2-2.3-7.6 0-.4 4.7-4.7 10.5-9.4l10.4-8.7-2.7-3.4c-1.5-1.9-3-3.4-3.4-3.4-.3 0-6.4 4.8-13.5 10.7zM75.7 91.1c-2.5 2.9-4.4 5.6-4.1 6 .3.5 2.3 1.4 4.4 2 3.6 1.1 4.1 1 5.8-1.1 1.7-2.1 1.8-2.7.5-6.8-.7-2.5-1.5-4.7-1.7-4.9-.2-.2-2.4 2-4.9 4.8zM210.3 113.8c-3.2 2.6-3.3 2.8-2.1 6.4 1.1 3.8 1.6 4.1 7.6 5.3 2.4.5 3.2.3 3.2-.7 0-2.2-4.1-13.8-4.8-13.8-.4 0-2.2 1.3-3.9 2.8zM59.6 119.7c-1.3 4.3-2.7 10-3.1 12.7l-.8 4.8 4.4-.7c5.6-.9 5.9-1.1 5.9-4 0-1.3.9-5.1 1.9-8.5l1.9-6.2-3.1-2.9c-1.8-1.5-3.5-2.9-3.9-2.9-.4 0-1.8 3.5-3.2 7.7zM265 153.5c-16.8 4.1-31.5 7.7-32.6 8-1.7.4-2.5 1.9-3.8 7-.9 3.6-2.7 9-4.1 12.1-1.4 3.1-2.2 6-1.9 6.5.8 1.4 25.4 21.9 26.2 21.9.4 0 1.9-1.5 3.4-3.4l2.7-3.4-10.4-8.7c-5.8-4.7-10.5-9-10.5-9.4 0-.4 1-3.8 2.3-7.5l2.3-6.9 30.3-7.3c16.7-4 30.5-7.5 30.8-7.8.9-.8-1.8-8.6-3-8.5-.7 0-14.9 3.4-31.7 7.4zM56.5 158.7c.9 6 5.3 20.3 6.3 20.3.4 0 2.1-1.4 3.9-3l3.2-2.8-2-6.4c-1-3.5-1.9-7.3-1.9-8.6 0-2.4-.5-2.7-6.4-3.7l-3.8-.6.7 4.8zM212.8 166.2c-3 .8-3.9 1.6-4.9 4.6-1.1 3.4-1 3.6 2.2 6.3 1.9 1.6 3.7 2.9 4 2.9.6 0 4.9-11.9 4.9-13.8 0-1.4-1-1.4-6.2 0zM74.2 192.5l-3.4 1.5 4.2 5c2.3 2.7 4.6 5.2 5 5.5.5.3 1.5-1.6 2.3-4.2 2.3-7.8-1-10.9-8.1-7.8zM189.8 198.2l-6.8 6.9 1.6 3.9c.9 2.2 2 4 2.6 4 .5 0 5-4.1 10.1-9.1l9.2-9.2-3-1.2c-6.3-2.6-6.7-2.5-13.7 4.7zM161.9 215.5c-2 .7-6.2 1.8-9.3 2.5-4.7 1-5.6 1.5-5.6 3.3 0 1.2-.3 3.2-.6 4.4-.6 2-.3 2.3 2.3 2.3 3.7 0 17.4-3.4 20.8-5.2l2.6-1.4-3.3-3.6c-3.2-3.6-3.4-3.6-6.9-2.3zM117.9 220.8c-1.6 1.8-2.7 3.7-2.4 4.1.5 1 12.5 3.5 13.2 2.8.2-.3.1-2.5-.2-5-.7-4.2-.9-4.5-4.2-4.9-2.9-.4-3.9.1-6.4 3z"
     id="path4"
     style="fill:#000000" />
  <path
     style="fill:none;stroke:#000000;stroke-width:0.75px;stroke-linecap:butt;stroke-linejoin:miter;stroke-opacity:1"
     d="m 296.7,146.1 0.3806,-2.77164"
     id="path841" />
  <path
     style="fill:none;stroke:#000000;stroke-width:0.75px;stroke-linecap:butt;stroke-linejoin:miter;stroke-opacity:1"
     d="m 247.13284,80.133585 1.95447,2.823135"
     id="path843" />
</svg>
