<?xml version="1.0" encoding="UTF-8" standalone="no"?>
<svg
   xmlns:dc="http://purl.org/dc/elements/1.1/"
   xmlns:cc="http://creativecommons.org/ns#"
   xmlns:rdf="http://www.w3.org/1999/02/22-rdf-syntax-ns#"
   xmlns:svg="http://www.w3.org/2000/svg"
   xmlns="http://www.w3.org/2000/svg"
   xmlns:sodipodi="http://sodipodi.sourceforge.net/DTD/sodipodi-0.dtd"
   xmlns:inkscape="http://www.inkscape.org/namespaces/inkscape"
   width="524"
   height="389.333"
   version="1.0"
   viewBox="0 0 393 292"
   id="svg6"
   sodipodi:docname="con2.svg"
   inkscape:version="1.0.1 (3bc2e813f5, 2020-09-07)">
  <metadata
     id="metadata12">
    <rdf:RDF>
      <cc:Work
         rdf:about="">
        <dc:format>image/svg+xml</dc:format>
        <dc:type
           rdf:resource="http://purl.org/dc/dcmitype/StillImage" />
      </cc:Work>
    </rdf:RDF>
  </metadata>
  <defs
     id="defs10" />
  <sodipodi:namedview
     pagecolor="#ffffff"
     bordercolor="#666666"
     borderopacity="1"
     objecttolerance="10"
     gridtolerance="10"
     guidetolerance="10"
     inkscape:pageopacity="0"
     inkscape:pageshadow="2"
     inkscape:window-width="1600"
     inkscape:window-height="837"
     id="namedview8"
     showgrid="false"
     inkscape:zoom="1.7208918"
     inkscape:cx="237.41167"
     inkscape:cy="192.20933"
     inkscape:window-x="-8"
     inkscape:window-y="-8"
     inkscape:window-maximized="1"
     inkscape:current-layer="svg6" />
  <path
     style="fill:#ffffff;stroke:#bb0000;stroke-width:0;paint-order:stroke fill markers"
     d="m 204.49474,7.9820854 c -5.77097,-0.3324358 -10.20439,6.0263146 -7.71085,11.3211196 7.27487,26.176608 15.05056,52.211897 22.52988,78.330793 -5.22064,6.442692 -10.97556,12.431772 -16.19346,18.878752 -11.22002,-3.68502 -22.09619,-8.5539 -33.54797,-11.45278 -6.91443,-1.03499 -11.31898,7.73766 -7.58486,13.1813 5.70205,7.3323 13.69096,12.51464 20.49164,18.7666 1.52089,2.11505 6.02454,3.54543 5.87206,6.04244 -4.76946,11.59454 -7.37418,23.9436 -9.65725,36.22854 -11.08984,2.40092 -22.52882,3.49186 -33.56953,6.51007 -8.08487,2.5678 -6.66101,16.7042 1.84562,17.29139 10.64656,1.90398 21.30228,3.75808 31.93388,5.74467 1.74123,12.62861 4.89988,25.10655 9.89903,36.85067 -8.66406,7.73934 -18.30159,14.49741 -26.18555,23.05536 -4.39184,5.00516 -0.92383,14.28746 6.09354,14.03819 8.50516,-0.89398 16.1599,-5.31033 24.25624,-7.80691 3.47653,-1.26915 6.95642,-2.5294 10.44824,-3.75595 5.14632,6.27925 10.33687,12.53157 15.92674,18.42476 -7.2292,26.51727 -15.53707,52.74096 -22.42319,79.3829 -1.70036,5.90714 4.17109,11.76244 10.08402,10.17141 6.83609,-2.06787 10.91114,-8.66718 16.02545,-13.22673 15.31509,-15.71821 30.329,-31.83336 45.56144,-47.56456 7.95201,2.62594 16.5831,3.62684 24.41162,6.11624 2.53203,11.19032 3.63769,22.72166 6.24296,33.85159 1.94342,6.06155 11.00844,5.87274 14.90638,2.04909 3.27227,-4.08454 2.65053,-9.98843 4.08488,-14.88923 1.36917,-7.11912 2.55318,-14.27352 3.98506,-21.3803 13.15254,-1.5038 25.71476,-5.82806 38.3295,-9.61416 6.92719,7.95314 13.16002,16.61868 20.88647,23.81691 4.65798,3.77424 13.85309,2.69069 14.79293,-4.18228 0.12432,-6.78533 -3.78869,-12.88986 -5.58859,-19.29466 -1.76522,-4.87531 -3.51606,-9.75607 -5.20477,-14.65849 10.21638,-8.52648 19.83645,-17.86321 28.2818,-28.15696 11.15468,3.66018 21.97783,8.46081 33.35389,11.37106 6.73069,1.03602 11.38401,-7.57889 7.46342,-12.8987 -6.20941,-7.56605 -14.59442,-12.88216 -21.71012,-19.46936 -1.06699,-1.78427 -5.35047,-2.80739 -4.07479,-5.19649 3.29011,-7.75361 5.4625,-15.90664 8.284,-23.82599 26.4599,-7.53422 53.41483,-12.87683 79.97988,-19.98532 6.4387,-1.2722 8.96899,-10.1995 3.90989,-14.48763 -4.86257,-3.5165 -11.36973,-3.24538 -16.91474,-5.12973 -22.28832,-5.4437 -44.73319,-10.30896 -66.88991,-16.25839 -2.87327,-8.53703 -5.27283,-17.26532 -8.63243,-25.67823 8.15612,-7.57249 17.62425,-13.77423 25.07898,-22.06114 4.29373,-5.17848 0.48918,-14.46406 -6.58157,-13.97123 -7.36444,1.05549 -13.97656,5.02041 -21.08736,7.11046 -4.01177,1.32574 -8.17823,3.11552 -12.13715,4.05744 -8.65981,-10.03146 -18.16028,-19.396604 -28.29202,-27.94018 3.80483,-11.100547 8.17603,-22.181384 11.92605,-33.132575 1.21437,-5.893978 -5.21858,-10.164637 -10.52438,-8.593836 -6.65005,2.024992 -10.06619,8.871395 -14.70074,13.538612 -3.87698,4.5739 -7.74529,9.15536 -11.58809,13.758054 -12.52837,-4.066149 -25.14367,-8.15496 -38.28525,-9.673173 -2.39223,-11.240267 -3.99575,-22.716078 -6.75497,-33.831816 -1.96536,-5.391302 -10.14112,-6.320313 -14.32571,-3.157998 -3.97537,4.063268 -2.9237,10.612732 -4.40914,15.818469 -1.22991,7.124154 -2.34748,14.274746 -3.92693,21.332507 -8.35225,1.582059 -16.75356,3.045451 -24.84744,5.717875 -18.38438,-19.342662 -36.26921,-39.196622 -55.3878,-57.819992 -2.24048,-2.0274895 -4.99986,-3.8198349 -8.14893,-3.6624816 z"
     id="path849"
     transform="scale(0.75000031)" />
  <path
     style="fill:#ffffff;stroke:#bb0000;stroke-width:0;paint-order:stroke fill markers"
     d="m 78.761647,8.0388327 c -5.858294,0.2573887 -8.330919,7.0614983 -6.207038,11.9067533 7.362129,26.419891 15.332005,52.626605 22.702392,79.031059 -5.149789,6.491185 -10.927485,12.453185 -16.142385,18.892365 -11.300028,-3.73336 -22.259614,-8.59398 -33.768147,-11.63323 -6.838918,-1.1372 -11.439344,7.46639 -7.791427,12.95772 5.487294,7.24093 13.371868,12.24919 20.014267,18.3615 2.280255,2.04692 5.004831,3.99021 7.022496,6.09325 -4.687579,11.85102 -7.839551,24.31276 -9.753755,36.90401 -11.454521,2.26308 -23.087605,3.90722 -34.496316,6.37702 -7.642613,2.80244 -6.075808,16.77859 2.251957,17.31449 10.774641,1.99318 21.588194,3.78928 32.312456,6.0453 1.661657,12.61088 5.039706,24.94257 9.869519,36.70426 -8.606795,7.66308 -18.161891,14.38086 -25.95856,22.89306 -4.301053,4.99043 -0.967707,14.1361 5.968699,14.0904 7.852975,-0.54194 14.896269,-4.77377 22.350448,-7.00011 4.089377,-1.4902 8.187259,-2.95693 12.283664,-4.4277 5.043501,6.2741 10.181691,12.49165 15.835945,18.22956 -6.927687,27.0345 -15.720681,53.56366 -22.744381,80.56551 -1.607009,6.31556 5.605348,11.72231 11.388084,9.21125 7.343087,-3.82286 12.32988,-10.87837 18.282145,-16.45846 14.19436,-14.7612 28.21008,-29.69261 42.39224,-44.46562 7.98473,2.63461 16.29706,4.00586 24.44,6.02317 2.39957,10.79181 3.2669,21.94123 6.27627,32.57532 2.56771,6.65469 13.19788,6.22068 16.35636,0.534 2.83385,-10.9271 4.30859,-22.22139 6.43796,-33.32382 6.53285,-0.19341 13.6623,-3.48206 15.34678,-10.34393 1.63813,-5.05478 4.25031,-12.26237 -1.05975,-16.07287 -3.05305,-1.33503 -3.31659,-1.26079 0.01,-2.43475 5.52512,-2.53099 5.93668,-10.33932 1.71604,-14.28447 -3.63588,-3.63161 -6.66367,-8.47465 -11.47971,-10.45529 -5.54294,-0.66875 -10.60433,2.75141 -15.86232,4.13048 -7.28573,2.91774 -15.0426,5.1251 -21.64692,9.44365 -1.73324,2.00967 -1.98169,3.6935 -4.04836,1.06118 -2.87504,-1.24704 -6.74637,-3.08235 -7.13997,-6.60654 2.22196,-6.32744 8.72459,-9.80987 13.25023,-14.37552 6.35878,-5.97801 14.25037,-11.14757 19.29595,-18.52846 2.78496,-5.24792 -1.05639,-10.98054 -1.78986,-16.34917 -2.15279,-6.81372 -2.96385,-14.34024 -6.89287,-20.42366 -5.00179,-4.66145 -12.50185,-4.45714 -18.78242,-6.14116 -8.83297,-2.09526 -18.05673,-2.19826 -26.2467,-6.16736 -2.2984,-1.63637 -2.18487,-5.61504 -0.29962,-7.51677 5.53224,-3.74184 12.7058,-3.50038 19.01057,-5.07312 8.06927,-1.64288 16.41521,-2.35351 24.26277,-4.85996 5.01595,-3.39846 4.79434,-10.19144 6.79634,-15.36378 1.50116,-7.08942 4.72159,-13.99292 4.69162,-21.31551 -1.27523,-6.70582 -8.09426,-10.20121 -12.47864,-14.77774 -6.96079,-6.45305 -15.03934,-12.05516 -20.71182,-19.70883 -0.5052,-5.89283 7.83443,-7.03762 8.53638,-12.599769 -0.23474,-1.470086 0.84819,-5.440191 0.93704,-2.479168 -2.08024,5.210694 2.17818,9.980347 6.92433,11.502707 9.36193,3.73449 18.76378,7.52821 28.44296,10.33713 6.29649,0.45015 10.12074,-5.77499 13.84865,-9.87634 3.90998,-3.88236 1.5944,-10.913535 -2.28238,-12.893021 5.13442,-0.731126 7.37978,-6.509648 5.62935,-11.003329 -1.59952,-6.250904 -3.42067,-14.377833 -10.75819,-16.054996 -2.11863,-0.971199 -5.41127,-0.313324 -6.86651,-1.756859 -2.65754,-10.687565 -4.07097,-21.704092 -6.69975,-32.350318 -2.65374,-7.025587 -15.31169,-6.526656 -17.03084,1.144844 -2.26206,10.588476 -3.43846,21.678607 -6.02545,32.03054 -8.31706,1.144876 -16.58911,2.864571 -24.57506,5.474995 C 125.45422,51.389357 107.40997,31.43559 88.529019,12.298297 85.926787,9.7025079 82.594799,7.6082746 78.761647,8.0388327 Z"
     id="path851"
     transform="scale(0.75000031)" />
  <path
     d="M154.6 2.9c-1.6 1.7-5.1 3.8-7.8 4.7l-4.9 1.6.6 3.8c.8 4.7-.5 5.3-8.7 4.4-3.2-.4-5.8-.5-5.8-.2 0 .7-3.9 23-4.5 25.4-.3 1.6-1.8 2.4-6.2 3.4-3.2.7-6.3 1.4-6.9 1.7-.6.2-11.2-10.2-23.4-23.2L64.7.9 61.5 4c-1.7 1.6-5.2 3.7-7.8 4.6-2.6.9-4.7 2.1-4.7 2.7 0 1 4.8 17.5 16.4 56.8l1.4 4.6-4.7 5.3-4.7 5.3-14-5.2C35.6 75.3 28 73 26.3 73c-6.3 0-10.8 6.9-8.4 12.9.7 1.5 6.6 7.2 13.2 12.7 9.8 8.1 11.8 10.3 11.3 11.9-.3 1.1-1.7 6.4-3.2 11.7l-2.5 9.7-8.6 1.5c-4.7.8-11.7 2.1-15.6 2.7C3.9 137.6 0 140.8 0 146.5s3.9 8.9 12.5 10.4c24.4 4.1 24.5 4.1 25 7 .3 1.4 1.5 6 2.6 10.1 1.2 4.1 2.3 8.2 2.5 9 .3 1-3.9 5.1-11.5 11.4-6.6 5.5-12.5 11.2-13.2 12.7-2.4 6 2.1 12.9 8.4 12.9 1.7 0 9.2-2.3 16.7-5 7.5-2.8 14.1-5 14.6-4.9.5.1 2.8 2.2 5.1 4.8l4.3 4.8-9 30.4c-5 16.7-9 30.9-9 31.6 0 .6 2.1 1.8 4.7 2.7 2.6.9 6.1 3 7.8 4.6l3.2 3.1 22.2-23.6c12.3-12.9 22.6-23.5 22.9-23.5 1.7.1 12.5 2.9 12.9 3.4.5.4 1.6 6.2 4.8 24.5l.6 3.3 5.8-.6c7.5-.9 9.2-.2 8.5 3.4-.6 2.5-.3 2.9 4.2 4.4 2.7.9 6.2 3 7.9 4.6l3.1 3 6.9-7.2c3.8-4 11-11.5 15.9-16.7l9.1-9.3 2.4 3.1 2.3 3.1 3.8-3c2-1.6 5.8-3.8 8.3-4.9l4.6-2-1.4-3.5c-.8-2-1.5-4-1.5-4.5 0-.9 6.6.2 7.7 1.3.5.4 1.6 6.2 4.8 24.5l.6 3.3 5.7-.6c3.1-.3 7.4-.2 9.5.3 3.3.8 3.8.7 4.2-1.3.7-3.1 4.5-24.9 4.5-25.7 0-.3 1.7-.9 3.8-1.3 2.1-.3 7.6-1.6 12.1-3l8.2-2.3 9.2 10.8 9.1 10.8 3.7-3c2-1.5 5.7-3.7 8.2-4.8l4.6-2-2.1-5.3c-1.1-2.9-3.2-8.7-4.8-12.9l-2.7-7.5 9.1-9.1 9.1-9.1 11.5 4.4c6.3 2.3 12.3 4.3 13.2 4.3 1.2.1 2.1-1.2 2.9-3.9.7-2.2 1-4.2.8-4.3-.2-.2-7.6-2.9-16.4-6.1l-16-5.7-2.9 3.8c-3.8 4.8-12.8 13.8-18.4 18.3l-4.3 3.5 5.9 16.2c3.3 9 5.6 16 5.1 15.7-.7-.4-19.4-22.4-21.5-25.3-.2-.2-5.2 1.2-11.1 3.2-5.9 2-13.8 3.9-17.5 4.3-3.8.4-6.8 1-6.8 1.3 0 2-6 33.4-6.4 33.9-.3.3-.6.1-.6-.4 0-1.1-4.7-28.8-5.5-31.9-.4-1.7-1.8-2.3-8.1-3.4-4.2-.7-9.4-1.9-11.6-2.7-2.2-.8-4.3-1.4-4.7-1.4-.4 0-11.4 11.4-24.6 25.4-13.2 14-24.1 25.1-24.3 24.7-.1-.4 4-15.2 9.3-32.9 5.2-17.7 9.5-33 9.5-33.9 0-1-.8-2.3-1.9-3-1-.6-4.5-4.5-7.8-8.6l-6-7.4-10.4 3.7c-5.7 2.1-13.4 4.9-17.1 6.4-3.8 1.4-6.8 2.3-6.8 2.1 0-.2 6.3-5.6 13.9-12l13.9-11.7-2.3-5.6c-2.7-6.7-5.1-15.6-6-22.9l-.7-5.1-8.6-1.6c-4.8-.8-12.9-2.3-18-3.2-5.1-.9-9.1-1.8-9-1.9.3-.3 34-6.5 35.1-6.5.3 0 .8-2.6 1.2-5.7.8-6.6 4.8-21.1 7-25.3l1.4-2.7L134 93.5c-7.7-6.4-14-11.8-14-12 0-.2 3.7 1 8.3 2.7 4.5 1.7 12.2 4.4 17 6.2l8.8 3.1 3.2-4c1.8-2.2 5.3-6.3 7.9-9.1 2.7-2.8 4.8-5.6 4.8-6.3 0-.6-4.3-15.6-9.5-33.3-5.3-17.7-9.4-32.5-9.3-32.9.3-.7 13.5 13 40.8 42.1l7.5 8 6.1-1.9c3.4-1.1 8.9-2.3 12.3-2.7 5.1-.5 6.2-1 6.6-2.8.7-3.1 5.5-30.9 5.5-32 0-.5.3-.7.6-.4.3.3 1.8 7.8 3.4 16.7 1.6 8.9 3.1 16.5 3.4 17 .3.4 3.5 1.1 7.1 1.4 3.6.4 11.3 2.2 17.1 4.2l10.5 3.5 2.7-3.2c1.5-1.8 6.6-7.9 11.4-13.5l8.7-10.2-3.7-3-3.8-3-8.8 10.6c-7.2 8.5-9.2 10.4-11 10-1.1-.3-5.7-1.4-10-2.6-4.4-1.2-9-2.1-10.3-2.1-1.2 0-2.3-.4-2.3-.8 0-.8-3.8-22.4-4.5-25.8-.4-2-.9-2.1-4.2-1.3-2.1.5-6.4.6-9.5.3l-5.7-.6-.6 3.3c-3.1 17.5-4.3 24-4.6 24.3-.2.2-1.9.7-3.6 1.1-3.6.7-4.1-.1-2.2-3.6.9-1.7.5-2.2-2.5-3.4-5-2.1-5.5-1.9-7.2 2.1-1.1 2.7-1.8 3.4-2.7 2.5-.8-.8-.4-1.8 1.7-4l2.7-2.8-3.9-3.2-4-3.1-1.9 2.6-2 2.6-9.9-10.3C175 18.2 167.6 10.5 164 6.7l-6.5-6.8-2.9 3zM81 32c11.1 11.8 21.4 22.7 22.9 24.2l2.6 2.8 6.1-2c3.4-1 8.9-2.2 12.3-2.6 5.1-.5 6.2-1 6.6-2.8.7-3.1 5.5-30.9 5.5-32 0-.5.3-.7.6-.4.3.3 1.8 7.9 3.4 16.9 1.7 8.9 3.3 16.6 3.7 17 .5.4 2.8.9 5.3 1.1 4.4.3 4.5.4 6.1 5.3.9 2.7 1.5 5.1 1.4 5.3-.2.2-2.7-.1-5.6-.6-3-.6-5.5-.9-5.7-.8-.1.2.1 2.3.4 4.8.6 4.5.7 4.6 5 5.3 5.2.7 5.5 2.1 1.5 5.9l-2.9 2.8-12.3-4.5c-6.7-2.4-11.7-4.6-11.1-4.8.6-.2 1.4-2.3 1.8-4.7.8-4.8.3-5-8.6-3.1-5.4 1.2-5.7 1.5-3.6 4.4 1.2 1.7 1 2.1-1.7 4-3.9 2.5-5.4 7.3-3.8 11.3.7 1.5 6.5 7.2 13.2 12.8 9.8 8.1 11.8 10.3 11.3 11.9-.3 1.1-1.7 6.4-3.2 11.7l-2.5 9.7-8.6 1.5c-4.7.8-11.7 2.1-15.6 2.7-8.6 1.5-12.5 4.7-12.5 10.4s3.9 8.9 12.5 10.4c24.4 4.1 24.5 4.1 25 7 .3 1.4 1.5 6 2.6 10.1 1.2 4.1 2.3 8.2 2.5 9 .3 1-3.9 5.1-11.5 11.4-12.5 10.4-14.7 13.4-13.6 18.5.7 3.4 4.7 7.1 7.7 7.1 1.8 0 1.8.2-.6 3.1-1.4 1.7-2.4 3.4-2.1 3.8.5 1 12.5 3.4 13.2 2.8.2-.3.1-2.6-.2-5.1-.6-3.6-1.1-4.6-2.9-4.8-1.9-.3 23-9.9 25-9.7.5 0 2.6 2 4.7 4.4l3.7 4.2-6 1.2c-5.1 1-6 1.5-6 3.4 0 1.2-.3 3.3-.7 4.6-.6 2.4-.6 2.4 5.1 1.7 5.2-.6 5.7-.5 5.2 1.1-.3 1-.8 3-1.2 4.6-.8 3.3-3.1 4.7-7.8 4.7-2 0-3.6.3-3.6.7 0 2.1-6 33.6-6.4 34.1-.3.3-.6.1-.6-.4 0-1.1-4.7-28.8-5.5-31.9-.4-1.7-1.8-2.3-8.1-3.4-4.2-.7-9.4-1.9-11.6-2.7-2.2-.8-4.3-1.4-4.7-1.4-.4 0-11.4 11.4-24.6 25.4-13.2 14-24.1 25.1-24.3 24.7-.1-.4 4-15.2 9.3-32.9 5.2-17.7 9.5-33 9.5-33.9 0-1-.8-2.3-1.9-3-1-.6-4.5-4.5-7.8-8.6l-6-7.4-10.4 3.7c-5.7 2.1-13.4 4.9-17.1 6.4-3.8 1.4-6.8 2.3-6.8 2.1 0-.2 6.3-5.6 13.9-12l13.9-11.7-2.3-5.6c-2.7-6.7-5.1-15.6-6-23-.4-2.8-.9-5.2-1.2-5.2-1.1 0-34.8-6.2-35.1-6.5-.1-.1 3.9-1 9-1.9 5.1-.9 13.2-2.4 17.9-3.2l8.7-1.6.7-5.6c.8-6.5 4.8-21 7-25.2l1.4-2.7L41 94.5c-7.7-6.4-14-11.8-14-12 0-.2 3.7 1 8.3 2.7 4.5 1.7 12.2 4.4 17 6.2l8.8 3.1 3.2-4c1.8-2.2 5.3-6.3 7.9-9.1 2.7-2.8 4.8-5.6 4.8-6.3 0-.6-4.3-15.6-9.5-33.3C62.3 24.2 58 9.2 58 8.6c0-.5.6-.4 1.4.4.7.8 10.5 11.2 21.6 23zm119.7 222 1.4 3.5-3.2-3.2c-2.8-2.8-3.1-3.4-1.9-4.9 1.1-1.3 1.5-1.3 1.8-.3.3.8 1.1 3 1.9 4.9z"
     id="path2" />
  <path
     d="M75.7 92.1c-2.5 2.9-4.4 5.6-4.1 6 .3.5 2.3 1.4 4.4 2 3.6 1.1 4.1 1 5.8-1.1 1.7-2.1 1.8-2.7.5-6.8-.7-2.5-1.5-4.7-1.7-4.9-.2-.2-2.4 2-4.9 4.8zM59.6 120.7c-1.3 4.3-2.7 10-3.1 12.7l-.8 4.8 4.4-.7c5.6-.9 5.9-1.1 5.9-4 0-1.3.9-5.1 1.9-8.5l1.9-6.2-3.1-2.9c-1.8-1.5-3.5-2.9-3.9-2.9-.4 0-1.8 3.5-3.2 7.7zM56.5 159.7c.9 6 5.3 20.3 6.3 20.3.4 0 2.1-1.4 3.9-3l3.2-2.8-2-6.4c-1-3.5-1.9-7.3-1.9-8.6 0-2.4-.5-2.7-6.4-3.7l-3.8-.6.7 4.8zM74.2 193.5l-3.4 1.5 4.2 5c2.3 2.7 4.6 5.2 5 5.5.5.3 1.5-1.6 2.3-4.2 2.3-7.8-1-10.9-8.1-7.8zM294.6 35.8c-.3.5-3 7.8-6.1 16.3l-5.6 15.4 3.3 2.5c4.3 3.2 17.9 16.7 20.4 20.3l2 2.8 15.4-5.6c8.5-3.1 15.9-6 16.4-6.5 1.2-1.2-1.3-8-3-8-.7 0-6.1 1.8-11.9 4-5.8 2.1-11.1 4-11.8 4.2-.7.1-5.3-3.8-10.3-8.8l-9-9.1 4.7-12.7 4.7-12.8-3.4-1.4c-3.8-1.6-5.1-1.7-5.8-.6zM239.6 66.8c.3 2.6.7 4.7.8 4.7 0 0 4.3 1.1 9.3 2.3 5.1 1.3 9.7 2.1 10.2 1.7.6-.3 1.9-1.9 3.1-3.5l2.1-2.9-3.8-1.6c-3.5-1.5-11.2-3.5-19.1-4.9l-3.3-.6.7 4.8zM212.3 64.2c-2.4.5-4.3 1.3-4.3 1.8 0 2.2 5.3 7 7.8 7 4 0 5-1.1 5.8-5.8.6-4.1.6-4.2-2.2-4.1-1.6.1-4.8.5-7.1 1.1zM277.8 81.5l-1.7 4.4 7.1 6.9 7.2 7 4.3-1.5c3.6-1.3 4.1-1.7 3.3-3.3-1.3-2.4-11.8-13-15.6-15.7l-3-2.2-1.6 4.4zM328.3 92.7c-7 5.8-12.9 10.7-13 10.8-.2.1.8 2.9 2.2 6.2 1.3 3.3 3.2 9 4.1 12.6 1 4.3 2.2 6.8 3.3 7.1 3.1.9 64.7 15.6 65.4 15.6.8 0 3-8 2.4-8.6-.2-.3-14.1-3.8-30.8-7.8l-30.3-7.3-2.3-6.8c-1.3-3.8-2.3-7.2-2.3-7.6 0-.4 4.7-4.7 10.5-9.4l10.4-8.7-2.7-3.4c-1.5-1.9-3-3.4-3.4-3.4-.3 0-6.4 4.8-13.5 10.7zM168.7 91.1c-2.5 2.9-4.4 5.6-4.1 6 .3.5 2.3 1.4 4.4 2 3.6 1.1 4.1 1 5.8-1.1 1.7-2.1 1.8-2.7.5-6.8-.7-2.5-1.5-4.7-1.7-4.9-.2-.2-2.4 2-4.9 4.8zM303.3 113.8c-3.2 2.6-3.3 2.8-2.1 6.4 1.1 3.8 1.6 4.1 7.6 5.3 2.4.5 3.2.3 3.2-.7 0-2.2-4.1-13.8-4.8-13.8-.4 0-2.2 1.3-3.9 2.8zM152.6 119.7c-1.3 4.3-2.7 10-3.1 12.7l-.8 4.8 4.4-.7c5.6-.9 5.9-1.1 5.9-4 0-1.3.9-5.1 1.9-8.5l1.9-6.2-3.1-2.9c-1.8-1.5-3.5-2.9-3.9-2.9-.4 0-1.8 3.5-3.2 7.7zM358 153.5c-16.8 4.1-31.5 7.7-32.6 8-1.7.4-2.5 1.9-3.8 7-.9 3.6-2.7 9-4.1 12.1-1.4 3.1-2.2 6-1.9 6.5.8 1.4 25.4 21.9 26.2 21.9.4 0 1.9-1.5 3.4-3.4l2.7-3.4-10.4-8.7c-5.8-4.7-10.5-9-10.5-9.4 0-.4 1-3.8 2.3-7.5l2.3-6.9 30.3-7.3c16.7-4 30.5-7.5 30.8-7.8.9-.8-1.8-8.6-3-8.5-.7 0-14.9 3.4-31.7 7.4zM149.5 158.7c.9 6 5.3 20.3 6.3 20.3.4 0 2.1-1.4 3.9-3l3.2-2.8-2-6.4c-1-3.5-1.9-7.3-1.9-8.6 0-2.4-.5-2.7-6.4-3.7l-3.8-.6.7 4.8zM305.8 166.2c-3 .8-3.9 1.6-4.9 4.6-1.1 3.4-1 3.6 2.2 6.3 1.9 1.6 3.7 2.9 4 2.9.6 0 4.9-11.9 4.9-13.8 0-1.4-1-1.4-6.2 0zM167.2 192.5l-3.4 1.5 4.2 5c2.3 2.7 4.6 5.2 5 5.5.5.3 1.5-1.6 2.3-4.2 2.3-7.8-1-10.9-8.1-7.8zM282.8 198.2l-6.8 6.9 1.6 3.9c.9 2.2 2 4 2.6 4 .5 0 5-4.1 10.1-9.1l9.2-9.2-3-1.2c-6.3-2.6-6.7-2.5-13.7 4.7zM254.9 215.5c-2 .7-6.2 1.8-9.3 2.5-4.7 1-5.6 1.5-5.6 3.3 0 1.2-.3 3.2-.6 4.4-.6 2-.3 2.3 2.3 2.3 3.7 0 17.4-3.4 20.8-5.2l2.6-1.4-3.3-3.6c-3.2-3.6-3.4-3.6-6.9-2.3zM210.9 220.8c-1.6 1.8-2.7 3.7-2.4 4.1.5 1 12.5 3.5 13.2 2.8.2-.3.1-2.5-.2-5-.7-4.2-.9-4.5-4.2-4.9-2.9-.4-3.9.1-6.4 3z"
     id="path4" />
  <path
     style="fill:none;stroke:#000000;stroke-width:0.75px;stroke-linecap:butt;stroke-linejoin:miter;stroke-opacity:1"
     d="m 340.9,209.7 1.43717,-1.81352"
     id="path837" />
  <path
     style="fill:none;stroke:#000000;stroke-width:0.75px;stroke-linecap:butt;stroke-linejoin:miter;stroke-opacity:1"
     d="m 389.7,146.1 -0.0763,-2.9329"
     id="path839" />
  <path
     style="fill:none;stroke:#000000;stroke-width:0.75px;stroke-linecap:butt;stroke-linejoin:miter;stroke-opacity:1"
     d="m 341.90135,83.023842 -2.1791,-3.704469"
     id="path841" />
  <path
     style="fill:none;stroke:#000000;stroke-width:0.75px;stroke-linecap:butt;stroke-linejoin:miter;stroke-opacity:1"
     d="m 294.6,35.8 0.3,-1.7"
     id="path843" />
</svg>
