<svg xmlns="http://www.w3.org/2000/svg" width="524" height="389" version="1.0" viewBox="0 0 393 292"><path d="M204 8c-5 0-10 6-7 11l22 79-16 19-33-12c-7-1-12 8-8 13 6 8 14 13 20 19 2 2 7 4 6 6l-9 36-34 7c-8 2-7 16 2 17l32 6c2 12 5 25 10 37-9 7-18 14-26 23-5 5-1 14 6 14 8-1 16-6 24-8l10-4 16 19-22 79c-2 6 4 12 10 10 7-2 11-8 16-13l46-48 24 7 6 33c2 6 11 6 15 2 3-4 3-10 4-14l4-22c13-1 26-6 39-9l20 23c5 4 14 3 15-4 0-7-4-13-5-19l-6-15c11-8 20-18 29-28 11 4 22 9 33 11 7 1 11-7 8-12-7-8-15-13-22-20-1-2-6-3-4-5l8-24c26-8 53-13 80-20 6-1 9-10 4-14s-11-4-17-6l-67-16-9-26c9-7 18-13 26-22 4-5 0-14-7-14l-21 8-12 4c-9-10-18-20-29-28l12-33c2-6-5-11-10-9-7 2-10 9-15 14l-11 13c-13-4-26-8-39-9l-6-34c-2-6-11-7-15-3s-3 10-4 15l-4 22-25 5c-18-19-36-39-55-57-3-2-5-4-9-4z" style="fill:#fff;stroke:#b00;stroke-width:0;paint-order:stroke fill markers" transform="scale(.75)"/><path d="M79 8c-6 0-9 7-6 12l22 79-16 19c-11-4-22-9-34-12-6-1-11 8-7 13 5 7 13 12 20 19l7 6c-5 11-8 24-10 37l-35 6c-7 3-6 17 3 17l32 6c2 13 5 25 10 37-9 8-18 14-26 23-4 5-1 14 6 14 8-1 15-5 22-7l12-4 16 18-22 80c-2 7 5 12 11 10 7-4 12-11 18-17l43-44 24 6c2 10 3 22 6 32 3 7 13 6 17 1l6-34c7 0 14-3 15-10 2-5 5-12-1-16-3-1-3-1 0-2 6-3 6-11 2-15-4-3-7-8-11-10-6-1-11 3-16 4-8 3-15 5-22 9-2 2-2 4-4 1-3-1-7-3-7-6 2-6 9-10 13-14 7-6 14-12 19-19 3-5-1-11-1-16-2-7-3-15-7-21-5-4-13-4-19-6-9-2-18-2-26-6-3-2-2-6-1-8 6-3 13-3 19-5 9-1 17-2 25-5 5-3 5-10 7-15 1-7 4-14 4-21-1-7-8-10-12-15-7-6-15-12-21-20 0-6 8-7 9-12v-3c-2 5 3 10 7 12l29 10c6 0 10-6 14-10s1-11-3-13c6 0 8-6 6-11-2-6-3-14-11-16-2-1-5 0-7-2l-6-32c-3-7-16-6-17 1l-6 32c-9 1-17 3-25 6L89 12c-3-2-6-4-10-4Z" style="fill:#fff;stroke:#b00;stroke-width:0;paint-order:stroke fill markers" transform="scale(.75)"/><path d="m155 3-8 5-5 1v4c1 5 0 5-8 4h-6l-5 26c0 1-1 2-6 3l-7 2-23-24L65 1l-3 3-8 5c-3 0-5 2-5 2l16 57 2 5-5 5-5 5-14-5-17-5c-6 0-10 7-8 13l13 13c10 8 12 10 11 12l-3 11-2 10-9 1-16 3c-8 2-12 5-12 11s4 8 13 10c24 4 24 4 25 7a342 342 0 0 0 5 19l-12 11-13 13c-2 6 2 13 8 13l17-5 15-5 5 5 4 5-9 30-9 32s2 2 5 2l8 5 3 3 22-23 23-24 13 3 5 25v3h6c7-1 9-1 8 3 0 3 0 3 5 4l8 5 3 3 7-7 15-17 10-9 2 3 2 3 4-3 8-5 5-2-1-3-2-5 8 1 5 25v3h15c4 1 4 1 5-1l4-26 4-1 12-3 8-3 9 11 9 11 4-3 8-5 5-2-2-5-5-13-3-8 9-9 10-9 11 5 13 4 3-4 1-4-16-6-16-6-3 4c-4 5-13 14-19 18l-4 4 6 16 5 15-22-25-11 3a104 104 0 0 1-24 6 591 591 0 0 1-7 33l-5-31c-1-2-2-3-9-4a85 85 0 0 1-16-4 641 641 0 0 0-49 50 669 669 0 0 1 19-67l-2-3-8-8-6-8-10 4-17 6-7 3 14-12 14-12-2-6c-3-6-6-15-6-23l-1-5-9-1-18-4-9-1 35-7 2-6c0-6 4-21 7-25l1-3-14-11-14-12 8 2 17 6 9 4 3-4a229 229 0 0 1 13-16 1099 1099 0 0 0-19-66c1-1 14 13 41 42l8 8 6-2 12-3c5 0 6-1 7-2a999 999 0 0 0 6-33l3 17 3 17 8 1 17 5 10 3 3-3 11-14 9-10-4-3-4-3-8 11-11 10-10-3-11-2-2-1-5-26c0-2 0-2-4-1h-15l-1 3-4 24-4 2c-3 0-4-1-2-4 1-2 1-2-2-3-5-3-6-2-8 2-1 2-1 3-2 2s-1-2 1-4l3-3-4-3-4-3-2 3-2 2-10-10-16-17-6-7-3 3zM81 32l23 24 3 3 6-2 12-3c5 0 6-1 6-2a999 999 0 0 0 7-33l3 17 4 17 5 1c4 1 5 1 6 6l1 5-5-1-6-1 1 5c0 5 0 5 5 6 5 0 5 2 1 5l-3 3-12-4-11-5 2-5c0-5 0-5-9-3-5 1-6 2-4 5 2 1 1 2-1 4-4 2-6 7-4 11l13 13c10 8 12 10 11 12l-3 11-2 10-9 1-15 3c-9 2-13 5-13 10s4 9 13 11c24 4 24 4 25 7a342 342 0 0 0 5 19l-12 11c-12 11-15 14-13 19 0 3 4 7 7 7 2 0 2 0 0 3-2 2-3 3-2 4l13 3v-5c-1-4-2-5-3-5l25-10 4 5 4 4-6 1c-5 1-6 1-6 3l-1 5c0 2 0 2 5 2 6-1 6-1 6 1l-2 4c0 4-3 5-7 5l-4 1a583 583 0 0 1-7 33l-5-32c-1-1-2-2-9-3a85 85 0 0 1-16-4 641 641 0 0 0-49 50 669 669 0 0 1 19-67l-2-3-8-8-6-8-10 4-17 6-7 2 14-12 14-11-2-6c-3-7-6-15-6-23l-2-5-35-7 9-1 18-4 9-1 1-6c0-6 4-21 7-25l1-3-14-11-14-12 8 2 17 6 9 4 3-4a229 229 0 0 1 13-16A1099 1099 0 0 0 59 9l22 23zm120 222 1 4-3-4c-3-2-3-3-2-5h2l2 5z"/><path d="m76 92-4 6 4 2c4 1 4 1 6-1s2-3 0-7l-1-5-5 5zm-16 29-3 12-1 5h4c6-1 6-2 6-4l2-9 2-6-3-3-4-3-3 8zm-3 39c0 6 5 20 6 20l4-3 3-3-2-6-2-9c0-2 0-3-6-4h-4l1 5zm17 34-3 1 4 5 5 6c1 0 2-2 2-5 3-7-1-11-8-7zM295 36l-6 16-6 16 3 2 21 20 2 3 15-5 16-7c2-1-1-8-3-8l-12 4-11 4-11-9-9-9 5-12 5-13-4-2h-5zm-55 31v4a722 722 0 0 0 20 5l3-4 2-3-4-2-19-4-3-1 1 5zm-28-3-4 2c0 2 5 7 8 7 4 0 5-1 6-6 0-4 0-4-3-4l-7 1zm66 18-2 4 7 7 7 7 5-2c3-1 4-1 3-3l-16-16-3-2-1 5zm50 11-13 11 3 6 4 12c1 5 2 7 3 7l65 16 3-9-31-7-30-8-3-7-2-7 11-9 10-9-3-4-3-3-14 11zm-159-2-4 6 4 2c4 1 4 1 6-1s2-3 0-7l-1-5-5 5zm134 23c-3 2-3 3-2 6 1 4 2 4 8 6l3-1-5-14-4 3zm-150 6-4 12v5h4c6-1 6-2 6-4l2-9 2-6-3-3-4-3-3 8zm205 34-33 8c-1 0-2 1-3 7l-5 12-1 6 26 22 3-3 3-4-11-9-10-9 2-7 3-7 30-8 31-7c1-1-2-9-3-9l-32 7zm-208 5c0 6 5 20 6 20l4-3 3-3-2-6-2-9c0-2 0-3-6-4h-4v5zm156 7c-3 1-4 2-5 5s-1 3 2 6l4 3 5-14h-6zm-139 27-3 1 4 5 5 6 2-5c3-7-1-11-8-7zm116 5-7 7 2 4 2 4 10-9 10-9-3-1c-7-3-7-3-14 4zm-28 18-9 2c-5 1-6 2-6 3l-1 5c0 2 0 2 3 2s17-3 21-5l2-2-3-3c-3-4-4-4-7-2zm-44 5-2 4 13 3-1-5c0-4 0-5-4-5-3-1-4 0-6 3z"/><path d="m341 210 1-2m48-62v-3m-48-60-2-4m-45-43v-2" style="fill:none;stroke:#000;stroke-width:.75px;stroke-linecap:butt;stroke-linejoin:miter;stroke-opacity:1"/></svg>