<?xml version="1.0" encoding="UTF-8" standalone="no"?>
<svg
   xmlns:dc="http://purl.org/dc/elements/1.1/"
   xmlns:cc="http://creativecommons.org/ns#"
   xmlns:rdf="http://www.w3.org/1999/02/22-rdf-syntax-ns#"
   xmlns:svg="http://www.w3.org/2000/svg"
   xmlns="http://www.w3.org/2000/svg"
   xmlns:sodipodi="http://sodipodi.sourceforge.net/DTD/sodipodi-0.dtd"
   xmlns:inkscape="http://www.inkscape.org/namespaces/inkscape"
   width="896.24005"
   height="395.86652"
   version="1.0"
   viewBox="0 0 672.18004 296.90014"
   id="svg6"
   sodipodi:docname="con5.svg"
   inkscape:version="1.0.1 (3bc2e813f5, 2020-09-07)">
  <metadata
     id="metadata12">
    <rdf:RDF>
      <cc:Work
         rdf:about="">
        <dc:format>image/svg+xml</dc:format>
        <dc:type
           rdf:resource="http://purl.org/dc/dcmitype/StillImage" />
        <dc:title></dc:title>
      </cc:Work>
    </rdf:RDF>
  </metadata>
  <defs
     id="defs10" />
  <sodipodi:namedview
     pagecolor="#ffffff"
     bordercolor="#666666"
     borderopacity="1"
     objecttolerance="10"
     gridtolerance="10"
     guidetolerance="10"
     inkscape:pageopacity="0"
     inkscape:pageshadow="2"
     inkscape:window-width="1600"
     inkscape:window-height="837"
     id="namedview8"
     showgrid="false"
     inkscape:zoom="0.8604459"
     inkscape:cx="392.02992"
     inkscape:cy="186.83655"
     inkscape:window-x="-8"
     inkscape:window-y="-8"
     inkscape:window-maximized="1"
     inkscape:current-layer="svg6"
     inkscape:document-rotation="0"
     lock-margins="true"
     fit-margin-top="0"
     fit-margin-left="0"
     fit-margin-right="0"
     fit-margin-bottom="0" />
  <path
     style="fill:#ffffff;stroke:#bb0000;stroke-width:0;paint-order:stroke fill markers"
     d="m 432.67112,6.0865665 c -4.32823,-0.2493269 -7.6533,4.5197375 -5.78314,8.4908435 5.45615,19.632464 11.28792,39.158939 16.89742,58.748119 -3.91549,4.832021 -8.23168,9.323833 -12.1451,14.15907 -8.41502,-2.763767 -16.57215,-6.415428 -25.16099,-8.589589 -5.18583,-0.776243 -8.48924,5.803247 -5.68865,9.885979 4.27654,5.499227 10.26822,9.385984 15.36874,14.074951 1.14066,1.58629 4.5184,2.65908 4.40404,4.53184 -3.57709,8.69591 -5.53063,17.9577 -7.24294,27.17141 -8.31738,1.80069 -16.89662,2.6189 -25.17716,4.88256 -6.06365,1.92585 -4.99575,12.52815 1.38422,12.96855 7.98492,1.42798 15.97672,2.81856 23.95042,4.3085 1.30592,9.47146 3.67491,18.82992 7.42428,27.63801 -6.49805,5.80451 -13.7262,10.87307 -19.63917,17.29153 -3.29389,3.75387 -0.69288,10.7156 4.57015,10.52865 6.37887,-0.67049 12.11993,-3.98275 18.19219,-5.85519 2.6074,-0.95186 5.21732,-1.89705 7.83618,-2.81696 3.85974,4.70944 7.75266,9.39868 11.94506,13.81857 -5.4219,19.88797 -11.6528,39.55574 -16.8174,59.5372 -1.27527,4.43036 3.12832,8.82184 7.56302,7.62857 5.12707,-1.55091 8.18336,-6.50039 12.01909,-9.92006 11.48633,-11.78866 22.74676,-23.87503 34.1711,-35.67343 5.96401,1.96945 12.43733,2.72013 18.30872,4.58718 1.89902,8.39274 2.72827,17.04125 4.68222,25.3887 1.45757,4.54617 8.25634,4.40456 11.17979,1.53682 2.45421,-3.0634 1.9879,-7.49132 3.06366,-11.16693 1.02688,-5.33934 1.91489,-10.70514 2.9888,-16.03523 9.86441,-1.12785 19.28608,-4.37104 28.74714,-7.21062 5.19539,5.96486 9.87002,12.46402 15.66486,17.86269 3.49348,2.83068 10.38982,2.01802 11.0947,-3.13671 0.0932,-5.089 -2.84152,-9.6674 -4.19145,-14.471 -1.32391,-3.65649 -2.63704,-7.31706 -3.90358,-10.99387 7.66229,-6.39487 14.87735,-13.39742 21.21136,-21.11773 8.36602,2.74513 16.48338,6.34561 25.01543,8.5283 5.04802,0.77701 8.53801,-5.68417 5.59757,-9.67403 -4.65706,-5.67454 -10.94582,-9.66163 -16.2826,-14.60203 -0.80024,-1.3382 -4.01285,-2.10554 -3.05609,-3.89737 2.46758,-5.81521 4.09687,-11.92998 6.213,-17.8695 19.84493,-5.65067 40.06114,-9.65763 59.98494,-14.98899 4.82902,-0.95416 6.72674,-7.64963 2.93241,-10.86573 -3.64693,-2.63738 -8.5273,-2.43404 -12.68606,-3.8473 -16.71624,-4.08278 -33.5499,-7.73172 -50.16745,-12.1938 -2.15495,-6.40277 -3.95462,-12.94899 -6.47432,-19.25868 6.11709,-5.679369 13.21819,-10.330676 18.80924,-16.545861 3.2203,-3.883861 0.36688,-10.848049 -4.93618,-10.478427 -5.52333,0.791618 -10.48243,3.765309 -15.81553,5.332848 -3.00883,0.994305 -6.13367,2.336641 -9.10286,3.043081 -6.49486,-7.523598 -13.62022,-14.547459 -21.21903,-20.955144 2.85363,-8.325414 6.13203,-16.636045 8.94454,-24.849441 0.91078,-4.420486 -3.91393,-7.623481 -7.89329,-6.44538 -4.98753,1.518745 -7.54964,6.653549 -11.02555,10.153963 -2.90774,3.430427 -5.80897,6.866523 -8.69108,10.318545 -9.39628,-3.049613 -18.85776,-6.116223 -28.71395,-7.254883 -1.79417,-8.430204 -2.99681,-17.037065 -5.06622,-25.373872 -1.47403,-4.043478 -7.60585,-4.740237 -10.74429,-2.3685 -2.98153,3.047453 -2.19278,7.959553 -3.30686,11.863857 -0.92243,5.343118 -1.76061,10.706064 -2.9452,15.999387 -6.26419,1.186545 -12.56517,2.284089 -18.63558,4.288408 -13.7883,-14.507003 -27.20192,-29.397479 -41.54087,-43.3650121 -1.68036,-1.5206178 -3.7499,-2.8648774 -6.1117,-2.7468624 z"
     id="path849" />
  <path
     style="fill:#ffffff;stroke:#bb0000;stroke-width:0;paint-order:stroke fill markers"
     d="m 338.37126,6.129127 c -4.39372,0.1930416 -6.24819,5.296126 -4.65528,8.930069 5.5216,19.814926 11.49901,39.46997 17.0268,59.273318 -3.86234,4.868391 -8.19562,9.339893 -12.10679,14.16928 -8.47503,-2.800021 -16.69472,-6.445488 -25.32612,-8.724926 -5.12919,-0.8529 -8.57952,5.599795 -5.84358,9.718294 4.11548,5.4307 10.02891,9.186896 15.01071,13.771128 1.71019,1.53519 3.75362,2.99266 5.26687,4.56994 -3.51568,8.88827 -5.87966,18.23458 -7.31532,27.67802 -8.59089,1.69731 -17.31571,2.93042 -25.87224,4.78277 -5.73197,2.10183 -4.55686,12.58395 1.68897,12.98587 8.08098,1.49489 16.19115,2.84196 24.23435,4.53398 1.24624,9.45816 3.77978,18.70693 7.40214,27.5282 -6.4551,5.74732 -13.62142,10.78565 -19.46893,17.16981 -3.22579,3.74282 -0.72578,10.60208 4.47653,10.5678 5.88973,-0.40645 11.1722,-3.58033 16.76284,-5.25008 3.06703,-1.11765 6.14045,-2.2177 9.21275,-3.32078 3.78263,4.70558 7.63627,9.36874 11.87697,13.67218 -5.19577,20.27588 -11.79052,40.17276 -17.0583,60.42415 -1.20525,4.73667 4.20402,8.79174 8.54107,6.90844 5.50732,-2.86714 9.24741,-8.15878 13.71161,-12.34385 10.64578,-11.0709 21.15757,-22.26946 31.7942,-33.34923 5.98855,1.97596 12.2228,3.0044 18.33,4.51738 1.79968,8.09386 2.45018,16.45593 4.70721,24.4315 1.92578,4.99102 9.89841,4.66552 12.26727,0.4005 2.12539,-8.19532 3.23145,-16.66605 4.82848,-24.99287 4.89964,-0.14506 10.24673,-2.61155 11.51009,-7.75795 1.22859,-3.79109 3.18773,-9.19678 -0.79482,-12.05466 -2.28979,-1.00127 -2.48744,-0.94559 0.007,-1.82606 4.14385,-1.89825 4.45252,-7.7545 1.28703,-10.71336 -2.72691,-2.72371 -4.99775,-6.35599 -8.60978,-7.84147 -4.15721,-0.50156 -7.95325,2.06356 -11.89675,3.09786 -5.4643,2.18831 -11.28195,3.84383 -16.23519,7.08274 -1.29993,1.50725 -1.48627,2.77013 -3.03628,0.79589 -2.15628,-0.93528 -5.05977,-2.31177 -5.35497,-4.95491 1.66647,-4.74558 6.54344,-7.35741 9.93767,-10.78165 4.76909,-4.4835 10.68778,-8.36068 14.47197,-13.89635 2.08872,-3.93594 -0.79229,-8.2354 -1.3424,-12.26188 -1.61459,-5.11029 -2.22288,-10.75518 -5.16965,-15.31775 -3.75134,-3.49609 -9.37639,-3.34286 -14.08682,-4.60587 -6.62473,-1.57145 -13.54255,-1.6487 -19.68503,-4.62552 -1.7238,-1.22728 -1.63866,-4.21129 -0.22472,-5.63758 4.14918,-2.80638 9.52935,-2.62529 14.25793,-3.80485 6.05196,-1.23216 12.31142,-1.76513 18.19709,-3.64497 3.76196,-2.54884 3.59576,-7.64358 5.09726,-11.52284 1.12587,-5.31706 3.54119,-10.49469 3.51871,-15.98664 -0.95642,-5.02936 -6.07069,-7.65091 -9.35898,-11.083305 -5.2206,-4.83979 -11.27951,-9.041374 -15.53387,-14.781629 -0.3789,-4.419624 5.87582,-5.278217 6.40229,-9.44983 -0.17606,-1.102565 0.63614,-4.080145 0.70278,-1.859377 -1.56018,3.908022 1.63363,7.485263 5.19325,8.627034 7.02145,2.800868 14.07284,5.64616 21.33222,7.75285 4.72237,0.337613 7.59056,-4.331244 10.3865,-7.407258 2.93248,-2.911771 1.1958,-8.185154 -1.71179,-9.669769 3.85082,-0.548345 5.53484,-4.882238 4.22201,-8.2525 -1.19964,-4.68818 -2.5655,-10.78338 -8.06864,-12.041252 -1.58897,-0.7284 -4.05846,-0.234994 -5.14989,-1.317645 -1.99315,-8.015677 -3.05322,-16.278076 -5.02481,-24.262749 -1.99031,-5.269192 -11.48377,-4.894994 -12.77314,0.858634 -1.69654,7.94136 -2.57884,16.258962 -4.51909,24.022914 -6.23779,0.858658 -12.44183,2.14843 -18.4313,4.106248 C 373.3907,38.642034 359.85751,23.676702 345.69679,9.3237266 343.74512,7.3768839 341.24612,5.8062083 338.37126,6.129127 Z"
     id="path851" />
  <path
     d="m 433.9,3 c -1.6,1.7 -5.1,3.8 -7.8,4.7 l -4.9,1.6 0.6,3.8 c 0.8,4.7 -0.5,5.3 -8.7,4.4 -3.2,-0.4 -5.8,-0.5 -5.8,-0.2 0,0.7 -3.9,23 -4.5,25.4 -0.3,1.6 -1.8,2.4 -6.2,3.4 -3.2,0.7 -6.3,1.4 -6.9,1.7 C 389.1,48 378.5,37.6 366.3,24.6 L 344,1 340.8,4.1 c -1.7,1.6 -5.2,3.7 -7.8,4.6 -2.6,0.9 -4.7,2.1 -4.7,2.7 0,1 4.8,17.5 16.4,56.8 l 1.4,4.6 -4.7,5.3 -4.7,5.3 -14,-5.2 c -7.8,-2.8 -15.4,-5.1 -17.1,-5.1 -6.3,0 -10.8,6.9 -8.4,12.9 0.7,1.5 6.6,7.2 13.2,12.7 9.8,8.1 11.8,10.3 11.3,11.9 -0.3,1.1 -1.7,6.4 -3.2,11.7 l -2.5,9.7 -8.6,1.5 c -4.7,0.8 -11.7,2.1 -15.6,2.7 -8.6,1.5 -12.5,4.7 -12.5,10.4 0,5.7 3.9,8.9 12.5,10.4 24.4,4.1 24.5,4.1 25,7 0.3,1.4 1.5,6 2.6,10.1 1.2,4.1 2.3,8.2 2.5,9 0.3,1 -3.9,5.1 -11.5,11.4 -6.6,5.5 -12.5,11.2 -13.2,12.7 -2.4,6 2.1,12.9 8.4,12.9 1.7,0 9.2,-2.3 16.7,-5 7.5,-2.8 14.1,-5 14.6,-4.9 0.5,0.1 2.8,2.2 5.1,4.8 l 4.3,4.8 -9,30.4 c -5,16.7 -9,30.9 -9,31.6 0,0.6 2.1,1.8 4.7,2.7 2.6,0.9 6.1,3 7.8,4.6 l 3.2,3.1 22.2,-23.6 c 12.3,-12.9 22.6,-23.5 22.9,-23.5 1.7,0.1 12.5,2.9 12.9,3.4 0.5,0.4 1.6,6.2 4.8,24.5 l 0.6,3.3 5.8,-0.6 c 7.5,-0.9 9.2,-0.2 8.5,3.4 -0.6,2.5 -0.3,2.9 4.2,4.4 2.7,0.9 6.2,3 7.9,4.6 l 3.1,3 6.9,-7.2 c 3.8,-4 11,-11.5 15.9,-16.7 l 9.1,-9.3 2.4,3.1 2.3,3.1 3.8,-3 c 2,-1.6 5.8,-3.8 8.3,-4.9 l 4.6,-2 -1.4,-3.5 c -0.8,-2 -1.5,-4 -1.5,-4.5 0,-0.9 6.6,0.2 7.7,1.3 0.5,0.4 1.6,6.2 4.8,24.5 l 0.6,3.3 5.7,-0.6 c 3.1,-0.3 7.4,-0.2 9.5,0.3 3.3,0.8 3.8,0.7 4.2,-1.3 0.7,-3.1 4.5,-24.9 4.5,-25.7 0,-0.3 1.7,-0.9 3.8,-1.3 2.1,-0.3 7.6,-1.6 12.1,-3 l 8.2,-2.3 9.2,10.8 9.1,10.8 3.7,-3 c 2,-1.5 5.7,-3.7 8.2,-4.8 l 4.6,-2 -2.1,-5.3 C 580,245 577.9,239.2 576.3,235 l -2.7,-7.5 9.1,-9.1 9.1,-9.1 11.5,4.4 c 6.3,2.3 12.3,4.3 13.2,4.3 1.2,0.1 2.1,-1.2 2.9,-3.9 0.7,-2.2 1,-4.2 0.8,-4.3 -0.2,-0.2 -7.6,-2.9 -16.4,-6.1 l -16,-5.7 -2.9,3.8 c -3.8,4.8 -12.8,13.8 -18.4,18.3 l -4.3,3.5 5.9,16.2 c 3.3,9 5.6,16 5.1,15.7 -0.7,-0.4 -19.4,-22.4 -21.5,-25.3 -0.2,-0.2 -5.2,1.2 -11.1,3.2 -5.9,2 -13.8,3.9 -17.5,4.3 -3.8,0.4 -6.8,1 -6.8,1.3 0,2 -6,33.4 -6.4,33.9 -0.3,0.3 -0.6,0.1 -0.6,-0.4 0,-1.1 -4.7,-28.8 -5.5,-31.9 -0.4,-1.7 -1.8,-2.3 -8.1,-3.4 -4.2,-0.7 -9.4,-1.9 -11.6,-2.7 -2.2,-0.8 -4.3,-1.4 -4.7,-1.4 -0.4,0 -11.4,11.4 -24.6,25.4 -13.2,14 -24.1,25.1 -24.3,24.7 -0.1,-0.4 4,-15.2 9.3,-32.9 5.2,-17.7 9.5,-33 9.5,-33.9 0,-1 -0.8,-2.3 -1.9,-3 -1,-0.6 -4.5,-4.5 -7.8,-8.6 l -6,-7.4 -10.4,3.7 c -5.7,2.1 -13.4,4.9 -17.1,6.4 -3.8,1.4 -6.8,2.3 -6.8,2.1 0,-0.2 6.3,-5.6 13.9,-12 l 13.9,-11.7 -2.3,-5.6 c -2.7,-6.7 -5.1,-15.6 -6,-22.9 l -0.7,-5.1 -8.6,-1.6 c -4.8,-0.8 -12.9,-2.3 -18,-3.2 -5.1,-0.9 -9.1,-1.8 -9,-1.9 0.3,-0.3 34,-6.5 35.1,-6.5 0.3,0 0.8,-2.6 1.2,-5.7 0.8,-6.6 4.8,-21.1 7,-25.3 l 1.4,-2.7 -13.9,-11.8 c -7.7,-6.4 -14,-11.8 -14,-12 0,-0.2 3.7,1 8.3,2.7 4.5,1.7 12.2,4.4 17,6.2 l 8.8,3.1 3.2,-4 c 1.8,-2.2 5.3,-6.3 7.9,-9.1 2.7,-2.8 4.8,-5.6 4.8,-6.3 0,-0.6 -4.3,-15.6 -9.5,-33.3 C 434.5,23.2 430.4,8.4 430.5,8 430.8,7.3 444,21 471.3,50.1 l 7.5,8 6.1,-1.9 c 3.4,-1.1 8.9,-2.3 12.3,-2.7 5.1,-0.5 6.2,-1 6.6,-2.8 0.7,-3.1 5.5,-30.9 5.5,-32 0,-0.5 0.3,-0.7 0.6,-0.4 0.3,0.3 1.8,7.8 3.4,16.7 1.6,8.9 3.1,16.5 3.4,17 0.3,0.4 3.5,1.1 7.1,1.4 3.6,0.4 11.3,2.2 17.1,4.2 l 10.5,3.5 2.7,-3.2 c 1.5,-1.8 6.6,-7.9 11.4,-13.5 l 8.7,-10.2 -3.7,-3 -3.8,-3 -8.8,10.6 c -7.2,8.5 -9.2,10.4 -11,10 -1.1,-0.3 -5.7,-1.4 -10,-2.6 -4.4,-1.2 -9,-2.1 -10.3,-2.1 -1.2,0 -2.3,-0.4 -2.3,-0.8 0,-0.8 -3.8,-22.4 -4.5,-25.8 -0.4,-2 -0.9,-2.1 -4.2,-1.3 -2.1,0.5 -6.4,0.6 -9.5,0.3 l -5.7,-0.6 -0.6,3.3 c -3.1,17.5 -4.3,24 -4.6,24.3 -0.2,0.2 -1.9,0.7 -3.6,1.1 -3.6,0.7 -4.1,-0.1 -2.2,-3.6 0.9,-1.7 0.5,-2.2 -2.5,-3.4 -5,-2.1 -5.5,-1.9 -7.2,2.1 -1.1,2.7 -1.8,3.4 -2.7,2.5 -0.8,-0.8 -0.4,-1.8 1.7,-4 l 2.7,-2.8 -3.9,-3.2 -4,-3.1 -1.9,2.6 -2,2.6 L 459.7,24 C 454.3,18.3 446.9,10.6 443.3,6.8 L 436.8,0 Z m -73.6,29.1 c 11.1,11.8 21.4,22.7 22.9,24.2 l 2.6,2.8 6.1,-2 c 3.4,-1 8.9,-2.2 12.3,-2.6 5.1,-0.5 6.2,-1 6.6,-2.8 0.7,-3.1 5.5,-30.9 5.5,-32 0,-0.5 0.3,-0.7 0.6,-0.4 0.3,0.3 1.8,7.9 3.4,16.9 1.7,8.9 3.3,16.6 3.7,17 0.5,0.4 2.8,0.9 5.3,1.1 4.4,0.3 4.5,0.4 6.1,5.3 0.9,2.7 1.5,5.1 1.4,5.3 -0.2,0.2 -2.7,-0.1 -5.6,-0.6 -3,-0.6 -5.5,-0.9 -5.7,-0.8 -0.1,0.2 0.1,2.3 0.4,4.8 0.6,4.5 0.7,4.6 5,5.3 5.2,0.7 5.5,2.1 1.5,5.9 l -2.9,2.8 -12.3,-4.5 c -6.7,-2.4 -11.7,-4.6 -11.1,-4.8 0.6,-0.2 1.4,-2.3 1.8,-4.7 0.8,-4.8 0.3,-5 -8.6,-3.1 -5.4,1.2 -5.7,1.5 -3.6,4.4 1.2,1.7 1,2.1 -1.7,4 -3.9,2.5 -5.4,7.3 -3.8,11.3 0.7,1.5 6.5,7.2 13.2,12.8 9.8,8.1 11.8,10.3 11.3,11.9 -0.3,1.1 -1.7,6.4 -3.2,11.7 l -2.5,9.7 -8.6,1.5 c -4.7,0.8 -11.7,2.1 -15.6,2.7 -8.6,1.5 -12.5,4.7 -12.5,10.4 0,5.7 3.9,8.9 12.5,10.4 24.4,4.1 24.5,4.1 25,7 0.3,1.4 1.5,6 2.6,10.1 1.2,4.1 2.3,8.2 2.5,9 0.3,1 -3.9,5.1 -11.5,11.4 -12.5,10.4 -14.7,13.4 -13.6,18.5 0.7,3.4 4.7,7.1 7.7,7.1 1.8,0 1.8,0.2 -0.6,3.1 -1.4,1.7 -2.4,3.4 -2.1,3.8 0.5,1 12.5,3.4 13.2,2.8 0.2,-0.3 0.1,-2.6 -0.2,-5.1 -0.6,-3.6 -1.1,-4.6 -2.9,-4.8 -1.9,-0.3 23,-9.9 25,-9.7 0.5,0 2.6,2 4.7,4.4 l 3.7,4.2 -6,1.2 c -5.1,1 -6,1.5 -6,3.4 0,1.2 -0.3,3.3 -0.7,4.6 -0.6,2.4 -0.6,2.4 5.1,1.7 5.2,-0.6 5.7,-0.5 5.2,1.1 -0.3,1 -0.8,3 -1.2,4.6 -0.8,3.3 -3.1,4.7 -7.8,4.7 -2,0 -3.6,0.3 -3.6,0.7 0,2.1 -6,33.6 -6.4,34.1 -0.3,0.3 -0.6,0.1 -0.6,-0.4 0,-1.1 -4.7,-28.8 -5.5,-31.9 -0.4,-1.7 -1.8,-2.3 -8.1,-3.4 -4.2,-0.7 -9.4,-1.9 -11.6,-2.7 -2.2,-0.8 -4.3,-1.4 -4.7,-1.4 -0.4,0 -11.4,11.4 -24.6,25.4 -13.2,14 -24.1,25.1 -24.3,24.7 -0.1,-0.4 4,-15.2 9.3,-32.9 5.2,-17.7 9.5,-33 9.5,-33.9 0,-1 -0.8,-2.3 -1.9,-3 -1,-0.6 -4.5,-4.5 -7.8,-8.6 l -6,-7.4 -10.4,3.7 c -5.7,2.1 -13.4,4.9 -17.1,6.4 -3.8,1.4 -6.8,2.3 -6.8,2.1 0,-0.2 6.3,-5.6 13.9,-12 l 13.9,-11.7 -2.3,-5.6 c -2.7,-6.7 -5.1,-15.6 -6,-23 -0.4,-2.8 -0.9,-5.2 -1.2,-5.2 -1.1,0 -34.8,-6.2 -35.1,-6.5 -0.1,-0.1 3.9,-1 9,-1.9 5.1,-0.9 13.2,-2.4 17.9,-3.2 l 8.7,-1.6 0.7,-5.6 c 0.8,-6.5 4.8,-21 7,-25.2 l 1.4,-2.7 -13.9,-11.8 c -7.7,-6.4 -14,-11.8 -14,-12 0,-0.2 3.7,1 8.3,2.7 4.5,1.7 12.2,4.4 17,6.2 l 8.8,3.1 3.2,-4 c 1.8,-2.2 5.3,-6.3 7.9,-9.1 2.7,-2.8 4.8,-5.6 4.8,-6.3 0,-0.6 -4.3,-15.6 -9.5,-33.3 -5.2,-17.6 -9.5,-32.6 -9.5,-33.2 0,-0.5 0.6,-0.4 1.4,0.4 0.7,0.8 10.5,11.2 21.6,23 z m 119.7,222 1.4,3.5 -3.2,-3.2 c -2.8,-2.8 -3.1,-3.4 -1.9,-4.9 1.1,-1.3 1.5,-1.3 1.8,-0.3 0.3,0.8 1.1,3 1.9,4.9 z"
     id="path2" />
  <path
     d="m 355,92.2 c -2.5,2.9 -4.4,5.6 -4.1,6 0.3,0.5 2.3,1.4 4.4,2 3.6,1.1 4.1,1 5.8,-1.1 1.7,-2.1 1.8,-2.7 0.5,-6.8 -0.7,-2.5 -1.5,-4.7 -1.7,-4.9 -0.2,-0.2 -2.4,2 -4.9,4.8 z m -16.1,28.6 c -1.3,4.3 -2.7,10 -3.1,12.7 l -0.8,4.8 4.4,-0.7 c 5.6,-0.9 5.9,-1.1 5.9,-4 0,-1.3 0.9,-5.1 1.9,-8.5 l 1.9,-6.2 -3.1,-2.9 c -1.8,-1.5 -3.5,-2.9 -3.9,-2.9 -0.4,0 -1.8,3.5 -3.2,7.7 z m -3.1,39 c 0.9,6 5.3,20.3 6.3,20.3 0.4,0 2.1,-1.4 3.9,-3 l 3.2,-2.8 -2,-6.4 c -1,-3.5 -1.9,-7.3 -1.9,-8.6 0,-2.4 -0.5,-2.7 -6.4,-3.7 l -3.8,-0.6 z m 17.7,33.8 -3.4,1.5 4.2,5 c 2.3,2.7 4.6,5.2 5,5.5 0.5,0.3 1.5,-1.6 2.3,-4.2 2.3,-7.8 -1,-10.9 -8.1,-7.8 z M 573.9,35.9 c -0.3,0.5 -3,7.8 -6.1,16.3 l -5.6,15.4 3.3,2.5 c 4.3,3.2 17.9,16.7 20.4,20.3 l 2,2.8 15.4,-5.6 c 8.5,-3.1 15.9,-6 16.4,-6.5 1.2,-1.2 -1.3,-8 -3,-8 -0.7,0 -6.1,1.8 -11.9,4 -5.8,2.1 -11.1,4 -11.8,4.2 -0.7,0.1 -5.3,-3.8 -10.3,-8.8 l -9,-9.1 4.7,-12.7 4.7,-12.8 -3.4,-1.4 c -3.8,-1.6 -5.1,-1.7 -5.8,-0.6 z m -55,31 c 0.3,2.6 0.7,4.7 0.8,4.7 0,0 4.3,1.1 9.3,2.3 5.1,1.3 9.7,2.1 10.2,1.7 0.6,-0.3 1.9,-1.9 3.1,-3.5 l 2.1,-2.9 -3.8,-1.6 c -3.5,-1.5 -11.2,-3.5 -19.1,-4.9 l -3.3,-0.6 z m -27.3,-2.6 c -2.4,0.5 -4.3,1.3 -4.3,1.8 0,2.2 5.3,7 7.8,7 4,0 5,-1.1 5.8,-5.8 0.6,-4.1 0.6,-4.2 -2.2,-4.1 -1.6,0.1 -4.8,0.5 -7.1,1.1 z m 65.5,17.3 -1.7,4.4 7.1,6.9 7.2,7 4.3,-1.5 c 3.6,-1.3 4.1,-1.7 3.3,-3.3 -1.3,-2.4 -11.8,-13 -15.6,-15.7 l -3,-2.2 z m 50.5,11.2 c -7,5.8 -12.9,10.7 -13,10.8 -0.2,0.1 0.8,2.9 2.2,6.2 1.3,3.3 3.2,9 4.1,12.6 1,4.3 2.2,6.8 3.3,7.1 3.1,0.9 64.7,15.6 65.4,15.6 0.8,0 3,-8 2.4,-8.6 -0.2,-0.3 -14.1,-3.8 -30.8,-7.8 l -30.3,-7.3 -2.3,-6.8 c -1.3,-3.8 -2.3,-7.2 -2.3,-7.6 0,-0.4 4.7,-4.7 10.5,-9.4 l 10.4,-8.7 -2.7,-3.4 c -1.5,-1.9 -3,-3.4 -3.4,-3.4 -0.3,0 -6.4,4.8 -13.5,10.7 z M 448,91.2 c -2.5,2.9 -4.4,5.6 -4.1,6 0.3,0.5 2.3,1.4 4.4,2 3.6,1.1 4.1,1 5.8,-1.1 1.7,-2.1 1.8,-2.7 0.5,-6.8 -0.7,-2.5 -1.5,-4.7 -1.7,-4.9 -0.2,-0.2 -2.4,2 -4.9,4.8 z m 134.6,22.7 c -3.2,2.6 -3.3,2.8 -2.1,6.4 1.1,3.8 1.6,4.1 7.6,5.3 2.4,0.5 3.2,0.3 3.2,-0.7 0,-2.2 -4.1,-13.8 -4.8,-13.8 -0.4,0 -2.2,1.3 -3.9,2.8 z m -150.7,5.9 c -1.3,4.3 -2.7,10 -3.1,12.7 l -0.8,4.8 4.4,-0.7 c 5.6,-0.9 5.9,-1.1 5.9,-4 0,-1.3 0.9,-5.1 1.9,-8.5 l 1.9,-6.2 -3.1,-2.9 c -1.8,-1.5 -3.5,-2.9 -3.9,-2.9 -0.4,0 -1.8,3.5 -3.2,7.7 z m 205.4,33.8 c -16.8,4.1 -31.5,7.7 -32.6,8 -1.7,0.4 -2.5,1.9 -3.8,7 -0.9,3.6 -2.7,9 -4.1,12.1 -1.4,3.1 -2.2,6 -1.9,6.5 0.8,1.4 25.4,21.9 26.2,21.9 0.4,0 1.9,-1.5 3.4,-3.4 l 2.7,-3.4 -10.4,-8.7 c -5.8,-4.7 -10.5,-9 -10.5,-9.4 0,-0.4 1,-3.8 2.3,-7.5 l 2.3,-6.9 30.3,-7.3 c 16.7,-4 30.5,-7.5 30.8,-7.8 0.9,-0.8 -1.8,-8.6 -3,-8.5 -0.7,0 -14.9,3.4 -31.7,7.4 z m -208.5,5.2 c 0.9,6 5.3,20.3 6.3,20.3 0.4,0 2.1,-1.4 3.9,-3 l 3.2,-2.8 -2,-6.4 c -1,-3.5 -1.9,-7.3 -1.9,-8.6 0,-2.4 -0.5,-2.7 -6.4,-3.7 l -3.8,-0.6 z m 156.3,7.5 c -3,0.8 -3.9,1.6 -4.9,4.6 -1.1,3.4 -1,3.6 2.2,6.3 1.9,1.6 3.7,2.9 4,2.9 0.6,0 4.9,-11.9 4.9,-13.8 0,-1.4 -1,-1.4 -6.2,0 z m -138.6,26.3 -3.4,1.5 4.2,5 c 2.3,2.7 4.6,5.2 5,5.5 0.5,0.3 1.5,-1.6 2.3,-4.2 2.3,-7.8 -1,-10.9 -8.1,-7.8 z m 115.6,5.7 -6.8,6.9 1.6,3.9 c 0.9,2.2 2,4 2.6,4 0.5,0 5,-4.1 10.1,-9.1 l 9.2,-9.2 -3,-1.2 c -6.3,-2.6 -6.7,-2.5 -13.7,4.7 z m -27.9,17.3 c -2,0.7 -6.2,1.8 -9.3,2.5 -4.7,1 -5.6,1.5 -5.6,3.3 0,1.2 -0.3,3.2 -0.6,4.4 -0.6,2 -0.3,2.3 2.3,2.3 3.7,0 17.4,-3.4 20.8,-5.2 l 2.6,-1.4 -3.3,-3.6 c -3.2,-3.6 -3.4,-3.6 -6.9,-2.3 z m -44,5.3 c -1.6,1.8 -2.7,3.7 -2.4,4.1 0.5,1 12.5,3.5 13.2,2.8 0.2,-0.3 0.1,-2.5 -0.2,-5 -0.7,-4.2 -0.9,-4.5 -4.2,-4.9 -2.9,-0.4 -3.9,0.1 -6.4,3 z"
     id="path4" />
  <path
     style="fill:none;stroke:#000000;stroke-width:0.75px;stroke-linecap:butt;stroke-linejoin:miter;stroke-opacity:1"
     d="m 620.2,209.8 1.43717,-1.81352"
     id="path837" />
  <path
     style="fill:none;stroke:#000000;stroke-width:0.75px;stroke-linecap:butt;stroke-linejoin:miter;stroke-opacity:1"
     d="m 669,146.2 -0.0763,-2.9329"
     id="path839" />
  <path
     style="fill:none;stroke:#000000;stroke-width:0.75px;stroke-linecap:butt;stroke-linejoin:miter;stroke-opacity:1"
     d="m 621.20135,83.123842 -2.1791,-3.704469"
     id="path841" />
  <path
     style="fill:none;stroke:#000000;stroke-width:0.75px;stroke-linecap:butt;stroke-linejoin:miter;stroke-opacity:1"
     d="m 573.9,35.9 0.3,-1.7"
     id="path843" />
  <path
     style="fill:#ffffff;stroke:#bb0000;stroke-width:0;paint-order:stroke fill markers"
     d="m 84.104546,16.798445 c -11.410744,-0.450196 -17.113165,12.655709 -13.036028,22.1701 6.104528,21.767758 12.832149,43.451033 18.5882,65.264125 -3.869248,4.86457 -8.056981,9.46366 -12.012304,14.25724 -10.308665,-2.99378 -23.023058,-10.82681 -32.820464,-2.63082 -8.485199,8.78721 -2.897386,22.6552 6.060629,28.78232 3.044589,3.54923 10.455598,5.72595 6.336107,11.25265 -2.655265,8.83393 -4.967861,17.78664 -6.617575,26.86576 -9.786152,2.83083 -24.298058,0.48778 -28.559841,11.99183 -3.175257,8.72189 -0.04947,20.46861 10.103296,22.41529 6.097359,1.55563 12.352339,2.3829 18.533722,3.53196 1.617023,10.67464 4.620713,21.10013 8.223843,31.26105 -8.493888,6.87947 -20.25281,15.81327 -16.409097,28.32834 2.836513,10.91458 16.220776,12.17622 24.996124,8.06949 4.654964,-0.7349 10.457095,-6.29004 13.181677,-0.16724 3.074191,5.14969 11.691857,8.77996 7.660535,15.51053 -5.810672,23.0209 -14.2148,45.93189 -18.601822,69.51005 -0.340584,13.04181 17.217453,18.14315 25.892733,9.82413 18.091589,-15.9274 33.484429,-34.66601 50.716349,-51.50173 5.99996,1.89306 12.34317,3.1645 18.3612,4.55342 3.09232,9.87282 0.43446,24.62297 12.0963,28.90616 8.97197,2.52083 21.71092,-0.361 22.32871,-11.4539 1.70492,-5.43828 1.18705,-13.00438 4.1156,-17.26159 12.78745,-2.82227 19.08893,-18.37169 16.27181,-29.97565 -4.56777,-3.79552 2.78112,-7.85655 0.80011,-12.67349 -2.15069,-8.95529 -9.56595,-17.70351 -18.69489,-19.9002 -12.558,0.9468 -23.9216,7.87963 -35.91661,11.4017 -1.24211,3.74593 -9.3237,2.57172 -4.45127,-0.71048 9.57821,-10.39902 21.30744,-18.1444 30.00678,-29.11846 3.45631,-9.81396 -3.08088,-20.01858 -4.77311,-29.84494 -1.66328,-9.01513 -8.26597,-17.19849 -17.89736,-17.82954 -10.81437,-2.63855 -22.35666,-3.51208 -32.72512,-7.27956 14.17115,-5.61456 30.54485,-4.31303 44.47412,-10.62993 6.98466,-8.95491 7.22386,-21.18287 10.41883,-31.81718 3.20428,-8.54553 -1.26482,-17.17465 -8.39112,-22.07628 -7.33869,-7.25829 -17.08138,-13.74879 -23.01519,-21.46945 2.87678,-4.76717 5.88512,2.38643 9.90583,2.46965 10.77283,3.43889 21.28428,9.96832 32.79096,9.69701 10.20178,-2.53094 19.6631,-14.76639 14.52962,-25.21404 8.75857,-6.873774 3.30185,-19.522703 -1.10544,-27.359087 -2.99963,-4.118872 -7.98314,-6.168268 -12.88168,-6.905031 -3.00702,-9.724047 -0.88751,-23.358828 -11.39488,-28.700599 -9.71537,-2.356599 -23.54788,1.155198 -23.60023,13.241948 -1.85272,4.831059 -0.52555,12.822721 -4.17619,15.994287 -5.86997,0.607901 -12.08542,2.839121 -17.54211,3.475275 -17.91048,-16.52288 -32.84678,-36.23561 -51.828598,-51.542589 -2.944143,-1.879217 -6.43523,-2.933653 -9.942156,-2.712529 z M 105.3508,128.37985 c 7.69012,7.66541 -11.534522,1.95283 -2.94179,-1.00102 1.39042,-1.04345 1.95457,0.11861 2.94179,1.00102 z m 2.31302,137.31071 c 0.54093,5.7986 -6.47325,8.69583 -7.822066,2.71253 2.083846,-1.87611 4.989066,-3.12561 7.822066,-2.71253 z"
     id="path1020"
     transform="scale(0.75000032)" />
  <path
     d="m 154.6,7.700003 c -1.6,1.7 -5.1,3.8 -7.79999,4.700001 l -4.90001,1.599999 0.6,3.8 c 0.8,4.7 -0.5,5.300001 -8.7,4.4 -3.2,-0.4 -5.8,-0.499999 -5.8,-0.2 0,0.7 -3.9,23.000001 -4.5,25.400001 -0.3,1.6 -1.8,2.4 -6.2,3.4 -3.2,0.7 -6.3,1.4 -6.9,1.7 -0.6,0.2 -11.2,-10.200001 -23.4,-23.2 L 64.7,5.700003 l -3.2,3.1 c -1.7,1.6 -5.2,3.7 -7.8,4.6 -2.6,0.9 -4.7,2.1 -4.7,2.7 0,1 4.8,17.500001 16.4,56.800001 l 1.4,4.6 -4.7,5.299999 -4.7,5.300007 -14,-5.200009 C 35.6,80.100002 28,77.800005 26.3,77.800005 c -6.3,0 -10.8,6.899996 -8.4,12.899995 0.7,1.5 6.6,7.20001 13.2,12.70001 9.8,8.09999 11.8,10.3 11.3,11.89999 -0.3,1.1 -1.7,6.4 -3.2,11.7 l -2.5,9.7 -8.6,1.5 c -4.7,0.80001 -11.7,2.1 -15.6,2.7 -8.6,1.50001 -12.5,4.7 -12.5,10.4 0,5.70001 3.9,8.9 12.5,10.4 24.4,4.1 24.5,4.1 25,7 0.3,1.40001 1.5,6.00001 2.6,10.1 1.2,4.1 2.3,8.2 2.5,9.00001 C 42.9,188.8 38.7,192.9 31.1,199.2 24.5,204.7 18.6,210.40001 17.9,211.90001 15.5,217.9 20,224.8 26.3,224.8 28,224.8 35.5,222.5 43,219.80001 50.5,217 57.1,214.8 57.6,214.9 c 0.5,0.10001 2.8,2.20001 5.1,4.8 l 4.3,4.8 -9,30.40001 c -5,16.69999 -9,30.9 -9,31.59999 0,0.6 2.1,1.8 4.7,2.7 2.6,0.9 6.1,3.00001 7.8,4.6 l 3.2,3.1 22.2,-23.6 c 12.3,-12.89999 22.6,-23.5 22.9,-23.5 1.7,0.1 12.5,2.9 12.9,3.4 0.5,0.4 1.6,6.2 4.8,24.5 l 0.6,3.3 5.8,-0.6 c 7.5,-0.9 9.2,-0.19999 8.5,3.4 -0.6,2.50001 -0.3,2.90001 4.2,4.40001 10.17764,-6.35252 10.46577,-21.70457 13.9,-33.20001 0.6957,-6.43928 12.99442,-33.32118 7.6,-36.9 -1,-0.6 -4.49999,-4.5 -7.8,-8.59999 l -6,-7.40001 -10.4,3.70001 c -5.7,2.09999 -13.4,4.9 -17.1,6.4 C 123,213.6 120.00001,214.5 120.00001,214.3 c 0,-0.19999 6.29999,-5.6 13.89999,-12 L 147.8,190.60001 145.5,185 c -2.7,-6.7 -5.09999,-15.6 -5.99999,-22.9 L 138.8,157.00001 130.2,155.4 c -4.8,-0.79999 -12.9,-2.3 -18,-3.2 -5.1,-0.9 -9.1,-1.8 -9,-1.89999 0.3,-0.3 34,-6.50001 35.10001,-6.50001 0.3,0 0.79999,-2.6 1.2,-5.69999 0.79999,-6.60001 4.79999,-21.10001 7,-25.3 L 147.9,110.1 134.00001,98.3 c -7.70001,-6.4 -14,-11.799998 -14,-11.999993 C 120.00001,86.100005 123.7,87.3 128.3,89.00001 132.80001,90.7 140.5,93.4 145.30001,95.2 l 8.79999,3.1 3.2,-4 c 1.8,-2.19999 5.3,-6.3 7.9,-9.099996 9.70399,-8.840381 -2.08492,-30.69173 -4.7,-39.6 -5.3,-17.700001 -9.39999,-32.5 -9.3,-32.900001 1.87268,0.745167 4.80082,-6.449115 3.4,-5 z M 81,36.800004 c 11.1,11.8 21.4,22.7 22.9,24.2 l 2.6,2.8 6.1,-2 c 3.4,-1 8.90001,-2.2 12.3,-2.6 5.1,-0.5 6.2,-1 6.6,-2.8 0.70001,-3.1 5.5,-30.900001 5.5,-32.000001 0,-0.499999 0.3,-0.7 0.6,-0.4 0.3,0.3 1.8,7.9 3.4,16.9 1.7,8.900001 3.3,16.600001 3.70001,17.000001 0.49999,0.4 2.79999,0.9 5.29999,1.1 4.4,0.3 4.5,0.4 6.1,5.3 0.9,2.7 1.5,5.1 1.40001,5.3 -0.20001,0.2 -2.70001,-0.1 -5.60001,-0.6 -3,-0.6 -5.5,-0.899999 -5.69999,-0.8 -0.10001,0.2 0.1,2.3 0.39999,4.8 0.6,4.5 0.7,4.6 5,5.3 5.2,0.7 5.5,2.099998 1.5,5.900002 L 150.20001,87 137.9,82.500003 c -6.7,-2.400001 -11.7,-4.599999 -11.1,-4.799999 0.6,-0.2 1.4,-2.3 1.8,-4.7 0.8,-4.8 0.3,-5 -8.59999,-3.099999 C 114.6,71.100004 114.3,71.400004 116.4,74.300004 c 1.2,1.700001 1,2.1 -1.7,4 -3.9,2.500003 -5.39999,7.299998 -3.8,11.299996 0.7,1.5 6.5,7.2 13.2,12.8 9.8,8.1 11.8,10.3 11.3,11.9 -0.3,1.1 -1.69999,6.4 -3.19999,11.7 l -2.50001,9.7 -8.6,1.50001 C 116.4,138 109.4,139.3 105.5,139.9 96.9,141.4 93,144.6 93,150.30001 c 0,5.69999 3.9,8.89999 12.5,10.4 24.4,4.09999 24.5,4.09999 25,7 0.3,1.39999 1.5,5.99999 2.60001,10.09999 1.2,4.1 2.29999,8.20001 2.49999,9 0.3,1.00001 -3.9,5.1 -11.5,11.40001 -12.5,10.4 -14.7,13.4 -13.6,18.49999 0.7,3.40001 4.7,7.10001 7.7,7.10001 1.80001,0 1.80001,0.19999 -0.6,3.1 -1.4,1.69999 -2.4,3.39999 -2.1,3.79999 0.5,1.00001 12.5,3.4 13.2,2.8 0.2,-0.3 0.1,-2.6 -0.2,-5.09999 -0.59999,-3.60001 -1.1,-4.6 -2.9,-4.80001 -1.9,-0.3 23,-9.89999 25,-9.7 0.50001,0 2.6,2.00001 4.7,4.40001 L 159.00001,222.5 153,223.7 c -5.1,1.00001 -6,1.5 -6,3.4 0,1.2 -0.3,3.3 -0.7,4.60001 -0.6,2.39999 -0.6,2.39999 5.10001,1.69999 5.2,-0.6 5.69999,-0.5 5.2,1.10001 -0.3,0.99999 -0.80001,3 -1.20001,4.6 -0.8,3.3 -3.09999,4.69999 -7.8,4.69999 -1.99999,0 -3.6,0.3 -3.6,0.70001 0,2.09999 -5.99999,33.6 -6.4,34.09999 -0.3,0.3 -0.6,0.10001 -0.6,-0.4 0,-1.1 -4.7,-28.79999 -5.5,-31.9 -0.4,-1.69999 -1.8,-2.29999 -8.1,-3.4 -4.2,-0.7 -9.4,-1.9 -11.6,-2.7 -2.2,-0.79999 -4.3,-1.39999 -4.7,-1.39999 -0.4,0 -11.4,11.39999 -24.6,25.39999 -13.2,14 -24.1,25.1 -24.3,24.7 -0.1,-0.39999 4,-15.2 9.3,-32.9 5.2,-17.7 9.5,-33 9.5,-33.9 0,-0.99999 -0.8,-2.29999 -1.9,-3 -1,-0.6 -4.5,-4.5 -7.8,-8.6 l -6,-7.39999 L 50.9,206.8 c -5.7,2.10001 -13.4,4.9 -17.1,6.4 C 30,214.6 27,215.5 27,215.30001 27,215.1 33.3,209.7 40.9,203.3 l 13.9,-11.7 -2.3,-5.59999 C 49.8,179.30001 47.4,170.4 46.5,163 c -0.4,-2.8 -0.9,-5.2 -1.2,-5.2 -1.1,0 -34.8,-6.2 -35.1,-6.5 -0.1,-0.1 3.9,-0.99999 9,-1.89999 5.1,-0.9 13.2,-2.40001 17.9,-3.20001 l 8.7,-1.6 0.7,-5.59999 C 47.3,132.5 51.3,118 53.5,113.8 L 54.9,111.1 41,99.3 c -7.7,-6.4 -14,-11.79999 -14,-12 0,-0.2 3.7,1 8.3,2.70001 C 39.8,91.7 47.5,94.4 52.3,96.2 l 8.8,3.1 3.2,-4 c 1.8,-2.2 5.3,-6.29999 7.9,-9.099998 C 74.9,83.400003 77,80.600005 77,79.900007 77,79.300004 72.7,64.300004 67.5,46.600004 62.3,29.000003 58,14.000003 58,13.400003 c 0,-0.5 0.6,-0.4 1.4,0.4 0.7,0.800001 10.5,11.2 21.6,23.000001 z"
     id="path2-0"
     style="stroke-width:0.999998"
     sodipodi:nodetypes="cccccsccccccsscccccscccccccsccccccscscccssccccccccccccccccsccccccsssccccsccccccccscccccssccccccccccccssccccccccccsccccccscccccccccsccccsscsccsssccscccccsccccsssccccccscccccscscs" />
  <path
     d="m 75.99999,95.20001 c -2.5,2.9 -4.4,5.59999 -4.1,5.99999 0.3,0.50001 2.3,1.4 4.4,2.00001 3.6,1.1 4.1,1 5.8,-1.1 1.7,-2.1 1.8,-2.70001 0.5,-6.8 -0.7,-2.5 -1.5,-4.7 -1.7,-4.90001 -0.2,-0.19999 -2.4,2.00001 -4.9,4.80001 z m -16.1,28.6 c -1.3,4.3 -2.7,10 -3.1,12.7 l -0.8,4.8 4.4,-0.7 c 5.6,-0.9 5.9,-1.10001 5.9,-4 0,-1.3 0.9,-5.10001 1.9,-8.5 l 1.9,-6.2 -3.1,-2.90001 c -1.8,-1.5 -3.5,-2.89999 -3.9,-2.89999 -0.4,0 -1.8,3.49999 -3.2,7.7 z m -3.1,39 c 0.9,6 5.3,20.3 6.3,20.3 0.4,0 2.1,-1.4 3.9,-3 l 3.2,-2.8 -2,-6.4 c -1,-3.5 -1.9,-7.3 -1.9,-8.6 0,-2.4 -0.5,-2.7 -6.4,-3.7 l -3.8,-0.6 z m 17.7,33.8 -3.4,1.5 4.2,5 c 2.3,2.7 4.6,5.2 5,5.5 0.5,0.3 1.5,-1.6 2.3,-4.2 2.3,-7.8 -1,-10.9 -8.1,-7.8 z m 94.5,-102.4 c -2.5,2.9 -4.4,5.59999 -4.1,6 0.3,0.5 2.3,1.39999 4.4,2 3.6,1.09999 4.1,1 5.8,-1.1 1.7,-2.10001 1.80001,-2.7 0.5,-6.80001 -0.7,-2.5 -1.5,-4.69999 -1.7,-4.9 -0.2,-0.19999 -2.4,2.00001 -4.9,4.80001 z m -16.1,28.6 c -1.3,4.3 -2.7,9.99999 -3.1,12.69999 l -0.8,4.80001 4.39999,-0.7 c 5.60001,-0.9 5.90001,-1.1 5.90001,-4 0,-1.30001 0.9,-5.1 1.9,-8.5 l 1.9,-6.20001 -3.1,-2.89999 c -1.8,-1.5 -3.5,-2.90001 -3.9,-2.90001 -0.4,0 -1.80001,3.50001 -3.2,7.70001 z m -3.1,39 c 0.9,6 5.3,20.3 6.3,20.3 0.4,0 2.1,-1.4 3.9,-3 l 3.2,-2.8 -2,-6.4 c -1,-3.5 -1.9,-7.3 -1.9,-8.6 0,-2.4 -0.5,-2.7 -6.4,-3.7 l -3.80001,-0.6 z m 17.7,33.8 -3.39999,1.5 4.19999,5 c 2.3,2.7 4.6,5.2 5,5.5 0.5,0.3 1.5,-1.6 2.3,-4.2 2.3,-7.8 -1,-10.9 -8.1,-7.8 z"
     id="path4-4"
     style="stroke-width:0.999998"
     sodipodi:nodetypes="cccscscccccscccsccscccsccccccccccccscscccccscccsccscccsccccccccc" />
  <path
     style="fill:#ffffff;stroke:#bb0000;stroke-width:0;paint-order:stroke fill markers"
     d="m 332.06601,13.302801 c -10.20981,-0.655174 -17.98969,10.475393 -13.69662,19.836656 5.13709,21.592213 14.30424,42.045543 18.91942,63.734758 2.80629,7.490855 -6.77769,11.428215 -10.05199,17.172025 -2.90493,4.28169 -8.5171,-1.70354 -12.67173,-1.86438 -8.48297,-3.97926 -21.3735,-3.13912 -24.41957,7.38398 -4.27393,12.96118 8.12281,22.07067 16.89939,29.06151 -3.5216,10.28335 -6.25476,20.83973 -8.38954,31.49485 -9.78827,2.91721 -23.37561,0.72448 -28.82772,11.18606 -2.69351,9.20077 -0.32424,22.7416 11.31992,23.41167 5.62367,1.66061 13.30938,1.30162 17.73479,4.14036 1.76182,10.3716 4.69565,20.51249 8.30329,30.38486 -8.85763,6.95809 -21.1973,16.11777 -17.10823,29.09556 2.86949,10.58255 15.8196,11.5992 24.27657,7.50882 5.26814,-1.04154 11.6906,-6.85154 14.81369,-0.0219 2.90672,4.90088 11.2678,8.33224 7.84897,14.80112 -6.01126,22.69264 -14.31523,45.0115 -17.40558,68.3353 0.0485,13.145 17.89327,17.63906 26.3331,9.00922 17.31626,-15.19559 31.91845,-33.17794 48.69386,-48.94809 5.82347,1.92266 13.40949,2.06622 18.24318,5.05961 2.32028,9.04601 1.08661,23.00489 12.66742,25.33414 8.61619,2.15434 19.90954,-1.15467 21.944,-11.086 1.64262,-4.80374 1.43239,-10.782 3.33674,-14.9904 13.0524,-2.29276 20.23513,-18.74599 15.56619,-30.14794 -2.86155,-3.40925 3.19348,-7.45577 1.52388,-11.85427 -1.35098,-13.50058 -17.02013,-24.74656 -29.88321,-17.88907 -9.42888,3.72353 -19.80942,5.92416 -27.94472,12.15077 -3.78311,-0.81165 -3.68697,-4.49523 -0.70822,-6.24676 9.1415,-9.76485 21.39062,-16.80686 28.853,-27.97971 3.54103,-10.091 -2.20306,-20.65214 -4.41527,-30.51104 -1.55486,-8.39146 -7.87183,-15.46089 -16.74731,-15.88929 -10.80715,-2.68748 -22.81251,-3.19961 -32.80003,-7.49974 0.4812,-4.36697 7.75966,-3.4342 11.14489,-4.94658 11.20721,-3.17485 24.0043,-1.83024 33.98069,-8.35276 6.58335,-9.29625 7.02528,-21.51819 9.53131,-32.36875 2.84086,-12.7493 -10.66514,-19.61174 -18.14368,-27.32502 -4.36835,-4.47314 -10.85519,-8.35676 -13.6054,-13.69206 1.11754,-2.43589 3.49838,-3.90975 5.07351,-0.62956 11.83546,4.57305 23.93861,10.04289 36.67446,11.4933 10.77403,0.19288 18.33617,-12.21942 14.68172,-21.961272 9.06287,-6.713874 5.13341,-20.459268 -0.35411,-28.287478 -2.86067,-4.700709 -9.6188,-5.358314 -12.88116,-8.097574 -2.23443,-9.220828 -1.89449,-23.749325 -14.20028,-24.912761 -8.80699,-1.581756 -20.49797,1.428464 -20.91979,12.115433 -1.94399,4.260592 0.12143,12.580821 -4.38088,14.344628 -5.76489,1.037059 -11.47845,2.376555 -17.09722,4.032958 -17.3748,-17.048231 -32.69798,-36.260637 -51.12493,-52.178115 -3.07168,-2.178462 -6.78585,-3.559245 -10.5868,-3.407118 z m 19.58468,110.312539 c 5.42488,3.24454 4.24806,9.77506 -2.25174,5.00058 -3.58216,-1.15352 0.32961,-4.76557 2.25174,-5.00058 z m 3.3935,139.8598 c -0.0513,5.44008 -5.26957,7.83423 -7.39079,2.20635 1.55654,-1.31353 6.18509,-3.84693 7.39079,-2.20635 z"
     id="path1024"
     transform="scale(0.75000032)" />
  <path
     d="m 340.60001,5.69999 c -1.6,1.7 -5.1,3.8 -7.79999,4.700001 l -4.90001,1.599999 0.6,3.8 c 0.8,4.7 -0.5,5.3 -8.7,4.4 -3.2,-0.4 -5.8,-0.5 -5.8,-0.2 0,0.7 -3.9,23 -4.5,25.4 -0.3,1.6 -1.8,2.4 -6.2,3.4 -3.2,0.7 -6.3,1.4 -6.9,1.7 -0.6,0.2 -11.2,-10.2 -23.4,-23.2 l -22.3,-23.6 -3.2,3.1 c -1.7,1.6 -5.2,3.7 -7.8,4.600001 -2.6,0.899999 -4.7,2.099999 -4.7,2.699999 0,1 4.8,17.5 16.4,56.8 l 1.4,4.6 -4.7,5.3 -4.7,5.30001 -14,-5.20001 c -7.8,-2.8 -15.4,-5.1 -17.1,-5.1 -6.3,0 -10.8,6.9 -8.4,12.9 0.7,1.5 6.6,7.20001 13.2,12.70001 9.8,8.09998 11.8,10.3 11.3,11.89999 -0.3,1.1 -1.7,6.4 -3.2,11.7 l -2.5,9.7 -8.6,1.5 c -4.7,0.80001 -11.7,2.1 -15.6,2.7 -8.6,1.50001 -12.5,4.7 -12.5,10.4 0,5.70001 3.9,8.9 12.5,10.4 24.4,4.1 24.5,4.1 25,7 0.3,1.40001 1.5,6.00001 2.6,10.1 1.2,4.1 2.3,8.2 2.5,9.00001 0.3,0.99999 -3.9,5.09999 -11.5,11.39999 -6.6,5.5 -12.5,11.20001 -13.2,12.70001 -2.4,5.99999 2.1,12.89999 8.4,12.89999 1.7,0 9.2,-2.3 16.7,-4.99999 7.5,-2.80001 14.1,-5.00001 14.6,-4.90001 0.5,0.10001 2.8,2.20001 5.1,4.8 l 4.3,4.8 -9,30.40001 c -5,16.69999 -9,30.9 -9,31.59999 0,0.6 2.1,1.8 4.7,2.7 2.6,0.9 6.1,3.00001 7.8,4.6 l 3.2,3.1 22.2,-23.6 c 12.3,-12.89999 22.6,-23.5 22.9,-23.5 1.7,0.1 12.5,2.9 12.9,3.4 0.5,0.4 1.6,6.2 4.8,24.5 l 0.6,3.3 5.8,-0.6 c 7.5,-0.9 9.2,-0.19999 8.5,3.4 -0.6,2.50001 -0.3,2.90001 4.2,4.40001 10.17764,-6.35252 10.46577,-21.70457 13.9,-33.20001 0.6957,-6.43928 12.99442,-33.32118 7.6,-36.9 -1,-0.6 -4.49999,-4.5 -7.8,-8.59999 l -6,-7.40001 -10.4,3.70001 c -5.7,2.09999 -13.4,4.9 -17.1,6.4 -3.8,1.39999 -6.79999,2.29999 -6.79999,2.09999 0,-0.19999 6.29999,-5.6 13.89999,-12 l 13.9,-11.69999 -2.3,-5.60001 c -2.7,-6.7 -5.09999,-15.6 -5.99999,-22.9 L 324.80001,155 l -8.6,-1.60001 c -4.8,-0.79999 -12.9,-2.3 -18,-3.2 -5.1,-0.9 -9.1,-1.8 -9,-1.89999 0.3,-0.3 34,-6.50001 35.10001,-6.50001 0.3,0 0.79999,-2.6 1.2,-5.69999 0.79999,-6.60001 4.79999,-21.10001 7,-25.3 l 1.39999,-2.70001 -13.89999,-11.8 c -7.70001,-6.4 -14,-11.8 -14,-11.99999 0,-0.20001 3.69999,0.99999 8.29999,2.7 4.50001,1.69999 12.2,4.39999 17.00001,6.19999 l 8.79999,3.1 3.2,-4 c 1.8,-2.19999 5.3,-6.3 7.9,-9.1 9.704,-8.84038 -2.08491,-30.69173 -4.7,-39.6 -5.3,-17.7 -9.39999,-32.499999 -9.3,-32.9 1.87269,0.745167 4.80082,-6.449115 3.4,-5 z m -73.6,29.1 c 11.1,11.8 21.4,22.7 22.9,24.2 l 2.6,2.8 6.1,-2 c 3.4,-1 8.90001,-2.2 12.3,-2.6 5.1,-0.5 6.2,-1 6.6,-2.8 0.70001,-3.1 5.5,-30.9 5.5,-32 0,-0.5 0.3,-0.7 0.6,-0.4 0.3,0.3 1.8,7.9 3.4,16.9 1.7,8.9 3.3,16.6 3.70001,17 0.49999,0.4 2.79999,0.9 5.29999,1.1 4.4,0.3 4.5,0.4 6.1,5.3 0.9,2.7 1.5,5.1 1.40001,5.3 -0.20001,0.2 -2.70001,-0.1 -5.60001,-0.6 -3,-0.6 -5.5,-0.9 -5.69999,-0.8 -0.10001,0.2 0.1,2.3 0.39999,4.8 0.6,4.5 0.7,4.6 5,5.3 5.2,0.7 5.5,2.1 1.5,5.90001 l -2.89999,2.79999 -12.30001,-4.5 c -6.7,-2.4 -11.7,-4.6 -11.1,-4.8 0.6,-0.2 1.4,-2.3 1.8,-4.7 0.8,-4.8 0.3,-5 -8.59999,-3.1 -5.40001,1.2 -5.70001,1.5 -3.60001,4.4 1.2,1.7 1,2.1 -1.7,4 -3.9,2.50001 -5.39999,7.3 -3.8,11.3 0.7,1.5 6.5,7.2 13.2,12.8 9.8,8.1 11.8,10.29999 11.3,11.9 -0.3,1.1 -1.69999,6.4 -3.19999,11.7 l -2.50001,9.7 -8.6,1.50001 c -4.7,0.79999 -11.7,2.09999 -15.6,2.69999 -8.6,1.5 -12.5,4.7 -12.5,10.40001 0,5.69999 3.9,8.89999 12.5,10.4 24.4,4.09999 24.5,4.09999 25,7 0.3,1.39999 1.5,5.99999 2.60001,10.09999 1.2,4.1 2.29999,8.20001 2.49999,9 0.3,1.00001 -3.9,5.1 -11.5,11.40001 -12.5,10.4 -14.7,13.4 -13.6,18.49999 0.7,3.40001 4.7,7.10001 7.7,7.10001 1.80001,0 1.80001,0.19999 -0.6,3.1 -1.4,1.69999 -2.4,3.39999 -2.1,3.79999 0.5,1.00001 12.5,3.4 13.2,2.8 0.2,-0.3 0.1,-2.6 -0.2,-5.09999 -0.59999,-3.60001 -1.1,-4.6 -2.9,-4.80001 -1.9,-0.3 23,-9.89999 25,-9.7 0.50001,0 2.6,2.00001 4.7,4.40001 l 3.70001,4.19999 -6.00001,1.2 c -5.1,1.00001 -6,1.5 -6,3.4 0,1.2 -0.3,3.3 -0.7,4.60001 -0.6,2.39999 -0.6,2.39999 5.10001,1.69999 5.2,-0.6 5.69999,-0.5 5.2,1.10001 -0.3,0.99999 -0.80001,3 -1.20001,4.6 -0.8,3.3 -3.09999,4.69999 -7.8,4.69999 -1.99999,0 -3.6,0.3 -3.6,0.70001 0,2.09999 -5.99999,33.6 -6.4,34.09999 -0.3,0.3 -0.6,0.10001 -0.6,-0.4 0,-1.1 -4.7,-28.79999 -5.5,-31.9 -0.4,-1.69999 -1.8,-2.29999 -8.1,-3.4 -4.2,-0.7 -9.4,-1.9 -11.6,-2.7 -2.2,-0.79999 -4.3,-1.39999 -4.7,-1.39999 -0.4,0 -11.4,11.39999 -24.6,25.39999 -13.2,14 -24.1,25.1 -24.3,24.7 -0.1,-0.39999 4,-15.2 9.3,-32.9 5.2,-17.7 9.5,-33 9.5,-33.9 0,-0.99999 -0.8,-2.29999 -1.9,-3 -1,-0.6 -4.5,-4.5 -7.8,-8.6 l -6,-7.39999 -10.4,3.69999 c -5.7,2.10001 -13.4,4.9 -17.1,6.4 -3.8,1.4 -6.8,2.3 -6.8,2.10001 0,-0.20001 6.3,-5.60001 13.9,-12.00001 l 13.9,-11.7 -2.3,-5.59999 c -2.7,-6.7 -5.1,-15.60001 -6,-23.00001 -0.4,-2.8 -0.9,-5.2 -1.2,-5.2 -1.1,0 -34.8,-6.2 -35.1,-6.5 -0.1,-0.1 3.9,-0.99999 9,-1.89999 5.1,-0.9 13.2,-2.40001 17.9,-3.20001 l 8.7,-1.6 0.7,-5.59999 c 0.8,-6.50001 4.8,-21.00001 7,-25.20001 l 1.4,-2.7 -13.9,-11.80001 c -7.7,-6.4 -14,-11.79998 -14,-11.99999 0,-0.2 3.7,1 8.3,2.70001 4.5,1.69999 12.2,4.39999 17,6.19999 l 8.8,3.09999 3.2,-3.99999 c 1.8,-2.2 5.3,-6.29999 7.9,-9.1 2.7,-2.8 4.8,-5.6 4.8,-6.29999 0,-0.60001 -4.3,-15.60001 -9.5,-33.30001 -5.2,-17.6 -9.5,-32.6 -9.5,-33.199999 0,-0.500001 0.6,-0.400001 1.4,0.4 0.7,0.8 10.5,11.199999 21.6,22.999999 z"
     id="path2-0-7"
     style="stroke-width:0.999998"
     sodipodi:nodetypes="cccccsccccccsscccccscccccccsccccccscscccssccccccccccccccccsccccccsssccccsccccccccscccccssccccccccccccssccccccccccsccccccscccccccccsccccsscsccsssccscccccsccccsssccccccscccccscscs" />
  <path
     d="m 262,93.2 c -2.5,2.9 -4.4,5.59999 -4.1,5.99999 0.3,0.50001 2.3,1.4 4.4,2.00001 3.6,1.1 4.1,1 5.8,-1.1 1.7,-2.1 1.8,-2.70001 0.5,-6.8 -0.7,-2.50001 -1.5,-4.7 -1.7,-4.90001 C 266.7,88.2 264.5,90.4 262,93.2 Z m -16.1,28.6 c -1.3,4.3 -2.7,10 -3.1,12.7 l -0.8,4.8 4.4,-0.7 c 5.6,-0.9 5.9,-1.10001 5.9,-4 0,-1.3 0.9,-5.10001 1.9,-8.5 l 1.9,-6.2 -3.1,-2.90001 c -1.8,-1.5 -3.5,-2.89999 -3.9,-2.89999 -0.4,0 -1.8,3.49999 -3.2,7.7 z m -3.1,39 c 0.9,6 5.3,20.3 6.3,20.3 0.4,0 2.1,-1.4 3.9,-3 l 3.2,-2.8 -2,-6.4 c -1,-3.5 -1.9,-7.3 -1.9,-8.6 0,-2.4 -0.5,-2.7 -6.4,-3.7 l -3.8,-0.6 z m 17.7,33.8 -3.4,1.5 4.2,5 c 2.3,2.7 4.6,5.2 5,5.5 0.5,0.3 1.5,-1.6 2.3,-4.2 2.3,-7.8 -1,-10.9 -8.1,-7.8 z M 355,92.2 c -2.5,2.9 -4.39999,5.59999 -4.09999,6 0.3,0.5 2.29999,1.39999 4.39999,2 3.6,1.09999 4.1,1 5.8,-1.1 1.70001,-2.10002 1.80001,-2.7 0.50001,-6.80001 -0.70001,-2.5 -1.5,-4.69999 -1.70001,-4.9 C 359.7,87.2 357.5,89.4 355,92.2 Z m -16.1,28.6 c -1.3,4.3 -2.7,9.99999 -3.1,12.69999 L 335,138.3 l 4.39999,-0.7 C 345,136.7 345.3,136.5 345.3,133.6 c 0,-1.30001 0.9,-5.1 1.9,-8.5 l 1.90001,-6.20001 L 346,116 c -1.79999,-1.5 -3.5,-2.90001 -3.89999,-2.90001 -0.40001,0 -1.80002,3.50001 -3.20001,7.70001 z m -3.1,39 c 0.9,6 5.3,20.3 6.30001,20.3 0.39999,0 2.1,-1.4 3.89999,-3 l 3.2,-2.8 -2,-6.4 c -1,-3.5 -1.9,-7.3 -1.9,-8.6 0,-2.4 -0.49999,-2.7 -6.4,-3.7 l -3.80001,-0.6 z m 17.7,33.8 -3.39999,1.5 4.2,5 c 2.29999,2.7 4.59999,5.2 4.99999,5.5 0.50001,0.3 1.5,-1.6 2.30001,-4.2 C 363.9,193.6 360.6,190.5 353.5,193.6 Z"
     id="path4-4-6"
     style="stroke-width:0.999998"
     sodipodi:nodetypes="cccscscccccscccsccscccsccccccccccccscscccccscccsccscccsccccccccc" />
  <path
     style="fill:#ffffff;stroke:#bb0000;stroke-width:0;paint-order:stroke fill markers"
     d="m 208.17948,15.645337 c -11.04945,-0.354046 -17.03571,12.380713 -12.86125,21.738819 5.06691,22.05003 14.76118,42.799266 18.89464,65.057564 -4.20084,4.96637 -8.42584,10.51645 -12.95658,14.82017 -10.19955,-3.17073 -23.59769,-11.1943 -32.70243,-1.47316 -7.63034,8.99352 -1.8334,21.91351 6.86644,27.7949 3.88873,3.46093 9.83493,6.16257 5.75897,11.86989 -2.57112,8.56289 -4.9618,17.20814 -6.50804,26.02153 -9.70718,2.90339 -24.06992,0.5736 -28.27405,12.01448 -2.72653,8.61009 -1.08473,21.01043 9.7372,22.35233 6.19502,1.14789 12.40122,2.23761 18.58452,3.44744 1.91574,10.67364 4.88679,21.35443 8.45764,31.43355 -8.61878,6.87002 -20.22319,15.96413 -16.34554,28.56214 2.68039,10.58486 15.60712,11.90435 24.07682,7.78574 5.05632,-1.00594 11.22375,-6.64991 14.24726,0.009 2.95458,4.96493 11.59376,8.56568 7.83249,15.19209 -6.19845,22.66204 -14.30725,45.04786 -17.69399,68.32592 0.48004,13.606 19.41633,16.91679 27.65159,7.85186 16.65529,-15.18091 31.28078,-32.43081 47.35235,-48.21718 5.95425,2.16499 13.22387,2.50012 18.54734,4.97334 3.01708,9.56592 0.45076,24.16054 11.93521,28.10167 9.56482,2.28079 22.82783,-1.66012 22.81051,-13.35961 2.04335,-4.69628 -0.0116,-12.92331 4.48494,-15.35267 12.11344,-3.12685 18.11262,-17.7732 15.73727,-28.98813 -4.2517,-4.12013 2.73026,-8.63207 0.71723,-13.79718 -1.94252,-8.89469 -9.88987,-16.55388 -18.07521,-19.4779 -11.8739,0.35725 -22.61132,7.14199 -33.865,10.60204 -2.48446,1.22486 -9.60908,6.27435 -8.80228,1.1128 10.07181,-11.20735 23.56056,-19.30419 32.16674,-31.6787 0.93676,-11.49403 -4.27131,-22.5642 -7.35674,-33.50598 -2.10124,-9.81349 -12.34331,-12.55699 -20.97249,-13.63463 -9.10218,-2.01016 -19.16553,-2.82336 -27.51936,-6.23833 14.15255,-5.42449 30.14932,-4.1738 43.95886,-10.31442 6.9522,-8.78518 7.31851,-20.8444 10.29625,-31.37 2.85597,-8.45571 -0.84641,-17.12054 -7.74548,-22.33521 -7.21923,-7.57485 -17.12939,-13.67454 -23.1274,-21.70082 2.93076,-5.21692 7.67544,3.79086 12.68192,3.51153 10.39011,2.89164 20.56015,9.78247 31.43896,8.71762 9.38675,-3.57544 18.25459,-14.96636 13.3189,-25.21297 9.20008,-7.775797 2.59863,-20.831287 -2.94406,-28.702872 -2.67218,-3.827134 -8.10123,-4.614253 -11.47433,-6.373875 -2.33111,-9.66843 -2.78739,-24.565675 -15.27642,-26.871061 -8.5045,-2.618348 -19.09612,1.569483 -19.54956,11.450891 -1.13843,5.681869 -1.59844,10.970179 -3.2198,16.303161 -6.24282,0.695401 -12.56048,2.558711 -18.47016,3.929194 C 252.31904,53.325676 237.29308,33.787416 218.42353,18.421423 215.40494,16.450217 211.795,15.377451 208.17948,15.645337 Z m 20.9103,109.772303 c 6.91783,6.20343 -0.88143,8.7163 -5.38193,2.97356 1.04236,-1.6482 3.53119,-3.34684 5.38193,-2.97356 z m 2.44015,139.24239 c -0.12988,4.75801 -4.87703,8.72316 -7.67907,2.77155 2.05809,-1.91555 4.89195,-2.8411 7.67907,-2.77155 z"
     id="path1022"
     transform="scale(0.75000032)" />
  <path
     d="m 247.6,6.700003 c -1.6,1.7 -5.1,3.8 -7.79999,4.699997 L 234.9,13 l 0.6,3.8 c 0.8,4.7 -0.5,5.3 -8.7,4.4 -3.2,-0.4 -5.8,-0.5 -5.8,-0.2 0,0.7 -3.9,23 -4.5,25.40001 -0.3,1.6 -1.8,2.4 -6.2,3.4 -3.2,0.7 -6.3,1.4 -6.9,1.7 C 202.8,51.70001 192.19999,41.3 179.99999,28.3 L 157.7,4.700003 l -3.2,3.1 c -1.7,1.6 -5.2,3.699997 -7.8,4.599997 -2.6,0.9 -4.7,2.1 -4.7,2.7 0,1 4.8,17.5 16.4,56.80001 l 1.4,4.6 -4.7,5.3 -4.7,5.3 -14,-5.20001 c -7.8,-2.8 -15.4,-5.09999 -17.1,-5.09999 -6.3,0 -10.8,6.89999 -8.4,12.89999 0.7,1.5 6.6,7.20001 13.2,12.70001 9.8,8.09999 11.8,10.3 11.3,11.89999 -0.3,1.1 -1.7,6.4 -3.2,11.7 l -2.5,9.7 -8.6,1.5 c -4.7,0.80001 -11.7,2.1 -15.6,2.7 -8.6,1.50001 -12.5,4.7 -12.5,10.4 0,5.70001 3.9,8.9 12.5,10.4 24.4,4.1 24.5,4.1 25,7 0.3,1.40001 1.5,6.00001 2.6,10.1 1.2,4.1 2.3,8.2 2.5,9.00001 0.3,0.99999 -3.9,5.09999 -11.5,11.39999 -6.6,5.5 -12.5,11.20001 -13.2,12.70001 C 108.5,216.9 113,223.8 119.3,223.8 c 1.7,0 9.2,-2.3 16.7,-4.99999 C 143.5,216 150.1,213.8 150.6,213.9 c 0.5,0.10001 2.8,2.20001 5.1,4.8 l 4.3,4.8 -9,30.40001 c -5,16.69999 -9,30.9 -9,31.59999 0,0.60001 2.1,1.80001 4.7,2.7 2.6,0.9 6.1,3.00001 7.8,4.60001 l 3.2,3.09999 22.2,-23.6 c 12.29999,-12.89999 22.6,-23.5 22.9,-23.5 1.7,0.1 12.5,2.9 12.9,3.4 0.5,0.4 1.6,6.2 4.8,24.5 l 0.6,3.30001 5.8,-0.60001 c 7.5,-0.9 9.2,-0.19999 8.5,3.4 -0.6,2.50001 -0.3,2.90001 4.2,4.40002 10.17764,-6.35253 10.46577,-21.70458 13.9,-33.20002 0.6957,-6.43928 12.99442,-33.32118 7.6,-36.9 -1,-0.6 -4.49999,-4.5 -7.8,-8.59999 l -6,-7.40001 -10.4,3.70001 c -5.7,2.09999 -13.4,4.9 -17.1,6.4 C 216,212.6 213.00001,213.5 213.00001,213.3 c 0,-0.19999 6.29999,-5.6 13.89999,-12 L 240.8,189.60001 238.5,184 c -2.7,-6.7 -5.09999,-15.6 -5.99999,-22.9 L 231.8,156.00001 223.2,154.4 c -4.8,-0.79999 -12.9,-2.3 -18,-3.2 -5.1,-0.9 -9.1,-1.8 -9,-1.89999 0.3,-0.3 34,-6.50001 35.10001,-6.50001 0.3,0 0.79999,-2.6 1.2,-5.69999 0.79999,-6.60001 4.79999,-21.10001 7,-25.3 L 240.9,109.1 227.00001,97.3 c -7.70001,-6.4 -14,-11.8 -14,-11.99999 0,-0.2 3.69999,0.99999 8.29999,2.7 C 225.80001,89.7 233.5,92.4 238.30001,94.2 l 8.79999,3.1 3.2,-4 c 1.8,-2.19999 5.3,-6.29999 7.9,-9.09999 9.704,-8.84039 -2.08491,-30.69173 -4.7,-39.6 C 248.2,26.9 244.10001,12.1 244.2,11.7 c 1.87269,0.74517 4.80082,-6.449112 3.4,-4.999997 z M 174,35.8 c 11.1,11.8 21.4,22.70001 22.9,24.20001 l 2.6,2.8 6.1,-2 c 3.4,-1 8.90001,-2.2 12.3,-2.6 5.1,-0.5 6.2,-1 6.6,-2.8 0.70001,-3.1 5.5,-30.90001 5.5,-32.00001 0,-0.5 0.3,-0.7 0.6,-0.4 0.3,0.3 1.8,7.9 3.4,16.9 1.7,8.90001 3.3,16.60001 3.70001,17.00001 0.49999,0.4 2.79999,0.9 5.29999,1.1 4.4,0.3 4.5,0.4 6.1,5.3 0.9,2.7 1.5,5.1 1.40001,5.3 -0.20001,0.2 -2.70001,-0.1 -5.60001,-0.6 -3,-0.6 -5.5,-0.9 -5.69999,-0.8 -0.10001,0.2 0.1,2.3 0.39999,4.8 0.6,4.5 0.7,4.6 5,5.3 5.2,0.7 5.5,2.09999 1.5,5.9 L 243.20001,86 230.9,81.50001 c -6.7,-2.40001 -11.7,-4.6 -11.1,-4.8 0.6,-0.2 1.4,-2.3 1.8,-4.7 0.8,-4.8 0.3,-5 -8.59999,-3.1 -5.40001,1.2 -5.70001,1.5 -3.60001,4.4 1.2,1.7 1,2.1 -1.7,4 -3.9,2.5 -5.39999,7.29999 -3.8,11.29999 0.7,1.5 6.5,7.2 13.2,12.8 9.8,8.1 11.8,10.3 11.3,11.9 -0.3,1.1 -1.69999,6.4 -3.19999,11.7 l -2.50001,9.7 -8.6,1.50001 C 209.4,137 202.4,138.3 198.5,138.9 c -8.6,1.5 -12.5,4.7 -12.5,10.40001 0,5.69999 3.9,8.89999 12.5,10.4 24.4,4.09999 24.5,4.09999 25,7 0.3,1.39999 1.5,5.99999 2.60001,10.09999 1.2,4.1 2.29999,8.20001 2.49999,9 0.3,1.00001 -3.9,5.1 -11.5,11.40001 -12.5,10.4 -14.7,13.4 -13.6,18.49999 0.7,3.40001 4.7,7.10001 7.7,7.10001 1.80001,0 1.80001,0.19999 -0.6,3.1 -1.4,1.69999 -2.4,3.39999 -2.1,3.79999 0.5,1.00001 12.5,3.4 13.2,2.8 0.2,-0.3 0.1,-2.6 -0.2,-5.09999 -0.59999,-3.60001 -1.1,-4.6 -2.9,-4.80001 -1.9,-0.3 23,-9.89999 25,-9.7 0.50001,0 2.6,2.00001 4.7,4.40001 L 252.00001,221.5 246,222.7 c -5.1,1.00001 -6,1.5 -6,3.4 0,1.2 -0.3,3.3 -0.7,4.60001 -0.6,2.39999 -0.6,2.39999 5.10001,1.69999 5.2,-0.6 5.69999,-0.5 5.2,1.10001 -0.3,0.99999 -0.80001,3 -1.20001,4.6 -0.8,3.3 -3.09999,4.69999 -7.8,4.69999 -1.99999,0 -3.6,0.3 -3.6,0.70001 0,2.09999 -5.99999,33.6 -6.4,34.09999 -0.3,0.3 -0.6,0.10001 -0.6,-0.4 0,-1.1 -4.7,-28.79999 -5.5,-31.9 -0.4,-1.69999 -1.8,-2.29999 -8.1,-3.4 -4.2,-0.7 -9.4,-1.9 -11.6,-2.7 -2.2,-0.79999 -4.3,-1.39999 -4.7,-1.39999 -0.4,0 -11.4,11.39999 -24.6,25.39999 -13.2,14 -24.1,25.1 -24.3,24.7 -0.1,-0.39998 4,-15.2 9.3,-32.9 5.2,-17.7 9.5,-33 9.5,-33.9 0,-0.99999 -0.8,-2.29999 -1.90001,-3 C 167.1,217.5 163.6,213.6 160.3,209.5 l -6,-7.39999 -10.4,3.69999 c -5.7,2.10001 -13.4,4.9 -17.1,6.4 -3.8,1.4 -6.8,2.3 -6.8,2.10001 C 120,214.1 126.3,208.7 133.9,202.3 l 13.9,-11.7 -2.3,-5.59999 c -2.7,-6.7 -5.1,-15.60001 -6,-23.00001 -0.4,-2.8 -0.9,-5.2 -1.2,-5.2 -1.1,0 -34.8,-6.2 -35.1,-6.5 -0.1,-0.1 3.9,-0.99999 9,-1.89999 5.1,-0.9 13.2,-2.40001 17.9,-3.20001 l 8.7,-1.6 0.7,-5.59999 C 140.3,131.5 144.3,117 146.5,112.8 l 1.4,-2.7 L 134,98.30001 C 126.3,91.9 120,86.50001 120,86.3 c 0,-0.19999 3.7,1.00001 8.3,2.70001 4.5,1.69999 12.2,4.4 17,6.19999 l 8.8,3.10001 3.2,-4.00001 c 1.8,-2.2 5.3,-6.29999 7.9,-9.1 2.7,-2.79999 4.8,-5.59999 4.8,-6.29999 0,-0.6 -4.3,-15.6 -9.5,-33.3 C 155.3,28 151,13 151,12.4 c 0,-0.5 0.6,-0.4 1.4,0.4 0.7,0.8 10.5,11.2 21.6,23 z"
     id="path2-0-4"
     style="stroke-width:0.999998"
     sodipodi:nodetypes="cccccsccccccsscccccscccccccsccccccscscccssccccccccccccccccsccccccsssccccsccccccccscccccssccccccccccccssccccccccccsccccccscccccccccsccccsscsccsssccscccccsccccsssccccccscccccscscs" />
  <path
     d="m 168.99999,94.20001 c -2.5,2.9 -4.4,5.6 -4.1,5.99999 0.3,0.50001 2.3,1.4 4.4,2.00001 3.6,1.1 4.09999,1 5.8,-1.1 1.7,-2.1 1.8,-2.70001 0.5,-6.8 -0.70001,-2.5 -1.5,-4.7 -1.7,-4.90001 -0.20001,-0.19999 -2.4,2.00001 -4.9,4.80001 z m -16.1,28.6 c -1.3,4.3 -2.7,10 -3.1,12.7 l -0.8,4.8 4.4,-0.7 c 5.6,-0.9 5.9,-1.10001 5.9,-4 0,-1.3 0.9,-5.10001 1.9,-8.5 l 1.9,-6.2 -3.1,-2.90001 c -1.8,-1.5 -3.5,-2.89999 -3.9,-2.89999 -0.4,0 -1.8,3.49999 -3.2,7.7 z m -3.1,39 c 0.9,6 5.3,20.3 6.3,20.3 0.4,0 2.1,-1.4 3.9,-3 l 3.2,-2.8 -2,-6.4 c -1,-3.5 -1.9,-7.3 -1.9,-8.6 0,-2.4 -0.5,-2.7 -6.4,-3.7 l -3.8,-0.6 z m 17.7,33.8 -3.4,1.5 4.2,5 c 2.3,2.7 4.6,5.2 5,5.5 0.5,0.3 1.5,-1.6 2.3,-4.2 2.3,-7.8 -1.00001,-10.9 -8.1,-7.8 z m 94.5,-102.4 c -2.5,2.9 -4.39999,5.59999 -4.09999,6 0.3,0.50001 2.29999,1.39999 4.39999,2 3.6,1.09999 4.1,1 5.8,-1.1 1.70001,-2.1 1.80001,-2.7 0.50001,-6.80001 -0.70001,-2.5 -1.5,-4.69999 -1.70001,-4.9 -0.2,-0.19999 -2.4,2.00001 -4.9,4.80001 z m -16.1,28.6 c -1.3,4.3 -2.7,9.99999 -3.1,12.69999 l -0.8,4.80001 4.39999,-0.7 c 5.60001,-0.9 5.90001,-1.1 5.90001,-4 0,-1.30001 0.9,-5.1 1.9,-8.5 L 256.1,119.9 l -3.10001,-2.89999 c -1.79999,-1.5 -3.5,-2.90001 -3.89999,-2.90001 -0.40001,0 -1.80002,3.50001 -3.20001,7.70001 z m -3.1,39 c 0.9,6 5.3,20.3 6.30001,20.3 0.39999,0 2.1,-1.4 3.89999,-3 l 3.2,-2.8 -2,-6.4 c -1,-3.5 -1.9,-7.3 -1.9,-8.6 0,-2.4 -0.49999,-2.7 -6.4,-3.7 l -3.80001,-0.6 z m 17.7,33.8 -3.39999,1.5 4.2,5 c 2.29999,2.7 4.59999,5.2 4.99999,5.5 0.50001,0.3 1.5,-1.6 2.30001,-4.2 2.29999,-7.8 -1.00001,-10.9 -8.10001,-7.8 z"
     id="path4-4-0"
     style="stroke-width:0.999998"
     sodipodi:nodetypes="cccscscccccscccsccscccsccccccccccccscscccccscccsccscccsccccccccc" />
</svg>
