<svg xmlns="http://www.w3.org/2000/svg" width="896" height="396" version="1.0" viewBox="0 0 672 297"><path d="M433 6c-5 0-8 5-6 9l17 58-12 14-26-8c-5-1-8 6-5 10l15 14 5 4c-4 9-6 18-8 28l-25 4c-6 2-5 13 2 13l23 5c2 9 4 19 8 27-7 6-14 11-20 18-3 3 0 10 5 10 6 0 12-4 18-6l8-2 12 13-17 60c-1 4 3 9 8 7 5-1 8-6 12-9l34-36 18 4 5 26c1 4 8 4 11 1 2-3 2-7 3-11l3-16c10-1 19-4 29-7l15 18c4 3 11 2 11-3 1-5-2-10-4-15l-4-11c8-6 15-13 22-21l25 9c5 0 8-6 5-10-4-6-11-10-16-15-1-1-4-2-3-4l6-17 60-15c5-1 7-8 3-11s-9-3-13-4l-50-12-6-20c6-5 13-10 18-16 4-4 1-11-4-11-6 1-11 4-16 6l-9 3c-7-8-14-15-22-21l9-25c1-4-4-8-8-6-5 1-7 6-11 10l-8 10c-10-3-19-6-29-7l-5-26c-2-4-8-4-11-2-3 3-2 8-3 12l-3 16-19 4-41-43-6-3z" style="fill:#fff;stroke:#b00;stroke-width:0;paint-order:stroke fill markers"/><path d="M338 6c-4 0-6 5-4 9l17 59-12 15c-9-3-17-7-26-9-5-1-8 5-6 9l15 14 6 5c-4 9-6 18-8 28l-25 4c-6 2-5 13 1 13l24 5c2 9 4 19 8 27-7 6-14 11-20 18-3 3 0 10 5 10 6 0 11-3 17-5l9-3 12 13-17 61c-2 4 4 8 8 7 6-3 9-9 14-13l32-33 18 4 5 25c2 5 10 4 12 0l5-25c5 0 10-2 11-8 2-3 4-9 0-12-3-1-3-1 0-1 4-2 4-8 1-11s-5-7-9-8-8 2-12 3l-16 7c-1 2-1 3-3 1-2-1-5-2-5-5 1-5 6-7 10-11s10-8 14-14c2-4-1-8-1-12-2-5-2-11-5-15-4-4-10-4-14-5l-20-4c-2-2-2-5 0-6 4-3 9-3 14-4l18-4c4-2 4-7 5-11 1-5 4-11 4-16-1-5-6-8-10-11-5-5-11-9-15-15-1-4 6-5 6-9l1-2c-2 4 2 7 5 8l21 8c5 0 8-4 11-7s1-8-2-10c4 0 6-5 4-8-1-5-2-11-8-12-1-1-4 0-5-2l-5-24c-2-5-11-5-13 1l-4 24-19 4-41-44c-2-2-5-3-8-3Z" style="fill:#fff;stroke:#b00;stroke-width:0;paint-order:stroke fill markers"/><path d="m434 3-8 5-5 1 1 4c1 5-1 5-9 5l-6-1-4 26-6 3-7 2-24-23-22-24-3 3-8 5-5 2 17 57 1 5-5 5-4 5-14-5-17-5c-7 0-11 7-9 13l13 13c10 8 12 10 12 12l-4 11-2 10-9 2-15 2c-9 2-13 5-13 11 0 5 4 8 13 10 24 4 24 4 25 7a342 342 0 0 0 5 19l-12 11-13 13c-2 6 2 13 9 13l16-5 15-5 5 5 4 5-9 30-9 32 5 3c3 0 6 3 8 4l3 3 22-23 23-24 13 4 5 24v3h6c8-1 9-1 9 3-1 3-1 3 4 4l8 5 3 3 7-7 16-17 9-9 2 3 2 3 4-3 9-5 4-2-1-3-2-5c0-1 7 0 8 2l5 24v3h16c3 1 3 1 4-1l4-26 4-1 12-3 8-3 10 11 9 11 3-3 9-5 4-2-2-5-5-13-2-7 9-10 9-9 11 5 13 4c2 0 3-1 3-4l1-4-16-6-16-6-3 4c-4 5-13 14-19 18l-4 4 6 16 5 16-21-26-11 3a104 104 0 0 1-25 6 591 591 0 0 1-7 34l-5-32c-1-2-2-3-8-4a85 85 0 0 1-17-4 641 641 0 0 0-48 50 669 669 0 0 1 18-67c0-1 0-2-2-3l-7-8-6-8-11 4-17 7-7 2 14-12 14-12-2-6c-3-6-5-15-6-23l-1-5-9-1-18-3-9-2 36-7 1-6 7-25 1-3-14-11-14-12 9 2 17 7 8 3 4-4a229 229 0 0 1 12-16 1099 1099 0 0 0-18-66l40 42 8 8 6-2 12-2c5-1 6-1 7-3a999 999 0 0 0 6-33l3 17 4 17 7 1 17 5 10 3 3-3 12-14 8-10-3-3-4-3-9 11c-7 8-9 10-11 10l-10-3-10-2-3-1-4-25c-1-2-1-3-4-2l-10 1-6-1v3l-5 25-3 1c-4 0-4 0-3-4 1-2 1-2-2-3-5-2-6-2-7 2-1 2-2 3-3 2s0-2 2-4l2-3-3-3-4-3-2 3-2 2-10-10-17-17-6-7Zm-74 29 23 24 3 3 6-2 12-3c5 0 6-1 7-2a999 999 0 0 0 6-33l3 17 4 17 5 1c5 1 5 1 6 6l2 5-6-1-6-1 1 5c0 5 1 5 5 6 5 0 5 2 1 5l-3 3-12-4-11-5 2-5c1-5 0-5-9-3-5 1-5 2-3 5 1 1 1 2-2 4-4 2-5 7-4 11l13 13c10 8 12 10 12 12l-4 11-2 10-9 2-15 2c-9 2-13 5-13 11 0 5 4 8 13 10 24 4 24 4 25 7a342 342 0 0 0 5 19l-12 11c-12 11-14 14-13 19 0 3 4 7 7 7 2 0 2 0 0 3l-2 4 13 3v-5c-1-4-1-5-3-5l25-10 5 5 3 4-6 1c-5 1-6 2-6 3v5c-1 2-1 2 5 2 5-1 5-1 5 1l-1 4c-1 4-3 5-8 5l-4 1a583 583 0 0 1-7 34l-5-32c-1-2-2-3-8-4a85 85 0 0 1-17-4 641 641 0 0 0-49 50 669 669 0 0 1 19-67l-2-3-7-8-6-8-11 4-17 6-7 3 14-12 14-12-2-6c-3-6-5-15-6-23l-1-5-36-6 9-2 18-4 9-1 1-6 7-25 1-3-14-11-14-12 9 2 17 7 8 3 4-4a229 229 0 0 1 12-16 1099 1099 0 0 0-17-66l21 23zm120 222 1 4-3-4c-3-2-3-3-2-4 1-2 2-2 2-1l2 5z"/><path d="m355 92-4 6 4 2c4 1 4 1 6-1s2-3 1-7l-2-5-5 5zm-16 29-3 13-1 4h4c6-1 6-1 6-4l2-9 2-6-3-3-4-3-3 8zm-3 39 6 20 4-3 3-3-2-6-2-9c0-2 0-2-6-3l-4-1zm17 34-3 1 4 5 5 6 3-5c2-7-1-10-9-7zM575 36l-6 16-6 16 3 2c5 3 18 17 21 20l2 3 15-5 17-7c1-1-2-8-3-8l-12 4-12 4-10-8-9-10 4-12 5-13-3-1c-4-2-5-2-6-1zm-55 31 1 5a722 722 0 0 0 19 4l3-4 2-3-3-1-19-5-4-1zm-27-3-5 2c0 2 6 7 8 7 4 0 5-1 6-6 0-4 0-4-2-4l-7 1zm65 18-2 4 7 7 8 7 4-2c4-1 4-1 3-3l-15-16-3-2zm51 11-13 11 2 6 4 12 3 8 66 15s3-8 2-9l-31-7-30-8-2-6-3-8 11-9 10-9-2-4-4-3-13 11zm-160-2-4 6 4 2c4 1 4 1 6-1s2-3 1-7l-2-5-5 5zm135 23c-4 3-4 3-2 6 1 4 1 4 7 6l3-1-4-14-4 3zm-151 6-3 13-1 4h4c6-1 6-1 6-4l2-9 2-6-3-3-4-3-3 8zm205 34-32 8c-2 0-3 2-4 7l-4 12-2 6 26 22 4-3 2-4-10-8-11-10 3-7 2-7 30-7 31-8c1-1-2-9-3-9l-32 8zm-208 5 6 20 4-3 3-3-2-6-2-9c0-2 0-2-6-3l-4-1zm156 7c-3 1-4 2-5 5s-1 4 2 6l4 3 5-14h-6zm-138 27-4 1 4 5 5 6 3-5c2-7-1-10-8-7zm115 5-7 7 2 4 3 4 10-9 9-9-3-1c-6-3-7-3-14 4zm-28 18-9 2c-5 1-6 2-6 3v5c-1 2-1 2 2 2 4 0 17-3 21-5l2-1-3-4c-3-4-3-4-7-2zm-44 5-2 4c0 1 12 4 13 3v-5c-1-4-1-5-4-5s-4 0-7 3z"/><path d="m620 210 2-2m47-62v-3m-48-60-2-4m-45-43v-2" style="fill:none;stroke:#000;stroke-width:.75px;stroke-linecap:butt;stroke-linejoin:miter;stroke-opacity:1"/><path d="M84 17c-11-1-17 12-13 22l19 65-12 14c-11-3-23-10-33-2-9 9-3 23 6 29 3 3 10 5 6 11l-6 27c-10 3-25 0-29 12-3 8 0 20 10 22l19 4c1 10 4 21 8 31-9 7-20 16-17 28 3 11 17 12 25 8 5 0 11-6 14 0 3 5 11 9 7 16-5 23-14 46-18 69-1 13 17 18 26 10 18-16 33-35 50-51l19 4c3 10 0 25 12 29 9 3 22 0 22-11 2-6 1-13 4-18 13-3 19-18 17-30-5-3 2-8 0-12-2-9-9-18-18-20-13 1-24 8-36 11-2 4-10 3-5-1 10-10 22-18 30-29 4-10-3-20-5-30-1-9-8-17-17-17-11-3-23-4-33-8 14-5 30-4 44-10 7-9 8-21 11-32 3-9-2-17-9-22-7-7-17-14-23-22 3-4 6 3 10 3 11 3 22 10 33 10 10-3 20-15 15-26 8-7 3-19-2-27-3-4-8-6-12-7-3-10-1-23-12-29-10-2-23 1-23 14-2 4-1 12-5 16l-17 3c-18-16-33-36-52-51-3-2-6-3-10-3zm21 111c8 8-11 2-3-1 2-1 2 0 3 1zm3 138c0 5-7 8-8 2 2-1 5-3 8-2z" style="fill:#fff;stroke:#b00;stroke-width:0;paint-order:stroke fill markers" transform="scale(.75)"/><path d="m155 8-8 4-5 2v4c1 5 0 5-8 4h-6l-5 25c0 2-1 3-6 4l-7 2-23-24L65 6l-3 3-8 4-5 3 16 57 2 5-5 5-5 5-14-5-17-5c-6 0-10 7-8 13 1 1 6 7 13 12 10 9 12 11 11 12l-3 12-2 10-9 1-16 3c-8 1-12 5-12 10 0 6 4 9 12 11 25 4 25 4 25 7a342 342 0 0 0 6 19l-12 11-13 13c-2 6 2 13 8 13l17-5 15-5 5 5 4 5-9 30-9 32 5 2 8 5 3 3 22-24 23-23 13 3 5 25v3l6-1c7 0 9 0 8 4 0 2 0 3 5 4 10-6 10-22 14-33 0-6 12-33 7-37l-8-8-6-8-10 4-17 6-7 2 14-12 14-11-2-6c-3-7-6-16-6-23l-1-5-9-2-18-3-9-2 35-6 2-6c0-7 4-21 7-25l1-3-14-12-14-12 8 3 17 6 9 3 3-4 8-9c10-9-2-30-5-39l-9-33c2 0 5-7 4-5zM81 37l23 24 3 3 6-2 12-3c5 0 6-1 6-3a999 999 0 0 0 7-32l3 17 4 17 5 1c4 0 5 0 6 5l2 6-6-1-6-1 1 5c0 5 0 5 5 5 5 1 5 2 1 6l-3 3-12-4-11-5 2-5c0-5 0-5-9-3-5 1-6 1-4 4 2 2 1 2-1 4-4 3-6 8-4 12 1 1 6 7 13 12 10 8 12 11 11 12l-3 12-2 10-9 1-15 3c-9 1-13 5-13 10 0 6 4 9 13 11 24 4 24 4 25 7a342 342 0 0 0 5 19l-12 11c-12 11-15 14-14 19 1 3 5 7 8 7 2 0 2 0 0 3-2 2-3 3-2 4 0 1 12 3 13 2v-5l-3-4c-2-1 23-10 25-10l4 4 4 5-6 1c-5 1-6 1-6 3l-1 5c0 2 0 2 5 1 6 0 6 0 6 2l-2 4c0 3-3 5-7 5l-4 1a582 582 0 0 1-7 33l-5-32c-1-1-2-2-9-3a85 85 0 0 1-16-4 641 641 0 0 0-49 50 669 669 0 0 1 19-67l-2-3-8-8-6-8-10 4-17 6-7 2 14-12 14-11-3-6c-2-7-5-16-5-23l-2-5-35-7 9-2 18-3 9-1v-6c1-6 5-21 8-25l1-3-14-12-14-12 8 3 17 6 9 3 3-4a229 229 0 0 1 13-15 1099 1099 0 0 0-18-66l22 23z" style="stroke-width:.999998"/><path d="m76 95-4 6 4 2c4 1 4 1 6-1s2-3 1-7l-2-5-5 5zm-16 29-3 13-1 4h4c6-1 6-1 6-4l2-9 2-6-3-3-4-3-3 8zm-3 39 6 20 4-3 3-3-2-6-2-9c0-2 0-2-6-3l-4-1zm17 34-3 1 4 5 5 6 3-5c2-7-1-10-9-7zm95-103-4 6 4 2c4 1 4 1 6-1s2-3 1-7l-2-5-5 5zm-16 29-3 12-1 5h4c6-1 6-1 6-4l2-9 2-6-3-3-4-3-3 8zm-3 39 6 20 4-3 3-3-2-6-2-9c0-2 0-2-6-3l-4-1zm17 34-3 1 4 5 5 6 3-5c2-7-1-10-9-7z" style="stroke-width:.999998"/><path d="M332 13c-10 0-18 11-14 20 6 22 15 42 19 64 3 7-6 11-10 17-3 4-8-2-12-2-9-4-22-3-25 8-4 13 8 22 17 29l-8 31c-10 3-24 1-29 11-3 10 0 23 11 24 6 1 13 1 18 4l8 30c-9 7-21 16-17 29 3 11 16 12 24 8 6-1 12-7 15 0 3 5 11 8 8 15-6 22-14 45-17 68 0 13 18 18 26 9 17-15 32-33 49-49 5 2 13 2 18 5 2 9 1 23 13 25 8 3 19-1 21-11l4-15c13-2 20-18 15-30-2-3 4-7 2-12-1-13-17-24-30-18-9 4-20 6-28 13-4-1-4-5-1-7 10-9 22-16 29-28 4-10-2-20-4-30-2-9-8-16-17-16-11-3-23-3-33-8 1-4 8-3 11-4 12-4 24-2 34-9 7-9 7-21 10-32 3-13-11-20-18-28-5-4-11-8-14-13 1-3 4-4 5-1 12 5 24 10 37 12 11 0 18-13 15-22 9-7 5-21-1-29-3-4-9-5-13-8-2-9-2-23-14-25-9-1-20 2-21 13-2 4 0 12-4 14l-17 4c-18-17-33-36-51-52-3-2-7-4-11-4zm20 111c5 3 4 9-3 5-3-2 1-5 3-5zm3 139c0 6-5 8-7 3 1-2 6-4 7-3z" style="fill:#fff;stroke:#b00;stroke-width:0;paint-order:stroke fill markers" transform="scale(.75)"/><path d="m341 6-8 4-5 2 1 4c0 4-1 5-9 4h-6l-4 25c-1 2-2 3-7 4l-7 1-23-23-22-23-3 3-8 4-5 3 16 57 2 4-5 6-5 5-14-5-17-5c-6 0-10 7-8 13l13 12c10 8 12 11 11 12l-3 12-2 10-9 1-15 3c-9 1-13 5-13 10 0 6 4 9 13 11 24 4 24 4 25 7a342 342 0 0 0 5 19l-12 11-13 13c-2 6 2 13 8 13l17-5 15-5 5 5 4 4-9 31-9 31 5 3 8 5 3 3 22-24 23-23 13 3 5 25v3l6-1c7-1 9 0 8 4 0 2 0 3 5 4 10-6 10-22 14-33 0-6 12-33 7-37l-8-8-6-8-10 4-17 6-7 2 14-12 14-11-2-6c-3-7-6-16-6-23l-1-5-9-2-18-3-9-2 35-6 2-6c0-7 4-21 7-25l1-3-14-12-14-12 8 3 17 6 9 3 3-4 8-9c10-9-2-30-4-39l-10-33c2 0 5-7 4-5zm-74 29 23 24 3 3 6-2 12-3c5 0 6-1 7-3a999 999 0 0 0 6-32l3 17 4 17 5 1c4 0 5 0 6 5l2 6-6-1-6-1 1 5c0 4 0 5 5 5 5 1 5 2 1 6l-3 3-12-5-11-4 2-5c0-5 0-5-9-3-5 1-6 1-4 4 2 2 1 2-1 4-4 3-6 8-4 12 1 1 6 7 13 12 10 8 12 11 11 12l-3 12-2 10-9 1-15 3c-9 1-13 5-13 10 0 6 4 9 13 11 24 4 24 4 25 7a342 342 0 0 0 5 19l-12 11c-12 11-15 14-13 19 0 3 4 7 7 7 2 0 2 0 0 3-2 2-3 3-2 4 0 1 12 3 13 2v-5l-3-4c-2-1 23-10 25-10l4 4 4 4-6 2c-5 1-6 1-6 3l-1 5c0 2 0 2 5 1 6 0 6 0 6 2l-2 4c0 3-3 5-7 5l-4 1a582 582 0 0 1-7 33l-5-32c-1-1-2-2-9-3a85 85 0 0 1-16-4 641 641 0 0 0-49 50 669 669 0 0 1 19-67l-2-3-8-9-6-7-10 4-17 6-7 2 14-12 14-11-2-6c-3-7-6-16-6-23l-2-5-35-7 9-2 18-3 9-1 1-6c0-7 4-21 7-25l1-3-14-12-14-12 8 3 17 6 9 3 3-4a229 229 0 0 1 13-15 1099 1099 0 0 0-18-66l22 23z" style="stroke-width:.999998"/><path d="m262 93-4 6 4 2c4 1 4 1 6-1s2-3 1-7l-2-5-5 5Zm-16 29-3 13-1 4h4c6-1 6-2 6-4l2-9 2-6-3-3-4-3-3 8zm-3 39 6 20 4-3 3-3-2-6-2-9c0-2 0-2-6-3l-4-1zm18 34-4 1 4 5 5 6 3-5c2-7-1-10-8-7zm94-103-4 6 4 2c4 1 4 1 6-1s2-3 1-7l-2-5-5 5Zm-16 29-3 12-1 5h4c6-1 6-1 6-4l2-9 2-6-3-3-4-3-3 8zm-3 39 6 20 4-3 3-3-2-6-2-9c0-2 0-2-6-3l-4-1zm17 34-3 1 4 5 5 6 3-5c2-7-1-10-8-7Z" style="stroke-width:.999998"/><path d="M208 16c-11-1-17 12-13 21 5 22 15 43 19 65-4 5-8 11-13 15-10-3-23-11-32-1-8 9-2 22 6 28 4 3 10 6 6 11l-6 26c-10 3-24 1-29 12-2 9-1 21 10 23l19 3 8 32c-8 7-20 16-16 28 3 11 15 12 24 8 5-1 11-7 14 0 3 5 12 9 8 15-6 23-14 45-18 69 1 13 20 17 28 7 17-15 31-32 47-48l19 5c3 10 0 24 12 28 9 3 23-1 23-13 2-5 0-13 4-15 12-4 18-18 16-29-4-5 3-9 1-14-2-9-10-17-19-20-11 1-22 7-33 11-3 1-10 6-9 1 10-11 23-19 32-32 1-11-4-22-7-33-3-10-13-13-21-14-9-2-20-3-28-6 14-5 30-4 44-10 7-9 7-21 10-32 3-8 0-17-7-22-8-8-18-14-24-22 3-5 8 4 13 4 11 3 21 10 32 8 9-3 18-14 13-25 9-7 3-21-3-28-3-4-8-5-11-7-3-9-3-24-16-27-8-2-19 2-19 12l-4 16-18 4c-18-17-33-36-52-52-3-2-6-3-10-2Zm21 109c7 7-1 9-5 3 1-1 3-3 5-3zm3 140c-1 4-5 8-8 2l8-2z" style="fill:#fff;stroke:#b00;stroke-width:0;paint-order:stroke fill markers" transform="scale(.75)"/><path d="m248 7-8 4-5 2 1 4c0 5-1 5-9 4h-6l-4 25c-1 2-2 3-7 4l-7 2-23-24-22-23-4 3-7 4-5 3 16 57 2 5-5 5-5 5-14-5-17-5c-6 0-10 7-8 13l13 12c10 8 12 11 11 12l-3 12-2 10-9 1-15 3c-9 1-13 5-13 10 0 6 4 9 13 11 24 4 24 4 25 7a342 342 0 0 0 5 19l-12 11-13 13c-2 6 2 13 8 13l17-5 15-5 5 5 4 5-9 30-9 32 5 2c2 1 6 3 7 5l4 3 22-24 23-23 13 3 4 25 1 3 6-1c7 0 9 0 8 4 0 2 0 3 5 4 10-6 10-22 13-33 1-6 13-33 8-37l-8-8-6-8-10 4-17 6-7 2 14-12 14-11-2-6c-3-7-6-16-6-23l-1-5-9-2-18-3-9-2 35-6 2-6c0-7 4-21 7-25l1-3-14-12-14-12 8 3 17 6 9 3 3-4 8-9c10-9-2-30-5-39l-9-33c2 0 5-7 4-5zm-74 29 23 24 3 3 6-2 12-3c5 0 6-1 7-3a999 999 0 0 0 6-32l3 17 4 17 5 1c4 0 5 0 6 5l2 6-6-1-6-1 1 5c0 5 0 5 5 5 5 1 5 2 1 6l-3 3-12-4-11-5 2-5c0-5 0-5-9-3-5 1-6 1-4 4 2 2 1 2-1 4-4 3-6 8-4 12 1 1 6 7 13 12 10 9 12 11 11 12l-3 12-2 10-9 1-15 3c-9 1-13 5-13 10 0 6 4 9 13 11 24 4 24 4 25 7a342 342 0 0 0 5 19l-12 11c-12 11-15 14-14 19 1 3 5 7 8 7 2 0 2 0 0 3l-3 4 14 3-1-6c0-3-1-4-2-4-2-1 23-10 25-10l4 4 4 5-6 1c-5 1-6 1-6 3l-1 5c0 2 0 2 5 1 6 0 6 0 6 2l-2 4c0 3-3 5-7 5l-4 1a582 582 0 0 1-7 33l-5-32c-1-1-2-2-9-3a85 85 0 0 1-16-4 641 641 0 0 0-49 50 669 669 0 0 1 19-67l-2-3-8-8-6-8-10 4-17 6-7 2 14-12 14-11-2-6c-3-7-6-16-6-23l-2-5-35-7 9-2 18-3 9-1 1-6c0-6 4-21 7-25l1-3-14-12-14-12 8 3 17 6 9 3 3-4a229 229 0 0 1 13-15 1099 1099 0 0 0-18-66l22 23z" style="stroke-width:.999998"/><path d="m169 94-4 6 4 2c4 1 4 1 6-1s2-3 1-7l-2-5-5 5zm-16 29-3 13-1 4h4c6-1 6-1 6-4l2-9 2-6-3-3-4-3-3 8zm-3 39 6 20 4-3 3-3-2-6-2-9c0-2 0-2-6-3l-4-1zm17 34-3 1 4 5 5 6 3-5c2-7-1-10-9-7zm95-103-4 6 4 2c4 1 4 1 6-1s2-3 1-7l-2-5-5 5zm-16 29-3 12-1 5h4c6-1 6-1 6-4l2-9 2-6-3-3-4-3-3 8zm-3 39 6 20 4-3 3-3-2-6-2-9c0-2 0-2-6-3l-4-1zm17 34-3 1 4 5 5 6 3-5c2-7-1-10-9-7z" style="stroke-width:.999998"/></svg>