<svg xmlns="http://www.w3.org/2000/svg" width="400" height="388" version="1.0" viewBox="0 0 300 291"><path d="M80 8c-6 0-9 6-7 11l22 79-16 19-33-12c-7-1-12 8-8 13 5 7 13 12 20 18 1 3 6 4 6 7l-9 36-34 7c-6 2-6 10-3 15 4 3 10 2 16 4l21 4c2 13 5 25 10 37-9 7-18 14-26 23-5 5-1 14 6 14 8-1 15-5 23-8l11-4 16 19-23 81c-1 8 9 12 14 7 10-8 19-19 29-29l30-31 24 6 6 32c2 6 9 6 14 4 5-4 4-11 6-17l3-19c13-1 26-6 38-9 8 8 14 17 22 24 5 4 15 3 15-4-1-7-4-14-6-20l-6-15c11-8 20-18 29-28l33 11c7 1 11-7 7-13-6-7-14-12-21-19-1-2-5-3-4-5l8-24 81-20c7-3 7-14 0-16l-81-20c-3-8-5-17-9-25 8-8 18-14 25-22 4-5 1-14-6-14-8 1-16 5-24 7l-9 4c-9-10-18-20-29-28l12-33c1-5-5-10-10-8-7 1-10 8-15 12l-12 14c-12-4-25-8-38-10l-6-32c-2-6-11-6-15-2s-3 11-5 16l-3 19-25 5-56-58c-2-2-5-4-8-3Z" style="fill:#fff;stroke:#b00;stroke-width:0;paint-order:stroke fill markers" transform="scale(.75)"/><path d="m62 3-8 5c-3 0-5 2-5 2l16 57 2 5-5 5-5 5-14-5-17-5c-6 0-10 7-8 13l13 13c10 8 12 10 11 12l-3 11-2 10-9 1-16 3c-8 2-12 5-12 11s4 8 13 10c24 4 24 4 25 7a342 342 0 0 0 5 19l-12 11-13 13c-2 6 2 13 8 13l17-5 15-5 5 5 4 5-9 30-9 32s2 2 5 2l8 5 3 3 22-23 23-24 13 3 5 25v3h15c4 1 4 1 5-1l4-26 4-1 12-3 8-3 9 11 9 11 4-3 8-5 5-2-2-5-5-13-3-8 9-9 9-9 12 5 13 4 3-4 1-4-17-6-16-6-2 4c-4 5-13 14-19 18l-4 4 6 16 5 15-22-25-11 3a104 104 0 0 1-24 6 591 591 0 0 1-7 33l-6-31c0-2-1-3-8-4a85 85 0 0 1-16-4 641 641 0 0 0-49 50 669 669 0 0 1 19-67l-2-3-8-8-6-8-10 4-17 6-7 3 14-12 14-12-3-6c-2-6-5-15-6-23v-5l-9-1-18-4-9-1 35-7 1-6 7-25 2-3-14-11-14-12 8 2 17 6 9 4 3-4a229 229 0 0 1 13-16A1099 1099 0 0 0 58 8c1-1 14 13 41 42l8 8 6-2 12-3c5 0 6-1 6-2a999 999 0 0 0 7-33l3 17 3 17 8 1 17 5 10 3 3-3 11-14 9-10-4-3-4-3-8 11-11 10-10-3-11-2-2-1-5-26c0-2 0-2-4-1h-15l-1 3-4 24-7 2-7 2-7-8-22-23L65 0z"/><path d="m202 36-7 16-5 15 3 3c5 3 18 17 21 20l2 3 15-6 16-6c2-1-1-8-3-8l-11 4-12 4-11-9-9-9 5-12 5-13-4-2zm-55 31v4a722 722 0 0 0 20 5l3-4 2-3-4-2-19-4-3-1zm-28-3-4 2c0 2 5 7 8 7 4 0 5-1 6-6 0-4 0-4-3-4zm66 18-2 4 7 7 7 7 5-2c3-1 4-1 3-3l-16-16-3-2zm50 11-13 11 3 6 4 12c1 5 2 7 3 7l65 16 3-9-31-7-30-8-3-7-2-7 10-9 11-9-3-4-3-3zM76 91l-4 6 4 2c4 1 4 1 6-1 1-2 2-3 0-7l-1-5zm134 23c-3 2-3 3-2 6 1 4 2 4 8 6l3-1-5-14zm-150 6-4 12v5h4c6-1 6-2 6-4l2-9 2-6-3-3-4-3zm205 34-33 8c-1 0-2 1-3 7l-5 12-1 6 26 22 3-3 3-4-11-9-10-9 2-7 3-7 30-8 31-7c1-1-2-9-3-9l-32 7zm-208 5c0 6 5 20 6 20l4-3 3-3-2-6-2-9c0-2 0-3-6-4h-4zm156 7c-3 1-4 2-5 5s-1 3 2 6l4 3 5-14zM74 193l-3 1 4 5 5 6 2-5c3-7-1-11-8-7m116 5-7 7 2 4 2 4 10-9 9-9-3-1c-6-3-6-3-13 4m-28 18-9 2c-5 1-6 2-6 3l-1 5c0 2 0 2 3 2s17-3 21-5l2-2-3-3c-3-4-4-4-7-2m-44 5-2 4 13 3-1-5c0-4 0-5-4-5-3-1-4 0-6 3" style="fill:#000"/><path d="M297 146v-3m-50-63 2 3" style="fill:none;stroke:#000;stroke-width:.75px;stroke-linecap:butt;stroke-linejoin:miter;stroke-opacity:1"/><text xml:space="preserve" x="100.316" y="196.756" style="font-style:normal;font-variant:normal;font-weight:400;font-stretch:normal;font-size:144px;font-family:&quot;Noto Sans Armenian&quot;;-inkscape-font-specification:&quot;Noto Sans Armenian&quot;;fill:#000;fill-opacity:1;stroke:none;stroke-width:.75"><tspan x="100.316" y="196.756" style="font-style:normal;font-variant:normal;font-weight:700;font-stretch:normal;font-size:144px;font-family:serif;-inkscape-font-specification:serif;stroke-width:.75">1</tspan></text></svg>