<svg xmlns="http://www.w3.org/2000/svg" width="360" height="360" version="1.0" viewBox="0 0 270 270"><path d="M61.645 185.824c-8.864-8.778-12.173-13.109-14.302-18.72-3.7-9.753.028-32.897 11.9-73.88l3.891-13.433.37 11.552c1.217 37.963 3.658 49.033 12.32 55.88 3.298 2.607 5.472 3.257 8.81 2.633 3.004-.561 5.596-2.061 7.525-4.354 3.798-4.513 6.83-13.81 7.765-23.8.729-7.792.709-36.409-.031-45.25-.322-3.842-.502-7.564-.4-8.271.344-2.392 14.202 33.645 21.127 54.935 3.289 10.114 5.649 18.702 5.649 20.558 0 1.356-1.673 2.454-5.776 3.791-1.55.506-4.331 2.024-6.179 3.374-1.847 1.35-12.58 11.628-23.852 22.84l-20.494 20.387zM169.686 176.386c-1.463-1.677-2.075-3.29-3.166-8.357-1.462-6.788-2.992-10.608-8.585-21.439-14.895-28.843-19.09-37.666-21.49-45.195-2.685-8.428-3.509-22.792-1.648-28.77 2.174-6.986 7.618-14.52 18.292-25.318 3.423-3.463 8.415-8.103 11.092-10.311 4.865-4.013 14.089-10.439 14.442-10.062.103.11-2.079 4.915-4.848 10.678-7.687 15.992-9.839 23.44-9.876 34.183-.044 12.784 2.973 21.026 10.39 28.391 6.352 6.307 12.032 9.005 16.453 7.815 4.172-1.123 9.635-6.843 13.86-14.508 3.485-6.326 8.378-24.393 12.036-44.445 1.255-6.88 2.461-12.51 2.68-12.51.483 0 2.016 5.205 3.886 13.198 4.784 20.441 3.8 38.86-2.746 51.393-2.343 4.488-8.276 10.304-16.548 16.222-17.408 12.457-25.137 21.415-28.185 32.667-.584 2.157-1.79 8.982-2.679 15.166-.89 6.184-1.822 11.449-2.073 11.7-.25.25-.83.026-1.287-.498zM197.93 198.64c-4.234-3.458-4.179-3.28-4.026-12.998.075-4.729-.267-13.917-.76-20.418-.492-6.502-.774-13.192-.626-14.867.395-4.496 2.824-8.515 9.748-16.135 5.778-6.359 14.713-14.977 15.977-15.411.847-.291.268 1.715-2.767 9.596-3.906 10.142-4.896 13.772-5.233 19.196-.392 6.295.158 7.334 4.34 8.203 3.862.801 8.927-.079 12.632-2.195 4.775-2.727 9.268-9.934 13.278-21.302l1.846-5.234-.293 4.517c-.626 9.62-5.017 25.88-8.567 31.724-2.294 3.778-6.257 7.56-9.75 9.31-1.444.723-5.04 2.112-7.992 3.088-3.345 1.105-5.892 2.299-6.761 3.168-1.689 1.688-4.4 8.543-6.275 15.865-.76 2.971-1.525 5.57-1.699 5.773-.173.204-1.556-.642-3.072-1.88zM266.239 254.33c-3.796-3.507-16.45-13.997-24.85-20.6-3.917-3.077-7.12-5.726-7.118-5.886.001-.16 1.942-1.008 4.313-1.884 4.962-1.832 6.968-3.549 9.1-7.787 2.302-4.578 5.346-14.594 6.271-20.639 1.128-7.367.669-13.366-1.736-22.711-2.223-8.636-2.85-15.653-1.853-20.722 1.522-7.733 5.5-17.375 9.71-23.534 4.958-7.251 15.516-18.686 15.977-17.302.117.349-.762 3.769-1.953 7.6-3.054 9.821-3.861 14.262-3.873 21.29-.018 11.394 2.39 15.823 10.762 19.79 3.3 1.564 3.9 1.667 9.698 1.667 5.811 0 6.387-.1 9.671-1.674 8.782-4.21 14.544-11.839 19.23-25.46 2.275-6.613 4.145-14.382 4.721-19.612.31-2.82.42-3.055.874-1.88 2.014 5.213 3.645 20.057 3.63 33.044-.017 15.426-1.347 22.944-5.02 28.374-2.924 4.324-5.5 5.672-20.748 10.863-15.037 5.119-21.88 7.888-26.19 10.597-4.084 2.567-5.244 4.117-6.388 8.543-.782 3.023-.84 6-.512 25.998.343 20.92.244 24.45-.684 24.419-.19-.007-1.555-1.129-3.032-2.494z" style="fill:red;stroke-width:.537313;fill-opacity:1" transform="scale(.75)"/><path d="M183.648 333.162c-10.602-7.16-82.432-64.284-117.827-93.705-11.93-9.915-12.039-10.107-8.417-14.677 5.483-6.92 55.997-58.007 64.067-64.796 4.532-3.812 4.288-3.922 21.723 9.755 19.373 15.197 78.34 62.518 101.677 81.596 12.51 10.226 14.3 11.86 15.47 14.123.767 1.482.715 1.613-1.923 4.9-6.903 8.601-58.639 61.618-63.32 64.886-3.625 2.533-4.98 2.286-11.45-2.082z" style="fill:#5a5aff;stroke-width:.537313;fill-opacity:1" transform="scale(.75)"/></svg>