<svg xmlns="http://www.w3.org/2000/svg" width="360" height="360" version="1.0" viewBox="0 0 270 270"><path d="M62 186c-9-9-13-13-15-19-3-10 0-33 12-74l4-13 1 11c1 38 3 49 12 56 3 3 5 3 9 3l7-4c4-5 7-14 8-24a465 465 0 0 0-1-54 443 443 0 0 1 27 76c0 1-1 2-6 3l-6 4-24 23-20 20zm108-10c-2-1-2-3-3-8-2-7-3-11-9-21-15-29-19-38-22-46-2-8-3-22-1-28 2-7 7-15 18-26a185 185 0 0 1 26-20l-5 11c-8 16-10 23-10 34 0 13 3 21 10 28 7 6 12 9 17 8 4-1 9-7 14-15 3-6 8-24 12-44l2-12 4 13c5 20 4 39-3 51-2 5-8 10-16 16-17 13-25 22-28 33a190 190 0 0 0-5 27l-1-1zm28 23c-4-4-4-4-4-13a276 276 0 0 0-1-36c0-4 2-8 9-16l16-15c1 0 1 2-3 9l-5 20c0 6 0 7 5 8 3 1 9 0 12-2 5-3 9-10 13-22l2-5v5c-1 9-5 25-9 31-2 4-6 8-9 10l-8 3-7 3c-2 2-4 8-6 16l-2 6-3-2zm68 55a616 616 0 0 0-32-26l5-2c5-2 7-4 9-8l6-20c1-8 1-14-2-23-2-9-3-16-2-21a71 71 0 0 1 26-41l-2 8c-3 10-4 14-4 21 0 12 3 16 11 20 3 2 4 2 10 2 5 0 6 0 9-2 9-4 15-12 20-26 2-6 4-14 4-19l1-2c2 5 4 20 4 33 0 15-2 23-5 28s-6 6-21 11-22 8-26 11c-4 2-5 4-7 8v26l-1 25-3-3z" style="fill:red;stroke-width:.537313;fill-opacity:1" transform="scale(.75)"/><path d="M184 333c-11-7-83-64-118-94-12-9-12-10-9-14l64-65c5-4 5-4 22 10a10369 10369 0 0 1 117 95c1 2 1 2-2 5-6 9-58 62-63 65-4 3-5 3-11-2z" style="fill:#5a5aff;stroke-width:.537313;fill-opacity:1" transform="scale(.75)"/></svg>