<svg xmlns="http://www.w3.org/2000/svg" width="641.8" height="973.5"><path d="M495.793 390.501c-29.841.265-58.477 29.294-50.974 59.864 2.885 18.65 14.729 38.312 34.875 40.959 18.371 3.739 35.444-7.458 50.42-16.63 28.316-20.577 22.405-73.022-13.68-81.256-6.73-1.685-13.673-3.054-20.64-2.937M270.78 466.013c-18.408 5.012-29.092 23.072-30.143 41.337-3.828 14.868-5.81 32.055 4.778 44.768 12.032 16.204 34.392 20.953 53.547 19.7 32.608-3.98 49.637-44.066 37.191-72.573-5.578-21.525-27.14-36.08-49.11-34.45-5.476-.49-10.835.674-16.262 1.218" style="fill:#fff;stroke-width:.999994"/><path d="M155.604 413.101c-24.272 4.92-35.938 29.38-51.426 46.03-12.625 14.67-11.588 36.442-.9 51.89 3.225 5.673 7.697 11.52 3.464 17.981-2.563 6.28-3.29 14.014-6.501 19.754-22.31 9.853-30.577 38.744-19.71 59.937 5.366 17.157 18.336 33.875 37.613 34.782 12.369 1.604 23.743-4.864 33.376-11.855 22.855-3.078 38.43-21.782 49.916-40.156 3.791-6.572 8.784-11.994 16.362-13.753 13.155-6.371 20.716-20.497 22.487-34.332 20.25-23.42 11.04-66.16-19.665-75.47-5.455-2.56-14.107-1.064-14.977-9.046-3.701-14.206-6.623-30.603-20.421-38.84-8.396-6.3-19.357-8.252-29.618-6.922" style="fill:#fff;stroke-width:.999994"/><path d="M198.021 1.516c-22.491 9.02-38.772 32.901-34.74 57.462 2.53 18.086 15.178 35.762 8.471 54.476-7.354 22.42-9.223 46.886-2.04 69.604-15.9 9.367-29.482 23.038-35.377 40.868-3.188 7.624-5.778 15.554-7.758 23.541-16.233 2.748-30.231 13.196-39.179 26.57-20.573 12.724-25.986 40.7-16.24 61.919 8.342 18.853 14.92 38.264 25.741 55.894 12.801 18.42 29.363 36.582 52.574 40.571 5.074 2.636 15.708-.806 13.435 7.762 1.706 22.869 7.566 50.743 31.04 60.71 20.956 8.526 45.935-3.942 53.077-25.11 2.727-11.408 3.834 2.459 6.223 6.761 10.258 20.015 37.178 26.814 56.264 15.493 3.967-.404 11.986-8.951 12.428-6.406-4.56 23.225-9.594 47.747-.964 70.72 8.114 24.184 30.42 44.228 56.77 44.3 15.561 2.257 29.435-7.318 39.34-17.873 8.716-.177 17.507 2.708 22.06 10.657 16.38 16.275 44.473 13.746 59.955-2.51 21.163-18.554 25.707-50.963 15.445-76.395-3.91-13.45-10.15-26.615-19.688-36.74-6.95-19.618-10.974-40.125-18.323-59.616 19.454 6.147 41.476 9.928 61.152 3.385 19.824-7.253 28.99-31.538 21.825-50.85 15.032 14.44 39.912 14.509 55.367.668 15.872-9.6 28.7-26.765 25.67-46.165-5.06-18.358-6.44-40.546-22.536-52.998-6.179-4.223-4.496-14.483-10.311-20.038-16.972-20.313-39.69-36.232-64.307-45.853-20.13-1.375-40.83-4.607-60.847-.615-8.626 1.701-16.422 7.169-24.392 9.64-16.577-4.56-34.627-9.934-50.942-1.414-6.09 2.417-12.17 5.897-17.965 1.158-5.697-2.568-12.822-2.19-14.833-9.325-9.734-14.199-25.843-22.872-38.177-33.745-3.82-11.885-10.978-22.51-12.357-35.245-6.984-24.939-4.13-52.301-15.697-75.9-7.79-17.107-23.49-27.9-39.42-36.593C249.93 17.08 231.203-3.362 206.193-.27z" style="fill:#fff;stroke-width:.999994"/><path d="M550.048 343.014c-18.782 6.185-28.963 26.16-27.475 45.173 1.062 6.562-8.268 10.862-9.467 17.806-5.48 10.786-2.544 23.48-3.264 34.466-5.596 10.119-19.448 8.18-26.94 16.595-22.858 18.013-19.911 55.945 2.65 72.923 21.592 18.09 52.26 9.709 74.826-2.014 26.03-13.824 50.71-34.367 60.006-63.337 10.433-29.723 16.251-63.84 4.085-93.853-7.25-14.478-23.183-20.565-38.358-22.435-10.697-6.939-23.83-8.762-36.063-5.324M72.894 318.66c-22.026 4.285-36.617 23.702-49.77 40.279C4.64 390.868-4.04 429.009 1.913 465.695c2.6 27.078 14.404 52.4 31.92 73.025 15.178 18.385 32.539 36.23 54.122 46.745 22.122 8.264 48.056-7.585 51.55-30.77 1.489-12.7 10.384-23.803 7.97-37.149-.26-15.163-14.526-24.794-15.68-39.747-2.172-10.589-5.36-26.456 6.543-32.434 19.12-13.888 20.154-44.088 2.987-59.98-17.619-16.047-20.448-42.078-37.486-58.335-8.946-6.71-19.794-9.86-30.946-8.39M241.34 530.168c-8.474 1.804-13.188 13.485-20.222 13.66-19.664-6.589-40.26 5.321-49.512 22.824-13.987 22.661-33.579 40.713-52.048 59.563-18.198 18.825-25.422 45.21-29.943 70.238 3.868 27.966 9.71 56.431 24.482 80.942 9.73 15.906 12.52 34.972 22.153 50.72 8.718 12.076 23.727 15.395 37.164 19.494 11.2 18.755 23.08 36.719 33.732 55.742 9.405 15.924 18.058 34.071 36.302 41.442 20.632 10.692 39.739 25.672 62.495 31.49 21.331 1.694 41.464-8.156 61.955-12.65 18.252-2.62 30.814-16.33 42.886-28.939 13.156-10.97 22.465-25.24 28.822-41.032 9.116-17.593 16.665-36.579 26.747-53.313 16.237-10.225 36.174-20.274 39.627-41.246 6.046-29.682 31.605-52.68 30.879-84.104.996-10.496.887-21.375-3.082-31.143-1.093-16.31-5.866-32.336-3.758-48.844-.336-19.954-15.183-35.393-27.806-49.3-17.437-14.647-45.684-9.507-57.942 9.4-10.692 7.263-21.94 15.173-27.846 27.311-1.527 2.413-7.323 14.36-6.533 9.032 2.666-21.277-7.403-46.207-29.738-51.945-7.691-1.991-15.903-1.358-23.553-.065-12.462-7.804-25.067-16.926-38.227-22.441-7.67-18.364-27.887-25.373-46.164-27.446-10.242-2.416-20.843-3.038-30.87.61m186.719 240.79c-4.718-.633-7.3-1.064 0 0" style="fill:#fff;stroke-width:.999994"/><path d="m302.975 520.15-4.929 11.612-7.745 7.536-6.453 9.017-1.409 10.13-20.065-.865 15.137-35.453 6.337-40.642 2.816 14.947 10.678 9.265zm-91.411 36.442-16.311 27.548-18.306 26.682-21.004 18.407-18.54 24.088-10.327-11.117-.821-13.712.352-16.307 9.387-10.5 13.612-3.706 5.515-6.423-20.417 4.323-13.612 10.13-9.74-23.842-1.056-26.436 2.347-17.418 8.8-24.953 8.684-26.189 19.362-21.989 10.678-13.959 13.26-6.423 18.423-10.871.587 11.241-5.28 10.377 1.76 15.441 8.214 6.424 2.698 14.577 9.27 1.235 4.225 22.73-13.964 16.306 3.051 13.589zm6.571-83.137c6.102-9.512 8.566-20.26 11.852-24.706 4.81-6.795 8.918-4.818 11.382-7.536l14.903-4.2 13.612 7.906 5.867 18.777-2.347 19.024-6.454 39.283-11.734 26.189-15.138 39.407-5.984 13.094-8.449 4.57-8.449-10.87v-25.077l6.689-21.248 2.23-31.747-3.873-16.307-4.694-15.565zm172.847 102.284 13.964-10.994h23.117l22.882 4.818 7.393 9.635-9.974 32.366-12.322 22.482-15.254 25.695c-7.51 5.56-10.326 10.006-24.173 20.753l-35.79 15.689-26.52 3.459-12.203-3.212c-.822-4.57-.704-9.512 1.642-14.947l15.02-10.748 30.862-14.082 12.79-23.348 7.393-27.794zm-254.87-177.762-16.546-13.959-11.617-27.548-5.398-21.865-43.651 38.79-9.505 16.8-7.158 21.494-3.873 20.506.704 27.3 6.102 26.313 7.745 13.96 12.908 18.159 14.902 16.059 20.536 15.688 1.995-12.6 6.923-16.06-9.74-11.858-4.81-16.8-3.404-13.713-1.643-16.676 1.526-12.354 4.224-14.206 7.393-12.353 10.326-7.412zm370.103 88.202 19.127-5.189 13.495-13.464 11.617-19.395-3.873-33.354-12.79-19.641-6.571-27.3 12.086-21.619 15.959-6.3 17.836 5.435 14.903 25.819 5.515 35.824-4.694 33.6-11.734 27.178-23.704 21.124-25.815 12.106-16.194 1.235-6.806-6.794z" style="fill:#000;fill-opacity:1;fill-rule:evenodd;stroke:none;stroke-width:.13333"/><path d="m472.067 586.98-2.347 11.736-4.928 16.06 21.943-20.63c6.689-4.077 27.928-14.206 27.928-14.206s15.255-19.024 19.127-28.413l-16.076-35.083-22.765-3.953-7.627-.865 10.56 25.324c1.057 3.46 0 15.442 0 15.442s-6.453 20.26-8.8 26.436zm-37.55-200.245 14.903 27.794 18.188-8.77 7.158-10.624-11.265-23.348-10.678-10.13-15.842 8.771zM291.24 564.375l3.873 12.106 5.632 5.188 7.98-2.1 11.5 6.794L340.29 598.1l12.086 5.435 16.78-4.694 1.878-14.33-13.025-8.153-14.316-9.882-5.985-14.7-3.168-25.572 16.898-35.824 4.81-31.995-6.923-19.147-10.208-18.036-10.679-1.606-16.076 7.412 3.638 21-4.107 21.371-16.78 9.883-.47 11.241 9.857 2.348 8.8 4.817-.234 17.418-9.974 21.618-8.918 10.748zm191.505-64.978-19.479-29.154-5.867-25.2-6.454-22.483 11.852-6.794 7.745-2.594 13.025-9.389 6.688-1.853 12.321 2.965 12.79 2.1 11.383 1.235-9.74 7.165-9.856 5.806-7.158 1.112-6.102 1.73-7.745 4.57-5.75 5.559-3.99 7.906.822 2.594 3.52-5.065 4.225-5.559 8.566-5.311 11.734-3.706 12.439 1.482 5.984 7.165-.117 12.6-3.168 12.353-1.056 10.377-10.444 3.83-5.515-9.265-8.684.988-1.877 6.3.704 18.9z" style="fill:#000;fill-opacity:1;fill-rule:evenodd;stroke:none;stroke-width:.13333"/><path d="m382.299 569.069 16.428-17.665 21.826-1.73 23.586 4.447 17.367 11.118 5.163 8.277 11.735-9.265 3.755-17.542-7.628-24.953c-.939-9.018-11.147-12.724-18.188-16.677-4.342-2.47-11.5-4.2-17.132-6.053l-19.831-4.57c-14.434 7.288-20.77 9.635-22.765 9.264 1.525-6.053 4.928-8.894 9.27-10.376 6.806-2.965 13.377-6.177 26.285-6.3 11.148 2.223 20.183 5.93 26.755 11.364l-7.276-22.976-7.51-28.783-7.04-18.16-7.51-21.124-9.036-22.853-5.28-15.194.821-15.442 3.168-10.253 15.372-3.335 14.668-1.483 13.964-1.235 7.276 15.441.586 10.254 5.867 18.035 11.265 7.165 20.888 4.2 14.902.247-3.872-14.7.117-21.247 9.74-20.013 21.708-5.435 16.077 2.1 19.479 16.06 15.841-11.366-8.214-29.524-13.26-6.424-7.51-12.353c-9.27-1.976-17.601-5.435-23.82-3.706-7.98.494-28.75-.988-32.505 7.536-2.581 5.93-7.862 16.8-10.678 15.441.821-2.718 3.52-12.724 8.331-19.765 2.816-4.324 17.25-8.647 19.48-9.759 4.341-2.223 9.621-2.718 15.371-2.347 7.158.618 20.418 4.694 28.046 7.041-6.454-13.341-28.75-27.67-44.826-34.836l-40.6-1.606-18.072 8.277-8.8 6.794-38.372-9.759-26.168 9.883-16.78.247-10.56-7.906-12.556-1.483-9.975-1.235-8.8-20.383-16.194-13.341-20.3-14.206-24.056-7.042-20.183 5.436-23.351 11.365 17.132-18.283 17.367-11.365 13.729 1.483 14.198 4.076-10.678-19.765-8.683-39.654-4.811-41.754-9.857-15.688-20.653-11.118-21.708-18.036-12.908-7.164-9.857 6.67-.939 12.724 8.097 18.283 2.699 21.37.235 16.43-7.158 23.595-2.23 20.383 5.633 21 2.346 15.442-8.331 13.712-15.841 11.365-10.092 6.3-10.913 22.73-3.286 19.147-5.28 12.724-11.734 4.818-12.556.74-10.326 5.19-3.99 10.746-10.796 5.56-3.99 8.894 9.623 21.247 9.857 22.854 4.224 10.253 18.658 21.618 20.417 6.176 15.725-3.582 2.698-16.8 3.755-12.106 10.796-1.112 4.928 9.759.822 18.777-2.934 20.63-1.877 18.282 1.877 17.665 6.22 19.889c1.642-5.56 5.397-12.23 7.04-17.171 3.168-9.636 6.102-14.206 12.556-20.383l14.55-6.176 17.837-.618 16.78 9.512 11.382 20.26-1.76 11.735 11.97-5.436 2.346-17.912-2.581-22.977-3.52-10.006-21.475-10.994-18.188.74-13.025 3.83-18.423 7.783 9.622-9.883 14.199-6.053 19.361-3.335 22.648 9.635-8.097-27.794-8.8-17.665 1.29-13.342 9.388-3.088 14.55 4.941 13.143 19.642 15.606 41.754 15.49-2.1 11.03 10.87 12.204 22.36 1.76 21.124-5.515 29.4-4.225 24.212-3.637 21.618 3.637 19.518 10.444 13.342zM421.844 680.124l21.826-26.93 10.091-19.148 12.556-6.176 11.852-12.353 13.73 18.9-1.292 20.506 4.577 26.93.47 8.771-18.893 19.642 22.412-10.995-1.525 26.19-21.474 39.035-8.918 29.524-32.27 20.877-39.192 80.914-28.984 28.165-55.387 15.318-57.733-32.983-24.994-41.63 17.836-22.483-22.882 14.576-24.76-41.63-31.917-9.882-9.387-27.919-20.653-39.283-8.8-41.136 10.09-33.848 17.485-19.518 26.755-25.447 27.575-39.16 1.643 22.854 9.974 16.924 19.01-7.536 8.214-31.253 7.04-14.207 27.811 5.189-.117 12.106 5.984 8.153 17.837 2.965 24.055 14.453 12.087 8.524 9.152 2.964 10.561-3.211 6.924-.371 2.464 11.118-10.678 15.688-31.8 19.889-14.669 12.847-5.163 12.6 1.643 11.242 7.98 6.424 14.785 4.076 19.714.37-9.505 5.56-7.862 2.964-10.327 1.236-6.57 1.606-13.965-1.73-17.484-2.47-4.224-2.718-5.28-9.389-8.215-4.57-9.622 1.73-11.852 6.052 3.403 3.336 6.102-2.718h9.505l6.806 7.535-6.102 5.189-21.122 16.306 1.878 4.818 7.627-7.289 9.974-3.953 15.137-5.188 10.679-1.112 11.03-.123 4.811 2.347-13.729 10.13-9.388 7.782-7.627 5.188-8.331 3.46-18.423-.248-18.775 6.177-18.306 17.541v4.324l6.102-4.077 10.092-9.141 11.969-7.289 12.086-1.729 9.388-1.235h4.224l-10.913 8.523-5.633 7.536 10.21-5.065 6.57-5.559 5.75-2.594 1.76 4.2-5.28 6.918-6.806 7.041-10.091 4.818-12.087 6.547-5.867 11.118 3.403 3.953 2.23-6.177 6.219-7.288 8.448-3.335 17.954-5.56 9.622-16.306 6.572-10.623 9.74-11.612 14.784-7.536 14.786-4.817 16.545-6.424 9.74-6.053 5.984-4.941 1.878 4.447-4.225 11.735-6.454 15.689-4.576 9.265-2.112 21.741-6.22 23.718-10.443 15.813-4.811 8.153-2.347 14.453-5.515 7.535-15.372 8.524-9.74 9.512-2.581 10.377-1.995 9.635 3.168 3.088 1.995-9.264 5.398-10.377 9.035-8.647 5.516-3.089 2.464 3.83-2.347 7.535-2.347 8.895-.352 12.6 2.934 6.794 3.168-4.694-1.878-9.265 1.878-9.389 4.224-10.13 3.286-3.829 1.877 9.76 3.52 10.623 7.393 7.165 3.638-3.335-4.928-6.795-6.454-17.665-.587-19.765 6.454-13.588 5.28-10.377 9.27-10.377 3.873-7.412 3.755-14.576.586-6.671 3.638 2.718 4.107 8.276 8.801 12.971 4.811 7.536-.939 11.859.704 11.241 2.465 7.783 2.464 10.13 3.637-2.966-1.76-9.759-2.112-9.388.235-9.635 4.928 5.558 3.169 7.66 2.346 6.3 2.934-4.695-4.107-11.612-5.163-10.5-4.811-11.241-9.036-9.76-5.163-10.5-1.877-13.34-.118-12.23 2.347-13.342 5.398-13.094 5.28-11.612-2.346-9.512 8.918-4.942h5.984l6.22 7.412 4.928 11.983 5.398 15.194.704 14.206-1.291 10.13 2.582 10.994 3.755 6.671 2.816-3.335-2.582-7.289.235-9.759 1.995-9.759 7.04 13.218 3.52 13.095.235 9.265 4.225.988.821-9.265-3.403-16.924-4.459-10.006-5.75-9.76-1.76-9.882 6.689 7.536 9.035 5.065 5.515-1.853-3.755-4.818-7.392-3.335-4.811-6.918-3.638-10.253-8.566-9.265-6.923-4.447-2.817-3.83z" style="fill:#000;fill-opacity:1;fill-rule:evenodd;stroke:none;stroke-width:.13333"/></svg>