<svg xmlns="http://www.w3.org/2000/svg" width="480.5" height="591.7"><path d="M166.823 263.918c-9.314.082-16.681 6.18-24.298 10.621-13.652 5.303-20.412 21.981-15.505 35.545 3.456 10.639 9.681 22.099 21.405 24.932 10.908 2.483 21.981-1.332 32.797-2.883 13.717-2.858 23.109-15.56 25.465-28.854 3.364-10.104 1.633-22.214-6.665-29.444-8.012-6.822-19.047-8.73-29.235-9.903-1.32-.089-2.643-.063-3.964-.014M301.45 262.506c-11.1.863-23.398.977-32.627 8.031-10.845 8.165-12.866 24.226-6.314 35.71 5.729 12.238 18.372 19.474 31.314 21.66 8.044 2.824 17.04 4.176 25.164.738 14.151-5.108 20.557-21.168 19.79-35.263-.981-14.644-13.687-26.05-27.146-29.877-3.325-.825-6.765-1.054-10.182-.999" style="fill:#fff;stroke-width:.999998"/><path d="M224.503 8.99c-8.674.11-16.878 2.625-25.507.729-19.723-1.892-40.303 12.692-41.541 33.199-4.159 16.792 7.607 33.835 24.011 37.882 1.035 4.027-6.025 3.263-8.337 5.87-19.876 7.271-38.781 17.376-54.355 31.876-14.985 11.597-26.997 27.095-34.403 44.411-3.708 6.083-5.364 13.117-6.743 20.03-5.507 1.09-8.681-1.62-11.684-5.942-10.958-9.645-26.996-9.643-40.73-9.034-19.33 5.905-25.143 28.674-23.548 46.72-.583 14.885-3.166 30.286 3.191 44.441 3.211 14.237 15.844 27.241 31.324 25.03 12.806-2.424 26.1-8.943 32.877-20.569 4.818 2.177 4.266 10.89 3.97 16.41.668 15.21-3.549 32.134 4.902 45.882-5.36 13.606-2.538 29.1 6.734 40.316 6.69 9.653 4.076 22.98 12.84 31.691 8.197 11.36 23.904 19.954 37.228 12.024 4.008-1.642 2.618 8.436 6.313 10.542 5.79 8.565 14.542 15.407 24.99 16.615 8.53 6.456 19.7 5.277 29.09 2.055 8.536.683 17.503 3.59 26.148.517 5.709 2.26 11.816-.3 16.742 3.45 5.562 1.518 4.264 10.084 9.072 13.5 11.824 15.097 37.724 11.13 45.214-6.274 2.559-4.7 3.976-9.981 4.327-15.311 13.391-1.315 22.292-14.129 24.032-26.243 5.506-5.21 11.427 2.442 17.939 1.341 17.564 1.55 32.112-13.44 34.127-30.175 4.913-14.889 13.64-28.456 16.072-44.23-.168-6.882-3.037-13.346-7.092-18.586 5.728-18.746 7.368-38.61 8.903-58.109 18.504-1.331 37.154-.826 55.573-4.055 12.459-.552 27.51-4.264 31.75-17.611 7.341-15.9-5.78-34.432-22.295-36.654-23.104-5.129-46.613-8.139-70.01-11.59-4.308-8.728-3.467-18.913-8.773-27.283-7.88-10.913-13.67-23.358-24.208-32.2-10.918-10.267-22.295-20.478-35.28-27.835-11.801-10.27-27.18-15.077-41.982-19.22 20.706-9.502 28.49-37.497 19.414-57.315-7.149-14.932-25.594-13.843-39.608-14.846-10.211-.743-20.44-1.55-30.687-1.449m81.608 279.106c4.077 2.59 9.812 5.51 6.625 11.235.28 4.455-3.089 8.153-7.397 5.12-7.576-2.368-17.863-1.59-20.62-10.925-4.38-5.122 5.94-3.761 8.958-5.008 4.124-.517 8.287-.5 12.434-.422m-138.283.855c4.995.57 11.104 1.685 15.129 3.881-1.675 5.619-1.092 14.804-9.175 14.655-6.133 2.114-12.792 1.89-18.952 3.347-.416-3.988-8.201-11.761-1.506-13.18 5.336-1.879 9.56-6.604 14.504-8.703m120.94 15.124c.691 3.669-.274-.91 0 0m22.606 10.242c-.168-.114-.02-2.326 0 0m-139.035 5.28c.468.479-.736-.626 0 0m206.775 2.387c-1.248 1.932.736-1.266 0 0m-137.29 36.111c-.224.101-2.034-.483 0 0m-101.665 55.647c-.34-.64-.25-2.702 0 0m158.969.076c-2.991.47 2.177-.545 0 0m4.653 4.728c-2.328 4.893 2.234-7.529 0 0m7.81 3.012c-1.578 2.453.48-.906 0 0m-13.142 6.668c-.348.362.37-.56 0 0m-86.13 7.886c-1.15.37 2.755-1.33 0 0" style="fill:#fff;stroke-width:1"/><path d="M207.664 418.453c-16.234 2.82-24.151 20.442-21.817 35.552.956 17.144 5.497 33.958 4.234 51.274 1.436 16.6 6.153 32.722 7.334 49.155.493 13.134 6.497 27.79 20.42 31.283 16.201 5.234 32.752-8.713 33.905-24.973 5.516-27.592 8.938-55.521 10.04-83.643-.113-15.838 8.532-34.392-3.677-47.793-9.213-12.886-28.416-9.36-40.818-10.868 5.04.079-9.489-.666-9.62.013" style="fill:#fff;stroke-width:1"/><path d="M212.04 442.394c-1.195.24-2.152 1.793-2.152 2.988-.239 2.989.837 10.878 1.315 15.3l.956 6.934c.24 1.314 3.347 8.845 3.467 10.28.12.836-2.51 1.912-2.39 2.868l2.031 12.91c.24 1.912.717 3.705.717 5.498 0 2.75-1.075 7.053-.717 10.52.478 3.824 2.75 8.367 3.467 12.67 1.554 9.084 4.064 40.402 6.096 42.075 1.912 1.793 4.423-23.667 5.977-31.556 1.075-5.26 2.63-10.639 3.227-15.66.598-4.541.359-10.399.598-13.865.239-2.39.956-4.662 1.075-7.052.12-4.423-.597-14.225-.12-19.126.24-3.586 2.033-13.148 2.63-16.615.718-4.183 2.152-11.714 1.555-14.463-.36-1.793-3.347-2.152-5.14-2.391-1.793-.12-3.467 1.195-5.26 1.434a54 54 0 0 1-12.073-.836c-1.673-.478-3.944-2.032-5.26-1.913m-8.487-24.743c.598-1.195 2.152-1.554 3.467-1.554a10.04 10.04 0 0 1 7.41 5.857c.598 1.793.718 4.064.598 5.977 0 2.27-.597 5.618-.956 7.53-.359 1.554-.359 3.586-1.673 4.303-.957.359-2.033.598-3.586 1.674-.479.239-.598 2.988-1.196 3.825-.478.956-1.315.239-2.032.598-.837.239-1.673 1.434-2.032 1.314-.717-.119-1.315-2.27-1.793-4.422-.12-.717-.837-.837-.956-1.554-.359-1.674.12-3.586 0-4.184-.478-1.554-.717-4.064-.359-6.216.478-3.227 2.032-10.757 3.108-13.148m29.764 16.256.12-4.542-.12-3.825.597-7.291c.24-1.435.24-3.347.718-4.304.358-.717 1.195-1.315 2.032-1.315.836 0 2.63.24 3.705 1.076 1.196 1.076 2.75 3.706 3.945 5.499 1.076 1.554 2.63 3.108 3.347 4.662.597 1.314.836 2.868 1.076 4.422.239 1.793.478 4.782.478 6.814.12 1.793.239 4.064-.12 5.26-.239.836-1.195 4.541-2.151 4.9-1.196.359-2.87-6.335-4.662-6.455-.837 0-.12 3.108-.957 4.064-.717.717-2.151-.478-2.749-.597l-2.151-.598c-.718-.359-1.435-.598-2.032-1.076-.479-.358-.837-.717-.957-1.195-.597-1.315-.12-3.825-.12-5.499m-17.452 6.814c-.717-1.554-.717-4.901-.478-7.053.12-1.912 1.195-3.705 1.554-5.618.358-2.27 0-5.737.478-7.889.358-1.673 1.434-3.586 2.271-4.662.717-1.076 1.554-2.749 2.75-2.51 1.314.359 3.824 3.467 5.14 4.184.836.597 2.39-.12 2.868.836.478 1.076-.12 3.945.12 5.977.239 2.271 1.195 5.38 1.434 8.128.359 2.75 1.315 6.694.239 8.607-.717 1.076-1.076 2.27-2.75 2.51-.956.239-2.988-.956-3.824-.12-.598.478-1.674.12-2.51 0-1.076-.12-2.272-1.673-3.108-1.912-.718-.12-1.435 1.076-2.152.837-.837-.24-1.554-.598-2.032-1.315m35.501.239c-.597-.837-.597-2.63-.717-4.064-.12-1.674-.239-3.825-.12-5.738.12-2.51.718-6.813.957-9.443.239-1.913-.24-4.9.717-5.977.837-.956 3.466-.956 4.781 0 1.435 1.196 3.347 4.543 4.064 7.172.957 2.75.957 7.411 1.196 10.041.12 1.793.597 4.064.12 5.618-.12.598 0 2.63-.36 3.108-.597.956-1.912.239-2.749.717-.717.24-1.673-.837-2.63-.837-.836-.12-1.673.837-2.27.837l-1.554-.358c-.598-.24-1.076-.479-1.435-1.076M101.591 313.657c-.956-1.076-3.107.359-3.346-2.27-.479-5.14-.24-12.313-.36-17.93 0-5.14.24-10.28-.119-15.42l-.717-6.216c0-.718 1.196-2.391 2.869-4.184.598-.717 3.108.24 3.825-.478.717-.837-.239-3.347.478-4.184 1.554-1.673 2.63-3.227 2.51-4.064-.239-2.032-11.116 1.913-11.355-.12a121.6 121.6 0 0 1-.957-17.81c0-.956 4.304-1.315 3.945-1.793-.478-.358-5.738-.837-6.813-.837l-8.965.598c-1.076.12-2.87 1.195-3.108.24-.478-1.555-1.793.238-2.63.238-2.75.24-5.26-1.554-7.291-1.315-6.216.598-14.703-.12-18.528 2.391-2.988 2.032-2.032 9.085-4.303 11.953-2.271 2.989-6.814 4.423-9.204 5.618-1.554.718-3.467 1.793-4.901 1.196-1.434-.598-2.75-2.87-3.466-4.901-.718-1.913-.36-5.02-.957-6.814-.478-1.673-2.032-2.51-2.39-4.183-.479-2.75-.598-8.009-.359-11.953.24-4.065 1.913-8.487 2.032-12.79.24-4.304-.837-9.324-.717-12.91.12-2.75 0-5.977 1.315-8.248l2.151-2.988c1.435-1.793 3.108-1.793 5.02-2.032 1.435-.24 3.945.597 5.977 1.076 3.228.717 6.336-.24 7.89 1.314 2.39 2.152-.24 9.922 2.51 10.878 4.9 1.912 17.93 2.869 26.895 2.869 6.215 0 14.224-.478 20.679-.478 1.076-9.683 2.27-21.158 5.379-30.84.837-2.51 4.781-4.184 5.976-6.335.718-1.554-1.553-3.825-.597-5.26a54 54 0 0 1 5.379-7.53c3.347-4.184 6.215-8.726 10.04-12.432 5.38-5.26 11.834-9.443 16.496-13.387 2.869-2.51 5.738-5.38 8.846-7.53 2.749-1.913 5.618-3.109 8.606-4.782a70.8 70.8 0 0 1 14.463-6.335c3.108-1.076 5.02-2.51 8.965-3.586 2.152-.598 4.423-3.347 6.933-3.586 4.423-.24 9.324-.12 13.986-.479.239 0 1.912 1.793 2.749 4.184.956 2.39 1.076 5.499 1.434 5.499.717-.12 0-6.814-.239-10.16l-1.315-16.257c-.12-1.435 2.63-2.869 2.51-4.184-.119-1.434-2.988-2.63-3.107-3.825-.12-1.793 0-3.825.239-5.857.358-5.379 1.076-10.877-.24-13.507-1.075-2.152-7.65-1.554-10.877-2.869-3.944-1.434-11.116-3.347-12.79-6.335-.837-1.554.24-4.303.359-6.814.239-2.63-.24-5.14 1.793-6.693q1.254-.897 3.227-1.435c.956-.358 1.793-3.108 2.988-3.347 1.674-.239 4.304.598 6.216.478 3.228-.358 6.216.837 9.085.478 1.554-.119 2.988 4.184 4.661 4.065 1.196-.12 2.51-4.662 3.706-4.782 6.216-.358 12.79-.597 18.408-.478 7.89 0 16.615 1.076 23.429 1.674 5.737.478 15.42-1.076 17.212 2.032 2.032 3.705-.597 16.017-4.781 19.962-1.913 1.673-5.738 4.183-10.04 4.303-2.152.12-4.782-1.793-6.695-1.674-1.434.24-2.749.479-3.586.837-.956.478-1.673.956-2.151 1.554-1.435 1.913-1.315 4.423-2.032 6.455-1.315 3.466-3.467 8.367-3.706 12.55-.358 4.184 2.032 8.727 2.032 13.03l-.12 5.02c-.119.957-.836 2.39-.238 2.989.597.478 2.51.12 3.825.239a149.4 149.4 0 0 1 41.478 9.323c4.661 1.793 9.204 4.303 13.626 7.053 1.196.717 1.196 4.781 2.391 5.618 2.39 1.554 5.738 0 8.009 1.793 4.542 3.466 8.845 7.052 12.79 10.519 7.65 6.693 15.898 13.507 21.755 21.874.836 1.195-8.009 8.128-7.292 9.324.717 1.076 6.096-5.26 11.356-2.39 1.076.597 1.315 2.15 2.151 3.346 2.033 2.75 4.782 5.857 5.738 9.085.837 2.51-1.554 5.14-.837 7.889.478 1.912 3.825 3.944 4.303 5.857 1.554 6.216.12 12.312 1.196 18.288 4.064.598 8.487 1.793 12.192 2.152 8.367.837 20.32 3.227 28.09 4.303 6.097.837 12.432 1.315 18.528 2.39 8.845 1.435 32.154 5.5 34.665 7.292 2.63 1.793-12.91 3.108-19.604 4.064-6.096.957-15.54 1.315-24.265 2.272l-5.26.478c-1.075.12-2.032-2.51-3.107-2.391-1.315.12-2.75 2.988-3.945 2.988-2.151.24-4.303.24-6.455.24-6.215 0-12.431-.36-18.647-.24-2.39.12-5.498.598-8.606 1.076.478 9.563 0 19.125-.598 28.688-.478 6.574-1.554 14.822-2.75 22.711-.238 2.152-1.434 4.184-1.792 6.336-.24 1.912.239 3.944 0 5.857l-1.195 6.933c-.359 2.032-2.989 3.944-3.228 5.498-.239 1.913 1.435 3.825.837 5.738-1.076 3.347-2.152 6.574-1.793 9.084.717 3.825 7.172 4.901 7.65 8.726s-2.988 9.563-4.781 14.224l-1.793 4.423c-.478 1.076-8.965.24-9.443 1.435-.598 1.195 6.693 4.422 6.215 5.737-1.793 3.825-3.466 7.65-4.422 10.4-.837 2.032-1.076 4.78-1.435 7.172-.358 2.27-.837 4.183-1.912 5.259-1.435 1.076-4.064 1.554-6.575 1.434-1.912-.239-3.705-.717-4.9-1.434-.718-.478-.36-2.63-.837-3.586-.359-.717-1.674-.12-1.913-1.076-1.195-2.988-2.032-6.216-3.466-6.455-1.076-.239-2.271.957-3.586 2.63l-1.554 2.032c-.359.598-2.271.598-2.63 1.076-.717.956 0 2.39-.717 2.869l-1.913 1.315c-1.793 1.075-3.825 1.793-5.498 2.63-2.032.956-4.303 2.988-6.216 2.749-1.912-.359-3.705-5.14-5.379-4.423-.956.478-2.151 2.63-3.108 4.9-.358.837-1.912.837-2.151 1.674-.24.598.837 1.913.717 2.39-.478 1.435-.598 2.99-.717 4.543l.12 3.228c0 1.912 1.075 4.422.717 5.737-.12.359-.24 2.032-.598 2.63-.359.597-.837.239-1.076.837-.239.717.24 1.793-.239 1.912-.12.12-.837 1.434-1.315 1.076-.478-.359-.717-2.152-1.195-2.271-.24-.12-1.435-2.63-1.554-2.51-.24 0 .478 2.032.12 2.39-.36.478-.718 1.196-.957 1.315-.837.24-1.315-.956-1.912-.717-1.196.478-2.75 1.434-3.586 1.434-.598 0-.479-1.315-1.076-1.434h-1.913c-.358.12-.956.837-.956.478-.717-2.869-.359.598-.478 1.076-.24.837-.24 1.793-.598 1.912-.478.12-1.076-1.912-1.912-2.27-.837-.24-2.271 0-3.108.358-.717.358-1.195 1.912-1.913 1.912-.358 0-.836-.717-1.315-1.315-.358-.358-.717-2.868-1.075-2.868-.12 0 0 1.315-.24 1.912-.119.478-.836.24-.836.359 0 .239 1.076.597 1.315 1.076 1.076 2.988 1.912 12.67 2.27 16.734.12 1.913.479 4.542 0 6.216-.119.478-.716.12-.955.478-.24.12 0 1.315-.24 1.913-.597 1.195-1.314 2.63-2.032 2.868-.956.24-2.032-1.195-2.749-2.032-.239-.239-.597-.358-.597-.597-.24-.837-.957-.359-1.076-.598-.359-.837-.12-2.152-.12-3.108-.239-1.673.359-4.303.12-6.335-.12-2.032-1.196-4.064-1.435-6.096-.239-2.391-.478-6.336 0-8.129.12-.717 1.315-1.673 1.196-1.912-.24-.12-1.913.478-2.391.717-.956.478 0 2.988-.717 3.108-.837.12-2.39-2.152-3.706-2.39-1.434-.24-3.227.597-4.303.956-.478.239-.956-3.586-1.315-3.228-.239.12.12 1.793-.12 3.108-.119.837-.716 1.554-.836 1.554-.956.837-2.152 3.586-3.108 3.586-.956-.12-1.673-2.39-2.63-3.586-.956-1.315-2.151-3.347-3.466-4.064-.956-.717-2.63-.12-3.706-.359-1.075-.358-1.912-2.032-2.868-1.434-1.315.717-3.228 5.379-4.782 5.977-1.434.597-2.749-1.674-4.064-2.51-1.195-.837-2.151-2.75-3.466-2.51-1.793.358-4.423 3.705-7.053 4.422-1.793.358-4.422 0-6.574-.359a29 29 0 0 0-4.064-.358c-.478 0-1.076-2.75-1.554-2.75-.598 0-1.195 2.87-1.913 2.75-.836-.12-2.032-1.674-3.347-2.032-2.151-.479-4.422.239-5.498.239s-1.554 1.793-2.51 1.912c-1.196.12-2.989-.956-4.542-1.195-.837-.12-2.272 3.825-3.467 3.825-.837 0-1.554-1.076-2.39-2.032-.36-.478.358-2.869.119-3.228-.478-.478-1.913 1.076-2.271.957-1.913-.24-4.423-.717-5.738-1.196-1.076-.358-1.673-1.673-2.63-1.793-1.075 0-2.988 1.554-3.705 1.315-.717-.358-.12-2.39-.717-3.108-.359-.358-1.196-1.673-1.913-1.554-1.076 0-2.032 1.554-2.51 1.196-.598-.598.598-2.63.478-3.467-.239-1.075 1.554-2.868 1.435-4.183-.12-.957-3.586-1.435-3.706-2.989 0-2.032 1.076-4.78.717-6.693-.239-1.196 1.076-3.706.717-5.38-.12-1.075-1.793-1.434-2.151-2.27-.956-1.913-.956-4.065-1.674-4.782-1.314-1.554-4.064 3.108-5.618 2.75-1.434-.479-1.195-4.304-3.107-5.021-2.152-.717-6.814-.478-10.041.359-3.228.836-6.814 3.227-9.204 4.9-2.032 1.554-3.228 7.172-5.26 5.499-1.195-.956-5.26-2.75-7.052-6.574-1.554-3.228-.956-8.607-2.032-10.878l-1.674-4.542c-.836-2.63-1.554-5.38-2.868-7.89-2.152-4.422-7.531-8.725-8.965-14.224-1.315-5.379 4.422-13.148 4.064-18.408v-.12l3.944-7.052c.717-1.315 3.108-2.749 3.586-3.825l.598-1.554c.12-.358 1.793 2.51 3.705 3.825 2.51 1.674 5.38 2.032 5.499 1.674.12-.24-1.674-.956-2.869-2.39-.358-.36 1.315-2.75.956-3.109-.478-.478-1.912-.12-2.51 0-1.912.478-3.227-3.705-3.108-3.944l3.347-8.129c.24-.597 1.554-.239 1.793-.836.359-.837-.597-2.87-.358-3.825.836-4.662.597-10.16 2.032-13.388l.597-1.913c0-.358-.239-.597-.597-.717-.598-.239.717-1.076.717-1.434 0-1.793-.12-3.706.717-5.738 1.554-3.347 14.225-5.737 13.388-5.737-.359-.12-3.228.478-6.335 1.434-.359.12-1.076-1.076-1.315-.359 0 .36-.24.837-.478.957-1.196.358-3.347-.12-4.304.478-2.032 1.195-2.39 3.586-3.227 4.542-.956 1.195-2.152 1.913-2.032 3.467 0 1.912.359 3.944-.359 5.618-1.434 3.227-.597 6.215-.836 12.431 0 2.39-1.435 5.14-3.228 7.77-.358.478-1.673.478-2.151.956-.359.717.12 1.793-.359 2.39-2.152 2.75-4.303 5.26-5.498 7.531-.36.717-1.076 3.108-1.793 3.825-.598.598-1.554-3.227-2.033-3.825m90.367 101.723c.957-.837 2.51-1.435 3.825-1.196 1.435.24 3.825 1.674 4.662 2.87.717 1.314 0 3.227 0 4.9 0 1.793.359 4.542 0 5.977-.358 1.195-2.151 1.673-2.39 2.988-.24 1.195.836 3.108.836 4.423-.12 1.195-.358 2.988-1.315 3.347-.836.358-2.749 1.912-3.825 1.195-.717-.359-1.673-3.108-2.51-3.706-.956-.597-1.673-1.434-2.151-2.27-.837-1.913-.837-5.5-.718-7.77a19.25 19.25 0 0 1 3.586-10.639zm-8.247 1.912c.478-.717 1.075-1.554 1.912-1.793s2.63-.12 3.108.598c.478.598.24 2.271.12 3.347-.12 1.315-.718 3.347-1.076 4.662-.24 1.195-1.076 2.39-1.076 3.586 0 1.554.837 4.422.956 5.737 0 .956.598 2.271-.239 2.63-.598.239-1.673.359-2.869.478-1.195 0-3.705 4.423-3.825.598 0-.837-1.076-2.032-1.673-2.75a9.6 9.6 0 0 1-1.554-2.51c-.478-1.554.358-3.586.717-5.26.478-1.553 1.076-3.107 1.913-4.541.956-1.554 2.63-3.706 3.586-4.782m88.693 6.455c0-2.032-.359-4.064 0-5.977.359-1.673 1.076-5.14 2.152-4.9.956.239 3.108 4.064 3.944 6.454.717 2.391.598 5.38.837 7.89.239 2.39 1.315 5.498.598 7.052-.24.598-.598 2.988-1.315 3.466-1.076.479-2.63-1.075-3.347-1.314-.359-.24-.717 1.195-.956.717-.24-.359-.359-2.51-.598-2.989l-.717-2.749c-.478-2.032-.598-5.379-.598-7.65m19.125-1.315c-.12-.239.24-1.195.24-1.315l-.957-3.347-.717-3.466c-.24-.837-.478-1.793-.359-2.39.12-.479.718-1.077 1.076-.837.359.358.956 1.912 1.315 2.988.478 1.076.956 2.39 1.076 3.705.239 1.435.239 3.706.12 4.782-.12.836-.598 1.912-.957 2.27 0 .12-.359.24-.598.12.12.957 0 1.793-.239 2.271-.478.718-1.434 3.467-2.63 3.347-.717-.12-1.673-2.749-2.031-3.227l-.36-.717.24 2.63c-.12.597-.24 1.314-.598 1.912-.358.837-.836 2.988-1.315 3.347-.478.359-.956-2.271-1.553-2.51-.36-.12-1.196 1.076-1.435.837-.717-.718-1.195-2.391-1.434-3.586-.24-1.674 0-4.304 0-6.455v-7.53c0-.838-.359-2.033 0-2.391.478-.36 2.151-.718 2.63 0 .836 1.195 1.673 4.9 2.27 7.41l.718 3.467-.359-3.108-.956-5.379c0-.837-.359-1.793 0-2.39.478-.598 1.793-1.076 2.51-.957.837.12 1.674 1.076 2.032 1.913.717 1.554 1.554 4.542 1.913 6.813zM162.673 425.9l-.359-.12c-.597-.478-.956-2.39-1.195-3.705a40.5 40.5 0 0 1 .598-12.551c.239-.598 1.553-.24 1.912.358.478.837.956 2.989 1.076 4.542.12 1.435-.24 2.989-.359 4.543v.478l.598-1.435c.717-1.673 1.554-4.183 2.271-5.14.478-.597 1.554-1.195 2.152-.956.717.24 1.554 1.435 1.673 2.39a30.8 30.8 0 0 1-1.195 9.922l.956-2.51.956-5.499c.12-.597.12-1.553.718-1.912.478-.24 1.434 0 2.27.239.957.24 2.989.717 3.706 1.673s.717 2.63.478 3.945c-.239 1.793-1.554 4.662-2.151 6.694-.478 1.793-.12 4.064-.957 5.379-.358.358-.717.837-1.314 1.195-.24.24-.957-.478-1.315-.358-.717.358-1.076 1.554-1.674 1.195-.478-.24-1.315.359-1.673-.478-.359-.598-.359-2.39-.478-2.989l-.598-2.032-.359.718c-.717.717-1.912 1.554-3.227.597-.478-.358-1.076 2.63-1.554 1.913-.359-.598-.598-4.542-.837-5.14zm62.037-102.082c1.674-2.032 2.63-6.335 4.901-6.335 2.271.12 6.216 3.825 8.607 6.575 1.793 2.151 2.749 5.14 4.183 7.889.478 1.076 4.782.956 5.499 1.793 1.076 1.554-3.228 2.151.239 5.857l2.39 2.63a46.3 46.3 0 0 1 8.129 15.06c.717 2.391.836 4.663.478 7.053a25.34 25.34 0 0 1-8.606 13.388c-2.989 2.39-8.487 4.064-11.117 2.75-1.434-.599-5.499-1.077-6.096-3.467-.598-2.152-.478-6.097-1.674-7.172-2.151-2.271-1.315-3.825-3.825-3.108s-4.9 6.694-7.172 8.726c-2.032 1.793-5.618 3.705-8.367 2.869-1.673-.479-4.303-2.272-6.694-4.304-2.151-2.032-4.184-4.303-4.9-6.096-1.674-3.825 1.792-5.976 2.868-10.04 1.076-4.184 1.434-8.846 3.586-12.671 2.271-3.825 5.977-6.933 9.085-10.519 2.988-3.466 6.215-8.009 8.486-10.878m-100.288-21.994c-.358-4.183 0-10.04 2.032-14.104 1.913-4.184 5.977-7.65 9.922-10.52 2.39-1.792 5.737-.956 9.204-3.227 3.825-2.39 8.008-7.77 11.714-8.845 4.303-1.196 8.845-1.554 13.388-1.196 2.988.12 5.976.598 8.845 1.196 4.662 1.076 15.54 4.781 21.516 6.574 2.63.837 5.02-2.869 7.052-1.673 1.793 1.195-.956 4.422 0 6.096.718 1.434 1.076 3.347 1.315 5.379.837 9.443-3.227 24.026-5.498 31.078-2.032 6.336-6.575 12.193-12.312 15.54-6.216 3.586-16.376 5.379-24.863 6.335l-5.618.478c-1.315.24-2.869 4.064-4.184 4.184-1.195.12-2.151-3.586-3.347-3.586-5.14.12-10.16-.24-13.626-2.152-6.336-3.705-8.726-15.54-11.356-20.799-1.793-3.466-3.945-6.933-4.184-10.758m131.726-9.92c1.075 4.183 4.422 10.16 8.247 16.017.478.836-1.195 2.151-.597 2.988.597.956 3.586 1.315 4.303 2.271 2.75 3.706 5.498 6.933 7.65 8.965 4.781 4.303 12.431 3.466 18.528 5.02 6.215 1.674 12.79 5.38 18.647 4.423 5.976-.837 12.67-4.662 16.615-9.682 1.076-1.195 2.032-2.75 2.988-4.542.598-1.196 3.825-2.391 4.423-3.706.478-1.315-1.554-2.63-1.076-4.064 1.076-3.227 2.032-6.574 2.39-9.204 1.076-5.738 1.196-12.431-1.912-17.332l-3.586-4.542c-.837-.837-.239-7.412-1.195-8.248-.837-.957-3.108 3.825-4.064 2.988-4.423-4.184-9.563-8.009-13.388-9.802-3.347-1.554-7.052-1.554-10.877-1.195-3.228.24-7.531 3.347-9.563 1.195-2.75-2.868-4.662.478-7.053.718-4.064.597-8.008 1.434-11.236 2.39-4.542 1.315-10.04 2.271-12.79 5.977-3.227 4.303-8.247 12.79-6.454 19.364" style="fill:#000;fill-opacity:1;fill-rule:evenodd;stroke:none;stroke-width:.13333"/></svg>