<?xml version="1.0" encoding="UTF-8" standalone="no"?>
<svg
   width="705.3"
   height="528.7"
   version="1.1"
   id="svg134"
   sodipodi:docname="pathcathari.svg"
   inkscape:version="1.2.2 (b0a8486541, 2022-12-01)"
   xmlns:inkscape="http://www.inkscape.org/namespaces/inkscape"
   xmlns:sodipodi="http://sodipodi.sourceforge.net/DTD/sodipodi-0.dtd"
   xmlns="http://www.w3.org/2000/svg"
   xmlns:svg="http://www.w3.org/2000/svg">
  <defs
     id="defs138" />
  <sodipodi:namedview
     id="namedview136"
     pagecolor="#ffffff"
     bordercolor="#666666"
     borderopacity="1.0"
     inkscape:showpageshadow="2"
     inkscape:pageopacity="0.0"
     inkscape:pagecheckerboard="0"
     inkscape:deskcolor="#d1d1d1"
     showgrid="false"
     showguides="false"
     inkscape:zoom="1.2625474"
     inkscape:cx="154.44965"
     inkscape:cy="333.84886"
     inkscape:window-width="2560"
     inkscape:window-height="1417"
     inkscape:window-x="0"
     inkscape:window-y="23"
     inkscape:window-maximized="1"
     inkscape:current-layer="svg134" />
  <path
     style="fill:#ffffff;stroke-width:0.999995"
     d="m 303.98692,220.72803 c -16.91681,2.2222 -34.4308,7.76279 -46.6118,20.2596 -12.22843,12.73641 -15.97029,32.76058 -8.84663,48.96618 1.51409,4.4461 4.77601,8.08918 6.74235,12.20211 2.15453,10.01812 8.21169,18.55633 14.95332,26.02639 10.32688,15.45109 30.6364,22.95488 48.59519,18.41684 17.25853,-4.12412 33.17012,-16.49373 38.35739,-33.90451 2.21545,-7.44145 2.61941,-15.25928 4.08036,-22.86748 3.58933,-22.29622 -6.7222,-45.45178 -23.85471,-59.64011 -9.2753,-7.5043 -21.60383,-10.79497 -33.41547,-9.45902 z m 55.50644,78.3779 c -0.0212,0.39374 0.0213,-0.59018 0,0 z m -97.04227,8.50423 c -0.44518,-2.24222 -0.49807,-5.04849 0,0 z m 1.23355,6.46842 c -0.11095,-0.20899 -0.18705,-0.97443 0,0 z"
     id="path921" />
  <path
     style="fill:#ffffff;stroke-width:1"
     d="m 352.09929,1.5859608 c -16.08482,-0.6895043 -32.3781,9.3247102 -36.88066,25.1839582 -2.0875,6.740381 -2.33388,13.791518 -4.89619,20.374469 -2.18116,8.773205 1.10753,17.528496 4.73401,25.293466 1.45259,12.431652 1.5996,25.870598 1.09923,37.614576 -4.18732,2.53357 -4.61872,-5.18438 -7.1245,-7.55372 C 294.39739,76.549382 274.10476,54.056341 251.01617,35.373713 233.55129,22.808469 212.04959,15.736418 190.44135,17.31527 173.51831,17.619931 156.89657,22.645667 142.74627,31.956441 134.81606,35.853589 128.75354,43.00558 120.01798,45.07346 105.85178,51.423312 90.055294,55.627725 74.549801,53.294419 69.576871,50.87702 65.544424,46.915393 63.837749,41.613595 55.87113,26.290132 33.352746,22.277198 20.611035,33.94936 9.1176488,43.316052 8.8006773,59.833701 12.955443,72.92276 c 4.087321,18.451469 14.400523,36.28907 31.507386,45.38945 32.886717,19.13915 74.322741,16.6411 108.401451,2.00244 6.78992,-2.40647 13.28661,-6.80877 20.58011,-7.30529 9.51723,1.27576 18.09842,7.10283 24.40882,13.95925 11.08284,14.18317 20.91826,29.40855 27.87578,46.07565 5.76322,13.1705 10.05221,26.95044 14.60287,40.54531 -15.38491,1.50659 -31.35982,-0.16865 -46.26183,4.49835 -14.41976,5.38275 -21.31524,23.94502 -13.8224,37.40404 5.32447,10.07127 14.53089,17.93441 25.49376,21.08616 7.57624,3.97257 15.96762,5.70178 23.50481,9.64734 7.82533,1.83949 14.65561,6.7124 22.82987,7.71916 3.42724,0.97603 2.87647,6.47664 4.80761,9.29178 2.46087,5.94315 5.59652,11.39568 6.76261,17.76189 2.66903,8.31811 8.7812,14.9134 15.40265,20.23936 3.39704,4.60541 7.81616,8.47317 12.91716,11.08565 -0.30434,12.19838 3.88513,23.70169 8.7627,34.65928 3.12464,13.44366 5.15488,27.26945 10.96544,39.94636 2.8738,6.96965 5.94496,14.49571 12.34606,18.97457 1.62864,22.499 2.07585,45.71976 10.03066,67.08895 6.36095,13.64326 25.07392,19.28779 37.65887,10.90432 12.46389,-7.10436 13.79238,-22.58053 16.27928,-35.23169 2.04066,-14.34571 2.57868,-28.84927 3.58541,-43.29071 11.9703,-8.31492 11.77077,-24.02423 15.75118,-36.62298 2.81289,-8.75129 3.01638,-18.23294 7.68291,-26.27534 4.85442,-11.67877 3.75178,-24.75374 6.31058,-36.80873 4.17002,-5.28396 8.34414,-10.43374 12.91223,-15.3826 7.94021,-10.9841 11.2273,-24.59251 16.10183,-36.94296 6.28727,-2.06286 12.04491,-5.14013 18.59187,-6.35783 7.40365,-2.20839 13.84046,-6.40703 21.26049,-8.50551 12.90497,-6.0466 28.95004,-12.56647 32.55876,-27.97746 4.07162,-14.73257 -6.80668,-30.98449 -21.8974,-33.06165 -9.86005,-1.15017 -19.80963,-1.2113 -29.69883,-2.01662 3.02609,-10.5303 6.85116,-21.03649 9.09198,-31.64663 11.5631,-21.19169 21.45003,-43.93644 38.32719,-61.61903 6.27471,-5.41598 14.82996,-10.26426 23.37868,-8.96256 15.30825,6.69126 30.60797,14.08454 47.38312,16.28038 29.20137,5.67871 61.35991,1.01998 85.30075,-17.45332 15.74639,-12.556402 22.72091,-33.040208 24.95462,-52.422212 1.80444,-16.01268 -10.79494,-32.515768 -27.35781,-32.791281 -12.36182,-0.791752 -23.59501,7.991903 -27.89519,19.259797 -4.03601,4.871875 -9.7277,9.134016 -16.45896,7.725724 -21.83034,0.353163 -41.13654,-11.052202 -58.97406,-22.319079 -14.6715,-9.953806 -32.31186,-14.953615 -50.0117,-14.369916 -17.42612,-0.34576 -35.08955,3.232103 -49.97639,12.620648 -13.88202,8.649996 -25.61258,20.333966 -37.27219,31.695779 -3.55206,4.522195 -5.90409,9.681357 -10.39434,13.456125 -9.67189,11.463139 -17.28996,24.486531 -24.31898,37.686655 -2.8106,-1.91708 -7.57619,-2.02315 -5.79416,-6.66899 0.28824,-11.23848 -0.0316,-23.471925 1.41362,-35.073834 6.72651,-9.682093 6.71888,-22.578587 1.60379,-32.93589 -1.94324,-10.80873 -5.75578,-23.303979 -16.11,-29.5464695 C 370.48107,3.2042753 361.1296,1.4027118 352.09929,1.5859608 Z M 435.61443,212.51 c 2.54681,-1.17847 3.41104,-1.32339 0,0 z m 39.71965,56.88629 c -1.05273,4.85365 0.4607,-2.92604 0,0 z m -44.51465,10.7744 c -3.59049,3.35733 3.14543,-3.36416 0,0 z m -0.0509,48.90009 c -0.68752,2.08172 -0.0795,0.0914 0.12287,-0.63563 z"
     id="path359" />
  <path
     style="fill:#ffffff;stroke-width:0.999995"
     d="m 394.99898,222.94388 c -14.35777,2.03768 -27.01672,11.42477 -33.89079,24.08952 -7.99621,13.27375 -13.99608,28.89609 -11.05982,44.60626 1.1754,4.81807 1.95988,9.66428 2.49481,14.59349 2.57191,16.57941 14.22048,31.03218 29.54105,37.67996 15.43104,7.96072 35.23931,6.27851 48.85983,-4.58923 5.47824,-4.248 9.2937,-10.07513 14.1474,-14.94666 4.60192,-5.18897 7.59248,-11.54094 10.266,-17.82021 9.48099,-12.91509 14.53406,-30.04683 9.55879,-45.72133 -4.17047,-15.11279 -16.84998,-26.46735 -31.17469,-31.9744 -11.57276,-4.82021 -24.36092,-6.78424 -36.83863,-6.07815 -0.63466,0.0536 -1.26931,0.10715 -1.90395,0.16075 z"
     id="path923" />
  <path
     d="m 335.39903,197.30135 c 0.24114,0 0.60287,-0.60286 0.60287,-0.84401 l -0.60287,-46.42038 c 0,-0.844 0,-1.68803 -0.24113,-2.1703 -0.36173,-0.48229 -0.84402,-0.60287 -1.44689,-0.84399 -2.04972,-0.60288 -6.39033,-2.53204 -8.31948,-3.13489 -0.48229,-0.12057 -1.68802,-1.8086 -1.92917,-2.53204 l -0.96458,-4.34061 c -0.12057,-0.72341 0.84402,-2.41143 1.44687,-2.532 2.29087,-0.60287 12.90125,-2.77317 13.98642,-3.37605 1.56743,-0.96456 5.78746,-4.94345 4.82288,-23.51161 -0.48227,-9.886942 0.12056,-20.497302 -0.60286,-30.263673 -0.48228,-5.666907 -1.92917,-11.092666 -2.65259,-15.915562 -0.36173,-1.92916 -3.4966,-4.46118 -3.73774,-6.028622 -0.72345,-4.581752 1.20571,-4.220036 2.29086,-8.078352 0.84402,-2.652594 0.36173,-9.163505 2.1703,-13.865829 3.25546,-8.56064 23.51163,-7.716634 26.04365,-0.241144 1.68802,4.822896 2.29087,11.333807 3.25546,13.986401 2.1703,5.305186 3.13488,3.858318 2.41144,8.078351 -0.24114,1.326297 -3.01431,2.893739 -3.37603,4.46118 -1.32629,4.702324 -2.77316,10.730946 -3.13488,17.241853 -0.48229,10.128095 0.48229,21.220756 -0.48229,30.745967 -1.68802,17.60357 5.18462,23.87334 5.90806,23.99392 l 12.78066,2.77317 c 0.60287,0.12057 1.68803,1.68801 1.68803,2.41143 0,1.08517 -0.84401,3.13489 -0.84401,4.22006 0,0.60286 -1.08516,2.41143 -1.56744,2.65259 -1.68802,0.72342 -4.8229,3.01428 -6.51092,3.85831 -0.60285,0.24114 -1.20572,0.60287 -1.56745,1.08515 -0.24113,0.60286 -0.24113,0.60286 -0.24113,2.04973 0.12057,6.63149 0,25.80251 -0.24114,44.73236 0,0.24115 0.48227,0.72344 0.72343,0.72344 a 83.556688,83.556688 0 0 1 13.62469,3.85832 c 0.60285,0.12057 2.17029,-0.48228 2.29086,-0.96458 1.80859,-6.1492 3.9789,-12.90125 6.26976,-19.77387 0.72345,-2.1703 2.41145,-4.34061 3.25547,-6.63149 0.60287,-1.92916 0.48229,-3.85833 1.20573,-5.78748 5.42575,-14.83041 11.33381,-29.05795 16.03612,-38.22145 7.23435,-14.34812 15.3127,-27.00822 23.75276,-38.10089 1.56745,-2.049731 6.02864,-3.978894 7.59608,-5.908051 1.32628,-1.688015 -0.24116,-3.376032 1.20572,-4.943469 6.02863,-7.113773 12.41896,-11.816095 18.68872,-17.603572 13.98641,-12.901249 32.7957,-24.235055 68.24399,-17.241856 19.41216,3.858318 45.09409,37.498025 97.66366,34.966003 15.91557,-0.723438 31.95169,-16.88014 33.39857,-23.391049 1.32629,-6.510911 5.90804,-3.255458 5.78748,0 -0.24116,5.305185 -4.94347,24.596776 -11.45439,31.589971 -6.63148,7.113768 -32.31342,25.923073 -79.93951,13.504123 -23.99391,-6.269767 -30.1431,-18.568166 -51.84614,-14.106971 -26.2848,5.425749 -40.51234,24.114481 -56.9102,52.690141 -6.39033,11.21324 -11.45436,20.49731 -15.55383,30.86654 -0.36172,0.84402 -2.1703,3.0143 -5.54634,3.85831 -3.37601,0.84401 -8.44006,0.24115 -8.80177,1.08514 -0.4823,1.20575 3.61717,1.80861 6.75205,3.01433 2.04972,0.84402 3.73774,2.17029 3.4966,3.01431 -6.26977,17.84471 -10.00751,33.278 -13.62468,44.1295 -0.60287,1.68801 -0.60287,3.01432 -0.84402,4.3406 -0.12056,0.60287 0.36172,2.65261 0.72344,3.13489 0.24115,0.36172 0.60287,0.72343 1.08515,0.84402 1.08516,0.48227 2.29089,1.80859 3.37604,2.04971 1.08514,0.36173 2.29085,-1.32628 3.49659,-0.96457 6.75206,2.17032 14.22755,6.14919 19.41216,6.02863 6.26978,-0.24115 25.07908,2.04972 29.41968,0.844 2.04972,-0.60286 -0.24116,3.61718 -3.37603,5.42575 -3.01432,1.80861 -5.30518,2.53204 -7.95778,3.85832 -2.53203,1.3263 -5.18463,2.89374 -7.71664,3.85834 -2.29088,0.84399 -2.04973,0.84399 -3.9789,0.84399 -1.56744,-0.12058 -3.13488,-2.89374 -4.09946,-2.41145 -0.96457,0.36172 -0.12057,3.85832 -1.44685,5.06405 -1.32631,1.20572 -13.26298,5.06403 -15.07156,5.06403 -1.44688,-0.12057 -2.17032,-2.41144 -3.01432,-2.04973 -0.96458,0.48228 0,2.77317 -1.56743,3.73775 -2.89375,1.68801 -3.4966,2.17029 -10.97209,3.73774 -3.37605,0.72343 -6.1492,1.08514 -8.44006,1.20573 -1.68803,6.51092 -3.49662,12.66011 -4.94348,17.60357 -1.20572,3.97888 -3.49662,8.44008 -4.82289,12.17782 -2.17032,5.90806 -3.61718,10.85151 -7.11378,15.67441 -1.20574,1.68802 -4.70233,3.13488 -5.90805,4.58175 -1.80861,2.41145 -2.77317,5.78748 -4.4612,7.59606 -1.80856,2.04975 -3.97886,2.77317 -5.06402,4.70234 -1.20573,2.1703 -1.20573,4.94347 -1.68802,6.99318 -1.3263,5.30519 -1.688,9.76638 -2.04973,15.19215 -0.24115,3.13487 -0.24115,8.92234 -1.08515,12.90124 -0.72344,3.37603 -2.17029,4.82289 -2.77317,7.71664 -0.12056,0.72342 -3.25546,0.96457 -3.61717,8.44005 -0.36173,6.02863 -5.54632,24.59679 -5.90805,24.9585 -0.36172,0.36171 -1.80859,5.90805 -2.29087,9.6458 -0.36172,3.13488 -1.08516,6.02862 -1.3263,6.39032 -0.72344,1.20574 -1.44687,-1.32627 -2.04973,-4.22003 -0.60287,-2.65259 -0.96458,-5.78746 -1.32631,-6.26977 -0.24113,-0.60285 0.24116,8.92236 -0.24113,11.33382 -0.48228,1.688 -1.92916,-7.71664 -2.29088,-3.37602 0,0.60286 -0.24115,-11.8161 -0.844,-13.26299 -0.36172,-0.72341 2.17029,-7.83719 2.6526,-15.31268 0.48228,-6.63149 -1.20574,-13.86583 -1.56746,-13.74526 l -1.688,2.6526 -5.6669,95.37279 -5.66692,26.88764 -5.6669,-27.00822 c 0,0 -2.89373,-48.34955 -6.26976,-91.75562 -0.84401,-2.41143 -1.44688,-4.46116 -1.56745,-4.22004 -1.92916,3.37605 -0.72343,7.95779 -1.32629,9.52523 -0.48228,1.08516 3.37603,21.4619 2.89374,21.22076 -0.36174,-0.24116 -0.84401,11.57494 -1.3263,10.48978 -0.36172,-0.96458 -1.08515,-1.56743 -1.44686,-2.89372 -0.36174,-1.92917 -0.24117,-8.68122 -0.72345,-8.92236 -0.60286,-0.36172 -0.48229,6.63147 -0.72344,9.16348 -0.24113,3.01434 -0.96458,5.78749 -1.56744,5.42578 -0.72342,-0.48229 -2.04973,-3.13488 -3.13487,-6.6315 -0.36172,-0.96457 -3.13489,-4.70231 -5.54633,-13.9864 -2.6526,-9.64579 -4.94347,-24.95849 -5.06404,-25.44077 -1.08515,-3.13489 -4.46119,-8.56064 -4.94349,-11.69551 -0.72342,-4.34062 -2.53201,-4.94348 -3.13487,-7.59608 -0.60286,-3.25546 0.84401,-13.26296 -1.3263,-18.32701 -0.96458,-2.29087 -3.13488,-4.46118 -4.3406,-6.39033 -1.56745,-2.65259 -3.25545,-4.82289 -5.06404,-6.02862 -2.17031,-1.32629 -3.97891,0 -6.39034,-2.17031 -1.08517,-1.08515 -2.6526,-5.18462 -3.85833,-6.26977 -1.56745,-1.80858 -5.06404,-2.77315 -6.75205,-4.82289 -1.688,-2.17031 -2.53202,-4.46118 -3.37602,-6.9932 -0.12059,-0.48229 0.844,-2.6526 2.1703,-4.22004 2.29088,-2.77317 5.54632,-5.30518 5.30518,-6.14919 -0.24113,-0.84401 -3.25545,0.36173 -5.90804,1.20572 -2.04974,0.72344 -3.9789,1.20573 -4.34062,0.4823 -2.89373,-7.11379 -7.59606,-15.3127 -8.80178,-24.23507 l -1.32629,-7.71662 c -3.73775,1.08515 -8.07837,0.84399 -12.05724,0.12056 -7.47551,-1.32628 -12.78069,-3.0143 -15.67442,-4.70232 -1.56744,-0.84401 -0.48229,-4.82289 -1.3263,-5.18462 -0.84399,-0.48228 -2.29088,2.41145 -3.73775,2.53203 -1.80858,0.12058 -5.30517,-0.84401 -6.75205,-1.92916 -1.32631,-1.20572 -0.48229,-4.70231 -1.44687,-5.18462 -0.84401,-0.36171 -2.41144,2.41146 -4.09947,2.41146 -1.80856,0.12056 -4.8229,-1.08516 -7.11376,-1.92915 -2.53203,-0.9646 -5.18462,-2.53204 -7.71663,-3.85834 -2.6526,-1.32628 -6.02863,-0.844 -7.95778,-3.85832 -1.92917,-3.0143 -5.42576,-4.8229 -3.37604,-5.42575 4.34062,-1.32631 23.14992,-2.41146 29.2991,-2.29088 6.26976,0.24114 15.91557,-0.24114 23.39105,-2.41143 1.68802,-0.4823 3.37602,-1.80861 5.18462,-2.77319 0.72344,-0.3617 1.44686,-0.24113 2.1703,-0.72342 2.29088,-1.32631 3.73775,-2.77317 5.54634,-4.09947 0.48229,-0.36171 1.2057,-2.53201 0.96458,-3.37603 -1.08516,-4.09945 -1.4469,-9.04293 -3.01433,-14.46869 -0.72341,-2.53201 -0.72341,-5.1846 -1.44686,-7.95777 -0.72344,-2.1703 -2.29088,-4.46119 -3.0143,-6.87263 a 259.11014,259.11014 0 0 0 -24.71736,-59.08049 c -6.26976,-10.97209 -12.29838,-18.44758 -18.68871,-26.2848 -1.44689,-1.80858 -0.60288,-3.37601 -2.04973,-4.94346 -1.20573,-1.20571 -4.70235,-2.41144 -5.90805,-3.49659 l -4.46119,-3.978909 C 199.03162,93.85022 191.55612,89.871313 181.54862,87.821592 159.72501,83.239846 151.64665,95.538228 127.65275,101.80799 80.026648,114.22695 54.224151,95.417661 47.71324,88.424461 41.202328,81.310677 36.500006,62.019096 36.258859,56.71391 c -0.120571,-3.255456 4.461181,-6.510911 5.787477,0 1.326297,6.510911 17.362429,22.667616 33.39856,23.511619 23.873332,1.085148 42.562064,-5.184611 57.754184,-12.780674 1.56744,-0.844006 4.94347,0.120573 6.39032,-0.723435 2.17032,-1.205723 2.41147,-3.978889 4.4612,-5.184612 12.78067,-7.475492 22.66761,-14.709836 31.10769,-16.277277 18.44758,-3.737746 31.46938,-2.41145 42.56206,1.567441 10.24865,3.617172 18.68872,9.404648 25.3202,15.553841 a 215.58349,215.58349 0 0 1 50.761,66.314837 531.48323,531.48323 0 0 1 25.80249,67.52055 c 0.36172,0.96458 2.17032,2.41146 2.89374,2.29088 a 39.427183,39.427183 0 0 1 12.90125,-1.20573 z m 87.05329,74.87547 c 0.24115,-0.96458 0.72344,-6.26976 -1.44687,-8.92235 a 7.2343452,7.2343452 0 0 0 -6.87262,-2.17029 c -1.20573,0.24113 -2.41145,1.32627 -3.49662,1.80857 -1.68801,0.72343 -3.85831,-0.84401 -5.54634,0.48229 -3.01428,2.17031 -4.94344,5.78748 -6.99319,9.52522 -2.04973,3.85832 -4.22003,7.83721 -3.8583,11.09266 l 1.56745,5.42576 c 0.60284,3.9789 0.84399,5.78748 1.08515,10.00751 0.36169,4.58175 -0.84403,8.68123 1.80857,10.4898 1.80859,1.08515 2.89374,3.13489 3.49661,2.41146 1.44686,-1.80861 0.84401,-9.28409 2.41145,-11.33381 0.72343,-1.08516 2.65259,-2.29088 3.73773,-3.25545 2.29087,-2.04973 4.09948,-3.73775 4.22003,-6.26976 0.12058,-2.65261 -5.78747,-5.7875 -0.24114,-8.07836 1.92915,-0.84402 4.22003,-0.60286 5.66691,-1.92916 2.77317,-2.65259 3.97889,-7.23435 4.46118,-9.28409 z m -133.47366,-0.844 c -0.12058,-0.3617 -1.32631,-1.68802 -1.20574,-3.61717 0.12057,-1.68802 1.68802,-4.09947 2.77317,-5.3052 2.04974,-2.53202 6.63149,-2.17029 10.24865,-0.48228 1.68803,0.84401 3.73775,-0.84399 5.42577,0.48228 6.14919,4.46119 11.45437,12.6601 10.85151,19.2916 -0.48228,4.58175 -2.41143,12.05723 -2.77316,17.24186 -0.36172,4.70233 1.44687,8.44006 -1.20573,10.24865 -5.66691,3.85832 -4.58175,-5.54632 -6.75206,-8.68121 -2.29086,-3.13487 -7.35491,-5.66691 -7.59604,-9.52524 -0.12059,-2.77314 5.78746,-5.66689 0.24113,-7.95777 -3.01431,-1.32629 -4.70233,-4.94347 -6.5109,-7.3549 -1.44688,-1.92916 -3.13489,-2.77318 -3.4966,-4.34062"
     style="fill:#000000;fill-opacity:1;fill-rule:evenodd;stroke:none;stroke-width:0.13333"
     id="path132" />
</svg>
