<svg xmlns="http://www.w3.org/2000/svg" width="501.5" height="608.6"><path d="M249.373 107.102c-39.696.812-79.864 16.705-106.411 46.818-26.273 27.948-41.35 66.247-39.752 104.706-.547 35.69 14.505 70.655 38.002 97.11 23.531 25.2 55.484 42.451 89.777 46.996 18.946 2.908 38.559 1.341 57.155-3.056 31.568-8.497 60.709-26.702 80.474-52.964 22.448-27.602 33.296-63.733 30.984-99.14-1.704-48.413-30.247-94.58-71.66-119.275-23.827-14.067-50.769-22.06-78.57-21.195m4.376 80.888c30.369-.543 58.034 24.325 63.485 53.675 1.045 14.808 1.881 30.74-6.135 43.952-11.764 23.634-38.29 39.221-64.782 36.537-12.323-.216-24.774-4.443-34.211-12.405-6.846-2.783-8.153-11.58-14.983-14.731-5.857-6.095-8.961-14.918-11.391-23.039-2.58-11.097-2.744-22.877.226-33.915 6.101-4.841 9.39-12.792 9.383-20.463 12.92-18.732 35.444-30.99 58.408-29.611M200.77 305.729c2.032.388-3.523-.472 0 0" style="fill:#fff;stroke-width:.999996"/><path d="M245.459 6.446c-11.615 2.71-18.987 13.446-20.988 24.71-2.92 9.713-4.931 20.214-8.148 29.51-4.522.609-9.323 2.299-13.6 2.614-9.231-10.714-17.264-22.63-27.473-32.405-12.393-10.888-34.303-5.507-39.772 10.15-5.05 12.028.793 25.004 1.843 37.317.447 4.703 2.233 10.024 1.64 14.319a262 262 0 0 0-10.298 7.586c-13.1-5.954-25.536-13.72-39.234-18.288-15.275-4.259-31.764 8.454-31.825 24.236.146 13.923 10.973 24.2 17.351 35.716 1.91 3.924 6.273 7.822 6.725 11.8-3.197 3.378-3.506 11.614-9.433 9.937-13.647-.03-27.55-2.676-41.062-.184-15.13 3.713-23.944 22.327-16.685 36.248 6.117 12.566 20.31 17.757 30.945 25.702 3.25 3.246 10.846 3.99 8.805 9.723-.962 2.618.719 7.194-1.358 8.877-13.561 4.915-27.445 9.328-40.316 15.875-12.386 7.76-15.585 25.947-6.482 37.376 9.146 11.823 25.348 11.167 38.644 13.973 5.76 1.046 11.933 1.62 17.417 3.015.106 3.906 5.54 9.213 1.926 11.97-10.852 9.918-21.917 19.922-30.97 31.52-9.074 13.536-1.478 34.459 14.598 38.188 12.158 3.583 24.27-2.93 36.14-5.13 6.172-1.634 12.338-3.292 18.506-4.941 2.474 3.48 8.531 6.18 5.053 10.823-4.853 13.757-11.21 27.08-14.674 41.27-2.444 15.416 11.501 30.749 27.127 29.027 13.65-.867 22.563-12.845 33.141-20.104 4.897-3.918 9.773-7.862 14.659-11.794 3.76 2.232 10.272 2.414 8.574 8.38 1.44 14.503.485 29.265 2.89 43.626 2.526 9.145 10.272 16.269 19.4 18.56.231 14.372-.771 30.466 9.503 42.005 2.101 3.731 7.01 6.005 8.341 9.725-.59 13.488-1.013 29.091 9.85 39.031 10.47 10.106 26.91 10.02 40.079 6.389 14.395-4.696 21.09-20.588 19.996-34.799.642-4.913-2.118-11.254 3.235-14.035 11.071-9.866 15.26-25.017 14.45-39.453-.316-5.438-.936-11.047 6.267-11.03 10.773-5.446 15.161-17.733 14.646-29.219.837-11.719 1.006-23.834 2.133-35.321 4.024-1.056 8.347-5.694 11.554-1.11 11.928 8.943 22.622 19.935 36.055 26.635 14.362 6.157 32.903-3.536 34.956-19.25 2.507-12.806-6.016-24.194-9.604-36.006-2.025-5.412-4.166-11.057-5.67-16.488 3.129-2.239 4.992-8.48 9.472-5.966 13.86 3.23 27.46 8.227 41.557 10.07 16.057 1.796 30.242-14.454 26.909-30.136-2.965-13.612-15.49-21.775-24.153-31.728-3.588-3.617-7.2-7.212-10.797-10.819 2.409-3.659 1.109-11.477 7.143-10.741 14.383-2.903 29.506-3.284 43.27-8.605 13.996-6.704 18.77-26.6 8.816-38.635-8.3-10.346-22.47-12.246-33.93-17.678-4.318-2.224-10.612-2.929-13.543-6.196.258-4.508-3.485-10.845 2.198-12.77 11.357-8.464 25.658-13.866 34.117-25.667 9.89-14.09 1.71-35.842-14.962-40.048-14.262-3.368-29.285.502-43.518.05-1.438-3.876-5.616-7.649-5.818-11.28 7.629-12.652 17.023-24.422 22.822-38.064 4.856-14.83-6.405-32-21.991-33.109-13.442-1.046-24.523 8.21-36.276 13.258-3.804 1.76-7.683 4.293-11.471 5.596-3.287-2.907-7.737-5.266-10.52-8.264 1.722-14.572 5.94-28.982 5.637-43.704-1.977-15.168-19.004-26.078-33.487-20.583-12.598 4.26-19.321 17.01-27.942 26.28-3.249 2.558-5.146 9.105-9.181 9.351-4.14-.986-8.295-1.915-12.473-2.728-4.207-13.738-6.446-28.257-12.481-41.334-5.418-10.058-17.156-15.097-28.255-12.826m6.648 126.276c25.983-1.535 51.299 8.623 72.406 23.125 22.886 17.129 39.949 41.892 46.708 69.76 4.274 17.277 4.768 35.642 1.671 53.15-6.966 37.392-32.083 70.727-66.402 87.267-39.802 20.641-90.577 16.391-126.8-9.855-7.904-5.533-14.954-12.416-21.921-18.873-10.544-14.047-20.071-29.163-24.774-46.272-6.557-20.2-5.583-41.921-2.332-62.622 6.805-28.91 23.96-55.425 47.982-73.003 4.397-4.546 10.629-6.642 15.954-9.972 17.51-7.919 36.337-13.931 55.8-12.702zM307.34 445.51c-.266.028.118-.018 0 0" style="fill:#fff;stroke-width:.999996"/><path d="M241.86 430.475c0-.602-1.445-2.168-2.167-2.168l-6.143-.482c-.481-.12-1.927.362-2.408 1.325l-4.095 8.07-3.252 6.985-3.854 6.985-14.934 29.387c-.964 1.687-1.566.603-1.566-.361l-3.011-57.57c-.12-1.084-1.084-1.927-1.566-2.047-11.442-3.734-22.401-8.551-32.76-14.453-.36-.24-2.047-.602-2.649-.12l-44.803 36.252c-.843.723-1.566-.12-1.204-1.325l20.354-53.113c.361-.843-.12-1.927-.482-2.168-9.153-8.07-17.343-16.862-24.57-26.617-.36-.482-1.926-1.566-2.89-1.325l-54.92 14.694c-.963.24-1.445-.482-.843-1.205l28.664-28.544c.723-.843 2.89.964 3.734.12.602-.602-.12-3.853.602-4.456l7.226-7.346c.603-.603.241-2.289 0-2.77a167 167 0 0 1-11.682-34.325c-.12-.603-1.084-2.289-2.168-2.53l-54.92-8.671c-.963-.12-.963-1.205 0-1.686l30.23-11.562c2.65-.964 5.3-1.446 7.708-2.41 1.445-.481 2.77-1.565 3.975-2.047l9.514-3.613c.964-.361 1.446-1.686 1.446-2.288a169 169 0 0 1 1.084-23.365c.24-1.807-.12-3.734.24-5.66.241-1.687 1.084-3.253 1.325-4.818l.843-4.457c.12-.481-.24-1.806-1.204-2.529l-45.887-29.748c-.723-.482-.482-1.325.361-1.325l54.8 2.53c.963 0 1.806-.964 2.047-1.566a177.8 177.8 0 0 1 19.27-33.964c.241-.361.602-1.566.12-2.409L82.04 106.616c-1.084-1.566-.12-1.687.722-1.205l30.833 15.657c1.324.723 2.529 1.084 3.854 1.686l3.733 2.168 6.263 2.89 3.131 1.928c.964.482 2.41-.12 2.891-.602a171 171 0 0 1 31.916-23.606c.482-.241 1.325-1.446 1.205-2.53l-1.084-6.503c-.12-1.205-.964-2.409-1.084-3.734-.241-1.325.12-2.77-.12-4.336l-.723-4.215c-.241-1.686 0-3.372-.241-5.058-.241-1.687-1.084-3.373-1.325-5.059l-3.734-23.606c-.12-.843.603-1.204 1.205-.602l33.12 41.07c.843.963 2.289 1.084 2.77.963 12.646-4.336 25.895-7.226 39.745-8.551.482 0 1.686-.964 2.168-2.288l13.49-50.705c.24-.723 1.083-.602 1.324.24l13.61 50.826c.36 1.204 1.565 1.927 2.167 1.927 13.73 1.325 26.979 4.215 39.625 8.551.481.12 1.806.12 2.529-.723L343.27 50.25c1.084-1.445 1.445-.24 1.325.723l-8.31 51.909c-.12 1.204.722 2.288 1.084 2.65 11.682 6.624 22.401 14.573 32.157 23.726.481.361 1.806.964 2.77.482l47.693-24.329c.843-.361 1.446.362.843 1.205l-29.146 44.923c-.602.964-.361 2.289 0 2.77 1.446 2.048 3.011 4.216 4.336 6.384.723.963-.602 2.408 0 3.372.723 1.084 3.372 1.806 3.975 2.89a177 177 0 0 1 10.839 21.318c.24.602 1.325 1.807 2.409 1.807l53.956-2.891c1.927-.12 1.325.964.482 1.566l-45.767 29.748c-.843.482-1.084 1.927-.963 2.409a173.6 173.6 0 0 1 3.493 37.938c0 .602.602 2.168 1.686 2.53l50.825 19.63c1.084.362 1.204 1.566.12 1.687l-54.92 8.671c-.963.241-1.686 1.325-1.806 1.927-2.77 12.285-6.745 24.209-12.044 35.41-.241.481-.241 1.806.361 2.529l39.624 39.624c.844.722.482 1.806-.36 1.566L392.89 357.73c-.964-.24-2.048.361-2.289.723-7.346 9.876-15.657 19.029-24.93 27.098-.362.362-.964 1.566-.482 2.65l2.89 7.588c.362.843 1.205 1.806 1.566 2.77.723 1.686.843 3.372 1.566 5.299l2.047 5.54c.362.964.12 1.807.482 2.77.361.964 1.325 1.927 1.686 2.89l10.117 26.377c.723 1.806-.12 1.806-.843 1.325l-45.044-36.493c-.843-.723-2.048-.602-2.409-.362l-5.54 3.011c-1.325.723-2.53 1.927-3.734 2.53s-2.408.602-3.492 1.084a126 126 0 0 1-9.274 3.974c-.964.361-1.927-.12-2.89.24-.844.362-1.807 1.567-2.65 1.928l-6.022 1.927c-.362.12-1.084.963-1.205 2.047l-.722 14.453-.12 7.829-.603 5.54-1.566 29.748c-.12 1.927-1.084 1.325-1.445.361l-26.496-51.909c-.362-.722-1.446-.963-1.807-.963l-6.985.602c-.603 0-1.687 1.445-1.687 2.168 0 .482-.481 1.204-.481 2.168 0 .482.481.963.481 1.566v1.927c0 .481.362 1.083.362 1.686 0 .602-.362 1.204-.362 1.686v6.022c10.358 1.927 18.187 11.08 18.187 21.92v52.27c0 10.84-7.829 19.872-18.187 21.8v4.335c0 1.084-.481 2.168-.481 3.252 0 .723.481 1.566.481 2.53v3.733c0 .722.362 1.325.362 2.047 0 .843-.362 1.927-.362 3.011v14.332a4.83 4.83 0 0 1-4.817 4.818h-9.515a4.83 4.83 0 0 1-4.817-4.818v-15.295l.24-1.325-.24-1.445v-2.168l-.362-3.613.362-6.625v-2.77c-10.358-1.927-18.187-10.96-18.187-21.8 0 0-.24-4.094-.24-9.995l.24-3.614.241-3.492-.24-3.373V467.45c0-7.708 3.974-14.574 9.875-18.548.603-.361 1.084-.12 1.687-.361l1.084-1.205c1.686-.722 3.613-1.445 5.54-1.806v-14.935zm0 33.361q-1.445 1.446-1.445 3.614v15.777s-.602 1.325-.602 1.927c0 .482.602 1.566.602 1.566v33q0 2.168 1.446 3.613v-2.168l-.362-3.01c0-.603.362-1.085.362-1.567l.24-1.324-.24-1.084v-1.084c0-1.927.963-3.493 2.529-4.336.361-.12.843.24 1.325.12.24 0 .602-.36.963-.36l.964-.242h1.084c.361 0 .722-.361.963-.361.482 0 .843.361 1.325.361h5.179c2.65 0 4.817 2.048 4.817 4.818v1.565l-.24 1.566.24.843v6.263q1.446-1.445 1.446-3.613v-12.526l.24-1.325-.24-1.445v-2.288c0-.361.843-.723.843-1.084s-.843-.723-.843-1.084v-1.204l-.241-.843.24-1.205V467.45q0-2.168-1.445-3.614v9.274a4.83 4.83 0 0 1-4.817 4.818s-.241.24-.843.24l-1.325-.24c-.361 0-.723-.602-1.204-.602-.482 0-1.084.602-1.687.602h-4.456a4.83 4.83 0 0 1-4.817-4.818zm9.636-357.1c33.963 0 65.398 11.442 90.45 30.712 1.444.963 2.77 1.204 4.094 2.288 1.084.843 2.048 2.65 3.131 3.493l2.168 2.047c.964.843 1.927 2.89 2.77 3.734 1.084.963 2.168.843 3.132 1.807a150.07 150.07 0 0 1 43.117 104.781c0 13.248-1.686 26.135-4.938 38.3-.361 1.565-.241 3.01-.723 4.576-.24.843-1.084 1.686-1.325 2.53l-2.167 5.54c-.603 1.445-.844 2.89-1.446 4.456a149.103 149.103 0 0 1-243.888 49.62c-.843-.843-1.325-2.288-2.529-2.529-1.686-.481-3.854-.12-4.938-1.324-.964-1.084-.12-4.336-1.084-5.42a148.74 148.74 0 0 1 26.858-216.428c1.445-.964 1.927-4.336 3.372-5.3 1.566-1.084 4.215.241 5.781-.843l3.734-2.168c1.084-.602 2.168-2.047 3.252-2.65.963-.601 2.047-.24 3.131-.842 20.354-10.478 43.478-16.38 68.048-16.38m0 55.643c11.682 0 23.004 1.927 33.361 5.901 2.53.964 4.938 2.409 7.467 3.493a93.1 93.1 0 0 1 24.209 17.463c1.806 1.807 3.492 3.252 5.058 5.18a93.099 93.099 0 0 1-120.439 139.226c-.843-.602-.24-2.047-1.083-2.65-.844-.602-3.132-.24-3.975-.842-3.372-2.53-6.624-5.3-9.515-8.19-1.204-1.084-1.686-4.577-2.77-5.781-1.204-1.205-2.89-.12-3.974-1.446-2.168-2.65-4.697-5.299-6.624-8.19s-3.132-6.021-4.818-9.153a92.62 92.62 0 0 1-3.01-77.2c.36-1.085 4.094-.483 4.576-1.567.602-1.204-2.048-4.094-1.445-5.299a92.98 92.98 0 0 1 82.861-50.945" style="fill:#000;fill-opacity:1;fill-rule:evenodd;stroke:none;stroke-width:.13333"/></svg>