<?xml version="1.0" encoding="UTF-8" standalone="no"?>
<svg
   width="641.8"
   height="973.5"
   version="1.1"
   id="svg10"
   sodipodi:docname="pathcaine.svg"
   inkscape:version="1.2.2 (b0a8486541, 2022-12-01)"
   xmlns:inkscape="http://www.inkscape.org/namespaces/inkscape"
   xmlns:sodipodi="http://sodipodi.sourceforge.net/DTD/sodipodi-0.dtd"
   xmlns="http://www.w3.org/2000/svg"
   xmlns:svg="http://www.w3.org/2000/svg">
  <defs
     id="defs14" />
  <sodipodi:namedview
     id="namedview12"
     pagecolor="#ffffff"
     bordercolor="#666666"
     borderopacity="1.0"
     inkscape:showpageshadow="2"
     inkscape:pageopacity="0.0"
     inkscape:pagecheckerboard="0"
     inkscape:deskcolor="#d1d1d1"
     showgrid="false"
     inkscape:zoom="0.6856793"
     inkscape:cx="449.18958"
     inkscape:cy="865.565"
     inkscape:window-width="2560"
     inkscape:window-height="1417"
     inkscape:window-x="0"
     inkscape:window-y="23"
     inkscape:window-maximized="1"
     inkscape:current-layer="svg10" />
  <path
     style="fill:#ffffff;stroke-width:0.999994"
     d="m 495.79305,390.50105 c -29.84154,0.26543 -58.47692,29.29437 -50.97431,59.86368 2.88477,18.64971 14.72901,38.31273 34.8756,40.9592 18.37106,3.73904 35.44389,-7.45809 50.41941,-16.63068 28.31675,-20.57662 22.40562,-73.02112 -13.68027,-81.25514 -6.72995,-1.68465 -13.67291,-3.05405 -20.64043,-2.93706 z"
     id="path388" />
  <path
     style="fill:#ffffff;stroke-width:0.999994"
     d="m 270.78078,466.01327 c -18.40913,5.01171 -29.09315,23.072 -30.14402,41.3367 -3.8274,14.86765 -5.80903,32.05523 4.77794,44.76757 12.03204,16.20416 34.39216,20.95365 53.5474,19.69994 32.60793,-3.97989 49.63726,-44.06521 37.19127,-72.5726 -5.57814,-21.52477 -27.14045,-36.08021 -49.10943,-34.44947 -5.47716,-0.49046 -10.83582,0.67389 -16.26316,1.21786 z"
     id="path386" />
  <path
     style="fill:#ffffff;stroke-width:0.999994"
     d="m 155.60421,413.10139 c -24.27253,4.91981 -35.93804,29.3805 -51.42629,46.02927 -12.625211,14.66973 -11.587876,36.44213 -0.90004,51.88987 3.22468,5.67338 7.69727,11.51986 3.46447,17.98173 -2.56303,6.28021 -3.29069,14.01381 -6.5013,19.75421 -22.310613,9.8526 -30.577324,38.74336 -19.710736,59.93627 5.366501,17.15692 18.336719,33.87536 37.613556,34.78247 12.36899,1.6039 23.74362,-4.86462 33.3758,-11.85548 22.855,-3.07771 38.42987,-21.78211 49.91623,-40.15544 3.79132,-6.57223 8.7843,-11.99461 16.36246,-13.75355 13.15444,-6.37077 20.71537,-20.49691 22.48662,-34.33144 20.24984,-23.41998 11.04018,-66.16104 -19.66449,-75.47104 -5.45499,-2.56015 -14.10716,-1.06335 -14.97727,-9.04503 -3.70145,-14.20629 -6.62356,-30.60283 -20.42141,-38.83964 -8.39568,-6.30144 -19.35683,-8.25247 -29.6176,-6.9222 z"
     id="path382" />
  <path
     style="fill:#ffffff;stroke-width:0.999994"
     d="m 198.02137,1.5155707 c -22.4914,9.0209623 -38.77264,32.9013943 -34.73948,57.4626533 2.52943,18.08565 15.17694,35.761335 8.4706,54.475326 -7.35496,22.42067 -9.22329,46.88685 -2.04087,69.60459 -15.89941,9.36727 -29.48158,23.03756 -35.37696,40.86772 -3.18779,7.62385 -5.77758,15.55434 -7.75773,23.54116 -16.23245,2.74814 -30.231067,13.19566 -39.17857,26.57039 -20.572909,12.72385 -25.986313,40.69965 -16.240417,61.91851 8.341758,18.85268 14.92024,38.26396 25.741213,55.89363 12.801254,18.42094 29.362934,36.58197 52.574054,40.57171 5.07339,2.63536 15.7081,-0.80594 13.43457,7.76146 1.70586,22.86904 7.56633,50.74332 31.04022,60.70961 20.95551,8.52656 45.93522,-3.94175 53.0766,-25.11025 2.72759,-11.40685 3.83396,2.45995 6.22311,6.76195 10.25869,20.01467 37.17874,26.81389 56.26462,15.49304 3.96693,-0.40403 11.98545,-8.95134 12.42797,-6.4062 -4.56052,23.22557 -9.59401,47.7469 -0.96415,70.71932 8.11435,24.18522 30.41891,44.22905 56.77023,44.30113 15.56084,2.25626 29.4343,-7.31876 39.34054,-17.87312 8.71493,-0.17749 17.5063,2.70828 22.05871,10.65664 16.37973,16.27517 44.47337,13.74605 59.95582,-2.50991 21.16272,-18.55348 25.70692,-50.96326 15.44473,-76.39445 -3.91043,-13.45104 -10.1494,-26.61508 -19.68841,-36.74127 -6.94931,-19.61724 -10.97381,-40.12389 -18.32317,-59.61519 19.45477,6.14705 41.476,9.92819 61.15267,3.38495 19.82352,-7.25293 28.98984,-31.53799 21.82506,-50.84984 15.0318,14.43933 39.91167,14.50883 55.36679,0.6676 15.87221,-9.60001 28.70072,-26.76501 25.67059,-46.16424 -5.05983,-18.35832 -6.44042,-40.5466 -22.53704,-52.99848 -6.17855,-4.22282 -4.49521,-14.48335 -10.31074,-20.03843 -16.97183,-20.31256 -39.69047,-36.23137 -64.30717,-45.85286 -20.12947,-1.37482 -40.83034,-4.607 -60.84643,-0.61423 -8.62652,1.70083 -16.42243,7.16844 -24.39273,9.64039 -16.57637,-4.56037 -34.62702,-9.9351 -50.9416,-1.41516 -6.08975,2.41716 -12.16946,5.89706 -17.96501,1.15831 -5.69685,-2.5678 -12.82223,-2.19043 -14.83288,-9.32505 -9.73419,-14.19899 -25.84317,-22.8721 -38.1767,-33.74541 -3.82033,-11.88422 -10.97857,-22.50956 -12.35711,-35.24488 -6.98393,-24.93867 -4.13107,-52.300784 -15.69759,-75.9004 C 300.39409,49.769513 284.69448,38.977949 268.76566,30.283622 249.92985,17.080135 231.20183,-3.3622473 206.19212,-0.26963294 c -2.72359,0.5950689 -5.44717,1.1901367 -8.17075,1.78520364 z"
     id="path376" />
  <path
     style="fill:#ffffff;stroke-width:0.999994"
     d="m 550.04782,343.01382 c -18.78183,6.18489 -28.96328,26.15968 -27.47497,45.17275 1.06233,6.56256 -8.26775,10.86198 -9.4673,17.80667 -5.47899,10.78625 -2.54311,23.47903 -3.26371,34.46586 -5.596,10.11881 -19.44747,8.18012 -26.94009,16.59473 -22.85744,18.01339 -19.91091,55.94521 2.64971,72.9232 21.59221,18.09032 52.25995,9.70899 74.82635,-2.01453 26.03068,-13.82395 50.7096,-34.36691 60.00607,-63.3368 10.43323,-29.72273 16.25116,-63.83926 4.08552,-93.85279 -7.25083,-14.47788 -23.18377,-20.56524 -38.35875,-22.43496 -10.69683,-6.93869 -23.82956,-8.7618 -36.06283,-5.32413 z"
     id="path384" />
  <path
     style="fill:#ffffff;stroke-width:0.999994"
     d="m 72.894498,318.66017 c -22.026136,4.28461 -36.61785,23.70174 -49.771001,40.27857 -18.4824619,31.92924 -27.1636738,70.06952 -21.2099783,106.75625 2.6013391,27.07757 14.4048763,52.39942 31.9196633,73.02464 15.179172,18.38568 32.539552,36.23073 54.123063,46.74574 22.122235,8.26384 48.055685,-7.58553 51.549925,-30.77055 1.48857,-12.70017 10.3841,-23.80235 7.96955,-37.14855 -0.25899,-15.16341 -14.52596,-24.79378 -15.67886,-39.74713 -2.17255,-10.5891 -5.36039,-26.45593 6.54185,-32.43459 19.12035,-13.88786 20.15402,-44.08803 2.9877,-59.97941 -17.61909,-16.04681 -20.44805,-42.07846 -37.48662,-58.33535 -8.945344,-6.70951 -19.79391,-9.85888 -30.945292,-8.38962 z"
     id="path380" />
  <path
     style="fill:#ffffff;stroke-width:0.999994"
     d="m 241.34032,530.16808 c -8.47446,1.80381 -13.18808,13.48513 -20.22183,13.65964 -19.66448,-6.58826 -40.26088,5.32157 -49.51256,22.82381 -13.98719,22.66192 -33.5789,40.7138 -52.04781,59.5631 -18.19835,18.82545 -25.422326,45.21012 -29.943001,70.23834 3.8678,27.96652 9.710211,56.43133 24.482071,80.94244 9.72928,15.90549 12.5206,34.97135 22.15272,50.72024 8.71775,12.07582 23.72662,15.39447 37.16375,19.49296 11.19942,18.7554 23.08072,36.71906 33.73215,55.74235 9.40511,15.92385 18.05837,34.07138 36.30252,41.44168 20.63151,10.692 39.73833,25.67203 62.49475,31.49054 21.33099,1.69358 41.46364,-8.15586 61.95446,-12.65056 18.25225,-2.62033 30.81453,-16.33012 42.88656,-28.93855 13.15557,-10.96968 22.46456,-25.24029 28.82177,-41.03227 9.11591,-17.59251 16.66511,-36.57844 26.74696,-53.31277 16.23747,-10.22477 36.17376,-20.2736 39.62701,-41.24621 6.04606,-29.68179 31.60555,-52.6797 30.87909,-84.10333 0.99563,-10.49603 0.88707,-21.37595 -3.08224,-31.14352 -1.09288,-16.31039 -5.86529,-32.33625 -3.75787,-48.8441 -0.33535,-19.95365 -15.18237,-35.39244 -27.80547,-49.29928 -17.43693,-14.64725 -45.68454,-9.5074 -57.94273,9.3986 -10.69152,7.26349 -21.93913,15.17356 -27.84538,27.31206 -1.52754,2.41267 -7.32366,14.36025 -6.53302,9.03176 2.6653,-21.27724 -7.40335,-46.20677 -29.7382,-51.94478 -7.69124,-1.99133 -15.90271,-1.35788 -23.55337,-0.0653 -12.46203,-7.80387 -25.06621,-16.92615 -38.22655,-22.4412 -7.67014,-18.36331 -27.8867,-25.37281 -46.16449,-27.44539 -10.24163,-2.41623 -20.84278,-3.03797 -30.86929,0.60976 z m 186.71872,240.78923 c -4.71791,-0.63194 -7.30021,-1.06311 0,0 z"
     id="path378" />
  <path
     d="m 302.97463,520.1501 -4.92845,11.61199 -7.74469,7.53543 -6.45391,9.01784 -1.40812,10.12961 -20.06579,-0.86472 15.13736,-35.45366 6.33655,-40.64198 2.81626,14.94737 10.67828,9.26489 5.63251,14.45323 m -91.41081,36.44188 -16.31079,27.54763 -18.30563,26.68287 -21.00454,18.40625 -18.54033,24.08872 -10.32624,-11.11786 -0.82141,-13.71204 0.35202,-16.30622 9.38751,-10.5002 13.61188,-3.70594 5.51516,-6.42367 -20.41782,4.32362 -13.61187,10.12961 -9.73953,-23.84166 -1.05611,-26.4358 2.34688,-17.418 8.80078,-24.95344 8.68344,-26.18877 19.36174,-21.98868 10.67828,-13.95909 13.25985,-6.42365 18.42297,-10.87082 0.58671,11.2414 -5.28046,10.37669 1.76016,15.44148 8.21406,6.42367 2.69891,14.57675 9.27015,1.23532 4.22439,22.72987 -13.96392,16.30621 3.05094,13.58849 9.15282,10.74726 m 6.57125,-83.13694 c 6.10187,-9.51194 8.5661,-20.25923 11.85173,-24.70636 4.81109,-6.79425 8.91812,-4.81774 11.38234,-7.53544 l 14.90266,-4.20009 13.61187,7.90603 5.86719,18.77685 -2.34686,19.02391 -6.45392,39.28313 -11.73438,26.18876 -15.13734,39.40668 -5.98454,13.09437 -8.44876,4.57067 -8.44873,-10.87079 v -25.07698 l 6.68858,-21.24748 2.22954,-31.7477 -3.87235,-16.30618 -4.69376,-15.56504 0.58673,-10.99434 m 172.84739,102.2844 13.96392,-10.99433 h 23.11673 l 22.88203,4.81774 7.39267,9.63548 -9.97425,32.36535 -12.32108,22.4828 -15.2547,25.69463 c -7.50998,5.55895 -10.32624,10.00607 -24.17281,20.75336 l -35.78986,15.68854 -26.51969,3.45889 -12.20376,-3.21182 c -0.8214,-4.57067 -0.70407,-9.51196 1.64282,-14.94736 l 15.02,-10.74728 30.86142,-14.08263 12.79047,-23.34753 7.39266,-27.79466 1.17343,-29.77118 m -254.87071,-177.76236 -16.54548,-13.9591 -11.61703,-27.54762 -5.3978,-21.86514 -43.651896,38.78901 -9.504847,16.80032 -7.15797,21.49457 -3.872346,20.50629 0.704063,27.30052 6.101878,26.3123 7.744689,13.9591 12.907819,18.15919 14.90266,16.05914 20.53516,15.68854 1.99485,-12.60024 6.92328,-16.05915 -9.73953,-11.85906 -4.811105,-16.80031 -3.40295,-13.71205 -1.642824,-16.67681 1.52547,-12.35317 4.224378,-14.20617 7.392651,-12.35319 10.32625,-7.41191 22.06063,-17.66506 m 370.10232,88.20175 19.12705,-5.18833 13.49453,-13.46498 11.61702,-19.39451 -3.87235,-33.3536 -12.79046,-19.64157 -6.57124,-27.30055 12.0864,-21.61807 15.95875,-6.30011 17.83626,5.43539 14.90265,25.81815 5.51517,35.82426 -4.69375,33.60065 -11.73437,27.17702 -23.70346,21.12395 -25.81563,12.10613 -16.19344,1.23533 -6.80593,-6.79426 1.6428,-9.2649"
     style="fill:#000000;fill-opacity:1;fill-rule:evenodd;stroke:none;stroke-width:0.13333"
     id="path6" />
  <path
     d="m 472.06703,586.98082 -2.34687,11.73555 -4.92846,16.05913 21.9433,-20.62982 c 6.6886,-4.07653 27.92783,-14.20615 27.92783,-14.20615 0,0 15.25469,-19.02391 19.12703,-28.41234 l -16.07609,-35.08306 -22.7647,-3.953 -7.62735,-0.86474 10.56095,25.32403 c 1.0561,3.45891 0,15.44149 0,15.44149 0,0 -6.45393,20.25924 -8.80078,26.43581 l -17.01486,8.1531 m -37.55002,-200.24514 14.90269,27.79467 18.18827,-8.77076 7.15797,-10.62375 -11.26502,-23.34752 -10.67827,-10.12961 -15.84141,8.77075 -2.46423,16.30622 m -143.27674,177.63882 3.87232,12.10612 5.6325,5.18833 7.97937,-2.10003 11.49971,6.79427 20.06578,11.73552 12.08642,5.43541 16.78015,-4.69422 1.87751,-14.3297 -13.02516,-8.1531 -14.31595,-9.88257 -5.98453,-14.70029 -3.16829,-25.57109 16.89751,-35.82424 4.8111,-31.99475 -6.92328,-19.14745 -10.20892,-18.03564 -10.67828,-1.6059 -16.0761,7.4119 3.63766,21.00042 -4.10703,21.371 -16.78017,9.88255 -0.46937,11.24141 9.85688,2.3471 8.80077,4.81775 -0.23466,17.418 -9.97423,21.61806 -8.91815,10.74727 -2.93356,16.92387 m 191.50505,-64.97776 -19.47907,-29.15352 -5.86718,-25.2005 -6.45393,-22.48279 11.85173,-6.79427 7.74469,-2.59416 13.02515,-9.38842 6.6886,-1.85299 12.3211,2.96476 12.79048,2.10006 11.38234,1.23531 -9.73954,7.16485 -9.85687,5.806 -7.15796,1.11179 -6.10188,1.72944 -7.74469,4.57068 -5.74984,5.55893 -3.98969,7.90604 0.8214,2.59419 3.52029,-5.06482 4.2244,-5.55894 8.56609,-5.31187 11.73438,-3.70595 12.43845,1.48238 5.98452,7.16485 -0.11735,12.60024 -3.16826,12.3532 -1.05609,10.37667 -10.44362,3.82949 -5.51515,-9.26489 -8.68344,0.98825 -1.87749,6.30012 0.70405,18.9004 -10.79562,9.63547"
     style="fill:#000000;fill-opacity:1;fill-rule:evenodd;stroke:none;stroke-width:0.13333"
     id="path4" />
  <path
     d="m 382.29903,569.06871 16.42812,-17.66505 21.82595,-1.72946 23.58611,4.44717 17.36688,11.11787 5.16314,8.27662 11.73436,-9.2649 3.75501,-17.54152 -7.62734,-24.95343 c -0.93876,-9.01782 -11.14767,-12.72378 -18.1883,-16.67681 -4.34172,-2.47064 -11.49968,-4.20008 -17.1322,-6.05306 l -19.83109,-4.57068 c -14.43329,7.28838 -20.76984,9.63549 -22.7647,9.26491 1.52546,-6.05307 4.92844,-8.89432 9.27016,-10.37669 6.80593,-2.96477 13.3772,-6.1766 26.28501,-6.30012 11.14765,2.22356 20.18312,5.92952 26.75438,11.36492 l -7.2753,-22.97693 -7.51001,-28.78292 -7.04063,-18.15918 -7.51001,-21.12396 -9.03547,-22.85339 -5.28047,-15.19443 0.82141,-15.44147 3.16829,-10.25316 15.37204,-3.33536 14.66796,-1.48238 13.96392,-1.23532 7.27531,15.44148 0.58672,10.25315 5.8672,18.03566 11.265,7.16485 20.88719,4.20009 14.90265,0.24705 -3.87235,-14.70029 0.11736,-21.24747 9.73954,-20.01217 21.70858,-5.4354 16.0761,2.10004 19.47909,16.05915 15.8414,-11.36495 -8.21407,-29.5241 -13.25984,-6.42366 -7.51001,-12.35318 c -9.27015,-1.97652 -17.60157,-5.43542 -23.82079,-3.70597 -7.97937,0.49414 -28.74922,-0.98825 -32.50423,7.53544 -2.58156,5.92955 -7.86201,16.80034 -10.67828,15.44151 0.82141,-2.71772 3.52032,-12.72382 8.33141,-19.76511 2.81625,-4.32361 17.24954,-8.64724 19.47907,-9.75902 4.34172,-2.22358 9.62219,-2.7177 15.37203,-2.3471 7.15797,0.61764 20.41782,4.69419 28.04518,7.04132 -6.45392,-13.34147 -28.74924,-27.67116 -44.82534,-34.836 l -40.60095,-1.60591 -18.07095,8.27661 -8.80078,6.79426 -38.37141,-9.75901 -26.16767,9.88255 -16.78015,0.24707 -10.56095,-7.90606 -12.55578,-1.48238 -9.97424,-1.23531 -8.80077,-20.38275 -16.19345,-13.34143 -20.30047,-14.20618 -24.05548,-7.04131 -20.18314,5.4354 -23.35142,11.36492 17.13221,-18.28272 17.36688,-11.36492 13.72922,1.48239 14.19859,4.07654 -10.67828,-19.7651 -8.68344,-39.65373 -4.8111,-41.753769 -9.85688,-15.688555 -20.65251,-11.117868 -21.7086,-18.03565 -12.9078,-7.164845 -9.85688,6.67072 -0.93875,12.723784 8.09672,18.28271 2.69891,21.371013 0.23467,16.42975 -7.15796,23.59459 -2.22954,20.38275 5.63251,21.00041 2.34688,15.4415 -8.33141,13.71203 -15.84143,11.36494 -10.09154,6.30012 -10.91298,22.72986 -3.28563,19.14743 -5.28048,12.7238 -11.73437,4.81773 -12.55578,0.74119 -10.32626,5.18836 -3.98969,10.74726 -10.79563,5.55894 -3.98969,8.89428 9.62221,21.2475 9.85686,22.85339 4.22438,10.25316 18.65768,21.61807 20.4178,6.17659 15.72407,-3.58244 2.69892,-16.80033 3.75499,-12.10611 10.79563,-1.1118 4.92843,9.75901 0.82141,18.77687 -2.93358,20.62979 -1.87751,18.28272 1.87751,17.66508 6.21921,19.88863 c 1.64281,-5.55893 5.39782,-12.22966 7.04063,-17.17094 3.1683,-9.63547 6.10186,-14.20615 12.5558,-20.38277 l 14.55062,-6.17657 17.83624,-0.61768 16.78017,9.51196 11.38235,20.25923 -1.76016,11.73554 11.96907,-5.4354 2.34688,-17.91213 -2.58156,-22.97691 -3.52031,-10.0061 -21.47391,-10.99434 -18.18831,0.74118 -13.02515,3.8295 -18.42298,7.78251 9.62219,-9.88254 14.19861,-6.05307 19.36172,-3.33538 22.64735,9.63551 -8.09671,-27.79469 -8.80079,-17.66504 1.29076,-13.34145 9.38751,-3.08829 14.55063,4.94128 13.14251,19.64155 15.60673,41.75379 15.48937,-2.10005 11.03032,10.87081 12.20376,22.35926 1.76015,21.12395 -5.51516,29.40059 -4.22438,24.21224 -3.63765,21.61809 3.63765,19.51802 10.4436,13.34146 14.31595,2.96475"
     style="fill:#000000;fill-opacity:1;fill-rule:evenodd;stroke:none;stroke-width:0.13333"
     id="path8" />
  <path
     d="m 421.8439,680.12387 21.82594,-26.92994 10.09156,-19.14745 12.55578,-6.1766 11.85173,-12.35317 13.72923,18.90035 -1.29079,20.5063 4.57641,26.92995 0.46937,8.77077 -18.89236,19.64157 22.41267,-10.99435 -1.52544,26.18876 -21.47394,39.03608 -8.91813,29.52411 -32.26954,20.87689 -39.19282,80.91338 -28.98392,28.16526 -55.38628,15.31795 -57.73313,-32.983 -24.99423,-41.63024 17.83624,-22.48279 -22.88203,14.57676 -24.75953,-41.63026 -31.91752,-9.88255 -9.38751,-27.9182 -20.6525,-39.28313 -8.80078,-41.13612 10.09156,-33.84773 17.48422,-19.51804 26.75439,-25.44756 27.57579,-39.15961 1.64283,22.8534 9.9742,16.92386 19.00969,-7.53543 8.21409,-31.25356 7.04062,-14.20618 27.81047,5.18835 -0.11734,12.10612 5.98453,8.15311 17.83626,2.96475 24.05549,14.45324 12.08639,8.5237 9.15281,2.96476 10.56095,-3.21183 6.92329,-0.3706 2.46422,11.11787 -10.67828,15.68856 -31.80017,19.88863 -14.66798,12.8473 -5.16312,12.60026 1.64281,11.24139 7.97937,6.42367 14.78533,4.07656 19.71375,0.37058 -9.50486,5.55892 -7.86202,2.96478 -10.32625,1.23533 -6.57125,1.6059 -13.96391,-1.72945 -17.48424,-2.47061 -4.22437,-2.71771 -5.28047,-9.38843 -8.21406,-4.57067 -9.6222,1.72944 -11.85171,6.05306 3.40297,3.33535 6.10186,-2.7177 h 9.50485 l 6.80594,7.53546 -6.10187,5.18833 -21.12188,16.30621 1.8775,4.81774 7.62737,-7.28837 9.97419,-3.95305 15.13735,-5.18831 10.67829,-1.11179 11.03032,-0.12353 4.81109,2.3471 -13.72922,10.12961 -9.3875,7.78251 -7.62734,5.18834 -8.33143,3.45889 -18.42296,-0.24707 -18.77501,6.17659 -18.30563,17.54154 v 4.32361 l 6.10187,-4.07655 10.09156,-9.14135 11.96908,-7.2884 12.0864,-1.72942 9.3875,-1.23533 h 4.22438 l -10.91294,8.52369 -5.63252,7.53546 10.20891,-5.06482 6.57125,-5.55893 5.74985,-2.59417 1.76015,4.20009 -5.28047,6.91777 -6.80594,7.04132 -10.09157,4.81773 -12.08641,6.5472 -5.8672,11.11787 3.40298,3.95302 2.22953,-6.1766 6.21923,-7.28836 8.44874,-3.33537 17.95361,-5.55893 9.62218,-16.30621 6.57126,-10.62376 9.73955,-11.61197 14.78531,-7.53545 14.78531,-4.81775 16.54548,-6.42366 9.73953,-6.05306 5.98453,-4.94127 1.87749,4.44716 -4.22437,11.73552 -6.4539,15.68854 -4.57641,9.2649 -2.11218,21.7416 -6.21923,23.71812 -10.44359,15.81209 -4.81111,8.1531 -2.34687,14.45324 -5.51516,7.53543 -15.37204,8.52371 -9.73952,9.51194 -2.58157,10.37668 -1.99485,9.63548 3.16828,3.0883 1.99484,-9.26488 5.39783,-10.37669 9.03548,-8.64722 5.51515,-3.08831 2.46422,3.8295 -2.34688,7.53543 -2.34689,8.89431 -0.35202,12.60025 2.9336,6.79425 3.16828,-4.69421 -1.87752,-9.26489 1.87752,-9.38843 4.22438,-10.1296 3.28561,-3.82948 1.87751,9.759 3.52032,10.62373 7.39266,7.16485 3.63765,-3.33535 -4.92843,-6.79426 -6.45392,-17.66506 -0.58672,-19.76509 6.45392,-13.58851 5.28046,-10.37668 9.27017,-10.37668 3.87235,-7.41189 3.755,-14.57677 0.5867,-6.67072 3.63766,2.7177 4.10703,8.27663 8.8008,12.97085 4.8111,7.53545 -0.93876,11.85905 0.70406,11.2414 2.46423,7.7825 2.46422,10.12962 3.63764,-2.96478 -1.76014,-9.759 -2.11219,-9.38841 0.23469,-9.63549 4.92844,5.55893 3.16827,7.65897 2.34689,6.30012 2.93358,-4.6942 -4.10703,-11.61199 -5.16312,-10.50022 -4.8111,-11.2414 -9.03548,-9.75902 -5.16313,-10.5002 -1.87749,-13.34144 -0.11735,-12.22966 2.34688,-13.34144 5.39782,-13.09438 5.28047,-11.612 -2.34689,-9.51195 8.91813,-4.94128 h 5.98453 l 6.21924,7.41192 4.92843,11.98258 5.39782,15.19442 0.70405,14.20618 -1.29077,10.12962 2.58154,10.99432 3.75503,6.67072 2.81625,-3.33536 -2.58158,-7.28839 0.2347,-9.75901 1.99486,-9.75901 7.04061,13.21791 3.52031,13.09437 0.23469,9.26489 4.22438,0.98826 0.82141,-9.26488 -3.40297,-16.92387 -4.45906,-10.00609 -5.74985,-9.75901 -1.76018,-9.88254 6.6886,7.53542 9.03549,5.06481 5.51516,-1.85298 -3.75501,-4.81775 -7.39266,-3.33534 -4.8111,-6.9178 -3.63764,-10.25314 -8.5661,-9.26488 -6.92329,-4.44717 -2.81625,-3.82947 21.00455,-16.30621"
     style="fill:#000000;fill-opacity:1;fill-rule:evenodd;stroke:none;stroke-width:0.13333"
     id="path2" />
</svg>
