<?xml version="1.0" encoding="UTF-8" standalone="no"?>
<svg
   width="501.5"
   height="608.6"
   version="1.1"
   id="svg4"
   sodipodi:docname="pathpower.svg"
   inkscape:version="1.2.2 (b0a8486541, 2022-12-01)"
   xmlns:inkscape="http://www.inkscape.org/namespaces/inkscape"
   xmlns:sodipodi="http://sodipodi.sourceforge.net/DTD/sodipodi-0.dtd"
   xmlns="http://www.w3.org/2000/svg"
   xmlns:svg="http://www.w3.org/2000/svg">
  <defs
     id="defs8" />
  <sodipodi:namedview
     id="namedview6"
     pagecolor="#ffffff"
     bordercolor="#666666"
     borderopacity="1.0"
     inkscape:showpageshadow="2"
     inkscape:pageopacity="0.0"
     inkscape:pagecheckerboard="0"
     inkscape:deskcolor="#d1d1d1"
     showgrid="false"
     inkscape:zoom="1.096794"
     inkscape:cx="172.32042"
     inkscape:cy="309.53853"
     inkscape:window-width="2560"
     inkscape:window-height="1417"
     inkscape:window-x="0"
     inkscape:window-y="23"
     inkscape:window-maximized="1"
     inkscape:current-layer="svg4" />
  <path
     style="fill:#ffffff;stroke-width:0.999996"
     d="m 249.37264,107.10215 c -39.69587,0.81174 -79.86401,16.70513 -106.41084,46.81821 -26.27235,27.94743 -41.3502,66.24644 -39.75205,104.70517 -0.54648,35.69115 14.50563,70.65592 38.00193,97.11129 23.53181,25.19887 55.48406,42.45014 89.77683,46.99526 18.94664,2.90825 38.55948,1.34126 57.15525,-3.05589 31.56838,-8.49688 60.70914,-26.70248 80.47444,-52.96411 22.44784,-27.60251 33.29629,-63.73339 30.98345,-99.13989 -1.70371,-48.41348 -30.24707,-94.57926 -71.65939,-119.27562 -23.82753,-14.06651 -50.76923,-22.05955 -78.56962,-21.19442 z m 4.37634,80.88758 c 30.36873,-0.5424 58.03433,24.32571 63.48455,53.67524 1.04585,14.80761 1.8818,30.74013 -6.13494,43.95181 -11.76407,23.63382 -38.29008,39.22126 -64.78184,36.5368 -12.32251,-0.21608 -24.77359,-4.4424 -34.21076,-12.40469 -6.84613,-2.78297 -8.15338,-11.57971 -14.98257,-14.73138 -5.85757,-6.09408 -8.96137,-14.91784 -11.39168,-23.03821 -2.57886,-11.09764 -2.74367,-22.87715 0.22582,-33.9156 6.10184,-4.84097 9.391,-12.7921 9.38337,-20.46319 12.92068,-18.73107 35.44457,-30.98935 58.40805,-29.61078 z M 200.77024,305.729 c 2.03174,0.3877 -3.52363,-0.47215 0,0 z"
     id="path362" />
  <path
     style="fill:#ffffff;stroke-width:0.999996"
     d="m 245.45877,6.446021 c -11.6145,2.7105249 -18.98706,13.44623 -20.98784,24.709762 -2.91992,9.713006 -4.93126,20.213989 -8.14763,29.510223 -4.52249,0.60858 -9.32339,2.298599 -13.6007,2.614113 -9.23102,-10.714078 -17.26311,-22.630081 -27.4724,-32.405156 -12.39273,-10.88802 -34.30274,-5.506533 -39.77175,10.149782 -5.05119,12.028567 0.79205,25.004515 1.84241,37.317582 0.44741,4.70283 2.23296,10.023465 1.63933,14.318223 -3.49219,2.446345 -6.92896,4.972196 -10.2974,7.5864 C 115.56305,94.293067 103.12707,86.527009 89.428797,81.959241 74.153826,77.70033 57.664739,90.412927 57.604275,106.19472 c 0.145581,13.92291 10.972384,24.20078 17.351104,35.71582 1.910121,3.92456 6.27261,7.82283 6.724675,11.80141 -3.197517,3.37707 -3.505611,11.6135 -9.432958,9.9359 -13.646649,-0.0295 -27.550152,-2.67612 -41.061715,-0.18386 -15.130758,3.71325 -23.9444068,22.32749 -16.68564,36.24782 6.117475,12.56586 20.309455,17.75684 30.944931,25.70214 3.25024,3.2462 10.846817,3.99008 8.804999,9.72287 -0.961669,2.6178 0.718907,7.19456 -1.357759,8.87719 -13.560989,4.91519 -27.444989,9.32811 -40.315831,15.87479 -12.3864044,7.76098 -15.5846866,25.94719 -6.4822919,37.37574 9.1462409,11.82332 25.3479629,11.16759 38.6445559,13.9735 5.760336,1.04618 11.932661,1.62073 17.416299,3.01517 0.10661,3.90612 5.539819,9.21328 1.926765,11.97007 -10.852657,9.91747 -21.917839,19.92158 -30.970916,31.52049 -9.07374,13.53475 -1.477179,34.45778 14.598944,38.18736 12.157508,3.58271 24.269707,-2.93087 36.138686,-5.13013 6.172458,-1.63434 12.338715,-3.29191 18.507187,-4.94123 2.47358,3.47966 8.53069,6.18072 5.05223,10.82361 -4.85273,13.7562 -11.20904,27.07912 -14.673263,41.27037 -2.444114,15.41501 11.501063,30.74775 27.126483,29.0263 13.65069,-0.86737 22.56297,-12.84458 33.14156,-20.10361 4.89648,-3.91858 9.77292,-7.86211 14.65827,-11.79456 3.75968,2.23246 10.27226,2.41389 8.57453,8.38038 1.43912,14.50282 0.48477,29.2643 2.88918,43.62583 2.52679,9.14534 10.2728,16.26863 19.4011,18.5602 0.23101,14.37156 -0.7717,30.46547 9.50221,42.00495 2.10178,3.73114 7.01038,6.00492 8.34141,9.72522 -0.58947,13.48788 -1.01274,29.09104 9.84952,39.03071 10.47099,10.10588 26.91066,10.0195 40.07937,6.38885 14.39551,-4.69619 21.09076,-20.58833 19.99587,-34.79858 0.64233,-4.91344 -2.11757,-11.25404 3.23565,-14.03578 11.07069,-9.86543 15.26023,-25.01682 14.4489,-39.45298 -0.31524,-5.43782 -0.93539,-11.04644 6.26745,-11.02888 10.77314,-5.44664 15.1613,-17.73373 14.6466,-29.21935 0.83705,-11.71899 1.00571,-23.8346 2.13219,-35.32157 4.02408,-1.05614 8.34767,-5.69377 11.55407,-1.10932 11.92821,8.94211 22.62261,19.93457 36.05568,26.63439 14.3614,6.15708 32.90301,-3.53546 34.95528,-19.24916 2.50767,-12.80699 -6.01562,-24.19503 -9.60355,-36.00696 -2.02522,-5.41148 -4.16564,-11.05666 -5.67093,-16.48754 3.12989,-2.23913 4.9931,-8.48085 9.47279,-5.96642 13.8596,3.23 27.45925,8.22691 41.55723,10.07071 16.05648,1.79535 30.24161,-14.45427 26.90872,-30.1364 -2.96503,-13.61217 -15.48967,-21.77521 -24.15289,-31.72835 -3.5883,-3.61708 -7.19921,-7.21165 -10.79741,-10.81887 2.40913,-3.65877 1.10915,-11.4772 7.14384,-10.74098 14.38306,-2.90274 29.50552,-3.28408 43.27014,-8.60529 13.99538,-6.7039 18.76928,-26.59979 8.81504,-38.63518 -8.2995,-10.34516 -22.46976,-12.24594 -33.93026,-17.67777 -4.31688,-2.22355 -10.61164,-2.92841 -13.54257,-6.19542 0.25836,-4.50852 -3.48462,-10.84567 2.19822,-12.77121 11.35714,-8.46296 25.65792,-13.8656 34.11727,-25.66599 9.88883,-14.08926 1.70933,-35.8421 -14.96203,-40.04833 -14.26238,-3.36796 -29.28492,0.50248 -43.51857,0.0494 -1.43751,-3.87564 -5.61598,-7.64821 -5.81735,-11.27918 7.62829,-12.65204 17.02233,-24.42201 22.82187,-38.06358 4.8562,-14.831202 -6.40557,-32.000154 -21.99142,-33.109077 -13.44132,-1.046048 -24.52272,8.210223 -36.27561,13.257404 -3.8044,1.761101 -7.68313,4.293197 -11.47127,5.596533 -3.28718,-2.907748 -7.73729,-5.266454 -10.52043,-8.264612 1.7221,-14.572107 5.94131,-28.981992 5.63771,-43.703209 -1.97748,-15.168013 -19.00404,-26.078181 -33.48721,-20.583754 -12.59779,4.261135 -19.32114,17.009396 -27.94153,26.27979 -3.24928,2.558008 -5.14615,9.105143 -9.18179,9.351851 -4.14018,-0.986131 -8.2946,-1.915756 -12.47256,-2.728614 C 281.98793,46.86794 279.74943,32.348573 273.7137,19.271848 268.29611,9.2144822 256.55805,4.1747224 245.45877,6.4460412 Z m 6.64863,126.276259 c 25.98292,-1.53523 51.29849,8.62231 72.40543,23.12484 22.88612,17.12884 39.94878,41.89144 46.7082,69.76033 4.27397,17.27682 4.7682,35.64159 1.67117,53.15049 -6.96609,37.39074 -32.08341,70.72623 -66.40212,87.26566 -39.80165,20.64144 -90.57746,16.39165 -126.80092,-9.85503 -7.90356,-5.53228 -14.95297,-12.41563 -21.92015,-18.87278 -10.54404,-14.04716 -20.07109,-29.16241 -24.77436,-46.27156 -6.55664,-20.20032 -5.5826,-41.92134 -2.33197,-62.62177 6.80565,-28.91013 23.96108,-55.42591 47.98267,-73.00321 4.39701,-4.54591 10.62856,-6.64196 15.9534,-9.97202 17.50986,-7.91883 36.33717,-13.93169 55.79942,-12.70236 0.56975,1.6e-4 1.13948,-0.003 1.70923,-0.003 z m 55.23272,312.7868 c -0.26614,0.0283 0.11785,-0.0177 0,0 z"
     id="path358" />
  <path
     d="m 241.86071,430.47494 c 0,-0.60221 -1.44526,-2.16791 -2.16789,-2.16791 l -6.14237,-0.48175 c -0.48176,-0.12044 -1.92703,0.36132 -2.40877,1.32482 l -4.09492,8.06939 -3.25184,6.98544 -3.85403,6.98543 -14.93438,29.38701 c -0.96352,1.68614 -1.56571,0.60219 -1.56571,-0.36132 l -3.01096,-57.56963 c -0.12044,-1.08396 -1.08394,-1.927 -1.56569,-2.04745 -11.44167,-3.73361 -22.40157,-8.55114 -32.75929,-14.45264 -0.36132,-0.24088 -2.04747,-0.6022 -2.64966,-0.12044 l -44.80314,36.25201 c -0.84307,0.72264 -1.56572,-0.12044 -1.2044,-1.32482 l 20.35412,-53.11341 c 0.36132,-0.84306 -0.12044,-1.92701 -0.48174,-2.16789 -9.15334,-8.06938 -17.34317,-16.86141 -24.56948,-26.61694 -0.36132,-0.48174 -1.92701,-1.56569 -2.89052,-1.32481 l -54.919999,14.69351 c -0.963507,0.24088 -1.445262,-0.48177 -0.843068,-1.20439 l 28.66438,-28.54394 c 0.722626,-0.84307 2.890526,0.9635 3.733595,0.12045 0.602193,-0.6022 -0.120432,-3.85405 0.602193,-4.45624 l 7.226316,-7.34677 c 0.602199,-0.60218 0.240871,-2.28832 0,-2.77007 -5.058426,-10.83946 -9.032897,-22.40158 -11.682536,-34.32499 -0.120443,-0.60219 -1.083956,-2.28833 -2.1679,-2.52921 l -54.91999,-8.67158 c -0.96351,-0.12043 -0.96351,-1.20439 0,-1.68614 l 30.230081,-11.5621 c 2.649649,-0.96352 5.299298,-1.44527 7.708068,-2.40878 1.445264,-0.48175 2.770089,-1.56568 3.974473,-2.04745 l 9.514647,-3.61316 c 0.963507,-0.36132 1.445268,-1.68613 1.445268,-2.28834 a 168.97532,168.97532 0 0 1 1.083942,-23.36508 c 0.240875,-1.80656 -0.120442,-3.73359 0.240875,-5.66061 0.240875,-1.68613 1.083954,-3.25184 1.324829,-4.81755 l 0.84307,-4.45622 c 0.120443,-0.48175 -0.240876,-1.80657 -1.204389,-2.5292 L 34.8268,188.51382 c -0.722631,-0.48174 -0.481755,-1.3248 0.361317,-1.3248 l 54.799551,2.5292 c 0.963511,0 1.80658,-0.9635 2.047456,-1.56571 5.178867,-12.04384 11.682556,-23.48551 19.270176,-33.96365 0.24088,-0.36132 0.60219,-1.56571 0.12045,-2.4088 L 82.038727,106.61561 c -1.083955,-1.5657 -0.120443,-1.68613 0.722626,-1.2044 l 30.832277,15.65703 c 1.32482,0.72264 2.52921,1.08394 3.85403,1.68614 l 3.73361,2.16789 6.26279,2.89054 3.13142,1.92701 c 0.96351,0.48174 2.40876,-0.12045 2.89052,-0.6022 9.63508,-9.03289 20.35411,-16.98184 31.91622,-23.60596 0.48175,-0.24087 1.32482,-1.44525 1.20439,-2.52921 l -1.08395,-6.50368 c -0.12044,-1.204392 -0.96351,-2.408775 -1.08396,-3.733599 -0.24087,-1.32482 0.12045,-2.770083 -0.12044,-4.335788 l -0.72263,-4.215346 c -0.24086,-1.686149 0,-3.372277 -0.24086,-5.058425 -0.24089,-1.686139 -1.08395,-3.372288 -1.32483,-5.058415 L 158.27635,50.49123 c -0.12044,-0.84307 0.60218,-1.204387 1.20438,-0.602194 l 33.12061,41.069554 c 0.84306,0.963501 2.28832,1.083945 2.77008,0.963501 12.64604,-4.335788 25.89429,-7.226303 39.74474,-8.551134 0.48175,0 1.68613,-0.963511 2.16788,-2.288331 l 13.48913,-50.704633 c 0.24088,-0.722636 1.08394,-0.602194 1.32481,0.240875 l 13.60957,50.825076 c 0.36132,1.204387 1.5657,1.927013 2.16789,1.927013 13.73,1.324831 26.97825,4.215346 39.62429,8.551134 0.48175,0.120444 1.80658,0.120444 2.52922,-0.722615 l 33.24103,-40.949121 c 1.08395,-1.445262 1.44526,-0.240876 1.32483,0.722625 l -8.31025,51.90902 c -0.12045,1.20441 0.72262,2.28834 1.08394,2.64966 11.68253,6.62412 22.40157,14.57307 32.1571,23.72639 0.48174,0.36132 1.80657,0.96351 2.77008,0.48177 l 47.69367,-24.32861 c 0.84308,-0.3613 1.44527,0.36133 0.84308,1.2044 l -29.14614,44.92358 c -0.60219,0.96351 -0.36132,2.28835 0,2.7701 1.44527,2.04745 3.01097,4.21535 4.3358,6.38323 0.72261,0.96352 -0.6022,2.40877 0,3.37228 0.72261,1.08396 3.37226,1.80659 3.97446,2.89053 4.09492,6.865 7.70806,13.97088 10.83948,21.31762 0.24088,0.60219 1.32482,1.80659 2.40876,1.80659 l 53.95649,-2.89052 c 1.92701,-0.12044 1.32483,0.96349 0.48175,1.5657 l -45.76665,29.74832 c -0.84308,0.48176 -1.08395,1.92701 -0.96351,2.40877 a 173.55197,173.55197 0 0 1 3.49272,37.93815 c 0,0.60219 0.60218,2.16789 1.68613,2.52921 l 50.82508,19.63149 c 1.08395,0.36132 1.20439,1.56571 0.12043,1.68614 l -54.91997,8.67158 c -0.96351,0.24088 -1.68615,1.32483 -1.80659,1.92702 -2.77009,12.28472 -6.74456,24.20814 -12.04385,35.40893 -0.24089,0.48176 -0.24089,1.80659 0.36131,2.52921 l 39.62428,39.6243 c 0.84309,0.72262 0.48177,1.80658 -0.36129,1.5657 l -55.04044,-14.69351 c -0.96352,-0.24088 -2.04745,0.36132 -2.28832,0.72263 -7.34677,9.87596 -15.65703,19.02929 -24.9308,27.09868 -0.36131,0.36132 -0.96351,1.56571 -0.48176,2.64965 l 2.89053,7.58762 c 0.36132,0.84308 1.2044,1.80659 1.56571,2.7701 0.72262,1.68614 0.84307,3.37227 1.5657,5.29929 l 2.04745,5.54018 c 0.36132,0.96351 0.12043,1.80657 0.48175,2.77008 0.36133,0.96352 1.32483,1.92701 1.68615,2.89053 l 10.11683,26.37606 c 0.72263,1.80656 -0.12042,1.80656 -0.84306,1.32481 l -45.04403,-36.49289 c -0.84307,-0.72264 -2.04746,-0.60219 -2.40877,-0.36132 l -5.54017,3.01097 c -1.32483,0.72264 -2.52922,1.92702 -3.7336,2.52921 -1.20438,0.6022 -2.40877,0.6022 -3.49272,1.08394 -3.01097,1.44528 -6.14236,2.7701 -9.27376,3.97447 -0.96351,0.36132 -1.92703,-0.12043 -2.89055,0.24089 -0.84306,0.36132 -1.80656,1.56571 -2.64963,1.92701 l -6.02193,1.92703 c -0.36132,0.12045 -1.08395,0.96349 -1.20438,2.04745 l -0.72265,14.45262 -0.12043,7.82851 -0.6022,5.54018 -1.5657,29.74832 c -0.12042,1.92703 -1.08394,1.32483 -1.44525,0.36132 L 271.4886,428.66835 c -0.36132,-0.72264 -1.44526,-0.96351 -1.80658,-0.96351 l -6.98543,0.60219 c -0.6022,0 -1.68614,1.44527 -1.68614,2.16791 0,0.48175 -0.48176,1.20437 -0.48176,2.16788 0,0.48175 0.48176,0.96352 0.48176,1.5657 v 1.92702 c 0,0.48176 0.36132,1.08395 0.36132,1.68614 0,0.6022 -0.36132,1.20439 -0.36132,1.68614 v 6.02194 c 10.35771,1.927 18.18623,11.08033 18.18623,21.91982 v 52.27033 c 0,10.83947 -7.82852,19.87237 -18.18623,21.79939 v 4.33578 c 0,1.08395 -0.48176,2.16789 -0.48176,3.25184 0,0.72263 0.48176,1.56571 0.48176,2.52921 v 3.7336 c 0,0.72263 0.36132,1.32482 0.36132,2.04745 0,0.84307 -0.36132,1.92701 -0.36132,3.01097 v 14.33219 c 0,2.64965 -2.16791,4.81754 -4.81754,4.81754 h -9.51466 c -2.64965,0 -4.81754,-2.16789 -4.81754,-4.81754 v -15.29571 l 0.24088,-1.32481 -0.24088,-1.44527 v -2.16789 l -0.36132,-3.61316 0.36132,-6.62413 v -2.77007 c -10.35772,-1.92702 -18.18622,-10.95992 -18.18622,-21.79939 0,0 -0.24089,-4.09491 -0.24089,-9.99639 l 0.24089,-3.61317 0.24087,-3.49271 -0.24087,-3.37229 v -31.79577 c 0,-7.70808 3.97447,-14.57309 9.87596,-18.54756 0.60219,-0.3613 1.08395,-0.12043 1.68614,-0.3613 l 1.08395,-1.2044 c 1.68613,-0.72261 3.61315,-1.44525 5.54017,-1.80656 v -14.93439 z m 0,33.36147 c -0.9635,0.96351 -1.44526,2.1679 -1.44526,3.61317 v 15.77744 c 0,0 -0.6022,1.32482 -0.6022,1.92702 0,0.48175 0.6022,1.5657 0.6022,1.5657 v 33.00017 c 0,1.44526 0.48176,2.64963 1.44526,3.61315 v -2.16789 l -0.36132,-3.01097 c 0,-0.60219 0.36132,-1.08395 0.36132,-1.5657 l 0.24088,-1.32483 -0.24088,-1.08394 v -1.08395 c 0,-1.92701 0.96351,-3.49271 2.5292,-4.33577 0.36132,-0.12045 0.84309,0.24086 1.32484,0.12043 0.24087,0 0.60219,-0.36132 0.9635,-0.36132 l 0.96351,-0.24088 h 1.08395 c 0.36131,0 0.72263,-0.36132 0.96351,-0.36132 0.48175,0 0.84306,0.36132 1.32483,0.36132 h 5.17886 c 2.64963,0 4.81754,2.04747 4.81754,4.81754 v 1.5657 l -0.24089,1.56571 0.24089,0.84306 v 6.26281 c 0.9635,-0.96352 1.44525,-2.16789 1.44525,-3.61315 v -12.52562 l 0.24089,-1.32482 -0.24089,-1.44526 v -2.28834 c 0,-0.36131 0.84309,-0.72263 0.84309,-1.08393 0,-0.36133 -0.84309,-0.72264 -0.84309,-1.08396 v -1.20439 l -0.24087,-0.84306 0.24087,-1.20439 v -29.26656 c 0,-1.44527 -0.48175,-2.64966 -1.44525,-3.61317 v 9.27377 c 0,2.64965 -2.16791,4.81754 -4.81754,4.81754 0,0 -0.24088,0.24089 -0.84308,0.24089 l -1.32482,-0.24089 c -0.36132,0 -0.72264,-0.60218 -1.20439,-0.60218 -0.48175,0 -1.08396,0.60218 -1.68614,0.60218 h -4.45623 c -2.64965,0 -4.81754,-2.16789 -4.81754,-4.81754 z m 9.63509,-357.10036 c 33.96367,0 65.39813,11.44166 90.44937,30.71183 1.44526,0.96352 2.77007,1.20439 4.09491,2.28833 1.08394,0.84307 2.04745,2.64966 3.1314,3.49272 l 2.16789,2.04746 c 0.96351,0.84307 1.92701,2.89053 2.77009,3.73361 1.08394,0.96349 2.16789,0.84306 3.1314,1.80656 a 150.06646,150.06646 0 0 1 43.11701,104.78156 c 0,13.24824 -1.68614,26.13517 -4.93798,38.29947 -0.36131,1.5657 -0.24088,3.01096 -0.72263,4.57667 -0.24087,0.84306 -1.08395,1.68613 -1.32482,2.5292 l -2.1679,5.54018 c -0.60218,1.44526 -0.84307,2.89052 -1.44526,4.45622 a 149.10294,149.10294 0 0 1 -243.88811,49.62069 c -0.84307,-0.84307 -1.32482,-2.28833 -2.52921,-2.5292 -1.68614,-0.48176 -3.85403,-0.12044 -4.93799,-1.32483 -0.9635,-1.08394 -0.12042,-4.33579 -1.08393,-5.41973 a 148.74163,148.74163 0 0 1 26.85779,-216.42811 c 1.44527,-0.96351 1.92703,-4.33579 3.37229,-5.29931 1.56569,-1.08393 4.21534,0.24087 5.78104,-0.84307 l 3.7336,-2.16788 c 1.08395,-0.60221 2.16789,-2.04746 3.25184,-2.64966 0.96351,-0.60219 2.04746,-0.24088 3.13141,-0.84306 20.35411,-10.47815 43.47831,-16.37965 68.04779,-16.37965 z m 0,55.64262 c 11.68254,0 23.00377,1.92703 33.36148,5.90149 2.52922,0.9635 4.93799,2.40878 7.4672,3.49271 a 93.099015,93.099015 0 0 1 24.20814,17.4636 c 1.80659,1.80658 3.49273,3.25184 5.05843,5.17885 a 93.099015,93.099015 0 0 1 -120.43858,139.227 c -0.84307,-0.6022 -0.24088,-2.04747 -1.08395,-2.64967 -0.84306,-0.60218 -3.13138,-0.24087 -3.97447,-0.84304 -3.37228,-2.52922 -6.62413,-5.29931 -9.51463,-8.18984 -1.20441,-1.08395 -1.68616,-4.57665 -2.7701,-5.78105 -1.20438,-1.20439 -2.89053,-0.12044 -3.97447,-1.44526 -2.1679,-2.64964 -4.69711,-5.2993 -6.62413,-8.18982 -1.927,-2.89052 -3.13139,-6.02193 -4.81754,-9.15333 a 92.617262,92.617262 0 0 1 -3.01096,-77.20113 c 0.36132,-1.08395 4.09491,-0.48176 4.57666,-1.56569 0.6022,-1.20439 -2.04745,-4.09493 -1.44525,-5.29931 a 92.978577,92.978577 0 0 1 82.86174,-50.94551"
     style="fill:#000000;fill-opacity:1;fill-rule:evenodd;stroke:none;stroke-width:0.13333"
     id="path2" />
</svg>
