<?xml version="1.0" encoding="UTF-8" standalone="no"?>
<svg
   width="641.8"
   height="973.5"
   version="1.1"
   id="svg10"
   sodipodi:docname="pathcaine.svg"
   inkscape:version="1.2.2 (b0a8486541, 2022-12-01)"
   xmlns:inkscape="http://www.inkscape.org/namespaces/inkscape"
   xmlns:sodipodi="http://sodipodi.sourceforge.net/DTD/sodipodi-0.dtd"
   xmlns="http://www.w3.org/2000/svg"
   xmlns:svg="http://www.w3.org/2000/svg">
  <defs
     id="defs14" />
  <sodipodi:namedview
     id="namedview12"
     pagecolor="#ffffff"
     bordercolor="#666666"
     borderopacity="1.0"
     inkscape:showpageshadow="2"
     inkscape:pageopacity="0.0"
     inkscape:pagecheckerboard="0"
     inkscape:deskcolor="#d1d1d1"
     showgrid="false"
     inkscape:zoom="0.96969696"
     inkscape:cx="591.93751"
     inkscape:cy="543.98438"
     inkscape:window-width="2560"
     inkscape:window-height="1417"
     inkscape:window-x="0"
     inkscape:window-y="23"
     inkscape:window-maximized="1"
     inkscape:current-layer="svg10" />
  <path
     style="fill:#ffffff;stroke-width:1"
     d="m 146.2847,389.17732 c -9.94966,0.14837 -18.7769,6.32996 -23.95282,14.53526 -6.38479,5.67433 -14.37798,9.49574 -19.70223,16.42773 -10.671086,12.05204 -16.255699,29.23716 -13.18904,45.17737 3.282267,15.26625 21.2569,24.78482 35.67361,18.7436 12.06666,-4.85924 18.38869,-17.20654 26.84936,-26.32988 4.56672,-6.30484 10.3544,-11.85741 17.93812,-14.23229 13.66923,-4.42994 21.74937,-20.98515 15.96485,-34.30091 -3.67371,-10.87968 -14.98988,-16.37523 -25.73554,-17.74424 -4.5769,-1.0154 -9.08849,-2.53664 -13.84631,-2.27664 z"
     id="path384" />
  <path
     style="fill:#ffffff;stroke-width:1"
     d="m 500.82036,499.6895 c -15.74956,5.1867 -21.82722,23.70381 -15.91589,38.42321 3.92961,13.28073 -1.3092,27.81929 -12.46213,35.83065 -15.00208,14.82238 -4.58137,44.03797 16.7876,44.90714 15.74527,0.89079 29.24342,-9.69976 42.58327,-16.72314 14.58286,-11.05585 26.07503,-27.04567 31.96593,-44.36248 3.38402,-16.66562 -6.96033,-32.16097 -14.74876,-45.94885 -10.71004,-14.31173 -32.37692,-13.41214 -48.21002,-12.12653 z"
     id="path376" />
  <path
     style="fill:#ffffff;stroke-width:1"
     d="m 420.58463,549.87563 c -15.19559,-0.6564 -27.07366,9.83623 -37.34723,19.40927 -18.49016,10.66317 -17.5562,36.16973 -9.14651,52.9999 1.98341,16.41324 -15.62424,24.94666 -26.70942,33.28828 -12.93349,7.54302 -28.7793,17.92789 -26.04827,35.20322 2.08538,16.07673 18.54137,23.85522 33.36142,23.62735 19.24955,3.03963 35.48883,-10.44568 52.14726,-17.71274 23.99377,-14.84447 37.67438,-40.19882 54.98893,-61.49318 15.42276,-11.36358 26.12976,-32.83364 19.78433,-51.68756 -13.32482,-21.02986 -35.89281,-34.21368 -61.03051,-33.63454 z m -28.0646,16.05013 c 2.2188,-0.53565 2.21728,-0.34926 0,0 z"
     id="path378" />
  <path
     style="fill:#ffffff;stroke-width:1"
     d="m 255.91632,541.12671 c -12.90099,1.31103 -22.24896,11.96684 -26.85867,23.36329 -11.10561,-14.80184 -35.62769,-10.66026 -43.73831,5.298 -14.63316,23.21222 -33.40066,43.22568 -53.19231,62.0636 -16.25292,14.86047 -24.00793,35.87498 -29.04815,56.77138 -5.029925,17.61337 3.29449,35.32223 6.46692,52.64233 8.03934,25.90992 24.41164,48.39814 31.62915,74.70389 5.24236,18.03622 25.31936,20.45903 40.59794,25.52213 7.51106,13.75946 16.39574,27.1279 24.63493,40.14387 9.17286,16.27556 18.0451,33.33208 29.5252,48.11811 13.9563,11.73732 31.44475,19.06623 47.00315,28.71263 13.76629,7.51773 29.46781,17.80191 45.60435,10.44434 25.83066,-7.58907 55.15221,-11.80406 73.7999,-33.37818 25.39884,-22.77049 35.21395,-56.68694 50.87358,-85.91355 2.87237,-9.49731 9.26767,-15.92963 17.99611,-20.33197 12.41994,-7.56456 26.28939,-16.29147 28.28118,-32.09042 5.01995,-25.28204 24.59813,-44.76581 29.1907,-70.01091 1.825,-14.03972 1.66578,-28.24044 -2.10828,-41.70839 -4.77642,-20.36588 -2.25651,-41.84126 -8.15999,-61.88166 -7.27772,-13.72136 -16.85323,-31.47812 -34.17305,-32.25024 -13.62667,-1.78716 -21.39047,10.33449 -30.37075,18.03885 -20.02273,9.51703 -24.76529,32.65129 -39.98653,47.15938 -9.72018,10.23379 -19.89854,22.26326 -34.32703,24.62591 -5.77073,1.74892 -11.17123,6.16407 -15.63522,8.97878 -3.51006,-3.22509 -23.68004,0.22985 -14.5905,-5.20279 19.54212,-12.90212 43.15745,-25.07656 50.01301,-49.44288 6.27822,-19.86032 -8.31242,-45.23162 -30.69136,-43.51178 -6.25219,-0.27052 -12.77573,4.82631 -17.58142,-1.42681 -12.71329,-8.54587 -25.62365,-17.62514 -40.65813,-21.5126 -2.47743,-16.82684 -19.48585,-25.07784 -34.89767,-26.02107 -6.48022,-1.00572 -13.00291,-2.48772 -19.59875,-1.90324 z"
     id="path372" />
  <path
     style="fill:#ffffff;stroke-width:1"
     d="m 306.39498,467.9728 c -12.65278,1.6168 -22.19268,12.98806 -23.17838,25.45052 -2.07025,13.74034 -4.59701,27.43707 -9.41441,40.51859 -4.44133,13.77113 4.41219,30.11269 18.7006,33.13595 12.55516,3.74179 25.24292,-4.14958 31.84971,-14.58293 6.69113,-10.79733 12.27853,-22.412 16.26804,-34.45987 0.51376,-9.62813 1.14932,-19.52615 -0.64618,-29.02789 -3.95386,-13.86738 -19.70055,-22.37689 -33.57938,-21.03437 z"
     id="path388" />
  <path
     style="fill:#ffffff;stroke-width:1"
     d="m 267.4905,457.49708 c -11.24306,3.2062 -18.75941,14.00669 -19.46131,25.45391 -2.46433,11.55855 -2.74194,23.73693 -6.93872,34.84226 -4.27012,9.12644 -9.71118,20.36337 -5.66517,30.97724 3.73545,11.01062 14.74516,17.67824 26.0138,18.39775 11.93928,2.97675 25.47498,-2.34072 31.07581,-13.54947 7.19086,-13.95897 12.60308,-28.89113 14.27408,-44.58187 1.54561,-11.69921 5.95444,-24.87594 -1.46927,-35.51214 -5.97876,-8.91106 -16.52802,-14.00001 -26.60665,-16.55141 -3.83168,-0.74602 -7.43385,-0.17292 -11.22257,0.52373 z"
     id="path386" />
  <path
     style="fill:#ffffff;stroke-width:1"
     d="m 170.54943,415.46437 c -9.6967,3.02968 -19.17382,7.47072 -27.40246,13.4799 -8.87553,8.00473 -15.0926,18.46259 -23.33188,27.10448 -8.38977,9.09528 -16.48617,19.06556 -19.30053,31.42195 -4.284216,10.54965 -1.535503,22.51088 5.28064,31.32404 -0.20867,9.00337 -5.03082,17.39542 -6.793769,26.21988 -2.755441,5.08827 -9.461733,6.87815 -11.803617,12.48481 -5.77075,9.37245 -4.720088,21.35993 -2.443597,31.71201 3.314647,10.12409 7.292653,20.14383 12.023402,29.66008 3.741451,3.75212 0.972186,9.5674 1.988004,14.32779 0.05458,10.63828 3.785347,22.14676 13.666587,27.50544 11.09131,6.78596 26.06306,3.23145 34.20463,-6.55897 22.3315,-21.41176 43.57545,-44.22205 60.4515,-70.26251 2.62901,-4.45616 9.01556,-2.88668 13.01375,-5.59995 14.27129,-5.68071 20.17231,-25.12618 11.42599,-37.78557 -2.54076,-2.81819 -3.42812,-4.95722 -0.17053,-7.58566 6.8117,-8.14638 8.77257,-19.30011 6.07185,-29.4573 -2.26144,-11.39385 -2.7636,-25.0204 -13.25505,-32.32569 -4.92798,-4.2522 -12.73489,-4.33344 -16.33081,-10.23214 -7.55994,-11.66456 -3.3296,-28.10469 -14.26805,-37.94533 -5.72194,-6.24972 -14.78666,-8.69487 -23.02606,-7.48726 z m 53.6905,66.89743 c 0.15987,0.64616 -0.19517,-0.64909 0,0 z"
     id="path382" />
  <path
     style="fill:#ffffff;stroke-width:1"
     d="m 522.28074,388.90419 c -8.72628,-0.60201 -16.22419,4.30031 -24.5319,5.72366 -15.99736,4.58764 -30.82988,15.05551 -37.71476,30.59734 -6.77653,11.58302 -4.87078,27.84975 6.0394,36.22281 11.10559,9.17239 28.94574,6.60299 37.50946,-4.81656 2.57567,-2.85447 4.17476,-7.18305 8.46088,-7.87731 11.06147,10.14426 30.46941,8.09994 38.77306,-4.50867 7.12264,-9.07965 4.85576,-21.12443 1.96888,-31.34793 -1.63697,-11.90499 -11.01966,-22.36077 -23.18756,-23.78413 -2.41865,-0.31692 -4.88076,-0.21496 -7.31746,-0.20921 z"
     id="path390" />
  <path
     style="fill:#ffffff;stroke-width:1"
     d="m 559.40916,327.41252 c -19.7228,-0.59462 -35.88876,18.42567 -32.77053,37.80902 -0.20522,10.68581 5.18299,21.66959 -0.33864,31.75547 -4.08724,14.88053 6.45277,29.47398 3.82664,44.10599 -4.5696,8.71286 -11.14271,17.2435 -21.71253,18.21103 -22.31907,6.15112 -30.32531,36.94742 -14.3696,53.45168 14.02837,18.4365 40.29788,14.46852 58.79476,5.95499 22.79126,-10.67751 45.2696,-26.1516 57.32319,-48.82499 16.52677,-34.01991 20.95905,-74.91377 7.81163,-110.70323 -4.60299,-10.20644 -15.66638,-14.09742 -25.47663,-16.38741 -9.25096,-8.23162 -20.13409,-15.74532 -33.08829,-15.37255 z"
     id="path374" />
  <path
     style="fill:#ffffff;stroke-width:1"
     d="m 471.0409,376.70765 c -10.52205,1.58252 -20.87706,6.75829 -28.12429,14.60506 -7.91904,9.01221 -7.75095,22.45171 -2.19617,32.62697 6.15303,14.04491 24.88972,20.18801 38.01122,12.11345 10.46138,-7.13069 22.65914,-16.02893 23.24852,-29.90482 1.42196,-16.8555 -14.47184,-31.03864 -30.93928,-29.44066 z"
     id="path392" />
  <path
     style="fill:#ffffff;stroke-width:1"
     d="m 203.69444,2.5443619 c -19.64715,6.9316048 -32.58891,28.6708201 -26.70346,49.1384161 4.00557,12.723193 9.27271,25.904634 9.46531,38.834336 1.50013,13.917316 -6.8327,26.737336 -7.47433,40.628296 -2.90452,16.54965 1.47972,33.38739 4.75205,49.17721 -13.11317,11.38089 -30.26425,19.81476 -36.31503,37.41648 -5.6569,11.14905 -8.68409,23.30409 -11.20554,35.4494 -16.42531,0.32457 -32.68448,9.16454 -40.10294,24.10953 -16.74951,9.40468 -24.058733,31.44863 -15.094945,48.70559 13.269575,30.03088 24.138835,64.80754 53.105415,83.61769 12.74861,6.06907 27.28736,10.54725 41.50887,7.90118 -1.00547,20.8579 0.36568,44.09794 12.89737,61.54455 12.87095,16.20967 40.88216,9.1371 46.05857,-10.41516 4.68827,-7.82286 5.72226,-21.19973 17.02324,-21.6917 8.7162,-1.19038 13.29093,9.8195 12.26946,17.14309 1.83389,19.93136 26.87064,29.91507 42.92965,19.05536 20.06989,-8.47217 22.06241,-32.78134 20.45173,-51.63071 -2.09516,-7.43726 11.67216,-4.99459 11.95775,1.89547 10.56352,16.83025 1.04972,37.02743 -0.7068,54.98601 -5.06672,25.62114 -11.92489,54.0557 1.70377,78.37603 10.1489,20.83772 37.77331,33.91706 59.28429,23.25583 8.09613,-4.99471 12.10984,-17.7559 23.33942,-14.65616 10.80488,0.88075 23.49008,3.09388 29.41976,13.26217 13.70493,14.56147 37.38554,8.16497 48.27278,-6.55198 14.30475,-17.43485 13.83563,-42.04795 5.67441,-62.07224 -3.74243,-11.77143 -8.6398,-24.37917 -19.65,-31.13612 -8.42108,-43.49463 -26.54596,-84.22686 -40.52084,-126.01608 -1.50519,-4.36225 8.29736,-3.82919 6.04943,1.57644 2.74438,17.69334 12.2353,35.34441 29.84472,41.89055 18.21834,7.18455 39.44856,11.31216 58.40513,5.47516 14.7589,-6.58195 17.94671,-25.0299 12.00711,-38.84104 -1.14597,-6.22685 -3.33983,-17.32556 4.45953,-19.82908 11.04146,-3.39868 16.44792,10.61747 25.85014,13.55876 14.1758,9.03424 29.61756,-1.3287 40.51468,-10.75062 13.80518,-8.53169 15.29748,-26.37546 9.30638,-40.22194 -3.39164,-14.60015 -8.51079,-31.12194 -23.49411,-37.67886 1.9291,-20.3298 -18.28768,-32.07231 -32.11909,-43.02713 -14.28099,-10.0418 -30.10953,-19.82313 -48.33854,-17.90545 -17.701,-0.43819 -37.02388,-4.66173 -52.39101,6.79138 -5.80504,3.51317 -11.5315,7.05307 -18.19929,3.23272 -14.52534,-4.56676 -30.45338,-8.66704 -44.57675,-0.47262 -7.70146,2.17076 -16.59161,8.26822 -23.47439,1.29943 -5.45094,-3.92037 -13.9909,-2.92519 -18.59331,-6.6087 -9.11163,-19.20449 -28.32612,-30.26827 -45.12066,-41.92972 -0.39067,-13.1329 -10.91091,-23.08961 -12.04836,-36.23567 C 306.73556,118.36071 307.7727,91.828432 299.7027,67.243376 293.22093,46.537276 272.35864,37.891245 256.176,26.343451 241.11565,14.976439 224.23325,-1.9835329 203.69444,2.5443619 Z"
     id="path366" />
  <path
     style="fill:#ffffff;stroke-width:1"
     d="m 448.50147,333.94137 c -13.15539,-0.114 -25.83599,9.7152 -28.11577,22.82848 -2.79512,12.84158 5.12,27.08156 17.74375,31.03797 8.56025,3.07754 18.15104,0.83102 25.52517,-4.16089 9.89039,-5.73124 15.39843,-18.16713 12.37145,-29.28508 -2.86025,-12.40408 -15.04082,-20.7127 -27.5246,-20.42048 z"
     id="path394" />
  <path
     style="fill:#ffffff;stroke-width:1.45841"
     d="m 572.36374,337.56565 c -24.39014,1.03611 -43.59703,23.84548 -45.62707,48.73059 -1.09292,7.98684 -9.50861,12.67166 -11.26695,20.86995 -4.41541,8.60901 -3.20841,19.19154 -4.86968,27.95756 -6.18304,4.91063 -15.56024,5.22402 -21.76898,11.05065 -21.86405,14.77625 -27.04525,48.07187 -13.04663,70.54306 10.05016,22.1507 34.40443,33.32246 56.92706,29.62664 32.73355,-4.94625 61.91817,-25.51612 84.15138,-50.51579 20.57633,-28.76501 28.67232,-65.74183 27.6361,-101.31696 -0.69792,-21.42501 -12.38638,-43.88649 -33.12936,-49.49113 -8.84518,-2.48041 -17.94563,-3.33272 -26.62653,-6.6064 -4.07868,-0.82905 -8.23456,-1.04933 -12.37934,-0.84817 z"
     id="path819" />
  <path
     style="fill:#ffffff;stroke-width:1.45841"
     d="m 281.12955,459.4729 c -23.64699,0.0985 -43.8814,21.65861 -44.97997,46.30724 -4.96476,22.48023 3.49413,48.81535 24.14717,59.03688 9.40353,4.38103 19.65124,6.05166 29.42713,9.28112 24.11475,6.7313 49.03053,-11.83539 55.31529,-36.36766 11.37618,-32.19717 -9.75947,-73.1174 -43.17574,-76.59027 -6.86821,-0.94768 -13.80199,-1.65396 -20.73388,-1.66731 z"
     id="path823" />
  <path
     style="fill:#ffffff;stroke-width:1"
     d="M 76.188874,318.79493 C 58.605259,331.9495 40.751843,346.36488 28.919042,365.223 1.7958847,414.58567 2.1951475,480.32657 37.664976,525.63178 c 14.388273,18.77642 31.950089,35.97751 52.911408,47.10567 16.616506,4.59154 32.625656,-8.73612 34.291226,-25.23786 5.20138,-13.70974 11.79808,-29.97545 2.40886,-43.53563 -11.37101,-13.97023 -12.83509,-33.49458 -12.59952,-50.86671 1.1145,-10.63464 8.13095,-19.18184 17.43383,-24.01374 13.26891,-7.82455 23.28186,-25.24946 13.98372,-39.65894 -7.44099,-10.88746 -18.0179,-19.86786 -23.09548,-32.53259 -8.55621,-14.86935 -12.65461,-37.93643 -33.020689,-39.81272 -4.695205,-1.5082 -9.179466,0.97282 -13.789457,1.71567 z"
     id="path368" />
  <path
     d="m 426.01417,682.24779 22.26813,-27.47554 10.29602,-19.53537 12.81016,-6.30174 12.09185,-12.60345 14.00738,19.28328 -1.31694,20.92176 4.66913,27.47555 0.47889,8.94846 -19.27513,20.03951 22.86676,-11.21709 -1.55636,26.71934 -21.90899,39.82696 -9.09882,30.12227 -32.92332,21.29986 -39.98687,82.55268 -29.57114,28.7359 -56.50841,15.62829 -58.9028,-33.65124 -25.50062,-42.47367 18.19761,-22.93829 -23.34563,14.87208 -25.26116,-42.47368 -32.56417,-10.08277 -9.5777,-28.48383 -21.07092,-40.07902 -8.97909,-41.96953 10.29602,-34.53349 17.83845,-19.91348 27.29644,-25.96313 28.13447,-39.95298 1.67611,23.31641 10.17629,17.26674 19.39483,-7.6881 8.3805,-31.88677 7.18327,-14.49399 28.37391,5.29346 -0.11972,12.35139 6.10578,8.3183 18.19762,3.02482 24.54285,14.74606 12.33127,8.69639 9.33825,3.02482 10.77491,-3.27689 7.06356,-0.37811 2.51414,11.34311 -10.89462,16.00641 -32.44445,20.29158 -14.96515,13.10759 -5.26772,12.85554 1.67609,11.46915 8.14103,6.55381 15.08488,4.15914 20.11315,0.37809 -9.69742,5.67155 -8.02131,3.02485 -10.53546,1.26035 -6.70439,1.63844 -14.24682,-1.76449 -17.83847,-2.52067 -4.30995,-2.77277 -5.38745,-9.57864 -8.38048,-4.66327 -9.81714,1.76448 -12.09184,6.1757 3.47192,3.40293 6.22548,-2.77277 h 9.69743 l 6.94383,7.68813 -6.22551,5.29345 -21.5498,16.63657 1.91554,4.91535 7.78189,-7.43604 10.17628,-4.03313 15.44403,-5.29343 10.89463,-1.13432 11.2538,-0.12603 4.90856,2.39465 -14.00738,10.33484 -9.57769,7.94018 -7.78187,5.29346 -8.50022,3.52897 -18.79622,-0.25207 -19.15539,6.30172 -18.6765,17.89693 v 4.41122 l 6.22549,-4.15915 10.29602,-9.32655 12.21157,-7.43606 12.33128,-1.76447 9.57769,-1.26035 h 4.30997 l -11.13405,8.69638 -5.74663,7.68813 10.41574,-5.16743 6.70439,-5.67156 5.86634,-2.64673 1.79581,4.28518 -5.38745,7.05793 -6.94383,7.18398 -10.29603,4.91534 -12.33128,6.67984 -5.98606,11.34312 3.47192,4.03311 2.2747,-6.30174 6.34523,-7.43603 8.61991,-3.40293 18.31735,-5.67156 9.81713,-16.63658 6.7044,-10.83899 9.93686,-11.84724 15.08487,-7.68812 15.08486,-4.91535 16.88069,-6.5538 9.93686,-6.1757 6.10578,-5.04138 1.91553,4.53725 -4.30996,11.97329 -6.58466,16.00639 -4.66913,9.45261 -2.15498,22.18209 -6.34522,24.19865 -10.65518,16.13244 -4.90858,8.31828 -2.39442,14.74606 -5.6269,7.6881 -15.68348,8.69641 -9.93685,9.70465 -2.63387,10.58691 -2.03526,9.8307 3.23247,3.15087 2.03526,-9.45259 5.50718,-10.58692 9.21854,-8.82242 5.62689,-3.15088 2.51414,3.90709 -2.39442,7.6881 -2.39444,9.0745 -0.35915,12.85554 2.99303,6.93191 3.23247,-4.78933 -1.91555,-9.45259 1.91555,-9.57864 4.30997,-10.33483 3.35218,-3.90707 1.91554,9.95673 3.59164,10.83896 7.54244,7.31001 3.71135,-3.40292 -5.02828,-6.93192 -6.58468,-18.02294 -0.5986,-20.16555 6.58467,-13.8638 5.38745,-10.58692 9.45798,-10.58691 3.9508,-7.56206 3.83108,-14.87209 0.59859,-6.80587 3.71136,2.77276 4.19024,8.44431 8.9791,13.23364 4.90857,7.68812 -0.95777,12.09932 0.71832,11.46915 2.51415,7.94018 2.51415,10.33485 3.71134,-3.02485 -1.7958,-9.95672 -2.15499,-9.57863 0.23945,-9.8307 5.02829,5.67155 3.23246,7.81415 2.39443,6.42776 2.99302,-4.78931 -4.19024,-11.84725 -5.26772,-10.71295 -4.90857,-11.46915 -9.21854,-9.95674 -5.26773,-10.71294 -1.91554,-13.61174 -0.11972,-12.47743 2.39443,-13.61174 5.50717,-13.35967 5.38746,-11.84726 -2.39444,-9.70466 9.09881,-5.04139 h 6.10578 l 6.34524,7.56208 5.02828,12.22535 5.50718,15.50226 0.71832,14.494 -1.31693,10.33484 2.63385,11.21707 3.8311,6.80587 2.87331,-3.40293 -2.63389,-7.43605 0.23946,-9.95673 2.03527,-9.95674 7.18327,13.48571 3.59163,13.35966 0.23944,9.4526 4.30996,1.00828 0.83805,-9.45258 -3.47191,-17.26676 -4.5494,-10.20881 -5.86635,-9.95673 -1.79583,-10.08276 6.82411,7.68809 9.21854,5.16742 5.6269,-1.89051 -3.83108,-4.91536 -7.54243,-3.40292 -4.90858,-7.05795 -3.71134,-10.46087 -8.73965,-9.45259 -7.06355,-4.53727 -2.87332,-3.90706 21.43011,-16.63658"
     style="fill:#000000;fill-opacity:1;fill-rule:evenodd;stroke:none;stroke-width:0.13333"
     id="path2" />
  <path
     d="m 477.25482,587.21767 -2.39441,11.97331 -5.02831,16.38449 22.38787,-21.04778 c 6.82411,-4.15913 28.49365,-14.49398 28.49365,-14.49398 0,0 15.56375,-19.40933 19.51455,-28.98797 l -16.4018,-35.79384 -23.22591,-4.0331 -7.78189,-0.88225 10.77492,25.8371 c 1.07749,3.52898 0,15.75433 0,15.75433 0,0 -6.58468,20.66969 -8.97908,26.9714 l -17.35959,8.31829 m -38.31078,-204.30212 15.20461,28.35778 18.55677,-8.94845 7.30299,-10.83899 -11.49324,-23.82054 -10.89462,-10.33484 -16.16235,8.94845 -2.51416,16.63659 m -146.17954,181.23779 3.95078,12.35139 5.74661,5.29345 8.14104,-2.14258 11.73268,6.93192 20.47232,11.97328 12.33129,5.54553 17.12012,-4.78932 1.91555,-14.62002 -13.28905,-8.31828 -14.60599,-10.08279 -6.10578,-14.99812 -3.23248,-26.08917 17.23986,-36.55004 4.90857,-32.64296 -7.06355,-19.53538 -10.41575,-18.40104 -10.89462,-1.63845 -16.40181,7.56207 3.71136,21.42589 -4.19024,21.80399 -17.12013,10.08277 -0.47889,11.46915 10.05659,2.39466 8.97907,4.91535 -0.23942,17.77089 -10.1763,22.05605 -9.09883,10.96501 -2.993,17.26675 m 195.38495,-66.29421 -19.87371,-29.74418 -5.98605,-25.71107 -6.58468,-22.93829 12.09184,-6.93192 7.9016,-2.64672 13.28904,-9.57862 6.82411,-1.89054 12.57073,3.02483 13.04962,2.1426 11.61294,1.26034 -9.93686,7.31001 -10.05657,5.92364 -7.30299,1.1343 -6.2255,1.76449 -7.9016,4.66328 -5.86633,5.67156 -4.07052,8.06621 0.83804,2.64674 3.59162,-5.16743 4.30998,-5.67156 8.73964,-5.41949 11.97212,-3.78103 12.69045,1.51242 6.10577,7.31 -0.11973,12.85553 -3.23245,12.60347 -1.07749,10.58691 -10.6552,3.90707 -5.62689,-9.4526 -8.85936,1.00828 -1.91554,6.42776 0.71832,19.28331 -11.01435,9.8307"
     style="fill:#000000;fill-opacity:1;fill-rule:evenodd;stroke:none;stroke-width:0.13333"
     id="path4" />
  <path
     d="m 304.7366,519.03295 -5.0283,11.84725 -7.90159,7.6881 -6.58467,9.20054 -1.43665,10.33484 -20.47233,-0.88225 15.44404,-36.17194 6.46494,-41.46539 2.87331,15.2502 10.89463,9.45259 5.74662,14.74606 m -93.2628,37.1802 -16.64125,28.10574 -18.6765,27.22347 -21.4301,18.77916 -18.91595,24.57676 -10.53545,-11.34311 -0.83806,-13.98985 0.35916,-16.63658 9.5777,-10.71293 13.88766,-3.78103 5.62689,-6.55381 -20.83148,4.41121 -13.88765,10.33484 -9.93686,-24.32469 -1.0775,-26.9714 2.39443,-17.77089 8.97908,-25.45899 8.85937,-26.71936 19.75401,-22.43417 10.89462,-14.2419 13.52849,-6.5538 18.79623,-11.09106 0.5986,11.46915 -5.38745,10.58692 1.79583,15.75433 8.38047,6.55381 2.75359,14.87208 9.45796,1.26034 4.30998,23.19038 -14.24683,16.63657 3.11275,13.8638 9.33826,10.96501 m 6.70438,-84.82131 c 6.2255,-9.70465 8.73965,-20.66968 12.09185,-25.20691 4.90856,-6.9319 9.0988,-4.91535 11.61295,-7.68811 l 15.20459,-4.28519 13.88765,8.06621 5.98606,19.15728 -2.39441,19.40933 -6.58468,40.07901 -11.97212,26.71934 -15.44402,40.20506 -6.10579,13.35967 -8.61993,4.66327 -8.61991,-11.09103 v -25.58504 l 6.8241,-21.67796 2.27471,-32.39091 -3.9508,-16.63655 -4.78886,-15.88038 0.59861,-11.21709 m 176.3493,104.35669 14.24683,-11.21707 h 23.58507 l 23.34563,4.91535 7.54244,9.83069 -10.17632,33.02108 -12.57071,22.9383 -15.56376,26.21521 c -7.66214,5.67156 -10.53545,10.20879 -24.66256,21.17381 l -36.51496,16.0064 -27.05698,3.52897 -12.45102,-3.2769 c -0.83804,-4.66327 -0.71832,-9.70467 1.67611,-15.25019 l 15.32431,-10.96502 31.48667,-14.36794 13.0496,-23.82056 7.54244,-28.35778 1.19721,-30.37435 m -260.03441,-181.36384 -16.88069,-14.24191 -11.85239,-28.10573 -5.50717,-22.30814 -44.536286,39.57488 -9.697416,17.1407 -7.302991,21.93005 -3.9508,20.92175 0.718327,27.85364 6.225503,26.84538 7.901597,14.24191 13.169332,18.5271 15.204589,16.3845 20.951202,16.00639 2.035273,-12.85552 7.06354,-16.38451 -9.936851,-12.09932 -4.90858,-17.1407 -3.471894,-13.98985 -1.676107,-17.01468 1.556376,-12.60346 4.309963,-14.49398 7.542433,-12.60347 10.53546,-7.56207 22.50758,-18.02296 m 377.60062,89.98873 19.51456,-5.29345 13.76793,-13.73778 11.85238,-19.78744 -3.9508,-34.02935 -13.04959,-20.03951 -6.70438,-27.85366 12.33127,-22.05605 16.28208,-6.42776 18.19763,5.54551 15.20457,26.34124 5.6269,36.55005 -4.78884,34.28141 -11.97211,27.72762 -24.18369,21.55193 -26.33866,12.3514 -16.52152,1.26035 -6.94382,-6.93191 1.67609,-9.4526"
     style="fill:#000000;fill-opacity:1;fill-rule:evenodd;stroke:none;stroke-width:0.13333"
     id="path6" />
  <path
     d="m 385.66812,568.94266 16.76096,-18.02295 22.26813,-1.7645 24.06398,4.53727 17.71873,11.34311 5.26774,8.44431 11.97211,-9.4526 3.83108,-17.89691 -7.78187,-25.45899 c -0.95778,-9.20053 -11.37352,-12.98157 -18.5568,-17.01469 -4.42968,-2.5207 -11.73266,-4.28517 -17.47929,-6.17569 l -20.23288,-4.66328 c -14.7257,7.43604 -21.19064,9.8307 -23.22591,9.45261 1.55637,-6.17571 5.02829,-9.07452 9.45798,-10.58692 6.94382,-3.02484 13.64821,-6.30174 26.81755,-6.42776 11.37349,2.26861 20.59202,6.04965 27.29642,11.59517 l -7.42271,-23.44244 -7.66215,-29.36606 -7.18328,-18.52709 -7.66216,-21.55194 -9.21854,-23.3164 -5.38744,-15.50226 0.83805,-15.75432 3.23247,-10.46089 15.68349,-3.40294 14.96513,-1.51241 14.24683,-1.26035 7.42271,15.75433 0.5986,10.46088 5.98607,18.40106 11.49323,7.31001 21.31037,4.28518 15.20458,0.25206 -3.9508,-14.99812 0.11974,-21.67795 9.93685,-20.41762 22.1484,-5.54551 16.40181,2.14258 19.87374,16.38451 16.16235,-11.5952 -8.38049,-30.12226 -13.52849,-6.55381 -7.66216,-12.60346 c -9.45796,-2.01656 -17.95818,-5.54554 -24.3034,-3.78104 -8.14104,0.50414 -29.33168,-1.00828 -33.16277,7.68811 -2.63386,6.04967 -8.0213,17.14071 -10.89462,15.75434 0.83805,-2.77277 3.59164,-12.98159 8.5002,-20.16555 2.87331,-4.4112 17.59902,-8.82243 19.87372,-9.95674 4.42968,-2.26862 9.81714,-2.77276 15.68347,-2.39465 7.30299,0.63016 20.83149,4.7893 28.61337,7.18398 -6.58467,-13.61176 -29.3317,-28.23178 -45.7335,-35.54178 l -41.42353,-1.63844 -18.43706,8.4443 -8.97909,6.9319 -39.14882,-9.95672 -26.69783,10.08277 -17.12012,0.25207 -10.77491,-8.06623 -12.81017,-1.51241 -10.17631,-1.26035 -8.97908,-20.7957 -16.52153,-13.61174 -20.71176,-14.49399 -24.54284,-7.18397 -20.59205,5.54553 -23.82452,11.59517 17.47931,-18.65313 17.71873,-11.59517 14.00738,1.51242 14.48625,4.15913 -10.89462,-20.16554 -8.85937,-40.45712 -4.90857,-42.599705 -10.05658,-16.006407 -21.07093,-11.343116 -22.14842,-18.401054 -13.16931,-7.310006 -10.05659,6.80587 -0.95777,12.981569 8.26076,18.653119 2.7536,21.803991 0.23942,16.762619 -7.30298,24.07261 -2.27471,20.79571 5.74662,21.42589 2.39443,15.75434 -8.50021,13.98984 -16.16237,11.59519 -10.296,6.42776 -11.13408,23.19037 -3.35219,19.53537 -5.38747,12.98157 -11.97211,4.91535 -12.81016,0.7562 -10.53547,5.29347 -4.07052,10.96501 -11.01435,5.67156 -4.07052,9.07448 9.81715,21.67798 10.05657,23.3164 4.30996,10.46088 19.03568,22.05606 20.83147,6.30173 16.04265,-3.65502 2.75359,-17.14071 3.83107,-12.35138 11.01435,-1.13432 5.02828,9.95673 0.83806,19.15728 -2.99302,21.04776 -1.91555,18.65313 1.91555,18.02298 6.34521,20.29157 c 1.67609,-5.67156 5.50718,-12.47743 7.18328,-17.51882 3.23248,-9.83069 6.22548,-14.49398 12.81018,-20.79573 l 14.84541,-6.30171 18.19761,-0.63019 17.12013,9.70467 11.61296,20.66969 -1.79582,11.97329 12.21156,-5.54552 2.39443,-18.27503 -2.63386,-23.44243 -3.59163,-10.20882 -21.90898,-11.21708 -18.5568,0.7562 -13.28904,3.90708 -18.79623,7.94018 9.81713,-10.08276 14.48628,-6.17571 19.75398,-3.40294 23.10619,9.83072 -8.26075,-28.35781 -8.97909,-18.02294 1.31692,-13.61175 9.5777,-3.15086 14.84542,5.04139 13.40878,20.0395 15.92292,42.59972 15.80319,-2.1426 11.25379,11.09105 12.45101,22.81227 1.79581,21.55192 -5.62689,29.99624 -4.30997,24.70279 -3.71135,22.05607 3.71135,19.91346 10.65519,13.61176 14.60599,3.02482"
     style="fill:#000000;fill-opacity:1;fill-rule:evenodd;stroke:none;stroke-width:0.13333"
     id="path8" />
</svg>
