<svg xmlns="http://www.w3.org/2000/svg" width="705.3" height="528.7"><path d="M303.987 220.728c-16.917 2.222-34.43 7.763-46.612 20.26-12.228 12.736-15.97 32.76-8.847 48.966 1.515 4.446 4.776 8.089 6.743 12.202 2.154 10.018 8.212 18.556 14.953 26.026 10.327 15.451 30.637 22.955 48.595 18.417 17.259-4.124 33.17-16.494 38.358-33.904 2.215-7.442 2.62-15.26 4.08-22.868 3.59-22.296-6.722-45.452-23.855-59.64-9.275-7.504-21.603-10.795-33.415-9.459m55.506 78.378c-.02.394.022-.59 0 0m-97.042 8.504c-.445-2.242-.498-5.048 0 0m1.234 6.469c-.111-.21-.187-.975 0 0" style="fill:#fff;stroke-width:.999995"/><path d="M352.1 1.586c-16.086-.69-32.379 9.325-36.881 25.184-2.088 6.74-2.334 13.791-4.897 20.374-2.18 8.774 1.108 17.529 4.734 25.294 1.453 12.432 1.6 25.87 1.1 37.614-4.188 2.534-4.619-5.184-7.125-7.553-14.634-25.95-34.926-48.443-58.015-67.125-17.465-12.566-38.966-19.638-60.575-18.059-16.923.305-33.544 5.33-47.695 14.641-7.93 3.898-13.992 11.05-22.728 13.117-14.166 6.35-29.963 10.555-45.468 8.221-4.973-2.417-9.006-6.379-10.712-11.68C55.87 26.29 33.353 22.277 20.61 33.949c-11.493 9.367-11.81 25.885-7.656 38.974 4.088 18.451 14.401 36.289 31.508 45.39 32.887 19.138 74.323 16.64 108.401 2.002 6.79-2.407 13.287-6.81 20.58-7.306 9.518 1.276 18.099 7.103 24.41 13.96 11.082 14.183 20.917 29.408 27.875 46.075 5.763 13.17 10.052 26.95 14.603 40.546-15.385 1.506-31.36-.17-46.262 4.498-14.42 5.383-21.315 23.945-13.822 37.404 5.324 10.071 14.53 17.934 25.493 21.086 7.577 3.973 15.968 5.702 23.505 9.647 7.826 1.84 14.656 6.713 22.83 7.72 3.427.976 2.877 6.476 4.808 9.291 2.46 5.944 5.596 11.396 6.762 17.762 2.67 8.318 8.781 14.914 15.403 20.24 3.397 4.605 7.816 8.473 12.917 11.085-.304 12.199 3.885 23.702 8.763 34.66 3.124 13.443 5.155 27.269 10.965 39.946 2.874 6.97 5.945 14.496 12.346 18.975 1.629 22.499 2.076 45.72 10.031 67.088 6.36 13.644 25.074 19.288 37.659 10.905 12.464-7.105 13.792-22.58 16.28-35.232 2.04-14.346 2.578-28.85 3.585-43.29 11.97-8.316 11.77-24.025 15.75-36.624 2.814-8.75 3.017-18.233 7.684-26.275 4.854-11.679 3.751-24.754 6.31-36.809 4.17-5.284 8.344-10.433 12.912-15.382 7.94-10.984 11.228-24.593 16.102-36.943 6.288-2.063 12.045-5.14 18.592-6.358 7.404-2.208 13.84-6.407 21.26-8.506 12.906-6.046 28.95-12.566 32.56-27.977 4.071-14.733-6.807-30.985-21.898-33.062-9.86-1.15-19.81-1.211-29.699-2.016 3.026-10.53 6.851-21.037 9.092-31.647 11.563-21.192 21.45-43.936 38.327-61.619 6.275-5.416 14.83-10.264 23.379-8.963 15.308 6.692 30.608 14.085 47.383 16.28 29.201 5.68 61.36 1.02 85.3-17.452 15.747-12.557 22.722-33.04 24.955-52.423 1.805-16.012-10.794-32.515-27.357-32.791-12.362-.792-23.595 7.992-27.896 19.26-4.036 4.872-9.727 9.134-16.458 7.726-21.83.353-41.137-11.053-58.975-22.32-14.671-9.953-32.311-14.953-50.011-14.37-17.426-.345-35.09 3.233-49.977 12.621-13.882 8.65-25.612 20.334-37.272 31.696-3.552 4.522-5.904 9.681-10.394 13.456-9.672 11.463-17.29 24.487-24.32 37.687-2.81-1.917-7.575-2.023-5.793-6.67.288-11.238-.032-23.471 1.413-35.073 6.727-9.682 6.72-22.579 1.604-32.936-1.943-10.809-5.756-23.304-16.11-29.546-7.577-5.135-16.928-6.936-25.959-6.753m83.514 210.924c2.547-1.178 3.411-1.323 0 0m39.72 56.886c-1.053 4.854.46-2.926 0 0m-44.515 10.775c-3.59 3.357 3.146-3.364 0 0m-.05 48.9c-.688 2.081-.08.091.122-.636z" style="fill:#fff;stroke-width:1"/><path d="M394.999 222.944c-14.358 2.038-27.017 11.425-33.89 24.09-7.997 13.273-13.997 28.895-11.06 44.606 1.175 4.818 1.96 9.664 2.494 14.593 2.572 16.58 14.22 31.032 29.541 37.68 15.431 7.96 35.24 6.279 48.86-4.59 5.478-4.247 9.294-10.074 14.147-14.946 4.602-5.189 7.593-11.54 10.266-17.82 9.481-12.915 14.535-30.047 9.56-45.721-4.171-15.113-16.85-26.468-31.175-31.975-11.573-4.82-24.361-6.784-36.84-6.078z" style="fill:#fff;stroke-width:.999995"/><path d="M335.399 197.301c.241 0 .603-.603.603-.844l-.603-46.42c0-.844 0-1.688-.241-2.17-.362-.483-.844-.603-1.447-.844-2.05-.603-6.39-2.532-8.32-3.135-.482-.12-1.687-1.809-1.929-2.532l-.964-4.34c-.12-.724.844-2.412 1.447-2.533 2.29-.603 12.9-2.773 13.986-3.376 1.567-.964 5.788-4.943 4.823-23.512-.482-9.886.12-20.497-.603-30.263-.482-5.667-1.93-11.093-2.653-15.916-.361-1.929-3.496-4.46-3.737-6.028-.724-4.582 1.205-4.22 2.29-8.079.845-2.652.362-9.163 2.17-13.866 3.256-8.56 23.513-7.716 26.045-.24 1.688 4.822 2.29 11.333 3.255 13.986 2.17 5.305 3.135 3.858 2.411 8.078-.24 1.326-3.014 2.894-3.376 4.461-1.326 4.703-2.773 10.731-3.134 17.242-.483 10.128.482 21.22-.483 30.746-1.688 17.604 5.185 23.873 5.908 23.994l12.781 2.773c.603.12 1.688 1.688 1.688 2.412 0 1.085-.844 3.134-.844 4.22 0 .602-1.085 2.411-1.567 2.652-1.688.724-4.823 3.014-6.511 3.859-.603.24-1.206.602-1.568 1.085-.24.603-.24.603-.24 2.05.12 6.63 0 25.802-.242 44.732 0 .24.482.723.723.723a83.6 83.6 0 0 1 13.625 3.859c.603.12 2.17-.483 2.29-.965 1.81-6.15 3.98-12.901 6.27-19.774.724-2.17 2.412-4.34 3.256-6.631.603-1.93.482-3.859 1.206-5.788 5.426-14.83 11.334-29.058 16.036-38.221 7.234-14.348 15.313-27.009 23.753-38.101 1.567-2.05 6.028-3.98 7.596-5.908 1.326-1.688-.241-3.376 1.206-4.944 6.028-7.114 12.419-11.816 18.688-17.603 13.987-12.902 32.796-24.235 68.244-17.242 19.412 3.858 45.094 37.498 97.664 34.966 15.915-.724 31.952-16.88 33.398-23.391 1.327-6.511 5.909-3.256 5.788 0-.241 5.305-4.944 24.597-11.454 31.59-6.632 7.114-32.314 25.923-79.94 13.504-23.994-6.27-30.143-18.568-51.846-14.107-26.285 5.426-40.512 24.114-56.91 52.69-6.39 11.213-11.455 20.497-15.554 30.867-.362.844-2.17 3.014-5.546 3.858s-8.44.241-8.802 1.085c-.483 1.206 3.617 1.809 6.752 3.014 2.05.844 3.738 2.17 3.496 3.015-6.27 17.844-10.007 33.278-13.624 44.13-.603 1.687-.603 3.013-.844 4.34-.12.603.361 2.652.723 3.135.241.361.603.723 1.085.844 1.085.482 2.291 1.808 3.376 2.05 1.086.361 2.291-1.327 3.497-.965 6.752 2.17 14.228 6.149 19.412 6.028 6.27-.24 25.08 2.05 29.42.844 2.05-.602-.241 3.618-3.376 5.426-3.015 1.809-5.305 2.532-7.958 3.859-2.532 1.326-5.185 2.893-7.717 3.858-2.29.844-2.05.844-3.979.844-1.567-.12-3.134-2.894-4.099-2.412-.965.362-.12 3.859-1.447 5.064s-13.263 5.064-15.071 5.064c-1.447-.12-2.17-2.411-3.015-2.05-.964.483 0 2.774-1.567 3.738-2.894 1.688-3.497 2.17-10.972 3.738-3.376.724-6.15 1.085-8.44 1.206-1.688 6.51-3.497 12.66-4.944 17.604-1.206 3.978-3.496 8.44-4.823 12.177-2.17 5.908-3.617 10.852-7.113 15.675-1.206 1.688-4.703 3.135-5.909 4.582-1.808 2.411-2.773 5.787-4.46 7.596-1.81 2.05-3.98 2.773-5.065 4.702-1.205 2.17-1.205 4.943-1.688 6.993-1.326 5.305-1.688 9.766-2.05 15.192-.24 3.135-.24 8.923-1.085 12.901-.723 3.377-2.17 4.823-2.773 7.717-.12.724-3.255.965-3.617 8.44-.362 6.029-5.546 24.597-5.908 24.959s-1.809 5.908-2.29 9.645c-.363 3.135-1.086 6.03-1.327 6.39-.724 1.207-1.447-1.325-2.05-4.22-.603-2.652-.965-5.787-1.326-6.269-.241-.603.24 8.922-.241 11.334-.483 1.688-1.93-7.717-2.291-3.376 0 .603-.241-11.816-.844-13.263-.362-.724 2.17-7.837 2.652-15.313.483-6.631-1.205-13.866-1.567-13.745l-1.688 2.652-5.667 95.373-5.667 26.888-5.667-27.008s-2.894-48.35-6.27-91.756c-.844-2.411-1.446-4.461-1.567-4.22-1.93 3.376-.723 7.958-1.326 9.525-.483 1.085 3.376 21.462 2.893 21.221-.361-.241-.844 11.575-1.326 10.49-.362-.965-1.085-1.568-1.447-2.894-.361-1.93-.24-8.681-.723-8.922-.603-.362-.482 6.631-.724 9.163-.24 3.015-.964 5.788-1.567 5.426-.724-.482-2.05-3.135-3.135-6.632-.362-.964-3.135-4.702-5.546-13.986-2.653-9.646-4.944-24.958-5.064-25.44-1.085-3.136-4.462-8.561-4.944-11.696-.723-4.34-2.532-4.944-3.135-7.596-.603-3.256.844-13.263-1.326-18.327-.965-2.291-3.135-4.461-4.34-6.39-1.568-2.653-3.256-4.824-5.065-6.03-2.17-1.326-3.979 0-6.39-2.17-1.085-1.085-2.653-5.184-3.858-6.27-1.568-1.808-5.064-2.772-6.752-4.822-1.688-2.17-2.532-4.461-3.376-6.993-.121-.483.844-2.653 2.17-4.22 2.29-2.774 5.546-5.306 5.305-6.15s-3.255.362-5.908 1.206c-2.05.724-3.979 1.206-4.34.482-2.894-7.113-7.597-15.312-8.802-24.235l-1.327-7.716c-3.737 1.085-8.078.844-12.057.12-7.475-1.326-12.78-3.014-15.674-4.702-1.568-.844-.483-4.823-1.327-5.185-.844-.482-2.29 2.412-3.737 2.532-1.809.12-5.305-.844-6.752-1.929-1.327-1.206-.483-4.702-1.447-5.184-.844-.362-2.412 2.411-4.1 2.411-1.808.12-4.823-1.085-7.113-1.93-2.532-.964-5.185-2.531-7.717-3.857-2.653-1.327-6.029-.844-7.958-3.859-1.93-3.014-5.426-4.823-3.376-5.426 4.34-1.326 23.15-2.411 29.3-2.29 6.269.24 15.915-.242 23.39-2.412 1.688-.482 3.376-1.808 5.185-2.773.723-.362 1.447-.241 2.17-.723 2.291-1.327 3.738-2.774 5.546-4.1.483-.362 1.206-2.532.965-3.376-1.085-4.1-1.447-9.043-3.014-14.469-.724-2.532-.724-5.184-1.447-7.957-.724-2.17-2.291-4.462-3.014-6.873a259 259 0 0 0-24.718-59.08c-6.27-10.973-12.298-18.448-18.688-26.285-1.447-1.809-.603-3.376-2.05-4.944-1.206-1.206-4.703-2.411-5.908-3.496l-4.461-3.98c-7.355-5.787-14.83-9.766-24.838-11.815-21.824-4.582-29.902 7.716-53.896 13.986-47.626 12.419-73.429-6.39-79.94-13.384-6.51-7.113-11.213-26.405-11.454-31.71-.12-3.256 4.461-6.511 5.787 0 1.327 6.51 17.363 22.668 33.399 23.512 23.873 1.085 42.562-5.185 57.754-12.781 1.568-.844 4.944.12 6.39-.724 2.17-1.205 2.412-3.978 4.462-5.184 12.78-7.476 22.667-14.71 31.107-16.277 18.448-3.738 31.47-2.412 42.562 1.567 10.249 3.617 18.69 9.405 25.32 15.554a215.6 215.6 0 0 1 50.762 66.315 531.5 531.5 0 0 1 25.802 67.52c.362.965 2.17 2.412 2.894 2.291a39.4 39.4 0 0 1 12.901-1.206m87.053 74.876c.241-.965.724-6.27-1.447-8.923a7.23 7.23 0 0 0-6.872-2.17c-1.206.241-2.412 1.326-3.497 1.809-1.688.723-3.858-.844-5.546.482-3.014 2.17-4.944 5.788-6.993 9.525-2.05 3.859-4.22 7.837-3.859 11.093l1.568 5.426c.603 3.979.844 5.787 1.085 10.007.362 4.582-.844 8.681 1.809 10.49 1.808 1.085 2.893 3.135 3.496 2.411 1.447-1.808.844-9.284 2.412-11.333.723-1.086 2.652-2.291 3.737-3.256 2.291-2.05 4.1-3.738 4.22-6.27.12-2.652-5.787-5.787-.24-8.078 1.928-.844 4.22-.603 5.666-1.93 2.773-2.652 3.979-7.233 4.461-9.283m-133.473-.844c-.12-.362-1.327-1.688-1.206-3.617.12-1.688 1.688-4.1 2.773-5.306 2.05-2.532 6.632-2.17 10.249-.482 1.688.844 3.737-.844 5.426.482 6.149 4.462 11.454 12.66 10.851 19.292-.482 4.582-2.411 12.057-2.773 17.242-.362 4.702 1.447 8.44-1.206 10.249-5.667 3.858-4.582-5.547-6.752-8.682-2.29-3.135-7.355-5.667-7.596-9.525-.12-2.773 5.787-5.667.241-7.958-3.014-1.326-4.702-4.943-6.51-7.355-1.448-1.929-3.136-2.773-3.497-4.34" style="fill:#000;fill-opacity:1;fill-rule:evenodd;stroke:none;stroke-width:.13333"/></svg>