<?xml version="1.0" encoding="UTF-8" standalone="no"?>
<svg
   width="480.5"
   height="591.7"
   version="1.1"
   id="svg4"
   sodipodi:docname="pathdeath.svg"
   inkscape:version="1.2.2 (b0a8486541, 2022-12-01)"
   xmlns:inkscape="http://www.inkscape.org/namespaces/inkscape"
   xmlns:sodipodi="http://sodipodi.sourceforge.net/DTD/sodipodi-0.dtd"
   xmlns="http://www.w3.org/2000/svg"
   xmlns:svg="http://www.w3.org/2000/svg">
  <defs
     id="defs8" />
  <sodipodi:namedview
     id="namedview6"
     pagecolor="#ffffff"
     bordercolor="#666666"
     borderopacity="1.0"
     inkscape:showpageshadow="2"
     inkscape:pageopacity="0.0"
     inkscape:pagecheckerboard="0"
     inkscape:deskcolor="#d1d1d1"
     showgrid="false"
     inkscape:zoom="1.1281203"
     inkscape:cx="31.02506"
     inkscape:cy="408.20114"
     inkscape:window-width="2560"
     inkscape:window-height="1417"
     inkscape:window-x="0"
     inkscape:window-y="23"
     inkscape:window-maximized="1"
     inkscape:current-layer="svg4" />
  <path
     style="fill:#ffffff;stroke-width:0.999998"
     d="m 166.82264,263.91832 c -9.31377,0.0817 -16.68076,6.17948 -24.29769,10.62118 -13.65193,5.30234 -20.4119,21.9805 -15.50493,35.5443 3.45642,10.63896 9.68132,22.09923 21.4046,24.93202 10.90808,2.48294 21.98177,-1.33158 32.79706,-2.88265 13.71708,-2.85855 23.10897,-15.55977 25.46537,-28.85444 3.36379,-10.10338 1.6329,-22.21388 -6.66506,-29.44377 -8.01155,-6.82232 -19.04659,-8.72905 -29.23486,-9.90277 -1.32065,-0.0888 -2.643,-0.0627 -3.96449,-0.0139 z"
     id="path364" />
  <path
     style="fill:#ffffff;stroke-width:0.999998"
     d="m 301.44914,262.50604 c -11.09827,0.86344 -23.39669,0.97682 -32.62588,8.0312 -10.84539,8.16481 -12.86666,24.22569 -6.31378,35.7091 5.72809,12.2385 18.37114,19.47466 31.31329,21.66131 8.04403,2.82376 17.0405,4.17532 25.16397,0.73768 14.15134,-5.10848 20.55709,-21.16854 19.78968,-35.26375 -0.98038,-14.64365 -13.68656,-26.04872 -27.14492,-29.87686 -3.32598,-0.82431 -6.76533,-1.05341 -10.18236,-0.99868 z"
     id="path366" />
  <path
     style="fill:#ffffff;stroke-width:1"
     d="m 224.50332,8.9899748 c -8.67423,0.1096774 -16.87864,2.6251802 -25.50697,0.7288424 -19.72288,-1.8916773 -40.30354,12.6923378 -41.54148,33.1988918 -4.15884,16.792331 7.60689,33.834837 24.01144,37.882145 1.03518,4.027488 -6.02534,3.262761 -8.33755,5.87109 -19.8756,7.270236 -38.78081,17.375246 -54.35429,31.874726 -14.98583,11.59754 -26.997003,27.09546 -34.403068,44.4116 -3.708359,6.08257 -5.36416,13.11706 -6.743682,20.0293 -5.506424,1.08959 -8.681066,-1.61939 -11.684174,-5.9417 -10.957058,-9.64532 -26.995116,-9.64269 -40.729422,-9.03362 -19.3293948,5.90458 -25.1431116,28.67416 -23.548014,46.71904 -0.582762,14.88606 -3.1664027,30.28717 3.1908685,44.44173 3.2112415,14.23681 15.8444175,27.24111 31.3243925,25.03077 12.805512,-2.42461 26.098863,-8.94418 32.876778,-20.56945 4.817518,2.17711 4.265557,10.89016 3.970072,16.40948 0.667321,15.20955 -3.54909,32.13413 4.902132,45.88258 -5.359432,13.60549 -2.538781,29.09953 6.733596,40.31583 6.689701,9.65289 4.076199,22.9807 12.839225,31.69075 8.198146,11.36053 23.905226,19.9536 37.228726,12.0236 4.00773,-1.64169 2.61774,8.43685 6.31267,10.54228 5.79002,8.56476 14.54249,15.407 24.98996,16.61507 8.53058,6.4557 19.70066,5.27662 29.09064,2.05539 8.53569,0.68272 17.50289,3.5906 26.14752,0.517 5.70927,2.25943 11.81628,-0.29993 16.74265,3.4495 5.56191,1.51786 4.26405,10.08425 9.072,13.5005 11.82353,15.09703 37.72396,11.12965 45.21343,-6.27461 2.55885,-4.70046 3.97591,-9.98073 4.32766,-15.31073 13.39103,-1.31486 22.292,-14.12862 24.03162,-26.24336 5.50558,-5.21052 11.42686,2.44287 17.9386,1.34167 17.56428,1.54995 32.11201,-13.4412 34.12696,-30.17507 4.91332,-14.88897 13.64105,-28.45629 16.07237,-44.22988 -0.16777,-6.88223 -3.03708,-13.34623 -7.09172,-18.58675 5.72777,-18.7454 7.36811,-38.60966 8.90248,-58.10814 18.50392,-1.3317 37.15454,-0.82646 55.57359,-4.05529 12.45851,-0.55255 27.51021,-4.26451 31.74918,-17.61116 7.34153,-15.90073 -5.77922,-34.43168 -22.29441,-36.65354 -23.10441,-5.12898 -46.61305,-8.13906 -70.00921,-11.59087 -4.30876,-8.72792 -3.46751,-18.91249 -8.77384,-27.2824 -7.88049,-10.91298 -13.66983,-23.35773 -24.20816,-32.20021 -10.91743,-10.26726 -22.295,-20.47839 -35.27949,-27.83471 C 305.56458,91.549185 290.18633,86.743201 275.38356,82.600523 296.08975,73.098001 303.87332,45.10268 294.79801,25.285494 287.64897,10.352893 269.20404,11.442465 255.19032,10.439094 244.9785,9.6963607 234.74981,8.8897737 224.50332,8.9899748 Z M 306.11095,288.09621 c 4.0773,2.59042 9.8122,5.50967 6.62516,11.23528 0.27947,4.45489 -3.08893,8.15205 -7.39689,5.11954 -7.57608,-2.36835 -17.86338,-1.58921 -20.61942,-10.92507 -4.38087,-5.12242 5.93996,-3.76115 8.95738,-5.00783 4.12343,-0.51719 8.28643,-0.50035 12.43377,-0.42192 z m -138.28333,0.85495 c 4.99582,0.56988 11.10478,1.68486 15.12916,3.88127 -1.67503,5.61837 -1.09202,14.80383 -9.17484,14.65502 -6.13298,2.11373 -12.79233,1.88942 -18.95243,3.34663 -0.41547,-3.98776 -8.20056,-11.76119 -1.50558,-13.17969 5.33647,-1.87933 9.55926,-6.60466 14.50369,-8.70323 z m 120.9399,15.1241 c 0.69147,3.66878 -0.27402,-0.91065 0,0 z m 22.60672,10.24162 c -0.16774,-0.11388 -0.0206,-2.32626 0,0 z m -139.03486,5.28097 c 0.46749,0.47779 -0.73601,-0.6272 0,0 z m 206.77433,2.38574 c -1.24781,1.93239 0.7362,-1.26526 0,0 z m -137.28968,36.11175 c -0.22359,0.10074 -2.03451,-0.48355 0,0 z m -101.66467,55.64673 c -0.33992,-0.64002 -0.25111,-2.70208 0,0 z m 158.96833,0.0757 c -2.99113,0.46956 2.17734,-0.5449 0,0 z m 4.65298,4.72864 c -2.32746,4.893 2.23438,-7.52894 0,0 z m 7.81047,3.01121 c -1.5777,2.45343 0.47947,-0.90604 0,0 z m -13.14187,6.66803 c -0.34877,0.36249 0.37017,-0.55877 0,0 z m -86.12949,7.88611 c -1.15097,0.36961 2.7543,-1.32965 0,0 z"
     id="path360" />
  <path
     style="fill:#ffffff;stroke-width:1"
     d="m 207.66428,418.45307 c -16.23425,2.81908 -24.15157,20.44226 -21.81735,35.55186 0.95651,17.14453 5.49679,33.95759 4.23434,51.27367 1.43523,16.60062 6.15279,32.72203 7.33382,49.15525 0.49245,13.13376 6.49715,27.7905 20.42078,31.28293 16.20025,5.23438 32.75138,-8.71232 33.9041,-24.97241 5.51586,-27.592 8.93756,-55.52134 10.04023,-83.64346 -0.11357,-15.83794 8.53224,-34.39148 -3.67744,-47.79279 -9.21229,-12.88594 -28.41528,-9.36104 -40.81726,-10.86767 5.04015,0.0784 -9.48921,-0.66611 -9.62122,0.0127 z"
     id="path362" />
  <path
     d="m 212.03991,442.39417 c -1.19533,0.23906 -2.15159,1.793 -2.15159,2.98832 -0.23906,2.98833 0.83674,10.8775 1.31486,15.30022 l 0.95626,6.93292 c 0.23907,1.31485 3.34692,8.84543 3.46647,10.27983 0.11952,0.83672 -2.51021,1.91251 -2.39067,2.86879 l 2.03206,12.90957 c 0.23906,1.91251 0.7172,3.7055 0.7172,5.4985 0,2.74926 -1.07579,7.05244 -0.7172,10.5189 0.47813,3.82506 2.74925,8.36731 3.46646,12.67049 1.55392,9.0845 4.06412,40.40213 6.09618,42.0756 1.91252,1.79299 4.42272,-23.66752 5.97664,-31.55669 1.0758,-5.25946 2.62973,-10.63844 3.22739,-15.65882 0.59767,-4.54226 0.3586,-10.39936 0.59767,-13.86582 0.23905,-2.39066 0.95627,-4.66178 1.0758,-7.05245 0.11953,-4.42272 -0.59767,-14.22442 -0.11953,-19.12527 0.23906,-3.58599 2.03205,-13.14863 2.62972,-16.61507 0.71719,-4.18366 2.15159,-11.71424 1.55391,-14.46349 -0.35859,-1.79301 -3.3469,-2.1516 -5.1399,-2.39067 -1.793,-0.11953 -3.46647,1.19533 -5.25945,1.4344 a 54.148425,54.148425 0 0 1 -12.07283,-0.83674 c -1.67345,-0.47812 -3.94459,-2.03205 -5.25945,-1.91252 z m -8.48684,-24.74332 c 0.59767,-1.19532 2.1516,-1.55393 3.46646,-1.55393 a 10.040767,10.040767 0 0 1 7.41104,5.85711 c 0.59767,1.793 0.71719,4.06413 0.59767,5.97664 0,2.27114 -0.59767,5.61807 -0.95627,7.53059 -0.3586,1.55394 -0.3586,3.58599 -1.67346,4.30318 -0.95627,0.35861 -2.03206,0.59767 -3.58599,1.67348 -0.47813,0.23905 -0.59767,2.98831 -1.19534,3.82504 -0.47812,0.95627 -1.31485,0.23906 -2.03205,0.59767 -0.83673,0.23907 -1.67346,1.43439 -2.03206,1.31486 -0.71719,-0.11953 -1.31486,-2.27113 -1.79299,-4.42271 -0.11954,-0.71721 -0.83672,-0.83673 -0.95627,-1.55394 -0.3586,-1.67346 0.11955,-3.58598 0,-4.18364 -0.47813,-1.55394 -0.71719,-4.06412 -0.3586,-6.21573 0.47815,-3.22739 2.03207,-10.75796 3.10786,-13.14862 z m 29.76371,16.25649 0.11953,-4.54225 -0.11953,-3.82506 0.59765,-7.29151 c 0.23908,-1.43439 0.23908,-3.34693 0.71721,-4.30319 0.35859,-0.7172 1.19533,-1.31486 2.03206,-1.31486 0.83673,0 2.62972,0.23907 3.70552,1.07579 1.19533,1.07579 2.74926,3.70553 3.94459,5.49851 1.07579,1.55394 2.62972,3.10787 3.34691,4.66179 0.59767,1.31487 0.83673,2.8688 1.07581,4.42274 0.23907,1.79298 0.47813,4.78131 0.47813,6.81336 0.11953,1.79301 0.23907,4.06413 -0.11953,5.25945 -0.23906,0.83673 -1.19534,4.54225 -2.1516,4.90085 -1.19533,0.35859 -2.8688,-6.33524 -4.66178,-6.45477 -0.83674,0 -0.11953,3.10786 -0.95626,4.06412 -0.7172,0.71719 -2.1516,-0.47814 -2.74926,-0.59767 l -2.15159,-0.59767 c -0.7172,-0.35859 -1.43441,-0.59767 -2.03207,-1.0758 -0.47814,-0.35859 -0.83673,-0.71719 -0.95626,-1.19533 -0.59767,-1.31485 -0.11953,-3.82505 -0.11953,-5.4985 z m -17.45181,6.81336 c -0.71721,-1.55391 -0.71721,-4.90085 -0.47814,-7.05243 0.11953,-1.91254 1.19534,-3.70552 1.55393,-5.61805 0.3586,-2.27113 0,-5.73758 0.47812,-7.88917 0.35861,-1.67346 1.43442,-3.58599 2.27114,-4.66178 0.71719,-1.07581 1.55392,-2.74927 2.74926,-2.5102 1.31487,0.35859 3.82504,3.46646 5.13992,4.18365 0.83673,0.59767 2.39064,-0.11954 2.86878,0.83672 0.47813,1.07581 -0.11952,3.94459 0.11953,5.97666 0.23907,2.27112 1.19534,5.37899 1.43441,8.12824 0.3586,2.74926 1.31486,6.69385 0.23906,8.60636 -0.7172,1.07582 -1.07581,2.27114 -2.74926,2.5102 -0.95626,0.23907 -2.98832,-0.95626 -3.82506,-0.11952 -0.59766,0.47812 -1.67346,0.11952 -2.51018,0 -1.07581,-0.11954 -2.27113,-1.67346 -3.10786,-1.91254 -0.7172,-0.11954 -1.43439,1.0758 -2.1516,0.83673 -0.83673,-0.23905 -1.55393,-0.59765 -2.03205,-1.31487 z m 35.50128,0.23907 c -0.59766,-0.83672 -0.59766,-2.62972 -0.71721,-4.0641 -0.11952,-1.67347 -0.23905,-3.82506 -0.11952,-5.7376 0.11952,-2.51018 0.71719,-6.81336 0.95626,-9.44309 0.23907,-1.91253 -0.23907,-4.90085 0.7172,-5.97665 0.83674,-0.95628 3.46646,-0.95628 4.78132,0 1.43439,1.19532 3.34692,4.54225 4.06411,7.17197 0.95628,2.74926 0.95628,7.41105 1.19534,10.04078 0.11953,1.79298 0.59767,4.06412 0.11953,5.61804 -0.11953,0.59767 0,2.62972 -0.35859,3.10785 -0.59768,0.95626 -1.91254,0.23908 -2.74926,0.7172 -0.71721,0.23906 -1.67346,-0.83673 -2.62973,-0.83673 -0.83673,-0.11952 -1.67345,0.83673 -2.27112,0.83673 l -1.55393,-0.3586 c -0.59767,-0.23905 -1.0758,-0.47813 -1.4344,-1.0758 z M 101.59147,313.6572 c -0.95627,-1.07581 -3.107856,0.35859 -3.346913,-2.27113 -0.478145,-5.13993 -0.239078,-12.3119 -0.358611,-17.92995 0,-5.13991 0.239067,-10.27983 -0.119534,-15.41975 l -0.717192,-6.21572 c 0,-0.71719 1.195337,-2.39065 2.868787,-4.18363 0.597663,-0.71722 3.107853,0.23906 3.825053,-0.47815 0.7172,-0.83673 -0.23906,-3.34691 0.47814,-4.18364 1.55393,-1.67347 2.62972,-3.2274 2.51018,-4.06412 -0.23905,-2.03207 -11.116564,1.91252 -11.355621,-0.11955 A 121.565,121.565 0 0 1 94.4195,240.98116 c 0,-0.95626 4.303181,-1.31486 3.94458,-1.793 -0.478134,-0.35859 -5.73758,-0.83671 -6.813378,-0.83671 l -8.964969,0.59765 c -1.075798,0.11953 -2.868792,1.19532 -3.107857,0.23906 -0.478133,-1.55392 -1.792996,0.23908 -2.629725,0.23908 -2.749258,0.23906 -5.259451,-1.55393 -7.291511,-1.31487 -6.215713,0.59767 -14.702551,-0.11954 -18.527605,2.39066 -2.988325,2.03206 -2.032061,9.0845 -4.303186,11.95329 -2.271126,2.98833 -6.81338,4.42272 -9.204037,5.61806 -1.553929,0.71718 -3.466456,1.79299 -4.90085,1.19532 -1.434397,-0.59768 -2.749259,-2.86878 -3.466457,-4.90086 -0.717197,-1.91252 -0.358598,-5.02037 -0.956264,-6.81336 -0.478132,-1.67347 -2.032059,-2.51021 -2.390658,-4.18366 -0.478131,-2.74927 -0.597664,-8.00871 -0.3586,-11.95331 0.239068,-4.06411 1.912528,-8.48682 2.032061,-12.79001 0.239065,-4.30319 -0.83673,-9.32357 -0.717198,-12.90957 0.119533,-2.74925 0,-5.97664 1.314862,-8.24776 l 2.151594,-2.98832 c 1.434394,-1.793 3.107856,-1.793 5.020384,-2.03206 1.434394,-0.23908 3.944588,0.59766 5.976646,1.07579 3.227391,0.71719 6.335246,-0.23908 7.889175,1.31486 2.390659,2.15159 -0.239066,9.92123 2.510192,10.87749 4.900851,1.91254 17.929941,2.8688 26.894912,2.8688 6.215714,0 14.224423,-0.47812 20.679205,-0.47812 1.075794,-9.68217 2.271124,-21.15734 5.378974,-30.8395 0.83673,-2.5102 4.78131,-4.18366 5.97665,-6.33526 0.7172,-1.55392 -1.55393,-3.82505 -0.59766,-5.25945 1.55392,-2.62972 3.34691,-5.13991 5.37898,-7.53057 3.34692,-4.18366 6.21571,-8.7259 10.04076,-12.43143 5.37899,-5.25945 11.83376,-9.4431 16.49555,-13.38769 2.86879,-2.51018 5.73758,-5.37897 8.84544,-7.53057 2.74926,-1.91254 5.61804,-3.10786 8.60638,-4.78132 4.54224,-2.62973 9.44309,-4.78132 14.46348,-6.33525 3.10786,-1.07579 5.02038,-2.51018 8.96497,-3.58599 2.15159,-0.59766 4.42271,-3.34692 6.93291,-3.58599 4.42272,-0.23906 9.32357,-0.11953 13.98535,-0.47813 0.23907,0 1.91253,1.793 2.74926,4.18366 0.95627,2.39066 1.0758,5.49851 1.4344,5.49851 0.71719,-0.11952 0,-6.81337 -0.23908,-10.1603 l -1.31485,-16.256479 c -0.11953,-1.434397 2.62972,-2.868794 2.51019,-4.183657 -0.11953,-1.434397 -2.98831,-2.629726 -3.10785,-3.825055 -0.11954,-1.792989 0,-3.825056 0.23906,-5.857112 0.3586,-5.378986 1.0758,-10.877496 -0.23906,-13.507222 -1.07581,-2.151591 -7.65011,-1.553931 -10.8775,-2.868794 -3.94459,-1.434386 -11.11656,-3.34692 -12.79003,-6.335242 -0.83673,-1.553928 0.23906,-4.303187 0.3586,-6.813378 0.23906,-2.629725 -0.23907,-5.139916 1.79299,-6.693845 0.83674,-0.597665 1.91253,-1.075796 3.22739,-1.434395 0.95628,-0.358599 1.793,-3.107857 2.98833,-3.346923 1.67346,-0.239065 4.30318,0.597665 6.21571,0.478132 3.22739,-0.358599 6.21572,0.836731 9.08451,0.478131 1.55392,-0.119533 2.98832,4.183653 4.66178,4.064122 1.19532,-0.119534 2.51019,-4.661786 3.70552,-4.781319 6.21571,-0.358599 12.79002,-0.597665 18.40808,-0.478131 7.88917,0 16.61508,1.075795 23.42845,1.67346 5.73759,0.478132 15.41976,-1.075796 17.21274,2.032061 2.03207,3.705521 -0.59766,16.017419 -4.78132,19.961998 -1.91251,1.673465 -5.73756,4.183657 -10.04076,4.303191 -2.1516,0.119534 -4.78132,-1.792999 -6.69385,-1.673465 -1.43439,0.239068 -2.74924,0.478136 -3.58599,0.836738 -0.95625,0.478125 -1.67346,0.956261 -2.15158,1.553921 -1.43439,1.912532 -1.31486,4.422724 -2.03207,6.45478 -1.31486,3.466454 -3.46645,8.367305 -3.70551,12.550961 -0.35862,4.183658 2.03206,8.725906 2.03206,13.029093 l -0.11954,5.020382 c -0.11954,0.956267 -0.83672,2.390657 -0.23906,2.988327 0.59766,0.47814 2.51019,0.11954 3.82505,0.23906 a 149.41618,149.41618 0 0 1 41.47793,9.32358 c 4.66178,1.79299 9.20403,4.30318 13.62677,7.05243 1.19531,0.71721 1.19531,4.78134 2.39064,5.61806 2.39066,1.55392 5.73759,0 8.00871,1.793 4.54225,3.46644 8.84543,7.05244 12.79002,10.51889 7.65012,6.69384 15.8979,13.50723 21.75501,21.87453 0.83672,1.19533 -8.00872,8.12824 -7.29152,9.32356 0.7172,1.0758 6.09619,-5.25943 11.35564,-2.39065 1.07579,0.59766 1.31485,2.1516 2.15159,3.34692 2.03206,2.74927 4.78131,5.85711 5.73758,9.08451 0.83674,2.51019 -1.55394,5.13992 -0.83674,7.88917 0.47814,1.91253 3.82506,3.94459 4.30319,5.85712 1.55393,6.21571 0.11953,12.31188 1.19534,18.28853 4.06412,0.59767 8.48683,1.793 12.19235,2.1516 8.36731,0.83673 20.3206,3.22739 28.09025,4.30318 6.09617,0.83674 12.43142,1.31486 18.5276,2.39065 8.84544,1.43441 32.15437,5.49853 34.66456,7.29153 2.62973,1.79299 -12.90957,3.10785 -19.6034,4.06411 -6.09619,0.95626 -15.53929,1.31486 -24.2652,2.27113 l -5.25944,0.47813 c -1.07579,0.11954 -2.03207,-2.51019 -3.10786,-2.39066 -1.31486,0.11952 -2.74926,2.98832 -3.94458,2.98832 -2.1516,0.23908 -4.3032,0.23908 -6.45479,0.23908 -6.21571,0 -12.43143,-0.35861 -18.64714,-0.23908 -2.39065,0.11955 -5.49851,0.59767 -8.60637,1.0758 0.47814,9.56264 0,19.12527 -0.59767,28.68792 -0.47813,6.57431 -1.55392,14.82207 -2.74925,22.71125 -0.23906,2.15158 -1.4344,4.18365 -1.793,6.33524 -0.23906,1.91253 0.23906,3.94459 0,5.85713 l -1.19532,6.9329 c -0.3586,2.03206 -2.98833,3.94459 -3.2274,5.49852 -0.23907,1.91252 1.4344,3.82504 0.83673,5.73757 -1.0758,3.34693 -2.15159,6.57431 -1.79299,9.08451 0.71719,3.82506 7.17198,4.90085 7.65011,8.7259 0.47814,3.82506 -2.98833,9.56264 -4.78132,14.22443 l -1.79299,4.42271 c -0.47813,1.07581 -8.96498,0.23907 -9.4431,1.43441 -0.59767,1.19532 6.69385,4.42271 6.21572,5.73757 -1.79301,3.82506 -3.46646,7.65011 -4.42272,10.39936 -0.83674,2.03207 -1.0758,4.78132 -1.43441,7.17199 -0.35859,2.27112 -0.83673,4.18365 -1.91252,5.25945 -1.4344,1.07579 -4.06412,1.55393 -6.57431,1.4344 -1.91253,-0.23909 -3.70552,-0.71721 -4.90085,-1.4344 -0.7172,-0.47814 -0.35861,-2.62973 -0.83674,-3.586 -0.3586,-0.7172 -1.67346,-0.11954 -1.91251,-1.0758 -1.19534,-2.98832 -2.03207,-6.21571 -3.46647,-6.45476 -1.0758,-0.23908 -2.27113,0.95626 -3.58598,2.62971 l -1.55393,2.03206 c -0.35861,0.59767 -2.27112,0.59767 -2.62974,1.0758 -0.71718,0.95627 0,2.39066 -0.71718,2.8688 l -1.91254,1.31486 c -1.79298,1.07579 -3.82505,1.79298 -5.49851,2.62973 -2.03206,0.95626 -4.30318,2.98831 -6.2157,2.74924 -1.91254,-0.35859 -3.70554,-5.13991 -5.379,-4.42271 -0.95627,0.47812 -2.15158,2.62973 -3.10785,4.90085 -0.35859,0.83672 -1.91253,0.83672 -2.1516,1.67347 -0.23906,0.59766 0.83674,1.91252 0.7172,2.39065 -0.47813,1.43439 -0.59766,2.98832 -0.7172,4.54225 l 0.11954,3.22739 c 0,1.91253 1.07579,4.42271 0.7172,5.73758 -0.11954,0.35859 -0.23908,2.03206 -0.59767,2.62972 -0.3586,0.59767 -0.83673,0.23908 -1.07579,0.83673 -0.23907,0.7172 0.23906,1.793 -0.23907,1.91254 -0.11953,0.11953 -0.83672,1.43439 -1.31486,1.07579 -0.47813,-0.35859 -0.7172,-2.1516 -1.19534,-2.27113 -0.23906,-0.11953 -1.43439,-2.62972 -1.55392,-2.51018 -0.23907,0 0.47813,2.03205 0.11953,2.39065 -0.3586,0.47813 -0.71719,1.19533 -0.95626,1.31487 -0.83672,0.23907 -1.31486,-0.95627 -1.91253,-0.71721 -1.19533,0.47814 -2.74925,1.43441 -3.58599,1.43441 -0.59767,0 -0.47813,-1.31487 -1.0758,-1.43441 h -1.91252 c -0.3586,0.11954 -0.95627,0.83674 -0.95627,0.47814 -0.7172,-2.86879 -0.35859,0.59767 -0.47812,1.07579 -0.23908,0.83674 -0.23908,1.793 -0.59768,1.91253 -0.47813,0.11953 -1.07579,-1.91253 -1.91252,-2.27112 -0.83673,-0.23906 -2.27113,0 -3.10785,0.35859 -0.7172,0.35861 -1.19533,1.91253 -1.91253,1.91253 -0.3586,0 -0.83672,-0.7172 -1.31487,-1.31486 -0.3586,-0.3586 -0.71719,-2.86879 -1.0758,-2.86879 -0.11953,0 0,1.31486 -0.23906,1.91253 -0.11953,0.47812 -0.83673,0.23907 -0.83673,0.35859 0,0.23907 1.07579,0.59767 1.31487,1.07579 1.0758,2.98833 1.91253,12.6705 2.27112,16.73462 0.11954,1.91252 0.47813,4.54225 0,6.21571 -0.11953,0.47814 -0.7172,0.11954 -0.95625,0.47814 -0.23907,0.11952 0,1.31487 -0.23907,1.91252 -0.59768,1.19533 -1.31488,2.62972 -2.03206,2.8688 -0.95626,0.23906 -2.03206,-1.19533 -2.74927,-2.03206 -0.23906,-0.23907 -0.59767,-0.3586 -0.59767,-0.59767 -0.23906,-0.83672 -0.95625,-0.3586 -1.07579,-0.59766 -0.35859,-0.83673 -0.11953,-2.15159 -0.11953,-3.10786 -0.23906,-1.67346 0.35859,-4.30319 0.11953,-6.33524 -0.11953,-2.03207 -1.19532,-4.06413 -1.43438,-6.09619 -0.23908,-2.39065 -0.47815,-6.33524 0,-8.12824 0.11952,-0.7172 1.31485,-1.67346 1.19531,-1.91251 -0.23905,-0.11954 -1.91251,0.47812 -2.39066,0.71718 -0.95627,0.47813 0,2.98833 -0.71719,3.10787 -0.83673,0.11953 -2.39066,-2.1516 -3.70552,-2.39067 -1.43441,-0.23907 -3.22738,0.59767 -4.30319,0.95626 -0.47813,0.23907 -0.95626,-3.58598 -1.31486,-3.22738 -0.23906,0.11953 0.11953,1.79299 -0.11954,3.10784 -0.11952,0.83675 -0.71719,1.55395 -0.83672,1.55395 -0.95626,0.83672 -2.1516,3.58598 -3.10786,3.58598 -0.95627,-0.11953 -1.67346,-2.39066 -2.62973,-3.58598 -0.95627,-1.31488 -2.15159,-3.34693 -3.46644,-4.06413 -0.95627,-0.71719 -2.62973,-0.11954 -3.70553,-0.35859 -1.07579,-0.3586 -1.91252,-2.03207 -2.86879,-1.43441 -1.31486,0.71721 -3.22738,5.37899 -4.78132,5.97666 -1.43439,0.59765 -2.74925,-1.67348 -4.06412,-2.5102 -1.19533,-0.83674 -2.15159,-2.74925 -3.46647,-2.51018 -1.79297,0.35859 -4.42271,3.70551 -7.05243,4.42271 -1.793,0.3586 -4.42272,0 -6.57431,-0.35859 a 28.80744,28.80744 0 0 0 -4.06413,-0.35861 c -0.47812,0 -1.07579,-2.74925 -1.55391,-2.74925 -0.59767,0 -1.19533,2.86879 -1.91253,2.74925 -0.83674,-0.11954 -2.03206,-1.67346 -3.34693,-2.03207 -2.1516,-0.47812 -4.42272,0.23907 -5.49851,0.23907 -1.0758,0 -1.55394,1.793 -2.5102,1.91254 -1.19532,0.11953 -2.98833,-0.95628 -4.54225,-1.19534 -0.83672,-0.11953 -2.27113,3.82506 -3.46645,3.82506 -0.83674,0 -1.55394,-1.07579 -2.39065,-2.03206 -0.35861,-0.47813 0.35859,-2.86879 0.11953,-3.22739 -0.47814,-0.47814 -1.91254,1.07579 -2.27114,0.95627 -1.91253,-0.23908 -4.42271,-0.7172 -5.73757,-1.19533 -1.07582,-0.35861 -1.67347,-1.67347 -2.62973,-1.793 -1.0758,0 -2.98832,1.55392 -3.70553,1.31487 -0.7172,-0.3586 -0.11953,-2.39067 -0.7172,-3.10787 -0.35859,-0.3586 -1.19531,-1.67346 -1.91252,-1.55392 -1.0758,0 -2.03206,1.55392 -2.51019,1.19532 -0.59766,-0.59766 0.59766,-2.62972 0.47813,-3.46645 -0.23907,-1.0758 1.55394,-2.86879 1.43441,-4.18365 -0.11954,-0.95626 -3.58599,-1.43439 -3.70553,-2.98831 0,-2.03207 1.0758,-4.78134 0.71719,-6.69386 -0.23906,-1.19532 1.0758,-3.70552 0.7172,-5.37898 -0.11954,-1.0758 -1.79299,-1.4344 -2.15159,-2.27113 -0.95627,-1.91253 -0.95627,-4.06412 -1.67347,-4.78131 -1.31485,-1.55394 -4.06411,3.10785 -5.61804,2.74926 -1.43439,-0.47814 -1.19533,-4.3032 -3.10786,-5.02038 -2.15159,-0.71721 -6.81336,-0.47815 -10.04077,0.35859 -3.22739,0.83673 -6.81338,3.22738 -9.20403,4.90085 -2.03206,1.55392 -3.22739,7.17197 -5.25946,5.49851 -1.19533,-0.95625 -5.25944,-2.74926 -7.05244,-6.57431 -1.55391,-3.22738 -0.95626,-8.60637 -2.03206,-10.8775 l -1.67346,-4.54226 c -0.83672,-2.62971 -1.55392,-5.37897 -2.86879,-7.88917 -2.15159,-4.42271 -7.53057,-8.7259 -8.96498,-14.22441 -1.314849,-5.37898 4.42273,-13.14863 4.06413,-18.40807 v -0.11953 l 3.94459,-7.05246 c 0.71719,-1.31486 3.10786,-2.74925 3.58598,-3.82504 l 0.59767,-1.55393 c 0.11954,-0.3586 1.79301,2.51019 3.70552,3.82506 2.5102,1.67345 5.37898,2.03205 5.49851,1.67345 0.11954,-0.23907 -1.67345,-0.95626 -2.86879,-2.39067 -0.3586,-0.3586 1.31487,-2.74925 0.95627,-3.10784 -0.47812,-0.47814 -1.91253,-0.11953 -2.51019,0 -1.91252,0.47812 -3.2274,-3.70553 -3.10786,-3.94459 l 3.34692,-8.12824 c 0.23906,-0.59767 1.55394,-0.23907 1.79301,-0.83673 0.35859,-0.83673 -0.59767,-2.8688 -0.35861,-3.82506 0.83673,-4.66178 0.59767,-10.1603 2.03206,-13.38769 l 0.59766,-1.91253 c 0,-0.3586 -0.23906,-0.59766 -0.59766,-0.7172 -0.59766,-0.23906 0.71719,-1.07579 0.71719,-1.43439 0,-1.79301 -0.11953,-3.70552 0.7172,-5.73757 1.55394,-3.34693 14.22444,-5.7376 13.38769,-5.7376 -0.3586,-0.11953 -3.22739,0.47813 -6.33524,1.43441 -0.35859,0.11953 -1.07579,-1.0758 -1.31486,-0.35862 0,0.35862 -0.23906,0.83675 -0.47814,0.95627 -1.19533,0.35861 -3.34692,-0.11952 -4.30318,0.47815 -2.03206,1.19531 -2.39066,3.58599 -3.22739,4.54225 -0.95625,1.19532 -2.1516,1.91251 -2.03206,3.46645 0,1.91252 0.35859,3.94459 -0.35861,5.61805 -1.43438,3.22739 -0.59766,6.2157 -0.83672,12.43142 0,2.39065 -1.43439,5.13992 -3.22739,7.76965 -0.3586,0.47813 -1.67346,0.47813 -2.15159,0.95626 -0.3586,0.7172 0.11954,1.79299 -0.3586,2.39065 -2.1516,2.74926 -4.30319,5.25946 -5.49852,7.53059 -0.3586,0.71718 -1.0758,3.10785 -1.79299,3.82504 -0.59767,0.59767 -1.55393,-3.22738 -2.03206,-3.82504 z m 90.3669,101.72253 c 0.95627,-0.83673 2.51019,-1.4344 3.82505,-1.19533 1.43441,0.23906 3.82506,1.67346 4.66179,2.86878 0.71721,1.31487 0,3.2274 0,4.90085 0,1.793 0.3586,4.54226 0,5.97664 -0.35859,1.19535 -2.15159,1.67348 -2.39065,2.98834 -0.23907,1.19533 0.83672,3.10786 0.83672,4.42272 -0.11953,1.19533 -0.35859,2.98832 -1.31485,3.34692 -0.83674,0.3586 -2.74926,1.91252 -3.82506,1.19533 -0.7172,-0.3586 -1.67346,-3.10787 -2.51019,-3.70552 -0.95626,-0.59767 -1.67346,-1.4344 -2.1516,-2.27112 -0.83671,-1.91253 -0.83671,-5.49852 -0.71718,-7.76964 a 19.244804,19.244804 0 0 1 3.58597,-10.63843 z m -8.24776,1.91253 c 0.47812,-0.7172 1.07579,-1.55393 1.91253,-1.79299 0.83672,-0.23907 2.62973,-0.11954 3.10785,0.59765 0.47813,0.59767 0.23906,2.27113 0.11953,3.34693 -0.11953,1.31486 -0.7172,3.34692 -1.0758,4.66179 -0.23907,1.19532 -1.07579,2.39065 -1.07579,3.58598 0,1.55393 0.83672,4.42272 0.95626,5.73758 0,0.95626 0.59768,2.27112 -0.23907,2.62972 -0.59767,0.23907 -1.67346,0.3586 -2.86878,0.47814 -1.19533,0 -3.70553,4.42271 -3.82505,0.59766 0,-0.83673 -1.0758,-2.03206 -1.67347,-2.74926 -0.71721,-0.83672 -1.19533,-1.67345 -1.55393,-2.5102 -0.47814,-1.55391 0.3586,-3.58596 0.71719,-5.25944 0.47813,-1.55392 1.0758,-3.10786 1.91254,-4.54225 0.95626,-1.55392 2.62972,-3.70552 3.58599,-4.78131 z m 88.69345,6.45477 c 0,-2.03205 -0.35861,-4.06412 0,-5.97664 0.35859,-1.67347 1.07579,-5.13992 2.15158,-4.90085 0.95627,0.23905 3.10786,4.06411 3.94458,6.45477 0.71721,2.39067 0.59768,5.37899 0.83675,7.88918 0.23905,2.39066 1.31485,5.49852 0.59766,7.05245 -0.23907,0.59766 -0.59766,2.98832 -1.31487,3.46644 -1.0758,0.47814 -2.62972,-1.0758 -3.34692,-1.31486 -0.3586,-0.23906 -0.7172,1.19534 -0.95627,0.7172 -0.23906,-0.35861 -0.3586,-2.51019 -0.59766,-2.98832 l -0.71721,-2.74926 c -0.47812,-2.03205 -0.59764,-5.37898 -0.59764,-7.65011 z m 19.12526,-1.31486 c -0.11954,-0.23906 0.23906,-1.19532 0.23906,-1.31486 l -0.95626,-3.34692 -0.7172,-3.46647 c -0.23906,-0.83672 -0.47813,-1.79297 -0.3586,-2.39064 0.11954,-0.47813 0.71721,-1.07581 1.0758,-0.83674 0.3586,0.35861 0.95626,1.91253 1.31487,2.98832 0.47813,1.0758 0.95627,2.39067 1.07579,3.70553 0.23907,1.43438 0.23907,3.70552 0.11953,4.78131 -0.11953,0.83674 -0.59767,1.91254 -0.95626,2.27113 0,0.11953 -0.35859,0.23907 -0.59767,0.11953 0.11954,0.95626 0,1.793 -0.23906,2.27113 -0.47814,0.71718 -1.4344,3.46645 -2.62972,3.34691 -0.71719,-0.11952 -1.67347,-2.74925 -2.03207,-3.22738 l -0.35859,-0.7172 0.23905,2.62973 c -0.11952,0.59766 -0.23905,1.31485 -0.59766,1.91252 -0.3586,0.83674 -0.83672,2.98833 -1.31486,3.34692 -0.47812,0.35861 -0.95625,-2.27112 -1.55392,-2.51018 -0.35861,-0.11955 -1.19533,1.0758 -1.43441,0.83672 -0.71718,-0.71719 -1.19532,-2.39065 -1.43438,-3.58598 -0.23907,-1.67347 0,-4.30319 0,-6.45478 v -7.53057 c 0,-0.83674 -0.3586,-2.03207 0,-2.39066 0.47812,-0.35859 2.15159,-0.71721 2.62972,0 0.83674,1.19532 1.67346,4.90085 2.27113,7.41104 l 0.7172,3.46645 -0.35861,-3.10785 -0.95626,-5.37898 c 0,-0.83674 -0.35859,-1.793 0,-2.39066 0.47814,-0.59767 1.793,-1.0758 2.51019,-0.95626 0.83674,0.11952 1.67347,1.07579 2.03207,1.91252 0.71719,1.55393 1.55392,4.54225 1.91252,6.81338 z m -128.85651,3.46645 -0.3586,-0.11953 c -0.59768,-0.47813 -0.95627,-2.39065 -1.19534,-3.70552 a 40.521668,40.521668 0 0 1 0.59766,-12.55096 c 0.23909,-0.59766 1.55395,-0.23907 1.91254,0.3586 0.47813,0.83673 0.95626,2.98833 1.0758,4.54225 0.11953,1.4344 -0.23908,2.98833 -0.3586,4.54225 v 0.47814 l 0.59766,-1.43441 c 0.7172,-1.67344 1.55393,-4.18364 2.27113,-5.1399 0.47813,-0.59767 1.55392,-1.19533 2.15158,-0.95626 0.7172,0.23905 1.55395,1.43438 1.67347,2.39064 a 30.839499,30.839499 0 0 1 -1.19533,9.92125 l 0.95627,-2.51019 0.95626,-5.49852 c 0.11954,-0.59766 0.11954,-1.55393 0.7172,-1.91254 0.47813,-0.23906 1.43439,0 2.27113,0.23908 0.95626,0.23905 2.98832,0.7172 3.70552,1.67346 0.71719,0.95626 0.71719,2.62972 0.47812,3.94459 -0.23907,1.79298 -1.55393,4.66178 -2.15158,6.69383 -0.47814,1.79301 -0.11954,4.06413 -0.95626,5.37899 -0.3586,0.35861 -0.7172,0.83674 -1.31487,1.19533 -0.23908,0.23907 -0.95626,-0.47812 -1.31487,-0.35859 -0.71719,0.35859 -1.0758,1.55392 -1.67345,1.19533 -0.47814,-0.23907 -1.31487,0.35859 -1.67347,-0.47814 -0.35861,-0.59766 -0.35861,-2.39066 -0.47814,-2.98833 l -0.59766,-2.03205 -0.3586,0.71719 c -0.71719,0.7172 -1.91252,1.55394 -3.22739,0.59767 -0.47812,-0.3586 -1.07579,2.62973 -1.55392,1.91253 -0.35859,-0.59767 -0.59766,-4.54226 -0.83673,-5.13993 z M 224.7104,323.81749 c 1.67347,-2.03206 2.62974,-6.33525 4.90085,-6.33525 2.27113,0.11954 6.21572,3.82506 8.60638,6.57432 1.793,2.15159 2.74926,5.13991 4.18365,7.88916 0.47813,1.07581 4.78132,0.95627 5.49851,1.79301 1.07581,1.55393 -3.22739,2.15158 0.23907,5.85711 l 2.39066,2.62973 a 46.25925,46.25925 0 0 1 8.12825,15.06114 c 0.71718,2.39067 0.83671,4.66179 0.47812,7.05245 a 25.340984,25.340984 0 0 1 -8.60637,13.38769 c -2.98833,2.39066 -8.48684,4.06412 -11.11657,2.74925 -1.43439,-0.59767 -5.49852,-1.07579 -6.09617,-3.46644 -0.59767,-2.1516 -0.47814,-6.09619 -1.67346,-7.17198 -2.1516,-2.27112 -1.31486,-3.82506 -3.82506,-3.10787 -2.5102,0.71721 -4.90085,6.69386 -7.17198,8.72591 -2.03205,1.793 -5.61804,3.70553 -8.3673,2.8688 -1.67346,-0.47814 -4.30318,-2.27114 -6.69385,-4.3032 -2.15159,-2.03205 -4.18364,-4.30318 -4.90086,-6.09617 -1.67345,-3.82506 1.79301,-5.97665 2.8688,-10.04077 1.07579,-4.18365 1.43439,-8.84544 3.58599,-12.67049 2.27112,-3.82505 5.97664,-6.9329 9.08451,-10.5189 2.98832,-3.46646 6.21571,-8.00871 8.48683,-10.8775 z M 124.42226,301.82342 c -0.3586,-4.18365 0,-10.04076 2.03205,-14.10488 1.91253,-4.18365 5.97667,-7.65011 9.92126,-10.5189 2.39064,-1.793 5.73756,-0.95627 9.20403,-3.22739 3.82505,-2.39065 8.0087,-7.76964 11.71421,-8.84543 4.30319,-1.19533 8.84545,-1.55394 13.38771,-1.19533 2.98831,0.11954 5.97664,0.59766 8.84544,1.19533 4.66177,1.07579 15.53927,4.78132 21.51592,6.57431 2.62972,0.83674 5.02039,-2.86879 7.05244,-1.67346 1.793,1.19532 -0.95626,4.42271 0,6.09616 0.7172,1.43442 1.07579,3.34694 1.31486,5.37901 0.83673,9.44309 -3.22738,24.02611 -5.49851,31.07855 -2.03205,6.33525 -6.57431,12.19237 -12.31189,15.53928 -6.21571,3.586 -16.37601,5.37899 -24.86285,6.33526 l -5.61806,0.47812 c -1.31485,0.23907 -2.86878,4.06412 -4.18365,4.18366 -1.19533,0.11954 -2.15159,-3.58599 -3.34692,-3.58599 -5.13992,0.11953 -10.1603,-0.23906 -13.62676,-2.15158 -6.33524,-3.70554 -8.72591,-15.5393 -11.35562,-20.79875 -1.793,-3.46645 -3.94459,-6.93292 -4.18366,-10.75797 z m 131.7253,-9.92122 c 1.07579,4.18365 4.42273,10.16029 8.24777,16.01741 0.47814,0.83674 -1.19532,2.15159 -0.59766,2.98832 0.59766,0.95627 3.586,1.31486 4.30319,2.27113 2.74926,3.70553 5.49851,6.93291 7.65011,8.96497 4.78132,4.30319 12.43144,3.46646 18.52761,5.02038 6.2157,1.67347 12.79002,5.37898 18.64713,4.42272 5.97665,-0.83673 12.67049,-4.66179 16.61509,-9.68216 1.07579,-1.19533 2.03206,-2.74927 2.98832,-4.54226 0.59766,-1.19533 3.82505,-2.39066 4.42272,-3.70551 0.47813,-1.31487 -1.55394,-2.62973 -1.07579,-4.06414 1.07579,-3.22738 2.03206,-6.5743 2.39065,-9.20403 1.07579,-5.73757 1.19533,-12.43142 -1.91253,-17.33227 l -3.58599,-4.54225 c -0.83672,-0.83673 -0.23906,-7.41105 -1.19532,-8.24778 -0.83674,-0.95626 -3.10786,3.82505 -4.06412,2.98833 -4.42272,-4.18366 -9.56265,-8.00872 -13.38769,-9.8017 -3.34693,-1.55393 -7.05245,-1.55393 -10.87751,-1.19534 -3.22738,0.23906 -7.53057,3.34692 -9.56263,1.19534 -2.74925,-2.8688 -4.66178,0.47813 -7.05244,0.71719 -4.06412,0.59767 -8.00871,1.43439 -11.23609,2.39065 -4.54226,1.31488 -10.04078,2.27114 -12.79002,5.97667 -3.22741,4.30318 -8.24778,12.79003 -6.4548,19.36433"
     style="fill:#000000;fill-opacity:1;fill-rule:evenodd;stroke:none;stroke-width:0.13333"
     id="path2" />
</svg>
