<?xml version="1.0" encoding="UTF-8" standalone="no"?>
<!-- Uploaded to: SVG Repo, www.svgrepo.com, Generator: SVG Repo Mixer Tools -->

<svg
   fill="#000000"
   width="800"
   height="750"
   viewBox="0 0 20.050126 18.796994"
   version="1.1"
   id="svg1"
   sodipodi:docname="reversal.svg"
   inkscape:version="1.4.2 (ebf0e940d0, 2025-05-08)"
   xmlns:inkscape="http://www.inkscape.org/namespaces/inkscape"
   xmlns:sodipodi="http://sodipodi.sourceforge.net/DTD/sodipodi-0.dtd"
   xmlns="http://www.w3.org/2000/svg"
   xmlns:svg="http://www.w3.org/2000/svg">
  <defs
     id="defs1" />
  <sodipodi:namedview
     id="namedview1"
     pagecolor="#ffffff"
     bordercolor="#666666"
     borderopacity="1.0"
     inkscape:showpageshadow="2"
     inkscape:pageopacity="0.0"
     inkscape:pagecheckerboard="0"
     inkscape:deskcolor="#d1d1d1"
     inkscape:zoom="1.124889"
     inkscape:cx="168.46106"
     inkscape:cy="310.25282"
     inkscape:window-width="2560"
     inkscape:window-height="1417"
     inkscape:window-x="0"
     inkscape:window-y="23"
     inkscape:window-maximized="1"
     inkscape:current-layer="svg1" />
  <path
     style="fill:#ffffff;stroke-width:0.0250627"
     d="M 7.6881951,2.9908176 C 7.4150065,3.1092063 7.2276363,3.3589362 6.9939974,3.537542 5.8397479,4.5553629 4.6673172,5.5533936 3.5331712,6.5935386 3.3402559,6.7948838 3.413808,7.1309334 3.6365333,7.2782881 4.935716,8.4243464 6.2336593,9.5724897 7.5493361,10.69939 c 0.24262,0.172421 0.619369,0.02033 0.66356,-0.276574 0.03422,-0.5409623 0.01141,-1.0858727 0.01868,-1.6282889 1.480206,0.00317 2.9604119,0.00633 4.4406189,0.00949 0.003,1.0493566 0.006,2.0987119 0.0089,3.1480679 -2.29336,0.0027 -4.5876979,-0.0054 -6.880448,0.004 -0.2675372,0.0085 -0.4417575,0.281586 -0.40415,0.533441 0.00269,0.972652 -0.00537,1.946285 0.00402,2.918329 0.00849,0.267533 0.2815855,0.441762 0.5334404,0.404145 2.7430627,-0.0058 5.4863566,0.01395 8.2292566,-0.01952 1.122417,-0.03971 2.201022,-0.87506 2.42312,-1.993298 0.06565,-0.421272 0.02741,-0.851621 0.04173,-1.276625 -0.0022,-1.813384 0.0015,-3.627321 -0.04726,-5.4401353 C 16.498915,6.3033945 15.945126,5.6338124 15.273183,5.2654349 14.982449,5.1216214 14.669428,4.999274 14.345556,4.9676557 c -2.03866,-0.00399 -4.07732,-0.00798 -6.1159799,-0.011967 -0.0086,-0.532574 0.0045,-1.0672427 -0.01745,-1.5985125 -0.01894,-0.252839 -0.282735,-0.4230403 -0.523931,-0.3663586 z"
     id="path3" />
  <path
     style="fill:#ffffff;stroke-width:0.0250627"
     d="M 7.7260371,3.3122046 C 6.3988877,4.4785249 5.0604682,5.6324373 3.7440742,6.8107452 3.6569612,6.9275543 3.7878382,7.0249924 3.8700099,7.0921357 5.1503797,8.2248935 6.4402923,9.346811 7.7260371,10.47346 c 0.100585,0.08142 0.237105,-0.02665 0.20806,-0.144943 0.0027,-0.6050481 0.0053,-1.210096 0.008,-1.815144 h 5.0394949 v 3.759399 H 5.8206132 c -0.1591803,0.01589 -0.1239101,0.199758 -0.1253133,0.313017 0.00335,0.938191 -0.00669,1.878393 0.00501,2.81533 0.031542,0.159076 0.2264895,0.09717 0.3422653,0.108754 2.7898549,-0.0046 5.5801078,-0.0033 8.3697138,-0.0116 0.514454,-0.110712 1.010333,-0.352338 1.365452,-0.748197 0.288229,-0.310103 0.505208,-0.708287 0.542859,-1.134517 0.02717,-1.341915 0.0076,-2.684426 0.0045,-4.0265522 C 16.3172,8.754059 16.32,7.9183168 16.30494,7.0838693 16.156868,6.3404377 15.608044,5.7043097 14.903024,5.4324656 14.611936,5.3082821 14.29433,5.2765165 13.98081,5.2838616 c -2.012859,-0.01382 -4.0258109,-0.0044 -6.0387069,-0.0073 -0.0061,-0.6287001 0.0012,-1.2594804 -0.01332,-1.8868885 -0.0097,-0.09656 -0.13037,-0.1364093 -0.202745,-0.077464 z"
     id="path2"
     sodipodi:nodetypes="cccccccccccccccccccccc" />
  <path
     d="m 16.20804,7.3984965 0.01702,6.0000005 c 0.0031,1.102996 -1.049188,2 -2.153192,2 H 5.82506 v -3.000001 h 7.280851 V 8.3984965 H 7.8250601 V 10.398496 L 3.82506,6.8984965 l 4.0000001,-3.5 v 2 h 6.2638309 c 1.104569,0 2.116015,0.8954349 2.119149,2 z"
     id="path1"
     sodipodi:nodetypes="ssscccccccccss" />
</svg>
