<svg xmlns="http://www.w3.org/2000/svg" width="357.333" height="357.333" version="1.0" viewBox="0 0 268 268"><path d="M0 134v134h268V0H0v134zm195.2-83.5c18.8 4.7 35.5 9 37.1 9.6 3.7 1.6 7.5 6.2 8.3 10.4.5 2.7-3.2 18.2-16.6 69.3-9.5 36.1-17.9 66.9-18.6 68.4-.7 1.4-2.5 3.6-4 4.7-4.8 3.8-8.6 3.7-25.6-.5-8.7-2.1-15.8-4.1-15.8-4.4 0-.3 1.6-1.2 3.6-1.9 4.9-1.8 10.4-6.8 12.5-11.6 3.8-8.2 3.3-10-16.6-66.3C149.3 99.5 141 75 141 73.8c0-3.6 5.5-22.4 7.4-25.3 1.6-2.5 8.5-6.4 11.3-6.5.6 0 16.6 3.8 35.5 8.5zm-77-2.8c1.5.7 3.5 2.5 4.4 3.8 2.3 3.6 47.4 131.1 47.4 134.1 0 3.1-2.1 7.2-5.2 10.1-3.1 3-68.9 25.3-74.4 25.3-4.4 0-9.5-2.7-11.8-6.2-.8-1.3-11.7-31.1-24.1-66.3C34 90.6 31.9 84 32.3 79.6c.8-8.8 2.5-9.7 40.8-22.4 18.4-6.1 34.3-11.3 35.4-11.5 2.6-.5 6.3.2 9.7 2z"/><path d="M116 293.686c-5.12-1.696-9.374-4.763-10.985-7.92-3.04-5.96-43.237-118.342-54.975-153.7-5.952-17.93-7.066-22.45-6.588-26.733 1.198-10.722 3.342-11.823 59.215-30.393 43.615-14.497 43.13-14.355 46.798-13.677 5.024.93 8.797 2.672 11.502 5.311 2.423 2.364 2.805 3.166 7.435 15.582 13 34.864 39.391 109.389 51.914 146.594 3.72 11.051 5.817 18.089 5.817 19.515 0 2.648-2.3 7.559-5.038 10.758-1.55 1.81-3.033 2.662-8.682 4.985-23.12 9.508-83.759 29.52-91.333 30.142-1.694.14-3.854-.058-5.08-.464z" style="fill:#fff;stroke-width:.533333" transform="scale(.75)"/><path d="M251.547 286.656c-5.348-.862-26.568-5.981-33.411-8.06l-4.53-1.377 5.597-2.68c7.273-3.482 12.581-8.544 15.779-15.045 2.044-4.156 2.085-4.354 2.08-10.133-.004-4.757-.293-6.975-1.498-11.494-2.173-8.147-9.291-29.248-23.032-68.267-13.712-38.939-24.265-70.14-24.265-71.74 0-2.076 3.76-16.07 6.518-24.26 2.475-7.349 3.03-8.507 5.005-10.427 2.862-2.782 10.33-6.64 12.856-6.64 2.14 0 22.903 4.905 55.62 13.14 34.472 8.675 40.638 10.354 43.015 11.712 4.47 2.554 9.252 9.673 9.252 13.773 0 4.128-4.787 24.359-15.722 66.442-10.91 41.984-27.287 103.084-30.357 113.252-1.99 6.586-8.226 11.686-15.027 12.286-1.738.153-5.284-.064-7.88-.482z" style="fill:#fff;stroke-width:.533333" transform="scale(.75)"/></svg>