<svg xmlns="http://www.w3.org/2000/svg" width="357" height="357" version="1.0" viewBox="0 0 268 268"><path d="M0 134v134h268V0H0v134zm195-83 37 9c4 2 8 6 9 11l-17 69a829 829 0 0 1-23 73c-4 4-8 4-25-1l-16-4 4-2c4-2 10-7 12-12 4-8 3-9-17-66l-18-54c0-4 6-23 7-26 2-2 9-6 12-6l35 9zm-77-3c2 0 4 2 5 4l47 134c0 3-2 7-5 10s-69 25-75 25c-4 0-9-3-11-6A2088 2088 0 0 1 32 80c1-9 3-10 41-23l35-11c3-1 7 0 10 2z"/><path d="M116 294c-5-2-9-5-11-8a5089 5089 0 0 1-62-181c2-10 4-11 60-30 43-15 43-14 46-14 5 1 9 3 12 6a6548 6548 0 0 1 65 182c0 2-2 7-5 10a849 849 0 0 1-105 35z" style="fill:#fff;stroke-width:.533333" transform="scale(.75)"/><path d="m252 287-34-8-4-2 5-2c7-4 13-9 16-16 2-4 2-4 2-10l-1-11-23-68-25-72 7-24c2-8 3-9 5-11 3-3 10-6 13-6a916 916 0 0 1 98 24c5 3 10 10 10 14l-16 67c-11 42-27 103-31 113-2 6-8 12-15 12h-7z" style="fill:#fff;stroke-width:.533333" transform="scale(.75)"/></svg>